<svg width="350" height="600" version="1.1" xmlns="http://www.w3.org/2000/svg" desc="Created with imagetracer.js version 1.2.5"><path d="M 7.5 5 Q 15.7 3.3 19.5 6 L 23.5 6 L 26.5 5 L 31.5 6 L 33.5 6 Q 40.3 7.3 43.5 5 L 45.5 5 L 50.5 6 L 54.5 5 L 59.5 6 L 63.5 6 L 78.5 6 L 79.5 5 L 80.5 6 L 171.5 6 L 174.5 5 L 175.5 6 L 183.5 6 L 186.5 5 L 188.5 5 L 206.5 6 L 207.5 5 L 303.5 5 L 306.5 6 L 309.5 5 L 310.5 6 L 336 6 L 338 14.5 L 338 144.5 L 338 146.5 L 338 181.5 L 337 184.5 L 338 185.5 L 338 209.5 L 337 211.5 L 338 212.5 L 338 328.5 L 339 333.5 L 338 335.5 L 339 340.5 L 338 343.5 L 339 348.5 L 338 352.5 L 339 356.5 L 338 361.5 Q 340.8 363.3 339 369.5 L 338 370.5 L 338 428.5 L 337 429.5 L 338 431.5 L 338 433.5 L 337 438.5 Q 339.5 440 338 445.5 L 337 446.5 L 337 476.5 L 336 478.5 L 337 482.5 L 336 485.5 L 337 489.5 L 336 493.5 L 337 494.5 L 337 509.5 L 336 511.5 Q 338.5 513 337 518.5 Q 334.3 520.3 336 526.5 Q 338.2 527.7 337 532.5 L 336 534.5 L 336 536.5 L 337 538.5 L 337 577.5 L 338 578.5 L 337 583.5 L 337 585.5 L 338 587.5 L 337 589.5 L 338 592.5 L 335.5 595 L 324.5 596 L 323.5 595 L 260.5 595 L 259.5 594 L 179.5 594 L 177.5 594 L 165.5 595 L 161.5 595 L 159.5 594 L 144.5 594 L 141 595 L 140.5 593 Q 139 596.5 137.5 594 L 131.5 595 Q 130.2 592.8 125.5 594 L 122.5 595 L 117.5 594 Q 116.2 596.3 111.5 595 L 108.5 594 L 106.5 594 L 103.5 595 L 101.5 594 L 96.5 595 L 94.5 595 L 86.5 595 L 85.5 594 L 84.5 595 L 50.5 595 L 48.5 594 L 47.5 595 L 39.5 595 L 38.5 594 L 8.5 594 L 5 593 L 5 538.5 L 4 533.5 L 5 532.5 L 5 470.5 L 6 466.5 L 5 465.5 L 5 450.5 L 5 448.5 L 5 364.5 L 6 363.5 L 6 344.5 L 5 343.5 L 5 324.5 L 6 323.5 L 6 248.5 L 7 247.5 L 7 231.5 L 6 230.5 L 6 190.5 L 7 189.5 L 7 168.5 L 7 166.5 L 6 158.5 L 7 157.5 L 7 27.5 L 6 26.5 L 6 6.5 L 7.5 5 Z M 205 7 L 204 8 L 156 8 L 155 9 L 154 8 L 119 8 L 117 8 L 115 9 L 111 8 L 109 8 L 10 8 L 8 10 L 9 12 L 9 26 L 10 27 L 10 75 L 9 76 L 9 95 L 10 96 Q 11 100 9 102 L 10 107 L 10 109 L 9 112 L 10 116 Q 12 121 9 123 L 9 168 L 10 169 L 9 172 L 9 227 L 10 228 L 10 238 L 9 239 L 10 241 L 9 242 L 9 323 L 9 325 L 8 337 L 8 339 L 9 341 L 9 364 L 9 366 Q 11 371 8 373 L 9 377 L 9 386 L 8 387 L 8 425 L 9 426 L 8 429 L 8 456 L 17 454 L 18 453 L 20 455 L 18 451 L 19 447 L 17 447 Q 19 442 22 446 L 27 445 L 28 442 L 27 438 L 30 436 L 31 439 L 34 437 Q 35 434 33 435 L 31 435 L 29 434 Q 27 437 25 433 L 26 431 L 32 426 L 45 426 L 47 432 L 50 433 L 52 433 Q 54 434 53 430 L 55 430 L 54 433 L 58 433 L 58 440 L 57 441 L 55 440 L 54 442 L 60 441 L 59 440 L 60 436 Q 61 431 59 432 L 57 430 Q 55 428 58 427 Q 63 425 62 429 L 62 430 L 67 428 L 72 429 Q 73 427 74 430 L 72 432 L 70 439 L 70 440 Q 76 438 75 442 L 73 441 L 72 444 Q 76 445 77 443 L 76 436 L 84 436 L 85 437 L 86 438 L 86 444 Q 90 445 91 443 L 88 441 L 97 437 Q 98 440 95 439 L 95 444 Q 99 443 101 446 L 102 444 Q 103 441 100 442 L 99 434 L 94 423 Q 91 424 92 422 Q 80 417 73 409 L 71 406 L 69 404 L 59 391 L 55 369 Q 54 362 57 360 L 56 358 Q 57 355 54 356 L 50 348 L 51 340 L 60 330 L 59 328 L 61 315 L 63 310 L 65 281 L 68 270 Q 70 250 62 241 L 63 232 L 67 222 L 63 221 L 64 219 L 63 215 L 67 207 L 63 210 Q 56 208 57 212 L 52 213 L 53 209 Q 54 205 61 206 L 62 207 L 60 203 L 62 197 Q 65 196 67 199 L 67 196 L 64 195 L 65 192 L 63 191 Q 64 194 61 193 Q 60 189 63 190 L 64 185 L 63 179 L 68 175 L 68 173 L 63 173 Q 62 168 66 167 L 66 165 Q 64 168 61 167 Q 60 164 63 165 L 64 162 Q 59 163 58 161 L 60 157 L 60 155 L 64 155 L 65 152 Q 66 149 63 150 L 63 148 L 66 149 L 67 149 L 66 147 L 69 145 L 68 148 L 73 149 L 71 144 L 74 143 L 78 145 L 81 142 L 82 143 L 86 141 L 85 137 L 89 136 L 90 139 Q 91 141 93 139 Q 97 138 95 142 L 103 139 L 102 142 L 104 144 L 106 144 Q 105 141 108 142 L 108 145 Q 105 144 106 147 L 108 146 Q 112 145 110 149 L 106 150 L 110 151 L 112 155 L 112 163 L 113 164 Q 114 166 111 165 L 111 167 L 109 167 L 107 175 L 107 177 L 102 183 L 103 187 L 110 177 Q 109 174 112 175 L 107 187 L 94 196 Q 90 201 88 210 L 88 212 L 84 222 L 84 228 L 81 229 L 84 219 Q 85 216 83 217 L 78 226 L 75 227 L 78 222 L 76 214 L 79 212 L 80 216 Q 81 213 84 214 L 84 210 L 89 198 L 99 190 L 97 186 L 92 182 Q 89 183 90 179 Q 94 181 102 180 L 104 178 L 107 162 Q 108 154 103 153 L 105 152 Q 103 149 98 150 L 93 149 Q 89 148 90 151 L 86 152 Q 83 151 84 154 L 81 157 L 82 158 L 80 162 L 83 169 L 81 170 L 79 173 L 82 172 L 82 175 L 81 177 Q 79 183 82 185 L 81 188 L 82 192 L 81 201 L 80 204 L 78 207 L 74 208 Q 74 213 70 216 Q 71 218 68 217 Q 66 221 70 220 L 71 217 L 74 215 L 65 234 L 65 241 L 69 247 L 71 239 L 73 248 Q 77 250 76 252 L 79 252 Q 78 249 81 250 L 82 253 L 85 251 Q 88 252 87 250 L 92 246 L 88 244 L 86 241 L 90 239 Q 92 238 91 242 L 93 242 Q 92 239 95 240 Q 99 239 98 233 L 95 235 Q 92 236 93 233 L 99 230 L 102 235 L 100 239 L 96 240 Q 95 243 98 242 Q 99 240 100 243 L 96 244 L 97 247 L 96 247 L 93 248 Q 92 250 95 249 L 95 251 Q 90 250 89 253 L 89 254 L 93 254 Q 94 257 90 256 L 88 259 L 90 258 Q 92 257 91 260 L 89 261 Q 86 260 87 263 Q 85 264 88 266 Q 89 268 85 267 L 86 270 L 83 274 L 85 274 L 83 280 L 83 282 Q 84 284 81 283 L 82 289 L 79 290 Q 80 298 77 303 L 78 313 L 79 311 L 78 309 L 81 302 L 81 296 L 84 286 L 104 241 L 103 236 L 104 229 Q 110 230 111 227 L 110 223 L 111 214 Q 111 210 116 211 L 118 211 Q 120 212 119 210 L 119 208 L 124 201 L 123 197 Q 124 194 122 195 L 114 187 L 114 177 L 113 176 L 115 171 Q 116 168 118 170 L 121 163 L 120 162 L 120 161 L 119 158 L 120 155 Q 118 153 121 152 L 115 149 L 118 154 L 116 154 L 118 158 Q 119 163 116 166 L 115 166 L 116 164 Q 118 157 114 158 L 113 152 L 114 149 L 112 141 L 115 135 L 110 131 Q 110 126 113 126 L 107 116 L 105 108 L 101 101 Q 100 98 97 98 Q 94 97 95 93 L 100 89 L 112 88 L 114 88 L 117 87 L 126 88 L 128 88 L 129 89 L 137 89 L 142 91 Q 146 90 144 96 L 141 98 L 137 104 L 130 124 Q 133 126 132 132 L 137 136 Q 136 140 139 139 L 139 137 L 144 130 Q 143 127 146 128 L 154 117 L 159 113 L 144 132 L 139 143 L 141 148 L 150 152 Q 149 154 152 153 L 167 124 L 168 115 L 173 102 L 173 96 L 177 92 L 181 93 Q 183 94 182 92 L 178 89 L 174 90 L 170 94 L 162 110 L 160 111 L 169 93 Q 168 90 171 91 L 170 89 Q 165 90 167 85 Q 168 81 172 82 Q 169 69 163 60 Q 161 55 160 58 Q 152 59 150 55 L 151 51 L 155 48 L 164 46 L 167 44 L 191 44 L 194 46 L 199 46 L 204 48 Q 207 49 206 54 L 203 57 L 197 58 L 190 72 Q 191 76 189 78 Q 188 83 190 85 L 189 87 Q 187 95 192 97 L 190 106 L 191 108 L 190 110 L 190 118 L 193 132 L 200 147 L 195 150 Q 187 149 183 152 L 172 152 L 160 146 L 153 156 L 158 157 L 174 169 L 187 175 L 210 179 L 212 178 L 213 181 L 215 181 L 214 178 L 214 176 L 215 174 L 215 164 L 217 163 L 219 161 Q 217 154 220 153 L 219 149 Q 219 140 223 136 Q 222 132 225 133 L 224 129 L 221 128 Q 220 122 223 121 L 227 122 L 221 101 L 218 96 L 216 97 L 214 96 L 211 93 L 212 89 L 217 85 L 224 83 L 231 84 L 230 85 Q 221 84 217 87 Q 213 88 214 93 L 218 95 L 218 93 L 222 91 L 225 91 L 226 94 Q 225 96 228 95 L 229 98 Q 232 97 231 100 L 223 102 L 229 117 L 229 120 L 232 122 L 235 121 L 236 118 L 240 119 L 244 118 L 243 117 L 245 111 L 240 112 L 240 110 L 246 110 L 246 107 L 244 108 Q 240 109 241 106 L 248 106 L 249 105 L 242 104 Q 241 100 248 102 L 250 102 L 252 99 Q 253 94 248 96 L 246 96 Q 241 97 242 94 L 251 94 L 252 95 L 255 94 L 255 92 L 247 92 L 247 90 L 256 91 L 255 87 L 250 85 L 248 86 L 242 84 L 237 84 L 237 83 L 247 83 L 256 86 Q 260 87 259 94 L 255 96 L 251 103 L 244 126 L 247 127 L 246 124 L 248 123 L 250 128 Q 248 126 246 130 L 248 135 L 248 142 L 252 143 L 251 142 Q 250 139 257 140 Q 260 140 259 136 Q 261 133 262 136 Q 263 139 261 138 L 259 141 L 262 140 L 264 142 Q 263 145 266 144 L 265 141 Q 264 138 267 139 L 265 137 L 268 134 L 269 137 L 272 130 L 273 133 Q 273 130 278 131 Q 280 132 279 136 Q 282 137 281 135 L 285 133 L 283 137 Q 284 139 281 138 L 282 140 Q 287 141 288 137 L 290 139 L 286 142 L 290 148 L 290 151 L 295 150 L 297 154 L 296 156 Q 293 155 294 158 Q 300 157 302 161 L 300 165 L 304 175 L 304 178 L 301 178 L 297 176 Q 296 179 299 178 L 298 182 Q 294 183 295 180 L 290 179 L 287 183 L 288 185 L 288 183 Q 293 182 291 186 L 289 187 L 287 186 L 284 188 L 292 188 L 293 190 L 287 192 L 282 190 L 280 190 Q 279 192 282 191 L 282 194 Q 278 195 279 192 L 276 192 L 276 190 L 275 195 L 283 200 L 285 200 L 292 209 L 293 217 L 296 225 L 296 227 L 297 232 L 297 234 L 297 239 L 294 247 L 294 254 L 288 269 L 288 288 L 289 289 L 288 291 L 288 293 L 291 298 Q 290 305 293 309 Q 294 313 299 312 L 301 312 L 305 314 L 309 311 L 309 309 L 313 309 Q 314 312 310 311 L 309 315 L 313 317 L 318 313 Q 320 312 319 316 L 316 317 Q 315 320 318 319 L 318 322 L 325 321 L 323 326 L 325 334 L 317 337 L 318 344 L 322 347 L 322 353 L 320 361 L 316 364 L 317 366 L 316 369 L 314 370 Q 311 371 312 375 L 309 377 L 310 379 L 309 384 L 304 386 Q 299 385 300 379 L 298 378 L 299 397 L 303 410 L 302 415 L 303 419 L 303 423 L 300 430 L 300 445 L 299 446 L 300 452 L 302 451 L 303 449 L 303 447 L 303 443 Q 300 444 301 441 L 305 438 L 306 442 Q 308 439 314 440 Q 315 436 319 437 L 317 449 Q 320 450 319 448 L 323 445 L 321 441 L 322 419 L 319 418 L 316 420 Q 312 421 313 418 Q 314 415 316 417 Q 323 419 322 415 L 319 414 L 317 415 L 314 411 L 318 410 Q 324 412 322 406 L 318 407 L 314 406 Q 312 401 316 402 L 319 401 Q 322 402 321 400 L 321 398 L 322 395 Q 321 392 325 393 L 327 393 L 329 392 L 330 396 L 326 398 L 324 401 L 326 400 L 332 402 L 331 402 L 329 402 Q 324 400 325 405 L 327 404 Q 334 403 333 406 L 328 407 Q 326 405 325 408 L 325 410 L 331 410 L 330 412 Q 329 415 333 413 L 334 416 Q 334 420 329 419 L 327 419 L 325 421 L 325 439 L 324 440 L 325 446 L 329 445 L 333 446 L 334 448 L 334 440 L 335 439 L 334 430 L 335 427 L 334 425 L 335 422 L 334 419 L 335 417 L 335 386 L 336 385 L 335 384 L 335 266 L 334 265 L 335 250 L 335 248 L 335 240 L 334 239 L 334 213 L 333 212 L 334 209 L 334 188 L 333 187 L 334 185 Q 336 178 333 177 L 334 176 L 334 153 L 335 152 L 334 150 L 334 133 L 335 132 L 334 128 L 335 125 L 334 123 L 335 116 L 335 114 L 335 98 L 334 97 L 335 95 L 335 74 L 335 72 L 334 69 L 335 67 L 334 63 L 334 8 L 322 8 L 321 7 L 319 8 L 299 8 L 298 7 L 294 8 L 292 8 L 291 7 L 283 7 L 281 7 L 242 7 L 241 8 L 239 7 L 237 7 L 235 8 L 233 7 Q 228 6 227 8 Q 222 9 221 7 L 219 8 Q 210 9 205 7 Z M 171 45 L 158 49 L 153 53 L 154 55 L 158 56 L 156 54 L 158 52 L 161 53 Q 172 63 175 81 Q 176 83 178 81 L 181 82 L 184 81 Q 185 83 186 81 L 186 79 L 179 79 L 180 77 L 181 75 L 187 75 L 186 71 L 181 72 Q 180 69 188 70 L 189 66 L 185 67 L 181 67 L 186 64 L 191 65 L 194 57 L 186 56 L 190 54 L 197 56 Q 199 52 194 53 L 192 53 L 188 52 L 188 51 L 200 52 L 201 49 L 189 46 L 178 46 L 176 46 L 171 45 Z M 172 82 L 170 86 L 173 87 L 175 89 L 174 86 Q 175 81 172 82 Z M 177 83 L 177 86 L 180 87 Q 182 81 177 83 Z M 184 83 L 183 87 L 187 88 Q 189 84 184 85 L 184 83 Z M 109 90 L 106 92 L 99 93 L 100 97 L 107 94 L 115 95 L 102 97 Q 101 101 105 102 L 107 101 Q 112 100 114 104 L 112 105 L 115 105 L 114 107 L 110 106 L 107 108 Q 108 110 110 108 Q 112 107 111 110 L 113 109 L 118 110 L 113 112 Q 108 111 110 115 L 118 114 L 117 116 Q 111 114 112 118 L 119 117 L 119 119 L 113 119 L 113 121 L 119 122 L 118 125 Q 119 127 121 125 L 124 126 L 124 125 L 127 123 L 129 121 L 131 113 L 124 112 L 124 111 L 132 112 L 137 99 L 133 96 Q 128 95 127 97 L 124 96 L 125 94 L 127 95 Q 131 96 133 94 L 138 96 Q 141 97 140 94 L 138 92 L 136 92 Q 132 89 124 91 L 123 90 L 121 91 L 116 90 L 111 91 L 109 90 Z M 186 91 L 182 96 L 187 95 L 187 91 L 186 91 Z M 223 92 L 222 93 Q 219 92 220 95 L 223 94 L 223 92 Z M 176 95 Q 175 98 179 97 Q 180 94 176 95 Z M 182 97 L 180 100 L 180 113 L 179 114 L 177 141 L 185 139 L 190 140 Q 189 142 188 140 L 180 143 L 177 142 L 176 150 L 196 147 Q 197 143 195 144 L 193 145 L 194 143 L 192 135 L 181 139 L 180 137 L 190 134 Q 192 135 191 132 L 189 133 L 185 133 L 188 131 Q 192 132 190 128 L 187 129 L 184 129 Q 185 126 189 127 L 188 123 L 185 124 Q 184 121 188 122 Q 190 118 185 119 Q 184 116 187 117 L 186 114 L 187 112 L 187 110 L 183 110 L 184 108 L 183 106 Q 185 100 182 101 L 182 100 L 182 97 Z M 226 97 L 225 98 Q 221 97 222 100 L 226 99 L 226 97 Z M 177 98 L 176 101 L 177 101 L 177 98 Z M 186 98 Q 183 100 186 101 L 189 99 L 186 98 Z M 187 102 L 185 105 L 188 105 L 187 102 Z M 106 103 L 106 105 L 112 104 L 106 103 Z M 177 103 Q 177 106 174 105 L 174 108 Q 172 109 175 111 L 175 112 L 172 111 Q 171 115 175 117 L 174 117 L 171 116 Q 169 120 174 119 L 175 121 L 171 119 L 168 124 Q 169 127 173 126 L 174 128 L 169 126 Q 166 125 167 129 Q 170 128 172 131 Q 174 130 173 133 L 168 130 Q 165 129 166 132 L 173 135 L 171 138 L 172 140 Q 167 139 165 135 L 163 139 L 171 142 L 170 145 L 163 139 L 160 143 L 163 145 L 166 145 L 173 149 L 174 150 L 173 148 L 174 137 L 175 136 L 175 126 L 176 125 L 176 112 L 177 111 L 177 103 Z M 230 122 L 228 124 Q 226 128 230 127 L 231 128 Q 232 121 230 122 Z M 234 122 L 234 127 L 237 127 L 238 124 L 234 122 Z M 240 122 L 241 127 L 240 129 L 241 131 L 240 130 L 230 136 L 226 134 Q 222 133 224 138 L 224 140 L 223 151 L 222 152 Q 220 158 223 160 L 221 163 L 222 165 L 221 168 L 228 171 L 230 170 L 235 171 L 233 168 L 235 157 L 234 155 L 236 155 L 244 149 L 244 147 L 241 149 Q 236 150 238 146 L 245 144 L 245 141 L 243 142 L 243 144 L 242 143 Q 238 144 239 142 L 244 138 L 245 136 L 244 134 L 240 138 Q 236 139 237 136 L 243 131 L 242 126 L 242 124 Q 243 121 240 122 Z M 224 123 Q 222 126 225 127 L 226 127 L 224 123 Z M 127 125 L 127 129 L 125 134 L 123 135 L 121 135 L 119 138 Q 127 139 130 137 L 131 141 L 132 141 Q 131 137 134 138 L 134 136 L 127 133 L 129 130 Q 130 126 127 125 Z M 115 127 L 113 131 L 117 132 L 116 131 Q 117 126 115 127 Z M 121 127 Q 118 128 120 130 Q 119 132 123 131 L 124 129 L 121 127 Z M 166 133 Q 164 136 167 135 L 166 133 Z M 275 133 L 273 135 L 274 143 L 273 142 L 271 143 L 272 145 Q 276 146 275 143 L 278 144 L 279 144 L 275 133 Z M 135 138 L 132 142 L 134 143 L 133 145 L 132 144 L 131 149 L 137 147 L 136 140 L 135 138 Z M 270 138 L 269 140 L 271 141 L 270 138 Z M 115 139 L 115 142 L 118 143 L 118 145 Q 115 144 116 147 L 121 149 Q 122 145 119 146 L 119 144 Q 122 145 121 143 L 115 139 Z M 87 141 L 84 144 L 87 144 L 87 141 Z M 283 142 L 282 143 Q 278 142 280 146 L 283 147 Q 285 146 284 149 L 285 150 L 283 149 Q 281 145 279 149 L 284 151 L 285 155 Q 283 156 286 157 Q 288 156 286 155 L 287 153 L 286 148 L 283 142 Z M 271 143 L 270 146 L 271 146 L 271 143 Z M 95 145 L 95 147 L 97 146 L 95 145 Z M 268 145 L 268 148 Q 271 147 268 145 Z M 259 146 Q 257 149 260 148 L 259 146 Z M 265 146 L 263 149 L 265 149 L 265 146 Z M 248 147 L 248 149 L 250 148 L 248 147 Z M 271 147 L 271 149 L 273 148 L 271 147 Z M 252 148 L 251 151 L 252 151 L 252 148 Z M 78 151 L 76 155 Q 75 157 78 156 L 80 152 L 78 151 Z M 124 151 L 122 155 L 124 154 L 124 151 Z M 138 152 L 136 155 L 139 153 L 138 152 Z M 245 152 L 245 157 L 247 158 L 246 156 Q 247 151 245 152 Z M 257 152 L 258 154 Q 259 151 257 152 Z M 271 152 L 270 155 L 271 155 L 271 152 Z M 279 152 L 278 154 L 281 154 L 279 152 Z M 141 153 L 139 155 L 140 158 L 138 162 L 139 164 L 141 160 Q 140 155 142 154 L 141 153 Z M 144 153 Q 143 156 147 155 Q 148 152 144 153 Z M 242 153 L 239 155 L 237 157 L 237 163 L 241 165 L 240 169 L 242 174 L 241 176 L 242 180 L 241 184 L 242 188 L 245 187 Q 247 183 249 185 L 245 175 L 242 159 L 243 156 Q 244 152 242 153 Z M 253 153 L 251 155 L 252 176 L 252 174 L 259 176 L 262 178 L 261 179 L 254 180 L 253 177 L 252 177 L 253 182 L 257 184 L 266 184 L 267 183 L 269 185 L 267 186 Q 260 185 258 187 Q 259 191 255 193 Q 256 195 253 194 L 253 198 L 256 203 L 259 204 Q 260 207 262 205 L 267 208 L 270 208 L 272 212 L 262 209 Q 259 210 260 207 L 257 206 Q 253 205 255 209 L 252 207 L 247 208 L 247 206 L 253 206 L 252 203 L 248 205 L 247 203 L 243 202 L 242 205 L 242 213 L 243 214 L 242 223 L 238 233 L 238 236 L 241 236 Q 240 239 243 238 L 244 240 Q 243 247 246 250 L 248 249 L 251 250 L 251 248 L 248 246 Q 245 247 246 244 L 249 245 L 250 245 L 245 233 L 255 237 L 259 246 Q 258 248 261 247 L 263 247 Q 265 248 264 245 L 260 244 L 263 243 L 264 233 L 267 231 L 266 234 L 266 242 L 269 251 L 269 256 L 269 258 L 270 259 L 271 272 L 266 275 Q 265 272 268 273 L 267 262 L 264 260 L 265 263 L 265 276 L 262 276 Q 264 263 259 257 Q 258 252 262 254 L 265 258 L 266 255 L 265 252 Q 266 247 264 248 L 262 248 Q 259 247 260 250 L 257 250 L 256 248 Q 257 241 255 242 L 253 242 L 256 250 L 255 252 L 249 251 L 247 251 L 247 254 L 251 260 Q 252 258 258 259 L 259 262 L 253 261 L 251 261 L 254 271 Q 255 277 253 276 L 251 275 L 249 264 L 242 249 Q 243 246 240 247 L 241 244 L 238 243 L 238 248 L 243 257 L 246 267 L 244 270 Q 241 269 242 265 L 234 265 L 237 263 L 239 263 Q 242 264 241 261 Q 235 260 233 264 L 234 268 L 237 267 L 240 268 L 244 275 Q 242 288 237 298 L 237 305 Q 236 308 234 305 L 234 299 Q 239 290 240 280 L 236 278 Q 233 279 234 276 L 240 278 Q 242 279 241 275 L 233 274 L 230 287 L 228 289 L 226 309 L 218 327 L 218 342 L 219 343 L 219 354 L 220 355 L 220 384 L 221 385 L 220 388 L 221 394 L 223 395 L 226 394 L 234 394 L 240 398 L 242 398 Q 243 401 239 400 L 237 400 Q 236 402 239 401 L 239 403 Q 234 404 233 401 L 230 402 L 235 405 L 245 403 L 246 408 L 252 410 L 253 413 Q 258 417 266 419 L 277 419 L 280 417 Q 282 418 281 416 L 288 411 L 289 408 L 286 409 L 282 412 L 283 409 L 290 405 L 289 402 L 283 405 L 282 404 Q 283 399 289 400 Q 291 395 284 397 L 282 398 Q 281 395 284 396 L 284 394 L 289 395 L 289 391 L 283 391 L 286 389 L 288 390 L 289 390 L 289 386 L 285 385 L 289 384 L 289 380 L 288 383 L 286 382 Q 287 379 283 380 L 283 378 L 286 379 Q 290 380 289 378 L 287 376 L 285 376 L 284 375 L 288 372 L 289 375 L 290 372 L 287 369 Q 282 370 283 367 L 287 367 L 290 369 L 290 354 L 289 350 L 284 351 Q 281 352 282 349 L 286 348 L 289 348 L 289 341 L 282 341 Q 284 338 289 339 Q 290 335 284 337 L 285 335 L 289 336 L 289 335 L 284 332 L 288 331 Q 289 328 285 329 Q 284 326 288 327 L 288 323 L 282 323 L 282 321 L 288 321 L 287 319 L 287 317 L 281 317 L 281 315 L 287 315 Q 288 312 284 313 L 282 313 L 280 311 L 284 311 L 287 311 Q 286 307 281 308 L 282 306 L 287 307 L 286 305 Q 287 302 281 303 L 282 301 Q 288 303 286 298 L 279 297 L 283 295 L 286 296 L 285 294 L 285 281 L 284 280 L 285 276 L 284 272 L 285 258 L 288 251 L 288 246 L 290 243 L 289 237 L 282 236 L 283 234 L 288 235 Q 289 230 285 228 L 284 228 Q 281 229 282 226 L 285 225 Q 286 230 291 229 L 292 238 L 293 238 Q 294 226 292 220 L 289 221 L 287 219 L 283 215 L 285 213 L 289 216 Q 290 213 287 214 Q 288 210 284 209 L 285 206 Q 286 203 283 204 L 282 207 L 284 211 L 283 213 L 271 219 L 270 218 L 273 216 L 272 214 L 275 212 L 278 213 Q 282 214 280 209 L 277 209 Q 280 207 279 202 L 278 202 Q 280 206 276 205 L 271 199 L 271 181 L 270 180 Q 270 173 274 171 Q 273 166 275 165 L 275 163 L 271 163 Q 270 157 275 156 L 275 154 L 267 159 L 265 158 Q 262 159 263 156 Q 256 157 253 153 Z M 126 154 L 124 157 L 126 156 L 126 154 Z M 276 154 L 276 157 L 278 156 Q 279 153 276 154 Z M 68 157 L 67 160 L 68 160 L 68 157 Z M 72 157 L 71 160 L 74 162 Q 75 158 72 157 Z M 132 157 L 131 159 L 133 158 L 132 157 Z M 149 157 L 146 160 L 147 161 L 150 159 L 149 157 Z M 288 158 L 287 160 L 285 160 Q 288 161 287 166 L 288 166 L 288 158 Z M 63 159 L 64 161 Q 65 158 63 159 Z M 77 159 L 77 162 L 80 161 L 77 159 Z M 125 159 L 122 164 L 126 161 L 129 163 L 129 160 L 125 159 Z M 136 159 L 131 161 L 130 165 L 134 163 L 132 170 L 132 172 L 133 176 L 136 177 L 134 172 Q 133 164 136 161 L 136 159 Z M 155 159 L 156 163 L 156 165 L 162 179 L 162 178 Q 164 175 165 178 L 164 181 L 165 181 Q 164 178 167 179 L 166 183 Q 163 184 164 181 L 162 182 L 165 185 L 167 184 L 172 185 L 173 185 L 172 183 Q 174 180 175 183 L 173 186 L 180 186 L 181 187 L 184 185 L 183 187 L 200 188 L 201 189 Q 208 188 211 183 L 206 182 L 204 182 L 197 179 L 182 176 L 172 171 L 155 159 Z M 276 159 Q 274 162 277 161 L 276 159 Z M 292 159 L 291 163 L 291 165 L 289 172 L 289 173 Q 291 172 290 176 L 293 177 L 293 174 Q 294 171 299 172 L 296 167 L 297 162 L 296 162 L 292 159 Z M 282 161 L 282 163 L 285 164 L 285 163 L 282 161 Z M 71 162 L 70 164 L 73 165 L 73 163 L 71 162 Z M 126 162 Q 124 165 127 166 Q 130 167 128 163 L 126 162 Z M 149 162 L 149 164 L 151 163 L 149 162 Z M 138 164 L 136 166 L 137 169 L 138 166 L 138 164 Z M 149 164 L 146 168 L 149 166 L 149 164 Z M 278 164 L 276 166 Q 275 168 278 167 L 278 164 Z M 238 165 L 236 169 L 238 169 L 238 165 Z M 69 166 L 69 168 L 69 170 Q 68 172 71 171 L 71 166 L 69 166 Z M 152 167 L 151 173 L 152 177 L 150 177 L 152 183 L 151 192 L 147 199 L 141 201 Q 140 206 143 209 L 145 208 L 156 193 Q 157 190 155 191 Q 152 190 155 188 L 158 189 Q 159 193 161 190 L 159 179 L 155 174 L 154 169 Q 155 166 152 167 Z M 149 168 L 147 171 L 149 170 L 149 168 Z M 278 168 Q 276 172 279 174 L 280 174 L 278 168 Z M 283 168 L 283 172 L 284 172 L 283 168 Z M 120 169 L 118 171 L 120 171 L 120 169 Z M 140 169 L 137 175 Q 138 177 142 176 Q 144 172 140 173 L 140 172 L 140 169 Z M 118 172 L 116 178 L 117 182 L 118 178 L 118 172 Z M 123 173 L 123 176 L 125 175 Q 126 172 123 173 Z M 129 175 L 131 178 L 131 177 L 129 175 Z M 71 176 Q 70 180 73 181 L 74 178 L 71 176 Z M 125 176 L 121 180 L 122 182 L 122 181 L 125 179 L 126 178 L 130 182 L 128 178 Q 129 175 125 176 Z M 284 176 L 284 181 L 284 179 Q 286 177 284 176 Z M 278 177 L 276 179 L 278 179 L 278 177 Z M 77 178 L 76 180 Q 74 181 77 182 L 77 181 Q 79 179 77 178 Z M 273 178 L 273 180 Q 275 183 276 180 L 273 178 Z M 68 179 L 69 181 Q 70 178 68 179 Z M 139 179 L 137 182 L 134 181 Q 133 184 136 183 L 138 184 L 138 187 L 135 192 L 133 193 Q 129 192 130 195 L 135 194 L 141 184 Q 142 181 140 182 L 140 181 Q 141 178 139 179 Z M 147 179 Q 147 185 144 188 L 145 189 L 147 186 L 147 179 Z M 279 181 L 278 185 L 280 185 L 279 181 Z M 118 182 Q 116 186 119 189 L 124 192 L 123 189 L 119 186 L 118 182 Z M 125 182 L 125 184 L 127 185 Q 128 181 125 182 Z M 132 183 L 130 186 L 131 188 L 132 186 L 132 183 Z M 214 183 L 212 185 L 214 185 L 214 183 Z M 274 183 L 274 187 L 276 186 Q 277 182 274 183 Z M 124 185 L 123 187 L 125 188 L 124 185 Z M 150 185 L 148 187 Q 147 189 150 188 L 150 185 Z M 68 187 L 70 191 L 71 189 Q 72 185 68 187 Z M 165 187 L 165 188 L 167 188 L 165 187 Z M 130 188 L 128 191 L 130 190 L 130 188 Z M 182 188 L 182 190 L 184 189 L 182 188 Z M 149 189 L 147 191 L 148 193 L 149 191 L 149 189 Z M 211 189 L 211 196 L 212 196 Q 213 188 211 189 Z M 242 192 L 243 194 Q 244 191 242 192 Z M 247 193 L 247 196 L 244 200 L 250 202 L 251 200 L 250 198 L 247 200 L 249 197 L 247 193 Z M 147 194 L 145 197 L 147 196 L 147 194 Z M 179 194 Q 176 200 180 199 L 179 194 Z M 199 194 L 197 196 L 200 198 L 199 194 Z M 244 194 L 243 196 L 246 196 L 244 194 Z M 174 195 L 174 197 L 176 196 L 174 195 Z M 73 196 L 69 202 Q 71 205 73 201 L 74 205 L 77 204 Q 79 205 78 202 L 76 203 L 75 201 L 78 200 Q 81 201 79 197 L 73 200 L 73 196 Z M 128 197 L 127 200 L 131 199 L 128 197 Z M 158 197 L 156 199 L 159 199 Q 160 196 158 197 Z M 212 198 L 212 201 Q 215 200 212 198 Z M 201 199 L 200 204 L 202 205 L 201 199 Z M 135 200 L 133 202 L 136 202 Q 137 199 135 200 Z M 155 201 L 154 205 L 155 205 L 155 201 Z M 204 201 L 205 206 L 206 206 Q 208 200 204 201 Z M 128 202 Q 127 207 131 208 L 133 204 L 133 202 L 131 206 L 130 206 Q 131 201 128 202 Z M 197 202 L 196 206 L 197 206 L 197 202 Z M 134 204 L 134 206 L 136 205 L 134 204 Z M 169 204 L 168 207 L 169 207 L 169 204 Z M 180 204 L 178 206 L 179 208 L 180 206 L 180 204 Z M 175 205 L 174 208 L 172 209 L 174 209 L 175 210 L 175 205 Z M 215 206 Q 212 214 216 219 L 216 222 L 214 221 L 214 223 L 213 226 L 215 230 Q 214 233 217 232 L 215 237 L 216 239 L 216 241 L 217 244 L 216 249 L 218 248 L 220 250 L 219 252 L 220 255 L 220 272 L 220 274 L 221 280 L 220 283 L 221 286 L 220 288 L 220 290 L 222 303 L 222 289 L 225 282 L 225 277 Q 222 278 224 280 L 222 281 L 225 271 Q 223 267 224 260 L 223 259 L 223 250 L 224 249 L 223 246 Q 220 244 224 243 Q 221 239 222 232 L 219 227 L 217 215 L 215 213 L 215 206 Z M 126 207 L 125 209 L 123 208 L 122 210 L 125 212 L 122 213 Q 121 216 124 215 L 127 210 L 126 207 Z M 135 208 Q 134 211 137 210 Q 138 207 135 208 Z M 203 208 L 202 213 L 203 213 L 203 208 Z M 162 211 L 160 213 L 162 214 L 162 211 Z M 176 211 L 174 213 L 176 213 L 176 211 Z M 130 212 L 127 216 L 123 218 Q 120 217 121 220 L 127 219 L 130 216 Q 128 214 131 213 L 130 212 Z M 179 212 L 179 214 L 181 215 Q 182 211 179 212 Z M 114 213 L 112 215 L 112 224 L 114 226 L 113 229 L 113 230 L 115 229 L 114 223 L 114 221 L 113 215 Q 116 214 115 218 L 120 216 Q 118 211 117 214 L 114 213 Z M 178 215 L 175 218 L 176 219 L 178 218 L 178 215 Z M 182 218 L 181 224 L 183 224 L 182 218 Z M 204 218 L 204 228 L 205 228 Q 206 221 204 218 Z M 120 220 L 119 221 Q 114 220 116 224 Q 119 225 118 222 L 121 222 L 123 226 L 126 222 L 125 222 L 120 220 Z M 238 221 L 237 224 L 238 224 L 238 221 Z M 198 224 Q 197 227 200 226 Q 201 223 198 224 Z M 165 225 Q 164 228 167 227 Q 168 224 165 225 Z M 183 225 L 182 228 L 183 228 L 183 225 Z M 209 225 L 209 226 L 211 226 L 209 225 Z M 119 228 L 117 231 L 120 229 L 119 228 Z M 133 228 L 132 231 L 133 231 L 133 228 Z M 111 229 L 110 230 Q 107 229 108 232 L 106 232 L 106 234 Q 104 235 107 236 L 109 235 Q 108 230 111 231 L 111 229 Z M 187 231 L 187 233 L 189 232 L 187 231 Z M 204 231 L 205 235 L 206 233 Q 207 230 204 231 Z M 112 232 L 110 236 L 112 237 L 116 233 L 112 232 Z M 147 233 L 148 236 L 149 234 L 147 233 Z M 171 233 L 170 236 L 171 236 L 171 233 Z M 146 235 Q 143 239 147 238 L 146 235 Z M 189 235 L 187 237 Q 186 239 189 238 L 189 235 Z M 251 237 L 252 240 Q 254 241 253 238 L 251 237 Z M 114 238 L 112 241 L 114 242 L 114 238 Z M 208 238 L 207 242 L 208 242 L 208 238 Z M 236 238 L 234 242 L 235 243 L 241 240 L 241 238 L 236 238 Z M 147 240 L 146 242 L 148 243 L 147 240 Z M 189 240 L 190 242 Q 191 239 189 240 Z M 162 241 L 161 243 L 163 244 L 162 241 Z M 105 242 Q 104 245 108 244 L 108 246 L 105 245 L 103 248 L 107 250 L 107 251 L 101 250 Q 100 254 103 253 Q 104 256 100 255 L 101 258 Q 100 260 99 258 L 98 260 Q 100 259 99 262 L 95 263 Q 94 266 98 265 Q 99 269 94 267 L 95 270 Q 96 274 92 272 Q 93 279 88 281 Q 87 284 91 282 Q 92 285 88 284 L 85 288 L 84 293 Q 83 297 87 295 L 80 315 Q 79 318 83 317 L 88 311 L 89 300 L 92 297 L 94 290 L 93 287 Q 92 283 95 284 L 94 283 L 96 279 Q 95 276 98 277 L 98 272 Q 103 266 104 257 L 108 253 Q 107 248 110 247 L 109 244 L 109 242 L 105 242 Z M 200 243 L 199 246 L 200 246 L 200 243 Z M 189 244 L 189 246 L 191 245 L 189 244 Z M 209 244 L 209 249 L 210 247 L 209 244 Z M 235 244 L 233 248 L 235 247 L 235 244 Z M 170 246 Q 169 250 172 249 Q 173 245 170 246 Z M 201 246 L 199 248 L 201 248 L 201 246 Z M 70 247 L 70 253 L 72 254 Q 73 248 70 247 Z M 204 248 L 204 251 L 206 250 Q 207 247 204 248 Z M 201 249 L 200 252 L 201 252 L 201 249 Z M 229 249 L 227 251 L 227 262 L 228 263 L 228 273 L 230 279 L 230 270 L 230 268 L 231 265 L 229 249 Z M 232 250 L 232 253 L 236 252 L 236 250 L 232 250 Z M 208 251 L 207 254 L 208 254 L 208 251 Z M 87 252 L 83 258 Q 84 262 80 260 L 82 264 L 80 264 L 73 289 L 73 306 L 72 308 L 70 309 L 70 296 L 71 294 L 71 292 Q 72 276 78 266 L 78 254 L 77 256 L 73 258 L 75 258 L 76 262 Q 71 270 71 285 L 69 288 Q 66 287 67 291 L 70 293 L 68 300 L 68 312 L 65 312 Q 64 315 68 314 L 68 316 L 64 317 L 68 319 L 65 320 Q 61 319 62 322 L 64 321 L 66 323 L 62 326 L 64 326 L 63 328 Q 60 327 61 330 L 72 329 L 77 327 L 78 321 L 75 320 L 78 319 L 77 316 L 73 317 L 74 309 L 74 307 L 75 298 Q 78 296 76 295 L 80 282 L 80 277 L 87 257 L 87 252 Z M 129 252 L 128 254 L 130 255 L 129 252 Z M 192 252 L 192 254 L 194 253 L 192 252 Z M 146 253 L 147 255 Q 148 252 146 253 Z M 171 253 L 169 256 L 171 255 L 171 253 Z M 194 253 L 194 255 L 196 254 L 194 253 Z M 201 254 L 200 258 L 202 259 L 201 254 Z M 237 254 L 233 255 L 234 257 L 238 256 Q 239 253 237 254 Z M 192 256 L 193 261 Q 195 260 193 259 Q 194 255 192 256 Z M 80 257 L 81 259 Q 82 256 80 257 Z M 233 258 L 233 260 L 236 259 L 233 258 Z M 125 261 L 124 266 L 125 266 L 125 261 Z M 169 262 Q 166 267 170 266 L 171 267 Q 172 264 169 265 L 169 262 Z M 197 262 L 195 264 L 196 266 L 197 266 L 197 262 Z M 205 263 L 206 266 L 207 264 L 205 263 Z M 128 264 L 126 266 Q 125 268 128 267 L 128 264 Z M 164 264 L 165 266 L 167 266 L 164 264 Z M 177 267 Q 175 270 178 269 L 177 267 Z M 186 267 L 184 269 L 187 269 L 186 267 Z M 196 268 Q 193 274 197 273 Q 198 269 196 268 Z M 234 268 L 234 273 L 239 272 L 240 273 L 238 269 L 234 270 L 234 268 Z M 162 269 L 160 271 L 162 272 L 162 269 Z M 115 272 L 114 276 L 116 275 L 115 272 Z M 130 272 Q 129 275 132 274 Q 133 271 130 272 Z M 172 272 L 171 274 L 174 275 L 172 272 Z M 185 272 L 186 274 Q 187 271 185 272 Z M 194 272 L 193 275 L 194 275 L 194 272 Z M 209 272 L 208 275 L 210 275 L 209 272 Z M 106 273 L 107 275 Q 108 272 106 273 Z M 182 273 L 180 275 Q 179 277 183 276 L 183 278 Q 186 279 185 277 L 182 275 L 182 273 Z M 195 274 L 195 276 L 197 275 L 195 274 Z M 160 275 L 159 277 L 161 278 L 160 275 Z M 176 275 L 177 279 L 178 277 L 176 275 Z M 69 276 L 67 283 L 68 286 L 69 284 L 69 276 Z M 210 276 L 208 278 L 210 279 L 210 276 Z M 180 277 L 178 279 Q 177 281 180 280 L 180 277 Z M 161 278 Q 160 281 163 280 Q 164 277 161 278 Z M 197 278 L 195 280 L 197 281 L 197 278 Z M 121 279 Q 118 281 121 282 Q 124 281 121 279 Z M 172 279 Q 170 282 173 281 L 172 279 Z M 164 280 Q 162 284 165 286 L 166 286 L 164 280 Z M 192 280 L 190 284 L 192 288 L 193 286 L 192 280 Z M 193 280 Q 192 283 195 282 Q 196 279 193 280 Z M 208 281 L 207 284 L 208 284 L 208 281 Z M 119 283 L 120 285 L 122 284 L 119 283 Z M 171 283 L 172 285 L 174 285 L 171 283 Z M 134 284 L 134 286 L 136 285 L 134 284 Z M 178 286 L 179 288 Q 180 285 178 286 Z M 173 287 L 173 290 L 174 290 Q 175 286 173 287 Z M 205 287 L 206 290 L 208 289 L 205 287 Z M 110 288 L 109 291 L 110 291 L 110 288 Z M 124 288 L 122 291 L 124 290 L 124 288 Z M 192 288 Q 191 292 194 291 Q 195 287 192 288 Z M 136 289 Q 135 293 138 292 Q 139 288 136 289 Z M 171 289 L 169 291 L 171 292 L 171 289 Z M 190 289 L 189 294 L 190 294 L 190 289 Z M 149 290 L 149 293 Q 152 292 149 290 Z M 175 290 L 175 293 Q 178 292 175 290 Z M 177 290 L 178 294 L 179 291 L 177 290 Z M 208 290 L 206 292 Q 205 294 208 293 L 208 290 Z M 173 291 L 172 294 L 173 294 L 173 291 Z M 205 292 Q 202 296 206 295 L 205 292 Z M 115 294 L 114 297 L 116 298 L 115 294 Z M 191 294 L 191 297 Q 194 296 191 294 Z M 149 295 L 149 298 L 151 297 Q 152 294 149 295 Z M 175 295 L 173 297 L 175 297 L 175 295 Z M 119 296 L 117 298 Q 116 300 120 299 L 121 300 Q 122 297 119 298 L 119 296 Z M 206 296 Q 203 297 205 299 Q 204 303 207 302 L 206 296 Z M 153 297 L 151 302 L 153 301 L 153 297 Z M 131 298 L 130 300 L 132 301 L 131 298 Z M 177 298 L 178 300 Q 179 297 177 298 Z M 185 298 L 185 300 L 187 299 L 185 298 Z M 201 298 Q 198 303 202 302 L 201 298 Z M 116 299 L 114 301 L 116 301 L 117 302 L 116 299 Z M 191 299 Q 188 303 192 302 L 191 299 Z M 188 300 L 186 303 L 188 302 L 188 300 Z M 119 301 Q 118 304 121 303 Q 122 300 119 301 Z M 179 301 L 180 303 L 182 303 L 179 301 Z M 129 302 L 129 304 L 131 305 Q 132 301 129 302 Z M 133 303 L 132 306 L 133 306 L 133 303 Z M 202 303 L 200 305 L 202 306 L 202 303 Z M 205 304 L 205 310 L 206 307 L 205 304 Z M 159 305 L 158 307 Q 156 308 159 309 L 159 308 Q 161 306 159 305 Z M 123 307 Q 122 310 125 309 Q 126 306 123 307 Z M 131 307 Q 130 310 133 309 Q 134 306 131 307 Z M 152 307 Q 150 310 153 309 L 152 307 Z M 154 309 L 156 311 L 156 316 L 154 319 L 159 316 L 157 310 L 154 309 Z M 163 309 L 162 312 L 163 312 L 163 309 Z M 291 309 L 291 323 L 291 325 L 293 331 L 294 326 L 293 321 Q 295 317 297 321 Q 302 322 303 318 L 307 319 L 310 324 L 315 327 L 314 324 Q 313 321 312 323 L 310 320 L 306 316 L 298 318 L 291 309 Z M 150 311 L 150 314 Q 153 313 150 311 Z M 202 311 L 201 312 Q 198 311 199 315 L 202 313 L 203 316 L 204 313 Q 205 310 202 311 Z M 128 312 L 129 314 Q 130 311 128 312 Z M 137 312 L 136 314 L 138 315 L 137 312 Z M 123 313 Q 122 316 125 315 Q 126 312 123 313 Z M 155 313 L 153 315 L 155 315 L 155 313 Z M 194 313 L 193 319 L 194 319 L 194 313 Z M 108 314 L 108 317 Q 111 318 110 316 L 108 314 Z M 130 316 Q 128 319 131 318 L 130 316 Z M 136 316 Q 135 319 138 318 Q 139 315 136 316 Z M 175 316 L 177 319 L 178 317 L 175 316 Z M 200 316 L 200 319 L 202 318 Q 203 315 200 316 Z M 181 317 L 180 321 L 181 321 L 181 317 Z M 162 318 L 162 321 L 161 319 L 160 325 L 161 325 Q 160 321 163 322 L 164 323 Q 166 317 162 318 Z M 192 318 L 191 323 L 193 322 L 192 318 Z M 158 319 L 158 321 L 156 321 L 156 322 Q 158 321 157 325 L 159 325 L 159 320 L 158 319 Z M 182 319 L 183 324 L 184 322 Q 185 318 182 319 Z M 110 320 L 113 328 L 115 327 L 113 323 L 110 320 Z M 141 320 L 140 323 L 141 323 L 141 320 Z M 166 320 L 164 329 L 166 331 L 166 329 L 168 329 L 168 322 L 167 324 L 166 323 Q 168 321 166 320 Z M 176 321 L 174 323 L 175 328 L 176 328 L 176 321 Z M 189 321 L 188 325 L 189 325 L 189 321 Z M 196 321 L 196 324 L 198 323 Q 199 320 196 321 Z M 179 322 L 178 326 L 179 326 L 179 322 Z M 162 324 Q 163 328 160 327 Q 159 330 162 329 L 163 331 L 164 328 Q 165 323 162 324 Z M 200 324 Q 199 328 202 327 Q 203 323 200 324 Z M 104 325 L 103 328 L 104 328 L 104 325 Z M 146 325 L 146 328 L 147 328 Q 148 324 146 325 Z M 171 327 L 171 332 L 172 330 L 172 336 L 174 335 Q 175 328 171 327 Z M 179 327 L 178 330 L 179 330 L 179 327 Z M 190 327 Q 190 336 187 342 L 189 342 L 191 334 L 190 327 Z M 181 328 L 182 333 L 183 333 Q 185 327 181 328 Z M 208 328 Q 205 333 209 332 L 208 328 Z M 133 329 L 133 331 L 136 332 L 136 331 L 133 329 Z M 193 329 L 193 331 L 195 330 L 193 329 Z M 196 329 Q 195 333 198 332 Q 199 328 196 329 Z M 301 329 L 300 332 L 298 331 Q 295 330 296 334 L 293 334 L 293 336 L 295 336 Q 296 338 292 337 L 292 340 L 292 342 L 293 346 L 293 345 Q 294 341 300 342 L 299 341 L 301 337 L 301 329 Z M 305 329 Q 301 331 302 338 Q 303 341 307 340 L 310 335 L 310 329 L 308 332 L 307 335 Q 308 339 305 338 L 306 334 Q 308 328 305 329 Z M 168 330 L 167 335 L 169 334 L 168 330 Z M 70 331 L 60 333 L 52 343 L 53 345 L 59 337 Q 58 334 62 335 L 59 340 Q 60 342 57 341 L 54 347 L 54 350 L 55 350 Q 54 346 57 347 L 56 346 L 58 345 L 60 342 L 62 342 Q 61 339 64 340 Q 65 344 63 343 L 56 353 L 57 355 L 62 348 Q 61 345 65 346 L 65 344 L 74 343 L 77 340 Q 80 341 81 339 L 77 333 L 77 331 L 70 331 Z M 176 331 L 176 340 L 177 338 Q 178 333 176 331 Z M 313 331 L 312 333 L 314 334 L 313 331 Z M 204 332 L 202 335 L 204 336 L 204 332 Z M 106 334 L 105 337 L 106 337 L 106 334 Z M 118 334 Q 117 337 120 336 Q 121 333 118 334 Z M 193 334 L 191 337 L 194 339 L 193 334 Z M 195 334 Q 193 339 197 338 Q 199 333 195 334 Z M 171 335 L 170 338 L 171 338 L 171 335 Z M 179 335 L 178 337 L 178 339 L 180 340 Q 181 336 179 335 Z M 181 335 Q 180 338 183 337 Q 184 334 181 335 Z M 313 336 L 311 341 Q 310 345 314 343 L 313 336 Z M 185 337 L 185 339 L 184 341 Q 183 343 186 342 L 186 337 L 185 337 Z M 107 338 L 107 343 L 108 343 Q 109 339 107 338 Z M 183 338 L 181 341 L 181 342 L 183 341 L 183 338 Z M 111 339 L 111 341 L 113 340 L 111 339 Z M 149 339 L 148 343 L 149 343 L 149 339 Z M 83 341 L 76 344 L 73 348 L 70 347 L 66 349 L 71 351 Q 70 353 69 351 L 64 353 L 64 354 Q 70 352 69 356 Q 64 355 62 359 Q 63 361 61 360 L 60 362 L 64 360 Q 67 359 66 362 L 63 364 Q 60 363 61 366 L 59 366 L 61 385 L 64 392 L 74 405 Q 80 413 91 417 L 94 417 L 94 412 L 96 412 L 96 417 Q 100 418 98 413 L 100 413 L 101 419 L 101 416 Q 103 413 104 416 L 102 420 L 108 423 L 109 424 L 105 412 L 102 411 L 87 411 L 81 406 L 75 401 L 73 393 L 75 392 L 77 397 L 80 398 L 79 401 L 81 401 L 85 407 L 89 408 Q 93 409 95 407 L 103 408 L 104 404 L 106 403 L 105 408 L 103 409 L 106 410 L 106 407 L 110 399 L 101 395 L 97 395 Q 97 392 93 393 L 95 390 L 97 392 L 107 394 L 110 396 Q 112 397 111 394 L 109 394 L 113 388 L 112 385 L 108 381 L 97 371 L 97 367 L 100 365 L 102 372 L 103 372 L 103 369 L 100 362 L 94 364 L 95 362 L 92 360 L 95 358 Q 97 359 96 356 L 88 356 L 95 353 L 94 350 L 86 353 Q 83 354 84 352 Q 87 348 93 349 L 92 343 L 91 346 L 84 348 L 82 349 L 83 347 L 82 345 L 86 343 Q 87 340 83 341 Z M 116 341 L 114 343 L 116 343 L 116 341 Z M 203 341 L 202 344 L 203 344 L 203 341 Z M 302 342 Q 301 345 306 344 L 308 346 L 307 344 L 307 342 L 302 342 Z M 150 343 Q 149 346 152 345 Q 153 342 150 343 Z M 297 344 L 295 346 L 299 348 Q 301 349 300 347 L 297 344 Z M 109 345 Q 108 348 111 347 Q 112 344 109 345 Z M 117 345 L 115 348 Q 114 350 117 349 L 117 345 Z M 148 345 L 146 347 L 148 347 L 148 345 Z M 157 346 L 156 348 L 158 349 L 157 346 Z M 200 346 L 199 349 L 200 349 L 200 346 Z M 312 346 L 310 349 L 313 350 L 314 350 L 314 352 Q 317 351 316 354 L 318 353 Q 319 347 317 346 L 315 347 L 312 346 Z M 149 347 Q 148 350 151 349 Q 152 346 149 347 Z M 152 349 Q 152 353 154 350 L 152 349 Z M 293 349 L 292 354 L 293 354 L 293 349 Z M 114 350 Q 113 354 116 353 Q 117 349 114 350 Z M 130 350 L 130 353 L 131 353 Q 132 349 130 350 Z M 299 350 L 299 352 L 302 351 L 299 350 Z M 134 352 Q 132 355 135 354 L 134 352 Z M 117 353 L 115 356 L 116 359 L 117 359 L 117 353 Z M 145 353 L 143 355 L 145 355 L 145 353 Z M 304 354 L 300 357 L 301 358 L 304 356 L 304 354 Z M 310 356 L 309 359 L 314 359 L 310 356 Z M 136 357 L 134 361 L 137 360 Q 138 356 136 357 Z M 197 357 L 197 359 L 194 363 L 199 359 Q 200 356 197 357 Z M 217 357 L 216 363 L 217 363 L 217 357 Z M 153 358 L 154 361 L 155 359 L 153 358 Z M 317 358 L 314 360 L 317 360 L 317 358 Z M 96 360 L 96 361 L 99 361 L 96 360 Z M 181 362 L 182 364 Q 183 361 181 362 Z M 304 362 L 300 363 Q 299 368 303 366 L 304 364 L 304 362 Z M 137 363 L 136 366 L 137 366 L 137 363 Z M 193 363 L 191 365 L 193 365 L 193 363 Z M 308 363 L 308 366 L 312 365 L 308 363 Z M 151 364 Q 148 369 152 368 L 151 364 Z M 184 365 L 184 367 L 186 366 L 184 365 Z M 313 365 L 312 368 L 313 368 L 313 365 Z M 141 367 L 140 370 L 141 370 L 141 367 Z M 177 367 L 176 371 L 178 370 L 177 367 Z M 183 367 L 182 370 L 183 370 L 183 367 Z M 297 368 L 297 370 Q 299 373 300 370 L 297 368 Z M 305 368 L 303 371 L 306 370 Q 307 367 305 368 Z M 162 369 Q 161 372 164 371 Q 165 368 162 369 Z M 186 369 L 184 372 L 186 371 L 186 369 Z M 218 369 L 216 371 L 219 371 Q 220 368 218 369 Z M 138 370 L 138 373 L 140 372 Q 141 369 138 370 Z M 142 370 L 141 373 L 142 373 L 142 370 Z M 309 371 L 307 373 Q 306 375 309 374 L 309 371 Z M 302 372 L 302 376 L 302 375 Q 304 373 302 372 Z M 140 374 L 139 377 L 140 377 L 140 374 Z M 291 374 L 293 383 L 293 380 L 293 378 Q 294 373 291 374 Z M 155 376 L 153 378 L 155 378 L 156 379 L 155 376 Z M 167 377 L 166 379 L 168 380 L 167 377 Z M 218 377 L 216 379 L 218 379 L 218 377 Z M 144 379 L 143 382 L 144 382 L 144 379 Z M 306 379 L 304 381 Q 303 384 306 383 L 306 379 Z M 157 381 L 156 385 L 159 394 L 160 394 L 160 389 L 157 381 Z M 218 384 L 217 391 L 218 391 L 218 384 Z M 143 386 L 142 389 L 144 390 L 143 386 Z M 293 389 L 291 392 Q 290 394 293 393 L 293 389 Z M 114 390 Q 111 393 112 400 L 108 408 L 108 415 L 110 415 L 110 411 L 114 398 L 114 390 Z M 143 392 L 143 397 L 145 396 L 144 394 Q 145 391 143 392 Z M 218 393 L 217 396 L 218 396 L 218 393 Z M 293 394 L 292 397 L 293 397 L 293 394 Z M 324 394 Q 323 397 326 396 Q 327 393 324 394 Z M 161 395 L 159 397 L 161 398 L 161 395 Z M 218 398 Q 216 401 219 400 L 218 398 Z M 152 399 L 153 401 Q 154 398 152 399 Z M 144 400 L 143 403 L 144 403 L 144 400 Z M 293 401 L 291 406 L 294 404 L 293 401 Z M 138 402 L 136 404 Q 138 407 139 404 Q 140 401 138 402 Z M 228 402 L 227 429 L 228 430 L 227 432 L 226 458 L 223 472 L 223 480 L 224 481 Q 222 488 228 486 Q 226 481 227 471 L 226 470 L 227 456 L 228 455 Q 227 452 230 453 L 229 459 L 230 482 L 232 492 L 236 493 L 240 498 L 243 497 Q 248 496 249 501 L 248 505 L 245 504 Q 244 501 247 502 L 247 500 L 243 502 L 238 500 L 231 502 Q 232 507 230 508 L 228 507 L 227 509 L 224 511 L 221 510 L 224 506 L 227 507 L 227 506 L 223 503 L 220 504 L 220 511 L 221 512 Q 222 520 217 522 L 218 532 L 220 537 L 217 538 Q 214 532 214 523 L 213 521 L 208 522 L 202 522 L 202 525 L 200 526 L 198 523 L 196 525 Q 187 524 183 527 Q 180 526 181 530 L 186 527 L 189 528 L 191 527 L 189 530 L 191 532 L 193 529 L 195 528 L 194 533 L 197 531 L 197 533 L 204 536 Q 208 535 207 538 L 214 539 L 216 539 L 218 540 L 215 542 L 207 540 L 205 538 L 196 538 L 186 532 L 181 532 L 178 530 L 183 525 L 190 523 L 192 524 L 196 522 L 194 518 Q 193 515 192 517 L 187 516 L 171 523 L 162 523 L 160 521 L 157 534 L 160 538 Q 159 545 161 548 L 166 550 L 168 554 Q 169 556 167 555 L 165 553 L 162 550 L 155 543 Q 154 540 157 541 L 155 534 L 155 524 L 158 515 L 153 517 L 147 516 L 152 530 Q 154 539 150 544 L 152 549 Q 155 553 163 553 L 163 554 L 143 553 L 138 551 L 139 547 L 139 535 L 135 527 L 137 519 L 132 520 Q 127 521 126 519 L 127 517 L 126 514 L 123 518 L 116 517 L 115 514 Q 111 516 105 515 L 100 518 L 92 517 L 91 511 L 89 509 Q 87 502 90 501 L 90 498 L 86 502 L 81 504 L 78 503 Q 74 501 74 496 L 70 498 Q 63 499 61 496 L 58 490 L 53 489 L 50 491 L 54 491 L 58 499 Q 57 501 53 500 L 54 503 L 53 503 L 49 499 L 45 499 Q 41 498 42 501 L 51 505 L 45 506 L 48 513 Q 46 517 45 514 Q 42 515 43 513 L 40 511 L 41 515 L 34 520 L 38 524 Q 40 525 39 523 L 42 521 L 40 519 L 44 516 L 45 520 Q 43 521 46 522 Q 48 521 47 524 L 52 524 Q 56 523 55 517 L 58 516 L 59 518 L 60 526 L 57 527 Q 59 532 58 540 L 56 541 L 50 539 L 48 539 L 48 534 L 46 534 L 46 539 L 42 540 L 43 534 L 41 533 Q 41 538 39 540 Q 33 541 32 537 Q 33 532 28 534 Q 27 531 30 532 L 31 529 L 27 532 L 24 531 L 22 527 L 21 529 L 17 532 L 12 526 Q 14 519 9 521 L 11 510 L 7 509 L 8 512 L 8 563 L 9 564 L 8 567 L 8 592 L 39 592 L 40 593 L 41 592 L 66 592 L 68 592 L 71 593 L 75 592 L 77 593 L 79 593 L 83 592 L 85 593 L 88 592 L 90 592 L 95 593 L 96 592 L 252 592 L 254 592 L 259 593 L 262 592 L 264 592 L 266 593 L 268 592 L 270 593 L 323 593 L 325 593 L 329 594 L 334 593 L 334 539 L 335 538 L 334 537 L 334 528 L 334 526 L 335 523 L 334 517 L 335 514 L 334 512 L 334 484 Q 329 486 330 493 L 328 494 L 321 492 L 317 486 L 318 483 L 316 484 Q 312 483 314 488 L 309 492 L 304 493 L 307 493 Q 310 494 309 498 L 318 499 L 322 503 Q 325 502 323 506 L 321 507 Q 316 508 315 505 Q 310 504 309 506 Q 303 508 305 502 L 308 500 L 306 496 L 304 496 L 300 499 Q 298 503 296 500 Q 295 497 298 498 L 297 491 Q 296 498 291 501 L 286 500 L 285 506 L 280 507 L 280 505 L 278 508 L 271 510 L 269 509 L 267 513 L 255 523 L 250 524 L 248 524 L 245 525 Q 240 526 239 524 L 239 520 L 245 513 Q 243 508 247 509 L 249 509 L 264 507 L 265 506 Q 264 502 267 503 L 265 498 Q 263 491 266 490 L 265 485 L 268 477 L 265 475 L 262 472 L 264 450 L 268 438 L 271 436 L 267 449 L 266 465 L 265 466 L 266 472 L 270 473 L 272 470 Q 271 464 273 463 L 273 451 L 275 442 L 275 432 Q 277 429 278 432 L 278 447 L 277 448 L 278 470 L 280 464 L 281 451 L 281 449 L 281 436 L 283 429 L 283 424 L 285 420 L 285 416 L 279 421 Q 281 426 278 425 L 276 421 L 275 428 Q 277 429 275 430 L 273 421 L 261 420 L 254 417 L 248 411 L 247 412 L 240 407 L 237 409 L 228 405 L 228 402 Z M 319 402 L 317 404 L 317 405 L 321 405 Q 323 401 319 402 Z M 147 405 L 147 408 L 151 409 L 149 407 Q 150 404 147 405 Z M 218 405 L 217 413 L 218 413 L 218 405 Z M 120 406 L 120 408 L 122 407 L 120 406 Z M 295 406 L 292 407 L 293 409 L 295 408 L 295 406 Z M 143 408 L 142 411 L 143 411 L 143 408 Z M 221 409 L 221 411 L 220 413 L 221 414 L 221 425 L 220 428 L 222 437 L 222 415 L 224 412 Q 225 407 221 409 Z M 294 410 L 291 411 L 292 414 L 291 428 Q 290 431 288 428 Q 287 422 290 421 L 290 412 L 286 415 L 287 419 L 287 421 Q 285 432 289 438 L 288 459 L 286 461 L 283 475 L 283 481 L 279 492 L 280 495 L 278 498 L 280 504 L 283 505 L 283 491 L 285 481 L 288 479 L 286 488 L 286 496 L 288 496 L 290 499 L 293 495 L 290 479 L 290 477 L 291 473 L 288 472 L 288 466 L 293 454 L 292 436 L 290 433 Q 291 430 293 432 L 296 431 L 295 433 L 295 444 L 297 444 Q 296 437 298 434 L 296 434 L 299 427 Q 300 423 297 424 L 298 422 L 298 418 L 294 410 Z M 146 411 L 147 414 Q 146 416 149 415 L 148 413 Q 149 410 146 411 Z M 322 411 L 318 413 L 323 413 L 322 411 Z M 325 411 L 325 413 L 329 413 L 325 411 Z M 151 412 L 151 414 L 153 415 Q 154 411 151 412 Z M 330 414 L 325 415 L 327 418 L 330 416 L 330 414 Z M 151 416 Q 148 417 148 421 L 151 419 L 151 416 Z M 146 418 L 145 422 L 146 422 L 146 418 Z M 97 421 L 101 427 L 102 425 L 97 421 Z M 219 421 L 218 431 L 219 431 L 219 421 Z M 105 426 L 100 429 L 102 431 L 102 429 L 107 428 Q 108 425 105 426 Z M 110 427 L 108 430 L 102 431 L 103 434 Q 102 441 105 440 L 106 438 L 104 437 L 106 433 L 110 432 L 108 435 L 111 435 L 110 427 Z M 35 428 L 29 432 L 36 432 L 39 437 L 36 441 Q 37 444 32 442 L 30 444 L 34 447 L 39 447 L 39 445 L 49 439 L 51 442 L 51 440 L 48 438 L 43 430 Q 41 426 35 428 Z M 115 429 L 114 432 L 115 432 L 115 429 Z M 64 431 L 62 439 L 67 438 L 69 433 L 69 431 L 64 431 Z M 285 434 L 284 456 L 283 457 L 284 461 L 286 452 L 286 438 L 285 434 Z M 51 435 L 50 438 L 54 440 L 55 437 L 51 435 Z M 112 436 L 108 439 L 109 440 L 114 437 L 112 436 Z M 80 438 L 80 442 L 83 443 L 84 439 L 80 438 Z M 310 442 L 307 443 L 306 448 L 310 451 L 312 449 Q 311 446 314 447 L 315 442 L 313 443 L 310 442 Z M 51 443 L 50 446 Q 49 450 54 448 L 55 445 L 51 443 Z M 68 443 L 65 444 Q 66 447 63 449 L 66 450 L 69 445 Q 70 442 68 443 Z M 129 443 L 128 446 L 129 446 L 129 443 Z M 43 444 L 43 446 Q 41 447 44 448 L 45 446 Q 46 443 43 444 Z M 84 445 L 84 447 L 81 448 L 78 452 L 84 450 L 87 447 L 84 445 Z M 93 445 L 91 448 L 93 447 L 93 445 Z M 74 446 L 74 450 L 76 450 L 76 448 Q 77 445 74 446 Z M 96 446 L 96 448 Q 98 451 99 448 L 96 446 Z M 24 448 L 22 452 L 26 453 L 25 450 Q 26 447 24 448 Z M 29 448 L 29 450 Q 31 453 32 450 L 29 448 Z M 40 448 L 38 450 L 40 450 L 40 448 Z M 56 448 L 55 451 L 56 451 L 56 448 Z M 70 448 L 71 450 Q 72 447 70 448 Z M 324 448 L 321 454 L 325 453 Q 326 449 324 448 Z M 330 448 L 329 452 L 330 452 L 330 448 Z M 37 450 Q 34 454 38 453 L 37 450 Z M 87 450 L 83 452 L 81 456 L 84 454 L 85 454 L 85 459 L 88 459 L 86 457 L 87 454 L 87 452 L 87 450 Z M 224 450 L 223 454 L 224 454 L 224 450 Z M 62 451 L 66 456 L 67 454 L 62 451 Z M 71 452 L 68 454 L 71 455 L 69 459 L 71 461 Q 71 458 76 458 L 78 458 L 77 454 Q 76 451 73 452 L 71 452 Z M 312 452 L 307 455 Q 306 459 312 457 L 311 456 L 312 454 L 312 452 Z M 334 452 L 333 455 L 334 455 L 334 452 Z M 33 453 L 30 454 Q 29 457 32 456 Q 33 458 34 456 L 33 453 Z M 41 453 L 38 454 L 39 459 L 37 462 L 38 464 L 36 464 L 38 468 L 50 462 L 48 465 L 49 466 L 51 464 L 52 460 L 51 457 Q 48 452 41 453 Z M 96 453 Q 95 456 98 455 Q 99 452 96 453 Z M 54 454 L 54 458 L 57 456 Q 58 453 54 454 Z M 222 454 L 221 457 L 222 457 L 222 454 Z M 296 454 L 295 457 L 296 457 L 296 454 Z M 300 454 L 300 457 Q 305 459 304 455 L 300 454 Z M 37 455 L 35 458 L 36 462 L 36 460 L 38 460 L 37 458 Q 39 456 37 455 Z M 117 455 L 116 457 L 118 456 L 117 455 Z M 22 456 L 23 458 Q 24 455 22 456 Z M 95 456 L 95 458 Q 94 461 98 460 L 99 457 L 95 456 Z M 323 456 L 318 457 L 319 464 L 318 467 L 317 467 Q 318 464 315 465 L 313 465 L 310 462 L 307 460 L 304 465 L 308 467 L 314 466 Q 315 469 312 471 Q 315 473 321 472 L 324 467 L 323 465 L 320 467 L 325 458 L 323 456 Z M 330 456 L 328 462 L 330 465 Q 332 464 330 463 L 331 460 L 330 456 Z M 13 457 L 9 460 Q 12 465 14 460 L 13 457 Z M 27 457 Q 26 460 29 459 Q 30 456 27 457 Z M 20 458 L 18 459 L 17 461 L 20 460 L 20 458 Z M 61 458 L 58 459 L 59 464 L 59 463 L 61 463 L 60 461 L 63 460 L 64 464 L 63 466 L 63 465 Q 64 462 62 463 L 60 466 Q 57 467 58 465 L 57 465 L 58 470 L 61 469 L 60 474 L 58 476 L 53 477 L 54 479 L 63 474 L 62 469 L 67 465 L 66 461 L 61 458 Z M 30 459 L 28 462 L 28 463 Q 30 464 29 462 L 30 462 Q 29 465 32 464 Q 33 460 30 459 Z M 296 459 L 294 465 L 295 467 L 296 465 L 296 459 Z M 334 459 L 333 461 L 335 462 L 334 459 Z M 23 460 L 24 462 Q 25 459 23 460 Z M 75 460 L 75 462 L 80 463 Q 85 465 84 462 L 83 460 L 75 460 Z M 217 460 L 216 463 L 217 463 L 217 460 Z M 16 463 L 15 466 L 18 466 L 16 465 L 16 463 Z M 20 463 L 20 468 L 19 467 Q 15 466 16 469 Q 17 471 19 469 L 20 470 L 19 470 L 21 473 L 21 470 L 23 467 Q 19 468 21 464 L 23 464 L 20 463 Z M 25 463 Q 22 467 26 466 L 25 463 Z M 33 464 L 32 467 L 31 466 L 30 468 Q 32 471 33 468 L 33 464 Z M 71 464 L 65 469 L 66 473 L 69 473 L 71 471 L 71 464 Z M 75 464 L 74 466 L 79 469 L 80 467 L 75 464 Z M 87 464 Q 84 468 88 467 L 87 464 Z M 53 465 L 50 468 Q 46 467 48 473 L 52 475 L 57 474 Q 59 475 58 473 L 56 471 L 55 470 L 52 473 L 49 472 L 53 469 L 53 465 Z M 282 466 L 276 488 L 277 490 L 279 486 L 279 481 L 282 470 L 282 466 Z M 45 467 L 43 468 L 40 472 L 42 475 L 45 473 L 45 467 Z M 26 468 L 24 470 L 28 474 Q 31 475 32 473 L 26 468 Z M 329 468 L 328 471 L 329 471 L 329 468 Z M 34 469 L 34 472 Q 36 475 37 472 Q 38 467 34 469 Z M 9 470 Q 9 474 11 471 L 9 470 Z M 80 471 L 80 473 L 82 472 L 80 471 Z M 295 471 Q 292 475 296 474 L 295 471 Z M 299 471 L 297 474 L 299 474 L 299 471 Z M 303 471 L 300 476 L 301 478 L 301 477 L 304 476 Q 305 472 303 471 Z M 325 472 L 324 476 L 322 476 L 321 480 L 324 478 L 325 482 Q 326 484 328 482 L 328 484 L 330 483 Q 328 478 327 481 L 326 480 Q 329 478 325 477 L 326 475 L 325 472 Z M 71 473 L 70 476 L 74 476 L 75 474 L 71 473 Z M 334 473 L 333 477 L 334 477 L 334 473 Z M 33 474 Q 32 477 35 476 Q 36 473 33 474 Z M 79 474 L 79 477 Q 82 476 79 474 Z M 274 474 L 269 485 L 269 490 L 271 489 L 273 490 L 274 485 L 274 474 Z M 12 475 L 9 481 L 10 485 L 13 483 L 16 484 Q 18 485 17 483 L 21 480 Q 16 479 15 475 L 12 475 Z M 26 476 L 26 478 L 30 479 L 31 476 L 29 477 L 26 476 Z M 47 476 L 44 479 L 48 481 L 50 477 L 47 476 Z M 62 476 Q 61 479 64 478 Q 65 475 62 476 Z M 70 476 L 69 479 L 70 479 L 70 476 Z M 311 476 L 310 479 L 314 481 Q 316 482 315 480 L 311 478 L 311 476 Z M 295 477 L 293 480 L 295 479 L 295 477 Z M 24 478 L 24 481 Q 23 483 26 482 L 24 478 Z M 40 478 L 39 481 L 40 481 L 40 478 Z M 220 478 L 220 481 L 221 481 Q 222 477 220 478 Z M 329 478 L 329 481 L 331 482 L 330 480 Q 331 477 329 478 Z M 34 479 L 31 481 L 35 481 Q 36 478 34 479 Z M 59 479 L 57 482 L 52 485 L 53 487 L 59 489 L 61 488 L 59 485 L 61 481 Q 62 478 59 479 Z M 66 479 Q 62 480 63 486 L 65 487 Q 64 483 67 484 L 69 480 L 66 479 Z M 73 479 L 67 490 L 63 489 L 62 494 L 66 496 Q 72 497 74 494 L 76 486 L 75 481 L 73 479 Z M 299 479 L 297 482 Q 299 485 300 482 L 299 479 Z M 53 480 L 49 484 L 51 486 L 51 484 L 54 482 Q 55 479 53 480 Z M 295 480 L 294 485 L 295 485 L 295 480 Z M 307 481 L 301 483 Q 301 488 306 490 L 311 488 L 310 484 L 307 481 Z M 19 483 L 17 485 L 18 491 L 24 493 L 25 486 L 26 484 L 24 485 Q 20 486 21 483 L 19 483 Z M 33 483 L 32 486 L 33 486 L 33 483 Z M 9 484 Q 6 488 10 487 L 9 484 Z M 30 484 L 28 487 L 31 485 L 30 484 Z M 34 484 Q 33 487 36 486 Q 37 483 34 484 Z M 40 484 L 37 489 L 39 489 L 41 488 L 38 497 L 37 495 Q 34 494 35 497 L 31 496 L 32 498 Q 38 499 42 497 L 45 492 L 43 486 L 40 484 Z M 45 484 L 46 486 Q 47 483 45 484 Z M 36 487 L 35 490 L 36 490 L 36 487 Z M 298 487 L 298 489 L 300 488 L 298 487 Z M 323 487 L 323 490 L 327 491 L 326 489 Q 327 485 323 487 Z M 9 488 L 7 490 L 9 497 L 10 492 Q 11 487 9 488 Z M 29 488 L 27 491 L 28 493 L 29 491 L 29 488 Z M 32 488 L 32 490 L 34 489 L 32 488 Z M 13 490 L 12 494 L 16 495 L 15 493 Q 16 489 13 490 Z M 37 491 L 38 493 Q 39 490 37 491 Z M 52 492 L 51 493 Q 48 492 49 495 L 48 494 L 47 496 L 52 498 L 56 498 L 53 494 Q 54 491 52 492 Z M 227 493 Q 226 496 229 495 Q 230 492 227 493 Z M 276 495 Q 273 497 274 503 L 271 507 L 275 507 L 276 503 L 276 495 Z M 18 496 L 16 500 L 12 498 L 10 502 L 16 505 L 17 502 L 22 498 Q 23 494 18 496 Z M 29 498 L 29 501 L 28 504 L 33 503 L 34 500 Q 30 501 29 498 Z M 222 498 Q 221 502 224 501 Q 225 497 222 498 Z M 24 499 L 20 502 L 21 505 L 26 501 Q 27 498 24 499 Z M 8 500 L 8 506 L 11 508 Q 17 506 19 509 L 20 509 Q 18 505 12 506 L 8 500 Z M 35 503 L 36 507 L 41 508 L 42 511 L 45 512 L 46 512 L 42 506 Q 41 502 35 503 Z M 24 505 L 23 508 L 24 508 L 24 505 Z M 30 506 L 32 510 L 31 511 L 32 516 L 35 517 L 37 516 L 36 509 L 33 508 Q 34 505 30 506 Z M 28 510 L 26 515 L 29 514 L 28 510 Z M 14 511 L 13 515 Q 17 516 18 513 L 14 511 Z M 144 511 L 141 515 L 139 516 L 141 517 L 144 514 L 144 511 Z M 250 511 Q 244 514 242 521 Q 241 523 248 522 Q 249 518 251 521 L 255 519 Q 256 516 254 517 L 254 516 L 253 513 Q 254 510 250 511 Z M 23 512 L 22 516 L 23 516 L 23 512 Z M 151 512 Q 149 515 152 514 L 151 512 Z M 18 515 Q 18 519 20 516 L 18 515 Z M 178 515 L 170 519 L 170 520 Q 175 520 178 517 L 178 515 Z M 31 516 L 27 518 L 29 518 L 30 521 L 32 520 L 31 516 Z M 131 516 L 131 517 L 133 517 L 131 516 Z M 198 516 L 200 518 Q 201 515 198 516 Z M 215 516 Q 213 518 209 517 L 207 517 L 206 519 L 211 518 L 217 519 Q 219 515 215 516 Z M 205 517 L 203 519 L 205 519 L 205 517 Z M 18 518 L 16 520 Q 15 526 18 528 L 18 521 Q 20 519 18 518 Z M 163 518 Q 160 521 166 520 Q 167 522 168 520 L 163 518 Z M 56 520 L 54 524 Q 55 526 53 525 L 52 527 L 54 526 L 56 527 L 58 523 Q 59 519 56 520 Z M 32 522 L 29 524 Q 30 527 34 526 L 32 522 Z M 43 522 L 41 524 L 43 524 L 43 522 Z M 44 525 L 44 527 L 47 528 L 49 528 L 44 525 Z M 27 526 L 26 529 L 27 529 L 27 526 Z M 37 526 L 34 531 Q 33 536 37 537 L 38 531 Q 40 525 37 526 Z M 43 529 L 41 531 L 44 532 Q 47 533 46 531 Q 44 532 43 529 Z M 54 529 L 51 535 Q 50 538 54 537 L 55 538 Q 56 532 54 529 Z "></path><path d="M 155 14 L 188.5 14 L 189 16 L 184 16 L 184 30.5 L 183.5 32 L 188.5 31 L 189.5 33 L 161.5 33 L 157 34 L 157 32 L 161 31.5 L 161 16 L 155 16 L 155 14 Z M 165 16 L 165 31 L 167 32 L 171 32 Q 173 25 170 24 L 170 16 L 165 16 Z M 177 16 L 175 18 L 175 31 L 178 32 L 180 31 L 180 21 L 179 20 L 180 18 L 177 16 Z "></path><path d="M 167.5 48 L 181.5 48 L 182 50 Q 179 48 171.5 49 L 160.5 51 L 160.5 50 L 162.5 49 L 164.5 49 L 167.5 48 Z "></path><path d="M 172.5 51 L 176 52.5 L 164.5 55 L 165.5 53 L 172.5 51 Z "></path><path d="M 171.5 55 L 172 57 L 169 56.5 L 171.5 55 Z "></path><path d="M 169 58 Q 172 57 171 60 Q 168 61 169 58 Z "></path><path d="M 185 58 L 191.5 58 L 192 60 Q 188.9 59.3 189.5 62 L 183 62 L 185 58 Z "></path><path d="M 171.5 63 L 172.5 65 Q 169.7 65.7 171.5 63 Z "></path><path d="M 232.5 83 L 235 83.5 L 232.5 84 L 232.5 83 Z "></path><path d="M 219.5 88 L 221 88.5 L 215.5 92 L 217.5 89 L 219.5 88 Z "></path><path d="M 244 90 Q 247 89 246 92 Q 243 93 244 90 Z "></path><path d="M 170.5 97 L 171.5 99 L 170.5 97 Z "></path><path d="M 244.5 97 Q 249 96 250 98.5 L 249.5 100 L 244.5 99 L 242 100 Q 240.9 97.3 243.5 98 L 244.5 97 Z "></path><path d="M 104 98 L 111 98.5 L 104 100 L 104 98 Z "></path><path d="M 126.5 98 L 134.5 98 L 135 100 L 125 99.5 L 126.5 98 Z "></path><path d="M 169.5 101 Q 171.8 100.3 171 102.5 L 169.5 101 Z "></path><path d="M 229.5 101 Q 235.3 99.3 234 103 L 226.5 104 L 227.5 102 L 229.5 101 Z "></path><path d="M 125.5 102 L 132 103.5 L 124.5 104 L 125.5 102 Z "></path><path d="M 230.5 104 Q 236.3 102.3 235 106 Q 229.8 105 227.5 108 L 227 106.5 L 230.5 104 Z "></path><path d="M 124 106 L 132 107.5 Q 130.8 110.3 129.5 108 Q 122.6 110 124 106 Z "></path><path d="M 231.5 108 Q 235.3 107 234 110 L 228.5 111 L 229.5 109 L 231.5 108 Z "></path><path d="M 229 113 L 233 113.5 L 229 115 L 229 113 Z "></path><path d="M 238.5 113 L 240.5 113 Q 243.1 112.2 242 115.5 L 240.5 115 L 238.5 116 L 238.5 113 Z "></path><path d="M 124 115 L 128 115.5 L 124 117 L 124 115 Z "></path><path d="M 124 119 L 127 119.5 L 124 121 L 124 119 Z "></path><path d="M 170 122 L 174 123 Q 175.1 125.7 172.5 125 L 170 124 L 170 122 Z "></path><path d="M 253.5 134 L 254.5 136 L 253.5 134 Z "></path><path d="M 237.5 139 L 238 142 L 236 141.5 L 237.5 139 Z "></path><path d="M 76.5 140 L 79 141.5 L 77.5 142 L 76.5 140 Z "></path><path d="M 188.5 142 Q 192.3 141 191 144 L 178.5 147 L 179.5 145 L 182.5 145 L 188.5 142 Z "></path><path d="M 93.5 151 L 93 152.5 L 92.5 154 L 92 152.5 L 93.5 151 Z "></path><path d="M 84.5 155 Q 87.8 153.9 87 156.5 L 85.5 156 L 84.5 155 Z "></path><path d="M 89.5 156 L 93 158.5 L 91.5 161 Q 89.3 160.3 90 162.5 L 89 162.5 L 88.5 161 L 88 163.5 Q 90.2 164.8 87.5 166 L 86 159.5 L 89.5 156 Z "></path><path d="M 101.5 156 L 104 157.5 L 102.5 161 Q 98.8 161.8 98 159.5 L 99 157 L 101.5 156 Z "></path><path d="M 252.5 157 L 254.5 157 L 259 161.5 L 256.5 165 L 256 163 Q 253.3 164.1 254 161.5 Q 250.9 160.4 252.5 157 Z "></path><path d="M 94.5 160 L 96 162.5 L 94 161.5 L 94.5 160 Z "></path><path d="M 84.5 162 L 85.5 164 Q 82.7 164.7 84.5 162 Z "></path><path d="M 263.5 163 Q 268.9 162.4 271 164 L 271 166 L 269 166 Q 270.1 168.7 267.5 168 L 262 166.5 L 263.5 163 Z "></path><path d="M 104.5 164 L 105 167.5 L 103.5 171 L 101.5 168 Q 102.7 170.3 104 167.5 L 104.5 164 Z "></path><path d="M 97.5 165 L 100 166.5 L 98.5 169 Q 93.3 170.3 92 167.5 L 93.5 168 L 96.5 166 L 97.5 165 Z "></path><path d="M 60 169 Q 63 168 62 171 Q 59 172 60 169 Z "></path><path d="M 92.5 170 L 94.5 171 L 96.5 171 L 101 170 Q 102 173.8 99.5 175 Q 94 176 93 172.5 L 92.5 170 Z "></path><path d="M 254 170 L 258 171 Q 259.7 175.1 255.5 174 L 254 170 Z "></path><path d="M 100.5 176 L 101 179 Q 98.3 180.1 99 177.5 L 100.5 176 Z "></path><path d="M 169.5 180 Q 171.8 179.3 171 181.5 Q 169.5 184.5 168 181.5 L 169.5 180 Z "></path><path d="M 58 181 Q 63.6 179.1 62 184 L 58 183 L 58 181 Z "></path><path d="M 177.5 182 Q 180.5 183.5 177.5 185 Q 175.3 185.8 176 183.5 L 177.5 182 Z "></path><path d="M 60.5 185 Q 63.1 184.2 62 187.5 Q 60.8 190.3 59.5 188 L 58 187.5 L 60.5 185 Z "></path><path d="M 110.5 185 L 112 185.5 L 108 191 L 101 196.5 L 101 199.5 L 90.5 219 L 90 215.5 L 94 209.5 L 95 203.5 L 101 194.5 L 110.5 185 Z "></path><path d="M 152.5 191 Q 155.5 192.5 152.5 194 L 152.5 191 Z "></path><path d="M 287.5 193 Q 290.1 192.2 289 195.5 L 285 197 Q 283.5 193.2 286.5 194 L 287.5 193 Z "></path><path d="M 256.5 197 L 257.5 199 Q 254.7 199.7 256.5 197 Z "></path><path d="M 257.5 200 Q 259.8 199.3 259 201.5 L 259.5 203 L 257.5 200 Z "></path><path d="M 79 206 L 81 206.5 Q 77.5 208 80 209.5 Q 80.7 212.1 78 211 L 79 206 Z "></path><path d="M 273.5 206 L 274 208.5 L 273.5 210 L 272 207.5 L 273.5 206 Z "></path><path d="M 75.5 210 L 76 211.5 L 74 212.5 L 75.5 210 Z "></path><path d="M 98 211 Q 100.7 209.9 100 212.5 L 97 218.5 L 95 230 Q 92.3 231.1 93 228.5 L 98 211 Z "></path><path d="M 257 212 L 260.5 212 L 266 215 L 269.5 227 L 272 226 Q 273.9 228.7 273 235.5 L 270 237 L 269 229 Q 264.1 230.8 266 224.5 L 263 216 L 257 214 L 257 212 Z "></path><path d="M 102.5 214 L 103 221.5 L 102 223.5 L 103 226.5 L 101.5 229 L 101 226 Q 97.7 227.3 99 222.5 L 102.5 214 Z "></path><path d="M 283.5 218 L 287 223 Q 289.7 221.9 289 224.5 Q 287.5 227.5 286 224.5 L 283 220.5 L 283.5 218 Z "></path><path d="M 274.5 219 L 276 219.5 L 273 224 Q 269.2 225.5 270 222.5 L 274.5 219 Z "></path><path d="M 88.5 220 L 89 221.5 Q 86.3 224.8 87 231.5 L 89 236 Q 85.2 237.5 86 234.5 Q 83.5 233 85 227.5 L 88.5 220 Z "></path><path d="M 244 221 Q 247 220 246 223 Q 243 224 244 221 Z "></path><path d="M 215 224 Q 218.3 222.9 217 227 Q 213.7 228.1 215 224 Z "></path><path d="M 242 225 Q 244.7 223.9 244 226.5 L 242 227.5 L 242 225 Z "></path><path d="M 241.5 230 Q 243.8 229.3 243 231.5 L 240 233 L 241.5 230 Z "></path><path d="M 219.5 232 L 220 236 L 218 235.5 L 219.5 232 Z "></path><path d="M 83 236 L 85 236.5 L 82 244 L 84.5 243 L 86 246.5 L 83.5 250 L 83 248.5 L 84 245 L 80 246 L 83 236 Z "></path><path d="M 78.5 238 Q 80.8 237.3 80 239.5 Q 77.5 241 79 246.5 L 77.5 248 Q 75.3 248.8 76 246.5 L 75 241.5 L 78.5 238 Z "></path><path d="M 281 240 Q 286.4 238.5 288 241.5 Q 288.7 244.1 286 243 Q 287.1 240.3 284.5 241 L 281 242 L 281 240 Z "></path><path d="M 280 246 Q 285 245.2 287 248.5 Q 287.8 250.8 285.5 250 L 281.5 247 L 280 247.5 L 280 246 Z "></path><path d="M 221.5 250 L 222 251.5 L 221.5 254 Q 218.8 252.8 221 251.5 L 221.5 250 Z "></path><path d="M 263.5 250 L 264 252.5 L 262.5 252 L 260 251.5 L 263.5 250 Z "></path><path d="M 278.5 250 L 285 252.5 Q 285.8 254.8 283.5 254 L 277 251.5 L 278.5 250 Z "></path><path d="M 249 253 Q 251.1 254.6 256.5 254 L 258 255.5 Q 256.8 258.2 255.5 256 L 249 255 L 249 253 Z "></path><path d="M 277.5 256 L 283 256 L 283 258.5 L 281.5 258 Q 276.7 258.1 277.5 256 Z "></path><path d="M 277.5 264 L 282 265.5 Q 280.8 268.3 279.5 266 L 277.5 264 Z "></path><path d="M 221.5 265 L 222 267.5 L 221 267.5 L 221.5 265 Z "></path><path d="M 255.5 265 Q 259.3 264.3 260 266.5 L 254.5 267 L 255.5 265 Z "></path><path d="M 279 271 Q 284.2 269.3 283 273 Q 277.8 274.7 279 271 Z "></path><path d="M 256 272 L 260 273.5 Q 257.5 275 261 276.5 L 259.5 278 L 257.5 278 Q 254.9 278.7 256 276 L 259 275.5 L 256 274 L 256 272 Z "></path><path d="M 279.5 277 Q 284.3 275.7 283 279 Q 279.2 279.8 279.5 277 Z "></path><path d="M 257 279 L 263 281.5 Q 261.8 284.3 260.5 282 L 257 281 L 257 279 Z "></path><path d="M 271 279 Q 274.7 277.6 273 283.5 L 274 285.5 L 273 289.5 L 274 291.5 L 273 293.5 L 274 294.5 L 274 314.5 L 275 315.5 L 274 320.5 L 275 321.5 L 275 357 Q 272.3 358.1 273 355.5 L 272 354.5 L 272 320.5 L 271 319.5 L 272 317.5 L 271 316.5 L 271 279 Z "></path><path d="M 233 281 Q 236.8 280 238 282.5 L 237.5 285 Q 236.4 282.3 233 283 L 233 281 Z "></path><path d="M 280 283 Q 284.1 281.7 283 285 Q 278.9 286.3 280 283 Z "></path><path d="M 259 284 L 263 285.5 Q 263.8 287.8 261.5 287 L 259 286 L 259 284 Z "></path><path d="M 265.5 284 L 267 284.5 L 267 300.5 L 268 301.5 L 269 343.5 L 268 345.5 L 269 347.5 L 268 352.5 L 269 354.5 L 268 358.5 L 269 359.5 L 269 370.5 L 269 372.5 L 268 378.5 L 269 380.5 L 268.5 382 Q 275.4 380 274 384 L 268 384 L 268 387.5 Q 269.2 390 273 389 Q 274.1 391.7 271.5 391 L 268 390 L 268 394 L 273 394 L 273 396 L 268 395 L 268 399 Q 273.2 397.3 272 401 L 268 400 L 266.5 403 L 265 402.5 L 265 390.5 L 266 387.5 L 265 384.5 L 266 383.5 L 266 357.5 L 266 355.5 L 265 350.5 L 266 349.5 L 266 328.5 L 266 326.5 L 265 317 L 260 315.5 Q 261.2 312.8 262.5 315 Q 267.1 316.2 265 311 L 260 311 L 260 309 Q 267.1 311.4 265 305 L 261 304.5 L 265 302.5 L 263.5 300 L 261 298.5 L 264 297.5 L 264 293 Q 260.2 294.5 261 291.5 L 263 290.5 L 263.5 292 L 264 285.5 L 265.5 284 Z "></path><path d="M 232 286 L 236 288.5 L 235.5 290 L 232 289 L 232 286 Z "></path><path d="M 281.5 288 L 283 291 L 280 289.5 L 281.5 288 Z "></path><path d="M 86 289 Q 88.7 287.9 88 290.5 L 86 291.5 L 86 289 Z "></path><path d="M 233.5 291 L 235 294 Q 231.5 295.1 233.5 291 Z "></path><path d="M 241.5 294 L 242 297.5 L 236 325.5 L 236 327.5 L 239 341.5 L 239 351.5 L 238 352.5 L 238 360.5 L 239 361.5 L 239 370.5 L 237 371.5 L 235 353.5 L 236 352.5 L 236 341.5 Q 232 333.5 234 319.5 L 237 310.5 L 239 297.5 L 241.5 294 Z "></path><path d="M 232 306 L 235 307.5 L 232 308 L 232 306 Z "></path><path d="M 304.5 306 Q 307.8 304.9 307 307.5 L 308 309.5 L 303.5 312 Q 301 310.8 302 307 L 304.5 306 Z "></path><path d="M 230 310 Q 235.2 308.3 234 312 Q 228.8 313.7 230 310 Z "></path><path d="M 70.5 312 Q 70.5 318.5 74 321.5 L 71 323.5 L 70.5 321 L 67.5 328 L 67 322.5 L 69 320.5 Q 67.3 313.8 70.5 312 Z "></path><path d="M 230 314 L 234 315.5 Q 232.8 318.3 231.5 316 Q 228.9 316.7 230 314 Z "></path><path d="M 227.5 315 L 229 315.5 L 229 322.5 L 230.5 322 L 232 321.5 L 231 318.5 L 233 319.5 L 232 324 Q 227.5 322.3 229 327.5 L 228 332.5 L 228 334.5 L 229 345 L 234 345 L 234 347 L 229.5 346 L 229 348.5 L 230.5 348 L 234 349.5 L 230.5 351 L 229 350.5 L 229 358.5 Q 233.1 367.4 234 379.5 L 237.5 388 L 239.5 388 L 243 389.5 Q 241.8 392.2 240.5 390 L 238.5 389 L 237 391.5 Q 239.3 392.8 236.5 394 Q 233.7 392.8 236 391.5 L 231 375 Q 226 375.8 224 372.5 Q 225.3 369.8 226.5 372 L 230 373 L 226.5 368 L 224 369 L 225.5 366 L 229 367 L 228 363 L 224 363 L 224 361.5 L 227 360 Q 228.3 355.4 225.5 354 L 222 355 L 223.5 352 L 227 351.5 L 225.5 348 L 222 349 Q 220.9 346.3 223.5 347 L 226 346 L 226 344 L 221 344 L 221 342.5 L 223.5 341 L 226 342 L 226 340 L 220 340 L 220 338 L 223.5 337 L 226 338 L 226 335 L 221 335 L 221 333.5 L 224.5 332 L 226 332.5 L 226 329 L 221 329 L 221 327 Q 228.1 329.4 226 323 Q 221.9 324.3 223 321 L 227 319.5 L 226 316.5 L 227.5 315 Z "></path><path d="M 261 320 Q 265.1 318.7 264 322 Q 259.9 323.3 261 320 Z "></path><path d="M 261.5 325 Q 265.3 324 264 327 L 261.5 325 Z "></path><path d="M 230 329 Q 233 328 232 331 Q 229 332 230 329 Z "></path><path d="M 262.5 332 Q 265.5 333.5 262.5 335 Q 260.3 335.8 261 333.5 L 262.5 332 Z "></path><path d="M 76.5 334 L 78 337 L 76 336.5 L 76.5 334 Z "></path><path d="M 230.5 335 L 233 335.5 L 231.5 338 Q 228.4 338.7 230.5 335 Z "></path><path d="M 297.5 336 L 298 339.5 L 296 340.5 L 297.5 336 Z "></path><path d="M 263.5 337 L 264 339 L 262 338.5 L 263.5 337 Z "></path><path d="M 230 340 L 234 340.5 L 230 342 L 230 340 Z "></path><path d="M 283.5 344 Q 289.4 342.3 288 346 Q 283.3 347 283.5 344 Z "></path><path d="M 77.5 350 Q 77.3 357.3 80 361.5 L 77.5 363 Q 73.9 360.1 75 352.5 L 77.5 350 Z "></path><path d="M 230 352 L 233 353.5 L 230 354 L 230 352 Z "></path><path d="M 284.5 353 Q 288.3 352.3 289 354.5 L 283.5 355 L 284.5 353 Z "></path><path d="M 231.5 356 L 233 360 Q 229.2 361.2 231.5 356 Z "></path><path d="M 284 358 L 288 359.5 Q 286.8 362.3 285.5 360 Q 282.9 360.7 284 358 Z "></path><path d="M 88 361 Q 91.3 359.7 90 364.5 L 94.5 374 L 101 379.5 L 101.5 381 L 103.5 381 L 106 382.5 L 103.5 384 L 90 373.5 L 87 363.5 L 88 361 Z "></path><path d="M 285 362 L 289 363.5 L 286.5 365 L 285 362 Z "></path><path d="M 233 366 Q 236 365 235 368 Q 232 369 233 366 Z "></path><path d="M 63.5 367 Q 67.3 366 66 369 L 61 371 L 63.5 367 Z "></path><path d="M 270.5 367 Q 274.3 366 273 369 L 270.5 367 Z "></path><path d="M 78 368 L 81 369.5 Q 83.7 378.8 91.5 383 L 99.5 387 L 104.5 387 L 109 390.5 Q 109.8 393.1 106.5 392 L 104.5 390 L 99.5 390 L 90.5 386 L 80 375.5 L 78 368 Z "></path><path d="M 270.5 372 Q 274.3 371 273 374 L 270.5 372 Z "></path><path d="M 236.5 373 Q 239.1 372.3 238 375 L 235.5 376 L 234.5 374 L 236.5 373 Z "></path><path d="M 64.5 374 Q 66.8 373.3 66 375.5 L 62.5 377 L 64.5 374 Z "></path><path d="M 76.5 375 Q 78.8 374.3 78 376.5 L 75 378.5 L 76.5 375 Z "></path><path d="M 270.5 376 L 274 377.5 Q 274.8 379.8 272.5 379 L 269 377.5 L 270.5 376 Z "></path><path d="M 79.5 378 L 81 379.5 L 77.5 383 L 77 380.5 L 79.5 378 Z "></path><path d="M 226.5 378 L 231 380.5 L 230.5 382 L 225 381 L 226.5 378 Z "></path><path d="M 237.5 380 L 241 381.5 L 237.5 383 Q 234.5 381.5 237.5 380 Z "></path><path d="M 64.5 381 Q 67.5 380.1 66 384.5 L 64.5 384 Q 62.3 384.8 63 382.5 L 64.5 381 Z "></path><path d="M 83.5 382 L 84 384.5 L 81.5 388 Q 78.8 386.8 81 385.5 L 83.5 382 Z "></path><path d="M 107.5 384 L 110 385.5 L 110 387 L 106 387 L 107.5 384 Z "></path><path d="M 228.5 384 L 232 385.5 L 231.5 387 L 227 385.5 L 228.5 384 Z "></path><path d="M 87.5 385 L 88 389.5 L 87 392 Q 84 393.3 85 389.5 L 87.5 385 Z "></path><path d="M 65.5 388 Q 67.8 387.3 67 389.5 L 65.5 388 Z "></path><path d="M 90 388 Q 93 386.8 92 390.5 L 91 393 Q 88 394.3 89 390.5 L 90 388 Z "></path><path d="M 304.5 388 Q 308.3 386.8 307 390.5 Q 305.8 393 302 392 Q 300.5 388.2 303.5 389 L 304.5 388 Z "></path><path d="M 230 390 L 233 391.5 Q 233.8 393.8 231.5 393 L 230 390 Z "></path><path d="M 238 394 L 244 395 Q 245.3 398.3 240.5 397 L 238 396 L 238 394 Z "></path><path d="M 303.5 396 Q 306.5 395.2 305 399 Q 301.3 400.5 302 397.5 L 303.5 396 Z "></path><path d="M 83.5 398 L 85 400.5 L 83 401.5 L 83.5 398 Z "></path><path d="M 87 400 Q 90.3 398.7 89 403.5 L 87 404.5 L 87 400 Z "></path><path d="M 97.5 400 L 98 403.5 L 97 406 Q 94 407.3 95 403.5 L 97.5 400 Z "></path><path d="M 92 401 Q 94.7 399.9 94 402.5 L 92.5 407 L 91 404.5 L 92 401 Z "></path><path d="M 249.5 401 L 252 404.5 L 251 407 Q 254 406 253 409 L 249 406.5 L 250 404.5 Q 246.3 402.8 249.5 401 Z "></path><path d="M 100 402 Q 102.7 400.9 102 403.5 L 101 406 Q 98.3 407.1 99 404.5 L 100 402 Z "></path><path d="M 268 403 L 272 404.5 L 271.5 406 L 268 405 L 268 403 Z "></path><path d="M 258 406 L 261 407.5 L 262 410.5 Q 259.8 411.8 262.5 413 L 275 413.5 L 271.5 415 L 266.5 414 L 264.5 415 L 259 411.5 L 261 410.5 L 258 406 Z "></path><path d="M 267 409 Q 272.2 407.3 271 411 Q 265.8 412.7 267 409 Z "></path><path d="M 231.5 410 L 236 420.5 L 237 442.5 L 236 443.5 L 235.5 460 Q 231.1 456.9 233 447.5 L 234 446.5 L 234 429.5 L 233 428.5 L 233 419.5 L 230 411.5 L 231.5 410 Z "></path><path d="M 89 413 Q 92 412 91 415 Q 88 416 89 413 Z "></path><path d="M 327 422 L 332 422 L 332 424.5 Q 330.8 427 327 426 L 327 422 Z "></path><path d="M 57.5 423 Q 62.3 421.7 61 425 Q 57.2 425.8 57.5 423 Z "></path><path d="M 270 423 Q 273 421.8 272 425.5 L 270.5 433 Q 268 432 269 427.5 L 270 423 Z "></path><path d="M 304 429 Q 308.1 427.3 307 431.5 L 304.5 433 Q 301.8 431.8 304 430.5 L 304 429 Z "></path><path d="M 19 430 L 22 430.5 L 19 432.5 L 19 430 Z "></path><path d="M 90.5 432 L 94 432.5 L 88 435 Q 86.9 432.3 89.5 433 L 90.5 432 Z "></path><path d="M 310.5 433 L 311 434.5 L 308 436 Q 306.9 433.3 309.5 434 L 310.5 433 Z "></path><path d="M 22.5 436 L 25 436.5 L 21.5 439 L 21 437.5 L 22.5 436 Z "></path><path d="M 249.5 436 L 250 439.5 L 249 439.5 L 249.5 436 Z "></path><path d="M 71 437 Q 75.1 435.7 74 439 Q 69.9 440.3 71 437 Z "></path><path d="M 23 440 Q 27.1 438.3 26 442.5 Q 24.5 445.5 23 442.5 L 23 440 Z "></path><path d="M 16.5 448 L 17 451 Q 12.9 452.3 14 449 L 16.5 448 Z "></path><path d="M 248.5 448 L 249 457.5 L 247 464.5 L 246 483.5 L 248 493.5 L 245 495 L 244 488.5 L 244 468.5 L 246 463.5 L 248.5 448 Z "></path><path d="M 40 455 L 42 455.5 L 40.5 459 L 40 455 Z "></path><path d="M 48.5 458 L 49.5 460 L 48.5 458 Z "></path><path d="M 41.5 460 L 40.5 462 L 41.5 460 Z "></path><path d="M 44.5 460 L 45 461.5 L 43 462.5 L 44.5 460 Z "></path><path d="M 241.5 461 L 243 463.5 L 243 475 Q 239.5 476.1 241 468.5 L 241 466.5 L 240 463.5 L 241.5 461 Z "></path><path d="M 307.5 463 L 306.5 465 L 307.5 463 Z "></path><path d="M 14.5 477 L 16 480.5 L 14 479.5 L 14.5 477 Z "></path><path d="M 240 479 Q 243.5 477.9 242 485.5 L 243 489.5 L 239.5 495 L 238 494.5 Q 241.6 491.6 240 483.5 L 240 481.5 L 240 479 Z "></path><path d="M 71.5 484 L 71 485.5 L 69.5 488 L 70 486.5 L 71.5 484 Z "></path><path d="M 41.5 490 L 42 493.5 L 40 494.5 L 41.5 490 Z "></path><path d="M 314.5 490 L 318 492.5 Q 318.8 496.3 316.5 497 Q 312 498 311 495.5 Q 308.9 489.6 313.5 491 L 314.5 490 Z "></path><path d="M 243.5 503 L 245 506.5 L 241 508 L 241 504 L 242.5 504 L 243.5 503 Z "></path><path d="M 38.5 518 L 39 519.5 L 37 520.5 L 38.5 518 Z "></path><path d="M 301.5 522 L 303.5 523 L 306 522 L 304.5 525 Q 300.1 523.5 301 526.5 L 299 529.5 Q 300.3 532.3 301.5 530 L 308 527.5 L 306.5 525 Q 309.1 524.3 308 527 L 312 527 L 312 530 Q 307.9 528.7 309 532 L 314 531.5 L 313 529 Q 316.8 528 318 530.5 L 316 531 L 317.5 534 L 320 535.5 L 322.5 539 L 325 540.5 L 327 545.5 L 327 549.5 Q 323.8 552 325 558 Q 330.5 556.8 332 560.5 L 333 567 L 329 565.5 L 326.5 560 Q 324.3 559.3 325 561.5 L 324 565.5 L 320.5 569 Q 315.1 570.9 316 567.5 L 315 567.5 L 313 575 L 305 576 L 304.5 573 L 302.5 576 L 301.5 574 L 301 576 L 293 571.5 L 292.5 569 L 292 571 L 284.5 571 L 283 569.5 L 286 567.5 L 283 567 Q 281.5 563.2 284.5 564 Q 286 561.5 287.5 565 L 289.5 566 L 290 563 L 283 560.5 Q 282.2 557.9 285.5 559 L 284 556.5 L 285.5 554 L 289 556.5 L 289.5 558 L 290 553 L 285 551.5 L 286 549 L 289 548.5 L 286 548 Q 284.3 543.5 289.5 545 L 291.5 546 L 289.5 543 Q 287.3 543.8 288 541.5 L 290.5 540 L 292.5 541 L 290.5 538 L 284.5 539 L 279 543.5 L 277 552.5 L 279 560 L 275.5 559 L 275 560.5 L 282.5 572 L 288.5 573 L 290.5 572 L 292 575 L 283.5 576 Q 282.5 573 277.5 574 L 273.5 575 L 271.5 574 Q 269.6 578.1 262.5 577 L 257.5 570 L 251.5 573 L 246 569.5 L 242.5 564 Q 239.9 564.8 241 561.5 L 245 560 L 244 555.5 L 244 553.5 L 243 550 L 239 551.5 L 237 554.5 L 236 558.5 L 231.5 563 L 230 563.5 L 230 565.5 Q 229 569.3 232 568 L 233 564 L 237 563 L 238 555 Q 243.6 552.8 242 558.5 L 238 562.5 L 240.5 565 L 243 566.5 L 244 571 L 247 572.5 Q 246.2 575.1 249.5 574 L 253.5 584 L 254 582.5 L 253 577 L 257.5 576 Q 260.7 577.3 260.5 582 L 262.5 578 L 264.5 579 L 266.5 579 L 270 581.5 L 271.5 584 Q 277 584.5 279 581.5 Q 277.9 578.2 280.5 579 Q 281.8 576.8 283 579.5 Q 283.5 583.5 280.5 584 Q 276.5 587 268.5 586 L 266 582 Q 263.3 580.9 264 583.5 L 262.5 585 L 252.5 586 L 249 585 L 248 578 L 242.5 580 L 239.5 575 L 238.5 576 L 227.5 577 L 225 576 Q 226.3 573 222.5 574 L 211.5 577 L 210 576.5 L 209 580.5 L 210 582.5 Q 209.5 586.5 204.5 586 L 199 583.5 L 198 578.5 Q 199.8 575.3 204.5 575 L 207 576.5 L 205 571 L 198 572 L 196 576.5 L 197 579 L 193.5 580 L 191.5 576 L 188.5 577 L 185 574.5 Q 186.8 566.7 182.5 565 L 180 566 Q 179 570.3 182 571.5 L 182 575.5 L 179.5 579 L 176 577.5 L 175.5 576 Q 175 579.5 170.5 579 L 166 578 L 165 572.5 L 166 570.5 Q 164.5 567.5 163 570.5 Q 165.5 572 164 577.5 Q 163 580 158.5 579 Q 154.8 576.5 156 570 L 153 571.5 Q 155.8 572.3 155 576.5 Q 153.8 579.8 150 579 Q 151 576 148 577 Q 149.1 579.7 146.5 579 Q 144.8 581.8 143 577.5 L 143 573 L 137 573 L 135.5 577 Q 132.5 577.9 134 573.5 L 136.5 571 L 142.5 570 L 147.5 571 Q 149.7 566.7 157.5 568 L 160 569.5 Q 159.3 567.3 161.5 568 L 166.5 566 Q 169.6 567.4 169 572.5 Q 166.2 574.3 170.5 576 L 171 574.5 L 170 570.5 L 174.5 568 Q 175.8 570.3 177 567.5 L 178.5 564 L 183.5 563 L 188 565.5 L 189 574 L 192.5 573 L 194 573.5 Q 195.1 570.2 192.5 571 L 193.5 569 Q 198.1 570.4 196 564.5 Q 197.3 560.3 203.5 561 L 206 562.5 Q 205.3 560.3 207.5 561 L 212.5 559 L 214.5 560 L 216 556.5 L 214 553.5 L 219.5 549 L 224 552.5 L 223 557.5 L 224 557.5 L 225.5 555 L 228 553.5 Q 228.8 550.9 225.5 552 L 224 548 L 233 546 Q 234.1 548.7 231.5 548 L 228 549.5 L 231.5 552 L 235.5 549 L 243.5 547 L 247 548 L 247 545.5 L 252.5 540 L 257.5 539 L 266.5 542 L 266 540.5 L 267.5 538 L 270.5 537 L 274.5 539 L 277 540.5 L 277.5 542 L 279 538.5 L 279 536.5 L 280 532 Q 284.5 528.7 292.5 528 L 295.5 532 L 296 527.5 L 301.5 522 Z M 139 526 L 139 528 L 142 527 L 139 526 Z M 289 530 L 284 532 Q 281 533 282 537 L 282 538 L 289 537 L 293 535 L 293 530 L 289 530 Z M 301 532 L 301 534 L 304 535 Q 306 531 301 532 Z M 310 533 L 307 537 L 312 535 Q 314 534 313 538 L 315 538 Q 314 541 318 539 L 318 542 L 322 548 L 323 548 L 323 545 L 320 539 L 315 534 L 310 533 Z M 298 535 L 296 537 L 299 538 L 298 535 Z M 271 539 Q 269 543 272 546 L 271 551 L 268 551 L 263 548 Q 262 545 266 546 L 266 544 L 259 541 L 254 541 L 249 548 L 250 549 L 253 547 L 256 548 L 257 555 L 251 558 L 249 565 Q 248 570 253 571 Q 256 566 262 566 L 263 573 L 267 574 L 268 572 L 272 569 L 273 572 L 278 573 Q 277 567 272 564 L 272 557 L 275 556 L 274 554 Q 273 548 275 547 L 275 544 L 274 546 Q 274 541 271 539 Z M 300 539 L 297 541 L 295 540 L 296 543 L 293 543 Q 292 546 295 545 L 293 549 L 293 554 Q 297 552 296 556 L 296 557 L 301 556 L 302 556 Q 303 559 299 557 L 299 559 L 294 561 L 299 564 L 296 566 L 300 569 L 299 569 L 298 571 L 302 569 L 305 571 Q 306 569 311 570 L 312 569 L 312 567 L 309 569 L 306 568 L 304 566 L 304 564 Q 303 559 307 561 L 307 558 L 303 559 L 303 556 L 307 556 L 307 555 L 306 555 L 303 554 Q 302 551 307 552 L 306 550 L 304 551 L 300 550 L 305 548 L 303 543 L 300 539 Z M 307 539 L 305 541 L 309 542 L 308 545 Q 307 547 310 546 L 309 550 Q 313 549 314 552 L 313 554 L 315 554 L 314 556 Q 313 558 316 557 L 315 560 L 317 560 Q 318 558 319 561 L 317 561 L 317 563 L 313 561 L 314 565 L 321 564 L 322 561 L 322 553 L 321 555 L 320 555 L 321 553 L 317 543 L 310 539 L 307 539 Z M 253 550 Q 251 553 249 552 Q 247 556 252 555 L 253 556 L 253 550 Z M 220 551 L 219 552 Q 216 551 217 554 L 221 555 L 220 551 Z M 230 555 L 228 559 L 231 560 L 231 559 L 231 557 Q 232 554 230 555 Z M 289 559 L 290 561 Q 291 558 289 559 Z M 218 560 L 218 562 Q 220 565 221 562 Q 222 559 218 560 Z M 211 561 Q 208 562 209 566 L 212 565 L 211 561 Z M 226 563 Q 224 566 227 565 L 226 563 Z M 308 563 L 308 565 L 311 566 L 310 565 Q 311 562 308 563 Z M 200 564 L 200 566 Q 197 567 202 569 L 203 566 Q 204 563 200 564 Z M 215 565 L 215 567 L 220 567 L 215 565 Z M 320 565 L 316 567 L 320 567 L 320 565 Z M 291 567 L 287 569 L 291 569 L 291 567 Z M 212 568 L 209 571 L 210 574 Q 214 575 215 573 L 213 570 Q 214 567 212 568 Z M 221 569 Q 218 570 220 572 Q 219 574 222 573 L 222 569 L 221 569 Z M 234 569 L 234 573 Q 235 575 239 574 L 240 569 L 238 570 L 234 569 Z M 310 571 L 308 574 L 310 573 L 310 571 Z M 229 572 L 229 575 L 231 574 Q 232 571 229 572 Z M 161 573 L 160 576 L 161 576 L 161 573 Z M 243 573 L 241 576 L 244 576 L 243 573 Z M 203 577 L 201 579 L 202 582 L 206 583 Q 207 579 205 580 L 203 577 Z M 317 578 L 314 581 L 315 583 Q 317 586 319 582 Q 321 577 317 578 Z "></path><path d="M 313.5 522 Q 316.5 523.5 313.5 525 Q 311.3 525.8 312 523.5 L 313.5 522 Z "></path><path d="M 299.5 543 L 300 544.5 L 300 546.5 L 299.5 548 L 299 546 L 297 545.5 L 299 545 L 299.5 543 Z "></path><path d="M 342.5 544 L 341.5 546 L 342.5 544 Z "></path><path d="M 342.5 547 L 343 549 L 341 548.5 L 342.5 547 Z "></path><path d="M 282.5 553 L 284 553.5 L 281.5 555 L 282.5 553 Z "></path><path d="M 342.5 553 L 343 555.5 L 342 555.5 L 342.5 553 Z "></path><path d="M 318.5 555 L 320 557.5 L 318 556.5 L 318.5 555 Z "></path><path d="M 281.5 556 L 280.5 558 L 281.5 556 Z "></path><path d="M 280.5 560 L 281 561.5 L 279 562.5 L 280.5 560 Z "></path><path d="M 323 568 L 327 569.5 L 328 574.5 Q 326.8 577.3 321.5 576 L 320 572.5 L 321 570 Q 324 571 323 568 Z "></path><path d="M 124.5 571 L 129.5 576 L 133 576 Q 134.1 578.7 131.5 578 L 124 573.5 L 124.5 571 Z "></path><path d="M 315.5 575 L 322 577 Q 323 582.7 319.5 585 L 314.5 586 L 312 585 L 311 579.5 L 315.5 575 Z "></path><path d="M 340.5 590 L 341 593.5 L 340 593.5 L 340.5 590 Z "></path></svg>