<svg width="350" height="600" version="1.1" xmlns="http://www.w3.org/2000/svg" desc="Created with imagetracer.js version 1.2.5"><path d="M 220.5 4 L 223.5 5 L 284.5 5 L 286.5 5 L 289.5 4 Q 290.7 6.3 295.5 5 L 297.5 4 L 299.5 5 L 303.5 4 L 305.5 4 L 312.5 5 Q 314 2.5 319.5 4 L 321.5 4 L 335 5 L 336 7.5 L 336 125.5 L 337 126.5 L 336 130.5 L 336 132.5 L 337 177.5 L 336 178.5 L 336 205.5 L 337 206.5 L 337 219.5 L 337 221.5 L 337 342.5 L 338 343.5 L 337 344.5 L 337 414.5 Q 339.2 415.8 338 420.5 L 337 421.5 L 337 435.5 L 338 436.5 L 338 444.5 L 337 445.5 L 337 477.5 L 338 480.5 Q 335.5 482 337 487.5 L 338 489.5 L 337 494.5 L 338 497.5 L 337 513.5 L 338 516.5 L 338 518.5 L 337 520.5 Q 339.8 522.2 338 528.5 L 337 530.5 L 338 531.5 L 338 540.5 L 338 542.5 L 338 594.5 L 337.5 595 L 330.5 595 L 329.5 594 L 317.5 594 L 315.5 595 L 313.5 595 Q 308.8 596.3 307.5 594 L 305.5 594 L 303.5 595 L 274.5 595 L 273.5 596 L 264.5 596 L 263.5 595 L 211.5 595 L 207.5 594 L 203.5 595 L 199.5 594 L 195.5 595 L 190.5 594 Q 189.3 596.3 184.5 595 L 182.5 594 L 180.5 595 L 178.5 594 L 176.5 594 L 167.5 595 L 165.5 594 L 163.5 595 L 161.5 595 L 156.5 594 L 155.5 595 L 131.5 595 L 127.5 596 Q 126 593.5 120.5 595 L 117.5 596 L 115.5 596 L 106.5 596 L 105.5 595 L 104.5 596 L 79.5 596 L 77.5 595 L 76.5 596 L 58.5 596 L 56.5 597 L 55.5 596 L 17.5 596 L 15.5 596 Q 10 594.5 8.5 597 L 5.5 596 L 4 596.5 L 4 572.5 L 3 568.5 L 4 565.5 L 3 563.5 L 4 562.5 L 4 517.5 L 5 516.5 L 4 515.5 L 4 475.5 L 4 473.5 L 4 376.5 L 5 375.5 L 4 374.5 L 4 341 L 6 340.5 Q 2.5 339 5 337.5 L 5 329.5 L 4 328.5 L 4 288.5 L 4 286.5 L 4 256.5 Q 6.3 255.3 5 250.5 Q 2.3 248.7 4 242.5 L 5 240.5 L 4 239.5 L 4 200.5 L 5 199.5 L 5 178.5 L 4 177.5 L 4 152.5 L 5 150.5 L 4 148.5 Q 6.5 147 5 141.5 L 4 140.5 L 4 108.5 L 4 106.5 L 4 89.5 L 5 88.5 L 4 87.5 L 4 54.5 L 5 52.5 L 4 51.5 L 4 22.5 L 5 21.5 L 5 11.5 L 5 9.5 L 6.5 7 L 9.5 6 L 11.5 7 Q 13 4.5 18.5 6 L 21.5 7 L 22.5 6 L 51.5 6 L 53.5 5 L 55.5 6 L 56.5 5 L 75.5 5 L 77.5 5 L 79.5 6 L 94.5 6 L 95.5 5 L 133.5 5 L 135.5 6 L 136.5 5 L 157.5 5 L 159.5 6 L 160.5 5 L 219.5 5 L 220.5 4 Z M 293 7 Q 291 10 290 8 L 274 9 L 271 13 L 268 14 L 263 21 L 263 25 L 263 26 L 267 24 L 269 28 L 266 33 L 266 38 L 271 37 Q 272 41 269 44 Q 268 49 270 51 Q 269 53 273 52 L 275 49 L 275 41 L 273 34 L 279 30 Q 279 35 282 38 Q 281 40 284 39 L 284 30 L 281 21 L 274 15 L 279 12 L 283 14 L 286 19 L 289 30 L 290 30 L 289 27 L 293 16 L 292 11 Q 296 9 293 7 Z M 168 8 L 159 10 L 154 9 L 153 14 Q 151 16 146 15 L 144 17 L 142 30 L 138 34 L 136 42 L 134 43 L 132 43 L 128 49 L 125 46 L 119 44 L 118 37 L 116 41 L 112 43 L 111 54 L 106 61 L 99 59 L 98 56 L 97 58 L 93 60 L 94 65 L 92 70 Q 90 74 83 72 L 78 66 L 79 64 L 73 58 L 73 55 L 71 53 L 67 50 Q 69 44 66 43 L 67 39 L 67 37 L 69 33 Q 70 29 68 30 L 64 25 L 64 18 L 66 10 L 63 11 L 59 10 L 57 10 L 52 9 L 50 10 L 21 10 L 20 9 L 9 10 L 7 12 L 8 17 L 7 19 L 7 49 L 7 51 L 8 53 Q 6 54 7 59 L 7 61 L 7 88 L 8 89 L 7 90 L 7 149 L 7 151 L 7 188 L 8 189 Q 6 192 7 200 L 7 202 L 7 236 L 8 237 Q 6 238 7 244 L 7 246 L 8 249 L 7 250 L 7 275 L 7 277 L 8 281 L 7 283 L 8 285 L 8 287 L 7 292 L 7 294 L 7 319 L 8 320 L 7 322 L 8 325 L 7 327 L 7 336 L 8 337 L 7 339 L 8 343 L 7 344 L 7 369 L 7 371 L 8 373 Q 6 376 7 384 L 7 386 L 8 388 L 7 390 L 7 412 L 7 414 Q 6 419 8 421 L 7 422 L 7 431 L 7 433 L 8 436 L 7 439 L 11 436 L 14 436 L 20 441 Q 27 443 31 440 L 33 440 L 50 446 L 64 445 L 63 443 L 71 438 Q 76 437 77 441 L 77 437 L 70 437 L 69 438 L 64 433 L 65 425 L 71 416 L 73 415 Q 70 417 71 421 L 74 421 Q 73 418 76 419 L 78 416 L 80 418 L 80 420 L 77 420 Q 78 423 75 422 L 76 427 L 78 426 L 78 429 Q 75 430 76 428 L 73 428 Q 74 431 71 430 L 71 434 L 72 434 Q 71 431 74 432 L 76 432 Q 75 429 79 430 L 79 428 L 82 428 L 82 425 Q 85 424 84 427 L 81 429 Q 78 431 81 432 L 86 431 L 85 428 Q 84 425 87 426 L 86 428 L 88 428 L 89 424 L 88 421 Q 85 420 86 424 L 83 424 L 85 419 L 84 419 Q 85 421 82 420 L 81 418 L 84 417 L 80 414 L 84 413 L 86 418 Q 85 420 89 419 Q 93 420 92 427 Q 90 428 93 429 L 95 421 L 99 418 L 102 419 L 103 425 L 107 426 L 109 431 L 110 427 L 113 426 L 119 430 L 122 428 L 121 425 L 122 423 L 127 420 L 129 417 L 128 412 Q 134 405 144 402 L 148 398 L 154 396 L 155 392 L 158 391 L 160 392 L 162 391 L 164 392 L 166 391 Q 168 392 167 390 L 171 387 L 181 372 Q 183 373 182 371 L 182 369 L 189 347 L 191 345 L 188 341 L 188 336 L 193 326 L 191 320 Q 192 315 189 316 L 191 311 L 190 309 L 190 280 L 189 279 L 189 263 L 191 255 L 189 247 L 190 224 L 190 222 Q 192 214 191 204 L 191 202 Q 193 195 190 194 Q 189 188 191 187 L 190 186 L 190 162 L 190 160 Q 192 148 188 142 L 189 140 L 189 138 L 187 128 Q 186 122 188 121 L 187 114 Q 185 112 188 111 Q 190 112 189 106 L 189 104 L 188 102 L 188 69 L 183 70 L 182 68 L 182 66 L 180 66 L 180 61 L 178 59 L 174 54 L 174 52 L 173 50 L 174 49 L 174 39 L 170 38 L 166 38 L 164 39 L 162 38 L 161 39 L 146 39 L 144 36 L 150 37 L 151 35 Q 152 30 150 29 L 151 24 Q 146 25 145 23 L 146 21 L 167 21 L 170 20 Q 175 19 176 22 Q 175 24 170 23 L 170 25 L 168 36 Q 176 38 180 34 L 183 36 L 186 31 L 185 29 L 187 23 Q 188 20 185 21 L 182 19 L 182 9 L 179 10 L 175 8 L 170 9 L 168 8 Z M 223 8 L 221 9 L 217 14 Q 218 18 216 20 Q 219 21 217 27 L 220 28 Q 224 26 223 19 Q 224 16 228 16 L 229 18 L 229 28 L 233 30 L 234 28 Q 233 24 236 25 Q 238 24 236 23 L 237 18 L 242 9 L 234 10 L 235 12 L 235 14 L 236 19 L 234 20 L 231 15 L 231 13 Q 230 10 233 11 L 233 9 L 224 9 L 223 8 Z M 298 8 L 299 13 L 298 20 L 293 32 Q 295 38 292 40 Q 291 42 294 41 L 294 46 L 299 51 L 299 43 L 303 41 L 306 44 L 305 48 L 307 55 Q 306 57 303 56 L 301 53 L 297 55 Q 292 56 291 53 Q 292 50 289 51 Q 291 53 290 60 L 295 67 L 295 59 L 300 56 L 302 61 L 301 63 L 301 76 L 302 78 L 308 82 L 314 70 L 310 60 L 310 58 L 312 49 Q 315 47 313 46 Q 314 43 311 44 L 310 36 Q 309 39 304 38 L 298 32 L 298 27 L 300 20 L 305 12 Q 304 9 307 10 L 307 8 L 298 8 Z M 311 8 L 311 11 L 304 24 Q 305 28 303 30 L 305 33 Q 304 35 307 34 L 310 27 L 316 24 L 318 30 L 318 32 L 315 36 Q 314 40 317 42 L 319 41 Q 320 39 321 42 L 321 45 Q 316 48 315 56 Q 314 62 318 65 L 322 66 Q 323 69 321 68 L 312 86 Q 311 92 316 93 Q 318 94 317 91 L 319 91 L 318 86 Q 321 87 323 84 L 326 86 L 326 90 L 320 101 L 320 110 L 325 115 L 328 109 L 327 107 L 328 105 L 325 101 L 326 98 L 330 97 L 331 94 L 331 80 L 329 77 L 327 65 L 326 63 L 322 64 L 324 61 L 326 62 L 329 55 L 329 43 L 330 41 L 329 41 Q 325 39 330 37 Q 331 31 328 30 L 331 25 Q 331 16 327 12 L 325 13 L 322 10 Q 321 7 320 9 L 318 8 L 314 9 L 311 8 Z M 329 8 L 331 13 L 332 9 L 331 9 L 329 8 Z M 88 9 L 82 25 L 83 27 L 83 29 Q 82 32 85 31 Q 88 30 87 26 L 90 25 Q 95 25 95 29 L 95 33 L 91 40 L 93 43 L 94 41 L 97 39 L 99 42 L 101 41 L 103 45 L 102 49 L 103 54 Q 101 55 104 56 L 106 55 L 108 48 L 107 45 L 108 40 L 103 34 Q 102 31 105 32 L 105 30 L 108 29 L 110 30 L 111 30 L 109 26 L 108 26 Q 103 27 102 24 Q 101 19 103 18 L 103 14 L 100 9 L 98 10 L 89 10 L 88 9 Z M 106 9 L 107 14 L 108 14 Q 110 8 106 9 Z M 117 9 L 111 21 L 112 26 L 116 27 Q 115 22 119 21 Q 122 20 123 23 L 121 33 Q 120 39 123 42 Q 122 44 125 43 L 126 46 L 129 39 Q 130 33 127 31 Q 126 24 131 23 L 134 25 L 136 21 Q 137 15 134 13 L 131 9 L 117 9 Z M 150 9 L 149 10 Q 146 9 147 12 L 150 13 L 150 9 Z M 185 9 L 186 12 L 185 14 L 186 18 L 191 20 Q 194 19 193 23 L 189 25 Q 188 28 192 27 Q 193 29 195 26 L 200 28 L 201 26 L 198 17 L 195 16 L 195 12 Q 192 13 193 9 L 190 10 L 185 9 Z M 247 9 L 242 18 L 241 23 Q 240 25 243 24 L 245 17 L 251 15 L 253 19 L 250 27 Q 249 33 254 34 L 257 29 L 257 27 L 259 20 L 269 9 L 264 10 L 262 9 L 260 9 L 256 10 L 254 9 L 250 10 L 247 9 Z M 73 10 L 70 11 L 69 14 L 68 25 Q 71 30 74 24 L 76 28 L 72 34 L 73 37 L 71 42 L 72 44 L 71 46 L 74 49 L 76 48 L 75 45 Q 74 42 77 43 L 77 41 L 82 40 L 86 47 L 84 53 L 83 66 Q 84 69 89 68 L 88 63 L 89 57 L 92 53 L 95 54 L 97 49 L 97 47 Q 96 51 91 50 L 86 43 L 88 35 L 86 36 L 82 35 L 77 29 L 77 24 L 73 22 Q 71 13 75 11 L 73 10 Z M 79 10 Q 76 11 78 13 L 77 17 L 79 20 L 80 12 L 83 11 L 79 10 Z M 141 10 L 142 13 Q 141 15 144 14 L 143 13 L 144 11 L 141 10 Z M 208 10 L 207 13 L 208 13 L 208 10 Z M 212 10 L 213 14 L 215 11 L 212 10 Z M 140 16 L 137 27 L 134 29 L 138 31 L 140 25 L 140 16 Z M 208 19 L 208 21 L 208 23 L 206 26 L 206 33 L 210 40 L 212 39 L 214 33 L 211 25 L 211 21 L 208 19 Z M 162 23 L 160 25 L 165 32 Q 164 28 167 27 Q 169 20 162 23 Z M 154 24 L 155 31 L 155 33 L 155 36 L 161 36 L 157 26 L 154 24 Z M 246 25 Q 245 29 248 28 Q 249 24 246 25 Z M 238 26 L 238 28 L 236 32 L 237 35 Q 238 41 234 43 Q 231 42 232 45 L 228 47 L 226 46 L 221 40 L 225 31 L 225 29 L 222 31 Q 219 32 220 37 L 220 39 L 220 49 L 223 55 L 227 52 L 229 53 L 236 45 Q 238 37 244 32 Q 246 33 245 31 L 239 28 Q 240 25 238 26 Z M 131 28 L 133 36 L 132 41 L 134 40 Q 136 34 133 33 L 134 30 L 131 28 Z M 112 30 L 114 36 L 115 31 L 112 30 Z M 263 30 L 261 31 L 256 42 L 260 49 L 262 44 L 260 41 Q 259 32 264 31 L 263 30 Z M 188 32 L 187 38 L 184 39 L 180 38 L 178 45 L 180 55 L 186 56 L 184 60 L 185 65 L 188 64 Q 190 55 186 53 Q 185 46 188 43 L 194 45 L 196 41 L 194 39 L 193 34 Q 192 31 188 32 Z M 229 33 L 227 37 L 226 40 Q 227 43 231 42 L 233 38 L 232 34 L 229 33 Z M 247 34 L 244 37 L 238 50 L 235 53 Q 232 52 233 55 L 231 55 L 227 63 L 226 64 L 222 62 L 225 67 L 224 69 L 220 67 L 224 77 L 228 78 Q 230 77 229 80 L 233 81 L 235 83 L 234 81 L 235 76 L 231 73 Q 232 70 229 71 L 232 67 L 235 68 L 236 71 Q 238 69 237 63 L 237 61 L 240 59 L 241 60 L 240 50 L 243 49 L 244 52 L 245 52 L 244 43 L 247 42 L 249 45 L 249 41 L 247 41 L 250 39 Q 251 36 248 37 L 247 34 Z M 212 42 L 208 45 Q 207 47 210 46 L 212 46 L 213 43 L 212 42 Z M 284 42 L 280 43 L 279 49 L 271 55 Q 267 54 268 58 L 264 60 L 261 66 L 261 72 L 268 69 L 265 78 Q 263 84 267 83 L 268 79 L 274 76 L 270 86 L 270 94 L 271 95 Q 270 98 273 97 Q 277 96 276 90 L 276 88 L 279 82 L 282 84 L 281 89 Q 280 96 284 97 L 286 96 L 286 89 L 283 82 L 287 81 L 291 88 L 291 95 L 289 97 L 293 101 Q 294 106 291 108 L 294 116 L 293 123 L 288 127 L 291 133 Q 292 138 288 140 L 289 142 Q 291 147 288 149 Q 289 151 285 150 L 285 144 L 282 139 L 286 136 Q 287 132 284 131 Q 285 128 282 129 L 280 124 L 282 120 L 288 123 L 289 121 L 288 114 L 286 110 L 279 103 L 276 103 L 278 100 L 281 100 L 287 103 L 289 105 L 288 100 Q 285 98 279 99 L 277 97 L 271 100 L 267 100 L 265 104 Q 261 103 262 107 L 265 105 L 267 107 L 259 119 L 260 125 Q 263 126 262 124 L 269 120 L 271 122 L 270 128 L 266 137 L 267 140 L 270 139 L 273 141 L 274 144 L 271 153 L 273 158 Q 272 160 275 159 L 275 161 L 277 161 L 279 152 Q 281 147 283 151 L 280 162 L 276 165 L 272 164 L 266 157 L 268 149 L 270 147 L 269 143 Q 264 144 262 141 Q 261 133 264 130 L 265 128 L 263 129 L 257 128 L 254 123 L 251 121 L 246 114 L 247 111 L 247 108 L 242 108 L 241 107 L 238 105 L 238 100 Q 235 101 237 103 L 237 121 L 236 122 L 237 125 L 236 127 Q 235 132 237 134 L 236 137 L 236 139 Q 235 143 237 145 L 236 148 L 237 151 L 237 174 L 238 175 L 237 176 L 237 197 L 237 199 L 238 200 L 239 233 L 240 234 L 240 245 L 238 245 Q 237 250 240 251 L 244 249 Q 245 252 251 251 L 253 251 L 258 253 L 260 252 Q 261 255 258 254 L 259 258 L 263 259 L 268 277 L 266 277 L 267 281 L 267 283 L 268 287 Q 269 290 266 289 L 265 292 L 266 296 Q 269 297 265 299 L 262 297 L 261 299 L 260 298 L 257 299 L 257 297 L 256 301 Q 252 302 255 304 L 252 304 L 254 298 L 253 294 Q 255 288 251 289 L 251 278 L 248 279 L 248 276 L 241 278 L 239 278 Q 236 279 237 276 L 235 277 L 231 276 L 231 274 L 228 278 L 227 274 L 226 279 Q 223 280 227 282 L 225 283 L 228 295 L 233 301 L 236 299 L 235 298 L 234 296 Q 241 295 240 298 L 236 300 L 241 300 L 242 303 L 239 302 L 239 304 Q 240 306 237 305 Q 234 304 236 303 L 234 302 L 234 304 L 234 306 L 231 305 Q 231 310 228 312 Q 230 316 236 316 Q 239 317 239 322 L 239 321 L 245 317 L 252 316 L 256 314 L 259 309 L 256 302 L 262 302 L 268 305 Q 270 304 269 307 L 271 306 L 289 313 L 296 318 L 304 330 L 304 335 L 302 335 L 302 337 L 304 336 Q 306 337 304 339 L 307 345 L 308 363 L 309 364 L 308 373 L 306 375 Q 306 381 303 386 Q 304 390 301 389 L 300 398 L 291 407 L 291 408 L 286 410 Q 283 409 284 412 L 288 413 L 289 416 L 301 422 Q 303 421 302 424 L 310 426 L 315 433 L 312 438 L 314 448 L 314 450 Q 315 457 312 461 L 308 465 L 300 468 L 278 469 L 275 472 L 276 480 L 279 489 L 284 496 L 285 500 L 285 509 L 284 510 L 285 515 Q 284 517 287 516 Q 289 517 287 519 L 285 522 L 282 524 Q 277 525 276 522 L 272 518 Q 273 514 271 515 L 269 513 L 269 511 L 267 510 L 266 508 L 267 506 L 259 498 L 259 496 L 260 494 L 258 495 L 251 486 L 255 483 L 255 486 L 260 490 L 261 490 L 258 485 L 258 472 Q 245 469 237 460 Q 238 457 235 458 L 235 456 L 233 456 L 233 454 L 228 452 L 225 449 L 221 449 Q 219 446 215 447 L 216 445 L 211 442 L 206 443 Q 201 440 193 441 L 186 437 L 182 434 L 184 432 Q 185 429 182 430 Q 180 426 179 429 Q 176 430 177 427 L 173 426 L 175 423 Q 176 420 172 421 Q 163 428 159 440 L 161 441 Q 160 438 163 439 L 163 444 L 168 449 L 168 452 L 186 458 L 198 464 L 208 466 L 210 466 L 222 471 L 236 474 L 250 479 L 251 483 L 249 484 L 242 480 L 226 475 L 222 475 L 210 470 Q 203 468 202 471 L 197 469 L 195 470 L 198 471 L 196 483 L 185 511 L 188 517 Q 189 524 184 526 L 185 535 L 188 545 L 188 550 L 193 562 Q 192 564 195 563 L 195 566 L 203 577 L 199 580 L 192 581 L 188 581 L 184 583 Q 182 581 181 584 L 177 583 Q 175 586 174 582 L 173 584 L 174 585 L 171 582 L 164 581 Q 162 577 161 580 L 158 579 L 156 579 L 147 574 L 158 555 L 160 544 L 162 540 L 162 538 L 164 531 L 164 526 L 162 524 L 159 521 L 160 514 L 165 511 L 163 510 Q 158 506 158 498 L 151 485 L 152 482 L 151 482 L 147 477 L 147 473 Q 150 474 149 471 L 155 470 L 157 470 L 163 459 L 167 457 L 167 455 L 161 447 L 160 447 L 156 443 L 155 439 Q 154 434 157 434 L 155 430 L 156 424 Q 164 413 177 406 Q 180 407 179 404 L 185 402 L 188 403 L 193 403 L 198 400 Q 199 397 197 398 L 195 395 L 194 395 L 187 393 L 181 385 L 182 382 L 181 378 L 177 386 L 167 395 L 159 398 L 150 399 L 145 404 L 140 405 Q 138 409 134 408 Q 136 414 132 416 L 133 420 Q 128 420 126 424 L 127 427 Q 129 433 124 431 L 122 434 L 115 440 L 113 440 L 106 445 L 102 443 L 89 447 L 87 449 L 79 449 L 61 456 L 59 455 L 54 456 L 47 454 L 45 454 L 40 455 Q 38 458 37 454 Q 34 455 35 452 Q 38 451 37 454 L 50 451 Q 54 450 55 453 L 59 452 L 61 449 L 57 447 Q 52 446 51 448 L 40 445 L 38 446 L 32 443 L 29 445 Q 22 443 21 446 L 16 445 L 11 439 L 7 441 L 8 458 L 18 453 Q 24 451 23 455 L 14 456 L 7 462 L 7 473 L 6 473 L 6 474 L 22 470 L 48 471 L 55 474 L 56 478 L 46 498 L 46 500 L 50 500 L 50 502 Q 48 506 46 502 L 38 519 Q 38 523 41 524 Q 42 529 39 531 L 39 538 L 44 554 L 55 576 L 48 581 L 43 582 L 40 586 L 36 589 L 33 588 L 33 587 L 24 584 L 18 584 L 15 582 L 7 581 L 6 584 L 7 593 L 9 592 L 12 593 L 18 592 L 20 592 L 23 591 L 48 591 L 47 588 L 51 588 L 51 590 Q 49 591 52 592 L 54 591 L 57 592 L 59 591 Q 61 592 60 589 Q 64 588 66 591 L 66 590 L 69 588 Q 72 594 75 588 Q 79 587 77 591 L 82 590 L 100 590 L 100 588 L 103 588 L 105 588 L 108 590 L 110 590 L 114 591 L 116 591 L 115 589 Q 114 584 119 586 Q 121 587 119 589 L 123 591 L 125 590 L 147 590 L 148 591 L 151 590 L 166 590 L 167 586 L 171 585 L 173 590 L 173 587 L 176 586 L 177 589 L 181 590 L 183 590 L 186 591 L 188 591 L 188 584 L 192 584 L 193 590 L 194 587 Q 195 584 199 585 L 200 590 Q 199 592 202 591 L 201 587 Q 202 584 206 585 L 207 591 L 209 590 L 213 591 L 215 591 L 219 590 L 227 590 L 227 587 Q 233 586 235 591 L 245 591 L 246 592 L 251 591 L 253 591 L 255 592 L 253 589 Q 251 584 256 585 L 258 591 L 283 591 L 284 590 L 288 591 L 290 590 L 294 591 Q 300 592 299 590 L 299 588 L 303 588 L 304 591 L 326 591 L 329 592 L 334 591 Q 336 590 334 589 L 336 586 L 335 583 L 336 580 Q 337 575 335 574 L 335 551 L 336 550 L 333 543 L 333 541 Q 332 538 335 539 L 336 536 L 335 535 L 335 506 L 333 500 Q 336 496 334 488 L 335 487 L 334 485 L 335 481 Q 336 473 334 469 L 329 471 Q 323 469 324 461 L 327 459 L 329 458 Q 331 463 328 465 Q 327 467 330 466 L 331 460 L 333 460 L 334 460 L 334 453 L 332 453 Q 331 450 334 451 L 334 420 L 335 418 L 332 416 L 331 414 L 333 413 Q 335 412 334 409 L 333 409 L 327 407 L 326 411 Q 322 409 322 404 L 319 406 L 311 405 Q 307 400 301 399 L 303 395 L 314 402 L 319 399 Q 323 400 321 396 L 325 396 Q 324 401 327 404 L 328 402 L 331 405 L 331 406 L 335 406 L 334 400 Q 332 393 335 392 L 335 384 L 334 383 L 334 333 L 335 332 L 334 327 L 334 325 L 335 323 L 334 321 L 334 286 L 335 285 L 334 276 L 334 274 L 335 269 L 334 265 L 335 263 L 334 261 L 334 229 L 333 228 L 334 226 L 334 224 L 333 110 L 332 113 L 323 118 L 317 117 Q 312 114 313 106 L 313 104 L 315 97 L 314 97 L 309 96 L 305 90 L 307 83 L 303 85 L 304 88 L 303 90 L 304 93 L 304 95 Q 303 99 306 98 L 308 101 L 313 99 L 312 104 Q 311 107 306 106 L 303 103 L 302 103 L 298 96 Q 296 89 299 88 L 299 85 Q 295 82 295 76 L 295 74 L 294 69 L 292 70 L 288 69 L 290 75 L 289 79 L 289 80 L 285 80 L 284 73 L 278 68 L 279 66 L 278 60 Q 277 56 272 57 L 277 53 L 283 57 Q 282 48 285 43 L 284 42 Z M 250 46 L 249 49 L 250 49 L 250 46 Z M 264 48 L 263 54 Q 267 52 266 56 L 267 56 L 264 48 Z M 202 49 L 202 51 Q 204 55 206 52 L 202 49 Z M 253 50 L 253 54 L 250 59 L 251 60 L 253 59 L 254 62 L 250 65 Q 251 67 249 66 L 244 75 L 245 81 L 248 82 Q 252 80 249 79 L 250 77 Q 251 72 256 73 L 256 67 L 260 62 L 260 59 Q 258 62 255 61 L 258 51 L 257 51 L 253 50 Z M 79 53 L 78 56 L 79 56 L 79 53 Z M 197 54 L 196 57 L 198 61 L 200 56 L 197 54 Z M 216 54 L 211 55 L 215 60 L 216 57 L 221 59 L 222 57 L 216 54 Z M 224 56 Q 223 59 226 58 Q 227 55 224 56 Z M 333 56 L 331 60 Q 330 64 333 63 L 333 56 Z M 203 57 L 202 60 Q 204 58 206 61 L 206 60 L 203 57 Z M 217 60 Q 215 64 218 66 L 219 66 L 217 60 Z M 208 62 L 207 64 L 207 66 L 209 69 Q 208 71 211 70 L 208 62 Z M 285 63 L 284 66 L 286 67 L 285 63 Z M 190 65 L 188 68 Q 187 70 190 69 L 190 65 Z M 287 67 Q 285 70 288 69 L 287 67 Z M 194 69 L 192 72 L 193 73 L 196 71 L 194 69 Z M 200 69 L 201 71 Q 202 68 200 69 Z M 216 69 L 216 71 L 218 70 L 216 69 Z M 202 71 L 203 74 L 198 75 L 198 76 L 204 76 L 204 79 L 200 81 L 202 81 L 203 84 L 203 88 L 201 90 L 202 93 L 200 93 Q 195 91 199 89 L 198 84 L 196 90 L 193 91 L 193 92 Q 197 90 196 94 Q 198 95 196 96 Q 191 95 192 98 L 197 97 L 196 106 L 195 105 L 193 106 L 193 111 L 189 112 L 192 114 Q 194 119 191 121 L 192 125 L 191 127 L 194 132 L 193 135 L 193 138 Q 197 137 196 140 L 200 141 L 202 140 Q 205 139 206 142 Q 207 144 204 143 L 206 148 L 206 150 L 201 150 Q 200 153 204 152 Q 205 156 202 157 L 200 156 L 197 159 L 196 163 L 198 168 L 194 169 L 195 171 L 197 170 L 198 173 L 198 174 L 194 174 L 194 212 L 198 212 L 198 215 Q 194 216 195 214 L 194 214 L 195 224 L 197 223 Q 199 228 195 227 L 194 229 L 196 228 Q 200 228 200 231 L 199 233 Q 193 235 194 231 L 193 231 Q 191 236 196 235 L 198 235 L 201 234 L 202 238 L 197 239 L 195 239 Q 196 241 193 240 L 194 247 L 196 243 L 197 247 L 197 249 Q 198 253 195 252 L 196 249 Q 195 246 193 249 L 194 257 L 194 259 Q 196 264 193 266 L 193 289 L 193 291 L 194 313 L 195 314 Q 193 319 197 318 L 199 314 L 207 309 L 210 310 L 215 307 L 220 306 L 228 300 L 226 295 L 224 296 Q 220 295 222 289 L 220 287 L 221 285 L 218 278 L 218 276 Q 216 266 222 263 Q 224 264 223 260 Q 226 254 233 254 L 232 252 Q 231 247 234 247 L 231 243 L 231 240 L 231 238 L 233 239 L 233 238 L 235 238 L 233 233 L 231 230 L 228 231 L 229 235 L 227 236 Q 222 235 223 231 L 221 231 L 223 227 L 226 228 L 227 229 L 224 221 L 221 218 Q 222 215 220 216 L 220 215 Q 222 216 221 213 L 224 213 L 229 222 L 229 224 L 231 226 L 231 224 L 233 224 Q 229 221 228 215 L 230 215 L 229 211 L 228 211 L 227 210 L 231 207 L 232 208 L 229 202 Q 228 199 227 201 L 221 197 L 218 197 Q 217 193 221 192 L 223 193 L 225 195 L 219 185 L 220 181 L 220 178 L 218 179 L 214 171 Q 213 166 216 166 L 216 159 Q 213 157 214 153 L 210 150 L 211 147 L 210 145 L 211 140 L 210 139 L 210 128 L 209 127 Q 208 122 210 121 Q 209 118 212 119 L 213 120 L 213 115 L 210 110 L 208 109 L 209 113 L 209 115 Q 210 119 207 120 Q 204 121 205 118 L 203 119 L 199 118 Q 198 115 201 116 L 200 112 L 197 114 L 195 111 L 200 107 L 201 105 Q 198 106 199 104 Q 200 101 204 102 L 203 105 L 205 105 Q 207 109 209 105 L 206 101 Q 205 97 208 96 L 209 96 L 209 91 L 211 91 L 208 89 L 205 85 L 208 83 L 207 79 L 207 77 Q 210 78 208 74 L 207 74 L 202 71 Z M 257 73 L 257 76 L 257 80 L 254 86 Q 253 89 256 88 L 260 84 L 261 86 L 261 92 Q 256 93 258 101 L 261 102 L 267 99 L 266 98 L 263 93 L 265 86 L 260 83 L 261 76 Q 259 77 257 73 Z M 215 74 Q 213 77 216 76 L 215 74 Z M 300 78 L 299 82 L 300 82 L 300 78 Z M 240 79 Q 237 81 238 87 L 233 96 L 236 100 L 236 99 L 238 99 L 239 92 L 245 87 Q 240 85 240 79 Z M 195 80 L 194 84 L 197 82 Q 198 79 195 80 Z M 213 80 Q 211 85 214 86 L 214 85 L 214 83 Q 216 84 215 81 L 213 80 Z M 223 80 L 221 83 Q 223 90 228 95 L 231 93 L 234 88 L 234 84 L 231 85 L 232 89 L 229 90 L 227 87 L 230 86 L 229 84 L 228 84 L 227 82 L 223 84 L 223 80 Z M 250 85 Q 244 89 242 98 L 243 102 L 247 104 L 248 99 L 252 95 L 253 96 L 254 94 L 257 92 L 258 90 L 251 91 L 250 85 Z M 216 88 L 215 90 L 217 90 Q 216 93 219 92 L 221 96 L 221 98 L 223 102 L 224 99 L 219 89 L 218 89 L 216 88 Z M 332 97 Q 329 101 333 100 L 332 97 Z M 229 98 L 227 100 L 228 102 L 227 104 Q 228 106 225 105 L 223 105 L 225 108 L 227 111 L 232 114 L 232 113 L 229 111 L 230 105 L 232 106 L 232 104 L 230 100 Q 231 97 229 98 Z M 214 101 L 213 104 L 214 104 L 214 101 Z M 254 102 L 252 106 Q 251 114 255 118 L 258 112 Q 259 104 254 102 Z M 216 107 L 215 111 L 217 110 L 216 107 Z M 221 107 L 220 111 Q 218 114 216 113 L 217 119 L 219 120 L 219 119 Q 217 117 220 116 Q 222 117 221 114 L 229 118 L 229 117 L 229 115 Q 230 112 228 113 L 225 115 Q 226 112 222 113 L 221 107 Z M 217 119 L 214 125 L 217 130 Q 215 134 219 133 L 218 135 L 221 140 L 223 137 L 219 129 L 219 127 Q 220 120 217 119 Z M 231 119 L 230 121 L 232 122 L 231 119 Z M 224 120 L 223 124 L 226 133 L 229 134 L 230 133 L 232 135 L 229 125 L 228 125 L 224 120 Z M 227 136 L 224 139 L 224 141 L 226 144 L 229 145 Q 230 142 232 144 L 232 142 L 228 138 Q 229 135 227 136 Z M 213 138 L 214 143 Q 213 145 216 144 L 217 145 L 216 142 Q 218 136 213 138 Z M 193 143 L 193 146 L 195 145 Q 196 142 193 143 Z M 201 144 L 199 147 L 202 148 L 201 144 Z M 223 145 L 222 147 L 228 154 Q 227 157 231 155 L 231 157 L 233 156 L 232 152 L 233 150 L 231 149 L 231 146 L 230 148 Q 228 146 227 149 L 223 145 Z M 197 151 L 198 153 L 200 152 L 197 151 Z M 220 152 L 222 158 L 223 158 L 222 155 Q 223 151 220 152 Z M 218 158 L 218 169 L 222 176 L 222 178 Q 226 176 225 180 L 226 180 L 225 172 Q 219 167 218 158 Z M 223 158 L 224 162 Q 223 165 227 163 Q 228 166 226 165 L 226 166 L 228 166 Q 226 170 230 169 L 231 168 L 233 170 L 232 165 Q 231 162 230 164 L 228 162 L 223 158 Z M 233 161 L 232 164 L 233 164 L 233 161 Z M 226 180 L 226 182 L 226 184 L 232 200 L 234 200 Q 232 198 233 193 L 229 184 L 231 184 L 231 183 L 233 183 L 233 181 L 232 181 L 226 180 Z M 226 195 L 226 198 Q 225 200 228 199 L 226 195 Z M 256 254 L 255 257 L 256 257 L 256 254 Z M 255 286 L 256 288 Q 257 285 255 286 Z M 229 300 L 228 303 L 229 303 L 229 300 Z M 227 306 L 226 309 L 227 309 L 227 306 Z M 265 306 L 265 314 L 266 314 Q 267 308 265 306 Z M 223 309 L 222 312 L 223 312 L 223 309 Z M 216 311 L 213 315 L 211 313 L 210 313 L 207 312 L 197 325 L 198 326 L 201 324 L 202 328 L 200 329 L 197 327 L 193 335 L 201 340 Q 204 339 203 342 L 201 343 Q 196 344 195 342 L 194 344 L 209 347 L 210 350 L 217 355 L 216 357 L 218 363 L 216 370 Q 214 371 217 372 L 218 366 L 225 365 L 226 361 L 222 359 Q 221 355 225 354 L 226 355 L 237 355 L 236 358 Q 233 357 234 360 Q 237 361 233 363 Q 230 362 231 365 L 234 364 L 238 365 L 239 359 L 240 356 L 239 352 L 240 347 L 239 344 L 238 346 L 234 344 L 233 339 L 225 334 Q 226 331 223 332 L 214 319 L 216 314 L 216 311 Z M 271 313 L 264 323 L 257 329 L 254 333 L 258 330 Q 260 329 259 333 L 257 334 L 253 339 Q 255 338 254 341 L 249 345 L 251 348 L 249 349 Q 247 351 246 349 L 247 347 L 248 345 Q 245 346 246 344 Q 249 342 245 341 L 250 337 L 251 335 L 243 340 L 245 343 L 244 348 L 245 350 Q 246 356 243 359 Q 245 364 241 363 L 242 361 L 242 357 L 240 361 L 241 368 L 246 364 L 248 364 L 256 362 L 267 362 L 273 348 L 282 341 L 285 341 L 286 343 L 299 331 L 300 332 Q 301 329 299 330 L 293 323 L 284 315 Q 281 314 282 317 L 280 318 L 279 313 L 275 319 L 273 316 L 267 324 Q 264 325 265 323 L 268 321 L 271 315 L 271 313 Z M 236 322 L 235 326 L 237 325 L 236 322 Z M 242 322 L 241 326 L 242 326 L 242 322 Z M 226 330 L 231 336 L 232 336 L 226 330 Z M 253 333 L 251 335 L 253 335 L 253 333 Z M 233 336 L 234 338 L 235 338 L 233 336 Z M 239 336 L 238 338 Q 240 341 241 338 L 239 336 Z M 241 342 L 241 345 L 243 346 L 242 344 Q 243 341 241 342 Z M 242 348 L 242 356 L 243 356 Q 244 350 242 348 Z M 302 359 L 301 363 L 303 362 L 302 359 Z M 282 363 L 281 365 L 284 365 L 282 363 Z M 197 365 L 197 368 L 199 367 Q 200 364 197 365 Z M 252 365 Q 249 368 245 367 Q 244 372 247 374 L 253 372 Q 258 371 260 374 L 270 372 Q 271 375 273 371 L 271 369 L 268 371 L 265 370 Q 266 366 271 367 L 271 366 Q 266 365 265 367 L 263 367 L 263 365 L 254 365 L 252 365 Z M 187 366 L 186 369 L 187 369 L 187 366 Z M 278 371 L 276 374 L 278 373 L 278 371 Z M 187 374 L 186 378 L 187 378 L 187 374 Z M 243 382 L 241 385 L 243 385 L 243 382 Z M 190 388 Q 189 391 193 390 Q 194 387 190 388 Z M 218 389 L 217 393 L 218 393 L 218 389 Z M 231 389 L 229 395 L 229 397 L 228 397 Q 226 400 225 398 L 221 401 L 222 403 L 222 405 Q 217 403 218 407 Q 213 408 211 404 L 210 407 Q 206 408 204 405 L 204 407 L 203 410 L 197 406 L 189 407 L 187 407 L 182 407 L 181 409 L 180 409 L 179 411 L 181 410 L 186 412 L 187 415 L 187 413 L 193 414 L 202 419 L 206 423 Q 208 424 207 421 L 195 414 Q 193 410 197 411 L 200 410 L 200 412 L 211 419 Q 213 418 212 421 L 215 423 L 217 423 Q 218 420 216 421 L 214 419 Q 212 417 215 416 L 221 420 L 221 417 L 218 416 L 223 414 L 224 416 L 222 415 L 220 416 L 228 419 L 230 424 L 236 430 L 234 432 L 228 429 L 227 431 L 237 435 L 239 437 L 237 431 L 242 429 Q 244 428 243 431 L 241 431 L 245 437 L 244 441 L 249 442 L 249 440 L 254 439 L 254 438 L 248 440 Q 245 441 246 439 Q 247 435 251 436 L 252 433 L 250 432 L 252 431 Q 251 433 254 432 L 256 429 L 258 430 L 261 429 Q 264 427 260 425 L 259 427 Q 255 426 254 429 L 249 429 L 249 431 L 246 429 L 248 426 L 247 424 L 250 422 L 252 422 L 257 421 L 256 418 L 253 420 L 249 420 L 255 417 L 253 413 Q 254 410 251 411 L 251 409 L 253 409 L 246 405 L 242 401 L 241 401 Q 240 405 242 407 Q 243 411 240 412 L 237 401 L 241 400 L 237 394 L 237 391 L 231 389 Z M 292 392 L 292 396 L 294 395 Q 295 391 292 392 Z M 260 409 L 257 412 L 260 415 L 266 412 L 266 415 L 269 414 L 272 420 L 272 421 L 275 420 L 274 423 Q 275 425 273 424 L 273 425 L 278 423 L 278 428 L 276 428 Q 273 427 274 430 L 274 431 L 281 427 Q 287 428 290 425 L 287 423 Q 284 424 285 422 L 285 420 L 288 421 L 286 418 L 283 420 Q 280 421 281 419 Q 283 417 281 416 L 280 418 L 279 417 L 278 419 Q 274 420 276 415 L 273 417 L 272 413 L 268 412 L 269 410 L 268 410 Q 266 407 260 409 Z M 273 412 L 273 413 L 275 413 L 273 412 Z M 181 414 Q 179 416 182 418 L 181 420 L 183 419 L 187 422 L 187 421 L 185 417 L 189 420 L 189 419 L 184 415 Q 182 418 181 414 Z M 277 414 L 277 416 L 279 415 L 277 414 Z M 265 415 L 261 418 L 262 419 L 266 416 L 265 415 Z M 225 420 L 227 423 L 227 422 L 225 420 Z M 71 421 L 69 423 L 71 423 L 71 421 Z M 98 421 L 97 429 L 100 431 Q 99 433 102 432 L 105 431 L 104 429 Q 105 426 101 427 L 98 421 Z M 192 421 L 193 423 L 194 423 L 192 421 Z M 223 422 L 223 425 L 226 427 L 224 424 Q 225 421 223 422 Z M 298 422 L 295 424 Q 293 422 292 425 L 298 426 L 298 422 Z M 207 423 L 212 435 L 214 435 L 209 425 Q 210 422 207 423 Z M 216 423 L 215 425 L 217 426 L 216 423 Z M 72 424 L 71 426 L 73 427 L 72 424 Z M 197 424 L 198 426 L 199 426 L 197 424 Z M 69 425 Q 67 428 70 427 L 69 425 Z M 192 425 L 195 431 L 206 436 L 207 437 L 202 431 L 203 429 Q 202 426 200 429 L 202 433 L 198 429 Q 195 430 196 427 L 192 425 Z M 218 426 L 218 431 L 224 434 L 224 433 L 221 429 L 220 430 L 218 426 Z M 269 426 L 269 428 L 271 427 L 269 426 Z M 304 426 Q 302 429 305 428 L 304 426 Z M 230 427 L 234 431 L 234 430 L 230 427 Z M 291 427 L 289 430 L 292 429 Q 297 428 299 430 Q 301 431 300 428 L 291 427 Z M 69 428 Q 66 429 67 434 L 69 433 L 68 430 L 71 430 L 69 428 Z M 306 428 L 306 430 L 305 432 L 310 435 L 311 432 L 306 428 Z M 114 429 L 112 432 L 115 433 L 114 429 Z M 204 429 L 203 431 L 205 432 L 204 429 Z M 264 430 L 261 432 Q 263 435 265 431 L 264 430 Z M 281 430 L 280 431 Q 277 430 278 433 L 278 435 Q 277 438 280 437 L 281 433 L 281 430 Z M 91 431 L 88 433 L 91 433 Q 92 435 93 433 Q 94 430 91 431 Z M 189 431 L 189 435 L 193 437 L 193 436 L 190 434 L 189 431 Z M 268 432 Q 264 436 257 437 L 258 439 L 270 434 L 268 432 Z M 292 432 L 280 440 L 286 444 L 285 447 L 278 442 L 264 442 L 262 444 L 254 445 L 252 445 L 242 448 L 239 449 L 234 448 L 231 449 L 236 451 L 237 454 L 241 457 Q 240 459 243 458 L 245 458 Q 247 457 246 460 L 251 463 L 251 462 L 253 462 L 254 460 L 258 466 Q 257 468 260 467 L 261 464 L 264 465 L 267 464 L 269 465 L 270 464 L 273 467 L 276 466 L 278 466 L 290 465 L 292 465 L 301 465 Q 302 462 306 463 L 309 455 Q 310 444 307 438 Q 305 433 300 433 L 298 433 L 292 432 Z M 95 434 L 93 436 L 94 439 L 94 438 Q 98 436 95 434 Z M 225 434 L 230 440 L 232 439 L 236 441 L 237 441 L 225 434 Z M 83 436 Q 80 442 84 441 Q 85 437 83 436 Z M 100 436 L 99 441 L 101 440 L 100 436 Z M 70 440 L 69 441 L 66 442 L 66 450 L 64 450 L 62 453 L 68 450 Q 72 451 71 449 L 70 449 L 67 448 Q 66 445 69 446 L 69 444 L 73 445 Q 75 446 74 443 L 70 440 Z M 94 440 L 93 442 L 97 442 L 97 441 L 96 441 L 94 440 Z M 88 443 L 86 446 L 88 445 L 88 443 Z M 180 471 L 174 472 Q 173 475 177 474 L 177 476 L 188 476 L 189 475 Q 195 477 193 472 L 189 473 L 183 472 L 180 471 Z M 37 473 L 37 475 L 41 475 L 37 473 Z M 45 473 L 43 475 L 46 477 L 45 479 L 40 477 L 34 477 L 32 477 L 28 476 L 26 476 Q 22 475 23 478 L 29 481 L 39 481 L 41 481 L 49 480 Q 51 479 50 476 L 45 473 Z M 154 478 Q 153 481 156 480 L 155 483 L 161 484 L 161 485 L 158 484 Q 155 483 156 486 L 160 488 L 159 488 L 157 488 L 166 511 Q 168 515 174 513 L 174 522 L 173 522 L 174 524 L 176 523 L 175 517 L 179 515 L 183 503 Q 182 500 181 502 L 176 502 L 184 499 Q 185 495 182 496 L 180 496 Q 175 497 176 494 L 180 493 L 185 494 Q 189 492 186 490 L 178 491 L 175 491 L 176 488 L 187 488 L 188 486 L 185 484 L 179 486 L 177 485 Q 172 486 173 483 L 189 482 L 189 479 L 185 481 L 171 481 L 169 479 Q 163 481 162 478 L 159 479 L 154 478 Z M 49 482 L 34 485 L 30 485 L 28 486 L 18 484 L 10 484 L 9 483 L 8 485 L 16 487 L 22 487 L 25 488 Q 28 487 27 490 L 18 490 L 17 489 L 10 490 Q 16 493 26 492 Q 27 495 25 494 L 23 494 L 20 495 L 18 494 L 11 494 L 10 496 L 19 498 Q 25 496 24 500 L 16 500 L 15 499 L 12 501 L 14 502 L 25 504 L 24 506 L 20 505 L 14 506 Q 19 509 27 510 L 26 511 L 18 512 L 25 513 Q 28 515 25 516 L 23 515 L 20 517 L 22 518 L 33 518 L 34 519 L 42 501 L 44 493 L 49 484 L 49 482 Z M 9 488 L 7 490 L 9 490 L 9 488 Z M 8 499 L 7 504 L 7 506 L 8 511 L 10 510 L 11 513 L 7 515 L 8 518 L 8 520 L 7 525 L 9 528 L 7 533 L 8 535 L 7 537 L 7 543 Q 10 542 9 545 L 14 544 L 15 546 L 16 538 L 16 531 L 15 530 L 11 526 L 12 522 L 17 520 L 8 499 Z M 269 504 L 269 505 L 271 505 L 269 504 Z M 169 515 L 167 517 L 165 516 L 163 519 L 164 521 L 169 523 L 169 529 L 166 537 L 163 554 L 152 574 L 168 578 L 170 578 L 173 579 L 173 574 L 172 576 L 158 572 L 156 568 L 160 568 L 173 573 L 173 550 L 175 539 Q 177 530 174 527 L 172 525 L 169 521 L 170 516 L 169 515 Z M 179 515 L 181 523 L 183 520 Q 185 518 182 517 Q 183 514 179 515 Z M 281 517 L 280 520 L 283 520 L 284 519 L 281 517 Z M 20 520 L 19 523 Q 18 525 21 524 L 22 522 Q 23 519 20 520 Z M 29 520 L 30 521 Q 34 523 32 530 L 35 530 L 35 524 Q 33 520 29 520 Z M 26 522 L 26 528 L 27 528 L 26 522 Z M 20 526 L 21 531 L 27 533 L 29 532 L 30 534 Q 29 538 31 540 L 31 549 L 33 552 L 32 554 L 33 568 L 41 566 L 39 569 Q 38 571 41 570 L 41 572 L 38 573 Q 36 571 35 574 L 37 577 L 34 579 L 29 575 L 31 573 L 29 572 L 27 563 L 26 545 Q 25 542 24 544 L 19 543 Q 17 548 23 546 Q 26 548 23 549 L 19 548 L 18 551 L 23 552 L 22 555 L 18 553 L 16 555 L 12 571 L 10 573 L 28 576 L 29 579 L 11 575 L 10 578 L 12 579 L 32 583 Q 36 584 38 582 Q 40 583 39 580 L 48 575 L 48 573 L 45 574 L 42 577 L 40 577 L 39 574 L 46 572 L 41 556 L 37 548 L 34 538 L 34 532 Q 30 533 29 530 L 26 531 L 20 526 Z M 179 533 L 179 536 L 181 535 Q 182 532 179 533 Z M 23 534 L 22 535 Q 19 534 20 537 L 23 536 L 25 537 Q 27 533 23 534 Z M 179 538 L 179 540 L 181 539 L 179 538 Z M 20 539 L 20 541 L 25 541 L 20 539 Z M 183 541 L 182 542 L 178 542 L 178 547 L 183 546 L 183 541 Z M 14 546 L 10 549 Q 11 551 7 550 L 7 554 L 7 556 L 8 570 L 14 548 L 14 546 Z M 183 548 L 178 549 L 179 552 L 184 551 Q 185 547 183 548 Z M 185 553 L 178 554 L 179 559 L 187 557 L 186 556 Q 187 552 185 553 Z M 188 559 Q 186 562 181 561 Q 179 559 178 562 L 179 565 L 179 563 L 183 565 L 188 564 L 188 559 Z M 181 565 L 177 568 Q 176 572 178 574 L 177 578 L 178 580 L 192 578 L 193 576 Q 186 574 185 577 Q 179 579 181 574 L 194 572 L 192 568 L 191 571 L 185 571 L 184 572 Q 181 573 182 570 L 190 569 L 189 566 L 185 567 Q 183 569 182 567 Q 183 564 181 565 Z M 37 569 L 34 570 L 32 573 L 38 570 L 37 569 Z "></path><path d="M 88.5 15 L 90 18 L 86 19 L 88.5 15 Z "></path><path d="M 194 116 L 200 120.5 L 199.5 124 L 199 121 L 197 121.5 L 198 124 L 196 124.5 L 198.5 128 L 204.5 127 L 206 130.5 L 201.5 133 L 194 127.5 L 196 123.5 L 193 118.5 L 194 116 Z "></path><path d="M 201 120 Q 204 119 203 122 Q 200 123 201 120 Z "></path><path d="M 196.5 133 L 205 134 Q 205.8 137.8 202.5 139 L 195 135.5 L 196.5 133 Z "></path><path d="M 201.5 158 Q 204.1 157.2 203 160.5 L 200 162 L 201.5 158 Z "></path><path d="M 197.5 177 L 200 178.5 L 198.5 181 L 196 179.5 L 197.5 177 Z "></path><path d="M 198.5 189 L 201 190.5 L 198 194.5 L 200 195.5 Q 198.8 198.3 197.5 196 Q 195.3 196.8 196 194.5 L 198.5 189 Z "></path><path d="M 197 200 L 200 201.5 Q 200.8 203.8 198.5 203 L 197 200 Z "></path><path d="M 225 203 Q 227.7 201.9 227 204.5 Q 229.7 206.2 225.5 208 L 224 205.5 L 225 203 Z "></path><path d="M 195 207 Q 198.3 205.7 197 210.5 L 195 209.5 L 195 207 Z "></path><path d="M 196.5 217 L 199 220.5 Q 197.8 223.3 196.5 221 Q 193.9 221.8 195 218.5 L 196.5 217 Z "></path><path d="M 223 236 L 228 239.5 L 227 242 L 222 239.5 L 223 236 Z "></path><path d="M 64.5 239 Q 81.5 237.5 87 247.5 Q 85.9 250.8 88.5 250 L 91.5 251 L 93.5 250 Q 100.3 251.3 104 255.5 L 108 263.5 L 108 268.5 L 107 270.5 L 107 272.5 Q 110.8 275.7 109 284.5 L 105.5 289 L 103 290.5 L 107.5 297 Q 108.8 294.8 110 297.5 L 111 301 Q 114.4 300.3 115.5 303 L 119.5 303 L 125 299.5 Q 122.8 298.2 124 293.5 L 127 292 L 126 288.5 Q 128.5 287 125 285.5 L 116 263.5 L 116 260.5 L 111 250.5 L 113.5 247 L 123.5 244 L 139.5 244 L 141.5 245 L 143.5 244 L 159.5 247 L 163 249.5 L 162.5 252 L 161 251.5 L 162 253.5 L 155 271.5 L 150 279.5 L 146 292.5 Q 149.6 293.9 149 299.5 L 144.5 305 Q 141.2 303.9 142 306.5 Q 146.9 309.1 146 317.5 Q 143 318.5 144 323.5 L 147 340.5 Q 150.5 345 151 352.5 L 155 358 L 157 358 L 157 360 Q 159.7 358.9 159 361.5 L 162 365.5 L 154.5 369 L 152.5 369 L 122.5 376 L 111 360.5 L 118 349.5 L 125 322.5 L 121.5 320 L 105.5 316 L 102.5 313 L 94.5 313 L 92 310.5 Q 91.5 305.5 95.5 305 L 97.5 306 L 101 300.5 L 101 295.5 L 99 292 L 95.5 294 L 88.5 294 L 84 290.5 L 83 287.5 L 85.5 283 L 91 281 L 91 289 L 95.5 289 L 98.5 290 L 105 284.5 Q 102.8 283.3 104 278.5 L 100.5 273 Q 96.8 273.8 96 271.5 L 94.5 269 L 86.5 267 L 79.5 269 L 76 272.5 L 77 275.5 L 76 278.5 L 76.5 280 L 74 281.5 L 76 282 L 78 285.5 L 75.5 289 L 72 287.5 L 71 280.5 L 73 269 L 87.5 265 L 96.5 265 L 101 268.5 Q 99.5 273.8 104 272 Q 105.6 269.9 105 264.5 Q 102.4 257.1 96.5 253 L 92.5 252 L 89.5 253 L 84 251 Q 83.4 245.6 78.5 243 Q 74.1 239.9 65.5 241 L 53 249.5 L 50 259.5 L 51 264.5 L 39 271 L 36 280.5 L 37 283.5 L 37 288.5 L 43.5 299 L 49 301 Q 48.3 304.8 51.5 306 Q 58.2 307.2 60.5 304 L 62.5 305 Q 69 303.5 72 298.5 L 74 292 L 81.5 294 L 83.5 294 Q 89.3 293.3 90 297.5 Q 92.8 300.2 92 306.5 L 87.5 312 L 80.5 313 L 79 314.5 Q 79.8 316.8 77.5 316 L 74.5 319 L 64.5 322 L 59.5 321 L 57.5 322 L 54.5 319 L 47 316 Q 48.1 319.5 40.5 318 L 37 313 L 26.5 315 L 20.5 313 L 18 310.5 L 14 303.5 L 14 294.5 L 19.5 288 L 25.5 284 L 30.5 283 L 33 284 Q 32.1 277.5 36 274.5 L 33.5 273 L 29 275.5 L 31 279.5 L 28.5 281 L 25 280 Q 23.8 274.5 27.5 273 L 32 272 L 28 260.5 L 30 253 L 32 253 Q 30.9 250.3 33.5 251 Q 36.9 245.9 46.5 247 L 48 250 Q 50.7 251.1 50 248.5 Q 55.4 241.9 64.5 239 Z M 151 248 L 147 250 L 139 249 L 136 253 L 125 253 L 124 252 L 123 254 L 133 255 L 135 255 L 137 256 L 155 254 L 157 251 L 151 248 Z M 41 249 L 37 251 L 32 258 Q 31 267 36 271 Q 35 273 38 272 L 39 269 L 48 265 L 47 255 Q 49 253 47 252 Q 44 253 45 251 Q 44 248 41 249 Z M 119 255 L 119 261 L 126 275 L 125 277 L 130 286 Q 129 290 131 292 L 130 292 Q 127 293 128 297 Q 131 298 127 300 L 130 300 L 131 294 L 137 293 L 133 298 L 136 302 L 142 305 L 144 300 Q 143 297 146 298 L 142 294 L 142 290 L 145 286 L 145 282 L 147 277 L 153 267 L 153 263 L 147 263 L 146 264 Q 138 267 140 261 L 138 260 L 136 261 L 135 259 L 137 259 L 131 257 L 129 258 L 119 255 Z M 155 259 L 148 261 L 155 261 L 155 259 Z M 143 261 L 144 263 L 147 262 L 143 261 Z M 26 286 L 23 288 L 17 299 L 17 304 L 21 310 L 25 311 Q 35 313 40 309 L 42 307 L 43 301 L 37 296 L 34 288 L 32 289 Q 28 290 30 286 L 26 286 Z M 79 296 L 79 300 Q 73 307 61 308 L 59 308 L 50 307 L 48 305 L 46 304 L 47 307 Q 46 309 49 308 L 54 314 Q 57 313 56 316 L 59 316 Q 60 319 62 317 L 64 318 L 69 318 L 75 314 Q 72 311 73 307 Q 78 305 77 309 L 82 310 L 87 308 L 85 305 L 87 304 L 84 298 Q 83 295 79 296 Z M 105 302 L 103 310 L 108 313 L 124 318 L 128 317 L 134 319 Q 138 320 137 317 L 129 316 L 127 315 L 129 311 Q 138 309 142 315 L 142 314 L 136 308 Q 129 310 130 306 L 138 307 L 141 310 L 140 306 L 129 302 L 125 302 Q 122 305 117 305 Q 115 308 114 304 L 112 306 Q 110 303 105 304 L 105 302 Z M 41 310 L 45 315 L 45 313 L 41 310 Z M 131 313 L 131 314 Q 137 314 140 317 L 141 317 L 139 315 Q 137 311 136 314 L 131 313 Z M 130 320 L 128 322 L 128 330 L 124 344 L 116 359 L 121 365 Q 120 367 123 366 L 124 369 L 126 368 Q 127 365 125 366 L 118 360 L 120 358 L 122 359 L 123 356 L 128 359 L 129 357 L 124 354 L 125 352 L 129 354 L 129 345 L 129 343 Q 131 337 130 329 L 131 328 L 131 321 L 130 320 Z M 137 321 L 135 323 Q 133 330 138 328 L 138 330 L 134 331 L 134 349 L 139 348 L 144 349 L 137 350 L 134 351 L 135 353 L 139 352 Q 140 356 135 354 L 134 356 L 142 354 L 146 355 L 141 357 L 133 358 L 133 362 L 128 370 Q 125 369 126 372 L 141 368 L 145 368 L 149 366 Q 156 368 155 364 L 153 363 L 145 366 L 138 366 L 134 368 L 131 368 Q 134 364 142 365 L 145 363 L 151 363 L 150 361 Q 151 358 149 359 L 147 359 L 146 362 L 134 365 L 133 363 L 136 363 L 134 362 L 136 360 L 148 358 L 142 342 L 142 335 L 140 336 L 135 336 Q 136 333 141 334 L 140 325 L 136 325 L 140 323 Q 141 320 137 321 Z M 122 359 Q 121 362 124 361 Q 126 366 128 363 Q 127 358 122 359 Z M 137 361 L 137 363 L 139 362 L 137 361 Z "></path><path d="M 224.5 243 L 225 245.5 L 223 246.5 L 224.5 243 Z "></path><path d="M 196.5 255 L 198 257.5 L 196 258.5 L 196.5 255 Z "></path><path d="M 143.5 265 L 144 267 L 142 266.5 L 143.5 265 Z "></path><path d="M 145.5 265 Q 152.4 263 151 267 Q 146.1 267.8 145.5 265 Z "></path><path d="M 218.5 281 L 219 283 L 217 282.5 L 218.5 281 Z "></path><path d="M 240.5 282 L 243.5 283 L 247 282 L 246.5 284 L 238.5 284 L 238.5 283 L 240.5 282 Z "></path><path d="M 229.5 283 L 233 285.5 L 234 294.5 L 233 294.5 Q 233.1 288.9 229.5 287 Q 226.9 287.7 228 285 L 230 284.5 L 229.5 283 Z "></path><path d="M 240.5 285 L 246 286 Q 247.3 289 243.5 288 L 241.5 289 Q 237 287 240.5 285 Z "></path><path d="M 139.5 294 L 142 295.5 L 141 301 L 137 301 L 137 295 L 139.5 294 Z "></path><path d="M 250.5 301 L 251 304 L 241.5 310 L 239.5 310 Q 234.8 310.8 234 307.5 L 236.5 307 L 240.5 308 L 247 306 L 250.5 301 Z "></path><path d="M 253.5 305 L 256 305.5 L 255 307.5 L 256 310.5 Q 254 315 252 311.5 L 251 307.5 L 253.5 305 Z "></path><path d="M 197.5 331 L 205 334 L 203.5 337 L 200.5 338 L 195 334.5 L 197.5 331 Z "></path><path d="M 137.5 342 L 140 342.5 L 137.5 343 L 137.5 342 Z "></path><path d="M 125 348 L 128 349.5 L 125 350 L 125 348 Z "></path><path d="M 231.5 348 L 234.5 349 Q 237.5 348.2 236 352 L 229 353 L 231.5 348 Z "></path><path d="M 247 351 Q 251.1 349.3 250 353.5 L 246 355 L 247 351 Z "></path><path d="M 246 357 L 255 357 L 255 360 L 246.5 362 L 245 359.5 L 246 357 Z "></path><path d="M 180 391 L 183 392.5 Q 182.4 397.1 185 398.5 L 182 399.5 Q 182.8 401.8 180.5 401 L 179 400.5 Q 180 404.3 177 403 L 175.5 399 L 168.5 403 L 166.5 403 Q 163.5 406 157.5 406 L 150 410.5 L 151 417.5 Q 149 421 147 416.5 L 146 412 L 148 411.5 L 144.5 411 L 142 416 L 138 417 L 137 421.5 L 138 424 Q 135.3 422.9 136 425.5 L 137.5 425 L 140.5 426 L 143.5 424 Q 146.3 425.3 144 426.5 L 142.5 429 L 138.5 431 L 134 428 L 135 430.5 L 131.5 433 Q 129 432 130 427.5 L 133.5 423 Q 135.8 423.8 135 421.5 L 135 419.5 L 134 415.5 L 137 414 L 137.5 416 L 141.5 409 Q 144.1 409.7 143 407 L 145.5 407 L 147.5 407 L 150.5 404 L 153.5 406 L 154 403 L 159 402 L 159.5 404 L 161.5 400 L 163 400.5 L 163.5 399 L 166.5 401 L 167 397 L 178.5 392 L 180 392.5 L 180 391 Z M 176 411 L 174 414 L 176 413 L 176 411 Z M 167 418 L 168 420 Q 169 417 167 418 Z M 164 420 L 162 422 L 164 422 L 164 420 Z M 161 423 L 158 427 L 160 429 L 161 426 L 163 426 L 161 425 L 161 423 Z "></path><path d="M 187.5 395 L 191 400.5 L 188.5 402 Q 184.3 400.2 187 398.5 L 186 396.5 L 187.5 395 Z "></path><path d="M 303.5 404 L 306 405.5 L 302 407 L 303.5 404 Z "></path><path d="M 164.5 407 Q 168 409 163.5 411 L 161 409.5 L 164.5 407 Z "></path><path d="M 317.5 407 L 320 408.5 L 318.5 411 Q 314.5 411.5 314 408.5 L 317.5 407 Z "></path><path d="M 189.5 408 L 190.5 410 L 189.5 408 Z "></path><path d="M 302.5 408 Q 304 411.5 305.5 409 Q 308.5 408.2 307 412 L 303.5 411 L 300 413 Q 299.3 409.2 302.5 408 Z "></path><path d="M 154.5 409 L 157.5 411 L 159.5 410 L 159 411.5 L 158 416 L 152 412.5 L 154.5 409 Z "></path><path d="M 294.5 410 L 297 411.5 L 294.5 413 Q 291.5 411.5 294.5 410 Z "></path><path d="M 192.5 411 L 193.5 413 L 192.5 411 Z "></path><path d="M 323.5 415 Q 326.8 413.9 326 416.5 L 322 418 L 323.5 415 Z "></path><path d="M 145.5 417 Q 147.8 417.8 147 421.5 L 144.5 423 L 142 419.5 L 145.5 417 Z "></path><path d="M 239.5 417 L 241 417.5 L 241 424.5 L 240 427 L 237.5 428 Q 235.3 427.3 236 423.5 L 237 421.5 L 236 419.5 L 239.5 417 Z "></path><path d="M 327.5 419 Q 329.8 418.3 329 420.5 L 331.5 422 L 333 421.5 L 331.5 425 L 325 424 L 324 421.5 L 327.5 419 Z "></path><path d="M 309 421 Q 312.8 420 314 422.5 L 309 423 L 309 421 Z "></path><path d="M 79.5 422 Q 82.5 423.5 79.5 425 Q 77.3 425.8 78 423.5 L 79.5 422 Z "></path><path d="M 318.5 422 Q 322.7 420.9 321 425 L 317 425 L 317 423.5 L 318.5 422 Z "></path><path d="M 127.5 424 L 128.5 426 L 127.5 424 Z "></path><path d="M 149.5 425 Q 152.8 423.9 152 426.5 L 151 429 Q 146.9 430.7 148 426.5 L 149.5 425 Z "></path><path d="M 331 432 L 333 432.5 L 331 433.5 L 331 432 Z "></path><path d="M 246.5 433 L 247.5 435 L 245 434.5 L 246.5 433 Z "></path><path d="M 132.5 435 L 134 437.5 L 131.5 441 Q 129.7 438.3 128 442.5 L 126.5 445 L 124 443.5 L 126 440.5 L 125 437 L 129 436 L 129.5 438 L 132.5 435 Z "></path><path d="M 138.5 435 Q 141.1 434.2 140 437.5 L 136 440 Q 135.3 436.2 138.5 435 Z "></path><path d="M 321 438 Q 326.2 436.3 325 440 Q 319.8 441.7 321 438 Z "></path><path d="M 137.5 441 Q 139.8 440.3 139 442.5 L 136.5 444 L 135.5 442 L 137.5 441 Z "></path><path d="M 146.5 441 L 148 444 L 144.5 446 L 144 442 L 146.5 441 Z "></path><path d="M 114 442 Q 118.1 440.3 117 444.5 L 113 446 L 114 442 Z "></path><path d="M 325.5 444 L 327 448 L 324.5 449 L 323 445 L 325.5 444 Z "></path><path d="M 331.5 446 L 333 448.5 Q 331.8 451 328 450 L 329.5 447 L 331.5 446 Z "></path><path d="M 103.5 447 Q 107.7 445.9 106 450 L 102 450 L 102 448.5 L 103.5 447 Z "></path><path d="M 136.5 449 Q 140.7 447.7 139 452.5 L 136.5 454 L 134 450.5 L 136.5 449 Z "></path><path d="M 97.5 450 Q 100.5 449.1 99 453.5 L 95 455 L 95 451 L 96.5 451 L 97.5 450 Z "></path><path d="M 131.5 450 Q 134.8 451.2 134 455 L 130 455 L 130 453.5 L 129 451 L 131.5 450 Z "></path><path d="M 145.5 451 L 147 454 L 144.5 453 L 143 453.5 Q 142.3 451.3 144.5 452 L 145.5 451 Z "></path><path d="M 155 451 Q 158.7 449.8 157 455 Q 153.3 456.2 155 451 Z "></path><path d="M 89 452 Q 94.6 450.1 93 455 Q 90.3 453.9 91 456.5 L 90 456.5 L 89.5 455 L 85.5 458 L 84 454 L 86.5 453 L 89 454.5 L 89 452 Z "></path><path d="M 318 452 L 320 452.5 L 318 453.5 L 318 452 Z "></path><path d="M 24 453 L 32.5 454 L 34 453.5 Q 35.1 456.8 32.5 456 L 30.5 457 L 24 455 L 24 453 Z "></path><path d="M 152.5 453 Q 154.8 453.8 154 457.5 L 152 456.5 L 151 454.5 L 152.5 453 Z "></path><path d="M 72.5 454 L 74.5 455 L 77 454 Q 78.3 458.6 75.5 460 L 73.5 459 L 73 461 Q 68.4 462.3 67 459.5 L 70.5 458 L 73 459 L 72.5 454 Z "></path><path d="M 113 454 L 117 455.5 L 113 458 L 113 454 Z "></path><path d="M 122.5 454 L 125 455.5 L 121.5 458 L 121 455.5 L 122.5 454 Z "></path><path d="M 107 455 L 111 455 L 111 456.5 Q 113.3 457.7 110.5 459 L 107 457.5 L 107 455 Z "></path><path d="M 148 455 L 151 456.5 L 150.5 462 L 148 461 L 147 457.5 L 148 455 Z "></path><path d="M 81.5 456 L 82 459 Q 79.3 457.9 80 460.5 L 79.5 463 L 76 464 Q 75 461 78 462 L 78 457.5 Q 79.8 459.1 81.5 456 Z "></path><path d="M 50 457 L 54 457 L 54 458.5 Q 52 463 50 459.5 L 50 457 Z "></path><path d="M 21.5 458 L 23 460.5 L 22 462.5 Q 24.3 463.7 21.5 465 L 18 463.5 L 21.5 458 Z "></path><path d="M 44.5 458 Q 46.8 457.3 46 459.5 L 39.5 462 L 39 460.5 L 44.5 458 Z "></path><path d="M 27.5 459 L 29 461.5 L 28 464 L 24 461.5 L 27.5 459 Z "></path><path d="M 33.5 459 Q 35.8 458.3 35 460.5 Q 33 465 31 461.5 Q 30.3 459.3 32.5 460 L 33.5 459 Z "></path><path d="M 62.5 459 L 64 460.5 L 65 468 L 61 469 L 60 462 Q 63.1 463.1 62.5 459 Z "></path><path d="M 83.5 459 L 86 459.5 L 82.5 461 L 83.5 459 Z "></path><path d="M 93 459 Q 98.2 457.3 97 461 Q 91.8 462.7 93 459 Z "></path><path d="M 156 459 L 159 460.5 L 157.5 463 L 156 459 Z "></path><path d="M 134 460 Q 139.6 458.1 138 463 L 136 463.5 L 137 465.5 L 134 463.5 L 134 460 Z "></path><path d="M 317 460 Q 320.8 459 322 461.5 Q 324.6 464.4 324 470.5 L 321 472 L 317 460 Z "></path><path d="M 10.5 461 L 12 464.5 L 9.5 466 L 8 462 L 10.5 461 Z "></path><path d="M 120 461 L 123 461.5 L 120 463 L 120 461 Z "></path><path d="M 144.5 461 Q 146.8 460.3 146 462.5 L 147 467 Q 144.3 468.1 145 465.5 L 143 462.5 L 144.5 461 Z "></path><path d="M 46.5 462 L 49 463.5 L 47.5 466 L 45 464.5 L 46.5 462 Z "></path><path d="M 99.5 463 L 101 466 L 96 465.5 L 99.5 463 Z "></path><path d="M 105.5 463 L 108 463.5 L 104 466 L 105.5 463 Z "></path><path d="M 57.5 464 Q 59.8 463.3 59 465.5 L 60 468 L 58 468.5 L 58.5 470 L 54.5 471 L 53 468.5 L 55.5 465 L 57.5 464 Z "></path><path d="M 13 465 Q 16 464 15 467 Q 12 468 13 465 Z "></path><path d="M 70.5 465 Q 73.1 464.3 72 467 L 68 468 Q 66.9 465.3 69.5 466 L 70.5 465 Z "></path><path d="M 127.5 465 Q 130.5 464.2 129 468 L 125 469 Q 123.5 465.2 126.5 466 L 127.5 465 Z "></path><path d="M 310 467 L 317 468 Q 318.7 472.1 314.5 471 L 310 469 L 310 467 Z "></path><path d="M 97.5 468 L 101.5 469 Q 102.8 466.8 107.5 468 L 119 471 L 120 476.5 L 118.5 479 Q 117.3 476.7 116 479.5 L 117 481.5 L 106 515.5 Q 108.6 516.9 108 521.5 L 106 526 Q 103.3 524.9 104 527.5 L 111 551.5 L 110 554 Q 113.8 552.5 113 555.5 L 120.5 569 L 121.5 568 Q 123.2 571.1 125 569.5 L 124 571.5 L 125 575 L 95.5 587 L 92.5 584 L 90.5 584 L 79.5 579 L 73.5 578 L 71 575.5 L 75 568.5 L 75 565.5 L 81 551.5 L 83 544.5 L 84 533.5 L 86.5 528 L 90 527.5 L 89 525.5 L 90 523.5 L 88 524.5 L 87.5 527 L 85.5 527 Q 81.5 527.5 81 524.5 Q 78.4 523.1 79 518.5 Q 82.5 518 82 513.5 L 79 511.5 Q 79.8 515.3 77.5 516 Q 73.8 517.3 75 513.5 L 73 512.5 Q 75.1 518.4 70.5 517 L 69 515.5 L 68 509.5 L 71.5 507 L 73.5 510 L 76.5 509 L 79 510.5 L 72 495.5 L 68 481.5 L 64 474 L 67.5 472 L 80.5 469 L 82.5 469 L 85.5 470 L 86.5 469 L 96.5 469 L 97.5 468 Z M 110 471 L 109 472 L 102 472 L 92 474 L 94 477 L 96 476 L 99 477 L 113 476 L 114 475 Q 116 476 115 473 L 110 471 Z M 111 478 L 100 480 L 78 480 Q 76 478 75 481 L 84 481 L 85 482 L 94 481 L 95 484 L 93 485 L 81 484 Q 79 481 78 485 L 76 483 L 73 484 Q 75 487 82 486 L 86 488 L 87 487 Q 92 485 94 489 L 94 490 L 83 490 L 81 490 L 79 489 L 76 490 Q 74 494 79 493 L 82 492 Q 83 495 89 493 L 91 496 L 90 496 L 88 496 L 79 496 L 78 499 L 81 500 L 83 499 L 87 500 L 89 500 L 92 503 L 92 504 L 85 504 L 82 503 L 81 505 L 83 506 L 91 507 L 92 510 L 86 510 L 85 509 L 84 512 Q 85 514 89 513 L 91 516 L 96 515 L 99 516 L 102 515 L 104 506 L 108 499 L 113 481 Q 114 477 111 478 Z M 95 518 L 94 525 L 96 525 L 97 523 Q 97 519 95 518 Z M 102 518 L 100 522 L 102 525 L 103 522 L 102 518 Z M 87 519 L 85 521 L 87 523 L 89 522 Q 90 518 87 519 Z M 92 527 L 92 530 L 95 529 L 96 535 L 95 539 L 99 537 L 102 537 L 100 528 L 99 528 L 92 527 Z M 90 531 L 88 533 L 92 534 L 91 533 Q 92 530 90 531 Z M 89 536 L 84 556 L 89 559 Q 90 561 87 560 L 84 556 L 82 560 L 87 562 L 88 565 L 86 564 Q 82 565 83 562 Q 80 561 81 565 L 86 567 Q 90 566 88 570 L 79 567 L 77 574 L 90 579 L 93 582 L 94 581 L 98 582 L 108 577 Q 112 578 111 575 Q 105 574 103 578 L 100 577 L 98 573 L 114 571 L 116 575 L 117 573 L 111 561 L 108 564 L 104 565 Q 97 566 98 564 L 102 561 Q 107 562 110 560 L 106 551 L 104 553 L 94 553 L 95 563 L 93 564 L 95 566 L 96 571 Q 93 572 95 579 L 94 580 L 90 578 L 91 572 L 91 570 L 90 565 L 90 547 L 91 546 L 91 537 L 89 536 Z M 103 539 L 95 541 L 96 545 Q 97 541 103 543 L 103 539 Z M 103 544 L 99 547 L 95 546 L 95 548 L 94 552 L 100 549 L 105 549 L 104 546 Q 105 543 103 544 Z "></path><path d="M 139.5 470 Q 142.5 471.5 139.5 473 Q 137.3 473.8 138 471.5 L 139.5 470 Z "></path><path d="M 304.5 470 Q 308.9 468.5 308 471.5 L 305.5 475 L 303 473.5 L 304.5 470 Z "></path><path d="M 135.5 471 L 136 474.5 Q 134.3 472.9 132.5 476 L 131 474.5 Q 130 470.8 133 472 L 133.5 474 L 135.5 471 Z "></path><path d="M 298.5 472 Q 302.3 470.8 301 474.5 L 298 476 L 297 473.5 L 298.5 472 Z "></path><path d="M 280 474 L 283 475.5 Q 284.1 479.7 280 478 L 280 474 Z "></path><path d="M 125 475 Q 129.1 473.7 128 477 Q 123.9 478.3 125 475 Z "></path><path d="M 310.5 475 Q 314.3 473.8 313 477.5 L 309 480.5 L 308 485.5 L 309 492 L 305 489.5 L 304 484.5 L 305 480.5 L 308.5 476 L 310.5 475 Z "></path><path d="M 204 476 Q 208.3 475 209.5 478 L 213 477 L 213 482 L 210.5 482 Q 208.8 485.8 207 482.5 L 204 476 Z "></path><path d="M 145.5 477 L 146 480 L 143 478.5 L 145.5 477 Z "></path><path d="M 302.5 477 L 303 486 Q 299.3 487.5 300 484.5 L 299 484.5 L 298 490 L 295 488.5 Q 296 483 292.5 482 L 292 483.5 L 294 488.5 Q 292 492 290 487.5 L 288 482.5 Q 289.2 479.8 290.5 482 Q 293.1 482.7 292 480 Q 289 481 290 478 L 293.5 478 L 297 480 L 298.5 484 L 300 478 L 302.5 477 Z "></path><path d="M 60.5 479 Q 63.8 477.9 63 480.5 L 64 482.5 L 60 484 L 59.5 482 L 58.5 485 L 57 482 Q 59.7 483.1 59 480.5 L 60.5 479 Z "></path><path d="M 216 479 Q 220.5 477.5 219 482 Q 214.5 483.5 216 479 Z "></path><path d="M 322.5 479 Q 325.8 477.9 325 480.5 L 326.5 483 L 324.5 484 L 321 480.5 L 322.5 479 Z "></path><path d="M 125.5 480 Q 127.8 480.8 127 484.5 L 124 482.5 L 125.5 480 Z "></path><path d="M 160.5 480 L 163 481.5 L 160 482 L 160.5 480 Z "></path><path d="M 202 480 L 206 481.5 L 204.5 485 Q 201.3 483.8 202 480 Z "></path><path d="M 329.5 480 Q 332.1 479.2 331 482.5 L 328 484 L 329.5 480 Z "></path><path d="M 137.5 481 Q 140.3 482.4 139 487 Q 136 488.3 137 484.5 L 136 484.5 L 135.5 486 L 135 484 Q 132 485 133 482 L 136.5 483 L 137.5 481 Z "></path><path d="M 311.5 482 L 315 483.5 Q 316 488 313.5 489 L 311 487.5 L 310 483.5 L 311.5 482 Z "></path><path d="M 147.5 483 Q 150.5 482.1 149 486.5 L 147 487.5 L 146 484.5 L 147.5 483 Z "></path><path d="M 119.5 484 L 120 485.5 L 118.5 488 Q 115 486 119.5 484 Z "></path><path d="M 131 485 L 134 486.5 L 131 488 L 131 485 Z "></path><path d="M 221 486 L 225 487.5 L 223.5 491 L 221 489.5 L 221 486 Z "></path><path d="M 227 486 Q 232.6 484.1 231 489 L 227 487.5 L 227 486 Z "></path><path d="M 144 487 Q 147 486 146 489 Q 143 490 144 487 Z "></path><path d="M 239.5 487 L 242 492 Q 238.2 492.8 237 489.5 Q 236.3 487.3 238.5 488 L 239.5 487 Z "></path><path d="M 245.5 487 L 247 489.5 L 246 492 Q 241.1 493.6 243 488 L 245.5 487 Z "></path><path d="M 140.5 492 L 145.5 493 Q 146.8 490.8 148 493.5 L 145.5 497 L 143.5 497 Q 139.8 497.8 139 495.5 L 140.5 492 Z "></path><path d="M 205.5 492 Q 208.3 491.4 207 497.5 L 208 501 L 204 499.5 Q 205.3 495.8 201.5 497 L 198.5 500 L 197.5 499 L 196 499 L 196 494 L 202 493 L 202.5 496 L 205.5 492 Z "></path><path d="M 55.5 493 L 59.5 494 L 63 493 L 64 498.5 L 63 501 L 60.5 502 L 60 499 L 52.5 502 Q 49.5 500.4 51 495 Q 54.4 495.8 55.5 493 Z "></path><path d="M 288.5 493 Q 291.1 492.2 290 495.5 Q 288.5 498.5 287 495.5 L 288.5 493 Z "></path><path d="M 123.5 494 Q 126.5 495.5 125 501.5 Q 123.7 504.2 122.5 502 L 119.5 501 L 117.5 501 Q 114.5 501.7 116 498 L 118.5 497 L 120 497.5 L 120.5 496 L 122 496.5 L 123.5 494 Z "></path><path d="M 211.5 494 Q 216.1 492.6 214 498.5 L 212.5 498 Q 208.8 499.3 210 495.5 L 211.5 494 Z "></path><path d="M 130.5 495 L 131 498.5 L 127.5 503 Q 124.5 503.9 126 499.5 L 128.5 496 L 130.5 495 Z "></path><path d="M 232.5 495 Q 236.7 493.7 235 498.5 L 234 500.5 L 237 505 Q 232.9 506.7 234 502.5 L 231.5 502 L 229.5 504 L 226 501.5 Q 226.8 499.3 224.5 500 L 223 497 L 225.5 496 L 231 500.5 Q 230 496 232.5 495 Z "></path><path d="M 302.5 495 L 305 496.5 L 305 503.5 L 302.5 504 Q 301 501.5 299.5 505 Q 297.3 505.8 298 503.5 L 297 501 L 294 499.5 Q 292.8 495.8 296.5 497 L 300.5 500 L 302.5 495 Z "></path><path d="M 148 496 L 151 497.5 L 148 499 L 148 496 Z "></path><path d="M 66.5 497 L 71 498.5 L 65 501 L 66.5 497 Z "></path><path d="M 239.5 497 Q 243.7 495.9 242 500 L 238 500 L 238 498.5 L 239.5 497 Z "></path><path d="M 134.5 498 L 138 498.5 Q 136.7 502.8 132 502 L 134.5 498 Z "></path><path d="M 321.5 498 L 324 499.5 L 325.5 503 L 326 500 Q 331.2 497.9 330 502.5 L 327.5 506 Q 326 502.5 324.5 505 L 321 502.5 L 320 499.5 L 321.5 498 Z "></path><path d="M 191 499 Q 196.2 496.9 195 501.5 L 192.5 502 L 191 500.5 L 191 499 Z "></path><path d="M 309.5 500 Q 313.9 498.5 313 501.5 L 310.5 505 L 308 503.5 L 309.5 500 Z "></path><path d="M 292.5 502 L 295 503.5 L 293.5 507 L 291 505.5 L 292.5 502 Z "></path><path d="M 248.5 503 Q 253.1 501.8 251 507 Q 247.2 508.5 248 505.5 Q 245.7 504.2 248.5 503 Z "></path><path d="M 215.5 504 L 218 505.5 L 219 509.5 L 216.5 511 L 214 505.5 L 215.5 504 Z "></path><path d="M 243 504 Q 247.1 502.3 246 506.5 Q 248.3 507.7 245.5 509 L 243 507.5 L 243 504 Z "></path><path d="M 195.5 505 L 199 512 L 195 510.5 L 193 506 L 195.5 505 Z "></path><path d="M 200 505 L 203 505 L 203 510 L 200 508.5 L 200 505 Z "></path><path d="M 141.5 506 L 144 506 L 144 512 L 140 513 L 139.5 510 L 137.5 513 L 134 511.5 Q 132.5 507.1 135.5 508 L 138.5 507 Q 140 509.5 141.5 506 Z "></path><path d="M 147.5 506 Q 150.5 505.1 149 509.5 L 145.5 512 L 145 508.5 L 147.5 506 Z "></path><path d="M 208.5 506 L 212 506.5 L 212 508.5 L 213 510.5 L 211.5 512 L 207 507.5 L 208.5 506 Z "></path><path d="M 125.5 507 Q 130.5 506.5 131 510.5 L 133 514.5 L 128 516 Q 128.8 511.3 124.5 510 Q 121.9 510.7 123 508 L 125.5 507 Z "></path><path d="M 175.5 507 L 178.5 508 L 180 507.5 L 178.5 510 L 176.5 509 L 174.5 510 L 173.5 508 L 175.5 507 Z "></path><path d="M 223 507 Q 227.5 505.5 226 510 Q 221.5 511.5 223 507 Z "></path><path d="M 53.5 508 Q 58.3 506.3 57 510.5 L 57 512.5 Q 58.5 516.9 55.5 516 L 53 517 Q 54.1 514.3 51.5 515 Q 50.3 518 46 517 L 43 511.5 L 44.5 510 L 53.5 508 Z "></path><path d="M 152.5 509 Q 155.1 508.3 154 511 L 151.5 512 L 150.5 510 L 152.5 509 Z "></path><path d="M 260.5 509 Q 263.8 507.9 263 510.5 L 265 520.5 L 262 519.5 L 261.5 521 L 259 515.5 L 259 510.5 L 260.5 509 Z "></path><path d="M 64.5 510 L 67 511.5 L 67 514 Q 64.3 512.9 65 515.5 L 62.5 517 L 60 516 L 60.5 513 L 62 513.5 Q 60.9 510.2 63.5 511 L 64.5 510 Z "></path><path d="M 190 510 L 194 511.5 L 190 513 L 190 510 Z "></path><path d="M 117.5 511 L 120.5 512 L 122.5 512 L 126 513 Q 127.5 516.8 124.5 516 L 120.5 514 Q 113.6 516 115 512 L 117.5 511 Z "></path><path d="M 236 511 Q 240.5 509.5 239 514 Q 234.5 515.5 236 511 Z "></path><path d="M 248.5 511 L 252.5 517 L 253 514.5 L 252 512.5 Q 253.5 509.5 255 512.5 L 257 519 L 251.5 520 L 246 512 L 248.5 511 Z "></path><path d="M 315.5 515 Q 320.1 513.6 318 519.5 L 319 524 L 315 521.5 L 314 516.5 L 315.5 515 Z "></path><path d="M 308 516 L 312 516 L 312 517.5 L 315 525.5 Q 313 529 311 524.5 L 308 516 Z "></path><path d="M 323.5 516 L 327 517.5 L 322 519 L 323.5 516 Z "></path><path d="M 229 517 Q 234.3 515.2 232 522.5 L 234 521.5 Q 233.3 517.8 235.5 517 L 238 518.5 L 235 524.5 L 235.5 526 L 233.5 527 L 231.5 525 L 229 525.5 Q 229.8 528.1 226.5 527 Q 223.3 524.3 224 519 Q 227.8 517.5 227 520.5 L 228.5 525 L 229 517 Z "></path><path d="M 303.5 518 L 306 519.5 L 303.5 523 L 302 519.5 L 303.5 518 Z "></path><path d="M 150.5 519 L 152.5 519 L 154 519.5 Q 151 520.8 152 525 L 154 525 Q 152.9 522.3 155.5 523 L 157 526 L 153.5 527 L 151.5 526 L 148 527 L 147.5 523 L 147 528 L 143 528 L 143 526.5 L 141.5 527 Q 136.5 527.5 136 523.5 L 137.5 521 L 139.5 520 Q 142.5 526 145.5 520 L 148.5 521 L 150.5 519 Z "></path><path d="M 201 519 Q 205.5 517.3 204 522.5 L 203 525 Q 206 524 205 527 L 201.5 528 Q 199 527 200 522.5 L 201 519 Z "></path><path d="M 111.5 520 L 115.5 522 L 119.5 520 Q 121 523.5 122.5 521 L 125.5 520 L 126 522.5 L 123.5 526 L 121.5 525 L 118 526 Q 119.1 529.3 115 528 L 114.5 526 Q 113.3 529 109 528 L 111 523.5 L 110 521.5 L 111.5 520 Z "></path><path d="M 194 520 L 198 521.5 L 199 527 L 195 525.5 L 194 520 Z "></path><path d="M 208.5 520 Q 212.3 518.8 211 522.5 L 210 524.5 L 212 527.5 L 208.5 529 L 206 523.5 L 208.5 520 Z "></path><path d="M 218.5 520 Q 221.1 519.3 220 522 L 217.5 523 L 217 521.5 L 218.5 520 Z "></path><path d="M 131.5 521 L 133 521.5 L 132 524 L 128 525 L 129.5 522 L 131.5 521 Z "></path><path d="M 62.5 522 L 65 523.5 Q 63.1 528.9 66.5 528 L 68.5 529 L 67.5 527 Q 65.3 527.8 66 525.5 L 68.5 523 L 72.5 522 Q 75 523 74 527.5 Q 70.7 529 72 534 L 69.5 535 L 66.5 532 L 65.5 533 L 63.5 534 Q 58.8 532.2 59.5 525 Q 59.7 529.7 56.5 531 Q 54.3 531.8 55 529.5 L 52.5 526 L 52 529 L 49.5 530 L 47 525.5 L 51.5 523 L 53.5 526 L 56.5 524 L 59 525 Q 57.8 522 61.5 523 L 62.5 522 Z "></path><path d="M 241.5 522 Q 245.7 520.9 244 525 L 241.5 526 L 240 523.5 L 241.5 522 Z "></path><path d="M 325.5 524 Q 329.9 522.5 329 525.5 L 325.5 529 L 324 527.5 L 325.5 524 Z "></path><path d="M 43 526 Q 46 524.8 45 528.5 L 43 528.5 L 42.5 530 L 42 528.5 L 43 526 Z "></path><path d="M 259.5 527 Q 262.3 528.3 261 533.5 L 258 535.5 L 257.5 534 L 254.5 536 Q 250.4 533.3 251 528 Q 256.2 525.9 255 530.5 L 256.5 533 L 257 528 L 259.5 527 Z "></path><path d="M 78.5 529 Q 84.2 527.4 82 533 L 78 533 L 78 534.5 L 76 533.5 Q 74.5 529.1 77.5 530 L 78.5 529 Z "></path><path d="M 283 529 Q 288.2 526.9 287 531.5 L 287 533.5 L 288 535.5 L 285.5 537 L 282 532.5 L 283 529 Z "></path><path d="M 10.5 530 Q 13.8 528.9 13 531.5 L 9 533 L 10.5 530 Z "></path><path d="M 146.5 530 L 147 531.5 L 146 537 L 150 536 Q 151.6 540.9 146 539 L 145.5 537 Q 144 540.5 142.5 538 Q 139.5 538.9 141 534.5 L 146.5 530 Z "></path><path d="M 276 530 L 280 530 L 280 531.5 L 281 536 L 277 534.5 L 276 530 Z "></path><path d="M 292.5 530 L 295 531.5 Q 295.8 535.3 293.5 536 Q 288.9 537.4 291 531.5 L 292.5 530 Z M 292 531 Q 291 534 294 533 Q 295 530 292 531 Z "></path><path d="M 132.5 532 Q 134.8 531.3 134 533.5 L 136.5 532 Q 141.8 530.3 140 535.5 L 134.5 538 L 132.5 538 L 130 536.5 L 129 534.5 L 132.5 532 Z "></path><path d="M 248.5 532 L 251 533.5 L 252 535.5 L 249.5 537 L 247 533.5 L 248.5 532 Z "></path><path d="M 267.5 532 L 267 533.5 Q 267.7 536.1 265 535 Q 263.9 532.3 266.5 533 L 267.5 532 Z "></path><path d="M 43.5 533 Q 47.7 531.7 46 536.5 L 45 540 Q 39 542.3 41 535.5 L 43.5 533 Z "></path><path d="M 114.5 533 Q 116.8 532.3 116 534.5 L 118.5 533 Q 123.3 531.3 122 535.5 L 118 537 L 117.5 535 L 116 541 L 111 542 L 111 540 Q 113.7 541.1 113 538.5 L 111 534 L 114.5 533 Z "></path><path d="M 58.5 535 L 59 537 L 62.5 536 L 64.5 541 L 69 539 L 66.5 543 Q 60.5 544.5 59 541.5 L 58.5 538 L 55 539 Q 53.3 534.9 57.5 536 L 58.5 535 Z "></path><path d="M 213 535 Q 218.2 532.9 217 537.5 L 216 539.5 L 219.5 537 L 223 536 L 223 539 Q 220.3 537.9 221 540.5 L 218.5 546 L 215.5 545 L 211.5 547 L 209 541 L 205 539.5 Q 203.7 535.3 208.5 537 L 213 540 L 213 535 Z "></path><path d="M 307.5 535 L 312.5 536 L 314.5 535 L 318 540.5 L 311.5 543 L 306 542 Q 304.3 546.1 308.5 545 L 309.5 546 L 317 546 L 316 550 L 319.5 549 L 323 550.5 L 322.5 552 L 311.5 552 L 309.5 552 Q 305.8 550.8 307 554.5 L 308.5 554 L 318 555 L 318 557 L 307.5 557 L 307 559 L 323.5 559 L 330 561 L 328.5 565 L 325.5 567 Q 320.8 565.8 319.5 568 L 316.5 567 L 308.5 567 L 307.5 566 L 307 569.5 L 308 570.5 L 309 583.5 L 306.5 585 L 304 580.5 L 304 578.5 L 303 566.5 L 301.5 565 L 299.5 565 L 297 566.5 L 300 570.5 Q 298.8 573 295 572 L 293 568.5 L 293 565 Q 296.6 562.4 303 563 L 302.5 561 L 299.5 562 L 297.5 562 L 294.5 561 L 292.5 562 L 290 557 L 298.5 555 L 300.5 555 L 303 554.5 L 301.5 552 L 298.5 553 L 292 548.5 L 293.5 546 L 302 545 Q 299.8 539.4 305.5 541 L 312 540 Q 313.3 536.7 308.5 538 L 305 539 Q 303.5 535.3 306.5 536 L 307.5 535 Z M 300 548 L 302 550 Q 303 547 300 548 Z M 306 548 L 306 550 L 309 549 L 312 550 L 312 548 L 306 548 Z M 302 557 L 297 559 L 302 559 L 302 557 Z M 307 561 L 307 564 L 318 566 Q 319 564 324 565 L 325 564 Q 326 560 321 562 L 319 562 L 317 561 Q 311 560 310 562 L 307 561 Z "></path><path d="M 192 536 Q 197.2 533.9 196 538.5 L 199 543 L 196.5 544 L 192 538.5 L 192 536 Z "></path><path d="M 329.5 537 Q 333.3 535.8 332 539.5 L 331 542.5 Q 333.8 544.3 329.5 546 L 327.5 545 Q 326.3 547.3 325 544.5 L 322 540.5 L 322 538 L 326 538 L 326 539.5 L 327.5 542 L 329.5 537 Z "></path><path d="M 49 538 L 53 539 L 54 541.5 L 51.5 545 L 48 544 L 46.5 548 L 43 547 L 44 543 L 47.5 544 L 48 542.5 Q 45.5 541 49 539.5 L 49 538 Z "></path><path d="M 75.5 539 Q 77.8 538.3 77 540.5 Q 79.8 542.3 75.5 544 L 73 542.5 Q 71.9 539.2 74.5 540 L 75.5 539 Z "></path><path d="M 225.5 540 Q 228.1 539.2 227 542.5 Q 225.2 546.8 223.5 544 Q 221.3 544.8 222 542.5 L 225.5 540 Z "></path><path d="M 236.5 540 L 241 545.5 L 241 548 L 238 548 Q 239.1 545.3 236.5 546 L 234 541 L 236.5 540 Z "></path><path d="M 191.5 541 L 194 544.5 Q 192.8 547.3 191.5 545 L 189 543.5 Q 188.3 541.3 190.5 542 L 191.5 541 Z "></path><path d="M 143.5 542 L 146 543 L 147.5 548 L 148.5 545 L 151.5 546 L 154 545 L 151.5 549 Q 148.2 547.9 149 550.5 L 150 553 L 146.5 554 Q 142.3 552.2 145 550.5 L 144.5 546 L 143 548.5 Q 145.3 549.8 142.5 551 L 141 550.5 Q 141.8 552.8 139.5 552 L 137 547.5 Q 136.3 545.3 138.5 546 Q 140.8 541.8 143 543.5 L 143.5 542 Z "></path><path d="M 242 542 Q 247.2 539.9 246 544.5 L 247 546.5 L 243 548 L 242 542 Z "></path><path d="M 250.5 543 L 254 543.5 L 250.5 548 Q 246.8 549.3 248 545.5 L 250.5 543 Z "></path><path d="M 260.5 543 L 263 544.5 L 258.5 549 L 256 549 Q 255.3 545.2 258.5 544 L 260.5 543 Z "></path><path d="M 125.5 544 L 128 545 L 128.5 547 L 132 546.5 L 132 550 L 128 550 L 128 552 L 126 552 Q 127.1 554.7 124.5 554 L 122.5 550 L 122 552 Q 119.3 553.1 120 550.5 L 119 550.5 L 118.5 553 L 115 548.5 L 118 547 L 118.5 550 L 119.5 546 L 121.5 549 L 123.5 546 L 126 545.5 L 125.5 544 Z "></path><path d="M 274 545 Q 277.4 544.3 278.5 547 L 282 546 L 282 551 L 280.5 551 L 278.5 548 L 276.5 551 Q 273 549.7 274 545 Z "></path><path d="M 284 547 L 288 547 L 288 548.5 Q 286 553 284 549.5 L 284 547 Z "></path><path d="M 57.5 549 Q 61.9 547.5 61 550.5 L 62 550.5 Q 61.3 548.3 63.5 549 L 65.5 550 L 68 549 L 64.5 559 L 61 558 Q 62.5 554.2 59.5 555 L 60 556.5 Q 60.9 559.9 55.5 558 L 51 555 L 50 552.5 Q 50.5 549.5 54.5 550 Q 56 552.5 57.5 549 Z "></path><path d="M 72.5 550 Q 75.3 551.3 73 552.5 L 71.5 555 L 68 553.5 L 69.5 551 L 72.5 550 Z "></path><path d="M 131.5 552 Q 134.1 551.3 133 554 L 129.5 555 L 128.5 553 L 131.5 552 Z "></path><path d="M 86.5 553 L 89 554.5 L 88.5 556 L 86.5 553 Z "></path><path d="M 262.5 554 L 263.5 556 L 262.5 554 Z "></path><path d="M 136.5 555 Q 138 558.5 139.5 556 L 141.5 557 L 142.5 555 L 143 560.5 L 141 563.5 Q 143.8 565.3 139.5 567 Q 138.8 564.3 134.5 565 L 132 566 L 131.5 562 L 129.5 565 L 127 563.5 L 126 560 Q 129.8 561.5 129 558.5 L 129.5 556 L 132 557.5 Q 131.1 554.5 135.5 556 L 136.5 555 Z "></path><path d="M 205 555 Q 208.8 554.3 210 557.5 L 210.5 560 L 212.5 556 L 215 556.5 Q 213.8 561.2 216 562.5 Q 214.3 566.8 212.5 564 L 210.5 565 L 208 564 L 205 555 Z "></path><path d="M 220.5 555 L 224 556.5 L 221 562 Q 215.8 564.1 217 559.5 L 220.5 555 Z "></path><path d="M 100 556 L 102.5 557 L 106 556 Q 107.1 558.7 104.5 558 L 100 560 L 100 556 Z "></path><path d="M 244 556 Q 248.1 554.3 247 558.5 L 248.5 558 L 251.5 557 Q 254.3 558.3 252 559.5 Q 253.5 563.9 250.5 563 L 248 561.5 Q 248.7 564.1 246 563 L 244 559.5 L 244 556 Z "></path><path d="M 199.5 557 Q 202.8 555.9 202 558.5 L 204 562 L 198 558.5 L 199.5 557 Z "></path><path d="M 256.5 557 L 260 557.5 L 256.5 562 L 254 560.5 L 256.5 557 Z "></path><path d="M 271.5 557 Q 273.8 556.3 273 558.5 L 276 563.5 L 273.5 565 L 269 558.5 L 271.5 557 Z "></path><path d="M 236.5 558 L 244 562 Q 245.3 565 241.5 564 L 235 561 L 236.5 558 Z "></path><path d="M 276 559 Q 281.2 556.9 280 561.5 L 277.5 563 L 276 559 Z "></path><path d="M 121.5 560 L 120.5 562 L 121.5 560 Z "></path><path d="M 68.5 563 Q 71.8 561.9 71 564.5 L 67.5 566 L 66.5 564 L 68.5 563 Z "></path><path d="M 53 564 L 58 564 Q 56.9 566.7 59.5 566 L 62.5 565 L 64 567.5 L 60 569 L 59.5 567 L 59 570 L 55.5 571 L 53 564 Z "></path><path d="M 163.5 565 Q 167.3 564.3 168 566.5 L 166.5 569 L 162 566.5 L 163.5 565 Z "></path><path d="M 102.5 567 L 105 567.5 L 104.5 569 L 108 568 Q 109.3 571 105.5 570 L 103.5 570 L 99.5 571 L 98 568 L 102.5 567 Z "></path><path d="M 237 569 Q 241.1 567.3 240 571.5 L 240 573.5 L 240 582 L 237 582 L 235.5 579 Q 233.8 582.1 232 580.5 Q 232.8 582.8 230.5 582 L 226 575.5 L 230 574 L 230.5 577 L 232.5 573 L 236.5 575 L 237 572.5 L 237 570.5 L 237 569 Z M 236 575 L 235 578 L 236 578 L 236 575 Z "></path><path d="M 255.5 569 L 258 574.5 Q 256 578 254 573.5 Q 253.3 569.8 255.5 569 Z "></path><path d="M 260 569 Q 265.2 567.3 264 571 L 261.5 572 L 260 569 Z "></path><path d="M 219.5 570 L 222 571.5 L 220.5 574 Q 216 572 219.5 570 Z "></path><path d="M 248.5 570 L 252 571.5 L 253 574.5 L 250.5 576 L 247 571.5 L 248.5 570 Z "></path><path d="M 314 570 L 318 570 L 318 571.5 L 314 573 L 314 570 Z "></path><path d="M 79.5 571 L 88 573 Q 89.5 576.7 86.5 576 Q 80.5 574.9 79.5 571 Z "></path><path d="M 285.5 572 Q 289.3 570.8 288 574.5 Q 285.3 576.3 287 582.5 L 285.5 584 L 284 582.5 L 284 573.5 L 285.5 572 Z "></path><path d="M 135 573 L 139 573 L 139 582.5 L 140 582.5 Q 139 577 142.5 576 L 145 576.5 L 145 587 L 141 586 L 140.5 583 L 138.5 587 L 135.5 585 L 132 586 L 130 581 L 128 581.5 L 130 585.5 L 129 588 L 122 582.5 Q 121.3 580.3 123.5 581 L 126.5 580 L 128 580.5 L 127 577 L 130.5 576 L 134 578.5 L 135 573 Z "></path><path d="M 271.5 573 L 273.5 576 Q 275.3 572.3 277 575.5 L 278 581.5 L 275 583 L 273.5 579 L 271 580 L 270 574.5 L 271.5 573 Z "></path><path d="M 264.5 574 Q 266.8 573.3 266 575.5 L 266.5 577 Q 262.1 578.5 263 575.5 L 264.5 574 Z "></path><path d="M 280.5 575 Q 284.7 573.9 283 578 Q 280.3 576.9 281 579.5 L 282 582.5 Q 280.5 585.5 279 582.5 Q 277.5 576.5 280.5 575 Z "></path><path d="M 330 575 L 334 576.5 Q 334.8 580.3 332.5 581 Q 330.3 581.8 331 579.5 L 330 575 Z "></path><path d="M 326 576 Q 330.5 574.5 329 579 L 326 577.5 L 326 576 Z "></path><path d="M 206 577 Q 211.2 574.9 210 579.5 L 211.5 582 L 212 578 Q 215.7 576.5 215 579.5 L 216 582.5 Q 217.9 587.9 214.5 587 L 211.5 584 L 210.5 585 L 208 583.5 L 206 577 Z "></path><path d="M 60.5 578 L 64.5 580 Q 65.8 577 70 578 Q 71.3 582.6 68.5 584 Q 62.5 582.5 61 585.5 Q 61.8 587.8 59.5 587 L 58.5 588 L 53 582.5 L 56.5 580 L 59 581 L 60.5 578 Z "></path><path d="M 242 578 L 246 579.5 L 245 582 Q 240.1 583.6 242 578 Z "></path><path d="M 148.5 579 L 150.5 579 Q 153.5 578.1 152 582.5 L 153 584.5 L 149.5 586 Q 146.4 584.4 148.5 579 Z "></path><path d="M 225.5 580 L 227 582.5 L 224.5 584 L 223 581 L 225.5 580 Z "></path><path d="M 217 581 Q 220.8 580 222 582.5 Q 223.8 587.8 218.5 586 Q 216 584.8 217 581 Z "></path><path d="M 75.5 582 L 77 584.5 L 73.5 586 L 72 583 L 75.5 582 Z "></path><path d="M 156.5 582 Q 161.1 580.6 159 586.5 L 156.5 588 Q 154.3 587.3 155 583.5 L 156.5 582 Z "></path><path d="M 257 583 Q 260.8 582 262 584.5 L 263 588.5 L 259 590 L 257 583 Z "></path><path d="M 13.5 586 L 17 588.5 L 16 591 L 12 589.5 L 13.5 586 Z "></path><path d="M 267.5 586 L 271 587 L 269.5 590 Q 266.2 591.1 267 588.5 Q 264.8 587.3 267.5 586 Z "></path><path d="M 293 587 L 297 587 L 297 588.5 L 294.5 590 L 293 587 Z "></path><path d="M 18 588 L 22 588.5 L 18 590 L 18 588 Z "></path><path d="M 346.5 590 L 347 591.5 L 345 592.5 L 346.5 590 Z "></path></svg>