<svg width="350" height="600" version="1.1" xmlns="http://www.w3.org/2000/svg" desc="Created with imagetracer.js version 1.2.5"><path d="M 8.5 6 L 15.5 6 L 22.5 8 L 23.5 7 L 106.5 7 L 107.5 6 Q 108.7 8.3 113.5 7 L 115.5 6 L 116.5 7 L 142.5 7 L 143.5 6 L 191.5 6 L 192.5 7 L 200.5 7 L 202.5 7 L 333.5 6 L 335 7.5 L 336 14.5 L 335 16.5 L 335 18.5 L 336 26.5 L 335 29.5 L 336 30.5 L 337 125.5 L 336 128.5 L 337 129.5 L 337 159.5 L 338 160.5 L 338 194.5 L 337 195.5 L 337 204.5 L 338 207.5 L 337 208.5 L 337 216.5 L 338 219.5 L 337 221.5 L 338 222.5 L 338 239.5 L 337 240.5 L 337 250.5 L 338 251.5 L 338 347.5 L 339 348.5 L 339 372.5 L 338 374.5 L 338 376.5 L 338 393.5 L 339 396.5 L 338 397.5 L 338 417.5 L 339 420.5 L 338 422.5 L 338 424.5 Q 336.3 430.8 339 432.5 L 338 433.5 L 338 449.5 L 339 450.5 L 339 459.5 L 338 463.5 L 339 465.5 L 338 468.5 L 338 470.5 L 338 592.5 L 336.5 593 L 334.5 593 L 331.5 592 L 300.5 592 L 299.5 591 L 296.5 592 L 293.5 591 L 288.5 592 Q 287.3 589.8 282.5 591 L 280.5 591 L 278.5 592 L 179.5 592 L 175.5 593 L 174.5 592 L 154.5 592 L 152.5 593 L 150.5 593 L 148.5 592 L 96.5 592 L 94.5 592 L 92.5 593 L 91.5 592 L 76.5 592 L 75.5 591 L 74.5 592 L 57.5 593 L 56.5 594 L 44.5 594 L 37.5 592 L 35.5 592 Q 28 593.5 24.5 591 L 19.5 592 L 18.5 591 L 9.5 591 L 6.5 592 L 4 591 L 3 571.5 L 4 567.5 L 3 565.5 L 4 564.5 L 4 552.5 L 5 551.5 L 4 550.5 L 4 532.5 L 4 530.5 L 4 434.5 L 3 433.5 L 4 432.5 L 4 413.5 L 3 408.5 L 4 407.5 L 4 354.5 L 5 353.5 L 5 337.5 L 4 336.5 L 4 307.5 L 5 306.5 L 5 285.5 L 4 284.5 L 4 274.5 L 5 269.5 L 4 268.5 L 4 249.5 L 5 246.5 L 4 241.5 L 3 160.5 L 4 159.5 L 5 138.5 L 4 135.5 L 5 134.5 L 5 120.5 L 4 116.5 L 5 112.5 L 4 109.5 L 5 105.5 L 5 103.5 L 5 76.5 Q 7.3 75.3 6 70.5 L 5 69.5 L 5 10.5 L 8.5 6 Z M 43 9 L 42 10 L 30 10 L 29 11 L 27 10 L 24 11 L 22 10 L 9 10 L 9 20 L 8 21 L 8 39 L 9 40 L 9 89 L 8 90 L 8 99 L 9 100 L 8 102 L 8 134 L 11 134 L 11 136 L 15 139 L 12 140 L 7 137 L 8 141 Q 7 143 10 142 L 11 145 L 7 146 L 8 149 L 8 157 L 7 158 L 8 160 L 13 151 L 16 149 L 17 146 Q 19 147 18 144 L 22 141 L 21 144 L 24 143 L 25 140 L 29 146 L 34 160 Q 38 159 39 163 L 38 165 Q 45 170 57 171 L 59 171 L 63 175 L 55 190 Q 53 197 42 195 L 38 191 L 37 184 L 32 177 L 32 175 L 29 172 Q 25 173 26 171 L 25 169 L 16 168 L 14 168 L 8 165 L 7 171 L 10 169 L 14 171 Q 17 172 16 176 L 12 175 L 10 176 L 10 175 L 7 173 L 8 177 L 13 179 L 15 183 L 12 184 L 10 183 L 7 182 Q 6 185 10 186 Q 12 185 11 188 L 7 189 L 8 193 L 7 195 L 7 210 L 12 210 L 21 217 Q 24 216 22 220 L 19 220 L 10 213 L 7 213 L 7 218 L 18 223 L 19 227 L 16 227 L 9 222 L 7 222 L 7 227 L 13 228 L 16 231 L 15 233 L 9 230 L 7 234 L 13 236 Q 15 235 14 238 Q 9 236 7 240 L 7 242 L 13 242 L 13 245 L 7 245 L 7 249 L 10 248 Q 13 247 12 250 L 7 253 L 8 255 L 8 336 L 7 337 L 8 341 L 7 344 L 7 346 L 8 348 Q 10 354 7 356 L 7 400 Q 5 401 8 402 L 8 400 L 12 398 L 11 393 L 17 388 Q 19 387 18 390 L 22 390 L 22 393 L 22 395 Q 26 397 25 402 L 33 400 Q 35 399 34 396 L 32 394 L 28 394 L 23 387 L 23 383 L 29 382 L 28 380 L 28 378 Q 28 373 32 371 L 41 372 Q 44 374 43 379 L 49 383 Q 50 390 46 393 Q 45 395 41 394 L 39 394 L 38 406 L 37 407 L 38 409 L 35 408 L 36 410 L 33 416 L 31 413 L 31 411 Q 33 412 32 410 L 30 409 L 28 411 L 29 416 L 31 415 L 31 418 L 27 421 L 27 420 Q 26 417 29 418 Q 30 415 28 416 Q 23 419 21 425 L 15 429 Q 8 427 6 431 L 7 434 L 9 433 L 14 434 L 19 433 L 20 430 L 29 424 L 32 425 L 31 427 L 28 429 L 25 431 L 23 434 L 21 435 Q 19 438 18 436 L 7 438 L 7 450 L 6 452 L 16 450 L 18 446 Q 23 444 32 445 L 35 444 L 45 444 L 45 441 L 48 441 L 51 440 L 53 441 L 58 439 L 69 439 L 81 437 L 82 426 L 84 422 L 86 422 L 85 420 L 84 420 Q 81 419 82 422 Q 84 423 82 424 L 72 422 Q 65 421 64 425 L 54 424 L 51 422 Q 56 422 57 420 L 53 418 Q 54 415 52 416 L 39 400 L 42 399 L 44 400 L 47 404 L 49 398 L 52 395 L 58 395 L 58 398 Q 60 400 67 399 L 71 407 L 71 409 L 72 412 L 74 411 L 74 409 L 76 411 L 81 412 L 84 417 L 86 416 L 82 406 Q 83 399 80 396 L 80 392 L 75 392 L 70 385 L 69 385 L 65 383 L 58 374 Q 59 371 57 372 Q 53 370 55 364 L 54 364 Q 50 362 51 356 L 48 354 L 40 347 L 39 341 L 43 340 L 51 345 L 53 345 Q 52 340 55 339 Q 59 342 58 351 L 63 354 L 67 359 L 68 359 L 68 363 L 75 365 L 78 368 L 79 367 L 82 368 L 86 367 L 89 369 L 91 368 Q 92 363 89 363 Q 90 359 87 360 L 88 355 L 88 351 L 89 348 L 97 342 L 98 344 L 96 346 Q 99 347 97 349 L 98 350 L 99 347 L 99 345 L 101 346 L 101 345 L 100 342 Q 101 345 106 344 L 109 348 Q 108 350 111 349 L 113 361 Q 114 364 111 363 L 108 366 L 107 365 L 105 368 L 112 372 L 114 371 Q 117 370 116 373 Q 122 373 125 378 L 127 372 L 136 366 Q 140 367 141 365 L 139 357 L 141 349 L 147 345 L 156 345 L 161 351 L 160 356 L 161 359 L 160 366 L 157 369 Q 152 368 151 370 L 146 368 L 146 370 L 145 372 L 142 370 Q 135 369 133 372 L 129 378 L 125 380 L 128 381 L 129 385 L 128 385 L 128 386 L 133 385 L 137 390 L 138 385 Q 139 378 136 376 Q 135 372 140 374 L 142 377 L 144 374 Q 147 373 146 376 L 150 375 Q 151 379 147 381 Q 149 387 146 389 L 146 390 L 142 390 L 143 387 L 143 377 Q 143 387 139 392 L 141 391 L 146 395 L 148 394 L 147 392 L 149 383 L 152 380 L 151 373 L 160 368 Q 164 369 163 366 L 166 365 L 174 367 L 174 365 L 182 360 Q 185 361 184 358 L 187 357 Q 190 356 189 359 L 186 360 L 188 366 L 189 364 L 193 362 L 193 360 L 190 356 L 192 355 L 195 348 L 201 344 Q 204 343 202 347 L 208 346 Q 209 344 210 347 L 207 352 L 201 356 Q 196 358 196 366 L 169 386 L 167 386 L 161 391 L 157 400 L 158 406 L 161 407 L 165 414 L 164 417 L 165 421 L 166 419 L 169 420 L 171 420 Q 175 421 176 418 L 175 413 Q 174 408 169 409 L 168 404 L 168 402 Q 167 396 169 395 Q 168 392 171 393 Q 173 392 171 391 L 172 388 L 175 387 Q 180 386 181 390 Q 180 395 184 393 L 185 396 L 184 399 L 185 402 L 184 407 L 180 409 L 179 414 L 180 419 L 191 410 L 195 409 L 197 409 L 200 408 Q 203 409 202 406 L 196 405 Q 191 404 192 398 L 195 397 L 196 401 L 201 403 L 203 403 Q 202 400 205 401 L 206 400 L 209 403 L 216 400 L 219 404 L 224 403 L 220 400 L 220 397 Q 217 398 218 395 Q 221 394 220 397 L 224 396 L 225 398 L 225 397 Q 228 395 226 394 L 229 396 L 229 397 L 234 397 L 232 401 L 233 402 L 237 396 L 236 390 Q 235 387 234 389 L 231 386 Q 225 385 224 388 L 222 384 L 226 383 L 227 381 Q 226 378 223 379 Q 220 380 222 382 L 220 381 Q 219 378 222 379 L 220 376 Q 213 375 214 378 L 216 377 L 218 379 L 217 381 Q 213 380 214 384 L 211 385 Q 212 389 210 390 L 207 389 Q 206 384 209 384 Q 210 381 208 382 L 205 388 Q 206 390 203 389 L 203 393 L 200 394 L 201 397 L 200 397 L 199 398 L 196 395 L 193 396 L 191 395 L 195 391 Q 198 390 197 393 L 199 392 Q 198 389 202 390 Q 204 389 202 388 L 203 381 L 209 379 Q 211 378 210 374 L 214 373 Q 223 372 229 375 Q 233 376 232 381 L 234 382 L 254 382 L 258 375 L 264 378 L 266 387 L 271 392 L 275 392 L 282 388 L 287 388 Q 289 389 287 391 L 288 407 L 301 410 L 302 411 Q 303 408 300 409 L 300 407 L 295 407 L 292 405 L 291 401 L 292 399 L 291 396 Q 290 391 294 390 Q 296 391 295 389 L 299 387 Q 298 383 302 382 L 309 382 Q 309 386 314 385 L 315 388 L 323 391 L 325 395 L 325 401 Q 322 403 323 407 L 318 411 L 313 412 L 317 413 L 320 412 Q 324 412 325 415 L 334 415 L 334 409 L 335 408 L 335 355 L 336 354 L 335 353 L 335 345 L 335 343 L 334 340 L 335 338 L 334 334 L 334 332 L 335 330 L 334 328 L 335 327 L 335 305 L 335 303 L 334 298 Q 333 288 335 283 L 334 280 L 335 277 L 335 259 L 334 261 L 332 262 Q 329 263 330 260 L 335 257 L 333 252 L 335 251 L 334 248 L 329 250 L 328 248 L 332 245 L 334 246 L 334 244 L 332 243 L 327 244 L 328 242 L 329 240 L 334 240 L 335 235 L 334 231 Q 331 235 326 236 L 327 234 L 326 232 L 331 228 Q 333 227 332 230 L 334 230 L 334 221 L 325 228 L 323 226 L 324 222 L 332 217 L 334 218 L 334 199 L 333 198 L 331 195 L 334 194 L 334 186 L 332 189 L 329 190 Q 326 189 327 184 L 329 184 L 328 181 L 325 183 L 322 182 Q 321 177 324 176 L 330 171 L 333 173 Q 334 176 332 175 L 328 181 L 334 182 L 335 177 L 334 174 L 334 157 L 332 156 L 330 154 L 334 152 L 333 146 L 333 96 Q 330 94 332 88 L 332 86 L 333 82 L 333 80 L 333 69 L 332 68 L 332 29 L 332 27 L 332 13 L 331 10 L 326 9 L 291 9 L 290 10 L 288 9 L 282 10 L 280 10 L 251 10 L 250 9 L 248 10 L 218 10 L 217 9 L 213 10 L 210 9 L 208 10 L 206 9 L 183 9 L 181 10 L 179 10 L 174 9 L 172 9 Q 166 8 165 10 L 164 9 L 128 9 L 126 9 L 122 10 L 120 10 L 91 10 L 90 9 L 89 10 L 63 10 L 61 10 L 59 9 L 57 10 L 55 10 L 50 9 L 47 10 L 43 9 Z M 26 144 L 23 150 L 20 151 L 19 147 L 15 153 L 13 154 L 8 162 L 8 165 L 12 166 L 13 164 L 14 164 Q 13 167 17 165 L 19 161 L 24 156 L 25 158 L 25 160 L 21 165 L 23 167 L 26 162 L 29 164 L 27 167 L 28 168 L 31 166 L 33 163 L 27 151 L 26 144 Z M 36 166 L 35 168 L 35 169 L 38 171 Q 39 169 40 172 L 39 176 Q 40 178 42 176 L 45 178 L 47 175 Q 49 176 48 180 Q 46 184 44 181 Q 45 178 42 179 L 46 189 L 45 192 L 47 192 L 56 180 L 57 175 L 56 173 L 47 172 L 36 166 Z M 29 168 L 29 170 L 32 170 L 29 168 Z M 8 178 L 9 180 Q 10 177 8 178 Z M 39 180 L 41 190 L 43 191 L 39 180 Z M 55 342 L 55 347 L 56 347 Q 57 343 55 342 Z M 46 344 L 48 346 L 49 349 L 51 348 L 46 344 Z M 199 346 Q 193 349 194 356 Q 200 357 202 353 L 200 352 L 206 349 L 206 348 L 199 349 L 200 347 L 199 346 Z M 51 349 L 50 351 L 53 352 L 53 350 L 51 349 Z M 104 349 L 102 354 Q 108 356 106 350 L 104 349 Z M 97 350 L 96 355 L 97 355 L 97 350 Z M 92 353 L 91 357 L 93 357 L 92 353 Z M 56 357 L 55 360 L 56 360 L 56 357 Z M 62 360 L 59 364 L 61 364 L 63 361 L 62 360 Z M 67 362 L 65 364 L 67 364 L 67 362 Z M 64 363 L 63 368 L 64 368 L 64 363 Z M 181 363 L 182 370 L 183 370 Q 185 362 181 363 Z M 97 364 L 95 367 L 101 368 L 101 367 Q 98 368 99 366 L 98 366 L 97 364 Z M 66 366 L 66 378 L 67 373 L 66 366 Z M 68 366 L 67 369 L 68 369 L 68 366 Z M 143 367 L 143 368 L 145 368 L 143 367 Z M 167 368 L 165 370 L 167 370 L 170 375 Q 169 377 173 376 L 174 370 L 167 368 Z M 178 368 L 178 372 L 179 372 L 178 368 Z M 70 369 L 70 375 L 71 375 Q 72 368 70 369 Z M 73 369 L 72 372 L 73 372 L 73 369 Z M 78 369 L 77 373 L 79 372 L 78 369 Z M 74 370 L 73 375 L 75 380 L 76 374 Q 77 369 74 370 Z M 159 370 L 159 374 L 162 373 L 166 376 L 166 375 L 159 370 Z M 96 371 L 95 412 L 94 413 L 96 413 L 97 411 L 96 410 L 96 398 L 96 396 L 97 392 L 96 391 L 96 383 L 96 381 Q 95 376 97 375 L 96 371 Z M 81 372 L 81 379 L 80 380 L 81 384 L 82 383 L 82 374 L 83 373 L 81 372 Z M 98 372 L 99 398 L 99 400 L 98 402 L 99 406 L 100 406 L 100 373 L 98 372 Z M 104 372 L 105 375 L 106 373 L 104 372 Z M 90 373 L 90 375 L 92 376 Q 93 372 90 373 Z M 35 374 L 32 375 L 33 381 L 27 386 L 28 389 L 31 390 L 30 388 L 34 386 Q 35 389 37 387 L 39 392 L 42 391 Q 45 389 45 384 L 43 383 L 41 384 L 43 388 L 42 387 L 40 388 L 36 383 Q 35 380 38 381 L 39 377 L 35 374 Z M 85 376 Q 83 384 85 389 L 86 389 L 85 376 Z M 87 376 L 88 395 L 89 389 L 88 386 Q 87 380 89 379 Q 90 375 87 376 Z M 91 376 L 90 385 L 91 385 L 91 376 Z M 113 376 L 112 379 L 113 382 L 115 378 L 116 402 L 116 378 L 113 376 Z M 66 378 L 68 384 L 69 384 Q 71 376 66 378 Z M 72 378 L 70 380 L 72 380 L 72 378 Z M 92 378 L 92 380 L 94 379 L 92 378 Z M 105 378 L 104 388 L 106 389 L 105 387 L 106 385 L 105 378 Z M 119 378 L 117 381 L 118 383 L 119 383 L 119 378 Z M 78 379 L 77 385 L 78 385 L 78 379 Z M 107 379 L 108 405 Q 110 404 108 403 L 109 394 L 109 403 L 110 404 L 110 417 L 109 418 L 109 417 L 109 415 Q 106 416 107 420 L 109 421 Q 108 418 111 419 L 111 398 L 110 397 L 111 395 L 111 379 L 109 390 L 108 390 L 108 381 L 109 380 L 107 379 Z M 121 382 L 120 394 L 121 394 L 121 382 Z M 123 382 Q 121 386 125 388 L 124 391 L 126 390 Q 127 383 123 382 Z M 113 383 L 113 388 L 113 386 Q 115 384 113 383 Z M 79 385 L 78 388 L 79 388 L 79 385 Z M 93 385 L 92 388 L 93 388 L 93 385 Z M 304 385 L 302 387 L 304 390 L 306 386 L 304 385 Z M 307 386 L 305 388 L 307 388 L 307 386 Z M 123 387 L 122 391 L 123 391 L 123 387 Z M 91 388 L 90 394 L 91 394 L 91 388 Z M 117 388 L 117 390 L 119 389 L 117 388 Z M 85 389 L 85 400 L 86 400 Q 87 392 85 389 Z M 105 389 L 104 395 L 102 396 L 102 397 Q 106 398 106 395 Q 107 390 105 389 Z M 112 389 L 113 393 L 112 394 L 112 402 L 112 404 L 114 410 L 114 392 L 114 390 L 112 389 Z M 131 390 L 130 397 L 132 397 Q 133 392 131 390 Z M 177 390 L 176 395 L 174 396 L 175 398 L 177 400 L 174 397 L 172 396 Q 171 401 174 403 Q 175 405 172 404 L 172 407 Q 176 406 178 409 L 181 404 L 180 403 L 177 403 L 178 399 L 180 399 Q 183 400 181 396 L 177 395 L 177 390 Z M 15 392 L 16 395 L 15 399 Q 16 403 11 401 L 11 405 L 13 405 Q 15 410 18 404 L 20 405 L 21 403 Q 22 399 19 400 L 18 394 L 15 392 Z M 316 392 Q 315 395 318 394 Q 321 396 321 402 L 321 396 L 316 392 Z M 135 393 L 135 400 L 136 400 Q 135 395 138 396 L 138 407 L 137 405 L 136 407 L 134 403 L 132 403 L 132 406 Q 129 405 130 408 L 133 410 L 137 411 L 147 408 L 148 411 L 141 415 L 143 415 L 144 417 L 147 416 L 147 423 L 146 424 L 144 421 L 143 425 L 146 426 L 148 430 L 147 432 L 148 434 L 148 444 L 147 445 L 148 449 L 147 451 L 147 464 L 152 479 L 153 474 L 156 472 L 155 470 L 155 445 Q 152 443 154 437 L 148 416 L 151 409 L 155 409 Q 154 412 157 411 L 156 410 L 154 407 L 152 406 L 150 407 L 146 405 Q 147 408 143 406 L 143 397 L 142 402 L 140 403 L 142 403 L 142 407 L 141 407 L 139 408 L 139 399 Q 142 399 141 396 Q 137 396 135 393 Z M 296 393 Q 294 396 297 395 L 296 393 Z M 93 395 L 92 400 L 93 400 L 93 395 Z M 245 395 Q 244 397 248 397 L 250 397 L 252 396 L 245 395 Z M 256 395 Q 255 397 258 396 L 259 397 Q 260 394 256 395 Z M 271 395 L 271 397 L 274 399 L 278 400 Q 281 401 280 399 L 278 396 L 271 395 Z M 305 395 L 304 399 L 300 402 L 300 403 L 306 400 Q 310 398 309 402 L 312 402 L 312 400 L 316 400 L 315 397 L 313 398 Q 310 394 305 395 Z M 106 396 L 104 398 L 105 403 L 106 399 L 106 396 Z M 128 396 L 126 399 L 128 398 L 128 396 Z M 91 397 L 90 403 L 91 403 L 91 397 Z M 118 397 L 118 400 L 120 399 L 118 397 Z M 150 397 L 148 400 L 150 399 L 150 397 Z M 268 397 L 265 399 L 262 398 L 261 401 L 264 400 L 268 401 L 270 401 L 268 397 Z M 54 398 L 51 403 L 52 406 L 55 401 L 54 398 Z M 103 398 Q 100 399 102 401 L 101 403 L 102 408 L 103 408 L 103 398 Z M 241 399 L 236 403 L 235 405 L 238 404 L 241 405 Q 243 402 247 403 L 246 399 L 244 400 L 241 399 Z M 127 400 L 127 402 L 130 402 L 127 400 Z M 93 401 L 92 406 L 93 406 L 93 401 Z M 136 401 L 135 403 L 137 404 L 136 401 Z M 214 401 Q 213 404 216 403 Q 217 400 214 401 Z M 57 402 L 55 404 L 57 406 L 58 403 L 57 402 Z M 258 402 L 257 406 L 258 406 L 258 402 Z M 274 402 L 274 403 L 277 403 L 274 402 Z M 282 402 L 279 404 L 283 404 L 284 405 Q 285 401 282 402 Z M 31 403 L 29 405 Q 30 407 28 406 L 26 409 L 28 409 L 28 407 Q 31 408 30 406 L 33 404 L 34 405 Q 35 402 31 403 Z M 106 403 L 105 406 L 106 406 L 106 403 Z M 210 403 L 210 408 L 215 408 L 210 405 L 210 403 Z M 313 403 L 311 406 L 313 406 L 313 403 Z M 263 404 Q 260 409 265 408 Q 267 413 269 410 L 268 404 L 267 406 L 265 407 L 263 404 Z M 317 404 L 317 406 L 317 407 L 319 406 Q 320 403 317 404 Z M 7 405 L 7 409 L 8 409 Q 9 404 7 405 Z M 67 405 L 65 409 L 66 411 L 65 414 L 64 412 L 65 410 L 62 412 L 63 416 L 65 417 Q 64 414 67 415 L 67 405 Z M 88 405 L 88 411 L 89 411 Q 90 406 88 405 Z M 109 405 L 107 408 L 108 415 L 109 411 L 109 405 Z M 51 406 L 51 410 L 53 411 L 52 409 L 53 407 L 51 406 Z M 99 406 L 98 409 L 99 409 L 99 406 Z M 226 406 L 227 410 Q 228 413 226 412 Q 224 414 223 411 L 222 413 L 214 411 L 209 412 L 207 412 L 203 410 L 196 412 Q 194 410 193 413 L 194 417 L 193 416 L 188 418 L 186 418 L 183 419 L 182 424 L 185 423 L 195 423 L 196 424 L 204 424 L 208 422 Q 215 423 219 420 Q 222 419 221 422 L 219 425 Q 223 426 222 424 Q 223 420 228 421 L 223 430 L 221 432 L 217 433 L 213 432 L 211 435 Q 207 439 201 441 L 198 440 L 196 437 Q 194 439 189 438 L 180 443 L 175 444 L 171 443 L 173 439 L 176 440 L 185 436 L 181 434 Q 181 429 184 429 L 182 426 L 180 427 L 176 426 L 175 425 L 171 429 L 168 428 L 165 427 L 167 433 L 170 431 L 176 433 L 177 430 L 180 432 L 179 434 L 178 435 L 170 436 L 169 439 L 170 450 L 172 455 L 172 470 L 171 471 L 174 481 Q 175 483 177 481 L 188 483 L 196 482 L 198 482 L 202 483 L 204 482 L 216 482 Q 217 484 218 482 L 216 479 L 218 476 Q 220 477 219 474 L 223 473 L 227 468 L 224 454 Q 223 443 228 439 L 234 436 Q 235 439 233 438 Q 228 441 227 447 L 229 447 L 230 445 L 231 448 L 232 442 L 234 441 L 233 446 L 235 448 L 236 445 Q 235 442 239 443 L 238 441 Q 237 438 241 439 L 241 438 Q 235 440 236 436 L 231 433 L 227 429 L 227 426 L 233 423 L 235 420 L 233 421 Q 229 422 228 420 L 234 417 L 235 420 L 243 418 L 254 425 L 253 429 L 254 435 L 252 436 L 249 440 L 245 439 L 244 441 Q 251 441 254 447 L 253 449 L 254 455 L 252 455 L 252 448 L 250 447 Q 246 446 248 452 L 249 452 Q 248 448 251 449 L 251 452 L 250 454 L 253 457 L 256 457 Q 254 455 255 451 L 258 449 L 259 452 L 262 454 L 261 457 L 260 459 L 266 458 L 265 456 L 264 456 Q 265 458 263 457 L 265 454 L 264 453 L 263 451 L 273 453 L 275 457 Q 275 454 280 455 L 282 455 Q 285 454 284 457 L 281 458 L 281 461 L 286 461 L 286 463 L 289 461 L 291 463 L 292 461 L 296 462 L 299 465 L 298 457 L 289 457 L 288 458 L 285 457 Q 284 454 288 455 Q 289 457 290 455 L 288 453 L 285 449 L 282 448 Q 281 444 284 445 L 283 444 L 284 438 L 293 435 L 299 436 L 300 439 L 306 443 Q 305 445 308 444 Q 309 447 306 446 Q 305 449 309 448 L 308 450 L 309 452 L 307 455 L 303 454 L 301 462 Q 302 468 300 467 L 298 469 Q 299 473 297 475 L 298 478 L 296 479 L 293 476 Q 291 469 294 468 L 281 464 L 281 472 L 280 473 L 275 472 L 272 473 L 273 477 L 279 474 Q 284 476 283 484 L 285 485 L 284 482 Q 283 479 286 480 L 290 490 L 289 492 Q 288 494 291 493 L 291 495 L 288 494 L 283 489 L 283 485 L 279 484 L 284 492 L 283 495 L 281 494 L 275 488 Q 277 480 273 481 L 272 477 L 270 480 L 270 484 Q 274 485 273 490 L 282 497 L 289 497 L 291 497 L 295 498 L 301 494 L 301 492 L 297 487 L 296 480 L 299 479 Q 301 478 300 482 Q 301 484 303 482 L 307 483 L 309 482 L 310 483 L 332 483 L 334 483 Q 337 484 335 480 L 335 478 L 334 476 Q 337 472 335 465 L 335 463 L 334 445 L 334 443 L 335 442 L 335 420 L 331 417 L 325 420 L 322 419 L 320 420 Q 316 421 317 419 Q 319 417 317 416 L 316 417 L 305 417 L 303 417 L 299 418 L 292 416 L 288 418 L 291 418 L 293 418 Q 298 417 296 421 L 290 422 L 287 426 Q 279 427 275 424 Q 271 423 270 426 Q 271 429 266 427 L 263 427 L 264 423 Q 268 420 276 421 L 272 418 L 269 418 L 265 422 Q 261 423 260 421 L 266 416 L 265 415 L 263 412 L 257 411 L 249 406 L 240 408 L 238 408 L 236 409 L 234 409 Q 235 411 232 410 L 231 411 L 227 408 Q 228 405 226 406 Z M 273 406 L 273 409 L 277 411 L 283 411 L 283 414 L 280 415 Q 278 418 277 414 Q 272 415 273 412 Q 270 411 271 414 L 267 415 Q 273 414 277 417 L 284 416 L 288 414 L 290 414 L 293 413 L 289 410 L 285 410 L 273 406 Z M 60 407 L 58 411 L 59 412 L 61 411 L 60 410 L 62 410 L 63 410 L 62 408 L 60 407 Z M 106 407 L 104 416 L 106 417 L 106 407 Z M 20 408 Q 19 411 22 410 Q 23 407 20 408 Z M 123 408 Q 124 415 121 420 L 123 425 Q 122 416 125 410 Q 126 407 123 408 Z M 93 409 L 92 412 L 93 412 L 93 409 Z M 103 409 L 103 419 L 104 413 L 103 409 Z M 13 411 L 13 412 L 16 412 L 13 411 Z M 24 411 L 22 414 Q 23 416 21 415 L 22 417 L 24 414 Q 26 412 24 411 Z M 98 411 Q 97 414 100 413 Q 101 410 98 411 Z M 159 411 Q 157 415 160 418 L 161 418 L 159 411 Z M 8 412 L 6 415 L 10 414 L 8 412 Z M 114 412 L 112 414 L 114 414 L 114 412 Z M 57 414 L 57 416 L 59 417 Q 60 413 57 414 Z M 95 414 L 96 416 Q 97 413 95 414 Z M 133 414 L 133 416 L 132 428 L 131 429 L 132 460 L 135 473 L 136 457 L 140 455 L 141 457 L 141 477 Q 144 481 144 488 L 148 489 L 148 481 L 145 475 L 144 464 L 143 463 L 143 455 L 141 450 L 140 420 L 139 419 L 140 414 L 138 415 L 133 414 Z M 76 415 L 73 418 L 70 417 L 71 419 L 78 419 L 77 417 Q 78 414 76 415 Z M 99 416 L 98 418 L 100 419 L 99 416 Z M 21 417 L 17 419 Q 14 418 15 421 L 13 421 L 12 420 L 9 422 Q 11 416 6 418 Q 5 422 8 421 L 6 427 L 11 426 L 13 426 L 16 425 L 21 419 L 21 417 Z M 89 417 L 90 421 L 92 418 L 89 417 Z M 284 418 L 279 422 L 285 422 L 286 420 L 284 418 Z M 62 419 L 60 421 L 62 421 Q 63 423 64 421 L 62 419 Z M 106 419 L 104 422 Q 103 428 105 432 L 106 432 L 105 428 L 106 425 L 106 423 L 106 419 Z M 112 419 L 111 423 L 112 423 L 112 419 Z M 102 420 L 102 422 L 101 426 L 103 425 Q 105 419 102 420 Z M 127 421 L 126 426 L 127 426 L 127 421 Z M 93 422 L 94 430 L 95 423 L 93 422 Z M 117 422 L 116 425 L 117 425 L 117 422 Z M 90 423 L 88 426 L 90 425 L 90 423 Z M 97 423 L 96 426 L 97 426 L 97 423 Z M 113 423 L 114 429 L 115 424 L 113 423 Z M 156 423 L 155 426 L 156 426 L 156 423 Z M 99 424 L 99 426 L 98 428 L 99 432 L 101 429 L 100 427 Q 101 423 99 424 Z M 212 425 L 209 427 Q 204 426 203 428 L 201 427 Q 195 425 196 429 L 195 428 Q 193 431 188 431 L 186 434 L 189 433 L 191 434 Q 195 435 197 432 L 202 432 L 203 436 L 206 435 Q 208 434 206 433 Q 209 427 218 429 L 218 425 L 212 425 Z M 157 427 L 156 430 L 157 430 L 157 427 Z M 185 427 L 185 428 L 187 428 L 185 427 Z M 97 428 L 95 431 L 96 444 L 96 433 L 97 432 L 97 428 Z M 103 429 L 102 437 L 103 437 L 103 429 Z M 162 429 L 161 434 Q 157 435 158 433 L 157 433 L 158 444 L 159 445 L 159 469 Q 162 470 160 477 L 161 477 L 161 449 L 159 438 L 162 436 L 164 443 L 164 452 L 165 453 L 164 458 L 165 459 L 167 474 L 168 471 L 168 456 L 165 441 L 163 437 L 163 432 L 162 429 Z M 246 429 L 245 433 L 249 432 Q 250 427 246 429 Z M 114 430 L 113 435 L 113 437 Q 115 443 112 445 L 113 452 L 114 452 L 114 430 Z M 116 430 L 115 433 L 116 433 L 116 430 Z M 109 432 L 108 438 L 109 438 L 109 432 Z M 127 432 L 126 436 L 127 436 L 127 432 Z M 250 432 Q 248 435 251 434 L 250 432 Z M 90 433 L 88 435 L 89 437 L 88 438 L 88 456 L 92 454 L 92 449 L 91 452 Q 88 451 89 448 L 89 446 Q 87 439 90 438 L 90 433 Z M 99 433 L 98 438 L 99 438 L 99 433 Z M 118 433 L 117 437 L 115 437 Q 114 440 117 440 L 117 445 L 115 445 Q 114 448 117 447 L 118 454 L 118 456 Q 117 458 120 457 L 121 454 L 119 450 L 120 448 L 119 446 L 119 444 L 120 441 L 118 441 L 119 439 L 118 433 Z M 94 435 L 93 438 L 94 438 L 94 435 Z M 106 435 L 105 445 L 106 445 L 106 435 Z M 143 435 L 144 439 L 145 437 Q 146 434 143 435 Z M 168 435 L 169 438 L 170 436 L 168 435 Z M 245 436 L 246 437 Q 247 439 248 437 L 245 436 Z M 99 439 L 97 446 Q 99 449 98 456 L 97 456 Q 98 451 95 452 L 95 455 L 94 447 L 93 455 L 91 457 L 93 457 Q 94 460 91 462 L 97 482 L 96 487 Q 99 488 97 494 L 100 497 Q 102 493 107 494 Q 108 487 104 485 Q 103 480 105 479 L 104 477 L 105 475 L 104 463 L 97 461 L 95 458 Q 100 457 103 460 L 105 460 Q 102 456 103 448 L 101 454 L 102 456 L 100 456 L 99 454 Q 98 451 101 452 L 100 449 L 100 447 L 99 439 Z M 79 440 L 75 441 L 73 441 Q 69 443 63 442 L 61 442 L 55 444 L 53 443 L 51 444 Q 47 443 48 446 Q 47 448 46 446 L 45 447 L 33 447 L 32 448 L 30 447 L 25 448 L 23 448 L 21 448 L 21 452 L 10 454 L 7 455 L 7 475 L 9 474 L 10 477 L 15 476 L 16 472 L 30 469 L 44 468 L 46 467 Q 45 464 42 465 Q 39 464 40 459 Q 50 455 64 455 L 64 452 Q 68 450 67 446 L 80 444 L 81 441 L 79 440 Z M 94 440 L 93 445 L 94 445 L 94 440 Z M 101 440 L 101 446 L 103 445 Q 105 439 101 440 Z M 241 442 L 239 447 L 240 452 L 241 452 L 241 442 Z M 243 443 L 243 453 L 244 445 Q 246 448 246 455 Q 248 454 247 449 L 247 447 Q 249 448 248 445 L 243 443 Z M 292 443 L 288 445 L 291 449 Q 290 445 293 444 L 292 443 Z M 294 444 L 294 446 L 293 448 L 295 448 L 296 445 L 294 444 Z M 79 446 Q 77 448 73 447 L 71 450 Q 67 451 70 453 L 69 452 L 67 457 Q 64 456 65 459 L 64 458 L 56 458 L 49 460 Q 43 458 44 462 L 51 466 L 50 469 L 46 471 L 44 471 Q 40 474 32 472 L 27 474 L 25 473 L 23 474 L 21 474 L 20 477 L 17 479 L 8 480 L 7 483 Q 8 485 10 483 L 21 484 L 22 485 L 23 484 L 54 484 L 57 485 L 59 484 L 68 484 L 69 485 L 70 484 L 93 484 L 87 464 Q 89 458 86 459 L 84 456 L 83 456 L 79 446 Z M 293 448 L 290 453 L 296 453 L 296 451 Q 295 448 294 450 L 293 448 Z M 234 449 L 233 460 L 234 461 L 234 471 L 232 471 L 233 469 L 230 467 L 229 470 L 231 475 L 233 472 L 235 473 L 236 463 L 237 476 L 238 462 L 239 467 L 239 468 Q 243 469 242 467 L 243 467 Q 242 469 245 468 L 246 465 L 246 467 L 247 467 Q 248 461 246 459 L 244 460 L 243 458 L 242 461 L 240 462 L 241 458 L 241 456 L 238 457 L 238 455 L 237 458 Q 236 461 234 458 L 235 456 L 234 449 Z M 117 450 L 116 459 L 117 459 L 117 450 Z M 232 453 L 231 456 L 232 456 L 232 453 Z M 105 455 L 106 459 Q 108 458 106 457 Q 107 454 105 455 Z M 111 456 L 109 459 L 111 459 Q 114 458 111 456 Z M 113 456 L 112 459 Q 111 461 114 460 L 115 458 L 113 456 Z M 270 456 L 266 462 L 267 464 L 265 465 L 266 463 L 264 461 L 264 463 L 264 464 L 263 463 L 262 463 Q 254 465 253 461 L 252 463 Q 255 464 253 466 Q 254 471 259 474 L 259 478 Q 260 482 265 481 L 268 474 Q 269 469 276 470 Q 278 469 276 468 Q 274 463 278 464 L 277 463 L 278 458 L 276 458 L 276 463 Q 270 465 268 462 Q 267 457 271 459 L 270 456 Z M 122 459 L 121 462 L 122 462 L 122 459 Z M 108 463 L 108 472 L 108 474 L 108 484 Q 112 486 111 495 L 113 494 L 115 495 L 116 495 Q 114 493 115 489 L 113 486 L 113 483 L 116 478 Q 117 469 115 465 L 108 463 Z M 122 463 Q 119 468 120 477 L 118 483 Q 123 485 122 481 L 122 479 L 123 475 L 122 463 Z M 249 464 L 248 469 L 249 469 L 249 464 Z M 130 466 L 129 469 L 130 469 L 130 466 Z M 242 471 L 239 472 L 240 474 Q 242 473 241 480 L 242 480 L 242 471 Z M 243 471 Q 242 475 245 474 Q 246 470 243 471 Z M 225 473 L 222 477 L 225 475 L 225 473 Z M 230 475 L 229 479 L 230 479 L 230 475 Z M 235 475 L 234 478 L 235 478 L 235 475 Z M 249 475 L 245 480 L 244 483 L 242 482 L 241 485 L 240 482 L 238 483 Q 235 482 236 485 Q 237 487 239 485 L 239 487 L 242 489 L 238 491 L 239 496 Q 240 500 238 502 L 243 509 L 245 503 L 245 501 Q 244 496 247 495 L 246 491 Q 247 487 243 489 L 246 484 L 246 480 L 251 476 L 249 475 Z M 132 476 L 133 484 L 133 480 Q 136 478 132 476 Z M 127 477 L 127 482 L 126 485 L 127 487 L 128 487 Q 129 480 127 477 Z M 138 478 L 137 489 L 136 490 L 138 500 L 140 501 L 138 494 L 140 486 L 138 478 Z M 253 478 L 250 482 L 255 486 L 251 491 L 252 497 L 255 497 Q 254 494 257 495 L 256 493 L 258 487 Q 259 482 257 481 Q 258 478 256 479 L 256 481 L 254 481 L 255 479 L 253 478 Z M 222 480 L 221 483 L 227 486 L 230 485 L 233 488 L 232 485 L 233 482 L 231 483 L 227 481 L 225 481 L 222 480 Z M 181 486 L 176 488 L 179 501 L 181 503 L 181 509 L 188 511 L 192 515 L 201 519 L 202 524 L 207 525 L 212 533 L 211 536 L 207 532 L 199 530 L 198 533 L 200 536 Q 199 538 198 536 Q 195 537 196 534 L 198 534 L 193 532 L 191 532 L 192 536 L 183 534 Q 181 532 180 535 L 175 532 L 170 531 Q 165 530 167 536 L 164 538 L 153 533 L 148 527 L 145 529 L 141 527 L 139 524 L 133 523 L 131 514 L 131 507 L 129 502 Q 130 499 128 500 L 125 498 L 123 492 L 123 488 L 118 488 L 119 491 Q 118 498 121 497 L 122 503 L 119 505 L 119 507 L 118 510 L 118 520 Q 124 522 123 530 L 114 532 L 111 536 L 105 535 L 102 534 L 100 535 L 95 533 L 93 534 Q 87 535 86 532 L 87 528 Q 88 524 93 525 Q 94 527 95 525 Q 94 522 97 523 L 98 521 L 96 508 L 92 504 L 93 501 Q 92 498 95 499 Q 92 496 93 489 L 91 490 L 89 489 L 69 489 L 68 488 L 66 489 L 62 488 L 60 488 L 59 489 L 44 489 L 42 489 L 39 488 L 37 489 L 10 489 L 9 488 Q 6 489 7 494 L 7 496 L 7 505 L 8 506 L 7 510 L 7 542 L 8 543 L 8 552 L 8 554 L 7 556 Q 6 561 8 563 L 7 567 L 7 569 L 7 588 L 9 589 L 17 589 L 18 588 L 20 589 L 49 590 L 50 591 L 62 590 L 63 589 L 95 589 L 96 590 L 98 589 L 137 589 L 139 589 L 149 589 L 150 590 Q 154 591 156 589 L 196 589 L 197 590 L 198 589 L 303 589 L 304 588 L 305 589 L 335 590 L 334 587 Q 333 582 335 581 L 335 561 L 334 560 L 335 558 Q 336 553 334 552 L 334 508 L 335 507 Q 336 502 334 501 Q 337 499 335 494 L 335 492 Q 336 487 334 488 L 330 488 L 319 487 L 317 487 L 315 488 L 305 487 L 306 491 L 305 495 L 298 499 L 297 504 L 299 508 L 297 521 L 291 525 L 287 524 L 288 520 L 287 517 L 288 514 L 288 512 L 285 506 Q 286 503 284 504 L 280 499 L 271 505 Q 265 505 263 502 L 265 499 Q 264 496 267 497 Q 266 493 269 491 L 267 488 L 267 486 L 262 486 L 257 499 L 257 502 L 254 503 L 254 509 L 257 512 L 259 518 L 257 519 L 255 519 L 251 518 L 247 514 L 244 511 Q 240 513 241 520 L 240 521 L 247 528 Q 248 531 245 530 L 243 530 L 241 531 L 231 527 L 228 525 Q 228 518 231 516 L 230 513 L 231 509 L 230 507 L 235 501 L 234 491 L 231 491 L 228 488 L 221 487 L 219 487 L 217 486 L 215 487 L 212 486 L 207 487 L 204 486 L 200 487 L 197 486 L 185 486 L 184 487 L 181 486 Z M 134 497 L 133 504 L 134 504 L 134 497 Z M 269 499 L 270 502 L 272 501 Q 273 498 269 499 Z M 251 500 L 250 503 L 250 504 L 251 504 L 251 508 L 249 509 L 251 512 L 252 505 L 254 502 L 252 503 L 251 500 Z M 103 506 L 100 509 L 102 518 L 99 526 L 95 529 L 98 530 L 100 527 L 103 531 L 106 530 L 109 532 L 107 527 L 107 515 L 108 514 L 107 508 Q 106 505 103 506 Z M 235 506 L 235 509 L 239 509 L 235 506 Z M 293 506 L 291 508 L 293 510 L 294 510 L 293 506 Z M 112 507 Q 110 512 111 521 L 110 522 L 112 529 L 118 528 L 116 527 L 114 522 L 115 515 L 115 513 L 114 510 Q 115 506 112 507 Z M 247 507 L 247 509 L 249 508 L 247 507 Z M 235 510 L 234 513 Q 237 512 236 515 Q 239 516 238 514 L 235 512 L 235 510 Z M 252 512 L 253 514 Q 256 515 255 513 L 254 513 L 252 512 Z M 237 516 L 236 520 L 237 520 L 237 516 Z M 293 518 L 292 521 L 293 521 L 293 518 Z M 234 520 L 232 523 L 239 526 L 240 527 L 238 522 L 236 523 L 234 520 Z M 143 523 L 143 525 Q 145 528 146 525 L 143 523 Z M 153 524 L 152 527 L 153 527 L 153 524 Z M 164 531 L 162 533 L 164 533 L 164 531 Z "></path><path d="M 155 14 L 163.5 14 L 164 16.5 L 163 19 L 166.5 21 Q 170.3 19.5 169 14 L 174.5 15 L 177 14 Q 178 17.8 175.5 19 L 173.5 19 Q 171.3 18.3 172 20.5 L 169 24.5 L 176.5 33 Q 179.5 32.2 178 36 Q 172.6 37.5 171 34.5 L 171 32.5 L 166.5 27 Q 162.1 29.4 162 35 L 155 36 L 154 33.5 L 160 29.5 L 163 23.5 L 155 17 L 155 14 Z "></path><path d="M 157 44 Q 160.7 42.5 160 45.5 L 161 46.5 L 161 60 L 157 59.5 L 157 44 Z "></path><path d="M 176.5 44 Q 179.5 45.5 178 51.5 L 176 59 L 172 57.5 L 174 46.5 L 176.5 44 Z "></path><path d="M 180.5 45 L 183 46 L 182 58.5 L 180.5 60 L 178 59 L 180.5 45 Z "></path><path d="M 187.5 46 L 190 46 L 190 51.5 L 188 56.5 L 189 59.5 L 187.5 61 L 185 60.5 L 184 56.5 Q 186.6 53.6 186 47.5 L 187.5 46 Z "></path><path d="M 193.5 46 L 196 47 L 194 61 L 190 61 L 190 54.5 L 193.5 46 Z "></path><path d="M 146 47 L 150 47 L 150 56.5 L 151 59.5 L 147 61 L 146 58.5 L 146 47 Z "></path><path d="M 152 49 L 156 50.5 L 156 58.5 L 154.5 60 L 152 58.5 L 152 49 Z "></path><path d="M 199.5 49 L 202 50.5 L 200 60.5 L 198.5 62 L 195 60.5 L 199.5 49 Z "></path><path d="M 140 50 L 144 51.5 L 145 62 Q 138.6 64.3 141 56.5 L 140 50 Z "></path><path d="M 168.5 51 L 171 52 L 171 60 L 168.5 60 Q 165.8 58.8 167 53.5 L 168.5 51 Z "></path><path d="M 135.5 52 L 138 53.5 L 139 62 L 135 60.5 L 134 53.5 L 135.5 52 Z "></path><path d="M 162 52 L 166 52 L 166 59 L 162 57.5 L 162 52 Z "></path><path d="M 205.5 52 L 208 53 L 207 60.5 L 204.5 64 Q 201.5 63.5 202 59.5 L 205.5 52 Z "></path><path d="M 113.5 53 Q 117.5 57.5 118 65.5 Q 116 70 114 66.5 L 111 55.5 L 113.5 53 Z "></path><path d="M 125.5 53 Q 127.8 52.3 127 54.5 L 128.5 58 L 129 54 L 131.5 53 Q 134.1 55.4 133 61.5 L 130 63 L 129.5 58 Q 130 63.5 126.5 65 L 125 63.5 L 124 54.5 L 125.5 53 Z "></path><path d="M 119.5 54 Q 123.7 52.7 122 57.5 Q 124.2 58.7 123 63.5 L 120 65.5 L 118 55.5 L 119.5 54 Z "></path><path d="M 210 56 Q 215.6 53.8 214 59.5 L 211.5 64 L 208 62.5 Q 210.8 60.5 210 56 Z "></path><path d="M 101.5 57 L 106 68.5 Q 104 73 102 69.5 L 99 59.5 L 101.5 57 Z "></path><path d="M 108.5 57 L 112 65.5 Q 110 70 108 66.5 L 106 58 L 108.5 57 Z "></path><path d="M 218.5 57 L 222 59.5 L 221 63.5 L 222 63.5 L 224.5 57 L 227 58.5 L 227 63.5 L 223.5 71 L 223 68 Q 219.7 69.3 221 64.5 L 220 64.5 Q 220.9 67.5 216.5 66 L 215 63.5 L 218.5 57 Z "></path><path d="M 95.5 60 Q 99.4 63.6 100 70.5 Q 98 75 96 71.5 L 93 61.5 L 95.5 60 Z "></path><path d="M 231.5 61 L 234 62.5 Q 233.6 68.1 229.5 70 Q 225.3 71.3 227 66.5 L 231.5 61 Z "></path><path d="M 87.5 62 L 90 63.5 L 94 74 L 91.5 75 Q 86.9 71.1 86 63.5 L 87.5 62 Z "></path><path d="M 185.5 62 L 184.5 64 L 185.5 62 Z "></path><path d="M 237.5 62 Q 241.3 60.8 240 64.5 L 237 72 Q 231.8 74.1 233 69.5 L 237.5 62 Z "></path><path d="M 83.5 66 Q 87.6 68.9 88 75.5 L 85 77.5 L 81 67 L 83.5 66 Z "></path><path d="M 151.5 66 L 161 66.5 L 160.5 68 L 164.5 67 L 166 68.5 L 166 76.5 L 161 89.5 L 161 92.5 L 163 96.5 L 161 101.5 L 166 118.5 L 167.5 120 L 169 111.5 L 171 108.5 Q 170.1 101.7 172 99 Q 178 96.8 176 103.5 L 170 126 L 180.5 129 L 188 125.5 L 185.5 125 L 179 127 Q 177.8 124 181.5 125 L 186 123.5 Q 185.3 121.3 181.5 122 Q 180.3 124.2 179 121.5 Q 180.2 119 184 120 Q 185.1 117.3 182.5 118 L 180 119 L 179 115 L 183 114.5 L 182 110 L 179.5 111 L 178 107 Q 181.7 108.5 181 105.5 L 179 105.5 L 178 102 Q 181.3 103.3 180 98.5 Q 179.3 96.3 175.5 97 L 173.5 98 L 170 95.5 L 172 89.5 L 170 79.5 L 167 74.5 L 167 70.5 L 168 68.5 Q 165.8 67.3 168.5 66 L 170 68.5 L 169 71 Q 172.7 69.7 171 75.5 L 172 75.5 L 173 71.5 L 172 69 L 181.5 69 L 183.5 67 L 192.5 69 L 196 72.5 Q 189.2 81.2 186 93.5 L 186 95.5 L 184 102.5 L 188 119.5 L 190.5 123 L 195 119.5 L 203 106.5 L 204 100.5 L 203 97.5 L 205 95.5 L 205 81.5 Q 202.2 79.8 204 73.5 L 205 71 L 213 71.5 L 207 72.5 L 215.5 74 L 215.5 73 L 214 72.5 L 216.5 72 L 226 76.5 L 218.5 78 Q 216.7 74.8 211.5 75 L 208.5 76 L 206.5 73 L 206 75.5 L 208 80.5 L 208 96 Q 212.5 97.5 211 93 L 214.5 93 L 217.5 95 L 218 92 Q 214.2 93 213 90.5 L 214.5 87 L 221.5 90 L 223 87 L 220.5 88 L 215 86 L 216 81.5 L 210 79 L 210.5 77 L 222.5 83 L 228.5 84 L 230 80.5 L 227 81.5 L 226 79.5 L 227 77 L 232 79 L 232 83 Q 229.3 81.9 230 84.5 L 225 88 L 225 90.5 L 221 96 Q 218.3 94.9 219 97.5 L 218 99.5 L 219 102.5 L 215 105 L 214 111.5 L 214 121.5 Q 216.5 123 215 128.5 L 216.5 130 L 222 126 L 222 124 Q 224.7 125.1 224 122.5 Q 230.9 117.9 234 109.5 L 234 107.5 L 236 104.5 L 236 95.5 L 239 82 L 247 84 Q 245.9 86.7 248.5 86 L 258 91.5 L 255.5 92 L 250 90 Q 248.9 92.7 251.5 92 L 259.5 97 L 264 94 L 262.5 97 L 261 96.5 Q 260.2 99.1 263.5 98 L 265.5 94 L 267 96.5 L 266 99 L 261.5 100 L 249 111.5 L 248 115 Q 245.3 113.9 246 116.5 L 243 126.5 L 243 139.5 L 244 143 L 226.5 140 L 218 134.5 L 216.5 132 L 203.5 135 L 191.5 128 L 187.5 128 L 181.5 131 L 175.5 131 L 168.5 127 L 164.5 129 L 148.5 132 L 140.5 128 L 131.5 135 L 121.5 135 Q 120.2 132.8 115.5 134 L 113 131.5 L 117 115.5 L 117 105.5 L 115 101.5 L 116 100.5 L 110 94.5 L 108.5 92 L 108 94 Q 105 95.3 106 91.5 Q 108.5 90 105 88.5 L 101 82.5 L 101 79.5 L 113.5 73 L 125.5 70 L 126 72 L 121 72.5 L 127 73 Q 125.9 70.3 128.5 71 Q 131.5 72.5 130 78.5 L 127 97 Q 130.3 95.7 129 100.5 L 129 102.5 L 131 108.5 L 141.5 125 L 144 121.5 L 148 107.5 L 148 98.5 L 147 94.5 L 147 92.5 L 136 71.5 L 136 69 Q 139 67.8 138 71.5 L 139.5 73 L 147 73.5 Q 144.8 74.8 147.5 76 Q 151.3 74.8 150 78.5 L 149 80.5 L 150 84 Q 146.3 82.5 147 85.5 L 151 94.5 L 150 96.5 L 152 97.5 Q 149.8 90.8 156.5 93 L 156.5 92 Q 152.8 92.8 152 90.5 L 152 88 L 159 88 L 159 85 L 153.5 86 L 152 83.5 Q 155 80.1 161 81 L 162 77.5 L 159.5 77 L 156.5 78 Q 152 76 155.5 74 L 164 71 L 163.5 69 L 154 71 L 154 69 Q 158.1 70.3 157 67 Q 153.2 66 152 68.5 Q 152.8 71.1 149.5 70 L 146.5 71 Q 141.8 69.8 140.5 72 L 140 70.5 L 140.5 68 L 142 68.5 L 142.5 67 L 150.5 67 L 151.5 66 Z M 188 69 Q 188 73 180 71 L 179 73 L 192 73 L 192 72 L 188 69 Z M 175 71 L 175 72 L 178 72 L 175 71 Z M 119 73 L 108 77 L 103 81 L 106 82 L 108 82 L 124 76 Q 126 77 125 74 L 122 75 L 119 73 Z M 177 73 L 175 77 Q 174 79 177 78 L 177 81 L 174 82 L 176 91 L 179 93 Q 182 92 181 96 L 183 95 L 182 91 Q 178 92 177 90 L 179 87 L 181 88 Q 184 89 185 87 L 180 86 L 178 82 L 188 82 L 182 81 L 180 78 L 182 79 Q 187 80 189 78 L 188 76 L 180 76 L 178 75 Q 179 72 177 73 Z M 217 74 L 219 76 L 221 76 L 217 74 Z M 127 76 L 125 78 Q 119 77 117 81 L 120 83 L 118 84 Q 112 86 113 83 L 112 83 L 112 85 L 107 85 L 108 87 L 113 86 L 115 87 L 115 85 L 119 87 L 116 89 Q 109 87 110 91 L 118 90 Q 122 92 119 94 L 115 93 L 114 96 L 116 97 L 119 95 L 121 99 L 124 98 L 125 101 L 124 100 Q 121 101 123 103 L 120 105 L 123 106 L 126 102 L 125 98 L 125 88 L 127 80 L 127 76 Z M 242 88 Q 239 92 240 99 L 240 101 L 239 107 L 242 108 L 244 104 L 249 107 L 250 107 L 247 104 L 245 100 Q 250 99 252 103 Q 255 104 254 101 L 247 99 L 249 96 L 257 99 L 258 99 L 242 88 Z M 158 94 L 157 97 L 153 99 L 154 102 L 153 103 L 154 105 Q 152 110 153 119 L 151 124 L 152 130 L 155 128 L 165 127 L 165 123 Q 161 127 155 127 L 154 124 Q 156 120 163 122 L 164 123 L 163 119 L 161 120 Q 156 121 157 119 L 157 117 L 156 113 L 160 111 L 156 109 Q 155 106 158 107 L 157 104 Q 156 98 159 97 L 158 94 Z M 208 97 L 206 99 L 207 101 L 208 99 L 208 97 Z M 119 100 L 117 102 L 119 104 L 120 101 L 119 100 Z M 208 102 L 207 105 L 211 104 L 208 102 Z M 127 105 L 126 109 L 132 126 L 136 123 L 137 126 L 138 126 L 137 120 L 136 122 L 127 105 Z M 152 105 L 149 118 L 147 121 L 151 122 L 151 113 L 152 112 L 152 105 Z M 206 108 L 207 113 L 203 112 L 197 122 Q 198 125 204 124 L 206 127 Q 205 129 208 128 L 207 126 L 208 121 L 208 119 L 203 121 L 206 121 L 206 124 L 202 122 L 203 115 L 207 116 L 208 118 L 209 109 L 208 109 L 206 108 Z M 238 108 Q 236 112 240 114 L 241 111 L 240 111 L 238 108 Z M 121 109 Q 120 112 123 111 L 124 112 Q 125 107 121 109 Z M 237 113 L 234 118 L 237 116 L 237 113 Z M 120 114 L 120 116 L 122 115 Q 125 116 124 120 L 120 118 L 118 126 Q 119 128 121 126 L 127 127 L 129 129 L 125 117 L 125 114 L 120 114 Z M 161 114 L 158 116 L 161 116 L 161 114 Z M 211 114 L 210 121 L 211 121 L 211 114 Z M 241 114 L 229 132 Q 228 134 232 133 L 234 129 L 237 132 L 234 134 L 238 135 L 238 123 L 241 117 L 241 114 Z M 234 118 L 221 131 L 222 133 Q 221 135 224 134 L 234 120 L 234 118 Z M 197 122 L 195 126 L 204 131 L 204 129 L 199 126 L 197 122 Z M 147 123 L 146 126 L 149 127 Q 150 124 147 125 L 147 123 Z M 118 126 L 116 131 L 118 132 L 131 132 L 130 129 L 129 131 L 122 130 L 120 130 L 118 126 Z M 134 128 L 134 130 L 136 129 L 134 128 Z M 210 128 L 210 131 L 212 130 Q 213 127 210 128 Z M 229 133 L 226 137 L 228 138 L 238 140 Q 240 141 239 138 L 230 137 Q 227 136 229 135 L 229 133 Z "></path><path d="M 196.5 66 L 195.5 68 L 196.5 66 Z "></path><path d="M 245.5 66 Q 249.3 64.8 248 68.5 L 243.5 75 L 240 73.5 L 245.5 66 Z "></path><path d="M 254.5 68 L 257 69 L 257 71.5 L 253 78 L 248 78 L 248 76.5 L 254.5 68 Z "></path><path d="M 76.5 70 L 82 77.5 L 82 79.5 L 79.5 81 L 74 71.5 L 76.5 70 Z "></path><path d="M 260 72 Q 263.8 71 265 73.5 L 260 82 L 255 81 L 260 72 Z "></path><path d="M 69 73 L 73 74.5 L 77 81.5 L 74.5 83 L 69 75.5 L 69 73 Z "></path><path d="M 64.5 76 Q 66.8 75.3 66 77.5 L 71 85.5 L 68.5 87 L 62 77 L 64.5 76 Z M 65 77 L 64 79 L 66 80 L 65 77 Z "></path><path d="M 268.5 76 L 272 77.5 L 266.5 86 L 263 84.5 L 268.5 76 Z "></path><path d="M 58.5 81 L 65 89.5 L 63 90 L 62.5 92 L 56 82.5 L 58 83.5 L 60.5 87 L 61 85.5 L 58.5 81 Z "></path><path d="M 275 82 Q 280.2 79.9 279 84.5 L 273.5 92 L 270 91 L 275 82 Z "></path><path d="M 167.5 85 Q 169.8 84.3 169 86.5 L 167.5 85 Z "></path><path d="M 54.5 87 L 59 93.5 L 57 93.5 Q 57.8 95.8 55.5 95 L 52 89.5 L 56 91.5 L 54.5 87 Z "></path><path d="M 82.5 87 Q 86.3 86.3 87 88.5 Q 85.8 94.2 89 95.5 L 89 103.5 L 92 113 Q 95.8 111.5 95 114.5 L 96 118.5 L 95 120.5 L 106.5 132 L 111 134 L 111.5 136 L 113 135.5 L 102 146.5 L 102 148 L 95.5 151 Q 94.3 148.7 89.5 150 L 86.5 148 L 85 148.5 L 86 146.5 L 86 135.5 L 81.5 123 Q 79.3 123.8 80 121.5 L 80 119.5 Q 81.1 116.2 78.5 117 L 70.5 110 L 67 109 L 65.5 106 L 62 105 Q 61 98.6 66.5 97 L 82.5 87 Z M 85 89 L 84 91 L 74 98 L 72 95 Q 69 94 70 98 L 72 99 Q 70 102 66 102 L 64 102 L 66 104 L 70 102 L 69 104 Q 66 103 67 107 L 78 103 L 81 100 L 81 103 L 73 106 Q 70 108 73 109 L 81 105 L 82 108 L 78 110 Q 75 112 78 113 L 81 111 L 84 113 L 82 117 L 85 116 Q 87 117 86 114 L 88 114 L 85 94 L 85 92 L 85 89 Z M 86 119 L 85 120 Q 82 119 83 122 L 86 124 Q 85 128 88 127 L 87 125 L 89 121 L 86 119 Z M 92 121 L 89 123 L 93 130 L 96 146 L 100 147 L 102 144 L 97 145 L 97 143 L 101 138 L 104 136 Q 105 134 106 137 L 105 139 L 106 140 Q 109 139 108 135 Q 99 131 93 123 Q 94 120 92 121 Z M 90 130 L 88 132 L 89 136 L 91 137 L 90 130 Z M 92 139 L 89 141 L 92 142 L 92 139 Z M 104 141 L 102 144 L 104 143 L 104 141 Z M 91 145 L 91 146 L 93 146 L 91 145 Z "></path><path d="M 283.5 87 L 287 88.5 L 282 96 L 277 96 L 277 93.5 L 283.5 87 Z "></path><path d="M 229.5 88 L 230 91.5 L 228 92.5 Q 227.3 88.8 229.5 88 Z "></path><path d="M 292.5 90 L 295 91.5 L 289.5 99 Q 287.3 98.3 288 100.5 L 285.5 102 Q 281.3 100.3 284 98.5 L 285.5 96 L 292.5 90 Z "></path><path d="M 44 91 Q 47.8 90.3 49 93.5 L 52 98.5 L 49 100 L 44 91 Z "></path><path d="M 91.5 91 L 92.5 93 L 91.5 91 Z "></path><path d="M 102.5 91 L 103.5 93 L 102.5 91 Z "></path><path d="M 80.5 95 L 81 97 L 79 96.5 L 80.5 95 Z "></path><path d="M 38 96 Q 41.8 95.3 43 98.5 L 46 103.5 L 43.5 105 L 38 96 Z "></path><path d="M 296.5 96 Q 300.3 94.8 299 98.5 L 292.5 106 L 289 103.5 L 290.5 100 L 291.5 101 L 296.5 96 Z "></path><path d="M 33.5 102 L 40 106.5 Q 41.5 110.9 38.5 110 L 32 103.5 L 33.5 102 Z "></path><path d="M 274 102 L 280.5 103 L 282 104.5 L 282.5 107 L 283 105 L 296 115 L 300 121.5 L 280 133.5 L 278.5 137 L 275.5 138 Q 274.3 135 270 136 Q 268.5 139.8 271.5 139 L 274 138 L 274 141.5 L 268 155.5 L 268 162.5 L 266.5 164 L 248 156.5 L 244 145 L 257.5 139 L 266 131.5 Q 265 127 267.5 126 L 270 124.5 L 274 109.5 L 274 102 Z M 276 104 L 276 108 L 282 113 L 295 121 L 295 118 L 289 114 Q 286 115 287 113 L 286 113 L 278 108 L 279 105 L 276 104 Z M 278 110 L 273 123 L 273 129 L 277 126 L 279 127 L 280 130 L 283 129 L 278 125 L 281 121 L 287 126 L 288 126 L 285 123 L 282 120 L 286 118 L 280 113 L 278 110 Z M 287 118 L 288 120 L 289 120 L 287 118 Z M 290 120 L 291 122 L 292 122 L 290 120 Z M 269 133 L 267 135 L 270 135 Q 271 132 269 133 Z M 267 135 L 260 141 L 256 142 L 249 147 L 250 152 L 253 153 L 252 156 L 263 160 Q 266 161 265 158 L 255 156 L 257 152 L 266 154 L 267 151 Q 269 145 266 146 L 264 145 L 267 141 L 256 151 L 252 152 Q 251 148 255 147 Q 257 148 256 146 L 267 137 L 267 135 Z M 297 158 L 298 162 L 299 159 L 297 158 Z "></path><path d="M 301.5 102 L 304 103.5 L 300 110 L 297.5 111 L 295 110 Q 293.5 106.3 296.5 107 L 301.5 102 Z "></path><path d="M 309.5 107 L 311 110.5 L 302.5 117 L 300.5 114 L 309.5 107 Z "></path><path d="M 26 108 L 28.5 108 L 35 113.5 L 31.5 116 L 27.5 111 Q 24.5 111.7 26 108 Z "></path><path d="M 48.5 111 L 53 112 L 55 122.5 L 58 129.5 L 65.5 140 Q 70.6 146.4 79.5 149 L 81.5 149 L 86 151.5 L 75.5 168 L 64 169 L 59 150.5 L 53.5 144 L 40.5 137 L 35.5 136 L 30.5 132 L 29 132.5 L 30 128.5 L 37 118 L 39 118 Q 37.9 115.3 40.5 116 L 48.5 111 Z M 49 113 L 42 117 L 39 121 L 39 122 L 45 119 L 41 125 Q 38 124 39 127 L 37 127 L 37 129 L 41 128 L 52 117 L 51 115 Q 52 112 49 113 Z M 50 121 Q 45 128 36 131 L 38 134 Q 40 135 39 133 Q 40 129 45 129 L 46 132 L 44 133 L 42 136 L 45 136 L 49 133 L 50 136 Q 51 138 48 137 L 48 139 L 56 143 L 54 140 L 57 139 L 58 140 L 57 138 L 58 136 L 56 131 Q 53 130 54 133 L 51 132 L 52 130 Q 51 127 54 128 L 54 126 L 50 129 L 47 128 Q 47 123 50 123 L 50 121 Z M 33 130 L 34 132 L 36 131 L 33 130 Z M 61 139 L 59 141 Q 58 143 62 142 L 72 159 Q 73 153 77 151 Q 67 146 61 139 Z M 60 144 Q 58 148 62 150 Q 61 153 64 152 L 60 144 Z M 78 151 L 80 155 L 81 152 L 78 151 Z M 66 153 L 63 155 L 64 157 L 66 156 L 66 153 Z M 79 155 L 74 160 L 72 160 L 74 163 L 79 157 L 79 155 Z M 68 159 L 65 160 L 66 166 L 72 165 L 73 163 L 67 164 L 68 161 L 68 159 Z "></path><path d="M 175.5 113 Q 178.5 112.2 177 116 L 174 114.5 L 175.5 113 Z "></path><path d="M 21.5 114 L 26 117.5 Q 25.3 120.1 28 119 L 28 123 L 20 116.5 L 21.5 114 Z "></path><path d="M 313.5 118 L 317 119.5 L 313 122.5 L 314 125.5 L 312.5 125 Q 308.8 125.8 308 123.5 Q 306.9 120.2 309.5 121 L 313.5 118 Z "></path><path d="M 17.5 119 L 21 121 L 24 125.5 L 20.5 127 L 16 120.5 L 17.5 119 Z "></path><path d="M 173 119 Q 178.6 117.1 177 122 L 173 120.5 L 173 119 Z "></path><path d="M 12 125 L 18 127 L 18 129 Q 20.7 127.9 20 130.5 L 18.5 133 L 15 131 L 12 125 Z "></path><path d="M 320.5 125 L 322 127.5 L 317.5 133 Q 313.5 133.5 313 130.5 L 314 128 Q 318.6 128.6 320.5 125 Z "></path><path d="M 308.5 132 L 312 134.5 Q 309.8 135.8 312.5 137 L 315 136 L 315 139.5 L 318 144 Q 320.7 142.9 320 145.5 L 323.5 150 L 326 151.5 L 327 154.5 L 325.5 156 L 318.5 157 L 305 162 L 303.5 166 L 298.5 166 L 294 170.5 L 290 176.5 L 288 186.5 L 286.5 188 Q 285 185.5 283.5 189 Q 279.1 190.5 280 187.5 L 274.5 180 Q 272.3 180.8 273 178.5 Q 267.7 175.3 266 168.5 L 267 166 L 275.5 165 L 291 157.5 Q 290.5 153.5 293.5 153 L 297 151.5 L 302 140.5 L 308.5 132 Z M 310 134 L 308 136 L 309 139 L 311 140 L 310 138 L 311 135 L 310 134 Z M 308 138 L 299 155 L 299 157 L 302 156 L 304 157 L 304 156 L 307 154 L 309 156 L 307 153 L 311 151 L 314 154 L 312 148 L 314 148 L 308 138 Z M 313 141 L 318 151 L 322 153 L 324 155 L 323 152 L 320 149 L 318 147 L 319 145 L 317 146 L 314 143 Q 315 140 313 141 Z M 280 166 L 275 168 Q 268 166 270 171 L 282 167 L 280 166 Z M 289 166 L 279 172 L 286 180 Q 286 175 289 173 L 288 169 L 291 168 Q 292 165 289 166 Z M 276 172 L 274 175 L 280 180 L 278 177 Q 279 174 276 175 L 277 173 L 276 172 Z M 281 180 Q 279 183 283 185 Q 282 187 285 186 L 281 180 Z "></path><path d="M 164 134 L 168 134.5 L 167 137.5 L 168 138.5 L 168 149.5 L 164 151 L 164 138.5 L 163 137.5 L 164 134 Z "></path><path d="M 172.5 134 Q 178.2 132.2 176 138.5 Q 178.5 140 177 145.5 L 174.5 147 L 173 145.5 Q 174 138.5 171 135.5 L 172.5 134 Z "></path><path d="M 160.5 135 L 162 143.5 L 161 148 L 157 146.5 L 158 136 L 160.5 135 Z "></path><path d="M 180 135 Q 183.8 134.3 185 137.5 L 185 147.5 L 183.5 149 L 180 147.5 L 180 135 Z "></path><path d="M 325.5 135 L 328 136.5 L 324.5 141 L 321.5 142 L 320 138.5 L 325.5 135 Z "></path><path d="M 141 136 Q 146.2 134.2 144 141.5 L 145 141.5 Q 144.5 137.5 147.5 137 Q 150.3 136.4 149 142.5 L 146.5 144 L 144.5 143 L 145 144.5 L 146 151.5 L 143.5 153 Q 139.5 146.8 141 136 Z "></path><path d="M 153.5 136 L 155 139.5 L 154 145 L 151 145 L 151 137 L 153.5 136 Z "></path><path d="M 188 136 Q 191.8 135 193 137.5 L 193 149.5 L 191.5 151 L 189 150.5 L 189 139.5 L 188 136 Z "></path><path d="M 136.5 138 L 139 139.5 L 140 143.5 L 136 145 L 134 139.5 L 136.5 138 Z "></path><path d="M 199.5 139 L 203 140.5 L 201 152 L 197 152 L 197 145.5 L 199.5 139 Z "></path><path d="M 119.5 140 Q 124 144.5 124 153.5 L 126 155.5 L 123.5 157 L 121 156 L 117 141 L 119.5 140 Z "></path><path d="M 127.5 140 Q 129.8 139.3 129 141.5 L 130 145.5 L 126 147 L 125 141 L 127.5 140 Z "></path><path d="M 207 141 L 211 142.5 Q 211.8 150.4 209 154 L 205 152.5 L 207 141 Z "></path><path d="M 217.5 142 L 220 143 L 217 156 L 213 154.5 L 215 144.5 L 217.5 142 Z "></path><path d="M 112.5 144 Q 115.8 145.2 115 149 Q 111.2 149.8 110 146.5 Q 109.3 144.3 111.5 145 L 112.5 144 Z "></path><path d="M 329.5 144 L 331 147.5 L 327.5 150 Q 322.5 147.5 327.5 145 L 329.5 144 Z "></path><path d="M 222 146 Q 227.6 143.8 226 149.5 L 221.5 159 L 219 158 L 222 146 Z "></path><path d="M 106.5 148 L 110 150.5 L 112 157.5 L 108 159 L 105 149.5 L 106.5 148 Z "></path><path d="M 229.5 149 Q 234.8 147.3 233 152.5 L 229 161 L 225 158.5 L 229.5 149 Z "></path><path d="M 101.5 152 Q 103.8 151.3 103 153.5 L 108 164.5 L 104 166 L 100 158.5 L 99 153 L 101.5 152 Z "></path><path d="M 20 153 Q 22.7 151.9 22 154.5 L 17.5 160 L 17 158.5 L 20 153 Z "></path><path d="M 87.5 154 Q 90.8 152.9 90 155.5 Q 94.7 160.3 96 168.5 L 93.5 170 L 91 167.5 L 86 155.5 L 87.5 154 Z "></path><path d="M 93.5 154 Q 97.5 153.5 98 156.5 Q 98.8 160.3 96.5 161 L 94 159.5 L 92 155.5 L 93.5 154 Z "></path><path d="M 236.5 154 Q 241.8 152.3 240 157.5 L 235.5 164 L 232 162.5 Q 232.6 156.6 236.5 154 Z "></path><path d="M 243 159 Q 246.8 158 248 160.5 L 242.5 169 L 239 168 L 243 159 Z "></path><path d="M 321.5 159 L 325 160 L 325 161.5 L 316.5 170 L 311 167.5 L 312.5 165 L 314.5 165 L 321.5 159 Z "></path><path d="M 12.5 160 L 13 162 L 11 161.5 L 12.5 160 Z "></path><path d="M 83.5 161 L 87 162.5 L 89 167.5 L 86.5 169 L 82 164.5 L 82 162.5 L 83.5 161 Z "></path><path d="M 250.5 164 L 254 165 Q 253.4 172.4 247.5 176 L 244 174.5 L 250.5 164 Z "></path><path d="M 325.5 164 L 330 165 L 328.5 168 L 326 169.5 Q 326.8 171.8 324.5 171 L 320.5 176 Q 316.5 176.5 316 173.5 L 321.5 167 L 325.5 164 Z "></path><path d="M 78.5 168 L 80 171 L 84 173.5 L 85 178 L 82.5 178 L 76 171.5 L 78.5 168 Z "></path><path d="M 304.5 169 L 309 170.5 L 302 176.5 L 299.5 180 L 295 178.5 L 304.5 169 Z "></path><path d="M 256.5 171 Q 261.3 169.3 260 173.5 L 254.5 181 L 251 179.5 Q 251.7 173.2 256.5 171 Z "></path><path d="M 66.5 173 L 71 175.5 L 71.5 177 L 73.5 174 L 77 175.5 L 75.5 179 L 73 178 L 74.5 181 L 77 182.5 Q 78.3 186.3 74.5 185 L 70 182 L 67 176 Q 64.3 177.1 65 174.5 L 66.5 173 Z "></path><path d="M 51 176 L 54 177.5 Q 53.4 183.9 48.5 186 L 46 184.5 L 51 176 Z "></path><path d="M 307.5 177 L 310 178 L 308.5 181 L 306 182.5 Q 306.8 184.8 304.5 184 L 300.5 188 L 298.5 188 L 297 185.5 L 307.5 177 Z "></path><path d="M 263.5 178 L 267 179.5 Q 266.6 185.1 262.5 187 L 260.5 188 L 258 187 L 258 184.5 L 263.5 178 Z "></path><path d="M 293.5 180 L 297 181.5 L 294.5 183 L 292 181.5 L 293.5 180 Z "></path><path d="M 63.5 181 L 69 184.5 L 70.5 187 Q 72.8 186.3 72 188.5 L 69.5 190 L 62 183.5 L 63.5 181 Z "></path><path d="M 22.5 183 L 25 184 Q 23.9 186.7 26.5 186 L 32 190.5 L 30.5 193 L 26 190.5 L 25.5 189 L 24.5 190 L 20 185.5 L 22.5 183 Z "></path><path d="M 268.5 184 L 273 185 L 269 192 L 265.5 194 L 263 190.5 L 268.5 184 Z "></path><path d="M 309.5 184 L 312 185.5 L 304.5 194 Q 301.2 195.1 302 192.5 L 301 190.5 L 309.5 184 Z "></path><path d="M 60.5 187 L 69 192.5 Q 67.3 196.8 65.5 194 L 59 189.5 L 60.5 187 Z "></path><path d="M 18.5 190 L 29 196.5 L 27.5 199 L 17 193 L 18.5 190 Z "></path><path d="M 313.5 190 L 317 191 L 315.5 194 L 312.5 196 Q 311.1 200 306 199 L 306 196.5 L 310.5 192 L 313.5 190 Z "></path><path d="M 275.5 192 L 279 193.5 L 273.5 200 L 271 199 Q 270 195.2 272.5 194 L 275.5 192 Z "></path><path d="M 57.5 193 L 65 198.5 Q 62.8 203.3 60.5 199 L 56 196.5 L 57.5 193 Z "></path><path d="M 318.5 195 L 322 197.5 L 320 201 L 312.5 206 L 310 205 L 311 201 L 317 198 L 318.5 195 Z "></path><path d="M 14.5 196 L 18.5 197 L 28 203.5 Q 29.1 206.8 26.5 206 L 13 197.5 L 14.5 196 Z "></path><path d="M 284.5 196 Q 288.3 195.3 289 197.5 Q 285.4 203.9 277.5 206 L 275 205 L 279.5 199 Q 284 199.5 284.5 196 Z "></path><path d="M 48 197 Q 56.5 197.9 61 203.5 L 59.5 206 L 48 199.5 L 48 197 Z "></path><path d="M 292.5 200 L 295 201.5 L 291.5 206 Q 285.8 207.2 283.5 212 L 281.5 212 L 280 208.5 Q 284.5 202.5 292.5 200 Z "></path><path d="M 11.5 202 L 13.5 202 L 26 211.5 L 24.5 214 L 10 203.5 L 11.5 202 Z "></path><path d="M 43 203 L 46.5 203 L 55 207 Q 56.5 210.8 53.5 210 L 43 206 L 43 203 Z "></path><path d="M 322.5 203 L 327 204 L 325.5 207 L 319.5 212 L 316.5 212 L 315 209.5 L 322.5 203 Z "></path><path d="M 298.5 207 L 299 210.5 Q 297.8 213.8 294 213 L 288.5 220 L 285 218.5 Q 286.4 212.4 291.5 210 Q 292.8 212.3 294 209.5 Q 293.1 206.5 297.5 208 L 298.5 207 Z "></path><path d="M 37 209 Q 44.7 209 49 213.5 L 47.5 217 L 38.5 211 L 36.5 212 L 37 210.5 L 37 209 Z "></path><path d="M 327.5 210 L 331 212.5 L 328.5 216 L 322.5 220 L 320 220 L 319 217.5 L 327.5 210 Z "></path><path d="M 30 216 Q 36.2 215.1 39 217 Q 37.9 219.7 40.5 219 Q 42.2 216.3 44 220.5 L 42.5 224 L 33.5 219 L 30 219 L 30 216 Z "></path><path d="M 297.5 216 L 304.5 216 L 305 218.5 L 293.5 226 Q 289.2 224.2 292 222.5 Q 291.3 220.3 293.5 221 L 297.5 216 Z "></path><path d="M 27 224 Q 35.7 222.1 39 226.5 L 37.5 230 L 27 225.5 L 27 224 Z "></path><path d="M 304.5 224 L 308 225 Q 310.1 230.2 305.5 229 L 303.5 230 L 302 229.5 L 300.5 232 Q 296.8 232.8 296 230.5 L 297 227 L 301 227 Q 299.8 224 303.5 225 L 304.5 224 Z "></path><path d="M 27.5 230 L 34 233.5 Q 34.8 237.3 32.5 238 L 26 233.5 L 27.5 230 Z "></path><path d="M 309.5 231 L 310 233 L 306 234.5 L 308.5 235 L 310.5 234 L 309.5 236 Q 303.3 236.3 300.5 240 Q 298.3 239.3 299 235.5 L 304.5 232 L 309.5 231 Z "></path><path d="M 26.5 238 L 32 241.5 L 31 245 L 28 245.5 L 30 248.5 L 29 251 L 25 249.5 Q 24.3 245.8 26.5 245 L 28 244.5 L 24 242.5 L 26.5 238 Z "></path><path d="M 307.5 239 Q 312.3 237.7 311 241 Q 308.3 239.9 309 242.5 L 310.5 242 L 312 242.5 L 307.5 245 Q 306 242.5 304.5 246 L 303 244.5 Q 302.3 240.8 304.5 240 Q 306 242.5 307.5 239 Z "></path><path d="M 309.5 246 L 313 246.5 L 309 248 L 309.5 250 L 312.5 248 L 313 249.5 L 304 253 Q 303 249.2 305.5 248 L 309.5 246 Z "></path><path d="M 331.5 251 L 333 255 Q 329.2 256.2 331.5 251 Z "></path><path d="M 27.5 252 Q 30 253.2 29 257 Q 24.5 258.8 26 253.5 L 27.5 252 Z "></path><path d="M 311.5 252 L 314 252.5 L 311 254.5 L 313.5 255 L 315.5 254 L 313.5 257 L 311.5 256 L 310 259 L 306 260 L 309.5 253 L 311.5 252 Z "></path><path d="M 310.5 261 L 312 264.5 L 308 266 Q 307.3 262.2 310.5 261 Z "></path><path d="M 27.5 262 L 28 266 Q 25.3 267.1 26 264.5 L 27.5 262 Z "></path><path d="M 308.5 268 L 310 268 L 310 272 L 306 271.5 L 308.5 268 Z "></path><path d="M 26 270 L 28 270.5 L 26.5 273 L 26 270 Z "></path><path d="M 309 273 Q 312.7 271.8 311 277 L 308 276.5 L 309 273 Z "></path><path d="M 229 388 Q 231.7 386.9 231 389.5 L 232.5 392 L 229.5 390 L 228 390.5 L 229 388 Z "></path><path d="M 207.5 392 Q 212.3 390.3 211 394.5 L 210 397 L 208 396.5 Q 211.8 394.8 208.5 393 L 207.5 395 Q 204.5 393.5 207.5 392 Z "></path><path d="M 215.5 393 L 216 395 L 214 394.5 L 215.5 393 Z "></path><path d="M 223.5 393 L 224.5 395 L 223.5 393 Z "></path><path d="M 231.5 393 L 233 395.5 L 230 395.5 L 231.5 393 Z "></path><path d="M 205.5 395 L 207 397.5 L 201.5 399 L 201.5 398 L 205 397 L 205.5 395 Z "></path><path d="M 214 396 Q 217 395 216 398 Q 213 399 214 396 Z "></path><path d="M 208.5 399 L 209.5 401 L 208.5 399 Z "></path><path d="M 13.5 402 L 15 404.5 L 13 403.5 L 13.5 402 Z "></path><path d="M 175.5 403 L 177 405.5 L 175 404.5 L 175.5 403 Z "></path><path d="M 301.5 418 L 302.5 419 L 312.5 419 L 314 420.5 L 312.5 423 L 304.5 422 L 302 423 L 301.5 421 L 299.5 422 L 298 419 L 301.5 418 Z "></path><path d="M 47.5 422 L 49 424.5 L 45.5 427 L 43 426 L 44.5 423 L 47.5 422 Z "></path><path d="M 39.5 426 L 43 427.5 L 25 436 L 24 433.5 L 39.5 426 Z "></path><path d="M 52.5 426 L 67.5 427 L 73.5 430 L 76.5 429 L 79 430.5 L 77.5 433 L 71.5 433 L 66.5 430 L 61.5 430 L 59.5 430 L 54.5 429 L 52 430 L 51 427.5 L 52.5 426 Z "></path><path d="M 273.5 427 Q 277.3 426.3 278 428.5 Q 274.9 430.3 276.5 432 Q 275.2 429.8 270.5 431 L 261.5 434 Q 258 432 262.5 430 L 273.5 427 Z "></path><path d="M 284.5 428 L 285.5 430 L 284.5 428 Z "></path><path d="M 281.5 449 L 282.5 451 L 276.5 454 L 276 452.5 L 281.5 449 Z "></path><path d="M 71.5 453 L 73.5 456 L 71 455.5 L 71.5 453 Z "></path><path d="M 283 467 Q 286 465.8 285 469.5 L 286 475 Q 283 476.3 284 472.5 L 283 467 Z "></path><path d="M 317.5 533 L 321.5 534 L 324 536.5 Q 324.5 541 321 541.5 L 325 542 L 323.5 545 L 315 544 L 315.5 546 L 329.5 546 L 330 548.5 L 327.5 552 L 316.5 552 L 316 553.5 L 318.5 554 L 326.5 553 L 332 554 L 333 557.5 Q 330 563 319.5 561 L 317.5 561 L 316 561.5 L 316 563.5 L 317 572.5 Q 314.8 573.8 316 578.5 L 317 581 L 312 581 L 312 579.5 Q 309.2 577.8 311 571.5 L 312 569.5 L 311 568.5 L 311 560 L 307 561.5 Q 307.8 564.1 304.5 563 L 303 559.5 Q 304 556 309.5 557 L 311 557.5 L 310.5 556 L 300.5 556 L 299 552 L 308 549.5 L 302 547 L 304.5 543 Q 309.8 544.3 311 541.5 Q 310.4 536.4 313.5 535 L 317.5 533 Z M 316 537 L 316 538 L 319 538 L 316 537 Z M 316 540 Q 314 543 317 542 L 316 540 Z M 311 544 L 308 546 L 311 546 L 311 544 Z M 321 548 L 318 550 L 322 550 Q 323 547 321 548 Z M 305 552 Q 304 556 311 554 Q 312 551 305 552 Z M 321 555 L 320 556 Q 315 555 316 558 L 326 559 L 327 556 L 321 555 Z "></path><path d="M 344.5 546 L 343.5 548 L 344.5 546 Z "></path><path d="M 343.5 555 L 344.5 557 L 343.5 555 Z "></path><path d="M 343.5 561 L 344.5 563 L 343.5 561 Z "></path><path d="M 319.5 565 L 323 566.5 Q 321.8 569 318 568 L 319.5 565 Z "></path><path d="M 341.5 588 L 342 590.5 L 341 590.5 L 341.5 588 Z "></path><path d="M 345.5 588 L 346 591.5 L 345 591.5 L 345.5 588 Z "></path></svg>