<svg width="350" height="600" version="1.1" xmlns="http://www.w3.org/2000/svg" desc="Created with imagetracer.js version 1.2.5"><path d="M 191.5 3 L 193.5 3 L 196.5 4 L 226.5 4 L 227.5 3 L 263.5 3 L 264.5 4 L 289.5 4 Q 291.2 1.3 297.5 3 L 299.5 4 L 302.5 3 L 304.5 4 L 305.5 3 L 332.5 3 L 335 4 L 335 56.5 L 336 58.5 L 336 60.5 L 335 90.5 L 335 92.5 L 336 109.5 L 335 114.5 L 335 116.5 L 335 125.5 L 336 126.5 L 335 131.5 L 336 132.5 L 336 289.5 L 337 291.5 L 336 292.5 L 336 325.5 L 336 327.5 L 336 345.5 L 337 347.5 L 336 350.5 L 337 352.5 L 337 354.5 L 337 418.5 L 336 419.5 L 336 429.5 L 336 431.5 L 336 440.5 L 337 441.5 L 337 471.5 L 336 475.5 L 337 476.5 L 337 487.5 L 336 492.5 L 337 494.5 L 336 496.5 L 337 497.5 L 337 506.5 L 336 509.5 L 337 510.5 L 337 568.5 L 338 570.5 L 337 574.5 L 338 578.5 L 337 581.5 L 338 583.5 L 338 585.5 Q 338.6 590.9 337 593 L 329.5 594 L 326.5 593 L 324.5 594 L 322.5 593 L 315.5 595 L 270.5 595 L 269.5 594 L 233.5 594 L 232.5 595 L 177.5 595 L 175.5 594 L 173.5 594 L 152.5 594 L 151.5 595 L 116.5 596 Q 115.3 593.8 110.5 595 L 109.5 596 L 70.5 596 L 69.5 595 L 58.5 595 L 56.5 595 Q 49 593.5 45.5 596 L 43.5 595 L 41.5 596 L 39.5 596 L 7.5 596 L 6 594.5 L 6 577.5 L 7 575.5 L 6 574.5 L 6 535.5 L 7 534.5 L 7 526.5 L 6 523.5 L 7 522.5 L 7 486.5 L 6 485.5 L 6 472.5 L 7 469.5 Q 4.7 468.2 6 463.5 L 7 458.5 L 6 456.5 L 7 455.5 L 7 442.5 L 7 440.5 L 7 427.5 L 6 425.5 L 7 424.5 L 7 416.5 L 6 413.5 L 7 412.5 L 7 403.5 L 7 401.5 L 7 378.5 L 6 377.5 L 6 375.5 L 7 353.5 L 6 352.5 L 6 339.5 L 6 337.5 L 6 314.5 L 7 310.5 L 7 308.5 L 6 306.5 L 6 178.5 L 5 175.5 L 6 173.5 L 5 171.5 L 6 166.5 L 6 164.5 L 5 160.5 L 6 157.5 L 5 156.5 L 5 142.5 L 6 141.5 L 6 124.5 L 5 120.5 L 6 115.5 L 5 112.5 L 6 107.5 L 5 102.5 L 6 98.5 Q 3.5 97 5 91.5 L 6 90.5 L 6 79.5 L 5 78.5 L 5 56.5 L 6 55.5 L 6 46.5 Q 3.5 45 5 39.5 L 6 37.5 L 5 32.5 Q 7.5 31 6 25.5 L 6 23.5 L 5 21.5 L 5 7.5 L 6.5 6 Q 12 7.5 13.5 5 L 99.5 5 L 103.5 4 L 105.5 4 L 172.5 5 L 173.5 4 L 190.5 4 L 191.5 3 Z M 243 6 L 242 7 L 227 7 L 226 8 L 206 8 L 205 9 L 203 8 L 188 8 L 187 9 Q 180 11 179 8 Q 173 7 172 9 L 170 8 L 165 9 L 162 8 L 159 9 L 156 8 L 152 9 L 150 8 L 135 8 L 134 7 L 131 8 L 97 8 L 95 8 L 85 9 L 83 9 L 71 8 L 69 8 L 58 9 L 56 9 L 40 8 L 38 8 L 34 9 L 26 9 L 25 8 L 12 9 L 10 11 L 10 59 L 9 60 Q 8 64 10 66 L 9 68 Q 8 72 10 74 L 10 122 L 9 123 L 10 126 L 10 159 L 10 161 L 9 163 L 9 189 L 10 190 L 10 279 L 9 280 Q 8 284 10 286 L 10 406 L 9 407 L 10 409 L 9 411 L 10 441 L 12 442 Q 17 444 19 441 L 28 443 L 29 442 L 42 442 L 53 440 L 55 440 L 68 435 L 82 433 L 85 432 L 87 433 Q 88 431 94 432 L 96 432 Q 100 435 108 434 L 127 442 L 129 437 L 130 422 L 130 420 Q 132 416 131 410 L 136 396 L 136 389 L 138 384 L 141 365 L 135 361 Q 137 355 134 356 L 130 353 L 130 347 L 126 340 L 126 337 L 138 318 L 158 291 L 169 279 L 169 277 L 167 275 L 163 270 L 163 265 Q 159 261 160 254 L 158 259 L 155 260 L 152 261 L 148 259 L 145 261 L 138 261 L 128 257 L 125 254 L 123 252 L 120 248 L 110 249 L 104 253 L 98 253 Q 93 251 94 245 L 91 246 L 87 246 L 88 254 L 95 266 Q 94 268 97 267 L 100 272 L 99 274 L 96 274 L 84 280 L 76 278 L 65 278 L 58 276 L 55 273 L 59 270 L 63 264 L 67 249 L 66 243 Q 62 241 65 240 L 63 236 L 63 231 L 61 229 L 63 227 Q 62 221 64 220 L 61 218 L 59 215 L 59 211 L 65 206 L 61 197 L 50 181 L 44 167 L 48 164 L 72 163 Q 69 160 69 155 L 78 153 L 88 145 L 98 142 Q 103 140 101 146 L 105 146 L 105 152 L 98 164 L 102 165 L 102 168 L 92 187 L 83 209 L 85 213 L 86 213 L 85 209 L 87 206 L 90 212 Q 89 217 85 220 L 90 228 L 97 225 L 100 227 Q 104 228 102 224 Q 107 222 109 226 L 106 233 L 107 235 Q 110 232 110 225 L 107 223 L 106 220 L 113 214 Q 115 215 114 211 Q 116 205 124 205 L 130 198 L 132 189 L 133 188 L 130 185 Q 129 179 132 178 L 132 172 L 137 167 L 136 164 L 146 157 L 150 158 L 156 158 L 167 152 L 170 153 L 173 153 L 169 147 Q 168 144 164 145 Q 162 147 161 145 Q 162 141 158 143 L 159 141 L 159 139 Q 157 142 153 141 L 156 137 L 154 132 L 151 133 L 145 131 Q 144 136 147 139 L 146 143 L 148 147 Q 148 151 145 153 L 140 152 L 138 153 L 136 152 L 134 152 L 134 148 L 133 148 L 129 147 Q 128 142 131 142 L 130 139 L 126 141 L 123 140 Q 118 139 119 134 Q 120 129 126 130 L 127 124 L 124 123 L 125 119 Q 119 119 116 115 L 116 112 L 120 106 L 122 99 Q 121 95 124 96 L 124 93 L 129 92 L 128 89 L 133 85 L 139 88 L 141 93 L 148 97 L 153 97 L 162 92 L 170 90 L 188 89 L 195 85 L 200 85 L 212 91 L 217 97 L 225 113 L 229 126 L 229 134 L 229 136 L 230 138 L 230 150 L 236 152 L 242 152 L 256 159 L 266 172 L 265 174 Q 274 175 281 180 L 286 186 L 292 197 Q 293 199 297 199 L 305 214 L 305 223 L 300 228 Q 301 232 297 233 L 297 236 Q 295 241 286 240 L 285 239 L 280 244 Q 281 246 278 245 L 277 249 Q 278 253 274 251 Q 275 255 273 256 Q 270 255 271 258 L 269 257 L 264 271 L 259 274 Q 256 275 258 277 L 256 278 L 253 278 L 249 276 L 245 286 L 243 284 L 242 284 L 243 289 L 249 298 L 253 309 L 268 339 L 267 344 Q 265 347 263 346 L 267 357 L 262 361 Q 258 360 259 364 Q 258 368 253 367 L 252 372 Q 251 374 246 373 L 238 394 L 234 412 L 229 421 L 229 429 L 228 430 L 229 438 L 229 440 L 230 443 L 231 438 L 248 439 L 262 442 L 282 439 L 296 433 L 306 431 Q 322 429 332 433 L 332 310 L 333 309 Q 335 303 332 302 L 332 257 L 333 256 L 332 252 Q 331 246 333 245 L 333 234 L 332 233 L 332 190 L 333 189 L 333 181 L 332 180 L 331 36 L 331 34 Q 330 28 332 27 L 331 9 L 332 7 L 303 7 L 302 8 Q 297 9 296 7 L 273 8 L 269 8 L 264 7 L 259 8 L 257 8 L 250 8 L 243 6 Z M 196 87 L 193 90 L 201 92 Q 207 97 210 106 Q 211 113 208 117 L 208 122 L 211 131 L 217 144 L 216 146 Q 218 151 214 150 L 213 144 L 211 158 Q 208 166 201 172 L 199 177 L 197 178 Q 191 180 190 177 L 188 178 L 181 175 L 176 175 L 174 175 L 159 169 L 154 169 L 152 165 L 159 166 L 160 166 L 156 162 L 151 161 L 145 161 Q 145 164 141 163 L 141 167 Q 145 166 144 169 L 142 170 L 158 172 L 162 176 Q 164 175 163 178 L 171 184 L 192 192 Q 197 194 199 191 L 205 191 Q 203 187 208 188 Q 222 176 227 155 L 227 136 L 226 135 L 225 123 L 224 123 L 224 131 L 225 132 Q 226 136 224 138 Q 225 141 221 139 Q 222 128 220 120 L 218 126 L 216 126 L 211 122 L 215 111 L 215 103 L 213 96 L 202 89 L 200 89 L 196 87 Z M 131 88 L 133 92 Q 134 95 132 94 L 130 94 L 128 98 Q 127 101 130 100 L 130 103 L 124 105 Q 118 108 118 114 L 124 111 Q 126 110 125 113 L 124 115 Q 127 116 126 114 L 131 109 L 132 111 L 128 120 L 131 120 L 134 112 Q 136 109 137 112 Q 133 114 133 121 L 135 120 Q 134 117 137 118 L 140 109 L 142 106 L 140 107 Q 136 106 137 109 Q 133 110 134 108 L 142 103 L 143 106 L 148 100 L 141 97 L 137 91 Q 136 87 131 88 Z M 188 91 L 187 92 L 170 93 L 156 97 L 144 109 L 142 114 L 143 124 L 146 122 L 147 124 L 149 123 L 150 128 L 151 128 L 150 125 L 150 122 L 152 122 L 152 118 Q 155 119 154 116 Q 157 115 156 118 L 157 118 L 157 114 Q 161 115 160 112 L 163 111 L 166 113 L 168 109 L 169 111 L 173 109 L 175 112 Q 179 113 178 111 L 177 111 L 176 108 L 179 107 Q 181 106 180 109 L 182 108 L 183 112 L 185 108 L 185 112 Q 188 113 187 109 L 190 109 L 192 112 L 194 109 Q 196 108 195 112 L 197 111 Q 199 110 198 113 L 200 112 L 204 115 L 202 118 L 204 118 L 206 114 L 206 106 L 202 98 L 196 93 L 188 91 Z M 125 100 L 123 102 L 124 103 L 127 101 L 125 100 Z M 222 113 L 221 116 L 222 116 L 222 113 Z M 169 115 L 160 119 L 157 124 L 160 123 L 166 124 Q 169 127 170 133 L 171 136 L 171 137 L 167 128 Q 164 129 166 131 L 165 131 L 163 131 L 160 132 L 162 137 L 167 141 L 168 140 L 171 145 L 171 143 Q 172 140 174 142 L 177 141 Q 181 142 180 139 Q 183 138 182 142 L 178 144 L 179 146 L 174 147 L 174 144 L 171 146 L 174 151 L 177 151 L 184 148 L 188 143 L 189 144 L 184 150 Q 183 153 179 152 L 177 156 L 174 157 Q 170 156 171 159 L 178 161 L 185 161 L 185 160 L 188 161 L 204 156 Q 207 155 207 151 L 205 149 L 205 151 L 204 154 L 200 155 L 199 153 L 202 154 L 203 152 L 202 151 Q 196 146 195 138 Q 196 133 193 134 L 193 128 L 189 124 L 187 124 L 187 118 Q 184 118 185 115 L 169 115 Z M 218 115 L 216 117 Q 215 121 219 119 L 218 115 Z M 133 121 L 129 127 L 130 129 L 132 128 L 130 133 Q 129 136 132 135 L 133 131 L 133 121 Z M 137 121 Q 137 130 134 137 L 135 145 L 137 144 L 137 146 L 137 148 L 138 150 L 140 147 L 137 141 L 137 121 Z M 204 122 Q 201 126 205 125 L 204 122 Z M 193 123 L 192 126 L 195 127 L 196 124 L 195 123 L 193 123 Z M 157 124 L 157 129 L 157 130 L 164 127 L 162 125 L 157 126 L 157 124 Z M 142 129 L 140 132 L 142 131 L 142 129 Z M 127 131 L 124 135 L 124 137 Q 123 139 126 138 L 127 134 L 127 131 Z M 208 131 Q 208 135 203 133 L 204 135 Q 206 134 205 137 L 201 136 Q 200 139 203 141 L 201 142 L 199 142 L 200 146 Q 206 145 209 148 L 210 144 L 210 139 L 208 131 Z M 140 133 Q 139 141 143 144 L 144 142 L 142 138 Q 144 132 140 133 Z M 144 144 L 142 151 L 145 149 L 144 144 Z M 94 145 Q 93 147 97 146 L 98 147 Q 99 143 94 145 Z M 92 146 L 87 150 L 87 151 L 91 151 Q 90 148 93 147 L 92 146 Z M 99 147 L 99 151 L 92 154 L 97 157 L 100 156 L 101 148 L 99 147 Z M 231 152 L 230 156 L 232 155 L 231 152 Z M 235 154 L 234 158 L 236 162 L 238 161 L 239 155 L 235 154 Z M 76 156 L 74 160 L 78 157 L 76 156 Z M 82 156 L 81 159 L 85 159 L 82 158 L 82 156 Z M 242 156 L 242 159 L 245 160 L 247 159 L 242 156 Z M 89 158 Q 87 161 90 160 L 89 158 Z M 228 159 L 229 167 L 233 168 L 234 166 L 232 162 L 228 159 Z M 79 160 L 78 162 Q 80 165 81 162 L 79 160 Z M 163 160 L 161 162 L 164 162 Q 165 159 163 160 Z M 86 161 L 84 163 L 87 165 L 86 165 L 85 166 L 82 165 L 83 167 Q 84 169 81 168 L 79 165 L 77 164 L 75 165 L 78 166 L 78 168 L 72 168 L 72 170 L 75 169 L 80 170 L 90 168 Q 94 166 94 161 L 91 162 L 86 161 Z M 241 161 L 238 162 L 237 165 L 240 165 L 241 167 L 244 163 L 241 161 Z M 247 162 L 247 165 Q 249 168 250 165 Q 251 160 247 162 Z M 254 162 L 254 164 L 257 165 L 256 164 Q 257 161 254 162 Z M 163 163 L 163 165 L 166 165 L 163 163 Z M 65 166 L 50 169 L 67 169 Q 68 171 69 169 Q 70 166 68 167 L 65 166 Z M 161 166 Q 159 169 162 168 L 161 166 Z M 175 167 L 174 170 L 175 170 L 175 167 Z M 192 167 L 192 168 L 195 168 L 192 167 Z M 198 167 Q 195 169 196 174 L 195 173 L 193 174 L 193 175 L 197 175 L 198 169 L 198 167 Z M 237 167 L 235 171 L 236 178 L 240 170 L 237 169 L 237 167 Z M 177 168 L 176 172 L 181 172 L 180 171 L 178 171 L 177 168 Z M 226 168 L 219 180 Q 223 184 224 191 L 225 190 L 226 180 L 230 174 L 226 168 Z M 245 168 L 243 171 L 245 172 L 245 168 Z M 185 169 Q 184 172 187 171 Q 188 168 185 169 Z M 137 170 L 136 175 L 139 173 Q 140 169 137 170 Z M 193 170 L 190 174 L 193 172 L 193 170 Z M 88 171 L 88 173 L 94 172 L 88 171 Z M 251 171 L 249 174 L 251 174 L 251 171 Z M 70 172 L 71 175 L 70 176 L 63 177 L 70 177 L 70 179 L 55 179 L 54 181 L 61 181 L 62 182 Q 67 180 66 184 L 62 183 Q 58 182 57 185 L 63 186 L 65 186 Q 70 184 69 188 L 60 189 Q 63 192 70 190 L 70 192 L 63 192 L 64 194 L 71 194 L 71 196 L 69 195 L 65 197 L 70 198 L 72 197 Q 76 196 75 199 L 68 200 L 74 202 L 69 202 L 69 204 L 74 204 L 74 206 L 77 207 L 81 205 L 86 195 L 86 193 L 83 194 Q 82 191 87 192 L 88 190 L 82 191 L 83 189 L 89 189 L 96 173 L 88 176 L 83 175 L 80 176 Q 74 178 75 174 L 84 174 L 85 173 L 84 172 L 82 172 L 80 173 L 79 172 L 70 172 Z M 60 173 L 60 174 L 69 174 L 60 173 Z M 142 173 Q 141 176 144 175 Q 145 172 142 173 Z M 148 173 L 146 176 L 150 177 L 152 181 L 155 180 Q 157 181 156 178 L 148 173 Z M 259 173 L 258 176 L 260 176 L 259 173 Z M 52 175 L 52 176 L 54 176 L 52 175 Z M 57 175 L 56 177 L 62 177 L 57 175 Z M 241 175 L 239 177 L 241 178 L 241 175 Z M 249 176 L 247 180 L 249 179 L 249 176 Z M 264 176 Q 263 180 266 179 Q 267 175 264 176 Z M 138 177 Q 137 180 140 179 Q 141 176 138 177 Z M 268 177 Q 265 181 269 180 L 268 177 Z M 231 178 L 229 180 L 230 185 L 231 181 L 231 178 Z M 271 179 L 272 183 L 272 182 L 273 182 L 272 186 L 273 189 Q 276 187 275 180 L 271 179 Z M 136 180 L 134 184 L 136 183 L 136 180 Z M 247 180 L 246 186 L 248 186 L 247 185 L 248 183 L 247 180 Z M 159 181 L 159 185 L 161 184 L 163 188 L 164 185 L 166 189 L 167 187 L 162 181 L 159 181 Z M 239 181 L 237 185 L 239 184 L 239 181 Z M 263 181 L 263 183 L 262 186 L 264 186 L 264 181 L 263 181 Z M 155 182 L 154 187 L 152 187 L 153 189 L 155 188 L 155 182 Z M 217 182 L 215 184 L 216 185 L 216 196 L 218 197 L 217 193 L 219 187 L 217 182 Z M 267 182 L 266 184 L 266 186 Q 265 188 268 187 Q 269 183 267 182 Z M 276 182 L 277 186 L 275 189 L 278 190 L 277 189 L 279 186 L 279 184 Q 280 180 276 182 Z M 145 183 Q 144 186 147 185 Q 148 182 145 183 Z M 157 183 L 157 189 L 157 186 Q 159 184 157 183 Z M 138 184 L 135 191 L 136 193 L 133 199 L 131 209 L 130 209 L 131 204 L 131 202 L 127 210 L 127 209 Q 128 205 126 206 Q 123 207 125 209 L 121 219 L 120 219 L 121 216 L 121 214 L 118 221 Q 123 222 124 218 Q 122 212 126 213 L 128 213 L 128 212 L 130 211 L 127 218 L 128 222 L 130 215 L 133 212 L 132 211 L 140 186 Q 141 183 138 184 Z M 233 184 L 232 187 L 228 189 Q 227 191 230 190 L 232 194 L 233 188 L 233 184 Z M 250 184 L 248 190 L 250 189 L 250 184 Z M 141 185 L 140 190 L 141 192 L 143 189 Q 144 184 141 185 Z M 150 185 Q 148 188 151 187 L 150 185 Z M 215 185 L 213 189 Q 215 190 214 195 L 215 195 L 215 185 Z M 269 185 Q 268 189 271 188 Q 272 184 269 185 Z M 280 185 L 280 187 L 280 189 L 279 191 L 279 193 L 276 201 Q 275 203 278 202 L 280 198 L 279 196 Q 282 194 280 193 L 282 188 Q 283 184 280 185 Z M 256 186 Q 253 187 255 189 L 253 194 L 255 194 L 256 192 L 256 186 Z M 252 187 L 250 191 L 252 192 L 252 187 Z M 145 188 L 142 192 L 143 196 L 145 191 L 145 188 Z M 211 189 L 212 192 L 213 190 L 211 189 Z M 240 189 L 239 192 L 240 192 L 240 189 Z M 259 189 L 257 191 L 258 194 L 260 190 L 259 189 Z M 282 189 Q 281 192 284 191 Q 285 188 282 189 Z M 179 190 L 177 194 L 179 193 L 179 190 Z M 245 190 L 244 194 L 246 193 L 245 190 Z M 262 190 L 260 196 L 262 195 L 262 190 Z M 162 191 L 163 193 Q 164 190 162 191 Z M 264 191 L 262 199 L 265 200 Q 264 194 267 192 L 264 191 Z M 269 191 L 266 198 L 266 200 Q 265 202 268 201 L 270 194 L 269 191 Z M 271 191 L 269 198 Q 268 202 271 201 L 272 197 L 273 197 L 272 201 L 275 202 L 277 193 L 276 193 L 271 191 Z M 148 192 L 146 194 L 148 194 L 148 192 Z M 182 192 L 182 195 L 188 195 L 182 192 Z M 205 192 Q 203 195 206 194 L 208 197 L 208 193 L 205 192 Z M 226 192 L 225 193 Q 221 192 222 196 L 219 197 L 220 199 L 219 202 L 216 203 L 220 205 Q 224 203 223 196 Q 224 193 226 195 L 229 194 L 226 192 Z M 139 193 L 137 203 L 133 210 Q 132 212 135 211 L 139 203 Q 138 196 141 194 L 139 193 Z M 248 193 L 247 196 L 248 196 L 248 193 Z M 149 194 L 145 197 Q 142 198 143 202 L 143 204 L 138 218 L 139 220 L 139 218 L 143 217 Q 146 218 145 215 L 149 214 Q 148 210 151 209 L 150 205 L 149 209 Q 145 210 148 212 L 142 215 L 143 212 L 145 212 L 145 207 L 149 196 L 149 194 Z M 169 194 L 168 197 L 169 197 L 169 194 Z M 191 194 Q 190 198 193 197 Q 194 193 191 194 Z M 237 194 L 235 197 L 238 198 L 237 194 Z M 281 194 L 280 200 L 281 202 L 283 197 Q 284 193 281 194 Z M 160 195 L 161 198 L 162 222 L 167 223 L 168 226 L 171 228 L 169 221 Q 170 217 167 218 Q 166 215 169 216 Q 167 213 168 207 L 165 199 Q 167 192 160 195 Z M 175 195 L 175 197 L 177 196 L 175 195 Z M 197 195 L 195 198 L 196 200 L 197 198 L 197 195 Z M 201 195 Q 202 198 199 197 L 199 200 L 192 205 L 186 206 L 190 214 Q 193 215 192 212 L 201 209 L 204 210 L 203 212 L 199 215 L 201 221 L 201 225 L 195 232 L 193 239 L 197 238 L 205 239 L 207 234 L 211 230 L 211 206 L 204 203 L 205 200 L 203 197 Q 204 194 201 195 Z M 284 195 L 283 200 L 284 202 L 286 199 Q 287 194 284 195 Z M 150 196 L 149 201 L 151 200 L 150 196 Z M 229 196 L 230 202 L 231 197 L 229 196 Z M 245 196 L 243 198 L 244 201 L 245 198 L 245 196 Z M 142 197 L 141 200 L 142 200 L 142 197 Z M 181 197 L 179 199 L 181 199 L 181 197 Z M 210 197 L 209 200 L 211 200 L 210 197 Z M 227 197 L 225 200 L 226 202 L 225 215 L 224 216 L 225 225 L 226 211 L 227 210 L 227 197 Z M 247 197 L 245 201 L 245 206 Q 248 208 248 213 Q 250 212 248 211 L 249 208 L 249 205 L 248 207 L 246 204 L 247 200 Q 249 198 247 197 Z M 260 197 L 261 199 Q 262 196 260 197 Z M 289 197 L 287 201 L 287 202 Q 289 203 288 201 Q 292 199 289 197 Z M 208 198 L 207 201 L 209 202 L 208 198 Z M 241 199 Q 239 202 242 201 L 241 199 Z M 250 199 Q 247 200 249 202 L 248 204 L 250 203 L 250 199 Z M 291 199 L 290 201 L 290 202 L 292 202 L 291 199 Z M 152 200 L 150 202 Q 149 206 152 205 L 152 200 Z M 189 201 L 189 203 L 191 202 L 189 201 Z M 212 201 L 212 204 Q 211 206 214 205 L 214 212 L 213 213 L 214 217 L 214 225 L 213 226 L 215 231 L 215 223 L 216 222 L 214 214 L 216 209 L 215 204 L 212 201 Z M 251 201 L 251 209 L 253 209 L 252 206 L 253 204 Q 254 200 251 201 Z M 255 201 L 254 205 Q 253 208 256 207 L 257 203 Q 258 200 255 201 Z M 259 201 L 259 207 L 260 205 L 259 201 Z M 234 202 L 232 205 Q 231 207 234 206 L 234 202 Z M 261 202 L 260 213 L 257 223 L 259 226 L 264 204 L 261 202 Z M 265 203 L 264 207 L 265 210 L 267 206 Q 268 202 265 203 Z M 268 203 L 268 206 L 270 205 Q 271 202 268 203 Z M 273 203 L 269 213 L 270 215 L 268 220 L 266 219 L 267 217 Q 265 215 268 214 Q 269 211 266 212 Q 264 215 265 221 L 269 223 L 277 221 L 280 206 L 281 204 L 278 206 L 277 204 L 273 203 Z M 291 203 L 289 205 L 291 205 L 291 203 Z M 294 203 L 293 206 L 294 206 L 294 203 Z M 175 204 Q 172 209 175 211 L 174 214 L 180 216 L 183 207 Q 176 209 175 204 Z M 283 204 L 282 207 L 283 207 L 283 204 Z M 222 205 L 220 206 L 218 208 L 218 234 L 218 236 L 220 236 L 221 235 L 221 215 L 222 214 L 222 205 Z M 236 206 L 234 209 L 236 209 L 236 206 Z M 68 207 L 65 208 L 63 212 L 65 215 Q 65 210 69 208 L 68 207 Z M 123 207 L 121 209 L 123 209 L 123 207 Z M 153 207 L 151 211 L 152 213 L 153 211 L 153 207 Z M 269 207 L 267 210 L 267 211 L 269 210 L 269 207 Z M 292 207 L 292 210 L 294 209 Q 295 206 292 207 Z M 255 208 L 254 211 L 255 211 L 255 208 Z M 257 208 L 257 210 Q 255 211 258 212 L 259 210 Q 260 207 257 208 Z M 296 208 L 294 210 L 296 210 L 296 208 Z M 158 209 L 158 214 L 159 214 Q 160 210 158 209 Z M 282 209 L 279 215 L 280 217 L 282 212 L 282 209 Z M 285 209 L 282 215 L 284 217 L 285 215 L 285 209 Z M 288 209 L 287 211 L 287 213 Q 284 216 285 224 L 287 223 L 286 221 L 289 214 Q 290 210 288 209 Z M 80 210 L 80 215 L 81 215 Q 82 211 80 210 Z M 119 210 L 117 212 L 119 212 L 119 210 Z M 71 211 L 69 213 L 70 215 Q 69 217 72 216 Q 73 212 71 211 Z M 243 211 Q 240 217 243 219 L 242 222 L 246 221 L 244 217 L 244 215 L 243 211 Z M 294 211 L 294 213 L 296 214 Q 297 210 294 211 Z M 250 212 L 248 217 L 251 217 L 252 218 Q 253 213 250 212 Z M 301 212 L 300 217 L 301 217 L 301 212 Z M 154 213 L 154 219 L 155 219 L 154 213 Z M 173 213 L 172 217 L 177 221 L 176 225 L 180 228 L 178 225 L 179 218 L 174 216 L 173 213 Z M 186 213 L 183 216 L 182 220 L 183 222 L 181 222 L 183 224 Q 185 222 185 217 L 186 221 L 186 216 Q 188 214 186 213 Z M 264 213 L 262 219 L 264 218 L 264 213 Z M 127 214 L 125 218 L 127 217 L 127 214 Z M 133 214 L 129 225 L 130 226 L 133 220 L 133 214 Z M 234 214 L 233 217 L 235 217 L 234 214 Z M 149 215 Q 148 219 151 218 Q 152 214 149 215 Z M 188 215 L 188 228 L 189 228 L 189 217 L 188 215 Z M 229 215 L 227 224 L 227 235 L 228 236 L 227 239 L 227 248 L 228 249 L 227 252 L 231 253 L 233 250 L 233 233 L 234 232 Q 229 225 229 215 Z M 293 215 Q 294 219 291 222 L 292 225 L 295 217 Q 296 214 293 215 Z M 114 216 L 111 222 L 112 223 L 114 219 L 114 216 Z M 116 216 L 115 219 L 116 221 L 118 217 L 116 216 Z M 146 216 L 145 221 L 143 222 L 144 220 L 144 218 L 140 221 Q 136 220 137 223 L 142 221 L 141 223 Q 138 222 139 226 L 139 228 L 140 230 L 144 223 L 145 226 L 148 218 Q 149 215 146 216 Z M 289 217 L 287 225 Q 286 228 289 227 Q 288 222 291 220 Q 292 216 289 217 Z M 152 218 L 151 221 L 152 221 L 152 218 Z M 156 218 L 154 225 L 155 226 L 157 220 L 158 220 L 154 233 L 155 238 L 157 228 L 159 226 L 159 218 L 156 218 Z M 191 218 L 190 222 L 192 221 L 191 218 Z M 280 218 L 278 221 L 280 220 L 280 218 Z M 282 218 L 281 221 Q 280 223 283 222 L 284 219 L 282 218 Z M 302 218 L 301 221 L 302 221 L 302 218 Z M 148 219 L 148 222 L 150 221 Q 151 218 148 219 Z M 236 219 L 235 222 L 236 222 L 236 219 Z M 197 220 L 195 226 L 196 227 L 198 224 L 197 220 Z M 76 221 Q 75 225 81 223 L 85 227 L 83 224 Q 84 221 82 222 L 80 222 L 76 221 Z M 262 221 L 260 224 L 261 227 L 262 225 L 262 221 Z M 296 221 L 293 226 Q 292 228 295 227 L 297 224 L 296 221 Z M 67 222 L 67 224 L 70 224 L 71 224 L 67 222 Z M 151 222 L 150 225 L 151 225 L 151 222 Z M 148 223 L 143 234 L 144 239 L 147 227 Q 151 225 148 223 Z M 265 223 L 263 225 L 262 232 Q 260 233 263 234 L 265 228 L 265 223 Z M 153 224 L 151 228 L 153 227 L 153 224 Z M 164 224 Q 160 226 162 233 L 164 234 L 163 232 L 164 228 L 165 230 L 166 228 L 164 224 Z M 191 224 L 190 227 L 192 227 L 191 224 Z M 239 224 Q 236 228 240 227 L 239 224 Z M 246 224 L 243 225 Q 242 228 246 227 L 246 224 Z M 119 225 L 119 229 L 116 236 L 118 239 Q 117 235 120 234 L 120 229 Q 123 227 119 225 Z M 266 225 L 266 229 L 266 231 L 265 233 L 266 234 L 272 227 Q 271 224 266 225 Z M 79 226 L 78 229 L 76 230 L 78 230 L 79 237 L 78 240 L 78 242 L 82 265 L 87 266 L 83 267 L 84 272 L 88 271 L 88 270 Q 84 271 85 268 L 88 267 Q 92 265 91 269 L 93 270 L 84 253 L 83 244 L 79 231 L 80 229 L 79 226 Z M 104 226 L 102 228 Q 101 230 104 229 L 104 226 Z M 113 226 L 111 228 L 112 231 L 113 229 L 113 226 Z M 125 226 L 122 230 L 125 230 L 125 226 Z M 144 226 L 141 231 L 144 230 L 144 226 Z M 249 226 L 248 229 L 249 229 L 249 226 Z M 254 226 L 252 232 L 249 233 Q 250 237 246 239 L 244 248 L 246 254 L 246 253 L 250 250 Q 249 246 253 245 L 252 243 Q 251 239 254 240 L 255 235 L 258 230 L 254 226 Z M 66 227 L 67 229 L 69 228 L 66 227 Z M 70 227 L 70 229 L 72 228 L 72 230 L 74 229 L 70 227 Z M 182 227 L 181 229 Q 184 228 183 231 Q 186 232 185 230 L 182 227 Z M 275 227 L 271 230 L 263 239 L 264 240 L 268 237 L 266 240 L 267 241 L 266 246 L 265 249 L 266 250 L 268 248 L 270 241 L 269 239 L 270 237 L 270 235 L 273 233 L 271 238 L 272 242 L 274 234 L 276 233 L 275 235 L 276 239 L 277 234 Q 280 232 276 231 Q 275 228 278 229 Q 279 226 275 227 Z M 291 227 L 290 231 L 291 231 L 291 227 Z M 85 228 L 85 232 L 89 238 L 93 239 L 96 233 Q 93 232 94 235 L 91 235 Q 92 232 89 233 L 87 230 Q 88 227 85 228 Z M 106 228 L 105 231 L 106 231 L 106 228 Z M 114 228 L 112 237 Q 110 238 113 239 L 114 237 L 114 235 L 116 231 Q 117 227 114 228 Z M 127 228 L 125 234 L 127 238 L 129 230 Q 130 227 127 228 Z M 132 228 L 131 230 L 134 231 L 132 228 Z M 154 228 L 153 231 L 154 231 L 154 228 Z M 159 228 L 158 232 L 160 231 L 159 228 Z M 175 228 L 173 230 L 173 238 L 174 239 L 172 239 Q 170 245 174 245 L 175 244 Q 174 238 176 237 L 174 234 L 175 230 L 175 228 Z M 280 228 L 281 230 Q 282 227 280 228 Z M 295 228 L 294 229 Q 291 228 292 232 L 296 229 L 295 228 Z M 168 229 L 168 239 L 169 239 L 168 229 Z M 166 230 L 165 239 L 166 239 L 166 230 Z M 246 230 L 244 232 L 247 232 L 246 230 Z M 124 231 L 120 237 L 122 239 Q 121 235 124 234 L 124 231 Z M 135 231 L 135 235 L 136 235 L 135 231 Z M 188 231 Q 187 234 190 233 Q 191 230 188 231 Z M 214 231 Q 211 235 215 234 L 214 231 Z M 97 232 L 98 235 L 97 238 L 98 241 L 100 240 L 99 234 L 97 232 Z M 111 232 L 108 237 L 109 238 L 111 235 L 111 232 Z M 158 232 L 157 235 L 158 235 L 158 232 Z M 83 233 L 81 235 L 83 235 L 83 233 Z M 131 233 L 130 237 L 132 236 L 131 233 Z M 180 233 L 180 240 L 182 247 L 182 257 L 183 258 L 183 265 L 187 265 L 186 249 L 186 247 L 185 244 L 186 240 L 185 234 L 180 233 Z M 237 233 L 237 242 L 238 236 L 237 233 Z M 211 234 L 212 240 L 212 238 Q 215 236 211 234 Z M 260 234 L 259 237 L 260 237 L 260 234 Z M 288 234 L 288 237 L 290 236 L 288 234 Z M 97 235 L 95 237 Q 93 242 97 241 L 96 240 L 97 237 L 97 235 Z M 151 235 L 150 239 L 151 239 L 151 235 Z M 160 235 L 157 241 L 158 243 L 158 242 L 159 242 L 157 247 Q 156 249 159 248 Q 158 245 161 244 Q 162 238 160 235 Z M 241 235 L 239 241 Q 237 245 241 244 Q 243 243 242 239 L 244 237 L 241 235 Z M 262 235 L 260 240 L 263 238 L 262 235 Z M 278 235 L 277 240 Q 276 242 279 241 L 280 237 Q 281 234 278 235 Z M 145 236 L 146 239 L 147 237 L 145 236 Z M 210 236 L 208 239 L 209 241 L 210 241 L 210 236 Z M 290 236 L 290 238 L 292 237 L 290 236 Z M 223 237 L 220 241 L 224 239 Q 225 236 223 237 Z M 259 237 L 256 246 L 256 252 L 257 252 Q 256 249 259 250 L 258 252 Q 257 254 260 253 Q 259 246 262 242 L 260 241 L 259 248 L 257 249 L 259 242 L 259 237 Z M 86 238 L 86 241 Q 85 244 89 243 L 89 241 L 86 238 Z M 132 238 L 132 241 L 135 243 L 134 241 Q 135 237 132 238 Z M 107 239 L 108 243 L 108 241 L 110 241 L 107 239 Z M 128 239 L 128 245 L 129 245 Q 130 240 128 239 Z M 190 239 L 188 244 L 190 245 L 190 239 Z M 69 240 L 70 242 L 71 242 L 69 240 Z M 93 240 L 90 242 L 94 242 L 93 240 Z M 119 240 L 118 243 L 120 244 L 119 240 Z M 145 240 L 143 244 L 146 244 L 145 240 Z M 198 240 Q 196 243 199 242 L 198 240 Z M 206 240 L 207 248 L 208 248 L 208 241 L 206 240 Z M 111 241 L 110 245 L 112 245 L 111 241 Z M 153 241 L 152 244 L 153 244 L 153 241 Z M 168 241 L 169 243 L 171 242 L 168 241 Z M 220 241 L 218 243 L 219 249 L 220 249 L 220 241 Z M 224 241 L 224 252 L 224 253 L 226 252 Q 223 248 224 241 Z M 265 241 L 261 250 L 262 252 L 264 249 Q 263 244 265 243 L 265 241 Z M 75 243 L 71 244 L 68 255 L 68 259 L 64 267 L 72 269 L 72 270 Q 67 271 66 269 L 61 270 L 79 273 L 78 277 L 81 275 L 83 277 L 80 272 L 78 255 L 76 249 Q 77 242 75 243 Z M 98 243 L 99 250 L 100 250 Q 102 242 98 243 Z M 165 243 L 163 245 L 165 245 L 165 243 Z M 178 243 L 176 246 L 178 252 L 178 263 L 180 274 L 182 274 L 179 261 L 179 251 L 178 243 Z M 193 243 L 194 263 L 196 265 Q 198 264 197 261 Q 198 257 202 258 L 202 261 L 205 265 Q 206 267 208 265 L 210 265 L 210 257 L 203 256 Q 197 253 196 245 L 193 243 Z M 271 243 Q 268 248 272 247 L 271 243 Z M 139 244 L 138 247 L 139 247 L 139 244 Z M 140 244 L 140 246 L 142 245 L 140 244 Z M 201 244 L 200 249 L 201 249 L 201 244 Z M 214 244 L 213 248 L 214 248 L 214 244 Z M 237 244 L 235 248 L 237 247 L 237 244 Z M 147 245 L 146 248 Q 145 250 148 249 L 149 246 L 147 245 Z M 169 245 L 168 249 L 171 250 Q 172 247 169 248 L 169 245 Z M 142 246 L 142 249 L 144 248 Q 145 245 142 246 Z M 106 247 L 104 249 L 107 249 Q 108 246 106 247 Z M 140 247 Q 140 250 138 249 L 136 249 L 137 252 L 137 253 L 136 252 L 133 250 L 132 254 L 133 256 L 134 253 L 135 253 L 134 255 Q 133 258 136 257 Q 137 259 138 257 Q 139 254 137 255 L 135 256 L 138 254 L 140 250 L 140 247 Z M 150 247 L 148 251 Q 147 254 150 253 L 151 250 L 150 247 Z M 203 247 L 204 254 L 208 255 Q 207 250 203 247 Z M 240 247 L 234 252 L 235 257 L 236 252 L 237 255 L 237 250 L 239 251 L 239 259 L 239 261 Q 241 264 242 261 Q 239 256 240 247 Z M 255 247 L 253 251 L 254 254 L 255 252 L 255 247 Z M 163 248 L 163 259 L 167 264 L 166 266 L 167 269 L 169 270 L 168 259 L 165 251 Q 166 247 163 248 Z M 217 249 L 215 253 L 219 252 L 217 251 L 217 249 Z M 128 250 L 128 253 L 130 252 Q 131 249 128 250 Z M 142 250 L 141 253 L 142 253 L 142 250 Z M 146 250 Q 143 255 147 254 L 146 250 Z M 152 250 L 150 257 L 153 258 L 153 254 L 152 256 L 151 256 L 152 254 L 152 250 Z M 267 250 L 265 253 L 267 252 L 267 250 Z M 154 251 L 153 254 L 154 254 L 154 251 Z M 156 251 L 154 256 L 155 258 L 156 256 L 156 251 Z M 212 251 Q 210 254 213 253 L 212 251 Z M 171 252 L 171 266 Q 174 267 173 263 L 173 259 L 171 252 Z M 222 252 L 217 255 L 217 262 L 218 263 Q 220 269 217 271 Q 215 276 219 275 L 220 272 L 222 272 L 220 261 L 221 258 L 220 256 L 223 254 L 222 252 Z M 261 253 L 262 256 L 263 254 L 261 253 Z M 140 254 L 140 259 L 141 259 Q 142 255 140 254 Z M 148 254 L 147 256 L 149 257 L 148 254 Z M 224 254 L 224 256 L 226 256 Q 225 259 228 258 L 227 257 L 230 258 L 230 256 Q 229 253 224 254 Z M 143 255 L 144 259 L 145 257 Q 146 254 143 255 Z M 214 256 L 213 268 L 215 268 L 214 267 L 214 256 Z M 257 256 L 258 258 Q 259 255 257 256 Z M 261 256 L 260 259 L 261 259 L 261 256 Z M 231 258 L 231 264 L 234 263 L 231 258 Z M 248 260 L 247 262 L 250 262 L 248 260 Z M 245 262 L 240 265 L 238 264 L 236 264 L 224 274 Q 221 273 222 276 L 234 269 L 233 272 L 236 273 L 238 273 L 239 273 L 239 268 Q 235 267 237 272 L 235 272 L 237 266 Q 240 265 239 268 L 241 267 L 241 269 Q 239 270 242 271 L 242 270 L 243 270 L 242 274 L 239 273 L 240 277 Q 239 279 242 278 L 244 280 L 242 277 L 243 274 L 245 274 L 244 272 L 246 267 L 246 269 L 246 271 L 247 272 L 249 268 L 250 268 L 249 272 L 251 271 Q 250 264 253 265 L 251 262 L 248 268 L 247 268 L 248 264 Q 245 263 246 266 L 245 265 L 244 267 L 243 266 L 246 264 Q 247 261 245 262 Z M 201 263 L 197 267 Q 196 269 199 268 L 199 271 L 200 271 L 199 267 L 201 266 L 202 276 L 203 276 L 202 267 Q 205 265 201 263 Z M 259 263 L 257 266 L 259 265 L 259 263 Z M 225 264 L 224 270 L 225 270 L 225 264 Z M 190 265 L 189 271 L 189 273 L 191 275 L 191 269 L 193 269 L 193 268 L 190 265 Z M 186 266 L 186 268 L 188 269 Q 189 265 186 266 Z M 259 266 L 258 269 L 259 269 L 259 266 Z M 208 267 L 207 277 L 204 278 L 203 280 L 206 279 L 205 283 L 210 284 L 212 278 L 210 269 Q 211 266 208 267 Z M 205 268 L 204 275 L 205 275 L 205 268 Z M 95 270 L 93 272 L 96 272 Q 97 269 95 270 Z M 61 271 L 59 273 L 63 274 L 61 271 Z M 91 272 L 90 274 L 93 273 L 91 272 Z M 186 272 L 185 277 L 189 279 L 190 279 Q 186 277 186 272 Z M 233 272 L 231 274 L 233 274 L 233 272 Z M 67 273 L 63 275 L 70 276 L 75 276 L 67 273 Z M 86 273 L 84 277 L 89 275 L 86 273 Z M 194 273 Q 192 276 195 277 L 197 276 L 194 273 Z M 246 273 L 246 275 L 248 274 L 246 273 Z M 254 273 L 253 276 L 254 276 L 254 273 Z M 231 274 L 230 277 L 230 278 Q 232 279 231 277 Q 233 275 231 274 Z M 235 275 L 236 278 L 237 276 L 235 275 Z M 219 277 L 218 284 L 222 283 L 221 279 L 220 279 L 219 277 Z M 198 278 L 197 281 L 198 281 L 198 278 Z M 213 278 L 213 280 L 215 279 L 213 278 Z M 228 279 L 226 282 L 228 282 L 228 279 Z M 215 280 L 214 284 L 215 284 L 215 280 Z M 238 280 L 235 283 L 236 285 L 238 282 L 238 280 Z M 174 281 L 174 283 L 170 289 L 164 304 Q 164 313 160 318 L 161 319 L 165 316 L 166 314 L 170 312 Q 171 310 172 313 L 171 316 Q 170 321 173 324 L 176 322 L 177 323 L 177 320 L 173 311 L 179 308 Q 178 304 181 303 L 182 292 L 186 289 L 183 300 L 184 301 L 185 299 L 188 297 L 192 299 L 194 294 Q 197 295 196 292 L 192 292 L 185 286 L 174 281 Z M 224 284 L 224 286 L 226 285 L 224 284 Z M 213 287 L 213 289 L 215 288 L 213 287 Z M 241 288 L 239 291 L 241 290 L 241 288 Z M 213 289 L 212 297 L 213 297 L 213 289 Z M 165 291 L 152 310 L 149 317 L 151 320 L 154 317 L 155 312 L 160 305 L 165 293 L 165 291 Z M 237 291 L 237 293 L 237 294 L 239 293 Q 240 290 237 291 Z M 159 293 L 153 301 L 156 301 L 159 296 L 159 293 Z M 233 293 Q 231 296 226 296 L 232 299 L 232 297 L 234 297 L 233 293 Z M 239 294 L 236 299 L 234 300 L 237 301 L 238 298 L 239 302 L 239 300 L 241 300 L 239 294 Z M 243 294 L 244 299 Q 243 302 246 301 L 243 294 Z M 217 295 L 216 297 L 218 296 L 217 295 Z M 220 295 L 220 297 Q 222 300 224 296 L 220 295 Z M 207 296 L 203 299 Q 201 302 199 301 L 200 313 L 201 314 L 200 316 L 202 324 Q 201 328 205 326 L 205 310 L 206 309 L 206 299 L 207 298 L 207 296 Z M 193 299 L 191 301 L 195 306 L 198 301 L 193 299 Z M 209 299 L 209 308 L 207 315 L 209 326 L 209 311 L 211 301 Q 212 298 209 299 Z M 216 299 L 213 300 L 213 315 L 212 317 L 215 317 Q 218 316 217 320 L 222 324 L 220 305 L 219 302 Q 220 297 216 299 Z M 226 299 L 228 303 Q 230 302 229 306 L 231 307 L 229 301 L 226 299 Z M 187 300 L 183 306 L 182 311 L 182 312 Q 184 311 183 314 L 187 315 L 189 313 Q 191 312 190 316 L 193 317 L 195 321 L 195 312 L 194 312 Q 195 314 192 313 L 193 311 L 193 309 L 187 300 Z M 242 300 L 240 303 Q 239 307 242 306 L 242 300 Z M 232 301 L 231 304 L 235 310 L 236 310 L 232 301 Z M 224 302 L 224 317 L 225 317 L 224 302 Z M 244 303 L 243 307 L 244 310 L 243 309 L 239 311 L 241 311 L 243 311 L 245 311 L 245 305 L 247 305 Q 248 302 244 303 Z M 148 306 L 144 313 L 146 318 L 151 309 Q 152 304 148 306 Z M 239 306 Q 237 309 240 308 L 239 306 Z M 249 306 Q 247 311 250 314 L 252 315 L 249 306 Z M 197 307 L 195 311 Q 197 314 198 311 L 197 307 Z M 229 310 L 230 322 L 230 323 Q 233 322 232 325 L 229 327 L 230 330 L 232 329 L 234 345 L 236 348 L 237 359 Q 236 361 235 359 L 234 363 L 241 362 Q 244 360 244 355 L 250 354 L 252 357 L 254 356 L 248 338 L 246 344 Q 243 345 244 343 L 244 341 L 244 339 L 240 334 L 239 343 L 245 346 Q 247 345 246 349 L 249 350 L 246 354 Q 242 355 241 353 L 243 349 Q 244 345 240 347 L 237 345 L 236 340 Q 235 333 238 332 L 236 321 L 233 312 L 229 310 Z M 177 311 L 176 313 L 178 314 L 177 311 Z M 238 313 L 237 316 L 238 316 L 238 313 Z M 244 313 L 242 315 L 243 317 L 242 322 L 245 322 L 244 318 L 247 316 Q 249 312 244 313 Z M 182 316 L 180 319 L 182 319 L 184 323 L 185 323 L 184 319 L 182 316 Z M 253 316 Q 250 320 248 319 L 250 322 L 250 321 L 251 321 Q 250 323 253 322 L 252 321 L 253 318 L 254 321 Q 253 323 256 322 L 253 316 Z M 142 317 L 142 321 L 141 324 L 143 323 Q 144 318 142 317 Z M 226 317 L 226 324 L 229 324 L 227 323 L 226 317 Z M 166 318 L 164 321 L 163 320 L 159 325 L 160 330 L 167 335 L 166 337 Q 167 339 172 338 Q 174 337 173 334 L 176 332 L 176 326 L 173 326 L 172 335 L 171 333 L 169 336 L 168 336 L 169 332 L 169 324 L 168 322 L 166 326 L 165 326 Q 164 321 167 321 Q 168 317 166 318 Z M 156 319 L 154 321 L 155 324 Q 156 328 153 330 L 154 334 L 158 335 L 159 333 L 156 329 L 157 325 Q 158 320 156 319 Z M 240 320 L 242 331 L 243 327 Q 243 322 240 320 Z M 147 321 L 144 324 Q 145 328 143 329 L 141 324 L 137 329 L 138 333 L 142 330 L 144 332 L 143 335 L 144 337 L 151 323 L 147 321 Z M 189 321 L 189 334 L 190 334 Q 191 325 189 321 Z M 215 322 L 210 329 L 211 334 L 221 339 L 223 339 Q 225 340 224 338 L 226 338 L 225 336 L 227 335 L 226 326 L 223 328 L 224 331 Q 225 335 223 336 L 219 334 L 220 331 L 220 328 L 217 323 L 215 322 Z M 246 322 L 246 331 L 248 332 L 252 331 L 250 336 L 254 343 L 254 347 L 257 353 L 261 350 L 258 346 L 256 337 L 251 327 L 248 325 L 246 322 Z M 193 323 L 194 347 L 195 348 L 194 350 L 198 351 L 196 361 L 196 362 L 199 360 L 203 362 L 209 362 L 208 361 L 207 344 L 206 341 L 204 344 L 205 357 L 206 358 Q 207 362 205 361 L 203 360 Q 204 355 202 354 L 202 345 L 200 338 L 200 331 L 198 325 L 195 325 Q 196 322 193 323 Z M 179 324 L 177 336 L 177 344 L 176 345 Q 175 347 178 346 L 180 342 L 184 339 L 186 350 L 187 350 Q 188 340 185 335 L 186 331 L 185 327 L 179 324 Z M 205 327 L 203 332 L 205 336 L 205 339 Q 208 338 207 341 L 215 344 L 216 345 Q 213 342 214 338 L 210 336 Q 206 333 207 328 L 205 327 Z M 134 329 L 131 333 L 134 340 L 131 342 L 133 344 L 137 339 Q 138 334 135 335 L 134 329 Z M 257 329 L 257 333 L 261 334 L 262 335 L 261 332 Q 261 329 257 329 Z M 150 331 L 141 349 L 142 352 L 146 353 L 147 352 L 147 348 L 151 338 L 150 331 Z M 243 331 L 244 335 L 245 335 Q 247 330 243 331 Z M 161 334 L 161 337 L 164 336 L 161 334 Z M 191 334 L 189 348 L 192 350 L 191 346 L 192 342 L 191 334 Z M 141 337 L 137 343 Q 137 347 140 347 L 143 338 L 141 337 Z M 230 337 L 229 347 L 232 352 L 233 359 L 234 359 L 233 350 L 231 347 L 230 337 Z M 156 339 L 153 344 Q 155 349 150 347 L 149 350 L 149 357 L 154 357 L 157 346 Q 158 338 156 339 Z M 162 339 L 160 344 L 161 347 L 161 344 L 163 344 L 162 342 Q 164 340 162 339 Z M 174 339 L 172 341 L 167 340 Q 162 348 161 359 Q 166 358 168 362 L 171 362 L 168 360 Q 169 356 166 354 L 170 348 L 173 349 L 174 347 L 174 339 Z M 221 342 L 222 345 L 221 349 L 224 356 Q 225 362 223 361 L 221 360 L 220 352 L 218 351 L 220 360 Q 218 363 217 359 L 216 362 L 216 363 L 220 362 L 224 363 L 229 362 Q 232 363 230 359 L 229 359 Q 230 363 226 361 Q 227 356 224 354 L 225 351 L 223 346 Q 224 341 221 342 Z M 182 345 L 178 347 L 177 350 L 178 354 L 178 357 Q 181 356 180 359 L 183 358 L 185 359 L 184 357 L 185 354 L 185 356 L 186 356 L 184 352 Q 185 349 182 350 L 182 345 Z M 228 346 L 227 349 L 228 349 L 228 346 Z M 160 347 L 157 355 L 158 357 L 160 351 L 160 347 Z M 212 349 L 211 362 L 211 363 L 214 363 L 212 359 L 212 349 Z M 229 350 L 228 353 L 229 353 L 229 350 Z M 170 351 L 171 358 L 177 361 L 178 361 L 175 358 Q 172 357 173 353 L 170 351 Z M 192 352 L 190 354 L 191 356 L 190 359 L 191 362 L 194 353 L 192 352 Z M 216 354 L 215 358 L 216 358 L 216 354 Z M 230 354 L 229 357 L 230 357 L 230 354 Z M 190 355 L 188 358 L 186 362 L 187 364 L 189 363 L 190 357 L 190 355 Z M 194 357 L 193 360 L 194 360 L 194 357 Z M 181 362 L 182 364 Q 183 361 181 362 Z M 145 369 L 142 375 L 143 376 L 145 372 Q 147 370 145 369 Z M 150 369 L 147 370 L 139 389 L 140 391 L 141 388 L 143 387 L 141 391 Q 142 394 139 393 L 137 403 L 138 405 L 141 398 L 141 395 L 153 371 Q 154 368 152 369 L 150 369 Z M 154 370 L 154 372 L 156 371 L 154 370 Z M 157 370 L 150 390 L 144 401 L 144 404 L 141 408 L 142 410 L 148 399 L 148 396 L 151 392 L 151 389 Q 157 382 159 372 Q 160 369 157 370 Z M 162 370 L 159 374 Q 158 378 161 377 L 162 374 L 162 370 Z M 164 371 Q 163 374 166 373 Q 167 370 164 371 Z M 154 372 L 151 378 L 152 379 L 153 376 Q 157 374 154 372 Z M 167 372 Q 166 376 169 375 Q 170 371 167 372 Z M 240 372 L 238 380 L 239 383 L 242 375 Q 243 371 240 372 Z M 164 373 L 161 379 L 162 381 L 164 376 Q 166 374 164 373 Z M 170 373 L 170 375 L 170 377 L 162 393 L 163 396 L 172 375 Q 173 372 170 373 Z M 202 373 L 201 377 L 202 385 Q 200 386 203 387 L 206 378 L 206 373 L 203 382 L 202 382 Q 201 376 204 374 L 202 373 Z M 236 373 Q 235 376 238 375 Q 239 372 236 373 Z M 173 374 L 172 377 L 173 380 L 175 376 Q 176 373 173 374 Z M 181 374 L 160 416 L 160 430 L 161 433 L 160 436 L 161 439 L 160 442 Q 159 445 162 446 L 173 445 L 185 440 L 191 439 L 194 437 L 196 434 Q 194 432 197 431 L 200 429 L 203 423 L 202 404 L 200 399 L 198 381 L 196 374 L 189 374 L 188 375 L 181 374 Z M 210 374 L 207 377 L 205 386 L 203 389 L 204 393 L 205 389 L 207 388 L 204 396 L 205 400 L 210 385 L 210 380 L 209 383 L 207 384 L 209 377 L 212 376 Q 213 373 210 374 Z M 233 374 L 233 380 L 231 383 L 231 387 L 228 395 L 228 400 L 226 402 L 227 405 L 231 395 L 230 393 L 232 390 L 232 386 L 235 377 Q 236 373 233 374 Z M 217 375 L 216 377 L 218 376 L 217 375 Z M 219 375 L 217 382 L 217 381 L 217 378 L 215 380 L 214 386 L 213 386 L 214 381 L 214 377 L 211 384 Q 210 388 213 387 L 212 395 L 207 407 L 210 409 L 210 416 L 204 427 L 202 436 L 205 435 Q 202 436 203 439 L 206 441 L 205 443 L 208 444 L 207 446 L 209 446 L 212 438 L 212 433 L 216 424 L 216 422 L 214 419 L 215 416 Q 214 413 217 414 L 215 418 L 217 422 L 217 424 L 216 426 L 217 427 L 220 421 L 219 423 L 221 423 L 220 420 L 222 414 L 220 413 L 219 420 L 217 419 L 227 382 L 227 378 Q 224 379 226 381 L 223 387 L 223 391 L 220 399 L 220 404 Q 216 405 217 411 L 215 412 L 220 397 L 219 395 Q 222 393 220 392 L 224 381 L 224 376 L 220 385 L 221 387 L 219 391 L 219 393 L 214 407 L 212 420 L 210 419 Q 213 415 212 409 L 215 403 L 215 401 Q 212 402 212 406 L 210 407 L 215 392 L 216 397 L 218 390 L 217 389 L 215 390 Q 214 384 218 383 L 217 385 L 218 387 L 220 384 Q 219 378 221 377 Q 222 374 219 375 Z M 231 376 L 226 389 Q 225 391 228 390 L 229 389 L 229 384 L 231 378 L 231 376 Z M 236 376 L 234 384 L 235 387 L 238 378 Q 239 375 236 376 Z M 165 377 L 150 412 L 147 422 L 145 423 L 146 420 L 146 417 L 145 419 L 144 419 L 146 409 L 150 402 L 150 399 L 141 415 L 142 418 L 141 424 L 139 426 Q 138 436 133 443 L 133 447 L 131 449 L 131 452 L 139 451 L 141 448 L 142 442 L 148 429 L 147 426 L 156 403 L 161 394 L 162 388 L 165 385 Q 164 380 167 379 Q 168 376 165 377 Z M 159 378 L 154 387 L 156 387 L 159 381 L 159 378 Z M 151 381 L 144 393 Q 143 396 146 395 L 151 383 L 151 381 Z M 172 381 L 164 397 L 165 399 L 172 383 L 172 381 Z M 161 382 L 155 391 L 156 393 L 161 384 L 161 382 Z M 238 384 L 234 396 L 235 399 L 238 389 L 238 384 Z M 211 388 L 209 390 L 210 393 L 212 389 L 211 388 Z M 154 389 L 149 397 L 151 399 L 155 390 L 154 389 Z M 234 389 L 233 393 L 234 393 L 234 389 Z M 226 391 L 221 410 L 222 412 L 226 409 L 227 407 L 224 408 L 226 396 L 228 393 Q 229 390 226 391 Z M 155 394 L 153 396 L 154 399 L 154 398 Q 158 396 155 394 Z M 208 394 L 205 403 L 206 409 Q 206 401 210 396 Q 211 393 208 394 Z M 233 394 L 231 397 L 232 400 L 233 398 L 233 394 Z M 162 396 L 159 399 L 160 402 L 162 398 L 162 396 Z M 142 397 L 136 412 L 135 412 L 137 408 L 137 405 L 134 410 Q 132 414 136 413 Q 137 416 139 412 L 138 414 L 139 417 L 141 414 L 139 410 L 144 399 Q 145 396 142 397 Z M 215 397 L 214 400 L 215 400 L 215 397 Z M 153 399 L 146 414 L 147 417 L 151 408 L 151 405 L 153 403 L 153 399 Z M 164 399 L 155 416 L 155 420 Q 154 422 150 421 L 151 424 L 150 426 L 152 425 Q 151 421 154 422 L 155 424 L 157 416 L 163 404 L 164 401 L 164 399 Z M 234 399 L 230 409 L 231 412 L 234 403 L 234 399 Z M 231 401 L 226 414 L 227 415 L 231 405 L 231 401 Z M 159 402 L 157 406 L 159 405 L 159 402 Z M 157 407 L 154 411 L 155 413 L 157 410 L 157 407 Z M 207 409 L 205 414 L 206 418 L 207 416 L 207 409 Z M 225 410 L 223 415 L 224 418 L 225 416 L 225 410 Z M 136 414 L 134 416 L 135 419 L 136 417 L 136 414 Z M 140 417 L 140 422 L 141 420 L 140 417 Z M 136 418 L 136 420 L 136 421 L 138 420 Q 139 417 136 418 Z M 226 421 L 225 424 L 226 424 L 226 421 Z M 155 424 L 154 429 L 155 432 L 157 426 Q 158 423 155 424 Z M 221 424 L 220 429 L 222 429 L 223 427 Q 224 423 221 424 Z M 225 424 L 224 429 L 225 429 L 225 424 Z M 135 425 L 133 427 L 134 431 L 135 429 L 135 425 Z M 154 425 L 152 427 L 153 430 L 154 427 L 154 425 Z M 219 426 L 217 433 L 219 432 L 219 426 Z M 151 427 L 147 433 L 147 436 L 141 449 L 142 451 Q 144 450 143 447 L 146 444 L 148 435 L 151 429 L 151 427 Z M 216 428 L 213 435 L 214 438 L 216 434 L 216 428 Z M 157 429 L 156 434 L 156 436 L 152 445 L 153 447 L 155 443 L 155 441 L 158 435 L 157 429 Z M 152 430 L 149 436 L 150 438 L 152 435 L 152 430 Z M 220 430 L 218 437 Q 219 441 215 439 L 214 442 L 215 443 L 219 440 L 222 432 Q 223 429 220 430 Z M 225 430 L 223 434 L 225 433 L 225 430 Z M 313 432 Q 311 434 307 433 L 305 433 Q 292 436 283 441 L 268 443 L 266 443 L 264 444 L 263 443 L 252 443 L 240 440 L 232 441 L 233 443 L 245 444 L 266 451 L 279 452 L 280 453 L 297 453 L 298 452 Q 305 451 304 454 L 298 454 L 297 455 L 271 454 L 248 447 L 239 446 L 236 445 Q 233 444 234 449 L 237 451 L 248 452 L 261 458 L 290 464 L 313 464 L 332 459 L 331 457 L 332 442 L 320 442 L 303 449 L 299 449 L 297 449 L 296 450 L 288 450 L 286 450 L 284 451 L 282 451 Q 276 453 275 450 L 273 451 L 270 450 L 271 448 L 273 449 L 275 449 L 298 448 L 300 448 L 310 443 L 319 441 L 322 440 L 332 440 L 332 435 L 320 432 L 313 432 Z M 135 433 L 133 437 L 135 436 L 135 433 Z M 85 434 L 79 436 L 74 436 L 63 440 L 50 442 L 48 442 Q 41 446 29 444 L 25 444 L 22 445 L 20 444 L 18 444 L 10 444 L 10 448 L 12 449 L 20 449 L 21 450 L 23 449 Q 25 448 24 452 L 22 452 L 13 452 L 12 451 L 10 453 L 10 462 L 13 463 L 24 462 L 30 460 L 40 460 L 47 458 L 53 458 L 64 455 L 79 455 L 81 455 L 98 460 L 118 469 Q 120 468 118 467 L 120 453 L 122 447 L 125 446 Q 127 447 126 444 L 123 444 L 119 441 L 105 436 L 94 435 L 93 434 Q 88 433 87 435 L 85 434 Z M 217 434 L 215 437 L 217 438 L 217 434 Z M 225 436 L 224 440 L 225 440 L 225 436 Z M 133 437 L 133 442 L 133 440 Q 135 438 133 437 Z M 221 437 L 221 442 L 218 449 Q 217 451 220 450 L 221 449 L 223 439 Q 224 436 221 437 Z M 151 439 L 147 449 Q 146 451 149 450 L 153 440 L 151 439 Z M 198 439 Q 196 445 198 449 L 202 448 Q 201 445 200 447 L 201 445 L 200 443 L 199 443 L 198 439 Z M 193 440 L 178 446 L 169 448 L 160 448 L 161 453 L 162 452 L 170 452 L 193 445 L 193 440 Z M 217 441 L 217 443 L 217 444 L 219 443 Q 220 440 217 441 Z M 212 442 Q 210 445 213 444 L 212 442 Z M 224 442 L 223 445 L 224 445 L 224 442 Z M 227 442 L 224 447 Q 222 452 226 451 L 225 449 L 227 445 L 227 442 Z M 214 444 L 214 446 L 216 445 L 214 444 Z M 212 445 L 211 448 L 212 448 L 212 445 Z M 146 446 L 145 449 L 146 449 L 146 446 Z M 217 446 L 215 448 L 216 450 L 218 447 L 217 446 Z M 223 447 L 221 451 L 223 451 L 223 447 Z M 203 448 L 203 449 L 206 449 L 203 448 Z M 156 449 L 154 452 L 156 452 L 156 449 Z M 190 449 L 187 451 L 171 455 Q 165 457 164 454 L 159 455 L 157 465 L 156 467 L 166 465 L 179 457 L 194 454 L 194 449 L 190 449 Z M 207 449 L 207 451 L 207 452 L 206 451 L 205 451 L 205 459 L 207 459 L 208 461 L 206 460 L 205 462 L 209 463 L 207 463 L 208 465 L 211 464 L 212 468 Q 215 469 214 466 Q 217 465 216 468 L 214 469 L 219 471 L 221 471 L 218 469 L 221 468 L 222 470 Q 221 472 226 471 L 225 470 L 227 467 Q 226 464 229 465 Q 230 468 228 467 L 227 470 L 229 470 L 230 468 L 230 461 L 229 464 L 225 462 Q 226 458 224 459 L 224 458 L 223 456 L 226 456 L 225 459 Q 228 460 226 462 L 228 462 L 227 457 Q 229 455 227 454 Q 220 452 219 455 L 219 453 L 215 453 L 214 451 L 212 451 L 210 451 Q 209 453 212 452 L 212 456 L 213 457 Q 209 455 209 451 L 207 449 Z M 130 450 L 129 453 L 130 453 L 130 450 Z M 152 452 L 151 455 L 148 453 L 145 454 L 148 456 L 147 458 L 145 454 L 141 455 L 143 455 L 142 460 L 144 465 L 143 467 L 146 467 L 149 465 Q 150 460 147 461 L 147 459 Q 150 460 149 458 L 151 458 L 154 454 Q 155 451 152 452 Z M 228 452 L 227 454 L 229 455 L 228 452 Z M 125 454 Q 121 456 126 458 L 126 457 L 126 455 L 125 454 Z M 140 454 L 136 455 L 137 457 L 140 456 L 140 454 Z M 234 454 Q 232 457 233 465 L 235 464 L 248 465 L 272 472 Q 278 471 282 474 L 293 474 L 294 475 L 311 474 L 313 474 L 322 470 L 331 469 Q 333 468 332 465 L 332 462 L 312 467 L 286 467 Q 284 465 280 466 L 256 460 L 249 456 L 234 454 Z M 130 455 L 128 457 L 130 458 L 128 458 L 129 461 Q 128 463 127 461 L 126 463 Q 132 465 130 460 Q 131 457 133 459 L 134 457 L 133 457 L 130 455 Z M 230 455 L 229 459 L 230 459 L 230 455 Z M 65 457 L 49 461 L 32 462 L 17 465 L 10 465 L 10 471 L 20 471 L 36 467 L 55 465 L 57 465 L 73 469 Q 79 475 90 478 L 92 478 L 97 479 L 99 479 Q 104 482 113 481 L 115 481 L 117 482 L 116 485 L 115 484 L 105 484 L 85 480 L 69 471 L 66 471 L 60 468 L 47 468 L 46 469 L 34 470 L 25 473 L 10 474 L 10 489 L 24 489 L 26 489 L 34 490 L 36 490 L 39 489 L 41 490 L 42 489 L 93 489 L 95 489 L 107 489 L 108 488 L 111 489 L 114 488 L 116 489 L 119 482 L 119 474 L 120 473 L 116 472 L 101 464 L 89 461 L 86 459 L 77 457 L 65 457 Z M 192 457 L 173 466 Q 166 466 164 469 L 155 470 L 152 472 L 148 471 L 144 478 L 144 480 L 150 479 L 152 479 L 166 474 L 177 468 L 197 463 L 195 459 L 192 457 Z M 136 458 L 135 462 L 136 462 L 136 458 Z M 153 458 L 153 460 L 155 459 L 153 458 Z M 124 459 L 123 463 L 124 463 L 124 459 Z M 135 462 L 133 466 Q 132 468 135 467 L 135 462 Z M 124 464 L 122 467 L 125 465 L 124 464 Z M 128 464 L 126 467 L 123 469 L 126 470 L 133 470 L 132 469 Q 129 468 131 467 Q 132 462 128 464 Z M 202 464 L 201 469 L 206 477 L 205 484 L 209 487 Q 210 491 206 489 Q 205 493 208 496 L 207 498 L 207 510 L 206 511 L 206 513 L 211 513 L 212 518 L 221 526 L 234 530 L 239 529 L 248 531 L 247 528 L 239 520 L 238 516 Q 233 509 225 507 L 225 503 L 222 494 Q 221 485 224 481 L 224 474 L 222 473 L 219 474 L 202 466 L 202 464 Z M 139 465 Q 138 471 135 473 L 133 472 Q 131 475 126 473 L 122 479 L 122 484 L 120 491 L 120 493 Q 115 496 115 503 L 101 509 Q 96 508 97 511 L 88 514 L 86 513 L 82 515 Q 79 517 82 518 Q 92 520 98 516 L 103 517 L 106 516 L 108 516 L 116 515 L 118 515 L 120 514 L 127 517 L 129 516 L 131 517 L 135 515 Q 136 508 132 507 L 134 504 Q 136 498 132 499 L 144 472 L 141 470 L 139 465 Z M 194 466 L 156 481 L 145 484 L 143 483 L 140 488 L 141 489 Q 142 487 147 488 L 150 489 L 156 489 Q 155 486 160 487 L 162 487 L 173 487 L 174 486 L 190 485 L 202 480 L 197 468 Q 198 465 194 466 Z M 233 468 L 232 471 Q 233 474 229 472 L 227 476 L 236 474 L 259 477 L 273 482 L 289 485 Q 295 483 294 487 L 301 486 L 303 486 Q 308 485 310 487 L 330 487 L 331 488 L 332 487 L 332 471 L 327 471 L 315 476 Q 308 474 307 477 L 282 477 L 244 468 L 233 468 Z M 235 477 L 228 480 L 225 487 L 227 488 L 230 487 L 232 488 L 237 487 L 239 487 Q 245 485 247 488 L 249 487 L 258 488 L 260 488 L 262 487 L 279 487 L 267 483 L 265 483 L 262 481 L 257 481 L 253 479 L 247 479 L 241 477 L 239 478 L 237 478 L 235 477 Z M 201 484 L 191 487 L 191 488 L 195 487 Q 196 489 201 488 L 203 488 Q 205 489 204 486 L 201 484 Z M 297 488 L 296 489 L 265 489 L 264 490 L 263 489 L 253 489 L 248 490 L 246 489 Q 240 488 239 490 L 227 490 L 226 492 L 255 492 L 256 491 L 294 492 L 295 493 Q 296 491 302 492 L 304 492 L 307 493 L 332 493 L 332 489 L 326 488 L 322 489 L 320 489 L 297 488 Z M 140 490 L 139 493 L 142 492 L 149 494 L 151 493 L 154 494 L 156 493 L 158 494 L 159 493 L 179 493 L 180 492 L 191 492 L 192 493 L 193 492 L 203 492 L 202 490 L 176 490 L 174 490 L 171 491 L 145 491 L 144 490 L 142 491 L 140 490 Z M 11 491 L 10 495 L 23 493 L 26 494 L 28 493 L 65 494 L 67 494 L 68 493 L 80 493 L 82 493 L 89 494 L 92 493 L 95 494 L 97 494 L 100 493 L 116 493 L 116 491 L 41 491 L 40 492 Q 34 494 33 491 L 30 492 L 28 491 L 21 492 L 19 492 L 17 491 L 13 492 L 11 491 Z M 199 494 L 198 495 L 169 495 L 167 495 L 165 496 L 163 496 L 145 496 L 142 495 L 140 495 L 138 505 L 138 507 Q 137 511 139 513 L 137 518 L 132 521 L 128 519 Q 119 521 116 518 L 114 518 L 100 520 L 98 520 L 92 521 L 90 521 L 87 520 L 83 521 L 76 519 L 78 514 L 86 511 L 94 510 L 97 507 L 107 504 L 112 500 L 113 498 L 113 496 L 60 496 L 56 496 L 54 497 L 53 496 L 25 496 L 23 496 Q 21 498 17 497 L 15 497 L 12 498 L 10 499 L 10 549 L 35 549 L 36 550 L 96 550 L 97 549 L 133 549 L 134 548 L 139 549 L 140 548 L 149 548 L 151 548 L 155 549 L 175 547 L 178 548 L 191 548 L 192 547 L 253 547 L 254 548 L 257 547 L 259 548 L 261 547 L 263 548 L 265 547 L 267 548 L 315 547 L 317 547 Q 322 546 324 548 L 333 548 L 333 541 L 333 539 Q 335 532 332 531 L 333 529 Q 335 523 332 522 L 332 500 L 331 499 L 332 497 L 331 495 L 306 495 L 304 495 L 285 495 L 284 494 L 236 494 L 235 495 L 226 494 L 228 505 L 236 509 Q 241 511 242 519 L 246 521 Q 251 525 252 532 L 250 533 Q 243 535 242 532 L 237 533 L 223 530 L 217 527 L 208 517 L 204 515 L 203 512 L 205 507 L 203 504 L 203 496 L 202 495 L 199 494 Z M 167 551 L 158 553 L 156 552 L 113 553 L 111 553 Q 106 554 105 552 L 104 553 L 84 553 L 83 554 Q 78 555 77 553 L 72 554 L 70 554 L 67 553 L 65 553 L 62 554 L 60 554 L 57 553 L 55 554 L 52 553 L 50 554 L 22 553 L 20 553 Q 14 555 13 552 L 9 554 L 10 556 L 10 577 L 9 578 L 9 588 L 10 593 L 39 593 L 40 592 L 46 593 L 49 592 L 72 592 L 73 593 L 89 593 L 92 592 L 95 593 L 98 592 L 113 592 L 114 591 L 123 593 L 128 592 L 150 592 L 151 591 L 176 591 L 177 592 L 229 592 L 230 591 L 232 592 L 233 591 L 248 591 L 249 590 L 254 591 L 275 591 L 276 592 L 279 591 L 281 591 Q 285 590 287 592 L 290 591 L 291 592 L 303 592 L 305 592 L 327 590 L 328 589 L 333 590 L 334 587 L 334 553 L 332 552 L 314 552 L 313 551 L 289 551 L 287 552 L 285 552 L 270 552 L 269 551 L 268 552 L 257 552 L 255 552 L 252 551 L 237 551 L 236 552 L 202 551 L 200 551 L 198 552 L 176 552 L 174 552 L 167 551 Z "></path><path d="M 161.5 99 Q 167.6 97.8 167 100.5 L 168 103.5 Q 167 107 161.5 106 Q 159 105 160 100.5 L 161.5 99 Z M 164 101 Q 162 104 165 103 L 164 101 Z "></path><path d="M 177.5 119 Q 183.3 117.3 182 121 L 180 121.5 L 183 125.5 L 181 125.5 Q 181.7 128.1 179 127 L 179 129 L 177.5 129 L 177.5 127 L 174 125.5 Q 175.2 122.3 179 123 L 178.5 121 L 172 124 L 173.5 121 L 177.5 119 Z "></path><path d="M 183.5 136 L 185 138.5 L 184 138.5 L 183.5 136 Z "></path><path d="M 174.5 137 Q 176.8 136.3 176 138.5 L 173 140 L 174.5 137 Z "></path><path d="M 170 138 Q 173 137 172 140 Q 169 141 170 138 Z "></path><path d="M 221 140 Q 223.7 138.9 223 141.5 L 224 145.5 L 223 146.5 L 223 155.5 L 221 161.5 L 222 165.5 L 214.5 176 L 212 174.5 L 219 163.5 L 218 158.5 L 220 153.5 L 221 140 Z "></path><path d="M 277.5 207 L 278 210.5 L 274.5 220 L 275 218.5 L 276 208.5 L 277.5 207 Z "></path><path d="M 175.5 286 L 177 290 Q 174.3 288.9 175 291.5 L 170 306 L 167.5 307 L 167 303.5 L 172 290.5 L 175.5 286 Z "></path><path d="M 167.5 324 L 168 328.5 L 167 328.5 L 167.5 324 Z "></path><path d="M 174.5 327 L 175 329.5 L 174 329.5 L 174.5 327 Z "></path><path d="M 214.5 327 L 215 329.5 L 214 329.5 L 214.5 327 Z "></path><path d="M 216.5 329 L 218 332.5 L 217.5 334 L 216.5 329 Z "></path><path d="M 180.5 349 L 183 354.5 L 181.5 357 L 180.5 355 L 179 355.5 L 180.5 349 Z "></path><path d="M 148 371 Q 150.7 369.9 150 372.5 L 147.5 376 L 148 374.5 L 148 371 Z "></path><path d="M 146.5 377 L 148 377.5 L 143.5 385 L 143 382.5 L 146.5 377 Z "></path><path d="M 143.5 421 L 144 423.5 L 136.5 444 L 136 441.5 L 143.5 421 Z M 139 422 L 137 426 L 139 425 L 139 422 Z "></path><path d="M 213.5 424 L 209.5 429 L 213.5 424 Z "></path><path d="M 144 425 L 146 425.5 L 141 441.5 L 139 443.5 L 139 446.5 L 135.5 451 Q 131.8 452.3 133 448.5 L 134.5 449 Q 136.8 449.8 136 447.5 Q 142.5 438.4 144 425 Z M 136 427 L 135 430 L 136 432 L 138 428 L 136 427 Z "></path><path d="M 209.5 425 L 208 427.5 L 207.5 429 L 207 427.5 L 209.5 425 Z "></path><path d="M 208.5 430 L 207.5 432 L 208.5 430 Z "></path><path d="M 209.5 435 L 207.5 438 L 209.5 435 Z "></path><path d="M 79.5 438 L 95.5 438 L 120 448 Q 121.7 452.1 117.5 451 Q 107.9 443.6 94.5 440 L 79.5 440 L 76.5 441 L 72.5 442 L 70.5 442 L 55.5 445 L 51.5 447 L 31.5 451 L 25 451 Q 23.9 447.5 31.5 449 L 79.5 438 Z "></path><path d="M 206 455 L 208 455.5 L 206 456.5 L 206 455 Z "></path><path d="M 214.5 455 L 216 457.5 L 215 457.5 L 214.5 455 Z "></path><path d="M 144.5 457 L 146 461 Q 142.2 462.2 144.5 457 Z "></path><path d="M 217.5 457 L 218 458.5 L 216 459.5 L 217.5 457 Z "></path><path d="M 213 460 Q 216 459 215 462 Q 212 463 213 460 Z "></path><path d="M 218.5 460 L 220 462.5 L 219 462.5 L 218.5 460 Z "></path><path d="M 221 460 Q 223.7 458.9 223 461.5 L 224 463.5 L 223 463.5 Q 223.7 460.9 221 462 L 221 460 Z "></path><path d="M 215 463 L 217 463.5 L 215 464.5 L 215 463 Z "></path><path d="M 224.5 465 L 225 466.5 L 223.5 469 L 222.5 467 Q 225 467.7 224.5 465 Z "></path><path d="M 310.5 497 Q 318.7 495.9 322 498 L 322 502 L 320.5 502 L 319.5 503 L 312 503 L 311.5 501 L 311 503.5 L 314.5 505 Q 321 504 323 507.5 L 317.5 508 Q 316.3 505.8 311.5 507 L 312.5 509 Q 319.5 507.9 323 510.5 L 320.5 512 L 317.5 511 L 318.5 513 Q 324.5 511.5 326 514.5 Q 326.8 516.8 324.5 516 L 313.5 514 L 312 517 L 326.5 517 L 330 519.5 L 329 522 L 321.5 523 L 319.5 523 L 315.5 522 L 313 522.5 Q 314.3 533.5 312 539 L 309 537.5 L 308 522 L 299 522 L 299 527 L 297.5 527 L 295 523.5 L 296 521 L 298.5 520 L 309 519.5 Q 300.5 519.8 296 517 L 297.5 513 L 308 511.5 L 299.5 509 L 297.5 510 L 296 506 L 302.5 504 L 304.5 505 L 308 503.5 Q 307 498 310.5 497 Z M 315 499 L 313 500 L 313 501 L 318 501 L 315 499 Z M 302 507 L 302 508 L 307 509 Q 308 505 302 507 Z M 302 514 L 301 516 L 305 517 L 307 517 Q 309 518 308 514 L 306 515 L 302 514 Z M 314 519 L 315 520 L 317 520 L 325 521 L 325 519 L 314 519 Z "></path><path d="M 317 525 Q 322.2 522.9 321 527.5 L 317 529 L 317 525 Z "></path><path d="M 342.5 544 L 342 545.5 L 343 548.5 L 342 552.5 L 344 557.5 L 342 556.5 L 341 554.5 Q 343.5 553 340 551.5 L 341 545.5 L 342.5 544 Z "></path><path d="M 78.5 562 L 82.5 563 L 84.5 563 L 88.5 562 Q 91.5 562.5 91 566.5 L 87 568 Q 88.8 563.5 83.5 565 L 81 569.5 L 81 571.5 L 81.5 573 L 86.5 569 L 89 574.5 L 85 576 Q 86.1 572.7 82 574 L 81 579.5 L 83.5 583 L 87 581.5 L 88.5 579 Q 92.3 577.8 91 581.5 L 90 585 L 78.5 586 L 77 582.5 Q 79.3 581.3 78 576.5 L 77 575.5 Q 78.3 566.6 76 563 L 78.5 562 Z "></path><path d="M 187.5 562 L 194 563 Q 191.7 568.6 193 579.5 Q 194.2 584.2 201.5 583 L 203 581.5 L 203 565 L 199 565 L 199 563.5 Q 199.8 561.3 203.5 562 L 206.5 563 Q 210.3 562 209 565 L 207 565.5 L 207 579.5 L 210 583.5 L 205.5 584 Q 204 581.5 202.5 585 L 195.5 586 L 190 581.5 L 188 566.5 L 186 563.5 L 187.5 562 Z "></path><path d="M 215 562 L 229.5 562 L 233 564.5 Q 234.3 571.8 229.5 573 L 222 574 Q 220.6 580.7 224 583.5 L 220.5 585 L 215 583.5 Q 218.3 582.3 217 576.5 L 216 575.5 L 216 564.5 L 215 562 Z M 222 564 L 223 572 Q 227 573 228 570 L 227 566 L 227 564 L 222 564 Z "></path><path d="M 243.5 562 Q 249.7 561.3 252 564.5 L 250.5 568 L 247 566.5 L 245.5 564 L 243 564 L 243 570.5 Q 244.3 573.3 245.5 571 Q 252.5 569.5 254 573.5 Q 254.9 580.3 253 583 L 249.5 585 L 240.5 585 L 235.5 584 L 232 585 L 235.5 579 Q 239.9 577.5 239 580.5 L 240.5 582 L 248.5 583 L 248 581.5 L 248 574 L 240.5 574 Q 236.5 572.5 238 565.5 L 243.5 562 Z "></path><path d="M 13 563 L 17.5 564 Q 19 561.5 24.5 563 L 26.5 563 L 32 565.5 Q 33.5 573.5 28.5 575 L 20 576 L 19 579.5 L 20 584 L 22 584.5 L 14.5 586 Q 11.8 584.7 14 583.5 L 14 565.5 L 13 563 Z M 21 565 Q 17 567 19 573 L 23 574 L 25 573 L 26 567 Q 25 564 21 565 Z "></path><path d="M 35 563 L 39.5 564 L 42.5 563 L 47 565.5 L 53 584 Q 57.1 582.7 56 586 L 46.5 586 L 46 584 Q 49.8 585.5 49 582.5 L 46 576 L 37 575 L 34 582.5 L 36.5 584 L 38 583.5 Q 38.9 586.5 34.5 585 L 30 586 L 33 578.5 L 33 574.5 L 36 565.5 L 35 563 Z M 40 565 L 38 571 L 38 573 L 44 573 L 42 569 Q 43 564 40 565 Z "></path><path d="M 64.5 563 Q 70.5 561.5 72 564.5 Q 72.9 567.9 67.5 566 L 65.5 565 L 61 568.5 L 60 577.5 L 63.5 582 Q 70.8 584.3 69 579 L 65 578.5 L 66.5 577 L 74 577 L 73 581.5 L 74 585 L 66.5 585 L 65.5 586 L 62.5 585 L 56 579.5 L 55 573.5 Q 56.5 567 61.5 564 L 64.5 563 Z "></path><path d="M 167.5 563 Q 175.5 561 177.5 565 L 179.5 564 L 181 566.5 L 178.5 571 L 175 571 L 175 567 L 173.5 567 L 168.5 566 Q 164.3 568.8 163 574.5 L 169.5 583 L 176.5 584 L 179.5 582 L 180.5 584 Q 176.1 587.1 167.5 586 L 160 581.5 L 158 574.5 L 159 569.5 L 164.5 564 L 167.5 563 Z "></path><path d="M 125.5 566 Q 130.1 564.8 128 570 Q 125.3 568.9 126 571.5 L 128.5 576 L 130.5 572 L 134 573 L 135 576.5 Q 133.3 580.8 131.5 578 L 130 578.5 Q 132.7 580.8 132 586.5 L 131 590 L 123 592 Q 121.8 589 125.5 590 Q 128.3 588.8 127 583.5 L 121 569.5 L 125.5 566 Z "></path><path d="M 118.5 575 L 123 578.5 Q 123.8 584.3 119.5 585 Q 113 586 111 582.5 Q 110.3 577.8 113.5 577 L 118.5 575 Z M 117 578 L 115 580 L 116 583 Q 119 584 118 582 L 118 580 Q 119 577 117 578 Z "></path><path d="M 341.5 579 Q 343.8 578.3 343 580.5 L 341.5 579 Z "></path><path d="M 265.5 580 Q 269.3 579.3 270 581.5 L 268.5 585 L 263 584 L 265.5 580 Z "></path><path d="M 340.5 589 L 341 590.5 L 340.5 593 Q 337.8 591.8 340 590.5 L 340.5 589 Z "></path><path d="M 344.5 589 L 345 592.5 L 343 593.5 L 344.5 589 Z "></path></svg>