<svg width="350" height="600" version="1.1" xmlns="http://www.w3.org/2000/svg" desc="Created with imagetracer.js version 1.2.5"><path d="M 272.5 4 L 273.5 5 L 293.5 5 L 294.5 4 L 302.5 4 L 304.5 4 L 313.5 5 L 314.5 4 L 328.5 4 L 334 6.5 L 335 22.5 L 334 27.5 L 335 28.5 L 335 47.5 L 334 48.5 L 334 69.5 L 335 70.5 L 335 101.5 L 334 102.5 L 334 115.5 L 335 116.5 L 335 151.5 L 336 152.5 L 335 157.5 L 336 160.5 L 336 223.5 L 337 228.5 L 336 229.5 L 336 300.5 L 337 301.5 L 337 313.5 L 338 314.5 L 338 371.5 L 337 372.5 L 337 388.5 L 338 389.5 L 338 415.5 L 337 420.5 L 338 421.5 L 338 503.5 L 337 504.5 L 337 519.5 Q 339.8 521.3 338 527.5 L 337 528.5 L 337 546.5 L 339 553.5 L 339 572.5 L 338 576.5 Q 340.3 577.8 339 582.5 L 339 584.5 L 339 592.5 L 338.5 593 L 289.5 593 L 288.5 594 L 270.5 594 L 269.5 593 L 245.5 593 L 244.5 594 L 223.5 594 L 215.5 596 L 198.5 596 L 197.5 595 L 153.5 594 L 152.5 595 L 136.5 595 L 135.5 596 L 133.5 596 L 129.5 595 L 18.5 595 Q 16.8 597.8 10.5 596 L 8.5 596 L 5 593.5 L 6 576.5 L 5 575.5 L 5 555.5 L 6 554.5 L 6 541.5 L 5 540.5 L 5 525.5 L 6 522.5 L 6 504.5 L 5 499.5 L 6 498.5 L 6 433.5 L 5 432.5 L 5 420.5 L 6 419.5 L 6 376.5 L 5 375.5 L 4 244.5 L 5 242.5 L 4 237.5 L 5 235.5 L 4 234.5 L 4 171.5 L 4 169.5 L 5 165.5 L 4 162.5 L 5 158.5 L 4 157.5 L 4 142.5 Q 6.3 141.3 5 136.5 L 4 135.5 L 4 114.5 L 5 111.5 L 4 108.5 L 5 106.5 L 4 105.5 L 4 60.5 L 5 59.5 L 5 8 L 9.5 9 L 10.5 8 L 22.5 8 L 24.5 8 L 28.5 9 L 60.5 9 L 61.5 10 L 62.5 9 L 94.5 9 L 95.5 8 L 96.5 9 L 120.5 9 L 124.5 8 L 125.5 9 L 165.5 9 L 166.5 8 L 198.5 8 L 199.5 7 L 203.5 8 L 204.5 7 L 213.5 7 L 222.5 5 L 271.5 5 L 272.5 4 Z M 230 8 L 222 10 L 203 10 L 202 11 L 177 12 L 175 12 L 173 11 L 171 12 L 143 12 L 142 13 L 140 12 L 113 12 L 112 13 Q 106 15 105 12 L 77 12 L 76 13 L 9 12 L 9 34 L 8 36 L 8 38 L 8 213 L 9 214 L 8 218 L 8 228 L 9 229 L 8 232 L 8 247 L 8 249 L 9 255 L 11 253 L 19 251 L 38 251 L 51 255 L 58 259 L 67 259 L 66 257 L 67 251 L 72 247 Q 76 248 78 246 L 85 247 Q 88 248 88 253 Q 89 239 95 231 L 93 228 L 93 213 L 91 206 L 91 201 L 88 193 L 89 191 L 87 184 L 84 181 L 84 164 L 86 160 L 86 152 L 88 144 L 92 142 Q 91 139 94 140 L 97 134 L 96 133 L 100 128 L 87 136 L 80 135 L 76 131 L 82 121 Q 81 116 83 115 Q 84 107 81 105 L 81 95 L 88 81 L 82 77 L 80 78 Q 73 79 70 76 L 67 76 L 59 80 L 48 78 L 45 79 L 41 76 L 37 77 L 19 75 L 17 73 L 12 72 Q 10 74 9 72 L 10 69 L 17 65 L 41 61 L 37 60 L 33 57 L 25 55 L 23 55 L 23 51 L 28 52 L 46 51 L 52 49 L 64 49 L 73 47 L 82 47 L 83 46 L 90 48 L 93 54 L 93 64 L 93 66 Q 92 70 96 68 Q 95 73 98 74 Q 101 71 109 72 L 120 58 L 124 59 L 131 68 L 129 71 L 133 68 L 136 69 L 141 76 L 145 78 L 141 86 L 149 91 L 149 94 L 141 102 L 140 105 L 143 117 L 139 118 L 138 123 L 143 126 L 141 133 L 137 135 L 133 134 Q 130 135 131 139 L 129 140 L 144 151 L 158 177 L 161 185 L 161 189 L 164 192 L 164 195 L 171 199 L 181 199 L 189 197 L 197 198 Q 199 204 198 215 L 199 215 L 199 199 L 197 197 Q 203 197 204 194 Q 203 191 206 192 L 208 189 L 212 186 Q 215 187 214 185 L 212 183 Q 207 181 208 174 L 214 169 L 212 161 L 201 137 L 196 131 L 195 126 L 202 120 L 213 119 L 214 118 L 236 118 L 245 120 L 250 125 L 249 133 L 232 167 Q 230 170 229 166 L 224 167 Q 220 168 221 166 L 223 164 L 231 164 L 232 160 Q 229 159 230 162 L 226 163 Q 222 164 221 162 L 222 160 L 230 160 L 229 159 Q 230 156 227 157 L 227 154 L 230 155 Q 232 154 231 157 L 234 158 L 235 155 L 232 154 L 235 152 L 236 154 L 236 152 L 233 150 Q 228 151 229 148 Q 235 147 238 150 L 241 140 L 239 141 L 229 141 L 228 140 L 230 138 L 243 137 L 244 135 L 235 137 L 225 137 L 225 133 L 214 133 L 213 135 Q 211 136 214 138 L 213 139 L 206 138 L 207 140 L 214 140 L 213 143 L 209 141 L 207 144 L 210 151 L 213 149 L 218 152 L 217 156 L 214 156 Q 215 152 212 153 L 217 166 L 216 169 L 219 171 L 216 175 L 216 177 L 219 180 L 222 180 L 220 174 L 222 170 L 224 171 L 223 177 L 224 181 L 224 182 L 220 182 L 220 190 L 222 191 L 225 190 L 228 190 L 228 182 L 231 182 L 233 179 L 232 173 L 230 172 L 231 174 L 230 179 Q 231 182 228 181 L 229 178 L 226 170 L 229 169 Q 234 169 236 174 Q 238 180 234 182 Q 235 184 233 183 L 231 185 L 231 192 L 234 194 L 232 201 L 230 203 L 233 222 Q 234 228 239 232 L 236 238 L 237 239 L 239 238 L 238 242 L 239 266 L 240 266 Q 242 259 239 258 L 240 241 L 242 234 L 247 224 L 254 220 L 256 222 L 254 223 L 248 229 L 245 235 L 242 252 L 244 257 L 245 244 L 252 228 L 256 225 L 252 233 L 253 235 L 262 219 L 265 220 Q 257 228 253 241 L 254 244 L 256 242 L 256 238 L 259 232 L 264 225 L 269 223 L 271 225 Q 264 229 262 239 L 263 242 L 267 231 L 280 220 L 283 221 L 273 237 L 269 256 L 263 267 L 261 270 L 264 269 L 270 261 L 272 245 L 278 236 L 286 229 L 296 227 L 286 220 Q 283 221 284 218 L 272 216 L 255 216 L 254 217 L 242 218 L 237 220 Q 235 222 234 220 L 238 217 L 246 215 L 262 214 L 265 213 L 266 214 L 284 216 L 307 230 L 313 238 L 323 258 L 325 268 L 327 268 Q 326 265 329 266 L 332 263 L 332 253 L 333 252 L 333 209 L 332 208 L 333 206 L 332 201 L 332 143 L 331 142 L 332 138 L 331 136 L 331 68 L 330 67 L 330 51 L 331 50 L 331 31 L 330 30 L 330 22 L 331 21 L 330 8 L 308 8 L 307 9 L 302 8 L 298 9 L 296 8 L 279 8 L 278 9 Q 272 11 271 8 L 262 8 L 261 9 Q 255 11 254 8 L 252 9 Q 243 6 230 8 Z M 84 48 L 83 49 L 69 50 L 67 50 L 58 52 L 47 52 L 42 54 L 45 55 L 52 53 L 75 52 L 77 51 L 79 51 L 81 50 L 84 51 L 88 59 L 89 68 L 90 68 L 90 60 L 89 59 L 90 56 L 89 53 L 84 48 Z M 26 53 L 26 55 L 40 55 Q 31 55 26 53 Z M 71 53 L 66 56 L 53 60 Q 48 59 49 62 L 70 57 L 72 57 L 75 59 L 78 66 L 80 67 L 78 60 L 71 53 Z M 77 53 Q 75 55 80 54 L 81 55 Q 82 51 77 53 Z M 84 53 L 82 56 Q 81 58 85 57 L 84 53 Z M 55 55 L 54 57 L 58 56 L 55 55 Z M 39 57 L 39 58 L 45 58 L 39 57 Z M 80 58 L 81 60 Q 82 57 80 58 Z M 69 59 L 64 61 L 65 63 L 71 60 L 69 59 Z M 85 59 Q 82 61 85 62 Q 88 61 85 59 Z M 121 59 L 114 67 L 104 84 L 107 88 Q 108 92 104 93 L 104 99 L 110 99 L 113 105 Q 116 103 116 99 Q 117 96 119 98 L 135 83 L 141 80 L 142 78 L 135 70 L 133 70 L 124 81 L 121 80 L 121 77 L 129 67 L 121 59 Z M 58 62 Q 55 65 50 64 L 49 66 L 60 64 Q 61 61 58 62 Z M 71 62 L 71 64 L 74 63 L 71 62 Z M 32 64 L 30 65 L 30 66 L 35 65 L 32 64 Z M 86 64 Q 84 67 87 66 L 86 64 Z M 68 65 L 66 66 L 65 68 L 69 67 Q 70 64 68 65 Z M 44 66 L 42 68 L 45 68 Q 46 65 44 66 Z M 59 66 L 57 67 L 57 68 L 61 67 L 59 66 Z M 74 66 L 74 68 L 76 67 L 74 66 Z M 36 67 L 34 68 L 32 71 L 37 69 L 40 70 L 42 69 Q 40 66 36 67 Z M 81 67 L 80 69 L 84 72 L 81 67 Z M 26 68 L 26 69 L 28 69 L 26 68 Z M 19 69 L 19 70 L 21 70 L 19 69 Z M 59 69 L 56 70 L 56 71 Q 59 72 60 70 L 59 69 Z M 68 69 L 66 72 L 70 71 Q 71 68 68 69 Z M 78 69 Q 75 73 79 72 L 78 69 Z M 93 70 L 89 74 L 90 75 L 89 78 L 94 76 L 93 74 L 93 72 L 93 70 Z M 27 71 L 24 73 L 27 73 L 27 71 Z M 63 71 L 62 74 L 65 74 L 63 73 L 63 71 Z M 71 72 L 70 74 L 73 73 L 71 72 Z M 128 72 L 126 74 L 128 74 L 128 72 Z M 60 73 L 58 75 Q 55 74 56 77 Q 61 78 62 75 L 60 73 Z M 51 74 L 49 75 L 49 76 L 52 75 L 51 74 Z M 80 74 L 75 76 L 80 76 L 80 74 Z M 86 75 L 85 77 L 87 76 L 86 75 Z M 101 75 L 94 79 L 89 84 L 84 93 Q 82 103 86 109 L 84 121 L 81 127 L 87 129 Q 89 134 84 132 L 84 130 L 82 131 Q 80 127 78 131 L 79 133 L 83 135 L 92 132 Q 93 129 90 130 L 91 128 L 93 129 L 100 124 L 102 124 L 105 121 Q 101 119 105 117 Q 107 116 106 119 L 106 120 L 109 119 L 108 116 L 111 114 L 112 117 L 114 114 Q 112 112 115 111 L 116 113 L 119 111 L 120 109 L 120 107 Q 119 104 122 105 L 123 107 L 129 100 Q 126 101 127 98 L 130 99 L 133 97 L 131 96 Q 130 93 133 94 L 134 96 L 142 90 Q 144 91 143 88 L 140 88 Q 141 91 139 90 L 140 88 L 137 85 L 130 90 Q 131 92 129 91 Q 119 99 113 111 L 111 113 L 105 115 L 97 110 Q 95 101 100 100 Q 99 97 102 98 L 101 94 L 104 90 Q 105 85 102 85 L 106 77 Q 107 74 101 75 Z M 139 95 L 136 99 L 138 98 L 139 101 L 140 101 Q 141 94 139 95 Z M 103 99 Q 98 102 99 109 L 103 111 L 108 111 L 110 108 L 107 109 L 104 108 L 101 105 L 104 100 L 103 99 Z M 108 101 L 106 103 L 108 103 L 108 101 Z M 139 101 Q 135 102 136 107 Q 133 108 134 106 L 131 104 L 131 102 L 127 106 Q 128 112 124 113 Q 121 112 122 116 L 115 119 L 131 125 Q 135 126 134 124 L 136 121 Q 128 123 130 118 L 133 119 L 135 118 Q 137 119 136 117 Q 137 114 139 116 L 141 115 L 140 110 L 137 106 L 139 103 L 139 101 Z M 110 120 Q 109 124 112 123 L 113 127 L 110 129 L 114 130 L 123 130 L 127 132 L 135 132 L 136 133 L 139 132 Q 143 130 140 128 L 138 129 L 123 125 L 110 120 Z M 214 120 L 201 123 Q 198 124 199 129 L 202 129 L 200 126 Q 205 121 216 123 L 218 123 L 219 122 L 235 122 L 237 125 L 237 123 Q 241 122 239 128 Q 237 126 236 129 L 232 128 L 232 125 L 231 127 L 229 124 L 224 124 L 223 126 L 225 125 L 225 127 L 223 126 L 222 128 L 206 128 L 204 130 L 214 130 L 218 130 L 220 131 L 238 130 L 241 129 L 240 126 L 243 124 L 245 124 L 246 127 L 247 125 L 243 121 Q 237 123 236 120 L 231 121 L 229 120 L 214 120 Z M 221 124 L 220 127 L 221 127 L 221 124 Z M 102 130 L 99 131 L 98 139 L 98 140 Q 102 141 104 138 L 118 138 L 119 139 L 126 139 L 126 141 L 124 140 L 122 141 L 131 145 L 131 144 L 128 139 L 129 139 L 129 135 L 122 132 Q 113 133 110 130 L 102 130 Z M 244 130 L 240 132 L 245 133 L 246 131 L 244 130 Z M 229 132 L 228 134 Q 234 135 234 133 L 233 133 L 229 132 Z M 237 132 L 237 133 L 240 133 L 237 132 Z M 120 146 L 118 149 L 122 148 Q 123 145 120 146 Z M 101 148 L 94 151 L 89 159 L 90 163 L 90 161 L 93 159 L 92 161 Q 91 170 95 175 Q 99 179 106 180 L 112 179 Q 114 183 110 182 L 108 182 L 106 183 L 95 178 L 91 173 L 90 177 L 88 176 L 87 180 L 92 178 L 93 183 L 96 184 L 97 181 L 102 184 Q 106 183 108 185 L 112 184 Q 115 183 114 186 L 111 187 Q 105 189 104 186 L 101 187 L 106 191 L 108 194 Q 110 197 111 194 Q 110 190 113 191 L 114 189 L 123 183 Q 128 185 126 179 L 132 175 L 135 177 L 139 174 L 135 170 L 131 167 L 129 162 L 123 155 L 112 149 L 101 148 Z M 134 148 L 133 150 L 138 153 L 138 152 L 134 148 Z M 132 154 L 129 155 Q 128 158 132 157 L 133 159 L 134 156 L 132 154 Z M 141 154 L 140 156 L 142 157 L 141 154 Z M 137 158 Q 133 159 134 163 L 139 161 L 137 158 Z M 145 160 L 145 163 L 144 165 L 141 163 L 138 165 Q 135 164 136 167 L 141 170 L 143 174 L 147 176 L 145 171 L 149 169 L 150 170 L 145 160 Z M 90 169 L 89 173 L 90 173 L 90 169 Z M 215 170 L 211 174 Q 210 178 213 179 Q 212 182 215 181 L 216 180 L 213 177 L 217 171 L 215 170 Z M 131 177 Q 128 178 129 184 Q 128 186 125 185 L 121 192 L 123 192 Q 124 188 126 192 L 125 194 L 128 193 Q 130 194 128 196 L 129 197 L 131 196 L 128 202 L 129 204 L 131 199 L 135 198 L 136 199 L 130 208 L 131 209 L 138 200 L 140 202 L 135 209 L 136 211 L 140 209 L 139 208 Q 138 205 141 206 Q 142 211 138 214 L 139 216 L 151 197 L 147 193 L 135 181 L 131 177 Z M 138 178 L 137 180 L 140 182 L 138 178 Z M 149 178 L 145 181 L 152 182 L 155 187 L 157 188 L 156 184 L 149 178 Z M 218 182 L 216 186 Q 215 189 212 188 L 206 195 Q 203 194 204 197 L 202 197 Q 201 200 204 200 L 204 207 L 205 207 Q 203 201 207 202 L 209 208 L 210 204 L 211 208 L 214 209 L 225 209 L 226 208 L 221 207 L 221 205 L 227 205 L 227 202 L 224 203 Q 221 204 222 201 L 226 200 L 228 200 Q 230 201 229 198 L 225 199 L 223 195 L 230 195 L 231 196 L 231 193 L 229 192 L 224 193 L 215 191 Q 214 188 218 189 L 218 182 Z M 148 185 L 146 188 Q 151 187 153 192 L 154 192 L 153 190 L 148 185 Z M 96 191 L 97 193 L 98 193 L 96 191 Z M 160 191 L 158 193 L 161 199 L 160 202 L 157 201 L 156 205 L 147 216 Q 146 218 149 217 L 149 219 L 147 218 L 144 224 L 148 225 Q 151 227 148 228 L 143 225 Q 141 229 146 228 Q 149 229 148 233 L 150 232 L 156 233 L 156 232 Q 152 233 153 230 L 159 230 L 159 232 Q 156 233 158 235 L 148 234 L 150 237 L 159 236 L 161 233 L 161 225 L 160 228 L 154 228 L 154 226 L 159 226 L 156 224 Q 155 221 160 222 Q 161 224 162 222 L 157 220 L 157 218 L 162 218 L 162 215 L 158 215 L 162 213 Q 163 210 160 211 Q 159 208 162 209 L 161 206 L 163 199 L 160 191 Z M 95 195 L 94 197 L 98 198 L 101 197 L 95 195 Z M 124 195 L 122 198 L 124 197 L 124 195 Z M 156 195 Q 148 202 144 213 Q 142 214 145 215 L 147 211 L 153 206 L 157 198 L 156 195 Z M 104 198 Q 101 199 102 203 L 106 201 Q 109 202 108 199 L 104 198 Z M 189 199 L 181 201 L 170 201 L 169 206 L 169 207 Q 172 206 171 210 L 172 210 Q 171 205 175 207 L 176 210 L 176 208 L 179 208 L 179 215 L 181 215 L 181 208 L 183 208 L 186 215 L 186 209 L 189 207 L 191 214 L 193 208 L 195 212 L 196 205 L 195 202 L 195 199 L 189 199 Z M 166 200 L 164 207 L 166 208 L 166 200 Z M 97 201 L 95 204 L 98 206 Q 100 200 97 201 Z M 110 202 L 105 206 L 102 206 L 104 209 L 113 204 Q 117 203 119 205 L 120 205 L 118 203 L 114 203 L 110 202 Z M 128 204 L 126 206 L 128 206 L 128 204 Z M 113 206 L 108 210 L 103 210 Q 100 211 101 216 Q 102 218 104 216 L 107 217 L 108 217 L 106 214 L 110 211 Q 117 210 120 214 L 121 210 L 113 206 Z M 203 209 L 201 220 L 198 222 Q 193 223 192 221 L 179 222 L 175 224 L 179 228 L 180 233 L 180 242 L 179 243 L 180 249 L 182 247 L 189 246 L 199 240 Q 201 241 200 238 L 202 238 L 202 236 L 206 235 L 200 229 L 207 210 L 203 209 Z M 228 210 L 225 212 L 223 211 L 216 212 L 216 214 L 222 214 L 222 216 L 218 217 L 216 214 L 215 217 L 215 218 Q 221 219 224 217 Q 226 221 222 220 L 220 220 L 213 221 L 212 228 L 220 228 L 221 227 L 223 228 L 225 227 Q 231 226 230 229 L 229 230 L 217 231 L 215 231 Q 209 230 211 234 L 226 233 L 228 233 L 234 231 L 228 210 Z M 97 212 Q 94 216 98 215 L 97 212 Z M 210 214 L 203 229 L 205 229 L 207 233 L 208 233 Q 209 227 205 227 L 208 226 L 209 227 Q 210 224 207 225 L 207 223 L 210 224 L 210 221 Q 212 219 209 218 L 211 216 L 210 214 Z M 166 215 L 164 222 L 164 230 L 167 230 L 167 228 Q 164 229 165 227 L 167 227 L 166 215 Z M 98 217 L 96 219 L 97 222 L 98 222 L 98 217 Z M 110 218 L 111 220 L 112 220 L 110 218 Z M 194 219 L 195 221 Q 196 218 194 219 Z M 121 221 L 117 224 L 117 225 Q 121 225 121 223 L 121 221 Z M 106 222 Q 104 226 108 225 Q 110 226 109 230 Q 111 234 119 232 L 119 231 Q 113 233 114 230 Q 112 231 110 228 L 111 223 L 106 222 Z M 140 222 L 141 224 Q 142 221 140 222 Z M 115 225 L 114 227 L 116 226 L 115 225 Z M 130 225 L 131 227 L 132 227 L 130 225 Z M 139 226 L 137 229 Q 136 231 139 230 L 139 226 Z M 118 227 L 115 229 L 119 229 Q 120 226 118 227 Z M 172 227 L 171 230 L 174 231 L 171 233 L 169 236 L 172 236 L 176 233 L 175 229 L 172 227 Z M 128 228 L 125 237 L 129 239 L 131 231 L 128 228 Z M 272 229 L 270 232 L 272 231 L 272 229 Z M 292 230 L 285 233 L 282 237 L 293 232 Q 299 230 297 235 L 295 234 L 292 234 L 286 237 L 280 244 L 276 254 L 277 256 L 280 249 L 294 238 L 305 237 L 309 243 L 308 247 L 313 248 L 316 256 Q 314 259 313 255 Q 310 254 311 257 L 313 258 L 319 259 L 318 254 L 313 244 L 308 236 Q 305 237 306 235 Q 303 228 292 230 Z M 101 231 L 101 233 L 115 237 Q 120 239 118 234 L 108 233 Q 106 229 105 232 L 101 231 Z M 165 231 L 163 234 L 167 233 Q 168 230 165 231 Z M 263 231 L 260 235 L 261 236 L 263 233 L 263 231 Z M 139 232 L 137 240 L 145 241 L 145 236 Q 142 237 143 235 L 139 232 Z M 270 232 L 267 236 L 268 238 L 270 234 L 270 232 Z M 97 233 L 96 235 L 101 237 L 102 237 L 97 233 Z M 234 234 L 230 235 L 228 243 L 228 254 L 227 255 L 230 269 L 230 276 L 233 274 L 232 273 L 232 261 L 231 260 L 231 248 L 232 247 L 231 245 L 235 235 L 234 234 Z M 206 235 L 205 238 Q 202 237 203 240 L 195 244 L 196 248 Q 195 258 197 265 Q 199 273 204 278 L 206 284 L 206 289 L 211 292 L 209 286 L 210 284 L 200 264 L 198 256 L 199 249 L 204 239 L 207 241 L 203 249 L 204 264 L 213 281 L 213 293 L 212 294 L 213 296 L 215 290 L 214 288 L 214 277 L 207 261 Q 209 254 206 253 Q 207 242 211 237 L 206 235 Z M 168 236 L 167 237 Q 164 236 165 239 L 168 238 L 168 236 Z M 176 236 L 174 238 L 176 238 L 176 236 Z M 220 236 L 214 237 L 210 248 L 210 257 L 219 280 L 219 291 L 218 292 Q 217 295 220 296 L 223 290 L 223 278 L 219 262 Q 217 245 223 237 L 220 236 Z M 225 236 L 226 240 L 227 238 Q 228 235 225 236 Z M 160 237 L 152 239 L 152 248 L 155 250 L 155 242 Q 156 238 161 239 Q 162 236 160 237 Z M 251 237 L 249 240 L 250 244 L 251 240 L 251 237 Z M 282 237 L 278 242 L 282 239 L 282 237 Z M 96 238 L 92 248 L 93 251 L 96 241 Q 98 239 96 238 Z M 108 238 Q 107 240 110 239 L 111 240 Q 112 237 108 238 Z M 173 238 L 170 239 L 169 241 Q 173 242 174 239 L 173 238 Z M 99 240 L 98 244 L 99 246 Q 100 244 106 245 L 107 249 L 111 251 L 115 245 L 99 240 Z M 116 240 L 118 242 L 124 242 Q 121 239 116 240 Z M 266 240 L 265 243 L 266 243 L 266 240 Z M 297 240 L 284 247 L 281 254 L 282 255 Q 289 244 303 241 L 297 240 Z M 130 241 L 128 243 L 136 245 L 143 245 L 142 243 L 138 244 L 130 241 Z M 176 241 L 171 245 L 176 245 L 176 241 Z M 278 242 L 276 244 L 277 246 L 278 244 L 278 242 Z M 253 244 L 252 247 L 253 247 L 253 244 Z M 299 244 L 293 247 L 282 259 L 283 261 L 285 257 Q 290 249 300 246 L 303 247 Q 305 248 304 246 L 305 244 L 302 245 L 299 244 Z M 122 245 L 119 247 L 116 253 L 113 255 L 106 254 L 103 251 L 101 250 Q 99 254 103 253 L 104 256 L 110 259 Q 110 256 115 256 L 118 253 L 119 254 Q 121 253 120 250 L 126 247 Q 125 244 122 245 Z M 224 245 L 223 253 L 224 253 L 224 245 Z M 131 247 L 135 251 L 143 251 L 144 250 L 138 248 L 136 248 L 131 247 Z M 174 247 L 175 255 L 176 249 Q 177 246 174 247 Z M 190 247 L 187 250 L 188 256 Q 190 255 189 251 L 191 249 Q 192 246 190 247 Z M 170 248 L 168 252 Q 167 255 170 254 L 170 248 Z M 125 249 L 122 253 L 123 255 L 129 253 L 137 257 Q 142 258 143 256 L 142 253 L 140 254 L 134 254 Q 131 250 125 249 Z M 146 249 L 147 258 L 149 259 L 146 249 Z M 181 249 L 182 254 L 184 250 L 183 250 L 181 249 Z M 299 249 L 293 252 L 285 262 L 286 263 L 290 257 L 299 253 L 301 253 L 302 251 Q 303 247 299 249 Z M 77 250 Q 75 252 80 251 L 81 252 Q 82 248 77 250 Z M 235 250 L 234 253 L 235 253 L 235 250 Z M 310 250 Q 308 253 311 252 L 310 250 Z M 72 251 L 70 254 L 74 255 Q 79 253 78 257 L 73 256 L 70 257 L 71 259 L 73 258 L 75 259 Q 78 258 77 261 L 75 260 L 72 262 L 73 263 L 79 263 Q 80 266 77 265 L 75 265 L 77 281 L 80 282 Q 84 283 83 281 L 83 279 L 83 266 L 81 264 L 81 255 L 80 253 L 78 254 L 72 253 L 72 251 Z M 304 252 L 301 265 L 302 268 Q 303 272 300 273 L 307 275 L 308 276 L 307 274 L 310 264 L 308 256 L 306 254 Q 307 251 304 252 Z M 31 253 L 30 254 L 17 254 L 12 256 L 8 260 L 8 276 L 9 277 L 9 297 Q 7 298 8 304 L 8 306 L 8 317 L 9 318 L 9 360 L 10 361 L 10 369 L 9 370 L 9 386 L 10 387 L 10 401 L 9 402 L 10 428 L 10 427 L 19 420 L 16 419 Q 14 415 19 416 L 20 419 L 22 418 L 21 415 L 24 413 L 26 416 L 26 414 Q 24 412 27 411 L 30 412 Q 43 406 54 397 Q 64 390 67 376 L 66 369 L 62 363 L 63 360 Q 62 357 65 358 L 67 363 L 68 361 L 67 359 Q 66 356 70 357 L 74 372 L 75 372 Q 76 365 73 363 L 74 361 Q 73 358 76 359 Q 78 360 78 365 Q 77 361 80 360 L 70 354 L 64 346 L 60 332 L 61 310 L 66 292 L 67 280 L 68 279 Q 68 269 62 266 L 49 257 L 31 253 Z M 193 253 L 192 260 L 193 260 L 193 253 Z M 87 254 L 84 257 L 86 259 L 87 257 L 87 254 Z M 224 254 L 223 261 L 226 276 L 227 276 L 224 254 Z M 91 255 Q 90 259 93 258 Q 94 254 91 255 Z M 281 255 L 279 258 L 281 257 L 281 255 Z M 119 256 L 117 257 L 115 260 Q 119 261 119 258 L 119 256 Z M 189 256 Q 187 262 189 266 L 191 267 L 189 256 Z M 101 257 L 100 263 L 105 263 Q 108 263 107 268 Q 109 271 110 268 L 109 262 Q 103 261 101 257 Z M 168 257 L 168 269 L 169 261 L 168 257 Z M 262 257 L 260 260 L 256 263 L 254 262 L 252 265 L 255 270 L 258 270 Q 257 267 260 268 L 262 265 L 262 263 Q 259 267 254 266 Q 253 263 258 264 L 262 259 L 262 257 Z M 294 257 L 291 261 L 295 258 L 294 257 Z M 143 258 L 139 260 L 141 264 Q 140 271 135 275 L 139 279 L 140 276 Q 142 271 144 274 L 146 269 L 144 260 L 143 258 Z M 236 259 L 235 262 L 236 262 L 236 259 Z M 320 259 L 317 262 Q 320 262 319 267 L 321 268 L 320 259 Z M 94 260 L 94 263 L 97 264 L 96 262 Q 97 259 94 260 Z M 152 260 L 152 267 L 157 273 L 162 283 L 161 285 L 163 292 L 169 292 L 175 297 L 176 294 L 175 289 Q 174 284 176 283 L 176 275 L 172 285 L 172 288 L 175 292 Q 171 293 170 290 L 166 291 L 166 281 Q 164 272 159 268 L 155 265 L 152 260 Z M 178 260 L 178 263 Q 181 262 178 260 Z M 296 260 L 293 263 L 294 264 L 296 263 L 296 260 Z M 313 260 Q 312 263 315 262 Q 316 259 313 260 Z M 173 261 L 171 263 L 172 268 L 174 264 L 173 261 Z M 194 261 L 193 264 L 194 264 L 194 261 Z M 285 263 L 279 266 L 278 268 L 285 265 L 285 263 Z M 66 264 L 71 274 L 70 292 L 66 302 L 65 313 L 64 314 L 65 316 Q 63 319 64 327 L 63 328 L 64 338 L 70 352 L 77 355 L 79 355 L 82 357 L 84 356 Q 85 352 78 354 L 69 343 L 69 323 L 70 322 L 69 317 L 70 296 L 72 290 L 72 275 L 73 274 L 71 266 Q 70 263 66 264 Z M 295 265 L 289 268 Q 286 267 287 270 L 295 267 L 295 265 Z M 241 266 L 240 271 L 241 271 L 241 266 Z M 332 266 L 330 269 L 326 271 L 329 278 L 331 277 L 333 278 L 333 275 L 333 273 L 332 266 Z M 96 267 Q 93 271 97 270 L 98 271 L 96 267 Z M 276 267 L 274 269 L 276 269 L 276 267 Z M 316 267 L 316 271 L 318 271 L 316 267 Z M 88 268 L 89 269 L 90 270 Q 91 267 88 268 Z M 322 268 L 318 273 L 320 277 L 319 286 Q 317 289 311 288 L 306 294 Q 305 298 308 300 L 308 296 L 311 293 L 322 290 L 326 283 L 325 278 Q 326 275 323 276 L 322 273 L 323 271 L 322 268 Z M 173 269 L 172 272 L 173 272 L 173 269 Z M 268 269 L 267 272 L 268 274 L 275 272 L 273 271 Q 271 273 270 271 Q 271 268 268 269 Z M 295 269 L 292 271 L 295 271 L 295 269 Z M 312 269 L 311 273 L 313 272 L 312 269 Z M 135 270 L 129 274 L 129 275 L 135 273 L 135 270 Z M 167 270 L 167 276 L 169 276 L 169 270 L 167 270 Z M 149 271 L 148 276 L 145 277 L 145 279 L 142 278 L 140 286 L 142 285 L 144 287 L 137 290 L 138 292 L 142 289 Q 145 288 144 291 L 141 293 L 145 293 L 143 297 Q 146 296 145 300 L 145 301 L 148 301 L 156 295 L 160 294 L 154 281 L 149 278 L 151 274 Q 153 275 152 273 L 149 271 Z M 263 271 L 262 272 L 252 272 L 251 279 L 247 285 Q 246 288 242 287 Q 240 293 235 297 L 228 295 L 222 307 L 232 314 L 236 305 Q 241 298 252 297 L 251 296 L 252 290 L 255 288 L 257 284 L 263 278 L 265 278 L 264 276 Q 266 270 263 271 Z M 282 272 L 279 277 L 281 276 L 283 277 L 285 274 Q 286 271 282 272 Z M 290 272 L 288 276 L 290 277 L 296 278 L 299 279 L 303 278 L 311 283 L 312 281 Q 309 282 310 280 L 300 274 L 290 272 Z M 87 273 Q 86 278 89 281 L 90 275 L 87 273 Z M 100 273 L 97 275 L 95 274 L 94 276 L 99 277 L 100 275 L 100 273 Z M 195 273 L 198 280 L 202 283 L 198 275 L 195 273 Z M 172 274 L 169 282 L 170 284 L 172 280 L 172 274 Z M 180 274 L 179 277 L 180 277 L 180 274 Z M 191 274 L 190 276 L 192 277 L 191 274 Z M 242 274 L 240 279 L 241 286 L 242 280 L 242 274 Z M 275 275 L 265 280 L 260 286 L 261 287 L 275 280 Q 277 279 275 278 L 276 276 L 275 275 Z M 185 276 L 184 280 L 185 280 L 185 276 Z M 193 277 L 192 279 L 196 282 L 193 277 Z M 131 278 Q 130 281 133 280 Q 134 277 131 278 Z M 233 278 L 232 282 L 233 282 L 233 278 Z M 284 278 L 274 298 L 262 331 L 272 332 L 285 341 L 283 338 L 285 337 L 286 333 L 288 334 L 289 335 L 288 330 L 292 331 L 291 330 Q 290 327 293 328 L 293 325 L 295 325 L 296 322 L 300 323 Q 303 318 310 318 L 312 314 L 310 309 L 314 302 Q 315 298 319 299 L 319 297 L 314 297 L 310 304 L 308 305 L 306 305 L 304 306 Q 301 305 303 304 Q 305 298 302 297 L 307 285 L 303 281 L 300 282 L 298 280 L 284 278 Z M 330 279 L 327 289 L 324 292 L 314 295 L 321 296 L 326 294 L 330 287 L 330 279 Z M 94 280 L 94 285 L 96 286 Q 95 283 98 284 L 97 283 Q 98 278 94 280 Z M 134 280 L 133 283 L 136 284 L 137 285 Q 138 282 135 283 L 134 280 Z M 317 280 L 315 284 L 311 286 L 315 286 L 317 283 L 317 280 Z M 278 281 L 266 305 L 261 322 L 258 327 L 260 329 L 262 326 L 262 323 L 267 312 L 271 298 L 279 282 L 278 281 Z M 76 282 L 77 289 L 77 294 L 75 300 L 75 311 L 77 313 L 76 323 L 74 329 L 76 329 Q 77 334 74 336 Q 73 341 77 343 L 77 348 L 90 352 L 91 355 L 87 356 L 86 360 L 86 379 L 87 383 L 97 389 L 106 391 L 108 388 L 109 386 L 107 387 L 103 385 L 100 386 L 95 382 L 94 378 L 94 364 L 97 353 L 96 350 Q 97 347 95 348 L 92 346 L 90 337 L 91 335 L 90 332 L 91 330 L 90 326 L 90 306 L 91 305 Q 92 296 87 293 Q 86 288 89 288 L 87 286 L 84 283 L 83 283 L 76 282 Z M 107 282 L 101 283 L 102 285 L 109 284 L 107 282 Z M 126 282 L 129 289 L 132 290 Q 133 292 134 290 L 133 289 Q 130 289 130 285 L 126 282 Z M 112 283 L 112 286 L 114 287 L 120 288 Q 124 288 123 294 L 127 296 L 130 294 L 128 293 L 125 289 L 119 284 L 112 283 Z M 198 283 L 197 285 L 210 301 L 218 308 L 198 283 Z M 232 284 L 231 288 L 232 288 L 232 284 Z M 270 284 L 267 286 L 268 289 L 264 291 L 264 292 L 267 291 L 269 292 L 271 287 Q 272 283 270 284 Z M 240 286 L 239 289 L 240 289 L 240 286 Z M 92 288 L 92 292 Q 91 295 94 294 L 92 288 Z M 99 288 L 100 290 L 108 290 L 108 288 L 99 288 Z M 235 288 L 231 294 Q 230 296 233 295 L 237 289 L 235 288 Z M 116 290 L 115 292 L 119 297 L 116 298 L 119 303 L 123 300 L 116 290 Z M 179 290 L 176 299 Q 175 308 178 313 L 183 316 Q 185 317 184 314 L 182 312 L 179 309 L 179 299 L 181 298 L 181 295 L 179 290 Z M 230 290 L 229 293 L 230 293 L 230 290 Z M 260 292 L 261 294 L 263 293 L 260 292 Z M 110 293 L 104 295 L 102 295 Q 101 298 106 296 L 107 299 L 110 299 L 108 298 Q 107 294 111 295 Q 112 292 110 293 Z M 140 293 L 135 295 L 136 297 L 141 294 L 140 293 Z M 332 293 L 331 298 L 324 301 L 320 308 L 317 306 L 315 309 L 316 311 L 313 320 L 311 321 L 309 324 L 305 323 L 299 330 L 295 332 L 292 339 L 282 352 L 283 357 L 282 360 L 278 363 L 273 364 L 271 367 Q 270 370 264 369 L 262 369 L 256 366 Q 253 367 254 364 L 251 362 L 250 358 L 248 359 Q 245 360 246 357 L 242 357 L 242 355 Q 245 356 244 354 L 241 353 L 243 352 Q 244 349 240 350 L 242 347 L 241 346 L 238 343 L 239 339 Q 241 334 247 334 L 247 332 L 242 333 Q 236 336 236 345 L 236 347 L 236 356 L 235 357 L 234 370 L 256 385 L 266 396 L 269 404 L 267 414 L 260 427 Q 261 429 258 428 L 253 440 L 239 459 Q 241 465 237 464 L 235 468 L 236 469 L 245 464 Q 248 465 246 460 L 255 452 L 259 453 L 263 453 L 268 451 L 273 445 L 285 435 L 290 433 L 294 435 L 296 429 L 302 422 L 301 419 L 303 416 L 307 417 Q 315 420 312 412 Q 309 411 310 414 L 309 414 Q 308 409 312 408 L 315 409 L 315 408 L 312 406 L 310 404 Q 311 400 315 401 L 318 397 L 318 394 L 320 392 L 328 392 Q 332 394 331 400 L 335 401 L 334 399 L 335 397 Q 332 390 334 380 L 333 379 L 334 377 L 334 317 L 333 316 L 333 304 L 332 303 L 332 293 Z M 96 294 L 96 296 L 101 296 L 96 294 Z M 194 294 L 192 296 L 194 296 L 197 299 L 194 294 Z M 266 294 L 264 296 Q 266 299 267 296 Q 268 293 266 294 Z M 162 295 L 156 298 L 155 300 L 157 299 L 159 300 Q 151 302 146 308 Q 143 307 144 310 L 141 311 L 138 315 L 142 318 Q 141 315 144 316 Q 146 317 146 322 L 146 319 L 149 317 L 150 322 L 153 320 Q 154 326 151 329 Q 150 331 153 330 L 154 325 L 157 323 Q 158 329 155 332 Q 154 334 157 333 L 161 327 L 163 331 L 166 320 L 165 305 L 169 303 L 170 307 L 171 304 L 170 297 Q 167 296 168 300 L 165 299 Q 162 300 163 296 L 165 296 L 162 295 Z M 185 295 L 184 297 L 186 298 L 185 295 Z M 326 296 L 322 299 L 322 300 Q 326 301 326 298 L 326 296 Z M 215 297 Q 213 301 217 300 L 219 300 L 221 298 L 215 297 Z M 260 297 L 260 299 L 262 298 L 260 297 Z M 95 299 Q 94 301 98 301 Q 99 298 95 299 Z M 127 299 L 122 304 L 114 323 L 114 333 L 115 334 L 113 338 Q 113 343 117 345 L 117 350 L 114 361 L 106 374 Q 107 378 104 380 Q 103 384 106 385 L 108 384 L 108 382 L 112 382 L 112 388 L 107 393 L 101 393 Q 99 390 95 391 L 85 384 L 80 384 L 70 378 L 64 392 L 52 402 L 16 425 Q 17 427 15 426 L 9 433 L 9 454 L 17 465 L 24 470 L 34 483 L 37 481 Q 47 482 54 479 L 65 471 L 73 471 L 85 480 L 92 478 L 98 478 L 102 480 L 124 482 L 125 483 L 130 482 L 142 482 L 143 483 L 145 480 Q 147 474 144 473 Q 144 465 148 461 L 147 459 L 152 423 L 150 422 L 144 426 Q 135 427 130 424 L 120 426 L 118 430 L 116 431 L 114 431 L 117 429 L 115 426 Q 120 419 130 418 L 127 416 L 124 417 L 121 415 L 110 416 L 108 416 Q 107 419 103 418 L 101 418 L 97 420 Q 92 421 91 418 L 85 420 L 77 418 L 89 410 L 110 400 Q 114 397 115 391 L 115 389 Q 118 383 117 374 L 117 372 L 117 352 L 120 346 L 116 340 L 117 338 L 116 336 L 116 324 L 118 320 L 119 313 L 128 300 L 127 299 Z M 223 299 L 219 302 L 221 305 L 223 301 L 223 299 Z M 252 299 L 250 301 L 244 302 L 238 308 L 235 317 L 242 322 L 246 320 L 251 321 L 252 324 L 253 324 L 252 299 Z M 265 299 L 259 303 L 260 304 L 265 301 L 265 299 Z M 130 301 L 130 304 L 133 304 L 133 303 L 130 301 Z M 188 301 L 188 305 L 189 305 Q 190 300 188 301 Z M 194 301 L 192 304 Q 191 306 194 305 L 194 301 Z M 199 301 L 198 304 L 199 304 L 199 301 Z M 145 304 L 142 306 Q 139 305 140 308 L 136 310 Q 133 312 136 313 Q 138 314 137 312 L 146 305 L 145 304 Z M 263 304 L 259 309 L 262 308 L 263 306 L 263 304 Z M 97 306 Q 94 307 96 309 Q 95 311 98 310 L 97 309 L 98 307 L 97 306 Z M 197 306 L 195 309 L 197 312 L 197 310 L 200 309 L 197 308 L 197 306 Z M 127 307 L 124 312 L 130 313 L 127 307 Z M 204 308 L 204 313 L 205 313 Q 206 309 204 308 Z M 219 308 L 220 311 L 222 314 L 234 322 Q 235 326 237 323 L 225 311 L 219 308 Z M 173 310 L 173 317 L 171 320 L 169 329 L 158 338 L 160 341 L 160 357 L 162 365 L 162 382 L 164 383 L 166 382 Q 168 383 168 387 Q 169 390 173 389 L 172 395 L 192 402 L 193 402 L 191 399 L 190 399 L 181 396 L 175 390 L 176 382 L 180 379 L 181 380 L 178 384 Q 177 390 181 393 L 186 396 L 188 395 L 196 397 L 202 397 L 212 400 Q 216 402 215 398 L 217 397 L 215 401 L 226 403 L 228 402 L 230 403 L 231 399 L 234 397 L 231 403 L 234 403 L 237 399 L 238 403 L 237 405 L 238 408 L 236 412 L 236 415 L 239 419 L 239 424 L 232 438 L 226 446 Q 227 449 224 448 L 221 452 Q 218 451 219 454 L 213 458 L 208 464 Q 209 468 207 470 Q 208 472 205 471 L 205 473 L 202 474 Q 199 473 200 470 L 196 467 L 196 469 L 187 487 Q 186 493 188 497 L 194 499 L 199 497 L 200 495 Q 197 496 198 493 Q 202 494 203 492 L 202 489 Q 200 481 205 483 L 206 487 L 206 480 L 212 478 L 214 481 L 216 477 L 219 479 L 224 477 L 228 471 L 228 469 Q 227 464 232 466 L 229 460 L 233 461 L 235 460 L 233 456 L 236 455 Q 238 456 237 454 L 236 451 Q 241 453 240 450 L 238 446 L 243 447 Q 244 444 241 445 L 240 443 L 242 442 Q 243 440 245 443 L 246 442 Q 247 439 244 440 L 244 438 L 249 438 L 250 435 Q 258 428 262 418 L 266 404 L 263 397 L 252 385 L 225 366 L 222 367 L 210 364 Q 212 359 220 361 L 221 360 Q 219 353 222 352 L 212 344 L 203 336 Q 204 333 201 334 L 191 316 L 188 323 Q 186 326 182 326 L 180 324 L 184 321 L 185 324 L 187 321 L 187 317 L 186 319 L 184 319 L 177 316 L 175 312 Q 176 309 173 310 Z M 210 312 L 208 314 L 209 315 L 213 314 L 210 312 Z M 260 312 L 258 315 L 260 314 L 260 312 Z M 194 314 L 195 316 Q 196 313 194 314 Z M 199 314 L 196 316 L 199 316 L 199 314 Z M 204 314 Q 202 317 205 318 L 206 318 L 204 314 Z M 134 315 L 134 317 L 136 318 Q 137 314 134 315 Z M 127 316 L 128 324 Q 129 320 133 321 L 132 317 L 131 317 L 127 316 Z M 210 317 L 207 318 L 207 319 Q 212 320 213 318 L 210 317 Z M 100 320 L 96 325 Q 97 327 94 326 Q 93 329 96 328 L 100 323 L 102 323 L 109 328 Q 111 329 110 326 L 103 322 L 100 320 Z M 204 321 L 203 323 L 206 323 L 204 321 Z M 223 321 Q 221 324 224 323 L 223 321 Z M 212 322 L 213 323 Q 214 328 210 331 L 211 333 L 215 328 L 214 324 Q 215 321 212 322 Z M 245 322 L 245 324 L 249 325 L 249 324 L 245 322 Z M 134 324 L 132 327 L 136 329 L 137 327 L 134 324 Z M 149 324 L 147 328 L 149 327 L 149 324 Z M 200 325 L 202 328 L 202 327 L 200 325 Z M 245 326 L 244 328 Q 246 331 247 328 L 245 326 Z M 100 327 L 94 334 L 101 331 L 107 335 L 109 334 Q 111 335 110 332 L 106 332 L 100 327 Z M 230 327 L 229 329 L 231 330 L 230 327 Z M 202 328 L 202 330 L 204 331 Q 205 327 202 328 Z M 223 329 L 225 332 Q 228 332 226 339 L 227 339 Q 229 332 226 331 Q 227 327 223 329 Z M 130 330 L 128 333 L 129 335 Q 128 338 132 336 Q 133 331 130 330 Z M 236 330 Q 233 334 237 333 L 236 330 Z M 144 331 L 140 335 L 140 349 L 139 350 L 140 353 L 138 361 L 139 362 L 139 374 L 142 375 L 139 379 L 139 396 L 141 403 L 149 397 Q 151 398 150 394 L 148 394 L 148 384 L 150 377 L 150 363 L 154 343 L 153 338 L 144 331 Z M 216 331 Q 213 338 218 336 Q 219 332 216 331 Z M 257 331 L 256 335 L 256 336 L 258 335 L 257 331 Z M 136 332 L 135 336 Q 136 339 133 338 L 132 344 L 134 344 Q 136 348 132 347 L 132 348 Q 134 347 133 350 L 130 351 L 133 351 Q 134 354 130 353 L 132 357 L 130 358 L 132 358 L 130 361 L 132 361 L 131 365 L 133 365 L 132 367 Q 131 371 133 373 L 132 376 L 135 387 L 136 382 L 136 365 L 135 363 Q 132 364 133 362 L 136 360 L 136 338 L 138 333 L 136 332 Z M 250 332 L 250 334 L 252 333 L 250 332 Z M 263 333 L 262 335 Q 272 337 279 343 L 280 346 L 281 346 L 280 342 L 277 338 L 263 333 Z M 232 334 Q 230 339 233 340 L 234 335 L 232 334 Z M 100 335 L 96 337 L 94 340 L 98 338 L 100 338 L 105 342 L 108 341 Q 111 342 110 339 L 109 339 Q 101 340 100 335 Z M 246 336 L 242 338 L 241 342 L 242 344 L 244 344 L 244 339 L 248 337 L 246 336 Z M 258 337 L 255 344 L 256 346 L 256 344 L 259 343 L 264 344 Q 268 346 267 354 L 262 357 L 258 355 L 259 353 L 255 347 L 254 347 Q 253 352 255 354 L 254 360 L 259 363 L 268 362 L 270 362 L 269 358 L 272 359 Q 274 360 273 358 Q 272 355 271 357 L 268 356 L 272 354 Q 276 354 277 357 L 277 356 L 273 350 L 277 351 L 277 350 L 276 347 Q 278 348 277 346 Q 272 340 263 338 L 261 338 L 258 337 Z M 221 338 Q 219 341 215 341 L 218 341 Q 219 344 221 340 L 221 338 Z M 228 340 L 227 342 L 231 348 L 232 344 L 228 340 Z M 98 341 L 96 343 L 97 345 L 99 344 L 98 341 Z M 111 343 L 110 344 Q 106 343 107 346 L 113 346 L 113 344 L 111 343 Z M 224 343 L 223 347 L 226 348 L 224 343 Z M 99 344 L 99 346 L 103 348 L 104 348 L 103 345 L 99 344 Z M 219 344 L 217 346 L 219 346 L 219 344 Z M 248 346 L 248 353 L 251 355 L 248 346 Z M 106 348 Q 105 352 108 351 Q 109 347 106 348 Z M 112 349 L 111 354 L 112 354 L 112 349 Z M 102 350 L 101 353 L 104 357 L 102 362 L 106 359 L 110 360 L 111 354 Q 104 355 102 350 Z M 278 351 L 277 353 L 279 354 L 278 351 Z M 156 353 L 155 360 L 157 361 L 156 359 L 157 357 L 156 353 Z M 230 355 L 229 359 L 226 358 L 225 361 Q 227 359 229 363 Q 228 366 231 365 L 231 358 L 232 357 Q 233 354 230 355 Z M 100 356 L 99 359 L 100 359 L 100 356 Z M 107 363 Q 105 366 104 364 L 102 367 Q 107 368 108 366 L 107 363 Z M 157 363 Q 154 367 158 366 L 157 363 Z M 100 370 L 101 372 L 104 372 L 100 370 Z M 99 375 L 98 377 L 101 378 L 103 377 L 99 375 Z M 163 384 L 163 386 Q 165 389 166 386 L 163 384 Z M 154 385 L 152 387 L 155 387 L 152 402 L 152 409 L 152 411 Q 149 412 151 419 L 153 420 Q 161 419 166 422 L 168 416 L 167 415 L 165 418 Q 163 421 162 417 L 158 418 L 154 417 L 153 415 L 154 413 L 155 394 L 158 389 Q 160 390 159 387 L 154 385 Z M 129 386 L 128 390 L 129 390 L 129 386 Z M 136 387 Q 136 390 133 389 Q 132 392 135 391 L 133 394 L 135 396 Q 133 397 134 403 L 137 405 L 136 387 Z M 165 389 L 164 391 L 168 391 L 165 389 Z M 159 391 L 159 394 L 164 394 L 159 391 Z M 169 391 L 169 395 L 170 395 Q 171 390 169 391 Z M 159 396 L 157 404 L 158 409 L 160 407 L 171 404 L 180 404 L 182 404 L 190 404 L 174 398 L 169 398 L 163 396 L 161 397 L 159 396 Z M 118 397 L 114 399 Q 111 398 112 401 L 93 411 L 84 414 L 83 416 L 92 414 L 117 400 L 121 400 L 122 403 Q 125 404 124 402 L 120 397 L 118 397 Z M 149 399 L 147 400 L 143 405 L 150 400 L 149 399 Z M 202 400 L 186 429 L 181 442 L 180 452 L 178 456 L 180 460 L 180 465 L 180 466 L 185 464 Q 193 462 196 466 L 198 465 L 202 466 L 203 469 Q 202 471 205 470 L 206 461 L 214 455 L 227 440 L 234 425 L 234 421 L 232 418 L 230 408 L 231 405 L 209 402 L 202 400 Z M 119 403 L 117 406 L 119 405 L 119 403 Z M 149 403 L 145 405 L 140 415 Q 139 417 142 416 Q 141 411 145 409 L 145 411 L 147 410 L 147 412 L 149 413 L 149 403 Z M 193 404 L 190 406 L 189 408 L 194 406 Q 195 408 196 406 L 193 404 Z M 142 405 L 140 407 L 141 409 L 142 407 L 142 405 Z M 122 406 L 120 408 L 121 410 Q 125 408 122 406 Z M 323 407 L 318 408 L 315 413 L 316 415 Q 315 417 318 416 L 316 426 L 317 439 Q 321 438 322 441 L 322 451 L 325 451 Q 327 452 326 457 L 327 457 L 327 445 L 326 450 L 324 447 L 325 440 L 327 439 L 326 442 L 327 443 L 328 442 L 328 437 L 330 430 L 334 424 L 334 414 L 331 413 L 330 423 L 331 424 Q 326 421 327 413 L 325 425 L 323 428 L 319 424 L 323 410 L 323 407 Z M 333 407 Q 332 410 335 409 Q 336 406 333 407 Z M 114 408 L 111 412 L 112 414 L 114 410 L 114 408 Z M 117 408 L 115 412 L 117 413 L 117 408 Z M 136 408 L 134 410 Q 133 413 136 412 L 136 408 Z M 185 408 L 174 411 L 170 415 Q 169 418 173 416 Q 174 419 170 418 L 169 424 L 170 425 L 158 425 L 157 427 Q 162 426 163 429 L 156 429 L 154 431 Q 151 438 159 436 L 160 438 Q 155 439 154 437 L 153 441 L 159 442 Q 157 445 152 443 Q 150 448 157 446 L 158 448 L 155 447 Q 150 446 152 450 L 157 452 L 151 452 L 152 455 L 155 454 L 154 456 Q 150 455 151 458 L 155 461 L 150 461 Q 149 465 154 463 L 154 465 Q 149 464 148 467 Q 149 469 153 468 L 153 469 Q 147 467 148 472 L 150 471 L 152 472 L 148 473 Q 149 480 146 483 L 151 485 L 148 485 L 150 488 L 153 487 L 155 487 L 153 490 L 151 489 L 150 491 L 154 493 L 152 495 L 150 503 L 151 505 L 151 510 L 149 515 L 147 529 L 145 528 L 147 521 L 147 517 L 146 519 L 143 520 L 141 530 L 143 529 L 145 531 L 142 536 L 144 541 Q 145 543 142 542 Q 138 541 139 537 L 137 536 Q 137 543 143 545 L 155 545 L 155 544 L 152 542 L 153 540 Q 154 534 151 533 L 156 516 L 160 509 L 165 481 L 176 466 L 174 460 L 180 436 L 188 421 Q 189 416 187 417 L 184 417 Q 183 413 189 415 L 190 416 L 190 413 L 184 413 Q 183 409 191 411 Q 192 413 193 411 L 193 408 Q 191 411 186 410 L 186 409 L 185 408 Z M 125 409 Q 124 412 127 411 Q 128 408 125 409 Z M 129 409 Q 128 412 131 411 Q 132 408 129 409 Z M 102 410 L 101 412 L 103 411 L 102 410 Z M 108 411 L 103 416 L 106 416 L 108 413 L 108 411 Z M 134 413 L 133 416 L 134 416 L 134 413 Z M 138 413 Q 138 417 136 416 L 135 418 L 138 417 L 138 413 Z M 91 415 L 90 417 L 93 416 L 91 415 Z M 97 415 L 94 416 L 95 418 L 99 416 L 97 415 Z M 85 417 L 85 418 L 87 418 L 85 417 Z M 312 418 Q 309 421 305 420 L 300 427 L 298 434 L 294 436 L 293 439 L 289 436 L 283 439 Q 280 438 281 441 L 277 444 L 278 445 L 284 441 L 288 441 Q 289 439 290 442 Q 289 444 285 443 L 284 445 L 286 444 Q 290 443 291 446 Q 289 448 284 447 L 283 450 L 286 451 L 285 453 L 283 454 Q 280 453 281 456 L 278 460 L 282 459 L 281 463 L 281 462 L 281 460 L 278 462 Q 275 463 276 468 L 274 469 L 275 466 Q 276 462 272 464 L 272 462 L 263 468 L 262 471 Q 258 472 257 470 L 260 469 L 262 469 Q 263 465 258 467 L 257 465 L 265 465 L 266 466 Q 269 466 268 462 L 275 459 L 278 455 L 277 451 Q 275 455 271 454 L 271 451 L 262 456 Q 260 454 255 455 L 250 461 Q 249 463 252 462 L 250 469 L 251 474 L 250 473 L 245 482 Q 246 484 244 483 L 242 487 L 241 486 L 238 490 L 241 488 L 243 489 Q 245 488 243 487 L 245 487 L 250 484 L 251 481 L 252 481 Q 251 484 254 483 L 253 481 L 260 473 L 264 475 L 267 470 L 273 471 Q 274 469 276 472 L 278 468 L 278 470 L 285 472 L 286 469 L 293 466 L 294 469 L 294 471 Q 295 474 293 475 L 290 470 L 289 480 L 288 481 L 285 480 L 286 477 Q 281 476 280 479 L 282 482 L 282 485 L 279 488 L 275 500 L 272 504 L 273 505 L 279 501 L 283 503 Q 289 502 293 499 Q 296 498 293 496 L 292 498 L 290 499 Q 284 500 283 497 L 284 493 L 287 490 L 292 489 L 291 491 L 293 493 L 298 492 L 299 495 L 299 492 L 303 490 L 304 480 L 300 479 L 302 468 L 302 456 L 301 455 L 303 455 L 306 453 Q 305 449 308 447 L 308 444 L 305 446 L 301 445 Q 300 442 303 443 L 303 441 L 308 441 L 310 433 Q 309 430 312 431 L 312 423 L 313 422 L 312 418 Z M 130 419 Q 128 422 127 420 L 119 424 L 119 425 L 131 422 Q 134 423 133 420 L 132 420 Q 133 422 131 421 L 131 420 L 130 419 Z M 313 432 L 311 440 L 312 445 L 312 444 L 312 442 L 313 437 L 315 435 Q 316 431 313 432 Z M 334 432 L 333 436 L 334 436 L 334 432 Z M 334 437 L 333 440 L 334 440 L 334 437 Z M 316 441 L 316 453 L 314 456 L 312 451 L 310 455 L 312 458 L 311 470 L 309 472 L 310 474 L 308 474 Q 307 478 311 476 Q 309 478 310 484 L 308 485 L 304 492 L 304 496 L 296 499 Q 291 501 294 503 L 293 502 L 290 503 Q 288 506 287 504 L 283 505 L 280 504 L 272 507 L 272 509 L 272 510 L 271 508 L 264 511 Q 266 514 268 510 L 269 512 L 277 510 L 281 511 Q 283 512 282 509 L 284 509 L 284 508 L 286 507 L 286 509 Q 283 508 284 511 L 288 512 L 293 505 L 301 505 L 308 508 L 317 508 L 318 507 L 318 504 L 313 506 L 314 504 Q 313 501 316 502 L 317 500 L 317 503 L 320 502 L 318 501 L 319 497 Q 322 496 321 499 L 323 498 L 320 496 L 322 491 L 323 497 L 324 497 L 323 493 Q 324 488 322 489 L 320 489 L 319 491 L 316 493 Q 311 491 312 495 L 311 495 L 312 490 L 316 484 L 316 472 Q 319 469 318 463 Q 322 461 318 459 L 318 447 L 320 444 L 316 441 Z M 332 441 L 331 444 L 332 444 L 332 441 Z M 332 445 L 331 448 L 332 448 L 332 445 Z M 276 446 L 273 450 L 276 448 L 276 446 Z M 312 447 L 310 450 L 312 449 L 312 447 Z M 279 448 L 277 451 L 279 450 L 279 448 Z M 281 450 L 281 452 L 283 451 L 281 450 Z M 334 453 L 331 454 L 332 457 Q 334 463 331 465 L 333 466 L 330 476 Q 331 479 329 478 L 329 479 Q 332 480 331 478 L 334 476 L 334 453 Z M 306 456 L 306 458 Q 308 464 305 466 Q 303 471 307 470 L 307 463 L 308 462 L 307 459 Q 308 455 306 456 Z M 326 458 L 325 465 L 326 465 L 326 458 Z M 331 458 L 330 461 L 331 461 L 331 458 Z M 10 460 L 9 482 L 11 482 L 13 481 Q 14 483 11 482 L 13 485 L 15 484 L 16 484 L 14 487 L 18 486 L 19 487 L 17 487 Q 16 490 19 489 L 20 492 L 24 493 L 22 496 Q 19 495 20 498 Q 17 499 22 501 L 25 500 L 29 505 Q 31 504 30 507 L 25 506 L 27 509 Q 29 508 28 511 L 20 509 L 19 511 Q 21 510 20 514 L 27 515 L 35 521 L 40 522 Q 38 520 39 515 L 33 501 L 34 498 L 34 490 L 22 474 Q 23 471 21 472 L 10 460 Z M 276 460 L 273 461 L 273 462 Q 276 463 277 461 L 276 460 Z M 323 463 L 322 469 L 323 469 L 323 463 Z M 330 464 L 329 467 L 330 467 L 330 464 Z M 186 466 L 176 471 L 170 478 L 167 488 L 171 487 L 170 490 Q 169 492 172 491 L 173 491 L 172 495 Q 171 500 174 501 L 174 495 L 178 493 L 177 495 L 178 499 L 180 498 L 179 496 L 182 494 L 184 497 L 185 484 L 194 469 Q 193 465 186 466 Z M 325 467 L 324 472 L 325 472 L 325 467 Z M 244 468 L 239 470 Q 235 471 236 477 L 230 481 L 228 480 L 226 483 Q 223 484 224 482 Q 223 479 221 482 Q 220 486 224 484 L 225 486 L 231 482 L 234 483 L 233 482 L 235 481 L 236 479 L 238 484 L 244 471 L 244 468 Z M 305 470 L 303 475 L 304 478 L 305 475 L 305 470 Z M 330 470 L 327 474 Q 326 476 329 475 L 330 472 L 330 470 Z M 233 472 L 229 477 L 229 478 Q 232 478 233 476 L 233 472 Z M 67 473 L 65 475 L 75 478 L 77 478 L 71 473 L 67 473 Z M 266 473 Q 263 477 267 476 L 266 473 Z M 323 474 L 319 480 L 320 484 L 321 481 Q 320 478 323 479 L 322 478 L 323 476 L 323 474 Z M 324 476 Q 322 479 325 478 L 324 476 Z M 335 477 L 332 479 L 332 481 L 329 493 L 321 504 L 322 507 L 320 509 L 315 510 L 304 509 L 299 506 L 293 507 L 291 513 L 279 513 L 278 512 L 266 515 L 260 514 L 258 514 L 254 512 Q 247 510 248 514 L 246 513 L 241 514 Q 245 516 252 515 L 254 515 L 255 516 L 267 516 L 268 517 L 297 520 L 303 522 L 305 526 L 302 530 L 306 532 L 311 532 L 314 534 L 322 535 L 332 540 L 333 544 L 334 544 L 334 529 L 333 530 L 323 530 L 322 534 L 320 534 L 320 529 Q 315 527 316 531 Q 312 532 313 530 Q 315 527 320 528 L 316 526 Q 313 527 314 524 L 317 523 Q 320 524 319 521 L 316 520 Q 313 521 314 518 L 320 517 L 319 515 L 321 511 L 324 511 Q 323 508 326 509 L 330 514 L 328 516 L 323 515 L 324 517 Q 328 515 327 519 L 327 520 L 331 519 L 332 522 L 331 521 Q 325 519 326 523 L 330 524 L 323 525 L 333 525 L 334 526 L 334 499 L 335 498 L 335 488 L 336 487 L 335 486 L 335 477 Z M 91 480 L 90 482 L 93 481 Q 93 484 98 483 Q 99 480 101 484 L 103 483 Q 99 479 91 480 Z M 259 481 Q 258 484 261 483 Q 262 480 259 481 Z M 219 482 L 217 485 L 220 484 Q 221 481 219 482 Z M 322 482 L 321 484 L 324 485 L 322 482 Z M 112 483 L 113 485 Q 116 486 117 484 L 112 483 Z M 255 483 L 255 485 L 253 490 L 255 494 Q 254 496 257 495 L 258 495 L 257 500 Q 256 503 259 502 L 259 498 L 262 491 L 262 489 L 259 487 L 257 484 L 259 484 L 255 483 Z M 261 483 L 261 485 L 265 485 L 261 483 Z M 132 484 L 131 486 L 133 487 L 132 484 Z M 214 485 L 214 487 L 216 486 L 214 485 Z M 220 485 Q 217 487 220 488 L 220 487 L 224 489 L 224 488 Q 224 485 220 485 Z M 234 485 L 235 488 L 236 486 L 234 485 Z M 266 485 L 263 497 L 261 499 L 262 505 L 264 504 L 268 495 L 268 493 L 270 492 L 271 490 L 271 488 L 269 489 L 266 485 Z M 277 485 L 274 486 L 273 491 L 274 494 L 277 487 L 279 487 L 277 485 Z M 138 487 L 136 489 L 138 489 L 138 487 Z M 11 488 L 9 492 L 13 492 L 11 488 Z M 64 488 L 63 492 L 65 491 L 64 488 Z M 72 488 L 70 489 L 70 491 Q 71 495 69 496 Q 66 497 67 494 L 66 494 L 58 494 L 57 493 L 55 497 L 79 497 L 80 498 L 91 497 Q 88 495 89 491 L 86 492 L 85 488 Q 82 489 83 495 L 81 496 L 79 493 L 76 495 Q 77 497 75 496 L 72 488 Z M 324 488 L 325 491 L 324 493 L 326 492 Q 327 487 324 488 Z M 49 489 L 48 495 L 46 496 L 46 497 L 49 496 L 52 497 L 49 493 L 49 489 Z M 62 489 L 59 491 L 62 492 L 62 489 Z M 112 490 L 110 492 L 111 497 L 115 499 L 115 497 L 112 495 L 112 490 Z M 226 490 L 226 493 L 228 492 L 226 490 Z M 40 491 L 40 493 L 44 493 L 40 491 Z M 95 491 L 92 497 L 94 497 L 96 494 L 95 491 Z M 100 492 L 98 496 L 102 497 Q 104 498 103 494 L 100 492 Z M 107 493 L 106 497 L 108 497 L 107 493 Z M 238 493 L 237 496 L 238 496 L 238 493 Z M 41 495 L 41 496 L 44 496 L 41 495 Z M 120 495 Q 117 496 118 500 Q 115 504 107 505 L 112 506 L 114 506 L 117 505 L 119 506 L 121 505 L 143 505 L 145 499 L 142 496 L 139 497 Q 136 498 137 496 L 136 496 L 134 495 Q 131 494 132 497 L 128 500 Q 130 505 125 503 L 125 501 L 123 502 L 120 495 Z M 204 495 L 200 499 L 201 501 Q 203 502 202 499 L 205 497 L 204 495 Z M 11 496 L 11 497 L 15 497 L 11 496 Z M 38 498 L 37 501 L 53 502 L 54 503 L 82 503 L 84 503 L 89 504 Q 91 505 90 509 Q 88 511 83 510 L 81 512 Q 77 511 79 515 L 94 515 L 95 516 L 97 515 L 99 516 L 108 515 L 110 515 Q 115 514 117 516 L 119 515 L 140 515 L 140 517 Q 139 519 138 517 L 129 517 L 128 518 L 123 517 L 121 518 L 106 518 L 105 519 L 88 519 L 87 518 L 85 519 L 78 517 Q 73 516 74 511 L 83 508 L 84 506 L 68 506 L 67 507 L 62 505 L 41 504 L 38 503 L 42 515 L 42 517 L 46 525 L 45 527 L 49 540 Q 50 544 47 546 L 49 545 L 51 546 L 54 545 L 56 545 L 77 545 L 77 544 L 79 543 L 80 545 L 135 545 L 133 540 L 134 535 L 140 523 L 142 508 L 135 508 L 134 507 L 132 508 L 128 507 L 124 508 L 121 507 L 119 507 L 112 508 L 110 508 Q 102 509 100 505 L 104 502 L 111 502 L 111 500 L 51 500 L 50 499 L 48 500 L 38 498 Z M 185 498 L 172 506 L 176 507 Q 179 508 178 505 L 184 504 L 187 505 L 191 503 L 191 506 L 194 504 L 196 505 L 199 501 L 200 499 L 196 501 Q 187 503 185 498 Z M 210 498 L 211 500 Q 212 497 210 498 Z M 9 499 Q 8 502 11 501 L 13 501 L 15 500 L 9 499 Z M 165 499 Q 163 504 166 505 Q 170 506 172 503 L 172 502 Q 169 503 170 501 L 169 501 Q 170 505 166 503 L 165 499 Z M 268 500 Q 269 504 265 506 L 267 506 L 270 502 Q 271 499 268 500 Z M 12 502 L 12 503 L 16 503 L 12 502 Z M 147 503 L 146 506 L 147 506 L 147 503 Z M 210 503 L 210 504 L 213 504 L 210 503 Z M 237 503 L 235 505 L 237 507 L 238 507 L 237 503 Z M 241 504 L 240 507 L 242 507 L 241 504 Z M 255 504 L 253 507 L 255 506 L 255 504 Z M 9 505 L 10 509 L 9 513 L 12 513 Q 13 516 11 515 L 9 515 L 10 517 L 9 519 L 9 544 Q 13 546 22 545 L 23 546 Q 27 547 26 544 Q 30 543 29 546 L 32 545 L 34 546 Q 37 547 36 544 L 32 544 L 19 537 L 17 537 L 17 535 Q 14 536 15 534 L 10 530 L 12 522 L 11 522 L 10 520 L 12 520 L 13 511 L 21 507 L 21 505 L 9 505 Z M 231 505 L 231 507 L 228 509 L 226 508 L 222 510 L 220 508 L 221 506 L 213 507 L 211 507 L 208 506 L 202 507 L 203 509 L 208 510 L 210 509 L 233 513 Q 235 510 242 511 L 232 508 L 233 506 L 231 505 Z M 256 508 L 254 510 L 260 511 Q 262 507 258 508 L 256 508 Z M 163 509 L 164 512 L 161 517 L 188 518 L 199 520 L 208 520 L 209 521 L 218 521 L 219 522 L 229 522 L 244 526 L 247 530 L 246 533 L 239 535 Q 234 533 235 538 L 246 542 L 249 545 Q 253 544 255 546 L 257 545 Q 261 544 263 546 L 265 545 L 270 546 L 273 545 L 276 546 L 278 546 L 279 545 L 288 545 L 285 540 L 278 538 Q 275 537 276 534 L 282 529 Q 285 530 283 526 L 273 523 L 265 523 L 264 522 L 253 523 Q 263 523 267 529 L 266 532 L 259 534 Q 253 532 255 538 L 261 540 L 268 540 L 276 542 L 277 544 L 269 543 L 267 543 L 255 540 L 251 536 L 254 533 L 263 531 L 264 527 L 256 524 L 241 523 L 239 520 L 208 519 L 200 517 L 179 516 L 178 515 L 167 515 L 166 513 L 183 513 L 184 514 L 186 513 Q 187 515 192 514 L 194 514 L 203 516 L 222 517 L 223 518 L 225 517 L 226 518 L 243 518 L 252 520 L 258 520 L 244 516 Q 239 517 240 515 L 239 515 L 230 515 L 220 512 L 212 512 L 210 512 L 203 511 L 199 511 Q 192 513 191 510 Q 185 509 184 511 L 173 509 L 163 509 Z M 245 510 L 245 511 L 249 511 L 245 510 Z M 264 511 L 262 513 L 264 513 L 264 511 Z M 325 512 L 323 514 L 326 514 Q 327 511 325 512 Z M 145 514 L 144 517 L 145 517 L 145 514 Z M 17 515 L 17 516 L 24 520 Q 26 519 25 522 Q 20 523 19 520 Q 14 519 15 522 L 18 522 L 24 528 L 23 530 L 16 525 Q 12 524 14 528 L 17 528 L 25 533 Q 29 535 26 537 L 24 536 L 23 538 L 35 542 L 45 543 Q 43 540 44 533 L 42 527 Q 38 523 32 522 L 26 517 L 17 515 Z M 322 518 L 322 520 L 325 520 L 322 518 Z M 170 519 L 169 520 L 159 520 Q 156 524 157 532 L 157 534 L 158 543 L 161 545 L 164 543 L 162 540 L 165 539 Q 164 534 168 536 Q 169 540 166 539 L 165 542 L 166 545 L 189 545 L 190 546 Q 195 548 197 545 L 198 546 L 219 546 L 221 546 L 223 545 L 227 546 L 226 545 Q 225 541 229 542 L 230 546 L 241 546 L 242 545 L 244 546 L 244 545 L 234 540 Q 230 539 231 534 L 241 531 Q 244 532 243 530 L 241 527 L 229 524 L 219 524 L 210 522 L 185 521 L 184 520 L 172 520 L 170 519 Z M 264 520 L 264 521 L 269 521 L 264 520 Z M 274 520 L 271 522 Q 281 522 286 525 L 287 530 L 284 532 Q 281 531 282 534 L 280 534 Q 279 537 282 536 L 284 536 Q 287 539 294 538 L 296 538 L 315 541 L 316 544 L 314 545 L 324 545 L 327 544 Q 331 545 330 543 L 328 540 L 318 536 L 304 534 L 297 530 L 297 528 L 301 528 L 301 526 L 292 522 L 274 520 Z M 324 521 Q 322 524 325 523 L 324 521 Z M 329 526 L 323 528 L 327 529 Q 331 530 332 528 L 329 526 Z M 291 541 Q 289 544 292 545 L 295 544 L 298 545 L 312 545 L 310 543 L 299 542 L 297 542 Q 292 543 291 541 Z M 160 547 L 159 548 L 96 548 L 95 549 L 77 549 L 76 548 Q 63 547 56 550 L 47 550 L 46 549 L 14 549 L 12 549 L 9 550 L 9 592 L 21 592 L 22 593 L 25 592 Q 31 590 33 593 L 35 592 L 124 592 L 125 593 L 127 592 L 163 592 L 165 592 L 169 591 L 175 591 L 181 593 L 184 592 L 185 593 L 196 593 L 198 593 L 212 593 L 213 592 L 216 593 L 227 591 L 263 591 L 265 590 L 267 590 L 271 591 L 288 591 L 289 590 L 304 590 L 305 589 Q 309 591 318 590 L 319 591 L 324 590 L 327 591 L 333 589 L 335 590 L 335 571 L 336 570 L 336 555 L 335 548 L 293 548 L 292 549 Q 286 551 285 548 L 281 549 L 279 548 Q 274 547 273 549 L 267 548 L 265 548 L 261 549 L 259 548 L 161 548 L 160 547 Z "></path><path d="M 127.5 86 L 126.5 88 L 127.5 86 Z "></path><path d="M 135.5 90 L 136.5 92 L 134 91.5 L 135.5 90 Z "></path><path d="M 122 102 Q 125 101 124 104 Q 121 105 122 102 Z "></path><path d="M 117.5 107 Q 120.5 108.5 117.5 110 Q 115.3 110.8 116 108.5 L 117.5 107 Z "></path><path d="M 97 121 L 100 121.5 L 97 123 L 97 121 Z "></path><path d="M 93.5 124 Q 96.8 122.9 96 125.5 L 93.5 127 Q 90.5 125.5 93.5 124 Z "></path><path d="M 114 126 Q 117 125 116 128 Q 113 129 114 126 Z "></path><path d="M 230.5 143 L 238 143 L 238 146 L 235.5 145 L 230.5 146 Q 227.5 144.5 230.5 143 Z "></path><path d="M 133.5 171 Q 136.5 172.5 133.5 174 L 129.5 173 L 123 177.5 Q 123.7 180.1 121 179 L 121 176 Q 118.3 177.1 119 174.5 L 121 173.5 L 121.5 176 L 127.5 172 Q 132.3 173.2 133.5 171 Z "></path><path d="M 146.5 222 Q 150.3 221 149 224 L 146.5 222 Z "></path><path d="M 226.5 222 Q 231.3 220.7 230 224 L 215 226 L 215.5 223 L 225.5 223 L 226.5 222 Z "></path><path d="M 77.5 268 L 80 269.5 L 78.5 270 L 77.5 268 Z "></path><path d="M 78 273 L 82 274.5 L 78 275 L 78 273 Z "></path><path d="M 78.5 277 L 81 278.5 L 79.5 279 L 78.5 277 Z "></path><path d="M 295.5 282 Q 297.8 281.3 297 283.5 L 296 287 Q 291.9 288.7 293 284.5 L 295.5 282 Z "></path><path d="M 78.5 286 L 81 286.5 L 78.5 287 L 78.5 286 Z "></path><path d="M 82 287 Q 85 286 84 289 Q 81 290 82 287 Z "></path><path d="M 78.5 290 L 81 291.5 L 79.5 292 L 78.5 290 Z "></path><path d="M 281.5 290 L 285 291.5 L 286.5 294 L 291 297.5 L 291 303.5 L 289 311 L 286 311.5 L 287 314 L 282.5 316 L 281.5 314 Q 284.1 314.8 283 311.5 L 284 309.5 L 280 307.5 L 281 304.5 Q 278.5 303 280 297.5 L 282 293.5 Q 278.3 291.8 281.5 290 Z M 284 296 Q 283 299 287 298 Q 288 295 284 296 Z M 285 301 L 283 303 L 285 303 L 285 301 Z "></path><path d="M 82.5 291 L 83.5 293 Q 80.7 293.7 82.5 291 Z "></path><path d="M 78.5 295 L 79.5 297 Q 76.7 297.7 78.5 295 Z "></path><path d="M 82.5 296 L 83.5 298 Q 80.7 298.7 82.5 296 Z "></path><path d="M 279 318 Q 282 317 281 320 Q 278 321 279 318 Z "></path><path d="M 57.5 388 L 58 390 L 56 389.5 L 57.5 388 Z "></path><path d="M 53.5 392 Q 55.8 391.3 55 393.5 L 52.5 395 L 51.5 393 L 53.5 392 Z "></path><path d="M 45.5 394 L 50 397.5 L 47.5 400 L 44 396.5 L 45.5 394 Z "></path><path d="M 210 396 Q 213 395 212 398 Q 209 399 210 396 Z "></path><path d="M 222.5 396 L 223 398.5 L 221 399.5 L 222.5 396 Z "></path><path d="M 228.5 397 L 229 399.5 L 226 401 L 228.5 397 Z "></path><path d="M 38.5 399 L 43 400 L 41.5 404 L 37 400.5 L 38.5 399 Z "></path><path d="M 33.5 400 L 38 403.5 Q 39.3 407.3 35.5 406 L 31 402.5 L 33.5 400 Z "></path><path d="M 32.5 406 Q 35.5 407.5 32.5 409 Q 28.8 410 30 407 L 32.5 406 Z "></path><path d="M 12 419 Q 16.5 417.5 15 422 Q 10.5 423.5 12 419 Z "></path><path d="M 155 431 L 162 431.5 L 159.5 433 L 157.5 432 L 155 433 L 155 431 Z "></path><path d="M 273.5 455 L 271.5 458 L 271 456 L 273.5 455 Z "></path><path d="M 290.5 456 L 293 457 Q 294 462.6 289.5 464 Q 286.2 462.9 287 465.5 Q 286.5 468.5 282.5 468 L 281 465.5 L 285 464 L 284 459 L 290.5 456 Z "></path><path d="M 258.5 457 L 260.5 457 L 263.5 458 L 270 457 Q 271.1 459.7 268.5 459 L 263.5 460 Q 258.3 461.3 257 458.5 L 258.5 457 Z "></path><path d="M 258 461 L 264.5 462 L 267 461 L 265.5 464 Q 259.5 465.5 258 462.5 L 258 461 Z "></path><path d="M 249.5 479 L 250 480.5 L 248 481.5 L 249.5 479 Z "></path><path d="M 292 482 Q 295 481 294 484 Q 291 485 292 482 Z "></path><path d="M 284.5 483 L 285 485.5 L 283.5 488 L 283 484.5 L 284.5 483 Z "></path><path d="M 290 485 L 292 485.5 L 290 486.5 L 290 485 Z "></path><path d="M 301.5 498 L 300.5 500 L 301.5 498 Z "></path><path d="M 311.5 498 L 311 499.5 L 310.5 501 L 310 499.5 L 311.5 498 Z "></path><path d="M 308.5 504 L 307.5 506 L 308.5 504 Z "></path><path d="M 280.5 506 L 281.5 508 L 279 507.5 L 280.5 506 Z "></path><path d="M 275 507 L 278 508.5 L 275 509 L 275 507 Z "></path><path d="M 49.5 508 L 50 511 Q 47.3 512.1 48 509.5 L 49.5 508 Z "></path><path d="M 44 510 L 47 511.5 L 44 512 L 44 510 Z "></path><path d="M 62 519 Q 65 518 64 521 Q 61 522 62 519 Z "></path><path d="M 48 520 Q 51 519 50 522 Q 47 523 48 520 Z "></path><path d="M 70 522 Q 73.8 520.5 73 523.5 L 70 525 L 70 522 Z "></path><path d="M 123 522 Q 126.3 520.9 125 525 Q 121.7 526.1 123 522 Z "></path><path d="M 128.5 522 L 131 522.5 Q 128.9 525.8 128.5 522 Z "></path><path d="M 173 522 Q 175.7 520.9 175 523.5 L 175.5 525 Q 171.3 526.1 173 522 Z "></path><path d="M 179.5 522 L 180 525 Q 177.3 526.1 178 523.5 L 179.5 522 Z "></path><path d="M 55.5 523 L 57 523 L 57 527 Q 52.9 528.7 54 524.5 L 55.5 523 Z "></path><path d="M 60.5 525 L 63 525.5 L 59 528 L 60.5 525 Z "></path><path d="M 119 525 Q 123.1 523.7 122 527 Q 117.9 528.3 119 525 Z "></path><path d="M 169.5 525 L 170.5 527 L 168 526.5 L 169.5 525 Z "></path><path d="M 78.5 527 L 79 529.5 L 78 529.5 L 78.5 527 Z "></path><path d="M 88.5 527 L 89 529 L 87 528.5 L 88.5 527 Z "></path><path d="M 189.5 527 Q 192.5 528.5 189.5 530 Q 186.5 528.5 189.5 527 Z "></path><path d="M 129 528 Q 132.8 526.5 132 529.5 Q 130.5 532.5 129 529.5 L 129 528 Z "></path><path d="M 200 528 Q 204.1 526.7 203 530 Q 198.9 531.3 200 528 Z "></path><path d="M 214 528 Q 217 527 216 530 Q 213 531 214 528 Z "></path><path d="M 229 528 L 234 529.5 L 229 531 L 229 528 Z "></path><path d="M 67.5 529 Q 70.5 528.3 69 532 Q 65.3 533.5 66 530.5 L 67.5 529 Z "></path><path d="M 178 529 Q 181.3 527.9 180 532 Q 176.7 533.1 178 529 Z "></path><path d="M 49 530 Q 52 529 51 532 Q 48 533 49 530 Z "></path><path d="M 97.5 530 L 98 534 Q 95 535.3 96 531.5 L 97.5 530 Z "></path><path d="M 101.5 530 Q 103.8 529.3 103 531.5 Q 101 536 99 532.5 Q 98.3 530.3 100.5 531 L 101.5 530 Z "></path><path d="M 112.5 530 Q 115.2 531.3 113 532.5 L 111.5 536 L 110 532.5 L 112.5 530 Z "></path><path d="M 209 530 Q 211.7 528.9 211 531.5 L 209 532.5 L 209 530 Z "></path><path d="M 128.5 531 L 129 534.5 Q 127.5 537.5 126 534.5 Q 124.9 531.2 127.5 532 L 128.5 531 Z "></path><path d="M 171 531 Q 174.8 529.5 174 532.5 Q 172.5 535.5 171 532.5 L 171 531 Z "></path><path d="M 204 531 L 207 532.5 L 204 534 L 204 531 Z "></path><path d="M 327.5 531 Q 330.3 532.2 328 533.5 Q 328.7 536.1 326 535 L 327.5 531 Z "></path><path d="M 57.5 532 L 60 533.5 L 59 537 Q 56 538.3 57 534.5 Q 54.8 533.3 57.5 532 Z "></path><path d="M 78.5 532 Q 80.8 532.8 80 536.5 Q 78.5 539.5 77 536.5 Q 76.3 532.8 78.5 532 Z "></path><path d="M 83 532 Q 86.8 530.5 86 533.5 L 85 536 Q 81.3 537.2 83 532 Z "></path><path d="M 73.5 533 L 72.5 535 L 73.5 533 Z "></path><path d="M 164.5 533 Q 167.1 532.3 166 535 L 163 534.5 L 164.5 533 Z "></path><path d="M 181.5 533 Q 184.5 532.2 183 536 Q 179.2 537.5 180 534.5 L 181.5 533 Z "></path><path d="M 62 534 Q 66.5 532.5 65 537 Q 60.5 538.5 62 534 Z "></path><path d="M 122.5 534 Q 125.5 533.2 124 537 L 121 535.5 L 122.5 534 Z "></path><path d="M 223 534 Q 225.7 532.9 225 535.5 L 223 536.5 L 223 534 Z "></path><path d="M 51 535 Q 54 534 53 537 Q 50 538 51 535 Z "></path><path d="M 114.5 535 Q 117.1 534.2 116 537.5 L 119 538.5 Q 117.3 542.8 115.5 540 Q 110.7 541.7 112 537.5 L 114.5 535 Z "></path><path d="M 199 535 Q 202.8 533.5 202 536.5 L 199 538 L 199 535 Z "></path><path d="M 209.5 535 Q 213.3 534 212 537 L 209.5 535 Z "></path><path d="M 170.5 536 L 173 537.5 L 173 539 L 169 539 L 170.5 536 Z "></path><path d="M 192.5 536 Q 195.5 535.2 194 539 Q 190.3 540.5 191 537.5 L 192.5 536 Z "></path><path d="M 215 536 Q 218 535 217 538 Q 214 539 215 536 Z "></path><path d="M 226.5 536 Q 229.5 535.2 228 539 Q 224.2 540.5 225 537.5 L 226.5 536 Z "></path><path d="M 11.5 537 Q 14.5 538.5 11.5 540 Q 9.3 540.8 10 538.5 L 11.5 537 Z "></path><path d="M 205 537 Q 208.7 535.5 208 538.5 Q 206.5 541.5 205 538.5 L 205 537 Z "></path><path d="M 65.5 538 L 66 541 Q 61.9 542.3 63 539 L 65.5 538 Z "></path><path d="M 84.5 538 Q 88.3 536.8 87 540.5 L 84.5 542 L 83 539.5 L 84.5 538 Z "></path><path d="M 90.5 538 L 93 542 L 90.5 543 L 88 539.5 L 90.5 538 Z "></path><path d="M 219 539 Q 223.5 537.5 222 542 Q 217.5 543.5 219 539 Z "></path><path d="M 57 540 Q 61.5 538.5 60 543 Q 55.5 544.5 57 540 Z "></path><path d="M 106 540 Q 110.1 538.7 109 542 Q 104.9 543.3 106 540 Z "></path><path d="M 127.5 540 Q 130.8 538.9 130 541.5 L 126.5 544 L 126 541.5 L 127.5 540 Z "></path><path d="M 174.5 540 Q 177.5 541.5 174.5 543 Q 172.3 543.8 173 541.5 L 174.5 540 Z "></path><path d="M 14.5 541 L 18 541.5 L 15.5 543 L 14.5 541 Z "></path><path d="M 51 541 L 54 542.5 Q 52.5 545.5 51 542.5 L 51 541 Z "></path><path d="M 71.5 541 L 73 544 Q 69.3 545.5 70 542.5 L 71.5 541 Z "></path><path d="M 99 541 Q 101.7 539.9 101 542.5 L 99 543.5 L 99 541 Z "></path><path d="M 178 541 Q 181.7 539.5 181 542.5 Q 179.5 545.5 178 542.5 L 178 541 Z "></path><path d="M 184 541 L 187 541.5 L 184 543 L 184 541 Z "></path><path d="M 199 541 Q 202.3 539.9 201 544 Q 197.7 545.1 199 541 Z "></path><path d="M 232.5 541 L 234 544 Q 230.3 545.5 231 542.5 L 232.5 541 Z "></path><path d="M 211 542 L 217 542.5 Q 215.6 545.3 211 544 L 211 542 Z "></path><path d="M 343.5 546 Q 346.3 547.3 344 548.5 L 343.5 552 Q 340.8 550.8 343 549.5 L 343.5 546 Z "></path><path d="M 343.5 553 Q 346.9 552.1 345 557.5 L 344 557.5 L 343.5 553 Z "></path><path d="M 14.5 558 L 23.5 558 L 24 559.5 L 22 562.5 L 23 565.5 Q 20.8 566.8 23.5 568 L 33 560.5 L 34.5 558 Q 42.1 556.5 41 560 L 35.5 561 L 27 567 L 32.5 574 L 38 577 Q 36.9 579.7 39.5 579 L 44 580 Q 45.1 583.5 37.5 582 L 33 579 Q 34.1 576.3 31.5 577 L 28 575 L 26.5 572 L 23.5 570 Q 20.3 571.8 22 578.5 L 24.5 582 L 17 581.5 L 18 580.5 L 18 566.5 L 18 564.5 L 17 560 L 14.5 558 Z "></path><path d="M 48.5 558 L 51.5 559 L 53.5 559 Q 57.5 558.5 58 561.5 L 66.5 578 L 67 562.5 L 66 559 L 71 559.5 L 70 560.5 L 70 577.5 L 70 579.5 L 68.5 582 L 62.5 580 L 60 577.5 L 53.5 566 L 53 578.5 L 55.5 582 L 52.5 583 L 50.5 582 L 49 582.5 L 50 580.5 L 50 566.5 L 49 564.5 L 49 562.5 Q 50.1 559.2 47.5 560 L 48.5 558 Z "></path><path d="M 78.5 558 Q 84.6 556.8 84 559.5 L 82 565.5 L 83 566.5 L 83 575.5 L 82 577.5 L 83 581 L 77 581 L 77 572.5 L 76 570.5 L 77 569.5 L 77 561.5 L 75.5 559 L 78.5 558 Z "></path><path d="M 94.5 558 Q 101.4 557.1 104 560.5 Q 104.5 564.5 101.5 565 L 99.5 560 L 93 562.5 Q 90.5 566 92 573.5 L 94.5 577 L 98.5 578 Q 101.2 576.8 99 575.5 L 99 574 L 95 574 L 95 572.5 L 97.5 571 Q 98.8 573.3 103.5 572 L 105 571.5 L 104 581 L 93.5 581 L 89 577.5 Q 85.7 574.3 86 567.5 Q 87.3 561.8 91.5 559 L 94.5 558 Z "></path><path d="M 109.5 558 Q 114 557 115 559.5 L 115.5 568 L 122 567 L 121 559.5 Q 122.2 556.8 123.5 559 L 128 558 L 127 560.5 L 128.5 561 Q 132.9 555.9 144.5 558 L 148 559 Q 149 562.8 146.5 564 Q 144.3 564.8 145 562.5 L 141 561 L 141 578.5 Q 143.8 577.9 143 581 L 138.5 580 L 135 580.5 L 136 578.5 L 136 567.5 L 135 563 L 130.5 564 L 128 562.5 L 127 569.5 L 128 570.5 L 128 581 L 123 581 L 123 574.5 L 122 572.5 L 122 570.5 Q 122.5 567.5 115.5 569 L 114 570.5 L 114 578.5 Q 116.3 579.8 113.5 581 Q 109 582 108 579.5 L 109 576.5 L 109 560.5 Q 106.8 559.3 109.5 558 Z "></path><path d="M 201.5 558 L 211.5 559 L 213 560.5 L 210 568 Q 205.9 569.7 207 565.5 L 208 563.5 Q 206.5 560.5 200.5 562 Q 195.4 564.4 196 572.5 L 197 575 Q 200 577.7 206.5 578 L 212.5 575 L 214 576.5 L 210.5 580 L 203.5 582 L 194 578 L 192 569.5 Q 193.1 562.1 198.5 559 L 201.5 558 Z "></path><path d="M 219.5 558 Q 224.8 556.8 226 559.5 L 224 562.5 L 224 573.5 L 226.5 577 L 232 576 L 232 560.5 Q 229.3 561.1 230 558 L 237 558 L 237 560.5 L 236 561.5 L 235 572.5 L 237.5 577 Q 240.1 576.3 239 579 L 233.5 578 L 226.5 580 L 222 579 Q 218.8 574.1 220 563.5 L 221 561 L 218 559.5 L 219.5 558 Z "></path><path d="M 243.5 558 L 247.5 559 Q 249 556.5 254.5 558 L 258 559 L 259 563.5 L 258 566 L 253.5 569 L 247 570 Q 245.2 576.1 248.5 578 Q 251.1 577.3 250 580 L 241 579.5 Q 244 576.5 243 569.5 L 243 567.5 L 242 562.5 L 243 561.5 L 241.5 559 L 243.5 558 Z M 248 560 L 248 567 L 252 567 L 253 562 Q 252 559 248 560 Z "></path><path d="M 269.5 558 L 276 560.5 L 275 564 Q 269.8 566.1 271 561.5 L 267.5 560 Q 264.5 559.5 266 566.5 Q 267.5 569.5 273.5 568 L 275.5 568 Q 278.8 566.9 278 569.5 L 280 573.5 L 275.5 580 Q 272.2 581.1 273 578.5 Q 275.6 577.1 275 572.5 L 273 569 L 265.5 570 L 263 569 L 261 562.5 L 263.5 559 Q 268.3 560.2 269.5 558 Z "></path><path d="M 165.5 562 Q 170.3 560.7 169 564 Q 165.2 563 164 565.5 L 166.5 569 L 168.5 570 Q 169.6 567.3 173 568 L 175 573 L 172.5 574 L 170 572.5 Q 172.4 577.6 171 586.5 L 170 589 L 166 590 Q 168.8 586.4 168 578.5 L 166 571.5 L 163.5 569 L 161 567.5 Q 160.5 563.5 163.5 563 L 165.5 562 Z "></path><path d="M 341.5 562 L 343.5 562 Q 346.1 561.3 345 564 Q 339.4 565.7 341.5 562 Z "></path><path d="M 155.5 571 Q 161.8 569.8 163 573.5 Q 164 578 161.5 579 L 155.5 580 L 152 575.5 L 155.5 571 Z M 156 573 L 158 577 Q 160 578 159 575 L 156 573 Z "></path><path d="M 263.5 573 L 272 579.5 L 267.5 580 Q 266.2 577.8 261.5 579 L 259.5 580 L 260 578.5 Q 259.5 573.5 263.5 573 Z "></path><path d="M 288.5 576 Q 292.3 575.3 293 577.5 Q 293.8 579.8 291.5 579 L 288.5 580 L 287 577.5 L 288.5 576 Z "></path><path d="M 345.5 588 L 346 591.5 L 344 592.5 L 345.5 588 Z "></path><path d="M 341.5 589 L 342 591.5 L 340 590.5 L 341.5 589 Z "></path></svg>