<svg width="350" height="600" version="1.1" xmlns="http://www.w3.org/2000/svg" desc="Created with imagetracer.js version 1.2.5"><path d="M 11.5 4 L 14.5 5 L 16.5 5 L 34.5 5 L 36.5 6 L 37.5 5 L 46.5 5 L 48.5 6 L 51.5 5 L 56.5 6 L 58.5 6 L 155.5 7 L 157.5 7 L 334.5 7 L 335 7.5 L 335 25.5 L 336 26.5 L 336 39.5 L 335 42.5 L 336 45.5 L 335 46.5 L 335 60.5 L 336 65.5 L 335 66.5 L 335 83.5 L 336 88.5 L 336 90.5 L 335 92.5 L 336 93.5 L 336 106.5 L 336 108.5 Q 337.5 120 335 127.5 Q 337.8 129.3 336 135.5 L 336 137.5 L 335 139.5 L 335 151.5 L 336 155.5 L 335 156.5 L 335 494.5 L 336 495.5 L 336 573.5 L 337 576.5 L 336 577.5 L 336 587.5 L 337 589.5 L 336 593 L 326.5 594 L 323.5 593 L 320.5 594 L 319.5 593 L 311.5 593 L 310.5 594 L 287.5 594 L 286.5 593 L 276.5 593 L 275.5 594 Q 264.8 592.3 258.5 595 L 257.5 594 L 231.5 593 L 230.5 594 L 222.5 594 L 220.5 594 L 44.5 594 L 43.5 595 L 42.5 594 L 26.5 594 L 24.5 595 L 21.5 594 Q 10.5 592.7 5 595 L 6 567.5 L 5 563.5 L 6 560.5 L 5 557.5 L 6 556.5 L 6 547.5 L 5 546.5 L 5 492.5 L 4 488.5 L 5 487.5 L 5 473.5 L 6 472.5 L 5 471.5 L 5 463.5 L 6 459.5 L 5 458.5 L 5 446.5 L 6 441.5 L 6 439.5 L 6 422.5 L 5 420.5 L 6 419.5 L 6 406.5 L 5 401.5 Q 7.3 400.3 6 395.5 L 5 391.5 L 6 390.5 L 6 382.5 Q 3.7 381.3 5 376.5 L 6 374.5 L 5 371.5 L 6 370.5 L 6 355.5 L 5 354.5 L 5 344.5 L 6 343.5 L 6 258.5 L 7 256.5 L 6 255.5 L 6 242.5 L 7 241.5 L 7 232.5 L 6 231.5 L 6 205.5 L 7 202.5 L 6 200.5 Q 8.3 199.3 7 194.5 L 7 192.5 Q 8.8 186.3 6 184.5 L 6 182.5 L 6 162.5 L 7 157.5 L 6 154.5 L 7 149.5 L 6 144.5 L 7 143.5 L 7 120.5 L 7 118.5 L 6 112.5 L 7 109.5 L 6 107.5 L 6 105.5 L 7 103.5 L 7 26.5 L 8 25.5 L 7 23.5 Q 9.5 22 8 16.5 L 7 13.5 L 7 11.5 L 9.5 5 L 11.5 4 Z M 30 7 L 29 8 L 11 8 L 10 13 L 10 183 L 10 185 L 10 208 L 9 209 L 9 227 L 10 228 L 10 264 L 9 265 L 9 285 L 10 286 L 9 289 L 10 386 L 13 384 L 19 384 Q 17 379 21 380 L 23 376 L 27 373 L 34 374 Q 38 376 37 384 L 39 383 L 44 385 L 47 377 L 46 376 L 46 357 L 45 356 L 48 349 L 46 340 L 46 332 L 47 331 L 46 326 Q 45 320 48 318 Q 51 311 62 311 L 64 311 L 70 309 L 72 309 L 74 308 L 107 314 Q 111 312 120 313 L 130 309 Q 133 310 132 308 L 127 305 L 121 305 L 111 310 L 103 310 L 93 306 L 89 302 L 93 286 Q 97 285 99 288 L 104 284 L 108 285 L 110 278 L 106 275 L 104 272 L 107 268 L 108 268 L 108 263 L 105 263 L 99 258 Q 92 260 91 257 L 89 258 Q 81 260 78 257 L 75 255 L 75 243 L 74 242 Q 75 239 73 240 L 71 237 L 77 234 L 76 227 L 74 228 L 73 225 L 71 226 Q 68 227 69 223 L 67 223 L 64 215 L 65 213 L 65 207 Q 69 208 67 203 L 69 203 L 70 199 L 76 196 L 81 198 L 75 201 L 72 207 Q 70 214 75 216 Q 77 217 76 213 Q 77 210 81 211 Q 83 212 82 216 L 82 217 Q 85 218 83 214 L 85 214 L 86 214 L 85 219 L 86 221 L 86 227 L 83 227 L 83 234 L 89 234 L 90 235 Q 88 229 89 221 Q 86 219 87 215 L 92 214 L 101 202 L 100 199 Q 98 194 102 195 L 104 189 L 108 184 Q 106 180 107 173 Q 104 172 104 168 L 109 165 Q 112 164 109 162 L 105 163 L 105 160 L 110 160 L 109 154 L 112 152 Q 114 153 112 155 L 113 160 L 117 159 Q 120 161 117 162 Q 112 160 113 164 Q 114 166 118 165 Q 120 166 119 170 L 116 171 L 116 184 L 118 184 L 124 195 L 124 198 L 134 206 L 141 215 L 140 217 L 141 232 L 132 238 L 129 241 L 128 245 L 133 245 L 136 248 L 137 247 Q 141 246 143 248 L 145 243 L 143 239 Q 144 236 142 237 L 140 235 Q 142 231 147 231 Q 148 225 144 223 Q 146 216 143 215 L 145 211 Q 147 210 146 213 L 148 214 L 147 209 L 151 207 Q 154 208 154 213 L 156 210 Q 158 198 151 196 Q 146 197 147 194 L 154 194 L 159 196 L 160 199 Q 159 202 163 200 L 164 203 L 164 210 L 162 210 L 162 213 L 162 215 Q 163 217 160 216 L 160 218 Q 157 217 158 220 L 156 220 Q 157 223 154 222 L 154 219 L 153 231 L 158 232 L 159 236 L 155 237 L 155 251 L 156 253 L 152 256 L 140 256 L 139 257 L 136 256 L 133 261 L 127 263 L 127 266 L 131 272 L 130 275 L 126 277 L 127 282 L 133 286 L 144 286 L 154 283 Q 157 284 155 280 L 162 277 Q 165 274 164 268 L 168 262 L 167 258 L 168 255 L 167 253 L 167 242 L 168 241 L 166 233 L 166 200 L 162 195 Q 157 196 158 193 L 152 192 L 151 186 L 157 182 L 157 180 L 151 183 L 145 182 L 150 171 L 149 169 L 151 168 L 151 165 L 150 167 L 149 167 L 149 164 L 152 158 L 152 155 Q 155 156 154 154 L 159 150 L 154 144 L 153 140 L 157 115 L 159 110 L 164 101 L 178 84 L 183 80 Q 185 81 184 79 L 205 69 L 228 64 L 246 63 L 248 63 L 249 64 L 263 65 L 273 68 L 281 73 L 284 72 L 285 72 L 284 74 L 280 75 L 280 77 L 279 76 L 273 71 Q 266 71 264 68 L 253 67 L 252 66 L 242 66 L 241 65 L 240 66 L 228 66 L 213 69 Q 202 71 195 78 L 201 81 Q 204 82 204 87 L 218 80 L 228 79 L 233 77 L 246 77 L 248 77 L 268 81 L 272 85 L 274 79 L 277 77 L 275 81 Q 274 88 277 91 Q 276 93 279 92 L 278 91 L 282 90 L 280 93 L 283 97 Q 285 98 284 95 L 282 95 L 285 93 L 288 97 L 294 94 L 291 91 Q 292 84 288 82 L 285 84 L 283 82 L 287 79 L 293 83 Q 295 83 294 90 Q 296 93 301 92 L 300 89 Q 299 84 301 83 Q 297 80 297 74 L 295 72 L 294 70 L 297 71 Q 301 75 303 82 L 303 84 L 314 97 L 317 103 L 320 101 L 322 105 Q 323 109 321 111 Q 320 113 323 112 L 323 114 L 325 114 L 328 124 Q 329 131 327 134 Q 330 133 332 136 L 332 135 L 332 133 L 332 123 L 333 122 L 332 118 L 332 99 L 333 98 L 332 93 L 332 28 L 331 27 L 331 13 L 332 12 L 331 10 L 318 10 L 317 9 L 314 10 L 312 10 Q 303 12 300 9 L 298 9 L 289 9 L 288 10 L 287 9 L 241 9 L 239 9 L 236 8 L 234 8 L 231 9 L 221 9 L 220 8 L 218 9 L 177 9 L 175 9 L 166 9 L 165 10 Q 159 8 150 9 L 148 9 L 145 10 L 144 9 L 113 9 L 111 9 L 108 8 L 106 9 L 102 8 Q 98 10 92 9 L 89 8 L 61 8 L 60 9 L 59 8 L 38 8 L 37 7 L 33 8 L 30 7 Z M 191 79 L 180 84 L 179 87 L 180 92 Q 180 87 185 85 L 187 87 L 186 87 L 181 95 L 184 99 Q 186 105 181 103 Q 182 99 179 98 L 172 106 L 172 113 L 170 113 L 170 111 L 165 118 L 163 126 L 165 126 Q 164 121 167 120 L 168 125 L 170 121 L 168 120 L 171 115 L 174 120 L 175 117 L 176 123 L 177 120 L 179 124 L 183 124 L 181 123 L 182 121 L 181 116 L 183 117 L 183 123 L 185 123 L 184 121 L 185 115 L 186 122 L 192 119 L 195 113 L 197 113 L 198 111 L 202 108 L 205 109 Q 208 108 207 111 L 202 112 L 199 115 Q 200 117 196 116 L 196 118 L 198 117 L 207 118 L 206 117 L 207 114 Q 209 108 218 110 Q 222 111 221 119 L 221 121 L 223 126 L 224 123 Q 226 117 223 116 L 223 112 Q 220 113 221 110 L 228 104 L 233 104 L 236 109 Q 235 111 238 110 L 238 117 L 239 118 L 238 120 L 241 135 L 241 147 L 242 148 L 241 151 L 243 162 L 243 146 L 244 145 L 242 138 L 242 128 L 240 120 L 240 114 L 237 108 L 238 105 L 244 101 L 250 102 L 253 109 L 253 108 L 260 104 L 264 104 L 268 109 L 267 112 L 272 110 L 271 107 Q 268 108 269 105 L 257 100 L 249 98 L 243 98 L 241 98 L 239 97 L 238 98 L 226 99 L 215 103 L 213 105 Q 210 104 211 108 L 212 109 L 209 109 L 204 107 L 207 106 L 205 104 L 202 104 L 197 108 L 195 107 L 182 114 L 183 110 L 182 104 Q 185 103 187 106 Q 191 107 190 104 L 198 106 L 201 102 L 200 95 Q 199 92 196 93 Q 194 91 193 94 L 190 93 Q 187 92 188 89 L 192 86 L 190 89 L 192 92 L 192 89 L 197 88 L 200 92 Q 203 90 201 85 L 194 79 L 191 79 Z M 232 88 L 233 95 L 234 95 Q 236 87 232 88 Z M 238 88 L 236 90 L 237 95 L 238 93 L 238 88 Z M 240 88 L 240 95 L 242 95 L 243 90 L 240 88 Z M 245 88 L 244 93 Q 243 96 246 95 L 247 89 L 245 88 Z M 227 89 L 228 94 Q 227 98 231 96 L 230 94 Q 232 87 227 89 Z M 249 89 L 250 95 L 251 91 Q 252 88 249 89 Z M 254 89 L 252 94 L 253 96 L 254 94 L 254 89 Z M 222 90 L 219 91 L 220 95 Q 219 100 223 98 L 222 90 Z M 258 90 L 255 96 Q 254 98 257 97 L 258 94 L 258 90 Z M 305 90 L 303 92 Q 302 94 305 93 L 305 95 L 307 95 L 310 102 L 310 108 L 313 111 L 315 108 Q 313 95 305 90 Z M 261 91 L 259 96 L 260 98 L 261 96 L 261 91 Z M 268 91 L 267 92 Q 264 91 265 94 L 270 95 L 272 95 L 275 96 L 281 109 L 283 108 L 285 109 L 297 108 L 301 105 L 302 106 L 301 108 L 299 110 Q 292 109 289 113 L 291 120 L 291 122 L 292 124 L 292 123 L 295 121 L 294 126 L 299 127 Q 298 123 301 122 L 297 120 L 299 117 Q 302 116 301 119 L 304 120 L 302 126 L 307 124 Q 306 121 309 122 L 309 120 L 306 119 L 308 115 Q 311 114 309 118 L 313 117 L 307 108 L 307 103 L 304 96 L 301 94 L 289 98 L 287 102 L 286 101 L 285 104 L 279 95 L 278 99 L 277 95 Q 276 90 268 91 Z M 174 92 L 162 111 L 159 124 Q 157 125 160 126 L 164 115 L 166 112 L 170 109 L 173 101 Q 174 97 178 98 Q 179 95 176 96 L 176 92 L 174 92 Z M 215 92 L 217 100 L 218 100 L 217 95 Q 218 91 215 92 Z M 211 94 L 212 100 Q 214 103 215 100 L 213 97 Q 214 93 211 94 Z M 209 96 L 207 97 L 207 98 Q 209 97 208 100 L 210 101 L 209 96 Z M 264 96 L 262 100 L 264 99 L 264 96 Z M 266 97 L 266 102 L 268 101 Q 269 96 266 97 Z M 271 99 Q 268 100 269 104 L 271 103 L 271 99 Z M 205 100 L 206 102 L 207 102 L 205 100 Z M 318 105 Q 319 109 316 111 L 317 112 L 319 111 L 320 109 Q 321 104 318 105 Z M 282 113 L 284 115 Q 285 112 282 113 Z M 265 114 L 265 117 L 268 118 L 268 116 L 265 114 Z M 285 115 L 285 118 L 287 117 Q 288 114 285 115 Z M 209 117 L 206 121 L 208 128 L 208 134 L 212 141 Q 211 146 215 144 L 209 131 L 209 124 L 209 122 L 209 117 Z M 322 117 L 318 119 L 322 120 L 323 125 L 322 132 L 316 137 Q 315 139 319 138 L 321 138 L 326 138 L 331 140 L 331 139 Q 328 140 329 137 L 322 136 L 324 133 Q 325 122 322 117 Z M 269 118 L 268 125 L 270 126 L 269 118 Z M 282 118 L 282 121 L 280 124 L 281 125 L 284 123 L 285 122 L 282 118 Z M 315 118 L 313 120 Q 312 125 316 123 L 315 118 Z M 288 119 L 288 123 L 288 122 Q 290 120 288 119 Z M 193 120 L 190 125 Q 189 129 192 128 L 193 122 L 193 120 Z M 174 124 L 172 127 L 174 128 L 174 124 Z M 310 124 L 310 127 L 313 126 Q 315 125 314 128 L 307 131 L 309 134 L 313 133 Q 317 130 316 125 L 310 124 Z M 320 124 L 318 131 L 321 129 Q 322 125 320 124 Z M 182 126 L 180 129 L 183 130 L 185 127 L 182 126 Z M 259 126 L 260 128 Q 261 125 259 126 Z M 306 127 L 299 130 L 301 133 L 307 128 L 306 127 Z M 177 128 L 174 132 L 176 134 L 178 131 L 177 128 Z M 256 128 L 255 136 L 257 136 Q 259 130 256 128 Z M 291 128 L 292 131 L 294 130 L 293 136 L 297 135 L 296 138 Q 295 142 299 140 Q 300 144 295 142 Q 292 141 293 137 L 290 135 L 288 140 Q 287 144 291 142 Q 292 145 288 144 L 291 148 L 292 144 L 296 145 L 298 144 L 300 144 Q 299 140 302 139 L 298 138 Q 299 134 296 132 L 296 128 L 291 128 Z M 168 129 L 168 132 Q 172 133 171 131 L 168 129 Z M 187 130 L 185 132 L 186 134 L 187 134 L 187 130 Z M 225 130 L 223 133 L 224 139 L 227 145 L 228 145 L 225 130 Z M 196 131 L 196 140 L 198 143 Q 197 147 201 145 Q 202 142 199 143 L 196 131 Z M 160 132 L 163 143 L 168 145 L 167 144 Q 168 141 166 142 L 162 138 Q 164 131 160 132 Z M 180 132 L 181 136 Q 184 137 183 133 L 180 132 Z M 191 132 L 189 136 L 192 136 L 191 132 Z M 158 133 L 156 136 L 156 138 Q 158 146 165 150 Q 168 151 166 147 L 164 146 Q 161 147 162 144 L 160 144 Q 157 141 158 133 Z M 165 133 L 164 136 L 165 136 L 165 133 Z M 172 134 L 170 136 L 168 135 L 168 137 L 168 138 L 172 138 L 172 134 Z M 301 134 L 301 137 L 303 136 L 303 138 L 309 136 L 301 134 Z M 178 136 L 177 137 Q 174 136 175 140 L 178 139 L 178 136 Z M 258 136 L 256 138 L 257 141 L 258 139 L 258 136 Z M 190 138 L 185 140 L 186 145 L 186 141 Q 191 140 192 143 L 191 147 L 187 145 L 186 148 Q 183 152 176 153 L 178 160 Q 180 164 182 161 L 181 158 Q 177 159 179 155 Q 180 152 182 154 L 184 154 L 184 158 L 186 158 L 190 168 L 189 170 Q 187 171 190 172 L 196 170 Q 199 169 198 163 L 203 164 L 204 167 L 204 164 L 202 161 Q 196 162 195 160 L 197 157 L 195 154 L 197 150 L 198 151 L 197 153 L 199 154 Q 198 149 201 150 L 202 154 L 203 154 L 202 151 L 204 148 Q 206 147 205 150 L 205 151 Q 207 152 206 150 L 208 151 L 207 154 L 211 156 L 212 154 Q 208 155 210 151 L 214 149 L 216 153 Q 212 155 216 157 L 215 162 Q 218 163 216 165 Q 215 168 218 167 L 219 168 L 218 163 L 218 156 L 220 151 Q 221 147 225 148 L 226 145 L 225 142 L 223 141 L 221 142 L 218 146 L 216 147 L 213 146 Q 208 145 207 147 Q 199 148 194 146 L 193 140 L 190 138 Z M 280 138 L 279 143 L 280 143 L 280 138 Z M 313 138 L 310 141 L 313 142 L 313 138 Z M 181 139 Q 178 142 179 147 L 183 146 L 182 143 L 181 139 Z M 275 139 L 274 141 L 276 142 L 275 139 Z M 306 140 L 303 143 L 305 143 L 307 143 Q 308 139 306 140 Z M 315 140 L 315 142 Q 313 145 308 143 L 310 148 L 310 145 Q 316 145 318 141 L 315 140 Z M 319 140 L 319 143 L 321 142 L 325 144 Q 328 145 327 152 L 329 151 L 328 144 Q 326 139 319 140 Z M 174 141 L 172 144 L 176 146 L 177 143 L 174 141 Z M 284 142 L 284 147 L 285 147 L 284 142 Z M 278 144 L 279 146 Q 280 143 278 144 Z M 306 144 L 304 146 Q 303 148 306 147 L 306 144 Z M 297 145 L 295 147 Q 294 150 298 148 L 297 145 Z M 184 147 L 182 149 L 184 149 L 184 147 Z M 169 148 L 168 153 L 169 153 L 169 148 Z M 176 148 L 173 152 L 174 153 L 177 152 L 178 150 Q 179 147 176 148 Z M 229 148 L 227 150 L 229 157 L 230 157 Q 232 150 229 148 Z M 266 149 L 267 154 L 268 154 Q 270 148 266 149 Z M 291 149 L 291 151 L 293 150 L 291 149 Z M 333 149 L 331 152 L 330 154 L 333 153 L 333 149 Z M 213 150 L 211 152 L 212 154 L 214 153 Q 215 149 213 150 Z M 304 150 Q 301 151 302 155 L 301 155 Q 302 150 300 151 Q 298 155 296 151 L 295 154 L 294 154 Q 295 151 293 152 L 291 152 L 289 153 L 287 156 L 285 154 L 281 156 Q 274 154 276 160 L 275 160 Q 276 156 274 157 L 272 157 L 271 163 L 275 164 L 277 164 L 282 162 L 292 161 L 300 158 L 304 158 L 305 157 L 304 150 Z M 310 152 L 310 158 L 312 157 Q 314 151 310 152 Z M 315 152 L 314 157 L 315 157 L 315 152 Z M 163 153 L 165 156 L 166 155 Q 167 152 163 153 Z M 319 153 L 317 155 L 318 158 L 319 155 L 319 153 Z M 156 154 L 154 156 L 155 160 L 157 156 L 161 159 L 157 166 Q 160 167 159 164 L 162 164 Q 167 167 168 176 Q 169 178 171 176 L 175 178 Q 177 179 176 177 L 177 175 L 175 176 L 171 174 L 172 172 L 167 164 L 168 159 L 173 161 L 174 161 L 173 156 L 165 159 L 160 154 L 156 154 Z M 206 154 Q 202 155 203 160 Q 204 162 208 161 L 210 159 L 206 154 Z M 181 155 L 183 157 Q 184 154 181 155 Z M 201 155 L 197 160 L 200 160 L 201 157 L 201 155 Z M 325 155 L 324 161 L 325 161 L 325 155 Z M 329 155 L 327 158 L 327 160 L 329 162 L 330 158 L 329 155 Z M 176 156 L 174 158 L 176 159 L 176 156 Z M 214 156 L 212 158 L 214 159 L 214 156 Z M 232 159 L 231 162 L 232 162 L 232 159 Z M 178 160 L 175 161 L 174 164 Q 173 168 177 169 L 180 167 Q 181 161 178 160 Z M 184 160 Q 183 163 186 162 Q 187 159 184 160 Z M 211 160 L 208 163 Q 210 166 212 162 Q 213 159 211 160 Z M 170 161 L 171 163 Q 172 160 170 161 Z M 303 161 L 295 164 L 293 164 L 290 166 L 288 166 Q 289 168 286 167 L 286 165 L 285 169 L 301 166 L 302 164 L 306 162 L 305 166 L 309 163 Q 310 159 303 161 Z M 157 162 L 155 164 L 157 164 L 157 162 Z M 214 162 L 212 165 Q 214 168 215 165 Q 216 161 214 162 Z M 312 162 L 308 167 L 310 167 L 312 164 L 312 162 Z M 233 163 L 233 167 L 233 169 L 237 172 Q 236 166 233 163 Z M 316 163 Q 312 164 313 168 L 317 165 Q 318 162 316 163 Z M 320 163 L 317 167 Q 316 169 319 168 L 320 166 L 320 163 Z M 183 164 L 181 168 L 182 171 L 184 172 L 183 167 Q 185 165 183 164 Z M 208 164 L 207 167 L 208 167 L 208 164 Z M 187 165 L 185 169 Q 187 172 188 169 L 187 165 Z M 329 165 L 322 171 L 323 176 L 322 181 L 323 183 L 322 185 Q 321 189 323 191 L 323 230 L 322 231 L 324 236 L 332 229 L 332 166 L 329 165 Z M 108 166 L 106 168 L 108 171 L 108 170 L 108 168 L 108 166 Z M 113 166 L 112 167 Q 108 166 109 169 L 113 171 L 115 168 L 113 166 Z M 162 166 L 163 174 L 164 170 L 162 166 Z M 171 166 Q 170 170 173 169 Q 174 165 171 166 Z M 282 166 L 280 167 L 278 167 L 277 169 Q 278 171 282 170 L 284 170 Q 286 165 282 166 Z M 210 167 L 208 169 L 214 169 Q 215 165 210 167 Z M 152 168 L 151 173 L 152 173 L 152 168 Z M 205 168 L 202 169 L 203 172 L 205 171 L 204 174 L 208 174 L 207 170 L 205 168 Z M 270 168 L 269 171 Q 268 173 272 172 L 273 170 L 270 168 Z M 300 168 L 290 171 L 288 170 L 281 172 L 281 184 L 280 185 L 281 188 L 281 198 L 280 199 L 281 201 Q 282 205 280 207 L 281 211 L 281 229 L 280 230 Q 279 234 281 236 L 280 238 L 281 269 L 282 271 L 281 274 Q 280 278 282 280 L 281 282 L 281 329 L 280 332 Q 278 338 283 336 L 284 334 L 284 337 L 286 336 L 289 337 L 290 335 L 290 338 L 295 337 L 295 339 Q 297 342 299 338 L 299 341 L 301 340 L 300 335 L 301 333 L 301 304 L 301 302 L 300 300 L 301 297 L 301 295 L 300 292 L 300 281 L 301 280 L 300 278 L 301 276 L 301 265 L 300 264 L 300 252 L 301 251 L 300 249 L 301 244 L 301 242 Q 303 236 300 235 L 301 233 L 300 230 L 300 212 L 301 211 L 301 199 L 300 198 L 300 177 L 301 176 L 300 174 L 301 172 L 300 168 Z M 154 169 L 153 175 L 154 175 L 154 169 Z M 156 169 Q 155 172 158 171 Q 159 168 156 169 Z M 175 169 L 176 171 L 177 171 L 175 169 Z M 215 169 L 215 171 L 219 171 L 215 169 Z M 198 170 Q 195 171 197 173 Q 196 177 201 175 L 201 173 Q 197 174 198 172 L 200 172 Q 201 169 198 170 Z M 306 170 Q 308 172 307 178 L 308 178 L 308 171 L 306 170 Z M 311 170 L 309 179 L 310 180 L 310 199 L 311 200 L 310 204 L 310 206 L 311 208 L 311 238 L 312 238 L 312 194 L 311 193 L 311 184 L 311 182 L 312 180 Q 313 173 311 170 Z M 109 171 L 109 174 L 109 176 L 109 185 L 111 185 L 113 182 L 112 181 L 112 173 L 109 171 Z M 175 171 L 174 174 L 175 174 L 175 171 Z M 210 171 Q 209 174 212 173 Q 213 170 210 171 Z M 224 171 L 223 174 L 226 176 L 224 171 Z M 268 171 L 266 175 L 268 174 L 268 171 Z M 276 171 L 274 174 L 276 174 L 276 171 Z M 315 171 L 314 177 L 314 179 L 315 225 L 316 225 L 316 173 L 315 171 Z M 215 172 Q 212 174 215 175 Q 218 176 217 174 L 215 172 Z M 220 172 L 220 175 L 221 175 Q 222 171 220 172 Z M 265 172 L 263 175 L 262 174 L 261 178 L 265 175 L 265 172 Z M 319 172 L 318 176 L 319 176 L 319 172 Z M 151 173 L 149 177 L 151 176 L 151 173 Z M 184 173 Q 183 177 188 175 Q 189 171 184 173 Z M 192 173 L 192 175 L 195 176 Q 197 172 192 173 Z M 304 173 L 303 176 L 304 176 L 304 173 Z M 156 174 L 155 178 L 158 176 Q 159 173 156 174 Z M 162 174 L 160 176 L 162 176 L 162 174 Z M 248 174 L 249 176 Q 250 173 248 174 Z M 274 174 L 272 176 L 274 176 L 274 174 Z M 180 175 L 177 178 L 181 178 L 180 180 L 182 180 Q 184 179 182 178 Q 183 174 180 175 Z M 260 175 L 254 176 L 256 180 L 256 179 L 256 177 Q 257 180 260 179 L 260 175 Z M 188 176 L 187 178 Q 190 179 191 177 L 188 176 Z M 206 176 L 203 177 L 204 179 L 206 178 L 212 181 L 212 179 Q 211 175 206 176 Z M 217 176 L 215 179 L 217 178 Q 222 178 224 181 L 225 181 L 224 179 Q 222 174 221 177 L 217 176 Z M 270 176 L 266 178 L 264 181 L 271 177 L 270 176 Z M 277 176 L 275 180 L 277 179 L 277 176 Z M 149 177 L 148 180 L 149 180 L 149 177 Z M 253 177 L 251 179 L 252 181 L 253 181 L 253 177 Z M 304 177 L 304 191 L 304 180 Q 306 178 304 177 Z M 167 178 L 167 180 L 171 179 L 167 178 Z M 250 178 L 247 179 L 245 179 Q 242 178 243 181 L 236 180 L 234 183 L 245 183 L 247 182 L 249 182 L 251 181 L 250 178 Z M 195 179 L 194 180 L 183 180 L 181 182 L 174 184 L 172 187 Q 170 188 173 189 L 173 188 L 176 185 L 178 185 Q 184 184 186 187 Q 191 186 190 189 L 198 189 L 200 186 L 199 186 Q 195 182 187 184 Q 185 186 184 184 L 190 181 Q 196 180 199 183 L 201 183 L 204 185 L 204 184 L 201 181 Q 199 177 198 180 L 195 179 Z M 230 179 L 229 182 L 233 183 Q 234 180 230 181 L 230 179 Z M 308 179 L 307 219 L 308 219 L 308 179 Z M 262 180 L 255 182 L 255 184 Q 259 182 258 186 L 255 187 L 254 183 L 249 185 L 247 184 L 243 185 L 243 189 L 242 185 L 239 186 L 237 186 L 234 185 Q 235 191 232 194 L 232 199 L 229 202 L 231 204 L 233 203 L 235 204 L 249 204 L 267 198 L 267 197 L 261 199 L 258 198 Q 255 199 256 197 L 256 195 Q 255 192 259 193 L 259 190 L 256 189 L 259 187 Q 257 180 262 182 L 262 180 Z M 170 181 L 168 183 L 172 184 Q 174 180 170 181 Z M 207 181 L 206 186 Q 208 188 213 187 L 211 183 L 207 181 Z M 214 181 L 216 185 L 221 184 Q 220 180 214 181 Z M 270 181 L 268 183 L 271 183 L 270 181 Z M 165 182 L 165 184 L 163 184 L 164 186 L 163 185 L 162 187 L 161 187 L 162 185 L 160 183 L 155 187 L 156 189 L 169 187 Q 170 184 167 185 L 167 182 L 165 182 Z M 277 182 L 273 184 L 274 186 L 277 184 L 277 182 Z M 225 183 L 225 189 L 227 188 L 225 183 Z M 230 184 L 229 189 L 230 189 L 230 184 Z M 262 184 L 260 186 Q 259 188 262 187 Q 265 186 262 184 Z M 109 185 L 106 189 L 108 191 L 109 188 L 109 185 Z M 111 186 L 111 190 Q 109 191 112 192 L 113 189 Q 114 185 111 186 Z M 115 186 L 114 189 L 116 191 L 117 188 Q 118 185 115 186 Z M 221 186 L 218 190 L 220 191 L 223 188 Q 224 185 221 186 Z M 203 187 L 199 192 L 205 191 L 206 190 L 203 187 Z M 216 187 Q 214 190 209 190 L 208 192 Q 214 193 216 190 L 216 187 Z M 269 187 L 267 189 L 270 189 Q 271 186 269 187 Z M 277 187 L 275 190 L 277 189 L 277 187 Z M 177 188 L 177 190 L 175 190 L 178 193 L 179 189 L 181 189 L 177 188 Z M 185 188 L 183 189 L 181 192 L 184 191 L 185 192 L 183 195 L 185 195 L 187 192 L 187 195 L 184 198 L 180 196 L 183 203 Q 182 207 188 205 Q 189 208 191 206 L 195 207 L 191 210 Q 190 212 193 211 L 196 216 L 198 216 L 204 211 L 206 213 L 206 216 L 202 223 L 208 226 L 225 219 L 229 216 Q 233 217 232 214 L 227 211 L 222 200 L 208 195 L 208 197 L 206 193 L 201 195 Q 195 196 195 192 L 193 193 L 185 188 Z M 264 188 L 264 190 L 263 189 Q 258 188 260 192 L 266 190 Q 267 187 264 188 Z M 228 189 L 226 191 Q 225 195 230 193 L 231 190 L 228 189 Z M 169 190 L 167 191 L 167 193 L 167 194 L 166 192 L 165 195 L 172 195 L 173 194 Q 175 195 174 192 L 173 192 L 169 190 Z M 224 190 Q 222 193 217 192 Q 214 194 217 195 L 223 194 L 224 192 L 224 190 Z M 118 191 L 118 193 L 120 194 Q 121 190 118 191 Z M 270 191 L 267 193 L 270 193 L 270 191 Z M 104 192 L 104 195 Q 108 196 107 194 L 104 192 Z M 116 192 L 114 194 L 115 196 L 117 195 Q 118 191 116 192 Z M 109 193 Q 108 196 111 195 Q 112 192 109 193 Z M 265 193 L 264 195 L 266 194 L 265 193 Z M 225 194 L 225 199 L 228 200 L 230 197 L 225 194 Z M 262 194 L 259 195 L 258 197 L 262 196 L 262 194 Z M 272 194 L 273 196 Q 274 193 272 194 Z M 122 195 L 123 197 Q 124 194 122 195 Z M 176 195 L 175 198 L 174 196 L 169 199 L 170 201 L 169 206 L 169 226 L 170 227 L 172 247 L 179 235 Q 181 229 178 228 L 180 228 L 184 225 Q 186 226 185 224 L 188 222 L 190 219 L 188 213 L 189 211 L 188 211 L 186 211 L 188 210 L 187 209 Q 188 206 185 207 L 185 209 L 183 208 L 180 201 L 179 203 L 177 204 Q 176 200 179 201 Q 180 198 177 199 L 176 195 Z M 102 196 Q 101 199 104 198 Q 105 195 102 196 Z M 106 196 L 106 199 L 108 200 Q 109 195 106 196 Z M 112 196 Q 111 200 114 199 Q 115 195 112 196 Z M 117 196 L 117 199 Q 121 200 120 198 L 117 196 Z M 319 196 L 318 200 L 319 200 L 319 196 Z M 122 199 L 116 200 L 120 211 L 121 211 L 119 204 Q 118 199 122 201 L 122 199 Z M 105 200 L 103 202 L 105 202 L 106 203 Q 107 199 105 200 Z M 110 200 L 109 205 L 108 203 L 102 213 L 103 214 L 118 214 L 114 203 L 113 203 L 115 212 L 112 212 L 114 211 L 111 203 L 113 202 L 110 200 Z M 121 202 Q 120 208 124 212 L 123 212 L 121 212 L 123 214 L 136 214 L 136 212 L 129 212 L 133 211 L 133 209 Q 130 210 131 208 L 125 202 L 121 202 Z M 319 202 L 319 213 L 320 208 L 319 202 Z M 102 204 L 94 214 Q 95 216 93 215 L 93 216 L 99 215 L 104 207 L 104 205 L 98 214 L 96 214 L 102 206 L 102 204 Z M 250 209 L 253 212 L 254 212 Q 254 209 250 209 Z M 245 214 L 243 218 L 245 219 L 252 220 Q 253 215 251 214 L 249 215 L 245 214 Z M 304 214 L 304 219 L 305 219 Q 307 213 304 214 Z M 319 214 L 318 217 L 319 217 L 319 214 Z M 112 215 L 111 216 L 103 216 Q 101 219 102 228 L 103 231 L 104 232 L 111 232 L 109 230 L 111 229 L 113 232 L 115 227 L 115 224 L 114 226 L 113 224 L 112 226 L 111 225 L 110 227 L 109 226 L 108 229 L 104 223 L 107 219 Q 109 218 108 221 L 110 221 L 112 217 L 112 219 L 114 218 L 116 218 Q 115 222 118 221 L 116 227 L 120 232 L 120 217 L 112 215 Z M 89 216 L 90 218 Q 91 215 89 216 Z M 122 216 L 123 232 L 130 231 L 130 233 L 131 233 L 132 231 L 137 231 L 137 223 L 136 226 L 135 225 L 134 229 Q 129 227 132 226 L 131 223 L 129 226 L 131 230 Q 128 231 129 228 L 126 228 L 126 224 L 124 220 Q 125 217 130 218 L 130 216 L 122 216 Z M 132 216 L 132 219 L 127 219 L 126 221 L 128 220 L 131 221 L 135 219 L 137 220 L 137 218 L 132 216 Z M 240 216 L 230 219 Q 227 221 230 222 L 241 219 L 240 216 Z M 97 217 L 92 218 L 93 221 L 98 219 Q 99 216 97 217 Z M 199 217 L 198 218 Q 194 217 195 220 L 191 223 L 191 224 L 195 224 L 199 219 L 199 217 Z M 257 217 L 256 222 L 258 223 L 257 217 Z M 320 217 L 318 219 L 319 225 L 320 222 L 320 217 Z M 113 219 Q 112 222 115 221 Q 116 218 113 219 Z M 225 220 L 216 225 L 216 226 Q 223 227 225 223 L 225 220 Z M 305 220 L 304 223 L 305 223 L 305 220 Z M 248 221 L 246 223 L 243 222 L 241 223 Q 237 222 238 225 L 250 226 Q 252 231 259 231 L 258 227 Q 256 221 248 221 Z M 108 223 L 107 226 L 108 226 L 108 223 Z M 92 224 L 93 228 L 94 225 L 92 224 Z M 191 224 L 189 228 Q 191 231 192 228 L 191 224 Z M 228 224 L 223 227 L 212 229 Q 209 228 210 231 L 216 230 L 218 230 L 225 229 L 231 225 L 228 224 Z M 233 226 L 230 229 Q 226 228 228 232 L 238 232 L 246 228 L 244 227 L 242 227 L 235 226 L 233 226 Z M 100 228 L 98 230 L 100 230 L 100 228 Z M 116 228 L 115 231 L 117 232 L 116 228 Z M 249 229 L 245 231 Q 241 230 242 233 L 247 234 L 252 233 L 249 229 Z M 93 230 Q 91 233 95 234 L 100 233 Q 94 233 93 230 Z M 226 230 L 215 232 Q 212 231 213 234 L 220 236 Q 225 237 227 234 L 226 230 Z M 308 230 L 308 247 L 309 236 L 309 234 L 308 230 Z M 183 231 L 182 236 Q 181 238 185 237 Q 189 235 185 233 Q 186 230 183 231 Z M 316 232 L 316 252 L 317 244 L 316 242 L 317 239 L 316 232 Z M 332 232 L 331 234 L 322 241 Q 325 244 323 253 L 324 254 L 324 272 L 325 273 L 324 277 L 327 277 L 332 273 L 332 232 Z M 123 233 L 121 236 L 123 235 L 123 233 Z M 143 233 Q 140 237 144 236 L 143 233 Z M 145 233 Q 144 236 147 235 Q 148 232 145 233 Z M 156 233 L 154 235 L 156 235 L 156 233 Z M 190 233 L 190 236 L 186 239 L 187 241 Q 185 244 184 240 L 182 247 L 178 253 L 178 270 L 179 271 L 179 280 L 177 290 Q 179 295 175 294 Q 173 296 172 294 L 174 286 L 174 279 L 176 276 L 174 273 Q 173 268 175 267 L 175 264 L 169 275 L 166 278 L 161 280 Q 157 279 159 285 L 161 284 L 165 285 L 165 283 L 168 282 Q 172 284 169 286 L 171 291 Q 173 292 171 293 Q 168 292 169 295 L 173 296 L 190 294 L 192 294 L 194 293 L 196 294 L 200 292 L 199 289 L 200 285 L 209 277 L 206 276 L 207 274 L 207 266 L 209 255 L 212 253 L 210 260 L 210 271 L 209 272 L 209 273 L 213 273 L 211 279 L 208 281 Q 203 282 204 289 L 208 292 L 205 293 L 208 295 Q 207 297 210 296 L 210 297 Q 204 298 203 295 L 205 292 L 204 291 L 202 294 Q 201 296 197 295 L 195 295 L 194 296 L 184 296 L 175 298 L 164 298 L 163 299 L 155 297 L 154 300 L 157 301 L 156 305 L 158 304 L 160 306 L 159 308 L 161 307 Q 160 304 164 305 Q 166 306 165 311 L 161 312 L 159 311 L 158 314 L 161 315 Q 164 316 163 313 L 170 311 L 171 312 Q 169 306 174 307 L 175 310 L 182 309 L 184 314 L 189 315 L 189 311 L 194 311 L 200 314 Q 209 315 213 311 Q 212 308 216 309 L 217 305 L 220 306 L 220 305 L 217 303 L 216 295 L 215 297 L 213 298 L 214 296 Q 215 293 212 294 L 210 295 L 211 292 L 213 293 Q 214 290 212 291 L 209 291 L 213 285 L 216 286 L 216 281 L 219 278 L 221 272 L 220 272 Q 217 273 218 270 L 221 269 Q 223 270 222 268 L 219 266 L 221 262 L 227 264 L 225 261 L 227 251 L 230 249 L 231 245 L 231 243 L 234 247 L 234 245 L 230 240 L 227 240 Q 224 243 224 250 L 221 254 L 221 257 L 216 265 Q 217 270 215 271 L 212 271 L 212 261 L 216 257 L 217 258 L 225 239 L 218 239 L 217 238 L 205 238 L 200 242 Q 193 248 191 256 L 184 255 L 185 260 L 187 259 Q 190 258 189 261 L 190 262 L 185 261 L 183 264 L 184 272 L 185 272 Q 184 266 188 268 L 189 274 L 188 278 L 189 280 Q 190 284 188 286 Q 189 292 187 292 L 185 287 L 182 293 L 178 293 L 180 290 L 179 288 L 181 283 L 181 265 L 180 264 Q 179 256 184 253 L 187 254 L 191 238 Q 192 234 190 233 Z M 257 233 L 259 235 Q 260 232 257 233 Z M 204 234 L 204 235 L 206 235 L 204 234 Z M 77 235 L 77 237 L 79 238 Q 80 234 77 235 Z M 83 235 Q 80 237 83 238 Q 86 237 83 235 Z M 91 235 L 89 239 L 89 240 L 86 241 L 86 249 L 98 249 L 102 246 L 107 249 L 106 245 L 103 246 L 102 243 L 103 241 L 100 240 L 91 235 Z M 199 235 L 194 237 L 199 237 L 199 235 Z M 209 235 L 207 237 L 209 237 L 209 235 Z M 230 235 L 228 238 L 236 239 L 238 236 L 230 235 Z M 242 235 L 238 243 L 242 244 L 244 246 Q 243 241 249 243 L 251 245 L 249 237 L 242 235 Z M 250 235 Q 248 238 251 237 L 250 235 Z M 104 236 L 106 239 L 106 238 L 104 236 Z M 146 236 L 147 238 L 153 238 L 153 236 L 146 236 Z M 203 236 L 202 238 L 194 239 Q 195 243 192 245 L 194 247 L 201 241 L 204 238 L 203 236 Z M 253 237 L 253 240 L 256 241 L 258 241 L 253 237 Z M 264 238 Q 262 241 265 240 L 264 238 Z M 78 239 L 77 241 L 77 242 L 81 241 Q 82 243 83 241 L 78 239 Z M 112 239 L 109 241 L 115 244 L 121 242 Q 123 241 122 244 L 124 243 Q 128 244 126 240 L 125 240 L 123 239 L 120 240 L 118 240 L 112 239 Z M 148 239 L 147 247 L 148 247 L 148 239 Z M 254 242 L 254 244 L 258 246 L 260 246 L 254 242 Z M 118 245 L 114 246 Q 113 249 117 248 Q 118 246 120 249 Q 122 250 121 247 L 118 245 Z M 124 245 L 123 248 L 127 248 L 128 246 L 124 245 Z M 238 245 L 239 247 Q 240 244 238 245 Z M 249 245 L 248 247 Q 249 251 256 250 L 258 250 L 265 252 L 267 252 L 264 249 L 258 249 L 249 245 Z M 81 246 L 80 249 L 81 249 L 81 246 Z M 318 246 L 319 271 L 319 273 L 318 276 L 318 278 L 319 280 L 318 284 L 319 287 L 318 290 Q 317 292 320 291 L 320 260 L 321 259 L 319 254 L 319 252 L 320 247 L 318 246 Z M 131 247 L 129 249 L 130 260 Q 132 259 131 255 L 131 253 L 132 251 L 131 247 Z M 244 248 Q 242 252 245 253 L 245 252 Q 248 250 244 248 Z M 82 249 L 81 251 Q 79 252 82 253 L 97 253 L 82 252 L 82 249 Z M 100 249 Q 102 251 101 257 L 103 258 L 102 254 L 103 251 L 100 249 Z M 235 249 L 236 256 L 234 255 L 229 263 L 232 265 Q 234 270 229 268 Q 228 271 231 270 L 232 273 Q 234 278 231 277 L 228 273 Q 228 284 221 288 L 224 289 L 223 294 Q 224 296 220 295 L 220 293 L 219 302 L 225 305 L 226 308 L 229 309 L 237 296 Q 236 291 238 290 L 237 288 L 238 285 L 238 266 L 240 263 Q 241 255 237 252 Q 238 248 235 249 Z M 111 250 L 109 252 L 110 254 L 111 254 L 111 250 Z M 138 250 L 138 253 L 140 252 Q 142 251 141 254 L 143 253 Q 150 254 149 252 L 147 252 L 147 250 L 138 250 Z M 105 251 L 105 255 L 107 254 Q 108 250 105 251 Z M 123 251 L 123 253 L 126 252 L 123 251 Z M 152 252 L 150 254 L 152 254 L 152 252 Z M 253 252 L 259 264 Q 260 266 264 265 L 269 258 L 269 255 L 265 255 L 259 252 L 253 252 Z M 311 253 L 310 257 L 312 257 L 311 253 Z M 81 254 L 81 256 L 97 256 L 98 254 L 88 254 L 87 255 Q 82 256 81 254 Z M 229 254 L 227 260 L 229 259 L 229 254 Z M 109 255 Q 104 258 109 260 L 112 258 Q 114 261 113 267 L 116 266 Q 118 267 117 265 L 116 265 L 114 265 L 114 258 L 109 255 Z M 124 255 L 123 258 L 124 260 L 126 259 Q 128 260 127 257 L 124 255 Z M 305 256 L 304 263 L 305 263 L 305 256 Z M 116 257 L 116 259 L 118 258 L 118 260 L 119 260 Q 120 255 116 257 Z M 245 257 L 245 262 L 249 265 L 248 259 L 245 257 Z M 104 258 L 103 260 L 106 261 L 104 258 Z M 252 258 L 252 260 Q 251 263 254 262 L 253 260 Q 254 257 252 258 Z M 310 258 L 311 264 L 310 267 L 311 272 L 312 272 L 312 259 L 310 258 Z M 316 258 L 315 264 L 316 264 L 316 258 Z M 122 259 L 121 267 L 123 266 L 122 264 L 125 262 L 122 259 Z M 246 266 L 245 270 L 250 274 L 250 270 L 246 266 Z M 255 267 L 255 275 L 258 276 L 255 267 Z M 316 267 L 314 273 L 315 275 L 316 275 L 316 267 Z M 116 268 L 113 269 L 113 271 Q 114 273 111 272 Q 109 268 107 272 L 109 274 L 127 273 Q 129 267 124 269 L 123 272 Q 120 271 122 270 L 116 268 Z M 258 268 L 260 272 L 260 270 L 258 268 Z M 308 270 L 307 277 L 308 277 L 308 270 Z M 265 272 L 264 276 L 261 278 L 262 280 L 265 279 L 265 272 Z M 222 274 L 219 281 L 219 285 Q 218 287 221 286 L 223 283 Q 221 276 224 275 L 222 274 Z M 246 274 L 246 281 L 250 289 L 249 291 L 250 295 L 251 295 L 251 281 L 249 276 L 246 274 Z M 315 276 L 314 278 L 315 281 Q 317 287 314 289 L 316 290 L 316 278 L 315 276 Z M 255 278 L 256 288 L 258 289 Q 260 283 257 282 Q 258 277 255 278 Z M 308 278 L 307 290 L 308 290 L 308 278 Z M 114 279 L 112 281 L 115 282 Q 116 278 114 279 Z M 330 279 L 326 281 L 325 283 L 331 281 Q 332 278 330 279 Z M 122 280 L 123 284 L 125 281 L 122 280 Z M 186 280 L 185 283 L 186 283 L 186 280 Z M 262 282 Q 261 285 264 284 Q 265 281 262 282 Z M 115 284 L 113 290 L 111 292 L 112 293 L 115 288 L 115 284 Z M 117 285 Q 116 288 119 287 Q 120 284 117 285 Z M 125 285 L 124 287 L 128 289 Q 130 290 129 288 L 125 285 Z M 312 285 L 311 294 L 312 294 L 312 285 Z M 329 285 L 326 287 L 324 288 L 324 320 L 324 322 L 323 327 L 324 329 Q 322 334 323 344 L 322 345 L 322 368 L 323 369 Q 325 375 322 377 L 323 379 L 322 383 L 323 391 L 327 392 L 328 388 L 328 386 L 332 386 L 332 344 L 331 343 L 331 332 L 332 331 L 331 329 L 331 286 L 329 285 Z M 109 286 Q 108 289 111 288 Q 112 285 109 286 Z M 148 286 L 148 288 L 142 288 L 142 290 L 152 290 L 153 291 L 156 290 L 160 295 L 162 291 L 167 293 L 167 288 L 163 288 Q 164 285 161 286 L 158 287 L 148 286 Z M 100 288 L 100 290 L 102 289 L 100 288 Z M 106 288 L 103 292 L 104 293 L 107 289 L 106 288 Z M 212 288 L 212 290 L 214 289 L 212 288 Z M 246 288 L 246 302 L 249 303 L 251 305 L 251 301 L 246 294 L 246 288 Z M 95 289 L 93 293 L 94 295 L 95 293 L 95 289 Z M 121 289 Q 118 293 122 292 L 121 289 Z M 129 291 L 129 292 L 132 292 L 129 291 Z M 137 291 L 137 292 L 140 294 L 138 294 L 136 293 L 126 295 L 126 296 L 130 295 L 137 297 L 136 299 L 132 298 L 127 299 Q 128 301 133 300 L 134 302 Q 129 303 128 301 L 123 302 Q 120 301 121 304 L 123 303 L 131 303 L 138 307 L 147 307 Q 149 306 148 302 L 151 298 L 141 291 L 137 291 Z M 255 291 L 255 307 L 257 308 Q 260 309 258 304 L 258 302 L 259 299 L 258 297 L 259 295 L 258 293 Q 259 289 255 291 Z M 119 292 L 118 295 L 120 295 L 119 292 Z M 125 292 L 123 293 L 123 294 L 128 293 L 125 292 Z M 320 292 L 318 295 L 319 296 L 319 335 L 318 340 Q 317 345 319 347 L 318 349 L 318 371 L 318 373 L 317 381 L 317 383 L 318 387 L 317 389 L 319 394 L 319 350 L 320 349 L 320 292 Z M 98 294 L 96 297 L 97 299 L 98 297 L 98 294 Z M 93 295 L 92 299 L 93 299 L 93 295 Z M 312 295 L 311 299 L 312 299 L 312 295 Z M 113 296 L 111 299 L 114 297 L 113 296 Z M 316 296 L 315 299 L 316 299 L 316 296 Z M 101 297 L 99 301 Q 100 304 98 303 L 96 299 L 95 303 L 93 304 L 96 305 L 99 304 L 98 306 L 103 308 Q 111 309 115 305 Q 118 304 115 302 L 111 304 Q 107 305 106 303 L 108 299 L 108 297 L 104 305 L 100 304 L 101 301 L 101 297 Z M 116 297 L 114 300 L 116 299 L 116 297 Z M 123 298 L 118 300 L 124 300 Q 125 297 123 298 Z M 309 301 L 308 309 L 308 311 L 308 331 L 307 332 L 308 338 L 309 334 L 309 301 Z M 246 305 L 244 313 Q 245 315 247 313 L 249 314 L 251 308 L 246 305 Z M 316 305 L 315 314 L 316 314 L 316 305 Z M 139 308 L 137 310 L 134 310 L 124 315 Q 116 314 113 317 L 110 316 L 108 316 Q 102 315 101 317 L 91 315 L 89 315 L 81 312 L 77 312 L 75 312 L 73 311 L 71 311 L 66 313 L 64 313 L 54 316 L 53 318 L 57 316 L 60 316 L 67 322 L 73 321 Q 74 317 80 317 L 82 317 L 94 317 L 97 320 L 107 322 L 119 321 L 120 320 L 123 321 L 128 320 L 133 316 L 145 312 L 148 310 L 140 309 L 139 308 Z M 232 309 L 222 314 L 221 316 L 232 311 L 232 309 Z M 262 309 Q 260 312 263 311 L 262 309 Z M 255 311 L 254 317 Q 253 320 256 319 L 257 315 Q 258 310 255 311 Z M 149 313 Q 144 318 136 318 L 131 322 L 112 324 L 111 325 L 99 324 L 91 320 Q 84 318 83 321 L 81 320 L 71 325 Q 63 326 62 322 L 58 323 L 53 322 L 49 333 L 49 340 L 51 347 Q 52 353 49 355 L 49 369 L 50 370 L 49 372 L 51 392 L 52 394 Q 55 395 54 392 L 54 390 Q 53 386 58 388 L 59 391 L 60 391 Q 62 384 59 383 L 60 380 L 60 372 L 59 371 L 60 369 L 60 367 Q 58 360 59 350 Q 61 345 63 349 L 62 353 L 63 381 L 64 382 L 63 388 L 63 390 L 64 394 Q 67 395 66 392 L 71 391 L 70 389 L 72 379 L 71 377 L 72 374 L 71 371 L 74 356 L 80 347 Q 87 339 100 338 L 102 338 L 109 337 L 111 337 L 124 330 L 126 331 L 128 329 L 145 324 L 147 322 L 151 322 L 155 319 L 154 315 L 149 313 Z M 168 314 L 162 317 Q 163 320 159 318 Q 158 322 163 320 Q 164 323 161 322 Q 160 326 167 324 L 166 326 Q 160 328 159 325 L 149 327 L 147 329 Q 144 330 145 327 L 152 326 L 154 324 L 160 324 L 159 321 L 153 322 L 151 324 L 134 329 Q 133 332 136 331 L 136 334 Q 144 334 149 338 Q 151 337 150 340 Q 145 341 144 337 L 135 335 L 120 337 L 117 339 L 112 338 L 106 340 L 96 341 L 87 345 L 81 352 Q 83 357 78 355 L 76 363 L 77 365 L 77 373 L 76 374 L 77 396 L 79 404 L 89 423 Q 88 426 92 424 L 92 426 L 99 429 L 100 427 L 104 425 L 105 431 Q 104 434 107 433 L 109 435 Q 106 429 106 421 L 104 424 L 102 417 Q 101 410 104 407 L 104 399 L 102 391 L 103 389 L 93 366 L 89 362 L 90 360 L 96 366 Q 95 368 98 367 L 100 369 L 98 366 L 100 363 L 105 370 L 105 373 L 111 381 L 112 381 L 110 378 Q 108 376 111 375 L 113 376 L 118 369 L 118 367 L 125 361 L 128 361 L 131 363 L 130 366 L 127 364 Q 125 367 122 366 L 117 375 L 120 373 L 121 376 L 118 383 L 119 386 L 118 390 Q 117 395 119 397 L 117 407 L 117 409 L 117 418 L 121 429 L 125 432 L 121 420 L 121 411 L 120 410 L 121 406 Q 119 404 122 403 Q 124 402 123 409 L 123 413 L 124 418 L 127 422 L 127 425 L 129 424 Q 128 421 131 422 L 132 419 L 143 404 L 146 396 Q 145 386 147 382 Q 150 381 149 384 L 149 386 L 150 390 L 148 401 L 143 411 L 143 413 L 141 419 L 141 421 L 138 426 L 140 431 Q 139 425 142 424 L 142 420 L 145 415 L 149 413 L 151 407 L 151 394 L 152 393 L 151 390 L 153 379 Q 156 378 155 382 Q 158 383 157 380 L 167 376 L 174 371 L 181 371 L 192 367 L 193 363 L 183 357 L 184 355 L 192 359 L 196 363 L 198 363 L 200 359 L 196 356 L 195 359 Q 192 360 193 358 Q 189 349 176 349 L 174 349 L 172 350 L 168 349 L 133 360 L 119 359 L 104 354 L 86 352 L 86 351 L 101 352 L 121 358 L 130 358 L 130 356 L 152 352 L 153 349 L 161 346 L 165 347 L 161 348 L 161 349 L 168 347 L 180 347 L 191 352 L 194 355 Q 193 352 196 353 L 202 360 L 207 353 Q 199 347 188 343 L 179 343 L 172 345 L 170 344 L 167 345 L 164 345 L 165 342 L 150 349 L 134 352 Q 129 353 128 350 L 118 349 L 114 347 L 105 347 L 104 348 Q 101 349 102 346 L 105 345 L 113 345 L 116 347 L 128 348 L 132 350 L 142 349 L 152 346 L 173 332 L 177 326 L 181 327 L 200 321 L 200 320 L 193 320 Q 189 324 182 324 L 180 324 L 170 323 L 171 321 L 174 322 L 176 321 L 178 321 L 181 322 L 185 322 L 193 318 Q 201 320 205 317 L 196 316 L 195 315 L 192 317 L 183 315 L 177 316 Q 175 312 173 316 L 168 314 Z M 313 314 L 312 323 L 311 324 L 312 326 L 311 348 Q 314 349 313 347 L 312 344 L 313 342 L 313 330 L 314 329 L 313 314 Z M 212 315 L 211 316 Q 208 315 209 318 Q 213 319 214 317 L 212 315 Z M 218 315 L 216 317 L 218 317 L 218 315 Z M 230 315 L 228 316 L 228 317 L 231 316 L 230 315 Z M 261 315 L 260 320 L 261 320 L 261 315 Z M 245 316 L 243 318 L 244 324 L 250 322 Q 253 313 245 316 Z M 222 318 L 221 319 L 213 319 L 211 321 L 223 324 Q 225 323 224 326 L 210 322 L 207 324 L 198 324 L 185 328 Q 183 332 178 331 L 168 339 L 166 342 L 184 334 Q 190 335 194 333 L 196 333 L 208 337 L 217 344 L 220 337 L 215 333 Q 212 334 213 332 L 211 330 L 208 329 Q 205 330 206 328 L 208 328 L 210 327 L 217 330 L 219 334 L 222 335 L 223 331 L 218 329 L 216 326 L 225 330 L 228 322 L 229 320 L 221 322 L 223 319 L 222 318 Z M 253 321 L 254 328 L 255 325 Q 256 320 253 321 Z M 305 324 L 304 327 L 305 327 L 305 324 Z M 247 326 L 242 330 L 246 334 L 248 330 Q 249 325 247 326 Z M 305 328 L 304 336 L 305 336 L 305 328 Z M 132 330 L 128 331 Q 127 335 134 333 L 132 330 Z M 237 330 L 235 333 Q 234 336 237 335 L 237 330 Z M 316 330 L 315 339 L 316 339 L 316 330 Z M 250 333 L 249 337 L 251 337 L 252 338 Q 254 332 250 333 Z M 242 334 L 240 340 L 241 345 L 244 335 L 242 334 Z M 187 335 L 172 341 L 172 342 L 179 340 Q 196 341 206 351 L 209 353 L 210 350 L 201 343 L 191 341 L 192 339 L 206 344 L 212 350 L 214 347 L 206 338 L 201 336 L 189 336 L 187 335 Z M 236 337 L 234 339 Q 233 344 237 342 Q 238 338 236 337 Z M 278 338 Q 273 341 273 349 L 272 346 Q 267 347 268 352 L 261 358 Q 258 357 259 360 L 256 362 Q 253 361 254 364 L 253 363 L 251 367 L 250 365 L 247 370 L 246 368 L 244 371 L 245 373 L 245 378 L 244 372 L 242 375 Q 243 378 240 377 Q 238 385 232 390 L 232 392 L 232 394 L 229 395 L 232 399 L 250 392 Q 252 391 250 390 L 251 388 L 251 390 L 256 389 L 264 384 L 265 380 L 265 382 L 268 381 Q 267 378 270 379 L 271 377 L 269 376 Q 268 373 271 374 L 272 376 L 272 373 L 273 373 Q 272 375 275 374 L 289 358 L 297 343 L 290 341 L 290 343 L 289 340 L 280 338 L 278 338 Z M 305 338 L 304 341 L 305 341 L 305 338 Z M 308 339 L 307 345 L 308 345 L 308 339 Z M 249 340 L 246 344 Q 247 346 251 345 L 251 340 L 249 340 Z M 316 340 L 315 357 L 316 357 L 316 340 Z M 227 342 L 225 345 L 227 344 L 227 342 Z M 304 342 L 303 358 L 304 358 L 304 342 Z M 235 344 L 232 349 Q 231 353 235 351 L 236 347 L 235 344 Z M 309 345 L 307 347 L 308 350 L 309 347 L 309 345 Z M 246 346 L 243 352 L 248 354 L 249 347 L 246 346 Z M 221 351 L 218 355 L 221 353 L 221 351 Z M 231 353 L 228 358 Q 233 359 234 357 Q 236 351 231 353 Z M 217 355 L 214 358 Q 213 360 216 359 L 218 356 L 217 355 Z M 241 355 L 239 361 L 240 363 Q 238 368 242 367 L 246 359 L 245 357 L 241 355 Z M 293 358 L 292 368 L 293 368 L 293 358 Z M 300 358 L 298 366 L 300 366 L 300 358 Z M 213 359 L 207 362 L 208 364 L 214 360 L 213 359 Z M 227 360 L 220 363 L 224 365 L 228 364 L 230 365 Q 233 366 231 361 L 230 361 L 227 360 Z M 296 360 L 295 368 L 296 368 L 296 360 Z M 316 361 L 315 364 L 316 364 L 316 361 Z M 312 363 L 311 394 L 312 394 L 312 363 Z M 216 365 L 212 368 L 220 373 Q 222 371 221 366 L 216 365 Z M 199 366 L 199 367 L 201 367 L 199 366 Z M 237 366 L 235 369 Q 236 371 233 370 L 232 374 Q 233 376 238 375 L 240 372 Q 241 368 239 369 L 237 366 Z M 226 367 L 224 373 L 225 376 L 229 370 Q 230 365 226 367 Z M 286 367 L 284 372 L 285 382 L 285 373 L 286 372 L 286 367 Z M 193 368 L 194 370 L 196 369 L 193 368 Z M 289 369 L 288 372 L 289 372 L 289 369 Z M 292 369 L 290 376 L 292 375 L 292 369 Z M 206 370 L 194 373 Q 190 372 191 375 Q 200 374 205 379 Q 212 380 216 377 L 217 375 Q 215 368 206 370 Z M 102 371 L 101 373 L 103 374 L 102 371 Z M 282 372 L 281 374 L 280 377 L 281 379 L 280 384 L 282 383 L 282 372 Z M 305 374 L 302 378 Q 303 381 300 380 L 300 377 L 298 381 L 303 381 L 305 376 L 305 374 Z M 231 375 L 228 378 L 235 379 L 235 377 L 231 375 Z M 29 376 Q 25 379 26 386 L 29 387 L 31 384 L 34 385 L 35 386 L 33 379 L 29 376 Z M 178 377 L 182 388 L 190 392 L 191 392 L 182 379 L 179 379 Q 180 376 178 377 Z M 185 377 L 191 388 L 200 391 L 202 390 L 208 392 L 215 390 L 218 385 L 211 387 L 197 382 L 191 378 L 185 377 Z M 278 377 L 276 387 L 278 386 L 278 377 Z M 315 377 L 314 381 L 315 381 L 315 377 Z M 165 378 L 165 381 Q 173 381 177 384 L 176 381 L 173 378 L 169 379 L 165 378 Z M 196 378 Q 196 381 201 382 L 203 382 L 202 380 Q 201 377 196 378 Z M 221 378 L 214 381 L 215 383 Q 220 383 222 379 L 221 378 Z M 274 379 L 272 381 L 273 385 L 272 388 Q 271 390 274 389 L 274 379 Z M 231 380 L 228 382 L 225 381 L 221 390 L 227 391 L 233 382 L 231 380 Z M 305 380 L 303 383 L 305 382 L 305 380 Z M 108 381 L 107 384 L 108 384 L 108 381 Z M 206 381 L 208 384 L 211 384 Q 210 380 206 381 Z M 297 382 L 296 384 L 303 387 L 303 386 L 301 384 L 297 382 Z M 315 382 L 314 385 L 315 385 L 315 382 Z M 109 384 L 109 389 L 110 389 Q 111 385 109 384 Z M 307 384 Q 304 389 308 388 L 307 384 Z M 164 385 L 160 387 L 157 386 L 155 390 L 164 391 L 173 396 L 183 395 Q 184 393 186 396 Q 188 397 187 395 L 184 392 Q 181 393 182 391 Q 180 386 179 389 Q 174 384 164 385 Z M 115 386 L 107 406 Q 108 410 106 412 L 107 413 L 110 406 L 112 415 L 111 417 L 112 426 L 120 439 L 123 438 Q 124 435 121 436 L 121 434 L 115 426 L 114 422 L 115 419 L 113 415 L 114 400 L 115 399 L 115 386 Z M 270 387 L 269 392 L 270 392 L 270 387 Z M 266 388 L 265 393 L 266 393 L 266 388 Z M 332 388 L 330 393 L 330 395 L 323 395 L 324 400 L 326 399 L 328 399 L 330 400 L 333 399 L 332 398 L 332 388 Z M 12 390 L 10 392 L 13 392 L 12 390 Z M 14 390 L 15 392 L 19 392 Q 18 389 14 390 Z M 286 390 L 286 392 L 285 394 L 288 392 Q 289 389 286 390 Z M 220 391 L 214 393 L 216 401 L 216 399 L 220 397 Q 219 394 223 395 L 223 393 L 220 391 Z M 257 392 L 258 395 L 257 398 L 259 398 L 259 392 L 257 392 Z M 281 392 Q 279 395 282 394 L 281 392 Z M 157 393 L 155 396 Q 163 396 168 401 Q 170 400 169 403 L 179 410 L 181 409 L 182 405 Q 176 403 173 398 L 164 394 L 162 395 L 157 393 Z M 190 393 L 192 403 L 199 407 L 200 410 L 200 408 L 204 405 L 204 401 L 202 395 L 193 395 L 190 393 Z M 263 393 L 261 396 L 263 396 L 263 393 Z M 290 394 Q 287 395 289 397 L 288 399 L 290 399 L 291 396 Q 292 393 290 394 Z M 305 394 L 303 397 L 305 396 L 305 394 Z M 46 395 L 44 397 Q 51 396 54 399 L 61 399 L 57 396 L 55 397 L 50 395 L 46 395 Z M 70 395 L 67 398 L 70 398 L 70 395 Z M 205 395 L 207 405 L 212 401 L 211 398 L 211 395 L 205 395 Z M 255 395 L 252 400 L 255 400 L 255 395 Z M 278 395 L 278 397 L 280 396 L 278 395 Z M 312 395 L 311 400 L 312 400 L 312 395 Z M 317 395 L 318 405 L 319 402 Q 321 394 317 395 Z M 38 396 L 39 398 L 41 397 L 38 396 Z M 273 396 L 273 398 L 275 399 Q 276 395 273 396 Z M 181 397 L 180 398 Q 176 397 177 400 L 188 407 L 190 407 L 189 401 Q 186 397 181 397 Z M 292 397 L 290 402 L 292 402 Q 293 404 291 403 L 292 405 L 295 405 L 293 403 Q 294 398 292 397 Z M 303 397 L 301 399 L 302 401 L 303 401 Q 302 398 305 399 L 305 402 Q 301 400 302 405 L 303 405 Q 302 402 306 403 L 306 398 L 305 397 L 303 397 Z M 11 398 L 10 400 L 14 399 L 11 398 Z M 65 398 L 62 400 L 66 400 Q 67 397 65 398 Z M 245 398 L 246 403 L 247 400 Q 248 397 245 398 Z M 251 398 L 249 400 Q 248 403 251 402 L 252 399 L 251 398 Z M 30 399 L 30 401 L 35 401 Q 34 398 30 399 Z M 156 399 L 155 404 L 158 404 L 163 408 L 166 415 Q 168 418 173 418 L 173 416 L 176 412 L 173 410 L 163 400 L 156 399 Z M 269 399 L 269 401 L 271 400 L 269 399 Z M 241 400 Q 239 405 243 404 Q 245 399 241 400 Z M 272 400 L 272 402 L 274 401 L 272 400 Z M 280 400 L 278 403 Q 277 405 280 404 L 280 400 Z M 14 401 L 8 404 L 10 405 L 13 404 L 22 404 L 30 406 L 36 410 L 39 410 L 42 411 Q 43 409 49 410 L 52 408 L 66 408 L 68 411 Q 70 410 69 405 L 56 406 L 55 407 Q 49 409 48 406 L 46 407 L 42 405 L 29 404 L 23 401 L 18 402 L 14 401 Z M 38 401 L 38 402 L 40 402 L 38 401 Z M 42 401 L 42 402 Q 46 401 48 403 L 53 403 L 42 401 Z M 224 401 L 221 404 Q 222 406 226 405 Q 227 407 228 405 L 226 404 Q 223 403 225 402 L 224 401 Z M 314 401 L 313 404 L 315 404 L 314 401 Z M 217 402 L 213 404 L 210 408 L 213 408 L 217 404 L 217 402 Z M 323 402 L 323 404 L 327 403 L 329 404 L 332 404 L 331 402 L 323 402 Z M 238 403 L 237 412 L 238 412 L 238 403 Z M 274 403 L 273 406 L 274 406 L 274 403 Z M 301 405 L 300 406 Q 297 405 298 409 L 299 409 Q 298 406 301 407 L 301 405 Z M 304 405 L 302 408 L 304 408 L 304 405 Z M 315 405 L 314 412 L 315 412 L 315 405 Z M 75 406 L 74 417 L 75 418 Q 74 420 77 419 L 81 427 L 82 425 L 77 417 L 75 406 Z M 325 406 L 325 407 L 330 407 L 325 406 Z M 12 407 L 9 408 L 10 417 L 11 416 L 24 416 L 26 416 L 26 414 Q 22 415 20 412 L 14 413 L 12 410 L 17 409 L 21 409 L 26 412 L 37 415 L 48 415 L 61 412 Q 65 413 64 410 L 57 410 L 56 411 L 54 410 L 49 412 L 46 413 L 34 413 L 20 407 Q 15 406 14 408 L 12 407 Z M 154 407 L 152 415 L 157 417 L 164 418 L 161 412 L 157 407 L 154 407 Z M 288 407 Q 288 410 286 409 L 286 410 Q 289 409 288 413 L 284 415 L 284 413 L 281 418 L 283 420 L 287 419 Q 286 414 290 412 Q 291 408 288 409 L 288 407 Z M 318 407 L 317 411 L 319 411 L 318 407 Z M 204 408 L 202 410 L 209 413 L 210 411 L 204 408 Z M 229 408 L 228 411 L 230 411 L 229 408 Z M 282 408 L 280 410 L 282 410 L 282 408 Z M 186 409 L 185 410 Q 182 409 183 412 L 190 412 L 191 411 L 201 419 L 206 420 Q 209 421 208 418 L 211 417 L 206 416 L 193 409 L 188 410 L 186 409 Z M 235 409 L 234 412 L 235 412 L 235 409 Z M 299 409 L 298 416 L 300 418 L 301 411 L 301 414 L 302 414 Q 304 407 299 409 Z M 328 409 L 327 410 Q 321 408 323 414 L 326 413 Q 333 415 332 411 L 328 409 Z M 271 410 L 272 416 Q 271 418 274 417 L 273 416 L 274 414 L 275 416 L 275 413 L 271 410 Z M 280 410 L 279 412 Q 277 413 280 414 L 281 414 L 280 410 Z M 298 410 L 296 412 L 297 414 L 298 414 L 298 410 Z M 212 411 L 210 413 L 212 413 L 212 411 Z M 256 411 L 251 413 Q 246 414 247 420 L 248 420 Q 247 417 250 418 L 249 417 L 252 416 Q 257 415 258 418 L 260 413 L 256 411 Z M 267 411 Q 264 413 265 418 L 264 416 L 261 418 L 262 420 L 263 418 L 264 421 Q 263 424 266 423 L 265 421 L 268 422 L 266 419 L 268 419 L 267 411 Z M 219 412 L 219 413 L 222 413 L 219 412 Z M 228 412 L 228 414 L 230 413 L 228 412 Z M 296 412 L 296 423 L 297 421 L 296 412 Z M 312 412 L 310 415 L 311 441 L 312 441 L 312 412 Z M 68 413 L 65 415 L 68 416 L 68 413 Z M 180 413 L 176 418 L 182 419 L 184 416 L 180 413 Z M 223 413 Q 220 414 222 416 L 221 418 L 222 420 L 223 418 L 223 413 Z M 238 413 L 237 418 L 238 418 L 238 413 Z M 277 413 L 275 417 L 277 417 L 277 413 Z M 140 414 L 130 427 Q 129 430 132 429 L 140 416 L 140 414 Z M 189 414 Q 183 417 183 423 L 197 421 L 189 414 Z M 327 415 L 326 416 Q 321 415 323 419 L 326 418 L 331 419 Q 334 420 332 416 L 327 415 Z M 57 416 Q 56 419 59 418 L 61 418 L 64 423 L 58 427 L 53 428 L 38 428 L 35 427 L 33 428 L 28 427 L 25 426 L 16 427 L 11 429 L 9 430 L 9 435 L 24 431 L 35 431 L 38 432 L 57 431 L 65 427 Q 68 426 66 420 L 62 417 L 60 417 L 57 416 Z M 229 416 L 228 421 L 228 423 L 230 424 Q 231 417 229 416 Z M 235 416 L 234 432 L 236 431 L 235 416 Z M 293 416 L 289 421 L 292 420 L 293 418 L 293 416 Z M 35 417 L 35 418 L 42 419 L 44 419 L 47 420 L 49 420 L 56 418 L 35 417 Z M 19 418 L 11 420 L 9 421 L 9 426 L 17 424 L 29 424 L 30 425 L 48 426 L 50 426 L 57 424 L 59 421 L 43 423 L 41 423 L 39 421 Q 33 422 31 419 L 24 419 L 22 419 L 19 418 Z M 147 418 L 144 421 Q 145 425 143 427 L 146 433 L 148 420 Q 149 417 147 418 Z M 151 418 L 150 426 L 154 427 L 159 426 L 160 427 Q 161 424 159 425 L 154 420 L 151 418 Z M 159 419 L 158 421 L 167 426 L 170 426 L 171 422 Q 170 419 169 421 L 159 419 Z M 270 419 L 270 426 L 271 422 L 271 424 L 273 423 L 270 421 L 270 419 Z M 318 419 L 317 427 L 318 427 L 318 419 Z M 250 420 L 248 428 Q 247 430 246 428 L 244 432 L 244 434 L 245 435 L 249 431 L 248 430 L 250 424 L 254 422 L 250 420 Z M 255 420 L 256 422 L 257 422 L 255 420 Z M 175 421 L 174 425 L 180 424 L 180 421 L 175 421 Z M 323 421 L 323 424 L 325 423 Q 330 422 332 424 L 332 421 L 323 421 Z M 202 422 L 201 425 L 198 423 L 191 426 L 199 429 Q 204 428 206 430 L 207 423 L 206 423 L 202 422 Z M 244 422 L 244 426 L 246 425 Q 247 421 244 422 Z M 275 422 Q 273 425 276 424 L 275 422 Z M 87 423 L 86 425 L 84 426 Q 87 426 86 431 Q 88 436 96 437 L 98 437 L 105 437 L 102 430 L 101 433 L 87 423 Z M 267 423 L 267 425 L 266 424 L 264 428 L 263 424 L 262 431 L 263 431 Q 262 428 265 429 L 266 432 L 266 428 L 267 428 Q 265 432 269 431 L 268 430 Q 269 422 267 423 Z M 282 423 L 281 425 L 280 424 Q 277 425 278 430 L 280 429 L 279 427 L 281 427 Q 285 425 282 423 Z M 111 424 L 111 431 L 112 431 L 111 424 Z M 274 424 L 273 431 L 274 431 L 274 424 Z M 277 424 L 275 426 L 276 428 L 277 428 L 277 424 Z M 74 425 L 74 429 L 76 429 L 79 437 L 80 437 L 80 434 L 76 428 Q 77 424 74 425 Z M 254 425 L 252 427 L 253 431 L 255 428 Q 258 429 257 427 L 254 425 Z M 291 425 L 290 429 L 291 429 L 291 425 Z M 183 426 L 184 433 Q 191 434 195 432 L 186 426 L 183 426 Z M 162 427 L 163 432 L 169 433 L 170 434 L 169 429 Q 164 430 162 427 Z M 176 427 L 175 428 Q 171 427 173 432 L 177 433 Q 183 435 181 429 Q 180 426 176 427 Z M 213 427 L 213 429 L 215 428 L 213 427 Z M 286 427 L 284 429 L 286 430 L 286 427 Z M 326 427 L 324 429 L 326 429 L 326 427 Z M 229 428 L 228 431 L 229 431 L 229 428 Z M 287 428 L 287 430 L 289 429 L 287 428 Z M 300 428 L 298 430 L 306 435 L 307 440 L 308 440 L 307 430 L 300 428 Z M 317 428 L 317 437 L 318 438 L 318 459 L 317 460 L 319 463 L 319 445 L 319 443 L 319 429 L 317 428 Z M 151 429 L 149 431 L 150 440 L 152 441 Q 154 435 151 434 L 153 431 L 151 429 Z M 157 429 L 154 432 L 156 435 L 155 437 L 156 440 Q 163 441 167 438 L 172 444 L 175 442 L 173 437 L 163 435 L 161 433 L 159 434 L 157 429 Z M 127 430 L 128 434 L 123 433 L 124 437 L 131 436 L 134 432 L 134 430 L 127 430 Z M 257 430 L 257 434 L 259 434 L 257 430 Z M 276 430 L 274 432 L 275 433 L 277 432 Q 278 429 276 430 Z M 64 431 L 57 433 L 55 433 Q 49 435 41 434 L 39 434 L 21 434 L 14 436 L 9 440 L 10 442 L 17 438 L 36 436 L 38 436 Q 42 435 44 437 L 57 436 L 63 433 L 65 434 Q 66 430 64 431 Z M 84 431 L 82 438 L 84 445 L 85 445 Q 84 442 88 443 L 90 447 L 99 455 L 104 456 L 106 456 L 111 459 L 112 459 L 110 452 L 111 450 L 111 446 L 105 449 L 107 449 L 108 451 L 105 451 L 102 448 L 88 442 L 86 439 L 104 448 L 105 448 L 105 444 L 101 442 L 105 441 L 108 444 L 107 440 L 104 438 L 98 438 L 99 442 L 96 441 L 94 439 L 88 436 L 84 431 Z M 113 431 L 113 437 L 114 437 L 113 431 Z M 252 431 L 250 435 L 244 438 L 245 443 L 247 442 L 246 441 L 247 439 L 248 441 L 252 434 L 252 431 Z M 213 432 Q 211 438 216 436 L 215 434 Q 216 431 213 432 Z M 220 432 L 220 436 L 224 437 L 224 434 L 221 435 L 220 432 Z M 230 432 L 228 436 L 230 436 L 230 432 Z M 236 432 L 233 436 L 235 445 L 235 436 L 236 435 L 236 432 Z M 283 432 L 281 434 L 283 434 L 283 432 Z M 73 433 L 72 439 L 74 439 L 76 439 L 73 433 Z M 136 433 L 134 436 L 132 438 L 126 439 L 124 442 L 127 441 Q 131 440 130 443 L 126 444 L 124 444 L 120 444 L 114 441 L 113 445 L 120 446 L 122 446 Q 127 448 129 445 L 132 447 L 136 439 L 136 433 Z M 205 433 L 206 435 Q 207 432 205 433 Z M 210 433 L 209 446 L 210 446 L 210 433 Z M 266 433 L 266 435 L 268 436 Q 269 432 266 433 Z M 280 433 Q 277 434 278 438 L 280 437 L 280 433 Z M 296 433 L 301 440 L 304 449 L 303 452 L 305 453 L 305 442 L 303 439 Q 304 436 302 437 L 300 434 L 296 433 Z M 330 433 Q 328 438 332 437 Q 334 432 330 433 Z M 197 434 L 187 437 L 190 438 L 199 438 L 200 437 L 205 438 L 205 437 Q 200 438 201 435 L 197 434 Z M 271 434 Q 268 436 269 441 L 268 440 L 267 440 L 266 438 L 268 438 L 264 436 L 265 441 L 272 445 L 274 445 L 281 443 Q 282 440 279 441 L 276 442 L 275 439 L 274 441 L 273 441 L 275 438 L 273 436 L 272 442 L 271 434 Z M 177 435 L 178 440 L 179 436 L 177 435 Z M 258 435 L 258 441 L 260 440 L 259 437 Q 260 434 258 435 Z M 276 435 L 277 437 Q 278 434 276 435 Z M 64 436 L 59 438 L 51 438 L 50 440 L 56 439 L 58 440 L 60 440 L 64 438 L 64 436 Z M 289 436 L 288 439 L 289 439 L 289 436 Z M 69 437 L 67 442 L 69 441 L 69 437 Z M 228 437 L 230 441 L 230 439 L 228 437 Z M 326 437 L 324 439 L 326 440 L 326 437 Z M 219 438 L 218 440 L 222 442 Q 224 443 223 440 Q 220 441 219 438 Z M 294 438 L 298 449 L 300 450 L 297 440 L 294 438 Z M 30 439 L 32 441 Q 37 443 39 440 Q 41 439 40 443 L 37 444 L 30 443 L 31 445 L 45 444 L 43 442 Q 42 439 46 440 L 46 439 L 38 439 L 37 440 L 30 439 Z M 145 439 L 144 443 L 145 443 L 145 439 Z M 214 439 L 214 441 L 213 446 L 220 445 L 215 442 Q 216 438 214 439 Z M 288 439 L 287 443 L 288 443 L 288 439 Z M 332 439 Q 329 443 333 442 L 332 439 Z M 20 440 L 14 443 L 12 447 L 20 451 L 41 451 L 42 450 L 45 451 L 44 449 L 46 448 L 47 446 L 40 447 L 38 447 L 36 448 Q 29 449 26 446 L 24 447 L 22 443 L 28 441 L 20 440 Z M 140 440 L 138 444 L 138 450 L 142 461 L 147 468 Q 146 470 149 469 L 146 451 L 142 447 L 140 440 Z M 183 440 L 180 447 L 180 451 Q 179 453 178 451 Q 175 450 176 453 L 179 454 L 184 452 Q 185 445 183 440 Z M 187 440 L 187 448 L 190 448 L 191 446 L 196 442 L 187 440 Z M 62 441 L 58 442 L 54 444 L 58 444 L 60 444 L 62 445 L 63 443 Q 64 440 62 441 Z M 73 441 L 72 449 L 73 450 L 72 453 L 74 456 L 75 452 L 74 443 L 73 441 Z M 78 441 L 79 448 Q 80 453 77 456 L 77 463 L 74 466 L 66 470 L 60 471 L 60 472 L 68 471 L 71 468 L 73 469 L 76 467 L 78 464 L 78 462 L 83 462 L 84 457 Q 81 456 82 459 L 79 460 L 80 454 Q 81 445 78 441 Z M 164 441 Q 165 445 159 443 L 157 443 Q 156 446 160 445 Q 164 447 164 452 L 171 453 Q 173 447 170 445 Q 167 446 168 444 L 164 441 Z M 201 441 Q 200 443 204 443 L 206 446 L 206 443 Q 205 440 201 441 Z M 239 441 L 238 444 L 239 444 L 239 441 Z M 284 441 L 284 443 L 286 444 Q 287 440 284 441 Z M 51 442 L 51 443 L 54 443 L 51 442 Z M 228 442 L 227 446 L 228 446 L 228 442 Z M 230 442 L 229 446 L 230 446 L 230 442 Z M 149 443 L 150 455 L 152 456 L 149 443 Z M 197 443 L 191 449 Q 192 451 190 450 L 189 452 L 197 448 L 203 448 L 204 449 L 203 446 L 197 443 Z M 312 443 L 311 452 L 312 452 L 312 443 Z M 249 444 L 247 446 Q 243 445 244 448 L 249 446 L 249 444 Z M 221 445 L 221 446 Q 223 445 222 448 L 223 448 Q 224 444 221 445 Z M 277 445 L 276 447 L 278 448 L 277 445 Z M 282 445 L 279 446 L 277 450 L 278 452 L 278 451 L 279 451 L 278 455 L 279 456 Q 283 454 280 453 L 281 451 L 280 449 L 283 448 L 282 445 Z M 86 446 L 84 450 L 87 451 Q 88 460 84 465 L 86 464 L 92 466 L 82 467 L 79 471 L 71 476 L 70 481 L 62 484 L 60 487 L 72 487 L 76 484 Q 78 485 77 482 L 95 472 L 98 472 L 100 472 L 107 470 Q 109 471 108 468 L 105 467 L 94 467 L 93 465 L 107 465 L 112 468 L 111 465 L 112 463 Q 110 460 105 461 L 106 459 Q 92 456 86 446 Z M 133 446 L 134 450 L 135 450 Q 136 445 133 446 Z M 235 446 L 234 451 L 235 451 L 235 446 Z M 241 446 L 240 449 L 241 449 L 241 446 Z M 290 446 L 288 451 L 290 452 L 290 446 Z M 56 447 L 56 448 L 59 448 L 56 447 Z M 123 447 L 121 450 L 135 456 L 136 459 L 139 461 L 135 451 L 129 447 L 123 447 Z M 158 447 Q 156 452 159 455 L 165 457 L 167 457 Q 170 458 169 455 L 164 454 L 161 450 L 158 447 Z M 228 447 L 227 450 L 228 450 L 228 447 Z M 266 447 Q 264 450 267 449 L 266 447 Z M 316 447 L 315 451 L 316 451 L 316 447 Z M 328 447 L 325 450 Q 324 452 327 451 L 328 449 L 328 447 Z M 216 448 L 213 451 L 214 453 L 220 451 Q 220 447 216 448 Z M 47 449 L 47 450 L 50 451 L 56 451 L 47 449 Z M 257 449 L 258 453 L 260 453 L 259 455 L 261 455 L 262 456 L 261 452 L 257 449 Z M 273 449 L 272 452 L 273 452 L 273 449 Z M 9 450 L 8 454 L 13 457 L 17 457 L 20 458 L 32 457 L 33 456 L 42 456 Q 44 457 43 461 L 42 463 L 52 459 Q 47 459 45 457 L 48 455 L 52 456 L 56 455 L 50 453 L 48 453 L 30 454 L 29 455 Q 23 452 14 453 L 9 450 Z M 197 450 L 194 451 L 191 455 L 193 454 Q 194 457 200 455 L 206 458 L 208 458 Q 206 456 207 452 L 206 450 L 202 451 L 197 450 Z M 249 450 L 248 451 Q 243 450 244 453 L 250 451 L 249 450 Z M 65 452 Q 61 454 63 461 L 65 460 L 65 452 Z M 235 453 L 234 467 L 235 467 L 235 453 Z M 270 453 L 269 455 L 272 455 L 270 453 Z M 306 453 L 304 456 L 309 460 L 306 453 Z M 312 453 L 311 461 L 312 461 L 312 453 Z M 120 454 L 119 457 L 120 457 L 120 454 Z M 185 454 L 181 456 Q 175 454 176 459 Q 174 460 177 461 L 182 459 L 184 460 L 186 459 L 185 454 Z M 216 454 L 213 457 L 214 459 L 220 457 L 216 454 Z M 288 454 L 287 458 L 289 457 L 288 454 Z M 69 455 L 68 459 L 69 459 L 69 455 Z M 154 455 L 155 460 L 158 461 L 159 461 L 156 457 Q 157 454 154 455 Z M 246 455 L 244 457 L 245 458 L 247 457 L 246 455 Z M 248 455 L 249 457 Q 250 454 248 455 Z M 294 455 L 293 458 L 297 459 L 299 456 L 297 457 L 294 455 Z M 328 455 L 329 457 L 332 456 L 328 455 Z M 71 456 L 69 464 L 73 462 Q 75 455 71 456 Z M 124 456 L 123 463 L 125 462 L 135 464 L 136 464 L 130 458 Q 128 454 127 457 L 124 456 Z M 278 456 L 277 459 L 279 459 L 278 462 Q 282 463 280 457 L 278 456 Z M 190 457 L 191 463 L 191 464 L 194 462 L 197 461 Q 202 460 204 462 Q 208 463 207 460 L 197 457 L 190 457 Z M 229 457 L 229 461 L 230 461 L 229 457 Z M 10 458 L 11 465 Q 7 466 11 468 L 13 467 Q 15 468 14 465 Q 17 461 24 461 L 12 460 L 10 458 Z M 119 458 L 117 460 L 119 460 L 119 458 Z M 29 459 L 25 461 L 29 461 L 29 459 Z M 32 459 L 32 460 L 36 460 L 32 459 Z M 164 459 L 163 461 L 166 462 Q 167 460 169 463 L 170 461 Q 171 458 169 459 L 166 460 L 164 459 Z M 241 459 L 240 462 L 241 462 L 241 459 Z M 260 459 L 258 462 L 259 463 Q 263 461 260 459 Z M 277 459 L 275 461 L 277 461 L 277 459 Z M 216 460 L 214 463 Q 213 467 218 465 L 221 470 L 224 472 L 216 460 Z M 323 460 L 324 463 L 327 462 Q 328 458 323 460 Z M 56 461 L 53 463 L 51 463 L 37 468 L 26 469 L 24 475 L 18 479 L 15 478 L 10 479 L 8 481 L 8 489 L 18 492 Q 20 493 19 497 Q 18 501 11 499 L 9 499 L 8 519 L 8 521 L 11 528 L 21 534 L 33 537 Q 46 539 55 535 L 71 536 L 84 544 L 93 547 Q 96 546 95 549 L 115 549 Q 113 546 107 547 L 105 547 L 89 541 L 72 530 L 63 530 L 49 533 L 47 532 L 44 533 L 28 532 L 20 529 L 17 526 Q 14 527 15 524 L 13 524 L 10 517 Q 9 505 16 502 Q 18 503 17 501 L 20 499 L 21 502 L 18 504 L 15 508 L 15 516 L 19 524 L 27 528 L 37 530 L 39 529 L 44 530 L 46 530 L 59 527 L 64 527 L 67 526 L 73 526 L 78 528 L 92 538 L 105 543 L 122 544 L 124 544 L 129 545 L 131 544 L 133 544 L 135 545 L 137 544 L 152 546 L 154 546 L 169 549 L 182 549 L 164 541 Q 158 542 156 539 L 145 539 L 143 538 L 141 538 L 140 539 L 128 539 L 126 539 L 121 538 L 119 538 L 117 539 L 100 535 L 98 533 Q 95 534 96 531 L 91 529 L 88 526 Q 87 523 84 524 L 82 524 L 79 523 L 76 519 L 68 521 L 64 524 L 56 524 L 55 525 L 34 525 L 25 521 L 18 513 L 20 508 L 23 505 L 31 502 Q 33 503 32 500 L 24 500 L 21 498 L 24 492 L 23 489 L 16 487 L 13 484 L 19 480 L 24 479 Q 27 480 26 478 L 34 472 L 43 470 L 49 467 Q 51 468 50 465 L 55 466 L 56 464 L 56 461 Z M 180 461 L 176 464 L 178 467 L 184 465 Q 189 467 187 461 L 185 462 L 180 461 Z M 290 461 L 288 463 Q 287 466 290 465 L 290 461 Z M 67 462 L 64 467 L 65 468 L 67 465 L 67 462 Z M 264 462 L 262 465 L 264 464 L 264 462 Z M 281 462 L 280 466 L 281 466 L 281 462 Z M 294 462 L 296 465 L 298 464 L 294 462 Z M 332 462 L 328 467 L 330 467 L 332 467 L 332 462 Z M 37 463 L 36 464 L 28 464 L 26 464 L 19 466 L 17 469 L 9 471 L 8 474 L 10 476 L 19 475 Q 23 474 22 469 L 26 466 L 37 465 L 40 464 L 37 463 Z M 119 463 L 117 467 L 119 466 L 124 466 L 126 468 L 130 468 L 139 472 Q 142 472 141 468 L 140 468 L 137 466 L 135 467 L 128 464 L 120 464 L 119 463 Z M 160 463 L 157 465 L 160 465 L 160 463 Z M 171 463 L 170 465 L 172 466 L 171 463 Z M 195 463 Q 192 464 193 468 L 198 469 Q 206 470 210 468 L 209 463 L 207 464 L 195 463 Z M 260 463 L 259 465 L 261 464 L 260 463 Z M 166 464 L 164 466 L 165 469 Q 167 472 172 472 L 170 466 L 169 466 L 166 464 Z M 268 464 L 266 467 L 268 467 L 268 464 Z M 303 464 L 302 466 L 299 468 L 301 468 L 302 470 L 303 467 L 303 464 Z M 61 465 L 57 469 L 58 470 L 63 468 L 62 467 Q 63 464 61 465 Z M 161 465 L 160 474 L 161 474 L 161 465 Z M 229 465 L 229 468 L 230 468 Q 231 464 229 465 Z M 256 465 L 256 466 L 258 466 L 256 465 Z M 319 465 L 318 474 L 319 474 L 319 465 Z M 186 467 L 176 469 Q 175 473 178 474 L 178 472 L 184 469 L 187 469 Q 188 466 186 467 Z M 270 467 L 271 469 Q 272 466 270 467 Z M 296 468 L 294 472 L 297 473 L 299 469 L 298 468 L 296 468 Z M 116 469 L 116 471 L 118 470 L 122 471 L 122 469 L 116 469 Z M 189 469 Q 187 472 183 471 L 180 474 Q 179 479 183 480 L 184 477 L 191 472 L 189 469 Z M 306 469 L 306 473 L 308 472 Q 309 468 306 469 Z M 126 470 L 126 473 Q 125 475 128 474 L 126 470 Z M 195 470 L 194 472 L 200 475 L 210 472 L 209 470 L 207 471 L 196 471 L 195 470 Z M 249 470 L 247 472 L 249 472 L 249 470 Z M 282 470 L 280 473 L 282 472 L 282 470 Z M 47 471 L 42 472 L 43 474 L 49 473 Q 50 470 47 471 Z M 251 471 L 249 473 L 251 473 L 251 471 Z M 332 472 L 330 474 L 332 474 L 332 472 Z M 38 473 L 33 475 L 30 479 L 23 483 L 18 483 L 19 485 L 30 482 Q 33 475 41 474 L 38 473 Z M 69 473 L 66 474 Q 61 476 65 478 L 72 474 L 71 473 L 69 473 Z M 102 473 L 95 475 L 93 477 L 88 478 L 89 480 L 88 479 L 85 481 L 86 483 L 90 481 L 91 481 L 91 485 L 99 487 Q 98 489 93 489 L 96 490 L 104 489 L 110 485 Q 112 486 111 484 L 113 481 Q 109 480 110 483 Q 107 484 108 482 L 114 479 L 112 476 L 104 475 L 102 473 Z M 153 473 Q 151 476 155 477 L 155 474 L 153 473 Z M 167 473 L 166 475 L 172 478 L 176 486 L 181 486 L 178 484 Q 173 481 173 475 L 167 473 Z M 192 473 L 187 475 L 186 482 Q 188 480 195 481 L 198 478 Q 201 479 199 475 L 192 473 Z M 208 473 L 204 477 L 217 480 L 221 483 L 221 482 L 219 480 L 213 473 L 211 474 L 208 473 Z M 238 473 L 237 476 L 238 476 L 238 473 Z M 258 473 Q 256 476 254 475 L 256 477 L 259 476 L 258 473 Z M 52 474 L 49 477 Q 48 479 53 478 Q 56 476 52 474 Z M 115 474 L 118 480 L 123 478 L 123 474 L 115 474 Z M 130 474 L 127 479 L 131 480 Q 136 477 130 474 Z M 291 474 L 292 476 Q 293 473 291 474 Z M 302 474 L 301 475 Q 298 474 299 477 L 306 477 L 302 474 Z M 221 475 L 221 476 L 223 476 L 221 475 Z M 248 475 L 247 476 Q 244 475 245 478 L 249 477 L 248 475 Z M 272 475 L 271 476 Q 268 475 269 478 L 272 479 L 275 478 L 276 476 L 275 476 L 272 475 Z M 313 475 L 312 479 L 313 479 L 313 475 Z M 319 475 L 318 483 L 320 484 L 319 475 Z M 325 475 Q 323 478 326 477 L 325 475 Z M 43 476 L 38 478 L 35 482 L 42 478 L 44 479 L 45 477 L 43 476 Z M 58 476 L 58 477 L 60 477 L 58 476 Z M 144 476 L 144 479 Q 149 480 150 478 Q 149 475 144 476 Z M 161 476 L 155 478 L 157 483 L 162 481 Q 163 477 161 476 Z M 229 476 L 228 479 L 230 480 L 229 476 Z M 328 477 L 326 480 Q 323 479 324 482 L 326 481 Q 329 480 328 483 L 326 484 Q 324 482 323 485 L 324 486 L 327 485 L 329 488 L 329 486 Q 330 483 332 485 L 332 483 L 329 482 Q 328 478 332 480 L 332 478 L 328 477 Z M 202 478 L 196 482 L 199 483 L 207 480 L 202 478 Z M 241 478 L 239 481 L 241 482 L 241 478 Z M 265 478 L 262 480 L 266 480 L 265 478 Z M 59 479 L 60 481 L 68 480 L 68 479 L 64 480 L 59 479 Z M 135 479 L 138 483 Q 140 482 138 481 Q 139 478 135 479 Z M 167 479 L 167 481 Q 166 484 170 483 L 171 484 L 170 480 L 167 479 Z M 124 480 Q 122 483 116 482 L 114 485 Q 111 486 116 488 L 129 487 Q 131 486 130 482 Q 126 483 124 480 Z M 46 481 Q 44 483 40 482 L 34 485 L 32 488 L 28 490 L 29 487 L 30 485 Q 26 484 25 487 Q 24 489 27 488 Q 29 495 25 497 L 29 497 L 28 496 L 29 493 L 38 486 L 47 482 L 46 481 Z M 212 481 L 200 484 L 201 486 L 204 485 L 216 485 L 217 486 L 220 485 L 217 482 L 215 482 L 212 481 Z M 287 481 L 286 488 L 291 488 Q 293 487 291 486 Q 293 481 290 482 L 290 484 Q 292 489 287 487 L 287 481 Z M 295 481 L 294 487 L 295 487 L 295 481 Z M 301 481 L 301 484 Q 304 485 303 483 L 301 481 Z M 55 482 L 50 483 L 33 491 L 31 496 L 31 497 Q 33 498 32 495 L 44 490 Q 49 492 48 488 L 51 485 Q 57 486 59 484 Q 58 481 55 482 Z M 181 482 L 184 485 Q 186 486 185 483 L 181 482 Z M 225 482 L 224 484 L 227 485 L 231 484 L 225 482 Z M 298 482 L 297 486 L 299 485 L 298 482 Z M 82 483 L 78 489 L 81 490 Q 84 491 85 489 L 82 483 Z M 164 483 L 160 484 Q 159 487 163 486 L 165 486 Q 169 487 168 484 L 164 483 Z M 266 483 L 265 489 L 265 490 L 267 489 L 266 483 Z M 271 483 L 269 487 L 271 486 L 271 483 Z M 274 483 L 274 486 L 275 486 Q 276 482 274 483 Z M 279 483 L 278 486 L 280 487 L 279 483 Z M 235 484 L 233 490 Q 235 495 243 494 Q 244 491 241 492 L 238 488 L 235 486 L 235 484 Z M 253 484 L 254 488 L 255 485 L 253 484 Z M 257 484 L 257 489 L 257 490 Q 259 491 258 489 L 259 486 Q 260 483 257 484 Z M 190 485 L 193 489 L 200 489 L 193 485 L 190 485 Z M 243 485 L 241 489 L 252 493 L 251 489 L 248 486 L 246 489 L 245 486 L 243 485 Z M 307 485 Q 299 490 288 491 L 287 494 L 286 491 L 285 491 L 278 490 L 274 488 L 268 492 L 258 493 L 261 497 L 261 494 L 265 496 L 272 496 L 273 499 Q 276 500 275 497 L 278 497 Q 280 498 278 500 Q 279 502 283 501 L 285 501 L 287 503 Q 288 505 285 504 Q 286 508 282 510 L 280 520 L 277 523 Q 273 522 272 525 L 273 528 L 270 530 L 271 532 L 265 536 Q 256 537 252 533 L 251 536 L 248 534 L 243 537 L 243 533 L 238 539 Q 229 540 227 535 L 224 537 L 219 536 Q 216 535 217 538 Q 213 539 214 536 L 216 536 L 215 533 Q 212 538 206 539 L 202 539 L 195 536 L 194 534 L 195 528 L 192 527 L 188 529 L 182 527 L 180 524 L 171 529 L 167 528 L 163 528 L 157 533 Q 152 534 151 531 L 149 536 Q 154 538 153 534 Q 157 533 156 536 L 153 537 L 168 540 L 172 538 L 174 542 L 178 541 L 180 544 L 183 542 L 184 542 L 184 546 L 190 547 L 191 544 L 192 547 L 197 548 L 199 547 Q 203 546 202 549 L 213 549 L 213 546 L 215 546 L 216 549 Q 218 550 217 547 L 221 549 L 230 549 L 230 547 Q 234 546 233 549 L 239 548 L 242 549 L 246 547 L 248 548 L 256 548 L 257 547 L 265 548 L 267 548 L 270 549 L 272 549 L 277 548 L 279 549 L 283 548 L 285 548 Q 289 547 291 549 L 291 547 L 293 546 L 292 548 L 295 549 L 300 548 L 301 546 Q 302 543 299 544 L 299 542 Q 302 541 301 544 L 305 542 L 313 542 L 313 538 L 316 539 L 320 538 L 333 539 L 333 526 L 324 526 Q 323 529 326 528 L 327 531 L 325 530 Q 322 529 323 533 L 327 532 L 327 534 L 323 536 L 320 536 L 320 528 L 318 527 L 314 534 Q 315 536 312 535 L 313 532 L 313 528 L 309 531 L 307 534 Q 309 533 308 536 Q 305 537 306 534 L 302 534 L 302 537 Q 299 536 300 539 L 297 540 L 292 539 L 291 537 L 292 531 L 286 529 L 290 524 L 292 524 Q 291 520 294 521 L 296 525 L 296 521 L 289 517 Q 290 514 288 515 Q 285 514 286 510 L 292 504 L 291 503 Q 290 500 293 501 L 294 503 L 298 500 L 298 503 L 289 507 L 288 510 Q 286 514 290 513 L 291 510 L 293 510 L 294 507 L 294 512 L 290 515 Q 289 517 293 516 L 295 514 Q 294 509 297 508 L 298 512 L 301 513 L 303 512 L 304 510 L 300 511 L 301 508 Q 297 509 298 506 L 303 505 L 299 503 L 308 498 L 309 500 Q 308 506 310 508 L 314 509 L 315 504 Q 318 503 317 506 L 319 506 L 319 497 L 316 495 Q 318 491 320 495 L 322 494 Q 328 493 331 495 L 332 498 L 331 501 L 328 502 L 326 502 L 322 504 L 333 504 L 332 502 L 333 500 L 332 494 L 329 493 L 332 492 Q 333 489 330 490 L 327 491 L 321 490 L 318 487 Q 313 488 312 485 L 307 485 Z M 89 486 L 90 489 L 92 489 L 89 486 Z M 157 486 L 158 491 L 166 494 L 174 493 L 176 493 L 175 488 L 169 488 L 168 489 Q 159 491 157 486 Z M 206 486 L 206 488 L 208 489 L 216 490 L 220 493 L 226 489 L 229 490 Q 233 491 231 487 L 228 488 L 206 486 Z M 262 486 L 261 490 L 263 490 L 262 486 Z M 53 487 L 52 489 L 61 490 Q 62 486 57 488 L 55 488 L 53 487 Z M 111 487 L 107 491 L 109 492 L 117 492 L 118 491 Q 113 490 111 487 Z M 138 487 L 138 489 L 142 488 L 138 487 Z M 149 487 L 149 489 L 151 488 L 149 487 Z M 186 487 L 182 489 L 193 493 L 198 493 L 186 487 Z M 64 489 L 64 491 L 61 492 L 58 497 L 61 498 Q 59 501 58 497 L 55 499 L 59 502 L 58 506 L 51 511 L 48 510 Q 46 507 45 511 L 44 510 L 44 508 L 45 504 L 51 500 L 45 498 L 44 493 Q 38 493 35 498 L 36 500 L 35 503 L 26 506 L 23 509 L 24 515 L 29 519 L 38 522 L 43 520 Q 44 523 46 521 L 49 522 L 51 519 Q 53 518 52 521 L 60 521 L 69 518 L 69 517 Q 66 518 67 515 L 70 515 L 69 514 L 66 510 Q 68 511 67 507 L 64 507 Q 65 510 62 509 L 63 507 Q 59 506 60 501 Q 63 494 72 496 L 70 492 L 68 493 L 65 492 L 70 490 L 64 489 Z M 201 489 L 205 493 L 208 492 L 207 490 L 201 489 Z M 73 490 Q 72 493 75 492 Q 76 489 73 490 Z M 154 490 L 150 491 L 148 491 L 146 492 L 146 493 L 155 492 L 154 490 Z M 53 491 L 48 494 L 50 497 Q 55 498 56 495 Q 58 489 53 491 Z M 129 491 L 125 496 L 128 497 Q 133 498 134 495 Q 136 488 129 491 Z M 225 491 Q 221 492 222 496 L 229 495 Q 231 496 230 494 L 225 491 Z M 232 491 L 231 493 L 233 494 L 232 491 Z M 8 492 L 8 497 Q 13 498 15 496 Q 13 492 8 492 Z M 80 492 L 78 493 L 75 497 L 79 498 L 83 493 L 80 492 Z M 93 492 L 89 494 L 87 494 L 85 498 L 90 501 Q 99 502 101 497 L 100 493 L 97 494 L 93 492 Z M 183 492 L 183 495 Q 184 498 189 497 L 191 497 L 193 498 Q 199 499 201 496 L 201 494 L 200 495 L 191 495 L 189 495 L 183 492 Z M 213 492 L 211 494 L 212 500 L 215 499 L 218 500 L 217 494 Q 216 491 213 492 Z M 143 493 L 140 496 L 145 499 L 145 497 L 142 496 L 146 495 L 143 493 Z M 108 494 L 105 497 Q 104 501 109 499 Q 110 495 108 494 Z M 178 494 L 178 498 L 181 498 L 187 503 L 200 503 L 207 502 L 205 498 L 199 500 L 191 500 L 178 494 Z M 208 494 L 207 498 L 210 500 L 208 494 Z M 248 494 L 247 495 L 240 495 Q 239 498 247 497 L 249 497 L 251 496 L 248 494 Z M 147 495 L 147 497 L 150 496 L 147 495 Z M 119 496 L 114 498 Q 113 502 116 503 L 120 503 L 117 501 Q 114 502 115 500 L 117 500 L 117 499 L 120 498 L 122 501 L 122 497 L 119 496 Z M 137 496 L 135 498 L 137 498 L 137 496 Z M 161 496 L 159 499 L 162 500 L 162 496 L 161 496 Z M 324 496 L 322 500 L 325 500 Q 328 501 327 498 L 324 496 Z M 170 497 L 169 498 Q 166 497 167 501 L 171 503 Q 174 502 173 498 L 170 497 Z M 253 497 Q 249 500 241 500 L 247 502 L 256 503 L 258 500 L 253 497 Z M 69 498 L 66 499 Q 63 500 64 504 L 69 506 L 73 501 Q 73 497 69 498 Z M 222 498 Q 220 501 223 500 L 227 502 L 229 502 L 228 501 L 228 500 L 222 498 Z M 235 498 L 235 499 L 237 499 L 235 498 Z M 130 499 L 128 502 L 130 502 L 130 499 Z M 101 500 L 100 502 L 104 502 L 101 500 Z M 136 500 L 136 502 L 140 504 L 143 504 L 144 501 L 136 500 Z M 272 500 L 273 505 L 272 504 L 271 506 L 274 507 L 272 510 L 278 509 L 279 507 L 277 508 Q 273 509 275 504 L 276 504 Q 275 507 278 506 L 280 506 L 280 503 L 272 500 Z M 308 500 L 306 501 L 304 504 L 308 502 L 308 500 Z M 54 501 L 47 506 L 50 509 L 55 507 L 56 503 L 54 501 Z M 154 501 L 152 503 Q 149 502 150 506 L 153 507 Q 158 508 160 505 L 160 501 L 154 501 Z M 180 501 L 180 503 Q 181 506 179 505 L 176 504 L 177 507 L 180 508 L 181 509 L 184 506 L 183 503 L 182 506 L 181 506 Q 183 500 180 501 Z M 239 502 L 237 504 L 239 507 Q 244 508 246 506 Q 247 503 245 504 Q 243 506 242 503 L 239 504 L 239 502 Z M 261 502 L 259 506 L 259 509 L 261 509 L 260 507 L 264 505 L 263 504 L 263 503 L 261 502 Z M 89 503 L 89 505 L 95 504 L 89 503 Z M 213 503 L 213 506 L 217 505 L 213 503 Z M 99 504 L 92 508 L 93 511 L 98 513 L 106 513 L 112 510 L 113 507 L 112 505 Q 107 506 106 504 L 101 505 L 99 504 Z M 227 504 L 226 506 L 227 507 L 224 506 L 224 508 L 222 505 Q 219 504 220 509 L 228 513 L 231 512 Q 235 511 234 507 Q 233 504 230 505 L 227 504 Z M 268 504 L 266 507 L 268 506 L 268 504 Z M 270 504 L 269 506 L 264 510 L 271 510 L 270 504 Z M 306 504 L 305 505 Q 302 504 303 507 L 303 508 L 305 508 Q 304 511 307 510 L 308 509 L 306 504 Z M 116 505 L 116 508 L 119 509 Q 117 512 116 508 L 115 510 L 111 513 L 105 515 L 100 515 L 98 517 Q 99 519 97 518 Q 94 517 96 516 L 94 515 L 91 523 L 96 525 Q 97 520 94 521 Q 93 518 98 519 Q 100 520 99 525 L 97 528 Q 101 529 103 527 L 107 528 Q 109 529 108 534 L 124 536 L 126 533 Q 128 534 127 532 L 126 531 L 130 527 Q 138 525 140 530 L 141 528 Q 142 524 147 525 L 146 523 L 150 522 L 149 524 L 150 525 L 157 522 L 161 523 L 161 521 L 167 518 L 159 514 Q 156 513 157 509 L 155 510 L 152 509 Q 149 513 143 512 Q 141 510 140 513 L 138 512 L 139 509 L 135 511 L 136 513 L 133 514 L 134 512 L 134 510 L 129 511 L 126 516 Q 120 517 119 513 Q 115 514 116 511 L 119 512 L 123 510 L 120 509 L 122 506 L 116 505 Z M 127 505 L 125 507 L 128 510 Q 129 508 134 509 L 135 506 L 127 505 Z M 146 505 L 142 508 L 144 510 L 147 509 L 146 505 Z M 169 505 L 164 506 L 161 510 L 166 515 L 170 515 L 173 513 L 174 509 L 173 506 L 169 505 Z M 192 505 L 187 507 L 183 513 L 187 515 L 197 511 L 199 507 Q 200 504 198 505 L 195 506 L 192 505 Z M 206 505 L 204 506 L 202 510 L 205 510 L 209 507 L 206 505 Z M 84 506 L 84 509 L 88 508 L 88 506 L 84 506 Z M 251 506 L 252 508 L 255 508 Q 254 505 251 506 Z M 261 506 L 262 510 L 265 508 L 261 506 Z M 74 507 L 72 508 L 73 511 L 70 510 Q 70 513 73 514 L 78 511 L 79 508 L 74 507 Z M 320 507 L 318 509 L 320 509 L 320 507 Z M 323 507 L 323 509 Q 329 508 332 510 L 332 507 L 323 507 Z M 211 508 L 209 512 L 214 514 L 216 513 L 217 510 Q 216 507 215 509 L 211 508 Z M 241 509 L 239 510 L 237 514 L 244 518 L 258 515 L 259 512 L 248 509 L 241 509 Z M 316 509 L 311 512 L 314 520 L 315 518 L 314 516 L 315 514 Q 314 510 317 511 L 316 509 Z M 83 510 Q 80 511 81 515 L 88 514 L 89 511 L 88 511 L 83 510 Z M 280 510 L 277 512 L 281 512 Q 282 509 280 510 Z M 308 511 L 306 513 L 309 513 L 308 511 Z M 317 511 L 316 514 L 317 518 L 317 515 L 320 514 Q 321 509 317 511 Z M 325 511 L 323 514 L 326 513 L 331 514 L 333 513 L 325 511 Z M 263 512 L 258 520 Q 259 522 265 521 L 269 516 Q 268 511 263 512 Z M 272 512 L 271 519 L 275 521 Q 276 523 277 521 Q 276 518 279 519 L 279 517 Q 277 514 272 515 L 272 512 Z M 78 513 L 77 517 L 79 516 L 78 513 Z M 198 513 L 194 515 L 191 519 Q 191 524 196 526 Q 200 523 207 524 L 209 521 Q 210 516 208 515 Q 203 516 204 513 L 198 513 Z M 221 513 L 220 515 Q 222 518 223 515 L 221 513 Z M 300 514 L 300 518 Q 303 519 302 515 L 300 514 Z M 70 515 Q 69 518 73 517 Q 74 514 70 515 Z M 229 515 L 227 517 Q 226 520 229 519 L 230 516 Q 234 515 233 518 Q 236 519 235 517 Q 234 514 229 515 Z M 306 515 L 304 517 Q 303 519 306 518 Q 309 517 306 515 Z M 85 516 L 84 517 Q 79 516 81 520 L 84 519 L 89 521 L 91 518 Q 91 514 85 516 Z M 173 516 Q 172 520 179 518 L 179 519 Q 175 518 176 522 L 173 523 L 173 520 L 171 524 L 169 523 L 169 525 L 167 524 Q 165 520 163 524 L 164 526 L 168 527 Q 173 528 176 525 L 180 521 L 180 518 Q 178 514 173 516 Z M 324 516 L 324 518 L 331 519 L 333 519 Q 330 515 324 516 Z M 216 517 L 215 522 Q 219 523 220 520 L 216 517 Z M 309 517 Q 308 520 311 519 Q 312 516 309 517 Z M 321 517 L 319 519 L 321 519 L 321 517 Z M 170 518 Q 170 522 172 519 L 170 518 Z M 168 519 L 166 522 L 168 521 L 170 522 L 170 521 L 168 519 Z M 238 520 L 236 521 L 237 523 L 239 522 L 238 520 Z M 247 520 L 245 524 L 250 523 Q 252 524 251 522 Q 250 519 247 520 Z M 303 520 L 307 523 L 308 522 Q 307 519 303 520 Z M 317 520 L 315 523 L 317 522 L 317 520 Z M 269 521 L 267 522 L 269 525 L 269 524 Q 271 522 269 521 Z M 324 521 L 324 524 L 326 523 L 330 524 L 330 523 Q 329 520 324 521 Z M 186 522 L 185 523 Q 182 522 183 525 L 188 527 L 190 526 L 190 525 Q 187 526 188 524 L 186 522 Z M 227 522 L 226 523 L 224 523 L 224 527 L 227 528 L 230 527 L 232 524 Q 231 521 227 522 Z M 255 522 L 255 525 L 259 526 L 262 525 L 255 522 Z M 310 522 L 307 526 Q 306 528 309 527 Q 310 530 312 526 Q 314 521 310 522 Z M 318 522 Q 317 525 320 524 Q 321 521 318 522 Z M 315 523 Q 312 527 316 526 L 315 523 Z M 159 524 L 152 526 Q 151 530 155 531 L 160 528 L 159 524 Z M 241 524 L 234 527 L 240 527 L 247 532 L 249 532 L 250 532 L 250 527 Q 243 528 241 524 Z M 271 524 L 270 528 L 271 528 L 271 524 Z M 299 524 L 296 526 L 300 527 L 302 526 Q 303 523 299 524 Z M 292 525 L 289 527 L 290 529 L 295 527 L 292 525 Z M 305 525 L 304 528 L 296 533 Q 295 535 299 534 Q 300 530 302 533 L 307 530 L 305 529 L 305 525 Z M 208 526 L 208 528 Q 209 530 206 529 Q 205 532 209 531 L 211 533 L 210 531 L 212 527 L 208 526 Z M 218 526 L 217 527 Q 214 526 215 529 Q 213 530 216 531 L 219 530 Q 222 528 218 526 Z M 266 526 L 264 528 L 253 529 L 255 532 L 260 534 L 265 533 L 267 530 L 266 526 Z M 146 527 L 144 529 Q 146 533 148 530 Q 149 526 146 527 Z M 298 527 Q 296 530 299 529 L 298 527 Z M 237 528 L 236 530 L 238 531 L 237 528 Z M 132 529 L 130 531 L 132 534 L 136 531 L 132 529 Z M 293 529 L 294 533 L 294 532 L 297 530 L 293 529 Z M 102 530 L 103 532 L 105 532 L 102 530 Z M 205 530 L 204 532 L 205 533 L 203 532 L 202 534 L 199 535 L 203 537 Q 209 538 210 534 L 205 530 Z M 223 530 L 219 532 Q 217 537 223 535 L 225 532 L 223 530 Z M 232 530 L 230 532 L 231 534 L 231 532 L 235 531 L 232 530 Z M 9 531 L 9 538 L 28 542 L 31 543 Q 37 545 39 542 L 41 543 L 44 542 L 64 542 L 65 543 Q 68 542 67 545 L 79 549 L 85 549 L 64 538 L 62 539 L 60 539 L 58 538 L 47 540 L 45 540 L 42 541 L 31 540 L 29 540 L 17 536 L 9 531 Z M 142 531 L 141 532 Q 138 531 139 535 L 142 536 L 145 535 Q 148 536 147 534 Q 146 531 145 533 L 142 531 Z M 239 531 L 235 532 L 236 535 L 233 536 L 233 537 L 238 536 L 239 534 L 239 531 Z M 128 533 L 127 535 L 129 536 L 128 533 Z M 136 534 L 134 536 L 136 536 L 136 534 Z M 297 535 L 296 536 Q 293 535 294 538 L 297 537 L 297 535 Z M 322 540 L 321 543 L 322 543 L 322 540 Z M 324 540 Q 321 545 325 544 L 326 545 Q 327 542 324 543 L 324 540 Z M 9 541 L 8 545 L 17 548 L 28 548 L 29 549 L 67 549 L 63 546 L 45 546 L 44 547 L 41 546 L 37 547 L 30 547 L 23 544 L 18 544 L 9 541 Z M 319 541 L 316 542 L 315 545 L 320 549 L 321 548 L 323 549 L 327 548 L 320 545 L 319 541 Z M 328 541 L 327 546 L 328 546 L 328 541 Z M 330 541 Q 327 546 332 544 L 333 548 L 333 543 Q 331 544 330 541 Z M 307 544 L 307 546 Q 306 548 309 547 L 308 546 L 310 545 L 307 544 Z M 304 545 Q 302 549 306 548 L 306 546 L 304 545 Z M 330 545 Q 327 549 331 548 L 330 545 Z M 126 548 L 126 549 L 133 549 L 126 548 Z M 136 548 L 136 549 L 140 549 L 136 548 Z M 88 551 L 87 552 L 11 552 L 8 553 L 8 573 L 9 574 L 8 576 L 9 578 L 9 591 L 13 592 L 21 592 L 22 591 L 27 592 L 65 592 L 66 591 L 68 592 L 132 592 L 134 592 L 149 592 L 150 591 L 152 592 L 154 592 L 158 591 L 160 591 Q 166 589 168 592 L 170 591 Q 175 590 177 592 L 180 591 L 226 591 L 227 590 L 230 591 L 252 591 L 253 590 L 255 591 L 275 591 L 278 590 L 293 590 L 294 591 Q 298 592 300 590 L 302 591 L 312 591 L 313 590 L 320 591 L 322 591 L 324 590 L 333 590 L 333 590 L 333 552 L 331 553 L 320 552 L 319 551 L 310 551 L 309 552 L 308 551 L 294 551 L 292 551 L 279 551 L 278 552 L 277 551 L 231 551 L 228 552 L 225 551 L 223 552 L 210 551 L 208 551 L 206 552 L 205 551 L 193 551 L 190 552 L 187 551 Q 185 554 179 552 L 177 552 L 89 552 L 88 551 Z "></path><path d="M 288.5 70 L 291 71.5 L 289.5 71 L 288.5 70 Z "></path><path d="M 280.5 79 Q 280.3 83.3 283 84.5 L 280.5 85 Q 278.3 84.3 279 80.5 L 280.5 79 Z "></path><path d="M 286.5 87 Q 289.8 85.9 289 88.5 L 287.5 91 L 285 90 L 286.5 87 Z "></path><path d="M 185.5 95 L 189 97 Q 190.3 100 186.5 99 Q 184 98 185.5 95 Z "></path><path d="M 195.5 95 L 197.5 96 L 199 95.5 L 197.5 98 L 194 99 L 195.5 95 Z "></path><path d="M 299.5 98 L 300 103.5 L 299 103.5 L 299.5 98 Z "></path><path d="M 190 101 Q 195.2 99.3 194 103 Q 188.8 104.7 190 101 Z "></path><path d="M 173.5 110 L 174 112.5 L 173 112.5 L 173.5 110 Z "></path><path d="M 192.5 112 L 193 114.5 L 192 114.5 L 192.5 112 Z "></path><path d="M 177.5 114 L 178 117.5 L 177 117.5 L 177.5 114 Z "></path><path d="M 187.5 114 L 188 117.5 L 187 117.5 L 187.5 114 Z "></path><path d="M 189.5 114 L 190 117.5 L 189 117.5 L 189.5 114 Z "></path><path d="M 300.5 114 L 302.5 115 L 304 114.5 L 304 116 L 300 116 L 300.5 114 Z "></path><path d="M 292 117 Q 296.1 115.7 295 119 Q 290.9 120.3 292 117 Z "></path><path d="M 178 120 Q 181 119 180 122 Q 177 123 178 120 Z "></path><path d="M 221.5 143 Q 225.3 141.8 224 145.5 L 220 147 L 221.5 143 Z "></path><path d="M 189.5 148 L 191 151 L 188 149.5 L 189.5 148 Z "></path><path d="M 189 154 Q 193.1 152.7 192 156 Q 187.9 157.3 189 154 Z "></path><path d="M 297 155 L 299 155.5 L 297 156.5 L 297 155 Z "></path><path d="M 192.5 159 Q 195.1 158.3 194 161 L 191 160.5 L 192.5 159 Z "></path><path d="M 193.5 163 L 195 166 Q 191.3 167.5 192 164.5 L 193.5 163 Z "></path><path d="M 282.5 173 L 283 176.5 L 282 176.5 L 282.5 173 Z "></path><path d="M 291 173 L 293 173.5 L 291 174.5 L 291 173 Z "></path><path d="M 159.5 185 L 160 186.5 Q 158.5 189.5 157 186.5 L 159 186.5 L 159.5 185 Z "></path><path d="M 245.5 186 L 246 188.5 L 245 188.5 L 245.5 186 Z "></path><path d="M 239.5 190 L 240 192.5 L 239 192.5 L 239.5 190 Z "></path><path d="M 251.5 198 L 252 200.5 L 251 200.5 L 251.5 198 Z "></path><path d="M 242.5 199 L 243 201.5 L 242 201.5 L 242.5 199 Z "></path><path d="M 298.5 199 L 299 203.5 L 298 203.5 L 298.5 199 Z "></path><path d="M 245.5 200 L 246 202.5 L 245 202.5 L 245.5 200 Z "></path><path d="M 107.5 206 L 108 207.5 L 104.5 213 L 104 211.5 L 107.5 206 Z "></path><path d="M 298.5 211 L 299 213.5 L 298 213.5 L 298.5 211 Z "></path><path d="M 181.5 215 L 182 217.5 L 181 217.5 L 181.5 215 Z "></path><path d="M 170.5 216 L 171 218.5 L 170 218.5 L 170.5 216 Z "></path><path d="M 172.5 216 L 173 218.5 L 172 218.5 L 172.5 216 Z "></path><path d="M 285.5 216 L 286 218.5 L 285 218.5 L 285.5 216 Z "></path><path d="M 175.5 217 L 176 220.5 L 175 220.5 L 175.5 217 Z "></path><path d="M 184 220 L 186 220.5 L 184 221.5 L 184 220 Z "></path><path d="M 295.5 228 L 296 229.5 L 294 230.5 L 295.5 228 Z "></path><path d="M 173.5 237 L 174 239 L 172 238.5 L 173.5 237 Z "></path><path d="M 207.5 240 L 208.5 242 L 206 241.5 L 207.5 240 Z "></path><path d="M 218.5 241 L 220 241.5 L 217 250.5 L 217 254.5 L 215.5 256 Q 212.9 256.8 214 253.5 L 218.5 241 Z "></path><path d="M 184.5 244 L 187 244.5 Q 184.9 247.8 184.5 244 Z "></path><path d="M 202 244 L 205 244.5 L 202 246 L 202 244 Z "></path><path d="M 227.5 244 L 229 246.5 L 226.5 247 L 227 245.5 L 227.5 244 Z "></path><path d="M 182.5 248 Q 187.3 246.7 186 250 Q 182.2 250.8 182.5 248 Z "></path><path d="M 197 249 Q 201.1 247.7 200 251 Q 195.9 252.3 197 249 Z "></path><path d="M 194.5 255 L 197 256 Q 198.1 258.7 195.5 258 L 193 256.5 L 194.5 255 Z "></path><path d="M 294.5 255 L 295 257.5 L 294 257.5 L 294.5 255 Z "></path><path d="M 282 256 Q 285 255 284 258 Q 281 259 282 256 Z "></path><path d="M 203 258 Q 206.3 256.7 205 261.5 L 204 264.5 L 204 266.5 L 205 276.5 L 204 279 L 201.5 280 L 201 266.5 L 201 264.5 L 203 258 Z "></path><path d="M 190 264 Q 193.8 262.5 193 265.5 L 192 266.5 L 192 273 L 190 272.5 L 190 264 Z "></path><path d="M 117.5 270 Q 120.1 269.3 119 272 L 116 271.5 L 117.5 270 Z "></path><path d="M 291.5 302 L 292 304.5 L 291 304.5 L 291.5 302 Z "></path><path d="M 283.5 306 L 284 308.5 L 283 308.5 L 283.5 306 Z "></path><path d="M 297.5 312 L 298 314.5 L 297 314.5 L 297.5 312 Z "></path><path d="M 285.5 315 L 286.5 317 Q 283.7 317.7 285.5 315 Z "></path><path d="M 167.5 316 L 169 316.5 L 163 319 Q 161.7 315.7 166.5 317 L 167.5 316 Z "></path><path d="M 173 317 L 176 317.5 L 173 319 L 173 317 Z "></path><path d="M 179 317 Q 182 316 181 319 Q 178 320 179 317 Z "></path><path d="M 283.5 322 L 284 325.5 L 283 325.5 L 283.5 322 Z "></path><path d="M 56.5 326 L 59 327.5 L 58 329.5 L 57.5 362 L 55 361 L 54 354.5 L 54 339.5 L 54 337.5 L 55 327.5 L 56.5 326 Z "></path><path d="M 285.5 330 L 287 333.5 L 285 334 L 285.5 330 Z "></path><path d="M 297.5 330 L 298 332.5 L 297 332.5 L 297.5 330 Z "></path><path d="M 139.5 331 L 151.5 333 L 158 337.5 Q 158.8 339.8 156.5 339 L 151.5 335 L 142.5 334 L 139.5 331 Z "></path><path d="M 211 335 L 215 336.5 Q 215.8 338.8 213.5 338 L 211 337 L 211 335 Z "></path><path d="M 123.5 340 L 129.5 340 L 139 343.5 L 136.5 344 L 130.5 342 L 125.5 342 L 123.5 340 Z "></path><path d="M 153.5 340 Q 156.1 339.3 155 342 L 148.5 344 L 149.5 342 L 153.5 340 Z "></path><path d="M 140.5 341 L 145.5 344 L 147 343.5 Q 147.8 346.1 144.5 345 L 137.5 347 L 137.5 346 L 142 345 Q 143 342 140 343 L 140.5 341 Z "></path><path d="M 258.5 361 L 259 363.5 L 258 363.5 L 258.5 361 Z "></path><path d="M 250.5 369 L 251 373.5 L 250 373.5 L 250.5 369 Z "></path><path d="M 246.5 371 Q 248.8 370.3 248 372.5 L 246.5 371 Z "></path><path d="M 264.5 374 L 265 376.5 L 264 376.5 L 264.5 374 Z "></path><path d="M 258.5 381 L 259 383.5 L 258 383.5 L 258.5 381 Z "></path><path d="M 247.5 383 L 248 389.5 L 247 389.5 L 247.5 383 Z "></path><path d="M 244.5 386 L 245 390.5 L 244 390.5 L 244.5 386 Z "></path><path d="M 95.5 476 L 97 476.5 L 94 478.5 L 97 479.5 L 90 480 Q 88.7 476.7 93.5 478 L 95.5 476 Z "></path><path d="M 99.5 477 L 106.5 478 L 108.5 477 L 108.5 478 L 102.5 479 L 99.5 478 L 99.5 477 Z "></path><path d="M 98.5 479 L 102 480.5 L 98 481 L 98.5 479 Z "></path><path d="M 92.5 482 Q 100.1 480.5 99 484 L 95.5 483 L 93.5 483 L 92.5 482 Z "></path><path d="M 306.5 488 Q 308.8 487.3 308 489.5 L 306.5 488 Z "></path><path d="M 272.5 490 L 275 491.5 L 271.5 492 L 272.5 490 Z "></path><path d="M 301 490 Q 303.7 488.9 303 491.5 L 301 492.5 L 301 490 Z "></path><path d="M 313 490 Q 315.7 488.9 315 491.5 L 313 492.5 L 313 490 Z "></path><path d="M 296 492 Q 299 491 298 494 Q 295 495 296 492 Z "></path><path d="M 308 492 Q 311 491 310 494 Q 307 495 308 492 Z "></path><path d="M 62 493 L 65 493.5 L 62 495 L 62 493 Z "></path><path d="M 267.5 493 Q 271.3 492 270 495 L 267.5 493 Z "></path><path d="M 274 494 Q 277 493 276 496 Q 273 497 274 494 Z "></path><path d="M 278 494 Q 282.1 492.7 281 496 Q 276.9 497.3 278 494 Z "></path><path d="M 40 495 L 43 495.5 L 40 497 L 38.5 500 L 37.5 498 L 40 496.5 L 40 495 Z "></path><path d="M 303.5 495 Q 305.8 494.3 305 496.5 L 303.5 495 Z "></path><path d="M 295 496 L 298 496.5 L 295 498 L 295 496 Z "></path><path d="M 282 497 L 285 497.5 L 282 499 L 282 497 Z "></path><path d="M 286 498 Q 289.7 496.5 289 499.5 Q 287.5 502.5 286 499.5 L 286 498 Z "></path><path d="M 41 499 Q 45.1 497.7 44 501 Q 39.9 502.3 41 499 Z "></path><path d="M 39 503 L 41 503.5 L 39 504.5 L 39 503 Z "></path><path d="M 311.5 503 Q 313.8 502.3 313 504.5 L 311.5 503 Z "></path><path d="M 29.5 507 Q 33.3 506 32 509 L 29.5 507 Z "></path><path d="M 36 507 Q 40.1 505.7 39 509 Q 34.9 510.3 36 507 Z "></path><path d="M 230.5 507 L 231 510 L 229 509.5 L 230.5 507 Z "></path><path d="M 26.5 508 L 27 511 Q 24.3 512.1 25 509.5 L 26.5 508 Z "></path><path d="M 34 510 Q 37 509 36 512 Q 33 513 34 510 Z "></path><path d="M 39.5 510 L 40 511.5 Q 38.5 514.5 37 511.5 L 39.5 510 Z "></path><path d="M 57 510 Q 61.1 508.7 60 512 Q 55.9 513.3 57 510 Z "></path><path d="M 28.5 512 L 29 515 Q 26.3 516.1 27 513.5 L 28.5 512 Z "></path><path d="M 152 512 Q 155 511 154 514 Q 151 515 152 512 Z "></path><path d="M 57.5 514 L 58 516 L 56 515.5 L 57.5 514 Z "></path><path d="M 47.5 515 Q 50.1 514.3 49 517 L 46 516.5 L 47.5 515 Z "></path><path d="M 135.5 515 L 138 515.5 Q 135.9 518.8 135.5 515 Z "></path><path d="M 143.5 515 Q 147.3 514 146 517 L 143.5 515 Z "></path><path d="M 283 515 Q 286 514 285 517 Q 282 518 283 515 Z "></path><path d="M 62 516 Q 65 515 64 518 Q 61 519 62 516 Z "></path><path d="M 101.5 516 Q 105.3 515 104 518 L 101.5 516 Z "></path><path d="M 106.5 516 Q 110.3 515 109 518 L 106.5 516 Z "></path><path d="M 113.5 516 L 114 518 L 112 517.5 L 113.5 516 Z "></path><path d="M 127 516 Q 131.1 514.7 130 518 Q 125.9 519.3 127 516 Z "></path><path d="M 150 516 Q 153 515 152 518 Q 149 519 150 516 Z "></path><path d="M 34.5 517 L 35 519 L 32 518.5 L 34.5 517 Z "></path><path d="M 40 517 Q 43 516 42 519 Q 39 520 40 517 Z "></path><path d="M 54.5 518 L 57 518.5 L 54.5 519 L 54.5 518 Z "></path><path d="M 157.5 518 Q 161.3 517 160 520 L 157.5 518 Z "></path><path d="M 287.5 518 L 289 521 Q 285.5 522.1 287.5 518 Z "></path><path d="M 101 519 Q 105.1 517.7 104 521 Q 99.9 522.3 101 519 Z "></path><path d="M 109 519 Q 112 518 111 521 Q 108 522 109 519 Z "></path><path d="M 116 519 L 119 519.5 L 116 521 L 116 519 Z "></path><path d="M 121.5 519 L 124 519.5 Q 121.9 522.8 121.5 519 Z "></path><path d="M 141 519 Q 144.7 517.5 144 520.5 Q 142.5 523.5 141 520.5 L 141 519 Z "></path><path d="M 154 519 Q 157 518 156 521 Q 153 522 154 519 Z "></path><path d="M 282.5 521 Q 284.8 520.3 284 522.5 L 282.5 521 Z "></path><path d="M 126.5 522 Q 129.1 521.3 128 524 L 125 523.5 L 126.5 522 Z "></path><path d="M 110 523 L 112 523.5 L 110 524.5 L 110 523 Z "></path><path d="M 138.5 523 L 139 526 Q 136.3 527.1 137 524.5 L 138.5 523 Z "></path><path d="M 115 524 Q 118 523 117 526 Q 114 527 115 524 Z "></path><path d="M 280 524 Q 283 523 282 526 Q 279 527 280 524 Z "></path><path d="M 285 524 L 287 524.5 L 285 525.5 L 285 524 Z "></path><path d="M 105.5 525 L 106.5 527 Q 103.7 527.7 105.5 525 Z "></path><path d="M 276.5 525 L 277 527.5 L 275 526.5 L 276.5 525 Z "></path><path d="M 119 526 Q 122.8 524.5 122 527.5 Q 120.5 530.5 119 527.5 L 119 526 Z "></path><path d="M 328.5 527 L 331 528.5 L 330.5 530 Q 333.1 529.2 332 532.5 L 328 533.5 L 329 529.5 L 328.5 527 Z "></path><path d="M 178 528 Q 181 527 180 530 Q 177 531 178 528 Z "></path><path d="M 112.5 529 L 113 532 L 110 530.5 L 112.5 529 Z "></path><path d="M 172 529 Q 175 528 174 531 Q 171 532 172 529 Z "></path><path d="M 272 529 Q 275.7 527.5 275 530.5 L 272 532 L 272 529 Z "></path><path d="M 165.5 530 L 166 533 Q 163.3 534.1 164 531.5 L 165.5 530 Z "></path><path d="M 191.5 530 Q 194.1 529.3 193 532 L 190 531.5 L 191.5 530 Z "></path><path d="M 280 530 Q 283 529 282 532 Q 279 533 280 530 Z "></path><path d="M 121.5 531 L 124 531.5 Q 121.9 534.8 121.5 531 Z "></path><path d="M 117 532 Q 120 531 119 534 Q 116 535 117 532 Z "></path><path d="M 160.5 533 Q 162.8 532.3 162 534.5 Q 160.5 537.5 159 534.5 L 160.5 533 Z "></path><path d="M 169 533 Q 172 532 171 535 Q 168 536 169 533 Z "></path><path d="M 178 533 L 181 534.5 L 178 535 L 178 533 Z "></path><path d="M 285.5 533 Q 288.1 532.3 287 535 L 284 534.5 L 285.5 533 Z "></path><path d="M 186 534 L 188 534.5 L 186 535.5 L 186 534 Z "></path><path d="M 330.5 534 L 332 537 Q 328.3 538.5 329 535.5 L 330.5 534 Z "></path><path d="M 163 535 Q 166 534 165 537 Q 162 538 163 535 Z "></path><path d="M 267 535 Q 270.3 533.9 269 538 Q 265.7 539.1 267 535 Z "></path><path d="M 273.5 535 L 274 538 Q 271.3 539.1 272 536.5 L 273.5 535 Z "></path><path d="M 279.5 535 Q 282.1 534.3 281 537 L 278 536.5 L 279.5 535 Z "></path><path d="M 316 535 Q 319 534 318 537 Q 315 538 316 535 Z "></path><path d="M 190.5 537 Q 194.3 536 193 539 L 190.5 537 Z "></path><path d="M 287 537 Q 290 536 289 539 Q 286 540 287 537 Z "></path><path d="M 181 538 L 184 539.5 L 181 540 L 181 538 Z "></path><path d="M 225 538 Q 228 537 227 540 Q 224 541 225 538 Z "></path><path d="M 248.5 538 L 249 540 L 247 539.5 L 248.5 538 Z "></path><path d="M 254 538 L 257 539.5 L 254 540 L 254 538 Z "></path><path d="M 272 539 Q 276.1 537.7 275 541 Q 270.9 542.3 272 539 Z "></path><path d="M 303 539 Q 306 538 305 541 Q 302 542 303 539 Z "></path><path d="M 308 539 L 311 539.5 L 308 541 L 308 539 Z "></path><path d="M 237 540 Q 241.1 538.7 240 542 Q 235.9 543.3 237 540 Z "></path><path d="M 278 540 Q 281 539 280 542 Q 277 543 278 540 Z "></path><path d="M 187 541 Q 191.1 539.7 190 543 Q 185.9 544.3 187 541 Z "></path><path d="M 201.5 541 Q 205.3 540 204 543 L 201.5 541 Z "></path><path d="M 209 541 Q 212 540 211 543 Q 208 544 209 541 Z "></path><path d="M 217.5 541 Q 221.3 540 220 543 L 217.5 541 Z "></path><path d="M 285 541 Q 288 540 287 543 Q 284 544 285 541 Z "></path><path d="M 292 541 Q 295 540 294 543 Q 291 544 292 541 Z "></path><path d="M 232.5 542 L 233 545 Q 230.3 546.1 231 543.5 L 232.5 542 Z "></path><path d="M 195.5 543 Q 197.8 542.3 197 544.5 L 195.5 543 Z "></path><path d="M 265 543 L 268 544.5 L 265 545 L 265 543 Z "></path><path d="M 203 545 Q 206 544 205 547 Q 202 548 203 545 Z "></path><path d="M 240 545 Q 243 544 242 547 Q 239 548 240 545 Z "></path><path d="M 280 545 Q 283 544 282 547 Q 279 548 280 545 Z "></path><path d="M 294.5 545 Q 299.3 543.7 298 547 Q 294.2 547.8 294.5 545 Z "></path><path d="M 273 546 Q 276 545 275 548 Q 272 549 273 546 Z "></path><path d="M 106.5 557 Q 107.7 559.3 112.5 558 L 114 559.5 L 123.5 573 L 124 560 Q 120.2 561.5 121 558.5 L 123.5 557 L 125.5 558 L 128 557 Q 128.8 560.4 126 561.5 L 127 563.5 Q 124.7 564.8 126 569.5 L 126 571.5 L 127 579.5 L 127 581.5 L 125.5 584 L 120 579.5 L 110.5 565 L 110 566.5 L 112 577.5 L 111 581 Q 115.1 579.7 114 583 L 107.5 584 Q 104.5 582.5 107.5 581 Q 110.5 581.9 109 577.5 L 108 576.5 L 108 560 Q 104.3 561.5 105 558.5 L 106.5 557 Z "></path><path d="M 213.5 557 L 218 558 Q 219 562.3 216 561.5 L 216 570.5 L 216 572.5 Q 214.8 579.8 219.5 581 L 222 580 L 220.5 583 L 217.5 584 L 212.5 580 Q 210.9 584.9 203.5 584 L 199 580.5 L 197 564.5 L 198 561 Q 193.5 562.5 195 558 L 203.5 558 L 204 559.5 Q 201 563.5 202 571.5 L 203 576.5 L 205.5 580 L 210 577.5 Q 213.9 571.2 212 560 Q 207.9 561.3 209 558 L 213.5 557 Z "></path><path d="M 225.5 557 L 239.5 557 L 244 559.5 Q 245.3 568.4 243 572 L 231 573 L 232 579.5 L 234 583 L 225.5 583 L 224 581.5 L 224.5 579 L 226 579.5 L 225 572.5 L 226 571.5 L 226 561.5 L 223 560.5 Q 221.9 557.2 224.5 558 L 225.5 557 Z M 231 560 L 232 570 L 236 569 L 238 567 L 237 562 Q 236 559 231 560 Z "></path><path d="M 70.5 558 Q 76.8 556.3 78.5 559 L 80.5 559 Q 83.9 558.1 82 563.5 Q 80.5 566.5 79 563.5 L 79 561 L 72 561 L 72.5 570 L 73 567 L 77 568.5 Q 78.5 574.5 75.5 576 L 73 574.5 L 72.5 572 L 72 580.5 Q 73.6 583.5 79 582 Q 78.3 578.2 81.5 577 L 83 579.5 L 81 585 L 76.5 586 L 66 584 L 67 580.5 L 67 561 Q 64 562 65 559 L 70.5 558 Z "></path><path d="M 88.5 558 L 90.5 559 L 91.5 558 L 100.5 558 Q 103.5 559.6 102 565 L 98 563.5 L 97.5 560 L 93.5 560 L 92 560.5 L 92 568.5 L 93 568.5 Q 91.9 564.3 96 566 L 96 575.5 L 94.5 576 L 92.5 572 L 92 579.5 L 93 582 L 99 582 L 99 578.5 L 102.5 576 L 103 582.5 L 101.5 584 L 89.5 584 L 88.5 585 L 86 584 L 87 581.5 L 87 561.5 L 84 559.5 L 88.5 558 Z "></path><path d="M 176.5 558 L 190.5 558 L 192 559.5 L 191 566.5 L 192 571 Q 187.3 571.8 186 567.5 L 184 562 L 177.5 561 Q 171.2 563.7 173 574.5 L 174 577 L 178.5 580 L 187.5 580 L 190 579 L 188.5 582 Q 184.9 584.9 177.5 584 Q 170.9 583.1 168 578.5 L 167 574.5 L 167 572.5 L 169 563.5 L 171.5 561 L 176.5 558 Z "></path><path d="M 254.5 558 L 262.5 559 L 266 558 L 266 565.5 L 264.5 567 L 259.5 560 L 254 562.5 L 255 568 Q 257.7 569.9 264.5 569 L 268 572.5 L 269 578.5 L 267 582 L 261.5 584 L 257.5 584 L 256.5 583 L 244 583 L 244 573.5 L 245.5 572 L 248 573 L 248 577 L 249.5 577 L 255.5 581 L 259.5 581 L 263 580 L 264 575.5 L 263 573 L 256.5 572 L 254.5 572 Q 250.5 572.5 250 569.5 L 249 564.5 L 254.5 558 Z "></path><path d="M 24.5 559 L 33.5 560 L 40 565.5 L 41 573.5 L 34 585.5 L 38 588.5 Q 38.5 591.5 31.5 590 Q 28.8 588.6 30 584 Q 18.5 586.3 15 579.5 L 13 571.5 L 15 565.5 L 17.5 563 L 24.5 559 Z M 26 563 L 20 568 Q 19 574 21 578 L 26 581 L 30 579 L 33 579 L 33 567 Q 32 562 26 563 Z "></path><path d="M 40 559 L 47 559 L 47 569.5 L 46 572.5 L 49.5 580 L 52.5 581 L 56 579 L 57 576.5 L 57 561.5 L 56 559 L 62 559.5 L 60 561.5 L 60 581 Q 67.1 578.6 65 585 L 59.5 585 L 55.5 583 L 51.5 586 L 48.5 585 L 43 581.5 L 42 575.5 L 42 573.5 L 43 569.5 L 42 567.5 L 43 562.5 L 40 561 L 40 559 Z "></path><path d="M 339 561 Q 342 560 341 563 Q 338 564 339 561 Z "></path><path d="M 148.5 562 L 152 564.5 L 148.5 566 Q 147.3 563.8 146 566.5 L 150.5 573 L 151 571 L 155 572.5 L 153.5 575 L 152 574.5 Q 154.9 578.1 154 585.5 Q 152.3 591.3 145 590 Q 143.9 587.3 146.5 588 L 149.5 587 Q 152.3 587.6 151 581.5 L 143 567.5 L 145.5 564 L 148.5 562 Z "></path><path d="M 139.5 574 Q 145.3 573.3 146 577.5 Q 146.8 582.3 143.5 583 Q 137.7 583.8 136 580.5 Q 135 576 137.5 575 L 139.5 574 Z M 141 576 L 139 579 Q 141 583 143 580 L 141 576 Z "></path><path d="M 282.5 577 L 285 581.5 L 280.5 584 L 278 583 L 279 578 L 282.5 577 Z "></path><path d="M 343.5 590 L 344 592 L 342 591.5 L 343.5 590 Z "></path></svg>