<svg width="350" height="600" version="1.1" xmlns="http://www.w3.org/2000/svg" desc="Created with imagetracer.js version 1.2.5"><path d="M 336.5 5 L 338 8.5 L 338 28.5 L 337 29.5 L 337 44.5 L 338 45.5 L 338 64.5 L 337 66.5 L 338 67.5 L 338 234.5 L 338 236.5 L 338 442.5 L 339 446.5 L 339 448.5 L 338 451.5 L 338 485.5 L 337 487.5 L 338 489.5 L 338 491.5 L 337 496.5 Q 339.2 497.7 338 502.5 L 337 505.5 L 338 508.5 L 337 509.5 L 337 530.5 L 338 531.5 L 338 543.5 Q 335.7 544.8 337 549.5 L 338 550.5 L 338 592.5 L 335.5 593 Q 333.3 593.8 334 591.5 L 335 590.5 L 335 554.5 L 334 551 L 329 551 L 329 548 L 332 548 L 332 543.5 Q 335 544.3 334 540 L 329.5 541 L 327 540.5 L 327.5 539 L 333 539 L 333 537 L 322.5 537 L 322 539 L 326 540.5 L 324.5 541 L 322.5 540 Q 319.5 541.6 321 547 L 318 545.5 Q 319 541 316.5 540 L 314.5 540 Q 310.1 538.5 311 541.5 Q 309 546 307 542.5 L 308.5 540 L 319 539 L 318.5 537 L 307.5 537 Q 304.5 535.5 307.5 534 L 317.5 534 L 318 532 Q 309.1 533.6 305 529.5 L 307.5 528 L 309.5 529 Q 311 526.5 316.5 528 L 318 526.5 Q 316.6 521.9 322.5 524 L 322.5 523 Q 316.5 521.5 315 524.5 Q 315.7 527.5 312 526 L 311.5 522 L 310 526 L 307 524.5 L 305.5 522 L 301.5 523 Q 300.3 520.8 299 523.5 L 297.5 526 L 296.5 523 L 292 524 L 291 526.5 L 291 537 L 288 535.5 L 288 523.5 L 286.5 522 L 285 522.5 L 285 534.5 L 283.5 535 L 282 533.5 L 281 522 L 279 522.5 L 279 530.5 L 277 531.5 L 276 524.5 L 277 522 L 247 522.5 L 248 523.5 L 248 535.5 L 247 542 Q 244.3 543.1 245 540.5 L 244 536.5 L 245 535.5 L 245 524.5 L 244 522 L 240.5 521 L 240 523 Q 242.7 521.9 242 524.5 L 243 527.5 L 240 529 L 238.5 521 L 236.5 522 L 233.5 521 L 230.5 522 L 228.5 521 L 225.5 522 L 223.5 521 L 220.5 522 L 216.5 521 L 214.5 521 L 210.5 522 L 207.5 521 Q 201.5 519.5 200 522.5 L 201 546 Q 197.2 547.5 198 544.5 L 197 541.5 L 198 540.5 L 198 530.5 L 197 527.5 L 197 521 L 194 521 L 194 534.5 L 192.5 535 L 191 533.5 L 191 522.5 L 189.5 521 Q 186.3 522.9 188 529 L 185 529 L 185 521.5 L 183.5 521 Q 180.8 522.3 183 523.5 L 184 532.5 L 181 534 L 179 526.5 L 179 524.5 Q 180.5 519.3 176 521 Q 178.1 524.4 177 532 L 174 530.5 L 173 521 L 170 521.5 L 170 530.5 L 167 528.5 Q 166.4 523.1 168 521 L 166 521.5 L 166 531 L 163 531 L 163 521.5 L 161 521 L 162 526.5 L 160.5 530 Q 157.1 530.9 159 525.5 L 158 522.5 L 158.5 521 Q 155.2 519.9 156 522.5 L 156 524.5 L 157 527.5 L 154.5 529 L 153 527.5 L 152.5 521 Q 151 523.5 145.5 522 L 143.5 521 L 140 522.5 Q 137.8 527.3 139 535.5 L 140 537.5 L 139 538.5 L 139 546 L 137 545.5 L 137 536.5 L 137 534.5 L 136 523.5 L 134.5 521 L 129.5 522 L 128 521.5 L 127 523.5 L 127 547 Q 124.3 548.1 125 545.5 Q 122.8 544.3 124 539.5 L 125 537.5 L 125 535.5 L 124 533.5 L 123.5 521 L 122 522.5 Q 123.6 532.6 121 538.5 L 122 543.5 L 121 546 L 119 545.5 L 119 522.5 L 115.5 522 Q 114.3 519.8 113 522.5 Q 116.3 523.8 115 529.5 L 112.5 531 L 111 529.5 L 111 522 L 108 522.5 Q 110.5 524 109 529.5 L 109 531.5 L 108 534.5 L 109 536.5 L 108 541.5 L 109 545.5 L 108 549 L 112.5 548 L 114.5 549 L 117.5 548 L 121.5 549 L 124.5 548 L 127.5 549 L 132.5 548 L 134.5 548 L 142 547.5 L 140 540.5 L 144 539 L 143 547.5 Q 144.3 550.3 145.5 548 L 163.5 548 L 164 546.5 L 163.5 545 Q 167.9 543.5 167 546.5 L 166.5 548 L 173.5 548 Q 172.8 545 177 546 L 177.5 548 L 193 548 L 193 540.5 L 194.5 540 Q 197.8 541.9 196 548 L 212 548 L 212 539.5 L 213.5 539 L 215 540.5 L 215 548 Q 218.8 549.5 218 546.5 Q 215.5 545 217 539.5 Q 218.5 536.5 220 539.5 Q 221.7 545.8 219 547.5 L 222 548 Q 220.5 544.3 223.5 545 L 225 548 L 227 547.5 L 226 546.5 L 226 532 L 229 533.5 L 229 545.5 L 228 548 L 232 548 L 232 546.5 L 232 544.5 L 232 532.5 L 235 532 L 235 545.5 L 234 548 L 236 547.5 L 236 538.5 Q 238.3 537.3 237 532.5 L 236 530.5 Q 237.5 527.5 239 530.5 L 240 537.5 L 239 538.5 L 239 548 L 261 547.5 L 260 546.5 L 260 536.5 L 262.5 535 Q 265.3 536.3 263 537.5 Q 264 545 262 548 Q 267.2 550.1 266 545.5 L 265 544.5 L 265 534 L 268 535.5 L 268 544.5 L 269 545.5 L 268 548 L 278 548 L 278 539.5 L 279 535 Q 281.7 533.9 281 536.5 L 282 540.5 L 280 548 Q 284.1 549.7 283 545.5 L 284.5 546 L 286 546 L 286.5 548 L 299 548 L 299 539 L 302 539 L 302 547.5 L 304.5 548 L 304 546.5 L 303 542.5 Q 304.5 539.5 306 542.5 L 307 546.5 L 306.5 548 L 327.5 548 L 328 551 L 317.5 551 L 315.5 550 L 310.5 551 L 309.5 550 L 263.5 550 L 261.5 550 L 203.5 550 L 202.5 551 L 201.5 550 L 192.5 550 L 190.5 551 L 188.5 551 Q 186.3 551.8 187 549.5 L 186 549.5 Q 186.9 552.5 182.5 551 L 180.5 550 L 179.5 551 L 21.5 551 L 20.5 550 L 12.5 550 L 11 551.5 L 11 587.5 L 13.5 591 L 22.5 591 L 23.5 590 L 24.5 591 L 79.5 591 L 80.5 592 L 81.5 591 L 163.5 591 L 165.5 590 L 166.5 591 L 316.5 591 L 317.5 592 L 318.5 591 L 331.5 591 L 332.5 593 L 328.5 594 L 327.5 593 L 260.5 593 L 258.5 592 L 257.5 593 L 221.5 593 L 219.5 593 L 164.5 593 L 162.5 592 L 161.5 593 L 140.5 594 Q 139.2 591.8 134.5 593 L 132.5 593 L 88.5 593 L 83.5 594 L 79.5 593 L 77.5 594 L 75.5 593 L 73.5 594 L 71.5 594 L 69.5 593 L 57.5 593 L 56.5 592 L 55.5 593 L 37.5 593 L 35.5 592 L 34.5 593 L 9 593 L 10 589.5 L 8 589 Q 10.1 585.7 9 577.5 L 8 572.5 L 9 569.5 L 8 565.5 L 9 563.5 L 8 562.5 L 8 480.5 L 7 477.5 L 8 476.5 L 8 401.5 L 9 400.5 L 9 392.5 L 8 389.5 L 9 384.5 L 8 383.5 L 8 327.5 L 7 324.5 Q 9.5 323 8 317.5 L 7 316.5 L 7 186.5 Q 9.8 184.8 8 178.5 L 7 177.5 L 7 166.5 L 8 164.5 L 7 163.5 L 7 144.5 L 7 142.5 L 7 131.5 L 8 130.5 L 7 129.5 L 7 8.5 L 8.5 7 L 118.5 7 L 120.5 7 L 123.5 8 L 125.5 8 L 128.5 7 L 132.5 8 L 134.5 7 L 136.5 8 L 138.5 7 L 140.5 8 L 143.5 7 Q 145 9.5 150.5 8 L 152.5 8 L 168.5 8 L 169.5 7 L 174.5 8 L 176.5 8 L 183.5 7 Q 185 9.5 190.5 8 L 192.5 8 L 205.5 7 L 207.5 7 L 211.5 8 L 212.5 7 L 291.5 7 L 293.5 6 L 294.5 7 L 334.5 7 L 336.5 5 Z M 85 9 L 84 10 L 74 10 L 74 30 L 75 31 L 74 38 L 75 40 L 76 40 L 76 22 L 75 19 L 77 12 L 77 25 L 77 27 L 77 39 L 79 41 L 79 22 L 79 20 L 78 17 L 80 11 L 80 32 L 81 33 L 80 37 L 81 41 L 82 41 L 82 22 L 81 21 L 82 15 L 81 12 L 83 11 L 83 41 L 85 42 L 85 12 Q 87 10 85 9 Z M 249 9 L 249 24 L 250 25 L 249 26 L 249 42 L 248 43 L 249 47 L 248 50 L 249 54 L 249 56 Q 248 58 251 57 L 250 56 L 251 51 L 250 48 L 251 14 L 252 11 L 249 9 Z M 254 9 L 253 29 L 252 30 L 252 57 L 254 57 L 254 14 L 255 13 L 254 9 Z M 257 9 L 256 24 L 255 25 L 256 27 L 255 31 L 256 34 L 255 36 L 255 57 Q 258 58 257 54 L 257 52 L 257 14 L 258 13 L 257 9 Z M 261 9 L 259 11 Q 260 15 258 17 L 259 19 L 259 29 L 258 30 L 258 39 L 259 40 L 259 56 L 261 56 L 260 54 L 261 52 L 261 29 L 260 28 L 261 12 Q 263 10 261 9 Z M 268 9 L 266 11 Q 267 15 265 17 L 266 19 L 266 45 L 265 47 L 265 49 Q 264 51 267 50 L 269 47 L 268 46 L 268 19 L 267 17 L 267 15 L 268 12 Q 270 10 268 9 Z M 272 9 Q 268 11 270 18 L 270 20 Q 272 25 269 27 L 270 31 L 269 35 L 269 37 L 270 40 L 270 47 L 272 47 L 273 45 L 272 41 L 272 39 L 272 25 L 273 24 L 272 23 L 272 9 Z M 275 9 L 273 11 L 273 20 L 274 21 Q 275 25 273 27 L 274 29 L 273 34 L 273 36 L 275 45 L 276 34 L 276 32 L 275 28 L 276 23 L 275 9 Z M 277 9 L 277 44 L 282 43 L 282 9 L 280 11 L 280 40 Q 282 41 280 42 L 279 34 L 278 33 L 279 31 L 279 21 L 278 20 L 279 17 L 278 15 L 278 13 L 279 11 Q 280 8 277 9 Z M 286 9 L 283 10 L 283 30 L 284 31 L 284 43 L 286 43 L 286 31 L 285 30 Q 284 24 286 23 L 286 9 Z M 288 9 L 288 22 L 287 23 L 287 37 L 289 44 L 290 43 L 290 19 L 291 18 L 290 15 L 291 11 L 288 9 Z M 293 9 L 292 20 L 291 21 Q 290 28 293 27 L 293 21 L 294 20 L 293 18 L 294 16 L 293 14 L 294 12 L 293 9 Z M 297 9 L 295 11 L 294 31 L 294 33 L 295 48 L 297 49 Q 298 44 296 43 Q 299 41 297 36 L 297 34 L 297 9 Z M 300 9 L 298 13 L 299 17 L 298 20 L 298 38 L 299 39 L 298 43 L 299 48 L 298 50 L 302 61 L 302 71 L 303 72 L 302 78 L 291 99 L 292 101 L 292 147 L 291 121 L 291 119 L 290 102 Q 287 103 289 105 L 288 107 L 288 117 L 289 118 L 288 121 L 289 125 L 288 127 L 289 129 L 289 144 L 288 131 L 287 130 L 287 105 Q 284 106 286 108 L 286 125 L 285 126 L 286 129 L 286 144 L 284 125 L 284 123 L 285 115 L 285 113 L 284 111 L 285 109 L 285 107 L 279 111 L 279 163 L 280 164 L 279 169 L 280 171 L 280 216 L 281 217 L 280 220 Q 279 224 281 226 L 281 235 L 280 236 L 282 243 L 292 256 L 297 272 L 297 274 L 301 285 L 307 284 L 308 287 Q 306 297 301 304 L 309 310 L 311 310 L 311 308 L 319 312 L 323 317 L 325 325 Q 323 326 324 332 L 320 341 L 314 345 Q 312 349 313 358 L 314 358 L 314 351 L 316 350 L 316 406 L 317 407 L 316 409 L 317 410 L 317 429 L 317 431 Q 318 435 316 437 L 316 450 L 317 451 L 317 464 L 316 465 L 317 468 L 316 471 L 317 482 L 319 481 L 320 431 L 321 430 L 320 428 L 320 403 L 319 402 L 320 400 L 319 392 L 319 390 L 320 388 L 320 368 L 321 367 Q 323 360 320 359 L 320 344 L 322 343 L 321 345 L 324 355 L 324 383 L 323 384 L 324 440 L 324 442 Q 326 453 322 460 L 323 461 L 323 479 L 323 481 Q 322 484 326 482 L 325 480 L 326 478 L 326 460 L 328 454 L 328 444 L 330 436 L 330 405 L 329 404 L 329 388 L 327 379 L 326 337 L 325 336 L 325 331 L 332 319 L 332 316 L 327 310 Q 323 311 324 309 L 321 307 L 317 299 L 310 266 L 309 266 L 309 271 L 312 281 L 312 295 L 313 296 L 312 298 L 315 306 L 311 307 Q 312 299 309 296 L 309 278 L 307 273 L 306 263 L 301 252 Q 302 244 300 240 L 290 234 L 295 247 L 295 251 L 297 253 L 298 259 L 302 267 L 302 269 L 302 279 L 298 270 L 298 262 L 295 258 L 295 254 L 293 252 L 289 237 L 285 235 L 282 231 Q 281 227 284 228 L 285 231 L 289 233 L 288 227 L 282 219 L 289 225 Q 288 227 291 226 L 292 217 Q 289 215 293 214 Q 294 211 290 212 L 288 207 L 285 209 Q 282 208 283 211 L 282 211 L 283 206 L 290 204 L 293 209 L 294 207 Q 293 204 296 205 L 295 194 L 288 202 Q 283 201 282 206 L 281 204 L 285 201 L 289 196 L 293 193 L 297 187 Q 299 188 298 185 L 295 186 L 282 197 L 281 195 L 285 192 Q 284 189 287 190 L 289 187 L 289 171 L 288 170 L 289 168 L 288 164 L 289 151 L 290 159 L 291 187 L 292 186 L 292 160 L 292 158 Q 293 152 291 150 L 293 151 L 293 185 L 296 184 L 295 182 L 296 180 Q 297 175 295 174 L 295 149 L 294 148 L 296 142 L 296 171 L 297 172 L 297 183 L 299 183 L 299 165 L 298 164 L 298 115 L 297 112 L 298 89 L 298 102 L 298 104 L 299 107 L 299 141 L 300 142 L 299 151 L 299 153 L 301 183 L 302 181 L 301 179 L 301 177 L 302 175 L 302 159 L 301 158 L 302 151 L 303 154 L 303 181 L 302 182 Q 301 185 304 184 Q 309 187 309 195 L 312 194 L 319 197 L 323 204 Q 328 209 335 211 L 334 209 L 335 207 Q 337 201 334 200 L 335 194 L 335 192 L 334 188 L 334 137 L 335 136 L 334 134 L 335 122 L 335 120 L 334 117 L 334 94 L 333 93 L 334 88 L 333 83 L 334 80 L 333 78 L 334 75 L 334 19 L 335 18 L 334 16 L 335 14 L 334 10 L 333 19 L 332 20 L 333 29 L 333 31 L 333 67 L 332 68 L 331 59 L 331 55 L 332 53 L 331 49 L 332 44 L 331 42 L 332 40 L 332 38 Q 334 31 331 30 L 332 27 L 331 23 L 332 9 Q 329 8 330 12 L 330 14 L 330 18 L 328 13 L 329 11 Q 328 8 326 11 L 326 21 L 327 22 L 326 23 L 326 31 L 326 33 L 327 36 L 326 48 L 325 49 Q 324 54 327 55 L 327 56 L 324 53 L 325 48 L 325 20 L 324 19 L 325 17 L 325 10 L 323 9 L 323 30 L 322 31 L 323 33 L 323 45 L 322 47 L 322 49 Q 320 55 323 57 L 322 60 L 323 65 L 321 65 L 321 42 L 322 39 L 321 34 Q 320 29 322 28 L 321 26 L 321 10 L 319 11 L 319 66 L 317 66 L 317 60 L 318 59 L 318 50 L 317 49 L 318 44 L 318 24 L 317 23 L 318 21 L 318 10 L 316 9 L 315 13 L 315 40 L 316 41 L 315 45 L 316 48 L 315 53 L 315 69 L 314 69 L 314 12 L 315 11 L 312 9 L 311 12 L 312 17 L 312 46 L 311 48 L 311 50 L 311 65 L 312 66 L 312 68 L 310 67 Q 311 62 309 61 L 310 59 L 310 46 L 311 45 L 310 40 L 311 38 L 310 10 L 308 11 L 308 28 L 309 29 L 309 38 L 308 39 L 309 41 L 308 46 L 308 48 L 309 50 L 308 53 L 308 72 L 306 68 L 307 64 L 307 37 L 308 34 L 307 30 L 307 9 L 305 11 L 305 23 L 304 24 L 305 28 L 305 42 L 304 43 L 305 45 L 304 63 L 303 63 L 303 50 L 304 49 L 303 48 L 303 18 L 304 15 Q 305 10 303 9 L 301 16 L 301 53 L 300 12 Q 302 10 300 9 Z M 11 10 L 12 16 L 11 33 L 11 35 L 11 87 L 10 88 L 11 96 L 13 98 L 15 97 L 15 102 L 14 100 L 13 100 L 12 98 L 10 104 L 13 103 L 13 110 L 12 104 Q 9 105 11 107 L 10 111 L 10 113 L 11 118 L 10 120 L 11 127 L 13 129 L 12 128 L 11 138 L 10 139 L 11 141 L 10 145 L 11 147 L 10 149 L 11 151 L 11 166 L 13 166 L 12 182 L 11 183 L 12 185 L 12 200 L 10 203 L 11 206 L 10 208 L 11 211 L 11 232 L 13 231 L 12 229 L 14 222 L 14 226 L 14 228 L 15 229 L 17 224 L 17 216 Q 19 209 16 208 L 18 184 L 18 204 L 18 206 L 18 216 L 17 217 L 18 220 Q 16 221 19 222 L 20 216 Q 21 211 19 210 L 20 205 L 20 203 L 20 191 L 19 190 L 20 188 Q 18 182 22 183 L 21 185 L 21 219 L 23 219 L 24 216 L 24 214 L 23 212 L 24 210 L 24 196 L 23 195 L 25 184 L 25 216 L 27 216 L 27 182 L 28 182 L 28 216 Q 28 217 34 216 L 33 215 Q 32 209 34 208 L 33 205 L 34 202 Q 36 195 33 194 L 34 187 L 33 187 Q 30 186 31 190 L 32 195 L 31 200 L 31 204 L 31 212 L 32 213 L 31 215 L 29 211 L 30 209 L 30 192 L 29 191 L 30 188 L 30 176 L 28 173 L 31 172 L 31 143 L 30 142 L 31 140 L 31 125 L 32 124 L 30 114 L 32 113 L 30 109 L 32 109 Q 33 105 31 106 L 31 103 L 33 104 L 33 93 L 34 92 L 33 90 L 34 89 L 34 79 L 35 78 L 34 75 L 35 58 L 35 74 L 36 75 Q 37 79 35 81 L 36 83 L 35 85 L 35 103 L 34 104 L 34 112 L 35 113 L 36 163 L 37 157 L 37 155 L 37 116 L 36 115 L 37 113 L 36 110 L 37 105 L 37 84 L 38 82 L 37 79 L 38 74 L 39 74 L 38 130 L 38 132 Q 36 138 40 140 L 40 118 L 41 117 L 40 99 L 40 95 L 41 93 Q 42 88 40 87 L 40 78 L 41 77 L 41 66 L 40 65 Q 39 59 41 58 L 41 43 L 40 42 Q 38 35 41 34 L 41 12 L 43 13 L 42 17 L 42 82 L 42 84 L 42 99 L 41 104 L 41 106 L 42 109 L 42 120 L 41 121 L 42 124 L 41 126 Q 40 130 43 131 L 43 105 L 44 100 L 43 95 L 44 94 L 44 70 L 45 70 L 45 108 L 44 109 Q 43 114 45 116 L 44 118 L 44 154 L 43 154 L 43 133 L 41 132 L 41 142 L 42 143 L 41 145 L 42 148 Q 43 152 41 154 L 43 156 L 45 155 L 46 154 L 46 112 L 47 109 L 47 71 L 49 70 L 48 73 Q 46 79 49 81 L 48 82 L 48 120 L 47 121 L 47 132 L 48 133 L 47 134 L 47 155 L 50 154 L 55 156 L 59 160 L 58 157 L 59 150 L 58 147 Q 56 140 59 139 L 59 113 L 58 112 L 59 105 L 59 103 Q 60 96 58 93 L 57 93 L 58 96 L 57 98 L 57 155 L 56 154 L 56 152 L 55 150 Q 54 145 56 144 Q 58 137 55 136 L 55 127 L 56 126 L 55 124 L 56 118 L 56 116 L 56 105 L 55 104 L 56 103 L 56 92 L 57 91 Q 58 86 55 85 L 54 137 L 53 138 L 54 141 L 54 154 L 52 154 L 52 137 L 52 135 L 52 126 L 53 125 L 53 115 L 52 114 L 53 112 L 52 94 L 52 92 L 53 85 L 53 83 L 52 76 L 51 129 L 50 130 Q 49 134 51 136 L 50 138 L 50 149 L 51 150 L 50 153 L 49 151 L 50 77 L 51 76 Q 52 67 49 63 Q 47 56 50 55 L 49 52 L 50 48 L 50 27 L 50 25 L 52 11 L 52 36 L 52 38 L 51 40 L 52 58 L 53 56 L 52 53 L 53 52 L 53 32 L 53 30 L 54 28 L 53 24 Q 56 20 54 13 L 56 12 L 55 34 L 55 36 L 54 38 Q 53 42 55 44 L 54 46 L 55 53 L 56 52 Q 55 47 57 46 L 56 44 L 57 43 L 57 17 L 57 15 L 58 13 L 60 12 Q 57 17 59 28 L 58 29 L 59 31 L 58 33 L 59 47 L 60 46 L 61 13 L 62 13 L 62 39 L 61 40 Q 60 44 63 45 L 64 12 L 65 12 L 65 25 L 64 26 L 65 30 L 65 32 L 64 36 L 64 43 L 66 43 L 66 21 L 67 20 L 66 18 L 67 13 L 68 13 L 68 23 L 67 24 L 68 26 Q 69 30 67 32 L 68 34 L 67 39 L 68 41 L 70 40 L 69 35 L 69 13 L 71 12 L 71 26 L 70 27 L 71 40 L 73 40 L 73 18 L 73 16 Q 74 10 73 10 L 49 10 L 49 24 L 48 26 L 48 28 Q 47 32 49 34 L 48 35 L 48 69 L 46 68 L 47 64 L 46 60 L 46 56 L 47 52 L 47 16 L 48 15 Q 48 10 48 10 L 27 10 L 27 72 L 26 77 L 26 79 L 27 81 L 27 83 L 25 81 L 24 101 L 26 102 L 24 102 L 25 109 L 25 103 L 27 104 L 26 105 L 26 149 L 25 146 L 24 146 L 24 170 L 25 171 L 24 182 L 23 153 L 22 152 L 23 150 L 22 129 L 22 127 L 23 125 L 23 78 L 22 77 L 23 72 L 22 69 L 23 54 L 23 52 L 22 48 L 22 30 L 23 29 L 22 27 L 23 25 L 23 11 L 21 10 L 21 25 L 20 26 Q 19 30 21 32 L 21 54 L 20 55 L 19 50 L 19 48 Q 18 42 20 41 L 19 34 L 18 32 L 17 46 L 18 49 Q 19 54 17 56 L 16 26 L 16 24 L 17 23 L 18 11 L 18 15 L 18 17 Q 16 23 20 22 L 20 10 L 11 10 Z M 24 10 L 24 36 L 23 37 L 24 40 L 23 43 L 24 46 L 25 80 L 26 72 L 26 11 L 24 10 Z M 87 10 L 86 14 L 87 29 L 87 31 L 86 32 L 86 41 L 86 43 L 89 44 L 88 43 L 88 14 L 89 12 L 90 12 Q 92 18 89 20 L 90 21 L 90 47 L 91 47 L 91 13 L 93 12 L 92 16 L 93 20 L 92 23 L 92 27 L 93 34 L 93 36 L 92 41 L 94 41 L 94 14 L 96 13 L 95 17 L 96 19 L 95 29 L 95 31 L 97 49 L 98 13 L 99 13 L 99 29 L 98 30 L 99 35 L 98 37 L 98 49 L 97 50 L 98 52 L 98 53 L 95 52 L 94 50 L 95 47 L 94 42 L 92 48 Q 93 54 98 57 L 104 57 L 104 50 L 104 48 L 103 45 L 103 43 L 104 21 L 104 19 L 104 10 L 87 10 Z M 105 10 L 105 37 L 104 38 L 105 39 L 105 57 L 107 57 L 107 34 L 108 31 L 108 23 L 107 22 L 107 14 L 108 13 Q 109 8 105 10 Z M 109 10 L 109 13 L 109 15 L 109 57 L 111 57 L 110 54 L 111 49 L 110 45 Q 113 39 111 29 L 112 28 L 111 26 L 111 13 L 113 12 L 113 33 L 112 34 L 113 37 L 112 40 L 112 56 L 114 57 Q 116 56 114 55 L 114 42 L 115 41 L 114 38 L 115 35 L 115 23 L 114 22 Q 117 20 115 15 Q 113 13 116 12 L 116 15 L 116 17 L 116 57 L 119 57 L 118 56 L 118 41 L 119 40 L 118 36 L 119 33 L 118 29 L 118 27 L 119 25 L 119 12 L 120 12 L 120 49 L 119 50 L 120 51 L 120 57 L 122 57 L 122 13 L 123 13 L 123 57 L 127 57 L 128 56 L 128 45 L 129 44 L 129 22 L 128 21 L 129 16 Q 131 9 127 10 L 126 15 Q 124 21 127 23 L 126 24 L 126 54 L 125 12 L 126 10 L 118 10 L 117 11 L 116 10 L 109 10 Z M 131 10 L 130 57 L 132 57 L 131 54 L 132 44 L 132 42 L 132 13 L 131 10 Z M 133 10 L 133 23 L 134 24 L 133 26 L 133 57 L 135 57 L 134 55 L 134 53 L 135 51 L 134 50 L 134 42 L 134 40 L 135 35 L 135 11 L 133 10 Z M 137 10 L 137 12 L 136 18 L 136 20 L 137 23 L 136 27 L 137 30 L 136 33 L 136 54 L 138 56 Q 140 55 138 54 L 138 26 L 139 25 L 138 23 L 138 21 L 140 11 L 140 38 L 140 40 L 140 57 L 142 57 Q 144 56 142 55 L 142 12 L 144 11 L 143 14 L 144 16 L 143 21 L 144 24 L 143 27 L 144 30 L 143 32 L 143 43 L 144 44 L 143 47 L 143 49 L 145 57 L 145 44 L 146 43 L 144 39 L 146 32 L 145 29 L 145 13 L 147 11 L 147 14 L 147 16 Q 146 19 149 18 L 150 11 L 150 18 L 152 18 L 152 12 L 154 12 L 154 18 Q 158 19 156 13 L 158 12 L 157 18 L 159 18 L 159 12 L 161 12 L 160 18 L 163 18 L 163 12 L 165 13 L 164 17 L 166 18 Q 164 11 168 12 L 169 18 Q 171 17 170 13 L 171 13 Q 169 18 173 17 L 174 18 L 173 16 Q 174 10 173 10 L 137 10 Z M 174 10 L 175 14 Q 173 19 177 18 L 178 11 L 179 15 L 178 17 L 180 19 L 180 18 L 180 16 L 181 13 L 182 13 Q 181 19 184 18 L 185 17 L 184 14 L 186 13 L 187 18 L 189 11 L 190 19 L 189 20 L 189 32 L 188 33 L 188 56 L 190 57 L 190 50 L 190 48 Q 189 42 191 41 L 190 38 L 191 36 L 192 12 L 193 20 Q 191 21 192 27 L 192 29 L 192 57 L 194 57 L 195 12 L 196 29 L 196 31 L 196 52 L 195 53 L 196 57 L 197 57 L 197 12 L 199 11 L 198 17 L 199 21 L 199 51 L 198 52 L 199 57 L 201 57 L 200 56 L 200 28 L 200 26 Q 199 17 202 13 L 202 57 L 204 56 L 203 54 Q 202 48 204 47 L 205 12 L 205 24 L 206 25 Q 208 30 205 32 L 205 57 L 207 57 L 206 54 L 207 52 L 206 50 L 207 46 L 207 13 L 209 12 L 208 15 L 208 17 L 209 19 L 209 32 L 208 35 L 209 37 L 208 39 Q 206 45 209 47 L 208 50 Q 207 55 210 57 L 210 29 L 211 28 L 210 25 L 210 23 L 211 20 L 211 18 L 210 16 L 211 12 L 211 10 L 174 10 Z M 212 10 L 212 45 L 211 46 Q 209 54 213 57 L 213 46 L 214 45 L 213 42 Q 212 37 214 36 L 213 33 L 214 31 L 213 29 L 214 26 L 214 16 L 213 15 L 215 11 L 215 57 L 218 57 Q 215 53 216 46 L 216 44 L 217 43 L 217 13 L 219 14 Q 220 18 218 20 L 219 31 L 218 34 L 218 54 L 219 55 Q 218 58 221 57 L 220 56 L 220 19 L 221 18 L 221 10 L 212 10 Z M 222 10 L 222 57 L 224 57 L 223 53 L 224 50 L 223 47 L 224 44 L 224 11 L 222 10 Z M 225 10 L 225 57 L 227 57 L 227 50 L 226 49 L 227 48 L 228 11 L 229 14 L 228 17 L 228 56 L 230 57 L 231 57 L 230 56 L 230 46 L 232 46 L 230 45 L 231 12 L 232 12 L 232 39 L 231 40 L 232 45 L 232 47 L 232 57 L 234 57 L 234 50 L 233 49 L 235 44 L 235 55 L 235 57 L 238 58 L 237 54 L 239 55 Q 238 58 241 57 L 240 56 L 240 37 L 241 35 L 242 35 L 241 39 L 242 44 Q 244 50 241 52 L 242 57 L 244 58 L 243 53 L 244 50 L 244 21 L 245 17 L 244 14 Q 243 11 246 12 L 246 30 L 245 31 L 246 35 L 245 37 L 246 42 L 245 46 Q 243 54 247 58 L 247 28 L 248 27 L 248 16 L 247 15 L 248 11 L 225 10 Z M 263 10 L 262 13 L 262 30 L 263 31 L 262 34 L 263 54 L 264 53 L 264 39 L 265 38 L 265 30 L 264 29 L 265 24 L 264 20 Q 263 15 265 14 Q 266 9 263 10 Z M 151 20 L 150 35 L 151 35 L 151 20 Z M 159 20 L 157 22 L 157 37 L 159 37 L 159 20 Z M 162 20 L 161 37 L 163 37 L 163 27 L 164 26 L 162 20 Z M 169 20 L 169 26 L 170 26 L 169 20 Z M 173 20 L 171 22 Q 170 29 172 33 Q 175 34 174 32 L 174 30 L 173 20 Z M 176 20 L 176 28 L 177 26 Q 178 21 176 20 Z M 147 21 L 147 37 L 149 37 L 149 22 L 147 21 Z M 187 21 L 185 30 L 186 33 L 185 35 L 187 37 L 188 26 L 188 24 L 187 21 Z M 184 22 L 182 24 L 182 36 L 184 37 L 184 22 Z M 19 23 L 17 31 L 19 31 L 19 23 Z M 165 27 L 164 31 L 166 32 L 165 27 Z M 181 29 L 178 33 L 180 37 L 180 34 L 181 31 L 181 29 Z M 293 29 Q 290 35 291 45 L 293 46 L 293 29 Z M 147 39 L 147 57 L 152 58 L 153 55 L 152 52 L 153 50 L 152 47 L 153 45 Q 155 38 151 39 L 150 45 L 151 47 L 151 56 L 149 56 L 149 40 L 147 39 Z M 154 39 L 154 58 L 156 57 L 158 58 L 163 57 L 165 57 Q 168 58 166 54 L 166 52 L 166 39 L 165 41 L 164 44 L 165 46 L 164 47 L 164 56 L 163 54 L 163 52 L 163 40 L 161 39 L 161 56 L 159 54 L 160 51 L 159 47 L 159 40 L 157 39 L 158 46 L 157 55 L 158 56 L 156 56 L 156 40 L 154 39 Z M 169 39 Q 166 40 168 42 L 167 46 L 168 48 L 167 54 L 167 56 Q 166 58 169 57 L 169 39 Z M 171 39 L 171 56 L 173 57 L 173 40 L 171 39 Z M 175 39 L 175 51 L 174 52 L 175 55 Q 174 58 177 57 L 176 54 Q 175 49 177 48 L 177 40 L 175 39 Z M 179 39 L 179 44 L 178 46 L 178 57 L 180 57 L 179 54 Q 178 49 180 48 Q 182 41 179 39 Z M 183 39 L 181 45 L 181 57 L 184 57 L 184 41 L 183 39 Z M 185 40 L 185 57 L 187 57 L 187 41 L 185 40 Z M 71 44 L 65 47 L 60 52 Q 59 58 54 62 Q 53 70 56 75 L 55 77 L 62 90 L 62 94 L 66 103 Q 68 107 70 104 L 69 101 L 69 94 L 73 94 L 73 101 L 74 102 L 73 104 L 73 113 L 74 114 L 73 119 L 73 167 L 74 168 L 74 190 L 75 192 L 75 194 L 74 196 L 76 215 L 76 212 L 76 210 L 78 206 L 77 203 L 77 199 L 82 188 L 90 174 Q 94 175 97 172 L 100 167 Q 102 168 101 165 L 108 162 L 110 163 Q 115 165 114 162 Q 117 158 124 159 L 125 154 L 131 146 L 131 136 L 133 134 L 135 123 L 132 110 L 132 99 L 136 94 L 135 94 Q 130 95 132 90 L 131 90 Q 133 96 127 94 L 127 89 Q 127 94 125 95 L 122 94 Q 124 88 120 89 Q 121 94 119 95 L 116 95 L 116 89 L 113 90 L 114 95 L 111 95 L 111 89 L 108 89 L 109 92 L 108 95 L 105 94 Q 107 88 104 89 L 104 91 Q 105 94 102 93 Q 101 97 104 96 L 104 129 L 102 128 L 102 117 L 101 133 L 103 132 L 103 138 L 104 141 L 103 142 L 102 139 L 101 151 L 104 151 Q 103 148 106 149 L 107 157 L 105 156 L 104 158 Q 103 160 102 158 L 101 162 L 99 163 L 97 161 L 98 153 L 98 149 Q 100 142 97 141 L 98 140 L 98 88 L 100 86 L 135 86 L 137 86 L 140 87 L 148 86 L 163 79 L 164 77 L 161 76 Q 158 75 159 72 L 163 69 L 167 71 Q 167 68 172 69 Q 174 70 174 74 Q 173 76 168 76 L 169 79 L 184 86 L 246 86 L 247 87 L 253 86 L 253 170 L 254 171 L 254 189 L 255 191 L 256 191 L 255 188 Q 254 183 256 182 L 255 177 L 258 175 L 258 183 L 257 184 L 257 196 L 264 207 Q 263 209 266 208 L 270 216 L 273 224 L 273 222 L 276 224 Q 277 228 275 230 L 276 237 L 277 237 L 277 187 L 276 186 L 277 184 L 277 162 L 276 161 L 277 157 L 276 152 L 277 148 L 277 146 L 276 144 L 277 139 L 276 123 L 276 121 L 276 113 L 277 112 L 275 105 L 275 94 L 272 89 L 273 78 L 271 76 Q 265 72 263 65 L 264 60 L 264 58 L 257 61 L 217 61 L 216 60 Q 214 63 209 61 L 207 61 L 204 60 L 201 61 L 197 60 L 195 61 L 192 60 L 188 61 L 184 60 L 182 61 Q 176 63 175 60 L 171 61 L 169 60 L 157 60 L 156 61 L 150 60 L 146 60 L 142 61 Q 140 59 135 60 L 133 60 L 98 60 L 97 61 L 95 60 L 92 71 L 85 77 L 80 76 L 77 75 L 78 77 L 78 83 L 72 92 L 69 91 L 74 80 L 73 77 Q 71 72 75 73 L 77 73 L 79 72 L 81 73 L 86 72 Q 90 71 89 65 L 90 62 L 89 59 L 89 57 L 86 49 Q 84 45 79 45 L 77 45 Q 75 43 71 44 Z M 280 45 L 276 47 Q 269 51 267 61 Q 266 68 270 71 L 280 78 Q 281 80 279 79 Q 277 77 276 80 Q 274 90 279 94 L 278 102 L 281 103 L 282 106 L 287 101 L 293 89 L 294 84 L 298 78 L 299 73 L 298 71 L 298 60 L 294 52 L 286 45 L 280 45 Z M 168 72 Q 167 75 170 74 Q 171 71 168 72 Z M 163 81 L 161 83 L 163 83 L 163 81 Z M 167 81 L 166 91 Q 169 92 168 90 L 168 88 Q 169 82 167 81 Z M 171 81 L 170 84 L 181 93 Q 180 95 183 94 Q 184 91 181 90 L 182 88 L 185 90 L 186 93 L 190 95 L 191 98 Q 193 101 194 98 L 192 94 Q 189 95 190 93 L 179 85 L 177 86 L 171 81 Z M 160 83 Q 158 86 157 84 L 142 91 L 137 97 Q 134 96 135 99 L 137 98 L 143 99 L 144 97 L 148 94 L 151 88 L 155 86 L 156 87 L 153 91 L 154 93 L 161 84 L 160 83 Z M 163 84 Q 157 87 157 95 Q 162 95 164 92 L 163 84 Z M 170 86 L 170 92 Q 175 91 177 95 Q 180 96 179 94 L 170 86 Z M 197 89 L 197 92 L 193 93 L 196 94 L 200 104 L 196 121 L 196 124 L 205 140 Q 206 144 204 146 L 205 153 L 210 160 L 213 160 L 216 159 Q 222 159 226 162 Q 228 161 227 164 Q 235 164 240 169 L 243 171 L 249 180 L 250 180 L 250 102 L 249 101 L 246 97 L 247 96 L 247 94 L 244 96 Q 247 97 246 103 L 249 104 L 249 125 L 248 130 Q 245 131 246 129 L 247 126 L 246 124 L 247 122 L 246 120 L 246 106 L 245 106 Q 247 111 243 110 L 243 100 L 242 99 L 243 96 L 243 91 L 241 94 L 239 94 L 239 90 Q 236 89 237 94 L 234 95 L 234 90 L 232 94 L 229 94 L 229 89 L 227 89 L 228 92 L 227 94 L 224 93 Q 225 88 222 89 L 221 93 Q 222 95 218 94 L 218 89 L 217 92 L 215 93 L 213 90 L 212 90 Q 213 94 209 92 L 209 89 L 208 92 L 206 93 L 204 89 L 201 94 L 199 92 Q 200 88 197 89 Z M 137 90 L 136 93 L 137 93 L 137 90 Z M 152 94 L 148 95 L 145 99 Q 144 103 148 103 L 151 101 L 152 103 L 153 101 L 157 104 L 158 99 L 152 94 Z M 164 94 L 160 99 L 162 112 L 170 112 L 171 111 L 175 112 L 176 99 Q 174 92 164 94 Z M 184 95 L 181 96 L 178 99 L 178 112 L 183 113 L 185 113 L 188 115 L 189 106 L 186 108 Q 180 109 179 106 Q 178 101 182 100 Q 187 99 189 103 L 189 99 L 184 95 Z M 250 96 L 248 98 L 250 98 L 250 96 Z M 61 100 L 61 108 L 61 110 L 60 118 L 60 120 Q 59 124 61 126 L 60 129 L 61 131 L 60 133 L 60 153 L 59 154 L 60 156 L 59 161 L 60 164 Q 61 172 58 175 L 62 174 L 61 170 L 62 143 L 63 142 Q 65 135 62 134 L 63 130 L 62 127 L 63 123 L 63 104 L 61 100 Z M 135 100 L 134 104 L 134 106 L 137 120 L 145 116 L 144 112 L 145 110 Q 146 105 143 105 L 144 102 Q 141 99 135 100 Z M 194 100 Q 191 101 193 103 L 192 106 L 195 105 L 194 107 L 195 110 L 197 105 Q 199 98 194 100 Z M 185 102 L 184 105 L 185 105 L 185 102 Z M 156 105 L 156 107 Q 155 110 150 109 L 147 108 L 148 114 L 153 114 L 159 111 L 158 109 Q 159 104 156 105 Z M 65 106 L 64 110 L 66 111 Q 67 107 65 106 Z M 70 109 Q 67 110 68 114 L 70 113 L 70 109 Z M 191 110 L 190 115 L 195 117 L 196 113 L 191 110 Z M 25 111 L 24 132 L 24 134 L 23 139 L 25 138 L 25 111 Z M 64 112 L 65 127 L 66 121 L 65 118 L 66 114 Q 67 111 64 112 Z M 34 113 L 32 115 Q 30 121 33 123 L 32 125 L 32 175 L 34 176 L 34 166 L 35 165 L 34 164 L 34 113 Z M 68 114 L 67 120 L 68 120 L 68 114 Z M 168 114 L 151 117 L 149 120 L 153 119 L 159 121 Q 165 123 163 118 L 164 118 Q 163 121 166 120 L 167 120 L 166 126 Q 168 127 166 128 L 161 125 L 158 126 L 157 129 L 159 129 L 160 129 L 160 130 L 152 130 Q 147 128 150 127 L 150 125 L 146 130 L 148 134 L 146 141 L 146 148 L 146 150 L 145 152 L 147 155 L 148 148 L 149 151 Q 147 156 151 155 L 151 147 L 150 149 L 149 149 L 149 145 L 152 139 L 153 142 L 155 141 L 154 138 L 152 137 L 149 142 Q 150 144 147 143 L 149 139 L 151 136 L 153 135 L 152 137 L 154 136 L 155 138 L 157 133 L 159 134 L 155 139 Q 154 141 157 140 L 155 144 L 156 145 L 160 141 L 162 141 L 161 140 L 163 141 Q 164 143 162 142 Q 157 143 158 150 L 154 151 L 155 156 L 157 155 L 157 169 L 156 168 L 155 168 Q 154 171 157 170 L 158 173 L 158 192 L 159 193 Q 160 195 157 194 L 160 205 Q 161 208 159 209 Q 156 210 157 208 L 155 207 L 158 216 L 159 216 Q 157 209 161 210 L 162 213 L 161 215 L 161 217 L 162 221 L 163 221 Q 161 214 165 215 L 166 220 L 161 224 L 163 226 L 163 223 L 168 224 Q 170 225 169 229 L 174 228 L 173 227 L 173 217 L 172 216 L 172 207 L 174 206 L 176 221 L 177 218 L 179 228 L 178 230 L 181 231 L 181 229 L 181 227 L 181 214 L 183 213 L 184 231 L 185 229 L 184 227 L 184 209 L 184 207 L 185 190 L 186 192 L 186 200 L 187 200 Q 189 191 186 188 Q 182 186 185 185 L 184 182 L 184 180 L 185 178 L 184 176 L 184 174 Q 186 168 182 169 L 180 162 L 182 161 L 181 160 L 183 159 L 184 169 L 186 168 L 187 170 L 187 182 L 189 184 L 190 202 L 191 200 Q 193 194 190 193 L 191 191 L 190 189 Q 189 184 191 183 L 189 174 L 190 159 L 189 159 Q 191 164 188 163 L 188 161 L 186 162 Q 182 159 183 152 L 179 144 L 178 148 L 175 149 L 173 148 L 172 150 Q 171 152 168 151 L 166 147 L 163 149 L 159 148 L 162 146 L 163 143 L 168 144 L 168 143 L 163 139 L 165 135 L 165 138 Q 166 140 168 138 L 171 140 L 173 137 L 169 122 Q 171 118 177 120 L 178 119 Q 180 113 175 115 L 176 118 L 176 119 L 174 115 L 168 114 Z M 180 116 L 180 120 L 182 117 L 180 116 Z M 184 117 L 183 119 L 183 120 L 185 120 L 184 117 Z M 188 117 L 188 120 L 189 120 Q 190 116 188 117 Z M 145 118 L 138 122 L 137 125 L 138 128 L 140 124 L 142 123 L 140 130 L 142 129 L 144 130 L 144 123 L 145 122 L 145 118 Z M 66 122 L 66 134 L 68 134 L 68 123 L 66 122 Z M 153 122 L 153 124 L 156 123 L 153 122 Z M 181 122 Q 179 125 183 124 Q 184 129 181 130 L 179 129 L 175 134 L 175 136 L 175 138 L 171 143 L 169 144 L 174 145 L 178 144 L 176 142 L 175 140 Q 179 139 181 142 L 183 144 L 181 141 L 182 139 L 181 139 L 179 136 L 183 135 L 182 137 L 183 138 L 186 134 L 184 130 L 185 128 L 184 123 L 181 122 Z M 191 122 L 190 129 L 192 129 L 192 131 L 193 131 L 191 122 Z M 196 126 L 197 135 L 199 136 L 196 126 Z M 137 128 L 134 135 L 133 149 L 130 150 L 127 157 L 132 155 L 133 160 Q 135 159 133 158 L 134 152 L 139 148 L 143 149 L 144 145 L 144 142 L 142 146 L 140 146 L 142 143 Q 141 139 144 140 L 145 138 L 142 136 L 144 135 L 143 133 Q 144 130 141 131 L 140 144 L 138 146 Q 133 147 135 143 L 138 141 L 139 137 Q 136 134 137 128 Z M 191 133 L 191 138 L 191 150 L 192 152 L 195 154 L 192 149 L 192 140 L 193 139 Q 194 134 191 133 Z M 66 135 L 67 139 Q 68 143 66 145 L 66 173 L 64 172 L 64 164 L 64 162 Q 67 155 65 145 L 66 144 L 65 137 L 64 146 L 63 147 L 63 174 L 68 174 L 68 138 L 69 137 L 66 135 Z M 195 137 L 194 139 L 194 141 L 194 147 L 199 156 Q 200 158 197 157 Q 196 160 201 159 L 201 157 L 203 158 L 196 146 Q 198 139 195 137 Z M 25 139 L 24 144 L 25 144 L 25 139 Z M 203 140 L 201 142 L 202 145 L 203 142 L 203 140 Z M 40 141 L 38 149 L 39 158 L 41 152 L 40 151 L 40 141 Z M 153 142 L 151 144 L 153 145 L 153 142 Z M 70 144 L 70 177 Q 72 176 70 175 Q 69 170 71 169 L 70 167 L 70 144 Z M 187 145 Q 184 149 188 148 L 187 145 Z M 202 149 L 202 152 L 203 152 Q 204 148 202 149 Z M 139 150 L 136 154 L 137 156 L 140 155 L 138 158 L 140 158 Q 143 157 142 151 L 139 150 Z M 187 153 Q 184 159 188 158 L 187 153 Z M 148 155 L 147 158 L 148 158 L 148 155 Z M 46 156 L 44 157 L 39 163 L 40 173 L 46 176 L 53 175 L 57 169 Q 58 162 55 160 Q 53 156 48 156 L 46 156 Z M 151 156 L 150 160 L 151 160 L 151 156 Z M 206 156 L 204 159 L 206 159 L 206 156 Z M 126 161 L 123 162 L 123 163 L 128 163 L 126 161 Z M 155 162 L 154 167 L 155 167 L 155 162 Z M 152 166 L 151 174 L 153 174 L 153 176 L 154 176 L 152 166 Z M 36 169 Q 33 175 37 177 L 38 174 L 36 169 Z M 237 171 L 236 173 L 239 174 L 237 171 Z M 39 175 Q 38 178 41 177 Q 42 174 39 175 Z M 66 176 L 61 178 L 59 177 L 58 178 L 45 178 L 43 179 L 41 179 Q 34 180 32 178 L 34 184 L 38 181 L 47 181 L 47 185 L 47 187 L 48 218 L 49 219 L 48 221 L 49 222 L 50 257 L 51 258 L 51 272 L 52 273 Q 51 277 56 275 L 57 276 L 56 262 L 56 260 L 59 256 L 61 264 L 62 262 Q 60 260 61 256 L 61 254 L 63 249 Q 62 246 65 247 L 66 244 Q 61 244 59 249 L 60 251 L 57 256 L 53 190 L 53 188 L 52 183 L 58 180 L 66 182 L 67 183 Q 68 175 66 176 Z M 152 177 Q 149 186 152 192 L 155 190 L 156 192 L 156 190 L 156 188 L 156 185 L 152 186 L 152 177 Z M 219 177 L 218 180 Q 220 183 221 180 L 219 179 L 219 177 Z M 236 179 L 237 181 Q 238 178 236 179 Z M 38 183 L 38 211 L 36 209 L 37 206 L 37 184 L 35 186 L 35 216 L 34 217 L 36 217 L 37 218 L 36 214 Q 35 211 38 212 L 39 222 L 40 222 L 39 219 L 39 209 L 40 208 L 39 205 L 40 202 L 39 199 Q 38 192 40 189 L 40 187 Q 41 182 38 183 Z M 43 183 L 42 193 L 41 194 L 41 213 L 41 217 Q 42 221 40 223 L 41 226 L 45 229 L 45 200 L 43 196 L 44 190 L 44 188 L 43 183 Z M 56 183 L 57 214 L 58 215 L 58 232 L 59 234 L 72 236 L 74 235 Q 76 229 71 231 L 70 225 L 71 219 L 71 217 L 69 213 Q 71 211 70 207 L 70 205 L 69 202 L 69 187 L 70 186 L 70 183 L 67 187 L 67 210 L 68 211 L 68 229 L 69 230 L 68 232 L 67 214 L 66 213 L 66 187 Q 68 185 66 184 L 65 196 L 64 197 L 64 206 L 65 207 L 64 209 L 65 212 L 65 228 L 63 229 L 64 224 L 63 191 L 63 189 L 64 185 L 63 183 L 56 183 Z M 301 185 Q 297 187 298 192 L 306 195 L 307 193 L 306 190 L 301 185 Z M 298 194 L 296 196 L 299 200 L 298 202 L 303 206 L 305 206 L 298 194 Z M 311 196 L 304 197 L 304 200 Q 307 199 306 202 L 317 205 L 316 210 Q 318 214 323 215 L 321 215 L 323 221 Q 322 224 328 222 L 334 229 L 334 225 L 335 223 Q 331 224 332 222 L 326 217 Q 323 218 324 215 L 335 221 L 334 220 L 335 213 Q 325 210 320 202 Q 317 203 318 201 Q 316 196 311 196 Z M 153 198 L 156 204 L 157 204 L 156 200 L 153 198 Z M 191 203 L 190 206 L 191 206 L 191 203 Z M 311 205 L 309 207 L 311 207 L 312 208 L 311 205 Z M 297 206 L 296 210 L 300 212 Q 304 213 306 211 L 309 212 L 315 227 L 320 229 L 321 232 L 325 235 L 331 238 L 334 238 L 334 235 L 330 226 L 327 224 L 323 224 Q 319 222 319 216 L 312 209 L 303 208 L 297 206 Z M 187 210 L 188 216 L 190 211 L 187 210 Z M 296 213 L 294 219 L 297 220 L 304 231 L 305 239 L 307 242 Q 308 245 305 244 L 303 244 L 304 253 L 308 262 L 308 265 L 309 265 L 309 261 L 305 250 Q 303 243 308 245 L 311 255 L 313 268 L 314 268 L 313 255 L 312 254 L 312 245 L 311 244 L 311 234 L 312 233 L 311 222 L 306 213 L 304 214 L 296 213 Z M 27 218 L 23 223 L 30 227 L 32 226 L 30 221 L 27 218 Z M 32 218 L 34 223 Q 33 231 36 235 L 38 236 Q 40 224 35 220 L 32 218 Z M 75 218 L 71 223 L 72 224 L 75 220 L 75 218 Z M 295 222 L 293 224 L 292 232 L 296 234 L 302 240 L 300 229 L 298 225 L 295 222 Z M 21 224 Q 18 232 11 236 L 13 236 L 14 239 L 16 240 L 27 240 L 28 241 Q 30 240 29 243 L 31 244 L 27 234 L 23 231 L 21 224 Z M 25 226 L 29 230 L 32 236 L 33 236 L 32 231 Q 30 226 25 226 Z M 41 228 L 40 231 L 43 237 L 43 240 L 46 242 Q 47 235 44 232 L 41 230 L 41 228 Z M 165 228 L 163 230 L 165 230 L 165 228 Z M 169 229 L 167 232 L 169 231 L 169 229 Z M 316 229 L 313 238 L 314 251 L 315 252 L 315 262 L 318 270 L 324 275 L 323 273 L 323 253 L 329 240 L 316 229 Z M 82 233 L 78 238 L 80 238 L 82 238 L 83 235 Q 84 232 82 233 Z M 60 236 L 60 245 L 66 241 L 71 244 L 72 241 L 71 238 L 70 238 L 62 236 L 60 236 Z M 34 237 L 34 241 L 33 243 L 34 246 L 36 245 L 34 237 Z M 93 237 L 96 240 L 96 238 L 93 237 Z M 37 238 L 39 248 L 46 252 Q 45 244 40 240 Q 41 237 37 238 Z M 11 239 L 11 247 L 18 245 Q 26 246 31 251 L 33 250 L 26 243 L 16 243 L 13 241 Q 14 238 11 239 Z M 79 240 L 75 245 L 80 241 L 79 240 Z M 85 240 L 85 242 L 84 244 L 86 243 Q 89 244 88 242 L 85 240 Z M 333 240 L 327 248 Q 329 253 326 255 L 327 274 L 330 284 L 331 284 L 331 265 L 330 264 L 331 250 L 334 243 Q 335 239 333 240 Z M 111 243 L 109 245 L 111 245 L 111 243 Z M 70 246 L 70 251 L 69 254 L 64 251 L 66 255 L 65 257 L 66 263 L 67 258 Q 66 255 70 256 L 73 251 L 70 246 Z M 112 247 Q 111 251 114 250 Q 115 246 112 247 Z M 11 249 L 11 253 L 23 255 L 25 254 L 27 255 L 32 254 L 37 255 L 42 263 L 45 264 L 48 267 L 47 261 L 36 252 L 34 252 L 29 254 L 27 252 L 24 249 L 11 249 Z M 75 249 Q 74 252 77 251 Q 78 248 75 249 Z M 95 251 Q 93 254 96 253 L 95 251 Z M 11 255 L 11 258 Q 18 259 23 264 L 24 264 Q 21 262 22 258 L 21 256 L 11 255 Z M 45 255 L 47 258 Q 49 259 48 257 L 45 255 Z M 75 255 L 70 265 L 66 269 L 66 271 L 69 269 L 71 270 Q 73 268 72 263 L 75 261 L 75 255 Z M 26 257 L 26 263 L 27 263 L 26 257 Z M 32 257 L 29 259 L 30 262 L 43 267 Q 44 269 45 267 L 39 264 L 38 260 L 35 259 Q 36 255 32 257 Z M 83 258 L 80 259 L 78 262 L 75 265 L 76 266 L 73 273 L 70 272 L 68 275 L 70 274 L 80 281 L 81 277 Q 80 273 83 274 L 85 271 L 84 269 L 86 266 L 88 267 L 90 264 L 93 266 L 93 264 L 89 262 Q 86 263 87 260 L 90 261 L 91 261 Q 90 257 83 258 Z M 334 259 L 332 264 L 334 269 L 335 269 L 334 259 Z M 11 261 L 11 277 L 13 277 L 14 275 L 12 270 Q 15 266 21 267 Q 18 261 11 261 Z M 284 263 Q 282 266 285 265 L 284 263 Z M 33 265 L 30 268 L 28 279 L 28 297 L 31 310 L 34 312 L 35 310 L 35 298 L 36 297 L 35 295 L 36 292 L 36 274 Q 38 272 37 268 L 33 265 Z M 120 265 Q 120 274 115 277 L 116 280 L 118 279 Q 121 278 119 283 L 122 283 L 123 281 L 122 275 L 121 278 L 117 277 L 121 275 L 120 265 Z M 286 265 L 285 268 L 288 268 L 286 267 L 286 265 Z M 280 266 L 280 270 L 277 271 L 273 271 Q 270 270 271 273 L 269 273 L 269 275 Q 268 277 271 276 L 270 279 Q 267 280 268 278 L 269 276 L 266 277 Q 269 279 268 286 L 265 288 L 267 288 L 268 295 L 273 298 L 273 295 L 277 291 Q 278 293 279 291 L 278 288 L 284 285 L 285 283 L 293 279 Q 295 278 294 281 L 296 281 L 297 284 Q 296 286 299 285 L 297 282 L 298 280 L 295 279 L 295 275 L 292 275 L 292 273 Q 289 274 290 272 Q 289 269 288 271 L 286 270 L 282 270 Q 284 265 280 266 Z M 26 267 L 24 269 Q 17 268 15 270 L 16 274 L 16 276 L 11 282 Q 10 291 13 297 L 14 285 L 18 276 L 18 273 L 20 274 L 19 276 L 20 278 L 17 288 L 19 287 L 21 306 L 29 310 L 26 296 L 26 283 L 26 281 L 27 279 L 27 277 L 27 268 L 26 267 Z M 108 267 L 106 270 L 108 269 L 108 267 Z M 315 268 L 314 274 L 318 287 L 317 289 L 320 299 L 324 304 Q 323 306 326 305 L 334 315 L 335 307 L 335 297 L 332 294 Q 327 291 327 284 L 322 280 L 320 275 L 315 272 L 315 268 Z M 41 269 L 39 275 L 39 296 L 38 297 L 38 308 L 37 309 L 38 315 Q 39 311 43 312 L 42 310 Q 41 305 43 304 L 42 301 L 44 298 L 45 300 L 46 309 L 47 309 Q 46 306 49 307 L 50 311 L 50 306 L 46 305 L 47 301 Q 44 298 45 293 L 42 292 L 43 287 L 41 283 L 43 276 L 49 274 L 49 270 L 47 273 Q 44 274 45 270 L 41 269 Z M 62 269 L 60 271 L 62 281 L 63 281 Q 65 272 62 269 Z M 101 269 L 101 276 L 100 277 L 101 279 L 103 271 Q 104 268 101 269 Z M 333 271 L 333 287 L 332 288 L 334 291 Q 336 292 335 289 L 335 287 L 334 285 L 334 273 L 335 272 L 333 271 Z M 68 275 L 66 277 L 68 277 L 68 275 Z M 52 276 L 45 278 L 45 283 L 47 283 Q 48 286 50 282 L 54 283 L 58 282 Q 59 285 61 281 L 60 278 L 52 276 Z M 83 276 Q 81 279 84 278 L 83 276 Z M 71 277 L 69 279 L 70 282 L 68 282 Q 71 286 70 295 L 66 298 Q 63 299 64 297 L 63 297 L 64 300 L 62 303 L 64 307 L 66 306 L 69 302 L 68 300 L 69 297 Q 74 295 72 301 L 74 300 L 74 294 L 71 288 L 73 280 L 76 282 L 79 289 L 79 296 Q 76 295 77 298 L 80 297 Q 82 287 78 283 L 71 277 Z M 106 277 L 104 280 L 106 279 L 106 277 Z M 111 279 L 110 281 Q 113 280 112 283 L 116 283 L 116 281 L 113 281 Q 114 278 111 279 Z M 265 280 L 265 282 L 267 281 L 265 280 Z M 64 282 L 61 285 L 63 288 L 64 288 L 64 282 Z M 293 282 L 291 284 L 294 290 L 295 305 L 298 304 L 298 295 L 294 285 Q 295 281 293 282 Z M 73 283 L 76 293 L 77 293 L 74 285 Q 75 282 73 283 Z M 121 283 L 110 285 L 105 284 Q 104 287 107 286 L 109 286 L 111 287 Q 110 290 105 289 L 105 291 L 103 291 L 101 291 L 95 293 L 97 293 Q 98 297 92 295 L 92 296 Q 95 295 94 298 L 92 299 L 86 298 L 84 295 L 82 298 Q 79 297 80 300 L 68 309 L 65 309 L 61 312 L 57 312 L 57 313 Q 63 315 65 312 L 67 313 L 78 311 Q 82 309 81 313 L 77 316 L 60 317 L 71 319 L 70 320 Q 63 318 62 321 L 47 314 L 44 315 L 38 323 L 40 335 L 44 337 L 43 339 L 46 339 L 47 342 L 50 340 L 51 345 L 52 339 L 48 338 L 42 331 L 42 326 L 46 320 L 49 321 L 51 320 L 51 324 L 54 323 L 57 330 L 60 328 L 61 336 L 61 335 Q 63 332 64 335 L 63 338 L 64 339 L 66 338 Q 67 342 65 343 L 60 340 L 60 336 L 59 338 Q 56 339 57 337 L 56 337 Q 55 341 58 342 L 60 341 Q 62 342 60 344 Q 59 346 62 345 L 63 345 Q 62 349 66 347 L 65 350 Q 63 355 67 354 L 66 359 Q 63 360 67 362 Q 68 368 66 367 L 63 363 L 64 361 L 63 357 L 61 356 L 57 361 L 59 363 L 61 362 L 62 365 L 61 367 Q 60 369 63 368 L 66 373 Q 65 375 68 374 L 70 374 L 73 377 Q 75 376 74 379 L 70 381 L 66 380 Q 67 377 63 378 L 62 376 Q 63 373 61 374 Q 58 373 59 369 L 58 369 L 54 364 L 55 362 L 54 358 L 53 362 L 50 361 Q 49 356 53 358 L 51 355 Q 52 348 50 349 L 48 349 L 49 351 L 48 353 L 48 391 L 48 393 L 48 415 L 49 416 L 48 419 L 48 421 Q 47 425 49 427 L 48 430 L 49 432 L 49 449 L 48 450 L 49 452 Q 51 458 48 460 L 48 480 L 49 481 L 48 483 L 48 494 L 49 495 L 48 496 L 48 504 L 50 503 L 51 504 L 67 504 L 68 505 L 70 504 L 73 505 L 88 505 L 89 504 L 89 463 L 89 461 L 90 457 L 89 454 L 89 431 L 90 430 L 89 426 L 90 422 L 90 420 L 90 399 L 89 398 L 90 389 L 90 387 L 91 385 L 106 385 L 106 383 Q 96 382 90 384 L 91 381 L 104 381 L 103 371 L 93 370 L 91 371 L 92 369 L 103 369 L 103 367 L 91 367 L 90 366 L 88 367 L 88 395 L 86 395 L 85 393 L 85 377 L 86 376 L 85 372 Q 84 366 86 365 L 86 358 L 83 362 L 84 365 L 79 376 L 75 377 Q 74 370 77 367 Q 78 363 75 364 L 77 361 L 78 364 L 80 360 L 79 357 Q 80 353 77 354 L 76 352 L 78 349 L 78 345 Q 81 346 80 342 L 82 342 L 83 338 L 82 336 L 85 322 Q 87 318 89 322 L 89 319 L 93 321 L 95 320 L 95 325 L 98 326 L 94 337 Q 92 341 86 340 L 87 343 L 92 341 L 93 342 L 95 339 L 99 336 L 101 330 L 100 329 Q 102 321 99 318 Q 96 313 88 313 L 83 319 Q 82 321 81 319 L 77 320 Q 76 316 80 317 L 82 312 L 86 310 L 93 310 L 103 302 L 104 300 L 115 290 Q 117 291 116 289 L 121 285 L 122 286 L 121 283 Z M 287 283 L 290 297 L 290 305 L 293 304 L 292 293 L 289 286 Q 290 282 287 283 Z M 49 284 Q 49 287 46 286 L 46 291 L 50 290 L 60 290 L 61 291 L 61 289 L 56 285 L 49 286 L 49 284 Z M 256 284 L 253 285 L 253 287 Q 252 289 256 288 Q 259 290 255 292 L 257 292 L 258 293 L 260 290 L 259 290 L 256 284 Z M 96 285 L 95 289 L 103 289 L 103 286 L 96 285 Z M 300 286 L 298 288 L 300 288 L 300 286 Z M 282 287 L 280 289 L 283 297 L 283 305 Q 285 308 287 304 Q 287 294 283 290 Q 284 286 282 287 Z M 305 287 L 303 288 L 301 291 L 299 292 L 301 292 L 300 294 Q 299 298 302 297 L 305 290 L 305 287 Z M 64 288 L 63 292 L 65 296 Q 68 295 67 290 L 64 288 Z M 265 288 L 264 291 L 265 291 L 265 288 Z M 93 289 L 89 292 L 92 292 L 93 293 L 93 289 Z M 165 289 L 164 292 L 165 292 L 165 289 Z M 17 290 L 16 293 L 17 293 L 17 290 Z M 266 292 L 265 295 L 266 295 L 266 292 Z M 51 293 L 47 294 L 49 298 Q 53 299 54 296 Q 55 298 60 297 L 61 295 L 60 293 L 51 293 Z M 87 293 L 85 295 L 88 295 Q 89 292 87 293 Z M 167 293 L 168 295 Q 169 292 167 293 Z M 276 294 L 277 305 L 274 307 L 277 308 L 280 307 Q 281 300 278 297 Q 279 293 276 294 Z M 124 295 L 125 304 Q 127 307 128 304 L 124 295 Z M 267 295 L 266 298 L 272 301 L 273 301 L 267 295 Z M 113 298 L 113 301 Q 116 300 113 298 Z M 182 298 L 181 305 L 182 305 L 182 298 Z M 55 299 L 49 300 L 48 304 L 49 305 L 54 302 L 56 302 L 60 301 Q 61 297 55 299 Z M 196 299 L 195 302 L 196 302 L 196 299 Z M 18 300 L 17 305 L 21 313 L 23 323 L 30 328 L 32 330 L 32 319 L 31 318 L 31 317 L 30 314 L 22 308 Q 18 306 18 300 Z M 191 300 L 190 304 L 191 304 L 191 300 Z M 109 301 L 107 303 Q 106 305 109 304 L 109 301 Z M 270 301 L 269 304 L 270 304 L 270 301 Z M 14 302 L 13 305 L 14 305 L 14 302 Z M 55 303 L 53 309 L 59 309 L 59 304 L 55 303 Z M 149 303 Q 148 307 151 306 Q 152 302 149 303 Z M 263 303 L 262 304 Q 257 303 259 307 L 263 306 L 265 307 L 264 309 L 260 311 L 261 312 L 265 310 L 266 307 Q 269 306 268 310 L 270 309 L 278 313 L 279 314 L 280 312 L 294 312 L 296 312 L 300 311 L 303 314 L 302 318 L 298 319 L 300 315 L 285 314 L 283 314 L 279 315 L 285 317 L 284 320 L 270 313 L 264 313 L 260 315 L 258 323 L 262 336 L 265 340 L 268 342 L 268 340 L 262 332 L 262 323 L 264 323 L 263 321 Q 264 318 266 320 L 269 318 L 270 321 L 274 319 L 277 325 L 279 324 L 278 327 L 280 335 L 279 337 L 280 339 L 281 337 L 280 333 L 281 329 L 284 331 L 283 335 L 284 335 Q 283 332 287 333 L 287 340 L 286 340 L 284 340 Q 283 343 286 342 L 285 346 L 288 347 L 287 349 L 282 351 L 280 350 L 277 347 L 276 347 Q 275 351 278 350 L 279 361 L 283 359 Q 286 358 284 363 L 286 362 Q 288 361 287 364 L 284 365 L 285 367 L 293 372 L 295 371 Q 298 370 297 366 Q 300 364 298 363 L 299 357 L 295 358 L 296 354 L 294 349 Q 293 344 296 343 Q 295 340 298 341 L 298 339 L 300 339 L 301 337 L 298 338 L 296 338 Q 297 342 293 340 Q 292 336 296 337 L 296 333 L 299 334 Q 298 329 301 327 L 303 331 L 304 326 L 303 323 L 306 322 Q 305 318 310 320 L 314 320 Q 316 319 315 322 L 317 322 L 315 327 L 317 327 L 316 332 L 310 337 Q 307 333 305 338 L 307 343 L 314 338 Q 316 339 315 336 L 318 336 L 320 332 L 320 320 L 318 317 Q 316 311 308 313 L 307 316 L 304 315 L 305 312 L 302 309 Q 300 305 299 308 L 296 307 L 290 307 L 288 309 Q 282 308 281 310 Q 273 311 270 307 L 268 304 L 263 303 Z M 273 304 Q 271 307 274 306 L 273 304 Z M 191 305 L 190 308 L 191 308 L 191 305 Z M 117 307 L 116 310 L 119 310 Q 120 306 117 307 Z M 107 308 L 107 310 L 109 309 L 107 308 Z M 155 309 Q 154 312 157 311 Q 158 308 155 309 Z M 180 309 L 181 311 Q 182 308 180 309 Z M 210 309 L 209 312 L 210 312 L 210 309 Z M 17 310 L 16 314 L 19 325 L 20 341 L 24 349 Q 26 352 27 349 L 24 336 L 20 327 L 19 317 L 17 310 Z M 113 310 Q 110 314 114 313 L 113 310 Z M 178 310 L 177 314 L 178 314 L 178 310 Z M 183 310 L 184 312 Q 185 309 183 310 Z M 185 311 Q 184 314 187 313 Q 188 310 185 311 Z M 145 312 L 145 314 L 147 313 L 145 312 Z M 155 312 L 153 314 L 154 316 L 155 316 L 155 312 Z M 15 313 L 15 338 L 15 340 L 15 349 L 16 350 Q 18 355 15 357 L 16 374 L 18 385 L 20 385 L 19 384 L 19 374 L 18 373 L 18 359 L 17 358 Q 16 353 18 352 L 18 340 L 16 334 L 15 313 Z M 109 313 L 107 316 L 109 315 L 109 313 Z M 139 313 L 140 315 L 142 314 L 139 313 Z M 159 313 L 158 316 L 159 316 L 159 313 Z M 182 313 L 181 316 L 182 316 L 182 313 Z M 128 314 Q 125 316 128 317 L 129 315 L 128 314 Z M 163 314 L 162 319 L 163 319 L 163 314 Z M 187 314 L 185 316 L 187 316 L 187 314 Z M 35 315 L 33 323 L 34 330 L 35 330 L 34 325 L 37 317 Q 38 314 35 315 Z M 12 316 L 11 372 L 13 380 L 13 381 L 11 382 L 11 390 L 11 392 L 11 400 L 12 401 L 11 404 L 11 406 L 14 410 L 14 420 L 15 421 Q 14 424 17 423 L 16 418 Q 19 417 18 420 L 19 420 L 19 400 Q 16 398 18 392 L 14 380 L 13 361 L 12 360 L 13 359 L 13 346 L 12 341 L 12 324 L 13 323 L 12 316 Z M 168 316 L 166 319 L 168 318 L 168 316 Z M 138 317 L 136 318 L 136 319 Q 138 318 137 321 L 139 321 L 138 317 Z M 128 318 L 128 319 L 130 319 L 128 318 Z M 107 319 L 106 322 L 107 323 L 109 320 L 107 319 Z M 114 319 L 114 320 L 116 320 L 114 319 Z M 143 320 L 142 323 L 143 323 L 143 320 Z M 153 320 L 151 322 L 153 322 L 153 320 Z M 207 320 L 206 323 L 207 323 L 207 320 Z M 216 320 L 217 322 Q 218 319 216 320 Z M 332 320 Q 331 326 327 331 Q 328 339 334 343 Q 336 342 334 341 L 334 333 L 335 332 L 334 327 L 334 325 Q 336 319 332 320 Z M 146 321 L 146 323 L 148 322 L 146 321 Z M 170 321 L 169 328 L 167 329 L 170 329 L 172 331 Q 169 328 170 321 Z M 197 321 L 198 323 Q 199 320 197 321 Z M 112 322 L 110 325 L 112 324 L 112 322 Z M 154 322 L 154 326 L 154 325 Q 156 323 154 322 Z M 180 324 L 179 329 L 180 329 L 180 324 Z M 310 324 L 308 326 L 309 335 L 312 331 L 310 324 Z M 23 325 Q 21 329 25 331 Q 25 339 29 345 L 29 344 L 29 342 L 32 337 L 31 330 L 23 325 Z M 110 325 L 109 328 L 110 328 L 110 325 Z M 166 325 L 165 328 L 166 328 L 166 325 Z M 267 325 L 266 328 Q 265 333 268 335 L 274 337 L 272 328 L 272 325 L 267 325 Z M 91 326 L 87 327 L 86 330 L 86 337 L 89 337 L 92 333 Q 93 327 91 326 Z M 130 326 L 129 329 L 130 329 L 130 326 Z M 159 326 L 157 328 Q 156 330 159 329 L 159 326 Z M 186 326 L 184 328 L 186 328 L 186 326 Z M 47 327 L 45 329 L 49 335 L 53 336 L 52 329 Q 51 326 47 327 Z M 126 327 L 124 330 L 126 330 L 126 327 Z M 143 327 L 142 331 L 143 331 L 143 327 Z M 138 328 L 136 332 L 138 332 L 138 328 Z M 148 328 Q 146 331 149 330 L 148 328 Z M 129 329 L 127 331 L 129 331 L 129 329 Z M 134 329 L 134 334 L 135 332 L 134 329 Z M 185 329 L 184 332 L 185 332 L 185 329 Z M 36 331 L 35 341 L 38 354 L 40 368 L 41 362 L 41 346 L 44 348 L 44 363 L 43 364 L 43 392 L 44 393 L 43 395 L 43 404 L 44 405 L 43 408 L 44 413 L 45 413 L 45 347 L 38 337 L 37 339 L 36 339 L 37 337 L 36 331 Z M 153 331 L 151 335 L 153 334 L 153 331 Z M 160 331 L 161 335 L 162 335 Q 164 330 160 331 Z M 167 331 L 166 334 L 167 334 L 167 331 Z M 142 332 L 140 334 L 142 334 L 142 332 Z M 147 332 L 146 335 L 147 335 L 147 332 Z M 106 333 L 106 335 L 108 334 L 106 333 Z M 181 333 L 180 336 L 181 336 L 181 333 Z M 253 333 L 252 336 L 253 336 L 253 333 Z M 172 334 L 170 336 L 172 336 L 172 334 Z M 146 335 L 145 339 L 146 339 L 146 335 Z M 159 335 L 158 338 L 159 338 L 159 335 Z M 184 335 L 185 337 Q 186 334 184 335 Z M 176 336 L 175 339 L 176 339 L 176 336 Z M 107 337 L 106 340 L 107 340 L 107 337 Z M 111 337 L 109 341 L 111 340 L 111 337 Z M 132 337 L 132 339 L 134 338 L 132 337 Z M 194 337 L 193 340 L 194 340 L 194 337 Z M 147 339 L 146 341 L 148 342 L 147 339 Z M 33 340 L 32 344 L 33 344 L 33 340 Z M 270 340 Q 268 344 272 343 L 274 346 L 276 342 L 276 340 L 270 340 Z M 106 341 L 105 345 L 107 346 L 106 341 Z M 139 341 L 140 343 L 142 342 L 139 341 Z M 109 342 L 109 344 L 111 343 L 109 342 Z M 279 342 L 280 347 L 282 348 L 281 343 L 279 342 Z M 330 342 L 330 346 L 330 354 L 329 355 L 330 357 L 330 375 L 333 388 L 332 393 L 333 411 L 334 412 L 333 414 L 334 417 L 334 429 L 333 430 L 334 433 L 333 434 L 333 450 L 332 451 L 333 453 L 335 450 L 334 448 L 335 446 Q 337 439 334 438 L 335 436 L 335 406 L 334 405 L 335 402 L 335 400 L 335 388 L 334 387 L 334 378 L 335 377 L 334 373 L 334 347 L 330 342 Z M 150 343 L 151 345 Q 152 342 150 343 Z M 303 343 L 298 348 Q 297 351 300 350 L 303 345 L 303 343 Z M 128 344 L 128 347 L 129 347 Q 130 343 128 344 Z M 250 344 L 243 348 L 244 349 L 252 345 L 250 344 Z M 34 345 L 33 347 L 33 349 L 33 350 L 32 349 L 31 349 L 32 357 L 34 361 Q 35 367 33 369 L 31 368 Q 32 359 29 355 Q 30 352 27 353 L 29 362 L 30 373 L 34 380 L 34 388 L 33 389 L 33 406 L 36 416 L 40 418 L 37 427 Q 36 437 39 444 L 38 460 L 37 461 L 37 473 L 35 474 L 35 451 L 36 450 L 35 436 L 31 428 L 30 442 L 30 444 L 31 446 L 31 482 L 35 480 Q 37 481 36 478 L 42 474 Q 44 459 40 450 L 41 447 L 40 445 L 40 432 L 39 431 Q 38 425 41 426 L 41 391 L 39 392 L 39 413 L 36 413 L 35 407 L 36 404 L 35 401 L 37 391 Q 39 384 36 383 L 36 378 L 38 372 Q 38 365 35 361 L 35 352 L 34 345 Z M 162 345 L 161 348 L 162 348 L 162 345 Z M 167 346 L 166 348 L 168 349 L 167 346 Z M 21 347 L 19 355 L 21 363 L 22 397 L 23 398 L 24 412 L 24 414 L 27 427 L 27 440 L 28 440 L 28 419 L 27 417 L 27 415 L 28 413 L 27 401 L 26 400 L 27 397 L 26 394 L 26 380 L 29 376 L 26 367 L 26 359 L 21 347 Z M 83 347 L 80 352 L 82 352 L 83 350 L 83 347 Z M 89 347 L 88 349 Q 90 348 89 351 L 90 351 L 89 347 Z M 156 347 L 155 351 L 156 351 L 156 347 Z M 189 347 L 189 348 L 191 348 L 189 347 Z M 205 347 L 206 349 L 208 348 L 205 347 Z M 251 347 L 239 355 Q 231 360 227 370 L 227 371 Q 229 370 228 373 L 231 372 L 230 377 Q 226 378 228 373 L 226 373 Q 225 377 228 380 L 233 383 L 231 380 L 232 376 L 236 375 L 236 372 L 234 375 L 232 373 L 236 370 L 237 372 L 240 368 L 243 369 L 242 367 Q 239 368 240 365 Q 244 364 245 367 L 245 370 L 239 380 L 240 383 Q 246 375 249 363 L 250 368 Q 252 365 251 360 L 247 359 Q 241 361 242 357 L 254 359 L 256 361 L 258 360 L 257 362 Q 259 363 258 368 L 259 368 Q 261 356 256 351 L 251 347 Z M 260 347 L 260 350 L 261 350 Q 262 346 260 347 Z M 308 347 Q 309 350 306 352 L 304 363 L 298 372 L 297 373 Q 292 372 291 374 Q 284 372 281 367 Q 282 364 279 365 L 278 362 L 277 378 L 275 382 L 274 382 L 274 363 L 275 362 L 274 360 L 275 355 L 273 354 L 274 356 L 273 358 L 273 373 L 271 382 L 272 387 L 270 396 Q 269 402 272 401 Q 274 402 273 406 L 270 407 L 270 402 L 268 408 L 270 413 L 269 415 L 269 455 L 269 457 L 268 458 L 268 476 L 267 477 L 268 479 L 269 494 L 269 468 L 271 465 L 273 472 L 273 474 L 272 475 L 272 501 Q 274 502 272 503 L 269 502 L 268 504 L 275 504 L 275 496 L 278 496 L 279 503 L 276 504 L 276 505 L 290 505 L 292 504 L 294 504 Q 298 503 300 505 L 301 504 L 307 504 L 308 453 L 308 451 L 309 449 L 309 440 L 305 461 L 303 460 L 306 436 L 306 434 L 305 431 L 305 429 Q 304 421 307 422 L 308 425 L 307 433 L 309 434 L 309 396 L 308 399 L 306 400 L 307 364 L 307 362 L 308 359 L 307 354 L 310 352 L 310 347 L 308 347 Z M 57 348 L 57 350 L 61 353 L 59 350 Q 60 347 57 348 Z M 107 348 L 106 351 L 107 351 L 107 348 Z M 166 348 L 165 351 L 166 351 L 166 348 Z M 185 349 L 186 351 Q 187 348 185 349 Z M 203 349 L 201 351 L 203 351 L 203 349 Z M 303 350 L 301 353 L 303 352 L 303 350 Z M 103 351 L 93 358 L 91 361 L 102 362 L 99 363 L 97 362 L 95 362 L 91 364 L 102 364 L 103 365 Q 104 360 102 359 Q 99 360 100 357 L 103 355 L 103 351 Z M 160 351 L 156 352 L 157 354 L 160 353 L 160 351 Z M 197 351 L 198 353 Q 199 350 197 351 Z M 90 352 L 88 355 L 88 364 L 90 364 L 89 362 L 90 359 L 89 357 L 90 355 L 90 352 Z M 147 352 Q 145 355 148 354 L 147 352 Z M 299 353 L 299 356 Q 302 355 299 353 Z M 55 354 Q 53 359 57 358 L 58 356 L 55 354 Z M 122 354 L 122 356 L 124 355 L 122 354 Z M 199 354 L 198 358 L 199 358 L 199 354 Z M 193 355 L 192 359 L 194 360 L 193 355 Z M 144 356 L 145 358 Q 146 355 144 356 Z M 213 356 L 211 360 L 213 359 L 213 356 Z M 143 357 L 141 359 L 143 360 L 143 357 Z M 182 357 L 181 360 L 182 360 L 182 357 Z M 218 358 Q 216 361 219 360 L 218 358 Z M 271 358 L 270 371 L 271 371 L 271 358 Z M 172 359 L 170 364 L 172 364 L 172 359 Z M 176 359 L 175 363 L 176 363 L 176 359 Z M 149 360 L 147 362 L 149 362 L 149 360 Z M 107 361 L 106 370 L 107 370 L 107 361 Z M 189 363 L 188 365 L 190 366 L 189 363 Z M 194 363 L 193 366 L 194 366 L 194 363 Z M 255 363 L 250 372 L 248 380 Q 243 384 235 385 L 234 384 L 231 387 L 224 380 Q 225 376 222 377 L 222 382 L 230 393 L 233 394 L 233 395 L 230 393 L 228 394 L 229 397 L 228 396 L 227 401 L 221 415 L 214 443 L 210 445 Q 209 449 211 451 Q 212 453 209 452 L 209 456 L 207 456 L 207 459 L 205 460 L 206 462 Q 210 459 217 458 L 218 455 Q 221 454 220 458 L 222 458 L 225 449 L 228 446 L 227 445 L 227 438 L 235 417 Q 236 414 233 415 L 233 417 L 233 419 L 227 416 Q 226 413 230 414 L 229 413 Q 228 410 233 411 L 230 408 L 232 406 L 237 409 L 238 411 L 240 404 Q 237 403 238 406 L 236 406 L 232 403 Q 228 404 230 400 L 233 401 L 235 400 L 239 401 L 238 400 L 242 398 L 243 400 L 248 394 L 248 392 Q 244 397 237 398 L 236 397 L 235 397 L 234 395 L 237 396 L 237 393 L 242 390 L 243 390 Q 240 391 241 394 L 250 389 L 251 389 L 251 385 L 253 385 L 255 382 L 254 378 L 258 371 L 258 369 L 255 372 L 251 382 L 249 380 L 255 367 L 255 363 Z M 181 364 L 180 367 L 181 367 L 181 364 Z M 186 364 L 185 367 L 186 367 L 186 364 Z M 314 364 L 312 368 L 313 373 L 314 373 L 314 364 Z M 137 365 L 136 368 L 137 368 L 137 365 Z M 199 365 L 197 368 L 199 368 L 199 365 Z M 217 367 L 216 371 L 217 371 L 217 367 Z M 249 368 L 244 377 L 245 379 L 249 372 L 249 368 Z M 110 370 L 109 373 L 110 373 L 110 370 Z M 41 371 L 40 376 L 41 376 L 41 371 Z M 170 371 L 170 374 L 171 374 Q 172 370 170 371 Z M 142 372 L 140 374 L 141 376 L 142 376 L 142 372 Z M 198 373 L 198 375 L 200 374 L 198 373 Z M 240 373 L 238 377 L 240 376 L 240 373 Z M 313 373 L 313 399 L 314 386 L 314 384 L 313 373 Z M 212 376 L 211 381 L 212 381 L 212 376 Z M 110 377 L 109 381 L 110 381 L 110 377 Z M 238 377 L 236 380 L 237 382 L 238 380 L 238 377 Z M 29 378 L 29 390 L 28 391 L 29 408 L 30 409 L 30 421 L 31 422 L 30 424 L 35 430 L 36 426 L 36 421 L 32 413 L 31 398 L 30 397 L 30 390 L 32 383 L 31 380 Q 32 377 29 378 Z M 40 378 L 39 383 L 40 383 L 40 378 Z M 175 378 L 174 381 L 175 381 L 175 378 Z M 195 379 L 193 381 L 195 382 L 195 379 Z M 179 382 L 178 393 L 179 393 L 179 382 Z M 203 382 L 202 387 L 203 387 L 203 382 Z M 122 383 L 122 385 L 124 384 L 122 383 Z M 166 384 L 165 387 L 167 387 L 166 384 Z M 191 384 L 190 387 L 191 387 L 191 384 Z M 128 385 L 126 387 L 129 387 Q 130 384 128 385 Z M 143 385 L 142 388 L 143 388 L 143 385 Z M 20 386 L 19 393 L 20 393 L 20 386 Z M 39 386 L 39 388 L 41 387 L 39 386 Z M 224 387 Q 221 391 225 390 L 226 391 L 224 387 Z M 109 388 L 108 391 L 109 391 L 109 388 Z M 185 388 L 184 391 L 185 391 L 185 388 Z M 119 389 L 117 391 L 119 391 L 119 389 Z M 207 389 L 205 391 L 207 391 L 207 389 Z M 133 391 L 132 394 L 133 394 L 133 391 Z M 159 391 L 158 395 L 159 395 L 159 391 Z M 109 392 L 108 400 L 109 400 L 109 392 Z M 192 392 L 190 395 L 192 394 L 192 392 Z M 184 393 L 184 395 L 186 394 L 184 393 Z M 160 396 L 159 399 L 160 399 L 160 396 Z M 265 396 L 264 399 L 265 399 L 265 396 Z M 21 397 L 20 400 L 21 400 L 21 397 Z M 203 397 L 202 400 L 203 400 L 203 397 Z M 313 400 L 312 404 L 313 404 L 313 400 Z M 199 401 L 198 404 L 199 404 L 199 401 Z M 110 402 L 109 409 L 110 409 L 110 402 Z M 223 402 L 222 405 L 223 405 L 223 402 Z M 22 405 L 21 420 L 22 421 L 21 423 L 22 424 L 22 446 L 23 449 L 23 463 L 22 464 L 23 482 L 25 481 L 26 478 L 26 452 L 25 451 L 25 437 L 24 436 L 25 434 L 22 417 L 23 412 L 22 405 Z M 222 405 L 221 410 L 222 410 L 222 405 Z M 216 406 L 215 408 L 217 409 L 216 406 Z M 313 406 L 312 419 L 311 420 L 312 421 L 312 451 L 312 453 L 312 465 L 311 466 L 312 470 L 311 473 L 311 504 L 321 508 L 324 511 Q 323 507 327 509 L 326 512 L 333 515 L 334 510 L 333 508 L 334 500 Q 331 499 332 502 L 329 501 L 334 497 L 335 495 L 334 494 L 332 496 L 329 495 L 317 495 L 316 496 Q 311 497 313 492 L 331 492 L 332 493 L 334 492 L 334 479 L 331 478 L 332 483 L 330 485 L 321 485 L 319 485 L 316 486 L 313 486 L 313 456 L 313 454 L 313 434 L 314 433 L 313 424 L 314 421 Q 315 411 313 406 Z M 175 408 L 174 414 L 175 414 L 175 408 Z M 119 409 L 118 413 L 119 413 L 119 409 Z M 111 410 L 110 413 L 111 413 L 111 410 Z M 116 411 L 115 415 L 116 415 L 116 411 Z M 215 411 L 216 413 Q 217 410 215 411 Z M 234 411 L 236 415 L 236 413 L 234 411 Z M 207 412 L 206 415 L 207 415 L 207 412 Z M 220 412 L 219 415 L 220 415 L 220 412 Z M 112 413 L 111 417 L 112 417 L 112 413 Z M 123 413 L 122 417 L 123 417 L 123 413 Z M 151 414 L 150 417 L 143 419 L 141 422 L 151 418 L 151 414 Z M 12 415 L 11 419 L 12 419 L 12 415 Z M 45 415 L 44 424 L 45 424 L 45 415 Z M 175 415 L 174 418 L 175 418 L 175 415 Z M 135 416 L 135 422 L 142 434 L 145 444 L 147 444 L 141 428 L 139 426 Q 140 421 137 422 L 135 416 Z M 213 416 L 212 419 L 213 419 L 213 416 Z M 129 417 L 128 421 L 129 421 L 129 417 Z M 184 417 L 183 424 L 184 424 L 184 417 Z M 174 419 L 173 423 L 174 423 L 174 419 Z M 12 421 L 11 437 L 10 438 L 13 447 Q 12 454 14 458 L 15 458 L 15 449 L 12 438 L 12 433 L 15 426 L 12 421 Z M 20 421 L 14 435 L 18 451 L 16 479 L 15 481 L 19 480 L 20 478 L 20 429 L 19 428 L 20 425 L 20 421 Z M 149 421 L 147 422 L 147 423 Q 149 422 148 425 L 151 425 Q 152 428 148 427 Q 147 430 151 429 L 150 431 L 152 431 L 151 434 L 152 436 L 151 438 L 153 437 L 154 442 L 152 443 L 155 443 L 153 446 L 156 446 L 154 449 L 156 450 L 151 452 Q 152 448 149 447 L 147 448 L 152 455 L 152 453 Q 156 454 159 451 L 170 451 L 170 449 L 172 449 L 173 450 L 172 445 L 171 447 L 168 448 L 165 439 L 162 440 L 160 434 L 158 435 L 151 423 Q 152 420 149 421 Z M 206 421 L 206 423 L 205 425 L 206 438 Q 208 437 206 436 L 207 433 L 207 422 L 206 421 Z M 212 421 L 211 425 L 212 425 L 212 421 Z M 216 421 L 214 425 L 216 426 L 216 421 Z M 45 426 L 44 439 L 43 433 L 42 433 L 42 447 L 44 458 L 45 458 L 45 426 Z M 215 426 L 214 431 L 215 431 L 215 426 Z M 42 427 L 41 432 L 42 432 L 42 427 Z M 214 431 L 213 434 L 214 434 L 214 431 Z M 205 438 L 202 451 L 203 454 L 204 453 L 206 442 L 205 438 Z M 170 439 L 170 445 L 171 445 L 170 439 Z M 175 439 Q 173 442 176 441 L 175 439 Z M 29 444 L 28 453 L 29 453 L 29 444 Z M 208 449 L 206 452 L 207 455 L 208 453 L 208 449 Z M 11 450 L 10 474 L 11 474 L 11 450 Z M 162 452 L 154 458 L 155 460 L 155 459 L 164 454 L 162 452 Z M 172 452 L 175 459 L 176 459 Q 177 454 174 454 Q 175 451 172 452 Z M 186 452 Q 184 455 187 454 L 186 452 Z M 332 453 L 330 456 L 332 455 L 332 453 Z M 165 454 L 165 456 Q 161 455 160 458 L 161 460 L 172 460 L 172 459 L 168 454 L 165 454 Z M 202 454 L 195 472 L 203 477 L 205 476 L 204 473 L 203 473 L 200 472 L 201 470 L 199 466 L 201 465 L 200 463 L 201 460 L 204 464 L 206 463 L 205 462 Q 201 460 202 454 Z M 333 454 L 329 463 L 330 466 L 329 468 L 330 470 L 329 472 L 331 476 L 333 475 L 333 459 L 335 455 L 333 454 Z M 45 459 L 44 472 L 43 474 L 45 475 L 45 459 Z M 215 459 L 211 461 L 205 468 L 206 471 Q 208 466 215 465 L 223 465 L 224 466 Q 227 467 225 463 Q 223 458 215 459 Z M 29 460 L 28 466 L 30 467 L 29 460 Z M 167 461 Q 165 464 160 462 L 157 464 Q 154 463 155 466 L 153 466 L 154 469 L 160 465 L 171 464 L 167 461 Z M 14 463 L 13 471 L 14 471 L 14 463 Z M 174 463 L 175 467 L 177 468 L 176 466 Q 177 462 174 463 Z M 216 466 L 209 470 L 207 473 L 212 471 L 214 472 L 217 470 Q 225 468 229 472 L 229 470 Q 225 465 216 466 Z M 163 467 L 152 473 L 153 476 L 156 473 Q 162 474 164 471 L 174 473 L 177 477 L 178 475 L 177 470 L 172 467 L 163 467 Z M 222 471 L 217 472 L 213 475 L 211 474 L 209 475 L 208 478 Q 209 480 207 479 L 204 478 L 208 483 Q 214 478 224 476 L 229 478 L 231 477 L 232 479 L 232 476 Q 229 471 222 471 Z M 164 473 Q 161 476 155 476 L 150 480 L 151 484 L 158 479 L 163 478 L 168 479 L 170 479 L 176 482 Q 175 476 170 473 L 166 474 L 164 473 Z M 181 473 L 180 476 L 182 480 Q 181 489 177 497 L 177 502 L 168 517 L 169 519 L 180 519 L 182 519 L 190 519 L 191 518 L 193 519 L 251 519 L 252 520 L 257 519 L 259 519 L 264 520 L 266 520 L 271 519 L 273 520 L 275 520 L 292 520 L 293 519 L 296 520 L 298 517 L 299 520 L 301 517 L 301 520 L 333 520 L 309 506 L 306 506 L 303 507 L 299 506 L 297 507 L 281 507 L 280 508 L 279 507 L 268 507 L 261 504 L 260 502 Q 261 499 259 500 L 253 493 L 240 484 L 238 484 L 238 491 Q 241 492 240 497 L 245 503 Q 244 509 247 511 L 244 512 L 236 509 Q 234 505 233 508 L 213 498 L 207 492 L 200 477 L 196 474 L 194 475 L 186 473 L 184 474 L 181 473 Z M 149 474 L 122 480 L 102 491 Q 94 495 93 506 L 91 507 L 89 507 L 51 507 L 50 506 L 20 517 Q 17 516 18 519 L 21 518 L 23 519 L 151 519 L 152 518 L 153 519 L 162 519 L 164 519 L 165 519 L 161 514 Q 162 511 160 512 L 153 504 L 148 493 L 149 491 L 147 487 Q 146 479 149 477 L 149 474 Z M 44 476 L 42 477 Q 38 478 39 483 L 34 483 Q 33 486 29 485 L 27 485 L 23 484 L 19 485 L 17 485 L 16 487 L 23 490 Q 25 489 24 492 L 26 491 L 35 491 L 36 492 L 40 491 L 42 488 L 44 490 L 43 494 L 36 494 L 35 493 L 27 494 L 28 499 L 29 497 L 30 502 L 27 501 Q 28 498 25 499 L 23 499 L 22 497 L 25 496 L 22 494 L 18 503 L 13 501 L 12 504 Q 11 506 14 505 L 14 508 L 11 509 L 11 517 L 16 516 L 14 515 L 13 513 Q 17 512 16 515 L 29 511 L 28 509 Q 27 505 31 507 L 32 510 L 37 508 L 39 504 Q 41 503 40 506 L 45 504 L 45 484 L 44 483 L 45 481 L 44 476 Z M 222 478 L 208 486 L 209 489 L 216 485 L 225 482 L 229 482 L 236 485 L 235 482 L 227 478 L 222 478 Z M 26 481 L 26 482 L 28 482 L 26 481 Z M 161 481 L 151 486 L 152 490 L 155 487 L 161 485 L 170 486 L 173 488 L 175 492 L 167 487 L 155 490 L 151 494 L 153 496 L 155 494 L 164 491 L 173 493 L 175 497 L 177 491 L 176 486 L 169 481 L 161 481 Z M 178 481 L 176 483 L 178 484 L 178 481 Z M 227 484 L 210 491 L 215 496 L 230 489 L 235 490 Q 237 491 236 487 L 231 484 L 227 484 Z M 14 488 L 11 492 L 16 491 L 20 492 L 19 489 L 14 490 L 14 488 Z M 230 491 L 218 498 L 224 501 L 233 495 L 239 495 L 238 492 Q 236 490 230 491 Z M 165 493 L 154 497 L 155 502 L 162 499 Q 169 498 172 500 L 173 502 Q 175 501 174 497 L 165 493 Z M 13 495 L 12 497 Q 14 496 13 499 L 16 499 Q 18 493 13 495 Z M 237 496 L 230 499 L 228 503 Q 235 504 238 501 Q 239 504 237 503 L 235 506 L 239 508 L 242 508 L 244 510 L 239 503 L 240 501 L 239 497 L 237 496 Z M 164 500 L 162 501 Q 160 504 158 503 Q 157 509 161 511 L 167 515 L 170 508 L 167 505 L 162 506 L 164 503 L 171 504 L 173 506 L 173 503 L 170 501 Q 165 502 164 500 Z M 19 521 Q 19 526 17 527 Q 14 528 15 526 L 13 527 L 12 526 L 11 548 L 48 548 L 48 548 L 48 538 L 51 538 L 52 548 L 54 536 L 53 532 L 54 531 L 54 523 Q 53 520 51 523 L 51 534 L 50 534 L 48 533 L 48 523 L 47 521 L 46 527 L 46 529 L 47 533 L 47 543 L 46 544 L 43 539 L 43 523 L 40 521 L 40 530 L 41 531 Q 42 535 38 533 L 37 531 L 37 521 L 35 526 L 32 526 L 32 521 L 30 522 L 30 536 L 27 536 L 27 524 L 25 527 L 23 525 L 22 525 Q 23 529 21 528 Q 18 526 19 521 Z M 79 521 L 75 522 L 74 526 L 72 522 L 71 528 L 68 528 L 68 522 L 66 522 L 66 532 L 67 533 L 66 547 L 63 546 L 63 535 L 64 534 L 63 532 L 63 523 L 61 522 L 62 529 L 62 538 L 61 539 L 62 543 L 62 545 L 59 546 L 58 540 L 58 538 L 59 536 L 58 522 L 57 539 L 57 541 Q 58 546 55 547 L 56 548 L 69 548 L 72 549 Q 76 550 78 548 L 79 549 L 106 549 L 105 544 L 105 532 L 106 531 L 105 530 L 105 522 L 103 523 L 103 546 L 102 546 L 100 545 L 100 526 L 99 525 L 100 523 L 96 522 L 97 527 L 96 532 L 97 534 Q 98 538 96 540 L 97 544 L 94 545 L 94 536 L 93 535 Q 92 530 94 529 Q 92 527 93 522 L 92 522 L 90 522 L 90 526 L 89 526 L 87 522 L 85 521 L 83 522 L 79 521 Z M 328 522 L 325 524 Q 330 523 331 526 Q 332 528 330 527 L 329 529 L 331 528 L 332 530 L 324 530 L 323 529 L 322 531 L 333 531 L 333 523 L 328 522 Z M 323 525 L 324 527 L 327 526 L 323 525 Z M 313 529 L 312 531 L 315 531 L 313 529 Z M 330 532 Q 328 535 323 533 L 323 534 L 333 534 L 330 532 Z M 324 535 L 324 536 L 328 536 L 324 535 Z "></path><path d="M 14.5 11 L 15 25.5 Q 12.5 27 14 32.5 L 15 35.5 L 15 37.5 Q 16 41.3 13 40 L 13 25.5 L 14 23.5 L 13 21.5 L 14 20.5 L 14.5 11 Z "></path><path d="M 29 11 L 31 11.5 L 31 20.5 L 30 21.5 L 30 48.5 L 31 48.5 L 31 32.5 L 32 31.5 L 32 29.5 L 32 13.5 L 33.5 12 L 34 15.5 L 33 16.5 L 33 34.5 L 32 35.5 Q 33.5 47 31 54.5 L 33 59.5 L 32 63.5 L 33 64.5 L 33 74.5 L 32 75.5 L 31.5 102 L 29.5 99 L 29 121.5 L 30 123.5 L 29 124.5 L 28.5 163 L 27.5 160 L 26.5 179 L 25 150.5 L 26 150.5 L 27.5 158 L 28 147.5 L 27 145.5 L 27 143.5 Q 25.7 138.8 28 137.5 L 28 111.5 L 28 109.5 L 28 89.5 L 29.5 89 L 29.5 88 L 28 87.5 L 28 76.5 L 28 74.5 L 28.5 61 L 30 66.5 L 29 71.5 L 29 79.5 L 30 80.5 L 29 83.5 L 30.5 86 L 31 78.5 L 31 76.5 L 30.5 56 L 29 58.5 L 29.5 60 Q 27 59 28 54.5 L 29 52.5 L 28 49.5 L 28 47.5 L 29 11 Z M 31 89 Q 28 90 30 92 L 29 94 L 31 93 L 31 89 Z M 31 94 L 29 98 L 31 97 L 31 94 Z "></path><path d="M 35.5 11 L 36 33.5 L 35 34.5 L 35 54.5 L 36 54.5 L 37 52.5 L 37 33.5 L 38 32.5 L 37 31.5 L 37 15.5 L 38.5 11 L 39 33.5 L 38 34.5 L 38 42.5 L 39 47.5 L 38 48.5 L 38 67.5 L 39 70 L 37 69.5 L 37 55.5 L 34 56.5 L 34 29.5 L 35 28.5 L 35.5 11 Z "></path><path d="M 45.5 11 L 46 17.5 L 45 19.5 Q 47.3 20.8 46 25.5 L 45 26.5 L 44.5 62 Q 41.8 60.8 44 59.5 L 43 55.5 L 44 53.5 L 43 49.5 L 44 46.5 L 44 32.5 L 43 30.5 L 44 29.5 L 44 18.5 L 45 16.5 L 45 12.5 L 45.5 11 Z "></path><path d="M 235.5 11 L 236 12.5 L 234.5 19 L 234 12.5 L 235.5 11 Z "></path><path d="M 101.5 12 L 102 37.5 L 101 40.5 L 102 43.5 L 101 45.5 L 102 50.5 L 102 52.5 Q 103 56.3 100 55 L 100 30.5 L 101 29.5 L 101.5 12 Z "></path><path d="M 240 14 L 242 14.5 L 242 16.5 L 241.5 21 L 240 14 Z "></path><path d="M 328.5 19 L 330 23.5 L 328 22.5 L 328.5 19 Z "></path><path d="M 234.5 20 L 235 22.5 L 235 24.5 L 235 35.5 L 233 36 Q 235.1 32.7 234 24.5 L 234 22.5 L 234.5 20 Z "></path><path d="M 238.5 20 L 239 24.5 Q 236.5 26 238 31.5 L 239 34 L 237 33.5 L 237 21.5 L 238.5 20 Z "></path><path d="M 240 22 Q 244 20.6 242 27.5 L 242 29.5 L 240.5 33 L 240 30.5 L 240 28.5 L 240 22 Z "></path><path d="M 328.5 26 Q 330.8 28.8 330 34.5 L 329 39.5 L 329 41.5 Q 327.8 46.3 330 47.5 L 329 50.5 Q 331.7 52.3 330 58.5 L 328 69.5 L 328 93.5 L 327 94.5 L 328 95.5 L 328 135.5 L 329 137.5 L 328 141.5 L 329 146.5 L 328 147.5 L 327.5 205 L 326 191.5 L 327 188.5 L 326 186.5 L 327 185.5 L 327 169.5 L 327 167.5 L 327 102.5 L 326 100.5 L 326 98.5 L 327 90.5 Q 324.5 89 326 83.5 L 327 82.5 L 327 68.5 L 328 67.5 L 329 51.5 L 328 50.5 L 328 35.5 L 329 30.5 L 328.5 26 Z "></path><path d="M 237.5 36 Q 240.5 37.5 237.5 39 L 237.5 36 Z "></path><path d="M 234.5 37 L 235 40.5 L 233 41.5 L 234.5 37 Z "></path><path d="M 13 41 Q 17 39.6 15 46.5 L 14 51.5 L 15 54.5 L 13 53.5 L 13 41 Z "></path><path d="M 237.5 42 Q 240 43 239 47.5 L 237.5 51 L 237.5 42 Z "></path><path d="M 73.5 51 L 82 54 L 85 62.5 L 82 69 L 78.5 71 L 74.5 71 L 67 66.5 L 66 60.5 L 67 58.5 L 66 56.5 L 67 54 L 73.5 51 Z M 73 55 Q 70 56 72 58 L 72 63 L 71 61 L 70 64 L 73 65 L 73 57 L 75 58 L 74 60 Q 72 65 76 67 L 76 57 L 77 56 L 73 55 Z M 78 56 L 78 67 L 79 65 L 78 56 Z "></path><path d="M 19 57 Q 21.7 55.9 21 58.5 L 21 60.5 L 20 64.5 L 21 69.5 L 20 72.5 L 20 88 Q 16 89.4 18 82.5 L 18 80.5 L 19 76.5 L 19 57 Z "></path><path d="M 279.5 57 L 288.5 57 L 289 58.5 Q 291.6 61.4 291 67.5 L 284.5 76 L 281.5 77 L 280 74 L 276 71.5 Q 273.3 69.2 274 63.5 L 279.5 57 Z M 279 62 L 280 67 L 280 64 L 281 64 L 280 69 L 282 72 L 283 64 L 284 67 L 285 64 Q 284 61 279 62 Z M 284 68 L 282 74 L 284 73 L 284 68 Z "></path><path d="M 325.5 58 L 326 61.5 L 326 63.5 L 324.5 66 L 324 61.5 L 325.5 58 Z "></path><path d="M 13.5 59 L 15 60.5 L 15 81.5 Q 12.8 82.7 14 87.5 L 14 89.5 L 15 91.5 L 13 92 L 13 77.5 L 14 75.5 L 13 73.5 L 13 71.5 L 13.5 59 Z "></path><path d="M 16 59 L 18 59.5 L 17 61.5 L 18 64.5 L 17 66.5 L 18 71.5 L 17 73.5 L 17 75.5 L 18 141.5 L 17 141.5 L 17 105.5 Q 14.8 104.2 16 99.5 L 16 97.5 L 16 68.5 L 17 67.5 L 16 66.5 L 16 59 Z "></path><path d="M 43.5 63 L 45 65.5 L 43 66.5 L 43.5 63 Z "></path><path d="M 109 67 Q 112 65.8 111 69.5 L 109 68.5 L 109 67 Z "></path><path d="M 320.5 67 L 321 73.5 L 320 74.5 L 319.5 88 L 319 70.5 L 320.5 67 Z "></path><path d="M 323.5 68 L 324 116.5 L 325 118.5 L 324 121.5 Q 322.3 129.7 325 133.5 L 324 135.5 L 324 137.5 L 323.5 147 L 322 80.5 L 323 79.5 L 323.5 68 Z "></path><path d="M 330.5 69 L 332 72.5 L 332 87.5 L 332 89.5 L 332 102.5 L 331 103.5 L 332 104.5 L 332 150.5 Q 334.5 152 333 157.5 L 332 158.5 L 331.5 167 L 331 122.5 Q 328.8 121.3 330 116.5 L 331 114.5 L 330 112.5 L 331 108.5 Q 328.2 106.7 330 100.5 L 331 95.5 L 330 94.5 L 330.5 69 Z "></path><path d="M 60.5 70 Q 65.3 69.3 66 72.5 L 67 74.5 L 63 82 L 59.5 83 Q 56.3 80.7 57 74.5 L 60.5 70 Z M 62 74 L 61 77 L 62 77 L 62 74 Z "></path><path d="M 252.5 70 Q 255.5 71.5 252.5 73 Q 249.5 71.5 252.5 70 Z "></path><path d="M 258 70 Q 261.7 68.5 261 71.5 Q 259.5 74.5 258 71.5 L 258 70 Z "></path><path d="M 316.5 70 L 318 78.5 Q 315.8 79.7 317 84.5 L 318 86.5 L 317 87.5 L 317 103.5 L 318 105.5 Q 315.8 106.7 317 111.5 L 318 112.5 L 318 144.5 L 316 145.5 L 317 119.5 L 316 118.5 L 316.5 70 Z "></path><path d="M 126.5 71 Q 129.5 70.2 128 74 Q 124.3 75.5 125 72.5 L 126.5 71 Z "></path><path d="M 313.5 71 L 314 86.5 L 315 87.5 L 314 88.5 L 314 119.5 L 315 121.5 L 314 122.5 L 314 144 Q 310.3 142.7 312 148.5 L 312 150.5 L 311.5 183 L 311 143.5 L 310 142.5 L 310 129.5 L 309 128.5 L 309 112.5 L 309 110.5 L 310 108.5 L 310 94.5 L 310 92.5 L 309 78.5 L 310 75.5 L 310.5 72 L 311 118.5 L 310 119.5 L 310 127.5 L 311 128.5 L 311 143 L 313 142.5 L 313 86.5 L 313 84.5 L 313.5 71 Z "></path><path d="M 115.5 74 Q 118.1 73.2 117 76.5 L 115.5 76 L 114 75.5 L 115.5 74 Z "></path><path d="M 304.5 75 L 305 87.5 L 304 89.5 L 304 91.5 Q 302.5 99 305 102.5 L 304 103.5 L 304 145.5 L 306 153.5 L 306 183.5 L 305 183.5 L 305 154.5 L 303 151.5 L 304 147 L 302 146.5 L 303 145.5 L 303 128.5 L 302 128.5 L 301.5 132 L 301 127 L 303 126.5 L 300 124.5 L 300.5 82 Q 303 83 302 87.5 L 301 88.5 L 301 125 L 303 124.5 L 303 115.5 L 302 113.5 L 302 111.5 L 303 83.5 L 304 82.5 L 303 80.5 L 304.5 75 Z "></path><path d="M 307.5 75 L 308 128.5 L 308 130.5 L 307 141.5 Q 309.3 142.8 308 147.5 L 307 147.5 Q 308.3 142.8 306 141.5 L 306 83.5 L 306 81.5 L 307.5 75 Z "></path><path d="M 286 76 L 291 78.5 L 292 83 L 288 81.5 L 287.5 80 L 287 82.5 L 288 85 Q 292.5 83.5 291 88 L 285 85.5 L 284 79 Q 287.3 80.1 286 76 Z "></path><path d="M 125.5 77 Q 128.5 76.2 127 80 L 124 78.5 L 125.5 77 Z "></path><path d="M 25.5 84 L 27 85.5 L 26 90.5 L 25.5 94 L 25.5 84 Z "></path><path d="M 92.5 87 Q 95.5 86.1 94 90.5 L 93 95 Q 89.5 96.1 91 88.5 L 92.5 87 Z "></path><path d="M 19.5 89 L 21 98.5 L 21 100.5 L 21 136.5 L 20 137.5 L 21 138.5 L 21 176.5 L 20 176.5 L 20 157.5 L 19 156.5 L 20 152.5 L 19 147.5 L 19 145.5 L 19 129.5 L 20 128.5 L 19 125.5 L 20 124.5 L 20 105.5 L 20 103.5 L 19 101.5 L 19.5 89 Z "></path><path d="M 319.5 89 L 321 93.5 L 320 94.5 L 320 102.5 Q 322.3 103.8 321 108.5 L 320 111.5 L 321 115.5 L 319 114.5 L 319 106.5 L 320 105.5 L 319 104.5 L 319.5 89 Z "></path><path d="M 79.5 91 Q 82.5 90.2 81 94 L 78 92.5 L 79.5 91 Z "></path><path d="M 145.5 91 L 144.5 93 L 145.5 91 Z "></path><path d="M 294.5 95 L 295 104.5 L 296 105.5 L 295 106.5 L 294.5 136 L 294 102.5 L 293 100.5 L 294.5 95 Z "></path><path d="M 25 98 Q 28 97 27 100 Q 24 101 25 98 Z "></path><path d="M 166.5 99 L 172 101.5 L 173 105.5 Q 171.5 109.5 164.5 108 L 162 102.5 L 166.5 99 Z M 167 101 L 165 103 Q 165 106 168 107 L 170 106 L 169 103 Q 170 100 167 101 Z "></path><path d="M 91 100 L 93 100.5 L 93 110.5 L 92 111.5 L 91.5 125 Q 88.5 122 90 114.5 L 91 113.5 L 91 104.5 L 90 102.5 L 91 100 Z "></path><path d="M 257 100 Q 260 99 259 102 Q 256 103 257 100 Z "></path><path d="M 83.5 101 Q 86.1 100.2 85 103.5 Q 83.5 106.5 82 103.5 L 83.5 101 Z "></path><path d="M 107 101 L 110 101.5 L 110 121 L 107 119.5 L 108 112.5 L 107 111.5 L 107 101 Z "></path><path d="M 117.5 102 Q 120.5 101.2 119 105 L 116 103.5 L 117.5 102 Z "></path><path d="M 215.5 103 L 218 104.5 L 215.5 106 Q 212.5 104.5 215.5 103 Z "></path><path d="M 207.5 105 Q 212 107 208.5 109 Q 204.8 110.3 206 106.5 L 207.5 105 Z "></path><path d="M 14 106 Q 17 104.8 16 108.5 L 14.5 111 L 14 106 Z "></path><path d="M 122 106 L 126 107.5 L 122 109 L 122 106 Z "></path><path d="M 137 106 Q 141.7 105 143 108.5 Q 144.1 111.8 141.5 111 L 138.5 112 Q 135.8 110.6 137 106 Z M 140 107 L 138 109 Q 137 112 141 110 L 140 107 Z "></path><path d="M 116.5 110 L 118 112.5 L 115.5 114 L 114 111 L 116.5 110 Z "></path><path d="M 266 110 Q 269 109 268 112 Q 265 113 266 110 Z "></path><path d="M 281 110 Q 284.5 108.9 283 116.5 L 282 118.5 L 283 121.5 L 282 123.5 L 283 124.5 L 283 137.5 L 281.5 141 L 281 138.5 Q 283.3 137.2 282 132.5 L 281 128.5 L 282 126.5 L 281 125.5 L 281 110 Z "></path><path d="M 12.5 111 L 13 120.5 L 12 120.5 L 12.5 111 Z "></path><path d="M 259 111 Q 262 110 261 113 Q 258 114 259 111 Z "></path><path d="M 206 113 Q 210.1 111.3 209 115.5 L 206 117 L 206 113 Z "></path><path d="M 15.5 114 L 16 123.5 L 15 125.5 L 16 127.5 L 15 128.5 L 15 143 Q 11.3 141.7 13 147.5 L 12 147.5 L 12 139.5 L 14 135.5 L 14 121.5 L 15 120.5 L 14 118.5 L 15.5 114 Z "></path><path d="M 227 117 Q 229.7 115.9 229 118.5 L 227 119.5 L 227 117 Z "></path><path d="M 319 117 Q 321.7 115.9 321 118.5 L 321 120.5 L 320.5 145 L 320 122.5 L 319 117 Z "></path><path d="M 85.5 118 L 87 118.5 L 87 126.5 L 88 129.5 L 87 132.5 L 88 133.5 L 88 146 Q 83.9 147.7 85 143.5 L 85 141.5 L 84 128.5 L 83 127.5 L 84 123.5 L 83 119 L 85.5 118 Z "></path><path d="M 121 121 Q 124.7 119.5 124 122.5 Q 122.5 125.5 121 122.5 L 121 121 Z "></path><path d="M 262.5 121 L 263 124 Q 260.3 125.1 261 122.5 L 262.5 121 Z "></path><path d="M 12.5 122 L 13 125.5 L 12 125.5 L 12.5 122 Z "></path><path d="M 182.5 130 L 181.5 132 L 182.5 130 Z "></path><path d="M 92.5 131 L 93 134.5 L 92 135.5 Q 93.7 143.7 91 147.5 L 91 149.5 L 90.5 152 L 89 149.5 L 90 148.5 L 90 132 L 92.5 131 Z "></path><path d="M 104 131 L 106 131 L 106 137 L 104 137 L 104 131 Z "></path><path d="M 118 133 L 121 134.5 L 118 136 L 118 133 Z "></path><path d="M 150.5 133 L 150 134.5 L 149.5 136 L 149 134.5 L 150.5 133 Z "></path><path d="M 178.5 133 L 177.5 135 L 178.5 133 Z "></path><path d="M 208 133 L 211 134.5 Q 211.7 137.5 208 136 L 208 133 Z "></path><path d="M 160.5 134 L 160 135.5 L 157.5 139 L 159 136.5 L 160.5 134 Z "></path><path d="M 222.5 134 L 223 137 Q 220.3 138.1 221 135.5 L 222.5 134 Z "></path><path d="M 247.5 137 Q 250.5 138.6 249 144 Q 246 145.3 247 141.5 L 247 139.5 L 247.5 137 Z "></path><path d="M 214 138 Q 218.5 136.5 217 141 Q 212.5 142.5 214 138 Z "></path><path d="M 110 141 Q 113.3 139.9 112 144 Q 108.7 145.1 110 141 Z "></path><path d="M 225.5 141 L 227 144 Q 223.3 145.5 224 142.5 L 225.5 141 Z "></path><path d="M 281.5 142 L 282 145.5 L 281 145.5 L 281.5 142 Z "></path><path d="M 17.5 144 L 18 156.5 L 17 156.5 L 17.5 144 Z "></path><path d="M 94.5 144 Q 97.5 143.2 96 147 Q 92.3 148.5 93 145.5 L 94.5 144 Z "></path><path d="M 117 146 Q 121.5 144.5 120 149 Q 115.5 150.5 117 146 Z "></path><path d="M 257.5 146 L 259 149 Q 255.5 150.1 257.5 146 Z "></path><path d="M 314.5 146 L 316 148.5 L 315 151.5 L 314.5 153 L 314.5 146 Z "></path><path d="M 14.5 147 L 15 155.5 L 16 156.5 L 15 157.5 L 15 215.5 L 13.5 221 L 13 215.5 L 14 213.5 L 13 208.5 L 13 206.5 L 14 203.5 L 14.5 147 Z "></path><path d="M 281.5 147 L 282 149.5 L 281 149.5 L 281.5 147 Z "></path><path d="M 318.5 148 L 320 152.5 L 320 154.5 L 320 185.5 L 319 187.5 L 320 190.5 L 318.5 193 L 318 182.5 L 319 177.5 Q 316.5 176 318 170.5 L 319 168.5 L 318 166.5 L 319 163.5 L 318 159.5 L 318 157.5 L 318.5 148 Z "></path><path d="M 12.5 150 L 13 157.5 L 12 157.5 L 12.5 150 Z "></path><path d="M 160.5 150 L 161 151.5 L 160 154.5 L 161 154.5 L 162 151 Q 165.3 149.7 164 154.5 L 165.5 154 L 168 155.5 L 168 168.5 L 166 169 L 166 159.5 L 164.5 159 L 162.5 160 L 163.5 158 Q 166.1 158.7 165 156 L 160 157 Q 161 160 158 159 L 158 151.5 L 159.5 151 L 160.5 150 Z "></path><path d="M 212 150 L 215 151.5 L 212 153 L 212 150 Z "></path><path d="M 323.5 150 L 324 153.5 L 323 155.5 L 324 157.5 L 323 160.5 L 324 163.5 L 324 165.5 L 323 170.5 Q 325.5 172 324 177.5 L 324 179.5 L 323 189.5 L 324 194 L 322 193.5 L 322 154.5 L 323.5 150 Z "></path><path d="M 237.5 151 Q 240.5 152.5 237.5 154 Q 235.3 154.8 236 152.5 L 237.5 151 Z "></path><path d="M 176.5 152 L 178.5 156 L 180.5 152 Q 182.8 152.8 182 156.5 L 179 158 Q 180.1 160.7 177.5 160 L 175 158.5 Q 175.7 161.1 173 160 L 173 155 L 174.5 155 L 176 155.5 L 176.5 152 Z "></path><path d="M 285.5 152 L 286 175.5 L 287 176.5 L 286 177.5 L 285.5 189 L 285.5 152 Z "></path><path d="M 247 153 L 249 153.5 L 249 170.5 Q 247.5 173.5 246 170.5 L 247 163.5 L 247 161.5 L 247 153 Z "></path><path d="M 308.5 153 L 309 184.5 L 310 187 L 308 186.5 L 308 184.5 L 308.5 153 Z "></path><path d="M 282.5 154 L 283 186 L 281 185.5 L 282 184.5 L 282 159.5 L 281 156.5 L 282.5 154 Z "></path><path d="M 315.5 154 L 316 169.5 L 315 170.5 L 314.5 186 L 314 168.5 L 315 167.5 L 315.5 154 Z "></path><path d="M 93.5 155 L 96 156.5 L 95 159 L 91 157.5 L 93.5 155 Z "></path><path d="M 169 156 Q 172.3 154.7 171 159.5 Q 173.3 160.8 170.5 162 Q 167.8 160.6 169 156 Z "></path><path d="M 231.5 157 L 234 158.5 L 232.5 161 L 230 160 L 231.5 157 Z "></path><path d="M 45.5 160 Q 52.8 158.8 54 163.5 Q 54.8 169.3 51.5 171 L 46.5 172 L 43 170 L 42 163.5 L 43 161 L 45.5 160 Z M 50 164 L 49 167 L 48 165 L 46 168 L 48 168 Q 49 170 50 168 L 50 164 Z "></path><path d="M 159 160 Q 162.3 158.7 161 163.5 L 162 167.5 L 161 173 L 159 172.5 L 159 160 Z "></path><path d="M 177 163 L 180 164.5 Q 181.5 172.1 178 171 L 177 163 Z "></path><path d="M 241 163 Q 246.6 161.1 245 166 L 241 164.5 L 241 163 Z "></path><path d="M 17.5 164 L 18 178.5 L 17 178.5 L 17.5 164 Z "></path><path d="M 28.5 164 L 29 170.5 L 28 170.5 L 28.5 164 Z "></path><path d="M 170 164 L 172 164.5 L 172 175 L 170 174.5 L 170 164 Z "></path><path d="M 88.5 167 L 91 168 Q 92.7 172.1 88.5 171 L 87 168.5 L 88.5 167 Z "></path><path d="M 163.5 168 Q 166.5 169.5 163.5 171 Q 161.3 171.8 162 169.5 L 163.5 168 Z "></path><path d="M 261 169 Q 264.3 167.9 263 172 Q 259.7 173.1 261 169 Z "></path><path d="M 82 173 Q 87.6 171.1 86 176 Q 80.4 177.9 82 173 Z "></path><path d="M 162.5 173 Q 164.8 172.3 164 174.5 L 164 176.5 Q 165.5 180.9 162.5 180 L 160 181.5 L 161 174.5 L 162.5 173 Z "></path><path d="M 165 173 L 168 174.5 L 167 178 L 165 178 L 165 173 Z "></path><path d="M 266 173 Q 269 172 268 175 Q 265 176 266 173 Z "></path><path d="M 331.5 174 L 332 207.5 L 331 207.5 L 331 181.5 L 330 176.5 L 331.5 174 Z "></path><path d="M 170.5 177 L 172 185.5 L 172 187.5 L 173 198.5 L 170 200 L 169 179.5 L 170.5 177 Z "></path><path d="M 174 178 Q 176.7 176.9 176 179.5 L 177 184.5 Q 175.5 187.5 174 184.5 L 174 178 Z "></path><path d="M 260.5 180 Q 263.5 181.5 260.5 183 Q 257.5 181.5 260.5 180 Z "></path><path d="M 61.5 184 L 62 191.5 L 61 194.5 Q 59.7 199.3 62 200.5 L 61 202.5 L 62 204.5 L 61 205.5 L 60.5 227 L 60 190.5 L 61.5 184 Z "></path><path d="M 160 184 Q 163 182.8 162 186.5 L 163 187.5 L 164 199.5 L 163 201.5 L 164 208 Q 161 209.3 162 205.5 L 161 200.5 L 162 195.5 L 160 184 Z "></path><path d="M 312.5 185 L 313 190 Q 315.7 188.9 315 191.5 L 313.5 191 Q 310.5 191.9 312 187.5 Q 309.8 186.3 312.5 185 Z "></path><path d="M 58.5 186 L 59 198.5 L 58 198.5 L 58.5 186 Z "></path><path d="M 282.5 187 L 283 190.5 L 282 190.5 L 282.5 187 Z "></path><path d="M 268.5 188 Q 271.5 189.5 268.5 191 Q 265.5 189.5 268.5 188 Z "></path><path d="M 323.5 195 L 324 200.5 L 323 200.5 L 322 196.5 L 323.5 195 Z "></path><path d="M 42.5 198 L 44 200.5 L 42 199.5 L 42.5 198 Z "></path><path d="M 176.5 198 L 177 207.5 L 175 208.5 Q 173.9 201.4 176.5 198 Z "></path><path d="M 269 198 Q 272 196.8 271 200.5 L 269 199.5 L 269 198 Z "></path><path d="M 264.5 199 L 266 202 L 263 200.5 L 264.5 199 Z "></path><path d="M 42 202 L 44 202.5 L 44 221.5 L 43 223.5 L 44 225.5 L 42 224.5 L 42 208.5 L 43 207.5 L 42 205.5 L 42 203.5 L 42 202 Z "></path><path d="M 168.5 202 L 170 203.5 L 171 220 L 168 219.5 L 168 208.5 L 167 203.5 L 168.5 202 Z "></path><path d="M 270 203 Q 272.7 201.9 272 204.5 L 270 205.5 L 270 203 Z "></path><path d="M 61.5 228 L 62 230.5 L 61 230.5 L 61.5 228 Z "></path><path d="M 75 271 Q 79.1 269.7 78 273 Q 73.9 274.3 75 271 Z "></path><path d="M 270.5 290 L 271.5 292 Q 268.7 292.7 270.5 290 Z "></path><path d="M 81 302 Q 85.1 300.3 84 304.5 Q 82.5 307.5 81 304.5 L 81 302 Z "></path><path d="M 74 305 Q 78.5 303.5 77 308 Q 72.5 309.5 74 305 Z "></path><path d="M 287 316 L 296.5 316 L 297 317.5 L 293.5 319 L 288.5 318 L 287 318.5 L 287 316 Z "></path><path d="M 72 318 L 76 318.5 L 72 320 L 72 318 Z "></path><path d="M 77.5 330 L 80 331.5 L 81 338.5 L 78 340 Q 79 343 76 342 L 75.5 339 L 73.5 342 Q 71.3 342.8 72 340.5 Q 69.8 339.2 72.5 338 L 74.5 339 L 75 334 L 78 333.5 Q 74.3 331.8 77.5 330 Z "></path><path d="M 290.5 338 L 291 340 L 289 339.5 L 290.5 338 Z "></path><path d="M 68 341 Q 72.5 339.5 71 344 L 68 342.5 L 68 341 Z "></path><path d="M 250 350 Q 254.7 349.3 256 353.5 L 257 359 L 248 356 L 248 354 L 253 354 L 253 352 Q 248.9 353.3 250 350 Z "></path><path d="M 285 350 Q 288.3 348.7 287 353.5 L 284 355 L 285 350 Z "></path><path d="M 74 355 Q 78.1 353.3 77 357.5 L 77.5 359 Q 74.2 360.1 75 357.5 L 74 355 Z "></path><path d="M 280 355 Q 283 353.8 282 357.5 L 280 356.5 L 280 355 Z "></path><path d="M 286.5 357 L 288 359.5 Q 286.5 362.5 285 359.5 L 286.5 357 Z "></path><path d="M 234.5 362 Q 237.3 363.3 235 364.5 L 234 368 L 231 366.5 L 232 363 L 234.5 362 Z "></path><path d="M 50 366 L 52 366.5 L 52 373.5 L 50 374.5 L 50 366 Z "></path><path d="M 83.5 372 L 84 386.5 Q 82.5 389.5 81 386.5 L 81 374.5 L 83.5 372 Z "></path><path d="M 55.5 376 Q 58.1 375.2 57 378.5 Q 55.5 381.5 54 378.5 L 55.5 376 Z "></path><path d="M 278 377 Q 280.7 375.9 280 378.5 L 278 379.5 L 278 377 Z "></path><path d="M 298 380 Q 301 379 300 382 Q 297 383 298 380 Z "></path><path d="M 51 381 Q 54.8 380.3 56 383.5 L 52.5 384 L 51 381 Z "></path><path d="M 303.5 381 L 305 384 Q 301.5 385.1 303.5 381 Z "></path><path d="M 62 382 Q 66.9 380.4 65 386 L 62 384.5 L 62 382 Z "></path><path d="M 241.5 385 L 242 387 Q 239.6 388.8 233.5 388 L 233.5 387 Q 239.2 387.7 241.5 385 Z "></path><path d="M 297.5 385 Q 300.8 383.9 300 386.5 L 298 387.5 L 297.5 385 Z "></path><path d="M 12.5 386 L 17 394.5 L 16 395.5 L 16 405.5 L 18 412.5 L 16 413.5 L 14 407.5 L 13 394.5 L 14 391.5 Q 11 389.7 12.5 386 Z "></path><path d="M 279.5 386 Q 282.5 387.5 279.5 389 Q 276.5 387.5 279.5 386 Z "></path><path d="M 76.5 388 L 78 391 Q 74.3 392.5 75 389.5 L 76.5 388 Z "></path><path d="M 53.5 389 L 54 396.5 Q 52.5 399.5 51 396.5 L 52 390.5 L 53.5 389 Z "></path><path d="M 272.5 391 L 273 394.5 L 272 394.5 L 272.5 391 Z "></path><path d="M 302.5 394 L 303 396 L 301 395.5 L 302.5 394 Z "></path><path d="M 277 397 Q 279.7 395.9 279 398.5 L 277 399.5 L 277 397 Z "></path><path d="M 296.5 401 L 298 404 Q 294.2 405.5 295 402.5 L 296.5 401 Z "></path><path d="M 282.5 402 Q 285.5 403.5 282.5 405 Q 279.5 403.5 282.5 402 Z "></path><path d="M 56.5 403 L 59 404.5 L 55 406 L 56.5 403 Z "></path><path d="M 82.5 403 Q 85.1 402.3 84 405 L 81 404.5 L 82.5 403 Z "></path><path d="M 85 408 L 87 408.5 L 87 450.5 L 85 449.5 L 86 447.5 L 85 446.5 L 85 408 Z "></path><path d="M 300.5 408 Q 303.5 409.5 300.5 411 L 300.5 408 Z "></path><path d="M 53.5 409 L 54 426.5 L 55 428.5 L 54 429.5 L 54 440.5 L 55 443.5 L 54 445.5 L 55 450.5 L 54 451.5 L 54 461 Q 51.3 462.1 52 459.5 L 51 458.5 L 51 434.5 L 52 432.5 Q 49.3 430.8 51 424.5 L 52 423.5 L 52 410.5 L 53.5 409 Z "></path><path d="M 77.5 409 L 78 411 L 81 412.5 L 80 416.5 L 81 419.5 L 80 425 L 78 424.5 L 78 411.5 L 77.5 409 Z "></path><path d="M 225.5 418 L 232 420 L 230.5 423 L 224 419.5 L 225.5 418 Z "></path><path d="M 270 421 L 272 421.5 L 272 436 L 270 435.5 L 270 421 Z "></path><path d="M 223 422 L 230 424 Q 231.7 428.1 227.5 427 L 229 429.5 L 227.5 432 L 223 428.5 Q 222.1 425.5 226.5 427 L 225.5 425 L 223 423.5 L 223 422 Z "></path><path d="M 298.5 423 L 300 426 L 297 424.5 L 298.5 423 Z "></path><path d="M 65 424 Q 68.8 422.5 68 425.5 Q 66.5 428.5 65 425.5 L 65 424 Z "></path><path d="M 71.5 424 L 74 425.5 Q 74.8 428.1 71.5 427 Q 68.5 425.5 71.5 424 Z "></path><path d="M 293 426 L 296 427.5 L 293 429 L 293 426 Z "></path><path d="M 301.5 428 Q 304.5 429.5 301.5 431 L 301.5 428 Z "></path><path d="M 221 431 L 227 433 Q 228.5 436.8 225.5 436 L 221 432.5 L 221 431 Z "></path><path d="M 58 432 Q 62 430.6 60 437.5 L 59 438.5 L 58 479.5 L 56.5 481 L 55 479.5 L 55 470.5 L 56 467.5 L 56 465.5 L 56 445.5 L 57 444.5 Q 55.7 435.6 58 432 Z "></path><path d="M 296 433 L 299 434.5 Q 299.7 437.5 296 436 L 296 433 Z "></path><path d="M 70 434 Q 73.8 432.5 73 435.5 L 70 437 L 70 434 Z "></path><path d="M 220 436 L 226 438.5 Q 226.8 441.1 223.5 440 L 220 437.5 L 220 436 Z "></path><path d="M 218 440 L 224 442.5 Q 225.1 445.8 222.5 445 L 218 441.5 L 218 440 Z "></path><path d="M 65 444 Q 69.1 442.7 68 446 Q 63.9 447.3 65 444 Z "></path><path d="M 218 445 Q 221.8 444.3 223 447.5 Q 223.8 450.1 220.5 449 L 218 445 Z "></path><path d="M 294 446 L 297 447.5 L 294 448 L 294 446 Z "></path><path d="M 270 448 Q 272.7 446.9 272 449.5 L 273 451.5 L 272 454 L 270 454 L 270 448 Z "></path><path d="M 218.5 449 L 222 452.5 L 220.5 454 L 217 451.5 L 218.5 449 Z "></path><path d="M 80 450 L 84 451.5 L 83 454 L 80 452.5 L 80 450 Z "></path><path d="M 86.5 456 L 87 494.5 L 86 497.5 Q 86.8 501.3 84.5 502 L 83 495.5 L 84 494.5 L 85 457.5 L 86.5 456 Z "></path><path d="M 77 460 Q 81.5 458.5 80 463 Q 75.5 464.5 77 460 Z "></path><path d="M 279 460 Q 282 459 281 462 Q 278 463 279 460 Z "></path><path d="M 215 461 L 222 462 L 221.5 464 L 215 463 L 215 461 Z "></path><path d="M 276 466 L 279 466.5 L 276 468 L 276 466 Z "></path><path d="M 304 466 Q 307.5 464.9 306 472.5 L 307 476.5 L 305 485 L 302 483.5 L 304 466 Z "></path><path d="M 52.5 470 L 54 477.5 L 53 478.5 L 53 496.5 L 51.5 498 L 51 473.5 L 52.5 470 Z "></path><path d="M 81.5 474 Q 84.1 473.2 83 476.5 Q 80.2 478.2 82 484.5 L 80.5 486 L 80 475.5 L 81.5 474 Z "></path><path d="M 276 474 Q 280.1 472.3 279 476.5 Q 277.5 479.5 276 476.5 L 276 474 Z "></path><path d="M 71.5 477 Q 74.5 476.2 73 480 Q 69.3 481.5 70 478.5 L 71.5 477 Z "></path><path d="M 61.5 481 L 63 481 L 63 485 L 60 483.5 L 61.5 481 Z "></path><path d="M 64 485 Q 67.8 483.5 67 486.5 Q 65.5 489.5 64 486.5 L 64 485 Z "></path><path d="M 24.5 487 Q 26.8 486.3 26 488.5 L 24.5 487 Z "></path><path d="M 303 488 Q 306.7 486.5 306 489.5 L 305 491.5 L 306 492.5 L 306 502 L 302 503 L 301 500.5 Q 303.5 499 302 493.5 L 304 490.5 L 303 488 Z "></path><path d="M 59.5 489 L 62 490.5 L 59.5 492 Q 56.5 490.5 59.5 489 Z "></path><path d="M 72.5 489 Q 76.9 487.5 76 490.5 L 73 492 L 72.5 489 Z "></path><path d="M 56.5 493 L 57 495 L 55 494.5 L 56.5 493 Z "></path><path d="M 36 495 Q 41.2 493.3 40 497 L 37.5 498 L 36 495 Z "></path><path d="M 71.5 495 Q 74.5 494.2 73 498 L 70 496.5 L 71.5 495 Z "></path><path d="M 31 496 Q 35.5 494.5 34 499 Q 29.5 500.5 31 496 Z "></path><path d="M 280 496 L 283 497.5 Q 284 502 281.5 503 L 280 502.5 L 280 496 Z "></path><path d="M 318 496 Q 322.5 494.5 321 499 Q 316.5 500.5 318 496 Z "></path><path d="M 324 496 L 328 497 Q 329.1 499.7 326.5 499 L 326.5 500 Q 329.5 499.2 328 503 Q 324.3 504.5 325 501.5 Q 327.5 500 324 498.5 L 324 496 Z "></path><path d="M 59.5 498 L 61 501 L 58 499.5 L 59.5 498 Z "></path><path d="M 314 498 Q 318.5 496.5 317 501 Q 312.5 502.5 314 498 Z "></path><path d="M 37 499 Q 42.2 497.3 41 501 Q 35.8 502.7 37 499 Z "></path><path d="M 322.5 499 L 324 501.5 Q 322.5 504.5 321 501.5 L 322.5 499 Z "></path><path d="M 21.5 501 Q 26.3 499.7 25 503 Q 21.2 503.8 21.5 501 Z "></path><path d="M 33.5 502 L 36 503.5 L 33.5 505 Q 30.5 503.5 33.5 502 Z "></path><path d="M 317.5 502 Q 321.7 500.9 320 505 L 316 505 L 316 503.5 L 317.5 502 Z "></path><path d="M 329.5 503 L 331 506 L 328.5 507 L 328 504.5 L 329.5 503 Z "></path><path d="M 22.5 504 Q 25.5 505.5 22.5 507 Q 20.3 507.8 21 505.5 L 22.5 504 Z "></path><path d="M 17.5 505 L 18 507.5 L 15 509 Q 13.5 505.2 16.5 506 L 17.5 505 Z "></path><path d="M 323.5 505 L 326 506.5 L 322 508 L 323.5 505 Z "></path><path d="M 20.5 509 Q 23.5 508.2 22 512 Q 18.2 513.5 19 510.5 L 20.5 509 Z "></path><path d="M 331.5 509 L 332 512 L 329 510.5 L 331.5 509 Z "></path><path d="M 79 523 L 82 523.5 L 82 536.5 L 82 538.5 L 82 545.5 L 80.5 546 L 79 544.5 L 79 523 Z "></path><path d="M 130 523 Q 134.5 521.3 133 526.5 L 132 529.5 L 133 530.5 L 133 546 L 131 545.5 L 131 536.5 L 130 535.5 L 130 523 Z "></path><path d="M 149.5 523 L 151 525.5 L 147 527 L 149.5 523 Z "></path><path d="M 205.5 524 L 207 525.5 L 207 547 L 204 545.5 L 203 543.5 L 204 542.5 L 204 527.5 Q 201.3 525.7 205.5 524 Z "></path><path d="M 214 524 L 217 525.5 L 214 527 L 214 524 Z "></path><path d="M 262.5 524 Q 265.5 525.5 262.5 527 Q 260.3 527.8 261 525.5 L 262.5 524 Z "></path><path d="M 141 525 L 144 526.5 L 145 528.5 L 142 530 L 141 525 Z "></path><path d="M 227 525 Q 231.5 523.5 230 528 Q 225.5 529.5 227 525 Z "></path><path d="M 255.5 525 L 258 526.5 L 255 528 L 255.5 525 Z "></path><path d="M 302.5 526 L 304 528.5 L 302 527.5 L 302.5 526 Z "></path><path d="M 222.5 527 Q 225.5 526.2 224 530 L 221 528.5 L 222.5 527 Z "></path><path d="M 270 527 Q 273 526 272 529 Q 269 530 270 527 Z "></path><path d="M 150 528 Q 152.7 526.9 152 529.5 L 153 534.5 L 153 536.5 L 153 545.5 L 150 546 L 149 536.5 L 150 533.5 L 149 530.5 L 150 528 Z "></path><path d="M 13 529 L 16 529.5 L 16 539.5 L 16 541.5 Q 16.8 543.8 14.5 543 L 13 541.5 L 13 529 Z "></path><path d="M 18.5 529 Q 20.8 528.3 20 530.5 L 21 531.5 L 21 539.5 L 18 541 L 17 530.5 L 18.5 529 Z "></path><path d="M 88.5 529 L 91 530.5 L 90 534.5 L 91 537.5 L 90 542 L 87 540.5 L 88 534.5 L 87 530.5 L 88.5 529 Z "></path><path d="M 260 530 Q 263.8 528.5 263 531.5 Q 261.5 534.5 260 531.5 L 260 530 Z "></path><path d="M 34.5 531 Q 37.5 530.1 36 534.5 L 37 536.5 Q 34.3 538.2 36 544.5 L 34.5 547 Q 32.5 543 30.5 547 Q 27.5 547.9 29 543.5 L 28 539 L 30.5 538 Q 29.9 542.6 32.5 544 L 33 542.5 L 32 540.5 Q 34.8 538.7 33 532.5 L 34.5 531 Z "></path><path d="M 73 531 L 76 531.5 L 76 541 Q 73.3 542.1 74 539.5 L 73 537.5 L 74 535.5 L 73 531 Z "></path><path d="M 295 531 Q 298 530 297 533 Q 294 534 295 531 Z "></path><path d="M 156.5 532 Q 159.8 533.8 158 540.5 L 157 542.5 L 158 544.5 L 157 547 Q 154.3 548.1 155 545.5 L 154 540.5 L 155 537.5 L 154 535.5 L 156.5 532 Z "></path><path d="M 216.5 532 Q 218.8 531.3 218 533.5 Q 216.5 536.5 215 533.5 L 216.5 532 Z "></path><path d="M 249 532 L 252 533.5 L 252 546.5 L 250.5 547 L 249 545.5 L 249 532 Z "></path><path d="M 167 533 Q 170.7 531.5 170 534.5 Q 168.5 537.5 167 534.5 L 167 533 Z "></path><path d="M 210.5 533 L 213 534.5 L 210.5 536 Q 207.5 534.5 210.5 533 Z "></path><path d="M 272 533 Q 274.7 531.9 274 534.5 L 275 536.5 L 274 539.5 L 276 546 L 272 544.5 L 272 533 Z "></path><path d="M 144 534 Q 148.1 532.3 147 536.5 L 145.5 536 Q 142.9 536.7 144 534 Z "></path><path d="M 300 534 Q 303 533 302 536 Q 299 537 300 534 Z "></path><path d="M 184.5 536 L 186.5 537 L 188 536.5 Q 188.8 539.1 185.5 538 L 184.5 536 Z "></path><path d="M 254 536 L 257 536.5 L 254 538 L 254 536 Z "></path><path d="M 112 537 L 115 537 L 115 546 L 112 546 L 112 537 Z "></path><path d="M 159 537 L 162 538.5 Q 163.3 543.8 160.5 545 Q 157.3 543.1 159 537 Z "></path><path d="M 172 537 Q 175.8 535.5 175 538.5 Q 173.5 541.5 172 538.5 L 172 537 Z "></path><path d="M 293.5 538 L 296 538 L 296 543.5 L 293.5 547 Q 290.5 545.5 292 539.5 L 293.5 538 Z "></path><path d="M 287.5 539 L 290 540 L 291 544.5 L 290 547 Q 287.3 548.1 288 545.5 L 286.5 542 Q 285.3 544.3 284 541.5 Q 283.3 539.3 285.5 540 L 287 540.5 L 287.5 539 Z "></path><path d="M 163 540 Q 166.8 538.5 166 541.5 Q 164.5 544.5 163 541.5 L 163 540 Z "></path><path d="M 39.5 541 L 41 541 L 41 546 Q 36.5 547.8 38 542.5 L 39.5 541 Z "></path><path d="M 189 541 Q 192.3 539.9 191 544 Q 187.7 545.1 189 541 Z "></path><path d="M 73.5 542 Q 76 543.2 75 547 Q 70.5 548.8 72 543.5 L 73.5 542 Z "></path><path d="M 179 542 L 182 543.5 L 179 545 L 179 542 Z "></path><path d="M 255 542 Q 259.5 540.3 258 545.5 Q 256.5 548.5 255 545.5 L 255 542 Z "></path><path d="M 323 542 Q 327.1 540.7 326 544 Q 321.9 545.3 323 542 Z "></path><path d="M 342.5 543 L 344 545.5 L 342.5 549 L 342.5 543 Z "></path><path d="M 18 544 L 21 545.5 Q 21.8 547.8 19.5 547 L 18 544 Z "></path><path d="M 22.5 544 Q 26.3 543 25 546 L 22.5 544 Z "></path><path d="M 169 544 Q 173.1 542.7 172 546 Q 167.9 547.3 169 544 Z "></path><path d="M 342 550 Q 345 549 344 552 Q 341 553 342 550 Z "></path><path d="M 343.5 553 L 344.5 555 L 343.5 553 Z "></path><path d="M 127.5 559 L 129.5 560 L 131.5 560 L 140 559 Q 141.3 563.6 138.5 565 L 137 561 L 129 561 L 129 566.5 L 130 569 L 133 569 Q 131.9 565.7 136 567 L 137 574 L 133 572.5 L 132.5 571 L 129 572 L 129 582 L 136.5 582 L 140.5 578 L 142.5 578 L 139 582.5 L 138.5 584 L 124 584 L 124 562.5 L 123 560 L 127.5 559 Z "></path><path d="M 148.5 559 L 156.5 560 L 159 562.5 L 163.5 568 Q 169 566.4 168 560 L 171.5 559 L 173.5 559 Q 175.8 558.3 175 560.5 L 174 561.5 L 174 580.5 L 177 582.5 Q 175.8 585.2 174.5 583 L 168 582.5 L 170 580.5 L 170 565 Q 167.3 563.9 168 566.5 L 161.5 574 L 155 568.5 L 154.5 567 L 153 572.5 L 154 576.5 L 153 580.5 L 156 582.5 Q 154.8 585.2 153.5 583 L 151.5 584 L 149.5 584 Q 145.8 585 147 582 L 149 581.5 L 149 568.5 L 150 563.5 L 148.5 560 L 147 560.5 L 148.5 559 Z "></path><path d="M 189.5 559 L 196.5 560 L 198 561.5 L 199 566.5 L 195.5 571 L 186 572 L 186 580.5 L 187.5 581 L 188.5 583 Q 183.8 581.8 182.5 584 Q 178.3 582.2 181 580.5 L 181 562.5 L 178.5 562 L 177.5 560 L 188.5 560 L 189.5 559 Z M 186 561 L 186 570 L 192 570 Q 194 568 193 563 Q 191 559 186 561 Z "></path><path d="M 236.5 559 L 243.5 560 L 248 563.5 Q 249 569 245.5 570 Q 242.9 569.2 244 572.5 L 251.5 581 Q 254.1 580.3 253 583 L 250.5 584 L 244 578.5 L 239.5 571 Q 236.2 569.9 237 572.5 L 236 575.5 L 236 580.5 Q 238.8 579.9 238 583 L 230 582.5 L 231 581.5 L 231 567.5 L 232 562 Q 227.9 563.3 229 560 L 235.5 560 L 236.5 559 Z M 237 563 L 237 569 L 243 569 L 243 563 L 237 563 Z "></path><path d="M 288.5 559 L 296.5 560 L 298.5 559 L 304 561.5 L 305 565.5 L 302.5 569 Q 299.5 568.1 301 572.5 L 307 579.5 L 308 583 L 303 583 L 303 581.5 L 295.5 571 L 292 572.5 L 293 583 L 288.5 584 L 286 582.5 L 287 581.5 L 287 562 L 284 560.5 L 288.5 559 Z M 294 561 Q 291 562 292 567 Q 293 569 298 568 L 299 562 L 294 561 Z "></path><path d="M 343.5 559 L 344.5 561 L 343.5 559 Z "></path><path d="M 27.5 560 L 29.5 561 L 41.5 561 L 46.5 560 L 48.5 560 L 52 561.5 L 51 565 L 47 563.5 Q 47.8 560.9 44.5 562 L 42 562.5 L 41 580.5 L 43 584 L 32.5 584 L 32 582.5 L 35 579.5 L 35 563.5 L 31.5 562 L 29 563.5 L 27.5 566 Q 24.1 566.9 26 561.5 L 27.5 560 Z "></path><path d="M 55 560 Q 59.7 559.1 62 561.5 Q 59.5 563 61 568.5 L 62.5 570 L 72 570 L 72 561.5 L 71 560.5 L 78 560 L 77 562.5 L 77 579.5 L 78 582 Q 81 581 80 584 L 76.5 583 L 71.5 584 L 72 582.5 L 72 571 L 66.5 571 L 61 572 Q 59.1 574.7 60 581.5 L 61 585 L 56.5 584 L 53 585 Q 52 582 55 583 L 55 579.5 L 55 577.5 L 55 560 Z "></path><path d="M 81 560 L 83.5 561 L 86.5 560 L 98.5 560 L 99 563.5 Q 97 568 95 564.5 Q 96.3 559.9 90.5 562 L 89 563.5 L 88 569.5 L 91 571 Q 89.5 566.5 94 568 L 95 573.5 L 92 575.5 L 90.5 573 L 88 573.5 L 88 582 L 96.5 582 L 97 580.5 L 99 577 L 103 577.5 L 97.5 584 L 83 584 L 83 562.5 Q 80.3 563.1 81 560 Z "></path><path d="M 204.5 560 L 221.5 560 L 222 563 Q 218.3 560.8 210 562 Q 208.5 567.4 211.5 569 L 213 565 L 216 566.5 Q 217.8 573.3 214.5 575 L 210 572 L 209 579.5 L 212.5 581 L 214.5 581 L 217.5 581 L 222.5 577 Q 225.5 578.5 222.5 580 Q 220.3 584.3 212.5 583 L 210.5 583 Q 205.7 581.8 204.5 584 L 204 582.5 L 205 581.5 L 205 561.5 L 204.5 560 Z "></path><path d="M 265.5 560 Q 275.3 559.7 278 566.5 L 279 575.5 L 274.5 582 Q 269.7 584.3 261.5 583 L 256 582 L 253 570.5 L 255 564.5 L 257.5 562 L 265.5 560 Z M 264 563 L 261 564 Q 258 567 259 576 L 265 580 L 269 580 L 274 573 Q 275 566 272 564 Q 270 562 264 563 Z "></path><path d="M 315.5 578 L 320 578 L 320 583 Q 315.3 584 314 580.5 L 315.5 578 Z "></path><path d="M 341.5 587 L 342 589 L 340 588.5 L 341.5 587 Z "></path><path d="M 345.5 587 L 346 589.5 L 345 589.5 L 345.5 587 Z "></path></svg>