<svg width="350" height="600" version="1.1" xmlns="http://www.w3.org/2000/svg" desc="Created with imagetracer.js version 1.2.5"><path d="M 235.5 5 L 236.5 6 L 270.5 6 Q 272.3 3.2 278.5 5 L 279.5 6 L 307.5 6 L 309.5 6 L 321.5 5 L 323.5 6 L 324.5 5 L 332.5 5 L 335 6 L 336 104.5 L 335 106.5 L 336 107.5 L 336 221.5 L 337 222.5 L 337 316.5 L 338 317.5 L 338 326.5 L 337 329.5 L 338 333.5 L 337 337.5 L 338 339.5 Q 335.5 341 337 346.5 L 338 347.5 L 338 355.5 L 337 357.5 L 338 359.5 L 338 361.5 L 337 369.5 L 338 371.5 L 338 373.5 L 338 390.5 L 337 392.5 L 338 393.5 L 338 409.5 L 337 412.5 L 338 413.5 L 338 425.5 Q 335.5 427 337 432.5 L 338 434.5 L 338 436.5 L 337 442.5 L 337 444.5 L 338 456.5 L 337 457.5 L 337 509.5 L 338 510.5 L 338 533.5 Q 335.5 535 337 540.5 L 338 542.5 L 337 543.5 L 337 591.5 L 335.5 593 L 331.5 592 L 329.5 593 L 328.5 592 L 313.5 592 L 311.5 593 Q 309.8 590.3 303.5 592 L 301.5 593 L 300.5 592 L 284.5 592 L 282.5 592 L 277.5 593 L 274.5 592 L 272.5 593 L 270.5 593 L 267.5 592 L 264.5 593 L 262.5 593 L 249.5 593 L 248.5 592 L 247.5 593 L 208.5 593 L 205.5 594 L 204.5 593 L 190.5 593 L 188.5 593 L 184.5 594 L 182.5 594 L 170.5 595 L 169.5 594 L 105.5 594 L 104.5 593 L 101.5 594 L 99.5 594 L 52.5 594 L 50.5 593 L 49.5 594 L 6 594 L 7 588.5 L 6 587.5 L 6 560.5 L 6 558.5 L 7 552.5 L 6 551.5 L 6 543.5 L 7 539.5 L 6 538.5 L 6 506.5 Q 3.2 504.8 5 498.5 L 6 495.5 L 5 494.5 L 5 476.5 L 6 474.5 L 5 471.5 L 6 470.5 L 6 461.5 L 5 459.5 L 6 458.5 L 6 430.5 L 6 428.5 Q 7.8 422.2 5 420.5 L 6 416.5 L 6 414.5 L 6 364.5 L 5 361.5 L 6 359.5 L 5 357.5 L 5 355.5 L 6 353.5 L 6 240.5 L 7 239.5 L 7 231.5 L 6 230.5 L 6 160.5 L 5 158.5 L 6 157.5 L 6 123.5 L 6 121.5 L 5 114.5 L 6 112.5 L 5 110.5 L 6 109.5 L 6 93.5 L 5 92.5 L 5 75.5 L 6 72.5 L 6 70.5 L 6 49.5 L 5 48.5 L 6 44.5 L 5 40.5 L 6 39.5 L 6 8 L 8.5 7 L 10.5 7 L 14.5 8 L 15.5 7 L 42.5 7 L 45.5 8 L 47.5 7 L 48.5 8 L 56.5 8 L 58.5 8 L 61.5 7 L 62.5 8 L 123.5 8 L 125.5 8 L 133.5 7 L 135.5 7 L 191.5 7 L 192.5 6 L 194.5 6 L 198.5 7 L 201.5 6 L 203.5 6 L 234.5 6 L 235.5 5 Z M 283 7 L 282 8 L 201 8 L 199 9 L 196 8 L 193 9 L 191 8 L 190 9 L 171 9 L 170 10 Q 165 11 164 9 L 159 10 L 157 9 L 155 10 L 153 10 L 141 9 L 139 9 L 115 9 L 111 10 L 109 10 Q 107 8 102 9 L 100 9 L 95 10 L 93 9 L 90 10 L 64 10 L 63 11 L 58 10 L 9 10 L 9 18 L 8 19 L 9 21 L 9 36 L 8 37 L 8 47 L 9 48 L 9 78 Q 6 79 8 86 L 8 88 L 9 91 L 9 106 L 8 107 L 8 118 L 9 119 L 9 277 L 12 277 L 12 270 L 10 270 L 15 261 Q 17 257 19 261 L 21 260 Q 20 265 23 267 L 22 270 L 24 273 L 23 275 Q 24 279 21 278 L 20 271 L 18 270 Q 13 268 14 272 L 14 274 L 15 277 L 14 282 L 15 286 L 20 289 L 26 280 Q 28 279 27 282 L 32 283 L 34 283 L 36 282 L 34 277 L 40 267 L 43 265 L 44 263 Q 42 261 43 257 L 42 255 Q 38 257 39 264 L 37 267 L 36 236 L 35 233 L 34 235 L 34 236 Q 36 235 35 238 L 31 241 Q 29 247 32 249 L 30 249 L 31 256 L 31 258 L 32 260 L 31 263 L 32 266 L 31 269 L 32 270 L 30 270 L 30 263 L 30 261 L 29 258 L 30 256 L 29 254 L 29 240 L 27 239 L 28 242 L 26 242 L 26 238 L 25 241 L 22 242 L 24 239 L 22 237 L 21 240 L 21 242 L 20 250 L 19 237 L 18 236 L 27 225 L 26 222 Q 30 221 28 226 L 36 231 Q 39 232 38 237 L 38 239 L 37 251 L 37 253 L 39 256 L 42 252 L 48 253 L 49 254 L 48 252 Q 49 245 52 242 Q 51 238 54 239 L 57 247 Q 56 249 60 248 L 60 255 L 60 257 L 61 265 L 66 270 L 66 273 L 66 275 L 63 281 L 64 285 L 69 286 L 72 282 Q 73 275 70 272 L 70 258 L 67 244 L 68 241 L 65 227 L 62 190 L 60 183 L 60 178 L 58 175 L 58 170 L 56 168 L 58 159 L 60 156 L 64 158 L 64 156 L 60 152 L 61 150 Q 62 145 57 147 L 58 135 L 59 134 L 60 114 L 62 106 L 62 93 L 63 92 L 62 84 L 65 82 Q 61 80 63 73 L 63 71 L 62 51 Q 59 49 60 44 L 66 40 L 81 40 L 82 41 L 84 40 Q 88 39 90 41 L 97 40 L 101 40 L 118 40 L 119 41 L 120 40 L 165 40 L 168 39 L 177 40 L 179 40 L 181 39 L 183 40 L 185 40 L 192 39 L 194 39 L 198 40 L 200 40 L 224 39 L 226 39 L 228 38 L 231 39 L 233 38 L 266 38 L 268 41 Q 270 47 267 49 Q 266 54 268 56 L 267 65 L 265 69 L 266 84 L 268 91 L 268 102 L 270 110 L 270 119 L 271 120 L 271 137 L 273 145 L 270 147 L 271 150 L 270 153 L 268 152 L 267 154 L 263 153 Q 262 156 265 155 L 266 158 L 266 221 L 267 222 L 267 251 L 268 252 L 267 254 L 268 255 L 268 279 L 269 280 L 268 283 Q 272 284 271 282 Q 272 279 277 280 L 278 283 Q 278 279 284 280 Q 285 284 287 281 L 285 280 L 284 273 L 287 271 L 288 276 L 287 280 Q 291 279 293 282 Q 294 279 299 280 L 300 282 L 303 280 L 303 274 L 297 274 L 296 278 L 294 277 Q 292 279 291 277 L 291 274 Q 287 275 288 272 L 291 273 L 305 273 Q 308 272 307 266 L 310 264 L 311 260 Q 314 259 313 263 L 316 264 Q 319 265 318 272 L 322 275 L 322 260 L 320 259 L 320 256 L 324 250 L 324 243 L 321 242 L 321 240 L 326 241 Q 327 237 325 238 Q 323 234 321 238 L 320 236 L 317 238 L 312 237 Q 313 234 315 236 L 317 235 Q 321 236 320 234 L 314 228 L 312 229 L 312 228 L 312 218 L 303 218 L 304 229 L 301 231 L 297 235 L 299 237 L 296 236 Q 293 235 294 238 L 294 240 L 293 241 L 293 252 L 298 253 L 293 254 L 293 252 Q 290 251 291 254 L 289 252 L 287 255 Q 282 256 281 254 Q 282 251 279 252 L 278 257 L 280 264 Q 279 267 282 266 L 284 266 Q 291 265 290 268 Q 284 267 283 270 L 279 267 L 276 263 Q 275 255 277 250 L 283 250 L 283 253 L 287 251 L 290 251 L 290 242 L 290 240 L 291 236 Q 292 233 296 234 L 301 229 L 301 217 L 307 210 Q 306 206 309 205 Q 312 207 308 209 L 309 214 L 309 215 Q 311 216 310 214 L 310 212 Q 309 209 312 210 Q 318 215 316 229 L 323 234 Q 325 233 324 236 L 327 236 L 327 238 L 329 237 Q 333 237 333 237 L 333 199 L 333 197 L 333 163 L 332 162 L 333 160 Q 334 155 332 154 L 333 152 L 333 143 L 332 142 L 333 140 L 332 136 L 332 36 L 332 34 L 331 10 L 330 8 L 300 8 L 298 7 L 296 7 L 292 8 L 283 7 Z M 238 41 L 232 43 L 235 43 L 233 46 L 235 48 L 235 51 Q 231 48 232 43 L 227 45 L 228 47 Q 230 51 232 48 L 232 50 L 229 49 Q 227 51 226 49 L 226 45 Q 223 46 224 43 L 227 43 L 197 42 L 195 42 Q 192 41 193 44 L 194 45 L 190 44 L 190 46 L 189 43 L 188 43 L 181 42 L 178 46 Q 174 41 165 43 L 166 45 L 168 44 L 170 51 L 179 63 Q 181 64 180 61 L 183 59 L 186 64 Q 187 66 185 65 L 183 63 L 182 63 Q 181 66 184 67 Q 186 66 185 69 L 188 71 L 187 69 L 188 64 L 190 64 Q 189 61 188 63 L 183 56 L 179 58 L 176 58 L 180 56 L 182 53 L 186 56 Q 188 55 187 58 L 196 65 L 198 67 L 198 65 L 202 65 L 204 62 L 204 60 L 201 62 L 200 60 Q 203 61 205 58 L 207 59 L 205 62 L 208 60 L 211 63 L 213 61 L 213 63 Q 210 64 215 66 L 219 65 L 222 69 L 225 68 L 224 70 L 228 72 L 230 71 Q 232 70 231 74 L 234 72 L 235 74 L 237 71 L 237 75 L 247 77 L 249 77 Q 251 78 250 74 L 248 75 Q 245 76 246 73 L 244 74 L 243 71 L 240 72 L 241 70 L 241 68 L 237 70 L 239 67 L 238 65 L 234 68 L 236 65 Q 237 61 234 62 L 233 67 L 230 69 L 232 65 L 231 63 L 233 60 L 232 60 Q 229 59 231 58 Q 232 55 229 56 L 231 53 L 233 54 L 236 59 Q 235 61 238 60 L 240 65 L 247 69 L 246 68 L 248 64 L 248 66 L 248 68 L 247 70 Q 249 73 254 73 L 256 76 L 259 74 L 256 73 L 253 66 L 259 61 L 260 66 L 258 67 Q 254 66 255 69 L 261 67 L 262 71 L 263 66 L 263 59 L 260 60 L 260 58 Q 264 59 263 57 L 262 57 L 260 57 L 263 55 L 260 54 L 262 48 Q 261 44 264 45 L 263 48 L 264 50 L 265 48 Q 266 42 263 41 L 259 43 L 260 45 L 258 43 L 257 45 L 256 44 L 255 42 Q 249 44 248 41 L 246 42 L 244 42 L 238 41 Z M 100 43 Q 98 45 94 44 L 94 46 L 94 48 L 89 48 L 90 45 L 86 44 L 84 44 Q 81 43 82 47 L 84 46 Q 88 44 87 48 L 86 47 L 81 48 L 80 44 L 78 48 L 76 47 L 74 47 L 76 50 L 75 50 L 72 45 L 65 45 L 63 47 Q 66 49 66 54 L 66 51 L 71 51 L 66 49 L 68 46 Q 70 45 69 48 L 71 48 L 72 52 L 69 53 L 69 55 Q 70 57 67 56 L 65 56 L 66 61 L 66 57 L 69 59 L 67 60 L 70 67 L 70 68 Q 67 67 68 62 L 66 63 L 66 74 L 67 74 Q 66 71 69 72 L 69 71 Q 66 72 67 70 L 69 70 Q 73 71 71 67 L 72 67 L 71 72 L 73 73 L 76 70 L 73 69 Q 74 66 76 68 L 77 65 L 74 63 L 74 61 L 72 64 L 70 64 L 72 61 Q 71 58 75 59 L 76 62 Q 75 64 79 63 L 80 67 L 83 68 L 81 69 L 78 68 L 79 71 L 79 72 L 75 72 L 75 74 L 75 75 Q 79 76 81 74 L 83 75 L 83 72 L 89 70 L 90 68 L 88 69 L 86 69 L 92 66 Q 93 68 94 66 L 93 65 L 91 62 L 94 63 L 95 65 L 97 64 L 99 61 L 96 62 L 92 61 L 94 58 L 94 61 L 98 58 L 101 61 L 100 58 L 102 54 L 105 55 L 102 59 L 109 53 L 116 55 L 117 57 L 108 56 L 108 58 L 114 58 Q 113 61 116 63 L 116 64 L 114 61 Q 111 60 112 63 L 108 63 Q 107 66 110 65 L 110 71 L 108 71 L 109 66 L 106 65 Q 107 61 104 62 L 102 62 L 104 64 Q 106 63 105 66 L 103 65 L 100 66 L 102 66 Q 103 69 100 68 L 98 68 L 97 66 L 93 68 L 98 70 L 95 70 Q 93 66 91 70 Q 90 72 94 71 L 98 77 L 101 75 L 105 69 Q 108 71 105 72 Q 102 71 103 75 L 113 72 L 114 71 L 113 68 L 117 70 L 116 68 Q 115 65 118 66 L 119 69 Q 129 66 135 59 L 132 55 L 134 51 L 134 49 L 129 49 L 128 46 L 126 49 Q 125 51 124 49 L 122 50 L 123 53 L 122 56 Q 123 59 120 58 L 122 54 L 119 49 Q 124 50 125 47 Q 124 44 127 45 L 127 43 L 124 44 L 122 43 Q 120 46 114 44 L 112 44 Q 109 43 110 47 L 109 47 Q 110 43 107 44 L 107 46 Q 104 47 105 44 L 102 46 L 100 43 Z M 133 43 L 129 45 L 130 47 L 136 48 Q 137 51 134 53 L 137 57 L 140 55 Q 142 54 141 49 L 142 49 Q 141 51 144 50 Q 145 48 146 51 L 144 52 L 147 53 L 148 48 L 152 50 L 154 50 L 155 53 L 153 52 L 148 53 L 151 53 L 151 55 Q 154 54 153 57 L 155 59 L 150 56 Q 147 57 149 59 Q 150 61 147 60 L 146 57 L 144 60 L 139 59 L 139 57 L 137 60 L 141 62 L 140 64 L 146 66 L 146 68 L 153 64 Q 160 59 162 49 L 164 46 L 158 47 L 158 49 L 152 49 L 146 46 L 144 43 L 143 47 Q 140 48 141 45 L 142 43 Q 136 42 135 44 L 133 43 Z M 146 43 L 146 45 L 150 45 L 150 47 L 152 46 L 156 47 L 157 44 L 162 45 L 163 43 L 155 43 L 154 44 L 153 43 L 146 43 Z M 75 44 Q 74 47 77 46 Q 78 43 75 44 Z M 145 55 L 145 56 L 148 56 L 145 55 Z M 106 58 L 105 61 L 108 62 L 111 61 L 106 58 Z M 136 60 L 134 62 Q 133 64 136 63 L 135 67 Q 132 66 133 69 L 131 69 L 130 65 L 128 66 L 129 69 Q 127 72 126 68 L 123 69 L 125 69 Q 126 72 124 71 L 121 70 L 122 73 L 119 74 L 117 72 L 115 73 L 116 75 L 113 73 Q 110 74 112 76 Q 110 79 109 75 Q 106 74 107 77 L 110 80 L 108 79 L 106 80 L 104 76 L 102 80 L 104 80 L 107 84 L 111 83 Q 110 79 113 78 L 114 82 L 122 79 L 121 76 L 124 74 L 125 76 Q 122 75 123 78 L 133 75 Q 135 74 135 69 L 137 72 Q 139 73 138 71 L 141 72 L 143 68 L 143 70 L 145 69 L 144 66 Q 139 67 138 64 Q 139 61 136 62 L 136 60 Z M 168 60 L 166 62 L 165 69 L 156 66 Q 155 70 158 73 L 154 76 Q 155 78 160 77 L 157 85 L 165 81 L 168 87 L 172 80 Q 174 84 179 85 L 177 77 L 182 76 Q 184 75 183 78 L 188 81 L 190 88 Q 192 91 194 87 Q 192 78 186 74 L 184 75 L 181 74 L 183 73 L 182 71 Q 177 69 178 73 L 176 72 Q 179 70 178 66 Q 174 65 172 68 L 168 60 Z M 132 63 L 131 65 L 134 66 L 134 64 L 132 63 Z M 205 63 L 204 65 L 200 66 Q 199 69 202 68 L 202 71 L 204 71 Q 206 67 208 71 L 208 68 L 210 68 L 210 73 L 206 71 L 205 73 L 215 76 L 219 75 L 218 73 L 219 70 L 217 71 Q 213 72 215 68 L 213 69 Q 210 70 211 67 L 209 67 L 209 63 L 208 65 L 205 63 Z M 191 64 L 191 73 L 196 74 Q 197 76 198 74 Q 197 71 200 72 L 201 73 L 200 70 L 196 71 L 196 68 L 193 69 Q 194 65 191 64 Z M 119 70 L 120 72 Q 121 69 119 70 Z M 152 70 L 148 72 Q 142 76 140 83 Q 138 87 142 86 L 145 80 L 156 72 Q 157 68 152 70 Z M 88 71 L 86 73 L 88 73 L 91 79 L 96 77 L 95 73 L 88 71 Z M 221 71 L 222 75 L 223 75 Q 224 70 221 71 Z M 263 72 L 259 76 L 262 76 L 263 74 L 263 72 Z M 71 73 L 68 77 L 71 78 L 71 73 Z M 201 73 L 201 75 Q 204 74 203 77 L 202 76 L 200 77 L 204 79 Q 206 78 205 81 L 208 80 L 211 82 L 214 81 L 214 84 Q 216 87 217 84 Q 216 81 219 82 L 220 85 L 220 83 L 223 82 L 222 79 L 221 81 L 220 80 Q 217 81 218 79 L 216 80 Q 213 81 214 79 L 212 80 L 210 76 L 209 78 Q 206 79 207 75 L 201 73 Z M 227 73 Q 222 75 225 77 L 225 78 L 220 75 L 218 78 L 225 79 L 227 79 L 234 81 L 235 76 L 234 76 Q 235 78 233 77 Q 231 79 230 77 L 231 75 L 228 77 Q 225 76 227 75 L 227 73 Z M 84 75 L 83 77 L 81 80 L 86 79 L 85 81 L 86 84 Q 87 86 89 84 Q 93 83 95 85 L 103 83 L 100 77 Q 96 79 100 81 L 99 83 L 98 81 L 96 82 L 94 83 L 95 80 L 94 80 Q 91 79 92 82 L 89 81 Q 86 82 87 80 L 87 78 L 88 76 L 86 75 L 84 75 Z M 253 75 L 252 78 L 253 78 L 253 75 Z M 67 76 Q 65 79 68 78 L 67 76 Z M 80 76 L 81 78 Q 82 75 80 76 Z M 239 76 L 236 80 Q 234 81 237 82 L 238 79 L 238 81 L 242 82 L 243 78 L 239 80 L 239 76 Z M 259 76 L 249 84 L 252 80 L 251 79 L 248 80 L 245 79 L 244 82 L 247 83 L 244 88 L 243 83 L 242 85 L 239 84 L 237 85 Q 235 82 234 86 L 233 82 L 231 86 L 233 87 L 240 88 L 231 91 L 230 94 L 230 124 L 231 125 Q 233 131 230 133 L 231 151 L 232 152 L 231 154 L 234 161 Q 235 163 239 162 L 242 166 L 247 163 L 248 162 L 248 151 L 243 148 L 244 145 L 243 136 Q 247 134 246 138 L 248 141 L 251 137 L 246 134 L 240 135 L 238 130 L 249 88 L 246 87 L 252 86 L 259 78 L 259 76 Z M 73 77 L 72 79 L 76 81 L 75 86 L 80 88 Q 81 90 82 88 L 79 86 L 78 79 L 73 77 Z M 264 77 L 263 85 L 261 87 L 263 87 Q 264 89 265 87 L 264 86 L 264 77 Z M 66 79 Q 64 83 69 82 L 71 82 L 72 82 Q 71 78 66 79 Z M 227 80 L 225 83 Q 224 85 223 83 L 222 86 L 228 87 L 231 87 L 229 84 L 230 82 Q 227 81 228 84 L 226 85 L 227 82 L 227 80 Z M 260 80 L 253 86 L 250 90 L 251 92 L 254 90 L 256 91 L 254 94 L 254 102 L 253 103 L 256 105 L 255 100 L 256 93 L 259 94 Q 258 90 261 89 L 258 88 L 259 84 L 262 81 L 260 80 Z M 149 81 L 146 87 L 148 89 L 153 87 L 149 81 Z M 68 83 L 67 84 Q 64 83 65 86 L 70 84 L 68 83 Z M 186 83 L 181 86 Q 178 85 179 88 L 179 90 L 183 92 L 183 91 L 182 88 L 187 90 L 187 84 L 186 83 Z M 73 85 L 72 88 L 70 87 Q 63 85 65 92 L 66 92 Q 65 88 68 89 L 70 95 L 72 94 L 76 95 L 78 91 L 76 89 L 73 90 L 73 85 Z M 92 87 L 93 91 L 93 119 L 93 121 L 93 149 L 94 150 L 93 152 L 93 154 L 94 157 L 94 159 L 95 166 L 97 160 L 97 156 L 106 152 L 106 137 L 105 136 L 105 126 L 106 125 L 105 123 L 106 121 L 105 119 L 105 94 L 102 93 L 95 87 L 92 87 Z M 159 87 L 159 89 L 163 90 Q 165 85 159 87 Z M 136 88 L 138 93 L 141 91 Q 144 92 143 89 L 136 88 Z M 153 88 L 151 91 L 154 90 Q 155 87 153 88 Z M 173 88 Q 172 91 175 90 Q 176 87 173 88 Z M 195 88 L 189 92 L 195 95 L 198 90 L 195 88 Z M 265 88 L 264 94 L 265 94 L 265 88 Z M 262 89 L 260 92 L 262 93 L 262 89 Z M 147 90 L 145 93 L 148 92 Q 149 89 147 90 Z M 167 90 Q 166 93 169 92 Q 170 89 167 90 Z M 159 91 L 160 94 L 163 94 L 159 91 Z M 171 91 L 171 93 L 174 94 Q 177 95 176 92 L 175 92 L 171 91 Z M 188 91 Q 185 92 187 94 Q 186 96 189 95 L 190 96 L 188 91 Z M 153 92 L 151 94 L 155 95 Q 157 91 153 92 Z M 200 92 L 198 93 L 196 96 Q 199 97 198 94 L 202 95 Q 205 97 201 99 Q 197 98 198 101 L 203 100 L 206 96 L 208 98 L 208 100 L 213 100 L 212 103 L 211 101 L 209 102 L 206 98 L 205 100 Q 204 103 200 102 Q 199 105 202 104 L 201 108 Q 202 111 199 110 L 200 108 L 200 104 L 196 109 Q 199 111 198 115 L 203 113 L 205 119 Q 208 120 204 122 L 203 120 Q 205 121 204 118 Q 202 113 200 117 L 202 123 L 202 124 L 200 120 L 199 124 L 204 128 L 203 126 L 204 124 L 206 125 L 208 134 Q 209 137 206 136 L 205 129 L 204 129 Q 203 133 205 135 Q 206 141 202 142 L 207 142 L 211 136 L 212 141 L 215 142 L 215 132 L 214 134 L 210 135 L 209 132 L 213 133 L 214 130 L 213 128 L 213 126 Q 212 123 215 124 L 214 121 L 215 118 L 214 114 L 210 117 L 208 117 L 213 111 L 213 113 L 215 114 L 214 109 L 211 110 L 212 107 L 211 104 L 213 105 L 214 106 L 214 97 L 210 99 L 209 96 L 211 96 L 211 95 L 213 95 L 214 95 L 213 93 L 200 92 Z M 82 93 L 79 96 L 80 98 L 82 97 L 82 93 Z M 166 93 L 166 96 Q 168 99 169 96 L 166 93 Z M 179 93 Q 178 96 181 95 Q 182 97 183 95 L 179 93 Z M 216 93 L 218 96 L 221 95 L 226 96 Q 228 97 227 94 L 226 94 L 225 93 L 216 93 Z M 87 94 L 86 96 L 90 95 L 87 94 Z M 141 94 L 141 97 L 143 96 Q 144 93 141 94 Z M 148 94 L 146 96 L 150 97 L 148 94 Z M 266 94 Q 263 98 264 106 L 267 107 L 266 94 Z M 109 95 Q 106 97 109 98 L 114 97 Q 118 98 117 95 L 111 96 L 109 95 Z M 121 95 L 122 104 L 124 103 L 122 98 L 125 97 Q 129 96 130 99 Q 134 97 133 102 L 135 103 L 134 99 L 134 97 Q 135 94 133 95 L 130 96 L 129 95 L 121 95 Z M 171 95 L 171 98 L 177 97 L 171 95 Z M 250 95 L 248 98 Q 247 101 250 100 L 251 101 Q 252 96 250 95 Z M 259 95 L 260 104 L 262 101 Q 264 93 259 95 Z M 68 96 L 67 99 L 68 99 L 68 96 Z M 70 96 L 70 99 L 73 101 L 72 99 Q 73 95 70 96 Z M 74 96 L 76 98 Q 77 95 74 96 Z M 137 96 L 137 98 L 139 99 Q 140 95 137 96 Z M 160 96 L 152 99 Q 146 97 147 101 L 149 100 L 151 101 L 158 98 L 161 99 L 161 98 L 164 99 L 164 98 Q 163 95 160 96 Z M 185 96 Q 183 99 187 100 Q 190 101 189 99 L 185 96 Z M 193 96 L 192 99 L 195 100 L 193 96 Z M 89 97 L 90 99 Q 91 96 89 97 Z M 219 97 L 218 101 L 218 129 L 219 130 L 219 146 L 218 148 L 221 147 Q 223 148 222 145 L 227 145 L 227 143 L 225 144 Q 222 145 223 142 Q 227 143 228 141 L 223 140 L 227 138 Q 228 135 225 136 L 223 137 L 223 135 L 227 135 Q 228 131 223 133 L 223 131 L 227 131 L 223 130 Q 222 126 227 128 Q 228 124 223 126 L 223 124 L 226 124 L 223 123 L 225 120 L 227 121 Q 228 118 224 119 L 225 117 Q 228 118 227 115 L 225 116 L 224 115 L 227 113 L 225 112 Q 224 109 227 110 Q 228 107 224 108 L 224 103 L 226 103 L 224 102 Q 219 100 222 99 Q 223 95 219 97 Z M 118 98 L 109 100 L 113 102 L 111 102 L 109 105 L 113 104 Q 114 108 109 106 Q 108 109 112 108 L 112 109 Q 108 108 109 111 L 109 113 Q 108 115 111 114 L 112 114 Q 113 117 109 115 L 109 117 L 112 118 L 109 120 L 112 121 Q 111 123 110 121 L 109 123 L 112 125 L 110 125 Q 109 128 112 127 L 112 128 Q 109 127 110 130 L 113 131 L 110 133 L 112 133 L 113 135 Q 109 134 110 137 L 114 138 L 110 138 L 110 143 L 114 143 L 114 144 Q 109 143 110 146 L 115 147 L 117 147 L 120 145 L 119 140 L 119 123 L 118 122 L 119 120 Q 117 118 118 114 L 118 112 Q 117 107 119 106 Q 120 100 118 98 Z M 178 98 L 176 100 L 178 102 L 180 101 Q 182 102 181 99 L 178 98 Z M 64 99 L 64 101 L 66 100 L 64 99 Z M 75 99 Q 73 102 76 101 L 75 99 Z M 82 99 L 79 102 L 81 108 L 85 106 L 83 101 Q 84 98 82 99 Z M 87 100 L 86 102 L 90 102 L 87 100 Z M 131 100 L 129 104 L 124 105 L 126 109 L 125 112 Q 126 115 123 114 L 124 110 L 122 106 L 121 111 L 121 113 L 122 118 L 121 120 Q 122 122 126 121 L 124 118 L 126 115 Q 129 116 128 113 L 126 113 L 129 112 L 130 115 Q 133 116 132 112 L 136 111 L 137 112 L 136 109 L 137 107 L 139 108 L 136 104 L 134 105 L 131 100 Z M 166 100 L 161 101 L 157 104 Q 158 106 154 105 L 152 108 Q 156 109 158 107 L 163 109 Q 166 108 165 112 L 158 116 L 155 115 Q 150 117 151 113 L 154 111 L 155 109 L 151 111 L 149 110 L 148 115 L 148 117 L 149 125 L 154 135 L 159 138 L 167 140 L 171 139 L 173 139 L 177 135 L 180 126 L 182 124 L 182 114 L 182 112 L 182 110 L 179 112 L 180 115 L 175 117 L 172 118 L 172 126 L 168 128 L 165 126 L 163 123 L 169 124 L 168 111 L 175 107 L 180 108 Q 181 104 179 103 L 178 105 L 179 106 L 169 100 L 166 100 Z M 139 101 Q 136 106 140 105 L 139 101 Z M 144 101 L 144 103 L 146 102 L 144 101 Z M 185 101 L 187 105 Q 188 108 186 107 L 184 104 L 182 105 L 188 112 L 189 117 L 194 118 L 194 117 L 189 114 L 190 111 L 188 104 L 185 101 Z M 192 101 L 193 104 Q 195 105 194 102 L 192 101 Z M 248 102 L 247 107 L 249 108 L 248 108 L 245 112 L 246 116 L 247 114 L 248 117 L 252 118 Q 253 115 249 116 Q 248 113 251 114 Q 252 111 249 112 Q 248 109 251 110 L 251 104 L 248 102 Z M 64 103 L 63 107 L 64 107 L 64 103 Z M 262 103 L 259 106 L 259 115 L 262 117 L 263 115 L 262 103 Z M 88 104 L 88 106 L 90 107 Q 91 103 88 104 Z M 148 104 L 147 105 Q 142 104 144 109 L 143 112 Q 142 115 145 114 Q 144 107 148 106 L 148 104 Z M 69 105 L 69 111 L 75 110 L 75 109 Q 71 110 72 107 L 76 107 L 69 105 Z M 193 105 Q 192 109 195 108 Q 196 104 193 105 Z M 254 106 L 254 114 L 256 113 Q 258 105 254 106 Z M 141 107 L 142 111 L 143 108 L 141 107 Z M 83 108 L 82 109 Q 76 107 77 111 L 81 110 Q 82 114 77 112 Q 76 115 80 114 Q 81 112 82 115 L 80 116 Q 76 115 77 118 L 80 117 L 82 118 L 84 115 L 86 116 L 86 112 L 85 112 Q 86 115 82 113 Q 81 110 85 111 Q 87 107 83 108 Z M 182 108 Q 181 111 184 110 Q 186 115 185 124 L 187 123 L 186 120 L 188 120 L 185 110 L 182 108 Z M 89 109 L 90 111 Q 91 108 89 109 Z M 67 110 L 66 114 L 67 114 L 67 110 Z M 177 110 L 177 111 L 179 111 L 177 110 Z M 64 111 L 62 114 L 62 122 L 61 123 L 62 125 L 63 124 L 63 116 L 64 115 L 64 111 Z M 194 111 L 193 113 L 195 114 L 194 111 Z M 267 111 L 265 113 L 266 117 L 268 116 Q 270 110 267 111 Z M 69 113 L 69 119 L 68 118 L 67 121 L 70 122 L 69 125 L 70 129 L 68 129 L 69 133 L 72 134 L 71 132 Q 70 129 73 130 L 73 128 L 71 128 L 74 124 L 74 113 L 72 117 L 70 118 L 71 116 Q 72 112 69 113 Z M 135 113 L 133 116 L 136 114 L 135 113 Z M 197 113 L 196 118 L 199 120 L 197 113 Z M 256 114 L 255 119 L 257 118 L 256 114 Z M 140 115 L 136 120 L 139 124 L 140 117 L 140 115 Z M 130 116 L 129 119 L 127 120 L 132 122 L 133 117 L 132 117 L 130 116 Z M 143 116 Q 141 121 145 120 Q 147 115 143 116 Z M 246 117 L 246 119 Q 243 118 244 121 Q 246 125 249 121 Q 251 122 250 120 L 246 117 Z M 262 117 L 262 119 L 260 119 L 261 128 L 261 126 L 265 124 Q 266 120 263 121 L 264 118 L 262 117 Z M 83 118 L 83 120 L 81 121 Q 78 120 79 123 L 77 123 L 78 125 L 81 124 L 82 124 L 81 126 L 82 128 L 77 130 L 76 128 L 75 131 L 79 130 Q 82 129 81 132 L 76 133 L 76 134 Q 82 134 85 131 L 86 128 L 88 129 Q 89 132 86 131 L 88 135 L 87 135 L 85 132 L 83 135 L 75 138 L 74 141 L 75 142 L 80 138 Q 85 140 84 136 L 87 137 L 89 136 L 89 127 L 87 120 L 83 118 Z M 195 118 L 194 122 L 195 122 L 195 118 Z M 77 119 L 77 121 L 79 120 L 77 119 Z M 136 120 L 134 122 Q 133 125 136 124 L 136 120 Z M 143 120 L 141 122 L 142 127 L 139 128 Q 142 129 141 132 L 136 133 L 137 130 L 137 128 L 134 129 Q 131 131 132 136 L 136 135 L 141 141 Q 144 142 143 140 L 145 140 L 145 138 L 144 138 L 142 137 L 140 138 L 139 136 L 141 136 L 144 135 L 146 132 Q 146 124 143 120 Z M 189 120 L 188 126 L 192 127 Q 193 121 189 120 Z M 197 120 Q 195 123 198 122 L 197 120 Z M 255 120 L 255 132 L 257 132 L 256 129 L 257 127 L 256 125 L 257 123 Q 258 119 255 120 Z M 89 121 L 90 128 L 91 128 Q 93 120 89 121 Z M 244 121 L 242 125 L 244 128 L 245 129 L 241 128 Q 238 136 247 133 Q 250 131 246 130 Q 245 126 251 128 L 252 129 Q 253 126 250 127 L 248 125 L 246 126 L 244 121 Z M 124 122 L 124 127 L 123 131 L 126 129 L 127 131 L 127 129 L 130 130 L 130 123 L 124 122 Z M 249 123 Q 248 126 252 125 Q 253 122 249 123 Z M 138 124 L 137 127 L 139 127 L 138 124 Z M 134 125 L 133 127 L 135 128 L 134 125 Z M 62 126 Q 60 129 63 128 L 62 126 Z M 76 126 L 76 128 L 80 127 L 76 126 Z M 199 126 L 201 129 L 202 129 L 199 126 Z M 195 127 L 193 128 L 192 130 L 194 129 L 196 130 Q 199 129 197 135 Q 199 133 201 137 L 200 141 L 202 140 L 201 132 L 198 129 L 195 127 Z M 263 128 L 260 132 Q 259 137 261 139 L 265 137 L 265 131 L 263 130 L 263 128 Z M 62 129 L 62 135 L 63 135 Q 64 130 62 129 Z M 92 129 L 91 132 L 92 132 L 92 129 Z M 125 131 L 122 132 L 123 135 L 126 134 L 125 131 Z M 184 131 L 186 139 L 185 141 L 189 141 L 188 136 L 192 135 L 194 138 L 195 136 L 194 134 L 191 131 L 191 133 L 190 133 L 188 133 Q 189 136 186 135 L 184 131 Z M 254 133 L 254 137 L 256 136 Q 258 137 257 135 L 254 133 Z M 61 134 Q 61 140 58 142 Q 59 144 63 143 L 62 141 L 63 139 L 61 134 Z M 129 134 Q 126 139 130 141 L 134 140 L 136 137 L 132 138 L 129 134 Z M 269 134 L 268 139 L 269 139 L 269 134 Z M 70 135 L 70 138 L 69 147 L 74 145 L 74 142 L 73 144 Q 70 143 72 142 Q 73 136 70 135 Z M 123 136 L 122 141 L 124 140 L 123 136 Z M 91 137 L 86 141 Q 89 145 88 152 L 84 153 L 82 157 L 76 160 L 76 169 L 75 170 L 76 173 L 75 178 L 75 189 L 77 198 L 77 212 L 78 213 L 77 221 L 81 222 Q 83 221 82 217 L 84 218 L 82 223 Q 81 227 84 229 L 84 234 L 80 224 L 79 227 L 76 229 Q 73 230 75 232 L 74 234 L 74 236 L 78 241 L 80 258 L 81 259 L 80 261 L 81 262 L 81 270 Q 84 271 82 273 Q 83 275 85 273 Q 88 274 87 271 L 84 271 L 88 269 L 93 271 L 92 270 L 94 267 L 101 271 L 103 264 L 97 262 Q 94 261 97 259 Q 101 259 103 263 Q 102 265 105 264 Q 104 258 99 256 L 100 254 L 104 257 L 107 262 L 109 256 L 110 255 L 106 251 L 107 247 Q 106 244 109 245 L 110 242 L 115 241 L 117 242 L 114 234 L 113 215 Q 111 210 110 213 Q 103 214 102 212 Q 103 209 101 210 L 97 213 Q 98 210 92 211 L 92 213 L 88 217 Q 86 214 83 215 L 87 204 L 88 193 L 90 190 L 88 187 L 89 178 L 85 176 Q 79 174 80 168 L 91 171 L 92 167 L 91 164 L 91 162 L 92 159 L 92 146 L 91 137 Z M 178 137 L 171 142 Q 165 141 163 143 L 163 148 L 162 147 L 156 143 Q 157 146 154 148 L 155 151 Q 156 153 153 152 L 150 149 Q 151 146 148 147 L 149 155 L 153 158 L 164 161 Q 166 160 164 159 L 165 154 L 167 155 L 168 159 L 173 158 Q 174 161 171 160 L 171 161 L 176 160 L 176 162 L 173 163 L 151 160 L 145 154 L 146 144 L 143 143 L 140 144 L 140 149 L 144 161 L 152 165 L 164 166 L 165 168 L 164 172 Q 162 178 167 176 L 168 179 L 171 177 L 170 173 L 170 171 L 171 169 L 169 167 Q 167 169 166 167 L 175 166 L 185 163 L 188 159 L 189 149 L 191 144 L 186 143 L 186 145 L 182 142 L 180 143 L 186 150 Q 187 156 184 159 L 181 161 L 179 161 L 183 156 Q 184 150 182 148 L 176 150 Q 175 144 178 141 L 178 137 Z M 85 138 L 77 143 Q 79 147 85 145 L 85 138 Z M 197 138 L 194 144 Q 192 154 196 160 L 195 160 L 190 167 Q 191 171 187 169 L 189 174 L 189 173 L 191 174 L 190 177 L 189 175 L 187 176 L 184 181 Q 180 180 181 183 L 185 182 L 186 185 L 184 184 L 182 185 L 180 181 L 173 180 L 173 179 Q 179 181 178 177 L 170 178 L 169 181 L 167 180 Q 164 181 165 179 L 164 177 L 159 182 L 177 182 L 178 184 L 178 193 L 179 194 L 178 200 L 177 201 L 159 201 L 158 198 L 159 190 Q 158 187 157 189 L 150 187 Q 143 189 145 184 L 152 186 L 150 182 L 146 180 L 133 202 L 126 209 L 121 210 L 137 191 L 145 176 L 146 179 L 150 180 L 149 177 Q 146 178 147 176 L 149 174 Q 153 175 155 173 L 154 175 L 156 175 L 160 175 L 162 176 L 162 173 L 161 171 L 148 169 L 148 168 Q 149 164 147 165 L 142 161 L 138 151 Q 140 143 134 145 L 135 154 L 143 170 L 141 178 L 134 192 L 126 202 L 122 205 L 118 210 L 118 214 L 121 218 L 121 221 L 122 221 L 122 216 Q 119 214 120 211 L 124 212 L 130 210 L 131 208 L 135 205 L 136 208 L 136 209 L 140 207 L 144 208 L 146 207 L 147 208 L 138 211 L 135 215 L 131 217 L 131 218 L 150 211 L 150 214 L 136 218 L 131 221 L 131 222 L 138 220 L 137 225 L 136 224 L 133 226 L 133 227 L 143 225 L 153 220 L 155 222 L 145 227 L 141 227 L 128 234 L 129 236 L 134 233 Q 137 234 136 231 L 145 229 L 150 226 L 153 227 L 156 225 Q 155 221 158 222 L 162 219 L 161 222 L 150 232 L 139 236 L 128 237 L 126 237 L 128 239 Q 132 240 134 238 L 138 239 L 154 231 Q 156 232 155 229 L 158 229 L 164 223 L 166 223 L 167 223 L 167 224 L 163 224 L 164 227 L 163 227 L 162 229 Q 166 230 165 227 Q 169 226 168 229 L 178 230 L 180 232 L 178 228 L 172 224 L 175 223 L 176 221 L 175 219 L 164 219 L 164 218 L 178 218 L 192 226 Q 194 225 193 228 L 200 232 L 201 233 L 199 229 Q 196 230 197 228 L 180 216 L 178 213 L 187 218 Q 190 217 189 220 L 203 228 L 204 228 L 189 215 L 184 213 L 183 211 L 200 219 L 203 222 L 204 221 L 204 223 L 208 222 L 208 216 L 207 221 L 205 220 Q 201 221 202 219 L 185 208 L 188 206 L 203 214 L 194 203 L 186 181 Q 185 177 188 178 L 190 182 L 193 196 L 198 205 L 203 208 L 203 206 L 208 213 L 208 216 L 210 215 L 210 211 Q 201 201 195 189 L 192 178 L 193 174 L 192 172 L 197 162 L 199 167 L 209 175 L 223 179 L 219 181 L 222 182 L 228 180 Q 232 181 231 178 L 228 179 L 224 179 L 236 176 L 243 171 L 247 166 L 247 164 Q 242 170 233 171 L 219 170 L 209 164 Q 199 157 197 144 L 198 142 L 197 138 Z M 253 138 L 254 140 L 257 139 L 253 138 Z M 266 138 L 264 141 L 262 142 L 260 142 Q 259 146 261 148 L 260 152 L 261 153 L 262 151 L 265 152 L 266 151 Q 269 152 268 150 L 267 150 Q 264 151 265 149 L 267 149 Q 268 146 266 147 L 264 145 L 261 146 Q 260 143 263 144 L 266 143 L 266 138 Z M 270 139 L 268 142 L 269 146 L 270 146 L 270 139 Z M 136 140 L 134 142 Q 133 145 137 143 Q 138 139 136 140 Z M 146 140 Q 145 143 148 142 Q 149 139 146 140 Z M 211 140 L 207 144 L 213 145 Q 214 141 211 142 L 211 140 Z M 125 141 L 123 144 L 126 146 Q 128 140 125 141 Z M 253 141 L 249 143 Q 248 146 251 145 L 255 147 L 257 142 L 255 141 L 253 141 Z M 129 143 L 129 147 Q 127 156 123 163 L 112 172 L 106 174 Q 91 176 85 171 L 83 172 Q 89 177 98 180 L 109 180 L 119 176 L 124 172 L 129 165 L 132 157 Q 134 146 129 143 Z M 66 144 L 67 146 Q 68 143 66 144 Z M 200 144 L 201 151 L 204 157 Q 210 166 224 169 L 238 168 L 239 164 L 233 163 L 231 159 L 231 157 L 222 157 L 222 155 L 225 154 L 223 153 L 225 150 L 222 148 L 217 151 L 211 151 L 212 149 Q 215 150 214 147 L 211 148 L 208 150 L 210 145 L 200 144 Z M 246 144 L 246 146 L 249 148 L 248 146 Q 249 143 246 144 Z M 73 146 Q 71 149 74 148 L 73 146 Z M 77 146 L 75 149 L 82 148 L 84 151 L 85 147 L 78 147 L 77 146 Z M 121 146 L 112 150 L 115 150 L 117 154 L 115 153 L 114 155 Q 116 156 114 157 L 109 153 L 99 155 Q 98 160 102 158 Q 103 161 100 160 Q 99 163 103 162 L 104 165 L 103 168 L 96 165 L 93 170 L 93 172 L 98 173 L 100 173 Q 101 171 106 172 L 114 167 L 116 167 Q 115 164 118 165 Q 125 159 126 147 L 121 146 Z M 71 148 L 70 150 Q 68 153 66 152 L 66 155 Q 69 154 68 157 L 71 158 L 72 156 L 74 159 Q 78 157 75 156 L 76 152 L 71 148 Z M 255 150 L 251 153 L 251 163 L 252 164 L 252 183 L 251 184 L 252 186 L 252 205 L 253 206 L 252 207 L 252 220 L 251 221 L 253 223 L 256 223 L 256 232 L 259 233 L 259 236 L 256 239 L 252 249 L 252 263 L 258 287 L 258 288 L 260 287 L 259 289 L 264 297 L 265 297 L 265 265 L 264 264 L 265 261 L 263 252 L 264 248 Q 265 243 263 242 L 264 238 L 263 237 L 263 220 L 262 219 Q 261 216 264 217 L 263 216 L 264 213 Q 266 206 263 205 L 263 158 L 262 155 Q 259 154 260 157 L 258 158 L 254 157 L 253 152 Q 256 151 255 154 Q 258 155 257 152 L 255 150 Z M 111 153 L 112 155 Q 113 152 111 153 Z M 81 154 L 79 156 L 81 156 L 81 154 Z M 227 154 L 225 156 L 228 156 Q 229 153 227 154 Z M 62 157 L 59 163 Q 58 169 62 170 L 65 169 L 67 166 L 62 157 Z M 70 161 L 67 163 L 69 171 L 69 190 L 72 202 L 72 210 L 75 227 L 77 226 L 75 220 L 74 197 L 74 195 L 73 193 L 73 163 L 70 161 Z M 134 161 L 134 164 Q 137 163 134 161 Z M 99 163 Q 98 166 101 165 Q 102 162 99 163 Z M 153 167 L 154 169 L 160 169 Q 158 166 153 167 Z M 246 168 L 246 170 L 240 175 L 241 184 L 243 188 L 243 197 L 245 201 L 244 204 L 246 207 Q 245 212 247 214 L 246 216 L 249 217 L 249 187 L 248 186 L 248 169 L 246 168 Z M 199 169 L 198 172 L 199 172 L 199 169 Z M 138 170 Q 137 173 140 172 Q 141 169 138 170 Z M 183 170 L 182 171 L 175 171 L 174 173 Q 172 174 175 175 L 178 174 L 180 175 Q 186 176 186 174 L 186 172 Q 187 168 183 170 Z M 64 171 L 62 172 L 61 174 L 67 173 Q 68 170 64 171 Z M 66 175 L 62 177 L 65 192 L 65 201 L 67 207 L 66 209 L 69 223 L 69 238 L 71 245 L 71 253 L 78 293 L 78 300 L 80 300 L 82 296 L 79 280 L 78 258 L 75 245 L 75 240 L 73 238 L 72 233 L 73 229 L 71 218 L 70 201 L 66 179 L 66 177 L 66 175 Z M 203 175 L 203 183 L 204 178 L 203 175 Z M 198 177 L 199 179 Q 200 176 198 177 Z M 236 177 L 232 178 Q 231 181 234 180 L 236 180 L 238 179 Q 239 176 236 177 Z M 156 178 Q 155 181 158 180 Q 159 182 160 180 L 160 178 L 156 178 Z M 212 178 L 212 183 L 212 184 Q 214 183 213 186 L 215 186 L 212 178 Z M 93 180 L 91 185 Q 92 187 94 185 L 106 191 L 104 192 L 95 189 Q 90 187 91 192 L 93 193 L 103 194 L 105 196 L 108 195 Q 106 190 110 191 Q 113 188 113 182 L 114 180 L 108 182 Q 98 183 93 180 Z M 123 181 L 122 188 L 123 188 L 123 181 Z M 117 183 L 116 185 L 118 186 L 117 183 Z M 174 183 L 173 184 L 162 184 L 160 186 Q 159 195 161 200 L 168 200 L 169 199 Q 173 198 175 200 L 176 200 L 176 184 L 174 183 Z M 231 183 L 224 184 L 225 186 L 228 185 L 229 188 L 230 187 L 237 187 L 238 185 L 238 187 L 239 187 L 239 183 L 231 183 Z M 158 184 L 156 186 L 158 187 L 158 184 Z M 117 187 L 117 190 Q 120 189 117 187 Z M 201 189 L 201 191 L 203 190 L 201 189 Z M 232 189 L 231 190 Q 226 189 227 192 L 232 191 L 230 195 L 238 195 Q 240 194 238 193 L 238 189 L 232 189 Z M 239 191 Q 238 194 241 193 Q 242 190 239 191 Z M 222 192 Q 220 195 223 194 L 222 192 Z M 208 194 Q 205 200 209 199 L 208 194 Z M 92 195 L 90 197 Q 89 200 92 201 L 94 200 L 97 202 L 103 203 Q 105 202 104 197 L 92 195 Z M 122 196 L 121 201 L 122 201 L 122 196 Z M 231 197 L 231 200 L 233 199 Q 236 198 235 201 Q 240 202 242 200 L 241 197 L 235 198 L 231 197 Z M 110 198 Q 108 201 111 200 L 110 198 Z M 114 198 Q 111 202 115 201 L 114 198 Z M 225 198 L 224 200 L 226 201 L 225 198 Z M 217 199 Q 214 203 218 202 L 217 199 Z M 109 201 L 108 204 L 110 204 L 109 201 Z M 89 202 L 89 208 L 95 210 Q 100 212 99 209 Q 97 210 95 207 L 98 205 L 100 208 L 100 204 L 89 202 Z M 239 203 L 234 205 L 237 205 Q 238 208 235 207 L 235 210 L 242 209 L 243 208 L 241 204 L 239 203 Z M 219 208 Q 216 212 220 211 L 219 208 Z M 89 210 L 87 212 Q 86 215 89 214 L 90 212 Q 91 209 89 210 Z M 133 210 Q 131 214 125 213 L 123 216 L 134 212 Q 135 209 133 210 Z M 241 210 L 240 211 Q 236 210 237 213 L 243 213 L 243 211 L 241 210 Z M 225 211 L 219 216 L 225 232 L 225 233 L 216 214 L 214 219 L 215 222 L 210 236 Q 208 241 212 240 L 213 238 Q 214 241 221 239 L 225 247 L 224 251 L 220 253 L 223 257 Q 227 258 228 255 L 229 256 L 225 261 L 227 263 L 227 262 L 231 259 L 227 265 L 228 270 L 231 269 L 233 270 Q 229 271 230 275 L 232 275 Q 231 272 234 273 L 236 272 L 231 278 L 232 281 L 233 277 L 237 276 L 238 276 L 238 278 L 233 283 L 234 286 L 235 284 L 238 282 L 239 282 L 236 286 L 238 288 Q 241 283 249 282 L 253 283 L 251 264 L 250 263 L 250 256 L 249 255 L 250 246 L 254 237 L 257 235 L 254 230 L 249 243 L 248 243 Q 249 232 253 226 Q 254 223 251 224 L 249 226 L 246 240 L 245 240 L 247 224 L 249 220 L 245 218 L 242 236 L 242 238 Q 239 239 240 233 L 240 231 L 243 215 Q 234 216 230 212 L 228 212 L 230 216 L 229 218 L 233 234 L 233 240 L 226 213 Q 227 210 225 211 Z M 308 211 L 305 214 L 306 216 L 308 213 L 308 211 Z M 116 218 L 118 223 L 118 220 L 116 218 Z M 181 222 L 179 224 L 182 227 L 185 226 L 187 230 L 192 233 L 188 234 L 194 236 L 199 236 L 181 222 Z M 210 225 L 200 248 L 200 254 Q 206 258 207 267 L 212 269 L 214 269 L 217 271 L 219 273 L 218 271 L 218 252 L 216 249 L 218 241 L 212 242 Q 208 243 207 241 L 207 236 L 210 229 L 210 225 Z M 119 226 L 118 229 L 119 229 L 119 226 Z M 131 227 L 128 228 L 129 230 L 132 228 L 131 227 Z M 27 228 L 25 231 L 27 231 L 27 228 Z M 118 229 L 116 233 L 119 238 L 120 233 L 118 229 Z M 122 229 L 121 239 L 122 240 L 122 247 L 124 247 L 123 245 Q 124 235 122 229 Z M 126 230 L 126 232 L 128 231 L 126 230 Z M 166 230 L 160 232 L 153 237 L 152 239 L 160 235 L 165 236 L 153 242 L 153 243 L 158 242 L 164 238 L 174 239 L 173 240 Q 167 239 166 241 L 163 240 L 160 242 L 159 244 Q 165 246 167 243 L 176 245 L 186 245 L 192 247 Q 194 248 193 245 L 185 244 L 182 242 L 182 241 L 190 243 L 196 243 L 187 241 L 178 237 L 179 233 L 172 230 L 166 230 Z M 186 231 L 187 233 L 188 233 L 186 231 Z M 155 232 L 154 234 L 156 233 L 155 232 Z M 182 232 L 180 235 L 194 240 L 196 240 L 185 235 L 182 232 Z M 24 233 L 22 235 L 24 235 L 24 233 Z M 149 239 Q 146 242 140 241 L 140 242 Q 147 243 151 240 L 149 239 Z M 330 239 L 323 258 L 324 263 L 324 265 L 325 275 L 329 274 L 329 272 L 333 272 L 334 259 L 331 259 L 334 258 L 334 250 Q 330 246 330 239 Z M 119 242 Q 116 245 117 252 Q 116 254 112 253 L 110 261 L 110 275 L 109 276 L 110 283 L 110 285 Q 109 287 112 286 L 114 279 L 113 277 L 117 266 L 117 264 L 119 258 L 119 242 Z M 129 242 L 129 243 L 131 243 L 129 242 Z M 135 242 L 135 243 L 137 243 L 135 242 Z M 148 243 L 138 245 L 138 246 L 149 245 L 152 244 L 148 243 Z M 114 245 L 115 247 Q 116 244 114 245 Z M 54 246 L 51 250 L 53 250 L 54 248 L 54 246 Z M 156 247 L 154 248 L 152 251 L 155 251 L 160 250 L 162 251 L 170 250 L 172 250 L 173 251 L 183 251 L 187 251 L 191 252 Q 195 253 194 250 L 178 247 L 163 247 L 161 247 L 159 248 L 156 247 Z M 57 248 L 56 252 L 54 253 L 52 253 L 54 256 L 51 257 L 52 263 Q 57 264 59 262 L 58 261 L 58 251 L 57 248 Z M 114 249 L 112 252 L 115 251 Q 116 248 114 249 Z M 126 249 L 121 260 L 122 262 L 133 262 L 135 262 L 142 263 L 144 263 L 151 265 L 158 265 L 166 268 L 181 271 L 200 278 L 214 287 Q 213 289 216 288 L 217 286 L 217 274 L 206 267 L 174 258 L 172 253 L 171 257 L 164 256 L 164 253 L 163 255 L 160 254 Q 157 255 158 253 L 157 253 L 140 249 L 138 249 L 136 250 Q 132 248 126 249 Z M 195 250 L 195 252 L 197 251 L 195 250 Z M 168 253 Q 167 256 170 255 Q 171 252 168 253 Z M 47 254 L 45 256 L 49 257 L 47 254 Z M 178 254 L 177 257 L 178 257 L 178 254 Z M 187 254 L 186 258 L 187 258 L 187 254 Z M 193 254 Q 192 257 195 256 L 197 262 L 198 262 L 197 255 L 193 254 Z M 46 259 Q 44 265 49 263 Q 51 257 46 259 Z M 191 259 L 190 261 L 192 262 L 191 259 Z M 221 259 L 221 266 L 221 268 L 221 287 L 229 287 L 229 283 L 223 263 Q 224 258 221 259 Z M 16 263 L 14 268 L 16 268 L 18 265 Q 19 262 16 263 Z M 122 264 L 118 271 L 115 285 L 114 308 L 109 306 L 112 289 L 110 288 L 107 289 L 105 289 L 104 291 L 100 293 L 98 295 Q 99 301 97 303 Q 95 305 90 304 L 87 305 Q 86 310 88 312 L 87 314 L 88 315 L 90 314 L 93 315 L 95 314 Q 100 313 102 315 L 105 314 L 109 314 L 113 315 L 115 314 L 119 315 L 122 314 L 124 314 L 126 315 L 128 315 L 137 315 L 138 314 L 206 314 L 207 313 L 209 314 L 210 313 L 257 313 L 258 312 L 262 313 L 263 313 L 262 310 L 260 309 L 249 310 L 248 311 L 239 308 L 236 304 L 239 299 Q 237 294 236 297 L 233 294 L 234 292 L 231 289 Q 221 288 216 291 L 219 304 Q 220 308 216 306 L 215 303 L 214 306 L 213 305 L 211 306 L 208 303 L 208 298 L 205 289 L 204 289 L 207 301 Q 209 307 203 305 L 202 299 L 200 300 L 202 305 L 196 305 L 195 288 L 193 279 L 191 280 Q 194 284 193 293 L 193 295 L 195 305 L 188 305 L 184 305 L 182 301 L 182 285 L 180 275 L 178 274 L 180 291 L 181 292 L 181 304 L 182 305 Q 180 307 174 306 Q 172 304 171 307 L 164 306 L 165 287 L 167 278 Q 168 272 166 270 L 164 273 Q 166 274 165 279 L 165 281 L 163 290 L 163 302 L 162 303 L 163 305 L 162 307 L 154 307 L 153 306 L 150 307 L 151 305 L 151 291 L 155 272 L 155 268 L 152 275 L 150 296 L 149 297 L 149 307 L 145 307 L 145 305 L 144 308 L 137 308 L 136 307 Q 131 308 132 306 Q 135 304 133 303 L 134 299 L 133 295 L 131 306 L 129 308 Q 124 309 123 307 L 121 308 L 119 307 L 116 308 L 115 302 L 116 287 L 118 283 L 120 270 L 122 268 L 122 264 Z M 137 265 L 137 267 L 134 290 L 133 291 L 134 295 L 136 288 L 137 275 L 140 267 L 137 265 Z M 311 265 L 309 267 L 310 270 L 312 266 L 311 265 Z M 107 266 L 100 280 L 97 283 L 97 287 Q 100 288 96 290 L 98 293 L 98 292 L 104 288 Q 107 286 107 282 L 106 279 L 107 277 L 106 275 L 107 271 L 107 266 Z M 314 266 L 314 270 L 315 270 Q 316 265 314 266 Z M 43 267 L 41 269 Q 40 272 43 271 L 43 269 L 43 267 Z M 144 267 L 144 269 L 141 270 Q 140 273 143 272 L 143 275 L 144 275 Q 143 270 147 272 Q 148 275 146 274 Q 143 276 146 277 L 148 275 L 149 269 Q 148 266 144 267 Z M 129 268 L 125 269 L 125 270 L 131 270 L 129 268 Z M 160 268 L 157 272 Q 155 278 158 280 Q 157 282 161 281 L 162 279 L 158 278 L 158 273 L 161 273 L 162 277 L 162 269 L 160 268 Z M 52 269 L 51 274 L 51 276 L 56 282 Q 57 286 55 287 L 52 283 L 51 285 L 48 286 L 48 283 L 46 286 L 41 284 Q 39 282 38 285 L 40 289 L 39 291 L 43 293 L 42 296 L 44 297 L 64 297 L 66 291 Q 70 289 67 287 L 63 289 Q 65 294 61 293 L 60 291 L 61 279 L 59 279 L 62 277 L 63 275 L 63 273 L 63 269 L 52 269 Z M 124 270 L 123 273 L 124 273 L 124 270 Z M 94 271 L 99 276 L 100 274 L 94 271 Z M 89 272 L 97 280 L 97 278 Q 94 273 89 272 Z M 170 272 L 172 274 L 172 277 L 168 276 Q 167 282 171 284 L 171 282 L 173 283 L 173 303 L 174 303 L 174 280 L 173 278 L 173 276 Q 175 270 170 272 Z M 40 273 L 38 275 L 41 275 Q 42 272 40 273 Z M 130 273 L 130 275 L 132 274 L 130 273 Z M 124 274 L 124 275 L 127 276 L 129 275 L 124 274 Z M 82 276 L 83 279 L 82 281 L 84 291 L 84 290 L 84 288 Q 83 285 86 286 L 87 290 Q 85 299 79 305 Q 78 308 81 307 Q 87 301 91 293 Q 92 286 90 287 L 90 286 L 92 287 L 92 286 L 89 284 L 88 282 L 90 277 L 82 276 Z M 133 276 L 132 279 L 133 279 L 133 276 Z M 309 276 L 310 279 L 310 280 L 314 280 L 314 282 L 317 280 Q 321 281 319 277 Q 312 278 309 276 Z M 327 276 L 322 277 L 323 281 L 324 279 L 327 280 L 328 278 Q 329 275 327 276 Z M 329 276 Q 328 279 331 278 Q 332 275 329 276 Z M 45 277 L 44 281 L 46 281 L 47 278 L 45 277 Z M 127 277 L 125 279 L 127 279 L 128 280 L 127 277 Z M 187 277 L 185 279 L 186 283 L 186 281 Q 189 280 188 283 L 186 284 L 188 286 L 190 283 L 187 277 Z M 306 277 L 307 283 Q 309 282 307 281 L 308 278 L 306 277 Z M 145 278 L 142 280 L 146 280 L 145 278 Z M 332 278 Q 330 281 333 280 L 332 278 Z M 9 279 L 10 285 Q 13 285 12 281 L 9 279 Z M 155 280 L 156 282 Q 157 279 155 280 Z M 198 281 L 196 283 L 197 284 L 199 283 L 198 281 Z M 311 281 L 310 284 L 306 285 L 304 282 L 302 282 Q 303 286 301 285 L 299 285 Q 296 286 297 282 Q 294 281 295 285 L 293 284 L 291 285 L 289 282 L 288 285 L 286 284 L 284 285 L 282 282 L 280 285 L 275 284 L 275 282 L 274 284 L 271 285 Q 267 284 268 287 L 268 289 Q 266 295 269 297 L 269 318 L 268 321 L 269 324 L 268 326 L 270 327 Q 269 324 272 325 L 272 323 Q 273 319 277 320 L 277 297 L 280 294 L 282 295 L 312 295 L 313 298 L 314 334 L 315 331 Q 316 327 321 328 L 324 333 L 323 335 L 319 329 L 318 334 L 315 336 L 316 338 L 313 338 L 314 344 L 318 346 Q 321 347 322 345 L 321 342 L 322 338 L 326 337 Q 327 341 324 340 L 325 343 L 324 346 L 332 349 L 334 348 L 334 331 L 333 329 L 331 327 L 331 329 Q 332 333 328 331 L 328 335 L 325 332 L 327 328 Q 329 324 334 325 L 335 323 L 334 322 L 334 298 L 333 297 Q 336 295 334 289 L 334 287 L 333 282 L 331 285 L 328 284 Q 325 285 326 283 L 325 283 Q 326 285 323 284 L 322 281 L 321 283 L 322 284 Q 318 285 319 283 L 320 281 Q 316 280 318 284 L 312 284 L 311 281 Z M 203 282 L 203 288 L 204 288 Q 205 283 203 282 Z M 28 283 L 27 285 Q 29 289 32 285 L 35 286 Q 37 287 36 284 L 29 284 L 28 283 Z M 94 283 L 93 295 L 91 299 Q 87 300 91 302 L 93 301 L 94 302 L 93 299 L 95 293 L 94 292 L 94 283 Z M 125 283 L 123 285 L 125 285 L 125 283 Z M 73 285 L 66 296 L 68 303 L 68 294 L 73 287 L 73 285 Z M 131 285 L 132 287 Q 133 284 131 285 Z M 141 285 L 141 287 L 145 287 L 141 285 Z M 158 285 Q 156 288 159 287 L 158 285 Z M 249 285 L 239 293 L 240 297 Q 244 298 242 292 L 245 290 L 246 298 L 253 304 L 255 304 Q 256 301 253 302 L 254 300 L 249 292 Q 248 289 252 290 L 256 298 Q 257 300 259 298 Q 261 297 260 300 L 258 301 L 260 301 L 256 306 L 253 305 L 247 306 L 248 309 L 249 308 Q 257 309 261 307 L 262 305 L 262 298 L 256 290 L 249 285 Z M 11 286 L 9 288 L 10 290 L 11 288 L 12 290 L 13 288 Q 14 285 11 286 Z M 25 286 L 20 289 L 21 292 L 22 293 L 27 293 L 27 299 L 31 298 Q 28 296 29 291 Q 28 288 27 290 Q 23 291 24 288 L 27 289 L 27 288 L 25 286 Z M 123 286 L 124 289 L 126 288 L 123 286 Z M 170 286 Q 168 289 171 288 L 170 286 Z M 210 286 L 208 290 L 209 292 L 210 290 L 210 286 Z M 36 287 L 35 291 L 36 291 L 36 287 Z M 14 288 Q 12 291 15 290 L 14 288 Z M 237 288 L 235 290 L 237 290 L 237 288 Z M 141 289 Q 138 293 145 291 L 147 293 Q 148 289 145 290 L 143 290 L 141 289 Z M 198 289 Q 197 294 201 296 L 202 294 Q 199 295 200 293 L 202 293 L 202 289 L 201 291 L 198 289 Z M 126 290 L 127 292 Q 128 289 126 290 Z M 74 291 L 70 296 L 71 301 L 75 308 L 75 313 L 78 312 L 74 301 L 74 299 L 74 291 Z M 9 292 L 9 297 L 11 297 L 12 298 Q 11 295 14 296 Q 16 300 12 299 Q 10 297 9 300 L 9 306 L 13 306 Q 14 309 12 308 L 12 310 Q 7 309 9 314 L 9 316 L 8 318 Q 11 321 9 329 L 10 329 Q 9 325 14 327 L 20 336 L 22 335 L 23 335 L 23 331 L 28 330 L 29 331 L 29 302 L 27 301 L 24 299 L 24 297 Q 25 292 20 294 L 18 294 L 16 294 L 18 293 L 9 292 Z M 140 292 Q 138 297 141 299 L 141 297 Q 144 296 143 299 L 141 300 L 144 301 L 146 297 L 146 293 L 145 296 L 140 295 L 140 292 Z M 210 292 L 212 294 Q 213 291 210 292 Z M 35 293 L 34 294 Q 31 293 32 296 L 32 297 Q 38 299 40 296 L 39 293 L 37 294 L 35 293 Z M 123 294 L 121 296 L 124 296 L 123 294 Z M 127 294 L 126 296 L 129 295 L 127 294 Z M 170 294 L 168 297 L 170 298 L 169 298 L 167 298 L 168 300 Q 167 302 170 301 L 171 299 L 170 294 Z M 187 295 Q 185 298 188 297 L 188 300 Q 185 299 186 303 L 187 303 Q 186 300 190 301 L 192 304 L 192 302 L 189 300 L 189 297 Q 192 298 191 296 L 190 296 L 187 295 Z M 177 297 L 178 299 Q 179 296 177 297 Z M 280 297 L 280 301 L 281 301 Q 280 297 283 298 L 284 299 L 284 297 L 280 297 Z M 287 297 L 288 300 L 287 304 Q 283 305 285 300 L 283 301 L 284 304 L 284 310 Q 281 309 282 304 L 280 303 Q 278 309 281 311 L 281 326 L 280 327 L 281 328 L 281 336 L 280 339 L 281 341 L 281 367 L 283 366 L 287 366 L 296 369 Q 306 375 309 389 L 309 382 L 309 380 L 310 378 L 309 376 L 310 373 L 309 370 L 309 317 L 307 316 L 307 311 L 306 315 L 304 315 L 304 298 L 302 297 L 302 310 L 300 307 L 300 298 L 298 297 L 298 307 L 299 308 Q 300 312 297 311 L 296 297 L 294 298 L 294 310 L 291 311 L 289 311 L 289 298 L 287 297 Z M 291 297 L 291 299 L 291 309 L 292 309 L 292 298 L 291 297 Z M 307 297 L 306 309 L 307 309 L 307 297 Z M 124 298 L 121 302 L 124 300 Q 126 301 125 305 L 128 304 L 124 298 Z M 243 298 L 241 300 L 243 300 L 243 298 Z M 53 299 L 51 301 L 52 303 L 54 300 L 53 299 Z M 56 299 L 52 313 Q 54 318 50 317 L 50 308 L 51 307 L 51 303 L 49 307 L 47 305 L 46 305 L 47 310 L 44 309 L 45 307 L 45 300 L 42 309 L 43 312 L 42 315 Q 38 313 40 308 L 39 308 Q 41 314 37 313 L 37 307 L 38 306 L 38 301 L 36 305 L 33 304 L 34 307 L 33 311 L 34 316 L 34 317 L 32 318 L 32 332 L 32 334 L 32 343 L 31 344 L 32 346 L 35 344 L 34 354 L 33 353 L 31 359 L 32 360 L 33 372 L 33 360 L 36 362 L 35 382 Q 32 383 33 381 L 32 381 L 33 392 L 39 380 Q 38 377 41 378 L 41 376 L 47 374 L 75 374 L 75 366 L 76 365 L 75 363 L 76 360 L 75 357 L 74 365 L 72 366 L 70 365 Q 71 358 69 355 Q 66 356 65 353 L 64 358 L 64 360 L 65 362 L 64 366 L 65 369 Q 66 372 64 373 L 61 372 L 61 356 L 62 355 L 61 337 L 61 335 L 62 332 Q 60 330 61 326 L 61 324 L 61 311 L 62 310 L 62 299 L 58 308 L 58 312 L 55 311 L 55 307 L 58 301 Q 59 298 56 299 Z M 35 300 L 34 303 L 35 303 L 35 300 Z M 40 301 L 41 307 L 42 302 L 40 301 Z M 48 301 L 47 304 L 48 304 L 48 301 Z M 168 301 L 166 303 L 168 303 L 168 301 Z M 171 301 L 170 303 L 173 304 L 171 301 Z M 178 301 L 177 304 L 179 304 L 178 301 Z M 213 301 Q 211 304 214 303 L 213 301 Z M 243 301 L 242 303 L 244 302 L 243 301 Z M 121 302 L 120 306 L 121 306 L 121 302 Z M 266 302 L 265 308 L 266 308 L 266 302 Z M 69 303 L 70 312 L 72 313 L 69 303 Z M 246 303 L 243 305 Q 240 304 241 307 L 248 304 L 246 303 Z M 156 304 L 156 306 L 159 305 L 156 304 Z M 66 305 L 64 312 L 65 314 L 64 319 L 66 334 L 71 328 L 75 329 L 75 314 L 71 315 L 67 311 L 66 305 Z M 82 308 L 80 312 L 83 315 L 85 314 L 84 312 Q 85 307 82 308 Z M 195 315 L 194 316 L 180 316 L 180 336 L 179 337 L 177 332 L 177 316 L 142 316 L 140 316 Q 136 315 137 319 L 137 321 L 138 330 L 135 331 L 135 322 L 134 321 L 135 316 L 131 318 L 132 323 L 131 328 Q 133 334 129 333 L 129 320 L 128 318 L 125 316 L 126 323 L 125 326 Q 123 332 126 334 Q 127 337 123 335 L 123 320 L 122 316 L 120 317 L 120 334 Q 116 335 118 330 L 118 328 L 117 324 Q 116 319 118 318 Q 119 314 115 316 L 112 317 L 110 316 L 107 317 L 108 319 L 105 320 L 105 316 L 103 320 Q 100 321 101 318 L 99 316 L 96 317 Q 90 315 92 322 Q 91 325 89 322 L 90 317 Q 87 316 88 320 L 85 320 L 86 318 Q 87 315 85 316 L 83 316 L 78 317 L 79 340 L 79 331 L 79 329 L 80 326 Q 79 322 82 323 L 82 337 L 81 338 Q 83 342 82 351 L 82 353 Q 84 359 80 358 L 80 340 L 78 343 L 79 345 L 79 374 L 90 372 L 98 374 L 104 383 L 107 401 L 117 427 Q 116 430 119 429 L 118 432 L 119 434 L 117 437 Q 118 439 116 438 L 114 438 L 109 440 L 110 445 L 125 459 L 128 460 Q 130 459 129 456 L 136 451 L 146 449 L 149 450 L 156 461 L 157 470 L 159 469 L 159 471 L 162 472 Q 165 475 165 482 L 168 481 Q 169 487 165 488 L 164 499 L 166 499 Q 167 503 164 502 L 164 499 L 162 505 L 171 505 L 172 506 L 173 505 L 181 505 L 177 492 Q 176 481 179 475 L 182 473 L 183 471 L 182 466 Q 185 464 183 459 L 186 452 L 197 443 L 207 445 Q 212 449 214 457 L 218 452 Q 217 449 220 450 L 225 442 Q 226 439 223 440 L 218 435 L 220 420 L 225 403 L 230 377 L 240 370 L 256 368 L 258 368 L 262 369 Q 265 370 266 368 L 266 334 L 265 333 L 266 331 L 265 327 L 264 327 L 264 351 L 262 351 L 262 321 L 263 320 L 263 315 L 256 315 L 256 336 L 254 335 L 254 320 L 253 319 L 253 315 L 247 315 L 246 332 L 245 333 L 243 331 L 245 318 L 245 316 L 242 315 L 242 317 L 242 326 L 241 327 L 239 325 L 240 323 L 239 315 L 237 316 L 237 325 L 235 325 L 234 323 L 235 315 L 214 315 L 213 316 L 211 315 L 205 316 L 203 316 Q 196 318 195 315 Z M 275 321 L 276 326 Q 277 328 275 327 L 270 330 L 272 332 Q 272 329 277 330 L 278 331 L 278 322 L 275 321 Z M 11 329 Q 12 334 9 336 Q 7 344 10 348 L 14 350 L 13 352 L 10 350 Q 7 349 8 352 L 11 353 L 13 353 L 15 354 L 19 353 Q 21 354 20 351 L 18 352 L 15 352 L 18 350 Q 17 345 20 346 L 18 343 L 19 340 Q 15 338 18 337 Q 15 336 15 332 L 11 329 Z M 72 330 L 71 335 L 70 335 Q 68 338 66 337 L 66 340 Q 69 339 68 343 Q 72 342 74 345 L 75 343 L 75 332 Q 73 333 72 330 Z M 26 332 L 26 336 L 23 338 L 27 340 L 26 342 L 28 342 L 27 345 L 22 344 L 21 347 Q 20 349 23 348 L 22 350 L 27 352 L 29 351 L 29 336 L 26 332 Z M 271 332 Q 267 334 269 341 L 270 341 Q 268 336 272 337 L 273 340 L 276 339 L 277 343 L 278 343 L 278 332 L 274 334 L 271 332 Z M 23 339 Q 20 343 25 342 L 23 339 Z M 271 341 L 272 344 Q 271 346 275 345 L 276 342 L 271 341 Z M 70 345 L 68 347 L 70 349 Q 72 348 71 351 L 67 350 L 65 347 L 64 347 Q 62 353 67 351 L 69 354 L 73 353 Q 77 354 75 349 L 70 345 Z M 270 345 L 269 354 L 271 354 L 271 347 L 270 345 Z M 275 347 L 275 354 L 278 354 L 278 347 L 275 347 Z M 313 347 L 313 360 L 315 360 L 314 358 Q 315 355 317 357 L 318 357 L 318 348 L 313 347 Z M 324 348 L 322 350 L 323 352 L 322 355 Q 323 357 327 356 Q 329 355 328 351 L 324 348 Z M 334 350 L 332 352 L 333 357 L 335 356 L 334 350 Z M 10 355 Q 7 359 11 358 L 10 355 Z M 19 355 L 15 356 Q 13 361 19 359 L 21 359 Q 26 361 24 356 L 19 355 Z M 270 356 L 270 358 Q 268 362 273 361 L 276 360 L 277 362 L 276 365 L 278 365 L 278 357 L 276 356 L 275 359 L 271 358 Q 272 355 270 356 Z M 29 357 L 28 360 L 29 360 L 29 357 Z M 321 357 L 318 358 L 319 361 Q 320 363 317 362 L 314 361 L 313 373 L 329 373 L 329 371 Q 332 370 334 373 L 334 370 L 331 369 L 329 370 L 324 368 L 322 369 L 320 368 Q 314 370 315 366 Q 319 368 328 367 L 329 368 Q 335 370 334 366 Q 331 364 325 365 L 324 363 L 333 363 L 334 364 L 335 364 L 334 361 L 335 359 L 331 360 L 330 357 Q 325 356 324 358 L 321 357 Z M 20 360 L 19 361 L 16 361 L 16 367 L 15 367 L 14 369 L 22 367 L 24 368 Q 26 367 25 370 L 25 371 L 29 370 L 29 372 L 30 372 L 29 367 L 28 367 L 18 365 L 18 363 L 24 363 L 24 361 L 20 360 Z M 271 362 L 269 365 L 272 363 L 271 362 Z M 10 364 L 8 367 L 11 368 Q 13 367 11 366 Q 12 363 10 364 Z M 270 365 L 269 368 L 270 369 L 274 367 Q 275 369 276 367 L 270 365 Z M 278 368 L 273 371 L 277 382 Q 279 390 276 394 L 281 396 L 283 395 Q 285 378 280 370 Q 281 367 278 368 Z M 10 369 L 9 373 L 15 372 L 10 371 L 10 369 Z M 20 369 L 16 370 L 17 373 L 9 377 L 12 377 Q 13 380 11 379 Q 8 380 9 385 Q 14 386 15 384 L 14 383 L 14 376 Q 17 374 25 375 L 26 373 Q 23 374 24 371 L 20 369 Z M 253 370 L 259 386 L 260 396 L 267 395 L 266 394 L 266 382 L 262 372 L 261 370 L 253 370 Z M 290 370 Q 289 378 291 383 L 300 380 L 298 375 L 293 370 L 290 370 Z M 28 373 L 26 375 L 28 375 L 28 373 Z M 330 373 L 330 375 Q 328 382 334 380 L 333 374 L 330 373 Z M 90 374 L 84 383 Q 81 388 82 397 L 80 399 L 73 397 Q 75 393 74 387 L 77 379 L 77 376 L 70 376 L 69 381 L 69 398 L 61 398 L 58 396 L 59 394 L 58 392 L 58 380 L 59 379 L 59 376 L 51 376 L 51 395 L 53 400 L 49 402 Q 45 401 46 404 L 55 401 L 60 401 L 63 400 L 80 401 L 86 404 L 88 407 L 89 406 L 106 406 L 104 399 Q 100 400 98 397 L 91 399 L 89 401 Q 84 402 85 400 L 85 398 L 91 382 L 95 380 Q 99 381 98 379 Q 95 375 90 374 Z M 323 375 L 323 376 L 327 376 L 323 375 Z M 318 377 L 313 379 L 323 379 L 322 381 L 320 380 L 313 381 L 313 395 L 311 393 L 310 393 L 313 407 L 326 408 L 321 409 L 319 409 L 316 408 Q 313 407 314 410 L 326 411 L 322 412 Q 317 413 316 411 L 315 413 L 317 416 L 327 415 L 327 409 L 328 408 L 328 389 L 327 388 L 327 378 Q 324 376 318 377 Z M 24 378 L 20 380 L 28 381 L 19 382 L 23 382 L 23 383 Q 17 381 18 385 L 22 387 L 18 387 L 17 390 L 17 407 L 25 409 L 23 409 L 23 410 Q 26 409 25 412 L 22 411 L 18 413 L 24 414 L 19 416 L 24 416 L 26 413 L 26 409 L 32 393 L 31 393 Q 28 388 29 379 L 24 378 Z M 40 382 Q 36 384 37 390 L 40 391 L 41 392 L 40 382 Z M 332 382 L 332 383 L 334 383 L 332 382 Z M 304 389 L 293 391 L 289 398 L 292 399 L 294 399 L 295 398 L 307 398 L 306 392 Q 307 388 304 389 Z M 9 390 Q 8 393 11 392 Q 12 389 9 390 Z M 11 395 Q 10 399 13 398 Q 14 394 11 395 Z M 272 396 L 271 397 L 259 398 L 249 401 L 249 414 L 253 424 L 261 431 L 267 432 L 270 434 Q 276 435 279 432 L 286 417 L 286 400 Q 281 396 272 396 Z M 333 396 L 332 399 L 333 399 L 333 396 Z M 32 400 L 31 404 L 38 403 L 42 404 L 41 402 L 41 400 L 32 400 Z M 14 401 L 11 405 L 14 404 L 14 401 Z M 70 402 L 68 404 L 69 405 L 74 404 Q 75 400 70 402 Z M 55 403 Q 54 405 58 404 L 61 408 L 61 423 L 62 425 L 66 426 L 69 424 Q 71 425 70 422 L 64 423 L 62 422 L 62 407 L 61 406 L 61 403 L 55 403 Z M 77 403 L 80 406 L 80 404 L 77 403 Z M 332 403 Q 331 407 334 406 Q 335 402 332 403 Z M 52 404 L 49 406 L 52 406 L 52 404 Z M 310 406 L 309 408 L 307 407 L 304 408 L 301 407 L 299 407 L 297 408 L 289 408 L 289 416 L 302 416 L 303 415 L 304 416 L 311 416 L 310 406 Z M 59 407 Q 57 411 53 410 L 53 408 L 51 411 L 56 413 L 60 411 L 59 407 Z M 332 407 Q 330 412 333 413 Q 335 412 334 408 L 332 407 Z M 10 408 Q 6 410 10 412 L 9 415 L 13 414 Q 14 407 12 408 L 10 408 Z M 70 408 L 70 411 L 74 413 L 80 412 L 81 409 L 79 408 L 76 410 Q 72 411 73 408 L 70 408 Z M 19 409 L 19 410 L 21 410 L 19 409 Z M 36 413 L 28 415 L 27 421 L 33 420 L 48 420 L 47 419 L 47 413 L 36 413 Z M 57 413 L 57 415 L 59 414 L 57 413 Z M 334 413 L 332 415 Q 329 414 330 418 L 328 419 Q 332 418 334 421 L 335 421 L 334 413 Z M 13 416 L 9 417 Q 8 423 12 424 L 15 423 L 13 416 Z M 19 417 L 19 418 L 23 418 L 19 417 Z M 319 418 L 317 420 L 318 425 L 317 427 L 318 430 L 315 432 L 312 435 Q 314 441 311 443 L 312 445 L 310 453 L 311 454 L 319 450 L 321 450 L 324 450 L 323 449 Q 320 448 323 446 L 332 447 L 334 450 L 335 447 L 334 443 Q 330 444 329 441 L 326 443 L 322 442 Q 320 440 319 443 Q 313 445 315 439 L 319 440 L 321 439 L 325 441 L 327 440 Q 332 439 334 442 L 334 436 L 332 437 L 329 436 L 327 436 L 323 435 L 319 436 L 317 436 Q 314 437 315 433 L 318 434 L 320 433 L 324 434 L 326 433 L 331 434 L 333 434 L 334 434 L 334 430 L 331 429 L 327 430 L 325 429 Q 318 431 319 427 L 322 426 L 326 428 L 329 427 L 334 429 L 334 422 L 331 421 L 329 422 L 327 418 L 324 419 L 319 418 Z M 17 422 L 17 424 L 15 426 L 11 426 Q 8 425 9 429 L 13 431 L 10 432 Q 7 433 9 435 L 9 436 L 13 436 L 14 434 Q 15 438 20 437 L 21 430 L 14 430 L 16 428 L 22 427 L 23 424 Q 24 421 17 422 Z M 297 426 L 286 428 L 283 431 Q 281 436 285 438 L 292 436 L 308 435 L 313 431 Q 316 432 314 428 L 303 426 L 301 427 L 297 426 Z M 64 427 L 62 429 L 65 429 L 64 427 Z M 68 427 L 66 429 L 72 430 Q 74 431 73 428 L 68 427 Z M 60 428 L 60 431 Q 63 430 60 428 Z M 248 428 L 247 429 L 233 429 L 226 431 Q 220 429 222 436 Q 224 440 226 437 L 230 438 L 241 435 L 256 435 L 256 432 Q 255 427 248 428 Z M 86 429 L 84 432 L 81 431 L 71 439 Q 62 441 61 437 L 58 438 L 66 442 L 68 441 L 70 442 L 80 434 L 82 434 L 82 440 L 84 440 L 87 439 L 94 439 L 102 441 L 105 441 L 113 437 Q 116 436 115 432 L 106 430 L 104 430 L 102 429 L 88 429 L 86 429 Z M 38 430 L 37 431 L 28 431 L 25 434 Q 25 439 30 441 L 33 439 L 53 439 L 54 436 L 52 433 L 52 430 L 38 430 Z M 259 433 L 260 439 L 260 448 L 264 461 L 270 471 L 268 483 L 266 485 L 260 485 L 247 480 Q 232 466 229 441 L 219 455 L 212 462 L 200 468 L 195 467 L 193 470 L 193 472 L 201 498 L 213 517 L 225 524 L 228 519 L 225 515 Q 226 512 223 513 L 218 503 L 218 500 L 221 498 L 227 512 L 227 510 L 230 509 L 234 519 Q 233 524 236 527 L 249 536 L 270 542 L 286 542 L 293 540 L 294 538 L 291 539 L 286 538 L 286 537 L 288 538 L 294 537 L 296 535 L 295 532 L 291 534 L 289 534 L 293 532 L 292 528 L 289 530 Q 283 532 282 529 Q 279 530 280 527 Q 283 526 285 529 L 294 527 L 293 524 L 290 526 L 285 523 L 281 523 L 279 521 Q 274 520 273 522 Q 265 524 262 521 L 256 513 L 255 506 Q 254 503 253 505 L 245 502 L 240 497 Q 239 494 242 495 L 245 500 L 251 503 L 257 503 L 264 501 L 270 494 L 279 497 L 289 497 L 289 498 Q 278 499 273 496 Q 269 495 270 498 L 279 501 L 282 500 L 283 501 L 295 502 L 291 503 L 283 503 L 273 500 L 270 501 L 276 504 L 284 505 L 286 505 L 290 506 L 294 505 Q 296 504 295 507 Q 300 509 299 505 L 297 505 L 300 504 Q 304 506 301 508 Q 303 511 308 509 L 307 506 Q 308 503 305 504 L 303 505 Q 302 502 305 503 L 308 496 L 308 488 L 303 478 L 304 474 L 304 467 Q 294 480 276 484 L 274 483 L 274 478 L 271 470 L 276 460 L 276 443 L 272 439 L 270 436 L 259 433 Z M 11 438 Q 8 439 9 444 L 13 445 L 15 442 L 18 443 Q 25 442 24 445 L 11 446 Q 8 447 9 451 L 13 452 L 16 450 L 19 451 Q 21 450 20 453 L 19 452 L 16 453 L 9 453 L 9 458 L 12 457 L 20 459 L 24 458 L 28 459 L 27 457 Q 29 451 23 453 L 25 450 L 27 451 Q 29 442 24 440 Q 21 441 22 438 L 20 439 L 11 438 Z M 249 444 L 248 445 L 239 445 L 233 446 L 235 455 L 245 453 L 258 453 L 257 447 L 256 445 L 249 444 Z M 196 446 L 194 447 Q 188 451 186 460 L 186 462 L 187 480 L 191 494 Q 196 508 205 519 L 219 529 L 235 533 L 238 533 L 235 529 L 226 527 L 214 521 Q 204 511 198 499 L 198 496 L 195 491 Q 194 481 190 474 Q 188 462 192 456 L 198 451 L 203 452 Q 208 454 208 463 L 212 460 L 213 458 L 209 457 L 208 451 Q 205 445 196 446 Z M 291 446 L 285 448 L 282 448 L 282 454 L 301 454 L 306 456 L 307 455 L 308 448 L 307 446 L 291 446 Z M 82 447 L 80 449 L 79 456 L 81 457 L 99 457 L 102 458 Q 104 457 103 454 L 103 452 L 104 450 L 103 448 L 89 447 L 87 447 L 85 448 L 82 447 Z M 329 448 L 325 450 Q 326 452 328 450 L 332 451 L 333 451 L 329 448 Z M 41 449 Q 39 452 33 450 Q 29 452 31 457 L 41 456 L 43 456 L 54 456 L 54 451 L 53 449 L 41 449 Z M 327 452 L 326 453 L 319 453 L 318 455 L 309 456 L 306 464 L 307 472 L 307 474 L 306 476 Q 305 480 308 481 L 308 485 L 310 488 L 310 498 L 309 499 L 310 507 L 317 506 L 319 506 L 325 508 Q 329 510 330 517 L 330 519 L 332 525 L 334 523 L 334 508 L 334 506 L 332 502 Q 331 499 334 500 L 334 486 L 326 486 L 324 486 L 321 488 L 323 494 Q 325 502 322 505 L 319 501 L 320 497 Q 321 490 319 487 L 316 489 L 314 487 Q 315 484 317 486 L 319 485 L 314 482 L 318 480 L 314 477 Q 316 472 318 475 L 320 474 L 319 473 L 320 471 L 326 471 L 326 469 L 319 469 L 319 467 L 328 468 L 329 472 L 326 473 L 323 472 L 322 474 Q 323 476 328 475 L 330 477 Q 334 475 333 479 L 327 482 L 335 482 L 335 478 L 334 476 L 335 474 L 333 470 L 335 467 L 334 463 L 335 461 L 334 459 L 334 457 L 335 453 L 329 452 L 327 452 Z M 198 454 Q 193 458 193 466 L 196 465 L 199 466 L 204 465 L 203 457 Q 202 453 198 454 Z M 16 459 L 13 460 L 9 462 Q 8 464 11 463 Q 12 466 9 465 L 10 470 L 10 469 L 13 471 L 12 473 Q 9 474 10 472 L 9 472 Q 7 479 12 477 Q 13 481 11 480 Q 9 478 8 481 L 9 483 L 8 487 L 9 489 L 8 491 Q 7 495 9 497 L 9 503 L 12 503 Q 13 506 9 505 L 9 514 L 8 515 L 10 515 L 11 513 Q 10 510 14 511 L 16 516 L 19 514 L 18 518 L 19 519 L 20 517 Q 23 512 29 512 Q 28 504 32 499 L 30 494 L 30 488 L 34 479 L 34 476 Q 31 473 31 469 L 12 466 L 16 464 L 19 466 Q 20 464 26 465 L 29 466 L 30 466 L 29 463 L 26 460 L 24 461 Q 18 462 16 459 Z M 140 460 L 137 465 L 144 464 L 143 463 Q 144 458 140 460 Z M 253 462 Q 251 465 246 463 L 240 467 L 246 475 L 251 472 L 265 471 L 262 464 L 262 462 L 253 462 Z M 280 463 L 277 469 L 297 472 L 300 467 L 299 465 L 281 464 L 280 463 Z M 48 464 L 34 468 L 36 473 L 58 472 L 57 466 L 56 464 L 53 465 L 50 464 L 48 464 Z M 76 465 L 74 472 L 80 471 L 97 473 L 99 470 L 99 466 L 88 466 L 86 466 L 85 465 L 76 465 Z M 146 468 L 144 471 Q 143 473 146 472 L 146 468 Z M 182 474 L 180 481 L 181 496 L 185 507 L 192 520 L 192 522 L 192 530 L 190 530 L 187 537 L 188 542 L 188 540 L 192 537 Q 191 543 195 544 L 197 543 L 199 544 L 199 543 L 196 541 L 195 538 L 198 536 L 199 539 Q 198 541 201 540 L 202 543 L 206 544 Q 207 538 202 537 L 204 534 L 206 535 L 212 544 L 212 542 L 215 543 Q 217 542 216 545 L 220 545 L 222 545 Q 228 547 227 543 Q 230 542 229 545 L 234 545 L 234 544 Q 230 545 231 542 Q 235 540 234 544 L 237 545 L 239 545 L 244 544 L 246 545 L 248 545 L 253 544 L 255 544 L 259 545 L 259 544 L 244 536 L 238 536 L 226 532 L 220 532 L 222 536 L 221 541 L 217 544 L 218 542 L 218 535 Q 218 540 216 541 L 212 532 L 210 531 L 207 531 L 207 528 L 198 528 L 198 526 L 208 526 L 208 525 L 204 522 L 190 500 L 184 482 L 184 475 L 182 474 Z M 72 479 L 72 486 L 75 487 L 77 486 L 79 487 Q 84 488 87 485 L 90 480 L 72 479 Z M 280 479 L 279 480 Q 276 479 277 483 L 280 482 Q 283 483 282 481 L 280 479 Z M 49 480 L 48 481 Q 44 480 45 483 L 55 487 L 62 487 L 62 480 L 49 480 Z M 262 481 L 264 484 L 265 482 L 262 481 Z M 144 483 L 142 495 L 143 498 L 146 486 Q 147 482 144 483 Z M 325 483 L 322 485 L 326 485 Q 327 482 325 483 Z M 328 483 L 329 485 L 331 484 Q 332 486 333 484 L 328 483 Z M 104 487 L 103 492 L 104 492 L 104 487 Z M 155 487 L 154 491 L 155 491 L 155 487 Z M 154 492 L 153 496 L 154 496 L 154 492 Z M 43 493 L 41 495 L 42 496 L 45 495 L 43 493 Z M 92 493 L 90 496 L 93 495 L 96 496 L 95 495 Q 96 492 92 493 Z M 104 493 L 99 506 L 94 515 L 86 522 Q 82 521 83 524 L 78 525 L 76 524 L 73 526 L 71 525 L 60 525 L 60 516 L 58 519 L 54 521 L 50 515 Q 51 512 49 513 L 47 513 L 54 523 L 53 528 L 59 526 Q 60 529 67 527 L 70 529 L 73 527 L 86 526 L 90 523 L 93 520 L 104 499 L 104 493 Z M 153 496 L 152 500 L 153 500 L 153 496 Z M 142 498 L 141 502 L 142 502 L 142 498 Z M 141 502 Q 137 513 131 522 L 122 529 Q 116 530 115 526 L 118 522 L 118 519 L 112 528 L 97 539 L 84 545 Q 78 543 79 547 L 84 546 Q 90 547 89 545 L 107 535 L 110 530 L 112 531 L 110 534 L 128 528 L 135 520 L 141 506 L 141 502 Z M 175 508 L 174 509 L 160 509 L 161 513 L 160 513 L 155 523 L 159 530 L 159 535 L 155 541 L 155 543 L 152 545 Q 151 547 158 546 L 160 546 L 164 545 L 169 546 L 172 545 L 175 546 Q 178 543 187 545 L 188 546 L 184 541 L 184 535 L 189 528 L 188 523 L 189 520 L 182 508 L 180 509 L 175 508 Z M 313 509 L 308 510 L 306 510 Q 304 513 299 511 L 290 515 L 287 519 Q 288 521 286 520 Q 284 518 283 521 L 288 523 Q 291 524 289 520 L 294 516 L 296 519 L 296 518 L 301 514 L 301 516 Q 304 517 303 515 L 307 512 L 306 514 L 307 515 L 314 511 Q 317 510 316 513 L 314 515 L 306 517 L 305 520 L 306 524 L 312 519 L 314 520 L 313 522 L 311 523 L 308 527 Q 309 530 306 529 L 306 533 L 310 532 L 313 528 L 318 524 L 319 524 L 315 531 L 308 535 L 305 535 L 302 534 L 303 536 L 301 536 L 299 539 L 295 542 Q 290 541 288 544 L 295 544 L 297 544 L 299 543 L 301 544 L 303 543 Q 302 545 306 544 L 308 544 L 311 544 L 304 540 Q 301 541 302 538 L 321 542 Q 322 545 324 541 L 326 543 L 330 542 Q 336 544 334 538 L 331 539 L 329 540 L 333 532 L 333 530 Q 334 526 332 527 L 332 529 L 330 535 Q 327 538 322 539 Q 320 537 319 540 L 316 537 Q 308 539 309 535 L 314 536 L 319 533 L 321 529 L 324 527 L 325 530 Q 326 534 324 536 L 326 536 L 328 532 L 328 522 L 326 514 Q 323 508 313 509 Z M 37 510 L 47 528 L 47 530 L 45 528 L 42 526 L 44 532 L 48 533 L 51 531 L 52 527 L 52 524 L 49 519 L 44 516 L 40 512 L 37 510 Z M 120 510 L 118 516 L 119 519 L 120 517 L 120 510 Z M 267 510 L 267 517 L 268 513 L 267 510 Z M 277 511 L 274 516 Q 273 518 276 517 L 277 514 L 277 511 Z M 147 512 L 144 516 L 145 517 L 147 514 L 147 512 Z M 261 512 L 261 514 L 263 515 Q 264 511 261 512 Z M 272 512 L 270 516 L 272 515 L 272 512 Z M 36 514 L 37 516 Q 38 513 36 514 Z M 144 517 L 142 520 L 144 519 L 144 517 Z M 293 518 Q 290 523 294 522 L 293 518 Z M 298 521 L 297 526 Q 300 525 299 528 L 301 529 Q 300 525 304 527 L 303 531 L 305 531 L 305 525 L 302 524 L 303 521 L 301 521 Q 302 525 300 524 L 298 521 Z M 140 522 L 138 525 L 140 524 L 140 522 Z M 230 522 L 228 524 Q 227 527 231 525 L 230 522 Z M 121 523 Q 120 526 123 525 Q 124 522 121 523 Z M 10 524 L 9 528 L 10 528 L 10 524 Z M 41 524 Q 39 527 42 526 L 41 524 Z M 138 525 L 136 528 L 138 527 L 138 525 Z M 333 525 L 333 527 L 335 526 L 333 525 Z M 211 526 L 211 530 L 214 531 Q 216 532 215 530 L 211 526 Z M 147 528 L 147 530 Q 149 533 150 530 L 147 528 Z M 296 528 Q 293 532 297 531 L 296 528 Z M 19 529 L 19 534 L 20 534 L 19 529 Z M 10 530 L 9 534 L 10 534 L 10 530 Z M 35 530 L 34 532 L 38 534 L 35 530 Z M 57 530 L 55 532 L 57 532 L 57 530 Z M 54 531 L 49 535 L 50 536 L 54 533 L 54 531 Z M 131 531 Q 130 534 133 533 Q 134 530 131 531 Z M 29 532 L 29 536 L 31 537 Q 32 532 29 532 Z M 138 533 Q 137 536 140 535 Q 141 532 138 533 Z M 321 533 L 319 536 L 321 535 L 321 533 Z M 148 534 L 146 543 L 148 543 L 149 541 L 149 539 L 148 534 Z M 26 535 Q 24 539 27 541 L 29 542 L 26 535 Z M 57 535 L 53 537 L 53 538 L 58 537 L 57 535 Z M 9 536 L 8 540 L 10 539 L 9 536 Z M 143 536 L 139 542 L 140 544 L 143 538 L 143 536 Z M 123 538 L 113 542 L 101 543 L 100 544 L 97 543 L 91 545 L 91 546 L 109 546 L 110 545 L 113 546 L 114 546 L 113 543 Q 116 542 115 546 L 119 546 L 117 545 Q 116 542 119 543 L 121 546 L 126 546 L 124 543 Q 126 537 123 538 Z M 130 538 L 129 541 L 130 541 L 130 538 Z M 57 539 L 54 540 L 52 543 Q 57 544 59 541 L 57 539 Z M 47 540 L 43 545 Q 42 548 48 546 L 46 544 L 49 542 L 47 540 Z M 35 541 L 36 543 Q 37 540 35 541 Z M 30 542 L 32 545 L 32 544 L 30 542 Z M 10 544 L 11 546 L 14 546 L 10 544 Z M 54 545 L 56 547 L 58 546 L 54 545 Z M 289 546 L 288 547 L 222 547 L 220 547 L 217 548 L 215 547 L 214 548 L 196 548 L 194 548 L 192 547 L 191 548 L 69 548 L 68 549 L 66 548 L 64 548 L 57 549 L 55 549 L 53 548 Q 47 547 46 549 L 44 548 L 42 548 L 38 549 L 37 548 L 24 548 L 22 548 L 17 549 L 8 549 L 8 560 L 8 562 L 9 564 L 9 590 L 10 592 L 17 592 L 18 591 Q 19 594 25 592 L 27 592 L 31 591 L 33 592 L 35 592 L 37 591 L 38 592 L 112 592 L 114 592 L 137 592 L 138 593 L 140 592 L 207 592 L 208 591 Q 213 590 215 592 L 216 591 L 263 591 L 265 591 L 277 591 L 278 590 L 281 591 L 282 590 L 334 590 L 334 556 L 335 555 L 334 546 L 314 546 L 313 547 L 310 546 L 306 547 L 305 546 L 289 546 Z "></path><path d="M 193.5 16 L 194 19 L 185 19 L 185 22.5 L 185 24.5 L 185 35 L 193 35 L 193 38 L 188.5 37 L 184.5 38 L 182.5 38 L 162.5 38 L 161.5 37 L 160.5 38 L 143 38 L 143.5 36 L 153.5 36 L 156 35 L 154 26.5 L 151 22.5 L 151 19 L 141.5 19 L 141 17 L 192.5 17 L 193.5 16 Z M 156 19 L 159 29 Q 158 32 161 31 L 164 20 L 163 20 L 156 19 Z M 174 19 L 174 34 L 180 36 L 181 32 L 180 29 L 180 19 L 174 19 Z M 168 20 L 165 31 L 163 33 L 164 36 L 170 34 L 169 29 Q 167 22 170 21 L 168 20 Z "></path><path d="M 197.5 44 L 198 46.5 L 196 49.5 L 198 52.5 L 193 55.5 Q 193.8 57.8 191.5 57 Q 190.1 53 185 54 L 186 48.5 L 184 45 Q 188.1 43.3 187 47.5 L 188 50.5 L 187 53 L 193 55 L 193 53 Q 196.8 54.5 196 51.5 Q 192 49.5 196 47.5 L 197.5 44 Z "></path><path d="M 207.5 44 L 208 45.5 L 207 48 L 205 47.5 L 207.5 44 Z "></path><path d="M 238 44 L 242 45.5 L 243 47.5 L 240.5 46 L 239 46 Q 240.5 49.8 237.5 49 L 238 47.5 L 238 44 Z "></path><path d="M 98.5 45 L 99 48 Q 96.3 49.1 97 46.5 L 98.5 45 Z "></path><path d="M 114 45 Q 119.2 42.9 118 47.5 Q 116.8 50.3 115.5 48 Q 112.5 48.7 114 45 Z "></path><path d="M 170 45 Q 175.2 43.3 174 47 Q 168.8 48.7 170 45 Z "></path><path d="M 250.5 45 L 254 49.5 L 253 53 L 249.5 54 L 252 50.5 L 249 46.5 L 250.5 45 Z "></path><path d="M 137 46 Q 141.1 44.3 140 48.5 L 138.5 48 Q 135.9 48.7 137 46 Z "></path><path d="M 209 47 L 213 48 L 211 52.5 L 212 55 L 207 53.5 L 208.5 53 L 210 53.5 L 209 51.5 L 210 49.5 L 209 47 Z "></path><path d="M 216.5 47 L 218.5 48 L 220.5 47 L 224 48 Q 225.1 50.7 222.5 50 L 215 48.5 L 216.5 47 Z "></path><path d="M 101.5 48 L 103 51.5 L 101 52 L 101.5 48 Z "></path><path d="M 107.5 48 L 108 52 L 104 52 L 104 50.5 L 107 49.5 L 107.5 48 Z "></path><path d="M 174 48 L 178 48.5 L 174 50 L 174 48 Z "></path><path d="M 202 48 L 204 48 L 204 50 Q 206.7 48.9 206 51.5 L 206 53.5 L 205.5 56 L 202 48 Z "></path><path d="M 244.5 48 Q 248.3 47 247 50 L 244.5 48 Z "></path><path d="M 88.5 50 L 89 51.5 L 87 52.5 L 88.5 50 Z "></path><path d="M 112 50 L 116 51.5 Q 116.8 53.8 114.5 53 L 112 52 L 112 50 Z "></path><path d="M 179.5 50 L 180.5 52 L 175.5 55 L 175 53.5 L 179.5 50 Z "></path><path d="M 220.5 50 L 226 52.5 L 220.5 53 Q 217.5 51.5 220.5 50 Z "></path><path d="M 98.5 51 L 101 54.5 L 99.5 55 Q 97 54 98.5 51 Z "></path><path d="M 227 51 Q 230 50 229 53 Q 226 54 227 51 Z "></path><path d="M 73.5 52 L 76 52.5 L 74.5 55 L 73.5 52 Z "></path><path d="M 236.5 52 L 238 55.5 Q 236.5 58.5 235 55.5 L 236.5 52 Z "></path><path d="M 255.5 52 Q 257.8 51.3 257 53.5 L 259 55.5 L 255.5 59 L 253 58.5 L 257 55.5 L 255.5 52 Z "></path><path d="M 83 53 Q 85.7 51.9 85 54.5 L 86.5 57 Q 83.2 58.1 84 55.5 L 83 53 Z "></path><path d="M 95.5 53 L 96 55 L 94 54.5 L 95.5 53 Z "></path><path d="M 91.5 54 L 93 56.5 L 91 57.5 L 91.5 54 Z "></path><path d="M 218.5 54 L 222 56.5 Q 222.7 59.1 220 58 L 219.5 55 L 217.5 58 L 217 55.5 L 218.5 54 Z "></path><path d="M 224.5 54 Q 229.3 52.7 228 56 Q 224.6 55.3 223.5 58 L 223 55.5 L 224.5 54 Z "></path><path d="M 252.5 54 Q 255.1 53.3 254 56 L 249.5 57 L 250.5 55 L 252.5 54 Z "></path><path d="M 77.5 55 L 79 59.5 L 77 58.5 L 77.5 55 Z "></path><path d="M 201.5 56 L 202 58 L 197.5 59 L 197.5 58 L 201.5 56 Z "></path><path d="M 213 56 L 215 56.5 L 213 57.5 L 213 56 Z "></path><path d="M 123.5 57 L 128.5 59 L 132.5 57 L 132.5 58 L 130 59.5 L 128.5 62 L 123.5 57 Z "></path><path d="M 250.5 59 L 252.5 62 Q 250.3 62.8 251 60.5 L 250.5 59 Z "></path><path d="M 150 60 Q 153 59 152 62 Q 149 63 150 60 Z "></path><path d="M 87.5 61 L 88 62.5 Q 84.9 64.3 86.5 66 Q 80.4 67.3 81 64.5 L 82 62 L 85.5 63 L 87.5 61 Z "></path><path d="M 117.5 62 L 120 63 Q 121 66 118 65 L 117.5 62 Z "></path><path d="M 223.5 63 L 224.5 65 Q 221.7 65.7 223.5 63 Z "></path><path d="M 250.5 66 L 251 68 L 249 67.5 L 250.5 66 Z "></path><path d="M 227 68 Q 230 67 229 70 Q 226 71 227 68 Z "></path><path d="M 257.5 84 L 258 85.5 L 253.5 89 L 253 87 L 257.5 84 Z "></path><path d="M 70 89 L 72 89 L 74 93 L 70 91.5 L 70 89 Z "></path><path d="M 209.5 109 L 210 110.5 Q 209.5 113.5 205.5 113 L 202 110.5 L 204.5 110 Q 207 114.5 209.5 109 Z "></path><path d="M 210.5 118 L 211 121.5 L 209 120.5 L 210.5 118 Z "></path><path d="M 208.5 122 L 212 124 L 211.5 126 L 208 124 L 207.5 126 L 207 123.5 L 208.5 122 Z "></path><path d="M 84.5 123 L 86 125.5 L 84 124.5 L 84.5 123 Z "></path><path d="M 164.5 128 L 168.5 129 L 170.5 128 L 173 129 Q 174.3 132.7 168.5 131 L 166.5 131 L 162.5 132 L 160 131 Q 158.7 127.7 163.5 129 L 164.5 128 Z "></path><path d="M 164 133 L 170 133.5 L 165.5 136 L 164 133 Z "></path><path d="M 147.5 171 L 148 172.5 L 145 174 Q 143.9 171.3 146.5 172 L 147.5 171 Z "></path><path d="M 106 184 L 110 184.5 L 109 187 L 106 185.5 L 106 184 Z "></path><path d="M 182 187 L 187 187 L 187 189 L 182 189 L 182 187 Z "></path><path d="M 144.5 189 L 149 191.5 Q 147.8 194.2 146.5 192 Q 142.1 193.5 143 190.5 L 144.5 189 Z "></path><path d="M 152 191 L 158 192.5 Q 156.8 195.3 155.5 193 Q 150.7 194.3 152 191 Z "></path><path d="M 185.5 191 L 188 192.5 L 181 194 Q 179.7 190.7 184.5 192 L 185.5 191 Z "></path><path d="M 233 191 L 235 191.5 L 233 192.5 L 233 191 Z "></path><path d="M 105 192 Q 108 191 107 194 Q 104 195 105 192 Z "></path><path d="M 141 193 L 145 194.5 Q 143.8 197.3 142.5 195 Q 139.9 195.7 141 193 Z "></path><path d="M 147 194 L 154.5 196 L 156 195.5 Q 155.3 197.8 151.5 197 L 147 196 L 147 194 Z "></path><path d="M 181.5 196 L 188.5 196 L 189 198 L 182.5 198 L 181.5 196 Z "></path><path d="M 139.5 197 L 148 198 Q 149.3 201 145.5 200 Q 144.3 197.7 139.5 199 L 138 199.5 L 139.5 197 Z "></path><path d="M 101 198 Q 104.3 196.9 103 201 Q 99.7 202.1 101 198 Z "></path><path d="M 149.5 199 L 153 200.5 L 149 201 L 149.5 199 Z "></path><path d="M 308.5 199 L 309 201 L 307 200.5 L 308.5 199 Z "></path><path d="M 186.5 200 L 192 202.5 L 191.5 204 L 186 202 L 185.5 204 Q 182 202 186.5 200 Z "></path><path d="M 139 203 L 147 203.5 L 139 205 L 139 203 Z "></path><path d="M 150.5 205 L 151.5 207 L 150.5 205 Z "></path><path d="M 111.5 215 L 112 216.5 L 104 231.5 L 102 244.5 L 100.5 246 L 100 243.5 L 104 226.5 Q 106.2 219.2 111.5 215 Z "></path><path d="M 149.5 215 L 154 216.5 L 143.5 222 L 139 222 Q 137.3 217.5 142.5 219 L 146.5 218 L 149.5 215 Z "></path><path d="M 98.5 216 L 100 216.5 L 97 221.5 L 95.5 229 L 95 223.5 L 98.5 216 Z "></path><path d="M 90.5 217 Q 93.8 222.2 92 232.5 L 91 232.5 L 90 230.5 L 90.5 217 Z "></path><path d="M 304 220 Q 307 218.8 306 222.5 L 304 221.5 L 304 220 Z "></path><path d="M 307 220 L 310 220.5 L 307 222 L 307 220 Z "></path><path d="M 85 223 Q 87.7 221.9 87 224.5 Q 89.2 225.7 88 230.5 L 87 230.5 L 85 223 Z "></path><path d="M 172.5 226 Q 174.8 225.3 174 227.5 L 172.5 226 Z "></path><path d="M 172.5 232 L 176 234.5 L 175.5 236 L 172.5 235 L 169 234.5 L 172.5 232 Z "></path><path d="M 78.5 234 L 82 239.5 L 82 246.5 L 81 246.5 L 80 238.5 Q 76.9 237.4 78.5 234 Z "></path><path d="M 306.5 234 L 311 235.5 L 308.5 237 L 306.5 237 L 300 236.5 Q 301.3 233.7 302.5 236 L 306.5 234 Z "></path><path d="M 84.5 238 L 85 242.5 L 84 242.5 L 84.5 238 Z "></path><path d="M 307 242 Q 310.3 240.9 309 245 Q 305.7 246.1 307 242 Z "></path><path d="M 311.5 242 L 312 244.5 L 310 243.5 L 311.5 242 Z "></path><path d="M 295 243 L 300 243.5 L 295 246 L 295 243 Z "></path><path d="M 127.5 252 L 131.5 253 L 133.5 253 Q 139.3 250.9 138 255.5 L 136 260 L 130.5 259 L 129 259.5 Q 127.1 253.2 132 255 L 133.5 259 L 134 257.5 L 133 254 L 128 253 L 127 257.5 L 128 259.5 L 126.5 259 Q 121.9 260.4 124 254.5 L 127.5 252 Z "></path><path d="M 226.5 252 L 224.5 255 L 226.5 252 Z "></path><path d="M 104.5 253 L 107 254.5 L 105.5 257 L 103 256 L 104.5 253 Z "></path><path d="M 141 253 L 148.5 253 L 158 256 L 155.5 262 L 143.5 260 L 139 257.5 L 141 253 Z M 143 255 L 143 258 L 146 256 L 152 257 L 152 255 L 143 255 Z M 148 258 Q 148 261 154 260 Q 155 257 148 258 Z "></path><path d="M 55 254 Q 58 253 57 256 Q 54 257 55 254 Z "></path><path d="M 298.5 255 L 300 255 L 300 260 L 301.5 260 L 306 262.5 Q 306.8 264.8 304.5 264 Q 302.5 260.8 298 261 L 297 256.5 L 298.5 255 Z "></path><path d="M 328.5 256 Q 331.5 255.2 330 259 L 327 257.5 L 328.5 256 Z "></path><path d="M 164.5 258 L 174 261 Q 175.3 265.6 172.5 267 L 162 264 L 164.5 258 Z "></path><path d="M 280 258 Q 283.3 256.9 282 261 Q 278.7 262.1 280 258 Z "></path><path d="M 283 258 L 286 259.5 L 283 261 L 283 258 Z "></path><path d="M 181.5 262 L 195 266 L 194 273 L 190.5 273 L 180 269 L 181.5 262 Z M 183 265 L 183 267 L 190 268 L 193 270 L 193 269 L 183 265 Z "></path><path d="M 93 263 L 101 266.5 Q 101.8 268.8 99.5 268 L 93 264.5 L 93 263 Z "></path><path d="M 232.5 263 L 233 264.5 L 230 266.5 L 232.5 263 Z "></path><path d="M 202.5 269 L 212.5 273 L 215 275.5 L 213 282 L 200 276 Q 199.2 271 202.5 269 Z M 208 273 L 207 276 L 205 277 L 209 277 L 208 273 Z "></path><path d="M 287.5 269 Q 289.8 268.3 289 270.5 L 287.5 269 Z "></path><path d="M 159 270 Q 162 269 161 272 Q 158 273 159 270 Z "></path><path d="M 30.5 271 Q 33.1 270.2 32 273.5 L 31 273.5 L 30.5 271 Z "></path><path d="M 57.5 271 Q 60.5 270.2 59 274 L 56 272.5 L 57.5 271 Z "></path><path d="M 16 272 Q 19 271 18 274 Q 15 275 16 272 Z "></path><path d="M 30.5 275 Q 33.3 276.4 32 281 Q 28.7 282.3 30 277.5 Q 27.8 276.3 30.5 275 Z "></path><path d="M 169 278 Q 173.5 276.5 172 281 L 169 279.5 L 169 278 Z "></path><path d="M 16 279 Q 19 278 18 281 Q 15 282 16 279 Z "></path><path d="M 273 289 Q 277.5 287.5 276 292 L 273 290.5 L 273 289 Z "></path><path d="M 277 289 Q 280 288 279 291 Q 276 292 277 289 Z "></path><path d="M 294.5 289 Q 296.8 288.3 296 290.5 L 294.5 289 Z "></path><path d="M 317 289 Q 320.3 287.9 319 292 Q 315.7 293.1 317 289 Z "></path><path d="M 322.5 289 Q 324.8 288.3 324 290.5 Q 322.5 293.5 321 290.5 L 322.5 289 Z "></path><path d="M 44 292 Q 46.7 290.9 46 293.5 L 44 294.5 L 44 292 Z "></path><path d="M 17 296 Q 20.7 294.8 19 300 Q 15.3 301.2 17 296 Z "></path><path d="M 14 315 Q 18.6 313.8 20 316.5 L 18.5 319 L 16 317.5 L 15.5 319 L 14 315 Z "></path><path d="M 36 315 L 39 316.5 L 37.5 319 L 36 315 Z "></path><path d="M 215.5 316 L 216 321 Q 212.7 322.3 214 317.5 L 215.5 316 Z "></path><path d="M 219 316 L 222 317.5 L 221 321 L 219 321 L 219 316 Z "></path><path d="M 224 316 L 226 316 L 226 322 L 224 322 L 224 316 Z "></path><path d="M 229 316 Q 233 314.6 231 321.5 L 229 320.5 L 229 316 Z "></path><path d="M 258 316 L 261 317.5 L 260 336.5 L 258.5 338 L 258 323.5 L 259 318.5 L 258 316 Z "></path><path d="M 168 317 L 171 318.5 Q 172.3 323.3 169 322 L 168 317 Z "></path><path d="M 173 317 L 175 317.5 L 175 325 L 173 324.5 L 173 317 Z "></path><path d="M 249 317 L 252 317 L 252 323.5 Q 249.2 325.2 251 331.5 L 249.5 333 Q 246.8 331.8 248 326.5 L 249 325.5 L 249 317 Z "></path><path d="M 112 318 Q 116.5 316.3 115 321.5 L 116 325.5 L 115 328 Q 111 329.4 113 322.5 L 112 318 Z "></path><path d="M 184.5 319 L 185.5 321 Q 182.7 321.7 184.5 319 Z "></path><path d="M 209 319 Q 212 318 211 321 Q 208 322 209 319 Z "></path><path d="M 283 319 Q 287 317.6 285 324.5 L 284 327.5 L 285 328.5 L 285 361.5 L 283 362.5 L 283 331.5 L 282 327.5 L 283 326.5 L 283 319 Z "></path><path d="M 159 320 Q 162.7 318.5 162 321.5 L 159 323 L 159 320 Z "></path><path d="M 190 320 Q 193 319 192 322 Q 189 323 190 320 Z "></path><path d="M 103.5 321 L 104 323 L 102 322.5 L 103.5 321 Z "></path><path d="M 95 322 Q 98 321 97 324 Q 94 325 95 322 Z "></path><path d="M 86 323 Q 89 321.8 88 325.5 L 86.5 331 Q 84 330 85 325.5 L 86 323 Z "></path><path d="M 143 324 Q 147.1 322.7 146 326 Q 141.9 327.3 143 324 Z "></path><path d="M 181 325 L 184 326.5 L 184 328.5 L 183 342 L 181 341.5 L 181 325 Z "></path><path d="M 151.5 326 L 153 329 L 150 327.5 L 151.5 326 Z "></path><path d="M 214.5 326 Q 216.8 325.3 216 327.5 L 214.5 326 Z "></path><path d="M 229 326 Q 232 325 231 328 Q 228 329 229 326 Z "></path><path d="M 100.5 327 L 101.5 329 Q 98.7 329.7 100.5 327 Z "></path><path d="M 156 328 L 159 328.5 L 156 330 L 156 328 Z "></path><path d="M 221 328 Q 224 327 223 330 Q 220 331 221 328 Z "></path><path d="M 92.5 329 L 93.5 331 Q 90.7 331.7 92.5 329 Z "></path><path d="M 142 329 Q 144.7 327.9 144 330.5 L 142 331.5 L 142 329 Z "></path><path d="M 170 329 L 173 330.5 L 170 331 L 170 329 Z "></path><path d="M 307.5 330 L 308 378.5 L 306 377.5 L 307 373.5 L 306 369.5 L 307 368.5 L 307 358.5 L 306 358.5 Q 306.8 360.8 304.5 360 Q 303.3 362.3 302 359.5 Q 301.3 355.8 303.5 355 L 304.5 358 L 307 354.5 L 307 339.5 Q 304.3 337.7 306 331.5 L 307.5 330 Z "></path><path d="M 103 332 Q 106 331 105 334 Q 102 335 103 332 Z "></path><path d="M 150.5 332 L 151.5 334 L 149 333.5 L 150.5 332 Z "></path><path d="M 162.5 332 L 165 332.5 Q 162.9 335.8 162.5 332 Z "></path><path d="M 208.5 333 L 209 335 L 207 334.5 L 208.5 333 Z "></path><path d="M 238 333 Q 241 332 240 335 Q 237 336 238 333 Z "></path><path d="M 232.5 334 L 233 336 L 231 335.5 L 232.5 334 Z "></path><path d="M 96.5 335 Q 99.5 334.2 98 338 L 101 338 L 101 341 L 96 342 L 95 336.5 L 96.5 335 Z "></path><path d="M 86 336 Q 89 335 88 338 Q 85 339 86 336 Z "></path><path d="M 116.5 336 L 117.5 338 Q 114.7 338.7 116.5 336 Z "></path><path d="M 165.5 336 L 166 338 L 164 337.5 L 165.5 336 Z "></path><path d="M 171.5 336 L 172 338 L 170 337.5 L 171.5 336 Z "></path><path d="M 197.5 336 L 219.5 342 L 225.5 347 L 241.5 355 L 255 359 L 252.5 363 Q 244.3 364.7 240.5 362 Q 239.7 365.8 234.5 365 L 232.5 364 Q 231.7 367.7 226.5 367 L 219.5 364 L 219 366 Q 210.7 367.2 206.5 363 L 200 364 L 198.5 367 Q 193.7 365.7 195 369 L 203.5 368 Q 206.3 369.3 205 374.5 L 204 375.5 L 204 389.5 L 199 405 L 184 413.5 L 177.5 425 L 172.5 426 L 168.5 425 L 164 421.5 L 161 413 Q 156.5 413.2 154.5 410 L 154 411.5 L 154 413.5 Q 155.3 418.8 152.5 420 L 151.5 416 Q 148.7 422.9 150 433 L 148 432.5 L 148 412.5 L 148 410.5 L 149 407.5 Q 142.8 403.3 140 395.5 L 139 373.5 L 140 369 L 143.5 368 L 145 368.5 L 142.5 363 L 137.5 365 L 130.5 363 L 127.5 364 L 125 363 Q 126.1 360.3 123.5 361 Q 121.2 363.7 115.5 363 Q 114 360.5 112.5 364 L 107.5 366 L 101.5 366 Q 100.8 363.3 96.5 364 Q 93.8 366.8 87.5 366 Q 82.5 363.5 87.5 361 L 106.5 351 Q 118.7 348.7 127.5 343 L 136.5 340 L 140.5 340 L 146.5 337 L 151.5 337 L 163 344 L 163.5 346 Q 167 341.5 175.5 342 L 181 345.5 Q 180.3 347.8 182.5 347 L 189 343.5 L 188 341.5 Q 190.9 336.9 197.5 336 Z M 146 339 L 146 342 L 143 341 L 141 342 L 139 345 L 149 344 L 152 342 Q 155 344 151 346 L 154 347 Q 160 349 158 344 L 154 341 L 146 339 Z M 195 339 L 193 340 L 190 345 L 186 348 Q 181 347 183 351 Q 190 353 188 347 L 195 347 Q 196 344 192 345 L 192 342 L 197 343 L 207 343 L 208 342 L 205 340 L 203 341 Q 201 338 195 339 Z M 212 342 L 210 346 L 222 349 L 222 348 L 212 342 Z M 135 343 L 129 345 Q 127 348 126 346 L 121 349 L 122 351 L 135 346 L 135 343 Z M 173 344 L 168 346 L 165 350 L 166 357 Q 168 362 176 360 L 180 355 L 179 349 L 173 344 Z M 199 345 L 198 348 L 198 349 L 192 349 L 192 352 L 194 351 L 201 353 L 204 354 Q 206 355 205 352 L 201 351 L 199 348 L 206 349 L 214 353 Q 220 355 219 351 L 209 348 L 208 345 L 204 346 L 199 345 Z M 147 346 L 141 349 Q 136 351 140 353 L 145 351 L 147 351 L 149 348 L 147 346 Z M 136 347 L 127 351 L 126 353 Q 134 353 138 348 L 136 347 Z M 160 347 Q 159 351 162 350 Q 163 346 160 347 Z M 152 349 L 149 351 Q 146 352 147 356 L 155 353 L 156 351 Q 155 348 154 350 L 152 349 Z M 116 350 L 110 353 L 107 353 L 94 361 L 89 362 L 90 364 L 93 363 L 95 363 Q 97 360 103 361 L 115 354 L 117 354 L 116 350 Z M 224 350 L 222 355 L 234 359 L 249 362 L 249 360 L 226 350 L 224 350 Z M 160 352 Q 156 353 157 357 L 160 358 L 162 357 L 161 355 Q 162 351 160 352 Z M 184 352 L 182 357 L 184 359 L 186 358 L 188 354 L 195 357 Q 197 358 196 355 L 194 354 Q 191 355 192 352 L 190 353 Q 185 354 184 352 Z M 134 353 L 122 358 L 121 360 L 135 354 L 134 353 Z M 121 354 L 107 362 Q 104 361 105 364 L 114 361 L 121 356 L 121 354 Z M 141 354 L 132 359 Q 128 358 129 361 Q 138 361 143 356 Q 144 353 141 354 Z M 209 355 L 210 357 L 224 364 L 227 364 L 216 357 L 209 355 Z M 202 356 L 203 358 L 213 364 Q 216 365 215 363 L 202 356 Z M 145 357 L 136 362 L 140 363 L 148 359 L 145 357 Z M 190 358 L 190 360 L 199 361 L 202 363 L 202 361 L 201 359 Q 193 360 190 358 Z M 163 359 L 161 363 L 163 363 L 163 359 Z M 151 360 L 148 364 L 149 365 L 152 361 L 151 360 Z M 156 360 L 154 365 Q 153 367 156 366 L 158 362 Q 159 359 156 360 Z M 181 360 L 180 362 Q 184 361 183 364 L 186 365 Q 188 366 187 363 L 181 360 Z M 230 360 L 231 362 L 235 363 L 236 363 L 230 360 Z M 172 363 L 171 366 L 168 369 L 161 371 L 146 371 L 145 370 L 142 372 Q 140 378 143 380 L 142 382 L 142 384 L 143 395 L 146 401 L 157 409 L 160 409 L 165 413 L 167 421 Q 170 424 176 424 Q 179 421 179 415 L 184 410 L 191 407 L 197 401 L 200 391 L 200 383 L 201 382 Q 203 376 200 375 L 200 371 L 187 371 Q 185 367 184 370 Q 174 370 172 363 Z M 152 366 L 151 367 Q 146 366 147 369 L 150 368 L 154 369 L 152 366 Z M 161 366 Q 160 369 164 368 Q 165 365 161 366 Z M 180 366 L 180 368 L 183 368 L 180 366 Z M 190 367 Q 189 370 192 369 Q 193 366 190 367 Z M 239 373 L 238 375 L 241 379 L 243 380 L 239 373 Z M 235 377 Q 234 386 240 389 L 243 389 L 238 379 L 235 377 Z M 99 380 Q 99 383 96 382 Q 91 384 91 390 Q 89 391 92 392 L 96 390 L 101 391 Q 102 384 99 380 Z M 246 384 L 247 394 L 248 394 Q 249 387 246 384 Z M 231 385 Q 229 391 234 389 L 233 387 Q 234 384 231 385 Z M 249 394 L 248 397 L 241 398 L 239 398 L 238 397 L 229 397 L 228 404 L 228 405 L 231 404 L 243 404 L 244 405 L 245 405 L 245 400 L 249 399 L 249 394 Z M 151 409 L 152 415 L 153 411 Q 154 408 151 409 Z M 229 413 L 225 414 L 224 422 Q 230 420 241 421 L 242 420 L 248 421 L 247 415 L 246 413 L 229 413 Z M 90 415 L 89 416 L 86 416 L 86 422 L 90 421 L 109 421 Q 110 423 111 421 L 110 417 L 108 418 L 106 416 Q 100 418 99 415 L 97 416 L 90 415 Z "></path><path d="M 106 337 Q 109 336 108 339 Q 105 340 106 337 Z "></path><path d="M 225.5 337 L 226.5 339 Q 223.7 339.7 225.5 337 Z "></path><path d="M 236 340 L 238 340.5 L 236 341.5 L 236 340 Z "></path><path d="M 92 341 L 95 341.5 L 92 343 L 92 341 Z "></path><path d="M 286 341 L 288 341.5 L 288 354.5 L 286 355.5 L 287 349.5 L 286 348.5 L 286 341 Z "></path><path d="M 111 342 Q 114 341 113 344 Q 110 345 111 342 Z "></path><path d="M 85.5 343 L 87 343.5 L 84.5 345 L 85.5 343 Z "></path><path d="M 108.5 343 L 109 345 L 107 344.5 L 108.5 343 Z "></path><path d="M 250.5 346 Q 253.5 347.5 250.5 349 Q 247.5 347.5 250.5 346 Z "></path><path d="M 14 347 Q 18.1 345.7 17 349 Q 12.9 350.3 14 347 Z "></path><path d="M 98 347 L 100 347.5 L 98 348.5 L 98 347 Z "></path><path d="M 85.5 351 Q 87.8 350.3 87 352.5 L 86 356.5 L 87 360 L 84 360 L 84 352.5 L 85.5 351 Z "></path><path d="M 290.5 352 L 291 355 Q 288.3 356.1 289 353.5 L 290.5 352 Z "></path><path d="M 59.5 353 L 60 372 Q 55.1 373.8 57 367.5 L 58 366.5 L 58 354.5 L 59.5 353 Z "></path><path d="M 250 354 Q 253 353 252 356 Q 249 357 250 354 Z "></path><path d="M 257.5 354 Q 259.8 353.3 259 355.5 L 257.5 354 Z "></path><path d="M 55.5 355 Q 55 362.6 57 366 L 54.5 367 L 54 356.5 L 55.5 355 Z "></path><path d="M 288.5 361 L 289 363.5 L 288 363.5 L 288.5 361 Z "></path><path d="M 81 362 Q 84.3 360.7 83 365.5 L 83 367.5 Q 84.1 370.8 81.5 370 L 80 366.5 L 81 362 Z "></path><path d="M 304 362 Q 307.3 360.9 306 365 Q 302.7 366.1 304 362 Z "></path><path d="M 37 366 Q 40.3 364.9 39 369 Q 35.7 370.1 37 366 Z "></path><path d="M 237.5 366 L 238 369 Q 235.3 370.1 236 367.5 L 237.5 366 Z "></path><path d="M 85.5 367 L 86.5 369 Q 83.7 369.7 85.5 367 Z "></path><path d="M 304.5 367 L 305 370.5 L 304 370.5 L 304.5 367 Z "></path><path d="M 212.5 368 L 213 370 L 211 369.5 L 212.5 368 Z "></path><path d="M 231 368 Q 233.7 366.9 233 369.5 L 231 370.5 L 231 368 Z "></path><path d="M 107 370 Q 110 369 109 372 Q 106 373 107 370 Z "></path><path d="M 132 370 L 134 370.5 L 132 371.5 L 132 370 Z "></path><path d="M 36 372 L 38 372 L 38 377 L 36 377 L 36 372 Z "></path><path d="M 99.5 372 Q 101.8 371.3 101 373.5 L 99.5 372 Z "></path><path d="M 220 372 L 223 372.5 L 220.5 374 L 220 372 Z "></path><path d="M 170.5 373 L 176 374 L 177 380 Q 183.1 380.3 186 384.5 Q 187.5 393.5 182.5 396 L 177 398 L 177 406.5 L 173.5 410 L 168 409 L 167 399.5 L 165.5 398 L 159 394.5 L 156 390.5 L 156 385.5 L 157 383 L 166 380 L 168.5 374 L 170.5 373 Z M 170 377 L 171 386 L 172 378 L 170 377 Z M 173 382 L 172 385 L 173 385 L 173 382 Z M 161 385 Q 159 388 162 387 L 161 385 Z M 174 388 L 174 389 L 176 389 L 174 388 Z M 172 405 Q 170 408 173 407 L 172 405 Z "></path><path d="M 120.5 374 L 123 374.5 Q 123.7 377.5 120 376 L 120.5 374 Z "></path><path d="M 211.5 374 L 212 376 L 210 375.5 L 211.5 374 Z "></path><path d="M 213.5 376 Q 217.3 375 216 378 L 213.5 376 Z "></path><path d="M 109 377 Q 113.1 375.7 112 379 Q 107.9 380.3 109 377 Z "></path><path d="M 223.5 377 Q 226.1 376.3 225 379 L 222 378.5 L 223.5 377 Z "></path><path d="M 125 378 Q 128 377 127 380 Q 124 381 125 378 Z "></path><path d="M 324 379 L 326 379.5 L 324 380.5 L 324 379 Z "></path><path d="M 220 384 L 223 385.5 Q 221.5 393 224 396.5 Q 222.5 399.5 221 396.5 L 220 384 Z "></path><path d="M 117.5 385 L 121 385.5 L 117.5 386 L 117.5 385 Z "></path><path d="M 129.5 386 L 130 391 Q 126.7 392.3 128 387.5 L 129.5 386 Z "></path><path d="M 215 386 Q 218 385 217 388 Q 214 389 215 386 Z "></path><path d="M 111 387 L 113 387.5 L 111 388.5 L 111 387 Z "></path><path d="M 115 393 L 117 393 L 117 399 L 115 399 L 115 393 Z "></path><path d="M 121.5 393 L 122 402.5 L 121 403.5 L 121 411.5 Q 123.3 412.8 122 417.5 L 120 416.5 L 120 395.5 L 121.5 393 Z "></path><path d="M 207.5 399 L 208.5 401 L 206 400.5 L 207.5 399 Z "></path><path d="M 274.5 400 L 278.5 401 L 282.5 400 L 284.5 403 L 279.5 401 L 278.5 403 L 284 405.5 L 277.5 407 L 276 406.5 Q 275.3 408.8 277.5 408 L 280.5 409 L 283.5 408 L 283.5 409 L 277.5 410 L 275 409 Q 276.3 413.6 273.5 415 L 272 412.5 L 271 404.5 L 274.5 400 Z "></path><path d="M 216 401 L 219 402.5 Q 220.3 407.3 217 406 L 216 401 Z "></path><path d="M 256.5 401 Q 264.5 399.5 267 403.5 Q 267.9 406.5 263.5 405 L 260.5 408 L 259.5 407 L 256.5 406 L 254.5 407 L 256.5 404 L 260 403.5 L 253.5 403 L 251.5 404 L 252.5 402 L 256.5 401 Z "></path><path d="M 129.5 402 L 130 418.5 L 129 419.5 L 129 438.5 L 130 441 L 127 439.5 Q 128.4 430.6 126 425.5 L 127 424.5 L 127 411.5 L 128 409.5 L 127 405.5 L 129.5 402 Z "></path><path d="M 125.5 404 L 126 407.5 L 125 409.5 L 126 411.5 L 125 412.5 L 124 424.5 L 125 427.5 L 124 428.5 L 123.5 441 L 122 436.5 L 123 435.5 L 123 424.5 L 123 422.5 L 123 408.5 L 125.5 404 Z "></path><path d="M 206 407 Q 209 405.8 208 409.5 L 209 410.5 L 209 418.5 L 207.5 426 L 206 424.5 L 206 414.5 L 206 412.5 L 206 407 Z "></path><path d="M 263.5 407 L 264 408.5 Q 262.5 411.5 256.5 410 L 257.5 408 L 261.5 409 L 263.5 407 Z "></path><path d="M 212.5 408 L 213 436 Q 210.3 437.1 211 434.5 L 210 431.5 L 211 426.5 L 210 424.5 L 211 423.5 L 211 409.5 L 212.5 408 Z "></path><path d="M 218.5 408 L 219 411 Q 216.3 412.1 217 409.5 L 218.5 408 Z "></path><path d="M 145 410 Q 148.7 408.8 147 414 Q 143.3 415.2 145 410 Z "></path><path d="M 198.5 410 Q 201.1 409.2 200 412.5 L 198 413.5 L 197 411.5 L 198.5 410 Z "></path><path d="M 324 412 L 326 412.5 L 324 413.5 L 324 412 Z "></path><path d="M 133.5 413 Q 136.8 414.9 135 421 Q 131.7 422.3 133 417.5 L 132 414.5 L 133.5 413 Z "></path><path d="M 156 413 Q 160 411.6 158 418.5 L 156 417.5 L 156 413 Z "></path><path d="M 317.5 413 L 323 413.5 L 317.5 414 L 317.5 413 Z "></path><path d="M 274.5 417 L 275 418.5 Q 273.8 421.3 268.5 420 L 267.5 418 L 271.5 419 L 274.5 417 Z "></path><path d="M 319.5 420 L 324 421 Q 325.1 423.7 322.5 423 L 318 421.5 L 319.5 420 Z "></path><path d="M 267.5 422 L 271.5 424 Q 273 420.5 274.5 423 L 276 423.5 Q 272.5 425 275 426.5 L 273.5 429 Q 268.3 430.3 267 427.5 L 268 425.5 Q 266.8 422.8 265.5 425 L 262.5 426 L 262 424 Q 266.3 425 267.5 422 Z M 270 425 Q 268 428 271 427 L 270 425 Z "></path><path d="M 191.5 428 L 192.5 430 Q 189.7 430.7 191.5 428 Z "></path><path d="M 154.5 438 L 155 440 L 153 439.5 L 154.5 438 Z "></path><path d="M 215.5 441 L 217 441 L 217 445 Q 213.7 443.7 215 448.5 L 215 450.5 Q 215.7 453.1 213 452 L 213 442.5 L 214.5 442 L 215.5 441 Z "></path><path d="M 219 443 L 221 443.5 L 219 444.5 L 219 443 Z "></path><path d="M 119 444 Q 122 443 121 446 Q 118 447 119 444 Z "></path><path d="M 128 446 L 130 446.5 L 128 447.5 L 128 446 Z "></path><path d="M 119 449 Q 122 448 121 451 Q 118 452 119 449 Z "></path><path d="M 175.5 450 L 176 452 L 174 451.5 L 175.5 450 Z "></path><path d="M 323 456 Q 327.5 454.5 326 459 Q 321.5 460.5 323 456 Z "></path><path d="M 178.5 457 Q 180.8 456.3 180 458.5 L 178.5 457 Z "></path><path d="M 315.5 457 L 317.5 457 Q 321.7 455.9 320 460 L 317.5 459 L 316.5 461 Q 312 459 315.5 457 Z "></path><path d="M 330 458 L 332 458.5 L 330 459.5 L 330 458 Z "></path><path d="M 321 461 Q 324.7 459.5 324 462.5 Q 322.5 465.5 321 462.5 L 321 461 Z "></path><path d="M 167 463 L 169 463.5 L 169 470 L 167 469.5 L 167 463 Z "></path><path d="M 312.5 463 L 316 465 Q 317 468 314 467 L 313.5 465 Q 312.3 467.2 311 464.5 L 312.5 463 Z "></path><path d="M 171.5 466 L 172 486.5 Q 169.5 488 171 493.5 Q 173.2 494.8 172 499.5 L 170 500.5 L 169 498.5 L 169 496.5 L 170 467.5 L 171.5 466 Z "></path><path d="M 15.5 469 L 17 469 L 17 473 Q 12.9 474.7 14 470.5 L 15.5 469 Z "></path><path d="M 309.5 469 Q 313.3 468 312 471 L 309.5 469 Z "></path><path d="M 175.5 470 Q 178.5 469.1 177 473.5 L 175 478.5 L 175 493.5 L 176 496.5 L 175 499.5 Q 176.3 504.3 173 503 L 173 477.5 Q 175.3 476.3 174 471.5 L 175.5 470 Z "></path><path d="M 20 471 Q 24.1 469.7 23 473 Q 18.9 474.3 20 471 Z "></path><path d="M 17.5 474 L 21 475 Q 22.1 478.3 18 477 L 17.5 474 Z "></path><path d="M 25 474 Q 29.5 472.5 28 477 Q 23.5 478.5 25 474 Z "></path><path d="M 312 478 Q 315 477 314 480 Q 311 481 312 478 Z "></path><path d="M 13.5 479 L 17 479.5 L 14 481.5 L 13.5 479 Z "></path><path d="M 11.5 484 L 13 486.5 Q 11.5 489.5 10 486.5 L 11.5 484 Z "></path><path d="M 21 484 L 24 485.5 Q 24.8 487.8 22.5 487 L 21 484 Z "></path><path d="M 26.5 484 Q 29.1 483.2 28 486.5 Q 26.5 489.5 25 486.5 L 26.5 484 Z "></path><path d="M 273.5 488 L 277 489.5 L 275.5 490 L 273.5 488 Z "></path><path d="M 325 488 L 329 489.5 Q 329.8 492.1 326.5 491 L 325 488 Z "></path><path d="M 12 489 Q 15 487.8 14 491.5 L 12 491.5 Q 12.8 493.8 10.5 493 Q 7.5 491.5 10.5 490 L 12 490.5 L 12 489 Z "></path><path d="M 268.5 490 L 271 491.5 L 268 492 L 268.5 490 Z "></path><path d="M 19.5 491 L 20 494 Q 17.3 495.1 18 492.5 L 19.5 491 Z "></path><path d="M 272.5 491 L 283 493.5 L 278.5 495 L 273.5 493 L 272.5 491 Z "></path><path d="M 248.5 492 L 250.5 495 L 248 493.5 L 248.5 492 Z "></path><path d="M 254.5 492 L 255 493.5 L 253 494.5 L 254.5 492 Z "></path><path d="M 332.5 494 L 333 497 Q 330.3 498.1 331 495.5 L 332.5 494 Z "></path><path d="M 300.5 495 L 301 497 L 299 496.5 L 300.5 495 Z "></path><path d="M 26.5 496 Q 29.1 495.3 28 498 L 25.5 499 L 25 497.5 L 26.5 496 Z "></path><path d="M 313 497 Q 316 496 315 499 Q 312 500 313 497 Z "></path><path d="M 176 501 L 179 501.5 L 176 503 L 176 501 Z "></path><path d="M 328 501 Q 331 500 330 503 Q 327 504 328 501 Z "></path><path d="M 19.5 502 L 21.5 502 Q 24.8 500.9 24 503.5 L 21.5 507 L 21.5 505 L 19.5 506 L 18 503.5 L 19.5 502 Z "></path><path d="M 27.5 502 Q 29.8 501.3 29 503.5 Q 27.5 506.5 26 503.5 L 27.5 502 Z "></path><path d="M 177 512 Q 179.7 510.9 179 513.5 L 177 514.5 L 177 512 Z "></path><path d="M 165.5 514 Q 169.7 512.9 168 517 Q 165.3 518.1 166 515.5 L 165.5 514 Z "></path><path d="M 170 514 Q 173 513 172 516 Q 169 517 170 514 Z "></path><path d="M 182 515 Q 185 514 184 517 Q 181 518 182 515 Z "></path><path d="M 158 519 L 161.5 520 L 165 519 Q 166.3 522.3 161.5 521 L 159.5 521 Q 156.9 521.7 158 519 Z "></path><path d="M 169.5 521 Q 173.3 520 172 523 L 169.5 521 Z "></path><path d="M 160.5 524 Q 163.5 523.2 162 527 Q 158.3 528.5 159 525.5 L 160.5 524 Z "></path><path d="M 180 524 L 183 525.5 L 180 527 L 180 524 Z "></path><path d="M 184 526 Q 187 525 186 528 Q 183 529 184 526 Z "></path><path d="M 165 528 L 168 529.5 Q 168.7 532.5 165 531 L 165 528 Z "></path><path d="M 170.5 528 L 171 530.5 L 169 531.5 L 170.5 528 Z "></path><path d="M 176.5 531 L 177 533 L 175 532.5 L 176.5 531 Z "></path><path d="M 282 532 L 285 533.5 L 282 534 L 282 532 Z "></path><path d="M 226 536 L 229.5 537 L 231 536.5 L 229.5 540 L 226 539 L 226 536 Z "></path><path d="M 171 537 L 175 538 L 172.5 542 L 171 542 L 171 537 Z "></path><path d="M 233 537 L 236 538.5 L 233 540 L 233 537 Z "></path><path d="M 166 538 L 169 539.5 L 166 541.5 L 166 538 Z "></path><path d="M 223.5 538 L 224.5 540 L 223.5 538 Z "></path><path d="M 241 538 Q 244 537 243 540 Q 240 541 241 538 Z "></path><path d="M 162 539 L 165 540.5 Q 165.8 542.8 163.5 542 L 162 539 Z "></path><path d="M 157 540 Q 160 539 159 542 Q 156 543 157 540 Z "></path><path d="M 177.5 540 Q 181.3 539 180 542 L 175 543 Q 173.9 540.3 176.5 541 L 177.5 540 Z "></path><path d="M 248.5 540 L 249.5 542 L 247 541.5 L 248.5 540 Z "></path><path d="M 235 541 Q 239.1 539.7 238 543 Q 233.9 544.3 235 541 Z "></path><path d="M 120 542 Q 123 541 122 544 Q 119 545 120 542 Z "></path><path d="M 224.5 542 L 225 544 L 223 543.5 L 224.5 542 Z "></path><path d="M 340.5 549 L 341 551.5 L 340 551.5 L 340.5 549 Z "></path><path d="M 28.5 555 L 29.5 556 L 49.5 556 L 51 557.5 L 50 563 L 46 560.5 Q 47.4 555.9 41.5 558 L 40 559.5 L 40 579 Q 43 578 42 581 L 35.5 582 L 31 580.5 L 33 578.5 L 34 565.5 Q 31.8 564.3 33 559.5 L 31.5 558 L 26.5 562 L 23 562 L 23 556 L 27.5 556 L 28.5 555 Z "></path><path d="M 54.5 555 L 62 555 L 62 558.5 Q 59.7 559.8 61 564.5 L 62.5 566 L 71 566 Q 72 559.1 70 556 L 79 556.5 L 77 559.5 L 78 560.5 L 78 577.5 L 79 580 L 75.5 581 L 72.5 580 L 70 581 Q 69 578 72 579 L 72 576.5 L 71 575.5 L 71 568 L 67.5 569 L 64.5 568 L 61 569 L 61 577.5 L 62.5 579 Q 65.1 578.3 64 581 L 53.5 581 L 53 579.5 L 55 573.5 L 55 568.5 L 55 566.5 L 53 556.5 L 54.5 555 Z "></path><path d="M 85.5 555 Q 89.3 557.7 97.5 556 L 99 557.5 L 97.5 560 Q 94.4 556.4 87 558 L 87 564.5 L 88.5 565 Q 89.8 567.3 91 564.5 L 91 563 L 95 563 L 95 570.5 L 93.5 572 L 91 568 L 87.5 567 L 87 578.5 L 88.5 578 Q 94 576.5 95.5 579 L 99.5 574 Q 102.8 572.9 102 575.5 L 98.5 581 L 93.5 580 Q 92 582.5 86.5 581 L 81.5 580 L 80 580.5 L 82 567.5 L 81 565.5 L 82 564.5 L 82 557 L 80 556.5 L 85.5 555 Z "></path><path d="M 179.5 555 L 183.5 556 L 185.5 555 L 187 558.5 L 185 561.5 L 185 576.5 L 186 580 L 178 580 L 178 577.5 L 179 573.5 L 179 571.5 L 176.5 567 L 168 567 L 168 577.5 L 169 580 L 160 579.5 L 162 579 L 162 559.5 L 161 557 L 159 556.5 L 169.5 556 L 168 558.5 L 169 562.5 L 168 565 L 176.5 566 Q 179.7 563.3 179 558 Q 176 559 177 556 L 179.5 555 Z "></path><path d="M 223.5 555 L 225.5 556 L 226.5 555 L 234.5 555 Q 239.2 556.3 238 563.5 L 234 566 Q 233 573 237.5 576 L 240 577.5 Q 241.1 580.8 238.5 580 L 234.5 579 L 232 576.5 L 227.5 568 Q 222.3 566.3 224 571.5 L 224 573.5 L 224 577.5 L 226 578 L 226 580.5 L 224.5 580 Q 214.8 583.3 218 573.5 L 219 571.5 L 218 569.5 L 219 568.5 L 219 558 L 216 556.5 L 223.5 555 Z M 226 557 Q 222 559 224 565 Q 226 568 232 566 Q 234 564 233 559 Q 231 556 226 557 Z "></path><path d="M 244.5 555 L 248.5 556 L 250.5 555 L 252.5 555 Q 254.8 554.3 254 556.5 L 252 558.5 L 252 577.5 L 256 579.5 L 245 580 Q 248.7 576.6 247 566.5 L 246 565.5 L 246 557 L 243 556.5 L 244.5 555 Z "></path><path d="M 267.5 555 L 271.5 556 L 273.5 555 L 279 558.5 Q 283.3 561.7 282 570.5 L 275.5 579 L 269.5 580 L 264.5 579 L 260 575.5 Q 257.3 572.2 258 565.5 L 263.5 557 L 267.5 555 Z M 270 557 L 268 558 L 264 563 L 264 575 L 269 578 L 275 577 L 277 575 L 277 562 Q 275 557 270 557 Z "></path><path d="M 288.5 555 L 307.5 555 L 310 556 Q 311 559.8 308.5 561 Q 305.5 561.7 307 558 L 301 558 L 301 577.5 L 303.5 578 L 302.5 580 Q 301 577.5 295.5 579 L 290.5 580 L 291.5 578 L 294 578 L 294 572.5 L 295 568.5 L 294 567.5 L 294 558 L 290 558 L 290 559.5 L 286 561 L 286 556 L 287.5 556 L 288.5 555 Z "></path><path d="M 143.5 556 Q 152.2 554.3 155 558.5 L 153 563 L 149 563 L 149 558 L 145.5 558 L 142 560 L 139 565.5 L 139 568.5 L 143.5 576 L 150.5 578 L 156 576 Q 157.1 578.7 154.5 578 L 149.5 580 L 147.5 580 L 139.5 579 L 135 575.5 Q 132 572.5 133 565.5 L 138.5 558 L 143.5 556 Z "></path><path d="M 195 556 L 208.5 556 L 209.5 557 Q 210.8 554.8 212 557.5 L 212 573.5 L 213 574.5 L 212 576.5 L 214 579.5 Q 212.8 582.3 211.5 580 L 207.5 581 L 205 579.5 L 207 577.5 L 207 567.5 L 205.5 568 L 198.5 568 L 198 569.5 Q 195 572.8 196 579 L 198 579.5 L 190.5 580 L 193 576.5 L 198 558 Q 193.9 559.3 195 556 Z M 202 559 L 200 566 L 203 566 Q 206 567 207 565 L 206 563 L 207 561 Q 206 558 202 559 Z "></path><path d="M 312.5 574 Q 317 573 318 575.5 L 316.5 579 L 314.5 579 L 311 576.5 L 312.5 574 Z "></path><path d="M 339 589 L 341 589.5 L 339 590.5 L 339 589 Z "></path><path d="M 344.5 589 L 345 591.5 L 343 590.5 L 344.5 589 Z "></path></svg>