<svg width="350" height="600" version="1.1" xmlns="http://www.w3.org/2000/svg" desc="Created with imagetracer.js version 1.2.5"><path d="M 283.5 4 L 294.5 5 L 297.5 4 Q 303 2.5 304.5 5 L 307.5 4 L 308.5 5 L 318.5 5 L 320.5 5 Q 330.1 3.6 334 6 L 334 93.5 L 335 94.5 L 335 102.5 L 334 104.5 L 335 108.5 L 334 109.5 L 334 127.5 L 335 128.5 L 335 298.5 L 336 299.5 L 335 300.5 L 335 400.5 L 336 403.5 L 335 404.5 L 335 423.5 Q 337.8 425.3 336 431.5 L 335 432.5 L 335 452.5 L 336 456.5 L 335 461.5 L 336 462.5 L 336 483.5 L 336 485.5 L 336 494.5 L 335 495.5 L 335 587.5 L 336 590.5 L 334.5 592 L 297.5 592 L 295.5 593 L 293.5 592 L 292.5 593 L 257.5 593 L 256.5 594 L 255.5 593 L 240.5 593 L 238.5 594 L 236.5 594 L 228.5 593 L 226.5 594 L 224.5 593 L 223.5 594 L 205.5 594 L 202.5 593 L 201.5 594 L 188.5 594 Q 187.3 591.8 182.5 593 L 180.5 593 L 166.5 594 L 162.5 593 L 161.5 594 L 91.5 594 L 89.5 595 L 86.5 594 L 84.5 594 L 82.5 595 L 64.5 595 Q 63 592.5 57.5 594 L 56.5 595 L 26.5 595 L 24.5 595 L 7.5 595 L 7 594.5 L 7 529.5 L 6 526.5 L 7 525.5 L 7 480.5 L 7 478.5 L 8 473.5 L 7 472.5 L 7 459.5 L 6 458.5 L 6 387.5 L 7 386.5 L 7 356.5 L 6 355.5 L 6 338.5 L 7 337.5 L 7 247.5 L 8 246.5 L 8 232.5 L 7 231.5 L 7 196.5 Q 9.8 194.8 8 188.5 L 7 187.5 L 7 166.5 L 8 165.5 L 9 145.5 L 7 138.5 L 7 115.5 L 8 114.5 L 8 79.5 L 7 78.5 L 7 65.5 L 8 64.5 L 8 44.5 L 7 43.5 L 7 35.5 L 8 34.5 L 8 15.5 L 9 14.5 L 9 6 L 32.5 5 L 35.5 7 L 36.5 6 L 65.5 6 Q 66.8 8.3 71.5 7 L 74.5 6 L 75.5 7 L 118.5 7 L 119.5 6 L 133.5 6 L 134.5 5 Q 135.7 7.3 140.5 6 L 142.5 5 L 143.5 6 L 190.5 6 L 191.5 7 L 192.5 6 L 255.5 5 L 257.5 5 L 260.5 6 L 262.5 6 L 264.5 5 L 282.5 5 L 283.5 4 Z M 289 7 L 279 9 L 249 9 L 248 8 L 243 9 L 202 9 L 201 10 L 196 9 L 186 10 L 184 10 L 173 10 L 162 8 Q 156 11 147 10 L 144 9 L 132 9 L 130 10 L 128 10 L 42 10 L 41 9 L 37 10 Q 33 8 26 9 L 25 8 L 21 10 L 19 9 L 14 10 Q 12 8 11 11 L 12 13 L 11 14 L 11 63 L 10 65 L 10 67 Q 9 71 11 73 L 11 116 L 10 117 L 10 145 L 11 146 L 11 166 L 10 167 L 10 184 L 11 185 L 11 196 L 10 197 L 11 199 L 10 201 L 10 224 L 11 225 L 10 228 L 11 230 L 11 244 L 11 246 L 10 251 L 11 253 L 10 255 L 10 277 L 10 279 L 11 288 L 11 290 L 10 291 L 10 316 L 10 318 L 11 321 Q 13 327 10 329 L 10 391 L 10 393 L 10 404 L 9 405 L 10 419 L 14 417 L 17 414 Q 20 403 27 396 Q 29 397 28 393 L 32 390 Q 39 389 42 392 Q 44 391 43 394 L 47 395 L 54 406 L 56 412 L 61 413 L 66 420 L 76 422 L 81 420 L 82 418 L 86 422 L 91 423 L 96 421 L 103 423 L 104 421 Q 105 414 103 412 Q 100 411 99 414 Q 96 415 97 412 L 100 411 L 100 408 L 99 410 L 97 411 L 94 410 L 98 407 L 95 406 L 97 403 L 96 402 L 94 399 L 97 397 L 98 398 L 98 395 L 92 397 L 88 393 L 89 389 L 91 392 L 94 390 Q 98 391 97 389 Q 96 386 95 388 L 92 387 L 90 388 L 91 383 L 95 381 Q 96 384 93 383 L 93 386 L 96 385 L 95 380 L 97 372 Q 94 371 95 374 L 93 375 Q 91 378 89 374 L 92 365 Q 93 362 97 363 L 103 354 L 104 349 Q 99 350 98 347 Q 99 344 97 345 L 91 338 L 88 332 L 88 329 L 84 323 L 84 315 L 81 316 L 78 310 L 82 303 L 83 290 L 86 285 L 85 283 L 86 276 L 84 274 L 82 273 Q 83 268 81 267 L 82 263 L 81 263 L 78 262 L 77 257 L 80 249 L 84 245 L 83 242 L 81 243 L 78 239 Q 79 231 83 227 L 83 217 L 87 214 L 86 225 L 81 236 L 82 239 L 82 240 L 86 240 L 87 243 L 85 247 Q 86 249 84 248 L 80 256 L 80 258 Q 79 260 82 259 L 83 255 Q 86 254 85 258 L 85 260 L 84 265 Q 83 268 86 267 L 87 264 L 94 258 L 96 259 Q 100 258 99 261 L 95 264 Q 94 267 100 265 L 101 268 L 89 272 L 90 276 L 87 280 L 88 282 L 85 297 L 85 299 L 86 300 L 92 300 L 92 302 Q 87 301 85 304 Q 82 303 83 306 L 89 304 L 91 307 L 91 305 L 97 299 L 100 301 L 103 300 L 105 289 L 108 285 L 108 282 L 105 281 L 106 278 Q 110 275 106 273 L 104 274 Q 97 275 96 273 L 98 270 L 102 272 L 104 271 L 110 272 L 113 279 Q 112 281 111 279 L 109 280 L 113 284 L 113 282 L 117 280 L 118 278 L 118 275 L 116 276 L 116 275 Q 117 268 114 266 Q 111 267 112 265 L 116 262 L 119 269 L 121 266 L 120 262 L 116 261 L 117 258 Q 118 253 123 254 L 125 251 L 122 252 L 107 245 L 101 240 L 98 230 Q 95 222 89 218 L 88 213 Q 91 212 90 215 L 92 216 L 90 211 L 92 208 L 94 213 L 96 212 L 94 206 L 96 203 Q 97 198 95 197 L 97 197 L 99 197 L 97 192 Q 96 188 91 189 L 91 191 L 87 200 L 88 210 L 85 211 L 83 204 L 84 197 L 88 187 L 86 186 L 82 188 Q 76 190 77 186 L 69 184 L 70 188 L 64 187 L 64 184 L 62 185 Q 60 183 59 186 Q 56 185 57 181 Q 60 180 59 184 L 60 184 L 60 180 L 55 180 L 53 176 L 54 173 L 52 171 L 51 170 L 47 174 L 45 173 L 46 170 L 42 168 L 40 161 L 46 163 Q 48 162 47 165 L 50 163 L 51 165 L 50 169 L 52 169 L 55 163 L 57 164 L 58 161 L 57 161 Q 54 162 55 159 L 54 159 Q 51 160 52 156 L 60 159 L 61 164 L 59 165 L 64 172 Q 63 174 66 173 L 67 169 Q 63 170 62 167 Q 61 162 64 161 L 62 159 L 60 157 L 59 157 L 49 150 L 44 151 L 41 148 Q 40 144 44 146 L 43 144 Q 41 138 46 139 L 48 144 L 51 142 L 52 144 Q 53 148 50 150 L 57 153 L 59 152 L 58 147 L 64 149 L 64 148 L 65 146 Q 62 147 63 144 L 67 145 Q 69 144 67 143 Q 66 139 70 140 L 72 145 L 72 144 Q 75 142 73 141 L 73 139 L 69 139 L 72 129 L 74 133 L 80 135 Q 82 134 81 130 L 84 132 Q 83 134 87 133 L 86 131 Q 85 126 90 125 L 91 128 L 93 124 L 93 119 L 91 120 L 88 116 L 92 115 L 90 112 L 92 109 Q 91 106 94 107 L 96 112 L 94 116 L 97 114 Q 101 113 99 118 L 97 119 L 98 117 L 96 116 L 95 123 L 90 133 L 91 134 L 93 133 L 94 130 L 97 132 L 98 129 Q 96 124 100 125 L 101 129 L 104 130 L 103 134 L 104 136 L 106 130 Q 107 125 102 127 Q 100 122 104 123 L 105 125 Q 104 118 108 115 L 109 118 L 108 122 Q 107 124 111 123 L 111 126 L 108 127 Q 106 131 110 130 L 111 134 L 113 133 L 114 133 L 114 129 L 117 131 L 115 131 L 116 134 L 115 137 L 117 136 Q 122 134 120 140 L 122 139 L 124 140 L 126 139 L 126 143 L 122 144 L 125 153 L 128 154 L 129 161 L 143 158 L 156 158 L 164 162 L 168 168 L 172 170 L 175 176 Q 174 178 177 177 L 182 189 L 187 194 Q 189 193 188 196 L 190 196 L 193 203 L 195 202 Q 199 201 197 205 L 194 206 L 196 208 L 202 204 L 203 215 L 206 218 Q 207 222 203 223 Q 209 223 211 228 Q 212 233 208 234 L 209 236 L 211 235 L 212 235 L 212 239 Q 215 240 214 237 L 218 238 Q 220 237 219 242 L 220 243 L 219 245 L 221 244 L 221 246 L 219 247 L 227 260 L 231 272 Q 230 276 233 275 L 239 301 L 240 336 L 240 337 L 244 335 L 250 323 Q 260 316 275 312 L 277 313 L 287 311 L 289 311 L 303 315 L 314 322 L 319 332 Q 319 341 322 348 L 322 354 L 322 356 L 322 362 L 319 374 L 320 391 Q 322 392 321 397 L 323 400 L 329 404 L 332 407 L 332 288 L 331 287 L 332 282 L 331 278 L 332 275 L 331 273 L 332 270 Q 333 265 331 264 L 332 262 L 332 155 L 331 154 Q 330 149 332 148 L 332 121 L 331 120 L 332 118 L 331 114 L 332 109 L 331 105 L 332 103 L 332 94 L 331 93 L 331 8 L 330 8 L 311 8 L 310 7 L 303 8 L 301 8 L 299 7 Q 294 6 293 8 L 289 7 Z M 92 116 L 90 118 L 92 118 L 92 116 Z M 96 133 L 96 135 L 100 134 L 96 133 Z M 95 134 L 91 136 L 93 140 L 95 139 L 95 134 Z M 114 134 L 112 136 L 114 136 L 114 134 Z M 73 135 Q 71 138 74 137 L 75 140 L 76 138 Q 77 134 75 135 L 73 135 Z M 81 136 L 79 138 L 81 138 L 81 136 Z M 109 136 L 108 140 L 109 140 L 109 136 Z M 102 138 L 101 142 L 102 142 L 102 138 Z M 106 138 L 105 141 L 107 141 L 106 138 Z M 80 139 L 81 142 L 82 140 L 80 139 Z M 96 140 L 95 145 L 92 146 L 90 145 L 93 141 L 89 144 Q 85 143 86 146 L 86 147 Q 88 146 87 150 L 91 147 L 94 148 L 90 151 L 91 152 L 94 150 L 96 145 Q 100 142 96 140 Z M 120 140 L 116 142 L 118 142 Q 119 144 120 142 L 120 140 Z M 100 141 L 99 146 L 100 146 L 100 141 Z M 121 141 L 122 144 L 124 143 Q 125 140 121 141 Z M 77 142 L 75 144 L 77 144 L 77 142 Z M 83 142 L 82 143 Q 78 142 79 145 L 83 144 L 83 142 Z M 108 142 Q 107 145 110 144 Q 111 149 107 151 L 110 152 Q 112 151 111 147 L 113 147 L 111 144 L 108 142 Z M 115 143 L 116 149 Q 117 153 115 155 L 117 156 L 114 158 L 118 158 L 119 156 Q 120 152 117 153 L 117 146 L 115 143 Z M 107 144 L 107 146 L 103 151 Q 102 153 105 152 L 108 147 Q 109 143 107 144 Z M 49 145 L 49 147 L 51 146 L 49 145 Z M 80 146 L 78 148 Q 77 151 80 150 L 81 151 Q 82 148 80 149 L 80 148 L 80 146 Z M 99 146 L 97 149 L 99 148 L 99 146 Z M 44 147 L 46 149 Q 47 146 44 147 Z M 68 147 L 68 149 L 70 148 L 68 147 Z M 76 147 L 74 149 L 76 150 L 76 147 Z M 102 148 L 99 151 L 102 151 L 102 148 Z M 120 148 L 118 150 L 120 151 L 120 148 Z M 64 150 L 66 153 L 66 151 L 68 151 L 64 150 Z M 85 150 L 87 160 L 90 158 L 89 157 Q 86 156 87 153 L 87 151 L 85 150 Z M 94 152 L 92 153 L 90 157 L 94 154 L 94 152 Z M 101 152 Q 100 155 103 154 Q 104 151 101 152 Z M 123 152 L 121 153 L 121 155 L 120 159 L 117 161 L 120 161 L 123 155 L 123 152 Z M 68 153 L 70 155 L 71 155 L 68 153 Z M 82 154 L 81 158 L 83 162 L 80 160 L 78 161 L 82 165 L 84 164 Q 87 164 86 160 L 82 157 L 82 154 Z M 96 154 L 83 167 L 75 171 L 76 173 Q 78 172 77 175 L 71 172 L 70 174 L 77 178 L 83 175 L 90 178 L 95 185 L 97 184 L 97 186 Q 93 187 94 185 L 89 181 Q 90 183 87 182 L 85 182 L 84 184 L 90 187 L 97 188 L 100 181 L 101 182 L 100 184 L 100 185 L 105 182 Q 104 179 107 180 L 104 185 Q 105 187 103 186 L 103 187 Q 105 186 104 189 L 101 191 L 106 192 L 111 186 L 111 177 L 114 174 L 115 175 L 114 176 L 113 188 L 107 193 L 102 193 L 100 193 L 102 201 L 106 202 L 107 205 L 119 204 Q 123 208 124 217 L 125 217 L 122 205 L 125 203 L 128 216 L 135 227 L 134 229 L 136 236 L 143 242 L 145 242 Q 149 244 146 246 L 148 246 Q 148 241 152 239 L 154 240 Q 156 241 155 239 L 158 237 L 161 233 Q 164 232 162 238 L 164 237 L 163 233 Q 164 229 162 230 L 159 226 Q 160 223 157 224 L 151 215 L 149 202 L 148 202 Q 149 206 147 205 L 141 195 L 140 187 L 139 187 L 140 200 L 142 204 Q 144 209 141 208 L 138 204 L 137 193 L 136 190 L 134 195 L 135 207 L 139 216 Q 141 217 139 218 L 134 213 L 131 199 L 129 199 L 130 195 L 130 192 L 129 194 L 127 194 L 128 193 L 129 177 L 135 167 L 135 163 L 132 162 Q 127 161 126 163 Q 122 162 123 165 L 128 164 L 127 166 L 116 164 L 115 163 L 111 167 L 109 166 L 111 165 L 111 160 L 110 162 L 108 160 L 101 155 L 97 157 L 96 154 Z M 109 154 L 108 157 L 110 157 L 109 154 Z M 66 155 L 65 158 L 66 158 L 66 155 Z M 76 155 L 75 158 L 76 158 L 76 155 Z M 124 155 L 123 159 L 125 162 Q 128 161 127 157 L 124 155 Z M 72 160 L 71 165 L 72 165 L 72 160 Z M 145 160 Q 143 163 139 162 L 134 170 L 135 172 L 139 167 L 138 169 L 139 173 L 139 170 L 142 168 L 140 176 L 144 194 L 146 198 L 147 198 L 145 192 Q 143 183 146 180 L 149 178 L 148 180 L 148 193 L 151 198 L 154 215 L 155 215 L 154 203 L 153 202 L 155 184 L 160 176 Q 161 172 165 173 Q 166 176 162 175 L 158 183 L 156 193 L 158 214 Q 163 219 163 228 L 167 231 Q 165 236 169 235 L 171 235 Q 173 236 172 233 L 175 233 L 177 228 L 176 227 L 176 226 L 174 216 L 168 200 L 167 211 L 166 212 L 168 213 L 167 215 L 166 214 L 165 214 Q 165 205 162 199 Q 160 188 165 185 Q 166 181 171 182 L 173 186 Q 174 191 172 192 L 169 191 Q 170 188 167 189 Q 164 190 165 194 L 170 193 L 170 200 L 178 219 Q 180 225 177 227 L 178 232 L 170 238 Q 164 236 165 241 L 165 243 L 166 244 L 171 242 L 171 247 L 174 253 Q 176 254 174 255 L 168 251 L 165 251 Q 164 254 167 253 L 166 256 L 163 255 L 155 284 L 163 285 Q 166 287 163 288 L 158 287 L 156 287 L 149 286 Q 150 280 155 277 Q 155 270 158 266 L 158 264 L 154 266 Q 154 271 151 273 Q 152 275 149 274 L 147 282 L 148 288 L 150 287 L 152 289 Q 157 288 159 290 L 163 289 L 165 293 Q 164 295 167 294 Q 170 295 170 300 Q 173 299 172 294 L 166 289 L 167 287 Q 168 284 165 285 L 167 282 L 172 285 L 180 268 L 185 251 L 191 242 L 191 236 L 189 235 Q 190 237 187 236 L 180 227 L 180 225 L 182 221 L 181 219 L 178 217 L 175 207 L 174 196 L 177 194 Q 179 197 178 205 Q 181 208 181 215 L 184 217 L 184 216 L 187 214 L 189 222 L 194 225 L 194 217 L 192 216 L 192 210 L 189 201 L 181 192 L 170 175 Q 171 171 169 172 L 165 168 Q 161 162 154 160 L 149 161 L 145 160 Z M 65 161 L 64 166 L 67 167 L 68 168 Q 69 165 67 166 L 65 161 Z M 67 161 L 67 165 L 70 166 L 69 164 Q 70 160 67 161 Z M 43 164 L 45 167 Q 47 168 46 166 L 43 164 Z M 79 165 L 76 166 L 77 168 L 79 167 L 79 165 Z M 71 167 L 70 169 L 72 170 L 71 167 Z M 57 170 Q 56 173 60 172 L 59 175 L 61 175 L 62 173 L 62 170 L 60 171 L 57 170 Z M 135 173 L 134 180 L 135 180 L 135 173 Z M 67 174 L 65 176 L 66 181 L 67 181 L 67 174 Z M 64 176 L 62 178 L 64 178 L 64 176 Z M 84 177 L 79 180 L 82 181 L 82 179 L 84 179 Q 83 182 86 181 L 87 178 L 84 177 Z M 70 179 L 69 181 L 72 183 L 70 179 Z M 132 179 L 131 188 L 131 189 Q 134 188 132 194 L 133 194 Q 134 184 132 179 Z M 67 182 L 66 186 L 68 186 L 67 182 Z M 139 182 L 138 186 L 139 186 L 139 182 Z M 100 188 L 101 190 Q 102 187 100 188 Z M 167 196 L 166 200 L 167 200 L 167 196 Z M 101 201 L 100 205 L 102 211 L 101 214 Q 103 215 102 220 L 104 223 Q 106 229 102 231 Q 102 238 107 241 L 108 241 Q 104 240 105 235 L 107 235 Q 109 234 108 237 Q 112 244 122 245 L 121 248 L 123 248 L 124 246 L 120 243 L 121 240 L 131 242 L 131 241 L 134 239 L 139 246 Q 138 249 141 248 L 142 245 L 140 243 L 131 233 L 132 229 Q 133 225 130 226 L 126 218 L 125 218 L 127 225 L 129 227 Q 130 229 127 228 L 121 219 L 121 215 Q 117 213 118 207 L 119 205 L 112 208 L 113 212 L 114 212 Q 113 206 117 208 L 120 219 Q 121 222 117 220 L 115 213 L 114 213 L 115 218 L 114 220 L 109 208 L 111 208 L 106 206 L 109 219 L 109 223 L 106 220 L 102 207 L 102 203 L 101 201 Z M 197 208 L 197 212 L 199 211 Q 200 207 197 208 Z M 99 217 L 98 221 L 99 221 L 99 217 Z M 197 218 L 197 222 L 203 224 L 202 222 Q 198 223 199 221 L 199 219 L 197 218 Z M 100 221 L 99 224 L 101 224 L 100 221 Z M 183 221 L 185 229 Q 188 234 191 228 L 193 229 L 194 227 L 193 227 Q 187 227 185 223 Q 186 220 183 221 Z M 197 227 L 197 229 L 199 230 Q 200 226 197 227 Z M 195 234 L 194 237 L 195 237 L 195 234 Z M 203 235 L 199 239 L 201 241 L 204 239 Q 206 240 205 236 L 203 235 Z M 160 239 L 156 241 L 159 247 L 160 245 L 160 243 L 160 239 Z M 126 242 Q 125 245 128 244 Q 129 241 126 242 Z M 152 243 L 151 249 L 155 248 L 152 243 Z M 197 243 L 195 245 L 196 247 L 199 248 L 198 245 Q 199 242 197 243 Z M 135 244 Q 133 248 136 250 L 133 254 L 131 253 L 130 256 L 133 255 L 135 256 L 136 256 L 136 252 L 139 253 L 140 253 L 135 244 Z M 128 246 L 127 247 Q 124 246 125 249 L 131 249 L 131 247 L 128 246 Z M 166 246 L 164 248 Q 163 250 166 249 Q 169 248 166 246 Z M 144 247 Q 142 250 146 252 L 146 248 L 144 247 Z M 193 248 L 191 251 L 193 250 L 193 248 Z M 201 248 L 202 251 L 203 249 L 201 248 Z M 206 249 L 204 251 Q 203 253 206 252 L 209 258 L 208 261 L 212 265 L 213 269 L 213 293 L 212 294 L 212 296 Q 209 295 210 298 L 215 302 Q 216 307 214 309 L 211 308 L 210 311 L 212 311 L 210 321 L 212 326 L 208 340 L 205 341 Q 204 338 207 337 L 208 328 L 210 326 L 208 324 L 204 338 Q 202 343 206 342 L 208 342 L 209 346 L 216 319 L 216 277 L 212 260 L 208 251 L 206 249 Z M 217 249 L 216 252 L 222 262 L 227 280 L 230 297 L 230 309 L 231 310 L 229 341 L 226 342 L 226 336 L 227 335 L 227 317 L 228 316 Q 226 308 227 297 L 226 295 L 224 307 L 224 309 L 224 320 L 225 321 L 224 322 L 224 338 L 222 340 Q 223 343 220 342 L 222 348 L 222 344 L 236 340 L 237 337 L 237 328 L 236 327 Q 233 326 235 325 L 234 324 L 234 307 L 233 306 L 232 290 L 229 283 L 229 278 L 226 267 L 217 249 Z M 152 251 Q 149 253 152 254 L 152 252 L 155 252 L 152 251 Z M 195 251 L 195 254 L 197 253 Q 198 250 195 251 Z M 160 252 Q 157 257 161 256 L 160 252 Z M 143 254 L 143 255 L 146 255 L 143 254 Z M 148 255 L 148 257 Q 150 260 151 257 L 148 255 Z M 154 255 L 155 257 L 156 257 L 154 255 Z M 215 255 L 219 274 L 220 295 L 220 297 L 219 301 L 220 304 L 219 312 L 219 314 L 216 332 L 211 346 L 213 346 L 215 346 L 218 345 Q 217 340 221 339 L 221 329 L 222 328 L 221 326 L 222 323 L 221 321 L 222 317 L 222 298 L 223 294 L 226 293 L 224 278 L 215 255 Z M 121 256 L 119 258 Q 118 260 122 259 Q 123 255 121 256 Z M 189 256 L 186 262 L 189 260 L 189 256 Z M 192 256 L 191 260 L 192 261 L 195 259 L 196 260 Q 198 254 192 256 Z M 202 256 Q 200 259 203 260 L 204 260 L 202 256 Z M 137 257 L 134 260 L 135 262 L 140 259 Q 141 256 137 257 Z M 131 259 L 129 262 L 131 262 L 131 259 Z M 145 259 L 141 263 Q 143 266 144 263 Q 143 260 146 261 Q 147 258 145 259 Z M 93 261 L 88 267 L 94 262 L 93 261 Z M 148 261 L 146 265 L 148 264 L 148 261 Z M 155 261 L 154 264 L 155 264 L 155 261 Z M 194 261 L 192 263 Q 191 267 195 265 L 194 261 Z M 204 263 L 204 264 Q 206 263 205 266 Q 208 267 207 265 L 204 263 Z M 150 264 L 146 269 Q 145 273 148 275 L 150 271 L 151 268 L 150 264 Z M 201 264 L 197 275 L 199 275 L 200 273 L 200 271 L 201 267 Q 203 265 201 264 Z M 137 265 L 135 267 Q 136 269 133 268 L 132 271 Q 131 274 134 275 L 137 274 L 139 271 L 137 265 Z M 127 266 Q 126 269 129 268 Q 130 265 127 266 Z M 189 266 Q 186 268 189 269 Q 192 268 190 273 L 192 274 L 190 268 Q 191 265 189 266 Z M 204 269 L 205 273 L 206 270 L 204 269 Z M 121 270 L 121 279 L 120 280 Q 121 282 119 281 L 117 284 L 110 287 L 108 289 L 105 302 L 105 304 L 104 308 Q 103 310 107 309 L 106 308 L 110 300 L 110 296 L 119 288 L 130 285 Q 134 284 136 286 L 137 284 L 137 279 L 136 283 Q 135 285 134 283 L 130 284 L 131 279 L 130 276 L 129 278 L 127 279 L 125 278 L 122 275 L 124 271 L 121 270 Z M 127 271 L 125 273 L 128 276 L 129 272 L 127 271 Z M 183 272 L 182 275 L 183 275 L 183 272 Z M 145 273 L 144 289 L 145 289 L 145 273 Z M 140 274 L 139 278 L 140 278 L 140 274 Z M 194 275 L 192 276 L 192 277 L 195 276 L 197 277 Q 198 274 194 275 Z M 204 275 L 202 277 L 207 279 L 205 277 Q 206 274 204 275 Z M 188 277 L 186 279 L 189 281 L 191 281 L 192 281 L 188 277 Z M 141 280 L 140 290 L 139 291 L 136 290 L 126 292 L 127 294 L 137 292 L 139 292 L 142 293 L 141 292 Q 140 287 142 286 Q 143 281 141 280 Z M 198 280 L 199 282 Q 200 279 198 280 Z M 210 280 L 204 281 L 205 284 L 208 283 L 210 285 L 210 280 Z M 180 281 L 178 284 L 181 284 Q 182 280 180 281 Z M 188 283 L 187 287 L 190 287 L 188 286 L 188 283 Z M 197 283 Q 195 289 197 292 L 199 291 Q 200 285 197 283 Z M 201 283 L 200 285 L 202 286 L 201 283 Z M 182 285 L 180 286 L 178 288 L 178 297 L 177 298 L 178 304 L 180 297 L 183 294 L 182 293 Q 181 288 184 287 Q 185 284 182 285 Z M 206 285 L 205 287 L 209 291 Q 208 293 211 292 L 210 288 L 206 285 Z M 131 286 L 128 288 L 122 289 L 120 289 L 119 291 L 125 291 L 135 288 L 131 286 Z M 138 288 L 139 290 Q 140 287 138 288 Z M 205 288 Q 202 292 206 291 L 205 288 Z M 186 289 L 185 292 L 188 293 L 187 292 L 190 291 L 186 289 Z M 152 292 L 151 299 Q 149 300 152 302 Q 153 304 151 303 L 143 293 L 142 295 L 138 294 L 136 295 Q 128 294 129 297 L 134 298 L 129 300 L 137 301 L 138 303 L 140 306 L 150 311 L 153 310 Q 155 302 161 297 Q 163 298 162 296 Q 159 291 152 292 Z M 194 292 L 193 294 L 190 293 L 191 295 Q 197 297 196 293 L 194 292 Z M 115 294 L 114 296 Q 116 300 118 297 L 115 294 Z M 119 294 L 118 296 Q 121 297 117 299 L 118 309 L 123 312 Q 125 306 120 308 L 118 305 L 121 295 L 119 294 Z M 187 295 L 185 298 L 188 299 Q 191 297 187 295 Z M 123 296 L 123 299 L 125 298 Q 126 295 123 296 Z M 175 296 Q 169 301 171 312 L 180 313 L 181 314 L 180 310 L 176 311 L 173 310 L 175 299 L 175 296 Z M 165 297 L 161 301 L 165 302 L 166 300 L 165 297 Z M 206 297 L 204 301 L 206 302 L 206 297 Z M 114 299 L 111 303 L 112 306 L 114 302 L 114 299 Z M 190 299 L 192 302 Q 194 303 193 301 L 190 299 Z M 198 299 L 198 305 L 200 304 Q 202 298 198 299 Z M 124 300 L 124 302 L 126 303 Q 127 299 124 300 Z M 132 301 L 133 305 L 134 302 L 132 301 Z M 101 302 L 101 307 L 102 307 Q 104 301 101 302 Z M 129 302 L 127 305 L 129 304 L 129 302 Z M 168 302 L 167 313 L 166 314 L 168 316 L 169 311 L 168 302 Z M 187 302 L 183 303 L 180 307 L 187 305 L 187 302 Z M 211 302 Q 209 305 212 304 L 211 302 Z M 131 303 L 128 307 L 129 308 L 131 305 L 131 303 Z M 135 304 Q 133 307 131 306 L 133 308 Q 135 309 134 307 L 136 307 Q 138 308 137 305 L 135 304 Z M 159 304 L 160 311 L 161 311 Q 163 303 159 304 Z M 123 305 L 124 308 L 125 306 L 123 305 Z M 164 305 L 163 315 L 164 315 L 164 305 Z M 206 305 Q 202 307 203 313 L 206 313 L 207 311 L 206 305 Z M 98 306 L 98 309 L 99 309 Q 100 305 98 306 Z M 90 307 L 86 310 L 86 321 Q 90 325 90 333 L 95 341 L 104 348 L 104 346 L 96 340 L 98 339 L 97 337 L 100 338 L 100 337 L 97 335 L 98 332 L 102 337 L 102 339 L 108 338 L 110 338 L 117 338 L 117 336 L 107 336 L 105 335 L 99 326 L 103 327 L 105 327 L 111 331 L 113 331 L 101 320 L 99 320 L 97 320 Q 93 321 94 318 L 97 318 L 95 317 Q 89 315 90 307 Z M 137 307 L 137 309 L 139 308 L 137 307 Z M 187 307 L 187 310 L 191 309 L 187 307 Z M 195 307 L 193 311 L 194 314 L 197 309 L 195 307 Z M 128 308 L 126 311 L 128 311 L 128 308 Z M 135 308 Q 133 311 132 309 L 130 312 L 132 312 L 133 312 L 132 315 L 129 314 L 130 319 L 136 326 L 140 317 L 140 313 L 136 322 L 135 322 L 139 313 L 138 312 L 134 320 L 132 319 L 134 311 L 136 309 L 135 308 Z M 113 309 L 112 312 L 113 312 L 113 309 Z M 140 309 L 138 311 L 140 311 L 140 309 Z M 84 310 L 82 313 L 84 313 L 84 310 Z M 135 311 L 135 313 L 137 312 L 135 311 Z M 144 311 L 141 315 L 134 334 L 135 335 Q 138 334 137 330 L 137 328 L 143 316 Q 142 312 145 313 L 144 311 Z M 184 311 Q 183 314 186 313 Q 187 310 184 311 Z M 101 312 L 101 314 L 103 315 Q 104 311 101 312 Z M 109 312 Q 108 316 111 315 Q 112 311 109 312 Z M 106 313 L 106 315 L 108 314 L 106 313 Z M 145 313 L 141 324 L 143 324 L 147 315 Q 148 312 145 313 Z M 190 313 L 188 315 Q 187 318 191 316 Q 192 312 190 313 Z M 283 313 L 280 314 L 281 317 L 281 316 L 283 316 Q 286 315 283 313 Z M 288 313 L 283 320 L 284 322 Q 285 324 282 323 Q 281 327 284 326 L 286 323 L 285 320 L 287 320 L 288 315 L 288 313 Z M 291 313 L 290 316 L 289 318 Q 291 317 290 320 L 287 321 L 290 326 L 292 321 L 291 313 Z M 149 314 L 147 316 L 148 318 L 149 316 L 149 314 Z M 152 314 L 150 316 L 151 318 L 153 315 L 152 314 Z M 154 314 L 154 316 L 154 317 L 158 316 L 154 314 Z M 275 314 Q 276 317 273 316 L 272 320 Q 273 322 270 321 L 271 324 L 270 326 L 271 329 L 277 316 L 278 318 L 278 316 L 275 314 Z M 292 314 L 292 317 L 294 316 Q 295 313 292 314 Z M 116 315 L 114 317 L 116 318 L 116 315 Z M 172 315 L 172 317 L 175 318 L 177 317 Q 176 314 172 315 Z M 204 315 L 203 316 Q 200 315 201 318 L 203 317 L 206 318 Q 208 314 204 315 Z M 296 315 L 294 319 L 296 320 Q 295 316 298 317 L 295 326 Q 296 328 293 327 L 282 358 L 283 361 L 292 337 L 294 336 L 286 357 L 286 359 L 283 365 L 282 361 Q 282 365 279 367 L 281 367 L 282 367 L 281 371 L 277 370 Q 276 373 280 372 L 280 374 L 275 370 L 273 375 L 274 377 L 274 376 L 275 376 L 274 381 L 272 382 L 273 380 L 273 377 L 271 380 L 272 384 Q 273 386 270 385 L 272 388 L 275 383 L 276 384 L 273 389 L 273 391 L 275 391 L 276 387 Q 277 384 281 385 L 283 377 L 285 375 L 286 370 L 292 358 L 291 355 L 288 363 L 285 367 L 282 378 L 279 383 L 277 383 L 279 381 L 281 373 L 283 371 L 283 368 L 285 366 L 297 335 Q 296 330 299 331 L 301 327 Q 300 323 303 324 L 300 331 L 302 331 L 305 324 L 302 323 L 304 322 L 304 320 L 303 318 Q 300 317 301 320 Q 304 321 300 323 Q 301 325 298 324 L 300 318 L 296 315 Z M 181 316 L 181 318 L 179 319 L 177 322 L 180 322 L 184 317 L 181 316 Z M 268 316 L 260 320 L 262 322 L 262 321 L 267 318 L 268 319 L 268 316 Z M 270 316 L 270 319 Q 273 320 272 318 L 270 316 Z M 121 317 Q 120 320 123 319 Q 124 316 121 317 Z M 160 317 L 159 319 L 161 320 L 160 317 Z M 166 317 L 166 321 L 168 320 Q 169 316 166 317 Z M 281 317 L 281 319 L 279 319 L 281 324 L 283 319 Q 284 316 281 317 Z M 193 318 L 191 321 L 193 320 L 193 318 Z M 197 318 L 195 321 L 197 320 L 197 318 Z M 124 319 L 124 322 L 127 321 L 124 319 Z M 147 319 L 140 332 L 141 336 L 139 343 L 140 345 L 141 344 L 142 335 L 142 333 L 145 325 L 146 325 L 145 328 L 146 331 L 147 328 Q 146 324 149 325 L 150 327 L 150 325 Q 148 321 146 323 L 147 321 L 147 319 Z M 157 319 L 157 321 L 159 320 L 157 319 Z M 169 319 L 170 322 L 172 321 Q 173 318 169 319 Z M 115 320 L 113 324 L 116 325 L 115 320 Z M 160 320 L 158 322 Q 157 329 160 328 L 161 326 L 160 320 Z M 201 320 L 198 324 L 197 326 Q 201 327 202 324 Q 203 319 201 320 Z M 207 320 L 204 324 L 205 325 L 208 322 L 207 320 Z M 259 320 L 257 323 L 259 322 L 259 320 Z M 265 320 L 263 323 Q 261 324 264 325 L 264 324 L 266 324 L 265 320 Z M 267 320 L 268 322 Q 269 319 267 320 Z M 293 320 L 285 341 L 283 342 L 286 335 Q 285 331 288 332 L 288 330 L 286 330 Q 287 325 283 327 L 280 331 L 281 334 L 283 329 L 284 329 L 283 332 L 284 335 L 283 337 L 282 335 L 280 339 L 281 341 L 282 339 L 282 341 Q 281 343 280 341 L 279 343 L 276 344 L 274 343 L 272 344 L 272 348 L 269 352 L 269 355 L 267 355 L 268 357 L 267 357 L 267 359 L 265 359 L 266 357 L 265 355 Q 264 352 268 353 L 267 352 L 269 342 L 268 342 L 267 340 L 271 339 L 270 341 L 271 343 L 273 338 L 273 336 Q 275 337 274 335 Q 276 333 274 332 L 271 334 L 271 333 L 270 330 Q 267 331 269 333 L 268 333 L 266 334 L 269 325 L 269 322 L 267 326 L 265 327 L 267 328 L 260 329 L 262 333 L 262 335 L 261 332 Q 258 331 259 334 L 258 334 L 260 327 L 261 325 L 258 325 Q 259 328 256 327 L 257 330 L 256 336 L 258 336 L 256 341 L 257 344 Q 256 347 260 346 L 262 342 L 263 345 L 265 340 Q 263 334 267 335 L 267 338 L 264 345 L 267 344 L 266 348 L 265 346 L 262 350 L 260 359 L 258 360 L 259 358 L 259 356 L 256 362 L 257 365 L 257 363 L 259 362 L 258 364 L 259 365 L 262 356 L 263 356 L 261 363 L 262 366 Q 265 367 264 364 L 267 363 L 267 365 L 264 366 L 265 370 L 266 370 Q 265 366 268 367 L 268 364 L 270 364 L 271 361 L 269 361 L 271 357 L 272 361 L 271 363 L 273 363 L 275 358 L 275 355 L 273 358 L 271 356 L 273 356 L 275 351 L 275 349 L 273 352 L 271 353 L 275 345 L 276 348 L 276 347 L 277 347 L 275 355 L 277 355 L 275 362 L 277 362 L 276 364 L 275 362 L 270 375 L 272 375 L 275 367 L 276 367 L 275 369 Q 274 371 277 370 L 278 367 Q 277 363 280 364 L 279 363 L 288 340 L 289 334 L 294 324 L 295 321 L 293 320 Z M 107 321 L 107 324 Q 110 325 109 323 L 107 321 Z M 151 321 L 152 323 Q 153 320 151 321 Z M 185 321 Q 183 324 186 323 L 185 321 Z M 308 322 L 306 324 L 309 324 Q 310 321 308 322 Z M 129 323 Q 127 326 130 325 L 129 323 Z M 153 323 L 154 327 L 155 327 Q 156 322 153 323 Z M 172 323 L 171 326 L 175 325 L 172 323 Z M 255 323 L 252 327 L 256 324 L 255 323 Z M 278 323 L 278 326 Q 281 327 280 325 L 278 323 Z M 182 324 Q 180 327 183 326 L 182 324 Z M 276 324 L 276 329 L 277 327 L 276 324 Z M 287 324 L 287 328 L 289 329 L 287 324 Z M 311 324 L 310 326 L 311 329 L 309 333 L 306 332 L 305 337 L 307 338 Q 306 340 305 338 L 296 357 L 296 360 L 298 359 L 298 362 L 297 364 L 299 364 L 299 359 L 301 357 L 306 343 L 305 343 L 304 342 Q 305 339 307 341 L 309 335 L 310 335 L 299 365 L 300 367 L 309 345 L 312 331 L 314 329 L 311 324 Z M 118 325 Q 117 329 120 328 Q 121 324 118 325 Z M 189 325 L 187 327 L 189 328 L 189 325 Z M 204 325 Q 199 327 202 329 L 201 334 L 198 335 L 197 339 Q 192 338 193 341 L 196 340 L 201 341 L 204 327 L 204 325 Z M 128 326 L 128 328 L 130 327 L 128 326 Z M 139 327 Q 139 333 135 338 L 136 340 L 136 342 L 137 348 L 138 347 Q 137 341 139 340 Q 140 337 137 338 L 141 328 L 139 327 Z M 151 327 L 149 334 L 151 333 Q 150 330 153 331 Q 154 333 155 331 Q 154 328 153 330 L 151 327 Z M 164 327 L 164 330 Q 163 333 166 332 L 164 327 Z M 274 327 L 271 331 L 275 331 L 274 327 Z M 279 327 L 277 329 Q 276 332 279 331 L 279 327 Z M 305 327 L 304 331 L 307 331 Q 308 326 305 327 Z M 125 328 L 123 330 L 126 331 L 125 328 Z M 149 328 L 147 332 Q 143 333 146 335 L 145 337 L 146 339 L 149 330 L 149 328 Z M 158 328 L 156 331 L 157 333 L 158 331 L 158 328 Z M 161 328 L 159 330 L 160 332 L 161 330 L 161 328 Z M 103 329 L 104 331 Q 105 328 103 329 Z M 178 329 L 172 331 L 177 333 L 183 331 L 178 329 Z M 191 329 L 189 332 L 191 331 L 191 329 Z M 194 329 L 193 331 L 192 334 L 193 336 L 197 337 L 194 329 Z M 255 329 L 255 331 Q 253 329 251 333 L 252 335 L 254 336 L 253 334 L 254 332 L 255 334 L 256 332 Q 257 328 255 329 Z M 115 330 L 114 333 Q 106 332 107 335 L 115 334 L 116 333 L 119 337 Q 120 340 118 339 L 116 339 L 114 340 Q 115 343 122 341 L 125 344 Q 126 346 124 345 L 124 347 L 123 347 L 124 349 Q 127 347 126 341 L 126 339 L 128 339 L 129 337 L 128 337 L 123 334 L 121 339 L 119 335 L 121 335 L 120 332 L 118 332 Q 119 329 115 330 Z M 315 330 Q 312 331 314 333 L 313 335 L 315 335 L 314 337 L 316 340 Q 317 342 314 341 L 313 349 L 311 351 L 305 367 L 306 369 L 317 345 L 316 333 L 315 330 Z M 184 331 L 182 335 Q 181 338 184 337 L 184 331 Z M 153 332 L 151 335 L 152 340 L 153 335 L 153 332 Z M 159 332 L 157 335 L 159 334 L 159 332 Z M 161 332 L 160 335 L 161 335 L 161 332 Z M 167 332 Q 164 334 167 335 L 168 333 L 167 332 Z M 278 332 L 274 341 L 275 343 L 278 342 L 280 338 L 280 335 L 278 339 L 276 340 L 278 335 L 278 332 Z M 301 332 L 291 353 Q 290 355 293 354 L 298 344 L 298 340 L 302 334 Q 303 331 301 332 Z M 156 333 L 154 335 L 155 338 L 156 335 L 156 333 Z M 170 333 L 168 337 L 171 338 L 173 334 L 170 336 L 170 335 L 170 333 Z M 251 333 L 249 335 L 251 339 Q 250 341 253 340 L 251 333 Z M 132 334 L 132 337 L 130 340 L 132 340 L 134 336 L 132 334 Z M 304 334 L 301 337 L 299 344 L 296 348 Q 295 351 298 350 L 301 342 Q 300 339 303 340 L 304 338 L 304 334 Z M 160 335 L 158 338 L 160 337 L 160 335 Z M 161 336 L 162 339 L 163 337 L 161 336 Z M 176 336 L 177 337 L 178 340 Q 176 341 179 342 L 180 339 Q 180 335 176 336 Z M 248 336 L 248 340 L 249 340 L 248 336 Z M 254 336 Q 252 341 256 340 Q 258 335 254 336 Z M 164 337 Q 162 340 165 339 L 164 337 Z M 246 337 L 244 339 L 245 341 L 246 339 L 246 337 Z M 158 338 L 156 341 L 157 344 L 158 342 L 158 338 Z M 185 338 L 185 342 L 183 346 L 185 346 L 187 342 Q 188 339 185 340 L 185 338 Z M 312 338 L 308 350 L 308 351 L 311 350 Q 314 348 313 342 L 315 340 L 312 338 Z M 99 339 Q 97 342 100 341 L 99 339 Z M 147 339 L 145 342 Q 144 345 147 344 L 147 339 Z M 167 339 L 169 345 L 170 341 L 167 339 Z M 107 340 L 105 342 L 106 344 L 105 343 L 103 344 L 107 347 L 111 348 L 114 348 L 112 345 L 110 345 Q 106 346 107 343 L 111 344 L 122 344 L 121 343 L 119 343 Q 117 341 113 342 L 111 340 L 107 340 Z M 162 340 L 163 344 L 164 341 L 162 340 Z M 240 340 L 242 343 L 243 341 L 240 340 Z M 246 340 L 247 347 L 249 347 L 248 349 Q 251 349 250 354 L 252 354 L 251 358 L 244 342 L 242 345 Q 241 347 244 346 L 248 358 L 251 362 L 253 356 L 252 351 Q 253 346 250 347 Q 248 343 252 344 L 251 346 Q 254 347 253 350 Q 256 351 255 348 L 255 346 Q 257 347 256 345 L 255 345 L 253 345 L 255 344 L 254 340 L 253 342 L 251 341 L 250 343 Q 247 344 248 340 L 246 340 Z M 101 341 L 102 343 L 103 343 L 101 341 Z M 130 341 L 129 347 L 132 345 Q 133 340 130 341 Z M 171 341 L 171 344 L 173 343 Q 174 340 171 341 Z M 184 341 L 180 346 Q 179 348 182 347 L 184 343 L 184 341 Z M 188 341 L 187 345 L 190 343 Q 191 340 188 341 Z M 237 342 L 236 344 L 233 345 L 235 348 L 236 346 Q 240 344 237 342 Z M 173 343 L 173 346 L 175 345 Q 176 342 173 343 Z M 190 343 L 191 346 L 190 349 Q 189 351 192 350 L 193 347 L 192 345 Q 193 342 190 343 Z M 195 343 L 196 348 L 195 350 L 196 353 L 197 347 L 197 345 Q 198 342 195 343 Z M 199 343 L 199 345 L 197 346 L 199 347 L 201 346 L 196 354 Q 195 356 198 355 L 200 350 L 203 348 L 201 351 L 203 351 L 202 353 L 204 353 Q 205 347 203 344 L 199 343 Z M 240 343 L 238 345 L 240 348 L 241 348 L 240 343 Z M 118 345 L 117 347 L 120 350 L 121 346 L 118 345 Z M 159 345 L 158 348 L 159 348 L 159 345 Z M 171 345 L 169 348 L 171 347 L 171 345 Z M 176 345 L 173 350 L 172 349 L 170 350 Q 173 355 175 350 Q 174 346 177 347 L 176 345 Z M 231 345 L 229 348 L 226 347 Q 225 350 228 349 L 229 353 L 231 348 L 232 350 L 233 347 L 231 345 Z M 262 345 L 261 347 L 258 349 Q 259 351 257 350 L 252 363 L 253 365 L 255 360 Q 254 355 257 356 L 260 350 L 261 352 L 262 349 L 262 345 Z M 186 346 L 183 350 L 185 350 L 186 348 L 186 346 Z M 257 346 L 256 349 L 257 349 L 257 346 Z M 224 347 L 222 349 L 224 352 L 225 348 L 224 347 Z M 317 347 L 315 351 Q 316 355 314 354 L 314 356 L 312 356 L 310 363 L 311 364 L 314 361 L 318 350 L 317 347 Z M 122 348 L 120 351 L 123 351 L 122 348 Z M 141 348 L 139 350 L 141 350 L 141 348 Z M 220 348 L 218 350 L 222 352 L 221 350 Q 222 347 220 348 Z M 239 348 L 237 352 L 240 358 L 241 356 L 241 353 L 240 355 L 239 348 Z M 242 348 L 241 351 L 242 351 L 242 348 Z M 125 349 L 126 351 Q 127 348 125 349 Z M 135 349 L 134 352 L 135 352 L 135 349 Z M 166 349 L 167 351 Q 168 348 166 349 Z M 182 349 L 179 354 L 181 354 L 182 352 L 182 349 Z M 146 350 L 144 352 Q 143 354 146 353 L 146 350 Z M 162 350 L 162 353 Q 165 352 162 350 Z M 175 350 Q 174 353 177 352 Q 178 349 175 350 Z M 187 350 L 177 370 L 178 372 Q 181 371 180 367 L 183 366 L 182 364 L 184 360 Q 183 357 187 358 L 189 355 L 189 352 L 187 356 L 185 357 L 187 353 Q 189 351 187 350 Z M 210 350 L 211 353 Q 212 355 209 354 L 208 361 L 206 363 L 208 367 L 210 359 Q 209 354 212 355 L 213 353 Q 214 348 210 350 Z M 233 350 Q 232 353 235 352 Q 236 349 233 350 Z M 113 351 L 111 353 L 112 355 L 112 354 Q 113 351 115 353 L 117 353 L 113 351 Z M 124 351 L 123 353 L 125 352 L 124 351 Z M 130 351 L 128 355 L 130 355 L 129 358 L 130 359 L 132 353 L 131 353 L 130 351 Z M 168 351 L 166 353 L 168 353 L 168 351 Z M 227 351 L 224 357 Q 223 360 226 359 L 227 356 L 227 351 Z M 232 351 L 230 355 L 232 356 L 232 351 Z M 242 351 L 242 356 L 244 355 L 246 361 L 247 359 L 245 353 L 242 351 Z M 297 351 L 294 354 Q 293 361 289 366 L 292 366 Q 293 358 297 353 L 297 351 Z M 191 352 L 190 355 L 191 355 L 191 352 Z M 215 352 L 213 355 Q 212 358 215 357 L 215 352 Z M 260 352 L 259 355 L 260 355 L 260 352 Z M 118 353 L 117 357 L 119 358 L 118 353 Z M 306 353 L 300 371 L 298 372 L 299 368 L 296 368 L 298 367 L 297 365 L 293 367 L 289 375 L 290 377 L 292 372 L 295 371 Q 294 368 297 369 L 296 372 Q 297 376 292 374 L 290 378 L 291 381 L 293 381 L 292 383 L 290 384 L 292 386 L 294 384 L 297 374 L 299 375 L 293 386 L 294 391 Q 296 390 294 389 L 297 384 L 299 383 L 297 387 L 297 389 L 293 397 L 294 398 L 297 391 Q 300 389 298 388 L 300 385 Q 299 380 302 381 L 300 386 L 301 388 L 303 386 L 310 369 L 310 364 L 304 376 L 305 378 L 302 380 L 305 372 L 305 370 Q 301 373 301 379 L 298 381 L 307 360 Q 305 354 309 355 Q 310 352 306 353 Z M 171 354 L 169 357 L 171 358 L 171 354 Z M 136 355 L 135 357 L 132 356 Q 131 359 134 358 L 135 361 L 136 359 L 136 355 Z M 176 355 L 173 359 L 174 360 L 177 356 L 176 355 Z M 199 355 L 198 358 L 200 359 L 199 355 Z M 208 355 L 206 357 L 207 359 L 208 357 L 208 355 Z M 218 355 Q 217 360 214 363 L 217 362 L 212 380 L 213 382 L 214 381 L 215 375 L 215 373 L 219 362 L 218 355 Z M 191 356 Q 190 359 193 358 Q 194 355 191 356 Z M 220 356 L 221 360 L 222 360 Q 223 355 220 356 Z M 229 356 L 229 362 L 231 363 Q 232 358 229 359 L 229 356 Z M 237 356 Q 234 361 238 360 L 237 356 Z M 242 356 L 240 359 L 240 362 Q 243 361 242 364 L 242 366 L 240 369 L 241 371 L 240 377 L 242 376 L 242 378 L 239 380 L 242 391 L 240 392 L 242 394 L 245 384 Q 244 381 248 382 L 248 378 L 247 381 L 246 381 L 247 378 L 246 375 L 243 386 L 242 386 L 242 381 Q 245 378 245 372 L 243 372 Q 242 367 246 369 L 248 365 L 248 359 L 246 365 L 242 356 Z M 144 357 L 143 359 L 145 360 L 144 357 Z M 178 357 L 176 360 L 178 359 L 178 357 Z M 211 357 L 212 360 L 213 358 L 211 357 Z M 317 357 L 315 360 Q 316 363 313 362 L 310 371 L 311 373 L 316 363 L 317 366 L 317 360 Q 319 358 317 357 Z M 104 358 L 102 360 L 103 363 L 104 360 L 104 358 Z M 194 358 L 193 362 L 195 361 L 194 358 Z M 213 358 L 213 360 L 215 359 L 213 358 Z M 160 359 L 160 361 L 162 360 L 160 359 Z M 235 359 L 233 361 Q 232 363 235 362 L 235 359 Z M 105 360 L 104 363 L 105 363 L 105 360 Z M 188 360 L 186 363 L 189 363 L 188 360 Z M 211 360 L 210 366 L 211 366 L 211 360 Z M 239 360 L 238 363 L 239 363 L 239 360 Z M 296 360 L 293 365 Q 292 367 295 366 L 296 363 L 296 360 Z M 138 361 L 137 365 L 138 365 L 138 361 Z M 221 361 L 219 366 L 221 367 L 221 361 Z M 109 362 L 108 364 Q 110 368 112 365 L 109 362 Z M 145 362 L 145 364 L 147 363 L 145 362 Z M 228 362 L 227 365 L 228 365 L 228 362 Z M 236 362 L 235 366 L 236 366 L 236 362 Z M 104 363 L 102 365 Q 101 367 104 366 L 104 363 Z M 206 363 L 204 365 L 205 367 L 206 367 L 206 363 Z M 225 363 L 224 367 L 225 367 L 225 363 Z M 240 363 Q 237 368 241 367 L 240 363 Z M 250 363 L 249 366 L 250 366 L 250 363 Z M 150 364 L 148 367 L 150 366 L 150 364 Z M 187 364 Q 186 368 189 367 Q 190 363 187 364 Z M 261 364 L 260 367 L 261 367 L 261 364 Z M 95 365 L 95 369 L 97 368 L 99 369 L 99 368 L 95 365 Z M 120 365 L 116 368 L 117 369 L 120 367 L 120 365 Z M 197 365 L 197 367 L 199 366 L 197 365 Z M 213 365 Q 212 368 215 367 Q 216 364 213 365 Z M 233 365 L 231 368 L 233 367 L 233 365 Z M 191 366 L 189 368 L 191 368 L 191 366 Z M 201 366 L 199 369 Q 195 370 199 372 L 201 368 L 201 366 Z M 238 366 L 235 373 L 237 373 L 236 375 Q 237 378 235 377 L 231 381 L 232 382 L 231 385 L 232 386 L 234 380 L 235 380 L 233 386 L 235 391 Q 234 385 238 383 Q 239 380 236 381 L 239 371 L 238 366 Z M 252 366 L 248 376 L 249 378 L 251 376 L 252 371 Q 249 369 253 368 L 252 366 Z M 316 366 L 314 369 Q 313 372 316 371 L 316 366 Z M 144 367 L 144 369 L 146 368 L 144 367 Z M 165 367 L 163 370 L 165 370 L 165 367 Z M 197 367 L 195 369 Q 194 371 197 370 L 197 367 Z M 219 367 L 219 371 L 218 374 L 220 374 L 221 372 Q 222 368 219 369 L 219 367 Z M 255 367 Q 253 370 256 369 L 255 367 Z M 261 367 L 262 371 L 263 369 Q 264 366 261 367 Z M 290 367 L 284 378 L 279 393 Q 282 394 281 391 Q 284 389 282 388 L 291 368 L 290 367 Z M 182 368 Q 181 371 184 370 Q 185 367 182 368 Z M 206 368 Q 204 371 207 370 L 206 368 Z M 227 368 L 225 370 L 227 371 L 227 368 Z M 230 368 L 230 371 Q 233 370 230 368 Z M 235 368 L 233 370 Q 232 372 235 371 L 235 368 Z M 248 368 L 246 371 L 247 375 L 248 371 L 248 368 Z M 258 368 L 258 370 L 260 371 Q 261 367 258 368 Z M 93 369 L 93 371 L 95 370 L 93 369 Z M 111 369 L 109 372 L 111 372 L 111 369 Z M 144 369 L 143 372 L 144 372 L 144 369 Z M 145 369 L 144 373 Q 143 375 146 374 L 147 371 Q 148 368 145 369 Z M 186 369 L 186 372 Q 189 371 186 369 Z M 211 369 L 211 372 L 213 371 Q 214 368 211 369 Z M 119 370 L 118 375 L 120 374 L 119 370 Z M 171 370 L 171 372 L 168 375 L 169 376 L 168 380 Q 166 381 169 382 Q 169 374 173 371 L 171 370 Z M 207 370 Q 206 373 209 372 Q 210 369 207 370 Z M 224 370 L 222 373 L 224 374 L 224 370 Z M 257 370 Q 254 374 258 373 L 257 370 Z M 263 370 L 263 374 L 265 373 Q 266 369 263 370 Z M 193 371 L 193 373 L 195 372 L 193 371 Z M 233 371 L 229 380 Q 232 381 231 377 L 233 377 L 234 375 L 233 371 Z M 255 371 L 252 374 L 254 376 L 255 374 L 255 371 Z M 261 371 L 260 374 L 261 374 L 261 371 Z M 314 371 L 307 386 L 308 388 L 312 377 L 314 376 L 313 378 Q 312 380 315 379 Q 317 373 314 371 Z M 160 372 Q 158 375 161 374 L 160 372 Z M 188 372 L 186 375 L 187 376 Q 191 374 188 372 Z M 106 373 L 104 375 L 108 379 L 108 378 L 108 376 L 106 375 L 106 373 Z M 150 373 L 151 375 L 152 375 L 150 373 Z M 182 373 L 178 378 L 181 378 L 182 375 L 182 373 Z M 201 373 L 199 376 L 201 375 L 201 373 Z M 226 373 L 224 375 L 226 376 L 226 373 Z M 310 373 L 306 381 L 307 384 L 310 376 L 310 373 Z M 114 374 L 112 378 Q 111 380 114 379 L 115 377 L 114 374 Z M 161 374 L 161 376 L 163 375 L 161 374 Z M 210 374 L 208 376 L 209 379 L 210 376 L 210 374 Z M 221 374 L 220 378 L 221 378 L 221 374 Z M 229 374 L 227 377 L 229 377 L 229 374 Z M 164 375 Q 161 376 162 380 L 164 379 L 164 375 Z M 217 375 L 212 393 L 211 391 L 209 390 L 209 395 L 212 399 L 217 385 L 216 383 Q 215 380 218 381 Q 219 376 217 375 Z M 260 375 L 256 385 Q 255 387 258 386 L 259 382 L 261 388 L 262 388 L 261 383 Q 262 380 259 381 L 260 379 L 260 375 Z M 263 375 L 261 377 Q 260 379 263 378 Q 266 377 263 375 Z M 188 376 L 188 379 L 190 378 Q 191 375 188 376 Z M 205 376 L 202 383 L 204 386 L 205 380 L 205 376 Z M 224 376 L 221 383 Q 222 385 220 384 L 220 386 Q 221 390 218 391 L 218 395 L 220 394 L 221 401 L 222 401 L 221 397 L 223 397 L 222 393 L 220 393 L 225 377 L 224 376 Z M 123 377 L 124 379 Q 125 376 123 377 Z M 126 377 L 127 380 L 128 378 L 126 377 Z M 225 377 L 225 379 L 227 378 L 225 377 Z M 251 377 Q 250 380 253 379 Q 254 376 251 377 Z M 254 377 L 253 380 L 254 383 L 256 379 Q 257 376 254 377 Z M 289 377 L 287 380 L 288 383 L 289 381 L 289 377 Z M 99 378 L 99 380 L 101 379 L 99 378 Z M 190 378 L 188 384 L 190 384 L 192 380 Q 193 377 190 378 Z M 196 378 L 195 381 L 196 381 L 196 378 Z M 199 378 L 197 381 L 197 382 L 200 380 Q 201 377 199 378 Z M 202 378 L 200 381 L 201 383 L 202 381 L 202 378 Z M 122 379 L 120 382 L 122 381 L 122 379 Z M 135 379 L 136 381 Q 137 378 135 379 Z M 151 379 L 149 381 L 150 383 L 152 380 L 151 379 Z M 174 379 L 172 384 L 171 386 Q 175 387 173 382 L 175 382 L 174 379 Z M 178 379 L 178 381 L 180 382 Q 181 378 178 379 Z M 185 379 L 181 388 L 179 389 L 182 389 L 185 384 L 185 379 Z M 220 379 L 218 382 L 219 384 L 220 382 L 220 379 Z M 263 379 L 261 381 L 263 381 L 263 379 Z M 101 380 L 100 382 Q 104 383 103 381 L 101 380 Z M 128 380 L 126 383 L 128 384 L 128 380 Z M 144 380 L 142 381 L 142 383 L 142 384 L 141 382 L 138 387 L 140 392 Q 142 391 140 390 L 145 381 L 144 380 Z M 209 380 L 210 385 L 211 381 L 209 380 Z M 250 380 Q 251 384 248 383 L 249 386 L 248 390 L 249 392 L 252 384 Q 253 379 250 380 Z M 313 380 L 308 391 L 310 391 L 308 395 L 309 397 L 312 391 L 311 387 L 312 387 Q 311 389 314 388 L 315 386 L 315 380 L 313 385 L 313 384 L 313 380 Z M 146 381 L 144 384 L 146 383 L 146 381 Z M 230 381 Q 227 382 228 386 L 230 385 L 230 381 Z M 156 382 L 155 385 L 156 387 L 158 383 L 156 382 Z M 171 382 L 169 385 L 171 384 L 171 382 Z M 176 382 L 174 386 L 174 387 Q 176 388 175 386 L 176 386 L 175 390 Q 178 391 177 389 L 181 386 L 176 382 Z M 206 382 L 206 386 L 204 390 L 205 393 L 204 397 L 205 400 L 209 389 Q 210 384 208 385 L 206 382 Z M 212 382 L 211 385 L 211 387 L 210 389 L 212 388 L 212 382 Z M 225 382 L 223 385 L 224 387 L 225 385 Q 227 383 225 382 Z M 136 383 L 135 386 L 136 386 L 136 383 Z M 129 384 L 128 387 L 130 388 L 129 384 Z M 245 384 L 244 390 L 246 394 L 246 393 L 246 391 L 247 388 Q 248 383 245 384 Z M 252 384 L 252 386 L 254 387 Q 255 383 252 384 Z M 285 384 L 284 387 L 285 389 L 287 386 Q 288 383 285 384 Z M 306 384 L 303 388 L 298 390 L 297 394 L 298 397 L 300 392 L 304 390 L 306 387 L 306 384 Z M 122 385 L 123 387 Q 124 384 122 385 Z M 148 385 L 144 392 L 145 395 L 149 388 L 148 385 Z M 218 385 L 216 390 L 219 388 L 218 385 Z M 238 385 L 235 393 L 236 395 L 238 392 L 238 395 L 240 396 L 239 393 L 240 390 L 238 385 Z M 190 386 L 191 388 Q 192 385 190 386 Z M 196 386 L 196 388 L 198 388 Q 199 392 196 393 Q 195 396 198 395 L 199 392 L 199 395 L 200 395 L 199 391 Q 201 384 196 386 Z M 256 386 L 254 389 L 257 390 L 256 386 Z M 259 386 L 258 390 Q 261 391 260 396 L 261 396 Q 262 388 259 386 Z M 279 386 L 276 392 L 277 394 Q 279 393 278 389 L 280 389 L 279 386 Z M 316 386 L 304 411 L 305 413 L 314 394 L 315 396 L 317 391 L 316 386 Z M 115 387 L 114 389 L 116 390 L 115 387 Z M 158 387 L 157 389 L 159 390 L 158 387 Z M 188 387 Q 184 389 184 394 L 183 394 L 184 392 L 182 391 Q 181 395 184 396 L 187 391 Q 186 388 189 389 Q 190 386 188 387 Z M 231 387 L 232 389 Q 233 386 231 387 Z M 291 387 L 289 389 Q 288 392 291 391 L 292 389 Q 293 386 291 387 Z M 224 388 L 224 393 L 225 391 L 224 388 Z M 252 388 Q 250 391 253 390 L 252 388 Z M 271 388 L 269 391 L 272 398 L 272 394 L 274 394 L 273 391 L 272 393 L 271 388 Z M 307 388 L 303 395 L 304 396 L 306 394 L 307 390 L 307 388 Z M 112 389 L 110 393 L 112 394 L 112 389 Z M 150 389 L 148 392 L 150 391 L 150 389 Z M 167 389 Q 168 392 165 391 Q 164 394 167 393 L 169 390 L 167 389 Z M 226 389 Q 225 393 228 392 Q 229 388 226 389 Z M 231 389 L 229 391 L 232 397 L 234 397 L 231 389 Z M 153 390 L 151 393 L 151 395 Q 147 393 148 397 L 150 396 L 152 397 L 154 393 L 153 390 Z M 284 390 L 281 395 L 282 397 L 284 391 L 286 391 L 284 390 Z M 130 391 L 130 393 L 134 394 L 134 393 L 135 391 L 133 392 L 130 391 Z M 169 391 L 168 394 Q 167 396 170 395 L 171 392 L 169 391 Z M 192 391 L 193 395 Q 196 396 195 393 L 192 391 Z M 255 391 L 253 393 Q 252 396 255 395 L 255 391 Z M 258 391 L 257 397 L 259 398 Q 260 393 258 391 Z M 293 391 L 290 395 L 291 399 L 293 395 L 293 391 Z M 303 391 L 293 412 Q 292 414 295 413 L 299 405 L 301 396 L 303 394 L 303 391 Z M 34 392 L 23 407 L 20 415 Q 16 420 9 421 L 10 434 L 12 433 Q 14 434 13 431 Q 14 428 18 429 L 20 433 L 18 436 L 26 433 L 29 434 L 31 437 L 32 434 L 36 436 L 35 438 L 45 441 L 44 445 L 42 444 Q 39 445 40 443 L 32 439 L 19 438 L 17 441 L 14 440 L 10 441 L 9 445 L 10 449 L 9 451 L 11 458 L 11 457 L 14 456 L 18 458 L 16 463 L 11 462 L 9 466 L 10 468 Q 9 470 12 469 L 14 473 L 11 477 L 15 479 L 17 478 L 22 471 L 24 472 L 30 471 L 31 469 L 38 464 L 42 464 L 44 464 L 46 463 L 49 465 Q 50 467 52 464 Q 54 465 53 461 L 51 458 Q 46 459 45 456 Q 41 454 42 449 L 47 444 L 46 443 L 46 440 Q 50 437 50 432 L 56 430 Q 57 427 59 431 L 61 426 L 63 427 Q 65 428 64 425 L 74 428 L 75 432 L 79 433 L 82 439 L 78 445 L 82 447 L 83 445 L 86 443 L 89 444 L 95 439 L 100 439 L 101 432 L 91 430 L 89 430 Q 87 428 82 429 L 76 425 L 69 424 L 55 414 L 44 397 Q 41 398 42 395 L 34 392 Z M 107 392 L 106 398 L 107 398 L 107 392 Z M 164 392 L 162 395 L 164 394 L 164 392 Z M 173 392 L 171 396 L 173 395 L 173 392 Z M 180 392 L 179 394 L 181 393 L 180 392 Z M 226 392 Q 224 398 226 401 L 226 403 Q 225 406 228 405 L 229 403 L 228 401 L 230 397 Q 231 393 229 392 L 228 397 L 226 392 Z M 251 392 L 249 394 Q 248 396 251 395 L 251 392 Z M 287 392 Q 285 395 288 394 L 287 392 Z M 120 393 Q 118 396 121 395 L 120 393 Z M 129 393 L 127 396 L 129 396 L 129 393 Z M 155 393 L 154 397 L 155 397 L 155 393 Z M 174 393 L 174 395 L 176 394 L 174 393 Z M 244 393 L 243 400 L 245 401 L 244 393 Z M 133 394 L 130 399 L 131 402 L 133 397 L 133 394 Z M 189 394 L 186 397 L 187 399 L 189 396 L 189 394 Z M 307 394 L 304 398 L 305 400 L 307 397 L 307 394 Z M 182 395 L 181 396 Q 178 395 179 399 Q 176 400 181 402 L 182 398 L 182 395 Z M 215 395 L 213 397 L 215 398 L 215 395 Z M 218 395 L 216 399 L 218 400 L 218 395 Z M 317 395 L 316 398 L 316 400 Q 315 402 318 401 L 317 395 Z M 134 396 Q 133 399 136 398 Q 137 395 134 396 Z M 209 396 L 208 399 L 209 399 L 209 396 Z M 238 396 L 236 399 L 238 404 L 240 403 L 238 396 Z M 241 396 L 241 399 Q 244 398 241 396 Z M 288 396 L 286 400 L 288 399 L 288 396 Z M 160 397 L 160 400 L 162 399 Q 163 396 160 397 Z M 202 397 L 202 400 L 203 400 Q 204 396 202 397 Z M 231 397 L 229 400 L 232 406 L 234 407 L 234 404 L 231 397 Z M 248 397 Q 247 401 250 400 Q 251 396 248 397 Z M 253 397 L 253 402 L 254 400 L 253 397 Z M 255 397 L 255 402 L 257 402 L 257 397 L 255 397 Z M 273 397 L 272 401 L 275 399 Q 276 396 273 397 Z M 281 397 L 277 404 L 278 407 L 281 400 L 281 397 Z M 297 397 L 289 415 L 290 417 L 297 400 L 297 397 Z M 303 397 L 302 400 L 303 400 L 303 397 Z M 112 398 L 112 400 L 115 401 L 114 400 Q 115 397 112 398 Z M 127 398 L 126 401 L 127 401 L 127 398 Z M 141 398 L 140 406 L 135 418 L 137 418 Q 139 417 137 416 L 140 411 Q 140 403 143 399 L 145 399 L 141 398 Z M 192 398 L 188 404 L 190 408 L 192 404 L 192 402 L 193 399 L 192 398 Z M 196 398 L 194 400 L 195 403 L 196 400 L 196 398 Z M 197 398 L 196 402 Q 195 404 198 403 L 199 406 L 201 406 L 199 401 Q 200 397 197 398 Z M 235 398 L 234 401 L 235 401 L 235 398 Z M 105 399 Q 102 400 104 402 L 102 400 L 101 403 L 105 405 L 106 402 L 105 399 Z M 116 399 L 116 402 L 117 402 Q 118 398 116 399 Z M 206 399 L 206 403 L 208 404 L 207 402 L 208 400 L 206 399 Z M 211 399 L 209 401 Q 208 405 211 404 L 212 408 L 214 402 L 214 399 L 212 403 L 211 399 Z M 216 399 L 214 407 L 212 409 L 214 411 L 217 403 L 216 399 Z M 220 399 L 218 401 L 219 406 L 221 405 L 220 399 Z M 223 399 Q 224 403 221 406 L 223 409 L 223 407 L 225 408 L 223 411 L 225 413 L 227 408 L 224 405 L 225 404 Q 227 398 223 399 Z M 242 399 L 242 404 Q 241 406 244 405 L 242 399 Z M 276 399 L 273 403 L 277 401 Q 278 398 276 399 Z M 292 399 L 291 402 L 293 402 L 294 400 L 292 399 Z M 306 399 L 305 402 L 306 404 L 308 400 L 306 399 Z M 204 400 L 200 411 L 201 414 L 204 408 L 204 410 L 206 411 L 205 409 L 206 405 L 204 404 L 204 400 Z M 267 400 L 265 403 L 267 402 L 267 404 L 269 405 L 267 400 Z M 286 400 L 283 404 L 282 409 L 283 411 L 284 408 L 284 406 L 286 403 Q 288 401 286 400 Z M 155 401 L 155 406 L 157 406 Q 156 408 159 407 L 160 402 L 158 402 Q 159 405 157 404 L 155 401 Z M 172 401 L 169 405 Q 167 410 171 409 L 170 408 L 172 403 L 172 401 Z M 304 401 L 300 407 L 302 409 L 304 405 L 304 401 Z M 312 401 L 308 408 Q 307 410 310 409 L 312 403 L 312 401 Z M 318 401 L 314 410 L 313 410 L 314 407 L 312 406 L 310 411 L 308 410 L 307 412 L 304 414 L 301 419 L 302 420 L 304 416 L 305 416 L 303 420 L 305 420 L 307 414 L 309 413 L 306 420 L 309 420 L 310 416 Q 308 410 314 412 L 320 402 L 318 401 Z M 255 402 L 253 404 Q 252 406 255 405 L 255 402 Z M 321 402 L 321 406 L 319 409 L 320 412 L 323 407 Q 324 402 321 402 Z M 128 403 L 130 406 L 130 405 L 128 403 Z M 174 403 L 172 405 L 174 405 L 174 403 Z M 237 403 L 237 407 Q 238 409 236 408 L 234 411 L 237 413 L 236 411 Q 235 408 238 409 Q 239 404 237 403 Z M 248 403 L 248 406 Q 251 405 248 403 Z M 250 403 L 251 408 L 252 408 Q 254 402 250 403 Z M 291 403 L 290 406 L 291 406 L 291 403 Z M 103 404 L 102 406 L 107 410 Q 111 411 112 409 L 112 404 L 111 408 L 110 407 L 109 409 L 103 404 Z M 131 404 L 132 407 L 133 405 L 131 404 Z M 150 404 L 151 406 Q 152 403 150 404 Z M 218 404 L 216 408 L 218 408 L 218 404 Z M 229 404 L 227 411 Q 225 416 229 415 Q 228 409 231 407 Q 232 403 229 404 Z M 241 404 L 240 409 L 242 408 L 241 404 Z M 194 405 L 192 408 L 194 408 L 194 405 Z M 208 405 L 209 410 L 210 408 Q 211 404 208 405 Z M 282 405 L 280 409 Q 278 410 281 411 L 282 408 L 282 405 Z M 171 406 L 171 408 L 173 407 L 171 406 Z M 199 406 L 198 410 L 199 410 L 199 406 Z M 247 406 L 243 407 L 242 410 L 243 413 L 242 415 L 248 412 L 247 406 Z M 261 406 L 260 408 L 251 415 L 247 419 L 246 426 L 254 423 L 262 426 L 274 426 L 279 427 L 277 422 L 267 414 L 265 411 L 262 409 L 261 406 Z M 220 407 L 218 409 L 219 412 L 219 410 L 221 410 L 220 407 Z M 233 407 L 231 409 Q 230 412 233 411 L 233 407 Z M 287 407 L 285 411 L 287 410 L 287 407 Z M 304 407 L 302 410 L 303 412 L 304 410 L 304 407 Z M 327 407 L 325 409 L 327 410 L 327 407 Z M 116 408 L 115 410 L 109 412 L 106 432 L 104 436 L 105 437 L 108 435 Q 106 423 111 417 Q 110 414 113 415 Q 114 413 115 416 L 111 421 L 110 451 L 107 464 L 104 465 L 108 450 L 108 448 L 104 453 L 104 457 L 99 470 Q 98 472 101 471 Q 102 469 104 472 L 113 461 L 111 460 L 111 453 L 112 452 Q 109 448 111 440 L 115 437 L 117 437 L 117 436 L 116 433 L 117 432 L 117 422 L 119 420 Q 120 414 116 414 L 116 408 Z M 249 408 L 249 410 L 251 409 L 249 408 Z M 268 408 L 268 410 L 270 409 L 268 408 Z M 288 408 L 287 411 L 288 413 L 290 410 Q 291 407 288 408 Z M 324 408 L 323 413 L 318 421 L 320 421 L 325 412 L 324 408 Z M 122 409 L 120 413 L 122 413 L 122 409 Z M 165 409 L 164 411 L 163 410 Q 160 409 161 412 L 164 413 L 166 412 L 165 409 Z M 178 409 L 178 411 L 180 410 L 178 409 Z M 197 409 L 195 411 L 197 411 L 197 409 Z M 272 409 Q 269 411 272 412 L 273 410 L 272 409 Z M 301 409 L 297 414 L 296 418 L 298 418 L 301 412 L 301 409 Z M 329 409 L 327 416 L 328 417 L 330 413 L 329 409 Z M 127 410 L 126 414 L 127 414 L 127 410 Z M 131 410 L 132 414 L 133 411 L 131 410 Z M 146 410 L 142 419 L 143 420 L 146 413 Q 148 411 146 410 Z M 172 410 L 172 411 L 175 411 L 172 410 Z M 208 410 L 205 417 L 205 419 Q 203 424 207 423 L 208 424 L 208 420 L 207 422 L 206 422 L 208 415 L 208 410 Z M 211 410 L 210 413 L 211 413 L 211 410 Z M 217 410 L 215 413 L 217 412 L 217 410 Z M 222 410 L 220 412 L 222 412 L 222 410 Z M 332 410 L 330 414 L 331 417 L 332 415 L 332 410 Z M 159 411 L 155 418 L 157 418 L 160 413 Q 161 410 159 411 Z M 183 411 L 181 413 L 183 413 L 183 411 Z M 188 411 Q 185 415 189 414 L 188 411 Z M 198 411 L 196 414 L 198 413 L 198 411 Z M 238 411 L 239 417 L 236 419 L 235 418 L 235 416 L 233 415 L 234 419 L 234 420 L 232 417 L 231 421 L 230 418 L 228 417 L 229 421 L 229 422 L 226 421 L 225 418 L 224 418 L 226 424 L 231 424 L 240 418 L 242 415 L 240 415 L 240 411 L 238 411 Z M 275 411 L 273 414 L 275 415 L 275 411 Z M 148 412 L 145 418 L 147 418 L 148 415 L 148 412 Z M 154 412 L 153 416 L 155 416 L 156 414 Q 157 411 154 412 Z M 231 412 L 230 416 L 232 415 L 231 412 Z M 141 413 L 138 419 L 140 419 L 141 416 L 141 413 Z M 203 413 L 201 415 Q 200 418 203 417 L 204 418 L 203 413 Z M 210 413 L 208 417 L 210 416 L 210 413 Z M 224 413 L 223 417 L 224 417 L 224 413 Z M 132 414 L 132 416 L 134 415 L 132 414 Z M 173 414 L 171 416 L 172 421 L 173 418 L 173 414 Z M 190 414 L 188 417 L 190 417 L 190 414 Z M 197 414 L 198 418 Q 197 420 200 419 L 199 417 Q 200 413 197 414 Z M 213 414 Q 208 416 211 418 L 209 422 Q 208 425 211 424 L 213 417 L 213 414 Z M 293 414 L 291 417 L 293 417 L 293 414 Z M 301 414 L 299 417 L 300 419 L 301 417 L 301 414 Z M 187 415 L 185 420 L 187 419 L 187 415 Z M 226 415 L 226 418 L 227 418 Q 228 414 226 415 Z M 276 415 L 275 417 L 280 420 L 280 419 L 276 415 Z M 179 416 Q 177 419 180 418 L 179 416 Z M 313 416 L 313 420 L 315 419 Q 316 415 313 416 Z M 325 416 L 323 419 L 325 418 L 325 416 Z M 126 417 L 124 420 L 126 419 L 126 417 Z M 223 417 L 221 419 L 223 419 L 223 417 Z M 293 417 Q 292 420 295 419 Q 296 416 293 417 Z M 158 418 L 156 421 L 159 422 L 158 418 Z M 190 418 L 188 421 L 190 420 L 190 418 Z M 168 419 L 166 422 L 168 421 L 168 419 Z M 195 419 L 193 421 L 195 421 L 195 419 Z M 173 420 L 173 422 L 173 423 Q 175 424 174 421 L 176 421 L 173 420 Z M 325 420 L 323 424 Q 326 425 325 423 L 327 423 L 328 421 L 327 421 L 325 420 Z M 162 421 L 162 423 L 165 422 L 162 421 Z M 171 421 L 169 423 L 171 423 L 171 421 Z M 202 421 L 201 427 L 200 425 L 199 428 L 198 430 L 202 429 Q 204 428 202 427 L 207 426 Q 208 422 203 424 L 204 422 L 202 421 Z M 242 421 L 240 423 L 242 428 L 243 424 L 242 421 Z M 285 421 L 284 423 L 282 424 L 284 430 L 285 430 L 285 421 Z M 81 422 L 78 424 L 84 427 L 92 427 L 95 429 Q 100 428 102 430 L 103 426 L 98 423 L 92 426 L 81 422 Z M 127 422 L 128 424 L 129 424 L 127 422 Z M 176 422 L 174 425 L 172 424 L 173 426 Q 178 428 177 425 L 177 423 L 176 422 Z M 192 422 L 193 425 L 194 423 L 192 422 Z M 196 422 L 194 425 L 196 424 L 196 422 Z M 220 422 L 218 424 L 219 426 L 220 424 L 220 422 Z M 290 422 L 289 425 L 290 425 L 290 422 Z M 225 423 L 223 425 L 226 425 L 225 423 Z M 314 423 L 314 425 L 316 424 L 314 423 Z M 318 423 L 315 432 L 317 432 Q 319 431 317 430 L 318 426 L 318 423 Z M 169 424 L 167 426 L 169 426 L 169 424 Z M 306 424 L 305 428 L 306 428 L 306 424 Z M 330 424 L 327 430 Q 323 431 327 433 L 329 428 Q 333 426 330 424 Z M 120 425 L 120 436 L 121 437 L 118 457 L 104 475 L 102 474 L 96 477 L 94 480 L 105 479 L 111 476 L 119 466 L 123 448 L 123 438 L 126 436 L 126 444 L 123 453 L 123 460 L 118 475 L 118 479 L 115 484 L 113 486 L 108 486 L 104 488 L 103 490 Q 108 491 109 488 L 115 488 L 120 485 L 123 481 L 120 480 L 128 459 L 128 449 L 130 448 L 131 448 L 131 456 L 130 457 L 131 461 L 131 459 L 134 460 L 136 454 L 135 444 L 132 445 L 128 438 Q 130 436 129 432 L 131 429 L 130 426 L 127 426 L 127 433 Q 126 436 124 433 Q 123 428 125 427 L 125 425 L 120 425 Z M 211 425 L 210 429 L 210 431 Q 211 435 208 437 L 210 437 L 212 432 L 211 425 Z M 135 426 L 133 430 L 137 433 L 145 437 L 143 435 Q 142 430 145 429 L 145 426 L 142 430 Q 143 434 141 433 L 138 428 L 137 428 Q 138 431 135 430 L 135 426 Z M 162 426 L 160 429 L 162 428 L 162 426 Z M 253 426 L 252 427 Q 248 426 249 429 L 251 428 L 253 429 Q 255 428 254 432 L 264 429 L 258 428 L 253 426 Z M 299 426 L 297 430 L 298 432 L 299 430 L 299 426 Z M 164 427 L 162 429 L 167 432 Q 168 429 166 430 L 164 427 Z M 170 427 L 170 429 L 173 430 L 175 430 L 170 427 Z M 191 427 L 191 430 L 193 429 Q 194 426 191 427 Z M 204 427 L 200 438 Q 199 441 202 440 L 202 437 L 206 428 L 204 427 Z M 208 427 L 205 431 L 206 434 L 208 429 L 208 427 Z M 230 427 L 225 448 L 225 451 Q 222 450 223 453 L 231 449 L 229 448 L 232 434 Q 234 426 230 427 Z M 237 427 L 234 436 L 235 440 L 236 439 Q 235 433 237 432 L 237 427 Z M 322 427 L 318 432 L 319 434 L 323 428 L 322 427 Z M 65 428 L 60 434 L 61 441 L 57 443 Q 56 445 59 444 L 56 449 L 57 452 Q 58 454 62 453 L 62 462 L 63 463 Q 64 467 62 468 L 58 463 L 56 468 L 53 467 L 46 469 L 44 466 L 36 467 L 34 472 L 31 474 L 31 476 L 25 479 L 26 483 L 28 478 L 32 477 Q 35 479 30 482 L 31 484 L 33 483 L 36 484 L 41 482 L 45 484 L 47 484 L 54 478 L 61 477 L 63 477 L 65 476 L 70 479 Q 67 481 60 480 L 60 481 Q 64 479 63 483 Q 61 486 56 485 L 54 488 L 63 485 L 66 486 L 81 480 L 87 472 Q 88 467 86 468 L 84 468 L 76 466 L 74 468 L 71 467 L 69 468 L 65 467 L 64 465 L 65 456 Q 66 452 71 453 L 75 458 L 78 454 L 80 454 L 80 449 L 73 448 L 74 442 L 79 439 L 78 437 L 71 431 Q 72 427 68 429 Q 66 431 65 428 Z M 179 428 L 177 430 L 179 430 L 179 428 Z M 247 428 L 245 430 L 247 430 L 247 428 Z M 265 428 Q 264 431 267 430 L 269 435 L 271 432 Q 276 431 277 434 L 276 437 L 279 438 L 280 435 L 279 429 L 265 428 Z M 287 428 L 288 432 L 289 430 Q 290 427 287 428 Z M 290 428 L 291 431 L 292 429 L 290 428 Z M 324 428 L 322 431 L 325 431 L 326 429 L 324 428 Z M 146 429 L 145 433 L 147 432 Q 148 428 146 429 Z M 224 429 L 219 436 L 223 442 Q 222 433 226 430 L 224 429 Z M 241 429 L 239 434 L 240 440 L 241 435 L 241 429 Z M 311 429 L 309 432 L 311 431 L 311 429 Z M 313 429 L 311 432 L 313 432 L 313 429 Z M 331 429 L 329 432 L 331 431 L 331 429 Z M 197 430 L 194 437 Q 193 440 196 439 L 197 435 L 197 430 Z M 209 430 L 205 438 L 202 450 L 203 451 L 209 434 L 209 430 Z M 285 431 L 283 435 L 285 442 Q 284 438 287 437 L 287 432 L 286 435 L 285 431 Z M 56 432 L 54 434 Q 52 439 56 438 L 55 437 L 56 435 L 56 432 Z M 154 432 L 153 434 L 156 435 L 156 433 L 154 432 Z M 179 432 L 179 434 L 181 433 L 179 432 Z M 290 432 L 288 436 L 289 438 L 290 435 Q 292 433 290 432 Z M 302 432 L 303 436 L 304 434 Q 305 431 302 432 Z M 324 432 L 321 436 L 324 434 L 324 432 Z M 132 433 L 132 435 L 131 437 L 134 442 Q 133 437 136 436 L 132 433 Z M 213 433 L 208 444 L 209 445 L 213 436 L 213 433 Z M 326 433 L 320 442 Q 319 444 322 443 Q 322 438 326 435 L 326 433 Z M 329 433 L 325 439 Q 328 440 327 437 L 330 437 L 329 436 L 330 434 L 329 433 Z M 318 434 L 316 437 L 318 436 L 318 434 Z M 163 435 L 163 438 Q 166 437 163 435 Z M 190 435 L 188 437 Q 189 440 186 439 Q 185 443 188 442 L 190 438 L 190 435 Z M 193 435 L 191 437 Q 192 441 190 440 Q 191 442 188 444 Q 187 447 190 448 L 193 437 L 193 435 Z M 253 435 L 253 439 Q 247 441 249 436 L 244 436 L 244 438 L 246 437 Q 250 439 247 441 L 244 440 L 243 443 L 246 442 L 256 444 L 261 442 Q 265 443 264 440 L 267 440 L 265 439 L 265 437 L 264 439 Q 264 442 260 441 Q 256 440 257 436 L 259 436 L 253 435 Z M 137 436 L 137 449 L 138 450 L 137 461 L 134 468 L 132 478 L 129 479 L 130 477 L 130 473 L 125 482 Q 122 487 115 489 L 115 490 L 119 490 L 128 486 L 135 476 L 141 459 L 139 448 Q 138 440 142 439 L 137 436 Z M 153 436 L 153 438 L 155 437 L 153 436 Z M 181 436 Q 180 439 183 438 Q 184 435 181 436 Z M 302 436 L 300 439 L 302 439 L 302 436 Z M 308 436 L 302 447 Q 303 452 300 454 L 300 459 L 298 462 L 299 465 L 303 457 L 303 451 L 307 446 L 309 439 L 308 436 Z M 319 436 L 317 439 L 316 437 L 314 441 L 316 440 L 315 442 L 313 438 L 312 444 L 314 443 L 315 445 L 319 439 L 320 441 L 321 439 L 321 436 L 320 438 L 319 436 Z M 108 437 L 104 448 L 106 447 Q 108 448 107 446 L 108 443 L 108 437 Z M 146 437 L 147 439 Q 148 436 146 437 Z M 171 437 L 172 438 L 173 439 Q 174 436 171 437 Z M 204 437 L 203 440 L 204 440 L 204 437 Z M 214 438 L 213 441 L 214 441 L 214 438 Z M 288 438 L 286 440 L 288 441 L 288 438 Z M 52 439 L 50 441 L 52 443 L 54 440 L 52 439 Z M 117 439 L 115 441 L 116 454 L 117 449 L 117 439 Z M 148 439 L 148 442 L 150 441 Q 151 438 148 439 Z M 160 439 L 158 441 Q 157 443 160 442 L 160 439 Z M 178 439 L 176 441 L 178 441 L 178 439 Z M 185 439 L 184 442 L 185 442 L 185 439 Z M 103 440 L 98 451 L 99 453 L 103 445 L 103 440 Z M 146 440 L 143 441 L 142 446 L 145 445 L 146 447 L 147 444 Q 150 442 146 440 Z M 194 440 L 192 443 Q 191 446 194 445 L 194 440 Z M 198 440 L 196 443 L 198 443 L 198 440 Z M 237 440 L 236 443 L 236 446 Q 231 444 232 448 L 238 447 L 239 444 Q 240 439 237 440 Z M 274 440 L 275 443 L 272 446 L 273 447 L 268 449 L 267 445 L 261 449 L 269 452 L 274 450 L 276 451 L 279 443 L 279 440 L 274 440 Z M 298 440 L 298 442 Q 294 443 297 445 L 294 450 L 290 463 L 291 467 L 297 447 L 298 447 L 297 449 L 298 450 L 299 449 Q 297 442 300 441 L 298 440 Z M 199 441 L 198 445 Q 197 447 200 446 L 201 442 L 199 441 Z M 97 442 L 93 446 L 94 448 L 92 453 Q 90 451 88 455 Q 87 458 90 459 L 92 459 Q 91 456 94 457 L 96 448 L 98 446 L 97 442 Z M 149 442 L 149 444 L 151 445 Q 152 441 149 442 Z M 163 442 L 161 446 L 162 448 L 163 446 L 163 442 Z M 171 442 L 169 444 L 171 444 L 171 442 Z M 177 442 L 176 445 L 177 445 L 177 442 Z M 180 442 L 177 448 L 180 447 Q 182 448 181 446 L 180 446 L 180 445 L 180 442 Z M 186 442 L 186 446 L 186 445 Q 188 443 186 442 Z M 201 442 L 201 444 L 203 443 L 201 442 Z M 213 442 L 211 444 L 213 444 L 213 442 Z M 216 442 L 214 445 L 216 444 L 216 442 Z M 284 442 L 282 445 Q 281 447 284 446 L 284 442 Z M 318 443 Q 313 445 317 448 L 314 449 L 314 448 L 314 445 L 313 447 L 312 444 L 309 448 L 311 448 L 307 457 L 305 457 L 306 459 L 302 467 L 303 468 L 305 466 L 313 450 L 313 452 L 315 451 L 316 453 L 320 447 L 320 444 L 318 443 Z M 52 444 L 49 446 L 46 450 Q 48 449 47 453 Q 48 456 53 455 L 51 450 L 53 447 Q 54 443 52 444 Z M 222 444 L 219 449 L 220 451 L 222 447 L 222 444 Z M 200 446 L 200 448 L 202 447 L 200 446 Z M 252 446 L 253 447 L 254 448 Q 255 445 252 446 Z M 294 446 L 288 461 L 289 465 L 294 448 L 294 446 Z M 324 446 L 324 449 L 326 448 Q 327 445 324 446 Z M 169 447 L 167 449 L 168 451 L 169 449 L 169 452 L 170 452 Q 171 448 169 447 Z M 198 447 L 196 450 L 198 451 L 198 447 Z M 286 447 L 285 449 L 287 448 L 286 447 Z M 87 448 L 85 451 Q 86 454 82 452 L 80 457 L 77 458 Q 74 457 75 460 L 72 460 Q 70 458 69 461 L 70 464 L 72 463 L 76 464 L 77 464 L 77 461 Q 80 462 79 459 Q 83 458 84 461 L 83 463 L 85 465 L 87 462 L 85 457 L 83 457 L 85 454 L 89 451 L 87 448 Z M 188 448 L 184 461 L 185 463 Q 188 458 188 451 Q 190 449 188 448 Z M 194 448 L 193 451 L 194 451 L 194 448 Z M 309 448 L 306 453 L 307 455 L 309 452 L 309 448 Z M 329 448 L 330 453 L 332 454 L 331 451 Q 332 447 329 448 Z M 142 449 Q 141 452 144 451 Q 145 448 142 449 Z M 163 449 L 161 451 L 162 453 L 163 451 L 163 449 Z M 211 449 L 210 452 L 211 452 L 211 449 Z M 103 450 L 101 452 L 102 454 L 103 452 L 103 450 Z M 154 450 L 152 453 L 154 452 L 154 450 Z M 181 450 Q 179 453 182 452 L 181 450 Z M 191 450 L 189 454 Q 188 456 191 455 L 191 450 Z M 280 450 L 280 453 L 282 452 Q 283 449 280 450 Z M 164 451 L 162 455 L 164 454 L 164 451 Z M 167 451 L 162 459 L 163 460 L 167 453 L 167 451 Z M 219 451 L 217 453 L 218 459 L 219 456 L 219 451 Z M 252 451 L 250 454 L 253 452 L 252 451 Z M 289 451 L 288 454 L 289 454 L 289 451 Z M 320 451 L 318 454 L 320 453 L 320 451 Z M 156 452 L 154 458 L 155 459 L 158 454 Q 159 451 156 452 Z M 197 452 L 195 454 L 196 456 L 197 454 L 197 452 Z M 201 452 L 200 455 L 201 457 L 203 454 Q 204 451 201 452 Z M 205 452 L 203 455 L 205 455 L 205 452 Z M 256 452 Q 255 455 258 454 Q 259 451 256 452 Z M 278 452 L 269 456 L 270 458 L 276 454 L 278 454 L 278 452 Z M 323 452 L 321 455 L 323 456 L 323 452 Z M 183 453 L 182 456 L 183 456 L 183 453 Z M 207 453 L 206 457 L 207 457 L 207 453 Z M 260 453 L 261 456 L 263 456 L 260 453 Z M 286 453 L 284 455 L 286 456 L 286 453 Z M 313 453 L 311 456 L 313 455 L 313 453 Z M 101 454 L 98 458 L 95 471 L 93 474 L 91 477 L 90 479 L 97 475 L 99 472 L 97 473 L 95 473 L 98 469 L 99 462 L 101 458 L 101 454 Z M 115 454 L 114 457 L 115 457 L 115 454 Z M 145 454 L 144 459 L 145 464 L 147 456 Q 148 453 145 454 Z M 149 454 L 147 458 L 148 460 L 149 458 L 149 454 Z M 242 454 L 240 456 L 242 456 L 242 454 Z M 315 454 L 309 465 L 310 467 L 316 455 L 315 454 Z M 171 455 L 170 458 L 171 458 L 171 455 Z M 252 455 L 248 459 L 250 463 L 249 470 L 244 474 L 240 473 L 238 474 L 239 476 L 250 479 L 249 474 L 249 472 L 250 470 L 257 464 L 271 461 L 272 459 L 270 460 L 261 459 L 252 455 Z M 177 456 L 176 461 L 177 461 L 177 456 Z M 213 456 L 213 459 Q 216 458 213 456 Z M 280 456 L 277 458 Q 279 461 280 458 L 280 456 Z M 288 456 L 286 458 L 288 458 L 288 456 Z M 322 456 L 320 458 Q 319 460 322 459 L 322 456 Z M 151 457 L 148 463 L 149 465 L 151 461 L 151 457 Z M 161 457 L 159 459 L 160 461 L 161 459 L 161 457 Z M 195 457 L 194 460 L 195 460 L 195 457 Z M 225 457 Q 225 460 223 459 L 224 461 Q 228 459 225 457 Z M 231 457 Q 230 460 233 459 Q 234 456 231 457 Z M 281 457 L 281 459 L 283 458 L 281 457 Z M 311 457 L 309 460 L 311 459 L 311 457 Z M 165 458 L 164 463 L 165 465 L 167 460 Q 168 457 165 458 Z M 183 458 L 181 463 L 183 462 L 183 458 Z M 242 458 L 240 463 L 242 462 L 242 458 Z M 305 458 L 303 460 L 304 462 L 305 460 L 305 458 Z M 316 458 L 314 462 L 316 461 L 316 458 Z M 157 459 L 155 463 L 157 462 L 157 459 Z M 171 459 L 172 464 L 173 464 Q 175 458 171 459 Z M 203 459 L 201 462 L 203 461 L 203 459 Z M 212 459 L 210 462 L 212 462 L 212 459 Z M 217 459 L 213 466 L 215 468 L 217 462 L 217 459 Z M 244 459 L 243 462 L 244 462 L 244 459 Z M 284 459 L 282 461 Q 281 463 284 462 L 284 459 Z M 287 459 L 285 463 Q 283 464 286 465 L 287 462 L 287 459 Z M 188 460 L 187 463 L 188 463 L 188 460 Z M 191 460 L 189 463 L 190 467 L 191 463 L 191 460 Z M 277 460 L 277 462 L 279 461 L 277 460 Z M 333 460 L 332 466 L 334 465 Q 335 461 333 460 Z M 130 461 L 126 471 L 127 473 L 131 465 L 130 461 Z M 294 461 Q 292 464 295 463 L 294 461 Z M 309 461 L 307 464 L 310 462 L 309 461 Z M 327 461 L 324 462 L 323 465 L 324 468 L 328 467 L 331 468 Q 334 467 331 465 L 326 466 Q 325 463 329 464 Q 331 460 327 461 Z M 94 462 L 92 465 L 93 467 L 94 465 L 94 462 Z M 152 462 L 151 465 L 152 465 L 152 462 Z M 197 462 L 195 464 L 196 466 L 197 464 L 197 462 Z M 233 462 L 233 465 L 235 464 Q 236 461 233 462 Z M 177 463 L 176 472 L 177 472 L 177 463 Z M 278 463 L 276 467 L 278 466 L 278 463 Z M 283 463 L 281 466 L 283 465 L 283 463 Z M 187 464 L 186 468 L 187 468 L 187 464 Z M 272 464 L 271 467 L 272 467 L 272 464 Z M 313 464 L 310 469 L 311 470 L 313 467 L 313 464 Z M 142 465 L 141 468 L 143 470 L 144 467 Q 145 464 142 465 Z M 146 465 L 143 472 L 144 473 L 146 469 L 146 465 Z M 173 465 L 172 469 L 173 469 L 173 465 Z M 201 465 L 200 469 L 201 469 L 201 465 Z M 270 465 L 267 469 Q 266 471 269 470 L 270 467 L 270 465 Z M 285 465 L 283 469 L 284 473 L 285 469 L 285 465 Z M 307 465 L 306 467 Q 302 468 305 470 L 303 473 L 306 472 L 304 476 L 305 478 L 309 469 L 309 467 L 307 470 L 306 470 L 307 468 L 307 465 Z M 158 466 L 157 469 L 158 469 L 158 466 Z M 220 466 L 219 469 L 220 469 L 220 466 Z M 92 467 L 90 469 L 91 474 L 92 471 L 92 467 Z M 189 467 L 187 470 Q 186 472 189 471 L 189 467 Z M 191 467 L 190 470 L 191 472 L 193 468 L 191 467 Z M 203 467 L 201 475 L 199 478 L 201 478 L 203 472 L 203 467 Z M 282 467 L 280 471 L 277 470 Q 276 473 279 472 L 280 475 Q 282 474 280 473 L 282 469 L 282 467 Z M 314 467 L 314 469 L 317 468 L 314 467 Z M 148 468 L 146 471 L 148 470 L 148 468 Z M 195 468 L 193 472 L 195 471 L 195 468 Z M 263 468 L 263 471 Q 266 470 263 468 Z M 270 468 L 271 471 L 272 469 L 270 468 Z M 275 468 L 274 471 L 275 475 L 277 469 L 275 468 Z M 286 468 L 285 471 Q 284 473 287 472 L 288 469 L 286 468 Z M 290 468 L 288 471 L 289 475 L 290 472 L 290 468 Z M 291 468 Q 290 471 293 470 Q 294 467 291 468 Z M 301 468 L 300 470 L 300 472 L 302 472 Q 305 470 301 468 Z M 141 469 L 140 472 L 141 472 L 141 469 Z M 182 469 L 181 472 L 182 472 L 182 469 Z M 210 469 L 209 472 L 210 472 L 210 469 Z M 241 469 L 243 472 L 245 471 L 241 469 Z M 321 469 L 321 472 L 323 471 Q 324 468 321 469 Z M 186 470 L 185 473 L 186 473 L 186 470 Z M 197 470 L 195 473 L 197 473 Q 200 472 197 470 Z M 234 470 L 233 473 L 234 473 L 234 470 Z M 267 470 L 265 472 L 268 473 L 267 470 Z M 162 471 L 160 474 L 162 475 L 162 471 Z M 271 471 Q 270 474 273 473 Q 274 470 271 471 Z M 332 471 L 330 473 Q 329 477 332 476 L 332 471 Z M 140 472 L 138 478 L 137 481 L 138 482 L 139 481 Q 138 476 140 475 L 140 472 Z M 199 472 L 197 476 Q 196 478 199 477 L 200 475 L 199 472 Z M 214 472 L 211 475 L 213 476 L 210 482 L 211 485 L 220 487 L 219 485 Q 220 481 218 482 Q 213 479 214 472 Z M 292 472 L 289 478 L 291 478 L 292 476 L 292 472 Z M 116 473 L 114 476 L 110 479 L 99 482 L 97 481 L 94 483 L 99 484 Q 101 483 100 486 L 112 484 L 116 476 L 116 473 Z M 168 473 L 169 475 Q 170 472 168 473 Z M 174 473 L 172 475 L 172 483 L 174 484 L 173 481 Q 172 476 174 475 L 174 473 Z M 182 473 L 181 477 L 182 477 L 182 473 Z M 188 473 L 186 475 L 187 477 L 188 475 L 188 473 Z M 299 473 L 298 476 L 298 477 L 300 476 L 299 473 Z M 303 473 L 299 479 L 300 482 L 303 477 L 303 473 Z M 23 474 L 20 478 L 21 481 L 26 475 L 23 474 Z M 89 474 L 83 481 L 85 481 L 90 475 L 89 474 Z M 190 474 L 188 478 L 190 477 L 190 474 Z M 229 474 L 228 477 L 229 477 L 229 474 Z M 321 474 L 319 476 Q 318 479 322 477 Q 323 473 321 474 Z M 325 474 L 326 476 Q 327 473 325 474 Z M 144 475 L 142 478 L 141 490 L 140 491 L 141 493 L 142 492 L 143 483 L 143 481 L 144 478 L 144 475 Z M 164 475 Q 164 478 161 477 Q 160 480 164 479 L 164 475 Z M 196 475 L 192 485 Q 191 487 194 486 Q 193 481 196 479 L 196 475 Z M 279 475 L 279 479 L 279 478 Q 281 476 279 475 Z M 141 476 L 140 479 L 141 479 L 141 476 Z M 185 476 L 182 480 L 183 482 L 185 478 L 185 476 Z M 277 476 L 275 479 L 277 478 L 277 476 Z M 155 477 L 154 480 L 155 480 L 155 477 Z M 185 478 L 184 482 L 185 483 L 187 480 Q 188 477 185 478 Z M 197 478 L 196 481 L 197 482 L 199 479 L 197 478 Z M 273 478 L 271 482 Q 274 483 273 481 Q 275 479 273 478 Z M 312 478 L 310 480 L 312 480 L 312 478 Z M 328 478 Q 326 480 322 479 L 321 481 L 324 480 Q 329 479 331 481 L 332 478 L 330 479 L 328 478 Z M 238 479 Q 236 482 239 481 L 238 479 Z M 251 479 L 249 487 L 251 487 Q 254 488 254 493 L 253 495 L 261 494 L 262 495 L 260 492 L 265 490 L 268 489 L 267 485 L 264 489 Q 259 490 259 486 L 256 488 L 253 486 Q 254 480 251 479 Z M 168 480 L 166 482 L 167 485 Q 166 487 169 486 L 168 483 L 169 481 L 168 480 Z M 200 480 L 198 483 L 200 482 L 200 480 Z M 292 480 L 290 483 L 292 483 Q 295 482 292 480 Z M 307 480 L 305 484 Q 308 485 307 483 Q 309 481 307 480 Z M 10 481 L 10 484 L 15 483 L 15 481 L 10 481 Z M 20 481 L 15 485 Q 16 487 14 486 L 15 488 L 18 486 L 22 487 L 25 486 L 23 485 L 20 481 Z M 88 481 L 87 483 L 89 482 L 88 481 Z M 140 481 L 139 485 L 140 485 L 140 481 Z M 146 481 L 144 485 L 145 488 L 146 485 L 146 481 Z M 204 481 L 203 485 L 204 485 L 204 481 Z M 283 481 L 284 483 L 286 482 L 283 481 Z M 301 481 L 300 484 L 301 486 L 303 482 L 301 481 Z M 152 482 L 150 485 L 152 484 L 152 482 Z M 155 482 L 154 485 L 155 485 L 155 482 Z M 180 482 L 178 485 L 179 488 L 180 486 L 180 482 Z M 295 482 L 296 484 Q 297 481 295 482 Z M 81 483 L 77 484 L 79 489 L 81 488 Q 84 488 83 484 L 81 483 Z M 133 483 L 131 487 L 133 486 L 133 483 Z M 196 483 L 194 488 L 195 489 L 198 484 L 196 483 Z M 271 483 L 271 486 L 273 485 Q 274 482 271 483 Z M 311 483 L 306 488 Q 305 490 308 489 L 311 485 L 311 483 Z M 326 483 L 326 485 L 319 485 L 317 485 Q 316 487 319 486 L 319 488 L 317 487 L 315 491 L 308 496 L 304 497 Q 301 498 302 503 L 298 502 L 295 504 Q 288 506 290 500 Q 287 499 288 502 L 283 504 L 281 502 L 281 500 L 280 497 L 278 501 L 275 502 L 270 501 L 271 504 Q 267 503 266 506 L 252 506 L 251 507 Q 249 504 243 506 L 241 506 L 240 505 L 228 505 L 211 500 Q 208 501 209 498 L 213 498 L 204 495 L 203 501 L 198 503 L 199 500 L 197 501 L 195 500 L 187 504 Q 191 506 198 505 L 209 510 L 206 512 L 196 507 L 182 507 L 180 506 L 177 510 L 173 513 L 168 521 L 163 520 L 162 514 L 158 521 L 155 520 L 154 516 L 151 517 Q 145 516 143 511 L 141 512 L 137 503 L 131 506 L 127 505 L 119 510 L 117 510 L 117 514 L 125 512 L 141 513 L 145 515 L 146 518 L 144 520 Q 134 518 131 523 L 129 526 L 133 527 L 136 526 L 138 527 L 146 523 L 148 520 L 148 518 L 153 518 L 151 525 L 145 529 L 138 529 L 136 529 L 131 530 L 126 528 L 124 524 L 120 526 L 118 526 Q 108 525 103 528 Q 97 530 96 527 L 91 530 L 89 529 L 81 531 L 76 531 L 68 528 L 64 524 L 63 524 L 55 522 L 52 523 L 48 522 L 44 523 L 39 522 L 38 525 Q 37 527 34 526 L 32 526 L 29 527 Q 26 528 27 525 L 30 524 L 33 525 L 33 521 L 40 520 L 31 519 L 29 522 Q 19 521 14 524 L 11 523 L 9 528 L 10 529 L 10 542 L 21 542 L 22 543 L 37 541 L 39 541 L 46 536 Q 50 535 52 537 Q 55 535 63 536 L 64 535 L 74 536 L 76 536 L 85 536 L 85 534 L 96 532 L 103 532 L 105 532 L 122 532 L 122 534 L 120 533 L 119 534 L 105 534 L 104 535 L 103 534 L 92 534 L 89 538 Q 88 540 87 538 L 53 538 L 52 539 L 50 538 L 46 540 L 49 541 Q 53 539 52 543 Q 51 545 50 543 L 38 543 L 35 545 L 33 544 L 10 546 L 13 546 L 15 546 L 19 547 L 20 546 L 35 546 L 37 546 L 55 546 L 56 547 L 60 546 Q 66 544 68 547 L 70 546 L 72 546 L 74 547 L 76 547 L 78 546 L 82 547 L 84 546 L 109 546 L 110 547 Q 115 549 117 546 L 126 547 L 129 546 L 131 547 L 134 546 L 136 547 L 138 546 L 144 547 L 147 546 L 151 547 L 153 547 L 157 546 L 159 546 L 162 547 L 164 547 L 165 546 L 177 546 L 181 546 L 189 546 L 190 547 L 191 546 L 250 546 L 251 545 L 253 546 L 255 545 Q 260 544 262 546 L 265 545 L 270 546 L 272 545 L 274 545 L 276 546 L 280 544 L 285 546 L 289 545 L 293 545 L 304 546 L 306 546 L 309 545 L 308 541 L 308 539 L 307 523 Q 302 522 301 525 L 302 528 Q 303 532 298 530 L 296 527 L 296 525 L 300 521 L 295 519 L 291 516 L 289 516 L 285 518 L 266 517 L 254 513 L 243 512 L 242 511 Q 232 509 229 513 L 226 513 Q 222 508 215 507 Q 211 508 212 505 L 216 506 L 218 506 Q 219 508 224 507 L 227 510 L 231 509 L 244 509 L 269 514 L 271 514 L 277 516 L 297 514 Q 298 511 296 512 L 294 508 L 304 506 L 306 507 L 306 502 L 315 498 L 317 498 Q 323 497 326 500 Q 328 499 327 502 L 322 505 L 314 505 L 313 503 L 320 502 L 320 501 Q 313 500 311 502 L 311 507 L 324 507 L 324 509 L 327 510 L 331 509 L 332 508 L 331 505 L 331 496 L 332 495 L 331 487 L 327 485 L 331 484 L 326 483 Z M 135 484 L 133 487 L 134 489 L 135 487 L 135 484 Z M 138 484 L 135 491 L 136 493 L 138 487 L 138 484 Z M 184 484 L 184 486 L 187 487 L 187 486 L 184 484 Z M 191 484 L 190 489 L 191 489 L 191 484 Z M 289 484 L 289 489 L 290 487 L 289 484 Z M 31 485 L 29 488 L 33 488 L 31 487 L 31 485 Z M 72 485 Q 71 488 74 487 Q 75 484 72 485 Z M 88 485 L 85 486 L 84 489 Q 80 488 81 491 L 84 492 L 95 492 L 96 491 L 98 492 L 99 489 L 94 487 L 91 488 L 92 486 L 88 485 Z M 181 485 L 180 488 Q 179 490 182 489 L 183 486 L 181 485 Z M 147 486 L 145 492 L 142 493 Q 143 495 140 494 L 140 496 L 139 489 L 137 492 L 138 497 L 136 496 Q 137 493 134 494 L 135 497 L 134 499 L 133 497 Q 130 499 133 500 L 142 497 L 150 491 Q 151 486 148 487 L 148 490 L 147 486 Z M 281 486 L 280 489 L 281 489 L 281 486 Z M 159 487 L 158 491 L 160 491 L 161 488 L 159 487 Z M 173 487 Q 174 490 170 489 L 171 494 L 171 493 L 173 492 L 171 495 L 172 497 L 175 489 Q 176 486 173 487 Z M 185 487 L 184 490 L 185 490 L 185 487 Z M 211 487 L 212 489 L 220 491 L 220 489 L 211 487 Z M 231 487 Q 229 490 232 489 L 233 493 L 234 491 L 233 488 L 231 487 Z M 311 487 L 310 490 L 311 491 L 313 488 L 311 487 Z M 18 488 Q 16 491 19 490 L 18 488 Z M 27 488 L 26 490 L 29 489 L 27 488 Z M 66 488 L 61 489 L 59 489 Q 54 489 54 492 L 51 492 L 49 492 L 40 489 L 38 490 L 36 489 L 29 492 L 21 492 L 22 494 L 29 494 L 29 496 Q 27 497 30 498 L 31 497 L 43 497 L 46 496 L 50 497 L 50 495 L 55 494 L 57 495 Q 63 496 65 493 Q 73 492 78 494 L 78 493 Q 75 494 76 492 L 73 489 L 70 490 L 66 488 Z M 130 488 L 128 490 L 130 490 L 130 488 Z M 161 488 L 161 490 L 165 489 L 161 488 Z M 227 488 L 226 490 L 231 493 L 231 490 L 227 488 Z M 293 488 L 291 491 L 293 490 L 293 488 Z M 248 489 L 247 492 Q 246 494 249 493 L 250 494 Q 252 488 248 489 Z M 122 490 L 123 494 L 124 491 L 122 490 Z M 132 490 L 130 492 L 132 492 L 132 490 Z M 187 490 L 185 494 Q 184 496 187 495 L 187 490 Z M 205 490 L 205 492 L 214 495 L 233 499 L 242 499 L 243 498 L 252 500 L 251 496 L 247 498 L 242 495 L 239 497 Q 230 498 225 495 L 222 492 L 221 493 L 205 490 Z M 303 490 Q 300 495 304 494 L 303 490 Z M 306 490 L 306 492 L 308 491 L 306 490 Z M 12 491 L 10 494 L 12 493 L 16 494 L 19 493 L 12 491 Z M 121 491 L 118 497 L 120 497 L 121 494 L 121 491 Z M 239 491 L 237 494 L 239 493 L 239 491 Z M 100 492 L 98 493 L 92 501 L 94 501 L 95 499 L 97 496 L 102 493 L 100 492 Z M 106 492 L 105 495 L 106 495 L 106 492 Z M 116 492 L 114 497 L 116 497 L 118 493 L 116 492 Z M 235 492 Q 233 495 236 494 L 235 492 Z M 244 492 L 245 494 L 246 494 L 244 492 Z M 268 492 L 269 493 Q 270 497 268 496 L 265 497 L 261 496 L 258 497 Q 255 496 256 501 L 253 503 Q 249 501 242 502 L 241 501 L 229 501 L 225 499 Q 219 501 218 498 Q 214 497 215 500 L 223 501 L 225 501 L 229 503 L 239 503 L 240 504 L 262 504 L 263 503 L 266 504 L 267 501 Q 268 498 272 499 L 271 497 L 273 494 L 268 492 Z M 109 493 L 108 496 L 109 496 L 109 493 Z M 162 493 L 163 496 L 164 494 L 162 493 Z M 184 493 L 182 496 L 184 495 L 184 493 Z M 131 494 L 129 496 L 131 497 L 131 494 Z M 159 494 L 160 497 L 161 495 L 159 494 Z M 166 494 L 164 497 L 166 496 L 166 494 Z M 198 494 L 195 497 L 197 497 L 199 497 Q 200 493 198 494 Z M 276 494 L 274 498 L 277 498 L 278 495 L 276 494 Z M 67 495 L 63 498 Q 58 497 56 500 L 64 500 L 65 503 L 57 506 L 41 506 L 40 505 L 34 507 Q 26 505 27 509 L 24 511 L 68 511 L 70 511 Q 69 508 73 509 L 74 507 Q 75 504 80 505 L 82 505 Q 86 504 88 506 L 90 505 L 88 502 Q 87 498 91 500 L 91 496 L 89 495 Q 85 494 86 497 L 79 495 L 76 497 L 72 496 L 67 495 Z M 126 495 L 125 498 L 126 498 L 126 495 Z M 149 495 L 144 498 L 146 500 L 146 499 L 149 498 L 149 495 Z M 156 495 L 156 497 L 158 496 L 156 495 Z M 14 496 L 14 497 L 19 498 L 21 497 L 14 496 Z M 150 496 L 150 498 L 150 499 L 152 498 Q 153 495 150 496 Z M 153 496 L 153 498 L 155 497 L 153 496 Z M 170 496 L 167 501 L 168 502 L 170 498 L 170 496 Z M 185 496 L 184 501 L 184 502 L 187 501 L 186 500 L 186 499 L 185 496 Z M 191 496 L 188 500 L 191 498 L 191 496 Z M 110 497 L 110 499 L 112 498 L 110 497 Z M 177 497 L 175 499 Q 174 501 177 500 L 177 497 Z M 181 497 L 180 501 L 181 504 L 183 499 Q 184 496 181 497 Z M 102 498 L 100 500 L 102 500 L 102 498 Z M 144 498 L 142 500 L 143 504 L 144 500 L 144 498 Z M 179 498 L 177 501 L 178 504 L 179 502 L 179 498 Z M 22 499 L 21 500 L 10 500 L 10 507 L 16 506 L 25 506 L 32 504 L 42 504 L 44 504 L 47 503 L 49 503 L 53 504 L 55 504 L 55 502 L 48 501 L 46 499 Q 41 498 40 500 L 38 499 Q 33 498 32 500 L 24 499 L 22 499 Z M 121 499 L 120 502 L 121 502 L 121 499 Z M 126 499 L 124 504 L 131 503 L 132 501 L 131 500 L 129 500 L 130 502 L 129 502 L 127 502 L 126 499 Z M 164 499 L 162 502 L 164 503 L 164 499 Z M 284 499 L 285 501 Q 286 498 284 499 Z M 123 500 Q 121 503 124 502 L 123 500 Z M 159 500 L 157 502 L 159 502 L 159 500 Z M 174 500 L 172 502 Q 171 504 174 503 L 174 500 Z M 154 501 L 155 504 L 156 502 L 154 501 Z M 57 502 L 57 503 L 59 503 L 57 502 Z M 113 502 L 113 504 L 115 503 L 113 502 Z M 148 504 L 147 507 L 149 507 L 150 505 L 148 504 Z M 152 504 L 150 507 L 151 509 L 152 507 L 152 504 Z M 173 504 L 170 509 L 171 511 L 173 507 L 173 504 Z M 93 505 L 93 508 Q 96 507 93 505 Z M 143 507 Q 141 510 144 509 L 143 507 Z M 15 508 L 14 510 L 20 509 L 15 508 Z M 79 508 L 79 509 L 89 510 L 89 508 L 79 508 Z M 22 510 L 17 512 Q 9 510 10 514 Q 19 515 23 512 Q 24 509 22 510 Z M 96 510 Q 93 511 94 516 L 89 518 L 81 518 L 73 516 Q 72 519 75 518 L 75 521 L 70 524 L 83 527 L 85 527 L 95 525 L 97 526 L 102 526 L 112 523 L 116 524 Q 121 524 123 521 L 130 521 L 132 517 L 139 518 Q 140 520 141 518 L 140 516 Q 135 517 134 515 L 120 515 L 119 518 L 112 521 L 109 520 L 107 520 L 82 524 Q 78 523 79 519 L 86 519 L 87 520 L 98 520 L 114 517 Q 116 518 115 516 L 114 516 Q 112 513 108 514 L 107 510 L 103 516 L 97 513 L 96 510 Z M 150 510 Q 147 514 151 513 L 150 510 Z M 156 510 Q 153 517 158 515 L 159 513 Q 160 510 157 511 L 157 513 L 156 510 Z M 75 511 L 73 513 L 57 514 L 79 514 L 81 516 L 90 516 L 90 513 L 87 512 L 83 513 L 79 513 L 75 511 Z M 320 512 L 311 514 L 328 514 L 330 514 Q 332 513 331 516 L 332 516 L 332 512 L 320 512 Z M 26 513 L 20 517 L 16 516 Q 11 515 10 518 Q 9 521 13 520 L 15 520 L 20 519 Q 23 520 22 517 L 29 515 L 26 513 Z M 32 513 L 31 515 L 51 514 L 51 513 L 39 513 L 38 514 Q 36 512 32 513 Z M 300 516 L 300 517 L 303 517 L 300 516 Z M 304 516 Q 303 519 306 518 Q 307 515 304 516 Z M 54 518 L 46 520 L 60 520 L 64 521 L 65 523 L 71 520 L 69 519 L 67 519 L 55 519 L 54 518 Z M 313 520 L 313 521 L 324 521 L 325 522 L 331 521 L 313 520 Z M 312 523 L 312 530 L 311 531 L 312 543 L 313 544 Q 312 546 316 545 L 318 545 L 321 546 L 322 545 L 332 545 L 331 544 L 332 540 L 331 537 L 332 527 L 332 524 L 317 525 L 319 528 L 315 529 L 313 525 L 316 525 L 312 523 Z M 292 548 L 291 549 L 216 549 L 215 550 L 213 549 L 193 549 L 192 550 Q 190 548 186 549 L 184 549 L 181 550 L 179 550 L 177 549 L 174 550 L 170 550 L 167 549 L 160 550 L 158 550 L 155 549 L 152 550 L 137 550 L 135 550 L 122 550 L 121 549 L 100 549 L 99 550 L 98 549 L 65 549 L 62 550 L 58 549 Q 56 552 50 550 L 47 549 Q 41 548 40 550 L 34 549 L 31 550 L 28 549 L 26 550 L 14 550 L 12 550 L 10 551 L 10 593 L 35 593 L 36 592 Q 37 594 42 593 L 44 593 L 49 592 L 52 593 L 55 592 L 89 592 L 90 591 L 92 592 L 103 592 L 106 591 L 109 592 L 111 591 L 114 592 L 116 592 L 118 591 L 120 591 L 129 592 L 132 591 L 137 592 L 139 591 L 148 591 L 149 592 L 154 591 L 158 591 L 161 592 L 164 591 L 166 592 Q 172 594 174 591 L 221 591 L 223 590 L 225 590 L 227 591 L 230 590 L 332 590 L 332 549 L 311 549 L 310 548 L 305 549 L 301 549 L 292 548 Z "></path><path d="M 159.5 20 L 160.5 21 L 196 21 Q 197.3 24 193.5 23 L 189 24 L 189 36.5 L 188 37.5 L 194 38 Q 195.1 40.7 192.5 40 L 191.5 41 L 162.5 41 Q 161 43.5 155.5 42 L 153.5 42 Q 149.8 42.8 149 40.5 L 149 39 L 154 39 L 154 34.5 L 148.5 23 Q 144.8 23.8 144 21.5 L 158.5 21 L 159.5 20 Z M 153 23 L 157 33 L 160 26 L 160 23 L 153 23 Z M 168 23 L 164 24 L 160 37 Q 159 41 164 39 L 166 39 L 168 38 L 171 39 L 171 25 L 168 23 Z M 175 24 L 174 28 L 175 32 L 175 39 L 177 39 Q 179 38 178 33 L 178 31 L 178 24 L 175 24 Z M 182 24 L 181 27 L 181 38 L 183 38 Q 184 40 185 38 L 185 25 L 182 24 Z "></path><path d="M 73.5 92 Q 84.3 90.3 88 95.5 L 90 100.5 L 88 107.5 L 84.5 111 Q 78.8 116.3 69.5 118 L 67.5 118 L 63.5 117 L 60 118 Q 55.9 129.1 46.5 136 L 41.5 138 L 36.5 138 L 30 135 L 27 128.5 L 27 125.5 L 32.5 118 L 40.5 113 Q 47.2 110.7 57.5 112 L 59 110.5 L 61 103.5 L 68.5 95 L 73.5 92 Z M 78 94 L 72 96 Q 63 102 62 114 L 72 114 L 81 111 L 84 107 L 83 98 L 78 94 Z M 41 116 L 37 118 L 32 124 Q 30 132 36 134 L 42 134 L 50 129 L 57 118 L 56 117 L 54 117 L 52 116 L 41 116 Z M 86 134 L 85 136 L 87 135 L 86 134 Z "></path><path d="M 74 124 Q 78.9 122.4 77 128 Q 74.3 129.1 75 126.5 L 74 124 Z "></path><path d="M 95.5 126 L 96 128.5 L 94 127.5 L 95.5 126 Z "></path><path d="M 67.5 131 Q 70.5 132.5 67.5 134 Q 65.3 134.8 66 132.5 L 67.5 131 Z "></path><path d="M 98.5 163 Q 101.8 161.9 101 164.5 L 101 166.5 Q 101.6 171.9 100 174 L 96.5 175 L 93 173 L 92.5 171 L 90 172 L 92 166 L 98.5 163 Z M 97 166 L 95 167 L 93 171 L 97 173 L 99 170 Q 101 165 97 166 Z "></path><path d="M 123.5 199 L 122.5 201 L 121 200.5 L 123.5 199 Z "></path><path d="M 196 199 Q 199 198 198 201 Q 195 202 196 199 Z "></path><path d="M 127 202 L 130 203.5 L 130 206.5 L 133 212.5 L 130 214 Q 130.9 208.6 127 206.5 L 127 202 Z "></path><path d="M 135.5 220 L 148 236.5 L 146.5 238 L 141 232.5 L 134 221.5 L 135.5 220 Z "></path><path d="M 135.5 297 Q 143.4 296.1 145 301.5 Q 145.8 303.8 143.5 303 L 141 302 L 139.5 299 Q 134.7 299.1 135.5 297 Z "></path><path d="M 297.5 325 L 298 328.5 L 295.5 333 L 295 330.5 L 297.5 325 Z "></path><path d="M 263.5 330 L 265 333.5 L 264 333.5 L 263.5 330 Z "></path><path d="M 269.5 335 L 271 337.5 L 268 337.5 L 269.5 335 Z "></path><path d="M 123.5 336 L 125 338.5 L 124.5 341 L 122 337.5 L 123.5 336 Z "></path><path d="M 260.5 336 Q 263.3 337.3 261 338.5 L 258.5 345 L 258 340.5 L 260.5 336 Z "></path><path d="M 282.5 343 Q 285.3 344.3 283 345.5 L 281.5 348 L 279.5 347 L 279 348.5 L 280 351 L 277.5 352 L 277 350 L 279 349.5 L 278 346.5 L 279.5 344 L 280 346 L 282 345.5 Q 279.8 344.3 282.5 343 Z "></path><path d="M 264.5 349 L 265 350.5 L 263 351.5 L 264.5 349 Z "></path><path d="M 278 354 Q 280.7 352.9 280 355.5 L 279 360 L 277 359.5 L 278 354 Z "></path><path d="M 277.5 375 L 278 377.5 L 275.5 381 L 275 379.5 L 277.5 375 Z "></path><path d="M 294.5 375 L 294 376.5 L 293.5 379 Q 290 377 294.5 375 Z "></path><path d="M 90.5 399 Q 94.3 398 93 401 L 90.5 402 Q 87.5 400.5 90.5 399 Z "></path><path d="M 91.5 403 Q 95.3 401.8 94 405.5 L 91.5 407 L 90 404.5 L 91.5 403 Z "></path><path d="M 245.5 408 L 247 410.5 L 244.5 412 L 244 410.5 L 245.5 408 Z "></path><path d="M 96.5 415 Q 99.1 414.3 98 417 L 100.5 417 L 102 416.5 L 99.5 420 L 97 418.5 L 96.5 415 Z "></path><path d="M 15.5 442 Q 18 443.2 17 447 Q 11 449 13 443 L 15.5 442 Z "></path><path d="M 22 444 L 27 444 L 27 446.5 L 26 448.5 L 28 449.5 Q 25.9 443.6 30.5 445 L 34.5 444 L 37 450.5 L 33.5 452 L 28.5 450 L 26.5 453 Q 22.8 454.3 24 450.5 L 24.5 449 L 22 447.5 L 22 444 Z "></path><path d="M 28 453 L 32 453 L 32 454.5 L 28 456 L 28 453 Z "></path><path d="M 19 455 L 24 455 L 24 457.5 L 20.5 459 L 19 455 Z "></path><path d="M 38.5 455 L 41 460.5 L 35.5 463 Q 33 462 34 457.5 L 38.5 455 Z "></path><path d="M 210.5 510 L 217.5 511 L 227 517 L 229.5 523 Q 233.8 523.8 234.5 521 L 237.5 523 L 239.5 522 L 244 524.5 L 230.5 526 L 227 525 Q 228.5 521.2 225.5 522 Q 220.9 514.6 211.5 512 L 210.5 510 Z "></path><path d="M 190.5 515 L 211.5 515 L 222 520 L 222 525 L 220.5 525 L 216.5 520 L 213.5 518 L 205.5 517 L 203.5 518 Q 201.8 515.3 195.5 517 L 184 520 L 182 523.5 L 184 527 Q 180.2 527.8 179 524.5 Q 178.3 519.8 181.5 519 L 190.5 515 Z "></path><path d="M 164.5 522 Q 170.3 519.9 169 524.5 L 170.5 524 L 173 525.5 Q 173.8 527.8 171.5 527 L 169 528 Q 170 531.8 167.5 533 L 166 533.5 L 172.5 534 L 174.5 534 Q 177.8 535.1 177 532.5 L 179.5 529 L 182 530.5 L 181 535 L 171.5 537 L 169.5 536 L 166.5 537 L 160.5 536 L 150.5 539 L 133.5 539 L 132.5 540 L 130.5 539 L 128.5 539 L 122.5 538 L 118.5 539 L 115.5 538 L 105.5 538 L 104.5 539 L 101.5 538 L 93.5 540 Q 89 538 92.5 536 L 114.5 535 L 115.5 536 L 143.5 537 L 146.5 538 Q 150.2 534.7 158.5 536 L 164 531.5 L 163.5 528 L 163 530 L 151.5 534 L 149.5 533 L 146.5 534 L 144.5 533 L 143.5 534 L 131.5 534 L 131.5 533 L 145.5 532 L 151.5 530 L 154.5 531 L 159 530 L 160 525 L 164.5 522 Z M 166 525 L 164 527 L 166 527 L 166 525 Z "></path><path d="M 339.5 545 L 341 547.5 L 339.5 551 L 339 548.5 L 340 546.5 L 339.5 545 Z "></path><path d="M 217.5 556 L 219.5 556 L 226 557 L 225 561.5 L 226 563.5 L 223 565.5 L 222 561 L 217 561.5 L 217 576.5 Q 219 574.8 221 578.5 Q 219.3 582.7 217.5 580 L 214.5 579 L 211.5 581 L 208 580 Q 206.9 577.3 209.5 578 L 211 576.5 L 211 562.5 Q 209.2 558.2 207.5 561 Q 205.3 560.3 206 562.5 L 203 564 L 202 559.5 L 203 557 L 216.5 557 L 217.5 556 Z "></path><path d="M 229.5 556 L 233.5 556 L 236 556 L 236 564.5 L 238.5 565 L 243 566 Q 244.8 559.4 241 557.5 Q 242 555 246.5 556 L 249 557 L 249 563.5 L 250 564.5 L 249 565.5 L 249 574.5 L 252 578.5 L 246.5 580 L 243 579 L 243 569 L 236 569 L 237 578.5 Q 235.8 581.3 234.5 579 L 231.5 580 L 229.5 580 Q 227.3 580.8 228 578.5 L 230 576.5 L 230 567.5 Q 227.5 566 229 560.5 L 227 557 L 229.5 556 Z "></path><path d="M 108 557 L 125.5 557 L 129 559.5 L 128 566 L 125 567.5 Q 126.7 574.8 132 578.5 L 132 581 L 127.5 581 L 122 575.5 L 120 568 Q 116.7 566.7 118 571.5 L 118 573.5 Q 116.7 578.3 119 579.5 L 115.5 582 L 113.5 581 L 111.5 582 L 109 581 Q 108.3 577.9 111 578.5 L 111 561.5 L 108 560 L 108 557 Z M 117 560 L 118 566 L 122 565 Q 125 558 117 560 Z "></path><path d="M 135.5 557 L 137.5 558 L 140.5 557 L 142.5 557 L 152 557 L 152 563.5 Q 150.5 566.5 149 563.5 L 149 560 L 142.5 560 Q 139.5 561.6 141 567 Q 143.7 568.1 143 565.5 L 146 564 L 147 567.5 L 147 569.5 Q 148.3 573.3 144.5 572 L 141 570 L 141 578 L 148.5 578 L 150 574 L 154 575.5 Q 154.8 579.3 152.5 580 L 134 581 L 136 577.5 L 136 561.5 L 134 558.5 L 135.5 557 Z "></path><path d="M 157.5 557 L 160.5 558 L 162.5 557 L 167 564 L 169 564 L 169 566 Q 171.7 564.9 171 567.5 L 174 569.5 L 174 561.5 L 175 560.5 L 172 560 L 173.5 557 L 180 557 L 180 560 L 177 561.5 L 178 579.5 Q 176.3 582.8 174.5 579 Q 172.3 579.8 173 577.5 L 164.5 568 Q 162.3 567.3 163 569.5 Q 165.5 571 164 576.5 L 166 580 L 158.5 581 L 156 580 L 156 578 Q 159.8 579.5 159 576.5 L 160 575.5 L 160 562.5 L 155 559.5 L 157.5 557 Z "></path><path d="M 74.5 558 L 76 561.5 L 76 563.5 L 74.5 567 L 71 566 L 70 562 Q 64.6 560.5 63 563.5 L 63 566 L 68.5 566 L 75 570.5 L 76 575.5 L 76 577.5 L 72.5 581 L 67.5 582 L 66.5 581 L 57.5 581 L 53 583 L 52 572.5 L 54.5 571 Q 57 577 65.5 577 L 67.5 577 Q 70.5 577.9 69 573.5 Q 68.3 571.3 64.5 572 L 62.5 573 L 57 569.5 Q 56 563 59.5 561 L 63.5 559 L 73.5 559 L 74.5 558 Z "></path><path d="M 81 558 L 104.5 558 L 106 559.5 Q 107 564 104.5 565 Q 101.2 566.1 102 563.5 Q 100.8 561 97 562 L 97 575.5 L 98 579 Q 101 578 100 581 Q 92.3 580.1 88 582 Q 86.5 578.3 89.5 579 L 91 577.5 L 91 562 L 86 562 L 86 563.5 Q 84.8 566.8 81 566 L 80 560.5 L 81 558 Z "></path><path d="M 187.5 558 L 198.5 558 L 199 560.5 L 198 563 Q 193.8 564 194.5 561 L 188.5 561 Q 184.8 562.3 186 568.5 L 187 572.5 L 190.5 576 L 194 575 L 192 569 L 194.5 568 L 196.5 569 L 198.5 569 L 200 569.5 L 200 580 L 192.5 579 L 189.5 580 L 183 577 Q 180 573.8 181 565.5 L 184.5 560 L 187.5 558 Z "></path><path d="M 260.5 575 Q 264.7 573.7 263 578.5 L 259.5 580 L 258 577.5 L 260.5 575 Z "></path></svg>