<svg width="350" height="600" version="1.1" xmlns="http://www.w3.org/2000/svg" desc="Created with imagetracer.js version 1.2.5"><path d="M 292.5 4 L 293.5 5 L 329.5 5 L 331.5 5 Q 336 4 337 6.5 L 338 36.5 L 337 37.5 L 337 46.5 L 338 51.5 L 337 52.5 L 337 73.5 L 338 74.5 L 338 89.5 L 337 91.5 L 337 93.5 L 338 98.5 Q 335.7 99.8 337 104.5 L 338 105.5 L 338 151.5 L 338 153.5 L 337 163.5 L 338 164.5 L 338 183.5 L 337 186.5 L 338 187.5 L 338 236.5 L 339 237.5 L 339 239.5 L 339 247.5 L 338 248.5 L 338 300.5 L 339 303.5 L 338 306.5 L 338 308.5 L 339 315.5 L 338 317.5 L 339 322.5 L 338 323.5 L 338 339.5 L 338 341.5 L 339 361.5 Q 336.3 363.3 338 369.5 L 338 371.5 L 339 378.5 L 338 379.5 L 338 412.5 L 338 414.5 L 338 473.5 Q 340.5 475 339 480.5 L 338 481.5 L 338 508.5 L 339 510.5 L 338 511.5 L 338 529.5 L 339 532.5 L 339 534.5 L 338 540.5 L 339 542.5 L 338 543.5 L 338 551.5 L 339 554.5 L 339 556.5 L 339 577.5 L 338 578.5 L 339 580.5 L 339 582.5 L 338 590.5 L 336.5 592 L 328.5 591 L 327.5 592 L 312.5 592 L 310.5 592 L 305.5 591 L 304.5 592 L 296.5 592 L 293.5 591 Q 292 593.5 286.5 592 L 284.5 592 L 258.5 592 L 255.5 591 L 253.5 592 L 251.5 591 L 247.5 591 L 238.5 592 L 236.5 591 L 235.5 592 L 181.5 592 L 180.5 593 L 133.5 593 L 131.5 594 L 129.5 593 L 126.5 594 L 124.5 593 L 122.5 594 L 120.5 593 L 119.5 594 L 72.5 594 L 70.5 595 L 68.5 595 L 65.5 594 L 64.5 595 L 12.5 595 L 11.5 596 L 7 593.5 L 8 568.5 L 7 567.5 L 7 553.5 L 7 551.5 Q 5.8 546.8 8 545.5 L 7 542.5 L 8 540.5 L 7 537.5 L 7 535.5 L 8 532.5 L 7 531.5 L 7 407.5 L 8 402.5 L 8 400.5 L 7 391.5 L 7 389.5 L 8 377.5 Q 5.3 375.8 7 369.5 L 7 367.5 Q 9.3 364.3 8 357.5 L 8 355.5 L 7 320.5 L 7 318.5 L 8 286.5 L 7 281.5 L 8 280.5 L 8 260.5 L 7 259.5 L 7 191.5 L 6 190.5 L 6 182.5 L 7 181.5 L 7 144.5 L 6 141.5 L 7 140.5 L 7 114.5 Q 4.5 113 6 107.5 L 7 102.5 L 6 101.5 L 6 82.5 L 7 81.5 L 7 42.5 L 6 41.5 L 6 21.5 L 7 20.5 L 7 7 L 14.5 7 L 15.5 6 L 19.5 7 L 23.5 7 L 30.5 6 L 32.5 6 L 36.5 7 L 38.5 6 L 40.5 6 L 85.5 6 L 86.5 7 L 87.5 6 L 162.5 6 L 164.5 6 L 215.5 6 Q 217.3 3.2 223.5 5 L 225.5 5 L 271.5 5 L 272.5 6 L 273.5 5 L 291.5 5 L 292.5 4 Z M 310 6 L 309 7 L 283 7 L 283 22 L 281 7 L 280 20 L 279 21 L 280 28 L 279 33 L 279 138 L 280 139 L 279 141 Q 278 146 280 148 L 279 150 L 280 153 L 279 155 L 280 156 L 280 210 L 281 211 L 280 214 L 280 216 L 281 218 L 281 229 L 280 230 L 280 232 L 287 240 L 287 244 L 291 246 L 301 261 L 303 271 L 303 280 L 305 279 L 304 268 L 302 264 L 303 262 L 305 267 Q 304 275 307 279 L 305 282 L 301 280 L 300 276 L 296 279 L 297 283 Q 298 287 296 289 Q 294 297 297 301 L 300 303 L 305 304 L 308 303 Q 313 305 312 301 L 315 300 L 319 301 L 317 301 Q 314 302 316 304 Q 315 306 318 305 L 319 303 Q 322 305 317 308 L 319 308 L 321 317 Q 323 313 322 305 L 324 305 L 324 290 L 324 288 L 323 286 Q 322 281 324 280 L 324 277 L 322 279 L 322 299 L 321 300 L 320 283 L 320 281 L 321 277 Q 322 274 319 275 L 319 288 L 318 289 L 319 291 L 318 297 L 317 297 L 317 267 L 319 266 L 320 271 L 319 274 L 321 274 L 320 264 L 320 262 L 321 254 Q 323 260 323 269 L 324 262 L 323 260 L 324 257 L 323 253 L 324 251 L 323 249 L 324 233 L 324 231 L 323 227 L 324 225 L 324 215 L 323 214 L 324 211 L 323 209 L 324 206 L 323 202 L 323 87 L 323 85 L 323 76 L 324 75 L 323 74 L 323 10 L 322 7 L 318 8 L 310 6 Z M 229 7 L 228 8 L 169 8 L 161 10 L 153 8 L 142 8 L 141 9 L 138 8 L 122 8 L 121 9 L 120 8 L 62 8 L 62 30 L 68 35 Q 70 34 69 37 L 81 45 L 102 54 L 108 58 L 136 68 L 155 71 L 157 71 L 198 68 L 220 62 Q 221 58 223 61 L 236 54 L 266 33 L 275 24 Q 274 19 277 19 L 277 8 L 277 7 L 238 7 L 236 7 L 233 8 L 231 8 L 229 7 Z M 325 7 L 325 20 L 326 21 L 325 24 L 325 26 L 325 50 L 326 51 L 326 248 L 327 249 L 326 251 L 326 322 L 327 323 L 326 325 L 326 327 L 327 331 L 326 333 L 327 336 L 326 343 L 326 345 L 327 349 L 326 351 L 328 356 L 329 354 L 333 360 L 331 363 L 329 366 L 326 367 L 326 383 L 325 384 L 326 385 L 326 427 Q 330 426 331 429 L 331 444 L 329 447 L 336 450 L 336 448 L 335 446 Q 333 439 336 438 L 335 429 L 335 427 L 335 417 L 336 416 L 335 414 L 335 404 L 336 403 L 335 402 L 335 284 L 334 283 L 335 281 L 335 237 L 334 236 L 335 232 L 335 209 L 334 208 Q 333 203 335 202 L 334 200 Q 332 193 335 192 L 334 190 L 334 123 L 335 122 L 334 119 L 334 32 L 333 31 L 334 27 L 334 7 L 325 7 Z M 26 8 L 22 9 L 22 40 L 23 41 L 22 78 L 20 77 L 20 53 L 20 51 L 21 49 L 20 47 L 20 32 L 19 31 L 20 29 L 19 27 L 20 11 L 21 10 L 17 9 L 17 92 L 16 93 L 16 188 L 17 189 L 16 192 L 17 195 L 16 197 L 17 199 L 17 201 L 16 206 L 16 208 L 17 209 L 17 247 L 17 249 L 17 264 L 18 265 L 17 267 L 18 272 L 17 275 L 18 278 L 17 280 L 18 284 L 18 367 L 18 369 L 17 376 L 17 378 L 18 381 L 18 383 L 17 386 L 17 432 L 24 432 L 24 432 L 24 342 L 26 341 L 26 417 L 25 418 L 25 427 L 26 432 L 59 432 L 60 431 L 60 424 L 59 426 L 58 425 L 58 423 L 57 420 L 58 418 L 57 415 L 57 397 L 58 396 L 57 394 L 57 378 L 56 377 L 57 372 L 56 370 L 57 369 L 57 360 L 57 358 L 56 356 Q 58 353 59 356 L 58 358 L 59 359 L 60 404 L 60 343 L 61 342 L 60 340 L 60 291 L 61 290 L 60 289 L 60 252 L 56 254 L 49 253 L 46 250 Q 45 245 48 244 Q 50 237 47 236 Q 48 231 44 233 L 43 231 L 44 228 L 40 221 L 41 218 L 40 212 Q 41 207 46 208 L 46 207 L 34 208 L 31 210 Q 24 210 22 206 L 23 203 L 22 199 L 28 194 L 36 197 Q 40 198 42 196 L 44 197 L 44 134 L 45 133 L 45 54 L 46 53 L 45 50 L 45 46 L 47 36 L 48 43 L 47 45 L 48 47 L 48 49 L 47 51 L 47 103 L 47 105 Q 49 111 46 113 L 47 115 L 47 117 L 47 136 L 46 137 L 46 178 L 47 179 L 46 181 L 47 183 L 46 192 L 49 192 L 48 191 L 48 190 Q 51 191 50 189 L 48 189 L 48 186 Q 52 187 51 185 L 50 185 L 49 181 L 51 181 L 50 180 L 51 178 L 50 175 L 51 171 L 50 168 L 51 166 L 50 164 L 50 16 L 51 15 L 50 14 L 47 17 L 47 34 L 46 33 L 45 30 L 46 28 L 45 23 Q 43 14 48 13 L 47 11 L 47 8 L 42 8 L 39 9 L 40 11 L 39 13 Q 41 18 37 17 L 37 10 L 36 8 L 35 12 Q 32 13 33 9 L 32 9 Q 27 10 26 8 Z M 51 8 L 49 11 L 52 12 L 51 8 Z M 59 8 Q 56 9 57 14 L 55 14 Q 58 16 57 22 L 57 24 L 56 27 L 57 28 L 57 57 L 57 59 L 58 64 L 57 66 L 57 68 L 58 70 Q 60 75 57 77 L 58 79 L 58 111 L 58 113 L 59 118 L 58 121 L 59 126 L 58 130 L 60 129 L 59 124 L 60 121 L 60 10 L 59 8 Z M 10 9 L 10 136 L 11 137 L 10 140 L 10 160 Q 13 161 11 167 L 11 169 L 10 174 L 10 200 L 11 203 L 10 207 L 11 209 L 11 220 L 10 221 L 10 269 L 11 270 Q 12 274 10 276 L 10 320 L 11 321 L 10 325 L 10 430 L 9 431 L 10 436 L 9 437 L 9 446 L 11 446 L 11 434 L 14 432 L 13 429 L 14 426 L 14 374 L 14 372 L 15 370 L 15 355 L 15 353 Q 17 347 14 346 L 15 338 L 15 336 L 14 328 L 14 326 L 15 323 L 14 320 L 15 318 L 14 316 L 15 313 L 15 311 L 15 290 L 14 289 L 15 286 L 14 281 L 14 269 L 15 268 L 15 260 L 14 259 L 14 10 L 10 9 Z M 55 9 L 54 13 L 55 13 L 55 9 Z M 53 13 Q 50 19 53 21 L 53 38 L 52 43 L 52 45 L 52 58 L 53 59 L 53 70 L 52 71 L 52 104 L 52 106 L 53 109 L 52 114 L 53 117 L 52 123 L 52 125 Q 50 131 53 133 L 53 181 L 52 182 L 53 185 L 52 187 L 53 189 Q 52 193 57 191 L 58 192 L 58 173 L 57 172 L 58 170 L 58 168 L 57 166 L 58 163 L 57 161 L 57 132 L 57 130 L 56 126 L 56 70 L 55 68 L 55 66 L 55 52 L 56 51 L 55 48 L 55 46 L 56 44 L 55 43 L 55 17 L 53 13 Z M 277 26 L 276 29 L 277 29 L 277 26 Z M 277 31 L 276 35 L 277 35 L 277 31 Z M 63 35 L 64 41 L 67 39 L 63 35 Z M 277 37 L 276 41 L 277 41 L 277 37 Z M 68 39 L 66 41 L 68 41 L 68 39 Z M 69 41 L 70 43 Q 71 40 69 41 Z M 277 42 L 276 48 L 277 48 L 277 42 Z M 72 43 Q 70 46 73 45 L 72 43 Z M 268 44 L 265 47 L 266 49 L 268 46 L 268 44 Z M 74 45 L 77 49 L 79 48 L 74 45 Z M 81 48 L 79 51 L 81 50 L 81 48 Z M 246 49 Q 245 52 248 51 Q 249 48 246 49 Z M 263 49 L 263 51 L 265 50 L 263 49 Z M 82 50 Q 80 53 83 52 L 82 50 Z M 84 50 L 85 52 L 86 52 L 84 50 Z M 65 52 L 65 54 L 64 59 Q 66 57 68 61 Q 67 63 70 62 L 68 59 L 70 58 L 71 56 L 67 57 L 67 56 L 66 54 Q 67 51 65 52 Z M 262 53 L 258 57 L 259 59 L 262 55 L 262 53 Z M 81 54 L 79 56 Q 78 58 81 57 L 81 54 Z M 97 57 L 97 59 L 99 58 L 97 57 Z M 73 58 L 70 60 L 75 65 L 80 64 L 79 61 L 77 62 L 76 61 L 73 58 Z M 240 58 L 239 61 L 240 61 L 240 58 Z M 232 59 L 230 62 L 231 64 L 232 62 L 232 59 Z M 64 60 L 64 65 L 65 65 Q 66 61 64 60 Z M 107 62 L 107 64 L 109 63 L 107 62 Z M 226 62 L 224 64 L 226 64 L 226 62 Z M 69 63 L 67 67 L 69 66 L 69 63 Z M 112 63 L 112 67 L 115 65 L 112 63 Z M 81 64 L 80 65 Q 77 64 78 67 L 83 65 L 81 64 Z M 73 65 L 74 67 Q 75 64 73 65 Z M 84 65 L 82 67 Q 79 66 80 69 L 84 67 L 86 68 L 87 68 L 84 65 Z M 219 65 L 218 68 L 219 68 L 219 65 Z M 77 66 L 76 70 L 78 69 L 77 66 Z M 106 66 L 106 69 Q 109 68 106 66 Z M 123 66 L 121 69 L 123 68 L 123 66 Z M 101 67 L 99 69 L 101 69 L 101 67 Z M 221 67 Q 219 70 222 69 L 221 67 Z M 225 67 L 223 69 L 224 72 L 225 69 L 225 67 Z M 63 68 Q 61 71 64 70 L 63 68 Z M 83 68 L 83 70 L 85 69 L 83 68 Z M 88 68 Q 85 69 87 71 L 86 74 Q 88 78 90 75 L 91 77 L 92 76 L 88 72 Q 87 69 90 70 Q 91 67 88 68 Z M 235 68 L 234 71 L 235 71 L 235 68 Z M 74 69 L 72 72 L 74 72 L 74 69 Z M 105 69 L 104 72 L 105 72 L 105 69 Z M 127 69 L 127 71 L 129 70 L 127 69 Z M 215 69 L 213 73 L 215 72 L 215 69 Z M 229 69 L 229 71 L 228 73 L 230 72 Q 231 68 229 69 Z M 65 70 L 66 72 Q 67 69 65 70 Z M 80 70 L 80 72 L 83 71 L 80 70 Z M 92 70 L 90 72 L 91 74 L 95 76 L 94 78 L 93 77 L 91 78 L 95 80 L 96 78 L 98 79 L 96 77 L 99 76 L 98 73 L 97 75 L 94 71 L 93 73 L 95 75 L 92 70 Z M 131 70 L 129 72 L 131 72 L 131 70 Z M 196 70 L 194 72 L 196 72 L 196 70 Z M 202 70 L 199 74 L 202 72 L 202 70 Z M 193 71 Q 191 74 194 73 L 193 71 Z M 138 72 L 136 75 L 139 73 L 138 72 Z M 185 72 L 184 74 L 186 73 L 185 72 Z M 116 73 L 114 76 L 116 75 L 116 73 Z M 133 73 L 131 77 L 132 77 Q 131 74 134 75 Q 135 72 133 73 Z M 141 73 L 139 76 L 142 74 L 141 73 Z M 145 73 L 146 76 L 148 75 L 145 73 Z M 177 73 L 177 75 L 179 74 L 177 73 Z M 230 73 Q 228 76 231 75 L 230 73 Z M 243 73 L 240 76 L 233 78 L 230 81 L 232 84 Q 231 86 234 85 L 232 82 L 233 80 L 235 83 L 239 80 Q 238 77 241 78 L 241 76 L 244 75 Q 245 72 243 73 Z M 276 73 L 276 79 L 277 79 L 276 73 Z M 127 74 L 126 77 L 127 77 L 127 74 Z M 142 74 L 142 76 L 144 75 L 142 74 Z M 154 74 L 155 76 Q 156 73 154 74 Z M 156 74 L 156 76 L 158 75 L 156 74 Z M 160 74 L 158 76 L 159 77 L 161 76 Q 162 73 160 74 Z M 163 74 L 164 77 Q 166 78 165 75 L 163 74 Z M 208 74 L 206 77 L 208 76 L 208 74 Z M 226 74 L 225 77 L 226 77 L 226 74 Z M 71 75 L 73 79 L 73 77 L 71 75 Z M 63 76 L 62 79 L 64 80 L 63 76 Z M 100 76 L 99 78 L 101 77 L 100 76 Z M 141 76 L 139 78 Q 138 80 141 79 L 142 77 L 141 76 Z M 143 76 L 143 78 L 145 77 L 143 76 Z M 168 76 L 166 78 L 168 78 L 168 76 Z M 183 76 L 181 79 L 182 81 L 183 79 L 183 76 Z M 210 76 L 209 79 L 210 79 L 210 76 Z M 216 76 L 216 80 L 217 80 L 216 76 Z M 102 77 L 100 80 L 103 78 L 102 77 Z M 201 77 L 199 80 L 201 79 L 201 77 Z M 264 77 L 263 82 L 264 82 L 264 77 Z M 85 78 L 84 82 L 85 82 L 85 78 Z M 103 78 L 103 80 L 101 81 L 104 81 L 105 79 L 103 78 Z M 230 78 L 226 83 L 228 83 L 227 85 L 230 84 L 229 82 L 231 79 L 230 78 Z M 73 79 L 73 81 L 75 80 L 73 79 Z M 92 79 L 90 81 L 92 81 L 92 79 Z M 110 79 L 106 84 L 108 84 L 110 81 L 110 84 L 112 83 L 113 86 Q 116 85 115 81 Q 111 82 110 79 Z M 166 80 L 165 83 L 166 83 L 166 80 Z M 197 80 L 196 83 L 197 83 L 197 80 Z M 212 80 L 211 82 L 213 83 L 212 80 Z M 225 80 L 220 83 L 217 87 Q 219 88 217 89 L 217 88 L 216 87 L 216 85 L 213 86 L 210 90 L 210 89 L 210 87 L 208 89 L 199 92 L 197 95 L 200 94 L 201 97 L 202 97 Q 201 93 204 94 L 208 91 L 206 94 L 207 97 L 209 97 L 208 94 L 213 90 L 214 90 Q 213 92 218 91 L 217 93 L 218 95 L 218 93 L 220 93 L 219 91 L 219 89 L 225 82 L 225 80 Z M 74 81 L 74 83 L 76 84 Q 77 80 74 81 Z M 99 81 L 100 85 L 100 83 L 102 83 L 99 81 Z M 273 81 L 271 87 L 273 87 L 274 85 L 273 81 Z M 64 82 Q 64 86 66 83 L 64 82 Z M 118 82 L 114 86 L 116 86 L 117 86 L 115 90 L 118 88 L 120 88 L 120 86 Q 123 87 122 85 L 123 85 L 122 88 L 124 88 L 126 88 L 126 87 L 127 87 L 125 91 L 127 91 L 126 93 L 130 90 L 131 91 L 132 91 L 131 89 L 136 86 L 136 83 L 132 86 L 133 84 L 132 83 Q 127 85 130 87 L 129 89 L 129 88 L 128 86 L 129 83 L 127 84 Q 124 81 118 82 Z M 79 83 L 77 84 L 78 86 L 81 85 L 79 83 Z M 105 83 L 103 85 L 105 85 L 105 83 Z M 147 83 L 141 85 L 144 87 Q 143 84 147 85 L 147 83 Z M 196 83 L 195 88 L 196 88 L 196 83 Z M 202 83 L 202 88 L 203 86 L 202 83 Z M 224 83 L 220 89 L 223 89 L 226 85 Q 227 82 224 83 Z M 66 84 L 63 86 L 66 88 Q 65 90 68 89 L 66 84 Z M 137 84 L 137 86 L 135 89 L 137 88 L 137 90 Q 140 91 139 89 Q 137 87 140 86 L 137 84 Z M 231 84 L 229 86 L 230 87 L 232 86 L 231 84 Z M 184 85 L 183 88 L 184 88 L 184 85 Z M 192 85 L 192 88 Q 195 87 192 85 Z M 227 85 Q 224 86 224 90 Q 226 93 227 90 L 226 89 L 227 87 L 227 85 Z M 79 86 L 81 89 L 81 88 L 79 86 Z M 85 86 L 83 88 L 85 88 L 85 86 Z M 148 86 L 147 92 L 148 92 L 148 86 Z M 262 86 L 261 89 L 262 89 L 262 86 Z M 277 86 L 276 93 L 277 93 L 277 86 Z M 112 87 L 111 90 L 112 90 L 112 87 Z M 186 87 L 187 89 Q 188 86 186 87 Z M 266 87 L 265 91 L 266 91 L 266 87 Z M 158 88 L 158 90 L 156 89 L 158 92 L 160 91 L 159 90 Q 160 87 158 88 Z M 180 88 L 179 94 Q 176 95 177 93 L 176 93 L 177 101 L 182 95 L 180 96 L 180 95 L 180 88 Z M 69 89 L 67 92 L 69 92 Q 72 91 69 89 Z M 88 89 L 89 91 L 91 90 L 88 89 Z M 141 89 L 139 91 L 141 95 L 142 93 L 141 89 Z M 162 89 L 160 92 L 162 92 Q 165 91 162 89 Z M 183 89 L 182 92 L 183 92 L 183 89 Z M 259 89 L 259 95 L 260 93 L 259 89 Z M 92 90 Q 89 92 92 93 L 92 92 L 95 93 L 95 92 L 92 90 Z M 166 90 L 166 92 L 164 91 L 163 94 L 162 93 L 161 95 Q 162 97 164 95 Q 166 94 165 101 Q 163 102 166 103 L 167 96 Q 168 89 166 90 Z M 170 90 L 168 94 L 169 98 L 171 97 L 170 90 Z M 189 90 L 189 92 L 188 95 L 191 94 L 190 92 Q 191 89 189 90 Z M 173 91 L 173 96 L 173 94 Q 175 92 173 91 Z M 195 91 L 193 94 L 196 92 L 195 91 Z M 211 91 Q 210 94 213 93 Q 214 90 211 91 Z M 242 91 Q 239 95 243 94 L 242 91 Z M 71 92 L 70 96 L 72 95 L 71 92 Z M 119 92 L 118 95 L 119 95 L 119 92 Z M 184 92 L 182 95 L 184 94 L 184 92 Z M 186 92 Q 186 96 184 95 L 173 107 L 174 110 L 176 109 Q 175 106 178 107 L 179 109 L 179 107 L 179 105 L 182 99 L 187 95 L 186 92 Z M 236 92 L 236 94 L 238 93 L 236 92 Z M 267 92 Q 266 95 269 94 Q 270 91 267 92 Z M 153 93 L 154 99 L 155 95 Q 156 92 153 93 Z M 87 94 L 86 97 L 87 97 L 87 94 Z M 99 94 Q 97 97 100 96 L 99 94 Z M 192 94 Q 189 96 192 97 L 193 95 L 192 94 Z M 212 94 Q 211 97 214 96 Q 215 93 212 94 Z M 102 95 Q 99 101 103 100 L 102 95 Z M 93 96 L 92 99 L 93 99 L 93 96 Z M 103 96 L 104 98 L 106 97 L 103 96 Z M 141 96 L 140 99 L 141 99 L 141 96 Z M 272 96 L 271 99 L 272 99 L 272 96 Z M 73 97 L 72 99 L 74 100 L 73 97 Z M 109 97 L 107 99 L 109 99 L 109 97 Z M 158 97 L 157 100 L 158 100 L 158 97 Z M 184 97 L 185 99 L 187 98 L 184 97 Z M 233 97 Q 230 101 234 100 L 233 97 Z M 104 98 L 105 102 L 106 100 Q 107 97 104 98 Z M 111 98 Q 111 101 113 99 L 114 100 L 112 100 L 115 106 L 118 106 L 118 105 L 119 105 Q 118 108 123 106 L 122 105 L 125 104 L 123 107 L 124 108 L 127 106 L 128 104 L 122 101 L 122 103 L 121 105 L 120 102 L 116 104 L 119 99 L 111 98 Z M 207 98 Q 206 101 209 100 Q 210 97 207 98 Z M 259 98 L 257 100 Q 258 102 255 101 L 254 104 L 256 104 L 259 100 L 259 98 Z M 229 99 L 228 104 L 229 104 L 229 99 Z M 96 100 L 95 102 L 97 103 L 96 100 Z M 173 100 L 171 103 L 173 104 L 171 105 Q 172 102 170 103 L 168 106 Q 166 107 169 108 Q 172 109 171 106 L 174 105 Q 173 102 176 103 L 176 101 L 173 102 L 173 100 Z M 110 101 L 108 103 L 109 109 L 110 103 L 110 101 Z M 169 101 L 167 103 L 169 103 L 169 101 Z M 190 101 Q 191 104 188 106 Q 187 108 190 107 L 192 103 Q 193 100 190 101 Z M 203 101 L 201 103 L 202 105 L 203 103 L 203 101 Z M 219 101 L 219 104 L 221 103 Q 222 100 219 101 Z M 276 101 L 274 114 L 272 117 L 274 116 L 272 119 Q 271 121 274 120 L 275 120 L 274 122 L 276 122 L 276 101 Z M 68 102 L 68 103 L 71 103 L 68 102 Z M 103 102 L 102 106 L 103 106 L 103 102 Z M 112 102 L 111 104 L 111 106 L 113 106 L 112 102 Z M 158 102 L 157 104 L 155 105 L 155 107 L 154 109 L 153 108 L 150 109 L 152 106 L 151 105 L 148 109 L 146 108 L 146 110 L 144 109 L 145 107 L 146 105 L 142 108 L 145 112 L 141 109 Q 140 105 143 106 L 144 104 L 138 105 L 140 106 L 137 108 L 135 108 L 138 106 L 133 104 L 134 107 L 134 108 L 131 107 L 131 105 L 126 108 L 128 110 L 130 109 L 130 107 L 131 111 L 134 109 L 136 110 L 138 109 L 138 110 Q 135 109 136 112 L 139 111 L 140 112 L 139 112 L 139 114 Q 138 116 141 115 L 142 112 L 143 117 L 145 114 L 146 121 L 146 113 L 148 111 L 150 112 L 149 111 L 152 112 Q 155 113 154 110 L 158 111 L 160 111 L 163 109 L 162 111 L 164 111 L 165 109 L 165 107 L 167 104 L 166 104 L 163 102 L 163 104 L 161 108 L 159 109 L 159 108 L 160 108 L 160 105 Q 163 106 162 104 L 160 102 L 160 104 L 158 104 L 158 102 Z M 240 102 L 240 104 L 242 105 Q 243 101 240 102 Z M 75 103 L 74 106 L 76 106 L 75 103 Z M 131 103 Q 131 107 133 104 L 131 103 Z M 150 103 L 148 106 L 151 104 L 150 103 Z M 196 103 L 196 106 L 197 106 Q 198 102 196 103 Z M 81 104 L 80 107 L 82 108 L 81 104 Z M 183 104 L 181 108 L 184 108 L 183 104 Z M 200 104 L 198 106 L 200 106 L 200 104 Z M 186 105 Q 184 108 187 107 L 186 105 Z M 238 105 L 237 110 L 239 110 L 240 111 L 239 106 L 241 106 L 238 105 Z M 265 106 L 266 108 Q 267 105 265 106 Z M 270 106 Q 266 110 267 120 L 269 121 L 268 119 L 270 118 L 271 115 L 268 116 L 270 109 L 270 106 Z M 113 107 L 111 112 L 113 113 L 113 107 Z M 122 107 L 122 116 L 123 112 L 122 107 Z M 173 107 L 171 110 L 173 109 L 173 107 Z M 254 107 Q 254 110 252 109 L 252 111 L 250 111 L 250 113 Q 247 112 248 115 L 246 115 L 249 118 L 249 117 L 250 117 Q 249 119 252 118 L 251 116 L 254 118 L 249 121 L 247 117 L 246 121 L 244 122 Q 241 123 243 125 L 242 127 L 243 128 L 241 127 L 242 130 L 241 129 L 240 137 L 236 139 L 236 141 L 234 141 L 235 143 L 233 148 Q 232 150 231 148 L 229 156 L 229 157 Q 232 158 230 154 L 232 154 L 230 160 L 231 161 L 233 160 L 234 160 L 232 161 L 230 161 L 227 166 L 228 169 L 230 163 Q 235 163 237 159 L 236 157 L 240 152 Q 241 149 243 151 Q 247 150 246 145 L 244 145 L 245 142 L 245 140 L 246 138 L 247 140 L 248 136 Q 250 134 248 133 L 247 136 L 246 137 L 243 137 L 244 132 L 246 132 L 248 129 L 250 130 L 251 132 L 252 128 L 249 129 L 253 126 L 252 123 L 251 123 L 253 120 L 255 121 L 258 109 L 258 107 L 256 110 Q 252 111 255 113 L 254 115 L 255 116 L 253 114 L 255 110 L 254 107 Z M 71 109 L 70 112 L 71 112 L 71 109 Z M 225 109 L 223 111 L 224 114 L 225 112 L 225 109 Z M 246 109 L 247 111 Q 248 108 246 109 Z M 79 111 L 78 115 L 80 114 L 79 111 Z M 239 111 L 238 114 L 239 114 L 239 111 Z M 73 112 L 73 114 L 75 113 L 73 112 Z M 148 112 L 147 115 L 149 116 L 148 112 Z M 203 112 L 202 117 L 203 117 L 203 112 Z M 137 113 L 136 116 L 138 116 L 137 113 Z M 92 114 Q 93 117 90 119 L 92 121 L 94 115 L 92 114 Z M 192 114 L 191 118 L 192 118 L 192 114 Z M 237 115 L 234 121 L 230 120 L 231 124 L 231 126 L 230 126 L 227 125 L 231 130 L 232 125 L 234 125 L 237 119 L 237 115 Z M 177 116 L 176 119 L 178 119 L 177 116 Z M 216 116 L 214 119 L 216 118 L 216 116 Z M 67 117 Q 64 121 68 120 L 67 117 Z M 148 118 L 149 120 Q 150 117 148 118 Z M 153 118 L 152 121 L 153 121 L 153 118 Z M 206 118 L 205 121 L 206 121 L 206 118 Z M 117 119 L 116 121 L 118 122 L 117 119 Z M 76 120 L 75 122 L 74 121 L 73 125 L 77 125 L 76 120 Z M 80 120 L 78 123 L 80 123 L 80 120 Z M 85 120 L 83 122 L 84 125 L 86 123 L 86 121 L 85 120 Z M 192 120 L 191 123 L 193 123 L 194 121 L 192 120 Z M 176 121 Q 174 124 177 123 L 176 121 Z M 253 121 L 253 125 L 254 125 Q 255 120 253 121 Z M 153 123 Q 151 126 154 125 L 153 123 Z M 178 123 Q 176 126 179 125 L 178 123 Z M 182 123 L 181 126 L 182 126 L 182 123 Z M 266 123 L 263 124 L 264 126 L 266 125 L 266 123 Z M 276 123 L 274 126 L 275 127 L 277 126 L 276 123 Z M 95 124 L 94 127 L 95 127 L 95 124 Z M 127 124 L 126 131 L 128 130 L 127 124 Z M 169 124 L 165 125 L 165 126 L 177 126 L 169 124 Z M 149 125 L 148 128 L 146 127 L 144 127 L 143 129 L 138 131 L 139 133 L 151 129 L 149 125 Z M 162 125 L 161 127 L 164 127 L 162 125 Z M 186 125 L 184 128 L 185 129 L 188 127 L 193 128 L 195 128 L 200 132 L 200 129 L 198 128 Q 195 129 196 127 L 195 127 L 192 126 L 190 127 L 189 126 L 188 126 L 186 125 Z M 198 125 L 197 127 L 199 128 L 198 125 Z M 62 126 L 62 128 L 64 127 L 62 126 Z M 74 126 L 74 128 L 76 127 L 74 126 Z M 79 127 L 79 129 L 81 128 L 79 127 Z M 88 127 L 87 129 L 90 133 L 91 133 Q 92 127 88 127 Z M 113 128 L 112 131 L 113 131 L 113 128 Z M 75 129 L 76 131 Q 77 128 75 129 Z M 78 129 L 79 131 Q 80 128 78 129 Z M 109 129 L 109 131 L 111 132 Q 112 128 109 129 Z M 164 129 L 164 131 Q 161 130 162 133 L 164 132 L 166 133 L 162 135 L 166 136 L 163 137 L 166 138 L 153 141 L 148 132 L 146 133 L 143 133 L 143 136 Q 139 135 140 138 L 143 137 L 144 138 L 142 139 L 142 140 L 145 139 L 144 141 L 146 141 L 146 143 L 148 142 L 147 144 Q 144 143 145 146 L 147 145 L 148 146 L 146 147 L 147 149 L 149 149 Q 150 151 148 150 L 147 152 L 149 151 L 151 153 L 148 154 L 146 157 L 164 154 L 182 154 L 184 154 Q 185 157 191 155 Q 192 158 194 154 Q 195 148 193 147 Q 187 149 188 145 Q 193 146 194 144 L 191 142 Q 188 143 189 140 L 192 141 Q 196 142 195 140 L 191 138 L 193 135 L 193 137 L 197 136 L 195 135 L 196 133 L 187 131 L 186 136 L 187 138 L 185 139 Q 179 141 178 138 L 175 139 Q 173 141 172 139 L 176 138 L 175 136 L 171 137 Q 170 133 175 135 L 176 131 L 175 129 L 164 129 Z M 208 129 L 206 132 L 208 132 L 208 129 Z M 256 129 L 256 132 Q 259 131 256 129 Z M 263 129 L 261 131 Q 262 133 264 131 L 265 134 L 267 133 L 265 131 Q 266 128 263 129 Z M 96 130 L 95 135 L 96 135 L 96 130 Z M 226 130 L 225 132 L 227 131 L 226 130 Z M 70 131 L 69 135 L 70 135 L 70 131 Z M 77 131 L 76 132 Q 73 131 74 136 L 75 136 Q 74 132 78 133 L 77 131 Z M 82 131 L 80 134 L 82 133 L 82 131 Z M 114 131 L 113 134 L 114 134 L 114 131 Z M 182 131 Q 180 134 183 133 L 182 131 Z M 101 132 Q 99 135 102 134 L 101 132 Z M 159 132 L 159 135 L 158 134 L 157 136 L 155 134 L 154 136 L 152 136 L 154 139 L 160 137 Q 161 133 159 132 Z M 260 132 Q 257 134 260 135 L 261 135 L 260 132 Z M 180 133 L 179 136 L 180 136 L 180 133 Z M 184 133 L 182 136 L 184 137 L 184 133 Z M 226 133 L 225 135 Q 227 134 226 137 L 223 138 L 222 141 L 225 141 L 227 138 Q 228 134 226 133 Z M 236 133 L 236 137 Q 240 139 239 135 L 236 133 Z M 277 133 L 273 138 L 277 135 L 277 133 Z M 81 134 L 81 136 L 83 135 L 81 134 Z M 120 134 Q 118 137 121 136 L 120 134 Z M 129 134 L 128 136 L 130 137 L 129 134 Z M 213 134 L 212 137 L 213 137 L 213 134 Z M 267 134 L 262 137 L 264 137 L 263 139 L 264 142 L 264 144 L 261 145 L 264 145 L 266 145 L 264 148 L 265 149 L 267 148 Q 268 144 265 143 L 267 142 L 268 140 L 267 138 L 268 135 L 267 134 Z M 78 135 L 76 137 L 78 137 L 78 135 Z M 116 135 L 116 140 L 117 140 L 116 135 Z M 254 135 L 255 138 L 256 136 L 254 135 Z M 60 136 L 59 141 L 60 141 L 60 136 Z M 105 136 L 103 138 L 105 138 L 105 136 Z M 132 136 Q 130 139 133 138 L 132 136 Z M 78 137 L 78 139 L 80 138 L 78 137 Z M 124 137 Q 123 140 126 139 Q 127 136 124 137 Z M 212 137 L 211 139 L 213 140 L 212 137 Z M 258 137 L 257 139 Q 259 142 260 139 L 258 137 Z M 74 138 Q 73 141 76 140 Q 77 137 74 138 Z M 88 138 L 86 141 L 87 143 L 88 141 L 88 138 Z M 113 138 L 111 140 L 113 141 L 113 138 Z M 276 138 L 276 141 L 274 145 L 276 145 L 277 143 Q 278 139 276 138 Z M 78 139 L 76 142 L 78 141 L 78 139 Z M 106 139 L 106 142 L 108 141 Q 109 138 106 139 Z M 92 140 L 90 144 L 92 143 L 92 140 Z M 261 140 L 260 144 L 262 143 L 261 140 Z M 140 142 L 139 145 L 137 146 L 139 146 L 141 152 L 142 152 L 140 142 Z M 273 142 L 269 148 L 273 145 L 273 142 Z M 83 144 L 83 146 L 81 147 L 84 147 L 85 145 L 83 144 Z M 212 144 L 210 147 L 212 146 L 212 144 Z M 256 144 L 256 146 L 258 145 L 256 144 Z M 60 145 L 59 155 L 60 155 L 60 145 Z M 94 146 L 93 149 L 94 149 L 94 146 Z M 198 146 L 196 148 L 197 150 L 198 148 L 198 146 Z M 273 146 L 271 150 L 273 149 L 273 146 Z M 62 147 L 63 149 L 65 148 L 62 147 Z M 75 147 L 73 150 L 76 148 L 75 147 Z M 135 147 L 135 149 Q 134 151 137 150 L 136 149 Q 137 146 135 147 Z M 259 147 L 258 150 L 260 150 L 259 147 Z M 269 148 L 264 151 L 265 153 L 264 153 L 262 153 L 264 156 L 268 157 L 267 154 L 269 153 L 268 152 L 269 150 L 269 148 Z M 95 149 L 96 156 L 95 160 L 97 160 Q 96 157 99 158 L 100 159 L 99 156 L 97 156 L 98 154 L 97 154 L 97 153 L 95 149 Z M 119 149 L 117 153 L 119 152 L 119 149 Z M 213 149 L 212 152 L 213 152 L 213 149 Z M 261 150 L 259 152 L 261 152 L 261 150 Z M 269 150 Q 268 153 271 152 Q 272 149 269 150 Z M 70 151 L 70 153 L 72 152 L 70 151 Z M 80 151 L 80 155 L 83 155 L 81 154 L 80 151 Z M 216 151 L 214 154 L 216 153 L 216 151 Z M 254 151 L 255 154 L 256 152 L 254 151 Z M 277 151 L 275 155 L 277 154 L 277 151 Z M 63 152 L 63 155 Q 66 154 63 152 Z M 121 152 L 120 155 L 123 154 L 121 152 Z M 144 152 L 144 154 L 146 153 L 144 152 Z M 90 153 L 91 155 Q 92 152 90 153 Z M 205 153 L 206 156 L 207 154 L 205 153 Z M 220 153 Q 215 155 219 157 L 220 155 L 220 153 Z M 257 153 Q 254 155 257 156 L 258 154 L 257 153 Z M 214 154 L 213 157 L 214 157 L 214 154 Z M 77 155 L 76 158 L 77 158 L 77 155 Z M 127 155 L 125 157 L 127 157 L 127 155 Z M 176 155 L 175 156 L 157 157 L 158 159 L 159 158 L 168 158 L 170 163 Q 169 165 168 163 L 167 165 L 163 167 L 155 165 L 156 168 Q 155 170 154 168 L 153 170 L 156 171 L 154 171 Q 153 177 156 180 L 159 179 L 158 181 Q 157 183 160 182 L 160 185 L 162 184 L 162 186 L 162 187 Q 165 186 164 189 L 172 191 L 178 187 Q 180 188 179 185 L 181 185 L 182 183 L 181 181 L 183 181 L 183 180 Q 182 177 181 179 L 182 177 L 184 178 L 183 177 Q 182 174 185 175 L 185 171 Q 182 172 183 170 L 185 170 L 186 170 L 185 166 L 187 166 Q 186 169 189 168 L 188 170 L 189 173 Q 186 174 187 172 L 186 172 L 188 176 L 188 182 L 186 188 L 189 187 L 192 188 L 191 187 L 192 183 L 192 165 L 191 182 L 190 185 L 188 186 L 190 176 L 190 174 Q 192 167 189 166 Q 188 163 191 164 L 191 159 L 190 162 L 187 162 L 189 161 L 188 159 L 190 159 L 190 157 L 187 156 L 185 157 L 186 158 L 186 164 L 180 166 L 178 166 Q 175 165 176 169 L 178 168 L 177 170 L 178 172 L 176 177 L 174 178 L 179 179 L 177 184 Q 176 186 171 185 L 169 182 L 173 183 L 177 182 L 175 180 Q 173 183 167 181 Q 165 183 164 181 L 171 178 Q 172 175 170 176 Q 167 175 170 173 L 175 174 L 173 164 L 174 158 L 178 157 L 180 158 L 182 158 L 176 155 Z M 247 155 L 245 160 L 247 161 L 247 155 Z M 260 155 L 260 158 L 261 158 Q 262 154 260 155 Z M 277 155 L 275 159 L 276 162 L 276 164 L 275 167 L 276 170 L 277 170 L 277 155 Z M 70 156 Q 69 159 72 158 Q 73 155 70 156 Z M 87 156 L 85 159 L 87 158 L 87 156 Z M 197 156 L 196 159 L 197 159 L 197 156 Z M 245 156 L 243 158 L 245 158 L 245 156 Z M 264 156 L 262 159 L 264 158 L 264 156 Z M 127 157 Q 126 160 129 159 Q 130 156 127 157 Z M 155 157 L 154 163 L 157 162 L 155 161 L 155 157 Z M 76 158 L 74 160 L 75 163 L 76 160 L 76 158 Z M 254 158 L 254 160 L 256 161 Q 257 157 254 158 Z M 266 158 L 263 161 L 265 165 L 263 169 L 263 170 L 266 169 Q 268 163 264 162 L 267 163 L 267 162 L 267 160 Q 268 157 266 158 Z M 100 159 Q 99 162 102 161 Q 103 158 100 159 Z M 142 159 L 143 162 L 144 160 L 142 159 Z M 147 160 L 145 162 L 146 180 L 148 188 L 149 188 Q 150 183 148 182 L 149 179 Q 152 183 152 191 L 153 188 L 150 173 L 149 177 L 147 173 L 147 164 L 148 163 Q 149 159 147 160 Z M 209 160 L 207 164 L 209 163 L 209 160 Z M 252 160 L 251 163 L 252 163 L 252 160 Z M 70 161 L 68 164 L 69 165 Q 73 163 70 161 Z M 121 161 L 119 163 L 121 163 L 121 161 Z M 152 161 L 151 164 L 152 164 L 152 161 Z M 159 161 L 158 165 L 159 165 L 159 161 Z M 196 161 L 195 164 L 196 164 L 196 161 Z M 198 161 L 197 164 L 198 164 L 198 161 Z M 200 161 L 199 164 L 200 164 L 200 161 Z M 216 161 L 214 164 L 216 163 L 216 161 Z M 239 161 L 239 163 L 241 162 L 239 161 Z M 258 161 L 259 164 L 260 162 L 258 161 Z M 163 162 Q 162 165 165 164 Q 166 161 163 162 Z M 178 162 Q 175 166 180 165 L 178 162 Z M 183 162 L 181 164 L 183 164 L 183 162 Z M 194 162 L 193 166 L 194 166 L 194 162 Z M 212 162 L 209 166 L 211 166 L 212 164 L 212 162 Z M 63 163 L 62 183 L 63 183 L 63 163 Z M 143 163 L 140 167 L 142 167 L 143 165 L 143 163 Z M 218 163 L 216 165 L 218 165 L 218 163 Z M 234 163 Q 233 166 236 165 Q 237 162 234 163 Z M 261 163 L 260 165 L 262 164 L 261 163 Z M 154 164 L 153 167 L 154 167 L 154 164 Z M 199 164 L 198 167 L 199 167 L 199 164 Z M 232 164 L 231 166 L 233 165 L 232 164 Z M 239 164 L 239 167 Q 242 166 239 164 Z M 82 165 L 80 167 L 82 167 L 82 165 Z M 149 165 L 148 173 L 149 173 L 149 165 Z M 151 165 L 151 176 L 152 176 L 152 167 L 151 165 Z M 87 166 L 87 168 L 89 167 L 87 166 Z M 105 166 L 103 169 L 106 168 Q 107 165 105 166 Z M 197 166 L 196 169 L 197 169 L 197 166 Z M 224 166 L 223 169 L 225 169 L 226 167 L 224 166 Z M 234 166 L 232 168 L 235 169 Q 238 171 235 172 Q 232 173 233 170 L 231 170 L 229 177 Q 232 178 231 175 L 234 173 Q 235 176 237 172 L 235 168 Q 236 165 234 166 Z M 252 166 L 251 169 L 252 169 L 252 166 Z M 98 167 L 96 169 L 98 169 L 98 167 Z M 195 167 L 194 183 L 193 185 L 195 184 L 195 167 Z M 200 167 L 200 175 L 201 175 L 200 167 Z M 247 167 L 246 170 L 247 170 L 247 167 Z M 260 167 L 258 170 L 260 169 L 260 167 Z M 107 168 L 104 172 L 108 169 L 107 168 Z M 210 168 L 208 170 L 210 170 L 210 168 Z M 229 168 L 229 170 L 231 169 L 229 168 Z M 254 168 Q 252 171 255 170 L 254 168 Z M 268 168 L 267 173 L 268 173 L 268 168 Z M 84 169 L 84 170 L 86 170 L 84 169 Z M 100 169 L 100 171 L 102 170 L 100 169 Z M 116 169 L 114 171 L 116 171 L 116 169 Z M 227 169 L 225 171 L 227 171 L 227 169 Z M 198 170 L 197 185 L 198 185 L 198 170 Z M 261 170 L 258 174 L 259 175 L 262 171 L 261 170 Z M 265 170 L 259 179 L 260 183 L 261 182 L 262 176 L 265 173 L 265 170 Z M 140 171 L 139 176 L 141 178 L 141 176 L 142 173 Q 143 170 140 171 Z M 251 171 L 249 174 L 251 173 L 251 171 Z M 277 171 L 275 174 L 277 174 L 277 171 Z M 79 172 L 79 174 L 81 173 L 79 172 Z M 88 172 L 86 173 L 86 174 L 89 173 L 88 172 Z M 102 172 L 102 174 L 104 173 L 102 172 Z M 218 172 L 218 174 L 220 173 L 218 172 Z M 227 172 Q 226 175 229 174 Q 230 171 227 172 Z M 109 173 L 107 176 L 109 175 L 109 173 Z M 145 173 L 143 177 Q 141 183 144 185 L 143 188 L 146 190 L 145 173 Z M 208 173 L 208 176 Q 211 177 210 175 L 208 173 Z M 101 174 L 99 177 L 102 175 L 101 174 Z M 204 174 L 203 177 L 204 177 L 204 174 Z M 267 174 L 267 177 L 268 177 Q 269 173 267 174 Z M 95 175 L 93 177 L 95 177 L 95 175 Z M 106 175 L 105 177 L 102 178 Q 101 181 104 180 L 107 177 L 106 175 Z M 117 175 L 117 177 L 119 176 L 117 175 Z M 187 175 L 185 180 L 186 183 L 187 180 L 187 175 Z M 234 175 L 232 178 L 234 177 L 234 175 Z M 277 175 L 275 179 L 277 178 L 277 175 Z M 153 176 L 152 179 L 153 179 L 153 176 Z M 240 176 Q 238 179 241 178 L 240 176 Z M 247 176 L 245 178 L 248 178 L 247 176 Z M 256 176 L 257 178 Q 258 175 256 176 Z M 98 177 L 96 180 L 99 178 L 98 177 Z M 109 177 L 107 179 L 109 179 L 109 177 Z M 114 177 L 112 179 L 114 179 L 114 177 Z M 226 177 L 223 180 L 224 181 L 227 179 L 226 177 Z M 236 177 L 234 179 L 235 181 L 237 178 L 236 177 Z M 239 178 L 237 180 L 239 180 L 239 178 Z M 245 178 L 244 181 L 245 181 L 245 178 Z M 250 178 L 248 181 L 251 181 L 252 179 L 250 178 Z M 84 179 L 84 181 L 86 180 L 84 179 Z M 89 179 L 87 181 L 89 181 L 89 179 Z M 107 179 L 105 181 L 107 181 L 107 179 Z M 228 179 L 228 181 L 230 180 L 228 179 Z M 277 179 L 275 183 L 277 182 L 277 179 Z M 141 180 L 139 182 Q 138 185 141 184 L 141 180 Z M 155 181 L 155 189 L 157 190 Q 159 183 155 181 Z M 216 181 L 216 183 L 218 182 L 216 181 Z M 238 181 L 238 183 L 240 182 L 238 181 Z M 110 182 L 110 184 L 112 183 L 110 182 Z M 116 182 L 114 185 L 116 184 L 116 182 Z M 124 182 L 122 184 L 124 184 L 124 182 Z M 135 182 L 133 184 L 135 184 L 135 182 Z M 244 182 Q 242 185 245 184 L 244 182 Z M 254 182 Q 253 185 256 184 Q 257 181 254 182 Z M 90 184 L 89 187 L 91 187 L 92 185 L 90 184 Z M 102 184 L 101 186 L 103 185 L 102 184 Z M 230 184 Q 229 187 232 186 Q 233 183 230 184 Z M 72 185 L 71 188 L 72 188 L 72 185 Z M 197 185 L 194 189 L 197 187 L 197 185 Z M 211 185 Q 210 188 213 187 Q 214 184 211 185 Z M 218 185 L 215 187 L 214 189 Q 217 190 218 187 L 218 185 Z M 237 185 L 237 187 L 239 186 L 237 185 Z M 228 186 L 229 191 L 230 187 L 228 186 Z M 247 186 L 248 188 Q 249 185 247 186 Z M 263 186 L 260 191 L 263 189 L 263 186 Z M 141 187 L 139 192 L 139 193 L 144 192 L 141 190 L 141 187 Z M 94 188 L 92 190 L 94 190 L 94 188 Z M 225 188 L 222 191 Q 221 193 224 192 L 225 190 L 225 188 Z M 80 189 L 79 191 L 76 193 L 77 191 L 76 190 Q 74 193 73 191 L 70 193 Q 67 194 68 192 L 67 192 Q 63 193 64 190 L 62 191 L 62 197 L 65 196 Q 71 194 73 197 L 73 195 L 79 193 L 82 194 L 84 196 Q 85 190 83 189 L 81 192 L 83 193 L 82 193 L 80 189 Z M 182 189 L 170 194 Q 171 196 169 195 L 167 195 L 163 192 L 162 194 L 164 196 L 161 194 L 160 196 L 163 197 L 163 199 L 159 196 L 157 200 L 162 205 Q 161 207 164 206 L 165 209 L 174 212 Q 175 215 177 211 Q 179 210 178 213 L 181 211 Q 184 212 182 208 L 189 205 L 192 201 L 188 198 L 186 199 L 183 198 L 183 197 L 182 194 L 183 192 L 182 189 Z M 190 189 L 193 192 L 194 192 L 190 189 Z M 92 190 L 90 193 L 92 192 L 92 190 Z M 96 190 L 94 192 L 96 192 L 96 190 Z M 215 190 L 213 193 L 215 192 L 215 190 Z M 227 190 L 224 194 L 226 194 Q 230 192 227 190 Z M 277 190 L 276 193 L 277 193 L 277 190 Z M 98 191 L 96 194 L 98 193 L 98 191 Z M 147 191 Q 146 194 150 193 L 154 198 L 155 191 L 152 193 Q 150 190 147 191 Z M 204 191 L 202 193 L 204 193 L 204 191 Z M 231 191 L 232 194 L 233 192 L 231 191 Z M 240 191 L 238 193 L 240 194 L 240 191 Z M 256 191 Q 254 194 257 193 L 256 191 Z M 265 191 L 263 193 L 265 193 L 265 191 Z M 222 192 Q 220 195 223 194 L 222 192 Z M 51 193 L 46 195 L 47 197 L 50 195 Q 56 194 59 197 L 59 196 Q 57 192 51 193 Z M 88 193 L 86 195 Q 87 197 84 196 L 85 201 Q 88 202 87 200 L 87 198 L 89 195 Q 90 192 88 193 Z M 189 193 L 187 195 L 189 195 L 189 193 Z M 193 193 L 191 196 L 193 196 L 193 193 Z M 149 194 L 147 196 L 151 202 L 153 203 L 149 194 Z M 196 194 L 195 196 L 198 197 L 200 196 L 199 195 L 196 194 Z M 237 194 Q 236 197 239 196 Q 240 193 237 194 Z M 262 194 Q 259 195 260 199 L 262 200 L 262 194 Z M 264 194 L 263 197 L 264 198 L 266 195 L 264 194 Z M 277 194 L 275 198 L 277 197 L 277 194 Z M 144 195 L 144 197 L 146 196 L 144 195 Z M 156 195 L 155 198 L 156 198 L 156 195 Z M 230 195 L 228 198 L 230 197 L 230 195 Z M 77 196 Q 73 197 74 201 L 66 200 L 64 200 L 60 202 L 62 204 L 63 202 L 64 204 L 65 202 L 66 204 L 66 203 L 69 202 L 72 204 L 74 203 L 74 205 Q 75 207 80 206 L 83 201 L 81 196 L 79 197 L 77 196 Z M 133 196 L 130 199 L 133 199 L 133 196 Z M 224 196 Q 221 198 224 199 L 225 197 L 224 196 Z M 26 197 L 24 202 L 28 207 L 32 207 Q 30 203 34 204 L 38 204 L 40 202 L 42 203 L 46 202 L 45 200 L 34 200 L 33 198 L 26 197 Z M 100 197 Q 99 200 102 199 Q 103 196 100 197 Z M 197 197 L 197 201 L 200 200 L 197 197 Z M 227 197 L 225 199 L 227 199 L 227 197 Z M 244 197 L 243 199 L 246 200 L 246 198 L 244 197 Z M 50 198 Q 50 202 52 199 L 50 198 Z M 56 198 Q 54 201 57 200 L 56 198 Z M 137 198 L 136 200 L 138 201 L 137 198 Z M 238 198 L 239 200 Q 240 197 238 198 Z M 242 198 L 240 201 L 242 202 L 242 198 Z M 277 198 L 275 200 L 276 203 L 277 203 L 277 198 Z M 221 199 L 221 201 L 223 200 L 221 199 Z M 248 199 L 246 202 L 248 201 L 248 199 Z M 209 200 L 210 202 Q 211 199 209 200 Z M 229 200 L 229 202 L 231 201 L 229 200 Z M 49 201 Q 48 204 51 203 L 54 202 L 57 203 L 57 201 L 49 201 Z M 88 201 L 87 203 L 89 202 L 88 201 Z M 122 201 L 120 203 L 121 205 L 125 203 Q 126 200 124 201 L 122 201 Z M 126 201 Q 125 204 128 203 Q 129 200 126 201 Z M 131 201 L 131 203 L 134 204 L 132 205 L 136 205 L 137 202 L 136 202 L 131 201 Z M 196 201 L 194 204 L 197 204 L 198 205 L 196 201 Z M 148 202 L 145 206 L 147 206 Q 151 204 148 202 Z M 193 202 L 191 204 L 193 204 L 193 202 Z M 204 202 L 201 203 L 197 211 L 187 217 L 190 218 L 193 216 Q 192 218 195 217 L 194 216 L 196 213 L 198 214 L 199 217 Q 201 218 200 216 Q 202 214 200 213 Q 197 214 198 212 L 202 210 L 203 214 L 206 212 L 205 211 L 202 207 L 206 208 L 206 206 L 204 206 L 208 203 L 204 202 Z M 243 202 L 246 206 L 246 205 L 243 202 Z M 268 202 L 266 204 Q 265 206 268 205 L 268 202 Z M 140 203 L 138 205 L 141 205 L 140 203 Z M 154 203 L 155 205 Q 156 202 154 203 Z M 238 203 L 239 205 L 240 205 L 238 203 Z M 264 203 L 265 205 Q 266 202 264 203 Z M 48 204 L 49 206 L 57 206 L 57 204 L 48 204 Z M 86 204 L 85 207 L 87 207 L 86 204 Z M 214 204 Q 212 207 215 206 L 214 204 Z M 151 205 L 146 212 L 148 212 L 147 214 Q 146 217 150 215 L 150 218 L 156 220 L 156 218 L 153 216 Q 150 217 151 214 L 149 214 L 149 210 L 152 208 L 151 205 Z M 276 205 L 276 207 L 276 208 L 278 207 Q 279 204 276 205 Z M 89 206 L 89 208 L 91 207 L 89 206 Z M 115 206 L 113 209 L 115 209 L 115 206 Z M 118 206 L 116 209 L 118 210 L 118 206 Z M 125 206 L 123 207 L 121 210 L 124 208 L 127 209 L 129 212 L 129 210 L 130 208 Q 126 209 127 206 L 125 206 Z M 192 206 L 189 209 L 187 208 L 185 209 L 191 211 L 190 210 L 195 208 L 192 206 Z M 211 206 L 210 208 L 213 209 L 214 209 L 211 206 Z M 233 206 L 233 210 L 233 209 Q 235 207 233 206 Z M 242 206 Q 241 209 244 208 Q 245 205 242 206 Z M 55 207 L 52 209 L 54 211 L 55 209 L 56 211 L 56 210 L 58 211 L 57 213 L 60 211 L 60 214 L 58 214 L 59 217 Q 56 218 57 224 Q 58 226 60 224 L 59 226 Q 58 228 61 227 L 63 227 L 63 229 L 59 231 L 62 236 L 59 235 L 63 243 L 68 240 L 67 238 Q 66 232 70 230 L 69 232 L 70 237 Q 72 234 71 229 L 69 229 Q 70 226 67 227 L 66 232 Q 68 238 64 237 L 65 235 L 63 232 Q 65 230 64 226 L 66 224 L 63 214 L 63 207 L 61 210 L 55 207 Z M 66 207 L 66 210 L 67 210 Q 68 206 66 207 Z M 82 207 L 82 209 L 84 208 L 82 207 Z M 133 207 L 131 210 L 132 215 Q 136 213 133 212 L 135 209 L 133 207 Z M 137 207 L 137 208 L 139 208 L 137 207 Z M 157 207 L 156 209 L 159 211 L 157 207 Z M 49 208 L 49 210 L 51 211 Q 52 207 49 208 Z M 74 208 L 72 210 L 76 211 L 76 210 L 74 208 Z M 209 208 L 207 210 L 209 211 L 209 208 Z M 261 208 L 260 212 L 261 212 L 261 208 Z M 71 209 L 69 211 L 72 212 L 71 209 Z M 81 209 L 75 216 L 76 217 L 80 214 Q 79 211 82 210 L 81 209 Z M 83 209 L 83 211 L 85 210 L 83 209 Z M 88 209 L 86 211 L 88 211 L 88 209 Z M 124 209 L 123 213 L 124 213 L 124 209 Z M 154 209 L 154 215 L 158 216 L 159 216 L 154 209 Z M 218 209 L 213 212 Q 209 211 210 214 Q 203 215 200 220 L 197 220 L 195 220 L 188 222 L 182 222 L 187 218 L 187 217 L 183 219 Q 179 220 181 215 L 183 212 L 180 214 Q 176 213 177 216 L 175 217 L 178 217 L 180 220 Q 179 226 183 229 L 188 228 L 184 227 L 182 224 L 187 225 Q 189 226 188 224 L 192 222 L 191 227 Q 194 228 190 230 L 198 231 Q 201 232 200 229 L 204 228 Q 207 227 206 230 L 210 229 L 212 230 L 213 228 L 215 228 Q 218 229 216 225 L 218 225 L 220 228 L 226 227 L 226 225 L 222 225 L 222 224 L 218 221 L 216 224 Q 213 227 207 226 L 205 223 L 204 227 Q 200 229 201 224 L 199 225 L 200 227 L 197 228 L 197 224 L 196 229 L 193 228 Q 190 220 198 222 Q 199 220 201 223 L 201 222 L 204 223 L 204 219 L 209 217 L 210 219 L 210 217 L 213 215 L 214 218 L 214 215 L 216 216 Q 215 218 218 217 L 216 212 L 220 213 L 223 211 L 218 209 Z M 226 209 L 226 212 L 228 211 Q 229 208 226 209 Z M 278 209 L 275 213 L 278 211 L 278 209 Z M 45 210 L 44 211 Q 41 210 42 213 L 51 217 L 53 217 Q 55 218 54 215 L 53 215 L 47 212 L 45 213 L 45 212 L 45 210 Z M 117 210 L 117 215 L 117 213 Q 119 211 117 210 Z M 186 210 L 184 213 L 186 214 L 186 210 Z M 266 210 L 266 212 L 268 211 L 266 210 Z M 67 211 L 68 219 L 70 218 L 67 211 Z M 139 211 L 139 212 L 143 212 L 139 211 Z M 223 211 L 223 213 L 225 212 L 223 211 Z M 240 211 Q 238 214 241 213 L 240 211 Z M 242 211 L 243 213 L 244 213 L 242 211 Z M 128 212 L 127 215 L 128 215 L 128 212 Z M 162 213 L 160 217 L 163 218 L 164 220 L 167 218 L 171 219 L 172 219 L 171 217 L 170 217 L 165 216 L 162 213 Z M 225 213 Q 222 214 223 220 L 227 221 L 228 219 L 225 217 L 226 215 Q 227 212 225 213 Z M 274 213 L 272 215 Q 271 217 274 216 L 274 213 Z M 137 214 L 136 216 L 138 215 L 137 214 Z M 231 214 L 229 220 Q 231 221 230 226 L 230 227 L 232 226 L 231 219 L 235 222 Q 234 226 237 225 L 236 221 Q 237 218 239 220 L 244 219 L 245 221 Q 242 220 243 223 L 251 223 Q 248 218 242 217 L 237 218 L 231 214 Z M 265 214 L 263 216 L 265 216 L 265 214 Z M 139 215 L 140 217 L 143 216 L 144 217 Q 145 214 139 215 Z M 94 216 L 92 218 L 94 218 L 94 216 Z M 277 216 L 275 220 L 277 221 L 277 216 Z M 43 217 L 42 220 L 43 220 L 43 217 Z M 45 217 Q 42 221 46 220 L 48 220 L 53 221 L 54 223 L 54 221 Q 52 216 51 219 L 45 217 Z M 126 217 L 121 218 L 119 218 Q 115 217 114 220 L 116 222 L 118 219 L 123 220 L 125 222 Q 127 223 126 220 L 129 221 Q 133 220 131 224 L 135 225 L 138 224 L 132 221 L 133 219 L 126 217 Z M 139 217 L 137 219 Q 136 221 139 220 L 139 217 Z M 260 218 L 260 221 L 262 220 Q 263 217 260 218 Z M 100 219 L 101 222 L 102 220 L 102 222 L 103 222 Q 104 217 100 219 Z M 108 219 L 105 221 Q 107 224 108 221 L 108 219 Z M 177 219 L 176 220 L 166 220 L 167 231 L 169 232 L 179 232 L 178 228 L 178 226 L 177 219 Z M 211 219 L 210 223 L 212 223 L 211 219 Z M 147 220 L 145 222 L 147 222 L 147 220 Z M 163 220 L 163 225 L 162 228 L 164 228 Q 165 223 163 220 Z M 257 220 L 262 225 L 262 223 L 261 223 L 260 221 L 257 220 Z M 96 221 L 94 225 L 96 224 L 96 221 Z M 151 221 L 150 224 L 151 224 L 151 221 Z M 93 222 L 91 224 L 93 224 L 93 222 Z M 113 222 L 113 223 Q 115 222 114 226 L 115 226 Q 117 221 113 222 Z M 241 222 L 239 224 L 240 225 L 243 224 L 241 222 Z M 265 222 L 263 226 L 265 227 L 265 222 Z M 275 222 L 276 232 L 277 232 L 277 223 L 275 222 Z M 44 223 L 44 225 L 47 225 L 52 225 L 51 223 L 44 223 Z M 112 223 L 111 228 L 112 228 L 112 223 Z M 155 223 L 153 226 Q 152 229 156 227 L 155 223 Z M 267 223 L 266 226 L 268 227 L 267 223 Z M 106 224 L 107 226 L 109 225 L 106 224 Z M 124 224 L 122 226 L 123 228 L 126 226 L 124 224 Z M 139 224 L 139 225 L 142 225 L 139 224 Z M 147 224 L 145 226 L 146 229 L 147 226 L 147 224 Z M 159 224 L 159 226 L 161 227 Q 162 223 159 224 Z M 252 224 L 250 226 Q 252 229 254 225 L 252 224 Z M 98 225 L 100 231 L 104 233 L 104 232 L 106 230 L 110 234 L 109 229 Q 107 230 106 227 L 104 228 Q 101 229 102 227 L 98 225 Z M 128 225 L 126 227 L 127 229 L 128 227 L 128 225 Z M 248 225 L 248 229 L 249 229 Q 250 224 248 225 Z M 55 226 L 53 228 L 55 228 L 55 226 Z M 118 226 L 116 231 L 118 232 L 118 226 Z M 238 227 L 233 228 L 232 231 L 233 232 L 239 230 Q 240 232 241 230 Q 240 227 244 228 L 245 229 L 245 227 L 238 227 Z M 49 228 L 48 229 Q 44 228 45 231 L 50 232 L 50 231 L 53 230 L 49 228 Z M 75 228 L 75 232 L 70 242 L 70 243 L 74 241 L 73 244 Q 72 246 76 245 L 76 231 L 75 228 Z M 129 228 L 129 230 L 131 229 L 129 228 Z M 134 228 L 135 232 L 138 234 L 137 234 Q 135 230 134 233 L 132 232 L 117 235 L 116 237 L 121 236 L 123 236 L 129 234 Q 134 232 133 236 L 149 231 L 161 231 L 161 230 L 160 230 L 154 229 L 152 229 L 142 232 Q 137 233 138 231 L 137 231 L 136 229 L 138 229 L 134 228 Z M 266 228 Q 265 231 268 230 Q 269 227 266 228 Z M 122 229 L 121 232 L 122 232 L 122 229 Z M 271 229 L 269 232 Q 270 234 272 232 Q 276 233 275 230 L 271 229 Z M 220 230 L 212 232 L 212 233 L 223 232 L 224 231 L 220 230 Z M 188 233 L 188 234 L 191 235 L 194 234 L 193 238 L 195 241 L 193 244 L 194 245 L 196 244 L 195 246 L 191 244 L 190 247 L 194 248 L 196 247 L 194 251 Q 193 253 196 252 L 195 256 Q 194 262 197 264 L 195 266 Q 196 272 194 276 L 197 274 L 198 276 L 197 279 Q 194 280 198 282 L 196 285 L 197 287 L 199 286 L 197 291 L 198 292 L 200 291 L 200 289 L 199 269 L 196 270 L 197 267 L 199 268 Q 197 264 198 257 L 198 255 L 197 253 L 196 236 L 195 235 L 195 233 L 188 233 Z M 55 234 Q 52 235 54 237 L 51 238 L 53 238 Q 54 241 51 240 L 51 243 L 56 240 L 55 234 Z M 111 234 L 112 236 L 115 236 L 111 234 Z M 159 234 L 158 237 Q 154 238 157 240 Q 156 242 159 241 L 159 234 Z M 274 234 L 269 238 L 270 242 L 272 241 Q 273 238 271 239 L 273 236 L 274 238 L 274 235 L 276 235 L 274 234 Z M 279 234 L 278 235 Q 275 234 276 237 L 280 236 L 279 234 Z M 108 236 L 107 238 L 110 239 L 108 236 Z M 130 236 L 122 238 L 122 240 L 121 239 L 113 241 L 121 242 Q 128 241 133 237 L 130 236 Z M 188 236 L 187 238 L 190 239 L 188 236 Z M 281 236 L 279 240 L 283 241 L 284 241 L 281 236 Z M 152 237 Q 150 241 154 242 L 154 238 L 152 237 Z M 136 240 L 135 243 L 136 243 L 136 240 Z M 275 241 L 271 243 L 272 251 L 272 248 L 272 246 L 273 244 L 273 246 L 275 246 L 274 251 L 276 252 Q 275 248 278 249 L 279 256 Q 277 260 281 259 L 288 268 L 288 270 L 290 271 L 290 265 L 283 256 Q 284 253 288 254 L 290 258 L 293 259 L 298 270 L 297 275 L 299 275 L 300 273 L 298 259 L 294 254 L 291 253 L 292 251 Q 287 242 275 241 Z M 50 244 L 49 249 L 56 251 L 57 247 Q 56 243 50 244 Z M 67 244 L 64 245 L 65 247 L 68 245 L 67 244 Z M 159 244 L 157 246 L 159 246 L 159 244 Z M 72 245 L 71 247 L 73 246 L 72 245 Z M 152 245 L 151 251 L 153 251 Q 154 246 152 245 Z M 268 245 L 266 250 Q 265 256 267 260 L 268 260 L 267 257 Q 266 252 268 251 L 268 245 Z M 157 246 L 156 250 L 158 250 Q 159 254 156 253 L 155 256 L 155 262 L 158 262 L 155 268 L 156 269 L 158 268 L 158 271 Q 155 270 156 273 L 156 274 Q 158 273 157 277 Q 155 278 158 279 Q 160 278 158 277 L 159 275 L 159 273 Q 160 268 158 267 L 159 266 L 160 251 L 160 249 L 160 247 L 157 248 L 157 246 Z M 265 246 L 263 248 L 264 250 L 265 248 L 265 246 Z M 72 248 L 72 250 L 75 249 L 72 248 Z M 189 250 Q 188 253 191 252 Q 192 249 189 250 Z M 154 251 L 155 253 Q 156 250 154 251 Z M 261 252 L 263 255 Q 265 256 264 254 L 261 252 Z M 152 253 L 150 255 L 151 257 L 151 258 L 153 257 L 152 253 Z M 204 253 L 203 256 L 204 256 L 204 253 Z M 190 254 L 189 256 L 192 257 L 190 254 Z M 192 258 L 189 261 L 192 263 L 192 258 Z M 275 259 L 270 263 L 272 264 L 275 261 L 275 259 Z M 150 261 Q 151 268 149 271 Q 153 272 154 269 L 153 268 L 151 265 Q 152 262 154 264 L 154 263 L 150 261 Z M 204 262 L 203 272 L 204 272 L 204 262 Z M 190 264 L 191 270 L 189 274 Q 188 276 192 275 L 193 276 L 192 267 L 190 264 Z M 282 266 L 282 269 L 284 268 Q 285 265 282 266 Z M 293 268 L 291 270 Q 294 271 293 274 L 287 273 L 286 269 L 285 275 Q 287 278 294 277 Q 296 276 295 270 L 293 268 Z M 323 270 L 323 276 L 324 273 L 323 270 Z M 153 273 L 149 274 Q 148 277 151 276 Q 152 274 154 277 L 155 275 L 153 273 Z M 282 274 L 282 277 L 273 305 L 281 304 Q 280 299 284 298 L 284 288 L 282 286 Q 281 280 285 280 Q 285 275 282 274 Z M 150 278 Q 148 281 151 280 L 150 278 Z M 191 278 L 190 281 L 192 285 L 190 285 Q 189 287 192 286 L 193 287 Q 194 280 191 278 Z M 289 278 L 287 280 L 289 281 L 289 278 Z M 291 279 Q 290 282 293 281 Q 294 278 291 279 Z M 156 280 L 156 287 L 156 288 Q 158 287 157 291 L 155 290 L 154 293 Q 153 296 151 293 Q 152 290 149 291 Q 147 287 151 288 L 152 289 Q 153 286 151 287 L 149 284 Q 152 283 154 286 L 154 285 L 151 281 L 149 281 L 148 293 L 147 294 Q 146 296 150 295 L 152 298 L 153 296 Q 155 293 156 296 L 154 299 L 156 298 Q 158 297 157 300 L 153 302 Q 147 304 148 300 L 150 300 L 147 298 L 148 304 L 150 303 L 152 307 L 154 303 Q 156 302 155 306 L 152 307 Q 153 312 151 313 L 147 311 Q 146 308 150 309 L 150 307 L 147 305 L 146 314 L 148 313 L 150 316 L 153 314 L 153 317 L 146 323 L 144 319 L 141 323 L 144 324 Q 148 322 147 326 L 146 328 L 155 325 L 156 324 L 157 313 L 156 313 L 153 312 L 157 310 L 158 306 L 157 304 L 157 302 L 158 301 L 158 285 L 159 284 L 158 281 L 156 280 Z M 286 281 L 284 283 L 284 286 L 291 286 L 293 285 L 292 287 Q 291 289 294 288 Q 296 287 295 283 L 294 283 L 286 281 Z M 142 285 L 141 294 L 142 294 L 142 285 Z M 194 287 Q 193 290 196 289 Q 197 286 194 287 Z M 287 288 L 287 301 L 284 304 Q 283 306 286 305 L 284 309 L 285 313 L 291 314 Q 294 312 293 306 L 295 304 Q 296 300 293 301 L 291 302 L 291 289 L 287 288 Z M 191 289 L 190 292 L 193 293 Q 194 296 192 295 L 190 295 L 195 300 L 196 298 L 195 298 L 194 292 L 191 289 Z M 294 289 L 293 298 L 294 298 L 294 289 Z M 198 294 Q 196 297 199 296 L 199 299 Q 197 300 200 301 L 201 299 L 200 295 L 198 294 Z M 192 300 L 192 304 L 191 307 L 194 309 L 193 302 L 192 300 Z M 198 300 Q 195 301 196 306 L 199 307 L 198 310 L 199 312 L 201 311 L 201 303 L 198 304 L 198 300 Z M 256 301 L 255 306 L 259 306 L 256 301 Z M 315 305 L 313 312 L 314 317 L 315 312 L 315 305 Z M 278 306 L 277 308 L 279 307 L 278 306 Z M 299 306 L 295 309 L 296 311 L 295 314 L 292 315 L 292 328 L 291 329 L 291 330 L 287 330 Q 285 326 286 317 L 282 314 L 283 309 L 280 307 L 280 309 L 280 343 L 279 344 L 280 346 L 281 428 L 282 423 L 282 414 L 281 413 L 282 411 Q 280 405 284 406 L 284 424 L 283 428 L 289 427 L 291 427 L 293 428 L 301 427 L 303 427 L 307 428 L 307 427 L 309 426 L 310 427 L 321 427 L 322 421 L 322 413 L 321 412 L 322 408 L 321 401 L 321 399 L 323 395 L 323 403 L 324 403 L 324 375 L 322 374 Q 321 371 324 372 L 323 369 L 319 371 L 312 371 L 305 369 L 300 364 L 299 359 L 301 359 L 302 357 L 306 354 L 308 346 L 308 337 L 311 322 L 311 313 L 313 308 L 312 306 L 299 306 Z M 68 307 L 68 309 L 70 308 L 68 307 Z M 254 308 L 254 319 L 253 320 L 254 327 L 256 312 L 258 312 L 257 310 Q 258 307 254 308 Z M 318 310 L 317 315 L 318 315 L 318 310 Z M 192 311 Q 190 314 193 313 L 192 311 Z M 202 311 Q 202 315 200 314 L 201 317 L 200 318 L 201 319 L 203 318 L 202 311 Z M 276 311 L 277 313 Q 278 310 276 311 Z M 140 312 L 137 318 L 138 319 L 140 315 L 140 312 Z M 74 313 L 73 316 L 74 316 L 74 313 Z M 194 313 L 195 318 L 197 318 L 194 313 Z M 324 313 L 323 316 L 324 316 L 324 313 Z M 175 315 L 174 318 L 175 318 L 175 315 Z M 319 315 L 318 319 L 320 320 L 319 315 Z M 144 316 L 144 319 Q 148 320 147 318 L 144 316 Z M 191 317 L 191 319 L 195 322 L 193 319 Q 194 316 191 317 Z M 288 317 L 289 323 L 288 325 Q 287 328 290 327 L 290 318 L 288 317 Z M 277 318 L 276 321 L 277 321 L 277 318 Z M 313 318 L 312 325 L 313 325 L 313 318 Z M 203 319 L 201 323 L 202 324 L 206 322 L 203 319 Z M 324 319 Q 324 323 321 322 L 323 330 L 323 335 L 324 335 L 324 319 Z M 198 321 Q 195 325 199 324 L 198 321 Z M 315 321 L 311 339 L 310 351 L 308 357 Q 307 360 313 358 L 315 358 L 315 321 Z M 318 321 L 317 326 L 318 326 L 318 321 Z M 207 323 L 206 326 Q 210 327 209 324 L 207 323 Z M 136 324 L 132 327 L 136 329 L 134 327 L 137 325 L 136 324 Z M 203 326 L 204 328 L 205 328 L 203 326 Z M 319 326 L 317 358 L 323 357 L 324 358 Q 325 351 322 349 L 322 342 L 320 337 L 321 335 L 319 326 Z M 137 327 L 137 329 L 142 330 L 145 329 L 137 327 Z M 117 328 L 116 330 L 119 329 L 117 328 Z M 209 328 L 210 329 L 211 330 Q 212 327 209 328 Z M 253 329 L 252 332 L 253 332 L 253 329 Z M 123 330 L 121 331 L 119 334 Q 122 335 121 332 L 125 331 L 128 333 L 127 332 Q 128 328 123 330 Z M 134 330 L 132 332 L 134 332 L 134 330 Z M 214 330 L 212 333 L 215 331 L 214 330 Z M 264 331 L 263 334 L 264 334 L 264 331 Z M 112 332 L 110 335 L 113 333 L 112 332 Z M 218 332 Q 216 335 219 334 L 218 332 Z M 123 333 L 123 335 L 126 334 L 123 333 Z M 215 334 L 216 336 Q 217 333 215 334 Z M 120 336 L 119 342 L 114 343 L 115 346 L 115 347 Q 117 346 116 350 L 113 351 Q 110 350 111 353 L 113 353 L 112 355 L 113 358 Q 112 361 110 358 Q 111 355 109 356 L 107 359 L 107 361 L 108 368 L 111 369 Q 112 372 110 371 L 108 371 Q 107 378 111 381 L 113 380 Q 115 379 114 383 L 116 384 L 115 381 L 118 379 L 119 382 L 120 382 L 119 379 Q 118 375 121 376 L 121 374 L 119 375 L 117 372 L 121 373 L 122 374 L 119 366 L 117 367 L 116 366 L 114 370 L 111 365 Q 106 366 108 362 L 115 358 L 116 362 L 113 363 L 115 366 L 118 364 L 117 354 L 114 355 Q 112 351 117 352 L 118 353 L 117 351 L 122 338 Q 123 335 120 336 Z M 217 336 L 217 340 L 217 339 L 220 338 L 217 336 Z M 222 336 L 220 339 L 222 339 Q 225 338 222 336 Z M 259 337 L 258 340 L 259 340 L 259 337 Z M 113 338 L 114 340 L 116 339 L 113 338 Z M 101 339 L 99 342 L 102 340 L 101 339 Z M 224 339 L 222 341 Q 223 343 220 342 L 219 345 L 221 346 Q 220 342 223 343 L 224 341 L 224 339 Z M 249 339 L 248 340 Q 245 339 246 342 L 246 343 L 249 342 L 249 339 Z M 218 340 Q 216 343 219 342 L 218 340 Z M 97 342 L 95 345 L 98 343 L 97 342 Z M 225 342 L 223 344 L 224 346 L 226 345 Q 227 341 225 342 Z M 102 343 L 99 345 L 94 351 L 86 356 L 85 359 Q 82 358 83 361 L 95 361 L 97 362 L 99 353 L 102 347 L 102 343 Z M 112 343 L 111 346 Q 110 348 109 346 Q 106 345 107 349 L 109 348 L 111 349 L 114 348 L 112 347 L 112 343 Z M 245 343 L 243 346 L 246 352 L 247 352 L 245 343 Z M 235 344 L 235 348 L 236 348 L 235 344 Z M 219 345 L 218 351 L 221 349 L 219 348 L 219 345 Z M 227 345 L 226 348 L 219 352 Q 218 360 221 366 L 223 365 L 225 366 L 224 363 L 226 359 Q 229 361 227 366 L 223 369 L 221 366 L 220 369 L 223 370 L 224 372 L 224 369 Q 227 368 226 371 L 228 372 L 227 370 L 230 369 Q 229 366 232 367 L 232 366 Q 229 367 230 364 L 232 364 L 230 362 Q 226 360 230 359 L 228 352 Q 224 350 225 354 L 227 353 L 228 357 Q 227 359 223 358 L 223 362 L 221 358 L 223 358 L 220 356 L 221 354 L 224 355 L 223 351 L 228 350 L 227 345 Z M 258 346 L 257 349 L 258 349 L 258 346 Z M 92 347 L 91 348 Q 88 347 89 350 L 83 354 L 84 356 L 92 349 L 92 347 Z M 108 350 L 107 354 L 108 354 L 108 350 Z M 239 351 L 238 354 L 239 354 L 239 351 Z M 187 352 L 186 355 L 187 355 L 187 352 Z M 244 355 Q 243 358 246 357 Q 247 354 244 355 Z M 260 355 L 259 357 Q 263 358 262 356 L 260 355 Z M 81 357 L 78 361 L 82 358 L 81 357 Z M 246 359 Q 245 362 253 361 L 255 361 L 266 362 Q 265 364 262 363 L 260 363 L 256 365 Q 260 364 262 367 L 265 365 L 267 366 L 272 359 L 254 359 L 253 360 L 246 359 Z M 314 359 L 313 360 L 302 360 Q 301 364 305 365 L 307 364 Q 310 363 309 366 L 315 365 L 318 364 L 318 362 L 316 363 Q 312 361 316 360 L 314 359 Z M 217 361 L 216 364 L 217 364 L 217 361 Z M 86 363 Q 84 366 87 365 L 86 363 Z M 89 363 Q 88 366 92 365 Q 93 363 94 366 L 93 368 L 96 369 L 97 365 L 97 363 L 89 363 Z M 86 367 L 84 369 L 87 369 Q 88 366 86 367 Z M 89 367 Q 88 370 91 369 Q 92 366 89 367 Z M 101 368 L 100 371 L 101 371 L 101 368 Z M 246 368 L 245 372 L 246 372 L 246 368 Z M 94 371 L 94 373 L 96 374 Q 97 370 94 371 Z M 77 372 L 75 374 L 77 374 L 77 372 Z M 265 372 L 265 374 L 267 373 L 265 372 Z M 267 374 L 267 376 L 269 375 L 267 374 Z M 95 377 L 94 379 Q 96 378 95 381 L 93 380 L 89 382 L 95 383 L 93 384 L 91 384 Q 90 386 93 385 Q 95 386 94 391 L 93 390 L 90 392 L 91 396 L 91 398 Q 92 403 90 404 L 88 402 L 89 400 L 88 395 L 89 389 L 87 388 L 87 448 L 89 451 L 92 444 L 92 438 L 97 429 L 95 428 L 98 427 L 99 425 Q 96 419 97 409 L 97 407 L 95 399 L 95 389 L 96 388 L 96 378 L 95 377 Z M 82 378 L 83 380 Q 84 377 82 378 Z M 84 381 L 82 383 L 83 388 L 84 384 L 84 381 Z M 257 386 L 255 388 L 257 388 L 257 386 Z M 91 387 L 92 389 Q 93 386 91 387 Z M 84 388 L 83 392 L 84 392 L 84 388 Z M 84 395 L 83 398 L 84 398 L 84 395 Z M 324 413 L 323 417 L 324 417 L 324 413 Z M 60 415 L 59 420 L 60 420 L 60 415 Z M 324 419 L 323 427 L 324 427 L 324 419 Z M 282 429 L 275 430 Q 277 434 276 442 L 280 443 Q 284 444 283 442 Q 281 440 284 439 L 286 443 L 286 441 L 287 438 L 286 433 L 289 435 L 288 439 L 291 443 Q 297 445 299 442 L 301 443 L 304 442 L 324 442 L 324 430 L 321 429 L 323 435 Q 324 441 322 440 Q 319 439 321 438 L 319 432 Q 320 427 316 429 L 318 433 Q 320 439 316 438 L 314 429 Q 310 428 312 433 Q 309 434 310 431 Q 309 428 306 429 L 304 429 Q 298 428 297 430 L 292 429 L 287 430 L 285 430 L 282 429 Z M 64 430 Q 62 433 65 432 L 64 430 Z M 328 430 L 327 440 L 326 441 Q 325 443 328 442 L 328 430 Z M 113 433 L 112 440 L 113 440 L 113 433 Z M 38 434 L 34 435 L 33 438 L 34 443 L 33 446 L 36 446 L 36 441 L 39 441 L 40 446 L 60 446 L 61 444 L 61 435 L 60 441 L 56 439 Q 51 437 54 436 L 53 434 L 50 435 L 46 434 L 44 435 Q 39 436 38 434 Z M 20 435 L 21 439 L 23 438 Q 25 440 24 446 L 25 446 L 25 435 L 20 435 Z M 30 435 L 28 441 Q 26 447 30 446 L 30 435 Z M 14 436 L 13 445 L 14 445 L 14 436 Z M 17 438 L 16 445 L 17 445 L 17 438 Z M 21 441 L 20 446 L 21 446 L 21 441 Z M 304 444 L 303 445 L 290 445 L 289 448 L 286 449 L 286 446 L 284 450 Q 285 452 283 451 Q 281 454 280 450 L 277 453 Q 273 454 274 452 L 276 449 L 269 453 Q 265 452 266 455 L 296 455 L 297 454 L 300 455 L 302 455 L 307 454 L 334 454 L 335 453 L 330 450 L 327 447 L 321 444 L 322 448 Q 324 453 321 452 Q 318 451 320 450 L 318 447 L 318 444 L 304 444 Z M 281 446 L 280 450 L 283 448 Q 284 445 281 446 Z M 276 447 L 276 449 L 278 448 L 276 447 Z M 11 448 L 9 450 L 11 456 L 11 455 L 16 450 L 18 450 L 18 448 L 12 452 L 11 448 Z M 22 448 L 20 452 L 22 451 L 22 448 Z M 25 448 L 25 452 L 21 454 L 20 453 L 19 453 Q 20 457 16 455 L 14 455 L 12 456 L 14 457 L 36 457 L 37 458 L 38 457 L 65 457 L 62 452 L 61 454 Q 63 455 61 456 L 58 453 Q 56 449 55 453 Q 51 453 52 449 L 50 448 L 48 449 L 46 449 L 43 448 L 38 449 L 31 448 L 30 453 L 26 455 L 27 451 Q 28 447 25 448 Z M 267 449 L 265 451 L 267 451 L 267 449 Z M 66 451 Q 64 454 67 453 L 66 451 Z M 69 454 L 68 457 Q 72 458 71 455 L 69 454 Z M 333 455 L 330 456 L 331 469 L 328 470 L 328 464 L 327 463 L 327 456 L 324 456 L 323 459 L 324 461 Q 326 466 323 468 L 324 470 L 321 471 L 320 468 L 321 466 Q 322 461 320 460 L 321 458 L 318 456 L 318 470 L 317 471 L 315 470 L 315 456 L 310 457 L 312 457 L 312 466 L 311 467 L 309 467 L 309 456 Q 305 455 307 461 L 304 462 L 304 457 L 302 462 L 299 456 L 295 457 Q 289 459 288 456 Q 288 464 286 467 L 283 466 L 284 462 L 283 457 L 282 467 L 281 468 Q 282 470 279 469 L 278 458 L 277 458 L 277 468 L 275 468 Q 273 465 274 459 Q 273 456 271 459 Q 272 465 270 464 Q 267 463 268 458 L 267 463 L 265 463 L 265 457 L 263 457 L 264 465 L 278 470 L 285 470 L 289 473 L 330 473 L 334 473 L 335 472 L 335 457 L 333 455 Z M 16 459 L 15 460 L 10 460 L 10 470 L 10 472 L 9 476 Q 11 479 12 476 Q 14 469 11 468 Q 10 463 13 462 Q 17 467 15 477 L 18 476 Q 19 471 17 470 L 18 468 Q 17 465 21 466 L 22 473 L 22 460 Q 19 459 20 464 L 16 465 L 16 459 Z M 25 460 L 25 473 L 21 474 Q 19 479 26 477 L 25 476 L 26 467 Q 28 464 29 467 L 29 476 L 28 477 L 48 477 L 47 476 L 49 468 L 49 461 L 49 460 L 25 460 Z M 53 460 L 51 469 L 52 477 L 54 477 L 54 470 L 56 470 L 57 474 Q 55 478 60 477 L 63 472 Q 64 466 62 464 L 61 472 L 60 473 L 58 473 L 58 463 Q 60 461 58 460 L 56 464 Q 57 467 55 466 Q 52 465 53 460 Z M 62 460 L 61 462 L 63 463 L 62 460 Z M 65 460 L 66 463 L 70 461 L 65 460 Z M 243 460 L 242 463 L 243 463 L 243 460 Z M 73 463 L 69 472 L 70 473 L 73 466 L 73 463 Z M 76 464 L 74 468 L 76 467 L 76 464 Z M 69 465 L 67 468 L 68 471 L 69 468 L 69 465 Z M 67 471 L 66 475 L 67 475 L 67 471 Z M 321 474 L 320 475 L 305 475 L 304 476 L 303 475 L 293 475 L 292 482 Q 295 485 294 492 L 289 494 L 274 493 L 273 492 L 268 495 L 259 495 L 258 494 L 252 494 L 242 497 L 240 497 L 227 496 Q 225 493 224 497 Q 217 499 216 496 L 214 497 L 196 498 L 195 499 L 190 498 L 186 498 L 178 501 L 170 501 L 169 500 L 165 501 Q 159 507 150 510 Q 142 511 139 509 L 140 505 Q 141 502 139 503 L 136 499 L 127 493 L 123 493 L 115 496 L 105 503 L 101 502 L 96 502 L 89 505 L 81 506 Q 74 502 73 494 L 74 489 Q 64 490 60 485 Q 60 480 60 480 L 17 480 L 13 480 L 10 481 L 10 516 Q 8 517 11 518 L 19 518 L 20 517 L 24 518 L 26 518 L 29 517 L 31 518 L 35 517 L 37 518 L 41 518 L 43 517 L 89 517 L 91 517 L 94 516 L 98 517 L 99 516 L 142 516 L 146 516 L 149 515 L 151 516 L 154 515 L 160 516 L 162 516 Q 167 518 169 515 L 179 515 L 180 516 Q 185 518 187 515 L 191 516 L 196 515 L 200 515 L 203 516 L 206 515 L 208 516 L 210 516 L 290 516 L 291 515 L 296 516 L 298 516 L 300 515 L 335 515 L 335 500 L 336 498 L 334 499 Q 335 501 332 500 L 329 501 L 325 500 Q 322 501 324 503 L 323 505 L 324 510 L 321 511 L 320 503 Q 322 501 320 500 Q 315 499 314 502 L 315 504 L 311 504 L 310 502 Q 313 498 320 499 L 319 496 L 317 497 L 312 496 L 310 493 Q 312 491 318 492 L 319 488 L 315 487 Q 311 488 312 486 L 320 483 L 319 479 L 323 476 Q 331 474 333 479 Q 330 482 323 481 L 324 483 L 332 483 L 331 485 L 324 485 L 323 487 L 326 486 L 330 487 L 332 486 L 334 488 L 323 488 L 324 491 L 333 491 L 332 493 L 327 492 L 325 492 Q 322 491 323 495 L 325 494 Q 332 493 335 497 L 335 474 L 327 475 L 325 475 L 321 474 Z M 324 478 L 324 479 L 328 479 L 324 478 Z M 272 482 L 271 485 L 272 485 L 272 482 Z M 177 484 Q 175 487 178 486 L 177 484 Z M 285 489 Q 284 492 287 491 Q 288 488 285 489 Z M 243 491 L 242 492 Q 235 490 236 494 Q 242 496 244 492 L 243 491 Z M 315 493 L 316 495 L 318 494 Q 319 496 320 494 L 315 493 Z M 103 495 L 102 498 L 103 498 L 103 495 Z M 109 495 L 107 497 L 108 499 L 110 498 Q 111 494 109 495 Z M 155 495 L 148 498 Q 145 497 146 500 L 142 502 L 141 505 Q 139 509 144 508 L 146 508 L 151 506 Q 153 507 152 504 L 155 505 L 156 505 L 154 503 L 154 502 L 157 504 L 157 503 L 156 500 L 161 502 L 162 498 L 159 497 Q 160 493 155 495 Z M 323 496 L 323 499 L 331 499 L 331 498 L 330 496 L 323 496 Z M 104 499 L 104 500 L 106 500 L 104 499 Z M 331 516 L 330 517 L 323 517 L 322 521 L 322 544 L 319 544 L 319 532 L 320 531 L 319 528 L 320 526 L 319 524 L 320 521 Q 322 515 317 517 L 318 522 L 317 524 Q 319 529 314 527 L 314 520 L 315 519 L 315 517 L 311 517 L 312 524 L 311 528 L 312 530 L 311 532 L 312 533 L 312 542 L 309 543 L 309 524 L 308 517 L 306 518 L 306 530 L 306 532 L 306 541 L 305 546 L 328 546 L 329 545 L 331 546 L 333 545 L 332 540 L 333 535 L 332 520 L 331 516 Z M 336 516 L 334 519 L 335 527 L 336 527 L 336 516 Z M 160 517 L 157 518 L 157 529 L 158 530 Q 159 533 155 531 L 154 526 L 154 519 L 152 518 L 151 522 L 152 523 L 152 530 L 149 530 L 149 518 L 146 518 L 146 527 L 145 528 L 143 527 L 143 518 L 141 519 L 141 528 L 138 528 L 138 518 Q 135 517 136 520 L 135 523 L 135 531 L 134 531 L 132 530 L 132 521 Q 134 519 132 518 L 130 533 L 130 535 L 131 541 Q 127 542 130 544 L 129 547 L 136 547 L 136 540 L 135 539 Q 134 535 137 534 Q 139 535 137 537 Q 136 543 139 545 L 140 546 L 150 546 L 149 545 L 151 539 L 153 542 L 156 541 L 155 543 L 156 547 L 157 546 L 165 546 L 165 538 L 164 537 L 165 529 L 168 530 L 168 546 Q 174 548 172 543 L 171 543 Q 167 542 169 536 L 169 534 L 170 532 L 169 530 Q 172 528 170 523 L 172 521 L 174 523 Q 173 525 176 524 L 176 532 L 175 532 L 173 532 Q 171 538 175 537 L 176 546 L 193 546 L 193 539 L 196 541 L 195 545 L 196 546 L 218 546 L 219 541 Q 221 535 218 534 L 219 531 L 219 519 L 215 518 L 215 528 L 214 529 L 214 543 L 213 543 L 211 542 L 211 529 L 211 527 L 212 525 L 211 523 L 212 520 Q 213 516 209 518 L 208 526 L 208 528 L 208 541 L 209 542 L 208 545 L 205 542 L 205 519 L 203 518 L 203 541 L 202 542 L 200 542 L 200 519 L 197 518 L 196 525 L 197 526 L 197 536 L 194 537 L 194 529 L 193 528 L 193 519 L 190 518 L 191 521 Q 192 528 190 531 L 187 530 L 187 520 L 188 519 L 185 518 Q 182 519 183 524 L 183 526 L 184 529 L 181 530 Q 179 526 180 518 L 177 520 Q 178 523 174 521 L 174 517 L 172 520 L 168 519 L 169 523 L 168 525 Q 169 527 166 526 L 164 518 L 160 517 Z M 301 517 L 301 525 L 300 525 Q 297 523 298 518 L 297 524 L 297 526 L 297 537 L 299 537 L 298 536 L 299 534 L 298 532 L 299 529 Q 298 526 302 527 L 301 529 L 302 536 L 303 534 L 302 532 L 303 529 Q 305 522 302 521 L 303 518 L 301 517 Z M 88 518 Q 85 519 87 521 L 87 546 L 84 546 L 83 544 L 84 541 L 84 531 L 83 530 L 84 528 L 83 519 L 81 520 L 81 536 Q 83 537 81 538 L 78 536 L 77 519 L 74 521 L 74 535 L 73 535 Q 69 533 71 527 L 71 525 L 70 523 L 71 521 L 71 519 Q 68 520 69 527 L 69 529 Q 70 536 68 539 L 65 538 L 65 523 L 66 522 L 65 519 L 64 534 L 63 535 Q 64 538 60 536 L 60 526 L 61 525 L 60 522 Q 61 518 58 519 L 58 527 L 57 528 L 58 531 L 58 533 L 57 537 L 54 536 L 54 520 L 51 519 L 51 538 L 50 540 L 48 539 L 48 525 L 48 523 L 47 519 L 44 521 L 45 532 L 42 533 L 41 531 L 41 521 L 39 520 L 38 523 L 39 527 L 39 529 Q 41 534 37 533 L 36 531 L 36 520 Q 33 519 34 523 L 34 525 L 34 534 L 33 535 L 31 533 L 31 525 L 30 524 L 31 522 L 29 521 Q 28 526 30 528 L 30 545 L 29 546 L 27 546 L 27 536 L 27 534 L 26 524 L 25 521 L 24 531 Q 21 532 22 529 L 22 527 L 21 522 L 22 520 L 19 522 L 19 532 L 17 532 L 16 530 Q 15 523 17 520 L 13 522 L 14 535 L 11 535 L 11 521 L 9 522 L 9 531 L 11 539 L 13 536 L 14 538 L 16 548 L 18 547 L 17 543 L 17 541 L 18 537 Q 17 534 20 535 L 21 548 L 24 548 L 26 547 L 28 548 Q 36 551 33 543 L 36 542 L 38 548 L 38 540 L 39 539 Q 38 536 41 537 L 40 540 L 41 548 Q 44 549 43 547 L 43 545 L 43 536 L 46 536 L 45 539 L 46 543 L 45 548 L 47 548 L 49 548 L 54 547 L 57 548 L 57 542 L 60 540 L 61 547 L 61 542 L 64 542 L 64 548 L 68 548 L 67 547 Q 66 544 69 545 Q 70 543 71 546 L 71 548 L 79 548 L 78 542 Q 80 538 82 543 L 82 548 L 98 548 L 99 547 L 99 519 L 97 520 L 98 542 L 95 543 L 94 537 L 94 520 L 92 519 L 92 529 L 93 530 L 93 541 L 92 542 L 93 544 Q 94 547 91 546 L 89 545 L 89 520 L 88 518 Z M 104 518 L 102 520 L 102 532 L 103 533 L 102 538 L 103 540 L 102 548 Q 106 549 104 544 L 107 544 L 109 547 Q 111 548 110 546 L 110 544 L 110 525 L 109 524 L 110 518 L 108 519 L 108 539 L 107 539 L 104 536 Q 102 529 105 528 L 104 518 Z M 114 518 L 113 520 L 113 522 L 112 525 L 113 528 L 113 539 L 112 541 L 113 544 L 111 547 L 113 548 L 116 547 L 119 548 L 120 543 Q 124 542 122 547 L 127 547 L 126 543 L 129 542 L 127 536 L 128 534 L 127 532 L 127 519 L 123 518 L 123 529 L 124 530 Q 125 534 121 532 L 119 518 Q 116 519 118 521 L 118 532 L 117 533 Q 113 528 114 518 Z M 224 518 L 222 520 L 222 529 L 221 530 Q 220 535 222 537 Q 223 543 220 545 L 221 546 L 231 546 L 230 544 L 231 540 L 233 540 L 233 546 L 246 546 L 245 544 L 245 532 L 248 533 L 248 545 L 251 546 L 250 545 L 250 533 L 252 532 L 253 545 L 255 546 L 261 546 L 262 532 L 264 530 L 263 519 L 262 530 L 261 531 L 259 530 L 259 518 L 254 519 L 253 522 Q 255 528 251 527 L 250 525 L 251 520 Q 252 516 248 518 L 248 525 L 247 526 Q 244 524 245 519 L 243 521 L 243 529 Q 239 526 240 518 L 238 520 L 238 528 L 237 529 Q 235 535 238 537 L 237 540 L 235 540 L 235 519 L 234 518 L 232 518 L 230 527 L 231 529 L 230 531 L 230 540 L 228 540 L 227 538 L 228 519 L 224 518 Z M 268 518 L 265 521 L 267 531 L 265 536 L 264 541 L 266 546 L 266 538 Q 267 535 271 536 L 272 541 L 271 543 Q 268 542 269 546 L 282 546 L 284 545 Q 285 542 282 541 L 284 531 L 287 532 L 287 546 L 299 546 L 299 545 L 299 543 L 299 538 L 296 543 L 294 543 L 294 519 L 292 518 L 292 537 L 291 538 L 293 543 L 289 542 L 290 539 L 289 537 Q 287 530 290 529 L 289 520 L 286 518 L 285 523 L 286 527 Q 287 529 283 528 L 283 521 L 281 524 L 281 543 L 278 544 L 278 531 L 279 530 L 279 519 L 276 518 L 275 521 L 276 525 L 275 527 L 276 530 L 273 531 L 274 528 L 273 525 L 274 523 L 273 521 Q 275 519 273 518 L 271 520 L 271 529 Q 273 530 271 531 L 269 531 L 269 519 L 268 518 Z M 303 536 Q 300 538 301 543 L 303 542 L 303 536 Z M 11 541 L 10 548 L 12 547 L 11 541 Z M 301 544 L 301 546 L 303 545 L 301 544 Z M 326 547 L 325 548 L 188 548 L 186 548 L 173 548 L 172 549 L 167 548 L 161 549 L 157 549 L 152 548 L 151 549 L 105 549 L 104 550 L 102 549 L 100 549 L 95 550 L 72 550 L 71 549 L 70 550 L 13 550 L 10 551 L 10 584 L 11 585 L 11 593 L 54 593 L 55 592 L 59 593 L 62 592 L 66 593 L 67 592 L 107 592 L 109 592 L 112 591 L 149 591 L 150 590 L 152 591 L 160 591 L 161 590 L 166 591 L 168 591 L 170 590 L 173 591 L 175 591 L 176 590 L 229 590 L 232 589 L 235 590 L 268 590 L 269 589 L 272 590 L 275 589 L 278 590 L 281 589 L 289 590 L 291 590 L 295 589 L 297 589 L 302 590 L 307 589 L 309 589 L 322 589 L 323 590 L 325 589 L 335 589 L 335 589 L 335 549 L 334 547 L 326 547 Z "></path><path d="M 290.5 8 L 291 10.5 L 290 11.5 L 290 25.5 L 288.5 30 L 288 13.5 L 290.5 8 Z "></path><path d="M 319.5 9 Q 321.8 8.3 321 10.5 L 322 15.5 L 321 16.5 L 321 40.5 L 319 42.5 L 319 55.5 L 320 56.5 L 320 79.5 L 319 80.5 L 319 124.5 L 319 126.5 L 320 128.5 L 321 152.5 L 321 154.5 L 320 156.5 L 321 159.5 L 320 166 L 318 165.5 L 318 135.5 L 317 134.5 L 317 83.5 L 318 82.5 L 318 58.5 L 317 57.5 L 317 25.5 L 316 24.5 L 316 12 L 318 12.5 L 318 30.5 L 319 30.5 L 320 10.5 L 319.5 9 Z M 319 32 Q 317 35 320 34 L 319 32 Z "></path><path d="M 25.5 11 Q 27.8 12.8 27 17.5 L 27 19.5 L 27 51.5 L 28 52.5 L 28 62 L 26 61.5 L 26 51.5 L 25 50.5 L 24 24.5 L 24 22.5 L 24 12.5 L 25.5 11 Z "></path><path d="M 285.5 11 L 287 15.5 L 285.5 20 L 285.5 11 Z "></path><path d="M 311 11 L 313 11.5 L 313 31.5 L 313 33.5 L 314 39.5 L 313 41.5 L 315 49.5 L 315 74 L 313 73.5 L 313 44.5 L 310 43 Q 309.3 39.9 312 40.5 L 312 16.5 L 311 11 Z "></path><path d="M 31.5 12 Q 34.5 13.5 31.5 15 Q 29.3 15.8 30 13.5 L 31.5 12 Z "></path><path d="M 147 17 L 187.5 17 L 188 19 Q 184.9 21 178 20 L 178 34 L 184.5 34 L 186 36.5 L 183.5 38 L 182.5 37 L 148.5 37 Q 147.3 39.3 146 36.5 Q 147.5 33.5 153.5 35 L 156 32.5 L 159 27.5 L 152.5 19 Q 145.6 21 147 17 Z M 170 19 L 164 28 L 165 31 Q 166 35 172 34 L 173 33 L 173 20 L 172 20 L 170 19 Z M 159 20 L 161 23 L 163 22 L 163 20 L 159 20 Z M 161 32 L 159 35 L 163 34 Q 164 31 161 32 Z "></path><path d="M 29.5 18 Q 32.5 17.2 31 21 L 28 19.5 L 29.5 18 Z "></path><path d="M 33 19 Q 36 18 35 21 Q 32 22 33 19 Z "></path><path d="M 294 26 L 296 26.5 L 294 27.5 L 294 26 Z "></path><path d="M 306.5 26 Q 309.5 27.5 306.5 29 L 306.5 26 Z "></path><path d="M 29 28 Q 32 26.8 31 30.5 L 29 29.5 L 29 28 Z "></path><path d="M 284 29 L 286 29 L 286 34 L 284 34 L 284 29 Z "></path><path d="M 288.5 31 L 289 38.5 L 288 38.5 L 288.5 31 Z "></path><path d="M 300 32 Q 303 31 302 34 Q 299 35 300 32 Z "></path><path d="M 292 33 Q 295 32 294 35 Q 291 36 292 33 Z "></path><path d="M 283.5 39 Q 286.3 40.3 284 41.5 L 283.5 108 Q 280.8 102.8 282 93.5 L 283 91.5 L 282 88.5 L 283 86.5 L 282 85.5 L 282 69.5 L 283 68.5 L 283 60.5 L 282 57.5 L 283 56.5 L 283.5 39 Z "></path><path d="M 32 40 Q 34.7 38.9 34 41.5 L 32 42.5 L 32 40 Z "></path><path d="M 286.5 44 L 288 45.5 L 288 55.5 L 287 60.5 L 287 62.5 L 288 64.5 L 286 65 L 286.5 44 Z "></path><path d="M 294 47 L 296 47.5 L 294 48.5 L 294 47 Z "></path><path d="M 35.5 57 L 37 60 Q 33.5 61.1 35.5 57 Z "></path><path d="M 32 59 Q 35 58 34 61 Q 31 62 32 59 Z "></path><path d="M 73.5 60 L 76 63.5 L 73 61.5 L 73.5 60 Z "></path><path d="M 308.5 60 L 309 62.5 L 307 61.5 L 308.5 60 Z "></path><path d="M 305.5 61 L 306 63.5 L 304 62.5 L 305.5 61 Z "></path><path d="M 294.5 62 L 295 64 L 293 63.5 L 294.5 62 Z "></path><path d="M 24 72 Q 27.7 70.7 26 76.5 L 25 78.5 L 26 80.5 L 25 81.5 L 24.5 103 L 24 76.5 L 23 75.5 L 24 72 Z "></path><path d="M 35 74 Q 38.3 72.9 37 77 Q 33.7 78.1 35 74 Z "></path><path d="M 288.5 77 Q 291.5 78.5 288.5 80 L 288.5 77 Z "></path><path d="M 235.5 79 L 236 81 L 234 80.5 L 235.5 79 Z "></path><path d="M 293 79 Q 296 78 295 81 Q 292 82 293 79 Z "></path><path d="M 20.5 80 L 21 91.5 L 20 92.5 L 20 109.5 L 21 111.5 L 21 113.5 L 21 126.5 L 20 128.5 L 21 130.5 L 20 131.5 L 20 174 L 18 173.5 L 18 132.5 L 19 131.5 L 19 109.5 L 18 106.5 L 19 103.5 L 18 98.5 L 18 96.5 L 19 91.5 L 19 89.5 L 19 81.5 L 20.5 80 Z "></path><path d="M 312 80 Q 315 78.8 314 82.5 L 315 83.5 L 315 116.5 L 316 117.5 L 315 120.5 L 316 122.5 L 316 138.5 L 316 140.5 L 315 143.5 L 315 166 L 313 165.5 L 313 148.5 L 314 147.5 L 314 92.5 L 312 80 Z "></path><path d="M 34.5 83 L 35 86.5 L 33 85.5 L 34.5 83 Z "></path><path d="M 118 83 L 120 83.5 L 118 84.5 L 118 83 Z "></path><path d="M 303.5 87 Q 306.5 88.5 303.5 90 L 303.5 87 Z "></path><path d="M 288.5 92 L 289 94 L 287 93.5 L 288.5 92 Z "></path><path d="M 36 97 Q 40.5 95.5 39 100 Q 34.5 101.5 36 97 Z "></path><path d="M 31 100 Q 34 99 33 102 Q 30 103 31 100 Z "></path><path d="M 23 105 Q 26 103.8 25 107.5 L 24 110.5 L 25 116.5 L 24 120.5 L 25 121.5 L 25 128 L 23 127.5 L 23 119.5 L 22 117.5 L 23 116.5 L 23 105 Z "></path><path d="M 283 113 L 285 113.5 L 285 115.5 L 285 123.5 L 283 124 L 283 113 Z "></path><path d="M 294.5 122 L 296 125 Q 292.5 126.1 294.5 122 Z "></path><path d="M 250.5 124 L 249.5 126 L 250.5 124 Z "></path><path d="M 301 127 Q 304 126 303 129 Q 300 130 301 127 Z "></path><path d="M 290 128 Q 293.3 126.9 292 131 Q 288.7 132.1 290 128 Z "></path><path d="M 169 130 L 174 130.5 L 169 132 L 169 130 Z "></path><path d="M 170.5 133 L 174 133.5 L 170.5 134 L 170.5 133 Z "></path><path d="M 23.5 134 L 24 193 L 22 192.5 L 22 135.5 L 23.5 134 Z "></path><path d="M 307 137 L 309 137.5 L 307 138.5 L 307 137 Z "></path><path d="M 283.5 138 L 284 143 Q 280.7 144.3 282 139.5 L 283.5 138 Z "></path><path d="M 177 140 L 179.5 141 L 181 140.5 L 181 142 L 177 142 L 177 140 Z "></path><path d="M 170.5 141 Q 174.3 140.3 175 142.5 Q 173.5 148 176 149.5 Q 172.9 151.9 166.5 151 Q 164 149.8 165 146 L 161 145.5 L 164 145 Q 165.3 142 161.5 143 L 161.5 142 L 164.5 143 L 170.5 141 Z M 167 144 L 167 147 Q 168 149 173 148 L 173 144 L 167 144 Z "></path><path d="M 293 141 Q 296 140 295 143 Q 292 144 293 141 Z "></path><path d="M 156.5 143 L 159 143.5 L 156.5 144 L 156.5 143 Z "></path><path d="M 184.5 144 Q 186.8 143.3 186 145.5 L 184.5 144 Z "></path><path d="M 157.5 145 Q 160.1 144.3 159 147 L 154 146.5 L 157.5 145 Z "></path><path d="M 301.5 147 L 302 149.5 L 301 149.5 L 301.5 147 Z "></path><path d="M 155.5 148 L 162 148.5 L 158.5 150 L 156.5 150 L 154 149.5 L 155.5 148 Z "></path><path d="M 188.5 149 L 193 150 Q 194.8 154.9 188.5 153 L 186 152 Q 184.9 149.3 187.5 150 L 188.5 149 Z "></path><path d="M 235.5 149 L 238 149.5 Q 235.9 152.8 235.5 149 Z "></path><path d="M 160.5 150 L 161.5 152 L 152.5 153 L 152.5 152 L 160.5 150 Z "></path><path d="M 233.5 150 L 234.5 152 L 233.5 150 Z "></path><path d="M 286.5 154 L 287 157.5 L 285 156.5 L 286.5 154 Z "></path><path d="M 305.5 158 L 306 161 Q 303.3 162.1 304 159.5 L 305.5 158 Z "></path><path d="M 284.5 163 L 285 166 Q 282.3 167.1 283 164.5 L 284.5 163 Z "></path><path d="M 313.5 168 L 315 171.5 L 314 173.5 L 315 174.5 L 315 183 L 313 182.5 L 313.5 168 Z "></path><path d="M 318.5 169 L 320 176.5 L 320 178.5 L 320 214.5 L 322 224.5 L 321 226.5 L 322 228.5 L 321 229.5 L 320.5 248 L 319 233.5 L 320 232.5 L 320 222.5 L 318 211.5 L 318 194.5 L 319 192.5 L 318 191.5 L 318.5 169 Z "></path><path d="M 155 172 L 157 172.5 L 155 173.5 L 155 172 Z "></path><path d="M 286.5 173 L 287 176 Q 284.3 177.1 285 174.5 L 286.5 173 Z "></path><path d="M 155.5 175 L 158 176.5 L 156 177.5 L 155.5 175 Z "></path><path d="M 310.5 175 L 313 188.5 L 313 206.5 L 314 209.5 L 313 211.5 L 313 213.5 L 312.5 218 L 312 191.5 L 311 190.5 L 310.5 175 Z "></path><path d="M 18 176 L 20 176.5 L 20 189.5 L 21 193.5 L 20 194.5 L 20 203.5 L 21 204.5 L 21 218.5 L 20.5 221 L 19 220.5 L 19 207.5 L 18 206.5 L 18 182.5 L 19 178.5 L 18 176 Z "></path><path d="M 283.5 180 Q 286.5 181.5 283.5 183 Q 280.5 181.5 283.5 180 Z "></path><path d="M 170.5 187 L 171.5 189 L 170.5 187 Z "></path><path d="M 283.5 189 L 284 199.5 L 283 199.5 L 283.5 189 Z "></path><path d="M 315.5 194 L 316 209.5 L 317 210.5 L 317 240.5 Q 319.8 242.3 318 248.5 L 316.5 254 L 316 223.5 L 315 222.5 L 316 217.5 L 315 216.5 L 315.5 194 Z "></path><path d="M 29.5 199 L 31 202.5 Q 29.8 205.3 28.5 203 L 26 201.5 L 29.5 199 Z "></path><path d="M 78.5 199 Q 81.1 198.2 80 201.5 Q 78.5 204.5 77 201.5 L 78.5 199 Z "></path><path d="M 283.5 207 L 285 212.5 L 285 220.5 L 284 223.5 L 284 225.5 L 285 229.5 L 283 230.5 L 282 221.5 L 283 220.5 L 283.5 207 Z "></path><path d="M 24.5 213 L 25 219.5 L 23 218.5 Q 22 214 24.5 213 Z "></path><path d="M 288.5 218 Q 291.5 219.5 288.5 221 L 288.5 218 Z "></path><path d="M 300 220 Q 303 219 302 222 Q 299 223 300 220 Z "></path><path d="M 24.5 222 L 26 231.5 L 24 232.5 L 24.5 222 Z "></path><path d="M 171.5 222 L 176 224.5 Q 176.8 228.3 174.5 229 L 170.5 230 L 168 225.5 L 169 223 L 171.5 222 Z "></path><path d="M 292 226 Q 295 225 294 228 Q 291 229 292 226 Z "></path><path d="M 19 228 L 21 228.5 L 21 245.5 L 22 246.5 L 22 261.5 L 22 263.5 L 21 301.5 L 22 302.5 L 22 332 Q 18.7 333.3 20 328.5 L 19 327.5 L 19 300.5 L 20 299.5 L 20 289.5 L 19 288.5 L 19 272.5 L 19 270.5 L 20 268.5 L 20 257.5 L 19 256.5 L 19 238.5 L 18 236.5 L 19 235.5 L 19 228 Z "></path><path d="M 288 228 Q 290.7 226.9 290 229.5 L 288 230.5 L 288 228 Z "></path><path d="M 33.5 231 L 34 233.5 L 33 233.5 L 33.5 231 Z "></path><path d="M 312.5 231 L 314 236.5 L 313 239.5 L 314 242.5 L 312.5 246 L 312.5 231 Z "></path><path d="M 304 233 Q 307.3 231.9 306 236 Q 302.7 237.1 304 233 Z "></path><path d="M 294 238 Q 296.7 236.9 296 239.5 L 296.5 241 Q 292.3 242.1 294 238 Z "></path><path d="M 308 238 Q 311.3 236.9 310 241 Q 306.7 242.1 308 238 Z "></path><path d="M 291.5 239 L 292 242 Q 289.3 243.1 290 240.5 L 291.5 239 Z "></path><path d="M 24.5 240 L 26 242.5 L 26 253.5 L 24 252.5 L 24.5 240 Z "></path><path d="M 34.5 243 L 35 246 Q 32.3 247.1 33 244.5 L 34.5 243 Z "></path><path d="M 38.5 243 Q 40.8 242.3 40 244.5 L 38.5 243 Z "></path><path d="M 303.5 243 L 304 246.5 L 302 245.5 L 303.5 243 Z "></path><path d="M 52.5 245 L 55 246.5 Q 56.3 250.7 51.5 249 Q 48 247 52.5 245 Z "></path><path d="M 37.5 254 L 38 256.5 L 37 256.5 L 37.5 254 Z "></path><path d="M 57.5 254 Q 60.1 253.2 59 256.5 L 58 260.5 L 58 262.5 Q 60.5 266 59 273.5 L 58 274.5 L 58 283.5 L 59 285.5 L 58 287.5 L 58 289.5 L 58 318.5 L 59 322.5 L 58 323.5 L 57.5 344 L 57 332.5 L 56 331.5 L 56 309.5 L 55 308.5 L 56 307.5 L 56 295.5 L 56 293.5 L 56 255.5 L 57.5 254 Z "></path><path d="M 156 256 Q 158.7 254.9 158 257.5 L 156 258.5 L 156 256 Z "></path><path d="M 52.5 257 L 54 258.5 L 54 270.5 L 52 271.5 L 51 265.5 Q 53.3 264.3 52 259.5 Q 49.8 258.2 52.5 257 Z "></path><path d="M 196.5 257 L 197 259.5 L 196 259.5 L 196.5 257 Z "></path><path d="M 310.5 259 L 311.5 261 Q 308.7 261.7 310.5 259 Z "></path><path d="M 32.5 264 L 34 266.5 L 32 267 L 32.5 264 Z "></path><path d="M 39.5 270 L 40 272.5 L 38 271.5 L 39.5 270 Z "></path><path d="M 27 272 Q 30 271 29 274 Q 26 275 27 272 Z "></path><path d="M 310.5 274 Q 312.8 273.3 312 275.5 L 310.5 274 Z "></path><path d="M 29.5 275 L 31 277.5 L 29 276.5 L 29.5 275 Z "></path><path d="M 48.5 275 L 49 278 Q 46.3 279.1 47 276.5 L 48.5 275 Z "></path><path d="M 53 276 Q 56.3 274.9 55 279 Q 51.7 280.1 53 276 Z "></path><path d="M 39 279 Q 42 278 41 281 Q 38 282 39 279 Z "></path><path d="M 26.5 282 L 27 284.5 L 25 283.5 L 26.5 282 Z "></path><path d="M 32 284 Q 35 283 34 286 Q 31 287 32 284 Z "></path><path d="M 310 285 Q 313 284 312 287 Q 309 288 310 285 Z "></path><path d="M 51.5 287 L 52 289.5 L 50 288.5 L 51.5 287 Z "></path><path d="M 299 287 Q 303.1 285.7 302 289 Q 297.9 290.3 299 287 Z "></path><path d="M 24.5 289 L 25 322.5 L 24 322.5 L 23 318.5 Q 25.3 317.3 24 312.5 L 23 311.5 L 23 300.5 L 24 299.5 L 24.5 289 Z "></path><path d="M 52 293 L 54 293.5 L 54 337.5 L 55 339.5 L 54 341.5 L 54 343.5 Q 55 348 52.5 349 Q 49.7 346.3 51 339.5 L 51 337.5 Q 49.3 329.3 52 325.5 L 51 322.5 L 52 320.5 L 51 318.5 L 52 314.5 L 51 312.5 L 52 308.5 L 51 307.5 L 51 295.5 L 52 293 Z "></path><path d="M 302 293 Q 305 292 304 295 Q 301 296 302 293 Z "></path><path d="M 308.5 295 L 310 298 Q 306.5 299.1 308.5 295 Z "></path><path d="M 288.5 307 L 291 308.5 Q 292.3 312.3 288.5 311 L 287 308.5 L 288.5 307 Z "></path><path d="M 36 315 Q 39.3 313.9 38 318 Q 34.7 319.1 36 315 Z "></path><path d="M 307.5 315 Q 310.5 316.5 307.5 318 L 307.5 315 Z "></path><path d="M 153.5 319 L 155 321.5 L 150 324 L 151.5 320 L 153.5 319 Z "></path><path d="M 304 325 Q 307.3 323.9 306 328 Q 302.7 329.1 304 325 Z "></path><path d="M 39 326 Q 42 325 41 328 Q 38 329 39 326 Z "></path><path d="M 44 330 Q 47 329 46 332 Q 43 333 44 330 Z "></path><path d="M 20 335 L 22 335.5 L 22 401.5 L 21 403.5 L 22 405.5 L 21 410.5 L 21 412.5 L 22 431 L 20 430.5 L 20 409.5 L 20 407.5 L 20 384.5 L 21 380.5 L 20 379.5 L 20 367.5 L 20 365.5 L 20 335 Z "></path><path d="M 284 336 Q 287.3 334.9 286 339 Q 282.7 340.1 284 336 Z "></path><path d="M 295.5 336 Q 297.8 335.3 297 337.5 Q 295.5 340.5 294 337.5 L 295.5 336 Z "></path><path d="M 29.5 343 L 30 364.5 L 28 365.5 L 28 345.5 L 29.5 343 Z "></path><path d="M 116 343 Q 119.3 341.9 118 346 Q 114.7 347.1 116 343 Z "></path><path d="M 296 345 Q 298.7 343.9 298 346.5 L 296 347.5 L 296 345 Z "></path><path d="M 289 346 Q 292.8 344.5 292 347.5 Q 290.5 350.5 289 347.5 L 289 346 Z "></path><path d="M 282 349 L 284 349.5 L 284 399.5 L 282 400.5 L 282 386.5 L 281 384.5 Q 283.5 383 282 377.5 L 281 376.5 L 281 364.5 L 282 361.5 Q 279.8 360.2 281 355.5 L 282 349 Z "></path><path d="M 319 352 Q 322.7 350.8 321 356 Q 317.3 357.2 319 352 Z "></path><path d="M 289 361 Q 293.1 359.7 292 363 Q 287.9 364.3 289 361 Z "></path><path d="M 53.5 364 L 54 373.5 L 55 374.5 L 54 377.5 L 55 380.5 L 53.5 384 L 52 365.5 L 53.5 364 Z "></path><path d="M 298.5 367 L 300 370 Q 296.5 371.1 298.5 367 Z "></path><path d="M 286.5 372 L 287 388.5 L 288 390.5 L 287 393.5 L 288 394.5 L 288 425 Q 284.3 426.4 286 420.5 Q 288.3 419.3 287 414.5 L 286 413.5 L 286.5 372 Z "></path><path d="M 313 373 Q 315.7 371.9 315 374.5 L 316 376.5 L 315 377.5 L 315 404 Q 312.3 405.1 313 402.5 L 313 400.5 L 314 394.5 L 313 389.5 L 314 387.5 L 313 385.5 L 314 381.5 L 313 379.5 L 314 376.5 L 313 373 Z "></path><path d="M 34 375 Q 37 374 36 377 Q 33 378 34 375 Z "></path><path d="M 112.5 375 L 113 377.5 L 110 379 L 112.5 375 Z "></path><path d="M 318 376 L 320 376.5 L 320 420.5 L 317.5 426 L 317 413.5 L 317 411.5 L 317 384.5 L 318 383.5 L 318 376 Z "></path><path d="M 27 377 Q 30.7 375.8 29 381 Q 25.3 382.2 27 377 Z "></path><path d="M 322.5 377 L 323 393.5 L 321 392.5 L 322.5 377 Z "></path><path d="M 306.5 380 L 308 383 Q 304.5 384.1 306.5 380 Z "></path><path d="M 53 386 L 55 386.5 L 55 399.5 L 53 398.5 L 53 386 Z "></path><path d="M 304.5 386 L 305.5 388 Q 302.7 388.7 304.5 386 Z "></path><path d="M 295 388 Q 298 387 297 390 Q 294 391 295 388 Z "></path><path d="M 92.5 392 L 94 395.5 L 92.5 398 L 92.5 392 Z "></path><path d="M 296.5 394 L 297 396.5 L 296 396.5 L 296.5 394 Z "></path><path d="M 28.5 395 L 29 416.5 L 27.5 419 L 27 397.5 L 28.5 395 Z "></path><path d="M 309.5 398 L 310.5 400 Q 307.7 400.7 309.5 398 Z "></path><path d="M 45 399 Q 48 398 47 401 Q 44 402 45 399 Z "></path><path d="M 92 400 Q 94.7 398.9 94 401.5 L 93 406.5 L 94 410.5 L 93 415.5 Q 95.5 417 94 422.5 L 94 424.5 Q 95.7 430.4 92 429 L 91 425.5 L 91 423.5 L 92 417.5 L 91 414.5 L 92 406.5 L 92 404.5 L 92 400 Z "></path><path d="M 35 401 Q 38 400 37 403 Q 34 404 35 401 Z "></path><path d="M 50 404 Q 53 403 52 406 Q 49 407 50 404 Z "></path><path d="M 55.5 404 L 56 410 Q 53.3 411.1 54 408.5 L 55.5 404 Z "></path><path d="M 298 406 Q 301 404.8 300 408.5 L 298 407.5 L 298 406 Z "></path><path d="M 309.5 407 L 310.5 409 Q 307.7 409.7 309.5 407 Z "></path><path d="M 313.5 408 L 314 417.5 Q 311.5 419 313 424.5 L 311.5 426 L 311 420.5 L 313.5 408 Z "></path><path d="M 292.5 409 L 294 412 L 291 410.5 L 292.5 409 Z "></path><path d="M 54.5 415 L 56 421.5 L 56 431 L 53 429.5 L 54 417.5 Q 51.8 416.3 54.5 415 Z "></path><path d="M 306 415 Q 309.3 413.9 308 418 Q 304.7 419.1 306 415 Z "></path><path d="M 37.5 416 L 38 418 L 36 417.5 L 37.5 416 Z "></path><path d="M 295.5 417 L 297 420 Q 293.3 421.5 294 418.5 L 295.5 417 Z "></path><path d="M 302.5 417 Q 304.8 416.3 304 418.5 L 302.5 417 Z "></path><path d="M 51.5 419 L 52 426 L 50 425.5 L 51 422.5 L 51 420.5 L 51.5 419 Z "></path><path d="M 40.5 421 L 41 423 L 39 422.5 L 40.5 421 Z "></path><path d="M 96.5 421 L 97 424.5 L 96 424.5 L 96.5 421 Z "></path><path d="M 314 421 Q 316.7 419.9 316 422.5 L 314.5 425 L 314 421 Z "></path><path d="M 31 423 Q 34 422 33 425 Q 30 426 31 423 Z "></path><path d="M 291 423 Q 294 422 293 425 Q 290 426 291 423 Z "></path><path d="M 57 427 Q 60.3 425.9 59 430 Q 55.7 431.1 57 427 Z "></path><path d="M 50 428 Q 53 427 52 430 Q 49 431 50 428 Z "></path><path d="M 91 431 Q 94 430 93 433 Q 90 434 91 431 Z "></path><path d="M 295.5 432 L 296 436 Q 293 437.3 294 433.5 L 295.5 432 Z "></path><path d="M 290 433 L 292 433.5 L 292 440 L 290 439.5 L 290 433 Z "></path><path d="M 282 434 Q 285.3 432.9 284 437 Q 280.7 438.1 282 434 Z "></path><path d="M 279.5 436 L 280 438.5 L 279 441 L 277 440.5 L 279.5 436 Z "></path><path d="M 309.5 438 Q 312.5 439.5 309.5 441 L 309.5 438 Z "></path><path d="M 306.5 445 Q 309.5 446.5 306.5 448 L 306.5 445 Z "></path><path d="M 312.5 445 L 316 450 L 312 447.5 L 312.5 445 Z "></path><path d="M 323 447 L 326 448.5 Q 325.3 451.1 328 450 L 328 453 L 323 449.5 L 323 447 Z "></path><path d="M 43 468 L 46 468 L 46 475 L 43 475 L 43 468 Z "></path><path d="M 158.5 499 L 161 499.5 L 158.5 500 L 158.5 499 Z "></path><path d="M 326 503 L 330 503 L 330 504.5 L 327.5 506 L 326 503 Z "></path><path d="M 326.5 518 L 328 519.5 L 329 526.5 L 328 529.5 Q 330.5 531 329 536.5 L 328 541.5 Q 330.3 542.8 327.5 544 Q 324.5 544.9 326 540.5 L 325 538.5 L 326 537.5 L 326 521.5 L 325 519.5 L 326.5 518 Z "></path><path d="M 160 519 Q 163.3 517.7 162 522.5 L 163 523.5 L 163 531.5 L 162 533.5 L 163 534.5 L 163 542.5 Q 161.5 545.5 160 542.5 L 161 540.5 L 160 538.5 L 161 533.5 Q 157 531.5 159 523.5 L 160 519 Z "></path><path d="M 224 521 L 227 522.5 L 225 533.5 L 226 535.5 Q 224.5 538.5 223 535.5 L 224 521 Z "></path><path d="M 255 528 Q 258.8 526.5 258 529.5 L 257 530.5 L 257 542.5 L 258 545 Q 253.9 546.7 255 542.5 L 255 540.5 L 256 538.5 L 255 537.5 L 255 528 Z "></path><path d="M 241.5 531 L 243 531.5 L 243 544 L 240 542.5 L 240 532.5 L 241.5 531 Z "></path><path d="M 180.5 534 L 183 535.5 L 183 542 L 180 542 L 179 535.5 L 180.5 534 Z "></path><path d="M 186.5 535 Q 189.1 534.2 188 537.5 L 189 541.5 Q 187.5 544.5 186 541.5 L 185 536.5 L 186.5 535 Z "></path><path d="M 115 536 L 118 536 L 118 544 Q 114.7 545.3 116 540.5 L 115 536 Z "></path><path d="M 142.5 536 L 144 536.5 L 144 545 L 141 543.5 Q 139.5 537.5 142.5 536 Z "></path><path d="M 224.5 538 L 227 543.5 L 224 545 L 223 539.5 L 224.5 538 Z "></path><path d="M 235 542 Q 238.3 540.9 237 545 Q 233.7 546.1 235 542 Z "></path><path d="M 132.5 557 L 144 558 Q 145 561.8 142.5 563 Q 140.3 563.8 141 561.5 L 139.5 560 L 131 560 L 130 562.5 L 131.5 564 L 136.5 564 L 139.5 566 Q 144.9 565.4 147 567 Q 149.3 577.5 142.5 580 L 135.5 582 L 134.5 581 L 125.5 581 Q 124.3 583.3 123 580.5 L 124 574.5 L 123 572 L 127 573.5 L 131.5 579 L 139.5 579 L 140 577.5 Q 142.3 576.2 141 571.5 L 137.5 568 L 127.5 568 L 126 566.5 L 125 560.5 L 132.5 557 Z "></path><path d="M 168.5 557 L 175 558 L 174 565 L 171 563.5 Q 172.8 558.3 167.5 560 L 166 561.5 L 166 578.5 L 167.5 581 L 163.5 582 L 159.5 581 L 157 582 Q 155.5 578.3 158.5 579 L 160 577.5 L 160 560 L 153 561 Q 154.5 565.5 150 564 L 150 558 L 167.5 558 L 168.5 557 Z "></path><path d="M 209.5 557 Q 214.3 555.7 215.5 558 L 217.5 557 L 221 559.5 Q 218.7 560.7 220 565.5 L 218.5 567 L 216 560 L 209 561 L 206 569.5 L 208 575 Q 210.7 573.9 210 576.5 L 216.5 579 L 223.5 577 L 224.5 579 L 212.5 581 L 204 578 L 200 571.5 L 200 564.5 L 204.5 559 L 209.5 557 Z "></path><path d="M 241.5 557 L 242.5 558 L 250 558 L 250 562 L 248.5 562 L 247 562.5 L 247 560 L 241.5 560 L 238 561 L 238 567 L 240 567 Q 238.1 561.4 243 563 L 244 568.5 L 243.5 571 Q 240.2 572.1 241 569.5 Q 239.5 566.5 238 569.5 L 237 574.5 L 238 578 L 248.5 578 L 254 574 L 250 581 L 236.5 581 L 230 579.5 Q 235.2 577.3 233 567.5 L 232 563.5 L 233 561 L 229 559.5 L 229.5 558 L 240.5 558 L 241.5 557 Z "></path><path d="M 62 558 L 87.5 558 L 88 558.5 L 88 564 L 84 562.5 L 84 561 L 80 561 L 79 563.5 L 79 575.5 L 77 580 L 66.5 582 L 61 580 L 60 573 L 67 572 Q 68.1 574.7 65.5 574 L 64 576.5 L 70.5 579 Q 75.9 574.9 74 563.5 Q 72.5 560.5 66.5 562 L 62 563 L 62 558 Z "></path><path d="M 89 558 L 97.5 558 L 98 559.5 L 97 560.5 L 97 571.5 L 99 579 L 101.5 579 L 106 574.5 Q 103.5 571 105 563.5 L 106 560 Q 101.9 561.3 103 558 L 111.5 558 L 112 560 L 109 560.5 L 109 569.5 L 108 571.5 L 112.5 579 Q 114.4 575.4 119 576 L 117.5 579 L 110.5 582 L 106.5 579 Q 104.7 582.2 99.5 582 L 94 578.5 L 92 573.5 L 91.5 560 Q 90.3 562.3 89 559.5 L 89 558 Z "></path><path d="M 181.5 558 L 191.5 558 L 192 559.5 L 191 560.5 L 191 576.5 L 193 581 L 184.5 581 L 183.5 582 Q 179.7 579.7 185 577.5 L 184 571.5 L 184 569.5 Q 185.1 560.5 181.5 558 Z "></path><path d="M 277.5 574 L 281 576.5 L 278.5 580 L 275 578.5 L 274 576.5 L 277.5 574 Z "></path><path d="M 340.5 587 L 341 589.5 L 340 589.5 L 340.5 587 Z "></path><path d="M 344.5 587 L 346 589.5 L 344 590.5 L 344.5 587 Z "></path></svg>