<svg width="350" height="600" version="1.1" xmlns="http://www.w3.org/2000/svg" desc="Created with imagetracer.js version 1.2.5"><path d="M 8.5 6 L 33.5 6 L 34.5 7 L 35.5 6 L 49.5 6 L 51.5 6 L 87.5 6 L 90.5 7 L 92.5 7 L 95.5 6 L 96.5 7 L 153.5 7 L 158.5 8 L 160.5 8 L 168.5 7 L 171.5 8 L 172.5 7 L 251.5 7 L 253.5 6 L 254.5 7 L 270.5 7 L 272.5 7 L 335.5 7 L 337 8.5 L 336 10.5 L 336 106.5 Q 338.2 107.7 337 112.5 L 337 114.5 L 337 135.5 L 336 137.5 L 337 142.5 L 336 144.5 L 336 146.5 Q 334.7 156.8 337 163.5 L 337 165.5 L 336 174.5 L 337 175.5 L 337 323.5 L 336 326.5 L 337 329.5 L 336 331.5 L 337 332.5 L 337 344.5 L 336 345.5 L 336 358.5 L 336 360.5 L 337 363.5 Q 334.3 365.3 336 371.5 L 337 372.5 L 337 388.5 L 335 392.5 L 337 392.5 L 337 412.5 L 336 415.5 L 337 416.5 L 337 424.5 L 337 426.5 L 337 434.5 L 336 435.5 L 337 438.5 L 337 440.5 L 336 446.5 L 337 450.5 L 336 453.5 Q 338.5 455 337 460.5 Q 334.8 461.8 336 466.5 L 337 467.5 L 338 578.5 L 338 580.5 Q 339.4 590.1 337 594 Q 331.4 591.7 320.5 593 L 318.5 593 L 282.5 593 L 281.5 592 L 280.5 593 L 265.5 593 L 263.5 593 L 259.5 592 L 256.5 593 L 253.5 592 L 246.5 593 L 244.5 592 L 242.5 593 Q 241.3 590.8 236.5 592 L 234.5 592 L 231.5 593 L 230.5 592 L 215.5 592 L 213.5 593 L 212.5 592 L 182.5 592 Q 181.3 594.3 176.5 593 L 174.5 593 L 150.5 592 L 148.5 593 L 147.5 592 L 133.5 592 L 131.5 592 L 127.5 593 L 123.5 592 L 119.5 593 Q 118.2 590.8 113.5 592 L 112.5 593 L 104.5 593 L 102.5 593 L 71.5 593 Q 70 590.5 64.5 592 Q 62.7 594.8 56.5 593 Q 54.8 590.3 48.5 592 L 46.5 593 L 43.5 592 L 41.5 593 L 36.5 592 L 34.5 593 L 32.5 593 L 26.5 592 L 21.5 593 L 18.5 592 L 16.5 593 L 15.5 592 L 7.5 592 L 6 590.5 Q 4.3 584.3 7 582.5 L 7 528.5 L 6 524.5 L 7 523.5 L 7 480.5 L 6 476.5 L 7 475.5 L 7 456.5 L 7 454.5 L 7 439.5 L 6 437.5 L 7 436.5 L 7 410.5 L 7 408.5 L 7 399.5 L 6 398.5 L 7 397.5 L 7 358.5 L 8 355.5 L 7 354.5 L 7 342.5 L 8 337.5 L 7 332.5 L 8 331.5 L 8 313.5 L 8 311.5 L 7 308.5 L 8 307.5 L 8 292.5 L 9 291.5 L 9 289.5 L 8 265.5 Q 10.3 264.3 9 259.5 L 9 257.5 Q 6.6 250.4 8 239.5 L 9 235.5 L 9 233.5 L 7 206.5 L 8 205.5 L 8 186.5 L 9 184.5 L 8 180.5 L 9 179.5 L 9 171.5 Q 6.7 170.3 8 165.5 L 9 163.5 L 8 161.5 L 8 159.5 L 7 157.5 L 7 109.5 L 8 106.5 L 7 103.5 L 7 101.5 L 7 7.5 L 8.5 6 Z M 11 8 L 10 12 L 11 13 L 11 35 L 11 37 L 10 42 L 11 46 L 11 85 L 12 86 L 11 90 L 11 155 L 12 156 L 12 188 L 11 189 L 12 256 L 12 244 L 13 243 L 12 241 L 13 238 L 13 226 L 12 225 Q 11 213 13 207 L 24 204 L 29 205 L 31 205 L 39 205 L 40 204 L 46 205 L 48 209 Q 47 211 50 210 L 57 221 L 58 261 L 59 262 L 58 265 L 59 266 L 59 283 L 61 291 L 62 305 L 65 310 Q 72 311 74 306 L 86 312 Q 92 310 94 313 L 97 312 L 100 314 L 96 315 L 86 314 L 75 308 L 70 311 L 64 312 L 65 318 Q 67 321 69 317 L 79 317 L 80 318 L 89 318 L 99 315 L 101 316 L 87 320 L 81 320 L 74 318 L 72 318 L 67 319 L 68 323 Q 76 333 90 338 L 92 337 L 94 338 L 105 338 L 106 337 L 106 332 L 108 326 L 116 319 L 121 318 Q 125 319 123 314 L 126 315 L 126 312 L 129 313 L 131 312 L 133 309 L 132 309 L 128 308 L 126 309 Q 119 309 117 306 Q 114 305 115 308 L 108 313 L 105 313 L 111 310 L 113 306 L 116 305 L 126 308 L 130 306 L 134 308 L 137 299 L 141 295 Q 146 293 145 298 L 147 297 L 148 300 L 152 303 Q 153 310 150 314 L 150 323 Q 155 326 157 333 L 157 338 L 160 338 L 162 338 L 167 335 L 177 335 L 178 334 L 181 338 L 182 333 L 186 328 L 184 328 L 180 332 Q 177 333 178 331 L 183 327 L 179 323 L 175 322 L 171 322 Q 167 327 160 328 L 156 328 L 164 325 L 170 320 L 179 321 L 180 322 L 179 319 Q 174 312 166 309 L 163 304 L 160 303 L 156 308 L 153 308 L 160 301 L 161 302 L 165 302 L 170 299 L 173 295 L 179 299 L 181 298 L 183 299 L 184 302 L 197 305 L 199 305 L 202 304 L 205 305 L 221 305 L 222 306 L 228 303 Q 236 303 242 306 Q 245 305 244 308 Q 237 309 233 305 L 228 305 L 222 309 Q 220 305 219 308 L 217 307 L 205 307 L 204 306 L 198 307 L 196 307 L 187 305 L 174 298 L 167 304 Q 164 303 165 307 L 175 312 Q 181 316 184 325 Q 183 327 186 326 L 180 315 L 174 310 L 174 309 L 180 312 L 186 323 L 192 328 L 194 328 L 191 325 L 192 323 Q 191 320 195 321 Q 196 318 193 319 L 192 315 L 192 313 Q 191 309 197 311 L 199 311 L 209 315 L 209 313 Q 212 314 214 311 L 222 311 L 232 315 L 245 309 Q 247 310 246 307 L 259 304 L 271 296 L 275 295 L 276 298 L 279 299 L 283 301 L 284 300 L 284 287 L 285 286 Q 283 277 286 274 L 286 272 L 285 269 L 287 262 L 286 260 Q 284 253 287 252 L 287 217 L 286 216 L 287 211 L 286 209 L 287 207 L 299 199 L 328 199 L 331 203 L 331 220 L 332 221 L 331 223 L 332 225 L 332 250 L 334 256 L 334 239 L 335 238 L 334 236 L 334 225 L 335 224 L 334 223 L 334 195 L 333 194 L 333 185 L 334 184 L 333 179 L 334 177 L 333 172 L 334 161 L 333 158 L 333 142 L 334 141 L 333 140 L 333 93 L 332 92 L 332 64 L 333 62 L 333 60 Q 331 58 332 53 L 332 51 Q 334 44 333 34 L 334 33 L 333 32 L 333 12 L 332 10 L 317 10 L 315 10 L 313 9 L 309 10 L 307 9 L 304 10 L 302 9 L 290 10 L 288 10 Q 282 12 281 9 L 278 10 L 276 10 L 249 10 L 248 9 L 247 10 L 234 10 L 220 53 L 225 56 L 237 41 L 242 37 L 234 59 Q 233 63 237 64 L 248 55 Q 250 56 249 53 L 254 51 L 265 41 L 267 42 L 260 48 Q 257 47 258 50 L 239 65 L 243 70 Q 242 72 245 71 L 273 37 L 271 37 L 275 34 L 274 39 L 264 51 Q 265 53 263 52 L 258 58 Q 259 60 256 59 L 246 73 L 247 75 L 250 75 L 268 65 Q 270 64 269 68 Q 263 75 255 79 L 253 83 Q 257 84 256 88 L 276 83 L 277 84 L 258 91 L 262 98 L 297 80 L 297 79 L 284 82 L 281 84 Q 277 85 278 82 Q 288 82 296 77 Q 300 75 299 79 L 296 82 L 292 83 L 265 99 Q 260 98 262 103 L 267 102 L 269 103 Q 273 104 275 102 L 284 102 L 284 104 L 265 112 L 266 118 L 308 124 L 299 124 L 297 124 L 282 121 L 275 121 L 273 121 L 266 120 L 265 127 Q 264 130 267 129 L 269 129 L 271 128 L 282 128 L 283 127 L 285 128 L 286 127 L 297 127 L 298 126 L 310 127 L 308 128 L 306 127 L 305 128 L 276 129 L 275 130 L 266 130 L 265 133 L 277 138 L 283 139 L 287 143 L 262 145 L 261 150 L 288 166 Q 291 165 290 168 L 297 170 L 299 173 L 298 175 L 294 174 L 296 173 L 295 171 Q 292 170 293 173 L 259 161 L 256 163 L 256 165 L 266 175 Q 265 177 268 176 L 268 178 L 270 178 L 270 180 L 250 173 L 245 179 L 272 213 L 271 216 L 262 208 Q 259 209 260 206 L 237 187 L 233 189 L 236 198 L 242 209 Q 243 212 240 211 L 240 209 L 231 190 L 227 193 L 239 210 L 239 211 L 226 194 L 220 197 L 223 213 L 231 237 Q 232 240 229 241 L 211 208 L 209 201 Q 205 200 204 203 Q 203 207 205 209 L 205 225 L 203 225 L 196 205 L 192 203 L 191 207 L 191 219 L 190 220 L 190 229 L 189 230 L 189 238 L 187 249 L 186 249 L 187 228 L 189 217 L 189 207 L 190 206 L 189 203 L 187 204 L 183 203 L 182 209 L 183 222 L 184 223 L 184 244 L 185 245 L 184 248 L 182 244 L 182 223 L 181 222 L 181 211 L 180 210 L 180 203 L 178 203 L 175 207 L 170 222 L 168 223 L 174 204 Q 173 201 169 202 L 167 225 L 165 224 L 168 203 L 160 199 L 137 238 L 136 236 L 135 240 L 133 239 L 134 235 L 137 236 L 149 213 Q 148 210 151 211 L 156 198 L 151 195 L 137 233 L 135 234 L 148 194 L 145 193 L 137 200 L 142 192 L 139 189 L 128 208 Q 129 210 126 209 L 137 188 L 133 184 L 113 200 Q 110 199 111 202 L 95 213 L 98 208 L 125 178 L 123 174 L 104 184 L 102 184 Q 110 176 121 173 L 118 167 L 104 180 L 103 178 L 105 178 L 117 166 L 114 160 L 110 160 L 95 165 L 91 165 L 74 171 L 70 171 L 89 164 L 100 162 L 103 160 L 112 158 L 110 151 L 99 155 L 69 170 Q 66 171 67 168 L 70 168 L 108 150 L 108 146 L 98 146 L 96 146 L 94 147 Q 86 149 84 145 L 103 137 L 105 137 L 105 130 L 103 131 L 102 130 L 95 130 L 87 128 L 79 128 L 78 127 L 67 126 L 67 125 L 82 126 L 98 129 L 105 129 L 105 121 L 89 121 L 79 123 L 78 121 L 99 120 L 100 119 Q 108 122 105 114 L 86 108 Q 84 110 83 108 L 85 105 L 88 106 L 107 106 L 109 100 L 97 92 L 94 92 L 68 77 L 69 74 L 70 77 Q 83 82 94 90 L 111 97 L 113 88 L 104 86 L 103 84 L 115 87 L 114 82 L 113 82 L 96 67 Q 95 64 98 65 L 101 70 L 117 83 Q 121 81 121 75 L 100 65 L 99 63 L 121 73 L 123 75 L 126 72 L 120 64 Q 121 61 118 62 Q 115 54 108 49 Q 109 46 106 47 L 100 39 L 101 37 L 108 46 Q 107 48 110 47 L 112 52 L 120 61 Q 119 63 122 62 L 126 69 Q 131 70 132 66 L 131 64 L 119 53 L 117 51 L 111 45 L 108 43 L 106 41 L 104 37 L 115 47 Q 117 46 116 49 L 118 49 L 133 63 L 136 62 L 126 37 L 127 33 L 128 36 L 131 37 L 135 43 Q 134 45 137 44 L 146 55 L 149 54 L 144 37 L 142 35 L 144 31 L 148 32 L 150 31 L 155 24 L 150 15 Q 145 14 144 16 Q 141 15 144 13 L 161 13 L 162 14 L 164 13 L 183 13 L 184 12 L 190 13 L 194 13 L 197 12 L 200 13 L 205 12 L 206 15 L 203 16 L 200 15 L 200 22 L 199 23 L 200 32 Q 205 30 207 34 L 205 36 L 205 48 L 211 49 L 228 16 L 230 15 L 228 19 L 229 21 L 231 16 L 231 10 L 225 10 L 223 10 L 221 11 L 219 10 L 200 10 L 199 9 Q 193 8 192 10 L 190 9 L 187 10 L 184 9 L 183 10 L 167 10 L 166 11 L 165 10 L 148 10 L 147 9 L 145 10 L 143 10 L 132 10 L 131 9 L 69 9 L 67 9 L 35 9 L 34 8 L 17 8 L 16 9 L 11 8 Z M 171 15 L 169 17 L 173 27 L 176 19 L 175 15 L 173 16 L 171 15 Z M 181 15 L 178 19 L 178 23 L 175 30 L 177 32 L 179 31 L 183 32 L 182 27 L 183 25 L 183 16 L 181 15 Z M 186 15 L 187 30 L 189 31 Q 192 31 190 25 L 190 23 L 190 15 L 186 15 Z M 195 15 L 193 17 L 193 31 L 196 31 L 195 30 L 196 28 L 196 17 L 195 15 Z M 156 16 L 158 19 Q 159 15 156 16 Z M 165 16 L 160 22 L 160 25 L 166 32 L 168 31 L 171 32 L 167 18 L 165 16 Z M 228 21 L 216 42 L 213 51 L 219 52 Q 221 37 228 25 L 228 21 Z M 158 26 L 154 31 L 160 31 L 158 26 Z M 148 34 L 145 35 L 150 53 L 158 51 L 158 48 L 152 37 Q 152 34 148 34 Z M 167 34 L 165 36 Q 164 44 166 48 L 172 46 L 168 36 Q 169 33 167 34 Z M 170 34 L 173 43 Q 171 48 178 46 L 180 46 L 181 36 Q 180 33 179 35 L 178 34 L 170 34 Z M 184 34 L 182 36 L 183 38 Q 181 39 182 45 L 186 46 L 189 45 L 188 44 L 188 35 L 184 34 Z M 196 34 L 190 35 L 191 45 L 194 46 L 196 46 L 198 39 L 198 35 L 196 34 Z M 202 34 L 197 46 Q 198 48 203 47 L 203 35 L 202 34 Z M 153 35 L 160 48 Q 159 50 163 49 L 164 47 Q 166 41 163 40 L 163 35 L 153 35 Z M 131 40 L 130 43 L 135 54 L 135 57 L 139 61 Q 141 62 140 60 L 143 58 L 143 53 L 142 53 L 131 40 Z M 238 43 L 227 57 L 232 60 L 238 46 L 238 43 Z M 174 48 L 159 52 L 152 56 Q 149 55 150 58 L 166 58 L 189 64 Q 206 71 219 83 Q 218 85 221 84 Q 235 97 244 116 L 251 136 Q 250 142 253 145 L 253 153 L 254 154 L 253 159 Q 252 161 255 160 L 261 143 L 261 139 L 261 137 L 263 131 L 263 120 L 260 104 L 254 89 L 246 77 Q 232 59 209 51 L 201 50 L 197 48 L 174 48 Z M 148 59 Q 139 61 134 67 L 127 75 L 135 75 L 146 80 Q 155 89 160 102 L 163 102 L 167 105 L 175 93 L 177 94 L 174 95 L 173 98 Q 172 103 175 104 Q 177 103 176 106 L 179 107 L 182 102 L 186 99 L 187 99 L 185 105 Q 186 108 183 107 Q 184 111 182 112 L 180 111 L 178 112 Q 175 111 177 110 L 171 105 L 168 107 L 171 115 L 171 120 L 175 134 L 175 142 L 179 144 L 181 143 L 182 140 Q 183 135 188 136 L 187 139 L 189 139 L 192 148 L 196 145 Q 199 146 198 144 L 203 141 L 204 144 L 198 149 L 199 153 L 203 154 L 207 159 Q 208 165 213 168 L 216 168 L 221 165 L 225 159 L 232 155 L 237 155 L 242 162 L 242 169 L 238 180 L 237 182 L 241 179 Q 240 176 243 177 L 251 167 L 251 150 L 247 129 L 235 104 L 226 93 L 223 90 L 220 87 L 208 76 L 200 73 L 191 67 L 183 64 L 179 64 L 176 62 L 165 60 L 156 60 L 155 59 L 153 60 L 148 59 Z M 265 68 L 250 77 L 252 80 L 254 79 Q 256 80 255 77 L 266 69 L 265 68 Z M 127 77 L 124 79 L 119 85 L 117 93 L 111 106 L 108 118 L 108 132 L 111 147 Q 115 161 124 172 Q 134 184 149 192 L 167 199 L 178 200 L 179 201 L 201 200 L 213 197 L 215 195 L 226 191 L 228 188 L 232 185 L 240 169 Q 241 160 237 158 L 230 159 L 227 163 L 218 171 L 212 170 L 207 166 L 204 159 Q 203 155 199 155 L 197 151 L 190 150 L 189 145 L 186 142 Q 183 146 176 145 L 173 143 L 172 130 L 169 123 L 166 108 L 161 105 L 157 102 L 149 88 Q 144 81 136 77 L 127 77 Z M 264 104 L 264 109 L 278 105 L 264 104 Z M 95 107 L 93 109 L 102 112 L 106 112 L 107 108 L 95 107 Z M 266 135 Q 262 138 263 143 L 274 143 L 275 142 Q 281 144 280 140 L 266 135 Z M 104 138 L 88 144 L 89 146 L 90 145 L 102 145 L 107 144 L 106 141 Q 107 137 104 138 Z M 261 152 Q 258 154 259 159 L 270 164 L 291 171 L 293 171 L 261 152 Z M 255 165 L 251 172 L 260 176 L 266 177 L 255 165 Z M 127 178 L 124 181 Q 125 183 123 182 L 105 203 L 101 208 L 129 185 Q 131 186 130 184 L 131 183 L 127 178 Z M 243 180 L 241 182 Q 242 184 240 183 L 238 187 L 259 204 Q 261 203 260 206 L 268 212 L 269 212 L 244 182 Q 245 179 243 180 Z M 215 198 L 210 201 L 227 236 L 228 236 L 222 213 L 220 210 L 219 203 L 217 200 Q 218 197 215 198 Z M 300 201 L 300 213 L 300 215 L 299 217 L 300 218 L 300 239 L 301 240 L 301 251 L 300 252 Q 299 257 301 259 L 300 262 L 301 270 L 301 272 L 301 290 L 300 291 L 301 292 L 301 319 L 304 321 L 306 320 L 320 320 L 323 316 L 329 318 Q 331 317 330 320 L 324 318 L 321 322 L 316 321 L 305 322 L 304 323 L 301 321 Q 300 324 296 323 L 293 324 L 290 322 L 286 324 Q 281 325 280 322 L 273 327 L 275 327 L 274 329 L 273 327 L 268 329 L 265 333 L 266 337 L 266 334 L 271 333 L 272 336 L 274 331 L 275 331 L 274 341 L 273 339 L 272 347 L 272 351 L 273 354 L 270 352 L 271 350 L 270 346 L 269 348 Q 266 349 267 346 L 269 346 L 270 344 L 270 340 L 267 342 L 265 345 L 258 348 L 256 348 Q 255 351 250 350 L 249 348 L 251 349 Q 253 350 252 347 L 251 347 L 245 346 L 246 344 L 241 341 L 241 339 L 239 339 L 239 332 L 248 329 L 251 325 L 257 320 L 260 316 L 261 314 L 248 316 L 240 322 L 236 322 L 234 320 L 222 313 L 214 313 L 209 316 L 205 316 L 197 313 Q 192 312 194 316 L 199 316 L 206 322 Q 205 324 208 323 L 210 328 L 205 330 L 199 327 L 198 324 L 194 325 L 195 327 L 210 336 Q 214 338 214 345 L 214 347 L 215 350 Q 213 355 217 354 L 216 359 L 218 358 L 219 363 L 217 368 Q 216 371 219 370 L 218 376 L 216 368 L 209 368 L 208 367 L 203 369 L 191 369 L 190 368 L 183 370 L 182 372 L 189 371 L 191 371 L 198 373 L 199 376 Q 205 378 217 377 L 219 378 L 220 376 L 220 381 Q 217 382 218 380 L 217 380 Q 206 382 202 378 L 200 379 L 196 374 L 189 374 L 189 377 L 172 379 L 171 384 L 182 382 L 188 384 L 190 384 L 192 383 L 192 386 L 196 387 Q 202 389 204 386 L 209 387 L 210 385 L 212 386 L 215 385 L 220 387 Q 219 382 222 380 L 223 386 Q 221 391 225 390 L 226 394 Q 228 399 224 398 L 223 390 L 222 394 L 220 392 L 221 389 L 220 389 L 218 388 L 216 389 L 220 395 L 219 400 Q 220 402 218 401 L 218 400 L 218 393 L 217 392 L 215 389 L 211 387 L 213 391 L 213 393 L 208 387 L 204 389 L 198 388 L 199 392 Q 197 393 198 399 L 194 405 L 189 409 Q 187 406 186 410 L 185 409 Q 186 406 190 407 L 196 399 Q 195 393 197 392 L 196 389 L 188 387 L 185 384 L 184 385 L 182 384 L 172 386 L 168 386 L 156 380 L 155 378 L 159 379 L 158 378 L 160 374 L 157 371 L 155 372 Q 149 374 147 371 L 156 370 L 157 369 L 162 372 L 161 371 Q 160 368 165 369 L 167 369 Q 169 370 168 367 L 165 366 L 163 366 L 159 368 L 150 365 Q 146 366 147 363 L 151 363 L 156 366 Q 161 367 163 364 L 170 366 L 169 370 L 167 371 L 164 373 L 160 379 Q 163 383 170 384 Q 169 378 172 376 L 183 368 L 196 363 Q 199 364 197 360 L 189 360 L 184 364 Q 177 364 173 367 L 171 365 Q 169 360 162 361 L 160 361 L 152 360 L 147 357 Q 141 356 143 360 Q 140 361 141 359 L 143 356 Q 138 357 140 353 L 146 356 L 150 356 L 156 359 L 166 359 L 170 361 L 184 362 L 187 357 Q 186 354 185 356 L 171 351 L 168 352 L 161 351 L 159 355 L 152 350 Q 145 351 142 349 L 141 352 L 139 349 L 140 347 L 139 336 L 142 338 L 141 341 L 144 342 L 143 340 Q 142 336 145 337 Q 150 341 151 349 L 153 348 L 159 352 L 160 352 Q 153 349 155 339 L 151 337 L 154 336 Q 154 328 149 326 Q 150 323 147 324 L 147 316 L 151 306 Q 148 305 149 309 L 145 310 L 144 307 L 147 306 L 146 304 L 148 303 L 148 301 Q 145 302 146 300 L 141 297 L 134 312 L 131 315 L 125 317 L 126 320 L 126 321 L 122 321 L 122 319 Q 120 322 116 321 L 110 328 Q 112 327 111 330 L 108 332 L 109 336 L 112 335 L 112 338 L 108 339 Q 105 340 106 344 L 110 341 L 110 345 L 113 344 Q 112 341 116 342 L 119 336 L 122 339 L 120 343 Q 121 345 118 344 L 117 355 L 114 356 L 114 360 L 107 369 Q 105 372 100 372 L 98 378 L 90 382 Q 87 383 88 380 Q 89 377 94 378 L 92 374 Q 95 373 94 376 L 97 374 Q 99 375 98 372 L 103 368 Q 105 369 104 367 L 107 365 L 111 357 L 97 357 L 93 355 L 89 356 L 87 355 L 85 355 Q 82 356 83 353 L 88 354 L 91 353 L 97 355 L 107 355 Q 96 353 90 346 L 83 346 L 81 349 L 76 349 L 60 344 L 60 343 L 67 344 L 78 348 L 80 347 L 79 344 L 71 338 L 64 335 Q 53 334 48 337 L 46 337 L 42 336 Q 35 335 33 339 L 30 337 L 27 339 L 33 342 L 37 341 Q 46 341 52 344 L 55 342 Q 59 340 58 344 L 57 343 L 54 345 L 50 345 L 42 342 Q 35 341 33 344 L 31 344 L 24 338 Q 21 339 22 336 L 31 336 L 32 337 L 37 335 L 32 333 L 30 333 L 23 327 L 19 328 L 14 327 L 11 330 L 11 339 L 14 337 L 14 339 L 10 341 L 11 342 L 11 352 L 20 352 L 21 353 Q 22 350 29 352 L 37 347 L 52 349 L 55 351 L 60 351 Q 63 353 60 354 L 49 350 Q 43 352 42 349 L 38 349 L 30 355 L 22 358 L 13 358 L 11 360 L 11 375 L 12 376 L 10 383 L 10 415 L 11 416 L 10 418 L 11 425 L 11 424 L 13 424 L 15 423 L 17 423 L 19 424 L 10 427 L 10 472 L 9 473 L 10 474 L 11 491 L 14 484 Q 16 483 15 487 Q 17 490 18 487 L 17 481 L 15 482 L 14 481 L 18 478 L 16 477 Q 15 474 18 475 L 19 478 L 20 478 Q 19 474 22 475 L 19 483 L 20 483 Q 19 480 23 481 L 24 482 L 27 479 L 28 481 L 32 466 L 38 457 Q 40 452 46 452 L 42 462 L 43 465 Q 44 467 41 466 L 40 471 L 42 474 L 40 474 Q 39 480 43 483 L 47 468 L 52 464 L 50 473 Q 49 478 51 480 L 50 482 L 51 484 Q 54 485 53 482 L 57 480 L 55 484 L 57 491 L 58 491 L 57 486 Q 56 482 59 483 L 59 478 Q 56 479 57 476 L 55 476 L 56 474 L 59 472 L 61 472 Q 64 471 63 474 L 65 473 Q 67 472 66 475 L 61 476 L 64 477 Q 63 487 66 493 L 68 487 L 65 485 Q 64 482 68 483 L 68 480 L 67 482 Q 64 483 65 480 L 67 480 L 65 476 L 69 478 L 71 482 L 70 485 L 72 488 L 70 492 L 71 495 Q 73 494 71 493 L 74 491 L 73 490 Q 72 479 75 474 Q 76 470 73 471 L 75 467 L 76 471 L 78 467 L 76 466 L 75 464 L 79 465 L 80 463 L 82 464 L 80 465 L 82 468 Q 83 472 79 473 L 80 479 L 82 472 L 84 471 L 82 480 L 83 493 L 85 489 L 83 488 L 84 483 Q 87 482 86 485 L 87 486 L 86 488 Q 89 487 87 493 L 82 497 L 85 498 L 87 497 Q 86 494 89 493 L 87 483 L 88 481 L 90 484 Q 89 489 91 491 L 89 494 L 91 499 L 86 500 L 83 499 L 81 502 L 79 501 L 78 492 L 77 492 Q 74 491 75 494 L 77 493 L 77 500 L 72 502 L 74 503 L 69 504 L 68 501 Q 65 502 66 500 L 69 499 L 68 495 L 63 495 L 65 498 L 63 502 Q 64 505 62 504 L 58 503 L 60 502 L 57 500 L 55 500 L 55 505 L 52 504 L 53 500 L 51 501 L 47 498 Q 43 497 44 500 L 44 502 L 44 505 Q 41 504 42 499 L 41 499 Q 38 500 39 498 L 39 496 L 42 490 L 39 489 L 37 489 L 38 493 L 37 498 Q 35 502 39 501 Q 41 502 39 504 L 40 506 L 37 506 L 39 505 L 36 503 L 34 504 L 33 503 L 32 503 Q 27 504 26 502 L 17 504 L 15 504 L 11 503 Q 9 499 13 500 L 14 503 L 14 500 L 17 500 L 15 499 L 24 498 L 25 497 L 25 499 Q 28 500 28 497 L 33 497 L 32 493 L 28 490 L 13 490 L 9 495 L 10 496 L 10 508 L 13 507 L 16 508 L 14 509 L 10 510 L 10 520 L 10 522 L 12 525 L 15 525 L 27 518 L 30 519 L 10 528 L 11 534 L 12 530 L 15 531 L 10 539 L 10 545 L 14 544 Q 17 546 24 545 L 27 541 Q 28 538 32 539 L 38 533 L 39 533 L 39 531 Q 42 532 41 530 L 54 520 Q 56 521 55 519 L 62 515 Q 73 515 81 511 L 89 511 L 94 509 Q 94 505 90 506 L 89 504 L 94 505 Q 96 506 95 511 L 80 513 L 59 518 Q 55 523 49 525 L 34 540 L 27 543 L 28 545 L 37 545 L 39 545 L 41 544 L 53 544 L 54 545 L 56 544 L 58 545 L 60 540 L 60 536 L 70 528 Q 71 524 73 528 L 68 531 L 62 537 L 60 544 L 61 545 L 69 545 Q 68 541 71 540 L 71 544 L 71 545 L 75 544 L 77 545 L 78 543 L 83 540 L 82 538 L 83 535 L 92 528 L 98 528 L 112 525 Q 117 527 116 524 L 117 522 L 109 525 L 107 524 L 93 525 L 90 527 Q 87 528 88 525 L 94 523 L 103 523 L 104 522 L 106 523 L 115 521 L 117 521 L 118 521 L 118 517 L 113 519 L 101 520 L 89 523 L 87 523 L 79 526 Q 75 527 76 524 L 87 521 L 93 521 L 96 519 L 112 517 L 110 515 Q 112 507 105 510 Q 102 510 102 506 L 109 501 L 114 500 Q 116 501 115 498 Q 108 497 106 500 L 100 500 L 97 502 L 93 502 L 100 498 Q 107 499 111 496 Q 115 495 117 497 L 120 495 Q 121 492 117 493 Q 115 495 114 493 L 119 491 L 122 494 L 121 496 L 122 497 L 123 495 L 125 492 Q 122 493 123 490 L 128 490 L 139 494 L 140 495 L 139 490 Q 133 491 131 488 Q 132 485 129 486 L 126 482 L 127 479 L 123 480 L 117 470 L 118 467 L 118 465 Q 117 456 122 453 L 120 450 L 122 449 L 123 451 L 130 447 L 131 443 L 135 439 Q 139 440 141 437 Q 145 438 144 436 L 139 432 L 135 426 Q 133 419 137 420 L 137 425 L 140 430 L 144 432 L 147 436 L 147 434 L 149 434 L 148 431 L 152 432 Q 153 436 149 434 L 150 438 L 149 438 Q 150 435 148 436 L 148 438 Q 150 447 146 452 L 141 455 L 139 457 L 139 465 L 138 466 L 139 468 Q 138 470 142 469 L 143 470 L 141 466 L 143 465 L 144 463 Q 145 459 142 460 L 141 458 Q 140 455 143 456 L 146 461 L 145 463 Q 144 466 147 465 L 148 466 L 147 464 L 150 453 L 151 460 L 150 459 L 149 461 L 149 463 Q 148 465 151 464 L 154 460 Q 155 453 152 451 Q 151 446 154 445 L 157 443 L 154 449 L 156 456 L 156 460 L 151 467 L 150 471 Q 151 473 153 471 Q 156 472 155 470 L 156 470 L 155 472 Q 155 476 158 477 Q 157 479 160 478 Q 161 474 157 473 Q 159 470 160 473 Q 159 475 162 474 L 166 468 L 165 466 L 165 462 L 168 456 L 166 454 L 163 450 L 163 447 Q 166 447 165 442 L 171 442 L 176 450 L 175 453 L 179 460 L 178 472 L 175 476 L 177 476 L 179 475 L 178 477 L 181 478 Q 186 480 184 474 L 183 474 Q 184 477 181 476 L 180 473 Q 179 470 182 471 L 183 473 L 183 458 L 188 451 Q 187 448 190 449 L 185 457 Q 187 462 184 464 L 185 466 L 188 457 L 188 470 L 190 469 Q 189 466 192 467 L 191 470 L 192 474 Q 194 473 193 468 L 196 466 L 195 471 L 198 473 L 198 465 L 200 464 L 201 461 L 203 460 L 200 468 L 201 470 L 199 475 L 200 479 L 201 477 Q 199 471 203 472 Q 205 473 204 478 L 206 477 Q 204 471 208 472 L 210 477 L 212 476 Q 214 480 210 479 L 211 482 L 210 487 L 211 488 L 213 483 L 214 485 L 216 482 L 218 485 Q 220 486 219 484 L 213 479 L 214 477 L 212 474 L 216 473 L 215 478 L 222 480 L 226 479 Q 227 482 225 481 Q 220 483 220 490 L 225 493 Q 232 495 234 491 L 237 492 L 239 492 L 240 494 L 241 490 Q 246 491 248 488 Q 251 489 249 484 L 240 478 L 229 479 L 230 477 Q 232 478 231 474 L 234 474 L 235 471 Q 238 470 237 473 Q 235 474 238 475 L 238 473 L 240 473 L 243 471 Q 242 467 245 468 Q 246 473 241 475 L 242 479 Q 243 481 245 479 L 248 480 L 249 473 L 251 472 Q 248 478 250 489 L 248 493 Q 249 496 254 495 L 256 495 L 258 496 L 260 491 Q 261 488 259 489 L 257 489 L 258 491 L 256 491 L 256 490 L 256 487 L 254 490 L 253 490 Q 252 483 255 481 L 262 479 L 267 481 Q 271 482 269 478 L 273 475 L 275 476 L 271 477 L 270 483 L 273 484 L 272 488 L 276 490 L 283 490 L 282 493 L 279 491 L 277 492 L 274 491 L 275 494 L 272 494 L 272 491 L 269 492 L 270 495 L 269 497 L 280 499 Q 284 500 283 498 L 279 495 L 292 494 L 292 490 L 286 492 L 285 490 L 291 489 Q 294 487 293 481 L 287 476 L 279 475 L 281 474 L 280 472 Q 278 468 274 468 L 274 467 L 279 468 L 278 467 L 280 466 L 281 472 L 284 471 L 284 473 L 287 472 L 290 477 Q 293 476 293 471 L 295 476 L 298 475 Q 299 478 296 477 L 297 485 L 298 479 L 298 482 L 300 481 L 302 482 Q 305 481 304 485 L 307 483 L 307 486 L 309 486 Q 308 488 311 487 L 311 479 L 310 478 L 307 482 L 304 478 Q 306 474 305 468 L 310 460 Q 311 457 308 458 Q 307 455 310 456 L 311 458 L 315 453 L 315 450 L 319 447 L 317 454 L 319 463 L 317 472 L 319 476 L 319 478 Q 320 480 317 479 L 314 478 L 315 486 L 318 489 Q 319 492 317 491 L 315 489 L 313 488 Q 314 490 312 489 L 310 492 Q 309 494 306 493 L 304 493 L 300 494 L 296 492 L 294 493 L 294 495 L 287 497 L 285 496 L 284 499 L 288 500 L 303 499 L 303 501 L 296 501 L 294 501 L 290 502 L 281 500 L 264 500 Q 262 502 261 500 Q 262 497 267 498 L 266 492 Q 263 491 264 494 L 262 493 L 259 498 L 250 496 L 247 493 L 246 494 L 243 493 Q 240 494 242 496 Q 240 498 236 497 Q 234 493 233 496 L 226 496 L 219 494 Q 215 495 216 492 L 220 492 L 218 490 L 212 493 L 211 490 L 210 492 L 208 489 L 207 492 L 202 491 L 202 490 Q 205 491 204 489 L 198 486 Q 199 483 196 484 Q 195 487 198 489 Q 200 495 197 497 L 192 494 L 191 497 L 185 493 L 184 495 L 192 499 L 193 497 L 198 501 L 198 508 L 196 508 L 196 510 L 193 504 L 189 503 L 187 504 Q 186 501 190 502 L 190 501 L 181 495 L 178 495 L 171 500 L 179 500 L 191 508 Q 195 509 194 514 L 205 516 L 214 516 L 216 518 L 221 519 Q 226 517 225 521 L 209 517 L 197 516 L 195 516 L 197 521 L 197 529 L 195 530 L 193 528 L 191 526 L 189 526 L 191 532 L 187 531 Q 188 527 186 528 L 183 527 L 183 532 Q 180 531 181 535 L 188 534 Q 194 532 196 535 L 198 534 Q 200 535 199 532 L 201 532 L 201 538 L 198 536 L 181 536 L 180 535 L 175 538 Q 170 539 169 537 L 160 542 L 157 542 L 155 542 Q 152 541 153 544 L 188 544 L 187 542 L 169 541 L 175 540 L 177 540 L 179 539 L 189 541 L 190 544 L 203 544 Q 202 541 196 542 Q 194 538 193 541 Q 190 542 191 539 Q 200 537 205 542 Q 207 541 206 544 L 222 544 L 225 545 L 227 545 L 236 544 L 239 545 L 257 545 L 258 544 L 259 545 L 267 545 L 269 545 L 271 546 L 273 546 L 280 545 L 285 546 Q 291 548 293 545 Q 299 543 301 546 L 334 546 L 334 546 L 334 536 L 331 535 L 329 535 Q 326 536 327 533 L 333 534 Q 336 535 334 531 L 316 530 L 317 543 Q 314 544 315 542 L 315 540 L 314 531 Q 310 532 311 536 L 308 535 L 309 530 L 313 529 Q 315 530 314 527 L 313 527 Q 307 528 306 525 Q 307 521 312 522 L 311 520 Q 303 522 305 517 Q 308 514 315 515 L 314 508 L 317 507 L 324 509 Q 326 508 325 512 Q 323 515 317 513 L 318 515 L 324 515 L 324 517 L 317 516 L 318 519 L 333 519 L 333 514 L 332 514 L 330 514 Q 331 517 329 516 Q 327 518 326 516 L 329 512 L 333 512 L 333 506 L 315 503 L 307 506 Q 300 508 299 505 L 287 505 L 286 506 L 281 506 L 287 503 L 299 503 L 302 505 L 312 502 L 328 503 L 332 505 Q 334 506 333 503 L 330 501 L 332 497 L 326 497 L 319 495 L 318 497 L 329 499 L 329 501 Q 327 499 322 500 L 318 498 L 316 498 L 308 498 L 307 499 L 304 497 Q 300 498 301 496 L 303 496 L 305 495 L 307 495 Q 311 494 313 496 L 314 496 L 313 493 L 316 494 L 319 493 L 324 495 L 333 495 L 333 492 L 328 491 L 326 491 L 324 490 Q 322 488 321 491 L 319 490 L 321 485 L 316 485 L 321 478 L 320 474 L 321 469 Q 323 463 320 462 L 321 459 L 320 454 L 321 451 L 318 443 Q 317 440 320 441 L 322 445 L 323 458 L 326 435 L 330 430 Q 329 427 332 428 L 334 424 Q 335 420 332 421 Q 331 418 334 419 L 333 413 L 334 411 L 334 385 L 334 383 L 333 374 L 330 373 L 333 372 Q 335 365 332 364 L 332 355 L 333 354 L 333 350 Q 330 351 331 349 L 333 349 L 333 339 L 330 338 Q 329 335 333 336 L 333 333 L 330 334 L 330 333 L 329 330 Q 323 329 322 332 Q 317 333 318 331 L 320 331 L 323 329 L 330 329 L 330 332 L 334 332 L 333 329 Q 335 330 334 328 Q 332 325 327 326 Q 325 329 324 325 L 307 325 L 301 327 L 301 328 Q 304 327 303 330 Q 299 331 300 328 Q 294 327 292 330 L 290 330 L 293 327 L 300 326 L 303 324 L 318 323 L 321 324 L 323 323 L 326 324 L 328 324 L 332 325 Q 336 326 334 321 L 332 321 L 334 320 Q 332 313 333 302 L 333 300 L 331 270 L 330 269 L 331 260 L 331 258 L 329 256 L 329 216 L 328 215 L 328 203 Q 327 200 326 202 L 325 201 L 300 201 Z M 200 202 L 197 204 L 202 219 L 203 219 L 203 206 L 202 205 Q 203 201 200 202 Z M 297 202 L 292 205 L 288 210 L 290 219 L 289 221 Q 288 226 290 228 L 289 231 L 289 254 L 288 255 L 288 280 L 286 289 L 286 297 L 285 298 L 286 300 L 285 304 L 286 306 L 285 307 L 285 316 L 284 317 L 282 314 L 283 303 L 278 302 L 274 297 L 261 306 L 254 307 Q 250 309 250 314 L 261 312 L 264 314 L 262 318 L 257 322 L 250 330 L 250 331 Q 259 332 265 329 L 267 327 L 274 325 L 277 322 Q 279 323 278 320 L 282 320 L 283 318 L 284 322 L 289 320 L 293 322 L 298 321 Q 300 322 299 319 L 299 317 L 299 239 L 298 238 L 298 218 L 297 217 L 298 214 L 298 212 Q 299 205 297 202 Z M 34 206 L 33 207 L 19 207 L 17 210 L 16 208 L 14 212 L 14 224 L 15 225 L 14 285 L 12 294 L 12 308 L 11 309 L 12 327 L 15 325 L 24 326 L 28 330 L 35 331 L 37 333 Q 48 334 53 329 L 50 319 L 50 312 L 45 283 L 46 274 L 46 272 L 45 269 L 46 264 L 45 261 L 45 213 L 43 206 L 40 207 Q 35 208 34 206 Z M 47 210 L 47 213 L 47 239 L 46 240 L 47 244 L 48 292 L 51 307 L 52 320 Q 55 322 54 326 L 58 325 L 70 330 L 72 330 L 64 320 L 60 305 L 58 283 L 57 282 L 56 236 L 55 235 L 56 231 L 56 229 Q 55 216 47 210 Z M 334 262 L 334 282 L 335 282 L 335 270 L 334 262 Z M 248 309 Q 244 313 237 314 L 235 318 L 243 317 L 245 315 Q 247 316 246 314 Q 251 311 248 309 Z M 198 318 L 197 322 L 198 322 L 198 318 Z M 201 320 L 199 323 L 201 324 L 201 320 Z M 204 322 L 202 324 L 204 325 L 203 325 L 204 327 L 206 326 L 204 322 Z M 58 327 L 51 333 L 45 334 L 45 335 L 51 335 L 57 333 Q 68 333 74 339 Q 76 338 75 341 Q 80 341 83 344 L 91 344 L 100 349 L 114 349 L 116 346 L 116 344 L 114 346 L 102 348 L 104 340 L 88 339 L 76 333 L 74 333 L 58 327 Z M 188 329 L 183 335 L 183 338 L 189 335 L 191 336 L 195 335 L 197 336 L 204 336 L 199 331 L 188 329 Z M 248 332 L 246 333 L 244 333 L 242 334 Q 239 333 240 336 L 244 337 L 245 340 L 244 339 L 243 341 L 248 344 L 246 345 L 249 345 L 250 346 Q 249 342 255 344 L 262 334 L 263 332 L 259 333 L 249 333 L 248 332 Z M 168 336 L 165 339 L 158 339 L 157 341 L 157 343 L 163 350 L 168 349 L 172 349 L 181 353 L 189 354 L 190 358 Q 191 360 195 359 L 196 357 L 195 353 L 189 350 L 180 349 L 175 347 Q 174 343 177 342 Q 179 343 178 339 L 174 336 L 172 337 L 168 336 Z M 263 336 L 259 342 L 260 343 L 263 338 L 263 336 Z M 187 337 L 187 342 L 190 344 L 198 345 Q 204 348 204 357 L 212 354 L 213 352 L 211 346 L 212 343 L 211 341 Q 212 338 210 339 Q 208 335 207 338 L 187 337 Z M 265 337 L 263 342 L 265 341 L 265 337 Z M 179 339 L 180 342 L 179 344 Q 176 343 177 347 Q 188 347 195 351 L 198 356 L 197 358 Q 196 361 201 359 L 203 356 L 201 351 Q 202 348 199 349 L 199 347 L 188 344 Q 183 345 185 341 Q 184 338 183 340 L 179 339 Z M 145 342 L 145 344 L 144 347 L 148 348 L 148 345 L 146 345 Q 147 341 145 342 Z M 259 343 L 255 346 L 259 346 L 259 343 Z M 105 344 L 103 347 L 106 345 L 105 344 Z M 113 350 L 104 352 L 109 353 L 114 351 L 113 350 Z M 11 354 Q 9 358 13 357 L 15 357 L 24 355 L 11 354 Z M 211 356 L 205 358 L 206 360 L 213 360 L 213 362 L 207 362 L 206 361 L 200 362 L 214 364 L 215 365 Q 215 359 212 358 Q 213 355 211 356 Z M 173 363 Q 173 367 175 364 L 173 363 Z M 200 364 L 199 366 L 205 365 L 200 364 Z M 178 374 L 178 375 L 181 376 L 184 375 L 178 374 Z M 334 428 L 331 429 L 327 437 Q 328 442 325 445 L 326 447 L 327 444 L 334 437 L 333 436 L 334 434 L 334 428 Z M 334 439 L 332 440 L 327 446 L 329 450 L 327 450 L 327 448 Q 327 456 324 461 L 326 464 Q 329 460 329 454 L 331 453 L 329 464 L 327 467 L 327 469 L 326 471 L 327 474 Q 326 477 329 476 L 332 461 L 334 458 L 333 456 L 334 454 L 333 448 L 331 449 L 330 446 L 334 447 L 334 439 Z M 138 440 L 137 442 L 140 441 L 138 440 Z M 146 440 L 143 447 L 137 448 L 134 457 Q 133 459 136 458 L 136 459 L 134 458 L 130 463 L 134 464 L 134 463 L 135 463 L 134 467 L 133 466 Q 128 467 130 463 L 128 464 L 131 471 L 136 475 L 138 475 L 140 479 Q 139 473 142 472 L 140 471 L 137 469 L 137 457 Q 139 452 144 452 L 146 448 L 146 440 Z M 136 442 L 135 445 L 136 445 L 136 442 Z M 142 443 L 141 444 Q 138 443 139 446 L 142 445 L 142 443 Z M 170 443 L 169 445 L 172 450 Q 171 454 174 453 Q 175 447 172 444 L 170 443 Z M 168 450 Q 165 454 170 453 L 168 450 Z M 126 452 L 125 456 L 127 457 L 126 452 Z M 173 456 L 172 459 L 175 460 L 175 466 L 174 462 Q 171 463 172 467 L 175 468 Q 179 466 177 459 L 173 456 Z M 130 457 L 128 459 L 130 459 L 130 457 Z M 123 458 L 121 461 L 122 464 L 123 461 L 123 458 Z M 127 464 L 125 466 L 126 469 L 127 466 L 127 464 Z M 129 468 L 127 470 L 128 472 L 130 473 Q 131 469 129 468 Z M 148 469 L 148 474 Q 151 475 149 477 L 153 479 L 157 478 L 154 473 L 152 474 L 149 473 L 148 469 Z M 175 470 L 173 472 Q 174 474 172 473 L 170 473 L 171 475 L 173 474 Q 174 477 176 473 Q 177 469 175 470 Z M 126 471 L 127 473 Q 128 470 126 471 Z M 334 471 L 333 475 L 334 475 L 334 471 Z M 78 473 L 76 475 L 78 475 L 78 473 Z M 195 473 L 194 475 L 196 476 L 195 473 Z M 126 474 L 126 476 L 130 476 L 126 474 Z M 146 474 L 146 476 L 146 477 L 148 476 Q 149 473 146 474 Z M 163 475 L 160 480 L 163 478 Q 166 479 165 476 L 163 475 Z M 170 475 L 169 476 Q 166 475 167 478 L 170 479 L 170 475 Z M 134 476 L 134 480 L 136 481 L 135 478 Q 136 475 134 476 Z M 175 478 L 175 479 L 178 479 L 175 478 Z M 62 479 L 61 486 L 62 486 L 62 479 Z M 173 479 L 171 481 L 173 481 L 173 479 Z M 149 480 Q 146 484 150 483 L 151 481 L 149 480 Z M 155 480 Q 154 483 157 482 Q 158 479 155 480 Z M 166 480 L 167 483 L 164 487 L 165 488 L 168 484 Q 170 479 166 480 Z M 184 480 L 184 481 L 191 483 L 193 483 L 184 480 Z M 209 480 Q 204 481 205 487 L 207 487 Q 206 484 209 485 L 208 484 L 209 482 L 209 480 Z M 263 480 L 258 482 L 256 482 L 256 486 L 261 488 L 262 485 L 259 486 L 262 482 L 265 484 L 264 491 L 267 489 L 268 490 L 269 487 L 270 490 L 270 485 L 263 480 Z M 46 481 L 45 485 L 46 485 L 46 481 Z M 137 481 L 137 483 L 139 484 Q 140 480 137 481 Z M 171 481 L 168 488 L 171 486 L 171 481 Z M 176 481 L 175 483 L 181 483 L 176 481 Z M 158 482 L 156 484 L 157 492 L 159 493 L 158 488 L 160 487 L 158 482 Z M 21 483 L 20 488 L 21 488 L 21 483 Z M 23 483 L 24 485 L 25 485 L 23 483 Z M 184 483 L 183 485 Q 176 486 173 484 L 171 491 L 165 495 Q 162 497 165 498 L 176 489 Q 184 489 189 494 L 192 493 L 195 494 L 196 492 L 193 487 L 192 489 Q 189 487 182 488 L 180 488 Q 175 489 176 486 L 187 486 L 188 487 L 192 487 L 189 484 L 184 483 Z M 194 483 L 193 486 L 195 486 L 194 483 Z M 200 483 Q 199 486 202 485 Q 203 482 200 483 Z M 134 484 L 134 487 L 137 488 L 139 488 L 138 486 L 137 486 L 134 484 Z M 146 485 L 144 487 L 145 489 Q 149 487 146 485 Z M 34 486 L 30 487 L 29 489 Q 33 490 34 488 L 34 486 Z M 214 486 L 213 488 L 215 487 L 214 486 Z M 263 486 L 261 489 L 263 491 L 263 489 Q 265 487 263 486 Z M 300 486 L 298 489 L 299 491 L 300 489 L 300 486 Z M 148 487 Q 145 488 146 492 L 144 492 Q 143 495 146 494 L 148 490 Q 150 488 148 487 Z M 305 488 L 301 489 L 302 491 L 306 491 L 305 488 Z M 332 488 Q 330 491 333 490 L 332 488 Z M 60 489 L 58 492 L 60 493 L 60 489 Z M 46 490 L 44 492 L 46 492 L 46 490 Z M 148 491 L 148 494 L 150 493 Q 151 490 148 491 Z M 175 491 L 175 493 L 178 492 L 181 493 L 184 493 Q 181 490 175 491 Z M 35 492 L 35 498 L 36 498 Q 37 493 35 492 Z M 128 492 L 129 494 Q 130 491 128 492 Z M 162 492 Q 160 495 163 494 L 162 492 Z M 60 493 L 60 497 L 62 498 Q 64 492 60 493 Z M 40 494 L 40 496 L 42 495 L 40 494 Z M 75 494 L 74 498 L 75 498 L 75 494 Z M 126 494 L 123 500 Q 120 499 121 502 L 119 502 L 119 504 L 117 504 L 117 508 Q 120 507 122 510 L 129 501 L 130 503 L 130 501 L 140 503 Q 143 504 144 502 L 144 499 L 142 500 L 140 500 L 125 500 L 133 498 L 132 497 L 130 497 L 126 494 Z M 156 494 L 157 499 L 160 500 L 162 500 L 160 498 L 158 496 L 156 494 Z M 43 495 L 43 497 L 45 496 L 43 495 Z M 152 495 L 150 498 L 150 500 Q 149 502 152 501 L 152 495 Z M 33 498 L 29 500 L 29 501 Q 32 502 33 500 L 33 498 Z M 120 498 L 118 501 L 120 500 L 120 498 Z M 19 499 L 19 500 L 23 502 L 25 501 Q 24 498 19 499 Z M 193 499 L 192 501 L 195 502 L 193 499 Z M 34 500 Q 33 503 36 502 Q 37 499 34 500 Z M 156 501 L 155 505 L 156 505 L 156 501 Z M 168 501 Q 165 502 166 507 Q 174 507 179 503 L 177 501 L 175 502 L 173 502 L 168 501 Z M 111 502 L 108 503 L 104 508 L 107 509 L 112 507 Q 114 501 111 502 Z M 159 502 L 158 506 L 161 507 L 162 506 L 159 502 Z M 115 503 L 114 506 L 115 506 L 115 503 Z M 150 503 L 150 509 L 151 509 Q 150 506 153 507 Q 155 501 150 503 Z M 181 503 L 176 506 L 176 507 L 181 505 L 183 506 L 184 506 L 181 503 Z M 129 504 L 130 506 Q 131 503 129 504 Z M 196 504 L 195 508 L 196 508 L 196 504 Z M 126 507 L 124 510 L 126 509 L 126 507 Z M 131 507 L 129 509 Q 130 511 127 510 L 126 513 L 128 513 L 129 516 L 137 513 Q 140 514 139 511 L 133 512 Q 131 514 130 512 L 137 509 Q 142 511 141 508 L 140 508 L 138 507 L 136 508 L 131 507 Z M 144 507 L 142 509 Q 141 511 144 510 L 144 507 Z M 173 507 L 173 508 L 175 508 L 173 507 Z M 159 508 L 159 510 Q 157 511 160 512 L 161 510 Q 162 507 159 508 Z M 180 508 L 177 510 L 184 511 L 184 509 L 180 508 Z M 188 508 L 187 510 L 189 511 L 188 508 Z M 116 509 Q 113 510 114 514 L 113 516 L 118 515 L 121 511 L 116 509 Z M 155 509 L 152 511 L 154 514 L 157 513 L 155 512 L 155 509 Z M 318 509 L 316 511 L 317 513 L 319 512 L 322 511 L 318 509 Z M 124 510 L 122 513 L 124 512 L 124 510 Z M 166 510 L 164 512 L 165 514 L 166 516 L 176 513 L 177 511 Q 170 509 169 512 L 166 510 Z M 191 511 L 191 514 L 192 514 Q 193 510 191 511 Z M 161 512 Q 159 515 162 514 L 161 512 Z M 181 512 L 189 522 L 189 524 L 193 525 L 189 513 L 187 514 Q 185 510 184 513 L 181 512 Z M 126 513 Q 121 515 124 517 L 121 522 Q 122 526 120 528 L 121 530 L 120 529 L 104 533 L 98 536 L 97 541 L 91 543 Q 90 540 93 541 Q 96 540 95 537 Q 102 530 114 528 L 116 529 L 117 526 L 115 527 L 97 529 L 87 533 Q 83 535 85 541 L 82 542 L 80 545 L 88 544 L 90 544 L 92 545 L 101 544 L 103 544 L 107 545 Q 109 546 108 544 L 111 541 L 121 537 Q 125 535 124 539 L 119 542 Q 113 541 111 544 L 115 545 L 118 544 L 122 545 L 124 544 L 148 544 L 144 542 L 140 538 L 144 534 L 145 535 L 147 533 Q 152 534 154 532 L 153 529 L 152 531 L 151 530 Q 144 529 142 531 L 142 528 L 139 529 Q 135 531 135 536 L 135 537 L 139 536 L 139 538 L 134 538 L 134 540 L 128 542 Q 127 539 130 540 L 129 536 Q 133 533 132 526 Q 133 523 135 525 L 146 521 L 147 519 L 137 523 L 131 523 L 131 527 L 128 533 L 126 533 L 126 529 L 122 529 L 125 527 Q 127 528 126 526 L 123 524 L 125 520 L 127 521 L 128 518 Q 129 513 126 513 Z M 140 514 L 134 516 L 134 517 L 140 516 L 140 514 Z M 193 514 L 192 517 L 193 517 L 193 514 Z M 121 515 L 120 518 L 121 518 L 121 515 Z M 144 516 L 142 517 L 141 519 L 147 517 L 144 516 Z M 156 516 L 153 517 L 154 520 L 154 519 L 157 518 Q 158 515 156 516 Z M 160 516 L 160 519 L 163 518 L 160 516 Z M 176 517 L 170 520 L 168 519 L 165 520 Q 167 523 166 529 L 180 525 Q 183 526 181 522 L 176 517 Z M 194 517 L 193 520 L 194 520 L 194 517 Z M 311 517 Q 310 521 315 519 Q 316 515 311 517 Z M 183 518 L 185 521 L 186 521 L 183 518 Z M 134 520 L 134 521 L 136 521 L 134 520 Z M 330 520 L 329 521 L 318 522 Q 327 521 331 525 Q 335 526 333 521 L 330 520 Z M 161 521 L 160 523 L 163 524 L 161 521 Z M 158 522 L 156 525 L 158 524 L 158 522 Z M 187 522 L 186 526 L 187 526 L 187 522 Z M 313 523 L 311 525 L 314 525 Q 315 522 313 523 Z M 317 523 L 317 525 Q 321 526 322 524 L 317 523 Z M 120 524 L 118 527 L 120 526 L 120 524 Z M 143 524 L 143 525 L 145 525 L 143 524 Z M 195 524 L 194 527 L 195 527 L 195 524 Z M 138 525 L 136 527 L 138 527 L 138 525 Z M 161 525 L 158 530 L 160 530 L 163 529 L 161 525 Z M 149 526 L 145 527 L 145 528 L 152 528 L 149 526 Z M 321 526 L 317 528 L 323 529 L 325 528 L 333 530 L 333 527 Q 329 525 321 526 Z M 158 531 Q 157 534 160 533 Q 161 530 158 531 Z M 179 531 L 177 534 L 179 533 L 179 531 Z M 173 533 L 170 534 L 167 535 L 168 536 L 173 536 L 173 533 Z M 164 535 L 161 538 L 164 538 Q 167 537 164 535 Z M 155 536 L 154 539 L 155 539 L 155 536 Z M 157 536 L 156 539 L 159 540 Q 160 537 157 538 L 157 536 Z M 151 540 Q 149 543 152 542 L 151 540 Z M 10 547 L 10 583 Q 13 584 11 591 L 13 590 L 18 591 L 20 591 L 44 591 L 45 590 L 47 591 L 78 591 L 80 591 Q 86 593 88 590 L 96 590 L 97 591 Q 103 593 105 590 L 109 591 L 114 590 L 130 591 L 132 591 Q 136 592 138 590 L 140 591 L 144 590 L 146 591 L 148 590 Q 152 589 154 591 L 156 590 L 262 590 L 264 590 L 272 590 L 273 591 L 276 590 L 280 591 L 331 591 L 333 592 L 334 591 L 334 549 L 328 550 L 327 549 L 286 549 L 284 549 L 281 548 L 278 549 L 268 548 L 266 548 L 264 549 L 263 548 L 223 548 L 222 547 Q 217 546 216 548 L 211 547 L 209 547 L 206 548 L 202 547 L 200 548 L 184 547 L 182 547 Q 176 546 175 548 L 172 547 L 171 548 L 158 548 L 156 548 L 153 547 L 151 548 L 102 548 L 101 547 L 99 548 L 29 548 L 28 547 L 25 548 L 20 547 L 18 547 L 16 548 L 10 547 Z "></path><path d="M 97 32 L 100 33.5 L 99.5 36 L 97 32 Z "></path><path d="M 268 38 L 270 38.5 L 268 39.5 L 268 38 Z "></path><path d="M 73.5 76 L 80.5 77 L 101 83.5 L 96.5 84 L 75.5 78 L 73.5 76 Z "></path><path d="M 72.5 121 L 73 123 L 64 122.5 L 72.5 121 Z "></path><path d="M 75.5 121 Q 78.1 120.3 77 123 L 74 122.5 L 75.5 121 Z "></path><path d="M 58.5 122 L 59 123.5 L 57 124.5 L 58.5 122 Z "></path><path d="M 98.5 183 L 101 184.5 L 98 185 L 98.5 183 Z "></path><path d="M 273.5 188 Q 275.8 187.3 275 189.5 L 278 191.5 L 276.5 192 L 274.5 191 L 275 192.5 L 276.5 196 L 282.5 198 Q 286.8 196.3 284 194.5 L 284 193 L 282 193 Q 283.1 190.3 280.5 191 L 280.5 190 L 285 192.5 L 287 198 L 280.5 199 L 273 193.5 L 272 189.5 L 273.5 188 Z "></path><path d="M 66.5 189 L 67 190.5 L 66 192.5 L 68.5 196 Q 73.3 195.3 74 198.5 Q 73.5 202.5 76.5 203 L 78 202.5 Q 75.2 200.8 77 194.5 L 74.5 192 L 69 191.5 L 72.5 190 L 78 193.5 L 79 198.5 L 78 200.5 L 80 203.5 L 78 203.5 Q 78.8 205.8 76.5 205 L 70.5 197 Q 66.8 197.8 66 195.5 L 65 190.5 L 66.5 189 Z "></path><path d="M 135.5 201 L 137 201.5 L 132 205.5 L 135.5 201 Z "></path><path d="M 309.5 210 L 318 210 L 318 216.5 Q 317.3 219.8 312.5 219 L 310.5 218 L 309 218.5 L 308 214.5 L 309 212.5 Q 306.8 211.3 309.5 210 Z "></path><path d="M 28.5 214 L 33 216.5 Q 34 221 31.5 222 L 29.5 223 L 27.5 220 L 25 221 L 24 216.5 L 28.5 214 Z "></path><path d="M 111.5 216 L 119 220.5 L 120 229 L 123 230.5 L 122.5 233 L 116 232 Q 117.3 229 113.5 230 Q 108.3 227.3 110 217.5 L 111.5 216 Z M 111 219 L 112 227 L 119 231 L 120 231 L 119 229 L 119 227 L 118 222 Q 116 218 111 219 Z "></path><path d="M 266 229 L 269 230.5 L 267 231.5 L 268 235 L 273.5 236 L 276.5 239 L 277 233.5 L 273 230.5 L 274.5 230 L 279 233.5 Q 277.8 239.6 280.5 239 L 279.5 241 L 276.5 241 L 267 234.5 L 266 229 Z "></path><path d="M 151 232 L 154 233.5 L 154 235.5 L 153.5 238 L 151 232 Z "></path><path d="M 237.5 233 L 238 236 L 246.5 237 L 250 239.5 L 251 245.5 L 250 245.5 Q 250.7 239.3 246.5 238 Q 239.7 238.9 237 237 Q 237.5 241.7 241.5 244 Q 247.5 242.5 249 245.5 L 250 247.5 L 248 248 Q 249.1 245.3 246.5 246 Q 245.3 243.8 240.5 245 L 236 240.5 L 237.5 233 Z "></path><path d="M 156.5 234 L 160 236.5 L 161 239.5 L 160 239.5 L 159 236 L 156.5 234 Z "></path><path d="M 203.5 235 L 204 237 Q 212 235.3 214 240.5 L 215 245.5 L 214 248 Q 210.2 249 209 246.5 L 206.5 243 Q 201.5 243.5 201 239.5 L 203.5 235 Z M 203 238 L 203 240 L 213 246 L 212 241 Q 210 236 203 238 Z "></path><path d="M 82.5 238 Q 84.8 237.3 84 239.5 L 86.5 243 Q 84.2 237.7 82 241.5 L 85.5 247 L 90 250.5 L 92.5 254 L 95 248.5 L 91.5 244 L 88 243.5 L 92.5 243 Q 97 244 96 250.5 L 95 253.5 L 95.5 255 Q 90 256 89 252.5 L 88 249 L 82 245.5 L 81 239.5 L 82.5 238 Z "></path><path d="M 152.5 239 L 156 243.5 L 154.5 244 Q 150.8 242.8 152.5 239 Z "></path><path d="M 159 242 Q 162.3 240.7 161 245.5 Q 159 249 157 244.5 L 157.5 243 L 159 243.5 L 159 242 Z "></path><path d="M 119 256 Q 122.8 254.5 122 257.5 Q 122.8 259.8 126.5 259 L 131 263.5 Q 132.5 269.5 129.5 271 L 127.5 271 L 119 263.5 L 118 259.5 L 119 256 Z M 121 258 L 121 265 L 129 269 L 130 266 L 129 264 L 121 258 Z "></path><path d="M 204.5 260 Q 212 260.5 215 265.5 L 213 271.5 L 214 275 L 210.5 275 L 204 269.5 L 202 261 L 204.5 260 Z M 204 262 L 206 270 L 211 273 L 212 266 Q 210 261 204 262 Z "></path><path d="M 250.5 262 Q 253.8 260.9 253 263.5 Q 254.3 266.3 259.5 265 L 263 267.5 L 264 272.5 L 263 275 L 259.5 273 L 255.5 273 L 251 269.5 L 249 263.5 L 250.5 262 Z M 252 264 L 252 269 L 255 271 Q 260 270 262 273 L 263 273 L 261 269 Q 260 266 256 267 L 252 264 Z "></path><path d="M 70.5 267 L 72 270.5 L 70 270.5 L 72.5 276 L 75 277.5 L 76.5 280 L 78 279.5 L 78 277.5 L 79 274.5 Q 77.7 271.3 73 271.5 L 77.5 271 Q 80.8 271.8 80 276.5 L 79 279.5 L 80 282 Q 76.2 283 75 280.5 L 74 277 Q 70.3 278.5 71 275.5 Q 67.7 274.3 69 268.5 L 70.5 267 Z "></path><path d="M 160 267 Q 162.7 265.9 162 268.5 L 161 274 L 167 274 L 167 276 Q 169.7 274.9 169 277.5 L 171 276.5 Q 171.8 271.8 168.5 271 L 163 267.5 L 164.5 267 L 172 272.5 L 173 276.5 L 171 281 Q 166.5 282.8 168 277.5 L 163.5 275 L 161.5 276 L 160 274.5 L 160 267 Z "></path><path d="M 193.5 283 Q 195.8 282.3 195 284.5 L 204 288 L 207 296.5 L 203.5 298 L 193 291.5 L 192 284.5 L 193.5 283 Z M 194 287 Q 193 291 197 293 Q 202 291 201 295 L 204 296 L 203 289 L 200 288 L 198 288 L 194 287 Z "></path><path d="M 96 286 Q 99.7 284.5 99 287.5 L 100.5 289 Q 107.3 288.1 110 290 L 112 297.5 L 108.5 299 Q 107 295.5 100.5 297 L 97 293.5 L 96 286 Z M 98 288 L 98 293 L 102 295 L 106 295 L 110 297 Q 110 292 107 290 L 105 291 Q 99 292 98 288 Z "></path><path d="M 103.5 313 L 104 315 L 102 314.5 L 103.5 313 Z "></path><path d="M 141.5 314 L 145 315.5 Q 147.1 321.4 142.5 320 L 139 318 L 141.5 314 Z "></path><path d="M 220.5 316 Q 224.3 315.3 225 317.5 L 226 320.5 L 223.5 324 L 219.5 325 Q 215.9 322.9 216 318 L 220.5 316 Z M 220 319 L 220 323 Q 224 325 223 321 L 220 319 Z "></path><path d="M 255.5 316 Q 258.1 315.3 257 318 L 252 320 L 248.5 326 L 245.5 326 Q 246.5 329 241.5 328 L 239 329 L 237 325.5 Q 244.6 324.6 248 319.5 Q 247.1 316.5 251.5 318 L 255.5 316 Z "></path><path d="M 139.5 321 L 145 322 Q 146.8 326.5 141.5 325 L 137 323.5 L 139.5 321 Z "></path><path d="M 286.5 326 L 287 327.5 Q 283.1 329.6 284 335 Q 281 336.3 282 332.5 L 286.5 326 Z "></path><path d="M 280.5 327 Q 283.2 328.3 281 329.5 L 279.5 335 L 279 331.5 L 280 329.5 L 278 329.5 Q 277.3 327.3 279.5 328 L 280.5 327 Z "></path><path d="M 288 327 L 290 327.5 L 288 329.5 L 285.5 339 L 284 336.5 L 288 327 Z "></path><path d="M 306.5 327 L 309 327.5 L 306.5 328 L 306.5 327 Z "></path><path d="M 314.5 328 L 315.5 330 L 307 331 Q 305.9 327.5 313.5 329 L 314.5 328 Z "></path><path d="M 113.5 329 Q 116.5 328.2 115 332 L 110 333 Q 108.9 330.3 111.5 331 L 113.5 329 Z "></path><path d="M 270.5 329 L 271 330.5 L 268 332 L 268.5 330 L 270 330.5 L 270.5 329 Z "></path><path d="M 291.5 331 L 292 332.5 L 289.5 340 L 288 337.5 L 291.5 331 Z "></path><path d="M 315.5 331 L 316 333 L 310.5 334 L 304.5 339 L 302.5 339 L 303.5 337 L 315.5 331 Z "></path><path d="M 276 332 Q 278.7 330.9 278 333.5 L 275.5 337 L 275 334.5 L 276 332 Z "></path><path d="M 295.5 332 L 295 333.5 L 292.5 338 L 292 335.5 L 295.5 332 Z "></path><path d="M 297.5 333 L 298 334.5 L 297 336.5 L 299 336.5 L 297.5 346 Q 295 345 296 340.5 L 297 337.5 L 296 337.5 L 295.5 339 L 295 336.5 L 297.5 333 Z "></path><path d="M 302 333 Q 305 332 304 335 Q 301 336 302 333 Z "></path><path d="M 325.5 333 L 328 333.5 Q 325.9 336.8 325.5 333 Z "></path><path d="M 220.5 334 L 222 340 L 220 340 L 220.5 334 Z "></path><path d="M 223.5 334 L 225 338.5 L 223 337.5 L 223.5 334 Z "></path><path d="M 229.5 334 L 232 337.5 L 229 335.5 L 229.5 334 Z "></path><path d="M 232.5 334 L 235 335.5 L 233.5 336 L 232.5 334 Z "></path><path d="M 322.5 334 L 324 334.5 L 308.5 346 L 308 343.5 Q 313.8 337.3 322.5 334 Z "></path><path d="M 226 335 Q 228.7 333.9 228 336.5 L 229 339 Q 226.3 340.1 227 337.5 L 226 335 Z "></path><path d="M 17.5 336 Q 21.3 335 20 338 L 15 337.5 L 17.5 336 Z "></path><path d="M 132 337 Q 136.5 335.5 135 340 L 133 340.5 L 135 341 Q 136.3 344 132.5 343 L 131 340 L 133 339.5 L 132 337 Z "></path><path d="M 126.5 338 L 129 338.5 Q 126.9 341.8 126.5 338 Z "></path><path d="M 280 338 L 283 339.5 L 281.5 342 L 280 338 Z "></path><path d="M 277.5 339 L 279 342.5 L 277 341.5 L 277.5 339 Z "></path><path d="M 300 340 L 302 340.5 L 300 348.5 L 301 350.5 L 300 354.5 L 302 353.5 L 302.5 347 L 304 358.5 Q 302.5 361.5 301 358.5 L 301 356 Q 298.3 357.1 299 354.5 L 298 349.5 L 300 340 Z "></path><path d="M 330.5 340 L 331.5 342 L 325.5 342 L 317.5 345 L 318 343.5 L 317.5 342 L 315.5 343 L 315.5 342 L 319 341 L 319.5 343 L 322.5 341 Q 328.8 342.8 330.5 340 Z "></path><path d="M 294.5 342 L 295 345.5 L 294 345.5 L 294.5 342 Z "></path><path d="M 132 344 Q 134.7 342.9 134 345.5 L 136 351 L 131 347.5 L 132 344 Z "></path><path d="M 219 344 L 221 344.5 L 219 345.5 L 219 344 Z "></path><path d="M 222.5 344 L 225 345 L 226 348.5 L 223.5 347 Q 220.4 347.7 222.5 344 Z "></path><path d="M 232.5 344 L 234 346.5 L 232 345.5 L 232.5 344 Z "></path><path d="M 235 344 Q 238 342.8 237 346.5 L 235 345.5 L 235 344 Z "></path><path d="M 239 344 Q 242 343 241 346 Q 238 347 239 344 Z "></path><path d="M 315.5 344 L 316 346 L 313 345.5 L 315.5 344 Z "></path><path d="M 327.5 344 L 332 344.5 L 326 346.5 L 327 350 L 320.5 351 L 319 352.5 L 313.5 359 L 310 360 Q 308.9 357.3 311.5 358 L 316 354.5 L 318.5 350 L 324 349 Q 321.9 343.8 326.5 345 L 327.5 344 Z "></path><path d="M 284.5 345 Q 287.1 344.2 286 347.5 L 287 350 Q 283.7 351.3 285 346.5 L 284.5 345 Z "></path><path d="M 282.5 346 L 284 350.5 L 282 350.5 L 281.5 352 L 279 347 Q 282 345.8 281 349.5 L 282 349.5 L 282.5 346 Z "></path><path d="M 261.5 349 L 262 351.5 L 259 353 L 258 350.5 L 259.5 350 L 261 350.5 L 261.5 349 Z "></path><path d="M 290.5 349 L 292 352 Q 288.5 353.1 290.5 349 Z "></path><path d="M 227 350 Q 230.3 348.7 229 353.5 L 228 353.5 L 227 350 Z "></path><path d="M 242 350 Q 245 349 244 352 Q 241 353 242 350 Z "></path><path d="M 263 350 Q 265.7 348.9 265 351.5 L 263 352.5 L 263 350 Z "></path><path d="M 252 351 L 257 352 Q 258.1 354.7 255.5 354 L 252 353 L 252 351 Z "></path><path d="M 44 352 Q 47 351 46 354 Q 43 355 44 352 Z "></path><path d="M 47 352 Q 49.7 350.9 49 353.5 L 47 354.5 L 47 352 Z "></path><path d="M 63.5 352 L 71.5 352 L 78.5 354 L 82 353 L 81.5 355 L 73.5 355 Q 70.2 352.3 63.5 353 L 63.5 352 Z "></path><path d="M 130 352 L 134 354.5 L 134 356 L 132 356 Q 133.1 358.7 130.5 358 L 128 354 Q 131 355 130 352 Z "></path><path d="M 230 352 Q 233 351 232 354 Q 229 355 230 352 Z "></path><path d="M 305.5 352 L 306 358 Q 309.3 356.7 308 361.5 L 309.5 365 L 310 363 Q 313 361.8 312 365.5 L 313 369 Q 317.1 367.3 316 371.5 L 321.5 382 L 323 382.5 L 323 391.5 L 322 391.5 L 322 387.5 Q 318.3 383.5 318 377 Q 315.3 378.1 316 375.5 L 310.5 365 L 308 366 L 304 354.5 L 305.5 352 Z "></path><path d="M 51.5 353 L 52 355 L 50 354.5 L 51.5 353 Z "></path><path d="M 224.5 353 L 225 355.5 L 223 354.5 L 224.5 353 Z "></path><path d="M 235.5 353 L 237.5 353 Q 240.1 352.3 239 355 L 235 356 L 235.5 353 Z "></path><path d="M 322.5 353 L 324.5 353 Q 326.8 352.3 326 354.5 L 323.5 356 L 322.5 353 Z "></path><path d="M 137 354 Q 140.3 352.9 139 357 Q 135.7 358.1 137 354 Z "></path><path d="M 274.5 354 L 276 356.5 L 274 355.5 L 274.5 354 Z "></path><path d="M 328 354 Q 331 353 330 356 Q 327 357 328 354 Z "></path><path d="M 61.5 355 L 64.5 357 L 65.5 355 L 70 358.5 L 72 362.5 L 73 374.5 L 70 379.5 L 71 381.5 Q 68.4 382.9 69 387.5 L 71.5 391 L 73 387 L 77.5 385 L 81.5 386 L 85 384 Q 84 381 87 382 L 84.5 386 Q 82.8 388.8 77.5 388 L 73 392.5 L 87.5 393 L 89 394.5 L 91 397.5 L 89.5 398 Q 88 393.5 80.5 395 L 78.5 396 L 74.5 395 L 72.5 395 L 67 391.5 L 68 382.5 L 67 380.5 L 70 376 Q 65.9 377.7 67 373.5 Q 71.3 370.3 70 361.5 L 68 358 L 66 358.5 L 68 362.5 L 61 376.5 L 60 385.5 L 63 393.5 L 67.5 398 L 75.5 401 L 81.5 401 L 87 404 L 88 408 L 82.5 406 L 79 408 L 81 404.5 Q 79.8 401.7 78.5 404 Q 73.3 404.2 71.5 401 L 67 401 L 65 407.5 L 65 413.5 L 60.5 419 L 56 421 L 54 442 L 63.5 443 L 65 439.5 Q 63.7 436.8 62.5 439 Q 56.8 440.8 59 434.5 L 64.5 424 L 70.5 421 L 73.5 421 L 85 414 L 85 417 Q 87.7 415.9 87 418.5 L 89.5 422 L 98.5 426 L 104 430.5 L 106 435.5 L 105 437.5 L 111.5 442 L 115.5 442 L 124 439 L 122.5 442 L 110 444 Q 111.3 441 107.5 442 L 104 439.5 L 104 436.5 L 100.5 429 Q 91.1 426.9 86 420.5 L 83.5 417 L 75.5 422 L 65 425 L 61 433.5 L 61 436.5 L 62.5 436 L 66 437 L 67 441.5 L 66 444 Q 63.6 445.8 57.5 445 L 52 442.5 L 54 421.5 L 57.5 418 L 62 416 L 64 403.5 L 66 399.5 L 61 394.5 L 61 391.5 L 58 385.5 L 58 377.5 L 64 365.5 L 64 362.5 L 60 360 Q 58.9 357.3 61.5 358 L 61 356.5 L 61.5 355 Z "></path><path d="M 244 355 L 247 356.5 Q 247.8 358.8 245.5 358 L 244 357.5 Q 244.8 359.8 242.5 359 L 240.5 359 Q 237.9 359.7 239 357 L 242.5 356 L 244 356.5 L 244 355 Z "></path><path d="M 253.5 355 Q 257.3 354.3 258 356.5 L 255.5 357 L 253.5 355 Z "></path><path d="M 84.5 356 L 86 358.5 L 84 357.5 L 84.5 356 Z "></path><path d="M 278.5 356 L 284 359.5 L 282.5 360 L 278 357.5 L 278.5 356 Z "></path><path d="M 318.5 356 L 320 359 L 317 357.5 L 318.5 356 Z "></path><path d="M 263 357 L 269 357 L 269 359 L 264.5 358 L 263 358.5 L 263 357 Z "></path><path d="M 273.5 357 L 278 360.5 L 279.5 363 L 281 363.5 L 278.5 364 L 274 361.5 L 273.5 357 Z "></path><path d="M 32.5 358 L 33 361 Q 28.9 362.3 30 359 L 32.5 358 Z "></path><path d="M 77 358 Q 80.4 357.3 81.5 360 L 83 359.5 Q 83.8 361.8 81.5 361 L 79.5 361 L 77 359.5 L 77 358 Z "></path><path d="M 136.5 358 L 138 361 Q 134.5 362.1 136.5 358 Z "></path><path d="M 258.5 358 Q 261.8 356.9 261 359.5 L 259.5 359 L 258.5 358 Z "></path><path d="M 92 359 Q 94.7 357.9 94 360.5 L 92 361.5 L 92 359 Z "></path><path d="M 127 359 L 130 360.5 L 129.5 363 L 127 359 Z "></path><path d="M 44 360 Q 48.1 358.7 47 362 Q 42.9 363.3 44 360 Z "></path><path d="M 73.5 360 Q 75.8 359.3 75 361.5 L 73.5 360 Z "></path><path d="M 250 360 Q 253 359 252 362 Q 249 363 250 360 Z "></path><path d="M 289.5 360 L 292 363.5 L 289 361.5 L 289.5 360 Z "></path><path d="M 292.5 360 L 295 361.5 L 293 362.5 L 292.5 360 Z "></path><path d="M 240.5 361 Q 243.1 360.3 242 363 L 239.5 364 L 239 362.5 L 240.5 361 Z "></path><path d="M 315.5 361 Q 317.8 360.3 317 362.5 L 315.5 361 Z "></path><path d="M 328.5 361 L 330 364.5 L 327 362.5 L 328.5 361 Z "></path><path d="M 135 362 Q 138 361 137 364 Q 134 365 135 362 Z "></path><path d="M 142.5 362 Q 145.8 360.9 145 363.5 L 145 365.5 Q 145.7 368.1 143 367 Q 144.5 363.3 141.5 364 L 142.5 362 Z "></path><path d="M 246 362 Q 249 361 248 364 Q 245 365 246 362 Z "></path><path d="M 261.5 362 Q 264.8 360.9 264 363.5 L 262.5 363 L 261.5 362 Z "></path><path d="M 267.5 362 L 272 364 L 271.5 366 L 267 363.5 L 267.5 362 Z "></path><path d="M 324.5 362 L 325.5 364 Q 322.7 364.7 324.5 362 Z "></path><path d="M 57 363 Q 60 362 59 365 Q 56 366 57 363 Z "></path><path d="M 235.5 363 Q 237.8 362.3 237 364.5 L 235.5 363 Z "></path><path d="M 258.5 363 Q 261.1 362.3 260 365 L 257.5 366 L 256.5 364 L 258.5 363 Z "></path><path d="M 15 364 Q 19.1 362.7 18 366 Q 13.9 367.3 15 364 Z "></path><path d="M 20.5 364 L 21 366 L 19 365.5 L 20.5 364 Z "></path><path d="M 265.5 364 L 268 367.5 L 265.5 366 L 264 365.5 L 265.5 364 Z "></path><path d="M 273 364 L 275 364.5 L 273 365.5 L 273 364 Z "></path><path d="M 78.5 365 Q 81.1 364.3 80 367 L 77.5 368 L 76.5 366 L 78.5 365 Z "></path><path d="M 120 365 L 123 366.5 L 124 370 L 120.5 371 L 118 367 Q 121 368 120 365 Z "></path><path d="M 134 365 Q 136.7 363.9 136 366.5 L 134 367.5 L 134 365 Z "></path><path d="M 278.5 365 L 286 367 Q 284.3 371.1 288.5 370 L 291 371 Q 292.1 373.7 289.5 373 L 289.5 374 L 293 374.5 L 287.5 375 L 286 372.5 L 286.5 371 L 284 369.5 Q 284.8 366.9 281.5 368 L 278.5 365 Z "></path><path d="M 253 366 L 256 367.5 L 251.5 370 L 250 367.5 L 251.5 367 L 253 367.5 L 253 366 Z "></path><path d="M 129 367 L 133 369.5 Q 131 373 129 368.5 L 129 367 Z "></path><path d="M 263.5 368 Q 265.8 367.3 265 369.5 L 263.5 368 Z "></path><path d="M 293.5 368 L 297 372.5 L 293 369.5 L 293.5 368 Z "></path><path d="M 297.5 368 Q 299.8 367.3 299 369.5 L 300.5 369 Q 302.8 368.3 302 370.5 L 299.5 371 Q 297.3 371.8 298 369.5 L 297.5 368 Z "></path><path d="M 49 369 L 51 369.5 L 49 370.5 L 49 369 Z "></path><path d="M 54 369 Q 57 368 56 371 Q 53 372 54 369 Z "></path><path d="M 116.5 369 L 119 373 L 115 370.5 L 116.5 369 Z "></path><path d="M 143.5 369 L 144 371 L 142 370.5 L 143.5 369 Z "></path><path d="M 276.5 369 L 283 371.5 L 281.5 372 L 279.5 372 L 276 371 L 276.5 369 Z "></path><path d="M 307.5 369 L 308 371 Q 311 370 310 373 Q 307.3 374.1 308 371.5 L 307.5 369 Z "></path><path d="M 318.5 369 L 322 370.5 L 319.5 372 L 318.5 369 Z "></path><path d="M 79.5 370 L 81 372.5 L 79 371.5 L 79.5 370 Z "></path><path d="M 82.5 370 L 83.5 372 Q 80.7 372.7 82.5 370 Z "></path><path d="M 86 370 L 88 370.5 L 86 371.5 L 86 370 Z "></path><path d="M 272.5 370 L 275 371 Q 276 374 273 373 L 272.5 370 Z "></path><path d="M 29.5 372 L 30 374.5 L 28 373.5 L 29.5 372 Z "></path><path d="M 36 372 Q 39 371 38 374 Q 35 375 36 372 Z "></path><path d="M 128 372 Q 131 371 130 374 Q 127 375 128 372 Z "></path><path d="M 136 372 L 140 374.5 Q 141 378.3 138 377 L 136 372 Z "></path><path d="M 144.5 372 L 146 375 L 149 376.5 L 147 377.5 L 150 381.5 L 150 385.5 L 154 395 Q 151.3 396.1 152 393.5 L 145 376.5 L 144.5 372 Z "></path><path d="M 31 373 Q 34 372 33 375 Q 30 376 31 373 Z "></path><path d="M 111.5 373 L 115 375.5 Q 113.3 378.8 111.5 375 L 110 374.5 L 111.5 373 Z "></path><path d="M 149.5 374 Q 152.1 373.3 151 376 L 153 376 L 153 379 L 150 377.5 L 149.5 374 Z "></path><path d="M 86.5 375 L 87.5 377 Q 84.7 377.7 86.5 375 Z "></path><path d="M 126 375 L 129 376.5 L 128.5 378 L 126 377 L 126 375 Z "></path><path d="M 133.5 375 Q 137 376.3 136 381 L 134 381 Q 135.3 385.1 132 384 L 131 379.5 L 134 380.5 L 133.5 375 Z "></path><path d="M 279.5 375 L 282 376.5 L 283 379.5 L 280 377.5 L 279.5 375 Z "></path><path d="M 283.5 375 L 286 376 L 285.5 378 L 283 377 L 283.5 375 Z "></path><path d="M 83.5 376 Q 85.8 375.3 85 377.5 L 83.5 376 Z "></path><path d="M 290.5 376 L 297 379 Q 295.5 382.8 298.5 382 L 298.5 383 L 293 380.5 Q 293.8 378.3 291.5 379 L 290.5 376 Z "></path><path d="M 74 377 Q 77.3 375.9 76 380 Q 72.7 381.1 74 377 Z "></path><path d="M 109 377 L 112 378.5 Q 112.8 380.8 110.5 380 L 109 377 Z "></path><path d="M 297.5 377 Q 299.8 376.3 299 378.5 L 297.5 377 Z "></path><path d="M 322.5 377 L 323 379 L 321 378.5 L 322.5 377 Z "></path><path d="M 51.5 378 L 52 380.5 L 50 379.5 L 51.5 378 Z "></path><path d="M 314.5 378 Q 317.5 378.5 317 382.5 L 315 381.5 L 314.5 378 Z "></path><path d="M 44.5 379 L 48 380.5 L 44 381 L 44.5 379 Z "></path><path d="M 106 380 L 110 382.5 Q 110.8 384.8 108.5 384 L 106.5 385 L 105 384.5 L 104.5 387 L 102 386 L 102.5 383 L 104.5 384 L 104.5 382 Q 107.1 382.7 106 380 Z "></path><path d="M 285.5 380 L 287.5 381 L 289 380.5 L 288 383 L 285 381.5 L 285.5 380 Z "></path><path d="M 120 381 L 123 382.5 Q 121.5 385.5 120 382.5 L 120 381 Z "></path><path d="M 153 381 Q 155.7 379.9 155 382.5 L 157 386 Q 160.3 384.7 159 389.5 L 158 389.5 L 157.5 387 Q 156 389.5 154.5 386 L 153 386 L 153 381 Z "></path><path d="M 304.5 381 L 306.5 384 L 307 382 Q 310 381 309 384 L 311.5 384 L 313 387.5 L 309.5 385 L 306.5 386 Q 302.8 384.2 304.5 381 Z "></path><path d="M 74 382 Q 77 381 76 384 Q 73 385 74 382 Z "></path><path d="M 236.5 382 Q 235.5 390 240.5 392 Q 247.4 397.6 259 398.5 L 255.5 400 L 245.5 397 L 237.5 391 L 237 392.5 L 239 395.5 L 240 405.5 L 242 408.5 L 240 408.5 L 242 414.5 L 240.5 418 L 239 415.5 L 239 413.5 Q 240 408.5 237 407.5 L 239 407 L 237 400.5 L 237 398.5 L 235 391.5 L 236 388.5 L 235 383.5 L 236.5 382 Z "></path><path d="M 24.5 383 L 26 386 Q 22.5 387.1 24.5 383 Z "></path><path d="M 27.5 383 L 29 386 Q 25.5 387.1 27.5 383 Z "></path><path d="M 129 383 Q 132 381.8 131 385.5 L 129 384.5 L 129 383 Z "></path><path d="M 138.5 383 L 140 385.5 L 139.5 387 L 141 387 L 141 389 Q 143.7 387.9 143 390.5 L 142 393 Q 144.7 391.9 144 394.5 L 143 397.5 L 144 401 Q 147.8 399.5 147 402.5 L 149 407 L 155 409.5 L 157.5 413 Q 164 414 166 410.5 L 164.5 408 Q 159.1 408.6 157 407 L 153 396 Q 156 394.8 155 398.5 L 158 405 Q 160.4 406.8 166.5 406 L 168 407.5 L 167 414 Q 164.3 415.9 157.5 415 L 149 408.5 Q 149.8 406.3 147.5 407 L 146 404 Q 141.9 405.7 143 401.5 L 139.5 395 L 138.5 398 L 137 395 Q 139.7 396.1 139 393.5 L 138 390.5 L 139 387.5 L 138 387.5 L 135 393 L 128 395 L 129 404.5 L 127.5 411 L 127 409 Q 124 410.3 125 406.5 Q 127.8 405.8 127 401.5 L 124.5 396 Q 117.5 397.5 118 394.5 L 121 392.5 Q 120.4 395.3 126.5 394 L 135 388.5 L 138.5 383 Z "></path><path d="M 33.5 384 L 34 385.5 L 32 386.5 L 33.5 384 Z "></path><path d="M 117.5 384 Q 121.3 383 120 386 L 117.5 384 Z "></path><path d="M 290.5 384 L 294 386 L 297 390.5 L 295.5 391 L 293 387 L 290 385.5 L 290.5 384 Z "></path><path d="M 296.5 384 Q 301.5 383.5 302 387.5 L 304 390.5 L 302.5 391 L 297.5 385 L 296.5 384 Z "></path><path d="M 13.5 385 Q 15.8 384.3 15 386.5 L 13.5 385 Z "></path><path d="M 329 385 L 331.5 386 L 333 385.5 L 332.5 388 L 329 387 L 329 385 Z "></path><path d="M 100.5 386 L 104 388.5 L 103.5 390 L 105 390.5 Q 103.8 393.3 102.5 391 L 101 390.5 L 102 388 L 99 387.5 L 100.5 386 Z "></path><path d="M 125 386 Q 128.3 384.9 127 389 Q 123.7 390.1 125 386 Z "></path><path d="M 49.5 387 L 50.5 389 L 48 388.5 L 49.5 387 Z "></path><path d="M 163 387 Q 166 386 165 389 Q 162 390 163 387 Z "></path><path d="M 17.5 388 Q 20.5 388.5 20 392.5 L 18.5 392 Q 15 392.8 17.5 388 Z "></path><path d="M 269.5 388 L 268.5 390 L 266.5 391 L 267.5 389 L 269.5 388 Z "></path><path d="M 316.5 388 L 318 391.5 L 317 391.5 L 316.5 388 Z "></path><path d="M 22.5 389 L 23 392.5 L 22 392.5 L 21 390.5 L 22.5 389 Z "></path><path d="M 168.5 389 L 170 393 Q 167.3 394.1 168 391.5 Q 165.8 390.3 168.5 389 Z "></path><path d="M 175 389 L 179 390 L 177.5 393 L 175 391.5 L 175 389 Z "></path><path d="M 305.5 389 L 309 391 L 308.5 393 L 306.5 392 L 308 394.5 L 307.5 402 Q 307.8 397.8 305 396.5 L 306 394 Q 303.3 395.1 304 392.5 L 305.5 389 Z "></path><path d="M 181 390 Q 184 389 183 392 Q 180 393 181 390 Z "></path><path d="M 200 390 Q 203 388.8 202 392.5 L 200 393.5 L 200 390 Z "></path><path d="M 324.5 390 Q 327.6 391.4 327 396.5 L 325 397.5 L 324.5 395 L 319.5 404 L 319 401.5 L 320.5 394 L 321 396 Q 323.7 397.1 323 394.5 L 324.5 390 Z "></path><path d="M 14.5 391 L 15.5 393 Q 12.7 393.7 14.5 391 Z "></path><path d="M 172 391 L 174 391.5 L 172 392.5 L 172 391 Z "></path><path d="M 204.5 391 L 205 397.5 L 204 402.5 L 200.5 408 L 196.5 410 L 198.5 407 Q 200.8 407.8 200 405.5 L 202 403.5 L 204 393.5 Q 201.8 392.3 204.5 391 Z "></path><path d="M 264.5 391 L 265 392.5 Q 261.4 395.4 263 403.5 L 268.5 412 L 271.5 414 Q 276.7 419.3 286.5 420 L 289 422.5 L 287.5 423 L 283.5 420 L 278.5 420 L 271.5 417 L 264 409.5 L 261 402.5 L 261 397.5 L 264.5 391 Z "></path><path d="M 297.5 392 L 302 395.5 L 300.5 396 L 297.5 392 Z "></path><path d="M 49.5 393 L 51 393.5 L 50 396 Q 47.3 397.1 48 394.5 L 49.5 393 Z "></path><path d="M 43.5 394 L 45 397 Q 41.5 398.1 43.5 394 Z "></path><path d="M 53 394 Q 56 393 55 396 Q 52 397 53 394 Z "></path><path d="M 134 394 Q 136.7 392.9 136 395.5 L 135 400.5 L 137 409 Q 134 410.3 135 406.5 Q 132.2 403.8 133 397.5 L 134 394 Z "></path><path d="M 40 395 L 42 395.5 L 40 396.5 L 40 395 Z "></path><path d="M 102 395 L 109 396 L 114 407.5 L 114 409.5 L 112 427.5 L 113 432 Q 110 433.3 111 429.5 L 109 423.5 Q 112.6 416.6 111 404.5 L 109 398 L 102 397 L 102 395 Z "></path><path d="M 111 395 L 113 395.5 L 111 396.5 L 111 395 Z "></path><path d="M 29.5 396 L 30 398.5 L 28 397.5 L 29.5 396 Z "></path><path d="M 185.5 396 L 187 399.5 L 185 398.5 L 185.5 396 Z "></path><path d="M 213.5 396 Q 215.8 395.3 215 397.5 L 213.5 396 Z "></path><path d="M 240.5 396 L 243 396.5 L 240.5 397 L 240.5 396 Z "></path><path d="M 312.5 396 Q 315 397.2 314 401 L 312 400.5 L 313 398.5 L 312.5 396 Z "></path><path d="M 166 397 L 169 398.5 L 168.5 401 L 166 397 Z "></path><path d="M 189.5 397 L 191 399.5 L 189 400.5 L 189.5 397 Z "></path><path d="M 315.5 397 Q 319.8 398.8 317 400.5 L 316.5 402 Q 313.8 400.8 315.5 397 Z "></path><path d="M 158.5 398 L 162 399.5 L 159.5 400 L 158.5 398 Z "></path><path d="M 170 398 Q 173 397 172 400 Q 169 401 170 398 Z "></path><path d="M 175.5 398 L 176 400.5 L 174 399.5 L 175.5 398 Z "></path><path d="M 227.5 398 L 228 401.5 L 227 406.5 L 229 412.5 L 229 414.5 L 227.5 418 L 225 400.5 L 227.5 398 Z "></path><path d="M 302.5 398 L 305 399.5 Q 305.7 402.1 303 401 L 302.5 398 Z "></path><path d="M 116.5 399 Q 119.5 398.1 118 402.5 L 115.5 403 Q 112.5 403.7 114 400 L 116.5 399 Z "></path><path d="M 121.5 399 L 122 402 L 120 401.5 L 121.5 399 Z "></path><path d="M 241 399 Q 244 397.8 243 401.5 L 241 400.5 L 241 399 Z "></path><path d="M 324.5 399 L 325.5 401 L 327 400.5 L 325 406 Q 322.3 407.1 323 404.5 L 324 402.5 L 323 400.5 L 324.5 399 Z "></path><path d="M 244 400 Q 246.7 398.9 246 401.5 L 244 402.5 L 244 400 Z "></path><path d="M 329.5 400 L 330 402.5 L 329 402.5 L 329.5 400 Z "></path><path d="M 15.5 402 L 16 405 Q 13.3 406.1 14 403.5 L 15.5 402 Z "></path><path d="M 53 402 L 55.5 403 L 57 402.5 Q 58.1 405.8 55.5 405 L 53 404.5 L 53 402 Z "></path><path d="M 229.5 402 L 230 403.5 L 228.5 406 L 228 403.5 L 229.5 402 Z "></path><path d="M 28.5 403 Q 31.5 404.5 28.5 406 L 28.5 403 Z "></path><path d="M 60.5 403 L 61.5 405 Q 58.7 405.7 60.5 403 Z "></path><path d="M 37.5 404 L 39.5 405 L 42 404 Q 43.3 407.3 38.5 406 L 37.5 404 Z "></path><path d="M 219.5 404 L 222 410 Q 225.3 408.9 224 413 L 219.5 412 L 217 413 L 219.5 404 Z "></path><path d="M 182.5 405 L 184 405.5 L 183 410 L 179 412 L 179.5 409 L 181 409.5 Q 180.3 405.8 182.5 405 Z "></path><path d="M 139 406 Q 142.3 404.9 141 409 Q 137.7 410.1 139 406 Z "></path><path d="M 231.5 406 L 232 410 Q 229 411.3 230 407.5 L 231.5 406 Z "></path><path d="M 247.5 406 L 249 409 Q 245.5 410.1 247.5 406 Z "></path><path d="M 250.5 406 L 253.5 407 L 255 406.5 L 254.5 409 L 253 408.5 Q 253.8 410.8 251.5 410 Q 249 409 250.5 406 Z "></path><path d="M 142 407 Q 144.7 405.9 144 408.5 L 142 409.5 L 142 407 Z "></path><path d="M 118 408 L 121 409.5 L 118 410 L 118 408 Z "></path><path d="M 322.5 408 L 317.5 414 L 311.5 415 L 307 413 Q 305.9 410.3 308.5 411 Q 309.5 414 314.5 413 L 322.5 408 Z "></path><path d="M 17.5 409 Q 20.5 410.5 17.5 412 L 17.5 409 Z "></path><path d="M 327.5 409 L 328 411.5 L 327 411.5 L 327.5 409 Z "></path><path d="M 329.5 409 L 330 411.5 L 329 411.5 L 329.5 409 Z "></path><path d="M 131.5 410 L 135 410.5 Q 134.3 412.8 130.5 412 L 131.5 410 Z "></path><path d="M 194.5 410 L 195 411.5 L 191.5 414 L 192 412.5 Q 191.3 410.3 193.5 411 L 194.5 410 Z "></path><path d="M 47.5 411 L 49 414 Q 45.5 415.1 47.5 411 Z "></path><path d="M 52.5 411 L 53 413.5 L 51 412.5 L 52.5 411 Z "></path><path d="M 26 412 Q 29 411 28 414 Q 25 415 26 412 Z "></path><path d="M 44.5 412 Q 46.8 411.3 46 413.5 L 44.5 412 Z "></path><path d="M 214 412 Q 216.7 410.9 216 413.5 L 214 414.5 L 214 412 Z "></path><path d="M 232.5 412 L 233 414.5 L 231 413.5 L 232.5 412 Z "></path><path d="M 243 412 Q 246.7 410.5 246 413.5 L 243 413.5 L 243 412 Z "></path><path d="M 303 412 L 305 412.5 L 303 414.5 L 303 424.5 Q 307 425.9 306 431 L 302 430.5 L 304 427.5 L 302 425.5 Q 303.3 420.8 301 419.5 L 303 412 Z "></path><path d="M 36.5 413 Q 38.8 412.3 38 414.5 L 36.5 413 Z "></path><path d="M 141.5 413 Q 144.3 414.3 142 415.5 L 141.5 417 L 141.5 413 Z "></path><path d="M 17.5 414 Q 20.1 413.2 19 416.5 L 18 416.5 L 17.5 414 Z "></path><path d="M 130.5 414 L 131 416.5 L 129 415.5 L 130.5 414 Z "></path><path d="M 169.5 414 L 172 415 L 174 419 Q 166.3 421.5 169.5 414 Z "></path><path d="M 176.5 414 Q 179.5 415.5 176.5 417 L 176.5 414 Z "></path><path d="M 203.5 414 L 204.5 416 L 206 415.5 L 205 420.5 L 206 422.5 L 204.5 422 L 203 422 Q 204.5 425.8 201.5 425 L 200 425.5 L 203.5 414 Z "></path><path d="M 253.5 414 L 254 416.5 L 252.5 419 L 251 416.5 L 253 416.5 L 253.5 414 Z "></path><path d="M 256.5 414 L 257 416.5 L 256 416.5 L 256.5 414 Z "></path><path d="M 322 414 Q 325 413 324 416 Q 321 417 322 414 Z "></path><path d="M 330 414 L 332 414.5 L 330 415.5 L 330 414 Z "></path><path d="M 121.5 415 L 123 419 Q 119.2 420.2 121.5 415 Z "></path><path d="M 135.5 415 L 139 416.5 L 135 418 L 135.5 415 Z "></path><path d="M 147.5 415 L 148 417.5 L 146 416.5 L 147.5 415 Z "></path><path d="M 209 415 L 213 416.5 L 209 418 L 209 415 Z "></path><path d="M 259.5 415 Q 264.3 413.7 263 417 Q 259.2 417.8 259.5 415 Z "></path><path d="M 149.5 416 Q 152.5 417.5 149.5 419 L 149.5 416 Z "></path><path d="M 114 417 L 118 418.5 Q 118.8 420.8 116.5 420 L 115 420.5 L 114 417 Z "></path><path d="M 166.5 418 L 167.5 420 Q 164.7 420.7 166.5 418 Z "></path><path d="M 184.5 418 L 186 418.5 L 182.5 420 L 182.5 419 L 184.5 418 Z "></path><path d="M 206 418 Q 209 416.8 208 420.5 L 206 419.5 L 206 418 Z "></path><path d="M 234.5 418 L 235 421.5 L 233 420.5 L 234.5 418 Z "></path><path d="M 318.5 418 L 319 420 Q 324.2 418.3 323 422 L 320.5 421 L 319 421.5 L 318.5 418 Z "></path><path d="M 221.5 419 Q 224.1 418.3 223 421 L 214 422 L 214.5 424 L 216.5 424 L 220 425.5 L 216.5 427 L 213.5 426 L 211 427 L 210 423.5 L 213.5 420 Q 219.8 421.8 221.5 419 Z "></path><path d="M 224 419 Q 227 418 226 421 Q 223 422 224 419 Z "></path><path d="M 20.5 420 L 21 422.5 L 20 422.5 L 20.5 420 Z "></path><path d="M 47 420 Q 50 419 49 422 Q 46 423 47 420 Z "></path><path d="M 141 420 Q 144 419 143 422 Q 140 423 141 420 Z "></path><path d="M 144 420 Q 147 419 146 422 Q 143 423 144 420 Z "></path><path d="M 180.5 420 L 181 422 L 176 424 L 173.5 430 L 172 429.5 L 178.5 421 L 180.5 420 Z "></path><path d="M 239.5 420 L 242 427 Q 238.7 428.3 240 423.5 L 239.5 420 Z "></path><path d="M 267 420 Q 270 419 269 422 Q 266 423 267 420 Z "></path><path d="M 325.5 420 L 326 422 L 324 421.5 L 325.5 420 Z "></path><path d="M 31 421 Q 34 419.8 33 423.5 L 31 422.5 L 31 421 Z "></path><path d="M 34.5 421 L 36 423.5 L 34 424 L 34.5 421 Z "></path><path d="M 41 421 Q 46.2 418.9 45 423.5 L 43.5 423 Q 39.8 424 41 421 Z "></path><path d="M 81 421 Q 84.3 419.9 83 424 Q 79.7 425.1 81 421 Z "></path><path d="M 120.5 421 L 121 427 Q 117.7 428.3 119 423.5 L 120.5 421 Z "></path><path d="M 125.5 421 L 126 426.5 L 124 427.5 Q 122.8 422.3 125.5 421 Z "></path><path d="M 132.5 421 L 134 421.5 L 132 422 L 131.5 424 L 130.5 422 L 132.5 421 Z "></path><path d="M 156.5 421 Q 159.8 422.8 156 424.5 L 157 429 Q 154 430 155 427 L 152 427 L 152 424 L 154.5 425 L 156.5 421 Z "></path><path d="M 244.5 421 L 245 423.5 L 244 423.5 L 244.5 421 Z "></path><path d="M 23.5 422 L 24 424.5 L 23 424.5 L 23.5 422 Z "></path><path d="M 165.5 422 L 166 424.5 L 165 424.5 L 165.5 422 Z "></path><path d="M 246 422 Q 249 420.8 248 424.5 L 246 423.5 L 246 422 Z "></path><path d="M 160 423 Q 162.7 421.9 162 424.5 L 164 424.5 L 164 426 L 160 426 L 160 423 Z "></path><path d="M 250.5 423 Q 252.8 422.3 252 424.5 L 250.5 423 Z "></path><path d="M 116 424 Q 119.3 422.7 118 427.5 L 116 426.5 L 116 424 Z "></path><path d="M 149 424 Q 152 422.8 151 426.5 L 149 425.5 L 149 424 Z "></path><path d="M 269.5 424 L 274.5 425 L 277.5 424 L 286 424.5 L 282.5 426 L 280.5 426 L 278.5 425 L 277.5 426 L 267.5 426 L 265 428.5 L 265.5 432 L 270 430 Q 268.9 432.7 271.5 432 L 275 430 Q 276.3 433 272.5 432 L 269.5 434 L 263.5 435 L 263 432.5 L 261 428.5 L 269.5 424 Z "></path><path d="M 308 424 L 312 424.5 L 308 426 L 308 424 Z "></path><path d="M 144 425 L 147 426.5 Q 145.5 429.5 144 426.5 L 144 425 Z "></path><path d="M 80.5 426 L 81 429.5 L 80 429.5 L 79 427.5 L 80.5 426 Z "></path><path d="M 327 426 L 329 426.5 L 327 427.5 L 327 426 Z "></path><path d="M 43.5 427 L 44 429 L 42 428.5 L 43.5 427 Z "></path><path d="M 82.5 427 L 86 428 L 85.5 431 L 82 429 L 82.5 427 Z "></path><path d="M 131.5 428 L 132 429.5 L 130 430.5 L 131.5 428 Z "></path><path d="M 162.5 428 L 163 431 Q 160.3 429.9 161 432.5 L 159 437.5 L 160 442 Q 156.2 443.5 157 440.5 Q 159.8 438.7 158 432.5 L 160.5 429 L 162.5 428 Z "></path><path d="M 222.5 428 Q 225.1 427.3 224 430 L 220 431.5 L 220.5 433 L 222 432.5 Q 221.4 435.3 227.5 434 L 230.5 435 L 233.5 433 L 235.5 433 L 241.5 429 L 236.5 435 L 229.5 437 L 226.5 435 L 224.5 436 L 222.5 436 L 221 435.5 L 221.5 434 L 217.5 435 L 215 434 Q 213.9 431.3 216.5 432 L 222.5 428 Z "></path><path d="M 38 429 Q 41 428 40 431 Q 37 432 38 429 Z "></path><path d="M 182.5 429 L 189 430 L 188.5 432 L 186 431 L 185 435 L 180.5 436 L 178 435 L 178.5 432 L 179 434 L 182.5 435 L 184 431 L 180.5 432 L 182.5 429 Z "></path><path d="M 203.5 429 L 204 433.5 L 203 433.5 L 202 431.5 L 203.5 429 Z "></path><path d="M 244 429 Q 246.7 427.9 246 430.5 L 247 434 L 244 434 L 244 429 Z "></path><path d="M 313.5 429 Q 315.8 428.3 315 430.5 L 313.5 429 Z "></path><path d="M 75.5 430 L 76 432.5 L 75 432.5 L 75.5 430 Z "></path><path d="M 90 430 L 92 430.5 L 90 431.5 L 90 430 Z "></path><path d="M 145 430 L 147 430.5 L 145 431.5 L 145 430 Z "></path><path d="M 254.5 430 L 256 433 Q 252.5 434.1 254.5 430 Z "></path><path d="M 257.5 430 L 258.5 432 Q 255.7 432.7 257.5 430 Z "></path><path d="M 278.5 430 Q 287.5 429 293 431.5 L 283.5 432 L 278.5 431 L 278.5 430 Z "></path><path d="M 296 430 L 300 430 L 300 431.5 L 298.5 431 L 296.5 432 L 296 430 Z "></path><path d="M 19 431 Q 22 430 21 433 Q 18 434 19 431 Z "></path><path d="M 32.5 431 Q 34.8 430.3 34 432.5 L 32.5 431 Z "></path><path d="M 71 431 Q 74 430 73 433 Q 70 434 71 431 Z "></path><path d="M 115.5 431 Q 117.8 430.3 117 432.5 L 115.5 431 Z "></path><path d="M 199.5 431 L 201 433.5 L 199 432.5 L 199.5 431 Z "></path><path d="M 205 431 Q 208.3 429.9 207 434 Q 203.7 435.1 205 431 Z "></path><path d="M 209 431 Q 211.7 429.9 211 432.5 L 209 433.5 L 209 431 Z "></path><path d="M 249 431 Q 252 429.8 251 433.5 L 249 432.5 L 249 431 Z "></path><path d="M 98 433 L 100 433.5 L 98 434.5 L 98 433 Z "></path><path d="M 112 433 Q 115 432 114 435 L 117.5 435 Q 118.8 431.8 124.5 433 L 123.5 435 Q 122 432.5 120.5 436 Q 118.8 438.8 113.5 438 Q 111 436.8 112 433 Z "></path><path d="M 169.5 433 Q 173.9 431.5 173 434.5 L 174 438 L 179 438 L 179 439.5 L 175.5 441 L 174 438 L 169.5 439 L 165 436.5 Q 164.3 434.3 166.5 435 L 168 434.5 L 167 437 L 169.5 438 L 172 437 L 170.5 434 L 169.5 433 Z "></path><path d="M 320.5 433 L 321 435 L 319 434.5 L 320.5 433 Z "></path><path d="M 45.5 434 L 46 436.5 L 44 435.5 L 45.5 434 Z "></path><path d="M 126.5 434 Q 130 435.3 129 440 L 126.5 441 L 126 438.5 L 126 436.5 L 126.5 434 Z "></path><path d="M 278.5 434 L 279 437.5 L 278 437.5 L 277 435.5 L 278.5 434 Z "></path><path d="M 330.5 434 L 331 436 L 329 435.5 L 330.5 434 Z "></path><path d="M 275.5 435 L 276 437.5 L 275 437.5 L 275.5 435 Z "></path><path d="M 282 435 L 284 435.5 L 282 436.5 L 282 435 Z "></path><path d="M 258.5 436 L 259 438 L 257 437.5 L 258.5 436 Z "></path><path d="M 307.5 436 Q 310.3 437.3 308 438.5 L 307.5 441 L 307.5 436 Z "></path><path d="M 74.5 437 L 76.5 437 Q 79.1 436.3 78 439 L 80 439 L 80 441.5 L 79 441.5 L 77.5 439 L 77 441 L 74 439.5 L 74.5 437 Z "></path><path d="M 191.5 437 L 193.5 437 Q 196.1 436.2 195 439.5 L 192.5 440 L 190.5 441 L 190 439.5 L 191.5 437 Z "></path><path d="M 198.5 437 L 199 439.5 L 198 439.5 L 198.5 437 Z "></path><path d="M 203.5 437 L 204 439 L 202 438.5 L 203.5 437 Z "></path><path d="M 34 438 Q 37.3 436.9 36 441 Q 32.7 442.1 34 438 Z "></path><path d="M 37.5 438 L 38.5 440 Q 35.7 440.7 37.5 438 Z "></path><path d="M 84 438 Q 87 437 86 440 Q 83 441 84 438 Z "></path><path d="M 222.5 438 L 224.5 439 L 226 438.5 L 224.5 441 L 222 440 L 222.5 438 Z "></path><path d="M 250 438 Q 253.3 436.9 252 441 Q 248.7 442.1 250 438 Z "></path><path d="M 285.5 438 L 288 442 Q 284.3 443.5 285 440.5 Q 282.8 439.3 285.5 438 Z "></path><path d="M 310.5 438 L 311 441 Q 308.3 442.1 309 439.5 L 310.5 438 Z "></path><path d="M 12.5 439 L 13 441.5 L 12 441.5 L 12.5 439 Z "></path><path d="M 94.5 439 Q 96.8 438.3 96 440.5 L 94.5 439 Z "></path><path d="M 296 439 Q 299 437.8 298 441.5 L 296 440.5 L 296 439 Z "></path><path d="M 301.5 439 Q 304.5 440.5 301.5 442 L 301.5 439 Z "></path><path d="M 24 440 Q 27 439 26 442 Q 23 443 24 440 Z "></path><path d="M 241.5 440 L 243 443 Q 239.5 444.1 241.5 440 Z "></path><path d="M 270.5 440 L 271 441.5 L 270 444.5 L 270.5 446 Q 267.1 446.9 269 441.5 L 270.5 440 Z "></path><path d="M 216.5 441 L 217 443.5 L 215 444.5 L 216.5 441 Z "></path><path d="M 262.5 441 L 264 444.5 L 263 444.5 L 262.5 441 Z "></path><path d="M 265.5 441 Q 268.3 442.2 266 443.5 L 267 445.5 L 265 446 L 265.5 441 Z "></path><path d="M 207.5 442 L 208 446.5 L 207 446.5 L 206 443.5 L 207.5 442 Z "></path><path d="M 210.5 442 L 211 444.5 L 209 445.5 L 210.5 442 Z "></path><path d="M 273 442 Q 276.7 440.8 275 446 Q 271.3 447.2 273 442 Z "></path><path d="M 188.5 443 L 189 445.5 L 188 445.5 L 188.5 443 Z "></path><path d="M 232 443 Q 235 441.8 234 445.5 L 232 444.5 L 232 443 Z "></path><path d="M 235.5 443 L 236 445.5 L 235 445.5 L 235.5 443 Z "></path><path d="M 259.5 443 Q 261.8 442.3 261 444.5 L 259.5 443 Z "></path><path d="M 280 443 Q 283 442 282 445 Q 279 446 280 443 Z "></path><path d="M 93.5 444 L 94 446 L 92 445.5 L 93.5 444 Z "></path><path d="M 124 444 L 126 444.5 L 124 445.5 L 124 444 Z "></path><path d="M 193.5 444 L 195 447 Q 191.5 448.1 193.5 444 Z "></path><path d="M 196 444 Q 198.7 442.9 198 445.5 L 196 446.5 L 196 444 Z "></path><path d="M 202 444 Q 205.3 442.9 204 447 Q 200.7 448.1 202 444 Z "></path><path d="M 100.5 445 L 102 448 Q 98.5 449.1 100.5 445 Z "></path><path d="M 252.5 445 L 253.5 447 Q 250.7 447.7 252.5 445 Z "></path><path d="M 16.5 446 L 17 448.5 L 15 447.5 L 16.5 446 Z "></path><path d="M 38.5 446 Q 41.5 447.5 38.5 449 L 38.5 446 Z "></path><path d="M 46.5 446 L 47 448 L 45 447.5 L 46.5 446 Z "></path><path d="M 72.5 446 L 73.5 448 Q 70.7 448.7 72.5 446 Z "></path><path d="M 75.5 446 L 76 448.5 L 75 448.5 L 75.5 446 Z "></path><path d="M 104 446 Q 107 445 106 448 Q 103 449 104 446 Z "></path><path d="M 186.5 446 L 187.5 448 Q 184.7 448.7 186.5 446 Z "></path><path d="M 12.5 447 Q 14.8 446.3 14 448.5 L 12.5 447 Z "></path><path d="M 26.5 447 Q 28.8 446.3 28 448.5 L 26.5 447 Z "></path><path d="M 29 447 Q 32 446 31 449 Q 28 450 29 447 Z "></path><path d="M 245.5 447 L 247 450 L 244 448.5 L 245.5 447 Z "></path><path d="M 248 447 Q 250.7 445.9 250 448.5 L 248 449.5 L 248 447 Z "></path><path d="M 311 448 Q 314 446.8 313 450.5 L 311 449.5 L 311 448 Z "></path><path d="M 91 449 L 93 449.5 L 91 450.5 L 91 449 Z "></path><path d="M 110 449 Q 113 447.8 112 451.5 L 110 450.5 L 110 449 Z "></path><path d="M 113 449 Q 116 447.8 115 451.5 L 113 452.5 L 113 449 Z "></path><path d="M 185.5 449 L 186 451 L 184 450.5 L 185.5 449 Z "></path><path d="M 191 449 Q 194.7 447.8 193 453 L 189.5 455 L 189 453 Q 192.7 454.2 191 449 Z "></path><path d="M 228.5 449 L 230.5 450 L 232 449.5 Q 233.2 454.1 228 452 L 228.5 449 Z "></path><path d="M 240 449 Q 243 448 242 451 Q 239 452 240 449 Z "></path><path d="M 291.5 449 L 293 453 Q 289.2 454.2 291.5 449 Z "></path><path d="M 294.5 449 L 296 452.5 L 294 451.5 L 294.5 449 Z "></path><path d="M 300 449 Q 303 448 302 451 Q 299 452 300 449 Z "></path><path d="M 308 449 Q 311 447.8 310 451.5 L 308 450.5 L 308 449 Z "></path><path d="M 94 450 Q 97 449 96 452 Q 93 453 94 450 Z "></path><path d="M 218 450 Q 221.3 448.9 220 453 Q 216.7 454.1 218 450 Z "></path><path d="M 137.5 451 Q 139.8 450.3 139 452.5 L 137.5 451 Z "></path><path d="M 182.5 451 L 183.5 453 Q 180.9 452.3 182 455 L 180 455 L 180 453 Q 182.8 454 182.5 451 Z "></path><path d="M 262.5 451 L 263 454 L 259 455 L 260.5 452 L 262.5 451 Z "></path><path d="M 265.5 451 L 267 455 Q 263.2 456.2 265.5 451 Z "></path><path d="M 63.5 452 L 64 454.5 L 63 454.5 L 63.5 452 Z "></path><path d="M 68 452 Q 70.7 450.9 70 453.5 L 68 454.5 L 68 452 Z "></path><path d="M 201 452 Q 203.7 450.9 203 453.5 L 201 454.5 L 201 452 Z "></path><path d="M 213.5 452 L 214 455 Q 211.3 456.1 212 453.5 L 213.5 452 Z "></path><path d="M 29 453 Q 31.7 451.9 31 454.5 L 29 455.5 L 29 453 Z "></path><path d="M 35 453 Q 38 452 37 455 Q 34 456 35 453 Z "></path><path d="M 79.5 453 L 80.5 455 Q 77.7 455.7 79.5 453 Z "></path><path d="M 209.5 453 L 211 456 Q 207.5 457.1 209.5 453 Z "></path><path d="M 273 453 Q 276.3 451.9 275 456 Q 271.7 457.1 273 453 Z "></path><path d="M 277 453 Q 279.7 451.9 279 454.5 L 277 455.5 L 277 453 Z "></path><path d="M 76 454 Q 79 453 78 456 Q 75 457 76 454 Z "></path><path d="M 111.5 454 L 112 456 L 110 455.5 L 111.5 454 Z "></path><path d="M 196.5 454 L 198 456.5 L 196 456.5 L 195.5 458 L 194 455.5 L 196 455.5 L 196.5 454 Z "></path><path d="M 90.5 456 L 91.5 458 Q 88.7 458.7 90.5 456 Z "></path><path d="M 93 456 Q 96 455 95 458 Q 92 459 93 456 Z "></path><path d="M 98 456 Q 101 455 100 458 Q 97 459 98 456 Z "></path><path d="M 253.5 456 L 260 460 L 261 468 L 256 470 Q 254.8 467 258.5 468 Q 261.3 466.8 259 465.5 Q 259.8 460.8 256.5 460 L 252.5 458 L 248 460 L 248 462 Q 245.3 460.9 246 463.5 L 245 466 Q 242.3 467.1 243 464.5 L 247.5 459 L 253.5 456 Z "></path><path d="M 283.5 456 L 285 459 Q 281.5 460.1 283.5 456 Z "></path><path d="M 302 456 Q 305.3 454.9 304 459 Q 300.7 460.1 302 456 Z "></path><path d="M 32 457 Q 35 456 34 459 Q 31 460 32 457 Z "></path><path d="M 280.5 457 L 282 460 Q 278.5 461.1 280.5 457 Z "></path><path d="M 298 457 Q 301 455.8 300 459.5 L 298 458.5 L 298 457 Z "></path><path d="M 14.5 458 L 15.5 460 Q 12.7 460.7 14.5 458 Z "></path><path d="M 234.5 458 L 235 463 L 231.5 464 L 231 459.5 L 232 459.5 Q 231.3 461.8 233.5 461 L 234.5 458 Z "></path><path d="M 28 459 Q 31 458 30 461 Q 27 462 28 459 Z "></path><path d="M 47.5 459 L 51 460 Q 52.1 463.3 48 462 L 47.5 459 Z "></path><path d="M 237 459 Q 239.7 457.9 239 460.5 L 237.5 463 L 237 459 Z "></path><path d="M 294 459 L 296 459.5 L 294 460.5 L 294 459 Z "></path><path d="M 77.5 460 L 79 462.5 L 77 463 L 77.5 460 Z "></path><path d="M 106.5 460 L 107 462.5 L 105 461.5 L 106.5 460 Z "></path><path d="M 180 460 L 182 460.5 L 180 461.5 L 180 460 Z "></path><path d="M 228.5 460 L 230 463.5 L 228 462.5 L 228.5 460 Z "></path><path d="M 60.5 461 Q 63.5 462.5 60.5 464 L 60.5 461 Z "></path><path d="M 63.5 461 L 64 463.5 L 63 463.5 L 63.5 461 Z "></path><path d="M 73.5 461 Q 75.8 460.3 75 462.5 L 73.5 461 Z "></path><path d="M 102 461 Q 105 460 104 463 Q 101 464 102 461 Z "></path><path d="M 112 461 L 114 461.5 L 112 462.5 L 112 461 Z "></path><path d="M 191.5 461 L 193 464 Q 189.5 465.1 191.5 461 Z "></path><path d="M 209.5 461 Q 212 462 211 466.5 L 209.5 466 Q 204.7 467.3 206 464 L 208.5 465 L 209.5 461 Z "></path><path d="M 212.5 461 Q 215 462 214 466.5 L 212 465.5 L 212.5 461 Z "></path><path d="M 240 461 Q 243 460 242 463 Q 239 464 240 461 Z "></path><path d="M 262 461 Q 265.3 459.9 264 464 Q 260.7 465.1 262 461 Z "></path><path d="M 84.5 462 L 85 464 Q 88 463 87 466 L 83 467 L 83.5 465 L 85 465.5 Q 85.8 463.3 83.5 464 L 84.5 462 Z "></path><path d="M 98.5 462 L 101 463.5 L 99.5 464 L 98.5 462 Z "></path><path d="M 218.5 462 L 219 464.5 L 217 465.5 L 218.5 462 Z "></path><path d="M 270 462 Q 273 461 272 464 Q 269 465 270 462 Z "></path><path d="M 44.5 464 Q 47.5 465.5 44.5 467 L 44.5 464 Z "></path><path d="M 107.5 464 L 111 465 L 110 467.5 Q 111.2 475.8 109 480.5 L 111 484 Q 108 482.8 109 486.5 L 107.5 491 L 106 486.5 L 107 481.5 L 106 476.5 L 107 470 L 105 469.5 L 108 465.5 L 107.5 464 Z "></path><path d="M 298.5 464 L 300 467 Q 296.5 468.1 298.5 464 Z "></path><path d="M 104 465 Q 106.7 463.9 106 466.5 L 104 467.5 L 104 465 Z "></path><path d="M 268.5 465 L 272 466.5 L 263.5 467 L 262.5 468 L 262 466 L 268.5 465 Z "></path><path d="M 289 465 Q 292 463.8 291 467.5 L 289 466.5 L 289 465 Z "></path><path d="M 113.5 466 L 114 467.5 L 113 470.5 L 114 472.5 L 113 477 L 111 476.5 L 111 468.5 L 113.5 466 Z "></path><path d="M 21.5 467 L 23 469.5 L 21 468.5 L 21.5 467 Z "></path><path d="M 25 467 L 29 468.5 L 25 469 L 25 467 Z "></path><path d="M 54 467 Q 57 466 56 469 Q 53 470 54 467 Z "></path><path d="M 91.5 467 L 94 468 L 93.5 470 L 91 469 L 91.5 467 Z "></path><path d="M 87 468 Q 90 467 89 470 Q 86 471 87 468 Z "></path><path d="M 158.5 468 L 159 470 L 157 469.5 L 158.5 468 Z "></path><path d="M 226.5 468 L 227 471.5 L 226 471.5 L 225 469.5 L 226.5 468 Z "></path><path d="M 59.5 469 L 60.5 471 Q 57.7 471.7 59.5 469 Z "></path><path d="M 63.5 469 Q 65.8 468.3 65 470.5 L 63.5 469 Z "></path><path d="M 69.5 469 Q 71.8 468.3 71 470.5 L 69.5 469 Z "></path><path d="M 66 470 L 68 470.5 L 66 471.5 L 66 470 Z "></path><path d="M 229 470 Q 232.3 468.9 231 473 Q 227.7 474.1 229 470 Z "></path><path d="M 98 471 Q 101 470 100 473 Q 97 474 98 471 Z "></path><path d="M 86.5 473 L 88 473.5 L 86.5 476 Q 88.8 475.3 88 477.5 Q 90.2 478.8 87.5 480 L 84.5 481 L 84 479.5 L 86 476 L 84 475.5 L 86.5 473 Z "></path><path d="M 103.5 473 L 104.5 475 Q 101.7 475.7 103.5 473 Z "></path><path d="M 220.5 473 L 222 476 Q 218.5 477.1 220.5 473 Z "></path><path d="M 301 474 Q 304.3 472.9 303 477 Q 299.7 478.1 301 474 Z "></path><path d="M 26 475 Q 29 474 28 477 L 24.5 479 L 24 477 Q 27 478 26 475 Z "></path><path d="M 89.5 475 L 91 477.5 L 89 476.5 L 89.5 475 Z "></path><path d="M 98.5 475 L 99 477.5 L 98 477.5 L 98.5 475 Z "></path><path d="M 115.5 475 Q 118.1 474.3 117 477 L 114 476.5 L 115.5 475 Z "></path><path d="M 102 476 Q 105 474.8 104 478.5 L 105 481.5 L 105 483.5 L 104 491 L 101.5 492 L 101 490.5 L 102 487.5 L 100.5 485 L 99 485.5 L 99.5 481 L 101.5 485 L 102 476 Z "></path><path d="M 95 478 L 97 478.5 L 95 479.5 L 95 478 Z "></path><path d="M 277.5 478 Q 279.8 477.3 279 479.5 L 277.5 478 Z "></path><path d="M 11 479 Q 14 478 13 481 Q 10 482 11 479 Z "></path><path d="M 91 479 Q 93.7 477.9 93 480.5 Q 95.3 481.8 94 486.5 L 95.5 488 L 96 486 L 99 487.5 L 100 492.5 L 98 497 Q 94.5 498.1 96 490.5 L 95 490.5 Q 96.5 498.1 93 497 L 94 494.5 L 92 489.5 Q 93 482 91 479 Z "></path><path d="M 112 479 Q 115 478 114 481 Q 111 482 112 479 Z "></path><path d="M 116.5 480 L 120.5 482 L 122 481.5 Q 123.7 486.3 119.5 485 Q 116.5 486.5 119.5 488 L 121 487.5 L 115 490 L 117 486 L 114 486 L 114 490 L 112.5 490 L 109 491 L 111.5 485 L 113.5 486 L 114 484.5 L 113 482.5 L 116 481.5 L 116.5 480 Z "></path><path d="M 96.5 482 Q 98.8 481.3 98 483.5 L 96.5 482 Z "></path><path d="M 267.5 484 L 267 485.5 L 266.5 487 L 266 485.5 L 267.5 484 Z "></path><path d="M 251.5 486 L 252 489.5 L 251 489.5 L 251.5 486 Z "></path><path d="M 275.5 486 L 279 487.5 L 275 488 L 275.5 486 Z "></path><path d="M 123.5 487 L 127 487.5 L 123.5 488 L 123.5 487 Z "></path><path d="M 236.5 487 Q 238.8 486.3 238 488.5 L 236.5 487 Z "></path><path d="M 91.5 492 L 92 494.5 L 91 494.5 L 91.5 492 Z "></path><path d="M 111.5 492 L 112.5 494 L 109 493.5 L 111.5 492 Z "></path><path d="M 105.5 493 L 106 494.5 L 102.5 497 L 101.5 495 L 105.5 493 Z "></path><path d="M 200 494 L 209.5 494 L 210.5 495 L 214.5 494 L 222.5 499 Q 227.3 497.8 228.5 500 L 245.5 500 L 261.5 503 L 265.5 505 L 274.5 506 L 277.5 504 L 278 507 L 273.5 508 L 272.5 507 L 264.5 507 L 252.5 503 L 235.5 502 L 233.5 501 L 231.5 501 L 222.5 501 L 212.5 495 L 206.5 497 L 200 496 L 200 494 Z "></path><path d="M 16.5 495 Q 21.3 493.7 20 497 Q 15.8 497 16.5 495 Z "></path><path d="M 198 498 L 204 499 Q 205.1 501.7 202.5 501 L 198 500 L 198 498 Z "></path><path d="M 207.5 501 Q 212.3 500.3 213 503.5 L 211.5 504 Q 207.5 503.5 207.5 501 Z "></path><path d="M 46.5 502 L 50 503.5 L 47.5 504 L 46.5 502 Z "></path><path d="M 224.5 503 Q 229.8 501.8 231 504.5 L 227.5 505 L 224.5 504 L 224.5 503 Z "></path><path d="M 30.5 505 L 35 505.5 L 27.5 508 L 25.5 508 L 18.5 509 L 19.5 507 L 30.5 505 Z "></path><path d="M 75.5 505 L 78.5 506 Q 80.2 503.2 86.5 505 L 85.5 507 L 77.5 508 L 74.5 507 L 69.5 509 L 67.5 509 Q 62.7 510.7 64 506.5 L 65.5 507 L 75.5 505 Z "></path><path d="M 201.5 505 L 220 506.5 Q 219.3 508.8 215.5 508 L 211.5 507 L 209.5 507 L 203.5 506 L 200.5 507 L 201.5 505 Z "></path><path d="M 241 506 L 244.5 507 L 246.5 506 L 266.5 512 L 267.5 511 L 278.5 511 L 287.5 514 L 296 514 L 295.5 516 L 288.5 516 L 279.5 513 L 262.5 513 L 246.5 508 L 241 508 L 241 506 Z "></path><path d="M 44.5 507 L 48 508.5 L 42.5 511 L 34.5 511 L 28 515 Q 26.9 512.3 29.5 513 L 34.5 509 Q 41.9 510.4 44.5 507 Z "></path><path d="M 60.5 507 Q 63.1 506.3 62 509 L 59 508.5 L 60.5 507 Z "></path><path d="M 55.5 509 Q 58.1 508.3 57 511 L 47.5 514 L 47.5 513 L 55.5 509 Z "></path><path d="M 220 509 L 223.5 510 L 225.5 510 Q 240 509 246 516.5 L 244.5 517 L 233.5 512 L 231.5 512 L 228.5 513 L 220 511 L 220 509 Z "></path><path d="M 199.5 511 L 200.5 512 L 210.5 512 L 212.5 512 L 222.5 513 L 227 515.5 Q 227.8 517.8 225.5 517 L 218.5 514 L 199 513 L 199.5 511 Z "></path><path d="M 15.5 512 L 21 512.5 L 16.5 513 Q 15.2 516.8 11 516 Q 9.8 513 13.5 514 L 15.5 512 Z "></path><path d="M 59.5 512 Q 62.1 511.3 61 514 L 57.5 515 L 59.5 512 Z "></path><path d="M 97.5 512 Q 100.8 510.9 100 513.5 L 98.5 515 L 92 516 L 93.5 513 L 97.5 512 Z "></path><path d="M 42.5 514 L 46 515 Q 47.1 517.7 44.5 517 L 42.5 516 L 35.5 522 L 27 524 Q 25.8 521 29.5 522 L 33.5 521 L 42.5 514 Z "></path><path d="M 298 514 L 303 514 L 303 516 L 298 516 L 298 514 Z "></path><path d="M 88.5 516 Q 90.8 515.3 90 517.5 L 82.5 521 L 71.5 523 Q 68.1 527.6 61.5 529 L 64.5 525 L 70.5 521 Q 81.9 520.9 88.5 516 Z "></path><path d="M 49.5 517 Q 52.1 516.3 51 519 L 44 522.5 L 44 525 L 38.5 525 L 32.5 529 L 18.5 531 L 17.5 529 L 20.5 530 L 28.5 527 L 32.5 527 Q 36.5 522.6 43 522 Q 41.9 519.3 44.5 520 L 49.5 517 Z "></path><path d="M 249 518 Q 252 517 251 520 Q 248 521 249 518 Z "></path><path d="M 234.5 519 L 245 524.5 Q 245.8 526.8 243.5 526 L 233 520.5 L 234.5 519 Z "></path><path d="M 252.5 519 L 262.5 522 L 276 529.5 L 272.5 530 L 269.5 527 L 252.5 520 L 252.5 519 Z "></path><path d="M 175.5 521 L 179 522 L 178.5 524 L 169.5 524 Q 168.3 526.3 167 523.5 L 175.5 521 Z "></path><path d="M 227.5 521 L 232 524 L 233 530 L 231 530 L 231 525 Q 227.2 526.5 228 523.5 L 227.5 521 Z "></path><path d="M 278.5 521 Q 282.3 520.3 283 522.5 Q 281.8 525.3 280.5 523 L 278.5 521 Z "></path><path d="M 285.5 523 Q 291.3 522.2 293 525.5 L 292.5 527 Q 291.1 524.4 286.5 525 L 285.5 523 Z "></path><path d="M 199.5 525 L 219.5 529 L 230 534.5 Q 230.8 536.8 228.5 536 L 225.5 533 L 217.5 530 L 201.5 527 L 199.5 525 Z "></path><path d="M 295.5 526 L 307 534.5 L 306.5 536 L 295 527.5 L 295.5 526 Z "></path><path d="M 247.5 527 L 252 530.5 L 249.5 531 L 247.5 527 Z "></path><path d="M 78 529 L 81 530.5 Q 81.8 532.8 79.5 532 L 75 535.5 L 74.5 537 L 73 533.5 L 78 530.5 L 78 529 Z "></path><path d="M 236 529 L 243 531 L 244 533.5 L 240.5 534 L 236 531 L 236 529 Z "></path><path d="M 53.5 531 Q 55.8 530.3 55 532.5 L 51.5 537 L 50 536.5 L 53.5 531 Z "></path><path d="M 321.5 533 Q 325.3 531.8 324 535.5 Q 322.8 538.3 321.5 536 Q 319.3 536.8 320 534.5 L 321.5 533 Z "></path><path d="M 23.5 534 L 26 534.5 L 22 537.5 L 20.5 541 L 16.5 542 L 19 538.5 Q 18.3 536.3 20.5 537 L 23.5 534 Z "></path><path d="M 255.5 535 L 259.5 535 L 264 538.5 L 266.5 542 L 268 542.5 L 265.5 543 L 262 538 L 257.5 536 Q 255.7 538.5 255.5 535 Z "></path><path d="M 278.5 535 Q 282.5 534.5 283 537.5 L 285 540.5 L 283.5 540 L 278.5 535 Z "></path><path d="M 232.5 536 L 235 537.5 L 237 541.5 L 233 538.5 L 232.5 536 Z "></path><path d="M 205.5 537 L 215 541.5 L 214.5 543 L 205 538.5 L 205.5 537 Z "></path><path d="M 247 538 L 251 540.5 L 250.5 543 L 247 538 Z "></path><path d="M 47.5 539 Q 51.3 538 50 541 L 45.5 543 L 43 541.5 L 47.5 539 Z "></path><path d="M 309.5 539 L 313 541.5 L 310.5 543 Q 308 542 309.5 539 Z "></path><path d="M 340 549 L 342 549.5 L 340 550.5 L 340 549 Z "></path><path d="M 36.5 558 L 62.5 558 L 64 559.5 L 62.5 563 L 60 562 L 60 559 L 53.5 559 L 52 560.5 L 51 573.5 L 53.5 580 Q 56.1 579.3 55 582 L 48.5 581 Q 47.3 583.3 46 580.5 L 47 560 L 42.5 559 L 40.5 560 Q 39.3 557.8 38 560.5 L 36.5 563 Q 33.5 563.9 35 559.5 L 36.5 558 Z "></path><path d="M 69.5 558 L 75 559 L 75 567.5 L 76 568.5 L 74 576.5 L 76 582 L 73.5 581 L 68.5 582 L 69 580.5 L 70 575.5 L 69 570.5 L 70 569.5 L 70 561.5 Q 66.3 559.7 69.5 558 Z "></path><path d="M 90.5 558 L 92.5 559 L 94 558.5 L 93 564.5 L 94 567.5 L 93 570.5 L 93 572.5 Q 91.3 579.7 95 581.5 L 88 582 L 88 570.5 L 86.5 570 L 78 568.5 L 88 568 L 88 560.5 L 86.5 560 L 86.5 559 L 90.5 558 Z "></path><path d="M 105.5 558 L 115.5 558 L 117 559.5 Q 118.3 564.3 115 563 L 113.5 559 L 106 560 L 105 568 L 109.5 568 Q 108.8 565 113 566 L 112 574 L 109 572.5 Q 111.2 571.3 108.5 570 Q 105.2 568.9 106 571.5 L 105 572.5 L 105 580 L 114.5 580 L 116 578.5 L 117.5 576 L 120.5 575 L 119 577.5 L 116.5 581 L 103.5 582 L 99 580.5 Q 102 579.5 101 574.5 L 101 572.5 L 100 563.5 L 101 561.5 L 99.5 559 Q 104.2 560.2 105.5 558 Z "></path><path d="M 146.5 558 L 152 560.5 L 159.5 575 L 167 561.5 L 166 559 L 170.5 558 L 173 559 L 172 577.5 L 173 580 Q 176 579 175 582 L 169.5 581 L 166.5 582 L 167 580.5 L 168 572.5 L 167 570.5 Q 169.3 569.3 168 564.5 L 167 564.5 L 164 573.5 L 158.5 581 L 148.5 565 L 148 577.5 L 147 579.5 L 148 582 Q 143.4 583.3 142 580.5 L 145 580 L 145 560.5 L 144 559.5 L 146.5 558 Z "></path><path d="M 242 558 L 248.5 559 L 250 558.5 L 252 564.5 L 261.5 576 L 263 568.5 L 262 567.5 L 262 559 L 266 559.5 L 265 561.5 L 266 562.5 L 266 570.5 L 266 572.5 L 265 576.5 L 265 578.5 Q 266.3 582.7 261.5 581 L 256 576.5 L 254.5 574 Q 252.3 574.8 253 572.5 L 246.5 563 L 246 577.5 L 247 580 L 249 580.5 L 243 581 L 244 574.5 L 243 573.5 L 243 560.5 L 242 558 Z "></path><path d="M 186.5 559 L 198.5 559 L 204 563.5 L 206 570.5 Q 204.5 577 199.5 580 L 190.5 582 L 188.5 582 L 186.5 582 L 180 576.5 Q 176.6 573.9 178 566.5 L 182.5 561 L 186.5 559 Z M 191 560 L 189 561 L 185 565 L 184 569 L 185 576 L 191 580 L 196 579 L 199 575 L 199 573 L 198 564 L 191 560 Z "></path><path d="M 218.5 559 Q 232.1 556.9 236 564.5 L 237 570.5 L 232 579 Q 228.1 581.9 219.5 581 L 211 575.5 L 210 572.5 L 211 571.5 L 211 563.5 L 212.5 562 L 218.5 559 Z M 222 560 L 219 561 L 216 565 Q 215 573 217 576 L 225 579 L 227 578 L 231 573 L 229 563 Q 227 559 222 560 Z "></path><path d="M 280 577 L 286 577 L 286 580 L 281.5 581 L 280 577 Z "></path><path d="M 339.5 588 Q 342.5 589.5 339.5 591 L 339.5 588 Z "></path><path d="M 343.5 588 Q 345.8 587.3 345 589.5 L 343 590.5 L 343.5 588 Z "></path></svg>