<svg width="350" height="600" version="1.1" xmlns="http://www.w3.org/2000/svg" desc="Created with imagetracer.js version 1.2.5"><path d="M 41.5 4 L 51.5 5 L 56.5 4 Q 58.3 6.7 64.5 5 L 66.5 4 L 68.5 4 L 79.5 4 L 80.5 5 L 132.5 5 L 134.5 6 L 136.5 5 L 138.5 5 L 185.5 4 L 186.5 5 L 239.5 5 L 241.5 6 L 242.5 5 L 256.5 5 L 257.5 4 L 293.5 4 L 294.5 5 L 312.5 5 L 317.5 4 L 324.5 6 L 329.5 5 L 336 7.5 L 336 64.5 Q 338.2 65.8 337 70.5 Q 334.5 72 336 77.5 L 337 78.5 L 337 120.5 L 338 122.5 L 337 123.5 L 337 136.5 L 338 140.5 L 337 143.5 L 338 146.5 Q 335.5 148 337 153.5 L 338 156.5 L 337 160.5 L 338 161.5 L 338 256.5 Q 335.7 257.8 337 262.5 L 337 264.5 L 338 270.5 L 337 272.5 L 338 273.5 L 338 341.5 L 338 343.5 L 337 348.5 L 338 349.5 L 338 387.5 L 337 388.5 L 337 408.5 L 338 409.5 L 338 452.5 L 337 454.5 L 338 458.5 L 337 460.5 L 338 463.5 L 337 467.5 L 337 469.5 L 338 476.5 L 337 480.5 L 338 483.5 L 338 485.5 L 338 592.5 L 336.5 594 L 327.5 594 L 317.5 592 L 312.5 593 L 310.5 592 L 308.5 593 L 306.5 592 L 304.5 593 L 302.5 592 L 301.5 593 L 271.5 593 L 266.5 594 L 263.5 593 L 204.5 593 L 199.5 594 L 195.5 593 Q 194.3 595.3 189.5 594 L 188.5 593 L 157.5 592 L 156.5 593 L 139.5 594 L 138.5 593 L 112.5 593 L 111.5 592 L 101.5 594 L 92.5 594 L 91.5 593 L 78.5 592 L 77.5 593 L 39.5 593 L 34.5 592 L 32.5 593 L 31.5 592 L 8 592 L 7 586.5 L 8 584.5 L 8 582.5 L 8 496.5 L 9 495.5 L 9 483.5 L 8 482.5 L 8 375.5 L 7 374.5 L 7 360.5 L 7 358.5 L 7 287.5 L 8 285.5 L 7 283.5 L 8 281.5 L 7 280.5 L 7 271.5 Q 9.2 270.3 8 265.5 L 8 263.5 L 7 260.5 L 7 225.5 L 6 224.5 L 6 181.5 L 5 180.5 L 5 88.5 L 5 86.5 L 5 6.5 L 6.5 5 L 40.5 5 L 41.5 4 Z M 44 6 L 43 7 L 18 7 L 17 8 L 12 7 L 10 9 L 10 99 L 11 102 L 10 104 L 11 106 Q 13 111 10 113 L 11 117 L 10 121 L 10 182 L 9 183 L 10 184 L 14 178 L 28 167 L 42 164 L 50 164 L 70 169 L 88 182 Q 108 198 119 223 L 126 220 L 128 218 L 130 211 L 135 207 L 136 205 L 133 201 L 132 202 L 126 201 Q 127 197 123 196 Q 122 191 126 190 L 126 195 Q 129 196 128 194 L 128 192 L 125 188 Q 124 184 127 185 Q 129 190 131 187 L 129 182 L 130 179 L 134 175 L 131 172 L 132 166 L 138 161 Q 143 163 142 159 L 145 159 L 150 155 L 153 150 L 157 147 L 158 143 L 161 140 L 166 130 L 180 112 L 180 110 L 191 103 L 196 102 L 200 102 L 206 105 L 211 114 L 209 132 L 198 155 L 195 165 L 191 171 Q 189 178 190 190 L 187 194 L 185 195 Q 180 199 179 208 Q 178 211 173 210 Q 171 208 170 211 L 171 216 L 170 222 L 183 222 Q 185 225 191 224 L 200 231 L 203 236 L 203 241 L 210 256 L 215 261 L 231 260 L 233 258 L 236 260 L 256 262 L 264 264 L 279 270 L 291 277 Q 299 283 302 293 L 309 315 L 308 332 L 306 339 L 296 355 Q 287 363 275 368 L 265 370 L 254 370 L 245 367 L 241 367 L 216 356 L 214 356 L 220 366 L 226 368 Q 229 367 228 370 Q 231 374 237 374 L 238 379 L 233 383 L 234 385 L 233 387 L 246 410 Q 247 417 244 420 L 246 420 Q 250 422 247 424 Q 244 423 245 426 L 247 425 L 251 427 L 254 425 L 249 418 L 256 414 L 257 416 Q 258 411 264 412 Q 265 415 262 414 L 259 418 L 256 419 L 254 419 L 256 424 L 260 421 L 260 424 L 262 423 Q 268 424 271 429 Q 270 431 273 430 L 277 422 L 282 425 L 284 424 L 282 427 L 279 426 L 276 432 Q 274 438 277 440 L 273 447 L 275 453 L 280 452 Q 290 454 297 459 L 310 476 Q 316 486 333 484 L 332 482 Q 331 477 333 476 L 332 474 L 332 462 L 333 461 L 332 458 L 333 450 L 332 447 L 333 444 L 333 442 L 333 420 L 332 419 L 332 395 L 333 392 L 333 390 L 332 344 L 332 342 L 333 339 L 333 337 Q 335 330 332 329 L 332 313 L 333 312 L 332 308 L 332 299 L 333 298 Q 331 296 332 291 L 332 289 L 332 212 L 333 211 L 332 210 L 332 84 L 332 82 L 331 77 L 331 8 L 318 8 L 317 7 L 315 8 L 300 8 L 298 7 L 295 8 L 285 6 L 283 7 L 253 7 L 252 8 L 214 8 L 213 7 L 169 7 L 168 8 L 160 8 L 159 7 L 121 7 L 120 8 L 117 7 L 62 7 L 59 6 L 58 7 L 50 7 L 48 7 L 44 6 Z M 137 164 L 134 168 L 138 165 L 137 164 Z M 40 168 L 39 169 L 31 169 L 19 177 Q 20 179 17 178 L 10 192 L 8 199 L 8 211 L 8 213 L 8 219 L 10 225 L 19 241 L 32 252 L 56 265 L 64 268 L 84 271 L 88 273 L 99 275 L 102 277 L 122 280 L 124 280 L 126 279 L 127 280 L 138 280 L 136 275 L 125 272 L 122 273 L 117 271 L 114 272 L 113 275 L 110 271 L 106 273 L 103 271 Q 100 272 101 269 L 99 270 L 89 269 L 78 265 L 70 264 L 65 261 L 57 260 Q 43 254 33 246 Q 34 242 30 244 L 28 240 L 26 238 L 20 231 Q 21 228 18 229 L 11 210 L 11 196 Q 13 186 19 181 Q 25 173 37 170 Q 51 168 60 173 L 85 191 L 94 201 L 113 225 L 117 224 Q 111 210 101 199 Q 90 186 77 177 L 62 170 L 52 169 L 50 169 L 49 168 L 40 168 Z M 37 173 L 27 178 Q 17 184 14 198 L 14 209 L 19 221 L 28 229 L 34 232 L 43 234 Q 47 231 56 232 L 61 229 Q 71 222 74 208 L 73 195 Q 71 186 65 182 Q 59 175 50 173 L 37 173 Z M 157 173 L 154 177 L 156 181 L 157 177 L 157 173 Z M 162 176 Q 163 180 158 178 L 156 185 L 152 188 L 152 187 L 152 185 L 150 188 L 147 189 L 145 192 L 143 193 Q 140 192 142 191 L 142 188 L 140 191 L 141 194 L 137 209 Q 136 215 138 217 L 147 218 Q 150 220 151 226 Q 150 222 153 221 L 152 219 L 154 220 L 151 228 Q 154 229 153 227 L 154 224 L 156 225 L 159 221 L 158 218 L 157 220 L 155 220 L 156 217 L 153 215 L 152 217 L 151 217 L 152 215 L 149 211 Q 148 208 151 209 L 152 210 L 155 208 Q 156 210 153 209 L 156 214 L 159 213 L 160 214 L 158 215 L 162 216 L 164 215 L 164 213 L 166 214 L 172 204 L 174 201 L 172 202 L 170 201 L 169 204 L 165 205 L 166 208 L 165 212 L 163 212 L 159 211 L 160 208 L 159 208 L 157 208 L 158 206 L 163 204 L 162 201 L 167 202 L 168 197 L 167 189 L 165 189 L 171 188 L 171 190 L 174 189 L 176 194 L 177 194 L 177 187 L 175 186 L 172 188 L 173 186 L 172 179 Q 169 178 170 181 L 163 183 L 161 183 L 163 182 L 164 179 Q 165 175 162 176 Z M 133 179 L 131 181 L 133 181 L 133 179 Z M 152 181 L 151 183 L 153 182 L 152 181 Z M 145 183 L 143 185 L 145 185 L 145 183 Z M 73 186 L 77 198 L 76 214 L 70 225 L 62 232 L 67 234 L 73 243 L 80 248 Q 82 247 81 250 L 89 256 L 93 257 L 93 251 L 94 250 L 93 248 L 94 243 L 99 235 L 108 227 L 103 218 L 90 201 Q 83 191 73 186 Z M 135 188 L 134 191 L 135 191 L 135 188 Z M 182 188 L 181 194 L 183 193 L 182 188 Z M 130 191 L 130 194 L 132 193 Q 133 190 130 191 Z M 173 193 Q 171 196 174 195 L 173 193 Z M 175 196 L 175 199 L 176 199 Q 177 195 175 196 Z M 135 208 L 132 211 L 134 211 L 135 212 L 135 208 Z M 130 216 L 130 220 L 121 224 L 123 231 L 130 241 L 130 240 L 131 240 L 130 242 L 131 246 L 149 271 L 158 270 L 159 269 L 154 266 Q 153 260 157 259 L 152 257 L 151 255 L 152 251 Q 153 247 151 248 L 149 245 L 147 245 L 150 240 L 148 239 L 146 240 L 147 237 L 145 238 L 142 237 L 144 232 L 142 230 L 141 224 L 134 218 Q 131 219 132 216 L 130 216 Z M 168 224 L 169 232 L 167 233 L 163 231 L 164 228 Q 165 225 161 226 L 162 233 L 159 234 Q 157 230 155 234 L 159 235 L 161 239 L 160 244 L 162 245 L 161 245 L 159 245 L 153 241 L 152 245 L 155 246 L 154 254 L 157 255 Q 156 249 161 248 L 164 249 Q 166 250 165 255 Q 164 257 159 257 L 160 259 L 162 258 L 167 259 L 166 266 L 162 267 L 163 270 L 166 268 L 168 269 L 196 264 L 196 251 L 195 250 Q 193 242 197 243 L 200 251 L 201 244 L 200 234 L 198 234 L 193 229 L 184 225 Q 179 226 178 224 L 175 225 L 168 224 Z M 20 225 L 19 227 L 23 230 L 20 225 Z M 118 226 L 114 229 L 118 234 L 128 255 L 132 259 L 134 265 L 141 276 L 162 303 L 164 308 L 177 323 L 207 348 L 236 363 L 251 367 L 269 366 L 272 364 L 280 363 L 287 359 L 288 356 L 294 353 L 302 341 L 305 329 L 305 316 L 303 305 L 296 290 L 290 282 L 281 274 L 268 270 L 266 268 L 259 268 L 254 265 L 247 265 L 242 263 L 232 263 L 231 262 Q 229 265 223 263 L 221 263 Q 217 265 211 264 L 209 264 L 202 266 L 196 266 L 183 270 L 176 270 L 176 271 Q 180 270 179 273 Q 175 275 168 274 L 163 276 L 156 276 L 154 276 L 152 277 L 153 279 L 171 279 L 181 276 L 196 275 L 199 273 L 206 273 L 222 270 L 242 271 L 251 274 L 260 275 L 276 283 Q 283 283 288 287 Q 299 294 302 310 Q 304 328 295 336 L 296 338 L 292 344 L 288 346 L 286 351 L 280 355 L 266 360 L 264 359 L 257 361 Q 245 361 238 357 L 215 344 Q 211 345 212 342 L 209 341 L 190 327 Q 191 324 189 325 Q 176 315 168 301 L 165 299 L 136 258 Q 137 255 134 256 L 119 228 Q 120 225 118 226 Z M 109 228 L 106 232 L 99 238 L 100 240 L 103 239 L 102 238 L 102 237 L 104 238 L 106 234 Q 108 235 107 231 L 110 231 L 110 234 L 106 236 L 107 238 L 111 239 L 112 237 L 114 238 L 113 240 Q 111 244 116 243 Q 117 247 119 244 L 111 230 L 109 228 Z M 166 228 Q 164 231 167 230 L 166 228 Z M 27 231 L 26 234 L 27 234 L 27 231 Z M 12 232 L 11 342 L 12 343 L 12 352 L 11 353 L 11 362 L 12 363 L 11 365 L 12 368 L 11 377 L 11 379 L 12 382 Q 14 388 11 390 L 12 393 L 12 444 L 11 445 L 12 450 L 13 487 L 14 486 L 23 486 Q 36 481 46 471 L 59 467 Q 73 466 81 472 L 82 472 L 80 469 L 81 467 L 83 464 Q 84 461 86 463 Q 90 464 88 460 L 91 458 L 90 461 Q 89 464 92 463 L 92 460 L 95 454 Q 94 451 97 452 L 95 458 L 95 462 L 93 464 L 97 466 L 95 474 L 93 476 Q 92 478 95 477 L 100 465 Q 99 462 102 463 L 96 480 Q 98 483 103 481 L 103 483 L 98 483 L 98 486 L 108 489 Q 117 490 123 487 L 146 473 L 150 472 L 147 459 L 147 454 L 145 449 L 137 433 L 128 420 L 121 404 L 120 396 L 117 398 L 113 397 L 106 398 Q 105 395 108 394 L 104 387 L 108 378 L 109 363 L 112 356 L 112 351 L 115 342 L 126 323 L 126 319 Q 121 315 121 307 L 116 317 Q 113 321 108 322 L 106 321 L 101 323 L 100 322 L 88 322 L 79 318 L 76 316 L 71 304 L 64 296 L 61 287 L 62 269 L 57 268 L 37 258 L 25 249 L 18 243 L 12 232 Z M 60 232 L 58 234 Q 57 236 60 235 L 61 243 L 62 243 Q 64 234 60 232 Z M 152 233 L 151 238 L 152 238 L 152 233 Z M 28 234 L 27 236 L 32 242 L 35 243 L 35 245 Q 38 244 37 247 L 53 256 L 60 258 L 61 259 Q 62 256 59 257 L 60 250 Q 62 248 60 247 L 59 251 L 57 250 Q 54 251 55 247 L 51 242 L 47 241 Q 41 240 39 243 L 36 242 L 43 238 L 46 240 Q 49 238 48 236 L 49 236 L 49 240 L 51 240 Q 53 239 51 238 Q 50 235 53 236 L 55 240 L 56 240 Q 56 235 53 234 L 44 235 L 36 240 L 28 234 Z M 34 235 Q 33 238 37 237 Q 38 234 34 235 Z M 58 237 L 59 239 Q 60 236 58 237 Z M 53 240 L 55 242 L 57 246 L 59 246 L 58 244 Q 58 240 53 240 Z M 70 242 L 69 244 L 71 245 L 70 242 Z M 113 243 L 111 245 L 113 245 L 113 243 Z M 72 245 L 79 252 L 80 252 L 72 245 Z M 114 245 L 117 249 L 118 249 L 117 246 L 114 245 Z M 119 246 L 118 248 L 118 250 L 122 258 L 124 257 L 121 253 L 122 251 L 123 255 L 126 257 L 121 247 L 119 246 Z M 85 256 L 85 259 L 88 261 L 87 258 L 85 256 Z M 125 257 L 123 259 L 127 268 L 127 267 L 129 266 L 131 269 L 128 268 L 127 270 L 133 271 L 129 261 Q 128 258 127 260 L 125 257 Z M 160 259 Q 156 260 157 265 L 160 266 L 161 266 L 159 263 L 160 261 L 160 259 Z M 203 259 L 201 262 Q 200 264 203 263 L 203 259 Z M 115 263 L 114 266 L 116 266 L 115 263 Z M 123 265 L 122 268 L 123 268 L 123 265 Z M 65 271 L 66 274 L 69 272 L 65 271 Z M 172 271 L 172 272 L 174 272 L 172 271 Z M 69 272 L 70 275 L 69 279 L 70 280 Q 72 279 71 275 L 74 275 L 73 279 L 75 279 L 78 275 Q 80 274 79 278 L 82 276 L 84 277 Q 88 278 87 275 L 76 273 L 74 273 L 69 272 Z M 154 273 L 154 274 L 157 274 L 154 273 Z M 221 273 L 224 285 L 228 292 Q 226 298 232 296 L 234 300 L 234 304 L 237 304 Q 236 307 239 306 L 239 303 L 244 295 Q 250 286 262 283 Q 269 285 268 281 L 249 275 L 235 274 L 234 273 L 221 273 Z M 209 274 L 206 275 Q 205 278 208 277 L 209 277 L 208 279 L 210 278 Q 209 275 214 276 L 215 274 L 211 275 L 209 274 Z M 216 274 Q 215 277 218 276 L 217 278 L 218 279 L 219 276 L 216 274 Z M 88 275 L 87 278 L 88 279 L 92 277 L 92 280 L 94 279 L 97 280 L 100 279 L 88 275 Z M 201 275 L 201 278 L 205 277 L 201 275 Z M 192 277 L 172 281 L 172 283 Q 173 287 170 288 L 167 287 L 167 289 L 165 293 L 166 297 L 168 298 L 167 296 L 171 291 L 175 292 L 176 295 Q 176 299 174 299 L 170 298 L 168 299 L 172 303 L 176 302 L 178 306 Q 181 307 177 309 L 183 316 Q 185 315 184 318 L 187 320 L 186 318 Q 185 315 188 316 Q 190 315 188 314 L 189 310 L 188 310 Q 182 312 183 308 L 186 307 Q 191 309 190 305 L 188 306 Q 185 307 186 305 Q 187 302 191 303 L 192 301 L 190 302 Q 186 303 187 300 L 190 299 Q 192 300 191 297 Q 189 295 192 294 L 193 297 L 194 293 L 193 293 Q 189 294 191 290 L 195 289 L 195 287 L 192 288 Q 190 284 194 285 L 195 283 L 193 284 L 192 280 L 196 279 Q 197 275 192 277 Z M 101 279 Q 100 282 104 281 L 102 286 L 104 286 L 105 284 L 109 281 L 109 285 L 113 282 L 112 280 Q 104 281 101 279 Z M 164 281 L 162 283 Q 161 287 164 286 L 164 281 Z M 219 281 L 220 284 L 220 286 L 213 296 L 214 297 L 221 287 Q 223 280 219 281 Z M 86 282 L 85 284 L 87 283 L 86 282 Z M 127 282 L 125 294 L 127 300 Q 124 301 129 303 L 130 303 L 127 297 L 130 296 L 129 298 L 132 301 L 132 298 Q 135 297 134 300 L 136 299 L 139 305 L 141 304 L 141 297 L 140 301 Q 137 302 138 299 L 138 297 L 143 296 L 145 300 L 144 305 L 140 308 L 141 312 L 143 312 Q 140 314 140 319 Q 137 320 138 318 L 136 316 L 136 315 L 135 313 L 138 312 L 137 315 L 139 315 L 138 307 L 137 307 L 135 307 L 136 302 L 135 302 L 134 301 L 133 301 Q 132 305 134 307 L 133 309 L 132 308 L 131 310 L 129 311 L 132 312 L 133 310 L 133 312 L 133 314 Q 134 316 132 315 L 132 317 L 129 318 L 132 320 L 143 322 L 156 327 Q 158 328 157 326 L 158 326 L 157 328 L 160 328 L 159 327 L 161 327 L 164 326 L 172 329 L 176 329 L 176 328 Q 173 329 174 326 L 170 325 L 167 321 L 168 319 L 153 299 L 152 301 L 153 302 L 151 301 L 152 299 L 143 286 L 140 282 L 127 282 Z M 157 282 L 158 286 L 160 287 L 159 285 Q 160 281 157 282 Z M 167 282 Q 166 285 169 284 Q 170 281 167 282 Z M 88 283 L 88 285 L 90 284 L 88 283 Z M 215 283 L 213 286 L 215 285 L 215 283 Z M 73 284 L 74 287 L 75 285 L 73 284 Z M 92 285 L 92 287 L 94 286 L 92 285 Z M 265 285 L 253 290 Q 242 297 240 312 Q 240 327 247 335 L 256 342 Q 259 343 258 340 L 263 339 L 264 342 L 265 337 L 269 335 L 272 335 L 271 339 L 274 337 L 276 339 L 274 345 L 277 345 L 279 345 L 288 340 Q 296 333 299 322 L 298 307 L 291 294 L 281 287 L 274 285 L 265 285 Z M 78 286 L 76 288 L 78 288 L 78 286 Z M 82 286 L 82 288 L 84 287 L 82 286 Z M 86 287 L 85 290 L 87 290 L 88 288 L 86 287 Z M 98 287 L 96 289 L 98 289 L 98 287 Z M 223 287 L 221 290 Q 220 292 223 291 L 222 295 L 225 293 L 223 287 Z M 162 288 L 162 292 L 165 290 L 162 288 Z M 90 291 L 88 294 L 91 292 L 90 291 Z M 75 292 L 73 294 L 75 294 L 75 292 Z M 93 292 L 89 300 L 91 300 L 95 294 Q 96 291 93 292 Z M 99 292 L 98 295 L 99 295 L 99 292 Z M 172 294 Q 170 297 173 296 L 172 294 Z M 209 294 L 205 300 L 206 301 L 209 296 L 209 294 Z M 86 295 L 84 300 L 86 300 L 87 296 L 89 296 L 86 295 Z M 218 295 L 215 300 L 216 301 L 219 296 L 218 295 Z M 225 296 L 221 302 L 222 303 L 225 298 L 225 296 Z M 77 297 L 75 299 L 77 299 L 77 297 Z M 80 298 L 80 300 L 82 299 L 80 298 Z M 101 299 L 99 301 L 101 301 L 101 299 Z M 227 299 L 225 302 L 228 300 L 227 299 Z M 124 302 L 123 308 L 125 314 L 128 316 L 128 315 L 128 313 L 125 310 L 126 308 L 124 304 L 126 304 L 124 302 Z M 208 302 L 207 306 L 208 306 L 208 302 Z M 218 302 L 216 305 L 218 304 L 218 302 Z M 229 302 L 227 305 L 229 304 L 229 302 Z M 231 302 L 230 305 L 231 305 L 231 302 Z M 131 303 L 132 305 Q 133 302 131 303 Z M 221 303 L 219 305 L 221 305 L 221 303 Z M 128 305 L 130 308 L 131 308 L 128 305 Z M 213 305 L 211 308 L 213 307 L 213 305 Z M 227 305 L 224 309 L 225 310 L 227 307 L 227 305 Z M 237 310 L 235 313 L 237 312 L 237 310 Z M 129 313 L 130 315 L 131 315 L 129 313 Z M 222 314 L 217 322 L 218 323 L 222 316 L 222 314 Z M 237 314 L 234 320 L 237 318 L 237 314 Z M 238 322 L 236 326 L 238 325 L 238 322 Z M 203 323 L 204 325 Q 205 322 203 323 Z M 222 324 L 220 328 Q 218 329 221 330 L 222 327 L 222 324 Z M 239 325 L 237 329 L 239 328 L 239 325 Z M 128 328 L 125 330 Q 118 338 115 350 L 111 367 L 110 380 L 108 385 L 111 394 L 115 395 L 118 393 L 116 389 L 119 385 L 120 379 Q 125 377 127 381 Q 128 385 125 387 L 128 395 L 127 399 Q 127 404 131 404 L 133 401 L 135 402 L 138 400 L 142 394 Q 143 391 140 392 Q 139 387 142 386 Q 147 385 148 390 Q 150 396 147 398 L 150 407 Q 152 410 154 406 L 156 408 L 158 407 L 160 404 L 160 402 L 162 398 L 160 393 Q 161 389 166 390 L 167 396 L 169 398 L 169 404 L 176 408 L 177 412 L 180 410 L 182 411 L 184 410 L 183 408 Q 182 403 185 403 Q 187 394 183 392 L 184 388 L 189 387 L 191 390 L 192 397 L 194 396 L 202 399 L 203 400 L 202 396 Q 201 390 205 389 L 207 390 L 210 389 L 211 387 L 208 384 L 204 380 Q 203 374 207 372 L 212 373 L 216 377 L 217 376 L 219 377 L 223 383 L 225 383 L 222 381 L 224 377 Q 230 376 232 380 L 235 379 Q 237 374 231 376 L 227 371 L 219 368 L 212 358 L 204 351 L 202 349 L 193 342 L 193 344 L 192 343 L 189 344 L 188 341 L 186 342 Q 183 341 184 345 L 182 345 L 182 342 Q 185 343 184 341 L 186 341 Q 185 338 188 339 L 190 342 L 191 341 L 188 337 L 179 340 L 174 339 L 172 339 L 171 341 Q 169 345 168 342 L 162 342 L 154 344 L 149 350 L 147 362 L 141 364 L 138 362 L 142 358 Q 143 351 140 349 Q 140 340 146 337 L 137 332 L 131 331 L 128 328 Z M 164 329 L 162 331 L 163 336 L 165 331 L 166 332 L 166 337 L 164 336 L 162 339 L 168 339 L 169 337 Q 166 336 167 331 L 164 329 Z M 243 334 L 241 340 L 245 341 L 243 339 L 244 337 L 244 339 L 246 339 L 243 334 Z M 269 337 Q 265 340 265 346 L 260 348 L 261 345 L 261 342 L 258 348 Q 257 351 260 350 L 261 351 L 264 348 L 265 350 Q 267 349 265 348 L 267 348 Q 269 347 267 346 L 269 339 L 269 337 Z M 247 339 L 248 341 Q 249 338 247 339 Z M 274 339 L 270 345 Q 269 347 272 346 L 274 341 L 274 339 Z M 241 342 L 240 343 Q 236 342 237 345 L 235 346 Q 227 344 228 348 L 232 350 Q 235 349 234 352 L 236 351 L 251 357 L 268 357 L 270 355 Q 276 356 278 353 Q 279 350 276 351 L 272 353 L 268 352 L 266 353 L 263 352 Q 256 354 257 350 Q 246 350 241 342 Z M 248 342 Q 246 345 249 344 L 248 342 Z M 250 342 L 249 345 Q 250 347 256 346 L 255 344 L 253 345 L 251 345 L 253 344 L 250 342 Z M 288 343 L 284 346 L 285 347 L 289 344 L 288 343 Z M 279 347 L 274 349 Q 275 351 277 349 L 284 351 L 284 350 L 282 348 L 279 347 Z M 270 348 L 268 350 L 270 350 L 271 351 L 270 348 Z M 211 377 L 210 381 L 212 380 L 217 383 Q 219 384 218 382 Q 217 379 214 380 L 211 377 Z M 123 387 L 122 393 L 123 393 L 123 387 Z M 144 395 Q 144 399 146 396 L 144 395 Z M 143 398 L 138 404 L 138 405 L 143 401 L 143 398 Z M 186 403 L 187 408 L 185 415 L 180 413 L 176 415 L 173 412 L 171 411 L 171 421 L 173 428 L 172 433 L 173 435 L 173 446 L 182 458 L 185 470 Q 193 472 198 478 Q 197 480 201 479 L 202 476 L 202 467 L 199 459 L 197 448 Q 196 437 201 432 L 203 429 L 211 422 L 190 404 L 186 403 Z M 134 404 L 132 407 L 137 406 L 134 404 Z M 157 409 Q 156 412 159 411 Q 160 408 157 409 Z M 260 424 L 250 431 Q 251 433 253 431 L 255 432 L 258 431 Q 260 432 258 434 L 261 439 L 261 442 L 268 442 Q 271 442 270 438 L 270 436 L 269 431 Q 267 426 260 426 L 260 424 Z M 241 427 L 241 429 L 243 428 L 241 427 Z M 246 428 L 242 433 L 246 430 L 248 430 Q 249 427 246 428 Z M 239 433 L 222 471 L 220 486 Q 229 484 236 479 L 243 471 L 248 467 Q 249 464 247 465 L 246 466 L 243 463 L 240 464 L 238 461 L 231 455 L 238 449 L 242 451 L 243 451 L 241 448 Q 236 449 235 447 L 241 438 Q 242 435 239 436 L 239 433 Z M 273 434 L 272 437 L 273 437 L 273 434 Z M 253 435 L 253 437 L 249 440 L 251 440 L 249 444 L 251 444 L 253 450 L 255 448 L 262 446 L 261 442 L 259 443 Q 259 438 256 437 Q 257 433 253 435 Z M 255 450 L 255 452 L 252 453 L 249 452 L 252 455 L 257 452 Q 258 449 255 450 Z M 260 452 Q 257 457 261 456 L 260 452 Z M 279 455 L 279 456 L 284 456 L 279 455 Z M 254 457 L 250 459 L 254 459 L 254 457 Z M 275 458 L 265 461 L 260 465 Q 257 464 258 467 L 234 487 L 223 489 L 228 503 L 229 503 L 230 501 L 237 501 L 237 498 L 243 497 L 254 490 L 256 485 L 270 476 L 279 474 Q 288 475 294 480 L 299 486 Q 301 485 300 488 L 307 493 L 317 497 Q 322 496 324 498 Q 326 497 325 500 L 313 498 L 302 493 L 298 489 Q 292 479 279 476 L 271 478 L 263 483 L 257 490 Q 252 497 242 499 L 241 501 L 251 501 L 263 494 L 267 490 L 280 487 L 300 497 L 310 499 L 313 501 L 333 501 Q 334 501 333 496 L 332 496 L 323 495 L 314 491 L 291 472 L 280 468 Q 268 469 262 475 L 252 486 L 242 494 L 234 497 Q 226 498 227 496 Q 229 492 236 494 L 248 487 L 257 475 L 273 467 Q 277 468 279 466 L 293 471 L 313 488 L 324 493 Q 330 492 333 494 L 332 486 Q 320 488 314 482 L 307 474 Q 299 464 287 459 L 275 458 Z M 86 464 L 86 468 Q 85 470 88 469 Q 89 465 86 464 Z M 92 465 L 89 472 L 93 474 L 94 466 L 92 465 Z M 249 468 L 245 473 L 241 478 L 251 470 Q 252 467 249 468 Z M 58 469 L 47 473 Q 38 482 25 487 Q 23 490 22 488 L 20 489 L 12 489 L 12 494 L 15 493 L 18 494 L 32 492 L 48 481 L 51 481 L 56 478 L 71 479 L 102 494 L 115 497 L 131 494 L 133 495 L 153 484 L 156 484 L 151 473 L 148 474 L 148 475 Q 152 474 150 478 L 143 480 L 131 489 L 122 492 Q 115 490 114 493 L 103 491 L 99 489 L 87 479 Q 84 480 85 478 Q 80 472 72 470 L 58 469 Z M 186 472 L 185 477 Q 193 478 197 484 L 198 482 L 192 475 L 186 472 Z M 205 477 L 203 480 L 205 480 L 205 477 Z M 238 479 L 237 481 L 239 480 L 238 479 Z M 57 480 Q 46 484 39 491 L 26 496 L 12 496 L 12 501 L 21 501 L 22 500 L 24 501 L 26 500 L 29 501 L 31 500 L 45 500 L 46 501 L 48 499 L 51 499 L 59 495 L 69 495 L 80 499 L 81 499 L 82 502 L 114 502 L 116 502 L 124 501 L 127 502 L 128 501 L 139 501 L 138 498 L 141 498 L 152 492 L 158 491 L 159 494 L 154 494 L 142 500 L 142 501 L 151 501 L 158 498 L 161 499 Q 163 498 162 501 L 164 501 L 163 497 L 157 485 L 156 487 L 154 486 L 140 495 L 117 499 L 108 499 L 80 487 L 72 482 L 59 480 L 57 480 Z M 184 480 L 184 486 L 190 488 Q 193 489 192 494 Q 189 495 190 492 L 183 489 L 184 493 L 183 495 L 190 496 L 191 500 L 183 497 Q 185 500 184 507 L 187 506 L 205 506 L 203 502 Q 201 505 196 503 L 194 503 L 186 503 L 185 501 L 197 501 L 194 499 L 193 497 L 196 491 L 196 488 Q 191 482 184 480 Z M 236 481 L 230 484 L 230 485 L 236 483 L 236 481 Z M 132 483 L 130 484 L 129 486 Q 133 486 133 484 L 132 483 Z M 126 486 L 125 488 L 128 487 L 126 486 Z M 200 487 L 199 493 L 203 495 L 204 495 Q 205 498 203 497 L 203 498 L 206 497 L 208 504 L 212 502 L 213 505 L 213 506 Q 215 505 214 508 L 213 510 L 215 509 L 218 509 Q 217 512 221 511 L 221 514 L 218 513 L 219 517 L 219 515 L 223 517 L 222 519 L 228 520 L 240 520 L 238 516 L 236 513 L 230 511 L 227 507 Q 226 504 225 506 Q 221 507 222 504 L 218 503 L 219 498 L 205 488 L 200 487 Z M 278 489 L 269 491 L 266 494 Q 263 493 264 496 L 258 499 L 257 501 L 260 500 L 262 501 L 264 501 L 278 496 L 284 496 Q 285 499 291 498 L 294 501 L 302 501 L 304 501 L 306 501 Q 304 498 299 499 L 284 490 L 278 489 Z M 59 497 L 54 500 L 66 500 L 75 502 L 79 502 L 73 500 L 68 497 L 59 497 Z M 279 498 L 273 500 L 276 501 L 284 501 L 285 502 L 291 501 L 279 498 Z M 39 502 L 38 503 L 11 503 L 11 518 L 12 519 L 11 590 L 36 590 L 40 591 L 42 591 L 72 591 L 73 590 L 88 590 L 89 591 L 107 591 L 108 590 Q 113 589 115 591 L 177 590 L 179 590 L 181 591 L 183 590 L 184 591 L 202 591 L 203 592 L 204 591 L 221 591 L 222 590 L 224 591 L 233 591 L 234 590 L 237 591 L 241 590 L 252 590 L 253 591 L 297 591 L 300 590 L 320 590 L 321 591 L 333 591 L 333 591 L 333 510 Q 332 507 327 508 L 325 508 L 321 509 L 319 508 L 317 508 L 304 508 L 303 509 L 263 509 L 262 508 L 260 509 L 257 508 L 255 509 L 250 508 L 248 508 L 233 510 L 237 511 L 241 517 L 241 518 L 243 519 L 243 524 L 225 523 L 219 521 L 213 517 L 210 512 L 207 508 L 187 508 L 189 514 L 189 516 Q 189 522 192 526 L 192 533 Q 189 537 183 538 L 179 543 Q 176 548 169 550 L 149 556 L 143 556 L 143 553 L 149 542 L 160 533 L 166 523 Q 165 517 168 516 Q 169 510 166 508 L 162 509 L 140 507 L 138 507 L 136 508 L 123 508 L 122 509 L 83 509 L 80 510 L 65 509 L 64 508 L 54 508 L 53 507 L 41 507 L 40 506 L 12 506 L 13 504 L 36 504 L 38 504 L 64 506 L 65 507 L 75 507 L 77 507 L 81 508 L 83 507 L 100 507 L 101 506 Q 102 509 108 507 L 110 507 Q 118 504 131 506 L 132 505 L 166 506 L 165 503 Q 158 501 157 504 L 154 503 L 151 504 L 142 503 L 140 503 Q 135 502 134 504 L 100 504 L 99 505 L 78 505 L 63 502 L 62 503 L 52 503 L 50 503 Q 44 505 43 502 L 41 503 L 39 502 Z M 230 503 L 230 507 Q 232 510 234 506 L 240 507 L 242 507 L 248 506 L 250 506 L 255 507 L 257 506 L 264 507 L 267 506 L 269 507 L 274 506 L 278 507 L 280 507 L 333 506 L 333 504 L 325 504 L 323 504 L 320 503 L 317 504 L 315 504 L 306 504 L 305 503 L 303 504 L 283 504 L 281 504 L 280 503 L 255 503 L 253 503 L 251 504 L 239 504 L 238 503 L 236 504 Q 231 505 230 503 Z M 216 511 L 215 513 L 217 512 L 216 511 Z M 184 519 L 179 522 L 176 526 Q 177 530 173 528 Q 173 536 168 539 L 163 538 L 164 535 L 164 533 L 162 536 Q 161 539 156 538 Q 148 544 146 553 Q 152 554 156 550 L 165 549 L 176 544 L 177 542 L 175 541 L 177 538 L 178 541 L 179 539 L 178 535 L 182 536 L 181 534 L 185 529 Q 187 525 189 527 L 187 521 L 184 519 Z M 168 523 L 167 527 L 170 525 L 173 526 L 173 524 L 168 523 Z M 167 527 L 164 532 L 165 533 L 167 531 L 167 529 L 167 527 Z M 166 534 Q 165 537 168 536 Q 169 533 166 534 Z "></path><path d="M 162 15 L 186.5 15 L 188 16.5 L 186.5 19 Q 181.3 17.8 180 20.5 L 180 31.5 L 181.5 33 L 188 33 L 188 35.5 Q 187.3 37.8 183.5 37 L 180.5 36 Q 178.7 38.8 172.5 37 L 169.5 36 L 165.5 37 L 161 36 L 161 33 L 168 33 L 168 19 L 162.5 20 L 162 15 Z M 172 19 L 172 32 L 174 33 L 176 32 L 176 23 L 175 22 Q 176 17 172 19 Z "></path><path d="M 44.5 180 L 48 193.5 L 50.5 198 L 57.5 197 L 59.5 198 L 61.5 197 L 62.5 199 L 52 206.5 L 57 220.5 Q 55.3 223.8 53.5 220 L 42.5 212 L 29.5 223 L 29 220.5 L 34 206.5 L 25.5 199 L 23 199 L 23.5 197 L 37.5 197 L 44.5 180 Z M 45 185 L 40 197 L 43 197 L 44 199 L 40 198 Q 36 201 37 206 L 42 209 Q 48 209 50 205 L 49 203 Q 51 198 47 199 L 47 198 L 45 185 Z M 28 198 L 28 200 L 35 204 L 37 200 L 28 198 Z M 51 199 L 53 204 L 57 201 Q 58 198 51 199 Z M 51 207 L 47 210 Q 44 209 45 212 L 50 214 L 54 218 L 51 207 Z M 37 208 L 33 215 L 34 217 L 39 213 Q 41 214 40 211 L 37 208 Z "></path><path d="M 160.5 180 L 159.5 182 L 160.5 180 Z "></path><path d="M 170 183 L 172 183.5 L 170 184.5 L 170 183 Z "></path><path d="M 158.5 184 L 161.5 185 L 163.5 184 L 164 186.5 Q 164.8 188.8 162.5 188 L 157 185.5 L 158.5 184 Z "></path><path d="M 155.5 187 L 153.5 190 L 153 188 L 155.5 187 Z "></path><path d="M 157.5 188 Q 161.3 187.3 162 189.5 Q 163.5 193.9 160.5 193 L 158.5 193 L 155 190.5 L 157.5 188 Z "></path><path d="M 164.5 190 L 166 193.5 Q 167.5 201.1 164 200 L 165 195.5 L 163 192.5 L 164.5 190 Z "></path><path d="M 151.5 191 L 155 192 L 154.5 194 L 152.5 193 L 151 193.5 L 151.5 191 Z "></path><path d="M 149.5 193 L 150 195 L 146 194.5 L 149.5 193 Z "></path><path d="M 162.5 194 L 161 196.5 L 159.5 200 Q 156.2 201.1 157 198.5 L 156.5 197 L 160 199 Q 159.3 195.2 162.5 194 Z "></path><path d="M 143 196 L 145 196.5 L 143 197.5 L 143 196 Z "></path><path d="M 142.5 199 L 144.5 200 L 146.5 199 L 146.5 200 L 143.5 201 L 142.5 199 Z "></path><path d="M 154.5 199 L 155 201 Q 152.3 199.9 153 202.5 L 152 202.5 L 154.5 199 Z "></path><path d="M 141.5 204 L 142 205.5 L 140.5 209 L 139 205 L 141.5 204 Z "></path><path d="M 151.5 204 L 152.5 206 L 150 205.5 L 151.5 204 Z "></path><path d="M 148.5 207 L 148 208.5 L 148 211 L 144 213 L 142 208 Q 145 206.8 144 210.5 L 146 209.5 Q 145.3 207.3 147.5 208 L 148.5 207 Z "></path><path d="M 141 213 Q 144 211.8 143 215.5 L 141 214.5 L 141 213 Z "></path><path d="M 146.5 216 Q 149.8 214.9 149 217.5 L 147.5 217 L 146.5 216 Z "></path><path d="M 138.5 224 L 139.5 226 Q 136.7 226.7 138.5 224 Z "></path><path d="M 133.5 225 L 134 227 L 132 226.5 L 133.5 225 Z "></path><path d="M 125.5 229 L 126 231 L 128 231.5 L 126 232.5 L 125.5 229 Z "></path><path d="M 165.5 235 L 167 235.5 L 164.5 239 L 164 236.5 L 165.5 235 Z "></path><path d="M 131.5 236 L 134 239.5 L 132 240 L 131.5 236 Z "></path><path d="M 137.5 237 L 138 239.5 L 137 241.5 L 138 243.5 L 137 243.5 L 135 239.5 L 137.5 237 Z "></path><path d="M 140.5 238 L 144 239 Q 145.9 241.8 145 248 L 143 248 L 143 240.5 L 141 240 Q 142.7 245.2 139 244 L 139 240 L 140.5 240 L 140.5 238 Z "></path><path d="M 132.5 242 L 137 249.5 L 136 249.5 L 132 243.5 L 132.5 242 Z "></path><path d="M 141.5 246 L 142 247.5 L 140 248.5 L 141.5 246 Z "></path><path d="M 156.5 246 L 159 246.5 L 156.5 247 L 156.5 246 Z "></path><path d="M 146 247 L 148 247.5 L 147 250.5 Q 149.3 251.8 146.5 253 L 146 247 Z "></path><path d="M 138.5 249 L 140 251.5 L 137 251.5 L 138.5 249 Z "></path><path d="M 141.5 252 Q 144.1 251.2 143 254.5 L 142 254.5 L 141.5 252 Z "></path><path d="M 194.5 252 L 195 254 L 193 253.5 L 194.5 252 Z "></path><path d="M 166.5 255 L 167 257.5 L 166 257.5 L 166.5 255 Z "></path><path d="M 141.5 256 L 144 259.5 L 143 259.5 L 141.5 256 Z "></path><path d="M 153.5 259 L 153 260.5 L 152.5 263 Q 149 261 153.5 259 Z "></path><path d="M 145.5 261 L 146 263.5 L 145 263.5 L 145.5 261 Z "></path><path d="M 178.5 263 Q 181.5 264.5 178.5 266 Q 176.3 266.8 177 264.5 L 178.5 263 Z "></path><path d="M 97.5 271 Q 99.8 270.3 99 272.5 L 97.5 271 Z "></path><path d="M 128 285 Q 132.1 283.3 131 287.5 L 132.5 290 L 133.5 288 L 134 291.5 L 132.5 291 L 130 289.5 L 128 285 Z "></path><path d="M 133.5 285 L 136 285.5 L 133.5 286 L 133.5 285 Z "></path><path d="M 140.5 285 L 141.5 287 L 140.5 285 Z "></path><path d="M 128.5 289 L 129 294.5 L 128 294.5 L 128.5 289 Z "></path><path d="M 137.5 289 L 140 289 L 140 294.5 L 138 293.5 L 138 291.5 L 137.5 289 Z "></path><path d="M 135.5 290 L 137 295.5 L 136.5 298 L 134 296.5 L 136 295.5 Q 133.7 294.2 135.5 290 Z "></path><path d="M 142 292 L 144 292 Q 142.9 294.7 145.5 294 L 145.5 292 Q 148.5 292.5 148 296.5 L 145 298 L 143.5 295 Q 140.5 295.7 142 292 Z "></path><path d="M 131.5 293 L 132 296.5 L 131 296.5 L 131.5 293 Z "></path><path d="M 269.5 293 Q 272.5 292.1 271 296.5 Q 274.8 301.5 275 309 Q 277.8 307.1 284 308 L 283.5 310 L 277 310 L 277 312.5 L 278 315 L 286 310.5 Q 283.8 309.3 286.5 308 L 288.5 309 L 290 308.5 Q 291.1 311.8 288.5 311 L 279 317.5 L 284 331.5 L 283 334 L 268.5 324 L 260.5 330 L 254 332 L 259 317.5 L 248 309.5 Q 247.1 306.5 251.5 308 L 254.5 307 Q 256.3 309.8 262.5 308 L 269.5 293 Z M 269 298 L 269 300 L 267 306 L 267 308 L 272 308 L 270 302 Q 271 297 269 298 Z M 256 310 Q 256 313 261 314 L 262 310 L 260 311 L 256 310 Z M 266 310 L 264 317 L 270 321 L 276 317 L 274 312 Q 272 308 266 310 Z M 263 319 L 259 327 L 260 328 L 266 324 L 263 319 Z M 276 319 L 274 321 Q 271 320 272 324 L 280 329 L 277 321 Q 278 318 276 319 Z "></path><path d="M 146.5 299 L 148 303.5 L 146 304.5 L 146.5 299 Z "></path><path d="M 153.5 303 L 153 304.5 L 152.5 306 L 151.5 304 L 153.5 303 Z "></path><path d="M 156.5 306 L 158 308.5 L 156 307.5 L 156.5 306 Z "></path><path d="M 142 307 Q 145 306 144 309 Q 141 310 142 307 Z "></path><path d="M 155.5 309 L 158 312.5 L 157 312.5 Q 157.7 309.9 155 311 L 155.5 309 Z "></path><path d="M 185.5 311 L 187 314 L 184.5 315 Q 181 313 185.5 311 Z "></path><path d="M 150.5 312 Q 153.5 311.1 152 315.5 L 151 315.5 L 150.5 312 Z "></path><path d="M 156.5 317 Q 159.5 316.1 158 320.5 L 157 320.5 L 156.5 317 Z "></path><path d="M 147 320 L 149 320.5 L 147.5 323 L 147 320 Z "></path><path d="M 154.5 322 L 155 324 L 153 323.5 L 154.5 322 Z "></path><path d="M 172.5 341 L 171.5 343 L 172.5 341 Z "></path><path d="M 178.5 345 L 179.5 347 Q 176.7 347.7 178.5 345 Z "></path><path d="M 196.5 346 L 200 348.5 L 198 348.5 L 199 350.5 L 197.5 350 Q 194 350.8 196.5 346 Z "></path><path d="M 203.5 352 L 204.5 354 L 203.5 352 Z "></path><path d="M 114.5 363 L 115 365.5 L 114 365.5 L 114.5 363 Z "></path><path d="M 213.5 367 L 214 368.5 L 212 369.5 L 213.5 367 Z "></path><path d="M 134.5 397 L 135 399.5 L 134 399.5 L 134.5 397 Z "></path><path d="M 57.5 485 L 70.5 485 Q 81.8 488.2 89.5 495 L 94.5 497 L 98.5 497 L 103 499.5 L 100.5 501 L 88.5 498 Q 80.7 491.3 69.5 488 L 56.5 488 L 44 494 Q 45.1 496.7 42.5 496 L 36.5 499 L 33.5 499 Q 30.5 497.5 33.5 496 L 41.5 494 L 46.5 490 L 57.5 485 Z "></path><path d="M 314.5 529 L 316.5 530 L 318.5 530 L 321 531.5 Q 322.1 534.8 319.5 534 L 314.5 535 L 313.5 533 L 318 532.5 L 314.5 531 L 312 532 L 312 538 L 320.5 538 L 321 540 L 317 540.5 L 321 541 L 320.5 543 L 313.5 543 L 311 544 Q 309.9 546.7 312.5 546 L 314.5 545 L 316.5 545 L 319.5 546 L 325 545 L 324.5 547 L 311.5 547 L 311 549 L 326.5 549 L 328 550.5 Q 329.5 554.9 326.5 554 L 321.5 556 L 319.5 555 L 318.5 556 L 311 556 L 312 576.5 L 309 578 L 310 572.5 L 308 561.5 L 309 558.5 L 307.5 556 Q 300.5 554.5 301 557.5 L 301.5 559 Q 297.5 559.5 297 556.5 Q 300.5 552.8 308 554 Q 309.5 550.2 306.5 551 L 304.5 551 L 302.5 552 L 298 549.5 L 299.5 547 L 308 546 L 307.5 544 L 299 544 L 299 540 L 306.5 539 L 310 536.5 L 309 530 L 314.5 529 Z M 312 540 Q 311 544 316 542 Q 317 538 312 540 Z M 304 541 L 304 542 L 308 542 L 304 541 Z M 302 548 L 302 550 L 308 550 L 308 548 L 302 548 Z M 318 550 L 317 551 Q 309 549 311 554 L 324 554 L 325 553 Q 327 554 326 552 Q 324 548 318 550 Z "></path><path d="M 341.5 543 L 344 543.5 L 341.5 544 L 341.5 543 Z "></path><path d="M 341 545 Q 344.8 543.5 344 546.5 L 341.5 551 L 341 548.5 L 341 546.5 L 341 545 Z "></path><path d="M 341 552 Q 345.1 550.7 344 554 Q 339.9 555.3 341 552 Z "></path><path d="M 342.5 555 Q 344.8 554.3 344 556.5 L 342.5 555 Z "></path><path d="M 314 558 Q 318.1 556.7 317 560 Q 312.9 561.3 314 558 Z "></path><path d="M 342.5 578 L 343.5 580 L 340 579.5 L 342.5 578 Z "></path><path d="M 340.5 588 L 341 591.5 L 340 591.5 L 340.5 588 Z "></path><path d="M 344.5 588 L 346 590.5 L 343.5 592 L 344.5 588 Z "></path></svg>