<svg width="350" height="600" version="1.1" xmlns="http://www.w3.org/2000/svg" desc="Created with imagetracer.js version 1.2.5"><path d="M 196.5 4 L 202.5 5 L 205.5 4 L 207.5 5 L 209.5 5 L 232.5 5 L 234.5 4 L 235.5 5 L 256.5 5 L 259.5 4 L 261.5 4 L 264.5 5 L 336 5 L 337 9.5 L 337 48.5 L 336 50.5 L 337 51.5 L 337 63.5 L 336 66.5 L 337 67.5 L 337 78.5 L 336 83.5 L 337 85.5 L 336 86.5 L 336 95.5 Q 338.8 97.2 337 103.5 Q 334.3 105.2 336 111.5 L 336 113.5 L 337 115.5 L 337 126.5 L 336 128.5 L 337 130.5 L 336 131.5 L 336 188.5 L 336 190.5 L 336 225.5 L 337 228.5 L 336 230.5 L 337 231.5 L 337 253.5 L 337 255.5 L 337 306.5 L 336 307.5 L 337 308.5 L 337 320.5 L 336 323.5 L 337 326.5 L 337 328.5 L 337 571.5 L 338 575.5 L 337 579.5 L 337 581.5 Q 335.3 589.7 338 593.5 Q 336.3 597.8 334.5 595 Q 329.8 596.3 328.5 594 L 324.5 595 L 319.5 594 L 317.5 594 L 303.5 594 L 301.5 595 L 300.5 594 L 201.5 594 L 199.5 594 L 196.5 595 Q 195 592.5 189.5 594 Q 187.8 596.7 181.5 595 L 179.5 595 L 111.5 595 L 108.5 596 L 107.5 595 L 91.5 595 L 88.5 596 L 86.5 596 L 72.5 596 L 70.5 595 L 69.5 596 L 30.5 596 L 29.5 597 L 28.5 596 L 4 596 L 3 592.5 L 3 541.5 L 4 538.5 L 3 534.5 L 4 529.5 L 4 527.5 L 3 518.5 L 4 517.5 L 4 437.5 L 5 432.5 Q 2.5 431 4 425.5 L 5 423.5 L 4 422.5 L 4 385.5 L 4 383.5 L 4 342.5 L 5 341.5 L 5 328.5 L 5 326.5 L 4 322.5 L 5 321.5 L 5 173.5 L 6 172.5 L 6 123.5 L 5 121.5 L 6 120.5 L 6 83.5 L 7 80.5 L 7 78.5 L 6 63.5 L 7 60.5 L 6 55.5 L 7 54.5 L 7 7.5 L 8.5 6 Q 14 4.5 15.5 7 L 16.5 6 L 28.5 6 L 30.5 7 L 33.5 6 L 38.5 7 L 39.5 6 L 48.5 6 L 50.5 7 L 52.5 7 L 58.5 6 L 60.5 6 L 64.5 7 L 68.5 6 L 70.5 7 L 71.5 6 L 81.5 6 L 83.5 6 L 86.5 7 L 87.5 6 L 143.5 6 L 145.5 5 L 147.5 6 L 148.5 5 L 162.5 5 L 164.5 6 L 165.5 5 L 195.5 5 L 196.5 4 Z M 154 7 Q 152 10 146 8 L 122 20 L 95 37 Q 67 58 43 84 Q 44 86 42 85 L 21 109 L 9 126 L 9 128 Q 7 129 10 130 L 27 108 Q 26 105 29 106 Q 33 97 42 91 Q 41 88 44 89 L 44 87 L 46 87 L 51 81 L 88 48 L 132 18 L 143 15 L 185 15 L 187 15 L 191 14 L 194 14 Q 196 18 203 19 L 242 43 L 244 47 L 250 50 L 280 78 L 281 81 L 288 87 Q 287 89 290 88 L 301 101 Q 300 103 303 102 L 316 118 L 332 141 L 333 141 L 332 133 Q 324 118 312 107 Q 313 104 310 105 L 306 99 L 293 85 L 262 54 L 241 37 L 230 30 L 194 12 L 185 10 L 182 8 L 155 8 L 154 7 Z M 199 7 L 196 8 Q 195 12 200 10 L 200 12 L 236 30 L 250 40 L 273 60 L 275 64 L 290 77 Q 289 79 292 78 L 305 94 L 308 96 Q 307 98 310 97 L 312 99 L 306 90 L 299 84 L 294 77 L 273 57 Q 270 58 271 55 L 266 52 L 249 37 L 225 22 Q 222 23 223 21 L 219 17 Q 213 19 214 16 Q 208 9 199 7 Z M 212 7 L 210 9 L 212 9 L 213 10 L 212 7 Z M 219 7 L 217 9 L 218 13 L 226 16 L 228 15 Q 230 14 229 17 L 225 18 L 239 27 L 241 24 L 243 25 L 242 30 L 247 33 L 257 33 Q 258 31 259 34 Q 260 36 256 35 L 255 39 L 274 55 L 278 57 L 281 58 L 298 57 L 300 48 L 299 46 L 300 43 L 299 37 L 298 35 L 294 36 L 288 34 Q 284 37 276 35 L 275 36 L 272 35 L 273 33 L 282 33 Q 285 32 284 27 L 287 26 L 288 27 L 288 32 Q 292 34 301 33 L 302 34 L 308 33 Q 309 37 304 35 L 302 37 L 302 47 L 301 48 L 303 59 Q 290 57 283 62 L 288 65 L 289 68 L 297 75 L 299 78 Q 300 80 302 78 L 308 81 L 304 83 L 324 104 L 327 103 Q 329 102 327 101 L 328 95 L 331 97 L 331 104 L 333 104 L 332 98 L 333 83 L 331 82 L 330 85 Q 328 88 326 84 L 326 82 L 315 82 L 314 80 Q 320 81 322 77 Q 325 76 323 80 L 333 79 L 334 74 L 333 71 L 333 55 L 334 54 L 334 45 L 333 44 L 334 34 L 332 35 L 330 34 L 321 36 L 320 34 L 322 34 L 327 33 L 327 27 L 328 26 Q 327 23 331 24 L 330 27 Q 329 30 332 31 L 334 31 L 334 26 L 334 24 L 333 15 Q 328 13 329 17 L 326 17 L 321 14 Q 315 16 314 13 L 312 14 L 310 13 L 303 15 L 301 15 Q 297 16 298 13 L 306 12 L 307 8 L 302 7 L 287 7 L 286 8 L 281 7 L 260 7 L 261 14 L 263 13 L 265 14 L 263 18 L 256 16 L 254 16 L 239 19 L 236 15 L 252 15 L 257 13 L 256 8 L 255 8 L 252 7 L 249 8 L 247 7 L 230 7 L 229 8 L 228 7 L 219 7 Z M 314 7 L 313 8 Q 308 6 309 10 L 311 11 Q 320 10 325 13 L 327 12 L 333 12 L 333 8 L 331 7 L 326 8 L 324 8 L 322 7 L 320 8 Q 318 6 314 7 Z M 11 8 L 10 11 L 10 40 L 9 41 Q 8 46 10 48 Q 12 54 9 56 L 9 65 L 10 66 L 9 96 L 8 97 L 9 99 L 8 101 L 9 103 Q 10 107 8 109 Q 7 111 10 110 L 12 107 Q 11 100 15 98 L 15 101 L 19 98 Q 18 95 21 96 L 24 91 Q 25 88 23 89 L 20 90 L 13 89 L 17 87 L 20 88 Q 24 88 26 85 L 25 83 Q 23 76 28 78 Q 27 83 30 84 L 46 67 L 46 65 L 44 66 L 40 65 L 40 63 L 45 63 L 46 61 L 45 58 L 48 56 L 48 63 Q 56 60 61 53 Q 63 54 62 52 L 72 43 Q 75 44 73 40 L 84 34 L 96 24 L 95 21 L 102 21 L 112 15 Q 115 16 113 12 L 115 12 L 117 12 L 120 10 Q 122 11 121 8 L 85 9 L 83 9 L 75 9 L 74 8 L 73 9 L 59 9 L 57 9 L 50 8 L 48 8 L 47 9 L 36 9 L 34 9 L 15 9 L 11 8 Z M 131 9 L 98 26 L 92 31 Q 89 30 90 33 L 78 42 Q 75 41 76 44 L 72 47 Q 69 46 70 49 L 48 69 Q 49 71 47 70 L 31 87 L 9 115 L 8 120 Q 7 123 10 122 Q 17 108 28 98 L 31 96 L 39 86 Q 38 83 41 84 L 47 77 L 73 53 L 75 49 L 80 47 L 81 44 L 103 28 L 105 28 L 119 18 L 123 17 L 134 10 L 131 9 Z M 185 17 L 178 18 L 179 23 L 179 32 L 193 32 L 193 34 L 220 51 L 258 85 L 263 91 Q 265 90 264 93 L 273 100 Q 275 99 274 102 L 278 104 L 320 154 L 331 173 L 333 174 L 333 146 L 298 100 L 296 100 L 296 98 Q 293 99 294 97 L 277 80 L 271 72 Q 268 73 269 71 Q 250 51 227 36 L 192 17 L 185 17 Z M 141 18 L 121 28 L 91 49 Q 88 48 89 51 L 69 67 L 65 72 L 55 80 Q 35 98 19 120 L 9 134 L 8 139 L 9 158 L 25 138 L 26 135 L 51 107 L 72 87 L 75 82 L 79 81 L 94 68 L 96 64 L 122 45 L 138 36 L 139 34 L 141 32 L 156 32 L 158 31 L 157 28 L 158 25 L 157 22 L 157 18 L 141 18 Z M 163 19 L 163 21 L 163 31 Q 165 34 166 31 L 165 29 L 166 27 L 166 19 L 163 19 Z M 171 19 L 171 31 L 173 31 L 173 20 L 171 19 Z M 176 34 L 175 35 L 144 35 L 131 42 L 109 57 L 82 80 L 78 85 L 71 90 Q 34 122 8 164 L 8 173 L 10 173 Q 27 142 51 117 Q 53 118 52 115 L 54 115 L 61 107 Q 63 108 62 106 L 93 77 Q 95 78 94 75 L 112 62 Q 114 63 113 60 L 136 45 L 153 37 L 155 38 L 135 48 L 95 78 L 55 117 Q 56 119 53 118 L 37 140 L 30 147 L 8 179 L 9 191 L 14 180 Q 26 167 34 150 L 49 131 L 53 128 Q 52 125 55 126 L 59 121 Q 58 118 61 119 L 61 117 L 63 117 L 67 112 Q 66 109 69 110 L 72 105 L 79 101 L 99 82 L 102 80 L 103 78 L 129 58 L 131 58 L 151 45 L 167 38 L 185 46 L 198 56 L 206 60 L 219 71 L 221 71 L 271 116 Q 270 118 273 117 Q 287 131 298 148 Q 297 150 300 149 L 301 153 L 321 180 L 332 202 L 333 202 Q 334 195 332 192 L 314 164 L 293 134 L 275 113 Q 272 114 273 112 Q 248 85 220 63 L 218 63 L 189 43 L 178 39 L 180 36 L 216 57 L 249 84 L 274 109 Q 276 108 275 111 L 278 113 Q 277 115 280 114 L 281 117 L 286 120 L 307 148 L 314 160 L 322 169 L 330 185 L 333 187 L 332 179 Q 325 163 314 152 Q 315 149 312 150 Q 309 143 303 138 L 301 136 L 273 105 L 252 84 L 249 81 L 229 62 Q 226 63 227 61 L 190 34 L 183 34 L 181 34 L 179 35 L 176 34 Z M 164 41 L 145 51 L 127 63 Q 102 83 86 111 L 73 138 L 69 149 L 69 154 Q 66 157 66 164 L 64 167 L 65 170 L 69 172 L 75 173 L 90 179 Q 92 180 91 177 L 67 170 L 68 161 L 72 154 L 74 144 L 79 131 L 92 106 L 106 87 L 141 56 L 150 50 L 167 42 L 189 54 L 190 54 L 170 41 L 164 41 Z M 166 46 L 155 50 L 133 64 Q 130 63 131 66 L 119 77 L 116 81 L 112 83 L 92 111 L 77 143 L 78 145 L 86 125 L 95 112 L 99 103 L 125 74 Q 127 75 126 73 L 137 63 L 153 53 L 164 48 L 171 48 L 166 46 Z M 165 49 Q 133 64 112 89 Q 113 91 110 90 L 101 103 Q 97 115 89 125 L 82 144 L 79 148 L 75 166 L 88 171 L 96 172 L 108 176 L 124 179 L 131 179 L 137 181 L 149 181 L 150 182 L 170 182 L 171 181 L 182 181 L 183 180 L 195 180 L 232 171 L 234 171 L 260 162 L 259 155 L 256 148 L 257 144 L 263 163 L 251 168 L 234 172 L 225 176 L 218 177 L 216 177 L 208 180 L 191 183 Q 186 184 185 182 L 184 183 L 172 183 L 171 184 L 154 184 L 152 184 L 150 183 L 148 184 L 146 184 L 144 183 L 133 183 L 109 178 L 103 179 L 116 182 L 133 184 L 135 184 L 137 185 L 148 185 L 149 186 L 179 185 L 181 184 L 186 185 L 188 184 L 191 185 L 197 183 L 204 183 L 217 180 L 219 180 L 228 177 L 232 177 L 266 164 L 262 149 L 250 123 L 227 89 L 206 69 Q 203 68 204 71 L 211 75 L 230 96 L 249 126 L 256 143 L 255 143 L 241 117 L 220 87 L 209 76 L 204 74 L 201 71 L 180 55 L 165 49 Z M 175 49 L 179 53 L 180 53 L 175 49 Z M 196 57 L 199 61 L 213 71 L 219 78 Q 221 77 220 80 L 222 80 L 230 89 L 232 92 L 236 95 Q 230 83 220 75 Q 217 76 218 73 L 196 57 Z M 197 63 L 203 69 L 204 69 L 197 63 Z M 237 95 L 236 97 L 238 98 L 237 95 Z M 239 98 L 239 102 L 250 120 L 251 120 L 248 112 L 239 98 Z M 313 99 L 312 101 L 319 108 L 330 124 L 333 126 L 333 124 L 323 111 Q 324 108 321 109 L 317 102 L 313 99 Z M 333 105 L 327 108 L 331 115 L 333 116 L 333 105 Z M 252 120 L 251 122 L 264 147 L 270 165 L 254 172 L 216 184 L 213 183 L 209 185 Q 203 183 204 187 L 229 183 L 242 179 L 273 166 L 264 143 L 254 123 L 252 120 Z M 74 155 L 73 159 L 74 159 L 74 155 Z M 73 159 L 70 168 L 75 170 L 76 170 L 73 168 L 73 159 Z M 273 169 L 236 184 L 213 189 L 207 189 L 205 189 Q 201 192 193 191 L 191 191 L 190 192 L 175 192 L 174 193 L 170 192 L 166 193 L 163 192 Q 157 191 156 193 L 155 192 L 142 192 L 141 191 L 131 191 L 130 190 L 119 189 L 117 189 Q 111 185 103 185 L 101 185 L 91 181 L 80 179 L 77 177 L 74 178 Q 88 185 99 197 L 102 199 L 125 229 L 139 254 L 147 270 L 151 282 L 153 284 L 157 300 L 159 303 L 162 319 L 163 321 L 177 321 L 179 310 L 179 303 L 182 294 L 182 290 L 191 265 L 207 234 L 224 212 Q 226 213 225 210 L 227 210 L 244 194 Q 254 185 269 179 L 273 179 L 290 193 L 295 200 L 301 204 Q 318 224 332 249 Q 331 251 334 250 L 333 243 L 320 223 L 297 196 L 280 180 L 272 175 L 270 172 L 275 173 L 288 183 L 301 196 L 302 196 L 294 186 Q 291 187 292 185 Q 284 175 273 169 Z M 83 171 L 82 173 L 85 173 L 83 171 Z M 65 172 L 60 174 L 28 201 Q 25 200 26 203 L 22 205 L 7 224 L 8 228 L 29 202 L 35 199 L 52 184 L 69 175 L 65 172 Z M 86 173 L 86 174 L 99 178 L 103 178 L 86 173 Z M 67 178 L 59 182 L 43 195 Q 40 194 41 197 L 33 203 Q 34 205 32 204 L 21 216 L 18 217 L 7 233 L 8 234 L 24 214 L 28 212 L 30 209 L 50 192 L 66 182 L 74 184 L 76 186 Q 79 185 78 188 L 88 194 L 89 197 L 97 202 L 102 210 L 105 211 L 126 242 L 134 257 L 148 290 L 148 293 L 154 309 L 155 319 L 158 320 L 156 305 L 147 279 L 137 257 L 122 230 L 118 227 L 118 225 L 103 205 L 81 184 L 72 179 L 67 178 Z M 93 178 L 94 180 L 97 180 L 93 178 Z M 98 180 Q 97 182 100 181 L 101 182 Q 102 179 98 180 Z M 103 181 Q 102 184 105 183 Q 106 180 103 181 Z M 269 181 L 252 191 L 233 207 Q 234 209 232 208 L 222 219 L 210 236 L 202 249 L 201 254 L 192 270 L 185 291 L 185 297 L 183 302 L 181 320 L 185 319 L 185 306 L 189 289 L 196 269 L 209 243 L 228 218 Q 245 199 269 187 L 278 190 L 293 205 Q 292 207 295 206 L 296 210 L 304 218 L 322 245 L 331 263 L 333 264 L 333 256 L 329 248 L 300 208 L 272 181 L 269 181 Z M 108 182 L 109 184 L 110 184 L 108 182 Z M 114 184 L 114 185 L 117 186 L 118 186 Q 117 183 114 184 Z M 66 185 L 54 192 L 37 206 L 29 215 L 25 218 Q 26 220 24 219 L 7 240 L 8 251 Q 15 233 27 221 L 52 199 L 62 192 L 67 191 L 78 198 Q 80 197 79 200 L 82 200 L 92 209 L 113 234 L 121 247 L 139 283 L 142 291 L 143 300 L 139 299 Q 127 298 123 306 L 125 311 L 122 310 L 123 313 L 122 319 L 120 321 L 122 325 Q 122 313 129 308 Q 133 302 141 301 L 143 301 L 146 302 L 149 305 L 144 288 L 135 267 L 132 264 L 130 256 L 106 218 L 101 213 L 94 205 L 77 189 L 72 186 L 66 185 Z M 120 185 L 121 187 L 129 187 L 130 188 L 130 186 L 120 185 Z M 131 186 Q 130 189 135 188 L 137 188 L 151 190 L 153 190 L 192 189 L 194 189 L 198 188 L 200 188 L 203 187 L 203 186 L 179 187 L 176 188 L 174 187 L 173 188 L 156 188 L 155 189 L 154 188 L 143 188 L 131 186 Z M 303 196 L 304 201 L 308 203 L 319 217 L 332 237 Q 331 239 334 238 L 328 227 Q 329 224 326 225 L 308 200 L 303 196 Z M 48 223 L 47 227 L 48 227 L 48 223 Z M 36 226 L 34 228 L 35 233 L 37 230 L 36 226 Z M 31 228 L 29 231 L 30 235 L 31 233 L 31 231 L 31 228 Z M 54 228 L 46 233 Q 37 236 38 247 L 36 248 L 40 248 Q 42 253 37 251 L 38 257 L 39 257 Q 38 253 41 254 Q 43 255 42 261 L 49 265 L 58 264 L 59 263 L 58 259 Q 55 258 56 262 L 52 263 Q 49 264 50 261 L 48 261 Q 47 257 50 258 L 51 261 L 51 260 L 51 258 Q 52 255 54 257 L 57 246 L 61 245 L 65 247 L 67 242 L 66 238 Q 65 235 69 236 L 69 235 L 68 232 Q 70 233 69 231 L 68 229 L 54 228 Z M 79 231 L 78 234 L 79 234 L 79 231 Z M 87 233 L 86 236 L 87 236 L 87 233 Z M 73 234 L 72 236 Q 68 237 71 239 L 69 243 L 74 243 L 73 234 Z M 96 235 L 96 237 L 98 236 L 96 235 Z M 21 237 L 21 240 Q 24 239 21 237 Z M 29 239 L 26 244 L 27 249 L 23 249 L 24 245 L 24 241 L 21 248 L 19 245 L 15 251 L 17 253 L 15 256 L 17 256 L 16 260 L 17 276 L 23 275 L 28 266 L 28 261 L 35 253 L 36 248 Q 33 247 34 250 L 30 251 L 27 246 L 29 242 L 29 239 Z M 94 239 L 94 241 L 96 240 L 94 239 Z M 88 244 L 86 247 L 87 250 L 88 247 L 88 244 Z M 70 245 L 68 247 L 71 247 L 70 245 Z M 102 245 L 102 247 L 104 246 L 102 245 Z M 106 245 L 106 246 L 109 246 L 106 245 Z M 68 247 L 67 253 L 59 255 L 63 264 L 74 267 Q 75 264 72 263 Q 71 260 74 261 L 74 257 L 78 257 Q 74 254 75 248 L 73 251 L 70 250 L 68 247 Z M 82 249 L 81 254 L 82 254 L 82 249 Z M 8 252 L 7 260 L 8 260 L 8 252 Z M 94 253 L 94 255 L 96 254 L 94 253 Z M 11 254 L 10 258 L 11 258 L 11 254 Z M 104 255 L 101 256 L 100 258 L 105 256 L 104 255 Z M 15 256 L 12 260 L 13 261 L 15 258 L 15 256 Z M 89 257 L 88 260 L 89 260 L 89 257 Z M 79 258 L 80 263 L 81 260 Q 82 257 79 258 Z M 94 258 L 92 260 L 93 266 L 94 264 L 94 258 Z M 88 260 L 86 267 L 88 266 L 88 260 Z M 40 261 L 39 266 L 41 265 L 40 261 Z M 98 261 L 97 264 L 98 264 L 98 261 Z M 35 265 L 34 271 L 35 271 L 35 265 Z M 56 265 L 45 268 L 43 272 L 45 272 Q 47 268 49 272 Q 53 269 61 270 L 62 274 Q 63 278 59 276 L 59 279 L 57 279 L 55 279 L 50 282 L 46 290 L 38 296 L 39 297 Q 42 293 48 293 L 48 301 L 49 302 Q 50 306 47 308 L 47 315 L 50 324 L 55 321 L 57 323 L 54 325 Q 49 324 50 327 L 56 326 Q 58 327 57 331 L 57 333 L 61 333 L 60 337 L 61 340 L 65 337 L 68 339 L 73 332 L 73 327 L 69 335 Q 68 337 64 336 L 66 333 L 61 331 Q 62 327 66 328 L 67 332 L 68 327 L 69 325 L 64 326 L 62 324 Q 63 321 65 323 L 71 321 L 70 319 L 68 318 Q 70 324 63 321 Q 61 323 60 321 Q 59 318 63 319 L 63 317 L 59 316 L 61 314 L 65 314 L 69 314 Q 68 317 71 316 L 71 307 L 78 296 L 82 293 L 84 293 Q 89 292 87 296 L 83 297 L 77 304 Q 79 302 81 305 L 83 303 L 82 302 L 80 303 L 81 301 L 84 302 L 85 299 L 91 295 L 96 294 L 96 297 L 97 297 L 96 290 L 95 293 L 93 290 L 95 290 L 94 288 L 91 284 Q 83 283 80 278 L 72 276 L 73 272 L 67 271 L 67 270 L 52 269 L 54 267 L 60 267 Q 59 264 56 265 Z M 79 265 L 78 269 L 79 269 L 79 265 Z M 261 267 L 262 271 L 261 275 L 258 274 L 258 272 L 256 276 L 255 272 L 254 275 L 252 275 Q 253 272 251 273 L 251 272 L 251 270 L 246 278 Q 248 282 250 279 L 252 280 Q 254 279 253 282 L 258 280 Q 260 279 259 282 Q 261 285 263 284 L 262 289 L 263 290 Q 257 291 255 289 L 253 306 L 251 309 L 243 312 Q 249 311 251 314 L 253 314 L 251 313 L 258 305 Q 262 304 260 309 L 253 313 L 256 314 L 257 318 L 260 313 L 263 319 L 261 324 L 258 319 L 257 321 L 255 322 L 256 320 L 256 318 L 254 321 L 251 316 L 246 317 L 244 320 L 246 319 Q 248 318 247 321 L 243 323 Q 238 324 239 331 L 236 333 L 231 339 L 232 340 L 240 334 Q 242 333 241 336 L 242 337 L 239 340 L 241 344 Q 242 347 240 346 L 238 349 L 237 347 L 235 347 L 237 343 L 235 342 L 234 347 L 232 346 Q 229 345 230 348 L 228 348 L 229 351 Q 230 353 227 352 Q 225 356 229 355 L 231 358 Q 228 359 229 356 L 227 355 Q 220 360 220 372 Q 221 374 223 372 L 225 376 L 223 382 L 222 378 L 220 382 L 219 382 L 222 377 Q 224 378 223 376 L 221 376 Q 222 373 219 374 L 220 377 L 218 380 Q 219 383 217 382 L 217 381 L 217 378 L 216 380 L 215 380 L 216 376 L 215 375 L 212 379 L 208 378 L 204 382 L 200 392 Q 201 395 199 394 Q 196 393 197 388 L 195 407 L 194 408 Q 192 416 195 420 L 194 419 L 193 435 L 192 436 L 193 438 L 192 440 L 193 442 Q 194 446 192 448 L 193 449 L 193 457 L 194 457 Q 193 452 196 453 L 197 455 L 198 452 Q 196 446 197 438 L 196 437 L 196 423 L 194 423 Q 193 420 196 421 L 195 415 L 196 413 L 195 411 L 196 403 Q 197 400 199 402 L 203 388 L 207 383 Q 206 380 209 381 L 208 383 L 209 387 L 211 386 L 212 392 L 214 388 Q 219 387 221 391 L 220 393 Q 222 398 218 397 L 218 395 L 217 399 L 216 398 L 214 397 Q 211 398 212 395 L 211 395 L 212 400 L 211 402 L 208 400 L 208 387 L 202 403 L 200 402 L 201 405 L 200 407 L 201 412 L 200 415 L 201 432 L 201 427 L 202 427 Q 201 430 204 429 Q 205 426 207 428 L 205 417 L 205 415 L 204 407 L 207 405 L 208 407 L 208 419 L 212 430 L 212 425 L 215 423 L 216 421 L 211 409 L 210 413 L 209 413 Q 208 407 212 405 L 217 414 L 222 428 L 224 427 L 235 434 L 236 437 L 233 439 L 237 440 L 239 445 L 238 447 Q 239 450 237 449 L 237 448 Q 238 445 235 446 L 236 443 Q 237 440 234 441 L 234 449 L 235 450 L 232 450 Q 233 447 229 448 L 228 444 L 229 441 Q 228 437 231 438 Q 232 440 233 438 L 223 430 L 221 433 L 220 430 L 219 433 L 215 432 L 212 431 L 214 439 L 219 448 Q 221 453 228 454 L 231 458 L 230 459 L 220 454 L 220 459 L 219 455 L 217 459 L 216 456 L 215 458 L 214 458 L 216 452 L 216 449 L 213 454 Q 214 457 211 456 L 209 452 L 212 448 Q 211 445 214 446 L 208 429 L 207 429 L 208 433 Q 210 438 204 436 Q 203 439 206 438 L 205 441 L 207 466 L 211 477 L 213 486 L 214 482 Q 216 483 215 487 L 213 487 L 214 494 L 219 503 L 219 500 L 219 498 L 220 501 Q 222 505 224 502 L 223 504 L 225 510 L 221 508 L 223 513 L 231 521 L 232 521 L 229 517 Q 228 514 231 515 Q 230 520 235 522 L 234 525 L 232 526 L 217 511 L 215 504 L 213 502 L 209 485 L 208 483 L 203 484 L 200 483 L 200 486 L 204 491 L 204 495 L 208 497 L 210 500 L 216 515 L 220 521 L 233 531 L 248 538 Q 250 537 249 532 L 251 533 L 251 557 L 253 557 L 254 554 L 258 551 L 272 551 L 273 552 Q 276 553 277 551 Q 279 544 276 543 L 279 541 L 279 509 L 280 508 L 279 506 L 279 498 L 277 498 Q 278 495 276 496 L 276 498 L 276 499 L 273 497 Q 270 496 271 492 L 273 492 L 271 491 L 274 489 L 272 488 L 277 486 L 278 490 L 277 493 L 279 493 L 280 488 L 280 462 L 281 461 L 282 443 L 280 444 Q 281 447 276 445 L 272 441 L 274 435 L 277 436 L 279 435 L 280 438 Q 279 440 278 438 L 276 439 L 279 441 L 281 441 L 282 440 L 284 415 L 284 413 Q 286 406 285 396 L 286 395 L 286 379 L 287 374 L 290 370 L 291 378 L 294 376 L 295 384 L 296 382 L 295 381 L 295 371 L 294 370 L 294 359 L 294 355 L 295 352 Q 297 345 294 344 L 295 342 L 295 328 L 294 327 L 294 312 L 295 311 L 294 310 L 294 302 L 290 288 L 280 275 L 280 273 L 279 273 Q 272 267 261 267 Z M 86 269 Q 84 272 87 271 L 86 269 Z M 11 270 L 10 275 L 11 275 L 11 270 Z M 97 271 L 95 275 L 96 284 L 97 278 L 97 271 Z M 78 273 L 79 275 L 80 275 L 78 273 Z M 91 273 L 90 278 Q 88 279 91 280 L 92 278 L 91 273 Z M 33 275 L 31 277 Q 27 276 28 279 L 33 277 L 33 275 Z M 81 275 L 82 277 Q 83 274 81 275 Z M 9 278 L 9 280 Q 6 279 7 286 L 10 284 Q 13 286 10 287 L 8 288 L 8 295 L 11 295 L 13 294 Q 12 291 15 292 L 13 298 L 13 304 L 10 303 Q 12 296 8 297 L 8 306 L 10 306 L 13 311 L 12 314 Q 17 315 19 313 L 18 312 L 15 310 L 14 306 L 15 299 Q 19 298 18 301 L 20 301 L 18 296 L 19 287 L 22 285 L 23 278 L 21 279 L 18 278 Q 12 277 11 279 L 9 278 Z M 104 285 L 103 295 L 105 295 L 104 294 L 104 285 Z M 99 287 L 98 290 L 99 290 L 99 287 Z M 40 288 L 37 290 L 36 292 L 41 289 L 40 288 Z M 108 291 Q 106 294 109 293 L 108 291 Z M 34 292 L 33 294 L 35 293 L 34 292 Z M 109 295 Q 106 296 107 300 L 111 298 Q 112 294 109 295 Z M 119 295 L 117 296 L 111 302 L 107 313 L 110 314 L 112 318 L 114 317 L 117 309 L 114 302 L 122 298 L 119 295 Z M 43 298 L 36 302 L 37 304 L 44 299 L 43 298 Z M 91 298 L 88 299 L 90 311 L 90 319 L 91 320 L 90 324 L 92 331 Q 93 335 89 333 L 87 328 L 87 314 L 86 305 Q 83 311 84 321 L 83 322 Q 82 327 85 329 Q 86 333 83 334 L 86 339 L 85 341 Q 84 348 88 350 Q 87 352 91 351 L 92 354 Q 87 354 85 350 L 84 352 L 93 357 L 96 357 L 95 356 L 104 350 L 107 342 L 104 340 L 105 343 L 102 349 L 97 350 L 102 341 L 102 332 L 100 330 L 101 325 L 101 321 L 99 324 Q 100 327 97 326 L 99 320 L 99 310 L 98 309 L 98 306 Q 95 307 96 305 L 96 303 L 98 304 L 98 302 L 94 298 L 91 298 Z M 120 301 L 118 303 L 119 306 L 119 304 L 122 303 Q 123 300 120 301 Z M 44 303 L 43 305 L 45 304 L 44 303 Z M 101 304 L 102 311 L 105 310 L 103 307 Q 104 303 101 304 Z M 138 304 L 134 307 L 127 315 L 130 315 L 128 324 L 131 323 L 132 327 L 132 329 L 133 331 L 140 328 Q 145 324 147 318 L 147 308 Q 145 303 138 304 Z M 41 305 L 39 308 L 42 306 L 41 305 Z M 76 306 L 75 311 L 76 311 L 76 306 Z M 42 310 L 40 311 L 37 315 L 43 312 Q 44 309 42 310 Z M 81 311 L 79 314 L 80 316 L 79 326 L 77 331 L 80 335 L 80 333 L 83 333 L 80 328 Q 78 321 81 320 L 81 311 Z M 9 313 L 8 320 L 14 323 L 20 323 Q 21 318 18 316 L 12 317 L 9 313 Z M 103 314 L 102 319 L 103 321 L 103 328 L 105 328 L 107 332 L 107 323 L 104 322 Q 103 318 106 319 L 110 326 L 112 325 L 111 320 L 103 314 Z M 152 314 Q 152 318 149 320 L 150 324 L 149 323 L 148 326 L 156 330 L 159 329 L 160 332 L 156 331 L 151 332 Q 153 335 159 334 L 162 335 L 177 335 L 182 333 Q 184 334 183 331 L 179 332 L 166 332 L 165 330 Q 178 332 185 328 L 186 326 Q 185 323 188 324 L 190 319 L 187 317 L 188 320 L 176 323 L 163 323 L 162 325 L 157 322 L 154 322 L 152 321 L 152 314 Z M 201 314 Q 199 317 196 316 Q 195 319 198 318 L 198 321 L 200 320 L 200 324 L 202 323 Q 204 322 203 329 L 204 329 Q 203 323 207 325 Q 208 330 206 333 L 202 330 L 200 327 L 197 326 L 196 328 L 207 335 L 209 334 L 208 333 Q 206 325 211 327 Q 209 333 213 335 L 213 330 L 216 328 L 217 335 Q 220 336 216 338 L 205 337 L 202 335 L 201 337 L 207 339 L 209 340 Q 210 342 207 341 Q 206 344 209 343 L 211 343 L 221 340 L 229 334 L 227 331 L 228 327 L 227 324 L 229 324 L 228 323 L 226 321 L 223 319 L 223 321 L 221 319 L 220 319 L 222 325 L 209 323 L 204 320 L 201 314 Z M 35 315 L 35 317 L 37 316 L 35 315 Z M 42 316 L 37 321 L 37 323 L 44 320 Q 46 315 42 316 Z M 194 316 L 192 319 L 194 318 L 194 316 Z M 259 316 L 258 319 L 259 319 L 259 316 Z M 214 318 Q 211 322 215 321 L 214 318 Z M 228 318 L 226 320 L 228 320 L 228 318 Z M 218 319 L 216 321 L 218 322 L 218 319 Z M 116 321 L 114 323 Q 113 327 116 326 L 116 336 L 113 336 L 111 350 L 109 349 L 107 352 L 109 353 Q 108 350 112 351 L 113 349 Q 112 345 115 346 L 115 360 L 114 361 L 112 356 L 111 376 L 114 375 L 115 378 L 115 380 Q 116 385 114 387 Q 111 388 112 386 L 111 386 L 111 394 L 108 394 L 108 384 L 111 383 L 112 384 L 112 379 L 111 382 L 108 381 L 109 376 L 108 375 L 108 357 L 107 362 L 104 363 L 104 357 L 105 356 L 104 353 L 102 369 L 102 371 Q 104 376 101 378 L 101 402 L 103 403 L 103 375 L 104 372 L 103 367 L 106 365 L 107 368 L 106 371 L 107 409 L 107 401 L 110 399 Q 109 395 113 394 L 114 396 L 115 405 L 115 389 L 117 387 L 118 389 L 118 406 L 119 406 L 119 388 L 118 387 L 119 376 L 115 375 Q 118 371 116 363 L 118 361 L 119 365 L 119 367 L 119 374 L 121 374 L 122 371 L 122 369 L 122 345 L 121 339 L 120 342 L 117 343 L 117 329 L 119 327 L 116 321 Z M 9 323 L 9 352 L 9 345 L 11 344 L 10 360 L 8 363 L 8 390 L 7 391 L 8 392 L 8 402 L 9 403 L 9 434 L 10 435 L 9 439 L 9 441 L 10 443 L 10 498 L 11 499 L 10 502 L 11 504 L 16 501 L 17 501 L 17 474 L 16 471 L 17 469 L 16 464 L 17 454 L 17 452 L 16 451 L 16 430 L 19 431 L 19 485 L 19 487 L 20 490 L 19 493 L 20 499 L 24 498 L 23 496 L 23 466 L 22 465 L 23 461 L 22 458 L 23 454 L 22 452 Q 20 441 25 438 L 24 437 Q 25 426 23 419 L 22 419 L 23 424 L 23 433 L 22 433 L 20 432 L 20 410 L 19 424 L 19 426 L 18 429 L 16 428 L 16 417 L 17 416 L 16 415 L 16 403 L 16 401 L 17 397 L 16 395 L 16 393 L 17 360 L 19 357 L 17 353 L 20 337 L 23 332 L 22 329 L 19 333 L 18 341 L 15 342 Q 14 334 17 330 L 17 326 L 13 339 L 10 340 L 11 336 Q 12 332 9 333 L 9 327 L 10 326 L 9 323 Z M 44 323 L 41 325 L 40 327 L 45 325 Q 46 322 44 323 Z M 193 323 L 191 325 L 194 325 L 193 323 Z M 26 324 L 25 326 L 27 327 L 26 324 Z M 230 324 L 229 328 L 231 333 L 232 333 L 231 328 L 230 324 Z M 189 325 L 189 327 L 191 326 L 189 325 Z M 12 327 L 11 331 L 12 331 L 12 327 Z M 124 327 Q 122 330 125 329 L 124 327 Z M 191 327 L 191 329 Q 194 328 193 331 L 197 334 L 196 336 L 199 336 L 200 335 L 198 332 L 191 327 Z M 46 328 L 44 329 L 41 333 L 47 331 L 46 328 Z M 28 329 L 28 333 L 27 336 L 28 338 L 28 337 L 30 337 Q 31 331 28 329 Z M 188 332 Q 187 338 192 340 Q 195 341 194 338 L 188 332 Z M 53 333 L 54 335 L 57 334 L 53 333 Z M 106 333 L 105 339 L 106 339 L 106 333 Z M 122 333 L 121 337 L 122 337 L 122 333 Z M 48 334 L 46 336 L 48 336 L 48 334 Z M 76 334 L 72 340 L 68 344 Q 62 345 59 349 Q 58 352 61 351 L 63 348 L 66 350 L 65 352 L 63 351 L 61 352 Q 66 354 67 360 L 72 363 L 71 367 L 74 375 L 74 385 L 76 391 L 76 396 L 86 415 Q 87 424 91 431 L 91 439 L 93 438 L 93 415 L 92 414 L 93 410 L 93 387 L 92 386 L 92 373 L 91 372 L 92 370 L 91 359 L 89 359 L 85 356 L 81 352 Q 80 348 83 349 L 84 350 Q 80 347 81 341 L 79 342 L 73 340 L 76 338 L 77 339 L 76 334 Z M 182 335 L 176 337 Q 165 338 158 336 L 156 336 Q 152 335 153 338 L 159 339 L 161 338 L 172 340 L 182 337 L 182 335 Z M 196 336 L 195 339 L 196 339 L 196 336 Z M 56 337 L 51 339 Q 46 338 47 341 L 51 343 L 51 340 L 56 339 L 56 337 Z M 24 338 L 22 343 Q 21 345 24 344 L 24 338 Z M 225 338 L 225 340 L 218 344 L 208 346 Q 206 344 205 347 L 206 349 L 206 347 L 209 347 L 209 354 L 207 355 L 208 353 Q 209 350 207 351 L 205 351 Q 202 356 196 357 L 199 357 L 200 357 L 197 361 L 200 362 L 203 361 L 206 362 L 196 368 Q 192 369 193 373 L 200 373 L 208 369 Q 211 368 210 371 L 211 372 L 208 371 L 198 375 L 194 375 Q 191 375 191 371 L 198 365 Q 200 366 199 363 L 196 362 Q 193 363 194 360 L 196 357 L 181 363 L 179 367 L 176 369 L 176 371 Q 171 375 173 386 L 177 385 L 183 386 L 184 388 L 191 385 Q 192 383 193 386 L 185 391 Q 184 393 188 392 Q 189 388 191 392 L 189 400 L 180 408 L 181 409 L 187 403 L 189 403 L 187 407 L 191 407 L 193 397 L 193 391 L 195 386 Q 197 381 199 384 L 201 380 L 205 376 L 212 375 L 217 371 L 213 365 L 216 363 L 217 366 L 219 365 L 219 358 L 218 360 L 212 356 L 213 354 L 218 358 L 218 357 L 214 353 Q 211 352 212 349 L 224 343 L 227 340 Q 228 337 225 338 Z M 28 339 L 27 345 L 27 347 Q 25 352 26 361 L 24 366 L 25 369 L 29 361 L 31 358 L 35 355 Q 35 350 40 348 L 42 351 L 43 349 L 38 345 L 35 345 Q 36 342 34 343 L 32 343 L 32 344 L 28 344 L 29 342 L 28 339 Z M 181 339 Q 176 341 179 343 L 178 346 L 179 347 L 182 341 Q 183 338 181 339 Z M 31 340 L 32 342 Q 33 339 31 340 Z M 154 340 L 154 352 L 154 354 L 153 357 L 153 566 L 157 566 L 157 520 L 156 519 L 156 465 L 157 464 L 156 453 L 156 451 L 157 446 L 156 443 L 157 438 L 157 423 L 159 414 Q 158 404 154 397 L 155 386 L 157 381 L 157 379 L 156 375 L 157 373 Q 159 366 156 365 L 156 351 L 157 350 L 156 347 Q 158 339 154 340 Z M 160 341 L 159 366 L 160 366 L 160 341 Z M 163 341 L 164 373 L 170 368 L 170 351 L 171 350 Q 172 344 170 342 L 163 341 Z M 173 341 L 173 365 L 175 364 L 175 342 L 173 341 Z M 203 344 L 202 348 L 203 348 L 203 344 Z M 46 345 L 46 348 L 47 348 Q 48 344 46 345 Z M 226 345 L 222 346 L 223 350 L 224 350 Q 223 347 226 348 Q 229 347 226 345 Z M 55 346 L 54 349 L 55 349 L 55 346 Z M 188 348 L 187 351 L 188 351 L 188 348 Z M 182 349 L 181 352 L 182 352 L 182 349 Z M 52 353 L 51 356 L 52 356 L 52 353 Z M 220 353 Q 218 356 221 355 L 220 353 Z M 42 359 L 39 360 L 40 363 L 42 362 L 42 359 Z M 99 359 L 98 363 L 99 363 L 99 359 Z M 20 360 L 21 366 L 21 368 L 20 369 L 20 384 L 19 385 L 20 386 L 20 396 L 20 398 L 19 409 L 20 409 Q 19 406 22 407 L 22 400 L 21 399 L 21 386 L 21 384 L 23 362 L 20 360 Z M 63 360 L 64 366 L 63 368 L 65 371 L 62 373 L 65 373 Q 67 374 65 376 L 67 380 L 66 382 Q 68 381 67 385 L 64 386 L 66 386 L 67 390 L 65 391 L 67 391 L 66 400 L 64 399 L 61 401 L 62 402 L 68 402 L 68 405 Q 67 407 62 407 Q 67 406 68 409 L 66 412 L 69 417 Q 70 420 67 419 L 65 422 L 67 421 L 72 422 L 73 422 L 72 421 L 72 410 L 71 409 L 71 398 L 70 397 L 70 388 L 71 387 L 69 384 L 70 382 Q 72 375 69 374 Q 70 370 67 371 L 64 364 Q 65 359 63 360 Z M 31 363 L 32 366 L 34 365 L 31 363 Z M 40 364 L 38 366 Q 37 369 41 368 L 42 365 L 40 364 Z M 48 364 L 46 366 L 48 366 L 48 364 Z M 29 366 Q 28 369 31 368 Q 32 365 29 366 Z M 97 366 L 97 371 L 99 371 L 99 366 L 97 366 Z M 174 367 L 162 379 L 157 390 L 158 391 L 167 380 L 170 378 L 172 372 L 175 369 Q 176 366 174 367 Z M 48 369 L 46 372 L 48 371 L 48 369 Z M 160 369 L 159 372 L 160 372 L 160 369 Z M 36 371 Q 35 374 38 373 L 41 372 L 36 371 Z M 53 371 L 53 375 L 54 375 Q 55 370 53 371 Z M 31 373 L 29 375 Q 28 377 31 376 L 31 373 Z M 160 373 L 159 377 L 160 377 L 160 373 Z M 98 374 Q 95 379 96 389 L 96 391 L 97 393 L 97 401 L 96 402 L 97 409 L 99 410 L 98 408 L 98 378 L 99 377 L 98 374 Z M 24 375 L 25 379 L 26 379 Q 27 374 24 375 Z M 218 375 L 217 378 L 218 378 L 218 375 Z M 36 376 L 35 379 L 37 378 Q 42 380 41 376 L 38 377 L 36 376 Z M 25 379 L 24 382 L 25 382 L 25 379 Z M 30 379 L 28 381 Q 27 383 30 382 L 30 379 Z M 35 379 L 33 385 L 34 390 L 38 389 Q 39 391 40 389 Q 39 386 38 388 L 34 386 L 39 383 L 35 382 L 35 379 Z M 170 379 L 162 389 Q 163 391 160 390 L 160 392 L 156 392 L 156 396 L 161 407 Q 163 413 160 415 L 160 433 Q 164 443 171 451 Q 170 453 173 452 L 171 443 L 171 427 L 173 423 L 175 412 L 181 402 L 187 397 L 187 394 Q 186 397 181 396 L 179 393 L 172 402 L 177 398 L 178 399 L 171 407 Q 173 412 170 411 L 168 411 L 169 415 Q 170 418 168 419 L 167 415 L 164 415 L 166 411 L 163 412 L 164 410 Q 163 401 158 397 L 160 394 Q 164 398 165 405 L 167 405 L 164 399 Q 165 395 162 396 L 165 391 Q 166 386 171 387 Q 172 390 168 389 L 164 395 Q 163 397 166 396 Q 169 397 168 401 Q 171 402 170 400 L 180 391 Q 181 394 183 390 L 182 388 L 172 386 Q 169 384 170 379 Z M 46 381 L 46 382 L 48 382 L 46 381 Z M 291 381 L 290 387 L 291 387 L 291 381 Z M 198 385 L 197 388 L 198 388 L 198 385 Z M 292 385 L 289 390 L 289 402 L 288 404 L 290 403 L 293 404 L 295 408 L 293 415 L 291 416 Q 292 413 289 414 L 289 409 L 286 426 L 288 426 Q 287 423 290 424 Q 292 425 290 427 L 291 430 L 291 428 Q 294 427 293 430 L 293 432 L 295 433 L 293 436 L 295 436 L 293 441 Q 289 442 291 438 L 290 438 L 290 459 L 292 459 L 294 464 L 294 471 L 292 471 L 292 469 Q 289 470 291 472 L 291 488 L 293 488 L 292 487 L 294 484 L 295 487 L 296 481 L 296 466 L 295 465 L 296 462 L 295 459 L 295 447 L 296 446 L 296 385 L 294 388 L 292 389 L 294 386 L 292 385 Z M 54 387 L 53 389 L 56 390 L 56 388 L 54 387 Z M 45 391 Q 44 393 47 392 L 49 394 Q 50 389 45 391 Z M 184 391 Q 184 394 181 393 L 181 395 L 185 394 L 184 391 Z M 213 391 L 214 396 L 215 393 Q 216 390 213 391 Z M 32 392 L 31 398 L 32 400 Q 34 399 33 394 L 39 394 L 32 392 Z M 56 393 Q 56 397 53 399 Q 52 401 56 400 L 56 404 L 58 403 L 56 393 Z M 44 396 Q 42 401 49 399 L 50 400 L 49 397 L 48 397 L 44 396 Z M 26 397 L 26 400 L 27 400 Q 28 396 26 397 Z M 111 399 L 110 402 L 111 402 L 111 399 Z M 26 400 L 24 402 L 26 402 L 26 400 Z M 32 401 Q 30 404 33 403 L 32 401 Z M 50 402 L 49 403 Q 44 401 45 405 L 47 404 L 49 408 L 47 409 L 48 411 L 49 413 L 50 413 L 50 417 L 47 418 Q 40 419 39 415 L 32 415 Q 29 416 30 421 L 34 421 L 33 420 L 31 417 L 35 416 L 40 418 Q 41 421 43 419 Q 47 418 48 421 Q 47 424 51 422 L 52 420 L 55 422 L 54 417 L 51 415 L 50 402 Z M 172 402 L 170 405 L 172 404 L 172 402 Z M 102 403 L 102 413 L 103 411 L 102 408 L 103 406 L 102 403 Z M 76 404 L 75 406 L 77 407 L 76 404 Z M 30 406 L 30 408 Q 31 410 33 408 Q 38 407 40 409 L 40 407 L 30 406 Z M 207 406 L 205 408 L 206 412 L 207 412 L 207 406 Z M 288 406 Q 287 409 290 408 Q 291 405 288 406 Z M 26 407 L 25 410 L 26 410 L 26 407 Z M 56 408 Q 55 418 59 423 L 64 423 L 62 422 L 60 418 L 66 417 L 67 415 L 59 417 L 58 414 L 62 412 Q 61 409 60 411 L 56 408 Z M 115 408 L 113 412 L 111 411 L 109 415 L 111 418 L 111 417 L 115 415 L 115 408 Z M 292 408 L 292 410 L 294 409 L 292 408 Z M 190 409 L 188 411 L 189 436 L 189 423 L 189 421 L 190 418 L 190 409 Z M 181 410 L 178 413 L 179 444 L 180 417 L 181 416 L 181 410 Z M 98 412 L 96 465 L 101 464 Q 104 463 101 461 L 100 463 Q 97 462 99 461 L 99 423 L 103 422 L 103 417 L 101 416 Q 103 423 98 421 L 99 416 L 98 412 Z M 105 412 L 106 419 Q 108 425 105 427 L 106 428 L 106 441 L 107 441 L 107 417 L 106 416 L 107 414 Q 108 411 105 412 Z M 81 413 L 79 415 L 80 417 Q 79 419 75 418 L 77 421 L 81 419 Q 86 422 80 425 L 83 425 L 82 427 L 85 427 L 84 421 L 82 419 Q 83 414 81 413 Z M 111 419 L 109 424 L 110 425 L 110 433 L 111 433 L 111 419 Z M 119 421 L 118 432 L 119 432 L 119 421 Z M 185 421 L 184 424 L 185 424 L 185 421 Z M 79 422 Q 77 425 80 424 L 79 422 Z M 175 422 L 173 428 L 174 443 L 175 443 L 175 422 Z M 103 423 L 103 443 L 104 438 L 103 437 L 103 423 Z M 216 423 L 214 425 Q 213 427 216 426 L 216 428 L 218 428 L 216 423 Z M 72 424 L 62 427 L 59 426 L 57 426 L 60 437 Q 59 440 62 439 Q 63 443 60 442 L 59 445 Q 60 447 58 446 Q 53 448 54 456 L 54 458 L 53 463 L 53 465 L 54 466 L 54 475 L 61 476 L 65 479 L 70 462 L 73 446 L 76 441 L 76 428 L 74 427 L 74 426 L 72 424 Z M 115 425 L 114 449 L 113 450 L 114 452 L 113 458 L 117 459 Q 120 460 119 457 L 115 456 L 115 425 Z M 45 427 L 46 434 L 47 437 L 47 442 L 45 445 Q 46 449 44 451 L 45 453 L 44 457 L 44 459 L 44 469 L 47 476 L 50 475 L 50 453 L 51 449 L 56 444 Q 58 434 54 430 L 54 427 L 45 427 Z M 287 427 L 286 442 L 285 444 L 288 446 L 287 427 Z M 85 428 L 83 429 L 82 431 L 86 429 L 85 428 Z M 183 430 L 183 432 L 185 431 L 183 430 Z M 86 431 L 81 434 L 81 435 L 85 433 Q 87 432 86 435 L 83 437 Q 79 436 80 439 L 80 440 L 85 437 Q 87 436 86 439 L 83 441 L 83 442 Q 86 441 84 445 L 77 447 L 78 449 L 86 446 L 85 449 L 89 449 L 87 446 L 87 432 L 86 431 Z M 38 433 L 38 435 L 41 435 L 38 433 Z M 111 435 L 109 438 L 111 437 L 111 435 Z M 183 435 L 183 438 L 185 437 Q 186 434 183 435 Z M 201 435 L 199 440 L 199 449 L 202 458 L 201 462 L 201 464 L 202 466 Q 203 472 200 473 L 198 472 Q 200 466 197 465 L 197 462 Q 194 463 195 461 L 194 461 L 194 475 L 196 479 L 194 484 Q 190 482 194 481 L 191 478 L 190 460 L 189 495 L 188 496 L 189 498 L 188 500 L 189 502 L 188 503 L 187 528 L 187 532 L 186 533 L 186 548 L 186 550 L 185 552 Q 184 559 186 563 L 189 561 Q 188 557 191 558 L 190 557 L 193 551 Q 197 552 196 549 L 192 550 Q 189 551 190 548 L 193 547 Q 197 548 196 545 L 194 546 Q 189 547 190 544 L 194 543 L 196 544 L 196 542 L 190 542 Q 192 537 194 540 Q 198 541 196 537 L 194 538 L 191 537 Q 192 534 196 535 Q 197 531 192 533 Q 191 529 196 531 L 196 528 L 192 529 Q 191 525 196 527 L 196 525 L 191 525 L 194 523 Q 197 524 196 521 L 191 521 L 196 519 L 191 517 L 196 515 L 192 514 L 195 512 Q 198 511 195 509 L 192 510 L 192 508 Q 196 509 195 507 L 193 507 Q 196 504 195 500 L 193 500 L 198 497 L 198 512 L 199 513 L 198 518 L 199 519 L 199 545 L 200 546 Q 201 550 199 552 L 199 565 L 200 566 L 199 568 L 203 569 L 201 567 L 205 566 L 205 565 Q 202 566 203 563 L 206 562 Q 212 560 211 564 L 205 565 L 208 565 L 211 567 L 207 568 L 205 568 Q 204 570 211 569 L 213 564 L 212 557 L 208 556 L 204 557 Q 203 553 209 555 L 212 554 L 212 545 L 211 550 L 210 553 Q 203 555 204 551 L 208 551 L 203 550 L 203 546 L 209 546 L 209 545 L 208 545 L 203 545 L 205 543 L 212 543 L 213 538 Q 214 534 212 535 L 212 537 Q 211 539 210 537 L 206 538 Q 202 539 203 536 L 205 536 L 204 533 L 213 533 Q 212 530 211 532 L 209 531 L 207 531 L 204 532 L 203 530 L 212 530 L 212 528 L 206 529 L 203 528 L 208 527 L 210 527 L 212 527 L 211 525 L 204 525 L 206 523 L 212 523 L 202 521 L 208 519 L 212 520 L 212 518 L 204 518 L 204 517 L 203 515 L 211 513 L 203 512 Q 202 509 207 510 L 206 508 L 202 509 Q 201 505 208 507 L 208 506 Q 201 508 202 504 L 204 504 L 200 491 L 196 487 L 196 484 L 200 482 L 199 481 L 200 476 Q 199 473 202 474 L 202 472 L 205 472 L 203 464 L 201 435 Z M 34 436 L 36 438 Q 37 435 34 436 Z M 160 437 L 159 459 L 160 459 L 160 437 Z M 29 439 Q 29 442 33 442 L 38 442 L 29 439 Z M 189 439 L 188 442 L 189 442 L 189 439 Z M 110 440 L 109 451 L 110 451 L 110 440 Z M 119 440 L 118 447 L 119 447 L 119 440 Z M 184 440 Q 182 443 185 442 L 184 440 Z M 231 440 L 230 446 L 232 446 L 231 440 Z M 26 442 Q 23 447 26 449 L 25 452 L 25 454 L 26 496 Q 30 497 33 494 Q 39 495 38 493 Q 36 489 35 493 L 33 492 L 33 472 L 32 471 L 32 453 L 30 452 L 30 487 L 31 488 L 30 492 L 29 484 L 28 483 L 28 467 L 27 466 L 28 464 L 28 453 L 27 452 L 29 451 L 26 442 Z M 40 442 L 41 443 L 42 444 Q 43 441 40 442 Z M 105 442 L 106 449 L 107 447 Q 109 441 105 442 Z M 78 443 L 78 445 L 80 444 L 78 443 Z M 164 444 L 163 517 L 164 518 L 163 524 L 163 526 L 164 528 Q 165 532 163 534 L 164 536 L 164 544 L 163 545 L 164 546 L 164 572 L 166 573 L 170 572 L 171 570 L 170 568 L 170 533 L 171 532 L 170 531 L 170 454 L 168 452 Q 169 449 166 450 L 164 444 Z M 175 444 L 174 448 L 175 448 L 175 444 Z M 35 445 L 35 446 L 37 446 L 35 445 Z M 102 445 L 101 459 L 102 459 L 102 445 Z M 184 445 L 182 447 L 185 447 L 184 445 Z M 189 447 L 188 454 L 189 454 L 189 447 Z M 286 449 L 285 459 L 284 460 L 284 472 L 286 472 L 287 473 Q 289 462 286 457 L 286 455 L 287 453 L 286 449 Z M 182 450 L 182 454 L 185 452 L 182 450 Z M 213 450 L 212 453 L 213 453 L 213 450 Z M 106 451 L 105 461 L 108 461 Q 109 458 106 459 L 106 451 Z M 93 452 L 91 455 L 91 468 L 94 468 L 93 466 L 93 452 Z M 36 453 L 35 462 L 34 463 Q 37 471 35 484 L 36 485 L 35 487 L 37 490 L 37 487 Q 40 486 39 491 L 40 491 L 40 487 L 38 483 L 41 484 L 41 483 L 37 480 Q 36 475 38 474 L 37 473 L 37 463 L 36 462 L 37 458 L 36 453 Z M 39 455 L 39 471 L 41 471 L 41 459 L 40 458 L 41 456 L 39 455 Z M 175 455 L 173 457 L 173 467 L 172 468 L 173 470 L 172 472 L 173 474 L 172 476 L 173 479 L 172 481 L 173 483 L 173 495 L 172 496 L 173 499 L 173 569 L 175 569 L 175 455 Z M 182 455 L 182 462 L 185 463 L 185 462 Q 181 460 185 458 Q 186 453 182 455 Z M 198 455 L 197 458 L 198 458 L 198 455 Z M 84 457 L 82 459 L 82 468 L 81 469 L 82 473 Q 84 472 83 469 L 84 466 L 84 457 Z M 88 457 L 87 465 L 88 465 L 88 457 Z M 8 459 L 7 472 L 8 472 L 8 459 Z M 74 460 L 73 465 L 74 465 L 74 460 Z M 77 460 L 77 468 L 76 469 Q 75 476 78 475 L 78 465 L 79 464 Q 80 459 77 460 Z M 291 460 L 290 463 L 291 463 L 291 460 Z M 112 461 L 112 462 L 116 464 Q 118 463 117 466 L 113 468 L 110 467 Q 107 466 110 464 Q 112 465 111 462 L 92 471 L 90 471 L 74 480 L 71 483 L 68 491 Q 69 493 67 492 Q 62 494 65 496 L 64 500 L 71 503 L 74 502 L 81 504 L 85 510 L 81 511 L 82 513 L 150 469 L 149 466 L 146 467 L 140 465 L 127 464 L 112 461 Z M 160 461 L 159 469 L 160 469 L 160 461 Z M 181 465 L 182 484 L 185 483 Q 186 480 182 481 L 184 477 Q 183 474 186 475 Q 187 471 182 473 Q 181 470 185 471 Q 186 468 182 469 L 184 466 L 181 465 Z M 292 465 L 291 468 L 292 468 L 292 465 Z M 72 466 L 73 471 L 74 471 Q 76 465 72 466 Z M 87 467 Q 84 471 89 470 L 87 467 Z M 160 470 L 159 482 L 160 482 L 160 470 Z M 204 473 L 201 477 L 201 480 Q 204 479 203 482 L 204 482 L 202 478 L 205 474 L 204 473 Z M 285 473 L 284 477 L 286 477 L 286 479 L 284 480 L 284 484 L 283 487 L 283 501 L 285 501 L 287 503 L 286 500 L 288 499 L 288 489 L 287 488 L 288 486 Q 289 483 287 484 L 287 483 Q 289 475 285 473 Z M 8 474 L 8 499 L 8 477 Q 10 475 8 474 Z M 42 474 Q 37 476 40 478 Q 39 480 42 479 L 41 478 L 42 476 L 42 474 Z M 73 474 L 72 477 L 73 477 L 73 474 Z M 207 476 Q 204 477 206 479 L 205 482 L 207 481 L 207 476 Z M 44 478 L 43 480 L 45 479 L 44 478 Z M 52 479 L 52 481 L 53 482 L 52 484 L 55 483 Q 58 483 57 488 L 59 487 L 62 489 Q 64 488 62 487 L 64 484 L 60 480 L 52 479 Z M 160 483 L 159 491 L 160 491 L 160 483 Z M 44 485 Q 42 492 45 496 L 43 497 L 41 497 L 39 496 L 36 498 Q 33 497 34 500 L 38 501 L 39 502 Q 38 499 41 500 L 41 498 L 43 498 L 42 505 L 46 506 L 47 504 L 46 502 L 48 498 L 48 488 L 47 490 L 44 485 Z M 181 485 L 181 491 L 183 491 L 185 491 L 185 488 L 182 489 L 184 486 L 181 485 Z M 64 488 L 62 490 Q 64 493 65 490 Q 66 487 64 488 Z M 277 488 L 276 489 Q 273 488 274 491 L 275 494 Q 274 496 277 495 L 276 494 L 277 490 L 277 488 Z M 56 489 L 55 490 Q 52 489 53 494 Q 49 495 52 497 L 48 513 L 49 516 Q 57 516 63 512 Q 69 514 71 511 L 73 512 L 80 509 L 75 505 L 72 505 Q 73 509 71 508 L 69 505 L 67 504 L 63 505 L 60 504 L 60 496 L 61 495 L 59 492 L 56 489 Z M 293 489 L 291 492 L 293 491 L 293 489 Z M 295 490 L 294 493 L 292 494 L 294 494 L 294 496 L 291 497 L 291 511 L 293 511 L 291 514 L 293 513 L 293 515 L 291 516 L 294 516 L 295 512 L 294 510 Q 293 505 295 504 L 294 502 L 295 499 L 295 497 L 295 490 Z M 160 492 L 159 522 L 160 523 L 159 525 L 160 530 L 159 534 L 159 536 L 160 569 L 161 569 L 161 513 L 160 512 L 160 492 Z M 181 492 Q 178 496 182 495 L 184 495 L 185 495 L 181 492 Z M 180 497 L 181 500 L 185 499 L 185 497 L 180 497 Z M 28 498 L 16 505 L 7 507 L 7 513 L 9 513 L 10 513 Q 11 516 9 515 L 6 522 L 8 523 Q 14 522 17 525 L 32 526 L 49 530 L 56 528 L 76 517 L 78 513 L 69 516 L 62 516 L 55 519 Q 48 520 46 518 L 45 516 L 46 511 L 41 508 L 39 506 L 33 503 L 32 501 Q 33 496 28 498 Z M 8 501 L 7 505 L 9 504 L 8 501 Z M 128 502 L 128 503 L 130 503 L 128 502 Z M 180 502 L 181 505 L 185 503 L 180 502 Z M 136 503 L 135 505 L 134 506 L 127 507 L 135 507 L 136 508 L 136 503 Z M 301 503 L 301 504 L 313 504 L 301 503 Z M 315 503 Q 314 505 319 504 L 318 506 L 300 506 L 299 507 L 299 512 L 302 511 L 304 512 L 309 511 L 313 511 L 316 512 L 317 511 L 334 511 L 334 509 L 322 509 Q 321 505 326 507 L 327 504 L 328 505 L 334 505 L 334 503 L 315 503 Z M 180 506 Q 179 509 184 508 L 185 509 L 185 506 L 180 506 Z M 329 506 L 330 508 L 333 507 L 334 508 L 334 506 L 329 506 Z M 284 507 L 282 513 Q 285 516 283 525 L 285 525 Q 284 527 287 526 Q 289 524 288 518 L 288 516 L 287 512 L 288 510 L 284 507 Z M 125 509 L 125 510 L 128 510 L 125 509 Z M 145 509 Q 144 513 147 512 Q 148 508 145 509 Z M 133 510 L 133 511 Q 135 510 134 513 L 129 516 L 118 514 Q 115 513 116 516 Q 120 515 121 518 L 121 520 Q 126 518 125 522 L 120 521 L 120 520 L 115 518 L 114 520 Q 116 519 115 522 Q 104 523 98 520 L 95 522 L 113 525 L 112 527 L 103 525 L 93 526 L 104 528 Q 106 527 105 530 L 88 527 Q 84 526 83 529 L 95 531 Q 102 530 101 533 L 95 532 L 93 533 L 87 531 Q 84 530 85 533 L 92 534 L 91 536 L 81 534 L 76 535 L 84 537 Q 86 536 85 539 L 75 537 L 68 538 Q 72 540 80 539 L 81 541 L 77 541 L 76 544 L 65 542 L 62 543 Q 62 546 69 544 L 71 544 Q 74 546 71 547 L 69 546 L 56 547 L 65 549 Q 69 548 68 551 L 56 550 Q 55 554 60 552 Q 61 556 56 554 L 55 560 L 55 575 L 51 580 Q 52 582 49 581 Q 47 578 46 582 Q 43 583 44 581 L 47 579 L 48 566 L 49 565 L 48 562 L 49 554 L 48 554 Q 49 557 46 556 L 46 554 L 45 559 L 45 561 L 44 566 Q 41 567 42 564 L 41 564 Q 39 570 43 569 Q 44 573 42 572 L 39 577 Q 43 578 42 582 L 36 580 L 37 569 L 38 568 L 38 554 L 29 555 L 36 556 L 35 558 L 19 556 L 17 556 L 13 559 L 25 559 L 26 560 Q 31 562 33 559 L 33 562 L 28 565 L 27 564 L 14 564 L 13 563 L 11 564 L 12 566 L 22 566 L 23 567 Q 25 566 24 569 L 22 568 L 6 568 L 6 592 L 8 593 L 113 593 L 114 592 L 116 593 L 133 593 L 135 593 L 137 592 L 140 593 L 142 592 L 144 593 L 145 592 L 190 592 L 191 590 Q 185 589 184 591 L 180 590 L 199 589 L 197 587 L 198 584 Q 201 583 201 586 L 206 586 L 208 590 L 197 591 L 203 592 L 205 591 L 247 591 L 248 592 L 250 591 L 252 585 L 252 575 L 251 578 Q 243 586 230 589 L 213 589 L 208 587 L 208 584 Q 213 581 214 575 L 210 572 L 201 572 L 200 571 Q 196 570 197 573 L 196 572 L 195 573 L 184 573 L 182 573 L 181 574 L 173 574 L 173 572 L 170 574 L 165 574 Q 162 570 157 570 L 157 568 L 156 570 Q 155 572 151 571 L 149 571 Q 142 573 140 570 L 154 569 L 156 568 Q 151 568 150 566 L 150 556 L 151 555 Q 153 548 150 547 Q 152 543 151 537 L 150 532 L 151 528 L 150 526 L 150 524 L 151 521 L 150 514 L 146 513 L 143 514 L 143 516 L 148 516 L 148 518 Q 152 519 149 521 L 140 519 L 137 515 Q 139 508 133 510 Z M 180 510 L 180 513 L 182 512 L 184 513 Q 185 517 180 515 L 180 517 L 185 518 L 185 511 L 184 511 L 180 510 Z M 121 512 L 121 513 L 123 513 L 121 512 Z M 125 512 L 125 513 L 127 513 L 125 512 Z M 325 512 L 324 513 L 299 513 L 299 528 L 299 530 L 300 533 Q 302 539 299 541 L 301 552 L 300 563 L 293 569 L 285 570 L 283 572 Q 284 576 282 578 L 283 580 L 282 582 L 283 584 L 282 592 L 333 592 L 334 591 L 333 586 L 334 584 Q 336 577 333 576 L 334 575 L 334 538 L 332 538 L 334 535 L 333 532 Q 335 533 334 531 L 333 529 L 318 529 L 334 528 L 334 525 L 319 525 L 319 524 L 334 524 L 334 520 L 331 521 L 330 520 L 320 520 L 320 519 L 334 519 L 334 516 L 304 516 L 321 515 L 322 514 L 323 515 L 334 515 Q 337 514 334 512 L 332 513 L 330 513 L 325 512 Z M 295 516 L 292 517 L 291 521 L 294 520 L 293 522 L 291 523 L 291 537 L 294 536 L 295 539 L 296 539 L 296 530 L 295 529 Q 293 522 296 521 L 295 516 Z M 102 517 L 100 519 L 102 519 L 102 517 Z M 179 519 L 179 526 L 182 526 L 184 526 L 184 523 Q 179 525 180 521 Q 184 522 185 520 L 179 519 Z M 216 520 Q 213 526 217 528 L 215 539 L 215 554 L 214 555 L 215 556 L 215 571 L 223 574 Q 230 576 229 572 L 222 572 L 220 571 L 233 570 L 234 569 Q 238 571 237 567 L 235 568 L 225 568 Q 226 565 222 566 L 222 563 L 227 564 L 229 563 L 233 564 L 233 562 L 224 562 L 222 559 L 225 560 L 237 560 L 237 557 L 233 558 L 231 558 L 223 557 L 224 555 L 237 555 L 237 553 L 227 553 L 225 552 L 225 549 Q 220 551 221 547 L 236 547 L 236 549 L 226 550 L 230 551 Q 235 552 237 550 L 237 545 L 230 545 L 228 545 L 220 544 L 221 542 L 223 543 L 239 543 L 240 544 L 244 543 L 245 544 Q 246 541 242 542 L 240 539 L 239 537 L 233 537 L 224 534 Q 219 535 221 531 L 229 534 L 230 534 L 225 531 L 216 520 Z M 90 524 L 90 525 L 93 525 L 90 524 Z M 9 527 L 8 536 L 9 536 L 9 527 Z M 13 527 L 12 537 L 13 537 L 13 527 Z M 184 527 L 183 528 Q 178 526 179 531 L 181 530 L 184 531 L 184 527 Z M 18 528 L 16 530 L 16 538 L 17 538 L 17 531 L 19 530 L 20 533 L 21 533 Q 20 530 24 531 L 29 534 L 29 532 L 32 534 L 31 539 L 33 539 L 34 537 Q 33 531 37 533 L 38 540 L 38 536 L 41 534 Q 43 536 43 541 L 45 536 L 46 537 L 46 542 L 48 542 L 48 535 L 47 533 Q 40 534 38 531 L 18 528 Z M 80 530 L 77 532 L 81 532 L 80 530 Z M 184 532 L 181 533 L 180 535 L 182 534 L 184 535 L 184 532 Z M 287 532 L 285 534 Q 284 536 287 535 L 287 532 Z M 284 535 L 282 540 L 283 543 L 282 545 Q 278 544 280 548 L 288 544 L 287 536 L 285 537 L 284 535 Z M 27 537 L 27 539 L 29 538 L 27 537 Z M 181 537 L 181 538 Q 183 537 182 540 L 179 542 L 182 542 Q 183 546 178 544 L 178 546 L 181 545 L 183 546 L 183 538 L 181 537 Z M 292 539 L 291 543 L 292 543 L 292 539 Z M 13 541 L 12 546 L 13 546 L 13 541 Z M 7 542 L 8 555 L 9 555 L 9 543 L 7 542 Z M 18 542 L 18 550 L 19 550 L 18 542 Z M 22 542 L 23 547 Q 22 549 25 548 L 24 545 Q 25 541 22 542 Z M 292 544 L 292 546 Q 291 548 290 546 Q 287 547 289 549 L 288 557 L 296 560 L 297 560 L 297 548 L 292 549 L 294 546 Q 295 543 292 544 Z M 243 545 Q 242 548 245 547 Q 246 544 243 545 Z M 14 546 L 13 553 L 14 553 L 14 546 Z M 34 546 L 32 548 Q 31 551 37 549 Q 38 551 39 549 L 34 546 Z M 47 547 L 46 552 L 47 552 L 47 547 Z M 178 549 L 178 566 L 180 567 L 185 566 L 181 563 L 182 562 L 182 551 L 178 549 Z M 26 550 L 26 552 L 35 552 L 26 550 Z M 22 553 L 22 554 L 25 554 L 22 553 Z M 270 554 L 269 559 L 269 561 L 268 564 L 270 563 L 270 554 Z M 266 555 L 265 563 L 267 564 L 266 555 Z M 193 556 L 194 558 Q 195 555 193 556 Z M 43 558 L 41 560 L 42 562 L 43 560 L 43 558 Z M 243 558 L 244 563 L 244 559 L 247 559 L 243 558 Z M 274 560 L 273 563 L 274 563 L 274 560 Z M 279 562 L 275 567 L 275 576 L 276 577 L 274 587 L 277 592 L 279 586 L 279 578 L 278 577 L 278 567 L 279 566 L 279 562 Z M 6 564 L 6 567 L 8 566 Q 9 563 6 564 Z M 244 564 L 243 573 L 248 573 L 248 572 L 247 572 L 245 569 L 251 570 Q 252 566 246 568 L 244 564 Z M 188 566 L 185 569 Q 180 570 179 568 Q 177 571 173 570 L 174 572 L 188 572 L 190 572 L 191 571 L 197 571 L 196 568 L 194 567 L 195 570 L 187 570 L 190 569 L 191 567 L 188 566 Z M 256 566 L 256 567 L 258 567 L 256 566 Z M 260 566 L 258 568 L 263 568 L 262 571 L 260 570 Q 254 568 255 572 L 259 573 L 260 573 Q 261 577 257 575 L 255 575 L 257 582 L 255 592 L 258 592 L 260 591 L 269 592 L 271 592 Q 274 584 268 586 L 266 587 L 267 585 Q 262 585 260 583 Q 263 580 268 581 L 267 574 L 270 573 L 270 570 L 265 570 L 266 566 L 262 567 L 260 566 Z M 236 571 L 233 573 L 236 573 L 236 571 Z M 238 574 L 237 576 L 241 580 L 245 577 Q 239 577 238 574 Z M 234 577 L 235 582 Q 234 584 237 583 L 234 577 Z M 220 578 L 216 580 L 212 586 L 217 585 L 220 586 L 220 585 Q 218 583 221 582 L 223 583 L 221 581 L 223 580 L 220 578 Z M 229 578 L 230 583 Q 229 586 232 585 L 229 578 Z M 224 583 L 223 586 L 225 586 L 224 583 Z M 193 590 L 193 591 L 195 591 L 193 590 Z "></path><path d="M 283.5 13 L 289.5 14 L 291 15.5 L 290.5 17 L 288.5 16 Q 287.2 19.7 283 19 L 282.5 17 L 274 17 L 274 14 L 282.5 14 L 283.5 13 Z "></path><path d="M 36.5 17 Q 39.8 15.9 39 18.5 L 41.5 22 L 50.5 22 L 51 24 Q 42.8 25.8 39.5 22 L 39 24 L 22.5 24 L 22 22 L 36.5 22 L 37 18.5 L 36.5 17 Z "></path><path d="M 78 20 L 85 21 L 83.5 24 L 80.5 23 L 76.5 25 Q 75.3 22.7 70.5 24 L 68 28.5 L 69 29.5 L 69 38.5 L 66.5 42 Q 60.6 43.7 62 40 L 66 37.5 Q 67.9 28.1 63.5 25 L 61 23.5 Q 60.1 20.1 65.5 22 Q 67 25.5 68.5 23 L 78 22 L 78 20 Z "></path><path d="M 26.5 34 L 28 38 L 35 39 L 34.5 41 L 26.5 41 Q 22.5 44.5 13.5 43 L 12 44.5 Q 14.3 45.8 11.5 47 L 11 42 L 23.5 41 L 26 38.5 L 25 35.5 L 26.5 34 Z "></path><path d="M 45 40 L 56 41.5 Q 55 44 50.5 43 L 48 42 Q 49.3 46.1 46 45 L 45 40 Z "></path><path d="M 163.5 52 L 169.5 53 L 186.5 62 L 195 70.5 Q 194.3 72.8 196.5 72 L 202 85.5 L 201 87.5 Q 203.8 89.2 202 95.5 L 198.5 101 L 196.5 102 L 194 101 Q 192.9 97.7 197 99 L 197 96 Q 192.1 97.8 194 91.5 L 195 89.5 L 193 82.5 L 187 73 L 177.5 67 L 166.5 65 Q 165.3 67.3 160.5 66 L 151.5 70 L 144 77.5 Q 139.7 82.7 139 91.5 L 139 93.5 L 140 96.5 L 139.5 99 L 136 100.5 Q 135.3 102.8 137.5 102 L 137.5 103 L 132.5 104 L 129 99.5 Q 130.7 91.3 128 87.5 Q 131.6 73.6 141.5 66 Q 143.8 66.8 143 64.5 L 150.5 58 L 163.5 52 Z M 191 54 L 192 56 L 193 56 L 191 54 Z M 185 55 L 186 57 L 187 57 L 185 55 Z M 188 57 Q 189 61 195 63 L 196 63 L 188 57 Z "></path><path d="M 12.5 55 L 13 62 Q 17.9 64.1 27.5 63 L 28.5 64 L 35 63 L 33.5 66 L 29.5 65 Q 27 66.2 28 70 L 25 68.5 L 26 66.5 L 24.5 65 Q 14.6 66.1 10 63 L 11 56.5 L 12.5 55 Z "></path><path d="M 324.5 56 Q 327.8 54.9 327 57.5 L 320.5 65 Q 317.1 65.9 319 60.5 L 318 58 L 324.5 56 Z "></path><path d="M 160.5 71 L 166 71 L 166 73.5 L 159.5 88 L 145.5 88 L 145 85.5 L 152.5 75 L 160.5 71 Z "></path><path d="M 169 71 L 173.5 72 Q 175 69.5 176.5 73 Q 183 74.5 186 79.5 Q 189.7 82.3 189 88 L 174.5 88 L 173 86.5 L 169 71 Z "></path><path d="M 166 79 Q 169.3 77.7 168 82.5 L 170 88 L 163.5 88 L 163 86.5 L 166 79 Z "></path><path d="M 121.5 84 L 122 90.5 L 121 91.5 L 121 101 L 105.5 104 L 106 102.5 Q 112.1 91.5 121.5 84 Z "></path><path d="M 210 85 L 211.5 85 L 223 96.5 Q 223.8 98.8 221.5 98 L 219.5 97 Q 218 99.5 216.5 96 L 211 95 Q 212 88.1 210 85 Z "></path><path d="M 14.5 90 L 15 92 L 13 91.5 L 14.5 90 Z "></path><path d="M 149.5 91 L 157.5 91 L 158 93.5 L 157 96 Q 150.4 94.9 149.5 91 Z "></path><path d="M 162.5 91 Q 170.2 89.3 172 93.5 L 173 97.5 L 165.5 101 L 159 98 L 162.5 91 Z "></path><path d="M 176 91 L 185 91.5 L 178.5 96 L 176 96 L 176 91 Z "></path><path d="M 144 93 L 155 99.5 L 152 109 L 148 106.5 L 144 97.5 L 144 93 Z "></path><path d="M 188.5 93 Q 190.8 93.8 190 97.5 Q 187.8 105.3 182.5 110 Q 179.9 110.8 181 107.5 L 178 99.5 L 188.5 93 Z "></path><path d="M 158.5 101 L 162 103.5 Q 162.8 105.8 160.5 105 L 156 107 L 158.5 101 Z "></path><path d="M 173.5 101 Q 175.8 100.3 175 102.5 L 177 108.5 L 172.5 105 L 170 103.5 L 173.5 101 Z "></path><path d="M 192.5 104 Q 196.3 103.3 197 105.5 L 193 107.5 Q 194 111.3 191 110 L 191 113 L 198.5 109 L 200 113 L 195.5 114 L 188 119.5 L 186 122.5 Q 180.9 126.4 179.5 134 Q 178.8 126.7 173.5 124 L 166.5 122 L 159 126.5 Q 156.2 129.5 157 135 Q 154 136.3 155 132.5 L 152 126 Q 149.3 127.1 150 124.5 Q 144.8 115.9 133 115 L 133 111 L 134.5 111 Q 136.7 114.5 142 114 L 138.5 107 L 137 106.5 L 141.5 105 L 149.5 115 L 158.5 120 L 171.5 121 Q 181.1 118.6 187 112.5 L 192.5 104 Z "></path><path d="M 206.5 104 L 221.5 105 Q 232.1 108.4 238 116.5 L 244 125.5 L 253 145.5 L 252 148 L 245.5 150 L 243 146.5 L 246 145.5 Q 243.5 140.5 241 145.5 L 240.5 147 L 237.5 146 L 234 147 L 235 137.5 Q 232.8 123.8 223.5 117 L 216.5 113 L 208.5 112 L 206.5 113 L 202 109.5 L 203 105 L 206.5 104 Z "></path><path d="M 123.5 105 L 125.5 106 L 127.5 106 L 131 108.5 Q 131.8 112.3 129.5 113 Q 126.9 113.7 128 111 L 126 111 Q 128.3 117 121.5 115 L 109 122.5 L 107.5 125 Q 105.3 124.3 106 126.5 L 102 133.5 Q 103.7 141.7 101 145.5 L 102 150 L 96 149 L 95.5 152 L 94 149 Q 88.8 147.3 90 151 Q 94.1 149.7 93 153 L 87 150.5 L 85 142.5 Q 88.8 137.8 89 129.5 L 96.5 119 L 99.5 117 L 105.5 112 L 123.5 105 Z "></path><path d="M 164.5 106 L 167.5 106 L 177 112.5 Q 177.8 115.1 174.5 114 L 173.5 115 L 162.5 116 L 155 112.5 L 164.5 106 Z "></path><path d="M 203.5 117 Q 206.5 116.1 205 120.5 L 198.5 135 L 197.5 134 L 185 134 Q 186.5 126.2 192.5 122 L 203.5 117 Z "></path><path d="M 210.5 117 Q 221.6 119.4 227 127.5 L 229 134.5 L 226.5 135 L 215.5 135 L 214 133.5 L 210 123.5 L 210.5 117 Z "></path><path d="M 126.5 119 Q 129.3 120.3 127 121.5 L 126 126.5 L 120 137.5 L 121 139.5 L 118.5 143 L 115.5 141 L 113.5 141 L 110 141.5 L 113 142 L 114.5 145 L 117 146.5 L 117 149.5 L 112.5 158 L 107 150.5 L 105 141.5 L 107.5 140 L 110 141 L 109 138.5 L 112.5 137 L 114.5 137 L 118 136.5 L 109.5 135 L 107 136 Q 107.8 127.9 114.5 124 L 126.5 119 Z "></path><path d="M 132 120 Q 142.7 121.1 148 128.5 L 151 136 L 146.5 135 L 143 136.5 L 147 137 Q 148.1 139.7 145.5 139 L 137 143 L 136 139.5 L 141 137 L 140.5 135 L 136.5 136 L 134 132.5 L 132 120 Z "></path><path d="M 128 125 Q 130.7 123.9 130 126.5 L 133 134.5 L 131.5 136 L 125 136 L 128 125 Z "></path><path d="M 206.5 125 Q 209.1 124.2 208 127.5 L 210 135 L 203 135 L 203 132.5 L 206.5 125 Z "></path><path d="M 163.5 129 Q 167.7 127.7 166 132.5 L 163.5 134 L 160 132.5 L 161 130 L 163.5 129 Z "></path><path d="M 169.5 129 L 174 132.5 Q 173.3 134.8 169.5 134 L 168 130.5 L 169.5 129 Z "></path><path d="M 187.5 136 L 195.5 138 L 197.5 137 L 199 139.5 L 196.5 143 L 186 137.5 L 187.5 136 Z "></path><path d="M 161 137 Q 164.8 136 166 138.5 Q 167.5 142.9 164.5 142 L 161 137 Z "></path><path d="M 169.5 137 Q 174.9 135.1 174 138.5 L 171.5 142 L 169.5 143 Q 167.3 142.3 168 138.5 L 169.5 137 Z "></path><path d="M 217.5 137 L 226.5 137 L 227 139 L 218.5 144 L 215 138 L 217.5 137 Z "></path><path d="M 124.5 138 L 129.5 139 L 131.5 139 Q 135.3 137.8 134 141.5 L 135 144.5 L 127.5 150 L 121 144.5 L 124.5 138 Z "></path><path d="M 203.5 138 L 207.5 139 L 209.5 139 Q 212.8 137.9 212 140.5 Q 214.8 142.5 214 147 L 208.5 150 L 205.5 150 L 199 144.5 L 201 139 L 203.5 138 Z "></path><path d="M 149 139 L 152 140.5 Q 152.2 153.7 144.5 159 L 142 157.5 L 139 147.5 L 144 143.5 Q 143.2 140.9 146.5 142 L 149 141 L 149 139 Z "></path><path d="M 156.5 139 L 161.5 146 L 166 147 Q 164.7 161.4 154.5 168 L 145.5 173 L 135.5 176 L 130.5 176 L 123.5 174 L 117.5 174 L 109.5 171 L 104.5 171 L 94 164.5 L 93 158.5 L 94.5 156 Q 97 157.2 96 161 Q 100.5 162.8 99 157.5 L 96 156 Q 94.9 153.3 97.5 154 L 100 155 L 102.5 151 L 104 155.5 L 112.5 165 L 123.5 170 L 132.5 170 Q 143.8 167.8 150 160.5 L 155 152.5 L 156.5 139 Z "></path><path d="M 228.5 140 Q 231.9 139.1 230 144.5 Q 228.2 152.7 222.5 157 L 220 155.5 L 218 148.5 L 228.5 140 Z "></path><path d="M 178.5 141 L 180 142.5 L 181 150.5 L 186.5 159 L 189.5 161 L 196.5 166 L 204.5 168 L 206.5 167 L 209.5 168 L 214.5 167 L 218.5 164 L 221.5 164 L 227 159.5 L 229 156.5 L 233 149 Q 236 147.8 235 151.5 L 238 153 L 236 157.5 L 239 159 L 238 156.5 L 242 155 Q 243.5 161.3 239.5 163 L 231.5 167 L 210.5 173 L 194.5 173 L 187.5 171 L 178 163.5 Q 171.2 158.8 171 147.5 L 178 142.5 L 178.5 141 Z "></path><path d="M 184.5 141 L 195 147.5 L 191.5 157 Q 183.5 152.2 184.5 141 Z "></path><path d="M 119 149 L 124 151.5 Q 124.8 153.8 122.5 153 L 117.5 157 L 117 153.5 L 119 149 Z "></path><path d="M 135.5 149 L 139 157 L 132 152.5 Q 131.3 150.3 133.5 151 L 135.5 149 Z "></path><path d="M 214.5 149 Q 217.6 150.4 217 155.5 L 214.5 157 L 210 154 L 211.5 151 L 214.5 149 Z "></path><path d="M 198.5 150 L 204 152.5 L 198 156 Q 199 159 196 158 Q 195 152.3 198.5 150 Z "></path><path d="M 80.5 154 L 88 156 L 87 162.5 L 85.5 164 L 78 163 L 77 159.5 L 80.5 154 Z "></path><path d="M 127.5 154 L 139 161 Q 140.1 163.7 137.5 163 L 126.5 165 L 117 162 L 118.5 159 L 127.5 154 Z "></path><path d="M 206.5 154 L 216 160.5 Q 211.5 164 202.5 163 L 197 161 Q 195.9 158.3 198.5 159 L 206.5 154 Z "></path><path d="M 251.5 154 L 257 154 L 257 156.5 L 258 161 L 250 162 L 249 155 L 251.5 154 Z "></path><path d="M 168.5 160 L 171 161.5 Q 173.4 169.6 179.5 174 L 182 175.5 L 173.5 177 L 161.5 177 L 157 175.5 L 165 166.5 Q 165.3 161.8 168.5 160 Z "></path><path d="M 265.5 174 Q 267.8 173.3 267 175.5 L 238.5 194 L 221.5 210 L 220 210 L 203 234.5 L 193 253.5 L 183 275.5 L 180 285.5 L 179 294.5 L 176 299.5 L 177 303.5 L 174 312.5 L 175 316.5 L 174 319 L 172 318.5 L 172 308.5 L 174 302.5 L 174 297.5 L 176 294.5 L 176 287.5 L 183 267.5 L 200 233.5 L 204 229.5 L 217 209 L 218.5 209 L 240.5 189 L 265.5 174 Z M 230 264 L 228 267 L 231 268 Q 233 267 232 270 L 234 269 Q 236 268 235 271 L 241 275 Q 244 274 243 277 L 244 277 L 241 271 Q 242 268 239 269 L 239 267 L 230 264 Z M 219 265 L 216 267 L 219 267 L 219 265 Z M 218 268 L 217 270 L 219 269 L 218 268 Z M 255 268 L 255 270 L 257 269 L 255 268 Z M 214 269 L 212 272 L 214 271 L 214 269 Z M 259 269 L 258 272 L 259 272 L 259 269 Z M 254 270 L 252 273 L 254 272 L 254 270 Z M 219 271 L 215 274 L 219 276 L 220 281 Q 219 286 214 289 Q 213 293 217 291 L 217 294 L 214 295 L 217 299 L 213 297 L 213 299 Q 214 301 212 300 Q 209 300 209 296 L 213 293 L 211 292 L 216 284 L 216 281 L 214 284 L 212 279 L 209 288 L 209 293 L 207 297 Q 208 299 205 298 L 206 300 L 208 299 L 209 302 L 215 304 L 223 301 L 225 303 L 224 303 L 223 305 L 231 301 L 235 301 L 233 297 L 230 299 Q 224 301 225 297 L 233 295 L 234 296 L 233 293 L 237 290 L 238 288 L 237 288 L 236 286 L 235 289 L 232 290 L 234 287 L 231 278 L 230 278 L 228 276 L 227 276 L 219 271 Z M 214 276 L 213 278 L 216 279 L 216 277 L 214 276 Z M 245 282 L 244 285 L 247 289 Q 246 291 242 290 L 239 297 L 243 302 L 242 308 L 249 307 L 251 304 L 252 290 L 253 289 L 252 285 L 245 282 Z M 257 283 L 256 286 L 257 286 L 257 283 Z M 237 293 L 238 296 L 239 294 L 237 293 Z M 201 303 Q 197 304 198 309 Q 200 313 202 310 L 200 307 Q 199 304 203 305 Q 204 302 201 303 Z M 207 303 L 208 307 Q 211 308 210 310 Q 213 309 211 313 L 214 313 L 212 306 L 207 303 Z M 235 303 L 227 307 Q 224 306 225 309 L 229 308 L 230 317 L 231 306 L 233 307 Q 234 305 236 308 L 236 306 L 239 304 L 235 303 Z M 215 306 L 215 308 Q 213 312 217 311 L 219 307 L 215 306 Z M 222 309 L 223 316 L 224 316 Q 226 308 222 309 Z M 239 315 L 241 318 L 241 317 L 239 315 Z "></path><path d="M 227.5 189 Q 232.3 187.3 231 191.5 L 222 199.5 L 209 215.5 L 194 240.5 L 175 278.5 L 169 304 Q 166.3 305.1 167 302.5 Q 164 298.5 164 291.5 L 142 242.5 L 126 215.5 L 109 194 Q 105.7 195.1 107 191 L 145.5 200 L 147.5 200 L 165.5 201 L 168.5 200 Q 173.2 198.8 174.5 201 L 175.5 200 L 187.5 200 L 196.5 197 L 201.5 197 Q 209.9 192.9 221.5 192 L 227.5 189 Z M 224 193 L 207 199 L 196 200 L 192 202 L 182 202 L 181 203 L 178 202 L 176 203 L 168 203 L 167 202 L 165 203 L 162 202 L 158 203 L 137 201 L 114 195 L 133 221 L 152 256 Q 162 275 168 298 L 169 289 L 176 270 L 196 231 L 210 209 L 224 195 L 224 193 Z M 123 261 L 122 263 L 124 262 L 123 261 Z M 119 267 L 113 270 L 114 271 L 120 269 Q 121 266 119 267 Z M 111 285 L 110 289 L 111 289 L 111 285 Z M 124 285 L 122 293 L 124 292 L 124 285 Z M 115 286 L 114 295 L 115 295 L 115 286 Z M 119 286 L 118 293 L 119 293 L 119 286 Z M 112 289 L 110 292 L 112 291 L 112 289 Z "></path><path d="M 128.5 201 L 133.5 203 L 135.5 202 L 145.5 204 L 149 206.5 Q 147.8 215.2 152.5 218 Q 156.3 217 155 220 L 149 219 L 147.5 216 L 143.5 214 L 136 213 Q 134 206.4 128 202.5 L 128.5 201 Z "></path><path d="M 206.5 201 Q 210.3 200.3 211 202.5 Q 211.8 204.8 209.5 204 L 187 233.5 L 169.5 271 L 167 269.5 L 144 225.5 L 144.5 224 L 142 222.5 L 141 218.5 L 144.5 221 L 152 222 L 151 225.5 L 154.5 232 Q 157.8 230.9 157 233.5 Q 154 234.5 155 239.5 L 158.5 244 Q 164.7 244.6 167 242 L 165 256.5 Q 169.5 258 169.5 264 Q 172.8 262.8 172 259 Q 175.7 260.4 174 254.5 L 169 246.5 L 168 242 L 175.5 245 L 180 243 L 183 235.5 L 182 233.5 Q 186.9 231.9 186 224.5 Q 183.8 223.3 186.5 222 L 190.5 223 L 195 219.5 L 198 214 L 192.5 213 L 189.5 215 Q 186.8 213.8 189 212.5 L 191 205 L 202.5 203 L 206.5 201 Z "></path><path d="M 151.5 205 L 162.5 207 L 164.5 207 L 174.5 207 L 175.5 206 L 185.5 206 L 186.5 205 L 187 206.5 L 183 210.5 L 179.5 218 Q 177.3 218.8 178 216.5 L 173.5 211 Q 164.2 209.7 162 215.5 L 160.5 218 L 155.5 209 L 151.5 205 Z "></path><path d="M 186 216 Q 190.1 214.3 189 218.5 L 184 221 L 186 216 Z "></path><path d="M 166.5 220 L 167 226 L 163.5 225 Q 162.3 227.2 161 224.5 Q 160.3 222.3 162.5 223 L 165 222.5 L 166.5 220 Z "></path><path d="M 170 220 L 172.5 220 L 177 224.5 L 176.5 226 L 170 225 L 170 220 Z "></path><path d="M 161 229 Q 166.4 227.5 168 230.5 L 167.5 237 L 162 234 L 161 229 Z "></path><path d="M 170 229 Q 175.4 227.5 177 230.5 L 173.5 235 L 170 236 L 170 229 Z "></path><path d="M 267 271 L 269.5 272 L 271.5 271 L 274 272 L 273 274.5 Q 275.8 275.6 275 279 L 268.5 280 L 267.5 277 L 267 279 Q 262.9 280.7 264 276.5 L 265 273 Q 268 274 267 271 Z "></path><path d="M 228.5 281 L 232 283.5 Q 233.5 287.9 230.5 287 L 228 285.5 L 229 289 Q 226.3 290.1 227 287.5 L 225 286.5 L 226 290 L 223 288.5 L 223 286 Q 220 287 221 284 L 228.5 281 Z "></path><path d="M 280.5 281 L 283 282.5 L 284.5 286 L 286 286.5 L 284 291 L 277 287.5 L 277 285.5 L 278 282 L 280.5 281 Z "></path><path d="M 52.5 282 Q 56.7 280.9 55 285 L 50 286 Q 48.5 282.3 51.5 283 L 52.5 282 Z "></path><path d="M 267 287 Q 272.4 285.5 274 288.5 L 275 292.5 L 274 296 L 265 293 L 267 287 Z M 270 288 L 269 291 L 270 291 L 270 288 Z "></path><path d="M 285.5 293 L 289 294.5 L 290 298 L 288 298.5 L 291 299 L 292 303.5 Q 290.8 306.3 289.5 304 Q 287.3 303.3 288 305.5 L 286 304.5 L 284 301.5 L 283 301.5 L 283 307.5 L 286 318 L 290.5 317 L 293 318.5 L 291.5 321 L 293 321.5 L 289 323 Q 287.9 325.7 290.5 325 L 293 324 L 292 328 L 288 327 L 287.5 324 L 287 330.5 L 288 333.5 L 288 335.5 L 288.5 337 L 291.5 335 L 290.5 337 Q 287.9 336.2 289 339.5 L 292 338.5 L 293 343.5 L 288.5 347 L 287.5 345 L 286 345.5 L 284 338 Q 287 339.3 286 335.5 L 281 321 Q 278.3 319.9 279 322.5 L 278.5 324 L 281 325.5 L 280 330 Q 277.3 331.1 278 328.5 L 278.5 327 L 276 327.5 L 277 329.5 L 275.5 329 L 272 326.5 Q 270.5 320.5 273.5 319 L 275.5 320 Q 277.8 319.3 277 315.5 Q 274.2 312.8 275 306.5 L 278.5 301 Q 283.9 302.9 283 299.5 L 282 296.5 L 285.5 293 Z M 285 295 L 285 297 L 288 298 L 288 297 L 285 295 Z M 287 319 L 287 321 L 289 320 L 287 319 Z M 274 322 L 274 326 L 276 325 L 278 326 L 276 322 L 274 322 Z M 287 340 L 286 343 L 287 343 L 287 340 Z "></path><path d="M 262 298 L 266.5 298 L 273 301 Q 274.3 305.6 271.5 307 L 270.5 305 Q 269.2 308.8 265 308 Q 266 305 263 306 L 263 302.5 L 261 302.5 L 262 298 Z M 267 300 L 265 302 L 267 302 L 267 300 Z M 268 301 Q 267 304 270 303 Q 271 300 268 301 Z "></path><path d="M 53.5 317 Q 57 319 52.5 321 Q 49.2 322.1 50 319.5 L 53.5 317 Z "></path><path d="M 224 324 Q 227 322.8 226 326.5 L 226 328.5 Q 227 333 224.5 334 Q 221.5 332.4 223 327 L 225 326.5 L 224 324 Z "></path><path d="M 243.5 324 L 250 328.5 Q 251 334 247.5 335 L 247 333.5 L 248 330.5 L 247 330.5 L 245.5 333 L 244.5 331 L 244 333 L 242 332.5 L 242.5 331 Q 240.3 331.8 241 329.5 L 242 326.5 L 243.5 324 Z M 245 326 L 243 330 L 245 329 L 246 331 L 247 327 L 245 326 Z "></path><path d="M 261.5 327 L 264.5 328 L 266 327.5 L 268 332 Q 271.3 330.7 270 335.5 L 267.5 339 Q 264.8 337.8 267 336.5 L 266.5 335 L 264.5 338 L 263.5 335 L 262.5 337 L 261.5 334 L 260.5 336 L 260 332.5 L 261 330.5 L 260 328.5 L 261.5 327 Z M 266 331 L 264 335 L 266 334 L 266 331 Z "></path><path d="M 219.5 329 Q 222.1 328.2 221 331.5 L 222 334.5 Q 220.5 337.5 219 334.5 L 218 330.5 L 219.5 329 Z "></path><path d="M 93.5 334 L 96 335.5 Q 97.7 340.3 93.5 339 L 92 335.5 L 93.5 334 Z "></path><path d="M 87.5 340 L 95 344.5 L 93.5 347 L 86 341.5 L 87.5 340 Z "></path><path d="M 74 343 Q 78.6 341.8 80 344.5 L 79.5 347 L 74 345 L 74 343 Z "></path><path d="M 251.5 343 Q 253.8 342.3 253 344.5 L 254.5 349 L 256 348.5 L 253.5 354 L 252.5 352 L 251 352.5 L 250.5 349 L 249 349.5 L 251.5 343 Z M 253 345 L 251 347 L 252 349 L 253 347 L 253 345 Z M 254 349 L 252 351 L 254 352 L 254 349 Z "></path><path d="M 262.5 343 L 265 344.5 L 264 355.5 L 265 355.5 Q 264.2 352.9 267.5 354 L 272 357.5 L 269 365 L 266.5 364 L 264 364.5 L 263 367.5 L 264.5 376 L 265 372 L 269 372 Q 267.9 374.7 270.5 374 L 273 375 L 268.5 386 L 266 382 L 268 381.5 L 267 379.5 L 268 376.5 L 267 376.5 L 265.5 381 L 264.5 379 L 263 381.5 Q 265.3 382.8 264 387.5 Q 261.7 388.7 263 393.5 L 263 395.5 L 264 397.5 L 263 398.5 L 263 416.5 L 265 415.5 Q 262.8 414.3 264 409.5 L 265 409.5 L 266 413.5 L 266 415.5 L 263.5 419 Q 260.8 418.4 262 424.5 L 260 431.5 L 260 450.5 L 258 461.5 L 258 463.5 L 258.5 475 L 261.5 473 L 264 474 L 264.5 476 L 266 475.5 L 267.5 480 L 268 477 Q 271.3 475.9 270 480 L 268 480 L 268 482 L 264 484 L 263.5 482 L 261.5 485 L 261 483 Q 257.3 484.5 258 481.5 L 257 481.5 L 255 490.5 L 255 500.5 L 254 501.5 L 254 520.5 Q 251.3 522.2 253 528.5 L 251.5 530 Q 249.3 530.8 250 528.5 L 249 524.5 L 250 523.5 L 250 508.5 L 251 506.5 L 251 504.5 L 251 493.5 L 252 492.5 L 253 479.5 L 250 479.5 L 249.5 483 L 249 477.5 L 251.5 477 L 254 476.5 L 254 468.5 L 255 463.5 L 255 461.5 L 257 437.5 L 256 435.5 L 257 431.5 L 256 431.5 L 255 436.5 L 248 449 L 245 447.5 Q 250.4 443.4 252 435.5 L 250.5 436 L 248.5 437 L 247.5 433 L 245.5 437 L 244.5 435 L 243.5 437 L 241 431 L 235 432 L 236.5 429 L 241.5 428 L 246 425 L 253 414.5 L 253 409.5 L 256 403.5 L 256 394.5 L 258.5 391 L 259.5 396 L 260 350.5 Q 262.3 349.2 261 344.5 L 262.5 343 Z M 272 347 L 270 349 L 272 349 L 272 347 Z M 265 359 L 264 362 L 266 363 L 265 359 Z M 271 375 L 268 380 L 269 381 L 271 378 L 271 375 Z M 237 378 L 236 381 L 237 381 L 237 378 Z M 250 388 L 248 393 L 250 392 L 250 388 Z M 252 391 L 251 394 L 252 394 L 252 391 Z M 260 399 L 255 418 L 251 423 Q 252 425 250 424 L 248 428 L 250 427 L 251 428 L 249 434 L 250 435 L 252 430 L 253 434 L 255 428 Q 254 424 258 426 L 259 420 L 259 405 L 260 404 L 260 399 Z M 241 411 L 240 413 L 242 414 L 241 411 Z M 246 430 L 244 432 L 246 433 L 246 430 Z M 263 476 L 262 478 L 260 480 L 262 483 L 262 482 L 262 480 L 264 480 L 263 476 Z M 259 477 L 257 479 L 258 480 L 260 479 L 259 477 Z M 265 480 L 265 482 L 267 481 L 265 480 Z "></path><path d="M 271 343 L 277 343 L 277 347.5 L 279 347.5 Q 279.6 352.6 276.5 354 L 273.5 353 L 271.5 354 Q 268.3 351.3 269 346 Q 272.3 347.1 271 343 Z M 273 349 L 274 352 L 275 350 L 273 349 Z "></path><path d="M 14.5 345 L 17 346.5 L 16 347.5 L 15 376.5 L 14 379.5 L 14 381.5 L 15 383.5 L 14 385.5 L 14 387.5 L 13.5 403 L 11 402 L 11 391.5 L 12 390.5 L 11 387.5 L 12 386.5 L 13 346.5 L 14.5 345 Z "></path><path d="M 117 345 L 120 345.5 L 120 354.5 Q 118 358 116 353.5 L 117 345 Z "></path><path d="M 28 346 Q 31.7 344.5 31 347.5 Q 33.3 348.7 30.5 350 L 28 348.5 L 28 346 Z "></path><path d="M 76.5 348 L 79 352 L 75 349.5 L 76.5 348 Z "></path><path d="M 257.5 349 L 258 353.5 L 255.5 358 L 255 354.5 L 257.5 349 Z "></path><path d="M 239.5 353 L 247 356.5 Q 247.7 359.1 245 358 Q 246.3 354.7 241.5 356 L 239.5 355 L 238 358 L 240.5 359 L 241.5 357 L 242.5 360 L 244.5 360 Q 246.8 359.3 246 361.5 L 243.5 367 L 241.5 360 L 238 362.5 L 238 359 Q 235.3 360.1 236 357.5 L 239.5 353 Z "></path><path d="M 289.5 354 L 290 356 Q 294.1 354.3 293 358.5 L 291.5 361 L 293 361.5 L 292 363.5 L 293 365.5 L 289.5 368 L 291 365.5 L 290.5 364 L 287.5 366 L 287 364.5 L 287 362.5 L 286.5 360 Q 285.3 362.3 284 359.5 Q 283.3 357.3 285.5 358 L 289.5 354 Z "></path><path d="M 201.5 358 L 205 358.5 L 201.5 359 L 201.5 358 Z "></path><path d="M 226.5 358 L 227 360.5 L 224.5 364 L 224 362.5 L 226.5 358 Z "></path><path d="M 228.5 359 L 231 360 Q 232.5 365.4 229.5 367 L 228.5 365 L 226.5 366 L 227 364.5 L 228.5 359 Z M 230 361 L 228 363 L 230 364 L 230 361 Z "></path><path d="M 212.5 360 Q 215.1 359.3 214 362 L 206.5 365 L 207.5 363 L 212.5 360 Z "></path><path d="M 277.5 362 Q 281.9 360.5 281 363.5 L 284 368.5 L 283 371 L 280.5 372 L 277 369.5 L 276.5 367 L 275.5 369 L 275 367.5 L 276 364.5 L 274 365.5 L 273.5 367 L 273 365.5 L 277.5 362 Z M 280 367 L 280 370 L 282 369 Q 283 366 280 367 Z "></path><path d="M 187.5 364 L 188 366 L 182 369.5 L 182.5 371 L 185 370 L 185.5 372 L 187.5 368 L 189.5 367 L 190 369.5 L 188.5 372 Q 190.8 371.3 190 373.5 L 191 375.5 L 188.5 378 L 182.5 379 L 179.5 377 L 179 378.5 L 180.5 380 L 189.5 380 L 191.5 379 L 191.5 380 L 184.5 382 L 182.5 382 Q 177.4 382.6 176 379.5 Q 176.4 370.4 182.5 367 L 187.5 364 Z M 182 371 L 180 374 L 182 373 L 182 371 Z M 188 373 L 186 375 L 187 377 L 188 377 L 188 373 Z M 181 374 L 181 376 L 183 377 Q 184 373 181 374 Z "></path><path d="M 211.5 367 L 213.5 370 L 211 368.5 L 211.5 367 Z "></path><path d="M 251.5 367 Q 254 368.2 253 372 L 255.5 371 L 256 374 L 254 374.5 L 254 376.5 Q 254.8 378.8 252.5 378 L 248.5 380 L 246 379 Q 245.1 373.6 249 371.5 L 247.5 371 L 245 372.5 L 247.5 368 Q 249.3 371.7 251 368.5 L 251.5 367 Z M 253 372 L 251 376 L 253 375 L 253 372 Z M 250 373 Q 247 374 248 378 Q 251 379 250 377 L 250 375 L 250 373 Z "></path><path d="M 233.5 372 Q 238.3 371.3 240 373.5 L 238 382 L 235.5 381 L 234 381.5 L 233 377.5 Q 236.5 376 234 374.5 L 233.5 373 L 231.5 378 L 231 376.5 L 233.5 372 Z M 235 377 L 234 380 L 235 380 L 235 377 Z "></path><path d="M 240 377 Q 243.3 375.7 242 380.5 L 241 383 Q 238 384.3 239 380.5 L 240 377 Z "></path><path d="M 271 381 Q 274 380 273 383 Q 270 384 271 381 Z "></path><path d="M 183.5 383 Q 187.3 382 186 385 L 182 384.5 L 183.5 383 Z "></path><path d="M 279.5 384 L 285 386 L 285 388 Q 282.3 386.9 283 389.5 L 284 395 Q 277.7 396.5 276 392.5 Q 274.5 386.5 277.5 385 L 279.5 384 Z M 277 387 L 277 389 L 279 388 L 277 387 Z "></path><path d="M 247.5 386 L 250.5 387 L 252 386.5 L 254 389.5 L 253 391.5 L 255 391.5 L 254 396 L 250.5 394 L 250 396 L 246 398.5 L 245 402.5 L 249 404 Q 250.3 407 246.5 406 L 250 410.5 L 247.5 416 Q 246 413.5 244.5 417 L 242 417 L 242 415 Q 239.3 416.1 240 413.5 L 239 410 L 235 411 L 236 413.5 L 232.5 422 L 231 421.5 L 232 425.5 L 231 425.5 Q 232.1 422.2 229.5 423 L 229 420.5 L 231 416 L 229 415.5 L 229.5 414 L 221.5 412 L 219.5 413 L 214 401 L 216.5 400 L 221 407.5 L 221 410 L 230.5 411 L 240 404.5 Q 240.7 398.3 245 395.5 L 245 388.5 L 247.5 386 Z M 217 390 L 218 392 Q 219 389 217 390 Z M 216 393 L 215 396 L 216 396 L 216 393 Z "></path><path d="M 228.5 389 L 234 391 L 234.5 393 L 236 392.5 L 234.5 398 L 233.5 397 L 231 398.5 L 232 394 Q 228 392.6 230 399.5 L 228 398.5 L 229 396 Q 226.3 397.1 227 394.5 Q 229.5 393 226 391.5 Q 225.3 389.3 227.5 390 L 228.5 389 Z M 228 391 Q 227 394 230 393 Q 231 390 228 391 Z "></path><path d="M 269 394 Q 273.7 393.3 275 397.5 Q 276 401.3 273 400 Q 274.5 395.5 270 397 L 271 400.5 Q 268.3 401.3 269 405.5 L 270 405.5 L 272.5 401 L 273 402.5 L 269.5 408 L 267 404.5 L 268 401.5 L 268 399.5 L 269 394 Z "></path><path d="M 275.5 409 L 280 410 L 282 413.5 Q 278.4 415.4 279 420 L 276.5 421 L 275.5 419 Q 274.3 421.3 273 418.5 L 272 411.5 L 275.5 409 Z M 277 411 L 275 413 L 278 415 Q 279 410 277 411 Z M 274 413 Q 272 416 275 415 L 274 413 Z M 276 416 Q 275 419 278 418 Q 279 415 276 416 Z "></path><path d="M 12.5 411 L 14 414.5 L 12 415.5 L 12.5 411 Z "></path><path d="M 237.5 413 Q 240.3 414.3 238 415.5 L 240 419.5 L 238.5 425 L 236.5 420 L 236 424 Q 233 425.3 234 421.5 L 237.5 413 Z "></path><path d="M 162 416 Q 165.3 414.9 164 419 Q 160.7 420.1 162 416 Z "></path><path d="M 12 417 Q 15.7 415.6 14 421.5 L 13 424.5 L 14 426.5 L 13 429.5 L 14 431.5 L 14 460.5 L 15 461.5 L 15 479.5 L 16 481.5 L 15 486.5 L 15 488.5 L 16 500 L 13 499.5 L 13 488.5 L 13 486.5 L 13 453.5 L 12 452.5 L 12 440.5 L 11 439.5 L 11 421.5 L 12 417 Z "></path><path d="M 270.5 421 L 271 423 L 267 424 L 267.5 426 L 269 425.5 L 268 429 Q 271.7 430.4 270 424.5 L 272 425.5 L 271 427.5 L 272 430 L 270 430.5 L 273 431.5 L 269 433 L 268.5 431 L 266 432 L 265 424.5 L 270.5 421 Z "></path><path d="M 167.5 422 Q 169.8 421.3 169 423.5 L 167.5 422 Z "></path><path d="M 163 424 Q 166 423 165 426 Q 162 427 163 424 Z "></path><path d="M 164.5 428 L 167 432.5 L 165 433.5 Q 166.5 429.1 163.5 430 L 164.5 428 Z "></path><path d="M 166 436 Q 169.3 434.9 168 439 Q 164.7 440.1 166 436 Z "></path><path d="M 266 447 Q 268.7 445.9 268 448.5 L 271 453.5 L 269 454 L 269.5 457 L 272 455.5 L 272 458 L 265.5 458 Q 261.3 456.3 264 454.5 Q 263.3 451.9 266 453 L 266 450.5 L 263 451.5 L 264 449 Q 267 450 266 447 Z M 269 450 L 268 454 L 269 454 L 269 450 Z M 266 454 L 266 456 L 268 455 L 266 454 Z "></path><path d="M 207.5 448 L 208.5 450 L 207.5 448 Z "></path><path d="M 242.5 451 L 243.5 456 L 244 451 L 246 451.5 L 244 461 L 242 460.5 L 243 457 Q 240 458.3 241 454.5 L 242.5 451 Z "></path><path d="M 248.5 451 L 253 454.5 Q 254 459 251.5 460 Q 248.9 460.8 250 457.5 L 249 457.5 L 248.5 461 L 247.5 456 L 246.5 459 L 246 454.5 L 248.5 451 Z M 249 453 L 248 456 L 249 456 L 249 453 Z "></path><path d="M 245.5 460 L 246 462.5 L 245 462.5 L 245.5 460 Z "></path><path d="M 275.5 460 Q 279.5 460.5 279 465.5 L 277.5 465 L 274 466.5 L 274.5 468 L 277 466.5 L 277.5 468 L 279 467.5 L 277 472.5 L 277.5 474 Q 271.4 475.3 272 472.5 L 272 470.5 Q 272.7 467.9 270 469 L 270 465.5 L 272 462 L 274 462.5 L 273 464.5 L 274.5 464 Q 276.8 464.8 276 462.5 L 275.5 460 Z M 276 468 L 274 470 L 275 472 Q 278 473 277 471 L 277 469 L 276 468 Z "></path><path d="M 230 462 Q 233.7 460.5 233 463.5 L 232.5 465 Q 234.8 464.3 234 466.5 L 233.5 468 Q 235.8 467.3 235 469.5 L 236 469.5 L 238.5 464 L 239 467.5 L 238 471 L 234 472.5 L 233.5 474 L 232.5 472 L 231 472.5 L 232 468.5 L 230.5 469 Q 228.3 468.3 229 470.5 L 228 470.5 L 226 465.5 L 227 463 Q 229.7 461.9 229 464.5 L 230 464.5 L 230 462 Z M 234 469 L 233 472 L 234 472 L 234 469 Z "></path><path d="M 234.5 462 L 237 463.5 L 235.5 467 L 234.5 462 Z "></path><path d="M 214.5 465 L 216.5 466 L 218.5 466 L 221.5 468 L 220 470.5 L 218 478 L 215 476.5 L 217 469 Q 220 470 219 467 L 215 469.5 L 213.5 475 L 213 472 L 211 471.5 L 214.5 465 Z "></path><path d="M 136.5 467 L 138 467 Q 136.5 470.8 139.5 470 L 139 468.5 L 139.5 467 L 143 469.5 Q 142.5 472.5 138.5 472 L 134 469.5 L 136.5 467 Z "></path><path d="M 221.5 471 L 222 477 Q 219.3 478.1 220 475.5 L 221.5 471 Z "></path><path d="M 245.5 472 Q 248.8 470.9 248 473.5 L 246.5 476 L 245.5 474 L 243 481 L 241 480.5 L 243 475.5 L 242 473 L 245.5 472 Z "></path><path d="M 245 478 Q 249.1 476.7 248 480 L 246 480.5 L 247 483.5 L 246 483.5 L 245.5 481 L 244.5 483 L 244 480.5 L 245 478 Z "></path><path d="M 230.5 483 L 233.5 484 Q 238.9 482.1 238 485.5 L 237 487.5 L 239 487.5 L 240 493 Q 237.3 491.9 238 494.5 L 237 494.5 L 235.5 492 L 235 493.5 L 235.5 495 L 232.5 496 L 230 491 Q 233 492.3 232 488.5 L 233 486 L 229 488 L 230.5 483 Z M 234 490 L 232 493 L 234 492 L 234 490 Z "></path><path d="M 194.5 486 L 195 487.5 L 192.5 489 L 194.5 486 Z "></path><path d="M 194.5 491 Q 197.1 490.3 196 493 L 193.5 494 L 193 492.5 L 194.5 491 Z "></path><path d="M 218 491 Q 221 489.8 220 493.5 L 218 494.5 L 218 491 Z "></path><path d="M 195.5 494 L 196.5 496 L 193 497 Q 191.9 494.3 194.5 495 L 195.5 494 Z "></path><path d="M 262.5 496 L 266 501.5 L 265 503.5 L 266 506 Q 263 504.8 264 508.5 L 261.5 509 L 258.5 508 L 257 508.5 Q 259.5 507 256 505.5 L 256 503 Q 258.7 504.1 258 501.5 L 259 499.5 L 257 500.5 L 256.5 502 L 256 500.5 L 258 497 L 262.5 496 Z M 260 499 L 260 501 L 263 500 L 260 499 Z M 264 501 L 262 503 L 264 503 L 264 501 Z M 260 503 L 260 505 L 262 504 L 260 503 Z M 264 504 L 263 506 L 265 505 L 264 504 Z "></path><path d="M 57.5 501 L 58 502.5 L 56 503.5 L 57.5 501 Z "></path><path d="M 239.5 503 L 244 506.5 Q 245 510.3 242 509 L 241 505 Q 237.8 506 239.5 503 Z "></path><path d="M 247 507 Q 250 505.8 249 509.5 L 247 508.5 L 247 507 Z "></path><path d="M 300 507 L 302.5 508 L 314 508.5 L 312.5 510 L 303.5 510 L 300 509 L 300 507 Z "></path><path d="M 273.5 510 Q 277 511 276 516.5 L 273 518 Q 271.9 520.7 274.5 520 L 276 519.5 Q 276.8 522.1 273.5 521 L 272 521.5 L 272.5 520 L 269.5 521 L 270 519.5 Q 270.8 517.3 268.5 518 L 269 514.5 L 268 512.5 L 273.5 510 Z M 273 513 L 273 515 L 275 514 L 273 513 Z "></path><path d="M 129.5 517 Q 136.8 514.8 135 520 L 128 518.5 L 129.5 517 Z "></path><path d="M 236 520 L 240 521.5 Q 241.3 525.3 237.5 524 L 237.5 525 Q 243.3 526.3 246 530.5 Q 246.8 532.8 244.5 532 L 235 526.5 L 236 520 Z "></path><path d="M 45.5 521 L 51.5 523 Q 53.3 519.3 55 522.5 L 53.5 525 L 49.5 526 L 44 522.5 L 45.5 521 Z "></path><path d="M 135 521 L 139.5 522 L 144 521 L 143.5 523 L 135 523 L 135 521 Z "></path><path d="M 258.5 521 L 259 523.5 L 258 527 Q 261.7 528.4 260 522.5 L 262 523.5 L 262.5 527 L 263.5 525 L 266 530.5 L 264 531 Q 265.5 527.2 262.5 528 L 261 528.5 L 260.5 527 L 260 530.5 L 261.5 530 Q 264.1 529.3 263 532 L 259 533 L 257.5 530 L 256.5 532 L 256 529.5 L 257 527.5 L 256 522 L 258.5 521 Z "></path><path d="M 301.5 521 L 306 521.5 L 302.5 523 L 301.5 521 Z "></path><path d="M 126 523 L 128.5 524 L 146.5 526 Q 147.8 523.8 149 526.5 Q 149.8 528.8 147.5 528 L 145.5 527 L 143.5 527 L 126 525 L 126 523 Z "></path><path d="M 115.5 527 L 122.5 527 L 123 529 L 116.5 529 L 115.5 527 Z "></path><path d="M 306 527 L 315.5 527 L 317 528.5 L 315.5 529 Q 313.8 526.3 307.5 528 L 306 528.5 L 306 527 Z "></path><path d="M 133 529 L 145 530.5 L 133 531 L 133 529 Z "></path><path d="M 269 531 Q 271.7 529.9 271 532.5 L 270.5 534 L 272.5 533 L 274 535.5 L 272 540 L 274 540.5 L 270.5 541 L 267 538.5 L 268 536.5 L 268 534.5 L 269 531 Z "></path><path d="M 328.5 532 L 331 532.5 L 328.5 533 L 328.5 532 Z "></path><path d="M 141.5 533 Q 147.3 531.3 146 535 L 141.5 534 L 141.5 533 Z "></path><path d="M 316.5 534 Q 322.6 533.3 325 535 L 322.5 539 Q 314.9 537.5 316 541 L 321.5 542 L 324 541 L 323.5 543 L 316.5 543 L 316.5 544 L 331 544.5 L 318.5 545 L 316 546 Q 314.6 550 321.5 548 L 323.5 548 L 325.5 547 L 326.5 549 L 317.5 549 L 316 550.5 L 320.5 552 L 321.5 551 L 329.5 551 L 333 553.5 Q 334.3 557.3 330.5 556 Q 328.8 558.8 322.5 557 L 321 558.5 L 323 559 L 323 561 L 318 561 L 320 557 L 317 557 L 317 565.5 L 317 567.5 L 317 576.5 L 318 577.5 L 315.5 579 L 314 577.5 L 313.5 559 L 313 562 Q 308.1 563.8 310 557.5 L 313 556 L 313 553 L 308 553 L 308 550.5 L 313 548 Q 314.3 545 310.5 546 L 306 545 L 307.5 542 Q 312 543 313 540.5 Q 312 536 314.5 535 L 316.5 534 Z M 317 536 Q 316 540 321 538 Q 322 534 317 536 Z M 326 552 L 325 553 L 318 553 L 317 555 L 329 555 L 330 554 L 326 552 Z "></path><path d="M 122 535 Q 125 534 124 537 Q 121 538 122 535 Z "></path><path d="M 222 537 L 238 538 L 237.5 540 L 227.5 540 L 222 539 L 222 537 Z "></path><path d="M 252 538 L 255 538 L 255 540 Q 257.7 538.9 257 541.5 Q 254.5 543 258 544.5 L 255.5 547 L 255 545 L 252.5 546 L 252 542.5 L 255 540.5 L 252 540 L 252 538 Z "></path><path d="M 206.5 539 L 211 540.5 L 203.5 542 L 202.5 540 L 206.5 539 Z "></path><path d="M 135.5 542 L 136.5 544 Q 133.7 544.7 135.5 542 Z "></path><path d="M 342 545 L 344 545.5 L 343 547.5 L 344 549.5 L 342.5 553 L 342 550.5 L 342 548.5 L 342 545 Z "></path><path d="M 342 554 L 344 554.5 L 342 555.5 L 342 554 Z "></path><path d="M 209.5 558 Q 212.5 557.2 211 561 L 208.5 560 L 202 561 Q 200.9 557.5 208.5 559 L 209.5 558 Z "></path><path d="M 130 562 Q 132.1 563.6 137.5 563 L 139.5 562 L 141.5 563 L 144.5 562 L 147 562.5 L 145.5 564 L 139 564.5 L 147 565 L 146.5 567 L 139.5 567 L 134 566 L 134 564 Q 128.8 565.7 130 562 Z "></path><path d="M 342.5 563 L 344 563.5 L 340.5 565 L 340.5 564 L 342.5 563 Z "></path><path d="M 134.5 568 Q 136.8 567.3 136 569.5 L 134.5 568 Z "></path><path d="M 7 570 L 10.5 571 L 12.5 570 L 18 572.5 L 14.5 573 L 12.5 573 L 7 572 L 7 570 Z "></path><path d="M 156.5 571 L 159 572.5 L 148.5 573 L 148.5 572 Q 154.8 573.8 156.5 571 Z "></path><path d="M 7 574 Q 10.7 572.5 10 575.5 Q 8.5 578.5 7 575.5 L 7 574 Z "></path><path d="M 132.5 575 L 133 577 L 131 576.5 L 132.5 575 Z "></path><path d="M 159 575 L 168.5 576 L 171.5 575 L 173.5 575 Q 179.8 578.9 191 577 L 190.5 579 L 172 579 L 171.5 577 L 159.5 577 L 159 575 Z "></path><path d="M 56 577 Q 59 576 58 579 Q 55 580 56 577 Z "></path><path d="M 69.5 577 L 75 577.5 L 69.5 578 L 69.5 577 Z "></path><path d="M 299.5 577 Q 301.8 576.3 301 578.5 L 299.5 577 Z "></path><path d="M 22.5 580 L 25 581.5 L 23.5 582 L 22.5 580 Z "></path><path d="M 14.5 583 Q 16.8 582.3 16 584.5 L 14.5 583 Z "></path><path d="M 19.5 583 L 27 583.5 L 19.5 584 L 19.5 583 Z "></path><path d="M 29.5 583 L 33 583.5 L 29.5 584 L 29.5 583 Z "></path><path d="M 36.5 583 Q 40.3 582 39 585 L 36.5 583 Z "></path><path d="M 93.5 584 L 94.5 586 Q 91.7 586.7 93.5 584 Z "></path><path d="M 161.5 584 L 162 586 L 155.5 587 L 154 586.5 L 151.5 590 L 140.5 591 L 135.5 590 L 133.5 590 L 130 589.5 L 148.5 589 L 153 588 Q 154.3 585 150.5 586 L 145.5 587 L 142 585.5 L 160.5 585 L 161.5 584 Z "></path><path d="M 246 585 L 248 585.5 L 246 586.5 L 246 585 Z "></path><path d="M 19.5 586 L 20.5 588 Q 17.7 588.7 19.5 586 Z "></path><path d="M 58.5 588 L 62.5 589 L 65.5 588 L 65.5 589 L 63.5 590 L 25.5 591 L 25.5 590 L 34.5 590 L 35.5 589 L 37.5 590 L 38.5 589 L 57.5 589 L 58.5 588 Z "></path><path d="M 97.5 588 L 116 588.5 L 107.5 590 L 103.5 589 L 92.5 591 L 90.5 591 L 86.5 590 L 85.5 591 L 77.5 591 L 76.5 589 L 82.5 590 L 83.5 589 L 96.5 589 L 97.5 588 Z "></path><path d="M 155 588 L 164 589.5 L 155 590 L 155 588 Z "></path><path d="M 171.5 588 Q 175.3 587 174 590 L 165 589.5 L 171.5 588 Z "></path><path d="M 344.5 590 L 346 592.5 L 344 593.5 L 344.5 590 Z "></path></svg>