<svg width="350" height="600" version="1.1" xmlns="http://www.w3.org/2000/svg" desc="Created with imagetracer.js version 1.2.5"><path d="M 113.5 6 L 117.5 7 L 119.5 7 L 172.5 7 L 176.5 6 L 178.5 7 L 180.5 6 L 181.5 7 L 199.5 7 Q 201 4.5 206.5 6 L 209.5 7 L 211.5 6 L 215.5 7 L 219.5 6 L 222.5 7 L 223.5 6 L 254.5 6 L 256.5 7 L 261.5 6 L 263.5 7 L 264.5 6 L 334 6 L 335 8.5 L 336 75.5 L 335 80.5 L 335 82.5 L 336 87.5 L 336 89.5 L 336 150.5 L 335 151.5 L 336 152.5 L 336 282.5 L 337 286.5 L 336 287.5 L 336 334.5 L 337 335.5 L 337 431.5 L 338 432.5 L 337 434.5 L 337 436.5 Q 335.7 441.2 338 442.5 L 338 471.5 Q 335.5 473 337 478.5 L 337 480.5 L 337 537.5 L 338 541.5 L 337 542.5 L 337 552.5 L 337 554.5 L 338 558.5 L 337 560.5 L 337 562.5 L 337 585.5 Q 339.5 587 338 592.5 L 336.5 594 L 291.5 594 L 290.5 595 L 276.5 595 L 275.5 594 L 165.5 594 L 163.5 594 L 154.5 595 L 152.5 594 L 150.5 595 L 149.5 594 L 137.5 594 L 135.5 595 L 133.5 595 L 104.5 595 L 102.5 596 L 100.5 595 L 97.5 596 L 96.5 595 L 36.5 595 L 35.5 596 L 26.5 596 L 25.5 595 L 13.5 595 L 11.5 595 L 4 595 L 4 576.5 L 4 574.5 L 5 572.5 L 5 507.5 L 4 505.5 L 5 504.5 L 5 484.5 L 5 482.5 L 5 473.5 L 4 472.5 L 5 471.5 L 5 304.5 L 6 301.5 L 5 300.5 L 5 251.5 L 4 250.5 L 5 249.5 L 5 10.5 L 7.5 7 L 45.5 7 L 47.5 8 L 51.5 7 L 53.5 7 L 112.5 7 L 113.5 6 Z M 307 8 L 306 9 L 206 9 L 205 10 L 203 9 L 144 9 L 143 10 L 142 9 L 115 9 L 113 9 L 111 10 L 109 10 L 107 9 L 105 10 L 103 9 Q 101 12 95 10 L 93 10 L 89 9 L 87 10 L 85 10 L 8 10 L 8 145 L 8 147 L 9 150 L 8 155 L 8 213 L 9 214 L 8 218 L 8 308 L 8 310 L 8 389 L 7 390 L 8 392 L 9 424 L 19 402 L 28 390 L 36 383 Q 38 382 37 379 L 34 377 Q 33 368 37 363 L 36 360 L 38 359 L 37 357 L 40 350 L 47 343 L 50 343 L 57 339 L 66 339 L 67 338 Q 69 337 68 340 L 74 343 L 76 346 L 82 361 Q 84 366 81 368 L 82 379 L 76 381 L 76 384 Q 82 388 84 396 L 88 412 L 88 421 L 91 421 L 98 416 Q 100 417 99 415 L 103 413 L 103 418 L 98 423 L 118 423 L 120 423 L 122 422 L 123 422 L 123 426 L 126 425 Q 129 424 128 428 L 125 429 L 123 432 L 115 438 L 104 440 L 102 440 Q 96 439 98 443 L 101 444 L 107 443 L 110 442 L 112 445 L 112 442 L 120 442 L 121 441 Q 125 440 123 444 L 126 445 Q 129 444 128 447 L 124 449 L 125 451 L 118 455 Q 114 454 116 458 Q 121 457 122 461 Q 121 463 124 462 L 127 467 L 132 464 L 131 458 L 139 452 L 143 452 Q 146 453 145 458 L 148 459 Q 151 460 149 455 Q 150 451 156 452 Q 160 454 160 461 L 165 457 L 161 443 L 160 448 L 158 446 L 156 445 L 157 447 Q 158 451 156 450 Q 154 447 153 451 Q 149 450 150 445 Q 147 444 148 448 Q 150 449 148 450 L 145 449 L 146 444 L 144 444 L 144 449 L 142 449 L 141 447 Q 142 444 140 445 L 135 436 L 131 435 L 132 432 Q 133 427 130 428 L 132 425 L 131 421 L 133 418 L 133 399 L 133 397 L 132 395 L 133 391 L 133 376 L 131 379 L 123 375 L 120 375 Q 121 372 118 373 Q 117 366 120 362 L 120 344 L 120 342 L 121 337 L 118 337 L 113 334 L 109 342 L 103 348 Q 100 347 101 350 L 99 351 L 97 350 L 93 351 Q 89 350 90 353 L 85 355 L 84 356 L 80 353 Q 81 345 86 342 L 86 339 L 80 340 L 85 328 L 102 321 L 103 319 L 101 316 Q 100 311 103 310 L 112 306 Q 115 304 115 300 L 118 297 L 118 295 L 117 292 L 117 290 L 119 289 L 118 288 Q 117 285 120 286 L 121 281 L 128 269 L 128 267 L 136 249 L 140 227 L 144 219 L 159 213 Q 158 208 161 206 L 159 203 Q 160 199 155 201 L 152 199 L 151 190 L 148 186 L 142 182 L 138 179 L 136 174 Q 135 164 139 160 Q 142 154 149 154 L 148 151 Q 149 147 146 148 L 148 140 L 151 137 L 156 136 Q 162 135 166 137 L 169 142 L 174 144 L 176 143 L 179 144 Q 185 146 187 143 L 193 144 L 197 150 L 200 160 L 198 165 Q 199 167 196 166 L 203 185 L 208 189 L 209 190 L 217 190 L 218 193 L 227 196 Q 230 198 229 203 L 238 203 L 249 209 L 258 222 L 261 241 Q 263 244 266 239 L 268 239 Q 267 236 270 237 L 269 239 L 270 242 L 268 246 Q 267 249 270 248 L 271 245 Q 270 242 273 243 L 273 241 L 275 241 L 274 240 L 278 233 L 278 227 L 282 223 L 285 224 L 288 222 L 285 220 L 274 223 L 272 233 Q 273 237 270 236 Q 269 228 272 224 Q 275 219 282 219 L 280 215 L 281 213 L 285 210 Q 288 209 287 212 L 284 213 L 286 213 L 287 216 L 293 213 L 295 217 L 299 221 L 298 222 L 300 233 L 289 241 L 291 263 L 315 264 Q 314 259 317 258 L 321 259 L 322 264 L 317 268 L 325 308 L 328 311 L 333 310 L 333 189 L 332 188 L 333 184 L 332 182 L 333 180 L 332 178 Q 330 165 333 158 L 333 156 Q 334 151 332 150 L 333 139 L 333 137 L 333 125 L 332 124 L 333 122 L 332 120 L 333 117 L 333 108 L 332 107 L 332 94 L 333 93 L 333 81 L 332 80 L 333 78 L 332 73 L 332 20 L 331 19 L 332 17 L 331 16 L 331 9 L 328 8 L 326 9 L 323 8 L 320 9 L 317 8 Q 312 7 311 9 L 309 8 L 307 8 Z M 154 177 L 154 179 L 155 180 L 153 179 L 149 184 Q 149 188 152 189 L 152 193 L 156 200 L 160 197 L 162 200 L 167 199 L 168 202 L 167 201 L 162 203 L 164 206 Q 166 205 165 208 L 167 207 L 166 209 L 170 209 L 176 204 L 174 207 L 175 208 L 177 207 L 181 202 L 182 205 L 188 202 L 189 200 L 187 201 Q 182 202 182 199 Q 179 198 180 201 L 178 199 Q 175 198 176 201 L 173 200 L 176 199 L 173 197 L 172 194 Q 169 195 170 192 L 168 193 Q 164 194 165 192 L 162 190 L 161 188 L 162 186 L 162 183 L 161 185 L 160 183 L 157 184 L 158 181 L 158 183 L 159 183 L 159 180 Q 156 181 157 179 L 154 177 Z M 284 213 Q 280 215 285 217 L 286 217 L 284 213 Z M 291 215 L 289 216 L 287 219 L 290 218 L 292 219 L 293 217 L 291 215 Z M 194 217 L 191 218 L 188 235 L 187 235 Q 186 225 188 220 L 179 221 L 180 228 L 179 231 Q 180 235 177 234 L 178 222 L 169 221 L 168 226 Q 169 228 166 227 L 167 224 L 164 222 L 160 243 L 160 252 L 160 254 L 159 267 L 158 268 L 158 281 L 158 283 L 158 291 L 160 298 L 159 302 Q 162 303 158 305 L 160 307 L 159 309 L 159 311 L 160 315 L 159 318 Q 159 322 162 323 L 163 328 L 164 328 Q 165 323 163 322 L 163 293 L 164 292 Q 163 286 167 288 L 166 293 L 167 295 L 166 296 L 166 310 L 166 312 L 166 321 L 167 322 L 166 324 L 167 326 Q 169 331 166 333 L 171 334 L 169 328 L 169 319 L 168 318 L 168 304 L 169 303 Q 167 297 171 298 L 172 302 L 172 304 L 171 306 L 171 308 L 172 327 L 174 334 Q 179 336 177 331 L 177 329 L 176 327 Q 179 325 177 320 L 177 318 L 176 315 L 176 308 L 178 307 L 179 309 L 179 319 L 180 320 L 179 325 L 180 334 L 182 334 L 182 324 L 184 324 Q 186 327 185 335 L 188 334 Q 189 329 186 328 L 187 325 L 187 278 L 188 277 L 188 253 Q 184 261 186 274 L 184 283 L 184 305 L 183 306 L 181 304 L 182 302 L 181 300 L 182 298 L 182 282 L 184 276 L 184 262 L 186 254 L 186 246 L 188 245 L 189 251 L 190 237 L 193 228 L 193 222 L 195 219 Q 196 216 194 217 Z M 295 219 L 290 222 L 288 226 Q 289 228 286 227 L 286 229 L 296 224 L 297 221 L 295 219 Z M 296 225 L 294 229 L 297 229 L 297 225 L 296 225 Z M 293 227 L 289 229 Q 288 232 293 231 L 294 228 L 293 227 Z M 283 230 L 282 234 L 283 234 L 283 230 Z M 286 230 L 284 237 L 284 252 L 283 253 Q 281 259 284 261 L 283 266 Q 282 269 285 270 Q 289 271 290 269 L 288 259 L 288 250 L 287 249 L 287 235 L 288 234 L 286 230 Z M 297 230 L 293 233 Q 290 232 291 235 L 295 233 L 295 235 L 298 233 Q 299 229 297 230 Z M 281 236 L 281 240 L 282 240 L 281 236 Z M 291 237 L 289 240 L 292 238 L 291 237 Z M 280 239 L 278 242 L 280 241 L 280 239 Z M 267 241 L 265 242 L 261 248 L 262 253 L 262 255 Q 261 258 265 256 L 265 258 L 273 263 L 274 264 L 282 264 L 282 260 L 278 262 L 282 257 L 282 255 L 279 257 L 275 256 L 273 257 L 270 255 L 267 252 L 266 253 L 264 253 L 264 246 L 267 244 Q 270 243 267 241 Z M 282 247 L 281 251 L 279 252 L 275 252 L 272 254 L 281 254 L 282 252 L 282 247 Z M 270 249 L 269 252 L 271 253 L 270 249 Z M 257 255 L 257 257 L 254 258 L 256 261 L 258 258 L 260 259 L 263 264 L 268 264 Q 267 261 263 262 L 262 256 L 259 257 L 259 256 L 257 255 Z M 317 260 L 319 264 Q 321 263 319 262 Q 320 259 317 260 Z M 258 261 L 255 264 Q 256 266 258 264 Q 260 263 259 266 L 263 268 L 266 267 L 279 267 Q 281 270 280 278 L 282 284 L 281 304 L 280 305 L 281 308 L 280 312 L 282 315 Q 283 320 279 322 L 279 330 L 278 331 L 279 333 L 278 340 L 278 341 L 286 339 L 287 342 L 285 341 L 280 342 L 279 344 L 289 343 L 289 345 L 282 345 L 282 347 L 290 348 L 297 355 L 298 354 L 302 356 L 304 355 Q 306 354 305 357 L 296 356 L 287 349 Q 281 351 282 347 L 277 346 L 275 347 L 270 346 L 268 346 L 263 348 L 259 353 L 262 355 L 259 355 L 260 358 Q 257 358 257 363 L 255 362 L 258 357 L 255 359 Q 256 361 253 360 Q 253 365 249 368 L 248 373 L 246 376 L 248 376 L 247 379 L 250 378 L 257 380 L 258 382 L 258 381 L 259 381 L 258 383 Q 261 385 260 391 L 275 385 L 281 385 L 280 381 L 286 373 L 285 375 L 288 376 L 286 368 L 283 366 L 284 373 L 282 374 L 279 379 Q 276 380 278 382 L 275 381 L 275 383 L 274 381 Q 276 382 275 379 L 274 379 L 273 377 L 276 378 L 278 375 L 277 373 L 278 369 L 275 371 Q 276 373 273 372 L 272 379 L 270 380 L 271 377 L 270 375 L 268 374 L 269 381 L 272 382 Q 271 384 270 382 Q 267 381 268 384 Q 265 385 266 382 L 268 382 L 267 376 L 264 380 L 265 382 L 264 382 L 262 383 L 263 381 L 262 374 L 261 374 L 262 378 Q 263 381 260 380 L 261 378 L 258 364 L 259 364 Q 258 367 261 366 L 263 359 L 265 360 L 267 360 Q 269 361 268 358 L 265 358 L 266 353 L 268 353 L 267 350 L 275 350 L 275 352 L 272 353 L 273 355 L 270 356 Q 267 355 268 358 L 270 357 Q 273 356 272 359 L 269 360 L 268 370 L 271 370 L 269 369 L 270 366 L 273 364 L 271 362 L 277 359 L 280 361 L 280 360 L 281 360 L 280 362 L 281 364 L 283 361 Q 288 364 290 372 Q 292 379 288 378 Q 289 382 287 383 Q 284 384 285 382 L 286 379 L 286 376 L 285 378 L 283 379 L 284 384 L 288 385 Q 289 383 291 386 L 292 377 L 294 381 L 295 376 Q 294 373 297 374 L 296 376 Q 294 384 298 387 Q 299 389 297 388 L 295 384 L 294 388 L 299 391 L 302 398 Q 301 404 304 407 L 305 407 L 304 402 Q 303 396 305 395 L 304 393 L 309 388 L 311 388 L 315 393 L 315 384 L 318 383 L 322 384 L 325 383 L 327 384 L 329 391 Q 327 397 331 396 L 334 391 L 334 374 L 333 373 L 333 350 L 334 349 L 333 346 Q 332 340 334 339 L 333 336 L 333 316 L 334 315 L 334 312 L 330 319 L 322 323 L 317 323 L 312 324 L 302 321 L 297 316 L 299 312 L 304 313 Q 303 315 299 314 L 300 318 L 309 322 Q 311 323 310 321 L 312 319 L 317 319 L 325 316 L 325 315 L 321 316 L 315 316 L 315 314 Q 311 315 312 313 L 311 313 L 311 314 L 305 314 L 304 311 L 308 296 L 307 294 L 309 288 L 309 276 L 310 275 L 310 268 L 307 268 L 314 267 L 313 274 L 313 303 L 312 304 L 313 312 L 324 311 L 318 286 L 315 267 L 312 265 L 294 265 L 293 267 L 295 266 L 306 267 L 306 268 L 293 268 L 292 270 L 287 273 L 282 272 L 280 265 L 264 265 L 262 266 L 259 263 Q 260 260 258 261 Z M 254 263 Q 254 266 251 265 L 251 267 L 255 268 L 255 271 L 247 281 L 245 280 L 245 282 L 244 284 L 246 287 Q 249 286 248 282 L 251 281 Q 250 277 253 278 L 257 271 L 254 263 Z M 250 268 L 250 271 Q 253 270 250 268 Z M 258 269 L 257 285 L 257 287 L 258 292 L 257 294 Q 256 302 258 308 L 256 308 L 257 314 L 259 311 L 259 309 Q 258 306 261 307 L 261 303 L 258 302 Q 257 298 261 300 Q 263 296 258 297 L 260 290 L 258 290 L 260 287 L 260 270 L 258 269 Z M 265 269 L 265 277 L 267 277 L 271 270 L 273 271 L 272 269 Q 268 268 269 271 L 266 272 L 267 270 L 265 269 Z M 249 271 Q 247 274 250 273 L 249 271 Z M 263 271 L 262 290 L 264 293 L 264 292 L 266 292 L 265 281 L 263 271 Z M 245 273 L 246 275 Q 249 276 248 274 L 247 274 L 245 273 Z M 270 273 L 267 280 L 268 283 L 272 276 Q 273 272 270 273 Z M 254 278 L 247 289 Q 248 291 246 290 L 244 290 L 247 294 L 254 286 L 256 279 L 254 278 Z M 129 280 L 127 283 L 130 282 Q 131 279 129 280 Z M 311 280 L 310 293 L 307 305 L 307 312 L 309 312 L 311 302 L 311 284 L 312 283 L 311 280 Z M 133 282 L 131 286 L 132 289 Q 133 291 129 290 L 125 299 L 123 300 L 120 306 L 123 305 Q 122 302 125 303 L 126 301 Q 125 298 128 299 L 137 284 L 133 282 Z M 138 285 Q 133 297 124 306 L 126 308 L 130 303 Q 129 300 132 301 L 141 289 Q 143 283 138 285 Z M 256 285 L 247 296 L 248 298 Q 247 300 250 299 Q 251 293 256 290 L 256 285 Z M 128 288 Q 123 291 121 298 L 123 298 L 128 290 L 128 288 Z M 270 288 L 269 292 L 270 292 L 270 288 Z M 141 290 Q 136 301 127 309 Q 126 312 129 311 L 132 307 L 141 299 Q 143 300 142 297 L 145 296 L 143 292 Q 144 289 141 290 Z M 267 292 L 265 295 L 267 296 L 267 292 Z M 264 294 L 263 301 L 266 301 Q 267 298 264 299 L 264 294 Z M 254 296 L 250 301 L 253 303 Q 252 306 250 303 Q 251 300 249 301 L 246 300 L 247 302 Q 246 304 249 303 L 250 305 L 246 309 L 247 313 L 252 311 L 253 313 L 254 308 Q 256 302 253 301 L 254 298 L 254 296 Z M 268 296 L 267 299 L 268 299 L 268 296 Z M 145 298 L 137 304 L 135 307 L 129 311 L 130 315 L 136 310 L 144 303 Q 144 307 142 307 L 139 309 L 136 313 Q 141 314 142 310 Q 141 307 145 308 L 145 298 Z M 119 300 L 117 303 L 119 302 L 119 300 Z M 113 307 Q 111 311 105 310 L 104 316 L 108 313 L 112 313 L 116 316 L 119 322 L 118 330 L 117 332 L 119 331 L 121 334 L 125 325 L 128 324 L 128 320 L 125 311 L 121 307 L 117 308 L 113 307 Z M 143 313 L 144 315 Q 145 312 143 313 Z M 250 313 Q 248 316 251 315 L 250 313 Z M 107 316 L 103 322 L 103 325 Q 101 328 100 324 L 87 329 L 85 335 Q 86 337 83 336 L 84 338 L 86 337 L 87 334 L 93 330 L 98 330 Q 99 326 104 327 L 105 329 L 105 326 L 106 326 L 105 330 L 106 333 L 108 328 L 108 333 Q 106 334 109 335 L 109 329 L 111 329 L 108 327 Q 107 324 110 325 L 114 319 Q 113 315 107 316 Z M 251 317 L 249 319 L 261 325 L 265 322 L 265 319 L 259 319 L 259 317 L 253 317 L 251 317 Z M 132 318 L 132 320 L 134 319 L 132 318 Z M 114 323 L 111 327 L 112 328 L 115 325 L 114 323 Z M 139 325 L 138 328 L 139 328 L 139 325 Z M 102 331 L 100 333 Q 99 335 102 334 L 102 331 Z M 138 331 L 137 333 L 139 334 L 138 331 Z M 96 333 L 93 335 L 96 335 L 96 333 Z M 97 333 L 97 335 L 99 334 L 97 333 Z M 108 335 L 107 338 L 103 340 L 102 344 L 103 345 L 108 339 L 108 335 Z M 101 336 L 99 338 L 101 339 L 101 336 Z M 105 336 L 104 339 L 105 339 L 105 336 Z M 66 340 L 62 342 L 59 341 L 59 343 L 58 341 L 54 342 L 53 345 Q 54 348 52 347 L 52 348 Q 54 347 53 350 L 55 350 Q 54 345 57 343 L 57 348 Q 60 349 59 347 L 61 345 L 67 344 L 66 348 L 68 347 Q 74 348 73 346 L 70 342 L 69 343 L 66 343 L 68 342 Q 69 339 66 340 Z M 96 342 L 95 345 L 96 345 L 96 342 Z M 100 342 L 98 348 L 101 348 L 100 342 Z M 95 345 L 94 349 L 95 349 L 95 345 Z M 49 347 L 47 349 L 49 349 L 49 347 Z M 90 347 L 85 352 L 86 353 L 91 349 L 90 347 Z M 51 348 L 49 350 L 52 354 L 54 352 L 51 348 Z M 71 348 L 66 350 L 66 351 L 69 350 L 70 351 L 68 351 L 69 357 L 67 358 L 69 358 Q 70 361 66 360 L 66 362 L 64 358 L 63 363 L 62 360 Q 62 367 58 370 L 57 382 Q 60 383 59 385 L 62 384 L 59 382 Q 57 377 61 378 L 63 381 Q 68 378 79 379 Q 81 378 80 375 L 79 375 L 77 374 L 77 376 L 75 376 L 77 372 L 74 371 L 74 373 L 72 372 L 70 373 L 72 369 Q 74 370 73 367 L 78 367 L 78 364 L 75 365 L 75 362 Q 79 363 78 360 L 75 360 L 78 356 L 77 355 Q 75 358 73 354 L 73 351 Q 77 352 76 350 L 75 348 L 71 348 Z M 59 349 L 56 352 Q 53 351 54 354 Q 52 358 49 357 L 50 359 L 44 368 L 45 370 Q 50 357 60 350 L 59 349 Z M 163 350 L 163 352 L 164 363 L 164 353 L 165 352 L 163 350 Z M 49 351 L 47 354 Q 46 357 49 356 L 50 354 L 49 351 Z M 63 351 L 62 353 L 64 352 L 63 351 Z M 167 351 L 166 364 L 167 367 L 166 368 L 166 404 L 165 407 Q 161 408 163 403 L 162 403 L 162 409 L 164 415 L 163 420 L 163 422 L 162 424 L 164 429 L 167 429 L 167 422 L 168 419 L 167 415 L 167 413 L 168 411 L 168 407 L 167 405 L 168 404 L 168 375 L 169 374 L 169 352 L 167 351 Z M 172 352 L 172 370 L 172 372 L 170 380 L 170 393 L 171 394 L 170 396 L 170 427 L 169 428 L 178 428 L 178 407 L 179 406 Q 181 399 178 398 L 179 394 L 178 393 L 178 376 L 176 401 L 176 403 L 176 411 L 174 411 L 173 409 L 174 405 L 173 402 L 174 401 L 174 358 L 176 354 L 172 352 Z M 187 352 L 184 354 L 185 355 L 185 370 L 185 372 L 186 373 L 186 389 L 187 390 L 187 401 L 189 401 L 188 398 L 189 394 L 188 389 L 189 382 Q 185 380 189 378 L 188 375 Q 185 373 189 372 L 188 370 L 189 368 L 188 365 L 189 363 Q 186 364 187 362 L 187 360 L 188 358 L 187 352 Z M 58 353 L 58 359 L 60 358 L 59 354 L 61 354 L 58 353 Z M 64 353 L 65 355 L 67 354 L 64 353 Z M 180 353 L 181 356 L 181 371 L 181 373 L 180 377 L 181 381 L 180 383 L 181 384 L 181 415 L 181 417 Q 182 421 180 423 L 181 430 L 185 431 L 186 425 L 185 401 L 184 400 L 184 384 L 184 382 L 183 380 L 183 366 L 183 364 L 182 362 L 182 354 L 180 353 Z M 44 355 L 43 358 L 45 359 L 44 355 Z M 178 356 L 177 375 L 178 375 L 178 356 Z M 250 359 L 250 361 L 252 360 L 250 359 Z M 249 360 L 247 362 L 249 362 L 250 363 L 249 360 Z M 276 362 L 275 366 L 274 368 L 277 366 L 276 362 Z M 282 364 L 280 367 L 282 366 L 282 364 Z M 160 365 L 160 367 L 163 368 Q 165 369 164 367 L 160 365 Z M 280 367 L 278 369 L 280 369 L 280 367 Z M 164 369 L 161 370 Q 160 373 163 372 L 164 373 L 164 369 Z M 261 369 L 264 374 Q 267 372 263 371 Q 264 368 261 369 Z M 43 373 L 42 376 L 43 376 L 43 373 Z M 40 377 L 39 379 L 41 380 L 40 377 Z M 50 379 Q 47 383 51 382 L 50 379 Z M 161 379 Q 160 382 163 381 Q 164 378 161 379 Z M 70 381 L 69 383 L 67 383 Q 66 385 70 384 L 70 381 Z M 42 382 Q 40 385 39 383 L 37 386 L 41 385 Q 42 383 43 386 L 36 390 L 38 391 L 33 394 L 33 396 L 30 403 L 28 402 L 25 405 L 25 408 L 20 421 Q 21 424 18 423 L 23 406 L 28 399 L 30 399 L 31 397 L 29 397 L 34 390 Q 33 387 36 388 Q 37 385 35 386 L 31 391 L 29 392 L 20 404 L 12 422 L 12 424 L 10 424 L 10 426 Q 7 425 8 428 L 7 431 L 8 440 L 9 435 L 13 429 Q 12 424 15 425 L 14 431 L 16 432 L 13 437 Q 14 443 11 446 L 10 460 L 9 459 L 7 465 L 8 468 Q 9 472 7 474 L 9 475 L 9 470 Q 13 471 12 469 L 15 470 L 15 467 L 20 469 L 17 471 L 20 473 L 18 476 L 20 476 L 19 478 Q 20 482 17 481 L 17 478 L 15 481 L 13 480 L 12 482 L 10 480 L 10 478 Q 11 475 8 476 L 9 560 L 9 557 Q 13 556 11 561 L 13 561 L 16 557 L 16 561 L 16 562 Q 18 563 17 561 L 20 559 L 19 561 L 21 563 L 23 560 L 26 565 L 28 561 L 29 562 L 28 564 Q 31 565 30 561 L 34 563 L 36 562 L 38 563 Q 40 561 40 556 Q 42 557 40 559 L 41 567 L 43 562 L 46 568 L 48 563 L 51 564 L 54 562 L 55 562 L 55 558 L 58 558 L 59 564 L 59 565 L 67 558 L 69 559 L 68 558 Q 67 552 71 554 L 72 558 L 73 558 L 72 551 L 67 553 L 65 554 L 70 550 L 71 547 L 69 546 L 67 548 L 65 548 Q 66 544 70 545 L 72 541 L 74 544 L 76 543 L 77 538 L 77 541 L 81 540 L 80 536 L 83 534 L 82 538 L 84 538 L 87 530 L 88 534 L 90 529 Q 92 527 89 526 L 90 524 L 89 524 Q 86 523 87 520 L 96 513 L 96 516 L 90 520 L 91 523 L 92 521 Q 93 517 98 518 L 99 519 L 96 506 L 93 501 L 79 461 L 79 457 L 77 454 Q 79 448 75 449 L 76 447 L 70 428 L 69 417 L 61 397 L 55 389 L 52 385 L 42 382 Z M 56 383 L 56 385 L 58 384 L 56 383 Z M 63 383 L 63 385 L 65 384 L 63 383 Z M 164 383 L 163 386 L 164 386 L 164 383 Z M 66 385 L 65 390 L 66 390 L 66 385 Z M 318 385 L 317 389 L 320 388 Q 322 387 321 390 L 318 391 L 318 393 L 317 395 L 317 425 L 315 425 Q 311 420 313 409 L 311 407 Q 310 402 312 401 L 311 395 L 309 396 L 310 399 Q 307 400 308 396 L 307 396 L 307 415 L 310 418 L 318 432 L 322 429 L 325 430 L 329 428 Q 332 427 331 430 L 334 429 Q 335 426 332 427 Q 330 422 334 423 L 334 415 Q 331 415 332 410 L 328 411 L 323 410 L 322 408 L 322 396 L 321 395 L 322 387 L 318 385 Z M 74 386 L 74 389 L 76 389 L 74 395 L 76 394 Q 75 391 78 392 L 79 393 L 77 388 L 74 386 Z M 58 387 L 57 389 L 60 391 L 58 387 Z M 69 387 L 70 391 L 71 389 Q 72 386 69 387 Z M 163 387 L 163 395 L 164 390 L 163 387 Z M 280 387 L 269 390 L 260 395 L 257 399 L 259 399 L 260 403 L 260 405 L 260 408 L 256 414 L 253 413 Q 254 410 251 411 Q 249 406 253 407 L 254 409 L 256 408 L 253 406 Q 252 401 255 400 L 256 403 L 257 401 L 256 398 L 254 399 L 248 407 L 248 413 L 241 437 L 241 450 L 242 452 L 242 454 L 240 458 L 241 459 L 244 454 L 243 452 L 243 443 L 245 435 L 249 429 Q 253 430 252 428 L 258 424 L 257 427 Q 254 426 255 429 Q 254 433 249 432 L 246 443 L 247 448 L 251 442 Q 254 441 252 447 L 249 448 L 246 458 Q 243 463 236 465 Q 233 466 235 468 L 234 475 L 231 474 L 233 468 L 231 467 L 230 474 Q 229 477 227 474 L 229 469 L 229 466 L 226 473 Q 228 478 223 476 Q 222 473 225 474 L 224 472 L 225 469 L 225 467 L 218 480 L 212 499 L 212 517 L 214 519 L 214 516 L 218 518 L 217 521 L 218 522 L 218 535 L 221 543 Q 220 545 224 544 L 227 549 Q 232 555 244 555 L 246 555 L 249 556 L 251 555 Q 254 554 253 557 L 259 561 Q 261 562 260 566 Q 266 565 269 569 L 269 571 L 261 569 L 256 566 L 255 571 L 257 570 Q 259 569 258 572 L 260 571 L 260 574 L 262 573 Q 265 572 264 575 L 265 575 Q 264 572 267 573 L 266 580 L 268 583 Q 270 581 269 577 L 272 575 L 273 579 L 273 576 L 275 575 L 275 583 L 274 584 L 276 584 L 277 577 L 279 578 L 279 584 L 281 584 L 281 578 L 283 578 L 284 582 L 284 583 L 286 583 L 285 579 L 288 578 L 290 583 L 292 579 L 293 583 Q 296 584 295 581 L 299 581 L 302 576 L 303 577 L 301 581 L 299 582 L 302 583 L 304 583 L 304 578 L 306 578 L 305 583 Q 302 584 307 586 L 308 584 Q 307 581 310 582 L 309 588 L 312 589 L 313 584 Q 312 580 316 581 L 315 583 L 316 590 L 316 584 L 319 582 L 318 585 L 319 591 L 321 582 L 322 582 L 321 587 Q 319 593 326 591 L 328 591 L 331 592 L 333 591 L 334 592 L 333 589 L 334 587 L 334 524 L 334 522 L 334 461 L 329 452 L 316 437 L 308 420 L 300 409 L 297 410 L 294 405 L 296 400 Q 299 399 298 403 L 299 403 Q 300 396 296 394 L 286 387 L 284 388 L 280 387 Z M 61 388 L 60 392 L 61 394 Q 65 395 64 393 L 62 393 L 63 391 Q 64 387 61 388 Z M 71 394 L 68 398 L 71 403 L 72 403 Q 73 397 71 394 Z M 163 396 L 162 399 L 159 400 L 162 400 L 163 401 L 163 396 Z M 80 398 L 80 400 L 82 399 L 80 398 Z M 315 399 L 314 403 L 315 403 L 315 399 Z M 83 402 L 81 404 Q 80 406 83 405 L 83 402 Z M 329 402 L 329 409 L 334 409 Q 335 405 333 406 L 331 403 L 334 403 L 329 402 Z M 69 403 L 70 405 Q 71 402 69 403 Z M 257 403 L 256 407 L 257 407 L 257 403 Z M 188 404 L 189 406 Q 190 403 188 404 Z M 71 406 L 74 419 L 74 425 L 76 432 L 77 432 L 75 409 L 71 406 Z M 84 407 L 83 411 L 84 411 L 84 407 Z M 189 408 L 188 411 L 189 411 L 189 408 Z M 85 414 L 83 416 L 85 417 L 85 414 Z M 101 416 L 93 421 Q 89 424 88 430 L 90 429 Q 92 430 91 427 L 101 418 L 101 416 Z M 72 421 L 71 424 L 72 424 L 72 421 Z M 86 424 L 85 427 L 86 427 L 86 424 Z M 99 425 L 99 426 L 101 426 L 99 425 Z M 106 425 L 106 426 L 113 426 L 106 425 Z M 119 427 L 117 429 L 122 429 L 125 428 L 119 427 Z M 99 428 L 99 429 L 101 429 L 99 428 Z M 106 429 L 106 431 L 108 430 L 106 429 Z M 90 430 Q 90 433 87 432 Q 88 435 85 437 Q 86 439 84 438 L 82 439 L 86 434 L 86 432 L 82 434 L 79 444 L 80 445 L 81 442 L 87 441 L 90 439 L 88 438 L 90 433 Q 92 431 90 430 Z M 14 431 L 12 434 L 14 433 L 14 431 Z M 322 431 L 319 434 L 324 440 L 325 436 L 325 433 L 321 435 L 323 432 L 322 431 Z M 328 431 L 327 439 L 325 443 L 326 445 L 332 449 L 332 442 L 333 441 Q 334 436 331 437 L 331 431 L 328 431 Z M 335 431 L 334 434 L 335 434 L 335 431 Z M 114 432 L 112 434 L 114 434 L 114 432 Z M 92 434 L 90 437 L 92 436 L 92 434 Z M 114 435 L 106 437 L 104 436 L 103 438 L 115 437 L 114 435 Z M 97 436 L 96 438 L 99 437 L 97 436 Z M 11 438 L 10 442 L 11 442 L 11 438 Z M 92 438 L 88 447 L 91 449 Q 90 446 93 447 L 92 446 L 95 445 L 95 438 L 92 438 Z M 10 442 L 8 444 L 9 456 L 10 450 L 10 442 Z M 108 445 L 108 446 L 111 446 L 108 445 Z M 118 446 L 118 448 L 120 447 L 118 446 Z M 123 446 L 123 447 L 125 447 L 123 446 Z M 122 450 L 119 452 L 122 452 L 122 450 Z M 82 451 L 80 454 L 83 452 L 82 451 Z M 95 453 L 92 454 L 88 454 L 84 456 L 85 458 L 89 456 Q 94 457 96 455 Q 97 452 95 453 Z M 100 453 L 100 455 L 102 454 L 100 453 Z M 107 453 L 107 454 L 110 454 L 107 453 Z M 208 453 L 207 455 L 204 456 L 203 463 L 209 463 L 210 464 L 208 453 Z M 154 454 Q 151 455 153 457 L 149 464 L 150 466 Q 150 462 156 463 L 158 465 L 157 462 L 158 460 L 156 456 L 154 454 Z M 139 455 L 139 458 L 134 457 L 133 460 Q 132 462 135 461 L 134 464 L 135 467 L 137 466 Q 139 465 138 468 L 141 467 L 144 468 Q 147 466 146 461 L 142 459 Q 144 453 139 455 Z M 234 455 L 233 457 L 229 458 L 224 457 L 222 458 L 220 458 L 216 456 L 213 457 Q 216 458 214 464 L 215 464 Q 213 458 217 459 L 217 467 L 219 468 L 221 464 L 234 462 L 236 456 L 234 455 Z M 100 456 L 100 457 L 102 457 L 100 456 Z M 114 456 L 113 457 Q 110 456 111 459 L 115 457 L 114 456 Z M 198 456 L 196 458 Q 192 457 193 460 L 175 466 L 175 468 L 173 469 L 171 469 L 170 472 L 170 473 L 174 472 L 178 478 L 180 477 L 179 475 Q 181 470 187 471 L 188 475 L 194 474 L 193 471 L 189 470 L 187 467 L 190 463 L 200 463 L 200 457 L 198 456 Z M 81 457 Q 80 460 83 459 Q 84 456 81 457 Z M 104 457 L 104 458 L 106 458 L 104 457 Z M 94 458 L 93 469 L 95 468 L 97 469 L 101 464 Q 107 463 109 467 L 113 460 L 109 461 L 105 461 L 98 458 L 96 459 L 94 458 Z M 107 458 L 107 459 L 109 459 L 107 458 Z M 117 460 L 113 464 L 114 468 L 112 469 Q 113 466 110 467 Q 111 471 109 472 Q 106 473 107 471 Q 105 467 100 467 Q 101 471 99 472 L 97 471 L 93 473 L 120 473 L 123 466 L 119 463 Q 120 459 117 460 Z M 206 464 L 201 465 L 199 467 L 196 465 Q 189 463 190 467 L 197 469 L 202 468 L 200 476 L 204 473 L 205 478 Q 208 479 207 476 L 211 475 L 213 472 L 214 475 L 215 470 L 212 469 Q 209 470 210 468 L 206 464 Z M 89 466 L 89 467 L 91 467 L 89 466 Z M 154 466 L 150 472 L 151 473 L 160 473 Q 162 472 160 471 Q 161 467 158 468 L 154 466 Z M 129 467 L 130 474 L 133 473 L 134 474 L 132 471 L 133 469 L 129 467 Z M 89 470 Q 89 474 91 471 L 89 470 Z M 15 471 Q 13 474 16 473 L 15 471 Z M 216 471 L 214 477 L 212 477 Q 211 481 215 479 L 218 472 L 216 471 Z M 123 472 L 124 473 L 125 474 Q 126 471 123 472 Z M 166 473 L 168 476 L 169 474 L 166 473 Z M 199 473 L 197 474 L 195 477 L 194 476 L 190 478 L 180 480 L 184 481 L 194 478 L 196 479 L 197 477 L 198 481 L 199 479 L 199 473 Z M 89 474 Q 88 477 91 476 Q 92 473 89 474 Z M 136 475 L 135 476 L 93 477 L 95 478 L 127 478 L 131 478 L 136 477 L 138 478 L 145 477 L 147 477 L 149 478 L 153 477 L 158 478 Q 162 480 161 476 L 160 476 L 137 476 L 136 475 Z M 183 475 Q 182 478 185 477 Q 186 474 183 475 Z M 173 476 Q 170 477 172 479 Q 173 483 171 485 L 171 490 L 174 497 L 176 517 L 180 526 L 179 529 L 177 528 Q 174 529 175 533 L 173 534 L 171 537 Q 169 541 168 538 L 165 538 L 160 543 Q 153 542 150 544 Q 147 546 150 547 L 170 545 L 175 543 L 183 544 L 182 543 L 185 544 L 187 543 L 190 544 L 199 543 L 200 541 L 200 539 L 197 536 L 192 537 Q 189 536 190 532 L 190 530 Q 189 527 192 528 Q 193 525 195 529 L 196 526 L 195 525 Q 193 527 192 525 L 196 523 L 191 521 L 194 520 L 194 519 Q 190 520 192 516 L 197 517 L 198 519 L 198 515 L 196 514 L 193 515 L 193 513 L 190 508 L 198 509 L 197 507 L 189 507 L 188 506 L 191 504 L 193 504 L 198 505 Q 200 506 199 503 L 193 502 L 189 503 L 189 500 L 193 500 L 193 499 L 189 499 Q 190 494 187 495 L 184 489 L 179 491 L 174 488 Q 171 489 172 487 L 176 485 L 178 485 L 182 484 L 175 483 L 173 482 L 174 480 L 173 476 Z M 168 477 L 167 480 L 165 480 Q 164 482 168 481 L 169 482 L 168 477 Z M 211 477 L 207 482 L 208 483 L 212 480 L 211 477 Z M 90 478 L 88 480 L 92 483 L 92 480 L 90 478 Z M 205 478 L 203 480 L 204 483 L 205 481 L 205 478 Z M 112 479 L 111 480 L 94 480 L 95 495 L 102 514 L 102 523 Q 98 524 99 531 L 99 533 L 101 542 L 101 551 L 99 554 L 84 560 L 71 562 L 69 564 L 67 563 Q 61 569 52 572 L 41 574 L 29 574 L 26 573 L 22 574 L 18 572 L 16 573 Q 14 571 10 572 L 8 574 L 8 586 L 7 587 L 7 592 L 15 592 L 18 593 L 43 593 L 44 592 L 61 592 L 62 593 L 67 592 L 87 592 L 88 593 L 115 593 L 116 592 L 118 593 L 130 592 L 131 591 L 133 592 L 189 592 L 190 591 Q 195 590 197 592 L 199 591 L 202 592 L 204 591 L 219 591 L 221 591 L 229 591 L 230 590 L 244 590 L 245 591 L 307 591 L 308 592 L 308 591 L 302 585 L 291 585 L 288 584 L 281 586 L 262 585 L 254 582 L 250 577 L 251 561 L 247 560 L 245 560 L 230 556 L 225 551 Q 225 547 220 547 Q 216 545 217 539 L 217 537 Q 214 533 215 527 L 211 523 L 209 512 L 209 501 L 212 491 Q 213 484 211 483 Q 208 488 202 489 L 201 493 L 201 495 L 202 497 L 202 508 L 201 509 L 201 519 L 202 520 L 202 531 L 201 532 L 202 544 L 198 547 Q 192 549 191 546 L 183 546 L 182 547 L 179 546 L 169 547 L 167 547 L 163 548 L 161 548 L 160 549 L 147 549 Q 144 548 145 545 L 153 540 L 156 541 L 160 540 L 161 537 L 166 535 L 168 536 L 173 529 L 177 526 L 173 516 L 173 508 L 171 504 L 169 488 L 167 486 Q 168 483 165 484 L 162 480 L 150 480 L 149 479 L 146 480 L 144 479 L 142 479 L 139 480 L 137 480 Q 131 482 130 479 L 127 480 L 123 480 Q 115 482 112 479 Z M 215 480 L 213 482 Q 212 485 215 484 L 215 480 Z M 193 481 L 185 485 L 185 486 L 195 482 L 196 483 Q 197 479 193 481 Z M 199 482 L 198 484 L 196 484 L 196 486 L 191 486 L 190 488 L 192 487 L 194 488 L 198 487 L 199 485 L 199 482 Z M 91 483 L 91 489 L 92 489 Q 93 484 91 483 Z M 206 483 L 205 484 Q 202 483 203 486 L 207 485 Q 208 482 206 483 Z M 176 486 Q 175 489 178 488 Q 179 485 176 486 Z M 193 490 Q 192 493 195 492 L 197 492 L 199 492 Q 198 489 193 490 Z M 196 494 L 198 497 L 199 496 L 196 494 Z M 197 498 L 194 500 L 198 501 Q 200 502 199 499 L 197 498 Z M 193 510 Q 192 513 195 512 Q 196 509 193 510 Z M 196 511 Q 195 514 198 513 Q 199 510 196 511 Z M 97 520 L 94 521 L 91 527 L 93 527 L 91 532 Q 89 538 93 537 L 93 544 L 94 545 Q 93 547 96 546 L 94 540 L 94 531 L 99 521 L 97 520 Z M 197 521 L 198 522 L 199 523 Q 200 520 197 521 Z M 196 532 Q 195 534 199 534 Q 200 531 196 532 Z M 90 537 L 88 542 L 90 541 L 90 537 Z M 85 539 L 83 542 L 85 541 L 85 539 Z M 80 542 L 78 544 L 81 544 Q 82 541 80 542 Z M 86 543 L 84 545 L 86 553 Q 85 556 89 554 L 86 543 Z M 90 544 L 93 552 L 95 551 Q 97 552 96 550 L 95 550 Q 90 551 92 546 L 90 544 Z M 79 546 Q 81 548 80 554 L 82 555 L 84 555 L 82 550 Q 84 544 79 546 Z M 76 547 L 73 550 L 76 556 L 77 556 Q 78 549 76 547 Z M 12 562 Q 9 566 13 565 L 12 562 Z M 15 564 Q 14 567 17 566 Q 18 563 15 564 Z M 54 564 L 50 566 L 48 569 L 52 568 L 54 568 L 57 566 Q 58 563 54 564 Z M 20 565 L 20 571 L 21 571 Q 22 566 20 565 Z M 11 568 L 11 570 L 13 569 L 11 568 Z M 26 568 Q 24 571 27 570 L 26 568 Z M 29 569 L 28 571 L 31 570 L 35 571 Q 36 568 29 569 Z M 39 569 Q 37 572 40 571 L 39 569 Z M 260 574 L 259 580 L 260 580 L 260 574 Z M 264 575 L 263 582 L 264 582 L 264 575 Z M 272 581 L 271 584 L 272 584 L 272 581 Z "></path><path d="M 152.5 13 Q 154.3 15.8 160.5 14 L 162.5 13 L 165.5 14 L 167.5 13 L 170.5 14 L 172.5 14 L 178.5 13 L 180.5 14 L 184.5 13 L 186.5 13 Q 192.3 11.3 191 15 L 186.5 16 L 183.5 15 L 182 16.5 L 182 28 Q 189.6 26.9 193 29 L 192.5 31 L 172.5 31 L 170.5 31 L 154.5 31 L 153.5 30 L 149 31 L 149.5 29 L 159 29 L 159 26.5 L 154 16 L 149 16 L 149 14 L 152.5 13 Z M 161 15 L 158 16 L 163 26 Q 162 28 165 27 L 168 19 L 168 15 L 161 15 Z M 174 15 L 169 28 L 169 29 L 172 28 L 176 29 L 176 16 L 174 15 Z "></path><path d="M 291.5 34 L 302.5 36 Q 312 39.5 318 46.5 L 324 56.5 L 327 69.5 L 324 81.5 L 317 93 L 303.5 101 L 296.5 103 L 287.5 103 Q 272.7 100.3 265 90.5 Q 256.6 81.9 257 64.5 Q 259.7 49.7 269.5 42 L 280.5 36 L 291.5 34 Z M 285 38 L 277 41 L 274 44 L 272 44 L 272 46 Q 269 45 270 48 L 267 49 L 262 60 L 261 72 L 260 73 Q 262 84 269 91 Q 275 98 288 100 L 300 99 L 311 93 L 317 87 L 322 76 Q 323 57 315 49 Q 309 41 300 38 L 288 38 L 287 39 L 285 38 Z "></path><path d="M 46.5 35 L 61.5 38 Q 69.8 41.2 75 47.5 L 82 61.5 L 82 76.5 Q 78.7 89.2 69.5 96 L 61.5 101 L 53.5 103 L 44.5 103 L 33.5 100 L 25 94 Q 19.1 87.4 16 76.5 L 16 62.5 Q 18.9 51.9 25.5 45 L 28 43.5 Q 27.3 41.3 29.5 42 Q 36.4 36.9 46.5 35 Z M 43 39 Q 34 41 30 46 L 22 56 L 19 65 L 19 75 L 25 89 Q 32 97 44 100 L 58 99 L 70 92 L 77 81 L 78 73 L 79 70 Q 78 57 72 50 Q 64 37 43 39 Z "></path><path d="M 168.5 35 L 183.5 38 Q 191.9 41.6 197 48.5 L 201 54.5 L 204 64.5 L 204 76.5 L 200 86.5 L 194 95 L 179.5 103 L 164.5 104 Q 150.3 100.7 143 90.5 L 137 79.5 Q 138.5 74 136 72.5 L 136 70.5 L 138 57.5 L 147.5 44 L 152 42 Q 150.8 39 154.5 40 L 159.5 37 L 168.5 35 Z M 167 38 L 153 44 Q 143 50 140 64 Q 139 74 141 81 L 149 94 L 163 101 L 177 101 L 189 95 L 196 87 L 200 78 Q 199 73 201 72 L 200 61 L 194 50 L 182 40 L 174 38 L 167 38 Z "></path><path d="M 291 43 Q 294.8 41.5 294 44.5 Q 296.6 47.4 296 53.5 L 298.5 58 L 307.5 57 L 309.5 57 L 312.5 58 L 314 57.5 L 312.5 61 L 308 63 Q 309.1 65.7 306.5 65 L 302 68.5 L 309 88 L 290.5 77 L 285 84 Q 280.4 83.4 278.5 87 Q 275.8 85.8 278 84.5 L 282 70.5 L 270 62 L 270.5 58 L 284 58 Q 285.3 61.3 280.5 60 L 278.5 60 Q 273.1 58.1 274 61.5 L 282.5 68 L 286 60.5 L 285 58 Q 288 59.3 287 55.5 L 291 43 Z M 293 47 L 289 56 L 289 58 L 295 58 L 293 47 Z M 290 59 L 286 66 Q 285 73 290 74 Q 297 73 299 68 L 297 61 L 294 59 L 292 60 L 290 59 Z M 302 59 L 299 60 L 302 66 L 307 60 L 306 60 L 302 59 Z M 299 71 L 293 76 L 303 82 L 304 83 L 301 76 Q 303 70 299 71 Z M 284 73 L 282 81 L 288 78 L 289 76 L 284 73 Z "></path><path d="M 48 46 Q 51.7 44.5 51 47.5 L 55 59 L 69.5 59 L 70 61 L 67 61 Q 68.1 63.7 65.5 63 L 59 68.5 L 66 84.5 L 65 87 L 49.5 75 L 34.5 86 L 32 86 L 39 69.5 L 31.5 63 L 28 62 L 28.5 60 L 38.5 60 L 41.5 59 Q 42.8 61.3 44 58.5 L 46 51.5 L 48 49.5 L 48 46 Z M 50 51 L 47 58 L 47 59 L 52 59 Q 53 54 50 51 Z M 53 60 L 52 61 L 45 61 L 42 68 L 43 70 L 49 73 L 56 68 L 53 60 Z M 58 60 L 56 62 L 59 66 L 65 62 L 60 60 L 58 60 Z M 34 61 L 34 63 L 41 67 L 42 64 L 42 61 L 34 61 Z M 42 70 L 36 81 L 37 82 L 43 78 L 46 74 L 42 70 Z M 56 70 L 54 71 L 52 75 L 60 81 L 62 83 L 58 72 L 56 70 Z "></path><path d="M 169.5 46 L 175.5 59 L 191.5 59 L 192 60.5 L 179 70.5 L 183 82.5 L 183 87 L 180.5 87 L 169.5 77 L 169 79 Q 162.4 81 158.5 87 L 156.5 87 L 155 83.5 L 161 70.5 L 148 60.5 L 165 60 L 167 49.5 L 169.5 46 Z M 171 53 L 168 58 L 168 59 L 172 59 L 171 53 Z M 173 60 L 168 61 L 163 70 L 170 75 L 176 70 L 173 60 Z M 177 60 L 175 62 L 177 68 Q 183 67 187 62 L 177 60 Z M 153 61 L 153 63 L 160 68 L 162 68 L 164 64 L 164 61 L 153 61 Z M 164 72 L 158 83 L 159 84 L 167 78 Q 168 73 164 72 Z M 177 72 L 175 73 Q 171 74 172 78 L 179 82 L 180 83 L 178 74 L 177 72 Z "></path><path d="M 291.5 123 L 304.5 125 L 310.5 128 L 322 138.5 L 327 151.5 L 327 163.5 L 323 174 Q 320.3 172.9 321 175.5 L 307.5 187 L 301.5 189 L 290.5 190 Q 289.2 187.8 284.5 189 L 275.5 185 L 266 176.5 Q 257.8 168.2 260 149.5 Q 262.7 139.2 269.5 133 L 280.5 125 L 282.5 125 L 291.5 123 Z M 289 127 L 284 128 L 278 132 Q 274 131 275 134 L 273 135 Q 266 140 264 151 L 264 153 Q 261 154 263 161 L 263 163 L 270 177 Q 276 184 288 187 Q 306 189 313 180 Q 312 177 315 178 Q 321 172 323 163 L 322 149 L 316 137 Q 313 138 314 136 Q 310 130 304 128 L 289 127 Z "></path><path d="M 45.5 126 L 53.5 126 L 61.5 128 Q 69.9 131.6 75 138.5 Q 82.7 146.8 82 163.5 L 79 173.5 L 70 186 L 60.5 191 Q 54.8 190.3 52.5 193 L 45.5 193 Q 44 190.5 38.5 192 L 25 184 L 25 182 Q 22.3 183.1 23 180.5 L 18 172.5 L 15 158.5 L 21 141.5 L 28.5 133 L 34.5 129 L 45.5 126 Z M 51 128 L 50 129 L 39 130 L 31 135 Q 22 142 19 154 L 19 166 L 24 178 Q 30 186 42 190 L 55 190 L 65 186 Q 76 179 79 163 Q 77 159 78 152 L 72 140 L 64 132 L 51 128 Z "></path><path d="M 292.5 133 L 299.5 148 L 312.5 146 L 314 148.5 L 303 156.5 L 311 169.5 L 311 173.5 L 305.5 169 L 292.5 163 L 277.5 174 L 277 168.5 Q 280.7 164.7 281 157.5 L 269 150.5 L 274.5 148 Q 275.7 150.3 280.5 149 L 282.5 148 L 284.5 148 Q 287.1 148.8 286 145.5 L 290 134 L 292.5 133 Z M 291 138 L 288 148 L 291 149 L 296 148 L 293 140 Q 294 137 291 138 Z M 304 149 L 300 151 L 303 154 L 309 150 L 304 149 Z M 280 150 L 277 152 L 283 155 L 284 153 Q 285 148 280 150 Z M 287 150 L 285 156 L 294 160 L 296 160 L 300 156 L 298 152 L 298 150 L 287 150 Z M 301 158 L 297 161 L 303 164 L 305 166 L 302 160 Q 303 157 301 158 Z M 283 159 L 280 168 L 281 170 L 290 164 L 291 161 L 283 159 Z "></path><path d="M 48.5 134 L 57 152 L 60.5 151 L 64.5 152 Q 65.8 149.8 70.5 151 L 72 153.5 L 62 160 L 67 173.5 L 67 177 L 64.5 177 L 49.5 168 Q 43 174.5 34 177 Q 35 180 32 179 L 38 161.5 L 26 154.5 Q 24.8 150.8 28.5 152 L 32.5 153 Q 33.8 150.7 38.5 152 L 40.5 152 Q 42.8 152.8 42 150.5 L 46 137.5 L 48.5 134 Z M 49 140 L 44 151 L 45 152 L 54 152 L 49 140 Z M 59 153 L 60 159 L 68 155 Q 69 152 65 153 L 62 154 L 59 153 Z M 38 154 L 37 155 Q 31 153 32 157 L 39 159 L 40 155 L 38 154 Z M 43 154 L 41 158 L 41 161 L 50 166 Q 55 165 58 161 L 56 156 L 56 154 L 43 154 Z M 39 162 L 36 171 L 37 175 L 47 169 L 48 166 L 39 162 Z M 58 163 L 52 168 L 63 173 L 60 165 Q 61 162 58 163 Z "></path><path d="M 153.5 181 Q 156.5 181.5 156 185.5 L 154 185.5 L 155.5 188 L 159 185.5 L 157 192.5 L 160 193.5 L 158.5 196 L 156.5 193 L 154 191.5 L 156 191.5 L 152 186.5 L 152 184.5 Q 155.1 182.8 153.5 181 Z "></path><path d="M 168.5 195 L 171 201 Q 168.3 202.1 169 199.5 L 168.5 195 Z "></path><path d="M 42.5 215 Q 54.6 213.4 61.5 217 L 75 227.5 Q 82.7 235.8 82 252.5 Q 79.6 266.6 70.5 274 L 55.5 282 L 53.5 282 L 39.5 281 L 25 273 L 18 262.5 L 15 250.5 L 16 249.5 L 16 241.5 L 19 233.5 Q 22.3 225.3 29.5 221 L 42.5 215 Z M 43 218 L 32 223 Q 22 231 19 246 Q 19 260 25 268 Q 32 276 44 279 L 53 279 L 60 277 L 70 270 Q 76 264 78 254 L 78 243 L 74 232 Q 68 223 59 219 Q 53 216 43 218 Z "></path><path d="M 183.5 222 L 184 232.5 L 181.5 234 L 182 232.5 L 181 226.5 L 183.5 222 Z "></path><path d="M 48.5 223 L 52 227.5 L 52 230.5 L 56.5 239 L 70.5 239 L 71 242 L 61 248.5 L 61 252.5 L 66 265.5 L 63.5 267 Q 60.7 261.7 55 261 Q 56.3 258 52.5 259 Q 51.8 256.3 47.5 257 L 33.5 267 L 32 263.5 L 37 253.5 L 37 250.5 L 26 242.5 L 26.5 240 L 41.5 240 L 42 237.5 L 48.5 223 Z M 49 228 L 45 238 Q 43 239 46 240 L 48 239 L 50 240 L 53 239 L 49 228 Z M 59 241 L 59 247 L 67 243 Q 68 240 61 241 L 59 241 Z M 43 242 L 41 250 L 50 254 L 57 250 L 55 244 L 55 242 L 43 242 Z M 32 243 L 32 244 L 38 248 L 40 244 L 32 243 Z M 57 251 L 54 254 Q 51 253 52 256 L 60 260 L 62 262 L 59 255 Q 61 250 57 251 Z M 39 252 L 36 261 L 37 263 L 47 256 L 39 252 Z "></path><path d="M 172.5 224 Q 175.9 223.1 174 228.5 L 172 232.5 L 170.5 249 Q 167.3 247.3 169 240.5 L 170 239.5 L 171 225.5 L 172.5 224 Z "></path><path d="M 277.5 224 L 276.5 226 L 277.5 224 Z "></path><path d="M 166.5 228 L 167 233.5 L 166 234.5 L 166 243.5 L 164.5 245 L 163 241.5 L 165 232.5 L 165 230.5 L 166.5 228 Z "></path><path d="M 273.5 236 L 273 237.5 L 272.5 239 L 272 237.5 L 273.5 236 Z "></path><path d="M 181 239 L 183 239.5 L 183 257.5 L 182 258.5 L 182 265.5 L 180 274.5 L 180 287.5 L 179 289.5 Q 181.3 290.7 180 295.5 L 179 298.5 L 180 300.5 L 179 303 L 177 302.5 L 177 292.5 L 179 281.5 L 179 268.5 L 181 259.5 L 181 239 Z "></path><path d="M 176 240 Q 179 238.8 178 242.5 L 177 243.5 L 177 258.5 L 176 259.5 L 176 268.5 L 175 269.5 L 173 295 L 170 293.5 L 172 285.5 L 173 269.5 L 174 268.5 L 173 264.5 L 175 258.5 L 175 245.5 L 176 240 Z "></path><path d="M 165.5 252 L 167 255.5 L 166 256.5 L 165 282.5 L 163.5 284 L 162 283.5 L 162 275.5 L 163 274.5 L 163 265.5 L 165 256.5 L 165 254.5 L 165.5 252 Z "></path><path d="M 170.5 252 L 171 275 Q 165.8 276.8 168 269.5 L 169 268.5 L 169 253.5 L 170.5 252 Z "></path><path d="M 274 258 Q 277 257 276 260 Q 273 261 274 258 Z "></path><path d="M 285.5 265 Q 288.5 264.2 287 268 L 284 266.5 L 285.5 265 Z "></path><path d="M 251.5 306 L 252 309 L 249 307.5 L 251.5 306 Z "></path><path d="M 182.5 307 L 184 307.5 L 184 316.5 Q 182.5 319.5 181 316.5 L 182 313.5 L 181 308.5 L 182.5 307 Z "></path><path d="M 285 351 Q 288 350 287 353 Q 284 354 285 351 Z "></path><path d="M 88.5 355 L 93 356 Q 93.8 360.7 89.5 362 L 86 361 Q 85 356.3 88.5 355 Z M 90 357 L 89 359 L 91 358 L 90 357 Z "></path><path d="M 285.5 355 Q 287.8 354.3 287 356.5 L 285.5 355 Z "></path><path d="M 291 357 Q 293.7 355.9 293 358.5 L 291 361.5 L 291.5 363 L 289 359 Q 292 360 291 357 Z "></path><path d="M 295.5 357 L 303 360.5 L 300.5 361 L 299 360.5 L 300 364.5 L 297.5 369 Q 295 368 296 363.5 L 296 361.5 L 295.5 357 Z "></path><path d="M 259.5 360 Q 261.8 359.3 261 361.5 L 259.5 360 Z "></path><path d="M 87 364 Q 92.4 362.5 94 365.5 Q 95.5 369.9 92.5 369 L 88.5 371 Q 85.5 369.4 87 364 Z M 89 366 Q 88 369 91 368 Q 92 365 89 366 Z "></path><path d="M 64.5 367 L 66 373.5 L 64 372.5 L 64.5 367 Z "></path><path d="M 299 369 Q 302 367.8 301 371.5 L 300 374.5 L 299.5 386 L 298 384.5 L 298 375.5 L 299 369 Z "></path><path d="M 251 370 Q 254 368.8 253 372.5 L 253 374.5 L 251.5 377 L 250 374.5 L 251 370 Z "></path><path d="M 254.5 372 L 256.5 375 L 257 373 Q 260.7 371.6 259 377.5 L 258 377.5 L 257.5 376 L 255.5 376 L 254 375.5 L 254 373.5 L 254.5 372 Z "></path><path d="M 61.5 373 L 62.5 375 Q 59.7 375.7 61.5 373 Z "></path><path d="M 275.5 373 L 276 376 L 274 375.5 L 275.5 373 Z "></path><path d="M 308 383 L 311 384.5 L 310 387 Q 306.3 388.2 308 383 Z "></path><path d="M 265.5 385 L 266 386.5 L 264 387.5 L 265.5 385 Z "></path><path d="M 262.5 387 L 261.5 389 L 262.5 387 Z "></path><path d="M 41.5 388 L 49.5 388 L 50 390 L 44.5 389 L 40.5 390 L 41.5 388 Z "></path><path d="M 281.5 389 L 282 394.5 L 281.5 396 L 285 397 L 287.5 392 L 288 395.5 L 285 397.5 L 287 400.5 L 285.5 402 L 279.5 403 L 275.5 397 L 273.5 400 L 269.5 399 L 264.5 402 L 261 399.5 L 262.5 396 L 264.5 399 Q 267 397.8 266 394 Q 270.1 392.3 269 396.5 L 270 396.5 L 271 391 Q 275.9 389.2 274 395.5 L 275 395.5 Q 274 391 276.5 390 Q 279.5 389.1 278 393.5 L 279 393.5 Q 278.5 389.5 281.5 389 Z M 279 395 L 277 397 L 279 397 L 279 395 Z M 281 396 L 279 398 L 281 399 L 281 396 Z "></path><path d="M 44.5 391 L 47 392.5 L 41 394 Q 39.8 391 43.5 392 L 44.5 391 Z "></path><path d="M 37.5 394 L 38.5 396 L 36.5 397 L 36 395.5 L 37.5 394 Z "></path><path d="M 290.5 394 L 292 396.5 L 291 399 Q 288 400.3 289 396.5 L 290.5 394 Z "></path><path d="M 46.5 395 L 47 397 L 45 396.5 L 46.5 395 Z "></path><path d="M 90.5 396 Q 94.3 395.3 95 397.5 Q 95.8 402.3 92.5 403 Q 88.5 403.5 88 400.5 Q 87.5 396.5 90.5 396 Z M 91 398 Q 90 401 93 400 Q 94 397 91 398 Z "></path><path d="M 319.5 396 Q 322.5 397.5 319.5 399 L 319.5 396 Z "></path><path d="M 293.5 397 Q 296.1 396.2 295 399.5 L 292 401 L 293.5 397 Z "></path><path d="M 33.5 401 L 34 403.5 L 32 404.5 L 33.5 401 Z "></path><path d="M 27.5 407 L 28 409.5 L 21.5 426 L 21 422.5 L 25 410.5 L 27.5 407 Z "></path><path d="M 93.5 407 L 97 409.5 Q 97.8 413.3 95.5 414 L 93.5 415 L 90 412.5 Q 89.3 408.8 91.5 408 L 93.5 407 Z M 94 409 L 92 411 Q 91 413 95 412 L 94 409 Z "></path><path d="M 326.5 415 L 327 417 L 330.5 415 L 331 418.5 L 329 418.5 L 327.5 421 L 324 418.5 L 326.5 415 Z "></path><path d="M 246.5 424 L 248 427.5 L 247 427.5 L 246.5 424 Z "></path><path d="M 18 431 Q 20.7 429.9 20 432.5 L 17.5 436 L 17 433.5 L 18 431 Z "></path><path d="M 255 440 L 260 441 L 258.5 444 L 257 444.5 L 258 447 Q 254.2 448 253 445.5 L 257 443.5 L 255 443 L 255 440 Z "></path><path d="M 254.5 449 Q 257.5 448.2 256 452 Q 252.3 450.5 253 453.5 L 251 452.5 L 254.5 449 Z "></path><path d="M 248.5 455 L 250 457.5 Q 248.5 460.5 247 457.5 L 248.5 455 Z "></path><path d="M 205 458 Q 208.3 456.7 207 461.5 L 205 460.5 L 205 458 Z "></path><path d="M 218 459 L 220 459 L 220 464 L 218 464 L 218 459 Z "></path><path d="M 245.5 460 L 247 462.5 Q 245.5 465.5 244 462.5 L 245.5 460 Z "></path><path d="M 240 464 Q 244.9 462.4 243 468 Q 240.3 469.1 241 466.5 L 240 464 Z "></path><path d="M 181.5 465 L 182.5 467 L 181.5 465 Z "></path><path d="M 236 466 Q 238.7 464.9 238 467.5 L 239 470.5 L 238 473 L 236 472.5 L 236 466 Z "></path><path d="M 177.5 467 L 177 468.5 L 178 471.5 L 177 471.5 L 176 468.5 L 177.5 467 Z "></path><path d="M 206.5 469 L 206 470.5 L 205.5 472 L 205 470.5 L 206.5 469 Z "></path><path d="M 221 479 L 224 480.5 Q 224.8 482.8 222.5 482 L 221 479 Z "></path><path d="M 28 480 L 31 480.5 L 30 485.5 L 37 498 L 32 494.5 L 28 487.5 L 28 480 Z "></path><path d="M 220 483 L 223 484.5 L 223 487 Q 220 485.8 221 489.5 L 220 491.5 L 221 493.5 L 220 496.5 L 222.5 497 L 225 498.5 L 220 499 L 219.5 497 L 216 515 L 214 514.5 L 214 507.5 L 215 501 Q 212.3 502.1 213 499.5 L 217 496.5 L 215 496 Q 214 492.2 216.5 491 L 216.5 493 Q 218.8 493.8 218 491.5 L 218 489.5 L 219.5 487 L 221 486.5 L 220 483 Z "></path><path d="M 26.5 490 L 27 492 L 25 491.5 L 26.5 490 Z "></path><path d="M 83.5 490 Q 85.8 489.3 85 491.5 L 80.5 494 L 83.5 490 Z "></path><path d="M 28.5 492 L 29 493.5 L 26 495 Q 24.9 492.3 27.5 493 L 28.5 492 Z "></path><path d="M 222.5 493 Q 226.3 492 225 495 L 222.5 493 Z "></path><path d="M 30.5 494 L 31 495.5 L 28.5 497 L 30.5 494 Z "></path><path d="M 86.5 494 L 88 495.5 L 83.5 500 Q 81.3 500.8 82 498.5 L 86.5 494 Z "></path><path d="M 32.5 497 L 33 498.5 L 31 499.5 L 32.5 497 Z "></path><path d="M 86.5 499 L 89.5 501 L 91 504 L 88.5 503 L 86 504 Q 87.1 506.7 84.5 506 L 85 504.5 L 84 501.5 L 86.5 499 Z "></path><path d="M 220 501 L 224 502.5 Q 222.8 505.3 221.5 503 Q 218.9 503.7 220 501 Z "></path><path d="M 36.5 502 Q 38.8 501.3 38 503.5 L 34.5 506 L 35 504.5 L 36.5 502 Z "></path><path d="M 42 502 L 56 511 L 62 521.5 L 65 529.5 L 65 533.5 L 63 532.5 L 60.5 526 L 56.5 531 Q 54.3 531.8 55 529.5 L 58 528 L 58 526 Q 60.7 527.1 60 524.5 L 58.5 522 L 54 525 L 54 523 Q 56.7 524.1 56 521.5 L 57 517 L 55 517 Q 56.1 519.7 53.5 519 L 51 520 Q 49.9 517.3 52.5 518 L 55 514.5 L 53 513.5 L 52 517 L 48 518 Q 46.9 515.3 49.5 516 L 51 513 L 46 515 L 46 513 Q 48.7 514.1 48 511.5 L 46.5 512 Q 44.3 512.8 45 510.5 Q 48.8 508.7 45.5 507 Q 42.9 507.7 44 505 L 42 505 L 42 502 Z M 48 509 Q 47 512 50 511 Q 51 508 48 509 Z M 52 511 Q 50 514 53 513 L 52 511 Z "></path><path d="M 90.5 505 Q 93.1 504.3 92 507 L 86.5 510 L 86 508.5 L 90.5 505 Z "></path><path d="M 39 506 Q 42 505 41 508 Q 38 509 39 506 Z "></path><path d="M 219 506 Q 223.1 504.7 222 508 Q 217.9 509.3 219 506 Z "></path><path d="M 92.5 509 Q 95.1 508.3 94 511 L 86.5 515 L 90.5 510 L 92.5 509 Z "></path><path d="M 218.5 511 Q 221.8 509.9 221 512.5 L 219.5 512 L 218.5 511 Z "></path><path d="M 220.5 515 L 221 517 L 219 516.5 L 220.5 515 Z "></path><path d="M 181.5 520 L 182.5 522 L 181.5 520 Z "></path><path d="M 318.5 525 L 321.5 526 Q 325.5 525.5 326 528.5 L 322.5 531 Q 315.8 529.3 314 532.5 L 315.5 535 Q 323.1 533.5 322 537 L 314 537.5 L 328 538 L 327.5 540 L 316.5 540 L 314 541.5 L 322 542 Q 323.4 545.7 317.5 544 L 315.5 544 Q 312.9 543.3 314 546 L 329.5 546 L 333 547 Q 334.5 550.8 331.5 550 L 330.5 551 L 314.5 551 L 313 552.5 L 314 556.5 L 313 558.5 Q 315.7 560.3 314 566.5 L 313 567.5 L 313 575.5 L 311.5 577 L 311 573.5 L 312 571.5 L 311 569.5 L 312 564.5 L 312 562.5 L 311 551 Q 305 548.8 307 555.5 L 305 556.5 L 304 552.5 L 311 548.5 Q 305.5 549 304 545.5 Q 303.3 543.3 305.5 544 L 312 541.5 Q 312.9 538.1 307.5 540 L 304 537.5 Q 306.3 534 312 535 L 312 530 L 313.5 530 L 322 528.5 L 312 527.5 L 318.5 525 Z M 310 537 L 310 538 L 312 538 L 310 537 Z M 309 545 L 309 546 L 311 546 L 309 545 Z M 315 548 L 315 549 L 330 549 L 315 548 Z "></path><path d="M 265.5 528 Q 268 533.5 270.5 529 L 272.5 528 Q 277.9 531.1 278 539.5 L 273 543 Q 274 548.7 270.5 551 Q 268.2 553.7 262.5 553 Q 259.5 551.5 262.5 550 L 265.5 551 L 270 549 L 269 539.5 L 266 531 L 259 535.5 L 263 547.5 L 260 549 L 257 536.5 L 258 532 L 265.5 528 Z "></path><path d="M 59.5 531 L 61 531.5 L 55 536.5 L 59.5 531 Z "></path><path d="M 59 536 Q 61.7 534.9 61 537.5 L 56.5 542 L 54.5 542 L 56.5 539 L 59 537.5 L 59 536 Z "></path><path d="M 192.5 538 L 191.5 540 L 190 539.5 L 192.5 538 Z "></path><path d="M 341.5 545 L 344 545.5 L 342.5 548 L 344 548.5 L 341.5 553 L 341 550.5 L 341 548.5 L 342 546.5 L 341.5 545 Z "></path><path d="M 317.5 553 L 321 554.5 L 320 557 Q 314.8 559.1 316 554.5 L 317.5 553 Z "></path><path d="M 61 554 L 64 555.5 L 62.5 559 L 61 554 Z "></path><path d="M 343.5 554 L 344 559.5 L 343 559.5 L 342 557.5 L 343.5 554 Z "></path><path d="M 343.5 568 L 344 570.5 L 343 570.5 L 343.5 568 Z "></path><path d="M 298.5 573 Q 300.8 572.3 300 574.5 L 299 577 Q 296 578.3 297 574.5 L 298.5 573 Z "></path><path d="M 342.5 580 L 344 582.5 L 343 582.5 L 342.5 580 Z "></path><path d="M 324 583 L 326 583 L 326 589 L 324 589 L 324 583 Z "></path><path d="M 329.5 586 L 330 589 Q 327.3 590.1 328 587.5 L 329.5 586 Z "></path><path d="M 344.5 590 L 346 592.5 L 344.5 595 L 344.5 590 Z "></path><path d="M 340.5 591 L 342 594.5 L 340 593.5 L 340.5 591 Z "></path></svg>