<svg width="350" height="600" version="1.1" xmlns="http://www.w3.org/2000/svg" desc="Created with imagetracer.js version 1.2.5"><path d="M 197.5 4 L 335.5 4 L 336 5.5 Q 338.8 7.3 337 13.5 L 336 15.5 L 337 17.5 Q 334.3 19.2 336 25.5 L 337 26.5 L 337 35.5 L 336 38.5 L 337 39.5 L 337 117.5 L 338 118.5 L 338 140.5 L 337 141.5 L 337 179.5 L 338 180.5 L 338 194.5 L 337 195.5 L 337 206.5 L 338 208.5 L 337 213.5 L 338 215.5 Q 335.7 216.8 337 221.5 L 338 224.5 L 337 227.5 L 338 228.5 L 338 365.5 L 337 367.5 L 338 368.5 L 338 521.5 L 339 525.5 L 338 526.5 L 338 548.5 L 339 549.5 L 339 563.5 L 339 565.5 L 338 578.5 L 339 582.5 L 338 584.5 L 339 587.5 L 338 588.5 L 338 595 L 331.5 596 L 326.5 595 L 325.5 596 L 308.5 596 L 307.5 595 L 270.5 595 L 268.5 594 L 266.5 595 L 264.5 594 L 261.5 595 L 259.5 594 L 256.5 595 L 255.5 594 L 229.5 594 L 228.5 595 L 195.5 595 L 194.5 596 L 192.5 596 L 45.5 596 L 43.5 597 L 42.5 596 L 4.5 596 L 3 594.5 L 4 592.5 L 4 499.5 L 3 498.5 L 3 477.5 L 4 473.5 L 3 472.5 L 3 377.5 L 4 376.5 L 4 359.5 L 3 358.5 L 2 334.5 L 3 329.5 L 2 328.5 L 2 318.5 L 3 316.5 L 2 315.5 L 2 298.5 L 3 296.5 L 2 295.5 L 2 280.5 L 3 278.5 L 2 274.5 L 2 272.5 Q 4.7 264.2 3 251.5 L 2 250.5 L 2 219.5 L 3 217.5 L 2 215.5 L 3 214.5 L 3 158.5 L 4 155.5 L 4 151.5 L 4 32.5 L 5 31.5 Q 2.5 30 4 24.5 L 5 21.5 L 4 18.5 L 5 15.5 L 5 13.5 Q 3.5 7.5 6.5 6 L 119.5 6 L 120.5 5 L 123.5 6 L 126.5 5 L 128.5 5 L 196.5 5 L 197.5 4 Z M 188 6 L 187 7 L 140 7 L 139 8 L 137 7 L 135 8 L 119 8 L 118 9 L 90 9 L 89 10 L 88 9 L 50 9 L 49 8 L 47 9 L 42 8 L 8 8 L 8 131 L 7 132 L 7 198 L 13 196 L 17 198 L 22 198 L 24 203 L 24 206 L 21 210 L 23 214 Q 22 216 26 215 L 28 209 Q 32 203 42 203 L 44 205 L 43 198 L 52 192 L 66 193 L 71 196 Q 78 201 80 212 Q 81 220 78 224 Q 77 230 79 234 L 83 237 L 88 237 L 92 240 L 96 240 L 98 244 L 100 248 Q 99 254 95 257 L 97 262 L 91 266 L 89 270 L 95 275 L 94 273 Q 99 269 100 263 L 104 261 L 108 261 L 112 267 L 114 275 L 121 278 L 120 282 Q 121 284 119 283 Q 116 282 117 278 L 109 279 L 108 277 L 110 271 L 105 272 L 102 283 L 104 282 Q 111 281 114 284 L 117 290 L 116 296 L 120 297 L 124 302 L 124 307 L 127 315 L 130 316 L 134 321 L 134 323 L 127 326 L 133 336 L 135 347 L 132 361 L 128 368 L 130 367 L 136 368 L 137 373 L 140 374 L 144 373 L 145 370 L 144 370 L 140 369 L 142 365 L 147 366 L 147 361 L 145 359 Q 142 359 142 355 Q 140 353 143 352 L 145 357 L 150 361 L 150 366 Q 147 366 148 371 L 144 375 Q 138 377 137 374 L 134 375 L 131 374 Q 128 373 130 372 Q 129 369 132 370 L 132 368 L 130 369 Q 126 370 127 376 L 130 377 L 136 385 L 139 384 Q 145 383 148 386 Q 152 389 152 395 L 161 399 Q 172 407 175 424 L 174 435 L 167 449 L 172 447 L 175 448 L 177 434 L 177 432 L 176 427 Q 175 421 177 420 L 176 418 L 177 406 L 179 400 L 179 392 Q 176 390 177 386 L 174 384 L 170 381 Q 171 375 168 374 L 172 360 L 178 348 L 183 330 L 191 316 L 188 312 L 189 308 L 186 303 L 179 279 L 178 267 L 168 273 L 165 271 L 163 272 Q 154 272 151 267 Q 152 264 150 265 L 143 257 L 142 245 L 140 243 L 140 238 L 144 231 L 152 223 L 155 216 L 155 209 L 155 207 L 158 202 L 162 187 L 166 179 L 172 174 L 170 170 Q 167 171 166 168 L 163 169 L 160 165 L 155 163 L 152 160 Q 152 151 155 146 L 155 138 L 157 134 L 163 129 Q 165 128 164 131 L 166 131 L 167 126 L 173 121 L 178 120 L 181 119 Q 187 121 198 120 L 206 124 L 207 130 L 215 134 Q 218 133 216 138 Q 218 141 225 139 L 226 142 L 220 147 L 223 149 L 222 152 L 227 153 L 231 152 L 241 152 L 259 156 L 266 156 L 270 158 L 272 161 L 280 183 Q 284 185 285 192 L 284 194 L 285 200 L 289 206 L 296 224 L 295 229 Q 294 231 297 230 L 296 240 L 292 249 L 290 251 Q 281 252 277 257 L 268 257 L 266 265 L 266 274 L 267 275 L 266 278 L 266 293 L 265 294 Q 264 296 267 295 Q 268 293 269 296 Q 268 298 271 297 L 278 307 L 288 343 L 293 354 L 298 359 Q 298 366 294 370 L 296 374 L 291 381 Q 292 383 289 382 L 287 388 Q 284 387 285 390 L 285 392 L 284 398 L 285 401 L 284 407 L 284 409 L 285 411 L 286 431 L 288 437 L 287 440 L 290 441 L 290 447 L 293 455 L 294 464 L 297 464 L 312 464 Q 315 461 322 462 L 328 458 L 334 459 L 335 460 L 335 449 L 334 448 L 335 444 L 335 429 L 334 428 L 335 421 L 335 419 L 335 406 L 334 405 L 334 215 L 333 214 L 333 202 L 332 201 L 332 190 L 333 189 L 333 134 L 333 132 L 334 128 L 333 125 L 333 69 L 334 68 L 333 66 L 333 39 L 333 37 L 332 34 L 333 8 L 322 6 L 217 6 L 216 7 L 213 6 L 192 6 L 191 7 L 188 6 Z M 180 137 L 179 139 L 183 142 L 182 138 L 180 137 Z M 197 138 L 199 141 Q 201 140 200 144 L 202 145 L 200 140 Q 201 136 197 138 Z M 167 146 L 166 148 L 166 150 L 167 151 L 169 148 L 167 146 Z M 169 148 L 169 152 L 166 153 L 166 158 L 169 158 L 169 156 L 172 158 L 176 165 L 176 163 L 178 161 L 180 162 L 179 167 L 180 169 L 183 167 Q 186 166 184 172 L 185 172 L 187 169 L 183 166 L 183 164 L 182 166 L 181 166 L 182 161 Q 183 158 179 159 L 181 154 L 178 156 L 176 156 Q 177 160 174 159 L 175 156 Q 174 152 177 153 L 176 152 L 178 152 L 178 150 L 169 148 Z M 179 148 L 179 150 L 182 149 L 179 148 Z M 199 148 L 199 150 L 201 149 L 199 148 Z M 187 149 L 185 152 L 182 154 L 185 154 L 183 159 L 184 161 L 183 161 L 183 162 Q 187 161 185 166 L 187 166 Q 186 169 189 168 Q 190 170 191 168 Q 190 165 193 166 L 195 163 L 193 164 L 191 164 L 195 159 L 195 162 Q 198 163 197 159 L 199 159 L 197 158 L 196 152 Q 193 151 194 154 L 190 155 L 190 151 L 189 153 L 189 155 L 186 154 L 188 153 L 186 152 L 188 151 L 187 149 Z M 204 151 L 203 153 L 205 154 L 204 151 Z M 212 153 L 210 155 Q 207 154 208 158 L 208 159 L 211 158 L 212 158 Q 213 162 209 160 L 206 162 L 207 160 L 206 160 L 204 160 L 206 157 L 207 155 Q 204 154 205 157 L 201 162 L 203 161 L 203 163 L 201 164 L 203 164 Q 204 168 201 171 L 203 171 L 204 173 L 206 168 L 207 173 L 206 172 L 203 176 L 204 178 L 209 177 Q 211 178 210 176 L 212 176 L 217 173 L 215 166 L 214 168 L 212 169 L 213 167 L 212 165 L 214 165 L 217 161 Q 216 158 219 159 L 219 157 L 217 157 L 212 153 Z M 201 154 L 201 160 L 204 155 L 202 156 L 201 154 Z M 236 154 L 236 161 L 237 162 Q 236 171 231 177 L 227 181 Q 221 180 220 184 L 222 187 L 227 185 L 230 184 L 237 189 L 243 196 L 244 194 Q 247 195 246 199 Q 249 202 255 203 L 257 205 L 256 200 L 261 199 L 264 196 Q 265 198 266 196 L 265 192 L 268 189 L 270 189 Q 273 188 272 191 L 274 190 L 274 192 L 280 191 L 278 186 L 278 184 L 271 164 L 263 158 L 261 159 L 250 157 L 248 157 L 245 155 L 236 154 Z M 164 155 L 164 160 L 166 159 L 164 155 Z M 226 155 L 227 160 Q 228 166 225 169 L 213 179 L 210 180 L 195 180 L 190 183 L 195 183 Q 196 181 198 184 L 202 183 L 215 183 L 215 182 L 227 177 Q 233 172 235 162 L 234 157 Q 233 154 232 156 L 226 155 Z M 220 160 Q 215 162 218 164 Q 219 166 216 165 Q 215 168 218 167 L 218 170 Q 216 171 219 172 L 224 166 Q 225 163 222 164 L 222 162 L 225 163 L 225 161 L 222 161 L 220 160 Z M 200 162 Q 197 163 199 165 L 198 168 L 196 168 L 197 164 L 195 164 L 195 166 L 193 166 Q 194 169 192 168 L 192 170 Q 191 173 194 172 Q 196 171 194 170 L 195 167 L 196 171 L 194 174 L 196 174 L 201 165 L 200 162 Z M 178 165 L 176 167 L 178 167 L 178 165 Z M 173 166 L 172 169 L 174 170 L 173 166 Z M 178 172 Q 177 175 181 174 Q 182 171 178 172 Z M 190 172 L 188 173 L 188 174 Q 190 173 189 177 L 190 177 Q 189 174 192 175 Q 194 171 190 172 Z M 193 175 L 189 180 L 188 178 L 186 179 L 187 181 L 192 180 L 194 177 Q 195 174 193 175 Z M 174 177 L 174 179 L 173 178 L 169 179 L 162 199 L 161 202 L 162 204 L 161 207 L 161 209 L 160 208 L 159 210 Q 160 212 162 210 Q 165 211 164 209 L 166 209 L 168 206 L 169 209 L 172 211 L 176 212 L 178 211 Q 180 205 175 207 Q 172 208 174 210 L 172 210 L 174 207 L 174 201 L 174 199 Q 175 189 181 186 L 177 180 L 175 181 L 175 180 Q 177 181 176 179 L 174 177 Z M 180 178 L 179 180 L 182 181 L 180 178 Z M 188 183 L 188 184 L 190 184 L 188 183 Z M 211 184 L 210 185 Q 202 183 203 187 L 203 188 Q 205 189 204 186 L 206 187 L 205 189 L 203 190 L 201 186 L 200 189 L 199 186 L 194 187 Q 188 185 189 190 L 189 191 Q 191 192 190 190 Q 192 191 194 188 L 196 189 L 193 191 Q 194 193 192 192 L 190 195 L 193 193 Q 195 194 194 191 L 198 192 L 194 195 L 193 197 L 198 196 L 200 193 L 200 195 L 200 196 L 202 195 Q 206 196 205 194 L 209 191 L 207 194 L 208 195 L 211 194 Q 215 192 215 187 L 218 189 L 216 193 Q 215 195 220 194 L 222 191 L 218 193 L 219 191 L 223 189 L 223 188 Q 219 189 220 186 L 215 184 L 213 185 L 211 184 Z M 185 188 L 184 190 L 187 189 L 185 188 Z M 217 188 L 215 192 L 217 191 L 217 188 Z M 179 190 L 176 197 L 177 199 L 176 201 L 177 204 L 178 203 L 179 193 L 183 191 L 179 190 Z M 187 191 L 186 193 L 188 192 L 187 191 Z M 224 191 L 221 194 Q 220 196 223 195 L 224 193 L 224 191 Z M 231 191 L 230 196 L 231 198 Q 230 201 234 200 L 237 206 L 237 212 L 234 221 Q 233 223 236 222 L 238 219 L 240 220 L 243 212 L 245 217 Q 246 222 243 225 L 245 230 L 243 237 L 245 236 Q 244 233 248 234 L 247 238 L 249 238 L 247 243 L 251 240 L 252 240 L 252 244 L 255 243 Q 258 242 259 245 L 258 248 Q 257 250 260 249 Q 259 245 263 244 Q 265 243 264 246 L 261 250 L 266 247 Q 268 246 267 249 L 267 250 L 269 249 L 270 252 L 270 253 L 274 250 L 272 249 L 270 246 Q 269 242 272 243 L 274 245 L 272 242 L 273 238 L 271 237 Q 269 233 274 234 L 280 242 L 279 245 L 280 247 Q 283 244 282 238 L 281 238 L 275 232 Q 271 233 273 229 L 279 228 Q 278 232 281 235 L 282 235 Q 280 228 284 229 L 285 235 Q 282 237 283 244 L 281 247 L 282 249 L 282 247 L 286 249 Q 289 250 287 246 L 287 244 Q 288 241 285 242 L 286 239 Q 284 237 287 236 L 289 237 L 290 237 L 286 235 L 288 232 L 291 234 L 291 231 L 289 229 Q 284 227 288 225 L 292 228 L 292 226 L 288 223 Q 287 220 291 221 L 291 220 L 286 216 L 288 211 L 283 209 L 282 214 L 283 218 L 279 216 Q 278 213 281 214 Q 282 211 278 212 L 280 209 L 276 208 L 278 205 L 277 202 Q 274 203 275 200 L 271 195 L 269 197 L 270 200 L 267 201 L 267 202 Q 273 201 272 204 Q 271 206 266 206 L 273 207 Q 275 208 274 212 L 270 209 L 265 210 L 271 212 L 275 220 L 272 221 Q 271 216 267 213 Q 262 213 262 216 L 255 209 L 251 209 L 250 212 L 248 209 L 247 211 Q 243 213 244 208 L 241 207 L 243 202 L 242 201 Q 238 199 238 195 Q 236 191 231 191 Z M 184 193 Q 179 194 180 202 L 182 203 L 181 199 L 185 194 L 184 193 Z M 54 194 L 48 196 L 45 199 L 48 206 L 50 205 Q 57 205 60 210 L 63 209 L 65 210 L 71 218 Q 72 220 70 219 L 67 216 Q 66 211 61 212 L 60 215 L 57 210 L 54 209 L 55 212 L 54 213 Q 55 215 53 214 L 51 211 L 49 212 L 44 209 L 45 206 L 44 206 Q 39 207 38 205 L 33 207 Q 29 208 30 214 L 31 215 L 28 218 Q 27 221 30 222 L 41 218 Q 62 217 71 229 Q 70 231 73 230 L 76 234 L 76 223 L 78 218 Q 78 206 72 201 L 64 195 L 61 196 Q 59 193 54 194 Z M 186 195 L 184 201 L 185 206 L 188 197 Q 189 194 186 195 Z M 212 196 L 204 200 L 203 198 L 201 198 L 197 201 L 197 200 L 194 199 L 194 201 L 192 201 L 193 203 L 191 203 L 190 206 L 191 208 Q 192 212 190 214 L 188 212 L 190 212 L 189 208 L 188 210 L 186 211 L 182 215 L 182 217 L 183 220 L 185 220 L 184 222 L 189 225 L 188 224 L 190 223 L 189 226 L 192 226 L 191 223 L 192 221 L 193 223 L 194 221 L 193 218 L 195 214 L 196 216 L 197 214 L 195 209 L 198 209 L 197 211 L 200 209 L 199 203 L 202 204 L 204 203 L 204 205 L 207 204 L 209 205 L 215 202 L 218 202 L 219 203 Q 220 200 218 201 L 218 200 L 220 201 L 222 201 L 220 199 L 220 198 L 212 196 Z M 278 196 L 276 198 L 280 200 L 283 206 L 285 206 L 281 197 L 279 198 L 278 196 Z M 191 197 L 189 199 L 190 202 L 192 198 L 191 197 Z M 12 198 L 10 199 L 7 202 L 7 209 L 13 214 Q 14 219 10 220 L 10 224 L 7 227 L 7 234 Q 10 235 9 240 L 8 239 L 7 246 L 10 244 L 11 245 L 18 232 Q 20 233 19 231 L 25 226 L 24 221 Q 26 215 21 217 L 18 211 L 21 205 L 20 201 L 19 204 L 15 207 L 12 206 L 11 204 L 14 200 Q 15 197 12 198 Z M 224 198 L 226 200 L 227 200 L 224 198 Z M 14 201 L 14 204 L 16 203 Q 17 200 14 201 Z M 227 202 L 225 204 L 227 204 L 228 207 L 231 209 L 230 213 Q 229 217 232 218 L 233 212 L 232 206 L 231 206 L 231 204 Q 228 205 229 203 L 227 202 Z M 220 203 L 220 204 L 222 204 L 220 203 Z M 215 204 L 216 206 L 221 208 L 221 206 L 215 204 Z M 225 205 L 224 207 L 224 209 L 225 211 L 224 213 L 226 214 Q 228 207 225 205 Z M 184 206 L 181 211 L 183 211 L 184 209 L 184 206 Z M 204 207 L 198 218 L 200 218 L 202 215 L 203 218 L 203 220 L 202 218 L 198 231 L 200 234 L 198 232 L 193 246 L 193 249 L 195 249 Q 194 252 197 251 L 198 253 L 199 286 L 201 286 L 200 288 L 202 295 L 201 297 L 199 296 L 196 293 L 195 288 L 195 262 L 194 262 L 192 261 L 191 252 L 183 257 L 184 261 L 180 267 L 181 270 L 182 270 Q 180 264 184 265 L 186 270 L 186 275 L 189 286 Q 190 289 187 288 L 185 283 L 184 283 L 190 304 L 192 305 L 190 298 Q 189 293 192 292 Q 192 285 189 281 L 189 268 L 191 266 L 192 268 L 192 280 L 194 285 L 195 296 L 198 306 L 203 313 Q 204 317 202 316 L 202 318 Q 202 322 200 322 Q 195 323 194 320 L 191 322 Q 190 324 193 323 L 193 327 L 189 334 L 186 346 L 184 349 L 184 354 L 181 361 Q 179 370 184 374 L 183 379 Q 184 381 182 380 Q 179 381 180 388 L 184 390 L 183 389 L 187 378 L 185 370 L 183 368 Q 182 362 185 360 L 189 357 Q 190 361 187 364 L 189 374 L 190 374 Q 191 369 189 368 L 190 367 L 190 353 L 193 351 L 194 354 L 193 356 L 193 375 L 195 382 L 194 387 Q 193 394 195 398 L 202 401 L 203 397 L 203 395 L 203 387 L 202 386 L 204 377 L 203 375 L 204 373 L 203 370 L 203 348 L 203 346 L 204 345 L 204 322 L 205 321 L 204 319 L 204 216 L 203 215 L 204 213 L 204 207 Z M 51 208 L 51 209 L 53 209 L 51 208 Z M 222 208 L 220 210 L 221 213 L 222 211 L 222 208 Z M 168 209 L 167 211 L 169 212 L 168 209 Z M 217 209 L 216 213 L 217 213 L 217 209 Z M 8 211 L 6 214 L 8 218 L 10 217 L 8 211 Z M 161 214 L 161 221 L 152 228 L 145 236 Q 144 238 147 237 L 148 240 L 147 244 L 148 244 Q 147 241 150 242 L 155 229 L 160 227 Q 164 226 166 229 L 167 227 L 166 226 Q 164 228 163 226 L 164 224 L 163 222 L 165 220 L 171 220 L 164 219 L 165 215 L 161 214 Z M 216 214 L 215 217 L 216 217 L 216 214 Z M 225 214 L 222 218 L 223 221 L 225 216 L 225 214 Z M 173 216 L 174 218 Q 175 215 173 216 Z M 157 217 L 156 221 L 158 220 L 157 217 Z M 177 217 L 174 223 L 174 226 L 170 228 L 166 238 Q 164 241 162 237 L 163 233 L 157 237 L 159 237 Q 160 235 161 238 Q 163 245 159 246 L 157 243 L 154 248 L 151 247 L 150 243 L 147 254 L 148 254 Q 147 251 150 252 L 151 259 L 158 267 L 160 266 L 164 268 L 167 265 L 168 266 L 170 265 L 168 264 L 169 260 L 173 263 L 172 265 L 173 266 L 177 264 L 176 263 L 169 256 L 168 257 L 163 250 Q 162 245 165 246 L 168 254 L 170 253 L 169 250 L 167 250 Q 166 246 170 248 L 169 244 L 170 239 L 169 236 Q 168 231 172 233 L 173 231 Q 176 234 175 242 L 178 246 Q 177 248 180 247 L 181 249 L 184 248 Q 185 250 186 248 L 184 246 Q 180 246 182 240 L 189 235 L 186 241 L 189 242 Q 190 246 187 247 L 189 247 L 190 249 L 194 231 L 193 231 L 189 229 L 179 219 Q 180 216 177 217 Z M 217 217 L 215 224 L 215 250 L 215 254 L 216 255 L 217 292 L 218 287 L 221 285 Q 219 289 220 298 L 219 299 L 219 311 L 221 322 L 223 323 L 225 322 Q 229 323 228 321 L 231 319 L 233 316 L 233 307 L 234 306 L 233 304 Q 232 299 234 298 Q 235 289 233 284 L 232 281 L 233 276 Q 233 273 238 273 L 240 278 L 239 280 Q 240 282 238 281 Q 235 280 237 279 L 237 276 L 235 279 L 237 286 L 236 314 L 234 319 L 243 319 L 244 320 L 248 320 L 247 317 L 255 310 Q 258 311 257 309 L 257 307 L 261 295 Q 259 288 262 287 L 261 284 L 261 282 L 261 256 L 259 255 L 255 247 L 254 250 L 252 251 L 247 250 L 245 244 L 243 245 L 242 243 Q 241 239 237 240 L 232 230 L 228 229 L 227 224 L 225 223 L 223 224 L 220 221 Q 221 217 217 219 L 217 217 Z M 42 222 L 30 226 Q 18 233 15 250 L 16 262 L 22 273 L 29 278 L 41 283 L 54 282 L 64 277 Q 73 270 76 257 Q 77 241 70 234 Q 65 226 56 223 L 42 222 Z M 197 222 L 196 225 L 197 225 L 197 222 Z M 168 223 L 170 225 Q 171 222 168 223 Z M 196 225 L 194 227 L 196 227 L 196 225 Z M 210 228 L 209 232 L 211 232 L 210 228 Z M 78 236 Q 75 240 79 239 L 78 236 Z M 291 237 L 292 239 Q 293 236 291 237 Z M 84 239 L 79 243 L 80 247 L 80 258 L 74 272 L 74 273 L 82 268 L 86 269 L 86 266 L 94 262 L 92 259 L 93 253 L 97 250 Q 98 244 95 242 L 92 244 Q 89 245 90 243 Q 89 238 84 239 Z M 186 241 L 184 244 L 186 244 L 186 241 Z M 290 241 Q 290 245 292 242 L 290 241 Z M 210 246 Q 208 249 211 248 L 210 246 Z M 11 248 L 7 253 L 8 256 L 7 260 L 9 259 Q 11 258 10 261 L 8 261 L 9 264 L 14 268 L 11 258 L 11 248 Z M 209 249 L 210 253 L 211 251 Q 212 248 209 249 Z M 173 250 L 172 252 L 178 257 L 180 257 L 173 250 Z M 181 250 L 181 252 L 184 252 L 181 250 Z M 275 251 L 274 253 L 277 253 L 275 251 Z M 173 255 L 172 257 L 177 263 L 178 263 L 178 261 L 173 255 Z M 210 255 L 209 257 L 211 256 L 210 255 Z M 104 263 L 103 268 Q 104 270 106 268 Q 110 269 108 265 L 104 263 Z M 210 264 L 211 267 L 210 269 L 211 270 Q 213 269 212 266 L 210 264 Z M 8 266 L 9 271 L 8 273 L 10 275 L 12 272 L 14 273 L 14 272 L 8 266 Z M 101 270 L 99 273 L 101 272 L 101 270 Z M 183 270 L 182 277 L 183 277 L 183 270 Z M 17 271 L 16 273 L 14 274 L 17 278 L 13 274 L 10 276 L 13 277 L 12 279 L 16 281 L 15 284 Q 23 285 28 283 Q 26 278 21 278 L 17 271 Z M 83 271 L 72 277 Q 71 284 75 286 L 74 286 L 74 287 L 78 286 L 77 285 L 78 283 L 76 282 L 75 279 L 77 279 L 80 277 L 81 278 L 80 280 L 77 279 L 79 283 L 78 285 L 81 286 Q 83 287 82 284 L 80 284 L 82 283 L 86 287 L 87 286 L 88 287 Q 86 290 84 289 Q 83 291 86 290 L 87 294 Q 86 296 85 294 L 82 295 L 83 303 L 84 298 Q 86 295 87 298 L 85 298 L 86 300 L 85 300 L 85 302 L 85 304 Q 82 303 83 306 L 84 309 L 82 310 L 83 312 L 81 313 L 80 311 L 77 311 Q 78 308 80 310 L 80 308 L 78 307 L 77 309 L 76 306 L 75 310 L 75 312 L 77 315 L 79 312 L 79 315 L 81 314 L 79 317 L 78 315 L 74 320 L 75 321 L 82 317 L 85 309 L 93 301 L 95 295 L 95 286 L 91 275 Q 88 271 83 271 Z M 211 272 L 209 274 L 212 274 Q 213 271 211 272 Z M 96 275 L 98 282 L 100 278 Q 101 275 99 276 Q 97 278 96 275 Z M 7 277 L 7 284 L 9 283 L 12 284 L 13 285 Q 14 280 12 279 L 10 280 L 10 279 L 7 277 Z M 184 278 L 183 282 L 184 282 L 184 278 Z M 106 285 L 103 286 L 98 293 L 96 301 L 97 302 L 98 300 L 103 296 Q 106 295 105 298 Q 108 299 107 295 L 112 296 L 113 292 L 111 288 Q 112 285 110 286 L 108 286 L 106 285 Z M 27 286 L 25 288 L 20 287 L 20 289 L 18 288 L 15 290 L 16 293 L 15 297 L 20 303 L 20 306 L 18 305 Q 19 302 17 303 L 14 296 L 13 301 L 10 306 L 13 310 L 13 312 L 9 310 Q 10 306 7 307 L 7 315 L 8 316 L 7 321 L 8 322 L 10 321 L 13 327 Q 14 330 11 329 L 9 325 L 7 324 Q 5 330 8 332 L 7 334 Q 10 337 16 338 L 18 338 L 23 337 L 22 336 Q 21 330 25 329 Q 27 323 23 324 L 21 317 L 26 312 L 32 309 L 30 304 L 34 301 Q 38 299 37 293 Q 35 286 27 286 Z M 41 286 L 38 287 L 40 290 L 41 288 L 41 286 Z M 83 286 L 84 288 Q 85 285 83 286 Z M 57 287 L 57 291 L 59 292 L 58 294 Q 54 295 57 297 L 54 305 L 57 306 L 58 305 L 60 307 L 59 305 L 57 302 L 60 303 L 60 302 Q 56 300 60 298 L 58 297 L 59 294 L 60 294 L 59 296 L 62 297 L 61 296 L 63 293 L 65 294 L 67 291 Q 65 285 57 287 Z M 211 287 Q 209 290 212 289 L 211 287 Z M 7 288 Q 5 293 8 294 L 10 293 L 12 295 Q 13 291 10 292 L 7 288 Z M 80 288 L 79 291 L 82 292 Q 83 289 80 290 L 80 288 Z M 50 289 Q 45 291 49 293 L 49 291 L 53 290 L 52 292 Q 54 298 50 297 L 51 293 Q 48 292 49 295 L 49 297 L 48 296 L 47 299 L 49 300 Q 48 297 51 298 Q 52 301 50 300 L 50 302 L 49 305 L 50 307 L 52 306 L 54 307 Q 55 304 52 305 L 51 302 L 54 303 L 52 300 L 53 298 L 54 300 L 54 298 L 54 296 L 56 297 L 55 296 L 57 293 L 57 291 L 54 292 L 54 294 L 53 293 L 56 291 Q 55 288 50 289 Z M 75 290 Q 73 294 77 296 L 77 297 L 76 296 L 75 296 L 76 300 L 76 299 L 77 299 Q 76 301 79 300 L 78 299 L 79 297 L 75 290 Z M 71 292 L 69 295 L 71 294 L 71 292 Z M 82 292 Q 81 295 84 294 Q 85 291 82 292 Z M 217 294 L 216 306 L 217 306 L 217 294 Z M 63 295 L 63 297 Q 64 299 62 298 L 60 301 L 62 300 L 63 301 L 62 303 L 60 304 Q 61 306 63 304 L 62 306 Q 63 308 60 307 L 59 311 L 61 310 L 64 308 L 63 307 L 65 306 L 66 308 L 67 305 L 67 308 L 64 309 Q 65 311 63 310 L 64 313 L 63 312 L 62 314 Q 59 315 60 313 L 59 313 Q 60 315 57 314 L 58 312 L 57 309 L 55 313 L 57 317 Q 60 318 59 315 L 62 315 Q 61 318 65 317 L 68 320 L 65 313 L 67 310 L 68 311 L 66 311 L 67 316 L 68 316 Q 66 311 70 312 L 69 311 L 71 310 L 70 313 L 73 314 L 75 317 L 75 316 L 75 314 L 74 313 L 70 304 L 71 296 L 69 297 L 68 296 L 66 298 Q 63 299 64 295 L 63 295 Z M 211 295 L 212 298 L 211 303 L 213 303 L 213 296 L 211 295 Z M 10 296 L 7 297 L 6 301 L 7 304 L 10 300 L 10 296 Z M 114 297 L 115 302 Q 116 304 113 303 L 109 298 L 106 303 L 106 306 L 110 309 L 109 311 L 107 310 L 104 306 L 99 309 Q 93 308 92 310 Q 86 309 88 313 L 97 312 L 100 311 L 111 313 Q 118 315 123 321 L 128 321 L 125 319 L 122 317 L 121 304 L 114 297 Z M 47 299 L 47 307 L 48 307 L 47 304 L 49 303 L 47 299 Z M 77 300 L 76 304 L 75 301 L 74 305 L 77 306 L 79 303 L 77 302 L 77 300 Z M 102 301 L 100 304 L 102 304 L 102 301 Z M 263 301 Q 264 307 260 310 L 260 314 L 255 322 Q 254 325 252 322 Q 255 320 254 316 L 251 318 L 251 323 Q 248 322 249 326 L 247 326 L 247 329 L 237 328 Q 235 324 233 328 L 219 325 L 217 321 L 216 333 L 216 335 L 215 337 L 216 339 L 215 341 L 215 356 L 214 357 L 214 402 L 212 406 L 213 408 L 212 410 L 212 460 L 214 461 L 224 459 L 237 451 L 243 453 L 247 457 L 254 460 L 260 460 L 261 461 L 259 448 L 255 442 L 245 414 L 245 409 L 239 406 L 236 406 L 232 406 L 228 407 L 214 406 L 216 403 L 220 404 L 222 401 Q 223 398 220 399 L 217 397 L 216 384 L 215 383 Q 218 381 216 375 L 219 371 L 221 373 L 218 381 L 219 382 L 220 392 L 220 383 L 223 381 L 223 393 L 228 404 Q 229 402 234 403 L 235 404 Q 235 394 231 388 L 231 380 L 233 374 L 234 358 L 235 357 Q 236 348 234 343 Q 238 341 237 346 L 237 348 L 238 350 L 237 370 L 234 385 L 235 391 L 238 397 L 238 402 L 246 406 Q 247 400 244 398 L 245 395 L 244 391 L 246 391 Q 247 387 245 388 L 242 386 L 241 382 L 242 370 L 244 364 L 243 360 L 245 356 L 247 362 L 244 375 Q 243 383 246 387 L 247 387 Q 246 384 249 385 L 252 392 L 253 401 L 258 403 L 262 401 Q 267 403 266 400 Q 268 396 273 396 Q 274 399 276 397 Q 278 398 277 396 L 276 395 L 279 392 L 278 390 L 279 386 L 282 384 L 281 381 L 279 379 L 275 374 L 275 364 L 274 363 Q 273 357 275 356 L 274 354 L 275 350 L 275 336 L 272 330 L 272 326 L 270 325 L 271 331 L 272 334 L 272 360 L 271 361 L 271 369 L 270 370 L 269 383 L 273 384 L 275 388 L 274 390 L 275 392 Q 276 396 272 394 L 271 388 L 269 386 Q 265 385 266 381 L 266 379 L 269 367 L 269 346 L 270 345 L 269 342 L 270 340 L 267 326 Q 265 319 269 317 L 271 318 L 272 318 L 267 309 L 267 304 L 263 301 Z M 272 303 L 270 305 Q 271 313 276 319 Q 277 323 274 322 L 278 342 L 277 343 L 277 368 L 277 370 L 279 376 L 284 380 Q 283 383 286 382 L 287 380 L 283 368 L 283 352 L 280 339 L 280 334 L 276 324 L 279 322 L 277 314 Q 278 311 275 312 Q 276 305 272 303 Z M 79 304 Q 76 308 80 307 L 82 309 L 81 307 L 82 305 L 80 306 L 79 304 Z M 95 305 L 95 306 L 97 306 L 95 305 Z M 193 305 Q 193 308 190 307 L 191 311 L 192 311 Q 191 308 194 309 L 193 305 Z M 52 307 L 49 308 Q 48 311 51 310 Q 52 308 53 311 Q 52 313 55 312 L 52 307 Z M 54 307 Q 53 310 56 309 Q 57 306 54 307 Z M 44 310 L 43 312 L 43 314 L 45 315 Q 46 311 44 310 Z M 196 311 L 197 317 L 197 318 Q 200 319 198 315 L 200 315 L 199 312 L 196 311 Z M 39 312 L 38 313 Q 34 312 35 315 L 38 317 L 37 315 L 40 313 L 39 312 Z M 42 312 L 41 316 L 43 317 L 42 312 Z M 218 312 L 217 321 L 219 320 L 218 312 Z M 46 315 L 45 318 L 46 318 L 46 315 Z M 70 315 L 69 320 L 71 319 L 73 320 L 72 319 L 73 317 L 70 315 Z M 99 315 L 89 317 L 80 322 L 71 332 L 67 345 L 68 356 L 74 368 L 82 374 L 91 378 Q 95 377 97 379 L 102 379 L 109 377 L 110 379 L 110 378 L 119 372 Q 127 366 130 355 L 130 341 L 125 329 L 117 320 L 111 317 L 99 315 Z M 210 315 L 209 318 L 211 318 L 210 315 Z M 44 317 L 42 319 L 44 319 L 44 317 Z M 36 318 L 35 321 L 36 323 Q 39 324 38 322 L 38 320 Q 39 317 36 318 Z M 47 318 L 45 320 L 47 320 L 47 318 Z M 53 319 Q 48 321 51 323 L 49 323 Q 48 326 51 325 L 52 321 Q 56 320 59 323 L 62 329 L 61 332 L 63 332 L 64 333 Q 65 328 63 327 L 61 324 L 59 321 L 53 319 Z M 30 320 L 29 321 Q 26 320 27 323 L 30 322 L 30 320 Z M 40 320 L 39 326 L 40 326 L 40 320 Z M 42 320 L 41 324 L 42 324 L 42 320 Z M 44 320 L 44 323 Q 47 324 46 322 L 44 320 Z M 48 320 Q 45 324 49 323 L 48 320 Z M 69 320 L 68 323 L 72 325 L 74 322 L 71 320 L 70 322 L 69 320 Z M 232 321 L 232 324 L 235 324 L 236 324 L 232 321 Z M 30 322 L 29 326 Q 34 328 33 324 L 32 324 L 32 323 L 30 322 Z M 241 322 L 236 325 L 244 326 Q 247 327 246 325 L 241 322 Z M 280 322 L 279 325 L 280 325 L 280 322 Z M 35 323 L 35 326 L 38 326 L 35 323 Z M 55 324 L 52 329 L 54 332 L 57 331 L 57 329 L 54 330 L 57 325 L 55 324 Z M 190 324 L 186 330 L 187 332 L 190 326 L 190 324 Z M 59 325 L 59 328 L 58 330 L 60 331 Q 61 326 59 325 Z M 49 326 L 49 328 L 51 329 Q 52 325 49 326 Z M 30 329 L 28 330 Q 25 331 25 335 Q 27 338 29 334 L 28 333 L 26 334 L 31 330 L 33 332 L 32 331 L 30 332 L 30 334 L 29 341 L 32 339 Q 34 340 33 337 L 31 338 L 33 335 L 34 335 L 34 331 L 39 330 L 39 329 L 35 330 L 30 329 Z M 41 329 L 38 337 Q 37 339 40 338 L 39 340 L 41 343 L 42 343 L 41 336 L 41 334 L 43 333 L 44 333 L 42 336 L 44 341 L 45 330 L 41 329 Z M 48 329 L 48 333 L 50 332 Q 51 328 48 329 Z M 35 332 L 36 335 Q 35 337 38 336 L 37 334 Q 38 331 35 332 Z M 51 334 L 51 337 L 53 336 Q 54 333 51 334 Z M 57 334 L 55 340 L 53 341 L 51 341 L 54 345 L 54 348 L 50 351 L 48 348 L 46 352 L 46 354 L 44 359 L 46 362 L 45 362 Q 46 359 44 360 L 44 362 L 41 361 Q 44 363 44 369 L 45 366 L 46 370 L 47 370 L 44 364 L 46 363 L 49 372 L 46 370 L 36 374 Q 42 373 44 377 L 51 372 L 54 374 L 57 372 L 62 366 L 62 361 L 62 359 Q 61 354 64 355 L 63 352 L 64 340 L 65 338 Q 62 339 63 336 L 57 334 Z M 185 335 L 184 338 L 185 338 L 185 335 Z M 211 336 L 209 341 L 211 341 L 211 336 Z M 36 338 Q 35 341 38 340 Q 39 337 36 338 Z M 284 338 L 283 342 L 284 342 L 284 338 Z M 8 339 L 9 348 L 9 350 L 8 352 L 9 353 L 12 351 L 14 355 L 14 354 L 16 354 L 16 351 L 14 352 L 14 351 L 14 343 L 16 342 L 15 344 L 16 350 L 19 342 Q 11 342 8 339 Z M 35 339 L 32 340 L 34 343 L 35 341 L 35 339 Z M 184 339 L 172 370 Q 171 375 174 376 L 174 381 Q 177 382 176 379 L 180 376 L 177 370 L 179 355 L 184 342 L 184 339 Z M 39 340 L 38 345 L 39 346 Q 34 344 37 343 L 36 342 L 34 345 L 39 347 Q 40 349 41 347 L 40 345 L 40 343 L 39 340 Z M 24 342 L 22 344 L 23 345 L 25 344 L 24 342 Z M 29 343 L 25 346 L 26 349 L 27 349 Q 26 345 29 346 L 30 344 L 29 343 Z M 42 343 L 42 346 L 44 345 Q 45 342 42 343 Z M 285 343 L 284 347 Q 287 348 287 352 L 288 350 L 285 343 Z M 33 345 L 30 346 L 31 352 L 34 351 Q 33 354 36 353 L 36 351 L 32 349 Q 34 345 36 349 L 36 348 L 33 345 Z M 22 346 L 25 351 L 26 349 Q 23 350 24 346 L 22 346 Z M 21 347 L 19 352 L 20 355 L 22 354 L 21 347 Z M 29 347 L 25 361 L 23 361 L 25 364 L 27 365 L 26 363 L 29 352 L 30 355 L 29 357 L 30 360 Q 35 360 37 357 Q 39 358 38 356 L 40 353 L 37 351 L 37 353 L 34 354 L 32 358 L 32 357 L 29 347 Z M 11 352 L 10 354 L 8 355 L 10 357 L 10 356 Q 14 354 11 352 Z M 33 352 L 32 355 L 33 355 L 33 352 Z M 210 353 L 208 355 L 210 355 L 210 353 Z M 17 354 L 16 356 L 18 357 L 17 354 Z M 21 355 L 21 358 L 23 357 Q 24 354 21 355 Z M 286 356 L 285 359 L 286 359 L 286 356 Z M 11 357 L 14 360 L 14 358 L 11 357 Z M 294 357 L 294 361 L 295 361 L 294 357 Z M 19 358 L 15 360 L 13 363 L 15 363 L 14 365 L 17 370 Q 18 376 16 375 Q 14 372 12 377 L 14 379 Q 13 384 15 386 L 15 387 Q 12 384 13 378 L 12 384 L 10 382 L 10 379 L 14 372 L 13 372 L 12 371 L 12 369 L 10 363 L 9 363 Q 8 367 10 369 Q 7 370 8 376 L 10 376 L 10 377 L 8 378 L 8 384 L 12 385 L 13 393 L 13 390 L 15 391 L 14 394 L 14 395 Q 16 396 15 392 L 21 393 L 20 391 L 21 388 L 20 387 L 20 385 L 18 386 L 16 386 L 18 385 L 21 377 L 18 376 Q 17 371 19 370 L 17 367 Q 16 361 19 360 L 19 358 Z M 21 359 L 21 363 L 23 364 L 22 362 L 23 360 L 21 359 Z M 287 359 L 286 363 L 289 376 L 292 375 L 291 369 L 287 359 Z M 29 360 L 27 363 L 30 361 L 29 360 Z M 37 360 L 36 361 L 33 361 Q 34 364 31 363 L 31 367 L 29 367 L 27 368 Q 28 365 25 366 Q 23 371 27 370 Q 28 373 24 372 L 25 376 L 23 379 L 24 380 L 27 376 L 34 370 Q 41 373 39 367 L 36 365 L 37 363 L 37 360 Z M 40 361 L 39 364 L 41 365 L 40 361 Z M 21 363 L 21 368 Q 23 371 24 368 L 21 363 Z M 142 366 Q 141 369 144 368 Q 145 365 142 366 Z M 212 366 L 210 371 L 211 373 L 212 371 L 212 366 Z M 40 367 L 40 369 L 42 368 L 40 367 Z M 209 367 Q 207 370 210 369 L 209 367 Z M 20 370 L 20 374 L 21 374 L 20 370 Z M 123 373 L 120 376 L 123 376 L 123 373 Z M 208 373 Q 206 376 209 375 L 208 373 Z M 22 374 L 20 376 L 22 376 L 22 374 Z M 67 375 L 63 378 L 66 379 L 66 377 L 69 376 L 71 378 L 70 381 L 72 383 L 73 381 L 73 383 L 75 384 L 74 382 L 78 379 L 77 381 L 78 383 L 78 382 L 80 382 L 80 380 Q 77 374 67 375 Z M 211 375 L 210 377 L 209 379 L 211 378 L 211 375 Z M 34 376 L 33 382 L 35 382 Q 36 377 34 376 Z M 191 376 L 189 380 L 190 384 L 188 387 L 188 389 Q 187 393 190 392 L 191 388 L 191 376 Z M 69 377 Q 66 378 68 380 L 67 382 L 69 383 L 69 377 Z M 117 377 L 111 381 L 115 383 L 118 378 L 117 377 Z M 61 379 L 59 381 L 61 381 L 61 379 Z M 64 379 L 63 381 L 65 382 L 64 379 Z M 124 379 L 121 380 L 118 384 L 120 387 L 120 390 L 118 393 L 111 391 L 106 392 L 105 403 L 103 405 Q 104 407 101 406 L 100 412 L 100 413 L 102 412 L 108 415 L 112 407 Q 120 394 139 392 L 141 392 L 148 393 L 144 387 L 136 388 L 132 384 L 128 379 L 124 379 Z M 211 379 L 209 381 L 210 383 L 211 383 L 211 379 Z M 26 381 L 21 384 Q 19 388 23 387 L 26 383 L 26 381 Z M 49 382 Q 47 385 41 383 L 30 388 Q 19 395 17 410 L 18 422 L 24 433 Q 30 440 41 443 L 55 443 L 65 439 Q 76 432 79 417 L 78 406 L 72 394 L 59 384 L 52 383 L 49 382 Z M 103 382 L 103 383 L 106 383 L 103 382 Z M 69 384 L 69 385 L 71 385 L 69 384 Z M 74 384 L 73 385 Q 70 384 71 387 L 75 386 L 74 384 Z M 96 384 L 95 388 L 95 387 Q 96 384 94 385 L 92 385 L 89 393 L 92 392 L 91 394 L 94 394 L 93 396 L 94 398 Q 95 400 92 399 L 93 403 L 93 400 L 96 401 L 97 397 L 95 397 L 97 394 L 96 391 L 95 393 L 93 392 L 95 391 L 92 390 L 96 389 L 98 392 L 99 389 L 97 389 L 100 387 Q 103 389 99 391 Q 101 396 98 395 L 98 396 Q 100 395 99 398 L 102 399 L 101 402 L 100 399 Q 96 398 98 405 L 96 405 L 98 407 L 103 402 L 103 396 L 102 396 Q 103 398 100 397 Q 99 394 102 395 L 102 388 L 96 384 Z M 208 384 Q 206 387 209 386 L 208 384 Z M 211 384 L 209 395 L 211 394 L 211 384 Z M 83 385 L 82 389 L 84 388 L 83 385 Z M 80 386 Q 77 387 78 392 L 77 389 L 74 390 L 76 393 L 80 394 L 82 391 L 81 388 L 80 392 L 79 392 L 80 388 L 80 386 Z M 112 386 L 111 388 L 114 390 L 112 386 Z M 183 393 L 181 405 L 181 416 L 180 417 L 181 419 L 180 421 L 180 430 L 182 436 L 185 439 Q 184 443 186 445 Q 187 448 185 449 L 182 448 Q 184 440 180 441 L 178 447 L 178 452 L 175 460 Q 177 466 174 468 L 175 480 L 181 482 L 192 480 L 197 477 L 202 477 L 202 412 L 203 411 L 202 409 L 203 405 Q 199 406 200 404 Q 199 401 198 403 L 194 402 L 191 396 L 183 393 Z M 84 394 Q 81 398 86 397 L 87 395 L 85 396 L 84 394 Z M 281 394 L 280 396 L 277 398 Q 274 397 275 400 Q 271 405 264 406 Q 262 404 261 407 L 258 406 L 255 407 L 253 407 L 248 410 L 249 417 L 253 425 L 253 428 L 257 436 L 259 444 L 269 457 Q 270 460 266 458 L 264 454 L 263 454 L 265 462 L 265 475 L 268 483 L 274 487 L 276 486 L 282 489 L 292 487 L 293 484 L 292 482 L 293 478 L 290 452 L 284 441 L 284 430 L 283 429 L 283 419 L 282 418 L 282 399 L 281 394 Z M 9 395 L 9 406 L 11 401 Q 8 399 9 395 Z M 249 395 L 248 399 L 249 399 L 249 395 Z M 82 396 Q 80 399 83 398 L 82 396 Z M 136 397 L 129 399 L 121 404 Q 113 410 110 422 L 110 433 L 115 445 Q 121 454 135 457 L 146 457 L 158 452 L 167 442 L 170 433 Q 171 415 163 407 Q 157 400 147 397 L 143 398 L 136 397 Z M 250 400 L 250 406 L 252 405 L 250 400 Z M 12 401 L 11 405 L 8 408 L 9 409 L 8 412 L 13 414 L 13 410 Q 16 408 12 407 L 14 407 L 15 403 L 12 401 Z M 87 401 Q 84 402 86 404 L 85 408 L 86 415 L 87 411 L 86 409 L 88 409 L 88 404 L 88 402 L 87 401 Z M 95 401 L 94 404 L 95 404 L 95 401 Z M 85 403 L 84 406 L 85 406 L 85 403 Z M 94 404 Q 92 407 95 406 L 94 404 Z M 82 406 L 83 409 L 84 407 L 82 406 Z M 90 406 L 87 413 L 88 415 L 89 415 Q 88 412 91 413 L 90 406 Z M 96 406 L 94 409 L 96 408 L 96 406 Z M 96 408 Q 97 411 95 410 L 92 414 L 89 415 L 89 417 L 88 416 L 87 416 Q 88 420 86 419 L 86 418 Q 83 415 84 410 L 83 416 Q 86 417 82 419 L 83 421 L 84 419 L 88 421 L 88 420 L 93 415 L 95 415 L 98 409 L 96 408 Z M 103 415 L 99 417 L 96 422 L 99 428 L 97 432 L 100 435 L 102 441 L 100 454 L 97 453 L 99 445 L 99 439 L 96 443 L 93 442 L 97 437 L 94 431 L 91 430 L 92 428 Q 93 424 89 426 L 89 424 Q 83 423 81 426 L 81 428 L 78 432 L 79 436 L 87 440 L 93 450 L 91 459 Q 90 464 93 466 Q 96 460 106 459 L 110 455 L 113 449 L 107 437 L 106 437 Q 108 442 104 441 L 104 438 L 100 432 L 103 431 L 104 434 L 106 435 L 105 432 L 105 424 L 107 417 L 106 417 L 103 415 Z M 8 416 Q 7 419 10 418 Q 11 415 8 416 Z M 210 416 L 209 421 L 210 421 L 210 416 Z M 9 421 L 8 425 L 9 425 L 9 421 Z M 206 421 Q 205 424 208 423 Q 209 420 206 421 Z M 11 425 L 8 426 L 8 442 L 12 442 L 11 439 L 12 436 L 9 437 Q 8 434 11 435 L 11 433 L 13 433 L 12 438 L 14 438 L 15 436 L 14 429 L 12 428 L 10 429 L 11 427 L 11 425 Z M 210 426 L 209 432 L 210 432 L 210 426 Z M 96 428 L 94 430 L 96 430 L 96 428 Z M 210 433 L 209 446 L 210 446 L 210 433 Z M 75 438 L 71 441 L 66 447 L 66 449 L 71 447 L 73 448 L 76 454 Q 77 456 74 455 L 72 451 L 70 450 L 68 451 Q 66 449 65 452 Q 64 457 67 458 L 66 464 L 67 464 Q 66 460 70 462 L 72 468 Q 73 472 71 473 L 69 468 L 67 467 L 68 473 L 66 474 L 65 469 L 62 471 L 60 469 L 64 465 L 63 464 L 64 459 L 62 454 L 59 459 L 54 462 L 58 462 L 58 465 L 57 467 Q 56 469 59 468 L 59 472 Q 55 470 56 464 L 54 467 L 55 469 L 55 470 L 54 469 L 51 467 L 51 469 L 48 468 L 47 470 L 46 469 L 44 470 L 48 465 L 49 468 Q 51 467 49 466 Q 48 460 52 459 L 54 459 Q 53 456 56 457 L 57 455 L 55 456 L 53 452 L 56 453 L 58 453 L 52 449 L 51 453 L 49 454 L 48 452 L 46 452 L 49 450 L 49 452 Q 51 453 50 451 L 52 448 L 45 449 L 44 452 L 41 452 Q 42 449 39 450 L 37 455 Q 36 458 39 457 L 40 460 L 37 466 L 38 473 L 41 474 L 45 481 L 54 480 Q 53 484 57 485 L 57 484 L 56 481 L 56 477 Q 52 477 54 471 L 57 471 Q 56 474 59 473 L 57 479 L 58 480 L 60 479 L 62 482 Q 59 481 60 484 L 63 483 L 66 490 Q 64 491 67 492 L 69 488 Q 68 485 71 486 Q 75 484 72 482 L 71 484 L 69 485 Q 68 480 71 479 L 73 483 L 78 482 L 80 479 L 79 476 L 76 481 Q 72 479 76 478 Q 75 475 78 476 L 82 466 L 82 469 L 82 470 L 84 470 L 83 465 L 81 461 L 83 457 L 84 457 L 83 459 L 85 462 L 86 459 L 87 461 L 91 452 L 87 444 L 82 440 Q 80 436 79 439 L 75 438 Z M 21 443 L 18 447 L 21 448 L 20 447 Q 19 444 22 445 L 23 446 Q 24 442 21 443 Z M 206 444 Q 205 447 208 446 Q 209 443 206 444 Z M 8 446 L 9 448 L 11 447 L 8 446 Z M 25 446 L 23 449 L 21 449 L 22 453 L 24 454 L 27 451 Q 29 450 28 453 L 25 454 L 23 457 L 25 459 Q 22 458 23 461 L 24 462 L 18 458 Q 15 461 16 469 L 22 472 L 26 470 L 29 464 L 29 459 L 28 461 L 28 463 L 26 463 L 25 466 L 26 468 L 24 469 Q 23 462 26 463 L 25 462 Q 24 459 27 460 L 26 458 Q 25 452 29 454 L 29 449 L 25 446 Z M 16 447 L 17 452 L 16 454 L 17 460 L 19 454 L 19 456 L 21 457 L 20 454 L 21 452 L 19 448 L 18 450 L 17 450 L 18 448 L 16 447 Z M 209 447 L 209 449 L 209 464 L 210 464 L 210 448 L 209 447 Z M 208 449 L 206 452 L 207 455 L 208 453 L 208 449 Z M 62 450 L 61 453 L 62 453 L 62 450 Z M 171 450 L 166 453 Q 167 455 164 454 L 163 457 L 164 463 L 160 464 L 159 467 Q 153 468 152 464 L 146 467 L 154 479 L 157 472 Q 156 469 159 470 Q 160 475 157 477 L 158 482 L 162 484 L 164 487 L 165 485 L 164 482 L 165 479 L 164 477 L 171 472 L 170 469 L 172 464 L 172 458 L 174 451 L 173 451 L 171 450 Z M 15 453 L 13 460 L 15 461 L 14 459 L 15 457 L 15 453 Z M 161 454 L 159 457 L 161 456 L 161 454 Z M 10 455 L 7 459 L 8 469 L 12 468 L 14 469 Q 16 468 14 467 Q 15 460 13 461 L 9 462 L 10 460 L 10 455 Z M 29 455 L 28 457 L 30 458 L 29 455 Z M 236 456 L 232 459 Q 230 462 229 460 L 226 462 Q 227 464 232 463 L 231 462 L 234 463 L 236 462 L 240 465 L 243 464 L 248 466 L 250 465 L 252 465 L 259 468 L 261 468 L 262 468 L 262 464 L 256 464 L 255 465 L 255 464 Q 245 463 241 456 L 236 456 Z M 21 457 Q 20 460 23 459 Q 24 456 21 457 Z M 156 457 L 155 460 L 156 460 L 156 457 Z M 206 457 Q 204 461 208 460 L 208 458 L 206 457 Z M 157 460 L 156 464 L 157 464 L 157 460 Z M 329 461 Q 325 466 318 468 L 318 466 L 315 467 L 305 467 L 304 469 L 308 468 L 318 471 L 323 469 Q 327 472 334 471 L 335 465 L 329 461 Z M 52 462 L 52 464 L 54 463 L 52 462 Z M 117 462 L 105 467 Q 94 474 91 489 L 92 500 L 98 512 L 110 520 L 117 522 Q 131 523 138 517 Q 129 512 123 504 L 113 509 L 110 512 L 106 511 L 110 496 L 100 487 L 102 485 L 115 485 L 122 471 Q 121 467 125 468 L 127 473 L 129 484 L 135 486 L 138 485 L 147 485 L 147 487 L 133 497 L 139 513 L 138 516 L 140 516 L 144 511 Q 143 508 146 509 Q 150 505 151 499 L 151 485 L 144 472 L 132 463 L 117 462 Z M 222 462 L 219 464 L 221 464 L 224 465 L 227 464 L 226 462 L 224 463 L 222 462 Z M 210 465 L 209 481 L 208 481 L 208 482 Q 211 481 209 487 L 210 487 L 210 465 Z M 231 466 Q 228 469 222 468 L 222 470 L 220 468 L 217 469 L 215 468 Q 211 470 215 472 L 214 477 L 215 478 Q 212 479 213 477 L 212 477 L 213 482 L 212 484 L 215 483 Q 221 482 223 486 Q 222 488 225 487 L 227 487 L 236 489 Q 238 488 238 483 L 241 484 L 240 483 Q 241 476 246 474 Q 248 475 247 472 L 251 473 L 253 473 L 257 475 L 258 473 L 259 476 L 257 476 L 261 480 L 264 480 L 263 474 L 262 476 L 261 476 L 262 472 L 261 472 L 253 470 L 251 470 Q 249 467 244 468 L 242 469 Q 243 466 241 467 L 241 469 L 235 466 L 231 466 Z M 295 466 L 296 470 L 296 468 L 297 468 Q 296 471 300 470 L 302 470 L 302 468 Q 300 465 295 466 Z M 213 471 L 212 475 L 213 475 L 213 471 Z M 309 471 L 299 473 L 298 476 L 301 477 L 304 481 L 307 480 L 309 480 L 313 477 Q 317 476 319 479 L 324 479 L 326 479 L 334 479 L 334 474 L 332 475 L 331 474 L 314 474 L 309 471 Z M 11 472 Q 12 475 8 474 L 8 476 L 8 484 L 7 485 Q 10 486 8 492 L 8 494 L 7 499 L 7 501 L 8 506 L 8 520 L 7 521 L 10 522 L 14 515 L 22 509 L 34 505 L 41 505 L 41 502 L 43 502 L 44 498 Q 45 495 49 496 L 50 493 L 49 487 Q 48 483 42 484 L 40 481 Q 41 477 39 478 L 35 473 L 31 474 Q 33 476 32 482 L 26 486 L 22 484 L 23 480 L 18 476 Q 15 477 16 474 Q 15 471 11 472 Z M 124 473 L 119 484 L 120 485 L 126 485 L 124 473 Z M 84 475 L 84 476 L 87 476 L 84 475 Z M 168 477 L 167 479 L 169 480 L 168 477 Z M 171 477 L 170 480 L 171 480 L 171 477 Z M 250 477 L 251 478 L 252 482 L 252 483 L 255 482 L 254 481 Q 256 475 250 477 Z M 155 479 L 154 482 L 155 482 L 155 479 Z M 248 479 Q 246 482 249 481 L 248 479 Z M 296 479 L 295 485 L 298 483 L 297 485 Q 298 487 295 486 L 297 490 L 299 486 Q 300 481 297 482 L 296 479 Z M 59 480 Q 57 483 60 482 L 59 480 Z M 197 480 L 193 483 L 191 483 L 182 485 L 178 489 L 181 490 L 180 489 L 184 487 L 183 489 L 185 489 L 187 486 L 189 487 L 187 487 L 188 490 L 189 488 L 189 490 L 191 491 L 190 489 L 194 487 L 195 490 L 192 491 L 195 492 L 200 485 L 199 483 Q 200 479 197 480 Z M 314 480 L 313 482 L 309 483 L 303 483 L 303 486 L 305 485 L 305 487 L 306 488 L 302 487 L 303 491 L 302 494 L 301 491 Q 298 490 299 495 L 302 496 L 301 499 L 302 501 L 300 499 L 298 501 L 300 510 L 300 508 L 309 504 L 311 504 Q 314 505 312 500 L 323 491 L 330 492 L 334 495 L 334 482 L 318 482 L 314 480 Z M 86 482 L 86 483 L 89 483 L 86 482 Z M 156 482 L 156 486 L 156 497 L 152 508 L 154 507 Q 158 506 159 509 L 162 506 L 167 505 Q 170 500 169 492 L 167 490 L 165 490 L 166 493 Q 167 499 164 500 Q 161 499 163 498 L 162 490 L 156 482 Z M 170 482 L 169 485 L 170 485 L 170 482 Z M 173 483 L 170 487 L 173 488 L 174 490 Q 176 489 174 488 L 175 485 L 173 486 L 173 485 L 173 483 Z M 245 483 Q 242 487 246 486 L 245 483 Z M 260 483 L 261 486 L 260 485 L 259 487 L 260 488 L 258 486 L 257 486 L 259 489 Q 262 488 260 492 L 255 495 L 253 491 Q 251 494 247 493 L 248 496 L 247 500 L 249 499 Q 254 498 256 500 L 258 499 L 260 496 L 262 495 L 259 499 Q 258 501 261 500 Q 263 500 263 505 L 263 507 L 266 510 L 271 509 L 273 511 L 267 501 Q 268 498 265 499 L 265 498 L 261 491 L 263 485 Q 264 481 260 483 Z M 60 484 L 59 487 L 61 487 L 60 484 Z M 63 484 L 62 488 L 65 490 L 63 484 Z M 81 484 L 79 487 L 77 488 Q 74 487 75 490 L 75 492 Q 76 494 72 493 L 74 499 L 74 498 L 77 497 L 76 495 L 77 493 L 76 491 L 79 489 L 78 497 L 76 499 L 80 500 L 82 497 Q 84 496 83 499 L 81 500 L 84 500 Q 85 496 87 499 L 87 494 L 87 492 L 84 489 Q 85 484 81 486 L 81 484 Z M 168 485 Q 166 488 169 487 L 168 485 Z M 177 486 L 177 489 Q 180 488 177 486 Z M 251 486 L 251 488 L 253 487 L 251 486 Z M 124 487 L 117 488 L 116 494 L 115 495 L 121 500 L 129 495 L 128 490 Q 127 486 124 487 Z M 62 488 Q 60 493 63 493 L 65 493 L 65 492 L 62 490 L 62 488 Z M 72 488 L 73 491 L 74 489 L 72 488 Z M 108 488 Q 108 492 113 492 Q 115 486 108 488 Z M 133 488 L 131 490 L 133 493 L 138 490 L 139 488 L 137 489 L 135 488 L 133 488 Z M 202 488 Q 199 490 200 497 L 198 498 L 195 502 L 195 506 L 192 512 L 193 513 L 197 510 L 198 508 Q 200 503 202 506 L 202 503 L 202 501 Q 201 496 203 495 L 202 488 Z M 247 488 L 247 490 L 249 489 L 247 488 Z M 255 488 L 255 490 L 257 489 L 255 488 Z M 214 489 L 212 491 L 213 499 L 216 497 L 219 498 L 221 497 L 221 495 L 216 495 L 215 493 L 220 490 L 216 489 L 214 489 Z M 207 490 Q 206 493 209 492 Q 210 489 207 490 Z M 224 490 L 225 493 L 223 499 L 225 503 L 225 500 L 231 495 Q 237 495 240 499 L 245 498 Q 242 497 243 493 L 242 493 L 241 490 L 240 491 L 230 491 L 229 490 L 226 492 Q 227 489 224 490 Z M 255 490 L 256 493 L 257 491 L 255 490 Z M 290 490 L 290 492 L 292 491 L 290 490 Z M 271 491 L 271 493 L 273 492 L 271 491 Z M 68 492 L 66 494 L 67 496 Q 66 499 69 498 L 68 492 Z M 277 492 Q 276 494 279 493 L 280 494 Q 281 490 277 492 Z M 285 492 L 286 493 L 288 495 Q 289 490 285 492 Z M 293 492 L 293 494 L 295 495 Q 296 491 293 492 Z M 174 493 L 171 500 L 172 503 Q 175 504 174 501 L 176 502 L 171 511 L 172 513 L 173 511 Q 172 508 175 509 L 172 514 L 174 514 L 177 513 Q 176 509 179 510 Q 181 509 179 508 L 181 505 L 178 505 L 176 504 L 177 501 L 174 499 L 177 498 L 178 500 L 180 496 L 179 496 L 177 496 L 180 494 L 178 493 L 175 495 Q 176 492 174 493 Z M 182 493 Q 181 496 184 495 Q 185 492 182 493 Z M 271 493 L 268 497 L 271 495 L 271 493 Z M 292 493 L 290 496 L 291 497 Q 295 495 292 493 Z M 187 494 L 186 498 L 188 498 L 190 498 L 191 496 L 187 494 Z M 209 494 L 207 496 L 208 498 L 207 500 L 209 500 L 210 495 L 209 494 Z M 285 494 L 284 496 L 284 497 L 287 496 L 285 494 Z M 193 495 L 191 499 L 192 501 L 195 497 Q 196 494 193 495 Z M 280 495 L 279 498 L 280 498 L 280 495 Z M 324 495 L 320 497 Q 314 499 315 507 L 311 508 L 309 507 L 305 510 Q 307 511 306 516 L 304 517 L 301 518 L 306 528 L 310 518 L 316 514 L 322 516 L 326 514 L 332 519 Q 331 521 334 520 L 335 521 L 335 514 L 331 508 L 332 499 Q 330 494 324 495 Z M 182 496 L 180 500 L 182 499 L 182 496 Z M 292 496 L 292 498 L 294 497 L 292 496 Z M 272 497 Q 270 500 273 499 L 272 497 Z M 115 498 L 112 505 L 117 503 L 118 502 L 115 498 Z M 231 498 L 229 501 Q 235 499 233 505 L 228 508 L 230 512 L 231 510 L 237 506 L 243 509 Q 245 508 244 503 L 245 501 L 242 502 L 234 498 L 231 498 Z M 51 499 L 49 501 L 50 503 L 47 502 L 43 505 L 53 507 L 53 505 Q 55 504 54 508 L 59 510 L 67 520 L 71 522 L 69 522 L 70 525 L 74 526 Q 76 527 75 525 L 75 523 L 76 526 L 79 528 L 77 524 L 80 525 L 78 520 Q 80 518 78 517 L 77 521 L 75 522 L 74 520 L 76 520 L 74 514 Q 71 515 73 517 L 72 516 L 70 517 L 68 517 L 67 515 L 69 514 L 68 513 L 72 515 L 73 514 L 71 510 L 68 511 L 67 509 L 70 508 L 71 509 Q 72 504 70 505 L 66 501 L 64 503 L 60 502 L 58 503 Q 59 500 56 501 L 59 507 L 59 509 L 57 508 L 58 506 Q 56 501 55 504 L 52 503 L 56 501 L 51 499 Z M 88 499 L 87 501 L 85 502 Q 88 502 87 507 Q 86 509 85 507 L 84 510 L 82 511 L 78 510 L 77 513 L 80 514 L 84 511 L 82 514 Q 81 516 84 515 L 86 512 L 86 515 L 87 516 L 85 515 L 83 518 L 86 519 L 85 518 L 88 517 L 89 520 L 91 516 L 90 516 L 90 515 L 89 513 Q 90 510 88 511 L 88 508 L 90 509 L 93 518 L 94 516 L 94 514 L 95 517 Q 91 518 94 520 L 92 523 L 94 525 L 98 523 Q 100 522 98 521 L 100 520 Q 99 517 98 519 L 98 518 L 97 516 L 94 512 L 93 513 L 93 512 Q 88 507 88 499 Z M 130 499 L 128 500 L 125 504 Q 129 509 135 510 L 131 501 Q 132 498 130 499 Z M 186 499 L 186 501 L 188 502 L 186 505 L 185 505 L 186 502 L 184 501 L 183 504 Q 181 508 185 507 L 187 507 L 190 501 L 186 499 Z M 217 500 L 213 501 L 213 512 L 212 513 L 213 517 L 211 527 L 211 529 L 212 534 L 219 523 Q 225 517 236 514 L 238 515 L 239 514 L 249 514 L 251 514 L 265 521 Q 275 529 277 546 L 278 542 L 277 537 L 278 532 L 271 522 L 270 513 L 263 512 L 259 508 L 260 505 Q 259 502 255 503 L 253 503 L 250 502 Q 246 503 247 509 L 244 512 L 236 509 L 234 512 L 231 514 Q 228 515 229 513 L 227 514 L 226 513 L 224 514 L 219 509 L 221 503 Q 221 500 217 500 Z M 182 501 L 181 504 L 182 504 L 182 501 Z M 276 501 L 277 503 Q 278 500 276 501 Z M 73 502 Q 71 505 74 504 L 73 502 Z M 209 502 L 207 504 Q 206 506 209 505 L 209 502 Z M 295 502 L 293 504 L 295 504 L 295 502 Z M 76 503 L 78 507 L 81 506 Q 80 502 76 503 Z M 280 503 L 280 507 L 281 507 Q 280 504 283 505 L 284 508 L 284 509 L 285 509 L 285 504 L 280 503 Z M 82 504 L 81 507 L 84 507 Q 85 503 82 504 Z M 224 506 L 221 508 L 225 510 L 224 506 Z M 293 506 L 291 508 L 293 509 L 293 506 Z M 202 507 L 201 509 L 196 513 Q 193 514 194 521 Q 195 523 197 521 L 200 523 Q 199 518 202 516 L 202 507 Z M 208 507 L 208 510 L 208 512 L 207 515 L 209 514 Q 210 506 208 507 Z M 184 508 L 185 513 L 181 521 L 180 519 L 179 523 L 181 522 Q 183 523 182 521 Q 185 519 183 518 L 186 516 L 185 519 L 187 520 Q 188 515 186 514 L 187 511 L 186 511 L 186 510 L 184 508 Z M 32 509 L 22 514 L 17 519 Q 18 521 15 520 L 10 532 L 10 546 L 17 559 L 25 564 L 34 567 L 36 569 Q 39 566 47 567 L 57 562 L 66 551 L 68 545 L 68 531 L 62 518 L 56 513 L 47 509 L 32 509 Z M 164 509 L 161 512 L 162 513 L 165 511 Q 166 508 164 509 Z M 302 509 L 300 513 L 302 512 L 302 515 L 303 515 L 302 509 Z M 151 510 L 151 513 L 153 512 L 154 512 L 147 521 L 151 518 L 150 520 L 154 521 L 154 519 L 158 517 L 156 516 L 155 513 Q 156 509 153 510 L 151 510 Z M 181 510 L 183 514 Q 185 513 183 512 Q 184 509 181 510 Z M 284 510 L 284 514 L 285 514 Q 286 509 284 510 Z M 274 511 L 273 514 L 274 514 L 274 511 Z M 290 511 L 288 513 L 290 513 L 290 511 Z M 294 511 L 292 514 L 294 514 L 294 511 Z M 297 512 L 296 515 L 297 515 L 297 512 Z M 170 513 L 171 517 L 170 516 L 169 518 L 173 517 L 172 515 L 170 513 Z M 149 514 L 146 518 L 148 518 L 149 516 L 149 514 Z M 161 514 L 159 517 L 162 519 L 161 514 Z M 280 514 Q 277 518 281 517 L 282 518 L 280 514 Z M 291 515 L 290 522 L 291 522 L 291 515 Z M 294 515 Q 293 518 296 517 Q 297 514 294 515 Z M 168 516 L 165 522 L 167 522 L 168 520 L 168 516 Z M 179 516 L 175 524 L 173 525 L 175 525 L 173 530 L 174 531 L 176 529 L 179 518 L 179 516 Z M 284 516 Q 283 519 286 518 Q 287 515 284 516 Z M 289 516 L 286 522 L 288 522 L 289 523 L 288 521 L 289 519 L 289 516 Z M 298 516 L 297 522 L 299 522 L 298 516 Z M 175 517 L 172 522 L 168 525 L 170 522 L 166 525 L 168 529 L 168 528 L 171 526 L 172 527 L 172 523 Q 175 524 174 522 L 175 519 L 175 517 Z M 206 517 L 204 519 Q 205 528 202 534 Q 201 536 204 535 L 206 529 L 206 532 L 206 534 L 205 536 Q 204 538 207 537 L 207 528 L 205 527 Q 204 523 207 524 L 208 526 L 209 522 L 208 522 L 206 517 Z M 207 517 Q 206 520 209 519 L 210 521 L 210 519 L 207 517 Z M 240 517 L 235 518 L 223 525 Q 215 531 213 544 L 215 558 L 218 564 L 230 573 L 243 576 L 253 574 L 264 567 L 270 558 L 272 551 Q 273 536 266 529 Q 261 521 252 518 L 240 517 Z M 275 517 L 274 521 L 275 521 L 275 517 Z M 316 517 L 315 518 Q 312 517 313 520 Q 317 519 318 523 L 315 525 L 312 523 Q 309 522 310 525 Q 307 526 311 528 L 310 529 Q 307 528 308 531 L 311 532 Q 314 531 313 534 L 321 539 L 322 535 L 327 531 L 335 531 L 335 524 L 331 521 L 328 517 L 324 518 L 325 520 Q 328 521 324 523 Q 320 524 319 522 Q 321 515 316 517 Z M 91 518 Q 88 520 89 525 Q 87 528 85 523 L 83 525 Q 79 524 80 527 L 83 526 L 87 527 L 92 526 L 90 525 L 92 521 L 91 518 Z M 145 518 L 144 520 L 146 519 L 145 518 Z M 284 518 L 283 521 L 284 521 L 284 518 Z M 295 518 L 294 521 L 296 521 Q 297 517 295 518 Z M 80 519 Q 78 523 82 524 L 84 523 L 81 522 L 80 519 Z M 100 520 Q 99 523 102 522 Q 103 519 100 520 Z M 185 520 L 177 527 L 178 529 L 181 525 L 180 527 L 181 529 L 180 528 L 178 532 L 179 536 Q 180 530 184 528 L 184 525 Q 182 523 185 522 L 185 520 Z M 191 521 L 190 532 L 193 535 L 198 532 L 199 533 Q 201 526 196 528 L 196 529 Q 198 528 197 531 Q 190 534 192 526 L 195 525 L 197 526 L 197 525 L 191 521 Z M 86 522 L 88 525 L 88 524 L 86 522 Z M 286 522 L 284 524 L 286 524 L 286 522 Z M 294 522 L 294 524 Q 293 527 296 526 L 297 523 L 296 523 L 294 522 Z M 300 522 Q 300 526 298 525 L 298 527 L 297 526 L 296 528 Q 297 530 299 528 L 301 529 L 301 528 L 301 526 L 300 522 Z M 141 523 L 139 526 L 143 525 Q 144 522 141 523 Z M 149 523 L 149 525 L 151 524 L 149 523 Z M 151 524 L 152 527 L 153 525 L 151 524 Z M 155 524 L 156 526 L 158 525 L 155 524 Z M 292 524 L 290 526 L 292 530 L 293 530 Q 294 525 292 524 Z M 103 525 L 103 526 L 105 526 L 103 525 Z M 187 525 L 185 527 L 186 530 L 187 527 L 187 525 Z M 285 525 L 282 528 L 285 528 L 285 525 Z M 109 527 L 107 529 L 109 530 L 109 527 Z M 128 527 L 125 528 L 121 534 Q 120 537 123 536 Q 125 537 124 541 L 132 545 Q 134 544 133 548 L 136 550 L 135 550 L 132 549 L 133 552 L 137 553 L 140 549 L 141 549 L 140 551 L 141 553 L 145 551 L 145 553 L 148 552 L 150 553 Q 153 555 149 557 L 151 560 L 150 559 Q 147 558 148 561 L 152 562 L 155 557 L 160 554 L 159 553 L 157 553 L 156 548 L 158 549 L 157 551 L 164 554 L 166 554 L 165 553 L 162 550 L 158 546 L 155 547 Q 151 546 152 549 L 154 549 L 153 552 L 154 554 L 153 559 L 151 558 L 152 550 L 150 548 L 150 550 Q 147 551 148 549 L 149 547 Q 145 546 146 549 L 143 547 L 144 545 Q 141 543 142 537 L 142 535 L 142 531 L 141 534 L 139 531 Q 138 528 137 530 L 136 528 L 129 528 L 128 527 Z M 150 527 L 147 532 L 147 531 L 145 530 L 145 534 L 147 534 L 151 528 L 150 527 Z M 161 527 L 158 530 L 159 531 L 164 530 L 164 528 L 161 529 L 161 527 Z M 105 528 L 103 532 L 106 531 Q 108 532 107 529 L 105 528 Z M 111 528 L 110 531 L 113 532 L 112 536 L 114 536 L 113 529 L 111 528 Z M 282 528 L 280 530 L 282 537 L 284 537 L 282 528 Z M 156 529 L 154 531 L 156 531 L 156 529 Z M 169 529 L 169 531 Q 167 535 171 534 L 172 532 L 170 532 Q 171 528 169 529 Z M 300 529 L 297 532 L 298 534 L 300 531 L 300 529 Z M 84 530 L 79 531 L 74 534 L 72 534 L 73 537 L 73 543 L 71 551 L 61 566 L 61 571 L 66 577 Q 67 573 73 573 L 80 566 Q 78 557 83 556 L 82 555 Q 78 556 79 561 L 76 560 L 77 557 Q 81 551 89 550 L 89 548 L 85 549 L 82 545 L 79 546 L 78 543 L 84 539 Q 87 540 86 545 Q 92 545 95 541 Q 96 535 93 534 Q 90 530 84 530 Z M 182 530 Q 181 534 184 533 L 185 531 L 182 530 Z M 285 530 L 284 532 L 286 533 L 285 530 Z M 165 531 L 164 536 L 160 535 L 157 542 L 159 542 L 162 537 L 162 540 Q 167 541 169 538 L 168 535 L 167 538 L 166 537 L 165 539 L 163 538 L 165 537 L 167 533 Q 168 530 165 531 Z M 176 531 L 175 534 L 177 534 L 176 531 Z M 288 531 L 286 535 L 288 535 L 288 531 Z M 294 531 L 295 534 L 296 532 L 294 531 Z M 301 531 L 299 535 L 302 536 L 305 534 L 303 537 Q 302 539 305 538 L 306 540 L 307 538 L 306 536 L 307 532 L 305 531 L 302 533 L 301 531 Z M 101 532 L 101 534 L 103 533 L 101 532 Z M 159 532 L 157 534 L 159 534 L 159 532 Z M 180 533 L 180 536 L 182 535 Q 183 532 180 533 Z M 187 533 L 188 535 Q 189 532 187 533 Z M 328 533 L 324 537 L 324 540 Q 327 539 326 542 L 330 543 L 331 541 L 331 544 L 334 543 L 335 543 L 335 533 L 332 534 L 333 538 L 331 539 L 327 538 L 328 535 L 328 533 Z M 186 534 L 183 536 L 186 536 L 186 534 Z M 307 534 L 307 536 L 309 535 L 307 534 Z M 155 535 L 154 537 L 156 538 L 155 535 Z M 175 535 L 173 536 L 171 536 L 170 538 Q 174 539 175 537 L 175 535 Z M 209 535 L 208 538 L 211 539 L 209 535 Z M 289 535 L 290 537 L 291 537 L 289 535 Z M 296 536 L 296 539 L 299 539 Q 297 543 301 542 L 300 541 L 301 537 L 298 538 Q 299 535 296 536 Z M 311 536 Q 309 539 312 540 Q 315 538 311 536 Z M 153 537 L 153 539 L 152 542 L 151 540 L 147 542 L 151 543 L 154 542 Q 156 536 153 537 Z M 292 537 L 289 538 L 290 540 L 292 539 L 291 542 L 292 543 L 293 541 Q 296 539 292 537 Z M 110 538 L 106 540 L 104 543 L 109 544 Q 111 550 114 545 L 112 548 L 113 550 L 116 551 L 116 554 L 115 551 L 113 556 L 114 558 L 113 557 Q 110 558 111 563 L 113 562 L 112 564 L 113 567 L 116 568 L 120 567 L 119 566 L 121 566 L 119 563 Q 120 558 116 560 L 118 554 L 117 551 L 118 546 L 118 544 L 117 542 L 110 538 Z M 145 538 Q 144 541 147 540 Q 148 537 145 538 Z M 283 538 L 283 541 Q 282 544 285 543 L 286 541 L 286 538 L 285 540 L 283 538 Z M 100 539 L 100 541 L 102 540 L 100 539 Z M 156 539 L 155 542 L 156 542 L 156 539 Z M 170 539 L 168 542 L 170 541 L 170 539 Z M 184 539 Q 182 542 176 540 L 164 547 L 166 550 L 170 551 L 178 544 Q 180 545 179 543 L 181 543 L 185 540 L 184 539 Z M 314 539 L 312 546 Q 311 548 314 547 L 316 541 L 319 543 Q 321 544 320 541 L 314 539 Z M 194 540 L 195 542 Q 196 539 194 540 Z M 282 540 L 281 543 L 282 543 L 282 540 Z M 164 541 L 163 543 L 167 542 L 164 541 Z M 207 541 L 204 543 L 207 543 L 207 541 Z M 101 542 L 99 544 L 101 544 L 101 542 Z M 287 542 L 288 544 Q 289 541 287 542 Z M 308 542 L 306 545 L 308 544 L 308 542 Z M 120 543 Q 119 546 123 545 L 123 547 L 126 548 L 126 547 Q 125 542 120 543 Z M 189 543 L 190 544 L 191 545 Q 192 542 189 543 Z M 290 543 L 291 545 L 293 545 L 290 543 Z M 300 544 L 299 546 L 302 546 L 300 544 Z M 316 544 L 316 546 Q 315 549 319 548 L 318 547 L 319 545 L 316 544 Z M 145 545 Q 143 548 146 547 L 145 545 Z M 311 545 L 308 546 Q 307 549 310 548 L 309 551 L 310 552 L 312 549 L 311 545 Z M 327 545 L 328 546 Q 332 547 331 554 Q 329 558 328 555 L 317 557 L 309 554 L 302 554 L 303 561 L 303 562 L 307 559 L 310 559 L 312 562 L 313 569 L 315 570 Q 317 566 324 567 Q 321 566 321 562 L 326 559 Q 328 560 328 564 L 331 564 Q 334 563 331 561 L 329 561 L 329 557 Q 333 556 335 559 L 335 557 L 335 555 L 335 545 L 327 545 Z M 93 546 L 92 550 L 87 554 L 89 555 L 85 557 Q 81 559 83 566 L 81 569 L 65 581 L 69 582 Q 76 583 79 580 L 88 580 L 95 575 L 97 575 L 96 573 L 103 571 Q 105 572 104 569 L 106 569 L 110 557 L 109 554 L 111 554 L 109 549 Q 107 544 100 546 L 99 549 L 100 553 L 99 560 L 95 562 Q 93 564 92 562 L 97 558 L 96 547 L 93 546 Z M 186 546 L 187 548 Q 188 545 186 546 Z M 129 547 L 126 549 L 130 549 L 129 547 Z M 323 547 L 323 550 L 322 549 L 321 551 L 319 552 L 323 553 L 326 552 Q 328 553 327 551 L 326 551 L 323 547 Z M 198 548 L 194 550 L 188 557 Q 186 555 185 558 L 184 557 L 181 554 L 178 560 L 176 561 L 176 560 L 176 556 L 175 558 L 170 561 L 161 562 L 151 568 L 149 569 L 152 567 Q 153 564 151 565 L 149 565 L 146 567 L 143 571 L 142 568 L 139 570 L 128 571 L 127 572 L 121 571 L 121 573 L 119 571 L 116 572 L 112 571 L 110 567 L 106 573 Q 108 576 114 574 L 115 577 Q 116 579 118 577 L 117 579 Q 115 586 120 584 L 119 580 Q 121 581 124 577 L 127 579 L 126 582 Q 124 586 128 585 L 127 584 L 128 579 L 134 577 L 136 578 L 135 581 L 138 585 L 139 581 L 142 580 L 145 581 L 147 585 Q 152 586 154 584 Q 151 583 152 579 L 156 577 L 157 581 L 159 582 L 161 582 Q 160 579 163 580 L 162 577 Q 157 578 159 574 Q 161 569 163 572 L 163 568 L 167 565 L 172 566 L 174 566 L 177 567 L 174 568 L 172 568 L 169 570 L 169 569 Q 170 565 166 567 L 165 580 L 159 584 Q 154 583 155 586 L 152 587 L 143 586 L 142 583 L 139 587 L 133 585 Q 135 579 131 580 Q 132 586 128 588 L 125 587 L 123 590 L 122 590 L 124 585 L 119 587 L 116 586 L 114 586 L 114 578 L 112 579 L 112 578 L 110 576 Q 107 579 108 584 L 105 585 L 107 585 Q 108 588 106 587 L 104 590 L 103 589 L 99 590 L 100 592 L 102 591 L 102 592 Q 99 591 100 594 L 103 593 L 138 593 L 138 591 L 139 591 Q 138 595 143 593 L 145 593 L 147 592 L 148 593 L 158 593 L 161 592 Q 167 590 169 593 L 174 592 L 171 591 L 171 589 L 166 589 L 166 586 Q 170 584 166 582 L 167 580 L 169 583 L 171 582 L 175 583 L 178 582 L 183 573 L 181 573 Q 180 570 183 571 L 184 572 L 188 568 L 189 569 L 190 567 L 190 565 L 191 557 L 191 555 L 194 554 Q 196 555 195 552 L 197 552 L 200 551 L 206 552 Q 213 557 212 570 L 213 566 L 216 567 L 211 558 L 210 548 L 208 549 L 206 549 L 203 550 Q 202 547 198 548 Z M 288 548 L 289 549 Q 292 550 291 554 L 294 553 Q 298 554 297 551 L 288 548 Z M 131 549 Q 129 552 132 551 L 131 549 Z M 278 549 Q 278 552 280 550 L 286 553 L 287 553 Q 284 549 278 549 Z M 302 549 L 303 551 L 304 551 L 302 549 Z M 123 550 Q 120 555 123 557 L 123 558 L 122 557 L 121 557 L 122 561 Q 125 562 124 560 L 125 560 Q 124 562 127 561 Q 125 559 129 557 L 128 559 L 129 562 L 129 561 L 130 561 L 128 566 L 130 566 L 132 562 L 132 558 Q 129 559 130 557 L 132 557 L 133 557 Q 132 554 129 555 L 123 550 Z M 313 550 L 311 552 L 313 552 L 314 553 Q 315 549 313 550 Z M 317 550 L 317 551 L 319 551 L 317 550 Z M 9 551 L 7 553 L 8 555 L 7 558 L 9 561 L 12 559 L 9 551 Z M 86 553 L 83 555 L 86 555 L 86 553 Z M 275 553 L 274 559 L 270 566 L 272 565 Q 274 566 273 563 Q 277 557 284 556 L 275 553 Z M 202 554 L 200 555 L 198 555 L 193 561 L 194 564 L 194 568 L 190 574 L 186 573 L 183 581 L 180 584 L 180 585 L 176 585 L 176 587 L 178 587 L 175 588 Q 174 590 177 589 L 176 592 L 179 593 L 181 592 L 178 590 L 181 586 L 183 588 L 191 590 L 194 589 L 196 589 Q 198 590 197 588 L 198 588 Q 197 591 203 589 L 205 589 L 208 587 L 209 585 L 209 587 L 217 589 L 222 588 Q 226 586 223 585 L 224 583 L 225 585 Q 227 582 226 576 L 220 570 L 209 572 L 207 578 Q 208 581 204 579 L 204 577 L 201 578 L 199 578 L 194 581 Q 187 583 188 579 L 192 578 L 194 578 L 194 576 L 199 575 Q 201 576 200 574 L 202 571 Q 197 572 198 569 L 205 570 L 208 569 L 207 559 L 205 556 L 202 554 Z M 297 555 L 294 556 L 292 563 Q 291 566 289 563 Q 290 560 287 561 L 286 558 L 281 559 L 275 566 L 276 573 L 278 577 L 284 579 L 288 579 L 292 584 Q 297 585 300 583 L 294 582 L 292 579 L 298 578 L 298 577 L 291 577 L 291 574 L 300 573 L 299 571 L 305 567 Q 300 567 299 564 L 299 556 L 297 555 Z M 140 556 L 140 558 L 143 559 L 144 557 L 143 557 L 140 556 Z M 135 557 L 135 558 Q 137 557 136 560 L 135 559 L 130 567 Q 129 569 132 568 L 134 568 Q 137 566 133 565 L 135 564 L 137 561 Q 139 556 135 557 Z M 147 557 L 146 558 Q 143 557 144 561 L 146 560 L 147 563 Q 149 562 147 561 L 148 558 L 147 557 Z M 140 559 Q 137 560 138 564 L 136 565 L 137 567 Q 140 567 139 563 L 142 561 Q 143 558 140 559 Z M 13 562 L 10 564 L 8 566 L 8 577 Q 15 575 17 580 L 17 581 Q 15 578 10 579 L 8 582 L 15 584 Q 17 583 16 586 L 10 585 L 8 585 L 8 589 Q 13 587 12 591 L 9 590 L 7 593 L 26 593 L 28 592 L 31 588 Q 36 582 48 584 L 50 584 Q 52 581 51 576 L 46 577 Q 41 578 42 576 L 44 576 L 45 576 L 42 574 Q 40 577 39 575 Q 38 579 34 578 L 32 578 L 28 576 L 27 578 L 20 576 L 19 574 L 21 569 L 20 566 L 17 563 L 15 563 L 13 562 Z M 308 562 L 305 566 L 309 568 L 310 569 L 308 562 Z M 123 563 L 121 567 L 121 568 L 125 568 L 123 563 Z M 334 563 L 333 565 L 322 570 L 326 572 L 334 569 L 334 563 Z M 126 564 L 125 566 L 129 568 L 126 564 Z M 270 568 L 269 569 Q 265 568 266 571 L 272 570 Q 273 567 270 568 Z M 311 569 L 310 572 L 312 572 L 311 569 Z M 318 571 L 316 573 Q 312 572 313 575 L 315 574 L 317 575 L 319 574 L 319 577 Q 316 576 317 579 L 319 578 Q 321 579 320 577 L 322 576 L 321 578 Q 320 581 325 579 L 326 582 Q 323 586 315 586 Q 319 588 327 587 L 330 586 Q 334 586 334 586 L 334 571 L 327 575 L 324 574 Q 320 575 321 573 L 318 571 Z M 272 572 Q 270 574 266 573 Q 264 577 262 573 L 258 576 Q 254 575 255 578 L 262 578 L 263 579 L 268 578 L 270 578 L 274 576 L 273 574 Q 274 571 272 572 Z M 104 575 L 90 582 L 93 583 L 95 582 L 95 585 L 94 588 L 95 589 L 98 588 L 102 586 Q 105 587 104 584 L 102 585 L 102 584 L 101 582 L 104 577 L 104 575 Z M 229 576 Q 230 583 227 587 L 222 591 L 212 591 L 211 590 Q 207 589 206 592 Q 205 594 209 593 L 211 593 L 213 592 L 239 592 L 229 586 L 230 582 Q 231 579 233 581 L 236 579 L 229 576 Z M 240 579 L 240 582 L 234 583 L 233 585 Q 235 582 242 583 L 243 587 L 242 589 L 248 589 L 253 585 L 256 585 L 247 581 L 245 581 L 243 581 L 245 580 L 240 579 Z M 252 580 L 252 581 L 255 582 L 261 582 L 252 580 Z M 265 580 L 264 582 L 271 581 L 267 580 L 265 580 Z M 280 581 L 280 584 L 281 584 Q 282 580 280 581 Z M 313 581 Q 311 584 305 582 L 305 583 L 322 582 L 322 581 Q 316 580 315 582 L 313 581 Z M 87 582 L 84 587 L 87 588 L 88 583 L 90 583 L 87 582 Z M 274 582 L 272 584 L 273 587 L 277 586 L 276 583 L 274 582 Z M 286 582 L 284 585 L 282 586 L 280 589 Q 278 587 277 590 L 275 589 Q 273 592 267 590 Q 265 588 264 591 L 266 592 L 269 591 L 271 592 L 274 591 L 281 592 L 282 590 L 282 592 L 288 591 L 296 591 L 297 592 L 302 591 L 298 589 L 296 590 L 287 586 L 286 582 Z M 270 583 L 261 585 L 259 584 L 257 585 L 258 588 L 255 587 L 247 591 L 247 592 L 259 592 L 260 591 L 263 592 L 263 591 Q 260 592 261 590 L 265 587 L 269 587 Q 268 584 271 585 Q 272 582 270 583 Z M 63 584 L 63 585 Q 65 584 64 587 L 65 588 Q 62 587 63 590 L 61 590 L 62 585 L 57 587 L 55 590 L 53 588 L 56 587 L 55 586 L 54 585 L 51 588 L 50 587 L 44 588 L 45 590 L 43 589 L 42 591 L 42 593 L 45 593 Q 46 590 48 592 L 49 590 L 51 591 L 48 593 L 50 594 Q 51 590 53 593 L 56 592 L 58 593 L 99 593 L 98 591 L 96 592 L 92 591 L 89 592 L 82 590 Q 80 586 79 589 L 75 585 Q 70 586 69 584 Q 66 583 67 586 L 66 586 Q 67 582 63 584 Z M 237 585 L 237 587 L 240 587 Q 241 584 237 585 Z M 305 585 L 306 587 L 311 586 L 305 585 Z M 36 587 L 33 590 L 34 591 L 37 589 L 34 593 L 39 593 L 40 590 Q 41 587 39 588 L 36 587 Z M 41 587 L 41 589 L 43 588 L 41 587 Z M 313 588 L 313 590 L 311 590 L 306 589 L 305 591 L 334 591 L 334 588 L 328 590 L 327 589 Q 318 590 313 588 Z "></path><path d="M 157.5 14 L 162.5 15 L 163.5 14 L 185 14 Q 186.1 16.7 183.5 16 L 181.5 16 Q 177 15 176 17.5 L 176 27.5 L 178.5 28 L 181 31.5 L 177.5 33 L 172.5 32 L 168.5 33 L 166.5 33 L 158.5 33 L 157.5 32 L 156.5 33 L 138.5 33 Q 137.2 35.2 132.5 34 L 131 31.5 L 132.5 30 L 138.5 29 L 141 30 L 140 25 Q 137.3 26.1 138 23.5 L 133.5 18 Q 126.2 20.3 128 15 L 156.5 15 L 157.5 14 Z M 144 17 L 139 19 L 148 26 L 152 19 L 153 17 L 149 18 L 144 17 Z M 158 17 L 151 29 L 154 28 L 155 29 L 162 29 L 162 17 L 158 17 Z M 166 17 L 166 26 L 167 27 Q 166 30 169 29 L 171 25 L 171 23 L 169 19 Q 170 16 166 17 Z "></path><path d="M 172.5 151 Q 174.8 150.3 174 152.5 L 172 153.5 L 172.5 151 Z "></path><path d="M 170.5 153 L 172 156.5 L 170 155.5 L 170.5 153 Z "></path><path d="M 188.5 156 Q 190.8 155.3 190 157.5 L 188.5 156 Z "></path><path d="M 185.5 157 L 188 158.5 L 185 159 L 185.5 157 Z "></path><path d="M 215.5 158 L 216 159.5 L 214 160.5 L 215.5 158 Z "></path><path d="M 189 159 L 191 159.5 L 189.5 162 L 189 159 Z "></path><path d="M 212.5 161 L 211 163.5 L 210 172.5 L 210.5 174 L 208 173.5 Q 210.8 171.8 210 166.5 L 209 163 L 212.5 161 Z "></path><path d="M 219.5 162 L 220.5 164 Q 217.7 164.7 219.5 162 Z "></path><path d="M 220.5 165 L 221 167 L 219 166.5 L 220.5 165 Z "></path><path d="M 230.5 179 L 229.5 181 L 230.5 179 Z "></path><path d="M 239.5 181 L 240.5 183 L 239.5 181 Z "></path><path d="M 172.5 182 L 174 182.5 L 170.5 185 L 170 183 L 172.5 182 Z "></path><path d="M 178.5 185 L 177.5 187 L 178.5 185 Z "></path><path d="M 212.5 186 L 213 188 L 208.5 190 L 210.5 187 L 212.5 186 Z "></path><path d="M 202 191 Q 204.7 189.9 204 192.5 L 202 193.5 L 202 191 Z "></path><path d="M 58.5 202 L 71 206 Q 71.8 209.8 68.5 211 Q 66.3 211.8 67 209.5 L 68 207.5 L 63.5 205 L 54.5 205 L 54 203 L 58.5 202 Z "></path><path d="M 192 204 L 194 204.5 L 192.5 207 L 192 204 Z "></path><path d="M 185.5 213 L 187 215.5 L 185 214.5 L 185.5 213 Z "></path><path d="M 265.5 215 L 270 218.5 L 271 225 L 268 223.5 L 266 218 Q 263.3 219.1 264 216.5 L 265.5 215 Z "></path><path d="M 279 220 L 283 221.5 L 281.5 224 L 279 220 Z "></path><path d="M 218.5 222 Q 221.1 221.2 220 224.5 L 219 224.5 L 218.5 222 Z "></path><path d="M 8.5 229 L 11 229.5 L 8 231.5 L 8.5 229 Z "></path><path d="M 45.5 231 L 48 232.5 L 51 244 L 53.5 245 L 55.5 244 L 57.5 244 L 67 245 L 65.5 249 L 55 255.5 L 61 271.5 L 58.5 273 L 43.5 263 L 32.5 271 L 28 272 L 35 256.5 L 23 246.5 L 24.5 245 L 37.5 245 L 40 244 L 45.5 231 Z M 46 238 L 43 243 L 46 243 L 47 244 L 46 238 Z M 43 247 L 38 255 L 44 259 L 51 255 L 50 250 Q 48 245 47 248 L 43 247 Z M 30 248 L 30 250 L 36 252 L 38 249 L 30 248 Z M 54 248 L 54 251 L 58 250 Q 59 246 54 248 Z M 52 257 L 47 261 L 54 266 L 56 268 L 53 260 Q 54 256 52 257 Z M 38 258 L 35 265 L 35 266 L 39 264 L 41 260 L 38 258 Z "></path><path d="M 163.5 254 L 167 258.5 L 167 261 Q 164.3 259.9 165 262.5 L 165.5 264 L 162 263 L 161 257.5 L 163 257.5 L 163.5 254 Z "></path><path d="M 224.5 261 Q 227.8 262.8 224 264.5 L 222.5 267 L 220.5 268 L 219 265.5 L 222 264 Q 220.9 261.3 223.5 262 L 224.5 261 Z "></path><path d="M 257.5 265 Q 260.9 264.1 259 269.5 L 258 270.5 L 257 294.5 L 255 304.5 Q 252 312 245.5 316 L 243 314.5 L 244 309.5 L 243 307 Q 239 308.4 241 301.5 L 243.5 297 Q 245.8 297.8 245 301.5 L 244 303.5 Q 247 306 246.5 312 Q 251.4 308.4 253 301.5 L 255 269.5 L 257.5 265 Z "></path><path d="M 222.5 268 L 225 269 L 225 275 L 222 275 L 223 269.5 L 222.5 268 Z "></path><path d="M 82.5 276 Q 84.8 275.3 84 277.5 L 82.5 276 Z "></path><path d="M 88.5 276 Q 90.8 275.3 90 277.5 L 88.5 276 Z "></path><path d="M 223.5 277 L 225 278.5 L 226 284.5 L 224 292.5 L 224 301.5 L 226 311.5 Q 224 315 222 310.5 L 222 288.5 Q 224.2 287.3 223 282.5 L 222 278.5 L 223.5 277 Z "></path><path d="M 18 279 Q 21 278 20 281 Q 17 282 18 279 Z "></path><path d="M 85.5 279 L 86 281.5 L 85 281.5 L 85.5 279 Z "></path><path d="M 21.5 280 L 23 283 Q 19.5 284.1 21.5 280 Z "></path><path d="M 83.5 282 L 85.5 285 L 83.5 282 Z "></path><path d="M 92.5 283 L 91.5 285 L 92.5 283 Z "></path><path d="M 90.5 286 L 92 288.5 L 90.5 292 L 88.5 289 L 87 289.5 Q 88.3 286.8 89.5 289 L 91 288.5 L 90.5 286 Z "></path><path d="M 62.5 288 Q 66 290 61.5 292 L 61 290.5 L 62.5 288 Z "></path><path d="M 89.5 293 L 90 295.5 L 89 295.5 L 89.5 293 Z "></path><path d="M 91.5 293 Q 93.8 292.3 93 294.5 L 91.5 293 Z "></path><path d="M 91.5 296 L 92 297.5 L 90 298.5 L 91.5 296 Z "></path><path d="M 67.5 298 L 68 300.5 L 67.5 302 L 69 302.5 L 69 304.5 L 70 307.5 L 69 307.5 L 66.5 303 L 64.5 303 L 63 302.5 L 64.5 302 L 66 302.5 L 67.5 298 Z "></path><path d="M 88.5 299 L 90 301.5 L 88 300.5 L 88.5 299 Z "></path><path d="M 86.5 304 L 85.5 306 L 86.5 304 Z "></path><path d="M 98.5 325 L 106.5 341 L 109.5 340 L 123 340 Q 124.1 342.7 121.5 342 L 109 350 L 111 357.5 L 114 361.5 L 115 368 L 96.5 358 L 84.5 367 L 81 367 L 82 360.5 L 87 350.5 Q 82.9 345.1 76 342.5 L 76.5 341 L 91.5 341 L 92 338.5 L 98.5 325 Z M 99 332 L 95 341 Q 100 342 102 340 L 99 332 Z M 102 343 Q 100 346 94 344 L 92 346 Q 91 350 95 351 Q 97 350 96 353 L 105 349 L 103 345 Q 104 342 102 343 Z M 107 343 L 109 347 L 114 344 L 107 343 Z M 86 344 L 88 347 L 90 346 Q 89 343 86 344 Z M 89 352 L 86 360 L 94 356 L 89 352 Z M 106 353 L 104 354 L 102 357 L 108 360 L 109 361 L 107 355 Q 108 352 106 353 Z "></path><path d="M 218.5 337 L 221 338.5 Q 222.5 347.5 219.5 352 L 218 350.5 Q 219.7 342.3 217 338.5 L 218.5 337 Z "></path><path d="M 9 342 Q 12.3 340.9 11 345 Q 7.7 346.1 9 342 Z "></path><path d="M 11.5 346 L 12 349.5 L 11 349.5 L 11.5 346 Z "></path><path d="M 56.5 347 L 57 349.5 L 55.5 352 L 54 349.5 L 56 349.5 L 56.5 347 Z "></path><path d="M 61.5 348 L 62 350.5 L 61 350.5 L 61.5 348 Z "></path><path d="M 15 376 Q 18 375 17 378 Q 14 379 15 376 Z "></path><path d="M 72.5 376 L 76 378.5 L 74.5 378 Q 72.3 377.3 73 379.5 L 72 379.5 L 73 377.5 L 72.5 376 Z "></path><path d="M 18.5 378 L 19 380.5 L 18 380.5 L 18.5 378 Z "></path><path d="M 16.5 379 L 17 381 L 15 380.5 L 16.5 379 Z "></path><path d="M 47 391 Q 50.8 390 52 392.5 L 52 396.5 Q 55 399.5 55 405.5 L 57.5 408 L 59.5 407 L 76 407 L 74.5 411 L 59 419.5 L 61 422.5 L 63 432.5 L 60.5 434 L 46.5 425 L 32.5 433 Q 29.8 431.8 32 430.5 L 32 427.5 L 36 418.5 L 24 410.5 L 24.5 409 L 39.5 409 L 43 403.5 L 47 391 Z M 49 396 L 46 406 L 46 408 L 52 408 L 49 396 Z M 66 409 L 65 410 L 58 410 L 58 415 L 70 411 L 71 409 L 68 410 L 66 409 Z M 33 411 Q 33 414 38 415 L 39 413 Q 38 410 33 411 Z M 43 411 L 42 418 L 47 421 L 55 417 L 54 415 L 54 411 L 43 411 Z M 41 420 L 38 425 L 38 426 L 43 424 L 41 420 Z M 55 421 L 54 422 Q 50 421 51 424 L 57 427 L 58 428 L 57 423 L 55 421 Z "></path><path d="M 142 404 L 145 404 Q 144 407 147 406 L 147 408.5 L 149 419 L 163.5 419 L 167 420 L 164.5 424 L 152 431.5 L 156 444.5 Q 154.8 447.3 153.5 445 L 149 443 Q 150.1 440.3 147.5 441 Q 145.7 437.4 140.5 437 L 127.5 445 L 123 445 L 130 428.5 L 120 421.5 L 121.5 419 L 134.5 419 L 136 417.5 L 142 404 Z M 144 407 L 139 418 L 140 419 L 145 419 L 144 407 Z M 128 421 L 127 423 L 132 425 L 133 421 L 130 422 L 128 421 Z M 138 421 L 135 427 L 143 432 L 147 430 L 146 424 L 140 421 L 138 421 Z M 150 421 L 150 423 L 150 425 L 151 427 L 158 424 Q 160 425 159 422 L 158 422 Q 152 423 150 421 Z M 134 430 L 130 438 L 130 439 L 136 437 L 138 435 L 134 430 Z M 149 433 L 146 436 Q 145 438 148 437 L 151 440 L 149 433 Z "></path><path d="M 10.5 407 L 12 410.5 L 9.5 411 L 10 409.5 L 10.5 407 Z "></path><path d="M 9.5 430 L 10 432.5 L 9 432.5 L 9.5 430 Z "></path><path d="M 25 448 Q 28 447 27 450 Q 24 451 25 448 Z "></path><path d="M 82.5 450 L 84 453.5 L 82 452.5 L 82.5 450 Z "></path><path d="M 80.5 456 L 81 457.5 L 78.5 459 L 78.5 458 Q 81 458.7 80.5 456 Z "></path><path d="M 19.5 460 Q 22.5 462 22 467.5 L 21 470 Q 18.3 471.1 19 468.5 L 21 465.5 Q 18 463.7 19.5 460 Z "></path><path d="M 77 460 Q 79.7 458.9 79 461.5 L 77 462.5 L 77 460 Z "></path><path d="M 11.5 463 L 12 466.5 L 10 466.5 L 9.5 468 L 9 466.5 L 11.5 463 Z "></path><path d="M 79.5 464 L 80 467.5 L 78 466.5 L 79.5 464 Z "></path><path d="M 78.5 469 L 79 470.5 L 76.5 472 Q 75.3 469.8 74 472.5 L 76 473.5 L 74 474 L 73.5 476 L 72.5 474 L 74 473.5 L 73 471 L 76.5 470 L 78 470.5 L 78.5 469 Z "></path><path d="M 219.5 472 L 218.5 474 L 219.5 472 Z "></path><path d="M 66.5 475 L 68 475.5 L 66 476.5 L 67 480.5 L 64.5 482 Q 61.8 480.8 64 479.5 Q 63.5 475.5 66.5 475 Z "></path><path d="M 230.5 475 L 232 477.5 Q 231.3 479.8 227.5 479 L 227.5 478 L 231 477.5 L 230.5 475 Z "></path><path d="M 71.5 477 Q 73.8 476.3 73 478.5 L 71.5 477 Z "></path><path d="M 19.5 480 L 20.5 482 L 17.5 484 L 17 481 L 19.5 480 Z "></path><path d="M 218.5 481 L 221 481.5 L 218.5 482 L 218.5 481 Z "></path><path d="M 234.5 483 L 235 486.5 L 234 486.5 L 234.5 483 Z "></path><path d="M 324.5 484 L 323.5 486 L 324.5 484 Z "></path><path d="M 19.5 485 Q 23.3 484 22 487 L 25 487 L 25 490.5 L 23 494.5 L 24 497.5 Q 16.8 503.1 13 511 L 10 509.5 L 16 501 L 19 499.5 L 18.5 498 Q 17.4 500.8 14 500 Q 12.5 496.2 15.5 497 L 20 493.5 L 23 489.5 L 21.5 487 L 21 489 L 15.5 492 L 12 492 L 10 488.5 L 12.5 490 L 13.5 489 L 18 488 L 19.5 485 Z "></path><path d="M 27.5 486 Q 29.4 489.6 34 489 L 32.5 492 L 27 489.5 L 26 487.5 L 27.5 486 Z "></path><path d="M 313.5 487 L 315 487.5 L 312.5 489 L 313.5 487 Z "></path><path d="M 82.5 488 L 82 489.5 L 83.5 492 L 85 492.5 L 83.5 493 L 81 489.5 L 82.5 488 Z "></path><path d="M 80.5 492 L 81 494 L 83 494.5 L 80.5 496 L 80.5 492 Z "></path><path d="M 157 492 L 160 493.5 L 159 502 Q 155.3 503.4 157 497.5 L 158 495.5 L 157 492 Z "></path><path d="M 12.5 494 L 13.5 496 Q 10.7 496.7 12.5 494 Z "></path><path d="M 9.5 497 L 11 499.5 L 9 498.5 L 9.5 497 Z "></path><path d="M 261.5 498 L 264.5 502 L 261.5 498 Z "></path><path d="M 9.5 501 L 12 504.5 L 9 504.5 L 9 502.5 L 9.5 501 Z "></path><path d="M 301.5 503 L 302 505.5 L 301 505.5 L 301.5 503 Z "></path><path d="M 60.5 504 Q 64.3 503.3 65 505.5 L 67 513 L 64.5 512 L 63 512.5 Q 62.7 506.1 60.5 504 Z "></path><path d="M 67.5 505 L 68.5 507 L 67.5 505 Z "></path><path d="M 175.5 505 L 176 507.5 L 175 507.5 L 175.5 505 Z "></path><path d="M 38.5 515 Q 42.9 513.5 42 516.5 L 47.5 526 L 61.5 526 L 64 527 L 60.5 532 L 52 536 L 58 551.5 L 54.5 553 L 40.5 544 L 28.5 553 L 24.5 553 Q 21.7 551.8 24 550.5 L 28 540.5 L 28 535.5 L 19 529.5 L 19.5 527 L 31.5 527 L 38.5 515 Z M 40 520 L 37 526 L 38 527 L 43 527 L 40 520 Z M 25 529 Q 25 532 30 533 Q 32 527 25 529 Z M 56 529 L 49 530 L 50 534 L 57 531 L 56 529 Z M 35 530 L 34 536 L 38 538 Q 40 537 39 540 L 47 536 L 45 532 L 45 530 L 35 530 Z M 32 539 L 30 544 L 31 546 L 35 543 Q 38 544 37 542 L 32 539 Z M 49 539 L 44 543 L 48 545 Q 50 544 49 547 L 52 547 L 49 539 Z "></path><path d="M 71.5 518 L 73 521.5 L 72 521.5 L 71.5 518 Z "></path><path d="M 242.5 524 L 246 525.5 L 251.5 539 L 253.5 539 L 261.5 537 L 266 538 L 264.5 541 L 254 547.5 L 259 563 L 254.5 562 L 242.5 554 L 232.5 559 L 229.5 562 L 224.5 563 L 225 561.5 L 225 558.5 L 228 554.5 L 230 547.5 L 220 540.5 L 220.5 539 L 233.5 539 L 242.5 524 Z M 244 531 L 240 537 L 241 538 L 246 538 L 244 531 Z M 258 540 L 257 541 Q 251 540 253 544 L 259 541 L 258 540 Z M 227 541 L 227 542 L 232 545 L 233 543 Q 233 540 227 541 Z M 239 541 Q 235 543 235 548 L 238 548 L 242 551 Q 247 550 250 547 L 249 543 L 248 541 L 239 541 Z M 251 549 L 246 553 Q 248 556 253 556 L 251 549 Z M 234 550 L 230 558 L 239 554 L 234 550 Z "></path><path d="M 343.5 546 L 345 550.5 L 343 551 L 343.5 546 Z "></path><path d="M 94.5 551 L 95 553 L 91.5 554 L 92.5 552 L 94.5 551 Z "></path><path d="M 124.5 556 Q 126.8 555.3 126 557.5 L 124.5 556 Z "></path><path d="M 186.5 558 L 189 559 L 187.5 563 L 186.5 558 Z "></path><path d="M 114.5 559 L 113.5 561 L 114.5 559 Z "></path><path d="M 114.5 562 L 115.5 564 Q 112.7 564.7 114.5 562 Z "></path><path d="M 173.5 562 L 174 563.5 L 172 564.5 L 173.5 562 Z "></path><path d="M 182.5 563 L 183.5 565 L 181 564.5 L 182.5 563 Z "></path><path d="M 147.5 570 L 149 570.5 L 146.5 572 L 147.5 570 Z "></path><path d="M 143.5 572 L 142.5 574 L 141 573.5 L 143.5 572 Z "></path><path d="M 149.5 572 L 148.5 574 L 149.5 572 Z "></path><path d="M 129.5 573 L 131 573.5 L 128.5 577 L 128 574.5 L 129.5 573 Z "></path><path d="M 211 573 L 214 573 L 214 578.5 L 215.5 579 L 215.5 580 L 211.5 578 L 208.5 580 L 209 578.5 L 211 573 Z "></path><path d="M 215.5 573 L 216 576.5 L 215 576.5 L 215.5 573 Z "></path><path d="M 138.5 574 L 140 574.5 L 136.5 577 L 138.5 574 Z "></path><path d="M 174.5 574 L 174 575.5 L 173.5 578 L 173 575.5 L 174.5 574 Z "></path><path d="M 146 575 Q 149 574 148 577 Q 145 578 146 575 Z "></path><path d="M 121.5 576 L 120.5 578 L 121.5 576 Z "></path><path d="M 191 583 L 194 584.5 Q 192.3 582.9 190.5 586 Q 185.7 587.3 187 584 L 191 585 L 191 583 Z "></path><path d="M 97.5 584 L 96.5 586 L 97.5 584 Z "></path><path d="M 220.5 584 L 221 586 L 219 585.5 L 220.5 584 Z "></path><path d="M 161 585 Q 164 584 163 587 Q 160 588 161 585 Z "></path><path d="M 185.5 585 L 184.5 587 L 185.5 585 Z "></path><path d="M 132.5 586 L 133.5 588 L 132.5 586 Z "></path><path d="M 70 587 L 74 588.5 L 69.5 592 L 70.5 590 Q 72.8 590.8 72 588.5 L 70 588.5 L 70 587 Z "></path><path d="M 46 588 L 48 588.5 L 46 589.5 L 46 588 Z "></path><path d="M 58.5 588 L 60 588.5 L 57 590.5 L 58.5 588 Z "></path><path d="M 68.5 588 L 69 589.5 L 66 591.5 L 68.5 588 Z "></path><path d="M 76.5 589 L 74.5 592 L 76.5 589 Z "></path><path d="M 345.5 590 L 346 593.5 L 345 593.5 L 345.5 590 Z "></path></svg>