<svg width="350" height="600" version="1.1" xmlns="http://www.w3.org/2000/svg" desc="Created with imagetracer.js version 1.2.5"><path d="M 286.5 3 L 324.5 3 L 326.5 4 L 327.5 3 L 337 3 L 337 9.5 L 338 10.5 L 338 27.5 L 337 32.5 L 338 35.5 L 337 36.5 L 337 50.5 L 338 51.5 L 338 63.5 L 337 64.5 L 337 74.5 L 338 75.5 L 338 105.5 L 339 108.5 L 338 110.5 L 339 111.5 L 339 129.5 L 338 132.5 L 339 133.5 L 339 141.5 L 338 143.5 L 339 144.5 L 339 161.5 L 338 162.5 L 338 191.5 Q 340.8 193.3 339 199.5 L 338 200.5 L 338 213.5 Q 340.5 215 339 220.5 L 338 221.5 L 338 247.5 L 339 249.5 L 338 250.5 L 338 270.5 L 339 274.5 Q 336.3 276.3 338 282.5 L 339 287.5 L 338 290.5 L 339 294.5 L 338 296.5 L 339 297.5 L 339 305.5 L 338 306.5 L 338 353.5 L 339 354.5 L 339 366.5 L 339 368.5 L 338 372.5 L 339 373.5 L 339 492.5 L 338 493.5 L 338 529.5 Q 340.3 530.7 339 535.5 L 338 536.5 L 338 574.5 L 338 576.5 L 338 588.5 L 339 589.5 L 336.5 596 L 325.5 597 L 323.5 597 L 307.5 597 L 305.5 596 L 303.5 597 L 301.5 597 L 296.5 596 L 294.5 596 L 254.5 596 L 252.5 595 L 249.5 596 L 248.5 595 L 53.5 595 L 48.5 594 L 45.5 595 L 44.5 594 L 29.5 594 L 27.5 594 Q 22 596.5 12.5 595 L 10.5 595 L 5 594 L 4 591.5 L 4 524.5 L 5 522.5 L 4 519.5 L 4 431.5 L 5 430.5 Q 2.8 429.3 4 424.5 L 4 422.5 L 5 419.5 L 4 417.5 L 5 415.5 L 5 413.5 L 4 408.5 L 5 407.5 L 5 384.5 L 5 382.5 L 4 377.5 L 4 375.5 L 5 368.5 L 4 366.5 L 5 363.5 L 4 361.5 L 5 360.5 L 5 350.5 L 6 349.5 L 5 348.5 L 5 337.5 L 6 335.5 L 6 333.5 L 6 302.5 L 5 301.5 L 4 287.5 Q 6.7 285.8 5 279.5 L 4 277.5 L 5 274.5 L 4 271.5 L 5 269.5 L 4 265.5 L 5 264.5 L 6 242.5 L 5 240.5 L 6 237.5 L 5 233.5 L 6 230.5 L 5 229.5 L 5 217.5 L 4 216.5 L 5 215.5 L 5 206.5 L 4 203.5 L 5 202.5 L 5 174.5 L 6 173.5 L 5 172.5 L 5 156.5 L 4 155.5 L 5 153.5 L 4 148.5 L 4 146.5 L 5 138.5 L 4 135.5 L 4 133.5 L 4.5 99 L 6 99.5 L 5.5 97 L 4 97.5 Q 2.3 91.3 5 89.5 L 4 88.5 L 4 58.5 L 5 55.5 L 4 53.5 L 5 52.5 L 5 42.5 L 4 41.5 L 4 28.5 L 5 27.5 L 5 19.5 L 4 17.5 L 5 16.5 L 5 7.5 L 6.5 6 L 16.5 6 L 17.5 5 L 46.5 5 L 48.5 6 L 49.5 5 L 69.5 5 L 71.5 5 L 111.5 5 L 113.5 6 L 116.5 5 L 118.5 6 Q 120.3 3.2 126.5 5 L 129.5 6 L 132.5 5 L 134.5 5 L 154.5 5 L 156.5 6 L 157.5 5 L 191.5 5 L 196.5 4 L 199.5 5 L 202.5 4 L 204.5 5 L 205.5 4 L 285.5 4 L 286.5 3 Z M 235 6 L 234 7 L 193 7 L 188 8 L 186 8 L 184 7 L 182 8 L 180 8 L 175 7 L 174 8 L 133 8 L 132 9 L 86 9 L 83 8 L 81 8 L 63 8 L 62 9 L 60 8 Q 55 7 54 9 L 49 8 L 33 8 L 32 9 L 28 8 Q 26 10 22 9 L 19 8 L 11 9 L 9 9 L 8 19 L 7 20 L 7 49 L 38 50 L 35 51 L 32 50 L 27 51 L 24 50 L 22 51 L 7 51 L 7 58 L 10 58 L 12 58 Q 18 59 22 57 L 24 57 L 27 58 L 30 57 Q 34 56 36 58 L 38 57 Q 43 56 45 58 L 48 57 L 50 57 L 85 57 L 88 58 L 91 57 L 93 58 L 96 57 L 100 58 L 116 57 L 118 57 L 123 58 L 125 58 L 129 57 L 132 58 L 137 57 Q 140 59 147 58 L 149 58 L 151 57 L 154 58 L 156 57 L 158 57 L 160 58 L 164 57 L 212 57 L 213 56 L 218 57 L 220 57 L 224 56 L 228 57 L 230 56 L 254 56 L 255 57 L 256 56 L 326 56 L 328 56 Q 333 55 335 57 L 334 54 Q 335 48 334 48 L 281 48 L 279 48 L 274 49 L 271 48 L 269 49 L 267 48 L 266 49 L 209 49 L 208 50 L 203 49 L 202 50 L 125 50 L 123 50 L 110 50 L 109 51 L 105 50 L 103 50 L 66 50 L 65 51 L 64 50 L 39 50 L 71 49 L 73 49 L 89 49 L 90 48 L 91 49 L 130 49 L 132 49 L 161 49 L 162 48 L 164 49 L 166 49 Q 171 51 173 48 L 236 48 L 238 48 L 240 47 L 244 48 L 246 47 L 248 48 L 249 47 L 259 47 L 262 48 L 263 47 L 313 47 L 314 46 L 316 47 L 326 46 L 328 46 L 330 47 L 334 47 L 334 33 L 325 32 L 325 40 L 324 41 L 322 40 L 322 31 L 319 30 Q 313 29 312 31 Q 308 30 309 34 L 310 35 Q 305 36 307 31 L 311 29 L 322 29 L 322 27 L 316 27 L 315 26 Q 311 27 312 24 L 315 23 Q 321 25 320 21 L 312 19 Q 309 20 310 16 Q 315 14 323 15 L 322 13 L 325 6 L 246 6 L 245 7 L 235 6 Z M 330 6 L 330 8 L 333 9 L 334 7 L 333 7 L 330 6 Z M 326 10 Q 325 13 328 12 Q 329 9 326 10 Z M 334 12 L 327 15 L 329 15 L 331 15 L 334 16 L 333 20 Q 337 21 335 16 L 334 12 Z M 314 17 L 315 19 L 323 19 L 323 17 L 314 17 Z M 326 17 L 326 19 L 332 19 L 332 17 L 326 17 Z M 326 21 L 327 23 L 333 23 L 333 21 L 326 21 Z M 320 24 Q 319 27 322 26 Q 323 23 320 24 Z M 327 24 L 326 26 L 334 26 L 334 24 L 329 25 L 327 24 Z M 329 27 L 328 28 Q 325 27 326 31 L 333 32 L 334 28 L 329 27 Z M 194 58 L 192 60 L 193 68 L 195 69 Q 196 61 194 58 Z M 271 58 Q 268 59 270 61 L 270 74 L 269 75 L 270 81 L 271 79 Q 269 66 273 60 L 271 58 Z M 291 58 L 291 78 L 292 77 L 292 62 L 293 59 L 291 58 Z M 303 58 L 303 73 L 304 76 L 305 76 L 305 59 L 303 58 Z M 309 58 L 308 77 L 309 77 L 309 58 Z M 314 58 L 312 60 L 312 77 L 314 77 L 314 58 Z M 317 58 L 318 78 L 319 78 L 319 59 L 317 58 Z M 324 58 L 324 79 L 325 77 L 324 76 L 324 58 Z M 30 59 L 29 71 L 31 70 Q 32 62 30 59 Z M 33 59 L 33 72 L 36 70 L 35 65 Q 37 58 33 59 Z M 37 59 L 38 62 L 38 71 L 40 71 L 40 64 L 39 63 Q 40 58 37 59 Z M 43 59 L 42 70 L 43 70 L 43 59 Z M 53 59 L 52 66 L 53 66 L 53 59 Z M 59 59 L 59 84 L 58 85 L 59 87 L 58 90 L 58 99 L 60 100 L 60 61 L 61 60 L 59 59 Z M 62 59 L 63 62 L 63 72 L 62 73 L 62 89 L 64 95 Q 66 93 65 89 L 65 87 L 64 85 L 65 83 L 64 81 L 65 76 L 65 61 L 66 60 L 62 59 Z M 68 59 L 68 61 L 68 71 L 67 72 L 67 93 L 69 94 L 69 80 L 69 78 L 70 60 L 72 61 L 72 71 L 72 73 L 73 94 L 73 93 L 73 91 L 74 90 L 74 62 L 75 61 L 75 59 L 68 59 Z M 77 59 L 77 80 L 77 82 L 76 87 Q 74 92 78 94 L 79 86 L 78 81 L 79 80 L 79 61 L 81 61 Q 83 60 82 65 L 82 67 L 82 76 L 81 77 L 81 93 L 83 94 L 84 89 L 84 61 Q 89 59 87 67 L 87 69 L 87 84 L 86 85 L 86 94 L 89 94 L 89 88 L 90 87 L 90 65 L 90 63 L 91 61 L 91 59 L 77 59 Z M 93 59 L 93 77 L 92 78 L 92 93 L 94 93 L 95 91 Q 93 80 96 75 L 96 73 L 96 60 L 93 59 Z M 98 59 Q 100 60 99 66 L 98 69 L 99 72 L 98 74 L 98 87 L 97 88 Q 96 92 99 93 Q 101 92 100 89 L 100 87 L 101 84 L 100 80 L 101 78 L 100 75 L 101 72 L 100 69 L 101 67 L 100 65 L 101 60 L 98 59 Z M 103 59 L 103 61 L 103 73 L 104 74 L 103 79 L 103 93 L 105 93 L 106 90 L 106 60 L 103 59 Z M 110 59 L 108 66 L 109 70 L 109 72 L 109 86 L 108 87 Q 106 94 110 93 L 111 91 L 110 87 L 111 73 L 111 71 L 111 61 L 110 59 Z M 119 59 L 118 93 L 120 93 L 119 91 L 120 61 L 123 63 L 123 72 L 122 73 L 122 85 L 123 86 L 122 90 L 124 93 L 124 88 L 124 86 L 125 60 L 119 59 Z M 129 59 L 128 73 L 127 74 L 127 84 L 128 85 Q 130 90 127 92 L 128 94 L 128 110 L 127 111 L 128 112 L 129 148 L 129 133 L 130 132 L 130 123 L 129 122 L 130 118 L 129 117 L 129 59 Z M 137 59 L 136 68 L 135 69 L 137 90 L 137 80 L 137 78 Q 136 72 138 71 L 138 61 L 137 59 Z M 162 59 L 160 61 L 162 62 L 162 59 Z M 178 59 Q 177 62 180 61 Q 181 58 178 59 Z M 183 59 Q 181 64 185 63 Q 187 58 183 59 Z M 189 59 L 187 64 L 190 66 L 189 59 Z M 197 59 Q 199 63 198 73 L 200 77 L 201 77 Q 199 71 200 63 L 199 62 Q 200 58 197 59 Z M 202 59 Q 204 64 203 74 L 204 77 Q 205 81 203 83 L 205 88 L 205 101 L 204 102 L 206 102 L 205 69 L 204 68 L 204 60 L 202 59 Z M 207 59 L 207 67 L 208 68 Q 210 73 207 75 L 208 76 L 208 86 L 209 87 L 208 100 L 211 99 L 210 61 L 207 59 Z M 212 59 L 212 75 L 214 84 L 213 89 L 214 94 L 213 96 L 214 98 L 215 97 L 215 88 L 216 87 L 216 73 L 215 70 L 215 60 L 212 59 Z M 218 59 L 218 88 L 217 89 L 218 96 L 218 95 L 218 93 L 220 83 L 219 78 L 219 76 L 220 71 L 219 67 L 220 65 L 219 63 L 220 61 Q 221 58 218 59 Z M 223 59 L 222 86 L 221 87 L 222 96 L 223 92 L 223 70 L 224 69 L 223 59 Z M 226 59 L 226 77 L 225 78 L 226 80 L 225 84 L 226 94 L 227 93 L 228 75 L 229 74 L 228 72 L 228 60 L 226 59 Z M 232 59 L 231 81 L 230 82 L 230 92 L 232 92 L 233 88 L 232 86 Q 231 80 233 79 L 232 77 L 233 75 L 232 59 Z M 235 59 L 235 90 L 237 90 L 237 72 L 238 71 L 238 62 L 237 61 Q 238 58 235 59 Z M 247 59 L 247 66 L 248 67 L 247 71 L 249 82 Q 247 87 251 86 L 252 81 L 251 80 L 251 72 L 249 63 Q 250 58 247 59 Z M 253 59 L 253 75 L 254 75 Q 255 65 253 59 Z M 257 59 L 257 80 L 258 81 L 257 83 L 259 84 L 259 70 L 257 59 Z M 260 59 L 261 65 L 262 81 L 263 74 L 263 72 Q 265 66 262 65 Q 264 58 260 59 Z M 265 59 L 265 67 L 265 69 L 265 82 L 267 82 L 267 80 L 267 60 L 265 59 Z M 275 59 L 275 66 L 274 67 L 274 80 L 276 80 L 277 76 L 276 74 L 277 62 L 278 61 Q 279 58 275 59 Z M 280 59 L 280 68 L 279 69 L 279 79 L 281 79 L 282 74 L 282 61 L 283 60 L 280 59 Z M 285 59 L 285 73 L 284 74 L 285 76 L 284 78 Q 283 81 287 79 L 287 60 L 285 59 Z M 300 59 L 298 77 L 301 78 L 300 74 L 300 59 Z M 333 59 L 332 75 L 333 75 L 333 59 Z M 13 60 L 12 70 L 11 71 L 13 71 L 14 69 Q 16 62 13 60 Z M 17 60 L 17 70 L 18 68 Q 19 62 17 60 Z M 46 60 L 45 63 L 46 63 L 46 60 Z M 115 60 L 114 69 L 113 70 L 113 92 L 115 92 L 115 60 Z M 142 60 L 140 62 L 140 78 L 139 79 L 140 80 L 141 79 L 141 70 L 142 69 L 142 60 Z M 146 60 L 144 62 L 145 73 L 146 71 L 146 60 Z M 150 60 L 148 66 L 149 68 L 150 66 L 150 60 Z M 154 60 L 152 65 L 154 65 L 154 60 Z M 158 60 L 156 62 Q 155 64 158 63 L 158 60 Z M 27 61 L 26 70 L 27 70 L 27 61 Z M 50 61 L 49 66 L 50 66 L 50 61 Z M 133 61 L 132 100 L 131 101 L 132 104 L 131 105 L 131 113 L 131 115 L 131 127 L 132 129 L 132 131 L 131 133 L 132 156 L 132 152 L 133 149 Q 134 144 132 143 L 133 142 L 133 118 L 134 116 L 134 114 L 133 113 L 133 61 Z M 168 62 L 154 67 Q 142 74 139 91 Q 139 105 145 114 L 153 121 L 161 125 L 170 127 Q 184 126 192 119 L 198 112 L 202 103 Q 201 98 203 97 L 202 96 L 202 87 L 200 81 L 194 71 L 183 64 L 175 62 L 168 62 Z M 296 62 L 295 75 L 296 75 L 296 62 Z M 241 63 L 241 89 L 241 88 L 241 86 L 241 77 L 242 76 L 241 63 Z M 245 63 L 244 87 L 246 87 L 246 77 L 246 75 L 245 63 Z M 8 64 L 7 67 L 8 67 L 8 64 Z M 21 64 L 20 68 L 21 68 L 21 64 Z M 329 65 L 328 68 L 329 68 L 329 65 Z M 52 68 L 50 70 Q 49 73 53 71 L 52 68 Z M 329 69 L 328 73 L 329 73 L 329 69 Z M 26 71 L 25 72 L 17 72 L 17 77 L 29 77 L 29 72 L 26 71 Z M 56 73 L 54 75 L 55 77 Q 56 81 54 83 L 55 87 L 55 95 L 54 96 L 55 98 L 56 96 L 56 76 Q 58 74 56 73 Z M 9 75 L 7 79 Q 9 81 14 80 L 15 82 L 15 77 Q 14 74 9 75 Z M 255 76 L 253 78 Q 256 79 254 85 L 255 85 L 255 76 Z M 51 77 L 45 80 L 45 90 L 47 91 L 51 90 L 51 77 Z M 333 77 L 332 80 L 333 80 L 333 77 Z M 34 80 L 33 82 L 35 81 L 34 80 Z M 293 80 L 291 82 L 292 91 L 293 91 L 293 80 Z M 297 80 L 295 82 L 297 90 L 298 83 Q 299 79 297 80 Z M 305 80 L 306 91 Q 308 90 306 89 L 307 86 Q 309 79 305 80 Z M 311 80 L 309 82 L 310 83 L 311 91 L 312 86 Q 313 79 311 80 Z M 316 80 L 316 91 L 318 81 L 316 80 Z M 9 81 L 7 84 L 10 82 L 9 81 Z M 19 81 L 18 84 L 19 84 L 19 81 Z M 283 81 Q 281 85 283 87 Q 281 92 285 91 L 284 85 L 283 81 Z M 288 81 L 286 83 L 287 90 L 289 91 L 288 87 L 289 84 L 288 81 Z M 300 81 L 300 90 L 302 90 L 302 82 L 300 81 Z M 322 81 L 320 86 L 321 92 L 322 91 Q 321 86 323 85 L 322 81 Z M 279 82 L 278 86 L 280 92 L 281 92 L 279 82 Z M 325 82 L 325 93 L 327 93 L 326 91 L 328 85 Q 329 80 325 82 Z M 271 83 L 270 86 L 271 86 L 271 83 Z M 274 83 L 276 92 L 277 92 L 276 87 Q 277 82 274 83 Z M 332 83 L 330 85 L 330 94 L 332 94 Q 331 88 334 85 L 332 83 Z M 13 84 L 15 87 Q 16 83 13 84 Z M 33 84 L 31 90 L 33 89 L 33 84 Z M 267 84 L 267 90 L 268 90 Q 269 85 267 84 Z M 22 85 L 20 87 L 22 87 L 22 85 Z M 263 85 L 262 88 L 263 88 L 263 85 Z M 27 86 L 29 88 Q 30 85 27 86 Z M 259 86 L 260 97 L 262 97 Q 259 94 260 88 L 259 86 Z M 272 86 L 271 91 L 272 91 L 272 86 Z M 255 87 Q 253 93 256 97 L 257 97 L 256 89 L 255 87 Z M 251 88 L 250 92 L 251 92 L 251 88 Z M 264 88 L 264 96 L 265 96 L 264 88 Z M 11 89 L 9 91 L 6 90 L 7 94 L 11 91 L 11 89 Z M 15 89 L 14 91 L 17 90 L 15 89 Z M 247 89 L 246 93 L 248 99 L 250 100 L 247 89 Z M 22 90 L 16 93 L 11 92 L 12 94 Q 16 95 18 93 L 22 94 L 25 101 L 28 99 L 28 95 L 26 98 L 22 90 Z M 26 90 L 25 93 L 27 94 L 26 90 Z M 40 90 L 38 92 L 39 97 Q 38 101 43 99 Q 45 98 44 93 Q 43 89 40 90 Z M 243 90 L 241 92 L 244 99 Q 243 102 246 101 L 244 96 Q 245 89 243 90 Z M 269 91 L 268 94 L 269 94 L 269 91 Z M 136 92 L 135 96 L 136 96 L 136 92 Z M 239 92 L 238 96 L 240 102 L 242 102 L 239 92 Z M 252 92 L 252 97 Q 251 100 254 99 L 252 92 Z M 298 92 L 297 93 L 285 93 L 278 95 L 276 94 Q 274 97 273 95 L 267 99 L 242 104 L 211 116 L 177 136 L 162 147 L 154 155 Q 155 157 152 156 L 152 158 L 137 174 L 132 182 L 131 181 L 126 189 L 125 195 Q 127 198 128 195 Q 127 192 130 193 L 129 199 L 126 198 Q 126 204 131 208 Q 132 212 128 210 L 129 213 L 144 213 L 147 208 L 158 201 L 173 198 L 184 201 Q 188 200 187 203 L 196 208 Q 203 215 206 228 L 215 240 L 218 242 Q 217 244 220 243 L 219 242 L 220 240 L 220 159 L 217 155 L 218 149 L 221 148 L 222 149 L 262 149 L 264 152 L 263 154 Q 264 157 262 156 L 260 158 L 260 166 L 259 167 L 260 170 L 259 173 L 260 176 L 259 177 L 259 224 L 259 226 Q 261 231 258 233 L 258 265 L 262 265 L 264 265 L 271 265 L 279 270 L 280 267 L 287 263 L 294 272 Q 296 271 295 274 L 297 274 L 298 272 L 296 268 L 297 263 L 302 259 L 306 260 L 310 251 L 314 249 L 320 249 L 324 256 L 324 253 L 330 247 L 335 249 L 335 222 L 327 235 Q 319 243 306 246 L 293 245 L 287 243 L 284 240 L 281 240 Q 282 237 280 238 L 270 227 L 267 218 Q 266 197 276 188 L 292 177 L 302 175 L 316 178 L 323 182 Q 331 187 334 198 L 335 198 L 335 128 L 334 139 L 328 151 L 319 159 L 306 164 L 293 163 L 278 156 L 270 146 L 267 137 L 267 123 Q 269 113 274 108 Q 281 98 294 95 Q 304 94 311 96 L 325 104 L 333 117 L 335 125 L 335 98 L 314 94 L 311 93 L 308 94 L 298 92 Z M 235 93 L 233 95 L 236 103 L 238 103 L 235 93 Z M 10 94 L 8 97 L 12 99 L 19 98 L 21 100 Q 22 96 20 95 L 14 97 L 10 94 Z M 229 95 L 232 103 Q 231 105 234 104 L 231 98 Q 232 94 229 95 Z M 70 96 L 70 97 L 74 97 L 70 96 Z M 88 96 L 89 97 L 90 98 Q 91 95 88 96 Z M 227 96 Q 225 102 228 105 L 230 106 L 227 96 Z M 297 97 L 284 102 Q 274 108 271 121 L 271 123 L 269 130 Q 271 131 270 136 L 270 138 L 273 146 L 277 151 L 283 156 L 291 160 L 300 162 L 310 161 L 319 156 L 327 147 L 331 138 Q 330 132 332 131 L 331 122 L 326 111 Q 320 102 310 98 L 297 97 Z M 121 98 L 121 99 L 124 99 L 121 98 Z M 222 98 L 222 102 L 225 108 L 226 108 L 224 102 Q 225 97 222 98 Z M 7 99 Q 6 102 10 101 Q 12 107 15 102 L 21 107 L 23 106 L 23 108 L 25 107 Q 26 103 22 105 L 18 100 L 16 101 L 7 99 Z M 33 99 L 32 102 L 33 102 L 33 99 Z M 67 99 Q 65 103 68 104 L 73 103 L 74 106 L 73 105 Q 70 104 71 107 L 76 111 L 75 104 L 74 102 L 67 102 L 67 99 Z M 70 99 L 70 100 L 74 100 L 70 99 Z M 137 99 L 136 125 L 135 128 L 135 130 L 136 152 L 137 150 L 137 137 L 138 134 L 138 105 L 137 99 Z M 219 99 L 220 107 L 222 108 L 219 99 Z M 22 100 L 21 103 L 26 105 L 26 102 Q 23 103 22 100 Z M 46 100 L 38 102 L 31 106 L 21 117 L 18 124 Q 20 129 17 131 Q 17 144 23 152 L 34 161 L 47 165 Q 60 165 68 158 L 77 147 L 80 135 L 79 124 L 75 115 Q 69 105 58 101 L 46 100 Z M 215 100 Q 214 106 218 111 L 219 111 L 215 100 Z M 104 101 Q 103 105 106 104 Q 107 100 104 101 Z M 120 101 L 120 102 Q 123 101 124 104 L 120 104 L 121 106 Q 127 108 125 103 Q 124 100 120 101 Z M 29 102 L 29 104 L 31 103 L 29 102 Z M 88 102 Q 87 104 90 103 L 91 104 Q 92 100 88 102 Z M 210 102 L 212 108 L 214 109 L 212 104 Q 213 101 210 102 Z M 9 103 L 8 105 L 11 106 L 9 103 Z M 208 104 L 206 106 L 209 113 L 212 114 L 208 104 Z M 7 105 L 5 107 L 8 107 L 7 105 Z M 15 105 L 17 107 L 18 110 Q 21 111 20 109 Q 20 105 15 105 Z M 88 105 L 86 107 L 90 108 Q 92 109 91 106 L 88 105 Z M 106 105 L 105 106 Q 102 105 103 108 L 107 109 L 106 105 Z M 204 106 L 202 109 L 204 115 L 208 116 L 204 106 Z M 13 107 L 10 109 L 8 109 L 10 111 L 14 108 L 13 107 Z M 15 108 L 15 112 L 17 112 L 15 108 Z M 121 108 L 121 109 L 124 109 L 121 108 Z M 23 109 L 22 112 L 23 112 L 23 109 Z M 88 109 L 87 111 L 91 111 L 88 109 Z M 80 110 L 80 115 L 82 114 L 84 115 L 85 115 L 81 113 L 80 110 Z M 104 110 Q 103 113 106 112 Q 107 109 104 110 Z M 6 111 Q 5 114 8 113 Q 9 110 6 111 Z M 121 111 L 121 112 L 124 112 L 121 111 Z M 142 112 L 141 115 L 142 115 L 142 112 Z M 201 112 L 199 117 Q 201 121 203 118 L 201 112 Z M 19 113 L 15 115 L 13 114 Q 8 113 7 116 L 8 117 L 10 116 L 12 116 L 15 118 Q 17 117 16 120 L 17 120 L 16 115 L 20 114 L 19 113 Z M 86 113 L 87 115 L 90 114 L 86 113 Z M 93 113 L 93 114 L 98 114 L 93 113 Z M 103 113 L 103 115 L 106 114 L 103 113 Z M 110 113 L 108 115 L 124 115 Q 125 111 120 113 L 118 113 L 114 114 L 110 113 Z M 91 116 L 89 117 L 89 118 L 101 118 L 98 116 L 93 117 L 91 116 Z M 103 116 Q 101 119 104 118 L 103 116 Z M 115 116 L 112 118 L 125 118 L 125 116 L 115 116 Z M 106 117 L 106 119 Q 108 122 109 119 Q 110 115 106 117 Z M 145 117 L 144 136 L 143 137 L 144 143 L 145 141 L 145 117 Z M 197 117 Q 195 120 198 121 L 199 121 L 197 117 Z M 8 118 L 6 120 L 9 120 L 9 123 Q 6 122 7 125 Q 5 126 8 127 L 10 126 Q 11 130 9 129 L 11 132 L 15 126 L 12 125 L 14 121 Q 13 117 8 118 Z M 81 118 Q 80 121 83 120 Q 84 117 81 118 Z M 89 119 L 88 121 L 93 121 L 89 119 Z M 98 119 L 95 120 L 95 121 L 103 121 L 100 119 L 98 119 Z M 118 119 Q 116 121 112 120 L 110 123 L 112 122 L 114 123 L 112 123 L 110 123 L 107 125 L 123 125 L 123 127 L 108 127 L 107 129 L 117 129 L 118 130 Q 121 131 120 128 L 123 129 L 125 128 L 124 123 L 118 124 Q 115 125 116 122 L 124 122 L 125 121 Q 124 118 120 119 L 118 119 Z M 141 120 L 140 144 L 139 146 L 141 147 L 141 120 Z M 194 120 Q 191 122 194 123 L 195 123 L 194 120 Z M 150 122 L 147 124 L 150 124 L 151 126 L 152 135 L 152 124 L 150 122 Z M 86 123 L 85 138 L 85 140 L 85 153 L 84 154 Q 82 160 85 162 Q 84 166 89 164 Q 88 158 90 155 L 94 153 L 98 154 L 100 158 L 100 164 L 102 163 L 104 164 Q 106 163 105 157 L 105 155 L 106 153 L 105 151 L 106 149 L 104 146 L 104 136 L 105 135 L 104 132 L 103 132 Q 100 133 101 130 L 105 128 L 104 125 L 100 127 L 100 124 L 99 138 L 98 140 Q 96 142 91 141 L 90 139 L 91 137 L 91 127 L 90 126 L 90 124 L 86 125 L 86 123 Z M 94 123 L 95 125 Q 96 122 94 123 Z M 190 123 Q 188 126 191 125 L 190 123 Z M 156 125 L 155 133 L 156 133 L 156 125 Z M 185 125 Q 184 128 187 127 Q 188 124 185 125 Z M 97 126 L 93 128 L 97 129 L 97 126 Z M 148 126 L 147 139 L 148 139 L 148 126 Z M 159 127 L 159 130 L 161 129 Q 162 126 159 127 Z M 182 127 L 181 129 L 183 130 L 182 127 Z M 167 129 L 169 134 L 173 137 L 174 136 L 173 135 L 170 132 L 167 129 Z M 173 129 L 172 131 L 176 134 L 173 129 Z M 107 130 L 107 132 Q 112 133 113 131 L 107 130 Z M 122 130 L 120 132 L 125 133 L 125 132 L 122 130 Z M 164 130 L 163 134 L 169 139 L 170 139 L 164 130 Z M 93 131 Q 92 134 96 133 Q 97 130 93 131 Z M 117 132 L 117 135 Q 120 134 117 132 Z M 107 133 Q 106 137 111 135 L 111 138 L 112 138 L 112 133 L 107 133 Z M 159 133 Q 159 138 164 141 Q 163 143 167 142 L 165 138 Q 162 139 163 137 L 159 133 Z M 14 134 L 12 136 L 13 138 L 14 136 L 14 134 Z M 120 134 Q 119 137 123 136 Q 124 133 120 134 Z M 7 135 L 6 138 L 7 138 L 7 135 Z M 94 135 L 95 136 L 96 137 Q 97 134 94 135 Z M 156 135 L 154 137 L 159 142 Q 158 144 161 143 L 162 144 L 156 135 Z M 95 137 L 93 139 L 96 139 L 95 137 Z M 107 137 L 107 140 L 109 139 Q 110 136 107 137 Z M 116 137 L 116 139 L 118 140 L 124 141 L 116 141 L 117 143 L 124 143 Q 126 142 125 138 L 124 138 Q 118 139 116 137 Z M 151 138 L 152 142 L 159 148 L 159 146 L 153 140 Q 154 137 151 138 Z M 15 139 L 14 142 L 15 142 L 15 139 Z M 8 140 L 6 143 L 8 142 L 8 140 Z M 113 140 Q 110 141 111 146 L 108 147 L 108 155 L 112 155 L 113 152 L 113 150 L 113 140 Z M 108 141 L 107 145 L 108 145 L 108 141 Z M 149 141 L 147 145 L 154 150 L 156 150 L 149 141 Z M 12 142 L 10 144 L 13 146 L 12 142 Z M 115 144 L 117 147 L 122 145 L 125 147 L 124 144 L 119 145 L 115 144 Z M 7 146 Q 6 149 9 148 Q 10 145 7 146 Z M 145 146 L 143 148 Q 142 150 145 149 L 151 155 L 152 154 L 149 149 Q 146 150 147 148 L 145 146 Z M 80 147 L 81 150 L 82 148 L 80 147 Z M 13 148 L 13 150 Q 14 152 12 151 L 10 152 Q 11 148 9 149 Q 6 150 7 155 L 11 156 L 16 153 Q 19 154 18 152 L 17 152 L 16 150 L 13 148 Z M 121 148 L 119 150 L 117 149 L 115 152 L 121 151 L 125 153 L 125 149 L 121 148 Z M 129 149 L 127 152 Q 126 154 129 153 L 129 149 Z M 140 150 L 147 158 L 149 157 L 140 150 Z M 221 150 L 219 153 L 227 152 L 221 150 Z M 78 151 L 75 155 L 79 154 L 81 155 L 82 153 L 81 153 L 78 151 Z M 229 151 L 229 152 L 242 152 L 243 153 L 248 152 Q 251 155 260 153 L 261 154 L 260 151 L 257 152 L 255 151 L 252 152 L 250 151 L 229 151 Z M 121 153 L 120 154 Q 114 152 115 156 L 109 157 L 110 159 L 112 158 L 114 158 Q 121 160 123 155 Q 125 156 124 154 L 123 154 L 121 153 Z M 137 153 L 137 156 L 144 161 L 145 162 L 142 157 L 137 153 Z M 17 154 L 13 159 Q 9 160 10 157 L 7 157 L 8 163 Q 7 166 10 165 L 11 167 L 11 163 Q 14 162 13 165 Q 16 166 15 163 L 18 162 Q 16 156 20 157 Q 21 162 18 165 L 19 166 L 22 162 L 21 159 L 22 155 L 19 155 Q 20 157 17 156 L 17 154 Z M 223 155 L 223 237 L 222 238 L 223 240 L 222 243 L 222 271 L 224 275 L 221 285 L 222 286 L 222 300 Q 225 302 234 301 L 239 308 L 239 310 Q 242 311 241 308 Q 246 309 249 305 L 254 305 L 250 297 L 249 300 Q 246 301 247 298 L 244 296 L 242 292 L 243 290 L 242 290 L 240 285 L 243 286 L 243 283 L 240 282 L 242 277 L 243 274 L 247 275 L 249 270 L 244 273 L 243 272 L 248 268 Q 251 269 250 266 L 255 265 L 255 241 L 256 240 Q 258 234 255 233 L 256 231 L 256 156 L 256 155 L 249 155 L 247 155 L 245 156 L 244 155 L 223 155 Z M 74 156 L 72 158 L 75 160 Q 74 157 77 158 L 78 160 L 81 158 L 77 157 L 74 156 Z M 134 157 L 137 162 Q 136 164 139 163 L 139 165 Q 143 166 142 164 L 134 157 Z M 70 159 L 68 168 L 69 177 L 71 163 L 70 159 Z M 112 160 L 109 162 L 111 163 L 110 166 Q 107 167 108 164 L 102 166 L 100 165 L 99 166 L 90 166 L 88 166 Q 87 168 91 167 L 91 169 L 95 167 Q 99 166 100 169 L 104 166 L 107 168 Q 106 170 109 169 L 117 160 L 115 161 L 112 160 Z M 28 161 L 27 162 Q 23 161 24 164 L 29 162 L 28 161 Z M 80 161 L 77 162 L 79 165 L 79 163 L 82 163 L 80 161 Z M 133 161 L 131 163 L 132 165 L 138 169 L 139 168 L 133 161 Z M 66 162 L 64 164 L 64 175 L 66 175 L 65 172 L 66 167 L 66 162 Z M 124 162 L 123 166 L 124 166 L 124 162 Z M 61 164 Q 58 165 60 167 L 59 172 Q 58 174 61 173 L 61 167 L 62 166 Q 63 163 61 164 Z M 74 164 L 71 179 L 73 181 L 74 178 L 74 164 Z M 83 164 L 80 165 L 82 169 Q 81 172 85 170 L 86 168 L 86 166 L 84 166 Q 85 163 83 164 Z M 130 164 L 128 168 L 133 171 Q 134 173 135 171 L 130 164 Z M 21 165 L 23 171 L 23 175 L 24 175 Q 26 169 23 168 Q 24 164 21 165 Z M 27 165 Q 26 171 30 176 Q 29 178 32 177 Q 34 176 33 171 L 32 171 Q 33 173 31 172 L 27 165 Z M 31 165 L 31 169 L 32 169 L 31 165 Z M 117 165 L 116 170 L 117 170 L 117 165 Z M 15 166 Q 14 171 18 169 L 18 174 L 20 175 L 19 168 L 15 166 Z M 55 166 L 55 172 L 57 171 L 56 169 L 57 167 L 55 166 Z M 46 167 L 45 171 L 49 172 L 52 171 L 52 167 L 46 167 Z M 78 169 L 77 173 L 78 173 L 78 169 Z M 88 169 L 85 170 L 86 175 L 89 176 L 90 173 L 93 175 Q 93 172 98 172 L 97 170 L 94 172 Q 90 173 89 171 Q 90 168 88 169 Z M 103 169 L 103 171 L 101 172 Q 97 171 98 174 Q 100 177 102 173 L 104 174 Q 108 172 105 171 Q 106 168 103 169 Z M 125 169 L 125 172 L 129 174 Q 130 178 132 175 L 125 169 Z M 120 170 L 119 173 L 120 173 L 120 170 Z M 116 171 L 115 179 L 117 178 L 116 171 Z M 81 172 L 80 193 L 81 195 L 82 195 L 82 174 L 81 172 Z M 112 172 L 111 185 L 112 185 L 112 172 Z M 12 173 L 8 181 L 9 186 L 12 180 L 12 173 Z M 124 173 L 122 176 L 127 178 Q 128 182 130 179 L 124 173 Z M 44 174 L 31 180 Q 21 186 18 200 L 18 213 L 23 225 Q 30 235 46 238 L 61 236 L 70 230 Q 69 227 72 228 L 78 218 L 80 209 Q 80 188 68 180 L 64 181 L 63 179 L 65 180 L 65 178 L 55 174 L 44 174 Z M 108 174 L 107 191 L 108 191 L 108 174 Z M 27 175 L 24 181 L 24 182 L 28 179 L 27 175 Z M 96 175 Q 94 178 90 177 L 92 180 Q 94 181 93 178 L 96 177 L 96 175 Z M 77 176 L 75 184 L 76 186 L 77 186 L 77 176 Z M 22 177 L 20 179 L 21 184 L 22 179 L 22 177 Z M 97 177 L 97 180 L 100 178 L 97 177 Z M 16 178 L 15 181 Q 14 184 17 183 L 18 179 L 16 178 Z M 86 178 L 85 191 L 86 191 L 86 178 Z M 120 178 L 120 180 L 126 184 L 126 182 L 120 178 Z M 297 179 Q 287 181 282 186 Q 272 193 270 207 L 271 221 L 276 231 Q 284 242 303 244 L 305 244 L 321 237 Q 329 230 332 218 L 332 206 L 330 199 L 325 191 Q 317 178 297 179 Z M 94 180 L 96 183 L 97 182 Q 98 179 94 180 Z M 119 181 L 118 183 L 121 184 L 119 181 Z M 88 182 L 88 199 L 87 200 L 88 204 L 89 202 L 89 184 L 90 183 L 88 182 Z M 104 183 L 103 193 L 104 193 L 104 183 Z M 117 184 L 116 186 L 121 189 L 121 188 L 117 184 Z M 92 185 L 92 192 L 91 193 L 92 196 L 91 198 L 91 213 L 90 214 L 90 223 L 88 223 L 88 221 L 86 223 L 85 236 L 87 236 L 87 226 L 90 226 L 89 233 L 91 236 L 91 220 L 92 219 L 92 201 L 93 200 L 93 187 L 94 186 L 92 185 Z M 18 186 L 18 190 L 20 189 Q 21 185 18 186 Z M 97 186 L 96 198 L 95 199 L 95 217 L 94 218 L 95 221 L 96 218 L 96 206 L 97 205 L 97 186 Z M 115 187 Q 113 190 116 189 L 115 187 Z M 12 188 L 11 195 L 12 195 L 12 188 Z M 100 188 L 100 192 L 101 192 L 100 188 Z M 9 189 L 7 193 L 8 197 L 9 193 L 9 189 Z M 16 189 L 16 195 L 17 195 L 16 189 Z M 113 189 L 112 192 L 117 194 L 117 192 L 113 189 Z M 85 191 L 84 197 L 85 197 L 85 191 Z M 101 193 Q 98 195 99 200 L 99 202 L 100 207 L 101 204 L 101 193 Z M 111 193 L 115 197 L 116 197 L 111 193 Z M 108 196 L 108 198 L 114 200 L 114 198 L 108 196 Z M 9 197 L 7 203 L 8 205 L 9 203 L 9 197 Z M 13 198 L 14 205 L 15 202 Q 16 197 13 198 Z M 122 198 L 119 203 L 120 204 L 122 201 L 122 198 Z M 83 199 L 84 203 L 85 201 Q 86 198 83 199 Z M 107 200 L 109 203 L 113 204 L 113 203 L 107 200 Z M 167 201 Q 157 203 152 208 Q 142 215 140 229 L 141 243 L 146 253 L 157 262 L 166 265 L 179 265 L 189 261 L 194 257 L 199 251 L 203 240 L 203 227 L 198 215 Q 190 200 167 201 Z M 85 203 L 83 206 L 84 212 L 85 212 L 85 203 Z M 106 203 L 104 205 L 110 208 Q 113 209 112 207 L 106 203 Z M 88 205 L 87 218 L 88 218 L 88 205 Z M 118 206 L 115 212 L 115 213 L 119 213 L 118 206 Z M 121 206 L 119 208 L 121 208 L 121 206 Z M 104 207 L 103 209 L 110 212 L 110 210 L 104 207 Z M 124 209 L 126 212 Q 127 208 124 209 Z M 101 211 L 101 213 L 108 215 L 109 215 L 101 211 Z M 15 213 L 12 218 L 9 219 L 10 222 L 16 214 L 15 213 Z M 84 213 L 83 222 L 84 222 L 84 213 Z M 101 215 L 99 217 L 108 220 Q 110 221 109 219 Q 106 215 101 215 Z M 113 215 L 113 217 L 115 216 L 113 215 Z M 119 215 L 118 228 L 119 228 L 119 215 Z M 115 216 L 116 219 L 115 220 L 115 232 L 114 233 L 115 237 L 114 239 Q 114 235 111 234 Q 110 227 113 224 L 113 226 L 114 226 L 113 220 Q 115 218 113 217 L 109 234 L 112 240 Q 114 242 119 241 L 119 239 L 116 240 L 116 230 L 117 229 L 117 217 L 115 216 Z M 122 216 L 120 223 L 120 225 L 120 241 L 122 241 L 122 216 Z M 123 216 L 123 222 L 125 221 Q 127 215 123 216 Z M 126 216 L 126 236 L 125 240 L 124 236 L 124 234 L 125 230 L 123 231 L 123 241 L 125 242 L 127 241 L 127 225 L 128 224 L 128 217 L 126 216 Z M 130 216 L 129 226 L 129 228 L 128 230 L 128 241 L 130 242 L 130 225 L 130 223 L 131 221 L 130 216 Z M 133 216 L 131 241 L 133 242 L 133 216 Z M 135 216 L 135 218 L 134 222 L 135 241 L 135 232 L 136 231 L 136 217 L 135 216 Z M 139 216 L 137 224 L 138 227 L 139 224 L 139 216 Z M 98 220 L 98 222 Q 99 224 103 223 L 106 224 Q 109 225 108 222 Q 104 219 98 220 Z M 14 221 L 12 223 L 14 223 L 14 221 Z M 80 221 L 78 226 L 79 237 L 80 229 L 80 227 L 80 221 Z M 9 222 L 7 224 L 10 225 L 9 222 Z M 17 222 L 15 225 L 17 224 L 17 222 Z M 82 224 L 83 232 L 84 225 L 82 224 Z M 12 225 L 12 227 L 14 226 L 12 225 Z M 97 225 L 97 228 L 105 228 L 106 229 L 107 226 L 97 225 Z M 124 225 L 125 227 Q 126 224 124 225 Z M 19 226 L 18 229 L 19 229 L 19 226 Z M 10 227 L 9 228 Q 6 227 7 230 L 11 229 Q 12 226 10 227 Z M 22 227 L 21 230 L 22 230 L 22 227 Z M 76 227 L 75 230 L 76 230 L 76 227 Z M 96 230 L 96 232 L 103 232 L 104 233 Q 107 234 106 231 L 96 230 Z M 75 231 L 74 236 L 75 236 L 75 231 Z M 207 231 L 206 241 L 205 242 Q 207 244 212 243 L 211 242 L 213 241 L 211 237 L 210 241 Q 207 240 209 239 Q 210 233 207 231 Z M 19 232 L 20 234 Q 21 231 19 232 Z M 25 232 L 21 234 Q 22 236 28 235 L 33 239 Q 35 240 34 238 L 25 232 Z M 70 232 L 70 236 L 72 236 L 71 235 L 72 233 L 70 232 Z M 119 233 L 117 236 L 119 237 L 119 233 Z M 9 235 L 10 237 Q 11 234 9 235 Z M 66 235 L 66 237 L 68 236 L 66 235 Z M 97 235 L 97 236 L 104 236 L 105 237 L 105 235 L 97 235 Z M 25 238 L 23 240 L 27 241 L 31 243 Q 33 242 32 245 L 34 245 L 32 240 L 25 238 Z M 11 239 L 9 242 L 11 242 L 11 239 Z M 20 239 L 20 241 L 22 240 L 20 239 Z M 72 239 L 69 240 L 67 240 Q 60 238 59 241 L 54 240 L 55 242 L 57 241 L 57 245 Q 60 246 59 243 Q 60 240 62 242 L 64 241 L 65 245 L 66 245 L 66 242 L 71 242 L 72 244 L 74 241 L 76 245 L 77 241 Q 80 240 79 245 L 80 245 Q 79 240 83 242 L 84 245 L 86 241 L 86 245 L 88 244 Q 87 240 90 241 L 91 245 L 92 242 L 93 242 Q 92 245 95 244 L 96 241 L 96 245 Q 100 246 98 241 Q 101 240 100 243 L 103 241 L 104 244 L 105 241 L 108 242 L 108 240 L 100 239 L 98 239 L 87 239 L 86 240 L 84 239 L 75 239 L 74 240 L 72 239 Z M 214 241 Q 212 244 215 243 L 214 241 Z M 37 243 L 36 246 L 36 257 L 41 257 L 42 256 L 42 245 Q 41 242 37 243 Z M 131 243 Q 129 246 132 245 L 131 243 Z M 27 244 L 28 245 L 29 246 Q 30 243 27 244 Z M 110 246 L 111 252 L 113 249 L 114 251 L 114 250 L 116 249 L 114 253 L 116 256 Q 118 255 116 254 L 117 247 L 121 249 L 120 278 L 119 278 Q 117 271 120 270 L 120 254 L 118 253 L 116 264 L 117 265 L 117 274 L 118 275 L 119 287 L 120 288 Q 118 294 122 293 L 121 289 L 122 288 L 122 261 L 123 260 L 123 248 L 127 247 L 128 251 Q 126 256 127 265 L 126 266 L 126 293 L 128 293 L 128 256 L 130 252 L 129 248 L 128 246 L 110 246 Z M 132 246 L 131 248 L 131 249 L 134 248 Q 132 256 133 270 L 132 271 L 133 273 L 132 275 L 133 276 L 133 286 L 132 289 L 134 293 L 134 278 L 134 276 L 135 272 L 135 270 L 135 247 L 134 246 L 132 246 Z M 205 246 L 201 251 L 203 253 L 205 248 L 205 253 L 205 255 Q 206 257 203 256 L 204 258 L 207 257 L 206 256 L 206 247 L 205 246 Z M 216 246 L 215 251 L 216 255 Q 214 261 218 261 L 220 263 L 219 261 L 220 259 L 220 247 L 216 246 Z M 24 247 Q 23 250 26 249 Q 27 246 24 247 Z M 54 247 L 52 249 L 63 249 L 65 249 L 77 249 L 78 250 L 79 249 L 101 249 L 104 248 L 104 247 L 58 247 L 57 248 L 54 247 Z M 136 247 L 137 293 Q 139 292 137 291 Q 136 285 138 284 L 137 277 L 137 275 L 138 273 L 137 271 L 138 269 L 138 256 L 137 255 L 138 252 Q 140 246 136 247 Z M 140 247 L 139 279 L 141 279 L 141 249 L 140 247 Z M 209 247 L 208 257 L 213 258 Q 211 255 212 247 L 210 255 L 209 250 Q 211 248 209 247 Z M 23 249 L 19 250 L 20 253 L 23 251 L 23 249 Z M 28 250 L 26 253 L 29 251 L 31 253 L 31 252 L 28 250 Z M 99 250 L 97 252 L 99 252 L 99 250 Z M 103 250 L 103 259 L 102 260 L 103 265 L 103 267 L 102 271 L 104 279 L 104 275 L 104 273 L 104 263 L 105 262 L 104 258 L 105 255 Q 107 249 103 250 Z M 332 250 L 328 256 L 330 256 Q 331 260 327 258 L 323 264 L 326 266 L 323 267 L 324 271 L 326 271 L 325 274 L 326 277 L 323 275 L 321 280 L 320 277 L 318 276 L 319 279 L 316 277 L 314 280 L 317 280 L 315 283 L 317 285 Q 322 286 323 282 L 323 286 L 326 288 L 324 281 L 325 278 Q 328 280 327 285 L 330 285 Q 329 282 332 283 L 333 285 L 334 282 L 335 285 L 336 285 L 336 275 L 335 273 L 334 275 L 332 276 L 335 271 L 334 269 L 335 267 L 335 264 L 332 265 Q 331 262 335 263 L 336 261 Q 337 255 335 253 Q 332 252 333 255 L 331 254 Q 330 251 333 252 Q 334 249 332 250 Z M 314 251 Q 311 252 312 258 L 312 259 Q 315 260 314 257 Q 317 256 316 260 L 311 261 L 311 259 L 310 262 L 313 264 L 314 262 L 320 262 L 321 260 Q 322 254 320 252 L 319 254 Q 315 255 316 252 L 319 252 L 314 251 Z M 51 252 L 52 262 L 52 256 L 53 253 L 51 252 Z M 143 252 L 142 283 L 141 284 L 143 284 L 142 286 L 143 288 L 142 292 L 144 293 L 144 276 L 143 275 L 144 274 L 144 257 L 145 256 L 143 252 Z M 201 252 L 200 254 L 200 256 Q 199 259 202 258 L 201 252 Z M 12 253 L 12 255 L 14 254 L 12 253 Z M 95 253 L 93 255 L 100 256 Q 102 251 95 253 Z M 131 253 L 130 268 L 129 270 L 130 273 L 129 278 Q 127 284 130 286 L 129 290 L 131 293 Q 133 292 131 291 L 131 260 L 132 259 Q 133 254 131 253 Z M 15 254 L 14 258 L 12 257 L 10 272 L 7 276 L 8 277 L 10 276 L 9 279 L 10 283 L 7 289 L 8 305 L 10 298 Q 9 293 12 294 L 13 297 L 10 309 L 13 310 L 18 307 L 22 308 L 24 314 L 26 315 Q 23 312 24 306 L 19 299 L 20 297 L 19 295 L 21 292 L 22 295 L 22 299 L 26 305 L 27 305 Q 28 298 24 297 L 24 289 L 23 288 Q 22 283 24 282 L 24 270 L 21 266 L 18 268 L 18 283 L 19 284 Q 20 290 18 290 L 16 289 L 16 277 L 15 276 Q 14 268 17 265 L 15 263 L 15 254 Z M 23 254 L 21 258 L 24 256 Q 25 253 23 254 Z M 56 254 L 56 255 L 59 255 L 56 254 Z M 75 254 L 75 255 L 80 255 L 75 254 Z M 113 255 Q 110 256 111 261 L 114 262 Q 115 257 113 255 Z M 124 255 L 124 266 L 123 267 L 123 293 L 125 293 L 124 292 L 124 277 L 125 276 L 125 262 L 126 261 Q 128 254 124 255 Z M 199 255 L 190 263 L 187 264 L 188 267 L 187 271 L 186 265 Q 183 264 184 267 L 184 269 L 185 279 Q 187 278 185 277 Q 184 273 187 272 L 188 276 L 188 269 L 190 269 Q 188 263 192 264 L 193 262 L 194 264 L 194 262 L 199 258 L 199 255 Z M 28 256 L 23 260 Q 20 259 21 262 L 28 259 L 28 256 Z M 31 256 Q 30 259 33 258 Q 34 255 31 256 Z M 146 256 L 145 293 L 147 292 L 147 278 L 146 277 L 147 274 L 147 258 L 146 256 Z M 55 257 Q 54 260 58 259 L 59 260 Q 60 255 55 257 Z M 74 257 L 74 259 L 78 258 L 74 257 Z M 80 257 L 78 259 L 80 259 L 80 257 Z M 95 257 L 93 260 L 97 259 L 100 260 Q 102 255 95 257 Z M 208 258 L 207 259 Q 203 258 204 261 L 209 262 L 203 266 L 207 266 L 208 267 L 211 264 L 214 265 L 214 278 L 213 279 L 214 281 Q 216 278 215 272 L 217 270 L 216 269 L 216 262 L 213 262 L 208 258 Z M 148 259 L 149 263 L 148 265 L 149 267 L 148 274 L 150 274 L 150 263 L 150 261 Q 151 258 148 259 Z M 8 260 L 7 263 L 8 263 L 8 260 Z M 45 260 L 43 262 L 44 276 L 48 275 L 48 264 L 49 262 Q 48 259 45 260 Z M 76 260 L 75 262 L 80 262 L 76 260 Z M 18 261 Q 17 264 20 263 Q 21 260 18 261 Z M 28 261 Q 27 265 23 264 L 24 266 L 28 264 Q 31 265 30 263 L 28 261 Z M 55 261 Q 54 265 59 263 Q 60 259 55 261 Z M 97 261 L 93 262 L 94 264 L 98 263 L 100 265 L 99 263 Q 100 260 97 261 Z M 304 261 L 303 265 L 307 268 L 304 261 Z M 153 262 L 152 267 L 153 267 L 153 262 Z M 154 263 L 154 311 L 153 312 L 156 313 L 155 312 L 156 310 L 156 264 L 154 263 Z M 59 264 L 56 266 L 59 266 L 59 264 Z M 74 264 L 74 266 L 79 266 L 79 264 L 74 264 Z M 95 265 Q 94 268 99 267 Q 100 263 95 265 Z M 110 265 L 110 267 L 111 293 L 113 290 Q 114 287 111 288 L 111 281 L 112 280 L 111 277 L 111 266 L 110 265 Z M 157 265 L 157 293 Q 160 294 159 291 L 159 289 L 161 288 L 162 292 L 162 288 L 162 286 L 162 267 L 160 266 L 160 278 L 161 279 L 160 287 L 158 281 L 159 277 Q 161 271 158 270 L 159 267 Q 160 264 157 265 Z M 179 266 L 179 270 L 178 272 L 179 299 L 179 293 L 179 291 L 180 288 L 181 268 L 182 271 L 181 272 L 181 298 L 193 296 L 195 297 L 195 294 L 191 294 L 191 296 L 190 296 Q 192 290 188 291 L 189 295 L 187 293 L 186 294 L 185 291 L 184 296 L 182 294 L 183 293 L 183 266 L 181 267 L 179 266 Z M 303 266 L 302 269 L 304 269 L 303 266 Z M 317 266 L 316 268 L 313 267 L 310 273 Q 314 274 312 269 Q 315 268 314 272 Q 312 273 315 274 Q 317 273 315 272 L 317 269 L 317 266 Z M 26 267 Q 25 271 30 269 Q 31 265 26 267 Z M 152 267 L 152 272 L 152 274 L 150 274 L 151 278 L 151 293 L 153 294 L 153 269 L 152 267 Z M 164 267 L 163 274 L 163 295 L 165 294 L 165 271 L 167 270 L 166 276 L 166 293 L 168 292 L 168 271 L 170 270 L 169 273 L 170 306 Q 172 305 170 304 L 171 299 L 170 294 L 171 293 L 172 270 L 173 273 L 172 274 L 172 302 L 171 303 L 173 303 L 174 302 L 174 294 L 173 291 Q 175 284 174 274 L 175 273 Q 176 266 174 267 L 172 267 L 169 268 L 164 267 Z M 177 267 L 175 275 L 176 277 Q 177 281 175 283 L 176 301 L 176 300 L 176 298 L 177 293 L 176 288 L 177 286 L 177 284 L 177 267 Z M 253 267 L 251 269 L 254 269 Q 255 266 253 267 Z M 286 267 Q 283 271 287 270 L 286 267 Z M 209 268 L 207 272 L 209 275 L 211 271 Q 212 267 209 268 Z M 257 268 L 256 271 L 257 271 L 257 268 Z M 259 268 L 258 271 L 259 271 L 259 268 Z M 260 268 L 261 273 L 262 269 L 260 268 Z M 265 268 L 264 273 L 269 270 L 267 268 L 266 270 L 265 268 Z M 319 268 L 317 271 L 320 272 L 320 268 L 319 268 Z M 98 270 L 97 271 L 89 271 L 89 272 L 100 272 L 98 270 Z M 29 271 L 27 273 L 32 275 Q 34 276 33 273 L 29 271 Z M 55 271 L 56 273 L 68 273 L 70 273 L 75 272 L 75 271 L 65 271 L 64 272 L 55 271 Z M 81 271 L 81 272 L 86 272 L 81 271 Z M 268 272 L 268 274 L 270 273 L 268 272 Z M 286 272 L 285 276 L 287 275 L 286 272 Z M 303 272 L 300 276 L 303 276 L 304 273 L 303 272 Z M 52 273 L 51 278 L 52 278 L 52 273 Z M 254 273 L 253 276 L 247 283 L 248 286 L 252 283 Q 256 285 254 292 L 258 291 L 260 294 L 262 293 L 262 296 L 262 298 Q 260 296 259 299 L 257 298 Q 254 299 255 297 L 258 293 L 255 294 L 252 289 L 249 289 L 251 296 Q 250 298 253 297 L 258 303 L 261 303 L 269 297 L 264 305 L 265 309 L 264 316 L 268 319 L 273 321 Q 277 320 276 323 L 279 324 L 282 323 L 281 316 L 278 310 L 282 312 L 282 311 L 273 304 L 274 298 L 269 291 L 270 287 L 270 284 L 265 284 L 263 281 L 265 278 Q 264 275 263 277 L 254 276 L 254 273 Z M 306 273 L 305 276 Q 302 275 303 279 L 305 278 L 306 281 Q 305 284 303 281 Q 304 278 301 279 L 304 284 Q 303 286 307 285 L 306 283 L 309 281 L 308 285 L 310 285 L 312 285 L 310 281 Q 309 276 312 275 L 311 275 L 306 273 Z M 92 274 L 91 275 L 79 276 L 100 276 L 100 274 L 92 274 Z M 274 274 L 274 278 L 275 278 L 274 274 Z M 289 274 L 289 278 L 291 279 Q 293 273 289 274 Z M 29 275 L 27 277 L 31 279 L 32 276 L 29 275 Z M 57 275 L 56 277 L 68 277 L 74 276 L 57 275 Z M 269 275 L 269 277 L 271 276 L 269 275 Z M 36 276 L 35 281 L 36 285 Q 41 286 42 284 L 42 276 L 36 276 Z M 79 276 L 77 280 L 80 280 L 82 280 L 91 279 L 90 284 L 98 285 L 95 286 L 93 286 Q 89 285 90 289 L 91 289 L 92 287 L 100 287 L 100 278 L 89 278 L 88 277 L 87 278 L 79 278 L 79 276 Z M 283 276 L 282 281 L 283 282 L 285 281 L 286 284 Q 290 285 288 280 L 289 278 Q 286 277 287 280 L 284 279 L 285 277 L 283 276 Z M 206 277 L 202 278 L 203 281 L 207 278 L 206 277 Z M 243 277 Q 242 281 245 280 L 246 278 L 243 277 Z M 69 278 L 64 279 L 64 280 L 74 280 Q 73 277 69 278 Z M 150 278 L 148 281 L 148 293 L 149 295 L 150 295 L 150 278 Z M 274 278 Q 271 280 274 281 Q 278 283 277 279 L 276 279 L 274 278 Z M 55 279 L 55 281 L 58 280 L 55 279 Z M 185 280 L 184 284 L 185 284 L 185 280 Z M 31 281 L 32 284 Q 34 285 33 282 L 31 281 Z M 71 281 Q 69 284 63 282 L 61 285 L 64 283 L 65 284 L 66 283 L 73 283 Q 74 280 71 281 Z M 81 281 L 76 282 L 76 283 L 83 283 L 81 281 Z M 104 281 L 102 289 L 103 291 L 103 303 L 102 304 L 103 310 L 104 310 L 104 281 Z M 58 282 L 54 284 L 58 284 L 58 282 Z M 212 283 L 210 287 L 212 286 L 212 283 Z M 301 283 L 299 284 L 298 286 L 302 285 L 301 283 Z M 28 285 L 27 296 L 30 300 L 30 305 L 32 311 L 33 311 L 33 301 L 31 300 L 30 295 L 31 286 L 28 285 Z M 44 285 Q 42 288 43 297 Q 44 299 46 297 L 49 297 L 49 289 L 49 287 L 49 285 L 44 285 Z M 56 285 L 55 287 L 58 288 L 58 286 L 56 285 Z M 83 285 L 77 287 L 84 287 Q 85 284 83 285 Z M 139 285 L 139 293 L 141 293 L 141 286 L 139 285 Z M 296 285 L 294 287 L 297 287 L 296 285 Z M 65 286 L 65 287 L 73 287 L 65 286 Z M 185 286 L 184 289 L 185 289 L 185 286 Z M 272 287 L 270 290 L 272 291 L 272 287 Z M 284 287 Q 284 295 279 298 L 279 303 L 282 303 L 285 306 L 292 309 L 298 317 L 298 322 L 301 327 L 304 340 Q 313 340 319 345 Q 329 352 333 367 L 333 382 L 327 394 L 333 395 L 336 398 L 335 387 L 335 385 L 336 382 L 335 379 L 335 377 L 336 374 L 334 365 L 335 346 L 336 345 L 335 343 L 335 296 L 335 294 L 336 290 L 335 289 L 332 288 L 331 292 L 330 293 L 322 293 Q 319 292 320 288 L 318 287 L 316 288 L 316 293 L 312 294 L 305 293 L 304 291 L 305 288 L 303 287 Q 300 288 302 290 L 301 293 Q 300 295 296 294 L 294 294 L 290 294 L 290 287 L 286 288 L 284 287 Z M 52 288 L 51 298 L 52 299 L 51 303 L 52 308 L 52 310 L 51 315 L 52 329 L 53 329 L 53 295 L 52 288 Z M 71 288 Q 69 290 65 289 L 65 290 L 73 290 L 71 288 Z M 87 288 Q 84 292 85 300 L 83 304 Q 82 307 86 305 L 86 297 L 87 296 L 87 288 Z M 97 288 L 92 289 L 92 290 L 100 290 L 97 288 Z M 81 289 L 81 290 L 83 290 L 81 289 Z M 186 289 Q 185 292 188 291 Q 189 288 186 289 Z M 219 289 L 216 295 L 218 299 L 220 299 L 219 298 L 219 289 Z M 61 290 L 59 292 Q 60 300 58 304 L 61 303 Q 63 296 60 295 L 61 292 L 61 290 Z M 114 291 L 112 293 L 114 293 L 114 291 Z M 192 291 L 193 293 Q 194 290 192 291 Z M 55 292 Q 54 296 57 295 Q 58 291 55 292 Z M 77 292 Q 76 295 81 294 Q 82 296 83 294 L 83 292 L 77 292 Z M 92 292 L 91 295 L 100 295 L 100 293 L 93 293 L 92 292 Z M 277 292 L 275 295 Q 277 298 278 295 L 277 292 Z M 68 293 L 68 294 L 73 294 L 68 293 Z M 152 294 L 151 299 Q 147 301 148 297 Q 147 294 146 296 Q 140 298 139 295 L 135 296 L 133 295 L 132 296 L 121 296 L 123 312 Q 129 312 131 316 Q 130 318 133 317 L 136 323 L 139 322 L 142 324 L 145 322 L 148 323 L 149 326 L 149 328 L 151 331 L 155 322 L 160 316 L 159 316 L 157 315 L 152 316 L 150 315 Q 151 310 149 309 L 150 305 L 149 302 L 152 300 L 151 304 L 153 303 Q 155 296 152 294 Z M 202 294 Q 199 295 200 300 L 209 306 Q 214 308 216 305 Q 222 307 221 303 L 214 300 Q 211 299 212 295 L 211 295 L 207 294 L 205 295 L 202 294 Z M 248 294 Q 246 297 249 296 L 248 294 Z M 114 295 L 113 296 L 110 297 L 110 314 L 113 315 L 114 318 Q 116 321 117 318 L 115 297 L 114 295 Z M 66 297 L 66 299 L 73 298 L 66 297 Z M 78 297 L 79 299 L 81 298 L 82 299 L 82 297 L 78 297 Z M 91 297 L 92 300 L 96 298 L 98 298 L 98 300 L 97 301 L 94 300 L 93 302 Q 98 303 100 301 L 100 297 L 91 297 Z M 37 299 L 37 314 L 41 313 L 42 313 L 42 301 Q 41 298 37 299 Z M 90 299 L 88 305 L 89 307 L 88 306 L 76 308 L 68 314 L 59 330 Q 58 334 60 336 L 59 340 L 60 344 Q 69 347 74 354 Q 73 356 77 355 L 74 351 L 73 345 L 70 346 L 67 343 Q 66 336 69 334 L 69 342 L 73 343 L 74 338 L 75 338 Q 76 342 74 344 L 75 346 Q 74 350 77 349 L 79 352 Q 82 353 81 351 Q 83 348 84 351 L 82 354 L 94 355 L 96 357 Q 98 358 97 355 Q 101 354 99 360 L 105 365 L 106 364 Q 113 364 116 369 L 123 379 Q 122 381 125 380 L 124 376 Q 125 368 123 369 L 119 366 L 118 361 Q 119 358 116 359 L 116 356 Q 115 353 112 353 L 113 351 L 116 352 L 113 341 Q 110 343 111 348 L 109 349 L 109 348 L 109 341 L 106 341 L 106 339 L 112 339 L 112 335 L 109 336 L 106 336 L 113 333 L 114 331 L 112 332 L 109 332 L 112 328 L 114 327 Q 113 329 116 328 L 115 319 L 110 315 L 104 313 L 100 309 L 91 307 L 90 299 Z M 81 300 L 78 302 L 82 302 L 81 300 Z M 64 301 Q 62 304 65 303 L 64 301 Z M 67 301 L 68 303 L 73 302 L 67 301 Z M 164 302 L 163 305 L 164 305 L 164 302 Z M 182 303 L 177 307 Q 176 309 180 308 L 182 305 L 182 303 Z M 196 303 L 196 305 L 199 304 L 196 303 Z M 230 303 L 229 305 L 232 305 L 230 303 Z M 71 304 Q 70 307 73 306 Q 74 303 71 304 Z M 79 304 L 77 306 L 80 306 Q 81 303 79 304 Z M 95 304 Q 94 306 98 305 L 99 306 Q 100 302 95 304 Z M 28 305 L 27 309 L 30 316 L 32 317 L 28 305 Z M 63 305 L 57 308 Q 58 311 64 310 L 66 307 L 63 305 Z M 192 306 L 193 308 L 195 308 L 192 306 Z M 198 306 Q 193 308 196 310 L 195 313 L 196 315 L 193 317 L 196 317 Q 199 319 196 320 L 192 319 L 190 320 L 192 323 L 196 324 L 197 328 L 195 327 L 192 328 L 194 328 L 195 331 L 193 332 L 193 333 Q 198 332 196 336 L 194 337 Q 198 338 197 342 L 200 344 Q 201 347 198 346 L 198 347 Q 202 346 200 350 L 197 349 L 195 350 L 197 351 L 203 352 L 205 354 L 204 351 L 208 349 L 212 362 L 211 364 L 213 369 Q 214 372 212 373 L 209 369 L 207 369 L 209 366 L 206 356 L 204 357 L 198 354 L 195 355 L 197 355 L 199 359 L 205 360 Q 206 364 204 363 L 205 365 Q 208 364 207 367 L 204 369 L 217 379 L 222 381 L 225 384 L 224 382 L 226 374 L 223 372 Q 222 369 225 368 L 224 364 Q 224 357 227 355 L 226 352 L 226 341 L 228 333 Q 226 327 232 329 L 234 333 Q 237 332 235 338 L 233 339 L 231 342 L 233 341 L 234 344 L 231 345 L 231 346 Q 234 345 233 348 L 231 349 L 232 352 L 231 354 L 235 355 L 233 362 L 231 363 L 235 363 Q 236 367 234 366 L 232 366 L 231 368 L 234 370 L 231 372 L 235 372 L 234 374 Q 233 376 237 375 L 240 370 Q 242 361 238 360 L 240 357 L 240 342 L 238 340 L 240 333 Q 242 320 238 313 L 233 316 L 230 315 L 220 318 L 218 314 L 215 313 Q 211 314 212 311 L 223 311 L 225 310 L 225 308 L 221 310 L 219 309 L 212 310 L 210 310 L 201 308 L 198 306 Z M 72 307 L 71 309 L 73 308 L 72 307 Z M 163 307 L 165 313 L 166 313 L 164 309 Q 165 306 163 307 Z M 230 307 L 229 311 L 221 314 L 221 315 L 228 314 L 230 310 L 235 309 Q 234 306 230 307 Z M 162 309 L 160 313 L 162 312 L 162 309 Z M 236 309 Q 236 312 233 311 L 232 313 L 236 312 L 236 309 Z M 158 310 L 158 313 Q 161 312 158 310 Z M 177 310 L 177 313 L 173 315 Q 172 318 175 317 L 175 320 L 167 324 L 165 327 L 171 324 Q 174 323 173 326 L 171 329 Q 173 328 172 331 L 169 333 L 168 335 L 171 334 L 172 337 L 167 340 Q 164 339 165 342 L 170 340 L 171 343 L 169 344 L 169 345 Q 172 344 171 347 L 162 353 L 159 352 L 159 355 L 155 355 L 155 357 L 155 358 L 159 357 L 162 361 L 170 356 Q 173 355 172 359 L 166 362 L 165 364 L 169 362 L 177 363 L 178 361 L 176 362 L 173 361 L 174 359 L 173 355 L 176 355 L 172 352 L 166 356 Q 163 361 161 358 L 162 354 L 169 350 L 172 350 L 173 352 L 173 346 L 175 343 Q 172 344 173 342 L 175 339 Q 172 340 173 337 L 177 334 Q 179 333 178 337 L 176 338 L 176 339 Q 180 338 178 342 L 176 343 L 178 343 Q 179 347 177 346 L 176 348 L 179 347 L 180 350 L 180 351 Q 183 350 181 354 L 178 356 L 180 356 Q 181 354 182 357 Q 183 359 180 358 Q 179 362 184 360 L 184 362 L 181 363 Q 178 362 179 365 L 173 365 L 172 364 L 164 369 L 161 368 L 163 365 L 160 364 Q 159 369 162 371 L 170 367 Q 177 369 181 366 L 183 366 Q 185 365 184 368 L 182 369 Q 178 368 179 371 L 186 369 Q 188 368 187 371 L 185 372 Q 180 374 184 376 L 188 374 L 189 377 L 185 379 L 186 381 L 191 379 Q 192 382 189 381 L 189 384 Q 186 390 177 390 L 175 390 L 171 390 L 165 394 L 162 398 L 168 394 Q 171 395 170 392 L 179 392 L 190 389 L 190 388 Q 187 389 188 387 L 194 382 Q 196 381 195 385 L 190 388 L 191 391 Q 184 395 172 395 L 167 399 L 168 400 L 172 397 Q 176 396 178 398 L 190 394 Q 193 394 192 390 L 198 385 L 199 387 L 195 392 L 199 389 L 201 389 L 201 392 L 197 398 L 198 399 L 201 395 Q 200 392 204 393 Q 203 401 198 404 Q 195 403 196 406 L 202 404 L 204 398 Q 206 393 208 397 L 205 405 L 202 408 L 193 411 L 195 414 L 202 411 Q 207 407 210 400 Q 212 397 213 400 L 210 408 Q 206 414 197 416 L 201 420 L 201 419 L 210 411 Q 209 408 212 409 L 212 405 L 214 405 Q 213 401 216 399 L 207 392 Q 204 393 205 390 L 203 390 L 188 369 L 183 355 L 183 353 L 181 347 L 179 330 L 178 327 Q 174 329 178 331 L 175 334 L 173 331 L 176 330 L 174 329 L 174 325 L 178 318 Q 174 315 179 313 L 177 310 Z M 245 310 L 242 315 L 244 318 L 245 312 L 245 310 Z M 252 310 L 253 312 Q 254 309 252 310 Z M 16 311 L 13 313 L 15 313 L 17 315 Q 18 310 16 311 Z M 184 311 L 183 316 L 184 316 L 184 311 Z M 188 311 L 187 314 L 188 314 L 188 311 Z M 10 312 L 8 314 L 9 315 L 11 314 Q 12 311 10 312 Z M 291 312 L 290 314 L 292 315 L 291 312 Z M 21 313 L 17 315 Q 15 319 19 318 Q 20 314 22 318 L 21 320 L 17 319 L 15 322 Q 12 321 13 329 L 16 330 L 18 330 Q 21 329 20 332 L 18 331 L 17 333 Q 19 334 17 335 Q 12 334 13 337 L 11 337 L 13 333 L 10 335 L 7 334 L 9 339 L 9 340 L 7 341 L 7 350 L 9 349 L 13 350 L 19 345 L 21 345 Q 25 347 22 349 L 22 350 L 18 350 Q 17 355 21 356 L 21 355 L 29 348 L 28 346 L 31 345 L 33 345 Q 35 346 34 343 L 33 343 L 29 342 L 25 343 L 22 337 L 27 338 L 25 335 Q 24 330 28 329 L 31 330 Q 32 327 34 329 L 34 324 L 33 326 L 30 327 L 31 325 Q 32 322 30 323 Q 28 319 26 323 Q 25 326 29 324 L 29 326 L 24 325 L 25 320 L 21 313 Z M 65 313 L 64 314 L 56 314 Q 55 317 60 316 L 62 316 L 65 315 L 65 313 Z M 47 314 L 45 317 L 45 319 L 44 323 Q 43 328 46 329 L 49 328 L 49 318 L 50 317 L 47 314 Z M 8 315 L 7 318 L 8 318 L 8 315 Z M 13 315 L 11 317 L 12 319 Q 11 321 14 320 L 13 315 Z M 163 315 L 163 317 L 165 316 L 163 315 Z M 125 316 L 124 319 L 126 318 Q 128 317 127 320 L 131 321 L 130 318 L 127 316 L 125 316 Z M 33 317 L 33 319 L 32 322 L 34 322 L 34 317 L 33 317 Z M 60 317 L 57 318 L 58 320 L 63 319 L 60 317 Z M 169 318 L 167 320 L 169 320 L 169 318 Z M 9 320 L 7 322 Q 6 325 9 324 L 10 325 Q 12 319 9 320 Z M 133 322 L 131 327 L 132 327 Q 131 324 134 325 L 133 322 Z M 160 324 L 156 326 L 157 328 L 161 326 Q 162 323 160 324 Z M 56 325 L 56 327 L 58 326 L 56 325 Z M 191 325 Q 189 328 192 327 L 191 325 Z M 144 326 L 142 328 L 144 328 L 144 326 Z M 8 328 L 8 329 L 10 329 L 8 328 Z M 37 329 L 37 343 L 43 342 L 43 329 L 37 329 Z M 144 329 Q 143 332 147 331 Q 148 328 144 329 Z M 34 330 L 31 333 L 33 336 L 31 337 L 29 337 L 30 340 L 33 339 L 34 334 L 34 332 L 34 330 Z M 157 330 L 153 332 L 157 332 L 160 331 L 157 330 Z M 27 331 L 27 333 L 29 334 Q 30 330 27 331 Z M 117 331 L 115 333 L 116 337 L 117 337 Q 116 334 119 335 L 119 332 L 117 331 Z M 184 332 L 183 336 L 184 336 L 184 332 Z M 146 334 L 147 339 L 148 336 L 146 334 Z M 159 334 L 155 335 L 152 338 L 153 339 L 156 337 Q 158 336 157 340 L 154 342 L 158 344 L 159 338 L 159 334 Z M 126 335 L 126 337 L 129 338 L 129 337 L 126 335 Z M 164 335 L 164 337 L 167 336 L 164 335 Z M 245 336 L 244 341 L 245 341 L 245 336 Z M 118 337 L 116 338 L 115 340 L 120 338 L 118 337 Z M 55 338 L 55 340 L 57 339 L 55 338 Z M 130 338 L 127 343 L 129 343 Q 130 347 128 346 L 128 348 Q 127 350 130 349 L 128 353 Q 127 355 130 354 L 129 357 L 132 388 L 134 389 L 134 373 L 133 372 L 134 368 L 134 365 L 131 360 Q 129 353 132 352 L 130 346 L 131 343 L 130 338 Z M 134 342 Q 133 345 136 344 Q 137 341 134 342 Z M 145 342 L 142 345 L 143 346 L 146 345 L 147 346 L 145 342 Z M 151 342 L 151 344 L 153 343 L 151 342 Z M 161 342 L 161 345 L 165 343 L 161 342 Z M 293 342 L 285 345 Q 273 353 269 369 Q 268 387 277 396 Q 283 403 295 405 L 307 405 L 320 398 Q 328 392 330 380 L 329 364 L 323 354 L 316 346 L 309 343 L 293 342 Z M 192 343 L 192 346 L 195 345 L 192 343 Z M 43 344 L 30 350 L 21 360 L 17 373 Q 16 387 22 395 Q 28 405 43 408 L 54 408 L 68 402 L 76 392 L 79 384 Q 81 365 73 357 Q 66 347 53 344 Q 46 342 45 345 L 43 344 Z M 188 344 L 187 347 L 188 347 L 188 344 Z M 250 344 L 248 346 L 250 346 L 250 344 Z M 137 345 L 134 349 L 135 351 L 137 347 L 137 345 Z M 161 345 L 160 351 L 163 349 L 161 348 L 161 345 Z M 142 346 L 138 353 Q 136 357 140 356 L 142 356 L 144 354 L 142 352 Q 139 353 140 351 L 143 349 L 142 346 Z M 245 346 L 244 352 L 246 352 L 245 346 Z M 8 351 Q 5 359 9 362 L 11 359 L 12 362 L 12 361 Q 14 358 15 361 L 13 365 L 8 362 L 7 367 Q 9 365 11 368 L 12 367 Q 15 369 12 370 L 10 369 L 8 369 L 7 378 L 10 378 L 10 377 L 14 379 L 14 377 L 14 375 L 12 374 L 15 369 L 17 361 L 19 359 L 18 354 L 16 355 L 8 351 Z M 176 351 L 176 352 L 178 352 L 176 351 Z M 190 352 L 189 355 L 191 355 L 190 352 Z M 88 358 L 89 360 L 90 360 L 88 358 Z M 229 358 L 230 360 L 233 359 L 229 358 Z M 139 359 L 139 362 L 142 363 L 143 361 L 139 359 Z M 193 360 L 192 365 L 194 364 L 193 360 Z M 153 361 L 154 364 L 157 363 Q 158 359 153 361 Z M 199 362 L 198 364 L 200 365 L 199 362 Z M 98 364 L 98 370 L 100 369 Q 103 370 102 367 L 98 364 Z M 139 365 L 138 369 L 142 367 L 139 365 Z M 153 366 L 154 368 L 157 367 L 153 366 Z M 197 366 L 197 375 L 197 373 L 200 371 L 197 366 Z M 83 369 L 82 372 L 83 372 L 83 369 Z M 144 369 L 144 371 Q 140 372 143 374 L 139 376 L 143 378 L 145 374 Q 148 375 146 371 L 149 371 L 144 369 Z M 157 369 L 156 370 Q 152 369 153 372 L 157 371 L 157 369 Z M 172 369 Q 169 375 161 374 L 162 377 L 169 373 Q 172 374 171 371 L 177 372 L 178 370 L 177 370 L 172 369 Z M 88 370 L 86 373 L 88 372 L 88 370 Z M 91 370 L 91 373 L 90 375 L 91 376 L 93 375 Q 94 371 91 370 Z M 96 370 L 96 373 L 95 377 L 98 375 Q 99 371 96 370 Z M 202 372 L 200 375 L 201 377 L 201 378 Q 203 379 202 376 L 204 376 L 202 372 Z M 157 373 L 155 376 L 157 375 L 157 373 Z M 180 373 L 177 375 L 173 374 Q 169 373 170 376 L 175 377 L 180 376 Q 183 375 180 373 Z M 147 374 L 148 376 L 150 376 Q 151 372 147 374 Z M 210 376 L 210 380 L 212 379 Q 211 384 214 385 L 214 382 L 217 382 L 210 376 Z M 233 376 L 231 379 L 228 380 L 229 382 L 234 379 L 233 376 Z M 100 377 L 98 383 L 101 381 L 100 377 Z M 168 377 L 161 380 L 162 383 L 169 378 L 168 377 Z M 206 377 L 205 385 L 206 385 L 206 377 Z M 237 377 L 237 382 L 239 379 L 237 377 Z M 242 377 L 240 380 L 241 382 L 240 385 Q 239 388 233 388 L 238 390 L 242 384 L 242 377 Z M 149 378 Q 149 382 151 379 L 149 378 Z M 169 378 L 170 381 L 159 389 L 156 388 L 155 391 L 148 392 L 146 392 L 148 394 Q 149 391 155 392 L 156 393 L 159 390 Q 162 389 161 393 L 155 395 L 153 394 L 149 395 L 151 398 L 155 396 Q 157 397 155 399 Q 154 401 157 400 L 158 400 L 158 403 L 154 403 L 154 405 L 148 408 L 146 408 L 149 413 L 152 412 L 151 410 L 152 407 Q 155 408 157 405 Q 159 404 158 407 L 158 408 L 161 407 L 160 405 L 164 403 L 164 401 L 160 402 L 158 395 L 162 394 Q 164 395 163 393 L 166 389 L 164 390 L 161 389 L 169 383 L 171 384 L 172 381 L 175 382 L 177 382 L 181 380 Q 183 381 182 378 L 179 379 Q 172 380 169 378 Z M 13 379 L 11 381 L 7 380 Q 6 387 10 390 L 10 387 L 13 388 L 14 384 Q 10 382 13 381 L 13 379 Z M 148 382 Q 147 385 151 384 Q 152 381 148 382 Z M 185 382 L 177 384 L 175 384 Q 169 383 171 387 Q 180 388 185 384 L 185 382 Z M 219 383 L 217 385 L 219 392 L 219 387 L 219 385 L 219 383 Z M 82 384 L 87 412 L 90 408 L 91 411 L 87 412 L 88 416 L 88 417 L 92 417 Q 91 414 94 413 L 89 406 Q 90 403 86 404 Q 85 401 88 402 L 89 400 L 88 400 L 86 397 Q 90 396 89 399 L 92 398 Q 94 397 93 400 L 90 401 Q 89 405 94 403 L 95 400 L 96 403 L 98 402 L 97 400 L 98 396 Q 96 392 95 396 L 92 396 L 96 393 L 95 388 L 94 388 L 84 387 L 82 384 Z M 102 384 L 101 387 L 102 387 L 102 384 Z M 148 386 L 147 390 L 149 389 Q 153 390 152 388 L 150 386 L 148 386 Z M 140 387 L 138 389 Q 137 391 140 390 L 140 387 Z M 168 387 L 166 389 L 168 389 L 168 387 Z M 209 387 L 208 389 L 210 392 L 211 392 L 209 387 Z M 222 387 L 223 390 L 222 394 Q 221 396 220 394 L 217 395 L 214 390 L 212 393 Q 214 392 213 395 L 218 397 L 221 396 L 224 401 L 231 405 L 233 404 L 235 406 L 233 393 L 232 393 Q 231 398 233 400 L 231 403 L 228 396 L 227 398 L 224 398 L 224 388 L 222 387 Z M 14 390 L 12 392 Q 5 390 7 395 Q 13 396 14 392 L 14 390 Z M 270 391 Q 268 394 271 393 L 270 391 Z M 141 392 L 139 394 L 141 396 L 144 394 Q 145 390 141 392 Z M 117 393 L 117 395 L 120 396 L 119 395 Q 120 392 117 393 Z M 15 394 Q 14 398 9 397 L 8 399 L 12 399 Q 13 395 19 396 Q 20 392 15 394 Z M 194 395 L 184 400 L 180 399 Q 178 401 174 400 Q 172 398 171 401 L 172 403 L 171 405 Q 178 404 183 407 L 183 405 L 192 404 L 195 402 L 196 400 L 182 405 L 180 404 Q 175 405 176 403 L 178 401 Q 186 402 191 399 L 194 397 L 194 395 Z M 18 397 L 13 401 L 7 401 L 9 404 L 15 403 L 17 400 L 20 401 L 13 406 L 9 405 L 7 408 L 10 409 L 14 409 L 21 404 Q 27 405 26 403 Q 25 400 24 402 L 21 401 L 22 399 Q 21 396 20 398 L 18 397 Z M 105 397 L 103 399 Q 102 401 105 400 L 105 397 Z M 145 397 L 144 398 Q 140 397 141 401 L 143 402 L 143 400 L 147 400 L 147 398 L 145 397 Z M 78 398 L 77 408 L 77 410 L 76 412 L 77 417 L 82 417 L 82 416 L 82 414 L 78 398 Z M 128 398 Q 127 402 130 401 Q 131 397 128 398 Z M 219 400 L 217 402 Q 216 404 219 403 L 219 400 Z M 73 401 L 71 409 L 69 412 Q 67 417 71 416 L 73 411 L 73 401 Z M 107 401 L 102 403 L 107 403 L 107 401 Z M 151 401 L 144 404 L 146 407 Q 148 403 153 403 L 151 401 Z M 114 402 L 113 405 L 114 405 L 114 402 Z M 124 402 L 123 405 L 124 405 L 124 402 Z M 132 403 L 130 405 Q 129 408 134 406 L 133 405 Q 134 402 132 403 Z M 168 403 L 167 404 Q 162 403 163 406 L 168 405 L 168 403 Z M 223 403 L 222 406 L 223 406 L 223 403 Z M 117 404 L 118 408 L 119 408 Q 120 403 117 404 Z M 226 404 L 226 410 L 228 409 L 227 407 Q 228 403 226 404 Z M 24 405 L 13 411 L 11 410 Q 6 408 7 412 Q 8 415 15 414 Q 17 409 19 413 Q 17 416 12 415 L 10 415 Q 6 414 7 417 L 14 419 L 23 415 L 23 412 Q 20 413 21 410 L 24 411 L 26 408 Q 27 404 24 405 Z M 67 405 L 64 408 Q 62 412 66 411 L 68 406 L 67 405 Z M 139 405 L 133 410 L 135 413 L 137 412 L 140 408 L 139 405 Z M 217 405 Q 215 408 218 407 L 217 405 Z M 194 406 L 193 407 Q 186 405 187 409 L 190 410 Q 192 411 191 408 L 196 407 L 194 406 Z M 320 406 L 320 409 L 323 410 L 322 408 Q 323 405 320 406 Z M 216 407 L 213 413 Q 211 418 205 419 Q 203 422 201 421 L 203 423 L 208 420 Q 214 416 216 409 L 216 407 Z M 220 407 L 217 416 L 206 425 Q 203 424 204 427 L 212 424 L 218 418 L 221 410 L 220 407 Z M 231 407 L 231 410 Q 230 413 233 412 L 234 411 L 231 407 Z M 36 408 L 35 411 L 36 411 L 36 408 Z M 114 408 L 113 410 Q 115 411 112 413 L 113 414 L 115 413 L 117 415 L 114 408 Z M 168 408 L 154 414 L 143 428 L 141 439 L 142 449 L 145 456 L 151 464 Q 158 470 169 472 L 176 472 L 186 470 L 196 462 L 202 452 L 203 447 L 203 432 Q 200 423 195 417 Q 192 418 193 415 L 182 409 L 170 408 L 168 408 Z M 59 409 L 58 411 L 61 411 L 59 409 Z M 255 409 L 254 412 L 255 412 L 255 409 Z M 29 410 L 27 412 Q 26 414 29 413 L 29 410 Z M 324 410 Q 325 413 322 412 L 320 412 Q 321 414 319 413 Q 316 414 318 416 Q 319 418 317 417 L 314 414 L 312 416 L 314 418 L 315 423 L 324 429 L 327 428 L 326 426 Q 323 427 324 424 L 328 423 L 329 420 Q 331 421 329 423 L 331 427 L 334 424 Q 333 419 335 418 L 335 416 L 330 419 L 329 417 L 330 415 L 333 414 L 332 410 L 331 412 L 328 414 L 329 411 L 324 410 Z M 336 410 L 335 413 L 336 413 L 336 410 Z M 121 411 L 122 413 Q 123 410 121 411 Z M 222 411 L 219 421 L 221 421 L 226 413 L 228 416 L 229 414 L 222 411 Z M 128 412 L 125 414 L 123 417 Q 121 421 119 417 L 115 422 L 117 422 L 118 421 L 121 425 L 118 430 L 118 431 Q 120 428 124 429 L 125 432 L 124 434 L 128 437 L 126 440 Q 123 439 124 442 L 127 443 L 128 439 L 135 437 L 133 434 L 129 435 L 125 429 L 133 426 L 133 425 Q 128 426 129 424 L 133 421 L 135 424 L 135 422 L 132 419 Q 127 420 128 425 L 123 426 L 121 421 Q 127 421 130 417 L 128 412 Z M 141 413 L 140 415 Q 144 414 142 418 L 139 420 L 140 421 L 146 418 L 147 416 Q 144 417 145 415 Q 144 412 143 414 L 141 413 Z M 137 415 L 137 417 L 139 416 L 137 415 Z M 227 417 L 224 421 L 227 419 L 227 417 Z M 20 418 L 16 420 Q 9 421 7 419 L 10 423 L 17 422 L 22 419 L 20 418 Z M 230 420 L 228 423 L 230 422 L 230 420 Z M 311 420 L 309 422 L 311 422 Q 313 423 312 429 Q 314 433 316 430 Q 319 431 318 428 L 316 429 L 316 428 L 312 422 Q 313 419 311 420 Z M 20 421 L 16 424 L 11 425 L 7 424 Q 6 427 9 426 Q 10 430 7 430 L 7 435 L 10 434 L 8 433 Q 7 429 10 430 L 11 433 L 12 431 L 16 428 Q 15 424 18 425 L 19 429 L 20 429 L 19 425 L 21 425 L 22 423 Q 23 420 20 421 Z M 224 421 L 220 426 L 224 423 L 224 421 Z M 36 422 L 36 424 L 39 424 L 36 422 Z M 217 423 L 214 427 L 217 425 L 217 423 Z M 24 424 L 25 427 L 26 425 L 24 424 Z M 245 424 L 246 426 Q 247 423 245 424 Z M 31 425 L 28 432 L 32 429 L 31 425 Z M 224 425 Q 225 428 223 427 L 220 431 L 208 440 L 215 442 L 217 442 L 223 440 Q 226 442 222 444 Q 221 446 224 445 L 229 452 Q 231 451 230 455 L 232 454 Q 236 455 235 453 Q 234 450 233 452 L 231 449 Q 230 442 233 440 L 232 432 L 234 430 L 237 434 L 235 447 L 233 449 L 237 452 L 243 451 L 246 448 L 245 444 Q 244 438 246 437 L 245 429 L 240 425 L 235 426 L 224 425 Z M 24 427 L 20 433 L 20 435 Q 19 437 22 436 L 24 431 L 24 427 Z M 137 427 L 133 431 L 134 432 L 138 429 Q 139 426 137 427 Z M 212 427 L 208 429 L 206 432 L 212 430 L 213 428 L 212 427 Z M 34 428 L 33 431 L 34 431 L 34 428 Z M 217 428 L 212 432 L 211 434 L 216 432 L 217 430 L 217 428 Z M 139 429 L 137 433 L 139 434 L 139 429 Z M 308 429 L 307 448 L 306 449 L 310 450 Q 312 451 311 448 L 315 448 L 315 447 Q 312 448 313 445 L 317 445 L 320 447 L 321 445 L 316 442 Q 312 443 313 440 L 321 442 L 325 436 L 329 437 L 334 436 Q 335 438 336 436 L 332 433 Q 329 434 330 431 L 335 432 L 334 429 L 329 431 L 327 430 Q 323 429 324 432 Q 323 434 320 433 L 317 434 Q 310 433 308 429 Z M 16 430 L 18 432 Q 19 429 16 430 Z M 37 431 L 37 434 L 39 433 Q 40 430 37 431 Z M 13 433 L 11 436 Q 10 438 14 437 L 15 434 L 13 433 Z M 27 433 L 26 439 Q 29 440 28 438 Q 29 435 31 437 L 32 433 L 30 434 L 27 433 Z M 122 434 L 122 436 L 124 435 L 122 434 Z M 115 435 Q 113 438 116 437 L 115 435 Z M 136 437 L 136 439 L 138 440 Q 139 436 136 437 Z M 330 437 L 327 439 Q 325 437 324 440 L 325 443 L 324 448 L 323 447 L 322 449 L 315 452 L 313 457 L 317 458 L 321 457 L 325 462 L 325 458 L 322 457 Q 321 454 325 455 L 328 458 L 325 454 L 326 452 L 331 454 Q 332 451 330 452 L 328 449 L 331 450 L 332 450 L 329 445 L 334 446 L 333 443 Q 329 444 330 441 Q 334 440 336 443 L 336 440 L 330 437 Z M 95 438 L 89 447 L 82 446 L 80 450 Q 81 452 79 451 L 77 451 L 74 454 L 75 456 L 75 454 L 82 453 Q 83 455 88 454 L 90 458 L 91 455 L 98 452 L 102 453 L 106 458 L 107 456 L 101 451 L 95 438 Z M 37 439 L 34 440 L 33 446 L 34 449 L 37 441 L 37 439 Z M 73 439 L 72 442 L 75 443 L 73 439 Z M 112 439 L 112 449 L 114 454 L 115 454 L 113 441 L 112 439 Z M 118 439 L 118 449 L 120 452 L 120 447 L 122 447 L 118 439 Z M 134 439 L 133 440 Q 130 439 131 443 Q 133 447 135 444 Q 137 438 134 439 Z M 54 440 Q 51 446 44 448 L 42 451 L 45 450 L 48 451 L 50 456 L 48 460 L 52 465 L 55 463 L 58 464 L 58 460 L 63 457 L 57 456 Q 58 460 56 461 L 52 461 L 52 454 Q 56 452 66 453 Q 67 457 69 454 Q 65 451 64 446 L 59 447 Q 54 446 54 440 Z M 24 442 L 21 447 L 24 447 Q 25 449 26 447 Q 28 441 24 442 Z M 139 443 L 137 446 L 139 445 L 139 443 Z M 128 444 L 124 445 L 126 450 L 128 447 L 128 444 Z M 132 447 L 130 450 L 132 449 L 132 447 Z M 219 447 L 218 449 L 220 448 L 219 447 Z M 15 448 L 13 450 L 15 450 L 15 448 Z M 21 448 L 18 454 L 22 456 L 25 454 L 28 456 L 23 464 L 20 463 L 21 458 Q 18 459 17 456 L 15 459 L 18 460 L 18 462 L 15 461 L 15 459 L 12 467 L 14 466 L 23 466 L 24 467 L 26 463 L 28 464 L 30 449 L 28 450 L 26 448 Q 24 451 21 450 L 21 448 Z M 316 448 L 317 450 Q 318 447 316 448 Z M 139 449 L 137 451 Q 136 455 140 453 L 140 449 L 139 449 Z M 216 449 L 214 450 L 213 452 L 217 450 L 216 449 Z M 223 449 L 218 452 L 219 454 L 223 452 L 223 449 Z M 248 449 L 244 453 L 231 457 L 238 466 L 245 471 L 248 470 L 255 471 L 260 480 Q 261 484 259 486 Q 258 488 263 487 L 265 487 Q 276 485 283 479 Q 285 499 297 510 L 297 517 L 295 524 Q 297 531 294 535 L 292 536 Q 289 537 290 541 Q 297 540 301 537 L 300 534 L 301 521 L 303 515 Q 305 506 300 505 L 300 496 Q 306 488 305 476 Q 309 475 311 478 Q 313 477 312 480 L 314 479 L 314 481 L 321 485 L 334 486 L 336 483 L 326 482 L 325 480 L 327 481 L 335 481 L 335 478 Q 332 477 333 480 L 330 479 Q 324 481 325 478 L 325 476 Q 324 473 319 474 L 320 467 L 325 470 L 321 470 Q 320 473 323 472 Q 324 475 326 471 L 327 474 L 328 474 L 327 466 Q 331 467 332 465 L 328 464 L 326 467 Q 323 468 324 466 L 321 466 L 317 465 L 314 468 L 313 467 L 312 469 L 315 470 L 317 474 Q 316 476 319 475 L 323 480 L 317 476 L 312 470 L 310 471 L 303 470 L 300 467 L 294 462 L 292 462 L 287 460 L 286 462 L 281 463 L 271 463 L 263 461 L 253 455 L 248 449 Z M 205 450 L 203 455 Q 202 457 205 456 L 206 460 L 209 461 L 211 461 L 213 462 L 214 459 L 211 460 Q 210 457 213 458 L 214 456 L 213 455 L 210 459 L 208 460 L 210 456 L 208 457 L 207 456 L 210 452 Q 206 451 207 454 L 205 455 L 207 452 Q 208 449 205 450 Z M 312 450 L 313 452 L 314 452 L 312 450 Z M 38 451 L 35 452 L 34 456 L 35 461 L 37 462 L 36 455 L 41 452 L 38 451 Z M 132 451 Q 129 452 130 456 L 134 457 L 132 451 Z M 8 452 L 9 461 L 12 454 L 8 452 Z M 210 453 Q 209 456 212 455 Q 213 452 210 453 Z M 266 453 L 265 456 L 266 456 L 266 453 Z M 310 453 L 311 455 L 312 455 L 310 453 Z M 116 454 L 116 459 L 115 461 Q 119 462 118 469 L 122 466 L 122 463 L 116 454 Z M 307 454 L 305 456 L 309 457 L 310 458 Q 311 455 308 456 L 308 454 L 307 454 Z M 139 455 L 139 458 L 141 459 Q 142 454 139 455 Z M 221 455 L 221 456 L 231 462 L 232 462 L 231 460 Q 228 455 221 455 Z M 260 455 L 262 459 L 264 459 L 261 457 Q 262 454 260 455 Z M 282 456 L 281 459 L 282 459 L 282 456 Z M 41 457 L 41 461 L 41 462 L 37 462 L 37 464 L 46 473 L 44 478 L 42 479 L 36 478 L 35 482 L 37 487 L 39 484 L 46 479 L 52 479 L 41 457 Z M 112 457 L 110 467 L 106 473 L 104 474 L 102 477 L 107 476 L 111 472 L 114 463 L 112 457 Z M 127 457 L 126 462 L 132 460 L 134 461 L 135 463 L 137 462 L 135 459 L 134 459 Q 128 460 127 457 Z M 75 458 L 73 465 Q 72 468 76 467 L 78 467 Q 81 467 79 461 L 78 461 L 75 460 L 75 458 Z M 85 458 L 84 466 L 88 466 Q 87 469 90 468 L 93 463 L 93 460 L 91 459 L 88 463 L 85 462 L 85 458 Z M 219 458 L 218 460 L 216 459 L 214 462 Q 218 463 219 461 L 219 458 Z M 297 459 L 295 461 L 297 461 L 299 463 L 298 461 Q 299 458 297 459 Z M 309 459 L 304 460 Q 301 461 302 467 L 304 468 L 303 466 L 305 462 L 307 467 L 309 464 L 313 466 Q 315 467 314 461 Q 313 458 309 459 Z M 319 459 Q 317 463 321 464 L 323 464 L 322 463 L 319 459 Z M 331 459 Q 330 462 333 461 Q 334 458 331 459 Z M 64 460 L 62 466 Q 63 468 65 466 L 67 467 Q 69 468 68 462 L 65 462 L 64 460 Z M 102 460 L 90 480 L 94 480 L 98 483 L 101 492 Q 104 489 103 482 Q 102 479 98 480 Q 97 477 100 478 L 99 476 Q 96 477 97 474 L 102 472 L 106 466 L 106 463 L 105 465 L 102 466 L 100 466 L 102 463 L 102 460 Z M 222 460 L 222 462 L 224 461 L 222 460 Z M 123 461 L 123 463 L 125 464 Q 126 460 123 461 Z M 146 461 L 144 465 Q 146 468 147 465 L 146 461 Z M 200 461 L 199 463 L 201 462 L 200 461 Z M 204 461 L 198 467 L 201 467 L 204 463 L 204 461 Z M 225 461 L 225 463 L 227 462 L 225 461 Z M 31 462 L 30 466 L 32 465 L 34 472 L 41 475 L 31 462 Z M 139 462 L 136 467 L 137 468 L 142 464 L 139 462 Z M 207 462 Q 205 467 207 470 Q 213 470 217 475 Q 219 476 218 480 L 221 482 L 221 483 L 218 481 L 211 472 L 209 473 L 215 479 L 215 481 L 221 484 L 222 488 Q 225 489 224 487 L 230 484 Q 233 483 232 478 L 235 478 L 235 483 L 230 486 L 228 487 L 228 494 L 227 493 L 225 496 L 227 495 Q 231 494 229 499 Q 231 503 233 500 L 235 501 L 238 500 L 240 496 Q 238 488 242 489 L 243 491 L 243 499 Q 240 503 232 503 L 229 502 L 229 521 L 230 525 L 245 548 L 247 559 Q 248 563 246 565 L 253 570 L 254 570 Q 251 566 252 559 Q 254 552 263 552 L 265 552 L 268 554 L 268 555 L 261 555 L 255 561 L 254 566 L 262 580 L 273 586 L 274 590 L 272 591 L 264 588 L 259 588 L 256 586 Q 250 585 248 589 L 249 591 Q 250 593 252 591 L 268 592 L 269 593 L 286 593 L 292 591 L 294 589 L 292 579 L 296 575 L 300 574 Q 306 574 309 577 L 312 576 L 315 577 L 322 576 L 331 572 L 335 567 L 335 553 L 332 551 Q 331 556 334 559 L 334 562 L 329 569 L 321 573 L 316 572 L 310 568 L 294 549 L 294 547 Q 293 544 292 546 L 272 534 L 262 525 Q 259 526 260 524 L 258 522 L 252 517 L 251 512 L 248 507 L 249 504 L 249 488 L 251 487 L 253 490 L 256 487 L 256 477 L 251 472 L 247 472 L 247 477 L 245 477 L 244 474 Q 241 475 242 473 Q 242 469 237 469 L 235 469 L 233 467 L 230 464 L 229 466 L 233 470 L 215 464 Q 210 463 209 466 L 207 462 Z M 228 462 Q 226 465 229 464 L 228 462 Z M 233 462 Q 231 465 234 464 L 233 462 Z M 131 463 L 128 467 L 131 477 L 135 483 L 140 485 L 143 480 L 147 481 L 150 477 L 150 475 L 146 476 L 144 476 L 141 475 Q 140 470 142 469 Q 143 466 140 467 L 139 473 L 135 474 L 132 471 Q 133 465 131 463 Z M 235 464 L 234 466 L 237 467 L 235 464 Z M 58 465 Q 58 469 53 467 L 57 474 L 57 473 L 58 470 L 58 465 Z M 150 466 L 146 468 L 146 470 L 145 474 Q 148 475 147 471 L 151 469 Q 152 471 153 469 L 150 466 Z M 10 468 Q 9 471 12 470 Q 13 467 10 468 Z M 16 468 L 17 473 L 20 474 L 21 471 L 21 468 L 16 468 Z M 25 468 L 26 472 L 27 469 L 25 468 Z M 203 468 L 203 470 L 205 469 L 203 468 Z M 332 468 L 331 470 L 335 471 L 336 468 L 334 469 L 332 468 Z M 85 469 L 83 475 L 84 477 L 88 471 L 85 469 Z M 124 469 L 122 471 Q 121 473 124 472 L 124 469 Z M 191 469 L 189 470 L 185 475 Q 188 478 188 485 L 190 484 L 189 481 Q 192 479 191 476 L 198 474 L 199 475 L 198 472 Q 195 473 196 470 L 191 469 Z M 157 470 L 156 472 L 156 473 L 159 472 L 157 470 Z M 116 471 L 113 475 L 116 475 L 116 471 Z M 152 471 L 150 473 Q 149 475 152 474 Q 155 473 152 471 Z M 13 472 Q 10 476 14 475 L 15 476 L 13 472 Z M 28 472 L 27 484 L 27 485 L 29 484 Q 31 483 30 487 L 26 489 L 27 497 L 30 496 Q 33 495 32 498 L 29 499 L 31 502 L 35 499 L 35 491 L 31 485 L 31 482 L 28 481 L 30 478 Q 32 479 31 477 Q 34 475 30 474 Q 31 471 28 472 Z M 159 472 L 159 474 Q 158 476 154 475 L 153 478 L 154 479 L 157 477 Q 160 476 159 480 L 156 481 L 155 484 Q 151 483 152 486 Q 156 487 158 483 L 160 484 L 169 479 Q 170 476 167 477 L 168 475 L 159 472 Z M 177 474 L 175 476 Q 174 480 180 478 L 181 479 L 180 477 Q 181 472 177 474 Z M 206 474 Q 203 478 196 477 L 197 480 L 194 481 L 195 484 L 191 486 Q 187 488 191 490 Q 192 494 188 495 L 189 496 L 194 495 L 193 489 L 204 486 L 203 482 Q 201 475 207 477 L 209 485 L 211 484 Q 215 485 214 482 L 210 483 Q 210 477 206 474 Z M 332 474 L 332 476 L 336 475 L 332 474 Z M 22 475 L 20 478 L 22 477 L 24 478 L 24 476 L 22 475 Z M 117 475 L 115 477 L 112 476 Q 110 479 107 478 L 108 483 L 107 490 L 105 494 L 100 496 L 99 502 L 102 503 L 108 496 L 111 497 L 114 496 Q 115 499 111 498 L 108 503 L 109 504 L 119 497 L 120 500 L 124 500 L 121 496 Q 122 493 120 494 L 118 495 L 119 493 L 118 487 L 115 489 Q 112 490 113 487 L 116 486 Q 119 487 117 483 L 113 483 L 118 479 L 117 475 Z M 16 478 L 16 482 L 20 481 Q 21 476 16 478 Z M 183 478 L 181 483 L 182 488 L 183 488 L 183 478 Z M 53 479 Q 53 482 50 481 L 49 485 L 51 484 L 54 486 L 55 489 L 54 493 L 57 494 L 58 490 Q 57 483 53 479 Z M 63 480 L 62 484 L 63 484 L 63 480 Z M 125 480 L 124 485 L 126 485 L 125 480 Z M 152 480 L 150 481 L 148 484 L 152 482 L 152 480 Z M 171 480 L 169 483 L 174 482 L 175 484 L 179 481 L 171 480 Z M 14 484 L 13 486 Q 14 489 18 488 L 19 486 L 14 484 Z M 88 484 L 86 487 L 88 486 L 88 484 Z M 164 484 L 164 486 L 172 487 L 174 484 L 171 486 L 164 484 Z M 23 485 L 21 489 L 23 488 L 23 485 Z M 311 485 L 310 487 L 317 487 L 311 485 Z M 318 485 L 319 486 L 320 487 Q 321 484 318 485 Z M 8 486 Q 5 490 9 489 L 8 486 Z M 123 486 Q 120 491 124 490 L 123 486 Z M 141 486 L 137 488 L 146 492 L 144 490 Q 146 484 141 486 Z M 280 486 L 280 492 L 287 506 Q 285 509 286 516 L 282 525 L 279 528 Q 274 527 273 529 Q 270 528 271 531 L 276 534 L 274 532 L 284 530 L 284 527 L 290 514 L 295 512 L 296 513 Q 287 504 282 492 Q 284 485 280 486 Z M 42 487 L 41 490 L 42 490 L 42 487 Z M 63 487 L 62 492 L 63 492 L 63 487 Z M 176 487 Q 175 491 178 490 Q 179 486 176 487 Z M 334 487 L 331 491 L 330 497 Q 331 500 335 499 L 335 488 L 334 487 Z M 151 488 L 151 491 L 147 493 L 152 495 L 158 492 L 162 492 L 165 490 L 163 489 Q 161 487 160 490 L 156 489 L 154 489 L 151 488 Z M 308 488 L 303 496 L 303 499 L 313 499 L 314 496 L 313 492 L 308 488 Z M 21 489 L 20 492 L 21 492 L 21 489 Z M 84 489 L 84 492 L 87 493 Q 89 487 84 489 Z M 169 489 Q 168 493 171 492 Q 172 488 169 489 Z M 317 489 Q 315 495 319 498 L 316 499 L 318 505 L 324 507 L 326 506 L 328 503 L 327 497 L 325 494 L 320 495 Q 319 492 322 493 L 322 491 L 319 492 L 317 489 Z M 188 490 L 186 492 L 187 493 L 189 492 Q 190 489 188 490 Z M 221 490 L 220 493 L 221 493 L 221 490 Z M 7 491 L 7 493 L 12 493 L 12 495 L 7 495 L 7 497 L 14 496 L 16 493 L 7 491 Z M 74 491 L 73 493 L 77 496 Q 79 497 78 495 L 74 491 Z M 132 491 L 130 493 L 127 492 L 129 496 L 131 495 Q 132 491 134 494 L 138 493 L 137 491 L 135 492 L 132 491 Z M 17 493 L 17 496 L 23 495 L 24 493 L 22 494 L 17 493 Z M 47 493 L 46 496 L 47 496 L 47 493 Z M 163 493 L 161 497 L 164 495 Q 165 492 163 493 Z M 142 494 L 140 497 L 142 497 L 142 494 Z M 84 495 L 83 497 L 88 497 L 88 495 L 86 496 L 84 495 Z M 173 495 L 171 497 L 174 500 L 175 497 L 173 495 Z M 180 495 L 179 499 L 181 500 Q 182 496 180 495 Z M 137 496 Q 135 499 138 498 L 137 496 Z M 24 497 L 23 500 L 24 500 L 24 497 Z M 68 497 L 67 500 L 70 500 Q 71 496 68 497 Z M 191 497 L 186 498 L 187 501 L 191 499 L 191 497 Z M 166 498 L 164 501 L 165 504 L 166 504 L 166 498 Z M 7 499 L 7 501 L 9 500 L 14 501 L 14 499 L 7 499 Z M 85 499 L 85 502 Q 87 505 88 502 Q 89 497 85 499 Z M 195 499 L 190 502 L 191 503 L 196 502 L 195 499 Z M 221 499 L 215 501 Q 212 500 213 503 Q 216 504 214 506 Q 215 508 217 506 Q 221 507 219 502 L 223 501 L 221 499 Z M 125 500 L 121 503 L 118 502 L 117 506 Q 116 508 119 507 L 120 512 L 116 514 Q 114 516 113 514 L 117 511 L 116 510 L 115 509 L 111 513 L 113 518 L 111 521 L 115 519 L 115 523 L 119 525 Q 125 525 128 521 L 126 507 L 125 507 Q 119 509 120 506 Q 121 503 125 504 L 125 500 Z M 132 500 L 133 507 L 135 506 L 134 504 L 135 502 L 132 500 Z M 11 502 Q 10 505 13 504 Q 14 501 11 502 Z M 48 502 L 48 505 L 51 507 Q 53 500 48 502 Z M 206 502 L 198 504 L 196 506 Q 193 505 194 509 L 198 511 L 197 514 L 203 524 L 205 523 Q 209 522 210 525 L 214 524 L 211 516 L 211 510 L 206 511 L 204 514 L 202 515 L 199 510 L 201 507 Q 204 506 203 509 L 210 508 L 209 504 Q 210 501 206 502 Z M 303 502 L 303 504 L 305 503 L 309 504 Q 315 506 314 502 L 312 503 L 311 502 L 303 502 Z M 332 502 L 332 503 L 335 503 L 332 502 Z M 113 504 L 108 508 L 104 505 L 98 506 L 95 516 L 91 519 L 100 519 L 103 521 L 109 518 L 104 515 L 108 512 L 113 506 L 113 504 Z M 186 504 Q 184 507 187 506 L 186 504 Z M 192 504 L 188 506 L 189 508 Q 191 509 190 506 L 193 505 L 192 504 Z M 31 505 Q 29 509 32 511 L 31 514 L 28 513 L 26 514 L 29 518 L 35 518 L 39 522 L 44 524 L 45 524 L 41 521 L 37 511 L 31 505 Z M 56 505 L 53 508 L 55 512 L 57 513 L 57 506 L 56 505 Z M 86 505 L 82 507 L 83 514 L 87 507 Q 88 504 86 505 Z M 149 506 Q 150 509 147 508 L 147 513 L 151 510 Q 152 505 149 506 Z M 166 506 L 153 512 Q 144 519 141 532 L 142 548 L 146 556 L 158 566 L 171 570 L 184 568 L 193 562 Q 200 556 203 545 Q 204 534 202 528 L 196 517 Q 188 504 166 506 Z M 11 507 L 13 512 L 12 514 L 13 516 Q 15 521 9 519 L 10 521 L 11 520 L 19 520 L 17 515 L 19 510 Q 13 511 11 507 Z M 142 507 L 141 510 L 142 510 L 142 507 Z M 305 507 L 305 509 L 308 509 L 305 507 Z M 217 508 L 215 510 L 215 515 L 221 523 L 223 522 Q 222 517 226 519 L 225 510 L 224 510 L 221 510 L 221 508 L 217 508 Z M 310 508 L 310 509 L 313 509 L 310 508 Z M 317 508 L 317 511 L 324 510 L 324 508 L 317 508 Z M 328 508 L 324 513 Q 325 516 322 515 Q 321 518 325 517 Q 326 521 321 519 L 322 522 L 317 533 L 324 532 L 331 524 L 327 516 L 328 511 L 328 508 Z M 333 508 L 333 509 L 335 509 L 333 508 Z M 49 509 L 48 512 L 53 516 L 54 516 L 49 509 Z M 64 510 L 65 518 L 67 517 L 68 521 L 69 521 Q 67 515 73 517 L 74 522 L 75 515 L 74 513 Q 75 508 71 510 L 69 516 L 66 515 Q 68 509 64 510 Z M 306 510 Q 304 513 308 512 L 311 513 Q 316 511 315 516 L 313 516 L 304 515 L 305 517 L 317 517 L 316 514 Q 317 511 315 512 L 313 512 L 306 510 Z M 8 512 L 7 516 L 8 516 L 8 512 Z M 133 512 L 130 525 L 128 526 L 124 525 L 123 528 L 133 529 L 135 526 L 132 522 L 136 514 Q 134 515 133 512 Z M 332 512 Q 331 514 334 513 L 335 514 Q 336 511 332 512 Z M 257 515 L 256 518 L 257 518 L 257 515 Z M 311 519 L 310 520 Q 303 518 304 522 Q 308 520 318 521 L 319 522 L 318 519 L 316 520 L 313 519 L 311 519 Z M 12 523 L 12 525 L 16 524 L 12 523 Z M 97 524 L 97 525 L 101 525 L 97 524 Z M 303 524 L 303 526 L 307 525 L 313 527 L 317 526 L 317 524 L 303 524 Z M 335 524 L 332 527 Q 331 529 335 528 L 335 524 Z M 18 525 L 16 527 L 18 527 L 18 525 Z M 102 525 L 103 527 L 105 527 L 102 525 Z M 220 525 L 221 528 Q 220 533 224 531 L 223 527 Q 224 523 220 525 Z M 9 526 Q 8 529 11 528 Q 12 525 9 526 Z M 213 526 L 212 527 L 210 528 L 210 533 L 209 533 L 207 533 L 206 545 L 205 546 L 206 548 L 206 547 L 211 543 L 217 545 Q 219 544 218 547 L 219 547 L 218 537 Q 216 541 212 540 L 213 538 L 211 533 L 215 531 L 217 533 L 216 531 Q 218 524 213 526 Z M 67 527 L 67 529 L 70 530 L 76 528 L 91 528 L 67 527 Z M 94 527 L 93 529 L 98 531 Q 102 532 101 529 L 94 527 Z M 287 527 L 287 528 L 289 528 L 287 527 Z M 293 527 L 292 530 L 288 532 L 292 533 L 294 530 L 293 527 Z M 14 528 L 12 531 L 14 530 L 14 528 Z M 24 528 L 24 529 L 32 529 L 32 531 L 34 530 L 39 531 Q 44 533 43 529 L 41 530 L 33 528 L 24 528 Z M 55 528 Q 53 531 48 529 L 46 532 L 51 530 Q 57 529 59 532 L 59 531 L 55 528 Z M 113 528 L 111 530 L 107 529 Q 103 528 104 531 Q 103 534 98 533 L 96 533 L 90 535 Q 92 538 99 537 L 101 540 L 100 542 L 102 544 L 106 543 L 110 543 L 110 550 L 115 551 L 114 547 L 120 544 L 124 542 Q 126 543 125 540 Q 120 541 117 537 Q 121 534 120 529 L 118 530 L 113 528 Z M 206 528 L 205 532 L 206 532 L 206 528 Z M 305 528 Q 302 529 303 534 Q 306 536 314 535 L 315 530 L 313 531 L 313 533 L 307 533 L 305 533 L 304 530 L 313 530 L 305 528 Z M 229 529 L 228 530 Q 225 529 226 534 L 230 535 L 229 538 L 225 537 L 223 537 L 223 549 L 225 551 L 225 547 L 228 546 L 227 542 L 233 538 Q 234 541 236 539 Q 239 540 238 545 L 234 548 L 235 549 Q 236 546 241 547 L 239 541 L 231 531 Q 232 528 229 529 Z M 17 530 L 13 534 L 14 535 L 19 531 L 17 530 Z M 77 530 L 74 531 L 74 532 L 79 532 L 77 530 Z M 80 530 Q 79 533 84 532 L 89 533 L 92 532 L 89 530 L 87 531 L 85 530 L 83 531 L 80 530 Z M 335 530 L 334 531 L 327 531 L 326 533 L 326 534 L 335 533 L 335 530 Z M 127 531 L 128 533 L 130 532 L 127 531 Z M 285 531 L 285 532 L 287 532 L 285 531 Z M 33 532 Q 32 535 35 534 Q 36 531 33 532 Z M 53 532 L 50 533 L 50 534 L 55 534 L 53 532 Z M 65 532 L 65 536 Q 68 537 67 535 L 70 533 L 65 532 Z M 19 533 L 20 536 L 23 535 L 19 533 Z M 74 534 L 76 536 L 78 535 L 74 534 Z M 81 535 L 81 536 L 83 536 L 81 535 Z M 280 535 L 281 538 L 283 537 L 280 535 Z M 287 535 L 288 536 L 289 537 Q 290 534 287 535 Z M 329 536 L 318 538 Q 312 540 311 537 L 309 538 L 309 539 L 335 539 L 335 536 L 331 537 L 329 536 Z M 303 537 L 302 539 L 307 539 Q 306 536 303 537 Z M 51 538 L 48 539 L 45 546 L 44 556 L 43 557 Q 38 558 37 556 L 34 560 L 26 561 L 22 566 L 40 563 L 41 566 L 36 569 Q 33 568 34 571 L 37 570 Q 41 569 42 572 Q 40 577 44 576 L 45 574 L 50 571 Q 51 574 54 573 L 55 577 L 59 579 L 62 574 L 59 569 L 59 566 L 65 566 L 65 565 L 64 563 L 57 562 L 55 560 L 60 556 L 63 548 L 62 548 L 55 547 L 56 544 L 55 540 Q 54 537 51 538 Z M 83 539 L 83 541 Q 88 540 90 544 L 90 542 L 83 539 Z M 285 539 Q 286 543 291 544 L 293 544 L 296 543 L 295 541 L 293 542 L 285 539 Z M 96 541 L 94 545 L 96 544 L 96 541 Z M 299 542 L 299 543 L 301 543 L 299 542 Z M 303 542 L 303 543 L 310 543 L 303 542 Z M 312 542 L 312 543 L 316 543 L 312 542 Z M 318 542 L 318 543 Q 329 542 335 544 L 335 542 L 318 542 Z M 8 545 L 7 552 L 8 553 L 9 561 L 11 551 L 16 547 L 17 545 L 15 546 L 8 545 Z M 92 546 L 94 548 Q 95 545 92 546 Z M 297 546 L 298 547 L 300 547 L 305 548 L 327 548 L 328 547 L 335 549 L 335 546 L 315 546 L 314 547 L 310 546 L 307 547 Q 303 545 297 546 Z M 126 547 L 126 551 L 127 551 L 126 547 Z M 102 548 Q 101 550 105 549 L 106 550 Q 107 546 102 548 Z M 205 548 L 200 559 L 193 565 L 188 571 L 188 577 L 193 575 L 196 576 L 197 576 Q 195 572 189 572 L 198 567 L 207 570 L 214 580 L 215 592 Q 216 594 218 592 L 220 593 L 227 590 L 228 593 L 236 592 L 234 589 Q 235 586 239 586 L 240 584 L 236 585 Q 232 584 233 580 L 238 579 L 237 578 Q 234 577 236 576 L 234 572 L 234 567 L 241 560 L 241 562 L 238 563 L 237 566 Q 236 572 239 571 L 240 572 L 239 566 L 243 565 L 243 556 Q 240 559 236 558 L 236 562 L 232 567 L 231 572 L 233 579 L 229 580 L 227 575 L 228 570 L 228 568 L 224 570 L 217 570 L 213 567 L 207 566 L 204 564 Q 205 560 203 561 L 201 558 L 204 557 L 206 558 L 209 557 L 205 552 L 205 548 Z M 119 549 L 119 550 L 121 550 L 119 549 Z M 230 549 L 229 551 L 231 552 L 230 549 Z M 300 550 L 301 552 L 303 551 L 300 550 Z M 305 550 L 306 552 L 308 552 L 305 550 Z M 67 551 L 68 553 Q 69 550 67 551 Z M 128 551 L 127 554 L 128 554 L 128 551 Z M 310 551 L 310 552 L 312 552 L 310 551 Z M 220 552 L 214 557 L 215 558 Q 217 555 222 556 L 220 552 Z M 120 553 L 120 555 L 123 555 L 120 553 Z M 102 554 L 101 556 L 104 556 L 102 554 Z M 225 554 L 225 556 L 225 557 L 228 556 Q 232 556 231 562 L 232 562 Q 230 556 234 557 L 233 554 L 231 555 L 225 554 Z M 303 554 L 303 556 L 316 556 L 316 554 Q 314 556 308 555 L 306 555 L 303 554 Z M 112 557 L 111 558 Q 106 557 107 560 Q 114 561 117 567 Q 118 569 115 568 L 113 571 L 115 570 L 117 571 L 119 575 L 123 578 L 121 578 Q 118 579 120 581 L 119 583 L 122 587 L 128 583 L 127 581 Q 125 579 128 578 L 131 580 Q 136 581 137 578 L 135 574 L 138 568 L 141 569 L 147 565 L 145 559 L 142 558 Q 134 556 136 562 L 133 561 L 129 564 L 125 563 L 123 560 Q 120 556 112 557 Z M 128 557 L 126 559 Q 125 561 128 560 L 128 557 Z M 220 558 Q 217 564 221 563 Q 222 559 220 558 Z M 312 558 L 306 560 Q 307 562 309 560 L 326 560 L 327 561 Q 332 563 330 558 L 327 559 L 312 558 Z M 107 563 L 107 565 L 112 565 Q 111 562 107 563 Z M 312 563 L 312 564 Q 317 563 319 565 L 322 564 L 312 563 Z M 113 565 L 111 567 L 113 567 L 113 565 Z M 98 566 L 97 568 L 100 568 L 98 566 Z M 103 567 L 103 568 L 109 570 L 109 568 L 103 567 Z M 314 567 L 315 569 L 319 568 L 314 567 Z M 321 567 L 322 568 Q 323 570 324 568 L 321 567 Z M 143 569 L 143 571 Q 148 572 149 570 L 143 569 Z M 151 569 Q 148 573 154 571 Q 155 568 153 569 L 151 569 Z M 197 570 L 197 571 L 202 573 L 205 579 L 207 589 L 206 593 Q 210 594 211 592 L 211 586 L 208 578 Q 205 571 197 570 Z M 12 571 L 11 572 L 8 573 L 8 587 L 12 588 L 15 587 Q 16 584 14 585 L 12 582 L 17 580 L 17 577 L 15 573 L 12 571 Z M 91 571 L 93 573 Q 94 570 91 571 Z M 98 571 L 98 573 L 106 574 L 107 576 L 109 573 L 98 571 Z M 63 572 L 63 574 L 62 581 L 63 582 L 55 580 L 51 574 L 50 576 Q 48 579 42 579 Q 40 577 39 580 L 46 583 L 53 581 Q 54 584 51 586 L 52 589 L 48 591 L 54 592 Q 57 593 56 590 L 60 587 L 65 588 L 68 586 Q 73 585 75 587 L 76 587 L 72 582 L 75 580 L 77 576 Q 71 577 68 574 Q 66 570 65 573 L 63 572 Z M 78 572 L 78 574 L 80 573 L 78 572 Z M 166 572 L 165 575 L 167 576 L 166 572 Z M 241 572 L 239 575 L 240 577 L 241 575 L 241 572 Z M 250 572 L 249 575 Q 248 581 250 584 L 265 586 L 270 589 L 270 586 L 268 586 L 264 583 L 258 575 L 250 572 Z M 33 573 L 33 574 L 35 574 L 33 573 Z M 113 573 L 111 576 L 107 580 L 98 582 L 101 586 L 105 585 L 107 585 L 109 584 Q 110 588 108 589 Q 105 588 106 591 L 112 592 L 114 592 Q 119 593 120 591 Q 116 589 116 584 L 116 582 L 115 576 L 118 576 L 113 573 Z M 152 573 Q 151 577 156 575 Q 157 571 152 573 Z M 87 574 L 88 577 Q 90 578 89 575 L 87 574 Z M 29 576 L 29 579 L 35 578 L 29 576 Z M 81 576 L 81 578 L 80 580 L 83 578 Q 84 575 81 576 Z M 96 576 L 96 577 L 102 578 Q 103 580 104 578 L 96 576 Z M 301 576 Q 297 580 298 589 L 302 590 L 303 585 L 302 582 L 303 578 L 301 576 Z M 153 577 L 155 579 Q 156 581 157 579 L 153 577 Z M 200 577 L 199 580 L 200 580 L 200 577 Z M 326 577 L 325 579 Q 331 580 330 578 L 329 578 L 326 577 Z M 332 577 Q 331 580 335 579 Q 336 576 332 577 Z M 171 578 L 165 579 L 164 584 Q 163 587 168 585 L 171 592 L 175 591 L 179 592 L 180 589 Q 173 588 169 584 L 173 581 Q 175 582 174 579 L 171 578 Z M 192 578 L 192 580 Q 194 583 195 580 Q 196 577 192 578 Z M 244 579 L 245 581 Q 246 578 244 579 Z M 29 581 Q 28 585 34 583 Q 35 585 36 583 Q 34 580 29 581 Z M 178 581 L 176 584 L 178 585 L 178 581 Z M 200 581 L 198 583 L 199 586 L 201 587 Q 202 580 200 581 Z M 306 581 L 306 583 L 323 583 L 323 582 L 322 582 L 319 581 L 317 582 L 306 581 Z M 325 581 L 325 582 L 331 582 L 325 581 Z M 79 582 L 78 584 L 80 585 L 79 582 Z M 86 582 L 84 584 L 85 586 L 87 585 L 88 583 L 86 582 Z M 92 583 L 89 587 L 95 587 L 92 583 Z M 243 583 L 240 588 L 243 589 L 245 585 L 243 583 Z M 326 584 L 325 585 L 312 585 L 310 587 L 313 587 L 315 587 Q 319 588 321 586 L 333 587 L 334 588 Q 336 589 335 586 L 334 586 L 326 584 Z M 306 585 L 306 587 L 310 586 L 306 585 Z M 30 586 L 28 588 L 30 588 L 30 586 Z M 35 586 L 35 588 L 39 588 L 35 586 Z M 45 586 L 42 588 L 47 589 L 47 588 L 45 586 Z M 103 587 L 98 590 L 88 590 L 87 589 L 86 590 L 68 591 L 83 591 L 85 591 L 88 592 L 90 591 L 101 592 L 103 589 L 103 587 Z M 21 588 L 21 589 L 23 589 L 21 588 Z M 193 588 Q 192 592 196 593 L 197 590 L 193 588 Z M 202 588 L 201 592 L 202 592 L 202 588 Z M 166 589 L 164 592 L 166 591 L 166 589 Z M 313 589 L 313 590 L 315 590 L 313 589 Z M 318 589 L 318 590 L 320 590 L 318 589 Z M 159 590 L 157 592 L 160 592 Q 161 589 159 590 Z M 298 591 L 298 593 L 301 593 L 298 591 Z M 328 592 L 328 593 L 333 594 L 335 593 L 328 592 Z "></path><path d="M 170.5 19 L 175.5 20 L 178.5 19 L 180.5 19 L 184.5 20 L 186.5 19 L 189 19.5 L 188.5 21 L 181.5 21 L 175 28.5 L 180.5 36 L 186.5 37 L 188.5 36 L 189.5 38 L 183.5 39 L 181.5 39 L 178.5 38 L 175.5 39 L 163.5 39 L 162.5 40 L 159.5 39 L 156.5 40 L 158.5 37 L 163.5 36 L 166 37 L 171 27.5 L 167 21 L 161.5 22 L 159.5 21 L 157.5 21 L 156 20.5 L 169.5 20 L 170.5 19 Z M 172 21 L 170 23 L 174 27 L 177 21 L 175 22 L 172 21 Z M 174 31 L 170 36 L 171 37 L 176 37 L 174 31 Z "></path><path d="M 329 35 L 333 35 L 333 36.5 L 329 38 L 329 35 Z "></path><path d="M 171.5 69 L 173 70.5 L 174 79.5 L 177 87 L 190.5 87 L 192.5 86 Q 195.5 87.5 192.5 89 L 189.5 91 L 182 97.5 L 188 114.5 L 185.5 116 L 170.5 107 L 155.5 118 L 153.5 118 Q 150.8 116.8 153 115.5 L 160 99 L 147.5 92 L 144 88.5 L 151.5 87 L 156.5 88 L 157.5 87 L 165 87 L 168 75.5 L 171.5 69 Z M 172 78 L 168 86 L 169 87 L 174 87 L 172 78 Z M 155 89 L 152 91 L 160 97 L 163 92 L 163 89 L 155 89 Z M 168 89 L 163 99 L 169 103 L 173 101 Q 175 102 174 99 L 178 97 L 176 91 Q 174 87 168 89 Z M 179 89 L 180 94 L 187 90 L 179 89 Z M 179 100 L 173 106 L 184 112 L 185 112 L 180 102 Q 181 99 179 100 Z M 163 101 L 157 112 L 156 114 L 164 109 Q 163 106 166 107 L 167 104 L 163 101 Z "></path><path d="M 299.5 103 L 302 104.5 L 305 115.5 L 308.5 121 L 324 120 L 321.5 124 L 311 131.5 L 318 149.5 L 315.5 151 L 299.5 140 L 287.5 150 L 284 151 L 289 133.5 L 275 125 Q 273.9 122.3 276.5 123 L 284.5 121 L 292.5 121 L 294 119.5 L 294 116.5 L 299.5 103 Z M 299 109 L 297 119 L 297 121 L 304 121 Q 305 115 301 113 Q 302 108 299 109 Z M 304 122 L 303 123 L 295 123 L 294 130 L 292 133 L 300 138 L 308 131 L 306 123 L 304 122 Z M 309 122 L 311 129 L 318 124 L 318 122 L 309 122 Z M 283 123 L 279 125 L 290 131 L 292 126 L 292 123 L 283 123 Z M 309 133 L 306 135 L 302 140 L 313 146 L 314 146 L 309 133 Z M 292 135 Q 291 142 287 146 L 288 148 L 288 146 L 297 140 L 292 135 Z "></path><path d="M 48 104 Q 50.7 102.9 50 105.5 L 56 127 L 73.5 127 L 74 130 L 60 137 L 64 156 L 60.5 155 L 48.5 145 L 33.5 155 L 31 155 L 37 136.5 L 24 126.5 L 26.5 125 L 27.5 126 L 41 126 L 48 104 Z M 49 111 L 44 125 L 45 126 L 53 126 L 49 111 Z M 31 128 L 31 130 L 38 134 L 40 130 L 40 128 L 31 128 Z M 43 128 L 41 137 L 48 142 L 56 138 L 55 131 L 51 128 L 49 129 L 43 128 Z M 57 129 L 60 136 L 68 131 L 57 129 Z M 39 139 L 36 149 L 37 150 L 44 145 Q 46 146 45 143 L 39 139 Z M 57 140 L 53 143 Q 50 142 51 145 L 58 149 L 60 151 L 58 142 L 57 140 Z "></path><path d="M 87.5 128 L 89 130.5 L 86 132 L 87.5 128 Z "></path><path d="M 100.5 143 L 102 146.5 L 101 149 Q 96.5 150.8 98 145.5 L 100.5 143 Z "></path><path d="M 86 144 Q 90.9 142.2 89 148.5 L 87 149.5 L 86 144 Z "></path><path d="M 93 144 Q 97.9 142.2 96 148.5 L 93 150 L 93 144 Z "></path><path d="M 86.5 155 L 88 158.5 L 85 160 Q 84 156.2 86.5 155 Z "></path><path d="M 102.5 156 Q 105.5 155.1 104 159.5 Q 102.5 162.5 101 159.5 L 102.5 156 Z "></path><path d="M 245.5 157 L 248 159.5 L 248 170.5 L 246.5 172 L 243 170.5 L 244 162.5 L 243 159.5 L 245.5 157 Z "></path><path d="M 238.5 158 L 242 160.5 L 241 164.5 L 242 167.5 L 241 171 L 236 171 L 236 159 L 238.5 158 Z "></path><path d="M 48.5 181 L 51 182.5 L 55 199 L 72.5 199 L 74 200.5 L 59 211.5 L 59 216.5 L 63 231 L 58.5 230 L 46.5 220 L 32.5 231 L 31 227.5 L 37 213.5 L 36 211 L 22 200.5 L 39.5 199 Q 40.8 201.3 42 198.5 Q 43.6 188.1 48.5 181 Z M 49 187 L 45 197 L 45 199 L 52 199 L 49 187 Z M 28 201 Q 31 207 38 210 L 40 201 L 31 201 L 30 202 L 28 201 Z M 45 201 L 40 213 L 47 218 L 55 212 Q 56 206 53 204 L 53 201 L 45 201 Z M 56 201 L 57 209 L 68 203 L 68 201 L 56 201 Z M 56 214 L 53 216 L 50 220 L 55 223 L 59 227 L 56 214 Z M 40 215 L 35 225 L 36 226 L 43 220 Q 45 221 44 219 L 40 215 Z "></path><path d="M 301.5 184 Q 303.8 183.3 303 185.5 L 308 201.5 L 310.5 205 L 323.5 205 L 325.5 204 L 327 206.5 L 315 215.5 L 320 233 L 313.5 231 L 302.5 223 L 291.5 232 L 285 235 L 286 228.5 L 289 223.5 L 290 215 Q 282.3 213.1 277 207.5 L 277.5 206 L 290.5 206 L 293.5 205 L 295 205.5 L 300 185.5 L 301.5 184 Z M 301 189 L 298 202 L 299 206 L 300 205 L 307 205 L 303 194 Q 305 188 301 189 Z M 286 207 L 282 209 L 292 215 L 293 208 L 292 208 L 286 207 Z M 299 207 L 296 208 L 294 216 L 303 221 L 311 215 Q 312 210 309 209 L 309 207 L 299 207 Z M 312 207 L 315 213 L 322 208 L 312 207 Z M 313 217 L 308 220 L 306 224 L 316 229 L 317 230 L 313 217 Z M 294 218 L 288 231 L 289 232 L 290 229 L 300 223 L 294 218 Z "></path><path d="M 229 199 L 235 200 L 236 209 Q 229.7 210.5 228 206.5 Q 227.4 201.1 229 199 Z "></path><path d="M 170.5 205 L 178.5 225 L 183.5 224 L 184.5 225 L 195.5 225 L 197 224.5 Q 198.1 227.8 195.5 227 L 182 237.5 L 188 256 L 178.5 252 L 169.5 245 L 155 255.5 Q 155.7 258.5 152 257 L 158 239.5 L 158 235.5 L 146 225.5 L 146.5 224 L 159.5 224 L 161.5 224 L 164 222.5 L 166 217.5 L 166 213.5 L 170.5 205 Z M 171 212 L 166 224 L 173 224 Q 174 226 175 224 L 171 212 Z M 152 226 L 160 234 L 161 231 Q 163 225 160 226 L 158 226 L 156 227 L 152 226 Z M 165 226 L 162 236 L 171 242 L 179 237 L 177 229 L 172 226 L 170 226 L 168 227 L 165 226 Z M 179 227 L 182 235 L 192 228 L 179 227 Z M 180 238 L 176 241 L 173 245 L 179 248 L 184 253 L 185 252 L 180 238 Z M 162 239 L 156 251 L 157 252 L 168 244 L 162 239 Z "></path><path d="M 246.5 224 Q 249.8 225.8 248 232.5 Q 246 236 244 231.5 Q 242.5 224.5 245.5 225 L 246.5 224 Z "></path><path d="M 207.5 235 L 208 237.5 L 207 237.5 L 207.5 235 Z "></path><path d="M 232.5 254 L 236 255.5 L 235 263 L 231 263 L 231 255.5 L 232.5 254 Z "></path><path d="M 313 254 Q 316 253 315 256 Q 312 257 313 254 Z "></path><path d="M 318.5 255 L 320 258 L 318 258.5 L 319 261 Q 315.3 262.4 317 256.5 L 318.5 255 Z "></path><path d="M 332.5 257 L 335 257.5 Q 332.9 260.8 332.5 257 Z "></path><path d="M 326.5 260 L 327 263 Q 324.3 264.1 325 261.5 L 326.5 260 Z "></path><path d="M 330.5 260 Q 333.5 261.5 330.5 263 Q 327.5 261.5 330.5 260 Z "></path><path d="M 328.5 265 L 330 268 Q 326.3 269.5 327 266.5 L 328.5 265 Z "></path><path d="M 331 269 Q 334 268 333 271 Q 330 272 331 269 Z "></path><path d="M 20.5 270 L 23 271.5 L 21.5 274 L 19 272.5 L 20.5 270 Z "></path><path d="M 327 270 Q 330 268.8 329 272.5 L 327 271.5 L 327 270 Z "></path><path d="M 329.5 274 L 330 277 Q 327.3 278.1 328 275.5 L 329.5 274 Z "></path><path d="M 307.5 275 L 309 277.5 L 307 278.5 L 306 276.5 L 307.5 275 Z "></path><path d="M 333.5 277 L 335 277 L 335 281 Q 332.3 282.1 333 279.5 Q 330.8 278.3 333.5 277 Z "></path><path d="M 329 279 Q 332.3 277.9 331 282 Q 327.7 283.1 329 279 Z "></path><path d="M 92 280 L 98 280.5 L 94.5 282 L 92 281.5 L 92 280 Z "></path><path d="M 12.5 281 L 14 281.5 L 14 288.5 L 11 290.5 L 11 282.5 L 12.5 281 Z "></path><path d="M 258.5 281 Q 262.3 280.3 263 282.5 Q 263.8 285.1 260.5 284 L 258.5 284 L 256 283.5 L 258.5 281 Z "></path><path d="M 318.5 281 Q 321.5 282.5 318.5 284 Q 316.3 284.8 317 282.5 L 318.5 281 Z "></path><path d="M 237 292 L 241 292 L 241 298.5 L 237 300 L 237 292 Z "></path><path d="M 286 296 L 289 297.5 L 289.5 301 L 290 297 Q 294.1 295.3 293 299.5 L 294 301.5 L 290 304.5 Q 290.8 302.3 288.5 303 L 286.5 304 Q 284 303 285 298.5 L 286 296 Z "></path><path d="M 329.5 300 L 332 300 L 332 305.5 L 329.5 307 Q 327 306 328 301.5 L 329.5 300 Z "></path><path d="M 81.5 310 L 83 310.5 L 72 317.5 Q 72.8 320.1 69.5 319 L 70 317.5 L 71.5 315 L 81.5 310 Z "></path><path d="M 207 311 Q 212.6 309.1 211 314 L 206 313.5 L 207 311 Z "></path><path d="M 88.5 314 L 90 314.5 Q 84.4 315.4 82 319.5 L 82.5 321 L 86.5 319 L 85.5 321 L 82 323.5 L 78 330.5 L 78 333.5 L 80 332.5 Q 79.3 330.3 81.5 331 L 80 333.5 L 78 340.5 L 80.5 344 Q 83.1 343.3 82 346 L 78 344.5 L 76 329.5 L 79 323.5 L 79 321.5 L 80 318 L 88.5 314 Z "></path><path d="M 78.5 316 L 79 317.5 Q 72.1 320.5 72 329 Q 74.7 327.9 74 330.5 L 70.5 332 Q 67.8 330.8 69 325.5 L 74 319 L 78.5 316 Z "></path><path d="M 227 317 L 231 318.5 L 229.5 321 L 227 320 L 227 317 Z "></path><path d="M 98.5 318 L 99 320 L 93 323.5 L 90 329.5 L 91.5 332 L 89 330.5 Q 88.6 324.1 92.5 322 L 98.5 318 Z "></path><path d="M 233.5 319 Q 238.8 317.5 237 322 L 232 322 L 232 320.5 L 233.5 319 Z "></path><path d="M 103.5 320 L 106 321.5 L 107.5 325 L 108.5 320 Q 111 321 110 325.5 L 108 332 L 101 336 L 100.5 340 L 100 338 Q 97.3 336.9 98 339.5 L 99 343 Q 103.9 342.9 106 346.5 L 105 349 Q 102.3 350.1 103 347.5 Q 105.3 346.3 102.5 345 L 100.5 346 L 96.5 343 L 93.5 344 Q 90 343 91 337.5 L 95 332.5 L 96 325.5 L 99.5 322 L 101 322.5 Q 96.8 325.4 96 331 Q 98.7 332.1 98 329.5 L 99 329.5 Q 99.5 333.5 96.5 334 L 94 335.5 L 93 341.5 L 95.5 343 L 97 340.5 L 96 338.5 L 99.5 334 L 99.5 336 L 107 330.5 L 108 328.5 L 106 328 L 104.5 331 L 102.5 332 L 100 330.5 L 104 328.5 Q 104.6 321.8 103.5 320 Z "></path><path d="M 19.5 322 L 21 322 L 21 325 Q 23.7 323.9 23 326.5 Q 21.3 330.8 19.5 328 L 15 329 L 14 325 Q 18.2 325.7 19.5 322 Z "></path><path d="M 206.5 323 Q 210 325 209 331.5 Q 206.3 333.3 208 339.5 L 209 344.5 L 207.5 347 L 205 346 L 204 340.5 L 204 329.5 L 204 327.5 L 206.5 323 Z "></path><path d="M 67.5 324 L 67 325.5 Q 64.4 326.9 65 331.5 L 66 331.5 Q 65.3 328.9 68 330 L 65.5 335 L 63 333.5 L 63 328.5 L 65 325 L 67.5 324 Z "></path><path d="M 314.5 325 L 317 326.5 Q 318 331 315.5 332 Q 313.3 332.8 314 330.5 L 313 326.5 L 314.5 325 Z "></path><path d="M 319.5 329 Q 321.8 328.3 321 330.5 L 322 334.5 Q 320.5 337.5 319 334.5 L 318 330.5 L 319.5 329 Z "></path><path d="M 22.5 330 Q 24.8 329.3 24 331.5 Q 22.5 334.5 21 331.5 L 22.5 330 Z "></path><path d="M 86 331 L 88 331.5 Q 84.8 334 86 340 Q 82 341.4 84 334.5 L 86 331 Z "></path><path d="M 324.5 334 Q 327.3 335.4 326 340 Q 321.1 341.8 323 335.5 L 324.5 334 Z "></path><path d="M 18 336 Q 21.3 334.9 20 339 Q 16.7 340.1 18 336 Z "></path><path d="M 63.5 337 L 65 344 L 61 341.5 L 63.5 337 Z "></path><path d="M 328 338 Q 332.9 336.2 331 342.5 Q 329.5 345.5 328 342.5 L 328 338 Z "></path><path d="M 88.5 339 L 89 340.5 L 87 345.5 Q 88.3 348.3 89.5 346 Q 91.8 345.3 91 347.5 L 90 350 Q 86.2 350.8 85 347.5 Q 83.8 340.3 88.5 339 Z "></path><path d="M 13.5 340 L 17 341 Q 18 344.8 15.5 346 L 11.5 348 L 8 345.5 Q 7.3 341.8 9.5 341 L 10.5 344 L 11 341 L 13.5 340 Z "></path><path d="M 24 345 L 27 345.5 L 24 347 L 24 345 Z "></path><path d="M 92 346 Q 95 344.8 94 348.5 L 97 350.5 L 96 348.5 L 97.5 348 L 99 352 L 94.5 353 Q 90.8 351.5 92 346 Z "></path><path d="M 299.5 347 L 303 352.5 L 306 365 L 321.5 365 L 324 364 L 321.5 368 L 312 373 Q 313 376 310 375 L 310 377.5 L 317 395.5 Q 315.8 398.2 314.5 396 L 297.5 384 Q 290.9 391.7 281 395 L 281 391.5 L 287 377.5 L 273 368 Q 271.6 364.3 277.5 366 Q 278.8 363.8 283.5 365 L 286.5 366 L 293 363.5 L 295 355.5 L 299.5 347 Z M 300 351 L 296 363 L 296 365 L 303 365 L 300 351 Z M 315 366 L 314 367 L 307 367 L 310 374 L 318 368 Q 319 365 315 366 Z M 296 367 Q 291 371 291 378 L 298 382 L 307 376 L 305 369 L 304 367 L 296 367 Z M 279 368 L 279 370 L 288 375 L 290 372 L 290 368 L 279 368 Z M 307 378 L 300 384 L 309 389 L 312 392 L 308 381 Q 309 377 307 378 Z M 289 380 L 286 388 L 287 390 Q 287 387 292 387 L 295 382 L 289 380 Z "></path><path d="M 45 348 Q 48.8 346.5 48 349.5 Q 52.8 357.5 54 368 L 64.5 368 L 65.5 369 L 67.5 369 Q 72.9 367.1 72 370.5 L 59 379 L 64 396 L 60.5 396 L 50.5 388 L 46.5 387 L 31.5 397 L 30 394.5 L 32 391.5 L 35 377 L 21 367.5 L 21.5 366 L 24.5 367 L 38.5 367 L 39 365.5 L 45 348 Z M 47 351 Q 43 358 42 368 L 44 367 L 47 368 L 52 368 L 48 359 L 47 351 Z M 29 369 L 29 371 L 36 375 L 38 371 L 37 369 L 29 369 Z M 42 369 Q 38 371 39 378 L 49 384 L 55 380 L 55 376 L 53 370 L 43 370 L 42 369 Z M 56 370 L 59 377 L 66 372 Q 68 373 67 371 L 64 371 L 62 370 L 60 371 L 56 370 Z M 37 380 L 34 389 L 35 393 L 44 387 L 45 384 L 37 380 Z M 56 382 L 53 384 Q 50 383 51 386 L 58 390 L 60 392 L 57 384 Q 58 381 56 382 Z "></path><path d="M 100.5 348 L 103 355 Q 106.3 353.9 105 358 L 100 354.5 L 100.5 348 Z "></path><path d="M 8 356 Q 11 355 10 358 Q 7 359 8 356 Z "></path><path d="M 13 356 Q 16 355 15 358 Q 12 359 13 356 Z "></path><path d="M 111.5 357 L 112 359.5 L 110 360.5 L 111.5 357 Z "></path><path d="M 113.5 357 L 114.5 359 Q 111.7 359.7 113.5 357 Z "></path><path d="M 9.5 371 L 11 373.5 Q 9.5 376.5 8 373.5 L 9.5 371 Z "></path><path d="M 8 384 Q 11 383 10 386 Q 7 387 8 384 Z "></path><path d="M 86.5 390 L 87 392.5 L 84 394 Q 82.5 390.3 85.5 391 L 86.5 390 Z "></path><path d="M 90.5 391 Q 93.5 390.2 92 394 L 88 392.5 L 90.5 391 Z "></path><path d="M 170 412 L 173 413.5 L 179 432 L 183.5 431 L 199 431 L 196.5 435 L 184 443.5 L 190 462 L 185.5 461 L 172.5 451 L 157.5 462 L 155 462 L 161 444.5 L 145 433.5 Q 144.3 431.3 146.5 432 L 148.5 433 L 150.5 433 Q 156.7 434.7 158.5 432 L 160.5 432 L 163.5 433 Q 168.8 424 170 412 Z M 172 419 L 168 429 L 168 432 L 176 432 L 176 429 L 172 419 Z M 174 433 Q 172 435 168 434 L 164 444 L 173 449 L 180 444 L 178 435 L 176 433 L 174 433 Z M 182 433 L 180 435 L 184 441 L 193 435 L 193 433 L 182 433 Z M 160 434 L 159 435 Q 151 434 152 437 L 162 442 L 163 439 Q 165 432 160 434 Z M 182 445 L 177 449 Q 174 448 175 451 L 183 455 L 185 457 L 182 445 Z M 163 446 L 160 456 L 161 457 L 167 453 L 169 450 L 163 446 Z "></path><path d="M 321 414 Q 326.6 411.8 325 417.5 L 323.5 417 Q 319.3 418.1 321 414 Z "></path><path d="M 11 426 Q 13.7 424.9 13 427.5 L 11 428.5 L 11 426 Z "></path><path d="M 226.5 430 L 230 432.5 L 228.5 436 L 223 433.5 L 226.5 430 Z "></path><path d="M 314 436 L 320.5 437 L 322 438.5 L 316.5 439 L 314 438 L 314 436 Z "></path><path d="M 225 474 Q 229.6 472.8 231 475.5 Q 232.3 479.3 228.5 478 L 228.5 480 L 226 478.5 L 225 474 Z "></path><path d="M 162.5 475 Q 165.5 474.2 164 478 Q 158.8 479.7 160 476 L 162.5 475 Z "></path><path d="M 220.5 478 Q 222.8 477.3 222 479.5 L 220.5 478 Z "></path><path d="M 112.5 479 L 113 480.5 L 110.5 482 L 112.5 479 Z "></path><path d="M 247.5 480 L 249 484.5 L 246 482.5 L 247.5 480 Z "></path><path d="M 198.5 481 Q 203.8 479.5 202 484 L 198.5 485 L 197 482.5 L 198.5 481 Z "></path><path d="M 111.5 485 L 112 486.5 L 109 488 Q 107.9 485.3 110.5 486 L 111.5 485 Z "></path><path d="M 29.5 490 L 32 491.5 L 28 493 L 29.5 490 Z "></path><path d="M 33.5 491 L 34 494 L 32 493.5 L 33.5 491 Z "></path><path d="M 108.5 492 L 111 492.5 L 107.5 494 L 108.5 492 Z "></path><path d="M 113.5 492 L 116 492.5 L 112.5 494 L 113.5 492 Z "></path><path d="M 103.5 496 L 104 497.5 L 101.5 499 L 103.5 496 Z "></path><path d="M 172.5 511 L 175 512.5 L 178 525.5 L 180.5 530 L 197.5 530 L 198 533 L 184 541.5 L 188 559.5 Q 186.7 562.3 185.5 560 L 169.5 550 L 156.5 559 L 156 557.5 L 161 542.5 L 146 531.5 L 146.5 530 L 164.5 530 L 167 527.5 L 167 524.5 L 172.5 511 Z M 173 516 L 168 530 L 175 529 Q 176 531 177 529 L 173 516 Z M 152 532 L 156 536 Q 158 535 157 538 L 162 540 L 165 534 L 163 532 L 160 533 L 152 532 Z M 170 532 L 166 533 L 164 542 L 171 547 L 180 542 L 179 537 Q 180 532 178 533 L 176 533 L 170 532 Z M 181 533 L 182 539 L 192 534 L 181 533 Z M 181 543 L 176 547 Q 173 546 174 549 L 181 553 L 184 556 L 181 543 Z M 164 544 L 160 553 L 161 554 L 168 549 L 164 546 L 164 544 Z "></path><path d="M 122.5 512 Q 125.1 511.3 124 514 L 121.5 515 L 120.5 513 L 122.5 512 Z "></path><path d="M 221.5 513 L 222 518 L 218 516.5 Q 216.8 512.8 220.5 514 L 221.5 513 Z "></path><path d="M 118.5 516 Q 121.5 515.2 120 519 L 116 518.5 L 118.5 516 Z "></path><path d="M 208.5 516 Q 210.8 516.8 210 520.5 L 207.5 522 Q 205 520.8 206 517 L 208.5 516 Z "></path><path d="M 122.5 519 Q 126.3 518 125 521 L 121 520.5 L 122.5 519 Z "></path><path d="M 342.5 549 Q 344.8 548.3 344 550.5 L 342.5 549 Z "></path><path d="M 342.5 552 L 343 554.5 L 342 554.5 L 342.5 552 Z "></path><path d="M 199.5 563 Q 201.8 562.3 201 564.5 L 197 566 Q 195.9 563.3 198.5 564 L 199.5 563 Z "></path><path d="M 213 572 Q 218.2 569.9 217 574.5 L 214.5 576 L 213 572 Z "></path><path d="M 219 572 Q 224.2 570.3 223 574 L 219 575 L 219 572 Z "></path><path d="M 224 576 Q 228.5 574.5 227 579 L 224 577.5 L 224 576 Z "></path><path d="M 219.5 577 L 221 579.5 L 217 581 Q 215.5 577.2 218.5 578 L 219.5 577 Z "></path><path d="M 224.5 582 Q 226.8 581.3 226 583.5 Q 228.8 585.2 224.5 587 L 222 583 L 224.5 582 Z "></path><path d="M 343.5 582 L 344.5 584 L 343.5 582 Z "></path><path d="M 218.5 586 Q 222.7 584.9 221 589 L 217 590 L 218.5 586 Z "></path><path d="M 229.5 586 L 232 587.5 L 228 590 L 229.5 586 Z "></path><path d="M 341.5 592 L 342 594.5 L 341 594.5 L 341.5 592 Z "></path></svg>