<svg width="350" height="600" version="1.1" xmlns="http://www.w3.org/2000/svg" desc="Created with imagetracer.js version 1.2.5"><path d="M 159.5 5 L 169.5 5 L 170.5 6 L 326.5 6 L 327.5 7 L 336 7 L 336 76.5 L 337 78.5 L 336 79.5 L 336 103.5 L 337 104.5 L 337 116.5 L 336 119.5 L 336 121.5 L 337 168.5 L 336 171.5 Q 338.8 173.3 337 179.5 Q 334.5 181 336 186.5 L 336 188.5 Q 334.3 196.7 337 200.5 L 336 203.5 L 337 206.5 L 336 207.5 L 336 226.5 Q 338.8 228.2 337 234.5 L 336 235.5 L 335 247.5 L 337 258.5 L 337 374.5 L 337 376.5 L 337 412.5 Q 334.3 414.3 336 420.5 L 336 422.5 Q 334.5 428 337 429.5 L 336 430.5 L 336 473.5 L 336 475.5 Q 334.5 481 337 482.5 L 337 505.5 L 336 509.5 L 337 510.5 L 337 528.5 Q 334.8 529.7 336 534.5 L 336 536.5 L 337 540.5 L 336 542.5 L 336 544.5 L 337 547.5 L 337 549.5 L 336 553.5 L 337 554.5 L 337 579.5 L 336 581.5 L 336 583.5 L 337 587.5 L 336 593 L 333.5 594 L 259.5 594 L 257.5 594 L 255.5 593 L 184.5 593 L 182.5 592 L 181.5 593 L 172.5 593 Q 171 590.5 165.5 592 L 164.5 593 L 155.5 593 L 153.5 593 L 78.5 593 L 76.5 594 L 74.5 593 L 72.5 594 L 69.5 593 L 68.5 594 L 44.5 594 L 42.5 594 Q 35.7 595.3 32.5 593 L 31.5 594 L 5.5 594 L 4 592.5 L 4 574.5 L 5 573.5 L 5 564.5 L 4 563.5 L 4 555.5 L 5 554.5 L 5 539.5 L 4 536.5 L 5 535.5 L 5 527.5 L 4 526.5 L 4 475.5 L 5 473.5 L 4 471.5 Q 6.5 470 5 464.5 L 4 461.5 L 5 453.5 L 4 451.5 L 5 450.5 L 5 437.5 L 4 436.5 L 4 428.5 L 5 427.5 L 5 383.5 L 4 381.5 L 5 380.5 L 5 369.5 Q 2.5 368 4 362.5 L 4 360.5 L 5 351.5 L 5 349.5 L 4 344.5 L 5 343.5 L 5 334.5 L 4 333.5 L 4 294.5 L 5 289.5 L 4 286.5 L 4 269.5 L 5 266.5 L 5 264.5 L 4 259.5 L 5 258.5 L 5 248.5 Q 2.8 247.2 4 242.5 L 5 241.5 L 5 200.5 L 5 198.5 L 4 193.5 L 5 192.5 L 5 179.5 L 5 177.5 L 5 132.5 L 4 131.5 L 4 120.5 L 5 119.5 L 5 95.5 L 4 93.5 L 5 91.5 L 4 89.5 L 4 87.5 L 5 83.5 L 4 81.5 L 5 78.5 L 4 66.5 Q 6.7 64.8 5 58.5 L 4 53.5 L 5 48.5 L 5 46.5 L 4 40.5 L 5 37.5 L 5 22.5 L 4 20.5 L 5 18.5 L 4 15.5 L 5 9.5 L 4 7.5 Q 5 5 9.5 6 L 10.5 7 L 53.5 7 L 55.5 6 L 59.5 7 L 64.5 6 L 65.5 7 L 73.5 7 L 74.5 6 L 158.5 6 L 159.5 5 Z M 94 8 L 93 9 L 7 9 L 7 17 L 8 18 L 7 21 Q 6 26 8 28 L 8 37 L 7 38 L 7 48 L 8 49 L 8 98 L 8 100 L 7 105 L 8 106 L 8 195 L 8 197 L 8 250 L 7 251 L 8 267 Q 16 263 27 263 Q 26 259 30 258 L 34 261 Q 36 260 35 263 L 56 266 L 60 268 L 65 268 L 70 271 L 71 254 L 71 252 L 73 249 L 73 252 L 76 251 L 79 252 L 82 251 L 86 253 Q 88 254 86 256 L 88 256 L 89 255 L 92 258 L 93 257 L 95 259 Q 94 262 98 260 L 98 262 Q 102 263 100 258 L 85 251 L 84 249 L 87 250 L 88 246 L 87 244 L 88 238 L 90 235 L 89 231 L 89 229 L 82 203 L 83 201 L 81 194 L 82 170 L 92 153 L 97 149 L 96 144 L 100 143 L 99 140 L 96 141 L 93 147 L 89 149 Q 83 150 82 148 L 87 139 Q 86 132 89 130 L 86 121 L 86 115 L 85 115 Q 82 114 83 117 Q 82 119 79 118 Q 76 117 77 112 Q 75 107 73 111 Q 69 110 71 115 Q 70 118 66 117 L 63 122 L 59 122 L 59 117 Q 53 119 55 114 L 60 111 L 57 109 L 59 105 Q 61 106 60 104 L 57 102 L 56 100 L 56 98 L 62 90 L 64 91 Q 66 92 65 89 L 61 88 Q 58 87 59 84 Q 60 81 64 82 L 64 83 Q 60 82 62 86 L 64 86 Q 63 83 66 84 Q 69 85 69 90 Q 68 85 72 84 L 73 85 L 72 89 Q 75 90 74 86 L 78 85 L 80 88 L 81 85 L 79 83 Q 76 84 77 82 L 77 80 L 77 77 L 75 81 L 72 82 L 71 78 L 70 83 L 66 83 Q 67 79 65 80 L 63 81 L 65 78 L 67 79 L 69 75 L 74 76 L 78 74 L 81 77 L 80 75 L 86 70 L 90 70 L 91 74 L 100 75 L 101 78 L 104 80 L 103 83 L 106 81 L 108 83 L 107 87 L 114 85 L 118 86 L 123 80 L 126 80 L 139 87 L 141 87 L 142 89 L 146 89 L 147 92 L 151 94 L 157 103 L 155 109 L 149 113 L 148 117 L 151 125 L 148 129 L 154 133 Q 153 139 150 143 L 144 148 L 138 149 L 136 149 L 137 151 L 136 156 Q 135 158 138 157 L 144 165 Q 143 167 146 166 L 155 180 L 160 194 L 162 193 L 165 197 L 169 194 L 172 195 L 177 193 L 178 190 L 186 185 L 198 182 L 201 179 Q 196 173 194 164 Q 194 148 201 140 Q 208 131 222 128 L 233 128 L 247 134 Q 255 141 259 153 Q 261 171 253 180 L 255 179 L 260 179 L 267 184 Q 268 187 270 186 L 269 188 L 271 198 L 271 187 Q 272 180 277 177 L 280 183 L 281 191 Q 282 193 286 192 L 284 189 L 292 176 Q 295 177 295 182 L 298 181 L 299 184 L 298 190 L 301 192 Q 302 196 299 197 L 304 199 L 304 194 Q 305 191 309 192 L 310 195 L 314 192 L 315 196 L 318 194 L 321 196 L 320 200 L 317 202 L 315 202 L 313 207 L 311 208 L 307 205 L 302 206 L 303 213 Q 302 215 298 214 L 296 214 L 295 218 L 295 220 L 301 229 L 299 234 L 300 236 L 298 239 L 301 248 L 301 250 L 304 258 Q 303 262 308 260 L 309 265 L 308 270 Q 307 275 310 278 L 306 292 L 307 293 Q 304 292 305 296 L 304 295 L 303 297 L 298 300 L 294 296 Q 295 293 291 294 L 292 298 L 295 299 Q 296 302 294 301 L 292 301 Q 289 302 290 298 L 289 298 Q 290 300 287 299 L 287 302 L 285 302 L 285 300 L 284 302 L 283 302 L 284 300 L 282 299 L 282 301 L 281 300 L 279 300 Q 280 297 278 298 L 276 299 L 277 296 L 273 297 L 273 300 L 269 306 L 268 313 L 265 317 L 266 319 L 265 322 L 267 323 L 265 325 L 262 324 Q 263 327 259 325 L 261 321 L 257 315 Q 258 307 254 305 Q 251 306 252 303 L 244 299 L 247 306 L 247 309 L 256 326 Q 257 330 254 332 L 257 339 L 257 350 L 250 358 L 247 368 L 239 374 L 232 385 L 247 387 L 248 390 Q 241 398 229 401 L 224 411 L 221 430 L 216 442 Q 215 444 218 443 L 220 448 L 219 458 L 215 464 L 214 475 L 212 480 L 213 484 L 219 482 L 230 481 L 271 468 L 292 464 Q 295 465 294 462 L 288 463 L 284 462 L 287 458 L 285 455 L 284 454 L 288 450 L 292 451 Q 294 450 293 447 L 298 444 Q 304 443 305 448 L 304 450 Q 305 452 307 450 Q 310 451 309 455 L 315 455 Q 314 451 317 452 L 318 449 Q 321 445 327 446 L 330 453 L 333 454 L 333 283 L 334 282 L 334 265 L 333 264 L 333 198 L 334 197 L 334 182 L 333 181 L 333 164 L 334 163 L 334 143 L 333 142 L 333 25 L 332 24 L 333 10 L 321 8 Q 316 7 315 9 L 314 8 L 266 8 L 263 9 L 261 8 L 127 8 L 125 8 L 105 8 L 104 9 L 94 8 Z M 88 71 L 84 80 Q 81 79 82 82 L 88 83 L 89 83 L 86 81 Q 85 76 89 75 L 88 71 Z M 93 76 L 90 80 Q 89 82 92 81 L 93 79 Q 95 77 93 76 Z M 101 80 L 98 87 L 95 91 L 98 90 Q 97 86 103 88 L 105 85 L 102 87 L 99 86 L 101 83 L 101 80 Z M 123 82 L 119 90 L 122 89 L 122 92 L 111 109 L 113 109 L 116 108 L 118 113 L 117 115 L 120 115 L 123 119 L 142 103 L 150 99 Q 152 100 151 98 L 145 92 L 140 93 L 138 93 L 138 95 Q 135 94 136 97 L 135 98 L 137 100 L 134 98 L 132 101 L 127 104 L 127 105 L 124 105 Q 125 108 123 107 L 123 106 L 122 101 L 123 97 L 130 93 L 132 96 L 134 95 Q 133 91 136 89 L 128 83 L 123 82 Z M 88 84 L 85 89 L 90 88 L 88 84 Z M 95 84 L 93 87 L 95 87 L 95 84 Z M 112 87 L 107 88 L 94 96 L 96 99 L 95 101 L 98 103 L 96 106 L 97 113 L 99 105 L 101 104 L 97 115 L 100 116 L 99 115 L 100 112 L 101 112 L 100 117 L 101 120 L 102 122 L 104 122 L 103 119 L 103 117 L 103 106 L 102 108 L 101 108 L 103 102 L 104 106 L 106 105 L 116 88 L 112 87 Z M 91 88 L 91 90 Q 92 94 88 95 L 89 96 L 91 95 L 94 92 L 92 90 Q 93 87 91 88 Z M 75 89 L 76 95 Q 75 97 74 95 L 72 95 L 72 91 L 70 91 L 71 94 Q 72 97 68 95 Q 65 97 68 98 L 71 97 L 72 99 Q 73 96 76 97 L 77 99 L 79 96 L 78 91 L 75 89 Z M 119 90 L 116 94 L 117 95 L 119 94 L 119 90 Z M 63 92 L 62 95 L 63 95 L 63 92 Z M 82 93 L 82 95 L 85 96 Q 87 97 86 94 L 82 93 Z M 116 95 L 114 98 L 116 97 L 116 95 Z M 60 97 Q 57 99 60 100 L 65 100 L 64 97 L 61 99 L 60 97 Z M 87 97 L 86 98 Q 82 97 83 100 L 85 99 L 86 102 L 87 102 L 87 97 Z M 71 101 L 71 103 L 73 102 L 71 101 Z M 94 102 L 90 110 Q 89 117 92 116 Q 91 108 94 104 L 94 102 Z M 66 103 L 68 105 Q 69 102 66 103 Z M 76 104 L 74 106 L 76 106 L 76 104 Z M 153 105 L 151 107 Q 150 110 154 108 Q 155 104 153 105 Z M 87 106 L 84 109 Q 86 112 87 109 L 87 106 Z M 143 106 L 138 111 L 145 112 L 144 110 Q 145 105 143 106 Z M 109 109 L 109 115 L 109 112 Q 111 110 109 109 Z M 63 111 L 61 114 L 68 113 Q 67 110 63 111 Z M 80 112 L 79 116 L 80 116 L 80 112 Z M 113 112 L 114 114 Q 115 111 113 112 Z M 136 112 L 134 114 L 134 121 Q 131 120 132 125 L 129 126 Q 130 128 127 127 L 127 129 L 124 130 L 133 131 L 135 131 Q 136 134 139 133 L 138 131 L 141 129 Q 144 130 143 128 L 147 125 Q 148 127 149 125 L 145 117 L 143 120 Q 140 121 141 119 L 138 117 L 140 114 L 139 113 Q 137 115 136 112 Z M 98 116 L 97 119 L 99 120 L 98 116 Z M 112 117 L 112 118 L 116 118 L 112 117 Z M 99 120 L 98 124 L 100 124 L 101 125 L 100 123 L 101 121 L 99 120 Z M 116 121 L 114 124 L 115 125 Q 119 123 116 121 Z M 129 121 L 128 125 L 129 125 L 129 121 Z M 108 122 L 106 125 L 109 123 L 108 122 Z M 90 124 L 90 125 Q 93 124 91 130 L 92 130 Q 91 127 94 128 L 92 126 Q 93 123 90 124 Z M 113 125 L 93 140 Q 90 139 91 142 L 84 146 Q 83 149 88 147 L 89 145 L 114 126 L 113 125 Z M 97 128 Q 94 133 98 132 Q 101 130 97 128 Z M 115 130 L 117 132 L 136 137 L 143 137 L 141 135 L 134 135 L 119 130 L 115 130 Z M 144 131 L 141 133 L 144 133 L 144 131 Z M 221 131 L 211 135 Q 201 141 198 154 L 198 166 L 204 177 Q 207 173 214 173 Q 218 170 217 162 L 215 162 L 204 155 L 206 153 L 220 153 Q 224 147 224 137 L 228 135 L 230 148 L 234 153 L 238 152 L 246 152 L 247 153 Q 249 152 248 156 L 237 164 L 242 174 L 241 176 L 238 176 L 230 170 L 225 172 L 225 173 L 227 173 L 227 178 L 225 179 Q 221 178 223 182 L 226 183 L 236 183 L 237 182 L 239 183 L 241 182 L 241 184 L 245 183 L 253 174 L 256 163 Q 256 148 249 141 Q 244 133 234 131 L 221 131 Z M 93 132 L 89 138 L 90 139 L 94 136 L 93 132 Z M 151 133 L 151 135 L 146 135 L 146 137 L 152 136 L 153 134 L 151 133 Z M 118 134 L 117 137 Q 115 140 113 139 Q 112 141 116 140 L 115 143 L 113 142 L 112 144 L 120 144 L 121 143 L 124 144 L 132 144 L 133 143 L 135 144 L 139 141 L 141 141 Q 142 137 137 139 L 136 142 Q 133 143 134 141 Q 136 139 134 138 L 129 139 L 128 142 L 125 141 L 126 139 L 126 137 L 122 137 L 123 140 L 122 139 L 119 140 L 120 135 L 118 134 Z M 110 139 L 109 142 L 110 142 L 110 139 Z M 146 139 L 144 142 L 148 141 L 146 139 Z M 142 141 Q 140 144 143 143 L 142 141 Z M 227 145 L 224 151 L 224 153 L 229 153 Q 230 148 227 145 Z M 106 146 L 104 150 L 109 149 L 112 150 L 114 149 L 116 150 L 117 146 L 110 146 L 109 147 L 106 146 Z M 120 146 Q 117 151 121 150 L 120 146 Z M 127 148 L 127 152 L 127 151 Q 129 149 127 148 Z M 117 151 L 117 153 Q 125 154 131 159 L 132 159 L 131 156 L 122 151 L 117 151 Z M 104 152 L 95 160 L 96 161 Q 98 156 105 154 L 104 152 Z M 95 154 L 93 157 L 95 156 L 95 154 Z M 241 154 L 234 157 L 237 160 L 240 158 Q 244 156 241 154 Z M 228 155 L 223 156 L 221 162 L 227 166 L 232 163 Q 233 158 231 157 Q 232 153 228 155 Z M 107 156 L 102 159 L 103 161 L 107 158 L 107 156 Z M 213 156 L 213 158 L 217 159 L 218 160 L 218 156 L 213 156 Z M 118 158 L 118 162 L 116 161 L 111 172 L 112 176 L 115 166 Q 114 163 117 164 Q 118 171 115 175 L 117 182 L 121 174 L 119 171 L 122 172 L 129 167 L 130 165 Q 126 159 118 158 Z M 134 158 L 133 161 L 144 169 L 140 165 Q 141 162 139 163 L 137 160 L 134 158 Z M 110 159 L 108 162 L 106 163 L 102 168 L 103 180 L 104 180 L 103 170 L 106 168 Q 105 173 108 175 L 109 163 L 111 161 Q 112 158 110 159 Z M 89 163 L 87 166 L 89 165 L 89 163 Z M 221 165 L 218 171 L 219 172 L 223 170 L 224 168 L 221 165 Z M 235 165 L 232 169 L 237 171 L 235 165 Z M 131 167 L 127 170 Q 128 172 125 171 L 126 173 L 128 172 L 129 174 L 132 173 L 124 187 L 125 190 Q 129 181 141 180 L 139 175 L 131 167 Z M 145 169 L 144 171 L 147 172 L 145 169 Z M 95 173 L 94 176 L 95 176 L 95 173 Z M 124 174 L 122 176 L 123 178 L 124 176 L 124 174 Z M 209 175 L 207 177 Q 204 176 205 179 L 203 179 L 203 181 L 199 184 L 191 186 L 193 189 L 194 187 L 194 190 L 194 192 L 193 195 Q 191 196 194 197 L 196 186 Q 199 185 198 189 L 196 190 L 199 190 L 200 188 Q 199 184 202 185 L 201 189 L 202 190 L 206 181 L 207 186 L 210 179 Q 213 181 209 183 Q 208 186 211 185 L 212 181 L 223 176 L 209 175 Z M 94 177 L 93 188 L 92 189 L 94 190 L 94 177 Z M 253 180 Q 248 187 239 188 L 235 193 L 238 192 Q 240 191 239 194 L 243 196 L 243 195 L 240 193 L 243 192 L 245 192 Q 247 191 246 194 L 247 194 L 248 192 L 254 192 L 257 188 L 257 186 L 253 180 Z M 99 181 L 98 187 L 104 191 L 105 191 L 99 181 Z M 219 181 L 215 186 L 216 187 L 219 183 L 220 187 L 221 185 L 219 181 Z M 86 182 L 85 185 L 86 185 L 86 182 Z M 120 182 L 119 191 L 120 191 L 120 182 Z M 115 183 L 113 185 L 115 185 L 115 183 Z M 137 183 L 135 185 L 138 186 Q 140 187 139 185 L 137 183 Z M 295 183 L 294 186 L 292 185 L 287 186 L 288 189 L 291 187 L 293 189 Q 294 192 291 191 L 290 193 L 294 192 L 293 199 L 296 199 L 295 195 L 299 194 L 299 192 L 295 192 L 296 189 Q 294 187 297 186 Q 298 182 295 183 Z M 214 184 L 213 187 L 214 187 L 214 184 Z M 222 184 L 222 187 L 224 186 L 224 188 L 227 188 L 237 186 L 238 184 L 233 185 Q 225 186 222 184 Z M 189 185 L 183 189 Q 180 188 181 191 Q 183 195 185 192 Q 184 187 188 189 L 187 192 L 188 195 L 189 191 L 189 189 L 190 186 L 189 185 Z M 132 186 L 125 196 L 126 197 L 133 188 Q 134 185 132 186 Z M 205 187 L 205 189 L 207 188 L 205 187 Z M 213 187 L 211 189 L 213 189 L 213 187 Z M 140 188 L 133 193 L 134 195 L 132 195 L 133 197 L 132 199 L 133 200 L 137 197 L 136 200 Q 135 202 138 201 Q 139 206 135 208 L 136 209 L 139 205 Q 138 202 141 203 L 140 208 L 142 208 L 150 196 Q 150 191 147 190 L 141 195 Q 138 196 139 193 L 137 194 L 135 194 L 142 189 L 140 188 Z M 214 188 L 215 193 L 216 190 Q 217 187 214 188 Z M 115 189 L 110 191 L 111 193 L 113 192 L 115 192 L 115 194 L 116 194 L 115 189 Z M 192 189 L 190 191 L 192 191 L 192 189 Z M 143 190 L 141 191 L 140 193 L 143 192 L 143 190 Z M 212 191 L 210 194 L 212 193 L 212 191 Z M 93 192 L 93 197 L 94 197 Q 96 191 93 192 Z M 121 192 L 122 195 L 123 193 L 121 192 Z M 197 192 L 196 195 L 198 196 L 197 192 Z M 204 192 Q 202 195 205 194 L 204 192 Z M 89 193 Q 87 196 90 195 L 89 193 Z M 307 193 L 306 200 L 302 202 L 303 205 L 308 201 L 309 204 Q 308 207 311 206 L 310 201 L 313 200 L 316 201 L 318 200 L 319 198 Q 320 195 317 196 L 316 199 L 313 197 L 310 199 L 307 198 L 307 193 Z M 257 194 L 255 196 L 255 199 L 258 205 L 258 211 L 259 211 L 259 204 L 257 196 L 259 196 L 257 194 Z M 87 195 L 86 198 L 87 198 L 87 195 Z M 111 195 L 112 202 L 115 202 L 113 201 Q 114 196 111 195 Z M 152 195 Q 148 206 139 215 L 140 218 L 139 217 L 137 220 Q 134 221 139 223 L 141 222 L 140 220 Q 141 217 143 219 L 143 218 Q 145 214 147 218 L 148 218 L 147 215 Q 148 212 150 214 L 155 204 L 154 202 L 156 202 L 158 197 Q 157 194 152 195 Z M 185 195 L 183 197 L 184 202 L 185 198 L 185 195 Z M 190 195 L 188 200 L 190 199 L 190 195 Z M 213 195 L 213 197 Q 218 198 220 196 L 213 195 Z M 235 195 L 235 197 L 237 196 L 235 195 Z M 117 196 L 117 199 L 120 197 L 117 196 Z M 199 197 L 198 201 L 199 201 L 199 197 Z M 261 197 L 262 205 L 263 205 Q 264 199 261 197 Z M 104 198 L 102 200 L 104 201 L 104 198 Z M 187 198 L 186 202 L 187 202 L 187 198 Z M 196 198 L 195 202 L 196 202 L 196 198 Z M 208 198 L 203 205 L 204 206 L 209 201 L 213 200 Q 215 201 214 198 L 211 199 L 208 198 Z M 225 198 L 229 205 L 231 204 L 235 210 L 236 208 L 236 205 L 234 200 L 231 202 L 227 200 Q 228 197 225 198 Z M 287 198 L 288 200 Q 289 197 287 198 Z M 122 200 L 118 202 L 118 204 L 123 204 L 123 200 L 122 200 Z M 238 200 L 237 202 L 239 203 L 238 200 Z M 289 200 Q 288 203 291 202 Q 292 199 289 200 Z M 97 201 L 96 205 L 97 205 L 97 201 Z M 136 201 L 134 204 L 136 203 L 136 201 Z M 220 201 L 215 204 L 221 204 L 226 209 L 222 203 Q 223 200 220 201 Z M 283 201 L 283 204 L 285 205 Q 286 200 283 201 Z M 163 202 Q 161 205 158 204 L 159 207 L 164 203 L 163 202 Z M 292 202 L 292 204 L 294 203 L 292 202 Z M 184 203 L 185 207 L 186 204 L 184 203 Z M 251 203 L 248 206 L 247 210 L 248 211 L 251 205 L 251 203 Z M 98 205 L 97 208 L 98 208 L 98 205 Z M 264 205 L 262 209 L 264 209 L 264 205 Z M 170 206 L 168 208 L 170 208 L 170 206 Z M 194 206 L 192 209 L 194 210 L 194 206 Z M 207 206 L 198 212 Q 205 215 204 226 L 205 222 Q 207 214 203 213 L 207 208 L 211 210 L 209 206 L 207 206 Z M 99 208 Q 97 213 100 217 L 101 217 L 99 208 Z M 159 208 L 159 210 L 161 209 L 159 208 Z M 269 208 L 268 211 L 267 209 L 265 213 L 266 216 L 266 214 L 270 212 L 271 213 L 269 208 Z M 296 208 L 296 210 L 298 209 L 296 208 Z M 179 209 L 178 212 L 179 212 L 179 209 Z M 242 209 L 239 213 L 236 212 L 237 217 L 239 216 L 242 211 L 242 209 Z M 288 209 L 287 210 Q 282 209 284 213 Q 289 213 291 210 L 288 209 Z M 187 210 L 185 212 L 187 213 L 187 210 Z M 212 210 L 213 211 Q 214 215 216 212 Q 217 208 212 210 Z M 299 210 Q 298 214 301 213 Q 302 209 299 210 Z M 172 211 L 171 214 L 169 215 L 172 217 L 171 217 L 170 219 L 172 218 Q 174 219 172 221 L 175 221 L 172 211 Z M 279 211 Q 276 213 279 214 L 282 213 L 279 211 Z M 158 212 L 157 221 L 160 219 L 159 217 L 160 214 Q 161 211 158 212 Z M 180 212 L 179 215 L 180 215 L 180 212 Z M 255 212 L 249 225 L 251 225 L 255 215 L 255 212 Z M 275 213 L 275 218 L 277 217 Q 278 212 275 213 Z M 291 213 L 290 216 L 291 216 L 291 213 Z M 154 214 L 152 216 L 154 216 L 154 214 Z M 116 215 L 111 217 L 116 217 L 116 215 Z M 184 215 Q 178 218 179 226 L 169 230 Q 167 228 166 231 Q 166 233 173 232 L 174 235 L 178 236 L 185 222 Q 181 220 184 219 L 184 215 Z M 94 216 L 93 219 L 94 219 L 94 216 Z M 127 217 L 126 223 L 127 223 L 127 217 Z M 270 217 L 272 219 L 274 221 L 273 219 Q 274 216 270 217 Z M 196 218 L 194 220 L 195 222 L 196 220 L 196 218 Z M 116 219 L 113 221 L 116 221 L 116 219 Z M 232 219 L 232 224 L 231 226 L 232 234 L 233 228 Q 234 222 232 219 Z M 246 219 L 243 225 L 244 226 L 246 223 L 246 219 Z M 266 220 L 263 226 L 260 227 L 251 242 L 252 243 L 266 225 L 266 220 Z M 146 221 Q 144 224 147 223 L 146 226 Q 143 225 144 228 L 143 227 L 141 228 L 143 236 L 144 235 L 145 229 L 148 227 Q 150 226 149 222 L 146 221 Z M 141 223 L 140 225 Q 142 228 143 225 L 141 223 Z M 291 223 L 285 227 Q 282 226 283 229 L 292 225 L 294 226 L 296 228 L 294 225 Q 295 221 291 223 Z M 157 224 L 153 232 Q 153 236 156 236 L 157 234 L 155 234 Q 154 229 157 228 L 157 224 Z M 275 225 L 273 227 L 275 227 L 275 225 Z M 163 226 L 162 228 L 166 227 L 165 226 L 163 226 Z M 268 227 L 270 231 L 272 228 L 268 227 Z M 186 228 L 186 231 Q 189 229 192 234 L 192 229 L 191 229 L 186 228 Z M 219 228 L 217 230 L 218 233 L 219 230 L 219 228 Z M 291 228 L 289 229 Q 286 230 287 236 L 290 238 Q 291 234 288 235 Q 287 231 290 230 L 296 233 L 296 232 Q 295 228 291 228 Z M 147 232 L 147 235 L 152 235 L 152 233 L 147 232 Z M 109 233 L 107 238 L 106 237 Q 102 236 103 239 Q 104 241 108 240 L 110 240 L 114 240 L 110 239 L 109 233 Z M 167 234 L 165 238 L 168 237 L 169 241 L 170 241 L 169 236 Q 170 233 167 234 Z M 183 235 L 181 237 L 182 239 L 183 237 L 183 235 Z M 205 236 L 204 239 L 205 239 L 205 236 Z M 292 237 Q 290 240 293 239 L 292 237 Z M 91 238 L 92 241 L 93 239 L 91 238 Z M 137 238 L 136 239 L 120 240 L 115 242 L 115 243 L 120 242 L 122 243 L 129 241 L 137 241 L 138 240 Q 139 237 137 238 Z M 140 238 Q 141 241 139 240 L 139 241 L 144 240 L 146 241 Q 149 242 148 239 L 147 239 L 140 238 Z M 162 238 L 160 241 L 162 240 L 162 238 Z M 267 238 Q 266 241 269 240 Q 270 237 267 238 Z M 176 239 L 174 243 L 172 244 L 173 246 L 175 245 L 177 242 L 176 239 Z M 99 241 L 99 243 L 101 242 L 99 241 Z M 293 241 Q 292 244 296 243 Q 297 240 293 241 Z M 184 242 L 182 244 L 184 244 L 184 242 Z M 190 242 L 189 245 L 190 245 L 190 242 Z M 251 243 L 244 254 L 245 255 L 251 246 L 251 243 Z M 136 245 L 135 247 L 137 248 L 136 245 Z M 200 245 L 197 247 Q 199 250 200 247 L 200 245 Z M 296 245 Q 295 247 299 247 Q 300 244 296 245 Z M 98 246 L 97 249 L 98 249 L 98 246 Z M 121 246 L 122 253 L 123 249 Q 124 245 121 246 Z M 141 246 L 145 250 L 146 250 L 141 246 Z M 172 248 L 167 249 L 168 253 L 168 251 L 176 250 L 177 249 L 172 248 Z M 182 249 L 180 251 L 182 252 L 182 249 Z M 193 249 L 194 251 L 198 251 L 193 249 Z M 298 249 L 299 251 L 300 251 L 298 249 Z M 147 250 L 146 252 L 148 253 L 147 250 Z M 199 251 L 200 253 L 212 256 L 228 263 L 229 263 Q 216 255 199 251 Z M 126 252 L 125 255 L 126 255 L 126 252 Z M 189 252 L 187 255 L 193 258 L 193 256 L 189 252 Z M 174 254 Q 171 258 175 257 L 174 254 Z M 152 255 Q 150 258 153 257 L 152 255 Z M 130 256 L 130 258 L 142 262 Q 143 259 141 260 L 139 260 L 130 256 Z M 158 256 L 155 258 Q 160 257 162 260 L 164 259 L 158 256 Z M 199 259 L 199 262 L 201 261 Q 202 258 199 259 Z M 127 260 L 126 263 L 127 263 L 127 260 Z M 144 261 L 145 263 L 150 263 L 144 261 Z M 301 262 L 293 265 Q 289 266 289 271 L 291 272 L 290 270 L 302 265 L 304 265 Q 305 260 301 262 Z M 31 263 L 29 265 Q 28 267 31 266 L 32 264 L 31 263 Z M 35 263 L 34 267 L 38 270 L 35 263 Z M 209 263 L 210 266 L 211 264 L 209 263 Z M 230 263 L 230 264 L 233 265 L 235 265 L 230 263 Z M 23 264 Q 22 267 26 266 Q 27 263 23 264 Z M 136 264 L 132 269 L 133 270 L 137 267 L 136 271 L 138 270 L 139 271 L 138 273 L 137 275 L 140 273 L 140 277 L 140 278 L 144 276 L 143 280 L 146 278 L 149 280 Q 150 283 147 285 L 149 287 L 150 284 L 154 281 Q 153 283 156 282 L 155 286 L 157 286 L 160 284 L 159 288 L 160 288 Q 159 285 162 286 L 159 293 L 160 294 L 167 288 L 162 295 L 163 296 L 169 291 L 164 298 L 165 299 L 169 296 L 170 298 Q 174 298 173 293 L 181 286 L 182 284 L 180 282 L 175 275 L 174 270 L 172 267 L 164 264 L 147 267 L 136 264 Z M 211 264 L 211 266 L 214 267 L 214 266 L 211 264 Z M 251 264 L 249 268 L 256 270 Q 257 272 258 270 L 253 267 L 251 264 Z M 102 265 L 100 268 L 102 270 L 103 270 L 102 265 Z M 175 265 L 177 268 Q 179 269 178 267 L 175 265 Z M 281 266 L 281 269 L 285 271 L 285 267 L 281 266 Z M 235 268 L 236 270 Q 237 267 235 268 Z M 100 269 L 100 272 Q 103 271 100 269 Z M 181 269 L 180 271 L 183 272 L 185 277 L 187 278 L 185 273 L 181 269 Z M 223 269 L 223 270 L 226 270 L 223 269 Z M 261 269 L 259 271 Q 258 273 261 272 L 261 269 Z M 49 271 Q 47 274 50 273 L 49 271 Z M 103 271 L 102 276 L 103 276 L 103 271 Z M 54 272 L 53 274 L 56 274 L 54 272 Z M 101 273 L 100 280 L 101 280 L 101 273 Z M 257 273 L 258 275 L 261 275 L 257 273 Z M 270 273 L 269 276 L 270 276 L 270 273 Z M 284 273 L 283 276 L 284 276 L 284 273 Z M 40 274 L 39 277 L 42 286 L 43 286 L 40 274 Z M 77 274 Q 75 278 79 277 L 80 278 L 79 276 Q 80 273 77 274 Z M 193 275 Q 192 278 195 277 Q 196 274 193 275 Z M 255 276 L 255 277 L 273 286 L 276 285 Q 278 286 277 284 L 276 282 L 255 276 Z M 67 277 L 66 280 Q 71 278 70 282 Q 74 283 75 281 L 67 277 Z M 83 277 L 83 281 L 83 279 L 86 280 L 87 277 L 85 278 L 83 277 Z M 104 277 L 102 279 L 103 281 L 104 281 L 104 277 Z M 45 278 L 45 282 L 46 282 L 45 278 Z M 90 278 L 88 280 L 94 282 Q 96 283 95 281 L 90 278 Z M 135 278 L 134 281 L 135 281 L 135 278 Z M 200 278 Q 198 281 201 282 Q 200 284 203 283 L 200 278 Z M 308 278 L 304 283 L 305 285 L 308 280 L 308 278 Z M 147 280 L 144 284 L 146 284 L 147 282 L 147 280 Z M 253 280 L 257 284 L 260 284 L 253 280 Z M 140 282 Q 139 285 142 284 Q 143 281 140 282 Z M 253 283 Q 251 286 254 285 L 253 283 Z M 78 284 L 77 287 L 78 287 L 78 284 Z M 194 284 L 193 286 L 196 288 L 194 284 Z M 261 284 Q 261 288 267 289 L 269 289 L 267 286 L 261 284 Z M 282 284 L 280 287 L 271 290 Q 269 295 274 294 L 275 292 L 278 290 L 280 290 L 284 286 Q 285 283 282 284 Z M 291 284 L 291 287 Q 290 291 293 290 L 291 284 Z M 106 285 L 106 288 L 108 289 L 107 287 Q 108 284 106 285 Z M 184 285 L 177 294 L 181 291 Q 184 290 182 294 L 184 294 Q 186 293 184 292 L 185 290 L 187 296 L 183 297 L 182 299 L 186 298 Q 187 296 189 299 L 190 297 L 191 301 L 180 304 L 178 304 L 173 307 L 175 308 L 172 310 L 177 310 L 179 310 L 182 309 Q 183 312 185 311 L 183 317 Q 179 318 181 313 L 180 313 L 178 312 L 175 313 L 174 316 L 181 318 Q 183 317 182 320 Q 183 322 187 321 L 188 324 L 191 323 L 193 323 Q 192 319 195 320 L 194 325 L 190 327 L 189 328 L 186 325 L 183 326 Q 181 323 180 327 L 175 325 L 174 327 L 181 330 L 185 333 L 183 334 L 185 335 L 182 339 L 183 341 L 192 343 L 191 346 L 183 345 L 180 342 Q 178 345 174 345 L 180 345 Q 181 348 178 347 L 178 348 Q 181 347 180 350 L 177 351 L 180 351 Q 183 353 178 356 L 180 356 L 181 356 L 181 359 Q 184 358 183 361 L 180 362 L 182 367 L 182 365 L 186 367 L 185 369 L 187 373 L 192 375 Q 193 378 191 377 L 190 379 L 194 378 Q 196 382 192 381 L 192 382 Q 196 381 195 384 L 190 386 L 191 388 L 194 386 Q 200 384 199 388 L 197 389 L 198 392 L 201 394 L 200 396 Q 195 395 194 399 L 192 399 L 192 403 L 196 401 L 197 406 L 198 406 L 198 401 Q 201 402 200 398 L 203 398 L 202 402 L 202 405 Q 205 404 204 408 L 205 408 L 204 397 L 208 398 L 210 398 Q 211 393 206 395 L 204 393 L 204 391 L 202 388 L 206 382 L 202 369 L 202 365 L 199 358 L 197 335 L 196 335 L 196 340 Q 193 339 194 342 L 192 342 L 190 340 L 193 338 L 192 330 L 196 329 L 197 331 L 198 329 Q 199 324 196 323 L 197 320 L 197 312 L 195 305 L 192 301 L 192 296 L 188 294 L 189 291 L 188 286 L 187 286 L 184 285 Z M 44 286 L 44 293 L 45 293 Q 46 288 44 286 Z M 249 287 L 249 289 L 251 288 L 249 287 Z M 147 289 L 145 291 L 147 291 L 147 289 Z M 221 289 L 220 291 L 222 292 L 221 289 Z M 113 290 L 112 292 L 116 293 Q 119 296 120 302 Q 122 303 119 305 L 121 307 L 123 304 L 118 294 L 113 290 Z M 26 292 L 26 300 L 27 300 Q 28 294 26 292 Z M 30 292 L 30 300 L 31 300 Q 32 294 30 292 Z M 46 293 L 45 298 L 46 298 L 46 293 Z M 133 293 L 132 297 L 133 301 L 134 298 Q 133 295 137 296 L 136 300 L 137 309 L 137 311 Q 136 318 139 317 L 138 315 L 140 308 L 139 306 L 141 300 L 145 298 L 142 308 L 142 321 L 141 322 L 145 344 L 145 355 L 145 357 L 145 362 L 148 372 L 147 377 L 147 379 L 148 388 L 149 388 L 148 384 L 149 378 L 151 376 L 152 380 L 153 380 L 152 375 Q 153 371 157 372 L 158 374 L 160 363 L 160 361 L 161 359 L 160 356 L 161 354 L 160 349 L 163 341 L 164 343 L 164 338 L 163 338 Q 164 342 160 340 L 161 343 L 159 344 Q 158 339 161 339 L 160 334 L 161 333 L 160 330 L 162 332 L 161 334 L 162 337 L 162 335 L 164 335 L 163 333 L 165 333 Q 166 329 164 330 L 159 323 L 157 324 L 151 322 L 145 314 L 147 307 Q 149 301 157 302 L 152 298 L 133 293 Z M 51 294 L 50 297 L 52 298 L 51 294 Z M 176 295 L 175 297 L 170 303 L 176 298 L 176 295 Z M 238 295 L 237 298 L 238 298 L 238 295 Z M 86 296 L 85 299 L 86 299 L 86 296 Z M 37 297 L 36 301 L 37 301 L 37 297 Z M 47 298 L 46 303 L 47 303 L 47 298 Z M 217 300 Q 214 301 216 303 L 215 306 Q 214 309 218 307 L 217 300 Z M 54 301 L 53 309 L 54 309 L 54 301 Z M 23 303 L 23 310 L 24 310 L 23 303 Z M 168 303 L 167 305 L 169 304 L 168 303 Z M 48 304 L 47 311 L 48 311 L 48 304 Z M 130 304 Q 127 305 128 309 L 130 310 L 130 304 Z M 31 305 L 30 308 L 31 308 L 31 305 Z M 115 305 L 115 307 Q 114 309 117 308 Q 119 304 115 305 Z M 61 306 L 60 315 L 61 315 L 61 306 Z M 157 307 L 155 309 L 158 309 Q 159 306 157 307 Z M 214 307 L 213 308 Q 210 307 211 310 L 214 309 L 214 307 Z M 263 307 L 262 310 L 263 310 L 263 307 Z M 32 308 L 31 314 L 32 314 L 32 308 Z M 120 308 L 117 313 L 121 311 L 120 308 Z M 134 308 L 133 318 L 132 319 L 134 322 L 135 318 L 134 308 Z M 162 308 L 162 311 L 164 310 Q 165 307 162 308 Z M 121 312 L 119 314 L 120 320 L 121 320 L 121 312 Z M 37 313 L 38 318 L 39 318 Q 41 312 37 313 Z M 214 313 L 212 315 L 215 315 Q 216 312 214 313 Z M 81 314 L 80 321 L 81 321 L 81 314 Z M 169 314 Q 168 317 171 316 Q 172 313 169 314 Z M 210 314 L 209 316 L 211 315 L 210 314 Z M 9 315 L 8 330 L 9 330 L 9 315 Z M 24 315 L 23 322 L 24 322 L 24 315 Z M 116 315 L 116 319 L 117 319 L 116 315 Z M 152 316 L 151 318 L 153 319 L 152 316 Z M 49 318 L 48 324 L 49 324 L 49 318 Z M 167 318 L 168 320 L 171 320 L 167 318 Z M 128 319 L 127 325 L 128 325 L 128 319 Z M 120 320 L 119 324 L 120 324 L 120 320 Z M 63 323 L 62 328 L 63 328 L 63 323 Z M 166 323 L 167 326 L 166 325 L 165 327 L 167 328 Q 168 324 170 327 L 171 327 L 170 325 L 166 323 Z M 133 324 L 132 333 L 133 333 L 133 324 Z M 121 325 L 120 329 L 121 329 L 121 325 Z M 129 325 L 128 333 L 129 333 L 129 325 Z M 219 326 L 217 328 L 219 328 L 219 326 Z M 87 329 L 86 332 L 87 332 L 87 329 Z M 29 332 L 28 335 L 29 335 L 29 332 Z M 215 332 L 209 334 L 209 335 L 215 334 L 215 332 Z M 176 333 L 175 336 L 177 337 L 176 333 Z M 199 333 L 200 347 L 208 378 L 210 379 L 199 333 Z M 11 335 L 9 342 Q 8 345 11 344 L 11 335 Z M 133 335 L 132 338 L 133 338 L 133 335 Z M 28 336 L 28 341 L 29 341 Q 30 337 28 336 Z M 56 336 Q 56 340 51 338 L 52 342 L 56 340 L 63 341 L 65 341 L 69 343 L 74 341 L 77 343 L 80 342 L 83 343 L 85 342 L 83 340 L 75 340 L 68 338 L 63 340 L 56 339 L 56 336 Z M 120 336 L 118 350 L 120 349 L 120 336 Z M 127 336 L 127 344 L 128 342 L 127 336 Z M 18 338 L 17 344 L 18 344 L 18 338 Z M 41 339 L 26 343 L 25 340 L 24 344 L 22 343 L 21 345 L 16 348 L 21 349 L 23 346 L 27 347 L 28 344 L 34 344 L 39 341 Q 43 342 45 340 L 41 339 Z M 116 339 L 116 347 L 117 347 L 116 339 Z M 130 339 L 131 341 Q 132 338 130 339 Z M 174 340 Q 173 343 176 342 L 178 342 L 178 340 L 174 340 Z M 93 341 L 92 343 L 94 344 L 93 341 Z M 130 341 Q 127 342 129 344 L 127 347 L 124 348 L 126 355 L 126 354 L 127 354 L 125 357 L 127 360 Q 129 357 133 358 L 132 356 Q 131 348 134 349 Q 136 343 133 341 L 131 346 L 130 341 Z M 13 343 Q 12 346 15 345 Q 16 342 13 343 Z M 208 343 L 208 345 L 210 344 L 208 343 Z M 232 343 L 231 345 Q 233 344 232 348 L 231 350 L 235 348 L 235 347 L 233 347 L 233 343 L 232 343 Z M 9 345 L 7 347 Q 6 350 10 349 L 12 349 L 14 348 Q 16 349 15 346 L 13 347 L 9 345 Z M 229 345 L 228 347 L 230 346 L 229 345 Z M 90 346 L 90 348 L 92 347 L 90 346 Z M 169 347 L 168 353 L 169 353 L 169 347 Z M 165 348 L 164 354 L 165 354 L 165 348 Z M 229 350 L 227 353 L 230 351 L 229 350 Z M 174 351 L 174 353 L 177 352 L 174 351 Z M 135 354 L 134 357 L 135 357 L 135 354 Z M 170 354 L 169 359 L 170 359 L 170 354 Z M 89 360 L 88 362 L 90 363 L 89 360 Z M 170 360 L 169 368 L 170 368 L 170 360 Z M 123 361 L 121 365 L 123 366 L 123 361 Z M 43 362 L 41 366 L 43 365 L 43 362 Z M 162 363 L 161 366 L 162 366 L 162 363 Z M 132 365 L 132 367 L 134 367 L 129 373 L 130 377 L 133 379 Q 132 384 135 383 L 135 387 L 136 387 Q 137 382 135 381 L 136 372 Q 132 371 134 376 Q 130 377 131 375 L 130 374 L 135 369 Q 137 363 132 365 Z M 124 369 L 125 372 L 126 370 L 124 369 Z M 124 372 L 123 381 L 124 381 L 124 372 Z M 59 375 L 58 378 Q 59 381 55 379 L 52 385 L 28 400 L 23 407 L 20 409 Q 21 411 19 410 Q 11 417 7 429 L 7 481 L 16 476 Q 18 477 17 475 L 23 470 L 26 478 L 31 477 L 36 477 L 38 479 L 53 485 L 56 483 L 64 483 L 73 486 L 90 486 L 98 488 L 100 487 L 105 488 L 116 484 L 119 484 L 122 487 L 129 490 L 138 490 L 139 489 L 159 489 L 159 491 L 167 490 L 170 487 L 170 477 L 173 471 L 173 462 L 176 453 L 176 447 L 176 445 L 177 442 L 172 436 L 172 431 L 176 428 Q 175 425 171 426 L 170 431 Q 169 435 171 437 L 171 453 L 169 457 L 170 462 Q 169 465 164 464 L 164 462 L 158 466 L 156 465 L 154 461 L 149 468 Q 144 469 144 466 L 139 468 L 131 466 L 130 464 L 131 461 L 130 456 Q 129 450 131 449 L 128 434 Q 123 434 121 430 L 122 426 Q 124 415 119 412 L 121 408 L 116 407 L 113 405 L 113 391 L 112 388 Q 109 387 110 391 L 108 392 L 95 389 L 93 389 L 91 396 L 92 398 L 92 413 L 94 413 L 96 417 Q 97 421 93 419 L 93 422 L 92 424 Q 94 423 93 426 L 90 427 L 89 431 L 85 431 Q 86 428 83 429 L 83 426 L 80 423 L 81 422 Q 82 418 78 420 L 79 416 L 84 413 L 83 386 Q 71 384 64 377 Q 61 378 62 375 L 59 375 Z M 173 375 L 172 396 L 173 398 L 174 398 L 174 386 L 173 385 L 173 375 Z M 90 376 L 88 378 L 89 382 L 90 382 L 90 376 Z M 117 376 L 117 379 Q 120 378 117 376 Z M 122 380 L 120 388 L 121 394 L 122 388 L 122 380 Z M 162 382 L 161 385 L 162 385 L 162 382 Z M 210 382 Q 207 386 211 385 L 210 382 Z M 161 387 Q 160 390 163 389 Q 164 386 161 387 Z M 238 387 L 213 392 L 214 403 Q 213 398 216 396 L 219 398 L 219 396 L 227 395 L 232 392 L 237 394 L 244 390 L 238 387 Z M 136 388 L 135 391 L 136 391 L 136 388 Z M 144 388 L 144 391 L 146 390 Q 147 387 144 388 Z M 149 390 L 149 395 L 150 395 Q 151 391 149 390 Z M 116 391 L 114 395 L 115 403 L 116 396 L 116 391 Z M 196 392 L 196 393 L 198 393 L 196 392 Z M 87 395 Q 85 398 88 397 L 87 395 Z M 160 397 L 158 400 Q 157 404 159 406 L 158 408 L 159 412 L 156 413 Q 155 416 158 415 L 160 413 L 162 404 L 161 404 L 159 402 L 160 400 L 160 397 Z M 211 398 L 208 402 Q 207 404 210 403 Q 211 407 208 406 Q 207 411 211 409 L 211 398 Z M 151 399 L 150 402 L 151 402 L 151 399 Z M 218 399 L 218 402 L 219 402 Q 220 398 218 399 Z M 175 401 L 175 403 L 178 403 L 175 401 Z M 136 404 L 135 408 L 136 408 L 136 404 Z M 175 405 L 171 409 Q 170 411 175 410 L 174 409 Q 173 406 177 407 Q 178 404 175 405 Z M 181 405 L 179 410 L 181 409 L 183 411 L 181 412 L 178 411 L 180 413 Q 183 412 182 415 L 184 414 Q 186 415 185 411 L 195 411 L 196 410 L 194 409 L 192 409 Q 184 410 185 408 L 181 405 Z M 137 408 L 137 411 Q 136 418 139 417 Q 137 415 138 410 L 137 408 Z M 165 409 Q 164 412 168 411 Q 169 408 165 409 Z M 208 409 L 206 411 Q 200 409 201 413 L 205 412 Q 209 411 207 415 L 213 414 L 215 411 L 215 409 L 213 412 L 211 411 L 208 412 L 208 409 Z M 173 412 L 169 415 L 170 416 L 176 414 L 173 412 Z M 200 412 L 197 414 L 200 414 L 200 412 Z M 163 413 L 163 415 L 168 415 L 163 413 Z M 85 415 L 82 417 L 85 417 L 85 415 Z M 176 416 L 175 417 Q 171 416 172 420 L 175 420 L 176 419 L 176 416 Z M 147 418 Q 146 421 149 420 Q 150 417 147 418 Z M 163 418 L 163 420 L 165 419 L 163 418 Z M 166 418 Q 165 421 168 420 Q 169 417 166 418 Z M 127 421 L 129 427 L 129 426 L 129 424 Q 130 420 127 421 Z M 154 422 L 154 423 L 162 423 L 161 427 L 156 426 L 154 427 L 153 429 L 160 428 L 162 428 L 163 428 L 163 424 L 167 425 L 167 423 Q 162 421 154 422 Z M 149 424 L 147 427 Q 146 429 145 427 L 142 432 L 144 436 Q 141 437 145 439 Q 146 442 143 441 Q 142 444 146 443 L 146 446 L 144 446 L 145 449 L 145 452 L 135 452 Q 134 455 137 454 L 140 453 L 143 454 Q 146 453 145 457 L 143 458 L 141 458 L 137 457 L 135 460 L 138 460 L 140 459 L 143 461 L 145 460 L 148 464 L 150 459 L 149 440 L 148 440 L 146 436 L 149 436 L 145 434 L 144 431 Q 145 428 147 430 L 149 429 L 149 424 Z M 162 430 L 160 432 L 153 433 L 160 433 L 161 437 L 155 437 L 154 436 L 153 438 L 161 438 L 162 440 Q 163 442 161 441 L 159 441 L 155 442 L 153 442 L 155 444 L 157 443 L 159 443 L 164 444 L 165 436 Q 168 428 162 430 Z M 175 430 L 174 436 L 176 436 L 175 430 Z M 143 434 L 142 435 Q 139 434 140 437 L 143 436 L 143 434 Z M 133 436 L 133 438 L 139 437 L 133 436 Z M 141 440 L 140 441 Q 134 439 135 443 L 139 442 L 142 443 Q 143 439 141 440 Z M 138 446 L 135 448 L 139 448 L 138 446 Z M 142 446 L 140 448 L 143 448 L 142 446 Z M 155 446 Q 152 451 159 449 L 158 447 L 156 448 L 155 446 Z M 160 447 L 161 448 L 163 450 Q 164 445 160 447 Z M 194 450 L 192 453 L 193 455 L 194 453 L 194 450 Z M 162 451 L 161 452 L 154 452 Q 153 456 160 454 Q 161 456 162 454 L 162 451 Z M 180 453 L 179 457 L 180 457 L 180 453 Z M 159 457 L 159 461 L 160 461 Q 161 456 159 457 Z M 310 460 L 305 462 L 303 461 Q 299 460 300 463 L 302 464 L 319 464 L 320 465 L 320 462 L 312 462 L 310 460 Z M 333 462 L 330 464 Q 326 463 327 466 L 333 468 L 333 462 Z M 192 465 L 188 478 L 190 487 Q 189 479 192 475 L 192 465 Z M 288 466 L 273 469 L 239 480 L 239 481 L 253 477 L 262 476 L 268 473 L 284 471 L 290 469 L 298 469 L 299 468 L 318 468 L 324 470 L 327 470 L 315 466 L 288 466 Z M 290 473 L 288 475 L 290 475 L 290 473 Z M 281 474 Q 280 477 283 476 Q 284 473 281 474 Z M 21 475 Q 17 481 10 483 Q 5 482 7 487 Q 14 486 18 489 L 31 489 L 32 488 L 39 488 Q 40 491 46 490 L 48 492 L 55 491 L 58 492 L 60 491 Q 66 493 77 492 L 78 493 L 86 492 L 89 491 Q 93 490 95 492 L 115 492 L 116 493 L 131 493 L 119 487 L 117 488 L 115 487 Q 110 486 109 489 L 75 488 L 73 488 L 63 485 Q 55 483 54 487 L 45 485 L 34 479 L 28 482 L 26 481 Q 23 480 23 477 L 21 475 Z M 277 475 L 275 477 L 277 477 L 277 475 Z M 259 479 L 259 481 L 261 480 L 259 479 Z M 176 481 L 175 484 L 176 484 L 176 481 Z M 236 481 L 236 482 L 238 482 L 236 481 Z M 252 481 L 250 483 L 252 483 L 252 481 Z M 233 482 L 233 483 L 235 483 L 233 482 Z M 271 482 L 259 486 L 261 489 L 263 486 L 264 488 L 266 485 L 266 487 L 267 487 Q 266 484 269 485 L 268 487 L 270 487 L 271 484 L 271 482 Z M 272 482 L 272 486 L 274 485 Q 275 481 272 482 Z M 277 482 L 275 485 L 277 484 L 277 482 Z M 229 483 L 217 487 L 217 488 L 232 484 L 229 483 Z M 245 483 L 246 485 Q 247 482 245 483 Z M 316 483 L 306 485 L 304 484 L 302 488 L 305 486 L 307 487 L 311 485 L 312 486 L 325 486 L 326 487 L 327 484 L 325 485 L 316 483 Z M 213 485 L 212 489 L 214 489 L 213 485 Z M 237 485 Q 236 488 239 487 Q 240 484 237 485 Z M 297 485 Q 296 488 299 487 Q 300 489 301 487 L 301 485 L 297 485 Z M 328 485 L 328 487 L 332 488 Q 334 489 333 486 L 328 485 Z M 290 486 L 288 489 L 290 488 L 290 486 Z M 291 486 L 291 489 L 294 489 L 296 487 L 291 486 Z M 255 487 L 253 490 L 256 489 Q 257 486 255 487 Z M 284 487 L 281 489 Q 283 492 284 489 L 284 487 Z M 285 487 L 285 490 L 287 489 Q 288 486 285 487 Z M 171 488 L 172 489 L 173 490 Q 174 487 171 488 Z M 230 488 L 228 493 L 230 492 L 230 488 Z M 280 488 L 279 491 L 280 491 L 280 488 Z M 198 489 L 197 502 L 198 502 L 198 489 Z M 249 489 L 247 492 L 249 491 L 249 489 Z M 250 489 Q 249 492 252 491 Q 253 488 250 489 Z M 277 489 L 275 491 L 277 491 L 277 489 Z M 187 490 L 187 492 L 189 493 Q 190 489 187 490 Z M 223 490 L 220 491 L 221 494 L 221 493 L 223 493 L 223 490 Z M 313 490 L 313 495 L 314 493 L 313 490 Z M 316 490 L 315 492 Q 316 494 318 492 Q 320 493 319 491 L 318 491 L 316 490 Z M 320 490 L 320 493 L 323 493 L 325 492 L 325 494 L 328 492 L 330 494 L 331 493 L 325 490 L 323 491 L 320 490 Z M 8 491 Q 8 494 15 493 L 18 494 Q 20 495 19 492 L 8 491 Z M 31 491 Q 29 493 25 492 L 23 494 L 39 495 L 42 496 L 45 496 L 39 492 L 31 491 Z M 141 491 L 140 492 L 133 492 L 132 494 L 145 494 L 157 492 L 141 491 Z M 244 491 L 244 493 L 246 492 L 244 491 Z M 271 491 L 268 495 L 270 495 L 271 493 L 271 491 Z M 308 491 L 306 494 L 307 496 L 308 494 L 308 491 Z M 309 491 L 310 495 L 311 493 Q 312 490 309 491 Z M 217 492 L 215 495 L 217 495 L 217 492 Z M 239 492 L 239 495 L 241 494 Q 242 491 239 492 Z M 260 492 L 258 494 L 260 494 L 260 492 Z M 262 492 L 260 496 L 262 496 L 262 492 Z M 265 492 L 263 495 L 265 495 L 265 492 Z M 298 492 L 296 494 L 297 497 L 298 494 L 298 492 Z M 299 492 L 300 497 L 301 494 Q 302 491 299 492 Z M 303 492 L 302 495 Q 301 497 304 496 L 305 494 Q 306 491 303 492 Z M 163 493 L 164 495 Q 165 492 163 493 Z M 253 493 L 251 495 L 252 498 L 254 495 L 256 498 L 258 495 L 257 494 L 255 494 L 253 493 Z M 292 493 L 287 494 L 288 498 L 290 495 L 291 498 L 291 497 L 293 496 L 292 498 L 294 498 L 295 495 Q 296 492 292 493 Z M 160 494 L 162 496 Q 163 493 160 494 Z M 188 494 L 186 498 L 189 500 Q 190 493 188 494 Z M 234 494 L 234 496 L 237 495 L 234 494 Z M 250 494 L 248 496 L 249 499 L 250 497 L 250 494 Z M 50 495 L 51 497 L 55 498 L 58 497 L 61 498 L 69 498 L 67 496 L 59 496 L 58 495 L 56 496 L 50 495 Z M 154 495 L 146 497 L 146 498 L 158 496 L 154 495 Z M 231 495 Q 230 498 233 497 Q 234 494 231 495 Z M 247 495 L 244 498 L 245 500 L 247 497 L 247 495 Z M 281 495 L 278 496 L 279 500 L 279 499 L 281 498 L 280 500 L 281 502 L 283 498 Q 284 494 281 495 Z M 284 495 L 283 500 L 285 500 L 286 497 Q 287 494 284 495 Z M 101 496 L 94 498 L 86 498 L 85 497 L 71 499 L 82 499 L 83 500 L 113 498 L 114 496 L 109 497 L 101 496 Z M 185 496 L 185 504 L 188 502 L 188 500 L 185 501 L 185 496 Z M 242 496 L 240 501 L 242 500 L 242 496 Z M 239 497 L 237 499 L 238 501 L 239 499 L 239 497 Z M 323 497 L 322 500 L 323 500 L 323 497 Z M 165 498 L 165 500 L 165 501 L 167 500 Q 168 497 165 498 Z M 236 498 L 234 502 L 236 501 L 236 498 Z M 269 498 L 268 502 L 269 505 L 272 499 L 271 501 L 272 504 L 274 499 L 269 498 Z M 313 498 L 312 501 L 313 502 L 315 499 L 313 498 Z M 316 498 L 314 503 L 315 505 L 318 500 Q 319 497 316 498 Z M 326 498 L 324 501 L 326 500 L 326 498 Z M 329 498 L 326 503 L 328 503 L 329 500 L 329 498 Z M 231 499 L 228 504 L 231 502 L 231 499 Z M 233 499 L 232 502 L 233 502 L 233 499 Z M 276 499 L 274 501 L 275 503 L 276 501 L 276 499 Z M 302 499 L 300 501 L 301 504 L 302 502 L 302 499 Z M 305 499 L 303 501 L 305 501 L 305 499 Z M 308 499 L 304 506 L 306 506 L 308 501 L 308 499 Z M 224 500 L 224 504 L 224 503 Q 226 501 224 500 Z M 259 500 L 258 504 L 259 504 L 259 500 Z M 260 500 L 259 505 L 260 506 L 262 503 Q 263 499 260 500 Z M 264 500 L 264 502 L 263 504 L 265 503 Q 266 499 264 500 Z M 296 500 L 293 503 Q 292 505 295 504 L 296 502 L 298 505 L 299 502 Q 300 499 298 500 L 296 500 Z M 221 501 L 222 503 Q 223 500 221 501 Z M 255 501 L 251 503 L 252 505 L 253 505 Q 252 502 255 503 L 254 505 L 255 507 L 257 502 L 255 501 Z M 267 501 L 266 504 L 267 504 L 267 501 Z M 292 501 L 290 503 L 291 506 L 292 504 L 292 501 Z M 319 501 L 317 504 L 319 504 L 319 501 Z M 197 502 L 196 505 L 197 505 L 197 502 Z M 213 502 L 214 506 L 215 504 L 217 505 Q 219 500 213 502 Z M 219 502 L 218 505 L 219 505 L 219 502 Z M 289 502 L 287 504 L 288 506 L 289 504 L 289 502 Z M 309 502 L 307 506 L 309 505 L 309 502 Z M 286 503 L 283 505 L 285 507 L 286 505 L 286 503 Z M 162 504 L 161 508 L 162 508 L 162 504 Z M 166 504 L 164 506 L 165 508 L 166 506 L 166 504 Z M 245 504 L 246 508 L 247 505 L 245 504 Z M 196 505 L 193 512 L 194 513 L 196 510 L 196 505 Z M 239 505 L 237 507 L 238 509 L 239 507 L 239 505 Z M 244 505 L 242 508 L 244 508 L 244 505 Z M 275 506 L 275 508 L 277 507 L 275 506 Z M 321 506 L 320 509 L 324 512 Q 321 515 314 513 L 315 515 L 322 515 Q 320 519 324 518 L 326 518 Q 329 517 328 521 L 327 520 L 323 522 L 327 522 L 326 525 Q 327 527 329 525 L 331 527 Q 332 529 330 528 L 326 528 L 323 527 L 321 527 L 315 529 L 322 529 L 325 530 L 330 529 L 330 531 L 314 531 L 313 534 L 313 548 Q 312 551 310 548 Q 309 536 311 530 Q 306 529 305 532 Q 306 536 303 535 L 302 532 L 304 528 L 307 529 Q 308 526 304 527 L 302 525 Q 304 521 310 522 L 305 520 L 303 517 L 305 515 L 311 515 L 312 512 Q 311 508 315 509 L 314 507 L 312 508 L 310 507 L 308 510 L 307 508 L 305 511 L 304 511 L 304 509 L 300 509 L 299 513 L 298 513 Q 299 510 297 511 Q 295 508 294 512 L 293 511 L 291 512 L 289 511 L 287 514 L 286 512 L 281 513 L 279 513 L 276 517 L 275 515 L 271 515 L 271 517 L 270 516 Q 264 515 262 518 L 260 517 L 258 520 L 261 521 L 262 519 L 263 522 L 263 523 L 265 522 L 264 524 L 265 526 L 266 523 L 267 523 L 266 526 Q 267 530 264 529 L 264 527 L 262 532 L 261 530 L 260 533 L 259 531 L 257 535 L 255 534 L 255 533 L 255 528 L 254 532 Q 252 530 250 534 L 273 544 L 278 550 Q 282 551 280 546 L 284 545 Q 283 542 286 543 L 285 549 L 288 549 L 293 553 L 296 553 L 298 553 L 318 553 L 318 551 Q 321 554 328 553 L 332 553 L 333 553 L 333 507 L 331 506 L 329 507 Q 323 508 321 506 Z M 229 507 L 227 510 L 229 510 L 229 507 Z M 232 507 L 230 510 L 232 509 L 232 507 Z M 235 507 L 233 509 L 235 509 L 235 507 Z M 281 507 L 279 509 L 280 511 L 281 509 L 281 507 Z M 284 507 L 282 510 L 284 510 L 284 507 Z M 287 507 L 285 509 L 287 509 L 287 507 Z M 184 509 L 185 512 L 186 510 L 184 509 Z M 214 509 L 215 513 L 216 510 L 217 513 L 218 511 L 218 509 L 214 509 Z M 259 509 L 257 515 L 258 516 L 261 511 Q 262 508 259 509 Z M 262 509 L 261 513 L 262 514 L 264 511 Q 265 508 262 509 Z M 168 510 L 167 513 L 168 513 L 168 510 Z M 254 510 L 253 514 L 254 514 L 254 510 Z M 256 510 L 257 513 L 258 511 L 256 510 Z M 271 510 L 269 513 L 271 512 L 271 510 Z M 314 510 L 315 512 L 321 512 L 321 510 L 314 510 Z M 251 512 L 250 515 L 251 515 L 251 512 Z M 236 513 L 236 516 L 236 517 L 238 516 Q 239 512 236 513 Z M 240 513 L 239 516 L 240 516 L 240 513 Z M 184 514 L 183 517 L 184 517 L 184 514 Z M 192 514 L 192 516 L 194 515 L 192 514 Z M 221 514 L 220 517 L 221 517 L 221 514 Z M 230 514 L 231 518 L 232 516 Q 233 513 230 514 Z M 309 517 L 309 518 L 311 518 L 309 517 Z M 315 517 L 314 519 L 319 519 L 318 518 L 315 517 Z M 97 518 L 94 520 Q 89 519 90 522 L 100 524 L 102 523 L 104 524 L 103 527 Q 96 526 97 529 L 92 532 L 87 530 L 81 534 L 78 534 L 75 537 L 72 535 L 70 538 L 62 538 L 61 539 L 45 537 L 46 539 Q 49 538 48 542 L 48 543 L 51 542 L 59 544 L 63 548 Q 62 551 65 550 L 67 550 L 69 549 L 74 550 L 76 550 L 78 549 L 79 550 L 90 550 L 92 550 Q 96 551 98 549 L 99 550 L 169 550 L 170 551 L 172 550 L 174 550 Q 179 549 181 551 L 186 550 L 189 551 L 191 551 L 194 550 L 197 551 L 199 550 Q 200 545 198 544 Q 199 539 197 540 L 195 537 L 192 538 L 191 543 Q 185 544 183 541 Q 178 540 177 543 L 173 543 L 164 539 L 159 535 L 142 532 L 140 533 L 132 532 L 132 530 Q 135 531 134 529 L 136 529 L 147 528 L 146 526 L 142 526 Q 143 523 141 524 L 139 521 L 138 521 L 128 518 L 107 520 L 105 520 L 97 518 Z M 255 518 L 254 522 L 255 523 L 257 519 L 255 518 Z M 218 520 Q 215 521 216 525 Q 219 526 218 524 L 222 522 L 218 520 Z M 238 520 L 238 526 L 239 526 Q 240 519 238 520 Z M 242 520 L 240 523 L 241 525 L 248 522 L 251 524 L 250 523 L 251 521 L 246 520 L 244 520 L 243 523 L 242 520 Z M 253 520 L 252 523 L 253 523 L 253 520 Z M 161 521 L 161 524 Q 159 525 162 526 L 163 523 Q 164 520 161 521 Z M 225 521 Q 224 524 227 523 Q 228 520 225 521 Z M 234 521 L 233 524 L 234 524 L 234 521 Z M 237 521 L 235 523 L 236 526 L 237 524 L 237 521 Z M 323 523 L 322 524 L 314 524 L 313 526 L 323 525 Q 324 527 325 525 L 323 523 Z M 87 524 L 84 526 L 84 527 L 90 526 Q 91 523 87 524 Z M 192 524 L 190 527 L 192 526 L 192 524 Z M 199 524 L 198 528 L 199 528 L 199 524 Z M 307 524 L 307 526 L 310 526 L 311 525 L 307 524 Z M 225 526 L 224 530 L 225 530 L 225 526 Z M 67 527 L 63 530 L 35 530 L 28 528 L 25 529 L 28 530 L 40 531 L 41 532 Q 46 530 45 534 Q 54 533 59 536 L 69 534 L 69 533 L 65 534 L 63 531 L 68 529 Q 69 526 67 527 Z M 152 527 L 152 528 L 155 528 L 152 527 Z M 188 527 L 188 529 L 190 528 L 188 527 Z M 223 527 L 221 529 L 223 529 L 223 527 Z M 250 527 L 249 530 L 250 530 L 250 527 Z M 258 527 L 257 530 L 258 530 L 258 527 Z M 310 527 Q 308 530 311 529 L 310 527 Z M 23 528 L 17 529 L 19 533 L 25 536 Q 28 538 28 545 L 32 548 Q 31 550 35 549 L 37 549 L 44 550 L 46 550 L 55 549 L 56 548 L 53 546 L 51 547 L 48 546 L 43 547 Q 39 545 41 543 L 39 544 L 33 542 L 35 538 Q 36 535 40 536 L 41 534 L 38 535 L 24 532 Q 20 530 24 529 L 23 528 Z M 74 528 L 72 529 L 70 532 L 70 533 Q 78 533 82 529 L 74 528 Z M 166 528 L 166 530 L 168 529 L 166 528 Z M 236 528 L 234 531 L 236 531 L 236 528 Z M 244 528 L 244 532 L 244 531 Q 246 529 244 528 Z M 188 529 L 186 531 L 187 533 L 188 531 L 188 529 Z M 241 529 L 238 531 L 241 532 L 241 529 Z M 246 530 Q 244 533 247 532 L 246 530 Z M 249 530 L 248 533 L 250 533 L 249 530 Z M 190 531 L 191 534 L 192 532 L 190 531 Z M 200 531 L 199 534 L 200 534 L 200 531 Z M 165 533 Q 164 535 168 535 Q 169 532 165 533 Z M 229 534 L 230 535 L 231 537 L 234 536 Q 235 532 229 534 Z M 237 534 L 236 536 L 240 536 L 237 534 Z M 226 537 L 224 539 L 226 542 L 221 544 Q 220 547 223 546 Q 224 549 220 548 L 220 549 L 232 549 L 232 551 L 234 552 L 227 539 Q 228 536 226 537 Z M 232 539 Q 233 545 238 549 L 238 552 L 240 551 L 247 552 L 249 552 L 260 552 L 261 553 L 263 552 Q 268 551 270 553 L 271 550 L 268 548 L 266 545 L 252 539 L 232 539 Z M 203 541 L 203 543 L 207 543 L 203 541 Z M 8 551 L 8 570 L 7 571 L 7 590 L 9 591 L 90 591 L 91 590 L 93 591 Q 99 593 101 590 L 103 591 L 105 591 L 107 590 L 167 590 L 171 589 L 173 589 L 175 590 L 242 590 L 243 591 L 295 591 L 296 590 L 297 591 L 332 591 L 333 590 L 333 556 L 329 557 L 328 556 L 286 556 L 282 555 L 280 555 L 278 556 L 277 555 L 244 555 L 242 555 L 204 554 L 203 553 L 201 554 L 189 554 L 187 554 L 184 553 L 182 553 L 179 554 L 177 553 L 59 553 L 57 553 L 48 553 L 47 552 L 45 553 L 43 552 L 11 552 L 8 551 Z "></path><path d="M 119.5 109 L 122.5 111 L 124 113.5 L 123 113.5 Q 123.8 111.3 121.5 112 Q 119.7 108.9 118 110.5 L 119.5 109 Z "></path><path d="M 119.5 112 L 120.5 114 Q 117.7 114.7 119.5 112 Z "></path><path d="M 151.5 269 L 152.5 271 L 151.5 269 Z "></path><path d="M 159.5 278 L 158.5 280 L 159.5 278 Z "></path><path d="M 161.5 279 L 162 280.5 L 159.5 282 L 159.5 281 Q 162 281.7 161.5 279 Z "></path><path d="M 165.5 281 L 166.5 283 L 165.5 281 Z "></path><path d="M 156.5 326 L 158.5 329 L 156.5 326 Z "></path><path d="M 261 326 Q 265.1 324.7 264 328 Q 259.9 329.3 261 326 Z "></path><path d="M 132.5 343 L 133 346.5 L 132 346.5 L 132.5 343 Z "></path><path d="M 130.5 347 L 131 351.5 L 130 351.5 L 130.5 347 Z "></path><path d="M 151.5 351 L 150.5 353 L 151.5 351 Z "></path><path d="M 128.5 354 L 130 356.5 L 127 356.5 L 128.5 354 Z "></path><path d="M 152.5 360 L 152 361.5 Q 152.8 363.8 150.5 363 L 152.5 360 Z "></path><path d="M 190.5 368 L 191.5 370 L 190.5 368 Z "></path><path d="M 114.5 522 L 115.5 524 L 114.5 522 Z "></path><path d="M 117.5 522 L 118.5 524 L 117.5 522 Z "></path><path d="M 129.5 529 L 128.5 531 L 129.5 529 Z "></path><path d="M 132.5 533 L 131.5 535 L 132.5 533 Z "></path><path d="M 316 533 Q 321.2 530.9 320 535.5 L 317.5 537 L 316 533 Z "></path><path d="M 136.5 534 Q 155.5 532.5 164 541.5 Q 164.8 544.1 161.5 543 Q 155.5 538.5 146.5 537 L 135 537 L 136.5 534 Z "></path><path d="M 94.5 540 L 95.5 542 L 94.5 540 Z "></path><path d="M 147 540 L 152.5 540 L 161 544.5 L 159.5 547 L 155.5 544 L 148.5 542 L 147 542.5 L 147 540 Z "></path><path d="M 165.5 544 L 174 545 L 173.5 547 L 165.5 547 Q 162.5 545.5 165.5 544 Z "></path><path d="M 342.5 548 L 343 550 L 341 549.5 L 342.5 548 Z "></path><path d="M 342.5 555 L 343 556.5 L 341 557.5 L 342.5 555 Z "></path><path d="M 10.5 559 Q 17.3 558.1 20 560 Q 21.1 563.3 17 562 L 17 566.5 L 19.5 565 L 23 562.5 L 23 560 L 31 560 Q 32.8 564.9 26.5 563 L 21 567.5 Q 24.9 576.6 32 582.5 L 26.5 584 L 25 580.5 L 19 570 Q 16 568.8 17 572.5 L 16 575.5 L 16 579.5 L 18 583 L 10.5 583 L 10 581 L 12 580.5 L 12 562.5 L 9 560.5 L 10.5 559 Z "></path><path d="M 34.5 560 L 41.5 561 L 43 562.5 L 43 564.5 L 50.5 576 L 51 562 L 48 561.5 L 52.5 560 L 56 561 L 56 563 Q 53.3 561.9 54 564.5 L 55 569.5 L 54 571.5 L 55 576.5 L 55 578.5 L 56 584 Q 48.8 585.5 47 580.5 L 42 570 L 40 570.5 L 41 571.5 L 41 580.5 L 42.5 582 Q 43.8 579.8 45 582.5 L 41.5 584 L 39.5 584 L 37.5 583 L 35.5 584 Q 32.8 582.8 35 581.5 L 35 563.5 L 33.5 562 L 32 561.5 L 34.5 560 Z "></path><path d="M 62.5 560 L 67 561 L 66 567.5 L 66 584 L 60 584 L 60 576.5 L 61 574.5 L 60 573.5 L 60 562 L 58 561.5 L 62.5 560 Z "></path><path d="M 100 560 L 102.5 561 L 104.5 560 Q 107.8 561.8 106 568.5 L 105 571.5 L 106 572.5 L 106 581.5 Q 104.8 584 101 583 L 102 572 L 96 572 L 96 581.5 Q 94.4 584.5 89 583 L 90 580.5 L 90 563.5 L 88.5 561 Q 95.3 559.3 97 562.5 L 96 568.5 Q 97.4 571.3 102 570 L 102 562.5 Q 99.3 563.1 100 560 Z "></path><path d="M 118.5 560 L 120.5 560 Q 126.8 558.8 128 562.5 L 127 565 L 123 565 L 123 563.5 L 123.5 562 L 120 562.5 L 120 582 L 122 582.5 L 120.5 584 L 112 584 Q 111.3 580.9 114 581.5 L 114 564.5 Q 116.3 563.3 113.5 562 L 111.5 566 Q 108.2 567.1 109 564.5 L 108 561 L 117.5 561 L 118.5 560 Z "></path><path d="M 154 560 L 157.5 561 L 158.5 560 L 168.5 560 L 172 562 Q 173.5 568.3 169.5 570 L 162 572.5 L 164 578.5 Q 161.8 579.8 164.5 581 Q 166.8 580.3 166 582.5 L 162.5 584 L 159.5 583 L 156 582.5 L 156 562.5 Q 153.3 563.1 154 560 Z M 162 562 Q 160 567 164 569 L 166 568 L 165 564 Q 166 560 162 562 Z "></path><path d="M 177.5 560 L 178.5 561 L 187 561 L 185.5 565 Q 182.5 565.7 184 562 L 180 562 L 180 568.5 L 179 569.5 L 181 570.5 Q 179.8 565.9 185 568 Q 186.5 573.4 183.5 575 Q 180.9 575.7 182 573 L 180 573 Q 179.1 579 182.5 582 Q 185.8 580.8 185 577 Q 191.4 574.9 189 582 L 186.5 583 L 172.5 583 L 172.5 582 L 174 581.5 L 174 567.5 L 173 565.5 L 174 563.5 Q 171.8 562.3 174.5 561 L 177.5 560 Z "></path><path d="M 216.5 560 L 219.5 561 L 226.5 560 L 232 562.5 Q 234.3 569.8 229 568 L 227.5 564 L 225 565 L 225 582.5 L 223.5 584 Q 219.8 584.8 219 582.5 L 220 579.5 L 219 578.5 L 219 567.5 L 220 564.5 Q 218.5 561.5 217 564.5 L 214.5 568 Q 212 567 213 562.5 L 216.5 560 Z "></path><path d="M 76.5 561 L 84.5 561 L 86 562.5 L 85 568 L 81 566.5 L 82 564 Q 77.3 563 76 566.5 L 75 575.5 L 77.5 579 Q 80.8 580.1 80 577.5 L 77 575.5 Q 78.3 572.7 79.5 575 L 85 575 L 85 583 L 75.5 584 L 69 579.5 L 67 570.5 L 71 563 L 76.5 561 Z "></path><path d="M 190 561 L 197.5 561 L 200 563.5 L 204.5 573 L 205 565.5 L 204 563 Q 201 564 202 561 L 212 561.5 L 210 563.5 L 210 580.5 L 207.5 584 L 204.5 583 Q 202.8 585.7 201 581.5 L 196.5 571 Q 194.1 573.1 195 578.5 L 197 584 L 190.5 584 L 190 582.5 Q 194 580.5 192 572.5 L 191 567.5 L 191 565.5 L 190 561 Z "></path><path d="M 234 561 L 245.5 561 L 247 562.5 L 245 563 L 251 583 Q 254 582 253 585 L 248.5 584 L 246.5 584 Q 243.1 584.9 245 579.5 L 241.5 574 Q 234.5 572.5 235 575.5 L 232 582 Q 237.2 580.3 236 584 L 227.5 584 L 227 582.5 L 236 564.5 L 234 561 Z M 240 565 L 237 570 Q 236 574 241 572 L 240 565 Z "></path><path d="M 315.5 561 L 324 562 L 323 568 L 316.5 565 L 314 566 L 315.5 570 Q 321.7 569.3 324 572.5 Q 326.8 575.2 326 581.5 L 324 585 L 321.5 586 L 318.5 585 L 313.5 586 L 311.5 586 L 309 583.5 Q 308 579 310.5 578 L 312.5 578 L 316.5 582 L 320 582 L 321 576.5 L 320 574 L 313.5 575 L 308 570.5 L 310 563 L 315.5 561 Z "></path><path d="M 262.5 562 L 266.5 563 L 268.5 563 L 271 564.5 L 270 569 Q 266.3 570.5 267 567.5 L 266 565 L 263.5 564 L 261 565 Q 258.3 568.6 259 576.5 L 262.5 582 L 270 582.5 Q 267 585.5 259.5 584 L 254 579.5 L 252 571.5 L 256.5 564 L 262.5 562 Z "></path><path d="M 273 562 L 281.5 562 L 282 563.5 L 281 564.5 L 281 583 L 283.5 582 Q 284.7 584.3 286 581.5 Q 284.8 577.8 288.5 579 L 290 581.5 L 287.5 585 L 274.5 585 L 274 582.5 L 275 581.5 L 275 566.5 L 273 562 Z "></path><path d="M 294.5 562 Q 301.4 561.1 304 564.5 Q 306.1 570.4 301.5 569 Q 299 567.8 300 564 L 297 564 L 297 571 L 300 572.5 Q 301.8 577.8 296.5 576 L 297 577.5 L 297 582 L 302 582 Q 300.9 579.3 303.5 580 L 306 579 Q 307.3 583.6 304.5 585 L 290.5 585 L 290 583 L 292 582.5 L 292 566.5 L 289 565 Q 287.6 561.3 293.5 563 L 294.5 562 Z "></path><path d="M 140.5 566 L 146 567 Q 147.3 570 143.5 569 L 142 568.5 Q 142.3 573.3 145.5 575 L 147 575 Q 145.5 571.3 148.5 572 L 151 576.5 Q 149.8 579.3 148.5 577 L 147 577.5 L 147 584.5 Q 146.3 587.8 141.5 587 L 141.5 586 Q 143.8 586.8 143 584.5 L 144 579.5 L 138 568.5 L 140.5 566 Z "></path><path d="M 129 574 L 136.5 574 L 139 576.5 Q 139.8 581.3 136.5 582 L 131.5 583 L 127 577.5 L 129 574 Z M 132 576 Q 131 580 134 581 L 136 580 L 135 579 Q 136 574 132 576 Z "></path><path d="M 330.5 581 L 332 583.5 L 329.5 585 Q 326 583 330.5 581 Z "></path><path d="M 344.5 590 L 345 593 Q 342.3 594.1 343 591.5 L 344.5 590 Z "></path></svg>