<svg width="350" height="600" version="1.1" xmlns="http://www.w3.org/2000/svg" desc="Created with imagetracer.js version 1.2.5"><path d="M 10.5 5 L 30.5 5 L 31.5 6 L 33.5 6 L 100.5 6 L 101.5 7 L 102.5 6 L 119.5 6 L 123.5 6 L 126.5 7 L 131.5 6 L 133.5 7 L 134.5 6 L 160.5 6 L 162.5 7 L 164.5 6 L 166.5 7 L 169.5 6 Q 171.3 8.8 177.5 7 L 179.5 6 L 180.5 7 L 189.5 7 L 191.5 6 L 193.5 7 L 195.5 7 L 212.5 7 L 213.5 6 L 214.5 7 L 272.5 7 L 275.5 8 L 278.5 7 L 279.5 8 L 330.5 8 L 335 9 L 335 16.5 L 336 17.5 L 336 107.5 L 336 109.5 L 335 112.5 L 335 143.5 L 336 144.5 L 336 152.5 L 335 154.5 Q 337.5 156 336 161.5 L 335 165.5 Q 337.5 167 336 172.5 L 335 175.5 L 336 177.5 L 335 178.5 L 335 203.5 L 336 205.5 L 335 206.5 L 335 225.5 L 335 227.5 L 335 508.5 L 336 509.5 L 335 510.5 L 335 549.5 L 334 550.5 L 334 564.5 L 335 567.5 L 334 569.5 L 335 570.5 L 335 589.5 L 336 590.5 L 335 594 L 312.5 593 L 311.5 594 L 267.5 594 L 263.5 593 L 261.5 594 L 259.5 593 L 257.5 594 Q 255.7 591.2 249.5 593 L 247.5 593 L 244.5 594 L 216.5 594 L 212.5 593 L 211.5 594 L 200.5 594 L 198.5 593 L 193.5 594 L 191.5 593 L 190.5 594 L 180.5 594 L 177.5 593 Q 176 595.5 170.5 594 L 168.5 594 L 141.5 594 L 139.5 593 L 137.5 594 L 133.5 593 L 131.5 593 Q 126 591.5 124.5 594 L 123.5 593 L 46.5 593 L 44.5 594 L 43.5 593 L 29.5 593 L 27.5 593 L 4 593 L 4 580.5 L 5 577.5 L 4 575.5 L 5 574.5 L 5 548.5 L 4 545.5 L 5 542.5 L 4 540.5 Q 6.5 539 5 533.5 L 4 531.5 L 5 530.5 L 5 501.5 L 4 500.5 L 4 488.5 L 5 487.5 L 5 436.5 L 4 435.5 L 3 403.5 L 4 402.5 L 4 345.5 L 4 343.5 L 4 288.5 Q 6.7 286.7 5 280.5 Q 2.8 279.3 4 274.5 L 5 273.5 L 6 160.5 L 7 159.5 L 6 155.5 L 7 150.5 L 7 148.5 L 7 88.5 L 8 86.5 L 7 83.5 Q 9.2 82.3 8 77.5 L 7 75.5 L 8 74.5 L 8 63.5 L 8 61.5 L 8 21.5 L 9 20.5 L 9 6.5 L 10.5 5 Z M 15 9 L 13 11 L 13 31 L 12 32 L 13 35 L 12 36 L 12 98 L 11 103 L 11 105 L 12 109 L 11 122 L 11 124 L 12 128 L 11 129 L 11 166 L 10 167 L 11 169 Q 12 173 10 175 L 10 194 L 11 195 L 10 199 L 11 230 L 11 228 L 16 226 Q 22 225 25 227 L 28 219 Q 35 209 49 206 L 60 206 L 71 211 Q 79 216 81 228 L 81 230 L 82 235 L 82 241 L 80 248 L 87 251 L 90 255 L 93 264 L 90 272 Q 88 276 81 276 Q 90 283 91 299 L 91 301 Q 90 310 86 318 L 88 317 L 95 320 Q 99 323 101 330 Q 103 341 97 346 L 102 354 L 101 362 L 106 363 Q 111 365 112 373 L 123 363 Q 125 364 124 362 L 133 355 Q 136 356 135 353 L 125 355 L 119 355 L 115 357 L 108 358 L 107 359 L 103 356 Q 105 351 104 343 L 105 342 L 104 339 L 105 336 L 104 332 L 105 327 L 111 329 L 116 329 L 133 333 L 148 333 Q 151 328 152 320 L 155 317 L 154 315 L 154 313 L 158 309 L 159 284 L 160 283 L 160 255 L 161 254 L 160 252 L 161 251 L 161 223 L 162 222 L 163 140 L 164 139 L 163 135 L 164 134 L 164 109 L 165 108 L 164 104 L 165 102 L 165 83 Q 157 84 153 82 Q 154 88 151 92 L 152 94 Q 153 101 150 104 Q 151 107 149 106 L 146 104 L 145 98 L 143 96 Q 142 90 146 89 L 146 79 L 141 77 Q 136 76 137 70 L 131 66 L 132 63 L 130 59 L 129 62 L 126 64 L 127 66 Q 131 65 132 69 Q 133 73 130 74 L 132 78 Q 134 84 131 86 Q 132 88 129 87 Q 127 85 126 88 L 132 90 L 135 96 L 138 97 L 139 100 L 136 101 L 140 111 L 141 120 L 138 121 Q 131 118 133 107 L 133 105 L 131 99 L 130 106 L 127 110 L 127 114 L 130 115 L 132 123 L 140 135 L 141 147 L 138 148 L 134 141 L 131 148 L 131 152 L 128 153 L 126 148 L 131 136 Q 133 130 130 131 L 128 128 Q 124 127 126 133 L 126 135 L 127 139 L 126 143 Q 127 145 124 144 L 124 151 L 123 152 L 130 166 Q 131 170 127 171 L 129 175 L 129 186 L 125 185 L 125 183 L 123 189 L 120 191 L 120 194 L 124 200 Q 122 201 123 207 L 120 208 Q 115 203 114 194 L 111 196 L 107 194 L 108 191 Q 109 188 114 189 L 115 187 L 115 182 L 109 185 Q 108 176 112 172 Q 113 169 111 170 Q 107 169 108 165 L 114 162 L 116 165 L 117 164 L 121 150 L 121 147 L 118 151 L 112 155 L 111 153 Q 111 145 116 143 L 117 136 L 122 134 L 124 128 L 121 123 L 115 130 Q 116 132 112 131 L 111 128 L 111 124 Q 119 119 122 110 L 120 111 L 116 110 L 118 105 L 120 102 L 117 99 L 114 105 L 112 106 Q 108 104 109 98 Q 104 102 104 110 L 101 114 L 99 115 Q 97 117 96 115 L 97 106 Q 103 103 98 101 L 100 95 L 108 90 L 111 83 L 117 81 L 118 82 L 118 72 L 117 74 L 113 76 L 110 73 L 108 72 Q 107 76 109 78 Q 110 84 106 86 L 104 82 L 101 88 L 98 89 L 97 93 L 94 92 L 94 85 L 97 79 L 98 77 L 92 80 L 93 74 L 102 67 Q 104 66 102 65 L 112 58 L 116 58 L 114 57 L 112 54 Q 110 57 105 55 L 103 56 L 105 51 L 108 48 L 115 46 L 119 47 L 115 42 L 116 38 L 128 39 L 131 44 Q 137 43 140 48 Q 147 48 151 45 L 149 41 L 146 38 L 147 37 Q 146 32 149 33 L 152 28 L 158 28 L 164 30 L 165 33 L 164 35 L 166 38 Q 167 28 172 23 L 176 20 L 178 21 L 187 31 L 188 35 L 187 37 L 188 40 L 187 42 Q 189 45 190 42 L 189 32 L 192 29 L 202 27 L 204 31 L 208 34 Q 209 38 206 39 L 207 41 L 202 45 L 209 48 L 213 39 L 213 32 L 217 33 L 218 35 L 219 33 L 218 26 L 223 27 L 224 31 L 225 31 Q 224 28 227 29 L 229 32 L 236 30 L 237 35 L 240 31 Q 239 27 242 28 L 243 32 L 242 34 L 243 36 L 247 35 Q 251 38 249 47 L 252 45 L 254 47 L 251 55 L 254 56 Q 257 55 256 59 L 254 61 L 250 62 Q 245 61 246 64 L 252 64 L 258 67 L 259 71 L 252 73 L 254 73 Q 259 76 259 83 L 257 84 L 255 83 L 251 81 Q 253 87 258 91 L 258 93 Q 254 94 252 91 L 249 90 L 254 100 L 254 105 L 250 107 L 257 119 L 253 118 L 250 117 L 255 124 L 255 126 L 253 127 L 251 126 L 251 128 L 250 130 L 246 129 Q 241 124 239 117 L 238 117 Q 237 123 240 126 L 254 149 Q 255 153 253 155 L 258 165 L 258 176 Q 261 177 257 179 L 255 176 L 253 175 L 255 183 Q 255 194 249 199 Q 248 203 250 205 L 250 211 L 246 222 L 242 224 L 243 220 L 243 214 Q 243 218 240 220 L 240 226 L 237 240 L 235 241 L 231 237 Q 232 230 229 227 L 230 220 L 237 206 Q 235 199 238 198 L 235 180 L 229 164 L 225 146 L 225 135 L 226 134 L 226 126 L 228 117 L 228 107 L 231 90 L 231 65 L 229 54 L 226 56 L 227 59 L 223 61 L 222 65 L 223 68 Q 222 71 219 70 L 216 76 Q 213 81 206 82 L 206 92 L 209 95 Q 210 99 208 101 Q 209 104 207 103 L 205 103 L 203 104 Q 200 103 201 99 L 199 97 L 199 84 L 187 85 L 187 160 L 186 161 L 186 172 L 187 173 L 187 184 L 186 185 L 187 189 Q 188 193 186 195 L 186 271 L 185 272 L 186 276 L 185 278 L 185 311 Q 189 310 190 314 L 189 316 Q 189 320 192 321 L 194 335 L 220 334 Q 230 332 237 327 L 240 327 L 241 329 Q 239 335 242 337 L 241 357 L 240 360 L 237 360 L 225 355 L 209 354 L 200 352 L 196 353 Q 201 355 200 361 L 211 362 L 222 368 L 223 372 Q 224 379 221 382 L 221 384 L 225 388 L 225 396 L 223 403 Q 220 407 214 406 Q 215 416 210 422 Q 211 424 208 423 L 206 424 Q 205 421 208 422 Q 212 417 211 406 L 199 406 L 198 405 Q 196 408 190 406 L 188 406 L 183 408 Q 179 409 180 406 L 188 404 L 191 397 L 195 398 L 196 398 L 195 400 L 196 403 L 197 400 Q 196 397 199 398 L 198 401 L 199 404 L 200 401 Q 199 398 202 399 L 201 404 Q 204 405 203 402 L 205 401 L 204 404 L 207 404 L 209 401 L 211 405 L 212 402 Q 215 401 214 404 L 218 404 L 222 398 Q 224 390 221 387 L 217 383 L 206 385 L 204 384 L 201 385 L 196 384 L 194 384 L 189 385 L 186 381 L 188 380 Q 191 378 191 372 Q 189 370 192 369 L 193 372 Q 194 378 190 380 L 191 382 L 194 378 Q 193 375 196 376 Q 197 381 193 383 L 196 383 L 197 380 L 200 378 L 199 381 L 200 383 L 201 380 Q 204 379 203 383 L 207 382 L 209 383 Q 215 384 219 381 L 221 375 L 220 370 Q 214 364 206 362 L 197 362 L 196 363 Q 189 365 188 362 Q 182 361 181 363 L 166 363 L 165 362 L 161 364 L 152 360 Q 151 357 154 358 L 155 359 L 154 356 L 155 352 L 146 352 L 134 356 L 127 362 L 111 379 L 107 382 L 104 384 L 105 382 L 105 380 L 104 381 L 94 381 L 93 382 L 74 382 L 73 381 L 70 382 L 70 388 L 64 405 Q 62 418 66 427 L 70 430 L 78 434 L 88 436 L 90 436 L 103 436 L 103 439 L 92 438 L 94 444 L 92 452 L 84 456 Q 79 457 79 454 Q 75 455 76 452 L 73 452 L 71 452 L 73 457 L 78 460 L 87 462 L 101 459 Q 109 453 112 443 Q 113 439 110 440 L 109 446 L 106 451 L 103 454 L 93 459 Q 88 460 89 457 Q 95 457 100 453 Q 106 449 106 441 L 110 440 L 104 439 L 106 436 L 122 441 L 135 442 L 136 443 Q 140 444 142 442 L 144 443 Q 153 444 158 441 Q 162 442 161 439 Q 156 440 154 437 Q 148 436 147 438 Q 141 440 142 436 L 146 435 L 154 435 L 165 438 L 193 437 L 200 433 L 204 427 Q 203 424 206 425 L 204 432 L 198 437 L 190 439 Q 185 440 184 438 L 179 439 L 178 445 L 181 457 L 179 463 L 175 467 L 171 468 Q 161 468 158 462 Q 159 459 156 460 Q 155 452 158 449 L 157 444 L 151 445 L 125 444 Q 122 441 116 442 L 115 448 L 109 456 L 102 461 L 96 463 Q 83 465 76 461 L 71 463 L 65 462 L 62 458 L 53 462 L 38 461 L 30 457 L 23 449 L 21 441 L 22 430 Q 15 430 11 425 Q 8 426 9 424 L 8 424 Q 7 429 9 431 L 9 522 L 17 520 L 25 514 L 37 515 Q 39 519 46 520 L 58 520 Q 60 515 66 514 L 67 511 L 70 510 L 82 511 L 83 513 Q 88 509 89 500 L 93 498 Q 101 496 104 500 Q 106 499 105 502 L 109 504 L 110 507 L 131 514 L 140 522 L 161 523 L 162 524 L 174 521 L 180 521 L 186 517 Q 191 516 194 519 L 202 519 L 204 519 L 210 521 L 221 521 L 229 519 L 235 519 L 238 516 Q 242 515 244 518 L 247 517 L 249 518 L 254 517 L 264 512 L 270 504 L 272 505 L 282 496 L 284 496 L 287 504 L 290 505 L 291 501 Q 302 503 308 511 L 310 511 L 313 512 Q 319 513 320 509 L 324 509 L 329 511 L 331 513 Q 333 506 330 505 Q 332 498 331 488 L 332 487 L 331 485 L 331 446 L 332 445 L 331 441 Q 330 436 332 435 L 331 430 L 332 427 L 332 398 L 331 397 Q 330 391 332 390 L 332 355 L 331 354 L 332 349 L 331 347 L 332 343 L 332 198 L 333 197 Q 331 193 332 187 L 332 185 L 332 146 L 333 145 L 332 142 L 332 52 L 333 51 L 332 16 L 331 15 L 331 12 L 305 12 L 303 12 Q 296 14 295 11 L 227 11 L 225 11 L 209 10 L 207 10 L 204 11 L 203 10 L 46 10 L 45 9 L 43 10 L 41 9 L 15 9 Z M 175 25 L 170 32 L 170 43 L 175 44 L 175 25 Z M 179 25 L 178 44 L 179 44 L 184 44 L 184 36 L 185 35 L 184 31 L 179 25 Z M 200 28 Q 197 32 192 31 L 194 35 L 192 35 L 193 38 L 193 36 L 199 34 Q 202 35 201 39 L 198 41 L 195 40 L 194 43 L 190 45 Q 184 44 183 46 L 169 45 L 162 42 L 163 39 L 161 36 L 162 33 L 160 31 Q 158 35 156 32 L 156 30 L 152 30 L 152 33 L 149 37 L 151 39 Q 153 40 152 37 L 158 34 L 160 38 L 156 41 L 154 40 L 153 42 Q 156 41 155 45 L 151 48 L 134 51 L 130 50 L 128 49 L 127 42 Q 125 38 124 42 L 119 40 L 119 42 Q 118 45 123 43 Q 127 45 124 47 L 129 53 L 129 56 Q 139 51 154 50 L 156 50 L 166 48 L 185 48 L 197 51 L 199 50 L 218 55 L 223 58 L 224 54 L 226 51 L 223 52 L 216 52 L 207 50 L 200 46 L 198 42 Q 202 43 203 41 L 203 36 Q 206 37 205 35 L 201 32 L 200 28 Z M 232 33 L 229 39 L 234 38 L 235 39 Q 236 36 232 37 L 232 33 Z M 222 34 Q 220 43 214 48 Q 213 51 219 49 L 222 50 Q 221 46 224 45 L 224 43 L 220 44 L 222 38 L 222 34 Z M 167 38 L 165 40 Q 164 42 167 41 L 167 38 Z M 243 38 L 239 39 Q 240 44 235 46 L 237 46 L 240 41 L 243 40 L 243 38 Z M 234 41 L 232 43 L 229 42 L 228 45 Q 233 46 234 43 L 234 41 Z M 132 46 L 132 48 L 135 48 L 132 46 Z M 111 49 L 111 51 L 109 50 L 108 52 Q 113 54 112 50 L 114 50 L 111 49 Z M 169 50 L 168 51 L 158 51 L 156 51 L 141 54 L 133 58 L 134 61 L 137 60 L 139 61 L 140 64 L 138 67 L 140 69 L 149 64 L 160 63 L 161 62 L 189 62 L 190 63 L 203 64 Q 210 66 215 71 Q 218 69 214 68 L 215 65 Q 214 62 217 63 L 219 63 Q 221 64 220 62 L 216 58 L 202 53 L 197 53 L 185 50 L 169 50 Z M 234 51 L 229 53 L 231 53 L 232 55 L 233 74 L 234 75 L 233 78 L 232 102 L 230 108 L 231 110 L 230 111 L 230 121 L 228 128 L 228 137 L 227 138 L 228 152 Q 231 154 230 161 L 238 182 L 239 190 Q 241 193 242 190 Q 238 185 240 175 L 235 165 Q 234 158 236 156 L 239 155 L 237 153 L 233 148 Q 231 141 238 143 L 240 145 L 235 137 L 234 137 L 234 136 L 231 128 Q 232 125 236 126 L 240 134 L 242 135 L 236 122 L 235 109 L 234 108 L 235 105 Q 234 101 238 102 L 239 104 L 239 110 L 241 117 L 244 123 L 246 124 L 243 117 L 241 105 L 237 90 L 236 92 L 235 92 L 236 89 Q 237 86 241 87 L 249 100 L 251 101 L 251 99 L 247 94 L 246 89 L 245 89 L 245 88 Q 246 81 243 80 L 241 80 L 241 76 L 249 75 Q 250 77 251 75 L 246 72 L 243 71 L 241 72 L 239 68 L 245 67 Q 251 67 254 70 L 254 68 Q 249 64 239 66 L 237 62 Q 241 63 244 60 L 246 60 L 252 58 L 247 55 L 243 56 L 241 56 L 238 55 L 239 52 L 234 51 Z M 113 60 L 108 62 L 108 63 L 113 62 L 113 60 Z M 122 62 L 121 66 L 122 66 L 122 62 Z M 114 63 L 111 68 L 114 67 L 117 69 Q 118 66 116 67 Q 113 66 115 65 Q 116 62 114 63 Z M 166 64 L 165 65 L 158 65 L 157 67 L 166 68 L 166 64 Z M 169 64 L 169 77 L 168 78 L 168 102 L 167 103 L 167 133 L 166 134 L 166 176 L 165 177 L 166 182 L 165 183 L 165 224 L 164 225 L 164 249 Q 162 250 163 255 L 164 258 L 163 259 L 162 303 L 161 304 L 162 307 L 163 305 Q 166 303 164 302 L 167 301 L 166 297 L 170 298 L 168 296 Q 167 293 171 294 Q 172 291 169 292 Q 168 289 171 290 Q 172 287 169 288 Q 168 285 171 286 L 172 284 L 170 281 Q 169 278 172 279 L 170 277 L 172 276 L 171 273 L 171 271 L 172 269 L 171 267 L 172 265 L 171 262 L 172 257 L 172 255 L 171 253 L 172 251 L 171 249 L 172 247 L 172 236 L 173 235 L 172 233 L 173 231 L 173 179 L 174 178 L 173 174 L 173 141 L 174 140 L 173 136 L 174 131 L 173 129 L 173 119 L 174 118 L 174 65 L 169 64 Z M 178 64 L 177 70 L 177 96 L 176 97 L 177 99 L 176 102 L 177 105 L 176 108 L 176 228 L 175 229 L 175 275 L 175 277 L 174 280 L 175 282 L 174 284 L 174 301 L 180 309 Q 179 311 182 310 L 182 283 L 183 282 Q 185 276 182 275 L 183 274 L 183 221 L 184 220 L 184 208 L 183 207 L 184 205 L 183 198 L 183 196 L 184 143 L 184 141 L 184 65 L 184 64 L 178 64 Z M 187 65 L 187 70 Q 194 71 199 68 Q 201 69 200 66 L 187 65 Z M 151 66 L 151 68 L 154 69 L 155 69 L 151 66 Z M 103 68 L 103 69 L 105 69 L 103 68 Z M 203 68 L 202 81 L 201 82 L 202 84 L 201 89 L 203 91 L 203 78 L 206 71 Q 207 66 203 68 Z M 144 69 L 142 72 L 143 75 Q 142 77 145 76 L 146 77 L 145 71 L 144 69 Z M 100 70 L 96 75 L 101 71 L 100 70 Z M 123 70 L 121 73 L 122 76 L 122 74 L 126 73 L 123 70 Z M 210 70 L 207 78 L 207 79 Q 212 80 212 76 Q 213 71 210 70 Z M 150 71 L 149 88 L 148 89 L 149 91 L 150 89 L 150 81 L 151 80 L 150 71 Z M 153 71 L 153 79 L 162 80 L 165 82 L 165 75 L 153 71 Z M 197 71 Q 195 73 191 72 L 189 72 Q 186 71 187 74 Q 194 75 199 72 L 197 71 Z M 196 75 Q 194 78 189 76 Q 185 78 187 83 L 193 83 L 199 81 L 199 75 L 196 75 Z M 129 77 L 128 82 L 129 82 L 129 77 Z M 249 79 L 248 83 L 249 83 L 249 79 Z M 100 81 L 98 83 L 99 86 L 100 84 L 100 81 Z M 115 84 L 113 86 L 114 87 L 116 86 Q 117 83 115 84 Z M 124 84 Q 122 87 125 86 L 124 84 Z M 120 85 L 119 87 L 122 88 L 120 85 Z M 251 85 L 250 87 L 253 88 L 251 85 Z M 118 91 Q 116 95 121 94 L 120 93 Q 121 90 118 91 Z M 108 92 L 105 94 L 109 94 Q 110 91 108 92 Z M 146 93 Q 145 98 149 101 L 150 99 L 149 95 L 146 93 Z M 202 93 Q 201 99 206 100 L 206 95 L 202 93 Z M 242 93 L 241 96 L 242 96 L 242 93 Z M 114 95 L 113 98 L 114 98 L 114 95 Z M 125 95 L 124 99 L 126 105 L 128 104 L 125 95 Z M 243 97 L 243 101 Q 242 104 245 103 L 248 111 L 250 112 L 245 100 L 243 97 Z M 102 104 L 99 109 L 100 111 L 102 106 L 102 104 Z M 136 108 L 137 118 L 138 118 Q 139 111 136 108 Z M 122 115 L 121 117 L 119 118 L 121 120 L 122 118 L 122 115 Z M 128 117 L 128 123 L 129 123 L 128 117 Z M 118 120 Q 114 120 114 126 L 116 125 Q 115 122 118 123 L 118 120 Z M 250 121 L 252 124 L 252 123 L 250 121 Z M 237 132 Q 235 136 238 138 L 240 139 L 237 132 Z M 138 135 Q 136 141 138 144 L 139 144 L 138 135 Z M 243 135 L 243 139 L 248 146 L 248 149 L 252 152 Q 250 142 244 137 Q 245 134 243 135 Z M 122 136 L 119 140 L 122 138 L 122 136 Z M 241 139 L 240 141 L 242 142 L 241 139 Z M 119 143 L 114 151 L 115 152 L 119 145 L 119 143 Z M 130 143 L 129 146 L 130 146 L 130 143 Z M 241 145 L 241 149 L 249 159 L 255 172 L 256 172 L 255 164 L 248 151 L 241 145 Z M 238 148 L 237 150 L 240 151 L 238 148 Z M 125 159 L 125 165 L 126 165 L 125 159 Z M 241 162 L 240 165 L 243 171 L 244 171 Q 245 164 241 162 Z M 121 165 L 121 170 L 122 170 Q 123 166 121 165 Z M 247 166 L 246 169 L 249 175 L 249 180 L 251 183 L 251 189 L 252 189 L 252 179 L 247 166 Z M 115 171 L 112 178 L 113 181 L 115 175 L 115 171 Z M 120 172 L 119 181 L 119 183 Q 117 188 121 187 L 120 172 Z M 126 173 L 125 179 L 126 179 L 126 173 Z M 244 178 Q 241 183 244 185 L 243 187 L 245 188 L 244 178 Z M 248 184 L 247 190 L 248 190 L 248 184 Z M 244 193 L 243 199 L 246 205 L 246 211 L 247 211 Q 249 198 244 193 Z M 119 196 L 119 203 L 120 203 Q 121 198 119 196 Z M 241 196 Q 241 205 238 211 Q 233 214 232 222 Q 230 228 233 230 L 233 237 L 235 237 L 237 225 L 237 223 L 239 213 L 242 208 L 241 196 Z M 51 208 L 44 210 L 32 217 L 27 228 Q 32 231 34 239 L 34 243 L 30 249 Q 26 250 27 248 L 26 248 L 24 248 L 26 245 L 25 240 L 20 236 L 11 240 L 17 233 L 24 234 Q 29 236 29 244 L 31 243 L 30 236 L 22 229 L 18 229 L 10 235 L 11 260 L 15 255 L 23 250 L 31 250 L 33 250 L 41 254 L 40 250 L 42 242 L 49 235 L 54 235 L 58 237 Q 61 239 61 246 L 56 250 L 57 252 L 65 253 L 68 251 L 68 253 Q 71 252 70 255 L 64 259 L 57 259 L 57 260 Q 65 261 69 258 L 75 251 L 74 251 L 71 250 L 74 248 L 75 244 L 75 242 Q 74 236 77 235 L 78 237 L 79 243 L 80 240 Q 78 234 79 226 L 75 219 Q 68 208 51 208 Z M 52 239 L 43 246 Q 42 253 45 256 L 53 260 L 54 260 L 47 254 Q 45 246 49 247 L 50 252 L 56 256 L 58 256 L 53 252 L 53 248 L 56 248 Q 55 245 58 246 L 58 243 Q 56 239 52 239 Z M 79 250 L 77 254 L 68 262 L 57 263 L 56 264 L 47 261 L 45 261 L 46 269 L 62 266 L 64 266 Q 74 267 80 274 L 81 274 L 80 272 L 83 270 L 85 266 L 85 261 L 83 257 L 81 256 Q 76 257 78 253 L 82 253 L 79 250 Z M 84 253 L 88 260 L 87 269 L 84 273 L 87 272 L 90 268 Q 91 260 88 257 L 84 253 Z M 24 254 L 14 260 L 10 269 L 10 283 L 10 285 L 10 307 L 9 308 L 9 316 L 10 317 L 9 318 L 9 335 L 19 329 L 26 328 L 24 325 Q 23 315 27 311 L 35 305 L 31 297 L 32 284 L 36 276 L 46 270 L 45 269 L 41 260 L 36 255 L 24 254 Z M 55 270 L 44 274 Q 36 279 34 289 Q 33 296 35 300 L 36 300 L 35 297 L 35 290 L 37 285 L 42 281 L 39 287 Q 38 295 40 300 L 47 306 L 43 308 L 47 310 Q 53 308 52 312 L 46 312 L 38 307 L 33 309 Q 28 312 27 318 L 28 326 L 29 326 L 28 321 L 30 316 L 37 310 Q 38 308 39 311 L 36 313 L 32 319 L 33 324 Q 34 327 32 328 Q 29 329 30 327 L 29 327 L 31 331 Q 32 334 29 333 L 29 336 L 21 337 L 15 343 L 15 345 L 19 342 L 20 344 L 17 351 L 19 358 L 19 357 L 22 355 Q 24 356 22 358 L 27 365 Q 23 366 22 363 L 21 366 L 18 365 L 15 369 L 20 372 L 23 371 L 19 370 L 21 367 L 23 368 L 24 370 Q 30 362 42 360 Q 46 359 48 361 L 48 352 Q 42 353 39 349 L 35 345 Q 36 339 33 338 Q 32 331 35 328 Q 39 322 47 319 Q 50 321 57 320 L 62 322 L 66 330 L 56 323 L 49 324 L 48 326 Q 52 325 51 328 L 48 329 L 43 335 L 44 340 L 44 343 Q 47 342 46 347 L 43 346 Q 38 343 39 335 L 38 335 L 39 346 L 46 350 Q 49 351 48 349 L 65 334 L 74 331 Q 82 330 87 334 Q 91 337 92 343 Q 91 346 95 345 L 98 341 Q 97 336 99 335 L 96 325 L 91 321 L 87 321 L 85 321 L 82 320 L 83 317 L 83 315 L 80 316 L 84 306 L 82 292 L 77 283 Q 74 284 75 282 L 69 278 L 70 276 Q 76 276 79 280 Q 84 285 86 293 L 87 293 Q 86 285 81 281 L 79 278 L 68 270 L 55 270 Z M 88 294 L 87 303 L 88 303 L 88 294 Z M 38 302 L 37 304 L 41 306 L 38 302 Z M 170 304 L 168 309 L 176 310 L 174 306 L 174 304 L 170 304 Z M 86 309 L 83 314 L 84 315 L 86 312 L 86 309 Z M 157 312 L 157 314 L 159 315 L 176 315 L 177 316 L 186 316 L 186 313 L 177 313 L 176 312 L 161 312 L 160 313 L 157 312 Z M 159 317 L 159 318 L 163 318 L 159 317 Z M 164 318 L 164 319 Q 167 318 166 321 L 165 320 L 164 321 L 155 321 L 156 323 L 165 323 L 165 325 L 155 326 L 163 328 L 162 329 L 153 330 L 160 331 Q 166 329 164 334 L 185 334 L 190 335 L 187 320 L 186 318 L 164 318 Z M 43 328 L 41 331 L 44 329 L 43 328 Z M 26 331 L 17 333 L 9 342 L 10 349 L 11 343 L 14 338 L 21 334 L 28 333 L 26 331 Z M 41 331 L 39 334 L 41 333 L 41 331 Z M 109 332 L 108 334 L 108 335 L 110 334 Q 112 335 111 340 L 113 339 L 114 340 L 114 347 L 115 347 Q 113 341 117 342 L 117 349 L 115 349 L 113 352 Q 112 354 111 352 L 108 354 L 106 354 L 108 356 L 116 353 L 121 353 L 127 351 L 142 350 L 143 349 L 155 349 L 157 348 L 159 348 L 168 348 L 169 349 L 171 348 L 173 348 L 176 349 L 180 349 L 185 348 L 187 349 L 198 349 L 200 349 L 201 350 L 211 350 L 217 352 L 230 353 L 237 355 L 237 339 L 236 351 L 235 352 L 234 338 Q 235 335 237 337 L 237 333 Q 233 332 231 335 L 215 336 L 214 337 L 174 337 L 173 336 L 146 336 L 145 337 L 137 335 L 122 335 L 109 332 Z M 155 332 L 155 333 L 157 333 L 155 332 Z M 73 335 L 65 338 L 58 346 L 56 353 Q 57 357 54 356 L 53 354 L 54 351 L 54 348 Q 49 352 51 362 L 63 365 Q 70 369 70 379 L 78 378 L 84 375 L 87 371 Q 86 365 88 364 Q 89 357 85 356 Q 79 355 78 358 L 79 362 L 78 364 L 74 359 L 75 357 L 81 352 L 88 353 L 89 356 L 90 356 Q 91 345 87 340 L 82 336 L 79 337 L 85 341 Q 88 340 86 345 L 84 346 L 82 343 L 78 339 Q 72 338 71 341 Q 68 340 69 343 L 65 342 L 66 339 Q 71 336 79 336 L 73 335 Z M 108 345 L 107 349 L 108 349 L 108 345 Z M 93 349 L 93 352 L 97 354 L 96 358 Q 97 361 93 359 L 93 357 L 90 365 L 94 363 Q 97 364 96 361 L 99 360 L 98 353 L 93 349 Z M 189 351 L 186 358 L 187 361 L 199 361 L 195 354 Q 192 355 193 352 L 189 351 Z M 10 352 L 10 362 L 10 361 L 13 359 L 14 360 L 14 353 L 10 354 L 10 352 Z M 180 352 L 180 355 Q 182 356 180 357 L 177 356 L 169 357 L 169 358 L 181 358 L 181 360 L 179 361 L 184 361 L 184 354 L 185 353 L 180 352 Z M 170 360 L 170 361 L 172 361 L 170 360 Z M 174 360 L 174 361 L 178 361 L 174 360 Z M 12 364 L 11 366 L 15 368 L 12 364 Z M 46 364 L 45 367 L 38 367 L 27 374 L 26 376 L 30 374 Q 33 376 29 378 Q 26 377 27 380 L 25 380 L 21 392 L 22 393 L 24 392 L 23 403 L 23 405 L 24 408 L 28 406 L 27 408 Q 29 419 38 424 L 39 424 L 33 417 L 36 415 L 46 424 L 50 425 L 51 413 L 54 403 L 50 404 L 47 404 L 40 400 L 36 395 L 35 390 Q 34 385 37 385 L 35 382 Q 38 377 44 376 L 53 377 L 57 387 L 53 393 L 50 393 L 53 389 L 53 384 L 51 390 L 49 392 Q 43 394 44 391 L 47 389 Q 49 388 47 387 L 48 385 Q 47 382 44 383 L 40 388 L 39 393 L 41 396 L 47 400 Q 54 402 58 399 L 65 391 Q 66 388 63 389 L 64 383 L 66 380 L 65 374 Q 63 369 61 373 L 59 371 L 56 367 L 46 364 Z M 97 364 L 91 369 L 92 371 L 91 373 L 93 377 L 97 378 L 100 377 Q 101 373 99 372 L 97 373 Q 93 374 94 372 L 98 370 L 98 369 Q 95 370 96 368 L 103 365 L 97 364 Z M 106 366 L 108 369 L 108 368 L 106 366 Z M 99 368 Q 98 370 102 370 Q 104 372 103 378 L 103 379 L 108 378 L 110 376 L 109 369 L 107 373 L 105 369 L 99 368 Z M 10 369 L 9 395 L 14 394 L 15 393 L 17 381 L 20 376 L 10 369 Z M 89 374 L 88 376 L 83 379 L 83 380 L 92 380 L 89 374 Z M 23 378 L 21 380 L 22 382 L 23 380 L 23 378 Z M 43 379 L 41 380 L 41 381 L 49 380 L 50 381 L 50 379 L 43 379 Z M 21 394 L 19 396 L 20 403 L 21 396 L 21 394 Z M 12 396 L 9 403 L 10 418 L 14 424 L 23 428 Q 25 429 24 427 L 27 425 Q 19 416 16 403 L 15 409 L 15 411 L 20 417 L 19 419 L 16 418 L 11 412 L 10 407 L 12 400 L 15 399 Q 16 394 12 396 Z M 63 399 L 60 401 L 55 413 Q 54 423 56 430 Q 58 437 63 441 L 63 443 L 77 450 L 85 449 Q 87 448 86 444 L 83 441 Q 81 444 78 443 L 81 439 L 87 440 L 89 444 Q 90 450 86 452 L 88 452 L 91 448 L 90 441 L 86 438 Q 74 439 69 435 Q 62 431 61 422 L 59 421 L 60 423 L 59 425 L 56 424 L 56 416 L 58 414 L 60 415 L 61 404 L 63 401 L 63 399 Z M 25 411 L 25 416 L 26 416 L 25 411 Z M 51 425 L 50 429 L 49 430 Q 44 429 43 431 L 30 426 L 26 433 L 27 441 L 27 435 Q 28 431 32 432 L 30 438 L 33 445 L 35 448 L 41 452 L 48 454 L 54 453 L 57 449 L 52 451 Q 43 452 41 448 Q 37 447 38 443 L 41 443 L 49 449 L 56 446 Q 58 445 57 449 L 59 449 L 59 452 L 56 455 L 49 457 L 41 456 L 31 449 L 30 451 L 36 456 L 43 459 Q 49 457 51 460 L 60 457 Q 65 454 65 448 L 58 443 Q 59 440 56 441 L 51 430 L 51 425 Z M 167 440 L 167 442 L 172 441 L 167 440 Z M 172 441 L 171 444 L 174 444 L 175 445 Q 177 439 172 441 Z M 28 442 L 27 445 L 28 445 L 28 442 Z M 167 444 L 167 445 L 171 445 L 167 444 Z M 166 447 Q 161 450 160 456 L 161 459 L 163 455 L 164 458 L 166 457 L 173 459 Q 172 461 169 460 L 170 462 L 173 461 L 175 461 Q 174 458 177 459 Q 178 453 175 449 L 166 447 Z M 84 452 L 84 453 L 86 453 L 84 452 Z M 66 453 L 66 459 L 72 461 L 70 456 Q 67 457 68 453 L 66 453 Z M 162 459 L 161 461 L 164 462 L 162 459 Z M 93 500 L 93 503 L 93 506 L 96 504 L 98 505 L 98 502 L 100 502 Q 98 498 93 500 Z M 281 502 L 279 505 L 281 504 L 281 502 Z M 278 505 L 273 511 L 273 513 L 272 515 L 274 514 Q 273 510 277 511 L 277 509 Q 279 510 278 508 Q 280 506 278 505 Z M 281 505 L 280 509 L 281 509 L 281 505 Z M 96 509 L 95 511 L 97 512 L 96 509 Z M 103 510 L 103 512 L 105 511 L 103 510 Z M 279 510 L 279 512 Q 276 513 281 515 L 282 511 L 279 510 Z M 70 512 L 70 514 L 59 522 L 48 524 L 48 526 L 46 527 L 43 525 L 42 527 L 41 525 L 36 525 L 20 531 L 18 530 L 16 535 L 15 534 L 14 536 L 12 537 Q 9 538 10 536 L 11 534 L 9 535 L 9 545 L 14 546 L 30 540 L 36 540 L 43 538 L 45 536 L 58 531 L 65 525 L 69 524 Q 71 525 70 522 L 78 519 L 79 516 L 80 514 L 77 515 L 70 512 Z M 111 512 L 110 515 L 112 515 L 111 512 Z M 322 512 L 319 515 Q 318 517 321 516 L 322 514 L 322 512 Z M 119 513 L 119 514 L 121 514 L 119 513 Z M 289 514 Q 287 517 290 516 L 289 514 Z M 123 515 L 123 517 Q 125 521 127 518 L 126 520 L 128 522 L 128 519 L 130 519 Q 128 515 123 515 Z M 276 515 L 276 518 L 277 518 Q 278 514 276 515 Z M 328 515 L 325 516 L 326 518 L 329 517 L 328 515 Z M 25 517 L 21 521 L 9 526 L 12 527 L 17 526 L 23 521 L 25 521 L 24 520 L 26 520 Q 27 516 25 517 Z M 31 517 L 30 518 Q 27 517 28 520 L 31 519 L 34 520 L 36 520 L 31 517 Z M 296 517 Q 294 520 293 518 L 292 520 L 296 519 L 296 517 Z M 131 519 L 133 522 L 133 521 L 131 519 Z M 240 519 L 235 522 L 232 521 L 224 523 L 204 523 L 199 522 L 197 522 Q 191 523 190 520 L 187 520 L 181 523 L 177 523 L 175 523 L 170 525 L 166 524 L 159 526 L 157 526 L 153 525 L 151 525 L 148 526 L 151 527 L 161 528 L 166 531 L 170 530 L 177 532 L 179 531 Q 181 532 180 529 L 189 527 L 192 530 L 193 529 L 197 531 L 200 532 L 202 531 L 206 532 L 219 529 Q 226 531 225 527 L 232 526 L 234 527 L 236 527 L 244 522 L 247 523 L 249 522 Q 252 523 251 521 L 250 521 L 247 520 L 245 520 L 243 521 L 240 519 Z M 37 520 L 38 522 L 39 522 L 37 520 Z M 292 520 L 292 523 Q 295 522 292 520 Z M 308 520 L 305 522 L 308 522 L 308 520 Z M 314 522 L 314 526 L 315 526 Q 316 521 314 522 Z M 249 523 Q 247 526 250 525 L 249 523 Z M 135 524 Q 133 527 136 526 L 135 524 Z M 244 526 L 238 530 L 235 534 L 237 533 Q 241 532 243 534 L 245 533 L 248 534 L 250 534 L 261 533 L 264 531 L 256 529 L 254 529 Q 246 530 244 526 Z M 300 527 L 291 531 L 301 534 L 303 533 L 302 528 L 300 527 Z M 101 528 Q 99 531 102 530 L 101 528 Z M 232 528 L 231 530 L 233 529 L 232 528 Z M 98 530 L 96 532 L 98 532 L 98 530 Z M 102 530 L 102 532 L 104 531 L 102 530 Z M 99 533 L 98 536 L 99 536 L 99 533 Z M 110 533 Q 110 537 112 534 L 110 533 Z M 190 533 L 191 535 Q 192 532 190 533 Z M 226 533 L 226 534 L 229 534 L 226 533 Z M 166 534 L 166 536 L 168 535 L 166 534 Z M 62 535 L 58 540 L 60 542 L 62 537 L 62 535 Z M 118 535 Q 116 538 119 537 L 118 535 Z M 178 535 L 178 537 Q 180 540 181 537 L 178 535 Z M 329 535 Q 329 539 331 536 L 329 535 Z M 52 536 L 45 540 L 46 542 L 48 541 L 47 545 L 50 544 L 49 540 L 52 538 L 52 536 Z M 66 536 L 66 540 L 67 540 L 66 536 Z M 78 536 L 77 538 L 79 539 L 78 536 Z M 94 536 L 95 539 L 93 539 Q 92 542 95 541 L 96 542 Q 98 535 94 536 Z M 128 536 L 126 539 L 128 539 L 128 536 Z M 209 536 L 209 538 L 211 537 L 209 536 Z M 276 536 L 275 539 L 276 539 L 276 536 Z M 287 536 L 287 539 L 288 539 Q 289 535 287 536 Z M 107 537 L 105 540 L 107 539 L 107 537 Z M 182 537 L 182 539 L 184 538 L 182 537 Z M 216 537 L 214 539 L 216 539 L 216 537 Z M 293 537 L 291 539 L 293 539 L 293 537 Z M 64 539 L 61 541 L 63 543 L 64 541 L 64 539 Z M 118 539 L 116 541 L 118 541 L 118 539 Z M 121 539 Q 119 542 122 541 L 121 539 Z M 197 539 L 195 541 L 197 541 L 197 539 Z M 308 539 L 309 540 L 310 541 Q 311 538 308 539 Z M 324 539 L 324 541 L 326 540 L 324 539 Z M 50 540 Q 49 543 52 542 Q 53 539 50 540 Z M 55 540 L 53 542 L 55 542 L 55 540 Z M 328 540 L 328 543 L 328 545 Q 327 547 331 546 L 331 540 L 328 540 Z M 129 541 L 129 545 L 132 544 L 131 542 L 129 541 Z M 136 541 L 136 543 L 134 546 L 137 546 L 138 543 L 136 541 Z M 144 541 L 141 545 L 144 543 L 144 541 Z M 147 541 L 146 544 L 147 544 L 147 541 Z M 150 541 L 148 544 L 150 544 L 150 541 Z M 184 541 L 184 542 L 186 542 L 184 541 Z M 277 541 L 275 543 L 279 544 L 279 543 L 277 541 Z M 32 542 L 27 545 L 31 546 L 37 545 L 32 542 Z M 214 542 L 214 544 L 217 544 L 214 542 Z M 218 542 L 218 545 L 219 545 Q 220 541 218 542 Z M 325 542 Q 323 545 326 546 Q 329 544 325 542 Z M 167 543 L 167 545 L 167 546 Q 170 547 169 545 L 170 545 Q 169 547 174 546 L 174 545 Q 170 546 171 543 L 167 543 Z M 266 543 L 267 545 Q 268 542 266 543 Z M 120 544 L 119 546 L 121 545 L 120 544 Z M 145 544 L 143 546 L 146 546 Q 147 543 145 544 Z M 317 545 L 317 546 L 319 546 L 317 545 Z M 18 549 L 17 550 L 9 550 L 8 556 L 8 567 L 9 568 L 9 579 L 8 580 L 9 582 Q 10 579 13 580 L 20 562 L 21 560 Q 18 561 19 559 Q 20 556 26 557 L 28 557 L 34 558 L 39 578 Q 38 580 41 579 L 40 582 L 28 582 L 27 580 L 31 579 L 29 573 L 29 570 L 21 570 L 16 579 L 16 582 L 9 582 Q 7 587 11 589 L 21 589 L 22 588 L 24 589 L 36 589 L 37 588 L 39 589 Q 45 591 47 588 L 48 589 L 56 589 L 58 589 L 120 589 L 121 588 Q 120 585 123 586 L 125 582 L 118 568 L 119 562 L 123 560 L 126 563 Q 127 567 122 565 L 124 570 L 127 571 L 126 570 L 130 568 L 132 573 L 131 576 Q 128 577 129 575 L 127 574 L 129 578 Q 131 584 128 586 Q 129 588 127 587 L 126 589 L 330 589 L 330 587 L 331 584 Q 332 580 327 582 L 325 579 Q 326 575 330 576 L 329 572 L 330 553 L 331 550 L 326 549 L 324 550 L 321 549 L 319 549 L 317 550 L 315 550 L 310 549 L 308 550 L 305 549 L 302 550 L 300 549 L 218 549 L 216 549 L 205 549 L 204 550 L 199 549 L 197 549 L 195 550 L 193 549 L 191 549 L 189 550 L 187 549 L 185 549 L 177 549 L 176 550 Q 174 548 170 549 L 166 549 Q 164 552 159 550 L 157 550 L 155 549 L 153 550 L 151 549 L 149 550 L 147 549 Q 141 548 140 550 L 137 549 L 134 550 L 118 550 L 117 549 Q 112 548 111 550 L 109 549 L 104 550 L 102 549 L 89 549 L 88 550 L 84 549 L 79 550 L 77 549 L 75 550 L 73 549 L 58 550 L 55 549 L 53 550 L 35 550 L 33 550 L 19 550 L 18 549 Z M 24 560 L 22 566 Q 23 568 28 567 L 27 563 Q 28 558 24 560 Z "></path><path d="M 177 52 L 180 53.5 Q 180.8 58.3 177.5 59 Q 173 60 172 57.5 Q 171.3 53.8 173.5 53 L 176.5 54 L 177 52 Z "></path><path d="M 150 54 L 154.5 55 L 157 54 L 158 58.5 L 157 61 Q 151.3 62 149 58.5 L 150 54 Z "></path><path d="M 197.5 54 L 204 57.5 L 201.5 61 Q 196.3 62.3 195 59.5 Q 194.3 54.8 197.5 54 Z "></path><path d="M 233.5 103 L 232.5 105 L 233.5 103 Z "></path><path d="M 72 222 L 75 223.5 Q 78.2 226 77 232 Q 74 233.3 75 229.5 L 72 222 Z "></path><path d="M 16.5 239 Q 22 238 23 241.5 Q 24.1 244.8 21.5 244 Q 20.7 241.3 16.5 242 L 14 243 L 12.5 247 L 11 243.5 L 16.5 239 Z "></path><path d="M 125.5 243 L 130 246.5 Q 129.2 249.1 132.5 248 L 140 251.5 Q 143.7 253.7 143 260.5 L 142 265 L 137 266 L 134.5 262 L 131.5 263 L 126 259.5 L 123 250.5 Q 125.3 249.3 124 244.5 L 125.5 243 Z M 128 249 L 126 252 L 129 259 L 138 260 L 140 262 L 140 258 L 137 252 L 128 249 Z "></path><path d="M 209.5 247 L 212 248.5 L 213.5 251 L 224.5 255 L 228 258.5 L 229 268 Q 226.3 266.9 227 269.5 L 224 271 L 222.5 268 L 214.5 267 L 209 262.5 L 207 256.5 Q 209.8 254.8 208 248.5 L 209.5 247 Z M 213 252 L 210 257 L 212 262 L 218 265 L 220 264 L 224 265 L 226 267 Q 227 259 223 257 L 222 257 L 213 252 Z "></path><path d="M 26.5 256 L 28.5 256 Q 34.3 255.2 36 258.5 Q 36.8 260.8 34.5 260 Q 32.8 257.3 26.5 259 L 21 262 Q 19.5 258.2 22.5 259 L 26.5 256 Z "></path><path d="M 75.5 257 Q 80 256 81 258.5 L 82 264.5 L 80 265.5 L 77.5 260 L 77 262 L 73 260.5 L 75.5 257 Z "></path><path d="M 24.5 262 L 32 262 L 32 265 Q 21.3 263 18 269.5 L 14 280 Q 11.3 281.1 12 278.5 L 13 274.5 L 19.5 265 L 24.5 262 Z "></path><path d="M 39.5 262 Q 43.5 263.7 42 270 Q 39 271.3 40 267.5 L 38 263.5 L 39.5 262 Z "></path><path d="M 20 270 Q 25.2 268.3 24 272 Q 18.8 269.9 20 274.5 L 17 276 L 20 270 Z "></path><path d="M 56 273 L 58.5 274 L 63.5 273 Q 66.5 274.5 63.5 276 L 60.5 275 L 56 276 L 56 273 Z "></path><path d="M 126.5 273 L 132.5 277 L 136.5 277 L 142 281.5 L 144 289.5 Q 141 291.8 142 297 L 137 297 L 137 294.5 L 125 285.5 L 124 276.5 L 126.5 273 Z M 130 278 L 128 281 L 130 287 L 137 289 Q 139 294 141 291 L 139 284 L 135 280 L 133 280 L 130 278 Z "></path><path d="M 47.5 275 Q 49.8 274.3 49 276.5 L 45.5 279 L 45 276 L 47.5 275 Z "></path><path d="M 101 279 Q 103.7 277.9 103 280.5 L 106.5 284 L 116 288 Q 119 291.2 119 298.5 L 118 303 L 111 300.5 Q 111.8 298.3 109.5 299 L 107.5 297 L 101 296 L 98 287.5 L 101 279 Z M 103 284 L 101 288 L 103 292 L 113 297 Q 115 296 114 299 L 115 299 L 114 293 L 103 284 Z "></path><path d="M 235 280 L 239 280 L 239 281.5 L 242.5 286 Q 250.6 286.4 253 292.5 L 255 300.5 L 251 303.5 Q 251.8 306.1 248.5 305 L 246.5 303 L 240.5 302 L 238 299.5 L 235 290.5 L 236 288.5 L 235 286.5 L 235 284.5 L 235 280 Z M 239 287 L 240 297 L 250 303 L 251 299 L 249 293 Q 245 288 239 287 Z "></path><path d="M 203.5 281 L 218 291.5 L 219 300.5 L 216.5 304 L 214.5 305 L 212 301 L 205.5 300 L 201 295.5 Q 198.3 293.2 199 287.5 L 203.5 281 Z M 204 285 L 202 287 L 203 293 L 207 296 Q 213 296 216 300 L 216 294 L 204 285 Z "></path><path d="M 49.5 282 L 57.5 282 L 66 288.5 L 67 299.5 L 63 308 L 59.5 310 L 59 307.5 Q 64.7 304.2 65 295.5 L 63 289.5 L 60.5 287 Q 57.5 284 50.5 285 L 48 286 L 46 289.5 L 46 294.5 L 49.5 299 Q 54.8 300.3 56 297.5 Q 54.9 293.3 59 295 L 58 300 Q 55.7 302.6 49.5 302 L 44 297.5 L 43 289.5 L 46.5 284 L 49.5 282 Z "></path><path d="M 51.5 288 L 55 288.5 Q 52 289.8 53 294 L 55 294.5 Q 54.3 296.8 50.5 296 Q 48 295 49 290.5 L 51.5 288 Z "></path><path d="M 76 292 Q 80.1 290.3 79 294.5 L 82 303.5 L 81 306.5 L 78 318.5 L 75.5 321 Q 72.8 319.8 75 318.5 L 78 311.5 L 78 301.5 Q 75 298.3 76 292 Z "></path><path d="M 56 309 Q 58.7 307.9 58 310.5 L 56 311.5 L 56 309 Z "></path><path d="M 40.5 312 L 41 315 L 37 317.5 Q 37.5 321.5 34.5 322 L 33 319.5 L 35 315 L 40.5 312 Z "></path><path d="M 42.5 315 Q 46.3 314 45 317 L 40 319 L 42.5 315 Z "></path><path d="M 86 323 L 90.5 323 L 96 328.5 L 97 336 L 93 334.5 L 92.5 330 L 90.5 333 Q 88.3 333.8 89 331.5 L 87 328 Q 90.4 327.3 91.5 330 L 92 328.5 L 86 325 L 86 323 Z "></path><path d="M 47.5 334 Q 50 335 49 339.5 Q 47 343 45 338.5 Q 43.5 334.1 46.5 335 L 47.5 334 Z "></path><path d="M 25.5 337 Q 28.5 338.5 25.5 340 L 23 339.5 L 25.5 337 Z "></path><path d="M 231 341 L 233 341.5 L 233 350.5 L 231 351.5 L 231 341 Z "></path><path d="M 225.5 343 L 226 349 Q 222.3 350.4 224 344.5 L 225.5 343 Z "></path><path d="M 228.5 343 Q 231.1 342.2 230 345.5 L 229 351 Q 225.5 352.1 227 344.5 L 228.5 343 Z "></path><path d="M 119.5 345 Q 122.1 344.2 121 347.5 L 118 349 L 119.5 345 Z "></path><path d="M 123.5 345 Q 126.5 344.2 125 348 Q 121.2 349.5 122 346.5 L 123.5 345 Z "></path><path d="M 218.5 345 Q 220.8 344.3 220 346.5 Q 218.5 349.5 217 346.5 L 218.5 345 Z "></path><path d="M 221 345 Q 224 343.8 223 347.5 L 221 348.5 L 221 345 Z "></path><path d="M 81 358 Q 84.8 357 86 359.5 L 87 361.5 L 84.5 363 L 81 358 Z "></path><path d="M 84.5 364 Q 87.3 363.4 86 369.5 L 83.5 373 L 79.5 374 L 81 371.5 L 84.5 364 Z "></path><path d="M 176 369 Q 180 367.6 178 374.5 L 176 375.5 L 176 369 Z "></path><path d="M 173 371 Q 176.7 369.6 175 375.5 Q 173.5 378.5 172 375.5 L 173 371 Z "></path><path d="M 169 372 Q 172.3 370.7 171 375.5 L 169 376.5 L 169 372 Z "></path><path d="M 166.5 374 L 168 376.5 L 166 377.5 L 165 375.5 L 166.5 374 Z "></path><path d="M 162 377 Q 165 376 164 379 Q 161 380 162 377 Z "></path><path d="M 184.5 385 Q 187.3 386.2 185 387.5 Q 185.9 390.5 181.5 389 L 180 386 L 182.5 387 L 184.5 385 Z "></path><path d="M 176.5 387 Q 178.8 386.3 178 388.5 L 176.5 387 Z "></path><path d="M 181.5 395 L 182 398.5 L 179.5 402 Q 174.3 403.8 176 398.5 L 177 396 Q 179.7 394.9 179 397.5 L 180 397.5 L 181.5 395 Z "></path><path d="M 184.5 395 Q 187.1 394.2 186 397.5 L 187 397.5 Q 186 393.8 189 395 L 188 402 L 185 401.5 L 186 398.5 L 185 398.5 L 184 402 Q 181.3 403.1 182 400.5 L 184.5 395 Z "></path><path d="M 174.5 396 L 175 399.5 L 173 400.5 L 174.5 396 Z "></path><path d="M 170 398 Q 172.7 396.9 172 399.5 L 170 400.5 L 170 398 Z "></path><path d="M 173 415 L 175 415.5 L 174 417.5 L 176 416.5 Q 175.3 413.9 178 415 L 174.5 420 L 173.5 418 L 171.5 419 L 173 416.5 L 173 415 Z "></path><path d="M 180.5 415 L 181.5 419 L 183.5 415 L 184 417.5 L 181 423 L 188 422 L 190.5 416 L 192 416.5 L 190 422 L 194 419.5 Q 193 415.8 196 417 L 196.5 422 L 198.5 418 L 200 418.5 L 199 421.5 L 201 420.5 Q 200.3 418.3 202.5 419 L 202 420.5 Q 201.2 423.5 205 422 L 205 424 L 191.5 423 L 181.5 425 L 176 423.5 L 180 421.5 L 179.5 419 L 178 419.5 L 180.5 415 Z "></path><path d="M 167.5 416 Q 169.8 415.3 169 417.5 L 166.5 419 L 164.5 419 Q 161.9 419.7 163 417 L 167.5 416 Z "></path><path d="M 57 426 L 61 426 L 61 427.5 L 67 439 L 72.5 442 L 76 442 L 74.5 445 Q 66 443.5 62 437.5 L 57 426 Z "></path><path d="M 182 428 Q 185.7 426.6 184 432.5 L 176 436 Q 173.9 430.8 178.5 432 L 181 430.5 L 181.5 432 L 182 428 Z "></path><path d="M 186.5 429 L 187 431 L 185 430.5 L 186.5 429 Z "></path><path d="M 161.5 430 L 163.5 431 L 165 430.5 L 166 436 Q 162.7 437.3 164 432.5 L 163 432.5 Q 164 436.3 161 435 L 161.5 430 Z "></path><path d="M 94 431 L 97.5 432 L 99.5 431 Q 102.8 433.7 109.5 433 Q 110.3 430.3 114.5 431 L 113.5 433 L 105.5 435 L 94 433 L 94 431 Z "></path><path d="M 157 431 Q 160 430 159 433 Q 156 434 157 431 Z "></path><path d="M 169.5 432 L 171.5 432 Q 174.5 431.2 173 435 L 168 436 L 169.5 432 Z "></path><path d="M 101.5 443 Q 104.5 442.1 103 446.5 Q 101.7 450.7 97 450 L 101.5 443 Z "></path><path d="M 31.5 531 L 34 531.5 Q 34.9 534.9 29.5 533 L 23 536 Q 21.9 533.3 24.5 534 L 31.5 531 Z "></path><path d="M 18.5 535 L 20.5 536 L 22 535.5 Q 22.8 538.1 19.5 537 L 10.5 541 L 10 539 L 18.5 535 Z "></path><path d="M 340.5 544 L 341 546 L 339 545.5 L 340.5 544 Z "></path><path d="M 340.5 547 L 341 549.5 L 340 552.5 Q 343.5 554 341 555.5 L 342 559 Q 338.7 560.3 340 555.5 L 339 552.5 Q 338 548 340.5 547 Z "></path><path d="M 224.5 554 L 233.5 557 L 237 560.5 Q 239.5 564 238 571.5 L 231.5 579 Q 228.5 582 221.5 581 L 212 573.5 L 211 565.5 Q 212.3 559.8 216.5 557 L 224.5 554 Z M 223 559 L 221 560 L 218 564 L 219 566 L 218 568 Q 218 575 224 577 Q 230 578 231 574 Q 233 565 230 562 Q 229 558 223 559 Z "></path><path d="M 153.5 555 L 161.5 557 L 166 556 L 166 558.5 L 162.5 563 Q 159.2 564.1 160 561.5 Q 158.8 558.8 153.5 560 L 152 562.5 Q 153 566 158.5 565 L 160.5 565 L 167 569.5 Q 168.8 578.3 163.5 580 L 159.5 582 L 157.5 581 L 153.5 581 L 139.5 581 L 139 579.5 L 146.5 571 L 149 572.5 Q 148.5 576.5 151.5 577 L 158.5 578 Q 162.5 576.5 161 569.5 L 159.5 568 Q 154.8 569.3 153.5 567 L 151.5 567 L 148 565.5 L 147 561.5 L 149.5 557 L 153.5 555 Z "></path><path d="M 170.5 555 L 179 556 L 179 559.5 L 184 568 Q 186.7 569.1 186 566.5 L 188 562 L 194.5 561 L 200.5 568 Q 203.1 568.8 202 565.5 L 205 559.5 L 201 558 Q 199.2 552.8 206.5 555 L 208.5 555 Q 212.7 553.9 211 558 Q 208.3 556.9 209 559.5 L 202 575.5 L 202 580.5 L 205 581.5 L 202.5 583 Q 200.8 580.2 194.5 582 L 193 580.5 L 198 577.5 L 198 575.5 L 191.5 566 L 189 567.5 L 187 574.5 Q 190.5 576.2 189 582 L 181.5 581 L 179.5 582 Q 176.5 580.5 179.5 579 Q 183.3 580.3 182 576.5 L 171.5 558 L 168.5 559 Q 165.5 557.5 168.5 556 L 170.5 555 Z "></path><path d="M 241 555 L 257.5 555 L 258.5 556 Q 259.8 553.7 261 556.5 L 262 563.5 L 260 569 Q 257.3 567.9 258 570.5 L 261.5 575 L 267 578.5 L 264.5 582 Q 258.3 582.7 257 578.5 L 251.5 570 L 248 570 L 248 579 Q 250.7 577.9 250 580.5 L 248.5 582 L 241 582 Q 240 577.8 243 578.5 L 243 570.5 L 242 569.5 L 242 557.5 L 241 555 Z M 250 557 L 248 559 L 249 561 L 248 565 Q 249 567 254 566 L 256 563 Q 258 557 255 558 L 253 558 L 250 557 Z "></path><path d="M 268.5 555 Q 274.7 553.3 276.5 556 Q 278.2 553.3 284.5 555 Q 290.6 556.4 293 561.5 Q 295.5 565 294 572.5 L 290.5 577 Q 286.7 581.2 279.5 582 L 276.5 581 L 274.5 582 L 272.5 582 Q 268.8 582.8 268 580.5 L 271 576.5 L 271 574.5 L 270 569.5 Q 272.8 567.8 271 561.5 L 268.5 555 Z M 277 558 L 277 576 L 278 578 L 282 578 L 286 575 L 287 572 L 286 563 Q 284 558 277 558 Z "></path><path d="M 309.5 555 L 315.5 556 L 317.5 556 Q 320.8 554.9 320 557.5 L 318 562 L 311.5 558 L 308.5 558 L 307 562 L 310.5 564 L 317.5 565 L 321 567.5 Q 323.8 570.2 323 576.5 L 320.5 580 Q 317.6 582.6 311.5 582 L 310.5 581 L 302 581 Q 300.8 574.6 305.5 573 L 309 574.5 L 310.5 577 L 314.5 578 Q 317.8 576.3 317 570.5 L 314.5 568 Q 305.1 569.4 302 564.5 Q 301.4 559.1 303 557 L 309.5 555 Z "></path><path d="M 53.5 556 Q 61.8 554.8 65 558.5 L 65 561.5 L 61.5 566 L 55.5 561 L 51 563 L 50 571.5 L 53.5 576 Q 56.5 579 63.5 578 L 65 579.5 L 63.5 581 L 52.5 582 Q 45.9 581.1 43 576.5 L 41 568.5 Q 42.1 561.1 47.5 558 L 53.5 556 Z "></path><path d="M 71 557 L 91.5 557 L 92 560.5 L 89.5 566 L 86.5 559 L 81 559 L 81 566.5 L 83 565.5 L 83 564 L 87 564 L 86 571.5 L 84.5 573 L 83 569 L 81 569.5 L 81 578 L 90.5 578 L 92 576.5 L 93.5 574 Q 96.8 572.9 96 575.5 L 92.5 581 L 88.5 582 L 86.5 582 L 78.5 582 L 77.5 581 L 74.5 582 L 72 581 L 74 577.5 L 74 574.5 L 73 571.5 L 74 565.5 L 71 557 Z "></path><path d="M 340.5 562 L 341.5 564 L 340 563.5 L 339.5 565 L 339 563.5 L 340.5 562 Z "></path><path d="M 340.5 567 L 342 570 L 340 569.5 L 340.5 567 Z "></path><path d="M 113.5 571 L 119 572 L 120 576.5 L 117.5 580 L 113.5 581 L 109 577.5 L 110 572 L 113.5 571 Z M 113 574 L 113 576 L 116 577 Q 118 573 113 574 Z "></path><path d="M 340.5 579 Q 344 581 339.5 583 L 339.5 581 L 338 580.5 L 340.5 579 Z "></path><path d="M 338.5 589 L 339 592.5 L 338 592.5 L 338.5 589 Z "></path><path d="M 341 589 Q 344.3 587.7 343 592.5 L 340.5 594 L 340.5 593 L 342 592.5 L 341 589 Z "></path></svg>