<svg width="350" height="600" version="1.1" xmlns="http://www.w3.org/2000/svg" desc="Created with imagetracer.js version 1.2.5"><path d="M 293.5 4 L 323.5 4 L 324.5 5 L 332.5 5 L 334 6.5 L 334 42.5 L 335 47.5 L 334 49.5 L 335 50.5 L 335 64.5 L 335 66.5 L 334 69.5 L 334 73.5 L 335 75.5 L 335 155.5 L 336 156.5 L 336 170.5 L 336 172.5 L 335 197.5 L 336 198.5 L 336 253.5 L 337 254.5 L 337 266.5 L 337 268.5 L 336 271.5 L 337 274.5 L 336 277.5 L 337 278.5 L 337 294.5 L 337 296.5 L 336 345.5 L 337 346.5 L 337 359.5 L 336 362.5 L 337 366.5 L 337 418.5 L 336 422.5 L 336 424.5 L 336 460.5 L 337 463.5 L 336 464.5 L 336 483.5 L 337 484.5 L 337 544.5 L 338 545.5 L 337 546.5 L 337 557.5 L 337 559.5 L 337 571.5 L 338 572.5 L 337 573.5 L 337 587.5 L 338 592.5 L 337 595 L 312.5 594 L 310.5 594 Q 305.7 592.8 304.5 595 L 300.5 594 L 299.5 595 L 265.5 595 L 260.5 594 L 257.5 595 L 255.5 595 L 201.5 595 L 198.5 594 L 197.5 595 L 144.5 595 L 142.5 596 Q 140.8 593.2 134.5 595 L 133.5 596 L 110.5 597 L 109.5 596 L 77.5 596 L 76.5 597 L 63.5 597 L 59.5 596 L 58.5 597 L 28.5 597 L 26.5 597 L 5.5 597 L 4 595.5 L 4 551.5 L 5 549.5 L 4 548.5 L 4 506.5 L 3 504.5 L 4 503.5 L 4 489.5 L 3 486.5 Q 5.3 485.2 4 480.5 L 3 477.5 Q 5.8 475.8 4 469.5 Q 1.8 468.2 3 463.5 L 4 462.5 L 4 447.5 L 3 444.5 L 4 442.5 L 3 439.5 Q 5.3 438.3 4 433.5 L 3 432.5 L 3 377.5 L 4 376.5 L 4 368.5 L 3 365.5 L 3 363.5 L 3 348.5 L 4 347.5 L 4 286.5 L 5 284.5 L 4 282.5 L 5 281.5 L 5 259.5 Q 2.5 258 4 252.5 L 5 251.5 L 5 213.5 Q 2.3 211.7 4 205.5 L 4 203.5 Q 2.5 196 5 192.5 L 4 189.5 L 4 187.5 L 5 176.5 L 4 175.5 L 4 158.5 L 5 156.5 L 4 154.5 L 5 153.5 L 5 8.5 L 6 6 L 8.5 7 L 69.5 7 L 70.5 6 L 78.5 6 L 79.5 7 L 101.5 7 L 103.5 6 L 105.5 6 L 121.5 8 L 126.5 7 L 127.5 8 L 135.5 8 L 136.5 7 L 176.5 7 L 177.5 6 L 180.5 7 L 187.5 6 L 189.5 6 L 196.5 7 L 197.5 6 L 207.5 6 L 208.5 5 L 218.5 5 L 220.5 6 L 221.5 5 L 292.5 5 L 293.5 4 Z M 227 7 L 226 8 L 199 8 L 196 9 L 194 9 L 191 8 L 190 9 L 152 9 L 149 10 L 147 9 L 139 9 L 138 10 L 115 10 L 114 9 L 29 9 L 27 9 L 25 10 L 23 9 L 20 10 L 18 10 L 16 9 L 14 10 L 11 9 L 8 11 L 8 117 L 10 117 L 9 122 L 8 124 L 10 124 L 32 106 L 38 103 L 39 100 L 54 93 Q 57 92 58 95 L 54 101 L 55 104 L 52 105 L 48 111 L 49 112 L 66 100 L 70 102 L 74 101 L 85 93 L 86 90 L 86 88 Q 85 85 88 86 L 88 84 L 80 87 L 80 84 L 85 79 L 84 74 L 95 66 Q 94 62 97 61 Q 99 62 98 59 L 108 56 L 110 58 L 109 61 Q 106 60 107 63 L 115 60 L 118 61 Q 121 60 120 63 L 124 65 L 123 68 Q 124 70 121 69 L 121 72 L 124 74 L 121 81 L 124 81 L 133 74 L 144 69 L 158 60 L 159 57 L 157 58 Q 153 59 152 57 Q 156 51 164 49 L 165 47 L 171 43 L 179 44 L 181 46 L 194 37 L 200 35 L 212 26 L 226 19 L 232 14 Q 235 11 242 12 L 249 9 L 246 20 Q 244 24 239 24 L 237 29 L 230 35 L 231 39 L 231 40 L 235 40 L 228 49 L 229 51 Q 230 53 228 52 L 219 61 Q 222 62 220 64 L 222 66 L 252 51 L 269 37 L 278 32 L 280 34 L 279 36 L 287 33 L 289 34 L 287 38 L 287 41 L 297 38 L 310 29 Q 315 29 318 32 L 321 32 L 331 26 L 331 11 L 330 7 L 271 7 L 270 8 L 269 7 L 250 7 L 248 7 L 244 8 L 242 7 L 227 7 Z M 243 13 L 241 15 L 237 14 L 207 31 L 180 49 Q 173 51 175 46 L 168 46 L 167 48 L 158 54 L 163 54 L 164 57 L 160 61 L 125 83 L 121 85 L 116 85 L 120 75 L 117 74 L 120 68 L 120 66 L 117 67 L 116 63 L 103 66 L 102 64 L 104 61 L 103 60 L 98 67 L 88 75 L 89 77 Q 92 78 88 80 Q 87 82 90 81 L 92 85 L 90 88 L 91 92 L 86 94 L 73 104 L 67 106 Q 64 107 65 104 Q 62 103 63 106 L 58 110 L 51 113 L 47 117 L 44 117 L 44 113 L 49 106 Q 48 103 51 104 L 50 102 L 53 96 Q 47 96 45 101 L 42 101 Q 37 107 29 110 L 21 118 L 8 126 L 7 157 L 7 159 L 7 175 L 8 176 L 8 194 L 7 195 L 8 197 L 7 202 L 8 204 Q 9 208 7 210 L 8 212 L 8 233 L 7 238 L 7 240 L 8 249 L 10 246 L 17 239 L 16 238 Q 15 229 21 227 Q 23 228 22 226 L 35 214 L 34 211 L 38 202 L 38 198 Q 36 202 31 201 L 39 187 Q 48 180 53 170 L 71 152 L 77 151 L 86 145 L 94 141 L 97 141 L 105 136 L 106 139 L 110 140 L 108 146 L 90 163 L 91 166 L 99 160 L 105 158 L 106 162 Q 117 160 123 152 L 130 150 L 131 150 L 129 154 L 130 156 L 140 150 L 161 141 L 164 141 L 168 138 L 171 137 L 173 139 L 172 141 L 158 154 L 160 154 Q 161 158 157 160 Q 159 163 161 159 L 163 160 L 166 159 L 165 164 L 161 166 L 145 179 L 146 182 L 137 190 L 138 191 L 157 176 L 158 173 L 170 165 L 183 153 L 188 150 L 192 150 L 191 154 Q 192 156 190 155 L 186 160 L 187 162 L 206 150 L 208 151 L 234 133 L 235 129 L 233 130 L 231 127 L 219 133 L 217 131 L 221 125 L 228 120 Q 230 121 229 118 L 273 88 L 275 89 L 276 87 Q 272 88 273 86 L 277 82 L 279 82 L 300 69 L 301 66 L 305 62 L 310 61 L 327 53 L 328 53 L 325 56 L 311 62 L 309 65 L 279 84 L 281 87 L 276 91 L 273 90 L 256 101 L 250 107 L 230 121 L 225 127 L 234 123 L 237 123 L 238 124 L 241 121 L 244 124 L 244 126 L 237 134 L 229 138 L 214 150 L 208 153 L 206 153 L 203 153 Q 193 162 180 167 L 182 162 L 181 161 L 189 152 L 184 155 Q 181 154 182 157 L 172 166 L 167 168 L 141 191 L 133 194 L 135 189 L 140 185 L 138 184 L 140 181 Q 142 182 141 180 L 159 166 L 161 162 L 155 165 L 153 161 L 155 158 L 149 162 Q 146 163 147 161 L 167 144 L 167 141 L 129 158 Q 127 160 126 158 L 127 154 L 127 152 L 106 165 L 103 160 L 92 168 L 87 169 L 86 167 L 90 160 L 93 158 L 95 155 Q 97 156 96 153 L 105 146 L 104 140 L 86 148 L 84 148 L 76 154 L 70 155 L 52 174 L 50 179 L 46 181 L 36 196 L 39 195 L 43 196 L 43 200 L 38 205 L 40 208 Q 43 207 42 210 L 23 229 L 21 229 Q 22 232 19 234 L 21 237 L 7 253 L 7 267 L 8 268 L 7 270 Q 10 271 8 277 L 8 279 L 7 281 L 8 294 L 12 291 L 15 293 L 12 297 L 13 298 L 16 296 L 18 293 L 21 291 Q 23 286 26 290 L 37 284 L 40 286 L 48 280 Q 50 281 49 278 L 56 273 L 58 274 L 66 269 Q 71 267 70 272 L 67 276 L 70 275 L 72 275 Q 71 272 74 273 L 82 263 Q 91 252 104 245 L 107 246 Q 111 247 113 244 L 121 245 L 122 247 L 115 257 L 116 261 L 116 260 L 140 240 L 147 237 L 151 237 Q 150 241 153 240 L 152 245 L 146 253 L 147 254 L 168 238 L 176 235 L 173 241 Q 172 244 175 243 L 174 247 L 171 249 L 164 257 L 167 259 L 165 262 L 145 277 L 134 284 L 124 288 L 107 299 L 100 307 L 103 307 L 109 303 L 111 304 L 106 308 Q 103 307 104 311 L 101 312 L 92 320 L 76 328 Q 73 329 74 325 L 72 326 L 68 322 L 69 320 L 67 320 L 60 325 L 52 326 L 53 324 L 52 322 L 55 320 Q 57 319 56 316 L 62 309 L 60 307 L 49 313 Q 46 314 47 311 L 32 320 Q 24 330 12 336 L 7 341 L 7 350 L 6 351 L 7 371 L 20 361 L 24 362 L 29 360 Q 31 359 30 363 L 23 369 L 23 371 Q 24 375 22 374 L 12 386 L 13 387 L 24 379 L 29 381 L 31 381 L 38 376 Q 41 374 41 370 L 47 365 Q 50 364 49 367 L 47 368 L 47 370 L 45 373 L 46 374 L 49 372 L 48 378 L 49 379 Q 51 378 50 375 L 53 373 L 55 376 L 56 374 L 53 371 L 54 370 L 53 367 Q 49 368 50 365 Q 58 364 61 368 L 63 372 L 63 378 L 60 383 L 87 363 L 94 360 L 96 360 L 96 358 L 109 352 L 111 352 Q 114 351 115 354 L 110 360 L 111 362 L 117 357 L 121 356 Q 124 355 123 351 L 131 348 L 132 346 L 135 343 L 165 328 L 170 323 Q 171 318 168 317 L 169 304 L 172 299 L 172 291 L 171 290 L 172 281 L 176 274 Q 175 271 178 272 Q 178 262 184 257 L 185 249 L 191 237 L 199 231 L 197 228 L 198 226 L 197 223 Q 196 220 195 222 L 191 221 Q 190 215 194 212 L 194 208 L 191 202 L 191 200 Q 192 193 190 194 L 187 189 L 190 181 L 194 183 L 197 181 L 198 183 L 201 182 L 203 179 L 199 180 L 203 175 L 205 176 L 203 179 Q 206 180 205 177 L 209 176 L 208 178 Q 207 180 210 179 L 211 174 L 221 173 L 226 170 Q 230 168 229 172 L 229 173 L 237 171 L 237 173 Q 234 172 235 175 L 235 176 L 237 175 L 241 176 L 245 174 L 244 177 L 248 174 Q 250 173 249 176 L 247 177 L 244 182 Q 243 184 247 183 Q 248 181 249 184 L 244 186 L 244 187 L 247 186 L 249 187 L 253 186 L 254 186 L 245 192 L 250 193 L 250 195 Q 254 193 253 197 L 253 199 L 251 200 Q 245 198 246 202 L 249 203 L 256 201 L 260 190 L 264 169 L 267 161 L 273 127 L 275 122 L 276 110 L 281 105 L 283 105 L 286 110 L 284 116 L 282 133 L 280 138 L 281 148 L 287 120 L 289 118 Q 291 119 290 117 L 294 115 L 297 121 L 297 128 L 294 137 L 293 147 L 291 151 L 291 156 L 286 175 L 285 185 L 282 194 L 282 199 L 280 204 L 280 209 L 278 214 L 278 219 L 275 232 Q 283 231 287 237 Q 286 239 289 238 L 289 240 L 301 252 L 301 255 L 304 261 L 308 263 Q 309 270 315 274 L 315 279 L 319 284 L 319 286 L 321 287 L 321 292 L 320 293 L 316 291 L 324 308 L 327 323 L 326 335 L 323 342 Q 324 344 322 343 L 320 346 L 318 347 L 315 346 L 310 349 L 305 355 L 299 358 L 295 357 L 292 359 Q 293 363 289 361 Q 287 364 286 362 L 282 367 L 277 371 Q 271 372 270 369 L 268 366 L 249 379 L 247 378 L 245 378 L 240 377 L 238 377 Q 233 378 232 375 L 230 376 L 222 373 L 220 366 L 220 359 L 223 359 L 225 356 L 226 356 L 226 344 L 225 342 Q 219 344 218 341 L 215 341 L 215 334 L 214 333 L 212 333 L 213 342 L 218 345 L 222 344 L 224 349 L 223 350 L 220 347 L 219 348 L 213 345 L 209 341 L 210 336 L 208 330 Q 207 327 210 328 L 210 323 L 214 322 L 225 323 L 226 324 L 227 323 L 228 315 L 231 313 Q 234 308 234 299 L 233 299 Q 234 302 230 300 L 227 295 L 226 297 L 219 295 L 219 293 L 225 293 L 225 291 L 222 286 L 220 287 Q 215 285 219 283 L 222 284 Q 226 285 224 281 L 217 277 L 218 274 L 222 275 L 223 278 L 224 278 Q 226 272 223 271 L 224 268 L 222 269 L 218 268 L 214 262 L 211 263 L 213 260 Q 215 259 214 262 L 218 262 L 217 261 L 210 251 L 210 243 L 204 244 L 203 241 L 205 238 Q 204 235 203 237 L 199 234 L 197 235 L 191 242 L 191 245 L 187 254 L 187 258 L 182 267 L 183 278 L 180 278 Q 181 275 179 276 L 179 278 L 175 282 L 175 284 L 176 286 L 179 282 L 184 283 L 183 281 L 185 281 L 185 279 L 188 277 L 191 281 Q 189 286 193 288 L 194 285 L 194 283 Q 193 276 195 274 L 198 276 L 198 286 L 197 287 L 199 296 L 202 302 L 201 306 L 204 318 L 204 320 L 208 335 L 207 338 L 210 349 L 213 352 Q 214 356 209 354 L 210 361 L 204 377 Q 204 387 200 395 L 201 408 Q 200 400 203 396 L 203 389 L 208 378 L 210 380 L 209 391 L 207 393 L 205 401 L 205 413 L 204 414 Q 203 422 206 427 L 206 439 Q 211 441 205 444 L 206 451 L 209 450 L 211 455 L 215 457 L 216 457 L 213 444 L 212 419 L 211 418 Q 214 409 212 396 L 213 392 L 216 391 L 217 394 L 215 402 L 215 432 L 216 433 L 217 447 L 222 459 L 223 461 L 232 461 L 234 463 L 233 459 L 227 451 L 225 443 L 225 429 L 225 427 L 223 420 L 223 407 L 222 406 L 223 391 L 226 389 L 228 394 L 227 396 L 228 402 Q 227 404 226 402 L 225 405 L 225 407 L 226 408 L 227 422 L 227 410 L 228 408 Q 230 403 232 407 L 231 411 Q 229 437 240 450 Q 241 453 238 452 Q 230 445 229 433 L 228 433 Q 226 445 231 451 Q 230 454 233 453 L 237 458 L 237 462 L 244 466 Q 247 467 248 465 L 243 462 L 239 458 Q 236 456 241 454 L 242 457 L 249 461 L 252 460 Q 258 459 261 462 Q 265 463 267 461 L 270 462 L 272 462 L 265 456 Q 245 439 239 410 L 243 407 L 243 414 L 249 427 L 250 424 Q 253 426 249 428 L 256 443 L 271 457 L 279 461 Q 284 460 286 462 L 290 461 L 290 463 L 292 462 L 292 464 L 299 467 L 297 464 L 297 461 L 296 461 Q 297 465 293 463 L 292 460 L 291 460 Q 280 460 276 454 L 260 436 L 254 422 L 254 412 L 257 410 Q 259 412 258 419 L 263 433 Q 269 444 279 452 L 280 452 Q 266 440 265 417 L 268 415 L 269 422 L 272 421 L 273 428 L 274 424 L 274 434 L 281 445 Q 285 451 294 453 L 295 453 L 290 433 L 287 410 L 284 403 L 281 389 L 279 386 L 280 373 L 283 371 L 284 370 L 286 372 L 284 368 L 286 365 Q 289 366 288 364 L 292 362 L 295 368 L 301 389 L 309 402 L 325 414 L 331 410 L 334 410 L 333 363 L 334 360 L 334 347 L 333 346 L 333 334 L 334 333 L 333 331 L 334 327 Q 336 320 333 319 L 334 314 L 334 312 L 333 296 L 333 294 L 334 289 L 333 286 L 334 282 L 333 279 Q 332 273 334 272 L 333 269 L 333 240 L 333 238 L 332 237 L 330 238 L 333 236 L 332 234 Q 331 229 333 228 L 333 209 L 332 208 L 332 177 L 333 176 Q 334 171 332 170 L 333 167 L 333 165 L 332 163 L 332 113 L 331 112 Q 330 107 332 106 L 331 103 L 331 86 L 331 84 L 331 59 L 332 58 L 331 53 L 332 49 L 331 48 L 331 33 L 330 31 L 331 29 L 320 35 L 313 35 L 312 32 L 309 32 Q 299 41 285 45 Q 282 44 284 43 L 283 41 L 284 38 L 284 36 L 274 40 L 274 36 L 252 53 L 216 70 L 217 67 L 215 63 L 216 61 L 219 59 L 221 56 Q 223 57 222 55 L 225 53 Q 225 46 230 44 Q 231 41 229 42 Q 226 41 228 40 L 227 35 L 230 33 L 235 27 L 240 23 L 243 20 Q 242 15 245 15 Q 246 12 243 13 Z M 278 110 Q 276 114 277 122 L 271 145 L 267 170 L 262 188 L 263 192 L 268 169 L 270 165 L 270 159 L 278 124 L 278 118 L 280 115 Q 282 109 278 110 Z M 281 117 L 279 121 L 280 123 L 281 123 L 281 117 Z M 292 117 L 287 129 L 285 143 L 274 183 L 272 196 L 268 209 L 265 226 L 262 234 L 262 238 L 260 242 L 256 263 L 254 267 L 254 272 L 252 276 L 251 285 L 242 322 L 239 321 L 240 316 L 232 315 Q 229 319 230 325 Q 236 326 239 323 L 244 324 L 246 323 L 267 229 L 267 227 L 269 217 L 271 214 L 273 199 L 276 191 L 280 169 L 285 154 L 288 134 L 290 131 L 292 121 L 292 117 Z M 280 123 L 279 129 L 280 129 L 280 123 Z M 294 125 L 293 128 L 294 128 L 294 125 Z M 293 128 L 292 132 L 293 132 L 293 128 Z M 279 130 L 278 135 L 279 135 L 279 130 Z M 292 132 L 291 137 L 292 137 L 292 132 Z M 277 136 L 278 140 L 279 137 L 277 136 Z M 291 137 L 290 141 L 291 141 L 291 137 Z M 277 140 L 266 191 L 266 193 L 262 206 L 263 208 L 258 225 L 255 245 L 253 250 L 248 279 L 244 294 L 245 298 L 248 281 L 250 277 L 250 273 L 253 265 L 255 251 L 258 243 L 258 238 L 261 231 L 261 225 L 266 208 L 267 199 L 270 190 L 269 185 L 271 185 L 271 178 L 271 176 L 277 146 L 277 140 Z M 290 141 L 288 145 L 290 146 L 290 141 Z M 289 146 Q 285 153 285 163 L 283 166 L 282 176 L 277 194 L 277 199 L 275 202 L 274 213 L 272 216 L 266 244 L 266 246 L 263 258 L 263 260 L 257 285 L 257 290 L 255 294 L 251 319 L 249 323 L 252 323 L 255 314 L 255 309 L 258 300 L 258 294 L 260 289 L 263 270 L 267 256 L 267 251 L 269 247 L 272 228 L 274 223 L 274 218 L 283 180 L 285 165 L 289 151 L 289 146 Z M 280 149 L 279 152 L 280 152 L 280 149 Z M 224 173 L 224 175 L 226 174 L 224 173 Z M 229 175 L 228 177 L 226 178 L 230 178 L 229 175 Z M 214 176 L 212 179 L 210 181 L 207 180 L 210 184 Q 211 186 208 185 L 207 189 L 204 188 L 207 184 L 207 181 L 202 188 Q 198 189 200 185 L 198 185 L 197 192 L 193 191 L 192 194 L 193 198 L 193 202 L 197 203 L 196 206 L 199 206 L 202 204 L 202 207 Q 201 209 200 207 L 199 211 L 195 209 L 193 219 L 193 220 L 195 219 Q 194 215 197 216 L 199 222 L 202 221 L 204 218 Q 207 217 206 221 L 201 224 L 202 228 L 201 232 L 203 234 L 208 233 L 212 229 L 220 226 L 222 225 L 216 235 L 216 240 L 223 245 L 222 248 L 226 257 Q 229 255 227 249 L 231 245 Q 238 245 241 241 Q 244 239 244 235 L 244 233 L 239 227 L 234 213 L 233 213 L 229 211 L 231 210 L 231 209 Q 227 210 228 208 L 228 206 L 229 202 Q 230 197 228 198 L 228 200 L 226 211 L 222 214 L 220 213 Q 217 214 218 212 L 220 212 L 222 212 L 219 210 L 220 207 Q 218 202 223 203 L 224 200 L 221 202 L 220 199 L 218 204 L 216 202 L 216 200 L 214 197 Q 217 192 222 193 Q 223 196 220 198 L 221 199 L 223 196 L 226 194 L 230 189 L 227 188 L 225 191 L 221 190 L 216 193 L 213 196 L 212 195 L 209 196 Q 208 190 211 189 L 210 187 L 212 187 Q 214 184 213 179 L 215 177 L 214 176 Z M 240 178 L 238 179 L 237 181 L 241 179 L 240 178 Z M 218 179 L 216 182 L 218 181 L 218 179 Z M 230 180 L 222 185 L 225 185 L 224 188 L 229 186 L 228 185 L 230 182 L 230 180 Z M 241 182 L 239 184 L 241 184 L 241 182 Z M 235 185 L 230 192 L 231 194 L 230 196 L 235 195 L 236 192 Q 235 189 234 191 L 232 191 L 235 189 L 237 190 Q 238 187 235 188 L 235 185 Z M 241 186 L 242 190 L 243 188 L 241 186 Z M 215 187 L 214 189 L 216 188 L 215 187 Z M 245 189 L 243 191 L 245 191 L 245 189 Z M 191 191 Q 189 194 192 193 L 191 191 Z M 262 192 L 242 274 L 242 279 L 236 303 L 236 308 L 233 313 Q 232 315 236 314 L 238 311 L 238 306 L 241 297 L 245 272 L 250 254 L 250 248 L 253 238 L 253 233 L 255 229 L 255 224 L 262 197 L 262 192 Z M 220 195 L 218 196 L 217 198 L 221 196 L 220 195 Z M 241 195 L 239 196 L 240 198 L 242 197 L 241 195 Z M 245 196 L 243 198 L 245 198 L 245 196 Z M 226 197 L 224 199 L 226 199 L 226 197 Z M 249 197 L 249 198 L 251 198 L 249 197 Z M 243 198 L 240 201 Q 239 203 242 202 L 241 206 L 243 206 L 244 203 L 243 198 Z M 256 202 L 254 205 Q 253 207 250 206 Q 248 204 247 207 L 250 207 L 247 211 L 245 210 Q 241 209 242 212 L 244 213 L 239 216 L 240 221 L 245 222 L 247 222 L 252 223 L 256 206 L 256 202 Z M 224 203 L 223 206 L 224 206 L 224 203 Z M 223 206 Q 220 210 224 209 L 223 206 Z M 236 209 L 234 212 L 236 211 L 236 209 Z M 274 234 L 274 240 L 272 244 L 256 327 L 265 328 Q 266 325 268 330 L 266 335 Q 268 336 266 337 L 265 336 L 244 335 L 242 335 L 240 334 L 229 334 L 228 333 L 223 333 Q 223 336 220 335 L 220 333 L 219 338 L 221 339 L 230 339 L 238 341 L 240 340 L 254 341 L 256 342 L 255 345 L 253 344 L 250 352 L 254 351 L 256 352 L 259 351 L 258 349 L 265 346 L 264 345 L 268 338 L 272 335 L 276 330 L 274 325 L 276 321 L 275 316 L 275 314 Q 276 309 274 308 Q 276 300 271 302 L 268 294 Q 269 289 275 290 Q 277 291 276 296 L 279 295 L 277 290 L 282 285 L 284 285 Q 287 286 286 291 L 289 292 L 291 289 L 288 280 Q 289 275 296 276 Q 298 277 297 282 L 299 284 L 299 288 L 306 290 L 309 283 L 306 276 L 311 274 L 308 272 Q 309 269 307 270 L 303 267 L 298 257 L 298 253 L 290 243 L 283 236 L 274 234 Z M 207 237 L 208 243 L 209 243 L 208 240 Q 209 236 207 237 Z M 148 238 L 136 245 L 131 251 Q 123 255 118 262 L 113 263 L 113 257 L 117 253 L 118 248 L 117 248 Q 114 249 115 246 L 106 249 L 104 248 Q 96 250 93 255 L 80 268 L 79 271 Q 76 277 67 278 L 65 278 L 63 278 L 63 273 Q 60 272 61 275 Q 59 279 58 276 L 56 276 Q 48 285 38 290 Q 34 291 35 288 L 26 293 L 24 292 L 10 303 L 7 304 L 8 338 L 23 327 L 26 323 L 47 309 Q 48 307 50 310 L 59 305 Q 64 304 65 308 L 59 317 L 60 319 L 58 320 L 56 323 L 61 322 L 70 316 L 73 316 L 74 319 L 74 321 L 73 323 L 76 322 L 80 324 L 96 313 L 95 310 L 96 306 L 113 292 L 128 283 L 132 282 L 138 277 L 144 275 L 164 260 L 161 258 L 163 254 L 172 247 Q 173 243 171 244 L 169 243 L 173 238 L 168 240 L 147 256 L 143 255 L 149 246 Q 148 243 151 244 Q 152 241 150 242 L 148 238 Z M 241 259 L 239 261 L 240 263 Q 242 264 240 265 L 238 262 L 235 264 Q 239 264 238 269 L 235 270 L 232 269 L 233 272 Q 231 273 234 274 L 237 272 Q 239 273 238 277 L 235 278 L 233 275 L 232 275 L 233 283 L 233 281 L 238 283 L 242 265 L 241 259 Z M 219 262 L 218 265 L 223 266 L 223 265 L 219 262 Z M 233 264 L 233 266 L 235 265 L 233 264 Z M 314 281 L 314 284 Q 313 288 316 287 Q 317 282 314 281 Z M 232 283 L 233 291 Q 234 288 237 289 L 237 286 L 235 287 L 232 283 Z M 235 295 L 234 298 L 235 298 L 235 295 Z M 7 297 L 8 300 L 9 298 L 7 297 Z M 179 298 L 178 301 L 179 301 L 179 298 Z M 244 298 L 243 302 L 244 302 L 244 298 Z M 243 303 L 242 307 L 243 307 L 243 303 Z M 174 304 L 173 307 L 174 307 L 174 304 Z M 324 323 L 323 328 L 324 328 L 324 323 Z M 214 325 L 213 329 L 217 331 L 234 331 L 235 332 L 235 327 L 233 328 L 232 327 L 219 326 L 217 326 L 214 325 Z M 241 325 L 239 327 L 239 333 L 251 333 L 253 328 Q 252 325 251 327 L 249 326 L 247 327 L 241 325 Z M 168 327 L 165 330 L 157 333 L 129 351 L 125 356 L 113 364 L 109 366 L 104 366 Q 102 362 106 363 L 108 359 Q 107 356 110 357 L 112 353 Q 103 355 97 362 L 94 361 L 91 365 L 76 376 Q 73 375 74 378 L 68 382 L 71 383 L 74 381 L 83 385 L 88 397 L 101 389 L 105 389 L 104 393 L 114 390 L 124 382 L 131 381 Q 132 385 128 387 L 129 389 L 128 392 L 129 394 L 140 386 L 142 386 Q 142 378 148 375 L 147 367 L 141 359 L 143 352 L 152 346 L 156 348 L 160 355 L 159 357 L 159 364 L 163 371 L 166 370 L 164 367 Q 163 360 166 358 L 166 351 L 169 343 L 168 327 Z M 323 328 L 322 334 L 323 334 L 323 328 Z M 256 330 L 256 334 L 262 334 L 263 332 Q 261 329 256 330 Z M 204 341 L 201 347 L 197 349 L 195 356 L 196 357 L 198 356 Q 200 349 206 346 L 204 341 Z M 237 343 L 236 352 L 241 351 Q 245 352 244 350 L 243 347 L 244 345 L 244 343 L 237 343 Z M 229 346 L 230 350 L 231 347 L 229 346 Z M 206 349 L 203 352 L 206 353 L 206 349 Z M 265 349 L 264 351 L 258 354 L 251 354 L 249 354 L 246 352 Q 243 351 244 354 L 241 353 L 238 354 L 235 358 L 237 357 L 239 358 L 241 357 Q 242 355 243 358 L 242 364 L 240 364 L 235 368 Q 236 370 234 369 L 232 372 Q 236 373 238 370 L 237 369 L 238 367 L 238 369 L 242 367 Q 245 366 244 369 L 241 370 L 238 374 L 246 370 Q 249 369 248 372 L 243 374 L 244 376 L 251 372 Q 253 371 252 374 L 252 375 L 256 373 L 258 370 L 271 360 L 270 355 Q 268 350 267 353 L 265 349 Z M 151 350 L 147 352 L 144 357 L 149 362 Q 153 362 155 359 Q 156 354 154 353 Q 155 348 151 350 Z M 204 355 L 194 360 L 190 366 L 190 369 L 187 371 L 184 371 L 179 378 L 178 385 L 171 391 L 169 394 L 186 388 L 189 389 L 191 396 L 190 398 Q 189 400 192 399 Q 191 393 195 390 L 198 372 L 204 359 L 204 355 Z M 230 356 L 222 362 L 223 365 Q 225 368 226 365 L 225 362 L 231 357 L 230 356 Z M 234 357 L 233 359 L 230 361 L 231 362 L 234 360 Q 237 359 234 357 Z M 174 360 L 168 371 L 166 373 L 155 373 L 152 379 L 148 381 L 150 384 L 153 382 L 157 377 Q 162 377 164 380 L 169 379 L 171 376 Q 174 375 173 378 L 166 384 L 169 390 L 170 386 L 172 386 Q 174 387 173 385 L 173 383 L 175 384 L 181 367 L 178 366 L 179 364 L 174 360 Z M 180 361 L 180 362 L 182 362 L 180 361 Z M 207 362 L 203 368 L 198 387 L 199 391 L 204 370 L 207 364 L 207 362 Z M 26 363 L 19 366 L 19 364 L 7 372 L 6 375 L 7 379 L 6 380 L 6 399 L 13 398 L 16 400 L 16 402 L 22 402 L 24 402 L 28 405 L 33 404 Q 32 398 35 396 L 43 390 Q 49 392 47 386 Q 39 387 37 382 L 39 379 L 39 377 L 33 382 Q 30 381 31 384 L 25 387 L 22 386 L 24 382 L 11 390 L 7 390 L 15 377 L 21 373 L 20 371 Q 19 368 22 369 L 22 367 L 27 364 L 26 363 Z M 233 363 L 230 368 L 234 365 Q 235 362 233 363 Z M 182 364 L 181 367 L 182 367 L 182 364 Z M 150 365 L 149 368 L 151 376 Q 155 374 153 367 L 150 365 Z M 288 365 Q 288 371 292 376 L 294 391 L 301 409 L 304 413 L 306 421 L 312 424 Q 316 426 317 433 L 314 434 L 318 439 Q 319 442 317 441 L 315 438 L 311 436 Q 310 431 313 430 L 308 426 L 302 420 Q 301 411 297 406 Q 298 403 296 404 L 294 404 L 296 415 L 298 417 L 298 424 L 303 434 L 308 435 L 307 440 Q 306 442 309 441 Q 310 439 311 442 L 310 445 L 304 442 L 305 437 L 300 435 L 298 430 L 296 429 L 300 443 L 305 448 L 315 445 L 316 449 L 314 448 L 306 451 L 302 450 L 298 445 L 297 445 L 298 452 L 298 454 Q 299 456 296 455 L 296 457 L 301 460 L 303 460 L 302 456 L 307 452 L 316 451 L 322 445 Q 323 440 319 442 L 319 440 L 323 438 Q 324 434 321 433 L 324 429 L 330 430 L 332 430 Q 335 431 333 426 L 311 413 L 312 410 Q 313 407 311 408 L 300 395 L 291 367 L 288 365 Z M 287 372 Q 287 377 284 379 L 285 383 Q 283 388 287 387 L 286 381 L 289 379 L 287 372 Z M 148 377 L 146 381 Q 149 382 148 380 Q 150 378 148 377 Z M 290 380 L 289 385 L 290 385 L 290 380 Z M 155 381 L 155 383 L 153 387 L 155 395 L 155 397 L 157 400 L 161 398 L 162 396 Q 159 397 160 394 L 162 394 L 158 392 Q 157 388 161 390 L 161 389 L 160 389 L 159 387 L 161 387 L 157 384 Q 158 380 155 381 Z M 56 384 L 55 385 Q 48 383 50 389 Q 53 390 52 388 Q 53 385 57 386 Q 58 383 56 384 Z M 125 384 L 116 391 L 108 394 L 106 394 Q 102 398 97 398 L 98 394 L 101 393 Q 103 394 102 391 L 88 398 Q 87 405 91 409 L 102 408 L 108 406 Q 115 405 117 409 L 118 410 L 123 410 L 123 412 L 131 415 L 137 415 Q 134 413 135 409 L 139 406 L 149 403 L 148 397 L 145 402 L 141 399 L 141 389 Q 134 391 130 396 L 125 397 L 124 393 L 125 391 L 123 389 L 127 385 L 125 384 Z M 145 384 L 143 388 Q 141 396 145 399 L 145 391 L 147 388 L 145 384 Z M 73 385 L 75 388 L 76 386 L 77 391 L 82 393 L 82 390 Q 80 384 73 385 Z M 59 386 L 58 390 L 52 399 L 48 402 L 57 390 L 55 388 L 53 389 L 50 394 L 51 392 L 50 391 L 44 399 L 45 401 L 44 403 L 43 402 L 44 400 Q 41 399 42 402 L 40 402 L 47 393 L 46 392 Q 41 393 42 398 L 40 398 L 41 396 L 44 392 L 37 395 L 36 401 L 39 402 L 40 409 L 42 412 L 43 424 L 47 428 L 51 426 L 55 428 L 58 427 L 60 428 L 61 424 Q 63 417 59 418 L 59 404 L 60 403 L 60 400 L 58 403 L 57 403 L 59 400 L 58 391 L 61 390 L 62 392 L 62 388 L 59 386 Z M 70 386 L 69 388 L 71 389 L 70 386 Z M 67 388 L 65 390 L 66 392 L 68 391 L 67 388 Z M 76 388 L 75 392 L 76 392 L 76 388 Z M 72 390 L 70 394 L 72 403 L 73 401 L 74 403 L 74 400 L 73 400 L 72 390 Z M 187 390 L 137 411 L 139 416 L 156 410 L 158 408 L 162 408 L 172 403 Q 182 402 188 398 L 187 390 Z M 149 391 Q 147 395 150 397 Q 149 399 152 398 Q 152 393 149 391 Z M 293 391 L 292 394 L 293 394 L 293 391 Z M 76 392 L 74 411 L 76 410 Q 78 411 77 408 L 78 408 L 77 419 L 76 420 Q 75 423 78 422 L 79 420 L 79 400 L 78 400 Q 75 401 76 399 L 78 399 L 78 395 L 78 393 L 76 392 Z M 198 392 L 197 395 L 198 395 L 198 392 Z M 83 393 L 82 400 L 84 400 L 83 393 Z M 67 395 Q 65 399 67 401 L 65 409 L 65 411 L 66 416 L 68 412 L 68 404 L 68 402 L 67 395 Z M 197 399 L 196 408 L 197 408 L 197 399 Z M 150 400 Q 149 403 152 402 Q 153 399 150 400 Z M 190 401 L 176 406 L 173 410 Q 176 412 175 416 L 181 415 L 191 416 L 190 415 L 190 405 L 191 404 Q 192 400 190 401 Z M 83 402 L 82 407 L 83 407 L 83 402 Z M 291 402 L 290 405 L 291 405 L 291 402 Z M 36 405 L 33 408 L 34 411 L 36 407 L 36 405 Z M 292 406 L 292 413 L 293 413 L 292 406 Z M 21 407 L 21 409 L 23 408 L 21 407 Z M 170 408 L 167 410 L 170 410 L 170 408 Z M 114 409 L 114 413 L 104 417 L 118 417 L 120 417 L 122 418 L 124 417 L 125 418 L 121 412 L 120 414 L 114 409 Z M 38 410 L 33 426 L 33 432 L 31 432 Q 28 431 29 426 L 28 431 L 26 430 L 23 435 L 25 437 L 25 436 L 28 434 L 27 442 L 32 445 L 34 444 Q 38 445 37 443 L 38 441 L 34 442 L 32 440 Q 33 437 38 438 L 40 435 Q 39 430 41 429 L 38 410 Z M 70 410 L 70 412 L 69 412 L 69 414 Q 71 419 68 418 L 66 418 L 67 422 L 68 419 L 68 426 L 70 425 L 69 420 L 71 420 L 71 417 L 71 415 Q 73 409 70 410 Z M 165 410 L 165 411 L 167 411 L 165 410 Z M 198 410 L 195 414 L 197 414 L 196 423 L 193 428 L 194 445 L 200 448 L 202 453 L 203 453 Q 204 447 201 445 Q 199 438 202 437 Q 204 426 200 422 L 200 411 L 198 410 Z M 33 411 Q 32 417 28 420 Q 27 422 30 421 L 29 425 L 30 426 L 33 417 L 33 411 Z M 171 411 L 158 417 L 159 421 L 163 421 L 165 419 L 173 417 L 171 411 Z M 85 412 Q 87 417 82 415 L 82 417 Q 85 416 84 419 L 86 418 L 86 424 L 87 424 L 87 413 L 85 412 Z M 294 414 L 293 420 L 294 420 L 294 414 Z M 174 419 L 166 422 L 166 423 L 174 421 L 174 419 Z M 193 419 L 192 423 L 193 423 L 193 419 Z M 85 420 L 82 423 L 85 423 L 85 420 Z M 91 420 L 90 428 L 93 428 L 96 424 Q 98 425 97 422 L 102 424 L 101 426 Q 96 425 98 431 Q 97 433 96 431 L 94 432 L 90 431 L 90 435 L 95 435 L 95 437 L 93 438 L 87 437 L 86 441 L 83 443 L 84 447 L 80 449 L 79 455 Q 79 461 82 464 L 80 468 Q 81 470 78 469 L 77 473 L 71 475 L 71 483 L 70 484 Q 67 483 68 486 L 71 485 L 73 486 L 75 482 L 78 485 L 77 485 L 77 486 L 81 486 L 79 485 Q 78 482 83 483 L 84 483 L 82 484 L 83 486 L 85 485 L 87 486 L 90 485 L 91 486 L 105 486 L 107 486 Q 113 488 115 485 L 117 486 Q 120 485 117 483 L 113 484 L 111 484 L 109 483 Q 106 484 107 481 L 113 480 L 116 481 Q 118 480 117 483 Q 120 484 118 486 L 124 486 Q 125 483 121 484 Q 123 478 119 477 L 122 468 L 121 463 L 122 459 L 122 439 L 123 436 L 128 431 L 129 432 L 131 431 Q 135 430 134 424 L 136 424 L 136 423 L 130 420 L 127 421 L 119 420 L 116 421 Q 113 420 114 423 L 118 422 L 120 423 Q 119 428 111 426 L 108 426 L 110 422 L 112 423 L 113 421 L 102 421 L 101 422 L 91 420 Z M 177 420 L 175 424 L 177 434 L 179 433 Q 181 434 180 432 L 183 433 L 184 432 L 184 436 L 182 437 L 180 436 L 178 436 L 181 447 Q 180 449 184 448 Q 185 452 182 451 L 182 456 L 184 456 L 187 446 L 186 442 L 181 443 L 183 439 L 185 440 Q 187 438 186 433 L 182 430 Q 179 431 180 429 Q 181 426 183 428 L 186 427 L 186 425 L 181 426 L 179 423 L 182 422 L 186 423 L 189 422 L 188 421 L 186 421 L 185 420 L 177 420 Z M 15 421 L 12 422 L 11 425 L 14 425 L 14 428 L 13 427 Q 7 426 6 429 L 7 431 L 6 434 L 7 437 L 7 439 L 6 442 L 6 444 Q 10 442 9 446 L 6 447 Q 4 452 8 451 Q 9 455 6 454 L 7 457 L 7 464 L 9 464 L 7 468 L 7 478 L 8 479 L 7 481 Q 6 486 8 486 L 34 486 L 33 482 Q 29 483 28 481 L 29 480 L 29 470 L 32 464 L 33 457 L 31 457 L 34 456 L 35 454 L 34 451 Q 35 447 32 448 L 32 450 L 29 449 L 28 446 L 27 448 L 28 449 L 21 447 Q 20 444 25 445 L 24 444 Q 25 441 22 442 L 20 442 L 12 442 L 10 441 L 14 439 Q 15 435 13 436 L 10 435 L 9 438 L 11 437 L 10 439 L 8 436 L 11 435 L 13 432 L 17 433 L 15 437 L 17 437 L 19 434 L 18 432 L 20 432 L 22 431 Q 21 424 24 422 L 22 421 L 20 428 L 19 428 Q 20 425 17 426 L 17 429 Q 17 425 14 424 L 16 424 L 18 423 L 20 423 Q 22 424 21 421 L 17 422 L 15 421 Z M 143 421 L 141 423 L 146 423 L 145 427 L 147 427 L 146 429 Q 145 431 148 430 Q 149 433 146 432 L 145 435 L 146 442 L 149 443 L 147 453 L 150 454 L 149 456 Q 144 457 143 455 Q 144 451 141 452 L 140 456 L 143 467 L 145 466 Q 148 465 149 468 L 147 469 L 143 468 L 145 473 L 150 472 L 150 475 L 144 475 L 147 481 L 150 480 L 150 483 L 145 483 L 145 485 L 151 486 Q 153 485 151 484 L 153 484 L 155 483 L 157 485 Q 156 487 163 486 L 163 485 Q 160 486 161 483 L 170 483 L 170 485 L 170 486 L 173 486 L 171 481 L 171 477 L 165 477 L 164 476 Q 165 473 170 474 L 169 472 Q 170 467 168 468 L 166 468 L 162 469 L 162 466 L 168 466 L 166 457 L 165 457 L 163 457 L 165 456 L 163 455 L 164 449 Q 163 446 162 448 L 159 447 Q 156 448 157 445 L 155 444 L 151 445 L 150 443 L 151 439 L 148 437 L 150 433 L 153 434 Q 156 433 153 431 L 151 432 L 148 429 L 151 427 Q 150 424 149 426 L 147 422 L 150 422 L 143 421 Z M 6 422 L 8 425 L 8 424 L 10 424 L 11 424 Q 10 421 6 422 Z M 64 422 Q 62 427 65 427 Q 67 426 66 423 L 64 422 Z M 74 422 L 72 429 L 73 433 L 74 429 L 74 422 Z M 77 423 L 76 433 L 77 434 L 75 443 L 73 466 L 73 468 Q 74 470 72 469 L 69 468 L 70 471 Q 69 474 74 472 L 78 467 Q 78 460 75 458 L 77 447 L 80 446 Q 82 447 81 444 L 77 442 L 78 439 L 80 436 L 80 434 L 82 423 Q 79 422 80 426 L 77 426 L 77 423 Z M 157 423 L 152 427 L 154 427 L 156 435 Q 157 439 152 437 L 152 441 L 158 440 L 157 439 L 158 436 L 156 431 L 157 429 L 157 431 Q 160 432 159 428 L 158 426 L 155 428 L 157 425 L 157 423 Z M 163 423 L 161 425 L 163 425 L 163 423 Z M 86 424 Q 86 432 84 435 L 87 434 L 86 424 Z M 171 424 L 169 426 L 173 445 L 176 451 L 178 463 L 180 467 L 181 476 L 184 484 L 191 518 L 193 521 L 193 526 L 198 542 L 199 551 L 201 555 L 210 593 L 212 592 L 206 570 L 206 565 L 200 543 L 200 539 L 198 535 L 196 521 L 192 510 L 192 505 L 189 497 L 184 471 L 177 447 L 177 442 L 174 435 L 174 430 L 172 426 Q 173 423 171 424 Z M 228 424 L 227 430 L 228 430 L 228 424 Z M 188 425 L 187 429 L 188 429 L 188 425 Z M 166 426 L 162 429 L 164 433 L 165 441 L 167 445 L 167 449 L 169 453 L 178 492 L 178 494 L 182 506 L 188 534 L 190 538 L 191 547 L 193 551 L 193 555 L 203 592 Q 202 595 206 593 L 203 577 L 196 552 L 195 543 L 186 510 L 186 506 L 183 494 L 181 491 L 181 486 L 177 472 L 177 468 Q 173 461 173 452 L 169 443 L 166 426 Z M 65 427 L 65 429 L 65 431 L 64 433 L 63 431 L 62 437 L 64 436 L 67 437 L 69 434 L 68 429 L 65 427 Z M 191 429 L 190 434 L 191 434 L 191 429 Z M 57 430 L 55 432 L 53 431 Q 47 430 45 434 L 48 434 Q 49 438 46 437 L 45 440 L 46 442 L 50 441 L 49 446 L 51 446 L 53 454 L 52 457 L 54 457 L 52 459 L 52 469 L 48 471 L 51 475 Q 55 472 53 462 Q 57 457 57 450 L 61 444 Q 63 443 62 447 L 64 446 Q 65 442 63 441 Q 60 442 61 439 L 58 438 L 59 431 L 57 430 Z M 158 432 L 159 436 L 160 436 Q 161 431 158 432 Z M 133 433 L 132 436 L 133 439 L 131 440 L 129 443 L 131 442 L 131 445 L 131 447 L 131 450 Q 128 449 129 452 L 129 453 L 132 452 L 131 454 L 134 454 L 135 456 L 138 454 L 139 450 L 137 439 L 140 437 L 143 446 L 145 447 Q 145 439 141 436 L 141 433 L 133 433 Z M 333 433 L 332 436 L 333 436 L 333 433 Z M 19 435 Q 16 439 20 438 L 19 435 Z M 328 435 L 325 442 Q 327 445 332 443 L 331 447 L 326 446 L 326 444 L 323 449 Q 322 452 326 450 L 326 452 L 324 453 Q 322 451 321 454 L 319 451 L 309 456 L 307 460 L 309 459 Q 314 458 316 460 L 315 463 L 311 462 L 309 463 L 307 460 L 303 464 Q 305 471 301 472 L 293 469 L 296 478 L 298 475 Q 302 474 303 477 L 303 479 L 298 479 L 296 479 L 299 485 L 299 483 Q 300 480 306 481 L 308 481 L 307 483 Q 308 485 306 484 L 306 485 L 310 484 L 316 485 L 315 482 L 318 481 L 321 482 Q 323 481 322 484 L 322 485 Q 324 486 323 483 L 324 483 Q 323 486 326 485 L 328 485 L 333 485 L 328 483 L 333 480 L 333 473 L 332 472 L 330 472 L 328 473 L 328 472 Q 327 467 332 469 L 333 470 L 333 458 L 330 460 L 327 458 L 325 459 L 323 459 Q 316 460 313 458 L 314 455 L 318 456 Q 322 457 324 455 L 333 456 L 333 450 L 328 451 L 328 448 L 333 448 L 333 439 L 329 439 L 330 437 L 328 435 Z M 73 436 Q 69 437 70 442 L 70 444 L 71 456 L 72 448 L 71 445 L 73 445 L 73 436 Z M 161 436 L 160 441 L 162 442 L 161 436 Z M 83 437 L 81 440 L 83 439 L 83 437 Z M 21 438 L 20 440 L 22 441 L 21 438 Z M 42 441 L 41 445 L 42 445 L 42 441 Z M 158 441 Q 155 445 159 444 L 158 441 Z M 297 441 L 296 444 L 297 444 L 297 441 Z M 161 442 Q 158 446 163 445 L 161 442 Z M 191 445 L 192 447 Q 193 444 191 445 Z M 41 446 L 38 449 L 38 453 L 35 461 L 36 462 L 41 448 L 41 446 Z M 67 446 L 66 448 L 66 450 L 65 449 L 63 454 L 66 453 L 65 455 L 67 455 L 67 446 Z M 48 447 L 44 454 L 44 459 L 42 463 L 41 474 L 40 475 L 43 483 Q 41 484 44 485 L 45 477 L 44 477 L 43 475 L 46 476 L 48 472 L 46 470 L 42 473 Q 41 468 45 467 Q 47 468 46 466 L 47 466 L 45 469 L 47 469 Q 49 468 48 463 L 46 464 Q 43 463 44 466 L 43 466 L 44 463 Q 45 460 47 462 L 49 457 L 49 453 L 48 456 Q 44 457 45 455 L 49 452 L 48 447 Z M 193 447 L 192 449 L 194 450 L 193 447 Z M 195 450 L 197 453 L 198 453 L 195 450 Z M 281 452 L 282 454 L 283 454 L 281 452 Z M 60 453 L 59 456 L 60 456 L 60 453 Z M 64 455 L 63 457 L 65 456 L 64 455 Z M 59 456 L 56 464 L 57 466 L 59 461 L 59 456 Z M 67 456 Q 65 459 62 458 L 61 463 L 65 461 L 66 463 L 67 459 L 67 456 Z M 70 457 L 69 461 L 70 461 L 70 457 Z M 73 458 L 72 461 L 73 461 L 73 458 Z M 69 461 L 68 463 L 70 464 L 69 461 Z M 135 461 L 137 465 Q 138 469 136 471 Q 137 473 135 472 L 136 470 L 133 467 L 131 471 L 133 475 L 135 474 L 134 482 L 137 482 L 141 481 L 141 474 L 137 463 Q 138 460 135 461 Z M 39 462 L 38 467 L 39 467 L 39 462 Z M 36 463 L 33 467 L 34 468 L 36 465 L 36 463 Z M 61 464 L 61 466 L 63 465 L 61 464 Z M 65 465 L 61 468 L 62 469 L 65 467 L 65 465 Z M 219 465 L 216 471 Q 215 473 218 472 L 218 474 Q 215 475 216 473 L 215 473 L 216 485 L 218 486 Q 221 487 220 484 L 217 483 L 218 480 L 221 478 L 222 481 L 224 482 L 233 483 L 236 485 Q 238 484 236 483 Q 237 480 241 481 L 242 483 L 241 485 L 244 483 L 247 483 Q 246 480 249 481 L 248 480 L 250 479 L 241 477 Q 238 476 241 474 Q 246 473 248 475 L 250 474 L 249 473 Q 246 472 249 470 L 254 471 L 253 469 L 256 467 L 258 468 L 258 466 Q 251 466 247 470 L 241 470 L 239 470 Q 236 471 237 469 L 236 469 L 235 467 L 229 465 L 227 465 Q 223 466 224 470 L 220 469 L 221 467 Q 225 468 224 465 L 222 466 L 219 465 Z M 287 465 L 288 467 L 289 467 L 287 465 Z M 57 467 L 56 471 L 57 471 L 57 467 Z M 35 468 L 34 470 L 33 469 L 32 472 L 34 472 L 32 476 L 32 478 L 33 479 L 35 474 L 35 468 Z M 38 468 L 37 471 L 38 471 L 38 468 Z M 63 468 L 62 473 L 61 473 L 62 471 L 60 470 L 61 476 L 63 475 L 65 469 L 63 468 Z M 128 469 L 127 473 L 128 473 L 128 469 Z M 259 471 L 257 474 L 257 475 Q 259 476 258 473 L 261 475 L 260 479 L 258 480 L 255 479 L 255 474 Q 252 475 254 477 L 252 475 L 250 478 L 253 478 Q 255 479 253 481 L 256 484 L 255 484 L 255 485 L 264 485 L 264 481 L 264 479 Q 261 478 262 474 L 259 471 Z M 57 472 L 56 475 L 57 475 L 57 472 Z M 68 474 L 67 477 L 68 477 L 68 474 Z M 50 475 L 48 485 L 50 486 L 50 475 Z M 64 475 L 62 478 L 64 477 L 64 475 Z M 132 475 L 131 481 L 132 481 L 132 475 Z M 37 476 L 36 484 L 39 484 L 37 476 Z M 60 476 Q 58 482 62 485 L 63 483 L 66 481 L 65 478 L 62 479 L 62 481 L 60 479 Q 62 477 60 476 Z M 128 476 L 126 480 L 128 480 L 128 476 Z M 55 481 L 54 483 L 56 482 L 55 481 Z M 218 481 L 218 483 L 220 482 L 221 485 L 225 486 L 222 483 L 222 481 L 218 481 Z M 74 483 Q 73 486 76 485 Q 77 482 74 483 Z M 143 483 L 140 484 Q 139 487 142 486 L 144 486 Q 145 482 143 483 Z M 239 483 L 237 485 L 239 485 L 239 483 Z M 54 484 L 55 486 Q 56 483 54 484 Z M 134 484 L 134 490 L 137 490 L 136 488 L 137 486 Q 138 483 134 484 Z M 130 485 L 129 489 L 131 490 L 130 485 Z M 59 487 L 57 489 Q 61 492 60 500 L 64 499 Q 65 493 62 491 L 64 491 L 64 488 L 62 489 L 59 487 Z M 295 487 L 294 491 L 295 491 L 295 487 Z M 320 487 L 319 488 L 300 488 L 299 492 L 333 492 L 333 488 L 322 488 L 320 487 Z M 49 488 L 47 490 Q 44 489 45 492 L 48 494 L 46 494 Q 47 502 52 508 L 58 505 L 57 497 L 55 493 L 49 488 Z M 101 488 L 100 489 L 69 489 L 68 492 L 70 491 L 72 492 L 124 492 L 126 489 L 125 489 L 102 489 L 101 488 Z M 223 488 L 222 489 Q 215 487 217 492 L 264 492 L 264 488 L 262 489 L 261 488 L 223 488 Z M 7 489 L 7 492 L 37 492 L 38 493 L 42 492 L 42 489 L 7 489 Z M 140 489 L 140 492 L 159 492 L 160 493 L 164 492 L 166 492 Q 172 491 175 493 L 174 491 L 174 489 L 140 489 Z M 128 491 Q 126 494 129 493 L 128 491 Z M 8 494 L 7 594 L 37 594 L 38 593 L 40 594 L 86 594 L 87 593 L 89 594 Q 95 596 97 593 L 99 594 L 101 594 L 101 592 L 50 564 Q 43 565 41 562 L 38 562 L 20 572 Q 15 572 13 569 Q 12 564 15 563 L 16 564 L 15 566 L 18 567 L 39 554 L 46 552 L 53 547 L 74 537 Q 77 536 74 534 L 66 537 L 54 545 L 51 545 L 48 548 L 39 552 Q 36 551 37 554 L 33 554 L 22 561 L 20 561 L 31 554 Q 33 555 32 553 L 25 545 L 19 544 L 14 539 L 14 534 L 16 530 L 24 527 L 31 528 Q 35 529 34 535 L 51 541 L 53 543 L 63 538 L 54 537 L 51 535 L 44 534 L 42 531 L 46 529 L 51 529 L 53 527 L 53 521 L 48 513 L 48 508 Q 44 504 44 497 L 43 495 L 33 495 L 31 495 L 29 494 Q 27 496 23 495 L 21 495 L 16 494 L 14 494 L 11 495 L 8 494 Z M 130 494 L 128 498 L 129 501 L 130 498 L 130 494 Z M 250 494 L 249 495 L 216 496 L 220 499 L 220 505 Q 215 512 214 521 L 266 516 L 266 508 L 265 507 L 267 503 Q 264 501 265 497 L 264 495 Q 259 496 258 494 L 256 495 L 250 494 Z M 301 494 L 299 496 L 302 511 L 304 512 L 324 511 L 334 509 L 333 499 L 334 496 L 333 494 L 310 494 L 309 495 Q 302 497 301 494 Z M 67 495 L 68 501 L 67 518 L 73 520 Q 75 519 74 523 L 71 525 L 67 525 L 63 527 L 64 536 L 64 537 L 72 532 L 76 532 L 80 537 L 80 540 L 63 549 L 64 555 L 67 555 L 86 567 L 90 568 L 134 593 L 198 593 Q 199 586 196 581 L 193 580 L 174 580 L 163 582 L 158 581 L 140 581 L 137 580 L 135 577 L 147 570 L 162 568 L 170 561 L 170 559 L 161 561 L 157 559 L 145 544 L 127 545 L 126 546 L 116 546 L 115 545 L 107 550 L 102 549 L 97 546 L 96 543 L 97 538 L 104 532 Q 110 531 113 534 L 122 533 L 124 533 L 132 531 L 123 520 L 124 517 Q 126 512 128 515 L 128 513 L 136 513 L 136 516 L 150 527 L 152 527 L 154 526 Q 157 525 158 528 L 155 529 Q 150 528 152 532 L 161 538 L 159 536 Q 158 531 161 531 L 159 528 Q 160 525 162 527 L 178 525 L 177 516 L 174 515 L 175 503 L 177 501 L 175 495 L 139 495 L 138 496 L 138 503 L 145 506 L 143 510 Q 132 511 126 509 L 125 507 L 127 504 Q 125 502 126 497 L 125 495 L 67 495 Z M 135 495 L 132 500 L 133 501 L 133 507 L 136 508 Q 141 510 140 506 L 137 505 Q 134 504 135 500 L 135 498 L 135 495 Z M 129 502 L 128 507 L 130 508 Q 131 503 129 502 Z M 63 503 L 63 507 L 65 506 Q 66 502 63 503 Z M 194 504 Q 197 508 196 517 L 199 516 L 201 517 Q 203 518 202 515 L 201 515 L 199 515 L 202 512 L 204 513 L 203 515 L 204 517 L 202 518 L 205 518 Q 206 520 207 518 L 205 517 L 209 510 L 209 513 L 212 513 L 215 505 L 214 505 Q 215 507 208 506 L 206 506 L 198 507 L 201 508 Q 202 510 199 509 L 196 506 Q 197 503 194 504 Z M 60 506 L 53 510 Q 50 509 51 512 Q 52 514 57 514 L 54 515 L 56 528 L 50 531 Q 46 530 47 533 L 61 535 L 60 533 L 60 518 L 59 515 Q 57 513 60 512 L 60 506 Z M 270 507 Q 267 511 271 510 L 270 512 Q 269 518 272 522 L 272 520 L 275 518 L 277 521 L 277 520 L 279 521 L 279 524 L 278 521 L 277 525 L 284 527 Q 289 525 288 529 L 292 527 L 296 527 L 300 523 L 301 524 L 302 522 L 300 520 L 300 519 L 300 512 L 299 514 L 296 516 L 295 514 L 289 516 L 286 514 L 283 516 L 282 513 Q 274 513 270 507 Z M 179 508 L 178 513 L 180 514 L 179 508 Z M 64 510 L 62 513 L 63 524 L 67 523 L 64 519 L 64 510 Z M 327 512 L 316 514 L 306 514 Q 303 516 304 521 L 313 521 L 329 518 L 333 519 L 334 517 L 334 515 L 333 516 L 323 516 L 321 516 L 316 518 L 308 518 L 307 519 L 305 516 L 308 515 L 311 516 L 312 515 L 330 514 L 334 513 L 329 512 L 327 512 Z M 211 513 Q 211 517 208 519 L 210 519 L 211 516 Q 213 514 211 513 Z M 130 515 L 135 524 Q 134 526 137 525 L 161 552 L 163 555 L 170 554 L 168 551 L 160 543 L 153 536 L 144 528 L 137 520 L 133 515 L 130 515 Z M 266 518 L 265 519 L 243 520 L 241 520 L 240 521 L 223 522 L 222 523 L 219 522 Q 217 525 212 523 Q 209 525 212 526 L 213 525 L 223 525 L 224 524 L 251 522 L 252 521 L 261 521 L 262 520 Q 267 518 266 522 Q 263 524 257 523 L 255 523 L 245 525 L 238 525 L 237 526 L 229 526 L 222 528 L 220 527 L 212 529 L 210 528 Q 207 529 208 533 L 219 531 L 238 530 L 240 530 L 255 527 L 269 526 L 266 518 Z M 127 520 L 127 522 L 137 531 L 138 531 L 131 523 L 127 520 Z M 199 520 L 201 531 L 203 528 Q 203 522 199 520 Z M 327 520 L 320 522 L 305 523 L 303 525 Q 304 527 301 526 L 301 529 L 299 529 L 301 537 L 300 539 L 303 553 L 305 556 L 304 558 L 308 564 Q 314 571 324 574 L 328 585 L 328 590 L 326 591 L 323 590 Q 318 589 317 593 L 319 593 L 322 592 L 325 593 L 333 593 L 334 592 L 334 564 L 333 563 L 334 549 L 317 549 L 316 548 L 314 550 L 314 563 L 313 564 L 311 563 L 311 553 L 311 551 L 310 548 Q 307 549 308 553 L 305 552 Q 305 548 308 547 Q 311 548 310 545 Q 306 546 304 543 Q 301 544 302 541 L 309 540 L 311 538 Q 309 535 305 536 L 302 534 L 311 531 L 310 529 L 313 524 Q 315 523 314 526 L 321 527 L 322 525 Q 314 527 315 523 L 324 524 L 325 527 L 323 528 L 314 528 L 314 531 L 325 532 L 324 533 L 315 533 Q 314 537 321 535 L 323 535 L 324 534 L 334 534 L 334 520 L 327 520 Z M 206 522 L 205 523 Q 202 522 203 525 L 205 524 L 206 526 L 207 523 L 206 522 Z M 181 523 L 183 533 L 183 531 L 183 529 Q 185 522 181 523 Z M 273 525 L 271 528 L 264 528 L 263 529 L 261 528 L 245 531 L 223 533 L 216 535 L 207 535 Q 205 539 206 548 L 205 549 L 207 562 L 211 574 L 215 593 L 256 593 L 257 592 L 311 592 L 312 593 L 316 592 L 315 590 L 312 591 Q 298 591 292 584 Q 288 581 287 576 L 281 572 L 278 569 L 279 564 L 279 548 L 273 525 Z M 172 527 L 165 529 L 166 531 L 171 530 L 175 531 L 178 530 L 178 527 L 172 527 Z M 204 529 Q 204 532 201 531 L 203 538 L 204 533 L 204 529 Z M 278 529 L 283 549 L 283 559 L 282 560 L 282 569 L 284 570 L 286 569 Q 290 573 292 580 L 296 583 L 309 588 L 316 587 L 320 587 L 325 587 L 321 578 Q 316 571 307 569 L 305 566 Q 306 563 303 564 L 299 557 L 298 543 L 295 533 L 296 530 L 293 531 L 290 530 L 288 531 L 278 529 Z M 25 530 L 20 534 L 17 534 Q 16 540 21 542 L 28 541 Q 30 537 32 541 Q 34 540 33 543 L 39 544 L 41 549 L 50 544 L 33 538 Q 30 537 31 534 Q 29 530 25 530 Z M 140 532 L 139 535 L 143 540 Q 147 541 146 539 L 144 537 L 140 532 Z M 185 532 L 182 536 L 183 539 L 184 537 L 186 544 L 187 544 L 186 538 L 186 536 L 185 532 Z M 171 533 L 168 535 L 170 538 L 178 537 L 178 533 L 171 533 Z M 308 533 L 310 535 Q 311 532 308 533 Z M 130 534 L 118 537 Q 114 536 115 540 L 117 539 L 119 540 L 123 538 L 125 539 L 127 538 L 129 539 L 131 538 L 133 538 Q 138 536 136 542 Q 139 543 138 541 L 138 539 Q 140 540 139 538 L 135 534 L 130 534 Z M 105 535 L 103 536 Q 100 538 101 544 Q 103 547 109 545 L 111 542 L 110 536 L 105 535 Z M 331 535 L 330 536 L 320 536 L 314 539 L 326 540 L 325 542 L 321 541 L 314 541 L 314 544 L 318 543 L 332 543 L 333 544 Q 336 542 334 537 L 331 535 Z M 175 539 Q 171 542 165 541 L 163 541 L 174 554 L 175 558 L 178 541 L 175 539 Z M 181 540 Q 182 546 179 549 L 179 558 L 177 560 L 180 565 L 180 564 L 181 564 L 180 566 L 181 570 Q 183 575 179 574 L 179 575 Q 185 576 184 574 Q 182 572 185 571 L 185 575 L 187 574 L 191 576 L 192 576 Q 189 575 190 571 L 188 567 L 189 564 L 192 571 L 193 571 L 191 557 L 190 561 L 188 557 L 190 557 L 190 555 Q 188 556 186 553 L 189 554 L 188 544 L 187 546 L 185 547 L 186 545 Q 184 540 183 543 L 183 542 Q 184 539 181 540 Z M 147 541 L 148 546 L 156 552 L 158 557 L 159 557 L 159 553 L 149 543 Q 150 540 147 541 Z M 307 541 Q 306 544 309 543 L 310 544 Q 311 539 307 541 Z M 315 545 L 314 547 L 319 548 L 323 547 L 325 548 L 327 548 L 333 547 L 334 546 L 317 545 L 315 545 Z M 55 549 L 43 555 L 42 557 L 45 556 Q 46 559 44 558 L 46 561 L 61 553 Q 60 548 55 549 Z M 60 555 L 57 558 L 120 594 L 128 594 L 128 592 L 60 555 Z M 53 560 L 52 564 L 55 564 L 71 574 L 79 577 L 95 587 L 107 593 L 112 594 Q 114 595 113 592 L 102 587 L 99 584 L 95 583 L 61 563 L 53 560 Z M 175 561 L 170 564 L 168 567 L 165 569 L 163 572 L 166 570 L 167 571 L 166 571 L 166 573 L 164 573 L 164 575 L 162 573 Q 163 569 159 571 L 157 574 L 159 575 L 157 575 L 156 572 L 150 573 L 148 573 L 139 577 Q 140 579 145 578 L 147 578 L 149 577 L 157 579 L 170 578 L 175 576 L 177 576 L 176 574 Q 175 571 179 572 L 176 569 L 179 567 L 177 563 Q 178 560 175 561 Z M 194 571 L 193 576 L 194 576 L 194 571 Z "></path><path d="M 143 14 L 177.5 14 L 178 15.5 Q 176.8 18.3 175.5 16 Q 170.1 14.1 171 17.5 L 165 30.5 L 173 31 L 172.5 34 L 158.5 34 L 156.5 34 L 150 33.5 Q 151.9 30.3 158 32 L 158 29.5 L 150.5 17 Q 144.5 18.5 143 15.5 L 143 14 Z M 162 16 L 157 17 Q 157 25 162 29 L 167 18 Q 168 15 164 16 L 162 16 Z "></path><path d="M 253.5 189 L 255 189.5 Q 253.6 192.6 248.5 192 L 248.5 191 L 253.5 189 Z "></path><path d="M 324.5 195 L 326 195.5 L 321 198 Q 321.8 201.8 318.5 203 L 310 208.5 Q 312.8 209.3 312 213.5 L 296 226.5 L 297.5 227 Q 300.3 223.3 306.5 223 L 308.5 224 Q 310.1 219.1 317.5 220 L 320.5 221 L 323.5 220 L 326 220.5 L 325 224.5 L 328 225.5 L 325 232 L 320 235.5 L 320.5 238 L 331 233 Q 332.1 235.7 329.5 235 L 316.5 242 L 313.5 242 L 314 240.5 L 318.5 233 L 323 231 L 324 226.5 L 321.5 228 Q 319.3 228.8 320 226.5 Q 322.7 225.4 322 222 L 315 225 Q 316.5 221.3 313.5 222 Q 310.6 226.6 303.5 227 L 301.5 226 L 293.5 231 L 288.5 232 Q 285.5 230.5 288.5 229 L 309 214.5 Q 309.8 212.3 307.5 213 L 306 213.5 Q 305.3 210.9 308 212 L 308 210 Q 305 211 306 208 L 315.5 202 L 318 202 Q 317.3 198.2 320.5 197 L 324.5 195 Z "></path><path d="M 250.5 210 L 251 214 L 244.5 215 L 245 213.5 Q 244.3 211.3 246.5 212 L 248.5 212 Q 251 212.7 250.5 210 Z "></path><path d="M 222 218 L 225 219.5 Q 225.8 223.3 223.5 224 Q 220.8 222.6 222 218 Z "></path><path d="M 204 245 Q 207.8 244 209 246.5 L 205.5 248 L 204 245 Z "></path><path d="M 205 249 L 209 249 L 209 250.5 Q 206.5 252 210 253.5 Q 210.8 256.1 207.5 255 L 206 255.5 Q 204.9 252.2 207.5 253 L 207.5 252 Q 203.3 253.1 205 249 Z "></path><path d="M 209 256 L 212 257.5 L 209 259 L 209 256 Z "></path><path d="M 267.5 354 L 270 358.5 L 267.5 360 L 269 357.5 L 267 355.5 L 267.5 354 Z "></path><path d="M 248.5 355 L 251 356.5 L 250.5 358 L 250 356 L 248.5 355 Z "></path><path d="M 221.5 377 Q 225.4 379.1 225 385.5 Q 223 389 221 384.5 L 219 379.5 L 221.5 377 Z "></path><path d="M 263 392 L 267 393.5 L 268 401.5 L 266 411.5 L 264.5 413 L 262 408.5 Q 265.3 404.8 264 396.5 L 263 392 Z "></path><path d="M 47.5 396 L 46.5 398 L 47.5 396 Z "></path><path d="M 49.5 396 L 50 397.5 L 47 399.5 L 49.5 396 Z "></path><path d="M 57.5 398 L 56 400.5 L 55.5 402 L 55 400.5 L 57.5 398 Z "></path><path d="M 76 401 Q 79 400 78 403 Q 75 404 76 401 Z "></path><path d="M 248.5 416 L 250 419.5 L 248.5 423 L 247 420.5 L 248.5 416 Z "></path><path d="M 125.5 422 L 128.5 423 L 132 422.5 Q 133.5 426.9 130.5 426 Q 129.3 423.8 124.5 425 L 123 423.5 L 125.5 422 Z "></path><path d="M 100.5 427 L 111 428.5 L 110 430.5 L 110 432.5 L 111 435.5 L 104.5 438 L 103 435 L 109 434 Q 110.4 430 103.5 432 L 102 432.5 L 101 430.5 L 102 428 L 100.5 427 Z "></path><path d="M 115.5 427 L 120.5 428 L 122 427.5 L 119.5 432 Q 117.3 431.3 118 433.5 L 117 433.5 Q 117.8 431.3 115.5 432 L 114 432.5 L 114.5 431 Q 112.3 431.8 113 429.5 L 115.5 427 Z "></path><path d="M 123.5 427 L 125.5 428 L 127 427.5 Q 125.8 430.3 124.5 428 L 123.5 427 Z "></path><path d="M 14.5 429 L 15.5 431 L 14.5 429 Z "></path><path d="M 9.5 430 Q 11.8 429.3 11 431.5 L 9 432.5 L 9.5 430 Z "></path><path d="M 122 430 L 124 430.5 L 122 431.5 L 122 430 Z "></path><path d="M 120 433 Q 123 432 122 435 Q 119 436 120 433 Z "></path><path d="M 114.5 435 L 118 436.5 Q 118.8 438.8 116.5 438 L 114.5 439 L 112 438.5 Q 110.9 435.2 113.5 436 L 114.5 435 Z "></path><path d="M 148.5 438 L 149 441.5 L 148 441.5 L 148.5 438 Z "></path><path d="M 86.5 442 Q 92.8 440.1 91 445 Q 86.4 446.3 85 443.5 L 86.5 442 Z "></path><path d="M 98 443 Q 103.2 441.3 102 445 Q 96.8 446.7 98 443 Z "></path><path d="M 108.5 444 L 119.5 444 L 120 446 L 109.5 446 L 108.5 444 Z "></path><path d="M 92.5 448 Q 96.9 446.5 96 449.5 L 92.5 451 Q 89.5 449.5 92.5 448 Z "></path><path d="M 152.5 448 Q 156.3 447.3 157 449.5 Q 157.8 452.1 154.5 451 L 152.5 451 Q 150.3 451.8 151 449.5 L 152.5 448 Z "></path><path d="M 86.5 449 L 89 450 Q 90.3 453 86.5 452 L 83.5 453 L 82 451.5 Q 81.1 448.5 85.5 450 L 86.5 449 Z "></path><path d="M 107.5 449 L 110 450 L 109.5 452 L 102 452 Q 100.7 448.3 106.5 450 L 107.5 449 Z "></path><path d="M 16 451 L 20 451 L 20 452.5 L 17.5 454 L 16 451 Z "></path><path d="M 25.5 451 L 27.5 451 L 29.5 452 Q 30.8 449.8 32 452.5 L 31.5 454 L 23 454 Q 21.9 451.3 24.5 452 L 25.5 451 Z "></path><path d="M 118.5 451 L 121 452 Q 122.1 454.7 119.5 454 L 116.5 455 L 114 453.5 Q 113.1 450.5 117.5 452 L 118.5 451 Z "></path><path d="M 158.5 452 L 162 454.5 L 157.5 456 L 155 455 Q 153.8 452 157.5 453 L 158.5 452 Z "></path><path d="M 85.5 455 L 86.5 456 L 93 456 Q 94.3 459 90.5 458 L 88.5 458 L 85.5 459 L 83 458 Q 81.9 455.3 84.5 456 L 85.5 455 Z "></path><path d="M 16.5 456 Q 21.3 454.7 20 458 L 16.5 459 Q 13.5 457.5 16.5 456 Z "></path><path d="M 161.5 456 L 162 458 Q 164.7 456.9 164 459.5 Q 162.8 462.3 161.5 460 L 159.5 461 L 155 460 Q 153.8 457 157.5 458 L 159.5 457 L 161 457.5 L 161.5 456 Z "></path><path d="M 99.5 457 L 102.5 458 L 111.5 457 L 115 458 Q 116.3 461 112.5 460 Q 111.2 457.7 106.5 459 L 105.5 460 L 99 460 L 99.5 457 Z "></path><path d="M 23 458 Q 26.8 457 28 459.5 L 28 461 L 23 461 L 23 458 Z "></path><path d="M 142 458 L 150.5 458 L 152 459.5 Q 150.3 461.8 145.5 461 L 143.5 461 Q 140.5 461.7 142 458 Z "></path><path d="M 324.5 460 L 326.5 460 L 332 461 L 330.5 465 L 329.5 464 L 322 464 Q 320.5 460.2 323.5 461 L 324.5 460 Z "></path><path d="M 75.5 461 L 76 465.5 L 75 465.5 L 75.5 461 Z "></path><path d="M 86.5 461 L 89 462 L 86.5 466 L 83 463.5 Q 82.2 460.9 85.5 462 L 86.5 461 Z "></path><path d="M 94.5 461 L 98 462.5 Q 96.8 465 93 464 L 94.5 461 Z "></path><path d="M 105 462 L 114.5 462 L 117 463.5 Q 113.9 465.9 107.5 465 L 105 464 L 105 462 Z "></path><path d="M 26.5 464 L 29 465 L 27.5 468 Q 23.8 469.3 25 465.5 L 26.5 464 Z "></path><path d="M 153.5 464 Q 157.9 462.5 157 465.5 L 155.5 468 L 152 466.5 L 153.5 464 Z "></path><path d="M 14.5 465 L 24 465.5 L 20.5 467 L 18.5 467 Q 13.9 467.8 14.5 465 Z "></path><path d="M 314.5 466 Q 320.4 464.3 319 468 Q 314.3 469 314.5 466 Z "></path><path d="M 91.5 467 L 98 468 Q 99.1 470.7 96.5 470 L 94.5 471 L 92.5 471 L 90 468.5 L 91.5 467 Z "></path><path d="M 228 467 L 238 471 Q 239.5 474.7 236.5 474 L 234.5 474 L 232 472.5 L 232 471 L 228 471 L 228 467 Z "></path><path d="M 306.5 467 L 309.5 468 Q 312.8 466.9 312 469.5 Q 311.3 471.8 307.5 471 L 305 470 L 306.5 467 Z "></path><path d="M 19.5 468 L 20 470 L 17 469.5 L 19.5 468 Z "></path><path d="M 22.5 468 L 23.5 470 L 21 469.5 L 22.5 468 Z "></path><path d="M 107.5 468 L 112 469 Q 113.1 471.7 110.5 471 L 108.5 472 L 105 471 Q 103.9 468.3 106.5 469 L 107.5 468 Z "></path><path d="M 82.5 469 L 85 470.5 L 83.5 473 L 80 471.5 Q 79.3 469.3 81.5 470 L 82.5 469 Z "></path><path d="M 318 470 Q 322.6 468.8 324 471.5 L 322.5 474 L 320.5 474 L 318 472.5 L 318 470 Z "></path><path d="M 14.5 471 Q 21.5 469.5 21 472.5 L 18.5 474 L 13 472.5 L 14.5 471 Z "></path><path d="M 24 471 Q 28.1 469.7 27 473 Q 22.9 474.3 24 471 Z "></path><path d="M 155.5 472 L 157.5 472 Q 160.8 470.9 160 473.5 Q 158.6 476.3 154 475 L 155.5 472 Z "></path><path d="M 163.5 472 L 164 474 L 162 473.5 L 163.5 472 Z "></path><path d="M 223 472 L 228 472 L 228 474.5 L 226.5 474 Q 221.7 475.3 223 472 Z "></path><path d="M 302 472 L 307.5 472 L 308 473.5 Q 307.3 475.8 303.5 475 L 302 472 Z "></path><path d="M 151.5 473 L 152.5 475 Q 149.7 475.7 151.5 473 Z "></path><path d="M 12.5 474 L 13.5 476 Q 10.7 476.7 12.5 474 Z "></path><path d="M 90.5 474 Q 97.8 471.8 96 477 L 89.5 477 L 89 475.5 L 90.5 474 Z "></path><path d="M 221.5 474 L 223 477 Q 219.2 478.5 220 475.5 L 221.5 474 Z "></path><path d="M 324 476 L 332 476 L 332 479 L 324 479 L 324 476 Z "></path><path d="M 75.5 477 L 79 478.5 L 77.5 482 L 73 479.5 Q 72.3 477.3 74.5 478 L 75.5 477 Z "></path><path d="M 230.5 477 Q 232.8 476.3 232 478.5 L 230.5 477 Z "></path><path d="M 233.5 477 Q 239.3 475.3 238 479 Q 233.3 480 233.5 477 Z "></path><path d="M 310 477 L 316.5 477 L 317 478.5 Q 315.4 481.5 310 480 L 310 477 Z "></path><path d="M 157 478 L 162 478 L 162 480 L 157 480 L 157 478 Z "></path><path d="M 16 479 L 25.5 479 L 27 480.5 Q 27.8 482.8 25.5 482 L 23.5 483 L 20.5 482 L 15.5 483 L 13.5 480 L 16 481 L 16 479 Z "></path><path d="M 261.5 479 L 262 484 Q 259.3 485.1 260 482.5 L 261.5 479 Z "></path><path d="M 89.5 480 Q 94 479 95 481.5 L 97 484.5 L 94.5 483 L 93.5 484 L 90.5 483 L 88.5 483 Q 85.9 483.7 87 481 L 89.5 480 Z "></path><path d="M 202.5 507 Q 204.8 506.3 204 508.5 L 202.5 507 Z "></path><path d="M 205.5 508 L 206 511.5 L 204 510.5 L 205.5 508 Z "></path><path d="M 209.5 508 Q 213.3 507 212 510 L 209.5 508 Z "></path><path d="M 199.5 510 L 199 511.5 Q 199.7 514.1 197 513 Q 195.9 510.3 198.5 511 L 199.5 510 Z "></path><path d="M 280.5 518 L 283 518.5 Q 280.9 521.8 280.5 518 Z "></path><path d="M 286 518 L 290 519 L 288.5 523 L 289 521.5 L 287.5 519 L 286.5 521 L 286 518 Z "></path><path d="M 292.5 519 L 295 519.5 L 293.5 525 L 293 523 L 291 522.5 L 292.5 519 Z "></path><path d="M 295.5 522 L 298 522.5 L 295.5 523 L 295.5 522 Z "></path><path d="M 286.5 543 L 285.5 545 L 286.5 543 Z "></path><path d="M 342.5 546 L 341.5 548 L 342.5 546 Z "></path><path d="M 341.5 549 Q 343.8 548.3 343 550.5 L 341.5 554 L 341 551.5 L 341.5 549 Z "></path><path d="M 317.5 552 Q 320.8 550.9 320 553.5 L 317.5 555 Q 314.5 553.5 317.5 552 Z "></path><path d="M 180.5 555 L 182 557.5 L 181 559.5 L 183 559.5 L 181.5 562 L 179 561.5 L 180.5 555 Z "></path><path d="M 342.5 555 L 344 559.5 L 342 560.5 L 342.5 555 Z "></path><path d="M 18.5 561 L 17.5 563 L 18.5 561 Z "></path><path d="M 300.5 563 L 301 566.5 L 299.5 569 L 299 567.5 L 300.5 563 Z "></path><path d="M 184.5 564 L 185 566 L 187 566.5 L 185 567.5 L 184.5 564 Z "></path><path d="M 342.5 564 L 343.5 566 L 341.5 566 L 339 565.5 L 342.5 564 Z "></path><path d="M 171.5 566 L 174 566.5 Q 174.7 569.5 171 568 L 171.5 566 Z "></path><path d="M 169.5 568 L 170 569.5 L 170 571.5 L 170.5 573 L 173 572 L 173 574 Q 170.3 572.9 171 575.5 L 169 574.5 L 168 569.5 L 169.5 568 Z "></path><path d="M 167.5 574 L 168 576.5 L 167 576.5 L 167.5 574 Z "></path><path d="M 340.5 591 L 341 594.5 L 340 594.5 L 340.5 591 Z "></path></svg>