<svg width="350" height="600" version="1.1" xmlns="http://www.w3.org/2000/svg" desc="Created with imagetracer.js version 1.2.5"><path d="M 247.5 3 L 255.5 4 L 258.5 3 L 263.5 4 L 268.5 3 L 269.5 4 L 278.5 4 L 279.5 3 L 314.5 3 L 317.5 4 L 319.5 3 L 321.5 3 L 334.5 3 L 335 4.5 L 336 7.5 L 336 9.5 L 335 17.5 Q 337.5 19 336 24.5 L 336 26.5 L 336 69.5 L 335 73.5 L 336 74.5 L 336 111.5 L 336 113.5 L 335 117.5 L 336 118.5 L 336 226.5 L 337 228.5 L 336 233.5 L 337 235.5 L 336 237.5 L 337 239.5 L 337 241.5 Q 334.7 244.7 336 251.5 L 337 252.5 L 337 261.5 L 336 263.5 L 337 267.5 L 336 270.5 L 337 271.5 L 337 279.5 L 336 283.5 L 337 284.5 L 337 330.5 L 338 332.5 L 337 333.5 L 337 352.5 L 338 355.5 L 337 356.5 L 337 418.5 L 336 419.5 L 337 420.5 L 337 470.5 L 338 473.5 L 337 476.5 L 338 477.5 L 338 554.5 L 339 555.5 Q 336.3 557.3 338 563.5 L 339 565.5 L 338 568.5 L 338 592.5 L 336.5 594 L 286.5 594 L 281.5 593 L 279.5 593 L 192.5 593 L 191.5 594 L 188.5 593 L 187.5 594 L 51.5 594 L 49.5 594 L 24.5 594 L 23.5 593 L 22.5 594 L 5.5 594 L 4 592.5 L 4 509.5 L 4 507.5 L 4 412.5 L 5 410.5 L 4 409.5 L 4 394.5 L 5 393.5 L 5 328.5 L 5 326.5 L 4 322.5 L 4 320.5 L 5 317.5 L 5 295.5 L 4 293.5 L 5 289.5 L 5 287.5 L 4 265.5 L 5 262.5 L 4 258.5 L 5 256.5 L 4 254.5 L 5 250.5 L 5 248.5 L 4 239.5 L 5 238.5 L 5 121.5 L 6 120.5 L 5 118.5 L 6 117.5 L 6 105.5 L 5 104.5 L 5 89.5 L 5 87.5 L 6 81.5 L 5 80.5 L 5 60.5 Q 7.3 59.3 6 54.5 L 5 51.5 L 6 50.5 L 6 40.5 L 5 38.5 L 6 37.5 L 6 28.5 L 5 24.5 L 6 19.5 L 5 17.5 Q 7.5 16 6 10.5 L 5 7.5 L 6.5 6 L 74.5 6 L 76.5 6 L 80.5 7 Q 81.8 4.7 86.5 6 L 88.5 6 L 100.5 6 L 101.5 7 L 102.5 6 L 127.5 6 L 131.5 7 L 134.5 6 L 136.5 6 L 159.5 6 L 161.5 5 L 164.5 6 L 168.5 5 L 170.5 6 L 172.5 5 L 174.5 6 L 175.5 5 L 218.5 5 L 223.5 4 Q 224.8 6.3 229.5 5 L 230.5 4 L 246.5 4 L 247.5 3 Z M 239 6 L 238 7 L 225 7 L 223 7 L 209 7 L 208 8 Q 203 9 202 7 Q 195 5 194 8 L 192 7 L 190 8 L 166 8 L 165 9 L 162 8 L 160 9 L 157 8 L 153 9 L 123 9 L 122 8 L 120 9 L 116 8 L 115 9 L 103 9 L 101 9 L 98 10 L 97 9 L 82 9 L 80 9 L 78 8 L 76 9 L 74 8 L 66 9 L 64 9 L 61 8 L 59 9 L 11 9 L 9 17 L 9 55 L 8 58 L 9 60 L 9 73 L 9 75 L 9 102 L 8 103 L 8 116 L 9 117 L 8 119 L 9 130 L 9 132 L 8 134 Q 11 135 9 142 L 8 145 L 9 148 L 8 151 L 9 153 L 8 155 L 8 175 L 9 176 L 9 187 L 8 188 L 8 216 L 9 217 Q 10 226 8 230 L 12 230 L 22 226 L 23 226 L 23 222 Q 18 223 17 219 L 18 217 Q 20 211 17 210 Q 16 204 20 203 L 25 203 L 25 205 L 27 205 L 31 201 L 31 197 L 35 194 L 40 196 L 44 202 L 47 201 Q 50 202 49 206 L 52 207 L 53 213 L 52 217 Q 51 219 46 218 L 45 225 L 46 227 L 52 226 L 56 227 L 58 224 Q 62 223 63 226 L 64 220 L 64 211 L 63 210 L 65 193 L 68 188 L 71 176 L 74 172 L 75 163 L 75 161 L 77 153 L 80 151 L 82 151 L 85 150 L 86 139 L 88 134 L 83 113 L 81 110 L 76 85 L 73 78 L 74 71 Q 76 67 83 68 L 87 76 L 87 81 Q 91 87 91 97 L 94 103 L 96 114 L 98 118 Q 97 122 102 120 L 108 134 L 107 138 L 108 145 L 103 148 L 105 158 L 105 160 L 113 188 L 112 190 L 114 192 L 115 200 L 119 213 L 122 212 L 124 213 Q 126 214 125 211 L 132 214 L 134 214 L 138 215 Q 141 216 140 220 L 144 221 Q 148 224 146 232 L 164 232 L 165 231 L 170 232 L 184 227 L 188 228 L 188 223 L 187 223 Q 184 222 185 217 Q 187 211 193 212 L 195 218 Q 196 223 192 225 L 196 226 Q 197 223 199 225 L 199 215 L 198 214 L 199 208 L 198 208 L 194 206 L 196 203 L 198 206 L 198 205 L 202 203 L 204 203 L 206 207 L 208 202 L 208 204 L 208 206 L 211 207 L 213 204 L 215 210 L 217 209 Q 219 210 218 208 L 221 206 Q 222 201 220 198 L 217 200 L 212 191 L 210 192 Q 207 191 208 196 L 205 198 L 204 197 L 198 192 Q 199 198 195 200 Q 196 203 193 202 L 193 198 L 199 189 L 205 193 Q 208 194 206 190 L 211 188 L 214 189 L 217 195 L 221 196 L 223 199 Q 222 203 224 205 L 221 209 L 222 212 L 222 210 L 227 206 L 230 208 L 227 220 Q 237 219 242 213 L 240 210 L 242 205 L 245 204 L 248 206 L 249 203 Q 250 199 256 200 L 260 202 Q 262 201 261 204 L 265 203 L 269 204 L 272 210 L 271 219 L 273 220 L 272 218 Q 274 210 273 200 L 275 193 L 273 190 L 274 183 L 281 179 L 286 184 Q 288 190 285 192 L 287 200 L 287 214 Q 287 214 292 214 L 293 213 L 294 196 L 296 189 L 295 175 L 300 171 L 304 172 L 308 178 L 307 183 L 307 194 L 308 195 L 309 212 L 318 213 L 318 203 L 320 194 L 316 188 L 317 184 Q 319 178 328 179 L 331 184 Q 332 189 329 191 Q 328 195 331 197 L 332 220 L 333 220 L 333 169 L 332 168 L 332 157 L 333 156 Q 334 151 332 150 L 333 146 L 332 145 L 332 95 L 331 94 L 332 92 L 332 9 L 331 7 L 329 8 L 325 6 L 322 7 L 317 6 L 314 7 L 312 6 L 300 6 L 298 6 L 264 6 L 263 7 L 262 6 L 252 6 L 250 6 L 246 7 Q 240 9 239 6 Z M 100 122 L 98 125 L 101 126 L 100 122 Z M 95 128 L 92 131 Q 93 133 90 132 L 89 139 L 90 141 L 87 151 Q 88 153 85 152 Q 83 156 88 155 Q 92 158 94 165 L 95 165 L 95 159 L 93 152 L 95 148 Q 93 146 96 145 L 96 141 L 93 135 L 99 130 Q 100 126 95 128 Z M 103 129 L 101 133 L 102 137 L 104 132 L 103 129 Z M 104 136 L 105 141 L 106 139 Q 107 135 104 136 Z M 80 153 L 79 157 Q 81 160 82 157 Q 83 152 80 153 Z M 84 157 L 82 163 L 85 164 L 87 163 L 89 164 L 91 170 L 93 171 L 89 161 L 84 157 Z M 83 167 L 82 170 L 83 170 L 83 167 Z M 87 167 Q 87 171 84 170 L 84 172 Q 85 175 81 173 Q 77 176 77 182 L 74 183 L 75 181 L 74 180 L 67 195 L 67 203 L 66 204 L 68 204 Q 69 201 71 206 Q 67 209 67 216 L 70 217 L 68 220 L 71 220 L 68 225 L 70 225 L 70 228 L 67 232 Q 64 231 65 235 L 69 232 L 72 234 L 70 235 L 66 240 Q 65 244 68 243 L 66 247 L 68 257 L 69 255 L 74 250 L 76 252 Q 81 250 80 244 L 93 242 L 85 240 L 79 243 L 78 240 L 86 237 L 88 237 L 94 237 L 89 235 L 87 233 Q 88 230 90 232 Q 92 233 91 231 L 89 229 Q 87 231 86 229 L 86 226 Q 90 227 89 225 L 87 224 Q 84 225 85 222 L 89 220 Q 88 217 87 219 L 84 218 Q 83 215 86 216 L 87 214 L 85 214 L 85 210 L 87 210 L 83 202 L 86 202 L 82 199 Q 81 195 85 196 L 83 194 L 85 192 L 88 193 Q 89 190 87 191 Q 83 190 84 186 L 89 188 L 89 187 L 86 185 L 85 183 Q 86 180 88 182 L 89 182 L 87 178 L 83 177 Q 81 173 86 174 L 90 178 L 91 177 L 90 175 Q 91 172 88 173 L 87 167 Z M 93 171 Q 92 174 95 173 L 96 173 L 96 176 L 93 181 L 93 187 L 89 203 L 92 224 L 96 232 L 98 231 L 100 231 Q 99 228 102 229 L 106 223 Q 105 220 108 221 L 106 207 L 101 193 L 99 179 L 97 175 Q 99 169 93 171 Z M 107 171 Q 105 174 108 173 L 107 171 Z M 76 173 L 74 177 L 76 176 L 76 173 Z M 302 174 L 298 175 L 297 178 L 299 183 Q 304 184 305 181 L 304 176 L 302 174 Z M 106 179 L 103 181 L 106 181 L 108 181 Q 109 178 106 179 Z M 109 181 L 108 184 L 104 186 L 109 186 L 109 181 Z M 324 181 L 320 184 L 320 190 L 327 190 L 328 185 L 326 185 L 327 183 Q 325 184 324 181 Z M 279 182 L 276 185 L 277 190 Q 278 192 282 191 Q 284 189 283 184 Q 282 181 279 182 Z M 299 185 Q 297 188 298 195 L 298 197 L 297 198 L 296 214 L 306 213 L 305 211 L 305 195 L 304 194 L 304 185 L 299 185 Z M 108 192 L 109 194 Q 110 191 108 192 Z M 324 192 L 321 199 L 322 202 L 321 203 L 320 214 L 320 216 L 321 220 Q 320 222 325 221 L 329 221 L 330 220 L 328 213 L 329 210 L 327 196 L 324 192 Z M 279 193 L 276 201 L 276 210 L 275 211 L 276 220 L 276 215 L 281 214 L 283 214 L 283 194 L 279 193 Z M 33 196 Q 31 198 32 204 L 27 208 Q 28 212 26 211 L 23 208 L 24 206 L 20 205 L 19 208 Q 18 212 21 213 L 19 218 L 21 220 L 28 216 Q 27 212 31 214 L 31 212 L 34 213 L 38 211 L 39 211 L 39 213 L 43 213 L 43 215 L 43 216 L 45 215 L 47 216 L 49 216 L 50 216 L 50 209 L 49 209 L 46 208 L 47 206 L 46 203 L 44 206 L 41 205 L 40 198 L 37 198 L 33 196 Z M 110 197 L 112 199 Q 113 196 110 197 Z M 253 202 L 250 208 L 251 211 L 254 209 L 258 210 L 257 209 L 258 206 L 257 206 L 254 205 Q 255 201 253 202 Z M 113 203 Q 110 207 114 206 L 113 203 Z M 265 206 L 261 209 L 262 212 L 267 214 L 269 211 L 268 209 L 265 206 Z M 244 207 L 242 210 L 246 212 L 246 209 L 244 207 Z M 203 208 L 202 223 L 205 222 Q 207 223 206 221 L 206 219 L 207 216 L 206 214 L 207 211 L 203 208 Z M 226 209 L 225 212 L 226 213 L 228 212 Q 229 208 226 209 Z M 209 210 L 209 219 L 211 218 L 211 211 L 209 210 Z M 221 212 L 221 215 L 220 219 L 224 220 L 223 217 L 224 214 L 221 212 Z M 218 213 L 217 216 L 218 216 L 218 213 Z M 257 213 L 255 215 L 256 217 L 259 218 L 260 215 L 257 213 Z M 120 214 L 120 216 L 124 217 L 125 217 L 120 214 Z M 191 214 L 189 217 Q 190 219 187 218 L 189 221 L 192 220 L 191 214 Z M 248 214 L 249 216 Q 250 213 248 214 Z M 243 215 L 236 220 L 226 222 L 229 228 L 229 235 L 240 235 L 240 238 L 238 238 L 234 237 L 232 238 L 227 237 L 229 240 L 233 239 L 233 241 L 228 241 L 229 244 L 229 255 L 230 256 L 229 260 L 236 259 Q 242 258 245 260 L 246 267 L 235 269 L 233 268 L 231 270 L 231 281 L 230 282 L 231 284 L 231 362 Q 237 361 240 364 L 247 375 L 250 387 L 246 398 L 249 410 L 250 422 L 254 430 L 260 427 L 260 410 L 259 409 L 260 407 L 259 406 L 259 351 L 258 350 L 258 284 L 257 283 L 258 281 L 257 277 L 258 274 L 258 272 L 257 260 L 255 257 L 255 248 L 252 249 L 250 249 L 246 248 L 244 248 L 242 249 L 239 247 Q 240 242 238 241 L 242 238 L 256 238 L 256 236 L 249 236 L 248 237 Q 241 238 242 236 L 244 234 L 257 234 Q 258 231 255 232 Q 253 229 254 222 L 259 221 L 257 219 Q 249 217 251 222 Q 248 223 249 221 L 246 219 L 243 215 Z M 298 215 L 297 216 L 284 216 L 282 216 Q 278 215 277 218 L 278 222 L 283 221 L 296 221 L 298 222 L 300 222 L 309 220 L 318 220 Q 319 216 316 215 L 313 216 L 308 215 L 305 216 L 298 215 Z M 34 216 Q 31 217 32 222 L 34 221 L 34 216 Z M 39 216 Q 36 217 37 222 L 40 223 L 42 225 L 42 218 L 40 218 Q 41 215 39 216 Z M 262 216 L 262 221 L 266 221 L 268 221 L 268 217 L 262 216 Z M 115 217 L 111 220 L 112 221 L 116 218 L 115 217 Z M 28 218 L 25 222 L 27 222 L 28 224 L 29 222 L 28 218 Z M 124 220 L 121 224 L 124 222 L 124 220 Z M 272 222 L 271 223 L 257 223 L 257 230 L 267 230 L 268 229 L 270 230 L 272 229 L 285 229 L 286 228 L 287 229 L 295 229 L 295 224 L 286 224 L 282 224 Q 275 225 272 222 Z M 319 222 L 312 224 Q 310 222 305 223 Q 302 224 303 229 L 314 229 L 315 228 L 319 229 L 322 228 L 333 228 L 333 223 L 332 223 L 319 222 Z M 207 223 L 195 229 L 190 230 L 188 230 L 182 231 L 188 233 Q 190 232 189 235 L 193 236 L 212 236 L 212 238 L 210 242 L 208 241 L 206 241 L 203 242 Q 202 239 206 240 L 208 240 L 208 238 L 204 239 L 202 239 L 199 238 Q 196 239 198 241 L 193 241 L 192 240 L 187 245 L 190 253 L 191 269 L 198 269 L 199 268 L 198 263 L 202 260 Q 205 262 212 261 L 213 260 L 213 251 L 215 243 L 215 238 L 210 232 Q 209 225 213 224 L 207 223 Z M 33 224 L 13 232 L 8 232 Q 7 237 10 238 L 11 237 L 21 237 L 21 239 L 8 239 L 8 244 L 11 245 L 13 244 L 15 244 L 25 244 L 26 246 L 13 246 L 12 247 L 8 246 L 8 275 L 7 276 L 8 277 L 8 477 L 8 479 L 7 483 L 7 507 L 8 509 Q 6 510 9 511 L 44 497 L 43 492 L 46 490 L 44 488 L 46 481 L 52 476 L 58 465 L 67 458 L 69 446 L 69 437 L 67 429 L 65 426 Q 60 427 59 425 L 55 426 Q 52 423 46 424 Q 41 422 42 415 L 39 412 L 41 405 L 41 388 L 42 387 L 42 379 L 44 372 L 44 367 L 47 358 L 52 351 Q 51 346 54 345 L 53 342 L 53 336 L 60 310 L 60 302 L 64 279 L 64 277 L 64 267 L 65 266 L 63 254 L 61 250 L 62 230 L 58 229 L 56 230 L 53 229 L 50 230 L 46 230 L 37 224 L 33 224 Z M 216 224 L 213 228 Q 212 234 216 235 Q 215 237 219 236 L 220 236 Q 221 239 218 238 L 216 247 L 216 253 L 216 255 L 215 259 L 217 261 Q 218 259 224 260 L 223 259 L 224 257 L 224 259 L 226 260 L 226 246 L 225 245 L 226 243 L 223 237 Q 222 233 225 234 L 226 228 Q 224 222 216 224 Z M 300 224 Q 297 225 298 230 L 295 233 L 301 234 L 303 234 L 309 234 L 309 231 L 302 232 L 300 231 L 300 224 Z M 66 225 L 67 228 L 68 226 L 66 225 Z M 108 225 L 107 228 L 108 228 L 108 225 Z M 107 228 L 106 231 L 107 231 L 107 228 Z M 264 231 L 261 232 L 264 238 L 270 237 L 269 232 L 264 231 Z M 276 231 L 275 235 L 277 237 L 285 237 Q 283 243 288 241 L 288 231 L 285 231 L 282 232 L 276 231 Z M 292 231 L 291 243 Q 288 243 289 248 L 290 251 L 289 254 L 289 365 L 290 366 L 289 369 Q 288 374 290 376 Q 291 380 289 382 L 290 385 L 289 389 L 290 392 L 290 409 L 289 410 L 290 413 L 289 417 L 295 415 L 295 383 L 294 382 L 295 380 L 294 369 L 294 367 L 295 363 L 294 361 L 294 346 L 293 345 L 293 323 L 292 322 L 292 310 L 293 309 L 292 306 L 293 304 L 292 302 L 292 240 L 293 239 L 292 231 Z M 312 231 L 311 237 L 309 239 L 309 264 L 308 265 L 309 267 L 308 268 L 308 328 L 307 329 L 308 330 L 308 345 L 308 347 L 308 355 L 307 356 L 308 410 L 316 406 L 316 395 L 317 394 L 316 391 L 316 368 L 317 367 L 317 355 L 316 354 L 317 340 L 317 338 L 316 335 L 316 314 L 317 312 L 317 310 L 316 307 L 316 289 L 317 288 L 317 241 L 315 235 Q 317 229 312 231 Z M 318 231 L 319 239 L 327 239 L 328 238 L 331 240 L 332 237 L 332 235 L 332 231 L 318 231 Z M 176 232 L 172 233 L 170 233 L 153 234 L 152 235 L 144 234 L 146 237 L 170 237 L 171 236 L 175 237 L 177 234 Q 178 231 176 232 Z M 181 233 Q 177 234 178 241 L 183 245 Q 182 247 181 245 L 177 261 L 177 269 L 179 270 L 188 269 Q 189 265 186 264 L 188 264 Q 185 260 187 252 L 184 246 L 184 244 L 188 240 L 187 236 Q 186 232 181 233 Z M 97 237 L 100 246 Q 104 247 105 252 Q 107 251 106 246 L 104 247 Q 100 245 102 239 Q 101 236 97 237 Z M 147 238 L 146 240 L 149 240 L 147 238 Z M 172 238 L 171 239 L 151 240 L 152 242 L 148 243 L 145 242 L 144 245 L 146 246 Q 151 245 154 248 L 152 249 L 144 248 L 140 248 L 142 253 L 141 252 L 139 252 L 139 256 L 136 254 L 131 254 L 131 252 L 130 256 L 134 259 Q 133 261 137 260 Q 140 262 139 267 L 144 269 L 151 279 L 156 295 L 155 300 Q 156 302 152 301 L 153 304 L 152 305 L 152 316 L 151 317 L 151 328 L 150 329 L 151 342 L 165 395 L 176 400 Q 178 401 177 399 L 177 397 L 177 359 L 176 358 L 177 350 L 177 348 L 176 345 L 176 283 L 177 282 L 176 278 L 169 278 L 168 279 Q 163 280 162 278 L 159 279 L 157 272 Q 164 268 175 269 L 175 258 L 178 246 L 175 241 Q 176 236 172 238 Z M 194 238 L 194 239 L 196 239 L 194 238 Z M 248 239 L 241 240 L 242 247 L 244 246 L 247 247 L 248 246 L 265 246 L 266 245 L 276 245 L 276 243 Q 273 244 274 242 Q 273 239 272 241 L 270 240 L 265 241 L 263 240 L 260 241 L 256 240 L 253 241 L 248 239 Z M 277 239 L 277 241 L 283 241 L 277 239 Z M 295 239 L 295 283 L 296 284 L 295 287 L 295 303 L 295 305 L 296 311 L 295 314 L 296 317 L 295 319 L 295 321 L 296 322 L 296 362 L 296 364 Q 295 368 297 370 L 296 372 L 297 376 L 297 414 L 298 415 L 298 455 L 299 456 Q 300 460 298 462 L 298 471 L 299 472 L 298 474 Q 297 478 300 479 L 300 452 L 300 450 L 300 355 L 299 354 L 300 352 Q 302 346 299 345 L 300 341 L 299 339 L 300 336 L 299 335 L 299 321 L 299 319 L 299 299 L 300 298 Q 298 296 299 291 L 299 289 L 300 266 L 300 264 Q 299 259 301 258 L 300 241 Q 299 238 295 239 Z M 303 239 L 303 242 L 303 252 L 302 253 L 303 258 Q 305 264 302 266 L 302 367 L 303 369 L 303 371 L 302 375 L 303 380 L 304 477 L 304 418 L 305 417 L 304 415 Q 303 410 305 409 L 304 407 L 305 404 L 305 402 Q 307 396 304 395 L 305 391 L 305 389 Q 307 382 304 381 L 305 379 L 305 377 L 304 375 L 305 374 L 305 278 L 305 276 L 306 275 L 306 240 L 305 240 L 303 239 Z M 332 242 L 332 265 L 332 267 L 332 281 L 331 282 L 332 286 L 331 288 L 331 387 L 330 388 L 330 399 L 332 400 L 334 399 L 334 310 L 333 309 Q 332 303 334 302 L 334 262 L 333 261 L 334 258 L 333 256 L 334 247 L 334 245 Q 335 241 332 242 Z M 283 244 L 283 255 L 283 257 L 283 316 L 284 317 L 283 321 L 283 323 L 284 325 L 283 328 L 284 331 Q 286 337 283 339 L 284 340 L 284 376 L 285 377 L 285 445 L 285 447 L 286 450 L 285 452 Q 284 456 286 458 L 285 460 L 286 465 L 285 468 L 287 470 L 287 438 L 288 437 L 287 436 L 287 390 L 286 389 L 287 386 L 287 384 L 287 344 L 286 343 L 287 341 L 287 339 L 286 337 L 287 335 L 287 333 L 286 324 L 286 320 L 287 318 L 286 315 L 286 313 L 286 287 L 287 286 Q 285 284 286 279 L 286 277 L 287 271 L 286 268 L 287 266 L 286 264 Q 285 258 287 257 L 286 255 L 287 254 L 287 246 L 283 244 Z M 319 244 L 319 411 L 319 413 L 319 423 L 318 424 L 319 428 L 319 437 L 318 438 L 319 444 L 319 446 L 319 463 L 318 464 L 320 471 L 322 469 L 322 396 L 323 394 L 323 392 L 322 390 L 323 386 L 322 384 Q 320 377 323 376 L 322 374 L 323 370 L 322 368 L 323 365 L 322 361 L 323 359 L 323 357 L 322 354 Q 320 347 323 346 Q 320 344 322 338 L 322 336 L 322 327 L 323 326 L 322 322 L 322 320 Q 320 313 323 312 L 323 245 L 319 244 Z M 326 244 L 326 255 L 326 257 L 326 267 L 325 268 L 326 270 Q 328 275 325 277 L 326 279 L 325 280 L 325 295 L 325 297 L 326 306 L 326 308 L 325 311 L 325 320 L 326 321 L 325 329 L 325 331 L 325 349 L 326 350 L 325 353 L 325 355 Q 324 360 326 362 L 325 364 L 325 387 L 325 389 L 326 391 Q 324 394 325 402 L 325 404 L 325 447 L 326 448 L 325 451 L 326 467 Q 328 466 327 462 L 327 460 L 328 455 L 327 450 L 328 449 L 328 420 L 329 419 L 328 415 L 329 414 L 329 384 L 329 382 L 329 367 L 328 366 L 329 361 L 328 357 L 329 355 L 329 346 L 328 345 L 329 338 L 328 335 L 329 328 L 329 326 L 328 309 L 328 307 L 329 305 L 328 303 L 329 301 L 329 299 Q 330 294 328 293 L 329 290 L 329 245 L 326 244 Z M 90 245 L 82 249 L 80 253 Q 79 255 83 254 L 83 258 L 80 257 L 75 262 L 76 263 L 73 265 Q 70 266 72 268 L 70 275 Q 66 276 67 274 L 66 274 L 67 277 L 63 300 L 63 307 L 58 325 L 58 330 L 56 334 L 57 343 L 57 341 L 63 342 L 67 346 L 68 345 L 71 346 Q 73 345 71 344 L 72 342 L 72 344 L 73 346 Q 75 347 74 344 L 84 348 L 86 348 L 90 351 L 92 350 L 94 351 L 97 350 L 92 347 L 93 344 Q 94 341 92 342 L 90 343 L 91 341 L 95 339 L 94 336 L 96 335 L 96 334 Q 93 335 94 333 L 96 329 L 95 333 L 100 336 L 102 335 L 101 337 L 103 337 L 104 341 Q 102 342 105 343 L 107 337 L 107 334 L 106 336 L 104 336 L 103 335 L 103 332 L 100 334 Q 101 332 97 330 L 99 327 Q 100 324 97 325 L 97 328 L 96 324 L 100 325 L 105 312 L 103 311 L 102 315 L 100 314 L 107 296 L 112 291 L 110 288 L 111 285 L 113 289 L 117 286 Q 119 285 118 289 L 120 289 L 119 293 L 114 294 L 115 296 L 114 295 L 113 297 L 116 298 L 118 294 L 121 293 Q 120 290 123 291 Q 124 289 125 292 Q 125 296 122 298 L 120 295 L 118 298 Q 115 297 116 301 Q 112 302 115 304 L 113 304 L 115 308 L 115 310 L 112 309 L 114 308 L 113 305 L 111 308 L 112 311 L 110 311 L 108 317 Q 107 320 110 319 L 111 317 Q 114 315 112 314 L 114 311 L 113 313 L 114 314 L 117 311 L 116 310 L 117 308 L 116 305 L 120 303 L 121 301 L 123 300 L 122 302 L 123 305 L 125 304 L 124 301 L 125 299 Q 128 297 126 296 L 126 292 Q 129 293 128 290 L 131 290 L 130 289 L 132 289 L 133 285 L 136 286 Q 139 287 138 284 L 141 282 L 143 284 L 141 278 L 144 279 Q 149 278 147 282 Q 150 283 149 280 Q 147 275 146 278 Q 143 277 145 276 L 144 275 L 142 272 L 134 265 L 132 268 L 129 270 L 132 270 L 134 267 L 135 270 L 132 272 L 132 274 Q 133 277 131 278 L 131 277 L 131 273 L 126 282 L 123 281 L 124 278 L 123 277 Q 121 279 120 277 L 122 272 L 122 270 L 119 274 L 117 275 L 114 271 L 116 270 L 117 267 L 114 266 L 113 268 L 112 265 L 115 266 L 118 265 L 118 267 L 124 265 Q 125 268 127 264 Q 130 265 129 263 L 133 261 L 130 259 L 128 259 L 123 257 L 115 259 L 106 259 L 105 258 Q 100 257 101 260 L 99 260 L 100 258 L 94 254 L 96 251 L 99 252 L 100 248 L 90 245 Z M 111 248 L 108 249 L 105 254 L 102 253 L 100 254 L 108 257 Q 110 256 108 255 L 110 255 L 112 252 L 112 254 L 111 256 L 116 255 L 118 256 L 127 255 L 127 250 L 125 250 L 124 254 L 122 252 L 121 253 Q 118 254 119 252 L 117 253 L 116 251 Q 114 246 113 249 L 111 248 Z M 260 248 L 257 254 L 258 258 L 262 259 L 260 259 L 261 262 L 260 264 L 260 281 L 260 283 L 261 296 L 261 298 L 260 304 L 260 306 L 261 308 L 261 394 L 262 395 L 262 420 L 263 421 Q 265 426 262 428 L 262 446 L 263 447 L 262 449 L 264 454 L 265 449 L 264 448 L 264 390 L 264 388 Q 265 383 263 382 L 263 362 L 264 361 L 263 359 L 263 263 L 262 262 Q 264 259 271 260 L 272 259 L 271 257 L 272 249 Q 276 247 275 251 L 276 251 L 276 248 L 260 248 Z M 280 248 L 278 250 L 279 253 L 279 255 L 279 264 L 278 265 L 279 268 L 279 335 L 280 337 L 280 339 L 279 343 L 280 346 L 280 392 L 280 394 L 281 395 L 282 436 L 282 378 L 282 376 L 281 375 L 281 298 L 280 297 L 280 288 L 281 287 L 280 286 L 280 276 L 280 274 L 280 261 L 281 260 L 280 248 Z M 276 253 L 274 262 L 273 380 L 273 382 L 273 407 L 274 408 L 273 412 L 273 414 L 274 418 L 273 422 L 277 421 Q 279 421 279 417 L 279 415 L 278 410 L 279 407 L 279 383 L 278 382 L 279 380 L 278 378 L 278 376 L 279 371 L 278 370 L 278 349 L 277 348 L 278 344 L 277 343 L 277 310 L 277 308 Q 278 303 276 302 L 276 253 Z M 69 261 L 70 264 L 71 262 L 69 261 Z M 232 261 L 231 262 L 216 262 L 214 262 L 212 263 L 208 262 L 200 262 L 200 267 L 204 268 L 214 267 L 216 267 L 218 268 L 220 268 L 221 267 L 231 267 L 232 266 L 235 267 L 237 267 L 239 266 L 241 266 L 243 267 L 243 261 L 237 261 L 236 262 L 232 261 Z M 267 263 L 265 265 L 265 279 L 266 280 L 265 282 L 266 284 L 265 286 L 266 289 L 265 302 L 265 304 L 266 306 L 265 307 L 265 344 L 265 346 L 266 355 L 266 357 L 265 361 L 266 366 L 266 402 L 267 403 L 267 440 L 268 441 L 267 442 L 267 459 L 266 460 L 267 461 Q 268 458 271 459 L 271 388 L 270 387 L 271 386 L 271 375 L 271 373 L 271 264 Q 271 263 267 263 Z M 68 267 L 67 271 L 68 273 L 70 268 L 68 267 Z M 209 269 L 210 275 L 208 277 L 204 278 L 202 277 L 193 278 L 193 309 L 192 310 L 193 313 Q 195 318 192 320 L 193 390 L 198 389 L 201 384 Q 200 381 203 382 L 207 373 L 214 367 L 213 362 L 214 357 L 213 355 Q 212 350 214 349 L 213 348 L 213 299 L 212 298 L 212 270 L 209 269 Z M 215 269 L 215 278 L 219 277 Q 220 275 221 278 L 221 279 L 215 279 L 215 281 L 228 280 L 228 272 L 229 271 Q 230 268 228 269 L 225 270 L 215 269 Z M 166 271 L 165 272 Q 158 270 160 276 L 170 276 L 171 277 L 182 276 L 185 277 L 199 276 L 200 275 L 202 276 L 208 275 L 207 271 L 193 271 L 192 272 L 191 271 L 166 271 Z M 180 278 Q 177 279 178 284 L 184 284 L 184 282 L 187 281 L 186 283 L 187 285 L 181 285 L 180 286 Q 177 285 178 288 L 182 289 L 190 288 L 190 280 L 191 279 L 190 278 L 188 280 L 185 280 Q 186 277 180 278 Z M 216 282 L 215 316 L 215 318 Q 213 324 216 326 L 215 329 L 216 332 L 217 365 L 219 363 L 220 359 L 219 357 L 219 294 L 218 293 L 219 291 L 218 289 L 219 285 L 216 282 Z M 229 282 L 227 283 L 225 283 L 221 284 L 221 318 L 221 320 Q 220 324 222 326 L 221 328 L 221 330 L 222 335 L 221 337 L 221 339 L 222 341 L 221 344 L 222 347 L 221 351 L 222 352 L 222 361 L 225 360 L 228 361 L 228 285 L 229 284 L 229 282 Z M 148 284 L 148 286 L 150 285 L 148 284 Z M 139 288 L 137 291 L 139 290 L 139 288 Z M 151 288 L 149 290 Q 148 292 151 291 L 151 288 Z M 180 290 L 178 292 L 178 332 L 178 334 L 178 350 L 179 351 L 178 353 L 179 355 L 178 357 L 179 360 L 178 364 L 179 369 L 179 402 L 181 406 L 183 405 L 182 404 L 182 292 L 180 290 Z M 186 290 L 184 292 L 184 305 L 183 306 L 184 307 L 184 370 L 184 372 L 184 391 L 186 393 L 184 393 Q 183 396 186 395 Q 190 393 187 392 L 189 392 L 188 390 L 190 389 L 190 383 L 189 382 Q 192 378 190 371 L 189 368 L 190 368 L 190 353 L 190 351 L 190 334 L 189 333 L 190 332 L 190 322 L 191 321 L 190 320 L 190 298 L 189 297 L 190 291 L 186 290 Z M 132 292 L 130 294 L 131 295 L 133 294 Q 134 291 132 292 Z M 139 292 Q 138 296 141 295 Q 142 291 139 292 Z M 152 293 L 149 297 L 153 299 L 153 294 L 152 293 Z M 112 296 L 110 300 L 112 299 L 112 296 Z M 134 296 L 134 298 L 131 299 L 132 301 L 135 299 Q 136 295 134 296 Z M 146 296 L 146 299 Q 144 300 147 301 L 150 299 L 146 296 Z M 143 298 L 141 300 L 142 301 L 145 299 L 143 298 Z M 128 300 L 126 302 Q 125 306 129 307 L 129 305 L 129 303 L 128 300 Z M 136 303 L 134 305 Q 133 307 136 306 L 137 304 L 136 303 Z M 148 303 L 146 306 L 150 305 L 148 303 Z M 122 305 L 117 309 L 121 310 L 122 307 L 121 309 L 123 309 L 124 307 L 122 305 Z M 146 306 L 138 314 Q 139 316 136 315 Q 134 318 135 325 L 134 326 L 131 325 L 132 323 L 132 318 L 129 319 L 130 322 L 128 332 L 123 339 L 123 356 L 124 357 L 123 364 L 128 367 Q 130 366 128 365 Q 129 362 126 363 L 125 361 L 125 353 L 126 352 L 124 344 L 125 338 Q 127 335 128 338 L 127 341 L 129 351 Q 127 352 128 358 L 128 360 Q 127 363 131 361 L 132 365 Q 135 366 134 362 L 137 362 L 138 365 L 137 367 L 138 369 L 138 371 Q 139 373 136 372 L 137 375 Q 136 378 139 377 L 136 383 L 137 384 L 140 382 L 141 385 L 138 387 L 141 390 L 141 388 Q 146 386 145 391 L 143 392 L 142 395 L 143 399 L 145 396 L 149 399 L 151 393 L 150 393 Q 147 394 148 390 L 151 388 L 150 387 Q 151 384 147 385 L 149 380 L 149 376 L 147 370 L 142 366 L 144 365 L 141 364 L 139 365 Q 138 361 142 362 L 142 361 Q 138 362 139 359 L 142 357 L 142 356 L 139 357 Q 135 358 136 355 L 142 354 L 140 350 L 137 348 Q 136 345 139 346 L 143 337 L 144 335 Q 137 336 138 334 L 141 332 L 138 330 L 141 328 L 140 327 L 142 324 L 144 325 Q 147 326 148 324 L 146 322 L 144 322 Q 141 323 142 321 Q 144 318 149 319 Q 150 316 148 317 L 145 316 Q 142 317 143 314 L 145 314 L 144 310 L 149 311 L 150 311 L 146 308 L 146 306 Z M 124 312 L 118 315 L 113 321 L 115 323 L 120 316 L 122 317 L 125 313 L 124 312 Z M 123 321 L 122 323 L 115 328 L 111 333 L 105 352 L 106 363 L 109 370 L 111 400 L 114 409 L 114 418 L 115 419 L 114 422 L 107 424 L 103 428 L 101 443 L 96 461 L 90 468 L 87 480 L 88 484 L 128 468 L 130 469 L 136 455 Q 135 452 138 453 L 138 451 L 144 445 Q 149 445 151 442 L 149 434 Q 149 426 153 422 L 158 418 L 151 404 Q 149 400 147 405 L 143 404 L 140 402 L 139 393 Q 132 386 130 376 L 124 371 Q 125 367 122 368 L 119 362 Q 121 355 118 354 L 119 339 L 121 335 L 122 327 Q 125 325 124 323 Q 126 324 125 322 L 123 321 Z M 107 322 L 105 324 Q 104 326 107 325 L 107 322 Z M 113 322 L 111 325 L 112 327 L 113 325 L 113 322 Z M 143 328 Q 142 330 145 329 L 146 330 Q 147 327 143 328 Z M 143 332 L 143 333 Q 145 332 144 335 L 145 335 Q 146 331 143 332 Z M 100 346 L 100 349 L 103 347 L 100 346 Z M 55 350 Q 57 355 52 353 L 53 356 Q 54 358 51 357 Q 50 360 54 359 L 55 362 L 57 353 Q 58 349 55 350 Z M 65 351 Q 61 356 61 365 L 60 366 L 58 367 L 58 376 L 58 378 L 58 404 L 59 405 L 59 421 L 60 422 L 60 423 L 64 423 L 63 418 Q 62 412 64 411 L 63 406 L 63 376 L 66 375 Q 68 376 67 380 L 71 382 L 70 384 L 71 387 L 69 388 L 66 387 Q 64 392 70 390 L 71 392 Q 64 390 66 395 L 69 394 L 71 395 L 71 398 L 68 396 L 66 400 Q 70 399 71 402 L 68 402 L 67 404 Q 71 403 70 406 L 66 408 L 70 411 Q 71 413 69 412 Q 67 410 66 413 L 73 415 L 74 413 L 74 417 L 73 416 L 66 417 Q 67 419 71 418 Q 74 420 71 421 L 67 420 L 69 426 L 80 428 L 85 427 L 87 421 L 97 422 L 98 418 L 97 402 L 94 396 L 94 391 L 91 383 L 92 381 L 89 370 L 90 364 L 93 362 L 90 360 L 89 362 L 88 362 L 89 358 L 92 358 L 89 356 L 87 357 L 84 356 L 80 358 L 79 356 Q 74 354 75 358 L 73 359 L 74 361 L 69 359 L 68 361 L 71 362 Q 76 361 74 365 L 72 366 L 74 369 L 72 367 Q 67 365 68 369 L 71 370 Q 72 372 70 371 L 67 373 L 68 371 L 68 369 L 65 370 L 64 365 L 65 354 L 66 353 Q 67 350 65 351 Z M 60 352 L 59 355 L 60 355 L 60 352 Z M 97 353 Q 95 356 98 355 L 97 353 Z M 72 354 Q 71 356 75 356 Q 76 353 72 354 Z M 59 355 L 57 360 L 58 366 L 59 360 L 59 355 Z M 96 357 L 93 359 L 95 359 L 94 363 L 96 364 L 93 366 L 95 366 Q 96 369 93 368 L 94 382 L 96 386 L 96 391 L 98 398 L 99 398 L 98 384 L 96 380 Q 94 375 98 376 L 101 383 Q 99 389 102 391 Q 103 395 101 397 Q 102 400 99 399 Q 102 403 101 413 L 101 415 L 101 423 L 103 423 Q 102 418 106 417 L 105 405 L 104 404 L 104 395 L 103 394 L 103 385 L 97 363 L 100 362 L 102 368 L 106 391 L 107 391 L 107 383 L 106 382 L 107 379 L 106 369 L 103 367 L 102 363 Q 102 359 98 360 L 96 357 Z M 51 359 L 48 370 L 48 372 L 46 375 L 46 383 L 45 384 L 45 391 L 47 391 L 46 393 L 47 402 L 48 402 Q 49 397 47 396 L 49 387 L 48 384 L 49 383 L 49 368 L 51 363 L 51 359 Z M 54 363 L 52 369 L 50 411 L 51 413 L 53 412 L 56 414 L 56 411 L 55 411 L 52 410 L 53 406 L 53 408 Q 57 409 56 407 L 53 405 Q 52 402 55 403 Q 57 399 52 400 Q 51 397 55 398 L 55 396 L 53 397 L 52 396 L 55 394 L 54 392 L 55 388 L 55 386 L 55 379 Q 52 379 53 374 L 56 372 L 56 368 L 54 363 Z M 68 363 L 67 365 L 71 365 L 68 363 Z M 223 364 L 216 368 L 210 374 L 206 385 L 204 388 L 202 389 L 201 392 L 198 391 L 196 391 L 190 395 L 192 395 L 190 398 L 192 398 L 193 398 L 192 400 L 193 402 L 190 404 L 190 406 L 189 408 L 193 409 L 194 407 L 193 405 Q 195 406 197 403 L 196 401 L 198 401 Q 200 402 199 399 L 205 395 L 206 396 L 205 398 Q 200 400 202 403 L 200 402 L 194 411 L 195 412 Q 198 412 197 408 L 198 408 L 196 413 L 197 416 L 194 421 L 195 424 L 193 427 Q 190 426 192 425 L 191 421 L 192 419 L 193 421 L 194 419 L 194 412 L 191 416 L 193 416 Q 194 419 191 418 L 190 415 Q 189 412 188 414 L 187 411 L 190 410 L 187 409 L 189 406 Q 187 407 186 404 L 185 406 L 185 408 L 182 413 L 181 421 Q 177 422 180 424 Q 180 432 176 438 L 185 477 L 187 476 L 186 478 L 189 495 L 191 499 L 194 516 L 196 521 L 222 512 L 221 510 L 223 509 L 226 508 L 228 509 L 248 504 Q 251 505 250 502 L 256 501 Q 257 497 259 500 L 262 494 L 267 495 L 266 494 L 267 492 Q 266 489 269 490 L 268 492 L 269 494 L 270 493 L 270 484 L 269 484 Q 270 486 267 485 L 268 483 Q 269 476 266 474 L 263 480 L 260 479 L 264 472 L 264 463 L 260 452 L 257 462 L 254 460 L 256 453 Q 257 447 255 444 L 249 467 L 242 478 L 240 481 L 235 484 L 246 467 L 251 448 Q 252 440 249 436 L 251 435 L 252 436 L 248 425 L 245 410 L 246 406 L 243 406 L 244 404 L 243 404 L 243 403 L 242 397 L 236 393 Q 228 392 226 396 Q 223 395 224 392 L 222 392 L 223 388 L 226 390 Q 225 392 228 391 Q 227 387 230 386 L 232 388 L 231 390 L 233 390 L 235 387 Q 234 384 237 385 L 238 389 L 240 379 L 243 380 L 243 379 L 245 379 L 241 370 L 234 364 L 231 365 Q 229 362 223 364 Z M 131 368 L 133 372 Q 137 374 136 371 Q 135 367 131 368 Z M 67 383 Q 67 387 69 384 L 67 383 Z M 243 383 L 242 388 L 243 388 L 243 383 Z M 247 383 L 245 391 L 242 392 L 242 391 L 242 388 L 239 392 L 245 395 L 247 390 L 247 383 Z M 156 389 L 153 395 L 154 398 L 153 400 Q 152 402 155 401 L 154 405 L 161 415 L 168 418 L 171 418 Q 174 420 174 425 L 175 423 L 174 419 L 167 413 L 164 413 L 166 410 L 174 415 Q 176 414 175 417 L 176 417 L 175 413 Q 172 414 173 411 L 171 410 Q 167 411 169 407 L 177 411 L 179 418 L 180 416 L 178 410 L 170 405 L 169 402 L 171 402 L 173 402 L 167 397 L 162 397 L 156 389 Z M 235 389 L 235 391 L 237 390 L 235 389 Z M 108 394 L 107 403 L 109 413 Q 110 418 107 421 L 107 422 L 111 420 L 112 418 L 108 394 Z M 190 395 L 187 399 L 188 401 L 190 397 L 190 395 Z M 144 399 L 143 402 L 147 402 L 144 401 L 144 399 Z M 190 399 L 189 401 Q 188 403 187 401 L 186 404 L 188 405 L 191 402 L 190 399 Z M 334 401 L 331 402 L 332 405 L 334 404 L 334 401 Z M 47 402 L 46 407 L 47 407 L 47 402 Z M 173 402 L 173 404 L 177 405 L 179 408 L 179 404 L 173 402 Z M 316 408 L 307 413 L 308 416 L 312 414 L 313 412 L 316 411 L 316 408 Z M 43 409 L 42 412 L 43 412 L 43 409 Z M 47 409 L 46 415 L 46 419 Q 45 423 48 422 L 47 409 Z M 189 411 Q 188 414 191 413 Q 192 410 189 411 Z M 51 414 L 51 419 Q 49 423 54 422 Q 55 424 56 422 Q 57 419 54 420 L 52 417 L 56 418 L 56 415 L 51 414 Z M 316 416 L 315 422 L 316 422 L 316 416 Z M 313 417 L 312 422 L 313 422 L 313 417 Z M 293 418 L 290 419 L 291 422 L 295 420 Q 296 417 293 418 Z M 158 421 L 153 428 L 154 430 L 153 429 L 152 433 L 155 433 L 156 428 L 157 434 L 157 435 L 156 434 L 155 434 L 155 437 L 159 442 Q 162 443 163 441 L 159 423 L 158 421 Z M 309 422 L 308 425 L 309 425 L 309 422 Z M 278 423 L 274 426 L 275 428 L 279 426 Q 280 422 278 423 Z M 90 424 L 88 428 L 83 430 L 73 430 L 72 429 L 70 430 L 72 436 L 71 455 L 73 454 L 74 457 L 64 461 L 58 469 L 56 474 L 67 476 L 73 481 L 75 480 Q 77 481 75 483 L 77 484 Q 75 478 79 479 L 94 459 L 95 451 L 97 447 L 98 436 L 101 427 Q 100 423 96 424 L 93 425 L 90 424 Z M 292 424 L 291 431 L 292 431 L 292 424 Z M 176 428 L 174 433 L 176 432 L 176 428 Z M 259 430 L 256 431 L 254 434 L 260 433 Q 261 429 259 430 Z M 277 430 L 275 433 L 277 436 L 277 435 L 277 433 L 277 430 Z M 282 439 L 281 455 L 282 455 L 282 439 Z M 164 442 Q 164 446 162 445 L 161 446 L 159 444 L 158 445 L 155 444 L 156 446 L 155 449 L 157 449 L 158 447 L 160 448 Q 161 451 158 450 L 159 453 Q 156 454 157 451 L 150 454 L 150 456 L 149 455 L 145 457 L 144 462 L 139 469 L 137 478 Q 136 482 140 483 L 145 482 L 144 481 L 146 481 L 147 481 L 146 479 L 150 477 L 152 477 Q 151 474 154 475 L 153 477 L 165 479 L 166 483 L 165 484 L 160 481 L 155 482 L 155 481 L 154 480 L 152 480 L 147 482 L 149 482 L 151 483 L 150 486 L 147 485 Q 143 484 144 487 L 146 487 L 143 493 L 146 497 L 143 495 Q 144 492 141 493 L 144 498 L 142 498 L 144 503 Q 143 505 146 504 L 146 506 L 143 503 L 142 503 L 145 509 L 145 508 L 146 508 L 145 510 L 148 513 L 151 512 L 150 514 L 154 514 L 153 513 L 155 513 Q 156 510 154 511 L 154 510 Q 158 509 156 513 L 159 512 L 159 514 Q 157 515 160 516 L 160 514 Q 162 515 164 512 L 163 509 L 161 510 L 158 507 L 160 508 Q 159 510 162 509 Q 163 507 165 510 L 165 509 Q 163 504 162 507 L 162 506 Q 163 503 161 504 L 158 505 L 155 504 L 155 503 L 158 504 L 160 504 L 162 503 L 165 507 L 165 503 L 163 503 Q 162 500 165 501 L 166 502 L 164 496 L 166 495 L 165 493 L 166 492 L 166 485 L 168 475 L 168 473 Q 167 469 170 470 L 164 442 Z M 150 444 L 150 446 L 154 445 L 150 444 Z M 144 447 Q 145 450 143 449 L 137 462 L 138 468 L 139 465 Q 138 461 141 462 L 142 459 L 146 454 L 143 455 L 141 455 L 143 454 L 142 452 L 144 452 L 144 451 L 148 448 L 144 447 Z M 152 448 L 147 452 L 148 453 L 153 450 L 152 448 Z M 267 462 L 267 472 L 272 480 L 272 479 L 272 477 L 273 474 L 273 477 L 273 479 L 274 489 L 280 486 L 279 485 L 279 462 L 277 463 L 267 462 Z M 134 466 L 133 469 L 134 469 L 134 466 Z M 283 466 L 282 485 L 283 485 L 283 466 Z M 332 466 L 333 470 L 334 468 Q 335 465 332 466 Z M 331 467 Q 328 468 329 472 L 331 471 L 331 467 Z M 291 469 Q 289 472 292 471 L 291 469 Z M 326 469 Q 324 474 328 473 Q 330 468 326 469 Z M 127 471 L 105 480 L 103 480 L 86 488 L 87 489 L 90 487 L 110 481 Q 111 477 113 480 L 128 474 L 129 472 L 127 471 Z M 287 471 L 285 477 L 286 479 L 285 483 L 287 484 L 287 471 Z M 323 471 L 323 475 L 325 474 Q 326 470 323 471 Z M 136 472 L 135 475 L 136 475 L 136 472 Z M 321 472 L 319 474 L 320 476 L 322 475 L 321 472 Z M 290 473 L 290 480 L 291 482 L 295 480 Q 297 481 296 479 L 296 477 Q 297 474 294 475 L 294 473 L 293 477 L 291 478 L 292 474 L 290 473 Z M 318 473 L 316 475 L 317 477 L 318 477 L 318 473 Z M 331 474 L 329 476 Q 328 479 331 478 L 331 474 Z M 172 475 L 172 485 L 173 485 L 172 475 Z M 313 475 Q 311 480 315 479 Q 317 474 313 475 Z M 326 475 Q 325 479 328 478 Q 329 474 326 475 Z M 310 476 Q 308 481 312 480 Q 314 475 310 476 Z M 332 476 L 333 482 L 334 477 L 332 476 Z M 56 477 L 49 480 L 47 487 L 50 487 Q 52 488 51 484 L 56 482 L 59 484 L 56 481 L 59 480 L 62 481 Q 64 480 63 483 L 65 482 L 71 485 L 72 485 L 69 483 L 68 480 L 66 481 L 66 480 L 61 478 L 56 477 Z M 134 477 Q 134 480 132 479 L 130 479 Q 129 481 132 480 L 134 482 L 134 477 Z M 309 477 Q 306 478 307 482 L 309 481 L 309 477 Z M 320 478 L 319 484 Q 318 487 321 486 L 322 481 L 322 479 L 320 478 Z M 304 479 L 304 483 L 306 482 Q 307 478 304 479 Z M 318 479 L 317 482 L 317 484 L 316 487 L 318 487 L 318 479 Z M 302 480 L 300 482 L 302 485 L 302 483 Q 304 481 302 480 Z M 299 481 L 297 484 L 297 486 L 299 486 L 299 481 Z M 137 482 L 138 484 Q 139 481 137 482 Z M 312 482 Q 309 483 310 488 L 310 490 L 309 495 Q 312 496 311 494 L 311 492 Q 309 485 312 484 L 312 482 Z M 295 483 L 292 484 L 290 487 L 290 489 L 292 489 L 293 485 L 293 488 L 296 487 Q 297 482 295 483 Z M 313 483 L 313 493 L 315 493 L 315 484 L 313 483 Z M 59 484 L 60 487 L 61 485 L 59 484 Z M 107 484 L 105 486 L 101 486 L 87 492 L 99 497 L 105 498 L 109 501 L 111 500 L 113 502 L 116 502 L 126 507 L 129 507 L 130 508 L 129 503 L 129 500 L 132 494 L 131 491 L 130 491 L 128 489 L 117 486 L 110 486 L 109 484 L 107 484 Z M 289 485 L 287 488 L 287 490 L 289 491 L 289 485 Z M 135 486 L 135 488 L 134 490 L 135 492 L 137 489 L 136 491 L 137 493 L 136 492 L 133 499 Q 132 507 136 511 L 137 508 L 138 511 L 136 512 L 141 514 L 143 514 L 140 508 L 141 505 Q 136 499 138 487 L 135 486 Z M 284 487 L 284 490 L 284 492 L 286 492 L 286 487 L 284 487 Z M 308 487 L 307 496 L 308 496 L 308 487 Z M 333 487 L 331 490 Q 330 492 333 491 L 333 487 Z M 173 488 Q 171 493 175 492 Q 177 487 173 488 Z M 280 488 L 280 494 L 282 494 L 282 488 L 280 488 Z M 171 489 L 171 492 L 172 492 Q 173 488 171 489 Z M 277 489 L 277 495 L 279 495 L 279 489 L 277 489 Z M 296 489 Q 293 490 295 492 L 293 501 Q 292 503 295 502 L 296 499 L 296 497 L 296 489 Z M 302 489 L 301 498 L 300 499 L 302 499 L 302 489 Z M 305 489 L 304 497 L 305 497 L 305 489 Z M 48 490 L 49 492 Q 50 489 48 490 Z M 274 491 L 273 497 L 275 497 L 276 492 L 274 491 Z M 318 491 L 316 493 L 318 493 L 318 491 Z M 82 492 L 80 496 L 81 504 L 82 496 L 82 492 Z M 169 492 L 170 511 L 173 513 L 171 514 L 169 514 L 171 518 L 175 519 L 174 511 Q 177 510 176 513 L 178 514 L 178 507 L 177 509 L 176 508 L 173 510 Q 170 508 171 503 Q 174 501 170 500 L 170 495 Q 174 496 173 493 L 169 492 Z M 176 492 Q 174 496 176 498 L 175 500 L 177 501 L 176 492 Z M 297 492 L 297 500 L 299 500 L 299 493 L 297 492 Z M 71 493 L 71 496 L 72 496 Q 73 492 71 493 Z M 272 493 L 271 499 L 272 499 L 272 493 Z M 49 494 L 47 496 L 48 498 L 49 496 L 49 494 Z M 86 494 L 85 498 L 92 502 L 105 506 L 109 506 L 117 511 L 119 510 Q 121 509 120 512 Q 123 515 130 515 L 134 518 L 148 522 L 155 526 Q 161 526 166 529 L 169 528 L 165 525 L 161 526 L 160 524 L 158 525 L 158 523 L 156 524 L 155 522 L 149 520 Q 146 521 147 518 L 146 518 L 138 516 L 123 508 L 113 506 L 86 494 Z M 285 495 L 284 507 L 286 506 Q 287 499 285 495 Z M 292 495 L 290 498 Q 289 501 292 500 L 292 495 Z M 314 495 L 313 501 L 315 500 L 314 495 Z M 269 496 L 269 500 L 269 499 Q 271 497 269 496 Z M 333 496 L 331 499 L 333 500 L 333 496 Z M 310 497 L 309 508 L 309 510 L 310 512 L 309 518 L 309 520 L 310 523 L 309 526 L 311 526 L 311 507 L 310 506 L 312 499 Q 313 496 310 497 Z M 330 497 L 328 499 Q 327 502 330 501 L 330 497 Z M 174 498 L 172 501 L 174 508 L 175 504 L 174 498 Z M 266 498 L 265 501 L 266 501 L 266 498 Z M 279 498 L 278 503 L 279 503 L 279 498 Z M 263 499 L 261 501 Q 260 503 263 502 L 263 499 Z M 325 499 L 325 502 L 325 504 L 326 521 L 327 517 L 327 500 L 325 499 Z M 42 500 L 39 504 L 41 504 L 43 501 L 42 500 Z M 281 500 L 279 504 L 281 507 L 280 509 L 282 508 Q 283 501 281 500 Z M 321 500 L 319 502 L 320 517 L 320 512 L 320 510 L 321 508 L 320 505 L 321 503 L 321 500 Z M 169 501 L 168 504 L 169 504 L 169 501 Z M 178 501 L 176 504 L 176 505 L 178 504 L 178 501 Z M 289 501 L 287 503 L 288 505 L 289 505 L 289 501 Z M 308 501 L 306 518 L 308 519 L 308 501 Z M 331 501 L 332 520 L 333 505 L 333 503 Q 334 500 331 501 Z M 274 502 L 273 506 L 273 508 L 274 510 L 273 512 L 275 512 Q 276 505 274 502 Z M 305 502 L 303 509 L 303 525 L 304 528 L 306 529 L 304 522 L 305 521 L 305 507 L 306 506 L 305 502 Z M 324 502 L 323 507 L 324 507 L 324 502 Z M 33 503 L 26 507 L 28 509 Q 32 509 34 506 Q 35 502 33 503 Z M 35 503 Q 34 506 37 505 Q 38 502 35 503 Z M 313 503 L 313 506 L 315 507 Q 316 502 313 503 Z M 49 504 L 48 507 L 49 507 L 49 504 Z M 62 504 L 61 508 L 64 508 L 62 504 Z M 179 504 L 178 507 L 179 507 L 179 504 Z M 295 504 L 294 506 L 296 505 L 295 504 Z M 302 504 L 301 508 L 302 508 L 302 504 Z M 317 504 L 316 510 L 318 510 L 317 504 Z M 328 504 L 329 522 L 330 520 L 330 518 L 330 505 L 328 504 Z M 260 505 Q 257 506 259 508 L 258 510 L 259 514 Q 261 513 259 512 L 260 510 L 260 505 Z M 41 506 L 31 511 L 40 514 L 41 511 L 41 506 Z M 249 506 L 249 508 L 251 507 L 249 506 Z M 266 506 L 265 511 L 266 511 L 266 506 Z M 277 506 L 277 510 L 279 509 Q 280 505 277 506 Z M 299 506 L 297 509 L 297 524 L 299 524 L 299 506 Z M 45 507 L 44 510 L 45 510 L 45 507 Z M 248 507 L 246 509 L 248 509 L 248 507 Z M 23 508 L 23 511 Q 26 510 23 508 Z M 77 508 L 77 512 L 78 512 L 77 508 Z M 242 508 L 240 510 L 241 512 L 242 512 L 242 508 Z M 243 508 Q 242 511 245 510 Q 246 507 243 508 Z M 263 508 L 261 511 L 263 512 L 263 508 Z M 294 508 L 293 513 L 294 517 L 294 525 L 293 526 Q 291 531 295 530 L 295 519 L 296 518 L 295 516 L 296 514 L 295 511 L 296 509 L 294 508 Z M 313 508 L 313 524 L 315 524 L 314 523 L 315 520 L 314 518 Q 313 513 315 512 Q 316 507 313 508 Z M 18 509 L 17 513 L 18 513 L 18 509 Z M 20 509 L 19 512 L 21 512 Q 23 508 20 509 Z M 92 509 L 92 510 L 94 510 L 92 509 Z M 236 509 L 234 511 L 235 514 L 236 514 L 236 509 Z M 238 509 L 238 512 L 239 512 Q 240 508 238 509 Z M 285 509 L 284 511 L 286 510 L 285 509 Z M 60 510 L 58 512 L 61 513 L 60 510 Z M 95 510 L 96 512 Q 97 509 95 510 Z M 104 510 L 104 513 L 103 515 L 105 515 L 107 511 L 104 510 Z M 169 510 L 169 513 Q 172 512 169 510 Z M 180 510 L 180 517 L 181 517 Q 182 512 180 510 Z M 233 510 L 232 513 L 233 513 L 233 510 Z M 272 510 L 270 512 L 272 513 L 272 510 Z M 300 510 L 301 514 L 300 516 L 301 518 L 300 519 L 300 527 L 302 528 L 302 511 L 300 510 Z M 15 511 L 14 514 L 15 514 L 15 511 Z M 66 511 L 60 522 L 65 523 L 66 524 L 66 511 Z M 228 511 L 229 512 L 230 513 Q 231 510 228 511 Z M 289 511 L 289 533 L 291 532 Q 292 534 293 532 L 292 530 L 291 530 Q 292 532 289 531 L 289 523 L 290 522 L 289 511 Z M 317 511 L 317 515 L 317 514 Q 319 512 317 511 Z M 322 511 L 323 521 L 323 513 L 324 512 L 322 511 Z M 13 512 L 11 514 Q 10 516 13 515 L 13 512 Z M 77 512 L 76 515 L 77 515 L 77 512 Z M 225 512 L 224 516 Q 223 520 226 519 L 227 515 Q 228 511 225 512 Z M 256 512 L 256 516 L 256 515 Q 258 513 256 512 Z M 268 512 L 268 514 L 270 513 L 268 512 Z M 10 513 L 8 515 Q 7 517 10 516 L 10 513 Z M 156 513 Q 154 516 157 515 L 156 513 Z M 254 513 L 252 517 L 254 516 L 254 513 Z M 266 513 L 265 516 L 266 516 L 266 513 Z M 284 513 L 284 517 L 284 519 Q 286 525 283 527 L 284 529 L 283 534 Q 282 538 286 536 L 287 533 Q 288 530 285 531 L 286 526 L 286 514 L 284 513 Z M 22 514 L 23 524 L 25 523 L 23 520 L 24 515 L 22 514 Z M 223 514 L 221 521 L 223 520 L 223 514 Z M 230 514 L 228 518 L 230 517 L 230 514 Z M 263 514 L 262 517 L 262 518 Q 264 519 263 517 Q 265 515 263 514 Z M 275 514 L 273 516 L 275 516 L 275 514 Z M 58 515 L 56 519 L 59 518 L 58 515 Z M 220 515 L 218 517 Q 216 523 220 522 L 220 515 Z M 251 515 L 249 519 L 251 518 L 251 515 Z M 280 515 L 281 519 L 280 520 L 280 535 L 282 536 L 282 516 L 280 515 Z M 32 516 L 32 518 L 35 519 Q 37 520 36 517 L 32 516 Z M 45 516 L 44 519 L 45 519 L 45 516 Z M 179 516 L 176 519 L 179 519 L 179 516 Z M 217 516 L 215 518 L 216 524 L 217 518 L 217 516 Z M 260 516 L 258 518 Q 257 520 260 519 L 260 516 Z M 277 516 L 277 536 Q 280 537 279 534 L 279 532 L 279 524 L 278 523 L 279 520 Q 280 515 277 516 Z M 316 516 L 317 520 L 316 523 L 318 522 Q 320 515 316 516 Z M 152 517 Q 151 520 155 519 Q 156 521 157 519 L 152 517 Z M 182 517 L 181 519 L 179 520 L 183 523 L 182 517 Z M 248 517 L 247 520 L 248 520 L 248 517 Z M 12 518 L 11 529 L 13 529 L 12 528 L 12 518 Z M 163 518 L 157 521 L 162 522 L 164 522 L 169 525 L 171 524 L 171 526 L 177 528 L 178 525 L 180 530 L 183 528 Q 185 529 184 526 L 182 527 L 181 525 L 179 524 Q 176 525 177 522 L 175 523 L 168 518 L 167 520 L 166 518 L 165 521 L 164 521 Q 165 517 163 518 Z M 213 518 Q 210 519 212 521 L 211 523 Q 210 525 213 524 L 213 518 Z M 255 518 L 256 521 L 257 519 L 255 518 Z M 265 518 L 265 539 L 265 541 L 264 543 L 278 550 L 289 550 L 289 552 L 281 552 L 280 553 L 272 550 L 265 545 L 254 548 L 255 546 L 254 528 L 252 532 L 253 533 L 253 546 L 251 545 L 250 549 L 253 551 L 266 556 L 276 556 L 276 558 L 272 559 L 263 558 L 261 558 L 249 552 L 241 553 L 237 558 L 239 557 L 255 564 L 266 564 L 276 561 L 293 561 Q 306 564 315 571 L 319 571 L 323 571 L 325 572 Q 326 570 332 571 L 334 569 Q 337 570 335 565 L 333 566 Q 322 567 316 564 L 312 560 L 300 554 L 295 556 Q 291 557 293 553 L 298 552 Q 312 555 321 563 Q 330 564 335 562 L 334 552 L 331 553 L 325 545 L 318 543 L 314 545 Q 311 544 312 547 L 304 550 L 302 548 L 294 547 L 288 540 L 284 538 L 279 538 L 273 543 L 269 543 L 269 522 L 267 523 L 268 524 L 268 535 L 267 538 L 268 541 Q 269 543 266 542 L 266 520 L 267 519 L 265 518 Z M 275 518 L 274 538 L 273 539 L 272 537 L 271 537 Q 269 541 274 540 L 276 537 L 275 536 L 275 518 Z M 320 518 L 319 521 L 320 521 L 320 518 Z M 335 518 L 334 521 L 335 521 L 335 518 Z M 100 519 L 96 523 L 95 522 L 89 523 L 85 523 Q 83 527 78 528 L 87 530 Q 88 533 90 531 L 96 533 L 95 532 L 97 531 L 98 534 L 98 533 L 101 534 L 102 533 L 102 535 L 106 536 L 105 534 L 107 530 L 107 537 L 113 539 L 114 537 L 114 540 L 116 539 L 122 541 L 121 540 L 123 539 L 122 543 L 126 542 L 128 544 L 135 546 Q 137 545 136 548 L 149 543 L 148 542 L 150 542 L 157 540 Q 156 536 150 537 L 150 536 L 137 530 L 129 529 L 124 526 L 100 519 Z M 210 519 L 209 525 L 210 525 L 210 519 Z M 254 519 L 253 522 L 254 522 L 254 519 Z M 272 519 L 270 522 L 271 527 L 270 530 L 271 532 L 270 534 Q 269 536 272 535 L 272 519 Z M 251 520 L 249 522 Q 248 524 251 523 L 251 520 Z M 307 520 L 307 522 L 306 526 Q 305 528 308 527 L 308 521 L 307 520 Z M 8 521 L 7 526 L 8 526 L 8 521 Z M 206 521 L 207 527 L 208 522 L 206 521 Z M 19 522 L 18 525 L 20 526 L 19 522 Z M 203 522 L 201 524 L 202 525 L 205 523 L 203 522 Z M 259 522 L 258 534 L 259 535 L 258 537 L 259 543 L 260 543 L 260 525 L 259 522 Z M 40 523 L 39 526 L 40 526 L 40 523 Z M 221 523 L 222 526 L 223 524 L 221 523 Z M 263 523 L 261 527 L 262 528 L 263 539 L 264 533 L 263 531 Q 262 526 264 525 Q 265 522 263 523 Z M 321 523 L 312 529 Q 308 528 309 531 L 317 535 L 316 533 L 320 531 L 323 532 L 326 531 L 335 531 L 335 529 L 329 528 L 323 523 L 321 523 Z M 331 523 L 333 526 Q 336 527 335 524 L 331 523 Z M 45 524 L 45 526 L 47 525 L 45 524 Z M 199 524 L 198 529 L 199 529 L 199 524 Z M 217 525 L 216 527 L 216 529 L 218 529 L 217 525 Z M 241 525 L 241 527 L 243 526 L 241 525 Z M 298 525 L 297 528 L 299 528 L 298 525 Z M 255 526 L 255 534 L 255 536 L 256 540 L 257 540 L 257 527 L 255 526 Z M 53 527 L 51 530 L 53 530 L 53 527 Z M 66 527 L 67 529 Q 68 526 66 527 Z M 170 528 L 167 530 L 173 532 L 175 532 Q 177 533 176 530 L 173 529 L 171 530 L 170 528 Z M 213 528 L 211 531 L 213 531 L 213 528 Z M 223 528 L 222 531 L 223 531 L 223 528 Z M 234 528 L 232 531 L 234 530 L 234 528 Z M 44 529 L 43 532 L 44 532 L 44 529 Z M 72 529 Q 71 532 74 531 Q 75 528 72 529 Z M 207 529 L 206 534 L 207 534 L 207 529 Z M 242 529 L 240 531 L 242 531 L 242 529 Z M 251 529 L 249 533 L 250 536 L 249 539 L 251 540 L 251 529 Z M 7 530 L 7 543 L 8 544 L 8 564 L 10 565 Q 14 564 13 567 L 21 569 Q 22 567 24 570 L 25 568 L 25 570 L 28 571 L 29 569 L 29 571 L 32 570 L 34 573 L 34 571 Q 37 570 36 573 L 39 572 L 43 575 L 45 574 L 47 576 L 51 576 L 64 580 Q 65 583 67 581 L 74 583 L 76 585 L 78 584 L 80 584 L 94 578 Q 96 579 95 577 L 94 577 Q 91 578 92 575 L 97 574 L 98 577 L 102 575 Q 105 576 104 574 Q 102 572 105 571 L 106 574 Q 108 575 107 571 L 110 572 Q 109 569 112 570 Q 113 573 115 569 Q 117 570 116 568 L 118 568 Q 120 569 119 566 Q 115 567 114 563 L 109 562 L 107 562 Q 104 563 105 560 L 94 558 L 82 553 L 79 554 L 80 552 L 76 551 L 74 551 L 73 549 L 70 551 L 59 553 L 58 556 L 58 554 Q 52 553 50 555 L 51 558 L 48 558 L 47 563 L 45 562 L 46 560 L 49 556 L 37 560 Q 29 561 27 557 L 27 551 Q 32 545 32 537 L 7 530 Z M 184 530 L 176 534 L 178 538 L 180 533 L 180 538 L 181 538 Q 179 531 183 532 L 182 535 Q 181 538 184 537 L 185 534 Q 186 529 184 530 Z M 228 530 Q 227 533 230 532 Q 231 529 228 530 Z M 239 530 L 238 533 L 239 533 L 239 530 Z M 299 530 L 297 531 L 295 534 Q 300 539 309 541 L 309 543 L 301 541 L 294 535 Q 288 534 286 537 L 290 538 L 294 543 Q 296 542 295 545 Q 301 544 304 547 L 308 546 Q 311 547 310 544 L 312 544 L 310 540 L 315 541 L 317 541 L 323 538 L 320 536 L 318 537 L 316 537 L 302 530 L 299 530 Z M 226 531 L 224 533 Q 223 536 226 535 L 226 531 Z M 248 531 L 247 540 L 248 540 L 248 531 Z M 215 532 L 216 540 L 217 538 L 216 534 L 218 533 L 215 532 Z M 245 532 L 241 535 L 242 550 L 242 549 L 242 547 L 243 546 L 244 534 L 244 541 Q 247 542 246 538 L 246 536 Q 247 531 245 532 Z M 213 533 L 212 538 L 213 538 L 213 533 Z M 219 533 L 218 538 L 220 537 L 219 533 Z M 223 533 L 221 535 Q 220 537 223 536 L 223 533 Z M 232 533 Q 231 536 234 535 Q 235 532 232 533 Z M 330 533 Q 328 536 323 534 L 324 537 Q 323 540 331 538 L 333 538 Q 337 539 335 535 Q 334 532 330 533 Z M 175 534 L 172 536 Q 175 536 174 541 L 176 540 L 175 538 L 176 536 Q 177 533 175 534 Z M 238 535 L 238 550 L 240 550 L 240 536 L 238 535 Z M 171 536 L 170 537 Q 166 536 167 540 L 167 542 L 168 544 Q 170 543 169 540 L 172 538 Q 173 535 171 536 Z M 207 536 L 206 540 L 207 540 L 207 536 Z M 236 536 L 235 548 L 237 548 L 236 542 L 237 540 L 236 536 Z M 232 537 L 232 550 L 233 551 L 232 553 Q 231 556 234 555 L 234 538 L 232 537 Z M 200 538 L 201 543 L 202 543 Q 204 537 200 538 Z M 163 539 L 160 541 L 163 546 L 164 540 L 164 543 L 166 544 Q 168 537 163 539 Z M 213 539 L 211 541 L 213 541 L 213 539 Z M 228 539 L 228 546 L 228 548 L 229 549 L 229 557 L 232 557 L 230 550 L 230 540 L 228 539 Z M 172 540 L 171 543 L 172 543 L 172 540 Z M 226 540 L 224 544 L 225 546 L 225 558 L 228 557 L 226 551 L 227 545 L 227 543 L 226 540 Z M 325 540 L 323 543 L 327 544 Q 330 545 330 550 L 334 551 L 334 542 L 327 540 L 325 540 Z M 160 541 L 159 548 L 160 548 L 160 541 Z M 186 541 L 185 544 L 186 544 L 186 541 Z M 204 541 L 203 545 L 205 544 L 204 541 Z M 248 541 L 247 549 Q 250 550 249 548 L 249 546 L 248 541 Z M 156 542 L 153 543 L 153 550 L 152 551 L 153 552 Q 157 550 154 549 Q 153 545 156 544 L 157 549 L 157 546 L 157 544 Q 158 541 156 542 Z M 183 542 L 183 545 Q 186 544 183 542 Z M 221 542 L 221 550 L 222 551 L 221 559 L 220 544 L 218 550 L 219 552 L 218 554 L 219 556 L 218 558 Q 217 562 221 563 L 221 561 L 224 559 L 223 557 L 223 543 L 221 542 Z M 245 542 L 244 545 L 245 545 L 245 542 Z M 251 542 L 249 544 L 251 544 L 251 542 Z M 41 543 L 39 546 L 41 546 L 41 543 Z M 150 545 L 150 552 L 151 552 Q 152 545 150 545 Z M 187 545 L 187 549 L 187 551 L 189 551 L 189 545 L 187 545 Z M 215 545 L 215 562 L 217 562 L 217 547 L 218 546 L 215 545 Z M 49 546 L 48 549 L 49 549 L 49 546 Z M 146 546 L 147 554 L 148 550 L 148 548 Q 149 545 146 546 Z M 186 546 L 185 552 L 186 552 L 186 546 Z M 144 547 Q 141 548 142 554 L 142 556 L 144 556 L 144 547 Z M 211 547 L 212 551 L 212 553 L 211 557 L 212 562 L 213 562 L 213 548 L 211 547 Z M 172 548 L 170 550 L 172 550 L 172 548 Z M 183 548 L 182 553 L 183 553 L 183 548 Z M 210 548 L 209 555 L 210 555 L 210 548 Z M 51 549 L 50 552 L 51 552 L 51 549 Z M 140 549 L 140 551 L 139 555 L 139 557 Q 138 559 141 558 L 141 550 L 140 549 Z M 207 549 L 206 553 L 207 553 L 207 549 Z M 40 550 L 39 555 L 40 555 L 40 550 Z M 136 550 Q 135 555 138 556 L 138 554 L 138 552 Q 139 549 136 550 Z M 178 550 L 176 552 L 177 556 L 178 556 L 178 550 Z M 203 550 L 204 555 L 205 555 Q 207 549 203 550 Z M 237 550 L 235 552 L 237 552 L 237 550 Z M 135 551 L 133 553 L 133 561 L 135 560 L 135 551 Z M 165 551 L 164 554 L 165 557 L 166 555 Q 167 550 165 551 Z M 128 552 L 127 554 Q 128 556 130 554 L 130 559 L 132 559 L 132 553 L 128 552 Z M 172 553 L 170 558 Q 169 560 172 559 L 172 553 Z M 126 554 L 122 556 L 121 560 Q 119 565 123 564 L 124 557 L 126 558 L 126 554 Z M 168 554 L 168 560 L 169 557 L 168 554 Z M 207 554 L 205 557 L 206 564 L 208 565 L 207 554 Z M 191 555 L 191 567 L 191 565 L 193 565 L 191 555 Z M 128 556 L 127 564 L 129 563 L 128 556 Z M 186 556 L 184 560 L 185 561 L 185 569 L 186 569 L 186 556 Z M 120 557 L 113 561 L 119 563 Q 118 559 121 558 L 120 557 Z M 136 557 Q 135 560 138 559 Q 139 556 136 557 Z M 163 557 L 161 561 L 162 563 L 163 563 L 163 557 Z M 164 558 L 164 560 L 166 561 Q 167 557 164 558 Z M 124 559 L 124 565 L 126 564 Q 128 558 124 559 Z M 178 559 L 176 567 L 177 570 L 178 570 L 178 559 Z M 147 560 L 145 562 L 147 562 L 147 560 Z M 179 560 L 180 566 L 179 569 L 180 571 Q 178 577 182 576 L 181 574 L 181 561 L 179 560 Z M 183 560 Q 181 563 184 562 L 183 560 Z M 210 560 L 209 563 L 211 563 L 210 560 Z M 230 560 L 223 564 L 234 566 L 248 573 L 256 575 L 266 575 L 278 571 L 290 571 L 314 580 Q 328 582 335 576 L 335 571 L 330 574 L 316 574 L 300 566 L 290 563 L 275 564 L 265 567 L 254 567 L 244 562 L 230 560 Z M 159 561 L 158 565 L 160 564 L 159 561 Z M 157 563 L 156 566 L 157 566 L 157 563 Z M 153 564 Q 150 569 154 568 L 153 564 Z M 175 564 L 174 570 L 175 570 L 175 564 Z M 182 564 L 183 575 L 184 575 L 184 565 L 182 564 Z M 214 565 L 210 567 Q 207 568 208 573 L 214 573 L 230 582 L 250 588 L 266 587 L 277 583 L 279 583 Q 287 582 292 585 L 294 589 L 298 591 L 300 591 L 302 590 L 303 591 L 335 591 L 334 588 L 335 583 L 335 581 L 335 579 Q 333 582 328 581 L 326 583 L 312 583 L 289 574 L 286 573 L 276 576 L 274 575 L 262 578 L 245 575 L 229 567 L 214 565 Z M 172 566 L 171 577 L 173 577 Q 171 574 172 566 Z M 147 567 L 145 572 L 147 572 L 147 567 Z M 192 567 L 190 569 L 191 573 L 189 574 Q 185 575 187 570 L 185 571 L 188 577 L 193 573 L 192 567 Z M 11 568 L 10 571 L 12 572 L 11 568 Z M 143 569 L 143 571 L 142 573 L 144 573 L 144 569 L 143 569 Z M 156 569 L 157 571 L 159 570 L 156 569 Z M 166 569 L 164 571 L 166 572 L 166 569 Z M 169 569 L 168 572 L 169 572 L 169 569 Z M 20 571 L 19 574 L 21 575 L 20 571 Z M 140 571 L 139 575 L 140 575 L 140 571 Z M 152 571 L 152 573 L 154 572 L 152 571 Z M 161 571 Q 160 574 163 573 Q 164 570 161 571 Z M 136 572 L 137 576 L 138 574 Q 139 571 136 572 Z M 113 573 L 113 576 L 114 576 Q 115 572 113 573 Z M 120 573 L 119 575 L 121 576 L 120 573 Z M 166 573 Q 163 574 165 576 Q 166 580 163 579 L 163 577 L 162 580 L 157 581 L 157 579 L 156 582 L 153 580 L 154 576 L 152 577 L 152 584 L 150 584 L 150 578 L 149 585 L 145 584 L 147 587 L 156 585 Q 160 581 168 580 L 166 573 Z M 175 573 L 174 576 L 176 576 L 175 573 Z M 178 573 L 177 576 L 178 576 L 178 573 Z M 132 574 L 131 576 L 130 579 L 132 579 L 132 574 Z M 157 574 L 156 578 L 157 578 L 157 574 Z M 196 574 L 191 578 L 194 579 L 197 582 L 196 574 Z M 23 575 L 22 578 L 24 579 L 23 575 Z M 210 576 L 210 582 L 214 590 L 241 590 L 238 587 L 230 585 L 220 579 L 210 576 Z M 49 578 L 48 583 L 49 583 L 49 578 Z M 100 578 Q 99 581 102 580 Q 103 577 100 578 Z M 128 578 L 127 581 L 128 581 L 128 578 Z M 177 578 L 173 579 L 172 581 L 175 580 L 185 580 Q 192 582 196 587 Q 199 586 197 590 L 199 590 L 198 582 L 197 584 L 190 579 L 177 578 Z M 99 579 L 97 581 L 99 581 L 99 579 Z M 110 579 L 109 582 L 110 582 L 110 579 Z M 144 579 L 142 581 L 144 581 L 144 579 Z M 139 580 L 140 585 L 139 588 L 141 589 L 141 581 L 139 580 Z M 57 581 L 57 584 L 58 584 Q 59 580 57 581 Z M 138 581 L 136 584 L 138 583 L 138 581 Z M 88 582 Q 87 585 90 584 Q 91 581 88 582 Z M 177 582 L 166 585 L 172 588 Q 174 587 173 590 L 182 590 L 183 589 L 192 590 L 194 590 L 195 590 Q 190 581 177 582 Z M 29 584 L 29 586 Q 28 588 31 587 L 30 586 Q 31 583 29 584 Z M 43 584 L 44 586 Q 45 583 43 584 Z M 114 584 L 112 586 L 114 586 L 114 584 Z M 128 584 L 127 590 L 137 590 Q 138 592 139 590 L 138 586 L 137 589 L 136 589 Q 137 586 134 587 L 134 589 L 132 587 L 133 584 L 130 586 L 131 588 Q 132 590 129 589 L 128 584 Z M 142 584 L 142 589 L 144 589 L 144 584 L 142 584 Z M 22 585 L 23 591 L 24 591 Q 26 584 22 585 Z M 110 585 L 109 588 L 110 588 L 110 585 Z M 123 585 L 123 589 L 119 587 L 120 591 L 125 590 L 125 585 L 123 585 Z M 282 585 Q 280 588 275 586 L 265 590 L 270 591 L 273 590 L 275 591 L 277 590 L 280 591 L 282 590 L 285 591 L 291 591 L 291 589 L 282 585 Z M 17 586 L 16 589 L 18 590 L 17 586 Z M 108 586 L 106 588 L 107 590 L 108 588 L 108 586 Z M 159 586 L 151 589 Q 146 588 147 591 L 151 590 L 168 590 L 161 586 L 159 586 Z M 105 587 L 103 590 L 105 589 L 105 587 Z M 33 588 Q 30 592 34 591 L 33 588 Z M 55 589 L 56 591 Q 57 588 55 589 Z "></path><path d="M 158.5 18 L 161.5 19 L 162.5 18 L 190 18 L 188.5 21 L 180 21 L 180 33 L 187.5 33 L 188.5 32 L 190 36 L 177.5 36 L 176.5 37 L 154.5 37 L 152.5 38 L 151 35.5 L 152.5 34 L 161 34 Q 160.6 26.2 155.5 22 Q 151 23 150 20.5 L 150.5 19 L 157.5 19 L 158.5 18 Z M 164 21 L 162 23 L 165 29 L 168 23 L 164 21 Z M 173 21 L 169 30 L 170 34 L 176 33 L 176 22 L 175 21 L 173 21 Z "></path><path d="M 219.5 232 L 221.5 233 L 223.5 232 L 223.5 233 L 220.5 234 L 219.5 232 Z "></path><path d="M 55.5 236 L 57.5 237 L 60 236 Q 61.1 238.7 58.5 238 L 58.5 239 Q 61.1 238.3 60 241 Q 57.3 242.1 58 239.5 Q 56.8 236.8 55.5 239 L 35 238.5 L 36.5 237 L 54.5 237 L 55.5 236 Z "></path><path d="M 22 237 L 33 238 Q 34.4 242 27.5 240 L 23.5 239 L 22 239.5 L 22 237 Z "></path><path d="M 12.5 240 L 13.5 241 L 31.5 241 L 32.5 242 L 33.5 241 L 43.5 241 L 45.5 242 L 46.5 241 L 54.5 241 L 55.5 243 L 54 243.5 L 58 244 L 57.5 246 L 44.5 246 L 42.5 246 L 39.5 247 L 34.5 246 L 32.5 246 L 30.5 247 L 30 245.5 Q 31.3 242.7 32.5 245 L 35 244.5 L 33.5 243 L 13.5 243 L 12.5 242 L 11 242.5 L 12.5 240 Z M 36 243 L 36 245 L 45 245 L 45 243 L 42 244 L 36 243 Z M 47 243 L 47 244 L 53 244 L 47 243 Z "></path><path d="M 160.5 240 L 166.5 241 L 168.5 240 L 171 241 Q 172.3 244 168.5 243 L 166.5 242 L 165.5 243 L 158 243 Q 156.9 240.3 159.5 241 L 160.5 240 Z "></path><path d="M 198.5 244 L 204 245.5 L 193.5 246 L 193.5 245 L 198.5 244 Z "></path><path d="M 231.5 245 L 234 245.5 L 231.5 246 L 231.5 245 Z "></path><path d="M 161.5 246 L 163.5 247 L 165.5 246 L 166.5 248 L 161 248 L 161.5 246 Z "></path><path d="M 207.5 246 Q 211.3 245 210 248 L 207.5 246 Z "></path><path d="M 9 249 L 26 250 Q 27.3 253 23.5 252 L 21.5 252 Q 15.5 253 13.5 250 L 9 251 L 9 249 Z "></path><path d="M 36.5 249 L 37.5 250 L 46.5 250 L 53 249 Q 54.1 252.5 46.5 251 L 41.5 252 L 36 251 L 36.5 249 Z "></path><path d="M 235.5 250 L 238 251.5 L 234.5 252 L 235.5 250 Z "></path><path d="M 194.5 251 L 200 251.5 L 194.5 252 L 194.5 251 Z "></path><path d="M 88.5 252 L 89 253.5 L 87 254.5 L 88.5 252 Z "></path><path d="M 143.5 253 Q 147.3 252.3 148 254.5 L 146.5 255 L 144.5 254 L 141.5 255 L 141.5 254 L 143.5 253 Z "></path><path d="M 159 253 Q 162 252 161 255 Q 158 256 159 253 Z "></path><path d="M 223.5 253 L 225 255.5 L 223 254.5 L 223.5 253 Z "></path><path d="M 27 254 Q 31.6 252.8 33 255.5 L 32.5 257 L 28.5 255 L 27 255.5 L 27 254 Z "></path><path d="M 58.5 254 L 59.5 256 Q 56.7 256.7 58.5 254 Z "></path><path d="M 11.5 255 Q 15.3 254 14 257 L 9 256.5 L 11.5 255 Z "></path><path d="M 45.5 255 L 49 255.5 L 45.5 256 L 45.5 255 Z "></path><path d="M 84.5 255 L 85 258.5 L 84 258.5 L 84.5 255 Z "></path><path d="M 93.5 255 L 94.5 257 L 93.5 255 Z "></path><path d="M 86.5 256 L 87.5 258 L 86.5 256 Z "></path><path d="M 86.5 259 L 87 261.5 L 85 262.5 L 86.5 259 Z "></path><path d="M 103.5 259 L 104 261 L 102 260.5 L 103.5 259 Z "></path><path d="M 122.5 260 Q 124.8 259.3 124 261.5 L 122.5 260 Z "></path><path d="M 125.5 260 L 128 261.5 Q 126.5 264.5 125 261.5 L 125.5 260 Z "></path><path d="M 107.5 261 L 108.5 263 Q 105.5 262.1 107 266.5 L 106 266.5 L 107.5 261 Z "></path><path d="M 110.5 261 L 111 264.5 L 108.5 272 L 107 269.5 L 109 269 L 110.5 261 Z "></path><path d="M 79.5 262 L 78 264.5 L 79 269 L 77 269 Q 78.1 266.3 75.5 267 L 74 267.5 L 75.5 265 L 77 265.5 L 79.5 262 Z "></path><path d="M 81.5 262 Q 83.8 263.8 83 268.5 L 80.5 272 L 80 268.5 L 80 266.5 L 81.5 262 Z "></path><path d="M 91.5 262 L 92 264.5 L 91 264.5 L 91.5 262 Z "></path><path d="M 213.5 264 L 214.5 266 L 213.5 264 Z "></path><path d="M 94.5 266 L 95 268.5 L 94 268.5 L 94.5 266 Z "></path><path d="M 102 266 Q 104.7 264.9 104 267.5 L 101.5 273 L 99.5 269 Q 97.3 269.8 98 267.5 L 100.5 269 Q 103.5 269.7 102 266 Z "></path><path d="M 86.5 268 L 89 268.5 L 87 271.5 L 89 272.5 L 86 273 L 85.5 270 L 84 270.5 L 86.5 268 Z "></path><path d="M 96.5 270 L 97.5 272 Q 94.7 272.7 96.5 270 Z "></path><path d="M 94.5 271 L 93.5 273 L 94.5 271 Z "></path><path d="M 106 273 Q 109 272 108 275 Q 105 276 106 273 Z "></path><path d="M 109 273 Q 112 272 111 275 Q 108 276 109 273 Z "></path><path d="M 113.5 273 L 113 274.5 L 115 278.5 L 113 279.5 L 112 274.5 L 113.5 273 Z "></path><path d="M 136.5 274 L 137 275.5 L 136 280 L 134 279.5 L 136.5 274 Z "></path><path d="M 223.5 274 L 224.5 276 Q 221.7 276.7 223.5 274 Z "></path><path d="M 117.5 276 L 116.5 278 L 117.5 276 Z "></path><path d="M 139.5 277 L 140 280.5 L 139 280.5 L 139.5 277 Z "></path><path d="M 91.5 278 Q 93.8 277.3 93 279.5 L 91.5 282 L 91 280.5 L 91.5 278 Z "></path><path d="M 94 278 L 96 278.5 L 94.5 281 L 94 278 Z "></path><path d="M 108.5 278 L 109 280.5 L 107 286 Q 103.7 287.1 105 283 Q 107.7 284.1 107 281.5 L 108.5 278 Z "></path><path d="M 130.5 279 L 131 280.5 L 129 281.5 L 130.5 279 Z "></path><path d="M 111.5 280 L 112 283 L 114 283.5 L 112.5 284 L 110.5 284 L 109 283.5 L 111.5 280 Z "></path><path d="M 99.5 283 L 103 285.5 L 100 286 L 99.5 283 Z "></path><path d="M 124.5 283 L 125 285 L 121 286 L 121.5 284 Q 123 286.5 124.5 283 Z "></path><path d="M 70.5 284 L 71 286.5 L 70 286.5 L 70.5 284 Z "></path><path d="M 129.5 284 L 130.5 286 Q 127.7 286.7 129.5 284 Z "></path><path d="M 126.5 288 L 127 290 L 125 289.5 L 126.5 288 Z "></path><path d="M 109.5 289 L 110 291 L 108 290.5 L 109.5 289 Z "></path><path d="M 101.5 290 L 102 295 L 100 294.5 L 101.5 290 Z "></path><path d="M 95.5 294 L 97 296.5 L 95.5 299 L 95 296.5 L 95.5 294 Z "></path><path d="M 79.5 297 L 80.5 299 Q 77.7 299.7 79.5 297 Z "></path><path d="M 98.5 302 L 99.5 306 Q 97.3 306.8 98 304.5 Q 95.7 303.3 98.5 302 Z "></path><path d="M 94 306 L 96 306.5 L 94 307.5 L 94 306 Z "></path><path d="M 70.5 307 L 71 309.5 L 70 309.5 L 70.5 307 Z "></path><path d="M 95 309 Q 98.7 307.6 97 313.5 L 95.5 313 Q 92.5 312.2 94 316 L 97 317.5 Q 97.8 319.8 95.5 319 L 92 312.5 L 96 311.5 L 95 309 Z "></path><path d="M 91.5 315 L 92 317.5 L 91 317.5 L 91.5 315 Z "></path><path d="M 99 316 L 101 316.5 L 99 319.5 L 100 322 Q 97 323.3 98 319.5 L 99 316 Z "></path><path d="M 86.5 317 L 87.5 319 L 89 318.5 Q 87.5 321.5 86 318.5 L 86.5 317 Z "></path><path d="M 64.5 318 L 65 319.5 L 63 320.5 L 64.5 318 Z "></path><path d="M 95.5 321 L 95 322.5 L 94.5 324 L 94 322.5 L 95.5 321 Z "></path><path d="M 89.5 325 L 88.5 327 L 89.5 325 Z "></path><path d="M 91.5 326 L 93 328.5 L 91 327.5 L 91.5 326 Z "></path><path d="M 85 333 L 92 334.5 L 88.5 335 L 87 334.5 L 86.5 336 L 85 333 Z "></path><path d="M 89.5 336 L 88.5 338 L 89.5 336 Z "></path><path d="M 74.5 340 L 75 342.5 L 74 342.5 L 74.5 340 Z "></path><path d="M 88.5 341 L 89 343.5 L 90 346.5 L 86.5 344 L 85 343.5 L 88.5 341 Z "></path><path d="M 186.5 345 L 189 348.5 L 188 348.5 L 186.5 346 L 186 348.5 L 186.5 350 L 185 346.5 L 186.5 345 Z "></path><path d="M 187.5 357 L 189 359.5 L 187 358.5 L 187.5 357 Z "></path><path d="M 76.5 358 L 75.5 360 L 76.5 358 Z "></path><path d="M 225.5 367 Q 229.9 365.5 229 368.5 L 225.5 375 L 226 373.5 L 227 370.5 L 225.5 371 L 222.5 373 L 219 377.5 L 221.5 376 L 223 377.5 L 223.5 379 L 224 376.5 L 223.5 375 Q 226 376.2 225 380 L 222.5 379 L 213 403 L 211 403.5 L 211.5 405 Q 208.1 405.9 210 400.5 Q 212.3 399.3 209.5 398 L 209 400 Q 204.9 401.7 206 397.5 L 208 392.5 L 207.5 391 Q 208.7 393.3 210 390.5 L 209.5 386 L 207.5 390 L 208 388.5 L 209.5 385 L 211 385.5 L 210.5 383 L 209 383.5 L 210 381.5 L 209.5 380 L 211 380.5 L 212.5 376 L 213.5 379 L 214 377 L 216 377 Q 214.5 373.3 217.5 374 L 225.5 367 Z M 219 378 L 217 381 L 219 380 L 219 378 Z M 217 381 L 214 385 Q 214 392 210 397 Q 209 399 212 398 L 217 384 L 217 381 Z "></path><path d="M 218.5 369 L 219 370.5 L 215.5 373 L 215.5 370 Q 217 372.5 218.5 369 Z "></path><path d="M 187.5 370 L 189 372.5 L 187 371.5 L 187.5 370 Z "></path><path d="M 230.5 371 L 232 373.5 L 230 372.5 L 230.5 371 Z "></path><path d="M 212.5 373 L 215 374.5 L 213.5 375 L 212.5 373 Z "></path><path d="M 68.5 375 L 70.5 375 L 73 376.5 L 73 378 L 68 378 L 68.5 375 Z "></path><path d="M 79.5 376 L 80 377.5 L 78.5 381 L 78 378.5 L 79.5 376 Z "></path><path d="M 187.5 376 L 188.5 378 L 187.5 376 Z "></path><path d="M 224.5 382 L 224 383.5 L 223.5 385 L 223 383.5 L 224.5 382 Z "></path><path d="M 226.5 384 L 227 387.5 L 225 386.5 L 226.5 384 Z "></path><path d="M 89.5 388 L 90 390.5 L 89 390.5 L 89.5 388 Z "></path><path d="M 186.5 388 L 185.5 390 L 186.5 388 Z "></path><path d="M 220.5 388 L 221 389.5 L 219 390.5 L 220.5 388 Z "></path><path d="M 75 389 L 77 389.5 L 75 390.5 L 75 389 Z "></path><path d="M 204 389 L 206 389.5 L 203.5 394 L 203 392.5 L 204 389 Z "></path><path d="M 200.5 393 L 199 395.5 L 197.5 398 L 197 395 L 200.5 393 Z "></path><path d="M 194 394 L 196 394.5 L 194 395.5 L 194 394 Z "></path><path d="M 219 394 L 222 394.5 L 219.5 396 L 219 394 Z "></path><path d="M 228 395 Q 231 394 230 397 Q 227 398 228 395 Z "></path><path d="M 75.5 399 L 76 401 L 74 400.5 L 75.5 399 Z "></path><path d="M 233.5 400 L 232.5 402 L 233.5 400 Z "></path><path d="M 203.5 401 L 204.5 403 L 203.5 401 Z "></path><path d="M 217 401 L 219 401.5 L 216.5 411 L 216 408.5 L 217 407.5 L 217 401 Z "></path><path d="M 207 402 Q 210 401 209 404 L 206 405.5 L 206.5 409 L 208.5 405 L 209 407.5 L 207 413.5 L 209 412.5 L 210.5 409 L 211 410.5 L 208.5 419 L 208 417.5 L 209 415 Q 205.3 413.6 207 419.5 L 207.5 421 L 205 419.5 Q 207.2 418.3 206 413.5 L 206 411.5 L 205 405.5 L 207 402 Z "></path><path d="M 215.5 403 L 216 407 Q 213 408.3 214 404.5 L 215.5 403 Z "></path><path d="M 82.5 404 L 83 406.5 L 82 406.5 L 82.5 404 Z "></path><path d="M 199.5 404 L 201.5 407 L 203.5 404 L 203 405.5 L 202 409.5 L 203 412.5 L 202 414.5 L 203 418 L 200 416.5 L 199 414.5 L 199.5 413 Q 196.9 413.7 198 411 L 200 410.5 L 199 407.5 L 199 405.5 L 199.5 404 Z M 201 407 L 201 410 Q 204 409 201 407 Z M 201 411 L 202 413 Q 203 410 201 411 Z "></path><path d="M 75 407 L 77 407.5 L 75 408.5 L 75 407 Z "></path><path d="M 214.5 408 L 215 410.5 L 214 410.5 L 214.5 408 Z "></path><path d="M 214.5 412 L 213.5 414 L 214.5 412 Z "></path><path d="M 186 415 L 188 415.5 L 186 416.5 L 186 415 Z "></path><path d="M 189.5 417 L 190 419 L 188 418.5 L 189.5 417 Z "></path><path d="M 209 420 L 211 420.5 L 209.5 424 Q 206.8 422.8 209 421.5 L 209 420 Z "></path><path d="M 197.5 421 L 198 423.5 L 194.5 433 L 195 431.5 L 194.5 429 L 192.5 432 L 192 430.5 L 193 428 Q 196 429.3 195 425.5 L 197.5 421 Z "></path><path d="M 200.5 425 L 201 427.5 L 200 427.5 L 200.5 425 Z "></path><path d="M 207 425 Q 213 422.8 211 429.5 L 210 429.5 Q 211.5 425.1 208.5 426 L 207 426.5 L 207 425 Z "></path><path d="M 203.5 426 L 204 427.5 L 202 428.5 L 203.5 426 Z "></path><path d="M 158.5 427 L 160 432.5 L 158 433 L 157 428.5 L 158.5 427 Z "></path><path d="M 190.5 427 L 191 428.5 L 189 429.5 L 190.5 427 Z "></path><path d="M 89.5 428 L 90 430.5 L 88 429.5 L 89.5 428 Z "></path><path d="M 198.5 430 L 200 432.5 L 198 432.5 L 197.5 434 L 197 431.5 L 198.5 430 Z "></path><path d="M 202.5 430 L 204 442 L 202 441.5 L 203 436.5 L 202 436.5 Q 202.8 440.3 200.5 441 Q 198.3 441.8 199 439.5 Q 203 437 202.5 430 Z "></path><path d="M 207.5 431 L 208 433.5 L 207 433.5 L 207.5 431 Z "></path><path d="M 183.5 434 L 182 436.5 L 180 440.5 L 180.5 442 Q 178.3 442.8 179 440.5 L 183.5 434 Z "></path><path d="M 184.5 436 L 184 437.5 L 182.5 445 L 182 439.5 L 184.5 436 Z "></path><path d="M 186.5 436 L 188 438.5 L 186 437.5 L 186.5 436 Z "></path><path d="M 206.5 437 L 207 440.5 L 206 440.5 L 206.5 437 Z "></path><path d="M 194.5 439 Q 197.1 438.3 196 441 Q 193.3 439.9 194 442.5 L 195 445.5 L 193.5 448 L 193 446.5 L 194 443.5 Q 189.8 441.3 194.5 439 Z "></path><path d="M 188.5 440 L 189 441.5 L 188 445.5 L 185.5 448 L 187 445.5 Q 186 441 188.5 440 Z "></path><path d="M 207.5 442 L 208 445.5 L 207 445.5 L 207.5 442 Z "></path><path d="M 213.5 442 L 214 445.5 L 213 445.5 L 213.5 442 Z "></path><path d="M 189.5 443 Q 191.8 442.3 191 444.5 L 189.5 443 Z "></path><path d="M 180.5 444 L 181.5 448 L 182.5 446 L 183 447.5 L 183 449.5 L 182.5 451 Q 178.8 449 180.5 444 Z "></path><path d="M 190.5 446 L 192 446.5 L 189 448.5 Q 191.3 449.8 188.5 451 Q 186.3 451.8 187 449.5 L 190.5 446 Z "></path><path d="M 196.5 447 L 198 449.5 L 197 452.5 L 197 454.5 L 196 460 Q 193 461 194 458 L 191 458 Q 192.1 460.7 189.5 460 Q 186.8 461.2 189 462.5 L 188.5 464 L 187 461.5 L 188.5 457 L 190 457.5 L 191 454.5 L 190.5 453 L 194 454.5 L 194.5 458 L 196 451.5 L 195.5 450 Q 197.8 450.8 197 448.5 L 196.5 447 Z M 193 455 L 191 457 L 193 457 L 193 455 Z "></path><path d="M 184.5 450 Q 187.8 451.7 187 457.5 L 185 458.5 L 186 456.5 Q 183 454 184.5 450 Z "></path><path d="M 206 450 L 208 450.5 L 206.5 455 L 206 450 Z "></path><path d="M 181 453 L 183 453.5 L 183 455.5 L 182.5 457 L 181 453 Z "></path><path d="M 201.5 455 L 203 458.5 L 201.5 461 L 201.5 455 Z "></path><path d="M 154.5 456 L 156.5 456 L 159 457.5 L 157.5 457 L 155.5 458 L 154.5 456 Z "></path><path d="M 152.5 457 L 157 463.5 L 156 463.5 L 152.5 457 Z "></path><path d="M 165.5 458 L 166.5 460 Q 163.7 460.7 165.5 458 Z "></path><path d="M 152.5 460 L 155 463.5 L 152 461.5 L 152.5 460 Z "></path><path d="M 146.5 461 L 147.5 463 L 146.5 461 Z "></path><path d="M 191.5 461 L 192 466.5 L 190.5 470 L 188 466.5 L 191 463.5 Q 188.8 462.3 191.5 461 Z "></path><path d="M 200 462 L 202 462.5 L 200 463.5 L 200 462 Z "></path><path d="M 162.5 463 L 165 466.5 L 164 466.5 L 162.5 463 Z "></path><path d="M 200.5 465 L 201 468.5 L 200 468.5 L 200.5 465 Z "></path><path d="M 143.5 466 L 143 467.5 L 142.5 469 L 142 467.5 L 143.5 466 Z "></path><path d="M 153.5 467 L 154.5 469 L 153.5 467 Z "></path><path d="M 156.5 467 L 157.5 469 Q 154.7 469.7 156.5 467 Z "></path><path d="M 151.5 468 L 152 469.5 L 149.5 471 L 149.5 470 Q 152 470.7 151.5 468 Z "></path><path d="M 240.5 468 Q 243.3 469.3 241 470.5 Q 235.4 482.4 225.5 490 L 217.5 494 L 216 491 L 219.5 491 L 227 487 L 240.5 468 Z "></path><path d="M 143.5 470 L 145.5 473 L 143 472.5 L 143.5 470 Z "></path><path d="M 155.5 470 L 156.5 472 L 155.5 470 Z "></path><path d="M 158.5 470 L 159.5 472 L 158.5 470 Z "></path><path d="M 185.5 470 Q 189.8 471.7 187 473.5 L 186.5 475 L 185.5 470 Z "></path><path d="M 147.5 471 L 151 475.5 L 149 474.5 L 147.5 471 Z "></path><path d="M 190.5 471 Q 193.1 470.2 192 473.5 L 191 473.5 L 190.5 471 Z "></path><path d="M 151.5 472 L 152.5 474 L 151.5 472 Z "></path><path d="M 154.5 472 L 157 475.5 L 156 475.5 L 154.5 472 Z "></path><path d="M 275.5 472 L 276 475.5 L 275 475.5 L 275.5 472 Z "></path><path d="M 213.5 473 L 214 476.5 L 213 476.5 L 213.5 473 Z "></path><path d="M 217.5 474 L 218 476.5 L 217 476.5 L 217.5 474 Z "></path><path d="M 162.5 475 L 163.5 477 L 162.5 475 Z "></path><path d="M 77 476 L 79 476.5 L 77 477.5 L 77 476 Z "></path><path d="M 192.5 476 L 192 477.5 L 191.5 479 L 191 477.5 L 192.5 476 Z "></path><path d="M 197.5 482 Q 200.5 483.5 197.5 485 L 197.5 482 Z "></path><path d="M 188.5 483 L 191 483.5 L 191 485.5 L 190.5 491 Q 190.7 484.7 188.5 483 Z "></path><path d="M 277.5 483 L 278 484.5 L 276 485.5 L 277.5 483 Z "></path><path d="M 158.5 485 L 162 491.5 L 161 491.5 Q 161.9 488.5 157.5 490 L 157.5 489 L 160 488.5 Q 157 487.5 158.5 485 Z "></path><path d="M 152.5 486 L 153.5 488 L 152.5 486 Z "></path><path d="M 268.5 486 L 269 488.5 L 266.5 489 L 265 488.5 L 268.5 486 Z "></path><path d="M 193.5 487 L 194 490.5 L 192 491.5 L 193.5 487 Z "></path><path d="M 145.5 489 L 146.5 491 L 145.5 489 Z "></path><path d="M 264 490 L 266 490.5 L 264 491.5 L 264 490 Z "></path><path d="M 129.5 493 L 130 495.5 L 129 495.5 L 129.5 493 Z "></path><path d="M 191.5 493 Q 194.8 491.9 194 494.5 L 192 495.5 L 191.5 493 Z "></path><path d="M 146.5 494 L 147.5 496 L 146.5 494 Z "></path><path d="M 149.5 494 L 151.5 494 L 153 494.5 L 150.5 496 L 149.5 494 Z "></path><path d="M 197.5 494 L 198 495.5 L 198 497.5 L 198.5 500 L 200.5 497 L 201 498.5 L 198.5 502 L 197.5 500 L 195.5 501 L 197 498.5 L 196.5 497 L 193 499.5 L 192.5 502 L 192 498.5 L 196 497 L 197.5 494 Z "></path><path d="M 158.5 495 L 160 495.5 L 156 497 L 155.5 499 L 155 497 L 153 496.5 L 154.5 496 L 156.5 496 L 158.5 495 Z "></path><path d="M 202.5 495 Q 205.1 494.2 204 497.5 L 202 498.5 L 203 496.5 L 202.5 495 Z "></path><path d="M 135 496 L 137 496.5 L 135 497.5 L 135 496 Z "></path><path d="M 205 498 Q 208 497 207 500 Q 204 501 205 498 Z "></path><path d="M 124.5 501 L 125 503.5 L 124 503.5 L 124.5 501 Z "></path><path d="M 136.5 501 L 138 501.5 L 136 502 L 137.5 505 L 138.5 503 L 139 504.5 L 138 506.5 L 138.5 508 L 134 502.5 L 136.5 501 Z "></path><path d="M 194.5 502 L 197 506.5 L 196 506.5 L 194.5 502 Z "></path><path d="M 147.5 504 L 150.5 508 L 147.5 504 Z "></path><path d="M 200 505 L 202 505.5 L 200 509.5 Q 202.3 510.7 199.5 512 L 199.5 510 L 198 509.5 Q 200.7 508.4 200 505 Z "></path><path d="M 155.5 506 L 157 508.5 L 156 508.5 L 155.5 506 Z "></path><path d="M 152.5 507 L 153.5 509 L 152.5 507 Z "></path><path d="M 149.5 509 L 150 511 L 147 510.5 L 149.5 509 Z "></path><path d="M 172.5 515 L 173.5 517 Q 170.7 517.7 172.5 515 Z "></path><path d="M 99.5 522 L 100.5 524 Q 97.7 524.7 99.5 522 Z "></path><path d="M 92.5 523 L 93.5 525 Q 90.7 525.7 92.5 523 Z "></path><path d="M 114.5 525 Q 117.1 524.2 116 527.5 L 116.5 529 L 114 527.5 L 114.5 525 Z "></path><path d="M 101.5 526 L 103 528.5 L 102 531 L 100 530.5 L 101.5 526 Z "></path><path d="M 109.5 526 L 113 528 L 113 532 L 114.5 532 L 115.5 534 L 111 533 L 110 530.5 L 112 530.5 L 109.5 527 L 108 527.5 L 109.5 526 Z "></path><path d="M 135.5 533 L 136 536.5 L 135 536.5 L 135.5 533 Z "></path><path d="M 118.5 534 L 119 536.5 L 117 537.5 L 118.5 534 Z "></path><path d="M 127.5 534 L 126.5 536 L 127.5 534 Z "></path><path d="M 130 537 L 133 537.5 L 130.5 539 L 130 537 Z "></path><path d="M 145.5 538 L 146 540.5 L 145 540.5 L 145.5 538 Z "></path><path d="M 150.5 538 Q 153.5 539.5 150.5 541 L 150.5 538 Z "></path><path d="M 342 544 L 344 544.5 L 342 545.5 L 342 544 Z "></path><path d="M 342 547 Q 344.7 545.9 344 548.5 L 342.5 553 L 342 547 Z "></path><path d="M 69.5 553 L 70 554.5 L 70 556.5 L 69.5 558 L 68.5 556 L 67.5 558 L 67 556.5 L 69.5 553 Z "></path><path d="M 54.5 555 L 56 555.5 L 55 558 Q 50.9 559.3 52 556 L 54.5 555 Z "></path><path d="M 72.5 555 L 74 560.5 L 71 558.5 L 72.5 555 Z "></path><path d="M 76.5 555 L 77 557 L 79 557.5 L 77.5 558 L 75.5 558 L 74 557.5 L 76 557 L 76.5 555 Z "></path><path d="M 80 557 Q 82.7 555.9 82 558.5 L 80 559.5 L 80 557 Z "></path><path d="M 82.5 562 L 83 564.5 L 82 564.5 L 82.5 562 Z "></path><path d="M 343.5 562 L 344.5 564 L 343.5 562 Z "></path><path d="M 108.5 563 L 109.5 565 Q 106.7 565.7 108.5 563 Z "></path><path d="M 341.5 563 L 342.5 565 Q 339.7 565.7 341.5 563 Z "></path><path d="M 57.5 564 L 58 566.5 L 57 566.5 L 57.5 564 Z "></path><path d="M 64.5 564 L 68 566.5 L 66 567 L 65.5 569 L 64.5 565 L 63.5 567 L 63 565.5 L 64.5 564 Z "></path><path d="M 113.5 566 L 114.5 568 L 113.5 566 Z "></path><path d="M 98 567 L 100 567.5 L 98 568.5 L 98 567 Z "></path><path d="M 96.5 569 L 96 570.5 Q 96.8 572.8 94.5 572 L 89.5 574 L 91.5 571 L 96.5 569 Z "></path><path d="M 76.5 571 L 79 571.5 L 77.5 574 L 76.5 571 Z "></path><path d="M 86.5 575 L 89 575.5 Q 89.7 578.5 86 577 L 86.5 575 Z "></path><path d="M 73.5 578 L 72.5 580 L 73.5 578 Z "></path><path d="M 79.5 580 Q 81.8 579.3 81 581.5 L 79.5 580 Z "></path><path d="M 341.5 580 L 345 580.5 L 341.5 581 L 341.5 580 Z "></path><path d="M 344.5 589 L 346 592.5 L 344 593.5 L 345 590.5 L 344.5 589 Z "></path><path d="M 341.5 590 L 342 592.5 L 341 592.5 L 341.5 590 Z "></path></svg>