<svg width="350" height="600" version="1.1" xmlns="http://www.w3.org/2000/svg" desc="Created with imagetracer.js version 1.2.5"><path d="M 209.5 5 L 210.5 6 L 301.5 6 L 302.5 7 L 331.5 7 L 335 8 L 336 55.5 L 335 56.5 L 335 79.5 Q 337.8 81.3 336 87.5 L 335 88.5 L 335 102.5 L 336 103.5 L 336 138.5 L 336 140.5 L 336 207.5 L 337 208.5 L 337 220.5 Q 334.3 222.3 336 228.5 L 337 230.5 L 336 233.5 L 337 237.5 L 336 240.5 L 336 242.5 L 337 244.5 L 337 285.5 L 336 289.5 L 337 292.5 L 336 293.5 L 336 312.5 L 337 313.5 L 337 404.5 L 336 406.5 L 337 410.5 L 337 412.5 L 336 415.5 L 337 419.5 Q 334.5 421 336 426.5 L 337 427.5 L 337 453.5 L 338 455.5 L 337 458.5 L 338 459.5 L 338 470.5 L 337 472.5 L 338 473.5 L 338 496.5 L 337 498.5 L 338 499.5 L 338 549.5 L 339 550.5 L 338 553.5 L 339 558.5 L 338 562.5 L 339 565.5 L 339 567.5 L 339 589.5 L 338 592 L 323.5 592 L 320.5 591 Q 319.3 593.3 314.5 592 L 312.5 592 L 309.5 591 L 307.5 592 L 306.5 591 L 296.5 591 L 293.5 592 L 292.5 591 L 278.5 591 L 276.5 592 L 275.5 591 L 252.5 591 L 251.5 592 L 174.5 592 L 172.5 593 L 171.5 592 L 163.5 592 L 158.5 593 L 154.5 592 L 152.5 593 L 151.5 592 L 137.5 592 Q 136.2 594.3 131.5 593 L 129.5 592 L 127.5 592 L 125.5 593 L 123.5 593 L 112.5 593 L 110.5 592 L 108.5 593 L 106.5 593 L 103.5 592 L 99.5 593 L 96.5 592 L 94.5 593 L 89.5 592 L 87.5 592 L 81.5 593 L 78.5 592 Q 77.3 594.3 72.5 593 L 70.5 593 L 6.5 593 L 5 591.5 L 4 576.5 L 5 575.5 L 5 539.5 L 5 537.5 L 5 458.5 L 4 455.5 L 5 454.5 L 5 442.5 Q 2.3 440.7 4 434.5 Q 6.5 433 5 427.5 L 4 426.5 L 4 358.5 L 5 356.5 L 4 353.5 L 5 349.5 L 4 348.5 L 4 309.5 L 4 307.5 L 4 45.5 L 5 43.5 L 4 40.5 L 5 38.5 L 4 36.5 L 5 35.5 L 5 9.5 L 8.5 6 L 9.5 7 L 43.5 7 L 45.5 8 L 48.5 7 L 51.5 8 L 54.5 7 L 57.5 8 L 59.5 7 L 64.5 8 L 67.5 7 L 68.5 8 L 78.5 8 L 80.5 8 L 86.5 7 L 88.5 7 L 95.5 8 L 96.5 7 L 166.5 7 L 167.5 6 L 175.5 6 L 177.5 7 L 178.5 6 L 208.5 6 L 209.5 5 Z M 188 8 L 187 9 L 137 9 L 136 10 L 133 9 L 125 9 L 124 10 L 82 10 L 79 9 L 77 10 L 66 10 L 65 9 L 10 9 Q 8 9 9 15 L 9 17 L 8 22 L 8 99 L 7 100 L 8 102 L 8 120 L 8 122 L 8 307 L 7 308 Q 5 314 8 316 L 7 318 L 8 321 L 8 332 L 7 333 L 8 336 L 9 426 L 13 423 Q 17 422 16 425 L 11 427 L 8 430 L 8 440 Q 15 439 18 441 L 18 427 L 17 426 L 18 423 Q 17 420 20 421 L 24 416 L 26 418 Q 27 420 24 419 Q 23 422 27 421 L 28 420 L 28 415 Q 32 411 31 404 L 33 401 Q 32 398 35 399 L 30 418 L 31 421 L 31 420 L 36 416 L 40 416 L 41 414 L 49 409 L 60 409 L 63 412 L 66 411 L 71 412 L 73 416 L 76 415 L 78 416 L 80 413 L 81 403 L 84 395 L 84 388 L 87 380 Q 90 373 97 373 L 98 368 L 103 366 L 108 359 L 114 355 Q 115 358 113 357 L 109 362 L 110 365 L 113 366 L 115 363 L 119 363 L 136 370 L 140 375 L 140 378 L 147 388 L 149 389 L 148 387 Q 150 384 151 387 L 149 390 L 150 393 L 156 397 L 158 401 L 165 404 Q 168 403 166 407 L 159 404 Q 156 403 157 406 L 156 406 L 157 404 L 153 398 Q 150 399 151 396 L 149 396 L 140 381 L 137 380 L 138 377 L 131 371 L 129 372 L 127 372 L 129 371 L 117 366 L 115 367 Q 118 368 117 371 L 112 368 L 108 369 L 101 368 L 100 373 L 99 375 L 104 374 L 110 374 L 116 376 L 121 383 Q 120 385 123 384 L 128 391 L 134 410 L 143 416 L 144 419 Q 143 421 147 420 L 148 423 Q 149 425 151 423 L 158 426 L 167 426 L 168 425 Q 171 426 170 424 L 171 424 Q 170 426 173 425 L 174 422 L 177 426 L 189 424 L 192 420 L 190 421 L 186 420 L 186 422 Q 187 424 185 423 Q 182 422 184 421 L 181 419 L 181 421 Q 170 418 164 412 L 160 412 L 157 410 L 159 406 L 172 415 L 178 417 L 180 416 L 188 418 L 190 418 L 198 417 L 201 415 L 199 418 L 199 419 L 202 417 L 202 419 Q 205 420 206 418 L 206 416 Q 200 412 198 405 L 194 390 L 197 390 Q 196 387 195 389 L 193 387 L 192 387 L 193 397 L 195 401 L 194 404 L 193 398 L 188 391 L 188 381 L 189 374 L 185 373 L 184 376 L 186 375 L 186 377 L 184 376 L 178 399 L 180 410 Q 185 411 184 416 L 177 413 L 176 407 L 176 396 L 181 381 L 183 370 L 183 363 L 182 362 L 182 361 Q 184 362 183 360 Q 185 357 186 360 L 185 361 L 185 373 L 187 372 L 189 373 L 190 371 Q 191 368 189 369 L 189 368 L 187 367 L 189 366 L 190 365 L 190 350 L 191 349 L 190 346 L 190 344 L 191 341 L 190 334 L 187 332 L 170 339 L 168 339 L 162 342 Q 160 346 158 342 L 153 350 L 147 354 L 142 352 L 138 347 L 131 352 L 120 355 L 111 352 L 110 351 L 73 388 L 71 387 L 66 390 L 63 389 L 58 402 L 54 405 L 51 405 L 48 402 L 54 382 L 54 379 L 52 383 Q 50 387 44 386 L 43 384 L 44 379 L 61 348 L 58 342 L 59 334 L 68 327 L 69 326 Q 70 312 75 303 L 75 299 L 78 291 L 78 287 L 83 272 L 86 256 L 97 217 L 96 213 L 96 207 L 98 198 L 84 194 L 82 193 L 83 188 L 86 184 L 91 184 Q 101 192 117 193 L 121 176 L 121 170 L 115 169 Q 108 176 106 188 Q 107 190 104 189 Q 106 178 112 170 L 110 163 L 112 155 L 116 153 L 123 153 L 126 157 L 127 161 Q 128 168 123 170 L 122 184 L 119 193 L 124 195 L 134 197 L 134 195 L 122 189 L 126 180 L 133 181 Q 137 187 145 189 L 146 186 L 155 174 Q 154 170 157 171 L 155 169 Q 154 166 157 167 L 156 164 L 157 161 L 156 159 L 159 158 L 165 154 L 167 156 L 168 154 L 169 145 L 174 133 Q 179 133 181 130 L 197 131 L 207 136 L 212 143 L 211 157 L 210 158 Q 212 159 211 164 L 213 166 Q 212 168 215 167 L 215 169 L 219 171 L 217 176 L 219 177 L 216 178 L 217 181 L 217 182 L 215 181 L 217 185 L 216 186 L 213 185 L 214 187 Q 215 190 213 189 Q 211 187 210 190 L 211 200 L 226 182 L 233 169 L 223 160 L 223 157 L 229 151 L 234 153 Q 236 152 235 155 L 237 155 L 240 159 L 254 147 L 261 139 L 268 134 L 271 135 Q 276 137 274 147 L 270 149 L 265 159 L 255 172 L 260 177 L 263 169 L 266 168 Q 271 167 274 170 L 275 172 L 275 180 L 269 184 L 261 199 L 265 200 L 279 191 Q 282 192 280 188 L 285 184 L 292 184 L 296 191 L 295 195 L 290 199 L 282 209 L 275 214 L 274 217 L 283 229 L 281 233 Q 278 232 279 235 L 277 236 L 275 235 L 269 226 L 267 225 L 258 231 L 261 236 L 261 239 L 257 245 L 259 249 L 259 257 L 261 265 L 261 275 L 276 275 L 278 275 L 280 275 L 280 282 L 282 281 L 281 271 L 280 269 L 279 270 L 270 270 Q 268 268 267 271 L 265 269 L 263 269 L 263 261 Q 264 258 266 260 L 274 260 L 275 259 L 277 260 L 282 259 L 283 238 L 285 228 L 282 223 L 284 216 Q 287 213 295 214 L 298 219 L 299 224 L 296 228 L 299 244 L 300 259 L 314 258 L 316 258 L 318 259 L 318 268 Q 308 267 302 271 L 303 274 Q 305 279 302 281 Q 304 286 300 285 L 299 299 L 299 301 L 300 385 L 306 381 L 311 374 Q 309 368 310 360 L 310 358 L 310 346 L 313 345 L 313 351 L 318 356 Q 320 355 319 359 L 323 361 L 325 360 L 332 365 L 329 367 L 326 366 L 322 369 L 331 370 Q 335 372 332 374 L 330 373 L 328 373 Q 321 373 318 369 L 313 369 L 314 373 L 313 376 Q 321 379 334 377 L 334 371 L 333 370 L 333 349 L 334 348 L 333 347 L 333 228 L 333 226 L 333 203 L 332 202 L 333 200 L 332 197 L 332 13 Q 331 10 328 11 L 328 10 L 304 9 L 303 8 L 301 9 L 263 9 L 262 8 L 260 9 L 230 9 L 228 9 L 200 9 L 199 8 L 194 9 L 190 9 L 188 8 Z M 184 131 L 180 132 Q 178 136 182 135 L 181 137 L 187 138 L 191 136 Q 190 133 185 134 L 184 131 Z M 200 134 L 199 136 L 199 138 L 201 138 L 205 143 L 208 142 L 207 144 L 208 152 Q 210 151 208 150 Q 207 146 210 147 L 209 142 L 204 139 Q 201 138 203 137 L 200 134 Z M 179 136 L 178 138 L 181 138 L 179 136 Z M 268 136 L 266 137 L 263 141 L 264 146 L 271 147 L 272 140 L 268 136 Z M 191 137 L 190 139 L 190 140 L 192 140 L 191 137 Z M 193 140 L 194 142 L 195 142 L 193 140 Z M 202 141 L 201 144 L 203 144 L 202 141 Z M 260 144 L 242 161 L 252 169 L 254 169 Q 261 162 265 152 Q 266 148 264 149 L 261 146 Q 262 143 260 144 Z M 205 150 L 205 153 Q 208 152 205 150 Z M 228 153 Q 229 156 227 155 L 225 159 L 249 177 L 253 182 L 256 180 L 257 178 L 238 159 Q 235 160 236 158 L 231 153 L 228 153 Z M 117 154 Q 112 156 113 164 L 120 168 Q 125 169 125 165 L 124 159 Q 122 154 117 154 Z M 208 156 L 207 159 L 208 159 L 208 156 Z M 181 162 Q 179 165 182 164 L 181 162 Z M 195 162 L 195 164 L 197 163 L 195 162 Z M 173 165 L 171 167 L 173 167 L 173 165 Z M 177 165 L 178 167 L 179 167 L 177 165 Z M 269 169 L 267 170 L 263 175 L 264 180 Q 265 182 267 180 L 271 181 L 273 177 L 272 173 Q 273 170 270 171 L 270 169 L 269 169 Z M 235 171 L 231 177 L 234 181 L 234 183 Q 231 184 232 182 Q 230 177 228 181 L 230 184 L 239 189 L 238 187 Q 235 188 236 186 Q 234 184 237 183 Q 239 182 238 185 L 243 184 L 244 180 L 246 180 L 237 171 L 235 171 Z M 179 174 L 177 176 Q 176 178 180 177 Q 181 173 179 174 Z M 197 175 L 192 179 L 193 182 L 193 185 L 190 188 Q 191 191 189 192 L 185 190 L 184 193 L 182 194 Q 177 195 178 193 L 175 191 L 176 194 L 176 197 Q 171 195 171 189 L 169 192 L 170 196 Q 170 199 175 198 L 176 201 L 174 200 L 173 202 L 171 201 L 169 201 L 169 205 L 167 205 L 167 209 L 163 214 L 161 224 L 162 229 L 169 232 Q 174 231 177 234 L 183 232 L 182 226 L 184 222 L 183 219 L 183 217 L 182 214 L 186 215 L 186 213 Q 182 214 181 211 L 182 206 L 183 209 L 199 217 Q 202 215 200 210 L 197 207 Q 195 203 194 206 L 192 206 L 195 202 L 200 203 L 202 205 L 200 200 L 206 200 L 206 202 L 208 201 L 204 188 L 199 195 L 195 191 L 195 188 L 197 188 L 194 186 L 195 184 L 202 184 L 204 188 L 208 188 L 206 185 L 206 180 Q 203 181 204 179 L 197 175 Z M 173 177 Q 170 181 174 180 L 173 177 Z M 153 178 L 153 180 L 148 187 L 147 191 L 157 196 L 158 197 L 156 194 Q 158 188 155 187 L 156 183 Q 158 176 153 178 Z M 168 179 L 170 182 Q 171 178 168 179 Z M 179 179 L 180 182 Q 179 185 183 183 L 185 180 L 184 179 L 181 181 Q 182 178 179 179 Z M 166 180 L 165 185 L 168 184 L 166 180 Z M 259 180 L 245 195 L 246 196 L 253 190 L 257 194 Q 256 196 259 195 Q 264 191 265 183 L 259 180 Z M 158 181 L 157 184 Q 156 187 159 186 L 161 183 Q 162 180 158 181 Z M 177 181 L 177 183 Q 176 185 179 184 L 178 183 Q 179 180 177 181 Z M 187 181 L 184 186 L 188 185 L 187 181 Z M 129 182 Q 124 183 125 188 L 163 211 L 164 209 Q 165 204 161 204 L 162 202 L 129 182 Z M 174 182 L 171 183 Q 170 187 173 186 L 174 184 L 174 182 Z M 248 182 L 245 186 L 241 189 L 236 195 L 242 196 Q 248 192 250 184 L 248 182 Z M 228 183 L 202 213 L 201 218 L 198 219 L 128 300 Q 129 302 126 301 Q 105 329 80 355 L 76 362 L 77 363 L 96 340 Q 99 341 98 338 L 101 336 Q 110 321 123 310 Q 122 307 125 308 L 125 307 L 145 285 Q 144 282 147 283 L 229 187 L 228 183 Z M 86 185 L 85 193 L 90 193 L 100 197 L 104 197 L 110 200 L 125 202 L 131 205 L 134 201 L 134 198 L 110 194 L 86 185 Z M 177 186 L 176 189 L 177 189 L 177 186 Z M 182 186 L 182 188 L 184 189 Q 185 185 182 186 Z M 286 186 L 283 187 L 284 195 L 290 197 L 293 193 L 292 188 Q 291 185 286 186 Z M 167 188 L 164 190 L 165 192 Q 168 193 167 191 Q 169 189 167 188 Z M 179 188 L 180 192 Q 183 193 182 190 L 179 188 Z M 197 188 L 197 190 L 199 191 Q 200 187 197 188 Z M 231 188 L 227 193 L 227 194 Q 233 195 235 192 L 231 188 Z M 161 189 L 160 192 L 162 193 L 161 189 Z M 252 193 L 248 197 L 248 199 L 252 203 Q 251 205 254 204 L 277 233 L 280 231 L 280 229 L 276 223 L 273 221 L 259 202 Q 260 199 257 200 L 255 196 L 252 193 Z M 280 193 L 265 203 L 265 206 L 273 215 L 273 214 L 277 211 L 285 201 L 280 193 Z M 164 194 L 161 197 L 163 199 Q 165 200 164 198 L 164 196 L 164 194 Z M 167 194 L 165 197 L 168 198 L 168 194 L 167 194 Z M 225 196 L 223 198 Q 224 200 221 199 L 221 201 L 224 202 L 244 202 L 247 203 L 248 203 L 245 197 L 243 198 L 236 196 L 233 197 L 225 196 Z M 100 199 L 99 209 L 99 210 Q 105 208 105 212 Q 103 215 102 211 L 99 212 Q 98 215 103 214 L 105 214 L 112 216 L 114 214 L 117 204 L 116 202 L 100 199 Z M 138 199 L 133 207 L 139 209 L 140 212 L 134 209 L 133 211 L 146 218 L 152 208 L 143 200 L 138 199 Z M 167 199 Q 164 200 165 204 L 168 203 L 167 199 Z M 219 202 L 138 295 Q 139 297 136 296 L 108 330 L 108 331 L 111 330 L 150 287 L 153 285 L 157 280 Q 156 277 159 278 L 176 258 L 179 256 L 183 250 L 187 247 L 194 239 Q 193 236 196 237 L 196 236 L 221 208 L 219 202 Z M 120 203 L 116 215 L 114 217 L 107 244 L 105 247 L 103 257 L 98 270 L 99 272 L 131 208 L 120 203 Z M 225 203 L 224 205 Q 225 207 227 205 L 234 206 Q 235 209 232 208 L 230 211 Q 228 212 231 213 Q 234 212 233 215 Q 230 216 229 213 L 227 216 L 238 218 L 244 211 L 244 208 L 253 208 Q 251 203 250 206 L 239 204 L 226 204 L 225 203 Z M 223 207 L 211 223 L 208 225 L 210 229 L 214 227 Q 213 224 216 225 L 216 223 L 218 223 L 223 217 L 223 215 L 229 209 Q 228 206 223 207 Z M 248 210 L 244 214 Q 245 216 242 215 L 241 219 L 237 221 L 235 224 L 232 226 L 230 229 L 226 231 L 219 240 L 220 241 L 240 225 Q 245 223 245 216 L 249 213 Q 250 209 248 210 Z M 255 210 L 249 215 L 258 228 L 265 223 L 256 212 Q 257 209 255 210 Z M 159 211 L 155 212 L 152 228 L 152 234 L 156 237 Q 155 240 158 239 L 161 243 Q 163 244 162 242 L 162 240 L 163 238 L 171 238 L 173 238 L 175 239 L 179 237 Q 181 238 180 235 L 178 236 Q 167 235 160 231 L 159 226 Q 158 221 160 220 L 160 216 L 158 218 L 158 229 L 155 225 Q 154 219 157 217 L 159 213 L 161 216 L 161 213 L 159 211 Z M 131 212 L 72 328 Q 71 332 75 330 L 102 278 L 132 225 L 136 214 L 131 212 Z M 150 214 L 149 219 L 147 220 L 134 239 L 136 244 L 136 246 L 134 241 L 133 243 L 133 245 L 132 247 L 132 246 L 132 244 L 128 250 L 126 260 L 126 269 L 125 270 L 125 280 L 124 281 L 126 283 L 126 282 L 127 282 L 125 292 Q 124 295 127 294 L 125 299 L 127 299 L 152 269 L 154 266 L 155 264 L 149 265 L 146 262 Q 145 255 148 254 L 144 253 L 147 249 L 149 252 L 151 246 Q 147 245 146 248 L 144 247 Q 145 242 143 241 L 144 239 L 146 243 L 145 246 L 148 244 Q 149 239 147 240 L 147 239 L 149 241 Q 148 243 151 242 L 152 246 L 154 240 L 155 238 Q 152 237 153 240 L 150 240 L 151 237 L 149 234 Q 148 227 150 224 L 148 224 L 150 223 L 149 221 L 151 221 L 152 216 Q 153 213 150 214 Z M 100 215 L 89 253 L 89 257 Q 84 266 83 280 L 78 295 L 78 299 L 76 303 L 72 322 L 70 326 L 72 326 Q 73 320 77 316 L 78 308 L 97 244 L 103 216 L 100 215 Z M 187 215 Q 184 219 188 218 L 187 215 Z M 291 216 L 288 217 L 285 222 L 287 225 L 290 226 Q 295 227 296 224 L 295 219 Q 294 216 291 216 Z M 138 217 L 81 323 L 82 324 L 89 315 L 118 264 Q 117 260 120 261 L 120 259 L 126 248 L 142 222 L 142 218 L 138 217 Z M 224 217 L 214 230 L 185 260 Q 186 262 183 261 L 183 263 L 157 291 L 153 293 L 153 295 L 143 305 L 143 307 L 145 307 Q 144 304 147 305 L 173 278 Q 172 275 175 276 L 175 275 L 200 249 Q 199 246 202 247 L 202 246 L 219 229 Q 218 226 221 227 L 228 219 L 224 217 Z M 246 217 L 251 227 L 254 229 L 248 219 Q 249 216 246 217 Z M 105 218 L 102 234 L 98 244 L 94 262 L 83 299 L 84 301 L 92 286 L 92 282 L 97 265 L 99 262 L 106 236 L 112 220 L 112 218 L 105 218 Z M 192 218 L 192 221 L 194 220 Q 195 217 192 218 Z M 188 219 L 186 221 L 188 222 L 188 219 Z M 231 219 L 227 223 Q 228 225 226 224 L 182 270 Q 183 272 180 271 L 180 273 L 179 273 L 155 298 Q 156 300 154 299 L 130 324 L 127 329 L 141 316 Q 143 317 142 315 L 149 309 Q 148 306 151 307 L 165 292 L 168 290 L 173 284 L 177 281 Q 176 278 179 279 L 179 277 L 181 277 L 184 273 Q 186 274 185 271 L 187 271 L 187 270 L 192 266 L 196 261 Q 195 258 198 259 L 200 256 L 206 251 Q 205 248 208 249 L 222 234 L 222 232 L 231 225 Q 230 222 233 223 L 233 221 L 231 219 Z M 246 222 L 202 259 Q 199 258 200 261 L 197 263 L 162 299 L 160 300 L 158 303 L 150 310 L 142 319 L 146 316 Q 148 317 147 314 L 196 274 L 197 272 L 249 229 L 249 227 L 246 222 Z M 186 224 L 184 227 L 186 226 L 186 224 Z M 287 228 L 286 234 L 286 248 L 285 249 L 285 259 L 297 259 L 295 236 L 293 229 L 291 230 Q 288 231 289 228 L 287 228 Z M 204 229 L 204 231 L 201 232 L 194 241 Q 193 243 196 242 L 195 244 L 196 245 L 201 241 Q 200 238 203 239 L 207 234 Q 209 227 204 229 Z M 254 232 L 250 233 L 247 239 Q 249 243 255 243 Q 259 242 258 236 L 254 232 Z M 244 235 L 202 271 Q 199 270 200 273 L 142 322 Q 139 321 140 324 L 138 324 L 137 327 L 134 329 L 133 331 L 138 329 L 162 309 Q 164 310 163 307 L 169 304 L 191 284 Q 219 264 244 241 L 244 235 Z M 157 241 L 156 244 L 157 244 L 157 241 Z M 169 241 L 169 245 Q 167 246 170 247 Q 172 246 170 245 L 171 243 L 169 241 Z M 172 242 L 172 244 L 174 243 L 172 242 Z M 194 242 L 186 250 Q 187 252 184 251 L 178 260 L 138 304 L 140 305 L 142 302 L 145 300 L 157 286 L 159 286 L 167 277 Q 166 274 169 275 L 177 267 L 178 263 L 180 263 L 181 261 L 180 261 L 182 258 L 181 260 L 183 260 L 184 258 L 183 257 L 184 255 L 185 257 L 194 247 L 192 246 L 194 245 L 194 242 Z M 246 242 L 220 263 L 217 268 L 215 279 L 216 282 L 215 290 L 209 307 L 208 316 L 204 325 L 199 329 L 192 332 L 192 338 L 196 355 L 196 363 L 195 364 L 197 371 L 197 379 L 199 390 L 205 405 L 213 412 L 207 421 L 207 423 L 212 421 L 220 422 L 225 408 L 224 406 L 225 398 L 244 372 L 244 359 L 241 360 L 237 358 L 236 360 L 234 359 L 236 356 L 238 357 L 242 356 L 244 358 L 244 311 L 243 310 Q 242 305 244 304 L 240 299 L 242 296 L 241 295 L 241 285 L 229 285 L 228 286 L 225 283 L 226 278 L 227 276 L 243 276 L 244 274 L 245 246 L 247 244 Q 248 241 246 242 Z M 216 243 L 213 247 L 216 245 L 216 243 Z M 165 244 L 163 247 L 163 248 L 167 248 L 168 250 L 168 247 L 167 247 L 165 244 Z M 248 245 L 247 264 L 247 266 L 246 270 L 246 272 L 248 276 L 249 275 L 257 275 L 258 274 L 258 263 L 255 246 L 248 245 Z M 157 246 Q 156 250 159 249 Q 160 245 157 246 Z M 154 248 L 152 251 L 154 251 Q 157 250 154 248 Z M 163 248 L 161 253 L 162 256 L 163 253 L 165 253 L 163 252 L 163 248 Z M 154 253 Q 151 255 154 256 L 157 255 Q 158 252 154 253 Z M 161 256 L 158 260 L 161 258 L 161 256 Z M 124 258 L 113 277 L 115 277 Q 115 283 110 286 Q 111 288 108 287 L 108 289 L 105 289 L 101 298 L 105 299 L 108 297 Q 111 298 110 303 L 110 305 L 112 307 L 112 304 L 115 304 L 111 302 L 116 300 L 114 299 L 112 298 L 116 294 L 115 290 L 119 291 L 120 292 Q 121 287 119 288 L 116 285 L 119 271 L 121 270 L 120 272 L 122 272 L 123 263 L 125 263 L 124 258 Z M 149 260 L 149 262 L 152 263 Q 154 259 149 260 Z M 158 260 L 155 264 L 158 262 L 158 260 Z M 302 260 L 301 261 L 272 261 L 265 262 L 266 268 L 281 268 L 282 267 L 286 268 L 288 268 L 289 267 L 313 267 L 314 266 L 315 266 L 315 260 L 307 260 L 306 261 L 302 260 Z M 214 268 L 185 293 L 178 297 L 177 300 Q 178 302 174 301 L 173 304 L 175 308 L 174 311 L 172 311 L 163 317 L 165 321 L 165 323 L 157 318 L 156 320 L 160 321 L 163 326 L 163 328 L 155 322 L 145 326 L 143 329 L 149 330 L 151 330 L 152 331 L 150 331 L 152 337 L 153 340 Q 152 343 155 342 L 154 339 L 156 339 L 157 336 L 162 337 L 170 333 L 172 334 L 175 333 L 177 330 L 181 331 Q 183 330 181 329 L 183 329 L 186 327 L 191 328 L 192 328 L 191 325 L 195 326 L 201 323 L 203 321 L 207 311 L 206 309 L 213 286 L 213 276 L 214 275 L 213 273 L 214 270 L 214 268 Z M 285 269 L 283 271 L 284 278 Q 289 277 290 280 L 290 281 L 285 281 Q 284 285 292 283 L 294 283 L 293 281 Q 295 278 300 279 L 300 269 L 285 269 Z M 122 273 L 121 279 L 122 279 L 122 273 Z M 276 276 L 275 277 L 242 277 L 241 278 L 229 278 L 227 280 L 228 282 Q 227 285 233 283 L 236 284 L 240 283 L 242 284 L 244 283 L 277 282 Q 279 281 277 280 Q 278 275 276 276 Z M 112 279 L 110 282 L 112 281 L 112 279 Z M 121 279 L 119 285 L 121 286 L 121 279 Z M 298 281 L 296 283 L 299 283 Q 300 280 298 281 Z M 271 283 Q 269 286 263 284 L 261 286 L 262 289 L 262 291 L 261 293 L 262 297 L 261 302 L 258 304 L 258 337 L 259 338 Q 261 343 258 345 Q 257 350 259 352 L 258 357 Q 257 361 259 363 L 259 387 L 261 387 L 272 375 Q 274 376 273 374 Q 276 372 274 371 Q 272 364 276 362 Q 281 360 280 364 L 283 365 Q 284 368 280 367 L 278 365 L 276 366 L 277 374 L 284 381 L 284 365 L 284 363 Q 286 357 283 356 L 284 353 L 283 352 L 283 311 L 282 310 L 283 307 L 282 304 L 282 286 L 281 285 Q 282 282 280 283 L 277 284 Q 272 285 271 283 Z M 256 284 L 249 286 L 245 285 L 245 287 L 244 295 L 247 296 L 249 296 Q 251 295 250 299 L 252 298 L 257 300 L 259 299 Q 260 296 258 297 L 256 297 Q 252 298 253 296 Q 254 293 258 294 L 259 285 L 256 284 Z M 124 285 L 122 288 L 124 291 L 124 290 L 124 288 L 124 285 Z M 285 285 L 289 500 L 291 499 L 290 498 L 291 493 L 291 411 L 290 410 L 291 402 L 291 400 L 290 397 L 291 394 L 290 393 L 290 322 L 289 321 L 290 317 L 289 315 L 289 286 L 285 285 Z M 293 285 L 291 287 L 292 288 L 292 301 L 292 303 L 291 308 L 292 309 L 292 376 L 293 377 L 292 379 L 293 381 L 292 385 Q 291 389 293 391 L 293 434 L 294 435 Q 291 436 293 443 L 293 445 L 294 449 L 293 452 L 294 455 L 294 465 L 293 466 L 294 468 Q 295 472 293 474 L 294 476 L 294 495 L 293 496 L 295 499 L 295 470 L 296 469 L 295 467 L 296 465 L 296 341 L 296 339 L 297 337 L 296 335 L 297 332 L 296 328 L 297 320 L 297 318 L 296 316 L 297 314 L 297 286 Q 297 285 293 285 Z M 108 299 L 105 301 L 103 300 L 99 305 Q 95 304 96 307 L 95 308 L 98 311 Q 97 315 101 313 L 99 308 L 102 310 Q 103 313 101 314 L 98 313 L 97 315 L 102 317 L 104 317 L 106 316 L 104 315 Q 102 311 106 312 L 105 311 Q 104 307 108 308 L 106 306 L 110 304 L 107 303 Q 106 300 109 301 L 108 299 Z M 83 301 L 82 304 L 83 304 L 83 301 Z M 247 301 L 245 303 L 246 308 L 245 311 Q 243 317 246 319 L 245 321 L 246 322 L 246 357 L 247 358 L 246 360 L 247 362 L 246 364 L 247 369 L 247 371 L 246 373 L 247 376 L 246 378 L 247 379 L 247 403 L 248 404 L 248 452 L 249 453 L 249 479 L 248 482 L 248 484 L 248 499 L 250 500 L 252 500 L 252 466 L 252 464 L 253 460 L 252 458 L 253 454 L 252 449 L 252 447 L 253 443 L 252 442 L 252 394 L 251 393 L 252 389 L 251 388 L 251 309 L 250 308 L 251 302 L 253 302 L 247 301 Z M 255 301 L 253 303 L 253 352 L 254 353 L 253 355 L 254 358 Q 256 363 253 365 L 254 367 L 254 422 L 255 427 L 255 429 L 255 496 L 254 497 L 256 499 L 256 458 L 257 457 L 256 455 Q 254 448 257 447 L 256 445 L 257 443 L 256 440 L 257 437 Q 255 435 256 430 L 256 428 L 257 425 L 256 420 L 257 418 L 256 415 L 256 413 Q 255 407 257 406 L 256 405 L 256 346 L 256 344 L 256 302 L 255 301 Z M 116 304 Q 114 307 117 306 L 116 304 Z M 170 305 L 167 309 L 170 307 L 170 305 Z M 134 307 Q 133 310 136 309 Q 137 306 134 307 Z M 141 308 L 139 310 L 142 310 Q 143 307 141 308 Z M 164 310 L 162 312 L 164 312 Q 165 314 166 312 L 164 310 Z M 136 312 L 136 314 L 139 313 L 136 312 Z M 94 313 L 94 314 L 96 314 L 94 313 Z M 127 315 L 127 318 L 129 317 Q 130 314 127 315 Z M 134 315 L 122 327 L 122 328 L 124 328 L 135 317 Q 136 314 134 315 Z M 158 315 L 159 317 L 161 316 L 158 315 Z M 91 317 L 90 319 L 92 318 Q 98 319 101 323 L 101 322 Q 99 316 91 317 Z M 123 320 L 121 322 Q 120 324 123 323 L 123 320 Z M 87 322 L 87 324 Q 84 323 85 326 L 85 328 L 84 330 Q 78 329 76 332 L 73 331 L 67 338 L 68 339 L 73 335 L 78 336 L 80 336 L 84 335 Q 86 336 85 333 L 91 331 L 90 328 L 92 325 L 87 322 Z M 121 323 L 118 326 Q 117 328 120 327 L 121 325 L 121 323 Z M 81 324 L 79 327 L 81 326 L 81 324 Z M 102 324 L 102 327 Q 105 326 102 324 Z M 67 329 L 60 336 L 60 340 L 60 342 L 62 348 Q 61 350 64 349 L 62 340 L 64 334 L 65 337 L 66 335 L 67 332 L 67 329 Z M 115 329 L 110 333 Q 107 332 108 335 L 118 331 Q 121 333 119 338 Q 115 337 113 340 L 107 339 L 105 337 Q 101 336 102 339 L 109 342 L 115 341 Q 116 339 117 342 L 114 344 Q 109 342 110 346 L 114 345 Q 121 344 120 347 L 110 349 L 113 349 L 115 349 Q 121 347 119 352 L 127 351 L 140 344 L 144 345 L 142 335 L 139 332 L 134 334 L 127 330 L 115 329 Z M 116 334 L 114 335 L 113 337 L 116 336 L 116 334 Z M 74 337 L 58 365 L 59 366 L 75 339 Q 76 336 74 337 Z M 92 337 L 82 343 L 79 343 L 83 350 L 86 346 Q 85 343 88 344 L 93 338 L 92 337 Z M 149 339 L 148 342 L 149 342 L 149 339 Z M 64 340 L 66 346 L 69 341 L 68 341 L 64 340 Z M 98 342 L 98 344 Q 104 343 107 346 Q 109 347 108 344 Q 104 341 98 342 Z M 96 344 L 89 351 Q 90 353 87 352 L 79 363 L 81 363 L 96 347 L 96 344 Z M 100 346 L 70 378 L 71 379 L 100 348 L 100 346 Z M 72 347 L 72 350 L 75 351 L 74 350 Q 75 346 72 347 Z M 103 348 L 88 364 L 84 366 L 74 379 L 76 379 L 80 374 L 89 365 L 90 365 L 100 353 L 104 350 Q 105 347 103 348 Z M 106 350 L 103 354 L 107 351 L 106 350 Z M 60 351 L 45 381 L 45 384 Q 47 387 48 384 L 46 383 L 51 372 L 62 354 Q 63 350 60 351 Z M 71 351 L 70 353 L 70 355 Q 69 359 72 358 Q 73 353 71 351 Z M 76 351 Q 76 357 71 361 L 65 379 L 66 381 L 78 365 Q 74 366 73 364 L 74 360 L 81 352 L 76 351 Z M 313 354 L 314 358 Q 316 357 314 356 Q 315 353 313 354 Z M 102 355 L 100 356 L 99 358 L 102 357 L 102 355 Z M 68 356 L 65 360 L 64 369 L 62 372 L 54 400 Q 53 402 56 401 L 57 400 L 62 380 L 69 361 L 68 356 Z M 316 361 Q 315 364 319 363 Q 320 360 316 361 Z M 95 362 L 93 364 L 95 364 L 95 362 Z M 324 363 L 324 364 L 327 364 L 324 363 Z M 92 365 L 90 367 L 92 367 L 92 365 Z M 194 365 L 193 376 L 195 375 L 194 365 Z M 58 366 L 48 381 L 49 383 L 58 368 L 58 366 Z M 190 366 L 190 368 L 192 367 L 190 366 Z M 61 367 L 58 372 L 51 399 L 52 402 L 61 370 L 61 367 Z M 88 367 Q 87 370 90 369 Q 91 366 88 367 Z M 88 369 L 86 371 L 88 371 L 88 369 Z M 276 374 L 270 381 L 267 385 L 272 382 L 276 377 L 276 374 Z M 97 375 L 94 376 L 93 378 L 98 376 L 97 375 Z M 243 375 L 242 379 L 233 391 L 235 392 L 243 393 Q 246 395 243 396 L 234 394 L 231 395 Q 233 398 239 396 L 241 400 L 241 401 L 238 399 Q 231 400 229 397 L 227 404 L 232 406 L 231 405 L 233 401 Q 237 400 238 403 L 237 407 L 240 407 L 240 404 Q 242 399 244 402 Q 246 403 245 400 L 244 397 L 245 396 L 245 381 L 244 378 L 245 376 L 243 375 Z M 312 378 L 301 386 Q 297 390 299 401 L 301 400 L 304 402 Q 305 404 307 401 Q 309 400 308 403 Q 318 405 323 401 L 327 402 L 331 402 Q 330 399 333 400 L 333 381 L 334 379 Q 329 378 328 380 L 327 379 L 314 378 L 312 378 Z M 73 379 L 66 387 L 68 387 L 74 381 L 73 379 Z M 102 379 L 99 380 L 94 385 L 91 391 Q 92 393 90 392 L 86 397 L 83 415 L 80 420 Q 81 423 78 422 L 76 431 L 68 446 L 68 449 L 66 450 L 67 452 L 71 453 Q 73 452 72 455 L 75 455 L 75 457 L 78 455 L 81 457 Q 83 453 85 457 L 87 453 L 89 454 L 95 445 L 98 432 Q 100 425 97 424 L 97 421 L 101 415 Q 112 405 128 401 L 123 389 L 120 387 L 118 385 L 116 383 Q 114 379 113 382 L 108 379 L 102 379 Z M 279 381 L 279 383 L 269 391 Q 266 393 267 398 L 273 396 L 283 384 L 279 381 Z M 192 383 L 191 386 L 192 386 L 192 383 Z M 196 383 L 195 386 L 196 386 L 196 383 Z M 259 394 L 259 396 L 263 396 L 259 394 Z M 263 397 L 262 398 Q 258 397 259 400 L 263 399 L 264 404 Q 263 407 266 406 Q 268 405 266 404 L 266 399 L 264 399 Q 265 396 263 397 Z M 284 397 L 279 401 L 281 404 Q 284 405 282 401 L 284 401 L 284 397 Z M 202 403 L 203 409 L 209 413 L 202 403 Z M 299 404 L 299 412 L 303 412 Q 302 416 305 417 L 306 416 L 305 413 Q 307 414 306 411 Q 310 410 312 414 L 315 412 L 317 413 Q 320 412 319 416 L 321 415 L 320 411 L 321 408 Q 320 405 323 406 L 324 410 Q 325 412 327 410 L 330 411 L 330 408 Q 333 407 332 411 L 334 411 L 333 404 L 329 404 Q 330 408 328 407 L 326 404 L 311 405 L 309 405 L 308 404 L 299 404 Z M 260 405 L 259 408 L 260 408 L 260 405 Z M 270 405 L 269 408 L 270 408 L 270 405 Z M 284 405 L 282 406 L 282 408 L 282 410 Q 279 409 280 412 L 282 411 Q 284 412 283 416 L 284 416 L 283 411 L 284 408 Q 286 406 284 405 Z M 226 407 L 226 412 L 230 413 Q 230 410 235 410 L 236 413 L 238 412 Q 239 408 236 409 Q 234 405 232 409 L 226 407 Z M 263 408 L 263 410 Q 264 412 266 410 L 266 412 L 268 413 L 267 410 L 267 408 L 263 408 Z M 275 408 Q 274 412 279 410 Q 280 406 275 408 Z M 48 411 L 46 412 Q 41 414 42 421 L 40 418 L 35 419 L 32 423 L 29 424 L 31 428 Q 30 432 33 431 Q 32 427 36 426 Q 39 427 38 431 L 44 433 L 42 430 Q 41 426 44 427 L 45 430 Q 47 433 52 432 Q 53 429 51 430 Q 46 428 49 427 Q 48 424 52 425 L 53 428 L 61 433 L 64 434 Q 67 432 67 428 L 71 426 Q 74 424 72 418 Q 71 413 65 414 Q 66 422 64 425 L 58 425 L 58 423 L 61 424 L 63 420 L 61 414 Q 58 409 48 411 Z M 242 411 L 230 429 L 227 437 L 224 439 L 222 442 Q 216 444 221 447 L 219 447 L 225 455 L 236 437 L 242 413 L 242 411 Z M 260 411 L 259 416 L 260 416 L 260 411 Z M 235 413 L 236 415 Q 237 412 235 413 Z M 226 415 L 223 419 L 224 421 L 227 419 L 229 420 L 227 417 Q 228 414 226 415 Z M 270 415 L 270 417 L 270 418 L 266 418 L 266 422 L 272 424 L 274 417 Q 273 414 272 416 L 270 415 Z M 115 416 Q 113 418 109 417 L 106 418 L 103 417 L 102 421 L 109 421 L 118 418 L 115 416 Z M 310 416 L 308 419 L 310 418 L 310 416 Z M 122 418 L 123 420 L 127 422 L 130 422 L 125 418 L 122 418 Z M 315 418 L 315 419 L 319 420 L 321 419 L 315 418 Z M 76 419 L 75 422 L 76 422 L 76 419 Z M 232 419 Q 229 423 233 422 L 232 419 Z M 304 419 L 303 421 L 306 422 L 304 419 Z M 312 419 L 308 421 L 308 422 Q 313 423 314 420 L 312 419 Z M 324 419 L 324 421 L 328 422 L 330 422 L 324 419 Z M 117 420 L 116 421 Q 112 420 113 423 L 120 422 L 123 424 L 124 424 L 117 420 Z M 300 420 L 299 431 L 304 428 Q 303 425 302 427 L 300 424 L 302 424 L 300 420 Z M 282 421 L 283 425 L 283 426 L 285 425 L 284 423 Q 285 420 282 421 Z M 105 423 L 104 424 Q 101 423 102 427 L 105 427 L 105 425 L 107 425 L 105 423 Z M 226 423 L 226 428 L 227 428 Q 228 424 226 423 Z M 265 423 L 263 426 L 269 427 L 270 430 L 264 428 Q 262 432 266 431 Q 268 432 266 434 Q 265 438 269 439 L 272 427 L 265 423 Z M 280 423 L 278 424 L 275 425 Q 274 427 278 426 L 279 428 L 281 427 L 282 428 L 280 423 Z M 25 424 L 23 426 L 25 428 L 25 427 Q 27 425 25 424 Z M 212 424 L 212 427 L 214 426 Q 215 423 212 424 Z M 304 424 Q 303 426 307 426 Q 308 423 304 424 Z M 136 425 L 136 428 L 138 429 L 141 428 L 145 429 L 147 432 L 147 430 L 140 425 L 136 425 Z M 192 425 L 186 428 L 169 429 L 167 429 L 165 430 L 161 429 L 158 430 L 155 429 L 153 429 Q 150 428 151 433 L 155 436 L 187 452 Q 192 453 193 450 Q 197 451 195 447 L 198 447 L 197 446 Q 196 443 199 444 Q 199 440 202 438 L 201 433 L 192 425 Z M 209 425 L 209 427 L 211 426 L 209 425 Z M 315 425 L 314 426 Q 311 425 312 428 L 316 427 Q 317 424 315 425 Z M 29 426 L 27 428 L 29 429 L 29 426 Z M 132 426 L 131 429 L 132 429 L 132 426 Z M 73 427 L 70 430 Q 69 434 72 433 L 74 428 L 73 427 Z M 209 427 L 208 430 L 209 430 L 209 427 Z M 223 427 L 220 428 L 218 432 L 219 433 Q 220 429 224 430 L 225 428 L 223 427 Z M 260 427 L 259 431 L 260 431 L 260 427 Z M 275 427 L 275 432 Q 280 430 275 427 Z M 103 428 L 102 433 L 103 433 L 103 428 Z M 284 428 L 283 430 L 285 431 L 284 428 Z M 319 428 L 322 431 L 322 430 L 319 428 Z M 328 428 L 327 430 L 329 429 L 333 430 L 334 428 L 332 429 L 328 428 Z M 116 429 Q 115 432 118 431 Q 119 428 116 429 Z M 216 429 L 214 431 L 215 433 L 217 430 L 216 429 Z M 308 429 L 306 430 L 305 432 L 310 431 Q 311 428 308 429 Z M 210 430 L 210 432 L 212 431 L 210 430 Z M 280 430 L 278 432 L 282 434 L 284 434 L 281 432 Q 282 429 280 430 Z M 134 431 L 133 432 Q 130 431 131 434 L 136 434 L 136 432 L 134 431 Z M 30 432 L 29 435 L 30 435 L 30 432 Z M 312 432 L 312 434 L 314 433 L 312 432 Z M 329 432 L 327 434 L 329 434 L 329 432 Z M 308 433 Q 305 434 307 436 Q 306 438 309 437 L 308 433 Z M 318 433 L 318 434 Q 320 433 319 436 L 320 436 Q 321 432 318 433 Z M 259 434 L 259 439 L 261 440 Q 263 433 259 434 Z M 273 434 L 273 436 L 276 435 L 273 434 Z M 303 435 L 302 438 L 303 438 L 303 435 Z M 42 436 Q 41 439 45 438 Q 46 435 42 436 Z M 67 436 Q 67 440 65 439 L 65 440 L 68 439 L 67 436 Z M 122 436 L 120 438 L 126 439 Q 129 440 128 438 Q 127 435 124 436 L 122 436 Z M 139 436 L 137 438 L 141 439 L 141 438 L 139 436 Z M 61 437 L 60 439 Q 64 440 63 438 L 61 437 Z M 151 437 Q 149 440 152 439 L 151 437 Z M 214 437 L 214 439 L 219 439 L 219 437 L 214 437 Z M 283 437 L 283 440 L 285 441 Q 287 436 283 437 Z M 266 438 L 263 442 L 264 443 L 267 440 L 266 438 Z M 275 438 L 273 441 L 276 439 L 275 438 Z M 280 438 L 276 442 L 279 442 L 281 442 L 280 438 Z M 316 438 L 318 441 L 323 440 L 331 440 L 332 441 L 332 439 Q 326 437 316 438 Z M 153 439 Q 153 442 157 442 L 157 440 L 153 439 Z M 305 439 L 303 440 L 302 442 L 306 440 L 309 441 Q 314 442 315 440 L 305 439 Z M 268 440 L 269 442 Q 270 439 268 440 Z M 114 441 L 109 443 Q 106 442 107 445 L 111 446 Q 117 448 119 445 L 125 449 L 137 450 L 139 450 L 139 447 L 146 446 Q 151 448 150 444 L 140 441 L 132 441 L 131 442 L 114 441 Z M 18 442 L 13 444 L 17 445 Q 19 444 18 447 L 14 446 Q 6 444 8 450 Q 14 449 18 452 Q 20 451 19 454 L 12 452 L 8 452 L 8 459 L 10 460 L 25 460 L 27 460 L 32 461 L 46 461 L 47 460 Q 54 458 52 463 L 42 464 L 39 463 L 36 464 L 34 463 L 30 464 L 21 462 Q 15 461 14 463 L 12 462 L 8 462 L 8 470 L 23 474 L 25 474 Q 29 473 31 475 Q 37 477 39 474 L 42 475 L 51 474 L 52 478 L 50 477 L 46 478 L 43 477 L 21 477 L 8 473 L 9 477 L 17 477 L 25 480 L 26 482 L 31 480 L 33 480 L 36 479 Q 41 482 50 481 L 51 483 L 57 468 L 55 465 L 59 463 Q 58 460 54 461 Q 53 457 56 458 L 56 455 L 61 456 L 62 456 L 59 454 L 57 451 L 61 452 L 58 448 L 60 447 L 61 448 Q 60 444 63 445 L 64 447 L 65 443 L 62 442 L 56 442 L 49 444 L 44 443 L 42 443 Q 33 443 28 446 L 21 446 L 18 442 Z M 276 442 L 275 443 Q 270 442 272 446 L 276 444 L 276 442 Z M 282 442 L 282 445 Q 281 447 284 446 L 285 444 Q 283 445 282 442 Z M 10 443 L 10 444 L 12 444 L 10 443 Z M 163 443 L 160 446 L 162 446 L 164 446 L 167 446 L 163 443 Z M 263 443 L 262 446 L 263 446 L 263 443 Z M 265 443 L 267 452 L 268 445 L 265 443 Z M 102 444 L 99 445 L 94 453 L 96 452 L 99 454 L 95 456 L 100 459 L 108 459 L 126 453 Q 132 451 134 454 L 136 454 L 135 452 L 129 451 L 127 451 L 123 453 L 119 451 L 120 449 L 110 448 L 102 444 Z M 152 444 Q 150 447 153 446 L 152 444 Z M 277 444 Q 276 447 279 446 Q 280 443 277 444 Z M 168 446 L 169 447 L 170 448 Q 171 445 168 446 Z M 233 446 L 228 454 Q 227 456 230 455 L 233 450 L 233 446 Z M 260 446 L 259 451 L 262 452 L 260 446 Z M 277 446 L 274 447 L 275 450 L 278 449 L 277 446 Z M 315 446 L 313 448 Q 310 447 311 450 Q 308 451 307 448 L 299 449 L 298 452 L 299 454 L 298 456 L 299 458 L 298 460 L 299 462 L 305 458 L 310 460 L 311 463 L 315 464 Q 314 460 317 459 Q 319 453 315 454 Q 314 450 317 451 L 318 453 L 319 449 L 316 448 Q 317 445 315 446 Z M 324 446 L 327 465 L 327 463 Q 329 458 334 458 L 334 450 L 333 448 L 332 450 L 329 451 L 327 450 L 324 446 Z M 154 448 L 146 450 L 139 450 L 139 453 L 141 452 L 150 452 L 151 453 Q 157 455 159 451 L 159 453 Q 162 454 161 450 Q 165 449 168 452 L 169 452 L 164 449 L 162 449 L 154 448 Z M 280 448 L 279 450 Q 281 449 280 452 Q 283 453 282 450 L 280 448 Z M 284 448 L 285 450 Q 286 447 284 448 Z M 271 449 L 270 452 L 273 451 L 271 449 Z M 177 450 L 174 452 L 179 454 Q 183 455 182 452 L 177 450 Z M 217 450 L 216 451 Q 212 450 213 454 Q 211 455 214 456 L 214 454 L 216 454 L 217 452 L 219 456 L 219 458 L 222 463 L 222 460 L 222 458 L 217 450 Z M 163 451 L 164 453 Q 165 450 163 451 Z M 285 451 L 282 453 L 285 453 L 285 451 Z M 276 452 L 269 457 L 270 458 L 275 454 L 277 454 Q 280 455 279 459 L 283 457 L 285 458 L 285 456 L 282 456 L 276 452 Z M 246 453 L 242 455 L 246 455 L 246 453 Z M 261 454 L 260 456 L 263 456 L 261 454 Z M 144 455 L 136 457 L 134 456 L 132 457 Q 130 455 125 456 L 123 456 L 120 458 L 108 461 L 99 461 L 98 460 L 94 463 Q 95 465 93 464 L 91 464 Q 90 466 93 465 L 93 467 L 89 468 L 91 468 L 92 471 L 88 470 L 86 467 L 88 467 L 85 466 Q 84 470 87 471 Q 89 470 88 474 L 86 474 Q 87 477 85 476 Q 83 474 82 477 L 80 474 L 79 476 L 77 475 L 74 480 L 88 480 L 99 476 L 107 475 L 116 469 Q 120 470 118 465 L 129 461 L 131 462 L 132 458 L 149 458 L 150 459 L 157 459 L 157 457 L 144 455 Z M 240 455 L 239 458 L 240 458 L 240 455 Z M 266 455 L 264 457 L 264 458 L 259 458 L 259 460 L 265 459 L 266 457 L 266 455 Z M 211 456 L 208 460 Q 209 462 206 461 Q 205 464 209 463 L 211 459 L 211 456 Z M 227 456 Q 225 459 228 458 L 227 456 Z M 67 457 Q 65 460 68 459 L 67 457 Z M 181 457 L 181 458 L 183 458 L 181 457 Z M 276 457 L 273 459 L 275 459 L 279 464 L 281 463 L 279 462 L 276 457 Z M 58 458 L 59 459 L 60 460 Q 61 457 58 458 Z M 204 458 L 205 460 Q 206 457 204 458 Z M 199 459 L 197 461 L 199 461 L 199 459 Z M 224 459 L 223 463 Q 225 466 226 463 L 224 459 Z M 236 459 L 236 461 L 238 462 Q 239 458 236 459 Z M 232 460 L 232 461 L 235 461 L 232 460 Z M 268 460 L 269 462 Q 270 459 268 460 Z M 284 460 L 282 462 L 284 462 L 285 463 L 284 460 Z M 176 461 L 176 462 L 179 462 L 176 461 Z M 246 461 L 245 465 L 240 466 Q 241 468 245 467 L 246 468 L 246 461 Z M 151 462 Q 150 465 153 464 L 155 464 L 155 462 L 151 462 Z M 200 462 L 200 464 L 202 463 L 200 462 Z M 260 462 L 260 463 L 264 464 Q 265 460 260 462 Z M 273 462 L 272 464 Q 274 463 273 466 L 276 466 L 273 462 Z M 303 462 L 301 464 L 305 464 L 306 467 L 306 463 L 303 462 Z M 331 462 L 330 467 L 332 466 L 331 462 Z M 149 463 L 136 466 L 136 467 L 150 465 Q 151 462 149 463 Z M 128 464 L 125 465 L 124 467 L 132 465 L 128 464 Z M 205 464 Q 203 467 206 466 L 205 464 Z M 266 464 L 266 466 L 268 465 L 266 464 Z M 310 464 L 308 469 L 308 470 L 310 469 L 310 464 Z M 160 465 L 155 467 L 143 468 L 137 470 L 120 470 L 113 474 L 116 475 L 118 478 Q 119 475 126 476 L 127 479 L 124 478 L 118 481 L 115 480 L 113 477 L 101 478 L 91 482 L 106 484 L 113 482 L 115 482 L 120 484 L 142 487 Q 143 484 139 485 L 139 483 L 135 484 Q 132 483 135 481 L 144 482 Q 146 483 145 488 Q 146 490 148 488 L 157 491 Q 162 492 164 490 L 163 487 Q 159 488 160 485 L 166 484 L 180 486 L 185 489 L 200 493 L 210 490 L 215 491 L 217 494 L 216 496 L 209 496 L 208 495 L 209 493 L 200 496 L 191 493 L 189 494 L 172 494 L 170 493 Q 169 490 176 491 L 178 491 Q 181 492 180 489 L 178 488 L 167 488 L 167 492 L 164 493 L 162 493 L 159 494 L 147 491 L 142 491 L 134 488 L 126 488 L 115 485 L 110 486 L 99 486 L 98 485 L 91 485 L 85 487 Q 75 486 70 488 L 69 492 Q 68 499 71 502 L 75 501 L 76 498 Q 78 497 77 500 Q 75 501 78 502 L 86 500 L 92 496 Q 98 494 97 498 L 91 499 L 90 501 L 189 501 L 190 500 L 192 501 L 196 501 L 205 500 L 207 500 Q 211 499 213 501 L 218 500 Q 219 502 220 500 L 219 496 L 220 493 L 217 485 L 204 469 L 201 470 L 201 467 L 199 470 L 197 469 L 195 470 L 193 467 L 190 468 L 191 466 L 189 465 L 188 468 L 186 466 Q 180 468 179 465 Q 174 464 174 467 L 171 465 L 160 465 Z M 225 465 L 228 469 L 229 467 L 229 471 L 232 472 Q 233 475 235 473 L 235 475 L 245 481 L 245 480 L 234 470 L 232 471 Q 229 470 230 467 Q 229 464 228 466 L 225 465 Z M 233 465 Q 232 468 236 467 Q 237 464 233 465 Z M 312 465 L 312 470 L 312 471 L 314 470 Q 316 464 312 465 Z M 63 466 L 59 468 L 58 471 Q 57 474 61 472 L 61 478 L 66 476 L 67 480 L 69 477 L 71 478 Q 75 476 73 470 L 71 470 L 71 474 L 70 474 L 68 471 L 67 473 Q 66 476 64 473 Q 65 470 62 471 L 64 468 Q 65 465 63 466 Z M 82 466 L 80 470 Q 79 472 82 471 L 82 466 Z M 68 467 L 66 469 L 68 469 L 69 471 Q 72 469 68 467 Z M 271 467 L 265 470 L 269 470 L 270 472 L 274 470 L 271 467 Z M 328 467 L 329 473 L 330 471 L 328 467 Z M 281 469 Q 278 471 281 472 L 282 470 L 281 469 Z M 299 469 L 298 476 L 302 476 L 303 479 L 305 480 Q 304 477 307 478 L 309 478 L 311 475 L 311 477 Q 307 478 311 480 L 313 475 L 313 472 L 312 474 L 310 472 L 302 473 L 299 469 Z M 285 470 L 284 473 L 282 472 L 281 474 L 285 475 L 285 470 Z M 334 470 L 331 474 L 329 474 L 333 478 L 334 475 L 334 470 Z M 261 471 L 259 473 L 260 477 L 262 472 L 261 471 Z M 264 472 L 264 475 L 268 474 L 264 472 Z M 246 473 L 244 475 L 246 476 L 246 473 Z M 273 473 L 273 474 Q 278 473 279 477 L 280 477 Q 279 472 273 473 Z M 58 474 L 56 477 L 58 476 L 58 474 Z M 56 477 L 55 480 L 57 480 L 56 477 Z M 237 478 L 237 480 L 239 479 L 237 478 Z M 300 478 L 298 481 L 302 482 L 301 480 Q 302 477 300 478 Z M 10 479 L 8 481 L 8 502 L 35 502 L 35 501 L 40 498 L 41 496 L 48 489 L 50 491 L 48 487 L 50 483 L 39 483 L 38 482 L 31 482 L 25 485 Q 22 486 23 484 Q 20 478 10 479 Z M 332 479 L 332 482 L 334 481 L 332 479 Z M 263 480 Q 261 483 264 482 L 263 480 Z M 308 480 L 306 482 L 310 484 Q 312 485 311 483 L 308 480 Z M 55 481 L 51 486 L 52 488 L 52 487 L 54 487 L 54 485 L 57 484 L 55 483 L 55 481 Z M 273 481 L 268 484 Q 264 483 265 486 L 271 491 L 272 490 L 274 492 L 272 489 Q 273 486 271 487 Q 267 485 272 483 Q 275 482 273 486 L 275 486 L 276 488 Q 279 487 278 483 L 273 481 Z M 72 482 L 71 485 L 72 486 L 76 484 L 80 485 L 86 484 L 85 482 L 72 482 Z M 303 482 L 302 484 Q 304 487 305 484 L 303 482 Z M 282 483 Q 281 486 285 485 Q 286 482 282 483 Z M 260 484 L 259 487 Q 263 488 262 485 L 260 484 Z M 298 484 Q 297 487 300 486 L 301 489 Q 305 490 304 487 L 298 484 Z M 308 485 Q 303 488 308 490 L 309 488 Q 310 484 308 485 Z M 331 485 L 330 488 L 331 488 L 331 485 Z M 246 486 Q 246 489 244 488 Q 239 492 238 499 Q 239 501 241 499 L 243 500 L 246 499 L 246 486 Z M 280 486 L 275 494 Q 276 496 274 495 L 270 500 L 273 499 L 285 499 L 285 488 L 284 488 L 280 486 Z M 299 488 L 298 499 L 304 499 L 305 494 L 303 494 L 304 491 L 302 492 L 299 488 Z M 47 491 L 47 493 L 49 492 L 47 491 Z M 305 491 L 306 494 L 307 492 L 305 491 Z M 260 495 L 259 498 L 260 498 L 260 495 Z M 224 501 L 223 504 L 224 504 L 224 501 Z M 290 501 L 289 502 L 237 502 L 238 505 L 265 505 L 267 505 L 275 505 L 276 504 L 281 505 L 282 504 L 333 504 L 334 503 L 334 501 L 306 501 L 303 502 Q 296 504 295 501 L 293 502 L 290 501 Z M 181 502 L 180 503 L 82 503 L 81 504 L 78 503 L 75 504 L 71 503 L 68 507 L 104 507 L 105 506 L 107 507 L 110 506 L 112 507 L 114 506 L 219 506 L 220 503 L 214 502 L 212 503 L 209 502 L 201 502 L 200 503 L 196 502 L 193 503 L 182 503 L 181 502 Z M 10 504 L 8 508 L 28 508 L 31 505 L 10 504 Z M 34 506 L 29 509 L 29 512 L 25 518 Q 26 522 23 521 L 24 525 L 26 520 L 29 521 L 29 519 L 27 519 L 30 512 L 36 508 Q 37 505 34 506 Z M 280 506 L 279 507 L 236 507 L 234 516 L 228 518 L 216 518 L 215 519 L 210 517 L 211 513 L 216 510 L 216 508 L 162 508 L 160 508 L 157 509 L 155 508 L 138 508 L 136 508 L 127 508 L 126 509 L 64 509 Q 50 515 42 526 L 34 529 L 24 529 L 23 526 L 21 526 L 21 522 L 26 511 L 9 510 L 9 540 L 8 541 L 8 590 L 10 589 L 12 590 L 79 590 L 81 590 L 83 589 L 84 590 L 93 590 L 96 589 L 99 590 L 101 590 L 104 589 L 107 590 L 109 590 L 119 590 L 120 589 L 122 590 L 124 590 Q 130 592 132 589 L 134 590 L 136 590 L 140 589 L 144 590 L 147 589 L 149 589 L 152 590 L 154 590 L 156 589 Q 160 588 162 590 L 163 589 L 213 589 L 215 589 L 220 588 L 225 589 L 226 588 L 284 588 L 285 587 L 286 588 L 334 588 L 335 589 L 335 547 L 327 547 L 326 546 L 318 547 L 318 549 L 317 551 L 318 555 L 318 557 L 318 570 L 317 571 L 318 573 L 318 574 Q 314 573 315 567 L 315 565 L 315 548 L 313 547 L 311 552 L 308 549 L 314 545 L 309 544 L 307 541 Q 308 538 313 539 Q 312 536 311 538 L 306 537 L 304 535 L 306 533 Q 311 535 313 532 L 314 532 L 314 526 L 317 525 L 325 525 L 326 527 Q 328 532 323 530 Q 322 534 327 532 L 327 535 L 334 535 L 334 535 L 334 506 L 296 506 L 295 507 L 293 506 L 290 507 L 285 506 L 283 507 L 280 506 Z M 223 507 L 217 512 L 217 513 L 219 513 L 223 509 L 223 507 Z M 31 512 L 32 516 L 32 513 L 34 513 L 31 512 Z M 37 512 L 36 515 L 37 515 L 37 512 Z M 214 513 L 214 515 L 216 514 L 214 513 Z M 228 513 L 228 514 L 230 514 L 228 513 Z M 31 518 Q 29 521 32 520 L 31 518 Z M 31 521 Q 29 524 32 523 L 31 521 Z M 39 521 L 39 523 L 42 522 L 39 521 Z M 28 523 L 30 526 L 32 525 L 28 523 Z M 36 523 L 35 525 L 39 524 L 36 523 Z M 25 525 L 25 526 L 27 526 L 25 525 Z M 317 527 L 317 529 L 322 529 L 322 527 L 317 527 Z M 318 531 L 318 532 L 322 532 L 318 531 Z M 312 534 L 310 536 L 314 536 Q 315 533 312 534 Z M 317 534 L 317 536 L 321 535 L 317 534 Z M 334 536 L 333 537 L 323 537 L 324 539 L 332 539 Q 331 542 335 541 L 334 536 Z M 312 540 L 311 542 L 314 542 L 312 540 Z M 317 540 L 317 542 L 325 542 L 317 540 Z M 327 541 L 327 542 L 331 542 L 327 541 Z M 322 543 L 317 545 L 322 545 L 322 543 Z M 331 543 L 332 545 Q 333 542 331 543 Z "></path><path d="M 145.5 26 L 148.5 27 L 152.5 26 Q 154 28.5 159.5 27 L 164.5 26 L 166.5 27 L 168.5 27 L 170.5 26 L 183.5 26 L 185.5 27 L 186.5 26 L 196.5 26 L 200 27.5 L 190 28 L 189 30.5 L 189 32.5 L 190 41.5 L 191.5 43 L 193 43.5 L 159.5 44 L 158.5 45 L 156.5 45 L 153.5 44 L 151.5 44 L 146 43.5 L 158 43 L 152 28 L 144 27.5 L 145.5 26 Z M 159 28 L 156 29 L 161 41 L 165 31 L 164 28 L 162 29 L 159 28 Z M 170 28 L 167 29 L 163 40 L 164 43 L 178 43 L 178 33 L 177 32 L 177 28 L 170 28 Z M 181 28 L 181 43 Q 186 44 187 42 L 186 40 Q 188 38 187 34 L 187 32 L 186 30 L 186 28 L 181 28 Z "></path><path d="M 194 42 L 197 43.5 L 194 44 L 194 42 Z "></path><path d="M 143.5 228 L 145 230.5 L 142.5 232 L 143.5 228 Z "></path><path d="M 138.5 253 L 139 255.5 L 138 255.5 L 138.5 253 Z "></path><path d="M 132.5 255 Q 134.8 255.8 134 259.5 L 133 259.5 L 132.5 255 Z "></path><path d="M 137.5 257 L 141 258 Q 142 261 139 260 Q 140 257 137 258 L 136.5 261 Q 133 259 137.5 257 Z "></path><path d="M 142 259 Q 145.7 257.5 145 260.5 L 142 262 L 142 259 Z "></path><path d="M 130 265 Q 133.3 263.9 132 268 L 129 267.5 L 130 265 Z "></path><path d="M 143 269 Q 146.3 267.9 145 272 Q 141.7 273.1 143 269 Z "></path><path d="M 205.5 277 L 206 279 L 204 278.5 L 205.5 277 Z "></path><path d="M 132.5 280 L 134 284.5 L 131 286.5 L 132 282.5 L 130 283.5 L 128.5 286 L 128 284.5 L 129 282 L 132.5 280 Z "></path><path d="M 203.5 280 L 204 286 Q 201.3 287.1 202 284.5 L 203.5 280 Z "></path><path d="M 114.5 283 L 115 284.5 L 113 285.5 L 114.5 283 Z "></path><path d="M 113.5 287 Q 116.5 288.5 113.5 290 L 113.5 287 Z "></path><path d="M 197.5 292 L 198 294.5 L 197 294.5 L 197.5 292 Z "></path><path d="M 207.5 295 L 208 297.5 L 207 297.5 L 207.5 295 Z "></path><path d="M 201.5 309 L 202 311 L 200 310.5 L 201.5 309 Z "></path><path d="M 184 311 L 186 311.5 L 184 312.5 L 184 311 Z "></path><path d="M 169.5 315 L 172 316 Q 173 319 170 318 L 169.5 315 Z "></path><path d="M 179.5 316 L 182 317 L 182 320 Q 179 318.8 180 322.5 L 179 322.5 L 179.5 316 Z "></path><path d="M 167.5 317 Q 169.8 316.3 169 318.5 L 167.5 317 Z "></path><path d="M 169.5 324 Q 174.8 322.5 173 327 L 168.5 329 L 170 326.5 L 169.5 324 Z "></path><path d="M 158.5 329 Q 160.8 328.3 160 330.5 L 158.5 329 Z "></path><path d="M 182 336 Q 186.1 334.3 185 338.5 Q 188.4 343.6 187 353.5 L 184.5 357 L 184 355.5 L 184 351.5 L 184 343.5 L 182 336 Z "></path><path d="M 176.5 338 L 177.5 340 L 176.5 338 Z "></path><path d="M 181.5 343 Q 184.5 344.5 183 350.5 L 175 376.5 L 176 379 L 178 379.5 L 175 380 L 174.5 377 L 174 379 Q 169.9 380.7 171 376.5 L 173 374.5 L 177 363.5 L 180 351.5 L 180 345.5 L 181.5 343 Z "></path><path d="M 164.5 347 L 165 349.5 L 163.5 352 L 163 350.5 L 164.5 347 Z "></path><path d="M 174.5 351 L 173.5 353 L 174.5 351 Z "></path><path d="M 188.5 353 L 189 355.5 L 188 355.5 L 188.5 353 Z "></path><path d="M 129.5 357 Q 131.8 360.2 138.5 359 Q 141.8 363 148 363 L 149.5 366 L 154 369.5 Q 155.5 373.9 152.5 373 L 149.5 369 Q 144.5 363.5 135.5 362 L 133.5 362 L 128 359.5 L 129.5 357 Z "></path><path d="M 153 357 Q 156 356 155 359 Q 152 360 153 357 Z "></path><path d="M 187.5 358 L 188 360.5 L 187 360.5 L 187.5 358 Z "></path><path d="M 274.5 358 Q 277.5 357.2 276 361 Q 272.3 362.5 273 359.5 L 274.5 358 Z "></path><path d="M 169.5 361 Q 172.8 359.9 172 362.5 L 169.5 366 L 169 364.5 L 170 362.5 L 169.5 361 Z "></path><path d="M 157 363 L 159 363.5 L 157 364.5 L 157 363 Z "></path><path d="M 142.5 366 L 145 367 L 143.5 370 L 142.5 366 Z "></path><path d="M 145.5 373 L 147 376 L 144 374.5 L 145.5 373 Z "></path><path d="M 165.5 373 L 169 378.5 L 167.5 378 L 166 378.5 L 166.5 380 L 165 379.5 L 165.5 373 Z "></path><path d="M 153.5 374 L 154.5 376 Q 151.7 376.7 153.5 374 Z "></path><path d="M 121.5 375 Q 123.8 374.3 123 376.5 L 121.5 375 Z "></path><path d="M 177.5 375 L 178.5 377 Q 175.7 377.7 177.5 375 Z "></path><path d="M 127.5 386 L 129 388.5 L 127 387.5 L 127.5 386 Z "></path><path d="M 183.5 386 L 184 389.5 L 183 389.5 L 183.5 386 Z "></path><path d="M 169.5 388 Q 172.1 387.2 171 390.5 L 170 390.5 L 169.5 388 Z "></path><path d="M 121.5 389 L 123 391.5 L 121 390.5 L 121.5 389 Z "></path><path d="M 174.5 391 L 175 392.5 L 173.5 395 L 173 392.5 L 174.5 391 Z "></path><path d="M 186.5 391 L 185.5 393 L 186.5 391 Z "></path><path d="M 132.5 396 L 133 398.5 L 132 398.5 L 132.5 396 Z "></path><path d="M 162.5 396 L 163 400 L 160.5 401 L 160 398 Q 162.8 399 162.5 396 Z "></path><path d="M 135.5 397 L 136 399.5 L 134 398.5 L 135.5 397 Z "></path><path d="M 138.5 397 L 139.5 399 Q 136.7 399.7 138.5 397 Z "></path><path d="M 147.5 397 Q 149.8 396.3 149 398.5 L 149.5 400 Q 147.3 400.8 148 398.5 L 147.5 397 Z "></path><path d="M 314 400 Q 317 399 316 402 Q 313 403 314 400 Z "></path><path d="M 183.5 403 Q 186.5 403.5 186 407.5 L 183 405.5 L 183.5 403 Z "></path><path d="M 195.5 404 Q 197.8 403.3 197 405.5 L 195 405.5 L 194.5 407 L 194 405.5 L 195.5 404 Z "></path><path d="M 301.5 406 L 303 409 L 300 407.5 L 301.5 406 Z "></path><path d="M 304 406 L 307 406.5 L 304 408 L 304 406 Z "></path><path d="M 315 406 L 319 408 L 319 411 L 317 411 L 317 408 Q 314 409 315 406 Z "></path><path d="M 153.5 407 L 155 411 L 153 410.5 L 154 408.5 L 153.5 407 Z "></path><path d="M 181.5 408 L 185 409.5 L 183 410.5 Q 183.8 408.3 181.5 409 L 181.5 408 Z "></path><path d="M 310.5 408 L 313 409.5 Q 311.5 412.5 310 409.5 L 310.5 408 Z "></path><path d="M 94.5 409 L 95 412.5 Q 92.2 414.5 93 419 Q 87.8 420.8 90 413.5 L 92.5 410 L 94.5 409 Z "></path><path d="M 139.5 411 L 142 412 L 141.5 414 L 139.5 411 Z "></path><path d="M 158.5 413 L 160 415.5 L 158 416 L 158.5 413 Z "></path><path d="M 162.5 418 L 164.5 421 L 162 419.5 L 162.5 418 Z "></path><path d="M 156.5 420 L 158 423.5 L 156.5 423 Q 154.3 423.8 155 421.5 L 156.5 420 Z "></path><path d="M 47.5 447 Q 52.8 445.8 54 448.5 L 53.5 450 L 41.5 450 L 40.5 451 L 32.5 451 L 27.5 453 L 26 450 L 29.5 449 L 46.5 448 L 47.5 447 Z "></path><path d="M 44 452 L 52.5 452 L 53 454 L 44.5 454 L 44 452 Z "></path><path d="M 325 452 Q 328 450.8 327 454.5 L 325 453.5 L 325 452 Z "></path><path d="M 314.5 456 Q 317.5 457.5 314.5 459 Q 312.3 459.8 313 457.5 L 314.5 456 Z "></path><path d="M 327 457 Q 330 456 329 459 Q 326 460 327 457 Z "></path><path d="M 92.5 489 L 101 490 Q 102.3 493.7 96.5 492 L 92.5 491 L 90.5 493 L 83 494.5 L 86.5 495 Q 87.8 492.8 89 495.5 L 85.5 497 L 78 499 Q 76.8 496 80.5 497 L 83 495.5 Q 81.7 492.8 80.5 495 L 77.5 495 L 71.5 498 L 71 496.5 L 73.5 494 L 89.5 491 L 92.5 489 Z "></path><path d="M 301.5 495 Q 303.8 494.3 303 496.5 L 300 498 L 301.5 495 Z "></path><path d="M 99.5 497 L 121.5 497 L 122 499 L 117.5 500 L 116.5 499 L 98 498.5 L 99.5 497 Z "></path><path d="M 343.5 541 L 344 543 L 342 542.5 L 343.5 541 Z "></path><path d="M 343.5 544 L 344 546 L 342 545.5 L 343.5 544 Z "></path><path d="M 321 550 L 325 551.5 L 323.5 554 L 321 550 Z "></path><path d="M 343.5 550 L 344 555.5 L 343 555.5 L 343.5 550 Z "></path><path d="M 342.5 560 L 344 560.5 L 341.5 562 L 342.5 560 Z "></path><path d="M 341 577 L 344 577.5 L 341.5 579 L 341 577 Z "></path><path d="M 341.5 587 L 343 590.5 L 341 591 L 341.5 587 Z "></path><path d="M 345.5 587 L 346 591 L 344 590.5 L 345.5 587 Z "></path></svg>