<svg width="350" height="600" version="1.1" xmlns="http://www.w3.org/2000/svg" desc="Created with imagetracer.js version 1.2.5"><path d="M 5.5 5 L 55.5 5 L 56.5 6 L 58.5 5 L 61.5 6 L 63.5 6 L 95.5 8 L 99.5 7 L 101.5 8 L 102.5 7 L 157.5 7 L 158.5 6 L 167.5 6 L 168.5 7 L 184.5 7 L 185.5 6 L 266.5 6 L 269.5 7 L 290.5 7 L 292.5 8 L 293.5 7 L 314.5 7 L 318.5 8 L 321.5 7 L 323.5 8 L 333 8 Q 335 11 334 18.5 L 333 20.5 L 334 21.5 L 334 72.5 Q 331.8 73.8 333 78.5 L 334 82.5 L 333 83.5 L 333 98.5 L 334 99.5 L 334 134.5 L 335 135.5 L 334 136.5 L 334 147.5 L 335 148.5 L 335 247.5 L 336 250.5 L 335 252.5 L 336 254.5 L 335 256.5 L 335 258.5 L 336 261.5 L 335 264.5 L 336 273.5 L 335 275.5 L 336 276.5 L 336 320.5 L 335 322.5 L 336 323.5 L 336 504.5 L 337 505.5 L 337 529.5 L 336 533.5 L 336 535.5 L 337 538.5 L 337 563.5 L 338 567.5 L 337 571.5 L 338 572.5 L 338 592.5 Q 337 596 331.5 595 L 327.5 594 L 326.5 595 L 288.5 595 L 287.5 594 L 196.5 594 L 193.5 595 L 192.5 594 L 176.5 594 L 173.5 595 L 172.5 594 L 69.5 594 L 67.5 594 Q 62 596.5 52.5 595 L 51.5 594 L 42.5 594 L 39.5 595 L 35.5 594 L 32.5 595 L 30.5 594 Q 29.3 596.3 24.5 595 Q 22.8 592.3 16.5 594 L 15.5 595 L 5.5 595 L 4 591.5 L 5 590.5 L 5 533.5 L 6 532.5 L 5 531.5 L 5 448.5 Q 2.5 447 4 441.5 L 5 440.5 L 5 416.5 L 5 414.5 Q 6.3 409.8 4 408.5 L 4 267.5 L 3 264.5 L 4 263.5 L 4 255.5 L 3 252.5 Q 5.5 251 4 245.5 Q 1.5 244 3 238.5 L 4 237.5 L 4 50.5 L 5 46.5 L 4 45.5 L 4 6.5 L 5.5 5 Z M 9 9 L 8 12 L 8 46 L 7 47 L 8 49 L 7 51 L 8 54 L 15 51 L 18 53 Q 22 46 31 43 Q 37 42 39 46 Q 40 49 38 48 L 31 57 L 32 58 L 42 52 L 41 50 L 42 46 L 49 45 L 52 43 L 54 39 L 66 32 L 62 9 L 28 9 L 27 10 L 24 9 L 9 9 Z M 201 9 L 200 10 L 179 10 L 178 11 L 173 10 L 134 10 L 132 12 L 119 16 L 112 21 L 109 21 Q 104 27 96 29 Q 92 27 94 25 L 89 26 L 81 32 L 82 40 L 89 59 L 90 68 L 92 72 L 93 81 L 97 91 L 99 103 L 102 108 L 106 110 L 113 108 L 118 108 L 121 112 L 122 121 L 121 122 L 105 125 L 106 127 L 113 128 L 117 138 L 123 143 L 134 148 Q 138 150 135 152 L 124 147 L 122 148 L 119 152 L 123 149 L 124 150 L 121 154 L 123 156 Q 125 155 124 158 L 126 158 L 127 161 L 126 165 L 130 163 L 129 168 L 133 171 L 148 179 Q 150 178 149 182 Q 151 186 157 185 Q 158 182 156 183 L 154 180 L 157 179 Q 159 180 158 177 L 162 173 L 161 172 L 165 164 L 149 156 L 137 153 L 139 150 L 142 150 L 162 158 L 168 163 Q 170 160 174 161 Q 173 165 176 166 L 184 166 L 190 162 L 192 163 L 190 158 L 188 140 L 185 139 Q 172 139 165 143 L 164 141 L 165 139 L 173 134 L 175 130 L 172 130 L 164 134 L 159 134 L 160 131 L 171 121 Q 178 119 183 114 L 180 113 Q 178 115 177 113 L 185 108 L 187 105 Q 178 105 173 109 Q 169 110 170 107 L 178 100 L 198 93 L 205 89 L 217 79 Q 229 71 245 67 L 247 64 Q 243 65 244 63 L 250 59 L 251 57 L 246 58 L 242 57 L 244 52 L 257 46 L 279 42 L 287 43 L 267 45 L 248 51 Q 244 52 245 56 L 252 54 L 254 55 Q 257 54 255 58 L 248 61 L 248 63 Q 251 62 250 65 L 242 70 Q 229 73 220 79 Q 212 88 201 93 L 180 101 L 177 105 Q 181 106 183 103 L 189 103 L 190 107 L 186 109 L 187 113 Q 181 120 172 123 L 166 130 L 171 128 L 177 128 L 179 132 L 178 134 L 170 137 L 171 139 L 179 136 L 187 136 L 187 127 L 194 124 L 207 123 L 209 121 Q 214 124 224 122 L 228 132 L 230 131 Q 236 132 235 130 Q 232 128 236 127 L 236 125 L 240 125 L 242 119 L 255 103 Q 257 104 256 101 L 262 99 L 271 92 L 275 91 L 283 84 L 295 79 L 299 74 L 302 72 L 315 59 L 316 61 L 316 66 L 313 72 L 313 76 L 309 83 Q 318 84 323 81 L 325 81 L 330 79 L 329 84 Q 327 88 321 88 L 322 91 L 320 93 L 303 101 Q 300 100 301 103 Q 296 107 288 107 L 286 109 L 270 112 L 267 115 Q 264 114 265 117 L 263 117 L 252 125 L 248 130 L 249 132 Q 250 136 247 137 L 255 147 L 266 143 Q 273 142 275 146 L 277 145 L 279 146 L 282 145 L 285 146 L 307 146 Q 308 144 314 145 L 331 137 L 331 46 L 330 41 L 317 44 Q 308 43 304 38 Q 300 37 301 40 L 290 43 L 289 41 L 298 40 L 299 36 Q 308 37 315 42 L 321 42 L 329 39 L 330 39 L 330 25 L 327 25 L 327 30 L 326 30 Q 323 29 324 26 L 328 23 L 330 20 Q 328 13 331 12 Q 325 9 315 10 L 313 10 L 287 10 L 286 11 L 282 10 L 274 15 L 272 14 L 254 15 Q 246 18 237 19 L 209 31 L 212 33 L 203 38 L 178 46 Q 174 47 173 44 L 174 42 L 175 40 L 165 46 L 169 46 L 170 49 L 157 52 L 155 52 L 144 56 Q 141 55 142 59 L 139 61 L 122 66 Q 119 65 120 61 L 121 59 L 95 71 Q 92 72 93 70 L 118 57 L 123 56 Q 129 54 129 58 L 126 60 L 125 62 L 131 62 L 138 60 L 139 56 L 149 51 L 158 50 L 160 49 L 159 45 L 172 38 L 177 37 L 179 37 Q 181 36 180 39 Q 175 41 179 43 Q 184 43 186 40 L 198 38 L 206 34 L 204 31 L 231 19 Q 244 18 254 12 L 264 12 L 265 11 Q 269 10 271 12 L 277 11 L 278 9 L 253 9 L 252 10 L 242 9 L 240 9 L 214 9 L 212 10 L 210 10 L 201 9 Z M 66 10 L 67 26 Q 70 28 69 35 L 71 38 Q 71 49 75 57 L 75 63 L 77 68 L 77 74 L 85 106 L 89 105 L 82 78 L 79 58 L 77 55 L 77 50 L 74 42 L 74 40 L 67 18 L 67 12 L 66 10 Z M 70 10 Q 72 14 71 22 L 82 58 L 82 63 L 82 65 L 83 70 L 85 72 L 85 78 L 92 104 L 96 105 L 96 99 L 88 71 L 84 51 L 79 39 L 76 22 L 73 15 Q 75 8 70 10 Z M 78 10 L 76 12 L 79 20 L 81 29 L 95 22 L 98 24 L 97 26 L 102 25 L 103 23 L 108 19 L 112 19 Q 116 13 126 12 L 125 10 L 123 11 L 119 10 L 118 11 L 85 11 L 83 11 L 78 10 Z M 66 34 L 59 38 Q 56 37 57 41 Q 53 47 45 47 L 44 50 L 45 53 L 33 60 L 28 60 L 29 56 Q 28 53 31 54 L 32 52 Q 29 50 34 48 Q 36 49 35 45 L 29 46 L 16 56 L 14 53 L 9 56 L 7 59 L 7 61 L 7 100 L 8 101 L 9 138 L 23 130 L 24 128 Q 26 126 24 125 Q 16 125 12 129 Q 9 130 10 127 Q 22 116 37 109 L 36 107 L 39 105 L 41 102 L 45 99 L 44 95 L 52 91 L 52 90 L 48 90 L 36 94 L 37 91 L 44 85 L 55 82 L 65 76 L 67 76 L 65 80 L 66 81 L 75 77 L 71 60 L 69 43 L 67 38 Q 68 33 66 34 Z M 62 79 Q 55 85 44 87 L 41 91 L 49 88 L 53 88 L 55 88 Q 57 87 56 90 L 48 94 L 49 98 L 44 102 L 45 104 L 42 105 Q 38 104 40 109 L 19 122 Q 16 121 17 124 L 23 123 L 26 124 L 28 128 L 25 131 L 8 140 L 8 174 L 7 175 L 8 176 L 9 210 L 13 206 L 23 201 L 27 202 L 38 193 L 45 190 L 52 190 L 52 192 L 42 201 L 46 203 L 42 207 L 42 210 L 42 211 L 45 211 L 53 207 Q 63 197 78 192 L 90 187 L 93 187 L 94 190 L 99 187 L 103 188 L 100 193 L 101 194 L 106 190 L 113 188 L 116 187 L 117 189 L 117 191 L 112 196 L 113 198 L 107 203 L 110 204 L 131 196 L 146 193 L 148 193 Q 151 192 150 196 L 148 199 L 156 197 Q 157 194 154 195 L 154 191 L 151 190 Q 152 185 148 187 Q 143 186 144 181 L 131 174 L 122 166 L 119 165 L 117 162 L 115 161 L 113 166 L 111 167 Q 103 169 100 166 L 96 161 Q 95 156 98 155 L 97 150 Q 91 151 88 148 L 82 139 L 82 130 L 77 133 L 72 134 L 70 133 L 67 120 L 71 117 L 81 115 L 81 107 L 82 106 L 76 85 L 76 79 L 62 83 L 62 79 Z M 97 106 L 94 108 L 96 108 L 98 110 L 97 106 Z M 284 106 L 276 108 L 276 109 Q 282 110 285 107 L 284 106 Z M 94 108 L 93 111 L 94 111 L 94 108 Z M 272 109 L 270 111 L 273 111 Q 274 108 272 109 Z M 97 112 L 95 113 L 95 114 Q 98 115 99 113 L 97 112 Z M 114 113 L 111 115 Q 92 116 80 122 Q 73 120 74 124 L 77 125 L 79 124 L 81 128 L 83 127 L 83 126 Q 80 127 81 123 Q 86 121 84 127 Q 87 128 89 125 L 106 122 L 107 119 L 110 120 Q 112 121 111 119 L 113 119 L 115 116 L 115 118 L 116 118 L 115 115 Q 116 112 114 113 Z M 215 124 L 219 134 L 219 136 L 213 133 L 206 125 L 196 126 L 193 128 L 214 141 Q 217 142 216 146 L 220 148 L 226 146 L 227 149 L 228 149 Q 227 144 232 146 L 235 149 L 232 145 Q 233 141 231 142 Q 223 135 220 125 L 215 124 Z M 100 125 L 100 127 L 102 128 Q 103 124 100 125 Z M 243 125 Q 242 128 245 127 Q 246 124 243 125 Z M 240 128 L 238 132 Q 236 135 231 134 L 240 147 L 240 154 L 238 157 L 231 160 Q 223 161 221 157 Q 223 150 217 152 L 214 148 L 210 150 L 210 148 L 208 152 L 217 156 Q 216 158 219 157 L 224 168 L 225 165 Q 226 162 230 163 L 231 165 L 233 162 L 235 163 L 236 163 L 236 168 L 238 168 L 238 172 Q 234 173 235 177 L 232 176 L 230 177 Q 224 178 223 175 L 224 172 Q 220 170 221 175 L 229 180 L 246 177 L 247 175 L 245 176 L 238 176 L 237 174 L 247 173 L 243 161 Q 247 159 246 163 L 247 163 Q 248 156 244 154 Q 243 151 246 152 L 247 153 L 246 150 L 243 148 L 246 146 L 239 140 Q 236 141 237 138 L 240 139 L 241 139 L 237 137 Q 236 134 239 135 L 240 133 L 240 131 Q 243 132 242 129 L 240 128 Z M 91 129 L 89 132 L 94 130 L 91 129 Z M 106 129 L 106 131 L 108 130 L 106 129 Z M 109 130 L 110 131 L 111 132 Q 112 129 109 130 Z M 85 131 L 85 133 L 87 132 L 85 131 Z M 102 131 L 100 133 L 102 134 L 102 131 Z M 99 132 Q 97 135 100 134 L 99 132 Z M 112 132 L 110 135 L 111 137 L 113 136 L 112 132 Z M 108 133 Q 108 134 108 141 L 110 142 L 109 140 Q 110 132 108 133 Z M 92 134 Q 91 137 94 136 Q 95 133 92 134 Z M 90 135 L 89 136 Q 85 135 86 138 Q 90 139 91 136 L 90 135 Z M 114 136 Q 112 140 115 141 L 116 141 L 114 136 Z M 95 138 L 92 140 L 96 140 Q 97 137 95 138 Z M 100 138 Q 99 141 102 143 Q 103 145 100 144 L 100 147 L 102 146 L 104 150 L 105 150 Q 106 144 103 142 Q 105 136 100 138 Z M 90 140 L 90 141 L 92 141 L 90 140 Z M 118 142 L 117 144 L 117 145 L 119 145 L 118 142 Z M 92 143 L 89 145 Q 91 148 93 144 L 92 143 Z M 110 146 L 111 148 L 112 148 L 110 146 Z M 203 148 L 201 151 L 206 152 L 207 152 L 206 149 L 203 150 L 203 148 Z M 230 150 L 230 152 L 232 151 L 230 150 Z M 198 152 L 198 154 L 200 153 L 198 152 Z M 227 153 L 228 156 L 231 156 L 227 153 Z M 106 154 L 101 158 L 102 163 L 105 162 L 106 165 L 106 164 L 108 164 Q 111 163 110 157 L 108 154 L 106 154 Z M 197 155 L 194 162 L 194 166 L 191 167 L 193 172 L 194 171 L 197 158 L 197 155 Z M 118 157 L 116 160 L 118 159 L 118 157 Z M 260 158 L 259 160 L 261 161 L 260 158 Z M 200 159 L 198 161 L 199 165 L 200 161 L 200 159 Z M 207 159 Q 205 164 210 163 L 211 165 Q 206 164 207 167 L 211 169 L 210 172 L 211 174 L 205 174 Q 206 170 203 171 L 202 167 L 203 165 Q 200 166 201 163 L 200 163 L 202 173 L 202 175 L 201 181 Q 204 182 203 179 Q 207 178 206 181 L 204 182 L 205 184 L 207 183 L 212 184 L 213 187 L 208 190 L 209 195 Q 214 196 217 192 L 224 192 L 224 195 L 230 197 L 238 193 Q 237 189 240 190 L 242 186 L 239 185 L 236 186 L 230 184 L 228 184 L 224 182 L 221 183 L 217 182 L 213 170 L 212 162 L 211 160 L 208 162 L 209 160 L 207 159 Z M 251 160 L 250 164 L 251 164 L 251 160 Z M 204 162 L 204 164 L 206 163 L 204 162 Z M 219 163 L 219 170 L 221 171 L 219 163 Z M 248 163 L 247 167 L 248 167 L 248 163 Z M 255 163 L 254 165 L 256 166 L 255 163 Z M 252 164 L 251 167 L 253 168 L 252 164 Z M 265 164 L 263 166 L 266 168 L 265 164 Z M 170 166 L 165 172 Q 166 174 163 173 L 163 175 Q 164 179 162 181 L 163 184 L 167 177 L 169 179 L 168 183 L 169 191 L 163 187 L 159 187 L 159 189 L 159 190 L 163 190 L 160 198 Q 161 203 166 206 L 167 203 L 164 199 L 165 195 L 169 193 L 173 195 Q 176 194 175 197 L 179 197 L 179 199 L 183 200 L 179 193 Q 178 190 181 191 L 178 186 L 177 181 L 180 169 L 177 168 L 169 175 L 166 175 Q 167 170 171 168 Q 172 165 170 166 Z M 254 168 L 253 170 L 257 172 L 254 168 Z M 250 169 L 250 173 L 251 173 L 250 169 Z M 208 170 L 209 172 Q 210 169 208 170 Z M 266 172 Q 264 175 267 174 L 266 172 Z M 228 173 Q 226 176 229 175 L 228 173 Z M 257 173 Q 256 176 259 175 Q 260 172 257 173 Z M 183 174 L 184 177 L 185 175 L 183 174 Z M 253 174 L 253 175 L 256 175 L 253 174 Z M 276 179 L 274 181 L 277 181 Q 278 178 276 179 Z M 292 180 L 292 182 L 295 182 L 300 186 L 301 186 Q 298 181 292 180 Z M 271 181 L 271 183 L 273 182 L 271 181 Z M 240 182 L 240 183 L 242 183 L 240 182 Z M 282 183 L 275 187 Q 271 186 272 189 L 269 190 L 265 195 L 266 196 L 268 195 L 267 199 L 268 205 L 266 206 L 264 206 L 265 211 L 274 217 L 282 215 L 287 212 L 288 215 L 290 216 L 288 211 L 289 206 L 279 202 L 274 198 L 277 196 L 284 199 L 281 195 Q 278 196 279 194 Q 274 191 278 189 L 281 189 L 286 193 L 287 196 L 289 197 Q 286 194 287 188 L 290 187 L 293 193 L 295 202 Q 297 203 295 204 Q 291 203 293 207 L 298 205 Q 300 206 299 210 L 305 212 Q 307 211 306 207 L 302 204 L 300 205 L 296 200 L 296 195 L 298 191 L 294 186 L 288 183 L 282 183 Z M 89 189 L 63 201 L 46 212 L 39 213 Q 35 211 39 210 L 38 208 L 42 203 Q 36 205 37 202 L 44 197 L 48 192 Q 42 191 40 194 L 26 204 L 24 203 L 16 206 Q 13 210 8 211 L 8 223 L 7 224 L 8 226 L 7 228 L 7 238 L 8 239 L 7 242 L 8 244 L 8 279 L 7 280 L 8 284 L 8 322 L 8 324 L 9 326 L 8 329 L 8 353 L 7 354 Q 10 357 8 365 L 8 367 L 7 369 L 8 372 L 7 395 L 7 397 L 8 399 L 7 403 L 8 407 L 8 428 L 10 428 L 12 420 L 12 413 L 15 406 L 14 397 L 21 396 L 21 395 Q 18 396 19 393 L 21 393 L 17 390 L 16 387 L 24 382 Q 30 384 32 381 L 36 381 L 39 383 L 40 386 L 36 388 Q 37 391 33 389 L 33 391 L 26 391 L 28 394 L 29 393 L 37 393 L 35 396 L 39 397 L 40 400 L 43 399 L 44 403 L 30 406 L 28 403 L 22 404 L 20 408 L 22 407 Q 26 405 25 409 L 22 411 L 24 412 Q 22 415 17 415 L 16 422 L 18 421 L 20 422 Q 22 423 20 425 L 23 425 L 22 429 L 18 428 Q 19 423 15 425 L 14 432 L 17 431 L 22 433 L 21 436 L 22 438 L 23 435 L 34 431 L 37 433 L 35 439 L 28 443 L 30 444 L 27 448 Q 24 447 23 450 L 18 450 L 19 448 L 18 445 L 15 458 L 11 466 L 11 470 L 13 471 L 10 474 L 7 485 L 9 489 L 11 487 L 24 486 L 27 481 L 28 473 L 35 455 L 35 451 L 32 450 L 32 447 L 37 447 Q 36 437 40 432 L 40 430 L 42 423 L 39 421 Q 38 418 42 419 Q 44 418 42 417 L 48 395 L 53 385 L 50 383 Q 48 379 53 380 Q 55 379 54 376 L 55 374 L 51 375 L 50 373 Q 52 374 51 371 L 59 368 L 58 364 L 55 363 L 54 360 L 50 361 L 47 360 Q 42 361 44 357 L 54 356 L 56 356 L 58 359 Q 60 356 66 357 Q 68 356 66 355 L 67 351 L 69 351 L 66 348 L 65 346 L 70 347 L 70 345 Q 77 339 92 341 L 93 345 Q 98 344 100 348 L 99 351 Q 93 353 94 350 L 90 347 L 88 350 L 83 353 L 72 350 L 71 355 Q 81 354 86 356 Q 88 361 82 359 L 80 363 L 81 364 L 83 363 L 85 363 L 90 365 Q 94 364 92 368 L 87 367 L 87 369 L 86 371 L 100 371 L 104 373 Q 109 371 108 376 L 107 377 Q 105 373 104 376 L 101 376 Q 102 379 100 378 L 100 380 Q 102 386 98 385 L 99 388 Q 98 390 101 389 L 104 393 Q 106 392 105 395 L 103 396 L 96 394 L 92 395 Q 87 396 86 393 L 84 391 L 83 391 L 81 390 L 69 397 L 79 401 L 78 406 L 83 407 Q 84 405 85 408 L 83 410 Q 78 409 77 412 L 64 411 L 61 409 L 65 406 L 63 404 Q 59 405 60 402 L 56 401 L 57 403 Q 59 402 58 405 L 61 405 L 61 407 L 57 409 Q 58 412 53 410 L 48 418 Q 47 423 51 421 L 51 426 L 46 427 L 44 439 L 37 457 L 37 461 L 32 480 L 33 484 Q 37 478 47 478 L 49 478 L 58 477 L 70 466 Q 72 467 71 465 L 74 463 L 87 449 L 91 442 L 95 439 L 98 435 Q 107 425 122 420 L 136 408 L 142 398 Q 141 395 144 396 L 144 394 L 147 390 L 146 388 L 148 378 L 148 376 Q 149 370 146 368 L 146 360 L 148 358 L 149 353 L 148 351 L 149 348 Q 146 336 139 329 Q 140 326 137 327 L 134 323 L 111 330 L 91 333 L 89 333 L 85 333 L 76 330 L 72 330 L 68 333 L 64 331 Q 67 329 65 324 L 67 321 Q 66 318 69 319 L 66 315 L 66 312 L 59 315 Q 53 316 51 313 L 47 314 L 44 311 L 45 306 L 42 307 L 39 307 L 35 303 L 31 303 L 29 302 L 28 296 L 26 294 L 29 288 L 28 286 Q 35 278 46 274 L 47 271 L 57 265 L 64 264 L 72 260 L 76 255 L 65 260 L 62 260 L 60 257 L 67 252 L 69 248 L 66 247 L 41 255 L 30 261 L 31 263 Q 31 266 27 265 L 25 268 L 28 270 L 10 280 L 9 279 L 22 272 L 24 269 Q 20 270 21 268 L 25 265 L 27 262 L 25 263 L 24 261 L 35 256 L 65 245 Q 69 244 71 246 Q 73 245 72 250 L 68 253 L 65 257 L 83 248 L 87 248 L 90 250 Q 87 247 88 240 Q 91 236 97 235 L 98 232 L 101 233 Q 103 234 102 232 L 106 229 Q 108 227 107 221 L 112 218 L 125 217 L 118 225 L 120 228 L 119 233 L 117 236 L 122 233 L 124 235 Q 125 240 121 241 L 124 241 L 125 238 L 141 235 Q 144 236 143 234 L 154 227 L 162 225 L 156 238 Q 155 240 158 239 Q 160 238 159 235 L 168 226 L 172 226 L 182 222 L 186 223 L 189 218 L 195 216 Q 196 219 193 218 L 191 222 L 190 228 Q 187 233 179 234 L 177 236 L 176 245 L 174 248 L 182 243 L 184 244 L 186 243 L 187 241 L 191 238 L 199 237 L 202 235 L 201 242 Q 200 246 196 245 L 193 249 L 198 247 Q 203 245 201 251 L 204 250 L 207 251 L 217 246 Q 219 247 218 245 L 225 240 L 222 239 L 223 236 L 226 234 L 227 231 L 221 230 L 218 227 L 208 221 L 203 211 L 200 211 L 188 205 Q 182 203 183 207 Q 175 209 172 205 L 170 206 L 173 211 L 163 208 L 156 200 L 145 203 Q 140 204 142 200 L 146 195 Q 127 198 114 205 L 105 205 L 103 203 L 106 201 L 110 195 Q 109 192 112 193 L 114 189 L 110 190 L 100 196 L 97 195 L 99 191 L 99 189 L 91 193 L 89 189 Z M 305 191 L 305 194 Q 304 196 308 195 L 305 191 Z M 264 197 L 263 201 L 264 201 L 264 197 Z M 171 200 L 171 202 L 175 203 L 175 202 L 171 200 Z M 188 200 L 188 203 Q 192 204 191 201 L 188 200 Z M 176 203 Q 174 206 177 205 L 176 203 Z M 259 204 L 258 208 L 259 208 L 259 204 Z M 200 205 L 204 209 L 205 209 L 200 205 Z M 319 207 L 320 209 L 321 209 L 319 207 Z M 292 208 L 294 214 L 301 216 Q 302 219 300 218 L 297 222 L 301 221 L 300 224 L 301 225 L 303 223 Q 310 224 314 221 L 315 220 L 309 213 L 304 215 L 298 214 L 294 210 Q 295 207 292 208 Z M 251 209 L 249 211 L 252 211 L 251 214 L 253 217 L 256 216 L 255 213 L 251 209 Z M 259 211 L 259 216 L 264 218 Q 266 217 265 220 L 268 222 L 267 219 L 265 217 L 262 214 L 261 215 L 259 211 Z M 240 212 L 241 215 Q 240 217 243 216 L 242 214 Q 243 211 240 212 Z M 226 213 L 224 215 L 226 219 L 232 222 L 234 221 L 226 213 Z M 233 213 L 233 216 L 235 217 L 234 215 Q 235 212 233 213 Z M 285 216 L 283 218 Q 282 220 285 219 Q 288 218 285 216 Z M 218 217 Q 217 219 221 219 Q 222 216 218 217 Z M 249 217 L 246 219 L 245 221 L 247 220 L 250 221 L 252 229 Q 249 230 248 227 L 247 229 Q 243 231 244 227 L 243 227 Q 244 231 241 230 Q 240 233 244 232 Q 245 228 247 231 L 249 230 L 254 230 L 258 233 L 260 232 L 264 233 L 265 233 L 259 223 L 261 222 L 263 222 L 263 220 L 255 219 Q 253 223 251 220 L 252 218 L 249 217 Z M 116 220 L 110 224 L 111 227 L 110 229 L 107 231 Q 103 233 105 240 L 99 244 Q 95 244 94 242 L 95 240 L 95 238 L 92 242 Q 91 247 95 249 L 103 246 L 106 248 Q 110 244 120 244 L 120 243 Q 116 244 117 241 L 118 239 L 109 243 Q 106 242 107 238 L 116 232 L 115 224 Q 119 222 116 220 Z M 239 220 L 237 223 L 239 223 Q 242 222 239 220 Z M 319 220 L 319 223 L 314 228 Q 313 230 317 229 L 320 235 L 318 236 L 314 231 L 307 232 Q 306 236 313 234 L 316 239 Q 314 240 315 245 L 314 246 Q 310 247 311 245 L 310 245 L 311 249 L 310 252 L 312 255 L 313 261 L 319 260 L 317 254 L 326 250 L 326 233 L 324 231 L 326 228 L 324 223 L 319 220 Z M 221 221 L 220 223 L 225 227 L 227 223 L 223 221 L 221 221 Z M 264 222 L 263 224 L 265 225 L 264 222 Z M 277 222 L 277 225 Q 278 228 282 227 L 285 228 Q 287 229 286 225 L 277 222 Z M 312 224 L 310 227 L 312 228 L 312 224 Z M 184 225 L 171 229 L 169 229 Q 163 232 162 241 L 151 247 L 147 247 L 144 243 Q 145 239 151 240 L 154 235 L 154 233 L 144 239 L 131 240 L 127 242 L 126 244 L 133 242 Q 134 251 128 255 L 130 255 L 132 255 L 147 255 L 147 257 L 152 256 L 157 257 L 177 257 L 179 259 L 183 258 Q 186 257 185 260 L 187 259 L 189 260 L 192 260 L 201 255 L 202 253 L 196 256 Q 192 257 191 255 Q 192 250 188 252 L 187 250 L 188 248 L 193 244 Q 195 245 194 243 Q 196 241 194 240 L 191 241 L 186 247 L 182 246 L 178 249 L 174 254 Q 172 257 166 256 Q 163 255 163 252 L 167 249 L 172 244 Q 171 236 174 233 L 184 230 L 186 227 Q 187 224 184 225 Z M 293 225 Q 292 228 295 227 Q 296 224 293 225 Z M 229 226 L 229 228 L 233 227 L 229 226 Z M 307 226 L 302 228 L 310 229 L 309 228 Q 310 225 307 226 Z M 267 227 L 266 230 L 268 231 L 267 227 Z M 276 228 L 277 230 L 278 230 L 276 228 Z M 288 228 L 290 230 Q 291 227 288 228 Z M 298 228 L 296 230 L 299 233 L 302 229 L 298 228 Z M 272 229 L 270 233 L 273 232 L 272 229 Z M 287 232 L 281 233 L 284 243 L 285 253 L 285 248 Q 286 245 288 247 L 291 245 L 290 249 L 293 247 Q 295 246 294 250 L 302 247 L 295 235 L 293 236 L 291 236 L 287 232 Z M 241 234 L 240 237 L 245 237 L 246 239 L 249 237 L 248 236 L 251 235 L 253 237 L 252 240 Q 250 243 249 239 L 248 241 L 248 243 L 252 245 L 252 242 Q 253 238 258 239 L 260 236 L 254 238 L 253 234 L 245 234 L 244 235 L 241 234 Z M 277 234 L 275 238 L 271 237 L 272 241 Q 274 242 273 239 L 277 239 L 279 245 L 279 254 L 280 254 L 280 244 L 277 234 Z M 238 235 L 237 237 L 240 236 L 238 235 Z M 101 236 L 99 240 L 102 239 L 101 236 Z M 302 236 L 307 245 L 309 244 L 307 239 L 302 236 Z M 228 237 L 226 238 L 227 240 L 232 238 L 228 237 Z M 236 237 L 235 241 L 236 241 L 236 237 Z M 264 237 L 262 239 L 266 240 L 267 238 L 267 240 L 267 242 L 266 242 Q 267 244 264 246 L 265 247 L 267 246 L 268 244 L 268 242 L 270 242 Q 271 239 268 240 L 269 238 L 264 237 Z M 242 238 Q 242 242 244 239 L 242 238 Z M 241 239 Q 239 242 242 241 L 241 239 Z M 260 239 L 259 240 Q 256 239 257 243 L 258 243 Q 257 240 261 241 Q 262 243 263 241 L 260 239 Z M 228 240 L 226 244 L 228 243 L 228 240 Z M 231 240 Q 229 243 232 242 L 231 240 Z M 238 240 L 237 243 L 239 243 L 238 240 Z M 246 240 L 244 242 L 246 242 L 246 240 Z M 275 241 Q 273 244 276 243 L 275 241 Z M 230 242 L 228 244 L 230 244 L 230 242 Z M 233 242 L 233 249 L 230 250 L 229 252 L 233 251 Q 237 249 234 248 L 235 246 L 233 242 Z M 263 242 L 261 244 L 262 247 L 263 244 L 263 242 Z M 247 243 L 245 247 L 247 246 L 247 243 Z M 223 244 L 222 250 L 225 249 L 224 245 L 226 245 L 223 244 Z M 258 244 L 256 246 Q 255 248 258 247 L 258 244 Z M 227 245 L 225 248 L 227 247 L 227 245 Z M 275 245 L 276 247 Q 277 244 275 245 Z M 127 246 Q 125 249 124 247 L 123 248 L 113 248 L 110 250 Q 107 251 107 255 L 114 257 L 123 254 L 128 248 Q 129 245 127 246 Z M 268 246 L 266 250 L 267 253 L 269 249 L 268 246 Z M 332 246 L 330 252 L 326 254 L 330 262 L 332 263 L 332 246 Z M 241 247 L 240 250 L 237 254 L 241 252 L 242 249 L 241 247 Z M 244 247 L 242 250 L 244 250 L 244 247 Z M 272 247 L 270 250 L 271 255 L 272 250 L 272 247 Z M 276 247 L 276 249 L 278 248 L 276 247 Z M 171 248 L 171 250 L 173 249 L 171 248 Z M 261 248 L 260 251 L 261 251 L 261 248 Z M 308 248 L 309 250 Q 310 247 308 248 Z M 264 249 L 263 252 L 264 252 L 264 249 Z M 302 249 Q 301 252 304 251 Q 305 248 302 249 Z M 100 250 L 98 252 Q 97 254 100 253 L 103 257 L 104 257 L 100 250 Z M 308 253 L 307 256 L 308 256 L 308 253 Z M 87 254 L 82 256 L 78 261 L 86 260 L 89 266 L 92 267 Q 93 271 87 269 L 85 269 L 75 268 L 76 262 Q 68 263 63 269 L 68 271 Q 73 276 75 285 L 78 286 L 102 272 L 102 266 L 99 263 L 97 256 Q 94 253 87 254 Z M 216 254 L 212 257 Q 209 256 210 259 L 204 264 L 201 268 L 202 269 L 203 267 L 209 262 L 211 265 L 218 255 L 216 254 Z M 279 254 L 277 258 L 278 260 L 279 260 L 279 254 Z M 270 255 L 269 257 L 268 256 L 267 258 Q 269 261 270 258 L 270 255 Z M 223 256 L 216 264 L 233 267 L 235 260 L 227 256 L 223 256 Z M 248 256 L 248 258 L 245 259 L 244 261 Q 248 262 249 259 Q 255 257 254 261 L 261 263 L 278 277 L 274 282 L 275 286 L 281 278 L 280 271 L 256 257 L 248 256 Z M 200 257 L 199 259 L 201 258 L 200 257 Z M 115 258 L 116 261 L 117 259 L 115 258 Z M 124 258 L 117 263 L 119 266 L 125 261 Q 126 257 124 258 Z M 136 258 L 127 263 L 119 271 Q 115 270 116 274 L 116 276 Q 117 285 120 291 L 145 283 L 168 273 L 186 263 L 173 262 L 172 261 L 149 261 L 147 261 L 140 258 L 136 258 Z M 324 258 Q 321 262 325 261 L 324 258 Z M 204 259 L 201 263 L 205 260 L 204 259 Z M 283 260 Q 282 263 285 262 Q 286 259 283 260 Z M 83 261 L 79 266 L 82 266 L 83 263 L 83 261 Z M 275 261 Q 274 264 277 263 Q 278 260 275 261 Z M 238 262 L 238 264 L 240 263 L 238 262 Z M 288 263 L 288 265 L 290 264 L 288 263 Z M 323 263 L 322 266 L 323 271 L 323 267 L 326 266 Q 327 261 323 263 Z M 188 264 L 169 274 L 169 275 L 176 273 L 190 265 L 188 264 Z M 281 264 L 279 266 L 284 269 L 286 275 L 285 279 Q 281 280 285 282 L 285 281 L 289 279 L 293 283 L 292 279 L 289 277 L 290 274 L 288 271 L 288 267 Q 284 268 285 266 Q 284 263 281 264 Z M 294 264 L 291 269 L 293 274 L 298 272 L 298 270 L 295 271 L 293 269 L 295 265 L 294 264 Z M 303 265 L 304 267 L 307 266 L 303 265 Z M 318 265 L 318 268 L 319 268 Q 320 264 318 265 Z M 194 266 L 157 285 L 152 286 L 119 300 Q 116 308 125 305 L 126 308 L 155 298 L 172 288 L 197 268 Q 198 265 194 266 Z M 209 266 L 207 269 L 209 268 L 209 266 Z M 310 266 L 311 268 L 313 268 L 310 266 Z M 214 267 L 202 283 Q 199 282 200 285 L 172 308 L 153 317 L 140 321 Q 137 320 138 323 L 140 322 L 143 323 L 151 337 L 153 347 L 155 350 Q 152 354 153 361 L 164 360 L 180 355 L 199 343 L 215 329 L 218 327 L 230 314 L 236 304 L 242 287 L 243 276 Q 239 270 230 270 L 228 270 L 214 267 Z M 300 267 L 299 270 L 300 270 L 300 267 Z M 57 268 L 51 271 L 50 273 L 52 272 Q 58 271 61 274 L 71 291 L 72 288 L 71 288 L 71 287 L 70 282 L 67 277 L 63 273 L 60 270 L 57 268 Z M 306 268 L 302 270 L 299 274 L 300 279 Q 303 284 311 284 L 308 279 Q 305 280 306 277 L 310 275 L 312 279 L 323 288 L 327 289 L 329 289 L 327 286 L 324 283 L 321 284 L 316 279 L 316 277 L 306 268 Z M 314 268 Q 312 271 315 270 L 314 268 Z M 327 268 L 326 271 L 327 271 L 327 268 Z M 324 271 L 323 273 Q 321 274 324 275 Q 328 276 327 273 L 324 271 Z M 195 273 L 187 282 L 189 281 Q 195 279 194 283 L 196 283 L 194 279 Q 193 274 196 274 L 195 273 Z M 103 274 L 85 285 L 83 285 L 83 288 Q 80 287 81 290 L 71 295 Q 72 297 74 295 L 77 296 L 105 275 L 103 274 Z M 201 274 L 198 277 L 199 280 L 202 276 Q 203 273 201 274 Z M 52 275 L 49 278 L 36 284 L 41 285 L 44 290 L 43 295 L 39 292 L 34 293 L 32 293 L 33 300 L 37 299 L 38 298 L 41 301 L 50 298 L 52 296 L 61 294 L 68 301 L 69 300 L 65 297 L 67 294 Q 63 292 66 291 L 59 280 L 52 275 Z M 112 275 L 111 279 L 112 279 L 112 275 Z M 166 275 L 151 282 L 151 283 L 155 283 L 168 276 L 166 275 Z M 296 276 L 295 279 L 296 279 L 296 276 Z M 328 276 L 328 281 L 330 281 L 330 276 L 328 276 Z M 106 277 Q 96 287 84 293 Q 79 294 80 300 L 82 299 L 87 300 L 89 298 L 104 296 L 106 296 L 108 295 Q 110 284 106 277 Z M 113 280 L 113 293 L 114 293 L 113 280 Z M 297 280 L 295 287 L 296 291 L 296 288 L 299 286 Q 296 284 297 280 Z M 249 281 L 250 283 Q 251 280 249 281 Z M 286 282 Q 284 285 287 284 L 286 282 Z M 248 283 L 246 288 Q 247 291 245 290 L 245 292 Q 246 294 243 293 L 244 296 L 239 307 L 228 321 L 226 321 L 226 324 Q 223 323 224 326 L 219 330 Q 216 329 217 333 L 202 344 L 199 347 L 198 346 L 197 348 L 193 351 Q 189 350 190 353 L 185 356 L 182 356 L 174 361 L 162 364 L 153 364 L 154 367 Q 155 371 153 373 L 156 382 L 157 379 L 161 380 Q 159 383 160 391 L 162 392 Q 161 389 165 390 L 167 390 L 169 389 L 168 387 Q 170 381 166 382 Q 165 379 170 380 L 172 380 Q 174 379 173 382 L 175 381 L 177 383 Q 179 387 175 386 L 172 385 L 176 391 L 181 383 L 185 384 L 185 383 L 186 381 Q 182 382 183 379 L 186 377 L 185 376 L 194 371 L 194 370 Q 191 371 192 368 Q 195 367 194 370 L 198 370 L 200 370 L 200 369 L 203 367 Q 205 371 207 367 L 209 369 L 215 365 Q 216 363 218 366 Q 220 365 219 368 L 220 368 Q 221 360 218 357 L 218 355 L 219 352 L 223 351 L 232 342 L 234 342 L 236 342 L 238 345 L 234 346 L 236 353 L 239 346 L 237 342 L 239 336 L 236 336 L 239 334 Q 240 331 236 332 L 238 329 Q 240 330 239 326 L 236 328 L 235 327 L 238 325 L 237 322 L 233 326 L 232 331 L 234 334 L 234 335 Q 236 334 235 338 L 230 342 Q 227 343 228 341 L 227 341 Q 222 342 221 339 L 220 337 L 221 334 L 227 330 Q 228 333 224 332 Q 223 336 226 335 Q 227 338 225 337 L 226 339 L 230 336 Q 232 330 228 331 L 228 329 L 235 321 L 242 322 L 244 325 Q 248 322 248 316 L 246 315 L 240 316 L 239 314 Q 239 307 244 305 L 246 306 L 246 304 Q 243 305 244 303 L 247 301 L 246 298 L 250 290 L 252 290 L 251 289 L 251 288 L 249 287 L 248 283 Z M 146 284 L 146 285 L 148 285 L 146 284 Z M 143 285 L 139 287 L 139 288 L 145 286 L 143 285 Z M 181 285 L 178 287 L 177 289 L 181 287 L 181 285 Z M 191 285 L 185 287 L 183 292 L 182 291 L 180 296 Q 183 297 182 294 L 191 288 Q 194 287 191 285 Z M 136 288 L 136 289 L 138 289 L 136 288 Z M 301 288 L 301 291 Q 304 290 301 288 Z M 133 289 L 124 293 L 110 296 L 107 298 Q 99 298 95 301 L 84 302 L 82 302 L 81 304 L 94 303 L 101 300 L 104 301 L 108 299 L 110 300 L 110 299 L 112 299 L 117 297 L 119 297 L 135 290 L 133 289 Z M 274 289 L 273 292 L 274 292 L 274 289 Z M 320 290 L 317 293 L 318 294 L 322 291 L 320 290 Z M 325 290 L 324 292 L 329 293 L 329 291 L 325 290 Z M 170 292 L 156 301 L 164 302 Q 168 301 166 305 L 180 297 L 175 294 Q 171 296 172 301 L 168 302 Q 166 294 171 293 L 170 292 Z M 273 292 L 270 297 L 271 300 L 273 296 L 273 292 Z M 282 292 L 280 294 L 281 296 L 285 294 L 286 297 Q 285 299 284 297 L 282 300 L 283 302 Q 284 299 289 300 L 289 296 Q 286 297 287 295 Q 286 291 282 292 Z M 251 293 L 249 296 L 250 303 Q 252 306 254 302 Q 255 297 253 296 L 252 298 Q 248 296 252 295 L 251 293 Z M 295 293 L 298 304 L 299 304 L 297 297 Q 298 292 295 293 Z M 320 294 L 318 297 L 321 295 L 320 294 Z M 326 294 L 322 297 L 323 299 L 325 296 L 328 297 L 327 296 Q 328 293 326 294 Z M 57 297 L 55 299 L 57 299 L 57 297 Z M 305 298 L 304 301 L 307 309 L 308 309 L 308 305 L 305 298 Z M 52 299 L 50 301 L 51 302 L 53 301 Q 54 298 52 299 Z M 75 299 L 71 304 L 72 305 L 76 303 L 77 301 L 75 299 Z M 58 300 L 53 302 L 52 304 L 59 301 L 58 300 Z M 322 301 L 322 303 Q 325 304 321 306 L 322 307 Q 323 304 326 305 L 327 302 L 326 302 L 322 301 Z M 46 302 L 44 304 L 47 304 Q 48 301 46 302 Z M 62 302 Q 57 306 49 307 L 50 311 L 50 310 Q 51 306 55 307 L 54 311 Q 55 313 60 312 L 61 308 L 64 306 L 63 304 Q 64 301 62 302 Z M 287 302 L 283 308 L 285 313 Q 288 319 295 320 Q 291 315 290 306 L 290 304 L 287 302 Z M 41 303 Q 39 306 42 305 L 41 303 Z M 112 303 L 110 305 L 111 308 L 113 307 L 114 305 Q 115 302 112 303 Z M 150 303 L 145 305 L 145 306 Q 150 307 152 304 L 150 303 Z M 330 303 L 327 308 Q 326 312 329 313 Q 328 315 331 314 L 332 315 L 330 303 Z M 256 304 L 254 306 L 256 306 L 256 304 Z M 294 304 L 293 308 L 296 310 L 294 304 Z M 98 305 Q 97 309 104 307 Q 105 304 98 305 Z M 317 305 L 316 308 L 316 309 L 318 308 L 317 305 Z M 142 306 L 123 314 L 126 314 L 130 314 L 134 315 L 137 311 L 144 307 L 142 306 Z M 158 306 L 152 309 L 150 312 L 150 313 L 162 308 L 158 306 Z M 279 306 L 278 308 L 280 309 L 279 306 Z M 248 307 L 243 310 L 244 311 L 246 310 L 247 312 L 250 311 L 249 313 L 250 314 L 253 309 L 248 307 Z M 71 308 Q 69 313 74 314 Q 76 315 75 313 L 73 311 L 71 308 Z M 80 308 L 80 313 L 83 312 Q 88 311 90 313 L 109 312 L 108 310 L 102 312 Q 96 313 94 310 L 91 311 Q 87 307 80 308 Z M 319 309 L 319 312 L 324 316 L 326 316 L 327 316 L 321 312 Q 322 308 319 309 Z M 266 310 L 265 313 L 266 313 L 266 310 Z M 274 310 L 275 311 L 276 312 Q 277 309 274 310 Z M 297 310 L 296 313 L 298 314 L 297 310 Z M 314 311 Q 312 315 316 316 L 317 316 L 314 311 Z M 144 312 L 142 313 L 139 317 L 147 315 L 144 312 Z M 243 312 L 243 314 L 246 313 L 243 312 Z M 277 312 L 276 316 L 277 316 L 277 312 Z M 266 314 L 259 322 L 260 323 L 262 322 L 264 325 L 266 324 L 270 319 L 269 318 L 266 314 Z M 300 315 L 299 318 Q 301 322 303 319 L 300 317 L 300 315 Z M 112 316 L 112 317 L 117 317 L 112 316 Z M 308 316 L 305 320 L 306 321 L 309 318 L 308 316 Z M 318 316 Q 316 319 319 318 L 318 316 Z M 75 317 Q 70 320 69 326 Q 68 328 72 327 L 77 319 L 88 319 L 89 320 L 91 319 L 93 319 L 97 320 L 99 323 L 98 326 L 95 327 L 91 323 L 89 323 L 85 328 L 88 329 L 90 329 L 98 328 L 100 328 L 112 326 L 111 321 L 110 323 L 106 326 L 101 326 L 103 322 L 108 318 L 105 317 L 103 317 L 98 319 L 89 318 L 87 318 L 82 317 L 80 317 L 78 318 L 75 317 Z M 252 317 L 251 320 L 252 320 L 252 317 Z M 133 318 L 132 320 L 136 319 L 133 318 Z M 278 318 L 276 320 L 283 321 L 282 320 Q 283 316 278 318 Z M 122 319 L 116 322 L 117 325 L 131 321 L 122 319 Z M 320 320 L 317 324 Q 314 325 315 322 L 312 324 L 307 323 L 309 326 L 313 325 L 314 328 L 318 327 L 325 329 Q 325 323 320 320 Z M 80 322 L 78 325 L 75 326 L 79 327 L 83 327 L 81 324 Q 82 321 80 322 Z M 298 322 L 297 324 L 300 325 L 298 322 Z M 273 324 L 269 325 L 260 341 L 259 347 L 261 346 L 262 346 L 262 350 L 260 351 L 258 350 Q 255 349 256 352 L 257 354 Q 260 353 259 357 L 256 358 L 258 358 L 257 361 L 260 361 L 255 372 L 256 374 L 258 367 L 261 364 Q 265 366 262 368 L 263 369 L 265 368 L 260 359 L 260 354 L 264 352 L 267 352 L 268 357 Q 270 355 276 356 Q 279 358 278 360 L 281 358 L 270 352 L 273 350 L 279 352 L 281 352 L 276 348 L 270 348 L 274 345 L 282 348 L 283 348 L 274 343 L 275 341 Q 280 340 282 343 L 284 343 L 273 338 L 278 336 L 277 334 Q 274 335 275 332 L 279 332 L 275 329 L 278 327 L 281 328 L 281 327 Q 280 323 273 324 Z M 243 325 L 241 328 L 242 330 L 241 334 L 242 335 L 244 334 Q 245 336 246 334 L 243 325 Z M 290 325 L 289 328 L 290 328 L 290 325 Z M 291 328 L 290 330 L 296 334 L 291 328 Z M 329 328 Q 326 333 330 332 L 329 328 Z M 282 331 L 285 334 L 286 334 L 282 331 Z M 324 333 Q 324 338 321 340 L 330 347 L 331 347 L 330 342 L 327 338 Q 328 335 325 336 L 324 333 Z M 297 334 L 300 337 L 302 336 Q 304 337 303 335 L 302 335 L 297 334 Z M 233 335 L 231 338 L 233 337 L 233 335 Z M 280 335 L 279 337 L 284 338 L 285 338 L 280 335 Z M 306 335 L 306 338 L 311 338 L 306 335 Z M 333 335 L 332 338 L 333 338 L 333 335 Z M 288 339 L 289 341 L 290 341 L 288 339 Z M 333 342 L 332 345 L 333 345 L 333 342 Z M 287 344 L 288 346 L 293 348 L 293 346 L 287 344 Z M 306 344 L 302 347 L 303 348 L 308 345 L 306 344 Z M 302 348 L 300 352 L 302 351 L 302 348 Z M 230 349 L 227 351 L 222 356 L 222 359 L 222 361 L 224 364 L 226 374 L 230 380 Q 229 382 232 381 Q 231 377 234 375 L 233 371 L 234 368 L 233 365 L 235 361 Q 231 356 230 349 Z M 286 349 Q 285 352 290 351 L 291 354 L 292 352 L 286 349 Z M 333 349 L 332 356 L 333 356 L 333 349 Z M 253 351 L 252 353 L 254 352 L 253 351 Z M 283 353 L 283 355 L 282 357 L 288 356 L 283 353 Z M 329 355 L 328 359 L 329 359 L 329 355 Z M 291 357 L 284 359 L 280 364 L 280 366 L 279 371 L 274 370 Q 269 368 270 372 Q 270 374 266 374 Q 264 372 263 375 L 264 377 Q 265 379 267 377 L 271 378 L 275 373 Q 278 372 277 375 L 280 376 L 278 373 L 282 371 L 285 372 L 287 371 Q 289 372 288 369 L 295 368 L 296 367 L 296 364 L 290 367 Q 286 366 287 369 L 285 370 Q 281 371 282 368 L 283 366 Q 280 367 281 365 Q 284 360 290 359 L 300 359 Q 297 356 291 357 Z M 269 358 L 270 361 L 267 361 Q 266 367 270 368 L 272 368 L 270 366 L 268 364 L 272 361 L 274 362 Q 278 363 277 360 L 269 358 Z M 254 360 L 252 363 L 254 362 L 254 360 Z M 305 360 L 302 363 L 303 365 L 305 362 L 305 360 Z M 332 360 L 332 369 L 333 369 Q 335 362 332 360 Z M 291 361 L 289 362 L 288 364 Q 292 365 294 363 Q 298 365 297 362 L 294 362 L 291 361 Z M 256 362 L 254 364 L 255 366 L 256 364 L 256 362 Z M 66 364 L 64 366 L 67 366 Q 68 363 66 364 Z M 72 364 L 72 365 L 74 365 L 72 364 Z M 249 364 L 249 366 L 245 365 L 244 374 L 249 378 L 247 375 Q 245 369 249 370 L 251 368 L 251 366 Q 252 363 249 364 Z M 322 365 Q 318 367 323 369 L 326 368 L 322 365 Z M 69 367 L 67 368 Q 64 370 67 371 L 70 369 Q 71 366 69 367 Z M 330 368 L 327 373 Q 318 383 303 387 L 293 386 Q 291 384 290 387 L 297 392 Q 302 391 304 393 L 315 390 L 320 386 Q 322 387 321 384 L 323 384 L 330 372 L 330 368 Z M 221 369 L 221 374 L 223 375 L 221 369 Z M 267 369 L 265 371 L 267 371 L 267 369 Z M 82 370 L 78 372 L 78 373 L 85 372 L 82 370 Z M 323 370 L 323 372 L 325 371 L 323 370 Z M 333 370 Q 333 378 328 382 L 328 383 Q 330 382 329 386 Q 325 387 326 385 L 324 386 L 325 388 L 324 391 L 321 389 L 318 398 L 317 409 L 313 423 Q 315 421 317 424 L 319 421 L 321 422 L 324 420 L 325 423 L 322 429 L 324 429 L 326 427 L 327 418 L 330 417 L 330 419 L 333 417 L 333 370 Z M 197 371 L 192 373 L 193 376 L 191 386 L 195 394 Q 196 396 198 394 L 199 397 L 208 405 L 209 405 L 210 408 L 209 410 L 207 409 L 200 411 Q 194 412 192 409 L 184 409 L 182 408 L 186 406 L 186 405 L 182 406 L 176 403 Q 169 399 168 391 L 165 398 L 162 401 L 161 407 L 158 407 L 150 414 Q 147 413 148 416 L 146 417 L 139 425 L 136 427 L 127 436 L 127 437 L 123 438 L 114 444 L 110 450 Q 109 452 106 451 L 93 461 L 86 469 L 49 498 L 43 501 L 40 501 L 36 504 Q 33 503 34 506 L 25 510 L 23 509 Q 16 507 15 511 Q 14 513 17 512 L 24 521 L 27 523 L 26 521 L 28 517 Q 31 516 30 519 L 36 521 L 38 520 L 43 523 Q 51 521 55 515 L 52 511 L 54 509 L 57 512 L 55 509 L 58 508 L 59 509 L 58 505 L 61 506 L 64 503 L 63 502 L 65 499 L 65 501 Q 68 502 67 498 L 71 494 L 73 496 L 74 494 L 73 494 L 72 492 L 76 494 L 77 494 L 77 490 L 80 491 L 81 491 L 81 487 L 84 488 L 84 487 Q 86 483 88 487 L 88 483 L 91 484 Q 93 485 92 482 L 95 483 L 114 478 L 129 467 L 133 459 L 139 454 Q 141 453 140 457 L 142 457 L 145 453 L 147 454 L 148 450 L 152 451 L 154 448 L 157 449 L 156 448 Q 158 443 160 446 L 163 444 L 165 446 L 164 443 L 167 441 L 168 444 Q 167 446 170 445 L 168 441 L 171 439 L 172 442 L 173 442 Q 171 435 176 437 L 177 440 L 179 436 L 181 440 Q 183 443 184 440 L 182 436 L 185 434 L 186 438 L 188 439 L 187 434 L 191 432 L 193 433 L 199 431 L 196 425 L 199 423 L 202 430 L 206 431 L 201 424 Q 200 420 204 421 L 205 424 L 207 425 L 205 420 L 211 415 L 212 419 L 214 418 L 212 415 L 216 413 L 216 411 L 223 399 L 209 394 L 205 391 L 200 377 Q 203 369 197 371 Z M 209 372 L 207 373 L 204 374 L 208 389 Q 209 393 214 392 L 216 389 L 214 387 L 211 384 L 212 379 L 208 380 L 209 377 L 209 372 Z M 311 373 L 312 375 L 314 374 L 311 373 Z M 98 375 L 99 377 Q 100 374 98 375 Z M 305 375 L 303 378 L 305 377 L 305 375 Z M 259 376 L 258 380 L 256 380 L 254 380 L 250 378 L 248 381 L 251 383 Q 256 382 259 385 L 266 382 L 262 381 L 259 376 Z M 62 378 L 58 381 L 59 386 L 62 380 L 62 378 Z M 226 378 L 226 382 L 227 382 L 226 378 Z M 242 378 L 216 429 Q 217 431 214 430 Q 213 433 216 432 L 220 428 L 230 408 L 229 405 L 231 405 L 240 389 L 239 387 L 241 387 L 244 382 L 242 378 Z M 279 378 L 278 381 L 280 381 L 279 378 Z M 281 381 L 283 384 L 283 383 L 281 381 Z M 67 382 L 61 392 L 60 394 L 68 387 L 67 382 Z M 151 382 L 150 386 L 151 386 L 151 382 Z M 228 382 L 228 386 L 229 386 L 228 382 Z M 217 383 L 216 385 L 218 386 L 217 383 Z M 284 384 Q 284 391 281 395 Q 283 398 284 395 L 284 384 Z M 278 385 L 275 386 L 274 391 L 280 389 L 278 385 Z M 75 387 L 73 390 L 75 389 L 75 387 Z M 154 387 L 151 393 L 154 393 L 155 394 L 154 387 Z M 245 388 L 220 434 L 220 436 L 217 442 L 219 441 L 221 442 Q 223 446 225 442 L 224 439 L 228 437 L 240 420 Q 239 417 242 418 L 239 413 L 242 411 L 245 412 L 254 400 L 254 395 Q 251 396 252 393 L 259 393 L 257 391 L 252 392 L 250 392 L 245 388 Z M 265 391 L 264 396 L 265 396 L 265 391 Z M 175 392 L 173 394 L 174 398 L 177 399 L 178 394 L 175 392 Z M 217 393 L 219 395 Q 220 392 217 393 Z M 307 393 L 301 395 Q 302 402 299 407 L 299 414 L 296 421 Q 294 427 298 427 L 303 415 L 307 397 L 307 393 Z M 310 393 L 309 400 L 309 402 L 301 426 L 302 428 L 305 423 Q 305 416 308 414 L 310 399 L 312 394 L 310 393 Z M 184 394 L 185 396 Q 186 393 184 394 Z M 294 394 L 292 397 L 291 412 L 288 420 L 289 425 L 294 406 L 294 394 Z M 157 395 L 159 398 L 159 397 L 157 395 Z M 150 396 L 146 401 Q 145 403 149 402 L 153 406 L 149 401 L 150 398 L 150 396 Z M 189 396 Q 186 398 189 399 Q 192 398 189 396 Z M 264 396 L 262 400 L 265 402 L 264 396 Z M 154 398 Q 152 401 156 403 L 157 399 L 154 398 Z M 298 398 L 297 402 L 298 402 L 298 398 Z M 258 399 L 256 403 L 260 403 L 258 399 Z M 289 399 L 288 404 L 289 404 L 289 399 Z M 180 400 L 182 402 Q 183 399 180 400 Z M 271 401 L 266 409 Q 263 408 264 411 L 255 419 L 256 421 L 258 418 Q 261 419 260 416 L 264 415 L 262 422 Q 261 425 264 424 L 265 416 L 267 414 L 269 416 L 267 421 L 268 424 Q 272 422 269 421 L 270 415 L 273 413 L 271 401 Z M 146 402 L 144 404 L 147 409 L 150 410 L 146 402 Z M 284 403 L 282 405 L 283 409 L 284 409 L 284 403 Z M 255 404 L 254 406 L 253 408 L 256 407 L 255 404 Z M 143 406 L 141 409 L 141 410 Q 143 409 142 412 L 146 414 L 143 406 Z M 203 406 Q 201 409 196 407 L 196 408 Q 202 410 204 407 L 203 406 Z M 288 406 L 285 416 L 286 420 L 288 411 L 288 406 Z M 251 409 L 248 412 L 249 413 L 251 412 L 251 409 Z M 139 412 L 137 415 L 139 414 L 142 417 L 139 412 Z M 247 414 L 245 417 L 247 417 L 247 414 Z M 274 414 L 273 418 L 274 423 L 276 415 L 274 414 Z M 311 414 L 310 417 L 311 417 L 311 414 Z M 279 415 L 278 420 L 279 420 L 279 415 Z M 137 416 L 134 418 L 138 420 L 139 420 L 137 416 Z M 310 417 L 306 426 L 307 428 L 310 421 L 310 417 Z M 245 418 L 243 421 L 241 424 Q 244 425 243 423 L 246 421 L 245 418 Z M 13 419 L 13 422 L 15 421 Q 16 418 13 419 Z M 133 419 L 130 421 L 128 420 L 125 421 L 126 424 L 122 424 L 110 432 Q 107 433 109 435 Q 110 437 106 436 L 106 434 L 104 437 L 106 440 Q 107 443 103 441 L 104 444 Q 105 447 103 446 L 100 443 L 99 443 L 100 447 Q 104 448 101 450 L 98 448 Q 93 447 94 450 L 99 453 L 104 450 L 109 444 Q 112 445 111 442 Q 109 440 112 439 Q 114 438 113 441 L 115 441 L 114 439 L 115 436 L 120 433 L 120 435 L 123 434 L 122 432 Q 121 428 124 429 L 127 432 L 124 428 Q 123 425 127 426 Q 129 432 132 427 L 129 425 L 132 423 L 133 426 L 135 425 L 133 419 Z M 294 419 L 293 423 L 294 423 L 294 419 Z M 210 420 L 211 424 Q 214 422 210 420 Z M 278 420 Q 275 424 279 423 L 278 420 Z M 285 420 L 284 424 L 285 424 L 285 420 Z M 251 422 L 250 425 L 251 425 L 251 422 Z M 208 425 L 207 427 L 209 428 L 208 425 Z M 263 428 L 262 429 Q 257 427 258 431 L 257 430 L 242 433 Q 232 438 233 453 L 236 452 L 243 453 L 232 454 L 233 459 L 236 456 L 246 455 L 250 452 L 252 453 Q 254 452 253 455 Q 250 457 243 456 L 236 459 L 232 463 L 233 464 L 231 469 L 228 471 L 220 470 L 213 464 L 210 470 L 209 471 Q 204 470 203 472 L 193 469 L 188 470 L 186 467 L 173 474 Q 170 473 171 476 L 167 478 L 164 477 Q 168 466 176 460 L 186 453 L 186 447 L 187 446 L 187 444 L 168 452 L 162 452 Q 158 455 152 455 Q 133 464 120 478 L 109 483 L 135 495 L 140 504 L 140 507 Q 146 508 150 513 L 152 512 L 156 515 L 161 512 L 195 525 L 207 525 L 209 524 L 211 524 L 219 524 L 220 525 L 224 524 L 226 525 Q 231 522 241 523 L 258 514 L 264 514 Q 266 517 272 516 L 276 519 L 280 518 L 296 518 L 297 519 L 320 520 L 321 521 Q 321 518 315 519 L 313 515 L 321 514 L 321 512 L 314 512 L 314 510 L 318 507 L 322 507 L 322 500 L 324 499 L 327 498 L 333 499 L 333 428 L 325 432 L 313 433 L 311 433 L 304 434 L 302 434 L 300 433 L 298 434 L 277 430 L 275 430 L 269 428 L 263 428 Z M 211 432 L 209 436 L 198 434 L 193 442 L 194 443 L 201 437 L 208 441 L 208 450 L 203 464 Q 202 466 199 465 Q 197 463 196 466 L 207 467 L 209 464 L 214 443 L 213 440 L 213 437 Q 216 438 215 435 L 213 436 L 211 432 Z M 235 432 L 233 434 L 236 434 Q 237 431 235 432 Z M 10 435 L 8 437 L 9 444 L 9 443 L 9 441 L 10 437 L 10 435 Z M 118 436 L 118 439 Q 121 438 118 436 Z M 232 436 L 230 439 L 232 438 L 232 436 Z M 13 439 L 14 447 L 15 444 Q 17 438 13 439 Z M 178 440 Q 176 443 179 442 L 178 440 Z M 229 440 L 227 443 Q 228 445 224 444 Q 223 447 226 446 L 225 450 Q 224 452 227 451 Q 226 446 230 444 L 229 440 Z M 198 441 L 197 445 L 198 447 L 203 443 Q 202 440 198 441 Z M 193 443 L 191 445 L 192 450 L 193 446 L 193 443 Z M 218 445 L 213 461 L 218 461 L 221 463 L 222 467 L 225 468 Q 229 466 226 465 Q 227 457 224 458 L 222 454 L 223 451 L 222 448 L 218 445 Z M 161 446 Q 159 449 162 448 L 161 446 Z M 203 447 L 200 450 L 185 457 L 177 465 Q 178 467 175 466 L 175 468 L 172 470 L 173 472 L 173 470 L 184 464 L 196 461 L 200 462 L 204 452 Q 206 446 203 447 Z M 12 449 Q 11 454 8 457 L 9 461 L 12 454 L 12 449 Z M 93 450 L 91 453 Q 93 452 92 455 L 96 457 L 93 450 Z M 89 453 L 85 457 L 89 459 Q 88 461 91 460 L 89 453 Z M 84 457 L 82 459 L 84 463 Q 86 466 87 463 L 85 460 Q 86 456 84 457 Z M 80 461 L 78 463 L 82 469 L 83 467 L 80 461 Z M 74 466 L 72 468 L 75 468 L 78 472 L 80 471 Q 82 472 81 469 L 78 468 Q 75 469 76 466 L 74 466 Z M 70 470 L 68 472 L 71 478 L 72 478 L 70 470 Z M 69 478 Q 69 482 71 479 L 69 478 Z M 61 479 L 59 482 L 63 485 L 61 479 Z M 65 479 L 64 481 L 67 482 L 65 479 Z M 44 480 L 40 481 L 36 486 L 34 488 Q 28 487 27 489 L 23 488 L 19 488 L 16 490 L 8 491 L 8 502 L 7 503 L 9 506 L 12 506 L 16 502 Q 21 503 23 499 L 26 499 L 34 493 L 35 491 L 36 492 L 44 492 L 53 481 L 51 480 L 46 481 L 44 480 Z M 57 483 L 56 486 Q 58 490 60 487 L 58 486 L 57 483 Z M 97 486 L 90 489 Q 87 488 88 491 L 84 492 L 68 503 L 62 509 L 55 520 L 54 519 L 47 526 L 43 527 L 38 524 L 33 525 Q 29 527 29 534 L 28 533 L 27 535 L 19 539 Q 16 538 17 541 L 14 543 L 8 543 L 8 549 L 43 548 L 45 548 L 48 549 L 50 548 L 55 549 L 57 549 L 62 548 L 64 548 L 78 548 L 79 549 L 81 548 Q 86 547 88 549 L 92 548 L 94 548 L 97 549 L 100 548 L 142 548 L 144 548 L 147 549 L 149 548 L 160 548 L 161 549 L 165 548 L 169 549 L 172 548 L 174 548 L 177 549 L 182 548 L 186 549 L 187 548 L 204 548 L 205 547 Q 206 550 212 548 L 214 548 L 216 547 L 258 547 L 259 548 L 264 547 L 269 548 Q 274 550 276 547 L 279 548 L 292 548 L 293 547 L 297 548 L 309 547 L 288 545 L 267 541 L 265 544 L 264 542 L 258 544 Q 252 546 251 543 L 241 544 L 239 544 L 230 543 L 223 540 L 221 541 L 218 539 L 203 538 L 191 533 L 188 533 Q 183 532 184 526 L 179 523 L 177 523 Q 174 519 168 520 L 166 518 Q 159 517 156 520 L 151 518 L 146 525 L 141 522 L 136 521 L 133 519 L 135 516 Q 140 515 142 517 L 143 517 L 140 514 Q 137 515 138 512 L 126 507 L 122 508 L 113 507 L 112 505 L 119 500 L 131 502 L 130 499 L 112 488 L 103 486 L 100 487 L 97 486 Z M 47 493 L 45 495 Q 44 497 47 496 L 47 493 Z M 42 495 Q 40 498 43 497 L 42 495 Z M 36 497 L 36 499 L 38 500 Q 39 496 36 497 Z M 326 500 Q 325 505 329 503 Q 331 499 326 500 Z M 23 501 L 20 503 L 21 505 L 24 503 Q 25 500 23 501 Z M 327 504 Q 324 509 332 507 L 331 509 L 326 508 L 327 510 L 333 510 L 333 504 L 329 504 L 327 504 Z M 24 506 L 23 508 L 25 507 L 24 506 Z M 10 508 L 8 510 L 8 534 L 12 539 L 17 537 Q 16 530 12 528 Q 11 525 14 526 L 18 535 L 19 535 L 19 532 L 15 526 L 18 525 L 21 534 L 26 532 Q 26 523 21 519 L 11 510 Q 12 507 10 508 Z M 320 509 L 321 510 L 322 511 Q 323 508 320 509 Z M 325 512 L 325 514 L 331 514 L 331 516 L 325 515 L 326 517 L 333 517 L 334 514 L 333 512 L 325 512 Z M 320 515 L 317 517 L 321 517 Q 322 514 320 515 Z M 327 518 L 325 520 Q 325 523 332 521 L 333 522 L 333 518 L 327 518 Z M 308 524 L 306 526 L 308 526 L 308 524 Z M 308 526 L 308 528 L 310 529 Q 311 525 308 526 Z M 304 527 Q 302 530 305 529 L 304 527 Z M 315 529 L 316 531 Q 317 528 315 529 Z M 262 530 Q 261 533 264 532 Q 265 529 262 530 Z M 310 532 Q 309 535 312 534 Q 313 531 310 532 Z M 287 533 Q 285 536 288 535 L 287 533 Z M 290 535 Q 288 538 291 537 L 290 535 Z M 311 536 Q 310 539 313 538 Q 314 535 311 536 Z M 8 537 Q 6 541 10 540 L 11 541 L 10 539 Q 11 536 8 537 Z M 308 537 L 308 538 L 310 538 L 308 537 Z M 246 538 L 246 539 L 248 539 L 246 538 Z M 240 539 L 240 540 L 243 540 L 240 539 Z M 279 539 Q 278 541 284 540 L 285 541 Q 286 538 279 539 Z M 289 539 L 287 541 L 291 541 Q 292 538 289 539 Z M 311 539 L 312 540 L 313 541 Q 314 538 311 539 Z M 324 539 Q 322 542 325 541 Q 326 544 322 543 Q 320 539 319 542 Q 315 543 316 540 Q 313 539 314 542 L 308 541 L 303 543 L 314 544 L 316 544 L 334 544 L 328 541 L 328 543 L 327 542 L 324 539 Z M 292 540 L 292 542 L 295 542 L 292 540 Z M 300 542 L 300 543 L 302 543 L 300 542 Z M 306 550 L 305 551 L 203 551 L 202 552 L 182 552 L 181 553 L 180 552 L 151 552 L 150 551 L 99 551 L 98 552 L 96 551 L 94 552 Q 89 553 88 551 Q 82 550 81 552 L 80 551 L 66 551 L 64 551 L 50 551 L 49 552 L 47 551 L 46 552 L 10 552 Q 7 553 8 559 L 8 561 L 8 588 L 9 589 L 10 591 L 46 591 L 48 591 L 89 590 L 90 589 L 91 590 L 109 590 L 110 591 L 155 591 L 156 590 L 161 591 L 185 591 L 186 590 L 191 591 L 208 591 L 209 590 L 218 590 L 219 591 L 222 590 L 245 590 L 246 591 L 251 590 L 261 590 L 262 591 L 283 591 L 284 590 L 288 591 L 291 590 L 299 590 L 300 591 L 303 590 L 307 591 L 309 591 L 323 591 L 324 590 Q 331 589 334 591 L 334 550 L 306 550 Z "></path><path d="M 289.5 19 L 291 19.5 L 288 22.5 Q 289.3 27.8 286.5 29 L 285 29 L 285 34 L 282 34 L 282 30.5 L 285 26.5 L 286 21 L 289.5 19 Z "></path><path d="M 301.5 25 Q 307.6 24.3 310 26 L 314.5 32 L 317 33.5 L 318 36.5 L 315.5 38 L 311.5 32 Q 307.8 33.3 309 29.5 L 308 27 L 303.5 26 Q 301.7 28.5 301.5 25 Z "></path><path d="M 291.5 53 Q 297.3 53.3 300 56.5 L 301.5 60 L 304 61.5 Q 305 66 302.5 67 Q 299.8 67.6 301 61.5 L 297 58.5 L 295.5 55 Q 290.7 55 291.5 53 Z "></path><path d="M 276.5 72 L 277 74 L 275 73.5 L 276.5 72 Z "></path><path d="M 272.5 75 Q 275.9 74.1 274 79.5 L 272 82.5 L 273 85 Q 267.8 87.1 269 82.5 L 272 79.5 L 271 78.5 L 272.5 75 Z "></path><path d="M 242 169 L 245 170.5 Q 245.7 173.5 242 172 L 242 169 Z "></path><path d="M 271.5 203 L 287 207 L 285.5 210 L 274.5 208 L 270 205.5 L 271.5 203 Z "></path><path d="M 269.5 210 L 276.5 210 L 277 211.5 Q 275.5 214.5 269.5 213 Q 266.5 211.5 269.5 210 Z "></path><path d="M 286.5 308 L 287.5 310 L 286.5 308 Z "></path><path d="M 264.5 338 L 266 340.5 L 264 341.5 L 264.5 338 Z "></path><path d="M 212.5 344 L 216 345 L 217 348.5 L 216 349.5 L 216 357 L 213.5 356 L 212 359 Q 209.3 357.9 210 360.5 L 206.5 363 L 205.5 361 L 199.5 364 L 195 360.5 L 194 356.5 L 197.5 351 L 203 350.5 Q 200.7 349.3 203.5 348 L 212.5 344 Z M 212 346 L 210 348 L 213 348 Q 214 345 212 346 Z M 214 348 L 213 350 L 211 351 L 208 350 L 210 353 L 214 351 L 214 348 Z M 206 352 Q 206 355 202 354 L 202 356 L 199 355 L 198 359 L 204 361 L 206 356 L 206 352 Z "></path><path d="M 180.5 360 L 187 361 L 186 366.5 L 187 367.5 L 182 372.5 Q 182.8 375.1 179.5 374 L 177 374.5 L 176 376.5 L 178.5 377 L 181.5 376 L 183 376.5 Q 181 379.8 176 379 Q 177.4 375 170.5 377 L 167.5 373 L 164 371.5 L 163 368.5 Q 165 365 167 369.5 Q 166.2 372.1 169.5 371 L 173 368.5 L 174 366.5 L 172.5 366 L 170 367 Q 171 370 168 369 L 167.5 366 Q 166.3 368.3 165 365.5 Q 167.4 362.9 173.5 364 L 180.5 360 Z M 181 362 L 179 365 L 178 364 L 177 367 L 180 366 L 183 367 Q 184 364 181 365 L 182 363 L 181 362 Z M 179 369 L 177 371 L 179 371 L 180 372 Q 181 368 179 369 Z M 175 370 L 173 372 Q 172 376 176 374 L 175 370 Z "></path><path d="M 214 401 Q 219.6 399.1 218 404 L 214 402.5 L 214 401 Z "></path><path d="M 212 405 L 216 405 L 216 406.5 L 213.5 408 L 212 405 Z "></path><path d="M 192.5 426 Q 195.8 424.9 195 427.5 L 196 431 Q 192.2 432.5 193 429.5 Q 189.3 427.8 192.5 426 Z "></path><path d="M 222.5 463 Q 225.1 462.2 224 465.5 L 223 465.5 L 222.5 463 Z "></path><path d="M 16.5 519 L 20 521.5 Q 20.7 524.1 18 523 L 16.5 519 Z "></path><path d="M 52.5 522 L 50.5 525 L 52.5 522 Z "></path><path d="M 20.5 524 L 24 530.5 L 22 531.5 L 22 527.5 Q 19 526.5 20.5 524 Z "></path><path d="M 53.5 525 L 54 527 L 52 526.5 L 53.5 525 Z "></path><path d="M 49.5 526 L 50 528.5 L 49 528.5 L 49.5 526 Z "></path><path d="M 46.5 527 L 47 528.5 L 44.5 530 L 46.5 527 Z "></path><path d="M 9.5 529 L 14 535.5 L 11 533.5 L 9.5 529 Z "></path><path d="M 50 533 L 52 533.5 L 50 534.5 L 50 533 Z "></path><path d="M 48 537 L 50 537.5 L 48 538.5 L 48 537 Z "></path><path d="M 45.5 542 L 44.5 544 L 45.5 542 Z "></path><path d="M 41.5 543 Q 44.5 544.5 41.5 546 L 41.5 543 Z "></path><path d="M 214.5 544 L 217 544.5 L 214.5 545 L 214.5 544 Z "></path><path d="M 341 545 L 343 545.5 L 341 546.5 L 341 545 Z "></path><path d="M 342.5 548 L 343 549.5 L 341.5 553 L 341 550.5 L 342.5 548 Z "></path><path d="M 342.5 554 L 343 556 L 341 555.5 L 342.5 554 Z "></path><path d="M 233.5 559 Q 240.5 558.3 244 560 L 245 565.5 L 241.5 570 Q 237.8 569 239 572 Q 241.7 570.9 241 573.5 L 246 579.5 L 246 582 L 243.5 582 L 232 573 L 232 582 L 227 582 L 228 579.5 L 228 562 Q 225 563 226 560 L 232.5 560 L 233.5 559 Z M 234 561 Q 231 562 232 567 Q 233 569 238 568 Q 240 567 239 563 Q 238 560 234 561 Z "></path><path d="M 248 559 L 260.5 559 L 265 561.5 Q 268 565.5 267 573.5 L 261.5 581 L 249 582 L 248 559 Z M 253 561 L 254 578 Q 252 579 255 580 L 259 579 L 262 575 Q 263 568 261 565 Q 259 560 253 561 Z "></path><path d="M 277.5 559 Q 281.5 558.5 282 561.5 Q 283.3 565.7 278.5 564 L 275 561.5 L 277.5 567 L 283 570.5 L 285 574.5 L 283 581 L 279.5 582 L 277.5 581 L 276.5 582 L 268 582 L 268 575.5 L 269.5 574 L 271.5 573 L 275.5 580 L 279 578.5 Q 280.3 571.3 275.5 570 L 271 567.5 L 270 563.5 L 273.5 560 L 277.5 559 Z "></path><path d="M 163.5 560 L 166.5 561 L 170 560 L 170 567 L 167.5 567 L 166 564 L 162 566.5 Q 160.5 570.9 163.5 570 L 164.5 569 L 171 569 Q 173.7 571.6 173 578.5 L 167.5 583 L 165.5 583 L 157.5 582 L 155 583 L 154 579.5 L 155 575 L 159 576.5 L 160.5 579 L 162.5 580 L 164.5 580 Q 168.9 581.5 168 578.5 L 169 575.5 L 168 573 L 162.5 574 L 157 569.5 Q 156.2 563.7 159.5 562 L 163.5 560 Z "></path><path d="M 174.5 560 L 178.5 561 L 180 560.5 L 180 564.5 L 183.5 573 L 185 565.5 L 183 560 L 192.5 560 L 193 562 Q 190.3 560.9 191 563.5 L 191 565.5 L 195 576 Q 198.3 577.3 197 572.5 L 200 562 Q 197 563 198 560 L 205 560.5 L 203 562.5 L 199 579.5 L 197.5 581 Q 193.1 582.5 194 579.5 L 187.5 571 L 184 577.5 L 185 580.5 L 182.5 582 L 179 579.5 L 177 566.5 L 174.5 562 L 173 561.5 L 174.5 560 Z "></path><path d="M 210.5 560 Q 220.2 558.8 223 564.5 Q 225.6 567.4 225 573.5 L 221.5 579 L 217.5 581 L 208.5 581 L 204 577.5 L 203 568.5 L 207 562 L 210.5 560 Z M 211 562 L 209 569 Q 208 576 213 579 Q 217 580 218 578 Q 219 569 217 565 Q 216 561 211 562 Z "></path><path d="M 14 562 L 18.5 563 L 21 562 L 20 568.5 L 21 568.5 L 23 565.5 Q 24.5 561.8 30 563 Q 31.3 566 27.5 565 L 22 570.5 L 25 573.5 L 28 579 L 31 580.5 Q 30.2 583.1 33.5 582 L 34.5 584 L 26.5 584 L 26 582 Q 29 583 28 580 L 25 578.5 L 23 574 L 21 574.5 L 21 585 L 17.5 585 L 15 583.5 L 16 582.5 L 16 565.5 L 14 562 Z "></path><path d="M 39.5 562 L 49.5 577 L 50 566.5 L 48 563 L 51.5 562 L 53.5 562 L 56 563.5 L 53 569.5 L 54 570.5 L 54 583 Q 47.6 584.3 46 579.5 L 41.5 570 L 41 583 L 37.5 584 L 36.5 582 Q 39.9 582.9 38 577.5 L 37 573.5 L 37 571.5 Q 36.4 566.1 38 564 L 35 563.5 L 39.5 562 Z "></path><path d="M 62.5 562 L 65 563.5 L 64 564.5 L 64 580.5 L 65 583 L 60.5 584 L 58 583 L 60 574.5 L 58 563.5 L 62.5 562 Z "></path><path d="M 83 562 L 91 562 L 91 564.5 L 90 570 L 94.5 571 L 96 565.5 L 95 562 L 100 562 L 100 563.5 L 99 567.5 L 99 569.5 L 100 572.5 L 100 574.5 L 99 576.5 Q 101.3 577.8 100 582.5 Q 98.7 585.2 97.5 583 Q 94.9 583.8 96 580.5 L 95 575.5 Q 97.3 574.3 94.5 573 L 91.5 572 L 90 573.5 L 90 581.5 L 90.5 583 L 87.5 584 L 85 583 L 86 578.5 L 85 577.5 L 85 564 Q 82 565 83 562 Z "></path><path d="M 103.5 562 L 119.5 562 L 120 565.5 Q 118.8 568.8 115 568 L 113.5 564 L 112 571.5 L 113 572.5 L 113 581 Q 116 580 115 583 L 107.5 583 L 107 581.5 Q 110.3 580.3 109 574.5 L 108 573.5 L 108 565 L 102 567 Q 101 563.2 103.5 562 Z "></path><path d="M 140.5 562 L 141 564 L 137 565.5 Q 136.5 570.5 140.5 571 L 142.5 567 L 145 568.5 L 146 573.5 L 143.5 575 L 142 574.5 L 141 584.5 L 135.5 590 L 135 588.5 L 137 585.5 L 138 578.5 L 134 570.5 L 134 565.5 L 140.5 562 Z "></path><path d="M 72.5 563 L 80 563 L 80 567 L 77.5 568 L 75.5 565 L 72 567.5 L 71 576.5 L 74.5 581 Q 77.1 581.8 76 578.5 L 77 576 Q 71.8 577.7 73 574 L 82 574 L 82 579.5 L 75.5 584 L 72.5 583 Q 67.5 583.5 67 579.5 L 65 573.5 Q 65.9 566.9 70.5 564 L 72.5 563 Z "></path><path d="M 342.5 563 L 341.5 565 L 340 564.5 L 342.5 563 Z "></path><path d="M 130.5 573 L 135 575.5 L 136 582 L 130.5 584 L 127 583 L 126 576.5 L 130.5 573 Z M 131 575 L 129 577 L 130 580 Q 132 583 133 580 L 132 577 Q 133 574 131 575 Z "></path><path d="M 299.5 576 L 302 577 L 299.5 581 Q 293.6 583.1 295 578.5 L 299.5 576 Z "></path><path d="M 340.5 590 L 341 593.5 L 340 593.5 L 340.5 590 Z "></path><path d="M 344.5 590 L 345 594 L 343 593.5 L 344.5 590 Z "></path></svg>