<svg width="350" height="600" version="1.1" xmlns="http://www.w3.org/2000/svg" desc="Created with imagetracer.js version 1.2.5"><path d="M 6.5 4 L 8.5 5 L 10.5 4 L 14.5 5 L 17.5 4 L 18.5 5 L 30.5 5 L 32.5 5 Q 38.8 6.7 40.5 4 L 45.5 5 L 47.5 4 L 48.5 5 L 68.5 5 L 70.5 5 Q 83.8 6.8 92.5 4 L 93.5 5 L 101.5 5 L 103.5 4 L 104.5 5 L 129.5 5 L 131.5 4 L 132.5 5 L 153.5 5 Q 154.8 2.8 159.5 4 Q 161.3 6.7 167.5 5 L 170.5 4 L 171.5 5 L 319.5 5 L 321.5 6 L 323.5 5 L 325.5 6 L 327.5 6 Q 332.8 4.8 334 7.5 L 333 10.5 L 334 11.5 L 334 27.5 L 333 31.5 L 334 34.5 L 333 38.5 L 334 41.5 L 333 44.5 Q 335.5 46 334 51.5 L 333 55.5 L 334 60.5 L 333 63.5 L 334 64.5 L 334 99.5 L 335 103.5 Q 332.8 104.8 334 109.5 L 335 111.5 L 334 112.5 L 334 128.5 L 335 130.5 L 334 132.5 L 335 135.5 Q 332.8 136.8 334 141.5 L 335 142.5 L 335 176.5 L 335 178.5 L 335 186.5 L 334 187.5 L 335 188.5 L 335 238.5 L 335 240.5 L 335 306.5 Q 337.3 307.8 336 312.5 L 335 313.5 L 335 322.5 L 335 324.5 L 336 340.5 L 336 342.5 L 335 344.5 L 336 345.5 L 336 370.5 L 337 373.5 L 336 375.5 L 337 376.5 L 337 393.5 L 337 395.5 L 336 399.5 Q 338.8 401.3 337 407.5 L 336 409.5 L 337 410.5 L 337 436.5 L 336 440.5 L 337 441.5 L 337 460.5 L 336 463.5 L 337 464.5 L 337 534.5 Q 339.2 535.8 338 540.5 L 337 543.5 L 337 545.5 L 337 556.5 L 338 557.5 L 337 560.5 L 338 562.5 L 337 564.5 L 338 565.5 L 338 593.5 Q 337 597 331.5 596 L 330.5 595 L 270.5 595 L 265.5 594 L 261.5 594 L 257.5 595 L 256.5 594 L 214.5 594 Q 213 596.5 207.5 595 L 206.5 594 L 193.5 594 L 191.5 594 L 175.5 594 L 173.5 595 L 169.5 594 L 167.5 594 L 164.5 595 L 163.5 594 L 147.5 594 L 145.5 595 L 143.5 595 L 140.5 594 L 138.5 594 L 129.5 594 L 128.5 595 L 127.5 594 L 38.5 594 L 35.5 593 L 33.5 593 L 25.5 594 L 23.5 594 L 17.5 593 L 15.5 593 L 13.5 594 L 12.5 593 L 4 593 L 4 551.5 L 3 549.5 L 4 547.5 L 4 545.5 L 3 540.5 L 3 522.5 Q 5.3 521.3 4 516.5 L 3 511.5 L 4 510.5 L 4 499.5 L 3 497.5 L 4 496.5 L 4 450.5 L 3 449.5 L 3 436.5 L 4 433.5 L 3 431.5 L 4 429.5 L 3 427.5 Q 5.8 425.7 4 419.5 L 4 417.5 L 3 414.5 L 4 413.5 L 4 336.5 L 4 334.5 L 4 323.5 L 3 322.5 L 4 321.5 L 4 287.5 L 3 286.5 L 3 266.5 L 4 263.5 L 4 261.5 L 4 120.5 L 5 119.5 L 5 54.5 L 6 53.5 L 6 45.5 L 5 44.5 L 5 17.5 L 4 15.5 L 5 14.5 L 5 5.5 L 6.5 4 Z M 8 8 L 8 39 L 9 40 L 9 68 L 8 69 L 9 72 L 9 112 L 8 115 Q 7 119 9 121 L 8 122 L 8 144 Q 5 145 7 152 L 7 154 L 7 166 L 8 168 L 8 170 L 8 204 L 7 205 Q 6 209 8 211 L 7 213 L 7 240 L 8 241 L 7 242 L 7 264 L 6 265 L 7 267 L 6 270 L 7 272 L 7 286 L 7 288 L 6 291 L 8 296 L 8 294 Q 13 286 24 283 L 35 284 L 39 288 L 39 273 L 35 260 L 34 262 L 29 265 L 25 265 L 18 262 L 12 255 L 11 252 L 12 249 L 11 247 L 13 242 Q 12 239 15 240 L 16 237 L 29 230 L 38 228 L 45 228 L 50 226 L 59 226 L 60 225 L 68 227 L 73 233 L 83 199 L 82 196 L 82 181 L 79 174 L 76 171 Q 77 167 73 169 L 72 163 L 71 165 L 70 165 L 71 162 L 74 163 L 77 158 L 78 159 L 76 162 L 83 177 L 87 179 L 89 178 L 89 172 L 84 172 L 84 171 L 87 169 L 90 165 Q 90 159 86 157 L 80 158 L 81 156 Q 87 155 89 158 L 94 155 L 94 157 L 91 159 L 91 162 L 97 168 L 99 167 L 103 168 L 104 171 L 101 172 L 100 176 L 106 178 L 108 177 L 110 174 L 109 169 L 106 168 L 108 165 L 105 159 Q 102 160 103 157 L 100 156 L 98 157 L 95 156 L 102 155 L 104 157 Q 102 152 106 153 L 108 157 L 108 153 Q 112 152 110 157 Q 113 158 112 156 Q 113 152 118 152 L 119 152 L 115 154 L 110 161 L 111 163 L 110 165 L 112 170 L 111 174 Q 113 177 119 176 L 120 173 L 113 168 L 114 165 Q 120 166 123 164 L 126 159 L 126 157 L 125 154 L 123 153 Q 119 154 120 151 L 126 153 Q 128 154 127 152 L 129 151 L 128 160 L 134 165 L 130 167 Q 129 172 133 173 L 134 172 L 134 167 L 138 158 Q 138 152 135 151 L 137 150 L 138 153 L 141 154 L 142 154 L 141 161 L 138 164 Q 139 169 136 170 L 136 178 L 135 179 Q 134 184 136 186 L 135 191 L 137 195 L 138 204 L 134 205 L 133 209 L 134 212 Q 132 213 135 215 L 134 218 L 129 220 L 127 224 L 138 228 L 145 228 L 153 230 L 155 234 L 165 241 Q 171 242 174 239 L 183 241 L 185 243 Q 190 245 192 242 L 198 245 L 198 219 L 199 218 L 199 169 L 200 168 L 199 164 L 199 162 L 200 159 L 199 156 L 200 155 L 200 106 L 201 105 L 200 103 L 201 101 L 200 99 L 201 98 L 201 41 L 205 33 L 209 32 L 215 42 L 215 131 L 214 132 L 215 137 L 215 148 L 214 149 Q 213 153 215 155 L 214 165 L 214 167 Q 212 173 215 175 Q 216 179 214 181 L 214 226 L 215 227 L 214 229 L 215 231 L 214 234 L 216 236 L 221 228 L 227 223 L 231 217 L 232 208 L 239 201 Q 241 202 240 200 L 246 195 L 248 196 L 245 204 L 245 205 L 260 196 L 264 197 L 268 196 Q 272 198 269 200 Q 270 202 267 201 L 266 204 L 267 206 Q 268 209 266 208 Q 262 209 263 215 Q 256 224 243 227 L 240 232 L 240 246 L 236 250 L 237 254 L 236 257 L 240 270 L 243 271 L 243 272 L 240 271 Q 237 270 238 273 L 236 274 Q 233 275 234 273 L 235 271 Q 232 270 233 273 L 232 273 L 232 265 L 233 264 L 232 262 L 233 260 Q 233 255 231 255 L 230 257 L 226 258 L 227 261 L 224 267 L 222 277 L 217 281 Q 220 285 219 292 L 234 292 L 236 295 Q 234 296 235 302 L 233 304 L 217 303 L 218 306 L 215 310 L 216 311 L 218 310 L 220 317 L 221 315 Q 226 308 234 306 L 236 307 L 244 304 L 243 298 Q 246 295 245 289 L 254 281 L 260 280 L 262 280 L 264 279 L 269 280 L 272 276 L 275 277 L 279 266 Q 284 259 294 257 L 300 257 L 308 260 L 317 269 L 322 270 L 324 270 L 326 269 L 329 270 L 331 272 L 331 216 L 330 215 L 331 213 L 330 211 L 330 209 L 330 157 L 331 156 L 330 154 L 331 149 L 331 147 L 331 137 L 330 136 L 331 133 L 330 131 L 330 82 L 329 81 L 330 76 L 329 73 L 329 32 L 329 30 L 328 22 L 329 19 L 328 17 L 329 11 L 327 8 L 324 9 Q 319 10 318 8 L 293 8 L 292 9 L 291 8 L 281 8 L 279 8 L 276 9 L 275 8 L 263 8 L 261 8 L 259 9 L 254 8 L 252 8 L 249 9 L 247 8 L 245 9 L 242 8 L 240 8 L 238 9 L 235 8 L 233 8 Q 231 11 226 9 L 224 9 L 220 8 L 209 9 L 207 9 L 190 9 L 189 8 L 182 9 L 180 9 L 175 8 L 172 9 L 167 8 L 165 8 L 154 8 L 153 9 L 151 8 L 96 8 L 94 8 Q 85 7 81 9 L 78 8 L 67 8 L 66 9 L 64 8 L 62 9 Q 56 11 55 8 L 53 9 L 51 8 L 48 9 L 46 9 L 41 8 Q 36 7 35 9 L 27 8 L 25 8 L 22 9 L 21 8 L 8 8 Z M 207 38 L 204 43 L 205 46 L 204 47 L 203 161 L 202 162 L 203 167 L 202 168 L 202 232 L 201 233 L 202 237 Q 200 240 201 248 L 200 249 L 200 283 L 202 283 L 202 285 L 197 285 L 197 291 L 211 291 L 216 292 Q 218 286 215 284 L 206 285 L 207 283 L 214 283 L 214 281 L 212 280 L 202 280 L 204 278 L 205 222 L 206 221 Q 207 216 205 215 Q 204 210 206 209 L 206 179 L 207 178 L 206 176 L 207 172 L 206 170 L 207 168 Q 209 162 206 161 L 207 160 L 207 67 L 208 63 L 207 60 L 207 49 L 208 48 L 207 47 L 207 38 Z M 211 40 L 210 108 L 209 109 L 209 196 L 208 197 Q 207 201 209 203 L 208 205 L 208 249 L 207 250 L 208 279 L 211 275 L 212 153 L 213 152 L 212 142 L 212 140 L 212 118 L 213 117 L 212 116 L 212 42 L 211 40 Z M 126 163 L 126 166 L 129 165 L 126 163 Z M 92 167 L 90 170 L 92 169 L 92 167 Z M 127 173 L 122 174 L 119 177 L 111 176 L 108 180 L 101 178 L 89 180 L 84 183 L 85 185 L 85 186 L 110 181 L 115 181 L 119 179 L 124 179 L 130 177 Q 136 179 134 174 L 127 173 Z M 133 179 L 132 190 L 130 192 L 133 192 L 134 189 L 133 179 Z M 128 181 L 126 184 L 129 182 L 128 181 Z M 111 186 L 111 187 L 113 187 L 111 186 Z M 115 189 L 115 193 L 116 193 Q 117 188 115 189 Z M 103 190 L 102 192 L 105 191 L 103 190 Z M 128 194 L 127 198 L 129 197 L 128 194 Z M 101 196 L 99 199 L 101 198 L 101 196 Z M 121 197 L 118 201 L 121 201 L 121 197 Z M 135 201 Q 134 204 137 203 Q 138 200 135 201 Z M 262 201 L 260 203 Q 257 202 258 205 L 263 202 L 262 201 Z M 98 202 L 97 205 L 98 205 L 98 202 Z M 241 202 L 235 207 L 236 208 L 242 204 Q 243 201 241 202 Z M 253 203 L 251 206 L 254 204 L 253 203 Z M 256 205 L 256 207 L 258 206 L 256 205 Z M 262 206 L 261 208 L 263 207 L 262 206 Z M 105 207 L 105 208 L 107 208 L 105 207 Z M 110 207 L 111 209 Q 112 206 110 207 Z M 132 209 L 129 210 L 130 212 L 132 211 L 132 209 Z M 234 209 L 232 214 L 233 216 L 230 222 L 232 222 Q 235 221 234 218 L 235 215 L 234 209 Z M 239 209 L 238 213 L 239 213 L 239 209 Z M 251 209 L 251 210 L 253 210 L 251 209 Z M 100 210 L 98 213 L 100 212 L 100 210 Z M 109 210 L 108 212 L 111 213 L 109 210 Z M 254 211 L 254 213 L 256 212 L 254 211 Z M 119 212 L 118 214 L 120 215 L 119 212 Z M 116 213 L 115 216 L 116 216 L 116 213 Z M 132 214 Q 130 217 133 216 L 132 214 Z M 242 214 L 243 216 Q 244 213 242 214 Z M 259 214 L 253 218 L 251 221 L 260 216 Q 261 213 259 214 Z M 108 215 Q 105 219 109 218 L 110 219 Q 111 216 108 217 L 108 215 Z M 237 215 L 236 218 L 237 218 L 237 215 Z M 246 215 L 245 219 L 246 219 L 246 215 Z M 98 217 L 98 220 L 99 220 Q 100 216 98 217 Z M 117 217 L 119 220 L 119 219 L 117 217 Z M 103 218 L 103 224 L 104 224 Q 105 219 103 218 Z M 121 219 L 120 221 L 122 222 L 121 219 Z M 249 221 L 246 222 L 246 223 Q 249 224 250 222 L 249 221 Z M 98 222 Q 97 225 100 224 Q 101 221 98 222 Z M 230 223 L 226 228 L 227 230 L 228 228 L 230 228 L 231 224 L 230 223 Z M 241 223 L 239 225 L 237 224 L 236 226 Q 241 227 244 224 L 241 223 Z M 91 224 L 89 226 Q 88 228 91 227 L 91 224 Z M 124 226 L 122 231 Q 122 235 125 235 Q 128 234 127 237 L 131 237 Q 132 231 128 229 L 126 232 L 123 232 L 124 229 Q 126 227 124 226 Z M 89 227 L 84 233 L 89 229 L 89 227 Z M 57 228 Q 57 232 59 229 L 57 228 Z M 61 228 L 65 235 L 66 235 L 64 231 Q 65 226 61 228 Z M 45 229 L 40 231 L 48 234 Q 55 240 58 250 L 59 259 L 61 264 L 61 275 L 61 277 L 62 280 L 62 298 L 61 299 L 62 307 L 68 295 L 65 286 L 65 280 L 68 276 Q 67 270 69 269 L 67 263 L 68 258 L 67 256 L 67 248 Q 70 249 69 245 L 71 245 L 73 241 L 71 234 L 70 237 L 67 235 L 64 236 L 64 241 L 60 235 L 58 234 L 61 240 L 61 243 L 55 233 L 52 232 L 52 229 L 47 229 Q 46 232 50 231 L 59 243 L 59 245 L 55 239 L 49 232 L 45 232 L 46 230 L 45 229 Z M 97 229 Q 95 232 94 230 L 88 234 Q 87 237 91 235 L 91 238 L 90 237 L 87 239 Q 86 246 90 247 L 93 246 L 95 243 Q 94 240 97 241 Q 98 237 95 238 L 96 236 L 94 235 L 92 232 Q 95 234 103 233 L 102 231 Q 103 228 100 229 L 100 230 Q 102 229 101 232 Q 98 233 99 231 L 98 231 L 97 229 Z M 132 229 L 135 234 L 138 233 L 137 230 L 132 229 Z M 236 229 L 233 236 L 234 238 L 236 232 Q 238 230 236 229 Z M 55 230 L 56 232 Q 57 229 55 230 Z M 68 230 L 67 232 L 69 233 L 68 230 Z M 142 230 Q 139 234 143 233 L 142 230 Z M 60 231 L 61 233 Q 62 230 60 231 Z M 118 231 L 120 233 L 121 233 L 118 231 Z M 225 231 L 224 235 L 225 235 L 225 231 Z M 105 232 L 104 234 L 106 233 L 105 232 Z M 109 232 L 107 235 L 110 234 Q 111 231 109 232 Z M 30 233 L 22 237 Q 23 239 21 238 Q 16 241 15 247 L 16 252 Q 15 256 18 255 L 17 252 L 18 245 L 24 239 L 31 237 L 34 238 Q 36 239 35 235 L 37 235 L 37 239 L 39 239 L 41 238 Q 39 242 43 241 L 45 240 L 44 243 L 48 244 L 47 247 L 49 249 L 51 248 L 49 252 L 53 254 L 52 254 L 50 257 L 53 258 L 52 263 L 55 264 L 52 265 Q 51 269 54 268 Q 55 271 52 270 L 52 273 Q 55 272 54 275 L 53 274 L 52 277 L 54 278 L 52 278 L 51 281 L 54 281 Q 55 284 52 283 L 54 289 L 52 289 Q 51 291 55 290 L 56 293 L 52 293 L 53 295 L 55 294 L 55 297 Q 50 295 51 299 L 55 301 L 55 302 L 51 302 L 51 304 L 55 306 L 55 307 L 51 307 Q 50 310 54 309 L 55 312 L 51 314 Q 52 316 54 314 L 55 317 L 51 319 L 55 320 L 55 323 Q 51 322 52 325 L 56 327 L 52 328 Q 51 331 55 330 L 56 333 L 52 335 L 55 336 Q 56 340 53 339 L 53 343 L 57 343 L 57 345 L 54 346 Q 53 349 57 348 L 57 351 Q 53 349 54 354 Q 56 357 58 353 L 59 355 L 58 357 Q 55 356 56 359 Q 60 358 61 361 L 61 362 L 57 362 Q 56 365 60 364 L 61 367 L 57 368 L 61 370 Q 62 373 58 371 Q 57 375 62 373 Q 63 376 59 375 Q 58 379 63 377 L 63 379 L 60 381 Q 61 383 63 381 L 66 387 Q 67 390 63 388 L 63 390 L 67 389 Q 70 391 67 392 Q 64 391 65 394 L 67 393 Q 70 392 69 395 Q 64 397 68 399 L 71 397 L 74 402 Q 75 404 73 403 L 72 405 L 75 404 L 76 407 L 78 408 L 77 410 Q 79 408 85 409 Q 87 413 89 409 L 73 391 L 69 380 L 66 360 L 64 356 Q 69 354 77 355 L 79 355 Q 83 356 81 351 L 76 351 L 76 353 Q 73 354 74 351 Q 70 349 71 353 Q 70 355 69 353 L 67 354 L 62 345 L 60 326 L 59 325 L 59 271 L 57 264 L 57 259 L 50 240 Q 45 231 30 233 Z M 83 233 L 82 236 L 79 235 L 77 239 L 75 242 L 80 240 L 80 239 Q 77 240 78 237 L 82 239 L 82 242 L 74 248 L 79 248 L 82 251 L 83 250 Q 89 249 90 253 L 90 257 L 88 259 L 87 264 L 88 267 Q 91 265 90 260 L 96 255 L 94 252 Q 97 247 104 246 L 107 247 L 108 245 L 107 245 L 99 243 Q 96 244 98 246 L 93 249 L 87 248 L 84 245 Q 86 238 83 237 L 86 235 L 83 233 Z M 111 233 Q 110 237 113 236 Q 114 232 111 233 Z M 149 233 L 147 236 L 151 235 L 155 242 L 159 240 Q 154 239 152 235 Q 153 231 149 233 Z M 116 235 L 114 237 Q 113 239 116 238 L 117 236 L 116 235 Z M 137 235 L 135 237 Q 134 239 137 238 Q 140 237 137 235 Z M 102 236 L 103 241 Q 102 244 107 242 L 108 239 L 102 236 Z M 144 236 Q 141 237 142 241 L 145 242 L 147 241 Q 150 242 149 239 L 144 238 L 144 236 Z M 227 236 L 226 238 L 229 239 L 227 236 Z M 219 237 L 216 238 Q 218 245 214 247 L 216 250 L 214 254 L 214 279 L 217 279 L 221 273 L 221 267 L 218 262 L 221 261 Q 225 262 223 258 Q 219 259 218 256 L 220 253 L 225 256 L 227 256 L 223 253 L 225 250 Q 227 249 226 252 L 228 252 L 224 247 L 225 243 L 223 244 L 221 243 L 222 240 Q 219 239 220 243 L 218 243 L 217 241 Q 216 238 219 239 L 219 237 Z M 124 238 L 123 240 L 122 239 L 119 241 L 124 241 L 124 238 Z M 128 239 L 126 242 Q 127 244 129 242 Q 131 243 130 241 L 128 239 Z M 237 239 L 236 242 L 237 242 L 237 239 Z M 28 240 L 24 242 L 20 247 L 21 256 Q 22 259 29 258 L 31 255 L 31 253 L 27 254 L 24 247 L 31 244 L 36 245 L 39 250 Q 40 256 37 259 L 39 262 Q 38 268 41 271 L 41 279 L 42 280 L 41 285 L 42 287 L 41 327 L 41 329 L 42 330 L 42 341 L 43 342 L 42 344 L 44 360 L 49 378 L 52 395 L 59 411 Q 68 419 73 432 L 76 444 L 83 435 L 77 436 L 78 432 Q 83 433 85 430 L 87 431 L 89 427 Q 91 417 86 414 L 82 411 L 78 412 L 74 417 Q 73 423 78 424 L 83 423 L 84 418 L 80 421 Q 74 418 81 415 Q 86 414 87 418 L 86 424 L 86 425 Q 88 424 87 427 L 83 430 L 79 431 Q 75 432 74 429 Q 73 426 76 427 L 71 422 L 72 414 L 75 412 L 73 408 Q 70 409 71 406 L 69 406 L 64 399 L 55 368 L 54 357 L 52 353 L 51 337 L 50 336 L 50 313 L 50 311 L 49 309 L 49 290 L 50 289 L 49 288 L 49 262 Q 47 260 48 255 L 43 245 Q 39 239 28 240 Z M 112 240 L 110 242 Q 109 244 113 243 L 112 240 Z M 136 241 L 131 243 L 132 245 L 134 244 L 135 249 L 137 248 L 136 246 L 137 243 Q 138 240 136 241 Z M 74 242 L 72 245 L 74 244 L 74 242 Z M 115 242 L 119 248 L 121 248 L 121 246 Q 124 247 123 245 L 124 243 L 122 244 Q 120 241 115 242 Z M 138 242 L 138 244 L 142 245 L 141 244 Q 142 240 138 242 Z M 162 242 L 160 245 L 162 244 L 162 242 Z M 172 242 L 171 243 Q 164 241 166 247 L 169 248 L 178 247 L 180 246 L 176 243 L 174 243 L 172 242 Z M 152 244 L 152 246 L 156 247 Q 158 248 157 245 L 152 244 Z M 110 246 L 109 250 L 105 249 L 98 250 L 99 254 L 98 259 L 96 258 L 93 260 L 94 263 L 91 264 L 90 271 L 91 279 L 94 280 L 98 278 L 102 279 Q 101 283 104 284 L 106 283 Q 107 275 111 270 L 111 267 L 119 252 Q 118 249 117 251 L 114 248 L 114 246 L 110 246 Z M 146 246 L 146 248 L 148 247 L 146 246 Z M 31 247 L 28 251 L 32 249 Q 35 250 34 256 L 31 260 L 34 259 L 36 256 L 36 251 L 34 250 L 34 249 L 31 247 Z M 127 247 L 125 250 L 127 249 L 127 247 Z M 131 247 L 128 251 L 130 253 L 131 251 L 131 247 Z M 150 247 L 148 249 L 150 249 L 150 247 Z M 198 247 L 196 249 L 197 252 L 195 252 L 186 259 L 183 258 Q 184 255 186 257 L 188 256 L 193 250 L 189 251 Q 181 259 171 263 L 161 263 L 162 269 L 163 269 Q 162 265 165 266 L 166 269 L 172 272 L 175 272 L 176 275 L 172 275 L 166 272 L 164 272 Q 163 275 166 274 Q 167 280 173 283 Q 175 284 174 282 L 177 279 L 181 278 L 184 280 L 189 279 Q 194 277 193 281 L 196 280 L 197 280 L 197 264 L 197 262 L 198 260 L 198 247 Z M 139 248 L 138 250 L 142 256 L 146 258 L 147 258 L 145 253 L 139 248 Z M 153 248 L 151 250 Q 150 252 153 251 L 153 248 Z M 179 248 L 178 251 L 180 251 L 181 249 L 179 248 Z M 157 249 L 155 251 Q 154 253 157 252 L 157 249 Z M 177 249 L 175 251 Q 174 253 177 252 L 177 249 Z M 124 250 L 122 252 Q 121 255 125 254 L 126 256 L 123 259 L 121 258 L 119 258 Q 118 260 121 259 L 122 261 L 118 260 L 117 262 L 120 264 L 119 264 L 119 266 L 118 269 Q 119 271 116 270 L 113 269 L 115 271 Q 118 270 117 273 Q 114 274 113 271 L 112 274 L 115 275 Q 117 274 116 277 Q 113 278 112 275 Q 109 274 110 277 L 116 279 L 115 282 L 111 279 Q 108 278 109 281 L 113 282 L 114 285 L 109 282 L 108 284 L 114 288 L 114 290 L 109 286 Q 106 285 107 288 L 112 290 L 113 293 L 107 289 L 106 292 L 111 295 Q 114 294 113 297 L 109 296 L 105 294 L 105 297 Q 109 296 108 299 L 112 300 L 112 301 L 109 301 L 105 297 L 104 299 L 110 303 Q 112 302 111 305 L 107 304 L 105 302 L 103 303 L 109 307 L 111 307 L 112 309 L 114 294 L 118 282 L 118 277 L 126 258 L 129 255 Q 130 251 126 253 L 124 250 Z M 159 250 L 158 253 L 161 253 Q 162 249 159 250 Z M 166 250 L 165 253 L 166 255 L 168 251 L 166 250 Z M 170 250 L 169 253 L 170 253 L 170 250 Z M 172 250 L 171 253 Q 170 255 173 254 L 174 251 L 172 250 Z M 74 251 L 71 254 L 70 265 L 73 266 L 72 269 L 74 269 L 76 265 Q 78 262 79 265 L 78 268 L 83 268 L 85 265 L 84 260 Q 83 257 86 258 L 87 256 L 86 252 L 81 254 Q 78 255 79 253 Q 78 250 74 251 Z M 150 254 L 149 256 L 152 257 L 150 254 Z M 178 254 L 178 256 L 180 255 L 178 254 Z M 176 255 L 174 258 L 177 256 L 176 255 Z M 18 256 L 18 259 L 24 262 Q 31 264 30 260 L 23 260 L 20 258 Q 21 255 18 256 Z M 157 256 L 157 258 L 159 259 Q 160 255 157 256 Z M 161 257 L 161 259 L 160 261 L 162 260 Q 163 256 161 257 Z M 164 257 L 164 261 L 166 260 Q 167 256 164 257 Z M 172 257 L 170 259 L 173 259 Q 174 256 172 257 Z M 130 258 L 125 265 L 121 275 L 129 285 L 130 289 Q 133 293 140 295 L 145 302 L 144 305 L 154 306 L 161 309 L 169 309 L 170 308 L 172 309 L 174 308 L 172 303 L 171 303 L 172 306 Q 173 308 171 307 L 166 301 L 164 290 L 162 291 L 160 290 L 156 276 Q 154 270 158 271 L 159 273 L 162 288 L 163 288 L 160 269 L 157 263 L 155 262 L 156 270 L 151 272 Q 149 275 148 271 Q 145 272 146 269 Q 141 268 139 264 Q 136 265 137 262 L 135 262 L 137 267 Q 138 271 135 270 L 133 262 L 135 262 L 130 258 Z M 167 258 L 167 260 L 169 259 L 167 258 Z M 295 259 L 285 263 Q 279 267 278 275 L 279 280 L 276 279 L 269 282 L 267 282 L 257 282 L 249 287 L 246 297 Q 245 300 248 301 L 251 300 Q 263 298 270 302 L 285 312 L 287 317 L 294 314 L 301 313 L 303 313 Q 312 313 317 318 Q 319 317 318 320 L 322 322 L 323 326 L 329 323 L 332 323 L 332 317 L 331 316 L 331 306 L 332 305 L 331 303 L 331 291 L 332 290 Q 334 283 331 282 L 332 280 L 327 272 L 316 274 L 312 267 Q 307 259 295 259 Z M 87 267 Q 82 269 86 272 L 81 278 Q 82 280 79 279 L 76 286 L 79 287 L 81 290 L 81 287 Q 83 281 92 283 L 97 292 L 97 291 L 100 289 Q 101 285 103 288 Q 105 289 104 286 L 102 285 Q 98 286 99 283 Q 98 280 97 282 L 92 282 L 88 280 L 87 275 L 87 273 L 87 267 Z M 77 270 L 72 276 L 76 278 Q 75 280 78 279 L 82 272 L 77 270 Z M 72 278 L 68 283 L 70 291 L 74 284 L 73 282 Q 74 277 72 278 Z M 120 278 L 119 288 L 117 292 L 117 299 L 114 308 L 114 312 L 112 315 L 112 322 L 110 330 L 112 333 L 115 335 L 119 336 L 127 336 L 118 332 L 120 328 L 123 331 L 127 332 Q 130 333 131 331 Q 130 328 125 329 L 118 318 Q 117 315 120 316 L 127 327 L 128 327 L 128 319 L 127 319 L 122 313 L 123 308 L 122 303 Q 121 300 125 301 L 126 304 L 125 308 Q 124 315 127 314 L 130 310 L 131 311 L 129 315 L 131 315 L 130 320 L 132 324 L 133 317 Q 132 314 135 315 L 136 319 L 136 318 L 138 319 L 137 322 Q 136 326 139 327 L 139 320 L 141 321 L 141 328 L 143 328 L 143 322 L 145 322 L 147 328 L 147 322 L 149 322 L 149 328 L 151 328 L 151 323 L 153 323 L 153 328 L 155 328 L 155 323 Q 159 322 157 327 Q 161 328 159 323 Q 163 322 161 327 L 163 327 L 163 322 L 166 322 L 168 319 L 168 321 L 172 322 Q 173 319 170 320 L 170 317 L 177 311 L 178 309 L 175 309 L 171 312 Q 169 308 168 311 L 160 310 L 158 310 L 140 306 Q 139 303 142 304 L 143 302 L 142 300 L 133 294 Q 127 291 127 283 L 122 280 Q 123 277 120 278 Z M 189 281 L 184 282 L 182 285 Q 184 288 191 286 L 193 283 Q 194 279 189 281 Z M 196 282 L 195 285 L 196 285 L 196 282 Z M 89 284 L 86 285 Q 83 286 85 288 Q 87 292 83 291 L 80 298 L 81 304 L 86 305 Q 88 309 84 308 L 81 313 Q 80 318 84 319 L 90 318 L 91 322 L 95 323 L 98 320 L 99 309 L 101 304 L 101 300 Q 98 301 99 298 L 93 298 L 94 292 L 90 291 L 91 289 L 89 284 Z M 22 285 L 13 292 Q 14 294 11 293 Q 9 295 10 301 L 8 303 Q 9 309 6 312 L 8 318 L 13 322 L 15 322 L 17 328 L 20 329 Q 22 328 21 331 L 24 331 L 27 337 Q 28 339 25 338 L 25 340 Q 21 339 20 342 L 16 339 L 11 340 L 7 344 L 7 352 L 6 353 L 7 359 L 10 360 L 27 352 L 34 353 L 37 355 L 41 359 L 40 341 L 39 340 L 40 337 L 39 336 L 39 326 L 38 325 L 39 323 L 38 320 Q 37 314 39 313 L 39 294 L 37 290 Q 34 283 22 285 Z M 170 286 L 170 289 Q 173 288 170 286 Z M 76 288 L 74 290 Q 73 294 76 293 L 76 288 Z M 191 288 L 190 291 L 191 291 L 191 288 Z M 170 290 Q 169 293 172 292 Q 173 289 170 290 Z M 176 290 Q 174 293 177 292 L 176 290 Z M 180 290 Q 179 293 182 292 Q 183 289 180 290 Z M 195 290 L 194 293 L 188 294 L 186 293 L 178 294 L 178 301 L 180 301 L 182 301 L 192 301 L 193 302 L 201 298 L 211 299 L 213 301 L 222 301 L 224 301 L 232 301 L 232 294 L 218 294 L 217 293 L 207 293 L 206 294 L 205 293 L 195 293 L 195 290 Z M 98 292 L 98 296 L 102 297 L 102 296 L 98 292 Z M 72 294 L 69 298 Q 68 301 71 300 L 72 303 L 71 305 Q 70 307 73 306 L 77 296 L 72 294 Z M 173 296 L 173 298 L 175 297 L 173 296 Z M 170 297 L 169 300 L 170 300 L 170 297 Z M 202 301 L 200 304 L 202 303 L 202 301 Z M 76 302 L 76 306 L 73 311 L 70 321 Q 75 320 77 323 L 82 322 L 84 322 L 86 323 L 90 330 L 89 336 L 86 337 L 85 344 L 94 344 L 93 343 L 90 340 L 93 335 L 92 330 L 95 329 L 95 333 L 97 332 L 98 332 L 98 325 L 97 325 L 90 324 L 87 321 L 83 321 L 77 317 L 78 310 Q 84 307 78 304 Q 79 301 76 302 Z M 254 302 L 248 304 L 244 309 L 241 308 L 240 311 L 235 309 L 229 311 L 223 319 L 221 327 L 227 335 L 236 352 L 248 361 Q 247 355 250 352 Q 253 346 261 344 L 268 345 L 271 348 L 270 344 L 272 337 Q 274 332 279 332 Q 278 322 286 319 L 284 316 L 277 308 L 269 304 L 264 302 L 254 302 Z M 66 303 L 64 308 L 64 311 L 68 317 L 71 312 L 70 309 L 67 307 L 68 305 Q 69 302 66 303 Z M 177 303 L 178 306 L 180 306 L 177 303 Z M 183 304 Q 182 307 185 306 Q 186 303 183 304 Z M 104 305 L 101 311 L 102 313 L 107 316 Q 109 317 108 315 L 103 311 L 104 308 L 110 312 L 111 309 L 106 308 L 104 305 Z M 208 306 L 209 308 L 210 308 L 208 306 Z M 200 308 L 200 310 L 202 309 L 200 308 Z M 182 310 L 180 312 L 182 312 L 182 310 Z M 62 312 L 62 314 L 63 337 L 66 347 Q 65 350 69 349 L 73 349 L 75 348 L 80 349 L 82 349 L 93 349 L 94 348 L 128 348 L 130 348 L 131 347 L 165 347 L 167 347 L 171 346 L 173 347 L 175 347 L 178 346 L 180 348 L 179 350 Q 180 352 178 351 L 176 348 L 170 348 L 169 350 Q 166 351 165 348 L 163 351 Q 160 352 161 350 L 158 348 L 157 351 Q 154 352 155 349 Q 152 348 153 351 Q 150 352 149 349 Q 146 348 147 351 L 145 352 L 143 349 L 141 352 L 139 349 L 137 352 Q 133 354 134 349 Q 130 348 129 351 Q 126 352 127 349 L 125 350 L 122 349 Q 118 348 119 351 Q 117 354 116 350 Q 111 349 110 351 L 108 350 L 105 352 L 103 351 L 101 352 L 98 350 L 92 353 L 91 351 L 88 353 Q 85 354 86 351 L 82 353 L 82 355 L 85 354 L 86 355 L 94 355 L 96 355 L 98 354 L 139 354 L 140 353 L 142 354 L 143 353 L 200 353 L 207 351 L 210 353 L 215 352 L 216 348 L 211 347 L 210 351 L 208 348 L 203 348 L 203 350 Q 199 351 200 349 Q 199 346 198 348 Q 195 347 196 350 Q 193 351 192 348 L 190 351 Q 186 350 187 346 Q 189 348 196 347 L 198 347 L 197 342 L 196 343 L 183 343 L 182 344 L 166 344 L 165 345 L 143 345 L 142 344 L 141 345 L 129 345 L 128 346 L 120 346 L 119 345 L 118 346 L 103 346 L 100 347 L 84 347 L 83 346 L 80 347 L 73 346 L 65 334 Q 64 326 67 323 Q 68 319 66 320 L 63 315 Q 64 311 62 312 Z M 177 313 Q 177 317 179 314 L 177 313 Z M 102 314 L 101 317 L 107 321 L 108 321 L 107 318 L 102 314 Z M 296 315 L 290 318 L 288 321 L 286 322 Q 281 323 282 329 Q 285 330 281 332 L 282 334 Q 281 336 280 334 L 277 335 L 273 340 L 273 347 L 276 351 L 273 349 L 272 351 L 267 347 L 263 346 L 257 347 L 250 356 Q 249 360 251 362 L 250 364 Q 252 373 257 380 L 259 392 L 262 388 L 262 385 L 265 382 L 267 376 L 271 372 L 280 369 L 288 370 L 294 377 L 293 379 L 291 377 Q 288 372 282 371 L 280 371 L 272 374 L 268 379 L 268 384 L 265 385 L 266 389 L 263 390 L 261 394 L 258 395 L 261 403 L 262 400 L 267 398 Q 269 399 268 397 L 273 392 L 276 392 L 281 385 Q 282 382 284 384 L 287 383 L 290 382 Q 295 381 297 384 L 306 379 L 308 380 L 310 379 L 318 381 L 323 384 L 326 388 Q 325 393 328 395 L 328 403 L 333 404 L 333 375 L 332 371 L 333 369 L 331 370 L 329 368 L 322 362 L 312 362 Q 306 365 306 371 L 301 370 Q 296 371 297 376 L 294 375 L 295 372 L 302 367 Q 305 368 304 366 L 311 360 L 323 360 L 330 364 L 332 367 L 332 326 L 329 324 L 326 328 L 324 329 L 322 326 L 312 316 Q 306 313 296 315 Z M 181 316 L 180 320 L 181 320 L 181 316 Z M 207 316 L 206 318 L 213 318 L 212 316 L 210 317 L 207 316 Z M 198 318 L 198 320 L 192 320 L 192 322 L 201 321 L 203 319 L 198 318 Z M 102 319 L 101 322 L 102 322 L 102 319 Z M 135 319 L 134 325 L 135 325 L 135 319 Z M 8 320 L 7 336 L 11 338 Q 17 336 19 339 L 21 338 L 24 338 L 24 333 L 22 333 L 18 330 L 15 327 L 8 320 Z M 186 320 Q 185 323 188 322 Q 189 319 186 320 Z M 189 320 Q 188 323 191 322 Q 192 319 189 320 Z M 202 321 L 202 324 L 200 325 L 203 326 L 201 327 L 200 329 L 203 328 L 200 332 L 202 337 L 199 339 L 200 345 Q 201 347 207 346 Q 210 345 209 339 L 207 337 L 205 334 L 209 332 L 209 321 L 202 321 Z M 170 322 L 169 324 L 165 326 Q 166 328 170 327 L 170 322 Z M 72 323 L 67 329 L 68 335 L 72 343 L 75 344 L 74 342 L 76 335 L 79 334 L 84 336 L 86 333 L 86 329 L 84 325 L 77 325 L 75 327 L 73 327 L 74 325 L 72 323 Z M 102 323 L 101 325 L 104 326 L 106 329 L 102 327 L 101 330 L 107 333 L 107 326 L 102 323 Z M 216 326 Q 215 329 218 328 Q 219 325 216 326 Z M 181 328 L 179 330 L 179 332 Q 176 331 177 334 L 174 336 L 172 336 L 173 341 L 189 341 L 189 340 L 187 338 L 181 332 L 182 329 L 181 328 Z M 195 328 L 196 330 Q 197 327 195 328 Z M 165 329 L 154 331 L 146 330 Q 145 335 150 336 Q 152 335 151 339 L 145 335 L 144 337 Q 147 341 153 342 Q 155 343 154 340 L 152 340 L 155 334 L 160 333 Q 162 332 161 336 L 165 333 L 169 334 L 170 331 Q 171 328 165 329 Z M 218 329 L 218 331 L 220 330 L 218 329 Z M 142 330 L 142 334 L 144 335 L 142 330 Z M 221 331 L 219 333 L 221 333 L 221 331 Z M 103 333 L 102 335 L 106 336 Q 107 339 104 338 L 101 337 L 104 340 Q 106 339 105 342 L 103 341 L 102 343 L 107 344 L 110 344 L 107 335 L 103 333 Z M 133 333 L 130 336 L 131 338 L 137 343 L 140 343 L 133 333 Z M 137 333 L 137 335 L 144 340 L 139 335 Q 140 332 137 333 Z M 222 333 L 221 337 L 223 336 L 222 333 Z M 96 335 L 94 337 L 95 342 L 98 343 L 98 337 L 96 335 Z M 198 335 L 196 338 L 198 337 L 198 335 Z M 79 336 L 77 338 L 78 344 L 82 341 L 81 337 L 79 336 Z M 224 336 L 222 338 Q 220 343 226 341 Q 227 337 224 336 Z M 118 339 L 118 341 L 117 343 L 124 343 L 123 341 Q 122 338 118 339 Z M 196 339 L 194 341 L 196 341 L 196 339 Z M 214 339 Q 212 342 215 341 L 214 339 Z M 220 343 Q 218 346 213 344 L 212 346 L 221 345 Q 222 342 220 343 Z M 229 345 Q 226 349 230 348 L 229 345 Z M 231 351 L 231 353 L 233 354 Q 234 350 231 351 Z M 24 355 L 20 360 L 18 361 L 16 360 L 11 363 Q 12 365 8 364 L 8 362 L 7 381 L 7 382 L 14 379 L 20 379 L 26 381 L 29 385 L 31 384 L 38 384 L 48 388 L 46 376 L 44 373 L 44 369 L 41 364 L 31 355 L 24 355 Z M 153 355 L 155 358 L 157 357 L 153 355 Z M 173 355 L 171 359 Q 172 366 169 369 L 163 374 L 161 374 Q 157 376 162 378 L 168 374 L 172 369 L 173 362 L 175 358 L 179 358 Q 178 354 173 355 Z M 203 355 L 200 362 L 197 365 L 192 386 Q 187 399 176 408 L 176 410 L 169 415 L 166 419 L 164 421 L 158 423 L 153 423 L 149 420 L 139 422 L 137 421 Q 135 424 129 422 L 127 422 L 123 421 L 119 421 L 113 424 L 108 423 L 106 420 L 101 419 L 97 414 L 92 410 L 90 411 Q 95 413 96 420 L 100 421 L 103 429 L 105 428 Q 112 427 115 431 L 117 430 L 118 433 L 118 430 Q 122 428 121 432 L 121 433 Q 123 434 122 432 L 127 428 L 133 429 L 135 432 L 135 431 L 139 428 Q 146 428 149 433 L 154 433 L 159 429 Q 166 428 169 432 L 168 431 L 169 425 L 177 414 L 180 411 L 179 410 L 181 407 L 183 408 L 184 408 Q 181 406 182 403 L 186 404 L 188 403 L 186 402 L 188 398 L 191 400 L 192 398 L 190 395 Q 193 393 191 392 Q 190 389 193 390 Q 194 388 196 391 L 197 390 L 194 387 L 195 385 Q 199 386 198 383 L 195 382 L 200 380 L 198 378 Q 195 377 198 375 L 201 376 Q 202 372 199 371 Q 198 368 201 369 Q 202 371 203 369 Q 204 366 202 367 L 201 365 L 204 366 L 204 365 L 201 362 L 203 360 L 206 362 L 207 360 L 205 356 L 209 358 L 212 356 L 203 355 Z M 229 355 Q 227 358 230 357 L 229 355 Z M 101 356 L 96 357 L 98 361 L 98 364 L 93 367 L 91 370 L 97 368 L 96 374 L 92 375 Q 88 377 88 382 L 96 380 L 96 378 L 101 373 L 98 368 Q 97 364 100 365 L 108 376 L 107 381 Q 102 382 99 387 L 101 390 L 104 389 L 112 378 Q 114 372 111 373 L 104 366 L 103 362 Q 104 357 101 358 L 101 356 Z M 129 356 L 130 360 Q 128 363 127 359 L 121 361 L 120 358 L 117 360 L 120 365 Q 115 366 114 363 L 111 365 L 113 371 Q 118 370 121 366 Q 123 367 122 365 L 126 363 L 128 363 L 132 361 L 134 358 Q 135 355 129 356 Z M 145 356 L 144 360 L 147 358 Q 148 355 145 356 Z M 161 356 L 164 360 Q 163 363 166 362 L 165 359 Q 165 356 161 356 Z M 181 357 L 180 360 Q 181 362 185 361 Q 187 362 185 364 L 186 367 L 190 369 Q 194 371 191 373 L 187 370 L 186 372 L 189 373 L 190 377 L 184 375 L 189 385 L 193 373 L 193 370 L 189 365 Q 186 366 187 363 Q 191 362 193 366 L 195 365 L 184 359 L 181 357 Z M 188 357 Q 188 360 192 360 L 193 360 L 188 357 Z M 216 357 L 213 358 Q 212 361 217 360 L 219 364 Q 218 366 217 364 Q 213 363 214 366 Q 215 369 220 368 Q 222 366 221 361 L 216 357 Z M 237 357 L 238 359 Q 239 356 237 357 Z M 76 358 L 76 359 L 79 360 L 83 359 L 76 358 Z M 71 359 L 71 360 L 73 360 L 71 359 Z M 106 359 L 106 361 Q 109 366 111 361 L 111 359 L 106 359 Z M 113 359 L 114 361 Q 115 358 113 359 Z M 136 359 L 136 362 L 142 362 L 142 361 Q 141 358 136 359 Z M 149 359 L 147 363 L 153 366 Q 157 365 155 371 L 157 370 L 160 372 L 162 372 L 165 370 L 168 365 L 166 366 Q 162 367 161 365 L 162 363 L 161 361 L 161 359 L 156 359 L 157 364 Q 158 366 154 365 L 153 363 Q 155 357 149 359 Z M 224 359 L 224 368 L 215 371 L 213 382 L 211 385 L 220 391 L 224 396 L 229 412 L 232 436 L 232 438 L 233 441 L 232 446 L 232 463 L 230 468 L 231 473 L 230 477 L 231 502 L 234 509 L 242 520 L 253 525 L 259 525 L 256 523 L 252 518 Q 256 517 258 521 L 263 522 L 274 522 L 274 519 L 276 519 L 277 516 Q 279 512 286 513 Q 289 512 288 508 L 288 506 Q 286 501 290 502 L 292 506 L 291 508 L 292 511 L 295 510 L 294 503 L 282 490 L 268 452 L 263 435 L 262 424 L 258 411 L 257 401 L 255 400 L 256 402 L 255 404 L 256 408 L 255 411 L 256 413 L 256 431 L 258 438 L 258 454 L 259 455 L 260 467 L 266 482 L 271 488 Q 272 490 270 489 L 261 476 L 258 466 L 257 453 L 256 452 L 256 443 L 255 442 L 255 433 L 254 432 L 253 399 L 252 398 L 251 387 L 254 386 L 254 380 L 251 374 Q 241 362 224 359 Z M 241 359 L 239 361 Q 238 363 241 362 L 241 359 Z M 85 360 L 83 363 L 86 361 L 85 360 Z M 195 360 L 196 362 Q 197 359 195 360 Z M 91 361 L 87 363 L 84 367 L 87 366 L 89 367 L 93 364 Q 96 365 95 363 Q 94 360 93 362 L 91 361 Z M 75 362 L 71 365 L 72 367 L 77 363 L 75 362 Z M 177 362 Q 175 365 178 364 L 178 367 Q 179 371 184 370 L 183 368 L 184 366 L 182 363 L 177 362 Z M 243 362 L 244 364 Q 245 361 243 362 Z M 82 363 L 78 368 L 82 365 L 82 363 Z M 137 364 L 135 367 L 130 369 L 128 372 L 130 371 Q 133 370 134 373 L 133 378 L 131 379 Q 124 380 124 376 Q 120 375 119 378 L 120 380 L 122 377 L 124 383 L 127 382 L 132 385 Q 133 389 131 390 Q 125 391 123 389 L 129 386 L 128 385 L 126 385 Q 123 386 124 384 L 122 385 L 119 384 L 120 390 Q 118 391 121 393 Q 122 397 120 399 L 121 401 L 126 405 Q 133 406 137 410 L 140 410 Q 142 405 150 405 L 152 402 L 151 397 L 153 391 L 156 389 L 158 391 L 157 386 L 153 388 Q 149 387 150 383 Q 152 379 154 383 L 154 382 Q 153 379 148 380 L 146 378 L 144 379 L 138 377 L 135 374 Q 133 369 137 370 L 139 370 Q 143 369 141 375 Q 143 378 144 375 L 142 374 L 143 372 L 142 368 L 139 369 L 135 369 L 136 366 L 139 367 L 139 366 L 137 364 Z M 145 367 L 145 369 Q 143 375 150 373 L 151 377 L 154 376 L 156 377 L 157 375 L 156 372 L 152 373 L 149 370 L 145 367 Z M 206 367 L 199 390 L 188 406 L 187 408 L 193 405 L 199 398 L 202 392 L 206 377 L 206 367 Z M 74 368 Q 73 371 76 370 Q 77 367 74 368 Z M 123 368 L 122 370 L 116 373 L 117 377 L 122 373 L 125 374 Q 127 373 125 372 L 126 370 L 123 368 Z M 81 369 L 76 373 L 77 375 L 82 371 Q 83 368 81 369 Z M 87 371 Q 80 375 78 384 L 79 388 L 83 377 L 87 374 L 87 371 Z M 174 371 L 170 376 L 172 379 L 169 380 L 173 382 Q 178 384 177 381 L 174 378 L 172 376 L 176 373 Q 177 370 174 371 Z M 130 374 L 128 376 L 131 376 Q 132 373 130 374 Z M 103 375 L 100 378 L 105 379 L 103 375 Z M 179 375 L 182 382 L 183 382 L 182 378 L 179 375 Z M 77 377 L 74 380 L 76 385 L 78 379 Q 79 376 77 377 Z M 86 377 L 82 385 Q 83 389 81 391 L 82 395 L 85 385 L 85 383 L 86 380 L 86 377 Z M 162 378 L 162 382 L 165 380 L 162 378 Z M 15 381 L 9 384 L 7 386 Q 8 390 6 392 L 6 400 L 7 401 Q 5 407 10 405 L 13 400 L 14 394 Q 18 387 26 387 L 25 383 Q 22 380 15 381 Z M 98 381 Q 97 384 100 383 Q 101 380 98 381 Z M 305 381 L 303 382 L 299 387 L 295 384 Q 287 383 283 386 Q 278 388 279 395 L 276 394 Q 271 394 271 397 L 277 397 L 278 400 L 275 399 L 264 401 L 263 404 Q 264 406 261 405 L 263 414 L 263 420 L 266 428 L 266 434 L 276 464 L 278 460 L 286 455 Q 296 454 300 460 L 305 459 L 308 463 L 312 456 L 318 454 L 324 454 L 326 452 L 330 452 L 333 448 L 333 409 L 331 407 Q 332 403 327 405 Q 324 404 326 403 Q 327 393 324 389 Q 319 380 305 381 Z M 184 382 L 184 387 L 185 387 Q 186 383 184 382 Z M 98 383 L 96 386 L 98 385 L 98 383 Z M 117 383 L 114 387 L 117 386 L 117 383 Z M 164 383 Q 162 390 167 392 Q 172 394 170 388 L 164 383 Z M 179 383 L 177 385 Q 182 387 182 395 L 184 394 L 180 385 Q 181 382 179 383 Z M 63 384 Q 61 387 64 386 L 63 384 Z M 93 384 L 90 385 L 87 391 Q 85 395 90 394 L 93 386 L 93 384 Z M 32 386 L 30 387 L 27 390 L 26 389 L 23 389 L 19 392 Q 14 395 15 403 L 10 407 L 7 407 L 7 427 L 6 430 L 11 430 Q 12 433 15 432 L 20 441 L 23 439 L 26 439 L 26 434 L 37 432 L 34 426 Q 30 427 31 425 L 37 421 L 45 420 L 47 420 L 49 419 L 59 420 L 60 422 L 60 425 L 53 425 L 53 426 Q 58 424 57 428 L 51 429 L 51 430 L 56 430 L 56 432 L 60 432 L 60 434 L 59 435 L 49 435 L 43 438 L 52 438 L 50 442 L 58 440 L 60 441 L 63 440 L 67 441 L 68 444 Q 69 446 66 445 L 64 445 L 65 447 L 58 448 Q 52 450 51 447 L 46 448 L 46 449 Q 51 448 50 451 L 58 451 L 58 453 L 49 454 L 47 454 L 44 455 Q 41 454 42 457 L 45 456 L 47 457 L 53 455 L 63 455 L 64 457 L 63 460 L 58 459 L 54 461 L 53 463 Q 59 461 58 465 L 55 467 L 53 466 L 51 467 L 46 466 L 42 467 L 43 473 L 41 482 L 42 488 L 45 490 Q 47 495 42 493 L 46 499 L 47 503 L 42 507 L 43 513 L 51 513 L 52 512 L 51 495 L 47 497 Q 46 493 49 492 L 49 487 L 47 488 L 45 488 L 45 484 L 48 483 L 50 484 L 62 479 L 66 483 L 65 483 L 65 484 Q 68 483 67 486 L 61 487 L 56 490 Q 57 493 53 491 L 53 494 L 59 492 L 63 493 L 71 492 L 70 495 L 71 497 Q 63 496 58 499 Q 56 503 61 502 L 58 506 L 59 512 L 78 504 L 80 498 Q 81 493 78 493 L 80 490 Q 73 485 70 478 Q 68 473 69 465 L 68 464 Q 71 462 69 456 L 72 451 L 72 440 L 70 432 L 57 413 L 52 400 L 50 398 L 50 395 Q 46 385 32 386 Z M 96 386 L 94 393 L 97 392 L 96 386 Z M 174 386 L 174 390 L 177 391 L 176 388 L 174 386 Z M 255 386 L 254 390 L 255 390 L 255 386 Z M 186 387 L 186 391 L 186 390 Q 188 388 186 387 Z M 210 388 L 213 392 L 213 389 L 210 388 Z M 107 389 L 105 394 L 110 395 L 112 392 L 107 389 Z M 79 390 L 77 392 L 79 392 L 79 390 Z M 115 391 L 115 393 L 119 392 L 115 391 Z M 215 391 L 213 393 L 214 396 Q 213 398 216 397 L 217 395 L 217 393 L 215 394 L 215 393 L 215 391 Z M 163 392 L 161 394 L 163 398 L 164 398 L 163 392 Z M 176 392 L 175 395 L 176 398 L 173 397 L 172 400 L 168 402 L 169 395 Q 165 394 167 400 Q 166 402 163 401 L 161 398 L 159 399 Q 156 398 157 401 L 162 403 Q 164 402 163 405 Q 166 406 168 403 L 169 403 L 169 407 L 163 408 L 163 410 Q 164 413 162 414 L 159 409 L 156 410 L 153 409 L 150 413 L 152 419 L 156 420 L 163 418 Q 165 417 164 412 L 170 411 Q 172 412 171 409 L 173 409 L 173 407 L 170 407 L 173 405 Q 176 403 172 402 L 174 400 L 176 401 L 179 400 L 178 395 Q 179 391 176 392 Z M 208 392 L 205 396 L 206 397 L 209 396 L 208 392 Z M 99 393 L 97 396 Q 95 399 94 395 Q 90 395 89 398 L 91 401 L 94 400 L 95 400 L 93 405 L 97 406 L 103 397 L 99 393 Z M 115 394 L 114 396 L 117 396 L 115 394 Z M 155 395 L 156 397 L 158 396 L 155 395 Z M 218 395 L 217 398 L 218 400 L 218 399 L 220 398 L 218 401 Q 216 406 220 405 L 219 403 Q 222 401 221 397 L 218 395 Z M 85 396 L 86 398 Q 87 395 85 396 Z M 107 397 L 104 398 L 103 401 L 106 404 Q 108 400 114 399 L 107 397 Z M 118 397 L 115 398 Q 114 401 118 400 L 118 397 Z M 205 397 L 203 399 L 205 399 L 205 397 Z M 211 398 Q 210 401 206 400 L 204 402 Q 205 406 203 408 L 204 411 L 209 414 L 216 412 Q 217 404 214 400 L 211 398 Z M 111 401 L 108 404 L 108 407 Q 111 406 110 410 L 107 411 Q 108 415 104 413 Q 103 409 106 408 L 105 405 L 104 405 L 101 404 L 99 409 L 100 415 L 103 416 Q 104 418 106 415 Q 110 414 108 419 Q 109 422 115 421 L 117 418 L 120 416 L 119 411 L 119 409 L 119 406 L 117 402 L 111 401 Z M 222 401 L 220 403 L 222 403 L 222 401 Z M 159 404 L 158 406 L 161 407 L 159 404 Z M 199 404 L 197 407 Q 196 410 199 409 L 199 404 Z M 129 408 Q 127 411 130 410 L 129 408 Z M 148 408 L 141 412 L 147 412 L 149 409 L 148 408 Z M 222 408 L 220 411 L 223 409 L 222 408 Z M 194 409 L 194 412 Q 193 414 196 413 L 194 409 Z M 225 409 L 223 416 L 225 417 L 224 419 L 226 418 Q 227 412 225 409 Z M 122 410 L 125 415 L 122 417 L 126 418 L 125 413 Q 126 408 122 410 Z M 185 411 L 180 413 L 179 420 L 177 419 L 175 419 L 175 424 L 173 424 L 170 430 L 181 449 L 182 454 Q 182 464 178 471 L 173 476 L 165 478 L 162 478 Q 165 474 171 474 L 178 465 Q 177 459 179 458 L 178 450 L 176 449 L 177 451 Q 177 461 173 467 Q 169 473 160 475 L 158 479 L 158 481 Q 159 485 157 484 L 155 483 L 155 474 L 148 472 Q 143 469 144 461 L 151 455 Q 154 456 153 453 Q 144 452 139 456 Q 136 455 137 458 Q 135 461 131 461 L 128 457 L 122 453 Q 113 452 109 455 L 108 457 L 112 456 Q 118 457 121 462 Q 122 469 120 472 Q 117 476 108 474 L 107 479 L 108 482 Q 109 484 106 483 Q 103 482 104 478 L 99 477 Q 93 473 91 466 L 91 457 L 94 451 L 94 446 L 97 443 Q 96 436 100 435 L 100 432 L 98 435 Q 99 437 96 436 L 96 433 L 95 435 Q 93 439 91 436 L 93 432 L 93 424 L 90 432 L 75 449 Q 76 453 73 452 L 71 459 Q 69 474 75 482 L 80 485 L 84 490 Q 80 492 84 494 L 80 509 L 71 524 L 67 526 L 52 527 L 49 531 L 50 533 L 51 529 L 55 528 L 56 531 L 58 530 L 59 530 L 59 534 L 61 534 L 60 531 L 63 532 L 67 531 L 72 533 L 75 532 Q 81 530 83 533 L 83 529 Q 82 526 79 527 Q 76 526 79 524 L 82 525 L 86 518 L 89 516 L 92 512 L 91 509 L 92 505 Q 96 499 103 497 L 105 493 L 107 494 L 110 492 Q 111 488 106 490 L 106 488 Q 109 486 117 487 L 118 485 Q 119 480 117 479 Q 114 480 115 477 L 120 476 L 122 476 L 125 475 Q 128 472 129 467 L 132 465 Q 135 466 134 472 L 141 476 L 147 477 L 144 482 L 145 486 L 151 488 L 154 486 Q 157 485 158 488 L 157 490 L 155 489 L 153 492 L 168 503 L 167 505 L 168 508 L 178 514 L 182 521 Q 183 523 185 521 L 188 522 L 187 524 L 183 527 L 185 529 Q 187 528 186 532 L 174 530 L 173 532 Q 166 533 164 529 Q 156 528 155 532 Q 151 531 152 534 L 155 533 L 200 533 L 194 531 Q 187 533 188 529 L 191 528 L 201 530 L 204 529 L 207 530 L 208 530 L 207 528 L 199 528 L 198 527 L 196 528 L 194 525 L 208 525 L 211 527 L 211 524 Q 207 522 199 523 L 195 520 L 183 508 L 177 499 Q 178 494 175 493 L 177 490 L 179 487 L 182 485 L 193 470 L 196 455 L 194 449 L 194 444 L 191 436 L 185 427 L 185 425 L 182 419 L 183 415 L 187 412 L 190 414 Q 191 417 189 418 L 187 415 L 185 419 Q 186 422 191 421 L 193 417 L 191 413 Q 190 410 185 411 Z M 138 412 L 138 414 L 141 413 L 138 412 Z M 131 413 L 130 419 L 134 420 Q 136 419 135 415 L 134 415 L 131 413 Z M 203 413 L 202 426 Q 208 425 210 431 Q 211 434 209 433 L 206 437 Q 209 440 208 446 L 203 448 L 204 453 L 204 455 L 209 455 L 210 456 L 209 438 Q 210 435 212 437 L 212 436 L 215 434 L 217 434 L 218 434 L 218 429 Q 211 430 209 426 L 210 420 Q 211 416 216 417 Q 218 422 213 420 L 214 427 L 218 426 L 217 414 L 214 416 Q 205 417 203 413 Z M 198 414 L 194 422 L 190 424 Q 187 423 188 426 L 194 424 L 197 425 Q 199 424 198 427 L 200 428 L 200 419 L 199 418 Q 200 413 198 414 Z M 222 414 L 222 419 L 223 417 L 222 414 Z M 142 415 L 142 418 Q 144 421 145 418 Q 146 413 142 415 Z M 221 423 L 222 428 L 223 424 L 221 423 Z M 226 423 L 224 426 L 226 425 L 226 423 Z M 47 424 L 47 426 L 49 425 L 47 424 Z M 84 425 L 80 427 L 80 428 L 85 426 L 84 425 Z M 194 426 L 190 429 L 194 435 L 197 431 L 194 426 Z M 226 427 L 226 432 L 227 432 Q 228 428 226 427 Z M 204 428 L 202 430 L 204 437 L 206 434 L 204 428 Z M 108 430 L 103 433 L 108 433 L 109 436 L 106 435 L 102 436 L 103 441 L 107 443 Q 113 443 115 440 L 115 438 L 110 432 L 108 430 Z M 129 430 L 122 435 L 119 436 L 121 441 Q 122 447 120 450 Q 123 451 122 449 Q 124 446 125 449 L 122 451 L 126 452 L 127 450 L 126 446 L 122 444 L 124 442 L 131 442 L 132 440 L 131 432 L 129 430 Z M 139 430 L 137 432 L 138 433 L 142 432 Q 147 435 142 437 L 139 436 L 137 436 L 138 440 L 143 442 L 148 440 L 149 437 Q 147 430 139 430 Z M 159 431 L 151 437 L 153 437 Q 154 440 150 439 L 150 441 L 153 440 Q 155 439 154 442 L 161 442 L 164 440 Q 166 438 165 433 L 163 432 L 164 434 Q 165 436 162 435 L 160 435 Q 161 438 159 437 L 157 435 L 162 432 L 159 431 Z M 199 431 L 199 434 L 201 433 Q 202 430 199 431 Z M 221 431 L 221 433 L 223 432 L 221 431 Z M 8 432 Q 5 433 6 439 L 7 442 Q 8 446 6 448 L 9 453 L 20 448 L 17 446 L 18 441 L 17 438 L 11 432 L 8 432 Z M 221 434 L 222 437 L 223 435 L 221 434 Z M 227 434 L 227 436 L 225 439 L 227 438 L 227 441 L 225 442 L 227 442 L 225 445 L 226 449 L 225 451 L 228 450 L 227 452 Q 228 454 225 453 L 225 455 L 227 456 L 222 458 L 222 456 L 219 457 L 219 455 L 218 460 L 225 461 L 228 465 L 229 462 Q 231 455 228 454 Q 230 452 229 448 L 229 446 L 228 442 L 228 435 L 227 434 Z M 196 435 L 194 437 L 196 446 L 201 448 L 201 437 L 196 435 Z M 215 437 L 215 439 L 215 441 Q 214 443 217 442 L 218 439 Q 219 435 215 437 Z M 169 438 L 170 441 L 169 443 L 165 441 L 162 442 L 163 444 L 172 444 L 172 447 L 165 447 L 164 449 L 173 448 Q 174 443 171 441 Q 172 437 169 438 Z M 204 441 L 203 446 L 204 446 L 204 441 Z M 139 442 L 132 444 L 135 445 Q 138 446 139 444 L 139 442 Z M 146 442 L 142 445 Q 141 447 145 446 L 145 448 L 142 449 L 144 449 L 146 449 L 150 450 L 148 448 L 148 442 L 146 442 Z M 114 443 L 109 446 Q 106 445 107 448 L 110 447 L 110 449 L 108 450 L 109 452 L 117 450 L 115 446 Q 116 442 114 443 Z M 211 443 L 212 446 L 215 468 L 215 467 L 219 464 L 217 462 L 214 459 L 216 454 L 215 449 L 216 444 L 211 443 Z M 221 443 L 221 446 L 223 445 Q 224 442 221 443 Z M 154 444 L 152 451 L 156 452 Q 161 453 161 449 L 160 446 L 160 444 L 154 444 Z M 25 446 L 25 448 L 27 447 L 25 446 Z M 98 446 Q 97 449 101 448 Q 102 451 104 447 L 98 446 Z M 131 447 L 131 448 L 138 448 L 131 447 Z M 139 448 Q 139 452 134 450 L 134 451 Q 137 450 136 453 L 128 454 Q 129 456 131 454 L 134 455 L 141 452 L 139 448 Z M 221 448 L 221 451 Q 224 450 221 448 Z M 198 449 L 198 451 L 201 452 L 201 451 L 198 449 Z M 96 450 L 96 452 L 103 452 Q 101 449 96 450 Z M 162 450 L 160 452 L 161 453 L 172 453 Q 173 455 174 453 L 173 450 L 166 452 L 162 450 Z M 333 451 L 327 455 L 331 459 L 331 461 L 333 462 L 333 451 Z M 104 452 L 103 454 Q 97 452 95 456 L 104 457 L 105 455 L 104 452 Z M 222 452 L 220 454 L 221 455 L 223 454 Q 224 451 222 452 Z M 7 454 L 7 459 Q 10 457 17 458 L 20 454 L 17 455 L 7 454 Z M 160 455 L 161 458 L 171 458 L 173 458 L 173 456 L 160 455 Z M 198 455 L 197 460 L 198 462 L 194 474 L 195 476 L 199 477 L 201 474 Q 203 475 203 480 L 207 477 L 205 475 L 200 469 L 201 466 Q 199 464 200 459 L 204 456 L 198 455 Z M 131 456 L 133 459 L 134 457 L 131 456 Z M 318 456 L 314 459 L 310 464 L 310 467 L 307 466 L 302 472 Q 301 477 304 479 Q 303 481 306 480 L 305 483 L 300 478 Q 298 467 304 465 L 303 461 L 298 463 L 296 461 L 291 457 L 283 459 L 279 463 L 278 468 L 281 480 L 284 484 L 285 481 L 290 477 L 293 477 L 295 477 L 299 475 L 298 478 L 299 483 L 294 479 L 290 480 L 286 485 L 286 491 L 288 494 L 294 496 L 306 497 Q 309 500 316 500 L 328 506 Q 331 505 330 508 L 333 507 L 332 505 L 333 503 L 332 499 Q 331 493 333 492 L 333 466 L 332 464 L 329 465 L 328 459 L 327 457 L 318 456 Z M 207 457 L 204 458 L 202 464 L 203 468 L 207 467 L 206 473 L 209 474 L 212 473 L 212 462 L 211 460 L 207 457 Z M 95 458 L 95 460 L 97 461 L 108 461 L 108 460 Q 102 461 103 458 L 95 458 Z M 35 460 L 33 461 L 34 463 L 36 462 Q 37 459 35 460 Z M 111 460 L 111 461 L 113 461 L 111 460 Z M 156 460 L 155 461 Q 147 459 148 463 L 160 463 L 161 464 L 165 463 L 167 463 L 171 464 L 172 462 L 172 460 L 156 460 Z M 40 461 L 41 463 Q 42 460 40 461 Z M 16 462 L 12 464 Q 7 463 7 465 L 7 495 L 10 496 L 18 495 L 20 492 Q 22 491 21 495 L 25 496 L 26 493 L 26 488 L 20 488 L 20 486 L 24 486 L 23 484 L 27 482 Q 23 478 23 471 Q 22 467 15 468 L 13 466 Q 14 463 18 464 Q 19 461 16 462 Z M 44 462 L 44 463 L 47 463 L 44 462 Z M 96 463 L 96 465 L 112 465 L 113 464 L 117 465 L 117 463 L 96 463 Z M 223 464 L 224 469 L 226 470 L 224 466 Q 225 463 223 464 Z M 111 466 L 110 467 L 98 468 L 100 469 L 113 469 L 112 471 L 115 471 L 117 468 Q 116 465 113 466 L 111 466 Z M 149 466 L 151 469 L 154 468 L 156 469 L 168 469 L 170 467 L 149 466 Z M 220 466 L 217 469 L 218 471 Q 215 472 216 477 Q 217 479 221 478 L 224 473 L 222 472 L 220 466 Z M 36 469 L 36 474 L 37 472 L 36 469 Z M 106 470 L 104 471 L 105 473 L 109 471 L 106 470 Z M 158 471 L 158 473 L 163 472 L 158 471 Z M 99 472 L 101 475 L 102 475 L 99 472 Z M 35 474 Q 33 478 36 480 L 34 480 L 33 484 L 34 485 L 34 494 L 36 495 L 37 492 L 37 478 L 35 474 Z M 226 474 Q 227 477 224 476 L 223 480 L 224 481 L 225 478 L 227 478 L 228 476 Q 229 473 226 474 Z M 129 475 L 128 476 Q 125 475 126 478 L 128 477 L 130 478 L 137 478 L 134 475 L 132 476 L 129 475 Z M 212 476 L 210 478 L 214 481 L 213 479 Q 214 475 212 476 Z M 191 478 L 187 483 L 188 486 L 191 481 L 191 478 Z M 194 478 L 192 492 L 195 493 L 198 492 L 199 481 L 194 478 Z M 139 479 Q 137 482 136 480 L 128 481 L 132 483 L 140 482 Q 141 478 139 479 Z M 207 479 L 203 482 L 201 482 Q 200 484 203 483 Q 205 484 204 488 Q 206 490 212 489 L 213 486 L 214 484 Q 210 485 211 483 L 207 479 Z M 227 479 L 225 484 L 227 484 L 227 479 Z M 217 480 Q 215 486 218 489 L 219 481 L 217 480 Z M 122 483 L 122 485 L 128 485 L 128 487 L 123 488 L 121 488 Q 118 487 119 490 L 121 489 L 123 490 L 123 492 L 118 492 L 117 494 Q 116 496 115 494 L 114 495 L 106 495 L 107 498 L 110 496 Q 114 495 116 497 Q 118 494 123 495 L 123 497 L 117 497 L 117 500 Q 114 501 113 498 L 107 500 Q 102 503 101 510 L 102 513 L 111 520 L 108 526 L 109 528 L 116 531 L 124 530 L 128 528 L 130 524 L 127 514 L 128 512 L 125 506 L 127 503 L 124 498 L 125 493 L 130 494 L 127 495 L 130 499 L 133 492 L 139 495 L 150 494 Q 151 491 149 492 L 146 493 L 144 492 L 139 493 L 136 493 Q 137 490 134 491 Q 133 488 136 489 L 136 488 L 132 488 Q 133 484 131 485 Q 129 481 128 484 L 122 483 Z M 227 485 L 224 487 L 221 491 Q 224 492 223 489 L 228 486 L 227 485 Z M 29 486 L 29 490 L 30 490 L 29 486 Z M 138 488 L 138 489 L 142 489 L 138 488 Z M 215 488 L 214 490 L 211 492 L 204 491 L 202 489 L 201 493 L 201 495 L 202 501 L 206 496 L 213 497 L 216 503 Q 215 507 217 509 L 216 512 L 218 511 Q 224 511 227 515 L 228 513 L 225 506 L 220 505 L 215 499 L 216 495 Q 215 492 218 493 L 218 491 L 217 491 L 215 488 Z M 227 489 L 226 491 L 228 490 L 227 489 Z M 179 491 L 180 498 L 186 502 L 187 499 L 184 497 Q 181 496 182 493 L 179 491 Z M 184 491 L 184 495 L 187 494 Q 188 489 184 491 Z M 224 492 L 222 494 L 226 505 Q 228 508 229 505 L 228 499 L 227 501 L 226 501 Q 227 496 225 497 L 225 496 L 224 495 L 224 494 L 224 492 Z M 190 494 L 190 496 L 193 498 Q 191 503 195 502 L 196 505 L 197 503 L 201 505 L 202 505 L 198 502 L 199 494 L 197 495 L 190 494 Z M 154 495 L 152 498 L 150 497 L 144 498 L 138 503 Q 132 504 130 502 L 129 505 L 131 509 L 131 505 L 134 504 L 134 510 L 130 512 L 134 513 L 134 516 Q 130 515 131 518 L 135 519 L 133 520 L 133 521 Q 137 520 135 525 L 138 525 L 144 529 L 143 532 L 140 530 L 136 532 L 133 531 L 129 532 L 124 531 L 118 533 L 112 532 L 113 534 L 146 534 L 145 532 L 147 529 Q 148 532 154 530 L 156 525 L 148 520 Q 141 522 140 519 Q 137 520 138 517 L 145 518 L 152 517 Q 153 514 156 515 L 159 509 Q 160 503 157 502 L 158 499 L 154 495 Z M 19 496 L 14 498 Q 4 495 7 505 L 13 508 L 14 504 L 21 500 Q 22 497 19 498 L 19 496 Z M 218 496 L 219 501 L 222 503 L 220 498 Q 221 495 218 496 Z M 36 497 Q 33 499 36 500 L 37 498 L 36 497 Z M 55 497 L 53 505 L 54 511 L 56 512 L 55 497 Z M 134 497 L 136 500 Q 138 501 137 499 L 134 497 Z M 26 498 L 24 500 L 26 500 L 26 498 Z M 208 498 L 204 503 L 207 505 L 205 508 L 210 505 L 213 505 L 212 501 L 208 498 Z M 297 498 L 298 505 Q 300 510 297 512 L 306 520 L 303 524 L 301 523 Q 295 522 294 524 L 289 523 L 288 524 L 276 524 L 278 530 L 277 532 L 273 535 L 279 544 L 275 547 L 280 547 L 282 547 L 284 546 L 286 547 L 289 546 L 306 546 L 308 546 L 333 547 L 333 530 L 329 532 L 318 531 L 316 533 L 316 543 L 315 544 Q 312 543 313 538 L 313 536 L 313 531 L 304 531 L 305 535 Q 306 538 302 536 L 301 530 Q 304 528 312 529 L 308 528 L 306 528 L 304 525 Q 305 522 310 523 L 312 523 Q 314 524 313 521 Q 307 522 306 518 L 310 515 L 313 515 L 313 510 L 315 509 L 316 506 L 312 504 Q 309 505 310 502 L 315 503 L 322 508 L 324 508 L 313 501 L 298 501 L 297 498 Z M 30 500 L 30 502 L 32 501 L 30 500 Z M 189 501 L 186 505 L 190 510 L 195 508 L 199 509 L 200 509 Q 198 505 193 506 L 189 501 Z M 19 502 Q 15 504 16 509 L 12 510 L 11 511 L 8 508 L 7 523 L 10 522 Q 12 523 11 521 Q 12 518 14 520 L 14 519 L 23 515 L 25 516 L 28 515 Q 26 512 27 505 Q 26 501 19 502 Z M 162 502 L 163 505 L 164 503 L 162 502 Z M 35 503 L 35 513 L 38 513 L 37 509 L 37 507 L 38 505 Q 39 502 35 503 Z M 230 505 Q 228 508 231 509 L 232 509 L 230 505 Z M 327 507 L 326 509 L 329 510 L 332 516 L 333 513 L 327 507 Z M 72 508 L 72 510 L 74 509 L 72 508 Z M 94 508 Q 92 513 98 511 L 99 509 L 94 508 Z M 163 508 Q 162 510 166 510 Q 167 507 163 508 Z M 212 508 L 210 510 L 203 511 L 207 512 L 215 512 L 214 510 L 212 508 Z M 318 510 L 319 511 L 320 512 Q 321 509 318 510 Z M 324 510 L 324 513 Q 322 515 317 515 L 324 515 Q 325 513 326 516 L 325 518 L 331 518 L 330 521 L 318 521 L 317 523 L 320 523 L 329 522 Q 331 523 329 525 L 331 525 L 333 527 L 332 522 L 332 520 Q 333 516 330 517 L 326 512 Q 327 509 324 510 Z M 195 511 L 193 515 L 196 516 Q 198 517 197 521 L 201 520 Q 205 521 203 517 L 195 511 Z M 317 511 L 316 514 L 317 514 L 317 511 Z M 70 512 L 68 517 L 70 516 L 70 512 Z M 160 512 L 160 514 L 166 513 L 169 514 L 172 514 L 171 512 L 160 512 Z M 233 512 Q 233 516 230 515 L 231 519 Q 232 523 238 522 L 234 516 L 233 512 Z M 73 513 L 72 516 L 73 516 L 73 513 Z M 94 513 L 93 516 L 96 515 L 100 517 L 101 517 L 100 514 L 94 513 Z M 55 514 L 50 516 L 55 516 L 55 514 Z M 216 514 L 218 520 L 217 522 L 219 527 L 220 527 Q 218 521 225 523 L 224 521 Q 219 522 220 519 L 227 520 L 233 528 Q 234 530 231 529 L 229 526 L 226 531 L 230 536 L 232 535 L 231 533 Q 230 528 234 530 L 237 534 L 248 530 Q 254 529 256 532 L 258 531 Q 261 530 258 528 L 256 529 L 251 527 L 246 530 L 241 529 L 239 529 L 239 525 L 237 526 L 234 525 L 228 518 L 216 514 Z M 46 515 L 45 516 L 35 516 L 33 516 Q 27 515 26 519 L 23 518 Q 17 517 15 520 L 7 530 L 8 533 L 9 530 L 13 529 Q 14 525 16 528 L 17 525 L 19 529 L 19 531 Q 20 535 17 534 L 16 539 Q 14 542 8 542 L 8 544 L 14 544 Q 16 537 22 533 L 20 528 L 24 522 Q 29 523 31 519 L 39 518 L 41 518 Q 42 516 47 517 L 48 516 L 46 515 Z M 72 516 L 71 517 Q 68 516 69 520 L 72 518 L 72 516 Z M 159 516 L 158 518 L 161 518 L 159 516 Z M 163 516 Q 162 519 166 518 L 164 523 L 166 529 L 173 530 L 173 529 Q 170 530 171 528 Q 172 525 174 527 L 174 526 L 168 521 L 167 519 Q 168 514 163 516 Z M 170 516 L 170 518 L 172 517 L 176 518 L 176 516 L 170 516 Z M 211 516 L 209 517 L 207 520 L 214 523 L 214 518 L 211 516 Z M 61 517 L 60 522 Q 57 523 58 519 L 57 519 Q 55 527 62 524 L 61 517 Z M 67 517 L 66 521 L 65 520 L 63 519 L 64 522 L 64 523 Q 67 524 68 522 L 67 517 Z M 318 517 L 317 519 L 321 519 L 318 517 Z M 88 518 Q 87 521 90 520 Q 91 518 93 521 L 94 519 L 88 518 Z M 55 519 L 53 523 Q 52 525 55 524 L 55 519 Z M 98 519 L 96 521 L 98 521 L 98 519 Z M 280 519 L 279 521 L 282 521 L 280 519 Z M 289 519 L 284 521 L 289 521 L 289 519 Z M 157 520 L 157 522 Q 158 524 162 523 L 162 522 Q 159 523 160 520 L 157 520 Z M 174 520 Q 173 522 178 521 L 179 522 Q 180 519 174 520 Z M 52 522 L 50 524 L 52 524 L 52 522 Z M 87 522 L 87 523 L 89 523 L 87 522 Z M 100 522 L 98 525 L 100 524 L 100 522 Z M 49 523 L 47 527 L 49 526 L 49 523 Z M 93 523 L 87 532 L 91 532 Q 93 527 95 531 Q 94 533 97 532 Q 99 531 98 526 L 97 526 L 93 523 Z M 104 523 L 105 526 L 101 527 L 101 529 L 106 529 L 106 523 L 104 523 Z M 32 524 L 30 527 Q 29 529 32 528 L 32 524 Z M 178 524 L 179 526 L 180 526 L 178 524 Z M 215 524 L 214 526 L 216 527 L 215 524 Z M 244 524 L 242 527 Q 243 529 245 527 Q 247 528 246 526 L 244 524 Z M 43 525 L 42 532 L 40 529 L 39 529 L 40 538 L 40 535 L 44 532 Q 47 533 46 530 Q 48 528 46 527 L 45 529 L 43 525 Z M 224 525 L 222 528 L 225 530 Q 226 526 224 525 Z M 33 526 L 33 528 L 35 527 L 33 526 Z M 36 526 L 36 529 L 38 528 Q 39 525 36 526 Z M 160 526 L 160 527 L 162 527 L 160 526 Z M 212 527 L 211 529 L 213 530 L 212 527 Z M 219 527 L 217 530 Q 215 533 209 533 L 220 533 L 222 533 L 219 527 Z M 272 527 L 270 529 L 273 532 L 274 529 L 272 527 Z M 327 527 L 323 528 L 323 529 L 330 529 L 327 527 Z M 107 529 L 105 532 L 109 532 L 107 529 Z M 16 530 L 15 533 L 16 533 L 16 530 Z M 30 530 L 30 533 L 32 532 Q 33 529 30 530 Z M 27 531 L 27 533 L 29 532 L 27 531 Z M 34 531 L 33 534 L 34 534 L 34 531 Z M 54 531 L 54 533 L 56 532 L 54 531 Z M 259 531 L 258 534 L 260 538 L 255 537 L 256 541 L 264 542 L 266 542 L 273 541 L 272 536 L 268 533 L 266 534 Q 263 535 264 533 Q 263 530 259 531 Z M 13 532 L 13 535 L 11 538 Q 8 539 9 537 L 7 538 L 8 542 L 13 539 L 14 537 Q 15 533 13 532 Z M 100 532 L 95 534 L 93 534 L 90 533 L 87 534 L 87 535 L 108 535 L 100 532 Z M 249 532 L 248 533 L 245 533 L 245 537 L 244 537 Q 242 533 241 536 Q 237 535 238 539 L 237 540 L 234 537 L 231 539 Q 234 542 241 542 L 242 539 L 245 538 L 252 539 L 253 536 L 256 535 Q 254 531 249 532 Z M 37 533 L 36 541 L 37 541 L 37 533 Z M 84 533 L 82 535 L 84 535 L 85 536 Q 86 532 84 533 Z M 54 535 Q 51 540 43 538 L 43 540 L 42 547 L 46 548 L 48 548 L 51 547 L 54 548 Q 58 549 60 547 L 61 548 L 219 548 L 221 548 L 227 547 L 224 545 L 225 536 L 200 536 L 199 535 L 198 536 L 173 536 L 172 537 L 169 536 L 167 536 L 163 537 Q 157 539 156 536 L 153 537 L 131 537 L 129 537 L 125 538 L 101 538 L 100 539 L 79 539 L 77 540 L 75 540 L 71 538 Q 65 537 64 539 L 62 538 Q 56 537 54 539 L 54 535 Z M 66 535 L 66 536 L 69 536 L 66 535 Z M 78 535 L 78 536 L 80 536 L 78 535 Z M 31 536 L 30 542 L 31 542 L 31 536 Z M 27 539 L 27 542 L 29 541 Q 30 538 27 539 Z M 39 540 L 38 543 L 39 543 L 39 540 Z M 36 541 L 35 545 L 36 545 L 36 541 Z M 230 541 Q 228 546 231 547 L 262 547 L 261 545 L 250 545 L 247 544 L 252 543 L 250 541 Q 244 539 245 543 L 240 545 L 235 544 L 230 541 Z M 272 543 L 273 545 L 275 544 L 272 543 Z M 29 544 L 27 546 Q 26 549 29 548 L 29 544 Z M 34 544 L 33 548 L 36 548 L 34 544 Z M 39 544 L 38 548 L 39 548 L 39 544 Z M 17 545 L 17 548 L 26 547 Q 25 544 24 546 L 22 545 L 20 546 L 17 545 Z M 7 550 L 7 587 L 7 589 Q 6 592 10 591 L 12 591 L 15 592 L 17 592 L 20 591 L 28 592 L 30 592 L 50 592 L 51 591 L 53 592 Q 57 593 59 591 L 60 592 L 156 592 L 155 591 L 158 587 L 157 580 L 151 575 L 153 579 L 152 583 L 147 585 L 144 584 L 140 577 Q 142 572 150 573 L 151 574 L 149 567 L 151 565 L 157 564 L 158 567 L 155 568 L 153 568 L 154 572 Q 156 575 158 571 L 163 575 Q 164 579 160 577 L 162 584 Q 162 590 158 592 L 251 592 L 252 593 L 254 592 L 256 593 L 332 593 L 333 592 Q 335 585 332 584 Q 330 577 333 576 L 333 552 L 332 550 L 238 550 L 237 551 Q 232 552 231 550 L 215 550 L 214 551 L 209 550 L 208 551 L 177 551 L 175 551 L 166 551 L 165 552 L 160 551 L 156 552 L 155 551 L 56 551 L 54 551 Q 48 553 47 550 L 36 550 L 35 551 L 33 550 L 12 550 L 11 551 L 7 550 Z M 146 576 L 144 578 L 148 582 Q 150 581 149 578 L 146 576 Z "></path><path d="M 120.5 95 L 127 96.5 Q 126 99 121.5 98 L 119.5 97 L 117 98 L 117 102 L 115.5 102 L 113 103 L 112.5 101 L 110 102 Q 110.8 105.8 107.5 107 Q 105.3 107.8 106 105.5 L 106 103.5 L 109.5 100 L 120.5 95 Z "></path><path d="M 204.5 116 L 205 118.5 L 204 118.5 L 204.5 116 Z "></path><path d="M 204.5 121 L 205 123.5 L 204 123.5 L 204.5 121 Z "></path><path d="M 131.5 148 L 134 149.5 L 130.5 150 L 131.5 148 Z "></path><path d="M 132.5 152 L 135 153.5 L 135 155 L 131 155 L 132.5 152 Z "></path><path d="M 119 155 Q 122.8 154 124 156.5 L 122.5 159 L 122 157 L 119.5 158 L 119 155 Z "></path><path d="M 95.5 158 Q 99.7 156.7 98 161.5 L 97 161.5 L 96.5 160 L 94 161 L 95.5 158 Z "></path><path d="M 83.5 159 L 87 160.5 Q 85.8 163.3 84.5 161 L 82.5 162 L 82 160.5 L 83.5 159 Z "></path><path d="M 202.5 244 L 203 247.5 L 202 247.5 L 202.5 244 Z "></path><path d="M 174 264 L 179.5 265 L 182 264 L 180.5 267 L 176 267.5 L 179 269.5 Q 180.1 272.8 177.5 272 L 170 267.5 L 170 266 L 174 266 L 174 264 Z "></path><path d="M 191 264 Q 195.1 262.3 194 266.5 Q 192.3 271.8 183.5 270 L 182 267.5 L 186 266 Q 184.7 269.3 189.5 268 L 191 264 Z "></path><path d="M 139 271 Q 142.3 269.7 141 274.5 L 144 284.5 L 142 283.5 L 139 275.5 L 139 271 Z "></path><path d="M 135.5 272 L 138 276.5 L 139 286.5 L 141 292.5 L 139 293 L 137 280.5 L 135 276.5 L 135.5 272 Z "></path><path d="M 152.5 273 Q 154.8 272.3 154 274.5 L 155 275.5 L 157 294.5 L 161 307 L 158 305.5 L 155 295.5 L 153 279.5 L 151 274.5 L 152.5 273 Z "></path><path d="M 191 273 Q 197 270.8 195 277.5 L 194 277.5 L 194 275 Q 189.9 276.3 191 273 Z "></path><path d="M 168 275 L 171 276.5 Q 171.8 278.8 169.5 278 L 168 275 Z "></path><path d="M 120 287 Q 123.8 286.3 125 289.5 Q 126.1 292.8 123.5 292 L 120 287 Z "></path><path d="M 126 296 L 130 297.5 L 128.5 300 L 126 299 L 126 296 Z "></path><path d="M 136.5 301 L 139 302.5 L 135 304 L 136.5 301 Z "></path><path d="M 130.5 302 L 131 305 L 135.5 307 L 137.5 306 L 136.5 308 L 129 306 L 130.5 302 Z "></path><path d="M 185.5 346 L 186 347.5 L 185 350 L 181 348.5 Q 180.1 345.5 184.5 347 L 185.5 346 Z "></path><path d="M 238 374 L 241 375.5 Q 246.1 382.4 244 396.5 L 242 397.5 L 242 384.5 L 238 374 Z "></path><path d="M 142.5 382 Q 148.3 380.3 147 384 L 139 386 Q 137.9 383.3 140.5 384 L 142.5 382 Z "></path><path d="M 142.5 386 Q 147.3 385.3 149 387.5 Q 148 391 142.5 390 L 140 389 Q 138.9 386.3 141.5 387 L 142.5 386 Z "></path><path d="M 134.5 394 L 137.5 395 Q 138.8 392.8 140 395.5 Q 140.8 397.8 138.5 397 L 136.5 397 Q 132.1 398.5 133 395.5 L 134.5 394 Z "></path><path d="M 134.5 399 L 137.5 400 L 139.5 399 L 143 400 Q 144.7 404.1 140.5 403 L 138.5 402 L 135.5 403 L 133.5 402 L 132 402.5 L 134.5 399 Z "></path><path d="M 241.5 402 Q 244.9 401.1 243 406.5 L 242 407.5 L 241 426.5 L 240 427.5 L 240 440.5 L 238 448.5 L 238 464.5 L 239 466.5 L 238 467.5 L 238 483.5 L 237 486 Q 234 487.3 235 483.5 L 236 480.5 L 235 478.5 Q 237.2 477.2 236 472.5 L 235 469.5 L 236 468.5 L 237 429.5 L 240 416.5 Q 237.7 415.3 239 410.5 Q 241.5 409 240 403.5 L 241.5 402 Z "></path><path d="M 136 404 L 139 404.5 L 136 406 L 136 404 Z "></path><path d="M 126.5 433 Q 131.3 431.7 130 435 Q 127.3 433.9 128 436.5 L 128.5 438 L 125 436.5 L 126.5 433 Z "></path><path d="M 158.5 446 Q 162 448 157.5 450 L 156 447 L 158.5 446 Z "></path><path d="M 240.5 459 L 243 464.5 L 244 490.5 L 245 493 L 241 490.5 L 241 477.5 L 240 476.5 L 239 460.5 L 240.5 459 Z "></path><path d="M 96 484 L 103 486.5 L 104 490 L 100 492.5 L 100 494.5 L 97.5 498 Q 93.5 497.5 93 500.5 L 91.5 503 L 90 500.5 L 93.5 496 Q 97.3 496.8 98 494.5 L 96.5 492 Q 94.3 492.8 95 490.5 Q 96.3 487.7 97.5 490 Q 100.8 491.1 100 488.5 L 96 487 L 96 484 Z "></path><path d="M 163.5 486 L 166 487.5 L 164 490.5 L 163 493 Q 166.3 491.9 165 496 L 161 493.5 L 159 488 L 163.5 486 Z "></path><path d="M 125 489 L 132 489.5 Q 130.4 492.5 125 491 L 125 489 Z "></path><path d="M 235.5 498 L 242 505.5 Q 240.3 514.3 245.5 516 L 251 518 Q 252.5 521.8 249.5 521 L 240 513.5 L 240 505.5 L 235 500.5 L 235.5 498 Z "></path><path d="M 121.5 499 Q 124.5 498.2 123 502 Q 119.2 503.5 120 500.5 L 121.5 499 Z "></path><path d="M 149.5 500 Q 153.3 499.3 154 501.5 Q 154.8 506.3 151.5 507 Q 150 503.5 148.5 506 Q 145.5 506.9 147 502.5 L 149.5 500 Z "></path><path d="M 109.5 502 Q 114.3 501.3 115 504.5 Q 116.5 508.9 113.5 508 L 110 505.5 Q 111.5 509.9 108.5 509 L 106 505.5 L 109.5 502 Z "></path><path d="M 254 503 L 260 505 L 263 513.5 Q 261.5 516.5 260 513.5 Q 260.1 507.9 256.5 506 L 254 504.5 L 254 503 Z "></path><path d="M 304.5 503 L 310 506.5 L 309.5 509 Q 308.3 505.2 304 506 L 303.5 508 L 303 504.5 L 304.5 503 Z "></path><path d="M 301.5 506 L 302 512.5 L 301 512.5 L 301.5 506 Z "></path><path d="M 303.5 512 L 304 514.5 L 303 514.5 L 303.5 512 Z "></path><path d="M 120.5 517 L 121 518.5 L 117.5 521 L 112 522 L 113.5 519 Q 118.8 519.8 120.5 517 Z "></path><path d="M 114.5 523 L 118 524.5 L 116.5 528 Q 110.7 530.1 112 525.5 L 114.5 523 Z "></path><path d="M 148 523 Q 154 521 152 527 L 149.5 528 Q 147 526.8 148 523 Z "></path><path d="M 320.5 533 L 323 534 L 321.5 537 L 318 536 Q 316.9 533.3 319.5 534 L 320.5 533 Z "></path><path d="M 342.5 548 L 343 549.5 L 341.5 553 L 341 550.5 L 342.5 548 Z "></path><path d="M 20.5 560 Q 32.4 557.6 36 563.5 Q 38.6 566.4 38 572.5 L 33 581.5 L 35.5 585 L 45 587 L 43.5 590 L 35.5 590 L 30 587 L 29 583 Q 17.5 585.3 14 578.5 Q 10.7 574.8 12 566.5 L 15.5 562 L 20.5 560 Z M 23 563 L 18 568 Q 17 575 19 578 L 28 579 Q 33 577 31 568 L 27 563 L 23 563 Z "></path><path d="M 45.5 560 L 49 561 Q 49.8 564.1 47 563.5 L 47 571.5 L 50.5 580 Q 56.8 581.3 58 577.5 Q 56.7 572.8 59 571.5 Q 56.5 570 58 564.5 L 56.5 563 Q 53.9 563.7 55 561 L 57.5 560 L 64 561 L 61 565.5 L 62 566.5 L 62 581 Q 66.6 579.8 68 582.5 L 64.5 585 L 57.5 582 L 54.5 584 L 52.5 584 L 45.5 583 L 44 581.5 L 42 576.5 L 42 563 Q 37.9 564.3 39 561 L 45.5 560 Z "></path><path d="M 180.5 560 L 187 562.5 Q 188.9 567.9 185.5 567 L 183 566 Q 184.1 563.3 181.5 564 L 178 565 L 178 570 L 187.5 570 L 188 571.5 Q 193.3 572.8 192 580.5 Q 188.5 585.5 179.5 585 L 173.5 583 L 169.5 584 Q 166.8 582.8 169 581.5 Q 167.5 577.1 170.5 578 L 172.5 577 L 179.5 582 L 183.5 582 L 185 580.5 L 185 574 L 177.5 575 L 172 571.5 L 171 565.5 Q 173.9 560.9 180.5 560 Z "></path><path d="M 204.5 560 L 206.5 561 L 209.5 560 L 213.5 561 L 218 560 Q 219.1 562.7 216.5 562 Q 214.3 562.8 215 566.5 L 220.5 576 L 226 562 Q 221.9 563.3 223 560 L 230.5 560 L 231 561.5 Q 223.8 570.1 222 583 Q 218.2 584 217 581.5 L 211.5 571 L 206 580.5 L 207 582.5 Q 205.8 585.2 204.5 583 L 202 581.5 L 194 563 L 190.5 564 L 189.5 562 L 191.5 561 L 201 561 L 201 564.5 L 205.5 575 Q 209.6 573.1 209 566.5 L 203 561.5 L 204.5 560 Z "></path><path d="M 241.5 560 L 248.5 562 L 251 564.5 L 253 573.5 L 250 580 L 244.5 583 L 240.5 583 L 238.5 583 Q 232.6 582.4 230 578.5 Q 227.7 575.3 229 568.5 L 233.5 562 L 241.5 560 Z M 237 563 L 235 571 L 237 577 L 242 580 L 244 579 L 247 573 L 246 567 Q 244 562 237 563 Z "></path><path d="M 256.5 560 Q 267.7 558.3 273 562.5 L 274 567.5 L 272 571 L 268 572.5 L 273.5 581 L 277 582.5 L 270.5 585 Q 264.9 579.9 263 572 L 261 572.5 L 261 581.5 Q 259.3 584.8 252.5 583 L 253.5 581 L 255 580.5 L 255 564.5 L 251 563 Q 249.7 559.3 255.5 561 L 256.5 560 Z M 264 563 L 263 564 Q 260 563 261 568 Q 262 571 266 570 Q 268 569 267 565 L 264 563 Z "></path><path d="M 71.5 561 L 83 561 L 83 566.5 Q 81.5 569.5 80 566.5 Q 81.6 560.8 76 563 L 76 569.5 L 77.5 570 L 81 569 L 82 575 L 78 575 Q 79.5 570.5 75 572 L 75 579.5 L 76.5 581 L 79.5 582 L 82.5 578 Q 85.8 576.9 85 579.5 L 82.5 584 L 73.5 584 L 72.5 585 L 70 584 L 70 562.5 L 71.5 561 Z "></path><path d="M 90.5 561 L 94.5 562 L 99.5 561 Q 102.5 561.5 102 565.5 L 99.5 567 L 98 563 Q 93.5 561.3 95 566.5 L 94 568.5 L 95.5 571 L 98.5 569 L 100 573.5 L 96 575 L 95.5 573 L 94 574.5 L 94 582 L 97.5 582 L 102.5 578 L 103 580.5 L 100.5 584 L 95.5 583 L 91.5 583 L 89.5 584 L 88 579.5 L 89 578.5 L 89 564.5 Q 86.3 562.8 90.5 561 Z "></path><path d="M 105.5 561 L 111.5 562 L 113.5 561 L 117.5 564 L 119 563.5 L 118 566.5 L 122 574 L 124 573.5 L 124 564.5 L 121 563 L 121.5 561 L 131 561 Q 132.5 564.8 129.5 564 L 128 565.5 L 128 576.5 Q 130.3 577.8 129 582.5 Q 128 585 123.5 584 L 113 569 Q 110.3 567.9 111 570.5 L 112 574.5 Q 109.5 576 111 581.5 L 113 584.5 L 111.5 584 L 108.5 585 L 106.5 585 L 104 584.5 L 107 583 L 108 580.5 L 108 564 Q 104.2 565 103 562.5 L 105.5 561 Z "></path><path d="M 277 561 L 291.5 561 L 299 566.5 L 300 574.5 L 294.5 582 L 278.5 584 L 279 582.5 L 280 564.5 L 277 563 L 277 561 Z M 285 563 L 284 566 L 285 571 Q 287 576 284 578 L 285 582 L 291 581 Q 296 578 294 568 L 291 564 L 285 563 Z "></path><path d="M 308.5 561 L 315.5 562 L 320 561 Q 321 564.8 318.5 566 L 316 566 L 315.5 564 L 309 564 L 309 569.5 L 310.5 570 L 312.5 570 Q 320.5 568.5 322 573.5 L 323 576.5 L 322 581 Q 318.1 583.9 309.5 583 L 307.5 583 L 299 582.5 Q 301.2 577.6 307.5 577 L 312.5 581 L 314.5 581 L 316 579.5 L 316 573 L 306.5 573 L 303 570.5 L 302 566.5 L 305.5 562 L 308.5 561 Z "></path><path d="M 324 580 Q 328.6 578.8 330 581.5 L 328.5 584 Q 321.8 586 324 580 Z "></path><path d="M 342.5 580 L 343.5 582 L 340 581.5 L 342.5 580 Z "></path><path d="M 340.5 590 L 341 593.5 L 340 593.5 L 340.5 590 Z "></path><path d="M 344.5 591 Q 347.5 592.5 344.5 594 L 344.5 591 Z "></path></svg>