<svg width="350" height="600" version="1.1" xmlns="http://www.w3.org/2000/svg" desc="Created with imagetracer.js version 1.2.5"><path d="M 13.5 5 L 17.5 6 Q 18.8 3.7 23.5 5 L 24.5 6 L 32.5 6 L 34.5 6 L 38.5 5 L 39.5 6 L 90.5 6 L 95.5 5 L 96.5 6 L 109.5 6 L 111.5 5 L 116.5 6 L 118.5 5 L 120.5 6 L 123.5 5 L 126.5 6 L 128.5 6 L 137.5 5 L 139.5 6 L 140.5 5 L 153.5 5 Q 154.8 7.3 159.5 6 L 161.5 5 Q 162.8 7.3 167.5 6 L 170.5 5 L 172.5 6 L 173.5 5 L 334.5 5 Q 336.8 5.8 336 9.5 L 335 10.5 L 335 19.5 L 336 20.5 L 336 142.5 L 335 143.5 L 335 156.5 L 336 160.5 L 335 162.5 L 336 163.5 L 336 173.5 L 336 175.5 L 335 189.5 L 335 191.5 L 336 199.5 L 335 201.5 Q 337.3 202.8 336 207.5 L 335 211.5 L 336 214.5 L 335 216.5 L 336 217.5 L 336 226.5 L 335 228.5 L 336 231.5 L 335 233.5 L 336 234.5 L 336 270.5 L 335 271.5 L 335 302.5 L 336 303.5 L 336 338.5 L 335 340.5 L 336 341.5 L 336 385.5 L 336 387.5 Q 333.7 390.7 335 397.5 Q 337.8 399.3 336 405.5 L 335 406.5 L 335 435.5 Q 337.3 436.8 336 441.5 L 335 442.5 L 335 555.5 L 336 556.5 L 336 582.5 L 337 584.5 L 336 585.5 L 336 594 Q 332.1 596.4 322.5 595 L 319.5 594 L 317.5 595 Q 316 592.5 310.5 594 Q 309.3 596.3 304.5 595 L 303.5 594 L 293.5 594 L 291.5 595 L 290.5 594 L 280.5 594 L 278.5 594 L 233.5 594 L 231.5 595 L 230.5 594 L 213.5 594 L 211.5 594 L 207.5 595 L 178.5 595 Q 176.8 592.3 170.5 594 L 169.5 595 L 149.5 595 L 147.5 594 L 146.5 595 L 112.5 595 L 111.5 594 L 103.5 594 L 101.5 594 L 93.5 595 L 92.5 594 L 80.5 594 L 78.5 595 L 77.5 594 L 48.5 594 L 46.5 594 L 6.5 594 L 5.5 595 L 4 593.5 L 4 585.5 L 5 584.5 L 5 574.5 L 4 571.5 L 5 569.5 L 5 567.5 L 4 564.5 L 5 563.5 L 5 532.5 Q 2.8 531.2 4 526.5 L 5 524.5 L 4 522.5 L 5 521.5 L 5 513.5 L 4 509.5 L 5 507.5 Q 2.3 505.7 4 499.5 L 4 497.5 L 5 484.5 Q 2.5 483 4 477.5 L 5 472.5 L 4 470.5 Q 6.7 468.8 5 462.5 L 4 459.5 Q 6.5 458 5 452.5 L 4 451.5 L 4 440.5 Q 6.7 438.7 5 432.5 L 4 430.5 L 5 429.5 L 5 402.5 L 5 400.5 Q 6.7 394.3 4 392.5 L 5 391.5 L 5 382.5 L 4 380.5 L 4 378.5 L 5 376.5 L 4 375.5 L 4 363.5 L 5 359.5 L 4 356.5 L 5 355.5 L 5 179.5 L 4 174.5 L 5 173.5 L 5 94.5 L 4 93.5 L 4 82.5 L 5 81.5 L 5 37.5 L 6 35.5 L 5 34.5 L 5 8.5 L 6 6 L 12.5 6 L 13.5 5 Z M 211 7 L 210 8 L 55 8 L 54 9 L 42 9 L 41 8 L 38 9 L 22 9 L 20 9 Q 14 11 13 8 L 9 9 L 9 24 L 8 25 Q 7 30 9 32 Q 11 37 8 39 L 9 44 L 9 73 L 8 74 L 9 78 L 8 81 L 9 89 L 9 91 Q 11 96 8 98 L 8 117 L 9 118 L 9 140 L 8 141 L 9 145 L 8 148 Q 6 154 9 156 L 8 159 L 8 169 L 9 170 L 8 173 L 8 205 L 7 206 L 8 211 Q 10 217 7 219 L 8 221 L 8 332 L 9 333 L 8 336 L 8 484 L 10 483 Q 12 484 11 482 L 15 479 L 24 484 L 28 482 L 38 483 L 40 481 L 42 475 L 42 470 L 45 466 L 45 462 L 48 460 L 49 459 L 50 450 L 53 448 L 54 446 Q 53 441 58 443 L 58 436 Q 59 431 64 432 L 68 439 Q 66 444 70 443 L 71 445 L 72 454 L 75 453 L 81 454 L 82 457 L 81 463 L 84 464 Q 87 468 86 477 L 90 479 Q 89 481 92 480 L 95 486 L 108 493 L 114 491 Q 117 490 116 493 L 124 496 L 133 496 L 134 497 L 137 496 L 138 498 L 138 496 Q 149 498 156 493 Q 160 494 159 491 L 162 490 L 183 499 L 185 498 Q 194 497 199 500 L 201 499 L 202 500 L 210 500 L 212 500 L 214 501 Q 220 502 222 499 L 227 501 L 242 501 L 244 501 L 245 500 L 256 500 Q 263 498 267 492 L 275 496 L 277 495 Q 278 498 284 496 L 288 498 L 294 498 L 298 493 L 305 494 L 307 498 Q 314 499 317 497 L 319 494 L 325 497 L 327 494 L 332 495 L 331 493 L 332 490 L 331 486 Q 330 481 332 480 L 332 470 L 331 469 L 331 447 L 332 446 L 332 438 L 331 437 L 332 434 L 332 320 L 331 319 L 332 317 L 332 8 L 249 8 L 248 7 L 245 8 L 218 8 L 217 7 L 215 8 L 211 7 Z M 63 434 Q 60 435 61 439 L 63 439 Q 64 441 61 440 L 61 444 L 59 444 L 59 448 L 58 448 L 56 448 L 56 450 Q 51 448 52 452 L 55 451 L 55 454 L 52 456 L 53 463 L 52 466 L 50 466 L 50 461 L 48 461 L 48 466 Q 44 467 45 474 L 45 475 L 50 472 L 51 474 L 58 469 L 65 468 L 67 468 Q 71 469 69 465 L 72 464 Q 75 463 76 466 L 75 470 L 77 474 L 83 475 Q 81 473 82 468 L 79 466 L 78 464 L 78 456 L 76 455 L 75 459 L 69 455 Q 70 451 67 452 L 64 447 L 65 445 L 64 443 L 65 441 Q 66 435 63 434 Z M 61 470 L 55 475 L 52 475 L 48 481 Q 49 483 46 482 Q 45 489 39 492 L 37 491 Q 33 496 26 497 L 16 498 L 16 499 Q 20 500 22 498 Q 25 497 24 500 L 24 501 L 29 500 Q 32 499 31 502 L 31 503 L 39 499 L 50 487 L 51 484 L 54 481 L 62 478 L 65 480 Q 63 484 62 481 L 57 482 L 58 484 L 60 483 L 58 487 L 53 489 L 47 496 L 32 506 L 13 507 L 12 508 Q 8 509 9 506 L 14 504 L 17 505 L 20 504 L 22 505 L 25 505 L 19 502 L 15 502 Q 13 505 12 501 L 10 502 L 8 502 L 8 512 L 9 513 L 8 516 L 8 538 Q 9 540 11 538 L 19 538 L 20 539 L 45 539 L 46 538 L 49 539 L 52 538 L 54 538 L 55 539 L 65 539 L 67 539 L 83 538 L 85 538 L 90 539 L 91 538 L 107 538 L 108 537 L 110 538 L 114 538 L 116 537 L 132 537 L 133 536 Q 134 539 141 537 L 143 537 L 145 536 L 150 537 L 152 537 L 154 536 L 167 536 L 157 533 Q 156 530 159 531 L 163 529 Q 167 528 169 530 Q 170 528 176 529 L 178 529 L 182 531 Q 188 528 199 530 L 201 530 Q 205 529 207 531 L 208 528 L 200 527 L 194 520 L 195 516 L 188 514 L 185 515 L 178 512 L 176 513 L 173 514 L 171 513 L 169 514 L 167 514 Q 165 512 160 513 L 158 513 L 153 513 L 135 506 L 132 507 L 112 502 Q 108 503 109 501 L 106 497 L 105 498 L 101 493 L 94 488 Q 91 489 92 487 L 88 484 Q 89 486 86 485 L 86 483 Q 82 484 83 482 L 78 477 Q 74 478 75 476 Q 71 469 61 470 Z M 44 477 L 42 483 L 44 482 L 44 477 Z M 87 481 Q 85 484 88 483 L 87 481 Z M 14 483 L 13 485 L 15 486 L 13 490 L 12 489 Q 14 487 12 486 L 11 488 L 9 486 L 8 493 L 16 492 L 18 492 L 18 491 L 20 491 L 27 489 L 30 485 L 26 485 L 20 489 L 21 487 L 19 485 L 17 486 L 16 484 L 14 483 Z M 42 483 L 40 484 L 38 487 Q 42 488 42 485 L 42 483 Z M 33 487 Q 30 492 23 493 L 23 494 Q 32 493 37 488 L 33 487 Z M 163 493 L 160 496 L 151 498 L 147 498 L 144 499 L 142 498 L 139 499 L 137 503 L 138 504 L 139 501 L 142 501 L 140 505 L 146 508 L 154 510 L 163 510 L 164 511 L 175 511 L 178 509 L 179 510 L 181 509 L 180 511 L 197 514 L 198 509 L 197 508 Q 195 506 194 509 Q 195 512 192 511 L 192 510 L 191 508 Q 192 505 194 507 L 195 504 L 197 505 L 197 503 L 193 501 L 191 501 L 188 500 L 182 503 L 182 501 Q 178 500 179 503 L 177 504 L 179 501 L 163 493 Z M 16 494 L 14 496 L 16 496 L 16 494 Z M 266 494 L 266 497 L 259 502 L 263 504 L 261 505 L 261 504 L 259 502 L 255 504 L 255 502 L 254 504 L 252 502 L 251 503 L 249 502 L 239 504 L 235 503 L 233 503 L 224 503 L 223 505 L 222 505 L 223 503 Q 224 500 221 501 L 219 505 L 220 510 L 223 510 L 232 508 L 233 505 L 234 506 L 245 507 L 249 505 Q 255 505 258 509 L 270 510 L 271 508 L 277 505 Q 279 504 277 503 L 279 500 Q 281 501 280 498 L 278 497 L 270 508 L 269 508 Q 268 504 271 505 L 270 504 L 273 499 L 272 499 L 272 497 L 270 498 Q 265 496 268 495 L 266 494 Z M 112 495 L 110 497 Q 112 501 119 500 L 120 498 L 119 497 L 117 497 L 112 495 Z M 300 495 L 298 497 Q 299 499 296 498 L 296 502 L 292 507 L 294 506 L 297 512 L 296 519 L 294 522 L 296 521 L 295 523 L 298 523 L 300 523 L 300 527 L 302 526 L 301 524 L 307 514 Q 308 510 306 511 L 303 507 Q 306 505 305 499 Q 305 495 300 495 Z M 120 498 L 120 501 L 126 502 L 128 502 L 132 504 L 134 504 L 130 501 L 133 500 Q 135 499 134 502 L 136 502 L 137 500 L 132 499 L 130 499 L 129 498 L 120 498 Z M 283 498 Q 280 499 281 506 Q 280 509 276 508 Q 272 509 273 515 Q 274 517 278 516 L 276 522 L 279 523 Q 281 524 280 521 L 283 519 L 287 524 L 289 523 L 288 520 Q 289 517 293 518 L 294 514 L 293 511 L 287 506 L 286 503 L 286 500 L 284 500 Q 285 497 283 498 Z M 320 498 L 316 501 Q 311 500 310 502 L 308 501 L 306 505 L 307 507 Q 309 505 311 508 Q 316 509 318 506 L 325 506 L 327 506 L 329 507 L 331 506 L 331 499 L 329 498 L 328 501 L 328 499 L 321 502 L 321 501 Q 322 497 320 498 Z M 291 501 L 290 504 L 292 505 L 291 501 Z M 202 502 Q 200 505 198 504 L 199 506 L 197 506 L 199 508 Q 200 505 203 506 L 203 502 L 202 502 Z M 27 503 L 27 504 L 29 504 L 27 503 Z M 206 503 L 204 509 L 201 508 Q 202 515 198 518 L 199 523 L 203 525 L 208 526 L 210 523 Q 212 522 211 525 L 214 526 L 217 526 L 221 523 L 223 519 L 222 517 Q 223 514 221 515 L 221 517 L 220 520 L 217 521 L 217 515 L 216 514 L 217 512 L 216 507 Q 214 501 206 503 Z M 331 507 L 329 509 L 326 508 L 321 510 L 327 510 L 330 515 L 330 517 L 327 518 L 332 519 L 331 518 L 332 514 L 331 507 Z M 247 508 L 241 514 L 238 513 Q 236 516 231 515 Q 229 518 228 516 L 223 524 L 221 527 L 220 528 L 214 529 L 215 531 L 217 530 L 237 530 L 238 531 L 242 530 Q 248 533 259 531 L 260 532 Q 265 534 267 531 L 268 532 L 280 532 Q 282 530 281 525 Q 275 526 272 523 L 273 521 L 270 513 L 256 512 L 250 508 L 247 508 Z M 236 509 L 230 512 L 224 512 L 226 515 L 237 511 L 236 509 Z M 311 510 L 311 511 L 316 511 L 311 510 Z M 312 513 L 310 515 Q 311 517 308 516 L 305 527 Q 306 529 303 528 L 304 530 L 305 529 L 313 529 L 316 526 Q 317 528 318 526 L 315 525 Q 311 524 312 520 L 318 519 Q 320 518 318 517 L 319 513 L 316 514 L 312 513 Z M 323 514 L 323 515 L 327 515 L 323 514 Z M 323 517 L 323 519 L 325 518 L 323 517 Z M 327 520 L 322 522 L 328 522 Q 329 519 327 520 Z M 293 524 L 289 526 L 287 526 Q 284 527 285 532 Q 290 534 289 530 L 291 530 L 296 529 L 293 524 Z M 329 526 L 329 527 L 331 527 L 329 526 Z M 324 528 L 322 530 L 325 531 L 328 530 L 330 531 Q 332 532 331 529 L 329 528 L 326 529 L 324 528 Z M 170 532 Q 169 534 173 533 L 175 537 L 174 540 L 171 538 L 160 540 L 140 541 L 138 541 L 124 539 L 122 539 L 105 540 L 103 540 L 100 541 L 98 541 L 73 541 L 72 540 L 71 541 L 60 541 L 57 542 L 52 541 L 50 542 L 46 542 L 43 541 L 41 541 L 39 542 L 35 541 L 33 542 L 22 541 L 20 541 L 9 541 L 8 544 L 10 545 L 23 545 L 24 546 L 26 545 L 35 546 L 37 546 L 40 545 L 42 545 L 47 546 L 50 545 L 52 546 L 106 546 L 110 547 L 113 546 Q 114 548 119 547 L 121 547 L 126 546 L 128 546 Q 132 545 134 547 L 137 546 L 139 546 L 141 547 L 143 546 L 151 546 L 152 547 L 154 546 L 158 547 L 160 546 L 163 547 L 178 544 L 194 543 L 193 541 L 193 539 Q 192 536 195 537 L 199 535 L 200 536 L 207 535 L 201 533 L 170 532 Z M 295 532 Q 293 536 286 534 Q 285 537 290 536 L 292 536 L 296 537 L 296 532 L 295 532 Z M 304 532 L 303 533 Q 300 532 301 537 L 305 536 L 310 537 L 314 534 L 312 532 L 308 533 L 304 532 Z M 315 532 L 316 534 L 317 534 L 315 532 Z M 324 533 L 325 535 Q 326 532 324 533 Z M 264 534 L 263 535 L 254 535 L 254 536 L 275 536 L 265 535 L 264 534 Z M 243 535 L 243 536 L 245 536 L 243 535 Z M 316 536 L 314 538 L 315 540 L 314 543 L 310 538 L 307 539 L 305 539 Q 300 537 301 542 L 301 544 L 300 547 L 318 547 L 317 546 L 317 537 L 316 536 Z M 321 536 L 320 539 L 321 542 L 320 547 L 324 546 Q 329 545 331 547 L 332 537 L 330 538 L 321 536 Z M 214 537 L 214 538 Q 217 537 216 540 Q 215 542 214 540 Q 209 539 208 541 L 207 538 L 198 539 L 198 540 Q 204 538 202 544 L 201 545 L 194 546 L 209 546 L 211 546 L 216 547 Q 220 548 222 546 L 232 546 L 233 547 L 237 546 L 239 547 L 243 546 L 245 546 L 247 547 L 259 547 L 260 546 L 267 547 L 269 547 L 276 546 L 278 546 L 280 547 L 284 546 L 286 547 L 299 547 L 293 546 L 296 542 L 296 539 Q 289 540 286 538 Q 285 541 288 543 L 287 543 L 285 543 L 279 544 Q 278 540 281 541 L 281 538 L 214 537 Z M 10 549 L 8 551 L 9 588 L 16 588 L 17 589 L 19 588 L 21 589 L 91 589 L 93 589 L 98 590 L 103 589 L 105 589 L 107 590 L 126 590 L 126 588 L 131 587 L 132 585 Q 132 575 127 570 Q 127 565 131 563 L 134 565 Q 135 569 132 568 L 133 573 Q 136 574 135 571 L 139 573 Q 140 577 138 578 L 137 576 L 135 578 L 135 586 L 134 587 Q 135 589 132 588 L 132 590 L 227 590 L 228 589 L 233 590 L 235 590 L 237 589 L 238 590 L 264 590 L 266 590 L 268 589 L 270 590 L 272 590 L 274 589 L 277 590 L 279 589 L 281 590 L 285 589 L 286 590 L 326 590 L 328 590 L 331 591 Q 334 589 332 583 L 328 584 Q 324 583 325 580 Q 326 577 331 578 L 332 580 L 332 551 L 329 550 L 240 550 L 237 549 L 232 550 L 211 550 L 207 550 L 184 550 L 183 549 L 182 550 L 80 550 L 78 550 L 67 549 L 65 549 L 57 549 L 56 550 L 54 549 L 10 549 Z "></path><path d="M 118.5 20 L 123 23.5 L 126.5 31 L 127 29 L 132.5 26 L 135.5 26 L 137.5 26 L 144 25 L 144 29.5 L 138 39 L 146.5 39 L 148 40.5 L 142.5 49 L 139 50.5 L 148.5 51 L 151.5 53 L 157.5 53 L 163 58.5 L 165 62.5 L 165 76.5 L 157 93.5 L 157 126.5 L 156 130.5 L 157 132.5 L 157 134.5 L 156 138.5 L 156 140.5 L 156 155.5 L 154 165.5 L 154 214.5 L 155.5 221 L 164 215.5 Q 164.8 211.8 162.5 211 L 156 205.5 L 160.5 196 Q 161.6 198.8 165 198 Q 166.4 190.7 172.5 187 L 178 194.5 L 178 199.5 L 177 202 L 174 200.5 L 175 196.5 L 171.5 191 Q 169.3 190.3 170 192.5 Q 166.5 194 168 200.5 L 169 200.5 Q 168.2 197.5 172 199 L 174 203.5 L 173 207.5 Q 168.5 210 168 215 L 172.5 215 L 176.5 211 L 179.5 211 L 186 216.5 L 185 226 L 177.5 224 L 172.5 224 L 171 222.5 Q 173.6 215.2 167.5 217 L 163 220.5 L 165 224.5 L 164 227 Q 161.3 225.9 162 228.5 L 160 236.5 L 156 243.5 L 155 252.5 L 153 255.5 L 153 275.5 L 152 276.5 L 152 289 Q 158.4 287.8 160 292.5 L 163 310.5 L 169 323.5 L 166 321.5 L 161 312.5 L 160.5 308 Q 157.6 310.6 151.5 310 L 149 307.5 L 149 296.5 Q 151.1 292.9 156 293 L 154.5 290 L 152.5 290 L 147 295.5 L 144 312.5 L 147 321.5 L 147 325.5 L 154 339.5 L 155 360.5 L 157 369.5 L 161 377 L 159 377.5 L 159 384.5 L 154 388.5 L 155 395.5 L 148 400.5 L 153 404.5 L 154 410.5 Q 150 412.5 150 418.5 L 152 422 Q 148.5 420.9 150 428.5 L 149 430.5 L 150 431.5 L 150 440.5 L 149 442.5 L 149 444.5 L 148 463.5 L 149 466.5 L 148 467.5 L 148 475.5 L 145 481 Q 142.7 483.6 136.5 483 L 130 478.5 L 129 430.5 L 129 428.5 L 130 423.5 L 129 420 L 107.5 414 L 102 409.5 Q 99.5 406 101 398.5 L 103 394 Q 97.4 393.9 95 389.5 Q 92.8 384.7 94 376.5 L 100 367.5 L 94 361.5 L 93 356.5 L 97 341 L 105 336.5 L 105 320.5 L 109.5 315 L 119.5 311 L 120 313 L 113.5 314 L 109 317.5 L 107 327.5 L 108 329.5 Q 105.5 331 107 336.5 L 110 355 L 123 362 L 126.5 357 Q 134.1 355.9 137 359.5 L 140 363.5 L 140 367.5 Q 138.5 370.5 137 367.5 Q 138 361 133.5 360 L 128.5 358 Q 124.5 358.5 125 363.5 Q 129.5 369.3 138 370 Q 139.1 372.7 136.5 372 L 129.5 370 L 107 353.5 L 106 350.5 L 107 348.5 Q 104.3 346.8 106 340.5 L 104.5 339 L 99 342.5 L 96 357.5 L 97 360.5 L 107.5 371 Q 109.8 370.3 109 372.5 Q 110.8 370.9 112.5 374 L 123 381.5 L 122.5 383 L 105.5 371 L 100.5 370 Q 95.1 375.1 97 387.5 L 99.5 391 L 121.5 400 L 132.5 402 L 133.5 401 L 145.5 400 L 150 398 L 149 393 L 144.5 392 L 141 394.5 Q 142.9 399.9 139.5 399 Q 136.8 397.6 138 393 L 146.5 390 L 149.5 392 Q 152.5 390.5 149.5 389 Q 143.7 390.7 145 387 L 152 387 L 152 384.5 L 153 380.5 Q 149.7 375 140 377 L 139 382 Q 134.9 383.7 136 379.5 L 139.5 376 L 146.5 375 L 154 378.5 L 155.5 381 L 156 379.5 L 154 375 L 143.5 370 L 141 371 Q 142.7 367.6 142 360.5 L 139 354.5 L 129 343.5 Q 131.8 341.8 130 335.5 L 130 333.5 L 129 328 L 125 325.5 L 127.5 325 L 130 326.5 Q 128.3 318.3 131 314.5 L 130 312.5 L 131 308 L 123.5 310 L 121.5 312 L 121 310 L 131 306 L 130 208.5 L 129 205.5 Q 131.3 204.3 130 199.5 Q 127.5 198 129 192.5 L 127.5 191 Q 125.3 191.8 126 189.5 L 126 187.5 L 124.5 185 L 121 182.5 L 122 175.5 Q 119.8 168.8 114.5 165 L 112.5 166 Q 111.2 163.8 110 166.5 Q 109.7 173.8 104.5 176 Q 102.3 175.3 103 177.5 Q 101.8 180 98 179 L 98 174.5 L 95 166.5 L 100 159 L 92.5 163 L 88.5 163 Q 82.8 161.8 80 157.5 L 81.5 154 Q 85.5 154.5 86 151.5 L 87.5 149 L 96.5 147 L 99 148 L 100 154.5 L 105.5 161 L 109.5 161 L 113.5 163 L 112 160.5 L 109 153.5 Q 111.4 144.9 118.5 141 L 121.5 140 L 125 149.5 L 122 155 L 116 157 L 116 162.5 L 122 168.5 L 126.5 181 L 129.5 179 L 132 180 L 131 175.5 L 131 148.5 L 132 147.5 L 132 134.5 L 133 132.5 L 132 131.5 L 132 96.5 L 131 95.5 L 130 81.5 L 126 73.5 L 126 64.5 L 127 61.5 L 121 53.5 L 121 51 Q 118.3 49.9 119 52.5 L 118 55.5 L 119 58.5 L 114.5 65 Q 109.9 68.1 102 67 L 104 60.5 L 104 55.5 L 106.5 52 L 111.5 50 L 115.5 53 L 119.5 48 Q 122.1 48.8 121 45.5 L 122 42.5 L 119.5 40 Q 114.4 40.6 113 37.5 L 113 27.5 L 118.5 20 Z M 119 24 L 115 29 L 116 36 L 118 37 L 119 37 L 118 35 Q 116 33 119 32 Q 122 31 121 34 L 125 34 L 124 33 L 121 27 L 119 24 Z M 133 28 L 127 35 L 130 36 L 132 33 Q 136 32 135 35 L 132 37 L 133 38 L 137 36 L 141 32 L 141 30 L 142 28 L 138 29 L 133 28 Z M 125 36 L 124 37 Q 121 36 122 40 L 126 41 Q 127 37 125 36 Z M 129 40 L 126 45 Q 124 50 128 49 L 131 42 Q 132 39 129 40 Z M 141 41 L 140 42 Q 132 41 133 44 L 135 43 L 137 45 Q 138 48 134 46 L 136 49 L 138 48 L 140 48 L 145 42 L 144 42 L 141 41 Z M 131 49 L 127 51 L 129 57 Q 130 59 132 57 Q 134 58 133 55 L 139 52 Q 133 52 131 49 Z M 111 53 L 107 57 L 106 65 L 108 64 L 111 65 L 114 63 L 116 60 L 115 56 Q 112 55 113 58 L 110 59 L 111 55 L 111 53 Z M 153 56 L 151 58 L 152 60 L 153 60 L 153 56 Z M 139 57 L 139 59 L 141 58 L 139 57 Z M 142 57 L 142 76 L 144 75 L 143 73 L 144 70 L 144 58 L 142 57 Z M 145 58 Q 147 61 146 68 L 146 70 L 145 72 L 147 71 L 147 59 L 145 58 Z M 158 58 L 157 63 L 158 63 L 158 58 Z M 160 60 L 159 64 L 161 63 L 160 60 Z M 138 63 L 137 71 L 138 71 L 138 63 Z M 150 63 L 150 75 L 151 67 L 150 63 Z M 130 64 L 129 72 L 130 72 L 130 64 Z M 140 65 L 140 69 L 140 68 Q 142 66 140 65 Z M 158 66 L 156 72 L 157 81 L 158 81 L 158 66 Z M 141 69 L 140 73 L 141 73 L 141 69 Z M 153 69 L 151 72 L 153 72 L 153 69 Z M 135 70 L 134 74 L 135 74 L 135 70 Z M 147 72 L 146 74 L 148 73 L 147 72 Z M 153 73 Q 150 74 152 76 L 151 78 L 152 81 L 153 81 L 153 73 Z M 133 74 L 131 77 L 133 77 L 133 74 Z M 160 74 L 161 79 L 162 76 Q 163 73 160 74 Z M 147 75 L 145 79 L 146 83 L 147 80 L 147 75 Z M 150 76 L 149 79 L 150 79 L 150 76 Z M 143 78 L 141 80 L 142 83 L 143 83 L 143 78 Z M 156 81 L 154 83 L 156 83 L 156 81 Z M 151 82 Q 150 85 153 84 Q 154 81 151 82 Z M 148 83 L 149 98 L 150 93 L 149 91 L 149 89 L 150 86 L 150 84 L 148 83 Z M 146 84 L 145 94 L 146 94 L 146 84 Z M 158 84 L 154 87 L 156 89 L 158 86 L 158 84 Z M 143 89 L 142 95 L 143 95 L 143 89 Z M 155 90 L 153 92 L 155 92 L 155 90 Z M 152 94 L 151 98 L 152 98 L 152 94 Z M 146 95 L 146 116 L 147 110 L 146 109 L 146 95 Z M 144 109 L 143 117 L 144 117 L 144 109 Z M 149 109 L 148 112 L 149 112 L 149 109 Z M 139 111 L 138 114 L 139 114 L 139 111 Z M 140 123 L 138 125 L 139 128 L 140 125 L 140 123 Z M 136 125 L 136 133 L 136 128 Q 138 126 136 125 Z M 154 125 L 152 126 L 152 128 L 152 135 L 154 135 L 153 132 L 154 128 L 154 125 Z M 148 130 L 149 134 L 150 132 Q 151 129 148 130 Z M 140 134 L 139 143 L 141 143 L 140 134 Z M 142 135 L 143 138 Q 145 147 142 153 L 144 152 L 144 136 L 142 135 Z M 153 136 L 152 147 L 153 147 L 153 136 Z M 149 138 L 148 141 L 149 141 L 149 138 Z M 119 144 L 113 151 Q 112 155 115 156 L 120 154 L 119 152 L 121 152 L 120 147 Q 121 143 119 144 Z M 150 147 L 149 149 L 151 148 L 150 147 Z M 153 148 L 151 153 L 152 155 L 151 158 L 152 162 L 153 158 L 153 148 Z M 148 149 L 145 150 L 146 152 L 148 151 L 148 149 Z M 93 150 L 90 151 L 88 154 L 84 157 L 87 160 Q 94 161 96 158 L 94 154 L 96 154 L 97 152 Q 96 149 95 151 L 93 150 Z M 139 150 L 139 152 L 141 151 L 139 150 Z M 149 151 L 148 154 L 149 154 L 149 151 Z M 145 153 L 146 159 L 147 156 Q 148 152 145 153 Z M 136 154 Q 135 157 138 156 Q 139 153 136 154 Z M 140 154 L 139 158 L 140 158 L 140 154 Z M 143 154 Q 140 158 144 157 L 143 154 Z M 149 155 L 148 159 L 149 159 L 149 155 Z M 142 158 L 142 161 L 144 160 Q 145 157 142 158 Z M 140 159 L 139 164 L 141 165 L 140 159 Z M 146 160 L 145 165 L 146 165 L 146 160 Z M 101 163 L 98 167 Q 102 169 102 176 L 107 170 L 106 166 L 104 167 L 101 163 Z M 152 164 L 151 170 L 152 170 L 152 164 Z M 141 166 L 139 168 L 141 168 L 141 166 Z M 143 168 L 142 190 L 141 193 L 143 192 L 143 168 Z M 146 169 L 144 174 L 145 177 L 144 180 L 145 184 L 144 185 L 144 210 L 146 209 L 145 207 L 145 205 L 145 194 L 146 193 L 146 181 L 148 180 L 148 193 L 147 194 L 147 212 L 148 213 L 148 223 L 146 222 L 146 211 L 144 212 L 145 213 L 145 224 L 145 226 L 146 228 Q 147 225 150 226 L 149 224 L 150 222 L 149 211 L 149 209 L 148 203 L 149 200 L 149 180 L 152 179 L 151 177 L 152 173 L 150 172 L 150 178 L 149 175 L 148 178 L 146 177 L 146 169 Z M 149 169 L 148 174 L 149 174 L 149 169 Z M 141 170 L 140 172 L 140 174 L 139 176 L 141 176 L 141 170 Z M 138 174 L 136 176 L 138 177 L 138 174 Z M 138 178 L 136 181 L 138 181 L 138 178 Z M 140 178 Q 137 183 141 182 L 140 178 Z M 130 181 L 131 186 L 132 184 L 133 187 L 133 184 L 130 181 Z M 134 181 L 134 183 L 136 182 L 134 181 Z M 135 184 L 134 187 L 135 187 L 135 184 Z M 136 184 L 136 191 L 138 192 L 137 190 L 138 185 L 136 184 Z M 140 184 L 139 195 L 140 195 L 140 184 Z M 131 187 L 129 189 L 130 191 L 131 191 L 131 187 Z M 150 192 L 151 196 L 152 194 Q 153 191 150 192 Z M 138 193 L 136 195 L 138 196 L 138 193 Z M 135 198 L 134 201 L 135 201 L 135 198 Z M 151 198 L 151 215 L 151 206 L 152 205 L 151 198 Z M 138 201 L 137 204 L 138 204 L 138 201 Z M 162 201 Q 159 202 160 206 L 164 209 L 165 208 L 164 203 L 162 201 Z M 135 204 L 134 207 L 135 207 L 135 204 Z M 138 206 L 137 210 L 138 210 L 138 206 Z M 143 207 L 143 235 L 143 230 L 144 227 L 143 225 L 144 223 L 143 220 L 144 218 L 143 217 L 143 207 Z M 134 209 L 135 212 L 136 210 L 134 209 Z M 140 211 L 139 255 L 139 257 L 140 271 L 141 254 L 141 252 L 140 246 L 140 244 L 141 241 L 141 239 L 140 237 Q 138 230 141 229 L 140 227 L 140 211 Z M 138 214 L 137 217 L 138 217 L 138 214 Z M 178 214 L 179 215 L 181 220 L 179 220 L 177 218 L 176 219 Q 173 218 174 221 L 182 223 L 183 221 L 182 217 Q 181 213 178 214 Z M 152 215 L 151 221 L 152 221 L 152 215 Z M 138 222 L 137 235 Q 133 236 135 230 L 134 230 L 134 236 L 137 236 L 136 240 L 138 241 L 138 222 Z M 135 223 L 133 225 L 135 225 L 135 223 Z M 158 224 L 155 229 L 156 230 L 158 227 L 158 224 Z M 145 231 L 145 233 L 147 232 L 145 231 Z M 155 231 L 152 236 L 153 238 L 155 234 Q 157 232 155 231 Z M 149 233 L 149 235 L 149 237 L 151 242 L 150 244 L 152 248 L 153 245 L 151 239 Q 153 232 149 233 Z M 143 237 L 142 251 L 144 251 L 143 250 Q 141 243 144 242 L 143 237 Z M 154 238 Q 152 241 155 240 L 154 238 Z M 146 240 L 145 246 L 146 246 L 146 240 Z M 137 241 L 136 243 L 138 244 L 137 241 Z M 136 247 L 137 251 L 137 255 Q 139 260 136 262 L 138 263 L 138 248 L 136 247 Z M 149 253 L 147 255 L 149 255 L 149 253 Z M 146 255 L 145 261 L 146 261 L 146 255 Z M 142 260 L 143 275 L 146 274 L 144 273 L 143 271 L 143 262 L 144 261 L 142 260 Z M 150 261 L 149 264 L 150 264 L 150 261 Z M 146 266 L 145 271 L 146 271 L 146 266 Z M 138 268 L 137 271 L 138 271 L 138 268 Z M 140 272 L 139 312 L 141 312 L 141 297 L 141 295 L 140 289 L 140 285 L 141 283 L 140 272 Z M 138 274 L 137 277 L 138 277 L 138 274 Z M 143 278 L 142 283 L 143 283 L 143 278 Z M 150 281 Q 147 283 148 289 L 144 295 L 145 296 Q 149 293 150 287 L 150 281 Z M 136 285 L 136 287 L 138 286 L 136 285 Z M 143 285 L 142 296 L 143 296 L 143 285 Z M 154 295 L 152 297 Q 151 304 153 308 Q 158 309 160 307 L 159 303 L 159 295 L 154 295 Z M 144 296 L 142 298 L 143 300 L 144 298 L 144 296 Z M 136 297 L 136 299 L 138 298 L 136 297 Z M 140 313 L 139 324 L 141 324 L 140 321 L 141 318 L 140 313 Z M 134 319 L 134 321 L 136 320 L 134 319 Z M 143 319 Q 141 323 143 325 L 142 327 L 145 328 L 143 319 Z M 134 327 L 134 329 L 136 328 L 134 327 Z M 146 332 L 144 334 L 146 335 L 146 332 Z M 147 332 L 148 336 L 149 334 Q 150 331 147 332 Z M 135 333 L 133 335 L 135 335 L 135 333 Z M 140 338 L 140 341 Q 143 340 140 338 Z M 143 338 L 142 351 L 144 350 L 143 338 Z M 145 338 L 144 340 L 146 341 L 145 338 Z M 135 344 L 134 346 L 136 345 L 135 344 Z M 141 344 L 140 347 L 141 347 L 141 344 Z M 152 345 L 151 348 L 152 348 L 152 345 Z M 146 347 L 145 353 L 147 352 L 146 347 Z M 151 350 L 153 356 L 153 353 L 153 351 L 151 350 Z M 147 353 L 145 355 L 146 360 L 147 355 L 147 353 Z M 153 361 L 152 371 L 155 373 L 153 361 Z M 147 363 L 146 367 L 147 367 L 147 363 Z M 106 396 L 104 398 Q 103 405 105 409 L 111 413 L 127 418 L 144 415 L 148 413 L 147 409 L 145 406 L 141 407 Q 137 408 138 413 L 135 414 L 136 408 L 144 404 L 148 405 Q 150 407 150 412 Q 152 411 151 407 L 148 403 L 137 402 L 135 402 L 132 404 L 122 402 L 112 397 L 106 396 Z M 140 417 L 138 419 L 139 426 L 140 426 L 140 417 Z M 142 418 Q 139 423 143 422 L 142 418 Z M 142 423 Q 140 426 143 425 L 142 423 Z M 142 427 L 141 432 L 143 432 L 142 427 Z M 140 428 L 138 431 L 140 432 L 140 428 Z M 137 429 L 136 432 L 137 432 L 137 429 Z M 134 430 L 133 433 L 134 433 L 134 430 Z M 139 432 Q 136 436 140 435 L 139 432 Z M 146 432 Q 143 433 145 435 L 144 437 L 146 439 L 147 437 L 146 432 Z M 141 433 L 142 439 L 143 435 Q 144 432 141 433 Z M 136 435 L 137 437 Q 138 434 136 435 Z M 138 436 Q 136 441 140 440 Q 142 435 138 436 Z M 138 441 L 140 444 L 140 442 L 142 442 L 138 441 Z M 146 443 L 145 447 Q 142 446 143 450 L 146 449 L 146 443 Z M 138 445 L 138 451 L 140 450 Q 142 444 138 445 Z M 142 448 L 140 455 L 141 457 L 140 462 L 142 461 L 142 448 Z M 136 461 L 134 463 L 135 464 L 135 472 L 136 472 L 136 461 Z M 145 465 L 143 467 Q 142 470 145 469 L 145 465 Z M 141 467 L 141 470 L 142 470 Q 143 466 141 467 Z M 138 477 L 137 479 L 140 480 L 138 477 Z "></path><path d="M 100.5 94 L 102 100 L 107.5 101 L 111 104.5 L 111 109.5 L 104.5 116 Q 96.5 117.5 95 112.5 L 94 103.5 L 96 98 Q 98.7 99.1 98 96.5 L 100.5 94 Z M 99 99 L 97 101 L 98 112 L 102 114 L 104 114 L 102 110 Q 104 106 107 111 L 109 110 L 108 106 Q 107 102 102 103 L 99 99 Z "></path><path d="M 190.5 117 L 193.5 121 Q 199.3 121.3 202 124.5 L 203 131.5 L 198.5 137 Q 197.1 139.6 192.5 139 L 190 138 L 186 130.5 L 186 124.5 L 190.5 117 Z M 189 122 Q 188 130 191 135 L 195 137 L 195 135 L 193 134 L 191 130 L 193 130 L 195 129 L 197 133 Q 196 135 199 134 Q 201 133 200 128 L 198 125 L 189 122 Z "></path><path d="M 168 141 L 173.5 144 L 177.5 143 L 183 146.5 L 184 152.5 L 181.5 156 L 173.5 159 L 166 153.5 Q 165.1 144.9 168 141 Z M 170 145 Q 167 153 173 156 L 175 156 L 174 155 L 172 152 L 175 151 Q 176 155 181 154 L 180 148 L 179 146 L 171 146 L 170 145 Z "></path><path d="M 92.5 155 L 93.5 157 L 92.5 155 Z "></path><path d="M 184.5 164 L 188.5 166 L 192.5 166 L 194.5 166 L 199 167 L 200 173.5 L 196.5 178 L 194.5 179 L 192.5 179 L 186.5 180 L 182 176.5 L 180 169.5 L 182 165 L 184.5 164 Z M 184 167 L 183 171 L 184 174 L 189 178 L 188 176 Q 186 171 191 172 L 195 177 L 197 174 L 196 168 L 194 167 L 191 169 L 188 169 L 184 167 Z "></path><path d="M 230.5 184 L 240.5 184 Q 247.7 185.8 251 191.5 L 253 197 Q 255.7 195.9 255 198.5 L 262 204.5 L 264 213.5 L 263 218 Q 274.9 219.8 281 228.5 L 285 236.5 L 285 247.5 L 282 252.5 Q 295.9 254.1 302 263.5 Q 308.9 270.6 307 286.5 Q 304.8 287.8 307.5 289 L 311 291.5 Q 315.3 296.7 316 305.5 L 314 314.5 L 311.5 317 L 310 317.5 L 314 320 L 319 332.5 L 319 342.5 Q 317.4 351.9 311.5 357 L 307.5 358 L 306 357.5 L 307.5 361 L 309.5 361 L 318 364 L 328 381.5 L 330 390.5 L 330 397.5 L 329 400.5 L 327 412.5 L 324 419.5 L 317.5 427 L 296 439.5 L 296 445.5 L 289.5 455 Q 283.8 460.3 274.5 462 L 271.5 461 L 269.5 462 L 264.5 461 L 262 458.5 Q 263.8 455.3 265.5 459 Q 268.7 461.3 275.5 460 L 285 455.5 L 283.5 455 Q 278.2 459.2 268.5 459 L 267 456 L 276.5 456 L 286 453 L 289.5 447 L 291.5 448 Q 294.1 445.5 293 440 L 286.5 441 Q 285 438.5 279.5 440 L 273.5 437 L 269 449.5 L 260.5 458 L 253 461 L 254 469.5 L 247.5 478 L 242 480 L 241 485.5 L 233.5 494 L 226.5 497 L 218.5 497 L 212.5 492 L 209.5 492 L 204.5 494 L 189.5 490 L 176 477.5 L 172 463.5 L 172 454.5 L 178 438.5 L 184.5 432 L 194.5 428 L 199 428 L 203 418.5 L 201.5 419 L 197.5 418 L 192.5 419 L 190.5 419 L 162.5 422 Q 161.3 419.7 156.5 421 L 155 421.5 L 155.5 420 L 170.5 420 L 171.5 419 L 179.5 419 L 188.5 414 L 190 417 L 207.5 417 L 208.5 416 L 216 416 Q 216.8 419.1 214 418.5 L 214 423.5 L 218 429 L 225.5 432 L 232.5 432 L 237 428.5 L 240 423.5 L 239 421.5 L 240 421.5 L 241 427.5 L 236.5 433 L 231.5 435 L 224.5 435 Q 216.5 432.5 212 426.5 L 211 420.5 L 209.5 419 L 207.5 419 L 203 423.5 L 202 431.5 L 205.5 437 L 209 438 L 209.5 440 L 213 437.5 L 214.5 434 Q 216.8 434.8 216 438.5 L 213 441.5 L 214 442.5 Q 216 452.5 223.5 457 L 232.5 461 L 242.5 462 L 246 460 L 247.5 457 L 250.5 457 L 259 452 L 265.5 442 L 266 445.5 L 258.5 454 L 251 458.5 L 253.5 459 Q 261 456 265 449.5 L 269 438.5 L 266 437.5 L 262 428 L 266 429.5 L 267.5 432 L 268 430.5 Q 265.9 422.6 259.5 419 L 256.5 418 L 255 422 L 250.5 421 Q 246.5 422.5 248 429.5 L 253.5 432 L 255 429.5 L 254 427 Q 257.7 425.5 257 428.5 L 258 431.5 Q 256.3 435.8 248.5 434 L 246 433 L 244 429.5 L 244 424.5 L 248.5 419 Q 251.8 420.1 251 417.5 L 249.5 418 L 240.5 417 L 230 408.5 L 226 398.5 L 226 388.5 Q 229.6 375.1 239.5 368 Q 242.1 368.7 241 366 L 229.5 368 L 230.5 366 L 232 365.5 L 225 357.5 Q 222.7 352.8 224 344.5 Q 225.8 337.3 231.5 334 L 234 332.5 Q 234.8 330.3 232.5 331 L 222 321.5 Q 217.3 315.2 217 304.5 Q 219.7 287.7 230.5 279 L 240.5 274 L 243.5 275 L 244.5 273 Q 234.2 270.8 229.5 263 L 220.5 262 L 219.5 264 Q 222.5 263.5 221 270.5 L 220 272.5 L 223.5 277 L 227 278 Q 228.1 280.7 225.5 280 L 219 277 Q 215.2 273 215 264.5 L 217 260.5 L 209 253.5 Q 199.5 243 199 223.5 L 200 222.5 L 201 208.5 Q 204.6 199.6 211.5 194 L 221.5 187 L 230.5 184 Z M 231 186 L 233 190 L 231 189 L 226 189 L 218 192 L 217 194 L 220 193 L 221 194 L 209 201 L 206 205 L 207 206 L 209 205 Q 205 210 203 219 L 204 222 L 207 217 L 208 218 L 205 223 L 206 235 L 208 231 L 209 236 L 208 238 L 211 249 L 212 249 L 211 245 L 213 242 L 214 244 L 214 248 L 216 253 L 219 254 L 222 258 Q 224 257 223 260 L 227 260 L 228 261 L 227 256 L 227 244 L 233 230 L 246 221 L 243 217 L 244 211 L 249 209 L 251 210 L 252 214 L 249 212 Q 246 213 247 218 L 254 220 L 260 217 Q 261 209 258 205 L 256 202 L 249 200 L 243 201 L 233 206 L 233 210 L 230 214 L 228 223 L 227 224 Q 224 223 225 226 L 223 225 Q 223 214 228 210 Q 227 207 230 208 L 231 205 L 245 198 L 250 198 L 250 196 L 246 190 Q 243 191 244 188 Q 241 187 242 190 L 238 188 Q 234 189 235 186 L 231 186 Z M 260 220 L 255 222 L 251 221 L 250 223 L 246 223 L 240 226 L 234 234 L 236 234 L 233 240 Q 235 245 232 247 Q 231 249 234 248 L 234 256 L 233 257 L 237 264 L 236 266 L 251 273 L 263 274 L 274 279 L 277 282 L 278 281 L 287 283 L 292 288 Q 291 290 294 289 Q 299 294 301 303 Q 302 311 300 314 Q 307 313 310 317 L 311 315 Q 312 310 309 311 L 310 309 Q 311 301 308 299 Q 307 296 310 297 L 307 291 Q 303 290 304 293 L 299 295 L 304 287 L 304 283 L 303 285 Q 301 289 299 286 L 301 282 Q 301 270 295 266 L 296 264 Q 293 259 288 260 L 289 256 L 285 255 L 280 255 L 276 258 L 272 258 L 269 259 L 264 258 L 262 255 L 262 251 L 265 249 L 266 255 L 268 256 L 276 256 Q 281 254 282 248 L 282 239 L 278 230 L 267 221 L 260 220 Z M 203 222 L 202 226 L 203 226 L 203 222 Z M 206 236 L 204 238 L 205 241 L 206 241 L 206 236 Z M 231 247 L 231 255 L 232 251 L 231 247 Z M 214 252 L 213 254 L 215 255 L 214 252 Z M 247 275 L 243 277 Q 239 276 240 279 L 235 282 L 237 279 L 236 278 L 230 286 L 228 285 L 221 298 L 221 313 L 224 320 Q 230 329 243 332 L 252 330 L 257 326 Q 256 323 260 324 L 262 321 L 260 315 L 261 311 Q 259 306 253 306 L 257 304 L 255 302 L 250 302 L 245 306 L 246 312 L 249 313 L 252 312 Q 254 311 253 314 L 251 315 L 245 314 L 241 309 L 242 306 L 251 299 L 261 302 L 266 311 L 266 319 L 258 329 Q 255 328 256 331 L 265 336 L 276 330 Q 275 326 278 327 L 282 318 Q 284 303 279 297 L 282 295 L 285 301 L 285 319 L 280 328 L 277 330 L 290 331 L 296 336 Q 295 338 298 337 Q 304 343 307 354 Q 306 357 309 356 L 308 355 Q 313 350 313 340 L 316 338 L 315 332 L 314 332 L 309 324 L 312 324 L 311 321 L 301 316 L 295 325 L 289 329 Q 284 330 285 327 L 287 327 L 286 325 L 289 323 L 294 313 L 294 304 L 297 304 Q 298 299 296 297 L 292 298 L 290 293 L 293 293 Q 289 285 280 284 L 278 284 Q 279 288 277 287 L 275 285 L 262 276 L 247 275 Z M 250 332 L 246 334 Q 241 335 240 333 L 239 335 Q 239 338 235 337 L 230 343 Q 231 346 227 344 Q 226 347 229 349 L 228 354 L 228 356 L 229 359 Q 232 363 238 364 Q 244 365 247 362 L 250 359 L 251 355 L 250 350 L 247 347 Q 243 346 242 349 L 244 352 L 246 351 L 247 351 L 246 354 L 241 353 Q 238 352 239 348 Q 240 343 248 344 Q 253 346 254 353 L 252 360 L 248 363 L 246 366 L 239 371 Q 232 377 229 388 L 229 399 L 232 407 Q 237 412 246 415 Q 253 416 257 413 Q 262 408 263 400 L 259 394 L 262 393 L 265 398 Q 265 409 259 414 L 265 417 L 271 426 L 273 433 L 281 438 Q 293 440 300 436 L 301 434 L 296 436 Q 288 438 285 435 L 286 433 L 288 434 L 294 434 L 301 432 L 315 420 Q 314 417 317 418 L 318 421 L 323 412 L 325 405 L 324 401 L 326 395 L 326 390 L 324 391 L 321 383 L 323 380 L 319 371 Q 315 364 306 362 L 305 367 Q 301 368 304 370 L 302 374 Q 297 381 287 383 L 282 384 L 275 381 L 270 375 L 272 371 L 272 369 L 276 369 L 274 373 L 274 377 L 275 377 Q 274 372 277 373 L 280 378 Q 282 377 281 380 L 281 381 L 289 381 L 295 378 Q 301 373 303 364 L 303 352 L 295 338 L 288 333 L 283 332 Q 274 331 270 335 Q 267 334 268 337 L 265 338 L 266 340 Q 267 344 263 342 L 261 336 L 256 333 L 254 333 L 250 332 Z M 316 422 L 310 429 L 316 424 L 316 422 Z M 195 430 L 186 434 L 180 441 L 176 452 L 176 467 L 179 475 L 186 484 L 201 490 L 209 490 L 216 485 L 218 477 Q 219 471 216 469 Q 207 468 206 473 L 204 471 L 212 465 L 218 467 L 221 472 L 221 481 L 219 486 L 215 490 L 218 493 Q 220 492 219 495 L 221 494 L 224 495 L 236 489 L 239 483 L 237 480 L 247 476 L 250 472 L 251 468 L 250 466 Q 251 462 249 463 L 247 463 L 244 465 Q 229 465 221 459 Q 213 453 210 443 L 204 440 Q 199 438 199 432 Q 198 429 195 430 Z M 307 430 L 306 432 L 308 431 L 307 430 Z M 304 432 L 302 433 L 302 434 L 305 433 L 304 432 Z M 287 453 L 286 455 L 288 454 L 287 453 Z "></path><path d="M 243.5 203 L 245.5 203 Q 248.1 202.3 247 205 Q 237.5 206.6 232.5 214 L 232 212.5 L 243.5 203 Z "></path><path d="M 253 205 Q 257.5 203.5 256 208 L 253 206.5 L 253 205 Z "></path><path d="M 89.5 209 L 93 210 Q 91.9 212.7 94.5 212 Q 101.1 212.9 104 217.5 L 105 221.5 L 101 229 Q 98.6 230.8 92.5 230 L 90 229 Q 86.9 225.4 88 216.5 L 89 213.5 L 88 210.5 L 89.5 209 Z M 93 213 Q 90 216 91 223 Q 92 225 94 223 L 93 225 L 96 228 L 98 228 L 95 222 L 98 221 L 98 223 L 101 224 L 102 222 L 100 218 L 93 215 L 93 213 Z "></path><path d="M 64.5 228 L 70.5 232 Q 77 231 79 234.5 L 80 239.5 L 74.5 246 L 69.5 247 L 66 244.5 Q 63 241.5 64 234.5 L 65 232.5 L 63 229.5 L 64.5 228 Z M 67 234 Q 66 241 71 244 L 71 243 Q 69 241 72 240 L 77 242 L 76 235 Q 73 233 67 234 Z M 72 244 L 73 246 Q 74 243 72 244 Z "></path><path d="M 259.5 238 L 261.5 239 Q 263 236.5 268.5 238 Q 272.7 239.3 272 245.5 Q 271 249 265.5 248 Q 260.5 245.5 265.5 243 L 267.5 246 Q 270.1 246.8 269 243.5 L 265.5 239 L 258.5 240 L 257 241.5 Q 253.7 245.2 255 253.5 L 258.5 259 L 268 261.5 L 264.5 263 L 261.5 262 L 258.5 262 L 253 256.5 Q 250.5 253 252 245.5 L 257.5 239 L 259.5 238 Z "></path><path d="M 170.5 249 L 171 251 L 175 253.5 Q 174.3 255.8 176.5 255 L 180 257.5 L 181 264.5 Q 179.1 268.6 173.5 269 L 171.5 267 L 166 266 L 163 258.5 L 165 252.5 L 167.5 250 L 170.5 249 Z M 171 253 Q 171 256 167 255 Q 166 262 170 265 L 170 262 L 173 260 Q 175 261 175 266 L 178 262 L 177 260 L 175 258 L 171 253 Z "></path><path d="M 95.5 252 L 98 253.5 Q 97.5 257.5 100.5 258 Q 105.6 257.4 107 260.5 Q 108.3 265.8 105.5 267 L 98.5 271 L 93 267.5 L 91 260.5 L 93 254.5 L 95.5 252 Z M 95 258 L 97 267 L 99 268 L 98 266 L 102 264 Q 103 268 105 265 L 102 260 L 97 260 Q 98 257 95 258 Z "></path><path d="M 224.5 274 L 228 275.5 L 226.5 277 L 224.5 274 Z "></path><path d="M 170 324 L 174 326.5 L 178 333.5 L 175 334 L 170 324 Z "></path><path d="M 178.5 335 L 183 338.5 L 184 341.5 Q 193.8 350.2 200.5 362 Q 207 368 220 367.5 L 209.5 368 L 200 365 L 201 368.5 L 199 369 L 196 358.5 Q 184.4 348.5 178.5 335 Z "></path><path d="M 122.5 343 Q 128.3 341.3 127 345 L 121 344.5 L 122.5 343 Z "></path><path d="M 221.5 367 L 224 367.5 L 221.5 368 L 221.5 367 Z "></path><path d="M 125 376 Q 127.7 374.9 127 377.5 L 127 379.5 L 126.5 381 Q 124 379.8 125 376 Z "></path><path d="M 162.5 377 L 163 379 L 165 379.5 Q 163 383 161 378.5 L 162.5 377 Z "></path><path d="M 124 383 L 128.5 385 L 140.5 386 L 143 387.5 L 134.5 388 Q 133.3 385.7 128.5 387 L 124 384.5 L 124 383 Z "></path><path d="M 169.5 384 L 173 386.5 Q 173.8 388.8 171.5 388 L 169.5 384 Z "></path><path d="M 126.5 391 L 128 397 L 125 395.5 Q 124.3 391.8 126.5 391 Z "></path><path d="M 322.5 399 L 323 405.5 L 319.5 411 Q 316.9 411.8 318 408.5 L 320 401.5 L 322.5 399 Z "></path><path d="M 126.5 406 Q 130.3 407.3 129 413.5 L 125.5 415 L 126 413.5 L 126.5 406 Z "></path><path d="M 233.5 414 Q 236.5 413.2 235 417 L 222.5 417 L 221.5 418 Q 218.5 416.5 221.5 415 L 232.5 415 L 233.5 414 Z "></path><path d="M 280.5 450 Q 283.1 449.3 282 452 Q 277.5 455.8 269 455 Q 267.6 451.3 273.5 453 L 280.5 450 Z "></path><path d="M 57.5 451 Q 59.8 450.3 59 452.5 L 56 454 L 57.5 451 Z "></path><path d="M 61.5 451 Q 64.5 450.2 63 454 Q 59.3 455.5 60 452.5 L 61.5 451 Z "></path><path d="M 72.5 478 L 74.5 478 L 79 480.5 L 80 482.5 Q 78.8 485.3 77.5 483 Q 75.5 480 69.5 481 L 67 482 L 68.5 479 L 72.5 478 Z "></path><path d="M 15.5 487 L 16 488.5 L 14 489.5 L 15.5 487 Z "></path><path d="M 267 499 L 269 499.5 L 266.5 503 L 266 501.5 L 267 499 Z "></path><path d="M 144.5 500 L 147 500.5 L 145.5 503 L 144.5 500 Z "></path><path d="M 156.5 500 L 157 501.5 L 154.5 505 L 155 503.5 L 156.5 500 Z "></path><path d="M 263 500 L 265 500.5 L 263 501.5 L 263 500 Z "></path><path d="M 318.5 500 L 317.5 502 L 318.5 500 Z "></path><path d="M 169.5 502 L 170 503.5 L 168 504.5 L 169.5 502 Z "></path><path d="M 312.5 502 Q 315.8 500.9 315 503.5 L 313.5 503 L 311.5 504 L 312.5 502 Z "></path><path d="M 191.5 504 L 190 506.5 L 189.5 508 L 189 505 L 191.5 504 Z "></path><path d="M 175 506 L 177 506.5 L 172.5 510 L 173.5 508 Q 176.1 508.7 175 506 Z "></path><path d="M 195.5 509 L 196 511.5 L 195 511.5 L 195.5 509 Z "></path><path d="M 286.5 517 L 285.5 519 L 286.5 517 Z "></path><path d="M 322 539 L 326 540.5 L 325 543 L 322 541.5 L 322 539 Z "></path><path d="M 342.5 544 L 343 545.5 L 343 547.5 L 342 552.5 L 344 558.5 L 342 557.5 L 341 550.5 L 342 548.5 L 341 545.5 L 342.5 544 Z "></path><path d="M 25.5 555 L 27.5 555 L 30.5 556 L 32.5 556 L 36.5 555 L 39 556.5 L 38 559.5 L 40 563.5 L 43 580 L 47 581 L 45.5 584 Q 38 585.5 35 582.5 L 37 579.5 L 35 570 L 26 570 L 26 573.5 L 22.5 583 Q 17.3 584.3 16 581.5 Q 15.3 579.3 17.5 580 L 19 578.5 L 25 558 L 23 557.5 L 25.5 555 Z M 31 559 L 27 566 Q 29 569 34 567 L 32 561 Q 33 558 31 559 Z "></path><path d="M 56.5 555 L 58.5 556 Q 60 553.5 65.5 555 L 69 556 Q 68 559 71 558 L 71 562.5 Q 68.3 566.6 63 566 L 64 560 L 57.5 559 L 54 561.5 L 53 569.5 L 57.5 576 L 68.5 578 L 70 579.5 L 66.5 584 L 63.5 583 L 60.5 584 L 52.5 582 L 47 576.5 Q 44.5 573 46 565.5 L 51.5 558 L 56.5 555 Z "></path><path d="M 76.5 556 L 86.5 556 L 87.5 557 L 92.5 556 L 95 562.5 L 94 566 L 90 563.5 Q 90.8 559.8 88.5 559 L 83 560 Q 81.8 564.6 84.5 566 L 86.5 563 L 88 563.5 L 88 570.5 L 85.5 572 L 83.5 569 L 83 579 Q 85.4 580.8 91.5 580 L 94 576 L 98 575 L 92.5 583 L 81.5 583 L 80.5 582 L 74 584 L 74 580 Q 76.7 581.1 76 578.5 L 77 577.5 L 77 559 Q 74.3 560.1 75 557.5 L 76.5 556 Z "></path><path d="M 230 556 Q 236.9 555 240 557 L 241.5 560 Q 244.1 559.2 243 562.5 L 250.5 572 L 251 558 Q 248 559 249 556 L 257.5 556 L 259 557.5 L 255 559 L 256 581.5 L 250.5 584 L 248 583 L 247 579.5 L 236.5 566 L 236 573.5 L 237 576.5 L 237 581 Q 239.7 579.9 239 582.5 Q 237.8 585.2 236.5 583 L 232.5 584 L 229 582.5 L 232 581 L 233 571.5 L 232 567.5 L 233 566.5 L 233 559 L 230 557.5 L 230 556 Z "></path><path d="M 268.5 556 L 269.5 557 L 281.5 557 L 289 561.5 Q 293.7 565.3 292 575.5 L 286.5 582 L 276.5 585 L 275.5 584 L 262 584 L 263.5 580 L 266 578.5 L 268 563.5 L 267 560 Q 263.7 561.1 265 557 L 268.5 556 Z M 275 560 L 275 573 L 276 574 L 275 579 L 279 581 L 282 580 L 284 575 L 284 569 L 282 562 L 282 560 L 275 560 Z "></path><path d="M 152.5 557 Q 158.5 555.5 160 558.5 L 160 561.5 L 165 573 L 170 569.5 L 175.5 562 L 180 564.5 L 185.5 573 L 190 559 Q 185.9 560.3 187 557 L 197.5 557 L 198 560 Q 194.2 559 193 561.5 L 187 579.5 L 189 582.5 L 186.5 584 L 182.5 583 L 180.5 583 Q 177.9 583.7 179 581 Q 184.2 583.1 183 578.5 L 175.5 568 L 169.5 577 Q 166.9 576.2 168 579.5 L 172 581 L 171.5 584 L 162 584 L 162 580.5 L 159 575.5 L 156 564.5 L 152.5 560 Q 148.8 561 150 558 L 152.5 557 Z "></path><path d="M 204 557 L 216.5 558 L 221 557 L 220 560.5 L 225 581 Q 228 580 227 583 L 217 583 L 217 576.5 L 216 572 L 210.5 571 L 207 572.5 L 205 581 Q 207.7 579.9 207 582.5 Q 205.5 585.5 199.5 584 L 197 583 L 204 569.5 L 204 566.5 L 207 560.5 L 204 559 L 204 557 Z M 213 561 L 209 569 L 215 570 L 214 563 L 213 561 Z "></path><path d="M 307.5 557 Q 313.8 555.3 315.5 558 L 319.5 557 Q 322.3 558.3 321 563.5 L 316.5 567 L 312.5 560 Q 305.5 558.5 306 561.5 L 306 563.5 L 309.5 568 L 311.5 567 Q 312.8 569.3 317.5 568 L 322 571.5 L 323 576.5 L 317.5 583 L 314.5 582 L 310.5 583 Q 309.3 580.8 304.5 582 L 297 584 L 297 580.5 L 302.5 574 Q 306.7 572.7 305 577.5 Q 307 580.5 312.5 580 L 316 579 L 317 573.5 L 314.5 570 L 310.5 571 L 307.5 570 L 302 568 L 301 562.5 L 302 560 L 307.5 557 Z "></path><path d="M 341.5 563 L 342 565 L 340 564.5 L 341.5 563 Z "></path><path d="M 119.5 573 Q 125.3 572.2 127 575.5 L 128 578.5 L 125.5 582 L 119.5 583 L 116 582 L 115 577.5 L 119.5 573 Z M 122 576 L 120 578 L 123 579 L 122 576 Z "></path><path d="M 340.5 590 L 340 591.5 L 341 593.5 L 339 592.5 L 340.5 590 Z "></path><path d="M 344.5 590 L 345 592.5 L 343 593.5 L 344.5 590 Z "></path></svg>