<svg width="350" height="600" version="1.1" xmlns="http://www.w3.org/2000/svg" desc="Created with imagetracer.js version 1.2.5"><path d="M 9.5 6 L 23.5 6 L 24.5 7 L 28.5 6 L 29.5 7 L 45.5 7 L 46.5 6 L 73.5 6 L 76.5 7 Q 78 4.5 83.5 6 L 84.5 7 L 99.5 7 L 100.5 6 L 119.5 6 L 120.5 7 L 184.5 7 L 185.5 6 L 217.5 6 L 219.5 7 L 221.5 7 L 237.5 7 L 239.5 8 L 241.5 7 L 242.5 8 L 279.5 8 L 280.5 7 L 327.5 7 L 328.5 6 L 332.5 7 L 334.5 6 L 336 8.5 L 335 9.5 L 335 19.5 L 336 21.5 L 335 23.5 L 335 25.5 L 334 149.5 Q 336.7 151.3 335 157.5 L 334 160.5 L 335 163.5 L 335 165.5 L 335 193.5 L 336 194.5 L 336 217.5 L 337 220.5 L 336 222.5 L 337 223.5 L 337 248.5 L 336 249.5 L 336 276.5 L 337 277.5 L 337 296.5 L 336 298.5 L 337 299.5 L 337 338.5 L 337 340.5 L 336 349.5 Q 338.2 350.7 337 355.5 L 336 356.5 L 336 370.5 L 337 371.5 L 338 395.5 L 339 396.5 L 338 399.5 L 339 400.5 L 339 411.5 L 338 412.5 L 338 481.5 L 339 482.5 L 339 508.5 Q 341.8 510.2 340 516.5 L 339 517.5 L 339 526.5 L 340 529.5 L 339 531.5 L 339 533.5 L 339 563.5 L 340 567.5 L 340 569.5 L 339 572.5 L 340 577.5 L 339 581.5 L 339 583.5 L 340 587.5 L 339 594 L 330.5 593 L 328.5 593 L 306.5 593 L 305.5 594 L 247.5 594 L 246.5 593 L 235.5 593 L 233.5 594 L 229.5 593 L 228.5 594 L 213.5 594 L 209.5 593 L 208.5 594 L 197.5 594 L 196.5 595 L 149.5 595 L 138.5 597 L 97.5 597 L 96.5 596 L 83.5 596 L 82.5 595 L 80.5 596 L 78.5 596 L 68.5 595 L 58.5 597 L 26.5 597 L 21.5 596 L 19.5 597 L 17.5 596 L 15.5 596 Q 7.3 597.1 4 595 L 4 545.5 L 5 544.5 L 6 521.5 L 6 519.5 L 5 516.5 L 5 467.5 Q 2.5 466 4 460.5 L 6 449.5 L 6 435.5 L 5 434.5 L 5 426.5 L 6 423.5 L 5 422.5 L 5 399.5 L 6 398.5 L 6 362.5 L 5 360.5 Q 7.8 358.8 6 352.5 L 5 349.5 L 6 348.5 L 6 232.5 L 7 231.5 L 7 206.5 L 6 205.5 L 6 195.5 L 7 192.5 L 6 191.5 L 6 147.5 L 7 146.5 L 7 121.5 L 6 120.5 L 6 109.5 L 7 106.5 Q 4.5 105 6 99.5 L 7 94.5 L 6 92.5 L 7 91.5 L 8 7.5 L 9.5 6 Z M 47 9 L 46 10 L 12 10 L 11 75 L 10 76 L 10 97 L 9 102 L 9 104 L 10 105 L 10 121 L 11 122 L 10 175 L 10 177 Q 8 178 9 183 L 9 185 L 10 186 L 10 205 L 10 207 L 11 212 L 10 214 L 10 231 L 10 233 L 9 235 L 10 237 L 9 238 L 9 263 L 10 266 L 9 272 L 9 274 L 10 276 L 9 278 L 10 282 L 10 284 L 9 286 L 10 288 L 9 292 L 9 294 L 9 316 L 10 317 L 9 318 L 9 352 L 8 353 L 9 360 L 9 362 L 8 364 L 9 366 L 9 368 L 8 370 L 9 375 L 9 377 L 8 379 L 9 381 L 8 385 L 9 390 L 8 393 L 9 401 L 9 403 L 8 405 L 9 407 L 8 411 L 8 434 L 9 435 Q 10 439 8 441 L 9 443 L 9 445 Q 11 451 8 453 L 8 477 L 10 478 L 11 475 L 12 456 L 15 444 L 16 427 L 19 413 L 20 395 L 21 394 L 21 384 L 25 363 L 25 353 L 26 352 Q 27 349 24 350 L 23 354 L 17 352 Q 19 344 14 343 Q 13 336 16 337 L 18 337 Q 18 334 23 334 Q 27 337 28 343 L 29 329 L 30 328 L 30 313 L 31 310 L 38 305 L 41 305 Q 42 301 39 302 L 36 298 L 36 293 L 39 292 L 44 296 Q 43 298 46 297 Q 44 294 45 288 Q 46 285 50 285 L 52 289 Q 54 295 51 297 Q 56 298 55 305 L 56 306 L 50 303 Q 47 302 49 301 L 48 300 L 45 305 L 49 310 L 49 316 L 44 324 L 44 333 L 41 343 L 39 362 L 37 369 L 38 373 L 38 371 L 42 369 L 43 373 L 44 371 Q 45 366 50 367 L 51 371 L 50 375 L 46 378 L 48 383 Q 51 384 47 386 L 45 386 L 41 382 L 40 384 Q 39 386 34 385 L 33 398 L 33 400 L 31 407 L 30 425 L 28 434 L 28 446 L 25 458 L 23 476 L 23 478 L 20 493 L 19 510 L 16 524 L 15 540 L 12 553 L 12 558 Q 16 557 15 560 L 18 561 Q 20 560 19 563 Q 21 565 26 564 L 27 560 L 31 559 L 33 561 Q 39 559 41 562 L 46 561 L 47 559 L 52 556 L 54 553 Q 57 547 65 546 Q 69 545 70 548 L 69 550 L 66 550 L 60 553 L 60 554 Q 63 553 62 556 L 55 560 L 55 564 L 61 569 L 64 568 L 68 568 L 78 572 L 78 570 L 79 570 Q 78 572 81 571 L 82 569 L 81 551 L 80 550 L 81 548 L 80 547 L 79 529 L 76 528 Q 75 525 78 526 L 77 504 L 75 498 Q 76 489 74 484 L 66 500 L 64 507 L 64 512 L 68 514 Q 69 518 66 521 L 67 527 L 70 528 L 73 527 Q 76 526 75 529 L 73 530 L 68 529 L 67 531 Q 72 530 73 533 Q 69 535 61 534 L 60 539 L 58 538 L 53 541 Q 50 542 51 540 L 49 541 Q 46 540 47 543 L 36 548 Q 31 546 32 550 L 27 552 Q 21 551 18 548 L 22 539 L 27 533 L 22 534 L 20 537 L 17 539 L 18 533 L 26 531 L 30 533 L 33 532 L 34 529 L 39 526 L 38 525 L 35 522 L 37 517 L 43 516 L 45 513 L 45 503 L 46 502 L 44 497 L 47 488 L 48 471 Q 52 463 53 452 L 61 435 L 66 431 L 65 420 L 62 418 L 61 422 Q 57 423 56 421 L 57 417 L 55 416 L 51 412 L 52 409 Q 57 408 60 411 Q 64 413 60 416 L 64 416 L 61 399 L 61 387 L 59 380 L 59 374 L 55 366 L 55 360 L 60 356 L 61 353 L 56 350 L 57 347 Q 59 342 61 345 L 62 345 L 59 336 L 65 335 L 69 342 L 68 346 L 70 345 L 75 346 L 76 350 L 69 353 L 74 359 L 74 362 Q 77 363 73 365 L 73 378 Q 76 383 75 393 L 77 392 Q 78 387 76 386 L 78 373 L 86 356 L 96 341 Q 98 335 105 334 L 107 334 L 108 331 L 106 327 Q 104 320 108 321 L 106 316 L 106 314 L 109 300 L 109 289 L 111 285 L 109 282 Q 107 275 110 274 Q 111 271 108 272 L 106 272 L 100 272 Q 98 267 93 268 L 91 265 Q 92 260 90 259 L 90 255 L 93 246 L 89 246 L 86 244 L 77 242 L 74 243 L 72 242 Q 69 243 70 241 Q 69 238 65 239 L 59 233 L 59 224 Q 62 222 62 217 L 80 187 L 77 185 L 78 181 Q 77 178 80 179 L 80 177 L 83 174 L 89 173 L 90 171 L 90 160 L 91 159 L 90 156 Q 87 151 82 150 L 81 154 Q 78 155 79 153 L 78 151 L 74 155 Q 70 156 69 154 L 70 150 L 70 153 L 74 152 L 71 147 L 68 146 L 70 145 L 69 144 L 70 142 L 74 143 L 78 149 L 82 148 L 77 142 Q 78 139 75 140 L 57 118 L 56 115 L 58 110 L 60 111 L 59 116 L 61 116 Q 60 113 63 112 L 62 109 L 60 110 Q 56 108 60 107 L 57 103 L 51 106 L 47 105 Q 43 104 44 100 L 48 97 L 54 101 L 49 90 L 49 83 L 52 83 L 57 92 L 55 95 L 56 97 L 60 91 Q 59 88 62 89 L 64 93 L 63 97 L 67 99 Q 68 103 65 103 Q 61 102 62 105 Q 64 108 66 104 L 69 105 Q 73 108 74 115 L 82 123 L 85 130 L 100 147 L 100 146 L 103 144 Q 104 147 106 145 L 110 148 Q 113 147 112 150 L 115 152 Q 114 155 117 154 L 119 158 L 117 164 L 117 168 L 120 174 L 128 186 L 151 213 Q 150 215 153 214 L 153 217 L 157 220 L 158 219 L 161 220 Q 162 223 164 221 L 166 222 Q 168 221 167 224 L 169 224 L 170 222 L 169 219 L 166 220 L 163 219 L 164 217 L 161 215 L 158 211 Q 159 208 163 209 L 162 208 L 164 204 Q 165 201 161 202 Q 157 202 158 198 L 161 199 L 163 197 L 169 198 Q 170 194 168 195 L 165 193 L 166 190 Q 170 189 171 192 L 176 185 L 183 180 L 186 180 L 188 180 L 191 179 L 193 179 L 200 181 L 203 183 L 206 187 L 208 186 L 213 187 Q 217 189 216 196 L 221 202 L 221 209 L 218 217 Q 219 219 216 218 L 211 233 Q 208 232 209 235 L 208 234 L 206 235 Q 202 234 203 237 L 201 237 L 194 236 L 196 246 L 191 249 L 188 248 L 184 249 L 178 248 L 181 253 Q 180 255 183 254 L 185 259 L 188 260 L 192 266 Q 191 268 194 267 L 195 271 L 200 273 L 212 290 L 219 281 L 220 284 L 218 288 L 213 292 L 217 297 Q 217 291 222 290 L 220 287 Q 223 281 231 281 L 231 278 L 227 269 Q 224 264 219 263 L 214 254 Q 212 251 206 252 L 202 252 L 196 257 Q 190 256 189 259 L 187 257 Q 189 253 195 254 L 200 249 L 197 243 L 203 245 L 206 249 L 208 248 L 215 250 L 221 259 L 227 262 L 231 268 L 232 274 L 236 275 L 241 282 L 242 297 Q 241 299 237 298 L 242 316 Q 241 318 244 317 L 245 322 L 251 324 L 257 342 L 265 346 L 266 349 L 264 353 L 268 357 L 276 356 L 278 359 L 278 364 Q 281 365 280 370 L 283 373 Q 282 378 284 380 L 283 382 L 286 383 L 297 399 Q 296 402 299 401 L 300 403 L 305 395 Q 304 392 308 393 L 308 402 L 306 402 L 308 406 L 305 410 L 311 419 Q 317 426 325 430 Q 327 432 326 438 L 323 440 L 321 444 L 318 446 L 311 443 L 309 435 Q 306 436 307 441 Q 310 442 306 444 L 307 449 Q 306 451 302 450 L 299 441 L 297 445 L 302 472 L 303 487 L 305 492 L 305 499 L 307 500 L 306 492 L 311 488 L 313 489 L 311 492 L 311 497 Q 315 495 314 499 L 315 500 L 312 503 L 309 503 L 312 501 Q 313 498 310 499 L 306 504 L 307 515 L 313 513 Q 316 514 315 511 Q 310 512 308 509 L 312 506 Q 318 508 316 502 L 324 500 Q 327 499 326 503 L 323 505 L 332 505 L 332 507 L 319 507 L 320 510 L 326 508 L 334 508 L 334 510 Q 325 509 319 512 L 331 512 L 333 515 L 330 515 L 328 515 L 320 514 L 318 517 L 334 517 L 336 518 L 335 512 L 336 507 L 335 504 L 336 502 L 336 492 L 335 491 L 336 489 L 335 487 L 335 464 L 334 463 L 335 462 L 335 447 L 335 445 L 336 439 L 336 437 Q 334 433 335 426 L 335 424 L 336 419 L 336 396 L 335 395 L 335 385 L 334 384 L 334 373 L 333 372 L 333 334 L 334 333 L 334 319 L 333 318 L 334 316 L 334 308 L 333 307 L 333 290 L 334 289 L 333 287 L 333 277 L 334 276 L 333 271 L 333 269 L 334 267 L 333 265 L 333 248 L 334 247 L 333 235 L 333 233 L 334 230 L 333 227 L 333 197 L 332 196 L 332 174 L 333 173 L 332 172 L 332 135 L 332 133 L 332 113 L 331 112 L 331 104 L 332 103 L 332 93 L 331 92 L 332 36 L 333 35 L 332 26 L 332 24 L 333 22 L 333 20 L 332 19 L 332 9 L 319 9 L 318 10 L 288 9 L 286 9 Q 278 12 266 10 L 265 11 L 257 11 L 256 10 L 254 11 L 252 10 L 250 11 Q 245 12 244 10 L 242 11 L 230 10 L 229 9 L 227 10 L 225 9 L 200 9 L 199 10 L 198 9 L 173 9 L 169 9 L 165 10 Q 163 7 157 9 L 155 9 L 147 9 L 146 10 L 142 9 L 140 9 L 123 9 L 122 10 L 119 9 L 117 9 Q 111 8 110 10 L 108 9 L 106 9 L 91 9 L 90 10 L 89 9 L 47 9 Z M 52 86 Q 49 91 53 93 L 55 92 L 52 86 Z M 60 92 L 58 97 L 62 94 Q 63 91 60 92 Z M 60 98 L 61 101 L 62 99 L 60 98 Z M 64 98 L 62 100 Q 64 103 65 100 Q 66 97 64 98 Z M 46 100 L 48 103 Q 52 104 51 101 L 46 100 Z M 64 107 L 64 110 L 66 110 Q 65 113 68 112 L 69 116 L 71 115 L 72 116 L 69 120 L 70 122 L 71 119 L 74 118 L 70 110 Q 69 106 64 107 Z M 73 118 L 71 122 L 72 124 L 74 121 L 73 118 Z M 76 120 L 73 125 L 74 126 L 75 124 Q 79 122 76 120 Z M 77 122 L 76 127 Q 77 129 74 128 L 76 131 L 80 126 L 80 124 L 77 122 Z M 71 126 L 71 128 L 73 127 L 71 126 Z M 81 127 L 77 132 L 78 134 L 80 131 Q 79 128 82 129 L 79 137 L 83 134 L 87 138 L 85 143 L 89 141 L 88 147 L 89 147 Q 88 144 91 145 L 91 143 L 93 143 L 83 129 Q 84 126 81 127 Z M 94 143 L 93 147 L 94 147 L 94 143 Z M 71 145 Q 70 147 74 147 L 75 149 L 75 146 L 71 145 Z M 103 147 L 101 149 L 102 151 L 101 150 L 100 153 L 103 152 L 103 147 Z M 97 148 L 95 150 Q 94 153 97 154 L 98 152 L 97 148 Z M 107 148 L 105 152 L 106 156 L 108 152 L 107 148 Z M 110 152 L 108 160 L 109 162 L 112 155 Q 113 151 110 152 Z M 99 156 L 100 158 Q 101 155 99 156 Z M 115 157 L 113 159 L 114 161 L 112 165 Q 111 167 114 166 L 116 163 Q 117 156 115 157 Z M 101 158 L 101 160 L 103 159 L 105 162 L 105 160 L 101 158 Z M 95 162 L 91 171 L 92 175 L 99 180 L 101 175 Q 105 174 107 177 L 110 176 L 113 170 L 110 172 L 103 171 L 100 175 L 96 176 L 97 173 L 96 173 L 94 173 L 96 172 L 94 169 L 96 165 L 95 162 Z M 104 162 L 102 164 L 104 164 L 104 162 Z M 97 166 Q 98 169 96 168 L 96 169 L 99 168 Q 100 165 97 166 Z M 104 166 L 104 168 L 106 167 L 104 166 Z M 97 170 L 97 172 L 99 171 L 97 170 Z M 115 173 L 113 175 L 115 175 L 115 173 Z M 117 173 L 116 176 L 117 176 L 117 173 Z M 86 176 L 80 181 Q 79 184 82 183 Q 83 181 84 184 Q 78 197 69 208 L 62 223 L 62 229 L 64 232 L 75 238 L 78 233 L 81 231 Q 83 232 81 234 L 82 237 Q 80 238 83 239 L 88 231 L 89 237 L 90 233 Q 89 230 92 231 L 91 237 Q 90 241 93 242 L 94 234 L 97 236 L 96 237 L 96 243 Q 99 244 98 237 L 102 235 L 101 239 L 102 244 L 103 239 Q 102 235 106 237 L 104 247 L 108 249 L 109 234 L 110 233 Q 111 224 109 220 Q 107 216 106 220 L 102 218 L 99 219 L 98 216 L 95 221 Q 92 220 94 219 L 94 217 L 91 221 L 87 223 L 87 220 L 83 222 L 85 217 L 82 216 Q 80 212 84 213 L 85 216 L 86 216 Q 85 213 88 214 L 88 212 L 83 210 L 85 207 L 89 210 Q 91 211 90 208 L 85 206 L 87 203 L 87 205 L 91 206 Q 95 202 95 194 L 92 192 L 93 188 L 90 186 L 88 184 L 87 184 L 85 181 Q 96 181 102 187 L 102 185 L 100 182 L 97 182 L 86 176 Z M 120 176 L 117 179 Q 116 182 119 181 L 120 179 L 120 176 Z M 104 178 L 102 180 L 105 187 L 102 189 L 99 192 L 98 200 L 93 213 L 96 211 Q 102 210 103 214 Q 105 215 104 212 L 107 211 L 116 216 L 120 215 L 125 216 Q 128 215 126 219 L 121 217 L 122 220 L 121 223 L 115 218 L 113 219 Q 117 223 115 234 L 115 236 L 111 256 L 104 268 L 114 269 L 115 267 L 115 264 L 112 268 L 109 267 L 110 264 L 115 260 L 116 264 L 118 259 L 114 258 L 120 246 L 119 245 L 119 231 L 119 229 L 124 226 L 122 251 L 120 255 L 121 256 L 123 253 L 127 241 Q 129 234 126 233 L 127 229 L 130 227 L 129 223 L 129 219 Q 126 220 127 217 L 129 217 Q 131 218 130 215 L 134 216 L 134 215 L 128 208 L 127 209 L 125 208 L 123 204 L 120 211 L 116 209 L 116 202 L 113 202 Q 108 200 109 194 L 112 193 L 116 194 L 104 178 Z M 120 179 L 119 184 Q 118 187 121 186 L 123 183 L 122 181 Q 123 178 120 179 Z M 197 182 L 198 183 L 200 186 L 200 184 L 197 182 Z M 123 183 L 122 187 Q 121 189 124 188 L 125 186 Q 126 182 123 183 Z M 197 185 L 196 187 L 198 188 L 197 185 Z M 125 186 L 124 191 L 127 189 Q 128 185 125 186 Z M 187 188 Q 185 191 188 190 L 187 188 Z M 129 189 Q 127 192 130 191 L 129 189 Z M 194 189 L 193 191 L 197 197 L 198 197 L 196 190 L 194 189 Z M 213 189 L 211 192 L 214 192 L 213 189 Z M 132 192 L 129 196 L 131 197 Q 130 194 133 195 L 132 192 Z M 127 194 L 125 196 L 126 198 L 127 196 L 127 194 Z M 178 194 L 176 196 L 178 197 L 178 194 Z M 111 195 L 115 200 Q 119 201 117 196 L 111 195 Z M 119 195 Q 117 198 120 197 L 119 195 Z M 134 195 L 131 200 Q 134 201 133 199 L 135 200 L 134 203 L 137 201 L 134 195 Z M 187 195 L 183 196 L 175 210 L 173 214 Q 172 218 175 220 Q 172 221 174 228 L 177 229 L 183 236 L 187 235 L 190 237 L 187 238 Q 182 239 181 237 Q 178 238 179 235 L 176 233 L 172 225 L 170 228 L 166 230 L 166 235 L 168 238 L 172 239 L 174 243 L 182 247 L 185 246 L 189 242 L 194 233 L 201 227 L 203 225 L 206 218 Q 208 219 207 216 L 207 214 L 209 205 L 203 204 L 202 198 L 201 198 Q 202 202 197 200 Q 194 199 195 195 Q 192 194 193 197 L 190 195 L 187 195 Z M 176 200 L 175 202 L 177 203 L 176 200 Z M 124 201 L 124 205 L 126 206 L 124 201 Z M 137 202 Q 138 206 135 205 Q 133 210 139 208 L 141 205 L 137 202 Z M 211 202 L 210 205 L 211 205 L 211 202 Z M 121 203 L 118 207 Q 120 210 121 207 L 121 203 Z M 143 206 L 140 210 L 138 209 L 135 210 L 136 212 L 139 211 L 137 215 L 138 218 L 141 219 L 144 218 L 146 215 L 145 211 L 143 214 L 140 213 L 142 212 L 143 210 L 143 206 Z M 148 215 L 142 223 Q 145 224 144 221 Q 148 222 149 219 L 148 215 Z M 149 219 L 149 222 L 145 225 L 146 227 L 148 226 L 151 222 Q 152 218 149 219 Z M 209 219 L 209 221 L 211 220 L 209 219 Z M 134 220 L 133 223 L 133 225 Q 134 228 131 227 L 132 231 L 132 243 L 129 252 Q 121 262 117 276 L 115 277 Q 112 276 113 280 L 116 282 L 114 290 L 114 302 L 111 315 L 112 319 L 110 324 L 113 329 L 112 331 L 106 335 L 93 352 L 85 368 L 80 391 L 85 389 L 100 391 L 103 394 L 105 393 L 113 398 L 123 397 L 126 395 Q 130 385 139 378 L 140 371 L 146 362 L 150 360 L 153 361 L 156 359 L 153 369 L 150 368 L 151 366 L 151 363 L 144 371 L 141 382 L 125 402 L 125 405 L 129 406 L 132 405 Q 138 404 140 406 L 141 404 L 143 405 Q 150 399 155 390 Q 158 372 166 360 Q 165 357 168 358 Q 169 354 171 358 L 167 365 L 162 378 L 161 385 L 155 397 L 145 407 L 145 408 L 151 406 Q 154 405 153 408 L 158 408 L 164 405 Q 167 403 167 399 L 174 394 L 186 389 L 188 390 L 191 389 L 193 391 L 194 392 L 199 392 L 199 394 L 201 394 L 196 380 L 193 378 L 189 369 L 177 353 L 173 355 L 169 353 L 173 349 Q 174 351 175 349 Q 174 345 177 346 L 185 328 L 186 309 L 189 301 L 195 292 L 187 282 Q 188 279 185 280 L 177 268 Q 174 269 175 266 L 173 266 L 169 272 L 168 277 L 164 283 L 160 286 L 153 282 L 154 272 L 156 269 L 156 264 L 160 255 L 158 251 L 159 247 L 154 244 L 138 221 L 137 221 L 139 225 L 138 228 L 138 243 L 135 250 L 132 249 L 134 245 Q 133 239 135 238 L 134 220 Z M 153 222 L 149 228 Q 145 230 150 232 L 150 231 L 149 230 L 154 225 Q 157 227 152 230 L 154 231 L 156 228 L 157 227 L 153 222 Z M 160 223 Q 157 227 161 226 L 163 229 L 163 225 L 160 223 Z M 209 227 L 208 231 L 209 231 L 209 227 Z M 156 230 L 155 233 L 157 235 L 159 232 Q 160 228 156 230 Z M 161 232 L 159 235 L 159 237 L 157 240 Q 156 242 159 241 L 162 235 L 161 232 Z M 153 233 L 152 235 L 154 234 L 153 233 Z M 162 235 L 162 239 L 164 239 L 165 237 L 162 235 Z M 155 236 L 153 240 L 155 239 L 155 236 Z M 166 238 L 162 244 L 164 246 L 166 241 L 166 238 Z M 161 240 L 161 243 Q 164 242 161 240 Z M 168 241 L 166 245 L 164 248 L 166 249 Q 165 246 168 247 L 168 245 L 170 245 L 168 241 Z M 171 245 L 170 248 L 172 249 L 171 245 Z M 173 249 L 173 252 L 175 251 Q 176 248 173 249 Z M 163 250 Q 161 254 163 256 L 162 261 L 158 267 L 156 276 L 159 280 L 161 280 Q 160 277 163 278 L 167 266 L 171 263 Q 172 260 169 261 L 164 255 L 163 250 Z M 170 250 L 168 253 L 170 252 L 170 250 Z M 176 251 L 175 253 L 171 254 L 173 258 L 173 257 L 177 255 Q 180 253 176 251 Z M 101 252 L 102 254 Q 103 251 101 252 Z M 178 255 Q 179 258 176 257 L 175 260 Q 174 262 177 261 L 180 257 Q 181 254 178 255 Z M 100 256 L 99 259 L 100 259 L 100 256 Z M 182 258 L 178 264 L 180 266 L 183 262 L 182 258 Z M 101 262 L 100 265 L 101 265 L 101 262 Z M 185 262 L 183 264 L 184 266 L 186 265 L 185 262 Z M 188 265 L 186 269 L 189 269 L 188 265 Z M 184 266 L 182 269 L 185 274 L 186 274 L 185 270 L 184 266 Z M 190 270 L 190 272 L 192 273 Q 193 269 190 270 Z M 193 273 L 192 275 L 194 276 L 193 273 Z M 197 275 L 194 279 L 191 280 L 193 282 L 198 278 L 197 275 Z M 200 278 L 197 283 L 194 285 L 197 286 L 200 281 L 200 278 Z M 235 279 L 234 282 Q 233 284 229 283 L 230 285 Q 234 286 235 284 L 235 279 Z M 202 281 L 201 283 Q 197 285 202 287 L 203 285 L 202 281 Z M 205 285 L 202 291 L 206 288 L 205 285 Z M 223 285 L 223 287 L 225 286 L 223 285 Z M 238 287 L 236 289 Q 230 288 229 291 L 227 290 L 222 296 Q 221 298 224 297 L 225 294 L 228 293 L 233 293 Q 235 296 239 295 L 238 287 Z M 199 288 L 198 291 L 199 291 L 199 288 Z M 206 288 L 206 290 Q 204 291 207 292 L 208 290 Q 209 287 206 288 Z M 49 289 L 48 294 L 49 294 L 49 289 Z M 200 291 L 199 293 L 201 294 L 200 291 Z M 209 291 L 206 295 L 208 295 Q 212 293 209 291 Z M 205 293 L 202 296 L 203 298 L 205 295 L 205 293 Z M 211 293 Q 209 296 212 297 L 213 297 L 211 293 Z M 197 294 L 196 296 L 196 297 Q 198 296 197 300 L 199 299 L 197 294 Z M 40 295 L 38 298 L 42 300 L 43 298 L 40 295 Z M 207 297 L 204 300 Q 203 302 206 301 L 207 299 L 207 297 Z M 214 297 L 213 300 L 215 301 L 214 297 Z M 222 297 L 221 299 L 218 301 L 221 301 L 222 302 L 222 297 Z M 209 299 L 209 301 L 211 300 L 209 299 Z M 234 301 L 231 304 Q 230 308 234 309 Q 236 308 235 311 L 231 314 L 232 318 L 247 336 Q 246 338 249 337 L 252 343 L 255 345 L 248 329 Q 249 326 246 327 L 246 325 L 245 325 L 240 320 L 236 309 L 236 304 L 234 301 Z M 216 302 L 214 304 L 216 307 Q 220 305 217 304 Q 218 301 216 302 Z M 201 303 L 199 309 L 202 308 Q 204 307 203 310 L 204 310 L 203 305 Q 204 302 201 303 Z M 219 305 L 214 313 L 220 308 L 219 305 Z M 194 307 L 190 317 L 191 320 L 186 339 L 181 346 L 181 350 L 196 368 L 203 382 Q 203 389 207 394 Q 209 400 205 402 L 215 426 L 216 433 L 216 435 L 218 451 L 223 465 L 225 477 L 228 476 L 233 486 Q 234 492 231 494 L 231 499 L 234 503 L 234 506 L 238 514 Q 240 518 242 515 L 250 517 L 251 520 L 253 521 L 250 513 L 243 477 L 238 465 L 237 452 L 233 441 L 233 432 L 230 426 L 229 406 L 226 401 L 225 389 L 221 379 L 222 376 L 220 375 L 219 372 L 221 369 L 219 370 L 215 368 L 219 363 L 219 355 L 220 354 Q 219 350 223 352 L 225 359 L 228 361 L 226 367 Q 227 370 234 369 L 238 375 L 238 383 L 237 384 L 242 401 L 243 417 L 248 431 L 249 424 L 251 422 L 254 424 L 253 430 L 256 431 L 255 435 Q 256 437 253 436 L 251 436 L 248 437 L 251 443 L 253 456 L 260 479 L 266 521 L 270 536 L 273 535 Q 279 536 283 539 L 286 535 L 294 537 L 293 532 L 293 514 L 291 511 L 291 503 L 290 502 L 291 499 L 289 493 L 289 488 Q 287 484 285 489 Q 281 490 280 488 L 282 484 Q 281 480 285 482 L 285 481 L 284 481 L 278 480 L 277 478 Q 277 473 281 471 L 283 475 L 286 476 L 283 459 L 282 439 L 280 436 Q 281 431 279 430 L 280 425 L 283 421 L 279 423 L 277 422 L 275 420 Q 276 415 282 416 L 279 414 L 280 407 L 286 410 L 285 416 L 291 414 L 293 418 L 290 420 Q 287 419 288 422 L 290 421 L 292 421 L 296 426 L 295 431 L 297 435 L 298 441 L 299 436 L 303 434 L 305 435 L 305 434 L 305 432 L 285 404 L 267 383 Q 268 380 265 381 L 264 376 L 262 379 L 256 377 L 252 371 L 248 372 L 246 369 L 242 367 L 241 364 L 239 362 L 237 362 L 232 359 L 224 347 L 223 341 L 220 335 L 213 325 Q 209 328 202 327 L 198 318 Q 200 313 196 314 Q 193 312 194 307 Z M 230 307 L 228 310 L 230 309 L 230 307 Z M 221 308 L 218 312 L 219 313 L 222 311 L 221 308 Z M 39 310 L 37 312 L 39 312 L 39 310 Z M 41 310 L 40 313 L 41 313 L 41 310 Z M 42 310 L 41 319 L 44 319 L 44 311 L 42 310 Z M 206 310 L 206 314 L 202 315 L 203 319 L 203 318 L 206 316 L 208 313 Q 209 309 206 310 Z M 35 311 L 33 313 L 34 318 L 35 314 L 35 311 Z M 223 311 L 220 314 Q 219 316 222 315 L 223 313 L 223 311 Z M 218 313 L 216 316 L 218 315 L 218 313 Z M 224 313 Q 221 317 225 316 L 224 313 Z M 227 316 Q 227 319 225 318 L 222 323 L 226 325 L 227 323 Q 223 324 224 321 L 227 319 L 227 316 Z M 219 317 L 220 319 Q 221 316 219 317 Z M 35 318 L 33 320 L 33 327 L 35 327 L 36 328 L 34 325 L 36 324 L 34 323 L 35 320 L 35 318 Z M 229 319 L 229 322 Q 232 321 229 319 Z M 231 321 L 230 323 L 226 326 L 227 327 L 231 325 L 232 325 L 229 331 L 235 327 L 231 321 Z M 39 322 L 39 324 L 41 323 L 39 322 Z M 237 326 L 234 332 L 231 334 L 233 335 L 238 330 L 238 332 L 238 334 L 235 338 L 242 333 L 237 326 Z M 32 328 L 32 332 L 35 333 Q 36 330 33 331 L 34 329 L 32 328 Z M 37 330 L 35 336 L 32 338 L 37 339 L 36 336 L 39 334 L 37 330 Z M 31 333 L 31 335 L 34 335 L 31 333 Z M 243 333 L 240 337 L 242 339 L 245 337 L 243 333 Z M 246 337 L 244 339 Q 245 341 243 340 L 244 342 L 247 340 L 246 337 Z M 22 338 L 23 342 L 24 342 Q 25 337 22 338 Z M 31 338 Q 29 343 32 343 Q 34 344 32 346 L 34 352 L 33 355 L 28 354 L 28 352 L 27 360 L 28 360 Q 26 355 31 356 Q 33 357 31 359 L 34 363 Q 37 364 36 361 L 33 359 L 36 354 L 35 351 L 36 350 L 35 347 Q 37 348 36 346 L 36 344 Q 37 339 34 340 L 34 342 L 31 341 L 31 338 Z M 62 338 L 63 343 Q 67 345 66 341 L 62 338 Z M 240 339 L 238 341 L 240 344 L 240 343 Q 238 341 241 340 L 240 339 Z M 15 340 L 17 343 Q 20 344 19 341 L 15 340 Z M 248 340 L 247 342 Q 247 345 242 345 L 243 347 L 249 343 L 248 340 Z M 251 343 Q 251 346 248 345 L 245 350 L 246 351 L 248 350 L 250 347 Q 253 346 252 349 L 249 350 L 248 353 L 249 354 Q 250 350 255 351 L 251 343 Z M 22 346 L 20 348 L 21 352 Q 23 351 21 350 L 22 348 L 22 346 Z M 30 346 L 28 348 L 30 348 L 30 346 Z M 61 347 L 58 350 L 61 351 L 62 349 Q 63 346 61 347 Z M 70 347 Q 69 350 72 349 Q 73 346 70 347 Z M 29 349 L 28 352 L 29 352 L 29 349 Z M 256 351 L 254 354 L 252 355 Q 249 357 252 358 L 257 354 Q 259 355 258 353 L 256 351 Z M 259 354 L 256 359 Q 253 358 254 362 L 260 357 L 260 361 L 263 360 L 263 362 L 260 364 L 258 367 L 261 365 L 263 366 L 266 364 Q 264 358 259 354 Z M 65 355 L 64 362 L 65 363 L 68 357 L 65 355 Z M 220 355 L 221 361 L 222 361 Q 224 354 220 355 Z M 69 358 L 67 362 Q 66 365 70 363 L 69 358 Z M 271 358 L 269 360 L 273 361 Q 274 367 271 370 L 272 372 L 275 365 L 274 360 Q 275 357 271 358 Z M 62 360 L 61 363 L 63 363 L 64 361 L 62 360 Z M 59 361 L 57 363 L 60 366 L 61 364 L 61 362 L 59 361 Z M 27 362 Q 24 368 29 366 Q 30 363 27 364 L 27 362 Z M 64 363 L 61 368 L 60 371 L 62 374 L 62 385 L 63 386 L 64 405 L 67 419 L 71 412 L 68 413 L 71 407 L 73 408 L 71 411 L 73 410 L 74 411 L 72 414 L 77 416 L 75 410 L 72 389 L 70 390 L 68 387 L 69 385 L 68 383 L 69 380 L 67 379 L 67 377 L 66 379 L 64 379 L 67 373 L 65 374 L 65 373 L 64 370 L 67 365 L 67 363 L 65 366 L 62 368 L 64 365 L 64 363 Z M 252 363 L 252 366 Q 251 368 254 367 L 256 374 L 260 376 L 265 373 Q 268 374 266 370 L 263 372 L 260 372 L 252 363 Z M 218 365 L 218 367 L 221 367 L 218 365 Z M 267 365 L 264 367 L 262 370 L 267 367 L 269 368 L 270 368 L 267 365 Z M 31 366 L 33 368 Q 34 365 31 366 Z M 67 366 L 67 368 L 69 369 Q 70 365 67 366 Z M 26 367 Q 25 371 28 370 Q 29 366 26 367 Z M 276 367 L 272 374 L 273 375 L 278 368 L 276 367 Z M 25 371 L 25 376 L 29 377 L 31 373 Q 30 370 25 371 Z M 48 371 L 46 374 L 48 373 L 48 371 Z M 225 371 L 223 375 L 227 374 L 224 378 L 228 382 L 231 377 Q 230 374 234 375 L 233 374 Q 234 371 231 372 L 228 379 L 226 379 L 228 375 L 229 373 L 226 373 Q 227 370 225 371 Z M 69 372 L 67 376 L 69 376 L 69 372 Z M 279 372 L 276 375 L 276 380 L 274 380 L 274 382 L 272 385 L 276 383 Q 278 382 277 386 L 280 384 L 281 385 L 277 388 Q 278 385 275 386 L 278 391 L 284 387 L 284 390 L 281 392 Q 278 391 279 394 L 282 396 Q 281 392 284 393 L 286 392 L 283 396 L 287 402 L 292 399 L 291 395 L 287 400 L 286 400 Q 286 395 289 395 L 289 392 L 284 385 L 277 380 L 279 374 L 279 372 Z M 37 373 L 35 381 L 38 382 L 39 379 L 37 373 Z M 33 375 L 32 378 L 33 378 L 33 375 Z M 25 376 L 24 382 L 27 382 L 27 381 Q 24 382 25 379 L 28 379 L 25 376 Z M 268 376 L 268 380 L 271 378 L 268 376 Z M 32 378 L 30 383 L 31 387 L 32 384 L 32 378 Z M 45 378 L 43 380 Q 42 384 46 382 L 45 378 Z M 233 378 L 231 380 L 234 380 L 233 378 Z M 230 381 L 228 385 L 230 384 L 230 381 Z M 272 381 L 271 383 L 273 382 L 272 381 Z M 24 382 L 22 390 L 23 392 L 22 400 L 24 399 L 25 408 L 26 406 L 27 394 L 26 394 L 24 392 L 25 389 L 24 387 L 25 385 L 27 386 L 28 387 L 28 382 L 27 385 L 24 382 Z M 71 383 L 69 386 L 71 386 L 71 383 Z M 232 383 L 228 387 Q 227 394 230 398 L 233 394 L 237 395 L 235 389 L 232 390 L 233 393 L 231 394 L 229 391 L 230 386 L 233 385 Q 234 382 232 383 Z M 29 390 Q 28 394 31 393 Q 32 389 29 390 Z M 85 394 L 81 398 L 78 406 L 80 421 L 80 423 L 83 435 L 83 441 L 85 442 L 85 439 L 87 439 L 104 418 Q 106 419 105 416 L 113 411 L 117 405 L 117 402 L 115 405 L 113 403 L 109 404 L 111 404 L 113 408 L 108 405 L 109 408 L 109 409 L 107 407 L 102 403 L 105 408 Q 107 407 106 410 L 108 412 L 103 408 L 98 405 L 99 407 Q 98 409 101 408 L 106 415 L 95 406 L 95 408 L 103 417 L 102 417 L 98 413 L 92 408 L 92 410 L 98 416 L 98 417 L 91 412 L 90 408 L 88 409 L 91 414 Q 90 416 93 415 L 93 417 L 96 419 L 95 419 L 93 419 L 96 423 L 93 420 Q 90 421 91 419 L 88 416 L 84 411 L 83 415 L 93 423 L 94 425 L 85 418 Q 82 417 83 420 L 89 426 L 81 419 L 82 418 L 81 414 L 82 412 L 81 403 L 82 403 Q 81 406 84 405 Q 82 403 83 398 L 86 399 L 86 397 L 86 395 L 85 394 Z M 87 394 L 87 396 L 89 397 Q 90 393 87 394 Z M 30 395 L 30 399 L 30 398 Q 32 396 30 395 Z M 234 395 L 232 398 Q 229 397 230 401 L 234 398 L 233 400 Q 234 402 231 401 Q 230 405 233 404 L 235 401 L 234 395 Z M 94 396 L 96 399 Q 97 395 94 396 Z M 185 396 L 182 397 L 180 402 L 182 402 L 185 398 L 185 396 Z M 189 396 L 187 398 L 188 400 L 189 398 L 189 396 Z M 192 396 L 190 398 L 191 400 L 193 397 L 192 396 Z M 195 396 Q 192 400 196 399 L 195 396 Z M 91 397 L 91 400 Q 94 401 93 399 L 91 397 Z M 100 397 L 106 404 L 106 401 L 100 397 Z M 89 398 L 87 400 L 88 402 L 90 401 L 89 398 Z M 180 398 Q 177 399 177 403 L 176 403 L 177 400 L 176 399 L 173 406 L 172 406 L 173 401 L 169 404 L 176 416 L 190 434 L 192 441 Q 195 442 194 440 L 195 440 L 194 442 L 195 445 L 195 454 L 194 455 L 196 466 L 204 478 Q 203 480 207 479 L 208 484 L 213 487 L 216 485 L 223 486 L 222 485 Q 223 477 220 478 L 219 484 L 218 484 L 221 475 L 221 472 L 218 473 L 217 482 L 215 483 L 219 467 L 219 465 L 218 462 L 216 469 L 215 469 L 216 466 L 216 462 L 214 469 L 212 470 L 213 467 L 213 464 L 210 470 L 209 470 Q 209 463 212 461 Q 213 458 210 459 L 208 466 L 207 466 L 210 457 L 207 456 L 205 463 L 203 463 L 206 458 L 209 448 Q 210 444 207 445 L 206 450 L 205 450 L 209 437 L 212 435 Q 213 430 211 429 L 209 432 L 211 433 L 210 433 L 206 440 L 205 440 L 205 436 L 208 432 Q 209 429 207 430 L 205 434 L 204 434 Q 203 429 206 429 Q 207 424 203 426 L 203 430 L 198 442 L 197 449 L 196 449 L 196 445 L 206 417 L 205 413 Q 205 417 202 419 Q 203 422 201 421 L 201 420 Q 202 417 200 418 L 198 421 L 197 421 L 198 417 L 200 417 L 202 416 Q 204 417 203 413 Q 199 411 200 415 L 198 413 L 196 415 L 194 415 L 196 412 Q 197 409 195 410 Q 190 413 190 421 L 189 421 L 190 413 L 192 409 L 194 405 L 194 400 Q 190 402 191 408 L 189 410 L 188 416 L 187 416 L 188 408 L 186 409 L 185 406 L 189 407 L 191 402 L 188 401 L 187 405 L 186 404 L 187 402 Q 184 401 185 404 Q 183 407 182 403 L 180 405 L 178 405 L 181 399 L 180 398 Z M 294 398 Q 294 401 291 400 L 288 405 Q 287 408 290 407 L 291 405 L 294 403 L 295 403 Q 296 405 293 404 L 293 407 L 291 407 Q 290 412 295 413 L 295 412 L 296 410 Q 293 411 294 408 Q 295 405 297 407 L 298 405 L 294 398 Z M 99 399 Q 97 402 101 404 L 102 403 L 99 399 Z M 199 399 L 196 400 L 194 407 Q 193 410 196 409 L 200 402 Q 201 398 199 399 Z M 22 400 L 18 431 L 17 432 L 17 440 L 12 469 L 11 488 L 8 503 L 8 518 L 9 519 L 8 528 L 12 529 Q 14 530 13 527 Q 10 525 14 524 L 14 520 Q 11 521 12 519 L 15 520 L 14 518 Q 15 514 12 515 L 13 512 L 15 513 L 16 517 L 17 513 L 15 511 L 11 510 L 12 506 L 12 504 L 14 489 L 16 484 L 14 481 L 14 479 L 16 480 L 15 478 L 17 475 L 16 471 Q 19 469 17 468 L 19 464 L 17 464 L 21 458 L 21 455 L 25 452 L 25 444 L 24 442 Q 21 443 22 447 L 24 446 L 24 449 L 22 448 L 20 457 L 18 452 L 19 450 Q 20 447 17 448 Q 15 440 20 439 L 18 438 L 19 434 L 20 436 L 20 422 L 21 421 L 20 419 L 22 411 L 22 400 Z M 85 400 L 86 404 Q 88 403 86 402 Q 87 399 85 400 Z M 95 400 L 94 403 L 97 404 L 95 400 Z M 92 401 L 91 404 L 93 405 L 92 401 Z M 239 401 L 238 404 L 239 404 L 239 401 Z M 89 403 Q 86 407 90 406 L 89 403 Z M 201 403 L 199 407 Q 201 410 202 407 L 201 403 Z M 235 403 L 232 406 L 233 408 L 235 405 L 235 403 Z M 86 405 Q 83 409 87 408 L 86 405 Z M 236 405 L 234 408 Q 233 410 236 409 L 235 411 L 236 413 L 235 416 L 238 414 L 236 405 Z M 239 406 L 238 409 L 239 409 L 239 406 Z M 299 406 L 296 410 L 299 411 L 301 410 L 301 411 Q 298 410 299 413 Q 298 415 297 413 L 295 414 L 298 417 L 300 417 L 304 413 L 301 408 L 299 406 Z M 82 407 Q 81 411 84 410 Q 85 406 82 407 Z M 121 407 L 111 416 L 86 445 L 85 449 L 86 464 L 89 476 L 90 475 L 90 467 L 94 465 L 95 466 Q 94 462 98 464 L 97 472 L 95 473 L 99 473 L 100 478 L 97 480 L 95 479 L 92 475 L 89 479 L 92 522 L 94 523 L 99 521 L 110 512 L 119 512 L 129 516 L 128 514 L 128 499 L 125 484 L 126 480 L 123 467 L 123 455 L 121 451 Q 120 448 124 449 L 126 453 L 128 449 L 129 449 L 125 456 L 127 467 L 128 465 L 128 463 Q 127 458 130 457 L 129 455 L 136 441 Q 134 436 131 441 Q 132 444 130 443 L 127 439 L 125 437 L 122 442 L 123 444 Q 124 448 120 446 L 120 439 Q 124 437 123 433 L 119 436 L 116 436 L 113 432 Q 115 427 122 429 L 121 427 L 124 421 Q 128 420 129 424 L 128 430 L 134 427 Q 139 425 138 430 Q 136 433 131 433 L 130 436 L 136 437 Q 138 436 137 439 L 139 439 L 140 442 Q 138 443 139 448 L 139 450 L 138 454 L 139 465 L 141 471 L 142 484 Q 142 481 147 481 L 149 487 L 144 491 L 149 493 Q 149 496 145 495 L 146 492 L 143 494 L 143 502 L 144 503 L 143 505 L 144 512 L 148 521 L 148 519 L 154 520 Q 156 521 155 519 L 164 514 L 167 514 L 164 495 L 160 482 L 160 469 L 153 456 L 154 454 L 159 450 Q 162 451 161 448 L 147 452 L 148 447 Q 150 441 159 442 L 157 440 L 154 437 Q 154 432 158 430 L 162 431 L 164 435 L 164 437 L 165 438 L 172 438 L 172 443 L 169 445 L 172 445 L 171 449 L 171 450 L 166 450 L 166 452 Q 167 454 171 453 L 173 456 Q 172 461 174 463 L 173 467 L 175 475 Q 173 480 177 479 L 176 473 L 181 470 L 184 472 L 183 477 Q 182 481 186 479 Q 187 483 185 484 L 180 483 Q 177 478 175 482 L 179 504 L 181 509 L 181 514 L 191 515 L 203 522 Q 205 521 204 524 Q 207 527 212 526 L 214 519 Q 211 515 212 508 L 208 501 Q 209 498 207 499 Q 201 495 199 488 L 200 483 L 192 469 L 190 459 L 191 455 L 191 448 L 188 440 L 167 408 L 165 412 L 163 411 L 155 411 L 154 412 L 150 411 L 150 409 L 146 411 L 140 408 L 136 409 L 132 408 L 129 410 L 125 409 L 122 409 Q 123 406 121 407 Z M 304 407 L 305 409 Q 306 406 304 407 Z M 203 408 L 201 411 Q 200 413 204 412 L 203 408 Z M 198 409 L 198 413 L 200 412 Q 201 408 198 409 Z M 283 409 Q 280 414 284 413 L 283 409 Z M 87 410 L 86 413 L 88 414 L 87 410 Z M 233 410 L 232 420 L 232 422 L 234 426 L 235 421 L 237 420 L 236 422 L 238 425 L 237 428 Q 236 430 239 429 L 238 432 L 240 432 L 241 433 L 240 429 L 241 425 L 239 415 Q 236 414 237 417 L 234 418 L 233 410 Z M 55 411 L 57 415 L 59 415 L 55 411 Z M 27 412 L 26 415 L 27 415 L 27 412 Z M 305 413 L 301 419 L 301 420 L 306 417 L 305 413 Z M 72 414 L 67 420 L 67 428 L 70 428 L 71 426 L 73 429 L 75 424 L 74 424 Q 75 426 72 425 L 71 423 L 74 421 Q 75 418 77 422 L 77 418 Q 74 417 73 420 L 73 419 Q 74 416 72 417 L 72 416 L 72 414 Z M 90 414 Q 88 417 91 416 L 90 414 Z M 24 416 Q 22 419 25 418 L 24 416 Z M 289 416 L 287 418 Q 286 420 289 419 Q 292 418 289 416 Z M 306 417 L 302 424 L 306 422 Q 309 421 307 426 L 305 426 L 305 428 L 312 435 L 313 437 L 313 436 L 315 435 L 313 439 Q 312 442 315 441 L 317 438 L 316 435 L 319 433 L 320 438 Q 326 440 324 434 L 318 428 Q 315 423 313 427 L 314 425 L 310 420 L 309 423 L 308 423 L 309 419 L 306 417 Z M 278 418 L 278 420 Q 280 423 281 420 Q 282 417 278 418 Z M 208 421 L 207 422 Q 203 421 205 425 L 208 424 L 208 421 Z M 76 424 Q 75 427 78 426 Q 79 423 76 424 Z M 124 424 L 125 429 L 126 429 Q 128 423 124 424 Z M 285 424 L 283 427 Q 280 428 285 430 L 286 428 L 287 430 L 289 427 L 288 429 L 289 431 L 289 430 L 292 428 L 289 434 L 291 434 L 290 437 Q 286 436 287 439 L 290 439 L 292 438 L 290 441 L 292 441 L 293 441 L 291 446 L 293 446 L 291 449 L 292 453 Q 289 454 290 460 L 293 461 Q 294 458 291 457 L 294 453 L 294 455 L 295 455 L 294 444 L 294 442 Q 295 437 292 436 L 294 428 Q 294 424 289 424 L 287 424 L 286 426 L 287 427 L 285 424 Z M 209 425 L 207 427 Q 206 429 210 428 Q 211 424 209 425 Z M 235 426 L 234 429 L 235 429 L 235 426 Z M 251 426 L 250 430 L 251 430 L 251 426 Z M 76 428 Q 73 429 73 433 L 77 431 L 75 434 L 75 435 L 71 435 L 72 438 L 72 439 L 69 438 L 71 451 L 71 458 L 75 458 Q 76 460 77 458 Q 78 454 76 455 L 74 456 L 76 452 L 73 453 L 78 446 L 76 445 L 74 449 L 73 447 L 71 447 L 73 444 L 71 443 L 79 432 L 78 430 Q 79 427 76 428 Z M 134 429 L 131 430 L 132 432 L 135 430 L 134 429 Z M 23 430 L 22 433 L 23 433 L 23 430 Z M 116 431 L 116 434 Q 120 435 119 433 L 116 431 Z M 236 431 L 235 440 L 239 450 L 241 467 L 247 479 L 248 477 Q 250 472 252 475 Q 254 476 253 473 Q 249 472 247 475 L 248 473 L 247 470 L 250 468 L 249 470 L 251 470 Q 252 466 250 467 Q 248 465 247 468 L 246 467 L 252 463 L 252 458 L 251 462 L 249 461 Q 246 460 247 463 L 244 465 L 249 458 L 247 452 Q 248 447 245 448 L 244 443 Q 242 439 240 444 Q 241 446 239 445 L 240 443 L 238 442 L 240 439 L 242 439 L 242 436 L 238 439 L 240 436 L 240 433 L 239 435 L 237 436 L 238 434 L 236 433 L 236 431 Z M 158 433 L 158 438 L 161 438 L 161 433 L 158 433 Z M 65 434 L 66 438 L 64 436 L 59 448 L 55 454 L 54 464 L 54 466 L 57 472 L 54 469 L 52 474 L 52 483 L 50 490 L 49 503 L 56 508 L 58 511 Q 55 512 56 509 L 49 505 L 47 513 L 47 519 L 44 525 L 44 529 L 45 529 Q 43 523 49 525 L 53 519 Q 55 520 54 517 L 62 513 L 61 510 L 51 500 L 52 498 L 60 508 L 62 507 L 52 496 L 53 494 L 62 504 L 72 477 L 71 472 L 63 464 L 70 469 L 71 468 L 70 466 L 71 463 L 67 440 Q 69 433 65 434 Z M 76 436 L 79 444 L 78 447 L 79 448 L 81 447 L 79 440 Q 81 434 76 436 Z M 211 436 L 209 442 L 209 443 L 212 441 L 211 436 Z M 23 437 L 23 440 L 25 441 Q 26 436 23 437 Z M 301 437 L 302 440 L 303 438 L 301 437 Z M 318 439 L 316 441 Q 315 443 318 442 L 319 443 L 318 439 Z M 168 440 L 167 441 Q 163 440 164 443 Q 168 444 169 442 Q 170 439 168 440 Z M 240 440 L 240 442 L 242 441 L 240 440 Z M 20 441 L 18 446 L 20 445 L 20 441 Z M 76 441 L 74 443 L 75 445 L 76 443 L 76 441 Z M 305 441 L 303 444 L 305 443 L 305 441 Z M 214 442 L 210 447 L 212 448 L 211 448 L 208 453 Q 207 455 211 454 L 214 446 L 214 442 Z M 154 444 L 151 448 L 152 449 L 156 447 Q 159 448 158 446 Q 157 443 154 444 Z M 163 444 L 165 447 L 167 446 L 163 444 Z M 289 446 L 289 448 L 291 447 L 289 446 Z M 166 447 Q 165 450 168 449 Q 169 446 166 447 Z M 78 448 L 76 451 L 78 450 L 78 448 Z M 79 450 L 80 453 L 79 457 L 81 457 Q 79 458 80 464 L 82 464 L 80 467 L 82 467 L 81 472 L 83 471 L 84 474 L 82 479 L 82 480 Q 84 481 83 478 L 84 478 L 82 482 L 83 485 L 84 483 L 85 483 L 83 488 L 85 487 L 85 494 L 85 496 Q 84 498 87 497 L 86 495 L 87 493 L 86 492 L 85 472 L 81 452 Q 82 449 79 450 Z M 214 450 L 213 453 L 214 453 L 214 450 Z M 159 454 L 157 458 L 163 461 L 163 459 Q 162 455 165 456 L 167 459 L 168 456 L 164 454 L 162 457 Q 161 460 159 457 L 160 455 L 159 454 Z M 213 454 L 211 458 L 213 457 L 213 454 Z M 215 455 L 216 457 Q 217 454 215 455 Z M 133 457 Q 130 458 130 462 L 132 461 Q 134 462 133 459 L 135 459 L 133 457 Z M 215 457 L 213 462 L 215 461 L 215 457 Z M 78 458 L 74 466 L 75 472 L 75 474 L 78 489 L 78 495 L 81 493 L 81 490 L 80 492 L 79 492 L 80 490 L 79 487 L 80 483 L 79 482 L 78 458 Z M 167 459 L 166 463 L 168 463 L 167 465 L 167 466 Q 169 467 168 465 L 169 465 L 166 471 L 167 472 L 169 469 L 170 472 L 169 475 L 171 474 L 170 469 L 171 464 L 170 461 L 167 459 Z M 134 462 L 134 464 L 130 463 Q 129 466 133 465 Q 134 468 136 464 Q 137 461 134 462 Z M 163 463 L 161 465 Q 160 467 165 466 L 166 464 L 165 464 L 163 463 Z M 297 463 Q 293 464 293 469 L 293 470 L 295 469 L 297 471 L 296 476 L 298 479 L 297 481 L 299 497 L 301 497 L 297 503 L 297 512 L 299 513 L 301 512 L 298 517 L 299 520 L 301 518 L 303 512 L 303 514 L 303 516 L 303 522 L 302 519 L 301 519 Q 300 529 303 535 L 302 537 L 303 541 Q 305 540 303 539 L 304 536 L 305 536 L 304 538 L 305 540 L 303 543 L 304 545 L 305 543 L 305 545 L 307 544 L 306 542 L 305 518 L 304 517 L 304 509 L 302 508 L 302 510 L 298 508 L 302 500 L 302 494 L 300 494 L 301 490 L 299 490 L 300 488 L 297 463 Z M 93 466 Q 90 467 91 472 L 94 471 Q 96 465 93 466 Z M 135 467 L 133 470 L 135 470 L 136 471 L 135 467 Z M 127 468 L 129 485 L 130 485 Q 129 482 132 483 Q 133 486 130 485 L 131 492 L 131 511 L 132 512 Q 134 518 131 520 L 133 529 L 134 543 L 135 544 L 136 565 L 138 574 L 137 577 L 138 578 L 138 592 L 144 594 L 144 592 Q 141 590 145 589 L 145 587 L 141 587 L 144 583 L 144 577 Q 148 578 147 576 L 145 575 L 141 576 L 143 577 L 141 584 L 140 584 L 141 580 L 139 580 L 141 577 L 140 577 L 140 576 L 139 574 L 140 572 Q 141 569 138 570 L 139 567 L 138 564 L 141 560 L 141 562 L 141 563 L 143 562 Q 146 561 145 564 Q 144 566 143 564 L 142 567 L 142 568 L 146 567 L 146 555 L 142 554 L 142 552 L 145 552 L 144 551 L 142 549 L 140 550 L 141 552 L 140 556 L 142 555 L 145 558 Q 143 561 142 557 L 139 560 L 139 559 L 138 556 L 139 553 L 137 553 L 140 548 L 137 549 L 139 545 L 137 545 L 139 540 L 136 541 L 139 537 L 138 536 L 136 537 L 142 530 Q 143 527 140 528 L 137 533 L 137 532 L 136 531 L 136 528 L 134 525 Q 133 517 136 513 L 133 514 L 137 509 L 139 510 L 140 508 L 139 508 L 138 506 L 135 508 L 134 506 L 137 504 L 138 501 L 136 500 L 138 495 L 135 496 L 136 494 L 135 491 Q 138 489 134 488 L 135 482 L 134 482 L 132 482 L 136 479 Q 137 476 135 477 L 131 482 L 130 482 L 131 478 L 129 478 L 130 476 L 134 474 Q 138 475 137 472 L 131 473 L 129 474 L 130 472 Q 129 469 132 470 L 132 468 L 127 468 Z M 165 468 L 163 470 L 166 470 Q 167 467 165 468 Z M 255 468 L 254 471 L 255 471 L 255 468 Z M 169 471 L 167 474 L 169 473 L 169 471 Z M 256 471 L 255 475 L 256 475 L 256 471 Z M 20 473 L 18 475 L 19 477 L 20 475 L 20 473 Z M 162 473 Q 164 476 163 483 L 165 487 L 172 521 L 173 545 L 175 555 L 178 553 L 175 557 L 178 569 L 178 574 L 181 583 L 181 588 L 183 590 L 182 592 L 186 593 L 191 592 L 190 591 L 191 588 L 191 579 L 189 578 L 190 582 L 188 583 L 189 581 L 183 579 L 185 576 L 186 578 L 189 576 L 189 569 Q 186 570 188 572 L 187 575 L 184 574 L 180 570 L 183 565 L 183 567 L 184 567 Q 185 562 182 563 L 178 545 L 177 547 L 176 547 L 177 545 L 177 541 L 176 543 L 175 543 L 177 540 L 176 532 L 177 529 L 176 526 Q 177 523 174 524 L 172 515 L 174 511 L 172 511 L 175 507 L 170 505 L 171 501 L 169 500 L 169 493 L 171 491 L 170 490 L 168 491 L 170 486 L 167 487 L 171 481 L 170 483 Q 169 485 172 484 L 171 486 L 172 489 L 173 487 L 172 474 L 170 480 L 167 484 L 166 484 L 169 478 L 168 477 L 166 480 L 165 480 L 166 477 L 164 477 L 165 475 L 162 473 Z M 179 473 L 179 476 L 181 475 Q 182 472 179 473 Z M 97 475 L 96 478 L 97 478 L 97 475 Z M 279 475 Q 278 478 281 477 Q 282 474 279 475 Z M 250 476 L 247 480 L 249 485 L 250 483 L 253 481 L 249 486 L 250 488 L 254 483 L 254 476 L 250 481 L 250 480 L 250 476 Z M 294 476 Q 291 481 295 480 L 294 476 Z M 9 478 L 8 483 L 9 483 L 9 478 Z M 18 483 Q 16 487 19 488 L 20 484 L 18 483 Z M 135 483 L 135 486 L 137 485 Q 138 482 135 483 Z M 146 483 L 143 487 Q 145 490 146 487 L 146 483 Z M 285 483 L 283 487 L 288 485 Q 289 482 285 483 Z M 254 484 L 252 488 L 254 488 L 252 492 L 251 490 L 252 488 Q 249 487 250 495 L 255 492 L 253 495 Q 249 494 251 502 L 251 504 L 257 525 L 261 519 L 261 523 L 262 523 L 262 516 L 258 521 L 257 520 L 258 517 L 258 515 L 256 516 L 256 515 Q 255 512 258 513 L 259 510 L 257 511 Q 258 513 255 512 L 256 510 L 255 508 L 257 505 L 257 507 L 257 508 L 259 507 Q 260 502 256 504 L 253 506 L 254 503 L 252 499 L 255 495 L 257 501 L 260 496 L 258 495 L 256 488 L 254 484 Z M 228 485 L 227 488 L 223 490 Q 224 493 221 495 L 223 497 L 224 492 Q 229 493 230 491 Q 231 486 228 485 Z M 295 486 Q 293 489 296 488 L 295 486 Z M 174 488 L 172 490 L 173 493 L 172 495 L 174 495 L 173 501 Q 172 503 176 502 L 174 488 Z M 17 489 Q 16 492 19 491 Q 20 488 17 489 Z M 221 490 L 220 493 L 221 493 L 221 490 Z M 308 491 L 307 495 L 309 498 L 310 492 L 308 491 Z M 209 492 L 210 494 Q 211 491 209 492 Z M 213 492 L 211 494 Q 210 496 213 495 L 214 493 L 213 492 Z M 16 493 L 16 495 L 15 499 Q 18 498 16 502 L 14 501 L 13 503 L 17 504 L 18 503 L 19 495 L 16 493 Z M 216 493 L 214 495 Q 213 497 216 496 Q 219 495 216 493 Z M 224 495 L 224 498 L 222 499 Q 223 496 219 497 L 222 504 L 224 504 L 223 507 L 222 505 L 220 506 L 222 509 L 221 513 Q 217 514 221 516 Q 222 513 227 514 Q 228 517 226 516 L 227 518 L 229 515 L 230 519 L 230 518 L 232 517 L 229 523 Q 228 525 231 524 L 234 522 L 231 528 L 233 528 L 236 522 L 238 521 L 234 530 L 235 533 L 239 524 L 242 522 L 238 529 L 239 531 L 241 529 L 244 520 L 237 518 L 235 519 L 235 518 L 230 505 L 227 501 L 228 497 L 224 495 Z M 81 496 L 79 500 L 80 516 L 80 518 L 81 523 L 83 522 L 82 520 L 87 513 L 87 515 L 88 515 Q 90 509 86 510 L 83 516 L 82 516 L 84 513 L 84 511 L 81 512 L 84 507 L 81 506 L 83 502 L 83 500 L 81 503 L 80 503 L 83 497 L 81 496 Z M 173 496 L 171 498 L 173 498 L 173 496 Z M 255 500 L 254 502 L 256 503 L 255 500 Z M 303 500 L 300 505 L 302 504 L 301 506 L 303 507 L 303 500 Z M 320 502 L 319 506 L 323 503 L 320 502 Z M 215 503 L 216 505 Q 217 502 215 503 Z M 13 505 L 13 508 L 16 509 Q 18 510 17 506 L 13 505 Z M 178 507 L 177 514 L 179 522 L 180 522 L 180 517 L 178 507 Z M 220 507 Q 218 510 221 509 L 220 507 Z M 313 508 L 313 509 L 315 509 L 313 508 Z M 140 511 L 138 514 L 140 514 Q 143 513 140 511 Z M 260 511 L 260 516 L 262 515 L 260 511 Z M 112 514 L 100 524 L 93 525 L 94 531 L 99 531 L 105 528 L 109 529 L 104 532 L 97 534 L 94 533 L 95 547 L 96 548 L 96 558 L 96 560 L 97 561 L 97 570 L 98 571 L 99 583 Q 106 584 111 581 Q 117 580 120 583 Q 124 584 126 581 L 128 581 L 133 577 L 135 577 L 134 564 L 133 563 L 133 552 L 130 539 L 130 529 Q 127 525 128 518 Q 122 518 118 514 L 112 514 Z M 59 515 Q 56 516 57 520 L 64 518 L 65 516 L 63 517 L 59 515 Z M 312 515 Q 311 518 315 517 Q 316 514 312 515 Z M 137 516 L 136 519 L 139 520 Q 143 518 140 516 L 139 518 L 137 516 Z M 167 516 L 165 517 L 162 518 Q 163 520 161 519 L 161 520 L 165 519 L 167 521 L 165 525 L 168 526 L 167 529 L 157 524 L 152 524 L 149 523 L 147 528 L 148 530 L 146 537 L 149 553 L 149 570 L 152 584 Q 155 580 164 582 L 166 582 Q 168 583 167 580 L 165 579 L 157 581 Q 151 583 152 579 L 155 580 L 161 578 Q 170 576 172 582 L 171 583 L 156 583 L 153 584 L 151 588 Q 156 590 165 589 L 173 592 Q 178 593 180 591 L 175 568 L 169 568 L 168 569 L 165 568 Q 159 567 158 571 L 163 571 L 164 571 L 163 576 Q 156 574 155 578 L 151 578 L 161 574 L 157 573 L 154 570 L 163 566 L 167 567 L 174 566 Q 175 559 172 556 L 172 547 L 170 543 L 171 541 Q 169 537 170 530 L 169 529 L 170 525 L 168 519 Q 169 515 167 516 Z M 222 516 L 222 519 L 224 518 Q 225 515 222 516 Z M 88 517 L 86 519 Q 85 522 89 520 L 88 517 Z M 182 517 L 183 528 L 185 533 L 185 542 L 185 544 L 188 552 L 189 561 L 189 563 L 193 573 L 194 588 L 196 590 L 195 592 L 202 592 L 203 591 L 231 591 L 232 590 L 233 591 L 256 591 L 257 592 L 267 592 L 263 578 L 263 571 Q 260 563 259 554 L 255 550 Q 252 549 253 552 L 246 550 L 240 550 L 238 550 L 231 551 L 225 553 L 222 556 L 216 557 L 214 561 L 205 565 L 202 564 L 199 566 L 202 566 L 204 566 Q 209 564 208 568 Q 206 570 201 569 L 199 571 L 204 572 Q 208 573 210 571 Q 217 569 215 574 L 213 575 L 207 575 L 211 574 L 212 572 L 210 573 L 204 573 L 195 571 Q 193 567 198 568 L 198 567 L 196 567 L 196 563 L 209 561 L 211 558 Q 213 554 219 555 L 224 551 L 231 549 L 233 550 L 238 548 L 241 549 L 241 547 L 228 547 L 226 549 L 221 550 L 212 549 L 207 546 L 206 543 Q 210 539 217 539 L 212 537 Q 213 534 215 536 L 227 536 L 226 535 L 223 531 Q 224 528 221 529 Q 219 533 223 532 L 222 534 Q 218 532 211 533 L 210 532 L 201 532 L 195 528 Q 192 529 193 526 L 197 526 L 203 530 L 213 530 L 214 531 L 220 531 L 219 529 L 204 527 L 200 523 L 190 518 L 182 517 Z M 308 518 L 310 555 L 312 563 L 312 571 L 315 582 L 309 582 L 307 582 L 305 582 L 308 577 L 310 576 L 308 580 L 311 578 L 310 570 L 309 568 Q 306 569 308 571 L 307 573 L 308 575 L 304 578 L 304 585 L 306 591 L 313 590 L 313 586 L 312 586 L 310 586 Q 305 587 306 585 Q 308 581 310 585 L 313 584 L 315 584 L 315 589 L 318 590 L 320 590 L 322 591 L 331 591 L 331 590 L 328 587 L 324 583 L 316 578 L 317 576 L 325 579 L 333 589 L 332 591 L 336 591 Q 338 585 337 575 L 338 574 L 337 571 L 337 554 L 331 557 Q 330 554 333 555 Q 335 549 329 551 L 330 549 L 334 550 L 335 550 L 331 547 L 326 549 Q 320 550 319 547 Q 316 548 317 545 L 315 544 Q 310 545 311 542 L 315 542 L 323 548 L 327 546 L 335 547 L 336 548 L 336 539 L 335 538 L 336 530 L 336 528 L 336 524 L 320 524 L 320 542 L 319 543 L 316 542 L 317 539 L 316 523 L 313 525 L 314 527 Q 315 529 312 528 Q 309 527 310 524 L 314 521 Q 316 522 315 519 L 308 518 Z M 319 519 L 319 522 L 329 522 L 330 523 L 333 522 Q 335 523 334 521 L 333 519 L 319 519 Z M 39 520 L 39 522 L 41 523 Q 42 519 39 520 Z M 217 520 L 217 522 L 219 521 L 217 520 Z M 85 521 L 84 523 L 81 525 L 83 527 L 85 524 L 85 521 Z M 226 521 L 225 526 L 227 526 L 228 524 Q 229 520 226 521 Z M 245 521 L 241 531 L 242 533 L 248 523 L 245 521 Z M 52 522 L 52 532 L 50 533 L 51 529 L 51 527 Q 48 528 49 533 L 48 536 L 47 535 L 45 536 L 46 539 Q 49 540 48 538 L 52 534 L 63 530 L 64 528 L 62 523 L 61 528 L 59 523 L 58 530 L 56 529 L 57 523 Q 54 522 55 530 L 54 530 L 54 523 L 52 522 Z M 140 522 L 137 526 L 140 524 L 140 522 Z M 88 523 L 88 526 L 89 526 Q 90 522 88 523 Z M 248 523 L 245 531 Q 247 532 244 534 L 247 534 Q 247 528 251 525 Q 252 522 248 523 Z M 263 523 L 261 526 Q 264 527 262 534 L 260 535 Q 262 527 257 529 Q 259 534 260 542 L 263 535 L 263 538 L 265 538 L 264 541 L 264 543 L 265 547 L 265 549 L 266 554 L 267 555 L 264 558 L 263 557 L 265 554 L 263 555 L 263 554 Q 264 551 261 552 Q 261 563 265 572 L 265 578 L 267 582 L 267 587 L 272 592 L 279 591 L 277 584 L 275 585 Q 273 587 272 585 Q 271 582 275 583 L 276 581 L 271 582 L 269 583 L 271 579 Q 268 578 269 581 L 268 581 L 270 575 L 273 574 L 273 568 L 272 570 L 269 569 L 267 572 L 266 572 L 267 570 Q 268 567 265 568 L 264 563 L 264 561 Q 263 558 266 559 L 268 556 L 269 557 L 267 560 L 269 559 L 268 561 L 271 565 L 270 568 L 272 567 Q 273 561 270 560 L 271 558 L 270 555 Q 266 553 269 552 Q 266 550 267 546 L 267 544 Q 265 542 266 537 L 263 534 L 264 531 L 263 523 Z M 85 524 L 84 527 Q 85 529 82 528 L 84 577 L 86 582 Q 85 588 87 592 Q 89 596 95 594 L 93 585 L 93 570 L 92 569 L 90 571 L 90 582 L 88 583 L 88 576 L 86 575 L 86 574 L 86 572 Q 88 573 87 567 L 87 565 L 85 558 L 86 555 L 90 552 L 90 550 L 92 550 L 92 544 L 89 545 L 91 545 Q 92 549 90 548 L 88 551 L 84 554 L 87 550 L 86 549 L 86 548 Q 85 545 88 546 L 88 544 Q 84 542 85 546 L 84 546 L 91 537 Q 92 534 89 535 L 87 538 L 84 540 L 87 535 L 86 535 L 84 535 L 87 530 L 83 532 L 87 526 Q 88 523 85 524 Z M 230 525 L 228 527 L 229 530 L 231 527 Q 232 524 230 525 Z M 252 525 L 248 534 Q 247 536 250 535 L 252 530 L 253 530 L 252 535 L 256 537 L 254 531 Q 256 524 252 525 Z M 180 526 L 179 530 L 180 530 L 180 526 Z M 47 528 L 46 531 L 47 531 L 47 528 Z M 299 528 L 298 531 L 299 531 L 299 528 Z M 38 529 L 37 531 L 41 532 Q 42 536 44 533 L 38 529 Z M 90 529 L 88 531 Q 87 533 90 532 L 90 529 Z M 8 530 L 8 533 L 12 534 L 12 531 L 8 530 Z M 143 530 L 142 533 L 143 533 L 143 530 Z M 181 530 L 180 539 L 181 540 L 180 542 Q 179 544 182 543 Q 183 535 181 530 Z M 231 530 L 231 532 L 233 531 L 231 530 Z M 238 532 L 236 535 L 239 534 Q 240 531 238 532 Z M 38 533 L 36 535 L 36 543 L 34 543 L 35 539 Q 37 533 33 534 L 32 540 L 33 543 L 32 546 Q 39 547 43 543 Q 42 540 45 541 L 46 539 Q 43 540 44 536 L 42 536 L 42 541 L 41 535 Q 37 534 39 541 L 37 542 L 38 539 L 38 533 Z M 9 534 L 8 538 L 12 539 L 13 536 L 12 536 L 9 534 Z M 300 534 L 300 550 L 301 550 L 300 534 Z M 30 535 L 29 541 Q 28 548 31 547 L 31 537 L 32 536 L 30 535 Z M 56 535 L 54 536 L 53 538 L 57 537 Q 58 534 56 535 Z M 142 535 L 140 538 L 143 537 Q 144 534 142 535 Z M 27 537 L 27 539 L 27 541 L 26 547 L 25 541 L 21 548 L 25 550 L 28 549 L 28 539 L 29 538 L 27 537 Z M 271 537 L 274 554 L 279 555 Q 281 554 280 558 L 288 561 L 289 564 L 292 566 L 291 570 L 296 571 L 298 573 L 297 562 L 296 561 L 294 558 Q 290 553 282 553 L 278 549 Q 276 547 279 546 Q 284 544 282 550 L 294 554 Q 295 556 296 554 L 295 552 L 295 541 L 292 538 Q 286 538 285 542 L 277 538 L 275 538 L 271 537 Z M 91 538 L 89 540 Q 88 542 91 541 L 91 538 Z M 9 539 L 7 542 L 12 544 L 12 540 L 9 539 Z M 222 539 L 221 540 L 213 540 L 209 543 L 211 545 Q 215 544 214 547 L 221 547 L 222 548 L 228 545 L 235 545 L 237 545 L 244 546 L 246 548 L 255 548 L 258 550 L 259 550 L 257 540 L 253 539 L 241 539 L 240 540 L 237 539 L 236 541 L 222 539 Z M 143 540 L 140 543 L 144 544 L 143 540 Z M 261 543 L 260 552 L 261 552 L 263 549 Q 259 547 262 546 L 261 543 Z M 182 544 L 183 551 L 184 549 L 182 544 Z M 9 545 L 7 548 L 9 550 L 7 554 Q 6 559 9 560 L 7 563 L 8 567 L 7 570 L 8 572 L 9 570 L 11 547 L 12 546 L 9 545 Z M 305 545 L 303 547 L 304 549 L 305 547 L 305 545 Z M 307 545 L 304 550 L 305 552 L 307 549 L 307 545 Z M 144 546 L 143 548 L 145 547 L 144 546 Z M 60 549 L 60 551 L 62 550 L 60 549 Z M 93 550 Q 89 550 90 555 L 92 555 L 91 559 Q 95 560 93 554 L 93 552 L 93 550 Z M 307 550 L 305 554 L 304 554 Q 305 551 302 552 L 303 557 L 303 559 L 302 561 L 302 572 L 304 573 L 307 572 L 305 569 L 307 566 L 305 565 Q 304 559 308 557 L 308 554 L 305 560 L 304 560 L 307 554 L 307 550 Z M 184 551 L 182 553 Q 181 555 184 554 L 184 551 Z M 185 554 L 183 557 L 185 558 L 185 554 Z M 55 556 L 54 558 L 56 557 L 55 556 Z M 89 557 L 89 563 L 90 563 L 89 557 Z M 186 558 L 184 561 L 186 564 L 186 563 L 186 561 L 186 558 Z M 276 559 L 276 565 L 278 570 L 278 575 L 281 584 L 281 588 L 283 591 L 292 591 L 293 592 L 302 591 Q 300 589 301 584 L 299 580 L 299 574 L 298 574 L 290 571 L 286 571 L 283 569 Q 280 570 281 566 L 287 565 L 276 559 Z M 308 559 L 306 562 Q 305 564 308 563 L 308 559 Z M 13 560 L 8 586 L 9 588 L 8 593 L 24 593 L 34 595 L 36 594 L 41 595 L 47 594 L 49 594 L 56 595 L 57 593 L 56 584 L 50 561 L 42 564 L 39 563 L 31 563 L 29 565 L 30 568 L 30 575 L 28 575 L 27 567 Q 23 565 24 569 L 24 571 L 26 577 L 25 580 L 25 582 L 27 589 Q 28 593 24 591 L 20 579 L 22 576 Q 24 570 21 569 L 19 566 L 13 562 L 13 560 Z M 93 560 Q 88 563 89 568 L 93 567 L 93 560 Z M 267 562 L 265 565 L 268 563 L 267 562 Z M 188 565 L 186 569 L 188 568 L 188 565 Z M 55 567 L 55 577 L 57 581 Q 56 588 59 592 L 58 594 L 59 595 L 61 594 L 62 591 L 58 569 L 55 567 Z M 286 567 L 287 569 L 289 569 L 286 567 Z M 146 569 L 142 572 L 145 573 Q 146 575 147 573 L 146 569 Z M 65 570 L 67 582 L 67 584 Q 68 587 65 586 Q 67 576 63 571 L 60 573 L 63 588 Q 60 597 70 594 L 72 594 Q 77 596 79 593 L 82 594 L 84 594 L 83 580 L 81 578 L 78 575 L 71 572 L 70 577 L 71 585 L 69 585 L 69 573 L 65 570 Z M 82 571 L 81 576 L 83 575 L 82 571 Z M 274 575 L 271 579 L 273 578 L 275 579 L 274 575 Z M 133 579 L 131 583 L 128 582 L 124 585 L 117 584 L 114 583 L 103 584 L 104 586 L 108 585 Q 110 586 109 590 L 113 591 L 124 591 L 130 589 L 135 589 L 136 588 L 135 586 Q 137 578 133 579 Z M 146 580 Q 144 585 148 584 Q 150 579 146 580 Z M 101 586 L 99 588 L 100 593 L 105 595 L 107 594 Q 111 593 113 595 Q 120 597 124 594 L 126 594 L 129 595 L 135 593 Q 137 594 136 591 L 115 592 L 114 593 L 108 592 Q 104 591 105 587 L 101 586 Z M 148 586 L 148 593 L 149 590 L 148 586 Z M 153 590 Q 152 594 158 593 L 160 593 Q 165 595 164 591 Q 161 589 153 590 Z "></path><path d="M 170.5 20 L 180.5 21 L 182.5 20 L 183.5 21 L 191 21 L 189.5 24 L 183 24 L 183 37 Q 186.8 36 188 38.5 L 186.5 40 L 162.5 40 L 161.5 41 L 159.5 40 L 154.5 41 L 151.5 40 Q 146.3 41.5 148 37 L 155 37 L 155 34.5 L 146 21 L 152.5 22 L 154.5 22 L 156.5 21 L 158.5 22 L 159.5 21 L 169.5 21 L 170.5 20 Z M 160 24 L 154 25 L 159 35 L 161 29 Q 163 23 160 24 Z M 169 24 L 167 25 L 162 35 L 163 36 L 171 36 L 171 28 L 170 27 Q 171 23 169 24 Z M 174 24 L 175 27 L 174 29 L 175 31 L 175 33 Q 174 38 178 36 L 178 24 L 174 24 Z "></path><path d="M 108.5 173 L 107.5 175 L 106 174.5 L 108.5 173 Z "></path><path d="M 88.5 193 L 91 197 L 87 194.5 L 88.5 193 Z "></path><path d="M 84 198 L 92 200 Q 93.3 203 89.5 202 L 85.5 200 L 84 200.5 L 84 198 Z "></path><path d="M 182.5 203 L 185.5 204 L 186.5 203 L 191 207.5 Q 192.1 210.8 189.5 210 L 187 208.5 L 188 210.5 Q 186.8 213 183 212 L 183 207 L 185.5 207 L 184.5 205 L 182.5 203 Z "></path><path d="M 198.5 210 L 206 212 Q 207.3 215 203.5 214 L 201.5 213 L 202 214.5 L 200.5 218 L 196.5 216 L 191.5 225 L 190 222.5 L 193 219.5 L 196.5 211 L 198.5 210 Z M 199 213 L 197 215 Q 196 217 199 216 Q 202 215 199 213 Z "></path><path d="M 139.5 214 L 141 216.5 L 139 215.5 L 139.5 214 Z "></path><path d="M 187.5 219 L 189 222.5 L 187.5 222 Q 185.3 222.8 186 220.5 L 187.5 219 Z "></path><path d="M 184.5 223 L 190 226.5 Q 192.2 232.8 186.5 231 L 179 226.5 L 184.5 223 Z "></path><path d="M 127.5 263 Q 130.8 261.9 130 264.5 L 125 274.5 L 122 286.5 L 121 297.5 L 119 303.5 L 116.5 306 Q 113.7 304.8 116 303.5 Q 116 290 121 281.5 L 121 273.5 L 127.5 263 Z "></path><path d="M 213 279 Q 217.1 277.3 216 281.5 L 210 286 L 213 279 Z "></path><path d="M 184.5 297 L 186 300.5 L 182 317.5 Q 179.2 318.6 180 322 L 177 321.5 L 181 313.5 L 182 302.5 L 184.5 297 Z "></path><path d="M 164.5 321 Q 166.8 320.3 166 322.5 L 167 325.5 L 161 334.5 L 153.5 342 L 141.5 347 L 140 345.5 L 143.5 342 L 152 339 L 154.5 335 Q 156.8 335.8 156 333.5 L 164.5 321 Z "></path><path d="M 181.5 322 L 182 326.5 L 179 336.5 L 173 346 L 169 346 L 169 344.5 Q 174.9 339.9 176 330.5 L 175 330.5 Q 172 342.5 163.5 349 L 160 350 L 158.5 353 L 149 356 L 150.5 353 L 155 350.5 Q 152.9 344.6 157.5 346 Q 159 343.5 160.5 347 Q 164.5 347.5 165 344.5 L 173 329.5 L 173 327 L 175.5 326 L 177 326.5 L 179.5 323 L 181.5 322 Z "></path><path d="M 162 336 Q 165.3 334.7 164 339.5 Q 162.5 342.5 161 339.5 L 162 336 Z "></path><path d="M 26.5 373 Q 30.3 372 29 375 L 26.5 373 Z "></path><path d="M 149.5 375 Q 151.8 374.3 151 376.5 L 147.5 381 Q 144.9 381.8 146 378.5 L 147 376 L 149.5 375 Z "></path><path d="M 66.5 380 L 67 381.5 L 65 384.5 L 67 384.5 L 64.5 388 L 65 386.5 L 64 382.5 L 66.5 380 Z "></path><path d="M 67.5 388 L 66 390.5 L 66.5 392 L 68 391.5 L 65.5 396 L 65 394.5 L 66 392.5 L 65 390.5 L 67.5 388 Z "></path><path d="M 70.5 391 Q 70 398.2 73 401 Q 69.2 402 68 399.5 L 70 395.5 L 69 393.5 L 70.5 391 Z "></path><path d="M 67.5 396 L 68 397.5 L 66 401 L 68 401.5 L 66.5 402 L 65 399.5 L 67.5 396 Z "></path><path d="M 70.5 402 L 73 403 L 71.5 406 Q 69 405 70.5 402 Z "></path><path d="M 68.5 403 L 68 404.5 L 67.5 406 L 67 404.5 L 68.5 403 Z "></path><path d="M 178.5 406 L 179 408.5 L 178 413 L 176 412.5 L 178.5 406 Z "></path><path d="M 182.5 406 Q 184.8 405.3 184 407.5 L 182 414 Q 179.3 415.1 180 412.5 L 182.5 406 Z "></path><path d="M 184.5 410 L 185 413.5 L 184 413.5 L 184.5 410 Z "></path><path d="M 181.5 416 L 182 418.5 L 181 418.5 L 181.5 416 Z "></path><path d="M 183.5 417 L 184 420.5 L 183 420.5 L 183.5 417 Z "></path><path d="M 194.5 417 L 195 419.5 L 192.5 426 L 192 422.5 L 194.5 417 Z "></path><path d="M 70.5 418 L 69 420.5 L 68.5 422 L 68 420.5 L 70.5 418 Z "></path><path d="M 185.5 419 L 186 421.5 L 185 421.5 L 185.5 419 Z "></path><path d="M 196.5 422 L 197 423.5 L 195.5 426 L 195 424.5 L 196.5 422 Z "></path><path d="M 200.5 422 L 201 423.5 L 199.5 426 L 198 423.5 L 200.5 422 Z "></path><path d="M 85.5 426 L 89.5 431 L 85.5 426 Z "></path><path d="M 90.5 426 L 91.5 428 Q 88.7 428.7 90.5 426 Z "></path><path d="M 191.5 427 L 192 429.5 L 191 429.5 L 191.5 427 Z "></path><path d="M 85.5 430 L 87 432.5 L 85 431.5 L 85.5 430 Z "></path><path d="M 313.5 431 L 312.5 433 L 313.5 431 Z "></path><path d="M 84.5 433 L 86.5 436 Q 84.3 436.8 85 434.5 L 84.5 433 Z "></path><path d="M 192.5 433 L 193 435.5 L 192 435.5 L 192.5 433 Z "></path><path d="M 203.5 435 L 204 436.5 L 202 437.5 L 203.5 435 Z "></path><path d="M 195.5 436 L 196 438 L 194 437.5 L 195.5 436 Z "></path><path d="M 63.5 440 L 64 442 Q 66.7 440.9 66 443.5 L 66.5 445 L 63 441.5 L 63.5 440 Z "></path><path d="M 124 440 Q 127 438.8 126 442.5 Q 126.5 445.5 130.5 445 L 132 444.5 L 130.5 448 L 127 447 L 126.5 449 L 125 446.5 L 126 444.5 Q 123.3 443.4 124 440 Z "></path><path d="M 203.5 442 L 204 444.5 L 203 444.5 L 203.5 442 Z "></path><path d="M 62.5 445 L 65.5 449 L 62.5 445 Z "></path><path d="M 241.5 445 L 241 446.5 Q 241.8 448.8 239.5 448 L 241.5 445 Z "></path><path d="M 202.5 446 L 203 449 L 201 448.5 L 202.5 446 Z "></path><path d="M 242 447 L 244 447.5 L 240.5 452 L 240 450.5 L 242 447 Z "></path><path d="M 60.5 448 L 69 458.5 L 65 455.5 L 60 449.5 L 60.5 448 Z "></path><path d="M 201.5 450 L 202 452.5 L 200 453.5 L 201.5 450 Z "></path><path d="M 245.5 450 Q 243.9 451.8 247 453.5 L 246 454.5 L 246 457.5 L 242.5 462 Q 240.3 459.3 241 453.5 L 245.5 450 Z M 244 453 L 243 456 L 244 456 L 244 453 Z "></path><path d="M 58.5 451 L 69 463.5 L 67 464 L 59 454.5 L 58.5 451 Z "></path><path d="M 197.5 453 L 198 455.5 L 197 455.5 L 197.5 453 Z "></path><path d="M 16.5 454 L 18 458 Q 13.9 459.7 15 455.5 L 16.5 454 Z "></path><path d="M 203.5 454 L 204 456.5 L 202 457.5 L 203.5 454 Z "></path><path d="M 199 455 L 201 455.5 L 199.5 460 L 199 455 Z "></path><path d="M 57.5 456 L 58.5 458 L 57.5 456 Z "></path><path d="M 201 459 L 203 459.5 L 201.5 464 L 201 459 Z "></path><path d="M 15.5 460 Q 18.5 461.5 15.5 463 L 15.5 460 Z "></path><path d="M 61.5 464 L 68.5 472 Q 70.8 471.3 70 473.5 L 61 465.5 L 61.5 464 Z "></path><path d="M 207.5 467 L 207 468.5 L 206.5 470 L 206 468.5 L 207.5 467 Z "></path><path d="M 14.5 468 L 15 471.5 L 14 471.5 L 14.5 468 Z "></path><path d="M 60.5 469 Q 62.8 468.3 62 470.5 L 60.5 469 Z "></path><path d="M 208.5 471 L 209 474.5 L 207 475.5 L 208.5 471 Z "></path><path d="M 211 471 L 213 471.5 L 212 475 L 210 474.5 L 211 471 Z "></path><path d="M 214.5 471 L 215 473.5 L 213 474.5 L 214.5 471 Z "></path><path d="M 64.5 472 L 66 474.5 L 64 473.5 L 64.5 472 Z "></path><path d="M 13.5 473 Q 16.3 474.3 14 475.5 L 13.5 477 L 13.5 473 Z "></path><path d="M 205.5 473 L 206 476.5 L 205 476.5 L 205.5 473 Z "></path><path d="M 63.5 477 L 67 479 L 69 482.5 L 65.5 480 Q 63.3 480.8 64 478.5 L 63.5 477 Z "></path><path d="M 210.5 477 L 211 478.5 L 209.5 481 L 209 478.5 L 210.5 477 Z "></path><path d="M 213.5 477 L 214 478.5 L 212.5 484 L 212 478.5 L 213.5 477 Z "></path><path d="M 58.5 478 L 64 482.5 Q 63.3 484.8 65.5 484 L 67 487.5 L 64 485.5 L 58.5 478 Z "></path><path d="M 56.5 481 L 57 483 L 61 485.5 L 64 489.5 L 56 482.5 L 56.5 481 Z "></path><path d="M 13.5 484 L 14 486 L 12 485.5 L 13.5 484 Z "></path><path d="M 132.5 486 L 133 488 L 131 487.5 L 132.5 486 Z "></path><path d="M 12.5 488 L 13 491.5 L 12 491.5 L 12.5 488 Z "></path><path d="M 56.5 488 L 59 489 L 63 494.5 L 56.5 488 Z "></path><path d="M 133.5 489 L 134 490.5 L 132 491.5 L 133.5 489 Z "></path><path d="M 53.5 490 L 61 498.5 L 55 493.5 L 53.5 490 Z "></path><path d="M 11.5 493 L 12 499.5 L 11 499.5 L 11.5 493 Z "></path><path d="M 133.5 494 L 132.5 496 L 133.5 494 Z "></path><path d="M 134.5 497 L 133.5 499 L 134.5 497 Z "></path><path d="M 134.5 500 L 135 501.5 L 133 502.5 L 134.5 500 Z "></path><path d="M 227.5 503 L 228 504.5 L 223.5 512 L 223 510.5 L 227.5 503 Z "></path><path d="M 50.5 509 L 51.5 511 L 50.5 509 Z "></path><path d="M 227.5 509 L 228 511.5 L 226 512.5 L 227.5 509 Z "></path><path d="M 49.5 512 L 50.5 514 L 49.5 512 Z "></path><path d="M 112.5 516 Q 116.7 514.9 115 519 Q 109.3 518 107 521.5 L 102.5 528 L 95 529 L 96.5 526 Q 101.9 527.9 101 524.5 Q 104.6 518.1 112.5 516 Z "></path><path d="M 303.5 524 L 304 525.5 L 303 527.5 L 304 530.5 L 303 530.5 L 302 525.5 L 303.5 524 Z "></path><path d="M 326.5 526 L 329 527 L 327.5 531 L 324 529.5 Q 322.9 526.2 325.5 527 L 326.5 526 Z "></path><path d="M 313.5 555 L 321.5 558 L 321.5 556 L 325.5 556 L 330 559 Q 331.3 562 327.5 561 L 324 558.5 L 322.5 562 L 313 556.5 L 313.5 555 Z "></path><path d="M 179.5 560 L 180 561.5 L 178.5 564 L 178 562.5 L 179.5 560 Z "></path><path d="M 313 561 Q 325.6 563 332 572.5 L 336 580 Q 332.2 581.5 333 578.5 L 323.5 568 L 315.5 563 L 313 563 L 313 561 Z "></path><path d="M 180.5 563 L 181 564.5 L 179 565.5 L 180.5 563 Z "></path><path d="M 324.5 563 Q 332 563.5 335 568.5 L 332.5 569 L 327.5 565 L 325.5 565 L 324.5 563 Z "></path><path d="M 271.5 571 L 268 575.5 L 267.5 577 L 267 574.5 L 271.5 571 Z "></path><path d="M 182.5 575 L 183 576.5 L 181 577.5 L 182.5 575 Z "></path><path d="M 203 575 L 206 575.5 L 205.5 578 L 203 576.5 L 203 575 Z "></path><path d="M 238.5 577 L 246.5 577 L 254.5 579 L 256.5 578 L 260 579 L 258 583 L 264 584 L 263.5 587 L 258.5 584 L 243.5 583 L 234.5 588 L 224.5 589 L 222.5 589 Q 210.6 590.4 204 586.5 L 208.5 586 L 217.5 588 L 218.5 587 L 231.5 587 L 241.5 582 L 248.5 581 L 252.5 582 L 255 580.5 L 245.5 579 Q 244 581.5 242.5 578 Q 237.5 579 238.5 577 Z "></path><path d="M 226.5 578 L 230 578.5 L 226.5 579 L 226.5 578 Z "></path><path d="M 185.5 582 L 183.5 585 L 185.5 582 Z "></path><path d="M 186 584 L 190 586.5 L 188.5 588 Q 186.8 584.9 185 586.5 L 186 584 Z "></path><path d="M 29 586 Q 32.3 584.9 31 589 Q 27.7 590.1 29 586 Z "></path><path d="M 341.5 588 L 342 590.5 L 341 590.5 L 341.5 588 Z "></path></svg>