<svg width="350" height="600" version="1.1" xmlns="http://www.w3.org/2000/svg" desc="Created with imagetracer.js version 1.2.5"><path d="M 162.5 4 L 175.5 5 L 176.5 4 L 196.5 4 L 197.5 5 L 334.5 5 L 336 6.5 L 335 23.5 L 336 24.5 L 336 37.5 L 336 39.5 L 336 66.5 L 337 68.5 L 336 69.5 L 336 78.5 L 337 79.5 L 337 103.5 L 337 105.5 L 336 111.5 L 337 114.5 L 336 115.5 L 336 126.5 L 336 128.5 L 337 135.5 L 336 136.5 L 336 154.5 L 337 155.5 L 337 185.5 L 338 186.5 L 338 234.5 L 337 235.5 L 337 396.5 L 337 398.5 Q 335.3 404.8 338 406.5 L 337 407.5 L 337 427.5 Q 339.5 429 338 434.5 Q 335.5 436 337 441.5 Q 339.8 443.3 338 449.5 L 337 450.5 L 336 485.5 L 337 487.5 L 336 489.5 L 336 491.5 L 336 499.5 L 337 500.5 L 337 589.5 Q 336 593 330.5 592 L 329.5 591 L 265.5 591 L 262.5 592 L 261.5 591 L 253.5 591 L 252.5 592 L 243.5 592 L 241.5 592 L 66.5 593 L 64.5 594 Q 63.3 591.8 58.5 593 L 53.5 594 L 51.5 593 L 50.5 594 L 17.5 594 L 16.5 595 L 4 595 L 3 591.5 L 4 590.5 L 4 541.5 L 5 540.5 L 5 530.5 L 4 527.5 L 5 520.5 L 4 519.5 L 4 498.5 L 5 496.5 L 5 494.5 L 4 485.5 L 5 484.5 L 5 453.5 Q 2.3 451.8 4 445.5 L 5 444.5 L 5 424.5 L 4 422.5 L 5 421.5 L 5 412.5 L 5 410.5 L 6 391.5 L 5 390.5 L 5 325.5 L 6 320.5 L 6 318.5 L 6 282.5 L 5 281.5 Q 6.5 272 4 266.5 L 5 265.5 L 5 256.5 L 4 252.5 L 5 251.5 L 5 237.5 L 6 236.5 L 6 216.5 L 5 215.5 L 5 197.5 L 6 192.5 Q 3.5 191 5 185.5 L 6 181.5 L 5 180.5 L 5 166.5 L 6 165.5 L 6 133.5 L 7 128.5 L 6 127.5 L 6 100.5 L 7 98.5 L 6 97.5 L 6 77.5 L 7 76.5 L 7 7.5 L 8.5 6 L 11.5 5 L 12.5 6 L 31.5 6 L 33.5 6 L 42.5 5 L 46.5 6 L 47.5 5 L 57.5 5 L 59.5 5 L 161.5 5 L 162.5 4 Z M 65 7 L 64 8 L 34 8 L 33 9 L 32 8 L 19 8 L 16 9 L 11 8 L 10 35 L 9 36 L 10 39 L 9 41 L 10 43 L 9 48 L 9 57 L 10 58 L 9 60 L 10 63 L 9 66 Q 8 70 10 72 L 9 73 L 9 124 L 8 125 L 9 126 L 9 160 L 14 168 L 18 167 L 18 137 L 19 136 L 19 126 L 18 125 L 18 92 L 19 89 L 19 87 L 17 83 L 17 81 L 19 76 Q 20 72 24 73 L 21 62 L 18 61 Q 15 60 15 57 Q 17 52 19 55 L 20 55 Q 16 53 17 46 L 23 47 L 25 51 L 28 49 Q 31 48 32 51 Q 32 57 29 60 L 33 62 L 32 65 Q 31 68 26 67 L 27 72 L 29 71 L 31 72 L 36 79 Q 37 84 34 85 L 35 112 L 35 114 L 34 117 L 35 119 L 35 142 L 34 143 L 34 161 L 33 162 L 33 207 L 32 208 L 32 224 L 32 226 L 33 228 L 32 232 L 33 240 Q 32 235 35 233 L 34 230 L 34 226 L 36 219 L 39 218 L 42 219 L 40 226 Q 45 225 46 228 L 42 234 Q 46 234 45 239 L 42 241 Q 40 243 39 241 Q 38 237 42 239 L 42 238 Q 41 235 38 236 L 33 246 Q 35 252 32 254 L 32 296 L 31 297 L 32 299 L 31 301 L 31 316 L 31 318 L 31 357 L 32 358 L 31 361 L 32 363 L 32 365 Q 34 371 31 373 L 31 409 L 30 412 L 31 414 L 31 445 L 36 445 L 44 449 L 45 361 L 46 358 L 46 349 L 45 348 L 46 347 L 46 271 L 48 265 L 48 215 L 48 213 L 48 204 L 49 203 L 48 199 L 49 196 L 48 195 L 48 171 L 46 168 L 47 166 L 42 156 Q 37 156 35 153 L 37 147 L 36 144 L 38 140 L 41 141 L 45 140 Q 48 142 47 148 L 48 148 Q 49 143 47 142 L 48 138 L 47 135 Q 46 130 49 129 Q 48 125 52 127 L 52 123 L 55 118 L 51 120 Q 47 119 48 115 L 51 113 L 48 111 Q 43 110 44 104 L 48 103 L 51 104 Q 50 97 53 93 L 56 92 Q 60 94 58 102 L 61 100 L 65 101 L 63 109 L 59 110 Q 61 120 55 124 Q 54 129 58 127 L 59 133 L 64 140 Q 66 145 63 147 Q 65 150 64 157 L 64 159 L 65 184 L 71 180 L 72 178 L 71 174 Q 70 166 74 163 L 78 165 Q 79 163 80 166 L 79 175 L 75 178 L 82 179 Q 85 178 83 183 L 81 185 L 73 185 L 72 182 L 69 184 Q 64 187 64 195 L 64 197 L 63 199 L 63 211 L 64 212 Q 66 218 63 220 L 64 224 L 64 226 L 63 229 L 63 247 L 64 248 L 63 250 L 63 278 L 62 279 L 63 282 L 62 287 L 63 289 L 62 308 L 61 309 Q 60 313 62 315 L 61 317 L 62 322 L 62 360 L 63 361 L 62 364 L 61 449 Q 75 448 81 437 L 86 439 L 89 444 L 89 446 L 93 451 L 94 250 L 95 249 Q 92 247 94 241 L 94 239 L 95 238 L 95 228 L 96 227 L 96 196 L 97 195 L 96 192 L 97 182 L 97 180 L 96 178 L 96 176 L 97 171 L 96 169 L 97 164 L 97 162 L 97 144 L 93 135 Q 89 134 87 137 Q 83 138 82 135 L 83 132 Q 86 130 82 129 Q 80 122 84 121 L 88 122 L 93 121 L 94 124 Q 93 131 95 135 L 97 136 L 96 131 L 97 129 L 96 126 L 99 124 L 97 123 Q 98 119 95 117 L 95 112 L 100 106 L 98 105 L 99 96 L 97 97 Q 91 98 89 96 L 88 92 Q 90 88 95 89 Q 96 86 93 87 L 91 84 Q 90 80 93 79 L 97 80 L 100 87 L 100 84 L 104 82 Q 107 84 107 89 L 111 88 Q 113 89 112 94 Q 109 99 101 101 L 104 102 L 103 105 L 105 105 L 112 114 L 113 119 L 113 124 L 111 130 L 110 152 L 109 153 L 109 165 L 110 166 L 108 172 L 109 177 L 108 182 L 108 203 L 109 204 L 109 217 L 108 218 L 109 220 L 108 223 L 109 232 L 114 221 L 110 213 L 113 208 L 116 209 L 121 207 L 123 212 L 121 215 L 123 220 L 122 223 L 120 224 L 117 222 L 112 230 L 112 238 L 108 244 L 108 285 L 107 286 L 108 288 Q 110 293 107 295 L 107 332 L 106 333 L 107 335 L 107 337 L 106 340 L 106 357 L 106 361 L 105 363 L 106 364 L 106 381 L 107 382 L 107 397 L 106 398 L 107 401 L 106 438 L 105 439 L 105 450 L 107 451 L 111 450 L 114 451 L 121 450 Q 123 444 122 434 L 123 433 L 120 429 L 121 420 L 121 418 L 122 414 L 121 411 L 121 399 L 122 398 L 121 394 L 121 390 L 123 381 L 122 379 L 123 377 L 123 336 L 124 335 L 124 312 L 123 311 L 124 309 L 124 298 L 125 297 L 124 292 L 125 290 L 124 288 L 124 234 L 125 233 L 124 231 L 125 228 L 125 203 L 125 201 L 126 197 L 125 192 L 126 187 Q 127 184 124 185 Q 125 179 122 176 L 121 178 L 117 181 L 113 180 Q 112 174 116 173 Q 112 172 113 166 L 117 163 L 119 164 L 120 160 L 125 160 Q 124 163 127 162 L 125 153 L 126 145 L 132 140 Q 133 142 134 140 L 132 129 L 128 130 Q 124 129 124 125 L 129 122 L 128 121 L 124 116 L 127 112 L 132 113 L 133 115 L 137 110 Q 140 109 141 112 Q 142 118 139 121 L 141 120 L 143 121 Q 145 120 144 127 L 140 130 L 134 129 Q 137 133 136 142 L 140 143 L 144 153 L 143 163 L 140 167 L 140 183 L 139 184 L 139 199 L 138 200 L 139 204 L 139 212 L 138 213 L 139 223 L 139 222 L 141 220 L 146 225 L 152 223 Q 155 224 154 228 L 150 230 L 153 234 L 149 236 L 143 234 L 141 241 L 141 248 L 137 254 L 138 259 L 137 294 L 136 295 L 137 298 L 137 300 Q 139 306 136 308 L 137 310 L 136 312 L 136 314 L 136 345 L 137 346 L 136 347 L 136 372 L 135 373 L 136 376 L 136 389 L 135 390 L 136 394 L 135 395 L 135 410 L 134 411 Q 137 412 135 418 L 135 420 L 134 423 L 135 424 L 135 436 L 135 438 L 134 443 Q 132 448 136 450 L 140 450 L 147 446 L 149 443 L 152 443 L 160 449 L 166 450 L 166 428 L 164 418 L 165 416 L 163 413 L 163 369 L 164 367 L 164 365 L 163 363 L 164 360 L 164 358 L 163 355 L 163 351 L 163 339 L 164 338 L 163 336 L 164 334 L 163 333 L 163 315 L 160 311 L 158 302 L 160 299 L 158 297 L 153 290 L 153 279 L 154 277 Q 157 272 163 271 L 164 264 L 167 263 L 167 259 L 164 255 Q 162 247 166 248 L 165 247 L 166 244 Q 167 241 164 242 L 164 229 L 165 228 L 164 225 L 164 204 L 165 203 L 164 187 L 165 184 L 165 149 L 164 148 L 164 136 L 159 127 L 158 119 L 156 120 Q 150 121 148 118 L 150 114 L 148 104 Q 154 103 157 108 L 157 107 Q 158 104 162 105 L 163 108 Q 164 115 161 118 L 162 122 L 161 124 L 164 130 L 166 120 L 166 109 L 165 108 L 166 104 L 165 100 L 165 98 L 166 95 L 166 93 L 166 84 L 165 83 L 166 78 L 162 70 L 163 66 L 167 62 L 162 59 Q 158 57 163 55 L 159 53 L 157 50 L 161 47 Q 166 46 168 48 L 167 46 Q 166 39 170 38 L 170 36 Q 168 39 163 37 L 161 37 L 157 36 L 155 37 Q 151 38 150 36 L 151 34 L 159 34 L 160 31 L 160 21 L 152 21 L 151 19 L 159 19 L 160 18 L 189 18 Q 192 20 189 21 L 187 20 L 184 21 Q 180 24 179 30 Q 181 36 190 34 L 190 37 L 174 37 L 175 40 Q 176 47 172 51 L 174 53 Q 175 48 183 49 L 182 55 L 178 58 L 176 57 Q 173 58 174 62 L 178 63 L 180 66 Q 178 72 181 74 Q 183 80 180 82 L 181 83 L 182 161 Q 185 161 184 157 L 189 153 L 191 155 Q 193 160 189 159 L 190 166 L 186 165 L 184 170 L 182 169 L 181 225 L 190 222 Q 197 221 201 223 L 201 214 L 200 213 L 197 209 L 193 210 L 194 208 Q 195 201 191 200 L 193 194 L 197 192 L 196 187 L 199 181 L 200 181 L 200 177 L 207 174 Q 206 169 210 167 L 215 163 L 216 163 L 216 168 L 218 168 L 221 163 Q 220 160 223 161 L 224 165 L 224 163 L 232 165 Q 234 166 232 168 Q 233 170 235 168 L 246 170 L 247 167 L 248 144 L 251 132 L 250 128 L 251 125 L 251 123 L 246 116 L 242 115 L 239 112 L 240 110 Q 239 107 242 108 L 240 106 L 245 96 Q 248 98 247 105 Q 248 107 250 105 L 252 108 L 252 99 Q 256 98 255 94 Q 253 90 252 94 L 246 91 Q 245 87 248 88 L 246 84 L 248 80 L 252 83 L 256 74 L 258 75 Q 259 81 257 85 L 260 83 Q 262 84 261 88 L 257 90 Q 256 95 260 93 L 265 100 L 265 102 L 266 102 Q 268 96 265 95 Q 264 86 267 82 L 272 78 L 271 75 L 267 77 L 264 73 L 270 69 L 266 67 Q 263 68 264 66 L 264 64 L 265 62 L 270 62 L 270 57 Q 271 54 275 54 L 277 58 Q 278 63 275 65 L 277 70 L 280 68 Q 284 68 284 71 L 283 74 L 281 75 L 276 74 L 274 75 L 277 79 Q 279 78 278 81 L 280 81 L 282 86 L 281 95 L 281 97 L 282 99 L 282 125 L 283 126 L 282 130 L 282 140 L 284 148 L 285 146 Q 284 143 287 144 Q 288 142 289 145 Q 290 149 288 151 L 291 152 L 292 148 L 292 133 L 288 124 Q 287 118 290 116 L 297 111 L 296 108 L 293 110 L 289 108 L 294 104 L 293 102 Q 294 99 292 100 L 289 95 L 289 93 Q 288 90 293 91 L 296 87 Q 299 86 300 89 L 300 93 L 296 99 L 297 103 L 303 100 L 305 104 L 301 107 L 304 107 Q 309 111 310 119 L 307 125 L 308 129 L 307 136 L 312 137 L 314 142 L 315 139 L 314 135 L 314 133 L 314 125 L 315 124 Q 316 119 312 119 Q 311 111 314 108 L 320 105 L 319 101 Q 317 103 313 102 L 310 99 Q 312 95 318 96 L 311 94 Q 310 90 313 89 L 316 89 L 316 83 L 320 81 L 322 86 L 327 85 L 328 88 L 327 93 L 321 95 L 322 101 Q 320 106 324 105 L 329 114 L 328 119 L 328 121 Q 326 126 327 136 L 326 137 L 327 140 L 326 144 L 327 145 L 327 195 L 328 196 L 327 199 L 328 204 L 327 206 L 329 209 L 330 208 Q 329 203 331 202 L 329 198 Q 327 190 331 189 Q 330 186 333 187 L 332 8 L 331 8 L 323 8 L 322 7 L 320 8 L 317 7 L 313 8 L 308 7 L 306 7 L 298 7 L 297 8 L 292 7 L 289 8 L 287 7 L 276 7 L 275 8 L 272 7 L 270 8 L 267 7 L 259 8 L 257 8 L 253 7 L 251 7 L 248 8 L 243 7 L 241 7 L 239 8 L 236 7 L 233 8 L 229 7 L 226 8 L 221 7 L 216 8 L 214 7 L 210 8 L 208 7 L 206 8 L 202 7 L 189 7 L 188 8 L 183 7 L 180 8 L 178 7 L 163 7 L 161 7 Q 155 6 154 8 L 152 7 L 148 8 L 139 7 L 137 7 L 135 8 L 130 7 L 126 7 L 123 8 L 120 7 L 115 8 L 113 8 L 111 7 L 109 8 L 100 8 L 99 7 L 97 8 L 66 8 L 65 7 Z M 164 21 L 164 34 L 168 34 L 173 28 L 172 26 Q 170 20 164 21 Z M 175 21 L 175 24 L 178 22 L 175 21 Z M 176 31 L 173 34 L 177 34 Q 178 30 176 31 Z M 170 40 L 170 46 L 172 45 Q 174 39 170 40 Z M 20 49 L 20 52 L 23 53 L 22 51 Q 23 48 20 49 Z M 163 49 L 162 51 Q 166 52 165 50 L 163 49 Z M 29 51 L 25 58 L 29 55 L 29 51 Z M 179 52 L 177 55 L 180 53 L 179 52 Z M 164 53 L 165 55 L 167 54 L 164 53 Z M 165 56 L 165 58 L 168 57 L 165 56 Z M 19 57 Q 17 60 20 59 L 19 57 Z M 274 57 L 274 62 L 274 60 Q 276 58 274 57 Z M 170 59 L 169 61 L 171 60 L 170 59 Z M 29 62 L 27 65 L 29 64 L 29 62 Z M 168 64 L 171 69 L 171 66 L 168 64 Z M 175 68 L 175 74 L 177 74 L 177 72 Q 178 67 175 68 Z M 170 69 L 170 76 L 171 74 L 170 69 Z M 269 72 L 269 73 L 271 73 L 269 72 Z M 29 74 L 25 77 L 27 77 L 28 80 L 27 82 L 28 84 L 31 85 Q 35 83 32 82 L 34 82 L 29 74 Z M 23 75 L 20 80 L 21 85 L 23 79 L 23 75 Z M 177 79 L 175 85 Q 173 90 177 89 L 176 88 L 177 85 L 177 79 Z M 254 80 L 254 84 L 256 83 Q 257 79 254 80 Z M 276 81 L 274 83 L 277 83 L 276 81 Z M 270 82 L 268 86 L 268 93 L 269 93 Q 267 87 271 88 L 270 87 L 273 86 L 274 84 Q 271 85 272 82 L 270 82 Z M 249 83 L 249 85 Q 248 87 251 86 L 250 85 Q 251 82 249 83 Z M 276 84 Q 275 87 278 86 Q 279 83 276 84 Z M 104 85 Q 101 86 102 90 L 104 89 L 104 85 Z M 279 86 L 278 88 L 277 87 L 271 89 L 278 90 L 277 93 L 278 94 L 280 91 Q 281 87 279 86 Z M 28 87 L 27 90 L 28 90 L 28 87 Z M 169 87 Q 168 90 171 89 Q 172 86 169 87 Z M 251 90 L 251 91 L 253 91 L 251 90 Z M 297 90 L 295 94 L 297 94 L 297 90 Z M 95 91 L 91 92 L 91 94 L 96 94 L 95 91 Z M 109 91 L 105 96 L 109 93 L 109 91 Z M 170 93 L 170 96 Q 173 95 170 93 Z M 176 94 L 175 97 L 176 97 L 176 94 Z M 274 94 L 275 96 L 276 96 L 274 94 Z M 55 95 L 53 100 L 56 104 L 56 101 L 56 99 L 55 95 Z M 269 95 L 269 97 L 271 96 L 269 95 Z M 31 96 L 30 99 L 31 99 L 31 96 Z M 176 98 L 177 100 Q 178 97 176 98 Z M 256 98 L 255 105 L 259 106 L 262 106 L 259 104 L 257 103 L 258 100 Q 259 97 256 98 Z M 271 98 Q 270 102 275 100 L 275 105 L 275 107 L 276 114 L 276 116 L 275 133 L 274 133 L 274 126 L 271 126 L 271 127 Q 275 126 273 130 L 271 131 L 273 131 Q 274 134 272 133 L 270 136 L 272 135 Q 274 134 273 141 L 274 141 Q 273 136 276 137 L 275 142 L 276 151 L 279 149 L 279 151 L 280 151 L 280 143 L 279 148 L 277 145 L 277 131 L 276 130 L 278 123 Q 280 117 277 116 L 279 112 L 279 101 L 278 99 L 271 98 Z M 315 98 L 313 100 L 316 100 L 315 98 Z M 260 100 L 259 103 L 260 103 L 260 100 Z M 62 102 L 59 107 L 60 108 L 62 105 Q 64 103 62 102 Z M 302 102 L 300 104 L 302 104 L 302 102 Z M 245 103 L 243 105 Q 242 107 245 106 L 245 103 Z M 176 105 Q 173 106 174 110 L 170 111 L 173 112 L 175 111 L 178 112 L 178 110 L 177 110 L 176 105 Z M 47 106 L 50 110 L 53 109 L 47 106 Z M 171 106 L 171 107 L 173 107 L 171 106 Z M 152 107 Q 150 111 153 112 L 155 112 L 154 108 L 152 107 Z M 258 107 L 257 108 Q 254 107 255 110 L 258 109 L 260 110 Q 263 111 262 108 L 258 107 Z M 267 107 L 264 113 L 262 112 L 258 114 L 259 116 L 262 115 Q 266 114 264 118 L 261 119 L 263 119 L 264 122 L 262 126 L 264 126 Q 267 128 263 130 L 264 132 L 261 133 L 262 135 L 262 137 L 260 147 L 261 149 L 256 148 Q 257 144 255 143 Q 251 145 255 147 L 252 148 L 254 153 L 252 156 L 254 159 Q 256 158 254 157 L 256 154 L 258 155 L 257 157 Q 256 159 259 158 L 260 162 L 259 166 L 261 166 L 261 158 L 259 157 Q 258 154 261 155 Q 263 151 262 143 L 265 137 Q 264 132 266 131 Q 268 125 265 124 L 266 122 Q 268 116 265 115 L 267 111 L 267 107 Z M 299 107 L 299 109 L 301 108 L 299 107 Z M 159 108 L 160 114 L 161 111 Q 162 107 159 108 Z M 318 108 Q 314 109 315 114 L 318 115 L 318 111 L 319 111 L 318 116 L 320 116 L 321 111 L 322 111 Q 324 117 321 119 Q 320 122 323 121 L 326 116 L 323 108 L 321 109 L 318 108 Z M 99 109 L 97 113 L 99 116 L 100 112 L 101 117 L 102 117 Q 103 112 101 111 Q 102 108 99 109 Z M 303 110 L 300 111 Q 301 116 299 117 L 293 115 Q 292 118 297 117 L 300 121 L 300 123 L 297 124 L 296 120 L 295 120 Q 293 125 297 127 L 297 126 L 300 127 Q 302 128 301 125 Q 304 124 303 128 L 303 130 Q 304 132 300 131 L 301 134 Q 300 137 303 136 L 305 130 L 304 124 L 303 124 Q 300 125 301 123 L 301 121 L 302 117 Q 301 114 304 115 L 305 121 L 306 121 Q 307 112 303 110 Z M 271 111 L 271 112 L 274 112 L 271 111 Z M 106 112 L 106 117 L 107 115 L 106 112 Z M 138 113 L 135 117 L 136 120 L 138 116 L 138 113 Z M 53 114 L 52 115 Q 49 114 50 117 L 54 115 L 53 114 Z M 250 114 L 249 117 L 251 119 L 252 115 L 250 114 Z M 24 115 Q 22 118 25 117 L 24 115 Z M 127 115 L 127 117 L 131 120 L 130 117 L 127 115 Z M 254 115 L 254 117 L 256 116 L 254 115 Z M 152 116 L 152 117 L 156 117 L 152 116 Z M 172 117 L 170 121 L 172 121 L 173 122 Q 175 116 172 117 Z M 293 117 L 292 120 L 293 120 L 293 117 Z M 108 118 L 108 120 L 110 121 Q 111 117 108 118 Z M 272 118 L 272 119 L 274 119 L 272 118 Z M 272 121 L 270 123 L 274 123 Q 275 120 272 121 Z M 304 121 L 305 123 Q 306 120 304 121 Z M 85 123 L 83 126 L 87 129 L 85 123 Z M 91 123 L 90 127 L 92 128 L 91 123 Z M 141 123 L 138 124 L 136 127 Q 140 128 141 126 L 141 123 Z M 173 123 L 170 128 L 173 128 L 173 123 Z M 32 124 L 31 127 L 32 127 L 32 124 Z M 127 125 L 127 127 L 131 126 L 127 125 Z M 257 125 L 256 131 L 257 135 L 258 134 Q 257 129 259 128 Q 260 124 257 125 Z M 294 127 L 293 129 L 297 131 L 300 131 Q 299 128 298 130 L 294 127 Z M 24 129 L 23 132 L 24 132 L 24 129 Z M 32 129 L 31 133 L 32 133 L 32 129 Z M 52 129 L 50 131 L 51 134 L 51 131 Q 55 129 54 133 L 51 135 L 54 137 L 53 137 L 53 138 Q 56 137 54 142 L 56 143 L 55 138 L 56 130 L 52 129 Z M 105 129 L 103 131 L 104 132 L 107 131 L 105 129 Z M 279 130 L 278 139 L 279 139 L 279 130 Z M 172 131 L 170 134 L 172 133 L 176 136 L 174 137 L 172 137 L 174 142 L 172 143 L 174 143 Q 175 145 176 143 Q 175 139 178 140 L 178 135 L 176 134 L 176 133 Q 175 130 172 131 Z M 87 132 L 85 134 L 89 134 Q 90 131 87 132 Z M 107 133 L 108 135 Q 109 132 107 133 Z M 296 133 L 296 134 L 299 134 L 296 133 Z M 57 136 L 58 139 L 58 141 Q 61 140 60 143 L 59 145 Q 61 144 60 147 L 61 147 L 60 138 L 57 136 Z M 299 136 L 295 137 Q 294 140 297 139 Q 298 142 295 141 L 295 144 L 297 143 L 300 143 L 300 140 Q 304 142 303 138 L 302 138 L 299 136 Z M 51 138 L 50 155 L 49 156 L 50 159 L 49 161 L 50 164 L 54 164 L 51 163 L 54 159 L 54 155 L 51 153 L 51 138 Z M 272 138 L 270 140 L 272 140 L 272 138 Z M 32 139 L 29 140 Q 28 143 32 142 L 32 139 Z M 318 139 L 316 145 L 316 152 L 318 152 L 319 147 L 318 139 Z M 24 140 L 23 143 L 24 143 L 24 140 Z M 256 140 L 254 142 L 256 142 L 257 143 Q 258 139 256 140 Z M 267 140 L 265 142 L 265 152 L 264 153 L 265 160 L 268 154 L 267 153 L 267 140 Z M 304 141 L 302 143 L 304 143 L 304 141 Z M 21 142 L 20 146 L 21 146 L 21 142 Z M 101 142 L 100 146 L 102 145 L 101 142 Z M 30 143 L 28 146 L 30 153 L 31 152 Q 30 146 32 144 L 30 143 Z M 131 143 L 129 145 L 131 150 L 133 146 Q 136 145 134 149 L 136 149 L 135 147 L 137 147 Q 139 148 138 145 L 131 143 Z M 270 143 L 270 145 L 272 144 L 270 143 Z M 44 144 L 43 147 L 44 147 L 44 144 Z M 178 145 L 173 148 L 176 151 L 177 170 L 178 170 L 178 145 Z M 24 146 L 23 148 L 20 149 L 21 151 L 23 150 L 24 151 L 24 146 Z M 308 146 Q 307 149 310 148 Q 311 145 308 146 Z M 101 147 L 100 153 L 101 153 L 101 147 Z M 301 147 L 300 150 L 301 150 L 301 147 Z M 59 149 L 58 152 L 59 154 L 61 155 Q 63 148 59 149 Z M 305 149 L 306 171 L 306 173 L 305 175 L 305 193 L 305 195 L 306 201 L 307 200 L 308 193 L 312 192 L 315 199 L 316 199 L 316 190 L 315 189 L 315 176 L 316 175 L 314 170 L 314 155 L 311 157 L 307 157 L 306 155 L 308 151 L 305 149 Z M 39 150 L 38 152 L 41 153 L 39 150 Z M 47 150 L 46 160 L 47 160 L 47 150 Z M 284 150 L 283 159 L 284 159 L 284 150 Z M 295 150 L 294 166 L 293 167 L 294 178 L 295 178 L 295 150 Z M 25 151 L 25 153 L 25 156 L 24 153 L 23 156 L 21 154 L 20 158 L 25 157 L 27 157 Q 28 160 31 159 L 32 157 L 28 155 L 26 155 L 26 151 L 25 151 Z M 322 151 L 320 153 L 322 153 L 322 151 Z M 104 152 L 104 153 L 106 153 L 104 152 Z M 280 152 L 278 153 L 278 155 L 277 157 L 280 157 L 280 152 Z M 297 152 L 296 154 L 299 154 L 297 152 Z M 318 153 L 316 157 Q 315 162 317 164 Q 315 170 319 169 Q 320 163 317 161 L 318 158 L 318 153 Z M 303 154 L 302 157 L 303 157 L 303 154 Z M 56 155 L 55 159 L 57 160 Q 58 156 56 155 Z M 100 155 L 99 158 Q 98 160 101 159 L 101 155 L 100 155 Z M 103 155 L 104 157 L 106 156 L 103 155 Z M 272 155 L 270 157 L 271 159 L 272 157 L 272 155 Z M 323 155 L 321 157 L 322 159 L 324 158 Q 325 154 323 155 Z M 291 156 L 289 158 L 290 161 L 291 161 L 291 156 Z M 299 156 L 296 157 Q 295 162 299 165 Q 302 163 298 162 L 300 160 L 299 159 L 300 157 L 299 156 Z M 60 157 Q 59 160 62 159 Q 63 156 60 157 Z M 168 157 Q 167 161 170 160 Q 171 156 168 157 Z M 103 158 Q 102 161 106 160 Q 107 157 103 158 Z M 303 159 L 302 175 L 301 176 L 302 181 L 303 181 L 303 159 Z M 20 160 L 21 163 Q 19 168 23 167 L 23 184 L 22 185 L 23 192 L 24 191 L 25 173 L 26 176 L 26 174 L 30 175 L 31 172 L 24 172 Q 25 169 30 170 L 26 169 Q 23 168 26 166 L 30 167 Q 32 168 31 165 L 24 165 L 22 164 Q 23 159 20 160 Z M 257 160 L 256 165 L 257 165 L 257 160 Z M 28 161 L 29 163 L 31 163 L 28 161 Z M 135 161 L 134 163 L 133 162 L 129 163 L 128 168 L 131 166 L 132 168 L 133 164 L 134 167 L 133 171 L 135 172 L 134 170 L 135 168 L 135 161 Z M 254 161 L 252 164 L 255 164 L 254 161 Z M 265 161 L 264 164 L 263 167 L 264 168 L 267 166 Q 268 162 265 163 L 265 161 Z M 274 161 L 273 163 L 275 162 L 274 161 Z M 103 162 L 103 169 L 102 170 L 104 170 L 105 170 L 104 173 L 105 180 L 106 180 L 106 169 L 104 167 L 105 164 Q 106 161 103 162 Z M 123 162 L 122 168 L 123 168 L 123 162 Z M 251 162 L 250 168 L 251 168 L 251 162 Z M 281 162 L 279 165 Q 280 168 277 167 L 277 171 Q 275 172 276 177 L 276 179 L 275 183 L 277 188 Q 279 183 279 175 L 280 179 L 281 179 L 281 162 Z M 9 163 Q 7 168 10 171 L 11 171 Q 12 165 9 163 Z M 284 164 L 284 169 L 288 169 L 290 173 L 291 173 L 290 165 L 284 164 Z M 100 165 L 99 171 L 101 171 L 100 165 Z M 50 166 L 50 168 L 50 178 L 52 178 L 51 174 L 51 172 Q 52 165 50 166 Z M 74 166 L 73 171 L 74 171 L 74 166 Z M 117 166 L 116 169 L 118 170 L 117 166 Z M 253 166 L 253 168 Q 250 172 251 181 L 247 182 Q 246 185 249 184 L 248 187 Q 245 186 246 189 L 248 189 Q 247 192 251 191 L 253 187 L 253 174 L 254 173 Q 255 165 253 166 Z M 78 168 L 75 173 Q 74 175 77 174 L 78 172 L 78 168 Z M 137 168 L 135 170 L 137 170 L 137 168 Z M 260 169 L 259 178 L 260 178 L 260 169 Z M 14 170 L 13 173 L 14 175 L 16 171 L 14 170 Z M 57 171 L 56 174 L 57 174 L 57 171 Z M 124 171 Q 122 176 126 175 Q 128 170 124 171 Z M 170 171 L 168 173 Q 167 175 170 174 L 170 171 Z M 222 171 L 210 174 L 204 177 L 199 186 L 199 190 L 217 182 L 222 181 L 224 181 L 230 179 Q 239 178 244 180 L 245 174 L 242 172 Q 236 174 235 171 L 222 171 Z M 9 172 L 8 175 L 9 175 L 9 172 Z M 22 172 L 20 174 L 21 176 L 22 176 L 22 172 Z M 18 173 L 14 178 Q 12 185 16 187 Q 15 189 18 188 L 17 187 L 18 184 L 18 173 Z M 99 173 L 99 176 L 102 175 L 99 173 Z M 135 173 L 136 176 L 135 183 L 137 184 L 137 174 L 135 173 Z M 267 173 L 265 175 L 267 176 L 267 173 Z M 178 174 L 177 179 L 179 180 L 178 174 Z M 54 175 L 53 178 L 54 178 L 54 175 Z M 60 175 L 59 178 L 60 178 L 60 175 Z M 264 175 L 263 177 L 265 176 L 264 175 Z M 26 176 L 26 182 L 25 185 Q 23 191 27 190 L 28 178 L 30 179 Q 31 182 29 181 L 30 183 L 31 183 L 31 177 L 26 176 Z M 168 176 Q 167 179 170 178 Q 171 175 168 176 Z M 319 176 L 319 179 Q 322 178 319 176 Z M 100 177 L 99 180 L 103 181 L 102 178 L 100 177 Z M 134 177 L 133 184 L 134 184 L 134 177 Z M 21 178 L 20 189 L 19 190 L 21 190 L 21 178 Z M 270 178 L 270 182 Q 273 183 272 181 L 272 179 L 270 178 Z M 51 179 L 50 181 L 52 182 L 51 179 Z M 60 179 L 59 182 L 60 182 L 60 179 Z M 259 179 L 258 183 L 259 183 L 259 179 Z M 295 179 L 294 185 L 295 185 L 295 179 Z M 9 180 L 9 227 L 10 228 L 9 254 L 8 255 Q 6 261 9 263 L 8 265 L 9 267 L 9 309 L 8 310 L 9 312 Q 6 313 8 320 L 8 322 L 9 325 L 8 328 L 9 331 L 8 357 L 8 359 L 9 361 L 8 362 L 8 372 L 8 374 L 9 457 Q 10 453 14 454 L 14 446 L 15 445 L 14 441 L 15 438 L 12 436 L 11 433 Q 8 434 9 431 Q 12 430 14 433 L 14 418 L 15 417 L 14 415 L 14 405 L 15 404 L 14 401 L 15 398 L 15 396 L 14 391 L 15 389 L 14 387 L 15 384 L 14 382 L 15 378 L 15 376 L 14 374 L 15 373 L 15 350 L 16 349 L 15 347 L 16 345 L 16 331 L 15 329 L 15 327 L 15 308 L 16 307 L 15 305 L 16 303 L 16 291 L 17 290 L 16 288 L 16 274 L 16 272 L 17 269 L 16 267 L 16 203 L 15 202 L 16 197 L 16 195 L 11 184 Q 12 179 9 180 Z M 54 180 L 53 186 L 54 186 L 54 180 Z M 76 180 L 74 182 Q 73 185 78 183 Q 79 186 81 182 Q 80 179 76 180 Z M 168 180 L 168 182 L 170 181 L 168 180 Z M 172 180 L 172 184 L 173 184 Q 174 179 172 180 Z M 178 180 L 176 185 L 177 194 L 178 194 L 178 180 Z M 285 180 L 284 192 L 283 193 L 283 209 L 282 210 L 282 224 L 283 225 L 282 232 L 282 234 L 283 245 L 291 249 L 291 214 L 292 213 L 292 202 L 294 200 L 294 208 L 295 208 L 295 201 L 297 200 L 298 192 L 296 191 L 294 197 L 292 195 Q 293 188 291 185 L 285 180 Z M 319 180 Q 316 184 320 183 L 319 180 Z M 101 182 L 99 184 L 102 185 Q 104 186 103 183 L 101 182 Z M 281 182 L 280 185 L 281 185 L 281 182 Z M 300 182 L 299 186 L 300 186 L 300 182 Z M 60 183 L 58 187 L 59 189 L 58 192 L 59 196 L 61 195 L 60 191 L 60 189 L 61 186 L 60 183 Z M 129 184 L 129 195 L 129 187 Q 131 185 129 184 Z M 168 184 L 168 186 L 170 185 L 168 184 Z M 297 184 L 297 190 L 298 190 L 297 184 Z M 319 184 L 318 188 L 319 188 L 319 184 Z M 100 185 L 99 200 L 100 200 Q 99 196 102 197 L 100 195 L 102 192 L 100 191 Q 99 188 102 189 L 100 185 Z M 137 185 Q 134 186 136 188 L 135 190 L 137 190 L 137 185 Z M 216 185 Q 208 187 203 192 L 204 194 L 206 193 L 208 193 L 213 194 L 210 210 L 215 209 L 216 212 Q 214 216 213 213 L 212 216 L 215 215 L 217 219 L 220 220 L 220 222 L 217 221 L 217 219 L 215 222 L 214 220 L 213 222 L 211 223 L 207 217 Q 206 213 210 215 Q 211 211 208 212 L 207 209 L 209 203 L 205 200 L 203 195 L 202 195 L 202 207 L 205 211 L 204 213 L 205 214 L 205 223 L 210 225 L 212 225 L 214 226 L 221 224 L 228 224 L 231 221 L 231 225 Q 228 228 222 228 L 218 233 L 224 239 L 231 238 L 233 235 Q 232 231 235 232 L 236 234 L 236 232 L 239 230 L 236 236 L 238 235 L 240 236 L 239 235 L 240 231 L 240 228 L 236 221 L 237 219 Q 236 216 239 217 L 239 215 L 237 214 L 235 215 L 229 214 L 228 212 L 232 210 L 233 208 L 235 205 L 229 206 L 228 204 L 230 200 L 232 199 L 231 202 L 230 204 L 233 203 L 232 201 L 234 197 L 233 194 L 230 193 L 231 191 L 230 187 L 227 189 L 225 186 L 221 189 L 218 188 Q 219 190 216 189 L 217 186 L 216 185 Z M 262 185 L 260 189 L 267 210 L 267 193 L 264 192 Q 261 193 262 191 L 262 189 L 262 185 Z M 105 186 L 104 197 L 105 197 L 105 186 Z M 256 186 Q 254 189 257 190 Q 259 191 258 187 L 256 186 Z M 132 187 Q 129 191 133 190 L 132 187 Z M 266 187 L 264 189 L 265 191 L 266 191 L 266 187 Z M 336 187 L 335 191 L 336 191 L 336 187 Z M 29 188 L 29 191 L 31 192 Q 32 187 29 188 Z M 170 188 L 168 190 L 170 190 L 170 188 Z M 277 189 L 276 192 L 276 194 L 275 196 L 277 195 L 277 189 Z M 55 190 L 53 192 Q 52 194 55 193 L 55 195 L 53 196 L 54 198 L 54 200 L 53 202 L 50 201 L 52 204 Q 55 203 54 206 L 52 207 Q 55 207 54 212 L 54 214 L 53 217 L 54 219 L 53 221 L 54 222 L 56 221 L 57 222 L 55 211 L 55 209 Q 54 198 57 192 L 55 190 Z M 236 191 L 236 193 L 238 192 L 236 191 Z M 133 192 L 131 194 L 136 194 Q 137 191 133 192 Z M 170 192 L 168 194 L 170 194 L 170 192 Z M 22 193 L 21 198 L 23 199 Q 24 194 22 193 Z M 26 193 L 26 195 L 28 194 L 26 193 Z M 31 193 L 28 197 L 29 199 L 29 201 Q 30 206 27 209 Q 26 211 29 210 L 27 214 L 30 214 L 30 197 L 31 196 L 31 193 Z M 250 193 Q 243 194 240 199 L 241 201 L 241 200 L 252 195 L 253 199 Q 251 203 250 200 L 245 201 L 239 204 Q 240 207 237 209 L 238 211 L 239 209 L 248 202 L 250 202 L 251 205 Q 253 206 251 207 L 250 205 L 244 208 L 240 213 L 248 208 Q 251 207 250 210 L 240 218 L 241 219 L 248 215 L 250 215 L 252 214 Q 254 213 253 216 L 251 220 L 253 220 L 252 223 L 255 224 Q 257 223 256 226 L 258 225 Q 260 224 259 227 L 261 227 L 260 229 L 262 232 L 264 231 Q 267 230 265 235 Q 268 236 264 238 Q 265 240 262 239 Q 260 243 264 242 L 265 242 L 263 245 L 265 253 L 265 254 Q 267 255 266 253 L 267 253 L 266 255 Q 267 257 264 256 L 265 271 L 265 273 Q 265 277 268 278 Q 269 280 267 279 L 265 279 L 265 281 L 271 281 L 271 282 Q 267 281 268 284 L 271 285 L 274 285 L 274 288 Q 277 287 276 290 L 279 289 Q 281 288 280 291 L 283 292 L 283 295 L 280 293 L 274 295 L 265 291 L 262 290 L 263 293 L 274 299 Q 277 300 276 298 L 279 296 L 278 301 Q 281 302 279 304 Q 278 306 281 305 L 282 298 L 284 303 L 285 297 L 292 293 L 291 291 Q 290 288 293 289 L 294 290 L 292 287 L 293 285 L 296 287 L 296 286 L 297 284 Q 293 285 294 282 L 298 284 L 299 281 L 298 274 L 295 272 L 297 276 L 294 275 L 294 274 L 293 272 L 296 270 L 296 268 L 294 269 L 291 268 L 292 272 L 292 281 L 288 291 L 284 292 L 289 283 L 289 272 L 287 277 L 285 278 L 288 270 L 286 270 L 287 264 Q 283 263 285 268 L 283 268 L 286 263 Q 286 257 283 254 L 280 260 L 283 259 L 280 264 L 279 264 L 280 261 L 277 262 L 282 254 L 282 250 L 279 256 L 277 257 L 281 250 L 281 247 L 275 258 L 274 258 L 280 246 L 277 244 L 278 246 L 271 260 L 269 261 L 270 259 L 269 259 L 268 257 L 267 259 L 266 259 L 270 250 L 268 251 L 266 250 L 268 246 L 269 248 L 271 243 L 269 243 L 275 234 L 271 225 L 269 226 L 268 224 L 266 227 L 265 226 L 265 224 L 267 219 L 265 212 L 262 217 L 260 215 L 261 212 L 259 212 L 260 209 L 258 209 L 261 204 Q 262 196 258 193 L 255 195 Q 254 192 250 193 Z M 303 193 L 302 196 L 303 196 L 303 193 Z M 300 195 L 299 204 L 300 204 L 300 195 Z M 20 196 L 20 204 L 23 203 Q 24 200 20 201 L 20 196 Z M 176 196 L 175 200 L 176 200 L 176 196 Z M 336 196 L 335 199 L 336 199 L 336 196 Z M 281 197 L 279 199 L 280 208 L 280 202 L 281 199 L 281 197 Z M 129 198 Q 127 202 129 204 L 128 209 Q 127 212 130 211 L 131 208 L 130 206 L 132 203 L 129 198 Z M 208 198 L 210 200 Q 211 197 208 198 Z M 25 199 L 25 207 L 21 206 L 18 205 L 19 207 L 20 228 L 23 227 L 24 228 L 24 225 L 21 226 L 22 223 L 22 221 Q 21 217 25 219 L 25 209 L 27 208 L 26 204 L 27 201 Q 28 198 25 199 Z M 313 199 L 311 201 L 313 201 L 313 199 Z M 58 200 L 57 205 L 58 205 L 58 200 Z M 316 200 L 313 204 L 314 206 L 313 209 L 310 209 L 306 207 L 306 243 L 307 244 L 307 266 L 305 274 L 305 288 L 307 296 L 306 297 L 306 321 L 305 322 Q 303 328 306 330 L 305 332 Q 303 338 306 340 L 306 379 L 305 383 L 305 385 L 306 388 L 306 390 L 305 393 L 306 395 L 306 412 L 307 414 L 306 417 Q 304 423 307 425 L 306 435 L 306 437 L 307 448 L 310 444 L 316 441 L 316 341 L 315 340 L 315 314 L 316 313 L 316 296 L 315 295 Q 313 288 316 287 L 315 284 L 315 268 L 316 267 L 315 265 L 316 263 L 315 258 L 315 256 L 316 252 L 316 226 L 315 225 L 316 221 L 315 216 L 316 214 L 316 200 Z M 277 201 L 275 203 L 277 203 L 277 201 Z M 99 202 L 99 207 L 101 207 L 100 205 L 101 203 L 99 202 Z M 335 202 L 335 203 L 337 203 L 335 202 Z M 319 203 L 318 207 L 320 206 L 319 203 Z M 262 204 L 260 208 L 262 208 L 261 211 L 263 211 L 261 214 L 262 215 L 264 212 L 263 206 L 262 204 Z M 311 204 L 310 207 L 312 207 L 311 204 Z M 335 206 L 336 208 Q 337 205 335 206 Z M 319 207 L 318 210 L 318 229 L 320 229 L 321 225 L 320 224 L 320 214 L 319 213 L 321 209 Q 322 206 319 207 Z M 100 208 Q 97 212 101 211 L 100 208 Z M 179 208 L 178 214 L 179 214 L 179 208 Z M 276 208 Q 275 211 278 210 Q 279 207 276 208 Z M 333 209 L 331 211 L 331 212 L 327 212 L 328 216 L 328 218 L 327 220 L 328 222 L 327 223 L 327 240 L 326 241 L 327 242 L 327 310 L 328 311 L 327 315 L 328 316 L 328 331 L 329 332 L 328 339 L 328 341 L 328 349 L 329 350 L 327 355 L 328 356 L 328 386 L 328 388 L 329 389 L 329 403 L 330 404 L 329 406 L 330 409 L 330 411 L 329 415 L 330 420 L 329 424 L 330 429 L 329 431 L 330 434 L 329 436 L 329 443 Q 333 443 332 448 L 334 447 L 333 445 L 333 422 L 332 421 Q 331 416 333 415 L 333 306 L 332 305 L 333 303 L 332 298 Q 331 293 333 292 L 333 209 Z M 106 210 L 105 214 L 106 214 L 106 210 Z M 114 210 L 113 213 L 114 213 L 114 210 Z M 120 210 L 116 216 L 118 216 L 120 212 L 120 210 Z M 167 210 L 167 212 L 169 211 L 167 210 Z M 100 212 Q 98 215 101 214 L 100 212 Z M 131 213 Q 129 216 132 215 L 131 213 Z M 176 213 L 175 217 L 176 217 L 176 213 Z M 278 213 L 277 215 L 276 217 L 279 217 L 278 213 Z M 101 215 L 99 217 Q 98 219 101 218 L 101 215 Z M 106 215 L 105 222 L 106 222 L 106 215 Z M 27 216 Q 26 219 30 218 Q 31 215 27 216 Z M 301 218 L 299 222 L 302 220 L 303 221 L 303 220 L 301 218 Z M 99 219 L 99 225 L 101 224 Q 103 218 99 219 Z M 294 219 L 294 221 L 297 220 L 294 219 Z M 38 220 L 37 223 L 38 226 L 40 222 Q 41 219 38 220 Z M 178 220 L 177 221 Q 174 220 175 223 L 176 225 L 178 224 L 178 220 Z M 268 220 L 266 223 L 268 222 L 268 220 Z M 30 221 L 28 224 Q 30 223 29 226 L 30 226 L 30 221 Z M 52 221 L 51 230 L 52 230 L 52 221 Z M 103 221 L 102 228 L 103 228 L 103 221 Z M 131 222 L 129 230 Q 127 234 131 233 L 131 231 L 131 222 Z M 268 222 Q 267 225 270 224 Q 271 221 268 222 Z M 301 222 L 300 224 L 298 225 L 301 227 L 301 222 Z M 143 224 L 141 226 L 142 228 L 143 228 L 143 224 Z M 168 224 L 167 227 L 168 227 L 168 224 Z M 275 224 L 275 227 L 279 226 Q 280 222 275 224 Z M 54 225 L 53 228 L 54 228 L 54 225 Z M 151 225 L 148 227 L 151 227 L 151 225 Z M 188 225 L 183 227 L 182 229 L 185 228 L 185 230 Q 187 233 188 230 L 187 227 L 191 229 Q 193 230 192 227 Q 198 225 196 231 Q 193 232 194 229 Q 190 228 192 234 L 195 232 L 195 235 Q 193 236 196 237 L 196 235 L 199 233 L 197 232 L 198 227 L 200 232 Q 204 230 201 229 L 202 227 L 203 225 L 200 227 L 198 225 L 188 225 Z M 98 226 L 97 231 L 99 239 L 100 233 L 99 231 L 102 229 L 98 226 Z M 106 226 L 105 232 L 106 232 L 106 226 Z M 134 226 L 132 230 L 133 244 L 133 231 L 134 230 L 134 226 Z M 139 226 L 137 228 L 137 246 Q 135 247 138 248 L 139 246 Q 138 237 141 233 L 141 231 Q 142 228 139 229 L 139 228 L 139 226 Z M 177 226 L 176 229 L 177 229 L 177 226 Z M 248 227 L 248 233 L 250 232 L 249 229 L 251 229 L 248 227 Z M 254 228 L 255 232 L 256 229 L 254 228 Z M 299 228 L 299 229 L 301 229 L 299 228 Z M 41 229 L 39 232 L 42 230 L 41 229 Z M 245 229 L 243 231 L 245 231 L 245 229 Z M 20 230 L 19 232 L 23 233 L 23 231 L 20 230 Z M 51 230 L 51 241 L 52 234 L 51 230 Z M 183 230 L 179 234 L 180 236 L 182 237 L 181 234 L 183 233 L 183 230 Z M 190 230 L 188 232 L 191 233 L 190 230 Z M 28 231 L 28 234 L 26 244 L 29 248 Q 31 247 29 246 L 30 232 L 28 231 Z M 212 231 L 212 234 L 213 234 Q 214 230 212 231 Z M 295 231 L 295 234 Q 298 233 295 231 Z M 300 231 L 297 232 Q 296 235 299 234 Q 300 238 297 237 L 300 242 L 301 240 L 300 231 Z M 320 231 Q 317 232 319 234 L 318 238 L 320 238 L 320 231 Z M 54 232 L 53 235 L 54 235 L 54 232 Z M 185 232 L 184 234 L 188 235 L 189 238 L 189 235 L 185 232 Z M 205 232 L 204 234 L 206 235 L 205 232 Z M 60 233 L 59 260 L 59 262 L 60 264 L 59 266 L 57 266 L 57 261 L 55 261 L 56 276 L 56 269 L 60 267 Q 61 270 58 269 Q 57 272 60 271 L 61 270 L 61 260 L 61 256 L 60 252 L 61 249 L 60 236 Q 62 234 60 233 Z M 109 233 L 108 237 L 110 236 L 109 233 Z M 201 233 L 200 235 L 203 237 L 201 233 Z M 20 234 L 19 236 L 23 236 L 20 234 Z M 235 234 L 233 237 L 235 236 L 235 234 Z M 257 234 Q 254 238 258 237 L 257 234 Z M 102 235 L 100 247 L 103 247 L 102 246 L 102 235 Z M 214 235 L 212 238 L 214 237 L 214 235 Z M 249 235 L 247 238 L 246 236 L 245 238 L 244 237 L 241 238 Q 238 239 239 243 L 235 244 L 221 263 L 217 266 L 207 268 L 197 272 L 195 272 L 193 273 L 191 276 L 193 275 L 194 276 L 190 281 L 189 279 L 186 284 Q 187 287 184 286 L 184 284 L 181 288 Q 180 290 183 289 L 184 299 Q 181 300 182 297 L 181 297 L 183 302 L 185 301 L 186 303 L 186 300 L 189 301 L 190 299 Q 189 296 192 297 L 195 302 Q 194 304 198 303 L 197 302 Q 198 299 195 300 L 194 296 Q 192 294 195 293 L 197 298 L 202 301 L 197 294 L 197 291 L 200 291 Q 199 288 202 289 L 204 293 L 206 293 L 203 289 L 206 288 Q 205 285 208 286 L 212 291 L 213 291 L 209 284 L 213 287 Q 212 289 215 288 L 212 284 Q 211 281 214 282 L 217 285 L 215 280 L 219 281 L 217 277 L 221 279 Q 224 277 220 276 Q 219 273 222 274 L 224 268 L 231 267 L 232 264 L 232 266 L 234 267 L 233 263 Q 236 262 235 265 L 237 265 L 236 262 L 239 261 L 239 263 L 243 260 L 242 262 L 244 262 L 245 258 L 254 260 L 254 259 L 251 256 L 249 256 L 244 256 L 245 254 Q 246 251 248 253 L 251 252 L 253 252 Q 256 253 255 250 L 253 249 L 249 250 Q 243 252 244 249 L 244 247 L 245 245 L 246 247 L 249 245 L 255 247 Q 256 243 254 242 L 245 244 L 244 241 L 251 237 L 253 238 L 254 240 L 254 236 L 249 235 Z M 276 235 L 271 241 L 272 243 L 271 246 L 272 247 L 277 239 L 276 235 Z M 198 236 Q 196 239 199 238 L 198 236 Z M 295 236 L 294 250 L 293 251 L 298 254 L 301 254 L 299 253 Q 296 252 298 251 L 296 250 L 295 248 L 295 240 L 296 239 L 295 236 Z M 129 237 L 130 245 L 131 243 L 130 241 L 131 239 Q 132 236 129 237 Z M 184 237 Q 183 240 186 239 Q 187 236 184 237 Z M 192 237 L 191 239 L 198 243 L 198 240 Q 193 241 192 237 Z M 208 237 L 204 238 L 205 242 L 206 242 Q 205 238 209 239 L 208 237 Z M 215 238 Q 214 241 218 240 Q 219 237 215 238 Z M 20 239 Q 18 242 22 241 L 24 243 Q 25 239 23 240 L 20 239 Z M 57 239 L 56 248 L 57 248 L 57 239 Z M 175 239 L 175 241 L 169 243 L 167 248 L 168 253 L 170 249 L 170 247 L 172 244 L 176 246 Q 177 249 173 248 Q 172 251 176 250 L 176 252 L 173 251 L 171 254 L 173 253 Q 176 252 175 255 L 171 254 L 170 257 L 173 258 L 172 258 L 171 260 L 174 259 Q 175 263 170 261 L 170 264 L 166 266 L 167 268 L 173 263 L 176 264 L 185 261 L 190 264 L 191 261 Q 193 262 192 259 L 187 260 L 186 258 L 194 258 L 188 255 L 188 254 Q 195 254 198 258 Q 197 260 196 258 Q 193 257 194 261 L 198 262 L 199 260 L 197 253 L 190 248 Q 185 249 186 246 L 189 247 L 189 246 L 188 243 L 190 243 L 197 248 L 198 251 L 200 251 L 197 246 L 191 241 L 184 241 Q 181 238 175 239 Z M 201 239 L 200 241 L 202 242 L 201 239 Z M 235 239 L 233 242 L 236 240 L 235 239 Z M 278 239 L 276 241 L 277 243 L 278 241 L 278 239 Z M 222 240 Q 220 243 223 242 L 222 240 Z M 320 240 L 318 243 L 320 242 L 320 240 Z M 211 241 L 211 244 L 212 244 Q 213 240 211 241 Z M 208 242 L 208 247 L 210 248 L 208 242 Z M 223 242 L 223 244 Q 224 246 226 244 L 228 249 L 229 244 L 229 242 L 223 242 Z M 320 243 L 318 246 L 320 246 L 320 243 Z M 215 244 L 215 247 Q 214 249 217 248 L 218 246 L 215 244 Z M 201 245 L 202 249 L 203 246 L 201 245 Z M 225 246 L 223 253 L 225 252 L 225 246 Z M 259 246 L 257 248 Q 256 251 259 250 L 259 246 Z M 276 246 L 273 248 L 275 250 L 276 248 L 276 246 Z M 299 246 Q 297 249 300 248 L 299 246 Z M 19 247 Q 19 250 21 248 L 23 249 L 25 249 Q 24 246 19 247 Z M 50 247 Q 49 250 52 249 Q 53 246 50 247 Z M 129 247 L 129 249 L 131 248 L 129 247 Z M 205 247 L 205 250 L 206 250 Q 207 246 205 247 Z M 30 248 L 27 251 L 30 251 L 30 248 Z M 218 248 L 218 249 L 220 249 L 218 248 Z M 285 248 L 284 251 L 290 254 L 289 258 L 291 257 Q 293 256 292 259 L 292 260 Q 294 259 293 262 L 289 265 L 291 266 L 293 265 Q 292 267 295 266 Q 299 265 298 258 L 295 256 Q 294 259 297 258 L 297 260 Q 293 260 293 255 L 285 250 L 285 248 Z M 272 249 L 268 256 L 269 257 L 271 254 L 272 256 L 274 253 L 274 250 L 272 253 L 272 252 L 272 249 Z M 319 249 Q 317 254 320 254 Q 321 256 322 254 L 321 253 L 319 249 Z M 22 250 L 21 254 L 19 255 L 21 255 L 22 258 L 21 261 L 23 262 L 23 252 L 22 250 Z M 97 250 L 98 272 L 98 271 L 99 271 L 99 279 L 101 279 Q 100 275 103 274 Q 104 270 101 271 L 103 268 Q 105 269 104 267 L 103 267 Q 100 268 101 264 L 103 264 L 101 263 Q 100 260 103 261 L 104 259 Q 100 260 101 257 L 98 256 L 99 252 Q 100 249 97 250 Z M 216 250 L 216 254 Q 215 257 218 256 Q 220 251 216 252 L 216 250 Z M 56 251 L 57 253 Q 58 250 56 251 Z M 129 251 L 129 253 L 131 252 L 129 251 Z M 203 251 L 201 258 L 204 256 L 205 257 L 207 255 L 207 251 L 205 255 L 203 251 Z M 30 252 Q 25 254 29 257 L 28 259 L 30 259 L 30 252 Z M 52 252 L 52 254 L 54 253 L 52 252 Z M 134 252 L 132 256 Q 135 257 133 264 Q 131 265 134 267 L 133 269 Q 132 274 135 275 L 135 257 L 135 255 L 134 252 Z M 257 252 Q 256 255 259 254 Q 260 251 257 252 Z M 104 253 L 102 255 L 104 255 L 104 253 Z M 213 253 L 211 256 Q 210 259 214 257 L 213 253 Z M 24 254 L 24 260 L 24 262 L 25 263 L 25 280 L 25 282 Q 24 284 27 283 L 26 281 L 27 279 L 26 276 L 27 274 L 26 272 L 27 269 L 27 267 L 27 257 L 26 256 Q 27 253 24 254 Z M 220 254 Q 218 257 221 256 L 220 254 Z M 129 256 L 129 258 L 131 257 L 129 256 Z M 257 256 L 256 259 L 258 260 L 257 256 Z M 206 257 L 204 259 L 205 261 L 204 265 Q 203 268 207 266 L 206 257 Z M 210 257 L 209 259 L 211 260 L 210 257 Z M 319 257 L 318 261 L 319 261 L 319 257 Z M 217 258 Q 217 261 213 260 L 214 263 L 217 261 L 217 258 Z M 18 259 Q 17 262 20 261 Q 21 258 18 259 Z M 303 259 L 301 261 L 304 261 L 303 259 Z M 202 260 L 200 265 L 202 268 L 204 267 L 202 266 L 202 260 Z M 30 261 L 28 263 L 30 263 L 30 261 Z M 210 261 Q 207 266 211 265 Q 214 263 210 261 Z M 257 261 L 256 263 L 249 267 L 246 290 L 246 292 L 239 327 L 240 329 L 240 328 L 242 328 L 242 319 L 245 313 L 245 307 L 247 307 Q 249 301 246 300 L 247 294 L 250 292 L 250 308 L 245 321 L 245 325 L 247 324 Q 249 323 248 328 L 250 327 Q 251 322 247 322 L 249 321 L 248 319 L 249 317 L 249 319 L 251 318 L 249 315 L 251 309 L 251 289 L 251 285 L 250 283 Q 249 277 252 276 Q 254 277 252 279 L 253 283 L 257 264 L 257 261 Z M 21 263 Q 20 266 23 265 Q 24 262 21 263 Z M 193 263 L 194 267 L 195 264 L 193 263 Z M 301 263 L 300 265 L 303 266 L 304 266 L 301 263 Z M 129 264 Q 128 267 131 266 Q 132 263 129 264 Z M 183 264 Q 180 267 173 266 Q 168 269 167 274 L 165 273 L 157 276 Q 154 279 155 287 L 156 290 Q 154 294 158 293 L 160 295 L 157 291 Q 156 287 159 288 L 160 292 Q 164 294 160 296 L 164 296 L 166 287 L 166 285 L 162 285 L 162 284 L 161 284 L 163 290 L 163 292 L 158 284 L 161 283 Q 160 278 163 279 L 164 282 L 166 279 L 165 276 L 167 276 L 181 269 Q 183 270 182 268 L 187 266 Q 186 263 183 264 Z M 198 266 L 196 268 Q 195 270 198 269 Q 201 268 198 266 Z M 259 266 L 257 271 L 259 273 Q 259 281 263 287 Q 266 291 273 292 L 275 292 L 273 289 L 266 288 L 263 283 L 263 279 L 260 274 L 259 266 Z M 21 267 L 22 276 L 23 276 L 23 268 L 21 267 Z M 50 267 L 49 272 L 50 272 L 50 267 Z M 30 268 L 28 270 L 30 271 L 30 268 Z M 319 268 L 318 281 L 321 279 L 320 277 Q 319 274 322 275 Q 323 272 320 273 L 320 270 L 322 270 L 319 268 Z M 129 269 L 130 277 L 131 273 Q 132 268 129 269 Z M 192 269 L 189 271 L 187 270 L 183 270 L 174 274 L 167 282 L 168 283 L 170 282 Q 171 287 167 290 L 167 299 L 168 300 Q 167 303 170 302 L 172 298 L 169 298 Q 170 295 172 297 Q 175 298 173 294 L 170 293 L 174 292 L 171 290 Q 170 287 174 288 L 174 287 Q 170 288 171 285 Q 174 284 176 287 L 176 284 L 172 283 L 173 281 L 178 283 L 174 279 L 175 277 L 180 280 L 177 277 Q 176 274 179 275 L 181 275 L 184 276 L 183 274 Q 185 270 187 274 L 193 270 L 192 269 Z M 301 269 L 299 271 L 303 272 L 303 271 L 301 269 Z M 105 270 L 104 285 L 105 285 L 105 270 Z M 233 270 L 220 286 Q 221 288 218 287 L 216 291 L 216 299 L 215 300 Q 213 306 217 305 L 216 303 L 217 302 L 217 294 L 221 293 L 222 297 Q 225 298 224 296 L 224 294 L 225 294 L 225 299 L 222 300 L 219 299 L 218 312 L 217 313 Q 215 323 218 329 L 219 329 L 218 325 L 219 304 L 223 302 L 225 303 L 222 305 L 225 306 L 223 328 L 226 328 L 225 323 L 226 303 L 228 304 L 227 308 L 228 315 L 231 297 L 231 289 L 230 288 L 231 285 L 232 287 L 232 273 L 233 272 L 233 270 Z M 20 271 L 19 276 L 20 276 L 20 271 Z M 29 272 L 29 274 L 29 284 L 28 285 L 28 290 L 24 290 L 24 292 L 28 294 L 27 296 L 30 295 L 30 273 L 29 272 Z M 235 272 Q 234 275 237 274 Q 238 271 235 272 Z M 58 274 Q 57 277 60 276 Q 61 273 58 274 Z M 132 274 L 133 278 L 132 281 L 132 290 L 134 291 L 134 283 L 134 281 L 135 279 L 134 276 L 132 274 Z M 256 276 L 256 278 L 256 280 L 259 289 L 262 289 L 258 281 Q 260 275 256 276 Z M 23 278 L 22 283 L 23 283 L 23 278 Z M 60 278 L 58 281 L 60 282 L 60 278 Z M 185 278 L 183 281 L 185 280 L 185 278 Z M 303 279 L 301 281 Q 300 283 303 282 L 303 279 Z M 49 280 L 50 282 Q 51 279 49 280 Z M 56 280 L 56 293 L 57 290 L 56 288 L 57 285 L 56 280 Z M 26 284 L 24 286 L 25 288 Q 27 289 26 287 Q 28 285 26 284 Z M 59 284 L 59 287 L 58 289 L 59 292 L 58 294 L 58 310 L 58 314 Q 60 320 56 322 Q 55 324 58 323 L 59 322 L 59 301 L 60 300 L 60 286 L 59 284 Z M 129 284 L 128 292 L 130 292 L 129 284 Z M 301 284 L 299 287 L 303 288 L 303 285 L 301 284 Z M 20 286 L 19 294 L 20 294 L 20 286 Z M 23 286 L 22 293 L 23 293 L 23 286 Z M 99 286 L 99 290 L 100 290 Q 101 285 99 286 Z M 179 286 L 178 289 L 179 289 L 179 286 Z M 321 286 Q 320 289 323 288 Q 324 285 321 286 Z M 256 287 L 256 297 L 258 296 L 257 293 L 257 291 L 256 287 Z M 296 289 L 296 291 L 303 292 L 303 291 Q 301 287 296 289 Z M 49 290 L 48 299 L 49 299 L 49 290 Z M 105 290 L 103 292 L 105 292 L 105 290 Z M 323 290 L 321 292 L 323 292 L 323 290 Z M 102 291 L 101 296 L 102 296 L 102 291 Z M 201 291 Q 199 296 203 297 Q 205 296 204 299 L 206 299 L 201 291 Z M 260 291 L 259 293 L 261 294 L 260 291 Z M 296 291 L 293 300 L 293 307 L 295 306 L 294 301 L 296 300 L 295 299 Q 294 296 297 297 L 297 295 L 300 295 L 302 295 L 303 295 Q 301 291 296 293 L 296 291 Z M 131 293 L 129 295 L 130 296 L 133 294 L 134 295 Q 135 291 131 293 Z M 208 294 Q 206 297 209 296 L 208 294 Z M 262 294 L 261 298 L 269 302 Q 271 301 270 306 L 272 305 L 274 306 L 278 305 L 277 301 L 272 301 L 262 294 Z M 319 294 L 317 297 L 318 299 L 319 299 L 319 294 Z M 213 295 L 203 303 Q 202 308 204 310 Q 203 314 207 312 L 206 309 Q 204 304 208 305 L 209 305 L 208 308 L 208 324 Q 210 325 208 326 L 206 323 L 206 320 Q 203 321 204 319 L 206 319 Q 207 316 205 317 L 203 317 Q 202 322 205 324 L 204 326 Q 205 330 200 328 L 202 331 L 204 330 L 206 331 L 210 330 L 210 322 L 209 321 L 209 312 L 213 298 L 213 295 Z M 23 296 L 21 300 Q 20 302 19 300 L 18 312 L 19 312 L 19 303 L 21 302 L 20 308 Q 22 313 21 322 Q 23 325 24 322 L 24 313 L 22 311 L 24 307 L 23 304 L 23 300 L 23 296 Z M 102 296 L 101 299 L 102 300 L 104 297 L 102 296 Z M 134 296 L 131 298 L 133 298 Q 134 301 132 300 L 132 301 Q 134 300 133 305 Q 132 307 131 305 L 129 306 L 129 307 Q 135 305 133 312 L 134 312 L 134 296 Z M 218 296 L 218 298 L 220 299 Q 221 295 218 296 Z M 26 297 L 25 299 Q 29 298 28 301 L 24 302 L 27 303 L 28 304 L 28 310 L 26 311 L 28 314 L 27 313 Q 24 312 25 316 L 29 317 L 29 302 L 30 301 Q 32 295 26 297 Z M 179 297 L 178 300 L 179 300 L 179 297 Z M 256 297 L 256 312 L 256 302 L 257 301 L 256 297 Z M 290 297 Q 287 298 288 303 L 286 304 L 283 307 L 283 323 L 282 324 Q 281 326 284 325 L 284 330 L 283 333 L 284 335 L 283 336 L 283 352 L 283 354 L 283 363 L 284 364 L 283 366 L 284 368 L 284 380 L 283 381 L 283 407 L 284 408 L 283 411 L 284 413 L 284 423 L 283 424 L 284 427 L 283 429 L 283 450 L 290 451 L 292 446 L 292 404 L 292 402 L 292 394 L 293 393 L 292 390 L 292 355 L 291 354 L 292 351 L 291 338 L 290 337 L 290 300 L 291 299 Q 292 296 290 297 Z M 97 299 L 98 301 L 100 300 L 97 299 Z M 259 299 L 260 310 L 261 303 Q 262 298 259 299 Z M 163 300 L 161 302 L 162 305 Q 161 308 164 307 L 163 300 Z M 104 301 L 103 305 L 104 305 L 104 301 Z M 98 302 L 98 308 L 100 303 L 98 302 Z M 173 302 L 171 304 Q 170 307 173 306 L 174 304 Q 175 301 173 302 Z M 239 302 L 237 305 L 238 309 L 239 306 L 239 302 Z M 264 302 L 263 309 L 264 309 L 264 302 Z M 318 302 L 318 309 L 321 310 L 323 309 L 322 308 L 319 308 L 321 303 L 318 302 Z M 26 304 L 25 308 L 26 308 L 26 304 Z M 303 304 L 302 308 L 303 308 L 303 304 Z M 234 305 L 233 314 L 234 314 L 234 305 Z M 169 306 L 168 308 L 171 310 L 178 312 L 178 310 L 169 306 Z M 198 306 L 193 311 L 193 313 L 194 313 Q 193 310 196 311 L 195 315 L 195 330 L 197 329 L 196 327 L 197 323 L 196 321 Q 198 317 197 311 L 198 308 L 198 306 Z M 215 306 L 214 309 L 215 309 L 215 306 Z M 49 307 L 48 319 L 47 320 L 49 320 L 49 307 Z M 223 307 L 221 309 L 223 310 L 223 307 Z M 277 307 L 275 309 L 277 309 L 276 316 L 277 329 L 277 331 L 276 334 L 277 336 Q 276 339 279 338 L 277 342 Q 276 344 279 343 L 280 348 L 279 351 L 277 350 L 274 351 L 276 353 L 278 352 L 279 354 L 279 372 L 277 371 Q 270 369 271 373 L 275 372 L 276 376 L 280 375 L 280 376 Q 277 375 278 378 L 275 378 L 273 378 L 272 380 L 279 379 L 280 381 L 278 384 L 279 384 L 279 389 L 277 390 L 280 392 L 278 396 L 281 397 L 281 344 L 280 343 L 281 340 L 280 325 L 278 322 L 279 314 L 279 321 L 280 321 L 280 308 L 277 307 Z M 165 308 L 163 311 L 166 309 L 165 308 Z M 191 308 L 189 310 Q 188 312 191 311 L 191 308 Z M 293 308 Q 292 311 296 310 Q 297 307 293 308 Z M 182 309 Q 180 312 183 311 L 182 309 Z M 214 309 L 213 330 L 215 329 L 214 309 Z M 263 309 L 262 313 L 263 313 L 263 309 Z M 129 310 Q 128 313 131 312 Q 132 309 129 310 Z M 299 310 L 297 313 L 299 312 L 299 310 Z M 165 311 Q 163 314 166 313 L 165 311 Z M 275 311 L 272 313 L 275 313 L 275 311 Z M 301 311 L 301 313 L 303 314 Q 304 310 301 311 Z M 133 312 L 132 322 L 132 324 Q 134 331 130 330 L 130 321 L 131 320 Q 133 314 130 315 L 130 317 Q 128 321 129 330 L 127 330 Q 126 332 130 331 L 129 334 L 132 334 Q 133 337 130 336 L 130 338 L 129 342 L 129 343 Q 131 342 130 345 L 126 342 L 127 340 L 125 339 L 126 345 L 130 346 L 128 350 L 133 350 L 133 327 L 134 326 L 133 312 Z M 204 312 Q 202 315 205 314 L 206 316 L 206 313 L 204 312 Z M 293 312 L 294 316 L 295 314 Q 296 311 293 312 Z M 98 313 L 98 316 Q 97 319 100 318 L 98 313 Z M 170 313 Q 165 315 168 317 Q 167 319 174 318 L 175 317 L 175 314 Q 172 313 173 316 L 170 317 L 170 313 Z M 191 313 L 187 314 Q 186 321 189 326 L 189 322 Q 192 320 190 319 L 191 315 L 192 318 L 193 315 L 191 313 Z M 254 313 L 255 317 L 256 315 Q 257 312 254 313 Z M 324 313 Q 324 316 322 315 L 320 315 L 318 316 L 318 324 L 321 324 L 319 320 L 323 321 L 324 317 L 324 313 Z M 126 315 L 126 317 L 128 316 L 126 315 Z M 181 315 L 181 317 Q 182 321 180 323 L 181 326 L 182 350 L 192 336 L 190 334 L 188 334 Q 185 333 187 332 L 184 322 L 184 315 L 181 315 Z M 18 316 L 17 319 L 18 319 L 18 316 Z M 271 316 L 271 318 L 274 317 L 271 316 Z M 102 317 L 101 319 L 104 319 L 102 317 Z M 268 317 L 266 321 L 266 331 L 263 345 L 264 347 L 263 349 L 267 371 L 268 371 L 268 355 L 267 354 L 267 341 L 268 340 L 268 317 Z M 293 317 L 294 320 L 297 318 L 293 317 Z M 26 318 L 25 321 L 27 322 L 29 322 Q 31 316 26 318 Z M 222 318 L 220 320 L 220 327 L 222 327 L 222 318 Z M 302 318 L 300 320 L 302 320 L 301 323 L 298 322 L 298 324 L 293 323 L 294 328 L 296 327 L 298 333 L 297 336 L 298 338 L 297 341 Q 298 343 296 342 L 294 342 L 294 343 L 298 343 Q 299 346 296 345 Q 294 349 298 348 L 300 343 L 303 341 L 303 319 L 302 318 Z M 126 319 Q 125 323 128 322 Q 129 318 126 319 Z M 175 320 L 169 323 L 173 323 L 174 328 L 174 329 L 175 329 L 175 325 L 177 325 L 177 322 L 175 320 Z M 49 321 L 48 325 L 49 325 L 49 321 Z M 230 321 L 229 324 L 230 324 L 230 321 Z M 259 322 L 257 326 L 259 325 L 259 322 Z M 263 322 Q 261 325 264 324 L 263 322 Z M 23 324 Q 20 326 23 327 L 25 326 L 23 324 Z M 59 324 L 56 326 L 59 326 L 59 324 Z M 100 324 L 99 332 L 100 332 L 100 324 Z M 198 324 L 197 327 L 199 328 L 198 324 Z M 236 326 L 235 335 L 236 335 L 236 326 Z M 25 327 Q 24 330 27 329 Q 28 326 25 327 Z M 49 327 L 48 336 L 49 336 L 49 327 Z M 190 327 L 189 330 L 191 331 L 190 327 Z M 192 327 L 192 330 Q 191 334 194 333 L 192 327 Z M 318 327 L 318 329 L 322 328 L 323 329 L 323 327 L 318 327 Z M 55 328 Q 52 329 53 333 L 55 332 L 55 328 Z M 57 328 Q 56 331 59 330 Q 60 327 57 328 Z M 170 328 L 170 330 L 172 329 L 170 328 Z M 294 329 L 293 333 L 295 332 Q 297 333 296 330 L 294 329 Z M 52 330 L 51 333 L 52 333 L 52 330 Z M 178 330 L 177 335 L 178 335 L 178 330 Z M 25 331 L 26 333 L 27 333 L 25 331 Z M 173 331 L 173 333 L 176 333 L 173 331 Z M 318 331 L 318 348 L 319 348 Q 318 345 321 346 L 322 347 L 322 343 Q 326 344 325 341 L 323 342 Q 320 343 321 341 L 324 339 L 322 338 L 319 340 Q 318 334 321 332 L 318 331 Z M 323 332 L 321 335 L 323 335 L 323 332 Z M 198 333 L 196 337 L 198 336 L 198 333 Z M 99 334 L 100 336 Q 101 333 99 334 Z M 173 335 L 174 338 L 173 344 L 168 347 L 168 348 Q 172 347 171 350 L 169 351 L 172 351 L 173 356 L 174 350 Q 173 346 177 347 Q 178 349 179 347 Q 181 341 176 343 L 175 339 L 175 337 Q 176 334 173 335 Z M 293 335 Q 292 338 296 337 Q 297 334 293 335 Z M 19 336 L 18 341 L 19 341 L 19 336 Z M 166 336 L 166 338 L 168 337 L 166 336 Z M 23 337 L 21 341 L 23 342 L 23 337 Z M 216 337 L 214 339 L 215 342 L 216 342 L 216 337 Z M 219 337 L 219 342 L 220 342 Q 222 336 219 337 Z M 273 337 L 273 338 L 275 338 L 273 337 Z M 49 338 L 48 342 L 49 342 L 49 338 Z M 50 338 L 51 341 L 52 339 L 50 338 Z M 54 338 L 52 345 L 54 346 L 54 338 Z M 29 339 L 28 343 L 29 343 L 29 339 Z M 250 339 L 251 341 L 252 341 L 250 339 Z M 26 340 L 24 342 L 26 342 L 26 340 Z M 207 340 L 206 344 L 207 344 L 207 340 Z M 210 340 Q 209 344 212 343 Q 213 339 210 340 Z M 258 340 L 256 343 L 258 342 L 258 340 Z M 103 341 L 102 344 L 103 344 L 103 341 Z M 260 341 L 259 346 L 260 346 L 260 341 Z M 271 341 L 271 343 L 275 343 L 271 341 Z M 203 342 Q 201 345 204 344 L 203 342 Z M 166 343 L 167 345 L 172 344 L 166 343 Z M 29 344 L 28 355 L 29 355 L 29 344 Z M 21 345 L 21 347 L 23 346 L 21 345 Z M 25 345 L 25 346 L 27 346 L 25 345 Z M 98 345 L 98 348 L 99 348 Q 100 344 98 345 Z M 239 345 L 237 347 L 237 355 L 239 354 L 241 355 L 240 358 L 242 358 Q 244 351 238 353 Q 237 350 241 351 L 241 345 L 239 345 Z M 247 345 Q 247 348 244 347 L 244 351 Q 247 352 245 354 L 247 361 L 250 363 L 248 359 L 247 345 Z M 250 345 L 250 347 L 252 346 L 250 345 Z M 254 345 L 255 351 L 257 350 Q 260 351 259 348 L 254 345 Z M 275 345 L 271 347 L 275 347 L 275 345 Z M 211 346 L 210 347 L 202 347 L 200 349 L 204 350 L 205 348 L 206 352 Q 209 353 208 350 L 208 348 L 209 351 Q 212 352 211 350 L 211 348 L 211 346 Z M 213 346 L 213 350 L 215 350 L 213 346 Z M 49 347 Q 48 350 51 349 Q 52 346 49 347 Z M 54 347 L 52 351 L 48 351 L 48 358 L 51 358 L 49 357 Q 48 354 51 355 L 52 352 L 54 355 L 55 350 L 54 347 Z M 98 348 L 96 355 L 98 365 L 97 367 L 98 370 L 97 374 L 99 373 L 99 356 L 98 348 Z M 189 348 L 182 357 Q 183 365 180 370 L 181 372 L 184 364 L 185 370 L 185 360 L 187 358 L 189 359 L 186 356 L 191 349 L 189 348 Z M 192 348 L 191 353 Q 195 354 194 362 L 196 361 L 195 355 Q 191 353 194 352 Q 195 347 192 348 Z M 222 348 L 220 350 L 222 350 L 223 351 Q 224 347 222 348 Z M 301 348 Q 298 352 299 360 L 297 363 Q 294 362 295 366 Q 292 367 297 369 Q 299 368 298 371 L 298 373 L 299 375 L 298 379 L 299 380 Q 298 389 301 394 L 301 382 L 303 382 L 303 374 L 304 373 L 304 364 L 303 371 L 302 371 Q 300 364 303 363 L 301 348 Z M 324 348 L 323 349 Q 320 348 321 352 L 322 352 Q 321 349 325 350 Q 326 347 324 348 Z M 23 349 L 21 351 L 22 353 L 23 351 L 23 349 Z M 197 349 L 196 352 Q 200 353 199 359 L 200 359 Q 201 351 197 349 Z M 199 349 L 200 351 Q 201 348 199 349 Z M 218 349 L 219 351 Q 220 348 218 349 Z M 175 350 Q 174 353 178 352 Q 179 349 175 350 Z M 203 350 L 201 352 L 203 352 L 203 350 Z M 131 351 L 128 353 L 132 354 Q 134 355 133 352 L 131 351 Z M 217 351 L 215 354 L 216 357 L 218 356 Q 219 352 217 351 Z M 220 352 L 220 355 L 222 356 Q 223 351 220 352 Z M 251 352 L 251 354 L 251 356 L 254 356 L 253 355 Q 254 351 251 352 Z M 23 353 L 22 355 L 21 354 Q 16 353 18 358 L 21 357 L 24 358 L 26 358 Q 30 359 29 357 L 28 357 L 23 356 L 23 353 Z M 60 353 L 58 356 Q 60 357 58 358 Q 54 357 56 362 L 58 363 L 60 363 L 60 353 Z M 273 353 L 274 356 Q 273 359 276 358 L 275 355 Q 276 352 273 353 Z M 167 354 L 166 357 L 167 357 L 167 354 Z M 176 354 L 174 357 L 178 358 L 178 355 L 176 354 Z M 189 354 L 190 358 L 191 358 Q 192 353 189 354 Z M 209 354 L 210 360 L 212 359 L 211 356 Q 212 353 209 354 Z M 258 354 L 257 358 L 258 358 L 258 354 Z M 294 354 L 294 360 Q 296 363 297 360 L 295 355 L 297 355 L 294 354 Z M 129 355 L 128 357 L 131 357 L 129 355 Z M 204 355 L 207 360 L 207 357 L 204 355 Z M 229 355 L 228 358 L 229 358 L 229 355 Z M 237 355 L 236 357 L 238 358 L 237 355 Z M 323 355 L 321 357 L 325 357 Q 326 354 323 355 Z M 202 356 Q 199 363 204 366 L 205 362 L 202 356 Z M 215 356 L 215 360 L 217 360 L 215 356 Z M 220 356 L 218 360 L 220 361 L 220 356 Z M 132 357 L 132 362 L 133 362 Q 135 356 132 357 Z M 228 358 L 226 361 L 228 361 L 228 358 Z M 18 359 Q 16 365 17 374 Q 20 375 19 371 L 21 371 L 19 370 Q 18 367 21 368 L 19 366 L 22 364 L 21 363 L 26 362 L 26 361 L 24 361 L 24 359 L 18 359 Z M 49 359 Q 47 362 50 361 L 49 359 Z M 126 359 L 125 375 L 127 376 L 128 376 L 128 370 L 131 370 L 131 359 L 130 369 L 126 368 L 126 359 Z M 239 359 Q 237 362 240 361 L 239 359 Z M 242 359 Q 240 362 243 361 L 242 359 Z M 321 359 L 322 362 L 325 361 Q 326 357 321 359 Z M 177 360 L 176 364 L 177 364 L 177 360 Z M 209 360 Q 207 364 210 366 L 211 364 L 209 360 Z M 214 360 Q 211 361 213 363 Q 212 365 215 364 L 214 360 Z M 261 360 L 260 363 L 261 363 L 261 360 Z M 236 361 L 235 366 L 238 371 L 240 370 L 236 361 Z M 49 362 Q 47 365 50 364 L 49 362 Z M 198 362 L 198 368 L 199 368 Q 200 363 198 362 Z M 221 362 L 220 366 L 221 366 L 221 362 Z M 240 362 L 241 368 L 243 369 Q 243 364 240 362 Z M 247 362 L 245 364 L 247 368 L 249 367 Q 250 363 247 362 Z M 258 362 L 256 364 L 258 368 L 260 368 L 258 362 Z M 227 363 L 226 366 L 227 366 L 227 363 Z M 324 363 L 321 365 L 324 365 L 324 363 Z M 60 364 L 57 365 Q 56 368 59 367 Q 60 370 57 369 Q 56 372 59 371 L 59 374 L 57 375 L 59 375 L 59 393 L 58 395 L 58 397 L 59 399 L 60 399 L 60 364 Z M 103 364 L 102 379 L 104 379 L 103 378 L 104 375 L 103 374 L 103 364 Z M 176 364 L 174 366 L 172 365 L 173 367 L 176 366 L 176 364 Z M 207 364 L 205 370 L 207 369 L 207 364 Z M 218 364 L 216 366 L 218 371 L 219 368 L 218 364 Z M 319 364 Q 317 367 320 368 L 321 368 L 319 364 Z M 24 365 L 23 368 L 25 369 L 24 365 Z M 167 365 L 166 368 L 167 368 L 167 365 Z M 194 365 L 193 370 L 194 370 L 194 365 Z M 189 366 L 187 371 L 188 375 L 190 376 Q 191 369 189 366 Z M 211 366 L 212 371 Q 211 374 214 373 L 213 371 L 214 368 L 211 366 Z M 49 367 L 50 368 L 51 369 Q 52 366 49 367 Z M 201 367 L 202 369 Q 203 366 201 367 Z M 235 367 Q 235 376 232 383 L 232 392 L 231 393 L 231 400 L 233 400 L 234 401 Q 236 395 233 394 L 235 388 L 235 390 L 237 391 L 236 389 L 237 387 L 235 384 L 236 379 L 236 377 L 235 374 L 236 372 Q 237 368 235 367 Z M 257 367 L 256 370 L 257 370 L 257 367 Z M 177 368 L 174 370 L 177 370 L 177 368 Z M 247 368 L 248 376 L 249 373 L 249 371 Q 250 367 247 368 Z M 252 368 L 250 370 L 252 371 L 252 368 Z M 322 368 L 321 371 L 319 370 L 318 372 L 318 374 L 319 376 L 322 372 L 322 368 Z M 173 369 Q 171 372 170 370 L 166 371 Q 165 374 168 373 Q 169 376 166 375 L 165 378 L 166 389 L 169 394 L 170 394 L 169 391 L 169 388 Q 166 389 167 387 L 170 385 L 172 385 L 173 383 L 172 382 Q 170 384 169 382 L 169 380 L 174 380 L 174 377 Q 169 376 168 380 Q 165 381 166 379 Q 167 375 172 376 L 170 372 L 174 371 L 173 369 Z M 203 369 Q 203 372 201 371 L 201 373 Q 200 375 203 374 L 203 369 Z M 49 370 L 49 371 L 51 371 L 49 370 Z M 207 370 L 204 376 L 205 379 Q 204 386 207 385 L 207 370 Z M 323 370 L 323 372 L 325 371 L 323 370 Z M 216 371 L 215 375 L 216 375 L 216 371 Z M 220 371 L 219 376 L 220 376 L 220 371 Z M 225 371 L 223 373 Q 222 375 225 374 L 225 371 Z M 242 371 Q 240 376 243 379 L 244 377 L 242 371 Z M 259 371 L 258 374 L 260 375 L 259 371 Z M 262 371 L 261 376 L 262 376 L 262 371 Z M 129 372 Q 128 375 131 374 Q 132 371 129 372 Z M 180 372 L 175 383 L 172 397 Q 167 400 165 408 L 166 410 L 169 410 Q 171 411 170 409 L 170 407 Q 169 402 172 403 L 171 408 L 173 408 L 174 406 L 172 399 L 174 399 L 175 392 Q 174 388 177 389 L 178 390 Q 180 384 177 383 L 179 383 Q 181 382 179 381 L 180 378 L 181 381 L 182 381 Q 183 374 180 372 Z M 198 372 L 196 375 L 198 375 L 198 372 Z M 257 373 L 256 379 L 258 378 L 257 373 Z M 48 374 L 47 378 Q 49 381 50 378 L 48 374 Z M 18 375 Q 15 380 19 379 L 18 375 Z M 193 375 L 192 379 L 193 379 L 193 375 Z M 209 375 L 208 378 L 209 378 L 209 375 Z M 213 375 L 213 379 L 213 380 L 215 379 L 213 375 Z M 239 375 L 238 378 L 239 378 L 239 375 Z M 266 375 L 266 382 L 267 382 L 266 375 Z M 325 375 L 323 377 L 325 377 L 325 375 Z M 217 376 L 218 382 Q 219 384 216 383 L 217 387 L 216 391 L 216 393 L 215 394 L 215 407 L 214 409 L 214 411 Q 213 413 216 412 L 217 399 L 217 397 Q 220 394 219 388 L 218 385 Q 221 383 219 378 L 217 376 Z M 297 376 L 295 378 Q 294 380 297 379 L 297 376 Z M 322 376 L 321 377 Q 318 376 319 379 L 322 378 L 322 376 Z M 129 377 Q 128 380 131 379 Q 132 376 129 377 Z M 189 377 L 187 379 L 188 382 L 190 381 L 189 377 Z M 201 377 L 198 378 L 200 384 Q 201 390 198 393 Q 200 396 199 403 L 202 404 L 201 400 L 201 396 L 202 386 L 203 389 L 204 389 L 204 385 Q 200 383 201 377 Z M 249 377 L 247 379 L 248 388 L 250 389 L 250 388 L 250 386 L 249 377 Z M 251 377 Q 253 381 252 391 L 252 392 Q 254 391 253 394 L 255 395 L 253 391 L 253 378 L 251 377 Z M 125 378 L 125 380 L 128 379 L 125 378 Z M 208 379 L 208 381 L 210 380 L 208 379 Z M 260 379 L 257 380 L 257 390 L 259 390 L 259 383 L 260 382 L 260 379 Z M 17 380 L 18 386 L 18 383 L 20 383 Q 23 384 22 381 L 17 380 Z M 263 380 L 261 382 L 262 384 L 262 388 L 259 393 L 259 396 L 260 396 Q 259 391 263 393 L 264 390 L 265 394 L 266 394 L 263 380 Z M 48 381 L 48 382 L 51 382 L 48 381 Z M 223 381 L 222 388 L 224 388 L 223 381 Z M 57 382 L 56 399 L 55 385 L 53 388 Q 52 392 54 394 L 53 397 L 54 399 L 53 402 L 56 403 Q 57 405 58 403 L 57 401 L 57 382 Z M 104 382 L 101 386 L 103 389 L 103 391 L 102 395 L 102 397 L 104 397 L 104 382 Z M 125 382 L 125 384 L 127 383 L 125 382 Z M 131 382 L 129 384 Q 128 386 131 385 L 131 382 Z M 182 382 L 180 384 L 181 388 L 182 388 L 182 382 Z M 212 382 L 212 384 L 214 383 L 212 382 Z M 241 382 L 242 386 L 243 386 Q 244 381 241 382 Z M 320 382 L 320 384 L 322 385 Q 323 381 320 382 Z M 48 383 L 47 385 L 49 386 L 48 383 Z M 186 383 L 185 392 L 187 392 L 186 383 Z M 193 383 L 192 387 L 193 387 L 193 383 Z M 247 383 L 245 387 L 247 394 L 248 394 L 247 383 Z M 98 384 L 97 391 L 96 394 L 97 406 L 97 408 L 98 413 L 98 415 L 97 417 L 98 422 L 102 421 L 104 421 L 104 415 L 103 415 Q 98 416 99 414 Q 100 411 104 412 L 104 409 L 101 411 Q 101 405 98 402 L 98 384 Z M 238 384 L 238 386 L 240 387 Q 241 383 238 384 Z M 303 384 L 302 387 L 303 387 L 303 384 Z M 325 384 L 323 386 L 324 389 L 322 387 L 320 390 L 323 391 L 325 390 L 325 384 Z M 20 385 L 20 386 L 22 386 L 20 385 Z M 25 385 L 25 387 L 27 388 Q 28 384 25 385 Z M 127 385 L 126 386 Q 123 385 124 388 L 126 387 L 128 388 Q 129 384 127 385 Z M 189 385 L 188 391 L 190 391 L 189 385 Z M 271 385 L 271 388 L 273 387 L 271 385 Z M 296 385 Q 295 389 298 388 Q 299 384 296 385 Z M 195 386 L 194 389 L 195 389 L 195 386 Z M 206 386 L 205 391 L 208 393 Q 209 387 206 386 Z M 17 387 L 17 396 L 21 399 L 24 397 L 21 395 L 23 394 L 22 392 L 23 388 L 17 387 Z M 48 387 L 47 389 L 50 389 L 48 387 Z M 125 389 L 125 401 Q 124 397 127 396 L 125 395 L 125 391 Q 128 392 127 390 L 125 389 Z M 129 389 L 129 392 L 131 391 Q 132 388 129 389 Z M 304 389 L 303 393 L 304 393 L 304 389 Z M 191 390 L 192 399 L 194 400 L 195 395 L 193 392 Q 194 389 191 390 Z M 221 390 Q 220 393 223 392 Q 224 389 221 390 Z M 241 390 L 240 394 L 241 394 L 241 390 Z M 269 390 L 268 393 L 269 393 L 269 390 Z M 298 390 L 297 397 L 298 397 L 298 390 Z M 176 391 L 177 394 Q 176 397 179 396 L 178 395 Q 179 390 176 391 Z M 204 391 L 203 395 L 204 395 L 204 391 Z M 236 391 L 236 396 L 237 396 L 236 391 Z M 26 392 L 26 395 L 28 396 Q 29 391 26 392 Z M 49 392 Q 47 395 50 394 L 49 392 Z M 189 392 L 188 395 L 189 395 L 189 392 Z M 274 392 L 273 395 L 274 395 L 274 392 Z M 270 393 L 269 396 L 270 396 L 270 393 Z M 207 394 Q 204 398 208 397 L 207 394 Z M 244 394 L 245 397 L 243 395 L 242 397 L 247 400 L 246 396 L 244 394 Z M 261 394 L 260 401 L 263 400 Q 266 401 264 396 L 261 394 Z M 267 394 L 265 400 L 267 406 L 266 409 L 267 413 L 269 414 L 268 399 L 267 394 Z M 303 394 L 302 413 L 303 414 L 303 424 L 302 425 Q 300 430 304 432 L 304 431 L 304 429 L 304 409 L 303 408 L 303 394 Z M 222 395 L 221 398 L 221 399 Q 223 400 222 398 Q 224 396 222 395 Z M 240 395 L 239 399 L 237 397 Q 234 396 235 400 L 239 402 L 235 403 L 240 405 L 240 402 L 242 400 L 244 402 Q 245 398 243 399 L 240 395 Z M 275 395 L 275 401 L 278 401 L 275 395 Z M 184 396 Q 183 399 186 398 Q 187 395 184 396 Z M 189 396 L 188 401 L 190 400 L 189 396 Z M 204 396 L 203 401 L 205 402 L 204 396 Z M 212 396 L 210 398 L 211 416 L 211 407 L 212 406 L 212 396 Z M 254 396 L 253 405 L 255 404 L 254 396 Z M 256 396 L 256 402 L 257 402 L 256 396 Z M 25 397 Q 24 399 27 398 L 26 401 L 22 400 L 20 400 Q 17 401 18 398 L 16 399 L 17 403 L 21 407 L 21 405 L 24 404 Q 23 401 26 402 Q 27 404 28 402 Q 30 395 25 397 Z M 130 397 L 130 398 L 132 398 L 130 397 Z M 250 397 L 249 402 L 250 402 L 250 397 Z M 271 397 L 271 409 L 272 410 Q 271 412 274 411 Q 274 403 271 397 Z M 321 398 L 322 402 L 323 400 L 324 404 L 324 399 L 321 398 Z M 179 399 L 177 401 L 178 404 L 179 402 L 179 399 Z M 183 399 L 181 401 L 182 403 L 183 403 L 183 399 Z M 207 399 L 206 403 L 207 403 L 207 399 Z M 48 400 L 48 402 L 51 402 L 48 400 Z M 103 400 L 101 402 L 103 402 L 104 403 Q 105 399 103 400 Z M 127 400 L 126 402 L 124 403 Q 126 406 127 403 L 127 400 Z M 129 400 L 129 402 Q 132 401 131 404 L 133 403 L 129 400 Z M 231 400 L 229 407 Q 228 409 231 408 L 232 403 L 233 405 L 234 404 L 231 400 Z M 192 401 L 192 404 L 193 404 Q 194 400 192 401 Z M 129 402 L 129 407 Q 128 411 132 409 Q 133 405 131 406 Q 132 404 129 402 Z M 185 402 L 185 406 L 187 406 L 187 404 Q 188 401 185 402 Z M 262 402 L 262 413 L 263 414 L 262 413 Q 259 414 260 410 L 258 411 L 259 413 Q 258 417 263 415 Q 264 417 265 415 L 263 408 L 264 403 L 262 402 Z M 300 402 L 299 404 L 298 403 Q 294 402 295 405 L 299 407 L 298 409 L 299 413 L 297 414 L 300 415 L 300 402 Z M 104 404 L 101 405 Q 100 408 104 407 L 104 404 Z M 203 404 L 203 406 L 207 409 L 207 406 L 203 404 Z M 18 405 L 17 408 Q 20 409 19 412 L 21 412 L 18 405 Z M 26 405 L 25 407 L 28 407 L 26 405 Z M 53 405 Q 52 408 55 407 L 57 407 L 57 405 L 53 405 Z M 126 405 L 124 407 L 127 407 L 126 405 Z M 182 405 L 181 408 L 183 409 L 182 405 Z M 188 405 L 188 408 L 191 410 L 190 408 Q 191 404 188 405 Z M 234 405 L 234 407 L 237 409 Q 236 411 239 410 L 238 409 L 239 405 L 237 406 L 234 405 Z M 255 405 L 255 413 L 257 412 L 255 405 Z M 318 405 L 319 409 L 318 411 L 319 419 L 320 419 L 320 406 L 318 405 Z M 199 406 L 198 415 L 200 416 L 199 406 Z M 200 406 L 201 409 L 201 417 L 203 417 L 204 418 L 202 414 L 203 412 L 202 409 Q 203 405 200 406 Z M 50 407 Q 48 410 51 409 L 50 407 Z M 243 407 L 243 409 L 246 409 L 243 407 Z M 54 408 Q 51 412 56 411 L 54 408 Z M 186 408 L 185 414 L 187 414 Q 188 409 186 408 Z M 220 408 L 219 411 L 220 411 L 220 408 Z M 232 408 L 231 410 L 235 412 L 232 408 Z M 124 409 L 127 415 Q 129 414 127 413 L 128 410 L 124 409 Z M 205 409 L 205 414 Q 204 416 207 415 Q 209 410 205 411 L 205 409 Z M 230 409 L 229 413 L 231 412 L 230 409 Z M 25 410 L 25 411 L 27 411 L 25 410 Z M 181 410 L 181 415 Q 183 418 184 415 L 181 410 Z M 243 410 L 243 413 L 246 413 Q 248 414 247 412 L 243 410 Z M 18 411 L 17 415 L 19 420 L 21 421 L 21 418 L 18 411 Z M 130 411 L 130 412 L 132 412 L 130 411 Z M 49 412 Q 47 416 51 415 L 51 413 L 49 412 Z M 55 412 Q 52 413 54 415 L 53 417 Q 54 419 58 418 L 58 416 Q 54 417 55 415 Q 57 413 55 412 Z M 190 412 L 189 418 L 190 418 L 190 412 Z M 194 412 L 193 418 Q 191 419 194 420 L 197 420 L 194 419 L 194 412 Z M 325 412 L 324 427 L 325 427 L 325 412 Z M 25 413 L 25 421 L 26 422 L 24 429 L 24 435 L 27 434 L 28 434 L 28 415 L 25 413 Z M 215 413 L 214 417 L 215 417 L 215 413 Z M 219 413 L 217 419 L 218 427 L 219 425 Q 217 423 220 422 L 219 413 Z M 222 413 L 221 416 L 222 416 L 222 413 Z M 229 413 L 229 416 Q 232 415 229 413 Z M 236 413 L 237 416 L 238 414 L 236 413 Z M 254 413 L 255 415 Q 256 412 254 413 Z M 232 414 L 233 416 L 235 416 L 232 414 Z M 242 414 Q 241 417 244 416 Q 245 413 242 414 Z M 124 415 L 124 417 L 126 416 L 124 415 Z M 130 415 L 130 417 L 132 418 Q 133 414 130 415 Z M 175 415 L 176 420 L 178 419 L 175 415 Z M 275 415 L 273 418 L 277 419 L 275 415 Z M 182 416 Q 180 419 183 420 Q 186 418 182 416 Z M 186 416 L 185 419 L 187 419 L 186 416 Z M 205 416 Q 204 420 207 419 Q 208 415 205 416 Z M 278 416 Q 277 419 280 418 Q 281 415 278 416 Z M 211 417 L 210 421 L 212 420 L 211 417 Z M 250 417 L 247 419 L 245 418 L 241 418 L 236 421 L 231 421 L 231 443 L 232 444 L 233 462 L 234 463 L 232 472 L 232 484 L 250 490 Q 256 491 260 488 L 261 486 Q 259 487 257 484 L 258 482 L 256 471 L 255 473 L 253 472 L 255 466 Q 256 461 254 460 Q 252 455 256 456 L 258 461 L 263 445 L 265 420 L 266 418 L 264 419 L 262 418 L 258 419 L 256 419 L 250 417 Z M 296 418 L 295 421 L 296 421 L 296 418 Z M 298 418 L 300 421 L 301 419 L 298 418 Z M 18 419 L 17 422 L 18 422 L 18 419 Z M 171 420 L 171 422 Q 170 425 173 424 L 174 421 L 171 420 Z M 198 420 L 198 421 L 200 421 L 198 420 Z M 320 421 L 319 429 L 321 430 Q 323 423 320 421 Z M 98 422 L 96 425 L 98 424 L 98 422 Z M 190 422 L 191 435 L 195 450 L 196 450 Q 194 445 198 446 Q 200 447 198 449 L 200 454 L 199 457 L 201 464 Q 203 470 200 472 Q 201 476 197 474 L 198 468 Q 199 465 196 466 L 193 461 L 191 469 L 194 481 L 205 484 L 206 482 L 208 464 L 211 453 Q 212 448 210 447 L 213 443 L 212 441 L 213 433 L 213 431 L 214 426 Q 212 427 211 424 L 208 425 L 205 423 L 201 425 L 190 422 Z M 228 422 L 226 428 L 225 446 L 223 454 L 226 455 L 229 454 L 228 422 Z M 299 422 L 300 424 Q 301 421 299 422 Z M 132 424 L 131 427 L 131 429 L 128 429 Q 126 431 125 428 L 124 430 Q 126 433 131 432 Q 132 436 128 438 L 130 438 L 129 442 L 131 441 L 132 449 L 132 435 L 133 434 L 132 433 L 132 424 Z M 296 424 L 295 427 L 296 427 L 296 424 Z M 20 425 L 20 431 L 21 431 L 20 425 Z M 174 425 L 176 427 L 178 427 Q 179 423 174 425 Z M 183 425 L 182 432 L 182 453 L 191 453 L 191 444 L 189 441 Q 190 434 187 432 L 187 425 L 183 425 Z M 268 426 L 266 444 L 263 454 L 268 450 L 268 426 Z M 281 426 L 278 428 L 281 428 L 281 426 Z M 299 426 L 299 428 L 298 430 Q 297 432 300 431 L 300 426 L 299 426 Z M 50 427 L 51 429 Q 52 426 50 427 Z M 98 427 L 96 429 L 97 432 L 98 432 L 98 427 Z M 102 427 L 100 429 L 102 429 L 102 427 Z M 48 428 L 47 433 L 48 433 L 48 428 Z M 16 429 L 20 440 L 21 440 Q 22 433 18 432 Q 19 428 16 429 Z M 279 430 L 276 433 L 277 435 L 280 436 Q 282 435 281 432 L 279 430 Z M 51 431 L 50 443 L 51 444 Q 49 448 53 447 L 54 448 L 53 446 L 54 445 L 54 433 L 51 431 Z M 58 431 L 55 434 L 58 434 L 58 431 Z M 275 431 L 274 434 L 275 434 L 275 431 Z M 321 431 L 320 435 L 322 436 L 321 431 Z M 97 432 L 95 435 Q 94 438 97 439 L 98 436 L 97 432 Z M 101 432 L 103 434 Q 104 431 101 432 Z M 174 432 L 172 434 L 174 436 L 177 435 L 178 437 L 178 433 L 174 432 Z M 300 432 L 298 434 Q 297 436 300 435 L 300 432 Z M 127 433 L 125 436 L 127 435 L 129 436 L 129 434 L 127 433 Z M 48 434 L 47 449 L 48 450 Q 50 455 47 457 Q 46 462 49 463 L 49 459 Q 47 457 50 456 Q 52 457 51 454 L 54 454 L 49 452 L 53 451 L 52 448 L 48 447 L 49 442 L 48 434 Z M 103 435 L 100 436 Q 99 439 103 438 L 103 435 Z M 29 436 L 25 437 Q 24 441 29 439 L 29 436 Z M 272 436 L 270 438 L 272 439 L 272 436 Z M 275 436 L 274 438 L 278 439 L 279 439 L 275 436 Z M 300 436 L 298 439 L 300 438 L 300 436 Z M 58 437 L 56 441 L 57 445 L 58 445 L 58 437 Z M 18 438 L 17 442 L 19 443 L 18 438 Z M 170 438 L 168 441 Q 167 445 170 444 L 170 438 Z M 96 439 Q 94 444 97 445 Q 102 442 96 439 Z M 320 439 Q 319 442 322 441 Q 323 438 320 439 Z M 81 440 L 79 442 Q 80 444 78 443 L 73 449 Q 69 454 61 454 L 62 491 L 63 492 Q 62 498 64 498 L 91 498 L 92 489 L 92 487 L 92 455 L 88 451 L 87 445 L 85 442 Q 84 439 81 440 Z M 102 440 L 100 442 L 103 442 Q 104 439 102 440 Z M 272 440 L 272 443 Q 275 442 272 440 Z M 276 440 L 275 442 Q 277 441 276 445 L 273 444 L 271 445 Q 273 447 278 446 L 279 443 L 276 440 Z M 125 441 L 125 443 L 128 443 L 125 441 Z M 27 442 Q 28 444 25 446 Q 24 448 28 447 L 28 442 L 27 442 Z M 296 443 L 294 445 L 297 445 L 296 443 Z M 299 444 L 297 446 L 299 446 L 299 444 Z M 314 444 L 312 447 L 306 451 L 306 468 L 305 469 L 306 475 L 306 477 L 305 479 L 306 483 L 305 485 L 307 496 L 308 497 L 316 497 L 316 486 L 315 485 Q 313 478 316 477 L 316 450 L 317 449 Q 319 442 314 444 Z M 125 445 Q 124 448 127 447 Q 128 444 125 445 Z M 150 445 L 149 447 Q 144 452 135 453 L 134 456 L 135 458 L 143 456 L 152 456 L 153 457 L 159 454 Q 166 456 165 452 L 159 452 L 150 445 Z M 97 446 L 95 449 L 95 451 Q 94 453 98 452 L 96 450 L 98 447 L 97 446 Z M 329 447 L 330 453 Q 332 459 329 461 L 330 464 L 330 497 L 333 497 L 333 452 L 332 449 L 329 447 Z M 20 448 L 19 451 L 20 451 L 20 448 Z M 31 448 L 31 453 L 40 453 L 41 454 Q 46 456 45 453 L 38 448 L 31 448 Z M 168 448 L 169 452 L 170 450 Q 171 447 168 448 Z M 175 448 L 171 451 L 173 453 L 173 469 L 174 471 L 176 470 Q 177 467 174 468 Q 173 464 178 466 Q 179 463 177 464 Q 174 463 176 462 L 175 460 L 176 458 L 174 455 L 174 453 L 175 450 L 175 448 Z M 179 448 L 177 450 L 179 450 L 179 448 Z M 294 448 L 294 450 L 298 451 Q 299 454 295 453 L 295 455 L 298 456 L 300 452 Q 299 447 294 448 Z M 28 449 L 25 452 L 26 455 L 28 456 L 28 449 Z M 58 449 L 57 453 L 58 453 L 58 449 Z M 124 449 L 124 452 L 126 451 Q 127 448 124 449 Z M 127 449 L 128 458 L 130 453 L 129 451 Q 130 448 127 449 Z M 276 449 Q 275 452 278 451 Q 279 448 276 449 Z M 320 449 L 320 451 L 322 450 L 320 449 Z M 18 450 L 17 453 L 19 456 L 21 456 L 18 450 Z M 272 450 L 271 453 L 272 453 L 272 450 Z M 121 452 L 120 453 L 108 454 L 115 458 L 119 459 L 121 459 L 121 452 Z M 196 452 L 194 454 Q 197 456 196 463 L 197 463 L 197 454 L 196 452 Z M 95 453 L 95 461 L 97 462 Q 99 461 98 456 L 96 456 L 98 455 Q 99 452 95 453 Z M 283 453 L 283 459 L 283 461 L 284 466 L 284 497 L 291 497 L 292 496 L 291 495 L 291 484 L 291 482 L 292 478 L 291 477 L 291 467 L 291 465 Q 290 460 292 459 L 291 456 L 292 454 L 291 454 L 283 453 Z M 124 454 Q 122 459 126 458 Q 128 453 124 454 Z M 276 454 L 275 457 L 276 458 L 279 456 Q 280 453 276 454 Z M 18 455 Q 16 459 19 460 L 20 460 L 18 455 Z M 30 455 L 30 472 L 30 474 L 31 476 L 31 498 L 45 498 L 44 495 L 45 491 L 45 489 L 44 486 L 45 482 Q 47 476 44 475 L 45 473 L 44 470 L 45 469 L 45 457 L 39 455 L 30 455 Z M 132 455 L 130 460 L 132 461 L 132 455 Z M 169 455 L 168 457 L 170 456 L 169 455 Z M 189 455 L 186 457 L 190 457 Q 191 454 189 455 Z M 14 456 L 8 458 L 8 498 L 9 498 L 14 498 L 14 456 Z M 22 456 L 21 458 L 23 459 L 22 456 Z M 161 456 L 158 458 Q 153 457 154 460 L 159 460 Q 159 464 164 463 Q 166 462 164 461 L 165 459 Q 166 454 161 456 Z M 230 456 L 227 458 L 222 457 L 223 460 L 222 463 Q 221 465 224 464 L 227 471 Q 226 475 229 474 L 231 463 L 230 456 Z M 107 457 L 105 459 L 105 494 L 107 496 L 106 498 L 122 498 L 121 497 Q 120 492 122 491 Q 123 486 121 485 L 122 472 L 122 470 L 121 466 L 122 464 L 122 462 L 122 460 L 119 462 Q 111 461 107 457 Z M 214 457 L 212 460 L 213 465 L 212 464 L 211 469 L 212 469 Q 211 464 215 466 L 214 457 Z M 100 458 L 100 461 L 102 462 Q 103 457 100 458 Z M 183 458 L 182 465 Q 187 466 189 464 Q 191 457 186 459 L 183 458 Z M 294 458 L 294 461 L 297 459 L 294 458 Z M 319 458 Q 318 461 321 460 Q 322 457 319 458 Z M 128 459 L 127 463 L 129 462 L 128 459 Z M 141 459 L 144 462 Q 149 463 151 460 L 141 459 Z M 167 459 L 167 461 L 170 460 L 167 459 Z M 267 459 L 261 461 L 259 468 Q 257 473 261 472 L 263 476 Q 262 479 266 477 L 267 481 Q 269 480 267 479 L 267 471 L 268 470 L 268 460 L 267 459 Z M 303 459 L 302 462 L 303 462 L 303 459 Z M 124 460 L 124 462 L 126 463 Q 127 459 124 460 Z M 324 460 L 323 463 L 324 463 L 324 460 Z M 27 461 L 25 463 L 27 465 L 27 464 Q 29 462 27 461 Z M 272 461 L 272 464 Q 275 463 272 461 Z M 18 462 Q 15 467 19 466 L 18 462 Z M 153 462 L 149 465 Q 142 466 141 463 Q 135 462 134 465 L 135 495 L 136 498 L 164 498 L 163 497 L 163 477 L 164 474 L 163 472 L 164 466 L 161 466 L 153 462 Z M 48 463 Q 45 467 49 466 L 48 463 Z M 97 463 L 97 468 L 98 466 L 97 463 Z M 167 463 L 168 468 L 169 466 Q 170 462 167 463 Z M 300 463 L 299 465 L 302 467 L 300 463 Z M 319 463 L 319 474 L 318 475 L 320 498 L 322 495 L 321 493 L 322 489 L 322 487 Q 323 484 320 485 L 320 473 L 322 465 Q 323 461 319 463 Z M 56 464 Q 54 468 56 470 Q 55 474 59 472 Q 61 466 56 468 L 56 464 Z M 100 464 L 100 466 L 102 465 L 100 464 Z M 279 464 L 279 467 L 281 466 Q 282 463 279 464 Z M 295 464 L 294 466 L 296 467 L 295 464 Z M 22 465 L 22 467 L 24 468 Q 25 464 22 465 Z M 126 465 L 124 467 L 126 468 L 126 465 Z M 131 465 L 129 469 L 130 473 L 129 475 L 130 477 L 129 479 L 129 481 L 128 485 L 129 492 L 132 493 L 131 491 L 131 472 L 130 471 L 131 469 L 131 465 Z M 276 466 L 275 469 L 276 469 L 276 466 Z M 101 467 L 101 470 Q 104 469 101 467 Z M 179 467 L 177 470 L 179 471 L 179 467 Z M 182 467 L 181 478 L 182 481 L 181 482 Q 182 492 180 498 L 186 497 L 185 496 L 185 486 L 184 485 L 184 476 Q 188 473 188 468 L 182 467 Z M 17 468 L 17 473 L 19 474 L 17 468 Z M 53 468 L 51 470 Q 50 474 53 473 L 53 468 Z M 295 468 Q 292 472 296 471 L 295 468 Z M 301 468 L 299 470 L 300 477 L 300 472 Q 304 470 301 468 Z M 280 469 Q 278 472 281 471 L 280 469 Z M 97 470 Q 94 475 98 474 L 97 470 Z M 125 470 Q 124 473 127 472 Q 128 469 125 470 Z M 167 470 L 167 473 L 168 473 Q 169 469 167 470 Z M 270 471 Q 269 474 272 473 Q 273 470 270 471 Z M 99 472 Q 98 475 101 474 L 102 475 Q 103 470 99 472 Z M 173 472 L 173 483 L 175 483 L 174 482 Q 173 477 176 478 Q 177 475 174 476 L 174 474 L 176 474 Q 177 470 173 472 Z M 178 472 Q 176 475 179 474 L 178 472 Z M 276 472 L 275 476 L 274 476 L 272 476 Q 269 475 270 478 L 272 477 L 274 479 L 272 482 L 275 482 L 276 481 L 276 472 Z M 303 472 L 302 476 L 303 476 L 303 472 Z M 295 473 L 295 474 L 297 474 L 295 473 Z M 48 474 Q 46 478 48 480 L 47 481 L 47 493 L 49 492 L 48 494 L 51 496 L 50 489 L 50 487 L 48 474 Z M 57 474 Q 56 477 59 476 Q 60 473 57 474 Z M 211 474 L 210 476 L 213 476 L 211 474 Z M 279 474 L 279 477 L 281 476 Q 282 473 279 474 Z M 324 474 L 324 477 Q 327 476 324 474 Z M 17 475 L 18 481 L 19 481 Q 20 476 17 475 Z M 166 475 L 166 477 L 168 476 L 166 475 Z M 23 476 L 21 478 L 23 479 L 23 476 Z M 96 476 L 96 486 L 98 486 L 97 483 L 98 480 L 98 478 Q 99 475 96 476 Z M 58 478 L 56 481 L 60 481 L 60 480 L 58 478 Z M 125 478 L 125 479 L 127 479 L 125 478 Z M 187 479 L 188 486 L 189 499 L 192 501 L 193 499 Q 192 496 195 497 L 196 503 Q 197 505 199 503 L 203 505 L 205 486 L 203 487 L 197 486 L 188 481 Q 189 478 187 479 Z M 296 479 L 294 484 L 297 483 L 296 479 Z M 325 479 L 323 481 L 325 482 L 325 479 Z M 28 480 L 27 483 L 28 483 L 28 480 Z M 210 480 L 208 484 L 209 489 L 209 485 L 211 485 L 210 480 Z M 262 480 L 261 485 L 262 485 L 262 480 Z M 124 481 L 124 483 L 127 482 L 124 481 Z M 279 481 L 279 492 L 278 494 L 271 495 L 272 497 L 273 496 L 281 496 L 280 491 L 281 489 L 281 482 L 279 481 Z M 16 482 L 19 489 L 19 484 L 16 482 Z M 25 482 L 25 486 L 26 486 Q 27 481 25 482 Z M 102 482 L 100 483 L 99 486 L 100 487 L 102 486 L 102 482 Z M 167 482 Q 165 485 168 484 L 167 482 Z M 300 482 L 300 487 L 301 487 Q 303 481 300 482 Z M 23 483 L 22 486 L 23 486 L 23 483 Z M 59 483 L 56 484 Q 55 488 60 486 Q 61 482 59 483 Z M 173 483 L 172 486 L 175 487 Q 176 484 173 485 L 173 483 Z M 178 483 L 176 487 L 178 487 L 178 483 Z M 273 484 L 273 485 L 276 485 L 273 484 Z M 325 484 L 323 486 L 325 487 L 325 484 Z M 125 485 L 126 487 Q 127 484 125 485 Z M 265 485 L 263 489 L 265 488 L 265 485 Z M 166 486 L 165 489 L 168 489 Q 169 485 166 486 Z M 98 487 L 96 489 L 97 490 L 97 498 L 99 498 L 98 497 L 98 487 Z M 233 487 L 232 489 L 236 489 L 233 487 Z M 58 488 L 58 489 L 60 489 L 58 488 Z M 101 488 L 100 490 L 102 489 L 101 488 Z M 126 488 L 124 490 L 125 495 L 128 494 L 125 492 L 126 490 L 126 488 Z M 175 488 L 172 489 L 172 490 L 177 490 L 175 488 Z M 271 488 L 270 492 L 275 492 L 276 489 L 271 488 Z M 302 488 L 300 490 Q 302 494 299 493 L 299 494 L 301 494 Q 300 498 303 497 L 302 488 Z M 237 489 L 237 491 L 231 492 L 233 495 L 231 495 L 235 499 Q 237 498 236 501 L 234 500 L 232 501 L 235 505 L 235 507 L 234 509 L 237 509 L 238 508 L 242 512 L 258 511 L 262 509 L 262 512 Q 259 511 260 515 L 256 521 Q 259 524 257 532 L 258 533 L 257 536 L 258 543 L 263 551 L 268 555 Q 267 557 270 556 Q 275 559 273 570 L 268 572 L 260 572 L 253 570 L 249 567 L 241 566 L 236 562 L 236 559 L 232 557 L 232 546 L 233 545 Q 232 536 234 532 L 234 530 L 232 512 L 229 508 L 226 506 L 224 506 Q 221 505 222 508 L 222 510 L 221 513 L 222 516 Q 219 520 220 529 L 218 531 L 219 533 L 218 538 L 219 550 L 220 551 L 219 557 L 215 559 L 213 559 L 211 563 L 210 578 L 207 584 L 203 586 L 201 585 Q 196 586 197 584 L 196 584 L 193 583 L 196 570 L 196 567 L 188 572 L 177 572 L 176 573 Q 170 574 169 571 L 170 565 L 176 560 L 179 555 L 189 548 L 195 539 L 195 526 L 196 525 L 194 522 L 195 519 L 193 506 L 176 506 L 175 505 L 174 506 L 117 506 L 115 506 Q 108 504 107 507 L 105 506 L 104 507 L 96 507 L 94 507 L 65 507 L 64 506 Q 62 509 56 507 L 54 507 L 52 506 L 50 507 L 48 507 L 10 507 L 9 506 L 7 508 L 7 588 L 7 590 Q 6 592 9 591 L 11 591 L 15 592 L 16 591 L 56 591 L 57 590 L 61 591 L 66 590 L 74 591 L 76 591 L 78 590 L 82 591 L 85 590 L 87 590 Q 92 589 94 591 L 102 590 L 104 590 L 108 591 L 113 590 L 114 591 L 133 591 L 136 590 Q 142 588 144 591 L 145 590 L 210 590 L 212 590 L 218 589 L 220 589 L 223 590 L 225 590 L 230 589 L 232 590 L 234 589 L 275 589 L 278 590 L 279 589 L 333 589 L 334 585 L 334 577 L 333 576 L 333 509 L 334 506 L 266 506 L 265 511 L 263 511 L 263 501 Q 261 504 258 503 Q 257 500 260 501 L 261 499 L 259 500 Q 256 501 257 499 L 264 494 L 263 493 Q 261 497 259 494 Q 258 491 261 492 L 262 490 L 255 493 L 250 493 L 237 489 Z M 324 489 L 325 491 L 326 491 L 324 489 Z M 18 490 L 16 492 L 17 494 L 18 494 L 18 490 Z M 208 490 L 197 581 L 200 580 Q 199 577 202 578 L 202 576 L 199 577 L 201 568 L 200 565 L 201 557 L 203 557 L 205 552 L 202 547 L 204 540 L 203 538 L 206 520 L 211 521 Q 213 522 212 519 L 209 518 Q 205 519 206 516 L 212 516 L 206 515 L 208 500 L 214 501 L 215 501 Q 214 498 210 499 Q 207 498 209 497 L 208 495 L 211 493 L 208 492 L 208 490 Z M 296 490 L 296 491 L 299 491 L 296 490 Z M 57 491 Q 56 493 59 492 L 60 493 Q 61 489 57 491 Z M 101 491 L 99 493 L 101 493 L 101 491 Z M 223 491 L 222 494 L 223 494 L 223 491 Z M 25 492 L 25 494 Q 27 497 28 494 L 25 492 Z M 166 492 L 167 498 L 170 498 L 171 496 L 168 494 L 168 493 L 166 492 Z M 175 492 L 175 493 L 177 493 L 175 492 Z M 173 494 L 172 496 Q 175 495 177 498 L 177 495 L 173 494 Z M 267 494 L 266 497 L 267 497 L 267 494 Z M 323 494 L 323 496 L 326 496 L 323 494 Z M 47 495 Q 46 498 49 497 Q 50 494 47 495 Z M 54 495 L 53 497 L 51 498 L 54 498 L 54 495 Z M 60 495 L 57 497 L 60 498 L 60 495 Z M 95 495 L 94 498 L 95 498 L 95 495 Z M 17 496 Q 16 500 22 498 L 23 496 L 21 497 L 17 496 Z M 103 496 L 100 498 L 103 498 L 103 496 Z M 213 496 L 213 497 L 215 497 L 213 496 Z M 24 497 L 24 498 L 28 498 L 24 497 Z M 130 499 L 121 501 L 116 500 L 114 500 L 112 501 L 110 500 Q 108 503 102 501 L 100 501 L 8 501 L 7 503 L 9 504 L 142 504 L 144 504 L 149 503 L 151 504 L 154 503 L 157 504 L 170 503 L 172 503 L 177 504 L 180 503 L 182 503 Q 187 502 189 504 Q 191 505 190 502 L 187 500 L 177 500 L 176 499 Q 167 502 154 500 L 151 501 L 150 500 L 131 500 L 130 499 Z M 265 500 L 265 503 L 283 504 L 285 504 L 289 503 L 291 503 Q 296 502 298 504 L 301 503 L 303 503 L 307 504 L 309 503 L 312 504 L 314 503 L 324 505 L 335 503 L 335 500 L 265 500 Z M 211 502 L 210 504 L 214 504 L 211 502 Z M 231 502 L 230 507 L 232 508 L 231 505 Q 233 503 231 502 Z M 211 506 L 213 508 L 214 508 L 211 506 Z M 197 508 L 195 510 L 197 518 Q 199 519 196 521 L 199 526 Q 195 527 198 529 L 197 531 L 198 533 L 197 535 Q 196 538 199 539 L 200 537 L 199 535 L 202 518 L 202 510 Q 201 507 197 508 Z M 210 512 Q 209 514 212 513 L 213 514 Q 214 511 210 512 Z M 239 516 L 238 518 L 242 520 Q 243 523 239 521 L 239 523 L 235 523 L 236 526 L 238 525 L 239 528 L 235 537 L 236 542 L 235 544 L 235 552 L 237 552 L 237 557 L 240 563 L 251 565 L 261 570 Q 268 571 271 569 L 270 561 L 265 554 L 260 553 L 255 550 Q 254 547 257 548 L 255 543 L 253 544 L 250 543 Q 250 538 253 538 Q 254 534 251 535 L 251 534 Q 252 531 249 532 L 249 530 L 253 530 L 248 528 L 248 526 L 252 526 L 252 525 L 253 523 Q 247 525 248 521 L 252 521 L 251 520 L 249 520 L 247 517 L 245 518 L 239 516 Z M 208 522 Q 206 525 209 524 L 208 522 Z M 211 522 Q 209 525 212 524 L 211 522 Z M 214 526 L 213 532 L 214 532 L 214 526 Z M 213 534 L 213 540 L 215 540 L 216 541 L 215 539 Q 217 533 213 534 Z M 213 541 L 212 546 L 213 546 L 213 541 Z M 199 542 Q 193 549 184 553 L 179 560 Q 180 562 177 561 L 172 567 Q 170 572 174 571 Q 175 567 177 570 L 185 567 L 189 567 L 194 561 L 197 559 L 196 557 L 199 544 L 199 542 Z M 209 542 L 210 544 Q 211 541 209 542 Z M 209 546 L 210 548 Q 211 545 209 546 Z M 207 550 L 207 552 L 210 552 L 207 550 Z M 209 554 L 210 556 Q 211 553 209 554 Z M 206 571 L 206 573 L 208 574 Q 209 570 206 571 Z M 206 575 L 205 578 L 207 579 L 206 575 Z M 201 580 L 201 583 L 204 583 L 201 580 Z "></path><path d="M 255.5 150 Q 259.3 149.3 260 151.5 Q 260.8 153.8 258.5 153 L 255.5 150 Z "></path><path d="M 51.5 155 Q 54.5 156.5 51.5 158 Q 48.5 156.5 51.5 155 Z "></path><path d="M 209.5 177 L 214 177.5 L 203.5 181 L 203.5 180 L 209.5 177 Z "></path><path d="M 219 192 L 221 192.5 L 219.5 195 L 222.5 196 L 224.5 195 L 229 198.5 L 226 204 L 220 203.5 Q 221.2 200.7 222.5 203 L 226 201.5 L 222.5 199 Q 221.3 202 217 201 L 215 195.5 Q 217 197.2 219 193.5 L 219 192 Z "></path><path d="M 255.5 201 L 256.5 203 L 258 202.5 L 254.5 208 L 255 206.5 L 256 203.5 L 255.5 201 Z "></path><path d="M 252.5 207 L 252 208.5 L 251.5 210 L 251 208.5 L 252.5 207 Z "></path><path d="M 20 208 Q 24.1 206.7 23 210 L 20.5 211 L 20 208 Z "></path><path d="M 257.5 210 L 258 211.5 L 256 212.5 L 257.5 210 Z "></path><path d="M 20 214 Q 23.7 212.5 23 215.5 L 20 217 L 20 214 Z "></path><path d="M 233.5 217 L 233 218.5 L 232.5 220 L 232 218.5 L 233.5 217 Z "></path><path d="M 234.5 219 L 235 220.5 L 233 221.5 L 234.5 219 Z "></path><path d="M 270 230 L 272 230.5 L 270 231.5 L 270 230 Z "></path><path d="M 221.5 231 L 220.5 233 L 221.5 231 Z "></path><path d="M 226 231 L 228.5 232 L 230.5 231 L 232 233.5 L 231 236 L 227 237 L 226.5 235 L 224.5 238 L 224 235.5 L 226 231 Z "></path><path d="M 223.5 232 L 224 233.5 L 222.5 236 L 222 233.5 L 223.5 232 Z "></path><path d="M 272.5 232 L 273 233.5 L 269.5 238 L 271 235.5 L 272.5 232 Z "></path><path d="M 175 242 L 181 242.5 Q 179.6 245.3 175 244 L 175 242 Z "></path><path d="M 242.5 242 L 243 243.5 L 243 245.5 L 242 250 L 240 250.5 L 241.5 253 L 238 252 L 237.5 255 L 237 252.5 L 240.5 246 L 242 246.5 L 241 243.5 L 242.5 242 Z "></path><path d="M 235.5 248 L 236.5 250 L 235.5 248 Z "></path><path d="M 186 249 L 194 251 Q 195.3 254 191.5 253 L 186 251 L 186 249 Z "></path><path d="M 228.5 257 L 228 258.5 L 224.5 267 L 224 265.5 L 226 259.5 L 228.5 257 Z "></path><path d="M 267.5 260 L 268 261.5 L 267 263.5 L 267.5 265 L 266 262.5 L 267.5 260 Z "></path><path d="M 272.5 260 L 273 263 L 271 262.5 L 272.5 260 Z "></path><path d="M 283.5 261 L 284 262.5 L 282 263.5 L 283.5 261 Z "></path><path d="M 270.5 264 L 271 266.5 L 270 266.5 L 270.5 264 Z "></path><path d="M 252.5 267 Q 255.1 266.2 254 269.5 L 253 271.5 L 253 273.5 Q 253.7 276.1 251 275 L 251 268.5 L 252.5 267 Z "></path><path d="M 272.5 271 L 273 272.5 L 271 273.5 L 272.5 271 Z "></path><path d="M 198.5 273 L 199 275 L 197 274.5 L 198.5 273 Z "></path><path d="M 294.5 279 Q 298.3 278 297 281 L 294.5 279 Z "></path><path d="M 228.5 280 L 229 286.5 L 227 287.5 L 228.5 280 Z "></path><path d="M 286.5 282 L 287 283.5 L 284.5 288 L 284 286.5 L 286.5 282 Z "></path><path d="M 188.5 283 L 189 284.5 L 187.5 287 L 187 285.5 L 188.5 283 Z "></path><path d="M 248.5 283 L 250 288.5 L 248 289.5 L 248.5 283 Z "></path><path d="M 222 287 L 224 287.5 L 222 288.5 L 222 287 Z "></path><path d="M 184 290 Q 186.7 288.9 186 291.5 Q 188.3 292.8 185.5 294 L 184 290 Z "></path><path d="M 224.5 290 L 225 292 L 223 291.5 L 224.5 290 Z "></path><path d="M 227 290 L 229 290.5 L 229 297.5 L 226 299.5 L 227 290 Z "></path><path d="M 100.5 417 Q 104.3 416 103 419 L 100.5 420 Q 97.5 418.5 100.5 417 Z "></path><path d="M 237.5 456 L 239 457.5 Q 238.3 464.4 241 467 L 245 469.5 Q 245.9 476.3 244 479 Q 240.2 480.5 241 477.5 L 242 475 Q 239.3 476.1 240 473.5 Q 237.7 472.3 239 467.5 L 236 463.5 L 236 457.5 L 237.5 456 Z "></path><path d="M 256.5 493 L 258 496 L 250 497 Q 248.2 491.7 255.5 494 L 256.5 493 Z "></path><path d="M 256 504 L 259.5 505 Q 260.8 502.8 262 505.5 Q 260.6 508.3 256 507 L 256 504 Z "></path><path d="M 311 516 Q 317.2 514.7 320 517.5 Q 318.5 521 313 520.5 L 320 522 Q 318.3 526.1 322.5 525 L 325.5 524 L 329 525.5 Q 327.8 528.3 326.5 526 L 313 527.5 L 315.5 529 L 321 528 Q 322.1 530.7 319.5 530 L 319.5 531 L 327.5 530 L 331 531 L 331 535 L 329.5 535 L 328.5 536 L 320.5 536 L 318.5 536 L 315.5 535 L 313 536 L 313 561.5 L 311.5 563 L 310 560.5 L 311 559.5 L 311 546.5 L 310 545.5 L 310 536 Q 307 534.8 308 538.5 L 309 540.5 Q 307.5 543.5 306 540.5 L 305 536.5 Q 306.2 534 310 535 L 310 532 Q 304.4 533.9 306 529 L 311 526.5 L 306 524.5 L 307.5 522 L 311 520.5 L 311 516 Z M 313 523 L 313 525 L 318 525 L 318 523 L 313 523 Z M 317 532 L 314 533 L 314 534 L 329 534 L 329 532 L 322 532 L 321 533 L 317 532 Z "></path><path d="M 317.5 537 L 320 538.5 L 318.5 541 L 315 539.5 Q 314.3 537.3 316.5 538 L 317.5 537 Z "></path><path d="M 341.5 543 L 343 545.5 L 340 547.5 L 341 545.5 Q 338.8 544.3 341.5 543 Z "></path><path d="M 340.5 586 L 341 589.5 L 340 589.5 L 340.5 586 Z "></path></svg>