<svg width="350" height="600" version="1.1" xmlns="http://www.w3.org/2000/svg" desc="Created with imagetracer.js version 1.2.5"><path d="M 239.5 3 L 247.5 3 L 248.5 4 Q 250 1.5 255.5 3 L 256.5 4 L 284.5 4 L 286.5 5 L 290.5 4 L 292.5 5 L 294.5 4 L 296.5 4 Q 303.2 6.3 313.5 5 L 315.5 5 L 318.5 4 L 320.5 4 Q 331.1 2.4 336 6.5 L 336 258.5 L 337 259.5 L 336 260.5 L 336 311.5 L 336 313.5 L 336 329.5 L 337 332.5 L 336 333.5 L 336 341.5 L 337 342.5 L 337 350.5 Q 334.5 352 336 357.5 L 337 360.5 L 336 361.5 L 336 377.5 L 337 379.5 L 336 380.5 L 336 463.5 L 337 465.5 L 336 466.5 L 336 493.5 L 337 497.5 L 337 499.5 L 336 502.5 L 337 503.5 L 337 525.5 L 336 527.5 L 337 528.5 L 337 543.5 L 336 548.5 L 337 549.5 L 337 586.5 L 339 589.5 L 338 592 L 330.5 593 L 328.5 592 L 327.5 593 L 271.5 594 L 270.5 593 L 227.5 593 L 225.5 594 L 220.5 593 L 217.5 594 L 215.5 594 L 203.5 595 L 202.5 594 L 158.5 594 L 157.5 595 L 134.5 595 L 132.5 596 L 131.5 595 L 96.5 594 L 95.5 595 L 87.5 595 L 86.5 594 L 77.5 594 L 76.5 595 L 55.5 595 L 51.5 596 L 49.5 596 L 47.5 595 L 46.5 596 L 36.5 596 L 34.5 595 L 29.5 596 L 27.5 596 L 15.5 597 L 14.5 596 L 7 596 Q 5.4 593.9 6 588.5 L 6 586.5 L 7 583.5 Q 4.7 582.2 6 577.5 L 6 575.5 L 7 571.5 L 6 570.5 L 6 534.5 Q 8.3 533.2 7 528.5 L 6 526.5 L 7 524.5 L 6 523.5 L 6 200.5 L 5 199.5 L 5 191.5 L 6 189.5 L 5 184.5 L 6 183.5 L 6 110.5 L 5 108.5 L 6 107.5 L 6 75.5 Q 3.7 74.3 5 69.5 L 6 65.5 L 5 62.5 L 5 36.5 L 6 33.5 L 5 32.5 L 5 15.5 L 6 14.5 L 6 7 L 11.5 6 L 16.5 7 L 17.5 6 L 53.5 6 L 56.5 7 Q 58.3 4.3 64.5 6 L 66.5 7 L 68.5 7 L 88.5 7 L 89.5 6 L 112.5 6 L 117.5 5 L 120.5 6 L 121.5 5 L 139.5 5 L 143.5 6 L 144.5 5 L 207.5 4 L 209.5 4 L 213.5 5 L 214.5 4 L 238.5 4 L 239.5 3 Z M 189 7 L 188 8 L 175 8 L 173 8 L 160 8 L 159 9 L 156 8 L 153 9 L 150 8 L 148 9 L 146 8 L 145 9 L 118 9 L 117 10 L 92 10 L 88 11 L 86 11 L 76 11 L 75 10 L 74 11 L 64 11 L 62 11 Q 56 13 55 10 L 52 11 L 50 11 L 49 10 L 34 10 L 32 9 L 30 9 L 26 10 L 22 9 L 20 9 L 19 10 L 9 10 L 8 14 L 8 22 L 9 23 L 8 25 L 8 38 L 8 40 Q 7 44 9 46 L 9 55 L 8 56 L 8 73 L 9 74 L 9 96 L 8 97 L 9 100 L 9 113 L 8 115 L 8 117 L 8 126 L 9 127 L 9 194 L 8 195 L 8 203 L 9 204 L 9 292 L 10 293 L 10 303 L 9 304 L 9 326 L 10 327 L 9 329 L 9 420 L 10 421 L 9 423 L 9 455 L 14 456 L 15 455 L 33 455 L 35 454 L 37 454 L 40 455 L 48 454 L 50 454 L 66 454 L 67 455 L 79 455 L 80 454 L 84 455 Q 90 453 101 454 L 112 452 Q 115 450 113 444 L 107 440 L 106 437 L 107 433 L 102 429 L 98 426 L 97 422 L 98 409 L 99 408 Q 100 403 98 402 L 99 400 L 99 365 L 100 364 L 101 305 L 102 304 L 102 294 L 103 293 L 104 270 L 105 269 L 104 267 Q 103 262 105 261 L 104 257 L 105 243 L 106 242 L 104 235 Q 102 218 108 210 L 108 196 L 107 195 L 108 188 L 110 185 Q 109 178 111 175 L 115 172 L 123 163 L 123 155 L 122 155 L 114 152 Q 115 145 113 146 Q 109 145 110 140 L 108 140 L 111 135 L 115 138 L 116 138 L 111 134 L 112 131 L 111 131 Q 108 130 109 133 Q 112 134 108 136 L 106 130 Q 98 132 94 128 L 90 124 L 91 119 L 99 112 Q 101 111 100 114 L 102 115 L 101 113 L 102 102 L 109 92 L 116 89 L 118 90 L 128 85 L 137 84 L 138 85 L 135 80 Q 133 73 136 72 L 135 69 L 132 67 L 129 61 L 145 64 L 150 74 L 150 83 L 149 84 Q 148 86 151 85 Q 153 86 152 92 Q 154 95 162 94 L 165 97 Q 166 104 161 106 Q 162 108 159 107 Q 156 108 157 112 Q 163 114 167 119 Q 168 123 165 124 L 169 130 L 169 132 L 171 133 L 171 137 L 165 141 Q 161 140 162 143 L 164 144 L 162 144 L 163 146 L 165 145 L 168 148 L 167 152 L 147 157 L 132 168 L 129 172 L 132 171 L 132 173 L 140 166 Q 142 165 141 169 L 138 170 Q 133 171 134 176 L 131 178 Q 128 177 129 180 Q 125 181 129 183 Q 139 170 160 166 L 168 166 L 173 168 L 193 171 Q 194 174 196 172 Q 200 171 198 175 L 196 176 L 211 178 L 209 189 L 210 193 L 210 204 L 209 205 L 211 205 Q 215 206 214 213 L 211 211 Q 212 208 210 209 Q 205 208 206 202 L 201 197 L 201 190 L 198 190 L 200 196 L 199 198 Q 200 200 198 199 L 192 192 L 190 189 L 181 189 L 173 187 L 165 187 L 163 189 L 145 193 L 145 191 L 143 192 L 141 195 L 144 193 L 145 196 L 148 195 L 166 195 L 169 194 L 186 196 L 193 198 Q 194 201 196 199 L 202 202 L 216 220 Q 217 223 215 222 L 203 208 L 197 202 L 176 197 L 163 197 L 162 198 Q 155 200 154 197 L 148 198 L 146 198 L 144 201 L 139 202 L 136 198 L 131 208 L 132 209 L 133 207 L 138 203 L 143 202 L 158 202 L 168 206 Q 170 207 169 211 L 180 218 L 206 225 L 210 229 L 209 231 L 200 226 L 181 221 Q 179 219 178 222 L 181 227 L 187 228 L 188 237 Q 185 242 178 243 Q 177 246 181 245 L 181 248 L 178 251 L 176 250 L 177 248 L 177 246 L 171 249 L 170 248 L 165 253 Q 162 254 163 252 L 161 250 L 159 247 Q 159 253 155 254 Q 150 253 152 257 L 164 263 L 165 263 L 159 259 L 166 254 Q 168 255 167 261 L 169 262 L 168 260 L 172 254 L 175 256 L 174 258 Q 172 264 178 262 L 176 255 L 180 253 L 186 255 L 188 252 L 184 253 L 181 252 L 185 249 L 192 250 L 194 257 L 196 256 L 199 257 L 200 254 L 199 254 L 197 253 Q 192 254 194 249 L 202 247 L 195 246 L 188 239 L 191 237 L 196 243 L 199 243 L 196 241 Q 192 240 193 236 L 200 237 L 202 240 L 203 237 L 199 236 L 194 231 L 192 231 L 193 229 L 197 231 Q 199 230 198 233 L 202 232 L 210 235 L 225 231 L 227 232 L 230 231 L 228 229 L 224 230 L 224 223 L 223 222 Q 222 217 225 216 L 225 203 L 226 202 L 225 201 L 225 190 L 223 180 L 223 165 Q 217 168 218 179 L 218 181 L 219 196 L 219 198 L 220 203 L 219 205 L 221 213 L 221 227 L 218 228 L 217 211 L 216 210 L 217 208 L 216 207 L 216 186 L 215 185 Q 213 174 216 168 L 214 169 Q 215 171 213 170 L 211 166 L 209 172 L 207 174 Q 208 177 205 176 L 198 169 Q 199 166 196 167 Q 193 166 194 162 L 187 157 L 183 158 L 179 157 L 176 158 L 168 158 L 166 157 L 168 154 L 173 155 L 169 147 Q 168 144 171 145 L 178 155 L 180 154 Q 181 157 188 155 L 195 158 L 197 164 L 205 167 L 211 163 L 217 164 Q 220 155 228 149 Q 230 150 229 148 L 235 144 L 239 137 Q 238 133 241 134 Q 243 133 241 132 L 242 130 L 242 123 L 240 122 L 241 118 L 240 112 L 240 110 L 241 105 L 240 100 L 241 98 L 239 80 Q 236 74 234 80 L 227 79 L 232 71 L 226 71 L 221 74 L 220 69 L 225 65 Q 226 62 223 61 L 225 51 L 228 49 Q 227 54 231 57 L 231 63 L 233 62 L 236 65 L 234 70 L 235 72 L 239 75 L 238 73 L 239 68 L 237 64 L 238 58 L 246 50 L 249 49 L 254 50 L 256 55 L 255 59 L 256 61 L 254 68 L 257 79 L 259 74 Q 263 75 261 71 L 267 68 L 263 75 Q 262 81 265 83 L 264 88 L 261 89 Q 257 88 258 82 Q 258 88 255 90 L 256 99 L 260 108 L 260 119 L 261 120 L 259 130 L 255 134 Q 254 139 256 141 L 255 143 L 258 160 L 260 158 L 261 152 L 267 147 L 266 150 L 267 152 Q 265 156 270 155 L 271 159 L 268 161 L 266 160 L 264 163 Q 261 162 262 165 L 266 165 L 272 169 L 269 174 L 263 171 L 262 174 L 260 173 L 257 175 L 257 198 L 258 199 L 257 203 L 258 204 L 259 225 L 261 227 L 261 231 Q 265 232 264 239 Q 263 241 262 239 L 259 250 L 259 262 L 258 263 L 259 270 L 259 272 L 259 294 L 258 295 L 259 297 L 258 300 L 258 333 L 259 334 L 259 350 L 260 351 L 261 395 L 262 388 L 267 384 Q 266 381 269 382 L 270 382 L 268 393 L 266 396 L 269 397 L 270 400 L 266 402 L 263 401 L 260 400 L 260 413 L 261 414 Q 263 420 260 422 L 261 432 L 263 433 L 266 432 L 279 419 L 288 407 L 293 407 L 301 414 L 302 417 L 308 421 L 310 421 L 315 415 L 322 410 L 326 412 L 329 416 Q 331 415 330 418 L 332 418 L 331 416 L 331 343 L 331 341 L 331 300 L 330 299 L 330 276 L 331 275 L 331 189 L 331 187 L 330 170 L 330 168 L 330 124 L 331 123 Q 333 117 330 116 L 331 110 L 331 108 L 331 96 L 330 95 L 331 93 L 330 88 Q 329 83 331 82 L 330 79 L 331 75 L 331 33 L 330 32 L 330 10 L 329 8 L 301 9 L 299 9 Q 292 11 291 8 L 288 9 L 260 8 L 259 7 L 256 8 Q 251 9 250 7 L 246 8 L 244 7 L 235 7 L 234 8 L 232 7 L 229 8 L 200 8 L 199 7 L 197 8 L 189 7 Z M 247 52 L 245 54 Q 244 57 248 55 L 249 53 L 247 52 Z M 250 52 Q 249 55 252 54 Q 253 51 250 52 Z M 249 55 L 247 57 L 249 57 L 249 55 Z M 228 56 Q 225 57 226 61 L 228 62 L 228 56 Z M 241 57 L 240 60 Q 239 64 242 66 Q 245 64 241 63 L 243 58 L 241 57 Z M 246 61 L 245 65 L 246 65 L 246 61 Z M 249 62 L 250 67 L 252 64 L 249 62 Z M 243 66 Q 240 67 241 73 L 243 74 L 242 71 L 243 68 L 243 66 Z M 143 67 L 142 72 L 143 72 L 143 67 Z M 225 67 L 223 69 L 224 71 L 228 69 L 225 67 Z M 249 70 L 250 72 Q 251 69 249 70 Z M 144 72 L 143 76 L 144 76 L 144 72 Z M 248 73 L 245 76 Q 244 78 247 77 L 248 75 L 248 73 Z M 233 75 L 232 76 Q 229 75 230 78 L 234 77 Q 235 74 233 75 Z M 243 75 L 241 78 L 244 98 L 245 98 L 245 88 L 244 87 Q 243 82 245 81 Q 242 79 243 75 Z M 146 76 L 145 79 L 146 79 L 146 76 Z M 250 79 L 250 84 L 251 84 Q 253 78 250 79 Z M 145 80 L 145 82 L 147 81 L 145 80 Z M 247 80 L 246 84 L 247 84 L 247 80 Z M 141 83 L 141 85 L 143 86 Q 144 82 141 83 Z M 262 83 L 261 86 L 262 86 L 262 83 Z M 134 86 L 121 91 L 114 92 L 111 96 L 113 97 L 107 104 L 108 108 L 109 102 Q 112 101 111 105 L 114 104 L 113 111 Q 116 112 115 109 Q 119 108 117 113 L 115 112 L 114 115 L 124 113 L 137 107 Q 141 105 138 104 L 140 100 L 140 104 L 142 103 L 140 96 L 141 90 L 139 87 L 134 86 Z M 253 86 L 252 89 L 253 89 L 253 86 Z M 149 91 L 149 95 L 151 95 L 149 91 Z M 251 92 L 252 93 L 253 94 Q 254 91 251 92 Z M 247 96 L 247 99 Q 250 98 247 96 Z M 162 97 L 161 101 L 162 101 L 162 97 Z M 145 98 L 143 102 Q 142 104 145 103 L 145 98 Z M 244 99 L 244 101 L 246 100 L 244 99 Z M 249 100 L 250 102 Q 251 99 249 100 Z M 254 100 Q 252 103 255 102 L 254 100 Z M 158 101 Q 159 104 157 103 L 154 107 L 156 107 L 161 103 Q 162 100 158 101 Z M 247 102 L 246 104 L 243 106 Q 245 109 247 105 L 247 102 Z M 152 103 L 144 105 L 130 113 L 117 118 L 106 119 L 105 122 L 102 121 L 100 119 L 99 119 L 100 123 L 97 122 Q 98 125 96 124 L 94 119 L 93 124 L 97 127 L 102 128 L 118 126 L 124 123 L 127 123 L 152 109 L 153 107 L 147 110 Q 144 111 145 109 L 152 105 L 152 103 Z M 256 104 L 254 107 L 256 108 L 256 104 Z M 111 105 L 110 114 L 111 114 L 111 105 Z M 243 107 L 241 109 Q 240 111 243 110 L 244 108 L 243 107 Z M 250 107 L 250 109 L 252 108 L 250 107 Z M 249 109 L 245 113 L 246 114 L 243 114 Q 242 117 246 116 L 249 111 L 249 109 Z M 257 109 L 256 118 L 257 119 L 256 123 L 256 125 L 258 126 L 258 117 L 257 109 Z M 155 112 L 153 115 Q 152 118 155 117 L 156 121 L 157 118 Q 158 115 155 116 L 155 112 Z M 149 113 L 149 115 L 151 114 L 149 113 Z M 108 114 L 107 116 L 109 115 L 108 114 Z M 251 114 L 249 116 L 251 116 L 251 114 Z M 158 115 L 160 117 L 160 118 Q 156 117 157 120 L 159 119 L 158 122 L 161 121 L 161 123 L 159 124 L 162 125 L 164 121 L 162 118 Q 161 115 158 115 Z M 146 116 L 146 119 L 148 118 Q 149 115 146 116 Z M 243 116 L 243 119 Q 246 118 243 116 Z M 102 117 L 102 119 L 105 119 L 102 117 Z M 143 118 L 141 121 L 143 120 L 143 118 Z M 153 120 L 153 125 L 154 125 Q 156 119 153 120 Z M 251 120 L 249 122 L 252 122 L 251 120 Z M 150 121 L 150 122 L 152 122 L 150 121 Z M 247 122 L 247 124 L 249 123 L 247 122 Z M 139 124 L 143 128 L 143 127 L 139 124 Z M 253 124 L 249 127 L 249 130 Q 253 130 252 135 L 253 135 Q 255 129 251 130 L 253 126 L 253 129 L 254 129 Q 256 123 253 124 Z M 130 125 Q 128 128 131 127 L 130 125 Z M 146 125 Q 147 127 146 133 L 147 133 L 147 126 L 146 125 Z M 155 125 L 152 129 Q 149 128 150 131 L 153 130 L 154 134 L 155 129 Q 152 127 156 126 L 155 125 Z M 159 125 L 160 133 L 163 134 L 164 134 L 161 132 L 160 130 L 161 127 L 159 125 Z M 126 126 L 124 129 L 126 129 L 126 126 Z M 151 126 L 149 128 L 151 128 L 151 126 Z M 257 127 L 256 130 L 257 130 L 257 127 Z M 117 128 L 115 132 L 117 133 L 117 128 Z M 121 128 L 120 132 L 121 132 L 121 128 Z M 139 128 L 135 129 L 134 132 L 135 134 L 135 133 Q 137 128 139 132 L 138 134 Q 137 136 140 135 L 141 133 L 140 131 Q 141 127 139 128 Z M 127 129 Q 126 132 129 131 Q 130 128 127 129 Z M 164 129 L 165 133 L 166 133 Q 168 128 164 129 Z M 246 129 L 244 131 Q 246 136 243 138 L 244 139 L 244 152 L 245 153 L 246 174 L 246 164 L 247 163 L 246 148 L 245 147 L 245 138 L 246 137 L 245 135 L 247 131 Q 248 128 246 129 Z M 131 130 L 130 132 L 133 132 L 131 130 Z M 122 132 Q 121 135 124 134 Q 125 131 122 132 Z M 125 133 Q 124 136 127 135 Q 128 132 125 133 Z M 168 133 Q 165 137 169 136 L 168 133 Z M 128 134 L 130 138 Q 129 141 132 140 L 131 143 Q 130 145 133 144 L 135 140 L 134 138 L 133 138 L 132 136 L 128 134 Z M 164 135 L 163 137 L 161 138 L 164 138 L 164 135 Z M 251 135 Q 249 138 252 137 L 251 135 Z M 126 137 L 127 144 L 128 142 L 126 137 Z M 138 137 Q 136 140 139 139 L 140 142 Q 141 147 137 148 L 140 148 L 143 144 L 142 139 Q 143 136 140 137 L 138 137 Z M 253 137 L 252 139 L 249 140 L 249 141 L 253 141 L 253 137 Z M 122 138 L 119 144 Q 122 145 121 143 L 122 143 L 120 147 L 120 148 L 116 148 L 116 150 L 122 152 L 124 148 Q 125 140 122 138 Z M 241 138 L 237 146 L 233 150 Q 234 152 231 151 L 227 158 Q 229 163 226 165 L 227 171 L 226 174 L 227 182 L 230 183 L 228 180 L 231 175 L 231 171 L 234 168 L 239 171 Q 241 170 239 169 L 240 166 L 242 166 L 243 166 L 242 165 L 242 151 L 241 150 L 241 138 Z M 248 138 L 247 143 L 248 143 L 248 138 Z M 147 140 L 146 143 L 147 143 L 147 140 Z M 152 140 Q 152 143 148 142 Q 146 147 150 149 L 152 146 L 152 140 Z M 114 141 Q 113 144 116 143 Q 117 140 114 141 Z M 157 142 L 156 145 L 154 146 L 156 146 L 155 150 L 157 149 L 157 142 Z M 144 147 L 141 149 L 141 150 L 144 149 L 144 147 Z M 128 148 L 126 150 L 127 152 L 128 150 L 128 148 Z M 131 148 L 130 151 L 132 153 L 134 153 L 132 152 Q 131 149 134 150 L 135 152 L 135 149 L 131 148 Z M 247 148 L 247 150 L 249 149 L 247 148 Z M 146 151 L 146 152 L 150 152 L 146 151 Z M 153 151 L 152 153 L 156 152 L 153 151 Z M 264 152 L 263 157 L 264 157 L 264 152 Z M 141 153 L 138 156 L 144 157 L 146 156 L 141 153 Z M 128 154 L 126 156 L 129 161 L 129 157 L 137 156 L 138 154 L 136 155 L 128 154 Z M 251 158 L 250 161 L 252 161 L 251 158 Z M 224 159 L 222 162 L 222 163 L 224 162 L 224 159 Z M 255 159 L 255 166 L 256 166 L 255 159 Z M 134 161 L 132 162 L 131 164 L 135 163 Q 136 160 134 161 Z M 259 161 L 259 164 Q 262 163 259 161 Z M 127 163 L 125 167 L 126 170 L 127 168 L 127 163 Z M 249 164 L 248 169 L 249 169 L 249 164 Z M 255 168 L 254 178 L 255 178 L 255 168 Z M 267 168 L 267 171 L 269 170 L 267 168 Z M 159 169 L 148 172 L 138 178 Q 126 187 121 202 L 118 204 L 119 207 L 121 206 L 122 209 L 120 217 Q 123 220 121 228 L 122 229 Q 122 236 118 239 L 121 247 L 117 248 L 115 243 L 114 243 L 115 247 L 115 257 L 113 266 Q 116 269 114 277 L 115 278 L 114 320 Q 110 321 113 323 L 113 335 L 112 336 L 113 339 Q 115 345 112 347 L 113 349 Q 115 354 112 356 L 115 368 L 113 377 L 114 380 L 114 382 L 111 389 L 111 411 L 112 412 L 111 414 L 111 426 L 110 427 L 112 438 L 115 437 L 114 432 L 114 416 L 113 415 L 114 389 L 115 387 L 115 385 L 116 366 L 117 365 L 117 348 L 118 347 L 118 311 L 117 310 L 118 308 L 118 301 L 121 301 L 121 351 L 120 352 L 121 354 L 120 359 L 121 361 Q 119 364 120 372 L 119 373 L 119 383 L 117 391 L 118 393 L 116 403 L 116 411 L 119 412 L 120 416 L 120 418 Q 121 422 118 421 L 119 424 L 118 426 Q 117 432 120 435 Q 115 443 117 457 Q 122 456 124 459 Q 126 458 124 457 L 125 455 L 124 450 L 124 425 L 125 424 L 125 414 L 127 410 L 125 400 L 126 398 L 130 396 Q 132 400 134 396 L 134 394 L 125 394 L 122 392 L 121 387 L 122 368 L 122 366 L 123 364 L 123 353 L 124 352 L 123 349 L 124 347 L 125 314 L 127 303 L 125 294 L 126 291 L 126 289 L 125 283 L 119 293 L 120 297 L 116 298 L 115 296 L 116 291 L 122 281 L 126 269 L 126 266 L 125 268 L 121 271 Q 116 272 115 270 L 115 261 L 117 254 L 120 252 L 121 255 L 118 265 L 121 266 L 125 259 Q 127 260 127 265 Q 126 261 129 260 Q 130 255 128 256 L 126 255 Q 127 248 124 246 L 126 231 L 131 223 L 133 224 L 132 222 L 131 211 L 130 211 Q 128 217 131 219 L 127 220 L 126 218 L 129 205 L 134 198 L 137 190 L 141 187 L 145 182 L 155 175 L 165 172 Q 172 174 171 170 Q 167 168 159 169 Z M 203 169 L 205 172 L 206 171 L 203 169 Z M 173 171 L 173 172 L 177 172 L 173 171 Z M 249 171 L 248 184 L 250 187 L 251 185 L 249 183 L 249 171 Z M 241 172 L 237 175 L 239 177 L 241 174 L 241 172 Z M 251 172 Q 251 174 251 180 L 252 180 L 252 173 L 251 172 Z M 127 173 L 124 174 L 121 180 L 127 175 L 127 173 Z M 172 174 L 155 178 L 151 181 L 149 181 L 149 185 Q 152 186 151 184 L 161 178 L 171 178 L 172 177 Q 176 176 178 178 L 185 176 L 178 175 L 176 175 L 172 174 Z M 247 175 L 246 181 L 247 181 L 247 175 Z M 186 176 L 186 177 L 191 179 L 192 179 L 186 176 Z M 236 177 Q 236 180 234 179 L 232 179 L 235 184 L 238 178 L 236 177 Z M 175 179 L 170 180 L 170 181 L 177 181 L 175 179 Z M 195 179 L 195 180 L 205 184 L 204 194 L 204 196 Q 203 198 206 197 L 206 199 L 208 199 L 206 193 L 208 182 L 203 179 L 200 180 L 195 179 Z M 243 180 L 242 185 L 243 185 L 243 180 Z M 159 181 L 158 183 L 163 182 L 164 183 Q 165 180 159 181 Z M 186 182 L 185 183 L 173 184 L 175 185 L 187 186 L 188 187 L 191 186 L 193 190 L 198 188 L 193 183 L 191 184 L 186 182 Z M 147 185 L 142 188 L 137 194 L 138 195 L 140 192 L 148 186 L 147 185 Z M 156 185 Q 155 188 158 187 Q 159 184 156 185 Z M 199 185 L 201 188 Q 203 189 202 187 L 199 185 Z M 232 185 Q 229 187 232 188 L 233 186 L 232 185 Z M 150 187 L 149 189 L 153 189 L 150 187 Z M 244 187 L 242 190 L 241 205 L 240 206 L 241 209 L 237 223 L 238 226 L 245 222 L 244 220 L 245 218 L 244 214 L 244 187 Z M 250 188 L 248 191 Q 247 193 250 192 L 250 188 Z M 255 188 L 254 200 L 255 200 L 255 188 Z M 239 190 L 237 193 L 238 195 L 239 193 L 239 190 Z M 140 196 Q 137 200 141 199 L 140 196 Z M 248 196 L 247 216 L 248 219 L 249 219 L 248 196 Z M 238 197 L 236 200 L 238 199 L 238 197 Z M 256 202 L 254 204 L 256 204 L 256 202 Z M 114 203 L 113 206 Q 112 209 115 208 L 116 205 Q 117 202 114 203 Z M 149 204 L 148 205 L 144 205 L 144 212 L 149 215 L 148 211 Q 147 207 150 206 Q 152 205 151 208 L 153 208 L 154 206 L 155 209 Q 159 210 156 212 Q 149 210 151 216 L 157 214 L 158 212 L 157 207 Q 158 203 154 205 L 152 205 L 149 204 Z M 138 206 Q 137 209 140 208 Q 141 205 138 206 Z M 250 206 L 249 209 L 250 209 L 250 206 Z M 162 209 L 160 215 L 151 222 Q 148 221 149 224 L 153 223 L 157 224 L 159 229 L 162 224 L 170 219 Q 171 224 168 225 Q 165 224 166 227 L 169 228 L 173 225 Q 175 224 174 227 Q 174 231 169 230 L 166 231 L 168 235 Q 170 238 173 233 L 177 234 L 176 233 Q 175 229 178 230 Q 180 231 179 236 L 176 238 Q 175 240 180 239 L 183 236 L 184 231 L 181 229 L 178 226 Q 177 223 174 224 L 171 220 L 174 221 L 174 220 L 173 218 L 163 218 Q 161 220 160 218 L 161 216 L 170 216 L 170 215 L 162 209 Z M 236 209 L 234 212 L 236 211 L 236 209 Z M 140 214 L 139 232 L 140 233 L 140 243 L 141 244 L 140 246 Q 142 247 141 252 L 141 254 L 142 257 L 141 259 L 142 260 L 142 276 L 143 277 L 141 280 L 143 279 L 143 281 L 143 283 L 141 293 L 142 295 Q 140 296 143 297 L 143 286 L 144 285 L 144 264 L 143 263 L 143 250 L 141 242 L 141 232 L 140 231 L 140 214 Z M 256 216 L 254 219 L 256 219 L 256 216 Z M 252 219 L 256 223 L 256 221 L 252 219 Z M 248 222 L 243 226 L 247 226 L 251 224 L 248 222 Z M 115 225 L 114 230 L 115 230 L 115 225 Z M 152 225 L 149 226 L 147 226 L 145 226 L 145 230 L 149 230 L 149 229 L 152 227 L 152 225 Z M 234 225 L 233 227 L 232 229 L 234 228 L 234 225 Z M 242 226 L 238 228 L 237 230 L 243 227 L 242 226 Z M 256 226 L 259 230 L 259 229 L 256 226 Z M 234 230 L 234 232 L 236 231 L 234 230 Z M 255 230 L 256 233 L 258 232 L 255 230 Z M 150 231 Q 148 234 151 233 L 150 231 Z M 156 231 L 156 234 L 153 235 L 161 243 L 162 247 L 165 245 L 168 247 Q 170 248 169 245 L 165 242 L 159 235 Q 161 229 156 231 Z M 145 232 L 147 234 Q 148 231 145 232 Z M 242 232 L 241 236 L 242 236 L 242 232 Z M 259 232 L 258 234 L 262 236 L 262 235 L 259 232 Z M 114 233 L 115 236 L 117 235 Q 118 232 114 233 Z M 130 233 L 128 239 L 129 246 L 129 244 L 129 242 L 130 240 L 130 233 Z M 225 234 L 224 238 L 226 243 L 227 240 Q 229 233 225 234 Z M 218 235 L 215 236 L 212 245 L 212 249 L 214 248 Q 216 249 214 251 L 215 257 Q 217 255 216 250 L 221 248 L 223 250 Q 222 254 225 253 L 224 251 L 225 249 L 221 240 L 220 242 Q 216 243 215 241 L 219 238 L 221 239 L 221 236 L 220 236 L 218 235 Z M 231 235 L 230 238 L 231 238 L 231 235 Z M 253 235 Q 251 238 254 237 L 253 235 Z M 210 237 L 208 243 Q 204 242 206 247 Q 205 250 199 250 L 201 253 Q 202 249 206 250 L 212 238 L 210 237 Z M 231 243 Q 229 246 232 245 L 231 243 Z M 244 244 L 230 249 L 231 251 L 234 249 L 234 256 L 233 257 L 233 290 L 232 295 L 229 300 L 229 304 L 229 306 Q 229 318 225 326 L 228 335 L 228 340 L 231 346 L 231 353 L 228 353 L 229 359 L 225 364 L 218 363 L 215 366 L 213 386 L 212 387 L 211 416 L 211 418 L 210 421 L 212 420 Q 211 417 214 418 L 218 413 L 220 410 L 228 403 L 236 409 Q 238 410 237 406 L 240 406 L 245 413 L 245 417 Q 248 418 247 415 L 247 413 L 246 411 L 247 409 Q 248 404 246 403 L 246 363 L 245 362 L 246 359 L 246 357 L 245 354 L 245 339 L 245 337 L 246 336 L 246 322 L 247 321 L 246 318 L 247 316 L 244 302 L 244 280 L 244 278 L 245 274 L 244 272 L 245 257 L 244 254 L 245 250 L 244 244 Z M 250 244 L 248 248 L 249 256 L 250 256 L 250 249 L 252 248 L 253 246 L 251 245 L 251 247 L 250 244 Z M 151 247 L 149 249 Q 148 252 151 251 L 151 247 Z M 210 250 L 208 256 L 210 257 L 210 250 Z M 189 253 L 190 255 Q 191 252 189 253 Z M 204 253 L 202 256 L 204 255 L 204 253 Z M 147 254 L 146 259 Q 150 257 149 261 L 151 260 L 147 254 Z M 227 256 L 225 258 L 227 258 L 227 256 Z M 182 257 L 182 262 L 184 261 Q 186 262 185 259 L 182 257 Z M 250 257 L 249 261 L 250 261 L 250 257 Z M 200 258 L 199 261 L 200 261 L 200 258 Z M 210 259 Q 209 262 212 261 Q 213 258 210 259 Z M 217 260 Q 215 263 218 262 L 217 260 Z M 227 261 L 228 265 L 228 272 L 230 272 L 229 270 L 230 266 L 229 263 Q 230 260 227 261 Z M 249 261 L 249 275 Q 251 272 250 265 L 249 261 Z M 157 263 L 156 266 L 159 267 L 160 265 L 157 263 Z M 213 263 L 214 266 L 215 264 L 213 263 Z M 148 264 L 147 268 L 152 268 L 148 264 Z M 168 264 L 168 268 L 168 269 L 175 269 L 168 264 Z M 199 265 L 194 268 L 198 269 L 204 267 L 207 280 L 209 279 L 206 271 L 206 266 L 205 266 L 199 265 Z M 187 267 L 185 269 L 180 269 L 173 273 L 179 274 L 183 282 Q 184 289 181 292 Q 180 295 176 294 L 177 305 L 184 303 L 183 302 Q 181 295 189 298 Q 190 301 192 297 L 196 305 L 191 307 L 194 313 Q 195 319 193 323 L 185 328 L 180 327 L 178 328 L 179 329 L 180 345 Q 183 346 182 343 L 185 341 L 184 340 L 186 336 L 194 329 L 196 326 L 199 324 Q 200 329 197 332 L 192 335 Q 189 334 190 338 L 193 336 L 194 337 L 196 336 L 199 338 L 197 341 L 198 342 L 201 341 Q 202 335 199 333 L 203 330 L 208 332 L 210 341 Q 206 342 210 344 L 214 339 L 213 324 L 211 311 L 208 315 L 201 313 L 205 307 Q 200 308 199 305 L 200 302 L 195 300 L 193 295 L 194 292 Q 195 288 192 289 L 190 286 L 191 285 L 188 282 Q 187 279 190 280 L 190 278 L 195 279 L 194 286 L 194 287 L 201 282 L 204 282 Q 205 276 202 272 L 199 274 L 195 274 L 189 272 L 188 270 Q 189 266 187 267 Z M 130 268 L 128 275 L 130 274 L 130 268 Z M 153 268 L 155 270 Q 156 267 153 268 Z M 156 269 Q 155 275 159 278 L 159 275 L 163 273 L 162 282 L 161 285 L 162 302 L 165 301 L 166 306 Q 166 313 162 317 Q 163 325 161 330 L 161 332 L 161 343 L 163 343 L 166 349 L 165 357 L 162 360 L 162 369 L 164 370 Q 170 371 173 368 L 168 358 L 172 355 L 171 344 L 170 342 L 169 345 L 165 343 L 166 340 L 170 338 L 169 319 L 169 317 L 168 307 L 168 305 Q 167 299 169 298 Q 170 293 168 294 L 168 296 L 167 299 L 164 296 L 166 293 Q 167 288 163 288 L 163 282 Q 164 278 168 279 Q 169 281 170 279 L 170 276 L 166 277 L 164 274 Q 168 275 169 273 L 156 269 Z M 252 270 L 251 274 L 252 274 L 252 270 Z M 170 271 L 170 272 L 173 272 L 170 271 Z M 222 272 L 221 275 L 222 275 L 222 272 Z M 255 274 L 253 276 L 255 276 L 255 274 Z M 214 275 L 213 278 L 214 278 L 214 275 Z M 250 275 L 248 277 L 248 293 L 247 294 L 249 306 L 249 305 L 249 303 L 249 291 L 250 289 L 249 286 L 250 284 L 249 281 L 250 278 L 250 275 Z M 152 276 L 151 281 L 152 281 L 152 276 Z M 139 277 L 137 279 L 139 279 L 139 277 Z M 175 278 L 176 281 L 175 284 L 177 287 Q 179 286 177 285 L 178 280 L 175 278 Z M 126 279 L 125 283 L 126 283 L 126 279 Z M 159 279 L 153 291 L 153 296 L 158 295 L 159 293 L 159 291 L 159 279 Z M 220 280 L 218 282 L 220 282 L 220 280 Z M 255 280 L 254 283 L 255 283 L 255 280 Z M 222 281 L 220 284 Q 216 285 220 287 L 222 284 L 222 281 Z M 228 281 L 228 283 L 230 282 L 228 281 Z M 151 282 L 149 284 L 147 283 L 146 288 L 148 289 Q 149 285 151 288 L 152 283 L 151 282 Z M 226 283 L 227 287 L 228 284 L 226 283 Z M 206 287 L 204 289 Q 203 291 207 290 L 206 287 Z M 202 292 L 201 296 L 205 298 L 204 297 L 208 294 L 202 292 Z M 255 295 L 253 297 L 255 297 L 255 295 Z M 173 296 L 171 298 L 172 309 L 175 307 L 174 299 L 173 296 Z M 227 296 L 225 299 L 227 298 L 227 296 Z M 147 297 Q 145 300 148 299 L 147 297 Z M 219 297 Q 218 300 221 299 Q 222 296 219 297 Z M 110 298 L 109 301 L 110 301 L 110 298 Z M 143 299 L 142 303 L 141 305 L 143 304 L 143 299 Z M 216 299 L 215 303 L 217 302 L 217 308 L 218 308 Q 220 300 216 301 L 216 299 Z M 159 301 Q 156 302 158 304 L 157 306 L 159 305 L 159 301 Z M 188 302 Q 186 305 189 304 L 188 302 Z M 209 303 L 209 307 L 208 310 Q 207 312 210 311 Q 211 306 209 303 Z M 213 304 L 213 310 L 214 310 Q 215 303 213 304 Z M 150 305 L 150 310 Q 148 315 152 314 L 150 305 Z M 143 306 L 141 308 L 142 311 L 141 313 Q 140 316 143 315 L 141 318 L 143 326 L 142 328 L 142 330 L 143 332 L 142 333 L 142 346 L 140 348 L 141 350 L 140 353 L 141 354 L 141 364 L 141 366 Q 143 372 140 374 L 141 376 L 140 380 Q 142 381 139 383 L 141 383 L 138 387 L 140 387 L 141 387 L 141 392 L 139 392 L 139 394 L 141 394 Q 143 399 140 398 L 140 399 Q 142 398 141 401 L 138 402 Q 137 405 141 404 L 143 401 L 142 398 L 142 373 L 143 372 L 142 369 Q 141 363 143 362 L 142 360 L 143 358 L 143 341 L 144 340 L 144 321 L 143 320 L 144 315 L 144 313 L 143 306 Z M 250 306 L 251 314 L 252 311 L 250 306 Z M 161 307 L 162 312 L 163 308 L 161 307 Z M 254 307 L 253 310 L 254 310 L 254 307 Z M 157 308 L 156 310 L 159 311 L 159 309 L 157 308 Z M 219 308 L 218 313 L 219 313 L 219 308 Z M 182 309 L 179 312 Q 177 317 183 315 Q 184 312 181 313 L 183 310 L 182 309 Z M 173 311 L 171 313 L 172 319 L 173 317 L 173 311 Z M 186 311 L 186 313 L 188 314 Q 189 310 186 311 Z M 225 311 L 224 314 L 225 314 L 225 311 Z M 215 312 L 214 315 L 215 315 L 215 312 Z M 137 313 L 136 320 L 137 320 L 137 313 Z M 158 313 L 155 316 Q 154 318 157 317 Q 161 315 158 313 Z M 220 313 L 219 316 L 220 316 L 220 313 Z M 110 314 L 109 317 L 110 317 L 110 314 Z M 189 314 L 188 317 Q 186 320 184 319 L 185 323 L 189 318 L 189 314 Z M 178 318 L 178 325 L 182 325 L 179 323 L 180 320 Q 181 317 178 318 Z M 250 319 L 251 323 L 252 320 L 250 319 Z M 152 320 L 153 324 Q 149 325 153 327 Q 157 325 156 329 L 152 333 L 150 333 L 151 335 L 153 334 L 159 335 L 159 320 L 152 320 Z M 138 322 L 137 325 L 138 325 L 138 322 Z M 147 322 L 146 325 L 147 325 L 147 322 Z M 254 325 L 253 328 L 254 328 L 254 325 Z M 131 326 L 129 333 L 131 338 Q 132 342 130 344 L 131 347 L 130 348 L 130 366 L 128 370 L 131 370 L 130 373 Q 132 374 131 379 L 132 379 L 132 368 L 131 367 L 131 359 L 132 358 L 131 356 L 132 353 L 131 329 Q 133 327 131 326 Z M 148 326 L 146 328 Q 144 332 148 331 L 150 328 Q 151 325 148 326 Z M 173 326 L 172 336 L 172 338 Q 171 340 175 339 L 176 345 L 177 345 L 176 329 L 173 326 Z M 224 331 L 223 334 L 224 334 L 224 331 Z M 204 333 L 202 335 L 203 338 L 205 339 L 204 333 Z M 251 333 L 251 334 L 253 334 L 251 333 Z M 109 335 L 107 337 L 109 337 L 109 335 Z M 250 335 L 250 358 L 251 350 L 250 348 L 250 335 Z M 225 336 L 224 339 L 225 339 L 225 336 Z M 255 337 L 254 340 L 256 340 L 255 337 Z M 108 338 L 106 347 L 107 351 L 106 352 L 105 390 L 103 400 L 103 419 L 102 420 L 105 426 L 107 427 L 107 407 L 106 406 L 107 404 L 106 401 L 107 396 L 107 376 L 108 375 L 108 338 Z M 219 338 L 218 343 L 222 359 L 221 362 L 225 360 L 224 351 Q 220 346 221 339 L 219 338 Z M 194 339 L 192 344 L 197 346 L 198 348 L 200 347 L 201 344 L 199 345 L 195 344 Q 192 343 194 342 L 194 339 Z M 226 340 Q 224 347 227 351 L 228 351 L 226 340 Z M 151 341 L 151 343 L 150 346 L 148 345 L 146 346 L 150 347 L 148 350 L 150 352 L 157 350 L 158 352 L 159 346 L 158 343 L 159 341 L 157 342 L 151 341 Z M 254 344 L 254 345 L 256 345 L 254 344 Z M 185 345 L 184 347 L 186 348 L 185 345 Z M 213 345 L 212 348 L 210 347 L 208 350 L 201 353 Q 192 353 188 350 L 187 353 L 188 358 L 186 357 L 183 358 L 183 356 L 182 364 L 182 366 L 183 368 L 184 365 L 187 364 Q 191 363 193 366 Q 202 368 206 364 Q 210 365 209 363 Q 212 358 218 358 Q 219 352 216 350 L 217 347 L 213 345 Z M 181 346 L 182 356 Q 184 355 182 354 L 183 351 L 181 346 Z M 193 346 L 192 349 L 193 349 L 193 346 Z M 162 347 L 161 352 L 162 352 L 162 347 Z M 254 349 L 256 351 Q 257 348 254 349 Z M 158 353 L 156 355 Q 155 358 158 357 L 158 353 Z M 254 354 L 254 356 Q 253 358 256 357 Q 258 353 254 354 Z M 251 358 L 250 370 L 249 371 L 249 386 L 252 384 L 250 383 Q 249 379 252 380 L 251 377 L 251 366 L 252 365 L 251 358 Z M 256 360 L 254 362 L 256 362 L 256 360 Z M 150 361 Q 148 364 151 363 L 150 361 Z M 158 361 L 155 362 L 154 365 L 155 369 L 151 370 L 158 370 L 159 368 Q 160 360 158 361 Z M 177 362 L 176 368 L 180 369 L 179 368 L 180 365 L 177 362 Z M 146 363 L 146 368 L 148 364 L 146 363 Z M 206 367 L 204 370 L 204 371 L 207 370 Q 208 366 206 367 Z M 191 368 L 187 369 L 188 372 L 191 370 L 191 368 Z M 196 369 L 194 372 L 197 370 L 196 369 Z M 255 369 L 255 371 L 254 373 L 255 374 L 257 371 L 255 369 Z M 183 370 L 184 372 L 186 371 L 183 370 Z M 175 371 L 173 374 L 178 375 L 179 373 L 178 373 L 175 371 Z M 145 372 L 145 375 L 147 374 Q 148 371 145 372 Z M 164 373 Q 163 376 166 375 Q 167 372 164 373 Z M 170 373 L 167 379 L 171 376 Q 172 372 170 373 Z M 196 373 L 195 375 L 197 374 L 196 373 Z M 199 373 L 199 375 L 202 374 L 199 373 Z M 204 373 L 204 375 L 206 374 L 204 373 Z M 147 375 L 147 377 L 149 376 L 147 375 Z M 159 375 L 157 377 L 159 377 L 159 375 Z M 161 376 L 159 379 L 163 377 L 161 376 Z M 177 376 L 176 378 L 173 380 L 173 382 L 171 385 L 172 386 L 176 383 L 175 382 L 177 379 L 177 376 Z M 197 376 L 195 378 L 197 378 L 197 376 Z M 256 376 L 254 379 L 257 379 L 256 376 Z M 192 377 L 190 379 L 192 379 L 192 377 Z M 194 379 L 192 381 L 194 381 L 194 379 Z M 133 380 L 132 388 L 134 388 L 133 380 Z M 145 381 L 145 384 L 148 382 L 145 381 Z M 154 382 L 153 384 L 155 383 L 154 382 Z M 170 382 L 169 384 L 171 383 L 170 382 Z M 256 382 L 254 384 L 257 384 L 256 382 Z M 163 384 L 161 387 L 164 385 L 163 384 Z M 148 385 Q 147 388 150 387 Q 151 384 148 385 Z M 157 385 L 156 387 L 158 386 L 157 385 Z M 175 385 L 172 388 Q 171 390 174 389 L 175 387 L 175 385 Z M 252 385 L 249 388 Q 247 394 250 396 L 249 408 L 249 410 L 251 414 L 251 398 L 252 397 L 250 394 L 251 389 Q 250 386 253 387 L 252 385 Z M 159 387 L 158 389 L 160 388 L 159 387 Z M 189 387 L 188 389 L 190 388 L 189 387 Z M 193 387 L 193 389 L 195 388 L 193 387 Z M 266 388 L 264 391 Q 263 394 266 393 L 266 388 Z M 178 389 L 177 392 L 178 392 L 178 389 Z M 183 389 L 181 391 L 183 391 L 183 389 Z M 208 389 L 206 391 L 208 392 L 208 389 Z M 149 390 L 149 392 L 151 391 L 149 390 Z M 171 391 L 171 395 L 170 398 L 171 399 L 173 394 Q 174 390 171 391 Z M 150 393 L 148 396 L 150 395 L 150 393 Z M 199 393 L 198 394 Q 195 393 196 396 L 196 397 L 199 395 L 199 393 Z M 157 394 L 157 396 L 159 395 L 157 394 Z M 190 394 L 189 396 L 191 395 L 190 394 Z M 160 396 L 158 398 L 160 398 L 160 396 Z M 200 396 L 199 397 Q 196 396 197 399 L 190 405 L 191 406 L 200 398 L 200 396 Z M 155 397 L 154 399 L 156 398 L 155 397 Z M 193 397 Q 192 400 195 399 Q 196 396 193 397 Z M 207 397 L 205 406 L 206 410 L 207 410 L 207 397 Z M 148 398 L 148 400 L 150 399 L 148 398 Z M 175 398 L 170 420 L 170 435 L 166 444 L 167 445 L 179 438 L 182 430 L 175 398 Z M 257 399 L 256 405 L 257 405 L 257 399 Z M 138 400 L 136 402 L 138 402 L 138 400 Z M 169 400 L 167 402 L 169 402 L 170 403 Q 171 399 169 400 Z M 158 401 L 156 404 L 159 402 L 158 401 Z M 166 402 L 165 404 L 167 403 L 166 402 Z M 197 402 L 189 410 Q 186 409 187 412 L 189 412 L 198 403 L 197 402 Z M 161 403 L 158 407 L 162 404 L 161 403 Z M 131 404 L 129 406 L 131 409 L 130 412 Q 132 415 131 422 L 130 421 L 129 440 L 128 443 L 130 448 L 130 446 L 136 442 L 136 423 L 137 422 L 136 420 L 137 408 L 131 406 L 131 404 Z M 164 404 L 157 409 L 156 411 L 164 406 L 164 404 Z M 169 404 L 166 406 L 162 411 L 166 409 L 167 409 Q 168 411 166 410 L 167 413 L 166 417 L 163 420 L 165 420 L 166 420 L 165 422 L 166 425 L 167 424 L 167 417 L 169 410 L 168 408 L 169 406 L 169 404 Z M 181 405 L 181 407 L 183 406 L 181 405 Z M 142 406 L 143 410 Q 145 409 143 408 L 145 407 L 142 406 Z M 188 407 L 187 409 L 189 408 L 188 407 Z M 228 407 L 224 412 L 210 426 L 208 426 L 208 431 L 203 449 L 208 459 L 209 464 L 209 466 Q 210 470 206 468 L 208 472 L 208 476 L 205 477 L 206 481 L 203 489 L 201 491 L 198 490 L 197 496 L 199 495 L 202 496 L 204 496 L 205 495 L 224 494 L 225 493 Q 227 494 226 491 L 231 488 L 248 488 L 249 486 L 248 484 L 248 468 L 247 467 L 248 463 L 247 462 L 247 439 Q 245 437 246 432 L 246 430 L 246 428 L 242 431 L 239 431 L 238 429 Q 237 422 242 421 Q 246 422 245 419 L 243 420 L 239 419 L 234 413 L 232 410 L 228 407 Z M 257 407 L 257 422 L 258 416 L 257 407 Z M 200 410 L 195 416 Q 192 415 193 418 L 197 416 Q 196 413 199 414 L 200 412 L 200 410 Z M 290 410 Q 283 415 280 423 L 274 427 L 267 437 L 277 442 L 285 449 Q 287 448 286 451 Q 291 455 300 455 L 307 459 Q 309 458 308 461 Q 309 463 311 461 L 315 463 Q 315 460 320 461 L 322 461 L 331 464 L 332 464 L 332 448 L 319 437 Q 316 438 317 435 L 315 435 L 315 433 L 313 433 L 309 428 Q 310 425 308 426 L 306 423 L 302 420 Q 299 421 300 419 L 290 410 Z M 144 411 L 142 413 Q 141 415 144 414 L 144 411 Z M 160 411 L 159 413 L 161 412 L 160 411 Z M 240 412 L 239 415 L 242 417 L 240 412 Z M 157 413 L 154 416 Q 153 418 156 417 L 158 414 L 157 413 Z M 194 413 L 192 415 L 194 415 L 194 413 Z M 319 414 L 317 419 L 312 423 L 312 426 L 315 430 L 322 435 Q 325 434 324 437 L 331 441 L 332 434 L 331 433 L 331 423 L 323 414 L 319 414 Z M 251 415 L 250 422 L 249 425 L 250 435 L 252 427 L 251 426 L 251 415 Z M 187 416 L 185 419 L 187 418 L 187 416 Z M 197 416 L 195 420 Q 192 419 193 422 L 191 422 L 189 427 L 199 418 Q 200 415 197 416 Z M 207 416 L 206 422 L 207 422 L 207 416 Z M 200 419 L 192 427 L 193 428 L 195 427 L 201 420 L 200 419 Z M 152 420 L 152 422 L 154 421 L 152 420 Z M 160 421 L 158 424 L 161 422 L 160 421 Z M 200 421 L 189 435 L 193 433 L 195 430 L 199 427 L 202 423 Q 203 420 200 421 Z M 255 422 L 254 425 L 255 425 L 255 422 Z M 148 423 Q 147 426 150 425 Q 151 422 148 423 Z M 204 423 L 201 427 L 205 424 L 204 423 Z M 245 423 L 241 426 Q 240 429 243 428 L 246 424 L 245 423 Z M 256 423 L 257 428 Q 255 429 258 430 L 258 426 L 258 424 L 256 423 Z M 162 424 L 158 427 L 155 431 L 163 425 L 162 424 Z M 151 425 L 152 427 Q 153 424 151 425 Z M 165 425 L 163 428 Q 165 427 164 430 Q 167 431 163 433 L 164 438 L 163 437 L 161 440 L 163 439 L 162 441 L 164 441 L 166 432 Q 167 427 165 425 Z M 205 426 L 201 431 L 205 429 L 205 426 Z M 148 427 Q 146 430 149 429 L 148 427 Z M 160 429 L 158 432 L 161 430 L 160 429 Z M 163 430 L 160 433 Q 157 432 158 435 L 163 432 L 163 430 Z M 256 430 L 257 440 L 258 436 Q 259 431 256 430 Z M 204 431 L 198 438 L 200 438 Q 201 434 203 437 L 204 434 L 204 431 Z M 155 432 L 155 434 L 157 433 L 155 432 Z M 163 434 L 159 437 L 160 438 L 163 436 L 163 434 Z M 189 435 L 187 437 L 189 437 L 189 435 Z M 193 435 L 189 437 L 187 442 L 193 437 L 193 435 Z M 260 435 L 260 467 L 261 468 L 260 470 L 261 471 L 261 483 L 263 484 L 268 483 L 273 479 L 288 479 L 289 480 L 301 478 L 297 475 Q 294 476 295 472 L 301 471 L 317 472 L 320 474 L 322 471 L 331 472 Q 333 471 332 466 Q 325 467 322 464 L 318 466 Q 316 464 312 465 L 299 458 L 291 456 L 291 458 L 290 459 L 283 452 Q 280 453 281 451 L 271 443 L 269 443 L 262 437 Q 263 434 260 435 Z M 201 438 L 199 440 L 201 448 L 202 441 Q 203 437 201 438 Z M 193 439 L 191 442 L 193 441 L 193 439 Z M 196 440 L 194 443 L 196 442 L 196 440 Z M 162 442 L 161 449 L 159 451 L 160 452 Q 163 451 162 445 Q 164 443 162 442 Z M 186 442 L 184 444 L 186 444 L 186 442 Z M 257 442 L 255 446 L 257 445 L 257 442 Z M 189 443 L 186 447 L 189 445 L 189 443 Z M 191 443 L 191 445 L 185 452 L 193 445 Q 194 442 191 443 Z M 174 444 Q 171 448 165 448 Q 164 453 167 455 Q 166 457 169 456 L 174 450 L 175 446 Q 176 443 174 444 Z M 137 445 L 137 450 L 141 452 L 139 450 L 140 447 L 137 445 Z M 184 445 L 182 447 L 184 447 L 184 445 Z M 251 445 L 249 447 L 251 453 L 251 450 L 251 448 L 251 445 Z M 184 447 L 184 449 L 186 448 L 184 447 Z M 257 448 L 255 458 L 257 459 L 257 448 Z M 130 449 L 129 455 L 131 454 L 130 449 Z M 200 449 L 198 455 L 200 454 L 200 449 Z M 135 452 L 134 456 L 130 459 L 131 471 L 133 473 L 132 477 L 135 480 L 136 473 Q 137 468 133 468 Q 133 464 136 463 L 137 466 L 139 467 L 138 463 L 142 461 L 145 462 L 146 465 L 143 469 L 144 471 L 146 470 L 144 476 Q 143 481 147 482 L 149 481 L 151 483 L 149 475 L 153 473 L 154 469 L 157 467 L 158 470 L 158 472 L 159 477 L 158 479 Q 157 482 160 483 L 163 477 L 163 471 L 166 465 L 166 462 L 166 460 L 166 458 L 164 461 L 159 464 Q 141 463 135 452 Z M 188 452 L 185 456 L 188 455 L 188 452 Z M 158 453 L 158 456 L 160 455 Q 161 452 158 453 Z M 174 455 L 175 458 L 177 457 Q 178 454 174 455 Z M 198 455 L 195 462 L 199 460 L 198 455 Z M 251 456 L 251 470 L 252 468 L 251 467 L 251 456 Z M 96 457 L 96 458 L 99 458 L 96 457 Z M 108 457 Q 107 459 110 458 L 111 459 Q 112 456 108 457 Z M 150 457 Q 148 460 151 459 L 150 457 Z M 159 457 L 158 459 L 156 460 L 159 461 L 159 457 Z M 188 457 L 183 463 Q 182 465 186 464 Q 184 461 189 459 Q 190 456 188 457 Z M 49 458 L 48 460 L 74 459 L 74 458 Q 64 457 59 459 L 54 458 L 52 459 L 49 458 Z M 78 458 L 78 459 L 88 459 L 78 458 Z M 205 458 L 204 460 L 196 465 L 193 466 L 177 466 L 172 463 L 170 461 L 168 460 L 171 469 L 170 473 L 172 480 L 171 482 Q 174 481 172 485 L 174 485 L 175 480 L 175 478 L 174 476 L 175 469 Q 180 467 182 471 L 180 477 L 182 476 L 184 478 L 182 483 Q 180 488 186 486 L 187 489 L 189 486 L 189 483 L 187 479 L 191 478 L 190 476 Q 189 470 194 469 Q 198 468 199 472 L 197 476 L 197 479 L 200 480 L 200 487 L 202 487 L 201 485 L 203 481 L 202 476 L 205 474 L 203 470 L 204 466 L 207 465 L 205 458 Z M 10 459 L 10 461 L 16 460 L 10 459 Z M 20 459 L 20 460 L 22 460 L 20 459 Z M 24 459 L 25 460 L 26 461 Q 27 458 24 459 Z M 28 459 L 28 460 L 31 460 L 28 459 Z M 32 459 Q 31 462 35 461 Q 36 458 32 459 Z M 38 459 L 38 461 L 40 460 L 38 459 Z M 41 459 L 41 461 L 46 461 L 46 459 L 41 459 Z M 125 459 L 124 466 L 127 467 L 127 460 L 125 459 Z M 178 461 Q 175 465 181 463 Q 182 460 180 461 L 178 461 Z M 189 461 L 187 463 L 189 463 L 189 461 Z M 192 461 L 191 463 L 194 463 L 192 461 Z M 258 461 L 257 472 L 258 472 L 258 461 Z M 61 462 L 61 464 L 58 463 L 47 463 L 38 465 L 33 463 L 31 463 L 27 465 L 30 468 Q 33 469 32 466 L 29 466 L 35 465 L 35 466 Q 32 465 33 468 L 43 465 L 48 465 L 51 464 L 63 465 L 64 466 L 85 466 L 93 464 L 95 465 L 97 465 L 102 464 L 95 462 L 91 462 L 86 463 L 88 463 L 88 464 L 83 463 L 83 465 Q 80 466 81 463 L 77 464 L 79 464 L 79 465 L 75 463 L 72 463 Q 73 466 71 465 L 69 465 L 62 464 L 72 463 L 61 462 Z M 11 464 L 11 467 L 14 466 Q 15 468 16 466 L 14 465 L 11 464 Z M 17 464 L 18 466 L 27 466 L 26 464 L 24 465 L 22 464 L 20 465 L 17 464 Z M 141 464 L 141 467 L 143 466 Q 144 463 141 464 Z M 46 467 L 33 471 L 26 469 L 9 469 L 9 483 Q 12 480 20 481 L 22 479 L 24 480 L 41 475 L 53 475 L 54 476 L 83 473 L 96 469 L 96 468 L 82 468 L 81 469 L 65 469 L 55 467 L 51 468 L 46 467 Z M 121 469 L 113 471 L 108 470 L 106 470 L 89 475 L 68 477 L 67 478 L 59 478 L 57 478 L 55 479 L 53 478 L 40 478 L 33 481 L 22 482 L 12 485 L 9 486 L 9 494 L 11 493 L 19 495 Q 34 497 41 491 L 66 491 L 67 490 L 71 492 Q 74 491 73 494 L 69 497 L 53 499 L 55 502 L 55 500 Q 59 502 68 501 L 69 502 L 82 502 L 83 501 L 87 502 L 97 501 L 99 501 L 124 500 L 126 500 Q 127 503 133 501 L 137 501 L 138 499 L 135 487 L 136 483 L 133 482 L 129 478 L 130 473 Q 124 473 121 469 Z M 140 469 L 138 479 L 138 481 Q 141 484 139 492 L 141 499 L 146 504 Q 147 507 144 506 L 145 509 L 143 512 Q 142 518 145 521 Q 147 527 144 529 Q 143 533 147 531 Q 148 534 144 533 L 145 537 Q 147 539 153 538 L 165 544 L 169 544 L 173 544 L 181 546 L 192 543 L 179 533 L 177 530 L 171 527 Q 165 529 167 524 L 161 525 L 159 523 L 163 520 L 164 518 L 161 512 L 160 501 L 159 500 L 159 490 L 160 489 L 155 483 L 156 478 L 155 475 L 152 476 L 154 481 L 153 485 L 151 486 L 148 486 Q 149 490 147 489 L 141 480 Q 140 475 143 474 L 140 473 L 140 469 Z M 256 469 L 254 472 Q 253 474 256 473 L 256 469 Z M 178 471 L 176 473 Q 178 476 179 473 Q 180 470 178 471 Z M 195 472 L 192 474 L 194 479 L 191 480 L 192 483 L 192 486 L 189 490 L 189 494 L 185 495 L 184 493 Q 185 488 183 489 L 179 484 L 181 479 L 179 478 L 176 485 Q 174 491 177 493 L 177 508 L 176 509 L 176 519 L 175 520 L 176 524 L 182 527 L 186 525 L 195 526 L 198 528 L 200 527 L 205 529 L 206 528 L 221 528 L 227 526 Q 218 524 214 518 L 209 518 L 200 513 Q 195 512 195 515 L 192 512 L 194 508 L 193 506 L 195 489 L 197 487 Q 199 480 195 481 L 195 474 L 196 473 L 195 472 Z M 251 474 L 252 475 L 253 476 Q 254 473 251 474 Z M 256 474 L 255 479 L 256 479 L 256 474 Z M 303 474 L 303 475 L 307 476 L 307 481 L 299 481 L 298 483 L 297 483 L 295 487 L 292 488 L 292 490 L 289 484 L 283 483 L 279 488 L 280 483 L 275 484 Q 272 483 273 486 L 266 488 L 267 490 L 272 488 L 272 490 L 274 491 Q 273 493 272 491 L 267 493 L 264 492 L 268 502 L 266 502 L 265 497 L 264 497 Q 265 500 262 499 Q 261 502 264 501 L 265 501 L 265 504 L 264 502 L 262 506 L 264 509 L 265 505 Q 269 503 268 507 L 268 509 L 273 509 L 272 507 Q 269 508 270 504 L 274 503 L 274 507 L 278 506 L 277 508 L 278 509 L 279 506 L 278 503 L 280 504 L 278 501 L 278 498 L 277 495 L 280 490 L 287 492 L 285 492 L 286 497 L 284 497 L 283 492 L 280 491 L 278 495 L 280 495 L 279 497 L 281 501 L 282 498 L 284 499 L 281 504 L 284 505 L 283 504 L 286 505 L 293 502 L 298 502 L 293 499 L 295 495 L 297 495 L 305 494 L 306 488 L 306 485 L 305 487 L 303 487 L 302 485 L 304 485 L 304 484 L 308 486 L 308 484 L 310 484 Q 316 485 318 483 Q 319 480 315 481 L 313 481 L 312 483 L 311 483 Q 312 480 309 481 L 310 478 L 308 477 L 310 476 L 311 474 L 309 475 Q 307 473 303 474 Z M 322 474 L 321 477 L 322 478 L 325 477 L 327 477 L 329 476 L 328 478 L 329 480 L 328 480 L 325 479 L 323 480 Q 324 482 321 484 L 322 485 L 319 484 L 317 485 L 320 488 L 320 487 L 321 487 L 320 489 Q 318 493 323 492 L 322 494 L 323 496 L 323 497 Q 325 496 324 499 L 324 500 L 326 499 L 327 502 L 325 505 L 327 505 L 330 511 L 330 510 L 331 510 L 331 513 L 328 512 L 328 510 L 327 513 L 332 514 L 332 478 L 330 474 L 327 475 Q 325 472 324 476 L 324 475 L 322 474 Z M 168 475 L 162 484 L 162 487 L 162 489 L 162 501 L 164 509 L 164 506 L 169 506 L 164 505 L 166 504 L 166 503 L 164 503 L 164 499 L 167 498 L 170 499 L 172 498 L 174 498 Q 175 493 173 492 L 174 489 L 173 488 Q 167 485 168 475 Z M 311 475 L 312 479 L 311 481 L 314 481 L 315 477 L 317 477 L 311 475 Z M 320 476 L 317 477 L 318 481 Q 320 484 321 481 L 320 476 Z M 252 479 Q 250 482 253 481 L 252 479 Z M 256 480 L 255 484 L 256 484 L 256 480 Z M 259 482 L 258 485 L 259 485 L 259 482 Z M 291 484 L 291 488 L 294 486 L 291 484 Z M 257 485 L 256 489 L 257 489 L 257 485 Z M 311 486 L 311 487 L 313 487 L 311 486 Z M 263 487 L 263 496 L 264 492 L 263 490 L 265 490 L 265 488 L 263 487 Z M 257 490 L 256 493 L 257 493 L 257 490 Z M 315 490 L 311 493 L 309 493 L 310 494 L 315 494 L 317 491 L 315 490 Z M 231 492 L 230 496 L 215 499 L 199 500 L 197 500 Q 196 506 199 505 L 198 504 L 199 501 L 199 504 Q 200 506 204 505 L 205 503 L 206 504 L 223 504 L 224 505 Q 226 504 225 507 L 229 508 L 232 507 L 237 508 L 237 506 Q 239 507 238 504 Q 236 502 239 501 L 239 504 L 241 503 L 243 505 L 240 506 L 243 507 L 240 508 L 248 509 L 249 494 L 247 494 Q 248 490 244 492 L 242 492 Q 234 490 235 494 L 234 494 Q 235 490 231 492 Z M 46 494 L 46 496 L 44 495 L 41 496 Q 36 495 37 498 L 35 497 L 24 498 L 23 499 L 21 498 L 19 499 L 16 499 Q 17 502 15 501 L 15 500 L 9 497 L 10 502 L 10 504 L 9 507 L 10 517 L 11 513 L 12 513 L 9 521 L 10 522 L 10 530 L 13 528 L 14 529 L 18 526 L 36 522 L 36 521 Q 30 523 31 520 L 34 518 L 35 518 Q 34 520 38 519 L 38 522 L 42 522 L 42 521 L 41 521 L 39 521 L 40 518 Q 43 517 42 520 L 45 521 L 49 521 L 47 520 L 47 518 L 46 520 L 45 520 L 45 517 L 43 517 L 43 512 L 38 510 L 36 511 L 37 507 L 47 503 L 45 499 Q 46 496 50 497 L 52 497 L 61 495 L 61 494 Q 56 493 55 495 L 46 494 Z M 318 495 L 317 497 Q 320 498 321 496 L 320 495 L 318 495 Z M 260 497 L 259 510 L 260 510 L 260 497 Z M 320 499 L 319 501 Q 322 500 321 503 L 321 504 Q 324 505 323 502 L 320 499 Z M 303 500 L 301 502 L 303 502 L 303 500 Z M 308 500 L 308 502 L 310 501 L 308 500 Z M 174 501 L 172 503 L 174 503 L 174 501 Z M 138 502 L 137 504 L 132 508 Q 133 510 137 509 L 136 508 L 138 507 L 138 505 L 138 502 Z M 167 502 L 168 504 L 170 503 L 171 504 L 171 502 L 167 502 Z M 117 503 L 115 505 L 117 506 Q 123 504 125 507 Q 131 508 134 506 L 130 503 L 124 505 L 123 503 L 120 504 Q 118 506 117 503 Z M 52 504 L 48 506 Q 41 504 42 508 L 49 510 L 51 509 L 53 509 L 57 507 L 55 505 L 55 507 L 49 507 L 53 506 L 52 504 Z M 92 504 L 93 505 L 95 505 Q 97 504 96 507 L 101 506 L 110 506 L 110 505 L 109 505 L 107 504 L 103 505 L 101 505 L 92 504 Z M 172 504 L 173 506 L 174 506 L 172 504 Z M 58 505 L 58 506 L 76 506 L 58 505 Z M 217 506 L 216 507 L 204 507 L 197 510 L 209 514 Q 210 517 212 515 L 229 523 L 230 523 L 230 527 L 228 526 L 227 529 L 222 531 L 212 531 L 211 530 L 204 532 L 221 535 L 229 535 L 229 533 L 232 532 L 234 533 L 236 532 L 245 533 L 247 533 L 259 533 L 260 532 L 264 533 L 264 531 L 258 530 L 248 530 L 247 528 L 244 527 L 235 528 L 237 525 L 249 525 Q 252 529 262 527 L 264 527 L 269 530 Q 276 528 287 529 L 289 529 L 290 530 L 300 530 L 304 532 Q 307 531 305 525 L 305 523 L 304 519 Q 305 514 301 516 L 299 516 L 276 515 L 270 512 L 266 512 Q 263 513 265 515 L 263 522 L 258 524 Q 256 521 250 523 L 247 521 Q 246 516 248 515 Q 249 511 247 512 L 247 514 Q 244 515 245 512 L 237 512 L 236 511 Q 231 510 230 512 L 225 510 L 223 510 Q 219 511 220 509 L 217 506 Z M 283 506 L 283 507 L 286 507 L 283 506 Z M 318 506 L 310 508 L 314 508 L 316 508 L 318 509 L 318 507 L 320 507 L 318 506 Z M 287 507 L 284 509 L 280 509 L 277 510 Q 275 506 273 510 L 277 512 Q 282 511 284 513 L 295 509 L 295 508 Q 290 507 289 510 L 289 509 L 287 507 Z M 321 507 L 323 509 Q 324 506 321 507 Z M 139 508 L 137 510 L 139 510 L 140 511 L 139 508 Z M 97 509 L 93 510 L 93 512 L 92 515 L 90 517 L 80 518 Q 77 519 79 521 L 78 520 Q 75 524 68 523 Q 66 526 65 524 L 60 525 L 56 524 L 52 524 L 49 526 L 43 527 L 41 527 L 40 525 L 27 526 L 27 527 Q 32 525 31 529 L 26 529 Q 27 526 25 527 L 25 529 L 24 531 Q 20 532 21 530 L 22 528 L 10 532 L 11 541 L 14 539 Q 18 540 20 538 Q 24 539 22 535 L 26 535 L 27 537 L 27 534 L 30 533 L 87 534 L 89 534 L 103 537 L 100 534 L 102 530 L 114 530 L 116 532 L 117 530 L 118 531 L 140 533 L 141 534 L 142 528 L 141 517 L 139 513 L 137 514 L 130 511 L 113 510 L 111 510 Q 102 511 97 509 Z M 169 509 L 166 511 L 167 513 L 168 513 Q 167 510 170 511 Q 173 513 172 515 Q 174 516 173 510 L 172 510 L 169 509 Z M 261 511 L 260 516 Q 258 517 261 518 L 262 514 L 261 511 Z M 297 511 L 296 512 Q 291 511 292 514 L 298 512 L 302 513 L 303 514 L 303 511 L 297 511 Z M 309 511 L 308 513 L 312 512 Q 313 514 314 512 L 309 511 Z M 322 511 L 323 513 L 325 512 L 322 511 Z M 73 512 Q 71 515 65 513 L 62 517 L 60 517 L 62 520 L 63 518 L 63 520 L 64 520 Q 63 517 66 518 L 67 520 Q 68 518 73 519 L 83 514 L 80 512 L 78 513 L 73 512 Z M 45 513 Q 44 515 47 514 L 49 517 L 52 517 L 53 520 L 60 520 L 60 519 Q 56 520 57 518 L 55 519 L 53 519 L 56 517 L 57 514 L 55 515 L 53 515 L 55 514 L 45 513 Z M 59 513 L 59 514 L 61 514 L 59 513 Z M 259 513 L 258 516 L 259 516 L 259 513 Z M 252 514 L 250 518 L 251 519 L 252 517 Q 254 515 252 514 Z M 311 515 L 308 516 L 308 531 L 310 531 L 312 531 Q 316 532 318 530 L 321 531 L 323 531 L 327 530 L 329 530 L 332 530 L 332 518 L 325 516 L 319 516 L 317 516 L 311 515 Z M 255 516 L 254 519 L 256 519 L 255 516 Z M 167 517 L 166 521 Q 169 520 168 523 L 170 522 L 171 523 L 170 525 L 174 527 L 175 527 Q 171 525 172 519 L 167 517 Z M 260 519 L 261 521 Q 262 518 260 519 Z M 186 528 Q 184 531 183 529 Q 179 528 180 531 Q 191 530 197 534 L 195 532 L 196 531 L 192 529 L 189 530 L 186 528 Z M 277 531 L 277 532 L 282 532 L 277 531 Z M 112 534 L 110 536 L 112 540 L 113 538 L 113 536 L 114 536 L 114 540 L 118 540 L 118 543 L 121 542 L 124 543 L 125 541 Q 123 537 122 541 Q 120 538 116 539 L 115 537 L 116 535 L 120 536 Q 121 533 114 534 L 112 534 Z M 199 534 L 201 536 L 204 536 L 199 534 Z M 312 534 L 309 535 L 310 541 L 309 543 L 320 546 L 325 545 L 330 546 L 332 546 L 332 535 L 331 535 L 312 534 Z M 122 535 L 123 538 L 123 536 L 125 536 L 122 535 Z M 189 535 L 190 537 L 191 537 L 189 535 Z M 234 535 L 231 537 L 215 537 L 213 537 L 210 536 L 204 537 L 217 540 L 251 540 L 255 541 L 257 541 L 257 543 L 261 542 L 263 543 L 279 542 L 281 542 Q 285 543 287 541 L 298 541 L 299 542 L 301 541 L 305 543 L 305 541 L 305 539 L 304 536 L 301 537 L 286 536 L 284 536 Q 279 537 278 535 Q 273 534 272 536 L 270 535 L 268 535 L 264 536 L 262 536 L 258 537 L 256 537 L 254 536 L 252 537 L 241 535 L 237 536 L 234 535 Z M 51 536 L 48 537 L 48 539 L 48 540 L 40 538 L 35 540 L 33 541 L 37 538 L 37 537 L 29 540 L 29 542 L 28 542 L 29 545 L 28 546 Q 29 548 26 547 L 26 545 L 25 547 L 18 548 Q 17 544 23 546 L 24 544 L 26 544 L 27 544 L 26 541 L 22 542 L 22 544 L 18 543 L 18 541 L 10 544 L 9 548 L 10 550 L 12 549 L 16 550 L 14 548 Q 13 545 16 546 L 15 544 L 17 543 L 16 549 L 24 549 L 25 548 L 27 549 L 41 549 L 32 548 L 43 547 L 46 548 L 46 545 Q 49 546 48 543 L 45 545 L 46 543 L 45 542 L 43 546 L 41 545 L 41 544 L 40 541 L 44 540 L 49 541 L 50 544 L 50 541 Q 54 540 53 543 L 48 545 L 47 548 L 48 549 L 51 547 L 53 547 L 55 546 Q 58 547 57 545 L 56 545 Q 52 546 54 541 L 51 539 L 49 540 Q 48 537 51 538 L 51 536 Z M 129 536 L 129 538 Q 130 541 126 539 L 126 543 L 128 542 L 128 544 Q 126 545 129 546 L 129 543 L 130 543 Q 129 546 132 545 L 131 544 L 131 537 L 129 536 Z M 134 536 Q 132 539 135 538 L 137 541 L 137 539 L 139 539 L 134 536 Z M 141 536 L 140 539 L 144 540 L 141 536 Z M 57 537 L 57 538 L 64 538 L 57 537 Z M 66 537 Q 65 540 68 539 L 70 539 L 72 538 L 74 543 Q 78 544 76 539 L 80 539 L 66 537 Z M 192 537 L 194 541 L 194 546 L 194 547 L 197 547 L 196 546 L 195 544 L 197 541 L 195 540 L 198 539 Q 197 536 192 537 Z M 82 538 L 82 539 L 84 539 L 82 538 Z M 86 538 L 85 540 L 89 539 L 89 541 L 77 541 L 77 544 L 77 545 Q 79 546 78 544 L 81 542 Q 82 545 80 544 L 80 546 Q 79 548 78 546 L 74 547 L 72 546 L 71 548 L 78 548 L 79 549 L 81 548 L 104 548 L 105 549 Q 107 550 106 547 L 103 546 L 102 547 L 93 547 L 91 547 L 86 546 L 84 547 L 81 547 L 83 543 L 86 542 L 86 545 L 88 546 L 87 544 L 89 544 L 91 543 L 90 541 L 92 540 L 93 544 L 92 546 L 96 545 Q 97 542 94 543 L 93 539 L 86 538 Z M 109 538 Q 107 541 101 541 L 104 541 L 107 548 Q 109 551 115 549 L 117 549 L 122 548 L 125 549 L 137 549 L 138 548 L 147 548 L 145 547 L 147 546 L 149 543 L 147 542 L 147 544 L 145 540 L 143 544 Q 140 543 141 546 L 143 547 L 130 547 L 129 548 Q 123 550 125 545 L 124 545 Q 125 549 120 547 L 118 547 L 113 547 L 112 545 L 111 545 L 111 547 L 110 547 Q 107 546 108 542 L 106 542 L 110 540 Q 111 537 109 538 Z M 61 539 L 60 542 Q 57 541 58 544 L 62 543 L 61 539 Z M 95 539 Q 94 541 98 541 L 97 543 L 99 546 L 103 544 Q 102 541 101 543 L 99 543 L 100 540 L 95 539 Z M 132 539 L 132 541 L 134 540 L 132 539 Z M 198 539 L 197 543 L 200 542 L 198 545 L 199 546 L 198 548 L 205 547 L 206 548 L 205 545 L 204 545 L 202 541 L 200 541 L 202 540 L 198 539 Z M 58 540 L 55 542 Q 57 545 58 542 L 58 540 Z M 64 540 Q 62 543 66 544 L 66 542 L 71 544 L 69 544 L 70 548 L 70 545 L 75 545 L 74 544 L 72 542 Q 70 543 69 540 L 66 541 L 64 540 Z M 203 540 L 204 544 L 207 542 L 203 540 Z M 139 541 L 137 543 L 141 544 L 139 541 Z M 208 541 L 210 546 Q 207 547 208 545 L 206 544 L 209 548 L 211 547 L 223 547 L 226 546 L 231 547 L 232 544 L 232 546 L 235 547 L 236 546 L 244 546 L 245 544 L 245 546 Q 248 547 247 543 L 244 543 L 240 542 Q 235 540 236 544 L 237 545 Q 232 546 233 543 L 226 543 L 226 545 L 223 545 L 221 545 L 219 545 L 221 544 L 217 542 L 213 543 L 218 545 L 215 546 L 215 544 L 212 545 L 212 544 L 208 541 Z M 151 542 L 152 544 L 149 545 L 151 545 L 153 545 L 158 548 L 164 548 L 160 547 L 153 542 L 151 542 Z M 65 544 L 64 547 L 65 547 L 65 544 Z M 84 544 L 85 546 Q 86 543 84 544 Z M 120 544 Q 119 546 122 545 L 123 546 Q 124 542 120 544 Z M 287 544 L 286 545 L 267 545 L 267 546 L 291 546 L 287 544 Z M 293 544 L 295 546 L 298 545 L 293 544 Z M 59 546 L 59 547 L 62 547 L 59 546 Z M 151 547 L 151 549 L 154 549 L 151 547 Z M 188 547 L 188 548 L 191 548 L 188 547 Z M 66 548 L 66 549 L 69 549 L 66 548 Z M 292 550 L 291 551 L 232 551 L 231 552 L 227 551 L 222 552 L 220 551 L 218 552 L 187 552 L 185 552 L 179 551 L 176 552 L 174 551 L 173 552 L 162 552 L 159 553 L 149 553 L 148 552 L 141 553 L 139 553 L 130 552 L 128 552 L 115 552 L 114 553 L 71 553 L 70 554 L 57 554 L 56 553 L 47 553 L 46 554 L 37 553 L 35 553 L 22 553 L 21 554 L 11 554 L 10 553 L 9 553 L 10 558 L 9 562 L 9 564 L 10 593 L 20 593 L 21 592 L 103 591 L 104 590 L 114 592 L 116 591 L 118 591 L 120 592 L 137 592 L 138 591 L 153 591 L 154 592 L 156 591 L 178 590 L 180 590 L 183 591 L 185 590 L 188 591 L 189 590 L 215 590 L 217 589 L 220 590 L 247 589 L 248 588 L 271 589 L 273 589 L 278 588 L 280 589 L 296 588 L 298 588 L 301 589 L 333 589 L 333 573 L 332 572 L 333 563 L 333 561 L 332 559 L 333 557 L 332 550 L 321 551 L 319 551 L 318 550 L 292 550 Z "></path><path d="M 257.5 70 L 260 71.5 L 257.5 73 Q 254.5 71.5 257.5 70 Z "></path><path d="M 165 201 Q 167.7 202.9 174.5 202 L 182.5 205 L 192.5 210 L 195.5 213 L 209.5 219 L 216 224.5 L 217 231 L 214 229.5 L 214 227.5 L 207.5 221 L 196.5 217 Q 190.8 210.2 181.5 207 L 165 204 L 165 201 Z "></path><path d="M 216 244 L 220 244 L 220 245.5 Q 218 250 216 246.5 L 216 244 Z "></path><path d="M 154.5 343 L 157 344.5 Q 157.8 348.3 155.5 349 L 153 347.5 L 153 345.5 L 154.5 343 Z "></path><path d="M 312.5 476 L 314 478.5 L 313 478.5 L 312.5 476 Z "></path><path d="M 327.5 481 L 329 485 L 325.5 487 L 325 484 Q 328.1 485.1 327.5 481 Z "></path><path d="M 277.5 484 L 278 485.5 L 275.5 487 L 274.5 485 Q 276 487.5 277.5 484 Z "></path><path d="M 298.5 484 L 301 484.5 L 299.5 487 L 298.5 484 Z "></path><path d="M 323.5 487 L 326 488.5 L 325 490.5 Q 327.2 491.8 326 496.5 L 324 495.5 Q 324.6 488.8 323.5 487 Z "></path><path d="M 303.5 488 L 304 489.5 L 302.5 492 L 301.5 490 L 300.5 493 L 295.5 492 L 291.5 497 L 286.5 499 L 287 497.5 Q 286.5 493.5 289.5 493 L 291.5 492 Q 292.8 494.3 294 491.5 Q 293.3 489.3 295.5 490 L 298 491.5 Q 296.6 486.9 302.5 489 L 303.5 488 Z "></path><path d="M 286.5 489 L 290 490.5 L 288.5 491 L 286.5 489 Z "></path><path d="M 328.5 489 L 329 491 L 331 491.5 L 327.5 492 L 328 490.5 L 328.5 489 Z "></path><path d="M 269 494 Q 271.7 492.9 271 495.5 L 271.5 497 L 269.5 496 L 268 496.5 L 269 494 Z "></path><path d="M 274 494 Q 276.7 492.9 276 495.5 L 275 497.5 L 276 501.5 L 274.5 501 L 271.5 503 L 270 498.5 L 271.5 498 L 274 499 L 273 496.5 L 274 494 Z "></path><path d="M 231 495 L 233 495.5 L 231 496.5 L 231 495 Z "></path><path d="M 328.5 495 L 329.5 497 L 330.5 495 L 331 498.5 L 329 503.5 L 330 505.5 L 329 505.5 L 328 502.5 L 329 497.5 L 328.5 495 Z "></path><path d="M 246 496 L 248 496.5 L 246.5 504 L 244 500.5 L 246 496 Z "></path><path d="M 38.5 497 L 41 498 L 40.5 500 L 38 499 L 38.5 497 Z "></path><path d="M 226.5 498 L 229 498.5 L 226.5 499 L 226.5 498 Z "></path><path d="M 291.5 498 L 293 500.5 L 289.5 502 L 289 500 Q 291.8 501 291.5 498 Z "></path><path d="M 27 499 L 31 499 L 31 500.5 L 33 503.5 L 32 503.5 L 29.5 500 L 29 503 L 26 502.5 L 27 499 Z "></path><path d="M 33.5 499 L 36.5 500 L 38 500.5 L 34.5 501 L 33.5 499 Z "></path><path d="M 42.5 499 Q 45.1 498.2 44 501.5 L 43 501.5 L 42.5 499 Z "></path><path d="M 17.5 500 L 24 500.5 L 18.5 502 L 17.5 500 Z "></path><path d="M 232.5 500 L 234.5 503 Q 232.3 503.8 233 501.5 L 232.5 500 Z "></path><path d="M 207.5 501 L 210 502.5 L 206.5 503 L 207.5 501 Z "></path><path d="M 211.5 501 Q 216.3 499.7 215 503 Q 210.8 503 211.5 501 Z "></path><path d="M 216.5 501 Q 218.8 500.3 218 502.5 L 216.5 501 Z "></path><path d="M 15.5 502 Q 20 504 16.5 506 Q 14.3 506.8 15 504.5 L 13.5 505 L 12 505.5 L 13 507.5 L 11.5 510 L 11 504 Q 14.4 504.8 15.5 502 Z "></path><path d="M 227 503 Q 230.8 502 232 504.5 Q 230.8 507.3 229.5 505 L 226.5 506 L 227 504.5 L 227 503 Z "></path><path d="M 29 504 L 31 504.5 L 29.5 507 L 29 504 Z "></path><path d="M 245 505 Q 248 504 247 507 Q 244 508 245 505 Z "></path><path d="M 13.5 511 Q 16.8 509.9 16 512.5 L 14.5 512 L 13.5 511 Z "></path><path d="M 36 512 Q 39 510.8 38 514.5 L 39 517 Q 36 518.3 37 514.5 L 36 512 Z "></path><path d="M 23 513 Q 28.2 511.3 27 515 Q 21.8 516.7 23 513 Z "></path><path d="M 13.5 514 L 14 517.5 L 13 517.5 L 13.5 514 Z "></path><path d="M 40.5 514 L 42 516.5 L 40 517 L 40.5 514 Z "></path><path d="M 65.5 514 L 67.5 514 L 69.5 515 L 72.5 514 L 77 514.5 L 72.5 517 L 71.5 516 L 69 517.5 Q 69.8 515.3 67.5 516 L 63.5 517 L 65.5 514 Z "></path><path d="M 17.5 515 Q 22.3 513.3 21 517.5 L 21.5 519 L 18.5 517 L 16 517.5 L 15.5 519 L 15 517.5 L 17.5 515 Z "></path><path d="M 93.5 515 L 92.5 517 L 93.5 515 Z "></path><path d="M 100 516 Q 103 515 102 518 Q 99 519 100 516 Z "></path><path d="M 136.5 516 L 137.5 518 L 136.5 516 Z "></path><path d="M 27.5 517 L 28 521 L 26 520.5 L 27.5 517 Z "></path><path d="M 309 517 Q 312.8 516 314 518.5 Q 315.3 522.7 310.5 521 L 309 517 Z "></path><path d="M 15.5 520 L 16 523.5 L 15 523.5 L 15.5 520 Z "></path><path d="M 129.5 521 L 130.5 523 Q 127.7 523.7 129.5 521 Z "></path><path d="M 87.5 524 L 86.5 526 L 87.5 524 Z "></path><path d="M 314.5 524 L 313.5 526 L 314.5 524 Z "></path><path d="M 12.5 525 L 14 525.5 L 11.5 527 L 12.5 525 Z "></path><path d="M 137.5 528 L 140 528.5 L 139 530.5 L 139.5 532 L 137.5 528 Z "></path><path d="M 36 529 L 40 529.5 L 36 531 L 36 529 Z "></path><path d="M 36.5 541 Q 40.3 539.8 39 543.5 L 36.5 541 Z "></path><path d="M 31 542 L 35 543.5 L 34.5 546 L 32.5 545 L 30.5 546 L 30.5 545 L 32 544.5 L 31 542 Z "></path><path d="M 342.5 542 L 344 542.5 L 342 543.5 L 343 546.5 L 341.5 550 L 341 547.5 L 342 544.5 Q 339.8 543.3 342.5 542 Z "></path><path d="M 342.5 551 L 344 554.5 L 342 555 L 342.5 551 Z "></path><path d="M 259.5 557 L 264 558 L 262.5 561 L 261 561.5 L 261 571.5 L 260 572.5 L 260 582 L 256.5 583 Q 249.1 575.4 245.5 564 L 245 581.5 L 246 584 L 240.5 584 L 240 582.5 Q 242.8 581.8 242 577.5 L 242 575.5 L 241 564.5 L 241 562.5 Q 241.8 559.9 238.5 561 Q 235.5 559.5 238.5 558 L 243.5 559 L 246.5 558 Q 253.4 564.6 256.5 575 L 257 571.5 L 256 569.5 L 257 568.5 L 257 560.5 L 255 560.5 L 256.5 558 L 259.5 557 Z "></path><path d="M 273.5 557 Q 283.4 556.6 287 562.5 Q 290.5 566.7 289 575 L 293.5 575 L 299.5 578 L 302 577 L 303 573.5 L 302 570 L 297.5 569 L 294.5 570 L 291 567.5 L 290 562.5 L 294.5 557 L 304.5 558 L 306.5 558 L 309 559.5 L 308 563 Q 304.2 564 303 561.5 Q 303.6 558.8 297.5 560 L 296 563.5 L 299.5 566 L 307 567 L 310 572.5 L 310 577.5 Q 308 584 297.5 582 L 293.5 581 L 288.5 582 L 286 580.5 L 288 577.5 L 284.5 580 Q 278.4 584.4 266.5 583 L 263 581.5 L 266 580 L 267 577.5 L 267 561.5 L 265.5 559 L 267.5 558 L 270.5 559 L 273.5 557 Z M 274 560 Q 272 565 273 575 L 272 576 L 273 580 Q 278 581 281 578 L 283 576 L 284 572 L 282 564 Q 280 559 274 560 Z "></path><path d="M 218.5 558 L 224.5 559 L 228 561.5 L 234 581 L 238 581 L 238 582.5 L 235.5 584 L 232.5 583 L 228.5 584 L 229 582.5 L 226 572 L 221.5 571 L 219 572 L 217 583 L 211 584 Q 209.5 580.2 212.5 581 L 214 579.5 L 214 575.5 Q 217.6 570.1 218 561.5 L 216.5 559 L 218.5 558 Z M 223 562 L 220 569 L 225 569 L 223 562 Z "></path><path d="M 188.5 559 Q 195.3 557.3 197 560.5 L 192 564.5 L 199.5 578 L 207 563.5 L 207 561 L 203 560.5 L 204.5 559 L 213 559 L 206 574.5 L 199.5 583 Q 195.5 583.5 195 580.5 L 188.5 571 L 180.5 583 Q 175.5 583.5 175 579.5 L 170 563 Q 166.2 564 165 561.5 L 165.5 560 L 175 560 L 180 577 Q 182.7 578.1 182 575.5 L 185 569 Q 188 570.3 187 566.5 L 185 562 Q 182 563 183 560 L 188.5 559 Z "></path><path d="M 86.5 560 L 96.5 561 L 103 560 Q 104 564.7 100.5 566 L 99 563 Q 93.8 560.9 95 565.5 L 94 570.5 L 96 569.5 Q 95.2 566.5 99 568 L 100 572.5 L 99 575 L 94 573 L 94 581 L 96.5 581 L 99 582 L 100 578 L 104 578.5 L 103 582.5 L 99.5 586 L 86 585 L 87 580.5 L 87 563 Q 84.3 564.1 85 561.5 L 86.5 560 Z "></path><path d="M 340.5 560 L 342.5 560 Q 344.8 559.3 344 561.5 L 341.5 562 L 340.5 560 Z "></path><path d="M 18.5 561 L 23.5 562 Q 25.2 559.3 31.5 561 L 35 562 L 36 570.5 L 34 574 L 24 577.5 L 25 584 L 27 584.5 L 25.5 586 L 17.5 586 L 15 585 Q 14.3 581.9 17 582.5 L 17 565.5 L 15 562 L 18.5 561 Z M 25 565 L 24 572 L 29 572 L 31 569 L 30 566 L 25 565 Z "></path><path d="M 41.5 561 L 49.5 561 L 50 562.5 L 52 564.5 L 60 585.5 Q 58.8 588.3 53.5 587 L 51 585.5 L 53 582.5 L 50 574 Q 46.9 576 40 575 L 38 582.5 L 42 584 L 42 587 L 33 587 L 33 584 Q 36 585.3 35 581.5 L 40 564.5 L 39 562 L 41.5 561 Z M 43 565 L 41 571 L 42 573 L 48 572 L 46 567 L 43 565 Z "></path><path d="M 69.5 561 L 74.5 562 L 76.5 562 Q 81.1 560.8 79 566 L 70.5 565 L 67 568.5 L 67 578.5 Q 68.7 581.8 74.5 581 L 76 578 L 71 578 L 71 576 L 79.5 576 L 81 577.5 L 81 579.5 Q 82 584 79.5 585 L 66.5 585 L 62 581.5 L 59 574.5 Q 60.5 566 66.5 562 L 69.5 561 Z "></path><path d="M 136.5 565 L 140 566.5 Q 138.8 569.3 137.5 567 L 135 568.5 L 136.5 571 L 139 572.5 L 140.5 575 L 141 573.5 L 140 571 Q 143.8 570 145 572.5 L 146 575.5 Q 144.8 578 141 577 L 142 582.5 L 136.5 590 L 134.5 591 L 134 589.5 Q 138.3 587.3 137 579.5 L 131 569.5 L 133.5 566 L 136.5 565 Z "></path><path d="M 125.5 575 Q 130.8 573.8 132 576.5 L 133 578.5 L 129.5 584 Q 124 585 123 581.5 Q 121.8 575.4 124.5 576 L 125.5 575 Z M 126 577 L 126 580 L 129 581 L 128 579 Q 129 576 126 577 Z "></path><path d="M 317.5 577 L 321 579.5 L 321 582 L 314.5 582 L 313 578 L 317.5 577 Z "></path><path d="M 342.5 577 Q 344.8 576.3 344 578.5 L 342.5 577 Z "></path><path d="M 341.5 586 L 342 589.5 L 341 589.5 L 341.5 586 Z "></path><path d="M 344.5 586 L 346 589.5 L 344 590.5 L 345 587.5 L 344.5 586 Z "></path></svg>