<svg width="350" height="600" version="1.1" xmlns="http://www.w3.org/2000/svg" desc="Created with imagetracer.js version 1.2.5"><path d="M 263.5 4 L 266.5 5 L 267.5 4 L 332.5 4 L 334 5.5 L 335 22.5 L 334 24.5 L 335 25.5 L 335 85.5 Q 332.8 86.8 334 91.5 L 334 93.5 L 335 98.5 L 335 134.5 L 336 135.5 L 335 137.5 L 335 139.5 L 335 246.5 L 336 247.5 L 335 249.5 L 336 251.5 L 335 254.5 L 336 257.5 L 336 259.5 L 335 266.5 L 336 267.5 L 336 277.5 Q 333.7 278.8 335 283.5 L 336 284.5 L 337 305.5 L 336 306.5 L 336 331.5 L 337 333.5 L 336 334.5 L 336 361.5 L 336 363.5 L 336 374.5 L 337 375.5 L 336 376.5 L 336 385.5 L 337 386.5 L 337 447.5 L 338 450.5 L 337 451.5 L 337 478.5 L 336 479.5 L 336 545.5 Q 338.5 547 337 552.5 L 336 553.5 L 336 593.5 L 334.5 595 L 331.5 594 L 330.5 595 L 320.5 595 L 319.5 594 L 289.5 594 L 285.5 593 L 284.5 594 L 191.5 594 Q 190.3 591.8 185.5 593 L 183.5 593 L 178.5 594 L 161.5 594 L 159.5 594 L 126.5 595 L 125.5 594 L 94.5 594 L 93.5 595 L 58.5 595 L 56.5 596 L 54.5 596 L 11.5 597 L 10.5 596 L 4 596 L 4 583.5 L 5 581.5 L 4 578.5 L 5 576.5 L 4 575.5 L 4 510.5 L 3 507.5 L 3 505.5 L 3 482.5 L 4 481.5 L 4 416.5 L 3 415.5 L 3 384.5 L 4 383.5 L 4 362.5 L 3 357.5 L 4 355.5 L 3 350.5 L 4 349.5 L 4 225.5 Q 6.5 224 5 218.5 L 5 216.5 L 4 213.5 L 5 210.5 L 4 209.5 L 4 130.5 L 5 125.5 L 4 124.5 L 4 89.5 L 5 88.5 L 5 75.5 L 4 73.5 L 5 70.5 L 5 21.5 L 4 17.5 L 6 6 L 40.5 6 L 41.5 5 L 43.5 6 Q 45 3.5 50.5 5 L 52.5 6 L 54.5 5 L 55.5 6 L 106.5 6 L 107.5 5 L 123.5 5 L 124.5 6 L 175.5 6 L 179.5 5 L 183.5 6 L 185.5 5 L 186.5 6 L 198.5 6 L 199.5 5 L 211.5 5 Q 212.7 7.3 217.5 6 L 219.5 6 L 222.5 5 L 262.5 5 L 263.5 4 Z M 104 7 L 103 10 L 99 9 L 97 9 L 89 10 L 87 10 Q 80 12 79 9 L 76 10 L 73 9 L 71 10 Q 66 11 65 9 L 40 9 L 38 10 L 36 10 L 34 9 L 27 10 L 25 10 L 20 9 L 16 10 L 14 9 L 9 10 L 9 40 L 8 41 L 9 43 L 9 54 L 8 55 L 8 93 L 8 95 L 8 120 L 7 121 L 8 123 L 7 126 L 8 136 L 8 138 L 7 140 L 7 148 L 8 149 L 8 176 L 8 178 L 7 180 L 7 217 L 8 218 L 7 228 L 7 230 Q 6 234 8 236 L 7 240 L 8 244 L 7 247 L 7 277 L 8 278 L 7 281 L 7 310 L 7 312 L 8 316 L 19 322 Q 18 324 21 323 L 22 320 L 29 314 L 32 314 L 40 310 Q 51 310 59 314 L 66 323 L 69 316 L 74 310 L 75 304 L 72 301 L 70 301 L 59 286 Q 57 280 49 282 L 45 278 L 45 276 L 43 272 Q 44 267 41 268 L 38 261 L 32 257 L 28 253 Q 26 245 30 244 L 28 243 L 29 239 L 28 231 L 33 228 L 37 234 Q 36 227 40 225 L 39 221 L 42 214 Q 48 206 61 204 L 61 203 Q 58 204 59 201 L 70 194 L 75 195 L 80 191 L 83 194 Q 82 196 85 195 L 86 193 L 85 191 L 92 186 L 101 184 L 106 186 L 110 184 Q 112 183 111 187 Q 110 192 102 190 Q 98 192 103 194 L 105 193 Q 107 197 110 192 L 120 195 L 126 195 L 127 195 Q 127 200 123 202 Q 119 201 120 204 Q 126 203 127 207 L 127 209 Q 132 207 131 211 L 136 208 Q 137 201 134 198 Q 133 192 135 191 L 132 181 L 132 164 L 131 163 L 132 158 L 139 153 L 143 153 L 143 144 L 145 137 L 146 120 L 147 119 L 147 110 L 145 101 Q 143 105 136 103 Q 135 99 139 98 L 142 99 L 143 100 L 142 98 Q 141 93 145 92 L 147 94 Q 149 100 145 99 L 147 103 L 149 103 Q 148 94 151 90 Q 153 83 150 82 L 152 65 L 153 64 Q 154 57 151 56 Q 146 55 147 58 L 145 59 Q 141 60 142 57 L 144 56 Q 143 58 146 57 L 145 55 L 145 53 L 137 53 L 137 51 L 141 48 Q 139 41 144 39 L 147 42 L 146 51 L 152 54 Q 153 56 154 54 L 152 48 L 152 46 L 151 41 L 152 35 Q 156 33 153 31 L 143 32 L 141 30 L 145 27 L 141 21 L 142 17 L 149 21 L 150 17 L 155 13 L 156 16 Q 157 21 154 22 L 155 23 L 160 20 L 160 27 L 155 30 Q 157 32 163 31 L 165 34 L 165 40 L 168 40 L 170 43 Q 169 47 171 49 L 168 60 L 168 67 L 166 72 L 166 74 L 172 74 L 175 71 L 174 70 L 175 65 L 180 62 L 181 67 L 185 64 L 186 68 L 184 69 Q 185 66 182 67 L 181 70 L 186 74 L 185 77 L 183 74 L 178 76 L 181 77 Q 184 76 183 79 Q 177 78 175 74 L 174 76 L 169 77 L 167 76 L 164 83 L 161 115 L 159 121 L 160 126 L 163 125 Q 165 124 164 121 Q 165 117 169 118 Q 171 119 169 121 L 170 122 L 174 121 L 175 124 L 174 127 L 172 128 Q 167 129 167 126 L 162 127 L 159 130 Q 160 136 156 138 Q 157 146 154 151 L 155 155 L 154 157 L 157 162 L 156 167 L 160 169 L 156 175 L 156 179 L 151 188 L 154 192 Q 153 198 156 201 L 168 220 L 171 212 L 170 206 L 167 200 L 169 194 L 174 190 L 178 181 L 191 171 L 195 170 L 197 170 L 200 169 L 196 162 L 196 157 L 194 155 Q 188 152 188 144 L 188 142 Q 190 136 187 135 L 190 128 L 188 125 L 193 112 L 200 104 L 206 92 L 209 91 L 216 92 Q 221 98 228 101 Q 226 94 230 91 Q 229 88 232 89 L 232 87 L 240 83 L 252 83 L 253 84 Q 257 86 256 83 L 265 75 L 272 74 L 274 74 L 276 73 L 283 74 L 288 77 Q 293 81 295 88 L 305 97 L 307 97 L 310 98 L 315 95 Q 314 92 317 93 Q 318 91 319 94 L 317 100 Q 318 102 316 101 L 314 104 L 312 105 Q 305 106 303 103 L 302 105 L 309 108 L 312 107 Q 313 105 314 108 L 313 111 L 306 115 L 302 114 Q 301 117 304 116 L 312 127 L 309 133 L 314 141 Q 313 147 309 150 L 311 152 Q 316 150 315 154 L 312 156 L 304 155 L 300 151 L 302 148 L 302 146 L 292 148 L 286 142 L 285 142 L 290 152 Q 291 157 287 158 L 288 160 L 285 160 L 279 157 L 274 149 L 274 144 L 275 142 L 273 143 L 270 142 L 269 139 L 266 143 L 264 142 L 257 133 L 259 122 L 267 114 L 266 110 Q 262 109 264 113 L 258 116 Q 251 117 248 114 L 241 106 L 238 108 L 240 108 L 245 115 L 245 117 Q 245 126 252 129 L 250 133 L 251 147 L 261 164 L 261 168 L 269 171 L 275 176 L 284 189 L 284 197 L 290 199 Q 293 200 292 204 L 295 205 Q 300 207 298 216 L 302 217 L 307 214 L 311 215 L 322 224 Q 325 225 324 229 L 322 230 L 310 227 L 308 227 L 310 231 L 309 235 L 304 234 L 303 238 Q 304 240 300 239 L 300 241 L 302 241 L 302 244 L 298 248 L 300 248 L 303 253 Q 311 252 313 258 L 312 264 Q 314 269 324 267 L 325 270 L 320 273 L 321 277 L 319 278 Q 313 279 311 276 L 308 276 Q 309 279 306 278 L 306 281 Q 307 283 313 282 L 318 285 L 322 292 Q 321 299 323 302 L 320 302 L 315 298 L 311 299 L 311 302 L 307 307 L 303 305 L 300 303 Q 301 297 298 296 L 295 297 L 297 300 L 294 302 L 291 302 L 282 297 L 279 293 L 280 289 Q 279 286 278 288 L 271 286 L 266 286 L 258 289 L 260 293 Q 259 297 264 295 L 266 299 Q 276 302 282 310 Q 275 313 274 322 Q 281 321 286 316 L 299 312 L 311 312 L 320 314 L 332 322 L 333 322 L 332 321 L 332 257 L 331 256 L 332 254 L 332 227 L 332 225 L 331 224 L 331 209 L 330 208 L 331 205 L 331 148 L 331 146 L 331 100 L 330 99 L 331 96 L 331 42 L 331 40 L 330 36 L 331 34 L 330 32 L 331 29 L 330 8 L 280 8 L 279 9 L 276 8 L 266 10 L 262 9 L 260 9 L 246 9 L 245 10 L 244 9 L 179 9 L 175 9 L 170 10 L 166 10 L 162 9 Q 157 8 156 10 L 144 9 L 142 9 L 133 9 L 132 10 L 131 9 L 119 9 L 117 9 L 107 9 L 106 10 L 104 7 Z M 153 16 L 153 21 L 154 19 L 153 16 Z M 145 20 L 144 22 L 146 23 L 145 20 Z M 158 23 L 154 28 L 155 29 L 158 25 L 158 23 Z M 149 27 L 144 30 L 149 30 L 149 27 Z M 155 37 L 154 40 L 155 40 L 155 37 Z M 157 46 L 158 48 Q 159 45 157 46 Z M 164 46 L 163 51 L 165 50 L 164 46 Z M 168 48 L 167 51 L 168 51 L 168 48 Z M 140 49 Q 139 52 142 51 Q 143 48 140 49 Z M 164 53 L 163 56 L 164 56 L 164 53 Z M 159 54 L 159 58 L 159 57 Q 161 55 159 54 Z M 159 59 L 158 63 L 160 62 L 159 59 Z M 157 61 L 156 64 L 157 64 L 157 61 Z M 162 64 L 160 67 L 162 66 L 162 64 Z M 178 65 L 177 70 L 178 70 L 178 65 Z M 156 67 L 154 70 Q 156 76 153 78 Q 151 83 155 82 L 154 79 Q 157 77 155 76 L 156 72 L 156 67 Z M 159 76 L 159 78 L 161 77 L 159 76 Z M 261 81 L 259 84 L 261 83 L 261 81 Z M 270 81 L 270 84 L 267 85 L 267 86 L 272 85 L 275 86 Q 276 83 273 84 Q 270 83 272 82 L 270 81 Z M 155 85 L 154 87 L 156 88 L 155 85 Z M 238 86 L 237 88 L 239 87 L 238 86 Z M 280 86 Q 278 89 282 90 Q 284 91 283 88 L 280 86 Z M 154 88 L 153 93 L 155 94 L 154 90 L 156 90 L 154 88 Z M 234 88 L 234 90 L 236 89 L 234 88 Z M 239 89 L 236 93 Q 238 89 246 90 L 249 91 L 249 89 L 239 89 Z M 259 90 L 256 91 L 257 93 L 260 92 Q 261 89 259 90 Z M 277 91 L 278 93 L 279 93 L 277 91 Z M 262 92 L 260 94 L 262 94 L 262 92 Z M 287 92 L 286 94 L 289 95 L 287 92 Z M 153 93 Q 151 97 153 99 L 152 101 L 155 99 L 153 96 Q 155 94 153 93 Z M 208 93 L 206 99 L 219 101 L 221 101 L 220 103 L 226 105 Q 230 106 229 111 L 226 111 L 227 108 L 224 109 L 216 107 Q 215 111 218 112 L 218 110 L 221 110 L 221 115 L 226 113 L 225 117 L 228 119 L 231 116 L 232 118 Q 233 121 230 120 L 231 123 Q 230 125 233 124 L 235 121 L 237 123 Q 235 126 233 125 L 236 128 L 236 127 L 239 125 L 240 128 L 238 129 L 236 129 L 239 133 L 239 132 L 242 130 L 243 133 L 241 134 L 239 134 Q 238 137 242 135 Q 243 138 240 137 Q 239 142 242 143 L 245 143 L 241 140 Q 243 135 245 138 L 248 129 L 246 127 Q 240 124 242 115 L 231 105 L 227 104 L 214 94 L 208 93 Z M 232 93 L 231 96 L 232 96 L 232 93 Z M 280 93 Q 278 96 281 95 L 280 93 Z M 271 94 Q 269 97 272 96 L 271 94 Z M 286 95 L 288 98 L 288 97 L 286 95 Z M 156 96 L 156 98 L 158 97 L 156 96 Z M 238 96 L 239 98 Q 240 95 238 96 Z M 251 96 L 250 98 Q 253 99 254 97 L 251 96 Z M 291 96 L 293 99 L 294 99 L 291 96 Z M 314 98 L 309 100 L 312 101 L 314 100 L 314 98 Z M 288 100 L 289 102 L 290 102 L 288 100 Z M 302 100 L 302 101 L 304 101 L 302 100 Z M 306 100 L 304 102 L 306 102 L 306 100 Z M 152 101 L 151 108 L 152 108 L 152 101 Z M 254 101 L 255 103 L 261 103 L 261 101 L 259 102 L 257 102 L 254 101 Z M 297 101 Q 295 104 298 103 L 297 101 Z M 294 102 L 294 105 L 300 108 L 300 107 L 294 102 Z M 207 103 L 201 110 L 208 109 L 210 105 L 211 108 L 209 109 L 212 109 L 214 105 L 207 103 Z M 273 104 Q 271 108 274 111 L 275 111 L 273 104 Z M 283 104 L 281 106 L 283 107 L 283 104 Z M 280 106 L 279 110 L 280 110 L 280 106 Z M 302 107 L 303 109 L 305 109 L 302 107 Z M 151 108 L 148 123 L 148 130 L 147 131 L 147 138 L 146 139 L 147 148 Q 146 140 149 136 L 148 134 L 149 133 L 151 114 L 153 112 L 153 109 L 152 111 L 151 108 Z M 158 109 L 157 112 L 158 112 L 158 109 Z M 260 109 L 258 111 L 261 111 L 260 109 Z M 271 109 L 270 113 L 271 113 L 271 109 Z M 309 109 L 303 111 L 306 112 Q 307 115 309 111 L 309 109 Z M 198 110 L 196 113 L 198 112 L 198 110 Z M 288 110 L 289 113 L 291 113 L 288 110 Z M 155 111 L 153 114 L 154 117 L 155 115 L 155 111 Z M 281 111 Q 279 114 282 113 L 281 111 Z M 210 113 L 210 115 L 207 116 L 205 115 L 204 118 Q 202 121 201 117 L 200 119 L 196 120 L 192 130 L 194 129 Q 196 130 195 128 L 201 124 Q 207 126 209 123 Q 220 123 226 129 L 229 134 L 236 151 L 239 153 L 255 161 L 248 144 L 244 146 Q 237 147 236 143 L 237 138 L 236 134 L 232 136 L 224 123 L 227 124 L 228 124 L 218 115 L 210 113 Z M 283 113 L 285 116 L 285 115 L 283 113 Z M 288 114 L 289 118 L 294 117 L 288 114 Z M 294 114 Q 293 117 296 116 L 297 117 Q 298 112 294 114 Z M 157 115 L 155 117 L 157 117 L 157 115 Z M 281 117 L 280 119 L 283 119 L 281 117 Z M 268 118 L 266 119 Q 261 122 260 128 L 262 136 L 264 138 Q 263 140 266 139 L 262 129 L 262 126 L 269 119 L 268 118 Z M 284 119 L 287 124 L 287 128 Q 285 129 288 130 Q 289 127 292 128 Q 294 124 290 125 L 287 121 L 284 119 Z M 168 120 L 166 122 L 168 122 L 168 120 Z M 279 121 L 278 126 L 279 126 L 279 121 Z M 281 122 L 280 124 L 282 125 L 281 122 Z M 172 123 L 168 126 L 171 126 Q 172 128 173 126 L 172 123 Z M 270 123 L 268 126 L 270 125 L 270 123 Z M 277 125 L 275 128 L 277 128 L 277 125 Z M 264 126 L 264 128 L 264 130 L 265 132 L 266 130 Q 267 125 264 126 Z M 281 128 Q 278 129 278 133 L 276 134 Q 277 130 274 131 L 272 139 L 274 141 L 282 129 L 281 128 Z M 269 129 L 267 132 L 269 131 L 269 129 Z M 215 130 L 211 132 Q 209 134 208 131 L 207 133 L 202 136 L 204 136 L 207 149 Q 209 155 204 153 L 203 145 L 201 144 L 199 148 L 204 157 L 206 154 L 218 154 L 218 156 L 229 150 L 230 147 L 228 148 L 223 147 L 222 145 L 223 140 L 223 136 L 221 132 Q 217 133 215 130 Z M 290 131 L 290 133 L 292 132 L 290 131 Z M 294 131 Q 292 136 295 137 L 295 136 L 295 134 L 294 131 Z M 298 132 Q 296 135 299 136 Q 303 134 300 132 L 299 134 L 298 132 Z M 198 133 L 197 135 L 202 135 L 198 133 Z M 197 138 L 197 140 L 199 139 L 197 138 Z M 246 139 L 245 142 L 246 142 L 246 139 Z M 295 139 L 295 143 L 296 143 L 295 139 Z M 202 140 Q 200 143 203 142 L 202 140 Z M 293 140 L 291 145 L 295 146 L 293 140 Z M 226 141 L 225 144 L 226 144 L 226 141 Z M 279 142 L 278 149 L 279 149 L 279 142 Z M 302 142 L 300 144 Q 299 146 302 145 L 302 142 Z M 196 143 L 195 145 L 197 146 L 196 143 Z M 146 148 L 145 152 L 146 152 L 146 148 Z M 233 150 L 218 159 L 211 161 L 203 161 L 202 160 Q 199 159 200 162 L 206 163 L 212 163 L 220 161 L 229 155 L 231 156 L 227 158 Q 223 160 227 162 L 226 163 L 225 160 L 218 163 Q 215 164 216 168 L 221 167 L 220 163 L 222 163 L 222 168 L 220 169 L 222 172 L 221 174 L 219 170 L 218 170 Q 217 175 221 176 L 225 174 L 226 174 L 226 170 L 228 170 L 229 171 Q 228 168 231 169 L 232 171 L 233 168 L 232 165 L 237 157 L 237 155 L 234 156 Q 235 151 233 150 Z M 286 151 L 285 153 L 287 154 L 286 151 Z M 140 154 L 136 157 Q 134 161 138 160 L 137 159 L 139 159 L 138 157 L 141 155 L 140 154 Z M 141 155 L 142 159 L 143 159 Q 144 154 141 155 Z M 204 157 L 204 159 L 206 158 L 204 157 Z M 134 160 L 134 162 L 136 163 Q 137 159 134 160 Z M 138 161 L 136 165 L 137 176 L 138 164 Q 140 162 138 161 Z M 213 164 L 210 166 L 211 169 L 216 169 L 213 167 L 213 164 Z M 205 165 Q 203 169 207 168 L 208 169 Q 210 163 205 165 Z M 237 165 L 236 167 Q 232 168 235 170 L 232 173 L 225 176 L 212 177 L 211 178 L 207 176 L 209 180 L 208 181 L 205 179 L 204 181 L 206 183 L 202 181 L 201 183 L 208 187 L 226 184 L 248 170 L 246 168 L 237 169 L 237 168 L 237 165 Z M 255 169 L 248 172 L 229 185 L 217 188 L 215 191 L 211 194 Q 204 195 202 192 L 199 189 L 200 187 L 198 182 L 196 188 Q 196 191 191 191 L 189 186 L 182 205 L 183 209 L 183 208 Q 183 204 188 205 L 189 205 L 188 208 L 189 212 L 192 206 L 199 201 L 202 202 Q 202 208 197 212 Q 196 217 200 215 L 201 209 Q 204 208 203 211 L 206 211 L 207 214 L 206 216 L 202 216 Q 202 219 197 218 L 201 227 L 204 228 L 207 222 L 212 223 Q 211 219 214 218 L 218 220 L 217 223 L 213 226 Q 206 224 208 229 L 215 228 L 219 221 L 219 217 L 216 210 L 206 205 L 209 201 L 210 204 L 212 203 L 217 205 L 223 216 Q 224 224 220 228 L 212 235 L 207 236 Q 202 235 203 238 L 213 237 L 214 239 Q 216 236 220 237 Q 221 241 217 243 L 218 245 L 220 242 Q 222 243 221 241 Q 223 235 230 234 Q 237 233 238 238 Q 239 242 237 243 L 232 242 L 228 244 L 230 246 L 233 244 L 236 245 Q 237 250 235 252 L 232 251 L 226 247 L 226 252 L 229 256 L 234 256 L 234 253 L 239 253 L 238 251 Q 236 245 242 247 L 239 240 L 243 237 L 243 227 L 242 226 L 242 223 Q 239 223 240 218 L 238 218 L 241 212 L 237 211 L 238 209 Q 239 206 236 207 L 229 199 L 226 200 L 219 196 L 220 191 L 223 190 Q 227 191 227 197 L 229 189 L 235 184 L 237 184 Q 238 189 235 191 Q 233 197 238 195 Q 237 190 240 189 L 242 189 Q 241 192 244 191 L 244 196 L 247 197 L 247 196 Q 243 194 246 193 Q 245 190 248 191 L 250 194 L 251 191 L 250 187 L 247 184 Q 242 183 241 185 Q 238 186 239 184 L 246 181 L 252 183 L 255 188 L 253 193 L 255 196 L 255 194 L 259 193 L 261 196 L 263 195 L 266 200 Q 273 201 275 197 L 273 194 L 274 190 Q 269 189 268 193 L 264 192 Q 265 189 263 190 Q 260 190 260 186 L 263 184 L 266 180 L 270 181 L 272 180 L 269 178 L 269 175 L 268 178 Q 259 180 257 175 L 259 172 Q 260 167 255 169 Z M 215 170 L 215 175 L 217 175 L 216 174 L 217 171 L 215 170 Z M 197 172 Q 195 175 198 174 L 197 172 Z M 263 172 L 263 174 L 266 173 L 263 172 Z M 143 177 L 142 182 L 143 182 L 143 177 Z M 136 178 L 137 188 L 138 188 L 138 179 L 136 178 Z M 189 179 L 189 181 L 191 180 L 189 179 Z M 186 181 L 183 188 L 181 187 L 179 188 L 177 188 L 177 192 L 181 193 L 183 196 L 187 185 L 186 181 Z M 142 182 L 141 190 L 142 190 L 142 182 Z M 277 183 Q 275 186 274 184 L 266 185 L 264 187 L 268 187 Q 269 190 271 188 Q 275 187 277 189 L 279 188 L 280 189 L 277 183 Z M 146 184 L 145 187 L 146 187 L 146 184 Z M 97 187 L 95 189 Q 96 191 93 190 L 95 194 L 96 191 L 97 193 L 97 191 L 98 188 L 100 189 L 102 188 L 97 187 Z M 90 189 L 89 195 L 90 195 L 90 189 Z M 281 189 L 277 193 L 279 199 L 276 201 L 273 200 L 267 203 L 261 201 Q 262 197 257 199 L 257 200 Q 259 199 258 202 L 258 203 L 261 202 L 262 205 L 260 204 L 258 207 L 260 206 L 263 208 L 260 210 Q 265 209 268 212 L 269 215 L 272 217 L 280 220 L 285 219 L 288 228 L 289 228 L 288 221 Q 285 219 286 216 L 277 216 L 269 209 Q 266 210 267 206 L 264 206 Q 263 202 269 204 L 274 210 L 276 208 Q 283 208 286 205 L 281 198 L 282 195 L 281 189 Z M 145 190 L 144 193 L 145 193 L 145 190 Z M 93 192 L 92 195 L 94 195 L 93 192 Z M 141 193 L 140 197 L 141 197 L 141 193 Z M 78 194 L 78 196 L 80 197 Q 81 193 78 194 Z M 111 194 L 108 198 L 109 201 L 109 202 L 107 199 L 106 199 Q 103 198 104 201 L 103 201 L 104 198 Q 105 194 102 195 L 102 197 L 101 200 L 102 203 L 104 202 L 105 205 Q 107 204 105 203 L 106 200 L 107 203 L 106 205 L 107 208 L 109 208 L 108 210 L 112 207 L 114 208 L 116 208 L 116 206 L 113 205 Q 114 201 111 202 L 111 205 L 110 197 L 111 197 Q 109 202 113 201 L 112 200 L 113 196 L 115 204 L 116 203 L 116 196 L 111 194 Z M 145 194 L 143 196 L 145 196 L 145 194 Z M 117 196 L 117 199 L 120 199 Q 123 200 122 197 L 117 196 Z M 243 196 Q 241 199 237 199 L 242 200 L 244 197 L 243 196 Z M 99 198 L 98 200 L 100 201 L 99 198 Z M 140 198 L 138 204 L 140 204 L 140 198 Z M 250 198 L 248 199 L 247 201 L 250 200 L 250 198 Z M 96 199 Q 94 202 97 201 L 96 199 Z M 144 199 L 143 203 L 144 203 L 144 199 Z M 152 199 L 147 203 L 151 203 Q 153 208 148 206 L 148 207 Q 153 205 152 209 L 149 210 L 150 212 L 156 209 L 156 212 L 150 216 L 157 217 L 158 222 L 156 223 L 155 225 L 159 224 L 157 227 Q 157 231 161 233 L 167 231 L 167 234 L 164 238 L 167 239 L 172 237 L 170 234 L 171 231 L 169 226 Q 168 222 165 223 L 153 201 Q 154 198 152 199 Z M 67 202 L 66 205 L 67 205 L 67 202 Z M 254 202 Q 253 205 256 204 Q 257 201 254 202 Z M 98 203 L 97 206 L 99 207 L 98 203 Z M 176 204 L 174 207 L 176 206 L 176 204 Z M 139 205 Q 137 210 141 209 Q 143 204 139 205 Z M 106 206 L 105 209 L 107 209 L 106 206 Z M 119 206 L 117 211 Q 121 211 120 217 Q 118 218 121 219 L 122 207 L 122 219 L 125 218 L 124 217 L 124 214 Q 125 209 123 208 Q 124 204 120 206 L 120 208 L 119 206 Z M 77 207 L 75 211 L 77 210 L 77 207 Z M 179 207 L 178 212 L 179 212 L 179 207 Z M 248 207 L 244 210 L 247 212 L 245 216 L 248 218 Q 249 220 245 219 L 245 245 L 248 253 L 249 249 Q 248 246 251 247 L 250 252 Q 251 256 246 254 L 246 257 L 246 258 L 255 257 L 254 256 Q 251 255 252 252 L 256 249 Q 261 251 260 247 L 256 246 L 257 243 L 251 236 L 252 233 Q 253 227 249 226 Q 248 222 251 221 L 253 221 L 253 211 L 248 207 Z M 58 208 L 59 210 Q 60 207 58 208 Z M 55 209 L 53 211 L 55 211 L 55 209 Z M 71 209 L 71 211 L 73 210 L 71 209 Z M 98 209 L 98 211 L 100 210 L 98 209 Z M 53 211 L 52 215 L 53 215 L 53 211 Z M 66 211 L 65 214 L 66 214 L 66 211 Z M 69 211 L 67 213 L 69 213 L 69 211 Z M 134 211 L 136 214 L 138 213 L 134 211 Z M 106 212 L 107 214 L 109 213 L 106 212 Z M 139 212 L 139 214 L 141 213 L 139 212 Z M 96 213 L 97 215 Q 98 212 96 213 Z M 130 213 L 130 215 L 132 214 L 130 213 Z M 142 213 L 138 218 L 140 218 L 143 215 L 142 213 Z M 46 214 L 44 216 L 45 218 L 46 218 L 46 214 Z M 58 214 L 57 220 L 58 220 L 58 214 Z M 101 214 L 101 216 L 103 217 Q 104 213 101 214 Z M 112 214 L 111 216 L 114 217 L 115 217 L 112 214 Z M 174 214 L 171 221 L 171 224 L 174 228 L 174 236 L 177 236 L 177 238 L 174 240 L 176 242 L 177 239 L 177 241 L 179 242 L 178 239 L 179 237 L 178 236 L 177 224 Q 173 221 174 214 Z M 62 215 L 62 217 L 64 216 L 62 215 Z M 94 215 L 92 219 L 94 219 L 94 215 Z M 135 215 L 130 219 L 131 224 L 134 223 L 136 224 L 138 228 L 140 227 L 138 218 L 137 220 Q 134 221 135 219 L 135 217 L 135 215 Z M 144 215 L 140 220 L 141 228 L 141 229 L 143 228 L 142 225 L 144 225 L 142 222 L 141 221 L 144 218 L 144 215 Z M 68 216 Q 66 219 69 218 L 68 216 Z M 44 217 L 43 221 L 44 221 L 44 217 Z M 146 217 L 145 219 L 147 218 L 146 217 Z M 149 217 Q 149 220 146 219 L 147 221 L 149 220 Q 152 219 149 217 Z M 262 217 L 258 220 L 262 220 L 263 224 L 257 227 L 258 228 L 262 225 L 265 226 L 258 229 L 259 232 L 263 229 L 265 230 L 259 234 L 260 235 L 264 233 Q 265 231 266 234 L 260 238 L 261 239 L 265 236 Q 267 235 266 238 L 260 242 L 261 243 L 263 242 L 265 242 L 286 236 Q 288 237 287 234 L 280 235 Q 278 237 277 235 L 281 232 Q 287 234 285 229 L 283 230 Q 278 231 277 229 L 278 226 L 284 227 L 284 225 L 276 225 L 276 223 L 280 223 L 276 221 L 274 222 Q 269 224 270 220 L 269 218 L 262 217 Z M 126 218 L 125 223 L 127 223 L 126 218 Z M 128 218 L 127 222 L 128 222 L 128 218 Z M 152 218 L 149 221 L 152 221 L 152 218 Z M 66 219 L 64 220 L 64 221 Q 67 220 65 225 L 66 225 L 66 219 Z M 50 220 L 49 224 L 50 224 L 50 220 Z M 68 221 L 67 225 L 69 225 L 68 221 Z M 77 221 Q 76 224 79 223 Q 80 220 77 221 Z M 103 221 L 103 223 L 105 222 L 103 221 Z M 293 221 L 291 223 L 293 223 L 293 221 Z M 307 221 Q 306 223 310 223 Q 311 220 307 221 Z M 184 222 L 183 231 L 185 237 Q 181 238 182 236 L 181 236 L 182 246 L 185 250 Q 187 246 194 247 Q 197 247 196 252 L 190 255 Q 187 254 188 257 L 195 256 L 200 260 L 200 255 Q 204 253 203 257 L 205 256 Q 208 255 206 259 Q 211 261 210 257 L 206 253 L 202 250 L 204 248 L 209 249 L 217 261 L 222 260 L 217 253 L 217 249 L 216 249 L 213 248 L 214 244 Q 213 241 212 243 Q 207 244 207 241 L 203 241 L 199 239 L 200 235 L 195 233 Q 189 230 188 222 L 186 223 L 184 222 Z M 295 224 L 295 226 L 297 225 L 295 224 Z M 298 225 L 297 227 L 299 226 L 298 225 Z M 145 226 L 142 231 L 145 232 L 149 230 L 147 228 L 146 230 L 145 226 Z M 127 227 L 126 229 L 128 230 L 127 227 Z M 42 229 L 41 233 L 42 233 L 42 229 Z M 47 229 L 46 231 L 46 232 L 50 231 L 47 229 Z M 139 232 L 138 236 L 140 235 L 139 232 Z M 147 232 Q 146 235 149 234 Q 150 231 147 232 Z M 56 233 L 56 235 L 58 236 Q 59 232 56 233 Z M 150 233 L 151 237 L 151 239 Q 150 241 153 240 L 152 236 Q 153 232 150 233 Z M 155 234 L 154 237 L 155 237 L 155 234 Z M 161 234 L 161 236 L 163 235 L 161 234 Z M 291 234 L 290 236 L 292 235 L 291 234 Z M 52 235 L 51 238 L 52 238 L 52 235 Z M 144 235 L 144 238 Q 147 237 144 235 Z M 148 235 L 149 238 L 148 241 L 150 241 L 150 235 L 148 235 Z M 158 235 L 154 240 L 156 241 Q 155 237 158 238 L 158 241 Q 155 240 156 244 L 160 241 L 159 239 Q 160 234 158 235 Z M 59 236 L 59 238 L 61 237 L 59 236 Z M 71 238 L 67 242 L 66 241 L 65 243 L 68 244 L 67 247 L 69 246 Q 67 239 72 241 L 73 244 L 75 239 L 73 238 L 71 238 Z M 286 238 L 281 240 L 287 241 L 288 246 L 288 240 L 295 239 L 286 238 Z M 120 239 L 120 242 L 121 242 Q 122 238 120 239 Z M 133 240 L 132 243 L 133 243 L 133 240 Z M 162 240 Q 160 243 163 242 L 161 245 Q 160 247 163 246 L 165 242 L 162 240 Z M 275 240 L 276 242 L 279 241 L 280 246 L 281 246 L 281 240 L 275 240 Z M 93 241 L 91 243 Q 90 245 93 244 L 94 245 L 93 241 Z M 272 241 L 273 246 L 274 242 L 272 241 Z M 63 242 L 62 245 L 64 245 L 63 242 Z M 71 242 L 70 245 L 71 245 L 71 242 Z M 122 242 L 121 245 L 123 246 L 122 242 Z M 130 242 Q 128 246 131 249 L 132 249 L 130 242 Z M 160 242 L 158 244 Q 157 246 160 245 L 161 243 L 160 242 Z M 269 242 L 264 244 L 265 247 L 271 243 L 269 242 Z M 57 243 L 57 244 L 59 244 L 57 243 Z M 114 243 L 114 248 L 115 248 Q 116 244 114 243 Z M 125 243 L 124 246 L 125 246 L 125 243 Z M 120 244 L 120 250 L 121 250 L 120 244 Z M 151 244 L 153 250 L 153 246 L 151 244 Z M 173 244 L 170 248 L 173 246 L 173 244 Z M 177 244 L 173 255 L 177 256 L 176 258 L 172 257 L 166 261 L 171 262 L 183 259 L 182 252 L 181 250 L 180 252 L 177 253 L 179 250 L 177 244 Z M 295 244 L 294 247 L 296 247 L 295 244 Z M 61 245 L 60 247 L 62 246 L 61 245 Z M 95 245 L 92 250 L 93 251 L 95 248 L 95 245 Z M 146 245 L 145 247 L 147 248 L 146 245 Z M 106 246 L 106 250 L 107 250 L 106 246 Z M 124 246 L 123 249 L 124 249 L 124 246 Z M 126 246 L 125 249 L 126 249 L 126 246 Z M 135 246 L 135 251 L 136 251 L 135 246 Z M 264 247 L 262 249 L 263 250 L 265 249 L 264 247 Z M 274 247 L 273 248 L 266 248 L 267 251 L 265 256 L 263 255 L 262 258 L 266 261 L 265 259 L 270 249 Q 272 248 271 252 L 274 253 L 272 259 L 273 260 L 274 257 L 277 255 L 276 259 L 277 261 L 277 260 L 280 258 L 281 265 L 284 263 L 285 265 L 284 267 L 284 268 L 286 267 Q 288 266 287 270 L 288 270 Q 287 267 291 268 L 292 272 L 294 271 L 295 274 L 295 273 L 297 273 L 299 270 L 301 261 L 298 255 L 298 252 L 297 252 Q 299 258 295 257 L 294 251 L 292 250 L 293 252 L 292 254 L 290 252 L 288 253 L 286 249 L 285 251 Q 282 252 283 248 L 278 247 L 276 248 L 274 247 Z M 64 248 L 62 250 L 63 266 L 63 251 L 64 250 L 64 248 Z M 71 248 L 70 256 L 71 256 L 71 248 Z M 80 248 L 79 282 L 81 282 L 80 280 L 80 255 L 81 254 L 80 248 Z M 116 248 L 115 251 L 119 261 L 120 261 L 116 248 Z M 156 248 L 157 252 L 158 249 L 156 248 Z M 38 249 L 39 251 Q 40 248 38 249 Z M 69 249 L 67 251 L 68 254 L 69 251 L 69 249 Z M 74 249 L 72 254 L 74 254 L 74 249 Z M 77 249 L 76 253 L 77 253 L 77 249 Z M 96 249 L 94 252 L 96 260 L 97 260 Q 98 252 96 249 Z M 102 249 L 101 252 L 102 252 L 102 249 Z M 127 249 L 126 252 L 128 253 L 127 249 Z M 60 250 L 60 253 Q 63 252 60 250 Z M 86 250 L 87 258 L 88 258 Q 89 252 86 250 Z M 113 250 L 120 274 L 118 272 L 117 274 L 121 276 Q 120 261 113 250 Z M 122 250 L 121 253 L 122 253 L 122 250 Z M 125 250 L 124 253 L 125 253 L 125 250 Z M 55 251 L 53 255 L 55 255 L 55 251 Z M 56 251 L 57 254 L 58 252 L 56 251 Z M 66 251 L 65 267 L 67 267 L 66 265 L 66 261 L 69 257 L 67 256 L 67 258 L 66 251 Z M 134 251 L 134 257 L 135 257 L 134 251 Z M 103 252 L 103 266 L 104 266 L 104 255 L 103 252 Z M 109 252 L 108 255 L 109 255 L 109 252 Z M 153 252 L 153 254 L 155 255 Q 156 251 153 252 Z M 271 252 L 270 255 L 271 255 L 271 252 Z M 129 253 L 129 259 L 131 260 L 129 253 Z M 107 254 L 106 257 L 107 257 L 107 254 Z M 110 255 L 109 258 L 110 258 L 110 255 Z M 238 255 L 239 257 L 241 256 L 238 255 Z M 270 255 L 268 257 L 270 257 L 270 255 Z M 74 256 L 71 258 L 75 260 L 74 256 Z M 127 256 L 126 258 L 128 259 L 127 256 Z M 158 256 Q 156 259 160 260 L 160 257 L 158 256 Z M 61 257 L 60 264 L 61 264 L 61 257 Z M 125 257 L 124 260 L 125 260 L 125 257 Z M 84 258 L 83 261 L 84 261 L 84 258 Z M 94 258 L 93 261 L 94 261 L 94 258 Z M 108 258 L 107 261 L 109 262 L 108 258 Z M 148 258 L 147 261 L 148 261 L 148 258 Z M 165 258 Q 163 261 166 260 L 165 258 Z M 142 259 L 141 262 L 142 262 L 142 259 Z M 195 259 L 194 264 L 195 264 L 195 259 Z M 255 259 L 239 263 L 240 266 L 239 274 L 242 275 L 243 284 L 244 284 Q 246 278 243 277 L 244 275 L 247 277 L 247 284 L 249 284 L 248 280 Q 247 273 250 274 L 252 278 Q 251 285 254 284 L 253 280 L 254 273 Q 258 276 257 284 L 260 283 L 259 281 L 259 274 L 261 273 L 262 275 L 263 283 L 265 282 L 263 276 L 264 272 L 266 273 L 268 280 Q 267 285 271 283 L 268 271 L 263 263 L 261 261 Q 259 257 258 260 L 255 259 Z M 126 260 L 125 264 L 127 265 L 126 260 Z M 129 260 Q 127 265 130 268 L 131 268 L 129 260 Z M 155 260 Q 154 263 157 262 Q 158 259 155 260 Z M 161 260 Q 159 263 162 262 L 161 260 Z M 90 261 L 89 264 L 90 264 L 90 261 Z M 95 261 L 94 264 L 95 264 L 95 261 Z M 112 261 L 111 264 L 112 264 L 112 261 Z M 227 261 L 224 262 L 224 264 L 217 263 L 218 266 L 219 264 L 223 266 L 226 265 L 225 264 L 227 264 L 227 261 Z M 229 261 L 230 264 L 231 262 L 229 261 Z M 276 261 L 275 264 L 276 264 L 276 261 Z M 85 262 L 85 272 L 87 271 L 85 262 Z M 97 262 L 96 269 L 97 269 L 97 262 Z M 187 262 L 186 265 L 187 265 L 187 262 Z M 109 263 L 109 266 L 110 266 Q 111 262 109 263 Z M 138 263 Q 136 266 139 267 L 141 266 L 141 263 L 140 265 L 138 263 Z M 185 263 L 184 266 L 185 266 L 185 263 Z M 215 263 L 216 265 Q 217 262 215 263 Z M 108 264 L 107 267 L 108 267 L 108 264 Z M 133 264 L 132 268 L 133 268 L 133 264 Z M 158 264 L 158 265 L 161 265 L 158 264 Z M 204 264 L 202 266 L 203 273 L 203 270 L 203 268 Q 202 265 205 266 L 204 264 Z M 269 264 Q 268 267 272 266 Q 273 263 269 264 Z M 116 265 L 115 268 L 116 268 L 116 265 Z M 144 265 L 143 268 L 144 268 L 144 265 Z M 230 265 L 229 272 L 230 272 L 230 265 Z M 235 265 L 235 268 Q 238 267 235 265 Z M 83 266 L 82 281 L 83 281 L 83 266 Z M 111 266 L 110 269 L 111 269 L 111 266 Z M 125 266 L 125 272 L 126 272 L 125 266 Z M 128 266 L 128 272 L 126 273 Q 128 276 130 272 L 128 266 Z M 206 266 L 206 269 Q 209 268 206 266 Z M 68 267 L 67 270 L 68 270 L 68 267 Z M 77 267 L 77 272 L 78 270 L 77 267 Z M 161 267 L 161 268 L 164 268 L 161 267 Z M 172 267 L 156 276 L 140 281 L 131 282 L 129 282 L 127 283 L 127 284 L 133 284 L 151 280 L 168 272 L 173 268 L 172 267 Z M 233 267 L 232 273 L 233 273 L 233 267 Z M 132 268 L 131 272 L 132 272 L 132 268 Z M 137 268 L 136 271 L 141 270 L 137 268 Z M 156 268 L 153 270 L 116 279 L 117 281 L 126 278 L 136 277 L 160 269 L 156 268 Z M 196 268 L 194 272 L 195 275 L 196 275 L 196 268 Z M 198 268 L 198 273 L 199 273 Q 200 269 198 268 Z M 201 268 L 200 271 L 201 271 L 201 268 Z M 271 268 L 273 274 L 276 273 L 277 274 L 276 271 L 273 272 L 274 269 L 271 268 Z M 75 269 L 72 272 L 74 276 L 75 271 L 75 269 Z M 107 269 Q 104 273 108 272 L 107 269 Z M 123 269 L 123 274 L 125 274 L 123 269 Z M 178 269 Q 177 272 180 271 Q 181 268 178 269 Z M 223 269 L 222 278 L 223 278 L 223 269 Z M 115 270 Q 112 271 114 273 Q 113 277 116 276 L 115 270 Z M 173 270 L 171 273 L 174 271 L 173 270 Z M 59 271 L 56 275 L 59 273 L 59 271 Z M 88 271 L 89 279 L 90 279 Q 91 273 88 271 Z M 228 271 L 226 273 L 228 273 L 228 271 Z M 78 272 L 77 283 L 78 283 L 78 272 Z M 86 273 L 84 280 L 86 280 L 86 273 Z M 95 273 L 93 277 L 95 279 L 96 277 L 95 273 Z M 211 273 L 210 277 L 211 277 L 211 273 Z M 167 274 L 161 277 L 162 279 L 166 276 L 168 276 Q 169 273 167 274 Z M 205 274 L 206 279 L 207 279 Q 209 273 205 274 Z M 228 274 L 227 281 L 228 281 L 228 274 Z M 278 274 L 273 277 L 275 281 L 275 285 L 281 285 L 280 278 L 278 279 Q 276 281 275 279 L 278 277 L 278 274 Z M 294 274 L 293 277 L 294 277 L 294 274 Z M 109 275 L 111 277 L 112 277 L 109 275 Z M 176 275 L 172 283 L 174 291 L 170 294 L 170 296 L 169 295 L 146 308 L 125 316 L 123 319 L 122 320 Q 117 319 116 321 L 114 320 Q 111 321 112 318 L 112 316 L 113 314 L 111 307 L 110 309 L 107 311 L 103 313 L 100 312 L 96 315 L 94 315 L 91 317 Q 87 316 88 319 L 88 321 L 88 324 L 92 330 Q 91 334 93 336 L 91 336 L 90 328 L 89 335 L 87 334 Q 88 329 86 328 L 87 327 L 87 318 L 84 316 L 86 320 L 85 323 L 85 325 L 85 332 L 83 324 L 82 324 L 82 331 Q 85 332 84 337 L 81 337 L 82 335 L 80 336 Q 81 338 79 337 L 79 339 Q 78 341 81 340 L 81 342 L 89 347 L 87 343 L 91 347 L 90 347 L 92 350 L 93 348 L 93 351 L 95 350 L 97 351 L 99 347 L 106 341 Q 111 342 113 339 L 115 343 L 114 344 L 106 345 L 104 348 Q 102 346 100 350 L 101 351 L 104 349 L 104 352 L 100 356 L 96 353 L 93 354 L 93 356 L 91 356 L 92 354 L 91 353 L 87 349 L 86 350 Q 83 351 84 348 L 81 350 Q 78 349 79 352 L 81 352 L 80 354 L 78 353 L 79 350 Q 78 347 81 348 Q 84 347 81 345 L 80 347 L 79 345 Q 81 346 80 344 L 78 342 L 76 342 L 73 341 L 74 339 Q 75 335 73 336 L 69 332 L 67 330 Q 62 327 61 321 L 58 317 L 49 315 L 49 317 Q 50 319 47 318 L 46 316 L 48 315 L 40 313 L 35 315 L 34 317 L 36 316 L 36 318 L 37 319 L 32 317 Q 28 316 27 319 Q 28 321 25 320 L 25 324 L 22 326 L 24 326 L 25 329 L 24 329 Q 25 326 23 327 Q 21 324 19 329 L 21 329 L 21 330 L 19 329 L 16 333 L 18 334 Q 17 330 20 331 L 16 338 L 18 342 L 20 335 L 23 333 L 21 336 L 22 337 L 25 335 L 26 337 L 28 329 L 26 329 L 28 326 L 26 325 L 28 324 L 30 328 Q 33 329 29 331 L 34 332 L 36 331 Q 38 332 36 334 L 40 336 Q 44 337 45 334 L 48 335 L 52 333 Q 55 332 54 335 L 57 335 L 58 338 L 57 340 L 60 340 L 63 335 L 65 340 L 65 339 L 67 338 Q 68 342 66 344 L 67 349 L 67 351 L 69 357 L 70 354 L 70 356 L 72 355 L 71 359 Q 70 362 74 360 L 74 364 L 71 366 L 72 367 L 74 366 Q 78 364 75 363 L 77 362 L 78 363 Q 79 360 76 361 Q 75 358 78 359 L 78 357 L 79 357 Q 81 365 76 368 L 79 372 L 79 370 L 79 368 L 80 365 Q 83 368 81 376 L 82 376 Q 80 370 84 371 L 85 381 L 86 381 L 86 370 L 84 369 L 84 368 L 86 368 L 89 370 L 88 372 L 90 373 Q 89 370 92 371 L 93 379 Q 92 373 95 370 L 97 375 L 98 372 L 100 373 L 101 378 L 100 380 L 101 385 L 102 385 L 102 375 L 104 374 L 105 381 L 107 376 L 107 378 L 109 378 L 108 380 Q 107 384 109 386 Q 107 392 111 391 L 110 389 L 111 380 Q 110 385 113 388 L 113 392 L 115 391 Q 117 390 116 393 L 117 393 Q 116 388 120 390 L 121 393 Q 120 395 123 394 L 122 393 L 125 388 L 126 391 L 127 393 L 131 392 L 130 389 L 133 387 L 135 390 L 140 386 Q 147 381 150 371 Q 149 367 152 368 Q 153 366 154 369 L 154 373 L 147 385 L 135 395 L 129 397 L 124 397 L 124 398 Q 126 397 125 400 Q 122 401 123 398 L 119 399 L 128 406 L 144 415 L 149 416 L 158 421 L 162 421 L 164 423 L 169 423 L 175 425 L 175 422 L 180 414 Q 177 409 178 401 L 173 400 L 170 396 L 168 387 L 170 374 L 181 352 L 181 349 Q 185 344 186 336 L 189 332 L 189 327 L 187 323 L 187 321 L 186 319 L 190 309 L 182 308 L 181 304 Q 182 296 186 292 L 186 288 L 185 288 L 184 286 L 187 285 L 182 283 L 180 280 L 179 282 L 178 281 Q 175 282 176 280 L 178 280 L 179 280 L 176 275 Z M 204 275 L 203 278 L 204 278 L 204 275 Z M 236 275 L 235 286 L 233 290 Q 232 292 235 291 L 237 283 L 236 275 Z M 169 276 Q 167 279 170 278 L 169 276 Z M 195 276 L 195 278 L 197 277 L 195 276 Z M 158 278 L 151 282 L 135 286 L 128 286 L 132 292 L 130 299 L 133 298 Q 136 299 134 295 L 136 293 L 139 297 L 138 303 L 132 304 L 133 307 L 132 309 L 129 305 L 127 306 L 122 304 L 120 304 Q 121 306 119 305 L 116 309 L 117 316 L 120 314 L 121 315 L 150 303 L 149 299 L 142 298 L 140 297 L 144 293 L 143 292 L 144 284 L 150 284 L 153 286 L 152 289 L 153 291 L 155 290 Q 159 291 157 286 L 161 286 L 157 284 Q 156 279 159 279 L 158 278 Z M 166 279 L 165 283 L 166 283 L 166 279 Z M 101 281 L 102 283 Q 103 280 101 281 Z M 196 281 L 197 283 L 199 283 L 196 281 Z M 109 282 L 108 284 L 104 284 L 104 286 L 101 287 L 103 290 L 107 285 Q 113 286 113 284 L 112 284 L 109 282 Z M 226 282 L 225 286 L 226 286 L 226 282 Z M 90 283 Q 89 287 92 286 Q 93 282 90 283 Z M 86 284 L 85 287 L 86 287 L 86 284 Z M 87 284 L 87 287 L 89 286 Q 90 283 87 284 Z M 206 284 Q 203 292 206 296 L 211 299 L 213 299 Q 214 302 212 301 L 209 308 L 211 307 Q 213 308 212 305 Q 215 300 223 299 Q 226 300 225 305 L 219 308 L 222 312 L 223 310 L 228 306 Q 230 307 228 309 L 230 309 L 230 313 Q 226 311 227 317 Q 226 320 223 319 L 220 316 L 218 315 L 220 321 Q 223 325 230 325 L 230 320 Q 227 321 228 319 L 234 316 L 233 312 L 237 309 L 237 312 L 239 312 Q 238 314 241 313 L 241 318 L 235 321 L 237 325 L 239 324 L 242 319 L 241 309 L 239 307 L 237 304 L 235 305 L 229 304 L 230 302 L 240 302 Q 245 306 247 315 L 247 321 L 244 327 L 239 329 Q 238 332 241 331 L 242 334 L 239 335 L 240 339 L 237 338 L 235 339 Q 232 338 233 333 L 230 334 L 228 334 Q 227 336 230 335 L 234 341 L 237 340 L 239 340 L 240 345 L 243 340 Q 245 341 244 338 Q 246 334 251 334 L 253 334 Q 256 333 255 336 L 257 335 Q 264 334 268 337 L 273 346 L 273 353 L 270 359 L 262 365 L 258 364 L 256 365 L 254 365 Q 253 367 256 366 L 259 372 L 267 375 Q 270 377 270 382 L 282 386 Q 281 388 277 387 L 275 387 Q 276 389 273 388 L 272 385 Q 269 384 270 387 L 268 388 L 270 385 L 269 384 L 265 389 Q 266 391 268 389 L 269 392 L 266 395 L 258 395 L 257 396 L 253 394 Q 247 396 248 393 L 247 393 L 244 391 Q 237 388 238 377 L 237 381 L 235 382 L 232 382 L 227 379 L 219 396 L 219 397 L 222 396 Q 227 395 225 399 L 232 396 L 236 398 L 236 401 Q 231 404 230 410 L 226 413 L 227 418 L 229 420 L 228 423 L 233 425 L 238 422 L 241 422 Q 241 415 247 413 Q 246 410 249 411 L 252 407 L 254 407 L 259 404 L 258 401 L 257 401 L 257 400 Q 256 397 259 398 Q 261 399 259 401 L 261 403 Q 264 402 263 397 L 268 395 L 268 398 L 265 399 L 267 399 L 268 402 L 269 400 L 269 404 L 267 403 L 256 409 L 251 415 L 250 414 Q 247 415 249 417 L 248 416 L 244 422 L 246 426 L 244 424 L 242 428 L 243 440 L 246 440 L 244 433 L 245 427 L 246 430 L 246 427 L 248 428 L 248 437 L 250 436 L 249 434 L 250 431 Q 248 426 252 427 L 256 433 L 255 436 L 256 437 Q 255 445 257 450 L 258 450 L 257 445 L 258 432 Q 260 436 259 444 L 262 448 L 262 442 L 264 442 L 264 450 L 266 450 L 265 452 L 268 464 L 271 465 L 274 468 L 272 461 L 270 460 L 271 463 L 272 464 L 269 462 Q 270 457 267 456 L 267 448 L 266 447 Q 267 444 269 446 L 270 443 L 273 456 L 274 456 L 272 448 Q 273 441 271 442 L 272 440 L 274 444 L 275 456 L 277 458 L 278 456 L 279 459 Q 278 461 281 460 L 280 459 L 281 449 L 283 462 L 285 463 L 283 456 L 284 448 Q 286 450 285 456 L 288 457 L 289 458 L 287 449 L 285 447 L 286 443 L 284 443 L 286 437 L 283 437 L 285 434 L 287 438 L 286 441 L 287 444 L 286 446 L 287 447 L 290 445 L 291 445 Q 292 448 290 447 L 290 448 Q 294 447 293 450 L 297 449 L 292 446 L 294 445 L 295 442 L 296 445 L 294 446 L 297 446 L 296 441 L 297 438 L 298 442 L 298 444 L 301 445 Q 303 446 301 448 L 308 461 L 309 464 Q 312 463 312 457 L 313 460 L 314 457 L 316 461 L 317 456 L 317 458 L 318 458 L 317 453 Q 316 450 315 452 L 314 450 L 316 450 Q 317 445 315 444 L 315 437 L 317 436 L 317 435 L 314 433 Q 313 430 316 431 L 318 435 Q 317 439 320 441 L 320 440 L 322 441 Q 321 445 325 443 L 326 447 L 328 446 L 326 443 Q 327 440 325 441 L 322 438 L 323 435 L 327 437 Q 329 436 328 439 L 330 439 Q 329 441 332 440 Q 333 443 331 442 L 332 445 L 331 449 L 332 451 L 330 451 Q 329 455 332 457 L 332 459 L 330 457 L 329 457 Q 328 462 332 463 L 330 463 L 332 473 Q 333 475 330 474 L 327 457 L 326 457 L 329 475 L 331 477 L 330 479 L 332 482 L 332 484 L 329 490 L 331 495 L 329 494 Q 330 490 327 491 L 320 486 L 321 491 Q 327 492 331 498 Q 332 505 329 508 Q 327 513 331 512 L 330 514 L 331 516 L 330 520 Q 329 522 332 521 L 332 510 L 331 509 L 332 508 L 332 498 L 333 497 L 332 493 L 333 491 L 333 404 L 334 403 L 334 401 L 328 405 L 331 406 Q 332 408 330 407 L 328 410 L 325 409 L 324 411 L 329 412 L 331 409 L 332 413 L 332 422 L 331 423 L 332 427 L 330 428 Q 333 430 332 437 Q 329 438 328 435 Q 325 436 326 433 L 322 432 L 323 429 L 322 426 L 321 429 L 320 429 Q 318 424 322 425 L 321 424 L 322 421 L 327 425 L 324 420 L 323 420 L 322 418 L 326 419 L 324 417 Q 325 414 323 415 L 322 413 L 327 416 L 328 416 L 325 413 L 321 409 Q 323 407 321 406 L 320 408 L 319 408 L 320 405 L 320 402 Q 317 401 318 408 Q 316 410 311 409 L 311 407 L 310 411 Q 311 414 316 413 L 318 417 L 321 418 L 319 423 L 320 424 L 315 423 L 313 423 L 306 422 L 302 420 L 299 416 Q 298 409 301 406 L 300 406 L 299 404 L 298 408 L 295 410 Q 290 407 289 402 L 293 393 L 295 393 L 303 387 Q 304 383 302 382 L 295 382 L 294 380 Q 292 375 290 379 L 293 384 L 290 383 L 288 388 L 286 387 Q 284 389 283 387 L 285 381 Q 281 382 280 380 Q 278 373 282 374 L 282 372 L 277 365 Q 276 358 280 356 L 279 355 L 277 352 L 276 349 Q 278 350 277 348 Q 278 345 280 347 L 286 345 Q 289 346 288 350 L 290 349 Q 294 350 293 347 L 283 343 L 287 340 L 290 342 L 290 338 L 293 337 L 297 338 L 301 331 L 298 329 L 296 326 L 301 322 L 300 320 L 293 321 L 288 327 L 289 334 L 284 338 Q 276 339 274 335 L 272 332 L 265 328 Q 260 326 263 325 L 262 324 L 260 324 L 262 329 L 267 331 L 268 335 L 263 333 Q 257 329 254 321 L 254 316 L 258 313 L 259 321 L 260 313 L 258 306 L 257 294 L 255 292 Q 256 289 252 290 L 250 290 Q 245 287 238 288 L 237 296 L 235 298 Q 232 299 233 296 L 232 296 Q 233 298 231 297 L 231 298 Q 233 297 232 300 L 227 299 L 219 292 L 211 289 Q 212 286 208 287 L 206 284 Z M 284 284 L 283 288 L 285 287 L 284 284 Z M 123 286 L 122 287 L 115 287 Q 116 293 120 298 L 122 299 Q 123 295 125 298 L 127 298 L 123 296 L 122 293 L 123 287 L 125 287 L 123 286 Z M 168 286 L 166 288 L 167 291 L 169 292 Q 170 285 168 286 Z M 202 286 L 199 297 L 201 300 L 197 307 L 195 308 L 191 312 L 189 317 L 191 324 L 193 325 L 192 323 L 193 318 L 204 307 L 205 303 L 202 296 L 202 286 Z M 148 287 Q 145 292 149 291 L 148 287 Z M 93 288 L 93 293 L 96 291 L 96 289 L 93 290 L 93 288 Z M 98 288 L 97 291 L 99 292 L 98 288 Z M 289 288 L 288 290 L 291 291 L 289 288 Z M 304 288 L 304 295 L 305 295 L 304 288 Z M 74 289 L 72 291 L 73 293 L 74 291 L 74 289 Z M 79 289 L 77 291 L 78 292 L 80 291 L 79 289 Z M 88 290 L 87 294 L 88 294 L 88 290 Z M 125 290 L 125 293 L 128 295 L 127 292 Q 128 289 125 290 Z M 158 290 L 158 296 L 152 299 L 153 301 L 162 296 L 160 295 L 162 292 Q 164 291 163 295 L 166 293 L 158 290 Z M 298 290 L 299 294 L 301 294 L 300 292 L 298 290 Z M 76 291 L 74 294 L 76 293 L 76 291 Z M 111 291 L 116 301 L 116 304 L 117 304 L 117 299 L 113 293 Q 114 290 111 291 Z M 83 292 L 83 294 L 85 293 L 83 292 Z M 155 293 L 153 295 L 154 297 L 155 295 L 155 293 Z M 189 293 L 185 301 L 186 306 L 191 305 L 187 303 Q 186 300 189 301 L 188 300 L 189 298 L 189 293 Z M 308 293 L 309 299 Q 310 301 307 300 L 308 302 L 310 301 Q 312 295 308 293 Z M 81 294 L 80 301 L 82 308 L 82 299 L 82 297 L 81 294 Z M 85 294 L 83 297 L 85 297 L 85 294 Z M 91 294 L 90 298 L 91 298 L 91 294 Z M 230 294 L 228 296 L 230 297 L 230 294 Z M 303 294 L 301 297 L 303 298 L 303 294 Z M 79 295 L 77 297 L 78 301 L 79 297 L 79 295 Z M 86 295 L 87 302 Q 89 301 88 298 L 88 296 L 86 295 Z M 306 295 L 305 298 L 306 298 L 306 295 Z M 287 296 L 290 299 L 290 297 L 287 296 Z M 304 298 Q 301 303 305 302 L 304 298 Z M 83 299 L 83 302 L 83 304 L 84 309 L 85 309 L 85 300 L 83 299 Z M 99 299 L 99 303 Q 97 306 96 302 L 95 304 L 98 305 L 99 308 L 100 308 Q 98 302 102 303 L 101 302 Q 102 298 99 299 Z M 135 299 L 133 301 L 136 301 Q 137 298 135 299 Z M 109 300 L 108 304 L 110 304 L 109 300 Z M 124 300 L 125 302 Q 126 299 124 300 Z M 263 301 L 262 306 L 264 305 L 265 308 L 267 307 L 265 313 L 265 314 Q 267 315 266 313 L 271 309 L 263 301 Z M 88 302 L 86 304 Q 88 305 87 310 L 89 309 L 88 302 Z M 108 305 L 102 310 L 103 311 L 108 307 L 108 305 Z M 91 306 L 92 308 Q 93 305 91 306 Z M 98 308 L 96 311 L 99 309 L 98 308 Z M 205 309 L 200 314 L 202 320 L 198 328 L 195 329 L 193 329 L 194 331 L 191 340 Q 196 341 199 338 L 205 338 L 206 341 L 201 340 L 196 348 L 196 352 L 193 361 L 192 376 L 190 382 L 191 384 L 187 386 Q 182 388 183 395 L 181 396 L 179 394 L 178 394 L 178 399 L 181 399 Q 183 400 181 402 L 183 411 L 185 406 L 187 411 L 187 410 L 190 408 L 192 413 L 192 410 Q 196 408 195 412 L 197 411 Q 200 410 199 414 Q 197 417 196 413 L 195 416 Q 192 417 193 415 L 192 415 Q 193 418 189 416 L 189 413 L 188 417 Q 197 418 202 415 L 201 409 Q 205 407 204 411 L 206 410 L 210 412 L 211 412 L 205 406 L 202 397 L 199 393 Q 198 390 202 391 L 205 396 Q 207 404 211 409 L 214 410 L 217 408 L 221 410 L 224 408 L 227 409 L 230 404 Q 229 401 232 402 L 231 399 Q 227 403 220 403 L 221 401 Q 222 398 219 399 L 218 404 Q 216 407 215 403 L 214 405 Q 218 406 215 408 L 210 404 L 203 389 Q 201 385 197 385 L 198 387 Q 200 386 199 389 Q 196 390 195 387 L 193 388 L 190 387 Q 191 384 196 385 L 196 384 Q 191 385 192 382 L 203 384 L 207 388 L 208 387 L 211 388 L 212 388 L 207 384 L 208 382 L 212 384 L 213 384 L 207 380 Q 204 379 207 377 L 219 384 L 219 383 Q 216 378 210 377 L 208 374 L 214 375 L 223 381 L 223 379 L 210 372 Q 209 369 212 370 L 212 367 L 215 368 L 217 368 L 215 366 Q 212 367 213 364 L 217 364 L 216 363 L 214 360 L 219 362 L 219 360 L 216 359 Q 213 358 216 356 L 218 357 Q 217 348 211 344 L 212 342 L 207 335 L 204 336 Q 199 337 200 334 L 203 333 L 211 334 L 218 343 L 217 345 L 221 353 L 224 369 L 228 375 Q 227 377 230 376 Q 232 381 234 378 L 233 373 L 235 370 L 239 371 L 240 374 L 244 372 L 252 372 L 252 371 Q 247 372 248 369 L 252 368 L 248 366 L 249 363 L 246 360 L 242 357 L 240 349 L 238 348 L 237 351 L 234 352 L 245 367 Q 247 368 245 369 L 242 368 L 232 355 L 231 351 L 234 351 L 227 338 L 219 332 L 216 329 Q 217 326 214 327 L 213 324 L 212 326 Q 206 326 203 330 L 199 329 Q 203 323 212 324 L 208 317 L 209 315 Q 210 312 207 313 L 205 309 Z M 275 309 Q 274 312 277 311 Q 278 308 275 309 Z M 95 310 L 94 313 L 95 313 L 95 310 Z M 91 311 L 91 313 L 93 314 Q 94 310 91 311 Z M 269 311 L 269 313 L 271 312 L 269 311 Z M 77 313 L 75 316 L 77 316 L 77 313 Z M 273 314 L 271 317 L 273 316 L 273 314 Z M 306 314 L 305 315 L 296 315 L 285 320 L 283 323 L 285 322 L 286 324 L 286 322 L 296 318 Q 302 316 304 319 L 307 318 L 307 321 L 302 323 L 300 327 L 305 328 L 305 326 L 307 326 L 307 325 L 310 321 Q 307 322 308 319 L 313 323 L 309 325 L 310 326 Q 311 323 314 324 L 315 326 Q 318 325 317 321 L 319 320 L 318 322 L 319 324 Q 320 326 318 325 L 317 327 L 323 324 L 322 323 L 323 321 L 323 323 L 325 322 L 318 316 L 306 314 Z M 82 316 Q 79 322 83 321 L 82 316 Z M 74 318 L 72 323 L 74 322 L 74 318 Z M 9 320 L 8 324 L 9 324 L 9 320 Z M 78 320 L 80 331 L 80 323 L 80 321 L 78 320 Z M 196 320 L 196 325 Q 200 326 198 321 L 196 320 Z M 270 321 L 269 324 L 270 324 L 270 321 Z M 325 322 L 325 324 L 322 325 L 323 329 L 325 326 L 326 328 L 327 324 Q 328 321 325 322 Z M 282 323 L 273 327 L 275 328 Q 274 325 277 326 L 278 329 Q 283 330 284 328 L 283 325 L 282 327 L 281 327 L 282 325 L 282 323 Z M 77 324 L 76 329 L 77 329 L 77 324 Z M 328 324 L 328 326 Q 329 329 326 328 L 328 331 L 328 330 L 329 330 L 328 334 L 329 336 Q 331 335 330 332 L 331 332 L 330 338 L 326 339 Q 327 336 324 337 L 324 340 L 332 340 L 332 331 L 330 326 L 328 324 Z M 307 326 L 307 328 L 309 327 L 307 326 Z M 312 326 L 310 329 L 313 327 L 312 326 Z M 314 327 Q 312 330 315 329 L 314 327 Z M 320 328 Q 320 331 318 330 L 319 332 L 321 331 L 320 328 Z M 78 329 L 77 333 L 78 333 L 78 329 Z M 8 330 L 8 334 L 8 336 L 7 340 L 8 342 L 11 335 L 12 333 Q 9 332 10 335 L 9 335 L 10 332 Q 11 329 8 330 Z M 306 330 L 307 332 Q 308 329 306 330 Z M 312 330 L 310 331 L 306 336 L 312 332 L 312 330 Z M 81 331 L 80 334 L 81 334 L 81 331 Z M 305 331 L 303 334 L 304 335 Q 308 333 305 331 Z M 324 332 L 324 335 L 323 337 L 325 336 Q 327 337 326 334 L 324 332 Z M 315 333 L 316 335 L 317 335 L 315 333 Z M 303 335 L 301 340 L 304 338 L 303 335 Z M 24 336 L 22 339 Q 20 340 23 341 L 24 338 L 24 336 Z M 257 336 L 256 339 L 253 341 L 250 341 L 247 345 L 250 348 L 250 346 L 255 343 L 257 347 Q 258 352 254 352 L 249 350 L 248 354 L 256 359 L 258 358 L 256 354 L 259 352 L 260 350 L 259 348 L 262 344 L 266 345 L 265 353 L 263 352 Q 260 351 261 354 L 267 355 L 269 351 Q 270 345 267 343 Q 264 337 257 336 Z M 309 337 L 307 338 Q 303 340 304 346 L 299 349 L 302 354 Q 301 356 304 355 L 305 359 Q 307 366 304 370 L 299 375 L 295 376 L 296 378 L 298 379 L 305 380 L 310 389 L 314 388 L 315 386 L 311 384 L 313 379 L 312 376 L 307 373 L 311 370 L 315 370 L 323 376 L 326 376 L 329 371 L 323 369 L 321 367 L 311 360 L 316 357 L 313 355 L 311 353 L 314 351 L 314 350 L 309 351 Q 306 350 307 346 L 311 345 Q 312 342 310 343 Q 306 341 311 339 Q 312 336 309 337 Z M 16 339 L 13 343 L 15 343 Q 16 345 17 343 L 16 339 Z M 62 339 L 61 343 L 62 343 L 62 339 Z M 75 339 L 76 341 Q 77 338 75 339 Z M 299 339 L 299 343 L 296 344 Q 294 342 293 345 L 300 347 L 301 341 L 299 339 Z M 13 340 Q 8 342 11 344 L 8 350 L 10 351 Q 5 353 7 363 L 9 362 L 8 357 L 10 357 L 13 353 Q 16 354 15 351 L 11 351 L 13 350 L 11 349 Q 10 346 13 347 L 13 344 L 13 342 L 13 340 Z M 19 340 L 18 343 L 19 345 L 21 342 Q 22 339 19 340 Z M 35 340 L 35 343 L 49 352 L 55 352 L 54 350 L 52 348 L 48 343 Q 45 344 46 341 L 37 341 L 35 340 Z M 295 340 L 296 342 L 298 341 L 295 340 Z M 319 342 L 320 345 L 326 344 L 326 342 L 319 342 Z M 332 342 Q 329 346 323 347 L 326 348 L 327 349 L 331 346 L 331 351 L 328 350 L 329 361 L 332 363 L 330 360 L 332 359 L 332 342 Z M 64 344 L 63 348 L 64 348 L 64 344 Z M 16 345 L 14 347 Q 13 349 16 348 L 16 345 Z M 30 346 L 29 348 L 26 350 L 28 350 L 29 353 L 30 349 L 30 346 Z M 320 347 Q 318 350 321 349 L 320 347 Z M 298 352 L 296 355 Q 295 357 290 356 L 293 361 L 291 364 L 293 365 L 289 366 L 289 368 L 284 365 L 287 370 L 293 370 L 292 368 L 297 364 L 299 364 L 298 367 L 299 368 L 301 365 Q 302 355 298 352 Z M 315 352 L 315 354 L 321 356 Q 323 357 322 354 L 315 352 Z M 16 353 Q 16 357 18 354 L 16 353 Z M 25 353 L 23 357 L 25 358 L 25 353 Z M 327 354 L 324 356 Q 326 359 327 356 L 327 354 Z M 323 356 L 321 360 L 323 361 L 322 359 L 324 359 Q 326 360 325 357 L 323 356 Z M 13 357 Q 10 359 13 360 L 15 359 L 13 357 Z M 47 357 L 44 361 L 45 362 L 47 359 L 47 357 Z M 59 358 L 58 362 L 60 361 L 59 358 Z M 286 358 L 285 360 L 287 359 L 286 358 Z M 321 360 Q 319 363 322 362 L 321 360 Z M 326 360 L 324 362 L 326 362 L 326 360 Z M 329 361 L 326 364 L 327 366 Q 326 368 329 367 L 328 365 L 329 363 L 329 361 Z M 17 362 Q 12 367 12 375 L 18 376 L 19 371 L 19 369 L 20 373 Q 27 373 29 378 L 28 384 L 30 383 L 33 384 Q 34 382 35 385 L 33 405 L 32 406 L 33 411 L 31 417 L 26 421 L 19 418 L 8 409 Q 5 408 6 411 L 6 413 L 7 415 L 7 496 L 8 496 L 10 493 L 23 480 L 25 480 L 28 485 L 39 492 L 60 469 L 64 471 L 71 481 L 79 487 L 83 492 L 94 485 L 99 486 L 101 490 Q 100 492 103 491 L 106 496 L 109 496 L 126 508 Q 130 509 132 507 L 139 509 L 148 509 L 149 508 L 151 509 L 153 509 L 155 508 L 166 510 L 165 513 L 162 511 Q 155 513 154 510 L 152 511 Q 138 513 131 509 L 128 510 L 128 512 L 123 510 L 100 493 Q 97 494 98 492 L 94 487 L 92 489 L 95 491 L 91 497 L 88 496 L 90 491 L 87 493 Q 84 492 85 495 L 97 506 L 98 506 L 99 509 L 98 511 L 94 508 L 87 501 L 80 494 L 77 491 L 70 485 Q 71 482 68 483 L 62 474 Q 59 473 60 476 Q 58 479 54 479 L 44 490 L 42 495 L 55 505 L 62 508 L 70 505 L 72 505 L 89 512 L 94 512 L 94 515 L 93 516 L 83 516 L 82 517 L 80 516 Q 78 519 72 517 L 68 521 L 54 521 L 52 521 L 38 515 Q 32 517 31 514 Q 27 515 29 511 L 39 512 L 52 518 L 54 517 L 60 519 L 67 518 L 62 516 L 54 516 L 54 513 L 66 513 L 67 514 L 84 514 Q 76 512 71 508 L 65 511 L 63 511 L 58 510 L 48 505 L 28 488 L 25 485 L 23 483 L 14 494 L 12 495 L 10 498 L 7 500 L 7 511 L 15 511 L 17 511 L 20 512 Q 22 513 22 517 Q 19 520 13 520 L 19 521 Q 23 520 22 523 L 28 524 L 26 527 L 32 530 L 31 533 L 28 534 Q 18 535 14 533 L 14 545 L 13 546 L 10 546 L 10 533 L 7 535 Q 10 536 8 542 L 8 546 Q 6 552 13 550 L 15 550 L 39 550 L 40 549 L 45 550 L 47 550 L 62 550 L 63 549 L 65 550 L 80 550 L 81 549 Q 89 548 94 550 L 97 549 L 110 549 L 111 550 L 125 550 L 126 549 Q 132 548 134 551 L 144 551 L 145 550 Q 150 549 152 551 L 154 550 L 228 550 L 229 549 L 231 550 L 245 550 L 253 539 L 257 536 L 258 534 Q 262 526 271 525 L 275 519 Q 281 512 291 511 L 291 509 L 285 511 Q 277 513 274 510 L 272 510 L 270 511 L 257 508 L 255 508 L 245 510 L 241 510 L 239 509 L 235 510 Q 227 511 225 508 L 221 509 L 209 509 L 208 508 Q 204 507 206 511 Q 203 510 202 513 L 198 511 L 196 511 L 194 510 L 189 512 L 184 511 L 183 514 Q 180 513 181 516 L 199 516 L 201 514 L 212 512 L 213 513 L 235 513 L 237 513 L 239 512 L 252 512 L 252 514 L 241 514 L 240 515 L 216 515 L 215 516 L 210 515 L 208 515 L 203 518 L 195 518 L 194 519 Q 187 521 186 518 L 145 518 L 144 519 L 129 516 L 126 518 L 124 516 L 119 515 L 98 515 L 97 514 Q 94 515 95 512 Q 103 514 116 513 L 123 515 L 138 514 L 142 516 Q 147 518 149 515 Q 155 513 157 516 L 159 515 L 173 515 L 172 514 L 170 512 L 163 505 L 153 501 L 154 499 L 157 501 L 172 505 L 173 499 L 179 484 L 179 480 L 183 477 L 180 486 L 184 491 L 186 492 L 185 487 L 182 484 L 185 482 Q 189 483 189 489 L 192 480 L 189 480 L 190 482 L 188 483 L 184 478 L 187 478 L 186 475 L 192 476 L 193 478 L 193 477 L 194 475 Q 190 476 191 473 L 188 473 L 188 471 L 192 471 L 190 467 L 196 470 L 193 472 L 195 474 L 200 463 L 196 462 L 194 459 L 200 460 L 201 463 L 202 459 L 198 457 L 197 455 Q 202 454 203 457 L 204 454 Q 199 455 197 452 L 202 448 L 199 446 Q 198 442 204 444 L 205 442 L 199 443 L 201 440 Q 200 436 206 438 L 205 436 L 197 439 L 195 439 L 203 435 L 204 433 L 200 434 Q 197 435 198 432 L 208 429 L 210 426 L 199 430 Q 195 431 196 428 L 206 426 L 203 425 L 203 423 L 194 426 L 186 426 L 188 424 L 197 424 L 200 422 L 211 420 L 212 419 L 208 416 L 196 419 L 191 419 L 187 419 L 185 420 L 185 426 L 184 426 L 181 422 L 185 419 L 181 417 L 180 427 L 175 443 L 175 449 L 172 456 L 176 462 L 178 448 L 181 440 L 182 430 Q 185 425 187 430 L 180 456 L 180 458 L 178 464 L 178 470 L 181 471 L 182 475 L 177 476 Q 178 483 174 488 L 174 495 Q 171 496 172 501 L 170 503 Q 167 504 168 502 L 167 500 L 158 498 L 155 494 L 153 498 Q 150 497 152 496 L 152 493 L 149 488 Q 141 486 136 480 L 132 480 L 131 477 L 134 474 L 140 473 L 145 472 L 153 473 L 155 473 L 159 474 L 158 472 L 161 463 L 167 462 Q 168 452 172 444 L 174 429 Q 156 427 143 421 L 132 415 L 115 402 L 110 402 L 104 405 L 98 405 L 96 405 Q 94 401 88 402 L 85 399 L 81 396 L 77 389 L 75 390 Q 71 389 72 392 L 62 398 L 56 397 L 44 391 L 17 362 Z M 284 362 L 283 365 L 284 365 L 284 362 Z M 42 363 L 41 366 L 42 366 L 42 363 Z M 45 364 L 44 372 L 46 378 L 46 371 L 46 369 Q 47 365 45 364 Z M 53 364 L 51 367 L 53 366 L 53 364 Z M 40 365 L 39 368 L 40 368 L 40 365 Z M 325 365 L 325 367 Q 324 369 327 368 L 326 367 Q 327 364 325 365 Z M 56 366 L 54 368 Q 57 369 55 375 L 56 375 L 56 366 Z M 331 366 L 331 368 L 331 370 L 333 371 Q 335 365 331 366 Z M 34 367 L 32 370 L 34 370 L 34 367 Z M 76 368 L 73 372 L 76 370 L 76 368 Z M 218 368 L 219 370 Q 220 367 218 368 Z M 43 370 L 41 372 L 42 374 L 43 374 L 43 370 Z M 213 370 L 215 372 L 217 372 L 213 370 Z M 37 371 L 36 374 L 37 374 L 37 371 Z M 67 372 L 66 375 L 67 375 L 67 372 Z M 311 372 L 311 374 L 313 375 Q 314 371 311 372 Z M 333 373 L 330 374 L 327 380 L 330 379 Q 332 378 331 381 L 333 382 L 333 373 Z M 41 374 L 39 379 L 41 380 L 41 374 Z M 261 375 L 259 377 L 260 380 L 266 380 L 266 379 L 261 375 Z M 83 376 L 82 381 L 83 381 L 83 376 Z M 21 377 L 19 379 Q 18 381 21 380 L 22 378 L 24 381 L 25 379 Q 24 376 21 377 Z M 244 377 L 241 380 L 242 383 L 244 379 L 244 377 Z M 249 377 L 247 379 L 248 385 L 249 386 L 246 385 L 243 387 L 248 390 L 253 389 L 255 385 L 250 382 Q 252 376 249 377 Z M 321 378 L 322 382 L 326 380 Q 327 377 324 378 L 324 380 L 321 378 Z M 288 379 L 289 381 L 290 381 L 288 379 Z M 316 379 L 315 381 Q 313 382 316 383 L 317 383 L 316 379 Z M 18 380 L 17 382 L 19 381 L 18 380 Z M 52 380 L 51 384 L 52 384 L 52 380 Z M 91 380 L 90 384 L 91 384 L 91 380 Z M 21 381 L 21 391 L 23 382 L 21 381 Z M 257 381 L 255 384 L 257 383 L 261 385 Q 264 386 265 384 L 264 382 L 257 381 Z M 87 382 L 86 385 L 87 385 L 87 382 Z M 327 382 L 324 384 L 321 383 L 319 384 L 325 388 L 326 386 Q 325 383 328 384 Q 329 381 327 382 Z M 98 383 L 97 386 L 98 386 L 98 383 Z M 16 384 L 15 391 L 15 393 L 13 400 L 15 400 Q 14 403 18 402 Q 16 400 19 399 L 17 394 Q 16 389 19 390 L 18 388 Q 19 383 16 384 Z M 219 384 Q 218 387 221 386 Q 222 383 219 384 Z M 52 385 L 53 387 Q 54 384 52 385 Z M 92 385 L 91 390 L 92 390 L 92 385 Z M 331 385 Q 332 389 330 388 L 328 388 L 325 389 L 326 392 L 332 389 L 332 391 L 333 391 Q 335 384 331 385 Z M 66 386 L 61 393 L 63 393 L 66 389 L 66 386 Z M 87 386 L 87 389 L 88 389 Q 89 385 87 386 Z M 103 386 L 102 389 L 103 389 L 103 386 Z M 95 387 L 94 391 L 96 392 L 95 387 Z M 99 387 L 98 390 L 99 390 L 99 387 Z M 8 388 L 7 398 L 6 399 L 7 404 L 9 405 L 8 400 L 10 397 Q 8 390 11 389 L 10 388 L 8 388 Z M 59 388 L 58 391 L 59 391 L 59 388 Z M 62 388 Q 60 391 63 390 L 62 388 Z M 213 388 L 214 390 L 215 390 L 213 388 Z M 256 388 L 254 392 L 261 393 L 263 392 Q 262 387 256 388 Z M 209 389 L 208 391 L 215 395 L 215 393 L 209 389 Z M 318 389 L 318 391 L 321 391 L 318 389 Z M 29 390 L 26 394 Q 25 398 28 397 L 27 400 L 28 402 L 27 401 L 25 406 L 27 411 L 29 403 L 29 390 Z M 93 390 L 92 393 L 93 393 L 93 390 Z M 20 391 L 20 397 L 20 394 Q 22 392 20 391 Z M 303 391 L 303 393 Q 301 394 304 395 L 305 392 L 303 391 Z M 329 392 L 323 394 L 324 399 L 324 400 Q 329 402 328 399 L 331 397 Q 332 393 329 392 Z M 89 395 L 88 398 L 89 398 L 89 395 Z M 107 395 L 106 398 L 107 398 L 107 395 Z M 295 395 L 293 399 Q 291 404 295 406 L 295 403 L 300 398 L 302 398 L 303 396 L 302 396 L 295 395 Z M 99 396 L 98 399 L 99 399 L 99 396 Z M 212 396 Q 210 398 213 400 L 212 402 L 214 403 Q 215 397 212 396 Z M 310 396 Q 307 397 308 401 L 310 402 L 310 396 Z M 315 396 Q 311 398 315 400 L 314 402 L 317 400 L 316 398 Q 317 395 315 396 Z M 94 397 L 92 399 Q 91 401 94 400 L 94 397 Z M 106 398 L 104 401 L 107 401 L 108 399 L 106 398 Z M 20 400 L 18 403 L 20 403 L 20 400 Z M 300 400 L 298 402 L 300 402 L 300 400 Z M 321 403 L 322 404 L 326 409 L 328 408 L 324 406 L 325 404 L 321 403 Z M 306 404 L 302 410 Q 302 417 307 420 L 315 420 L 315 418 Q 313 414 309 414 L 306 411 L 307 407 L 306 404 Z M 217 410 L 214 415 Q 213 418 216 417 L 217 413 L 217 410 Z M 31 411 L 29 413 Q 30 415 27 414 L 28 416 L 30 415 L 31 413 L 31 411 Z M 22 412 L 21 414 L 24 415 L 22 412 Z M 221 412 L 221 414 L 220 416 L 221 422 L 224 415 L 221 412 Z M 331 418 L 329 420 L 331 420 L 331 418 Z M 226 419 L 224 423 L 226 422 L 226 419 Z M 213 420 Q 215 424 214 432 L 221 435 L 225 433 Q 227 429 222 430 L 224 427 L 226 428 Q 229 429 228 426 L 222 425 L 221 429 L 217 427 L 217 420 L 213 420 Z M 238 427 L 235 429 L 233 428 L 231 429 Q 228 430 229 434 L 221 437 L 214 434 L 211 439 L 209 454 L 196 478 L 190 496 L 191 504 Q 189 505 192 506 L 200 503 Q 202 502 201 505 L 195 507 L 189 507 L 187 507 L 188 509 L 198 509 L 199 508 L 202 511 L 204 507 L 207 506 L 212 507 Q 219 508 222 504 L 224 504 L 229 506 L 264 506 L 265 507 L 282 508 L 284 508 L 294 506 Q 299 505 301 507 L 321 501 Q 323 502 322 498 L 320 495 L 302 492 L 289 488 L 279 481 L 277 481 L 270 475 L 268 475 L 262 470 Q 263 467 261 468 Q 245 457 239 438 L 239 428 L 238 427 Z M 253 430 L 251 432 L 252 433 L 254 432 Q 255 429 253 430 Z M 251 434 L 252 441 L 252 443 L 253 448 L 254 448 Q 256 441 253 440 L 254 438 L 254 436 L 251 434 Z M 325 438 L 326 440 Q 327 437 325 438 Z M 318 442 L 317 446 L 318 446 L 318 442 Z M 321 442 L 320 445 L 321 445 L 321 442 Z M 247 444 L 246 447 L 247 447 L 247 444 Z M 206 445 L 207 447 Q 208 444 206 445 Z M 324 445 L 323 448 L 325 448 L 324 445 Z M 319 446 L 318 449 L 319 449 L 319 446 Z M 248 447 L 248 450 L 250 449 L 248 447 Z M 268 447 L 270 458 L 272 459 L 270 453 Q 272 446 268 447 Z M 322 447 Q 319 453 323 452 L 322 447 Z M 263 448 Q 261 456 264 461 L 265 461 L 263 448 Z M 328 449 L 327 452 L 328 452 L 328 449 Z M 203 450 L 204 452 L 206 451 L 203 450 Z M 250 450 L 249 452 L 253 455 L 255 454 L 255 455 Q 252 454 253 457 L 257 459 L 262 465 L 264 465 Q 259 460 259 450 L 258 457 L 256 454 L 252 450 L 250 450 Z M 291 450 L 290 453 Q 289 457 292 458 L 291 460 L 291 462 L 295 477 L 296 477 L 295 470 L 295 468 Q 296 465 294 466 L 294 465 L 293 462 L 293 451 L 291 450 Z M 299 450 Q 298 459 301 464 L 302 457 L 305 464 L 304 467 L 306 476 L 308 477 L 308 474 L 308 472 L 305 459 L 301 453 Q 302 449 299 450 Z M 296 451 L 294 453 L 296 453 L 296 451 Z M 325 451 L 325 455 L 326 455 L 325 451 Z M 295 454 L 297 462 Q 299 461 297 460 Q 299 453 295 454 Z M 321 457 L 320 460 L 322 461 L 321 457 Z M 277 459 L 276 461 L 278 462 L 277 459 Z M 287 459 L 287 461 Q 289 464 290 461 L 287 459 Z M 314 460 Q 314 463 311 462 L 311 464 L 309 464 L 311 474 Q 313 473 311 472 L 314 470 L 313 476 Q 316 477 314 479 L 316 485 L 315 489 L 319 490 L 320 491 L 317 483 L 316 474 L 316 472 L 315 468 L 315 466 L 314 460 Z M 171 461 L 170 465 L 169 465 L 166 464 L 164 466 Q 170 466 172 471 Q 171 473 174 472 L 176 474 L 175 471 L 173 469 L 171 468 L 171 461 Z M 325 461 L 324 464 L 325 464 L 325 461 Z M 266 462 L 265 465 L 267 465 L 266 462 Z M 278 462 L 278 467 L 280 467 L 279 465 L 280 463 L 278 462 Z M 317 462 L 317 472 L 319 473 L 317 462 Z M 289 463 L 288 465 L 291 466 L 291 464 L 289 463 Z M 298 463 L 298 470 L 299 470 Q 300 464 298 463 Z M 285 464 L 285 470 L 287 471 L 285 464 Z M 301 465 L 301 467 L 302 478 L 303 478 L 303 469 L 302 468 L 303 466 L 301 465 Z M 324 465 L 324 467 L 326 468 Q 327 464 324 465 Z M 162 466 L 162 468 L 164 467 L 162 466 Z M 268 466 L 266 467 L 268 470 L 269 470 L 268 466 Z M 272 467 L 271 470 Q 268 469 269 472 L 283 479 L 286 482 Q 292 483 296 486 Q 301 485 303 487 L 304 487 L 303 485 L 305 485 L 305 484 L 305 482 L 304 478 L 303 482 L 299 473 Q 300 470 297 471 L 300 480 L 300 484 L 301 485 L 298 479 L 296 478 Q 297 480 295 479 Q 293 476 292 480 L 290 478 L 288 479 Q 285 474 277 474 L 276 472 Q 277 469 274 470 L 272 467 Z M 283 467 L 282 469 L 284 470 L 283 467 Z M 289 467 L 290 474 L 292 473 L 291 469 L 289 467 Z M 281 469 L 280 471 L 282 472 L 281 469 Z M 321 469 L 320 473 L 322 473 L 321 469 Z M 326 469 L 326 476 L 328 477 L 326 469 Z M 166 470 L 165 474 Q 162 473 163 476 Q 165 480 172 479 L 173 477 L 170 474 L 168 471 L 166 470 Z M 289 474 Q 287 477 290 476 L 289 474 Z M 319 474 Q 316 480 320 479 L 319 474 Z M 322 474 L 321 477 L 322 477 L 322 474 Z M 141 475 L 140 476 Q 133 474 134 478 L 141 479 L 143 478 L 145 479 L 144 477 Q 145 474 141 475 Z M 147 475 L 148 478 Q 146 482 150 481 L 151 478 Q 151 475 147 475 Z M 311 475 L 312 481 L 312 485 L 310 483 L 306 480 L 307 484 L 306 488 L 309 488 L 311 488 L 314 489 L 312 487 L 314 486 L 313 480 L 311 475 Z M 157 476 L 158 478 L 160 478 L 157 476 Z M 153 477 L 152 482 L 157 485 L 157 480 L 153 477 Z M 320 480 L 319 483 L 321 484 L 320 480 Z M 329 480 L 328 483 L 329 483 L 329 480 Z M 165 481 L 167 487 L 166 493 L 168 492 L 168 484 L 167 483 Q 168 480 165 481 Z M 171 482 Q 170 485 173 484 Q 174 481 171 482 Z M 322 483 Q 321 486 324 485 Q 325 482 322 483 Z M 326 483 L 326 489 L 329 489 L 326 483 Z M 180 490 L 178 492 Q 177 494 181 493 L 180 490 Z M 171 492 L 169 494 L 170 497 L 171 494 L 171 492 Z M 187 494 L 186 497 L 187 497 L 187 494 Z M 177 497 L 175 501 L 175 504 L 182 510 L 185 505 L 181 504 L 177 497 Z M 187 499 L 186 502 L 187 502 L 187 499 Z M 323 504 L 309 509 L 309 511 L 308 509 L 305 511 L 301 511 L 295 513 L 294 516 L 293 514 L 288 515 L 288 518 L 284 517 L 273 529 L 273 533 L 271 534 L 271 533 Q 273 534 272 532 L 272 530 L 271 529 L 268 534 L 267 532 Q 264 531 265 534 L 264 536 Q 266 535 265 538 L 273 537 L 274 533 L 281 532 L 279 528 L 279 526 L 281 529 L 283 528 L 285 530 L 284 527 L 287 525 L 289 527 L 288 524 L 291 522 L 292 523 Q 291 520 294 521 L 295 521 Q 293 525 297 524 L 300 529 L 302 529 L 301 527 L 301 525 Q 304 524 302 528 Q 305 529 307 526 Q 310 527 309 525 L 308 525 L 306 522 L 310 524 L 315 521 Q 322 516 324 506 Q 325 503 323 504 Z M 328 512 L 326 516 L 328 517 L 328 512 Z M 7 514 L 8 520 L 8 518 L 12 516 L 7 514 Z M 14 515 L 15 516 Q 16 518 17 516 L 14 515 Z M 325 516 L 323 518 L 324 520 L 325 518 L 325 516 Z M 327 517 L 326 520 L 327 520 L 327 517 Z M 327 522 Q 324 526 328 525 L 327 522 Z M 320 524 L 319 527 L 320 527 L 320 524 Z M 315 527 Q 313 531 315 533 L 314 536 L 316 537 L 316 529 L 315 527 Z M 326 527 L 324 529 L 326 529 L 326 527 Z M 323 528 L 322 533 L 325 535 L 323 528 Z M 18 529 L 14 531 L 20 532 L 28 532 Q 31 531 28 529 Q 21 527 20 530 L 18 529 Z M 295 529 L 290 531 L 290 532 L 296 532 L 295 529 Z M 313 531 L 312 541 L 314 541 L 313 531 Z M 333 531 L 328 539 L 332 539 L 333 534 L 333 531 Z M 297 532 L 295 534 L 288 535 L 292 535 Q 293 538 290 537 L 291 539 L 300 533 L 299 532 L 297 532 Z M 310 532 L 309 533 Q 305 532 307 538 L 308 538 Q 307 533 310 534 L 310 532 Z M 305 535 L 300 538 L 299 541 L 297 540 Q 294 541 296 543 L 296 544 L 295 542 L 291 544 L 293 544 L 294 544 L 292 547 L 291 544 L 289 547 L 290 549 L 306 549 L 305 548 L 306 545 L 305 544 L 305 535 Z M 261 537 L 260 541 L 254 546 L 256 546 L 259 548 L 258 548 L 255 549 L 254 546 L 253 549 L 253 550 L 266 550 L 267 549 L 269 550 L 276 550 L 276 548 L 281 549 L 283 546 L 281 547 L 278 546 L 276 546 L 274 547 Q 272 549 271 547 L 273 547 L 273 545 L 273 543 Q 275 544 274 541 L 272 542 L 267 541 L 265 544 L 266 546 L 264 547 L 262 548 L 264 545 Q 265 542 262 543 L 262 545 L 260 543 L 262 543 Q 261 538 264 539 Q 265 536 261 537 Z M 289 537 L 287 539 L 288 542 L 289 539 L 289 537 Z M 322 537 L 320 540 L 322 539 L 322 537 Z M 308 540 L 308 549 L 309 545 L 308 540 Z M 327 540 Q 324 542 327 543 Q 330 544 329 541 L 327 540 Z M 331 541 L 329 546 L 329 547 L 331 546 L 331 548 L 332 548 Q 333 542 331 541 Z M 278 543 L 278 544 L 281 544 L 278 543 Z M 324 545 L 322 548 Q 327 549 328 546 L 324 545 Z M 313 552 L 312 553 L 287 553 L 286 554 L 278 554 L 277 553 Q 275 555 271 554 L 269 554 L 267 553 L 264 554 L 205 554 L 204 555 L 200 554 L 198 554 L 193 555 L 190 554 L 161 554 L 160 555 L 158 554 L 157 555 L 137 555 Q 135 558 130 556 L 128 556 L 118 556 L 117 555 L 113 556 L 112 555 L 95 555 L 90 554 L 88 554 L 62 554 L 61 555 L 59 554 L 34 554 L 33 555 Q 29 553 22 554 L 20 554 L 8 555 L 8 570 L 9 571 L 8 594 L 16 594 L 17 593 L 20 594 L 51 593 L 53 593 L 56 592 L 88 592 L 92 592 L 96 590 L 101 591 L 136 591 L 137 592 L 146 592 L 147 591 L 154 591 L 154 589 L 158 587 L 157 580 L 153 573 L 154 569 L 160 568 Q 162 573 157 571 Q 156 575 160 576 L 160 574 L 163 573 L 166 578 L 162 579 L 163 584 L 162 587 L 160 588 L 158 591 L 178 591 L 179 590 L 192 590 L 193 591 L 229 590 L 231 590 L 237 591 L 239 591 L 244 590 L 262 591 L 264 591 L 268 590 L 270 591 L 273 590 L 276 591 L 278 590 L 280 590 L 289 590 L 290 591 L 294 590 L 297 591 L 304 590 L 306 590 L 307 591 L 322 591 L 323 592 Q 324 590 330 591 L 331 590 L 331 577 L 331 575 L 332 573 L 332 552 L 325 552 L 324 553 L 313 552 Z "></path><path d="M 214.5 132 L 218.5 133 L 221 135.5 L 220.5 138 L 216.5 135 L 213.5 135 L 212.5 137 L 216.5 137 L 221 140.5 Q 221.8 142.8 219.5 142 L 218.5 143 L 212 143 L 210.5 138 L 209.5 140 L 208 134.5 L 210.5 134 L 214.5 132 Z M 217 138 L 215 140 Q 214 142 217 141 L 217 138 Z "></path><path d="M 208 150 L 212 150.5 L 208 152 L 208 150 Z "></path><path d="M 231.5 157 L 232 159 L 230 158.5 L 231.5 157 Z "></path><path d="M 136.5 221 L 135.5 223 L 136.5 221 Z "></path><path d="M 152.5 282 Q 156.7 280.9 155 285 L 151 283.5 L 152.5 282 Z "></path><path d="M 139.5 286 Q 143.7 284.9 142 289 L 138 289 L 138 287.5 L 139.5 286 Z "></path><path d="M 134.5 287 L 137 288.5 Q 138.3 292.3 134.5 291 L 133 288.5 L 134.5 287 Z "></path><path d="M 117 289 L 121 289 L 121 290.5 L 118.5 292 L 117 289 Z "></path><path d="M 174.5 294 L 175.5 296 L 174.5 294 Z "></path><path d="M 140 301 Q 144.5 299.5 143 304 Q 138.5 305.5 140 301 Z "></path><path d="M 119.5 308 Q 124.3 306.3 123 310.5 L 120.5 312 Q 116 310 119.5 308 Z "></path><path d="M 38.5 315 L 39.5 317 L 38.5 315 Z "></path><path d="M 102.5 315 L 103.5 317 L 102.5 315 Z "></path><path d="M 42.5 316 L 45 317 L 46 321.5 Q 43.8 322.8 46.5 324 Q 49.1 323.3 48 326 L 50.5 326 L 52 329 L 55 329.5 L 53 330 Q 54.3 333 50.5 332 L 48.5 332 L 45.5 332 L 41 329.5 L 43.5 329 L 49.5 332 Q 52.8 330.3 49 328.5 L 45.5 324 L 43 322.5 L 44 318.5 L 42.5 316 Z "></path><path d="M 30.5 318 L 31 319.5 L 27 322.5 L 28 320 Q 30.8 321 30.5 318 Z "></path><path d="M 40.5 318 L 41 321 Q 38.3 322.1 39 319.5 L 40.5 318 Z "></path><path d="M 107.5 318 L 108 321 L 106 320.5 L 107.5 318 Z "></path><path d="M 93.5 319 L 93 320.5 L 92.5 322 L 92 320.5 L 93.5 319 Z "></path><path d="M 313.5 319 L 316 320 L 315.5 323 Q 311.9 321.9 313.5 319 Z "></path><path d="M 50 320 L 52 320 L 52 322 Q 54.7 320.9 54 323.5 L 55 326.5 L 52 324.5 Q 54.3 323.3 51.5 322 Q 48.9 322.7 50 320 Z "></path><path d="M 47 321 Q 50 320 49 323 Q 46 324 47 321 Z "></path><path d="M 30 322 Q 33 321 32 324 Q 29 325 30 322 Z "></path><path d="M 35.5 322 L 38 323.5 L 36.5 324 L 34 323.5 L 35.5 322 Z "></path><path d="M 41.5 322 L 40.5 324 L 41.5 322 Z "></path><path d="M 247 323 Q 251.7 322 253 325.5 L 255 328.5 L 257 333 L 253 333 L 253 331.5 L 247 323 Z "></path><path d="M 56.5 324 L 57 326.5 L 56 326.5 L 56.5 324 Z "></path><path d="M 37.5 325 L 40.5 327 L 42 326.5 L 38.5 331 L 38 328 Q 33.9 329.3 35 326 L 37.5 325 Z "></path><path d="M 60.5 326 L 62.5 329 L 60.5 330 L 58.5 327 L 61 328.5 L 60.5 326 Z "></path><path d="M 46.5 327 L 47 329 L 45 328.5 L 46.5 327 Z "></path><path d="M 56.5 329 L 59 332.5 L 57 331.5 L 56.5 329 Z "></path><path d="M 103.5 330 Q 107.9 328.5 107 331.5 L 105.5 331 Q 102.5 331.5 103.5 330 Z "></path><path d="M 42.5 332 L 43 334 L 40.5 335 L 42.5 332 Z "></path><path d="M 67.5 332 L 70 338 L 68 337.5 Q 70.3 336.2 67.5 335 L 66 335.5 L 67.5 332 Z "></path><path d="M 110.5 332 L 113 335.5 Q 111.5 338.5 110 335.5 L 110.5 332 Z "></path><path d="M 115 333 L 117 333.5 L 115.5 336 L 115 333 Z "></path><path d="M 88.5 336 Q 91.1 335.2 90 338.5 L 89 338.5 L 88.5 336 Z "></path><path d="M 105.5 337 L 107 339.5 L 106 339.5 L 105.5 337 Z "></path><path d="M 71.5 342 L 73 344.5 L 71 343.5 L 71.5 342 Z "></path><path d="M 95.5 343 L 98 344.5 L 96.5 344 L 95.5 343 Z "></path><path d="M 72.5 347 Q 74.8 346.3 74 348.5 L 72.5 347 Z "></path><path d="M 70.5 348 L 74 352.5 L 71 353 L 70.5 348 Z "></path><path d="M 330.5 352 L 331 355.5 L 330 355.5 L 330.5 352 Z "></path><path d="M 85.5 357 L 86 360 L 84 359.5 L 85.5 357 Z "></path><path d="M 101.5 358 L 102 360 L 100 359.5 L 101.5 358 Z "></path><path d="M 88.5 359 L 89 361 Q 91.7 359.9 91 362.5 L 93 366 L 91 366 L 91 363 Q 88.3 364.1 89 361.5 L 88.5 359 Z "></path><path d="M 94 366 L 97 367.5 L 94 367.5 L 94 366 Z "></path><path d="M 109.5 369 L 110 371.5 L 109 371.5 L 109.5 369 Z "></path><path d="M 274.5 391 L 275 393 L 271 394 L 270.5 396 L 269 393 L 274.5 391 Z "></path><path d="M 279.5 391 L 282 391.5 L 280.5 396 L 279.5 391 Z "></path><path d="M 242 392 L 244 392.5 L 242 393.5 L 242 392 Z "></path><path d="M 244.5 394 L 245 395.5 L 243 396.5 L 244.5 394 Z "></path><path d="M 275.5 395 Q 278.1 394.2 277 397.5 L 276 397.5 L 275.5 395 Z "></path><path d="M 279.5 397 Q 282.5 398.5 279.5 400 L 279.5 397 Z "></path><path d="M 284.5 400 L 287 401.5 L 286.5 404 L 284.5 400 Z "></path><path d="M 249.5 402 L 250 404 L 252.5 403 L 251.5 405 L 249.5 406 Q 246.8 404.8 249 403.5 L 249.5 402 Z "></path><path d="M 277.5 402 L 279 405.5 L 277 406 L 277.5 402 Z "></path><path d="M 282 403 Q 285 402 284 405 Q 281 406 282 403 Z "></path><path d="M 288.5 403 L 289 405.5 L 288 407.5 L 290 407.5 L 289 409.5 L 291 411.5 Q 290.3 417.2 293 419.5 L 291 420.5 L 287 405.5 L 288.5 403 Z "></path><path d="M 267.5 405 L 268.5 407 L 267.5 405 Z "></path><path d="M 285.5 405 L 286 407.5 L 284 406.5 L 285.5 405 Z "></path><path d="M 233.5 407 L 234 409.5 L 232 408.5 L 233.5 407 Z "></path><path d="M 275.5 407 L 276 409 L 274 408.5 L 275.5 407 Z "></path><path d="M 278 407 Q 281 406 280 409 Q 277 410 278 407 Z "></path><path d="M 281.5 407 L 284 412.5 L 283 412.5 L 281.5 407 Z "></path><path d="M 243.5 408 L 244.5 410 L 243.5 408 Z "></path><path d="M 318.5 409 L 317.5 411 L 318.5 409 Z "></path><path d="M 277.5 410 L 279 415 Q 274.9 416.2 277.5 410 Z "></path><path d="M 295.5 411 L 297 412.5 L 299 422.5 L 297 421.5 L 295.5 411 Z "></path><path d="M 260 412 Q 263 411 262 414 Q 259 415 260 412 Z "></path><path d="M 252.5 414 L 254 416.5 L 253 416.5 L 252.5 414 Z "></path><path d="M 239 415 L 241 415.5 L 239 416.5 L 239 415 Z "></path><path d="M 264.5 415 L 268 420.5 L 266 420.5 L 268 425.5 L 267 425.5 L 265.5 423 L 262.5 424 L 263 422.5 Q 262.3 419.9 265 421 L 265 418.5 L 264.5 415 Z "></path><path d="M 274.5 415 Q 276.8 414.3 276 416.5 L 274.5 415 Z "></path><path d="M 229.5 416 Q 231.8 415.3 231 417.5 L 229.5 416 Z "></path><path d="M 250.5 416 L 252 418.5 L 251 418.5 L 250.5 416 Z "></path><path d="M 257 416 L 259 416.5 L 258.5 418 L 261 419.5 L 260 423.5 L 262 427.5 L 260 426.5 L 259 419 Q 255.7 420.1 257 416 Z "></path><path d="M 269 416 Q 271.7 414.9 271 417.5 L 273 424.5 L 271.5 424 Q 268.1 424.9 270 419.5 L 270.5 418 Q 267.9 418.7 269 416 Z "></path><path d="M 278.5 416 Q 280.8 415.3 280 417.5 L 278.5 416 Z "></path><path d="M 282.5 416 L 283.5 418 Q 280.7 418.7 282.5 416 Z "></path><path d="M 254.5 418 L 256 422.5 L 254 421.5 L 254.5 418 Z "></path><path d="M 276.5 418 L 277 420 L 274.5 421 L 274 419 L 276.5 418 Z "></path><path d="M 288.5 420 L 290 425 Q 285.9 426.2 288.5 420 Z "></path><path d="M 302.5 422 L 303 424.5 L 302.5 427 L 301 423.5 L 302.5 422 Z "></path><path d="M 249.5 423 Q 251.8 422.3 251 424.5 L 249.5 423 Z "></path><path d="M 284.5 423 Q 286.8 422.3 286 424.5 L 284.5 423 Z "></path><path d="M 281.5 427 L 283 431.5 L 282 431.5 L 280 428.5 L 281.5 427 Z "></path><path d="M 305.5 427 Q 307.8 426.3 307 428.5 L 308 431 Q 305 432.3 306 428.5 L 305.5 427 Z "></path><path d="M 275.5 428 Q 277.8 427.3 277 429.5 Q 279.3 430.8 276.5 432 L 273 430.5 L 275.5 428 Z "></path><path d="M 259.5 429 L 260 431.5 L 259 431.5 L 259.5 429 Z "></path><path d="M 292.5 429 L 293 435.5 L 292 435.5 L 291 431.5 L 292.5 429 Z "></path><path d="M 298.5 429 L 298 430.5 L 299 433.5 L 296 431.5 L 298.5 429 Z "></path><path d="M 287 431 L 289 431.5 L 289 433.5 L 288.5 436 L 287 431 Z "></path><path d="M 302 434 L 305 434.5 L 304 436.5 L 305 438.5 L 304 438.5 L 302 434 Z "></path><path d="M 306.5 435 L 307.5 437 Q 304.7 437.7 306.5 435 Z "></path><path d="M 272.5 436 L 273.5 438 Q 270.7 438.7 272.5 436 Z "></path><path d="M 298.5 436 L 299.5 438 L 298.5 436 Z "></path><path d="M 311.5 436 L 313.5 439 Q 311.3 439.8 312 437.5 L 311.5 436 Z "></path><path d="M 277.5 437 L 278 439 Q 280.7 437.9 280 440.5 L 280.5 442 L 277 438.5 L 277.5 437 Z "></path><path d="M 273.5 439 L 277 440 Q 278.1 443.3 274 442 L 273.5 439 Z "></path><path d="M 299 439 L 302 439.5 L 299 441 L 299 439 Z "></path><path d="M 307.5 440 L 307 441.5 Q 307.7 444.1 305 443 Q 303.9 440.3 306.5 441 L 307.5 440 Z "></path><path d="M 282.5 443 L 283.5 445 Q 280.7 445.7 282.5 443 Z "></path><path d="M 276.5 448 L 278 454.5 L 277 454.5 L 276.5 448 Z "></path><path d="M 307.5 449 L 308 451 Q 310.7 449.9 310 452.5 L 311 454.5 L 308 456.5 L 309 452 Q 305.5 453.1 307.5 449 Z "></path><path d="M 191.5 463 Q 196 462 197 464.5 Q 198.1 467.8 195.5 467 L 191.5 463 Z "></path><path d="M 310.5 465 L 311 467.5 L 310 467.5 L 310.5 465 Z "></path><path d="M 55.5 480 Q 58.5 479.1 57 483.5 L 50.5 499 L 48 497.5 Q 48.6 485.6 55.5 480 Z "></path><path d="M 313.5 510 L 312.5 512 L 313.5 510 Z "></path><path d="M 253 512 L 257.5 513 L 260.5 512 L 264.5 513 L 267.5 512 L 268.5 513 L 276 513 L 275.5 515 L 256.5 515 L 253 514 L 253 512 Z "></path><path d="M 308 512 Q 311 511 310 514 Q 307 515 308 512 Z "></path><path d="M 317.5 512 L 315.5 515 L 313 513.5 L 317.5 512 Z "></path><path d="M 297.5 514 L 299 516.5 L 297 515.5 L 297.5 514 Z "></path><path d="M 303.5 516 L 304 517.5 L 303 519.5 L 303.5 522 L 306 523.5 L 304 524 L 303.5 526 L 302 521.5 L 302 519.5 L 303.5 516 Z "></path><path d="M 305 517 Q 308 516 307 519 Q 304 520 305 517 Z "></path><path d="M 313 517 L 315 517.5 L 313 518.5 L 313 517 Z "></path><path d="M 285.5 518 L 286 521 Q 283.3 522.1 284 519.5 L 285.5 518 Z "></path><path d="M 91.5 520 L 92.5 521 L 102.5 521 L 103.5 522 L 130.5 522 L 132.5 522 L 136.5 521 L 140.5 521 L 143.5 522 L 145.5 521 L 148.5 522 L 152.5 521 L 154.5 521 L 167.5 521 L 168.5 522 L 170.5 521 L 171.5 522 L 200.5 522 L 202.5 521 L 204.5 521 L 228.5 521 Q 229.7 518.8 234.5 520 L 235.5 521 L 253 521 Q 254.5 524.8 251.5 524 L 247.5 523 L 244.5 524 L 242.5 524 L 221.5 523 L 219.5 524 L 216.5 523 L 215.5 524 L 195.5 524 L 193.5 524 L 187.5 525 L 185.5 524 L 183.5 524 Q 180.3 526.3 173.5 525 L 172.5 524 L 153.5 524 L 151.5 524 L 148.5 525 L 146.5 524 L 144.5 524 L 129.5 524 L 128.5 525 Q 127.3 522.7 122.5 524 Q 120.8 526.8 114.5 525 L 113.5 524 L 91.5 523 L 89.5 523 L 82 525 Q 80.3 520.5 85.5 522 L 91.5 520 Z "></path><path d="M 308.5 520 L 311 520.5 Q 308.9 523.8 308.5 520 Z "></path><path d="M 35.5 522 L 45.5 524 L 47 525.5 L 47.5 529 L 52.5 528 L 55.5 529 L 57.5 528 L 59.5 529 L 60.5 528 L 86.5 527 L 85.5 529 L 71.5 530 L 70.5 531 L 59.5 531 L 58.5 532 L 57.5 531 L 46.5 531 Q 45.4 528.3 42 529 Q 43.5 525.3 40.5 526 L 38.5 525 L 36.5 525 L 34 523.5 L 35.5 522 Z "></path><path d="M 256 522 L 264.5 523 Q 265.8 520.8 267 523.5 Q 266 526 261.5 525 L 256 524 L 256 522 Z "></path><path d="M 284.5 522 Q 287.1 521.3 286 524 L 283.5 525 L 283 523.5 L 284.5 522 Z "></path><path d="M 124.5 528 L 126.5 528 L 136.5 528 L 137.5 529 L 140.5 528 L 141.5 529 L 159 529 L 158.5 531 L 137.5 531 L 132.5 530 L 124.5 530 L 124.5 528 Z "></path><path d="M 211.5 528 L 216 529.5 L 210.5 530 L 211.5 528 Z "></path><path d="M 237.5 528 Q 243.6 526.8 243 529.5 L 240.5 530 L 224 529.5 L 236.5 529 L 237.5 528 Z "></path><path d="M 160 529 L 166.5 530 L 167.5 529 L 197.5 529 L 196.5 531 L 194.5 531 L 192.5 530 L 181.5 530 L 179.5 531 L 177.5 530 L 176.5 531 L 160 531 L 160 529 Z "></path><path d="M 247.5 529 Q 249.8 528.3 249 530.5 L 247.5 529 Z "></path><path d="M 123.5 534 L 131.5 534 L 132.5 535 L 134.5 534 L 135.5 535 L 156.5 536 L 157.5 537 L 176.5 537 L 177.5 536 L 216 536 L 216.5 539 L 218.5 538 L 226.5 540 L 245 540.5 L 227.5 542 L 223.5 541 Q 222 543.5 216.5 542 L 210.5 538 L 202.5 538 L 200.5 539 L 198.5 539 L 150.5 539 L 149.5 538 L 128.5 537 L 127.5 536 L 114.5 540 L 104.5 540 L 96.5 538 L 94.5 539 L 91.5 538 Q 90.3 540.3 85.5 539 L 83.5 539 L 81 539.5 L 84.5 541 L 86.5 540 L 93 542.5 L 91.5 545 L 83.5 543 L 75.5 543 L 71 540.5 L 75.5 537 L 87.5 537 L 88.5 536 L 91.5 537 L 93.5 536 L 94.5 537 L 117.5 537 L 123.5 534 Z "></path><path d="M 19.5 535 Q 22.1 534.2 21 537.5 L 18.5 539 L 17 536 L 19.5 535 Z "></path><path d="M 302.5 543 L 303 546 Q 300.3 547.1 301 544.5 L 302.5 543 Z "></path><path d="M 340 545 Q 342.7 543.9 342 546.5 L 342 548.5 L 341 553.5 Q 343.3 554.7 342 559.5 L 341 559.5 L 340 545 Z "></path><path d="M 294.5 546 Q 297.1 545.3 296 548 L 293 547.5 L 294.5 546 Z "></path><path d="M 191.5 563 L 199.5 564 L 201.5 564 L 204 564.5 Q 202.8 567 199 566 L 198 568.5 L 205.5 580 L 210 567.5 L 207 565.5 Q 210.3 563.1 216 564 Q 217 567 214 566 L 214 568.5 L 212 571.5 L 209 583.5 L 206.5 586 L 202.5 586 L 198 581.5 L 195.5 576 L 192 585.5 L 189.5 588 Q 185.5 588.5 185 585.5 L 179 568.5 L 176 565.5 L 180.5 564 L 186 565 L 186 570.5 L 189.5 580 Q 192.8 576.8 192 569.5 L 191 566 Q 186.9 567.3 188 564 L 191.5 563 Z "></path><path d="M 269.5 563 L 278.5 565 L 281.5 564 L 286 567.5 Q 289.2 570.8 288 578.5 L 281.5 586 L 279.5 587 L 268.5 587 L 267 584.5 L 268 579.5 L 267 578.5 L 267 570.5 L 268 567.5 L 265 566 Q 263.7 562.7 268.5 564 L 269.5 563 Z M 275 566 L 273 568 Q 271 579 276 585 L 280 584 L 283 580 Q 284 573 282 570 L 278 566 L 275 566 Z "></path><path d="M 341.5 563 L 342 565.5 L 340.5 565 L 338 564.5 L 341.5 563 Z "></path><path d="M 62 564 Q 68.9 562.5 72 565.5 L 69 569.5 L 70 572.5 L 70 574.5 L 69 577.5 L 70 579.5 L 69 583.5 L 70 585.5 Q 68.6 588.3 64 587 L 64 567.5 L 62 564 Z "></path><path d="M 80.5 564 Q 87 563 89 566.5 L 86.5 571 L 81.5 568 L 79 569 Q 77.1 571.7 78 578.5 L 79 578.5 L 79.5 577 L 88.5 577 Q 91.3 578.2 89 579.5 Q 90.3 584.8 87.5 586 Q 75.6 588.4 72 582.5 L 71 573.5 L 76.5 566 L 80.5 564 Z M 80 579 Q 78 582 81 583 L 85 583 L 84 580 L 80 579 Z "></path><path d="M 93.5 564 L 97.5 565 L 100 564 L 100 572 L 106 572 L 105 565.5 Q 106.9 562.3 113 564 L 112 566.5 L 112 584 Q 115 583 114 586 L 106 586 L 106 574.5 L 104.5 575 Q 100.1 573.5 101 576.5 L 100 581.5 L 101 585.5 Q 100.3 587.8 96.5 587 L 92 586 Q 91.3 582.9 94 583.5 L 94 566 L 92 565.5 L 93.5 564 Z "></path><path d="M 119.5 564 L 131.5 565 L 136.5 564 L 138 567.5 Q 136.8 570.8 133 570 Q 134.1 566.7 130 568 L 130 583.5 L 131 585.5 L 128.5 587 L 125.5 586 L 123 587 L 124 584.5 L 124 568 L 121.5 567 L 120 570 Q 114.4 572.2 116 566.5 L 119.5 564 Z "></path><path d="M 219 564 L 230 565 L 236 578.5 L 237 585 L 241 583.5 L 241 568.5 L 239.5 566 L 238 566.5 Q 236.7 562.3 241.5 564 L 244.5 565 L 246.5 564 L 255.5 577 L 256 567.5 L 255 565 L 263 564 L 262 567.5 L 262 585.5 L 260.5 587 L 258.5 587 L 252 580.5 L 246.5 571 L 245 583.5 L 249 585 L 248.5 587 L 238.5 587 L 236.5 588 L 230 587 Q 229 584 232 585 L 232 581.5 L 230 577 L 221.5 577 L 221 578.5 L 219 583.5 L 221 587 L 218.5 588 L 213 587 Q 212 584 215 585 L 215 582.5 L 220 569.5 L 220 566.5 L 219 564 Z M 225 567 L 223 571 Q 221 576 227 574 L 228 575 L 225 567 Z "></path><path d="M 293.5 564 L 304 564 L 304 568.5 L 301.5 570 L 299 566 Q 292.6 563.7 295 571.5 Q 295.8 573.8 299.5 573 L 302.5 572 L 307 574.5 L 308 583.5 Q 304.3 588.8 293.5 587 L 290.5 586 L 287 587 Q 285.9 584.3 288.5 585 L 291.5 581 L 295 582.5 L 296.5 585 L 299.5 584 L 302 585 L 302 577.5 L 301 576.5 Q 303.3 575.3 300.5 574 L 297.5 575 L 295.5 574 L 293.5 574 Q 289.1 575.5 290 572.5 L 290 570.5 Q 289.3 564.8 293.5 564 Z "></path><path d="M 10 565 L 20.5 565 L 21 566.5 Q 18 567.5 19 572.5 L 22.5 570 Q 25.1 570.8 24 567.5 Q 25.6 564.5 31 566 Q 32.3 569 28.5 568 L 24 573.5 L 31 582.5 L 32 586 Q 37.2 584.3 36 588 L 29.5 588 L 28.5 587 L 26 588 L 27 584.5 L 22 576 L 19 577.5 Q 18 585 20 588 L 12 589 L 14 579.5 L 13 578.5 L 13 569.5 L 13.5 568 L 10 566.5 L 10 565 Z "></path><path d="M 36.5 565 L 45.5 566 L 47 567.5 L 53.5 579 L 54 567.5 L 52.5 565 L 59 565.5 L 58 566.5 L 58 584.5 L 55.5 587 L 49 582.5 L 42.5 570 L 42 585 Q 45 584 44 587 L 37.5 587 L 37 585.5 L 38 580.5 Q 35.5 579 37 573.5 L 38 570.5 Q 39.1 567.2 36.5 568 Q 33.5 566.5 36.5 565 Z "></path><path d="M 341.5 568 L 342 570.5 L 341 570.5 L 341.5 568 Z "></path><path d="M 147.5 577 L 150.5 578 L 153 579.5 Q 154.3 584.8 151.5 586 Q 143.7 587.8 142 583.5 L 143 579 L 147.5 577 Z M 146 580 L 148 584 Q 150 585 149 582 L 146 580 Z "></path><path d="M 339.5 580 Q 343.3 579 342 582 L 339.5 580 Z "></path><path d="M 313.5 582 L 318 583 L 316.5 586 L 312 587 Q 311 583.2 313.5 582 Z "></path><path d="M 338 590 Q 341.3 588.7 340 593.5 L 340.5 595 L 338 594 L 338 590 Z "></path><path d="M 342.5 590 L 344 591.5 L 343.5 594 Q 340 594.8 342.5 590 Z "></path></svg>