<svg width="350" height="600" version="1.1" xmlns="http://www.w3.org/2000/svg" desc="Created with imagetracer.js version 1.2.5"><path d="M 70.5 5 L 72.5 6 L 89.5 6 L 93.5 5 L 96.5 6 L 98.5 5 L 99.5 6 L 155.5 6 L 157.5 7 L 159.5 7 L 162.5 6 L 282.5 6 L 284.5 5 L 287.5 6 L 289.5 6 L 291.5 5 L 293.5 6 L 295.5 6 L 308.5 6 L 310.5 5 Q 311.8 7.3 316.5 6 L 318.5 6 Q 324.7 7.8 326.5 5 L 327.5 6 L 338 6 L 339 11.5 L 338 12.5 L 338 46.5 L 338 48.5 L 339 53.5 L 338 55.5 L 339 56.5 L 339 291.5 L 338 293.5 L 339 294.5 L 339 339.5 Q 336.5 341 338 346.5 L 339 347.5 L 339 362.5 L 339 364.5 L 339 413.5 L 338 414.5 L 339 416.5 L 338 419.5 L 339 420.5 L 339 433.5 L 338 438.5 L 339 440.5 L 338 441.5 L 338 523.5 L 337 525.5 L 338 526.5 L 338 541.5 L 338 543.5 L 337 584.5 L 337 586.5 L 338 588.5 L 335.5 593 L 275.5 594 L 273.5 594 L 159.5 594 L 157.5 595 L 155.5 595 L 70.5 595 L 67.5 596 L 66.5 595 L 51.5 595 L 49.5 595 L 7.5 595 L 6.5 596 L 4 595 L 3 588.5 L 4 586.5 L 3 585.5 L 3 512.5 L 3 510.5 L 3 495.5 L 4 494.5 L 4 389.5 L 5 385.5 L 4 383.5 L 5 379.5 L 4 377.5 L 5 373.5 L 4 370.5 L 5 369.5 L 5 338.5 L 4 333.5 L 5 332.5 L 5 258.5 L 6 255.5 L 5 254.5 L 5 227.5 L 6 224.5 L 5 222.5 L 6 221.5 L 6 122.5 L 7 118.5 L 6 115.5 L 7 114.5 L 7 32.5 L 8 31.5 L 7 30.5 L 7 18.5 L 8 16.5 L 7 12.5 L 7 10.5 L 9.5 6 Q 14.2 4.7 15.5 7 L 18.5 6 L 20.5 7 L 21.5 6 L 69.5 6 L 70.5 5 Z M 37 8 L 36 9 L 11 9 L 11 66 L 10 69 L 10 71 L 11 76 L 10 77 L 10 146 L 9 147 L 10 151 L 9 266 L 8 267 L 8 277 L 9 278 L 8 279 L 8 380 L 8 382 L 8 390 L 7 391 L 8 393 L 8 395 L 7 397 L 8 399 L 8 413 L 7 414 L 8 477 L 17 475 Q 26 475 31 479 L 48 480 L 62 484 L 74 484 L 75 485 L 113 485 L 114 486 L 114 468 L 115 467 L 114 464 L 115 460 L 114 456 L 115 453 L 115 436 L 114 435 L 115 432 L 114 427 L 114 425 L 115 422 L 114 417 L 115 415 L 114 411 L 114 401 L 115 400 L 114 394 L 114 392 L 115 388 L 114 384 L 114 382 L 115 378 L 115 342 L 116 341 L 115 338 L 116 336 L 115 321 L 88 305 L 67 299 L 62 294 L 65 285 L 71 284 L 77 279 L 70 273 L 65 268 L 66 262 L 73 256 L 79 256 L 86 259 L 111 278 L 115 282 L 115 272 L 114 271 L 115 269 L 115 250 L 114 249 L 115 245 L 115 243 L 114 241 L 115 238 Q 116 233 114 232 Q 113 226 115 225 L 115 197 L 114 196 L 115 193 L 115 140 L 114 139 L 115 137 Q 116 132 114 131 L 115 128 L 114 124 L 115 122 L 115 98 L 119 86 L 128 82 Q 135 81 138 84 L 141 88 L 144 98 L 149 105 L 151 113 L 151 122 L 152 123 Q 150 128 156 126 L 153 118 L 154 110 L 157 105 Q 161 98 169 97 L 164 91 L 165 86 Q 166 82 163 83 L 163 80 L 159 80 L 157 81 L 159 79 L 165 79 L 167 83 L 167 91 L 171 93 L 173 97 L 178 89 L 177 84 Q 175 78 179 79 L 180 85 L 180 88 L 175 96 L 184 99 L 189 104 L 190 99 L 190 91 L 192 86 Q 193 82 199 83 L 203 89 L 204 101 Q 205 92 209 86 L 214 82 L 221 84 L 224 88 L 225 93 L 224 96 L 225 105 L 230 107 L 232 111 L 236 126 L 236 150 L 235 151 L 236 155 L 236 157 L 236 167 L 235 168 L 236 173 L 236 175 Q 238 180 235 182 L 236 185 L 235 187 L 235 189 L 235 200 L 236 201 L 235 202 L 235 228 L 234 229 Q 237 232 235 240 L 236 241 L 235 245 L 236 247 L 235 251 L 236 254 L 236 256 L 235 261 L 236 267 L 246 269 Q 254 272 259 278 Q 266 275 271 269 L 268 265 L 269 261 L 273 258 L 269 252 Q 268 244 270 241 L 280 233 Q 283 232 284 235 Q 283 237 279 236 Q 276 237 278 239 L 275 245 L 272 244 L 273 251 L 275 247 L 280 254 Q 286 252 285 256 Q 277 258 275 253 L 274 255 L 283 259 L 288 258 L 292 253 Q 294 243 289 241 Q 285 240 284 244 Q 282 249 288 247 L 287 250 L 283 249 L 280 247 L 281 241 L 285 239 Q 291 238 293 241 L 295 245 Q 296 251 294 255 L 285 262 L 287 262 L 287 269 L 286 270 Q 283 269 284 264 L 285 262 L 282 264 L 282 268 L 287 277 L 290 279 L 288 275 Q 287 271 290 272 L 295 281 Q 296 283 294 282 L 291 281 L 298 297 L 298 310 L 293 320 L 287 324 L 285 324 L 275 329 Q 271 330 272 336 L 278 340 Q 285 341 286 337 Q 288 330 282 332 L 280 329 L 289 331 L 298 327 L 304 316 L 306 307 L 305 293 Q 303 283 297 278 L 300 276 L 306 287 L 309 300 L 309 302 Q 308 318 300 328 L 293 332 Q 289 331 290 334 L 298 332 L 305 325 L 308 319 L 311 305 Q 313 293 309 288 L 311 284 L 313 289 Q 311 295 314 297 L 312 316 L 304 330 L 302 331 L 301 333 Q 310 332 316 327 Q 325 320 328 308 L 328 295 L 321 278 Q 317 272 309 271 L 301 263 L 303 260 L 305 265 L 310 269 L 321 273 Q 329 283 332 299 Q 331 313 324 322 Q 318 331 306 333 L 307 335 L 315 333 L 322 328 Q 324 327 323 330 L 315 335 L 310 336 L 309 339 L 308 336 L 303 336 L 303 338 L 305 337 Q 307 338 305 340 L 312 342 Q 316 345 317 351 Q 319 360 315 364 L 316 367 L 317 365 L 325 369 L 330 369 Q 329 366 328 368 Q 325 369 326 366 L 335 365 L 336 364 L 336 358 L 330 362 L 326 361 Q 323 362 324 359 L 327 360 L 333 358 Q 337 357 336 350 L 336 348 L 335 345 Q 333 338 336 337 L 336 330 L 327 336 Q 320 335 317 338 L 312 338 L 314 336 L 327 334 L 336 327 L 336 316 L 332 325 L 328 327 L 332 321 L 334 311 L 336 308 L 336 289 L 331 279 L 326 274 L 322 269 L 325 269 L 332 277 Q 331 279 334 278 L 335 283 L 336 283 L 336 253 L 334 258 L 330 261 L 334 251 L 334 244 L 336 244 L 336 170 Q 333 171 332 168 L 330 169 L 328 168 L 326 168 L 320 169 L 321 167 Q 331 165 336 169 L 336 162 Q 335 158 330 159 L 328 159 L 325 158 L 322 157 Q 309 158 302 164 L 299 168 L 299 169 L 305 165 Q 306 168 304 167 Q 299 170 297 177 L 294 178 L 294 176 L 293 182 L 300 185 L 303 191 L 300 198 L 295 201 L 292 200 L 288 196 L 292 194 Q 291 198 294 199 Q 298 199 298 197 Q 299 190 297 187 Q 294 184 288 185 Q 286 188 285 186 Q 278 187 276 191 Q 273 192 274 190 L 283 184 L 290 183 L 289 181 L 293 171 L 303 161 L 316 156 L 328 156 L 329 157 L 331 156 L 335 158 L 336 158 L 336 151 L 336 149 L 336 131 L 335 130 Q 334 125 336 124 L 335 115 L 335 113 Q 334 107 336 106 L 335 103 L 336 101 L 335 96 L 335 31 L 334 26 L 334 22 L 335 21 L 335 9 L 299 9 L 298 10 L 295 9 L 293 9 L 253 9 L 252 10 L 247 9 L 245 9 L 241 10 L 239 10 Q 234 11 233 9 L 231 10 L 229 9 L 221 10 L 219 10 L 202 10 L 201 9 L 199 10 L 196 9 L 194 10 L 192 10 L 190 9 L 185 10 L 183 10 L 179 9 Q 173 8 172 10 L 169 9 L 165 10 L 163 9 L 159 10 L 155 9 Q 150 8 149 10 L 147 9 L 145 10 L 144 9 L 103 9 L 101 9 L 99 8 L 96 9 L 94 9 L 91 8 L 89 9 L 87 8 L 84 9 L 82 8 Q 80 10 76 9 L 74 9 L 70 8 L 68 9 L 55 9 L 54 8 L 53 9 L 43 9 L 41 9 L 37 8 Z M 131 84 L 124 86 L 119 93 L 117 102 L 118 107 L 117 108 L 117 185 L 116 186 L 117 191 L 116 193 Q 115 198 117 200 L 116 204 L 117 206 L 117 229 L 116 230 Q 119 235 117 245 L 117 247 L 116 249 L 118 259 L 117 261 L 118 266 L 117 272 L 117 274 L 118 279 L 117 280 L 117 291 L 116 292 L 117 294 Q 118 298 116 300 L 117 302 L 116 304 Q 119 307 117 316 L 118 317 L 117 319 L 118 323 L 117 325 L 117 333 L 118 334 L 117 336 L 118 340 L 117 343 L 118 346 L 117 349 L 118 352 L 117 354 L 117 387 L 118 388 Q 115 389 117 396 Q 114 397 118 399 L 116 407 L 117 408 L 117 419 L 118 420 L 116 424 L 118 430 L 117 434 L 117 443 L 118 444 L 117 446 L 118 451 L 117 454 Q 116 457 119 456 L 119 434 L 120 433 L 119 431 L 120 427 L 119 423 L 120 420 L 119 416 L 120 413 L 119 410 L 120 407 L 119 403 L 120 398 L 120 396 L 119 388 L 119 386 L 119 377 L 120 376 L 119 374 L 120 371 L 119 368 L 120 361 L 120 359 L 119 355 L 120 353 L 119 349 L 120 347 L 120 330 L 120 328 L 121 324 L 120 321 L 121 319 L 119 309 L 120 307 L 120 296 L 119 295 Q 118 290 121 290 L 120 289 L 120 277 L 119 276 L 120 274 L 119 243 L 119 241 L 119 231 L 118 230 L 120 226 L 119 221 L 119 219 Q 118 213 120 212 L 119 209 L 119 207 L 118 202 Q 120 198 119 192 L 119 190 L 120 185 L 119 181 L 121 170 L 122 172 L 122 180 L 122 182 Q 123 186 121 188 L 122 191 L 121 194 L 122 198 L 121 200 L 122 205 L 121 208 L 122 210 L 121 215 L 122 219 L 121 232 L 121 234 L 122 237 L 121 240 L 122 279 L 122 281 L 123 286 L 122 287 L 127 291 L 129 290 L 129 284 L 124 278 L 125 272 L 129 269 L 129 258 L 128 257 L 129 255 L 128 251 L 129 249 L 127 238 L 128 231 L 127 228 L 127 217 L 128 216 L 127 214 L 128 209 L 126 198 L 127 195 L 126 175 L 124 168 L 124 166 L 123 163 L 122 163 Q 124 170 120 169 L 120 155 L 121 154 L 119 139 L 119 135 L 120 130 L 119 128 Q 122 124 120 116 L 120 114 L 118 105 L 121 94 Q 124 87 134 87 L 138 93 Q 136 99 141 97 L 140 92 L 137 86 L 131 84 Z M 214 85 L 210 89 L 207 97 L 206 112 L 205 113 L 205 126 L 205 128 Q 207 133 204 135 L 205 139 L 206 138 L 207 107 L 209 98 L 212 93 L 216 90 L 219 95 L 219 106 L 223 105 L 221 96 L 221 89 Q 220 84 214 85 Z M 196 86 L 193 90 L 192 96 L 192 98 L 192 111 L 193 112 L 193 122 L 191 124 L 192 134 L 192 136 L 191 138 Q 190 142 194 140 L 195 135 L 194 133 L 195 131 L 194 127 L 194 92 L 198 90 L 199 92 L 200 102 L 201 96 L 200 89 Q 200 86 196 86 Z M 130 89 L 126 90 L 122 100 L 123 137 L 126 132 L 126 108 L 128 104 L 133 100 L 135 97 L 133 92 L 130 89 Z M 216 93 L 211 100 L 209 111 L 210 115 L 208 126 L 212 127 L 212 120 L 217 106 L 216 103 L 217 100 Q 218 95 216 93 Z M 197 94 L 197 111 L 197 103 L 198 102 L 197 94 Z M 175 98 L 173 102 Q 168 103 170 99 L 165 101 L 159 107 L 156 116 L 160 127 L 166 131 L 174 133 L 183 130 Q 189 127 190 119 Q 191 110 187 106 Q 183 99 175 98 Z M 139 99 L 135 100 L 131 104 L 128 112 L 129 114 L 129 126 L 130 127 L 130 148 L 131 149 L 130 153 L 130 224 L 131 225 L 130 227 L 131 275 L 131 277 L 133 278 L 133 241 L 132 240 L 132 230 L 133 229 L 132 227 L 133 224 L 132 223 L 132 195 L 132 193 L 132 140 L 131 139 L 131 125 L 132 124 L 131 122 L 132 105 L 136 103 L 140 104 L 142 103 Q 146 105 146 111 L 147 111 L 145 104 L 139 99 Z M 200 104 L 199 111 L 200 111 L 200 104 Z M 136 106 L 134 109 L 134 128 L 138 127 Q 139 114 136 106 Z M 141 106 L 141 117 L 141 119 L 141 130 L 142 131 L 140 134 L 142 138 Q 144 137 143 132 L 145 130 L 144 114 L 141 106 Z M 223 108 L 221 109 Q 215 112 215 122 L 215 124 L 214 126 L 215 137 L 217 117 L 222 112 L 226 113 L 229 119 Q 228 123 230 125 L 229 129 L 231 137 L 230 142 L 231 147 L 230 152 Q 233 159 231 171 L 232 172 Q 234 178 231 180 L 232 182 L 231 185 L 231 228 L 233 227 Q 234 222 232 221 L 233 219 L 232 216 L 233 214 L 233 181 L 234 180 Q 232 174 233 165 L 233 163 L 234 161 L 233 157 L 234 145 L 233 142 L 234 138 Q 236 131 233 130 L 234 128 L 230 113 Q 228 108 223 108 Z M 148 112 L 147 125 L 148 126 L 148 137 L 147 138 Q 146 140 149 139 L 150 136 L 149 135 L 149 118 L 148 112 Z M 200 113 L 199 125 L 200 125 L 200 113 Z M 220 117 L 220 128 L 222 128 L 221 123 L 222 121 Q 223 116 220 117 Z M 225 118 L 224 130 L 227 132 Q 228 123 225 118 Z M 199 127 Q 198 129 201 128 L 202 129 Q 203 125 199 127 Z M 155 128 L 155 129 L 158 129 L 155 128 Z M 153 130 L 153 132 L 156 132 L 158 131 L 160 133 L 153 134 L 160 134 L 161 136 L 157 135 L 152 137 L 168 139 L 166 139 L 166 140 Q 172 141 172 138 L 188 138 L 188 137 L 181 137 L 180 135 L 189 135 L 184 134 L 184 132 L 178 135 L 171 135 L 161 130 L 153 130 Z M 186 131 L 187 132 Q 188 134 189 132 L 186 131 Z M 197 132 L 197 134 L 202 133 L 197 132 Z M 126 136 L 125 140 L 127 141 Q 128 137 126 136 Z M 225 136 L 218 141 L 216 140 L 213 141 L 195 141 L 194 142 L 159 142 L 157 142 L 155 141 L 153 142 L 147 140 L 145 141 L 139 139 Q 133 137 135 143 L 140 146 L 151 147 L 153 147 L 155 148 L 168 148 L 169 149 L 194 149 L 202 147 L 209 147 L 222 143 L 226 140 L 225 136 Z M 160 138 L 159 140 L 163 140 L 160 138 Z M 136 146 L 135 148 L 138 148 L 136 146 Z M 212 147 L 200 150 L 189 150 L 188 151 L 180 151 L 179 150 L 177 151 L 176 150 L 165 150 L 164 149 L 141 148 L 141 149 L 144 149 L 146 153 L 143 152 L 138 153 L 141 153 L 142 155 L 137 154 Q 134 153 135 156 Q 137 158 143 157 L 144 159 L 136 158 L 134 162 L 141 164 Q 148 163 147 166 L 137 164 Q 134 163 135 166 Q 136 168 141 167 L 142 169 L 139 168 L 135 169 L 137 170 L 150 173 L 144 174 L 148 175 L 148 176 L 143 176 L 137 174 L 135 175 L 143 178 L 145 177 L 147 179 L 139 180 L 146 181 L 149 180 L 150 182 L 142 182 L 141 181 L 137 182 Q 139 184 144 183 L 146 183 L 150 184 L 152 184 Q 154 185 153 182 L 156 184 L 154 184 L 156 188 L 155 190 L 154 188 Q 152 191 146 191 L 149 192 L 151 192 Q 153 195 160 194 L 165 198 Q 164 202 167 201 L 166 204 L 168 207 L 168 204 Q 171 203 170 206 L 172 207 L 169 202 Q 168 199 171 200 L 170 197 L 176 193 L 178 193 L 184 198 Q 185 202 183 204 L 184 206 L 188 204 L 189 207 L 191 200 L 195 196 Q 197 197 196 195 L 200 193 L 201 191 Q 197 192 198 189 L 205 188 L 204 187 L 208 185 L 207 184 Q 206 181 209 182 L 211 182 L 215 181 L 216 179 L 214 180 Q 210 181 211 178 L 218 176 L 221 172 L 219 173 L 216 173 L 219 171 Q 221 170 219 169 Q 218 166 221 167 L 220 165 L 223 163 Q 225 164 224 161 L 219 161 L 223 159 L 223 158 Q 220 159 221 156 L 225 155 L 226 153 L 224 154 Q 220 155 221 152 Q 225 153 226 150 L 226 148 L 217 152 Q 214 153 215 150 L 220 149 L 212 147 Z M 126 153 L 127 155 Q 128 152 126 153 Z M 229 161 Q 226 162 227 169 L 223 177 Q 219 179 223 181 L 222 183 L 223 186 L 222 189 L 222 197 L 223 198 L 223 230 L 224 231 L 224 265 L 226 266 L 228 266 L 228 258 L 228 256 L 229 251 L 228 249 L 228 247 L 229 244 L 228 241 L 229 238 Q 230 233 228 232 L 229 230 L 228 225 L 228 223 Q 226 216 229 215 L 228 214 L 228 183 L 228 181 L 229 178 L 229 169 L 228 168 L 229 163 L 229 161 Z M 298 169 L 295 172 L 296 174 L 298 171 L 298 169 Z M 136 171 L 138 173 L 143 173 L 136 171 Z M 136 177 L 135 179 L 139 179 L 136 177 Z M 219 182 L 218 211 L 219 212 L 218 217 L 219 220 L 218 222 L 218 224 L 219 225 L 219 241 L 220 242 Q 222 248 219 250 L 221 266 L 222 264 L 221 262 L 221 228 L 221 226 L 220 224 Q 219 219 221 218 L 220 216 L 220 184 L 219 182 Z M 212 183 L 211 185 L 213 184 L 212 183 Z M 135 185 L 135 252 L 135 254 L 136 267 L 147 266 L 163 259 L 163 253 L 164 252 L 164 233 L 165 232 Q 166 226 163 224 L 163 201 L 161 197 L 157 196 Q 152 195 151 198 Q 150 203 153 204 L 154 201 Q 158 200 159 203 L 158 206 Q 159 208 156 207 Q 154 211 158 210 Q 161 212 161 218 L 158 219 L 156 222 L 153 222 Q 154 218 151 219 L 152 215 Q 151 210 154 211 L 153 209 Q 154 206 150 207 L 148 204 Q 147 198 150 196 L 145 193 L 141 189 L 139 189 L 137 186 L 135 185 Z M 142 185 L 143 186 L 144 187 Q 145 184 142 185 Z M 150 185 L 152 188 L 152 187 L 150 185 Z M 215 186 L 201 195 L 204 196 Q 206 197 205 203 Q 203 207 196 206 L 194 203 Q 195 200 200 201 L 201 203 L 201 202 L 201 200 Q 202 196 199 197 L 197 197 L 193 201 Q 195 207 191 209 L 193 209 L 193 227 L 194 228 L 193 231 L 193 262 L 195 262 L 195 253 L 196 252 L 195 249 L 195 234 L 196 233 L 195 218 L 194 217 Q 197 215 195 209 L 197 207 Q 202 205 201 209 L 204 210 L 207 217 L 204 219 L 200 222 Q 201 218 198 219 L 198 237 L 197 238 Q 199 241 198 248 L 198 250 L 197 254 L 198 256 L 198 258 L 197 263 L 201 265 Q 211 264 217 266 L 218 262 L 217 259 L 217 231 L 216 230 L 217 228 L 216 226 L 216 215 L 217 214 L 216 212 L 216 194 L 215 186 Z M 175 195 L 175 197 L 178 198 Q 180 199 179 197 L 175 195 Z M 172 198 L 173 203 L 178 205 L 176 206 L 174 209 L 177 207 L 178 208 L 181 202 Q 179 198 177 203 L 174 201 Q 175 197 172 198 Z M 169 209 L 166 210 L 168 221 L 168 214 L 170 214 L 172 211 L 169 209 Z M 184 209 L 184 214 L 184 216 L 186 216 L 186 210 L 184 209 Z M 191 211 L 190 223 L 189 224 Q 188 234 190 242 L 191 242 L 191 211 Z M 157 212 L 154 213 L 153 217 L 158 218 L 157 212 Z M 178 212 L 174 217 L 177 218 L 180 217 L 178 212 Z M 201 212 Q 197 213 198 217 L 203 217 L 201 212 Z M 171 219 Q 170 222 173 221 Q 174 218 171 219 Z M 181 219 L 180 220 Q 177 219 178 222 L 175 222 L 175 220 L 174 222 L 171 223 L 171 221 L 168 224 L 168 235 L 167 236 L 168 238 L 170 237 L 173 238 Q 172 240 167 239 L 167 242 L 172 242 L 172 244 L 167 245 L 168 248 L 172 247 L 170 250 L 167 249 L 167 251 L 171 251 L 171 253 Q 170 255 166 254 L 167 257 L 170 256 Q 172 261 166 259 L 165 262 L 169 262 L 170 262 L 169 267 L 167 268 Q 165 266 164 269 Q 165 271 169 270 L 169 272 L 163 272 L 163 275 L 168 275 L 168 277 L 166 278 L 162 277 Q 161 281 167 279 L 168 279 L 167 282 Q 162 283 161 281 L 157 286 Q 158 288 156 287 L 154 290 L 157 289 L 160 290 L 166 289 L 165 295 L 163 297 L 154 297 L 152 297 L 150 294 L 144 298 L 154 298 L 155 299 L 164 298 L 162 301 Q 161 303 164 302 Q 171 295 173 284 L 178 283 L 190 302 Q 188 305 186 301 Q 187 298 185 299 L 185 301 L 185 302 L 174 302 L 174 301 Q 177 302 175 298 L 184 298 L 181 292 L 180 294 L 176 293 L 180 292 L 175 291 L 178 289 L 176 288 L 177 286 L 177 284 Q 172 297 162 306 L 165 307 L 164 307 L 162 310 L 164 309 L 167 310 L 169 309 L 173 310 L 175 310 L 187 307 L 175 306 L 173 305 L 188 304 L 188 306 L 191 306 Q 189 302 193 303 L 195 306 L 203 303 Q 213 304 220 301 Q 222 300 221 297 L 211 292 L 204 293 L 212 299 L 208 301 L 206 297 L 203 298 L 203 297 L 202 296 L 200 297 L 201 294 L 200 294 Q 196 295 197 293 L 199 293 L 199 291 L 196 291 L 197 288 L 195 289 L 193 289 L 195 286 L 194 286 Q 190 287 191 284 L 194 285 L 194 284 L 192 282 L 190 283 Q 189 280 192 281 Q 193 278 191 279 L 189 280 Q 188 277 191 278 L 191 276 L 189 276 L 191 275 L 188 265 L 187 252 L 186 251 L 186 226 L 183 221 Q 184 218 181 219 Z M 233 232 L 231 239 L 232 241 L 231 254 L 231 256 L 230 260 L 231 262 L 230 264 L 231 273 L 232 276 L 232 287 L 231 288 L 232 294 L 232 296 L 231 300 L 232 303 L 232 311 L 231 312 L 232 313 L 232 325 L 232 327 Q 231 332 234 335 L 235 335 L 234 330 L 234 328 L 235 326 L 234 324 L 235 320 Q 233 316 234 309 L 233 308 Q 232 303 234 302 L 233 298 L 233 296 L 234 294 L 233 291 L 234 289 Q 235 284 233 283 L 234 281 L 234 264 L 233 263 L 234 261 L 233 250 L 233 248 L 234 244 L 233 232 Z M 74 258 L 72 259 L 67 266 Q 68 268 72 267 L 82 275 Q 84 274 83 277 L 85 278 L 90 278 L 97 280 L 102 284 L 104 283 Q 108 282 110 284 L 113 284 Q 100 269 84 259 L 74 258 Z M 276 259 L 272 262 Q 271 265 274 266 L 276 265 Q 279 264 278 267 L 276 268 L 271 273 L 271 275 Q 269 273 267 277 L 268 279 Q 265 280 266 278 L 265 278 L 267 284 L 265 282 L 263 286 L 265 286 Q 264 289 267 291 Q 268 293 266 292 Q 259 288 257 280 Q 251 271 239 269 L 236 270 L 236 286 L 236 288 L 235 291 L 236 293 L 235 295 L 236 297 Q 237 301 235 303 L 236 316 L 237 317 L 236 320 L 237 322 L 236 324 L 236 337 L 237 338 L 236 340 L 237 342 L 238 340 Q 239 335 244 336 L 246 344 L 241 346 L 238 342 L 236 345 L 237 348 L 236 350 L 237 373 L 243 369 L 241 357 L 247 345 L 260 336 L 268 335 Q 271 334 268 332 L 265 334 L 255 334 L 254 335 L 239 335 L 237 334 L 255 333 Q 256 331 262 332 L 264 330 L 266 331 L 267 328 L 270 329 L 271 326 L 274 325 Q 273 321 276 322 L 277 325 L 278 322 Q 277 319 280 320 L 281 323 L 281 320 L 284 318 L 285 321 Q 284 316 287 315 L 287 319 L 288 319 Q 286 313 290 314 L 291 315 Q 290 307 293 308 L 294 310 L 295 307 L 295 299 L 293 291 L 279 269 L 280 262 L 276 259 Z M 161 262 L 146 268 Q 139 266 138 269 Q 134 268 136 273 L 136 275 L 135 283 L 139 284 L 146 284 L 156 282 Q 161 277 162 269 Q 163 261 161 262 Z M 193 263 L 193 274 L 198 286 L 200 287 L 207 287 L 223 290 L 229 293 L 230 286 L 229 283 L 230 280 L 228 267 L 209 267 L 208 266 L 196 265 L 193 263 Z M 71 268 L 70 271 L 79 278 Q 82 279 81 277 L 71 268 Z M 129 272 L 127 277 L 128 279 L 129 279 L 129 272 Z M 86 279 L 76 282 L 72 288 L 73 291 L 76 289 L 80 289 L 89 295 Q 93 297 90 299 L 113 312 L 114 315 L 89 300 L 86 301 L 73 297 Q 69 296 70 299 L 72 300 L 83 302 L 86 304 L 86 302 Q 89 301 88 305 L 115 319 Q 116 311 114 307 L 108 303 L 102 302 L 93 298 L 91 295 L 93 286 L 96 285 Q 98 286 97 284 L 86 279 Z M 131 279 L 132 282 Q 133 286 131 288 L 132 291 L 131 295 L 132 297 L 131 299 L 131 301 L 132 303 L 131 305 L 131 342 L 132 343 L 131 347 L 132 349 L 131 367 L 131 369 L 132 382 L 132 384 Q 133 388 131 390 L 132 394 L 131 396 L 132 399 L 132 401 L 132 417 L 131 418 L 132 420 L 131 424 L 132 425 L 132 442 L 131 445 L 132 447 Q 134 453 131 455 L 131 485 L 132 486 L 131 488 L 132 490 L 130 494 Q 127 493 129 492 L 129 488 L 126 490 L 124 490 L 121 492 L 122 493 L 127 493 L 127 495 L 121 495 L 121 503 L 128 506 L 128 505 Q 127 502 123 503 L 124 500 L 128 501 L 127 497 L 130 495 L 131 502 L 131 504 L 130 509 L 131 517 L 128 518 L 127 522 L 130 524 Q 131 527 124 525 Q 122 523 121 526 L 129 526 L 131 528 L 132 527 L 132 519 L 133 518 L 132 516 L 133 513 Q 134 508 132 507 L 133 502 L 132 499 L 133 497 L 133 476 L 134 475 L 134 461 L 133 460 L 134 442 L 134 440 L 134 431 L 133 430 L 134 428 L 133 424 L 134 421 L 133 419 L 133 333 L 132 332 L 133 331 L 133 311 L 133 309 L 133 280 L 131 279 Z M 105 284 L 98 286 L 93 293 L 95 297 L 115 305 L 114 302 L 115 298 Q 117 292 114 291 L 115 288 L 112 285 Q 106 287 105 284 Z M 151 284 L 150 285 L 137 285 L 136 287 L 136 288 L 144 286 L 152 286 L 151 284 Z M 67 286 L 65 291 L 66 297 L 69 296 Q 76 295 80 298 L 80 297 L 73 291 L 70 291 L 69 288 Q 70 285 67 286 Z M 144 288 L 136 291 L 136 292 L 151 289 L 144 288 Z M 203 288 L 201 290 L 204 290 L 203 288 Z M 76 290 L 76 292 L 87 298 L 89 298 L 79 290 L 76 290 Z M 154 290 L 151 293 L 155 294 L 163 294 L 156 293 L 154 290 Z M 122 291 L 121 294 L 123 298 L 122 301 L 123 305 L 122 311 L 129 315 L 129 295 L 122 291 Z M 147 291 L 143 293 L 147 293 L 147 291 Z M 222 292 L 225 298 L 223 303 L 227 303 Q 230 302 229 298 L 222 292 Z M 140 293 L 136 295 L 136 299 L 138 299 L 137 298 L 141 296 L 142 297 L 141 295 Q 142 292 140 293 Z M 144 298 L 138 300 L 142 301 L 144 300 L 144 298 Z M 137 300 L 136 320 Q 142 321 146 327 L 155 330 L 159 333 L 169 333 L 172 331 Q 178 333 180 330 L 186 331 L 165 334 Q 164 337 167 336 L 167 338 L 199 336 L 220 332 L 229 332 L 229 334 L 228 333 L 224 336 L 224 353 L 225 354 L 224 356 L 224 371 L 225 372 L 224 374 Q 223 378 225 380 L 224 383 L 224 400 L 223 401 L 224 404 L 224 445 L 223 446 L 224 448 L 223 453 L 224 455 L 223 459 L 224 462 L 223 466 L 224 470 L 224 472 L 223 476 L 224 479 L 223 481 L 223 485 L 229 485 L 230 456 L 230 454 Q 231 449 229 448 Q 228 442 230 441 L 230 419 L 229 418 L 230 415 L 230 405 L 229 404 L 230 401 Q 231 396 229 395 L 230 392 L 230 375 L 229 374 L 230 370 L 229 368 L 230 364 L 229 361 L 230 358 L 230 338 L 229 337 L 231 334 L 229 331 L 230 328 L 229 324 L 230 320 L 229 318 L 230 316 L 229 305 L 219 305 L 218 304 L 216 305 L 205 305 L 195 308 L 187 308 L 179 311 L 173 311 L 170 313 L 166 311 L 159 314 L 158 311 L 156 308 L 141 303 L 137 300 Z M 177 300 L 177 301 L 180 301 L 177 300 Z M 147 301 L 146 304 L 150 305 Q 152 306 151 303 Q 155 306 161 305 L 162 303 L 150 302 L 147 301 Z M 158 306 Q 157 309 160 308 Q 161 305 158 306 Z M 123 313 L 123 319 L 128 324 L 124 321 L 123 327 L 128 330 L 129 330 L 129 319 L 123 313 Z M 137 322 L 136 329 L 141 332 L 154 335 L 157 335 L 153 331 L 143 328 L 137 322 Z M 124 329 L 122 332 L 123 334 L 122 339 L 122 341 L 122 351 L 123 352 L 122 354 L 122 366 L 121 367 L 122 369 L 122 378 L 121 379 L 122 384 L 122 386 L 121 390 Q 124 393 122 402 L 122 404 L 122 414 L 121 415 L 122 417 L 121 421 L 122 424 L 121 429 L 122 432 L 121 435 L 122 439 L 121 441 L 121 466 L 122 467 L 120 477 L 121 484 L 128 485 L 129 485 L 129 454 L 129 452 L 130 450 L 129 446 L 129 444 L 130 441 L 130 431 L 129 430 L 130 426 L 130 424 L 129 419 L 130 416 L 130 414 Q 132 404 129 399 L 129 397 L 129 389 L 130 388 Q 132 382 129 381 L 130 378 L 129 376 L 129 334 L 124 329 Z M 135 330 L 135 334 L 147 339 L 163 339 L 165 338 L 165 337 L 162 338 L 144 335 L 135 330 Z M 159 334 L 161 336 Q 162 333 159 334 Z M 300 334 L 294 336 L 291 335 L 286 341 L 286 343 L 289 344 L 291 341 L 290 338 L 293 337 Q 298 336 300 338 L 300 334 Z M 210 335 L 200 337 Q 198 342 199 352 L 198 353 L 199 360 L 199 362 L 199 370 L 198 371 L 199 374 L 198 378 L 199 379 L 199 397 L 199 399 L 198 403 L 199 405 L 199 419 L 198 420 L 199 444 L 199 446 L 199 473 L 200 474 L 199 476 L 200 481 L 200 483 L 199 485 L 217 485 L 217 451 L 218 450 L 217 448 L 217 386 L 216 385 L 217 381 L 217 336 L 217 335 L 210 335 Z M 220 335 L 220 344 L 220 346 L 219 354 L 219 356 L 220 359 L 219 363 L 219 365 L 220 370 L 219 374 L 219 385 L 220 386 L 219 388 L 220 395 L 220 397 L 219 400 L 220 403 L 219 408 L 220 412 L 220 420 L 219 421 L 219 439 L 220 440 L 219 442 Q 218 447 220 449 L 219 451 L 220 456 L 219 458 L 220 462 L 219 464 L 220 466 L 219 470 L 219 484 L 220 485 L 220 494 L 219 495 L 222 500 L 222 494 L 222 492 Q 219 488 221 480 L 221 478 L 222 473 L 221 465 L 221 463 Q 220 457 222 456 L 221 454 L 222 450 L 221 448 L 222 444 Q 223 439 221 438 L 222 436 L 222 413 L 221 412 L 222 407 L 221 403 L 222 399 L 221 395 L 222 383 L 223 382 L 221 371 Q 224 369 222 364 L 222 362 L 222 353 L 221 352 L 222 350 L 221 348 L 222 346 L 221 344 L 222 342 Q 223 334 220 335 Z M 234 335 L 233 351 L 232 352 L 233 356 L 232 359 L 233 363 L 232 368 L 233 371 L 232 372 L 232 390 L 232 392 Q 230 398 233 400 L 232 402 L 233 406 L 232 422 L 232 424 L 233 429 L 232 442 L 231 443 Q 230 447 233 449 L 232 458 L 233 461 L 231 474 L 231 476 Q 230 480 232 482 L 231 487 L 233 500 L 235 491 L 234 489 L 235 482 L 235 480 L 234 477 L 235 474 Q 236 469 234 468 L 235 463 L 237 464 L 236 466 L 236 478 L 237 479 L 236 482 L 237 484 L 238 485 L 255 485 L 257 485 L 265 485 L 266 484 L 268 485 L 271 484 L 334 484 L 335 485 L 335 446 L 336 445 L 335 443 L 336 441 L 336 404 L 337 403 L 336 401 L 337 398 L 335 397 Q 334 403 330 408 L 325 412 L 323 413 L 323 411 L 330 403 L 333 396 L 333 391 L 332 391 Q 333 395 331 394 Q 328 393 330 392 Q 328 385 333 387 L 332 381 Q 328 379 329 374 L 319 373 L 313 368 L 309 371 Q 305 370 306 373 L 299 374 L 298 384 Q 294 388 288 390 Q 281 391 278 389 L 275 385 L 279 387 Q 281 388 280 385 Q 285 383 284 387 L 280 388 L 284 389 L 291 387 Q 298 384 296 374 Q 287 375 283 371 L 276 364 L 273 356 L 274 354 L 273 351 L 273 349 L 275 343 L 270 338 L 265 337 L 262 338 L 263 340 L 256 343 L 257 345 L 261 342 L 268 340 Q 271 339 270 342 L 266 342 L 260 345 L 257 351 L 255 352 L 255 354 Q 256 359 254 360 L 251 359 L 251 355 L 255 347 L 254 347 Q 250 348 251 346 L 256 342 L 257 340 L 254 341 L 250 345 L 245 355 L 246 365 L 247 354 L 250 352 L 249 356 Q 248 364 250 367 Q 246 368 247 366 L 246 366 L 249 373 Q 254 380 264 383 L 272 383 L 280 380 L 282 375 Q 285 374 284 379 L 279 383 L 272 385 L 265 385 L 264 388 L 265 393 L 267 392 L 269 395 L 269 398 L 273 406 L 283 411 Q 286 413 283 414 L 274 409 L 267 399 L 265 400 L 263 400 Q 265 407 270 412 Q 279 421 298 421 L 300 421 L 315 417 L 320 413 Q 323 412 322 415 L 313 420 L 300 423 L 284 422 L 272 416 L 262 407 L 261 403 L 260 405 L 256 406 L 248 406 L 241 403 L 238 400 L 237 400 L 237 408 L 238 409 L 236 420 L 236 422 Q 235 426 237 428 L 237 436 L 236 437 L 237 438 L 237 450 L 237 452 L 236 455 Q 238 462 234 461 L 235 452 L 235 450 L 235 439 L 234 438 L 236 435 L 234 426 L 235 424 L 234 419 L 235 416 L 235 400 L 236 399 L 235 396 L 236 392 L 234 382 L 234 349 L 235 348 L 234 344 L 234 342 L 235 338 L 234 335 Z M 135 336 L 135 342 L 136 345 L 135 347 Q 134 351 136 353 L 135 355 L 136 364 L 136 366 L 135 371 L 136 373 L 136 409 L 135 410 L 136 413 L 136 451 L 135 452 Q 134 457 136 459 L 136 484 L 136 485 L 138 484 L 141 485 L 143 485 L 145 484 L 148 485 L 150 484 L 163 484 L 164 485 L 180 485 L 182 484 L 184 484 Q 189 483 191 485 L 192 484 L 192 475 L 192 473 L 191 471 L 192 467 L 192 455 L 191 454 L 192 451 L 192 432 L 192 428 L 192 411 L 191 410 L 191 393 L 192 392 L 191 390 L 191 375 L 191 373 L 191 350 L 192 349 L 191 347 L 192 343 L 191 338 L 183 338 L 176 340 L 165 340 L 164 341 L 149 341 L 135 336 Z M 195 338 L 195 340 L 194 342 Q 193 346 195 348 L 194 350 L 194 364 L 195 365 L 194 367 Q 193 371 195 373 L 193 381 L 195 391 L 193 398 L 193 408 L 195 416 L 195 427 L 194 428 L 194 444 L 195 445 L 194 454 L 194 456 L 194 470 L 195 471 L 194 475 L 194 477 Q 193 481 195 483 L 194 485 L 195 490 L 194 497 Q 192 500 190 499 Q 189 501 192 500 Q 194 505 196 502 L 195 498 L 196 488 Q 199 486 197 485 L 198 483 L 197 482 L 197 468 L 196 467 L 197 464 L 197 442 L 197 440 L 196 437 Q 195 432 197 431 L 196 429 L 196 417 L 197 416 L 197 408 L 196 407 L 197 402 L 196 400 Q 195 395 197 394 L 196 389 L 197 384 L 196 380 L 196 371 L 197 370 L 196 368 L 196 359 L 197 358 L 196 356 L 197 352 L 196 350 L 197 346 L 196 344 L 197 341 Q 198 337 195 338 Z M 300 339 L 296 340 Q 291 341 292 347 Q 290 350 289 346 L 287 348 L 289 353 L 287 354 L 285 351 L 283 352 Q 285 353 284 358 L 288 364 L 282 359 L 280 360 L 278 360 L 280 365 Q 284 371 293 372 L 295 372 L 297 373 Q 298 369 293 371 L 294 369 L 297 370 Q 306 370 309 364 L 310 367 L 313 362 L 313 360 L 311 361 Q 307 359 312 357 Q 314 356 313 360 L 314 360 L 314 350 L 311 344 L 307 342 Q 300 341 298 344 L 297 351 L 301 352 L 300 349 Q 299 346 303 347 L 306 352 L 306 356 L 304 359 L 301 360 Q 296 361 295 359 L 301 358 L 303 354 L 302 354 Q 295 354 293 350 L 294 345 L 300 341 L 300 339 Z M 242 340 Q 239 345 243 344 L 242 340 Z M 286 343 L 284 345 L 285 347 L 286 345 L 286 343 Z M 278 348 L 276 350 L 277 352 L 278 350 L 280 353 L 280 349 L 278 348 Z M 244 370 L 241 372 L 244 372 L 242 376 Q 241 378 245 377 L 243 380 Q 245 385 240 383 L 241 379 L 239 378 L 239 376 L 236 377 L 238 389 Q 237 392 240 391 L 243 398 L 249 400 L 257 400 L 257 402 L 253 403 L 247 402 L 244 400 L 242 401 L 253 405 L 260 403 L 257 394 Q 256 386 258 383 L 251 378 L 244 370 Z M 300 371 L 300 372 L 302 372 L 300 371 Z M 335 372 L 332 375 L 334 379 L 336 380 L 335 376 Q 332 374 336 373 L 335 372 Z M 262 384 L 262 387 Q 265 386 262 384 Z M 261 388 L 260 393 L 262 399 L 263 399 L 261 388 Z M 238 392 Q 235 398 239 397 L 238 392 Z M 241 398 Q 239 401 242 400 L 241 398 Z M 119 457 L 117 461 L 118 465 L 116 470 L 117 473 L 116 477 Q 115 481 117 483 L 116 485 L 118 514 L 120 509 L 120 507 L 118 500 L 119 498 L 118 496 L 119 492 L 118 487 L 119 483 L 118 480 L 119 475 L 118 472 L 120 467 L 118 463 L 119 461 L 119 457 Z M 12 478 L 6 481 L 7 487 L 23 487 L 24 488 L 25 487 L 59 487 L 58 485 Q 51 486 48 483 L 46 484 L 47 486 L 33 484 Q 29 479 22 478 L 14 478 L 12 478 Z M 40 482 L 40 483 L 46 483 L 40 482 Z M 62 486 Q 61 488 64 487 L 63 490 L 61 489 L 47 489 L 45 489 L 34 490 L 32 490 L 33 492 L 48 492 L 50 492 L 51 491 L 80 491 L 71 490 L 70 489 Q 64 491 66 486 L 62 486 Z M 320 486 L 320 487 L 325 487 L 320 486 Z M 113 487 L 112 490 L 104 490 L 103 489 L 101 490 Q 96 491 95 489 L 93 490 L 90 489 L 91 492 L 88 494 L 97 496 L 99 500 L 98 502 Q 96 503 99 504 L 113 504 L 113 507 L 111 507 L 103 507 L 102 506 L 94 506 L 93 504 L 92 504 L 88 506 L 95 507 L 99 511 Q 100 515 98 514 L 97 516 L 103 516 L 103 513 L 112 513 L 112 515 L 108 516 L 113 516 Q 115 515 113 514 Q 112 507 115 504 L 113 494 L 112 495 L 100 495 L 98 495 L 96 494 Q 93 495 94 492 L 108 493 L 110 493 L 112 492 L 114 493 L 113 487 Z M 201 487 L 202 489 Q 203 486 201 487 Z M 236 487 L 236 489 L 238 488 L 236 487 Z M 278 487 L 278 489 L 280 488 L 278 487 Z M 137 488 L 137 489 L 140 489 L 137 488 Z M 88 489 L 82 491 L 89 491 Q 90 488 88 489 Z M 200 490 L 200 491 L 206 491 L 200 490 Z M 224 490 Q 223 494 228 492 Q 229 488 224 490 Z M 237 490 L 237 493 L 239 492 Q 240 489 237 490 Z M 246 490 L 246 492 L 244 493 L 256 493 L 256 490 L 246 490 Z M 270 490 L 270 492 L 268 493 L 273 493 L 274 491 L 273 491 L 270 490 Z M 278 490 L 280 493 Q 285 495 284 492 L 285 490 L 282 491 L 278 490 Z M 136 491 L 136 497 L 138 496 L 141 497 L 156 497 L 151 496 L 149 496 L 147 495 L 139 495 L 138 493 L 141 492 Q 144 495 152 493 L 154 493 L 155 494 L 187 494 L 186 497 Q 188 501 190 498 Q 191 491 190 491 L 136 491 Z M 332 491 L 331 492 L 311 493 L 334 493 Q 335 490 332 491 Z M 6 492 L 6 494 L 13 495 L 16 493 L 16 492 L 12 493 L 6 492 Z M 20 492 L 20 493 L 22 493 L 20 492 Z M 290 492 L 290 493 L 292 493 L 290 492 Z M 299 492 L 299 493 L 309 493 L 299 492 Z M 71 493 L 70 494 L 28 494 L 25 495 L 18 495 L 17 497 L 20 496 L 47 496 L 48 495 L 50 497 Q 48 499 43 499 Q 47 498 49 501 L 51 496 Q 56 495 58 498 L 58 496 L 72 496 L 73 497 L 82 494 L 82 493 L 75 494 L 73 494 L 71 493 Z M 199 493 L 200 495 L 214 495 L 216 495 Q 218 496 217 494 L 216 494 L 205 494 L 199 493 Z M 277 493 L 277 494 L 279 494 L 277 493 Z M 225 494 L 227 496 L 228 499 L 229 499 L 228 496 Q 229 493 225 494 Z M 246 495 L 249 499 L 249 497 L 246 495 Z M 253 495 L 253 496 L 262 497 L 264 497 L 268 496 L 269 497 L 275 497 L 275 495 L 253 495 Z M 287 495 L 287 496 L 293 496 L 296 497 L 309 497 L 309 499 L 309 500 Q 313 501 315 499 L 317 500 L 317 498 L 310 498 L 310 496 L 314 497 L 316 496 L 318 497 L 320 497 L 335 497 L 335 495 L 330 496 L 328 495 L 287 495 Z M 79 496 L 74 499 L 72 503 L 78 505 L 86 505 L 86 502 L 82 503 L 79 503 L 83 500 L 88 501 Q 91 500 90 503 L 93 503 L 94 500 Q 90 494 79 496 Z M 161 496 L 162 498 L 166 497 L 161 496 Z M 170 496 L 170 497 Q 175 496 177 498 L 180 497 L 183 498 L 182 496 L 178 497 Q 176 494 170 496 Z M 279 496 Q 277 499 280 498 L 279 496 Z M 283 496 L 282 502 L 283 502 L 283 496 Z M 199 497 Q 198 501 201 502 L 201 499 L 217 499 L 218 500 L 218 497 L 216 498 Q 210 500 209 497 L 205 498 L 199 497 Z M 33 498 L 33 499 L 42 499 L 33 498 Z M 59 498 L 59 499 L 62 499 L 59 498 Z M 65 498 L 65 499 L 67 499 L 65 498 Z M 68 498 L 68 501 L 62 501 L 62 503 L 44 504 L 49 505 L 53 504 L 55 504 Q 57 503 56 506 L 66 505 L 66 503 L 69 505 L 68 504 L 71 499 L 68 498 Z M 137 498 L 135 506 L 137 508 L 137 505 L 142 505 Q 141 502 140 504 L 137 503 L 138 501 L 145 501 L 146 504 L 149 505 L 147 501 L 162 501 L 152 500 L 151 499 L 147 500 L 137 498 Z M 255 498 L 254 501 L 261 500 L 263 500 L 265 501 L 269 500 L 272 502 Q 276 503 274 499 L 256 499 L 255 498 Z M 288 498 L 286 501 Q 287 503 289 501 L 294 502 L 296 502 Q 298 503 297 500 L 302 500 L 301 503 L 313 503 L 315 503 L 317 504 L 320 503 L 323 504 L 325 504 L 326 502 L 306 502 L 305 499 L 289 499 L 288 498 Z M 19 499 L 8 504 Q 10 507 17 506 L 19 506 L 19 502 Q 23 501 25 505 L 30 504 Q 32 498 25 500 L 23 500 L 19 499 Z M 54 499 Q 52 502 55 501 L 54 499 Z M 225 499 Q 224 502 228 501 Q 229 498 225 499 Z M 168 500 L 168 501 L 176 501 L 168 500 Z M 239 500 L 238 503 L 239 503 L 239 500 Z M 244 500 L 244 505 L 246 505 L 246 500 L 244 500 Z M 34 501 L 34 504 L 37 503 L 42 504 L 42 502 L 45 502 L 34 501 Z M 232 501 L 232 504 L 231 505 L 231 521 L 234 521 L 233 520 L 233 503 L 232 501 Z M 240 501 L 240 504 L 242 505 Q 243 500 240 501 Z M 203 502 L 203 508 L 213 508 L 215 507 L 216 510 L 218 510 L 217 507 L 217 505 L 217 502 L 203 502 Z M 247 502 Q 246 506 249 505 Q 250 501 247 502 Z M 256 502 L 254 504 L 260 504 L 262 504 L 265 505 Q 268 504 267 507 L 271 506 L 287 506 L 288 507 L 322 507 Q 321 510 324 509 L 324 506 L 315 506 L 313 506 L 299 504 L 297 504 L 295 505 L 294 504 L 268 504 L 267 503 Q 259 505 256 502 Z M 331 502 Q 330 504 333 503 Q 334 505 335 503 L 331 502 Z M 151 503 L 152 505 L 154 505 L 154 510 L 158 509 L 155 507 L 157 505 L 187 505 L 189 505 Q 193 506 192 503 L 188 504 L 186 503 L 184 504 Q 178 506 177 503 L 173 504 L 169 504 L 164 503 L 162 504 L 160 504 L 157 503 L 155 503 L 153 504 L 151 503 Z M 224 503 L 224 505 L 226 504 L 224 503 Z M 237 503 Q 234 508 238 507 L 237 503 Z M 34 504 L 32 507 L 41 507 Q 35 507 34 504 Z M 197 504 L 198 507 L 199 505 L 197 504 Z M 253 505 L 252 507 L 258 507 L 253 505 Z M 7 506 Q 5 509 9 510 L 14 510 Q 9 509 7 506 Z M 49 506 L 52 509 L 56 507 L 49 506 Z M 151 506 L 150 509 L 151 509 L 151 506 Z M 224 506 L 224 511 L 228 511 L 228 510 L 224 506 Z M 25 507 L 24 510 L 25 510 L 25 507 Z M 66 507 Q 64 510 58 508 L 55 512 L 61 514 L 64 515 Q 70 516 72 514 L 70 511 L 74 510 L 77 509 Q 81 515 93 514 L 95 510 Q 89 507 78 508 L 76 508 Q 72 506 66 507 Z M 192 507 L 189 509 L 195 509 Q 196 506 192 507 Z M 334 507 L 331 509 L 335 509 Q 336 506 334 507 Z M 139 508 L 140 511 L 141 509 L 139 508 Z M 160 508 L 158 510 L 165 510 L 167 510 L 184 510 L 184 513 L 191 512 L 183 508 L 181 509 L 179 508 L 160 508 Z M 238 508 L 236 512 L 256 512 L 257 513 L 271 511 L 267 509 L 266 510 L 249 510 L 247 510 L 241 509 Q 239 512 238 508 Z M 283 508 L 282 510 L 284 511 L 294 511 Q 295 507 289 509 L 287 509 L 285 508 L 283 508 Z M 39 509 Q 37 512 36 510 L 23 515 L 20 519 L 21 521 Q 24 525 31 526 L 38 526 L 48 522 Q 51 521 50 516 L 40 517 Q 38 519 37 517 Q 36 514 39 515 L 39 513 L 47 512 L 48 511 L 47 509 L 39 509 Z M 122 509 L 122 513 L 124 512 L 127 514 Q 128 517 123 515 L 121 515 L 122 517 L 121 522 L 126 521 L 123 520 L 124 518 L 128 518 L 128 511 Q 127 508 126 510 L 122 509 Z M 142 509 L 141 512 L 143 512 Q 144 508 142 509 Z M 295 509 L 295 511 L 317 511 L 319 510 L 295 509 Z M 210 510 Q 209 512 213 512 Q 214 509 210 510 Z M 20 511 L 19 513 L 22 513 L 20 511 Z M 154 511 L 152 514 L 159 515 L 162 514 L 164 515 L 166 514 L 168 514 L 172 515 L 174 514 L 176 516 L 175 518 L 174 517 L 153 517 L 152 514 Q 149 513 150 517 Q 149 519 148 517 L 140 518 L 137 517 L 134 527 L 156 527 L 156 526 L 137 526 L 136 524 L 141 523 L 139 522 L 137 520 L 141 520 L 146 519 L 177 519 L 177 518 L 183 514 L 172 513 L 171 512 L 169 513 L 167 513 L 157 512 Q 155 515 154 511 Z M 332 511 L 329 512 L 329 513 L 335 513 L 332 511 Z M 52 512 L 49 514 L 54 516 L 56 515 L 52 512 Z M 137 512 L 135 516 L 139 515 L 137 512 Z M 322 512 L 322 513 L 324 513 L 322 512 Z M 75 513 L 75 516 L 82 516 L 75 513 Z M 201 513 L 200 514 L 187 515 L 183 517 Q 180 516 181 519 L 185 521 L 216 518 L 218 518 L 220 518 L 214 514 L 201 513 Z M 282 513 L 280 516 L 282 515 L 282 513 Z M 285 513 L 285 516 L 289 515 L 293 516 L 295 516 L 305 516 L 306 515 Q 309 517 316 516 L 318 518 L 324 517 L 317 513 L 285 513 Z M 13 514 L 10 516 L 15 517 L 18 516 Q 19 512 13 514 Z M 222 514 L 222 515 Q 228 514 227 517 L 228 517 L 228 514 L 222 514 Z M 239 514 L 236 516 L 245 517 L 248 516 L 253 517 L 255 516 L 261 517 L 264 516 L 269 517 L 269 514 L 259 514 L 258 515 L 253 514 L 251 514 L 245 515 L 241 515 L 239 514 Z M 57 515 Q 57 518 55 517 L 52 522 L 49 524 L 49 525 L 60 525 L 53 524 L 54 522 L 60 522 L 61 516 L 57 515 Z M 117 515 L 117 517 L 116 520 L 113 518 L 108 519 L 106 518 Q 101 517 100 519 L 98 518 L 91 518 L 90 516 L 87 518 L 74 518 Q 72 514 70 518 L 72 522 L 82 519 Q 93 517 99 522 Q 100 519 107 520 L 109 520 L 111 522 L 111 523 L 101 523 L 101 527 L 103 527 Q 102 524 105 525 L 107 525 L 112 525 Q 111 522 116 523 L 118 526 L 119 524 L 118 522 L 118 520 Q 120 514 117 515 Z M 327 515 Q 326 518 330 517 L 332 517 Q 336 518 335 515 L 333 516 L 327 515 Z M 6 517 L 8 520 L 13 520 L 6 517 Z M 65 517 L 63 519 L 64 522 L 66 518 L 65 517 Z M 285 518 L 285 520 L 282 521 L 280 521 L 278 522 L 271 519 L 259 519 L 258 520 Q 253 519 255 523 L 260 525 L 262 525 L 267 527 L 285 526 L 293 522 Q 295 523 294 521 L 293 519 L 285 518 Z M 297 518 L 299 521 L 301 520 L 303 520 L 306 521 L 308 521 Q 315 522 314 519 L 308 518 Q 301 516 300 519 L 297 518 Z M 15 519 L 16 521 Q 15 523 10 523 L 19 523 L 18 521 Q 19 518 15 519 Z M 67 519 L 66 523 L 65 525 L 68 525 L 67 519 Z M 237 519 L 237 521 L 239 520 L 241 521 L 243 520 L 249 522 Q 251 521 250 524 L 243 524 L 242 523 Q 236 521 237 526 Q 238 528 240 526 L 243 527 L 257 527 L 254 525 L 251 522 L 252 520 L 237 519 Z M 323 519 L 319 521 L 324 521 L 323 519 Z M 219 520 L 216 522 L 205 521 L 203 521 L 201 522 Q 197 521 198 524 L 195 525 L 200 526 L 205 525 L 208 526 L 217 524 L 217 527 L 211 527 L 210 529 L 214 530 Q 223 532 229 529 L 232 525 L 224 520 L 219 520 Z M 329 520 L 329 521 L 335 521 L 329 520 Z M 84 521 Q 82 524 76 522 L 74 525 Q 75 527 77 525 Q 83 523 82 527 L 75 529 L 81 531 Q 89 532 94 530 L 98 525 L 90 521 L 88 522 L 84 521 Z M 315 521 L 313 524 L 312 523 L 299 523 L 298 522 L 293 526 Q 287 524 288 528 L 291 529 Q 292 527 297 528 L 295 526 L 298 524 L 301 525 L 303 524 L 305 524 L 314 525 L 316 525 L 324 525 L 317 523 L 315 521 Z M 144 522 L 143 524 L 149 523 L 158 524 L 160 524 L 172 523 L 146 522 L 144 522 Z M 174 522 L 174 523 L 181 523 L 174 522 Z M 188 524 L 188 526 L 160 526 L 160 527 Q 167 525 166 529 L 168 528 Q 173 526 172 530 L 177 533 L 184 531 L 176 530 L 174 529 L 176 527 L 192 527 L 193 528 Q 194 525 191 526 L 191 524 L 188 524 Z M 7 525 L 7 527 L 9 526 Q 14 525 16 528 Q 18 529 17 526 L 22 526 L 7 525 Z M 69 525 L 69 527 L 39 527 L 33 529 L 57 529 L 59 529 L 61 528 L 62 529 L 71 529 L 72 527 L 69 525 Z M 119 527 L 119 529 L 120 530 L 129 530 Q 130 532 131 530 Q 123 530 119 527 Z M 302 527 L 302 528 L 306 529 L 308 529 L 314 530 L 314 527 L 302 527 Z M 322 527 L 320 528 L 318 532 L 315 533 Q 316 535 321 534 L 322 537 L 318 539 L 315 538 L 313 538 Q 306 538 304 542 L 305 544 L 309 546 L 334 546 L 334 531 L 328 528 L 329 532 L 332 530 L 333 534 L 330 535 L 328 535 L 329 543 L 325 545 L 325 530 L 324 529 Q 325 526 322 527 Z M 8 528 L 9 530 L 13 529 L 8 528 Z M 101 528 L 94 533 L 97 533 L 100 532 Q 99 529 102 530 L 103 534 Q 106 533 108 536 L 114 535 L 116 532 L 115 529 L 114 532 L 112 530 L 111 534 L 110 534 Q 112 528 108 529 L 108 534 L 106 530 L 105 533 L 104 531 L 101 528 Z M 197 528 L 197 530 L 200 529 L 206 530 L 206 528 L 197 528 Z M 30 529 Q 28 532 32 533 L 35 532 L 39 533 L 41 532 L 43 533 L 42 535 L 37 534 Q 31 533 33 537 L 36 538 L 36 536 L 40 536 L 40 539 L 42 539 Q 41 543 44 542 L 43 541 L 44 533 L 47 531 L 47 530 L 44 531 Q 39 532 38 530 L 36 531 Q 31 532 30 529 Z M 233 529 L 234 532 L 260 532 L 262 532 Q 269 534 268 530 L 243 530 L 242 529 L 237 530 L 233 529 Z M 49 530 L 51 534 L 50 543 L 49 545 Q 52 546 51 543 L 54 543 L 53 542 Q 54 539 56 541 L 61 540 L 63 541 L 65 541 L 68 540 L 84 540 L 84 539 L 53 539 L 52 537 L 84 537 L 86 536 L 86 535 L 53 535 L 52 533 L 76 533 L 75 531 L 64 531 L 63 530 L 58 531 L 56 531 L 49 530 Z M 132 530 L 132 531 L 137 531 L 132 530 Z M 163 530 L 163 533 L 161 534 L 164 534 L 165 532 Q 166 529 163 530 Z M 192 530 L 192 531 L 197 531 L 192 530 Z M 270 530 L 269 532 L 273 533 L 276 532 L 278 533 L 280 532 L 271 531 L 270 530 Z M 281 530 L 281 532 L 283 531 L 281 530 Z M 294 530 L 289 532 L 287 532 L 281 535 L 278 539 L 279 541 L 290 545 Q 297 546 301 544 L 302 539 L 299 538 L 297 535 L 304 532 L 303 530 L 294 530 Z M 12 531 L 6 536 L 7 541 Q 9 546 6 548 L 7 549 L 21 549 L 23 549 L 25 548 L 27 549 L 29 549 L 33 547 L 35 542 L 31 538 L 29 539 Q 27 537 26 540 Q 20 542 22 537 L 26 536 Q 31 538 29 533 L 26 531 L 12 531 Z M 171 531 L 170 533 L 172 534 L 171 531 Z M 229 531 L 228 532 L 210 533 Q 211 535 213 533 L 223 533 L 224 534 L 226 533 L 228 534 Q 232 535 231 533 L 229 531 Z M 311 531 L 307 532 L 306 535 L 311 536 L 314 536 L 313 535 L 311 531 Z M 120 532 L 122 534 L 128 533 L 120 532 Z M 154 532 L 150 534 L 154 534 L 154 532 Z M 204 532 L 203 534 L 209 533 L 204 532 Z M 131 533 L 131 534 L 148 534 L 131 533 Z M 183 533 L 182 534 Q 179 533 180 536 L 176 537 L 174 543 L 177 544 L 192 544 L 202 541 L 203 538 Q 197 531 183 533 Z M 236 534 L 234 536 L 209 536 L 206 535 L 206 537 Q 205 540 210 538 L 212 538 L 221 538 L 222 537 L 225 538 L 231 537 L 233 537 L 242 537 L 243 538 Q 244 535 251 537 L 253 537 L 258 536 L 260 537 L 262 537 L 264 534 L 256 535 L 254 535 L 249 534 L 244 535 L 241 534 L 239 535 L 236 534 Z M 303 534 L 302 536 L 305 536 L 303 534 Z M 87 535 L 87 537 L 90 536 L 87 535 Z M 173 535 L 172 536 Q 169 535 170 538 L 173 537 L 173 535 Z M 266 535 Q 265 538 271 537 Q 272 533 266 535 Z M 274 535 Q 274 539 276 536 L 274 535 Z M 100 536 L 92 538 L 87 544 L 89 547 L 90 548 L 110 548 L 112 548 L 125 546 L 128 542 Q 129 538 126 537 Q 115 535 112 540 L 103 536 L 100 536 Z M 131 536 L 132 538 L 143 538 L 131 536 Z M 154 536 L 151 537 L 152 539 L 154 538 L 154 536 Z M 160 537 L 158 539 L 163 541 Q 166 542 165 540 Q 164 536 160 537 Z M 47 538 L 45 540 L 48 541 L 47 538 Z M 275 538 L 273 540 L 270 539 L 255 539 L 252 540 L 249 539 L 247 540 L 214 540 L 212 540 Q 206 539 205 542 L 221 542 L 222 543 L 223 542 L 254 542 L 256 541 L 262 541 L 266 542 L 269 541 L 271 542 L 275 541 L 276 542 L 275 538 Z M 147 539 L 148 541 L 149 541 L 147 539 Z M 153 541 L 153 543 L 158 543 L 153 541 Z M 40 542 L 37 548 L 39 547 L 54 548 L 55 549 L 59 548 L 45 547 Q 43 544 40 545 L 40 542 Z M 75 542 L 76 544 L 78 543 L 81 544 L 83 543 L 75 542 Z M 199 544 L 191 546 L 215 546 Q 216 542 211 544 L 209 544 L 204 545 L 199 544 Z M 222 544 L 218 545 L 218 546 L 225 546 L 222 544 Z M 226 544 L 227 546 L 229 545 Q 230 548 236 546 L 238 546 L 242 545 L 244 546 L 247 545 L 248 546 L 248 544 L 226 544 Z M 257 544 L 257 545 L 260 546 L 264 545 L 257 544 Z M 267 544 L 268 545 Q 269 547 270 545 L 267 544 Z M 272 544 L 272 545 L 279 545 L 272 544 Z M 60 545 L 60 546 Q 66 544 68 547 L 70 546 L 71 547 Q 80 546 85 548 Q 86 545 82 546 L 79 545 L 77 546 L 75 546 L 74 545 L 60 545 Z M 169 545 L 167 547 L 174 547 Q 175 543 169 545 Z M 129 546 L 130 548 L 132 547 L 129 546 Z M 154 546 L 154 547 L 161 547 L 154 546 Z M 303 548 L 302 549 L 185 549 L 183 549 L 178 550 L 122 550 L 121 551 L 114 550 L 112 550 L 110 551 L 106 550 L 105 551 L 8 551 L 6 553 L 7 560 L 7 562 L 6 567 L 6 569 Q 4 575 7 577 L 7 586 L 6 587 L 7 590 L 8 592 L 114 592 L 116 592 L 143 591 L 145 587 Q 146 580 143 578 L 141 577 L 142 580 Q 143 583 140 584 L 133 583 L 132 578 Q 134 574 139 575 L 137 571 L 138 566 L 145 565 L 146 568 Q 149 569 145 571 L 143 569 L 142 569 L 144 573 Q 143 575 146 574 L 147 575 L 146 573 L 150 570 L 153 576 L 153 579 Q 151 582 149 581 L 150 584 L 149 587 Q 148 591 150 591 L 189 591 L 191 591 Q 196 593 198 590 L 200 591 Q 203 588 212 590 L 214 590 L 219 591 L 315 591 L 316 590 L 318 591 L 330 591 L 333 590 L 334 590 L 334 549 L 304 549 L 303 548 Z M 138 577 L 136 581 L 139 580 L 138 577 Z "></path><path d="M 211.5 13 Q 218.7 10.7 216 18.5 L 217 19.5 L 218 40.5 L 223 51.5 L 223 56.5 Q 220.6 66.6 213.5 72 L 205.5 78 L 203.5 78 L 203.5 77 L 206.5 76 L 216 67.5 Q 221.3 62.8 220 51.5 L 218.5 49 L 218 56 Q 214.2 57.5 215 54.5 L 216 52.5 L 214.5 48 L 213 62.5 L 215 62.5 L 213.5 65 L 210 64.5 L 211 62 Q 207.3 60.5 208 63.5 L 204.5 69 L 200.5 71 L 199.5 66 L 196 71.5 L 197 74 L 194 72.5 L 196 69.5 L 198 58.5 Q 196.5 55.5 195 58.5 L 196 62.5 L 194 66 Q 191.3 67.1 192 64.5 L 193 62.5 L 190.5 59 Q 188.8 62.8 187 59.5 Q 188.9 53.2 184 55 L 183.5 57 L 183 55.5 L 184 54.5 L 180 50.5 L 179.5 44 L 178 44.5 L 177 42.5 L 181.5 36 L 183 36.5 Q 179 37.5 180 43.5 L 181 43.5 L 185.5 35 Q 187.8 34.3 187 36.5 L 183 42.5 L 182 48.5 L 185 53 L 190.5 53 L 197 49 L 198.5 46 L 200.5 47 L 204 42.5 L 204 37.5 L 206 35.5 L 207 27.5 L 209 24.5 L 209 16.5 L 211.5 13 Z M 213 15 L 210 22 L 212 30 L 212 32 L 215 43 L 216 43 Q 217 36 214 34 L 214 17 L 213 15 Z M 210 29 L 209 35 L 211 42 L 212 42 L 210 29 Z M 208 37 L 206 39 L 206 44 L 209 50 L 210 50 L 208 37 Z M 213 42 L 213 48 L 214 48 L 213 42 Z M 203 45 L 205 55 L 206 55 Q 208 48 205 47 Q 206 44 203 45 Z M 199 48 L 196 52 L 195 53 L 197 55 L 194 53 L 193 56 L 191 55 L 190 57 L 190 58 Q 196 59 198 56 L 199 54 L 199 48 Z M 201 53 Q 203 60 199 62 L 201 66 L 203 63 L 203 54 L 201 53 Z M 210 55 L 208 58 Q 207 62 210 61 L 211 59 L 210 55 Z M 206 60 L 203 65 L 204 67 L 206 64 L 206 60 Z "></path><path d="M 125 14 Q 129.7 13 131 16.5 L 131.5 19 L 134.5 17 L 136 19.5 L 136 21.5 L 137 33.5 L 139 35.5 L 138 36.5 L 141 39.5 L 142 42.5 L 141 46.5 L 143.5 50 L 145.5 50 L 148.5 52 L 152.5 56 L 153.5 55 L 155 55.5 L 155 61 Q 152.3 62.1 153 59.5 L 152 59.5 Q 153.5 67.1 150 66 L 147.5 61 Q 145.3 60.3 146 62.5 L 145 64.5 Q 147.3 65.8 144.5 67 Q 141.9 66.3 143 69 L 141 69 L 140.5 65 Q 137.3 66.2 138 70 Q 135.3 71.1 136 68.5 L 138.5 65 L 141.5 64 L 143 64.5 Q 142.5 59.5 146.5 59 Q 151.8 60.5 150 56 L 143.5 60 L 142.5 56 L 139.5 63 Q 136.1 63.9 138 58.5 Q 140.8 55.8 140 49.5 L 139 49.5 Q 135.6 54.6 137 64.5 L 134.5 69 Q 132.1 66.7 133 62 Q 136.3 63.3 135 58.5 L 132.5 54 Q 129.7 56.8 131 63 L 129 62.5 L 129 52.5 L 127.5 52 L 126 48.5 L 128 39.5 L 130 36.5 L 130 31.5 Q 133 27.5 133 20.5 L 132 20.5 L 130 29 Q 124.8 27.2 127 34.5 L 124 47.5 L 124 57.5 L 125 60.5 L 134.5 74 L 142 78.5 L 139.5 79 L 133 76 Q 134.1 73.3 131.5 74 Q 125.1 68.9 122 60.5 L 122 50.5 L 123 49.5 L 124 32.5 L 126 28.5 L 126 17.5 L 125 14 Z M 135 29 L 130 40 L 131 43 L 135 34 L 135 29 Z M 136 36 L 133 43 L 136 41 L 136 36 Z M 133 43 L 132 48 L 133 48 L 133 43 Z M 135 43 L 134 49 Q 132 54 136 53 L 135 52 L 137 47 Q 138 42 135 43 Z M 130 44 L 129 48 L 130 48 L 130 44 Z M 132 48 L 131 51 L 132 51 L 132 48 Z M 142 51 Q 141 54 144 53 Q 145 50 142 51 Z "></path><path d="M 185.5 30 Q 190.9 28.1 190 31.5 L 186.5 34 L 183.5 33 L 178.5 36 L 167 36 L 168 42.5 L 166 43.5 L 164 38.5 L 165 36 L 161.5 35 L 161 36.5 Q 164.5 40 165 46.5 L 162.5 50 L 161 39.5 L 156 34.5 L 156 32.5 Q 157.3 29.8 158.5 32 L 165.5 35 L 169.5 35 L 171.5 34 L 173.5 34 L 179.5 34 L 185.5 30 Z "></path><path d="M 170.5 38 Q 173.1 37.2 172 40.5 L 170 41.5 L 169 39.5 L 170.5 38 Z "></path><path d="M 174 38 L 177 38.5 L 176 42 Q 172.3 43.2 174 38 Z "></path><path d="M 177.5 50 L 178.5 52 Q 175.7 52.7 177.5 50 Z "></path><path d="M 166.5 51 L 167 52.5 L 166 55 Q 163.3 56.1 164 53.5 L 166.5 51 Z "></path><path d="M 159 56 Q 162.3 54.7 161 59.5 L 163 59.5 L 161.5 62 L 159 56 Z "></path><path d="M 184.5 60 L 185 62.5 L 184 62.5 L 184.5 60 Z "></path><path d="M 160.5 63 L 159.5 65 Q 156.5 64.1 158 68.5 L 158.5 70 Q 152.7 67.9 154 72.5 L 152 71.5 L 158.5 64 L 160.5 63 Z "></path><path d="M 187 66 L 190 67.5 L 188.5 70 L 187 66 Z "></path><path d="M 145.5 71 Q 149.3 70 148 73 L 145.5 72 L 143 73.5 Q 142.3 71.3 144.5 72 L 145.5 71 Z "></path><path d="M 185 72 Q 188 71 187 74 Q 184 75 185 72 Z "></path><path d="M 184.5 78 L 188 78.5 L 184.5 79 L 184.5 78 Z "></path><path d="M 146.5 79 L 152 80.5 L 147.5 81 L 146.5 79 Z "></path><path d="M 170.5 104 L 175 104.5 L 174 105.5 L 174 114 L 181.5 114 L 183.5 112 L 185 115.5 L 184 118 L 175.5 116 Q 172.5 117.5 174 123.5 L 175 127 L 169 127 L 169 125 L 171 124.5 L 171 117 L 162.5 116 L 159 118 L 160 113 L 169.5 115 Q 172.3 113.8 171 108.5 L 169 105.5 L 170.5 104 Z "></path><path d="M 160.5 153 L 163.5 154 L 166 153 L 166 165.5 L 167.5 166 L 171 161 Q 173.7 162.1 173 159.5 Q 174.2 157 178 158 L 187 170 L 189 169.5 L 187 162.5 L 187 155 L 185 154.5 L 193 154 L 192 166.5 L 193 167.5 L 193 176.5 L 195 178.5 L 184.5 179 L 185 177.5 L 176.5 167 L 172.5 164 L 168 169.5 L 166 176.5 L 168 177 L 167.5 179 L 157.5 179 L 160 175.5 L 160 158.5 L 159 157.5 Q 161.3 156.3 158.5 155 L 157 154.5 L 160.5 153 Z "></path><path d="M 135.5 160 L 144.5 160 L 145 162 L 135.5 161 L 135.5 160 Z "></path><path d="M 316 160 L 328.5 160 L 329 162 Q 325.7 159.9 317.5 161 L 316 161.5 L 316 160 Z "></path><path d="M 308.5 162 L 309 164 L 306.5 165 L 306 163 L 308.5 162 Z "></path><path d="M 324.5 163 Q 331.6 162.3 335 164 Q 336.1 166.7 333.5 166 Q 330.8 163.2 324.5 164 L 324.5 163 Z "></path><path d="M 314.5 165 L 317 165.5 L 311.5 167 L 305.5 171 L 307.5 168 L 314.5 165 Z "></path><path d="M 312.5 170 L 313 172 L 308.5 173 L 309.5 171 L 312.5 170 Z "></path><path d="M 302.5 172 L 303 173.5 L 302 176 Q 299.3 177.1 300 174.5 L 302.5 172 Z "></path><path d="M 176.5 183 L 178 183.5 L 177 186.5 L 179.5 190 L 187 187 L 188 192 L 186 192 Q 187.1 189.3 184.5 190 L 179.5 192 L 175 188.5 L 174.5 187 L 173.5 190 L 171 186.5 Q 172.3 183.8 173.5 186 Q 175.8 186.8 175 184.5 L 176.5 183 Z "></path><path d="M 197.5 184 Q 200.1 183.2 199 186.5 L 196 188 L 197.5 184 Z "></path><path d="M 161.5 185 Q 165.9 183.5 165 186.5 L 168 188.5 L 167.5 190 L 171 189 L 169.5 192 Q 165 193 164 190.5 L 163.5 189 L 163 191 Q 158.3 192 157 188.5 Q 156 184.8 159 186 L 159.5 188 L 161.5 187 L 164.5 188 L 163.5 186 Q 160.5 186.5 161.5 185 Z "></path><path d="M 193.5 187 L 195 187.5 Q 193.8 190.8 190 190 Q 188.8 187 192.5 188 L 193.5 187 Z "></path><path d="M 290.5 188 L 293 189.5 Q 293.8 191.8 291.5 191 L 289.5 190 L 286 192.5 Q 286.8 194.8 284.5 194 L 282 195.5 L 284.5 192 L 287.5 190 L 290.5 188 Z "></path><path d="M 272.5 191 Q 275.3 192.3 273 193.5 L 271 198.5 L 270 214.5 L 276.5 225 L 286.5 230 L 294.5 231 L 302.5 229 L 309.5 225 L 310 228 L 300.5 232 L 288.5 233 L 278.5 230 L 270 222.5 L 267 216.5 L 266 201.5 Q 267.5 194.6 272.5 191 Z "></path><path d="M 279.5 193 Q 282.8 194.8 279 196.5 L 275.5 203 L 274 199.5 L 279.5 193 Z "></path><path d="M 279.5 201 Q 282.3 202.3 281 207.5 L 278 209 L 278 202.5 L 279.5 201 Z "></path><path d="M 101 202 Q 104.8 200.5 104 203.5 Q 105.4 206.3 110 205 Q 111.9 207.7 111 214.5 Q 109.8 217.3 108.5 215 L 105.5 215 L 101 210.5 L 100 206.5 L 101 202 Z M 102 206 L 105 212 Q 111 214 109 209 L 102 206 Z "></path><path d="M 273.5 209 Q 276.5 208.1 275 212.5 L 279 221 L 275 218.5 L 272 210.5 L 273.5 209 Z "></path><path d="M 138.5 212 L 140.5 212 L 146 216.5 L 147 220.5 Q 146.3 223.8 141.5 223 L 139 222 Q 136.4 219.7 137 213.5 L 138.5 212 Z M 140 217 L 140 219 L 144 221 L 144 220 L 140 217 Z "></path><path d="M 280 214 Q 283.8 212.5 283 215.5 L 283.5 217 L 280 215.5 L 280 214 Z "></path><path d="M 242.5 215 Q 245.5 214.1 244 218.5 Q 247.6 219.9 247 225.5 L 246 228 L 238 227 L 237 220.5 L 242.5 215 Z M 242 220 Q 239 221 240 225 L 243 226 L 244 226 L 242 220 Z "></path><path d="M 311.5 215 L 313 215.5 L 310.5 219 Q 306.2 223.2 298.5 224 L 296.5 223 L 294.5 223 Q 288.8 222.8 286 219.5 L 288.5 219 Q 292 223 300.5 222 Q 308.4 220.9 311.5 215 Z "></path><path d="M 92.5 222 Q 91.9 226.6 94.5 228 Q 98.5 227.5 99 230.5 L 100 234.5 L 94.5 237 L 90 233.5 L 89 225.5 L 92.5 222 Z M 90 227 L 91 233 L 94 234 L 98 234 L 97 232 L 92 229 Q 93 226 90 227 Z "></path><path d="M 170.5 224 Q 174.3 223 173 226 L 169.5 227 L 169 225.5 L 170.5 224 Z "></path><path d="M 284 224 L 291.5 226 L 299.5 226 L 305 224 Q 306.1 226.7 303.5 226 Q 299.8 229.3 291.5 228 L 284 226 L 284 224 Z "></path><path d="M 170.5 228 Q 173.8 226.9 173 229.5 L 169 231 L 170.5 228 Z "></path><path d="M 175 228 Q 178 227 177 230 Q 174 231 175 228 Z "></path><path d="M 311.5 229 Q 321.3 227.7 325.5 232 L 326 230.5 L 325.5 229 L 332 232 L 333 236.5 L 327.5 232 L 326 232.5 Q 333.5 236.5 333 248.5 L 326.5 258 Q 324 262.5 315.5 261 Q 310.6 258.9 310 252.5 L 312.5 248 L 316.5 246 L 320 248.5 Q 320.8 250.8 318.5 250 L 316.5 248 L 313 251.5 L 317.5 259 Q 325.6 258.6 328 252.5 Q 330.5 249 329 241.5 L 323.5 234 Q 320 230 311.5 231 Q 303.6 232.6 299.5 238 L 300 236.5 Q 299.3 234.3 301.5 235 Q 304.9 230.4 311.5 229 Z "></path><path d="M 250 230 L 252.5 230 L 260 234.5 L 261 238.5 Q 259.8 242.3 253.5 241 L 251 238.5 L 250 230 Z M 254 234 Q 253 238 256 239 Q 259 240 258 237 L 254 234 Z "></path><path d="M 171.5 232 Q 173.8 231.3 173 233.5 L 169 235 Q 167.9 232.3 170.5 233 L 171.5 232 Z "></path><path d="M 175 232 L 177 232.5 L 175 233.5 L 175 232 Z "></path><path d="M 140.5 233 Q 143.1 232.2 142 235.5 L 148 240.5 L 149 245.5 L 146.5 249 Q 141.8 248.8 140 245.5 L 137 236.5 L 140.5 233 Z M 142 239 L 142 244 L 146 246 L 146 243 L 142 239 Z "></path><path d="M 314.5 233 Q 322.9 233.1 326 238.5 L 327 243 Q 324.3 244.1 325 241.5 L 321.5 237 Q 319.2 234.3 313.5 235 L 306.5 237 L 307.5 235 L 314.5 233 Z "></path><path d="M 175.5 236 Q 177.8 235.3 177 237.5 L 175.5 236 Z "></path><path d="M 311.5 237 Q 321.9 235.6 324 242.5 Q 325.3 247.3 322 246 L 321 242 L 312.5 238 L 307.5 242 L 307 240.5 L 311.5 237 Z "></path><path d="M 175 240 Q 178 239 177 242 Q 174 243 175 240 Z "></path><path d="M 298.5 240 L 299 248.5 L 301 257 L 298 255.5 L 296 248.5 L 296 243.5 L 298.5 240 Z "></path><path d="M 302 240 Q 304.7 238.9 304 241.5 L 303 243.5 L 305 245.5 L 306 252.5 Q 304.5 255.5 303 252.5 L 302 246 Q 299.3 247.1 300 244.5 L 302 240 Z "></path><path d="M 176.5 244 L 177 246 L 175 245.5 L 176.5 244 Z "></path><path d="M 245.5 248 Q 248.5 247.1 247 251.5 L 251 257.5 L 247.5 262 Q 242 261.6 240 257.5 Q 240.9 250.9 245.5 248 Z M 245 254 L 243 256 L 244 259 L 247 260 L 248 257 L 245 254 Z "></path><path d="M 279.5 248 L 284 251.5 L 281.5 253 L 278 250.5 L 279.5 248 Z "></path><path d="M 324.5 249 L 326 249.5 L 322.5 254 L 321 253.5 L 324.5 249 Z "></path><path d="M 103.5 250 L 106.5 256 L 110 258.5 L 109 265 L 102 261.5 L 100 257.5 L 103.5 250 Z M 104 257 Q 102 260 106 261 Q 109 262 108 260 L 104 257 Z "></path><path d="M 174.5 250 Q 179.9 248.1 179 251.5 L 177 255 Q 173.3 256.5 174 253.5 L 173 251.5 L 174.5 250 Z "></path><path d="M 176.5 256 L 177 258 L 175 257.5 L 176.5 256 Z "></path><path d="M 175 259 Q 178 258 177 261 Q 174 262 175 259 Z "></path><path d="M 292.5 260 Q 295.1 259.2 294 262.5 L 296 268.5 Q 294.5 271.5 293 268.5 L 291 261.5 L 292.5 260 Z "></path><path d="M 175 263 Q 178 262 177 265 Q 174 266 175 263 Z "></path><path d="M 175.5 267 L 179 268 Q 179.8 271.8 176.5 273 L 173 270.5 L 175.5 267 Z "></path><path d="M 175.5 279 L 178 279.5 Q 175.9 282.8 175.5 279 Z "></path><path d="M 159.5 285 L 167.5 285 L 168 286.5 L 166.5 288 L 158 288 L 159.5 285 Z "></path><path d="M 179 295 Q 182 294 181 297 Q 178 298 179 295 Z "></path><path d="M 300 296 L 303 297.5 L 304 306.5 L 302 316.5 L 296.5 325 L 293 326 Q 291.9 323.3 294.5 324 Q 302.3 316.8 301 300.5 L 300 296 Z "></path><path d="M 96.5 324 L 98.5 329 L 102 330.5 L 103 333.5 L 100.5 337 L 94 332.5 Q 93 326 96.5 324 Z M 97 330 L 96 332 L 100 334 L 101 334 L 100 331 L 97 330 Z "></path><path d="M 187 329 Q 192.2 327.3 191 331 Q 185.8 332.7 187 329 Z "></path><path d="M 194.5 329 Q 197.1 328.3 196 331 L 193 330.5 L 194.5 329 Z "></path><path d="M 274.5 331 Q 277.1 330.2 276 333.5 Q 281.3 335.8 277.5 338 L 273 334.5 L 274.5 331 Z "></path><path d="M 307 346 L 311 347 L 313 350.5 L 313 354 Q 310.3 355.1 311 352.5 L 307 346 Z "></path><path d="M 180.5 350 Q 183.5 349.1 182 353.5 Q 187.5 355.3 186 363 Q 179.7 364.5 178 360.5 L 177 357.5 Q 179 354 181 358.5 Q 180.3 360.8 182.5 360 L 182 358.5 L 179.5 355 Q 176.2 356.1 177 353.5 L 178 351 L 180.5 350 Z "></path><path d="M 290.5 355 L 293 356.5 Q 293.8 358.8 291.5 358 L 289 356.5 L 290.5 355 Z "></path><path d="M 282.5 363 L 287 366.5 Q 287.8 368.8 285.5 368 L 282 364.5 L 282.5 363 Z "></path><path d="M 254.5 364 Q 258.1 366.1 258 371 Q 255 370 256 373 L 265.5 379 L 271.5 379 L 278 376.5 L 272 375.5 L 279 374 L 280 378 L 271.5 381 L 265.5 381 L 261.5 380 L 252 371.5 L 251 369.5 L 254 367.5 L 253 365.5 L 254.5 364 Z "></path><path d="M 98.5 365 Q 98.1 371.8 103 373.5 L 103 377.5 Q 102.3 379.8 98.5 379 L 95 376.5 L 94 369.5 L 96.5 366 L 98.5 365 Z M 97 370 L 95 372 L 97 375 Q 96 377 100 376 L 101 377 L 97 370 Z "></path><path d="M 158.5 369 Q 160.8 368.3 160 370.5 L 159 372.5 L 166 377.5 Q 167 383 163.5 384 L 157 379.5 L 155 374.5 L 158.5 369 Z M 159 375 Q 157 378 160 379 L 163 379 L 159 377 L 159 375 Z "></path><path d="M 259 371 Q 262.8 370.3 264 373.5 Q 262.8 376.3 261.5 374 L 259 372.5 L 259 371 Z "></path><path d="M 321 375 Q 324.7 373.5 324 376.5 L 325 381.5 Q 323.5 384.5 322 381.5 L 321 375 Z "></path><path d="M 326 377 Q 328.7 375.9 328 378.5 L 329 383 L 326 383 L 326 377 Z "></path><path d="M 86.5 381 Q 89.5 380.1 88 384.5 L 94 388.5 Q 95 393 92.5 394 L 90.5 389 Q 86.8 389.8 86 387.5 L 85.5 386 L 85 388.5 L 86 391 L 91 392 Q 92.5 395.7 89.5 395 L 84 391.5 L 83 386.5 L 86.5 381 Z "></path><path d="M 207.5 384 Q 210.5 383.5 209 390.5 L 213 393.5 Q 213.8 397.3 211.5 398 L 208.5 399 L 203 395.5 L 202 388.5 L 207.5 384 Z M 207 392 Q 204 398 209 396 L 207 392 Z "></path><path d="M 240 386 Q 243.7 384.5 243 387.5 L 247.5 394 Q 253.8 392.1 252 397 Q 243.9 397 241 390.5 L 240 386 Z "></path><path d="M 270.5 386 L 272 386.5 L 272 393 Q 269.3 394.1 270 391.5 L 269 387.5 L 270.5 386 Z "></path><path d="M 326.5 388 Q 328.8 387.3 328 389.5 Q 326 400.5 318.5 406 L 304.5 414 L 288.5 414 L 287.5 412 Q 299.6 413.6 307.5 411 L 322 398.5 L 326.5 388 Z "></path><path d="M 319.5 395 L 321 397.5 L 314 403 L 319.5 395 Z "></path><path d="M 272 397 Q 275.7 395.5 275 398.5 L 277 401.5 L 274.5 402 L 272 397 Z "></path><path d="M 327.5 399 Q 330.1 398.2 329 401.5 L 321.5 410 L 318.5 412 Q 310 420.5 291.5 419 L 289 418 Q 287.9 415.3 290.5 416 L 293.5 417 L 301.5 417 Q 304.4 414.4 310.5 415 L 320 409 L 327.5 399 Z "></path><path d="M 278 403 L 282.5 406 L 291 407 Q 292.3 410 288.5 409 Q 287.3 406.8 282.5 408 L 278 404.5 L 278 403 Z "></path><path d="M 205.5 404 Q 208.5 403.1 207 407.5 L 213 412.5 Q 213.5 416.5 210.5 417 L 206.5 418 L 203 415.5 L 201 410.5 L 205.5 404 Z M 206 410 L 205 414 L 209 415 L 206 410 Z "></path><path d="M 311.5 404 Q 314.1 403.3 313 406 Q 308.5 405.8 306.5 409 L 296.5 410 L 295.5 408 Q 306.8 409.3 311.5 404 Z "></path><path d="M 250.5 407 L 260 412 L 262 415.5 L 262 419.5 L 258.5 421 Q 257.5 418 252.5 419 L 249 415.5 Q 247.2 408.8 250.5 407 Z M 252 412 L 252 416 L 256 418 Q 260 420 259 416 Q 257 412 252 412 Z "></path><path d="M 101.5 408 L 102 411 L 105.5 410 L 110 412.5 L 111 418 L 107.5 419 L 102.5 418 L 100 415.5 L 101.5 408 Z M 104 414 L 106 416 L 108 416 L 109 416 Q 108 413 104 414 Z "></path><path d="M 245.5 433 Q 248.8 431.9 248 434.5 L 251 440.5 L 250 443 Q 246.3 444.4 248 438.5 L 245.5 435 L 243 438.5 L 245.5 442 L 247 442.5 L 243.5 443 Q 240 440.7 241 435 L 245.5 433 Z "></path><path d="M 142.5 440 L 148 442 L 150 445.5 L 150 448.5 L 149 451 L 142.5 450 L 140 447.5 Q 138.8 441.3 142.5 440 Z M 144 443 L 142 445 L 143 447 Q 142 449 146 448 L 147 449 Q 148 443 144 443 Z "></path><path d="M 243.5 455 L 245 455 L 245 459 L 246.5 459 L 252 462.5 L 250.5 466 L 245.5 467 L 240 462.5 Q 239.3 456.3 243.5 455 Z M 244 459 L 244 465 L 248 466 L 249 464 Q 247 459 246 462 L 244 459 Z "></path><path d="M 144.5 457 Q 147.3 458.3 145 459.5 Q 143.9 462.8 146.5 462 L 150 466.5 L 150 469.5 L 146.5 472 L 140 468 L 139 463.5 L 144.5 457 Z M 142 463 L 142 466 L 147 469 L 145 465 L 142 463 Z "></path><path d="M 162.5 461 Q 165.1 460.2 164 463.5 L 170 466 Q 171.5 471.4 168.5 473 L 164.5 472 L 158 466.5 L 162.5 461 Z M 162 465 Q 162 469 166 469 L 167 471 L 167 469 L 162 465 Z "></path><path d="M 98.5 465 Q 101.1 464.2 100 467.5 L 105 471.5 L 106 473.5 L 103.5 477 Q 97.3 477.7 96 473.5 L 95 469.5 L 98.5 465 Z M 99 469 Q 97 474 100 475 L 103 475 L 99 469 Z "></path><path d="M 206.5 465 Q 209.8 463.9 209 466.5 L 208.5 468 Q 210.8 467.3 210 469.5 L 212 473.5 L 210 477 L 202 472.5 Q 201 467 204.5 466 L 206.5 465 Z M 206 468 L 204 470 L 205 473 L 209 474 L 206 468 Z "></path><path d="M 260 466 Q 263.8 464.5 263 467.5 L 271 473.5 L 269.5 477 L 265.5 472 L 261.5 470 L 261 473.5 Q 262.3 477 267 476 L 266.5 478 L 261.5 477 L 259 474.5 L 258 470.5 Q 260.8 469.4 260 466 Z "></path><path d="M 99 496 L 111.5 496 L 112 497.5 L 109.5 499 L 107.5 499 Q 102.8 500.3 101.5 498 Q 100.3 500.3 99 497.5 L 99 496 Z "></path><path d="M 122 496 Q 127.2 494.3 126 498 Q 120.8 499.7 122 496 Z "></path><path d="M 205.5 503 L 207.5 504 L 209.5 504 L 211.5 503 L 214 504 L 213.5 506 L 204 506 L 205.5 503 Z "></path><path d="M 100 508 L 111.5 508 L 112 509.5 L 109.5 511 L 106.5 510 L 104.5 510 Q 98.7 511.7 100 508 Z "></path><path d="M 55.5 518 Q 59.9 516.5 59 519.5 L 56.5 521 L 54 519.5 L 55.5 518 Z "></path><path d="M 342.5 555 Q 344.8 554.3 344 556.5 L 342.5 555 Z "></path><path d="M 264.5 556 L 275 557 L 273 564 Q 268.1 565.8 270 559.5 L 267.5 558 L 262 559 Q 260.8 564.5 264.5 566 L 271.5 567 L 276.5 566 L 281 569.5 L 282 574.5 L 279 580 L 270.5 582 L 264.5 582 L 262.5 582 L 260.5 581 Q 258.2 583.7 252.5 583 Q 249.5 581.5 252.5 580 L 256 577.5 Q 255 573 257.5 572 L 262 575.5 L 264.5 579 L 273 579 L 273 571.5 L 269.5 570 L 266.5 571 Q 259.9 570.1 257 565.5 Q 255.8 559.3 259.5 558 L 264.5 556 Z "></path><path d="M 214.5 557 L 217.5 558 L 219.5 557 L 221 561 L 219 561.5 L 219 575.5 L 216.5 580 L 214 581.5 Q 214.8 583.8 212.5 583 Q 211 585.5 205.5 584 L 199 579.5 L 196 569.5 L 197 568.5 L 197 561 L 194 559.5 L 194.5 558 L 205.5 558 L 207 560.5 L 204 562 L 203 565.5 Q 205.8 567.2 204 573.5 L 206 578 L 215 577 L 215 561.5 L 213.5 561 L 212 558 L 214.5 557 Z "></path><path d="M 229.5 557 L 247.5 557 L 251 560.5 L 250 567.5 L 248.5 569 Q 244.6 571.9 238 571 L 238 580.5 L 240.5 581 L 239.5 583 L 229.5 583 L 229 581.5 L 231 577.5 L 230 574.5 L 230 560.5 L 227 560 L 227 558 L 229.5 557 Z M 237 560 L 238 567 L 240 568 L 243 567 Q 245 568 244 562 Q 242 559 237 560 Z "></path><path d="M 44.5 558 L 48.5 559 Q 50.2 556.3 56.5 558 Q 59.3 559.3 57 560.5 L 56 562.5 L 56 583 L 58 583.5 L 55.5 585 L 53.5 585 L 49 585 L 49 577.5 L 49 575.5 L 49 571 L 42.5 571 L 36 582.5 L 37 585 L 31.5 585 L 31 583.5 L 35 578.5 L 42 560.5 L 41.5 559 L 44.5 558 Z M 49 560 L 44 568 L 49 568 L 49 560 Z "></path><path d="M 73.5 558 Q 80.5 556.5 82 560.5 Q 82.5 565.5 78.5 566 L 75.5 567 Q 72.8 565.8 75 564.5 L 74.5 563 L 69 569.5 L 69 574.5 L 75.5 580 L 80.5 580 L 88 576 L 84.5 581 L 76.5 584 L 74.5 583 L 72.5 583 L 68.5 583 L 63 578.5 L 61 568.5 L 66.5 561 L 73.5 558 Z "></path><path d="M 179.5 558 L 187.5 559 L 189 560.5 L 186 567 L 181 567 L 181 564.5 L 181.5 563 L 179.5 563 L 175 567.5 L 174 575.5 L 175 578 L 180.5 581 L 185.5 581 L 191.5 577 L 194 577 L 191.5 581 L 179.5 585 L 173.5 583 L 168 579 Q 165.3 576.4 166 569.5 L 170 561 L 179.5 558 Z "></path><path d="M 89.5 559 L 105.5 559 L 106 562.5 L 103 564 L 101.5 561 L 97.5 562 Q 96.3 559.8 95 562.5 L 95 569.5 L 96.5 570 L 98 567 L 102 568.5 L 101 570.5 L 102 572.5 L 98 574 Q 99.7 569.9 95.5 571 Q 92.3 572.8 94 579.5 L 95 582 L 101.5 582 L 105.5 578 L 107.5 578 Q 110.5 579.5 107.5 581 L 103.5 584 Q 95.3 582.3 91.5 585 L 89.5 585 L 87 583.5 L 87 582 L 89 581.5 L 89 573.5 L 89 571.5 L 90 569.5 L 89 566.5 L 89 564.5 L 90 562.5 Q 86.3 560.7 89.5 559 Z "></path><path d="M 341 561 L 344 562.5 L 341 562.5 L 341 561 Z "></path><path d="M 293.5 575 L 296 576 L 297 580 L 290.5 581 L 289 577.5 L 293.5 575 Z "></path><path d="M 341 578 Q 344 577 343 580 Q 340 581 341 578 Z "></path><path d="M 344.5 588 L 345 590.5 Q 345.8 592.8 343.5 592 L 343 589.5 L 344.5 588 Z "></path><path d="M 339.5 590 L 340.5 592 L 339.5 590 Z "></path></svg>