<svg width="350" height="600" version="1.1" xmlns="http://www.w3.org/2000/svg" desc="Created with imagetracer.js version 1.2.5"><path d="M 8.5 6 L 9.5 7 L 21.5 7 L 22.5 6 L 36.5 6 L 37.5 7 L 45.5 7 L 47.5 6 L 51.5 7 L 52.5 6 L 81.5 6 L 84.5 7 L 86.5 7 L 90.5 6 L 95.5 7 L 96.5 6 L 116.5 6 L 118.5 6 L 121.5 7 L 147.5 7 L 148.5 8 L 149.5 7 L 169.5 7 L 171.5 7 L 175.5 8 L 177.5 7 L 182.5 8 L 184.5 8 Q 192.8 9.2 197.5 7 L 198.5 8 L 247.5 8 L 249.5 8 L 266.5 8 L 268.5 7 L 269.5 8 L 315.5 8 L 317.5 8 L 324.5 7 L 325.5 8 L 336.5 8 L 338 9.5 L 338 23.5 L 337 24.5 L 338 26.5 L 337 27.5 L 337 70.5 L 337 72.5 L 338 85.5 L 337 86.5 L 337 111.5 L 338 113.5 Q 335.7 114.8 337 119.5 L 338 122.5 Q 335.7 123.7 337 128.5 L 338 133.5 L 337 135.5 L 337 137.5 L 338 141.5 L 337 142.5 L 337 151.5 L 338 153.5 L 337 154.5 L 337 162.5 L 338 164.5 L 337 166.5 L 337 168.5 L 338 171.5 L 338 243.5 L 337 247.5 L 338 250.5 L 338 252.5 L 338 468.5 L 339 472.5 L 338 473.5 L 338 522.5 L 339 524.5 L 338 527.5 L 339 528.5 L 339 543.5 L 339 545.5 L 339 585.5 L 340 588.5 L 340 590.5 L 337.5 595 L 326.5 594 L 324.5 594 Q 319.8 592.8 318.5 595 L 315.5 594 L 300.5 594 L 299.5 595 L 298.5 594 L 270.5 594 L 267.5 595 Q 266.2 592.8 261.5 594 L 258.5 595 L 246.5 594 L 244.5 595 L 242.5 594 L 240.5 594 L 238.5 595 L 182.5 595 L 178.5 596 Q 177.3 593.8 172.5 595 L 167.5 596 L 150.5 596 L 149.5 597 L 147.5 597 L 130.5 597 L 129.5 596 L 127.5 596 Q 118 597.5 112.5 595 L 111.5 596 L 67.5 596 L 65.5 597 L 63.5 597 Q 58 598.5 56.5 596 L 53.5 597 L 51.5 597 L 39.5 596 L 38.5 597 L 29.5 597 L 26.5 596 L 4.5 596 Q 3.5 596 4 591.5 Q 6.3 590.3 5 585.5 L 4 582.5 L 4 580.5 L 4 554.5 L 5 553.5 L 4 552.5 L 4 478.5 L 5 477.5 L 5 295.5 L 6 294.5 L 6 162.5 L 7 158.5 L 6 155.5 L 7 153.5 L 6 152.5 L 6 80.5 L 6 78.5 L 7 73.5 L 7 35.5 L 7 33.5 L 7 7.5 L 8.5 6 Z M 12 8 L 10 10 L 10 64 L 11 65 L 10 66 L 10 84 L 10 86 L 9 88 L 9 148 L 10 149 L 9 150 L 9 223 L 8 224 L 9 225 L 9 286 L 9 288 Q 10 292 8 294 L 8 391 L 10 390 Q 12 389 11 392 L 12 392 L 11 389 Q 10 384 13 384 L 12 382 L 15 375 L 17 376 L 18 372 L 23 373 L 26 367 L 34 360 L 37 361 Q 41 364 41 372 L 43 358 L 48 355 L 51 356 L 53 355 Q 57 354 58 357 L 62 357 L 64 360 L 65 377 L 67 378 Q 75 377 81 379 L 82 382 Q 83 384 88 383 L 90 383 L 94 384 L 95 390 Q 96 394 94 396 Q 93 398 96 397 L 95 403 L 97 402 L 103 404 L 108 402 Q 112 400 111 404 L 115 406 L 114 401 L 110 400 L 111 395 L 112 393 L 108 394 L 110 391 L 113 393 L 117 393 L 113 390 Q 112 386 117 388 L 119 390 L 117 384 L 120 382 Q 121 385 123 383 Q 125 382 124 385 L 127 385 L 126 389 L 127 392 L 128 390 Q 129 386 134 387 L 136 393 L 136 397 L 140 402 Q 141 406 139 408 L 140 410 L 143 409 L 145 413 L 144 415 Q 145 417 142 416 Q 140 413 139 417 L 135 414 L 133 415 L 127 412 L 126 415 L 136 418 L 144 418 L 145 421 L 140 420 L 138 421 L 136 421 L 129 418 Q 123 417 122 420 L 117 419 L 110 414 L 108 417 L 105 416 L 103 417 L 92 413 Q 89 412 90 415 L 85 416 L 84 420 L 78 417 Q 75 418 76 416 L 75 416 L 66 415 L 64 415 L 60 413 L 57 415 L 54 413 L 51 418 L 47 420 Q 44 419 45 422 L 37 426 L 36 423 L 40 422 L 43 418 L 47 415 L 48 416 L 47 411 Q 44 409 49 407 L 53 409 L 54 412 Q 55 414 57 412 L 64 412 L 64 411 L 59 407 Q 54 408 53 406 Q 50 407 51 404 L 47 401 L 44 408 L 44 413 L 39 420 L 36 419 L 40 411 L 40 409 L 38 412 L 35 415 L 30 416 L 24 421 Q 18 420 17 423 Q 12 424 14 420 L 18 418 L 24 418 L 27 414 L 29 411 Q 26 412 27 409 L 32 405 Q 34 404 33 401 L 31 399 L 27 404 Q 28 406 25 405 L 23 409 L 23 412 L 15 416 L 12 414 Q 9 413 10 416 L 8 416 L 9 448 L 10 447 L 27 446 L 34 444 L 37 445 L 44 443 L 47 440 L 55 440 L 56 439 Q 57 442 63 440 L 65 440 L 67 439 L 69 439 L 73 440 L 80 438 L 109 436 L 111 436 Q 113 437 112 435 L 115 432 L 145 429 Q 146 431 147 429 L 146 426 Q 145 421 147 420 L 146 417 Q 145 411 147 410 L 146 405 Q 149 397 147 385 L 147 383 L 149 376 L 148 374 L 148 372 L 147 368 L 148 358 L 148 356 L 147 354 L 147 334 L 146 332 L 146 330 L 147 328 L 147 312 L 146 311 L 147 308 L 148 259 L 152 240 L 152 233 Q 156 228 157 220 L 161 215 L 160 210 L 158 209 Q 155 210 156 207 L 147 203 L 144 199 L 144 192 L 146 184 L 151 178 Q 155 172 163 170 L 175 170 L 185 174 L 189 180 L 194 184 L 195 183 L 198 184 L 197 187 Q 196 189 199 188 L 200 195 L 203 194 L 209 195 L 210 201 L 214 204 L 216 204 L 218 203 L 226 205 L 228 207 L 231 206 Q 237 215 240 228 L 241 266 L 243 276 L 243 296 L 244 297 L 244 312 L 245 313 L 245 336 L 246 337 L 245 341 Q 248 346 246 356 L 247 359 L 246 364 L 249 369 L 249 387 L 248 388 L 249 397 L 251 398 L 266 395 L 280 395 L 288 397 L 295 397 Q 299 400 306 400 Q 316 404 324 411 L 326 410 L 335 411 L 335 400 L 336 399 L 335 398 L 335 345 L 334 344 L 335 343 L 335 274 L 335 270 L 335 262 L 334 261 L 335 256 L 334 253 L 335 250 L 334 248 L 335 246 L 335 201 L 334 200 L 335 197 L 335 178 L 334 177 L 334 63 L 333 62 L 334 58 L 334 12 L 326 10 Q 319 8 318 11 L 272 11 L 270 11 L 171 11 L 170 10 L 161 10 L 160 11 Q 154 13 153 10 L 149 11 L 147 10 L 115 10 L 114 9 L 104 9 L 103 8 L 100 9 L 73 9 L 72 8 L 63 8 L 58 9 L 54 8 L 51 9 Q 45 11 44 8 L 42 9 L 32 9 L 31 8 L 29 9 L 14 9 L 12 8 Z M 162 173 L 160 176 L 163 175 Q 173 174 178 178 L 180 178 Q 175 171 162 173 Z M 160 178 L 160 179 L 162 179 L 160 178 Z M 164 178 L 164 179 L 174 181 L 176 181 Q 172 177 164 178 Z M 154 179 L 154 181 L 159 180 L 154 179 Z M 161 183 L 161 185 L 160 184 L 153 185 L 147 190 L 148 191 L 156 187 L 159 186 Q 164 185 166 187 L 169 187 L 168 186 L 168 185 L 175 187 Q 176 189 177 187 L 174 184 L 161 183 Z M 182 183 Q 179 187 183 186 L 182 183 Z M 191 184 L 192 186 L 194 186 L 191 184 Z M 185 186 L 184 188 L 189 191 L 189 189 L 185 186 Z M 158 188 L 155 189 L 153 192 L 157 190 Q 164 189 168 193 L 169 193 L 163 189 L 161 189 L 158 188 Z M 167 188 L 166 190 L 180 194 L 180 193 L 173 189 Q 168 190 167 188 Z M 192 188 L 194 191 Q 197 192 196 189 L 192 188 Z M 149 192 L 150 195 L 151 193 L 149 192 Z M 159 193 L 159 195 L 163 195 L 169 200 L 174 201 L 177 202 L 181 201 L 172 199 L 162 193 L 159 193 Z M 170 193 Q 172 198 183 198 Q 184 200 185 198 L 170 193 Z M 196 194 L 196 196 L 200 196 L 196 194 Z M 147 195 Q 146 198 149 197 Q 150 194 147 195 Z M 159 195 L 156 197 L 160 197 L 159 195 Z M 203 196 L 200 198 Q 196 197 197 200 L 199 199 L 200 199 L 200 203 Q 203 204 202 201 L 202 199 L 205 200 L 207 202 L 206 200 L 207 197 L 203 196 Z M 160 199 L 161 201 L 166 201 L 160 199 Z M 188 199 L 189 201 Q 190 198 188 199 Z M 183 200 L 183 201 L 187 201 L 183 200 Z M 195 201 L 195 204 Q 197 207 198 204 Q 199 199 195 201 Z M 153 202 Q 151 205 154 204 L 153 202 Z M 185 202 L 184 205 L 186 206 L 185 202 Z M 180 203 L 180 206 L 181 206 Q 182 202 180 203 Z M 190 203 L 190 205 L 192 204 L 190 203 Z M 168 204 L 167 210 L 168 210 L 168 204 Z M 177 204 Q 176 207 179 206 Q 180 203 177 204 Z M 162 205 L 162 208 L 163 208 Q 164 204 162 205 Z M 165 205 L 164 212 L 165 212 L 165 205 Z M 173 205 L 172 208 L 173 208 L 173 205 Z M 159 206 Q 158 209 161 208 Q 162 205 159 206 Z M 208 206 L 210 209 L 213 208 L 218 209 L 222 212 Q 224 213 223 211 Q 221 206 220 209 Q 216 204 208 206 Z M 163 210 L 162 213 L 163 213 L 163 210 Z M 177 210 L 175 211 L 175 212 L 180 212 Q 179 215 184 214 Q 185 216 186 214 Q 183 210 177 210 Z M 188 210 Q 187 213 190 212 Q 191 209 188 210 Z M 192 210 Q 191 214 196 212 Q 197 208 192 210 Z M 216 210 L 214 212 L 218 214 L 219 215 L 218 212 L 216 210 Z M 172 212 L 171 214 L 174 213 L 172 212 Z M 199 213 L 199 215 L 207 221 L 207 220 L 199 213 Z M 227 215 L 226 218 L 231 230 L 232 230 Q 231 221 227 215 Z M 180 217 L 180 223 L 181 223 L 180 217 Z M 220 218 L 220 232 L 221 233 L 223 262 L 224 257 L 223 256 L 223 241 L 222 240 L 221 222 L 220 218 Z M 167 222 L 164 228 L 164 244 L 163 245 L 165 251 L 166 247 L 165 244 Q 163 231 167 225 L 167 222 Z M 182 223 L 181 230 L 183 230 L 182 223 Z M 210 226 L 212 239 L 212 248 L 213 248 L 213 238 L 211 228 L 210 226 Z M 180 230 L 179 238 L 180 238 L 180 230 Z M 232 234 L 231 236 L 233 237 L 232 234 Z M 183 239 L 182 242 L 183 242 L 183 239 Z M 233 239 L 233 259 L 234 259 L 234 243 L 233 239 Z M 231 244 L 230 247 L 231 247 L 231 244 Z M 180 246 L 179 249 L 180 249 L 180 246 Z M 182 247 L 182 255 L 183 255 Q 184 248 182 247 Z M 232 250 L 231 255 L 232 255 L 232 250 Z M 165 252 L 163 255 L 163 278 L 162 279 Q 160 285 163 287 L 164 334 L 164 295 L 164 293 L 165 288 L 164 286 L 165 282 L 165 263 L 166 262 Q 167 255 165 252 Z M 235 264 L 234 271 L 235 271 L 235 264 Z M 233 272 L 232 280 L 233 280 L 233 272 Z M 236 272 L 235 275 L 236 275 L 236 272 Z M 223 282 L 222 285 L 223 285 L 223 282 Z M 236 284 L 236 286 L 238 287 Q 239 283 236 284 Z M 237 291 L 236 316 L 237 317 L 237 328 L 236 330 L 239 331 L 240 328 L 238 328 L 241 326 Q 242 323 239 324 L 239 323 L 238 321 L 239 316 L 238 313 L 240 306 L 237 304 L 237 296 L 238 295 L 237 291 Z M 213 296 L 212 299 L 213 299 L 213 296 Z M 223 299 L 222 307 L 223 307 L 223 299 Z M 213 301 L 212 305 L 213 305 L 213 301 Z M 213 306 L 212 309 L 213 309 L 213 306 Z M 182 309 L 181 313 L 182 313 L 182 309 Z M 182 314 L 181 333 L 180 335 L 182 334 L 182 314 Z M 223 315 L 221 317 L 222 366 L 223 366 L 223 323 L 222 322 L 223 320 L 223 315 Z M 213 324 L 212 327 L 213 327 L 213 324 Z M 180 336 L 180 341 L 180 343 L 180 356 L 179 357 L 181 362 L 180 371 L 180 373 L 181 377 L 182 377 Q 183 369 181 366 L 183 366 L 181 358 L 182 354 L 181 351 L 181 338 L 182 337 L 180 336 Z M 237 336 L 236 342 L 237 342 L 237 336 Z M 164 337 L 162 346 L 162 358 L 162 360 Q 161 364 163 366 L 162 371 L 163 374 L 162 377 L 164 376 L 164 358 L 163 357 L 164 355 Q 165 350 163 349 L 164 346 L 164 337 Z M 242 341 L 241 342 Q 238 341 239 344 L 241 344 L 240 347 L 242 348 L 240 351 L 242 352 L 240 352 L 241 355 L 243 354 Q 244 346 242 341 Z M 214 345 L 213 348 L 214 348 L 214 345 Z M 240 356 Q 239 359 243 358 Q 244 355 240 356 Z M 48 358 L 45 361 L 45 371 L 43 378 L 43 383 L 46 387 L 45 389 L 45 396 L 47 396 Q 48 398 49 396 L 48 392 L 51 394 L 50 397 L 54 403 L 61 405 Q 63 406 62 402 L 66 400 L 67 404 L 69 395 L 69 389 L 69 387 L 68 380 Q 65 384 56 382 Q 57 379 54 378 L 54 362 L 53 358 L 50 359 L 48 358 Z M 241 359 L 239 362 L 243 361 L 241 359 Z M 240 365 L 240 367 L 243 368 L 243 367 L 240 365 Z M 35 367 L 36 368 L 37 369 Q 38 366 35 367 Z M 223 367 L 223 394 L 224 394 L 224 379 L 223 378 L 224 376 L 223 367 Z M 237 367 Q 236 370 239 369 Q 240 366 237 367 Z M 241 369 Q 238 376 243 374 L 241 369 Z M 215 372 L 214 375 L 215 375 L 215 372 Z M 36 373 L 35 376 L 36 376 L 36 373 Z M 242 376 L 240 378 L 244 378 Q 245 375 242 376 Z M 163 378 L 163 407 L 163 381 Q 165 379 163 378 Z M 181 378 L 180 381 L 181 381 L 181 378 Z M 242 379 L 240 383 Q 241 385 245 384 L 245 382 L 242 383 L 242 379 Z M 32 380 L 30 382 L 31 384 L 33 381 L 32 380 Z M 75 380 L 72 381 L 74 390 L 72 393 L 72 399 L 69 405 L 69 408 Q 63 410 69 413 L 72 412 L 77 412 L 83 416 L 84 417 Q 85 414 82 415 Q 81 412 85 413 L 84 409 Q 79 408 80 411 L 75 411 L 77 400 Q 79 393 76 392 L 77 388 L 77 386 L 75 380 Z M 35 383 L 26 395 L 27 396 L 29 395 L 36 384 L 35 383 Z M 182 384 L 180 389 L 181 393 L 181 395 L 180 398 L 181 400 L 180 403 L 181 409 L 182 409 L 182 384 Z M 245 389 L 241 390 Q 240 394 245 392 L 245 389 Z M 85 392 L 85 393 L 89 395 L 89 393 L 85 392 Z M 16 393 L 16 395 L 15 398 L 16 404 L 17 404 L 17 394 L 16 393 Z M 216 393 L 214 395 L 215 396 L 216 410 L 217 405 L 216 404 L 216 393 Z M 245 394 Q 245 398 243 397 L 244 400 L 243 402 L 245 402 Q 246 406 241 404 L 241 407 L 243 406 L 245 408 Q 244 412 249 410 L 246 405 Q 247 398 245 394 Z M 260 397 Q 258 400 257 398 L 253 400 L 250 401 L 250 413 L 250 415 L 252 420 L 256 415 Q 260 416 258 412 L 262 411 Q 266 410 268 412 L 270 412 Q 269 415 272 414 L 274 418 Q 272 424 275 426 Q 276 431 273 432 L 269 425 L 264 427 L 268 429 L 261 434 L 256 435 Q 252 433 256 432 L 255 431 L 253 426 L 252 438 L 251 440 L 257 438 L 260 439 L 262 438 L 262 441 L 252 445 L 252 465 L 254 472 L 256 496 L 260 497 L 269 497 L 270 496 L 268 492 L 271 486 Q 272 483 269 484 L 268 482 L 269 480 L 258 462 L 253 452 L 253 449 L 257 445 L 270 440 L 281 440 L 283 440 L 284 441 L 303 442 L 307 444 L 309 447 L 310 451 L 306 463 L 299 476 L 299 479 L 293 487 L 293 489 L 295 490 L 305 490 L 307 490 L 317 491 L 321 493 L 323 497 L 332 497 L 333 496 L 336 497 L 336 489 L 335 488 L 336 486 L 336 469 L 333 468 L 331 469 L 332 464 L 326 464 L 325 466 L 330 467 L 325 469 L 327 471 L 331 470 L 330 473 L 327 472 L 325 472 L 326 486 Q 324 491 321 486 L 321 469 L 320 468 L 318 471 Q 314 473 315 468 L 319 466 Q 320 463 318 464 L 316 462 L 321 460 L 316 459 Q 315 454 319 453 L 321 453 L 321 447 Q 326 445 334 446 L 335 447 L 335 415 L 332 414 L 330 414 L 326 413 L 320 416 L 307 419 L 298 426 L 297 429 L 295 426 L 298 422 Q 295 423 296 420 L 294 421 Q 291 420 292 425 L 291 427 L 293 426 L 294 429 L 293 430 L 285 431 L 279 436 L 267 438 L 265 434 L 268 435 L 279 431 Q 281 428 280 420 L 282 417 L 289 413 L 295 413 L 301 417 L 302 419 L 307 416 L 317 413 Q 319 414 318 411 L 303 402 L 300 402 Q 298 398 297 401 L 285 398 L 274 398 L 272 398 L 269 397 L 267 397 L 264 398 L 260 397 Z M 131 403 L 131 409 L 135 407 L 133 406 L 131 403 Z M 223 403 L 224 405 Q 225 402 223 403 Z M 13 405 Q 11 408 14 407 L 13 405 Z M 124 405 L 122 408 L 124 408 L 126 411 L 126 406 L 124 405 Z M 107 406 L 106 407 L 97 407 L 96 410 L 105 412 L 107 409 L 119 416 L 121 415 L 117 410 Q 109 411 107 406 Z M 223 406 L 223 410 L 225 409 Q 226 405 223 406 Z M 32 407 L 32 409 L 34 408 L 32 407 Z M 9 408 L 8 410 L 10 411 L 9 408 Z M 89 408 L 89 410 L 92 410 L 89 408 Z M 243 408 L 241 410 L 243 410 L 243 408 Z M 225 410 L 224 416 L 224 418 L 223 421 L 224 424 Q 225 429 222 431 L 223 432 L 224 442 L 224 434 L 226 431 L 225 429 L 225 418 L 226 417 L 225 410 Z M 15 411 L 16 413 Q 17 410 15 411 Z M 182 411 L 180 413 L 180 423 L 181 424 L 180 429 L 181 434 L 182 432 L 182 417 L 181 416 L 182 414 L 182 411 Z M 216 411 L 215 426 L 216 426 L 216 411 Z M 246 411 L 244 412 L 241 413 L 242 414 L 247 414 Q 248 410 246 411 Z M 163 412 L 162 420 L 163 420 L 163 412 Z M 239 412 L 240 414 Q 241 411 239 412 Z M 232 415 L 232 416 L 234 416 L 232 415 Z M 246 415 L 244 416 L 246 420 L 244 422 Q 245 425 242 424 L 243 426 L 246 424 L 246 426 L 244 430 L 246 430 L 245 433 Q 242 432 243 436 L 246 434 L 247 435 L 244 439 L 246 440 L 244 441 L 244 442 Q 248 441 246 446 L 243 448 L 245 448 L 246 451 L 243 452 L 244 455 L 246 454 L 245 459 L 247 458 L 248 459 L 245 463 L 244 462 L 243 462 L 245 465 L 248 464 Q 251 462 249 456 L 248 456 L 249 454 L 247 448 L 249 447 L 249 438 L 248 437 L 249 432 L 249 430 L 248 429 L 248 418 L 247 417 Q 248 414 246 415 Z M 264 418 L 262 424 L 268 424 Q 272 422 269 421 L 269 418 L 264 418 Z M 162 422 L 162 440 L 162 427 L 163 426 L 162 422 Z M 250 424 L 249 427 L 250 427 L 250 424 Z M 263 425 Q 263 428 261 427 L 259 430 L 264 428 L 263 425 Z M 216 430 L 215 433 L 216 433 L 216 430 Z M 147 432 L 144 433 L 142 433 L 140 434 L 129 434 L 128 433 L 127 435 L 122 435 L 116 438 Q 111 437 110 439 L 90 440 L 89 441 L 86 440 L 84 440 L 75 441 Q 73 443 72 440 L 69 442 L 67 441 Q 63 443 57 442 L 55 442 L 50 442 L 40 447 L 35 447 L 33 447 L 27 449 L 15 450 L 10 452 Q 7 453 8 457 Q 12 458 15 455 L 31 453 L 46 447 L 60 446 L 68 444 L 73 445 L 75 445 L 83 443 L 96 443 L 102 441 L 118 440 L 133 436 L 146 435 L 147 434 L 147 432 Z M 182 435 L 180 440 L 181 458 L 181 460 L 180 462 L 182 473 L 182 459 L 182 457 L 183 455 L 182 452 L 183 449 L 182 435 Z M 216 436 L 215 444 L 216 444 L 216 436 Z M 140 438 Q 137 441 131 440 L 129 440 L 124 442 L 122 442 L 112 445 L 110 444 L 94 447 Q 88 449 87 446 L 74 449 L 72 448 L 70 448 L 46 451 L 44 451 L 37 455 L 17 458 L 11 461 Q 6 460 8 465 L 12 466 L 24 463 L 27 464 L 45 455 L 47 455 L 49 454 L 49 457 L 46 458 Q 40 456 41 460 L 37 461 L 29 467 Q 23 469 22 466 L 7 470 L 8 474 L 15 471 L 22 472 L 24 472 L 33 467 Q 37 466 36 469 L 22 475 Q 16 477 15 474 L 9 477 L 8 479 L 23 477 L 37 473 L 41 465 Q 46 457 57 456 L 59 456 Q 62 458 62 463 L 68 461 L 72 461 L 85 455 L 97 453 L 97 452 Q 91 451 90 453 Q 85 454 84 452 L 78 453 Q 76 456 75 454 L 70 455 L 68 455 Q 61 457 60 454 Q 57 455 58 452 L 62 451 L 72 452 L 74 452 L 84 449 L 87 450 L 106 447 L 107 451 L 111 450 L 109 449 L 112 447 L 123 446 L 129 443 L 133 443 L 135 443 L 144 440 Q 148 441 147 438 L 145 439 L 140 438 Z M 161 440 L 160 465 L 161 466 L 160 467 L 160 478 L 159 479 L 160 482 L 159 496 L 158 497 Q 157 500 160 501 L 161 472 L 162 471 L 161 469 L 162 467 L 162 459 L 161 458 Q 160 452 162 451 Q 163 443 161 440 Z M 147 441 L 146 443 L 140 444 L 138 444 Q 135 447 129 446 L 122 450 L 118 450 L 118 451 L 132 451 L 134 450 L 133 449 L 136 447 L 145 446 L 147 446 L 147 441 Z M 286 442 L 282 445 L 270 446 L 271 448 L 269 447 L 265 450 L 266 452 L 264 452 Q 263 455 267 454 Q 268 457 270 455 L 272 456 L 294 455 L 301 453 L 293 451 Q 292 448 300 449 L 301 452 L 304 451 L 305 451 L 305 446 Q 302 447 301 444 L 299 447 L 289 446 L 292 444 L 286 442 Z M 225 443 L 225 462 L 226 462 L 226 457 Q 229 458 228 456 L 227 456 L 225 443 Z M 216 446 L 215 453 L 216 453 L 216 446 Z M 264 446 L 265 448 L 267 447 L 264 446 Z M 261 447 L 261 449 L 263 448 L 261 447 Z M 146 448 L 143 450 L 145 450 L 146 453 L 122 454 L 119 453 L 107 453 L 96 455 L 93 457 L 86 457 L 68 465 Q 65 464 66 467 L 73 472 L 76 477 L 79 479 L 82 478 L 86 479 L 88 483 L 88 486 L 92 488 L 104 488 L 118 482 L 128 482 Q 129 480 130 483 L 129 498 L 128 500 L 133 499 L 136 500 L 138 499 L 140 500 L 142 500 L 144 499 L 146 500 L 147 499 L 147 461 L 147 459 L 147 449 L 146 448 Z M 325 448 L 326 450 L 331 449 L 325 448 Z M 101 450 L 97 452 L 103 452 Q 104 449 101 450 Z M 325 451 L 326 453 Q 327 450 325 451 Z M 327 451 L 327 453 L 336 452 L 327 451 Z M 304 454 Q 304 457 302 456 L 300 456 L 298 457 L 299 459 L 292 461 L 290 460 Q 288 462 284 461 L 285 459 L 293 459 L 293 457 L 290 458 L 273 458 L 262 456 L 264 464 L 272 477 L 280 480 L 278 481 L 280 481 L 282 484 L 282 482 L 289 481 L 288 484 L 289 491 Q 291 490 289 489 L 291 482 L 291 479 L 285 479 L 286 476 L 289 477 L 290 478 Q 289 475 292 476 Q 293 478 294 476 Q 295 473 292 474 L 290 474 L 288 475 Q 285 476 286 473 L 296 472 L 297 471 L 297 468 L 288 470 L 287 468 L 299 467 L 300 464 L 301 462 L 299 463 Q 296 464 297 461 L 300 460 L 302 461 L 304 457 L 304 454 Z M 325 454 L 326 456 L 328 455 L 325 454 Z M 331 454 L 332 456 L 334 455 L 335 456 L 335 454 L 331 454 Z M 325 458 L 325 459 L 333 459 L 333 461 L 326 461 L 325 463 L 328 463 Q 329 461 334 462 L 335 463 L 335 458 L 325 458 Z M 55 459 L 46 464 L 41 472 L 42 474 L 43 471 L 47 468 L 48 468 L 44 477 L 45 477 Q 44 474 48 475 L 44 493 L 45 502 Q 47 503 45 504 Q 42 503 43 507 L 49 505 L 47 502 L 47 492 L 49 483 L 52 481 L 53 481 Q 54 485 51 487 L 52 490 L 50 494 L 51 501 L 51 495 Q 54 491 54 485 L 57 483 L 57 492 L 55 493 L 55 503 Q 57 506 58 503 Q 59 498 57 497 L 59 490 L 63 488 L 61 493 L 61 501 L 63 502 L 63 494 L 65 491 Q 64 487 68 489 L 69 491 L 74 482 Q 77 480 73 479 Q 74 475 71 476 L 59 465 L 58 460 L 55 459 Z M 226 463 L 225 468 L 226 468 L 226 463 Z M 248 465 L 247 466 Q 242 465 243 468 L 247 467 Q 248 470 245 469 L 244 471 L 246 470 Q 249 469 247 475 L 247 477 Q 250 479 249 485 L 245 486 Q 244 489 247 488 L 248 488 L 247 491 L 250 490 L 250 492 L 250 494 L 248 495 L 252 495 L 253 492 L 252 491 L 251 470 L 250 468 L 249 468 L 248 465 Z M 230 467 L 228 469 L 230 469 L 230 467 Z M 216 469 L 215 472 L 216 472 L 216 469 Z M 216 473 L 215 476 L 216 476 L 216 473 Z M 181 475 L 180 479 L 181 479 L 181 475 Z M 35 476 Q 33 479 32 477 L 23 479 L 19 479 Q 17 482 12 481 L 10 481 L 8 482 L 8 500 L 18 499 L 21 497 Q 27 496 31 499 L 32 500 L 31 496 L 33 484 L 33 482 L 35 479 L 35 476 Z M 40 476 L 39 479 L 40 479 L 40 476 Z M 44 477 L 39 492 Q 38 499 41 502 Q 40 489 44 481 L 44 477 Z M 151 477 Q 150 480 153 479 Q 154 476 151 477 Z M 216 478 L 214 486 L 215 488 L 216 486 L 216 478 Z M 227 479 L 226 483 L 227 483 L 227 479 Z M 229 479 Q 228 482 231 481 Q 232 478 229 479 Z M 182 480 L 182 512 L 183 509 L 182 507 L 182 480 Z M 82 481 Q 82 484 80 483 L 76 485 L 82 485 L 84 488 L 84 482 L 82 481 Z M 151 482 L 151 485 L 153 484 Q 154 481 151 482 Z M 226 483 L 225 486 L 226 486 L 226 483 Z M 38 484 L 37 487 L 38 487 L 38 484 Z M 121 484 L 115 487 L 116 489 L 113 498 L 113 503 L 115 504 Q 119 503 121 505 L 124 504 L 126 495 L 126 487 Q 125 483 121 484 Z M 277 486 L 277 490 L 280 491 L 279 490 Q 280 485 277 486 Z M 283 486 L 283 491 L 285 491 L 284 490 L 285 488 Q 286 485 283 486 Z M 226 487 L 227 491 L 228 491 Q 229 486 226 487 Z M 73 488 L 72 496 L 76 496 L 79 498 L 78 501 L 76 500 L 75 502 Q 81 503 84 500 L 83 499 L 81 495 L 76 493 L 74 490 Q 78 489 81 492 Q 83 491 82 494 L 84 494 L 84 491 Q 80 492 81 489 L 73 488 Z M 110 488 Q 103 493 91 491 L 92 493 L 94 492 L 95 493 L 95 501 L 97 502 L 97 494 L 100 494 L 101 507 L 101 496 L 103 494 L 104 495 L 104 508 L 107 506 Q 104 504 106 498 L 109 496 L 110 498 L 111 492 Q 112 487 110 488 Z M 151 489 L 153 492 L 154 490 L 151 489 Z M 230 489 L 230 491 L 234 491 L 230 489 Z M 217 490 L 216 495 L 217 495 L 217 490 Z M 68 491 L 66 499 L 68 500 L 68 491 Z M 286 491 L 287 493 Q 288 490 286 491 Z M 228 492 L 227 503 L 229 504 L 228 501 L 229 497 L 228 492 Z M 231 493 L 231 495 L 234 495 L 231 493 Z M 297 493 L 297 496 Q 295 499 294 495 L 290 497 Q 293 498 292 501 L 285 502 L 289 502 L 291 502 L 295 503 L 311 501 L 313 501 Q 316 502 315 500 Q 310 496 302 496 L 304 495 L 304 493 L 297 493 Z M 307 493 L 306 495 L 316 497 L 316 495 L 310 494 L 307 493 Z M 247 494 L 247 497 Q 250 496 247 494 Z M 92 495 L 91 498 L 92 498 L 92 495 Z M 153 495 L 151 497 Q 153 500 154 497 Q 155 494 153 495 Z M 253 495 L 249 496 Q 248 499 251 498 Q 252 501 250 500 L 248 503 L 251 501 L 252 502 L 253 499 L 253 495 Z M 281 495 L 281 498 Q 284 497 281 495 Z M 276 497 L 276 500 Q 279 499 276 497 Z M 318 497 L 316 502 L 319 500 L 318 497 Z M 233 498 L 231 500 L 233 500 L 233 498 Z M 217 499 L 216 505 L 217 505 L 217 499 Z M 152 501 L 150 503 L 153 504 Q 154 500 152 501 Z M 31 502 Q 28 503 30 505 L 29 509 L 30 516 L 32 515 L 31 518 Q 32 520 28 519 L 29 523 L 31 520 L 31 524 L 31 526 L 32 528 L 30 533 L 30 542 L 32 542 L 33 527 L 35 527 L 33 522 Q 32 518 35 519 Q 36 517 37 520 L 37 532 L 35 540 Q 34 542 37 541 L 38 529 L 39 528 L 38 526 L 41 525 L 41 524 Q 38 525 39 523 L 42 521 L 42 534 L 41 535 L 42 537 Q 45 533 44 525 Q 46 520 48 524 L 47 535 L 49 534 L 49 528 L 51 527 L 51 525 L 55 523 L 56 529 L 56 530 L 52 530 L 53 533 L 57 531 Q 56 527 59 526 L 57 525 L 58 520 L 35 506 L 31 502 Z M 37 502 Q 35 505 38 504 L 37 502 Z M 269 502 L 268 503 L 257 503 L 257 509 L 252 514 L 248 514 Q 249 518 246 517 L 245 520 L 246 524 L 248 519 L 248 521 L 247 524 Q 251 525 250 532 L 243 538 Q 237 537 236 539 L 229 538 L 229 550 L 233 555 L 232 557 L 234 566 L 230 568 L 224 568 Q 225 572 223 571 L 221 571 L 222 574 L 216 575 L 216 573 L 215 575 L 213 576 L 212 575 L 210 576 L 208 575 L 203 576 L 201 576 Q 195 574 187 575 L 183 575 L 178 574 L 171 569 L 172 566 L 177 562 L 187 560 L 189 560 L 194 559 L 199 552 Q 195 547 195 541 L 184 537 Q 180 536 181 530 L 179 531 L 171 531 L 163 528 L 158 523 L 158 515 L 157 515 Q 149 516 146 512 Q 145 507 147 506 L 147 504 L 146 505 L 127 505 L 126 512 Q 127 516 124 515 L 126 526 L 125 528 L 127 535 L 132 543 L 132 558 L 131 559 L 131 570 L 132 571 L 131 573 L 124 571 L 116 565 L 101 562 Q 96 561 95 563 L 93 562 L 90 563 L 88 562 L 87 564 L 83 567 L 78 566 L 60 582 Q 57 581 58 585 L 64 584 L 72 584 L 73 585 L 73 583 L 68 582 L 66 578 L 80 574 L 94 574 L 96 574 L 97 575 L 123 575 L 126 577 Q 129 576 127 581 L 124 583 L 110 585 L 118 585 L 120 589 L 123 588 L 134 591 Q 138 590 136 594 L 155 594 L 156 593 L 158 594 L 160 593 L 179 593 L 181 593 L 199 592 L 201 592 L 203 593 L 205 593 L 214 593 L 215 592 L 219 593 L 223 592 L 225 593 L 227 592 L 248 592 L 249 591 L 252 592 L 253 591 L 276 591 L 270 588 L 267 585 L 277 572 L 285 553 L 285 549 L 283 545 Q 282 542 278 543 Q 277 547 282 545 L 282 547 L 269 547 L 258 543 L 255 540 L 266 518 Q 266 511 269 509 L 269 505 Q 271 503 269 502 Z M 326 502 L 323 503 L 307 530 Q 306 536 309 539 Q 310 545 306 548 L 306 557 L 309 572 Q 312 580 319 585 L 320 589 Q 314 588 311 591 L 317 592 L 319 591 L 336 592 L 336 558 L 337 557 L 336 556 L 336 503 L 328 502 L 326 502 Z M 234 503 L 231 505 L 233 506 L 235 506 L 234 503 Z M 241 503 L 240 505 L 243 506 L 243 504 L 241 503 Z M 278 503 L 276 505 L 288 529 Q 286 534 292 532 Q 294 537 290 536 L 292 544 L 294 545 L 294 536 L 296 535 L 297 533 L 299 533 Q 303 534 304 532 L 303 528 Q 299 529 300 526 L 305 527 L 307 524 L 300 523 L 301 521 L 308 521 L 307 518 L 303 519 L 302 516 L 311 517 L 311 514 L 306 514 Q 305 511 309 512 L 311 512 L 313 513 L 313 511 L 303 511 L 303 509 L 313 509 L 314 510 L 315 507 L 305 508 L 302 507 L 300 507 L 300 505 L 286 505 L 284 505 L 278 503 Z M 228 504 L 228 515 L 230 516 L 229 507 L 228 504 Z M 250 504 L 249 507 L 250 507 L 250 504 Z M 274 504 L 269 514 L 269 519 L 259 539 L 262 541 L 268 543 L 273 528 L 276 513 L 274 504 Z M 13 505 L 8 506 L 7 511 L 11 512 L 13 507 L 13 505 Z M 65 505 L 63 507 L 60 506 L 55 507 L 55 508 L 65 508 L 66 507 L 68 508 L 90 508 L 91 510 Q 92 514 90 513 L 90 514 L 96 512 L 95 510 L 90 505 L 67 505 L 65 505 Z M 112 505 L 96 515 L 76 520 L 75 522 Q 78 519 87 521 L 99 517 Q 101 516 100 519 L 95 521 L 92 521 L 92 526 L 94 526 L 94 522 L 96 522 L 98 526 L 98 523 L 98 521 L 101 521 L 101 526 L 103 526 L 102 522 L 105 520 L 107 522 Q 105 517 109 518 L 111 521 L 111 520 L 113 520 Q 115 519 114 522 L 116 523 L 115 517 L 119 519 L 118 521 L 120 523 Q 122 524 121 520 L 121 518 L 119 509 L 102 519 L 101 518 L 118 508 L 112 505 Z M 151 505 L 152 508 L 153 506 L 151 505 Z M 19 506 L 17 508 L 14 520 L 16 523 L 15 528 L 13 526 L 12 526 L 14 543 L 19 545 L 22 540 L 25 515 L 26 514 Q 28 508 24 509 L 21 508 Q 23 515 18 513 L 19 508 L 19 506 Z M 159 506 L 158 510 L 159 510 L 159 506 Z M 246 506 Q 244 509 247 508 L 246 506 Z M 52 508 L 51 509 Q 47 508 48 511 Q 52 512 53 509 L 52 508 Z M 101 508 L 99 510 L 101 510 L 101 508 Z M 217 508 L 216 514 L 217 514 L 217 508 Z M 241 508 L 241 510 L 243 509 L 241 508 Z M 251 508 L 250 509 Q 247 508 248 512 L 252 509 L 251 508 Z M 150 510 L 150 512 L 154 512 L 150 510 Z M 183 512 L 181 514 L 182 516 L 183 514 L 183 512 Z M 232 512 L 233 513 L 234 514 Q 235 511 232 512 Z M 246 512 L 245 515 L 246 515 L 246 512 Z M 162 514 Q 162 518 164 515 L 162 514 Z M 235 514 L 235 516 L 237 515 L 235 514 Z M 65 518 L 65 519 L 67 519 L 65 518 Z M 217 518 L 216 524 L 217 524 L 217 518 Z M 230 518 L 229 523 L 230 523 L 230 518 Z M 279 518 L 277 520 L 279 520 L 279 518 Z M 89 522 L 88 523 L 83 523 L 83 528 Q 87 529 85 524 Q 89 522 88 527 L 89 527 L 89 522 Z M 236 522 L 235 524 L 237 523 L 236 522 Z M 107 523 L 106 526 L 107 526 L 107 523 Z M 79 524 L 78 528 L 80 527 L 79 524 Z M 110 524 L 110 526 L 112 525 L 110 524 Z M 115 524 L 116 526 Q 117 523 115 524 Z M 121 524 L 119 526 Q 118 528 121 527 L 121 524 Z M 277 524 L 276 527 L 283 527 L 283 525 L 277 524 Z M 74 525 L 75 527 Q 76 524 74 525 Z M 284 527 L 282 529 Q 277 530 276 528 L 275 532 L 280 531 L 285 532 L 284 527 Z M 69 528 L 67 531 Q 64 530 65 533 L 69 531 L 69 528 Z M 102 528 Q 101 531 104 530 Q 105 527 102 528 Z M 246 529 L 245 532 L 240 534 L 241 536 L 247 532 L 246 529 Z M 237 530 L 235 532 Q 233 536 237 535 L 236 534 L 238 531 L 237 530 Z M 81 531 L 73 533 Q 70 534 72 536 L 68 538 L 61 536 L 59 534 L 54 536 L 49 536 L 44 539 Q 41 538 42 541 L 37 542 Q 38 544 40 542 L 72 550 L 72 546 L 77 544 L 78 545 L 84 545 L 86 549 L 107 541 Q 111 539 108 537 Q 105 538 106 536 L 105 536 L 103 535 L 101 536 L 96 535 Q 94 531 93 534 L 81 531 Z M 119 531 L 116 536 Q 113 535 114 538 L 110 542 L 98 548 L 89 550 L 87 554 L 96 553 L 98 553 L 100 551 L 113 548 L 125 540 L 122 533 L 119 531 Z M 220 531 Q 219 534 222 533 Q 223 530 220 531 Z M 224 531 L 225 532 L 226 533 Q 227 530 224 531 Z M 194 533 L 194 534 L 197 534 L 194 533 Z M 273 533 L 273 537 L 278 536 L 282 537 L 283 534 L 282 534 Q 275 535 273 533 Z M 213 535 L 204 537 L 202 537 L 194 537 L 193 536 L 190 537 L 198 539 L 201 538 L 204 539 L 211 537 L 214 538 L 213 535 Z M 9 536 L 7 538 L 8 540 L 8 549 L 13 549 L 14 552 L 16 549 L 15 548 Q 9 545 9 536 Z M 299 537 L 298 541 L 298 543 L 296 546 L 301 545 Q 298 542 299 537 Z M 286 538 L 286 543 L 288 543 L 286 538 Z M 272 539 Q 270 544 276 542 L 277 540 L 272 539 Z M 278 539 L 278 542 L 280 541 L 282 542 L 282 541 L 278 539 Z M 218 540 L 218 555 L 220 554 L 219 547 L 219 545 L 220 542 Q 221 539 218 540 Z M 210 542 L 210 544 L 212 545 Q 213 541 210 542 Z M 206 543 L 206 546 Q 210 547 209 545 L 206 543 Z M 272 543 L 269 545 L 272 545 L 272 543 Z M 123 544 L 120 547 L 120 555 L 122 556 L 123 547 Q 125 545 123 544 Z M 127 544 L 126 551 L 126 553 L 125 555 L 126 557 L 125 559 L 127 562 L 128 556 L 128 546 L 127 544 Z M 41 546 L 45 555 L 48 570 L 47 584 L 46 585 L 47 588 L 50 580 L 49 578 L 50 575 L 47 560 Q 48 557 52 558 L 51 561 L 53 566 L 53 581 L 52 583 L 55 581 L 55 566 L 58 565 L 59 577 L 60 577 L 60 565 L 63 564 L 64 566 L 65 573 L 66 572 L 66 562 Q 71 560 69 567 L 71 568 L 70 564 Q 74 560 72 552 L 64 552 L 60 550 L 51 549 L 48 547 L 41 546 Z M 26 547 L 22 549 Q 17 548 19 552 L 22 551 L 25 552 L 26 550 L 26 547 Z M 214 547 L 212 549 L 205 550 Q 202 551 204 553 Q 205 555 203 554 L 200 560 Q 195 564 184 562 L 178 564 L 175 567 Q 173 572 180 570 L 184 570 L 187 567 L 188 568 L 192 567 L 193 571 L 194 571 Q 192 566 197 567 L 201 572 L 201 571 Q 197 569 201 567 Q 204 566 203 569 Q 204 571 209 570 L 210 567 Q 213 566 212 569 L 216 569 L 218 572 L 219 569 Q 220 564 217 565 Q 216 562 219 563 L 219 561 Q 217 556 215 560 L 216 564 L 212 566 L 214 563 L 212 559 L 214 558 L 214 547 Z M 291 547 L 285 560 L 285 563 L 277 578 L 272 583 L 272 585 L 287 591 L 289 577 L 291 572 L 292 559 L 294 553 Q 296 547 291 549 L 291 547 Z M 78 548 L 75 552 L 80 550 L 78 548 Z M 117 548 Q 114 549 115 555 L 117 554 L 117 548 Z M 36 549 L 36 558 L 34 557 Q 34 562 32 563 L 30 560 L 29 560 L 30 569 L 35 587 L 41 591 L 42 590 L 42 582 L 43 581 L 42 560 L 38 551 Q 39 548 36 549 Z M 110 550 L 109 556 Q 111 559 112 556 Q 114 549 110 550 Z M 298 550 L 298 553 L 300 552 Q 301 549 298 550 Z M 33 551 L 32 557 L 33 557 L 33 551 Z M 104 552 L 104 556 L 106 557 Q 108 551 104 552 Z M 80 553 L 76 556 L 77 557 L 78 556 L 84 556 Q 85 559 83 558 L 80 559 Q 79 561 82 560 L 83 562 L 86 558 L 84 553 L 82 554 L 80 553 Z M 99 554 L 99 557 L 101 556 Q 102 553 99 554 Z M 297 554 Q 296 559 300 557 Q 302 553 297 554 Z M 116 556 L 116 559 Q 119 558 116 556 Z M 8 557 Q 7 562 11 560 Q 13 556 8 557 Z M 121 557 Q 118 559 121 560 L 123 559 Q 124 556 121 557 Z M 99 558 Q 98 561 101 560 Q 102 557 99 558 Z M 104 558 Q 103 561 106 560 Q 107 557 104 558 Z M 111 558 L 110 561 L 111 561 L 111 558 Z M 222 559 L 222 563 L 222 562 Q 224 560 222 559 Z M 296 559 L 296 561 Q 294 562 297 563 L 301 562 L 301 559 L 296 559 Z M 25 563 L 25 567 L 26 567 L 25 563 Z M 120 563 L 120 565 L 125 567 Q 127 568 126 565 L 120 563 Z M 298 564 L 297 565 Q 294 564 295 568 L 302 567 Q 304 562 298 564 Z M 27 568 L 23 572 L 18 573 L 18 574 Q 23 572 22 576 L 23 577 L 20 580 Q 14 582 13 579 L 10 581 L 8 582 L 8 592 Q 16 594 29 593 L 30 594 Q 36 595 36 593 L 33 591 L 29 582 L 27 568 Z M 300 568 L 294 571 L 295 574 Q 296 576 293 575 L 295 578 Q 296 576 301 577 Q 302 575 303 578 L 296 579 L 294 579 L 292 581 L 291 588 L 310 584 L 309 586 L 307 585 L 299 588 L 295 588 L 292 590 L 292 591 L 302 591 L 315 588 Q 315 582 311 580 L 299 583 Q 296 584 297 581 L 309 580 L 308 578 Q 309 575 306 576 L 304 570 Q 303 567 302 569 L 300 568 Z M 85 576 L 72 580 L 79 581 L 80 584 L 75 587 L 64 588 L 68 589 L 83 590 L 84 590 L 83 594 L 85 593 Q 90 592 92 594 L 93 593 L 103 593 L 105 593 L 110 592 L 119 592 L 120 593 L 128 593 L 125 592 L 123 592 L 120 591 Q 114 593 115 590 L 114 588 L 102 587 L 100 586 L 102 582 L 104 583 L 105 582 L 113 582 L 123 580 Q 124 577 122 578 L 120 578 L 112 577 L 109 578 L 107 577 L 95 577 L 94 576 L 91 578 L 85 576 Z M 53 587 L 45 592 L 46 594 L 56 594 L 58 594 L 67 594 L 67 592 L 60 591 Q 58 587 53 587 Z "></path><path d="M 161.5 23 L 164.5 24 L 167.5 23 L 169 26 Q 166 24.8 167 28.5 L 171.5 36 L 175 26 Q 172.3 27.1 173 24.5 L 174.5 23 L 182 23 L 180.5 27 Q 178.3 26.3 179 28.5 L 174 39.5 L 176 40 L 175.5 42 L 166 42 L 167 35.5 L 161.5 26 Q 159.3 26.8 160 24.5 L 161.5 23 Z "></path><path d="M 50.5 360 L 52 363.5 L 49.5 369 L 47 367.5 L 48 361 L 50.5 360 Z "></path><path d="M 59.5 385 L 61 385 L 61 389 L 57 387.5 L 59.5 385 Z "></path><path d="M 64 385 Q 68.1 383.7 67 387 Q 62.9 388.3 64 385 Z "></path><path d="M 279 460 Q 282 459 281 462 Q 278 463 279 460 Z "></path><path d="M 293.5 462 Q 297.3 461 296 464 Q 291.1 465.8 282.5 465 L 281.5 466 L 281 464 L 293.5 462 Z "></path><path d="M 303.5 512 L 304.5 514 L 302 513.5 L 303.5 512 Z "></path><path d="M 39 516 Q 42 515 41 518 Q 38 519 39 516 Z "></path><path d="M 342.5 549 L 342 550.5 L 341.5 553 L 341 550.5 L 342.5 549 Z "></path><path d="M 209.5 551 Q 213.3 549.8 212 553.5 L 206.5 556 L 205 553 Q 208.4 553.8 209.5 551 Z "></path><path d="M 205.5 557 L 209 559.5 Q 209.8 562.1 206.5 561 L 203 560 Q 201.9 557.3 204.5 558 L 205.5 557 Z "></path><path d="M 340.5 563 L 341.5 565 Q 338.7 565.7 340.5 563 Z "></path><path d="M 297.5 572 Q 300.1 571.3 299 574 L 296 573.5 L 297.5 572 Z "></path><path d="M 300 572 L 304 573.5 L 300 574 L 300 572 Z "></path><path d="M 342.5 580 Q 344.8 579.3 344 581.5 L 342.5 580 Z "></path><path d="M 294 581 Q 296.7 579.9 296 582.5 L 294 583.5 L 294 581 Z "></path><path d="M 312.5 584 L 313 586 L 311 585.5 L 312.5 584 Z "></path></svg>