<svg width="350" height="600" version="1.1" xmlns="http://www.w3.org/2000/svg" desc="Created with imagetracer.js version 1.2.5"><path d="M 168.5 4 L 169.5 5 L 240.5 5 L 242.5 4 L 244.5 4 L 248.5 5 L 252.5 4 L 254.5 5 L 257.5 4 L 261.5 5 L 264.5 4 L 266.5 5 L 269.5 4 Q 274.2 2.8 275.5 5 L 333.5 5 L 335 6.5 L 336 8.5 L 336 112.5 L 337 117.5 L 336 120.5 L 337 127.5 L 336 128.5 L 336 159.5 L 337 160.5 L 337 178.5 L 336 180.5 L 337 182.5 L 336 187.5 Q 338.2 188.7 337 193.5 L 336 197.5 L 337 201.5 L 336 203.5 L 337 204.5 L 337 213.5 L 336 214.5 L 336 246.5 L 337 249.5 L 336 250.5 L 336 281.5 L 336 283.5 L 337 289.5 L 336 290.5 L 336 308.5 L 337 310.5 L 336 312.5 L 337 313.5 L 337 326.5 L 337 330.5 L 337 571.5 L 338 575.5 Q 335.3 577.3 337 583.5 L 337 585.5 L 338 592.5 L 337 595 L 291.5 595 L 289.5 594 L 287.5 594 L 278.5 595 L 275.5 594 L 274.5 595 L 257.5 595 L 254.5 594 L 253.5 595 L 240.5 595 L 239.5 594 L 141.5 594 L 139.5 595 L 138.5 594 L 112.5 594 L 110.5 594 L 107.5 595 L 77.5 595 L 76.5 594 L 33.5 594 L 31.5 594 L 3.5 594 L 3 591.5 L 4 588.5 L 3 587.5 L 3 572.5 L 4 571.5 L 4 384.5 L 5 383.5 Q 2.8 382.3 4 377.5 Q 6.5 376 5 370.5 L 4 369.5 L 4 353.5 L 5 350.5 L 4 349.5 L 4 328.5 Q 1.8 327.2 3 322.5 L 3 320.5 L 4 300.5 L 3 299.5 L 3 291.5 L 4 290.5 L 4 275.5 L 5 272.5 Q 2.8 271.3 4 266.5 L 4 264.5 L 5 252.5 Q 2.5 251 4 245.5 L 5 244.5 L 5 232.5 Q 2.8 231.3 4 226.5 Q 6.3 225.3 5 220.5 L 4 217.5 L 5 214.5 L 4 213.5 L 4 174.5 L 5 171.5 L 4 169.5 L 4 167.5 L 4 130.5 L 5 125.5 L 4 124.5 L 4 106.5 L 5 104.5 Q 2.3 102.8 4 96.5 Q 6.5 95 5 89.5 L 4 86.5 L 5 83.5 L 4 80.5 Q 6.5 79 5 73.5 L 4 71.5 L 5 69.5 L 4 67.5 L 5 63.5 L 4 60.5 L 4 58.5 L 4 40.5 L 5 35.5 L 4 32.5 L 5 28.5 L 4 24.5 L 5 23.5 L 5 13.5 L 4 11.5 L 4 9.5 L 5 6 L 30.5 6 L 31.5 5 L 32.5 6 L 53.5 6 L 54.5 5 L 91.5 5 L 94.5 6 L 98.5 5 Q 100.2 7.8 106.5 6 L 111.5 5 L 113.5 5 L 167.5 5 L 168.5 4 Z M 83 8 L 82 9 L 30 9 L 29 10 L 26 9 L 22 9 L 8 9 L 8 24 L 8 26 L 8 42 L 7 43 L 7 87 L 8 88 L 8 97 L 7 98 Q 6 102 8 104 L 7 108 L 7 110 L 7 147 L 8 148 Q 9 152 7 154 L 8 157 L 13 149 Q 12 146 15 147 L 9 157 Q 8 162 11 164 Q 9 170 13 169 L 13 171 L 7 170 L 8 175 L 7 179 L 11 178 Q 13 177 12 180 L 9 181 Q 6 180 7 183 L 10 182 L 12 183 Q 9 184 10 189 L 7 192 L 8 197 L 10 191 L 16 186 L 17 184 L 22 179 L 33 175 L 41 175 L 48 177 L 49 178 Q 50 174 48 175 L 46 172 L 50 173 L 52 177 L 51 179 L 55 181 L 54 176 L 50 171 L 43 170 L 38 167 L 38 165 L 37 169 L 43 171 L 42 173 L 40 172 L 30 174 L 28 174 Q 25 175 26 172 L 29 171 L 31 172 L 33 171 L 36 160 L 39 161 L 41 158 L 44 160 L 44 155 Q 40 154 39 157 L 33 147 Q 30 148 31 145 L 29 144 Q 20 143 18 147 L 16 147 L 21 143 Q 25 144 27 142 L 33 144 Q 38 147 39 153 L 44 152 L 47 154 L 48 158 L 47 160 L 49 159 Q 54 158 57 161 L 60 164 Q 62 154 57 151 Q 57 145 60 144 L 53 134 L 43 113 L 35 100 L 36 94 L 40 91 L 41 93 L 43 91 L 50 91 Q 51 88 47 89 L 45 85 L 37 79 Q 36 74 39 73 L 37 70 L 38 67 L 37 64 L 39 58 L 39 52 L 44 46 Q 48 47 46 42 L 54 35 Q 58 34 60 36 L 68 32 Q 74 31 77 34 L 79 33 L 83 33 L 96 41 L 97 44 L 96 46 L 99 52 L 99 56 L 102 61 L 99 67 L 102 72 L 99 77 L 99 81 L 95 87 L 98 88 L 102 94 L 102 98 L 99 104 L 99 107 L 84 143 L 87 144 L 89 148 L 89 152 L 82 157 Q 82 179 91 193 L 95 187 Q 105 174 125 170 L 136 171 L 147 177 L 152 184 L 151 186 L 152 190 L 154 189 L 159 191 L 161 195 L 154 191 L 144 191 L 133 196 L 129 201 L 129 209 Q 126 210 127 216 L 131 218 L 132 221 L 137 220 L 140 221 L 144 211 L 156 204 Q 162 203 164 206 L 164 204 L 164 202 L 165 197 L 162 196 Q 161 193 164 194 Q 165 196 166 194 L 162 192 L 158 188 L 158 184 L 162 181 L 157 171 L 156 165 Q 151 159 150 150 L 142 136 L 134 135 L 132 136 Q 133 133 130 134 L 130 132 L 128 135 L 127 132 L 126 132 Q 127 134 124 133 L 124 136 Q 123 138 120 137 L 117 140 L 114 139 L 116 138 L 115 137 L 118 132 L 118 130 L 112 141 L 109 142 L 113 135 L 113 132 L 109 137 L 105 140 L 108 132 L 101 135 Q 100 132 103 133 L 106 129 L 104 130 L 98 130 L 103 127 Q 106 128 104 124 L 101 125 L 98 124 L 104 123 L 105 120 L 101 120 Q 102 117 104 119 L 106 118 L 102 117 L 103 115 L 108 116 L 110 116 L 112 116 L 107 113 L 106 111 L 109 112 L 112 111 L 111 109 Q 107 110 108 107 L 111 108 L 114 107 L 112 106 L 113 104 L 121 108 L 121 107 L 116 104 L 115 102 L 123 105 L 121 103 L 122 101 L 121 98 L 125 97 L 125 96 Q 122 97 123 94 L 128 95 L 128 93 L 133 95 L 131 91 L 135 94 L 136 92 L 131 89 L 132 87 L 139 91 Q 141 92 140 89 L 131 85 L 134 83 L 136 83 L 140 83 L 138 82 L 136 79 Q 141 78 143 82 L 143 81 L 140 79 L 141 77 L 145 80 Q 147 81 146 78 L 140 75 L 141 73 L 148 77 Q 149 74 147 75 L 144 71 Q 147 72 145 68 L 147 68 L 148 68 L 144 62 L 154 68 L 155 68 L 151 64 L 150 62 L 153 63 L 154 64 Q 155 61 153 62 L 151 59 L 154 59 L 158 63 L 158 62 L 156 58 L 158 59 L 158 58 L 155 56 L 155 54 L 157 54 Q 156 51 159 52 L 162 53 L 161 51 L 163 51 L 164 49 Q 163 46 167 47 L 168 48 Q 167 43 171 45 L 172 50 L 172 45 L 177 44 L 178 48 L 179 48 Q 177 43 182 44 L 181 46 L 182 52 Q 181 46 185 44 L 186 48 L 188 47 L 190 49 L 189 52 L 192 52 L 194 51 L 196 51 Q 198 50 197 54 L 198 55 L 196 58 L 199 56 L 200 60 L 195 64 L 197 64 L 200 61 L 201 63 L 200 65 L 202 65 L 201 68 L 203 68 L 202 73 L 204 73 L 205 71 L 208 80 L 206 85 L 209 83 L 211 84 Q 213 83 212 86 L 209 87 L 215 88 L 214 90 Q 217 91 216 89 L 222 85 Q 224 86 223 84 L 222 84 L 219 83 L 220 72 L 223 70 L 231 60 L 233 50 L 234 24 L 236 20 L 243 14 L 250 14 L 251 12 L 252 12 L 251 14 L 258 16 Q 260 15 259 18 L 262 19 L 298 20 Q 306 21 311 28 L 311 35 L 294 66 L 289 78 L 293 84 L 293 89 L 289 92 Q 291 108 298 120 Q 300 117 307 118 Q 311 119 310 124 L 313 123 Q 323 122 329 126 L 332 132 L 333 132 L 333 59 L 332 58 L 333 56 L 333 32 L 332 31 L 332 9 L 315 9 L 313 9 Q 307 11 306 8 L 300 9 L 298 9 L 294 8 L 292 9 Q 286 11 285 8 L 283 9 L 281 9 L 279 8 L 278 9 L 263 9 L 261 9 L 247 9 L 246 8 L 234 8 L 233 9 Q 226 11 225 8 L 223 9 L 220 8 Q 214 7 213 9 L 210 8 L 209 9 L 180 9 L 178 9 L 111 9 L 110 8 L 108 9 Q 102 11 101 8 L 98 9 L 91 8 L 89 8 L 87 9 L 83 8 Z M 250 15 L 246 16 L 245 20 Q 253 18 255 23 L 257 22 L 259 22 L 259 25 L 257 25 Q 256 30 260 28 L 258 36 L 261 35 Q 263 34 262 37 Q 267 39 265 34 Q 269 33 267 38 L 271 38 L 273 38 L 274 33 L 273 29 Q 272 26 275 27 L 275 25 L 273 24 L 271 28 L 271 31 Q 269 34 263 33 Q 260 29 260 22 L 257 18 L 256 21 Q 253 22 254 18 Q 253 15 251 18 Q 252 20 249 19 L 250 17 L 250 15 Z M 241 16 L 242 22 L 240 23 L 240 25 L 238 28 L 239 31 L 238 33 L 236 32 L 236 34 L 235 43 Q 239 45 235 47 L 236 49 L 230 66 L 226 69 Q 221 72 222 81 L 228 79 L 229 77 Q 225 75 229 73 L 232 75 L 234 72 L 235 65 L 237 62 L 239 52 L 239 38 L 240 37 L 237 36 Q 236 33 239 34 L 240 33 L 242 24 Q 248 21 243 19 Q 244 15 241 16 Z M 239 20 L 237 22 L 239 22 L 239 20 Z M 283 21 L 283 23 L 287 22 L 289 23 L 292 23 Q 289 20 283 21 Z M 278 22 L 275 24 L 277 27 L 275 28 L 281 30 L 282 30 L 281 33 Q 279 38 283 37 Q 284 29 282 25 L 281 28 Q 278 29 279 25 L 281 25 L 278 22 Z M 300 24 L 300 25 L 302 25 L 300 24 Z M 73 34 L 66 36 L 67 38 L 72 37 L 74 37 L 74 39 Q 76 42 77 39 L 76 35 L 73 34 Z M 82 36 Q 82 39 86 39 L 86 37 L 82 36 Z M 56 37 L 49 42 L 50 46 L 50 44 L 56 43 Q 57 45 59 42 L 62 43 L 64 40 L 63 38 L 56 37 Z M 244 38 L 240 65 L 231 83 Q 230 85 226 84 L 221 89 L 221 91 L 221 92 Q 223 91 222 94 L 225 94 L 226 98 L 229 96 Q 232 95 231 98 L 228 102 L 236 99 L 239 100 L 237 101 L 238 103 L 246 101 L 250 104 Q 254 103 252 108 L 249 109 L 252 110 Q 254 109 253 112 L 250 113 L 254 113 L 255 118 L 253 118 Q 252 121 255 120 L 255 121 Q 252 120 253 123 L 255 122 L 255 125 L 258 126 L 267 100 L 267 92 L 265 90 L 260 84 L 261 80 L 264 79 L 264 76 L 259 68 L 258 63 Q 251 55 248 44 L 244 38 Z M 252 38 L 252 40 L 263 43 L 265 42 L 268 43 L 271 42 L 273 42 Q 275 41 274 44 L 265 44 L 264 45 Q 262 43 257 44 L 252 42 Q 252 47 256 51 L 257 57 L 263 64 Q 270 63 269 66 L 263 67 Q 265 70 271 70 L 266 72 L 269 75 L 272 74 L 271 78 L 284 79 L 284 77 L 275 77 L 275 75 L 285 75 L 273 74 L 275 71 L 277 72 L 288 72 L 289 69 L 286 70 L 274 70 L 273 68 L 275 68 L 285 68 L 286 67 L 290 68 L 290 66 L 282 66 L 281 67 L 274 66 L 275 64 L 279 65 L 292 63 L 293 61 Q 286 59 285 62 L 274 62 L 273 60 L 288 60 L 293 59 L 296 57 L 296 54 L 284 57 Q 277 59 278 55 L 297 53 L 299 51 L 299 49 L 290 52 L 282 52 L 281 50 L 285 51 L 299 48 L 300 46 L 297 47 L 287 47 L 286 45 L 298 45 L 302 43 Q 304 44 303 40 L 301 41 L 296 40 L 293 41 L 290 40 L 286 41 L 284 41 L 266 41 L 265 40 L 263 41 L 252 38 Z M 69 39 L 65 44 Q 66 46 64 45 Q 62 42 60 47 L 61 51 L 61 49 Q 64 48 63 52 L 65 53 L 68 50 L 67 43 Q 71 42 70 45 Q 74 47 73 43 L 69 39 Z M 83 39 L 80 42 L 84 50 L 80 51 L 81 57 L 86 55 L 87 59 L 90 58 L 89 53 L 95 55 L 97 51 Q 97 47 93 48 L 89 47 L 90 42 L 88 41 L 85 43 Q 86 45 84 44 Q 81 43 83 42 L 83 39 Z M 93 42 L 92 45 L 94 46 L 93 42 Z M 77 44 L 74 48 L 75 50 Q 74 53 78 52 L 80 49 L 79 47 Q 80 43 77 44 Z M 51 46 L 54 51 L 57 50 L 57 46 L 51 46 Z M 72 48 L 73 50 Q 74 47 72 48 Z M 186 48 L 185 52 L 186 52 L 186 48 Z M 47 49 L 45 51 L 49 55 Q 51 54 50 50 L 47 49 Z M 54 52 L 52 54 L 53 56 L 55 55 Q 56 51 54 52 Z M 173 53 L 171 56 Q 170 59 173 58 L 173 53 Z M 43 54 L 42 57 Q 41 61 44 63 L 48 60 L 47 57 L 43 54 Z M 61 54 L 59 58 L 62 56 Q 63 53 61 54 Z M 73 54 L 73 57 L 76 58 L 77 55 L 73 54 Z M 177 54 L 177 57 Q 180 56 177 54 Z M 193 54 L 190 58 L 192 58 L 193 56 L 193 54 Z M 70 55 L 69 57 L 71 58 L 70 55 Z M 179 56 Q 177 59 180 58 L 179 56 Z M 93 57 L 95 65 Q 93 66 96 67 L 98 63 L 97 59 L 97 57 L 93 57 Z M 169 57 Q 167 60 170 59 L 169 57 Z M 64 58 L 62 61 L 64 60 L 64 58 Z M 56 59 L 51 63 L 56 63 Q 57 67 63 67 Q 66 69 63 70 L 53 65 L 50 71 Q 52 80 57 87 Q 56 89 59 88 L 59 90 L 66 94 L 68 97 L 73 96 L 84 83 L 83 80 Q 82 75 85 74 L 83 71 L 83 66 Q 79 67 80 64 L 73 69 L 76 70 L 80 69 Q 82 68 81 71 L 78 73 L 73 72 L 71 78 L 70 69 Q 73 64 80 62 L 82 63 L 81 61 Q 75 60 74 63 L 68 61 L 64 63 Q 58 64 57 61 Q 58 58 56 59 Z M 159 59 L 160 64 L 162 65 Q 163 59 159 59 Z M 177 59 L 175 61 L 172 60 L 170 63 L 169 62 Q 165 61 167 67 L 165 67 Q 167 72 163 71 L 160 77 Q 161 80 159 79 L 147 96 L 131 109 Q 128 108 129 111 L 136 116 L 143 118 L 149 123 L 159 127 L 174 127 L 167 124 L 162 124 L 150 118 L 148 115 L 143 111 L 138 110 L 138 109 L 144 110 L 150 114 L 165 119 L 166 122 L 164 123 Q 168 125 175 124 L 178 127 L 189 127 L 202 124 L 227 112 L 224 110 Q 221 109 224 107 Q 226 108 225 105 L 223 106 L 222 104 L 222 102 L 221 101 L 220 104 Q 216 105 218 100 L 216 101 L 215 100 L 214 100 Q 209 101 211 97 L 210 97 L 206 95 L 206 94 L 206 92 L 204 96 L 210 100 L 211 102 Q 207 103 206 101 Q 207 98 204 99 L 191 84 L 184 65 L 177 59 Z M 40 61 Q 38 64 41 63 L 40 61 Z M 185 61 L 186 63 Q 187 60 185 61 Z M 48 63 L 47 67 L 49 66 L 48 63 Z M 189 63 Q 188 67 191 66 Q 192 62 189 63 Z M 88 64 L 86 66 Q 85 68 88 67 L 88 64 Z M 45 65 L 41 68 L 42 71 Q 43 75 40 74 L 41 81 L 44 82 L 48 81 L 49 84 L 48 86 L 52 88 L 54 88 L 51 84 L 51 81 L 45 77 L 47 74 L 44 72 L 45 68 L 45 65 Z M 91 66 L 90 68 L 87 69 Q 86 73 89 74 L 91 71 L 94 75 Q 97 76 98 73 L 97 69 Q 92 70 91 66 Z M 150 67 L 149 69 Q 151 73 153 70 L 150 67 Z M 192 67 L 188 70 L 190 72 L 192 69 L 192 67 Z M 146 70 L 146 72 L 152 75 L 153 75 L 146 70 Z M 199 72 L 197 75 L 199 75 L 199 72 Z M 192 73 Q 190 81 195 85 Q 194 87 197 86 L 196 85 Q 197 81 194 82 L 192 73 Z M 88 75 L 86 78 L 87 83 Q 88 85 93 84 L 96 80 L 95 77 L 93 78 L 88 77 L 88 75 Z M 202 75 L 199 77 Q 201 80 202 77 L 202 75 Z M 203 75 L 203 77 L 205 76 L 203 75 Z M 205 79 L 205 81 L 207 80 L 205 79 Z M 268 79 L 264 82 L 265 88 L 270 90 L 271 90 L 269 85 L 270 81 L 268 79 Z M 286 80 L 284 82 Q 283 84 287 83 L 287 84 Q 283 83 284 87 Q 285 89 289 88 L 291 84 L 286 80 Z M 275 81 L 274 85 L 276 88 L 276 82 L 281 85 L 279 88 L 281 88 L 282 84 Q 281 80 275 81 Z M 87 84 L 86 88 L 88 87 L 87 84 Z M 198 86 L 197 88 L 201 91 L 198 86 Z M 83 88 Q 82 91 85 90 Q 86 87 83 88 Z M 213 88 L 211 90 Q 210 92 213 91 L 213 88 Z M 219 89 L 217 91 L 219 91 L 219 89 Z M 96 90 Q 97 91 97 96 L 90 100 L 87 99 Q 84 98 85 101 L 84 102 L 77 102 L 69 104 L 67 104 L 65 103 L 61 104 L 58 103 L 54 104 L 43 100 L 42 102 Q 45 105 51 105 L 50 107 L 53 108 L 62 109 L 62 107 L 55 107 Q 54 104 57 105 L 60 106 L 84 104 L 96 99 L 99 95 L 98 92 L 96 90 Z M 143 91 L 142 93 L 145 95 L 143 91 Z M 52 92 L 51 97 L 53 97 L 52 92 Z M 272 92 L 271 103 L 260 132 L 256 140 L 252 144 Q 249 143 250 146 L 257 149 L 261 149 L 279 154 L 280 157 L 263 152 L 255 151 L 245 146 Q 244 143 247 144 L 257 130 L 255 128 Q 253 124 252 127 L 248 126 L 240 127 L 238 127 L 231 132 Q 223 139 220 151 Q 218 167 227 172 L 225 175 L 221 174 L 215 175 L 209 182 L 210 192 L 199 194 L 193 207 Q 197 210 196 218 L 200 224 L 205 222 Q 207 221 206 216 L 212 211 L 222 208 L 233 210 L 235 212 L 243 212 L 247 202 Q 252 194 264 192 Q 272 190 275 194 L 276 189 L 280 186 Q 284 184 281 183 Q 282 174 286 169 L 282 169 L 277 174 L 276 171 L 273 175 L 274 179 Q 275 181 273 180 L 270 177 L 270 174 L 274 168 L 278 165 Q 283 164 285 166 L 287 169 L 289 166 Q 286 167 287 163 L 282 163 L 282 161 Q 288 160 290 164 Q 289 166 292 165 L 293 163 Q 297 157 306 155 L 316 157 L 317 155 Q 321 150 328 149 L 330 149 L 334 148 L 331 146 L 327 137 L 325 134 L 317 131 L 315 132 L 324 136 L 329 144 Q 330 148 328 147 L 324 141 L 316 135 L 308 135 L 307 133 L 313 132 L 313 131 Q 309 132 311 128 Q 320 127 326 131 L 330 135 L 328 131 L 322 126 L 313 126 L 312 127 L 307 127 L 308 124 L 305 121 Q 300 120 299 123 L 300 124 L 303 122 L 304 125 L 300 128 Q 304 139 311 148 L 310 151 L 295 153 L 290 155 L 288 155 L 283 156 L 279 152 L 277 141 L 277 132 L 276 131 L 276 115 L 277 114 L 276 105 L 276 103 L 277 100 L 276 98 L 277 93 L 272 92 Z M 282 92 L 280 94 L 280 139 L 284 154 L 290 151 L 286 150 L 291 147 L 303 145 L 304 142 L 291 145 L 289 142 L 300 140 L 301 138 Q 294 137 292 140 Q 286 142 287 138 L 295 137 L 295 136 Q 290 137 291 134 L 296 133 L 298 133 L 297 130 L 285 133 Q 282 134 283 131 L 289 130 L 289 129 Q 282 131 283 127 L 292 125 Q 295 124 294 127 L 296 128 L 288 104 L 281 104 L 287 101 L 287 99 L 282 99 Q 281 95 286 97 L 286 92 L 282 92 Z M 142 94 L 141 98 L 144 96 L 142 94 Z M 218 94 Q 217 97 220 96 Q 221 93 218 94 Z M 47 95 L 48 97 Q 49 94 47 95 Z M 129 95 L 131 98 L 132 98 L 129 95 Z M 214 95 Q 213 98 216 97 Q 217 94 214 95 Z M 126 97 L 129 100 L 130 100 L 126 97 Z M 222 97 L 220 99 L 221 100 L 223 99 Q 224 96 222 97 Z M 81 98 Q 80 101 83 100 Q 84 97 81 98 Z M 123 99 L 123 101 L 126 102 L 127 102 L 123 99 Z M 225 99 L 224 103 L 227 101 Q 228 98 225 99 Z M 97 101 L 94 103 L 90 103 L 82 106 L 63 108 L 66 109 L 66 110 Q 62 109 63 112 L 65 113 L 73 114 L 64 114 L 64 117 L 71 117 L 70 119 L 65 118 Q 66 122 64 123 L 60 122 L 61 124 L 70 124 L 69 126 L 67 125 L 65 126 L 63 125 Q 60 124 61 127 L 68 128 L 63 128 Q 62 132 68 130 L 68 131 Q 62 129 63 133 L 68 134 L 70 133 Q 71 137 66 135 L 64 135 Q 63 139 68 137 L 69 137 Q 70 140 66 138 Q 65 141 70 140 L 71 140 L 71 141 L 67 141 Q 66 144 70 143 L 71 143 L 70 145 L 73 146 L 80 144 L 77 143 L 77 141 L 81 141 L 81 140 L 80 140 Q 76 141 77 138 L 83 137 L 84 134 L 82 135 L 77 135 L 84 133 L 86 130 L 84 131 L 80 131 L 85 128 Q 88 129 87 127 L 86 127 L 82 127 L 87 125 L 84 124 L 89 122 L 90 120 L 89 120 L 86 120 L 90 118 L 92 115 L 91 115 L 88 115 L 92 113 L 93 111 L 91 112 L 88 112 L 94 109 L 95 105 L 93 105 L 97 103 L 97 101 Z M 233 101 L 233 103 L 235 104 Q 236 100 233 101 Z M 232 102 L 230 105 L 232 104 L 232 102 Z M 242 103 L 240 105 L 241 106 L 245 104 L 242 103 Z M 236 105 L 236 107 L 238 106 L 236 105 Z M 247 105 Q 245 108 248 107 L 247 105 Z M 249 105 Q 248 108 251 107 Q 252 104 249 105 Z M 231 107 Q 230 110 233 109 Q 234 106 231 107 Z M 239 107 Q 238 110 241 109 Q 242 106 239 107 Z M 236 108 L 233 109 Q 232 112 236 111 L 236 108 Z M 51 109 L 51 111 L 54 111 L 51 109 Z M 57 110 Q 56 112 61 112 Q 62 108 57 110 Z M 230 110 Q 229 113 232 112 Q 233 109 230 110 Z M 244 110 L 242 112 L 245 113 L 244 110 Z M 114 111 L 116 113 L 119 113 L 114 111 Z M 127 111 Q 126 115 122 114 L 122 116 Q 117 115 119 119 L 124 121 L 128 118 L 126 121 L 124 123 L 117 124 Q 116 128 119 127 L 120 125 L 121 128 L 122 124 L 122 128 L 123 128 Q 122 124 125 125 L 128 124 L 127 121 L 131 118 L 129 117 L 127 111 Z M 234 112 L 232 114 Q 225 112 227 118 L 226 119 L 234 126 L 234 124 L 231 122 L 235 121 L 234 120 L 236 119 L 238 121 L 237 119 Q 238 115 236 116 Q 234 113 233 117 L 231 117 L 236 114 L 234 112 Z M 58 113 L 57 115 L 60 116 Q 61 118 62 116 L 58 113 Z M 243 113 L 241 115 L 243 115 L 244 116 L 243 113 Z M 239 116 L 240 118 Q 241 115 239 116 Z M 247 116 Q 244 117 246 119 L 244 119 Q 243 123 246 124 Q 249 122 245 121 L 247 121 L 247 116 Z M 113 117 Q 110 121 114 120 L 113 117 Z M 153 117 L 153 118 L 162 122 L 164 122 L 153 117 Z M 242 117 Q 240 120 243 119 L 242 117 Z M 54 118 L 56 121 Q 57 117 54 118 Z M 59 118 Q 58 123 62 121 Q 64 117 59 118 Z M 118 118 Q 116 121 119 122 L 121 121 L 118 120 L 118 118 Z M 222 118 L 220 122 L 222 121 L 222 118 Z M 249 118 L 249 120 L 252 120 L 249 118 Z M 223 119 L 223 121 L 225 120 L 225 122 L 226 122 Q 227 117 223 119 Z M 140 120 L 141 122 Q 142 119 140 120 Z M 223 121 L 222 124 L 223 124 L 223 121 Z M 228 121 L 226 123 Q 225 125 228 124 L 228 127 L 230 127 L 228 121 Z M 241 121 L 240 123 L 242 124 L 241 121 Z M 212 122 L 213 124 Q 214 121 212 122 Z M 236 122 L 236 124 L 238 125 Q 239 121 236 122 Z M 209 124 L 209 127 L 211 126 Q 212 123 209 124 Z M 113 125 L 111 127 L 113 127 L 113 125 Z M 205 125 Q 204 128 208 127 Q 209 124 205 125 Z M 152 127 L 152 129 Q 154 132 155 129 L 152 127 Z M 231 127 L 231 129 L 233 128 L 231 127 Z M 292 127 L 289 129 L 292 129 L 292 127 Z M 58 128 L 58 130 L 60 129 L 58 128 Z M 227 128 L 227 130 L 229 131 Q 230 127 227 128 Z M 113 129 L 114 132 L 115 130 L 113 129 Z M 166 130 L 164 132 Q 166 133 165 138 L 164 141 L 166 142 Q 173 141 172 144 Q 177 145 177 142 L 183 142 L 185 142 L 189 144 L 186 144 L 184 144 L 182 145 L 180 144 L 179 147 L 163 147 L 162 146 L 154 147 Q 151 146 153 145 L 149 142 L 159 165 L 159 163 L 169 166 Q 174 164 173 168 L 159 165 L 161 172 L 165 174 L 173 174 L 173 176 L 169 175 Q 162 173 163 177 Q 167 179 175 178 L 175 180 Q 172 179 173 182 L 175 181 L 177 182 L 174 183 L 173 186 L 175 190 L 172 189 Q 168 187 170 182 L 167 184 L 169 184 L 168 189 L 168 191 Q 169 193 171 191 L 173 193 L 169 193 L 165 220 L 161 235 L 158 239 L 162 241 L 171 242 L 172 245 L 167 243 L 163 243 L 157 240 L 154 245 L 150 248 L 147 252 Q 150 253 149 250 L 152 250 L 154 250 L 168 254 L 180 254 L 182 255 L 183 256 Q 184 251 182 252 L 183 250 L 185 251 L 186 249 L 185 249 L 182 246 Q 181 243 184 244 L 184 243 Q 181 244 182 241 Q 189 242 192 239 L 187 238 L 187 236 L 193 236 L 195 230 L 189 231 Q 184 232 186 227 L 193 226 Q 197 227 196 224 L 187 225 L 188 223 L 194 223 L 194 220 L 189 221 Q 185 222 186 219 Q 191 220 193 218 L 188 193 Q 181 192 178 196 L 179 198 L 179 209 L 180 210 L 179 212 L 180 214 L 179 218 L 181 222 L 180 224 L 180 244 L 180 246 L 181 250 L 178 251 Q 176 245 177 234 L 177 232 L 177 216 L 176 215 L 177 213 L 175 204 L 174 202 Q 170 203 171 200 L 174 201 L 176 201 L 175 194 L 183 192 L 187 188 Q 190 187 189 190 L 191 189 Q 192 184 190 183 Q 192 177 189 178 L 190 176 Q 192 177 191 175 L 191 173 Q 190 170 193 171 L 193 168 L 185 169 L 186 167 L 194 167 L 195 164 L 191 165 L 184 165 L 186 163 L 196 162 L 197 160 L 196 160 L 187 160 L 197 157 Q 200 158 199 155 L 200 153 L 192 155 Q 186 157 187 153 Q 195 154 200 151 Q 202 152 201 149 L 190 152 L 187 151 L 202 147 L 203 144 L 195 145 L 193 142 L 206 141 L 209 138 L 209 136 L 203 140 L 198 140 L 192 142 L 189 142 L 192 140 L 191 138 L 191 130 L 181 130 L 181 140 Q 177 138 179 132 L 177 131 L 177 139 L 175 139 Q 176 133 174 130 L 173 137 L 170 131 L 168 132 L 169 136 Q 170 139 168 140 L 166 139 L 166 130 Z M 215 130 L 216 135 Q 217 138 214 137 L 213 132 L 212 137 L 206 148 Q 207 152 204 151 L 201 162 L 193 178 Q 192 182 195 183 L 195 188 L 191 196 L 193 200 L 195 196 L 200 192 Q 205 193 207 191 Q 209 185 206 184 L 209 178 L 217 172 L 222 172 L 223 173 L 217 161 L 217 151 Q 219 140 225 134 L 224 134 L 222 133 L 222 135 L 222 136 L 221 134 L 217 136 L 216 133 Q 217 129 215 130 Z M 122 131 L 121 136 L 122 136 L 122 131 Z M 65 146 L 63 150 L 61 151 L 64 152 L 65 149 L 65 146 Z M 84 146 L 82 149 L 86 150 L 86 148 L 84 146 Z M 70 147 Q 66 149 67 154 L 72 156 L 73 149 L 70 147 Z M 76 147 Q 75 151 78 150 L 76 154 Q 80 156 79 152 L 79 150 Q 80 145 76 147 Z M 83 150 L 83 153 L 85 152 Q 86 149 83 150 Z M 331 150 L 322 153 L 318 159 L 319 164 L 321 158 L 326 154 L 332 153 Q 333 149 331 150 Z M 331 154 L 326 156 L 322 161 L 322 168 L 320 168 L 317 164 L 309 161 Q 299 161 294 165 Q 287 170 284 180 L 285 182 Q 286 187 284 188 L 280 187 L 279 190 Q 278 196 281 198 Q 282 200 279 199 L 277 196 L 273 194 Q 261 193 255 197 Q 248 201 246 211 L 247 213 L 246 215 L 242 214 Q 237 213 238 216 L 231 212 L 229 212 L 225 210 L 221 210 L 213 213 Q 207 215 209 225 L 212 225 L 214 224 L 216 228 Q 217 232 213 233 L 215 233 L 216 237 L 210 242 L 208 242 Q 204 243 205 248 L 201 252 L 199 258 L 202 264 Q 203 268 201 270 L 207 281 L 213 280 L 216 281 L 217 280 L 233 280 L 234 282 L 235 280 L 234 278 Q 233 269 238 267 L 235 261 L 237 254 L 232 245 L 228 242 L 221 234 L 223 231 L 224 231 L 224 226 L 227 225 L 234 225 L 239 228 L 246 237 L 247 243 L 251 249 L 254 250 L 257 259 Q 258 265 256 264 L 252 270 L 253 272 L 256 271 L 255 282 L 250 285 L 252 291 L 236 329 Q 237 335 234 339 L 237 344 L 236 349 L 232 352 L 234 369 L 237 380 Q 240 381 239 378 L 253 372 L 262 373 L 267 376 L 275 372 L 279 374 L 281 369 L 284 351 Q 279 352 277 349 Q 276 343 280 342 L 276 332 L 270 334 L 266 333 L 262 335 L 266 336 L 258 339 Q 256 341 255 339 L 255 336 L 260 329 L 262 330 L 261 332 L 263 331 L 267 332 Q 273 333 275 329 L 271 323 L 272 321 L 268 314 L 266 306 L 265 306 L 260 301 L 256 304 L 253 300 L 256 294 L 256 288 L 260 284 L 263 284 L 266 286 Q 267 277 264 272 L 264 265 L 269 257 L 273 258 L 279 267 Q 278 270 281 269 L 284 273 Q 286 272 285 269 L 291 263 L 290 255 L 287 250 L 286 252 L 284 251 L 282 254 L 276 251 L 275 249 Q 276 245 273 246 L 274 244 L 272 243 L 275 239 L 273 234 L 271 235 Q 272 237 269 236 L 270 233 L 270 231 Q 269 235 265 234 L 263 234 L 261 235 L 258 235 L 251 231 L 247 227 Q 246 219 249 216 Q 251 213 252 216 L 250 222 L 250 227 Q 252 231 259 232 L 261 232 L 264 233 L 270 225 L 271 228 L 273 227 Q 277 225 276 229 L 280 230 Q 285 234 284 244 L 288 245 Q 290 234 298 228 L 298 223 L 303 215 L 310 218 Q 311 215 313 220 L 313 221 L 307 221 Q 306 225 312 223 L 313 223 L 312 225 L 316 227 L 321 236 L 321 246 L 317 251 L 317 253 L 322 256 L 329 266 Q 330 274 328 279 L 320 292 L 323 298 L 324 307 L 320 309 L 319 304 L 307 337 Q 306 342 309 343 Q 310 347 308 349 Q 309 351 306 350 L 307 355 L 312 351 L 311 348 L 312 340 Q 316 333 325 330 L 334 330 L 334 330 L 334 298 L 334 296 L 333 294 L 334 292 L 333 288 L 333 280 L 334 279 L 334 244 L 329 237 L 329 228 L 330 227 Q 328 219 323 215 Q 322 212 325 213 L 328 216 L 327 213 Q 323 207 317 205 L 309 205 L 308 207 Q 305 208 306 205 L 314 202 L 324 205 L 327 210 L 330 212 L 329 209 L 322 201 L 315 199 L 307 202 Q 304 201 305 204 L 303 204 L 304 200 L 311 197 Q 314 198 313 195 L 306 197 L 299 201 Q 300 204 297 206 L 297 210 L 293 214 L 293 215 L 287 215 L 289 218 Q 293 219 295 216 L 296 213 L 300 214 L 290 221 L 288 221 Q 285 218 279 219 L 276 210 L 272 205 L 266 205 L 259 208 L 257 212 L 258 213 L 261 211 Q 267 213 269 210 L 273 211 Q 278 215 279 222 L 282 223 Q 289 222 288 225 L 279 224 L 272 213 L 261 214 L 255 222 Q 254 226 258 227 Q 262 228 263 226 L 262 224 Q 261 220 264 221 Q 267 222 266 228 L 263 230 L 256 229 L 252 224 Q 251 218 254 217 Q 257 215 253 214 L 255 209 Q 260 204 268 202 Q 273 201 275 204 Q 277 203 276 206 L 278 206 L 281 216 L 284 217 L 282 215 L 283 212 L 282 208 L 271 199 L 266 199 L 259 202 L 257 205 L 251 210 Q 250 205 253 204 L 257 200 L 264 197 L 275 197 L 285 206 L 285 204 L 282 201 L 283 199 L 285 200 L 289 208 Q 287 215 292 213 L 294 210 Q 296 211 295 208 L 294 208 Q 289 209 290 207 Q 288 205 291 204 L 295 205 L 297 202 Q 302 195 313 193 Q 327 192 333 200 L 333 195 L 333 193 L 333 177 L 334 176 L 334 173 L 332 176 Q 331 178 327 177 Q 326 174 330 175 L 330 172 Q 328 175 324 174 Q 323 171 327 172 L 329 167 L 331 168 L 330 171 L 331 172 L 333 170 L 334 165 L 333 164 L 331 165 L 334 160 L 333 155 L 331 154 Z M 65 158 L 64 162 L 66 166 L 64 166 L 62 173 L 62 179 L 60 181 L 60 185 L 63 187 L 59 187 L 55 203 Q 56 205 58 203 L 62 206 L 60 206 Q 58 204 57 207 L 60 207 L 61 209 L 56 208 L 54 206 L 53 210 L 62 211 L 65 213 L 66 215 Q 60 217 61 214 L 60 214 L 54 212 Q 51 213 52 210 L 50 210 L 48 214 Q 51 218 59 217 L 61 217 L 68 219 L 67 218 L 67 191 L 69 182 L 68 180 L 69 178 L 69 159 L 65 158 Z M 74 158 L 72 160 L 72 168 L 73 169 L 71 178 L 71 195 L 70 196 L 72 214 L 74 212 L 81 210 L 86 210 L 91 208 L 91 206 L 76 210 Q 72 211 73 208 L 79 208 L 93 204 L 90 198 L 83 199 L 79 201 L 78 199 L 89 197 L 83 185 L 82 178 L 79 177 L 80 173 L 77 172 L 80 170 L 76 168 L 79 167 Q 80 164 77 165 L 74 158 Z M 304 158 L 303 159 Q 299 158 300 161 L 306 159 L 314 161 L 314 159 Q 311 157 304 158 Z M 49 161 L 47 163 L 42 162 Q 41 165 45 164 L 47 164 L 52 166 L 51 166 L 48 165 L 42 167 L 44 168 L 52 169 L 56 176 L 56 175 L 59 176 L 59 170 L 60 168 L 58 169 Q 55 170 56 164 Q 54 160 49 161 Z M 8 162 L 7 165 L 8 165 L 8 162 Z M 128 172 L 114 175 L 105 181 L 95 191 L 93 197 Q 94 204 99 207 Q 98 209 101 208 Q 100 201 104 199 L 114 191 L 117 192 L 112 194 Q 102 200 101 214 L 100 215 L 91 216 Q 83 220 73 221 L 70 223 L 59 220 L 53 220 L 49 218 L 47 218 L 42 215 L 44 210 L 51 201 L 48 194 L 40 188 Q 26 186 23 194 L 22 193 Q 26 188 33 186 Q 41 185 45 189 Q 50 191 51 198 L 52 198 L 48 187 L 43 183 L 32 183 L 25 186 L 18 194 Q 19 197 16 196 Q 15 191 19 189 L 32 181 Q 42 179 48 183 L 54 192 L 55 190 Q 56 186 53 187 L 50 180 L 42 177 L 33 177 L 21 181 L 18 187 L 15 188 L 11 193 L 11 196 Q 15 194 14 198 L 7 200 L 8 204 L 11 202 L 13 203 L 16 198 L 17 201 L 8 207 Q 12 209 13 216 L 14 216 Q 15 209 11 208 Q 13 204 18 204 L 21 199 L 22 203 L 15 206 L 17 210 L 17 216 Q 16 220 10 219 L 7 224 L 8 228 L 7 233 L 7 235 L 8 238 L 7 240 L 7 261 L 8 262 L 7 264 L 7 287 L 15 283 L 18 283 L 19 282 L 20 273 L 22 271 L 22 264 L 22 262 L 23 257 L 22 255 L 22 252 L 24 252 L 24 234 L 24 232 L 23 230 L 24 228 L 21 226 L 27 216 Q 26 212 29 213 L 35 223 L 35 233 L 36 234 L 36 250 L 33 228 L 32 226 Q 27 225 26 228 L 26 249 L 27 250 L 24 258 L 24 266 L 25 267 L 22 277 L 22 287 L 20 291 Q 21 293 18 292 L 16 299 L 28 300 Q 30 296 29 288 L 30 287 L 30 283 L 27 291 L 27 296 L 26 296 Q 24 284 29 280 L 29 261 L 32 254 L 34 253 Q 36 258 32 257 L 32 269 L 31 270 L 32 280 L 32 273 Q 34 270 35 273 L 35 281 Q 32 283 33 290 L 33 292 Q 30 294 31 300 L 50 300 Q 51 298 57 299 L 58 298 L 55 293 L 55 287 L 53 281 L 52 281 L 53 285 Q 54 287 50 286 L 49 283 L 50 281 Q 47 275 48 266 L 48 264 Q 51 255 49 243 L 50 242 Q 49 236 46 233 L 45 244 L 44 245 L 46 253 L 44 256 L 46 259 Q 45 264 47 266 L 46 268 Q 47 270 44 269 L 43 258 L 40 256 L 42 265 Q 44 270 41 272 L 41 289 L 44 296 L 42 299 L 40 297 L 40 295 L 38 290 L 38 279 L 38 277 L 39 275 Q 41 268 38 267 L 39 265 L 37 254 Q 36 248 38 247 Q 37 242 40 243 L 41 253 L 42 253 Q 43 248 41 247 L 43 242 Q 44 236 41 235 L 42 230 L 40 226 Q 41 222 38 223 L 37 221 L 37 207 L 36 204 L 32 205 L 31 202 L 32 196 L 32 201 L 36 202 L 40 208 L 39 209 L 39 219 L 43 221 L 44 227 L 52 239 Q 54 240 51 242 L 51 260 L 52 261 L 51 263 L 54 272 L 57 267 Q 60 262 66 262 L 64 250 L 64 248 L 70 239 L 82 229 L 98 224 L 119 225 L 122 227 L 124 227 L 128 223 L 128 221 L 124 216 Q 123 211 126 210 L 126 201 L 133 194 L 142 190 L 149 189 L 146 181 L 134 173 Q 129 174 128 172 Z M 163 183 L 162 188 L 164 189 L 163 183 Z M 319 196 Q 319 199 321 197 L 327 201 L 329 205 L 332 207 L 329 201 L 322 196 L 319 196 Z M 93 205 Q 92 208 95 207 Q 96 204 93 205 Z M 157 206 L 150 209 L 144 216 L 144 224 L 143 225 L 138 222 L 130 224 Q 125 225 126 231 L 119 227 L 103 227 L 102 226 L 92 227 L 75 236 L 70 245 L 69 263 Q 68 265 65 264 L 58 271 L 59 275 L 57 279 L 59 279 Q 61 278 60 274 L 67 268 L 70 270 Q 64 269 63 274 L 64 275 Q 65 271 72 272 Q 73 270 74 273 L 66 275 L 65 278 L 63 275 L 60 281 Q 59 284 64 282 L 66 282 L 72 285 L 74 289 L 74 294 L 69 300 L 68 308 L 70 307 L 74 308 L 73 305 L 74 303 L 83 297 Q 95 296 100 301 L 104 308 Q 106 309 104 310 Q 101 309 102 306 Q 98 300 91 298 Q 80 297 76 304 L 77 307 L 75 311 L 71 309 L 69 310 L 67 309 Q 64 311 65 316 L 61 323 L 62 325 L 66 324 L 69 321 L 69 323 L 72 322 L 80 324 L 86 328 L 93 341 L 94 349 L 96 352 L 94 367 Q 93 369 89 368 L 90 371 L 89 373 Q 86 374 87 372 L 86 372 Q 87 374 84 373 Q 82 378 89 376 L 91 376 Q 95 377 94 374 L 104 368 L 112 368 L 119 371 L 123 351 L 116 347 Q 115 338 120 337 L 111 315 L 110 319 L 105 317 L 103 315 Q 99 313 103 311 L 109 313 L 104 299 L 100 295 L 101 290 L 106 286 L 108 286 L 108 281 L 112 280 L 114 277 L 113 272 L 118 267 L 120 267 L 118 260 Q 119 255 125 256 Q 124 250 128 248 Q 134 247 135 251 L 137 250 L 134 246 L 137 242 L 138 243 L 136 246 L 140 247 L 139 242 L 141 242 Q 143 241 142 244 L 148 247 L 155 239 L 159 231 L 161 223 L 161 217 L 157 219 L 160 215 Q 163 216 162 213 L 159 214 L 154 220 L 152 221 Q 153 214 158 212 Q 163 214 162 210 L 156 211 Q 149 214 149 224 Q 148 227 146 224 Q 145 219 148 219 L 148 215 Q 152 209 159 208 Q 160 205 157 206 Z M 96 207 L 95 209 L 85 213 Q 80 212 79 214 L 72 214 L 72 219 L 98 212 Q 99 208 96 207 Z M 333 207 L 332 210 L 333 210 L 333 207 Z M 334 210 L 333 214 L 334 214 L 334 210 Z M 7 212 L 7 216 L 10 215 Q 11 210 7 212 Z M 332 214 L 332 219 L 334 218 L 332 214 Z M 28 217 L 24 223 L 25 226 L 26 225 L 33 225 L 31 220 L 28 217 Z M 330 218 L 330 224 L 331 224 L 330 218 Z M 334 219 L 333 226 L 334 226 L 334 219 Z M 205 224 L 202 227 L 203 228 L 206 226 Q 207 223 205 224 Z M 210 226 L 207 228 L 203 233 L 213 229 Q 214 224 210 226 Z M 230 226 L 229 227 Q 225 226 226 229 L 233 231 Q 238 233 237 230 L 230 226 Z M 271 228 L 270 231 L 271 231 L 271 228 Z M 310 228 L 308 232 Q 309 234 306 233 L 306 235 L 305 235 L 304 237 L 306 236 L 308 236 L 313 241 L 312 246 Q 313 248 311 247 L 308 251 Q 309 253 313 252 L 318 246 Q 320 235 315 231 Q 314 227 310 228 Z M 226 231 L 225 232 Q 222 231 223 234 L 230 236 L 234 235 L 226 231 Z M 298 231 Q 293 235 292 243 L 292 245 L 291 248 L 292 259 L 293 260 L 292 265 L 293 267 L 291 274 Q 289 278 294 277 L 293 279 L 288 278 L 287 274 L 286 278 Q 283 283 280 277 Q 281 273 278 274 L 277 277 L 278 280 L 275 287 L 275 297 L 273 296 L 272 299 L 274 298 L 276 298 L 276 306 L 279 307 Q 278 309 277 307 Q 273 309 274 315 L 277 315 L 279 314 L 281 315 Q 283 314 282 311 L 285 308 L 284 307 L 285 305 L 289 302 Q 290 314 283 320 L 284 321 L 288 317 L 296 303 Q 295 300 298 301 L 299 298 L 303 296 L 308 289 L 309 277 L 312 274 L 316 287 L 316 292 L 313 295 L 307 296 L 303 302 L 304 305 L 304 303 Q 306 298 312 298 L 313 304 Q 312 299 315 297 Q 317 296 316 299 L 319 299 L 316 295 L 318 292 L 316 285 L 316 280 L 311 266 L 306 284 Q 305 286 302 285 L 300 285 L 299 283 Q 301 284 300 282 L 299 279 L 300 277 L 297 279 L 295 278 L 302 273 L 303 274 L 303 266 L 299 259 L 297 251 L 299 245 L 299 243 L 295 244 Q 294 241 297 242 L 299 238 Q 300 230 298 231 Z M 332 231 L 332 239 L 334 240 L 332 231 Z M 196 232 L 195 236 L 196 241 L 200 238 L 199 234 Q 200 231 196 232 Z M 238 233 L 239 238 L 242 240 L 241 243 Q 243 246 244 243 L 242 236 L 238 233 Z M 209 234 L 207 235 Q 204 236 205 241 L 213 236 Q 212 233 209 234 Z M 227 238 L 229 241 L 231 240 L 231 238 L 227 238 Z M 202 241 L 200 242 L 197 247 Q 196 250 199 251 L 203 245 L 202 241 Z M 234 241 L 235 246 L 240 246 L 240 245 Q 238 241 234 241 Z M 190 243 L 190 253 L 192 253 L 194 250 L 194 244 L 190 243 Z M 247 245 L 243 246 Q 242 250 245 249 L 247 252 L 249 249 L 247 245 Z M 143 247 L 141 249 Q 140 251 143 250 L 144 252 L 146 249 L 143 247 Z M 239 248 L 237 250 Q 236 252 239 251 L 239 248 Z M 130 249 L 127 254 L 130 258 L 132 257 L 131 253 L 132 251 L 130 249 Z M 138 251 L 138 254 L 140 253 Q 141 250 138 251 Z M 196 252 Q 192 253 193 258 L 197 256 Q 198 251 196 252 Z M 243 252 Q 240 260 243 264 L 245 265 L 244 263 L 245 260 L 243 252 Z M 303 252 L 303 254 L 301 255 L 302 258 L 307 259 L 308 262 L 316 264 L 320 272 Q 321 276 318 277 L 321 286 L 326 275 Q 327 267 324 263 L 314 254 L 312 255 L 303 252 Z M 148 253 L 144 254 L 145 260 L 145 259 L 150 255 L 148 253 Z M 154 253 L 153 255 Q 155 259 157 256 Q 159 257 158 254 L 154 253 Z M 187 253 Q 185 260 189 263 Q 188 265 191 264 L 192 261 L 190 258 Q 191 255 189 256 L 187 253 Z M 252 253 L 250 255 Q 251 258 248 257 L 247 263 L 252 265 L 254 261 L 252 253 Z M 134 255 Q 133 258 136 257 Q 137 254 134 255 Z M 160 255 L 160 257 L 154 260 L 159 265 L 161 261 L 160 261 L 157 261 L 161 259 L 162 260 L 165 257 L 160 255 Z M 176 256 Q 173 259 168 259 L 163 265 Q 164 267 162 266 L 159 271 Q 162 272 161 269 L 164 268 L 171 268 L 171 270 L 163 271 Q 160 272 161 278 L 158 281 L 159 283 Q 158 286 161 285 L 160 284 L 161 281 L 162 284 Q 163 286 169 285 L 171 288 Q 170 295 173 298 Q 174 300 171 299 L 171 297 L 169 302 L 172 301 L 171 304 Q 170 308 173 307 Q 175 313 171 315 L 174 320 L 171 325 L 174 330 L 171 334 Q 175 335 174 342 L 171 343 L 172 341 L 171 337 Q 168 336 169 339 Q 167 340 170 342 Q 169 345 167 342 Q 166 337 169 336 Q 170 331 167 331 Q 166 326 169 326 L 167 322 Q 165 315 170 317 L 167 312 Q 166 307 169 307 L 168 303 Q 164 301 167 300 L 165 299 L 163 307 L 154 324 L 154 327 L 149 340 L 151 349 L 147 351 L 148 360 L 150 364 L 151 372 L 153 375 L 153 380 L 155 381 L 159 377 L 166 375 L 170 376 L 174 380 L 175 379 L 183 382 L 184 376 L 194 369 L 204 371 L 205 370 L 206 359 L 208 354 Q 209 347 204 346 L 204 340 L 207 339 L 187 301 L 188 299 L 186 297 L 183 294 L 184 288 L 189 285 L 187 280 L 188 276 L 183 268 Q 183 263 186 263 L 185 260 Q 182 256 176 256 Z M 123 257 L 121 259 L 122 263 L 122 261 L 125 259 L 123 257 Z M 138 258 L 136 260 Q 137 263 135 262 L 133 262 L 135 265 Q 138 264 137 267 L 141 269 L 143 268 L 144 263 Q 143 260 138 261 L 139 259 L 138 258 Z M 238 258 L 238 263 L 240 264 L 238 258 Z M 131 259 Q 130 262 133 261 Q 134 258 131 259 Z M 197 259 L 193 264 Q 192 268 196 269 L 199 268 Q 200 261 197 259 Z M 271 259 L 267 264 L 268 272 L 268 269 Q 269 265 274 266 L 275 271 L 278 272 L 278 270 L 271 259 Z M 147 260 Q 145 265 149 264 Q 151 259 147 260 Z M 130 261 L 126 263 L 129 268 L 131 267 L 130 261 Z M 153 262 L 151 265 L 155 265 L 155 264 L 153 262 Z M 145 265 Q 144 268 147 267 Q 148 264 145 265 Z M 187 265 L 187 271 Q 188 275 193 274 L 194 271 L 187 265 Z M 247 265 L 246 268 Q 244 274 248 273 L 249 271 Q 251 264 247 265 Z M 122 266 Q 122 269 120 268 Q 115 269 116 277 Q 117 279 121 278 L 124 274 L 124 271 L 122 266 Z M 134 266 L 132 268 L 134 269 L 134 266 Z M 150 266 L 145 271 L 145 279 L 147 279 L 146 277 L 147 273 Q 148 270 152 270 L 154 270 L 156 270 L 150 266 Z M 125 268 L 126 270 Q 127 267 125 268 Z M 131 268 L 130 270 L 127 272 L 124 277 Q 123 280 126 281 L 126 279 L 133 281 L 134 278 L 133 278 L 131 278 L 132 275 L 129 275 L 133 274 L 134 277 L 135 277 L 134 271 L 133 271 L 131 268 Z M 138 268 L 136 271 Q 138 274 139 271 L 138 268 Z M 239 268 L 236 272 Q 235 276 238 278 L 241 272 Q 243 267 239 268 Z M 144 269 L 142 271 L 144 271 L 144 269 Z M 157 270 L 156 273 L 157 273 L 157 270 Z M 140 271 Q 137 272 138 276 L 141 277 L 141 272 L 140 271 Z M 199 272 L 197 274 Q 196 277 199 278 Q 203 276 200 275 Q 201 271 199 272 Z M 253 273 L 244 285 L 248 285 Q 252 282 253 276 L 253 273 Z M 273 273 L 272 275 L 272 277 L 273 283 L 274 283 L 274 275 L 273 273 Z M 305 274 L 302 280 Q 301 283 304 282 L 305 277 L 305 274 Z M 269 275 L 268 290 L 266 292 Q 265 295 269 294 L 271 294 L 271 296 L 272 296 L 272 288 L 270 286 L 269 275 Z M 192 276 L 189 279 L 193 283 Q 199 284 198 282 L 196 280 L 194 278 L 192 276 Z M 243 277 L 241 281 Q 240 284 237 283 L 238 285 L 240 284 L 244 279 Q 245 276 243 277 Z M 114 278 L 115 281 Q 114 285 117 284 L 116 281 Q 117 277 114 278 Z M 144 278 L 138 282 Q 139 285 136 284 L 137 290 L 140 293 Q 145 294 147 292 L 145 297 L 149 296 L 148 291 L 148 285 Q 151 285 150 282 Q 145 283 144 278 Z M 120 279 L 118 281 L 118 282 L 122 282 Q 124 278 120 279 Z M 137 279 L 135 281 L 137 282 L 137 279 Z M 204 279 Q 204 282 201 281 L 201 284 L 205 285 L 204 279 Z M 110 281 L 111 285 L 112 283 Q 113 280 110 281 Z M 128 282 Q 127 286 130 285 Q 131 281 128 282 Z M 231 282 L 226 290 L 228 290 L 231 286 L 231 282 Z M 132 283 L 132 285 L 134 286 Q 135 282 132 283 Z M 153 283 L 150 286 Q 149 291 152 292 L 156 291 L 158 288 L 157 285 Q 158 281 153 283 Z M 121 284 L 116 288 Q 115 295 119 296 L 123 295 L 126 291 L 125 286 Q 124 283 121 284 Z M 220 284 Q 219 286 222 285 L 223 287 L 224 285 L 220 284 Z M 207 285 L 207 288 L 213 291 L 213 288 Q 212 284 207 285 Z M 132 286 L 130 289 L 131 291 Q 130 293 133 292 Q 134 287 132 286 Z M 239 286 L 231 289 L 233 292 Q 237 293 239 291 Q 241 292 240 290 Q 243 288 239 286 Z M 261 286 L 259 288 L 260 289 L 263 288 L 261 286 Z M 108 287 L 105 291 L 106 296 L 112 294 L 111 289 L 108 287 Z M 167 287 L 168 290 Q 167 292 170 291 L 169 289 Q 170 286 167 287 Z M 198 287 L 196 290 L 200 292 L 203 291 L 205 291 Q 207 292 206 290 Q 204 286 198 287 Z M 248 287 Q 248 290 244 289 L 245 293 L 243 292 L 239 295 Q 236 294 237 297 L 245 296 L 248 292 L 248 287 Z M 162 288 L 161 290 L 158 292 L 155 296 L 163 295 L 162 288 Z M 264 289 L 261 291 L 265 291 Q 266 288 264 289 Z M 136 290 Q 134 293 137 292 L 136 290 Z M 193 290 Q 190 291 192 293 L 190 297 L 194 298 L 194 295 Q 199 293 198 297 L 196 298 L 198 299 Q 204 297 206 300 L 206 298 L 193 290 Z M 221 291 L 220 294 L 221 294 L 221 291 Z M 209 292 L 208 293 L 206 293 L 206 297 L 212 296 L 213 293 L 209 292 Z M 68 293 L 66 295 Q 62 294 63 297 L 68 295 L 68 293 Z M 115 293 Q 112 295 115 296 Q 118 295 115 293 Z M 135 293 L 133 296 L 136 297 L 136 293 L 135 293 Z M 227 293 L 226 295 L 231 297 L 232 294 L 227 293 Z M 260 293 L 258 296 L 264 294 L 260 293 Z M 129 294 L 127 296 L 129 300 L 132 299 L 129 294 Z M 169 294 L 167 297 L 169 296 L 169 294 Z M 11 295 L 11 297 L 15 298 L 15 297 L 11 295 Z M 139 295 Q 138 298 141 297 Q 142 294 139 295 Z M 266 295 L 263 299 L 266 297 L 266 295 Z M 110 296 Q 108 301 112 304 L 111 306 L 115 308 L 115 306 L 115 302 Q 114 299 117 300 Q 118 298 120 301 L 122 300 L 121 302 Q 118 301 119 308 L 121 307 L 120 305 L 123 303 L 124 303 L 123 307 L 125 316 L 124 323 L 130 324 L 129 327 L 131 331 Q 130 334 133 333 L 133 336 Q 132 338 131 336 Q 127 335 128 338 L 137 340 L 144 338 L 154 317 L 154 314 L 152 317 L 148 319 Q 145 320 146 317 L 148 317 L 141 316 L 143 314 Q 150 315 154 312 Q 157 313 156 311 L 157 309 Q 153 312 147 311 Q 145 313 144 311 L 147 310 L 142 308 L 140 308 L 139 312 L 134 314 Q 133 317 137 316 Q 138 314 139 317 Q 138 319 134 318 L 132 320 Q 128 319 129 322 L 126 322 L 127 316 Q 128 311 125 311 L 126 308 L 125 306 L 126 304 Q 125 300 129 302 L 131 312 L 132 312 L 131 306 Q 135 303 131 301 Q 127 302 128 299 L 126 300 L 125 296 L 119 298 L 114 296 Q 110 298 114 300 L 111 300 L 110 296 Z M 225 296 L 222 298 L 219 297 L 217 297 Q 213 296 214 299 L 220 300 L 224 299 L 226 299 L 225 296 Z M 7 297 L 7 301 L 7 314 L 14 314 L 16 316 L 12 304 L 7 297 Z M 65 299 L 52 303 L 41 303 L 40 305 L 38 306 L 36 306 Q 30 304 31 308 L 38 307 Q 42 306 41 309 L 39 310 L 36 309 L 34 310 Q 31 309 32 313 L 34 314 Q 32 317 27 315 L 27 317 L 32 317 Q 33 321 28 319 Q 27 322 31 321 Q 32 325 27 323 L 30 330 Q 35 328 34 332 L 30 331 Q 27 330 28 334 L 36 335 Q 35 337 30 336 L 32 340 L 32 342 L 39 342 L 38 347 Q 37 349 41 348 L 44 339 L 47 337 Q 46 331 49 329 L 51 327 L 57 326 L 57 323 L 60 317 L 58 317 Q 57 314 61 315 L 65 303 L 55 306 Q 52 307 53 304 L 65 301 L 66 303 L 67 301 Q 68 298 65 299 Z M 192 300 L 192 301 L 194 301 L 192 300 Z M 236 300 L 231 301 L 229 301 Q 221 304 210 302 L 209 303 L 204 302 L 202 308 L 203 310 L 201 313 L 203 312 L 203 314 Q 201 315 204 317 Q 203 319 202 317 Q 198 316 199 319 L 205 320 L 202 321 L 202 322 L 206 321 Q 209 320 208 323 L 212 324 L 208 329 Q 204 328 205 331 L 210 331 L 210 329 L 215 330 L 216 333 Q 215 335 214 333 L 209 334 L 211 335 L 218 335 L 217 333 L 218 330 L 219 333 L 220 333 Q 219 330 222 331 L 220 335 L 223 334 L 223 336 L 220 337 L 218 337 Q 213 335 214 339 L 214 340 L 216 339 L 221 340 Q 226 342 225 339 L 225 337 L 227 337 Q 226 340 229 339 L 230 333 L 225 334 Q 224 330 230 332 L 231 330 L 230 330 Q 223 332 224 328 L 231 328 L 232 329 L 233 327 L 223 326 L 222 329 L 220 326 L 223 325 L 222 322 L 226 321 L 233 322 L 226 324 L 234 324 L 240 311 L 240 309 L 236 311 Q 231 312 232 309 L 241 308 L 244 303 L 244 300 L 239 303 Q 235 302 236 305 L 238 304 L 240 305 L 232 308 L 229 304 L 236 302 L 236 300 Z M 273 301 L 271 303 L 273 303 L 273 301 Z M 134 304 Q 133 307 136 306 Q 137 303 134 304 Z M 194 304 Q 193 308 200 306 Q 201 303 194 304 Z M 25 305 Q 24 310 28 308 Q 30 304 25 305 Z M 271 305 L 269 307 L 273 307 Q 274 304 271 305 Z M 297 307 L 296 309 L 301 311 L 300 308 L 299 308 L 297 307 Z M 169 308 Q 167 313 171 312 Q 173 307 169 308 Z M 311 308 L 309 311 L 312 309 L 311 308 Z M 113 309 L 113 311 L 115 312 Q 116 308 113 309 Z M 119 309 L 119 312 Q 115 313 118 315 L 117 317 L 117 319 Q 120 318 119 321 L 118 320 L 116 323 Q 115 325 119 324 Q 120 326 121 324 L 120 319 L 121 313 L 121 311 Q 122 308 119 309 Z M 26 310 L 26 312 L 30 313 Q 32 308 26 310 Z M 295 310 L 291 315 L 292 319 Q 287 318 286 321 Q 287 323 289 321 Q 291 320 290 323 L 287 324 L 285 323 L 283 326 L 288 325 L 288 327 L 286 328 Q 283 327 284 330 L 282 330 L 282 332 L 285 333 L 287 332 L 287 334 L 284 335 Q 280 334 281 337 L 290 338 L 286 339 Q 281 338 282 341 Q 286 340 288 343 L 290 342 L 294 343 L 289 346 L 291 351 L 296 349 L 297 347 L 295 342 L 301 341 L 299 348 Q 303 349 304 347 L 302 344 L 304 343 L 305 347 L 306 347 Q 308 340 302 342 L 303 340 L 303 338 L 298 340 L 297 338 Q 301 339 299 335 L 297 335 L 300 334 L 301 330 L 300 328 Q 299 325 302 326 L 301 323 L 303 323 L 302 320 L 304 320 Q 305 317 303 318 L 302 316 Q 307 318 305 313 L 302 314 L 295 310 Z M 196 311 L 196 313 L 198 312 L 196 311 Z M 130 313 Q 129 316 132 315 Q 133 312 130 313 Z M 22 314 L 23 316 Q 24 313 22 314 Z M 106 314 L 108 316 Q 109 313 106 314 Z M 199 314 L 197 316 L 199 316 L 199 314 Z M 7 316 L 7 321 Q 14 320 17 323 Q 19 324 18 328 L 22 329 L 22 326 L 18 319 Q 17 316 16 318 Q 13 315 7 316 Z M 131 316 L 130 318 L 132 319 L 131 316 Z M 275 316 L 275 325 L 279 318 L 277 316 L 275 316 Z M 170 318 L 168 320 L 171 323 L 172 320 L 170 318 Z M 9 322 L 7 324 L 7 327 L 12 327 Q 11 330 14 332 L 15 333 L 21 333 Q 22 336 20 335 L 18 335 L 14 334 L 10 330 Q 11 327 9 328 Q 6 329 7 334 L 12 335 L 15 339 L 7 336 L 7 357 L 8 358 L 9 372 L 17 367 L 25 367 L 29 370 L 31 365 L 32 357 L 32 355 L 30 353 Q 26 352 27 347 L 31 344 L 31 342 L 26 335 L 26 333 Q 25 330 22 331 L 19 330 Q 14 331 16 326 L 12 322 L 9 322 Z M 204 323 Q 202 326 205 325 L 204 323 Z M 120 326 L 119 328 L 119 330 Q 118 332 121 331 Q 122 327 120 326 Z M 171 327 L 169 329 Q 168 332 171 331 L 171 327 Z M 79 329 L 78 331 L 80 332 L 79 329 Z M 279 329 L 277 331 L 280 334 L 281 330 L 279 329 Z M 83 332 L 82 334 L 84 335 L 83 332 Z M 326 332 L 320 335 L 314 344 L 316 353 Q 315 355 314 353 L 309 355 L 307 361 L 310 375 L 310 381 L 313 387 L 313 386 Q 316 381 323 380 Q 330 379 333 383 L 334 380 L 334 360 L 329 352 L 329 347 L 332 345 Q 335 343 333 337 L 331 336 L 325 337 Q 320 340 319 347 L 321 351 L 319 351 L 316 348 L 318 341 L 328 334 L 334 335 L 333 334 L 333 332 L 326 332 Z M 85 335 L 84 338 L 86 338 L 85 335 Z M 209 337 L 210 339 L 212 338 L 209 337 Z M 127 338 L 121 339 L 119 343 L 121 348 L 125 348 L 125 341 L 128 341 L 127 338 Z M 144 339 L 140 340 L 141 347 L 143 348 L 146 347 Q 147 340 144 339 Z M 211 339 L 207 344 L 207 346 L 211 348 L 212 347 Q 211 342 213 341 L 211 339 Z M 130 340 Q 131 343 128 345 L 129 350 L 126 351 Q 127 353 129 351 Q 132 352 131 349 L 133 349 L 135 348 L 138 346 L 139 347 L 138 345 L 139 343 L 138 341 Q 132 342 130 340 Z M 218 341 L 215 345 L 218 348 Q 223 350 221 344 L 218 341 Z M 230 341 L 229 345 L 226 349 L 231 350 Q 234 349 233 344 L 230 341 Z M 223 342 L 225 347 L 226 344 L 223 342 Z M 282 343 Q 279 344 280 348 L 283 349 L 282 348 L 283 345 Q 284 342 282 343 Z M 36 344 Q 34 347 33 345 L 29 348 L 30 351 Q 30 354 35 353 Q 37 352 35 351 L 36 349 L 35 349 Q 32 350 33 347 L 37 346 Q 38 343 36 344 Z M 88 344 L 87 347 L 88 347 L 88 344 Z M 287 344 L 285 347 Q 284 349 287 348 L 287 344 Z M 91 346 L 91 350 L 92 350 L 91 346 Z M 332 346 L 331 349 L 332 353 L 334 352 Q 336 345 332 346 Z M 40 349 L 38 352 L 41 353 L 42 351 L 40 349 Z M 217 349 L 215 351 L 217 351 L 217 349 Z M 90 350 L 89 353 L 90 353 L 90 350 Z M 135 350 Q 136 357 133 361 L 133 367 L 131 371 L 132 373 L 130 381 L 130 389 L 130 391 Q 131 395 127 393 L 126 391 L 128 381 L 128 372 L 131 362 L 131 352 L 129 355 L 126 354 L 127 361 L 126 360 L 125 363 L 127 365 L 125 364 L 124 367 L 126 366 L 126 368 L 124 367 L 121 373 Q 120 377 123 376 L 123 378 L 120 377 L 118 383 Q 117 386 120 385 Q 125 387 126 394 L 133 397 L 136 402 L 134 406 L 134 408 L 139 413 L 139 412 L 147 406 L 152 407 L 153 402 Q 154 399 148 400 L 149 398 Q 154 396 153 400 L 157 398 L 156 393 L 152 386 L 144 388 Q 140 389 139 387 L 151 385 Q 154 384 151 382 L 143 384 Q 137 386 138 382 L 149 382 L 150 381 L 149 372 L 146 363 L 146 361 Q 143 358 144 353 L 143 353 L 136 353 L 140 352 Q 139 349 135 350 Z M 221 350 L 222 352 L 224 351 L 221 350 Z M 213 352 L 214 355 Q 217 356 216 353 L 213 352 Z M 228 352 L 221 354 L 219 356 L 219 362 L 217 368 L 217 376 L 212 403 L 212 405 L 210 410 L 211 416 L 218 415 Q 225 416 224 413 L 222 414 L 215 414 L 214 412 L 225 411 L 231 403 L 227 400 L 222 401 L 219 401 L 220 398 L 228 397 L 230 400 L 239 399 L 240 397 L 232 397 L 231 398 Q 228 399 229 396 L 238 395 L 238 393 L 221 397 L 219 394 L 237 392 L 234 380 Q 233 377 231 380 L 232 382 L 224 383 Q 222 385 221 383 L 225 381 L 223 380 Q 222 377 227 378 L 229 378 L 233 377 L 232 373 L 226 375 L 223 375 Q 226 371 231 372 L 230 367 Q 231 364 225 365 Q 223 367 222 365 L 230 363 L 229 357 L 224 358 Q 220 359 221 356 L 228 355 L 228 352 Z M 289 352 Q 287 355 290 354 L 289 352 Z M 303 353 L 298 355 L 302 355 L 303 356 L 303 353 Z M 40 355 L 41 358 L 42 356 L 40 355 Z M 291 355 L 286 356 Q 285 360 290 358 L 290 360 L 285 360 Q 283 364 288 363 Q 291 365 288 366 L 284 365 L 284 368 Q 288 367 287 370 Q 283 371 284 369 L 283 369 Q 281 375 286 373 Q 287 377 282 375 L 282 378 L 288 379 L 283 379 L 280 384 L 288 385 L 288 386 L 280 385 L 278 389 L 287 391 L 286 394 L 279 393 L 276 392 Q 275 395 279 394 L 281 397 L 274 396 L 273 399 L 276 400 Q 279 402 276 403 L 271 401 L 269 406 L 271 415 L 278 412 Q 277 409 274 410 L 273 408 L 278 408 L 290 413 L 291 413 L 291 409 L 285 407 Q 279 409 280 405 Q 287 404 291 407 L 291 389 L 292 388 Q 293 380 290 378 L 291 376 Q 290 365 292 359 L 292 357 Q 293 354 291 355 Z M 211 356 L 214 360 L 209 360 L 210 365 Q 211 367 208 366 L 210 371 L 207 373 Q 205 378 210 377 L 211 380 L 207 378 L 205 381 L 209 382 Q 211 381 210 384 L 205 383 L 203 386 L 208 387 L 209 389 L 202 388 Q 201 391 206 390 L 207 393 L 203 392 Q 201 390 200 393 L 205 396 L 201 396 Q 199 394 198 397 L 200 399 Q 203 398 201 402 L 195 401 L 197 405 Q 203 403 201 409 Q 195 410 193 406 L 191 409 L 203 411 L 206 413 L 208 408 Q 208 398 211 392 L 213 372 L 215 367 L 215 357 L 214 357 L 211 356 Z M 296 356 L 295 379 L 296 380 L 295 392 L 294 393 L 294 416 L 298 422 L 303 418 Q 306 419 305 416 L 299 419 L 298 418 Q 302 413 309 413 L 311 408 L 302 411 L 300 413 Q 297 414 298 412 L 302 409 L 314 405 L 315 402 L 304 405 L 302 407 Q 298 408 299 405 L 313 401 Q 316 400 313 398 L 301 402 Q 298 403 299 400 L 302 399 L 304 400 Q 306 396 312 397 L 312 395 L 304 397 Q 298 399 299 395 L 311 394 L 308 386 Q 301 384 300 387 Q 297 388 298 385 Q 301 383 308 384 L 308 381 L 302 381 L 301 379 L 307 380 L 307 378 L 307 376 L 305 369 L 305 364 L 304 362 L 297 362 L 297 359 L 304 360 Q 305 356 303 357 L 301 357 L 296 358 L 296 356 Z M 35 361 Q 34 364 38 363 L 38 365 L 33 365 Q 32 369 37 367 Q 38 371 33 369 L 32 372 L 35 373 Q 38 372 37 375 L 31 374 L 31 378 Q 36 376 35 380 L 31 379 L 30 382 L 34 384 L 29 384 Q 27 389 31 388 Q 32 391 29 390 L 27 393 L 31 394 L 32 396 L 28 395 L 27 397 L 33 399 L 36 398 L 35 395 L 37 384 L 40 376 L 40 361 L 35 361 Z M 22 369 L 22 373 L 20 372 L 18 373 Q 12 375 13 383 L 10 382 Q 9 376 13 375 L 12 374 Q 10 371 8 376 L 9 385 L 11 389 Q 12 391 14 389 L 18 393 Q 19 398 16 401 Q 18 399 20 402 L 26 386 L 28 375 L 22 369 Z M 16 370 L 13 371 L 14 373 L 16 372 L 16 370 Z M 104 370 L 99 373 L 96 377 L 101 378 L 102 381 Q 110 380 114 383 L 116 378 L 114 379 Q 115 381 113 380 L 114 377 L 108 378 Q 106 380 105 378 L 112 375 L 117 377 L 117 374 Q 114 368 104 370 Z M 46 372 L 44 374 L 43 382 L 47 381 Q 51 380 50 383 L 46 384 Q 41 383 42 386 L 45 385 Q 47 384 46 387 L 41 388 L 43 391 Q 46 392 45 390 Q 49 385 57 384 L 59 380 L 56 381 L 54 378 L 52 379 L 50 379 L 45 378 L 46 375 Q 48 373 46 372 Z M 195 372 L 191 375 L 193 375 Q 194 373 195 376 L 191 379 L 192 380 L 194 379 L 191 389 L 188 385 L 186 388 Q 187 391 191 390 L 192 393 L 188 391 L 182 393 L 179 401 Q 177 404 176 400 L 174 401 L 169 409 Q 168 417 171 421 L 179 425 L 181 424 Q 183 425 182 422 L 177 423 L 173 419 L 173 415 L 170 414 Q 169 407 172 405 L 176 404 Q 177 407 174 406 L 173 412 L 175 412 L 174 416 L 175 419 L 178 421 L 177 416 Q 180 415 179 419 L 185 422 L 186 422 L 186 426 L 179 428 L 176 432 L 179 431 L 178 433 Q 177 436 180 437 L 180 435 Q 183 434 182 438 L 185 439 L 186 440 L 189 437 L 188 431 L 192 434 Q 191 437 194 436 L 196 440 L 198 437 L 199 441 L 207 446 L 209 446 L 208 445 L 206 442 L 210 444 Q 219 445 224 442 L 223 444 L 225 444 L 226 443 L 227 437 L 230 435 L 231 432 Q 228 431 229 434 L 226 436 L 218 435 L 213 428 L 215 423 L 221 419 Q 225 420 224 417 L 220 418 Q 211 420 208 417 L 206 417 L 202 415 L 198 416 Q 193 412 187 412 L 188 408 Q 187 405 190 406 L 190 404 L 198 391 L 203 375 Q 202 371 195 372 Z M 276 374 L 273 375 L 269 380 L 259 375 Q 250 374 246 377 L 242 382 L 251 378 Q 254 377 255 380 L 244 382 L 243 385 L 244 386 L 248 383 Q 251 382 250 385 L 245 386 L 244 391 Q 241 392 242 389 L 243 387 L 240 389 L 243 397 L 251 399 L 256 406 L 260 408 Q 261 406 266 407 L 273 395 L 276 385 L 274 386 L 272 385 L 278 381 L 278 379 L 272 383 Q 269 384 270 381 Q 272 377 277 377 L 276 374 Z M 190 375 L 187 379 L 188 380 L 191 376 L 190 375 Z M 85 377 L 74 382 Q 71 386 69 385 Q 70 388 66 386 L 67 388 L 72 387 L 86 378 L 85 377 Z M 162 377 L 160 378 L 159 380 L 161 379 Q 164 378 163 381 L 158 384 L 159 385 L 162 384 Q 163 387 160 386 L 158 391 L 160 396 Q 167 395 170 400 L 175 398 L 180 391 L 179 390 L 177 390 L 174 393 Q 175 397 173 396 Q 170 395 171 392 L 177 388 L 184 390 Q 185 386 183 385 L 182 387 L 179 386 Q 174 385 173 388 L 169 387 L 173 384 L 178 383 L 181 385 L 182 385 L 179 382 Q 171 381 168 384 L 166 389 L 163 388 L 164 382 L 169 381 L 170 378 Q 168 376 162 377 Z M 88 380 L 76 386 L 76 387 L 84 383 L 93 381 L 88 380 Z M 100 381 L 96 383 Q 93 382 94 385 L 87 391 L 88 392 L 100 383 L 100 381 Z M 323 382 L 318 384 L 314 390 L 315 391 L 317 387 L 324 385 L 330 386 L 331 389 L 330 390 L 327 387 L 321 388 L 316 394 L 316 398 L 319 402 Q 323 397 333 397 L 332 394 L 333 392 L 333 388 L 331 384 L 323 382 Z M 106 383 L 97 386 L 97 387 L 113 385 Q 112 382 111 384 L 106 383 Z M 42 392 L 40 394 Q 39 397 43 395 Q 44 391 42 392 Z M 10 394 L 9 399 L 12 398 L 10 394 Z M 86 396 L 85 399 L 86 399 L 86 396 Z M 26 398 L 25 400 L 31 402 L 31 399 L 26 398 Z M 41 398 L 37 403 L 42 399 L 41 398 Z M 164 399 L 160 401 L 166 401 Q 167 405 162 403 Q 158 405 158 410 L 155 411 L 151 409 Q 146 408 145 412 L 149 412 Q 150 415 146 414 L 145 421 L 146 421 Q 145 418 148 419 L 147 422 L 147 427 L 153 435 Q 156 436 155 432 Q 158 431 157 434 L 160 434 L 160 433 Q 157 434 158 431 L 165 430 L 164 432 L 165 434 L 161 435 L 162 437 L 166 435 L 171 426 Q 172 423 169 424 L 166 420 L 165 413 L 165 411 L 167 401 L 164 399 Z M 330 399 L 320 403 L 321 405 L 330 402 Q 332 401 331 404 L 324 405 L 318 411 L 317 420 L 314 419 Q 313 412 316 410 L 316 408 Q 310 412 311 423 L 308 421 Q 301 420 299 425 L 299 427 Q 296 426 297 429 L 294 429 Q 292 427 293 422 L 290 416 L 287 416 L 280 422 L 279 420 Q 280 415 286 416 L 284 414 L 279 416 L 276 420 Q 277 423 275 422 L 273 419 L 272 422 Q 270 426 268 423 L 269 421 L 267 417 L 267 413 L 263 410 L 261 413 L 264 416 Q 261 417 262 414 L 260 415 L 258 411 L 252 404 L 247 400 Q 241 399 239 402 L 245 403 L 244 404 L 238 405 L 233 410 L 234 411 L 239 408 Q 240 411 236 410 L 234 415 L 235 420 L 239 411 L 245 408 L 249 408 Q 250 406 251 409 Q 250 411 254 410 L 255 413 Q 254 416 249 415 L 246 418 Q 243 419 244 416 Q 246 412 252 413 L 250 409 L 245 411 L 237 419 L 238 420 L 237 423 Q 237 427 241 429 Q 247 427 246 431 Q 239 432 236 429 L 234 424 L 234 421 L 232 421 Q 233 418 231 419 L 231 421 Q 233 426 229 425 L 228 421 L 227 423 L 224 422 L 218 423 L 219 425 L 222 424 L 221 426 Q 217 425 219 430 L 222 428 L 225 433 Q 227 434 226 431 Q 227 428 233 429 Q 235 430 234 434 L 237 432 L 238 434 L 237 437 Q 243 439 245 435 Q 247 434 246 437 L 244 438 L 244 439 Q 249 439 251 435 Q 253 434 252 437 Q 248 441 240 441 L 238 443 L 234 442 L 231 437 L 230 442 L 233 444 L 237 445 L 247 445 L 256 442 Q 260 440 260 435 L 263 433 L 264 436 L 262 439 L 264 441 L 265 447 L 269 450 Q 276 451 279 449 L 282 444 Q 284 445 283 451 L 286 453 Q 289 452 287 456 L 283 455 L 280 451 L 275 453 Q 268 454 266 451 L 263 449 L 259 443 L 249 447 L 241 447 L 240 448 L 234 447 L 232 447 L 228 444 L 220 449 L 208 450 L 206 450 L 193 445 L 191 442 L 183 444 L 178 441 L 172 434 L 164 439 L 156 439 L 163 451 L 166 452 L 168 458 L 174 463 Q 173 465 180 464 L 181 468 L 190 470 Q 193 469 192 472 L 196 472 L 198 472 Q 202 471 203 474 L 210 471 Q 216 466 217 456 L 220 454 L 221 457 Q 222 462 219 463 L 220 464 L 228 460 Q 233 459 235 461 L 241 460 Q 242 458 243 461 L 238 464 L 226 466 Q 225 469 228 468 L 230 468 L 232 467 Q 239 466 242 469 L 249 469 L 250 472 L 244 473 L 239 472 L 233 474 L 246 475 L 248 477 L 247 478 Q 242 477 241 479 L 239 478 L 232 479 L 242 480 L 243 482 L 242 483 Q 237 482 236 484 L 233 483 L 222 485 L 219 487 L 205 488 L 203 497 L 199 500 Q 193 499 192 502 L 188 501 L 185 502 L 183 502 L 177 503 L 172 506 L 168 504 Q 166 500 165 503 L 163 502 Q 156 500 155 503 Q 150 504 150 500 L 145 499 L 143 497 L 130 486 L 129 511 L 127 518 L 127 530 L 125 534 L 126 549 Q 131 559 133 573 L 136 577 L 136 583 L 139 588 L 140 591 L 207 591 L 211 591 L 214 590 L 215 591 L 278 591 L 279 592 L 283 591 L 285 591 L 288 592 L 291 591 L 293 592 L 295 591 L 299 592 L 301 592 L 304 591 L 307 592 L 311 591 L 333 591 L 334 587 L 333 584 L 334 579 L 333 577 Q 336 575 334 570 L 334 568 L 334 559 L 333 558 L 333 549 L 334 548 L 334 495 L 333 494 L 333 474 L 327 477 L 318 479 Q 302 479 295 471 Q 292 472 293 470 L 290 468 L 286 461 L 287 458 L 290 456 Q 289 463 293 466 L 306 474 L 315 476 Q 325 476 331 472 Q 334 471 333 467 L 326 471 L 316 473 L 314 473 L 303 471 L 298 468 Q 299 465 297 466 L 292 461 Q 290 453 295 455 Q 294 460 297 463 L 305 469 Q 309 468 311 470 Q 316 472 318 469 L 322 470 Q 328 471 330 467 L 333 463 L 334 461 L 325 467 L 315 469 L 306 466 L 302 462 Q 301 459 305 460 L 306 463 L 309 465 L 314 466 L 325 465 L 330 462 L 334 457 L 334 455 L 326 461 L 318 463 L 314 462 Q 311 463 312 460 L 317 461 L 324 460 L 328 458 L 330 455 L 323 458 Q 313 460 309 456 L 310 453 L 317 457 Q 318 455 324 456 L 332 451 L 332 449 L 325 453 L 317 453 L 316 452 Q 313 453 314 450 L 317 451 Q 329 452 333 446 L 333 438 L 324 443 Q 320 444 321 441 Q 327 442 331 438 L 334 434 L 333 432 Q 332 426 334 425 L 333 423 L 333 400 L 330 399 Z M 7 400 Q 6 403 9 402 Q 10 399 7 400 Z M 34 400 L 31 409 L 32 411 L 33 406 L 36 402 Q 37 399 34 400 Z M 159 401 L 156 404 L 157 406 L 160 402 L 159 401 Z M 10 402 L 8 406 L 12 403 L 15 404 L 17 403 L 10 402 Z M 27 402 L 28 405 Q 30 406 29 403 L 27 402 Z M 237 402 L 236 404 L 239 403 L 237 402 Z M 234 404 L 233 406 L 235 405 L 234 404 Z M 17 405 L 15 407 L 16 409 Q 20 407 17 405 Z M 319 405 L 317 408 L 319 407 L 319 405 Z M 12 407 L 11 413 L 13 413 Q 14 416 11 415 L 8 414 Q 8 418 11 418 L 18 417 L 19 413 L 14 411 L 12 407 Z M 23 407 Q 22 410 26 409 L 25 412 L 21 409 L 20 411 L 26 414 Q 28 413 27 408 L 23 407 Z M 132 411 L 133 413 Q 134 410 132 411 Z M 229 411 L 227 420 L 229 419 L 229 411 Z M 134 413 L 134 420 L 135 420 Q 136 415 134 413 Z M 23 414 L 21 417 L 15 421 L 9 420 L 7 425 L 8 431 L 15 436 L 21 435 L 26 429 L 26 426 L 21 428 L 21 429 Q 23 428 22 431 L 20 432 L 15 432 L 11 430 L 9 424 Q 10 421 12 423 L 14 422 Q 15 427 22 426 L 22 424 Q 19 425 20 423 L 22 423 Q 24 424 23 421 L 26 420 Q 27 415 23 414 Z M 306 415 Q 306 419 308 416 L 306 415 Z M 138 419 L 137 423 L 138 423 L 138 419 Z M 13 425 L 12 427 L 16 430 Q 20 431 19 428 Q 14 429 13 425 Z M 140 426 L 139 429 L 140 429 L 140 426 Z M 143 428 L 142 432 L 143 432 L 143 428 Z M 220 431 L 221 433 Q 222 430 220 431 Z M 28 432 L 27 434 L 24 437 L 17 439 L 9 436 L 9 434 L 8 449 L 7 450 L 8 466 L 7 469 L 7 587 L 8 588 L 9 591 L 36 591 L 35 589 L 36 586 L 36 578 L 35 577 L 38 541 L 41 529 L 44 523 L 44 521 L 46 516 L 44 509 L 44 501 L 42 495 L 42 485 L 36 465 L 33 448 Q 30 445 30 439 L 28 437 L 28 432 Z M 146 433 L 145 437 L 146 437 L 146 433 Z M 156 435 L 157 437 Q 158 434 156 435 Z M 149 437 L 148 439 L 151 439 L 149 437 Z M 235 438 Q 233 442 238 441 Q 239 438 241 440 L 241 438 L 235 438 Z M 162 455 L 161 457 L 163 458 L 162 455 Z M 167 461 L 166 464 L 167 464 L 167 461 Z M 166 464 L 164 466 L 166 466 L 166 464 Z M 178 468 L 179 470 Q 180 467 178 468 Z M 196 478 L 195 482 L 196 482 L 196 478 Z M 196 487 L 195 492 L 197 492 L 196 487 Z "></path><path d="M 142 18 L 180.5 18 L 181.5 19 L 187 18 Q 188.5 21.8 185.5 21 L 181 23.5 Q 179.8 31.2 182.5 35 L 184.5 35 Q 188.3 33.8 187 37.5 L 185.5 39 L 145 39 Q 143.2 34.1 149.5 36 L 151 32.5 L 144.5 22 Q 142.3 22.8 143 20.5 L 142 18 Z M 152 22 Q 152 28 156 31 L 159 25 L 159 22 L 152 22 Z M 165 22 L 160 33 Q 158 34 161 35 L 166 34 L 165 22 Z M 174 22 L 172 25 L 173 35 L 175 34 L 175 24 L 174 22 Z "></path><path d="M 269 34 Q 272 33 271 36 Q 268 37 269 34 Z "></path><path d="M 258.5 49 L 267 50.5 L 260.5 51 L 258.5 49 Z "></path><path d="M 259 53 L 269 54.5 L 259 55 L 259 53 Z "></path><path d="M 235 54 L 237 54.5 L 235 55.5 L 235 54 Z "></path><path d="M 261.5 58 L 268.5 58 L 269 60 L 262.5 60 L 261.5 58 Z "></path><path d="M 53 68 L 61 71 Q 62.4 74.7 56.5 73 L 54 72 L 53 68 Z "></path><path d="M 169.5 76 L 171 78.5 L 168 87.5 L 167 98.5 L 164 111 L 162 111.5 L 167 114.5 L 162.5 115 Q 158.3 110 151 109 Q 149.9 106.3 152.5 107 Q 155.9 110.7 162 110 L 164 104.5 L 164 97.5 L 167 86.5 L 167 81.5 L 169.5 76 Z M 154 80 L 153 83 L 154 83 L 154 80 Z "></path><path d="M 164.5 77 Q 167.5 76.1 166 80.5 L 163 85 Q 160.3 83.9 161 86.5 L 155.5 95 Q 153.3 94.3 154 96.5 L 146.5 105 Q 144.3 105.8 145 103.5 L 156 91.5 L 157 86 L 159 86 Q 157.9 83.3 160.5 84 L 164.5 77 Z M 150 82 Q 148 85 151 84 L 150 82 Z M 151 85 L 149 88 L 151 87 L 151 85 Z "></path><path d="M 185.5 80 L 190 86.5 L 192 95.5 L 195 102 Q 192.3 103.1 193 100.5 Q 188.5 96 188 87.5 L 185 83.5 L 185.5 80 Z "></path><path d="M 65.5 81 L 69.5 82 L 71 81.5 L 69.5 84 L 65 83 L 65.5 81 Z "></path><path d="M 172.5 81 L 175 85.5 L 175 100.5 Q 172.2 102.3 174 108.5 L 172.5 110 L 172 105.5 L 173 104.5 L 173 85.5 L 172.5 81 Z "></path><path d="M 179.5 82 L 183 84.5 L 186 99 Q 182.3 100.3 184 94.5 L 179.5 82 Z "></path><path d="M 73.5 85 L 75 88 L 71 88 L 71 89.5 Q 70.3 91.8 66.5 91 L 65 88 L 62 86.5 L 66.5 86 L 66 87.5 Q 65.2 90.1 68.5 89 L 69.5 87 L 68 86.5 L 73.5 85 Z "></path><path d="M 282 94 Q 286.1 92.7 285 96 Q 280.9 97.3 282 94 Z "></path><path d="M 202.5 103 L 203 105 L 196.5 110 L 186.5 115 L 172.5 118 L 171.5 116 L 177.5 116 L 183.5 114 L 202.5 103 Z "></path><path d="M 215.5 104 L 218 105 Q 219.1 107.7 216.5 107 L 215.5 104 Z "></path><path d="M 212.5 106 L 213 108 L 195.5 115 L 195.5 114 L 212.5 106 Z "></path><path d="M 286.5 106 L 288 109 L 281.5 109 L 281 107 L 286.5 106 Z "></path><path d="M 68.5 109 L 72 109.5 L 68.5 110 L 68.5 109 Z "></path><path d="M 218.5 110 L 219.5 112 Q 216.7 112.7 218.5 110 Z "></path><path d="M 216.5 111 L 217 112.5 L 204.5 119 L 192.5 122 L 187.5 122 L 183.5 124 L 180.5 123 Q 174.4 124.1 172 121.5 L 183.5 121 L 199.5 118 L 216.5 111 Z M 216 120 L 214 122 L 216 123 L 216 120 Z "></path><path d="M 283.5 112 Q 287.3 111 286 114 L 282 113.5 L 283.5 112 Z "></path><path d="M 285.5 115 L 289 116.5 L 283 118 Q 281.9 115.3 284.5 116 L 285.5 115 Z "></path><path d="M 268.5 118 L 269 120 L 266 119.5 L 268.5 118 Z "></path><path d="M 288.5 118 Q 291.1 117.3 290 120 L 283.5 121 L 284.5 119 L 288.5 118 Z "></path><path d="M 289.5 121 L 292 122.5 L 290.5 124 L 283 125 Q 281.9 122.3 284.5 123 L 289.5 121 Z "></path><path d="M 265.5 123 Q 269.9 121.5 269 124.5 L 267.5 126 L 265.5 123 Z "></path><path d="M 263.5 128 L 272 129 Q 273.4 133 266.5 131 L 263.5 128 Z "></path><path d="M 244.5 129 Q 250.6 128.3 253 130 Q 254.3 133 250.5 132 Q 249.3 129.7 244.5 131 Q 236.2 132.7 232 138.5 L 229 144.5 L 234.5 140 L 245.5 134 L 251 134 Q 252.3 137.7 246.5 136 Q 236.8 138.8 232 146.5 L 230 152.5 L 232 151.5 L 232 149.5 L 237.5 144 L 243.5 141 L 244.5 143 Q 238.8 144.3 236 148.5 Q 232.3 152.8 234 162.5 L 237.5 167 Q 243.3 167.8 245 164.5 L 245.5 159 Q 248.8 159.8 248 164.5 L 241.5 169 L 237.5 169 L 233 165.5 L 231.5 161 L 228 163 Q 226.1 158.9 227 150.5 L 228 147.5 L 226 148.5 L 225 157.5 L 226 160.5 L 227 166.5 L 230 171 L 225 167.5 Q 220.5 162 222 150.5 Q 225.4 139.4 233.5 133 L 244.5 129 Z M 231 156 L 230 160 L 231 160 L 231 156 Z "></path><path d="M 262.5 132 L 272.5 134 L 274 135.5 L 274 138 Q 277 137 276 140 L 261 138 Q 259.7 134.7 264.5 136 L 264.5 135 L 261 133.5 L 262.5 132 Z "></path><path d="M 259.5 139 L 273.5 143 Q 274.8 140.8 276 143.5 Q 276.9 146.9 271.5 145 L 262.5 143 L 258 140.5 L 259.5 139 Z "></path><path d="M 317 139 L 323 143.5 L 324 147.5 L 321 145.5 L 318.5 142 Q 315.5 142.7 317 139 Z "></path><path d="M 260 144 L 276 147 L 275.5 150 L 260 146 L 260 144 Z "></path><path d="M 21.5 148 Q 31.9 146.6 35 152.5 Q 35.8 156.3 33.5 157 L 29.5 151 L 21.5 150 L 17 152.5 L 14 160 Q 16.7 161.1 16 158.5 L 18 155 L 25.5 153 L 32 157.5 Q 32.8 159.8 30.5 159 L 24.5 155 L 18 159.5 Q 19.7 164.3 15.5 163 L 13 162 L 12 157.5 L 17.5 150 L 21.5 148 Z "></path><path d="M 155.5 148 L 158.5 150 L 173.5 151 L 176 150 L 175.5 152 L 160.5 152 L 155 149.5 L 155.5 148 Z "></path><path d="M 69 150 Q 72 149 71 152 Q 68 153 69 150 Z "></path><path d="M 157 153 L 163.5 156 L 165.5 155 L 166.5 156 L 175 156 Q 176.3 159.3 171.5 158 L 170.5 157 L 162.5 157 L 157 155 L 157 153 Z "></path><path d="M 163.5 158 L 175 161.5 L 168.5 162 L 162 159.5 L 163.5 158 Z "></path><path d="M 240 159 Q 244.5 157.3 243 162.5 L 242 165 L 238.5 166 L 236 162.5 L 237.5 163 Q 242.1 164.2 240 159 Z "></path><path d="M 326.5 160 L 327 161.5 L 325 162.5 L 326.5 160 Z "></path><path d="M 31 161 Q 34.3 159.7 33 164.5 L 31 170 Q 27.3 171.3 29 165.5 L 31 161 Z "></path><path d="M 310 164 Q 315.6 164.1 318 168.5 L 319.5 171 L 325 168 Q 326.5 171.7 323.5 171 Q 322.8 173.8 318.5 173 L 312.5 166 Q 308.8 167 310 164 Z "></path><path d="M 301.5 165 Q 306.8 163.8 308 166.5 Q 309.3 170.7 304.5 169 L 302.5 169 L 298.5 169 L 291 175.5 L 289 185 L 287 184.5 L 287 177.5 Q 288.3 171.8 292.5 169 L 301.5 165 Z "></path><path d="M 22.5 169 L 25 169.5 L 13.5 177 L 18.5 171 L 22.5 169 Z "></path><path d="M 65.5 169 L 66.5 171 Q 63.7 171.7 65.5 169 Z "></path><path d="M 162.5 169 L 172 170 Q 173.1 172.7 170.5 172 Q 169 169.5 163.5 171 L 162.5 169 Z "></path><path d="M 185.5 171 L 187.5 172 L 190 171 Q 191.4 175 184.5 173 L 185.5 171 Z "></path><path d="M 301.5 172 Q 305.3 171 304 174 L 294 178 L 292.5 182 L 292 177.5 L 301.5 172 Z "></path><path d="M 21.5 174 Q 23.8 173.3 23 175.5 L 17 179.5 Q 18.1 183.7 14 182 L 15 178 L 21.5 174 Z "></path><path d="M 185.5 174 L 186 175.5 L 183 177 Q 181.9 174.3 184.5 175 L 185.5 174 Z "></path><path d="M 120.5 176 L 134.5 177 L 145 182.5 L 146 185.5 L 144 186.5 L 142 182 L 138.5 182 L 133.5 179 L 129.5 179 L 127.5 180 Q 126.1 177.4 121.5 178 L 114.5 180 L 115.5 178 L 120.5 176 Z "></path><path d="M 219.5 177 L 229.5 177 Q 231.4 180.6 237.5 180 L 241 178 Q 242.5 181.7 239.5 181 L 234.5 182 L 227.5 178 L 224.5 178 L 217.5 180 L 214 183.5 L 213 186.5 L 215 191 L 212 189.5 L 211 183.5 L 212 181 L 219.5 177 Z "></path><path d="M 78 179 L 80 179.5 L 78 180.5 L 78 179 Z "></path><path d="M 180.5 179 L 185 179.5 L 180.5 180 L 180.5 179 Z "></path><path d="M 222.5 180 L 227.5 180 L 238.5 186 L 240 183 L 243 184.5 Q 242 188 236.5 187 L 225.5 181 L 220 185.5 L 219.5 188 L 218 184.5 L 222.5 180 Z "></path><path d="M 182.5 181 L 184 181.5 L 182 182 L 182 185 Q 186.1 183.7 185 187 L 179 188 L 180 185.5 L 179 182 L 182.5 181 Z "></path><path d="M 62.5 182 L 65 182.5 L 62.5 183 L 62.5 182 Z "></path><path d="M 113.5 182 Q 117.3 181 116 184 L 107.5 186 L 99 193.5 L 98 197 Q 95 198.3 96 194.5 L 100.5 189 L 102 189.5 L 104.5 186 L 113.5 182 Z "></path><path d="M 126.5 182 Q 131.3 180.7 130 184 L 125.5 184 L 117.5 187 L 118.5 185 L 126.5 182 Z "></path><path d="M 80.5 184 L 81.5 186 L 78 185.5 L 80.5 184 Z "></path><path d="M 291.5 185 L 292 189 Q 289.3 190.1 290 187.5 L 291.5 185 Z "></path><path d="M 82.5 187 L 83 188.5 Q 82 191 77.5 190 L 77.5 189 L 82.5 187 Z "></path><path d="M 61.5 189 L 62.5 191 Q 59.7 191.7 61.5 189 Z "></path><path d="M 108.5 189 L 111 189.5 L 102 195 Q 100.9 192.3 103.5 193 L 108.5 189 Z "></path><path d="M 306.5 189 L 314.5 189 L 315 190.5 Q 313.8 193.3 312.5 191 L 302.5 193 L 296 199.5 L 294 202.5 L 292 201.5 L 295 195 L 298 193.5 Q 297.3 191.3 299.5 192 L 306.5 189 Z "></path><path d="M 324 189 L 332 193.5 Q 332.8 196.1 329.5 195 L 324 190.5 L 324 189 Z "></path><path d="M 81.5 191 Q 84.1 190.3 83 193 L 78.5 194 L 77.5 192 L 81.5 191 Z "></path><path d="M 281 191 L 284 192.5 Q 285.1 195.8 282.5 195 L 281 191 Z "></path><path d="M 287 192 Q 290 190.8 289 194.5 L 288 198.5 L 290 201.5 Q 288 205 286 200.5 Q 285.3 194.4 287 192 Z "></path><path d="M 60.5 193 L 63 194.5 L 61.5 195 L 60.5 193 Z "></path><path d="M 84.5 194 Q 87.1 193.3 86 196 L 81.5 197 L 79 196.5 Q 78.1 193.1 83.5 195 L 84.5 194 Z "></path><path d="M 145.5 194 L 152.5 194 L 162 198.5 L 161.5 201 Q 158.2 195.3 149.5 195 L 146.5 196 L 145.5 194 Z "></path><path d="M 140.5 195 L 144 195.5 L 135 200.5 L 133.5 203 L 132 202.5 L 136.5 197 L 140.5 195 Z "></path><path d="M 58.5 196 L 63 197.5 L 60.5 198 L 58.5 196 Z "></path><path d="M 44.5 197 Q 46.8 196.3 46 198.5 L 48 201.5 L 45 199.5 L 44.5 197 Z "></path><path d="M 203.5 197 L 207 197.5 L 199 203.5 L 198 210 Q 194 211.4 196 204.5 L 201.5 198 L 203.5 197 Z "></path><path d="M 226 198 Q 230.1 196.3 229 200.5 Q 225.6 207.6 213.5 206 L 206 212.5 L 203.5 220 L 202 216.5 L 206.5 209 Q 210.2 203.2 221.5 205 L 226 201.5 L 226 198 Z "></path><path d="M 113.5 199 L 110.5 203 L 107 205.5 L 105 211 Q 102.3 212.1 103 209.5 L 108.5 202 L 113.5 199 Z "></path><path d="M 217.5 199 L 220 199.5 L 215.5 202 L 211.5 201 L 205 204 L 202 208.5 L 200.5 217 Q 198.3 215.3 199 210.5 L 205.5 202 L 217.5 199 Z "></path><path d="M 57.5 200 L 63 201 Q 64.1 203.7 61.5 203 Q 57.5 202.5 57.5 200 Z "></path><path d="M 85.5 201 L 89 201.5 L 87.5 203 L 77 205 Q 75.7 201.7 80.5 203 L 85.5 201 Z "></path><path d="M 169.5 204 L 174 206.5 L 172.5 207 L 169.5 204 Z "></path><path d="M 131 205 Q 134 204 133 207 Q 130 208 131 205 Z "></path><path d="M 29 206 Q 32.5 204.9 31 212.5 L 29 211.5 L 29 206 Z "></path><path d="M 123.5 207 L 124 208.5 Q 121.3 210.8 121.5 216 Q 119.3 215.3 120 211.5 L 121 208 L 123.5 207 Z "></path><path d="M 34.5 208 L 35 210.5 L 34 210.5 L 34.5 208 Z "></path><path d="M 300 208 Q 303 207 302 210 Q 299 211 300 208 Z "></path><path d="M 312 208 Q 319 207 322 211.5 L 321.5 213 L 319.5 211 L 312 210 L 312 208 Z "></path><path d="M 130 211 Q 133 209.8 132 213.5 L 133 215.5 L 131.5 215 L 130 215 L 130 211 Z "></path><path d="M 186 214 L 191 214 L 191 216 L 186 216 L 186 214 Z "></path><path d="M 221.5 214 L 231.5 215 L 234 217.5 L 232.5 220 L 230 218.5 Q 230.8 216.3 228.5 217 Q 227.3 214.7 222.5 216 L 213 220 Q 211.5 216.3 214.5 217 L 221.5 214 Z "></path><path d="M 239 217 Q 242.8 216 244 218.5 L 242.5 221 L 239 218.5 L 239 217 Z "></path><path d="M 219.5 219 L 226.5 219 L 227 221 L 216.5 222 L 217.5 220 L 219.5 219 Z "></path><path d="M 125.5 221 L 126 223 L 124 222.5 L 125.5 221 Z "></path><path d="M 294.5 221 Q 296.8 220.3 296 222.5 L 290 225 L 291.5 222 L 294.5 221 Z "></path><path d="M 135.5 225 L 141 227.5 L 139.5 228 L 136.5 226 L 130 229 Q 128.9 226.3 131.5 227 L 135.5 225 Z "></path><path d="M 167.5 225 Q 171.3 224 170 227 L 167.5 225 Z "></path><path d="M 101.5 229 L 105.5 230 L 109.5 229 L 117 232.5 L 114.5 234 Q 111 229.5 101.5 231 L 89.5 234 L 78 242.5 L 74 249.5 Q 75.3 254.8 72.5 256 L 72 249.5 Q 75.3 241.8 81.5 237 Q 89.5 231 101.5 229 Z "></path><path d="M 164.5 229 L 169 230.5 L 165.5 231 L 164.5 229 Z "></path><path d="M 163.5 232 L 169 234.5 L 168.5 236 Q 163.9 234.8 163.5 232 Z "></path><path d="M 101.5 234 Q 111.3 232.3 114 237.5 Q 112.3 240.8 110.5 237 Q 107.3 234.7 100.5 236 L 97.5 237 L 93 238 L 92.5 240 L 92 238.5 L 101.5 234 Z "></path><path d="M 123.5 234 Q 127.5 233.5 128 236.5 L 129 240.5 L 128 243 L 122.5 247 L 119.5 247 L 117.5 247 L 114 243.5 L 115.5 241 L 118.5 245 L 120.5 246 L 126 241.5 L 123.5 234 Z "></path><path d="M 141.5 234 L 142 236.5 L 140.5 240 L 140 235.5 L 141.5 234 Z "></path><path d="M 120 235 Q 122.7 233.9 122 236.5 L 123 239.5 L 120 241.5 L 121 238.5 L 120 235 Z "></path><path d="M 136 235 L 138 235.5 L 136.5 240 L 136 235 Z "></path><path d="M 161 236 L 170 238 Q 171.1 240.7 168.5 240 L 161 238 L 161 236 Z "></path><path d="M 144 237 Q 147 235.8 146 239.5 L 143 241 L 144 237 Z "></path><path d="M 46 238 Q 48.7 236.9 48 239.5 L 46 240.5 L 46 238 Z "></path><path d="M 89.5 239 Q 92.1 238.3 91 241 L 88.5 241 L 83 245.5 L 78 252.5 L 78 256.5 L 79 259.5 L 78 265 L 75.5 266 L 75 264.5 L 76 263.5 L 76 255.5 L 76 253.5 Q 78.9 245.4 85.5 241 L 89.5 239 Z "></path><path d="M 97.5 241 L 96.5 243 L 85 251.5 L 83.5 254 L 83 251.5 Q 88.2 244.2 97.5 241 Z "></path><path d="M 130.5 241 L 131 244.5 L 130 244.5 L 129 242.5 L 130.5 241 Z "></path><path d="M 108 242 L 111 242.5 L 110 245.5 L 114 250.5 L 111.5 251 L 107 244.5 L 108 242 Z "></path><path d="M 156.5 243 L 160.5 245 L 173 247 Q 174.1 249.7 171.5 249 L 155 244.5 L 156.5 243 Z "></path><path d="M 29 247 Q 32.8 245.5 32 248.5 L 33 251 Q 27 253 29 247 Z "></path><path d="M 156 247 L 174 251.5 L 168.5 252 L 160.5 249 L 156 249 L 156 247 Z "></path><path d="M 123.5 249 L 124 252 Q 121.3 253.1 122 250.5 L 123.5 249 Z "></path><path d="M 115 250 Q 118 249 117 252 Q 114 253 115 250 Z "></path><path d="M 120.5 251 L 121 253.5 L 119 252.5 L 120.5 251 Z "></path><path d="M 109.5 254 L 116 255 Q 117.3 258 113.5 257 Q 109.5 256.5 109.5 254 Z "></path><path d="M 81 256 L 83 256.5 L 83 264.5 L 77.5 270 L 75.5 270 L 75.5 269 L 80 265.5 Q 79.1 258.7 81 256 Z "></path><path d="M 112.5 258 L 116 259 Q 117.3 262 113.5 261 L 111 259.5 L 112.5 258 Z "></path><path d="M 111.5 263 Q 115.3 262 114 265 L 110.5 266 L 109.5 264 L 111.5 263 Z "></path><path d="M 107.5 269 L 112 269.5 L 107.5 270 L 107.5 269 Z "></path><path d="M 107.5 272 L 111 272.5 L 110 274.5 L 110.5 276 L 98.5 280 L 99.5 278 L 108 276 Q 109.3 273 105.5 274 Q 102.6 276.6 96.5 276 L 96.5 275 L 107.5 272 Z "></path><path d="M 163 272 L 174 274 L 173.5 276 L 163 274 L 163 272 Z "></path><path d="M 163 277 L 171 280.5 L 165.5 281 L 163 280 L 163 277 Z "></path><path d="M 286.5 280 L 287 281.5 L 285 285 L 283 285 Q 284.5 288.7 281.5 288 L 278 287 Q 276.8 284 280.5 285 L 282 285.5 L 283 281 L 286.5 280 Z "></path><path d="M 292.5 280 L 295 280.5 Q 292.9 283.8 292.5 280 Z "></path><path d="M 102.5 281 Q 107.3 279.7 106 283 L 100 284 Q 98.9 281.3 101.5 282 L 102.5 281 Z "></path><path d="M 279.5 281 L 282 281.5 L 278.5 283 L 279.5 281 Z "></path><path d="M 91.5 284 Q 94.5 286.8 100 286 Q 101.3 289.7 95.5 288 L 91 287 L 91.5 284 Z "></path><path d="M 294.5 284 Q 297.1 283.3 296 286 L 293 285.5 L 294.5 284 Z "></path><path d="M 287 285 Q 290 284 289 287 Q 286 288 287 285 Z "></path><path d="M 297.5 286 Q 300.3 287.3 298 288.5 L 299 294.5 L 295.5 298 L 290.5 299 L 289 296.5 L 297.5 286 Z M 294 295 L 292 297 L 295 297 Q 296 294 294 295 Z "></path><path d="M 284 289 Q 287 288 286 291 Q 283 292 284 289 Z "></path><path d="M 92 290 L 98 290 L 98 292 L 92 292 L 92 290 Z "></path><path d="M 288 290 Q 292.1 288.7 291 292 Q 286.9 293.3 288 290 Z "></path><path d="M 277 291 L 280 292.5 L 277 293 L 277 291 Z "></path><path d="M 283.5 293 L 285.5 294 L 288 293 Q 289.3 296 285.5 295 L 282 296 L 283.5 293 Z "></path><path d="M 96.5 294 L 98 294.5 L 95 296.5 L 96.5 294 Z "></path><path d="M 279.5 296 Q 282.5 297.5 279.5 299 L 277 297.5 L 279.5 296 Z "></path><path d="M 278.5 300 Q 280.8 299.3 280 301.5 Q 278.5 304.5 277 301.5 L 278.5 300 Z "></path><path d="M 283 300 Q 286 299 285 302 Q 282 303 283 300 Z "></path><path d="M 83.5 301 Q 92 299 94 303.5 L 92.5 304 Q 90.8 301.3 84.5 303 L 80.5 310 Q 78 309 79 304.5 L 83.5 301 Z "></path><path d="M 45 305 L 50 305.5 Q 48.8 308 45 307 L 45 305 Z "></path><path d="M 55 307 L 62 307.5 Q 60.4 310.5 55 309 L 55 307 Z "></path><path d="M 88.5 307 Q 93.8 305.8 95 308.5 Q 89.6 307.6 88 310.5 L 84.5 315 L 76.5 315 L 70 313.5 L 73.5 312 L 81.5 314 L 84 313 L 86.5 308 L 88.5 307 Z "></path><path d="M 141.5 310 Q 143.8 309.3 143 311.5 L 141.5 310 Z "></path><path d="M 58 311 L 61 311.5 L 58 313 L 58 311 Z "></path><path d="M 46.5 312 Q 54.1 310.5 53 314 L 49.5 313 L 47.5 314 L 46.5 312 Z "></path><path d="M 92.5 312 Q 97 311 98 313.5 Q 98.8 315.8 96.5 315 L 94.5 314 L 90.5 320 L 79.5 320 Q 76.5 317 69.5 318 L 67 319.5 L 68.5 317 L 76.5 317 L 84.5 319 L 86.5 318 Q 88.3 320.7 90 316.5 Q 89.5 312.5 92.5 312 Z "></path><path d="M 231 314 L 237 314.5 Q 235.6 317.3 231 316 L 231 314 Z "></path><path d="M 48.5 315 L 50.5 315 Q 57.4 313 56 317 L 47 316.5 L 48.5 315 Z "></path><path d="M 220.5 315 Q 225.8 313.3 224 318.5 Q 222.8 321 219 320 Q 218 316.2 220.5 315 Z "></path><path d="M 208 316 L 213 316 L 213 317.5 L 214 321 Q 209.3 322 208 318.5 L 208 316 Z "></path><path d="M 232.5 317 L 233 319 L 231 318.5 L 232.5 317 Z "></path><path d="M 50.5 319 Q 56.6 317.8 56 320.5 L 54.5 320 L 48.5 321 L 48.5 320 L 50.5 319 Z "></path><path d="M 97 319 L 99 319 Q 97.9 321.7 100.5 321 L 102.5 321 L 105.5 321 L 110 325.5 Q 112.3 332.8 107 331 L 108 328.5 L 103.5 322 Q 98.3 323.3 97 320.5 L 97 319 Z "></path><path d="M 144 321 L 150 321.5 L 147.5 323 L 145.5 322 L 144 322.5 L 144 321 Z "></path><path d="M 215 322 Q 219.1 320.3 218 324.5 L 215.5 328 L 214 324.5 L 215 322 Z "></path><path d="M 50.5 323 L 54 323.5 L 50.5 324 L 50.5 323 Z "></path><path d="M 92 323 L 95.5 324 L 97.5 324 L 102.5 325 L 105 327.5 L 106 336.5 Q 105.2 340.8 99.5 340 L 99.5 339 L 103 336.5 L 104 333.5 L 103 328.5 L 100.5 326 L 92 325 L 92 323 Z "></path><path d="M 133 323 L 138 324 Q 139.3 327.3 134.5 326 L 133 323 Z "></path><path d="M 132 327 L 136.5 328 L 138 327.5 Q 138.8 330.1 135.5 329 L 135.5 330 L 139 330.5 L 134.5 332 L 132 327 Z "></path><path d="M 98 329 L 101 330.5 L 102 332.5 L 99.5 336 L 95 335.5 L 99 332.5 L 98 329 Z "></path><path d="M 109 333 Q 112 332 111 335 Q 108 336 109 333 Z "></path><path d="M 33 337 L 35 337.5 L 33 338.5 L 33 337 Z "></path><path d="M 329.5 340 Q 333.3 339 332 342 L 327 343 L 325 349.5 L 327 354 L 322 350.5 L 324 343.5 L 326.5 341 L 329.5 340 Z "></path><path d="M 138.5 355 L 141 355.5 L 138.5 356 L 138.5 355 Z "></path><path d="M 316.5 355 L 319 356.5 L 313 358 L 312 361.5 L 314 362.5 L 315.5 360 L 318.5 359 L 319 361 Q 316 359.8 317 363.5 L 314.5 367 L 310 364 L 309 360.5 L 311.5 357 L 316.5 355 Z "></path><path d="M 127.5 356 L 128.5 358 Q 125.7 358.7 127.5 356 Z "></path><path d="M 226.5 359 Q 229.1 358.3 228 361 L 221 362 Q 219.7 358.3 225.5 360 L 226.5 359 Z "></path><path d="M 300.5 364 L 303 365 Q 304.2 368.7 299 367 L 300.5 364 Z "></path><path d="M 140.5 366 Q 145.3 364.7 144 368 Q 140.2 368.8 140.5 366 Z "></path><path d="M 227.5 367 Q 230.1 366.3 229 369 L 222 370 Q 220.7 366.3 226.5 368 L 227.5 367 Z "></path><path d="M 300.5 369 Q 304.7 367.9 303 372 L 297 372 L 297 370 L 300.5 369 Z "></path><path d="M 311.5 369 L 314.5 374 Q 318.3 373 317 376 Q 312.3 377 311 373.5 L 310 370.5 L 311.5 369 Z "></path><path d="M 141 370 L 145 370.5 L 141 372 L 141 370 Z "></path><path d="M 104.5 372 L 112.5 372 L 114 373.5 L 107.5 374 L 105.5 374 L 100.5 377 L 98 375.5 L 104.5 372 Z "></path><path d="M 296.5 374 Q 303.3 372.3 305 375.5 L 297.5 376 L 296.5 374 Z "></path><path d="M 17.5 376 Q 22 375 23 377.5 Q 21.8 380.3 20.5 378 L 18 379.5 L 17 384.5 L 19 385.5 Q 18 381 20.5 380 L 23 384.5 L 23 386.5 Q 23.8 389.1 20.5 388 L 14 385.5 L 15 379.5 L 17.5 376 Z "></path><path d="M 297 379 Q 301.1 377.7 300 381 Q 295.9 382.3 297 379 Z "></path><path d="M 282.5 381 Q 289.4 379 288 383 L 282.5 382 L 282.5 381 Z "></path><path d="M 231.5 383 Q 235.3 382 234 385 L 220 387 Q 218.9 383.5 226.5 385 L 231.5 383 Z "></path><path d="M 232.5 387 L 233.5 389 L 218 392 Q 216.7 388.7 221.5 390 L 232.5 387 Z "></path><path d="M 304.5 388 L 308 388.5 Q 307.3 390.8 303.5 390 L 304.5 388 Z "></path><path d="M 145.5 389 L 152 389.5 L 149.5 391 L 141 392 Q 139.7 388.7 144.5 390 L 145.5 389 Z "></path><path d="M 248.5 389 Q 251.1 388.3 250 391 L 246 393.5 L 245.5 395 L 244 392.5 L 248.5 389 Z "></path><path d="M 299 389 Q 303.1 387.7 302 391 Q 297.9 392.3 299 389 Z "></path><path d="M 324.5 390 L 328 391.5 Q 326.8 394.3 325.5 392 L 320 394 L 318.5 397 L 317 394.5 L 324.5 390 Z "></path><path d="M 148.5 393 L 155 393.5 L 143 397 Q 141.9 394.3 144.5 395 L 148.5 393 Z "></path><path d="M 187.5 393 L 190 394.5 L 183 398.5 L 180.5 403 L 180 399.5 L 182.5 396 L 187.5 393 Z "></path><path d="M 185.5 399 Q 187.8 398.3 187 400.5 L 184.5 405 L 183 401.5 L 185.5 399 Z "></path><path d="M 283 401 L 289 402 Q 290.4 405.7 284.5 404 L 283 401 Z "></path><path d="M 164.5 405 L 165 406.5 Q 161.4 408.4 162 413 Q 158.3 414.4 160 408.5 L 164.5 405 Z "></path><path d="M 245 405 L 249 405.5 L 245 407 L 245 405 Z "></path><path d="M 324.5 408 L 327 408.5 Q 321.1 411.1 321.5 420 L 319 414.5 L 322.5 409 L 324.5 408 Z "></path><path d="M 286.5 419 Q 289.1 418.3 288 421 L 283.5 423 L 283 421.5 L 286.5 419 Z "></path><path d="M 304.5 423 L 308 424.5 L 309 426.5 L 304.5 430 L 304 428.5 L 306 424.5 L 302 427.5 Q 302.7 430.1 300 429 Q 299.3 425.2 302.5 424 L 304.5 423 Z "></path><path d="M 312.5 427 L 312 428.5 L 313 433 Q 308.9 434.7 310 430.5 Q 307.8 429.3 310.5 428 L 312.5 427 Z "></path><path d="M 257.5 433 L 258 436.5 L 252.5 442 L 245.5 443 L 246.5 441 Q 253.8 440.8 256 435.5 L 257.5 433 Z "></path><path d="M 268.5 433 L 270 433.5 Q 266.8 434.8 268 440.5 L 269 444 Q 272 445.3 271 441.5 Q 272.5 438.5 274 441.5 L 275 446 L 269.5 447 Q 264.9 444.1 264 437.5 L 266.5 434 L 268.5 433 Z "></path><path d="M 306.5 437 Q 309.3 436.4 308 442.5 L 311 446.5 L 305.5 449 L 303 448 L 301 444.5 L 301 441.5 L 302.5 438 L 306.5 447 L 307 445.5 Q 304.2 443.8 305 438.5 L 306.5 437 Z "></path><path d="M 287.5 439 L 288 441.5 L 287 445.5 L 289.5 444 Q 292.1 443.2 291 446.5 L 290 448.5 L 291 450.5 Q 289.8 453.3 288.5 451 L 285 450 Q 283.4 447.9 284 442.5 L 287.5 439 Z "></path><path d="M 241 442 Q 244 441 243 444 Q 240 445 241 442 Z "></path><path d="M 330.5 443 Q 333.1 442.3 332 445 L 326.5 448 L 316.5 449 L 312 445.5 Q 311.3 443.3 313.5 444 Q 315 448.5 322.5 447 L 330.5 443 Z "></path><path d="M 315.5 538 Q 322.8 536.8 325 540.5 L 322.5 544 L 320.5 544 L 317.5 543 Q 314.5 544.5 317.5 546 L 325 546.5 Q 324 549 319.5 548 L 317.5 547 L 316.5 549 Q 323.3 550.3 326.5 548 L 330 549.5 L 318 551.5 L 326 552.5 Q 323.7 553.7 326.5 555 Q 331 554 332 556.5 L 330.5 560 L 328.5 561 L 327.5 560 L 319.5 560 L 317 560.5 L 318 571.5 L 317 576.5 L 318 579.5 L 315.5 585 L 312 583.5 L 314 575.5 L 313 574.5 L 313 562.5 L 312 560 Q 306.3 559.6 304 563.5 L 303.5 565 L 301 564 L 302.5 560 L 309 559 L 308.5 557 L 301.5 557 L 300 554 L 307 551.5 L 301 550 L 302.5 547 L 310.5 546 L 312 544.5 Q 311 540 313.5 539 L 315.5 538 Z M 317 540 L 317 542 Q 321 543 322 541 L 317 540 Z M 309 547 L 305 549 L 309 550 L 311 550 L 311 549 L 309 547 Z M 307 554 L 307 555 L 310 556 L 312 555 L 307 554 Z M 322 556 L 321 558 L 328 558 Q 327 555 322 556 Z "></path><path d="M 342.5 554 L 343 557.5 L 342 557.5 L 342.5 554 Z "></path><path d="M 318 563 Q 322.5 561.5 321 566 L 318 564.5 L 318 563 Z "></path><path d="M 339.5 564 Q 341.8 563.3 341 565.5 L 339.5 564 Z "></path></svg>