<svg width="350" height="600" version="1.1" xmlns="http://www.w3.org/2000/svg" desc="Created with imagetracer.js version 1.2.5"><path d="M 297.5 3 L 302.5 4 L 304.5 3 Q 306 5.5 311.5 4 Q 313 1.5 318.5 3 L 321.5 4 L 324.5 3 Q 326.3 5.8 332.5 4 L 334 5.5 L 335 10.5 L 335 32.5 L 334 37.5 Q 336.3 38.8 335 43.5 L 334 47.5 L 335 50.5 L 334 54.5 L 335 55.5 L 335 203.5 L 334 208.5 Q 336.5 210 335 215.5 L 334 218.5 L 335 226.5 Q 332.8 227.8 334 232.5 L 335 234.5 L 334 235.5 L 334 244.5 L 335 246.5 L 334 248.5 Q 336.5 250 335 255.5 L 334 257.5 L 334 259.5 L 335 261.5 L 335 338.5 L 336 340.5 L 335 344.5 L 335 346.5 L 336 351.5 L 336 353.5 L 336 383.5 Q 338.8 385.3 337 391.5 L 336 392.5 L 336 400.5 L 336 402.5 L 336 448.5 L 337 453.5 Q 334.3 455.3 336 461.5 L 337 463.5 L 336 467.5 L 337 468.5 L 337 530.5 L 338 532.5 L 337 533.5 L 337 547.5 L 338 550.5 L 338 552.5 L 337 588.5 L 338 590.5 L 336.5 592 L 324.5 592 L 323.5 593 L 256.5 593 L 253.5 594 L 249.5 593 L 247.5 594 L 245.5 593 L 242.5 594 Q 240.7 591.2 234.5 593 L 231.5 594 L 203.5 594 L 202.5 595 L 201.5 594 L 147.5 594 Q 146 591.5 140.5 593 L 139.5 594 L 124.5 594 Q 122.7 591.2 116.5 593 L 114.5 593 L 112.5 594 L 110.5 593 L 109.5 594 L 38.5 594 L 29.5 596 L 7 596 L 6 593.5 L 7 592.5 L 7 494.5 L 6 491.5 L 7 490.5 L 7 480.5 L 6 477.5 L 8 468.5 L 8 454.5 L 7 452.5 L 8 449.5 Q 5.5 448 7 442.5 L 8 440.5 L 7 436.5 L 8 432.5 L 8 430.5 L 7 425.5 L 6 373.5 L 6 371.5 Q 4.3 363.3 7 359.5 L 5 356.5 Q 7.5 355 6 349.5 L 5 347.5 Q 8.5 346 6 344.5 L 7 339 Q 4.3 340.1 5 337.5 L 7 334.5 L 5 330.5 L 7 319.5 L 6 314.5 L 6 312.5 L 7 307.5 L 6 305.5 L 7 304.5 L 7 296.5 L 6 295.5 L 6 286.5 L 7 283.5 L 6 280.5 L 7 278.5 L 6 277.5 L 6 262.5 L 5 260.5 L 5 258.5 L 6 241.5 L 5 237.5 L 6 236.5 L 6 228.5 Q 2.2 223.8 4 213.5 L 5 212.5 L 5 197.5 L 4 194.5 L 5 193.5 L 5 171.5 L 4 166.5 Q 6.5 165 5 159.5 L 4 157.5 Q 6.7 155.7 5 149.5 L 4 146.5 L 5 143.5 L 4 140.5 L 4 138.5 L 4 136 L 6 135.5 L 6 100.5 L 5 97.5 Q 7.5 96 6 90.5 L 5 88.5 L 6 84.5 L 5 81.5 L 6 80.5 L 6 10.5 L 7.5 9 L 37.5 8 L 41.5 9 L 42.5 8 L 55.5 8 L 57.5 9 L 58.5 8 L 104.5 7 L 105.5 8 L 113.5 8 L 115.5 8 L 118.5 7 L 120.5 7 L 136.5 8 L 138.5 8 L 142.5 7 Q 144 9.5 149.5 8 L 150.5 7 L 162.5 6 L 164.5 6 L 231.5 5 L 232.5 6 L 251.5 6 L 252.5 5 L 274.5 5 L 278.5 4 L 281.5 5 L 282.5 4 L 296.5 4 L 297.5 3 Z M 296 6 Q 294 8 290 7 L 288 7 L 286 8 Q 281 9 280 7 L 267 7 L 266 8 L 262 7 L 257 8 L 211 8 L 209 8 L 195 8 L 194 9 Q 185 11 182 8 L 180 8 L 179 9 L 164 9 L 163 10 L 161 9 L 151 11 L 125 11 L 121 10 L 119 10 L 115 11 L 107 11 L 106 10 L 59 11 L 58 12 Q 53 13 52 11 L 44 11 L 43 12 L 33 12 L 32 11 L 31 12 L 9 12 L 9 41 L 10 42 L 9 88 L 8 89 L 9 91 L 9 134 Q 17 133 21 135 L 20 133 Q 19 127 21 125 L 26 123 L 28 123 L 30 121 Q 34 122 36 120 L 49 120 L 60 123 Q 62 116 58 115 L 59 112 Q 62 107 71 108 L 73 108 L 77 107 Q 87 105 93 109 L 86 110 L 96 111 L 97 114 Q 96 118 90 117 L 89 119 L 98 117 L 100 116 L 100 120 L 91 140 Q 92 144 88 142 Q 87 145 91 144 L 92 147 Q 94 156 90 160 L 92 167 L 103 165 Q 110 163 108 168 L 94 170 L 94 174 L 98 181 L 100 189 L 107 196 L 105 201 L 93 202 L 91 202 L 77 207 Q 72 208 73 205 L 66 201 L 64 201 Q 68 203 69 210 L 64 212 L 64 213 L 69 213 L 81 208 L 82 212 L 82 213 Q 84 214 83 211 L 87 209 L 87 215 Q 83 216 84 221 Q 89 222 90 218 L 89 213 Q 94 212 92 216 L 99 220 L 101 223 L 91 218 L 90 229 L 90 231 L 91 233 L 90 236 L 93 235 L 95 236 L 96 240 L 91 241 Q 93 244 99 242 L 100 245 Q 98 248 92 246 L 92 248 L 102 248 L 102 250 Q 104 251 102 252 L 93 252 L 93 256 L 102 255 L 102 259 L 96 259 L 94 259 L 97 271 L 97 285 L 95 285 L 94 283 L 94 270 L 89 252 L 88 235 L 87 233 L 86 233 L 87 276 L 93 275 L 92 279 L 93 282 L 90 283 L 88 280 L 91 279 L 88 277 L 87 284 Q 88 286 90 284 Q 93 283 92 287 Q 91 289 90 287 L 87 288 Q 88 290 93 289 L 94 294 Q 93 296 90 295 L 88 295 L 88 297 L 95 297 L 95 301 L 88 301 L 88 309 L 94 308 L 96 313 L 95 316 Q 87 315 88 318 L 91 317 L 96 318 L 103 304 L 106 302 L 111 296 Q 113 297 112 295 L 117 291 L 118 288 L 126 281 Q 131 282 133 279 L 131 275 L 133 271 L 137 268 Q 140 266 138 260 L 136 258 Q 131 255 130 250 Q 129 241 133 238 L 130 236 L 134 231 L 138 220 Q 136 215 141 216 L 142 215 L 142 205 L 146 203 L 145 202 Q 146 198 142 200 L 139 210 L 135 213 L 127 223 L 121 227 L 121 225 L 130 214 L 135 210 Q 138 207 138 201 L 124 202 L 121 204 L 108 205 L 104 207 L 102 204 L 111 201 L 142 197 L 144 197 Q 146 196 145 199 Q 147 197 149 201 L 148 230 L 153 229 L 176 228 L 180 225 Q 182 226 181 223 L 177 222 L 176 220 L 178 217 L 188 222 L 195 221 L 198 220 Q 208 219 214 222 L 214 221 L 222 215 L 227 208 L 227 204 L 231 205 L 233 202 Q 238 201 236 205 L 242 204 L 243 208 L 242 209 L 235 209 L 236 212 L 235 217 L 235 253 L 236 254 L 235 257 L 236 259 L 236 272 L 237 273 L 236 277 L 237 299 L 238 300 L 236 306 L 232 305 L 231 311 L 239 326 L 245 332 L 247 342 L 246 349 L 242 356 L 242 359 L 236 367 L 230 371 L 226 371 L 223 374 L 218 374 L 213 370 L 209 372 L 207 376 Q 216 379 221 386 L 226 388 Q 233 394 236 405 L 237 416 L 240 428 L 240 434 L 241 434 L 240 423 Q 241 420 243 422 L 246 421 L 247 424 L 251 424 L 248 421 Q 249 415 246 414 L 241 415 L 239 411 L 244 412 L 245 412 L 243 409 L 244 407 Q 243 404 239 405 L 236 403 L 242 401 L 244 401 L 251 417 L 256 423 L 257 428 Q 258 436 256 441 L 258 441 L 258 439 Q 261 440 260 438 Q 258 436 261 435 L 264 436 L 269 434 L 269 433 L 263 434 L 260 430 L 264 431 L 269 430 Q 270 427 263 428 Q 261 430 260 428 L 261 425 L 269 425 L 269 422 L 263 423 L 260 422 L 262 419 L 269 419 L 269 416 Q 263 415 260 417 L 259 415 L 261 413 L 269 413 Q 270 409 263 411 Q 261 413 260 411 L 261 408 L 269 408 L 269 405 L 265 406 L 263 406 L 261 402 L 266 403 L 268 403 L 270 402 Q 268 398 262 400 L 260 399 L 261 397 L 270 397 L 268 394 L 260 395 L 259 393 L 265 391 L 267 391 L 270 392 L 269 387 L 260 388 Q 258 383 266 385 L 268 385 L 270 384 L 270 381 L 262 381 Q 260 383 259 381 L 260 378 L 269 378 Q 272 377 269 375 L 268 376 L 260 376 L 261 373 L 270 373 L 270 370 L 261 370 L 261 367 L 269 368 L 270 364 L 268 365 L 265 364 L 265 362 L 269 362 L 268 360 L 269 358 L 262 357 L 264 353 L 268 354 L 271 353 L 269 351 L 267 351 L 265 352 L 261 351 L 262 348 L 262 343 L 271 343 Q 272 338 270 337 Q 264 336 263 338 Q 259 339 260 336 L 262 334 L 271 334 L 271 331 L 262 331 L 262 327 L 272 328 L 271 324 Q 265 323 264 325 L 261 321 L 272 321 L 263 320 L 261 319 L 261 316 L 272 316 L 272 314 Q 264 315 261 313 L 262 310 L 271 310 L 272 308 L 263 308 L 263 305 L 267 304 L 263 303 L 265 299 L 270 300 L 272 300 Q 274 301 273 298 L 272 298 Q 266 299 264 297 L 264 294 L 273 294 L 273 292 L 264 292 L 264 288 L 268 289 L 272 288 Q 275 289 274 286 L 271 287 L 267 286 Q 261 288 263 282 L 266 283 Q 272 284 274 282 L 264 281 L 262 280 L 264 277 L 274 277 L 274 275 Q 271 277 265 276 L 263 274 Q 264 271 266 273 Q 270 274 272 272 Q 275 273 274 270 Q 272 272 266 271 L 264 268 Q 271 269 274 266 L 267 265 L 261 255 L 259 247 L 259 239 L 256 232 L 257 227 L 260 236 Q 259 239 262 238 L 263 252 L 265 256 L 268 254 L 272 255 L 274 255 L 274 252 L 268 253 L 266 249 L 270 250 L 273 249 L 273 246 L 270 248 L 268 248 Q 263 249 265 244 L 271 244 L 266 242 L 268 239 L 273 239 L 273 237 L 272 237 Q 266 239 268 233 L 275 231 L 275 228 L 274 229 L 265 229 Q 265 221 269 217 Q 272 216 273 219 L 272 221 L 276 220 Q 277 222 279 219 Q 283 218 282 221 L 289 225 L 292 225 Q 294 226 292 228 L 293 229 L 299 211 L 294 212 L 283 212 L 282 213 Q 273 215 271 211 L 269 208 L 263 203 L 264 199 Q 263 196 266 197 Q 273 189 276 176 L 276 165 L 275 164 L 276 161 L 276 156 L 273 148 L 265 131 L 257 146 L 258 149 Q 259 152 256 151 L 257 154 L 256 156 L 258 168 Q 267 168 273 172 L 274 172 L 274 176 L 265 172 L 262 172 L 260 172 L 260 175 L 267 189 L 264 193 Q 265 195 262 194 L 262 196 L 258 199 L 255 198 L 255 195 Q 252 196 253 193 L 251 194 L 249 193 L 240 194 Q 247 193 252 196 Q 256 195 254 199 L 229 196 L 227 194 L 224 192 L 228 186 L 228 183 L 217 189 L 191 185 L 189 183 L 186 184 L 186 182 L 190 177 L 195 166 L 197 157 L 197 143 L 199 141 L 196 139 L 195 137 Q 194 132 196 131 L 191 121 L 188 109 L 184 103 L 185 97 L 193 94 L 219 94 L 226 97 L 228 101 L 226 109 L 220 119 L 218 128 L 216 130 L 216 139 L 215 140 L 216 149 L 220 162 L 234 163 L 233 167 L 226 165 L 223 166 L 223 169 L 229 177 L 230 181 L 234 173 L 238 157 L 237 152 L 239 146 L 242 146 L 242 153 L 244 153 L 244 145 Q 247 146 249 143 L 254 143 L 254 141 L 245 141 Q 246 137 244 138 L 242 135 L 247 136 L 256 135 L 251 133 Q 243 135 245 130 L 250 131 Q 257 132 260 130 L 248 129 L 247 128 Q 241 130 243 125 L 248 127 L 249 126 L 261 126 L 263 123 L 258 124 L 251 124 L 236 121 L 234 121 L 237 136 L 241 144 L 241 145 L 237 145 L 233 137 Q 233 126 228 120 L 229 112 L 231 110 Q 236 112 238 109 L 261 109 L 265 111 L 268 119 L 266 126 L 268 126 Q 269 123 271 127 L 273 125 L 278 124 L 298 124 L 305 126 L 309 132 L 303 146 Q 308 144 319 145 L 320 144 L 331 145 L 331 78 L 332 77 Q 334 71 331 70 Q 334 68 332 62 L 332 60 Q 333 55 331 54 L 332 49 L 331 47 L 332 43 L 331 40 L 331 31 L 332 30 Q 329 21 331 9 L 330 7 L 302 7 Q 300 5 296 6 Z M 199 97 L 199 98 L 202 98 L 199 97 Z M 204 97 L 204 99 L 198 101 Q 192 99 193 103 L 199 105 L 218 105 L 223 104 L 224 102 L 218 97 L 216 98 L 204 97 Z M 191 106 L 195 122 L 199 128 L 198 133 L 199 137 L 205 140 L 205 135 L 202 136 Q 203 132 200 131 L 201 128 L 204 127 Q 205 124 202 125 L 202 123 L 208 124 Q 213 125 215 123 L 208 122 L 206 122 L 201 121 L 203 118 L 205 119 L 217 119 L 217 117 Q 206 119 201 115 L 204 114 L 206 114 L 208 115 L 210 115 L 219 114 L 220 113 L 208 112 L 204 111 L 207 110 L 209 110 L 220 109 L 221 107 L 218 108 L 195 108 L 191 106 Z M 79 109 L 79 111 L 85 110 L 79 109 Z M 76 110 L 63 112 L 62 117 L 69 117 L 70 116 L 73 117 Q 78 119 80 116 L 88 116 L 88 114 L 77 113 L 76 110 Z M 253 112 L 250 114 Q 244 113 243 115 Q 236 113 237 117 Q 240 116 242 119 L 250 119 L 251 120 L 258 119 L 262 117 Q 264 118 263 114 L 253 112 Z M 65 120 L 63 122 L 75 141 L 75 145 L 81 145 L 82 147 L 82 145 L 85 143 Q 87 142 85 141 L 85 138 L 80 138 Q 81 134 78 135 L 78 132 L 88 131 L 87 129 L 82 130 Q 76 132 77 128 L 88 126 L 85 124 L 80 125 L 76 124 L 74 121 Q 72 119 67 120 L 65 120 Z M 39 121 L 39 123 L 48 123 L 59 127 L 59 125 L 55 123 L 42 122 L 39 121 Z M 34 124 L 34 127 Q 30 128 31 125 L 25 126 Q 22 127 23 131 L 30 133 L 30 131 L 36 133 L 40 131 L 53 131 L 54 130 L 53 128 L 39 127 Q 37 129 36 127 Q 37 123 34 124 Z M 278 128 L 275 129 Q 274 132 279 131 L 280 134 L 284 135 L 287 134 L 289 135 L 302 135 L 304 134 L 305 132 L 300 128 Q 296 127 297 130 L 294 129 L 282 129 L 281 130 L 278 128 Z M 63 130 L 60 136 L 54 158 L 51 158 Q 52 155 49 156 Q 46 155 49 153 L 52 154 L 52 153 Q 54 151 52 150 L 50 151 Q 43 153 45 148 L 47 148 L 45 147 L 43 144 L 53 143 L 44 142 L 42 139 L 45 139 L 43 135 L 35 136 L 32 135 Q 26 133 27 137 L 33 138 L 35 143 Q 36 148 33 150 Q 32 156 35 159 Q 36 161 38 159 L 40 160 Q 44 161 45 158 L 49 160 L 53 159 L 56 164 L 54 168 Q 55 170 52 169 L 54 177 L 57 175 L 61 175 L 69 172 L 72 173 L 73 172 Q 72 167 74 166 L 74 159 L 70 153 Q 68 146 71 145 L 70 139 L 66 132 L 63 130 Z M 211 132 L 209 137 Q 208 141 212 139 Q 213 134 211 132 Z M 81 134 L 81 135 L 85 135 L 81 134 Z M 271 135 L 277 149 L 277 152 L 282 159 L 282 157 L 285 159 L 283 163 Q 282 165 285 164 L 286 160 L 288 157 Q 285 158 286 155 L 292 155 L 285 153 Q 286 150 283 149 L 297 147 L 297 146 Q 292 145 291 147 L 284 146 L 285 144 L 296 144 L 298 144 L 298 142 L 288 142 L 287 140 L 301 140 L 302 139 L 283 138 L 271 135 Z M 14 137 L 9 139 L 14 139 L 14 142 L 7 142 L 7 146 L 11 147 L 25 146 L 26 143 L 17 142 L 15 141 L 16 139 L 14 137 Z M 205 142 L 200 143 L 199 162 L 191 182 L 200 184 L 207 184 L 197 182 L 195 181 L 198 175 L 200 176 L 202 176 L 201 175 Q 198 174 201 172 L 205 173 L 206 177 Q 204 181 209 180 L 210 183 L 208 184 L 212 185 L 213 186 L 209 174 L 209 168 L 207 161 L 207 148 L 206 147 Q 208 141 205 142 Z M 209 142 L 210 159 L 215 158 L 213 149 L 213 142 L 209 142 Z M 54 145 L 47 147 L 54 147 L 54 145 Z M 248 146 L 249 153 L 252 148 L 252 146 L 248 146 Z M 316 147 L 316 149 L 304 153 L 313 155 L 330 152 Q 332 153 331 149 L 325 147 L 316 147 Z M 86 148 L 86 152 L 88 152 L 89 150 L 86 148 Z M 76 149 Q 73 150 74 154 L 77 156 L 76 149 Z M 81 149 L 79 151 L 81 154 Q 85 152 82 151 Q 83 148 81 149 Z M 7 150 L 7 155 L 12 157 Q 14 158 13 155 L 18 154 L 18 153 L 13 153 L 13 150 L 7 150 Z M 22 153 Q 20 155 26 154 L 27 155 Q 28 152 22 153 Z M 31 156 L 29 164 L 25 170 L 27 180 L 22 182 L 20 182 L 21 184 L 23 183 L 25 186 L 35 182 L 36 185 L 33 187 L 25 189 Q 25 201 31 208 L 35 199 L 37 180 L 38 179 Q 36 177 37 173 L 32 168 L 33 167 Q 34 159 31 156 Z M 241 156 L 239 171 L 229 191 L 231 193 L 235 193 L 233 192 L 235 189 L 238 190 L 242 190 L 236 188 L 234 185 L 245 187 L 244 191 L 251 191 L 248 178 L 248 167 L 247 166 L 247 156 L 241 156 Z M 302 156 L 306 170 L 311 177 L 313 176 L 312 178 Q 315 179 313 185 L 315 186 Q 314 180 319 178 L 321 179 L 322 177 L 315 176 L 316 172 L 319 170 L 320 171 L 320 169 L 316 169 L 316 168 Q 318 166 316 165 L 314 166 L 312 163 L 329 162 L 329 160 L 324 160 L 324 159 L 323 157 L 305 157 L 302 156 Z M 21 157 L 22 159 Q 23 156 21 157 Z M 298 157 L 296 159 L 298 164 L 295 169 Q 294 174 296 176 L 295 179 L 296 181 L 305 184 Q 304 180 307 178 L 299 160 Q 300 156 298 157 Z M 84 158 Q 80 160 84 162 L 83 190 L 80 198 L 85 197 L 85 196 Q 81 197 82 195 L 84 193 Q 90 194 93 191 L 91 195 L 93 195 L 95 195 L 99 194 L 92 179 L 87 160 L 84 158 Z M 251 158 L 251 167 L 254 166 L 253 162 Q 254 157 251 158 Z M 7 159 L 9 167 L 11 169 L 8 176 Q 7 179 10 180 L 12 172 Q 15 171 14 174 L 14 176 L 15 181 Q 19 180 17 173 L 20 171 L 19 169 L 14 165 L 15 162 Q 13 158 7 159 Z M 217 159 L 215 161 L 217 161 L 217 159 Z M 281 159 L 279 161 L 280 164 L 281 161 L 281 159 Z M 290 160 L 288 167 L 294 164 L 290 160 Z M 45 161 L 44 164 L 47 169 L 47 168 L 50 166 L 51 162 L 45 161 Z M 214 161 L 211 162 L 212 164 L 215 162 L 214 161 Z M 18 162 L 18 163 L 22 163 L 23 167 L 24 165 L 24 162 L 18 162 Z M 36 162 L 35 165 L 36 169 L 39 170 L 40 173 L 44 172 L 44 175 L 42 176 L 44 176 Q 46 181 40 179 L 41 183 L 44 182 L 44 184 L 39 184 L 39 192 L 36 206 L 32 212 L 35 214 Q 34 211 38 212 L 39 209 L 41 210 L 54 210 L 49 195 L 47 178 L 46 175 Q 47 170 45 171 L 43 168 L 42 168 Q 43 171 41 170 L 38 167 Q 40 161 36 162 Z M 42 163 L 40 165 L 41 167 L 42 167 L 42 163 Z M 217 164 Q 216 167 212 166 L 213 168 L 217 166 L 217 164 Z M 320 165 L 318 167 L 325 167 Q 326 163 320 165 Z M 78 166 Q 75 168 78 169 Q 82 170 81 167 L 78 166 Z M 283 166 Q 283 169 280 168 L 280 176 L 276 186 Q 275 189 278 188 Q 279 193 277 194 Q 274 195 275 192 L 273 192 L 272 195 L 275 196 L 276 200 L 274 201 L 276 201 L 277 203 L 281 191 L 283 180 L 283 166 Z M 331 166 L 330 170 L 328 170 L 326 186 L 324 189 L 325 195 L 331 197 L 330 195 L 331 193 L 331 166 Z M 218 168 L 215 171 Q 212 170 213 173 L 220 170 Q 221 167 218 168 Z M 254 168 L 252 170 L 254 170 L 254 168 Z M 48 169 L 49 171 Q 50 168 48 169 Z M 288 169 L 288 178 L 285 186 L 286 188 L 284 193 L 283 205 L 281 210 L 285 209 L 287 210 L 299 208 L 300 211 L 301 207 L 291 207 L 290 208 Q 282 210 283 206 L 295 204 Q 299 205 298 202 L 292 202 L 291 203 Q 284 205 285 201 L 289 200 L 296 200 L 296 197 L 294 198 L 285 198 Q 288 194 295 195 L 295 191 L 294 194 L 288 194 L 286 193 Q 287 190 289 192 L 294 191 L 289 189 Q 288 185 293 187 L 293 185 L 288 183 L 290 180 Q 293 179 292 183 L 293 183 L 292 179 L 292 169 L 288 169 Z M 21 171 L 21 179 L 23 178 L 21 171 Z M 77 171 L 75 173 L 80 174 Q 82 175 81 172 L 77 171 Z M 221 172 L 214 177 L 215 178 L 222 174 Q 223 171 221 172 Z M 255 172 L 252 176 L 256 174 Q 257 171 255 172 Z M 72 174 L 70 176 L 56 179 L 54 179 L 61 198 L 63 199 Q 62 196 65 197 L 65 194 L 68 190 L 72 177 L 72 174 Z M 76 176 L 76 177 L 78 177 L 76 176 Z M 80 176 L 80 178 Q 81 181 79 180 L 76 179 L 74 180 Q 76 183 81 181 L 81 176 L 80 176 Z M 223 176 L 219 179 Q 216 178 217 181 L 224 178 Q 225 175 223 176 Z M 256 177 L 253 181 L 257 179 Q 258 176 256 177 Z M 311 178 L 308 179 Q 306 186 310 188 L 308 203 L 302 215 Q 301 218 304 219 L 309 218 L 311 219 Q 314 218 313 221 L 302 221 L 301 220 Q 297 222 298 228 L 300 227 L 322 228 L 321 223 L 319 221 L 318 214 L 319 211 L 316 198 L 317 188 L 315 187 L 315 188 L 311 188 L 309 184 L 312 179 L 311 178 Z M 225 180 L 224 182 L 226 181 L 225 180 Z M 320 180 L 318 182 L 319 186 Q 323 187 322 185 L 323 184 L 320 180 Z M 52 181 L 50 183 L 52 183 L 52 181 Z M 258 181 L 254 185 L 255 186 L 259 183 Q 260 180 258 181 Z M 74 182 Q 72 192 66 197 L 73 201 L 76 199 L 75 195 L 77 195 Q 79 196 78 192 Q 73 193 72 191 L 73 189 L 78 189 L 79 192 L 80 186 Q 82 184 80 183 L 78 184 L 74 182 Z M 222 182 L 221 184 L 223 183 L 222 182 Z M 11 184 Q 10 187 14 186 Q 16 191 11 189 L 12 192 L 14 191 L 15 194 L 10 196 L 12 198 L 14 197 Q 16 201 12 200 L 9 206 L 7 223 L 22 224 L 23 225 L 26 224 Q 27 220 24 221 L 20 212 Q 20 205 17 201 L 17 196 L 17 194 L 16 190 Q 19 181 11 184 Z M 296 184 L 302 206 L 304 201 L 306 188 Q 305 185 304 187 L 296 184 Z M 260 185 L 255 190 L 257 191 L 261 187 Q 262 184 260 185 Z M 51 186 L 51 188 L 53 187 L 51 186 Z M 55 189 L 54 190 Q 51 189 52 192 Q 54 195 55 192 L 55 189 Z M 321 190 L 320 198 L 321 198 L 321 190 Z M 100 194 L 99 197 L 92 197 L 82 200 L 80 199 Q 77 198 78 202 L 101 198 L 100 194 Z M 86 195 L 86 196 L 89 196 L 86 195 Z M 272 195 L 269 199 L 272 200 L 274 200 L 272 195 Z M 20 196 L 21 201 L 23 198 Q 24 194 20 196 Z M 57 197 L 54 198 L 55 201 L 55 199 L 58 198 L 57 197 Z M 60 199 L 55 202 L 58 211 L 65 208 L 63 204 L 62 206 Q 57 208 58 204 L 61 203 L 60 199 Z M 268 200 L 274 209 L 276 206 Q 275 203 274 205 L 268 200 Z M 327 200 L 326 205 L 329 216 L 331 217 Q 332 212 330 211 L 330 204 L 328 203 L 327 200 Z M 22 201 L 21 204 L 22 204 L 22 201 Z M 25 204 L 22 205 Q 21 208 25 207 Q 28 206 25 204 Z M 146 207 L 145 212 L 146 212 L 146 207 Z M 229 207 L 224 217 L 216 223 L 223 226 L 226 219 L 229 217 Q 230 222 227 224 L 228 225 L 231 224 L 231 217 L 232 216 L 231 213 Q 233 206 229 207 Z M 27 208 L 23 211 L 24 213 L 28 211 L 27 208 Z M 29 213 L 27 216 L 30 215 L 29 213 Z M 62 213 L 60 214 L 59 216 L 63 214 L 62 213 Z M 79 213 L 74 215 L 75 218 Q 77 224 74 226 L 74 235 L 75 236 L 74 248 L 76 249 Q 77 244 75 243 L 76 241 L 76 223 L 79 220 L 79 213 Z M 38 215 Q 37 218 40 217 L 39 223 L 30 225 L 27 229 L 9 227 L 10 244 L 19 237 L 30 233 L 37 227 L 43 224 L 47 224 L 56 219 L 58 216 L 55 217 L 46 215 L 38 215 Z M 28 218 L 28 222 L 33 220 Q 32 217 28 218 Z M 326 218 L 325 221 L 326 221 L 326 218 Z M 64 219 L 61 221 L 64 223 L 63 225 L 63 234 L 62 234 L 62 236 Q 61 238 64 237 L 65 244 L 65 265 L 66 268 L 65 271 L 66 273 L 66 343 L 65 344 L 66 346 L 65 348 L 65 350 L 66 352 L 66 411 L 65 412 L 66 421 L 75 409 L 71 407 L 71 377 L 72 376 L 71 373 L 71 371 L 72 367 L 71 365 L 71 329 L 71 327 L 70 323 L 70 321 L 71 319 L 70 315 L 70 286 L 69 285 L 69 254 L 68 253 Q 66 246 69 245 L 66 221 L 64 219 Z M 141 219 Q 139 229 133 236 L 134 237 Q 138 232 146 231 L 145 225 Q 142 224 143 227 Q 142 230 140 227 L 141 225 L 141 219 Z M 60 221 L 58 222 Q 54 224 58 226 Q 57 228 60 227 L 61 222 L 60 221 Z M 71 221 L 70 229 L 71 229 L 71 221 Z M 202 223 L 202 225 L 204 224 L 202 223 Z M 282 223 L 277 233 L 277 251 L 278 252 L 277 254 L 277 303 L 276 304 L 276 317 L 275 318 L 273 368 L 273 370 L 273 386 L 274 387 L 272 391 L 273 394 L 273 396 L 272 413 L 272 415 L 273 419 L 273 421 Q 275 426 272 428 L 272 440 L 273 441 L 271 449 L 273 450 Q 279 448 281 451 L 282 448 L 276 446 L 274 446 L 274 442 L 281 443 Q 282 445 283 443 L 281 440 Q 276 441 275 439 L 277 436 L 288 438 L 290 438 L 290 434 L 287 436 L 275 435 L 277 431 L 282 432 L 284 429 L 291 429 L 291 427 Q 286 429 277 428 L 279 424 L 282 425 Q 287 427 289 424 L 291 425 L 292 424 L 292 416 L 286 418 L 281 417 L 279 413 L 283 414 Q 288 416 290 413 Q 294 414 293 411 L 290 412 Q 288 409 282 411 Q 277 409 281 407 L 284 408 L 293 407 L 292 405 Q 290 408 284 406 L 281 402 L 287 403 L 292 402 Q 294 403 293 400 Q 285 402 282 398 L 280 398 L 279 394 Q 285 393 288 397 Q 292 398 293 396 Q 292 393 291 395 L 287 394 L 285 394 L 285 392 L 278 392 L 281 388 Q 286 386 288 390 L 288 391 L 293 391 L 294 389 Q 293 386 292 388 Q 288 385 282 386 L 280 386 L 279 384 Q 280 381 284 382 L 286 382 L 290 384 Q 295 386 294 382 L 289 382 L 287 380 Q 280 381 277 379 L 278 376 L 288 377 Q 290 372 284 374 L 282 374 L 278 373 L 280 370 L 290 371 L 289 370 L 289 367 L 281 367 L 280 366 L 284 363 Q 289 362 291 364 Q 294 363 293 366 L 291 367 L 291 368 L 294 368 L 294 362 L 281 361 L 283 358 L 294 359 Q 295 356 292 357 Q 291 353 294 354 Q 295 350 292 351 L 292 347 L 285 347 L 285 344 L 294 343 L 285 342 L 286 340 L 285 338 L 286 335 L 295 335 Q 296 332 294 333 L 291 334 L 285 333 L 285 330 L 294 330 Q 295 332 296 330 L 293 328 L 286 329 L 284 325 L 294 325 L 295 326 L 296 323 L 295 323 L 285 323 L 283 322 Q 285 319 290 320 Q 285 320 283 318 L 285 315 L 296 317 L 297 314 L 289 313 L 284 314 L 282 312 Q 283 309 288 310 L 288 309 Q 285 310 286 306 L 288 306 L 287 302 L 293 301 L 296 302 Q 298 303 297 300 L 293 299 L 292 300 L 285 300 L 284 298 L 287 296 Q 295 294 298 298 L 298 297 L 298 295 L 294 294 Q 292 289 298 291 Q 299 288 295 289 L 293 286 L 283 285 L 285 282 L 291 284 Q 293 285 292 282 L 296 281 Q 299 280 300 283 L 296 286 L 299 286 L 298 289 L 300 289 L 301 299 L 302 299 L 302 287 L 304 286 L 317 268 L 320 261 L 317 258 L 317 260 L 316 262 L 312 261 L 310 261 L 313 266 L 310 265 Q 308 263 307 266 L 308 269 L 306 270 L 303 269 L 305 265 L 304 260 L 305 258 Q 301 254 303 246 L 301 244 L 302 241 L 301 234 L 304 234 L 304 239 Q 312 238 316 242 L 316 240 L 308 236 L 306 232 L 314 235 L 329 247 L 331 250 L 332 247 L 332 245 L 331 243 L 331 241 L 332 239 L 331 238 L 331 227 L 328 232 L 300 231 L 298 229 L 296 230 Q 297 232 295 231 Q 293 229 292 232 L 282 230 Q 281 226 284 227 L 282 223 Z M 275 224 L 275 225 L 277 225 L 275 224 Z M 227 225 L 223 232 L 218 236 L 221 239 L 227 227 L 227 225 Z M 80 227 L 80 248 L 82 247 L 84 248 L 81 236 L 81 234 L 80 227 Z M 194 227 Q 192 230 195 229 L 194 227 Z M 231 227 L 225 237 L 226 238 L 231 237 L 229 233 Q 228 230 231 231 L 231 227 Z M 54 228 L 53 237 L 54 237 L 54 228 Z M 43 230 L 40 232 L 46 232 Q 47 229 43 230 Z M 57 231 Q 56 236 60 234 Q 62 230 57 231 Z M 37 232 L 33 240 L 33 252 L 34 253 L 34 260 L 31 260 L 31 258 L 29 264 L 30 267 L 29 270 L 31 271 Q 33 270 31 269 Q 30 264 33 263 L 34 265 L 34 269 L 38 279 L 38 282 L 32 283 Q 29 282 30 285 Q 38 286 43 283 L 44 286 Q 40 287 43 289 L 42 292 L 45 292 L 46 296 L 32 297 L 33 299 Q 40 300 43 297 Q 47 296 45 301 L 41 302 Q 46 301 47 304 Q 48 306 46 305 L 48 309 Q 47 311 42 311 L 44 311 L 44 315 L 33 315 L 32 317 L 42 317 L 43 316 L 44 320 L 39 321 L 34 320 L 32 324 L 38 323 L 43 323 L 43 326 L 42 327 Q 35 326 32 329 L 40 329 Q 41 327 42 330 Q 43 333 40 332 L 41 335 L 40 337 L 38 338 L 40 338 L 39 342 L 37 341 L 35 341 L 35 345 L 40 344 L 41 347 L 38 348 Q 34 349 35 353 L 32 351 L 31 358 L 36 361 L 39 359 L 41 361 L 41 363 L 36 363 L 43 375 L 43 378 L 41 377 L 39 377 L 31 377 L 30 379 L 41 378 L 41 382 L 30 382 L 31 388 L 35 386 L 37 387 L 39 386 L 41 387 Q 43 386 42 390 L 37 389 L 33 390 Q 28 389 30 394 L 33 393 L 35 394 L 41 393 L 40 397 L 40 400 L 32 400 L 30 404 L 36 403 Q 43 401 41 406 Q 38 408 31 407 L 29 409 L 33 410 L 41 409 L 40 413 L 30 413 L 29 415 Q 37 416 41 414 L 41 418 L 29 418 L 30 421 L 39 419 L 41 421 L 40 423 L 41 425 L 39 428 L 41 428 Q 43 432 39 431 L 37 431 Q 35 433 31 432 L 31 433 L 36 433 L 36 435 L 38 435 L 40 435 L 40 438 L 37 439 L 30 439 L 29 441 L 36 440 L 38 441 L 40 440 L 40 443 L 38 444 L 35 443 L 29 444 L 29 452 L 31 453 L 36 451 Q 40 450 41 453 L 40 454 L 30 455 L 32 458 L 39 456 Q 43 455 41 459 L 33 461 L 31 461 L 31 465 Q 34 462 42 463 L 45 460 Q 44 457 47 458 L 48 452 L 48 425 L 47 424 L 48 421 L 48 386 L 49 385 L 50 370 L 50 368 L 49 366 L 50 363 L 49 360 L 49 343 L 50 342 L 50 292 L 49 291 L 49 277 L 48 276 L 49 267 L 52 265 L 52 274 L 51 275 Q 54 278 52 286 L 53 287 L 53 307 L 54 308 L 53 310 L 54 324 L 55 317 L 55 281 L 54 280 L 54 264 L 55 263 L 54 259 L 55 257 L 54 256 L 54 238 L 51 242 L 46 263 L 41 270 L 37 271 Q 37 265 42 263 L 48 241 Q 47 238 50 239 Q 52 234 48 235 L 40 257 L 37 256 L 38 249 L 37 249 L 35 246 L 39 248 L 41 243 L 41 241 L 37 242 Q 35 237 41 239 L 42 241 L 44 235 L 37 236 L 38 233 L 37 232 Z M 194 235 L 195 237 Q 196 234 194 235 Z M 58 237 Q 56 240 59 239 L 58 237 Z M 225 238 L 222 243 L 223 245 Q 224 242 228 243 L 225 238 Z M 62 239 L 61 242 L 62 242 L 62 239 Z M 22 240 L 21 241 Q 18 240 19 243 L 22 242 L 22 240 Z M 18 242 L 16 244 Q 15 246 18 245 L 18 242 Z M 308 243 L 307 248 L 309 247 L 322 250 L 324 250 Q 327 249 325 253 L 327 253 L 327 251 L 322 245 L 319 247 Q 314 243 308 243 Z M 25 244 L 18 246 Q 20 250 22 247 L 24 248 L 26 247 L 25 244 Z M 224 245 L 219 251 L 221 258 L 221 255 L 230 254 L 231 255 L 231 253 L 222 253 L 222 249 L 230 249 L 231 246 L 224 247 L 224 245 Z M 9 247 L 9 289 L 9 291 L 10 293 L 9 296 L 10 299 L 9 301 Q 8 304 11 303 Q 12 306 9 305 Q 7 310 11 309 Q 12 313 9 312 Q 8 316 11 315 L 9 319 L 11 319 Q 12 323 10 322 L 10 324 L 9 327 Q 8 331 10 333 L 9 335 L 10 339 L 9 341 L 10 343 L 10 365 L 9 366 L 11 369 L 9 372 L 11 375 L 9 378 Q 8 380 11 379 L 9 385 L 12 387 Q 13 390 9 388 L 9 391 Q 13 389 12 393 L 9 394 Q 8 397 11 396 Q 12 400 9 399 Q 8 402 12 401 Q 14 406 9 404 L 11 408 Q 12 410 9 409 L 11 413 Q 12 415 9 414 L 11 418 Q 12 421 9 420 L 11 425 Q 7 427 11 429 L 9 433 Q 13 435 9 437 Q 8 440 11 439 L 12 441 L 9 444 L 11 445 Q 13 444 12 447 L 9 449 L 11 449 Q 12 453 9 452 L 9 455 Q 13 453 12 457 L 9 458 Q 7 463 13 461 Q 14 465 11 464 L 9 468 L 11 468 Q 14 470 11 471 Q 8 470 9 473 L 14 472 L 12 476 Q 9 475 10 478 L 14 476 Q 18 477 16 473 L 16 471 L 15 469 L 18 465 L 16 464 L 14 463 L 13 455 L 13 453 L 14 451 L 13 446 L 15 440 L 14 423 L 13 422 L 14 419 L 13 418 L 13 384 L 12 383 L 12 372 L 13 371 L 13 361 L 14 360 L 14 346 L 15 345 L 15 335 L 16 334 L 15 299 L 14 298 L 14 287 L 15 286 L 15 274 Q 12 274 13 268 L 19 265 L 19 272 L 20 273 L 20 289 L 19 290 L 19 322 L 21 323 L 22 318 L 22 307 L 21 306 L 22 305 L 22 293 L 23 291 Q 20 289 25 287 L 26 294 L 26 289 Q 28 287 25 286 L 25 265 L 23 264 L 21 264 Q 17 265 18 262 L 21 261 L 25 262 L 26 259 L 18 261 L 15 257 L 16 252 L 12 247 L 9 247 Z M 307 248 Q 305 253 308 255 L 311 253 Q 312 250 309 251 L 307 248 Z M 29 249 L 27 251 L 30 251 L 29 249 Z M 58 249 Q 56 256 62 254 Q 64 247 58 249 Z M 84 250 L 79 252 L 76 251 Q 73 253 76 254 L 80 253 L 83 255 Q 84 259 80 257 L 78 257 L 76 258 L 74 261 L 81 260 Q 85 259 83 264 L 73 265 L 73 266 L 82 266 L 82 269 L 72 270 Q 70 274 75 273 L 77 273 L 82 272 L 81 276 L 77 275 L 75 276 Q 70 275 72 279 L 75 278 L 82 278 L 82 281 Q 81 283 80 281 L 73 282 L 73 285 L 78 284 Q 85 282 83 287 L 77 288 Q 71 286 73 292 L 78 291 Q 82 290 83 293 Q 81 297 80 294 L 77 295 Q 72 293 73 297 Q 74 299 76 297 Q 81 295 83 299 L 82 300 L 73 301 L 75 304 L 82 302 L 82 306 L 73 306 L 73 314 L 75 315 L 79 314 Q 85 313 84 316 L 82 318 Q 77 317 76 319 Q 73 318 74 322 L 77 321 Q 82 320 83 323 L 82 325 L 79 324 L 77 325 Q 73 324 74 327 L 81 326 L 80 330 L 74 329 L 74 333 L 81 333 L 81 336 L 74 336 L 74 338 L 80 338 L 80 341 Q 83 340 82 344 Q 80 347 75 345 L 76 347 L 82 347 L 82 350 L 74 349 L 74 353 L 83 353 L 82 356 L 75 356 L 74 358 L 82 359 L 81 361 L 77 362 L 81 362 L 81 365 L 75 365 L 75 367 L 81 367 L 80 370 Q 74 368 75 372 L 80 371 L 81 374 Q 79 376 74 376 L 78 377 L 80 376 L 80 379 L 74 382 Q 75 384 80 383 L 79 386 Q 73 384 74 389 Q 75 391 77 389 L 81 390 Q 83 389 81 388 L 82 386 L 82 371 L 83 370 L 83 358 L 85 357 L 85 355 L 84 350 L 84 336 L 85 335 L 84 333 L 85 331 L 84 250 Z M 20 251 L 20 252 L 23 252 L 20 251 Z M 164 252 L 155 254 L 153 257 L 156 255 L 164 256 Q 165 259 162 261 Q 163 265 158 263 L 158 266 L 156 265 L 157 262 L 154 261 L 155 259 L 153 257 L 151 261 L 152 266 L 150 275 L 154 280 L 154 282 L 162 283 L 163 282 L 166 285 Q 170 286 171 282 L 173 283 Q 179 282 181 277 L 177 274 L 179 267 Q 180 260 178 258 L 175 263 L 177 263 L 177 265 L 172 262 L 168 264 Q 169 266 167 265 L 167 264 L 165 263 L 169 262 L 166 260 L 167 256 L 170 255 L 174 256 L 174 255 Q 173 252 170 253 L 168 254 Q 169 250 164 252 Z M 209 252 L 208 256 L 209 256 L 209 252 Z M 315 252 L 315 253 L 319 255 Q 322 256 321 253 L 315 252 Z M 331 253 L 328 255 L 331 256 Q 334 255 331 253 Z M 25 254 L 24 255 Q 19 254 20 257 L 25 256 L 25 254 Z M 176 254 L 175 259 L 177 258 L 176 254 Z M 190 256 L 188 257 L 188 258 L 191 257 L 190 256 Z M 314 256 L 313 258 L 316 258 L 314 256 Z M 58 257 Q 56 261 61 260 L 62 261 Q 64 255 58 257 Z M 310 257 L 309 260 L 310 260 L 310 257 Z M 325 257 L 323 259 L 324 262 L 325 259 L 325 257 Z M 231 258 L 230 259 L 221 259 L 217 265 L 218 269 Q 219 274 215 274 L 211 272 L 205 274 L 204 271 L 202 272 L 200 270 L 198 271 L 197 270 L 196 277 L 194 279 Q 207 281 215 289 L 221 296 L 229 307 L 230 304 Q 231 299 229 298 L 230 295 L 228 296 Q 224 297 225 295 L 225 293 L 223 290 Q 225 287 230 288 L 230 282 L 227 286 Q 228 289 224 287 L 227 279 L 225 280 L 220 278 L 220 274 L 227 274 L 229 276 L 229 273 L 223 273 L 221 270 Q 224 268 220 267 L 222 265 L 221 263 Q 224 259 231 260 L 231 258 Z M 268 258 L 269 262 Q 273 263 274 261 L 274 258 L 268 258 Z M 194 261 Q 190 262 192 269 L 194 270 L 194 261 Z M 199 261 Q 196 262 197 267 Q 200 268 199 265 L 199 263 L 199 261 Z M 323 262 L 319 268 Q 318 271 321 270 L 323 267 L 323 262 Z M 58 263 Q 57 266 62 265 L 63 263 L 61 264 L 58 263 Z M 330 263 Q 328 268 332 267 Q 334 262 330 263 Z M 59 268 L 59 269 L 62 269 L 59 268 Z M 230 268 L 231 270 Q 232 267 230 268 Z M 325 270 L 324 273 L 325 273 L 325 270 Z M 330 270 L 330 277 L 329 278 Q 328 280 332 279 L 333 277 L 332 275 Q 334 269 330 270 Z M 318 271 L 311 282 L 305 286 L 306 289 Q 308 294 305 296 L 305 336 L 306 337 L 304 352 L 304 354 Q 306 359 303 361 L 304 365 L 303 367 L 303 387 L 302 388 L 303 392 L 302 414 L 301 415 L 301 460 Q 303 462 310 461 Q 311 464 314 463 L 315 454 L 313 455 L 306 454 L 304 450 L 315 452 L 315 449 L 305 448 L 307 444 L 312 446 Q 318 448 316 442 L 315 442 L 311 441 L 306 442 Q 302 440 307 438 L 316 439 L 317 436 L 314 436 L 305 436 L 304 435 Q 305 431 312 432 L 314 432 L 318 433 L 318 430 L 305 430 L 308 426 L 317 427 Q 319 426 318 422 L 308 424 L 307 420 L 318 419 L 318 417 L 307 417 L 306 416 L 308 414 Q 312 415 314 413 L 317 414 Q 319 415 318 412 L 307 412 L 308 409 L 312 408 L 313 409 L 319 409 L 319 393 L 318 391 L 316 392 L 314 391 L 307 392 L 309 388 L 317 388 L 318 389 L 319 386 L 313 386 L 312 385 L 307 386 L 307 383 L 319 383 L 319 381 L 310 381 L 309 382 L 308 379 L 311 378 Q 317 376 319 379 L 319 377 L 318 377 L 314 376 L 309 377 L 310 374 L 319 374 L 319 370 L 313 371 Q 307 373 309 368 L 319 367 L 319 364 L 309 364 L 309 361 L 314 362 L 317 361 L 319 362 L 319 359 L 312 359 L 311 360 L 309 356 L 311 354 Q 315 355 317 353 Q 320 354 319 351 L 310 352 L 313 348 L 320 348 L 320 346 L 308 345 L 310 342 L 320 343 L 320 340 L 309 340 L 311 337 L 319 337 L 320 338 L 321 335 L 314 335 L 313 336 Q 309 337 310 335 L 312 333 L 321 332 L 320 330 L 310 330 L 312 327 L 321 327 L 321 325 L 322 323 Q 317 322 316 324 L 310 323 L 312 319 Q 313 322 320 320 L 321 321 L 321 318 L 313 318 L 312 317 L 316 314 L 318 314 L 321 315 L 321 312 L 312 312 L 313 309 L 322 309 L 322 306 L 318 307 L 312 305 Q 313 302 318 303 L 320 303 L 322 304 Q 325 303 322 301 Q 317 300 316 302 L 313 301 L 316 299 Q 318 298 316 297 L 318 293 Q 319 288 314 290 Q 312 292 311 290 L 312 287 L 311 283 L 320 282 L 321 281 L 317 280 Q 315 275 319 276 L 318 271 Z M 59 272 L 57 275 L 62 274 L 63 275 Q 64 270 59 272 Z M 147 274 L 145 276 L 147 276 L 147 274 Z M 232 276 L 230 278 L 231 280 L 232 278 L 232 276 Z M 31 278 L 31 279 L 33 279 L 31 278 Z M 60 278 L 58 279 L 58 280 L 63 279 L 60 278 Z M 141 279 Q 139 282 134 281 L 125 286 Q 120 286 121 292 L 113 298 L 105 307 L 103 312 L 105 311 Q 109 310 108 313 L 103 314 L 103 312 L 101 316 L 111 317 L 118 325 Q 121 324 119 328 L 116 328 L 112 326 Q 111 321 107 318 L 104 319 L 101 318 L 98 322 L 98 323 L 102 323 L 101 326 L 98 325 Q 94 326 95 330 L 103 331 L 111 339 Q 112 342 109 341 L 105 337 L 103 334 L 95 332 L 91 340 L 95 338 L 102 338 L 102 340 Q 101 342 100 340 Q 92 339 90 344 L 91 347 L 95 345 L 99 346 Q 102 345 101 348 L 96 347 L 91 349 L 89 350 L 89 360 L 92 361 L 91 363 L 94 364 L 93 361 L 94 356 L 97 353 Q 101 354 99 350 Q 104 348 103 352 L 100 353 L 100 355 L 100 357 L 105 357 L 106 355 L 102 345 Q 104 341 109 342 L 112 348 L 113 346 L 112 343 L 116 340 L 114 337 L 118 333 L 126 329 Q 131 328 133 330 L 135 321 Q 136 313 133 310 L 134 308 L 133 307 L 127 297 L 129 293 L 134 303 Q 132 309 137 307 L 138 312 L 139 312 Q 137 305 142 307 L 143 310 L 142 316 Q 140 317 143 318 L 144 313 L 144 311 L 148 298 L 151 294 L 152 297 L 148 306 Q 149 310 147 312 L 148 315 L 153 302 Q 152 299 155 300 L 149 317 L 148 328 L 147 329 L 148 335 L 159 340 L 160 339 L 161 324 L 164 315 Q 163 312 166 313 L 162 331 L 164 336 L 166 335 L 168 332 Q 172 331 170 335 L 175 334 Q 181 333 184 336 L 187 336 L 185 332 L 185 323 L 184 322 L 185 318 L 181 301 L 184 300 L 187 310 L 188 327 L 189 328 L 189 333 Q 193 331 192 336 Q 190 339 189 335 L 187 337 L 192 339 L 194 338 Q 196 337 194 336 Q 196 329 192 330 L 192 327 L 196 320 L 199 322 L 199 321 Q 198 317 194 318 L 194 315 L 193 322 Q 192 325 190 322 Q 189 316 192 315 L 190 313 Q 191 306 188 304 Q 186 298 190 299 L 192 308 L 195 307 L 196 310 L 199 309 Q 201 310 199 312 L 201 316 L 200 320 L 201 324 L 200 328 Q 204 327 205 330 L 205 331 L 197 331 L 197 334 L 201 336 L 202 333 L 214 330 L 220 326 Q 223 325 222 328 L 216 332 L 210 333 Q 207 335 210 336 L 218 334 Q 221 329 227 329 Q 228 332 225 331 L 222 335 L 215 337 L 213 337 L 213 340 Q 217 339 216 342 L 212 341 L 211 344 L 215 345 Q 218 344 217 340 Q 218 337 223 338 Q 225 344 228 339 Q 231 338 232 341 L 227 341 L 224 346 Q 223 349 226 350 L 227 350 L 227 345 L 236 343 L 240 339 L 240 342 L 243 344 L 242 340 L 243 338 L 235 325 L 232 326 Q 228 327 229 324 L 233 323 L 232 319 L 229 321 Q 226 322 227 320 L 231 318 L 229 313 L 225 314 L 226 312 L 224 309 Q 225 306 222 307 Q 218 310 218 317 L 212 322 L 210 323 L 215 317 Q 215 310 218 308 L 222 306 L 220 300 L 218 301 L 217 300 L 213 305 L 213 309 Q 211 313 209 310 Q 211 301 217 297 Q 211 288 201 284 L 186 279 L 185 288 Q 184 292 179 291 L 177 295 Q 176 297 175 295 L 172 297 L 174 304 Q 175 310 172 313 L 172 314 L 167 314 L 165 307 L 158 301 Q 155 302 156 299 L 160 297 Q 161 293 159 292 L 155 292 Q 155 289 151 290 L 150 288 L 151 283 L 149 279 L 146 280 L 141 279 Z M 181 280 L 179 284 Q 177 288 181 287 L 180 286 L 182 283 L 181 280 Z M 329 281 Q 327 284 328 291 L 330 290 L 332 291 L 332 287 L 331 287 L 329 284 Q 333 285 334 283 L 329 281 Z M 60 283 L 58 287 L 62 286 L 63 287 Q 65 281 60 283 Z M 155 284 L 155 287 Q 158 286 155 284 Z M 174 284 L 168 287 L 168 288 Q 173 289 175 286 Q 176 283 174 284 Z M 318 285 L 313 287 L 319 287 Q 320 284 318 285 Z M 158 286 L 156 290 L 158 289 L 158 286 Z M 161 287 Q 158 292 162 291 Q 165 289 161 287 Z M 176 287 Q 175 290 178 289 Q 179 286 176 287 Z M 62 289 L 61 290 Q 56 289 58 293 L 63 295 L 63 290 L 62 289 Z M 172 289 Q 170 292 165 290 L 163 294 L 164 294 Q 163 291 167 292 L 168 294 L 168 292 Q 171 291 170 295 L 171 295 Q 169 290 173 291 L 175 293 L 174 291 Q 175 288 172 289 Z M 322 289 L 323 291 Q 324 288 322 289 Z M 37 292 L 37 293 L 41 293 L 37 292 Z M 322 293 Q 320 296 323 295 L 322 293 Z M 328 293 L 327 297 L 328 301 L 327 302 L 327 312 L 326 313 L 326 324 L 325 325 L 324 354 L 323 355 L 323 363 L 324 364 L 323 368 L 323 388 L 322 389 Q 321 394 323 396 L 322 398 L 323 400 L 322 415 L 321 416 L 321 436 L 318 449 L 319 451 L 319 453 L 318 454 L 318 470 L 317 471 Q 316 477 321 478 Q 320 473 323 472 L 333 473 Q 334 469 332 470 Q 330 472 329 469 L 328 471 L 325 470 L 322 471 L 321 469 L 327 467 L 329 468 Q 333 469 334 467 L 333 465 L 326 464 L 324 465 L 326 460 L 326 462 L 329 463 Q 333 464 334 462 L 333 460 Q 334 456 329 458 L 327 459 Q 326 454 331 456 L 334 455 Q 335 451 331 453 Q 329 455 328 453 Q 329 450 334 451 L 334 446 L 332 446 L 334 443 Q 336 437 330 439 Q 328 441 327 439 Q 326 436 333 437 L 334 435 L 329 436 L 327 433 Q 332 434 334 432 L 329 431 L 331 428 L 334 429 L 334 426 L 329 426 L 329 424 L 332 423 Q 335 424 334 422 L 331 421 Q 330 417 334 419 L 334 415 L 332 415 Q 334 409 330 410 Q 328 405 334 407 Q 335 404 333 405 L 330 406 Q 327 407 328 403 Q 333 404 334 402 L 334 400 L 330 401 Q 326 400 327 395 L 334 394 L 334 384 Q 333 387 328 386 L 326 383 L 333 382 L 334 383 L 334 378 L 328 378 L 328 376 L 334 376 L 334 370 L 333 370 Q 328 371 330 367 L 334 368 L 335 361 L 334 356 L 331 355 Q 330 352 334 353 L 334 352 L 333 352 L 330 351 Q 329 348 332 349 L 334 349 L 334 347 L 330 347 L 330 346 L 334 344 L 334 343 L 328 343 L 328 341 L 330 341 L 334 340 L 334 337 L 327 337 L 329 334 L 331 335 Q 336 337 334 331 L 330 332 L 328 329 L 332 329 L 333 328 L 331 326 Q 328 327 329 325 L 333 323 L 333 321 L 328 321 L 328 319 L 332 318 Q 334 319 333 316 L 332 316 L 328 315 L 328 313 L 333 313 L 333 294 L 328 293 Z M 168 295 L 166 297 Q 165 299 168 298 L 168 295 Z M 26 296 L 25 308 L 26 308 L 26 296 Z M 162 297 L 160 301 L 164 302 L 165 302 L 162 297 Z M 320 297 Q 319 300 323 299 Q 324 296 320 297 Z M 58 298 L 58 300 L 61 301 Q 63 300 62 304 L 58 305 Q 56 310 62 308 L 62 312 Q 57 310 58 315 L 60 314 L 63 315 L 63 299 L 58 298 Z M 290 305 L 290 306 L 297 306 L 290 305 Z M 293 309 Q 292 311 297 311 Q 298 307 293 309 Z M 88 312 L 88 314 L 94 313 L 88 312 Z M 26 313 L 25 319 L 26 319 L 26 313 Z M 301 313 L 300 324 L 299 325 Q 298 329 300 331 L 299 332 L 299 347 L 298 348 L 299 350 L 297 361 L 298 363 L 297 366 L 297 394 L 297 396 Q 295 403 296 415 L 295 416 L 294 447 L 298 446 L 297 441 L 298 409 L 298 407 L 299 405 L 298 403 L 301 391 L 301 381 L 301 379 L 300 376 L 301 375 L 301 348 L 302 347 L 302 325 L 301 324 L 301 313 Z M 60 318 L 57 320 L 63 321 L 63 319 L 62 319 L 60 318 Z M 27 319 L 26 333 L 25 334 L 26 348 L 26 339 L 27 338 L 27 319 Z M 88 320 L 88 323 L 93 322 L 88 320 Z M 138 322 L 138 324 L 140 323 L 138 322 Z M 57 324 L 57 326 Q 58 328 62 327 L 63 328 L 63 324 L 57 324 Z M 145 324 L 144 327 L 145 327 L 145 324 Z M 21 325 L 18 338 L 18 364 L 16 365 L 18 365 L 17 371 L 18 374 L 17 377 L 19 384 Q 21 389 18 391 L 20 418 L 20 397 L 21 396 L 21 371 L 20 370 L 20 343 L 21 342 L 20 340 L 21 335 L 21 325 Z M 54 325 L 53 344 L 52 345 L 52 387 L 51 388 L 51 427 L 52 428 L 51 430 L 53 433 Q 54 435 51 434 Q 50 437 53 436 L 51 440 L 52 442 L 51 445 Q 50 448 53 447 L 54 445 L 54 417 L 54 415 L 55 414 L 55 387 L 56 386 L 55 385 L 54 354 L 53 353 L 54 351 L 54 325 Z M 91 325 L 88 326 L 89 334 L 89 333 L 89 331 L 91 327 L 91 325 Z M 141 328 L 140 332 Q 141 335 145 334 Q 146 331 143 332 L 141 328 Z M 63 330 L 57 331 L 57 334 L 62 334 L 62 337 Q 61 339 57 338 L 57 341 L 62 341 L 62 344 L 63 344 L 63 330 Z M 126 331 Q 124 336 118 335 L 118 336 Q 124 337 126 333 L 129 334 L 133 333 L 126 331 Z M 31 332 L 32 334 L 39 334 L 36 332 L 34 333 L 31 332 Z M 136 335 L 134 337 L 136 337 L 136 338 L 133 336 L 129 337 L 129 338 L 133 338 Q 131 343 137 341 L 138 338 L 140 342 L 132 346 Q 129 345 130 348 L 140 344 Q 146 346 148 343 L 143 336 Q 140 335 141 338 L 139 338 L 140 336 L 136 335 Z M 205 336 L 202 338 L 200 341 L 193 346 L 182 349 L 186 349 L 187 351 L 175 351 L 174 350 Q 169 349 169 352 Q 166 351 168 350 L 166 345 L 168 337 L 165 338 L 162 343 L 164 349 Q 163 352 166 351 L 165 355 L 167 355 L 169 355 Q 171 356 170 354 Q 172 349 175 353 L 177 352 L 177 356 L 179 357 Q 178 352 182 354 Q 181 358 184 359 L 184 357 L 187 355 L 189 359 L 198 358 Q 200 354 208 355 L 213 351 Q 216 350 215 354 L 218 352 Q 221 351 220 354 L 217 356 L 214 355 L 195 361 L 180 361 L 169 356 L 167 361 L 170 359 L 177 364 L 179 363 Q 178 367 181 368 L 181 365 L 190 365 L 192 363 L 199 365 L 207 363 L 209 363 Q 211 364 210 360 L 219 358 L 223 353 L 221 349 Q 219 352 216 351 L 217 348 L 219 345 L 215 347 Q 210 348 209 345 L 208 348 L 206 349 L 204 347 L 202 345 L 198 344 L 201 342 Q 205 341 207 344 L 208 342 L 209 340 L 207 341 L 205 336 Z M 127 337 L 123 340 L 122 342 L 126 341 L 127 339 L 127 337 Z M 176 338 L 176 340 L 175 339 Q 170 338 170 342 L 171 345 L 172 342 L 173 344 L 177 342 L 182 344 L 185 344 L 189 342 L 182 338 L 179 339 L 181 339 L 181 340 L 177 340 Q 178 337 176 338 Z M 289 338 Q 287 340 293 339 Q 294 341 295 339 L 289 338 Z M 117 339 L 118 341 L 120 340 L 117 339 Z M 74 341 L 74 343 L 78 342 L 74 341 Z M 131 341 L 128 342 L 123 348 L 126 348 L 127 345 L 133 342 L 131 341 Z M 121 342 L 117 346 L 118 347 L 120 346 Q 124 344 121 342 Z M 238 343 L 232 345 L 233 350 L 239 346 L 238 343 Z M 57 344 L 57 346 L 57 347 L 61 346 L 61 350 L 60 350 L 58 350 L 57 356 L 60 355 L 62 356 L 63 357 L 62 353 L 63 346 Q 62 343 61 345 L 57 344 Z M 154 344 L 149 346 Q 143 344 144 348 L 146 348 L 142 355 L 139 356 Q 136 361 134 358 L 136 351 L 139 347 L 131 350 L 127 350 L 125 350 Q 120 351 119 348 L 116 348 L 111 351 L 108 350 L 109 353 L 108 358 Q 105 361 100 360 L 101 362 L 103 361 Q 105 362 104 366 L 101 367 L 108 372 L 112 372 L 120 375 L 129 374 L 133 372 L 114 371 L 112 370 L 110 370 L 105 367 L 107 362 L 111 360 L 109 366 L 113 367 L 112 365 L 112 362 L 116 356 Q 115 353 118 354 L 118 358 L 115 363 L 116 364 L 120 361 Q 121 364 118 366 Q 119 368 117 367 Q 115 365 114 368 L 123 368 L 124 369 L 136 368 L 138 367 L 137 365 L 139 362 Q 141 361 140 365 L 142 365 L 141 358 Q 145 356 144 360 L 146 361 L 145 353 Q 150 351 148 359 L 150 358 Q 152 359 151 355 Q 152 352 156 353 L 155 356 Q 154 359 157 358 L 158 356 L 156 350 L 157 346 Q 158 343 154 344 Z M 266 346 L 264 348 L 271 348 Q 272 344 266 346 Z M 239 348 L 232 352 L 236 354 Q 237 356 238 354 Q 237 350 241 352 L 241 350 L 239 348 Z M 25 349 L 25 389 L 25 391 L 24 395 L 25 397 L 24 399 L 24 418 L 23 419 L 24 421 L 24 434 L 24 436 Q 26 441 23 443 Q 22 447 25 448 Q 26 450 23 449 L 23 453 Q 26 452 25 456 L 23 457 L 26 457 L 26 418 L 27 417 Q 25 415 26 411 L 26 409 Q 25 403 27 402 L 27 393 L 26 392 L 27 387 L 27 385 L 26 359 L 26 357 L 25 349 Z M 226 352 L 225 356 L 218 361 Q 215 360 216 363 L 222 365 L 225 364 L 230 358 Q 232 357 231 362 L 223 367 L 220 366 L 219 368 L 223 369 L 230 368 Q 235 364 235 356 L 232 356 L 226 352 Z M 163 355 L 160 356 Q 159 360 164 358 L 165 356 L 163 355 Z M 151 358 L 151 360 L 149 361 L 144 367 L 153 360 Q 154 357 151 358 Z M 57 359 L 57 361 Q 61 360 62 363 L 62 365 L 57 365 Q 55 370 61 368 L 63 368 L 63 360 L 62 360 L 57 359 Z M 30 361 L 29 373 Q 31 376 37 374 L 36 370 L 35 372 L 30 372 L 30 369 L 33 368 L 32 362 L 30 361 Z M 157 361 L 156 363 L 152 366 Q 150 379 155 385 L 161 386 Q 158 382 159 373 L 158 370 Q 159 367 156 368 L 155 372 L 158 382 Q 159 384 157 383 L 154 380 L 153 375 L 154 366 L 157 364 L 157 361 Z M 161 363 L 162 373 L 162 381 L 165 387 L 169 388 L 176 388 L 187 383 L 186 381 L 187 377 L 186 373 L 182 384 Q 179 385 180 379 L 179 379 L 175 378 L 176 371 L 173 370 L 171 375 L 172 380 Q 170 384 175 383 Q 178 385 174 387 L 169 385 L 165 381 L 164 376 Q 163 369 166 367 L 161 363 Z M 86 364 L 86 368 Q 90 367 89 370 L 85 371 Q 84 376 88 374 Q 90 379 85 377 L 85 381 L 89 383 L 89 384 L 85 384 L 85 393 L 90 394 L 87 398 L 84 399 Q 78 400 76 397 L 75 400 L 81 401 L 82 400 L 93 400 L 94 399 L 100 399 L 100 402 L 96 404 L 89 402 L 87 402 Q 83 402 82 405 L 83 406 L 90 406 L 90 409 L 82 410 L 86 410 L 85 412 L 76 411 L 73 417 L 89 417 L 90 419 L 89 421 Q 85 419 78 420 L 76 420 L 73 421 L 71 420 L 67 426 L 70 427 L 89 427 L 94 413 Q 101 405 105 395 Q 104 392 107 393 L 107 391 L 115 387 L 116 385 L 124 379 L 125 377 L 122 378 L 113 378 L 104 376 Q 94 373 88 366 Q 89 363 86 364 Z M 212 364 L 210 366 L 213 366 Q 214 363 212 364 Z M 191 366 L 187 368 L 189 370 L 192 368 L 194 369 Q 201 370 204 368 L 191 366 Z M 142 367 L 140 368 L 140 369 L 143 368 L 142 367 Z M 147 368 Q 145 376 149 379 L 149 374 L 149 372 Q 150 367 147 368 Z M 169 369 L 168 371 Q 170 374 171 371 L 169 369 Z M 59 371 Q 56 373 59 374 L 63 373 Q 64 369 59 371 Z M 141 371 L 141 374 Q 144 373 141 371 Z M 290 371 L 292 374 L 294 373 L 294 371 L 290 371 Z M 169 372 L 168 375 L 169 375 L 169 372 Z M 181 373 L 180 378 L 181 378 L 181 373 Z M 190 373 L 190 380 L 193 378 Q 195 371 190 373 Z M 137 374 L 136 378 L 146 382 L 148 382 L 140 376 L 137 376 L 137 374 Z M 196 374 Q 195 378 198 377 Q 199 373 196 374 Z M 59 376 L 58 384 L 63 385 L 63 377 L 62 377 L 59 376 Z M 293 376 L 290 377 L 291 379 L 293 378 L 293 376 Z M 128 378 L 126 381 L 130 380 Q 131 377 128 378 Z M 203 378 L 200 379 L 201 381 L 203 380 L 203 378 Z M 204 380 L 204 382 Q 208 383 209 381 L 204 380 Z M 133 381 L 129 383 L 126 387 Q 123 386 124 390 Q 122 394 117 394 L 115 397 L 123 396 L 128 388 L 134 383 Q 135 380 133 381 Z M 138 381 L 136 384 L 137 385 Q 141 383 138 381 Z M 199 381 L 192 386 L 194 386 L 196 391 Q 195 393 199 392 L 195 386 L 199 384 L 209 402 L 210 402 Q 207 390 201 383 L 199 381 Z M 123 382 L 121 385 L 124 384 Q 125 381 123 382 Z M 208 384 Q 206 387 209 386 L 208 384 Z M 213 384 Q 211 386 214 388 Q 213 391 217 389 L 217 392 L 220 393 Q 219 397 222 400 L 228 403 L 220 389 L 213 384 Z M 141 385 L 142 388 Q 144 389 143 386 L 141 385 Z M 63 386 Q 63 390 58 388 L 58 390 L 62 392 Q 63 396 59 394 Q 58 397 62 396 L 61 400 L 58 399 L 58 401 L 63 401 L 63 386 Z M 191 386 L 184 391 Q 183 394 186 393 L 189 389 L 191 390 L 192 387 L 191 386 Z M 121 387 L 117 388 L 115 391 Q 120 392 121 389 L 121 387 Z M 133 387 L 126 397 Q 124 402 128 401 L 134 390 Q 135 386 133 387 Z M 145 387 Q 144 391 148 392 L 149 388 L 145 387 Z M 210 387 L 208 389 L 210 389 L 210 387 Z M 137 389 L 137 392 L 141 392 L 141 391 L 137 389 Z M 154 389 L 152 392 Q 150 393 153 394 L 157 393 Q 157 400 154 405 Q 152 409 156 408 L 160 397 Q 159 392 163 394 L 161 405 L 158 409 L 159 410 L 160 409 L 171 408 L 180 404 L 177 398 L 177 392 L 158 392 L 154 389 Z M 192 390 L 191 393 L 193 394 L 192 390 Z M 210 390 L 210 394 L 214 402 L 215 402 Q 214 399 218 400 L 218 398 L 214 393 L 210 390 Z M 113 391 L 111 392 L 108 396 L 112 395 L 114 392 L 113 391 Z M 181 391 L 180 395 L 181 395 L 181 391 Z M 75 392 L 74 395 L 75 397 L 75 395 L 78 394 L 82 395 L 82 394 Q 80 390 75 392 Z M 143 392 L 142 395 Q 145 400 147 395 Q 148 390 143 392 Z M 136 393 Q 129 400 127 410 L 132 411 L 133 408 Q 134 405 131 406 Q 130 403 134 404 L 135 399 L 138 394 L 136 393 Z M 187 393 Q 184 394 185 398 L 187 399 Q 186 396 189 397 L 189 395 L 187 393 Z M 198 394 L 192 397 L 196 405 L 199 404 L 201 405 L 199 401 Q 195 402 196 400 L 200 397 Q 203 398 202 396 Q 201 393 198 394 Z M 151 395 L 148 398 L 150 401 L 147 402 L 146 405 L 150 406 Q 153 403 153 397 L 151 395 Z M 34 396 L 34 397 L 37 397 L 34 396 Z M 139 396 L 141 400 Q 143 399 142 402 L 138 401 L 136 404 L 139 404 L 143 407 L 144 400 L 139 396 Z M 182 396 L 181 399 L 182 399 L 182 396 Z M 112 397 L 112 398 L 114 398 L 112 397 Z M 331 397 L 331 398 L 334 398 L 331 397 Z M 119 398 L 115 399 L 106 405 Q 97 410 95 423 L 96 425 L 96 431 L 93 435 L 89 450 L 87 472 L 86 473 Q 84 481 90 483 L 90 481 Q 94 479 93 483 L 94 483 L 94 472 L 92 471 L 93 477 L 89 476 L 90 459 L 92 453 L 91 451 L 93 440 L 96 437 L 98 438 L 97 444 L 98 446 L 99 445 L 99 435 L 102 433 Q 104 443 100 448 Q 99 454 102 456 L 102 471 L 104 474 L 104 487 L 107 488 L 107 470 L 105 462 L 105 454 L 106 453 Q 105 450 108 451 L 107 453 L 107 464 L 109 473 L 109 498 L 107 498 L 106 490 Q 102 489 104 494 L 102 494 L 104 499 L 114 502 L 116 502 L 119 502 L 119 496 L 119 494 L 118 491 L 118 489 L 120 472 L 121 471 L 118 458 L 118 438 L 117 437 L 118 435 L 118 419 Q 120 416 121 419 L 120 421 L 120 450 L 120 452 L 120 458 L 124 458 L 125 453 L 124 450 L 124 448 L 125 446 Q 123 439 127 440 L 126 443 Q 124 448 128 447 Q 129 450 126 449 L 126 453 L 129 455 L 127 455 L 128 459 Q 127 461 126 459 Q 122 458 121 461 Q 120 464 123 465 L 128 464 L 128 466 Q 123 465 122 468 L 122 470 L 127 470 L 127 472 L 124 471 Q 121 472 122 476 L 128 477 L 123 477 L 121 479 L 121 498 L 126 499 Q 132 497 131 501 L 128 500 L 121 500 L 121 503 L 123 504 L 135 505 L 136 506 Q 144 508 147 504 Q 145 498 146 489 L 145 488 L 146 486 L 145 484 L 144 465 L 143 464 L 143 448 L 141 442 L 141 428 L 144 425 L 145 460 Q 146 462 150 461 Q 151 463 152 461 Q 153 458 150 459 L 148 457 L 150 457 L 152 456 L 151 454 L 147 452 L 151 451 L 150 450 Q 152 444 149 445 L 147 446 Q 146 442 150 444 Q 149 438 153 436 Q 155 437 153 439 L 154 456 L 154 458 L 157 491 L 160 498 L 162 496 L 163 485 L 163 483 Q 160 478 161 470 L 158 462 L 158 453 L 157 452 L 157 443 L 158 442 L 151 429 Q 151 434 149 436 L 146 432 L 148 429 L 147 424 L 132 415 L 130 419 L 130 427 L 129 427 L 127 423 L 126 439 L 124 438 L 124 425 L 123 423 L 126 421 L 127 419 L 120 415 Q 116 416 118 412 L 122 410 L 122 408 L 114 408 L 109 415 L 107 425 L 107 450 L 105 450 L 104 448 L 105 420 L 110 409 L 116 406 Q 119 407 118 404 L 119 402 L 111 406 Q 110 403 113 404 L 114 401 L 117 400 Q 120 399 119 402 Q 124 404 123 400 Q 122 397 119 398 Z M 183 399 L 182 402 L 183 402 L 183 399 Z M 189 400 L 187 402 L 189 408 L 194 407 L 192 403 L 189 400 Z M 202 400 L 204 405 L 196 408 L 197 413 Q 191 416 197 419 Q 196 421 199 420 L 199 423 L 189 438 L 191 441 L 190 450 L 196 453 L 196 454 L 191 454 L 191 457 L 194 458 Q 195 461 192 460 L 191 465 L 195 467 L 192 467 L 191 470 L 191 471 L 195 471 L 195 474 L 193 473 L 191 476 L 194 477 Q 195 480 192 479 Q 191 483 194 485 L 192 491 L 191 490 L 186 491 L 187 495 L 184 496 L 185 494 L 184 491 L 179 495 Q 180 498 177 497 L 177 489 L 176 488 L 177 485 L 176 481 L 177 479 L 177 465 L 174 469 L 171 479 L 174 481 L 172 487 L 172 499 L 171 500 L 172 501 L 173 500 L 181 500 Q 186 495 195 495 L 197 483 L 196 481 L 197 480 L 197 469 L 198 468 L 198 440 L 197 440 Q 192 441 191 439 L 192 437 L 198 437 L 198 436 L 195 434 Q 194 431 198 432 L 197 429 L 198 426 L 201 424 L 201 438 L 200 439 L 201 442 L 201 465 L 200 466 L 200 483 L 198 490 L 198 498 L 203 501 L 201 498 L 202 496 Q 203 491 200 492 Q 199 489 202 488 Q 204 482 201 481 L 203 473 L 202 471 L 204 462 L 204 451 L 203 450 L 203 442 L 204 441 L 204 426 L 203 425 L 204 418 L 208 417 Q 211 416 210 412 L 201 419 L 198 416 Q 195 414 200 412 L 201 415 L 203 414 L 201 409 L 205 407 L 206 411 L 208 410 L 205 402 Q 206 399 202 400 Z M 79 402 L 74 403 L 75 407 L 79 404 L 79 402 Z M 124 402 L 123 404 L 120 406 L 124 407 Q 126 408 125 406 Q 128 404 124 402 Z M 211 402 L 211 409 L 213 408 L 211 402 Z M 215 402 L 216 407 Q 217 411 214 410 L 215 416 L 213 416 L 214 421 L 213 473 L 212 474 Q 211 479 213 481 L 212 487 L 206 487 L 204 489 L 205 491 L 208 492 Q 215 491 214 494 L 207 494 L 206 493 L 205 496 L 207 497 L 218 498 L 217 497 L 217 489 L 218 488 L 217 486 L 218 481 L 218 446 L 216 446 L 218 445 L 218 414 L 220 412 L 217 406 L 218 404 Q 219 401 215 402 Z M 229 403 L 229 405 L 228 410 L 231 409 L 232 416 L 233 416 L 233 411 L 231 405 Q 232 402 229 403 Z M 59 404 Q 56 409 62 407 L 61 411 L 58 410 Q 57 414 62 412 L 63 414 L 63 405 L 62 405 L 59 404 Z M 184 404 L 182 406 L 183 409 Q 182 411 186 410 L 184 404 Z M 136 406 Q 136 410 133 412 L 138 413 L 140 410 L 136 406 Z M 144 407 L 147 411 L 149 410 L 144 407 Z M 178 408 L 177 409 Q 172 408 174 412 L 179 411 Q 180 407 178 408 Z M 223 408 Q 220 414 226 412 L 223 408 Z M 125 410 L 123 413 L 126 414 L 127 417 L 129 418 Q 131 412 127 413 L 125 410 Z M 152 410 L 150 413 Q 149 415 152 414 Q 153 417 155 413 L 152 410 Z M 192 410 Q 188 411 189 415 L 193 413 Q 195 414 194 412 L 192 410 Z M 142 412 L 140 416 L 143 417 L 145 414 L 142 412 Z M 159 412 L 154 419 L 154 421 L 153 421 L 151 425 L 154 426 L 160 439 L 158 440 L 161 441 L 162 444 L 167 449 L 166 450 L 168 466 L 170 470 Q 169 472 172 471 L 174 465 Q 175 461 171 463 L 170 458 Q 170 453 173 453 Q 175 456 175 463 L 186 439 L 184 434 L 184 426 L 184 424 Q 183 421 186 422 L 187 427 Q 186 434 189 433 Q 190 427 195 424 L 193 417 L 180 422 L 180 424 L 179 427 L 179 436 L 181 444 Q 182 448 180 447 L 177 443 Q 179 437 176 436 Q 175 426 178 422 L 176 423 L 164 423 L 162 422 L 163 419 Q 165 417 163 416 L 159 425 L 161 426 L 159 430 Q 158 433 156 430 Q 158 424 154 425 Q 153 422 157 423 L 160 415 Q 161 411 159 412 Z M 163 412 L 163 413 L 165 413 L 163 412 Z M 227 412 L 229 415 L 229 414 L 227 412 Z M 184 413 L 185 417 Q 188 418 187 416 L 187 414 L 184 413 Z M 146 414 L 144 419 L 148 421 Q 150 422 149 419 L 151 419 L 151 417 L 146 414 Z M 176 414 L 175 415 Q 170 414 172 420 L 175 421 Q 177 420 175 419 L 177 415 L 176 414 Z M 178 414 L 178 418 L 182 419 Q 184 418 182 417 Q 183 412 178 414 Z M 223 414 L 222 420 L 225 420 Q 226 415 223 414 Z M 59 415 L 57 417 Q 58 419 60 417 L 62 418 L 62 416 L 61 416 L 59 415 Z M 167 416 L 165 418 L 169 420 Q 171 415 167 416 Z M 209 418 L 207 422 L 209 422 Q 210 424 207 423 L 207 441 L 206 442 Q 204 448 207 450 L 207 461 L 205 469 Q 206 479 204 485 L 209 486 L 210 486 L 210 473 L 210 471 L 211 468 L 211 422 L 210 421 Q 211 417 209 418 Z M 229 418 L 228 422 L 230 421 L 229 418 Z M 20 419 L 19 428 L 20 428 L 20 419 Z M 234 420 L 235 448 L 237 450 L 235 453 L 236 455 L 235 458 L 237 461 L 236 467 L 238 468 Q 235 469 236 473 L 240 472 L 239 474 Q 236 473 237 477 L 239 476 Q 241 475 240 478 L 237 480 Q 236 484 240 482 Q 241 485 238 484 L 238 487 Q 241 486 240 489 L 240 490 L 242 489 L 240 462 L 238 454 L 236 431 L 234 420 Z M 57 421 L 57 423 L 60 422 L 61 425 L 57 426 Q 56 431 60 429 Q 62 434 57 432 Q 56 435 59 434 L 60 434 L 60 437 Q 56 435 57 439 L 59 438 L 61 439 L 61 427 L 62 426 L 62 421 L 57 421 Z M 29 422 L 29 424 L 38 424 L 29 422 Z M 222 423 L 221 429 L 225 430 L 225 425 L 222 423 Z M 15 425 Q 14 428 18 427 Q 19 424 15 425 Z M 229 425 L 228 454 L 229 455 L 229 497 L 232 497 L 233 491 Q 235 484 232 483 L 232 461 L 231 460 L 230 437 L 229 436 L 230 433 Q 231 426 229 425 Z M 29 427 L 29 430 L 37 428 L 38 429 L 38 427 L 29 427 Z M 249 427 L 249 438 L 252 437 Q 254 438 253 436 L 252 436 Q 249 436 250 430 L 253 428 L 249 427 Z M 66 428 L 66 442 L 68 439 L 68 435 L 66 428 Z M 245 428 L 243 433 Q 241 439 245 438 L 245 428 Z M 19 429 L 19 464 L 19 448 L 20 447 L 19 429 Z M 91 429 L 90 433 L 91 433 L 91 429 Z M 76 430 L 75 436 L 76 436 L 76 430 Z M 86 430 L 85 435 L 85 440 Q 89 438 88 442 L 89 442 Q 90 438 87 439 L 87 432 L 88 431 L 86 430 Z M 80 431 L 81 438 L 82 434 Q 83 430 80 431 Z M 222 431 Q 220 437 225 435 Q 227 429 222 431 Z M 285 431 L 285 432 L 288 433 L 291 432 L 285 431 Z M 242 435 L 241 443 L 242 444 L 244 462 L 245 457 L 245 445 Q 240 443 242 435 Z M 71 436 L 70 440 L 72 441 L 71 436 Z M 222 436 L 222 440 Q 226 442 225 438 L 222 436 Z M 268 437 L 264 438 L 265 440 L 268 439 L 268 437 Z M 224 441 L 222 443 L 223 445 L 225 444 Q 226 440 224 441 Z M 256 441 L 254 443 L 248 442 L 248 458 L 247 461 L 247 463 L 246 466 L 245 463 L 244 463 L 244 476 Q 247 480 246 489 Q 245 491 244 489 L 243 491 L 244 492 L 241 495 L 243 495 L 242 501 Q 241 506 243 508 L 242 514 L 234 514 L 233 513 L 227 515 L 235 517 L 239 517 L 242 520 Q 244 519 243 522 L 246 523 Q 245 527 249 529 L 249 533 Q 244 536 235 535 L 233 535 L 221 532 L 218 530 L 212 530 L 204 528 L 201 526 Q 202 519 199 517 L 202 513 L 202 510 L 200 507 L 192 506 L 191 500 L 183 504 L 170 505 L 169 506 L 165 504 L 158 504 Q 152 509 142 509 L 140 509 L 143 522 L 142 525 L 144 528 L 143 530 L 141 532 L 136 532 L 130 534 Q 124 541 115 545 Q 108 544 106 547 Q 97 549 95 543 L 104 530 L 114 522 L 116 523 L 121 517 Q 123 511 120 510 L 122 509 L 117 506 L 113 507 L 98 500 L 94 496 Q 94 501 92 502 L 89 498 L 90 494 L 92 494 L 91 490 L 88 491 L 88 506 L 87 506 Q 85 508 84 506 L 84 490 L 85 489 L 82 485 Q 83 482 80 483 L 82 472 L 80 466 L 81 463 L 83 463 L 78 461 L 78 473 L 79 474 L 79 497 L 80 498 L 79 501 L 79 513 L 89 513 L 90 512 L 97 512 L 97 501 L 102 503 L 104 507 L 103 510 L 103 517 L 101 517 L 99 517 L 97 516 L 92 517 L 90 516 Q 86 518 80 517 L 76 514 L 75 468 L 74 467 L 75 464 L 71 457 L 73 456 L 71 455 L 72 449 L 71 444 L 64 445 L 63 450 L 57 448 L 55 457 L 51 459 L 49 459 L 49 462 Q 46 461 47 464 L 36 467 Q 31 465 32 469 Q 30 472 23 471 L 22 478 L 18 480 L 13 479 L 9 480 L 9 490 L 10 491 L 9 493 L 10 496 L 9 503 L 10 506 L 10 528 L 9 529 L 10 533 L 10 593 L 33 593 L 43 591 L 83 591 L 85 591 L 101 591 L 102 592 L 105 591 L 126 591 L 127 590 L 128 591 L 160 591 L 162 591 L 166 592 L 168 592 L 227 592 L 228 591 L 278 591 L 279 590 L 280 591 L 309 591 L 310 592 L 312 591 L 333 590 L 334 586 L 334 552 L 333 551 L 334 485 L 330 482 L 325 482 L 319 480 L 313 475 L 314 465 L 304 464 L 298 461 L 299 458 L 298 456 L 297 456 L 284 453 L 272 453 L 267 449 L 269 443 Q 265 441 257 442 L 256 441 Z M 284 441 L 286 444 L 287 443 L 287 445 L 286 447 Q 291 449 290 446 L 290 444 Q 291 441 288 442 L 286 442 L 284 441 Z M 62 442 L 60 445 L 61 447 L 62 445 L 62 442 Z M 186 442 L 184 448 Q 187 453 185 463 L 186 464 L 185 466 L 190 465 L 188 460 L 189 458 L 187 448 L 188 446 Q 189 441 186 442 Z M 82 443 L 81 444 Q 74 443 75 446 L 77 445 L 79 446 L 81 445 L 83 446 Q 88 448 87 444 L 82 443 Z M 159 443 L 160 461 L 163 471 L 164 485 L 166 487 L 170 476 L 165 468 L 163 451 L 162 450 L 164 447 L 159 443 Z M 223 446 L 221 448 L 223 452 L 225 451 L 225 446 L 223 446 Z M 94 448 L 95 455 Q 94 457 97 456 L 97 460 L 99 461 L 97 450 L 94 448 Z M 52 449 L 52 455 L 53 452 L 52 449 Z M 285 449 L 283 451 L 288 452 Q 289 449 291 453 L 291 449 L 289 450 L 285 449 Z M 76 451 L 75 454 L 83 453 L 76 451 Z M 182 452 L 177 464 L 179 463 L 180 479 L 184 477 L 182 475 L 184 472 L 182 452 Z M 225 452 L 221 455 L 222 457 L 221 462 L 221 499 L 220 500 Q 212 498 214 504 L 223 503 L 226 499 L 225 487 L 225 485 L 225 478 L 223 477 Q 222 474 225 475 L 226 473 L 226 471 L 225 459 L 224 456 L 226 456 L 225 452 Z M 75 455 L 74 457 L 77 458 L 75 455 Z M 82 455 L 77 457 Q 79 459 84 458 Q 86 454 82 455 Z M 95 457 L 93 459 L 94 461 L 92 466 L 94 469 L 95 464 L 95 457 Z M 23 460 Q 21 465 27 463 Q 29 458 23 460 Z M 146 463 L 147 473 L 153 473 L 153 471 Q 152 468 147 469 L 147 467 L 152 467 L 152 463 L 146 463 Z M 97 464 Q 95 469 99 468 Q 101 463 97 464 Z M 23 465 L 23 467 L 27 468 L 27 466 L 23 465 Z M 84 465 L 83 468 L 84 468 L 84 465 Z M 186 468 L 187 472 L 189 471 Q 191 467 186 468 Z M 98 471 L 97 477 L 99 477 L 98 471 Z M 188 473 L 186 476 Q 188 479 189 476 Q 190 472 188 473 Z M 152 474 L 147 475 Q 149 479 148 487 L 155 486 L 154 482 L 149 482 L 154 480 L 153 479 Q 155 473 152 474 Z M 323 475 L 322 477 L 327 480 L 333 479 Q 335 473 330 475 L 325 476 L 323 475 Z M 187 479 L 189 483 L 190 481 L 187 479 Z M 97 480 L 97 489 L 98 490 L 100 493 L 101 493 L 101 488 Q 98 489 99 484 L 99 482 Q 100 479 97 480 Z M 182 480 L 181 481 Q 177 480 179 484 L 184 483 Q 186 479 182 480 Z M 171 482 L 165 494 L 167 498 Q 166 501 169 500 Q 167 489 171 484 L 171 482 Z M 190 484 L 187 485 L 189 489 L 191 488 L 190 484 Z M 182 485 L 181 486 L 179 486 L 179 491 L 184 490 L 184 485 L 182 485 Z M 155 487 L 148 490 L 150 492 L 155 491 L 155 487 Z M 236 487 L 233 495 L 234 496 L 236 493 L 236 487 Z M 155 492 L 149 493 L 150 497 L 156 495 Q 157 491 155 492 Z M 157 496 L 151 498 L 149 501 L 154 500 L 157 501 L 157 499 Q 159 497 157 496 Z M 240 497 L 236 502 Q 235 504 231 503 L 231 505 L 228 503 L 225 505 L 227 505 L 227 506 L 225 505 L 220 508 L 222 510 L 222 508 L 226 510 L 239 509 L 239 503 L 240 502 L 240 497 Z M 208 499 L 206 502 L 209 503 Q 210 505 211 503 Q 213 497 208 499 Z M 204 507 Q 203 510 206 509 Q 207 506 204 507 Z M 211 508 L 210 511 L 211 511 L 211 508 Z M 208 509 L 208 513 L 209 513 Q 210 508 208 509 Z M 206 510 Q 204 513 207 512 L 206 510 Z M 126 512 Q 124 515 127 514 L 126 512 Z M 210 512 Q 209 515 212 514 Q 213 511 210 512 Z M 129 513 L 128 516 L 129 516 L 129 513 Z M 132 513 L 131 517 L 132 517 L 132 513 Z M 202 514 Q 201 517 204 516 L 203 523 L 204 525 L 207 526 Q 211 527 213 525 L 215 525 L 220 529 L 222 528 L 229 530 Q 230 533 232 531 L 238 533 L 244 531 L 242 526 Q 237 518 226 517 L 222 515 L 225 520 L 227 519 L 232 519 L 238 524 Q 234 523 233 526 L 226 523 L 221 517 L 220 520 Q 213 522 212 518 Q 208 519 210 515 L 202 514 Z M 212 514 L 215 518 Q 218 519 217 516 L 216 516 L 212 514 Z M 126 515 Q 126 518 123 517 L 122 521 L 122 522 L 127 519 L 126 515 Z M 129 519 L 127 522 Q 128 524 126 523 L 124 525 L 121 524 L 121 526 Q 118 525 119 528 L 115 529 L 113 532 L 109 531 Q 110 528 107 529 L 106 534 L 99 541 L 101 544 L 105 543 L 107 544 L 118 539 Q 121 540 120 538 Q 123 536 121 535 Q 120 532 123 533 Q 124 531 126 534 L 129 532 Q 131 533 130 530 L 133 529 L 131 528 L 133 525 L 136 527 L 136 526 L 135 523 L 139 524 L 139 523 Q 137 518 136 521 L 132 521 Q 133 518 130 519 L 130 522 L 129 519 Z M 137 527 L 139 530 L 139 529 L 137 527 Z "></path><path d="M 179.5 24 L 183 26.5 L 177 29.5 L 174 34.5 L 178.5 40 Q 183.8 38.5 182 43 L 147.5 43 L 147 41 L 152 41 L 152 29.5 Q 150.4 26.5 145 28 Q 143.9 24.5 151.5 26 Q 153 23.5 158.5 25 L 162.5 26 L 166.5 25 L 168.5 26 L 170.5 25 L 172.5 25 Q 178 26.5 179.5 24 Z M 157 28 L 157 41 L 160 40 L 165 41 L 169 35 L 166 30 L 165 28 L 157 28 Z "></path><path d="M 155.5 91 Q 165.8 90 171 93 L 170 97 L 157.5 97 L 156 98.5 L 169 99 L 168 101.5 L 171.5 102 L 178 98.5 L 176.5 96 Q 171.7 97.7 173 93.5 L 175.5 92 L 179.5 94 Q 181.8 93.3 181 95.5 Q 184.3 96.7 183 102.5 L 172 129.5 Q 175.7 131.3 176 136.5 L 173 142.5 L 176 158.5 L 178.5 161 L 183.5 160 L 184.5 161 L 192 161 L 191.5 164 L 178.5 164 L 178 165.5 L 184 176 Q 179.4 174.8 178 177.5 L 179.5 178 L 182 177 L 183 179.5 L 173.5 187 L 170 187 L 172 183.5 L 168.5 183 L 169 184.5 Q 170.3 188.3 166.5 187 L 145 183 Q 146.1 180.3 143.5 181 L 137 183.5 L 139.5 184 L 144 183 Q 145.7 187.1 141.5 186 L 128.5 194 Q 127 190.5 125.5 193 L 104 189 L 104 183.5 L 107 180.5 L 112 161.5 L 112 143.5 L 113 141.5 L 111.5 142 L 108 140.5 Q 107 133.5 112 132.5 L 109 130.5 L 101 109.5 L 99 107.5 L 98 101.5 Q 107.1 93.6 126.5 96 Q 128 98.5 133.5 97 L 138 100.5 L 139 104.5 L 129 132.5 Q 132.6 133.9 132 139.5 Q 128.5 140 129 144.5 L 132 156.5 L 134.5 161 L 139.5 160 L 141.5 160 Q 147.5 158.5 149 161.5 L 146.5 164 L 136 164 Q 137.1 172.8 142.5 178 Q 144.8 178.8 144 176.5 L 153 155.5 L 154 139.5 L 151 134.5 L 154 129.5 Q 145.4 116.1 142 97.5 L 144.5 94 L 155.5 91 Z M 121 98 L 114 102 Q 107 100 108 104 L 113 105 L 115 104 L 121 104 L 121 107 Q 131 109 135 104 L 132 100 L 121 98 Z M 149 104 L 149 110 L 158 131 L 155 135 L 159 141 L 158 142 L 157 155 L 153 163 L 151 173 L 158 174 L 157 176 L 151 175 L 151 173 L 150 176 L 154 178 L 156 177 L 161 180 L 161 181 L 151 179 L 149 177 L 148 180 Q 155 183 166 183 L 166 181 Q 167 176 165 175 L 165 143 L 166 142 L 164 139 L 165 135 L 163 134 L 163 139 L 161 139 Q 158 138 159 134 Q 160 130 164 131 L 165 133 L 168 129 L 166 128 Q 164 123 170 125 L 169 123 Q 170 120 167 121 L 168 119 L 163 118 L 164 113 L 166 113 L 163 112 Q 162 109 166 110 L 165 109 L 166 105 L 150 105 L 149 104 Z M 173 107 L 172 109 L 176 108 L 173 107 Z M 105 108 L 105 112 L 113 131 L 119 128 L 122 128 Q 123 130 124 128 L 118 127 L 118 122 L 127 122 L 128 120 L 122 121 L 119 120 L 117 120 L 117 116 Q 125 117 130 114 L 125 113 L 127 111 L 134 110 L 134 109 L 129 110 L 117 110 L 105 108 Z M 167 111 L 167 113 L 176 112 L 167 111 Z M 123 117 L 124 119 L 127 118 L 123 117 Z M 170 118 L 170 119 L 172 119 L 170 118 Z M 120 130 L 119 133 L 118 132 L 116 139 Q 115 141 118 140 L 119 141 L 118 139 L 119 136 L 122 134 L 120 130 Z M 169 131 L 169 138 L 172 136 L 169 131 Z M 123 134 L 123 136 L 122 138 L 124 143 L 120 143 L 120 142 L 119 142 Q 120 145 116 143 L 116 157 L 113 170 L 113 177 L 110 183 L 122 185 L 123 187 L 120 189 L 125 189 L 125 180 L 122 167 L 122 149 L 121 148 L 122 146 Q 121 143 125 144 L 128 139 L 126 135 L 125 135 L 123 134 Z M 168 140 L 169 143 L 168 148 Q 167 153 169 155 L 168 159 Q 170 162 172 158 L 170 147 Q 172 139 168 140 Z M 126 144 L 124 147 L 125 150 L 124 152 L 125 156 L 128 156 L 126 144 Z M 129 156 L 127 158 Q 128 160 125 159 L 126 161 L 129 160 L 129 156 Z M 130 160 L 129 163 L 126 164 L 127 166 Q 128 163 131 164 L 130 160 Z M 173 161 L 169 163 L 170 165 L 173 163 L 173 161 Z M 174 165 L 169 171 L 174 167 L 174 165 Z M 131 166 L 129 167 Q 124 169 128 171 L 132 169 Q 133 165 131 166 Z M 134 170 L 129 174 Q 126 173 127 176 L 134 173 L 134 170 Z M 178 172 L 176 175 L 178 174 L 178 172 Z M 134 176 L 132 177 L 132 178 Q 135 179 136 177 L 134 176 Z M 130 178 L 129 180 L 131 179 L 130 178 Z M 138 178 L 131 182 L 129 185 L 138 180 L 138 178 Z M 176 179 L 173 183 L 177 180 L 176 179 Z M 110 185 L 111 187 Q 112 184 110 185 Z M 114 186 L 114 187 L 117 188 L 120 188 L 114 186 Z "></path><path d="M 96.5 109 L 100 110.5 L 99.5 112 L 96.5 109 Z "></path><path d="M 155.5 163 Q 158.1 162.2 157 165.5 L 155.5 165 L 154 164.5 L 155.5 163 Z "></path><path d="M 154 169 L 158 170.5 Q 158.8 173.1 155.5 172 L 154 169 Z "></path><path d="M 115.5 171 Q 118.5 170.2 117 174 L 114 172.5 L 115.5 171 Z "></path><path d="M 264.5 174 Q 269 176 265.5 178 Q 261 176 264.5 174 Z "></path><path d="M 116 176 L 119 177.5 Q 119.8 179.8 117.5 179 L 116 176 Z "></path><path d="M 113 180 L 115.5 181 L 117.5 181 Q 121.3 180 120 183 L 113 182 L 113 180 Z "></path><path d="M 239.5 181 L 244 182 Q 245.7 186.1 241.5 185 L 238 182.5 L 239.5 181 Z "></path><path d="M 74.5 185 L 76.5 185 L 79 187.5 L 77.5 188 L 74 187 L 74.5 185 Z "></path><path d="M 87.5 188 L 90 189.5 Q 88.8 192 85 191 Q 83.9 188.3 86.5 189 L 87.5 188 Z "></path><path d="M 151 195 L 183.5 195 L 184.5 196 L 195.5 196 L 196.5 197 L 206.5 197 L 207.5 198 L 221 199 Q 223.3 205.4 215.5 203 L 201.5 200 L 189.5 200 L 188.5 199 L 152.5 199 L 151 197.5 L 151 195 Z "></path><path d="M 157.5 200 L 160 204 L 157 202.5 L 157.5 200 Z "></path><path d="M 163.5 202 L 165.5 202 L 172 207.5 L 177 213.5 L 177 216 L 174.5 216 L 169 211.5 L 163.5 205 Q 161.3 205.8 162 203.5 L 163.5 202 Z "></path><path d="M 11 204 Q 15.5 202.5 14 207 L 11 205.5 L 11 204 Z "></path><path d="M 174 204 Q 182.2 205 186 211.5 L 182.5 213 L 174 206.5 L 174 204 Z "></path><path d="M 95 205 L 97 205.5 L 95 206.5 L 95 205 Z "></path><path d="M 131.5 205 L 134 206.5 L 122.5 219 L 113.5 225 L 110 225 L 111.5 222 L 113.5 223 L 127 211.5 L 128.5 209 Q 131.1 209.8 130 206.5 L 131.5 205 Z "></path><path d="M 158.5 206 Q 162.3 204.8 161 208.5 L 162 209.5 L 163 225.5 L 160 227 Q 157.8 221.8 159 211.5 L 157 207.5 L 158.5 206 Z "></path><path d="M 46.5 207 Q 51.8 205.8 53 208.5 L 48.5 209 L 46.5 207 Z "></path><path d="M 90.5 207 Q 95.3 205.3 94 209.5 L 90.5 212 Q 85.5 209.5 90.5 207 Z "></path><path d="M 248 208 L 250.5 209 L 254.5 208 L 258 210.5 Q 259.1 213.8 256.5 213 L 248 215.5 L 252.5 218 L 254.5 215 L 257 215 Q 256 218 259 217 L 259.5 214 L 260 219.5 L 266 234.5 Q 264 238 262 233.5 L 256.5 218 L 255 220.5 L 255 265.5 L 257 272.5 L 257 274.5 L 257 294.5 L 256 296.5 L 257 297.5 L 257 310.5 L 256 311.5 L 256 329.5 L 255 330.5 L 255 372.5 L 257 380.5 Q 254.3 382.3 256 388.5 L 257 389.5 L 257 407.5 L 258 412.5 L 255 414 L 253 409.5 L 251 347.5 L 252 344.5 L 251 343.5 L 251 330.5 L 252 329.5 L 252 310.5 Q 254.2 309.3 253 304.5 L 253 302.5 L 253 275.5 L 252 274.5 L 252 272.5 L 250.5 254 L 245.5 255 L 244 252 L 248.5 251 L 251 252 Q 252.3 248.7 247.5 250 L 244 251 Q 241.8 245.4 247.5 247 L 249.5 246 L 251 246.5 L 250.5 243 L 249.5 244 L 243 244 L 243 240 L 250.5 240 L 251 238 L 245.5 239 L 242 237.5 L 243.5 234 L 251 233.5 L 242.5 233 L 241 231.5 L 242.5 229 Q 249.2 230.8 251 227.5 L 241.5 227 L 240 225.5 L 238 216 L 241 215.5 Q 238.3 214.4 239 211 Q 243.3 212 244.5 209 L 245 211 L 253 212 L 253 210 L 248 210 L 248 208 Z "></path><path d="M 97 212 L 99.5 212 L 105.5 216 L 111 216.5 Q 110 219 105.5 218 L 97 213.5 L 97 212 Z "></path><path d="M 306 214 L 310 215.5 Q 308.8 218.3 307.5 216 Q 304.9 216.7 306 214 Z "></path><path d="M 12.5 217 Q 16.9 215.5 16 218.5 L 14.5 218 Q 11.5 218.5 12.5 217 Z "></path><path d="M 9.5 220 L 23 221 Q 24.4 224.7 18.5 223 Q 17 220.5 11.5 222 L 9.5 220 Z "></path><path d="M 300 223 L 318.5 223 L 319 226 L 300 225 L 300 223 Z "></path><path d="M 93 229 Q 96.8 227.5 96 230.5 L 107.5 245 L 112.5 247 L 114.5 246 L 115.5 248 L 108.5 249 L 101 242.5 L 93 231.5 L 93 229 Z "></path><path d="M 279 233 L 291.5 233 L 292.5 234 Q 293.8 231.8 295 234.5 L 299 246.5 L 299 258.5 Q 301.9 262.1 301 269.5 L 306 277 L 303.5 278 L 298.5 271 L 295 273.5 L 296 275.5 L 295.5 277 Q 300.9 275.1 300 278.5 Q 298.8 281.3 293.5 280 L 292.5 279 L 286 279 L 287.5 276 L 293 275.5 L 285 275 L 286.5 272 L 290.5 273 L 291 271.5 L 290 269 Q 295.8 267.5 297.5 271 L 298 269 Q 301.7 270.2 300 265 Q 296.7 263.9 298 268 L 293.5 268 L 291.5 267 L 289 268 L 288 264 L 298 265 L 296.5 261 L 291 261 L 291 258.5 L 291.5 257 L 289 255.5 Q 287.7 251.3 292.5 253 L 294.5 253 Q 297.5 253.9 296 249.5 L 294.5 250 L 286.5 250 L 286 248.5 Q 283.8 247.3 286.5 246 L 292.5 247 L 295 246 L 294.5 243 L 293.5 244 L 282 244 L 280 238.5 L 284 236.5 L 279 236 L 279 233 Z M 296 256 L 293 258 L 296 258 L 296 256 Z "></path><path d="M 244 257 L 250 257 L 250 260 L 245.5 261 L 244 257 Z "></path><path d="M 247.5 262 L 250 263.5 Q 251.1 266.8 248.5 266 Q 247.3 268.3 246 265.5 L 247.5 262 Z "></path><path d="M 153.5 264 Q 156.1 265.4 155.5 270 L 157.5 269 L 160 269.5 Q 158.3 274.8 163.5 273 L 162.5 271 Q 159.5 271.9 161 267.5 L 160 264 Q 162.7 262.9 162 265.5 Q 164.2 263.7 166.5 268 Q 168.8 267.3 168 269.5 L 171 271.5 L 169 266.5 L 171 267.5 L 172.5 270 L 173 267 L 175 267.5 L 172 271.5 Q 174.8 272.6 174 276 L 168 276.5 L 169 279 L 163.5 280 L 161 278.5 Q 163.3 277.3 160.5 276 L 157 276.5 L 158 278.5 L 155 276.5 L 157 275.5 L 156 272.5 L 157.5 270 L 155.5 271 L 153 270 L 154 266.5 L 153.5 264 Z M 164 266 L 163 268 L 165 269 L 164 266 Z M 168 271 L 166 272 L 166 273 L 170 273 L 168 271 Z "></path><path d="M 89.5 267 Q 93.7 265.9 92 270 L 88 268.5 L 89.5 267 Z "></path><path d="M 164.5 281 L 167 282.5 L 165.5 283 L 164.5 281 Z "></path><path d="M 142.5 282 L 145 283.5 Q 146.3 288.3 143 287 L 141 283.5 L 142.5 282 Z "></path><path d="M 189.5 282 Q 192.8 280.9 192 283.5 L 188 293.5 L 184.5 297 Q 182.3 297.8 183 295.5 L 189.5 282 Z "></path><path d="M 136.5 283 Q 140.3 282 139 285 Q 131.4 285.5 126.5 290 L 130.5 285 Q 135.1 285.6 136.5 283 Z "></path><path d="M 195 286 L 198 286.5 L 195 288.5 L 195 286 Z "></path><path d="M 203.5 288 L 204 290 Q 201.3 288.9 202 291.5 L 200 296 Q 197.3 297.1 198 294.5 L 201.5 289 L 203.5 288 Z "></path><path d="M 140 289 Q 143 288 142 291 Q 139 292 140 289 Z "></path><path d="M 286 289 L 292.5 289 L 293 291 L 286 292 L 286 289 Z "></path><path d="M 144.5 290 Q 147.8 291.8 146 298.5 L 145 302 Q 140.9 303.7 142 299.5 Q 144.8 297.8 143 291.5 L 144.5 290 Z "></path><path d="M 206.5 291 L 207 292.5 L 203 296.5 L 202 302.5 L 199.5 307 L 199 301.5 Q 200.8 294.3 206.5 291 Z "></path><path d="M 134.5 292 Q 136.8 291.3 136 293.5 L 139 304.5 Q 137.5 307.5 136 304.5 L 133 293.5 L 134.5 292 Z "></path><path d="M 192 292 Q 194.7 290.9 194 293.5 L 197 299.5 L 197 303 Q 194.3 304.1 195 301.5 Q 191.3 298.1 192 292 Z "></path><path d="M 210.5 293 Q 212.8 292.3 212 294.5 L 208 301 Q 204.3 302.5 205 299.5 L 210.5 293 Z "></path><path d="M 121.5 294 L 124 295.5 Q 125.5 299.9 122.5 299 L 120 295.5 L 121.5 294 Z "></path><path d="M 175.5 297 Q 178.5 298.5 175.5 300 Q 173.3 300.8 174 298.5 L 175.5 297 Z "></path><path d="M 113 299 Q 118.4 297.5 120 300.5 Q 119 303 114.5 302 L 113 299 Z "></path><path d="M 121.5 302 L 127 305.5 L 131 313 L 128.5 313 L 124 308.5 Q 124.8 306.3 122.5 307 L 120 303.5 L 121.5 302 Z "></path><path d="M 90.5 303 Q 94.3 302.3 95 304.5 L 91.5 307 L 89 306 L 90.5 303 Z "></path><path d="M 111.5 304 L 115 305 Q 116.3 308.7 110.5 307 L 108.5 308 Q 105.5 306.5 108.5 305 L 111.5 304 Z "></path><path d="M 156.5 304 L 158 306.5 L 153 322.5 L 153 332.5 L 150.5 335 L 150 323.5 L 152 317.5 L 152 312.5 L 156.5 304 Z "></path><path d="M 177.5 304 Q 180.5 303.1 179 307.5 L 181 312.5 L 182 325.5 L 179.5 327 L 178 325.5 L 178 313.5 Q 175 311.5 176 305.5 L 177.5 304 Z "></path><path d="M 160.5 307 Q 163.8 305.9 163 308.5 L 158 325.5 L 158 335.5 Q 160.3 336.8 157.5 338 Q 155.3 338.8 156 336.5 Q 152.3 334.8 154 327.5 L 158 310.5 L 160.5 307 Z "></path><path d="M 204.5 307 Q 206.8 306.3 206 308.5 L 205 311 Q 201.2 312.5 202 309.5 L 204.5 307 Z "></path><path d="M 78.5 308 Q 84.8 306.1 83 311 L 74.5 312 L 76.5 309 L 78.5 308 Z "></path><path d="M 118 310 Q 125.3 308.8 127 314.5 L 133 321.5 L 129.5 323 L 125 319.5 L 120.5 313 L 118 311.5 L 118 310 Z "></path><path d="M 113.5 312 L 120 316.5 L 122 321.5 L 125.5 325 Q 128.8 323.9 128 326.5 Q 127.3 328.8 123.5 328 L 114.5 316 L 112 314.5 L 113.5 312 Z "></path><path d="M 211.5 313 Q 215.3 311.8 214 315.5 Q 212.7 319.8 208 319 Q 207.3 314.3 211.5 313 Z "></path><path d="M 175.5 315 L 177 315.5 L 177 329.5 L 174.5 331 Q 172.3 330.3 173 326.5 L 174 325.5 L 174 316.5 L 175.5 315 Z "></path><path d="M 221.5 316 Q 224.8 314.9 224 317.5 L 219 325 L 211.5 328 L 205.5 328 Q 201.3 326.3 203 318.5 L 206 317 L 207 323.5 L 206.5 325 Q 214.8 326.3 217 321.5 L 219 317 L 221.5 316 Z "></path><path d="M 168.5 317 L 172 318.5 L 170.5 321 Q 165.7 322.7 167 318.5 L 168.5 317 Z "></path><path d="M 105 325 L 108.5 325 L 115 331.5 Q 115.9 334.5 111.5 333 L 108 328 L 105 326.5 L 105 325 Z "></path><path d="M 168.5 325 Q 173.5 327.5 168.5 330 L 166 328.5 Q 164.9 325.2 167.5 326 L 168.5 325 Z "></path><path d="M 180.5 329 Q 183.1 328.2 182 331.5 Q 180.5 334.5 179 331.5 L 180.5 329 Z "></path><path d="M 235.5 331 L 236 332.5 L 234.5 334 L 223 337 Q 221.9 334.3 224.5 335 L 235.5 331 Z "></path><path d="M 237.5 335 L 238 336.5 Q 236.8 339.8 233 339 Q 231.9 336.3 234.5 337 L 237.5 335 Z "></path><path d="M 142.5 338 L 143.5 340 L 142.5 338 Z "></path><path d="M 198 346 L 202 347.5 Q 202.5 351.5 199.5 352 L 190.5 353 L 191.5 351 L 194.5 350 L 196.5 350 L 198 350 L 198 346 Z "></path><path d="M 132.5 350 L 135 350.5 L 131.5 359 Q 129 358 130 353.5 L 132.5 350 Z "></path><path d="M 284 350 L 291 350 L 291 355.5 L 287.5 357 L 286.5 356 L 279 356 L 280.5 353 Q 285.8 354.5 284 350 Z "></path><path d="M 36.5 353 L 38.5 353 L 41 354.5 L 40 357 L 34 356 Q 32.9 353.3 35.5 354 L 36.5 353 Z "></path><path d="M 111 353 L 115 353.5 L 114 356 Q 109.5 357.5 111 353 Z "></path><path d="M 90 354 Q 94.1 352.7 93 356 Q 88.9 357.3 90 354 Z "></path><path d="M 86 387 L 88.5 388 L 91.5 387 L 93 390 Q 87.6 391.5 86 388.5 L 86 387 Z "></path><path d="M 91 393 L 94 393.5 L 91 395 L 91 393 Z "></path><path d="M 166 395 L 169 396.5 L 167 407 Q 162.5 408.8 164 403.5 L 166 395 Z "></path><path d="M 172.5 395 L 175 396.5 L 174 400.5 L 175 404 L 171 402.5 Q 169.5 396.5 172.5 395 Z "></path><path d="M 315.5 395 Q 319.7 393.9 318 398 L 308 399 L 309.5 396 Q 314.3 397.3 315.5 395 Z "></path><path d="M 89 396 L 92 397.5 Q 92.7 400.5 89 399 L 89 396 Z "></path><path d="M 310.5 403 L 311.5 404 L 318 404 L 316.5 407 L 313.5 406 L 311.5 406 L 308 407 Q 306.5 403.3 309.5 404 L 310.5 403 Z "></path><path d="M 105.5 407 Q 108.8 408.8 105 410.5 Q 99.2 417.4 101 431 L 98 430.5 L 98 418.5 Q 99.9 410.9 105.5 407 Z "></path><path d="M 114 411 Q 116.7 409.9 116 412.5 L 113 418.5 Q 114.5 426 112 429.5 Q 114.5 431 113 436.5 L 112 438.5 L 114 448.5 L 114 460.5 L 116 468.5 L 116 470.5 L 115 472.5 L 116 476.5 L 115 477.5 L 115 497.5 L 116 501 Q 113.3 502.1 114 499.5 L 113 498.5 L 113 481.5 L 114 480.5 L 114 470.5 L 113 468.5 L 114 466.5 L 112 461.5 L 112 448.5 L 111 447.5 L 111 432.5 L 110 427.5 L 111 426.5 L 111 418.5 L 114 411 Z "></path><path d="M 133 419 Q 136.7 417.5 136 420.5 Q 130.8 430.3 133 447.5 L 134 448.5 L 134 457.5 L 133 458.5 L 133 489.5 Q 136 492.8 135 499 L 132 499 L 132 492.5 L 131 491.5 L 130 463.5 L 131 462.5 L 131 450.5 L 130 449.5 L 130 429.5 L 133 419 Z "></path><path d="M 278 419 L 286.5 420 L 288.5 419 L 290 421.5 Q 288.5 424.5 282.5 423 L 278 422 L 278 419 Z "></path><path d="M 72.5 422 L 88.5 422 L 89 425 L 79.5 425 L 78.5 424 L 77.5 425 L 71 425 L 72.5 422 Z "></path><path d="M 139.5 422 L 140 425.5 L 138 430.5 L 138 453.5 L 139 454.5 L 140 468.5 L 139 470.5 L 140 471.5 L 141 484.5 L 140 487.5 L 141 488.5 L 142 503 L 139 503 L 139 496.5 L 138 495.5 L 138 478.5 L 137 477.5 L 137 460.5 L 135 450.5 L 135 437.5 L 136 436.5 L 137 425.5 L 139.5 422 Z "></path><path d="M 191.5 422 Q 195 424 190.5 426 L 190 423.5 L 191.5 422 Z "></path><path d="M 164.5 424 L 166 425.5 L 166 434.5 L 165 436.5 L 167.5 435 L 170 433.5 L 170 425 L 173 425 L 173 434.5 L 174 436.5 Q 171.5 438 173 443.5 L 174 448 L 171 446.5 L 169.5 442 L 169 444 L 164 442.5 L 165 439 L 162 437.5 Q 160.8 432.8 163 431.5 L 161.5 431 L 159 432.5 L 164.5 424 Z M 169 436 L 167 438 L 168 443 L 170 439 Q 171 435 169 436 Z "></path><path d="M 145 437 L 148 437.5 L 145 439 L 145 437 Z "></path><path d="M 165.5 444 L 166.5 446 L 165.5 444 Z "></path><path d="M 33.5 445 Q 38 444 39 446.5 Q 39.6 449.3 33.5 448 L 31.5 449 Q 28.5 447.5 31.5 446 L 33.5 445 Z "></path><path d="M 192 445 L 197 445 L 197 448 Q 193.2 449 192 446.5 L 192 445 Z "></path><path d="M 168.5 450 Q 170.8 449.3 170 451.5 L 168.5 450 Z "></path><path d="M 305.5 455 L 310.5 457 L 312.5 457 Q 314.8 456.3 314 458.5 Q 312.5 461.5 306.5 460 L 304 459 L 305.5 455 Z "></path><path d="M 123 482 L 128 482 L 128 484 L 123 484 L 123 482 Z "></path><path d="M 122 488 L 128.5 488 L 129 490 L 122.5 490 L 122 488 Z "></path><path d="M 123 493 L 130 494 Q 131.4 498 124.5 496 L 123 493 Z "></path><path d="M 133.5 501 Q 136.5 500.2 135 504 L 132 502.5 L 133.5 501 Z "></path><path d="M 307.5 523 Q 315.1 521.9 318 525.5 L 316.5 528 L 313.5 529 L 310 527.5 L 311 525 Q 307.2 523.5 308 526.5 L 306 530.5 L 309.5 532 L 311.5 532 Q 317.3 531.3 320 533.5 L 317.5 535 L 316.5 534 L 307 534 L 307.5 537 L 319.5 537 L 319.5 538 L 315.5 539 L 313.5 539 L 310 539.5 L 311.5 541 L 320 541 L 319.5 543 L 311.5 543 L 309.5 543 Q 306.9 542.3 308 545 L 310.5 544 L 315.5 545 L 318.5 544 L 320.5 544 L 330 546 Q 331.5 549.7 328.5 549 L 325.5 551 L 312.5 551 L 309.5 550 Q 307 551 308 555.5 L 309 560.5 L 308 561.5 L 308 570.5 L 309 573.5 L 308 576 Q 305.3 577.1 306 574.5 L 305 573.5 L 305 561.5 Q 307.5 560 306 554.5 L 304.5 550 L 297.5 553 Q 293 551 296.5 549 L 305 549 L 305 546 L 294 544 Q 292.9 541.3 295.5 542 Q 297 538.5 298.5 541 L 304 539.5 L 295 539 L 294 534 L 303 532 Q 301.8 524.7 307.5 523 Z M 299 535 L 299 537 L 304 537 Q 303 534 299 535 Z M 302 542 Q 301 545 304 544 Q 305 541 302 542 Z M 309 546 L 309 549 L 326 549 L 326 547 Q 323 545 316 546 L 314 546 L 312 547 L 309 546 Z "></path><path d="M 313.5 554 Q 318.3 552.7 317 556 Q 313.2 556.8 313.5 554 Z "></path><path d="M 343.5 554 L 344.5 556 L 343.5 554 Z "></path><path d="M 341.5 578 L 345 578.5 L 341.5 579 L 341.5 578 Z "></path><path d="M 345.5 588 L 346 590.5 L 345 590.5 L 345.5 588 Z "></path></svg>