<svg width="350" height="600" version="1.1" xmlns="http://www.w3.org/2000/svg" desc="Created with imagetracer.js version 1.2.5"><path d="M 9.5 5 L 37.5 7 L 41.5 6 L 43.5 7 L 46.5 6 L 50.5 7 L 52.5 6 Q 54.3 8.8 60.5 7 L 61.5 6 L 82.5 6 L 84.5 7 L 86.5 7 L 121.5 6 L 122.5 7 L 149.5 7 L 152.5 6 L 156.5 7 L 157.5 6 L 167.5 6 L 168.5 7 L 203.5 7 L 208.5 6 L 209.5 7 L 221.5 7 L 225.5 6 L 227.5 7 L 230.5 6 L 232.5 6 L 330.5 6 L 331.5 7 Q 333 3.5 334.5 6 L 337 7.5 L 337 137.5 L 338 138.5 L 338 150.5 L 338 152.5 L 337 165.5 L 338 169.5 L 337 173.5 Q 339.2 174.8 338 179.5 L 338 181.5 L 337 211.5 L 338 212.5 L 338 236.5 L 337 237.5 L 337 267.5 L 338 268.5 L 338 289.5 L 337 291.5 L 338 292.5 L 338 345.5 L 339 346.5 L 338 347.5 L 338 399.5 L 337 400.5 L 338 404.5 L 338 406.5 L 337 421.5 L 338 424.5 Q 339.5 430 337 431.5 L 337 477.5 L 336 479.5 L 337 482.5 L 336 483.5 L 335 522.5 L 336 527.5 L 335 528.5 L 335 592.5 L 334 595 L 328.5 594 L 326.5 594 L 317.5 595 L 314.5 594 L 313.5 595 L 292.5 595 L 291.5 594 L 283.5 594 L 282.5 595 L 240.5 595 L 239.5 594 L 228.5 594 L 227.5 595 L 202.5 595 L 200.5 595 L 122.5 596 L 120.5 595 L 119.5 596 L 30.5 596 L 29.5 595 L 6 595 L 5 591.5 L 6 590.5 L 6 577.5 L 5 576.5 L 5 558.5 L 6 556.5 Q 3.7 555.2 5 550.5 L 6 548.5 L 5 547.5 L 5 532.5 L 6 528.5 L 5 525.5 L 6 522.5 L 5 521.5 L 5 499.5 L 4 498.5 L 5 497.5 L 5 477.5 L 4 472.5 L 4.5 470 L 6 470.5 Q 6.8 465.2 4 463.5 L 5 462.5 L 5 452.5 L 4 451.5 L 4 428.5 L 5 426.5 L 4 425.5 L 4 414.5 L 5 413.5 L 5 405.5 L 4 404.5 L 4 395.5 L 5 394.5 L 5 348.5 Q 7.3 347.2 6 342.5 L 6 340.5 L 6 272.5 L 7 269.5 L 6 265.5 L 6 263.5 L 6 227.5 L 7 225.5 L 7 223.5 L 6 219.5 L 7 216.5 Q 4.3 214.7 6 208.5 Q 8.8 206.8 7 200.5 L 7 198.5 L 7 98.5 L 6 97.5 L 7 96.5 L 7 10.5 L 9.5 5 Z M 13 7 L 10 14 L 10 307 L 9 308 L 9 351 L 8 354 L 8 356 L 9 388 L 12 385 L 24 381 Q 33 380 37 383 L 40 389 L 39 398 Q 37 402 36 399 L 34 402 L 28 404 L 26 404 L 23 403 Q 16 402 13 404 Q 8 405 9 410 L 17 406 Q 19 405 18 409 L 14 413 L 16 414 Q 22 415 22 413 L 28 408 L 35 406 Q 43 404 47 408 L 48 405 L 48 394 L 50 388 L 50 380 L 53 365 L 53 357 L 48 354 L 48 343 L 53 328 L 53 319 L 52 318 L 45 310 Q 46 301 52 297 L 56 285 L 59 282 L 59 275 L 64 261 L 73 245 L 93 218 L 93 214 L 87 206 L 87 201 L 92 196 Q 91 190 88 187 L 76 194 L 73 194 L 70 195 L 60 191 L 57 185 Q 55 173 61 169 L 63 166 L 73 156 L 101 139 L 135 125 Q 141 126 143 124 L 134 108 L 137 97 L 141 94 Q 145 93 146 96 L 151 93 L 158 92 L 162 90 L 165 91 L 160 93 Q 153 91 154 95 L 158 96 Q 160 93 166 94 L 168 94 L 171 92 Q 172 89 169 90 Q 167 92 166 90 L 172 89 L 174 89 L 176 89 L 180 85 Q 185 83 184 87 L 187 88 L 189 88 Q 192 87 191 90 L 197 88 L 211 93 Q 212 96 214 94 Q 218 93 219 97 Q 220 101 218 100 L 216 102 L 215 110 L 211 118 Q 208 117 209 120 L 213 122 L 217 122 L 236 128 L 260 139 Q 275 148 288 160 L 295 169 L 299 178 Q 298 182 300 184 L 298 190 Q 294 194 288 196 L 282 196 L 275 194 L 273 194 L 271 193 L 267 198 L 263 208 L 261 217 L 261 226 L 260 227 L 261 233 L 265 235 L 273 252 L 275 259 L 275 264 L 277 265 Q 276 260 279 258 L 283 259 L 283 253 Q 279 252 280 246 Q 284 244 280 242 L 282 239 Q 278 235 279 226 L 272 221 L 271 217 L 279 213 L 297 213 L 305 216 Q 308 215 306 221 L 303 223 L 300 226 L 300 232 L 297 240 L 297 242 Q 296 246 299 247 Q 300 251 296 252 L 296 260 L 295 261 L 295 266 L 298 273 L 297 275 Q 294 272 288 273 L 283 279 L 285 281 L 286 276 L 289 277 L 289 276 L 292 277 L 293 276 L 295 277 L 298 276 Q 301 278 300 284 L 300 286 L 297 295 Q 294 295 295 302 L 319 320 L 321 324 Q 323 332 319 335 L 312 339 Q 311 336 314 337 Q 318 334 319 328 L 319 326 L 318 324 L 312 320 Q 306 321 305 319 L 307 318 L 309 318 L 311 318 L 296 304 L 294 311 L 293 312 L 283 312 L 280 306 L 274 310 Q 270 309 271 312 L 268 313 L 266 316 L 273 312 Q 275 311 274 314 L 270 315 L 267 319 L 279 313 L 279 314 Q 275 313 276 316 L 282 314 L 286 314 L 288 314 Q 290 313 289 316 L 280 316 L 278 317 L 278 318 L 282 317 L 291 317 L 291 319 L 283 319 L 273 321 L 269 330 L 270 332 L 275 336 L 273 332 Q 272 328 275 329 L 279 337 L 279 349 L 278 350 L 280 356 L 289 361 Q 298 360 302 362 L 304 359 Q 303 356 306 357 L 307 354 L 307 334 L 309 331 Q 310 328 314 329 Q 315 332 313 331 L 310 335 L 310 354 L 306 360 L 308 363 Q 309 360 312 361 L 315 355 L 311 354 Q 312 351 314 353 L 319 352 L 318 349 L 320 349 Q 322 350 321 346 L 323 346 L 325 350 L 329 347 Q 328 343 331 344 L 330 350 Q 329 358 334 359 L 335 358 L 335 347 L 335 345 L 335 330 L 334 329 L 335 317 L 335 315 L 335 306 L 334 305 L 334 176 L 335 175 L 334 170 L 334 168 L 335 166 L 334 162 L 334 160 L 334 8 L 234 8 L 232 8 L 205 8 L 204 9 Q 199 10 198 8 L 190 8 L 189 9 L 184 8 L 181 9 L 177 8 L 175 8 L 170 9 L 168 9 L 151 9 L 150 8 Q 143 6 142 9 L 104 9 L 103 8 L 100 9 L 75 9 L 74 8 L 72 9 L 70 9 L 63 8 L 61 8 L 59 9 L 57 8 L 45 8 L 44 9 L 42 8 L 38 9 L 28 9 L 20 7 L 18 8 L 13 7 Z M 182 86 L 180 88 Q 179 90 183 89 L 182 86 Z M 197 90 L 195 92 L 197 93 L 202 93 Q 202 96 207 95 L 206 97 L 208 97 L 209 95 L 206 92 L 197 90 Z M 199 95 L 201 97 L 202 97 L 199 95 Z M 216 95 L 214 97 Q 213 99 216 98 Q 219 97 216 95 Z M 142 96 L 140 99 Q 142 102 144 98 L 142 96 Z M 156 97 Q 154 100 157 99 L 156 97 Z M 198 98 L 197 100 Q 201 99 203 102 L 203 101 L 201 99 L 198 98 Z M 161 100 L 159 103 L 162 101 L 161 100 Z M 197 101 L 195 102 L 195 103 L 200 103 L 197 101 Z M 166 102 L 160 107 L 162 109 L 162 107 L 166 104 L 166 102 Z M 174 102 L 172 104 L 174 105 L 174 102 Z M 183 102 L 181 108 L 186 109 Q 189 107 188 102 L 185 104 L 186 106 L 186 107 L 183 102 Z M 177 103 L 177 108 L 179 108 L 179 106 Q 180 102 177 103 Z M 193 103 L 191 106 L 194 104 L 193 103 Z M 201 103 L 202 105 Q 203 102 201 103 Z M 168 105 L 166 106 Q 163 107 164 112 L 161 115 Q 163 119 165 116 L 164 114 L 165 110 L 172 109 L 176 114 L 178 110 Q 173 111 172 108 Q 173 105 171 106 L 168 105 Z M 196 105 L 191 110 Q 189 108 188 111 Q 186 115 191 114 L 192 111 L 196 108 L 199 109 L 203 115 L 203 110 L 199 105 L 198 106 L 196 105 Z M 203 105 L 202 107 L 204 108 L 203 105 Z M 157 109 L 154 110 L 154 113 L 159 113 Q 161 108 157 109 Z M 151 110 L 149 112 L 150 114 Q 149 116 152 115 Q 153 111 151 110 Z M 144 111 L 145 118 L 149 117 L 146 113 Q 147 110 144 111 Z M 183 111 L 185 114 Q 186 110 183 111 Z M 194 111 L 195 114 L 197 113 L 198 114 Q 199 109 194 111 Z M 207 111 L 206 114 L 207 115 L 209 112 L 207 111 Z M 169 112 L 167 116 L 170 114 Q 173 113 172 116 Q 173 119 178 118 L 180 115 L 178 116 L 175 115 Q 172 116 173 114 Q 172 111 169 112 Z M 180 112 L 180 114 L 182 113 L 180 112 Z M 186 114 L 185 116 L 189 118 L 191 118 L 186 114 Z M 194 114 L 193 116 L 191 117 L 194 117 L 194 114 Z M 159 115 Q 156 116 157 121 L 155 123 L 151 120 Q 147 119 148 122 L 148 123 L 150 122 Q 152 121 151 124 L 153 124 L 153 127 L 155 126 Q 158 127 156 123 L 158 123 L 158 118 L 163 120 L 160 117 Q 161 114 159 115 Z M 171 116 L 169 118 L 170 120 L 169 122 L 187 120 L 184 118 L 184 116 L 183 118 L 178 120 L 175 120 L 171 118 L 171 116 Z M 204 116 L 202 119 Q 198 120 196 117 L 194 120 L 196 119 L 204 123 L 205 121 Q 206 117 204 116 Z M 168 117 L 166 120 L 168 119 L 168 117 Z M 161 121 L 160 124 Q 164 125 163 122 L 161 121 Z M 183 122 L 176 126 Q 173 125 174 129 L 173 128 L 169 134 Q 168 138 170 140 L 169 142 L 171 143 L 169 143 Q 170 149 167 152 L 168 155 L 170 154 L 172 158 Q 173 160 175 158 L 175 160 L 178 159 L 180 160 L 183 159 L 182 161 L 188 163 L 195 163 L 193 162 L 195 157 L 195 162 L 197 161 L 196 159 L 197 157 L 196 155 L 200 144 L 200 140 L 197 137 L 194 143 L 197 148 L 195 148 Q 196 150 193 149 L 193 150 Q 196 149 195 152 L 196 153 L 193 153 Q 194 156 191 155 L 191 158 L 190 155 L 189 158 L 187 158 L 188 155 L 183 153 Q 182 150 186 151 Q 187 147 189 150 L 189 148 L 184 146 L 186 142 Q 189 141 188 144 L 186 145 L 193 146 L 191 131 L 195 129 L 194 128 L 196 126 L 199 129 L 198 125 L 192 122 L 190 122 L 185 123 L 183 122 Z M 210 123 L 208 126 L 204 129 L 205 143 L 209 149 Q 205 151 206 157 L 210 160 Q 209 162 212 161 L 219 170 Q 218 172 221 171 L 223 175 L 226 176 Q 228 175 227 178 L 230 179 L 237 190 Q 236 192 243 191 L 245 194 L 248 206 L 251 210 L 251 215 L 256 228 L 257 228 L 256 225 L 258 222 L 257 221 L 255 219 Q 256 216 258 218 L 258 215 L 256 214 Q 253 215 254 211 L 258 212 L 259 214 L 259 210 L 254 209 L 256 206 L 260 208 L 260 205 L 256 204 Q 253 205 254 201 L 261 203 Q 263 204 262 202 L 259 199 Q 254 200 256 196 L 262 197 L 264 199 L 263 195 Q 257 197 259 192 L 265 194 L 266 194 L 264 192 L 262 189 L 267 190 Q 268 193 270 189 L 268 188 L 266 186 L 269 184 L 271 188 Q 274 183 280 183 L 281 189 L 277 191 L 275 190 L 278 188 Q 279 185 277 186 Q 274 187 274 191 Q 276 194 283 193 L 286 194 L 294 191 L 293 188 L 296 187 L 296 176 L 295 180 L 292 176 Q 291 173 294 174 L 295 175 L 292 169 Q 277 152 258 140 L 233 129 L 225 128 L 221 125 L 210 123 Z M 142 126 L 129 129 L 116 135 L 113 135 L 75 157 L 63 170 L 60 176 Q 59 185 62 189 L 70 192 L 70 190 L 65 189 L 61 182 L 65 170 L 72 163 Q 74 162 73 166 L 71 167 L 65 176 L 65 184 L 71 188 Q 72 184 69 185 L 68 183 Q 67 175 71 173 Q 70 170 74 171 L 70 179 L 71 185 L 74 186 L 75 187 L 73 184 Q 72 177 76 175 L 78 177 Q 77 179 80 178 L 84 178 Q 86 179 85 176 Q 88 175 87 178 L 85 179 L 87 179 L 93 187 L 93 185 L 99 182 L 100 184 L 98 187 L 100 186 L 102 188 L 97 191 Q 93 189 97 188 L 93 187 L 97 195 L 105 189 L 106 185 L 125 174 L 139 169 L 140 171 Q 142 170 141 167 Q 143 162 145 165 L 148 163 L 152 164 Q 151 161 154 160 L 149 153 Q 148 147 150 146 L 148 134 L 143 128 Q 144 125 142 126 Z M 149 126 L 149 127 L 152 127 L 149 126 Z M 164 126 L 152 130 L 153 140 L 153 142 L 152 154 L 155 156 L 157 156 L 162 155 L 165 151 L 166 146 Q 168 140 165 139 L 165 133 L 167 127 L 166 127 L 164 126 Z M 196 133 L 194 135 L 196 135 L 196 133 Z M 203 139 L 203 151 L 205 150 L 206 148 L 203 139 Z M 164 156 L 167 162 L 168 162 L 166 158 Q 167 155 164 156 Z M 158 159 L 158 164 L 149 169 L 147 173 L 150 174 L 152 170 L 157 171 L 165 178 L 166 178 L 160 173 Q 159 168 164 170 L 165 173 L 177 179 L 192 179 L 192 181 L 186 181 L 185 182 Q 173 183 168 179 L 168 181 L 167 183 Q 159 181 156 175 L 151 176 Q 154 181 161 183 L 166 189 L 168 188 L 167 187 L 165 184 L 175 187 L 177 189 Q 176 186 180 187 L 183 188 L 201 181 L 204 178 L 202 176 L 203 174 L 209 170 L 211 168 L 208 164 L 206 165 L 207 169 L 204 168 L 201 172 Q 199 176 197 173 L 199 169 L 204 166 L 201 163 L 196 171 L 195 168 L 187 172 L 184 173 Q 181 174 182 171 Q 183 168 185 170 L 185 168 Q 177 170 174 165 Q 171 164 172 167 L 167 165 L 165 166 L 166 168 L 173 171 L 174 175 Q 166 171 160 164 L 161 161 Q 162 158 158 159 Z M 216 175 L 212 176 L 209 181 L 206 184 L 207 185 L 205 190 Q 202 189 203 193 L 193 201 L 191 198 Q 190 195 188 198 L 190 201 L 192 213 L 194 214 L 200 214 L 225 206 Q 228 207 227 204 L 236 200 L 238 197 L 228 203 L 223 204 L 221 202 Q 222 199 227 200 L 236 195 L 232 187 L 230 190 L 228 188 L 231 186 Q 229 182 228 186 L 226 184 L 221 188 L 220 185 L 219 185 Q 214 186 215 183 Q 211 182 210 185 Q 207 186 208 184 L 218 176 L 216 175 Z M 75 180 L 77 184 L 81 183 L 75 180 Z M 226 180 L 225 182 L 228 183 L 226 180 Z M 204 181 L 200 183 L 199 185 Q 203 185 205 182 L 204 181 Z M 196 185 L 194 186 L 194 187 L 198 186 L 196 185 Z M 204 185 L 203 188 L 204 188 L 204 185 Z M 79 186 L 80 188 L 83 187 L 79 186 Z M 189 187 Q 187 190 183 189 L 181 189 Q 176 188 177 191 L 172 188 L 168 189 L 171 190 L 172 194 L 166 191 L 163 195 Q 169 194 172 199 L 172 198 L 177 194 L 180 198 L 182 197 Q 183 194 185 198 L 189 195 L 193 191 L 192 190 L 193 188 L 189 187 Z M 72 188 L 72 191 L 76 190 L 72 188 Z M 162 188 L 160 190 L 161 192 L 162 192 L 162 188 Z M 199 189 L 192 195 L 194 197 L 199 194 Q 201 195 200 193 Q 203 191 199 189 Z M 157 190 L 157 193 L 158 193 Q 159 189 157 190 Z M 159 193 L 161 201 L 164 199 L 166 200 L 167 203 L 165 204 L 169 206 Q 170 208 167 207 L 165 207 L 164 209 Q 169 208 170 212 L 169 214 L 171 216 L 171 213 L 174 210 L 173 209 Q 172 204 175 203 L 166 198 L 163 195 L 160 195 Q 161 192 159 193 Z M 105 195 L 104 199 L 107 198 Q 109 199 108 197 L 105 195 Z M 176 196 L 174 198 L 176 202 L 177 199 L 176 196 Z M 115 199 L 112 202 L 116 210 Q 117 212 114 211 L 112 211 L 112 213 L 109 213 Q 110 216 108 215 L 104 211 L 102 213 L 104 213 L 105 216 Q 109 217 106 219 L 101 217 L 104 222 L 104 224 L 100 223 L 99 226 L 96 225 L 97 229 L 93 228 Q 94 225 91 226 Q 90 230 93 229 L 93 232 Q 90 233 89 230 Q 86 229 87 232 L 90 233 L 91 236 L 89 236 Q 86 235 87 239 L 86 239 L 82 237 Q 82 241 85 242 L 83 246 L 81 245 L 82 248 Q 76 247 78 251 L 74 249 L 72 252 Q 74 250 76 254 Q 77 257 75 256 L 72 252 L 70 255 L 71 257 L 76 260 L 76 262 L 74 261 L 72 261 L 72 263 Q 69 262 70 265 L 67 265 L 67 267 L 67 268 L 69 267 L 71 271 L 70 275 L 67 276 L 69 276 L 69 280 L 65 277 Q 62 278 63 275 L 61 276 L 62 279 L 68 282 L 68 284 L 63 281 Q 60 280 61 283 L 68 285 L 70 294 L 69 296 L 71 295 L 73 296 L 74 293 L 80 290 Q 81 293 79 292 L 75 298 L 77 298 Q 76 295 79 296 L 78 295 L 80 294 L 79 297 L 77 300 L 80 301 L 84 294 L 82 287 L 83 284 Q 86 283 88 286 L 89 284 L 87 283 L 83 278 L 83 274 L 81 277 Q 78 278 82 280 Q 83 283 81 282 L 81 284 L 80 286 L 74 282 Q 75 279 77 281 L 78 281 L 76 277 Q 73 278 74 271 L 83 263 L 104 258 L 105 255 L 104 253 L 108 250 L 110 254 L 110 259 L 115 264 L 115 265 L 119 265 L 117 260 L 106 245 L 104 238 L 105 233 Q 108 227 118 228 L 120 228 L 128 226 L 130 227 Q 131 224 138 226 L 140 225 L 128 218 Q 129 215 127 216 L 121 208 L 119 209 L 114 204 L 115 201 L 115 199 Z M 182 199 Q 180 202 183 201 L 182 199 Z M 178 203 L 179 210 Q 180 212 184 211 L 182 214 Q 181 217 185 215 L 185 217 Q 184 219 183 217 L 179 219 Q 178 216 182 217 L 182 215 Q 177 214 176 217 L 177 222 L 179 221 L 179 225 L 182 227 Q 183 232 180 234 L 181 235 L 185 231 L 189 222 L 189 220 L 190 217 L 189 212 L 188 212 L 186 212 L 188 208 Q 189 204 187 203 Q 184 204 186 206 Q 187 209 185 210 Q 181 211 180 209 L 183 205 L 178 203 Z M 109 205 L 107 208 L 109 207 L 111 208 L 111 207 L 109 205 Z M 107 208 L 106 210 L 108 211 L 107 208 Z M 176 211 L 176 214 Q 179 213 176 211 Z M 100 214 L 100 217 L 102 216 Q 103 213 100 214 Z M 292 215 L 281 218 L 286 218 Q 287 216 288 219 L 284 220 Q 280 221 281 218 Q 277 217 278 221 L 283 222 L 284 222 Q 285 226 283 225 L 283 226 L 286 225 L 288 228 L 289 226 Q 288 223 291 224 L 293 228 L 293 227 L 302 221 L 292 219 L 295 217 L 292 215 Z M 297 216 L 296 218 L 301 218 L 300 217 L 297 216 Z M 249 218 L 246 220 L 243 219 L 241 223 L 234 227 Q 231 226 232 229 L 229 230 L 227 230 L 224 231 L 226 231 Q 229 233 226 234 L 220 234 L 220 232 L 217 230 L 218 232 L 216 233 L 214 233 Q 213 235 216 234 L 218 234 L 220 235 L 225 236 Q 230 238 232 235 L 237 236 L 234 238 L 229 239 L 224 238 L 221 239 L 226 242 Q 228 243 227 240 L 242 241 L 237 243 L 235 243 L 233 242 L 232 244 L 239 246 L 244 244 Q 248 243 246 247 L 242 248 L 246 250 L 251 248 L 254 250 Q 257 249 256 252 L 254 253 Q 258 252 260 255 L 266 255 L 267 256 L 266 251 L 269 252 L 269 251 Q 268 248 267 250 Q 264 251 265 248 L 267 248 L 264 242 L 261 244 Q 258 245 259 242 L 262 240 L 261 238 L 257 239 L 258 236 L 253 229 L 252 231 L 250 232 Q 246 230 251 228 L 251 226 L 247 228 Q 244 229 245 227 L 247 224 Q 243 225 244 223 L 250 220 Q 251 217 249 218 Z M 302 218 L 303 220 Q 304 217 302 218 Z M 99 220 L 98 222 L 100 223 L 99 220 Z M 251 220 L 250 222 L 248 223 L 248 224 L 251 223 L 251 220 Z M 95 222 L 94 224 L 96 225 L 95 222 Z M 224 225 L 222 228 L 224 228 L 224 225 Z M 228 226 L 226 228 L 231 228 Q 232 225 228 226 Z M 297 227 L 294 231 L 296 235 L 297 232 L 297 227 Z M 127 228 L 126 229 Q 118 227 119 231 Q 122 229 130 230 Q 131 227 127 228 Z M 136 228 L 136 230 L 138 232 L 133 231 Q 128 235 119 233 L 118 235 L 120 234 L 132 234 L 132 236 L 127 236 L 127 238 L 142 238 L 143 237 L 145 238 L 149 237 L 151 238 L 158 236 L 159 232 L 153 229 L 149 229 L 147 229 L 145 228 Q 140 227 142 231 L 140 231 Q 137 230 139 229 L 136 228 Z M 285 229 L 283 233 L 285 237 L 287 231 Q 288 228 285 229 Z M 291 229 L 287 237 L 290 240 L 289 241 L 291 241 L 292 242 L 291 240 L 294 238 L 291 229 Z M 115 230 L 112 231 L 111 233 L 118 231 L 115 230 Z M 209 230 L 209 232 L 211 233 Q 212 229 209 230 Z M 187 231 L 186 233 L 188 234 L 187 231 Z M 85 233 L 86 235 Q 87 232 85 233 Z M 177 235 Q 174 236 176 238 L 169 239 L 174 239 L 178 246 L 180 246 L 178 243 L 181 242 L 179 241 L 177 235 Z M 122 236 L 117 238 L 123 238 L 122 236 Z M 183 236 L 181 238 L 184 238 L 186 242 Q 185 250 188 254 L 187 256 L 189 269 L 193 281 L 192 283 L 194 283 Q 198 289 199 300 L 202 305 L 208 310 L 222 317 Q 230 318 234 315 L 238 317 L 241 315 L 240 318 L 243 317 Q 247 316 245 320 L 248 321 L 250 318 L 252 320 L 251 324 Q 254 325 253 322 L 257 320 L 254 325 Q 256 328 257 325 Q 256 322 259 323 L 260 321 L 256 317 Q 250 318 248 315 L 246 316 Q 238 314 235 309 L 235 307 L 231 307 L 230 305 Q 231 302 227 303 L 225 300 L 227 300 L 225 298 Q 223 301 221 297 Q 222 292 218 294 Q 217 290 221 291 L 221 289 L 216 289 Q 215 285 219 286 L 219 284 L 215 285 Q 212 284 214 283 L 211 281 L 210 275 L 216 274 Q 215 271 214 273 Q 209 274 208 272 L 209 269 L 214 270 Q 215 266 209 268 L 207 266 L 207 264 Q 206 261 210 262 L 208 260 Q 207 256 210 257 L 211 258 L 211 255 L 209 256 L 205 253 L 206 252 L 205 248 L 208 248 L 207 247 Q 205 243 203 247 L 205 271 L 207 277 L 218 298 L 223 304 L 229 307 L 231 314 Q 228 315 229 312 L 223 306 L 222 308 L 220 309 Q 215 310 217 306 L 213 305 L 214 303 L 219 303 L 218 300 L 215 302 L 209 300 L 211 299 L 213 299 L 216 298 L 215 296 L 213 297 L 211 297 L 209 296 L 207 297 L 205 295 L 207 295 L 207 293 L 202 293 L 202 290 Q 199 291 200 289 L 200 287 L 204 288 L 209 287 L 201 286 L 199 283 L 202 284 L 207 283 L 206 279 L 199 281 L 197 278 Q 202 279 205 277 L 197 276 Q 196 273 199 274 L 201 274 Q 205 276 204 272 L 203 272 Q 197 273 196 271 Q 195 268 199 269 L 198 268 Q 197 265 200 266 L 201 270 L 203 269 L 202 264 L 195 265 Q 193 261 198 262 L 198 261 Q 194 262 195 260 L 199 258 L 199 256 L 194 256 L 194 253 L 199 254 L 201 254 L 201 252 L 194 252 L 194 251 L 194 248 Q 191 249 192 246 L 197 247 L 197 245 Q 193 246 192 244 L 193 242 L 192 239 Q 197 238 198 241 L 197 243 L 200 243 Q 201 238 197 237 L 192 238 L 192 236 L 191 238 L 183 236 Z M 153 239 L 145 241 L 116 241 L 110 240 L 113 247 Q 117 245 116 249 L 114 249 Q 117 257 123 261 L 123 259 L 130 259 L 130 261 L 123 262 L 128 269 L 128 271 L 130 270 Q 133 269 132 272 L 129 273 L 132 273 L 131 276 Q 132 278 129 277 L 129 274 L 128 276 L 127 275 L 125 278 L 127 280 L 129 279 Q 136 276 134 283 L 137 281 L 139 282 L 144 279 L 144 273 L 141 274 L 141 278 L 138 275 L 139 271 L 139 269 L 135 270 L 137 267 L 139 268 L 139 266 L 134 266 L 136 263 L 138 264 L 141 263 L 138 261 L 134 262 Q 131 261 134 259 L 140 259 L 140 256 L 137 257 Q 133 258 134 255 L 137 254 L 143 254 L 143 251 L 137 251 L 136 252 Q 133 251 136 249 L 145 249 L 145 246 Q 140 247 139 245 L 142 243 L 146 244 Q 148 245 147 243 L 155 240 L 153 239 Z M 285 240 L 286 241 L 287 242 Q 288 239 285 240 Z M 170 242 L 170 244 L 172 243 L 170 242 Z M 204 242 L 203 243 Q 199 242 200 245 L 199 247 L 204 245 L 204 242 Z M 287 244 L 284 246 L 288 247 L 290 247 L 294 249 L 295 247 L 296 249 L 296 246 L 293 244 L 291 245 L 289 245 L 287 244 Z M 174 245 Q 172 248 170 247 L 170 248 L 174 248 L 173 252 L 176 252 Q 177 255 173 254 L 171 254 Q 170 258 176 256 L 177 257 Q 179 247 174 245 Z M 211 247 L 208 249 L 210 249 L 211 250 L 211 247 Z M 181 249 Q 180 251 183 250 L 184 251 Q 185 247 181 249 Z M 289 249 L 289 252 L 286 253 L 289 255 L 287 255 L 287 256 Q 290 255 289 258 L 286 257 L 285 259 L 289 261 L 289 262 L 286 261 Q 285 264 288 263 L 289 265 Q 285 264 286 267 L 288 266 L 290 268 L 287 269 L 288 271 Q 293 272 293 271 L 293 252 L 289 249 Z M 146 251 L 144 253 L 146 253 L 146 251 Z M 148 251 L 148 253 L 150 252 L 148 251 Z M 210 252 L 211 254 Q 212 251 210 252 Z M 270 252 L 269 255 L 270 255 L 270 252 Z M 184 253 L 181 254 L 182 256 L 184 255 L 184 253 Z M 271 255 L 271 263 L 273 262 L 271 255 Z M 201 256 Q 199 259 202 258 L 201 256 Z M 178 257 L 171 258 L 171 260 L 176 260 L 176 262 L 172 264 Q 173 266 177 265 L 177 267 L 172 267 L 172 269 L 177 270 L 177 272 L 172 272 L 172 274 L 177 274 L 177 276 L 175 277 L 172 276 Q 171 280 176 278 L 176 281 L 172 280 Q 171 284 176 282 L 176 284 L 171 284 Q 170 288 175 286 L 174 289 Q 170 288 171 291 L 174 292 Q 175 294 172 293 L 170 293 L 170 294 L 174 294 L 174 297 L 170 296 L 169 299 L 171 298 L 174 300 Q 176 299 175 302 L 171 303 Q 172 305 174 303 L 176 306 L 169 305 Q 167 301 171 302 L 169 299 L 167 305 Q 172 309 180 311 L 182 314 L 168 308 Q 165 307 166 310 L 169 310 L 173 313 L 176 313 L 179 319 L 174 318 L 173 321 L 178 323 L 182 322 L 183 325 L 186 324 L 186 326 L 192 323 L 195 323 L 194 326 L 195 327 L 198 325 L 196 330 Q 193 331 194 328 L 192 329 L 191 326 L 186 329 L 188 329 Q 190 334 185 332 L 186 330 L 184 329 L 184 327 L 182 331 Q 183 334 179 332 L 181 327 L 180 327 L 178 326 L 176 330 Q 177 332 174 331 L 171 330 L 172 333 Q 176 338 186 338 L 190 338 L 194 339 L 204 337 L 215 331 L 214 326 L 211 327 L 212 330 L 208 332 L 210 327 L 207 326 Q 208 329 205 331 Q 206 334 202 332 L 205 327 Q 206 323 202 325 L 201 330 L 198 331 L 202 321 L 210 323 Q 216 324 220 321 Q 225 323 224 319 L 222 320 L 215 316 L 214 319 L 212 318 L 213 316 L 208 313 L 205 315 L 208 316 L 209 319 L 207 320 L 195 314 L 184 295 L 178 268 L 178 257 Z M 230 258 L 230 260 L 232 259 L 230 258 Z M 237 258 L 236 261 L 237 261 L 237 258 Z M 242 258 L 241 261 L 239 262 L 237 262 L 238 264 L 237 267 L 234 264 Q 235 261 232 262 L 232 265 L 228 264 L 229 267 L 228 269 Q 226 270 229 271 L 233 270 Q 234 273 231 272 L 230 274 L 232 273 L 235 275 L 238 268 L 244 263 L 242 258 Z M 181 259 L 181 262 L 185 261 Q 186 257 181 259 Z M 247 259 L 245 262 L 247 262 L 247 259 Z M 202 260 L 199 262 L 202 262 L 202 260 Z M 280 260 L 278 262 L 280 276 L 282 277 Q 283 271 280 269 L 282 264 L 280 260 Z M 149 261 L 147 264 L 149 263 L 149 261 Z M 97 262 L 84 265 L 82 267 L 87 270 L 91 267 L 92 269 L 95 268 L 93 272 L 98 269 L 98 271 L 96 274 L 98 273 Q 100 272 99 275 L 94 279 L 95 280 L 97 279 L 98 282 L 98 281 Q 102 275 109 274 L 101 264 Q 102 260 97 262 Z M 259 263 L 257 265 L 260 271 Q 257 272 258 270 L 254 267 L 256 271 Q 257 273 255 272 L 252 268 L 248 270 L 242 279 Q 243 281 240 280 L 240 282 L 238 282 L 240 285 Q 242 286 241 284 L 249 279 Q 250 275 252 279 L 246 290 L 243 293 L 233 296 L 239 299 L 243 299 Q 242 296 245 297 L 256 277 Q 260 270 270 270 L 268 267 L 265 268 L 264 266 Q 265 263 263 264 L 263 266 Q 264 269 262 268 L 259 263 Z M 183 264 L 182 267 L 185 267 L 186 266 L 183 264 Z M 65 265 Q 63 268 66 267 L 65 265 Z M 146 266 L 146 268 L 149 268 L 146 266 Z M 80 268 L 77 272 Q 76 276 80 274 L 81 272 L 80 268 Z M 183 268 Q 180 273 184 272 L 186 272 L 187 272 L 183 270 L 183 268 Z M 273 269 L 271 271 L 273 272 L 273 269 Z M 148 271 L 149 273 Q 150 270 148 271 Z M 240 271 L 240 275 L 242 276 Q 243 271 240 271 Z M 222 272 L 221 274 L 223 275 L 222 272 Z M 267 273 L 267 274 Q 269 273 268 277 L 270 277 L 271 275 Q 270 272 267 273 Z M 184 274 Q 182 277 185 276 L 184 274 Z M 264 274 L 262 276 L 265 279 L 266 275 L 264 274 Z M 279 274 L 278 277 L 279 277 L 279 274 Z M 87 275 L 88 278 Q 90 279 89 276 L 87 275 Z M 149 275 L 147 278 L 149 278 L 150 279 L 149 275 Z M 93 276 L 89 281 L 90 283 L 93 278 L 93 276 Z M 261 276 L 258 279 L 262 283 L 263 283 L 261 276 Z M 274 276 L 267 286 Q 266 291 269 293 Q 269 285 274 283 L 274 276 Z M 107 277 L 102 279 L 99 286 L 100 290 L 105 279 L 109 278 L 107 277 Z M 217 277 L 213 279 L 217 279 L 217 277 Z M 221 277 L 220 280 L 224 281 L 228 281 L 221 277 Z M 239 277 Q 236 281 240 280 L 239 277 Z M 278 277 L 277 281 L 278 281 L 278 277 Z M 185 278 L 185 281 L 189 280 L 185 278 Z M 292 278 L 292 280 L 290 281 Q 285 279 286 283 Q 288 286 290 282 L 291 284 L 291 282 L 294 283 L 296 282 L 298 283 L 297 279 L 296 281 L 295 280 L 292 278 Z M 236 279 Q 234 282 237 281 L 236 279 Z M 94 280 L 90 286 L 91 288 L 94 283 L 94 280 Z M 267 280 Q 263 281 264 287 L 264 289 L 261 296 L 258 298 L 259 300 Q 265 301 268 298 L 265 293 Q 263 284 267 283 L 267 280 Z M 111 281 L 109 284 L 109 285 Q 112 286 111 284 Q 113 282 111 281 Z M 146 281 L 146 283 L 148 282 L 146 281 Z M 257 281 Q 255 285 259 287 Q 260 290 258 289 L 256 289 L 260 293 L 262 288 Q 263 285 261 286 L 257 281 Z M 97 282 L 92 289 L 96 295 L 98 294 L 99 298 L 97 299 L 97 300 Q 100 299 99 303 L 99 304 L 102 304 L 101 303 L 102 301 Q 105 300 104 303 L 107 304 L 108 300 L 106 301 L 104 300 Q 100 298 101 293 L 100 293 L 96 291 Q 95 285 97 284 L 97 282 Z M 114 282 L 112 284 L 113 286 L 111 286 L 113 289 L 116 284 Q 119 283 117 288 L 114 289 L 114 291 Q 115 294 112 293 L 113 295 L 115 294 L 116 291 L 119 290 L 118 286 L 119 284 Q 118 281 114 282 Z M 123 282 L 123 284 L 127 285 L 128 286 Q 129 283 126 284 L 126 283 L 123 282 Z M 142 283 Q 140 287 144 286 L 145 287 L 144 285 Q 145 282 142 283 Z M 185 283 L 186 287 L 187 284 L 190 286 Q 194 287 192 283 L 190 284 L 185 283 Z M 235 283 L 235 286 L 236 286 Q 237 282 235 283 Z M 280 283 L 279 286 L 280 286 L 280 283 Z M 122 284 L 122 290 L 122 287 Q 124 285 122 284 Z M 129 284 L 128 287 L 131 288 L 132 286 L 129 284 Z M 137 284 L 139 291 L 140 291 L 139 286 L 137 284 Z M 226 284 L 228 287 L 229 285 L 226 284 Z M 284 284 L 284 286 L 286 285 L 284 284 Z M 106 285 L 105 290 L 107 289 L 106 285 Z M 294 285 L 295 286 L 294 288 L 295 289 L 297 288 Q 299 284 294 285 Z M 279 286 L 278 289 L 280 290 L 279 286 Z M 283 286 Q 281 289 284 288 L 283 286 Z M 293 286 L 289 288 L 290 290 L 293 288 L 293 286 Z M 60 287 Q 58 290 61 289 L 60 287 Z M 133 287 Q 130 289 133 290 L 134 288 L 133 287 Z M 187 287 L 186 291 L 188 297 L 195 309 L 196 309 L 195 303 Q 191 301 195 299 L 195 296 L 193 297 L 191 294 L 193 294 L 190 291 L 187 287 Z M 135 288 L 134 291 L 136 292 L 135 288 Z M 88 289 L 88 293 L 90 294 L 89 292 L 90 290 L 88 289 Z M 108 289 L 107 293 L 109 292 L 108 289 Z M 143 289 L 143 292 L 148 293 L 147 290 L 146 290 L 143 289 Z M 124 290 L 124 293 L 127 294 L 127 292 L 124 290 Z M 204 290 L 204 291 L 207 292 L 210 291 L 204 290 Z M 281 290 Q 281 293 278 292 L 278 294 L 276 295 Q 277 297 279 295 L 278 297 L 280 297 L 281 298 L 281 290 Z M 63 292 L 61 293 L 61 295 L 60 297 L 61 299 L 60 301 L 61 303 L 62 301 L 63 305 L 64 298 L 63 292 Z M 118 292 L 117 294 L 119 293 L 118 292 Z M 213 292 L 211 294 L 214 294 Q 215 291 213 292 Z M 292 292 Q 289 294 292 295 L 296 294 Q 297 290 292 292 Z M 57 293 L 56 295 L 58 296 L 57 293 Z M 131 293 L 130 294 Q 127 293 128 296 L 131 295 L 131 293 Z M 209 293 L 210 295 Q 211 292 209 293 Z M 116 294 L 114 298 L 116 297 L 117 301 L 118 301 Q 119 295 116 294 Z M 145 294 L 145 300 L 145 299 Q 149 296 145 294 Z M 256 294 L 256 297 L 257 297 Q 258 293 256 294 Z M 284 294 L 284 299 L 286 299 L 287 299 Q 288 301 286 300 L 286 302 Q 287 304 285 303 L 285 304 L 289 304 Q 288 307 292 306 L 292 297 L 285 297 L 286 295 L 284 294 Z M 119 295 L 119 297 L 125 299 L 125 297 L 119 295 Z M 87 296 L 85 298 L 87 298 L 87 296 Z M 134 296 Q 131 298 134 299 Q 137 298 134 296 Z M 140 296 L 140 301 L 141 301 Q 143 295 140 296 Z M 149 296 L 147 298 L 149 298 L 150 299 Q 151 295 149 296 Z M 252 296 Q 251 299 254 298 Q 255 295 252 296 Z M 55 297 L 54 299 L 57 300 L 55 297 Z M 111 297 L 114 301 L 114 299 L 111 297 Z M 269 297 L 271 301 L 273 300 L 273 299 Q 270 300 271 297 L 269 297 Z M 88 298 L 84 305 L 80 307 L 78 312 Q 77 316 79 318 L 79 326 L 78 327 Q 79 330 76 329 L 77 324 L 75 312 L 73 315 L 73 317 L 73 327 L 76 336 L 76 340 L 74 337 L 73 342 L 75 341 Q 79 343 76 345 L 77 348 L 77 350 L 76 355 L 76 357 L 77 359 L 77 382 L 78 383 L 77 385 L 78 389 L 80 386 Q 83 385 82 388 L 80 389 Q 77 388 78 391 L 80 390 Q 83 389 82 392 L 80 393 L 77 392 L 78 395 L 82 394 Q 84 393 83 396 L 77 398 Q 76 402 81 400 L 81 402 L 79 403 Q 76 402 77 405 L 79 404 L 81 407 L 81 409 L 79 408 L 77 408 L 77 427 L 79 427 Q 81 428 79 430 L 80 433 L 77 435 L 81 437 Q 80 429 83 425 L 83 421 Q 80 420 81 416 L 84 414 L 86 418 Q 88 417 87 422 L 87 424 L 84 433 L 85 443 L 87 442 L 88 443 L 87 441 Q 89 436 91 440 L 90 446 L 86 447 L 88 447 L 85 452 L 89 454 L 89 455 L 84 455 L 84 457 L 90 457 Q 91 461 89 460 L 89 461 Q 93 460 91 464 L 86 463 Q 82 462 84 466 L 87 465 L 91 467 Q 93 466 92 469 L 86 469 L 85 468 L 84 470 L 90 471 L 91 473 L 90 475 L 94 474 L 93 470 L 100 469 L 101 469 Q 100 472 103 471 L 106 462 L 106 460 L 102 461 L 102 459 L 99 463 L 97 462 Q 96 458 99 459 L 102 455 L 99 456 Q 94 457 95 454 L 101 453 L 101 452 L 97 453 L 96 452 L 98 450 L 104 449 L 104 448 Q 98 450 99 446 L 106 445 L 107 443 L 103 444 Q 99 445 98 443 L 100 441 L 110 440 L 110 436 L 105 438 L 100 438 L 110 434 L 111 431 L 103 433 L 102 430 L 110 428 Q 113 429 112 426 L 110 427 Q 102 429 103 425 L 112 424 L 113 426 L 113 422 L 111 423 Q 103 425 104 421 L 111 420 L 113 420 L 113 416 L 109 418 Q 103 420 104 416 L 111 414 Q 115 415 113 411 L 111 412 L 104 412 L 104 410 L 106 410 L 113 409 L 105 406 Q 106 403 108 405 L 113 403 Q 113 399 107 401 Q 105 403 104 401 Q 105 398 110 399 L 112 397 L 112 395 L 108 397 L 104 395 L 112 392 L 110 391 L 107 392 Q 101 394 103 389 L 109 388 Q 113 389 112 386 L 110 387 L 103 387 L 102 385 L 113 383 L 113 381 L 109 383 Q 103 384 102 382 L 109 379 L 111 380 L 111 379 L 113 376 L 103 379 L 102 377 L 104 375 L 112 374 L 112 370 L 105 373 Q 101 374 102 371 L 108 369 L 108 368 L 105 369 Q 100 370 102 366 L 108 364 Q 112 365 111 362 L 103 364 Q 100 365 101 361 L 106 360 L 108 360 L 112 357 L 115 365 L 115 397 L 114 398 L 115 399 L 115 415 L 116 416 L 115 419 L 122 418 Q 123 415 119 416 L 119 411 L 128 410 L 128 406 L 125 408 Q 121 409 120 407 Q 119 403 125 405 L 128 404 L 127 402 L 126 402 L 124 401 L 121 402 Q 117 403 118 400 L 121 399 L 127 399 L 127 397 L 126 397 L 119 397 L 123 394 Q 128 396 127 392 L 125 393 Q 120 394 119 392 L 121 390 L 127 390 Q 122 390 120 388 Q 119 385 126 386 L 127 387 L 127 383 L 121 383 L 121 381 L 125 380 L 127 381 L 127 378 L 121 379 Q 118 380 119 376 L 127 375 Q 128 372 124 373 L 122 373 L 120 374 Q 117 375 118 373 L 122 371 Q 128 370 127 373 L 128 373 L 128 367 L 127 369 L 126 370 L 117 370 Q 116 366 123 368 L 123 367 Q 118 368 119 365 L 125 365 L 125 367 Q 129 368 127 363 L 124 364 Q 118 365 117 363 L 124 362 L 123 360 L 118 361 L 116 358 L 119 358 L 117 356 Q 112 357 113 354 L 117 354 L 115 352 L 114 353 L 111 350 L 110 354 L 107 353 L 107 355 Q 111 353 110 357 L 104 359 Q 99 360 101 356 Q 105 357 106 355 L 102 354 L 100 355 Q 99 351 103 352 L 103 351 Q 99 352 100 350 Q 101 347 103 349 L 104 347 L 102 347 L 102 341 Q 106 339 105 343 L 106 343 Q 107 338 103 340 L 102 338 Q 101 331 105 329 L 103 329 L 104 327 L 104 325 Q 103 329 99 328 L 95 325 L 93 320 L 95 313 L 102 308 L 97 307 L 91 302 L 85 306 L 84 309 L 83 308 L 87 305 L 89 301 L 88 298 Z M 128 298 L 126 300 L 130 301 L 131 301 L 128 298 Z M 231 298 L 230 300 L 232 301 L 231 298 Z M 74 300 L 72 303 L 76 304 L 74 300 Z M 84 300 L 80 304 Q 76 303 75 306 L 76 308 L 84 302 L 84 300 Z M 146 300 L 145 303 L 149 304 L 150 307 L 150 301 L 146 300 Z M 252 300 L 251 303 Q 248 302 249 305 L 253 303 L 258 303 Q 253 303 252 300 Z M 273 300 L 273 303 Q 271 307 266 307 L 266 308 Q 270 309 272 307 Q 275 308 274 305 L 279 303 L 273 300 Z M 53 301 L 52 303 L 55 304 L 53 301 Z M 122 302 L 121 304 L 124 304 L 122 302 Z M 133 302 L 136 306 L 136 305 L 133 302 Z M 142 302 L 141 307 L 139 308 L 143 308 L 142 302 Z M 234 302 L 242 311 L 245 312 L 246 312 L 242 309 L 238 304 L 234 302 Z M 130 305 L 130 308 L 132 307 Q 133 304 130 305 Z M 288 305 L 284 307 L 289 307 L 288 305 Z M 52 306 L 55 310 L 55 309 L 52 306 Z M 198 306 L 198 307 L 200 307 L 198 306 Z M 122 307 L 116 322 L 111 328 L 112 329 L 113 326 Q 117 325 119 329 L 119 327 L 122 328 Q 124 329 123 326 L 118 325 L 117 323 L 124 325 L 126 319 Q 127 314 123 316 Q 122 313 125 314 L 126 315 L 124 310 L 127 311 Q 130 312 128 308 L 126 307 L 124 308 L 122 307 Z M 147 307 L 148 310 L 147 314 L 149 313 L 149 307 L 147 307 Z M 292 307 L 289 308 L 290 310 L 292 309 L 292 307 Z M 60 308 L 58 311 L 59 315 L 60 312 L 60 308 Z M 49 309 L 51 313 Q 50 316 54 314 L 53 310 L 49 309 Z M 131 310 L 128 324 L 124 334 L 127 337 L 136 336 L 142 333 Q 146 334 148 332 Q 152 333 151 330 L 149 331 Q 143 333 142 330 L 141 331 L 133 331 L 130 334 Q 127 335 128 331 L 134 329 L 147 328 L 140 327 L 138 326 L 143 325 L 143 323 L 138 324 L 136 324 Q 133 325 134 322 L 137 321 L 139 322 L 145 320 L 143 319 L 141 319 L 134 319 L 133 317 L 139 317 L 145 314 L 145 310 L 144 312 L 139 315 Q 132 317 133 313 L 136 313 Q 135 309 131 310 Z M 137 310 L 137 312 L 142 311 L 137 310 Z M 199 310 L 201 313 L 203 312 Q 204 308 199 310 Z M 69 312 L 71 320 L 72 315 L 71 314 L 71 313 L 69 312 Z M 115 313 L 113 315 Q 112 317 115 316 L 116 314 L 115 313 Z M 167 313 L 167 315 L 166 317 L 171 318 L 174 318 L 167 313 Z M 253 313 L 253 314 L 255 314 L 253 313 Z M 62 315 L 60 321 L 61 323 L 59 326 Q 60 330 58 332 L 57 349 L 54 366 L 54 375 L 50 398 L 49 428 L 47 437 L 47 453 L 54 457 L 57 456 L 67 459 L 69 459 L 70 459 Q 68 454 67 457 L 63 456 Q 62 453 65 454 L 65 453 Q 62 454 63 450 L 60 449 L 62 448 L 61 446 L 63 443 L 69 444 L 68 448 L 70 449 Q 71 443 69 441 L 66 440 L 63 441 Q 60 442 61 440 L 66 437 L 68 438 L 70 441 Q 74 438 72 430 L 71 427 Q 69 420 72 419 L 72 416 L 71 418 L 66 417 Q 59 419 60 415 L 71 416 L 72 414 L 61 414 L 60 412 L 64 411 L 69 412 Q 72 413 71 410 L 70 410 L 59 408 L 64 405 L 69 407 Q 72 408 71 405 L 68 403 L 61 404 L 59 402 L 59 400 L 60 397 L 62 395 L 72 395 L 60 393 L 62 390 L 65 391 L 67 390 L 67 389 Q 59 390 60 388 L 63 386 L 65 386 L 68 387 L 68 385 L 65 384 L 62 385 L 60 382 L 65 381 L 72 383 L 72 381 L 70 380 L 61 380 L 60 378 Q 63 376 70 377 Q 71 379 72 377 Q 74 371 70 372 L 70 373 Q 73 372 71 376 L 67 375 L 65 375 L 63 376 L 59 375 L 68 372 L 63 371 L 61 371 Q 58 372 59 369 L 65 368 L 65 367 Q 58 368 59 366 L 62 365 L 62 363 L 58 363 L 58 361 L 64 360 L 60 358 Q 59 355 62 356 L 62 355 Q 59 356 60 353 L 63 352 L 72 352 L 69 350 L 62 350 L 61 348 L 71 347 L 68 345 L 64 346 L 62 343 L 64 343 L 62 342 L 61 340 L 68 338 Q 63 338 61 336 L 64 334 L 62 333 L 64 330 L 62 329 Q 61 326 64 327 L 64 325 Q 61 326 62 324 L 66 322 L 63 320 L 64 317 Q 65 314 62 315 Z M 271 318 L 270 320 L 272 319 L 271 318 Z M 69 320 L 68 323 L 69 323 L 69 320 Z M 167 321 Q 165 324 168 323 L 167 321 Z M 261 322 L 259 327 L 266 333 L 265 337 Q 261 338 262 335 L 264 335 L 262 333 Q 259 332 260 335 L 257 334 L 258 331 L 249 325 L 241 323 L 229 323 L 228 325 L 225 324 L 222 325 L 223 327 L 223 328 L 231 325 Q 237 323 239 326 Q 241 325 240 329 L 237 328 L 231 328 Q 224 332 215 334 L 206 340 L 194 342 L 193 346 L 198 349 L 200 348 L 202 348 L 200 345 Q 199 340 203 342 L 204 345 Q 205 341 209 342 L 206 348 L 213 350 L 223 348 L 229 344 L 232 345 L 235 344 Q 239 346 236 348 Q 237 350 235 349 L 233 349 L 234 351 Q 235 354 231 352 L 232 356 L 228 357 L 226 350 L 225 350 L 225 353 L 229 362 Q 230 365 226 363 L 228 370 L 240 346 L 237 345 L 239 342 Q 241 341 240 346 L 243 344 L 242 343 L 244 340 Q 243 336 246 337 Q 247 341 244 340 L 243 343 L 245 343 L 247 340 L 255 336 L 260 337 L 261 340 L 259 342 L 248 343 L 243 348 L 231 369 L 224 393 L 225 395 L 227 391 Q 229 388 230 391 L 224 402 Q 220 409 211 411 L 206 411 L 201 407 Q 200 400 202 397 L 209 391 L 207 390 L 207 389 Q 206 386 209 387 L 212 383 Q 214 382 213 386 L 210 390 L 213 389 Q 218 386 216 378 L 219 378 Q 215 375 216 369 L 219 369 L 217 365 L 216 365 Q 217 369 215 368 L 215 370 Q 217 377 213 376 L 214 374 Q 215 370 211 372 L 208 364 L 203 363 L 196 352 L 190 347 Q 183 349 185 344 L 188 343 L 191 344 L 191 342 L 182 342 Q 180 338 179 341 L 173 338 Q 164 337 163 342 L 160 341 L 161 339 L 164 337 L 162 335 L 155 338 L 153 341 L 155 341 L 150 348 L 147 347 L 149 340 L 155 336 L 156 334 L 152 335 Q 149 334 150 337 L 140 344 Q 139 349 141 351 L 139 362 L 140 364 Q 141 368 139 370 L 140 381 L 137 382 L 137 376 L 136 384 L 139 385 Q 140 387 138 386 L 135 385 L 136 388 L 138 387 L 140 389 L 138 394 L 138 418 Q 136 419 139 421 L 139 425 L 134 431 L 134 435 L 134 437 L 133 438 L 133 452 Q 129 453 131 460 L 128 462 L 131 462 L 132 462 L 131 465 L 134 466 L 133 464 L 134 454 Q 136 448 144 447 Q 145 444 147 449 Q 146 451 143 450 L 143 451 Q 148 449 146 455 L 144 454 L 141 455 L 143 455 L 144 458 Q 143 460 140 459 L 138 457 Q 142 455 139 453 Q 136 452 137 457 L 137 461 L 136 463 L 138 468 L 140 467 L 139 470 L 141 475 L 137 478 L 135 477 L 134 480 L 129 477 Q 128 474 131 475 Q 130 472 133 471 Q 134 467 130 469 L 127 473 L 123 475 L 124 471 L 131 466 L 128 465 L 128 462 L 122 471 Q 119 478 110 478 L 109 481 L 115 487 Q 117 488 116 486 L 124 479 L 130 482 L 133 482 L 134 486 L 140 489 Q 143 490 142 487 L 137 485 L 139 482 L 143 484 L 141 482 L 141 479 Q 144 480 143 477 L 147 477 L 149 481 L 146 482 L 147 484 Q 146 486 145 484 L 143 485 Q 147 485 146 490 L 141 492 L 141 493 L 147 492 L 147 486 L 152 479 L 152 473 L 150 474 L 150 475 Q 152 474 151 477 L 146 476 L 147 473 Q 146 470 149 471 L 149 467 Q 146 468 147 465 Q 151 464 152 467 L 151 472 L 153 473 L 153 465 L 151 464 L 149 461 L 154 462 L 155 447 L 160 425 L 161 407 L 160 407 Q 157 405 158 400 Q 155 403 148 403 L 154 403 L 154 406 L 147 406 L 148 408 Q 149 406 155 407 L 156 410 L 154 411 L 152 410 L 148 410 L 146 415 L 148 425 L 153 424 L 148 422 L 149 420 L 148 415 L 150 413 L 156 413 Q 158 418 153 416 L 153 417 Q 158 416 156 420 L 153 421 L 156 421 L 154 425 L 155 427 L 149 427 L 148 426 L 147 438 L 147 440 L 147 441 L 152 441 L 152 443 Q 146 442 147 445 L 138 445 L 139 443 L 138 440 L 143 439 L 144 442 L 145 442 L 144 424 L 144 422 Q 146 416 143 415 L 145 405 L 145 379 L 146 378 L 147 365 L 151 362 L 151 360 L 148 361 L 147 359 L 148 354 L 155 348 L 156 351 L 164 348 L 162 352 L 164 354 L 167 352 Q 168 355 165 357 L 166 358 L 168 357 L 168 360 L 163 369 Q 162 371 165 370 L 167 364 Q 168 359 174 360 Q 176 361 174 363 Q 175 365 172 364 Q 168 367 168 373 Q 167 375 166 373 L 164 380 Q 160 381 161 379 L 160 379 Q 159 382 162 381 L 164 383 Q 163 380 166 381 L 166 395 L 165 396 L 165 407 L 164 408 L 164 422 L 158 449 L 158 458 L 156 465 L 156 476 L 154 484 L 150 489 L 162 487 L 169 481 L 167 479 L 165 482 L 163 483 Q 159 484 158 482 L 166 477 L 168 478 L 179 470 Q 184 469 186 471 L 186 474 L 180 472 L 174 476 L 174 477 L 181 475 L 189 475 L 189 477 L 192 478 Q 193 475 199 476 L 200 479 L 212 486 L 220 486 L 221 489 L 217 488 L 214 489 L 209 488 L 197 481 L 197 479 L 193 479 L 195 484 L 202 489 L 216 490 L 217 491 L 228 489 L 230 490 L 239 488 Q 246 480 258 476 L 255 475 L 256 472 L 255 471 L 253 469 L 257 467 L 253 465 Q 250 466 251 463 L 256 464 L 259 463 L 258 467 L 262 467 Q 261 471 264 472 Q 268 471 266 476 L 271 478 L 266 463 L 265 453 L 264 449 L 258 451 L 256 451 L 256 447 L 263 447 L 264 448 L 264 445 L 256 445 L 255 447 L 251 446 Q 250 443 253 444 Q 256 442 252 441 L 258 436 L 262 437 Q 264 438 263 435 Q 257 437 255 434 L 259 432 L 256 431 L 258 427 Q 262 426 263 429 L 263 426 L 262 426 L 260 425 Q 255 426 257 422 L 260 421 L 263 422 L 264 424 L 264 419 L 261 418 Q 259 420 258 418 L 260 415 L 264 416 L 266 413 L 259 413 L 259 410 L 266 410 L 266 412 L 269 413 Q 271 412 270 415 L 267 416 L 269 416 L 270 420 L 269 419 Q 266 418 267 421 L 270 423 Q 271 425 269 424 L 270 426 Q 272 425 271 428 L 270 430 Q 273 429 271 433 L 269 432 L 265 433 L 272 436 L 270 437 Q 268 435 267 438 L 272 440 Q 273 442 271 441 L 271 442 Q 275 441 273 445 L 267 443 L 266 446 L 274 448 L 272 451 L 273 453 L 268 452 L 267 454 L 270 455 L 272 455 L 274 457 L 272 457 L 272 458 Q 274 457 273 460 L 269 461 L 272 461 Q 273 464 270 463 L 271 465 L 274 464 Q 276 469 271 467 L 272 469 L 276 467 Q 278 466 277 469 L 272 472 L 277 472 L 278 475 L 281 474 L 279 458 L 276 447 L 276 438 L 274 428 L 273 404 L 272 403 L 272 384 L 271 381 Q 272 377 268 379 Q 267 382 270 381 L 268 385 Q 267 388 271 386 L 271 389 L 266 389 L 266 392 L 269 391 Q 273 390 271 394 L 269 395 L 266 394 L 267 397 L 265 398 L 263 399 L 264 388 L 265 387 L 265 379 L 266 378 L 266 357 L 269 356 L 269 352 L 265 351 L 268 343 L 267 342 L 265 340 L 268 338 L 267 332 L 267 330 L 267 328 L 264 329 Q 264 324 261 322 Z M 155 324 Q 156 327 153 326 L 156 331 L 156 334 L 161 333 L 162 330 L 157 328 Q 156 325 159 326 Q 160 322 155 324 Z M 174 324 L 174 328 L 177 326 L 174 324 Z M 219 325 L 217 329 L 217 330 L 222 329 L 219 328 L 219 325 Z M 114 328 L 113 330 L 118 333 L 119 333 L 114 328 Z M 122 329 L 121 332 L 122 332 L 122 329 Z M 68 330 L 68 331 L 70 331 L 68 330 Z M 163 330 L 163 332 L 168 334 L 169 331 L 163 330 Z M 55 331 L 54 334 L 55 334 L 55 331 Z M 111 331 Q 109 334 112 333 L 111 331 Z M 121 332 L 119 334 L 121 334 L 121 332 Z M 108 334 L 106 336 L 107 339 L 107 338 L 110 336 L 108 334 Z M 137 337 L 130 339 L 130 341 L 129 343 L 133 344 L 136 339 L 138 340 L 143 338 L 137 337 Z M 110 338 Q 109 341 112 340 Q 113 337 110 338 Z M 65 341 L 65 342 L 67 342 L 65 341 Z M 134 344 Q 132 347 135 346 L 134 344 Z M 52 345 L 51 347 Q 55 348 54 346 L 52 345 Z M 107 345 L 105 347 L 107 348 L 107 345 Z M 134 347 L 134 352 L 135 350 L 134 347 Z M 268 348 Q 267 351 270 350 Q 271 347 268 348 Z M 204 350 L 203 352 L 200 353 L 204 358 L 204 356 Q 202 354 205 353 L 204 350 Z M 155 351 L 151 355 L 152 360 Q 151 362 154 361 L 157 356 L 155 357 L 153 356 L 155 353 L 155 351 Z M 221 351 L 222 354 L 223 352 L 221 351 Z M 323 351 L 320 352 Q 319 355 322 354 L 320 360 L 321 361 L 323 358 Q 322 354 326 356 L 327 354 L 323 351 Z M 121 352 L 124 355 L 124 353 L 121 352 Z M 128 352 Q 128 356 130 353 L 128 352 Z M 135 352 L 135 356 Q 138 357 137 353 L 135 352 Z M 216 352 L 214 362 L 215 363 L 216 361 L 218 361 Q 219 356 217 355 L 218 353 L 216 352 Z M 211 353 L 211 358 L 212 358 Q 214 352 211 353 Z M 129 354 L 132 361 L 133 361 L 132 358 Q 134 352 129 354 Z M 317 354 L 317 356 L 319 355 L 317 354 Z M 328 354 L 327 358 L 328 358 L 328 354 Z M 64 355 L 64 356 L 67 356 L 64 355 Z M 162 355 L 160 358 L 162 357 L 162 355 Z M 208 356 L 204 358 L 206 361 Q 209 360 208 364 L 210 363 L 208 356 Z M 270 357 L 269 363 L 270 363 L 270 357 Z M 318 357 L 317 360 L 318 360 L 318 357 Z M 327 358 L 324 364 Q 323 367 326 366 L 327 362 L 327 358 Z M 328 359 L 328 366 L 334 366 L 335 361 L 332 361 L 328 359 Z M 221 360 L 221 363 L 221 365 L 223 369 L 224 364 Q 226 358 221 360 Z M 65 362 L 66 364 Q 69 363 70 366 L 69 369 L 71 369 L 72 366 L 71 363 L 65 362 Z M 283 362 L 280 364 L 283 364 L 283 362 Z M 304 362 L 301 368 L 302 371 Q 303 374 301 375 Q 298 376 299 373 L 297 374 L 292 373 L 293 377 Q 294 381 292 380 L 290 382 L 290 395 L 289 396 Q 288 400 290 402 L 289 403 L 289 427 L 288 428 L 289 430 L 288 432 L 288 444 L 286 447 L 282 448 Q 278 447 280 451 L 286 449 L 294 452 L 299 449 Q 300 446 298 447 L 296 446 L 296 437 L 296 435 L 295 432 L 295 423 L 296 422 L 296 392 L 295 391 L 297 378 L 300 376 L 298 389 L 299 391 L 299 418 L 298 419 L 298 437 L 303 436 L 303 413 L 304 412 L 304 398 L 305 397 L 304 393 L 304 391 L 304 383 L 305 382 L 304 378 L 304 376 L 305 370 L 305 368 L 304 362 Z M 75 363 L 74 366 L 75 366 L 75 363 Z M 157 363 L 154 367 L 155 368 L 157 365 L 157 363 Z M 287 363 L 288 365 Q 292 364 294 366 L 297 365 L 299 365 Q 301 366 300 364 L 299 364 L 298 363 L 287 363 Z M 311 363 L 309 365 Q 313 364 315 367 L 317 364 L 311 363 Z M 322 363 L 321 366 L 322 366 L 322 363 Z M 112 364 L 111 366 L 108 368 L 111 368 L 112 369 L 112 364 Z M 161 364 L 159 368 L 161 367 L 161 364 Z M 132 365 L 134 367 Q 135 364 132 365 Z M 286 366 L 279 367 L 280 369 L 286 369 L 286 366 Z M 292 367 L 291 369 Q 293 368 292 371 L 296 371 L 297 367 L 295 368 L 292 367 Z M 330 367 L 327 368 L 328 370 L 330 369 L 330 367 Z M 321 368 L 319 372 L 322 370 Q 323 367 321 368 Z M 224 369 L 222 373 L 220 371 L 219 371 L 222 377 L 222 379 L 223 381 L 220 382 L 220 379 L 219 387 Q 215 393 208 394 L 204 403 L 207 408 Q 215 408 219 405 L 224 397 L 224 395 L 214 403 Q 209 404 208 401 L 209 399 Q 208 395 212 396 L 213 393 L 216 393 Q 214 398 218 397 L 217 392 L 221 393 L 222 392 L 222 386 L 227 370 L 224 369 Z M 287 369 Q 285 372 288 371 L 287 369 Z M 327 370 L 326 371 Q 323 370 324 373 L 323 375 L 327 372 L 327 370 Z M 269 371 L 269 376 Q 272 377 271 374 L 271 372 L 269 371 Z M 281 371 L 282 373 Q 285 374 286 372 L 281 371 Z M 318 372 L 316 375 L 318 374 L 318 372 Z M 157 373 L 156 376 L 157 376 L 157 373 Z M 328 373 L 326 376 L 328 375 L 328 373 Z M 75 375 L 74 392 L 73 393 L 74 395 L 73 399 L 73 414 L 75 416 L 75 402 L 75 400 L 75 375 Z M 149 375 L 149 377 L 151 376 L 149 375 Z M 279 375 L 279 378 L 285 376 L 279 375 Z M 334 375 L 329 380 L 330 381 L 335 377 Q 336 374 334 375 Z M 286 376 L 285 378 Q 287 379 285 380 L 283 379 L 279 381 L 283 383 Q 284 380 287 381 Q 288 377 286 376 Z M 130 378 Q 129 381 132 380 Q 133 377 130 378 Z M 150 378 L 148 380 L 149 381 L 151 380 Q 152 377 150 378 Z M 157 378 L 155 380 Q 154 382 157 381 L 157 378 Z M 325 380 L 322 384 L 325 382 L 325 380 Z M 333 380 L 329 384 L 330 385 L 332 384 L 333 382 L 333 380 Z M 133 382 L 132 383 Q 129 382 130 386 Q 133 387 131 389 Q 130 391 133 390 L 133 382 Z M 150 383 Q 147 384 148 389 L 155 388 Q 154 385 153 387 L 149 386 L 151 385 Q 152 382 150 383 Z M 312 383 L 307 388 L 308 389 L 310 388 L 313 384 L 312 383 Z M 23 384 L 22 388 L 19 385 L 17 388 L 21 392 L 21 391 L 25 388 L 23 392 L 23 395 L 29 398 Q 30 396 36 397 L 38 395 L 37 387 L 35 384 L 23 384 Z M 285 384 L 285 386 L 283 385 L 279 386 Q 280 388 282 386 L 285 388 L 279 388 L 279 390 L 284 390 L 283 393 L 283 395 Q 278 393 279 397 L 285 396 Q 287 395 286 399 Q 285 401 284 399 Q 279 398 278 401 L 285 403 L 282 403 L 280 403 L 279 405 L 283 404 L 285 407 Q 278 405 279 409 L 282 408 L 286 409 L 287 403 L 287 401 Q 289 394 286 393 L 287 390 L 286 387 L 287 385 L 285 384 Z M 321 384 L 316 391 L 318 390 Q 317 387 320 388 L 322 385 L 321 384 Z M 331 385 L 329 388 L 328 396 L 331 394 L 331 385 Z M 159 386 L 158 394 L 159 394 L 159 386 Z M 14 387 L 8 393 Q 7 396 10 395 L 10 399 Q 7 398 8 401 L 10 400 Q 12 401 11 399 L 15 396 L 17 401 L 17 399 L 19 399 L 21 398 L 20 401 L 22 401 L 23 399 L 25 402 Q 27 401 25 400 Q 26 397 24 398 L 20 392 L 18 394 L 20 396 L 17 395 L 18 391 L 15 390 Q 16 386 14 387 Z M 148 390 L 147 393 Q 145 398 151 396 L 149 394 L 149 392 L 154 392 L 154 390 L 148 390 Z M 134 392 L 133 394 L 136 394 L 134 392 Z M 335 394 Q 328 397 334 400 L 335 396 L 335 394 Z M 62 397 L 62 399 L 64 398 L 62 397 Z M 132 397 L 132 398 L 135 398 L 132 397 Z M 70 398 L 71 402 L 72 399 L 70 398 Z M 149 398 Q 148 400 152 400 L 154 400 Q 155 397 149 398 Z M 28 399 L 29 402 L 31 402 L 28 399 Z M 315 399 L 315 401 L 317 400 L 315 399 Z M 64 400 L 64 401 L 66 401 L 64 400 Z M 132 401 L 132 402 L 134 402 L 132 401 Z M 323 404 L 324 407 L 325 405 L 323 404 Z M 131 405 L 132 409 L 136 407 L 136 405 L 131 405 Z M 39 407 L 28 410 Q 23 411 24 416 L 23 418 L 25 418 L 37 410 Q 43 408 45 411 L 47 411 Q 44 407 39 407 Z M 320 407 L 320 409 L 322 408 L 320 407 Z M 308 408 L 309 410 Q 310 407 308 408 Z M 283 410 L 279 411 L 279 413 L 285 413 L 285 415 L 279 415 L 278 417 L 281 418 L 283 418 Q 285 417 284 420 L 283 419 L 281 420 L 278 419 L 278 422 L 285 422 L 286 421 Q 285 415 287 414 L 286 411 L 285 411 L 283 410 Z M 332 410 L 330 412 L 334 413 Q 336 414 335 411 L 334 411 L 332 410 Z M 9 411 L 8 415 L 15 417 Q 21 418 21 416 L 18 416 L 12 414 Q 13 410 11 411 L 9 411 Z M 37 412 L 23 420 Q 17 418 18 422 Q 27 423 32 418 L 33 420 L 34 418 Q 37 413 46 414 Q 43 411 37 412 Z M 126 412 L 120 414 L 123 414 L 125 415 Q 127 420 124 419 L 120 421 Q 114 419 115 423 L 120 422 Q 123 421 122 424 L 121 426 Q 123 425 122 428 L 114 431 L 120 431 L 120 433 L 113 433 L 112 445 L 110 446 Q 107 447 109 449 Q 110 452 106 450 L 105 454 L 109 455 L 110 451 Q 109 448 113 449 L 112 455 L 114 454 L 119 455 L 119 454 Q 115 455 117 451 L 124 450 L 126 451 L 126 449 L 125 449 L 115 448 L 116 445 L 119 447 Q 124 448 126 446 L 126 444 L 114 444 L 114 443 L 113 440 L 116 439 Q 117 436 114 437 L 114 435 Q 118 434 119 437 Q 118 439 121 438 L 119 441 Q 121 444 126 442 L 126 435 L 125 437 Q 121 438 120 436 L 123 430 L 126 431 L 126 422 L 127 421 L 127 413 L 126 412 Z M 306 412 L 307 416 L 310 415 L 306 412 Z M 326 412 L 324 414 L 332 419 L 333 419 L 326 412 Z M 323 414 L 321 416 L 323 416 L 323 414 Z M 42 415 L 39 416 L 39 417 L 46 417 L 42 415 Z M 132 415 L 132 416 L 135 416 L 132 415 Z M 74 416 L 73 437 L 74 438 L 75 447 L 75 429 L 75 427 L 74 425 Q 73 420 75 419 L 74 416 Z M 8 417 L 8 419 L 10 420 Q 15 419 17 421 L 17 419 L 8 417 Z M 311 417 L 306 419 L 307 422 L 314 419 L 318 419 L 320 419 L 323 420 L 333 430 L 333 426 L 321 418 L 318 417 L 313 418 L 311 417 Z M 329 419 L 333 424 L 333 421 L 329 419 Z M 37 420 L 34 422 Q 29 425 28 431 L 26 432 L 23 436 L 36 447 L 43 442 L 45 442 L 45 437 L 44 437 L 41 441 L 36 444 L 33 443 L 37 441 L 38 439 Q 39 434 45 435 L 45 430 L 41 432 L 35 439 L 30 439 L 33 437 L 38 430 L 46 428 L 45 425 L 37 426 L 33 433 Q 32 437 26 436 Q 25 433 28 434 L 30 431 L 37 424 L 46 422 L 46 420 L 37 420 Z M 8 421 L 8 425 Q 17 424 21 428 Q 23 429 22 427 L 14 422 L 12 423 L 8 421 Z M 28 422 L 24 423 L 24 425 Q 23 427 27 426 L 29 423 L 28 422 Z M 316 422 L 309 425 Q 304 424 306 428 L 313 427 L 315 427 Q 323 428 329 432 L 333 436 L 325 425 L 319 422 L 316 422 Z M 279 423 L 277 425 Q 276 427 279 426 L 282 427 Q 285 426 284 429 L 280 428 Q 277 427 278 431 L 278 432 L 281 431 Q 283 430 282 433 L 286 433 L 286 425 L 287 423 L 282 424 L 279 423 Z M 115 425 L 115 427 L 119 426 L 115 425 Z M 8 427 L 8 429 L 16 429 L 17 430 L 19 430 Q 16 426 8 427 Z M 130 427 Q 129 430 132 429 Q 133 426 130 427 Z M 266 427 L 266 429 L 269 429 L 266 427 Z M 24 429 L 23 430 Q 18 429 19 432 L 15 433 L 18 434 L 21 434 Q 20 430 24 431 L 24 429 Z M 13 430 L 8 431 Q 7 434 11 433 L 13 433 L 15 432 L 13 430 Z M 263 430 L 261 432 L 263 432 L 263 430 Z M 312 430 L 309 432 Q 318 431 324 435 L 331 444 L 331 447 L 333 448 Q 334 443 331 442 Q 330 439 333 440 L 329 435 Q 326 436 327 433 L 324 433 L 318 430 L 312 430 Z M 306 431 L 306 433 L 308 432 L 306 431 Z M 125 432 L 123 434 L 126 434 Q 127 431 125 432 Z M 278 433 L 278 435 L 280 434 L 278 433 Z M 283 435 L 282 436 Q 279 435 280 438 L 285 437 L 283 435 Z M 130 436 L 129 440 L 130 440 L 130 436 Z M 311 436 L 306 437 L 305 440 Q 304 444 307 445 L 314 444 L 313 442 Q 305 444 306 440 Q 317 439 323 444 L 327 449 L 327 451 L 332 454 Q 335 455 333 451 L 330 449 L 327 441 L 318 437 L 315 437 L 313 437 L 311 436 Z M 13 437 L 8 438 L 9 441 L 13 439 Q 21 439 26 443 L 28 448 L 38 453 Q 45 455 44 451 L 40 452 Q 33 450 30 445 Q 27 446 28 444 L 19 437 L 16 438 L 13 437 Z M 80 438 L 79 444 L 80 444 L 80 438 Z M 263 439 Q 261 441 257 440 L 255 443 L 258 441 L 262 442 L 263 443 L 263 439 Z M 300 439 L 302 441 L 303 441 L 300 439 Z M 282 440 L 282 441 L 284 441 L 282 440 Z M 11 442 L 8 443 Q 7 447 14 445 L 17 444 Q 15 441 11 442 Z M 19 443 Q 17 446 20 447 Q 24 448 23 445 L 19 443 Z M 281 443 L 279 446 L 284 445 L 281 443 Z M 299 443 L 302 446 L 302 445 L 299 443 Z M 319 444 L 319 450 L 317 449 L 308 452 Q 303 451 305 455 L 320 451 L 326 453 L 327 455 L 322 453 L 305 457 Q 304 461 307 462 L 322 457 Q 329 456 333 459 L 333 456 L 330 455 L 325 450 L 319 444 Z M 42 445 L 42 447 L 38 448 L 41 449 L 44 447 Q 45 444 42 445 Z M 80 446 L 79 450 L 80 450 L 80 446 Z M 312 446 L 307 447 L 305 450 L 316 447 L 312 446 Z M 13 448 L 8 450 L 10 452 L 15 450 L 17 451 L 20 451 L 19 449 L 13 448 Z M 267 449 Q 266 451 269 450 L 270 451 Q 271 448 267 449 Z M 79 450 L 77 453 L 79 452 L 79 450 Z M 67 451 L 65 453 L 70 454 L 70 452 L 69 452 L 67 451 Z M 299 451 L 295 456 L 302 455 L 303 453 Q 302 450 299 451 Z M 285 452 L 281 454 L 282 456 L 286 455 L 288 459 L 291 461 Q 295 460 297 463 L 301 462 Q 303 461 302 457 L 299 459 L 294 458 L 291 455 Q 290 451 285 452 Z M 124 453 L 122 454 L 122 456 Q 121 458 118 457 L 118 458 Q 123 459 124 456 L 124 453 Z M 12 454 L 8 458 L 9 463 L 10 460 L 19 458 L 20 455 L 12 454 Z M 74 454 L 73 464 L 74 464 L 74 454 Z M 36 455 L 35 458 L 42 460 L 42 458 L 48 458 L 47 457 Q 45 453 44 456 Q 38 457 36 455 Z M 78 455 L 76 457 Q 75 462 79 460 Q 80 456 78 455 Z M 108 456 L 105 458 L 107 460 L 108 458 L 108 456 Z M 111 457 Q 112 463 109 467 L 110 470 L 115 468 L 115 467 Q 112 468 113 465 L 119 464 L 114 463 L 114 462 L 112 461 L 114 458 L 111 457 Z M 284 457 Q 281 458 282 462 L 284 461 L 290 467 Q 289 470 294 468 L 297 467 Q 304 469 302 464 Q 299 463 298 466 L 290 464 L 284 457 Z M 22 459 L 15 461 L 8 470 L 9 472 L 9 471 Q 14 466 22 464 L 33 464 L 46 471 L 48 475 L 55 478 L 56 479 L 55 475 L 42 463 L 35 459 L 22 459 Z M 321 459 L 310 463 Q 305 462 306 465 L 311 465 L 317 462 L 326 462 L 327 461 L 333 463 L 333 461 Q 329 458 321 459 Z M 57 460 Q 55 463 50 462 L 47 461 L 45 462 L 55 471 L 56 471 L 57 469 L 57 467 L 52 467 L 52 463 L 60 465 L 61 461 L 57 460 Z M 119 460 L 120 463 L 121 461 L 119 460 Z M 77 462 L 76 464 L 79 464 L 77 462 Z M 324 463 L 311 467 L 307 467 L 308 469 L 324 465 L 332 467 Q 334 468 333 465 L 328 463 L 324 463 Z M 74 465 Q 72 468 71 466 L 70 468 L 73 469 L 74 467 L 74 465 Z M 21 466 L 10 474 L 9 476 L 18 471 Q 24 472 27 469 Q 42 469 48 479 L 50 479 L 48 477 L 46 474 L 36 467 L 21 466 Z M 119 466 L 119 468 L 121 467 L 119 466 Z M 284 466 L 284 471 L 286 471 L 285 470 L 286 468 Q 287 465 284 466 Z M 65 467 L 65 469 L 62 470 L 60 476 L 62 476 L 67 468 L 65 467 Z M 321 467 L 308 471 L 306 471 L 308 473 L 314 473 L 324 470 L 327 469 L 332 471 Q 335 472 333 468 L 321 467 Z M 69 470 L 64 477 L 64 484 L 62 484 L 63 486 L 70 484 L 68 483 L 69 480 L 66 478 L 70 471 L 69 470 Z M 27 471 L 20 473 L 18 476 L 20 475 L 36 476 Q 41 480 43 487 L 53 491 L 56 484 L 55 484 L 45 480 Q 40 474 32 471 L 27 471 Z M 73 471 L 71 474 L 73 473 L 73 471 Z M 78 471 L 79 472 L 77 476 L 78 477 L 81 476 L 80 473 Q 81 470 78 471 Z M 113 471 L 109 473 L 107 472 L 92 478 L 88 477 Q 82 476 82 480 L 78 480 L 70 487 L 66 487 L 63 491 L 66 493 L 60 494 L 64 494 L 65 497 L 63 496 Q 58 495 57 498 L 65 498 L 66 500 L 58 500 Q 56 498 55 501 L 56 502 L 69 502 L 69 504 L 60 503 L 58 503 L 56 504 L 54 503 L 47 512 L 49 513 Q 59 511 66 514 L 68 514 Q 72 515 74 513 L 79 514 L 81 514 L 86 513 L 87 514 L 100 514 L 101 515 L 103 514 L 107 515 L 120 515 L 121 514 L 131 515 L 133 515 L 136 514 L 138 515 L 141 514 L 148 514 L 156 516 L 161 515 L 163 515 L 172 515 L 167 505 L 167 498 L 169 493 L 170 491 L 164 491 L 160 493 L 148 494 L 147 495 L 137 495 L 127 489 L 123 490 L 121 489 L 119 490 Q 112 491 109 488 Q 110 484 106 483 L 106 478 L 112 475 L 114 475 L 117 472 L 113 471 Z M 260 471 L 260 472 L 262 472 L 260 471 Z M 324 471 L 315 475 Q 308 474 309 477 Q 311 481 313 478 L 315 479 L 325 476 L 330 477 Q 335 479 333 474 L 331 472 L 329 472 L 324 471 Z M 59 472 L 58 475 L 60 475 L 59 472 Z M 287 474 L 283 475 L 280 478 Q 281 480 278 479 L 276 479 L 273 483 Q 275 487 282 488 L 283 491 L 286 492 Q 288 493 287 497 L 263 495 L 257 492 Q 251 494 250 491 L 240 491 L 239 492 L 237 491 L 227 493 L 206 493 L 205 492 L 203 493 L 197 490 L 193 490 L 193 502 Q 197 507 197 515 L 223 515 L 224 514 L 228 515 L 231 514 Q 237 513 240 517 L 242 516 L 263 516 L 264 515 L 269 517 L 271 516 L 282 516 L 283 515 Q 288 514 290 516 L 291 515 L 306 515 L 306 511 L 302 513 L 299 512 L 304 509 L 306 510 L 306 508 L 303 507 Q 300 508 301 505 L 307 504 L 302 503 L 301 501 L 302 499 L 307 499 L 306 497 L 307 493 L 311 492 L 315 495 Q 316 498 313 497 L 312 499 L 315 499 Q 314 502 318 501 L 317 504 L 319 504 L 318 506 L 321 507 Q 324 506 323 510 L 321 512 L 312 512 L 311 515 L 331 516 L 331 512 L 327 508 L 307 477 L 302 477 L 304 476 L 305 474 L 303 475 L 287 474 Z M 12 477 L 8 480 L 27 482 Q 36 486 42 493 L 50 497 L 53 497 L 54 498 L 57 495 L 49 493 L 44 490 L 38 483 L 31 477 Q 22 476 18 479 Q 13 480 12 477 Z M 61 477 L 59 479 L 60 481 L 61 481 L 61 477 Z M 182 477 L 180 478 L 180 479 L 187 479 L 182 477 Z M 261 478 L 263 483 L 263 480 L 261 478 Z M 325 478 Q 320 481 314 481 L 312 481 Q 311 483 314 482 L 317 486 L 324 486 L 332 484 Q 334 483 332 482 L 333 480 Q 331 476 325 478 Z M 51 479 L 52 481 L 55 481 L 51 479 Z M 144 479 L 145 481 L 146 481 L 144 479 Z M 259 480 Q 257 483 260 482 L 259 480 Z M 10 482 L 8 485 Q 18 484 24 487 L 40 499 L 51 503 L 53 500 Q 44 499 40 494 Q 37 495 38 493 L 31 487 Q 27 488 28 485 L 24 484 Q 22 480 21 483 L 19 482 L 15 483 L 13 483 L 10 482 Z M 184 482 L 181 486 L 184 486 L 184 482 Z M 270 482 Q 268 485 271 484 L 270 482 Z M 265 483 Q 264 486 267 485 Q 268 482 265 483 Z M 261 485 L 261 487 L 264 486 L 261 485 Z M 59 486 L 57 488 L 60 488 L 59 486 Z M 188 486 L 186 488 L 188 488 L 188 486 Z M 266 486 L 265 488 L 262 489 Q 263 491 267 490 L 266 486 Z M 269 486 L 269 488 L 271 487 L 269 486 Z M 330 486 Q 325 489 318 489 L 319 491 L 332 490 L 333 488 L 330 486 Z M 182 487 Q 179 492 183 491 L 182 487 Z M 9 488 L 9 491 L 19 492 L 29 500 Q 31 499 30 502 L 34 502 L 41 506 L 49 506 L 50 504 L 49 504 L 42 503 L 32 497 L 30 494 L 20 488 L 17 489 L 16 488 L 9 488 Z M 271 489 L 268 493 L 272 492 L 271 489 Z M 275 489 L 276 491 Q 277 488 275 489 Z M 279 489 L 278 494 L 279 494 L 279 489 Z M 179 490 L 177 493 L 179 492 L 181 493 L 179 490 Z M 189 490 L 189 493 L 187 497 L 190 495 Q 191 491 189 490 Z M 187 491 Q 185 494 188 493 L 187 491 Z M 283 492 L 281 494 Q 280 497 284 495 L 283 492 Z M 328 492 L 327 493 Q 321 491 322 495 L 327 496 L 333 494 Q 332 491 328 492 Z M 174 493 L 174 496 L 176 495 Q 177 492 174 493 Z M 181 493 L 181 495 L 183 494 Q 185 493 184 497 L 184 498 Q 186 497 185 500 L 188 499 L 185 497 Q 187 491 181 493 Z M 13 495 L 15 497 L 18 497 L 13 495 Z M 177 495 L 175 499 L 176 500 L 179 496 L 177 495 Z M 310 495 L 310 496 L 312 496 L 310 495 Z M 10 497 L 9 500 L 16 501 Q 23 509 34 513 Q 40 511 42 514 L 42 511 L 35 511 L 30 509 L 20 500 L 10 497 Z M 180 497 L 181 499 Q 182 496 180 497 Z M 329 497 L 328 498 Q 324 497 325 500 Q 327 504 329 501 L 331 502 L 328 502 L 331 509 L 332 509 L 332 498 L 329 497 Z M 179 499 L 179 503 L 180 503 L 179 499 Z M 183 499 L 183 502 Q 186 501 183 499 Z M 189 499 L 188 501 L 185 502 L 186 504 L 190 503 L 191 504 Q 192 501 189 502 L 189 499 Z M 25 501 L 28 505 L 28 504 L 25 501 Z M 173 501 L 172 505 L 175 503 Q 176 500 173 501 Z M 312 503 L 312 504 L 315 504 L 312 503 Z M 10 504 Q 10 507 16 509 L 17 512 Q 24 517 34 519 Q 41 518 40 521 L 32 522 L 41 522 L 42 520 L 41 515 L 37 516 L 25 513 L 13 506 Q 14 502 10 504 Z M 181 504 L 179 507 L 181 507 L 181 504 Z M 30 505 L 31 507 L 36 509 L 38 509 L 30 505 Z M 175 505 L 175 507 L 178 506 L 175 505 Z M 186 505 L 185 508 L 186 508 L 186 505 Z M 192 505 L 190 507 L 192 507 L 192 505 Z M 193 507 Q 193 510 190 509 L 191 511 L 193 510 L 193 507 Z M 46 508 L 44 510 L 46 510 L 46 508 Z M 177 508 L 178 512 L 178 510 L 180 510 L 177 508 Z M 183 508 Q 181 511 184 510 L 183 508 Z M 308 508 L 308 510 L 315 511 Q 316 509 321 510 L 322 509 L 308 508 Z M 9 509 L 8 512 L 26 522 Q 32 523 31 521 L 30 521 L 15 514 L 9 509 Z M 187 509 L 186 511 L 184 512 L 187 512 L 188 513 L 187 509 Z M 181 510 Q 179 513 182 512 L 181 510 Z M 194 511 L 193 512 Q 190 511 191 514 L 194 513 L 194 511 Z M 180 512 L 178 514 Q 177 516 180 515 L 181 516 L 180 512 Z M 182 512 L 182 514 L 184 513 L 182 512 Z M 308 512 Q 307 516 310 515 Q 311 511 308 512 Z M 195 515 L 192 520 L 193 521 L 195 520 L 195 515 Z M 9 516 L 9 518 Q 11 524 8 526 L 13 526 L 17 526 L 19 527 L 22 525 L 24 526 Q 25 524 31 525 L 32 523 L 30 524 L 26 523 L 24 524 L 9 516 Z M 49 516 L 48 519 L 49 519 L 49 516 Z M 55 516 L 55 518 Q 54 520 53 518 L 52 520 Q 68 522 81 530 L 82 530 L 80 523 Q 82 516 78 517 L 79 523 Q 80 527 78 526 L 76 525 L 76 516 L 75 519 L 72 520 L 72 516 L 70 520 Q 67 521 68 518 L 67 516 L 55 516 Z M 83 516 L 83 526 L 84 527 L 82 531 L 92 533 L 111 531 L 126 525 L 129 525 L 127 523 Q 129 516 125 517 L 126 524 L 123 524 L 123 518 L 121 517 L 121 522 Q 118 521 119 517 Q 115 516 117 521 L 115 521 L 115 519 L 114 522 Q 109 524 111 518 Q 107 517 109 525 Q 111 526 109 527 Q 105 525 106 519 L 104 522 L 105 524 Q 106 528 104 529 L 102 528 Q 104 521 101 520 L 102 518 Q 103 514 99 516 L 98 520 L 96 516 Q 90 514 92 520 Q 88 521 90 516 L 88 517 L 88 524 L 85 524 L 85 517 L 83 516 Z M 137 516 L 135 518 Q 133 524 137 523 L 137 516 Z M 142 516 L 140 518 Q 139 522 142 523 Q 144 524 143 521 L 143 519 L 142 516 Z M 146 516 L 146 524 L 151 525 L 151 517 L 146 516 Z M 228 516 L 227 517 L 217 517 L 214 523 L 216 522 L 227 524 L 233 532 L 251 537 Q 261 537 269 534 L 286 524 L 293 523 L 292 517 L 286 518 L 287 522 L 284 522 L 284 517 L 282 518 L 282 524 L 280 524 L 279 522 L 280 519 L 278 518 L 278 520 Q 279 523 277 524 Q 274 525 275 522 L 274 521 L 276 518 Q 270 517 268 519 L 267 526 L 264 525 L 266 518 L 264 517 L 261 518 L 243 518 L 244 521 Q 246 527 243 529 L 241 529 L 241 520 L 238 520 L 239 526 Q 241 531 238 530 L 235 527 Q 234 520 236 517 L 233 518 L 234 521 Q 233 523 230 522 L 228 519 Q 232 520 233 517 L 230 516 L 228 516 Z M 130 517 L 129 524 L 132 524 L 132 518 L 130 517 Z M 160 517 L 158 520 L 160 530 Q 159 524 163 522 L 164 530 Q 163 533 166 532 Q 167 523 165 517 L 163 520 L 161 521 L 160 517 Z M 168 517 L 168 530 Q 171 531 167 533 L 171 534 L 186 534 L 185 533 Q 182 532 184 531 L 183 522 L 176 517 L 174 520 L 175 523 L 175 525 L 175 527 L 172 524 L 172 517 L 168 517 Z M 199 517 L 196 523 L 187 523 L 185 525 L 186 533 L 193 531 Q 195 532 194 530 Q 196 525 198 528 L 199 521 L 199 517 Z M 212 517 L 211 523 L 213 522 L 212 517 Z M 300 517 L 299 523 L 311 525 L 323 533 L 330 534 L 331 533 L 331 518 L 329 519 L 329 531 Q 331 532 329 533 L 326 528 L 326 526 L 326 519 L 324 518 L 324 528 L 325 529 Q 326 532 324 531 L 322 530 L 321 519 L 320 517 L 319 522 L 319 524 Q 321 529 318 528 L 316 527 L 316 517 L 314 517 L 314 524 L 313 524 Q 310 522 311 517 L 310 522 L 307 522 L 307 517 Q 304 516 305 519 L 305 521 L 302 522 L 301 520 L 302 518 L 300 517 Z M 155 518 L 154 524 L 154 525 Q 156 524 155 527 L 156 527 Q 157 520 155 518 Z M 295 518 L 295 520 L 295 522 L 297 523 Q 299 517 295 518 Z M 208 520 L 206 523 L 205 521 L 204 525 L 208 524 L 208 520 Z M 44 523 L 30 528 Q 24 527 23 529 Q 18 530 17 528 Q 15 531 10 529 L 8 531 L 9 535 L 25 534 L 27 534 Q 30 531 37 532 L 49 527 L 63 528 L 85 539 L 95 541 L 107 540 L 119 537 L 136 530 L 148 531 L 158 538 L 177 542 L 179 541 L 182 542 L 186 542 L 195 540 L 216 531 L 220 531 L 233 539 L 246 543 L 261 543 L 276 540 L 283 534 L 293 531 L 301 531 L 318 539 L 331 541 Q 333 540 332 536 L 331 536 L 320 534 L 309 527 L 298 524 L 297 525 L 286 526 L 270 536 L 256 539 L 249 539 L 239 537 L 232 534 L 229 531 Q 226 526 220 525 L 211 525 L 189 536 Q 183 535 182 537 L 167 536 L 157 532 L 152 528 L 145 526 L 133 526 L 123 529 L 118 532 L 104 535 L 98 535 L 96 535 Q 90 534 89 536 L 64 525 L 57 523 L 44 523 Z M 51 529 L 42 532 L 42 533 L 48 531 Q 58 529 63 533 L 65 533 Q 63 529 57 530 L 55 530 L 51 529 Z M 135 532 L 120 539 L 111 540 L 102 543 L 92 543 L 92 544 L 112 544 L 133 538 L 142 538 L 144 538 L 146 537 L 157 541 L 161 541 L 158 540 L 146 533 L 135 532 Z M 50 533 L 26 540 L 24 540 L 22 543 L 20 542 L 9 542 L 10 544 L 24 544 L 26 544 L 39 542 L 53 537 L 54 538 L 63 538 L 70 542 L 87 547 L 92 547 L 78 543 L 66 536 L 57 533 L 53 534 L 50 533 Z M 66 533 L 66 534 L 75 539 L 77 539 L 66 533 Z M 294 533 L 284 536 L 276 542 L 262 545 L 262 546 L 277 546 L 295 539 L 308 540 L 317 544 L 327 545 L 331 545 Q 333 546 332 543 L 331 543 L 313 540 L 303 534 L 294 533 Z M 33 534 L 18 538 L 11 538 L 9 538 L 10 540 L 18 540 L 20 540 L 37 535 L 33 534 Z M 212 534 L 203 539 L 187 543 Q 172 545 164 541 L 161 542 L 173 545 L 192 544 L 210 539 L 223 540 L 242 547 Q 245 548 244 545 L 231 542 L 221 535 L 212 534 Z M 52 539 L 42 543 L 29 545 L 29 546 L 42 546 L 44 544 Q 49 546 51 543 L 62 543 L 63 544 Q 66 543 65 546 L 73 546 L 74 547 L 74 545 Q 68 545 64 541 L 52 539 Z M 78 539 L 80 541 L 82 541 L 78 539 Z M 143 539 L 142 540 L 128 541 Q 120 546 109 546 L 108 548 L 122 548 L 122 546 L 134 544 L 138 542 L 144 542 L 155 545 Q 159 543 158 547 L 158 548 L 170 548 L 170 546 L 164 546 L 156 542 L 152 542 L 150 540 Q 144 542 143 539 Z M 211 541 L 205 544 L 181 547 L 181 548 L 197 548 L 199 546 L 199 548 L 213 544 L 224 545 L 225 548 L 234 548 L 220 542 L 215 542 L 213 542 L 211 541 Z M 296 541 L 280 547 L 280 548 L 290 547 L 301 543 L 313 546 L 319 549 L 332 549 L 332 547 L 316 546 L 307 542 L 296 541 Z M 56 544 L 50 546 L 55 547 L 58 546 L 61 547 L 61 545 L 56 544 Z M 138 544 L 128 547 L 128 548 L 133 547 L 135 548 L 137 547 L 140 548 L 152 547 L 144 544 L 138 544 Z M 300 545 L 295 546 L 294 548 L 298 547 L 301 548 L 309 548 L 300 545 Z M 98 546 L 98 547 L 101 547 L 98 546 Z M 213 546 L 211 547 L 211 548 L 223 548 Q 220 545 213 546 Z M 249 546 L 249 547 L 256 547 L 249 546 Z M 172 547 L 172 548 L 179 548 L 172 547 Z M 25 548 L 24 549 L 8 549 L 8 568 L 9 569 L 8 573 L 8 588 L 9 593 L 30 593 L 33 594 L 36 593 L 41 594 L 96 594 L 97 593 L 106 593 L 107 594 L 111 593 L 113 594 L 117 593 L 128 593 L 129 594 L 153 594 L 154 593 L 162 593 L 163 594 L 165 593 L 178 593 L 179 592 L 205 592 L 206 593 L 208 592 L 212 593 L 214 593 Q 220 595 222 592 L 225 593 L 227 592 L 244 592 L 245 593 L 257 593 L 258 592 L 261 593 L 270 593 L 271 592 L 331 592 L 332 589 L 332 552 L 331 552 L 328 551 L 326 552 L 324 551 L 294 551 L 293 550 L 291 551 L 273 551 L 272 550 L 267 551 L 244 551 L 243 550 L 241 551 L 239 550 L 236 551 Q 229 553 228 550 L 226 551 L 224 550 L 222 551 L 219 550 L 217 551 L 212 550 L 159 550 L 157 550 L 152 551 L 148 550 L 146 550 L 143 551 L 141 551 L 139 550 L 130 550 L 129 551 L 119 551 L 118 550 Q 113 549 112 551 L 101 551 L 100 550 L 96 551 L 95 550 L 68 550 L 66 550 L 46 550 L 45 549 L 43 550 L 33 548 L 31 549 L 29 549 L 25 548 Z "></path><path d="M 187.5 123 L 188.5 125 L 187.5 123 Z "></path><path d="M 178.5 128 L 184.5 130 L 186 129.5 Q 187 133.3 184 132 L 184 135.5 L 182 136.5 Q 184.3 135.2 181.5 134 L 181 137 Q 178.3 138.1 179 135.5 Q 177.5 132.5 176 135.5 L 177 137.5 L 175.5 137 L 173 135.5 Q 172.3 133.3 174.5 134 L 176 131.5 L 173.5 133 L 171.5 134 L 172 132.5 L 173.5 130 L 178.5 128 Z "></path><path d="M 172.5 140 Q 175.5 139.1 174 143.5 L 173 143.5 L 172.5 140 Z "></path><path d="M 189 141 L 191 141.5 L 189 142.5 L 189 141 Z "></path><path d="M 169.5 151 L 170.5 153 L 169.5 151 Z "></path><path d="M 281.5 164 L 288 169.5 L 292 178.5 L 292 186 Q 288.3 187.3 290 181.5 Q 287.9 172.6 282.5 167 Q 279.2 168.1 280 165.5 L 281.5 164 Z "></path><path d="M 80.5 174 Q 83.5 175.5 80.5 177 Q 77.5 175.5 80.5 174 Z "></path><path d="M 280 174 L 286 176 Q 288.9 180.3 289 188.5 L 287.5 192 L 286 190.5 L 286 182.5 L 283.5 179 L 283 180.5 L 285 187.5 Q 283.5 190.5 282 187.5 Q 282.6 181.4 279 179.5 Q 280.3 176.8 281.5 179 L 283 178.5 L 280 174 Z "></path><path d="M 91.5 177 L 92 178.5 L 89 180 Q 87.9 177.3 90.5 178 L 91.5 177 Z "></path><path d="M 95.5 178 Q 98.5 177.2 97 181 Q 94.3 179.9 95 182.5 L 92.5 184 L 91 181.5 L 95.5 178 Z "></path><path d="M 276 180 Q 279 179 278 182 Q 275 183 276 180 Z "></path><path d="M 272 181 Q 275.3 179.9 274 184 Q 270.7 185.1 272 181 Z "></path><path d="M 221.5 189 L 226 190.5 L 219 193 Q 217.5 189.3 220.5 190 L 221.5 189 Z "></path><path d="M 231.5 190 L 233 192.5 L 223.5 198 L 221 197 L 222.5 194 L 229.5 192 L 231.5 190 Z "></path><path d="M 186 213 Q 189 212 188 215 Q 185 216 186 213 Z "></path><path d="M 185 219 Q 188 218 187 221 Q 184 222 185 219 Z "></path><path d="M 181 221 Q 184 220 183 223 Q 180 224 181 221 Z "></path><path d="M 183 224 Q 187.1 222.7 186 226 Q 181.9 227.3 183 224 Z "></path><path d="M 230 232 Q 233 231 232 234 Q 229 235 230 232 Z "></path><path d="M 263.5 244 L 264 247 Q 261.3 248.1 262 245.5 L 263.5 244 Z "></path><path d="M 126.5 250 L 127 253 Q 120.6 254 117 251.5 L 125.5 251 L 126.5 250 Z "></path><path d="M 129.5 253 L 131 256 L 125.5 257 L 121 255.5 L 123.5 254 L 127.5 255 L 129.5 253 Z "></path><path d="M 127.5 262 L 130 263.5 L 131 267 L 128 267 Q 129.5 263.3 126.5 264 L 127.5 262 Z "></path><path d="M 135 273 L 137 273 L 137 279 L 135 279 L 135 273 Z "></path><path d="M 74 285 L 78 286 Q 79.3 289 75.5 288 L 74 285 Z "></path><path d="M 221 309 L 227 311.5 Q 227.7 314.5 224 313 L 223.5 311 L 221 312 L 221 309 Z "></path><path d="M 122.5 318 L 124 320.5 L 122.5 320 L 121 319.5 L 122.5 318 Z "></path><path d="M 247.5 328 L 250 329.5 Q 250.8 333.3 248.5 334 L 246 329.5 L 247.5 328 Z "></path><path d="M 79.5 329 L 81.5 329 Q 84.1 328.3 83 331 L 81 331.5 L 82 334 L 76.5 334 L 76 332.5 L 77 330 L 79.5 329 Z "></path><path d="M 243.5 329 L 245 329.5 L 245 336 L 242.5 335 L 239.5 337 L 237 335.5 L 235.5 339 L 234 338.5 L 232.5 341 L 229.5 336 Q 230.4 341.4 227.5 343 L 225 336 Q 229.5 336.8 231.5 334 Q 233 336.5 234.5 333 L 241 332 L 241.5 335 Q 240.9 330.4 243.5 329 Z M 234 335 L 233 338 L 234 338 L 234 335 Z "></path><path d="M 251 330 Q 255.5 328.3 254 333.5 L 252.5 333 Q 249.5 333.7 251 330 Z "></path><path d="M 222.5 333 Q 224.8 332.3 224 334.5 L 222.5 333 Z "></path><path d="M 77 335 L 81 336.5 L 77 338 L 77 335 Z "></path><path d="M 222 337 Q 224.7 335.9 224 338.5 L 225 344 Q 220.5 345.8 222 340.5 L 222 338.5 L 222 337 Z "></path><path d="M 218.5 338 Q 221.1 337.2 220 340.5 L 221 344.5 L 219 345.5 L 217.5 343 L 217 344.5 L 218 347 Q 212 349.3 214 342.5 L 213 342.5 L 212.5 346 L 210 345 L 210 340 L 213.5 340 L 218.5 338 Z "></path><path d="M 294.5 340 L 297 341.5 L 299.5 348 L 302.5 343 L 306 344 Q 307.5 347.8 304.5 347 L 302 346 L 300 352 Q 302.7 353.1 302 350.5 L 306 349 Q 307.5 352.7 304.5 352 L 303 351.5 L 299.5 357 L 294.5 343 L 292 345.5 L 292 348.5 L 288.5 356 L 287 355.5 L 290 345.5 L 294.5 340 Z "></path><path d="M 173.5 342 L 176.5 343 Q 180.3 342 179 345 L 174.5 346 L 172.5 346 L 167.5 347 Q 164.8 345.7 167 344.5 Q 166.4 341.8 172.5 343 L 173.5 342 Z "></path><path d="M 196 343 Q 200.9 341.4 199 347 L 196 345.5 L 196 343 Z "></path><path d="M 282 343 Q 286.7 342 288 345.5 L 286.5 347 Q 284.8 343.3 283 346.5 L 280.5 351 L 280 348.5 L 282 343 Z "></path><path d="M 253 345 Q 257.1 343.7 256 347 Q 251.9 348.3 253 345 Z "></path><path d="M 252.5 348 Q 254.8 347.3 254 349.5 L 249 352 L 246.5 357 Q 243.9 357.8 245 354.5 L 252.5 348 Z "></path><path d="M 283 349 Q 287.1 347.3 286 351.5 L 284 351.5 L 282.5 354 L 282 351.5 L 283 349 Z "></path><path d="M 293.5 349 Q 295.8 348.3 295 350.5 L 296 352.5 L 294 353.5 L 293.5 352 L 291.5 356 L 291 353.5 L 293.5 349 Z "></path><path d="M 233 353 Q 235.7 351.9 235 354.5 L 233 355.5 L 233 353 Z "></path><path d="M 204.5 366 L 206 366 L 206 369 Q 208.7 367.9 208 370.5 L 207 373 Q 210 371.8 209 375.5 L 208 377.5 L 211 378.5 L 211 380.5 L 205.5 387 Q 202.2 388.1 203 385.5 L 208 378.5 L 204.5 381 L 202 381.5 L 202 392.5 Q 200.5 395.5 199 392.5 L 198 368.5 L 201 367 L 201.5 369 L 202 367 L 204.5 366 Z M 202 370 L 202 378 L 205 376 L 204 375 Q 201 374 203 373 L 202 370 Z "></path><path d="M 28.5 390 L 32 391.5 L 30.5 394 L 27 392.5 L 28.5 390 Z "></path><path d="M 11.5 392 L 15 393.5 L 13.5 395 L 11.5 392 Z "></path><path d="M 34 393 Q 37 392 36 395 Q 33 396 34 393 Z "></path><path d="M 268.5 397 Q 271.8 395.9 271 398.5 Q 269 402.2 267 400.5 L 265.5 404 L 264 404.5 L 267 405 L 265.5 408 Q 260.8 408.8 260 405.5 L 264 403.5 L 261 403 L 261 400 L 266.5 400 L 267 398.5 L 268.5 397 Z "></path><path d="M 269.5 403 Q 271.8 402.3 271 404.5 L 268 406 L 269.5 403 Z "></path><path d="M 234 404 L 238 404 L 238 405.5 L 234 407 L 234 404 Z "></path><path d="M 269 408 Q 272.3 406.9 271 411 Q 267.7 412.1 269 408 Z "></path><path d="M 234.5 409 L 237 410.5 L 233.5 413 L 232 410 L 234.5 409 Z "></path><path d="M 219.5 411 Q 222.5 410.2 221 414 L 211 417.5 Q 212.2 420 216 419 L 215 422.5 L 218 424 L 216.5 427 L 214 427.5 L 221 430.5 Q 219.8 433.3 214.5 432 Q 208.3 431.2 205.5 427 L 205 431.5 L 206.5 431 L 221 436 L 219 439.5 L 220 442 L 216 442.5 L 221 444 Q 222.1 446.7 219.5 446 L 217.5 447 L 206 443 Q 204.8 446 208.5 445 L 221 450.5 L 217.5 452 L 207.5 448 L 207 450 L 220 454 L 220.5 456 L 228 425.5 L 228 423.5 Q 227 419 229.5 418 L 231 418.5 L 231 426.5 L 227 440.5 L 226 449.5 L 224 453.5 L 224 457.5 L 219 469 L 215.5 468 L 213.5 469 L 209.5 468 L 210 469.5 L 210.5 472 L 215.5 470 L 216.5 471 L 228 471.5 L 225 473.5 Q 225.8 476.8 230.5 476 L 232.5 475 L 233.5 477 L 227.5 479 L 226.5 476 L 218 477.5 L 220 478 L 220 482 L 218.5 482 Q 211.8 479.8 208 474.5 L 206 466.5 L 206 457.5 L 203 444.5 L 202 425.5 L 204.5 421 L 206 420.5 L 203 416.5 L 203 414.5 Q 201.8 410.8 205.5 412 Q 206.9 414.6 211.5 414 L 213.5 412 Q 218.3 413.2 219.5 411 Z M 212 422 L 212 423 L 214 423 L 212 422 Z M 212 426 L 212 427 L 214 427 L 212 426 Z M 206 434 L 205 437 L 209 436 L 206 434 Z M 208 453 L 207 455 L 209 456 L 219 458 L 218 461 L 214 459 Q 207 457 208 461 L 216 462 L 218 465 Q 221 463 220 457 L 219 457 L 208 453 Z M 209 464 L 210 466 L 212 465 L 209 464 Z M 215 465 L 216 466 L 217 467 Q 218 464 215 465 Z M 214 474 L 215 475 L 216 477 L 217 475 L 214 474 Z "></path><path d="M 61.5 420 Q 68.2 418.3 70 421.5 Q 70.9 424.9 65.5 423 L 61.5 422 Q 60.3 424.3 59 421.5 L 61.5 420 Z "></path><path d="M 61.5 424 Q 68.5 422.5 70 426.5 L 65.5 427 L 60 425.5 L 61.5 424 Z "></path><path d="M 60.5 428 Q 69 426 71 430.5 Q 71.8 432.8 69.5 432 L 65.5 430 L 62.5 431 L 59 429.5 L 60.5 428 Z "></path><path d="M 148 429 L 154.5 429 L 155 430.5 L 152 432.5 L 153.5 435 L 150.5 436 L 148 433.5 L 149.5 431 Q 146.9 431.7 148 429 Z "></path><path d="M 63.5 433 L 70 434 Q 71.3 437.3 66.5 436 L 64.5 435 L 61 435.5 Q 60.3 433.3 62.5 434 L 63.5 433 Z "></path><path d="M 141.5 435 Q 144.5 434.2 143 438 Q 137.8 439.7 139 436 L 141.5 435 Z "></path><path d="M 149 437 L 153 437.5 L 149 439 L 149 437 Z "></path><path d="M 122 438 Q 125.7 436.5 125 439.5 Q 123.5 442.5 122 439.5 L 122 438 Z "></path><path d="M 150.5 445 Q 153.5 444.2 152 448 Q 148.2 449.5 149 446.5 L 150.5 445 Z "></path><path d="M 229 445 Q 232.3 443.9 231 448 Q 227.7 449.1 229 445 Z "></path><path d="M 252.5 449 L 254.5 453 L 256.5 452 L 258 454.5 L 255 456 L 257 460.5 L 253.5 462 L 250 459.5 Q 249.3 457.3 251.5 458 L 251.5 457 Q 248.2 458.1 249 455.5 L 252 454.5 L 250 450 L 252.5 449 Z "></path><path d="M 229.5 451 Q 232.1 450.3 231 453 L 228.5 454 L 227.5 452 L 229.5 451 Z "></path><path d="M 260.5 451 L 263 452.5 L 264 454.5 Q 262.8 457.3 261.5 455 L 259 453.5 L 260.5 451 Z "></path><path d="M 149.5 453 L 152 453.5 L 148.5 455 L 149.5 453 Z "></path><path d="M 229.5 455 Q 231.8 454.3 231 456.5 L 227 458 Q 225.9 455.3 228.5 456 L 229.5 455 Z "></path><path d="M 150 456 Q 152.7 454.9 152 457.5 Q 154.3 458.8 151.5 460 Q 148.2 461.1 149 458.5 L 150 456 Z "></path><path d="M 229.5 459 Q 232.1 458.3 231 461 L 229 461.5 L 230 463.5 L 227 465.5 L 230 466 Q 231.1 468.7 228.5 468 Q 226.5 470.8 222 470 Q 220.9 467.3 223.5 468 L 223.5 467 Q 220.9 467.7 222 465 L 227 463.5 L 224 463 Q 222.9 460.3 225.5 461 L 229.5 459 Z "></path><path d="M 140.5 460 L 142 464 Q 136.4 465.9 138 461 L 140.5 460 Z "></path><path d="M 96.5 464 Q 102.3 462.3 101 466 L 94 468 Q 92.5 464.2 95.5 465 L 96.5 464 Z "></path><path d="M 195.5 466 L 201 470 L 201 474 L 199.5 474 L 193.5 470 L 188 471 Q 186.2 466.1 192.5 468 L 195.5 466 Z "></path><path d="M 248.5 475 Q 250.8 474.3 250 476.5 L 246.5 479 L 237.5 480 L 231.5 484 L 229.5 483 L 227.5 483 Q 223.1 484.5 224 481.5 L 226.5 480 Q 228 482.5 233.5 481 L 236.5 478 L 245.5 477 L 248.5 475 Z "></path><path d="M 52 506 L 60.5 506 L 61 508 L 52 508.5 L 55 509.5 Q 53.8 512 50 511 L 52 506 Z "></path><path d="M 261 519 Q 265.1 517.3 264 521.5 Q 261.3 523.2 263 529.5 L 261.5 531 L 260 528.5 L 260 526.5 L 261 519 Z "></path><path d="M 177 520 L 179 520 L 179 525 L 177 525 L 177 520 Z "></path><path d="M 256.5 521 Q 259.3 520.4 258 526.5 Q 260.3 527.8 257.5 529 L 255 527.5 Q 253.8 522.3 256.5 521 Z "></path><path d="M 188.5 524 L 190 524.5 L 190 530 Q 187.3 531.1 188 528.5 L 187 525.5 L 188.5 524 Z "></path><path d="M 193.5 526 L 194 528 L 192 527.5 L 193.5 526 Z "></path><path d="M 252 526 Q 255.3 524.9 254 529 Q 250.7 530.1 252 526 Z "></path><path d="M 340.5 557 L 343 558.5 L 341.5 558 L 340.5 557 Z "></path><path d="M 32 560 L 40.5 560 L 41 561.5 L 39 568 Q 45 566.3 48.5 561 L 54.5 560 L 56 563 L 51.5 563 L 44 568.5 L 53.5 580 L 57 581 Q 58.4 585 51.5 583 L 47 582.5 L 48 580.5 L 39 572.5 L 39 582 L 33.5 582 Q 32.3 584.3 31 581.5 L 33 581 L 33 564.5 L 32 560 Z "></path><path d="M 61.5 560 L 64.5 561 L 69.5 560 L 71 563.5 L 69 569.5 L 68 581.5 L 66.5 583 L 63 582 L 62 579.5 L 62 567.5 L 63 563 Q 59.3 564.5 60 561.5 L 61.5 560 Z "></path><path d="M 75.5 560 Q 81.9 560.1 84 564.5 L 91.5 577 L 93 573.5 Q 90.3 571.8 92 565.5 Q 94.3 564.3 91.5 563 Q 87.8 564 89 561 L 97.5 561 L 99 562.5 L 96 563 L 97 569.5 L 97 580.5 L 94.5 584 Q 90.8 584.8 90 582.5 Q 90.8 580.3 88.5 581 L 80.5 570 L 80 581.5 L 80.5 583 L 73.5 583 L 73 581.5 L 74 580.5 L 74 562.5 L 73.5 561 L 75.5 560 Z "></path><path d="M 108.5 561 L 119.5 561 L 120 563 L 108 565 Q 106 568 107 575.5 L 110.5 580 Q 115.9 581.9 115 578.5 L 115 576.5 L 115 575 L 110 575 L 110 573 L 120 573 L 120 580.5 Q 117.5 584.5 109.5 583 L 102 578.5 L 100 569.5 L 104.5 563 L 108.5 561 Z "></path><path d="M 194.5 562 L 201.5 564 Q 202.8 561.8 204 564.5 L 203 567 Q 200.3 565.9 201 568.5 L 196 572 L 197 566.5 Q 196 564 191.5 565 Q 186.8 567.8 188 576.5 Q 189.9 582.1 198.5 581 L 201 580 L 199.5 583 L 196.5 584 L 194.5 584 Q 187 584 184 579.5 Q 181.4 576.6 182 570.5 L 187.5 564 L 194.5 562 Z "></path><path d="M 209.5 562 L 215 563 L 215 576.5 L 218.5 581 Q 223 582 224 579.5 L 224 564.5 Q 221.3 565.1 222 562 Q 228.1 560.3 230 563.5 L 228 566.5 L 228 577.5 L 231 583 L 224.5 582 L 217.5 584 L 211 578.5 L 211 566.5 L 209.5 565 Q 205.8 566 207 563 L 209.5 562 Z "></path><path d="M 236.5 562 L 249.5 562 L 253 564.5 Q 254.3 571.8 249.5 573 L 242.5 574 L 241 575.5 Q 240.4 581.7 243 584 L 238.5 585 L 234 584 Q 232.9 581.3 235.5 582 Q 238.3 580.8 237 575.5 L 236 572.5 L 237 568.5 L 236 566.5 Q 238.5 565 235 563.5 L 236.5 562 Z M 243 564 L 241 566 L 242 571 Q 241 573 244 572 Q 248 571 247 565 L 243 564 Z "></path><path d="M 262.5 562 L 272 563 L 272 567 L 270.5 567 L 269.5 568 L 266.5 565 L 262 565 L 262 571 L 270.5 570 L 274 573.5 L 275 577.5 L 272.5 582 L 263.5 584 L 262.5 583 L 254 583 Q 253.3 579.2 256.5 578 Q 260.7 582.2 269 581 L 270 577.5 L 268 573 L 259.5 573 L 257 570.5 Q 255.8 564.3 259.5 563 L 262.5 562 Z "></path><path d="M 148.5 564 L 154 565.5 L 151 567.5 L 149.5 565 L 149 568.5 L 152.5 573 L 153 570 Q 156.8 569.3 158 572.5 L 156.5 576 L 155 575.5 L 156 583.5 L 151.5 590 L 148 591 Q 146.9 588.3 149.5 589 Q 152.8 587.3 152 581.5 L 146 571.5 L 146 565 L 148.5 564 Z "></path><path d="M 141.5 572 L 147 574 L 148 579.5 Q 146.4 583.9 139.5 583 L 136 579.5 L 137 578.5 Q 136.3 573.8 139.5 573 L 141.5 572 Z M 144 576 L 143 577 Q 140 576 141 579 L 145 580 L 144 576 Z "></path><path d="M 286.5 579 Q 290.3 577.8 289 581.5 Q 288.3 583.8 284.5 583 Q 281.5 581.5 284.5 580 L 286.5 579 Z "></path><path d="M 338.5 591 L 340 593.5 L 338 592.5 L 338.5 591 Z "></path></svg>