<svg width="350" height="600" version="1.1" xmlns="http://www.w3.org/2000/svg" desc="Created with imagetracer.js version 1.2.5"><path d="M 151.5 4 L 152.5 5 L 174.5 5 L 175.5 4 L 332.5 4 L 334 5.5 L 334 43.5 L 335 46.5 L 334 50.5 L 335 54.5 L 335 56.5 L 335 94.5 L 336 97.5 L 336 99.5 L 336 131.5 L 337 132.5 L 337 288.5 L 337 290.5 L 336 297.5 L 337 298.5 L 337 316.5 L 336 318.5 L 337 319.5 L 337 359.5 L 336 361.5 L 337 362.5 L 337 584.5 L 338 586.5 Q 335.5 588 337 593.5 L 335.5 595 L 289.5 595 L 288.5 594 L 286.5 595 L 284.5 595 L 280.5 594 L 278.5 594 L 194.5 594 L 193.5 595 L 192.5 594 L 183.5 594 L 178.5 595 Q 177.3 592.8 172.5 594 L 171.5 595 L 157.5 595 L 155.5 596 L 153.5 595 L 150.5 596 L 146.5 595 L 144.5 595 L 134.5 595 L 133.5 596 L 131.5 595 Q 130.2 597.3 125.5 596 L 123.5 596 L 106.5 596 L 104.5 595 L 102.5 596 L 98.5 595 Q 96.8 597.8 90.5 596 L 87.5 595 L 84.5 596 L 56.5 596 L 54.5 596 Q 49.7 597.3 48.5 595 L 47.5 596 L 20.5 596 L 18.5 596 Q 13.4 593.6 4.5 595 L 3 593.5 L 4 589.5 L 4 555.5 L 3 554.5 L 3 539.5 L 4 538.5 L 4 446.5 Q 1.8 445.3 3 440.5 L 4 439.5 L 4 394.5 L 3 392.5 L 4 391.5 L 4 310.5 L 3 307.5 L 4 305.5 L 3 302.5 L 4 301.5 L 4 269.5 L 3 266.5 L 4 265.5 L 4 249.5 L 3 246.5 Q 5.3 245.3 4 240.5 L 3 239.5 L 3 216.5 L 4 215.5 L 4 53.5 L 5 52.5 L 5 36.5 L 4 33.5 L 5 31.5 L 4 28.5 L 5 27.5 L 5 6 L 98.5 6 L 100.5 5 L 102.5 6 L 104.5 6 L 123.5 5 L 125.5 5 L 127.5 6 L 128.5 5 L 150.5 5 L 151.5 4 Z M 187 7 L 186 8 L 157 8 L 155 8 L 147 8 L 146 9 L 144 8 L 134 8 L 133 9 L 131 8 L 128 9 L 126 8 L 112 8 L 110 8 L 105 9 L 103 9 L 98 8 L 93 9 L 91 9 L 57 9 L 56 8 L 54 9 L 24 9 L 21 8 L 19 8 L 14 9 L 11 8 Q 8 7 9 15 L 9 17 L 8 20 L 8 39 L 9 40 L 8 42 L 9 44 L 9 52 L 8 53 L 8 151 L 7 152 L 7 169 L 8 170 L 8 191 L 7 192 L 7 201 L 8 202 L 7 204 L 8 228 L 12 219 L 22 211 L 30 215 L 116 160 L 123 150 Q 125 151 124 148 L 140 145 L 149 139 L 154 132 L 153 130 L 150 127 L 146 123 L 147 120 L 151 117 L 154 110 L 160 106 L 159 103 L 163 95 L 167 91 L 177 91 L 184 84 L 193 80 L 195 81 L 199 79 L 204 81 L 207 79 L 212 81 Q 214 76 222 77 L 224 74 L 229 71 L 231 66 L 240 60 L 244 61 L 245 64 L 241 74 L 242 77 L 249 73 L 248 75 L 248 78 L 253 86 Q 252 91 254 93 L 254 97 L 252 100 L 245 103 Q 242 102 243 107 L 241 108 L 242 104 L 238 102 L 239 98 L 238 97 L 235 104 L 236 105 L 234 104 L 232 107 L 232 111 L 232 113 L 225 121 Q 222 120 223 123 L 222 123 L 227 113 L 226 109 L 225 109 Q 226 113 223 112 L 226 103 L 229 102 L 229 104 L 233 101 L 233 98 L 232 100 L 230 101 L 234 92 L 233 92 Q 229 91 231 95 Q 215 102 201 114 L 203 125 Q 204 129 200 127 L 199 131 L 200 134 L 202 133 Q 205 132 206 135 L 204 135 L 205 138 L 203 138 Q 200 139 202 141 Q 203 143 200 142 L 198 140 L 197 140 L 195 139 Q 191 138 192 141 L 198 144 L 197 146 L 194 145 L 192 146 L 193 148 L 188 150 L 179 147 L 178 144 L 176 148 L 181 152 L 192 155 L 208 166 Q 210 165 209 168 L 213 169 L 214 172 L 221 177 L 226 178 Q 229 180 226 181 L 222 180 L 222 182 L 222 184 L 227 184 L 228 187 L 230 184 L 239 189 Q 246 190 250 187 Q 257 186 259 190 Q 269 189 276 184 L 280 184 L 284 181 Q 286 182 285 179 L 291 176 Q 296 174 295 178 L 292 178 L 282 185 L 270 200 L 271 202 L 284 193 L 302 195 L 304 195 Q 308 196 307 194 L 306 194 L 299 194 L 298 192 L 304 192 L 302 190 Q 298 191 299 188 L 303 188 L 313 184 L 314 182 L 312 183 L 313 181 Q 317 179 316 184 L 312 187 L 314 187 L 312 194 L 310 196 L 303 198 L 293 196 L 291 196 L 289 195 Q 283 194 281 196 L 279 200 Q 280 203 278 202 L 278 204 L 277 207 L 277 209 Q 277 213 274 215 L 270 213 L 268 213 Q 265 214 266 212 L 264 213 Q 263 221 267 225 L 267 229 L 264 235 L 268 236 L 269 239 L 273 242 Q 274 246 270 247 L 270 250 L 274 253 L 273 256 L 274 257 L 285 254 Q 287 255 286 261 L 289 263 Q 294 262 296 264 L 298 268 L 303 265 L 306 265 L 311 270 L 310 272 L 308 273 L 306 276 Q 302 275 301 278 L 294 276 L 292 281 L 289 279 L 288 282 L 281 282 L 271 279 L 267 281 L 260 279 L 258 280 L 245 277 L 230 269 L 221 257 Q 222 254 219 255 L 218 253 Q 219 250 217 251 L 215 249 L 211 245 L 202 228 L 197 224 L 194 219 L 196 216 L 195 207 L 193 202 L 191 203 L 171 226 L 168 234 L 164 233 L 162 233 L 159 230 Q 156 229 157 232 L 160 233 L 164 241 L 165 239 Q 164 235 167 236 L 168 236 Q 169 242 166 244 L 168 247 L 167 249 L 168 254 L 176 259 L 196 286 Q 198 285 197 288 L 201 291 L 200 293 L 205 295 L 206 293 L 208 294 L 211 298 L 210 299 L 212 303 Q 213 305 220 304 Q 224 306 221 308 L 222 310 L 223 308 L 224 311 L 223 310 L 221 314 L 216 319 L 208 322 L 205 321 L 201 322 Q 194 317 182 317 L 176 313 L 174 314 L 180 317 L 182 321 L 182 319 L 198 323 L 199 327 L 193 328 Q 191 332 186 331 L 190 343 L 203 349 Q 210 356 214 365 L 217 364 L 222 365 Q 226 367 225 374 L 241 394 L 249 400 L 251 400 L 253 407 L 251 410 Q 252 412 249 411 L 242 419 L 250 424 L 258 422 Q 261 421 260 416 L 263 413 L 262 409 L 265 407 L 267 407 L 270 405 L 268 397 L 262 393 L 266 390 L 267 387 L 266 385 L 267 382 L 275 386 L 282 386 L 288 389 Q 292 392 293 397 L 299 402 Q 300 405 297 404 L 297 407 L 293 407 L 290 418 Q 298 417 304 411 L 306 409 L 308 403 L 308 378 L 309 377 L 308 375 L 307 375 L 303 373 L 304 371 Q 305 366 302 365 L 305 359 L 307 361 L 306 366 L 312 369 L 324 363 L 325 360 L 332 356 L 333 355 L 333 339 Q 324 341 317 347 L 310 354 L 308 359 Q 305 358 306 355 L 318 344 L 333 337 L 333 310 Q 333 309 329 309 L 320 298 L 317 306 L 317 314 L 314 322 L 309 326 L 307 325 L 302 318 L 299 328 L 290 334 L 287 332 L 284 327 Q 285 324 282 325 L 280 331 L 280 337 L 278 344 L 276 345 L 271 351 L 265 350 Q 261 348 262 342 L 260 344 L 258 353 L 254 359 L 254 362 L 245 380 L 243 383 L 238 386 L 237 384 L 242 382 L 247 368 L 242 369 L 238 376 L 233 379 L 230 378 L 233 376 Q 239 370 243 362 L 246 347 Q 247 344 249 346 Q 251 345 250 348 L 255 350 L 259 341 L 263 339 L 266 346 L 271 337 L 274 338 L 277 337 L 278 329 L 282 320 L 285 321 L 290 331 L 296 327 L 300 316 Q 301 312 305 313 L 307 322 L 310 323 L 313 316 L 313 311 L 317 293 L 322 294 L 324 301 L 331 307 L 333 307 L 333 280 L 332 279 L 333 276 L 333 242 L 333 240 L 333 162 L 332 161 L 333 158 L 332 153 Q 330 146 333 145 L 332 143 L 333 140 L 333 112 L 331 116 L 332 118 Q 333 122 329 120 L 328 102 L 328 100 L 326 66 L 322 67 L 322 83 L 323 84 Q 324 88 322 90 L 323 92 L 325 130 L 322 131 L 322 110 L 319 97 L 320 95 L 319 93 L 319 70 L 316 68 L 314 70 L 314 80 L 313 81 L 313 105 L 314 106 L 312 130 L 309 129 L 310 125 L 310 77 L 311 76 L 311 69 L 308 68 L 305 69 L 305 76 L 305 78 L 304 89 L 302 95 L 303 97 L 301 116 L 299 119 L 300 122 L 299 124 Q 300 127 297 126 L 301 80 L 301 78 L 302 77 L 302 69 L 298 67 L 290 96 L 289 104 L 289 106 L 285 116 L 283 126 L 281 129 Q 282 131 279 130 L 287 104 L 289 89 L 296 66 L 292 64 L 277 93 L 277 96 L 275 95 L 277 88 L 281 82 L 282 77 L 288 65 L 288 61 L 285 60 L 273 75 L 268 80 L 266 79 L 279 64 Q 278 61 281 62 L 283 59 L 280 54 L 273 57 L 260 67 L 264 74 Q 265 78 263 79 Q 260 78 261 81 L 264 80 L 269 82 L 271 88 L 264 86 L 262 86 L 261 88 L 265 90 Q 267 89 266 92 L 271 93 L 277 101 L 278 106 L 278 123 L 276 127 Q 272 132 266 134 L 247 135 L 239 138 L 234 136 Q 229 132 227 126 L 232 122 L 231 124 Q 232 132 238 135 L 242 135 L 249 132 L 255 132 L 260 129 Q 262 130 261 127 L 261 125 L 262 123 L 259 121 L 256 123 L 257 126 Q 253 127 256 129 L 255 128 L 241 133 L 240 131 L 234 129 Q 238 128 237 122 L 245 117 L 243 115 Q 238 113 239 117 L 238 117 Q 239 113 235 115 L 237 112 Q 236 108 240 109 L 239 111 Q 238 113 241 112 L 242 109 L 242 112 L 244 112 L 243 109 L 247 106 L 248 108 L 248 106 L 249 106 L 249 108 Q 252 107 251 110 L 254 110 L 252 109 L 254 106 Q 256 105 255 108 L 257 107 L 256 104 L 258 104 L 257 102 Q 258 99 254 100 L 254 98 L 257 97 L 255 96 L 257 93 L 255 91 Q 256 84 253 82 L 254 79 L 250 78 L 251 74 L 250 72 L 251 70 L 256 66 Q 261 68 260 65 L 273 54 L 277 53 L 275 47 Q 259 52 247 62 L 246 61 L 250 57 L 273 45 L 271 40 L 244 51 L 210 68 L 208 68 L 204 71 L 201 71 L 232 54 L 256 43 L 261 42 L 265 39 L 270 38 L 269 33 L 261 36 L 254 37 L 246 41 L 231 44 L 218 49 Q 201 51 189 57 Q 186 58 187 55 L 205 50 L 210 47 L 215 47 L 229 42 L 237 41 L 265 31 Q 270 33 268 27 L 262 26 L 260 27 L 247 27 L 246 28 L 233 28 L 232 29 L 229 28 L 227 29 L 225 28 L 224 29 L 213 29 L 212 30 L 198 30 L 200 28 L 212 28 L 213 27 L 244 25 L 246 25 L 268 24 L 269 21 L 251 17 L 241 17 L 240 16 L 222 15 L 221 14 L 207 14 L 197 12 Q 191 14 192 10 L 210 11 L 212 11 L 221 13 L 240 13 L 256 16 L 267 16 L 268 17 L 269 17 L 269 13 L 260 11 L 240 11 L 239 9 L 248 9 L 249 10 Q 252 8 259 9 L 261 9 L 271 11 L 272 7 L 254 7 L 253 8 L 249 7 L 247 7 L 244 8 Q 238 5 228 7 L 223 8 L 215 8 L 214 7 L 212 8 L 210 8 L 188 8 L 187 7 Z M 277 7 L 273 18 Q 271 30 274 39 L 278 48 L 284 55 L 291 60 L 307 66 L 322 65 L 331 61 L 331 23 L 330 22 L 331 20 Q 332 15 330 14 Q 331 7 330 7 L 277 7 Z M 331 64 L 329 66 L 329 81 L 330 82 L 330 94 L 332 101 L 333 98 L 332 97 L 332 79 L 331 78 L 331 64 Z M 240 69 L 236 75 Q 233 74 234 77 L 237 78 L 240 72 L 240 69 Z M 259 69 L 258 72 L 261 73 L 259 69 Z M 253 70 L 253 77 Q 255 81 257 78 Q 258 73 255 73 Q 256 69 253 70 Z M 233 73 L 231 76 L 233 75 L 233 73 Z M 229 76 L 229 78 L 231 77 L 229 76 Z M 245 77 L 241 78 L 240 80 Q 242 79 241 82 L 242 84 L 246 82 Q 247 78 245 77 Z M 233 78 L 230 81 L 233 81 L 233 78 Z M 239 80 L 237 82 Q 236 88 239 87 L 238 86 L 239 82 L 239 80 Z M 215 81 L 215 83 L 217 82 L 215 81 Z M 258 81 L 258 83 L 261 84 L 267 84 L 262 83 L 258 81 Z M 226 83 L 224 86 L 226 85 L 226 83 Z M 249 83 L 242 86 L 240 89 L 240 91 Q 247 90 249 95 L 250 90 Q 251 82 249 83 Z M 233 84 Q 231 89 235 90 L 236 90 L 233 84 Z M 268 84 L 269 86 Q 270 83 268 84 Z M 230 85 L 228 88 L 229 91 L 231 92 L 230 85 Z M 259 85 L 260 87 Q 261 84 259 85 Z M 259 88 L 258 91 L 259 93 L 261 92 Q 262 87 259 88 Z M 221 89 L 219 91 L 221 91 L 221 89 Z M 251 90 Q 251 96 247 99 L 251 96 L 251 90 Z M 217 91 L 212 94 L 208 93 L 206 94 Q 201 95 200 93 L 197 94 L 195 93 L 192 94 L 188 93 L 184 95 L 186 98 Q 187 100 191 99 L 198 105 L 219 92 L 217 91 Z M 237 92 Q 234 97 238 96 L 237 92 Z M 240 93 L 241 95 L 245 96 L 246 96 Q 245 92 240 93 Z M 263 94 Q 262 97 266 96 L 268 99 Q 271 100 270 97 L 263 94 Z M 169 96 L 166 97 L 167 99 L 170 98 L 169 96 Z M 260 97 L 262 104 L 261 106 L 262 108 L 262 109 L 261 108 L 260 108 L 261 118 L 263 121 L 265 114 L 264 104 L 262 102 Q 264 96 260 97 Z M 243 98 L 242 100 L 245 100 L 243 98 Z M 172 99 L 164 103 L 165 106 L 156 111 L 158 114 L 155 115 Q 158 116 157 121 L 154 120 L 151 119 Q 152 121 150 120 L 148 123 L 156 128 L 163 130 L 166 134 L 156 130 Q 157 135 153 137 L 154 141 L 154 151 L 151 147 L 152 145 L 143 152 L 140 152 L 141 155 Q 142 157 139 156 L 139 154 L 136 159 L 138 160 L 141 157 L 148 159 L 147 163 L 150 162 L 149 165 L 150 166 L 153 164 L 154 164 Q 150 165 151 170 L 148 169 L 149 167 Q 147 168 146 165 L 143 166 L 145 163 L 145 160 L 142 165 L 137 168 L 139 172 L 141 167 L 142 168 L 139 175 Q 140 177 142 175 L 156 179 L 162 176 L 161 174 L 162 168 L 160 168 Q 161 171 159 170 L 157 171 L 158 168 L 157 167 L 154 174 Q 152 172 151 175 L 149 174 Q 148 171 151 172 L 156 165 L 162 167 L 171 164 L 183 156 L 182 153 Q 175 160 166 164 L 160 164 L 177 156 L 178 154 L 174 150 L 172 151 L 175 140 L 174 140 L 174 139 L 173 136 Q 172 132 175 133 L 174 131 L 175 129 L 177 126 L 177 124 L 180 123 L 178 119 L 180 116 L 179 111 L 172 99 Z M 182 101 L 182 105 L 183 105 L 182 101 Z M 269 104 L 267 108 L 270 109 L 270 107 L 273 108 L 274 106 L 273 106 Q 270 107 271 105 L 269 104 Z M 181 107 L 181 109 L 184 111 L 183 109 Q 184 106 181 107 Z M 274 109 L 272 110 L 270 113 L 274 111 L 274 109 Z M 188 110 L 187 114 L 188 114 L 188 110 Z M 248 110 L 244 113 L 248 113 Q 251 112 248 110 Z M 259 110 L 257 112 Q 253 111 254 115 Q 255 118 260 117 L 260 111 L 259 110 Z M 191 112 Q 189 116 192 119 L 193 119 Q 194 113 191 112 Z M 253 112 L 251 115 L 253 114 L 253 112 Z M 273 113 L 273 114 L 275 114 L 273 113 Z M 271 114 L 270 115 Q 267 114 268 117 L 272 115 L 271 114 Z M 185 115 Q 183 118 186 117 L 185 115 Z M 190 118 L 190 124 L 191 124 L 190 118 Z M 197 119 L 197 123 L 198 123 L 197 119 Z M 269 119 L 268 121 L 270 120 L 269 119 Z M 183 120 L 186 128 L 194 133 L 194 131 Q 192 126 191 129 L 186 122 L 183 120 Z M 270 122 L 268 125 L 271 123 L 270 122 Z M 180 123 L 182 130 L 182 131 L 180 128 Q 177 131 178 138 L 181 139 L 183 143 L 182 146 L 185 147 L 184 146 L 186 143 Q 185 140 188 141 Q 189 143 190 141 L 185 138 L 186 135 L 188 136 Q 189 133 186 134 L 186 130 L 183 125 L 180 123 Z M 193 123 L 193 127 L 195 128 Q 197 122 193 123 Z M 242 129 L 241 131 L 243 130 L 242 129 Z M 262 129 L 262 131 L 264 130 L 262 129 Z M 189 131 L 188 133 L 190 134 L 189 131 Z M 197 135 L 193 136 L 194 138 L 198 136 L 197 135 Z M 189 136 Q 187 139 190 138 L 189 136 Z M 177 141 L 177 143 L 179 142 L 177 141 Z M 125 151 L 122 155 L 126 152 L 125 151 Z M 186 155 L 187 157 Q 188 154 186 155 Z M 132 158 L 130 160 L 133 160 Q 134 157 132 158 Z M 142 158 L 138 162 Q 135 161 136 164 L 139 164 L 143 160 L 142 158 Z M 125 159 Q 123 162 126 161 L 125 159 Z M 181 159 L 179 160 L 180 162 L 183 161 L 181 159 Z M 129 160 L 128 162 L 130 161 L 129 160 Z M 177 161 L 176 163 L 178 164 L 177 161 Z M 191 161 L 188 162 Q 187 165 191 164 Q 194 163 191 161 Z M 174 163 L 173 165 L 175 166 L 174 163 Z M 185 163 Q 184 166 187 165 Q 188 162 185 163 Z M 130 164 L 132 167 Q 133 163 130 164 Z M 205 165 Q 205 169 202 168 L 203 170 L 206 169 L 205 165 Z M 171 166 Q 168 171 172 170 L 171 166 Z M 182 166 L 182 171 L 176 173 L 175 177 L 177 177 L 178 180 Q 177 182 180 181 L 179 179 L 181 178 L 180 175 L 181 173 L 182 175 L 185 167 L 184 167 L 182 166 Z M 188 167 L 187 171 L 189 170 Q 194 169 196 172 L 198 172 L 198 178 L 200 178 L 201 175 Q 201 170 198 168 L 195 169 Q 193 165 192 168 L 188 167 Z M 123 168 Q 121 171 118 170 Q 116 175 121 174 L 124 170 Q 125 167 123 168 Z M 165 168 L 164 174 L 166 174 L 165 168 Z M 168 169 L 167 172 L 169 173 L 168 169 Z M 207 170 Q 207 173 204 172 L 205 174 L 207 173 L 207 170 Z M 192 172 L 191 175 L 192 175 L 192 172 Z M 210 172 L 208 174 L 210 175 L 210 172 Z M 109 173 L 108 175 L 110 174 L 109 173 Z M 126 173 Q 124 178 128 179 Q 130 178 129 181 L 130 181 Q 129 177 132 178 L 132 174 L 128 177 L 126 173 Z M 195 174 L 193 177 L 195 176 L 195 174 Z M 106 175 L 105 177 L 107 176 L 106 175 Z M 172 175 Q 170 178 173 177 L 172 175 Z M 208 175 L 206 177 L 208 177 L 208 175 Z M 120 176 L 120 178 L 118 178 Q 119 181 116 180 L 116 183 L 118 182 L 120 183 L 118 183 Q 116 185 117 191 L 121 193 L 120 192 L 121 188 L 125 184 L 128 187 L 129 186 L 132 187 L 133 194 L 134 191 L 134 186 L 132 182 L 127 181 L 125 179 L 122 178 Q 123 175 120 176 Z M 168 176 L 167 178 L 169 179 L 168 176 Z M 103 177 L 102 179 L 104 178 L 103 177 Z M 109 177 L 109 179 L 115 180 L 116 178 L 115 178 L 109 177 Z M 194 177 L 194 179 L 196 180 Q 197 176 194 177 Z M 210 177 L 200 186 L 189 188 L 195 192 L 195 190 L 193 190 Q 194 187 196 189 Q 206 186 211 178 L 210 177 Z M 137 178 Q 136 181 139 180 Q 140 177 137 178 Z M 143 178 L 141 182 Q 145 183 146 181 L 143 178 Z M 216 178 L 212 181 L 213 183 L 216 181 L 218 186 Q 220 185 218 184 L 220 180 L 216 178 Z M 100 179 L 99 181 L 101 180 L 100 179 Z M 107 179 L 105 181 L 108 186 Q 114 188 112 182 L 108 181 Q 109 178 107 179 Z M 174 179 L 168 183 L 166 183 L 167 187 L 170 188 L 174 187 L 176 184 L 175 184 Q 171 182 175 181 L 174 179 Z M 203 179 L 202 182 L 203 182 L 203 179 Z M 161 180 L 158 184 L 155 182 L 154 184 L 152 184 L 154 187 L 161 185 L 163 182 L 161 180 Z M 190 180 L 183 182 L 190 182 L 190 180 Z M 194 181 Q 192 184 195 183 L 194 181 Z M 95 182 L 49 213 L 41 217 Q 37 218 38 222 Q 41 223 40 220 Q 45 221 48 217 L 50 217 L 68 209 L 70 206 Q 73 200 81 199 L 93 186 Q 92 183 95 184 L 95 182 Z M 183 182 L 183 189 L 184 189 Q 185 184 183 182 Z M 136 183 L 136 185 L 138 186 Q 139 182 136 183 Z M 99 184 L 99 189 L 101 188 Q 103 183 99 184 Z M 96 185 L 95 188 L 96 192 L 99 191 L 97 188 L 98 186 L 96 185 Z M 104 185 L 102 189 L 102 190 L 104 189 L 105 190 L 101 191 L 103 198 L 106 199 Q 110 197 110 191 Q 109 188 108 190 L 104 185 Z M 125 186 L 123 188 L 124 191 L 125 191 L 125 186 Z M 204 186 L 202 188 L 203 190 L 207 191 Q 208 188 204 189 L 204 186 Z M 275 186 L 274 188 L 276 187 L 275 186 Z M 179 187 L 175 192 L 176 198 L 179 200 L 178 197 L 181 195 Q 182 199 184 196 L 183 193 L 179 190 L 179 189 L 179 187 Z M 219 187 L 214 191 L 212 194 L 221 190 L 222 188 L 221 188 L 219 187 Z M 140 188 L 138 194 L 140 202 Q 139 195 142 192 Q 143 187 140 188 Z M 161 188 L 161 194 L 160 190 L 158 191 Q 159 195 157 194 L 155 198 L 155 200 L 157 203 L 159 198 L 159 196 L 162 195 L 164 195 L 164 198 L 160 199 L 157 204 Q 156 207 159 206 L 161 208 Q 160 200 163 201 L 162 207 L 168 206 L 164 201 Q 163 198 166 199 L 170 204 L 172 200 Q 173 193 170 191 L 168 189 L 165 194 L 164 194 L 165 192 Q 167 186 161 188 Z M 229 188 L 226 191 L 229 192 L 228 191 L 233 189 L 231 188 L 229 188 Z M 129 189 L 129 191 L 127 195 L 124 196 L 127 197 L 130 193 Q 131 188 129 189 Z M 148 189 L 146 191 Q 145 194 149 192 L 149 194 Q 145 195 146 193 L 144 194 Q 143 196 147 195 L 147 198 L 147 199 L 152 198 L 154 194 L 148 189 Z M 308 189 L 306 190 L 306 191 L 310 190 L 308 189 Z M 235 190 Q 232 195 224 193 L 224 191 L 222 195 L 225 195 L 234 195 L 235 194 L 235 190 Z M 249 191 Q 247 194 250 193 L 249 191 Z M 265 191 L 261 192 Q 259 195 258 193 L 255 195 Q 249 193 250 197 L 256 200 Q 257 204 255 205 L 245 204 L 241 206 L 243 209 L 245 208 L 248 210 Q 251 211 250 208 L 253 210 Q 252 214 255 213 L 254 210 L 256 206 L 257 210 Q 261 211 259 206 L 265 203 L 266 209 L 269 210 L 267 206 L 268 198 L 267 198 L 264 197 L 267 193 Q 268 190 265 191 Z M 96 192 L 98 198 L 99 195 Q 100 190 96 192 Z M 202 192 L 202 194 L 204 193 L 202 192 Z M 116 193 L 115 194 Q 112 193 113 196 Q 115 199 116 196 L 116 193 Z M 218 193 L 218 198 L 217 197 Q 211 196 213 200 Q 216 199 218 202 Q 224 203 225 199 L 224 196 L 222 197 L 220 197 L 220 193 L 218 193 Z M 243 193 L 241 196 L 245 195 L 243 193 Z M 120 194 L 120 198 L 123 199 L 127 199 Q 122 198 120 194 Z M 197 194 Q 194 199 198 198 L 199 199 L 197 194 Z M 101 195 L 99 198 L 101 200 L 103 200 L 101 195 Z M 90 196 Q 91 199 88 198 L 90 202 L 93 201 L 94 199 L 90 196 Z M 117 197 L 113 200 Q 115 203 117 199 L 117 197 Z M 234 197 L 232 199 L 234 199 L 234 197 Z M 242 198 L 240 200 L 245 201 Q 248 202 247 199 L 242 198 Z M 111 199 L 109 201 Q 110 203 108 202 Q 103 203 104 208 L 108 206 L 109 208 L 111 203 L 111 199 Z M 128 199 L 123 202 L 119 201 L 113 204 L 116 204 L 117 206 L 119 203 L 123 204 L 125 204 L 130 201 L 128 199 Z M 135 199 Q 134 202 137 201 Q 138 198 135 199 Z M 196 199 L 197 201 Q 198 198 196 199 Z M 231 199 L 229 202 Q 229 206 233 208 Q 235 207 234 211 L 237 210 Q 240 209 239 213 L 242 214 L 240 209 L 236 207 L 237 202 L 231 203 L 231 199 Z M 184 200 L 183 202 L 186 203 L 188 203 L 184 200 Z M 209 200 L 208 203 L 204 205 L 205 207 L 204 210 L 211 209 L 210 202 L 209 200 Z M 144 201 L 143 203 L 146 205 L 145 211 Q 148 212 147 209 L 151 209 L 150 212 Q 149 214 152 213 L 153 204 Q 152 201 151 203 L 147 202 L 144 201 Z M 78 202 L 76 203 L 73 207 L 67 212 L 65 212 L 62 215 L 61 214 L 54 218 L 56 221 L 49 220 L 49 218 L 48 221 L 52 222 L 56 230 L 56 234 L 50 225 Q 51 222 49 223 Q 46 218 44 222 Q 43 224 47 223 L 51 232 L 51 240 L 56 239 L 58 234 Q 57 231 61 232 L 63 236 L 57 240 L 53 240 L 50 246 L 47 246 L 51 243 L 51 241 Q 49 244 45 243 L 43 237 L 42 237 L 43 243 L 46 244 Q 47 247 45 246 Q 40 243 40 237 Q 28 237 23 229 L 7 237 L 7 269 L 8 270 L 8 278 L 7 279 L 8 283 L 8 301 L 7 302 Q 6 306 8 308 L 7 310 L 7 312 L 8 314 L 8 350 L 7 351 L 8 354 L 8 435 L 7 436 L 8 443 L 10 442 L 12 442 L 14 441 L 19 444 L 23 442 L 34 431 L 37 430 L 45 420 Q 43 413 47 414 L 47 421 L 41 429 L 34 433 L 21 445 Q 15 446 14 443 L 7 444 L 7 470 L 8 471 L 7 473 Q 10 474 8 480 L 8 482 L 7 485 L 8 489 L 8 491 L 8 501 L 7 502 L 8 505 L 8 507 L 7 510 L 8 513 L 7 516 L 8 526 L 8 528 Q 9 536 7 540 L 10 541 Q 14 538 21 538 L 25 535 L 30 528 L 35 530 L 40 537 L 42 536 Q 48 536 52 539 L 68 532 L 70 533 L 72 533 L 78 523 L 81 524 Q 84 528 83 534 L 87 533 L 90 533 L 98 537 L 100 537 L 106 538 L 109 539 L 111 539 Q 110 542 113 541 L 115 541 L 130 542 L 130 536 L 128 532 L 124 533 L 120 528 L 114 525 L 111 527 L 108 525 L 102 527 Q 98 526 99 521 L 96 522 Q 91 523 90 520 L 85 514 L 87 510 L 87 508 L 81 509 L 80 506 L 77 503 L 75 504 L 70 503 Q 68 499 67 502 L 63 500 L 61 501 L 61 496 L 65 492 L 65 490 L 66 489 L 63 486 Q 62 483 65 484 L 65 482 L 64 482 Q 65 484 63 483 L 61 481 L 57 478 L 58 473 L 57 469 Q 55 465 50 466 L 48 462 Q 49 457 47 458 L 44 453 L 45 451 L 50 447 L 49 445 L 51 440 L 59 432 L 68 431 L 72 429 L 81 429 L 88 433 L 89 436 L 93 435 L 101 440 L 103 443 L 102 445 L 104 444 L 107 450 Q 106 452 109 451 L 108 454 L 106 454 L 100 448 Q 97 449 98 446 L 94 445 L 81 448 Q 76 449 77 447 L 81 444 L 89 443 L 91 443 L 94 441 L 97 443 L 97 441 L 91 438 L 90 441 L 85 435 Q 82 436 83 433 L 79 431 L 72 431 L 69 433 L 59 434 L 54 441 L 55 442 L 64 438 L 67 439 L 69 438 Q 72 437 70 441 Q 65 441 63 445 L 57 446 L 48 452 L 53 464 L 60 461 L 58 457 L 64 455 L 69 448 Q 71 449 70 446 L 72 446 L 72 445 L 73 445 L 72 447 L 74 447 L 75 444 L 76 444 L 72 452 L 70 452 L 68 451 L 66 460 L 65 461 Q 62 460 63 463 L 61 464 Q 57 463 58 466 Q 62 465 65 468 Q 70 469 72 467 L 73 465 L 73 468 L 77 470 Q 79 475 76 474 L 74 474 L 71 472 L 63 477 Q 62 479 65 478 L 66 481 L 66 479 L 90 473 Q 91 476 93 472 L 91 466 L 88 470 Q 82 469 81 473 L 79 469 L 85 467 L 83 462 L 76 458 L 77 454 L 77 457 Q 80 458 79 455 Q 82 454 81 457 L 85 457 Q 85 462 89 464 L 97 463 L 99 463 L 102 464 L 110 460 L 122 458 Q 121 455 117 456 L 115 456 L 112 454 Q 109 455 110 452 L 123 454 L 126 452 L 136 451 L 141 449 L 144 445 L 146 439 L 147 441 L 148 439 L 147 424 L 137 404 L 140 399 L 140 392 Q 136 384 136 373 L 127 353 L 126 338 L 122 332 Q 116 334 117 330 Q 109 332 108 327 L 106 328 L 104 327 L 104 317 L 103 327 L 102 326 Q 99 327 100 324 L 98 324 L 96 321 L 102 293 L 105 289 L 104 288 L 104 287 Q 105 283 103 282 Q 100 283 101 279 L 98 278 L 99 273 L 97 274 Q 98 276 95 275 L 87 265 L 88 254 L 87 254 Q 88 257 83 255 L 80 253 Q 81 246 79 245 L 74 249 L 70 249 L 68 245 L 69 242 L 68 237 L 69 235 L 69 232 L 65 235 L 64 231 L 67 232 L 68 230 L 67 228 Q 65 222 69 223 L 71 227 L 72 227 L 71 224 Q 70 221 74 222 Q 77 223 76 227 L 77 227 L 76 223 Q 75 218 79 220 L 80 223 Q 78 228 82 227 L 81 224 Q 80 217 83 218 L 85 225 L 87 224 L 84 216 L 87 215 L 89 222 L 90 222 Q 88 216 92 217 L 91 216 Q 92 211 89 212 L 89 208 L 85 209 L 83 213 Q 79 213 78 211 L 79 207 Q 81 201 78 202 Z M 176 202 L 171 208 L 174 211 L 177 209 L 176 207 Q 175 203 178 204 Q 179 201 176 202 Z M 98 203 L 93 207 L 95 207 L 96 210 L 96 208 L 99 209 L 100 204 L 98 203 Z M 182 203 L 181 205 L 185 208 L 182 203 Z M 222 204 L 216 207 L 217 211 L 221 212 L 226 205 L 222 204 Z M 114 206 L 116 208 Q 117 205 114 206 Z M 118 206 L 117 209 L 118 209 L 118 206 Z M 180 206 L 179 208 L 183 210 L 180 206 Z M 226 207 L 226 209 L 222 212 L 223 214 L 221 214 L 215 213 L 215 212 L 217 213 L 218 213 L 215 208 L 213 210 L 212 216 L 214 217 L 216 216 L 213 220 L 217 222 L 218 216 L 219 216 L 218 223 L 221 224 L 226 223 L 230 218 L 228 210 Q 229 206 226 207 Z M 272 207 L 273 209 Q 274 206 272 207 Z M 126 208 L 124 212 L 121 211 L 119 214 Q 120 218 128 217 L 131 213 Q 130 210 126 211 L 126 208 Z M 139 208 Q 137 211 140 210 L 139 208 Z M 134 209 Q 133 212 136 211 Q 137 208 134 209 Z M 168 209 L 168 212 L 170 211 Q 171 208 168 209 Z M 201 209 Q 198 217 202 222 L 204 223 L 203 221 Q 204 216 201 217 L 201 209 Z M 159 210 L 156 211 L 155 214 L 157 214 Q 158 212 159 215 L 158 220 L 161 221 L 162 216 L 165 214 L 166 216 L 166 214 Q 165 209 159 210 Z M 100 212 L 95 218 L 94 217 L 92 218 L 93 220 L 96 221 Q 98 220 97 217 L 100 214 L 100 212 Z M 22 213 L 16 221 L 17 222 L 19 219 L 24 215 Q 25 212 22 213 Z M 113 213 Q 111 216 114 215 L 113 213 Z M 246 213 L 246 216 Q 249 215 246 213 Z M 137 214 L 137 216 L 138 217 L 134 215 L 135 223 L 140 225 L 142 224 L 139 219 L 141 215 L 137 214 Z M 149 214 L 147 216 L 149 216 L 149 214 Z M 170 214 L 171 223 L 172 223 L 171 219 Q 173 213 170 214 Z M 259 215 L 257 217 L 251 218 L 253 224 L 251 223 Q 252 220 249 221 L 250 226 L 251 227 L 247 223 Q 248 220 245 221 L 245 224 L 248 228 L 249 229 L 246 228 Q 245 231 248 230 L 247 232 L 245 230 L 246 226 L 243 228 L 244 232 Q 243 234 242 232 L 240 236 L 240 234 L 237 236 L 239 240 L 240 238 L 242 237 L 241 239 Q 239 243 238 240 L 235 245 Q 238 246 240 243 L 239 245 L 243 249 L 244 245 L 246 246 L 249 244 L 244 250 L 246 250 L 245 253 L 249 251 Q 247 255 244 254 L 245 257 Q 246 259 248 257 L 255 261 L 256 258 L 258 259 L 253 262 L 250 267 Q 250 271 253 271 L 257 270 L 258 267 L 264 262 L 259 268 L 262 269 L 264 268 L 268 266 L 267 268 L 269 268 L 270 268 Q 267 269 268 274 L 273 277 L 276 276 L 278 272 L 281 268 L 279 269 L 277 268 L 275 271 L 277 272 L 276 272 L 275 271 L 271 274 L 276 268 L 276 265 L 282 262 L 281 260 L 277 263 L 280 258 L 275 259 L 273 262 L 275 261 L 273 264 L 271 263 Q 269 265 268 263 L 270 263 L 270 262 Q 269 259 268 261 L 263 259 L 259 264 L 255 267 L 257 262 Q 258 259 260 261 Q 262 260 261 256 L 260 255 L 264 250 Q 260 249 261 252 L 259 252 L 260 250 L 254 255 Q 255 257 253 256 Q 251 258 250 256 L 253 255 L 258 250 Q 255 247 256 241 L 260 242 L 262 239 L 261 241 L 268 245 L 267 244 L 270 243 Q 271 240 267 241 L 266 238 L 265 240 L 264 240 Q 265 237 262 238 L 261 235 Q 260 229 263 227 L 262 224 Q 261 221 259 224 Q 260 226 258 225 L 260 222 L 259 215 Z M 234 216 L 233 220 L 230 224 Q 232 223 231 226 L 234 228 L 233 226 L 238 225 L 237 222 Q 232 223 234 219 Q 236 217 234 216 Z M 26 217 L 25 220 L 29 225 L 29 227 Q 31 232 39 231 Q 38 233 32 232 L 29 229 L 25 226 Q 24 230 28 231 Q 30 230 29 233 L 31 234 Q 35 233 37 235 L 50 234 L 48 228 Q 46 223 45 226 Q 39 228 40 225 L 36 220 L 34 222 Q 28 221 26 217 Z M 152 217 L 148 220 L 148 221 Q 152 221 152 219 L 152 217 Z M 209 217 L 207 219 Q 206 221 209 220 Q 211 221 209 223 L 209 228 L 215 228 L 216 225 L 212 223 L 211 221 Q 213 216 209 217 Z M 241 217 L 241 219 L 243 218 L 241 217 Z M 237 218 L 236 220 L 238 219 L 237 218 Z M 112 219 L 114 222 L 115 222 L 112 219 Z M 144 219 L 145 221 Q 146 218 144 219 Z M 249 219 L 247 221 L 249 221 L 249 219 Z M 123 220 L 123 223 L 122 223 Q 123 220 121 221 Q 116 223 120 226 Q 119 228 122 227 L 122 228 Q 118 229 119 227 L 112 223 L 111 225 L 115 226 Q 116 233 112 236 L 115 234 L 116 237 L 121 240 L 122 232 L 122 240 L 130 243 Q 131 240 127 241 L 127 239 L 132 238 L 131 237 L 133 233 L 132 223 L 129 225 Q 126 224 127 227 L 125 227 L 124 232 L 128 236 L 126 235 L 123 232 Q 124 224 130 222 Q 128 219 123 220 Z M 242 221 Q 237 223 241 225 L 241 224 L 243 224 L 242 221 Z M 13 222 L 12 227 L 13 228 L 16 224 L 13 222 Z M 103 222 L 102 225 L 103 225 L 103 222 Z M 146 222 L 144 227 L 138 231 L 134 239 L 138 241 L 138 238 Q 142 239 143 237 L 142 234 L 146 226 L 146 222 Z M 152 222 L 152 225 L 160 227 L 164 225 Q 166 224 165 228 L 167 229 L 166 225 L 165 223 Q 160 224 159 222 L 158 224 L 159 225 L 157 224 L 154 224 Q 155 221 152 222 Z M 97 223 Q 94 224 96 226 L 96 228 Q 93 227 94 230 Q 92 234 91 231 L 89 234 Q 92 235 88 237 Q 87 239 90 238 Q 91 240 92 238 L 90 237 L 92 236 L 93 237 L 92 235 L 97 229 L 96 231 L 98 231 Q 100 225 97 223 Z M 205 223 L 206 225 Q 207 222 205 223 Z M 91 224 L 90 227 L 88 227 L 89 229 L 88 228 L 86 231 L 87 232 L 85 230 L 83 231 L 85 234 L 85 235 L 83 233 L 81 233 L 83 230 L 83 228 Q 79 229 80 233 L 77 232 L 74 233 L 72 241 Q 74 242 71 244 L 73 247 L 76 240 Q 78 239 77 242 L 78 242 L 77 238 L 75 238 L 77 235 L 77 237 L 79 236 Q 81 237 80 235 L 82 235 Q 85 234 83 238 L 85 238 L 86 241 L 88 240 L 87 237 L 85 237 L 87 234 L 91 230 L 92 231 L 94 227 L 91 224 Z M 147 224 Q 146 228 149 227 Q 150 223 147 224 Z M 9 226 L 9 228 L 11 227 L 9 226 Z M 224 226 L 218 232 L 220 233 L 224 232 Q 226 237 228 234 L 227 230 L 231 228 Q 229 225 224 226 Z M 105 229 Q 101 231 105 233 L 104 235 L 101 234 L 99 238 L 100 239 Q 101 236 104 237 L 105 241 L 104 241 L 102 242 L 103 239 L 102 239 Q 99 238 100 241 L 100 243 L 100 244 L 98 242 L 99 240 L 98 239 L 94 244 Q 97 243 96 246 L 93 247 L 95 252 Q 99 251 100 245 L 100 249 L 94 253 L 91 257 L 92 258 L 89 261 L 90 265 L 91 265 Q 90 262 93 263 Q 94 259 96 262 Q 98 261 96 260 L 100 256 Q 103 258 103 264 Q 105 263 103 262 Q 105 263 107 260 L 107 262 L 103 265 L 105 266 L 102 271 L 103 275 L 104 273 L 104 271 Q 103 268 106 269 L 104 272 L 105 273 L 103 276 L 105 282 L 106 280 L 108 262 L 109 261 Q 111 251 105 250 L 106 246 L 103 248 L 102 247 L 108 242 L 105 238 L 107 233 L 105 229 Z M 148 229 L 146 231 L 148 232 L 148 229 Z M 166 229 L 164 231 L 166 231 L 166 229 Z M 213 229 Q 211 235 213 238 L 221 241 L 222 244 L 223 242 L 221 239 L 218 239 L 214 237 L 213 229 Z M 216 229 L 215 232 L 216 232 L 216 229 Z M 239 229 L 241 231 Q 242 228 239 229 Z M 8 231 L 6 234 Q 8 237 9 234 L 8 231 Z M 96 231 L 93 235 L 95 235 L 94 237 L 97 235 L 96 231 Z M 99 231 L 97 233 L 99 234 L 94 240 Q 97 241 96 239 L 101 234 L 99 231 Z M 232 231 L 230 233 L 232 233 L 232 231 Z M 151 232 L 149 234 L 150 236 L 147 240 L 149 240 L 151 237 L 151 232 Z M 217 232 L 216 236 L 219 237 L 222 236 L 222 238 Q 225 239 224 237 Q 222 233 217 235 L 217 232 Z M 154 233 L 153 237 L 154 237 L 154 233 Z M 233 235 L 232 237 L 235 237 L 233 235 Z M 230 237 L 227 241 L 229 241 L 231 238 L 230 237 Z M 83 238 L 84 241 Q 86 242 85 239 L 83 238 Z M 93 238 L 91 241 L 90 240 L 88 241 L 91 244 Q 93 245 92 242 L 94 242 L 93 238 Z M 152 239 L 150 242 L 152 241 L 152 239 Z M 157 239 Q 156 242 159 241 Q 160 238 157 239 Z M 231 239 L 231 241 L 234 240 L 235 242 L 236 240 L 231 239 Z M 116 240 L 112 242 L 114 245 L 120 243 L 120 242 L 117 242 Q 118 239 116 240 Z M 86 241 L 83 250 L 84 251 L 85 249 L 89 247 Q 91 248 90 245 L 86 241 Z M 109 242 L 106 245 L 108 245 L 110 245 Q 112 246 111 244 L 109 242 Z M 135 242 L 133 244 L 134 248 L 137 249 Q 139 248 138 244 L 135 242 Z M 146 242 L 140 244 L 143 245 L 144 248 Q 147 249 149 246 Q 152 247 151 244 L 146 242 Z M 126 243 L 125 249 L 128 250 L 129 247 L 131 247 L 131 245 L 130 245 L 126 243 Z M 152 243 L 153 248 L 156 249 L 157 247 L 157 245 L 157 243 L 152 243 Z M 160 243 L 159 246 L 161 247 L 160 243 Z M 226 243 L 224 246 L 225 248 Q 224 251 228 250 L 229 248 Q 225 249 226 246 Q 228 244 226 243 Z M 93 244 L 91 246 L 93 246 L 93 244 Z M 223 244 L 221 246 L 222 252 L 226 255 L 227 254 L 226 251 L 222 249 L 223 246 L 223 244 Z M 261 244 L 260 246 L 264 248 Q 266 249 265 246 Q 262 247 261 244 Z M 118 245 Q 115 246 116 251 L 120 250 Q 122 244 118 245 Z M 164 246 Q 161 247 163 249 Q 162 251 165 250 L 164 246 Z M 109 247 L 108 250 L 109 252 Q 112 253 111 250 L 114 250 L 114 248 L 113 248 L 109 247 Z M 122 247 L 124 250 L 124 249 L 122 247 Z M 131 248 L 130 251 L 131 251 L 131 248 Z M 134 249 L 133 253 L 134 253 L 134 249 Z M 266 250 L 262 255 L 264 254 L 267 256 L 269 256 L 269 253 Q 272 254 271 251 Q 267 250 266 253 L 266 252 L 266 250 Z M 129 252 L 128 255 L 129 255 L 129 252 Z M 136 252 L 138 267 L 146 288 L 152 298 L 154 297 L 157 301 L 159 306 L 160 303 L 165 307 Q 166 310 163 309 L 163 310 Q 165 309 164 312 L 166 312 L 167 308 L 173 313 L 174 313 L 167 307 L 164 304 L 158 299 Q 150 293 146 284 L 144 279 L 143 269 L 142 269 L 139 266 L 137 254 L 136 252 Z M 147 252 L 147 257 L 148 257 Q 149 253 147 252 Z M 117 253 L 118 257 L 121 258 L 120 263 L 119 262 L 117 261 L 118 270 L 119 270 Q 118 265 121 266 L 123 263 L 127 264 Q 129 257 125 255 Q 122 254 123 257 L 121 257 L 119 255 L 117 253 Z M 232 253 L 231 257 L 229 260 L 237 258 L 236 257 L 234 254 L 236 254 L 234 253 L 232 253 Z M 242 254 L 240 257 L 244 256 L 242 254 Z M 135 255 L 134 262 L 132 260 L 131 260 Q 133 266 129 265 L 130 278 L 131 278 Q 132 270 130 266 L 133 267 L 135 263 L 135 255 Z M 163 256 L 161 258 Q 160 260 163 259 L 163 256 Z M 281 256 L 281 259 L 284 258 Q 285 255 281 256 Z M 116 257 L 111 263 L 113 269 L 114 264 L 114 262 Q 113 259 116 260 L 116 257 Z M 149 257 L 148 260 L 149 260 L 149 257 Z M 169 258 L 167 259 L 163 264 L 164 265 L 165 263 L 169 260 L 169 258 Z M 244 258 L 243 259 Q 238 258 239 261 Q 243 260 245 263 Q 247 262 246 265 L 247 265 Q 246 262 249 263 Q 250 260 246 261 L 244 258 Z M 141 260 Q 139 263 142 262 L 141 260 Z M 173 260 L 169 262 L 167 266 L 173 263 Q 176 262 177 265 Q 174 266 175 271 L 178 274 L 177 275 Q 178 277 175 276 L 176 279 L 181 276 L 182 274 L 178 264 L 173 260 Z M 234 261 L 231 262 L 232 266 L 242 273 L 244 269 L 243 266 L 238 261 L 234 261 Z M 97 262 Q 97 265 94 264 L 94 272 L 96 272 L 95 270 L 96 266 L 96 268 L 97 268 L 97 262 Z M 144 262 L 143 265 L 144 265 L 144 262 Z M 147 262 L 147 266 L 151 266 L 151 265 Q 151 262 147 262 Z M 136 263 L 134 269 L 136 269 L 137 270 L 136 263 Z M 153 263 L 152 265 L 154 266 L 153 263 Z M 159 263 L 157 264 L 158 266 L 160 265 Q 161 262 159 263 Z M 128 264 L 126 267 Q 122 266 123 269 L 128 267 L 128 264 Z M 290 264 L 281 270 L 282 272 L 281 271 Q 276 273 276 278 L 285 279 L 289 273 L 289 270 L 293 268 Q 294 264 291 265 L 288 270 L 290 267 L 290 264 Z M 301 267 L 299 270 L 296 272 L 294 272 L 292 271 Q 289 270 290 273 Q 291 275 296 274 L 298 276 Q 300 277 299 273 L 304 273 L 303 272 Q 304 269 306 271 L 307 269 L 306 269 L 301 267 Z M 115 268 L 116 270 Q 117 267 115 268 Z M 134 269 L 132 273 L 134 273 L 134 269 Z M 154 269 L 152 272 L 153 276 L 152 278 L 154 277 L 154 279 L 160 282 L 160 283 L 154 279 L 153 285 L 154 286 Q 150 287 152 283 L 152 281 L 151 273 L 149 274 L 150 277 L 149 282 Q 149 286 153 288 L 157 288 L 162 284 L 164 280 L 163 275 Q 162 272 161 274 L 160 271 L 159 273 L 158 272 Q 154 271 155 274 L 154 274 L 155 272 L 154 269 Z M 128 271 L 126 273 Q 123 272 124 276 L 128 273 L 128 271 Z M 168 271 L 166 273 L 170 274 L 169 273 Q 170 270 168 271 Z M 117 272 Q 115 275 114 273 L 112 278 L 116 278 L 116 277 L 117 274 L 117 272 Z M 246 272 L 246 275 L 250 275 L 250 274 L 246 272 Z M 119 273 Q 118 277 121 276 Q 122 272 119 273 Z M 166 274 L 165 276 L 168 277 L 167 280 Q 166 283 169 282 L 172 286 L 172 282 Q 176 281 179 284 L 180 284 L 166 274 Z M 140 275 L 137 279 L 141 280 L 142 284 L 143 284 L 140 275 Z M 291 275 L 290 278 L 291 278 L 291 275 Z M 149 276 L 148 281 L 149 281 L 149 276 Z M 262 276 L 266 280 L 266 279 Q 266 275 262 276 Z M 184 277 L 181 279 L 180 281 Q 184 282 184 279 L 184 277 Z M 129 279 L 126 283 L 129 288 L 130 288 L 129 279 Z M 113 280 L 112 285 L 114 285 L 112 288 L 115 288 L 115 290 L 112 290 Q 113 294 110 293 L 111 298 L 115 299 L 117 294 L 117 284 L 116 283 Q 117 278 113 280 Z M 120 280 L 119 288 L 121 288 Q 123 282 120 280 Z M 187 281 L 184 282 L 185 284 L 187 283 L 187 281 Z M 191 282 L 189 285 L 191 284 L 191 282 Z M 136 283 L 134 285 L 135 287 L 134 289 Q 132 294 138 292 L 137 291 L 140 285 Q 139 282 138 284 L 136 283 Z M 144 284 L 144 289 L 145 289 L 144 284 Z M 110 285 L 109 288 L 110 288 L 110 285 Z M 183 285 L 184 287 L 185 287 L 183 285 Z M 126 287 L 125 290 L 126 290 L 126 287 Z M 189 287 L 187 289 L 198 292 L 200 292 L 189 287 Z M 108 288 L 106 290 Q 108 296 105 298 L 106 300 L 105 302 L 106 308 L 109 292 L 108 288 Z M 162 288 L 158 297 L 160 296 L 163 297 Q 165 302 167 299 L 167 296 L 165 292 Q 169 293 170 291 L 164 290 L 162 288 Z M 146 289 L 145 291 L 144 290 L 142 291 L 147 298 L 149 297 L 146 289 Z M 184 289 L 184 291 L 187 291 L 184 289 Z M 121 291 L 119 293 L 119 300 L 121 300 L 120 297 L 121 294 L 121 291 Z M 126 291 L 125 294 L 127 301 L 131 299 L 130 301 Q 126 300 127 303 L 128 304 L 126 302 L 123 302 Q 122 304 125 303 L 125 308 L 128 309 L 131 307 Q 132 304 130 305 L 130 304 L 132 305 Q 134 306 133 303 L 133 301 L 131 294 Q 130 290 126 291 Z M 194 292 L 188 294 L 191 294 L 192 297 L 195 295 L 196 299 L 198 298 L 197 293 L 194 292 Z M 124 293 L 123 299 L 124 299 L 124 293 Z M 138 294 L 135 297 L 137 303 Q 136 306 139 305 L 138 301 L 142 302 Q 144 303 143 301 L 137 298 L 139 295 L 138 294 Z M 134 295 L 133 298 L 134 298 L 134 295 Z M 175 297 L 169 300 L 172 301 L 177 298 Q 181 300 178 302 L 180 302 L 181 299 Q 180 296 175 297 Z M 151 298 L 148 302 L 151 301 L 152 302 L 151 298 Z M 205 298 L 203 300 L 205 303 L 206 301 Q 207 297 205 298 Z M 115 301 L 110 304 Q 107 303 108 308 L 111 306 L 112 309 L 110 310 L 114 312 L 115 309 L 114 306 L 116 303 Q 117 300 115 301 Z M 193 301 L 189 303 L 190 305 L 194 303 Q 195 300 193 301 Z M 197 301 L 195 305 Q 198 306 196 308 L 197 310 Q 198 312 194 311 L 194 314 L 191 313 L 189 313 L 191 316 L 195 315 L 197 318 L 199 317 L 201 314 Q 202 311 206 312 Q 207 315 204 314 Q 203 317 207 316 L 208 314 Q 207 311 210 312 L 211 313 L 210 310 L 206 311 L 204 311 L 201 304 L 197 301 Z M 120 302 Q 118 305 121 304 L 120 302 Z M 153 302 L 152 304 L 150 304 L 159 316 L 160 316 L 153 302 Z M 176 304 L 172 309 Q 174 312 179 312 L 183 314 L 187 312 L 186 308 L 185 310 L 182 312 L 181 309 L 180 311 L 175 309 L 177 305 L 176 304 Z M 118 305 L 117 329 L 118 329 L 118 305 Z M 218 305 L 216 307 L 217 308 L 221 307 L 218 305 Z M 179 306 L 178 310 L 179 310 L 179 306 Z M 136 307 L 135 310 L 136 310 L 136 307 Z M 143 307 L 140 308 L 141 311 L 144 309 L 146 310 L 147 310 L 143 307 Z M 134 308 L 133 310 L 131 311 L 127 317 L 128 319 L 131 317 L 132 321 L 134 322 L 133 319 L 136 317 Q 139 320 139 327 L 139 324 L 141 324 L 138 320 L 137 315 Q 139 309 134 311 L 134 308 Z M 104 309 L 104 312 L 100 314 L 104 314 L 105 316 L 106 310 L 104 309 Z M 119 310 L 119 312 L 122 311 L 119 310 Z M 128 310 L 126 312 L 128 312 L 128 310 Z M 152 315 L 152 319 L 147 319 L 147 321 Q 148 323 150 321 L 153 323 Q 152 327 155 326 Q 154 322 157 320 L 156 317 Q 153 318 154 315 L 152 315 Z M 171 315 Q 170 317 173 316 L 173 317 Q 170 316 171 319 L 174 319 Q 176 313 171 315 Z M 108 316 L 108 321 L 109 321 L 108 316 Z M 161 316 L 160 318 L 165 324 L 161 320 L 159 322 L 161 327 L 161 326 Q 163 323 164 326 L 163 326 L 161 329 L 164 328 L 163 330 L 164 332 Q 163 334 170 333 Q 174 331 174 326 L 174 324 L 175 321 L 173 320 L 170 321 L 169 319 L 167 320 L 161 316 Z M 122 319 L 120 322 L 122 321 L 122 319 Z M 113 320 L 114 322 Q 115 319 113 320 Z M 129 322 L 128 325 L 129 325 L 129 322 Z M 182 323 L 182 325 L 184 324 L 182 323 Z M 142 324 L 142 325 L 147 328 L 147 327 L 142 324 Z M 188 324 Q 185 328 189 327 L 188 324 Z M 178 326 L 176 330 L 177 331 L 181 328 Q 182 325 178 326 Z M 127 327 L 127 329 L 129 328 L 127 327 Z M 182 329 L 182 332 L 184 331 Q 185 328 182 329 Z M 151 330 L 155 336 Q 159 337 160 335 L 159 331 L 157 332 L 151 330 Z M 137 331 L 128 336 L 131 346 L 131 353 L 140 374 L 141 383 L 143 386 L 143 392 L 146 401 Q 153 401 157 397 L 162 389 L 163 384 L 161 367 L 158 360 L 156 349 L 159 340 L 159 337 L 156 339 Q 154 337 150 338 L 144 333 L 140 333 L 139 331 L 137 331 Z M 149 333 L 150 335 Q 151 332 149 333 Z M 184 333 L 178 336 L 175 336 L 173 336 L 168 337 L 166 336 L 163 341 L 163 345 L 165 347 L 165 350 L 168 356 L 199 379 Q 201 378 200 381 L 206 385 Q 208 384 207 387 L 209 387 L 212 381 L 212 370 L 203 355 L 196 348 L 185 345 L 181 343 L 184 342 L 187 341 L 185 336 Q 186 332 184 333 Z M 271 339 L 267 349 L 270 350 L 271 348 Q 270 344 274 345 L 276 342 L 271 339 Z M 161 344 L 159 348 L 159 356 L 162 361 L 164 370 L 164 383 L 166 383 L 170 388 L 170 398 L 171 399 L 169 406 L 169 413 L 169 415 L 169 440 L 173 446 L 172 449 L 174 451 L 175 450 L 185 450 L 190 447 Q 195 449 193 443 L 199 442 L 206 437 Q 211 436 214 439 L 216 433 L 221 431 Q 225 428 225 421 L 215 415 L 216 413 L 220 410 L 221 411 L 219 414 L 221 415 L 220 417 L 223 416 L 234 420 L 241 426 L 243 431 L 244 428 L 247 433 L 245 436 L 247 436 L 248 434 Q 251 435 250 440 L 255 440 L 258 438 L 257 435 L 262 431 L 265 432 L 261 434 L 263 434 L 260 440 L 262 441 L 259 442 L 259 440 L 252 442 L 249 441 L 234 447 L 229 447 L 228 454 L 231 452 L 233 453 L 240 449 L 244 450 L 246 449 L 248 450 L 251 448 L 259 451 L 262 450 L 263 448 L 265 449 L 266 450 L 265 448 L 267 447 L 268 450 L 270 450 L 268 446 L 270 446 L 272 445 Q 274 446 273 451 L 276 453 L 276 451 Q 278 448 279 451 L 278 454 L 282 456 L 281 459 L 281 460 L 284 460 L 283 455 Q 286 454 285 457 L 288 456 L 290 459 L 292 458 L 293 461 L 297 462 L 300 465 Q 299 461 302 462 L 303 469 L 305 472 L 305 476 L 315 489 L 317 497 L 317 500 L 311 506 Q 308 505 309 509 L 311 508 L 315 509 L 320 502 L 319 498 Q 322 496 320 495 L 321 493 L 318 485 L 319 482 Q 320 477 316 477 L 316 466 L 314 464 L 316 460 L 315 457 L 312 455 L 312 457 Q 313 459 311 458 L 305 448 L 303 449 Q 304 452 301 451 L 302 448 L 301 442 L 300 444 L 297 445 L 297 441 L 295 444 Q 296 447 293 446 L 294 444 L 294 438 Q 293 445 289 448 L 286 448 L 289 445 L 291 434 L 286 420 L 286 417 L 290 410 L 290 404 L 289 401 L 291 402 L 296 402 Q 295 399 290 400 L 291 398 L 290 395 L 283 388 L 275 388 L 269 385 Q 269 391 274 393 Q 276 392 275 395 L 267 392 L 266 394 L 270 395 Q 274 398 273 405 L 268 409 L 269 411 L 266 413 Q 267 408 264 409 L 266 418 L 265 420 L 266 424 L 265 426 L 260 427 L 261 424 L 261 421 Q 257 426 251 427 Q 243 424 239 418 L 226 414 L 222 412 L 225 411 L 226 412 L 226 409 L 223 405 L 221 403 L 219 401 L 218 401 L 212 398 Q 209 399 210 396 L 207 396 L 207 395 L 206 395 L 201 394 L 199 397 L 203 396 L 204 397 Q 203 399 199 398 L 195 393 Q 196 389 193 390 L 187 403 L 182 405 L 180 406 Q 179 403 183 404 Q 190 399 192 389 L 195 387 L 198 392 Q 197 395 203 393 Q 205 392 204 389 L 195 379 L 169 360 L 164 355 L 161 344 Z M 249 348 L 247 351 L 245 363 L 242 367 L 243 368 L 246 366 L 248 367 L 253 358 L 254 352 L 249 348 Z M 332 363 L 331 365 L 333 364 L 332 363 Z M 216 366 L 216 378 L 211 389 L 209 391 L 207 390 L 206 392 Q 207 394 211 393 L 214 396 L 216 395 L 220 387 L 225 384 L 223 375 L 222 382 L 220 384 Q 221 386 218 385 L 221 368 Q 220 365 216 366 Z M 333 367 L 327 370 L 325 373 Q 330 372 333 369 L 333 367 Z M 318 371 L 316 373 Q 317 375 315 374 Q 311 375 312 381 L 312 383 Q 314 399 310 409 L 314 407 L 314 405 L 317 406 L 323 396 L 323 392 L 323 390 L 320 379 L 322 376 L 319 374 L 320 372 L 318 371 Z M 325 376 Q 323 380 326 383 L 327 394 L 328 394 Q 329 382 325 376 Z M 333 378 L 331 381 Q 333 385 332 394 L 333 394 L 333 378 Z M 229 383 L 228 388 L 226 390 Q 229 391 227 393 L 227 400 L 230 400 L 229 404 L 231 408 L 230 414 Q 236 413 239 416 L 249 408 L 248 402 L 242 398 L 235 390 L 232 387 L 229 383 Z M 165 386 Q 164 394 160 397 Q 157 396 158 399 L 153 402 L 145 402 L 144 401 Q 140 400 141 403 L 145 405 Q 147 404 146 407 L 145 406 Q 142 405 143 408 L 146 410 L 144 411 L 145 413 L 148 412 Q 153 411 155 413 L 159 413 L 163 410 L 168 401 L 166 400 L 164 403 L 162 404 L 159 404 L 167 393 L 165 386 Z M 328 397 L 327 402 L 328 402 L 328 397 Z M 333 397 L 332 403 L 333 403 L 333 397 Z M 294 403 Q 292 406 295 405 L 294 403 Z M 328 403 L 327 415 L 327 416 L 329 415 L 328 403 Z M 165 410 L 163 412 L 165 412 L 165 410 Z M 322 411 Q 319 415 313 416 L 311 415 Q 309 418 305 417 L 305 415 L 296 421 L 292 421 L 293 423 Q 300 422 304 418 L 307 420 L 306 424 L 301 427 L 302 430 L 304 429 L 307 430 L 308 428 Q 309 425 311 427 L 312 424 L 316 423 Q 317 426 314 425 L 312 433 L 310 431 L 309 436 L 311 437 L 313 436 L 312 441 L 315 440 L 316 441 L 315 445 L 324 448 L 327 451 L 325 445 L 321 442 Q 320 438 323 437 Q 326 438 325 435 L 322 436 L 320 436 L 325 433 L 328 434 Q 332 436 329 438 L 333 443 Q 335 438 334 431 L 330 430 L 328 430 L 330 433 L 327 431 Q 328 428 326 429 L 325 432 L 323 431 L 321 432 L 319 432 L 322 430 Q 323 427 319 428 Q 316 429 317 433 L 314 434 Q 313 428 318 426 L 322 427 L 326 426 L 325 425 L 326 423 L 326 425 L 334 426 Q 335 421 333 420 L 332 423 L 328 422 L 324 418 Q 322 420 321 418 L 322 413 L 322 411 Z M 309 412 L 307 414 L 309 414 L 309 412 Z M 165 413 L 164 414 Q 160 413 161 416 L 165 415 L 165 413 Z M 153 414 L 146 415 L 146 417 L 152 417 L 152 420 L 149 419 L 151 423 L 149 424 L 150 425 L 150 439 L 151 440 L 147 450 L 144 453 L 143 452 L 138 455 L 133 464 L 131 465 Q 126 467 130 469 L 139 466 Q 142 467 141 464 L 144 464 L 146 460 L 148 461 L 147 460 L 148 457 L 151 459 L 150 455 L 153 456 Q 156 457 154 453 L 157 454 L 157 452 L 161 454 L 163 454 L 161 453 Q 160 449 165 451 L 166 454 L 168 453 Q 170 452 168 451 Q 169 448 166 449 L 167 447 L 164 445 L 167 444 L 166 442 L 166 427 L 165 426 L 165 417 L 161 416 L 160 418 L 160 420 L 162 425 L 160 426 Q 155 424 158 423 L 158 420 L 156 420 L 156 415 L 153 414 Z M 330 415 L 330 419 L 332 419 L 330 415 Z M 230 420 Q 226 422 228 428 L 224 431 L 219 437 L 224 435 L 234 434 L 236 428 L 235 425 L 230 420 Z M 297 425 L 292 426 L 293 431 L 299 437 L 301 434 L 302 439 Q 300 440 303 441 L 304 441 L 304 437 L 306 437 L 306 433 L 303 433 L 296 431 Q 296 426 299 426 L 297 425 Z M 239 431 L 238 435 L 241 436 Q 243 437 242 434 L 244 434 L 239 433 L 239 431 Z M 231 436 Q 226 440 218 440 L 216 442 L 209 440 L 206 441 L 204 444 Q 207 446 215 445 L 217 445 Q 224 447 222 442 L 227 442 L 227 444 Q 225 445 228 446 L 243 441 L 231 436 Z M 308 438 L 307 440 L 310 442 L 308 438 Z M 323 439 Q 322 442 325 441 Q 326 438 323 439 Z M 305 441 L 306 447 L 313 454 L 315 451 L 315 449 L 311 444 L 310 444 Q 305 445 305 441 Z M 326 442 Q 325 445 328 444 Q 329 441 326 442 Z M 197 444 L 197 447 L 202 448 Q 205 447 204 451 L 201 453 L 199 449 L 196 450 Q 190 448 191 453 L 195 454 Q 196 457 198 455 L 206 456 L 210 456 L 214 457 L 216 457 Q 220 458 221 455 L 225 456 L 225 450 L 223 449 L 221 450 L 219 450 L 210 452 L 209 448 L 197 444 Z M 319 448 L 317 450 L 318 452 L 318 450 Q 321 449 320 453 L 324 454 Q 326 455 325 452 L 319 448 Z M 331 449 L 331 453 L 329 453 L 328 456 L 329 459 Q 327 462 326 458 Q 323 457 324 460 L 319 463 L 320 470 Q 324 471 326 468 L 330 470 L 333 471 L 334 471 Q 332 469 333 465 L 333 463 L 334 460 L 334 455 L 331 449 Z M 253 450 L 252 452 L 245 455 L 243 454 L 233 459 L 219 461 L 222 462 L 241 460 L 248 459 L 270 459 L 275 460 L 276 456 Q 273 455 274 458 L 270 458 L 269 455 L 268 455 L 264 453 L 264 451 L 263 453 Q 261 456 260 452 L 259 455 L 260 456 L 257 455 L 255 455 L 253 450 Z M 137 452 L 138 454 Q 139 451 137 452 Z M 173 452 L 172 454 L 168 457 Q 165 456 166 459 L 165 458 L 159 460 L 158 458 L 156 461 L 155 460 L 151 463 L 154 463 L 156 463 L 163 460 Q 166 459 165 462 L 166 462 L 168 459 L 178 455 L 186 457 L 188 457 L 190 456 L 188 455 L 186 455 L 181 452 L 179 453 Q 174 454 173 452 Z M 125 454 Q 124 457 127 456 Q 128 453 125 454 Z M 321 454 L 320 456 L 322 457 L 321 454 Z M 317 456 L 316 458 L 319 459 L 317 456 Z M 196 458 L 196 460 L 204 462 L 207 465 L 210 465 L 213 466 L 217 464 L 216 462 L 214 463 L 209 460 L 203 460 L 196 458 Z M 186 459 L 184 461 L 175 461 L 177 464 L 186 463 L 188 461 L 186 459 Z M 197 462 L 188 464 L 187 467 L 181 466 L 178 470 L 172 470 L 171 469 L 170 471 Q 173 474 180 473 L 181 476 L 172 477 L 174 479 L 176 478 L 177 481 L 179 480 L 181 481 L 183 480 L 180 478 L 187 474 L 189 477 Q 191 472 197 471 Q 202 470 204 472 L 203 477 L 208 478 L 212 477 L 214 481 L 216 477 L 215 476 L 213 476 L 205 473 L 206 468 L 205 468 L 197 462 Z M 240 462 L 239 464 L 236 463 L 234 463 Q 232 465 228 464 L 229 466 Q 231 465 230 468 L 228 466 L 227 468 L 228 469 L 226 467 Q 228 465 226 464 L 217 469 L 214 469 L 212 469 L 210 472 L 213 473 L 214 471 L 215 471 L 215 473 L 222 473 L 220 469 Q 224 472 223 474 Q 229 475 232 472 Q 238 470 240 473 Q 244 474 246 472 L 248 473 L 250 472 L 260 474 L 262 474 L 265 473 L 269 474 L 270 472 L 263 469 L 253 471 Q 249 470 250 466 L 253 462 L 245 462 L 244 463 L 240 462 Z M 254 462 L 256 466 Q 263 468 265 464 L 264 466 L 267 466 L 269 466 L 273 467 L 274 469 L 275 467 L 275 472 L 275 473 L 280 470 L 285 469 L 287 467 Q 288 462 284 464 L 282 464 L 279 465 Q 277 467 276 464 L 274 465 L 268 462 L 259 462 L 258 464 L 257 464 Q 258 460 254 462 Z M 292 463 L 294 474 L 303 487 L 303 497 L 300 499 L 297 498 Q 294 497 295 500 L 298 502 L 300 502 L 306 500 L 307 498 L 305 490 L 305 481 L 300 469 L 295 463 L 292 463 Z M 121 464 L 115 467 L 112 467 L 110 469 L 100 471 L 98 474 L 108 473 L 112 471 L 113 475 L 115 474 L 117 475 Q 125 476 128 472 L 124 469 L 125 467 Q 125 464 121 464 Z M 168 464 L 164 467 Q 158 466 157 468 L 148 467 Q 146 470 145 466 L 139 469 L 139 470 L 148 470 L 149 469 L 153 471 L 156 470 L 158 471 L 160 470 L 165 471 L 166 471 L 165 467 L 168 466 L 168 464 Z M 171 464 L 170 466 L 173 467 L 174 467 L 171 464 Z M 288 471 L 283 472 L 280 475 L 277 475 L 268 479 L 267 481 Q 269 480 268 483 L 273 483 L 286 479 L 288 479 L 290 480 Q 293 479 292 483 L 286 486 L 270 487 L 255 490 Q 251 489 252 492 L 264 493 L 265 496 L 270 497 Q 276 499 278 496 L 283 496 L 283 499 Q 282 501 281 499 L 277 501 Q 273 500 275 504 L 292 500 L 293 496 L 299 497 L 301 492 L 300 487 L 290 473 Q 291 470 288 471 Z M 147 472 L 144 474 L 134 474 L 133 475 Q 129 474 130 478 L 127 480 L 123 480 L 121 482 Q 116 481 115 483 Q 111 482 112 485 L 121 483 L 123 484 Q 128 483 128 486 L 137 486 L 138 489 Q 147 488 152 492 L 161 488 L 164 488 L 163 490 L 164 492 Q 167 489 173 490 L 174 482 L 172 481 Q 169 482 170 480 L 168 478 L 166 475 L 163 473 L 161 474 Q 155 476 154 473 L 151 474 L 147 472 Z M 320 473 Q 319 477 322 478 L 323 476 L 321 476 Q 320 473 323 474 L 325 474 L 324 476 L 327 480 L 329 479 Q 331 480 330 484 L 327 483 L 325 485 L 328 485 L 329 488 Q 330 490 328 489 L 328 490 Q 330 489 329 493 L 333 493 L 334 479 Q 331 478 332 481 L 331 481 L 332 477 L 334 477 L 330 473 L 320 473 Z M 92 474 L 83 479 L 78 479 L 76 481 L 66 484 L 69 486 L 68 493 L 66 496 L 72 492 Q 77 491 79 493 Q 81 490 87 491 L 103 483 L 104 481 L 99 483 Q 95 482 96 485 L 91 487 L 88 486 L 92 483 Q 97 485 95 480 L 103 478 L 104 476 L 101 477 L 98 477 L 94 474 L 92 474 Z M 232 475 L 223 477 L 221 481 Q 219 482 222 483 Q 227 481 237 482 L 242 480 L 249 480 L 249 482 L 251 483 Q 256 482 258 484 L 261 483 L 263 478 L 248 475 L 246 475 L 242 476 L 237 475 L 237 477 Q 236 474 232 475 Z M 124 476 L 119 478 Q 115 477 116 480 L 126 477 L 124 476 Z M 193 476 L 193 479 L 199 479 L 199 477 L 193 476 Z M 184 478 L 185 480 L 187 479 L 184 478 Z M 203 480 L 203 482 L 202 484 L 204 483 L 208 484 L 209 481 L 203 480 Z M 191 481 L 190 484 L 198 484 L 197 482 Q 192 483 191 481 Z M 185 482 L 182 486 Q 186 487 185 485 Q 187 483 185 482 Z M 282 482 L 279 483 L 279 484 L 287 483 L 282 482 Z M 178 484 Q 177 487 180 486 Q 181 483 178 484 Z M 218 484 Q 215 485 215 489 L 221 491 L 227 491 Q 228 488 233 489 Q 235 490 234 494 L 238 496 Q 244 497 247 495 L 246 489 L 240 484 L 233 486 L 232 485 L 219 485 L 218 484 Z M 110 485 L 110 486 L 112 486 L 110 485 Z M 102 486 L 88 493 L 86 499 L 85 498 L 84 498 Q 83 502 87 503 L 92 500 L 111 495 Q 112 493 113 496 Q 114 498 111 497 L 111 499 L 106 500 L 95 507 Q 96 511 94 510 L 93 512 L 95 511 L 99 512 L 100 511 L 103 514 L 110 513 L 117 510 L 121 501 L 128 495 L 128 497 L 132 495 Q 135 494 134 498 L 134 500 L 133 499 L 130 500 Q 128 498 127 501 L 128 503 L 127 502 L 123 508 Q 125 506 131 507 L 132 504 L 140 499 Q 141 496 139 497 L 137 497 L 135 497 L 135 493 Q 139 494 140 492 L 135 489 L 132 490 L 123 486 L 108 490 L 103 490 Q 100 489 102 488 L 102 486 Z M 208 486 L 203 488 L 209 489 L 208 486 Z M 192 487 L 192 489 L 195 488 L 198 489 L 198 487 L 192 487 Z M 310 487 L 309 495 L 311 494 L 309 499 L 310 501 L 310 500 L 313 498 Q 314 490 310 487 Z M 180 489 L 181 491 Q 182 488 180 489 Z M 182 489 L 183 491 L 186 490 L 182 489 Z M 142 492 L 143 493 L 146 494 Q 147 490 142 492 Z M 194 492 L 193 494 L 196 494 L 194 492 Z M 197 492 L 198 494 Q 199 491 197 492 Z M 203 492 L 203 494 L 210 494 L 211 493 L 203 492 Z M 171 493 L 172 496 L 175 494 L 171 493 Z M 184 493 Q 183 496 186 495 Q 187 492 184 493 Z M 229 493 Q 227 497 221 495 L 218 494 Q 215 493 216 496 L 218 497 L 231 497 L 232 498 Q 233 495 230 496 L 230 493 L 229 493 Z M 83 494 L 84 497 L 87 495 L 85 494 L 83 494 Z M 211 496 L 204 498 L 212 498 Q 213 495 211 496 Z M 322 496 Q 324 497 323 504 Q 321 505 324 506 L 333 505 Q 335 504 333 503 L 334 497 L 330 498 L 328 498 L 329 501 L 328 500 Q 325 501 326 499 L 322 496 Z M 180 497 Q 178 500 181 499 L 180 497 Z M 185 497 L 182 499 L 185 499 L 186 500 Q 187 496 185 497 Z M 173 498 L 171 500 L 174 500 Q 175 497 173 498 Z M 192 498 L 192 499 L 195 499 L 192 498 Z M 236 498 L 234 502 L 237 501 L 244 503 L 250 503 Q 251 506 253 504 L 258 505 L 260 504 Q 262 505 261 509 L 268 513 L 272 513 L 283 517 L 292 516 L 298 513 Q 302 517 311 516 L 313 516 Q 318 517 319 515 L 318 513 L 320 510 L 320 508 Q 318 512 313 512 L 311 512 L 307 510 Q 305 504 309 505 L 308 503 L 303 504 L 300 507 L 294 504 Q 287 503 286 506 L 283 505 L 280 507 L 278 506 L 273 510 L 266 508 Q 263 509 264 506 L 269 504 Q 270 499 266 501 L 261 498 L 259 499 L 257 498 Q 252 498 252 501 L 247 502 L 239 501 L 236 498 Z M 219 500 L 217 502 L 219 502 L 219 500 Z M 151 501 Q 149 503 145 502 L 114 519 Q 113 523 116 524 L 131 517 L 133 518 L 151 508 L 158 506 L 159 509 L 159 505 L 158 505 L 154 505 Q 155 502 152 503 L 151 506 L 150 505 Q 154 503 151 501 Z M 185 502 Q 184 505 187 504 Q 188 501 185 502 Z M 206 502 L 206 503 L 208 503 L 206 502 Z M 228 502 L 227 505 L 229 506 L 228 502 Z M 192 503 L 192 504 L 196 504 L 192 503 Z M 168 506 Q 166 509 169 508 L 168 506 Z M 173 506 L 170 508 L 174 508 L 173 511 L 175 514 L 175 507 L 173 506 Z M 186 506 L 187 508 Q 188 505 186 506 Z M 201 506 L 197 508 L 201 508 L 201 506 Z M 217 506 L 217 508 L 220 509 L 219 508 Q 220 505 217 506 Z M 239 506 L 239 507 L 247 507 L 239 506 Z M 251 507 L 251 508 L 254 508 L 251 507 Z M 256 507 L 254 509 L 257 510 L 256 507 Z M 123 508 L 121 511 L 123 510 L 123 508 Z M 158 509 L 155 512 L 158 512 L 158 509 Z M 168 510 Q 166 513 169 512 L 168 510 Z M 191 510 L 192 515 L 193 511 L 191 510 Z M 206 510 L 205 513 L 209 513 L 206 510 Z M 324 511 L 325 513 L 328 512 L 324 511 Z M 198 512 L 196 514 L 197 516 L 197 515 L 200 513 L 198 512 Z M 213 512 L 213 513 L 215 513 L 213 512 Z M 242 513 L 241 515 L 251 515 L 253 516 L 255 516 L 256 516 L 254 514 L 252 514 L 249 513 L 246 514 L 242 513 Z M 158 514 L 156 517 L 158 518 L 158 514 Z M 333 514 L 330 516 Q 325 517 324 515 L 323 517 L 334 516 L 333 514 Z M 198 516 L 197 518 L 202 518 L 198 516 Z M 207 516 L 206 518 L 214 519 Q 215 516 212 517 L 210 517 L 207 516 Z M 249 518 L 248 520 L 259 520 L 250 519 L 249 518 Z M 260 518 L 259 521 L 261 524 L 263 519 L 262 519 L 260 518 Z M 294 518 Q 291 520 294 521 L 296 520 L 294 518 Z M 304 518 L 303 519 Q 300 518 301 521 L 304 520 L 304 518 Z M 286 519 L 286 521 L 292 521 L 286 519 Z M 156 520 L 155 522 L 158 523 L 158 521 L 156 520 Z M 188 520 Q 187 524 193 522 L 195 522 L 195 520 L 188 520 Z M 198 520 Q 196 523 199 522 L 198 520 Z M 202 520 Q 200 523 203 522 L 202 520 Z M 168 521 L 168 522 L 176 522 L 168 521 Z M 319 521 L 319 522 L 324 522 L 319 521 Z M 208 522 L 210 524 L 213 523 L 208 522 Z M 225 523 L 225 524 L 227 524 L 225 523 Z M 243 523 L 243 524 L 245 524 L 243 523 Z M 248 523 L 248 524 L 252 524 L 248 523 Z M 256 523 L 255 525 L 260 525 L 256 523 Z M 129 524 L 128 526 L 130 527 L 129 524 Z M 330 524 L 322 526 L 318 525 L 319 527 L 329 527 L 330 526 L 334 527 L 334 524 L 332 525 L 330 524 Z M 183 525 L 182 529 L 184 528 L 183 525 Z M 195 525 L 195 526 L 198 526 L 195 525 Z M 200 525 L 201 527 L 203 526 L 200 525 Z M 77 526 Q 77 536 70 540 L 71 542 L 78 544 L 84 544 L 87 545 L 92 544 L 95 543 Q 99 542 101 544 L 108 544 L 108 543 Q 107 540 106 542 L 100 540 L 97 541 L 88 536 L 85 538 L 80 537 L 79 534 L 79 527 L 77 526 Z M 143 526 L 141 528 L 144 528 Q 145 525 143 526 Z M 154 526 L 154 528 L 158 527 L 154 526 Z M 220 526 L 219 528 L 228 530 L 230 529 L 226 528 L 224 528 L 220 526 Z M 233 526 L 231 528 L 232 529 L 237 528 L 233 526 Z M 175 527 L 176 529 Q 177 526 175 527 Z M 209 527 L 208 529 L 213 528 Q 214 530 215 528 L 209 527 Z M 245 527 L 243 529 L 244 530 L 247 529 L 245 527 Z M 177 529 L 176 532 Q 175 534 174 532 Q 168 531 170 535 Q 175 536 177 534 L 177 529 Z M 242 529 Q 243 534 238 532 L 238 533 Q 242 534 243 532 L 242 529 Z M 148 530 Q 148 534 150 531 L 148 530 Z M 201 530 L 203 532 Q 204 529 201 530 Z M 260 530 L 261 532 Q 262 529 260 530 Z M 321 530 L 321 531 L 328 531 L 321 530 Z M 30 531 L 25 539 Q 22 538 23 541 L 17 541 L 11 544 L 7 544 Q 6 549 9 550 L 12 549 L 15 550 L 17 549 Q 21 548 23 550 L 28 549 L 71 549 L 72 548 L 73 549 L 85 549 L 87 549 L 122 549 L 121 548 L 117 548 L 104 547 L 102 547 L 97 545 L 90 547 L 88 547 L 75 547 L 73 545 L 69 545 Q 70 542 65 543 L 62 544 L 57 543 L 54 545 Q 52 548 51 546 L 46 547 Q 44 549 43 547 L 45 543 L 47 544 Q 51 545 50 543 Q 49 539 42 540 L 40 540 L 37 539 L 33 533 L 30 531 Z M 157 531 L 156 532 Q 153 531 154 534 L 158 533 Q 159 530 157 531 Z M 183 531 L 182 533 L 184 534 L 183 531 Z M 233 531 L 231 533 L 232 534 L 235 533 L 233 531 Z M 169 532 L 167 535 L 169 535 L 169 532 Z M 209 532 L 210 535 Q 216 537 215 533 L 209 532 Z M 220 532 L 220 534 L 223 535 L 223 534 L 220 532 Z M 251 532 L 251 533 L 255 533 L 251 532 Z M 267 532 L 267 534 L 269 533 L 267 532 Z M 280 532 L 278 534 L 280 534 L 280 532 Z M 334 532 L 333 533 Q 329 532 330 535 L 334 534 L 334 532 Z M 224 533 L 224 535 L 228 535 L 224 533 Z M 304 533 L 305 535 Q 306 532 304 533 Z M 229 534 Q 228 537 231 536 Q 232 533 229 534 Z M 261 534 L 259 537 L 261 536 L 261 534 Z M 309 534 L 309 535 L 313 535 L 309 534 Z M 314 534 L 315 536 L 317 535 L 314 534 Z M 319 534 L 320 535 L 323 536 L 325 535 L 328 536 L 328 534 L 319 534 Z M 69 535 L 58 540 L 62 541 L 67 540 L 70 537 L 69 535 Z M 140 535 L 140 536 L 148 536 L 140 535 Z M 201 535 L 200 536 L 192 536 L 191 538 L 193 537 L 202 537 Q 203 534 201 535 Z M 203 535 Q 202 538 205 537 Q 206 534 203 535 Z M 245 535 L 244 537 L 247 538 Q 249 539 248 536 L 245 535 Z M 252 536 L 249 538 L 252 538 L 252 536 Z M 255 536 L 253 538 L 255 538 L 255 536 Z M 157 537 L 155 539 L 158 539 Q 159 536 157 537 Z M 183 537 L 181 539 L 184 539 L 183 537 Z M 237 537 L 237 538 L 241 538 L 237 537 Z M 280 537 L 281 539 Q 282 536 280 537 Z M 138 538 L 138 540 L 144 540 L 138 538 Z M 175 538 L 172 540 L 177 540 Q 178 537 175 538 Z M 216 538 L 210 540 L 216 540 L 216 538 Z M 222 538 L 222 539 L 224 539 L 222 538 Z M 300 538 L 300 539 L 305 539 L 300 538 Z M 146 539 L 146 541 L 150 540 L 146 539 Z M 313 539 L 313 540 L 316 541 L 323 541 L 320 539 L 318 540 L 313 539 Z M 324 539 L 324 541 L 328 540 L 324 539 Z M 330 539 Q 329 541 332 540 Q 333 542 334 540 L 330 539 Z M 197 540 Q 195 542 191 541 L 191 542 L 200 542 L 197 540 Z M 233 541 L 232 543 L 240 543 L 233 541 Z M 243 541 L 242 543 L 246 543 L 243 541 Z M 155 542 Q 154 545 158 544 Q 159 541 155 542 Z M 163 542 L 162 545 L 164 545 L 163 542 Z M 183 542 L 182 544 L 186 543 L 185 542 L 183 542 Z M 249 542 Q 247 544 254 543 L 255 544 Q 255 541 249 542 Z M 275 542 L 274 545 L 275 545 L 275 542 Z M 165 543 L 166 545 L 167 545 L 165 543 Z M 168 543 L 169 545 Q 175 543 177 546 L 177 544 L 176 544 L 173 543 L 170 544 L 168 543 Z M 222 543 L 222 544 L 227 544 L 222 543 Z M 118 544 L 118 545 L 122 545 L 118 544 Z M 312 544 L 312 545 L 314 545 L 312 544 Z M 317 544 L 317 545 L 319 545 L 317 544 Z M 330 544 L 330 545 L 333 545 L 330 544 Z M 123 545 L 123 546 Q 125 545 124 548 L 127 549 Q 130 550 131 548 L 130 546 L 123 545 Z M 204 545 L 206 547 Q 207 544 204 545 Z M 136 546 Q 134 551 140 549 L 142 549 Q 148 551 147 547 L 136 546 Z M 245 546 L 245 547 L 247 547 L 245 546 Z M 150 547 L 150 549 L 152 548 L 150 547 Z M 272 550 L 271 551 L 183 551 L 182 552 L 178 551 L 176 551 L 174 552 L 146 552 L 144 553 L 142 553 L 139 552 L 136 553 L 128 553 L 127 552 L 124 553 L 122 552 L 114 552 L 113 553 L 108 552 L 96 552 L 95 553 L 92 552 L 87 553 L 85 552 L 83 553 L 78 552 L 76 552 L 74 553 Q 70 551 64 552 L 62 552 L 60 553 L 57 552 Q 55 555 49 553 L 47 553 L 31 553 L 30 552 L 29 553 L 11 553 L 10 554 L 8 553 L 7 593 L 90 593 L 91 592 L 95 593 L 98 592 L 103 593 L 105 593 L 110 592 L 113 593 L 116 592 L 118 593 L 122 593 L 124 592 L 126 593 L 130 592 L 133 593 L 135 592 L 138 593 L 140 592 L 166 592 L 168 592 Q 174 594 176 591 L 180 592 L 185 591 L 188 592 L 190 591 L 194 592 L 195 591 L 271 591 L 275 591 L 278 592 L 280 592 L 284 591 L 288 592 L 304 592 L 305 591 L 307 592 L 320 592 L 322 592 L 334 592 L 334 592 L 334 552 L 331 551 L 328 552 L 327 551 L 273 551 L 272 550 Z "></path><path d="M 161.5 24 Q 169.5 23 172 27.5 L 173 35.5 L 169.5 40 L 160.5 41 L 157 38.5 L 154 31.5 L 159.5 25 L 161.5 24 Z M 162 27 L 159 31 L 161 38 L 167 39 L 169 36 L 168 29 Q 167 26 162 27 Z "></path><path d="M 166.5 106 Q 171.6 105.4 173 108.5 L 174 111.5 L 171.5 115 L 165 113 L 166 108.5 Q 163.8 107.3 166.5 106 Z M 171 110 L 170 113 L 171 113 L 171 110 Z "></path><path d="M 230.5 118 L 232 120.5 L 230 121 L 230.5 118 Z "></path><path d="M 236.5 118 L 236 119.5 L 235.5 122 L 235 119.5 L 236.5 118 Z "></path><path d="M 298.5 146 Q 304.4 144.3 303 148 L 301 148.5 L 301 155.5 L 302.5 159 Q 306.5 159.5 307 156.5 L 308 152.5 L 305 148.5 L 308.5 147 L 308 148.5 Q 307.3 150.8 309.5 150 L 311 150.5 L 311.5 148 Q 314.6 149.4 314 154.5 L 309.5 160 Q 305.5 159.5 305 162.5 L 303 168.5 L 305.5 167 Q 307.8 167.8 307 165.5 L 307 163.5 Q 306.3 161.3 308.5 162 L 311 163 L 312.5 160 L 315.5 159 L 317 161.5 L 314.5 165 Q 312.3 164.3 313 166.5 L 314 170.5 L 310.5 172 L 308.5 167 L 307 170 L 304 170 Q 305.1 172.7 302.5 172 Q 299.8 173.3 302 174.5 L 301 179.5 L 305.5 182 L 302.5 177 Q 304.4 180.6 309 180 L 310 182.5 L 301.5 187 Q 298.5 185.5 301.5 184 L 303 183.5 L 300.5 183 L 299 186 L 297 186 Q 298.5 182.3 295.5 183 L 292 184 L 290.5 187 Q 287.2 188.1 288 185.5 L 292.5 180 L 294.5 179 L 296.5 179 L 299 177.5 L 296 176.5 L 298 172.5 L 294 170 L 292 175 L 289 173.5 L 288.5 168 L 285.5 169 L 282 167.5 L 288.5 163 L 291 164 Q 289.3 159.9 293.5 161 L 295 160.5 Q 295.6 165.9 294 168 Q 298.3 167 299.5 170 L 301 164.5 Q 298 163.3 299 159 L 296 157.5 Q 293 154.3 294 148 Q 297.4 148.8 298.5 146 Z M 298 150 L 296 152 Q 295 157 299 158 Q 301 157 299 156 Q 300 149 298 150 Z M 313 151 L 312 154 L 313 154 L 313 151 Z M 309 153 L 308 157 L 309 159 L 311 156 Q 312 152 309 153 Z "></path><path d="M 144.5 154 Q 150.3 155.3 153 159.5 L 151.5 160 L 145.5 156 L 144.5 154 Z "></path><path d="M 154.5 160 L 159 163.5 L 157.5 164 L 154 161.5 L 154.5 160 Z "></path><path d="M 158.5 172 L 159 174 L 157 174 Q 158.5 177.8 155.5 177 Q 152.5 175.5 155.5 174 L 158.5 172 Z "></path><path d="M 285.5 188 Q 289.3 187 288 190 L 285.5 191 Q 282.5 189.5 285.5 188 Z "></path><path d="M 290.5 189 Q 295.3 188.3 296 191.5 L 295.5 193 L 290.5 190 L 290.5 189 Z "></path><path d="M 167.5 195 L 170 195.5 L 165.5 197 L 165.5 196 L 167.5 195 Z "></path><path d="M 219.5 206 L 220 209.5 L 219 209.5 L 219.5 206 Z "></path><path d="M 220.5 216 L 224 220.5 L 221 218.5 L 220.5 216 Z "></path><path d="M 254.5 221 L 256.5 222 L 258 221.5 L 255 223.5 L 255.5 222 L 254.5 221 Z "></path><path d="M 260.5 225 L 260 226.5 L 258.5 229 L 257 228.5 L 260.5 225 Z "></path><path d="M 252.5 227 L 251.5 229 L 252.5 227 Z "></path><path d="M 130.5 228 L 131 230 L 129 229.5 L 130.5 228 Z "></path><path d="M 254.5 228 L 252.5 231 L 254.5 228 Z "></path><path d="M 120.5 229 L 122 229.5 L 120 230 L 117.5 235 L 117 233.5 L 120.5 229 Z "></path><path d="M 256.5 230 L 257.5 232 L 258 230 L 260 230.5 L 259 233 L 253.5 237 L 252.5 236 L 246 241.5 L 256.5 230 Z "></path><path d="M 225.5 231 Q 227.8 230.3 227 232.5 L 225.5 231 Z "></path><path d="M 248.5 232 L 247.5 234 L 248.5 232 Z "></path><path d="M 162.5 234 L 164 236.5 L 162 235.5 L 162.5 234 Z "></path><path d="M 249.5 234 L 246.5 238 L 249.5 234 Z "></path><path d="M 259.5 234 L 257 237.5 L 256.5 239 L 256 237.5 L 259.5 234 Z "></path><path d="M 244.5 237 L 240.5 242 L 244.5 237 Z "></path><path d="M 259.5 238 L 258.5 240 L 259.5 238 Z "></path><path d="M 254.5 239 L 252.5 242 L 254.5 239 Z "></path><path d="M 244.5 240 L 242.5 243 L 244.5 240 Z "></path><path d="M 86 244 Q 89 243 88 246 Q 85 247 86 244 Z "></path><path d="M 253.5 244 L 253 245.5 L 252 249 L 250 248.5 L 253.5 244 Z "></path><path d="M 249.5 245 L 248 247.5 L 247.5 249 L 247 247.5 L 249.5 245 Z "></path><path d="M 97.5 246 L 96.5 248 L 97.5 246 Z "></path><path d="M 255.5 249 L 254.5 251 L 255.5 249 Z "></path><path d="M 251.5 250 L 253 252.5 L 250.5 253 L 249 252.5 L 251 252 L 251.5 250 Z "></path><path d="M 104.5 251 L 104 252.5 Q 104.8 256.3 102.5 257 L 103 255.5 L 102 253.5 L 104.5 251 Z "></path><path d="M 97.5 252 L 96.5 254 L 97.5 252 Z "></path><path d="M 99.5 253 L 96.5 257 L 94.5 258 L 96.5 255 L 99.5 253 Z "></path><path d="M 258.5 253 L 255.5 257 L 258.5 253 Z "></path><path d="M 107.5 254 L 106.5 256 L 107.5 254 Z "></path><path d="M 92.5 260 L 91.5 262 L 92.5 260 Z "></path><path d="M 285.5 268 L 283.5 271 L 285.5 268 Z "></path><path d="M 271.5 269 L 271 270.5 L 269.5 273 L 269 271.5 L 271.5 269 Z "></path><path d="M 284.5 273 L 283.5 275 L 284.5 273 Z "></path><path d="M 128.5 295 L 130 295.5 L 127.5 297 L 128.5 295 Z "></path><path d="M 165.5 325 L 169 330.5 L 166 328.5 L 165.5 325 Z "></path><path d="M 279.5 389 L 282 389 L 282 394 L 278 391.5 L 279.5 389 Z "></path><path d="M 280.5 399 L 281 401.5 L 277 404 L 277 402 Q 279.7 403.1 279 400.5 L 280.5 399 Z "></path><path d="M 81 400 L 85.5 400 L 93.5 404 L 101 410.5 L 102.5 413 L 119.5 420 L 134.5 420 L 135.5 419 L 143.5 419 L 142.5 421 L 137.5 422 L 122.5 422 L 110.5 419 L 101 414.5 L 93.5 406 L 83.5 401 L 82 409.5 L 79.5 412 L 68.5 417 L 64.5 421 L 61.5 421 L 55.5 418 L 52.5 418 L 49 414.5 L 50.5 415 L 64 419 Q 62.8 416 66.5 417 L 78 411 L 81 405.5 L 81 400 Z "></path><path d="M 173.5 406 L 177 406.5 L 172.5 408 L 173.5 406 Z "></path><path d="M 282 414 Q 285 412.8 284 416.5 Q 281.2 418.5 282 423 Q 285.8 421.5 285 424.5 L 286 427 L 282 426 L 281.5 428 L 280 426.5 L 280 417.5 L 282 414 Z "></path><path d="M 314.5 416 L 314 417.5 L 313.5 419 L 313 417.5 L 314.5 416 Z "></path><path d="M 309.5 418 L 312 418.5 L 308.5 420 L 309.5 418 Z "></path><path d="M 319.5 418 L 320 421.5 L 319 421.5 L 319.5 418 Z "></path><path d="M 277 426 Q 281 424.6 279 431.5 Q 276.4 436.3 271 437 Q 269.9 434.3 272.5 435 Q 277.3 432.5 277 426 Z "></path><path d="M 159.5 427 Q 163.5 426.5 164 429.5 Q 164.6 434.6 161.5 436 L 157 429.5 L 159.5 427 Z "></path><path d="M 269 430 Q 273.1 428.7 272 432 L 268.5 433 L 269 431.5 L 269 430 Z "></path><path d="M 280 431 Q 284.1 429.3 283 433.5 L 279 436 L 280 431 Z "></path><path d="M 251 436 L 256 436.5 L 251 438 L 251 436 Z "></path><path d="M 161.5 437 L 165 438.5 L 164 443 L 160 441.5 Q 159.3 437.8 161.5 437 Z "></path><path d="M 314.5 437 L 315 439 L 313 438.5 L 314.5 437 Z "></path><path d="M 76.5 438 Q 79.1 437.2 78 440.5 L 74.5 442 Q 71.5 442.7 73 439 L 76.5 438 Z "></path><path d="M 268.5 438 Q 271.1 437.3 270 440 L 267 439.5 L 268.5 438 Z "></path><path d="M 284.5 440 Q 287.5 439.2 286 443 Q 282.3 444.5 283 441.5 L 284.5 440 Z "></path><path d="M 318.5 441 L 319 443 L 316.5 444 L 316 442 L 318.5 441 Z "></path><path d="M 259 444 L 261 444.5 L 259 445.5 L 259 444 Z "></path><path d="M 74.5 450 L 75 453.5 L 73 454.5 Q 72.3 450.8 74.5 450 Z "></path><path d="M 70.5 453 L 71 455.5 L 70 455.5 L 70.5 453 Z "></path><path d="M 72 457 Q 75.3 455.7 74 460.5 L 72 461.5 L 72 457 Z "></path><path d="M 75.5 460 L 76 464 L 74 463.5 L 75.5 460 Z "></path><path d="M 80.5 461 L 81 463 L 79 462.5 L 80.5 461 Z "></path><path d="M 69 462 Q 72.7 460.8 71 466 Q 67.3 467.2 69 462 Z "></path><path d="M 78.5 464 L 80 466.5 L 78 465.5 L 78.5 464 Z "></path><path d="M 320.5 464 L 322 467.5 L 321 467.5 L 320.5 464 Z "></path><path d="M 248.5 468 L 249 470 L 247 469.5 L 248.5 468 Z "></path><path d="M 226.5 470 L 227.5 472 Q 224.7 472.7 226.5 470 Z "></path><path d="M 328.5 476 L 329 478 L 327 477.5 L 328.5 476 Z "></path><path d="M 331.5 482 L 332 486.5 L 331 486.5 L 331.5 482 Z "></path><path d="M 331.5 488 L 332 490.5 L 331 490.5 L 331.5 488 Z "></path><path d="M 99.5 489 L 100 491 L 97.5 492 L 99.5 489 Z "></path><path d="M 130.5 501 L 131 503 L 129 502.5 L 130.5 501 Z "></path><path d="M 325.5 501 L 326 503.5 L 325 503.5 L 325.5 501 Z "></path><path d="M 342.5 548 L 343.5 550 L 342.5 548 Z "></path><path d="M 223.5 559 Q 235.6 557.4 239 564.5 Q 242 568.5 241 576.5 L 237.5 581 L 225.5 584 L 215 581 L 212 575.5 L 212 566.5 Q 215.8 560.8 223.5 559 Z M 225 561 L 222 563 L 218 569 L 219 578 L 227 582 L 231 581 Q 236 578 235 569 L 235 567 L 234 565 Q 232 560 225 561 Z "></path><path d="M 164.5 560 L 166.5 561 L 168.5 561 Q 173.8 559.8 175 562.5 L 174 569.5 L 172.5 571 L 170 563 L 160.5 563 L 159 564.5 Q 157.8 570.8 161.5 572 L 162 568 Q 165.8 566.5 165 569.5 L 166 572.5 L 163.5 574 L 160 573.5 Q 158.3 580.3 161.5 582 L 165 581 L 163.5 584 L 160.5 585 L 156.5 584 Q 155.3 586.3 150.5 585 L 149.5 583 L 154 580.5 L 153 578.5 L 153 564.5 L 151.5 563 Q 150.3 565.3 149 562.5 L 149.5 561 L 163.5 561 L 164.5 560 Z "></path><path d="M 190.5 560 L 198.5 561 L 204 564.5 Q 208.5 568 207 577.5 Q 203 585 190.5 584 L 183.5 582 L 179 577.5 L 178 570.5 L 182.5 564 L 190.5 560 Z M 191 563 L 189 564 L 186 567 L 185 571 L 185 575 L 187 580 Q 188 582 192 581 L 194 581 L 196 582 L 199 580 L 201 573 L 199 566 Q 197 562 191 563 Z "></path><path d="M 245 560 L 258 560.5 L 255 561 L 255 576.5 L 256 580 Q 262.1 581.8 264 578.5 L 267.5 573 L 270 574.5 L 264.5 583 L 259.5 582 L 258.5 583 L 246.5 583 L 247.5 581 L 249 580.5 L 249 570.5 Q 246.2 568.8 248 562.5 L 246.5 561 L 245 561.5 L 245 560 Z "></path><path d="M 57.5 561 L 60 566.5 L 56 568 L 55 564 L 49 564 L 49 569.5 Q 46.3 571.3 48 577.5 L 49 579.5 Q 46.5 581 50 582.5 Q 50.6 585.3 44.5 584 L 42 585 L 43 582.5 L 43 564 L 38 564 L 38 566.5 L 37 569 Q 34.3 570.1 35 567.5 L 34 562 L 56.5 562 L 57.5 561 Z "></path><path d="M 81.5 561 L 86.5 562 L 90 561 L 89 563.5 L 89 583 Q 94.2 581.3 93 585 L 86.5 584 L 83 585 L 82.5 572 L 81.5 573 L 72 573 L 73 582 L 76 583.5 L 74.5 585 L 65 585 Q 64.3 581.9 67 582.5 L 67 577.5 L 66 574.5 L 67 572.5 L 67 570.5 L 66 564 Q 61.9 565.3 63 562 L 74 562.5 L 72 563 L 72 571 L 83 571 L 83 564.5 Q 80 563.5 81.5 561 Z "></path><path d="M 94 561 L 113.5 561 L 114 564.5 Q 112 569 110 565.5 L 110 563 L 103 563 L 103 572 L 106 572 L 107.5 569 Q 110.5 568.1 109 572.5 L 110 575.5 L 107.5 577 Q 106.4 574.3 103 575 L 103 583.5 L 104.5 584 L 111 583 Q 109.1 577.4 114 579 L 115 582.5 L 114 585 Q 111 587 103.5 586 L 101.5 585 L 97.5 586 L 95 584.5 L 97 584 L 98 580.5 L 97 578.5 L 98 577.5 L 98 564.5 L 94 563 L 94 561 Z "></path><path d="M 287.5 577 L 291 579.5 L 289.5 583 L 285 582 Q 284.3 578.2 287.5 577 Z "></path><path d="M 344.5 590 L 345 593.5 L 344 593.5 L 344.5 590 Z "></path><path d="M 340.5 591 L 341 593.5 L 340 593.5 L 340.5 591 Z "></path></svg>