<svg width="350" height="600" version="1.1" xmlns="http://www.w3.org/2000/svg" desc="Created with imagetracer.js version 1.2.5"><path d="M 66.5 5 L 68.5 6 L 93.5 7 L 95.5 6 L 97.5 7 L 98.5 6 L 112.5 6 L 114.5 7 L 116.5 7 L 147.5 7 L 148.5 6 L 238.5 6 L 239.5 7 L 310.5 7 L 313.5 6 Q 318.3 4.7 319.5 7 L 320.5 6 L 331.5 6 L 333.5 7 Q 334.7 4.8 336 7.5 L 336 24.5 L 337 25.5 L 337 72.5 L 338 74.5 L 337 75.5 L 337 88.5 L 338 90.5 L 337 94.5 L 338 95.5 L 338 189.5 L 337 192.5 L 338 193.5 L 338 219.5 L 339 220.5 L 339 249.5 L 338 250.5 L 338 258.5 L 339 262.5 L 339 264.5 L 338 269.5 L 339 270.5 L 339 432.5 L 338 436.5 L 339 440.5 L 338 441.5 L 338 451.5 L 339 455.5 L 338 456.5 L 338 464.5 L 339 466.5 L 338 467.5 L 338 511.5 L 339 512.5 L 339 525.5 L 338 526.5 L 338 546.5 L 339 550.5 L 339 552.5 L 338 560.5 L 339 561.5 L 339 577.5 L 338 580.5 L 338 582.5 L 338 592.5 L 336.5 593 L 335.5 594 L 320.5 594 L 319.5 593 L 302.5 593 L 300.5 594 Q 299.3 591.8 294.5 593 Q 292.8 595.8 286.5 594 L 285.5 593 L 156.5 593 L 154.5 592 L 153.5 593 L 7 593 L 6 590.5 L 6 576.5 L 7 572.5 L 6 571.5 L 6 551.5 L 7 550.5 L 7 469.5 L 8 468.5 Q 5.8 467.3 7 462.5 Q 9.5 461 8 455.5 L 8 453.5 Q 9.8 447.3 7 445.5 L 8 443.5 Q 5.5 442 7 436.5 L 8 432.5 L 7 431.5 L 7 423.5 L 7 421.5 L 8 416.5 L 7 414.5 L 8 411.5 L 8 409.5 L 8 342.5 L 9 340.5 L 9 338.5 Q 6.3 334.7 8 326.5 L 9 323.5 L 8 322.5 L 8 292.5 L 9 291.5 L 9 280.5 L 8 278.5 L 9 277.5 L 9 157.5 L 10 155.5 L 9 150.5 L 9 148.5 L 8 91.5 L 9 90.5 L 9 71.5 Q 6.7 70.3 8 65.5 L 9 64.5 L 9 22.5 L 10 21.5 L 9 17.5 L 10 14.5 Q 8.3 7.7 11.5 6 L 20.5 7 L 22.5 7 L 31.5 6 L 33.5 7 L 34.5 6 L 45.5 6 L 47.5 6 L 65.5 6 L 66.5 5 Z M 23 10 Q 21 13 15 11 L 13 14 L 17 12 L 23 12 L 23 10 Z M 26 10 L 24 12 L 26 12 L 26 10 Z M 56 10 L 55 11 Q 52 10 53 14 L 46 11 L 45 15 L 43 12 L 37 15 L 42 17 L 45 21 L 46 19 Q 47 15 54 16 L 56 16 L 58 17 L 57 16 Q 58 13 55 14 Q 54 11 57 12 L 56 10 Z M 75 10 L 75 13 L 80 17 Q 81 15 86 16 L 89 20 L 90 14 Q 91 11 96 12 L 93 11 L 91 11 Q 81 12 75 10 Z M 118 10 L 117 11 L 108 11 L 107 13 L 110 12 L 113 13 L 120 12 Q 121 9 118 10 Z M 153 10 L 152 11 L 139 12 L 140 16 L 137 17 Q 136 20 139 19 L 140 21 L 141 27 L 139 28 L 135 27 Q 132 28 133 22 Q 131 18 130 22 Q 126 21 127 24 L 124 25 L 121 22 L 124 16 Q 126 17 125 15 Q 123 10 121 14 L 122 16 L 118 18 L 121 26 L 127 30 L 127 28 L 131 26 L 132 29 Q 131 31 127 30 L 132 39 L 132 41 Q 135 43 134 48 L 128 53 Q 122 55 121 52 L 116 54 L 112 54 L 107 50 Q 108 44 105 43 Q 103 33 108 31 L 104 24 L 105 22 Q 106 17 104 18 L 101 17 Q 102 19 100 18 L 97 23 L 99 25 L 101 24 L 104 29 L 99 32 L 97 31 L 95 31 L 97 38 Q 95 41 89 42 L 92 46 L 88 57 L 85 56 Q 90 53 89 44 L 85 41 L 84 45 Q 83 50 85 52 L 85 54 L 83 51 Q 80 52 81 49 L 78 50 Q 75 49 76 43 L 74 41 Q 73 35 76 33 L 79 31 Q 81 30 79 29 L 80 27 Q 79 24 82 25 L 84 18 Q 80 17 82 22 L 79 22 Q 80 25 77 24 L 77 29 L 74 31 L 72 34 L 69 35 L 66 32 L 67 27 L 66 25 Q 60 27 59 24 Q 56 23 57 26 L 55 26 L 55 28 L 52 29 Q 47 30 47 27 L 46 29 L 47 30 L 44 29 L 43 33 L 39 32 L 37 32 L 35 33 L 41 35 L 40 38 Q 37 37 38 40 L 36 39 L 35 42 Q 33 43 36 44 L 40 43 L 41 43 Q 42 46 40 45 L 38 48 L 35 46 L 33 50 L 37 49 L 42 50 L 44 54 Q 46 61 42 60 L 41 63 L 42 67 L 42 72 L 38 81 Q 35 82 36 80 Q 40 77 36 75 L 35 77 Q 32 78 33 75 L 29 75 L 29 71 L 33 72 L 34 72 L 34 68 L 31 69 L 29 69 L 34 66 L 33 63 L 34 61 Q 31 59 35 58 L 33 55 Q 29 54 31 58 L 29 58 L 30 64 L 29 67 Q 25 68 26 66 L 26 64 Q 29 65 27 60 L 25 61 L 24 60 Q 21 58 25 57 L 21 55 L 22 50 L 16 51 Q 15 46 19 45 L 18 41 L 22 41 L 16 38 L 16 35 L 14 38 L 15 40 L 12 40 Q 11 44 14 43 L 14 47 L 13 47 L 14 50 Q 11 52 12 59 Q 13 61 15 59 L 24 63 L 24 65 Q 21 64 22 67 Q 23 69 27 68 L 27 76 L 25 78 Q 22 77 23 80 L 29 77 L 29 79 L 32 80 L 31 83 Q 30 85 33 84 Q 35 80 37 85 L 36 89 Q 37 91 35 90 L 35 89 L 34 86 L 31 88 L 34 94 L 34 98 L 38 99 L 37 102 L 41 104 Q 42 109 39 111 L 41 114 L 38 118 L 38 119 L 34 119 Q 33 116 37 117 L 38 114 L 39 112 L 35 115 L 31 114 L 31 108 L 28 113 L 30 117 L 29 116 Q 26 115 27 118 L 24 119 L 20 122 L 23 118 L 22 115 L 18 116 L 19 123 L 16 122 Q 15 115 19 114 L 18 112 L 15 110 L 14 104 L 13 104 Q 12 110 15 113 Q 17 118 13 117 L 11 117 L 11 176 L 12 177 L 11 182 L 11 184 Q 10 189 12 191 L 11 193 L 12 195 L 12 204 L 11 205 L 11 230 L 12 231 L 11 236 L 12 238 L 11 242 L 12 245 L 11 247 L 11 314 L 10 315 L 11 317 L 11 335 L 11 337 L 10 342 L 12 349 L 24 343 L 39 342 L 40 341 L 52 342 L 64 348 L 64 335 L 65 334 L 64 332 L 65 328 L 62 326 L 60 319 L 63 318 L 63 315 L 58 306 L 56 299 L 50 289 Q 51 286 49 287 Q 46 286 47 282 L 56 277 L 71 275 L 73 275 L 88 276 L 93 278 L 95 282 L 95 265 L 92 263 L 92 236 L 91 235 L 92 232 L 90 207 L 89 206 Q 88 200 90 199 L 88 188 L 88 186 L 89 184 Q 86 180 88 172 L 87 171 L 88 169 L 88 167 L 83 161 Q 84 156 81 157 L 79 147 L 77 145 L 74 142 Q 75 134 71 132 L 71 124 L 68 124 Q 67 116 70 112 L 67 98 L 65 99 L 65 112 L 65 114 Q 64 119 67 120 L 64 127 L 61 129 L 55 123 Q 54 118 57 118 L 55 114 L 55 93 L 52 90 Q 52 83 48 81 L 50 70 L 54 68 L 54 44 L 52 40 Q 53 33 58 29 L 63 39 L 62 44 L 63 46 L 63 67 L 64 69 L 67 70 Q 69 69 68 72 L 70 72 L 70 74 L 73 75 L 79 87 L 78 89 L 88 105 L 88 110 L 90 116 Q 89 118 92 117 Q 94 125 99 130 L 99 133 L 101 135 L 103 142 L 108 145 L 115 159 Q 114 161 118 160 Q 122 163 124 170 L 128 171 L 136 182 L 142 186 Q 144 185 143 181 L 141 180 L 138 180 Q 139 177 136 178 L 136 174 L 135 174 Q 130 172 133 171 L 133 168 L 130 169 L 133 165 L 133 162 L 133 160 L 133 152 L 139 141 Q 141 136 143 139 L 151 135 L 162 135 L 169 139 Q 171 138 170 141 L 173 142 L 177 147 L 178 160 L 179 161 L 178 170 L 178 172 L 181 178 L 178 178 L 179 181 L 176 180 L 177 183 L 174 180 L 173 182 L 172 183 L 169 182 L 170 187 L 173 186 L 177 189 L 180 189 L 184 186 L 187 187 L 188 190 L 191 189 L 193 190 Q 196 189 195 193 L 198 194 L 210 207 L 215 219 L 215 221 L 221 230 L 223 237 L 234 254 L 239 256 L 247 268 L 247 274 Q 251 276 251 283 L 253 282 L 254 289 L 264 300 Q 263 302 266 301 L 279 319 L 281 323 Q 279 329 282 331 Q 284 336 281 338 Q 282 340 280 339 Q 275 337 276 330 L 270 334 L 263 330 L 257 322 L 254 310 L 247 303 L 245 305 Q 246 309 244 311 L 244 327 L 245 328 Q 247 333 244 335 L 244 350 L 241 350 L 242 355 L 244 354 L 243 368 L 241 373 L 242 376 L 241 388 L 240 389 L 240 402 L 240 404 L 239 407 L 240 409 L 239 410 L 239 441 L 238 442 L 239 444 L 239 458 L 238 459 L 238 464 L 241 470 L 239 473 Q 241 475 246 474 L 251 481 L 252 481 L 248 475 Q 247 467 250 465 Q 249 462 252 463 L 256 476 Q 258 475 257 470 L 261 464 L 263 464 L 265 461 L 267 462 L 270 461 L 270 464 L 271 464 Q 270 461 274 462 L 276 462 L 279 460 L 281 461 Q 285 463 282 465 L 283 472 L 284 472 Q 285 467 283 466 L 286 464 Q 289 467 288 472 L 295 471 L 297 474 Q 301 472 297 470 L 300 464 L 306 460 L 307 466 L 312 465 L 310 470 L 312 471 L 315 468 L 317 470 L 316 470 L 314 474 L 317 474 L 319 473 L 320 472 L 319 469 L 321 470 Q 323 469 322 472 L 316 477 Q 319 478 318 482 L 324 480 L 333 483 L 331 487 Q 330 490 324 490 L 325 492 L 329 495 L 327 499 L 328 506 Q 326 510 325 507 Q 322 508 323 504 L 319 502 L 316 504 L 312 503 L 310 495 L 311 490 Q 309 485 307 489 L 309 491 L 309 502 Q 308 506 303 505 L 296 495 L 288 500 L 285 500 L 284 506 L 280 503 L 278 504 L 283 507 L 285 510 L 292 505 Q 294 506 293 503 Q 297 502 298 505 L 297 513 L 293 515 L 294 521 L 301 522 L 302 522 L 299 519 L 298 515 L 299 511 L 306 506 L 310 511 L 315 510 Q 316 508 317 511 L 315 516 L 311 517 L 308 518 Q 305 517 306 521 L 311 520 L 313 522 L 312 526 L 308 529 L 309 532 L 313 531 L 316 521 Q 324 520 328 523 Q 330 522 329 527 Q 326 530 318 530 L 325 531 L 328 534 L 324 534 L 322 534 L 318 533 L 319 536 Q 320 534 325 535 L 329 535 L 331 537 Q 330 539 325 538 L 323 538 L 320 539 L 320 540 L 331 540 L 331 542 L 327 543 L 325 543 L 323 542 L 321 542 Q 318 541 319 544 L 334 544 L 335 545 L 335 349 L 336 348 L 336 340 L 335 339 L 336 334 L 336 299 Q 333 297 335 291 L 335 289 L 336 281 L 336 279 L 335 277 L 334 201 L 333 200 L 333 172 L 334 171 L 334 151 L 333 150 L 333 140 L 334 139 L 334 130 L 333 129 L 334 125 L 334 123 L 334 81 L 333 80 L 334 78 L 333 76 Q 332 70 334 69 L 333 68 L 333 59 L 329 61 L 330 58 L 327 56 L 327 64 L 330 64 L 332 69 L 331 71 L 326 75 L 326 76 L 329 75 L 331 77 Q 332 84 328 85 Q 324 86 325 83 L 323 83 Q 318 81 319 73 L 318 73 L 315 72 L 318 68 L 318 64 L 316 68 L 309 67 L 306 66 Q 306 70 310 72 L 313 70 Q 315 69 314 73 L 318 75 L 316 82 Q 317 84 319 82 L 321 83 L 323 86 L 325 92 L 325 93 L 321 93 L 322 96 Q 323 100 320 102 L 321 106 L 324 107 L 327 112 L 325 114 L 321 111 Q 322 106 319 107 L 320 113 Q 322 116 327 116 L 329 125 Q 332 126 328 128 L 324 121 Q 325 116 323 117 Q 320 118 321 122 L 315 124 L 317 127 L 319 126 Q 324 124 322 130 L 319 131 L 317 131 L 320 138 L 318 139 L 318 141 Q 317 145 320 144 L 319 147 L 322 151 Q 324 155 320 154 L 315 148 L 316 145 L 314 144 L 313 148 L 314 150 Q 313 152 316 151 L 317 154 Q 318 159 316 160 Q 316 155 314 153 L 311 159 L 313 163 L 313 164 Q 309 163 310 158 Q 308 161 305 160 Q 304 156 308 155 L 310 156 L 311 153 L 309 148 L 310 145 L 307 144 Q 303 143 304 138 L 308 137 L 307 135 Q 306 132 309 133 L 309 131 L 307 132 L 304 132 Q 305 135 302 134 Q 301 131 304 132 Q 303 127 307 126 L 307 123 L 306 125 L 301 128 Q 298 127 299 122 L 305 117 L 308 117 L 306 113 L 304 114 L 300 112 L 302 107 L 303 110 Q 306 111 305 109 L 305 107 L 306 104 L 303 103 L 297 95 L 297 90 L 293 91 L 295 87 Q 298 86 297 90 L 302 86 L 304 87 L 305 88 Q 306 85 304 86 L 304 85 L 303 83 L 300 85 L 298 84 Q 295 83 296 78 L 293 86 L 290 88 L 287 85 Q 289 83 288 79 L 291 76 L 290 73 Q 289 70 287 73 Q 286 76 289 75 L 288 77 Q 285 77 285 73 Q 286 69 290 70 L 292 63 L 297 62 L 299 62 Q 301 58 306 58 L 305 52 Q 301 51 303 57 L 301 58 L 299 54 L 302 53 L 301 48 Q 300 52 296 51 L 293 48 L 295 44 L 299 41 L 299 37 L 296 41 L 291 42 L 289 36 L 290 33 L 286 32 Q 287 38 284 41 L 280 43 L 278 46 Q 275 45 274 48 L 271 44 L 273 36 L 268 36 L 263 41 L 258 39 L 254 40 L 250 37 L 251 36 L 248 34 L 246 30 L 247 25 L 249 22 L 242 23 Q 239 22 241 21 Q 243 14 238 16 L 238 11 L 235 13 Q 238 14 238 20 L 235 22 L 233 21 Q 230 22 231 19 L 229 19 L 229 17 L 226 17 L 226 21 L 229 26 L 232 28 L 229 30 L 229 29 Q 230 26 227 27 L 227 25 L 224 23 L 222 27 L 224 26 L 226 27 L 227 30 Q 225 33 223 32 L 223 35 L 227 40 L 226 44 L 218 43 L 216 40 L 217 32 L 212 34 Q 209 33 210 28 L 217 23 L 214 20 Q 210 19 211 23 L 206 25 L 203 20 L 204 18 L 199 21 L 199 22 Q 203 20 202 24 L 203 25 Q 199 26 200 23 L 197 23 L 193 33 L 189 35 L 186 31 L 189 25 L 189 22 L 186 20 L 188 23 L 188 24 L 184 20 L 188 18 Q 189 14 186 13 Q 187 8 183 10 L 181 10 L 178 11 L 176 10 L 167 10 L 166 11 L 162 10 L 160 10 L 157 11 L 153 10 Z M 196 10 L 194 12 L 196 12 L 196 10 Z M 208 10 Q 207 13 210 12 Q 214 14 211 16 L 212 17 L 215 15 L 220 16 L 220 12 L 219 14 L 218 12 L 216 13 Q 212 14 213 12 Q 212 9 208 10 Z M 31 11 L 27 14 L 34 17 L 35 14 Q 35 11 31 11 Z M 127 11 L 129 14 L 137 12 L 127 11 Z M 193 11 L 191 13 L 193 16 L 193 14 Q 195 12 193 11 Z M 202 11 L 200 14 L 202 13 L 202 11 Z M 224 11 L 224 12 L 230 13 L 231 16 L 233 17 L 232 13 L 232 11 L 224 11 Z M 243 11 Q 242 14 245 13 Q 246 10 243 11 Z M 99 12 L 98 13 Q 94 12 95 15 Q 93 16 96 17 L 100 14 L 104 15 L 104 14 Q 103 11 99 12 Z M 206 12 L 203 16 L 205 18 L 205 17 L 207 18 L 206 22 L 208 23 Q 209 15 206 12 Z M 257 12 L 255 14 L 256 17 L 257 14 L 257 12 Z M 261 12 L 261 15 L 263 14 Q 264 11 261 12 Z M 270 12 L 269 13 Q 266 12 267 15 Q 269 18 271 14 L 271 17 L 269 17 L 271 19 Q 273 18 272 14 L 270 12 Z M 303 12 L 304 17 L 307 13 L 303 12 Z M 323 12 L 324 14 Q 325 11 323 12 Z M 329 12 L 327 14 L 328 16 L 330 15 L 329 12 Z M 111 13 L 109 15 Q 108 17 111 16 Q 114 15 111 13 Z M 249 13 L 246 18 L 245 16 L 243 22 L 245 21 Q 244 18 247 19 L 249 15 L 249 13 Z M 298 13 L 296 23 L 297 24 L 300 16 Q 301 12 298 13 Z M 312 13 L 311 15 L 315 16 L 317 15 L 316 14 L 314 14 L 312 13 Z M 71 14 Q 69 17 72 16 L 71 14 Z M 92 14 L 91 18 L 92 18 L 92 14 Z M 134 14 L 133 15 Q 130 14 131 17 Q 135 18 136 16 Q 137 13 134 14 Z M 225 14 L 222 15 L 225 19 L 226 17 L 225 14 Z M 294 14 Q 292 17 289 16 Q 288 22 292 24 L 294 20 L 294 14 Z M 76 15 L 74 17 Q 73 21 76 20 L 76 15 Z M 265 15 Q 263 19 267 20 L 269 19 L 265 15 Z M 275 15 L 276 21 L 277 18 Q 278 14 275 15 Z M 283 15 L 281 26 L 284 27 L 284 26 L 287 24 Q 288 21 286 22 L 284 23 L 285 21 Q 287 14 283 15 Z M 128 16 Q 124 17 125 21 L 129 19 L 128 16 Z M 196 16 Q 195 19 198 18 Q 199 20 200 18 L 200 16 L 196 16 Z M 320 16 Q 319 19 322 18 Q 323 15 320 16 Z M 332 16 L 326 18 Q 322 20 327 22 L 329 21 L 331 21 L 332 25 L 333 25 Q 334 19 332 16 Z M 25 17 L 23 19 L 26 20 Q 27 16 25 17 Z M 39 17 L 38 19 L 36 19 Q 35 21 38 20 Q 37 24 40 25 Q 42 23 41 18 L 39 17 Z M 114 17 L 112 19 Q 114 22 115 19 Q 116 16 114 17 Z M 213 17 L 213 19 L 219 21 L 220 18 L 219 18 L 213 17 Z M 258 18 L 256 20 L 258 20 Q 259 22 260 20 L 258 18 Z M 278 18 Q 277 22 280 21 Q 281 17 278 18 Z M 28 19 L 30 25 L 28 25 Q 31 26 30 32 L 32 33 Q 34 26 31 25 L 34 23 L 35 25 L 35 23 L 32 22 Q 33 17 28 19 Z M 108 19 L 108 28 L 111 29 L 110 26 L 111 21 L 108 19 Z M 190 19 L 190 21 L 192 20 L 190 19 Z M 221 19 L 221 21 L 224 21 L 221 19 Z M 14 20 L 14 24 L 16 23 Q 17 19 14 20 Z M 21 20 L 17 26 L 22 24 L 21 20 Z M 62 20 L 61 23 L 63 23 L 62 20 Z M 73 20 L 70 23 L 69 31 L 71 32 L 74 29 Q 75 25 72 26 L 73 23 L 73 20 Z M 94 20 L 87 25 L 88 27 Q 91 28 90 24 L 96 24 L 96 22 L 94 20 Z M 137 20 L 136 27 L 138 26 Q 139 21 137 20 Z M 44 21 L 43 24 L 42 26 L 45 25 L 44 21 Z M 57 21 Q 55 24 54 22 L 53 24 L 57 23 L 57 21 Z M 65 22 Q 64 25 67 24 Q 68 21 65 22 Z M 267 22 L 268 28 L 268 27 L 268 25 Q 269 21 267 22 Z M 271 22 Q 268 26 272 25 L 271 22 Z M 318 22 Q 317 25 320 24 Q 321 21 318 22 Z M 322 22 Q 321 25 324 24 Q 325 21 322 22 Z M 113 23 L 114 27 L 115 25 Q 116 22 113 23 Z M 220 24 Q 218 27 217 25 L 215 26 Q 212 26 212 31 L 215 29 L 217 30 L 220 26 L 220 24 Z M 331 24 L 328 27 L 327 31 L 329 31 L 331 26 L 331 24 Z M 24 25 L 27 32 L 24 34 L 29 36 L 28 30 L 26 27 Q 27 24 24 25 Z M 117 25 L 115 27 L 117 28 L 117 25 Z M 191 25 L 188 29 L 190 33 L 191 29 L 191 25 Z M 300 25 L 299 29 L 295 26 L 295 28 L 292 34 Q 291 38 294 39 Q 297 40 296 38 L 295 35 Q 294 31 297 30 L 298 35 L 300 30 L 301 33 L 304 35 L 300 25 Z M 305 25 L 304 27 Q 306 30 307 27 L 305 25 Z M 315 25 L 313 27 L 314 29 L 313 31 Q 311 38 317 36 L 319 31 L 318 28 L 315 25 Z M 84 26 Q 80 28 85 30 L 87 29 L 84 26 Z M 93 26 L 91 28 Q 90 30 93 29 Q 96 28 93 26 Z M 98 26 L 96 28 L 98 30 Q 102 31 100 27 L 98 26 Z M 289 26 L 291 28 Q 292 30 293 28 L 289 26 Z M 37 27 L 36 30 L 37 30 L 37 27 Z M 272 27 L 271 30 L 272 34 L 274 33 L 276 35 L 274 39 L 275 45 Q 278 43 277 37 L 277 35 L 278 29 Q 277 26 272 27 Z M 287 27 L 286 30 L 287 30 L 287 27 Z M 333 27 L 331 32 L 329 33 Q 325 34 326 41 L 326 42 L 328 41 L 331 42 L 331 38 L 330 40 L 327 39 Q 326 36 329 37 L 330 38 Q 329 35 332 36 L 331 43 L 332 45 L 333 45 L 333 27 Z M 15 28 L 13 30 L 14 32 Q 18 30 15 28 Z M 87 29 L 85 33 Q 84 35 87 34 L 89 30 L 87 29 Z M 221 29 L 219 33 L 221 32 L 221 29 Z M 281 29 L 280 34 L 280 36 L 279 40 Q 281 43 283 39 Q 285 31 281 29 Z M 309 29 L 307 31 L 308 33 L 311 33 L 309 29 Z M 110 30 L 109 32 L 112 32 L 110 30 Z M 268 30 L 266 34 L 269 33 L 268 30 Z M 82 31 L 80 32 L 77 39 L 78 39 Q 77 36 80 37 L 82 36 L 80 40 Q 81 42 78 41 Q 76 46 80 48 L 83 47 L 83 32 L 82 31 Z M 93 31 L 87 37 L 88 41 L 89 38 L 94 39 L 95 37 L 93 31 Z M 56 33 Q 57 36 54 38 Q 53 43 57 44 L 55 47 L 56 48 L 56 67 L 57 68 Q 56 70 60 69 Q 61 71 62 69 L 62 57 L 61 56 L 62 53 L 60 45 L 62 41 L 58 35 Q 59 32 56 33 Z M 322 33 L 321 36 L 321 37 L 323 36 L 322 33 Z M 221 34 L 222 40 Q 224 43 225 40 L 221 34 Z M 257 34 L 255 37 L 254 35 L 253 38 Q 255 41 257 37 L 262 39 L 264 36 L 260 37 L 257 36 L 257 34 Z M 86 36 L 84 38 L 86 39 L 86 36 Z M 219 36 L 218 39 L 219 39 L 219 36 Z M 309 36 L 307 38 L 309 39 L 309 36 Z M 24 37 L 23 39 L 25 40 L 24 37 Z M 29 37 L 28 40 L 32 39 Q 33 36 31 37 L 29 37 Z M 302 37 L 302 43 L 304 43 L 304 37 L 302 37 Z M 319 37 L 315 40 L 322 43 L 324 38 L 319 40 L 319 37 Z M 310 38 L 312 41 L 314 40 L 314 38 L 310 38 Z M 220 39 L 219 41 L 222 42 L 220 39 Z M 111 40 L 112 42 Q 113 39 111 40 Z M 23 41 L 20 48 L 22 47 Q 24 48 23 45 L 26 46 L 26 44 L 23 41 Z M 309 41 L 307 43 L 309 43 L 309 41 Z M 314 43 Q 312 46 311 44 L 310 47 L 310 49 Q 307 50 309 57 L 311 56 L 314 57 Q 316 57 316 53 L 319 51 L 321 46 L 319 46 L 312 52 L 313 54 Q 312 57 310 54 L 311 47 L 315 46 L 314 43 Z M 300 44 L 298 46 L 299 47 L 301 46 Q 302 43 300 44 Z M 304 45 L 302 47 Q 301 49 304 48 L 304 45 Z M 325 45 L 325 48 L 328 50 Q 329 46 331 49 L 331 47 Q 330 44 325 45 Z M 118 46 L 117 49 L 118 49 L 118 46 Z M 112 49 L 110 51 L 113 52 L 112 49 Z M 122 49 L 124 52 L 125 50 L 122 49 Z M 27 50 L 26 52 L 28 53 L 27 50 Z M 31 50 Q 28 54 32 53 L 31 50 Z M 116 50 L 114 52 L 116 52 L 116 50 Z M 323 50 L 323 53 L 318 60 L 322 62 L 321 61 L 323 60 L 322 59 L 326 54 L 326 52 L 323 50 Z M 333 50 L 331 53 L 333 54 L 333 50 Z M 36 51 L 34 53 L 37 58 L 35 63 L 38 65 Q 35 65 36 70 Q 39 71 37 73 L 39 75 L 40 73 Q 41 65 38 62 L 41 61 L 42 59 L 42 52 L 40 52 L 38 52 L 36 51 Z M 26 52 L 25 55 L 26 55 L 26 52 Z M 26 55 L 26 57 L 26 58 Q 30 59 29 57 L 26 55 Z M 315 58 Q 312 59 314 61 L 313 64 L 317 64 L 315 58 Z M 309 59 L 307 63 Q 309 67 311 64 L 310 61 Q 311 58 309 59 Z M 324 61 L 324 63 L 326 62 L 324 61 Z M 18 63 L 18 65 L 20 64 L 18 63 Z M 297 63 L 295 64 Q 292 65 292 69 L 296 71 Q 299 69 299 64 L 297 63 Z M 21 64 L 20 67 L 21 67 L 21 64 Z M 302 65 L 301 68 L 303 68 L 302 65 Z M 326 67 L 324 69 L 326 72 Q 330 70 327 69 Q 328 66 326 67 Z M 53 71 L 52 74 L 57 75 L 58 75 L 53 71 Z M 60 71 L 59 73 L 64 74 L 66 79 L 67 86 L 71 90 L 70 91 L 68 88 L 64 87 L 65 93 Q 70 92 71 95 L 70 98 L 74 108 Q 75 112 73 114 Q 72 116 75 115 L 76 119 L 74 122 L 75 129 L 78 128 Q 79 125 76 126 L 79 114 L 82 109 L 77 93 L 77 88 L 73 80 L 69 78 L 67 74 Q 66 71 65 73 L 60 71 Z M 303 71 L 303 73 L 305 74 Q 306 70 303 71 Z M 25 73 L 22 74 L 23 76 L 25 75 L 25 73 Z M 306 74 L 306 77 L 308 76 Q 309 73 306 74 Z M 323 75 L 321 78 L 323 77 L 323 75 Z M 293 76 L 289 80 Q 288 85 291 86 L 293 82 L 293 76 Z M 311 76 L 310 78 L 311 81 L 309 84 L 310 86 L 314 81 L 313 77 L 311 76 Z M 16 77 L 15 80 L 17 80 L 16 77 Z M 20 77 L 20 79 L 22 78 L 20 77 Z M 51 77 Q 49 80 52 81 L 55 79 L 62 81 L 63 81 L 60 78 L 53 77 L 51 77 Z M 301 77 Q 300 80 303 79 Q 304 76 301 77 Z M 13 78 Q 11 82 13 84 L 12 87 L 13 88 L 21 83 Q 23 88 25 85 Q 26 81 24 82 L 21 81 L 15 83 L 13 78 Z M 19 78 Q 17 81 20 80 L 19 78 Z M 304 78 L 303 82 L 307 81 L 306 80 Q 307 77 304 78 Z M 325 78 L 325 80 L 325 82 Q 324 84 327 83 L 328 80 L 325 78 Z M 27 82 L 26 85 L 29 85 Q 30 81 27 82 Z M 53 82 L 53 84 L 60 84 Q 58 81 53 82 Z M 61 84 L 61 85 L 63 85 L 61 84 Z M 319 84 L 318 87 L 320 87 L 319 84 Z M 22 85 Q 22 88 19 87 L 16 93 L 17 98 L 15 101 L 16 106 L 17 106 Q 15 99 22 101 L 24 105 Q 23 100 26 98 L 27 104 L 27 101 L 29 101 L 27 100 L 28 98 L 28 95 L 19 95 L 19 92 L 21 91 Q 20 95 24 93 Q 25 89 22 90 L 22 85 Z M 55 86 L 53 88 L 60 89 Q 61 91 62 89 L 55 86 Z M 13 90 L 12 94 L 12 101 L 14 101 L 13 99 L 15 92 Q 16 89 13 90 Z M 26 90 L 26 93 Q 30 95 29 92 L 26 90 Z M 320 90 L 321 92 L 322 92 L 320 90 Z M 57 91 L 57 114 Q 60 114 59 119 L 57 123 L 60 126 Q 59 128 62 127 L 64 123 L 64 120 L 61 115 L 64 114 L 63 92 L 57 91 Z M 301 92 Q 299 95 302 94 L 301 92 Z M 305 92 Q 304 95 307 94 Q 308 91 305 92 Z M 30 94 L 32 98 L 33 96 L 30 94 Z M 320 95 L 318 98 Q 315 97 316 100 Q 314 103 309 101 L 306 100 L 307 103 L 314 102 L 312 105 L 315 105 L 320 98 L 320 95 Z M 34 98 L 34 103 L 36 102 L 34 98 Z M 303 98 L 304 101 Q 306 102 305 99 L 303 98 Z M 83 101 L 82 103 L 84 104 L 83 101 Z M 39 104 L 38 107 L 40 108 L 39 104 Z M 22 105 L 22 108 Q 25 107 22 105 Z M 85 107 L 82 113 Q 81 118 84 120 L 83 123 L 86 124 Q 87 128 85 130 Q 84 132 87 131 L 88 134 L 88 150 L 87 151 L 88 161 L 89 158 L 89 146 L 92 145 Q 90 137 96 135 L 94 130 Q 95 127 92 128 L 91 121 L 89 120 Q 90 124 88 123 L 86 121 L 87 120 L 84 117 L 85 115 L 85 107 Z M 19 108 L 19 111 L 23 113 L 25 113 L 24 111 L 23 111 Q 19 112 21 108 L 19 108 Z M 311 108 L 309 111 L 312 110 Q 313 107 311 108 Z M 27 109 L 25 111 Q 24 113 28 112 L 27 109 Z M 35 109 L 34 112 L 37 111 L 35 109 Z M 11 111 Q 9 116 13 115 Q 15 110 11 111 Z M 316 111 L 314 113 L 315 115 L 314 117 L 315 119 Q 314 121 318 120 Q 319 117 316 118 L 317 116 Q 318 112 316 111 Z M 25 114 Q 24 117 27 116 Q 28 113 25 114 Z M 305 119 L 302 122 L 304 124 L 306 120 L 305 119 Z M 307 120 L 307 122 L 309 121 L 307 120 Z M 312 121 L 309 125 Q 309 129 312 129 L 313 126 L 313 124 L 312 121 Z M 315 131 L 311 135 L 312 138 Q 314 141 315 138 L 315 131 Z M 81 134 L 78 138 Q 76 143 80 142 L 81 138 L 81 134 Z M 85 137 Q 85 142 82 144 L 83 150 L 85 151 L 85 137 Z M 97 137 L 95 146 L 99 148 L 98 151 Q 100 156 95 154 L 92 147 L 91 156 L 90 157 L 91 160 L 90 162 L 92 166 L 92 160 L 92 158 L 94 154 L 95 156 L 96 171 L 98 166 L 98 160 L 101 158 L 102 161 L 99 177 L 97 172 L 95 173 L 97 179 L 100 180 L 101 174 L 104 172 L 104 187 L 106 190 L 106 180 L 107 179 L 106 177 L 107 176 L 107 165 L 108 164 L 107 161 L 108 157 L 103 147 L 100 145 Q 101 140 97 137 Z M 150 138 L 149 140 Q 153 141 154 139 L 150 138 Z M 306 139 L 309 143 L 310 141 L 306 139 Z M 144 140 L 142 143 L 144 142 L 144 140 Z M 153 143 L 151 145 L 154 146 L 153 143 Z M 139 145 Q 137 150 141 149 Q 143 144 139 145 Z M 148 145 L 148 147 L 150 146 L 148 145 Z M 144 147 L 143 150 L 144 150 L 144 147 Z M 164 147 L 162 150 L 164 149 L 164 147 Z M 145 151 L 143 154 L 140 152 L 139 155 L 141 155 Q 140 157 143 156 L 142 158 L 151 160 L 146 160 L 144 160 Q 143 162 147 161 L 149 161 Q 153 160 154 164 L 152 167 L 146 166 L 144 167 L 146 164 L 142 163 L 143 173 L 149 184 L 157 188 L 160 187 Q 166 181 169 173 L 169 162 L 168 164 L 165 163 Q 164 166 168 165 L 168 167 L 160 167 L 160 177 L 158 179 L 154 177 L 156 176 L 158 176 L 158 167 L 157 166 L 158 164 L 164 161 L 168 162 L 169 160 L 168 159 L 166 159 L 164 156 L 167 157 L 168 155 L 169 158 L 169 156 L 171 156 L 170 153 Q 165 152 164 155 L 162 154 L 154 155 L 151 154 L 149 155 L 145 154 L 145 153 L 145 151 Z M 112 164 L 111 169 L 112 169 L 112 164 Z M 93 175 L 92 179 L 94 179 L 93 175 Z M 146 181 L 146 189 Q 145 191 144 189 L 140 190 L 140 195 Q 144 197 144 204 L 147 206 Q 151 205 153 207 L 161 205 L 169 205 L 174 193 L 172 194 L 169 193 L 167 194 Q 164 193 165 188 Q 161 188 159 191 L 151 187 L 146 181 Z M 99 182 L 103 193 L 105 192 L 101 184 Q 102 181 99 182 Z M 179 192 L 178 199 L 174 207 L 172 208 L 169 207 L 167 207 L 153 210 L 151 210 Q 143 211 142 206 Q 139 207 140 204 L 139 204 Q 137 210 140 212 Q 141 216 139 218 L 140 220 L 140 299 Q 144 300 143 305 L 149 309 Q 151 303 159 303 L 161 303 L 165 302 L 172 305 L 177 305 L 188 298 L 188 209 L 187 208 L 187 199 L 185 194 L 179 192 Z M 95 195 L 94 199 L 95 199 L 95 195 Z M 112 197 L 113 199 Q 114 196 112 197 Z M 112 200 L 111 203 L 112 203 L 112 200 Z M 193 208 L 192 212 L 193 212 L 193 208 Z M 98 212 L 97 219 L 98 219 L 98 212 Z M 130 212 L 129 215 L 130 215 L 130 212 Z M 193 213 L 192 216 L 193 216 L 193 213 Z M 118 215 L 117 221 L 118 221 L 118 215 Z M 135 215 L 134 221 L 135 221 L 135 215 Z M 205 215 L 203 217 L 205 217 L 205 215 Z M 110 217 L 109 221 L 110 221 L 110 217 Z M 113 217 L 111 219 L 113 219 L 113 217 Z M 120 218 L 119 222 L 120 222 L 120 218 Z M 129 218 L 128 223 L 129 223 L 129 218 Z M 192 220 L 191 224 L 193 223 L 192 220 Z M 110 222 L 109 225 L 110 225 L 110 222 Z M 118 223 L 117 227 L 119 227 L 118 223 Z M 128 224 L 127 237 L 129 238 L 128 224 Z M 135 224 L 134 229 L 134 231 L 135 234 L 136 234 L 135 224 Z M 110 226 L 108 228 L 110 228 L 110 226 Z M 111 226 L 111 228 L 113 227 L 111 226 Z M 199 227 L 198 230 L 199 230 L 199 227 Z M 118 228 L 117 234 L 119 233 L 118 228 Z M 103 232 L 104 234 Q 105 231 103 232 Z M 110 233 L 109 236 L 111 237 L 110 233 Z M 122 233 L 121 243 L 122 243 L 122 233 Z M 134 234 L 133 242 L 135 243 L 135 242 L 135 240 L 134 234 Z M 193 237 L 192 240 L 193 240 L 193 237 Z M 120 238 L 118 240 L 120 240 L 120 238 Z M 221 240 L 220 243 L 221 243 L 221 240 Z M 107 241 L 106 244 L 107 244 L 107 241 Z M 112 241 L 113 244 L 114 242 L 112 241 Z M 119 243 Q 116 248 120 247 L 119 243 Z M 102 244 L 101 248 L 102 248 L 102 244 Z M 129 244 L 127 247 Q 125 252 129 251 L 128 250 L 129 247 L 129 244 Z M 135 245 L 133 247 L 134 249 L 135 247 L 135 245 Z M 193 245 L 192 254 L 193 254 L 193 245 Z M 101 251 L 100 254 L 101 254 L 101 251 Z M 123 251 L 122 255 L 123 255 L 123 251 Z M 119 252 L 118 255 L 119 255 L 119 252 Z M 135 252 L 134 255 L 135 255 L 135 252 Z M 100 256 L 99 260 L 100 260 L 100 256 Z M 135 256 L 134 260 L 135 260 L 135 256 Z M 101 262 L 100 265 L 101 265 L 101 262 Z M 119 262 L 118 266 L 119 266 L 119 262 Z M 193 263 L 192 269 L 193 269 L 193 263 Z M 134 266 L 133 269 L 134 269 L 134 266 Z M 119 269 L 118 272 L 119 272 L 119 269 Z M 193 271 L 192 285 L 193 285 L 193 271 Z M 242 271 L 236 279 Q 237 281 234 280 L 235 283 L 232 291 L 233 303 Q 233 289 238 280 Q 239 276 243 277 L 237 292 L 238 298 L 239 290 L 241 288 Q 240 285 243 286 L 244 286 L 242 292 L 243 296 L 243 294 L 245 293 L 244 296 Q 243 301 246 302 L 247 295 L 246 293 Q 245 288 248 287 L 247 286 L 250 283 L 249 282 L 242 271 Z M 74 278 L 73 279 Q 65 277 66 281 L 65 280 L 57 285 L 56 283 L 54 284 L 53 282 L 58 281 L 54 280 L 51 284 Q 53 288 55 285 L 61 287 L 63 286 L 65 287 L 77 287 L 88 285 Q 91 285 90 281 Q 84 277 74 278 Z M 93 284 L 92 289 L 87 297 L 81 315 Q 80 319 83 321 L 83 325 L 78 330 L 80 341 L 80 351 L 88 351 L 89 350 L 92 351 L 94 351 L 96 351 Q 94 349 95 345 L 95 343 L 95 318 L 94 317 L 95 312 L 94 309 L 95 307 L 95 285 L 93 284 Z M 193 286 L 192 289 L 193 289 L 193 286 Z M 86 287 L 76 290 L 67 290 L 66 289 L 61 290 L 55 289 L 67 317 Q 66 320 70 319 Q 71 321 73 318 L 76 319 L 77 317 L 77 315 Q 80 314 79 310 Q 82 308 80 307 L 82 302 L 81 300 L 83 300 L 83 299 L 84 297 L 81 298 Q 76 299 77 296 L 85 294 L 86 292 L 78 294 L 76 293 L 73 294 L 72 292 L 86 289 L 86 287 Z M 119 288 L 118 291 L 119 291 L 119 288 Z M 251 288 L 249 296 L 250 301 L 257 307 L 256 309 L 258 309 L 259 317 L 261 320 Q 260 322 263 321 L 262 320 L 263 317 Q 259 314 259 307 Q 257 305 260 304 L 263 312 L 268 314 L 273 320 L 274 320 L 267 310 L 268 308 L 262 301 Q 263 298 260 299 L 254 291 L 251 288 Z M 192 295 L 193 297 Q 194 294 192 295 Z M 217 296 L 216 301 L 217 301 L 217 296 Z M 242 296 L 240 303 L 242 303 L 242 296 Z M 188 302 L 182 306 Q 179 305 180 308 L 179 307 L 175 309 L 173 309 L 168 309 L 164 306 Q 157 305 154 308 L 155 310 L 153 311 Q 154 313 156 311 L 159 313 L 164 310 L 171 310 L 173 310 L 176 312 L 182 311 L 188 306 L 188 302 Z M 211 305 L 210 308 L 211 308 L 211 305 Z M 198 306 L 197 315 L 198 315 L 198 306 Z M 141 309 L 141 312 L 146 315 L 147 313 L 146 313 L 142 311 Q 143 308 141 309 Z M 211 310 L 210 313 L 211 313 L 211 310 Z M 101 311 L 100 318 L 101 318 L 101 311 Z M 151 311 Q 146 314 147 319 Q 150 317 157 318 Q 158 315 156 316 L 154 313 Q 152 314 151 311 Z M 166 313 L 159 317 L 162 318 L 165 316 Q 171 315 174 318 L 175 318 L 170 314 L 168 314 L 166 313 Z M 185 313 L 178 316 L 188 322 L 189 318 L 187 319 L 184 318 L 186 314 L 185 313 Z M 228 314 L 227 318 L 228 318 L 228 314 Z M 140 317 L 140 320 L 141 320 Q 142 316 140 317 Z M 236 317 L 236 322 L 237 322 Q 239 316 236 317 Z M 265 317 L 268 323 L 272 325 L 273 326 L 272 323 L 265 317 Z M 105 318 L 105 319 L 107 319 L 105 318 Z M 67 319 L 65 321 L 67 326 L 67 323 L 67 321 L 67 319 Z M 146 319 L 145 325 L 146 325 L 146 319 Z M 164 319 L 154 321 L 155 324 L 154 329 L 154 331 Q 155 333 153 332 L 151 331 L 151 322 L 150 332 L 149 333 L 151 344 L 149 351 L 156 351 L 157 354 L 157 351 L 163 349 L 168 351 L 172 350 L 174 351 L 188 351 L 188 323 L 187 339 L 185 340 L 183 339 L 183 326 L 176 325 L 178 335 L 178 349 L 174 349 L 174 340 L 174 338 L 173 335 L 174 323 L 171 321 L 171 330 L 172 331 L 172 336 L 170 336 L 168 333 L 167 333 L 167 346 L 165 346 L 163 345 L 163 329 L 162 328 L 163 324 Q 162 321 165 322 L 167 328 L 169 320 L 168 320 L 164 319 Z M 211 319 L 210 328 L 211 328 L 211 319 Z M 228 319 L 227 327 L 228 327 L 228 319 Z M 72 320 Q 72 327 68 330 L 69 333 L 68 335 L 68 349 L 67 350 L 68 354 Q 65 355 67 362 L 65 366 L 65 371 L 60 381 Q 61 384 67 383 L 68 384 Q 67 381 70 382 Q 72 378 68 379 L 68 381 L 65 380 L 64 378 Q 66 379 65 376 L 68 375 L 69 378 L 70 378 L 70 330 Q 71 327 73 329 Q 75 328 74 331 L 75 331 Q 77 326 74 327 Q 71 325 72 320 Z M 77 320 L 77 322 L 76 325 L 77 326 Q 79 326 79 322 L 77 320 Z M 278 320 L 276 323 L 278 328 L 279 337 L 280 337 L 280 331 L 278 320 Z M 141 321 L 139 323 L 140 324 L 140 335 L 141 336 L 139 340 L 140 341 L 140 351 L 148 351 L 146 349 L 146 336 L 145 335 L 146 330 L 145 330 Q 146 332 144 331 Q 140 328 141 321 Z M 112 322 L 111 325 L 112 325 L 112 322 Z M 199 322 L 198 326 L 199 326 L 199 322 Z M 266 322 Q 263 326 267 325 L 269 329 L 271 330 L 271 328 L 266 322 Z M 101 325 L 100 328 L 101 328 L 101 325 Z M 233 326 L 232 330 L 233 330 L 233 326 Z M 264 327 L 264 329 L 268 331 L 269 331 L 264 327 Z M 107 328 L 106 331 L 107 331 L 107 328 Z M 237 328 L 236 331 L 237 331 L 237 328 Z M 211 329 L 210 332 L 211 332 L 211 329 Z M 242 329 L 241 334 L 242 334 L 242 329 Z M 118 330 L 117 333 L 118 333 L 118 330 Z M 199 331 L 198 334 L 199 334 L 199 331 Z M 132 332 L 131 337 L 132 337 L 132 332 Z M 75 333 L 74 347 Q 77 348 76 346 L 76 344 L 75 333 Z M 228 333 L 227 336 L 228 336 L 228 333 Z M 233 334 L 232 338 L 233 338 L 233 334 Z M 211 337 L 210 342 L 211 342 L 211 337 Z M 194 339 L 193 347 L 194 347 L 194 339 Z M 228 339 L 227 342 L 228 342 L 228 339 Z M 233 339 L 232 342 L 233 342 L 233 339 Z M 106 341 L 105 347 L 106 347 L 106 341 Z M 101 342 L 100 348 L 101 348 L 101 342 Z M 32 344 L 18 348 Q 12 351 10 358 L 11 362 L 15 365 L 23 368 L 45 368 L 58 363 L 61 359 L 61 353 L 59 349 L 49 345 L 40 345 L 44 350 L 48 349 L 51 350 L 54 349 L 58 351 L 48 355 L 53 364 L 43 362 L 39 359 L 24 362 L 20 364 L 17 364 L 25 354 L 20 352 L 18 349 L 33 349 L 35 348 L 37 345 L 36 345 L 32 344 Z M 211 345 L 210 349 L 211 349 L 211 345 Z M 39 347 L 36 349 L 40 349 L 39 347 Z M 103 347 L 102 350 L 106 351 L 106 348 L 103 349 L 103 347 Z M 112 347 L 111 350 L 112 350 L 112 347 Z M 76 348 L 74 350 L 74 381 L 72 382 L 74 385 L 78 382 L 81 383 L 84 382 L 85 380 L 82 377 L 78 369 L 76 348 Z M 24 350 L 23 352 L 29 353 Q 32 352 29 350 L 26 351 L 24 350 Z M 36 350 L 30 355 L 37 357 L 44 355 L 42 352 Q 41 349 40 351 L 36 350 Z M 45 351 L 47 354 L 53 352 L 45 351 Z M 163 351 Q 160 356 164 355 L 163 351 Z M 211 351 L 210 357 L 211 357 L 211 351 Z M 80 354 L 80 356 L 83 355 L 85 356 L 85 354 L 80 354 Z M 86 354 Q 85 357 88 356 Q 89 353 86 354 Z M 89 354 L 89 356 L 93 356 L 93 355 L 92 355 L 89 354 Z M 94 354 L 95 356 L 106 356 L 109 357 L 110 354 L 108 355 Q 106 353 101 354 L 99 354 L 97 355 L 94 354 Z M 112 354 Q 109 358 114 357 L 116 357 L 116 355 L 112 354 Z M 119 354 Q 116 359 123 357 L 124 358 L 124 354 L 123 356 L 119 354 Z M 125 354 L 127 358 Q 131 359 129 355 L 128 355 L 125 354 Z M 131 354 L 130 358 L 131 358 L 131 354 Z M 133 354 L 132 358 L 137 357 L 142 358 Q 148 358 152 355 L 145 354 L 142 355 L 139 354 L 139 356 L 138 355 L 135 355 L 133 354 Z M 174 354 L 173 360 L 174 360 L 174 354 Z M 177 354 L 175 358 L 176 359 L 178 358 L 177 354 Z M 178 354 L 178 357 L 181 355 L 178 354 Z M 230 354 L 229 357 L 230 357 L 230 354 Z M 28 356 L 24 361 Q 29 361 32 358 L 28 356 Z M 45 356 L 44 357 Q 40 356 41 359 L 47 360 L 48 361 L 46 358 Q 47 355 45 356 Z M 172 356 L 171 359 L 172 359 L 172 356 Z M 161 357 L 160 360 L 165 361 Q 167 362 166 360 L 161 357 Z M 198 357 L 196 359 L 198 359 Q 199 357 201 360 L 201 359 L 198 357 Z M 82 358 L 82 359 Q 86 358 88 360 L 91 359 L 92 360 L 109 360 L 110 361 L 115 360 L 119 361 L 124 360 L 109 359 L 108 358 L 82 358 Z M 193 358 L 190 360 L 193 360 L 193 358 Z M 129 359 L 128 361 L 132 361 L 132 360 L 131 360 L 129 359 Z M 136 359 L 136 360 L 139 360 L 136 359 Z M 203 359 L 202 362 L 203 362 L 203 359 Z M 146 360 L 139 363 L 140 365 L 151 361 L 146 360 Z M 81 361 L 81 363 L 84 363 L 86 362 L 90 364 L 93 363 L 98 364 L 100 364 L 102 363 L 103 364 L 111 364 L 113 364 L 122 366 L 125 365 L 130 367 L 131 364 L 130 364 Q 128 362 124 363 L 122 363 L 120 362 Q 115 361 114 363 L 113 362 L 101 362 L 100 361 L 81 361 Z M 159 361 L 154 363 Q 151 364 152 368 L 156 367 L 158 368 L 162 367 L 169 369 L 168 368 L 169 366 L 169 368 L 174 367 L 177 368 L 182 367 Q 183 365 185 368 L 188 367 Q 192 368 190 363 L 188 362 L 185 364 L 181 362 L 177 363 L 172 362 Q 165 361 163 365 Q 159 366 161 362 L 159 361 Z M 196 363 L 195 364 Q 192 363 193 367 L 196 368 Q 197 371 199 367 L 198 365 L 196 363 Z M 83 365 L 83 372 L 90 379 Q 92 378 91 382 L 93 381 L 92 379 L 93 377 L 92 371 L 91 377 Q 86 374 87 365 L 86 371 L 84 369 L 85 366 L 83 365 Z M 94 366 L 94 368 L 93 372 L 93 374 Q 92 377 95 376 L 95 374 L 95 367 L 94 366 Z M 97 366 Q 94 372 98 371 L 97 366 Z M 103 366 L 102 382 Q 105 383 104 381 L 104 379 L 103 377 L 104 373 L 103 366 Z M 112 366 L 110 369 L 111 370 L 111 379 L 111 383 L 111 391 L 110 392 L 113 393 L 112 391 L 112 366 Z M 99 367 L 99 370 L 99 372 L 100 374 L 100 383 L 99 384 L 100 388 L 99 390 Q 98 394 101 393 L 101 368 L 99 367 Z M 105 367 L 105 380 L 106 381 L 105 382 L 105 390 L 106 391 Q 103 390 104 387 L 104 385 Q 105 382 102 383 L 103 388 L 102 390 L 102 392 L 104 392 L 107 393 L 107 392 L 109 392 L 110 390 L 109 387 L 108 390 L 107 375 L 106 373 L 107 370 Q 108 366 105 367 Z M 115 367 L 114 369 L 114 371 L 113 373 L 114 375 L 114 393 L 116 394 L 115 392 L 117 391 L 115 390 L 115 367 Z M 135 367 Q 133 371 136 374 L 137 374 Q 138 368 135 367 Z M 117 368 L 116 371 L 117 371 L 117 368 Z M 118 368 L 117 375 L 127 371 Q 129 367 124 368 L 122 368 L 121 370 L 120 370 Q 121 367 118 368 Z M 88 369 L 90 374 L 90 372 L 90 370 L 88 369 Z M 186 369 L 183 371 L 186 371 L 186 369 Z M 60 370 L 57 371 L 58 374 L 57 376 L 59 376 L 60 372 L 60 370 Z M 109 371 L 108 374 L 109 374 L 109 371 Z M 148 371 L 148 373 L 150 372 L 148 371 Z M 157 371 L 157 381 L 158 382 L 155 383 L 155 381 L 154 385 L 150 387 L 152 389 L 157 385 L 160 381 Q 157 378 158 372 L 160 372 L 157 371 Z M 166 371 Q 163 375 167 374 L 166 371 Z M 56 372 L 55 379 L 56 379 L 56 372 Z M 97 372 Q 94 377 98 376 L 97 372 Z M 146 372 L 145 388 L 146 388 L 146 372 Z M 153 372 L 153 383 L 153 381 L 154 378 L 153 372 Z M 19 373 L 18 378 L 19 378 L 19 373 Z M 164 373 Q 161 377 165 376 L 164 373 Z M 13 374 L 12 379 L 13 379 L 13 374 Z M 22 374 L 21 378 L 20 381 Q 19 383 22 382 L 22 374 Z M 25 374 L 23 381 L 24 383 L 23 392 L 25 393 L 25 374 Z M 30 374 L 30 381 L 30 377 Q 32 375 30 374 Z M 33 374 L 32 393 L 34 392 L 33 391 L 33 374 Z M 36 374 L 35 383 L 34 384 Q 37 385 35 392 L 36 392 L 36 374 Z M 42 374 L 43 377 L 42 380 L 42 382 L 43 384 L 42 388 L 44 387 L 44 375 L 42 374 Z M 45 374 L 45 376 L 47 375 L 45 374 Z M 53 375 L 54 377 Q 55 374 53 375 Z M 141 375 L 140 386 L 141 386 L 141 375 Z M 151 375 L 150 379 L 151 379 L 151 375 Z M 39 376 L 37 381 L 39 381 L 39 376 Z M 47 376 L 45 380 L 48 378 L 49 380 L 49 377 L 47 376 Z M 133 376 L 132 381 L 133 381 L 133 376 Z M 134 376 L 134 381 L 134 383 L 135 387 L 136 387 L 136 377 L 134 376 Z M 184 376 L 178 381 L 180 381 L 182 381 L 184 380 L 184 376 Z M 53 377 Q 50 383 54 382 Q 55 378 53 377 Z M 95 377 L 94 386 L 95 386 L 95 377 Z M 96 377 L 96 379 L 97 382 L 96 384 Q 95 386 98 385 L 98 378 L 96 377 Z M 122 377 L 120 379 L 122 381 L 122 380 Q 124 378 122 377 Z M 137 377 L 138 384 L 139 379 Q 140 376 137 377 Z M 143 377 L 143 380 Q 146 379 143 377 Z M 129 378 Q 131 383 130 392 L 128 390 L 126 393 L 128 392 L 127 394 L 130 394 Q 132 393 131 389 L 131 387 L 131 379 L 129 378 Z M 19 379 L 18 383 L 19 383 L 19 379 Z M 144 380 L 143 383 L 144 383 L 144 380 Z M 46 381 L 45 388 L 46 388 L 46 381 Z M 49 381 L 48 392 L 47 393 L 49 393 L 49 381 Z M 194 381 L 193 384 L 194 384 L 194 381 Z M 26 382 Q 25 385 28 384 Q 29 381 26 382 Z M 29 382 L 30 392 L 31 384 Q 32 381 29 382 Z M 90 382 L 88 384 Q 87 386 90 385 L 90 382 Z M 93 382 L 91 386 L 93 387 L 94 387 L 93 382 Z M 37 383 L 37 388 L 39 387 Q 40 382 37 383 Z M 132 383 L 132 385 L 134 384 L 132 383 Z M 21 384 L 21 386 L 20 388 L 20 390 L 21 392 L 22 392 L 22 385 L 21 384 Z M 56 384 L 55 393 L 56 393 L 56 384 Z M 84 384 L 83 389 L 85 389 L 84 384 Z M 120 384 L 119 393 L 120 393 L 120 384 Z M 16 385 L 15 392 L 16 392 L 16 385 Z M 19 385 L 18 387 L 18 389 L 17 392 L 19 393 L 19 385 Z M 27 385 L 27 388 L 28 388 Q 29 384 27 385 Z M 59 385 L 58 388 L 59 388 L 59 385 Z M 62 385 L 60 389 Q 58 394 62 393 L 62 391 L 62 385 Z M 88 386 Q 87 389 90 388 Q 91 385 88 386 Z M 97 386 L 95 388 L 97 388 L 97 386 Z M 79 387 L 78 393 L 79 393 L 79 387 Z M 64 388 L 63 391 L 64 391 L 64 388 Z M 69 388 L 68 393 L 69 393 L 69 388 Z M 98 388 L 96 392 L 96 393 L 98 392 L 98 388 Z M 136 388 Q 133 394 137 393 L 136 388 Z M 141 388 L 141 393 L 150 392 L 151 391 L 151 389 L 147 391 L 146 389 L 145 391 L 143 392 L 141 388 Z M 185 388 L 184 391 L 186 392 L 185 388 Z M 74 389 L 73 392 L 74 392 L 74 389 Z M 124 389 L 124 391 L 126 390 L 124 389 Z M 133 389 L 132 393 L 133 393 L 133 389 Z M 237 389 L 236 392 L 237 392 L 237 389 Z M 59 390 L 58 393 L 59 393 L 59 390 Z M 72 390 L 71 393 L 72 393 L 72 390 Z M 84 390 Q 81 394 85 393 L 84 390 Z M 123 390 L 122 392 L 122 393 L 124 393 L 123 390 Z M 139 390 L 138 393 L 140 393 L 139 390 Z M 191 390 Q 189 393 192 392 L 191 390 Z M 38 391 L 39 393 Q 40 390 38 391 Z M 90 391 L 89 394 L 90 394 L 90 391 Z M 175 391 L 174 396 L 168 395 L 165 396 L 163 395 L 161 395 L 158 396 L 153 395 L 151 396 L 136 396 L 135 395 Q 130 394 132 398 L 123 396 L 114 396 L 113 397 Q 109 394 101 396 L 100 395 L 98 396 L 96 395 L 92 398 Q 91 402 95 403 L 96 400 L 96 403 Q 99 404 98 401 L 107 401 L 108 402 L 110 401 L 111 403 L 111 402 L 113 402 L 115 401 L 116 403 L 116 402 L 119 403 L 120 401 L 121 403 L 122 400 L 124 403 L 125 400 L 127 403 L 127 401 L 130 401 Q 129 403 132 402 L 134 402 L 136 401 L 138 401 L 140 402 L 152 402 L 153 403 L 155 402 L 160 403 L 183 403 L 184 398 Q 189 396 191 400 L 190 405 L 197 403 L 196 399 L 193 398 L 196 397 L 193 394 Q 184 393 181 396 L 175 393 L 175 391 Z M 12 395 L 11 401 L 14 402 L 16 402 L 17 400 L 18 402 L 18 401 L 20 400 Q 19 403 22 402 L 22 400 Q 24 399 23 402 L 24 402 Q 23 398 27 399 L 29 402 L 29 400 L 32 399 L 34 400 L 33 402 L 36 400 L 36 402 L 41 400 L 43 402 L 43 401 L 43 399 L 45 400 Q 46 398 47 401 Q 46 403 49 402 L 50 400 L 50 402 L 51 402 Q 50 399 53 400 L 54 402 L 54 401 L 57 400 L 59 402 L 65 401 L 68 402 L 69 400 L 69 402 L 74 400 L 77 401 L 79 400 L 81 403 Q 85 401 82 400 L 84 397 L 87 399 L 87 398 L 82 395 L 79 396 L 77 395 L 75 396 L 41 396 L 40 395 L 38 396 L 36 396 Q 29 398 28 395 L 24 396 L 21 395 L 15 396 L 12 395 Z M 237 397 L 236 400 L 237 400 L 237 397 Z M 27 400 L 25 402 L 27 403 L 27 400 Z M 186 400 L 184 402 L 187 403 Q 189 404 188 401 L 186 400 Z M 78 404 L 77 423 L 79 423 L 80 424 L 78 420 L 78 411 L 79 410 L 78 404 Z M 183 404 L 183 406 L 185 405 L 183 404 Z M 24 405 L 23 408 L 24 408 L 24 405 Z M 30 405 L 28 407 L 29 412 L 30 412 L 30 405 Z M 32 405 L 31 408 L 33 408 L 32 405 Z M 34 405 L 34 409 L 35 409 Q 36 404 34 405 Z M 40 405 L 39 415 L 40 415 L 40 405 Z M 43 405 L 41 408 L 42 413 L 43 413 L 43 405 Z M 46 405 L 45 410 L 46 410 L 46 405 Z M 51 405 Q 49 408 52 407 L 51 405 Z M 58 405 L 58 422 L 60 422 Q 58 418 59 409 L 60 406 L 58 405 Z M 62 405 Q 60 408 63 407 L 62 405 Z M 64 405 L 65 413 L 66 407 Q 67 404 64 405 Z M 81 405 L 80 422 L 81 422 L 81 405 Z M 84 405 L 84 418 L 85 414 L 84 405 Z M 93 405 Q 92 408 95 407 Q 96 404 93 405 Z M 97 405 L 96 410 Q 99 411 98 409 L 97 405 Z M 100 405 L 99 409 L 100 409 L 100 405 Z M 109 405 L 110 411 L 111 411 Q 113 404 109 405 Z M 119 405 L 118 410 L 119 410 L 119 405 Z M 124 405 L 123 417 L 124 417 L 124 405 Z M 125 405 L 126 409 L 127 409 Q 128 404 125 405 Z M 134 405 L 133 409 L 134 409 L 134 405 Z M 137 405 L 137 407 L 136 410 L 137 411 L 138 409 L 141 405 L 139 406 L 137 405 Z M 13 406 L 12 408 Q 14 407 13 414 L 14 414 L 14 407 L 13 406 Z M 49 406 Q 46 407 48 409 L 47 412 L 48 415 L 49 415 L 49 406 Z M 73 406 L 72 410 L 73 410 L 73 406 Z M 76 406 L 74 408 L 75 416 L 75 412 L 75 410 L 76 408 L 76 406 Z M 108 406 L 107 418 L 106 419 L 107 422 L 108 422 L 108 406 Z M 113 406 L 112 413 L 113 413 L 113 406 Z M 116 406 L 114 410 L 116 411 L 116 406 Z M 153 406 L 153 413 L 156 414 Q 158 415 157 409 L 153 406 Z M 20 407 L 20 409 L 22 408 L 20 407 Z M 27 407 L 26 414 L 27 414 L 27 407 Z M 37 407 L 36 411 L 37 411 L 37 407 Z M 121 407 L 120 411 L 121 411 L 121 407 Z M 163 407 L 166 411 L 166 409 L 163 407 Z M 54 408 L 53 412 L 54 412 L 54 408 Z M 186 408 L 184 413 L 185 423 L 186 423 L 186 408 Z M 24 409 L 23 420 L 22 419 L 21 419 L 22 423 L 24 422 L 24 409 Z M 51 409 L 50 413 L 52 413 L 51 409 Z M 57 409 L 55 411 L 56 418 L 57 411 L 57 409 Z M 128 409 L 128 411 L 130 410 L 128 409 Z M 21 410 L 20 414 L 22 413 L 21 410 Z M 62 410 L 61 415 L 62 415 L 62 410 Z M 89 410 L 88 414 L 89 414 L 89 410 Z M 105 410 L 104 415 L 105 415 L 105 410 Z M 132 410 L 129 417 L 130 418 L 132 417 L 132 415 L 132 410 Z M 162 410 L 160 415 L 159 414 Q 156 413 157 416 L 155 416 L 155 419 L 161 421 L 164 417 Q 165 411 162 410 Z M 169 410 L 166 413 L 165 422 L 171 421 Q 170 416 174 414 Q 176 407 169 410 Z M 208 410 L 207 412 L 210 411 L 208 410 Z M 18 411 L 18 415 L 19 415 Q 20 410 18 411 Z M 73 411 L 72 415 L 73 415 L 73 411 Z M 98 411 L 96 413 L 98 413 L 98 411 Z M 103 411 Q 100 412 101 416 L 103 415 L 103 411 Z M 119 411 L 117 413 L 118 417 L 119 417 L 119 411 Z M 134 411 L 134 413 L 136 412 L 134 411 Z M 37 412 L 36 416 L 37 416 L 37 412 Z M 46 412 L 45 422 L 46 422 L 46 412 Z M 70 412 L 69 421 L 71 422 L 70 412 Z M 87 412 L 86 416 L 87 416 L 87 412 Z M 177 412 L 174 418 L 174 424 L 181 428 L 182 426 Q 180 424 181 420 L 177 412 Z M 214 412 L 209 413 L 203 421 Q 200 422 201 420 L 196 416 L 193 420 Q 192 424 197 422 L 196 426 L 192 429 L 193 426 L 192 424 L 189 421 L 186 428 L 187 431 L 187 432 L 192 432 L 191 438 L 197 441 L 199 441 L 197 436 L 200 436 L 199 434 L 196 432 L 194 430 L 208 418 Q 214 419 215 416 Q 216 411 214 412 Z M 16 413 L 14 416 L 16 419 L 17 416 L 16 413 Z M 54 413 L 53 423 L 55 424 L 58 423 L 57 419 Q 54 420 56 422 L 54 422 L 54 413 Z M 114 413 Q 116 416 115 423 L 116 423 L 116 414 L 114 413 Z M 192 413 L 190 418 Q 188 419 191 420 L 195 415 Q 198 416 197 413 Q 194 412 193 415 L 192 413 Z M 34 414 L 34 417 L 35 417 Q 36 413 34 414 Z M 43 414 L 42 422 L 43 422 L 43 414 Z M 92 414 L 91 422 L 92 422 L 92 414 Z M 97 414 L 96 423 L 98 423 L 97 414 Z M 127 414 L 126 418 L 128 417 L 127 414 Z M 153 414 L 152 417 L 148 419 L 148 421 L 146 421 L 136 434 Q 138 440 135 442 L 136 445 L 137 442 L 141 440 L 140 439 L 143 433 L 147 430 L 148 433 L 149 433 Q 148 430 151 431 L 151 428 L 153 428 Q 152 425 155 426 Q 159 424 156 423 Q 157 420 153 421 L 154 417 L 153 414 Z M 203 414 L 202 419 L 203 419 L 203 414 Z M 20 415 L 20 418 L 22 417 Q 23 414 20 415 Z M 32 415 L 30 422 Q 29 424 32 423 L 33 421 L 32 415 Z M 51 415 L 50 422 L 49 416 L 48 423 L 51 424 L 51 415 Z M 64 415 L 64 421 L 66 422 Q 68 414 64 415 Z M 19 416 L 17 420 Q 18 423 15 422 L 15 419 L 12 420 L 12 422 L 11 418 L 10 423 Q 12 426 14 422 L 16 424 L 18 423 L 19 420 L 19 416 Z M 28 416 L 28 421 L 27 417 L 25 423 L 27 422 L 29 423 L 30 419 Q 31 415 28 416 Z M 40 416 Q 37 421 41 423 L 42 423 Q 39 421 40 416 Z M 62 416 Q 60 420 62 422 Q 61 424 64 423 L 62 416 Z M 73 416 L 71 424 L 73 423 L 73 416 Z M 89 416 L 88 420 L 89 420 L 89 416 Z M 95 416 L 94 423 L 95 423 L 95 416 Z M 103 416 L 102 421 L 103 421 L 103 416 Z M 105 416 L 104 423 L 105 423 L 105 416 Z M 12 417 L 12 419 L 14 418 L 12 417 Z M 37 417 L 36 423 L 37 423 L 37 417 Z M 75 417 L 74 423 L 76 422 L 75 417 Z M 87 417 L 86 422 L 84 419 L 83 423 L 90 423 Q 89 420 88 422 L 87 417 Z M 120 417 L 120 419 L 122 418 L 120 417 Z M 119 418 L 118 422 L 119 422 L 119 418 Z M 129 418 L 128 419 Q 125 418 126 421 L 129 420 L 129 418 Z M 35 419 L 33 422 L 34 424 L 35 422 L 35 419 Z M 122 419 L 120 422 Q 119 424 122 423 L 122 419 Z M 123 419 Q 122 422 125 421 Q 126 418 123 419 Z M 141 419 L 141 421 L 143 420 L 141 419 Z M 20 420 L 19 423 L 20 423 L 20 420 Z M 68 421 L 66 423 L 68 423 L 68 421 Z M 159 422 L 158 424 L 160 425 L 159 422 Z M 172 424 L 174 428 L 174 426 L 172 424 Z M 203 424 L 202 427 L 198 430 L 199 432 L 206 433 L 205 431 L 206 429 L 203 424 Z M 111 425 L 110 428 L 111 428 L 111 425 Z M 47 426 L 46 429 L 47 429 L 47 426 Z M 97 426 L 96 438 L 98 438 L 97 432 L 98 430 L 97 426 Z M 116 426 L 116 430 L 116 429 Q 118 427 116 426 Z M 118 426 L 119 438 L 120 438 L 120 427 L 118 426 Z M 122 426 L 121 429 L 122 429 L 122 426 Z M 61 428 L 60 432 L 61 432 L 61 428 Z M 95 428 L 94 431 L 95 431 L 95 428 Z M 103 428 L 101 431 L 103 430 L 103 428 Z M 175 428 L 173 430 L 176 430 Q 177 427 175 428 Z M 40 429 L 38 432 L 40 431 L 40 429 Z M 126 429 L 125 432 L 126 432 L 126 429 Z M 87 430 L 86 432 L 88 433 L 87 430 Z M 100 430 L 99 438 L 104 438 L 101 437 L 100 430 Z M 109 430 Q 108 433 111 432 Q 112 429 109 430 Z M 64 431 L 62 434 Q 63 436 67 435 L 68 433 L 64 434 L 64 431 Z M 181 431 Q 180 434 183 436 Q 184 438 181 437 L 181 439 L 179 439 L 178 442 L 179 446 L 183 445 L 182 442 L 185 440 L 184 446 L 187 447 L 188 441 Q 184 439 187 438 L 186 437 L 184 435 L 184 433 Q 185 430 181 431 Z M 17 432 L 16 435 L 17 435 L 17 432 Z M 20 432 L 19 437 L 16 436 L 15 443 L 10 442 L 10 450 L 13 450 L 16 453 Q 15 449 18 450 Q 20 449 18 448 L 19 445 L 25 444 L 28 446 Q 29 450 24 448 L 24 450 L 23 453 Q 22 456 26 454 L 27 451 L 28 456 L 26 457 L 24 457 L 25 459 L 27 458 L 31 471 L 31 481 Q 25 483 31 486 L 38 482 L 37 479 L 38 476 Q 34 474 38 472 L 44 475 L 48 474 L 51 471 L 52 467 L 51 463 L 47 459 L 48 457 L 51 459 L 54 464 Q 56 463 55 460 Q 56 457 60 458 L 60 466 L 61 467 L 60 473 L 55 477 L 49 475 Q 46 476 48 478 Q 47 480 50 479 L 51 483 L 48 481 L 46 484 L 49 484 Q 52 486 49 487 Q 44 488 46 484 L 43 483 L 45 479 L 42 477 L 39 476 Q 37 481 41 480 L 39 484 L 40 487 Q 43 488 45 485 L 45 487 Q 44 491 39 490 L 37 487 L 38 485 L 33 488 L 29 488 L 25 486 Q 23 482 27 483 L 30 479 L 29 470 L 28 468 L 23 479 L 24 483 Q 20 484 21 491 Q 19 492 22 493 L 29 489 L 31 490 L 30 501 L 28 504 L 24 503 L 27 502 Q 29 499 28 491 L 22 495 Q 21 499 24 498 L 24 500 Q 20 498 21 502 Q 23 503 21 504 L 20 502 L 19 502 L 16 501 L 14 495 L 12 496 L 14 503 Q 13 505 16 504 L 18 509 Q 19 513 16 514 L 18 520 L 17 522 Q 14 521 16 520 L 15 517 L 13 515 L 13 517 L 11 521 L 13 521 L 13 523 Q 16 522 14 526 L 18 524 L 19 527 L 20 527 L 18 518 L 20 514 L 19 511 L 25 506 L 27 506 L 26 509 L 29 517 L 30 516 L 30 505 L 32 503 L 36 506 Q 37 502 42 503 L 41 501 L 42 497 L 49 492 L 51 496 L 49 501 L 50 503 L 54 501 L 56 508 L 50 511 L 53 513 L 52 517 L 50 516 L 49 520 L 53 521 L 54 522 L 53 520 L 58 512 L 58 507 L 61 501 L 65 497 L 69 498 Q 74 500 76 497 L 80 500 L 84 506 L 83 509 L 86 510 L 87 513 L 89 513 L 87 517 L 89 522 L 91 521 L 89 517 L 93 510 L 96 522 L 97 520 L 95 511 L 93 508 L 95 508 L 96 508 L 92 504 L 92 506 L 91 510 Q 91 503 87 501 L 89 500 L 87 499 L 85 494 L 93 492 L 94 490 L 91 485 Q 86 484 88 489 L 85 491 Q 80 492 82 487 L 85 485 L 85 484 L 77 484 L 77 489 L 74 491 L 70 490 L 70 486 L 68 489 L 64 492 L 62 489 L 61 491 L 54 496 L 52 493 L 53 487 L 61 481 L 64 482 L 67 481 L 69 482 Q 75 484 73 479 L 65 478 L 62 472 L 66 469 L 69 469 L 73 472 L 75 476 L 74 480 Q 75 482 81 481 L 79 479 Q 78 474 82 473 L 83 475 Q 82 467 86 463 L 91 471 L 91 475 Q 87 476 88 481 L 93 482 L 95 484 L 93 480 L 94 478 L 94 464 L 95 463 L 92 457 L 92 451 L 88 450 L 85 443 L 86 441 L 84 442 L 80 441 L 75 442 L 57 442 L 56 441 L 19 442 L 17 443 L 18 441 L 23 438 L 37 438 L 32 436 L 30 437 L 20 436 L 20 432 Z M 59 432 Q 57 436 60 437 L 62 437 L 59 432 Z M 146 432 L 142 438 L 144 442 L 143 444 L 141 442 L 140 442 Q 141 444 138 443 L 138 445 L 136 446 L 143 448 L 144 448 L 143 451 L 140 450 L 139 451 L 136 448 L 134 453 Q 133 457 137 458 L 139 458 Q 138 461 141 460 L 143 464 L 140 465 L 137 473 L 145 469 L 141 475 L 142 479 Q 141 483 144 482 L 145 477 L 145 475 L 146 471 L 148 472 L 147 477 L 148 482 L 141 485 L 139 484 L 139 475 L 137 476 Q 135 479 134 475 L 133 478 L 133 480 Q 132 483 135 482 Q 136 478 138 482 L 137 491 L 135 496 L 135 497 L 137 496 L 142 498 L 143 498 L 142 496 L 146 494 L 145 492 L 151 484 L 154 494 L 151 499 L 149 498 L 146 502 L 144 502 L 139 498 L 131 500 L 128 504 Q 127 507 130 506 Q 129 502 132 501 Q 136 499 135 503 L 140 505 Q 141 502 148 503 L 152 500 L 154 501 Q 157 497 156 490 L 156 488 Q 157 482 154 481 L 156 478 L 155 474 L 149 472 L 148 467 L 150 467 L 154 464 Q 156 458 152 459 L 149 464 L 146 465 L 145 463 Q 148 458 155 457 L 156 455 L 154 456 L 152 453 Q 150 446 153 445 L 151 440 L 149 444 L 149 446 L 145 445 L 148 441 Q 149 434 146 432 Z M 27 433 L 26 435 Q 30 436 29 434 L 27 433 Z M 72 433 L 73 434 L 74 435 Q 75 432 72 433 Z M 125 433 L 123 438 L 125 438 L 125 433 Z M 152 433 L 151 436 L 152 436 L 152 433 Z M 122 434 L 122 437 Q 125 436 122 434 Z M 189 434 L 188 437 L 190 437 L 189 434 Z M 50 435 L 48 437 Q 47 439 50 438 L 50 435 Z M 94 435 L 92 437 Q 91 439 95 438 Q 96 434 94 435 Z M 154 435 L 153 438 L 155 439 L 154 435 Z M 11 436 L 10 439 L 11 439 L 11 436 Z M 113 436 L 112 439 L 113 439 L 113 436 Z M 118 436 L 114 438 L 118 438 L 118 436 Z M 202 437 L 199 442 L 200 445 L 197 447 Q 194 446 195 449 L 198 450 L 202 448 L 207 449 L 202 449 L 200 452 L 206 454 L 209 458 L 206 457 L 199 459 L 196 463 L 199 462 L 201 463 L 203 463 L 208 465 L 212 471 Q 213 473 210 472 L 209 468 L 208 471 Q 199 470 197 476 Q 192 474 193 478 L 189 480 L 186 479 Q 184 476 182 481 L 183 483 L 182 485 L 180 483 L 179 483 L 181 489 L 186 491 Q 190 492 192 489 L 193 489 Q 192 493 186 492 L 188 496 L 191 495 L 192 496 L 187 498 L 184 504 L 188 505 L 185 505 L 189 512 Q 188 517 191 518 L 195 515 L 195 517 L 198 518 L 200 517 Q 206 518 205 516 L 209 513 L 205 518 L 207 521 L 211 518 L 215 519 L 211 521 L 211 528 L 215 536 L 211 538 L 212 541 L 209 541 L 210 538 Q 207 537 208 542 L 212 544 Q 211 548 214 549 L 215 547 L 214 544 Q 213 539 216 538 L 216 532 L 212 524 L 213 522 L 216 524 L 217 523 L 224 523 Q 225 520 223 521 L 221 519 Q 219 517 222 516 Q 228 517 227 515 Q 226 512 225 514 L 222 509 L 220 510 L 217 508 L 213 503 L 214 496 L 217 499 Q 222 498 224 501 L 224 499 L 222 497 L 220 497 Q 216 498 217 496 L 220 495 L 222 496 L 222 493 L 218 490 L 219 486 L 214 486 L 205 489 L 203 497 L 203 507 L 201 511 Q 199 514 193 513 L 189 506 L 189 503 L 190 503 Q 189 505 192 504 L 195 502 Q 194 506 197 505 L 198 498 L 201 491 Q 203 486 205 489 Q 207 485 212 486 L 213 484 L 212 480 L 211 483 Q 210 485 207 485 L 204 487 L 210 479 Q 209 476 212 477 L 211 475 L 209 476 L 206 474 L 206 473 L 208 474 L 212 473 L 217 480 L 217 482 L 215 479 L 214 484 Q 215 486 217 484 Q 222 486 221 482 L 218 480 L 217 478 L 218 476 L 218 478 Q 219 481 224 480 L 227 476 L 227 472 L 227 470 L 227 454 L 231 447 L 230 443 L 226 443 L 220 446 L 217 452 L 212 449 L 212 447 L 208 447 L 209 442 L 205 441 L 202 437 Z M 227 439 L 221 442 L 219 445 L 225 442 Q 229 441 231 443 Q 233 444 232 442 Q 231 438 227 439 Z M 156 441 L 155 443 L 158 444 L 156 441 Z M 191 441 L 191 444 Q 190 446 193 445 L 195 445 Q 197 446 196 444 L 193 441 L 191 441 Z M 93 442 L 90 446 L 94 448 L 95 449 Q 96 444 93 445 L 93 442 Z M 128 442 L 127 445 L 128 445 L 128 442 Z M 101 443 L 102 445 Q 103 442 101 443 Z M 160 444 L 159 448 Q 164 450 162 445 L 160 444 Z M 165 444 L 164 447 L 163 449 L 166 448 L 165 444 Z M 168 444 Q 166 447 169 449 L 169 457 L 170 458 Q 169 460 172 459 L 174 454 L 172 446 L 170 447 L 168 444 Z M 174 445 L 177 450 L 178 448 L 174 445 Z M 133 446 L 131 448 L 133 448 L 133 446 Z M 154 446 L 154 452 L 157 454 Q 156 451 159 452 L 159 449 Q 156 450 157 448 L 154 446 Z M 20 448 L 20 456 L 18 456 L 20 459 L 21 458 Q 19 451 22 450 Q 23 447 20 448 Z M 118 448 L 117 451 Q 121 452 120 449 L 118 448 Z M 182 448 L 182 455 L 186 455 L 186 453 Q 183 454 184 452 L 184 450 Q 185 447 182 448 Z M 194 448 L 193 451 L 194 451 L 194 448 Z M 188 449 L 186 451 L 189 456 L 191 456 Q 190 460 194 458 L 193 461 Q 189 460 190 463 L 194 465 L 195 461 Q 197 456 204 457 L 205 455 L 200 456 L 199 454 L 196 453 L 195 456 L 194 452 L 193 455 L 192 450 L 191 450 Q 192 454 188 452 L 188 449 Z M 180 450 L 179 456 L 180 456 L 180 450 Z M 161 451 L 159 454 L 160 460 L 160 458 L 160 456 L 161 454 Q 163 452 161 451 Z M 163 451 L 164 457 L 169 463 L 170 461 L 168 460 L 166 457 L 168 452 L 167 452 L 163 451 Z M 11 452 L 11 459 L 15 466 Q 14 468 17 467 L 18 465 L 16 462 L 17 460 L 13 454 Q 14 451 11 452 Z M 177 452 Q 174 453 175 457 L 177 456 L 177 452 Z M 97 453 L 96 456 L 97 456 L 97 453 Z M 185 457 L 183 458 L 183 460 L 182 460 L 184 463 L 184 461 L 186 461 Q 185 458 188 459 Q 189 456 185 457 Z M 157 458 Q 155 464 158 467 L 160 466 L 160 462 L 159 464 L 157 458 Z M 232 458 L 230 462 L 232 461 L 232 458 Z M 161 459 L 162 465 L 165 466 L 165 461 L 161 459 Z M 174 459 L 173 461 L 175 460 L 174 459 Z M 58 460 L 57 463 L 55 464 L 51 473 L 52 474 L 57 474 L 59 471 Q 60 464 58 460 Z M 20 461 L 19 466 L 20 467 L 24 464 L 26 465 L 27 463 Q 25 459 24 463 Q 21 464 22 461 L 20 461 Z M 187 461 L 186 464 L 186 466 Q 185 469 189 467 L 190 472 L 193 470 L 192 466 L 190 464 L 188 464 L 187 461 Z M 233 461 L 231 466 L 233 470 L 231 474 Q 232 476 228 475 L 228 479 Q 231 480 230 478 L 233 476 Q 232 473 235 472 L 234 470 L 236 463 Q 237 460 233 461 Z M 172 462 L 167 469 L 168 470 L 170 469 L 166 476 Q 167 478 164 477 L 163 474 L 161 475 Q 164 477 164 482 L 166 481 L 167 484 L 170 483 L 172 483 L 174 484 L 175 489 L 179 490 L 180 491 L 176 483 L 176 479 L 181 481 L 183 476 L 185 476 L 188 475 Q 189 469 187 468 L 186 471 L 184 472 L 182 472 L 179 471 Q 176 465 173 471 L 174 473 L 174 475 Q 177 474 176 477 L 172 475 L 170 479 L 167 479 L 170 476 L 172 468 L 175 467 Q 174 463 177 464 L 179 468 L 184 470 L 182 463 L 180 462 L 176 462 L 171 466 L 172 464 L 172 462 Z M 228 462 L 228 464 L 230 463 L 228 462 Z M 131 463 L 131 465 L 133 466 Q 134 462 131 463 Z M 281 463 L 280 467 L 281 467 L 281 463 Z M 304 463 L 302 464 L 299 468 L 300 470 L 304 467 L 304 463 Z M 270 464 L 269 466 L 272 466 L 270 464 Z M 126 465 L 125 471 L 126 471 L 126 465 Z M 155 465 L 150 467 L 151 471 L 156 472 L 160 481 L 160 484 L 162 483 L 161 478 L 155 465 Z M 236 465 L 236 468 L 236 470 L 238 470 L 238 465 L 236 465 Z M 263 465 L 261 467 L 264 468 Q 266 469 265 466 L 263 465 Z M 11 466 L 10 469 L 16 474 L 16 477 L 12 471 Q 8 470 10 476 L 14 478 Q 18 476 17 480 L 18 480 L 17 477 L 18 472 L 12 469 L 11 466 Z M 161 466 L 160 469 L 163 471 Q 164 466 161 466 Z M 166 466 L 165 469 L 166 469 L 166 466 Z M 286 466 L 286 473 L 287 471 L 286 466 Z M 307 466 L 307 468 L 310 468 Q 311 465 307 466 Z M 251 467 L 250 475 L 253 476 Q 254 470 251 467 Z M 278 467 L 281 472 L 281 468 L 278 467 Z M 20 468 Q 19 471 23 470 Q 24 467 20 468 Z M 85 468 L 85 470 L 85 472 L 88 476 L 89 474 L 88 470 L 85 468 Z M 132 468 L 130 470 L 132 470 L 132 468 Z M 165 469 L 164 474 L 165 474 L 165 469 Z M 195 469 L 194 472 L 196 473 L 195 469 Z M 198 469 L 197 473 L 198 473 L 198 469 Z M 309 469 L 308 472 L 311 479 L 316 481 L 314 476 Q 315 473 312 474 L 312 472 L 311 472 L 309 469 Z M 160 470 L 160 474 L 161 474 L 160 470 Z M 265 470 L 264 475 L 266 476 L 265 470 Z M 23 471 L 22 472 L 20 473 L 20 480 L 18 480 L 19 486 L 23 474 L 23 471 Z M 65 471 L 65 476 L 72 478 L 73 476 Q 71 470 65 471 Z M 303 471 L 302 480 L 305 482 L 307 479 Q 307 473 303 471 Z M 193 472 Q 193 476 190 475 L 191 477 L 194 475 L 193 472 Z M 294 472 L 289 473 L 292 477 L 295 476 L 294 472 Z M 239 473 L 236 476 Q 235 478 238 477 L 239 475 L 239 473 Z M 259 473 L 259 475 L 262 476 Q 264 472 259 473 Z M 300 473 L 297 477 Q 296 481 300 479 L 300 473 Z M 282 474 L 280 476 L 283 476 L 282 474 Z M 287 474 L 286 476 L 279 479 L 280 483 L 276 482 Q 274 480 273 483 L 274 485 L 275 483 L 277 488 L 277 487 Q 278 483 282 484 L 284 488 L 283 490 L 280 492 L 279 494 L 283 493 L 284 496 Q 285 498 287 496 L 286 498 L 289 498 L 288 496 L 291 494 L 291 492 L 286 492 L 285 490 Q 287 487 292 488 Q 290 485 286 486 L 282 483 L 287 477 L 290 478 L 287 474 Z M 240 475 L 240 478 Q 245 480 244 476 L 240 475 Z M 267 476 L 267 478 L 270 477 L 267 476 Z M 110 477 L 108 478 L 103 484 L 103 490 L 106 490 L 105 488 L 107 487 L 106 483 L 108 482 Q 107 485 110 484 Q 111 481 108 480 L 111 479 L 112 482 L 112 481 L 113 481 L 112 485 L 116 486 L 115 481 L 112 477 L 110 477 Z M 130 477 L 129 481 L 131 480 L 130 477 Z M 256 477 Q 257 480 254 479 L 253 483 L 256 484 L 258 479 Q 259 476 256 477 Z M 245 478 L 244 479 Q 240 478 241 481 L 243 480 L 245 481 L 246 481 L 245 478 Z M 259 478 L 258 485 Q 254 486 258 488 Q 262 489 260 485 L 265 481 L 266 484 L 267 479 L 259 478 Z M 276 478 Q 274 481 278 482 L 278 479 L 276 478 Z M 291 478 L 294 481 L 295 479 L 291 478 Z M 12 479 L 10 481 L 14 482 Q 15 484 16 482 Q 16 478 12 479 Z M 285 479 L 284 483 L 288 485 Q 292 486 293 484 L 292 481 Q 289 482 290 480 L 289 480 L 285 479 Z M 127 480 L 126 484 L 121 484 L 121 486 L 127 488 L 130 484 L 130 486 L 130 488 L 128 490 L 122 488 L 120 491 L 121 498 L 127 500 L 127 493 L 130 491 L 132 491 L 135 488 Q 136 483 132 485 L 132 483 L 131 483 L 127 480 Z M 238 480 Q 238 487 236 490 L 235 489 L 234 489 Q 235 491 232 490 L 232 494 L 229 495 Q 228 489 231 487 Q 233 480 229 481 Q 227 483 228 490 L 228 492 L 227 494 Q 226 500 229 499 L 230 500 Q 229 497 232 498 Q 237 494 239 487 L 238 480 Z M 270 480 L 268 484 L 271 482 Q 272 479 270 480 Z M 298 480 Q 296 483 299 482 L 298 480 Z M 301 480 L 300 484 L 297 485 L 298 487 L 300 486 Q 303 487 302 485 L 302 483 L 301 480 Z M 249 481 L 247 485 L 246 484 Q 243 486 246 487 L 252 486 L 251 482 L 249 481 Z M 308 481 L 305 485 Q 303 486 306 487 L 308 483 L 308 481 Z M 312 481 L 310 486 L 314 488 L 318 486 L 312 481 Z M 165 482 L 163 486 L 162 485 Q 158 485 157 488 Q 156 490 160 489 L 161 495 L 163 487 L 164 493 L 165 488 L 165 482 Z M 222 482 Q 224 484 223 490 Q 225 493 226 490 L 224 484 Q 225 481 222 482 Z M 242 482 L 242 485 L 244 484 Q 245 481 242 482 Z M 11 483 Q 9 486 12 487 Q 14 486 13 489 L 15 489 L 17 492 L 17 488 L 11 483 Z M 322 483 L 320 486 L 324 489 Q 323 485 328 487 L 329 484 L 322 483 Z M 59 484 L 54 488 Q 53 492 56 493 L 58 492 L 60 488 Q 61 483 59 484 Z M 169 484 L 168 486 L 170 485 L 169 484 Z M 262 484 L 262 487 L 264 488 Q 265 483 262 484 Z M 267 484 L 266 486 L 272 491 L 271 485 L 270 485 L 267 484 Z M 63 485 L 62 488 L 63 488 L 63 485 Z M 65 485 L 64 488 L 65 490 L 67 487 Q 68 484 65 485 Z M 109 485 L 108 488 L 109 488 L 109 485 Z M 281 485 L 277 490 L 278 492 L 282 489 L 281 485 Z M 84 486 L 84 489 L 86 488 Q 87 485 84 486 Z M 170 486 L 171 490 L 175 491 L 172 488 Q 173 485 170 486 Z M 241 486 L 239 490 Q 238 493 241 492 L 241 486 Z M 294 486 L 294 489 L 296 488 L 296 492 L 297 492 Q 299 484 294 486 Z M 150 487 L 147 491 L 148 494 Q 150 498 152 495 Q 153 489 150 487 Z M 244 487 L 243 494 L 237 505 Q 236 507 240 506 L 242 502 L 241 499 L 244 501 Q 243 503 246 502 L 247 505 L 249 506 Q 255 505 259 508 Q 263 506 262 510 L 265 511 L 268 515 Q 270 516 269 514 L 271 514 L 277 512 L 276 508 L 270 511 L 265 510 L 267 505 Q 268 502 266 503 Q 263 502 263 499 L 268 495 Q 271 494 272 497 Q 270 504 275 502 L 276 507 L 277 507 L 277 503 L 273 496 L 268 491 L 266 494 L 262 497 L 260 497 L 265 493 L 264 490 Q 263 493 258 492 L 255 498 L 258 497 L 259 498 L 256 499 L 254 500 Q 253 492 257 491 Q 256 488 255 490 L 252 489 L 252 491 L 252 492 Q 247 490 250 489 L 244 487 Z M 300 487 Q 299 489 302 488 Q 304 489 303 496 L 307 498 L 307 497 L 308 494 L 304 489 Q 305 485 300 487 Z M 317 487 L 318 492 L 321 492 Q 323 493 322 490 Q 321 486 317 487 Z M 11 488 L 11 494 L 12 492 L 11 488 Z M 168 488 Q 165 489 166 493 L 168 492 L 170 494 L 169 497 L 172 498 L 174 494 L 178 495 Q 180 496 179 502 L 181 503 L 184 502 Q 186 503 185 501 L 184 501 L 180 492 L 176 493 Q 170 494 169 490 Q 170 487 168 488 Z M 114 489 Q 114 493 112 492 L 108 497 L 109 500 L 113 499 L 115 495 Q 116 490 114 489 Z M 287 489 L 287 491 L 292 491 Q 291 488 287 489 Z M 300 489 L 298 491 Q 297 498 300 497 L 301 492 L 300 489 Z M 314 489 Q 311 498 316 502 L 317 500 Q 315 498 316 493 L 314 489 Z M 97 490 L 96 492 L 100 495 L 97 490 Z M 275 490 Q 273 495 276 499 L 277 499 L 275 490 Z M 18 492 L 17 494 L 19 495 L 18 492 Z M 131 492 L 129 498 L 131 497 L 131 492 Z M 133 492 L 132 496 L 133 496 L 133 492 Z M 182 492 L 183 496 Q 182 498 185 497 L 186 498 L 183 494 Q 184 491 182 492 Z M 94 493 L 87 495 L 93 502 Q 92 504 95 503 Q 94 498 98 497 L 97 495 L 94 493 Z M 163 493 L 160 500 L 157 503 L 156 502 L 155 505 L 163 500 L 167 501 L 169 498 L 166 496 L 166 493 L 164 497 L 163 493 Z M 319 493 L 318 496 L 319 496 L 319 493 Z M 238 494 L 231 502 L 233 504 L 237 502 L 239 498 L 238 494 Z M 20 495 L 19 500 L 21 499 L 20 495 Z M 48 495 L 43 499 Q 42 502 45 503 L 49 498 L 48 495 Z M 146 495 L 144 497 L 147 498 L 146 495 Z M 176 495 L 172 500 Q 174 505 170 504 L 170 501 L 166 506 Q 163 505 164 509 L 167 510 L 170 506 L 172 507 Q 173 504 176 505 L 178 508 Q 181 507 179 512 Q 180 516 185 515 L 181 521 L 182 527 L 185 528 L 187 526 Q 186 520 188 519 L 187 509 L 185 508 Q 182 509 183 507 Q 181 502 180 505 L 177 504 Q 178 498 176 495 Z M 269 496 L 268 497 Q 265 496 266 499 Q 263 500 268 502 L 270 501 L 271 497 L 269 496 Z M 278 496 L 279 501 L 282 502 L 283 498 Q 282 495 278 496 Z M 100 497 L 97 500 L 98 502 L 100 499 L 100 497 Z M 303 497 L 303 502 Q 302 505 306 503 L 307 501 L 303 497 Z M 200 498 L 199 502 L 200 502 L 200 498 Z M 102 499 L 103 501 Q 104 498 102 499 Z M 90 500 L 89 502 L 91 503 L 90 500 Z M 116 500 L 111 503 L 112 504 Q 113 501 116 502 L 116 500 Z M 217 500 L 215 502 L 217 502 L 218 503 L 217 500 Z M 100 501 Q 98 504 101 503 L 100 501 Z M 122 501 L 122 505 L 124 506 Q 126 500 122 501 Z M 117 502 L 117 505 Q 120 504 117 502 Z M 152 502 L 150 504 Q 149 506 152 505 L 153 503 L 152 502 Z M 199 502 L 198 507 L 199 507 L 199 502 Z M 228 502 L 226 504 Q 225 506 228 505 L 228 502 Z M 243 502 Q 240 510 245 513 L 244 513 L 242 511 Q 241 508 238 509 Q 236 512 235 510 Q 232 509 233 512 Q 234 514 236 512 Q 242 510 241 514 L 239 515 L 237 514 L 235 517 L 237 516 L 237 518 L 235 521 L 238 519 Q 240 520 239 518 L 245 514 Q 246 517 243 516 L 240 521 L 243 521 L 242 525 Q 241 528 246 526 L 245 525 L 246 519 L 248 518 L 247 521 L 249 526 Q 253 522 251 513 L 253 511 L 251 510 L 248 514 L 246 506 L 243 502 Z M 271 502 L 268 503 L 267 508 L 267 509 L 273 508 L 274 505 L 271 502 Z M 53 503 L 49 505 L 47 504 L 45 507 Q 46 509 43 508 L 42 506 L 42 504 L 38 504 L 37 508 L 45 510 L 46 507 L 50 508 L 52 507 Q 54 508 53 506 Q 55 504 53 503 Z M 160 503 L 161 508 L 161 506 L 163 506 L 163 505 L 160 503 Z M 217 503 L 216 505 L 219 507 L 217 503 Z M 220 503 L 222 506 Q 224 507 223 505 L 220 503 Z M 98 504 L 98 506 L 100 507 Q 101 503 98 504 Z M 103 504 L 102 507 L 103 507 L 103 504 Z M 114 504 L 112 507 L 113 509 L 114 507 L 114 504 Z M 193 504 L 190 506 L 198 512 L 199 508 L 196 506 L 193 504 Z M 33 505 Q 30 506 32 508 L 31 512 L 32 514 L 31 519 L 35 521 L 34 519 L 36 516 L 34 512 L 35 510 L 33 505 Z M 82 505 L 80 508 L 82 507 L 82 505 Z M 119 505 L 117 507 Q 116 510 119 509 L 119 505 Z M 143 505 L 140 506 L 140 512 L 142 512 L 144 514 L 147 511 Q 150 503 143 505 Z M 228 505 L 228 508 Q 233 510 232 506 L 228 505 Z M 64 506 L 62 508 L 64 508 L 64 506 Z M 132 506 L 130 511 Q 129 514 132 515 L 134 514 L 136 512 L 137 508 L 137 506 L 132 506 Z M 153 506 L 149 510 L 154 511 Q 155 508 153 509 L 154 507 L 153 506 Z M 279 506 L 279 512 L 275 515 L 269 515 L 269 518 L 274 521 L 275 519 Q 278 514 286 515 L 279 506 Z M 293 506 L 288 511 Q 289 513 287 512 L 287 513 Q 289 512 288 516 L 287 517 L 277 518 L 276 523 Q 271 524 270 520 L 269 522 L 274 525 L 276 529 L 278 528 L 280 531 L 285 528 L 289 529 L 291 528 L 290 522 Q 287 526 280 525 L 278 522 L 281 523 Q 287 524 289 520 L 288 518 L 291 517 Q 289 512 293 513 L 295 507 L 293 506 Z M 125 507 L 122 508 L 119 512 L 117 513 Q 114 515 117 516 L 119 515 Q 118 512 121 513 L 123 510 L 125 512 L 123 512 L 124 516 L 126 515 L 127 513 L 125 507 Z M 155 507 L 156 511 L 160 512 L 162 516 L 161 519 Q 165 520 163 515 L 166 516 L 170 514 L 173 515 L 174 516 L 172 511 L 174 511 L 175 511 L 172 508 L 171 511 L 166 513 Q 163 514 164 511 L 161 511 L 159 509 L 155 507 Z M 248 507 L 249 510 L 252 508 L 248 507 Z M 14 508 L 13 513 L 15 512 L 14 508 Z M 48 508 L 48 511 Q 51 510 48 508 Z M 98 508 L 99 513 L 100 511 Q 101 507 98 508 Z M 176 508 L 177 510 Q 178 507 176 508 Z M 226 509 L 228 512 L 231 511 Q 230 508 226 509 Z M 304 509 L 301 510 L 300 515 L 305 523 Q 304 518 307 516 L 306 512 Q 307 508 304 509 Z M 23 510 L 21 513 L 24 512 Q 25 509 23 510 Z M 258 510 L 261 513 L 262 513 Q 262 510 258 510 Z M 112 511 L 112 513 L 114 514 Q 115 510 112 511 Z M 139 511 L 135 515 Q 136 517 134 516 L 130 521 Q 134 522 133 519 L 136 518 Q 135 515 138 516 L 139 513 L 139 511 Z M 176 511 L 175 515 L 176 515 L 176 511 Z M 255 511 L 255 516 L 252 517 L 256 517 L 257 514 L 255 513 L 255 511 Z M 48 512 L 46 515 L 42 513 L 40 514 Q 37 513 38 517 L 40 516 Q 45 515 46 518 L 47 514 L 50 515 L 51 515 L 48 512 Z M 100 512 L 100 514 L 102 515 Q 103 511 100 512 Z M 110 512 L 109 520 L 110 520 L 110 512 Z M 148 512 L 146 515 L 148 514 L 148 512 Z M 311 512 L 309 516 L 314 514 Q 315 511 311 512 Z M 142 513 L 139 516 L 140 519 L 143 518 L 142 517 L 142 516 L 142 513 Z M 151 513 L 151 515 L 157 517 L 159 520 L 159 515 L 151 513 Z M 233 513 L 231 516 L 233 515 L 233 513 Z M 23 514 L 21 523 L 24 528 L 25 520 Q 24 517 27 518 L 27 516 L 25 517 L 23 514 Z M 58 514 L 55 519 L 56 522 L 55 524 L 59 527 Q 64 526 66 528 Q 68 527 67 530 L 71 529 L 72 529 L 72 524 Q 70 526 65 525 L 61 520 L 60 522 L 57 524 L 59 519 Q 60 515 58 514 Z M 179 514 Q 179 517 176 516 L 176 519 Q 170 520 167 517 L 168 523 L 165 524 L 166 527 L 171 523 L 178 525 L 181 528 L 178 523 L 181 518 L 179 514 Z M 98 515 L 98 525 L 97 527 L 96 523 L 93 528 Q 93 532 96 533 L 95 543 Q 98 544 97 542 Q 99 537 101 540 L 106 538 L 103 534 L 104 531 L 107 536 Q 106 538 110 537 Q 111 529 108 525 L 106 524 L 106 530 L 104 530 L 101 529 L 102 536 L 100 537 L 98 538 Q 96 525 101 520 L 100 518 Q 101 514 98 515 Z M 108 515 L 107 520 L 108 520 L 108 515 Z M 111 515 L 111 517 Q 113 520 114 517 Q 115 514 111 515 Z M 128 515 L 128 518 Q 131 517 128 515 Z M 148 515 L 148 517 L 142 519 L 143 521 L 150 517 Q 151 514 148 515 Z M 259 515 L 259 516 L 261 516 L 259 515 Z M 102 516 L 102 518 L 104 519 Q 105 515 102 516 Z M 122 516 L 120 519 L 123 518 Q 124 515 122 516 Z M 229 516 L 225 519 L 227 520 L 230 517 L 229 516 Z M 261 516 L 261 518 L 257 521 L 255 521 L 255 526 L 260 527 L 262 525 Q 261 519 264 518 L 261 516 Z M 77 517 L 75 519 L 79 519 Q 80 516 77 517 Z M 118 517 L 116 520 Q 114 523 112 522 Q 111 524 114 523 L 113 526 Q 112 531 114 533 L 113 536 L 116 541 L 119 532 L 119 524 L 116 524 Q 114 520 118 521 L 119 522 L 118 517 Z M 152 517 L 150 520 L 151 521 L 148 520 L 144 522 L 147 522 L 148 526 L 153 529 L 156 529 L 155 527 Q 154 522 157 523 L 156 519 L 152 517 Z M 232 517 L 230 520 L 233 518 L 232 517 Z M 267 517 L 265 520 L 266 523 Q 265 525 268 524 Q 269 519 267 517 Z M 40 518 L 40 521 L 44 520 Q 45 516 40 518 Z M 85 518 Q 80 520 83 522 L 82 526 L 83 529 Q 82 531 85 530 L 85 527 L 88 522 L 87 520 L 85 521 L 85 520 L 85 518 Z M 202 518 Q 200 522 195 521 L 196 525 L 196 523 L 203 520 Q 204 517 202 518 Z M 48 519 Q 46 522 43 521 L 44 524 L 47 522 L 51 524 Q 53 525 51 527 L 52 530 L 54 527 Q 56 526 55 529 L 57 529 L 55 524 L 51 523 L 48 519 Z M 136 519 L 134 521 Q 133 524 137 523 L 138 520 L 136 519 Z M 293 519 L 291 521 Q 290 523 293 522 L 293 519 Z M 105 520 L 102 525 Q 101 528 104 527 L 105 525 L 105 520 Z M 121 520 L 121 522 Q 119 527 123 526 L 124 525 Q 120 523 123 522 Q 124 519 121 520 Z M 125 520 Q 124 523 127 522 Q 128 519 125 520 Z M 164 520 L 159 525 L 160 529 L 156 531 L 157 535 L 161 530 L 161 526 L 164 523 L 164 520 Z M 228 520 L 228 522 L 230 521 L 228 520 Z M 27 521 Q 26 525 29 526 L 29 525 L 29 523 Q 30 520 27 521 Z M 35 521 L 35 524 L 39 526 L 40 526 L 39 524 L 35 521 Z M 110 521 L 110 525 L 111 525 L 110 521 Z M 193 521 L 192 526 L 193 526 L 193 521 Z M 67 522 L 68 524 Q 69 521 67 522 Z M 201 522 L 198 529 Q 201 530 200 526 L 205 523 L 201 522 Z M 307 522 L 306 526 L 310 525 Q 311 520 307 522 Z M 47 523 L 45 525 L 48 528 L 49 524 L 47 523 Z M 75 523 L 74 527 L 77 525 Q 78 522 75 523 Z M 80 523 L 78 526 L 75 528 Q 74 530 78 529 L 81 533 L 82 538 Q 86 539 87 544 L 90 538 L 90 534 L 87 539 L 84 538 L 86 534 L 83 532 Q 80 531 81 525 L 80 523 Z M 134 523 L 127 527 L 123 532 L 124 533 L 128 528 L 130 529 L 131 527 L 134 525 L 134 523 Z M 142 523 L 141 524 Q 137 523 138 527 L 144 529 L 145 530 L 143 526 Q 144 522 142 523 Z M 189 523 Q 191 529 187 531 L 184 530 L 182 530 L 184 534 L 183 537 Q 179 536 180 539 L 187 540 Q 189 543 188 549 L 193 548 L 195 549 L 199 549 L 193 546 L 187 535 L 190 533 L 191 531 L 190 529 L 191 524 L 189 523 Z M 234 523 L 230 524 L 229 528 L 233 527 L 235 524 L 234 523 Z M 293 523 L 292 531 L 293 531 Q 292 527 295 528 L 295 531 L 292 535 L 297 536 L 300 535 L 301 531 L 298 531 L 303 530 L 299 526 L 294 527 Q 293 523 298 525 L 298 523 L 293 523 Z M 217 524 L 216 527 L 221 529 L 221 530 L 219 529 L 216 530 L 220 533 L 219 536 L 224 538 L 227 544 L 227 542 L 229 542 L 227 538 L 224 535 L 221 532 L 223 532 L 222 530 L 224 529 L 225 526 Q 219 527 217 524 Z M 253 524 L 250 528 Q 251 530 249 529 L 246 534 Q 245 536 248 535 L 248 538 Q 249 540 251 538 L 256 541 L 257 541 L 256 538 L 254 538 L 249 535 L 254 531 L 258 534 L 259 532 L 259 530 L 255 530 L 253 524 Z M 302 524 L 304 528 L 305 526 L 302 524 Z M 318 524 L 318 526 L 323 526 Q 322 523 318 524 Z M 12 525 L 9 530 L 14 532 L 12 530 L 15 529 L 16 532 Q 14 537 18 536 Q 19 538 20 536 L 19 529 Q 18 526 17 528 Q 12 529 12 525 Z M 33 525 L 32 527 L 32 529 L 30 533 Q 31 536 28 535 L 28 539 L 30 539 Q 31 541 32 539 L 31 536 L 37 531 Q 38 528 35 529 L 33 525 Z M 240 525 Q 238 528 241 527 L 240 525 Z M 269 525 L 266 526 L 261 532 L 269 534 L 269 533 Q 273 531 269 529 Q 268 526 271 527 L 272 529 L 272 539 Q 271 542 266 541 L 264 541 L 262 542 Q 267 543 266 549 L 269 548 Q 271 549 270 546 L 272 546 L 273 548 L 275 545 Q 274 539 276 538 L 274 527 L 269 525 Z M 162 526 L 164 530 Q 166 531 165 528 L 162 526 Z M 168 526 L 167 534 L 172 536 L 170 539 L 171 540 L 173 537 L 173 539 L 175 538 Q 179 539 178 537 L 178 535 L 180 536 L 181 534 L 180 532 L 175 526 L 168 526 Z M 42 527 L 40 530 L 44 529 Q 45 526 42 527 Z M 88 527 Q 87 530 90 529 Q 91 526 88 527 Z M 228 527 Q 225 528 226 532 L 229 530 L 228 527 Z M 234 527 L 233 530 L 237 531 L 238 529 L 234 527 Z M 245 527 L 242 528 Q 241 532 244 533 L 246 532 Q 247 528 245 527 Z M 61 528 L 58 530 L 56 530 L 55 534 L 62 537 L 70 534 L 68 538 L 78 535 L 79 534 L 76 530 Q 70 529 69 533 L 67 530 L 64 528 L 61 528 Z M 122 528 L 122 530 L 124 529 L 122 528 Z M 134 529 L 134 534 L 137 535 L 137 533 L 141 531 L 138 529 L 136 530 L 134 529 Z M 193 529 Q 191 535 197 533 L 197 532 Q 194 533 195 529 L 193 529 Z M 205 529 Q 203 534 208 535 Q 212 536 210 532 L 205 531 L 205 529 Z M 26 530 L 22 535 L 24 537 L 28 532 Q 29 529 26 530 Z M 147 530 L 144 532 L 142 531 L 139 535 L 141 535 Q 143 536 142 540 L 146 542 L 145 536 L 147 536 L 149 533 Q 151 534 150 531 L 147 530 Z M 202 530 L 200 532 L 201 535 L 204 534 L 202 530 Z M 284 530 L 281 533 Q 288 532 291 535 L 291 533 Q 289 529 284 530 Z M 45 531 L 45 533 L 52 536 L 53 533 L 52 533 L 45 531 Z M 122 531 Q 118 533 119 538 L 122 537 L 122 531 Z M 126 531 L 126 533 L 126 534 L 130 533 Q 131 535 132 533 L 132 531 L 126 531 Z M 161 531 L 159 535 Q 158 539 161 540 L 164 540 L 164 533 L 161 531 Z M 213 532 L 212 535 L 213 535 L 213 532 Z M 229 532 L 228 537 L 232 540 L 231 538 L 233 532 L 229 534 L 229 532 Z M 13 533 L 13 535 Q 14 539 11 540 Q 10 542 13 541 L 14 540 Q 13 535 15 534 L 13 533 Z M 42 533 L 35 535 L 36 540 L 41 537 L 42 535 L 42 533 Z M 152 533 L 148 538 L 151 543 L 153 541 Q 152 536 154 535 Q 155 532 152 533 Z M 240 533 L 237 539 L 240 537 L 240 533 Z M 253 533 L 253 535 Q 255 538 256 535 L 253 533 Z M 193 534 L 191 536 L 193 541 Q 194 544 198 543 L 199 544 L 196 537 L 193 534 Z M 260 534 L 257 535 L 259 538 L 260 536 L 260 534 Z M 281 534 L 278 546 L 278 547 Q 280 548 279 545 L 284 542 L 287 543 L 286 542 L 288 534 L 286 535 L 281 534 Z M 47 535 L 42 539 L 43 540 Q 45 537 50 537 L 47 535 Z M 204 535 L 206 539 Q 208 538 206 537 Q 207 534 204 535 Z M 244 535 L 241 539 L 242 540 L 244 539 L 244 535 Z M 261 535 L 261 539 L 264 540 L 267 539 Q 272 541 270 536 L 261 535 Z M 303 535 L 299 538 Q 294 539 293 536 L 289 544 L 281 549 L 286 549 L 290 549 L 294 550 L 293 549 L 295 548 L 296 550 L 296 549 L 298 549 Q 300 548 298 547 Q 297 544 300 545 L 303 539 L 303 535 Z M 78 536 L 76 539 L 79 538 Q 80 535 78 536 Z M 308 536 L 306 540 L 307 541 L 314 539 Q 309 539 308 536 Z M 59 537 L 56 538 Q 51 540 52 547 Q 58 548 60 543 Q 61 538 59 537 Z M 278 537 L 277 540 L 278 540 L 278 537 Z M 21 538 L 16 540 L 16 541 L 23 539 L 21 538 Z M 63 538 Q 62 541 65 540 Q 66 537 63 538 Z M 72 538 L 72 540 L 65 540 L 65 544 L 68 545 L 70 545 Q 74 547 73 543 L 73 541 L 74 539 L 72 538 Z M 219 538 L 222 542 L 222 541 L 219 538 Z M 246 538 L 244 541 L 246 540 L 246 538 Z M 81 539 L 82 541 Q 83 538 81 539 Z M 203 539 L 201 541 L 202 546 Q 203 550 208 549 Q 209 545 207 546 L 203 539 Z M 217 539 L 215 543 L 216 545 L 219 546 L 220 549 L 222 548 Q 223 550 224 548 L 222 544 L 220 545 Q 216 544 217 539 Z M 35 540 L 34 541 Q 29 539 30 543 L 32 542 L 32 544 L 33 544 Q 32 541 35 542 L 35 540 Z M 47 540 L 43 543 Q 40 542 41 545 L 43 544 L 45 546 Q 44 548 48 547 L 50 544 L 50 542 Q 51 538 47 540 Z M 155 540 L 154 543 L 155 543 L 155 540 Z M 246 540 L 244 544 L 250 545 L 252 547 Q 251 543 254 544 L 255 542 L 253 542 L 253 540 L 246 540 Z M 22 541 L 17 544 L 18 547 Q 21 548 20 545 L 23 545 L 22 541 Z M 37 541 L 37 543 L 36 545 L 38 547 L 38 543 L 41 543 Q 40 540 37 541 Z M 106 541 L 107 543 L 112 545 L 112 544 Q 111 540 106 541 Z M 244 541 L 241 544 Q 239 540 237 544 Q 238 547 236 546 L 234 549 L 237 547 L 237 549 Q 242 551 240 546 Q 243 545 242 549 L 244 549 L 243 546 L 244 543 L 244 541 Z M 100 542 L 96 545 L 97 546 L 101 543 L 100 542 Z M 158 542 L 154 548 L 155 549 L 156 547 L 157 547 Q 156 551 160 549 L 161 546 L 160 543 L 158 542 Z M 172 542 L 171 545 L 172 545 L 172 542 Z M 230 542 L 229 545 L 230 545 L 230 542 Z M 260 542 L 258 545 L 264 549 L 264 547 L 260 542 Z M 12 543 L 14 546 Q 16 547 15 545 L 12 543 Z M 28 543 L 25 545 L 24 547 L 28 546 L 29 544 L 28 543 Z M 76 543 L 75 545 L 78 547 L 76 543 Z M 81 543 L 80 546 L 82 547 L 81 543 Z M 85 543 L 84 545 L 84 547 L 86 548 Q 87 544 85 543 Z M 95 543 L 92 547 L 95 545 L 95 543 Z M 104 543 L 103 544 L 101 544 L 101 548 L 105 546 L 104 543 Z M 145 543 Q 144 546 147 545 Q 148 542 145 543 Z M 306 543 L 304 546 L 302 547 L 300 550 L 311 548 L 312 547 L 306 543 Z M 32 544 L 30 546 Q 29 548 32 547 L 32 544 Z M 107 544 Q 104 548 108 547 L 107 544 Z M 62 545 Q 61 548 64 547 Q 65 544 62 545 Z M 88 545 Q 87 548 90 547 Q 91 544 88 545 Z M 150 545 Q 149 548 152 547 Q 153 544 150 545 Z M 258 545 L 256 548 Q 255 551 259 549 L 258 545 Z M 225 546 L 225 548 L 227 549 Q 228 545 225 546 Z M 246 546 L 246 549 Q 250 550 249 548 L 246 546 Z M 255 546 L 253 550 L 255 549 L 255 546 Z M 322 546 L 319 548 L 322 549 L 325 548 L 330 549 L 331 550 L 330 546 L 328 547 L 322 546 Z M 10 550 L 10 582 L 9 583 L 10 587 L 9 590 L 11 591 L 13 590 L 15 591 L 17 591 L 28 591 L 29 590 L 33 591 L 35 591 L 39 590 L 41 590 L 44 591 L 85 591 L 86 590 L 90 591 L 92 591 L 97 590 Q 98 592 103 591 L 105 591 L 111 590 L 113 590 Q 118 589 120 591 L 123 590 L 125 590 L 204 590 L 205 591 L 207 590 L 209 591 L 267 591 L 268 590 L 269 591 L 335 591 L 335 566 L 334 565 L 335 553 L 287 553 L 286 552 L 284 553 L 282 553 L 281 552 L 259 552 L 258 551 L 257 552 L 222 552 L 221 553 L 220 552 L 206 552 L 204 552 L 202 551 L 200 552 L 182 552 L 181 551 L 180 552 L 167 552 L 163 552 L 160 551 L 158 551 L 155 552 L 153 551 L 145 551 L 144 552 L 142 551 L 140 552 L 139 551 L 72 551 L 71 550 Q 69 553 64 551 L 62 551 Q 55 553 54 550 L 52 551 L 50 550 L 10 550 Z "></path><path d="M 160.5 15 L 169.5 15 L 175 16 Q 176.3 19 172.5 18 L 169 19 L 169 32 L 174 32 L 174 34.5 L 172.5 36 L 165.5 37 L 162.5 36 Q 156.4 37.3 157 34.5 Q 158.2 32 162 33 L 162 19 L 155.5 19 L 155 17.5 L 160.5 15 Z "></path><path d="M 235 23 L 239 24.5 L 234.5 26 L 235 24.5 L 235 23 Z "></path><path d="M 240.5 28 L 244 28 L 244 32 L 245.5 32 L 247 35.5 Q 245.8 38 242 37 Q 241.3 33.6 244 32.5 L 242.5 32 L 240.5 33 L 239 29.5 L 240.5 28 Z "></path><path d="M 235.5 30 Q 238.1 29.3 237 32 L 234.5 33 L 234 31.5 L 235.5 30 Z "></path><path d="M 279 46 L 282 47.5 Q 283.1 50.8 280.5 50 L 278 51 L 279 46 Z "></path><path d="M 271.5 50 Q 277.8 48.1 276 53 L 270 54 L 271.5 50 Z "></path><path d="M 16.5 53 L 17 57 Q 14 58.3 15 54.5 L 16.5 53 Z "></path><path d="M 276.5 56 L 277 57.5 L 273.5 59 L 274.5 57 L 276.5 56 Z "></path><path d="M 135.5 109 L 147.5 110 L 156.5 118 Q 164.1 109.1 181.5 110 L 189 114.5 L 190 122.5 L 185.5 129 L 172.5 131 L 169.5 130 L 167.5 130 L 155.5 123 L 146.5 130 L 141.5 130 L 135.5 132 Q 128.8 130.8 125 126.5 L 123 118.5 L 127.5 113 L 135.5 109 Z M 136 114 L 132 116 Q 128 117 129 123 L 134 126 L 144 126 L 153 122 L 152 118 Q 146 114 136 114 Z M 172 114 L 167 115 L 160 120 Q 159 122 162 121 L 162 123 L 170 126 Q 176 124 178 127 L 184 123 Q 185 117 183 115 Q 180 113 172 114 Z "></path><path d="M 31 118 Q 34.7 116.7 33 122.5 L 32 125.5 L 31.5 127 L 28.5 122 L 27 122 Q 28.5 125.7 25.5 125 Q 21.3 126.8 23 134.5 L 24 134.5 L 26 130.5 L 25 127.5 Q 26.5 124.5 28 127.5 L 27 130 L 30.5 129 L 32.5 130 Q 35.3 128.8 33 127.5 Q 32.3 125.3 34.5 126 L 36 128.5 L 34 132 L 37 133.5 Q 38.3 138.8 35.5 140 L 31.5 142 L 29.5 141 L 30 142.5 L 33 147.5 L 32 150 Q 29.3 151.1 30 148.5 Q 32.3 147.3 29.5 146 L 27.5 155 L 24 152.5 L 23.5 150 L 23 153.5 L 24 156 Q 28.6 157.3 30 154.5 Q 28.7 149.7 32 151 L 31 157 L 25.5 158 L 23 157 L 21 150.5 L 22 148.5 L 21 143 L 26 139.5 L 25.5 135 L 22.5 137 Q 19.3 135.3 21 128.5 L 22 126.5 L 19.5 128 L 18 126.5 L 19 124 L 22.5 126 L 23 124 Q 26.3 125.3 25 120.5 L 28.5 119 L 30.5 122 L 31 118 Z M 32 132 L 30 134 L 33 139 L 35 138 L 34 134 Q 35 131 32 132 Z M 28 137 L 28 140 L 30 139 Q 31 136 28 137 Z M 24 146 L 23 149 L 24 149 L 24 146 Z "></path><path d="M 13.5 119 Q 15.8 118.3 15 120.5 L 12 122 L 13.5 119 Z "></path><path d="M 36.5 143 L 36 144.5 Q 36.7 147.1 34 146 Q 32.9 143.3 35.5 144 L 36.5 143 Z "></path><path d="M 305 145 L 308 146.5 L 308 151.5 L 306 155 L 300.5 156 L 298 151.5 L 299 148 L 303.5 146 L 300 150.5 Q 299.3 154.3 301.5 155 Q 303.8 155.8 303 153.5 L 306 147.5 L 305 145 Z "></path><path d="M 162.5 156 L 163 159.5 Q 161.5 162.5 160 159.5 L 162 159 L 162.5 156 Z "></path><path d="M 317.5 163 Q 320.9 162.1 319 167.5 L 318 171.5 L 319 175.5 L 316 181.5 L 320 180.5 L 319 177.5 L 324.5 174 L 326 178 Q 322.3 176.5 323 179.5 L 322 183 Q 325.7 181.8 324 187 Q 321.3 185.9 322 188.5 L 319.5 190 L 317 188.5 L 319 193.5 Q 317.3 197.7 315.5 195 L 314 195.5 L 315 198 L 311.5 197 Q 307 199 310.5 201 L 314.5 199 L 318 201 L 319.5 204 L 320 201.5 L 317 197.5 L 318.5 198 Q 320.8 197.3 320 199.5 L 322 204.5 L 318 206 L 316.5 203 L 316 205.5 Q 318.5 207 317 212.5 Q 316.3 214.8 312.5 214 Q 308.8 211.5 310 205 Q 312.7 203.9 312 206.5 L 312 208.5 L 314.5 212 Q 317.1 212.8 316 209.5 Q 312.7 207.8 313.5 202 L 308.5 203 Q 304.3 201.2 307 199.5 Q 305.9 196.2 308.5 197 L 314 192.5 L 312.5 189 L 310.5 190 L 309 187.5 L 313 185.5 L 309.5 181 Q 306.9 181.7 308 179 L 311 177.5 L 311 172.5 L 309 167.5 L 314 165 L 313 170.5 L 316 172.5 L 315 165.5 L 317.5 163 Z M 312 179 Q 311 183 314 182 Q 315 178 312 179 Z M 316 182 L 315 185 L 319 186 L 320 186 L 316 182 Z "></path><path d="M 151.5 179 L 159.5 180 L 163 179 Q 164.3 182 160.5 181 L 158 181.5 Q 159 185.3 156 184 L 154.5 181 L 151.5 182 Q 149.3 182.8 150 180.5 L 151.5 179 Z "></path><path d="M 321.5 210 L 322 214 Q 318.3 215.5 319 212.5 L 321.5 210 Z "></path><path d="M 72.5 314 L 75 315.5 L 73.5 316 L 72.5 314 Z "></path><path d="M 78.5 375 L 79 376.5 L 78 379 L 81.5 378 L 80.5 380 L 75.5 382 L 75 380 L 78 379.5 L 76 378.5 L 78.5 375 Z "></path><path d="M 151.5 421 L 152 426 Q 148.7 427.3 150 422.5 L 151.5 421 Z "></path><path d="M 145.5 447 L 150 449.5 L 151 456 L 144.5 460 L 145 458.5 L 146 454.5 L 145 452.5 L 146 450.5 L 145.5 447 Z M 149 450 L 147 456 L 149 456 L 150 454 L 149 450 Z "></path><path d="M 31.5 449 L 42.5 461 L 45 460 L 46 466.5 L 42 469.5 Q 41.3 466.9 44 468 L 44 464.5 L 35.5 455 Q 33.3 455.8 34 453.5 Q 29.8 452.3 31.5 449 Z "></path><path d="M 31.5 456 L 37 464 L 40 465.5 L 39.5 467 L 36 464.5 L 31.5 456 Z "></path><path d="M 246.5 456 L 250 457.5 L 250 461 Q 247 459.8 248 463.5 L 245 471 Q 240.9 472.7 242 468.5 L 245 467.5 L 248 459.5 L 246.5 458 L 243 461.5 L 241.5 464 Q 239.3 464.8 240 462.5 L 244.5 457 L 246.5 456 Z "></path><path d="M 224.5 457 L 225 458.5 L 223 459.5 L 224.5 457 Z "></path><path d="M 210.5 458 L 217 463.5 L 218 466.5 L 216 465.5 L 210.5 458 Z "></path><path d="M 224.5 462 L 225 474.5 L 224 474.5 L 224.5 462 Z "></path><path d="M 203.5 473 L 202.5 475 L 195.5 479 L 196.5 477 L 203.5 473 Z "></path><path d="M 178 475 L 180 475.5 L 178 476.5 L 178 475 Z "></path><path d="M 205.5 477 L 204.5 479 L 205.5 477 Z "></path><path d="M 195.5 484 L 196 485.5 L 194 486.5 L 195.5 484 Z "></path><path d="M 201.5 486 L 200 488.5 Q 200.8 490.8 198.5 490 L 201.5 486 Z "></path><path d="M 212 489 Q 216.1 487.3 215 491.5 L 212.5 495 Q 209.9 495.8 211 492.5 L 212 489 Z "></path><path d="M 209.5 510 L 211 510.5 L 208.5 512 L 209.5 510 Z "></path><path d="M 213.5 512 Q 215.8 511.3 215 513.5 L 219 516.5 L 220 519.5 Q 218.8 522.3 217.5 520 Q 214.5 520.7 216 517 L 213.5 517 L 212.5 515 Q 214.8 515.8 214 513.5 L 213.5 512 Z "></path><path d="M 142 533 L 144 533.5 L 142 534.5 L 142 533 Z "></path><path d="M 173.5 534 L 176 534.5 L 173.5 535 L 173.5 534 Z "></path><path d="M 341.5 543 L 344 543.5 L 343 545.5 Q 345.5 547 342 548.5 L 341.5 551 L 341 548.5 L 342 545.5 L 341.5 543 Z "></path><path d="M 343.5 551 L 344 553.5 L 341 553.5 Q 340.3 551.3 342.5 552 L 343.5 551 Z "></path><path d="M 342.5 555 Q 344.8 554.3 344 556.5 L 342.5 555 Z "></path><path d="M 134.5 558 L 138 559 L 137 561.5 L 137 576.5 L 140 581 L 132 581 L 132 568.5 L 131 568.5 L 127 581 L 123 579.5 L 113.5 565 L 113 579 Q 118.2 577.3 117 581 L 106.5 582 Q 103.5 580.5 106.5 579 Q 109.8 580.1 109 577.5 L 110 576.5 L 110 562 L 107 560.5 Q 108.8 557.3 115.5 559 L 125.5 575 Q 130.3 568.6 131 559 L 134.5 558 Z "></path><path d="M 39.5 559 L 46.5 560 L 48.5 560 L 50.5 559 L 52.5 559 Q 56.3 558.3 57 560.5 L 56.5 565 Q 55.1 561 50 562 L 49 572.5 L 50 574.5 L 49 577.5 Q 54.2 579.8 50.5 582 L 43.5 582 L 43 580.5 L 45 578.5 L 45 563.5 L 42.5 562 L 37 564 L 37 560 L 38.5 560 L 39.5 559 Z "></path><path d="M 59 559 L 65.5 559 L 66 560.5 L 65 561.5 L 65 568 L 67.5 569 L 71 568 L 71 561.5 L 70 560.5 L 73.5 559 L 75.5 559 Q 78.1 558.2 77 561.5 L 78 564.5 L 77 565.5 L 77 575.5 L 78 581 L 73.5 582 L 72 580.5 L 72 572.5 L 70.5 571 Q 66 570 65 572.5 Q 64.3 578.6 66 581 L 59 580.5 L 60 578.5 L 60 576.5 L 59 574.5 L 59 559 Z "></path><path d="M 81 559 L 92.5 559 L 94 560.5 Q 95.9 566.8 91 565 L 89.5 561 L 86 562.5 L 86.5 568 L 89 566.5 L 90 572 Q 84.8 569.9 86 574.5 L 87 579 Q 92.2 581.1 91 576.5 L 93.5 575 L 95 578.5 L 94 581 L 80 582 L 82 577.5 L 81 576.5 L 81 559 Z "></path><path d="M 145.5 559 L 154.5 559 L 155 561.5 Q 158.3 573.2 164 581 L 159.5 582 L 157 581 L 154 572 L 148 572 L 148 575.5 L 147 579 Q 151.1 577.7 150 581 L 144.5 582 L 141 579.5 L 144 579 L 147 562 L 144 560.5 L 145.5 559 Z M 151 564 L 149 567 Q 147 572 153 570 L 151 564 Z "></path><path d="M 171.5 559 Q 180 557 182 561.5 L 179.5 566 Q 175.3 567.3 177 562.5 Q 175.8 559.8 174.5 562 Q 170.5 561.5 170 564.5 Q 168.5 573.5 173.5 576 L 178 577 L 176.5 573 L 174 572.5 L 175.5 571 L 183 571 L 182 576.5 L 183 579.5 L 180.5 581 L 179.5 580 L 169.5 580 L 166 578 L 164 574.5 L 164 566.5 L 167.5 561 L 171.5 559 Z "></path><path d="M 186 559 L 188.5 560 L 195 559 L 195 566.5 L 194 567.5 Q 196.5 569 195 574.5 L 194 576.5 L 195 581 L 188 581 L 188 578.5 L 189 577.5 L 189 561 Q 184.9 562.3 186 559 Z "></path><path d="M 209.5 559 L 214.5 560 L 217 559 Q 218.8 565.1 215.5 567 L 209.5 563 L 204 565.5 L 203 572.5 L 205 577 L 211.5 579 L 215.5 576 L 216 577.5 Q 213.8 582.3 205.5 581 L 201 579 Q 198 575.8 198 568.5 Q 199.4 562.4 204.5 560 L 209.5 559 Z "></path><path d="M 220.5 559 L 228.5 559 L 230 560.5 L 229 561.5 Q 230.7 569.7 228 573.5 L 229 574.5 L 229 581 L 224 581 L 224 578.5 L 223 577.5 L 223 562 L 219 560.5 L 220.5 559 Z "></path><path d="M 259.5 559 Q 265.5 557.5 267 560.5 L 273 573 L 275 572.5 L 275 562.5 L 274 560.5 L 277.5 559 L 279.5 560 L 281 559.5 L 281 561 Q 277.3 559.5 278 562.5 L 277 567.5 L 278 568.5 L 278 582 Q 272.5 583.3 271 579.5 L 265.5 569 L 265 578.5 L 266 580.5 L 262.5 582 L 260.5 582 Q 257.9 582.7 259 580 L 262 578.5 Q 259.3 576.7 261 570.5 L 262 567.5 L 261 564.5 Q 263.3 563.3 260.5 562 L 258.5 562 Q 255.9 562.7 257 560 L 259.5 559 Z "></path><path d="M 235 560 L 246.5 560 L 247 563.5 L 253.5 580 L 257 579 L 256.5 582 L 254.5 581 L 250.5 582 L 248.5 582 L 245 580.5 L 247 577.5 L 243.5 572 Q 237.7 569.9 239 574.5 L 238 579 Q 241 578 240 581 L 233 582 Q 231.9 579.3 234.5 580 L 236 578.5 L 237 570.5 L 237 568.5 L 238 562 Q 233.9 563.3 235 560 Z M 242 563 L 239 569 L 243 570 L 242 563 Z "></path><path d="M 340.5 561 L 342.5 561 Q 344.8 560.3 344 562.5 L 341.5 563 Q 338.7 563.7 340.5 561 Z "></path><path d="M 290.5 578 L 291 580.5 L 288.5 582 L 287 579 L 290.5 578 Z "></path><path d="M 342.5 578 Q 344.8 577.3 344 579.5 L 342.5 578 Z "></path><path d="M 344.5 587 L 346 590.5 L 343.5 592 L 344 590.5 L 344.5 587 Z "></path><path d="M 340 588 L 342 588.5 L 341 590.5 L 341.5 592 L 340 588 Z "></path></svg>