<svg width="350" height="600" version="1.1" xmlns="http://www.w3.org/2000/svg" desc="Created with imagetracer.js version 1.2.5"><path d="M 23.5 6 L 46.5 7 L 48.5 7 L 123.5 7 L 124.5 8 L 132.5 8 L 134.5 8 L 158.5 8 L 159.5 7 L 160.5 8 L 237.5 8 L 239.5 7 L 240.5 8 L 280.5 8 L 282.5 7 L 285.5 8 L 290.5 7 L 291.5 8 L 301.5 8 L 303.5 7 L 305.5 7 L 309.5 8 L 328.5 8 L 332.5 7 L 336 9.5 L 336 205.5 L 337 207.5 L 336 208.5 L 336 218.5 L 337 219.5 L 337 230.5 Q 334.3 232.3 336 238.5 L 337 239.5 L 337 255.5 L 336 258.5 L 337 259.5 L 337 286.5 L 336 288.5 L 337 292.5 L 337 294.5 L 336 296.5 L 336 298.5 L 337 305.5 L 336 306.5 L 336 319.5 L 337 320.5 L 337 328.5 L 336 329.5 L 336 363.5 L 336 365.5 L 337 382.5 Q 334.3 384.3 336 390.5 L 337 393.5 L 336 397.5 L 337 398.5 L 337 475.5 L 337 477.5 L 337 536.5 L 338 538.5 Q 335.5 540 337 545.5 L 338 546.5 L 338 592.5 L 336.5 594 Q 331 592.5 329.5 595 L 297.5 595 L 295.5 595 L 277.5 595 L 276.5 594 L 274.5 595 L 272.5 594 L 269.5 595 L 266.5 594 L 264.5 594 L 255.5 595 L 253.5 595 Q 243.2 596.3 236.5 594 L 233.5 595 L 231.5 594 L 230.5 595 L 221.5 595 L 220.5 594 L 74.5 594 L 72.5 594 L 68.5 595 L 66.5 594 L 64.5 594 L 55.5 595 L 54.5 594 L 14.5 594 L 9 595 L 8 592.5 L 8 524.5 L 8 522.5 L 9 518.5 L 8 517.5 L 8 373.5 L 7 372.5 L 8 369.5 L 7 365.5 L 7 363.5 L 7 354.5 L 8 353.5 L 7 351.5 Q 9.8 349.8 8 343.5 L 7 341.5 L 8 340.5 L 8 176.5 Q 5.5 175 7 169.5 L 8 165.5 L 8 163.5 L 8 150.5 L 7 148.5 L 8 147.5 L 8 139.5 L 8 137.5 L 8 126.5 L 7 124.5 L 8 123.5 L 8 7 L 22.5 7 L 23.5 6 Z M 134 10 L 133 12 L 138 22 L 136 28 Q 131 33 121 33 L 120 30 L 117 32 L 113 37 Q 119 40 129 40 L 131 40 L 132 41 L 142 41 L 143 42 L 145 41 L 147 42 L 171 42 L 172 43 L 173 42 L 183 42 L 185 42 L 211 41 L 213 41 L 214 40 L 224 40 L 226 39 L 222 37 L 216 31 L 216 23 L 223 12 Q 224 9 221 10 L 218 11 L 215 10 L 211 11 L 208 10 L 189 10 L 188 11 L 186 10 L 162 10 L 161 12 L 163 11 L 170 12 L 172 12 L 174 11 L 177 12 Q 183 10 183 14 L 184 15 L 177 14 L 177 26 L 181 26 L 184 28 L 183 30 L 176 30 L 168 28 L 163 29 L 157 27 Q 156 23 161 25 Q 163 22 162 14 L 158 13 L 158 10 L 153 10 L 151 10 L 143 10 L 142 11 L 136 10 L 134 10 Z M 232 10 L 223 15 L 219 24 L 219 31 Q 221 36 230 35 Q 231 39 233 36 L 227 32 L 223 27 Q 234 30 240 39 Q 239 41 242 40 L 256 66 L 262 87 L 268 89 L 279 99 L 287 79 L 290 77 Q 291 86 297 92 Q 296 94 299 93 L 301 84 L 305 81 L 307 85 L 309 93 Q 308 95 311 94 L 316 78 L 319 77 L 329 96 L 333 93 L 333 15 L 332 12 L 329 10 L 327 11 L 325 11 L 323 10 L 312 10 L 309 11 L 306 10 L 303 11 Q 297 13 296 10 L 284 10 L 283 11 L 282 10 L 266 10 L 264 10 L 263 11 L 249 11 L 247 11 L 233 11 L 232 10 Z M 168 14 L 166 16 L 166 26 L 170 26 L 172 26 Q 175 23 173 16 Q 172 13 171 15 L 168 14 Z M 128 21 L 123 22 L 117 27 L 118 28 L 126 23 Q 130 22 129 25 Q 132 26 131 24 L 128 21 Z M 235 39 L 229 42 L 235 43 L 236 46 L 240 45 Q 241 42 238 41 Q 239 37 235 39 Z M 114 40 Q 113 44 108 43 L 106 46 Q 109 47 107 49 L 108 50 L 111 49 L 109 46 L 112 44 L 114 49 L 111 50 L 112 52 L 112 55 Q 109 54 110 57 L 114 55 Q 113 52 120 53 L 122 57 L 123 55 L 126 53 Q 127 55 128 53 L 127 49 L 120 52 L 119 47 L 126 44 L 121 41 Q 117 40 119 46 Q 118 48 114 47 L 113 43 L 117 41 L 114 40 Z M 220 41 L 216 42 L 217 45 L 214 49 L 215 53 L 217 52 L 221 57 Q 219 62 223 61 L 224 55 L 220 54 L 222 49 L 222 47 L 219 51 L 216 50 L 219 45 L 226 48 Q 227 45 224 46 Q 222 42 226 43 L 227 41 L 222 42 L 220 41 Z M 208 42 L 207 43 L 193 43 L 191 44 L 189 44 L 187 43 L 184 44 L 182 43 L 181 44 L 167 44 L 168 49 L 172 46 L 173 50 L 178 46 L 179 46 L 179 50 L 175 55 Q 178 56 177 54 Q 179 50 184 50 Q 188 52 185 54 Q 178 52 180 57 L 184 57 L 187 55 L 187 48 L 188 47 Q 187 44 191 45 L 190 52 L 193 51 L 194 51 L 194 47 L 201 46 Q 206 49 201 51 L 197 49 Q 197 55 194 56 L 190 55 L 186 57 L 188 57 Q 189 60 186 59 L 185 62 Q 182 63 183 61 L 181 62 L 184 65 L 186 64 L 190 59 L 193 61 L 195 64 L 195 58 L 201 53 L 202 57 L 200 60 L 205 58 L 204 54 L 205 47 L 207 45 L 209 47 L 207 50 L 208 54 L 211 52 Q 212 54 213 52 L 212 42 L 210 43 L 208 42 Z M 127 43 L 128 46 L 129 44 L 127 43 Z M 131 43 L 132 49 L 131 51 Q 135 52 133 48 L 137 45 L 137 43 L 131 43 Z M 140 43 L 139 50 L 137 52 L 139 54 L 139 52 L 140 52 L 139 55 L 141 55 L 142 49 L 146 46 L 147 52 L 146 55 L 147 58 L 150 53 Q 152 52 151 55 L 158 51 Q 160 52 159 49 Q 156 48 155 51 Q 152 52 153 49 L 159 45 L 161 46 L 161 44 L 146 44 L 144 44 L 140 43 Z M 162 46 L 162 50 Q 161 52 164 51 L 162 46 Z M 243 46 L 241 49 L 244 49 L 243 46 Z M 104 48 L 102 51 Q 101 54 106 52 L 107 55 L 109 54 L 108 52 L 104 48 Z M 167 49 L 165 52 L 167 53 L 167 49 Z M 232 49 L 235 52 L 238 51 L 232 49 Z M 225 50 L 224 52 L 226 53 L 225 50 Z M 160 51 Q 157 55 152 56 L 155 63 Q 157 69 152 67 L 151 70 Q 152 73 150 72 L 146 67 L 141 70 L 140 68 L 140 64 Q 143 65 142 63 Q 140 61 143 60 Q 145 61 144 58 L 142 57 L 138 58 L 139 63 L 137 64 L 139 65 L 137 66 Q 133 65 134 61 L 133 61 Q 134 63 131 62 L 131 67 L 128 69 L 124 67 L 126 61 L 130 60 Q 131 56 129 55 L 127 59 L 122 61 L 121 57 L 120 59 L 118 58 L 117 62 L 119 61 L 124 64 L 120 70 L 124 71 Q 122 73 117 72 L 120 83 Q 118 88 119 97 L 119 99 L 120 101 L 128 94 L 134 93 L 136 93 L 140 94 L 142 94 L 141 91 L 135 87 Q 130 86 129 88 L 127 87 L 125 88 Q 122 89 123 87 Q 127 81 139 83 L 137 86 L 140 88 Q 142 89 141 86 L 144 86 L 142 84 Q 138 83 139 78 L 137 79 L 138 81 L 136 79 L 130 79 L 123 81 L 124 77 L 129 75 Q 133 74 135 76 L 137 75 L 144 79 Q 147 80 146 77 L 134 72 L 129 72 L 128 70 L 131 71 Q 135 72 133 68 L 140 71 L 143 75 L 144 75 L 143 71 Q 147 70 150 73 L 151 76 L 162 71 L 160 70 L 156 66 L 161 63 L 164 68 L 162 72 L 170 73 Q 176 74 177 70 L 176 64 L 172 66 L 173 61 Q 175 55 169 57 L 166 63 Q 161 61 164 60 L 166 57 L 163 54 L 161 55 L 163 58 L 161 61 L 159 62 L 155 61 L 160 53 L 160 51 Z M 172 51 L 170 53 Q 169 55 172 54 L 172 51 Z M 135 52 L 132 54 Q 134 57 136 53 L 135 52 Z M 101 53 L 99 55 L 100 57 L 101 55 L 101 53 Z M 227 53 L 228 54 L 231 59 Q 230 63 233 62 L 232 60 L 238 57 L 239 54 Q 236 53 237 56 L 233 57 L 231 55 Q 230 52 227 53 Z M 215 55 L 211 57 L 212 60 L 213 61 L 218 61 Q 219 58 216 59 L 215 55 Z M 137 56 L 136 57 Q 133 56 134 60 L 135 60 Q 134 57 137 58 L 137 56 Z M 101 57 L 101 59 L 109 62 Q 111 63 110 60 Q 108 55 107 58 L 101 57 Z M 113 57 Q 114 63 111 65 L 109 64 L 107 65 L 110 69 L 108 74 L 112 71 L 117 72 Q 117 66 121 65 L 119 63 L 113 66 L 115 62 Q 117 56 113 57 Z M 227 57 L 224 64 Q 225 67 223 66 L 221 63 L 214 64 L 219 65 L 225 73 Q 226 77 224 76 L 222 76 Q 217 77 216 75 L 208 78 L 204 82 L 205 84 L 208 82 Q 216 82 220 86 L 222 90 L 217 89 L 210 90 L 220 93 L 221 96 L 218 95 Q 209 96 204 101 L 205 104 L 208 102 Q 217 101 222 104 L 225 110 L 226 120 L 226 118 Q 227 115 229 117 L 232 115 L 233 121 Q 234 124 231 123 Q 232 119 230 118 L 229 120 Q 228 122 227 120 L 226 126 L 234 130 Q 237 129 235 133 L 229 132 L 227 136 L 227 148 L 231 157 Q 234 156 236 159 L 238 158 Q 242 157 244 159 Q 246 158 245 161 L 252 160 L 253 160 L 253 164 L 255 164 L 256 163 L 256 152 L 251 154 L 247 154 L 241 152 L 238 144 Q 237 134 241 131 L 246 128 L 252 130 L 256 135 L 257 134 L 258 121 L 252 118 L 244 120 L 241 124 Q 238 125 239 121 Q 235 120 237 125 L 234 126 L 232 127 L 234 124 L 234 113 L 231 114 L 232 112 L 230 108 L 231 95 L 232 94 L 232 88 L 230 82 Q 228 77 226 81 L 227 103 L 230 111 L 229 113 L 225 106 L 225 96 L 223 87 Q 222 79 227 77 L 231 78 L 234 84 Q 236 97 232 105 L 233 108 L 232 111 L 234 111 L 235 113 Q 234 108 237 107 Q 239 108 238 106 L 245 100 L 252 98 L 256 99 Q 258 100 257 97 L 255 94 L 251 93 L 243 95 Q 240 94 243 92 Q 245 93 244 90 Q 242 92 237 91 L 235 92 L 237 85 L 240 82 L 248 80 Q 252 79 254 81 Q 256 80 255 83 L 257 84 L 256 81 Q 252 76 246 75 L 244 75 L 242 74 Q 235 74 233 77 L 230 77 L 231 74 L 231 72 L 232 69 L 238 64 L 238 63 Q 231 62 229 66 L 226 66 L 228 63 Q 229 58 227 57 Z M 245 57 L 246 60 L 244 60 L 245 64 L 247 61 Q 250 62 249 60 Q 249 57 245 57 Z M 150 58 L 147 60 Q 144 59 145 63 L 146 63 Q 145 60 148 61 L 149 66 L 152 67 L 149 62 L 150 60 L 150 58 Z M 175 58 L 179 65 L 179 71 L 176 74 L 172 75 L 162 73 L 157 74 L 152 79 L 148 89 L 145 90 Q 143 101 147 107 L 153 112 L 162 113 L 161 115 L 157 114 L 154 114 Q 155 117 153 116 L 151 113 L 144 110 Q 141 110 141 106 L 138 108 Q 139 110 136 109 L 135 107 Q 134 101 138 100 L 138 97 L 137 99 L 133 101 L 129 99 L 131 95 L 125 99 L 127 103 L 130 101 L 128 105 L 131 106 L 135 112 L 134 117 Q 133 119 130 118 L 127 115 L 126 115 L 127 119 Q 125 120 128 121 L 134 119 L 133 124 L 134 125 L 136 122 L 135 119 L 141 112 L 142 120 L 137 124 L 142 125 Q 145 124 144 119 L 149 114 L 150 117 L 148 122 Q 149 124 146 123 L 144 126 L 146 125 L 149 126 L 150 121 Q 151 118 153 120 L 157 116 L 165 115 L 169 115 Q 172 116 171 113 L 168 112 L 166 113 L 164 113 L 158 110 L 156 104 L 157 96 L 163 86 L 176 75 Q 178 74 177 77 Q 173 78 177 80 L 179 77 L 185 93 L 185 99 L 182 106 L 176 112 L 171 113 Q 173 117 175 114 Q 179 112 178 116 L 176 117 Q 174 120 173 116 L 171 118 Q 173 122 175 119 Q 179 120 178 117 Q 180 115 187 116 L 195 112 L 199 106 L 199 96 L 200 95 L 198 88 L 190 79 Q 183 80 182 76 Q 180 78 179 76 L 181 71 L 179 60 L 175 58 Z M 98 59 L 96 61 L 98 61 L 98 59 Z M 209 59 Q 206 63 210 62 L 209 59 Z M 103 61 L 104 63 L 105 63 L 103 61 Z M 202 61 L 201 62 Q 198 61 199 64 L 203 65 Q 204 62 206 67 Q 208 72 204 71 L 204 69 L 201 70 L 197 65 L 195 70 L 198 70 L 199 73 Q 200 77 198 78 L 195 77 L 193 73 L 191 78 L 195 80 L 196 82 L 196 80 L 199 79 L 201 85 L 202 81 Q 201 78 204 79 Q 205 76 203 77 Q 200 76 201 72 Q 207 70 205 75 L 209 73 L 207 72 L 208 69 L 206 63 Q 205 60 202 61 Z M 252 62 L 251 64 L 250 65 L 247 64 L 249 66 Q 251 65 250 68 L 254 69 L 252 62 Z M 100 64 L 98 67 Q 99 69 96 68 L 96 71 L 101 67 L 103 72 L 107 71 L 106 68 Q 104 63 103 66 L 100 64 Z M 187 64 L 187 67 L 191 69 Q 190 71 193 70 L 194 67 L 193 67 L 191 66 Q 188 67 189 64 L 187 64 Z M 211 64 L 212 67 L 211 72 L 215 72 L 213 71 L 214 66 L 211 64 Z M 26 66 Q 25 75 20 83 L 21 87 L 28 67 Q 31 69 30 75 L 34 81 Q 33 83 36 82 L 30 68 L 26 66 Z M 55 66 L 53 68 L 48 85 L 49 87 L 55 70 L 55 66 Z M 238 66 L 235 70 L 234 73 L 240 73 Q 241 70 238 71 L 238 66 Z M 58 67 Q 56 71 59 74 L 60 74 L 58 67 Z M 244 67 L 242 72 L 247 73 L 248 73 L 248 69 L 244 67 Z M 219 68 L 218 71 L 221 72 L 219 68 Z M 183 70 Q 180 76 185 74 L 183 70 Z M 255 71 L 253 76 L 256 77 L 257 78 Q 258 75 255 76 L 256 74 L 255 71 Z M 95 73 L 93 77 L 95 76 L 104 79 Q 105 82 103 81 L 101 81 L 95 83 L 102 85 L 103 88 L 98 90 L 96 89 L 93 90 L 84 100 L 85 101 Q 88 96 95 95 Q 103 93 106 97 L 109 101 L 111 106 L 113 105 L 112 96 L 108 86 L 108 74 L 95 73 Z M 113 73 L 111 75 L 112 91 L 116 103 L 117 100 L 116 97 L 117 93 L 117 79 L 115 75 Q 116 72 113 73 Z M 190 73 L 188 75 L 190 75 L 190 73 Z M 61 74 L 60 76 L 64 84 L 65 84 L 61 74 Z M 132 76 L 130 78 L 132 78 L 132 76 Z M 28 78 L 24 88 L 25 90 L 28 82 L 32 93 L 33 93 Q 32 83 28 78 Z M 40 78 L 30 107 L 31 108 L 42 80 L 43 84 L 46 86 L 43 80 L 40 78 Z M 84 78 L 82 79 L 82 80 L 85 79 L 84 78 Z M 89 78 L 86 85 L 87 87 L 87 86 L 97 80 L 96 78 Q 91 77 90 80 L 89 78 Z M 56 79 L 52 89 L 53 91 L 56 82 L 56 79 Z M 148 79 Q 146 82 149 81 L 148 79 Z M 58 80 L 60 87 L 61 87 Q 62 82 59 82 Q 60 79 58 80 Z M 81 80 L 79 81 L 78 83 L 81 82 L 81 80 Z M 289 80 L 280 99 L 281 101 Q 285 96 286 89 L 290 87 L 290 90 L 295 98 L 297 99 L 296 94 Q 291 88 289 80 Z M 318 80 L 311 97 L 312 101 L 316 89 L 320 86 L 325 96 Q 326 98 323 97 L 319 88 L 313 102 Q 312 106 315 105 L 316 109 L 317 104 L 321 101 L 323 102 L 322 100 Q 319 101 320 98 L 318 98 L 317 102 L 316 102 L 317 97 L 320 95 L 324 100 L 327 98 L 325 92 L 318 80 Z M 11 81 L 10 85 Q 13 84 12 87 L 25 94 L 27 99 L 29 100 L 26 92 Q 23 93 24 90 L 15 86 L 11 81 Z M 250 82 L 251 83 L 252 84 Q 253 81 250 82 Z M 76 83 L 70 86 L 69 88 L 77 84 L 76 83 Z M 243 83 Q 244 87 242 86 L 238 88 L 244 88 L 245 84 L 243 83 Z M 128 84 Q 127 87 130 86 Q 131 83 128 84 Z M 210 84 L 209 88 L 212 86 L 216 88 L 217 88 Q 215 84 210 84 Z M 304 84 L 303 89 L 296 106 L 295 113 L 291 122 Q 290 126 294 124 L 302 96 L 305 94 L 306 101 L 308 104 L 308 108 L 314 121 Q 313 125 316 124 L 313 110 L 309 103 L 305 86 L 304 84 Z M 93 85 L 94 89 L 95 87 Q 96 84 93 85 Z M 205 85 L 201 86 L 202 92 L 203 89 Q 202 86 205 87 L 206 88 Q 207 84 205 85 Z M 257 86 L 256 92 L 258 92 Q 259 87 257 86 Z M 48 87 L 47 90 L 50 97 L 51 97 L 51 94 L 48 87 Z M 247 87 Q 246 90 249 89 Q 250 86 247 87 Z M 28 88 Q 26 92 29 95 L 31 96 L 28 88 Z M 58 88 L 56 91 L 58 90 L 58 88 Z M 67 88 L 64 89 L 65 91 L 68 89 L 67 88 Z M 79 88 L 74 90 L 74 91 Q 79 92 81 89 L 79 88 Z M 88 88 Q 85 89 86 93 L 88 92 L 88 88 Z M 264 89 Q 262 93 266 94 Q 269 93 268 97 Q 270 101 272 98 L 275 105 L 279 107 L 287 118 L 289 123 L 290 121 L 282 106 L 274 98 L 272 96 L 264 89 Z M 254 90 L 251 92 L 254 92 L 254 90 Z M 261 90 L 260 125 L 259 126 L 259 136 L 258 137 L 259 139 L 259 159 L 258 160 L 259 163 L 258 166 L 258 168 L 259 173 L 259 175 L 259 239 L 258 240 L 259 241 L 259 252 L 260 253 L 259 255 L 260 257 L 259 261 L 259 263 L 260 265 L 259 267 L 259 283 L 258 286 Q 261 284 269 285 L 270 284 L 270 250 L 271 249 L 270 245 L 271 242 L 271 217 L 271 215 L 272 212 L 272 184 L 273 183 L 273 168 L 274 167 L 275 127 L 276 126 L 275 124 Q 276 119 274 120 L 266 110 L 261 90 Z M 289 90 L 283 101 L 284 104 L 286 98 L 289 96 L 293 104 Q 292 106 295 105 L 295 101 L 289 90 Z M 10 91 L 10 93 L 18 96 L 22 102 L 24 103 L 23 100 L 18 94 L 10 91 Z M 56 91 L 55 95 L 56 95 L 56 91 Z M 72 91 L 70 92 L 65 98 L 73 92 L 72 91 Z M 62 92 Q 56 95 55 102 L 54 101 L 52 100 Q 53 107 59 111 L 59 107 L 64 100 L 64 98 L 59 105 L 56 106 Q 57 97 63 93 L 62 92 Z M 203 92 L 202 100 L 205 98 L 203 92 Z M 209 92 L 208 96 L 209 96 L 209 92 Z M 76 95 L 75 97 L 77 96 L 76 95 Z M 137 95 L 137 96 L 139 96 L 137 95 Z M 143 96 Q 140 97 141 101 L 143 102 L 143 96 Z M 332 96 L 329 98 Q 321 103 317 113 L 318 118 L 323 107 L 333 99 Q 334 95 332 96 Z M 73 97 L 69 102 L 70 103 L 74 98 L 73 97 Z M 97 97 L 98 100 L 97 103 L 99 102 Q 98 99 101 100 L 102 102 L 103 98 L 97 97 Z M 267 97 L 266 100 L 267 100 L 267 97 Z M 304 98 Q 300 105 299 116 L 296 122 Q 295 125 298 124 L 304 108 Q 308 115 310 125 L 312 124 L 304 98 Z M 11 99 L 17 105 Q 19 106 18 104 L 14 99 L 11 99 Z M 269 99 L 269 104 L 281 119 Q 279 123 284 122 L 285 123 L 285 120 L 274 106 Q 275 103 273 104 L 269 99 Z M 88 100 L 86 102 L 87 107 L 90 108 L 88 104 L 89 102 Q 90 99 88 100 Z M 249 100 L 246 102 Q 248 105 249 102 L 249 100 Z M 254 100 L 253 104 L 255 105 Q 254 102 257 103 L 257 101 L 254 100 Z M 289 100 Q 285 101 286 107 Q 284 108 287 109 L 290 107 L 291 110 L 293 111 L 289 100 Z M 333 100 L 328 104 L 324 108 L 323 113 L 318 121 L 319 124 Q 324 125 327 122 L 333 110 L 333 107 L 323 122 L 320 122 L 327 110 L 333 105 L 333 100 Z M 94 101 L 93 105 L 95 104 L 94 101 Z M 181 101 L 179 103 L 181 103 L 181 101 Z M 106 102 Q 103 103 105 105 L 102 106 L 104 108 L 107 107 Q 108 103 106 102 Z M 244 102 L 240 106 L 243 107 L 245 104 Q 246 101 244 102 Z M 69 103 L 67 106 L 69 105 L 69 103 Z M 81 103 Q 79 113 74 119 L 72 122 L 68 125 L 68 164 L 69 165 L 68 168 L 69 169 L 69 202 L 69 204 L 70 209 L 69 211 L 70 216 L 69 221 L 70 223 L 70 249 L 69 250 L 70 251 L 70 286 L 81 286 L 83 287 L 82 281 L 83 279 L 83 255 L 83 253 L 84 251 L 83 248 L 83 215 L 84 214 L 83 171 L 82 170 L 82 111 L 81 103 Z M 84 103 L 84 105 L 86 104 L 84 103 Z M 102 103 L 99 104 L 100 106 L 102 105 L 102 103 Z M 120 104 L 118 107 L 120 107 L 120 104 Z M 208 104 L 208 106 Q 209 109 207 110 L 200 109 L 197 113 L 203 111 L 204 114 L 204 112 L 207 111 Q 210 110 208 115 L 210 114 L 209 112 Q 208 108 211 107 L 214 109 L 213 112 L 214 113 L 216 112 L 215 110 L 217 107 Q 220 108 219 105 L 208 104 Z M 249 104 Q 249 108 246 110 L 249 111 L 251 108 Q 253 109 252 106 L 249 104 Z M 19 105 L 18 109 L 22 112 L 19 105 Z M 114 105 L 112 109 L 114 109 L 116 114 L 117 114 Q 116 111 119 112 Q 120 108 115 110 L 114 105 Z M 123 105 L 123 115 L 123 114 L 127 111 L 126 106 L 123 107 L 123 105 Z M 67 106 L 65 109 L 67 108 L 67 106 Z M 110 106 L 109 109 L 109 111 Q 111 114 112 111 L 110 106 Z M 269 106 Q 270 115 278 120 L 279 120 L 273 112 Q 274 109 272 110 L 269 106 Z M 258 107 L 256 110 L 258 110 L 258 107 Z M 63 108 L 61 110 L 63 110 L 64 112 L 65 110 L 63 108 Z M 103 108 L 100 111 L 103 111 L 103 108 Z M 237 109 L 236 113 L 237 116 L 240 114 L 241 119 L 242 115 L 240 111 L 237 109 Z M 289 109 L 288 114 Q 290 118 292 115 L 289 109 Z M 90 110 L 88 112 Q 87 114 90 113 L 91 117 L 94 115 Q 95 112 91 113 L 91 110 L 90 110 Z M 223 110 L 219 112 L 220 116 L 219 121 Q 219 124 214 124 Q 212 127 210 123 L 210 119 L 206 117 L 206 120 L 209 124 Q 211 128 207 127 L 208 129 L 214 126 L 216 127 L 216 126 L 219 124 L 220 122 Q 219 119 222 120 L 223 121 Q 224 116 221 116 L 223 113 L 223 110 Z M 29 111 L 25 118 L 26 119 L 29 114 L 29 111 Z M 249 111 L 251 115 L 256 112 L 249 111 Z M 105 112 Q 103 115 98 114 L 90 121 Q 91 123 87 122 L 85 126 L 86 145 L 89 151 Q 92 158 105 156 L 108 157 L 120 149 L 122 151 L 121 149 L 124 148 L 123 143 L 125 138 L 116 135 L 117 138 L 116 145 L 112 148 L 104 150 L 100 150 L 93 147 L 88 142 Q 86 130 91 126 L 94 123 L 99 122 L 108 124 L 110 128 L 123 127 L 123 125 L 118 119 L 105 112 Z M 304 112 L 300 123 Q 299 127 305 125 L 307 125 L 304 112 Z M 211 113 Q 210 116 213 115 Q 214 112 211 113 Z M 196 115 L 193 118 L 194 121 L 198 119 L 197 118 Q 198 114 196 115 Z M 218 115 L 217 119 L 218 119 L 218 115 Z M 12 116 L 10 118 L 10 143 L 10 145 L 11 150 L 10 153 L 10 200 L 11 201 L 10 204 L 11 206 L 11 241 L 10 242 L 10 276 L 11 277 L 11 285 L 13 285 L 14 246 L 14 244 L 16 235 L 15 233 L 16 231 L 16 183 L 17 182 L 17 161 L 18 160 L 17 158 L 17 123 L 15 122 L 12 116 Z M 62 116 L 61 118 L 63 119 L 62 116 Z M 167 116 L 165 118 L 168 118 L 167 116 Z M 333 116 L 330 122 L 328 123 L 324 127 L 325 128 L 324 130 L 325 133 L 324 136 L 324 229 L 324 231 Q 326 232 325 237 L 325 239 L 325 274 L 324 275 L 325 277 L 324 282 L 325 284 L 324 286 L 325 290 L 333 289 L 334 290 L 334 239 L 333 238 L 333 204 L 334 203 L 333 194 L 333 192 L 334 190 L 333 188 L 333 116 Z M 87 117 L 86 120 L 87 120 L 87 117 Z M 214 117 L 213 121 L 214 121 L 214 117 Z M 158 118 L 155 123 L 156 124 L 159 122 L 163 125 L 172 124 L 171 122 L 169 123 Q 165 124 166 122 L 164 123 L 162 123 L 162 118 L 158 118 Z M 168 118 L 169 120 L 171 119 L 168 118 Z M 180 118 Q 179 121 182 120 Q 183 117 180 118 Z M 188 119 L 186 122 L 181 125 L 182 127 L 188 122 L 188 119 Z M 199 119 L 199 122 Q 202 121 199 119 Z M 203 119 L 201 121 L 202 123 Q 201 126 204 125 L 204 120 L 203 119 Z M 49 121 L 47 124 Q 51 125 52 123 Q 53 120 49 121 Z M 179 121 L 174 124 L 178 125 L 179 123 L 179 121 Z M 25 122 L 26 124 L 30 123 L 25 122 Z M 36 122 Q 36 125 38 123 L 43 125 L 43 122 L 36 122 Z M 59 122 Q 57 125 60 124 L 59 122 Z M 224 123 L 222 125 L 220 124 L 219 126 Q 223 127 224 125 L 224 123 Z M 127 124 L 126 127 L 127 127 L 127 124 Z M 280 124 L 281 127 L 279 135 L 279 144 L 279 146 L 279 155 L 277 165 L 277 182 L 277 184 L 276 186 L 276 201 L 275 202 L 276 204 L 275 209 L 275 211 L 275 223 L 276 224 L 275 226 L 275 246 L 274 247 L 274 279 L 273 280 L 273 295 L 272 296 L 272 315 L 271 316 L 271 351 L 270 352 L 270 388 Q 267 389 269 396 L 269 398 L 269 410 L 270 411 L 268 422 L 268 432 L 267 433 L 267 445 L 271 452 L 275 468 L 275 484 L 274 486 L 278 487 L 279 489 L 274 488 L 272 496 Q 276 499 286 498 L 285 500 L 278 500 Q 275 497 271 498 L 270 501 Q 269 504 272 503 L 274 507 L 276 506 L 279 512 Q 282 517 292 516 L 296 523 L 302 527 L 309 529 L 319 529 L 335 526 L 334 487 L 333 486 L 334 484 Q 335 479 333 478 L 334 476 L 333 472 L 334 470 L 334 453 L 333 452 L 334 449 L 334 447 L 334 408 L 333 407 L 334 405 L 334 346 L 333 345 L 334 342 L 334 302 L 332 301 L 329 302 L 325 301 L 325 352 L 326 353 L 326 362 L 325 363 L 326 364 L 326 374 L 327 375 L 327 393 L 328 394 L 327 397 L 328 400 L 328 403 Q 333 401 332 406 L 331 405 Q 326 404 328 410 L 328 412 L 329 413 L 329 425 L 329 427 L 330 429 L 330 442 L 332 449 L 331 451 L 332 455 L 332 478 L 327 488 L 321 493 L 312 493 L 310 493 L 308 494 L 304 493 L 302 493 L 298 494 L 296 493 L 294 494 L 292 494 L 287 493 L 285 494 L 281 493 L 280 489 L 286 491 L 302 491 L 301 488 L 310 488 L 320 486 L 321 484 L 319 485 L 307 485 Q 308 482 310 484 L 318 483 L 328 479 L 330 467 L 330 464 Q 325 462 326 466 Q 325 468 324 466 L 321 467 Q 320 464 323 465 Q 324 462 317 463 L 318 461 L 319 462 L 328 462 L 329 463 L 328 434 L 327 431 L 317 431 Q 318 428 320 430 L 325 429 L 327 430 L 327 419 L 325 408 L 325 393 L 317 393 Q 316 390 324 391 L 325 388 Q 322 387 323 390 L 322 390 L 322 388 L 317 388 L 318 386 L 324 386 L 324 384 L 318 384 L 318 382 L 324 382 L 324 379 L 316 379 Q 315 376 320 377 L 322 377 Q 325 378 324 376 Q 323 373 319 374 L 317 374 Q 314 375 315 372 L 318 373 L 320 372 L 324 373 L 324 370 L 319 370 L 319 368 Q 323 369 324 367 Q 322 363 317 365 L 317 363 L 323 363 L 323 359 L 317 360 L 317 358 L 323 358 Q 325 352 319 354 Q 317 356 316 354 L 317 352 L 319 353 L 321 353 L 323 352 Q 322 349 321 351 L 319 350 Q 317 352 316 350 Q 317 347 319 349 L 321 348 Q 322 350 323 348 L 323 346 L 316 346 L 317 344 L 319 345 L 321 345 L 322 343 L 321 343 L 317 342 Q 314 343 315 340 L 318 341 L 323 340 L 318 337 Q 314 338 315 335 L 318 336 Q 325 338 323 333 L 317 332 L 315 333 L 316 331 L 322 331 L 322 329 Q 317 330 315 328 L 322 327 Q 324 323 320 324 L 317 325 L 315 324 L 316 322 Q 317 324 322 323 L 323 320 L 319 321 L 315 320 L 322 319 L 323 318 Q 322 315 317 316 L 315 317 Q 314 314 322 315 Q 325 314 322 312 Q 314 314 315 310 L 322 311 L 322 307 L 315 308 L 316 306 L 322 306 L 322 303 L 321 303 Q 315 305 316 301 Q 321 302 322 300 L 322 298 L 317 298 L 317 297 L 319 297 L 321 296 L 322 296 L 322 289 Q 321 286 320 288 L 316 287 L 322 286 L 322 283 L 316 283 L 316 281 L 321 281 Q 322 277 317 279 L 316 277 Q 323 279 321 273 L 315 273 L 321 272 Q 323 271 322 267 L 319 268 L 316 267 L 317 265 L 319 266 L 322 265 L 322 261 L 320 262 L 318 262 Q 315 263 316 260 Q 321 261 322 259 L 321 256 L 317 257 L 318 255 Q 323 257 321 251 L 315 251 L 321 250 Q 323 245 316 247 L 314 245 L 316 245 Q 323 247 321 242 L 315 241 L 316 239 L 321 240 L 321 235 L 317 234 Q 312 235 314 231 L 320 233 L 321 228 L 320 226 L 321 222 Q 320 219 314 220 L 314 219 L 320 219 L 320 216 L 317 216 L 320 214 L 321 215 L 321 211 L 316 211 L 315 210 L 317 210 Q 323 212 321 206 L 314 206 L 319 204 L 321 205 L 321 202 Q 316 203 313 201 L 321 200 L 321 198 L 313 198 L 314 195 L 321 197 L 321 195 L 319 193 L 317 193 Q 313 194 314 192 L 316 192 Q 320 194 319 190 L 320 188 L 317 189 Q 313 190 314 187 L 320 186 L 315 184 Q 312 185 313 182 L 321 183 L 322 180 L 314 179 L 313 177 L 321 177 L 321 173 L 312 172 L 310 171 L 315 170 L 317 170 L 319 171 L 321 171 L 322 167 L 320 168 Q 318 166 314 167 L 313 165 L 321 166 L 322 164 L 314 161 L 318 160 L 321 161 L 322 160 Q 324 153 321 151 L 316 152 L 316 150 L 321 150 L 322 147 Q 321 144 320 146 Q 317 147 318 144 L 322 143 L 321 140 L 316 141 L 316 139 L 321 139 L 322 135 L 322 131 L 321 133 L 314 133 L 313 131 L 317 131 L 310 127 L 305 129 L 312 130 Q 311 132 310 130 L 308 131 L 306 131 Q 301 132 303 128 Q 299 129 298 126 L 290 126 L 280 124 Z M 132 125 L 130 128 L 133 129 L 133 125 L 132 125 Z M 150 125 Q 149 128 152 127 L 151 131 Q 154 136 156 131 Q 157 128 155 129 L 153 127 L 150 125 Z M 169 126 L 161 130 L 158 132 L 152 142 Q 150 153 155 159 Q 160 165 168 167 L 179 166 L 186 161 L 191 151 L 191 142 L 185 132 L 178 127 L 169 126 Z M 197 126 L 195 128 L 197 128 L 198 129 L 197 126 Z M 316 126 L 314 128 L 317 128 Q 318 125 316 126 Z M 138 127 L 137 131 L 140 132 L 142 134 L 140 130 Q 141 126 138 127 Z M 118 128 L 112 131 L 131 138 Q 138 144 142 154 L 147 172 Q 152 174 161 173 L 163 173 L 168 174 L 185 173 L 187 173 L 195 171 L 195 163 L 201 147 Q 210 133 229 130 L 228 128 L 218 128 L 216 128 Q 207 128 203 132 L 197 139 Q 198 141 196 140 L 193 144 L 194 146 Q 194 156 189 161 L 184 166 L 182 166 Q 180 169 179 167 L 176 169 Q 163 170 157 164 L 150 155 L 149 145 L 146 140 L 134 130 L 127 128 L 118 128 Z M 147 128 L 145 136 L 147 139 Q 146 134 149 133 L 147 128 Z M 198 129 L 198 133 L 195 134 L 193 134 L 194 141 L 200 133 Q 202 134 201 131 L 198 129 Z M 223 132 L 221 134 L 224 139 L 225 139 L 223 132 Z M 216 136 L 213 139 L 215 139 L 216 142 L 219 141 L 216 136 Z M 254 137 Q 253 140 256 139 Q 257 136 254 137 Z M 249 138 Q 247 141 250 140 L 249 138 Z M 126 140 L 126 142 L 130 144 L 129 147 L 130 148 L 132 147 Q 136 148 135 154 L 135 156 L 136 160 L 140 157 L 133 146 L 126 140 Z M 222 140 L 224 148 L 222 149 Q 218 148 219 143 L 217 147 Q 220 148 218 150 L 221 150 L 222 153 L 226 152 L 225 142 L 222 140 Z M 242 141 L 242 143 L 244 142 L 242 141 Z M 208 143 Q 207 146 210 145 Q 211 142 208 143 Z M 85 146 L 85 157 L 88 151 L 86 150 L 85 146 Z M 206 146 L 201 152 Q 202 158 198 160 L 199 162 L 199 160 L 214 153 L 216 159 Q 217 161 214 160 L 215 162 L 222 159 L 220 153 Q 217 154 218 151 L 214 147 Q 207 149 206 146 Z M 256 146 L 255 148 L 253 149 L 256 150 L 256 146 Z M 129 149 L 128 150 L 125 150 L 125 154 L 124 154 L 122 154 L 119 152 L 116 154 Q 120 155 118 161 L 121 160 L 131 162 L 134 165 L 134 161 Q 128 162 125 159 L 123 157 Q 124 154 128 155 L 129 154 L 132 157 L 133 157 L 132 155 L 129 153 L 129 149 Z M 92 156 L 89 162 L 92 163 L 91 162 L 93 159 L 92 156 Z M 229 156 L 227 159 L 228 162 Q 225 160 219 161 L 217 164 L 221 164 L 224 166 L 225 171 L 223 170 L 209 176 L 206 178 L 204 181 L 204 182 L 210 180 L 220 182 L 222 186 Q 223 188 217 187 Q 215 190 214 188 L 212 189 Q 206 191 205 198 L 206 199 L 212 195 L 219 194 L 225 201 L 226 205 L 226 204 L 229 202 L 229 206 Q 225 205 226 209 L 230 208 L 231 210 L 233 208 L 234 199 L 237 198 L 243 199 L 246 203 L 242 200 Q 235 198 237 203 L 241 202 Q 244 201 242 206 L 245 204 L 246 207 L 245 210 L 246 214 L 246 215 L 248 215 L 247 210 L 250 210 L 247 206 L 249 206 L 247 201 L 242 196 Q 236 195 235 198 L 233 198 L 234 195 L 239 191 Q 246 190 250 193 L 254 197 L 251 191 L 240 185 L 238 183 Q 234 181 238 179 L 253 183 L 255 187 L 254 189 L 252 187 L 251 187 L 251 189 L 255 194 L 256 194 L 256 183 L 254 180 Q 251 181 252 179 L 243 172 L 241 173 L 235 172 L 236 166 L 243 163 L 244 160 Q 235 158 232 164 L 229 156 Z M 113 157 L 111 164 L 103 160 Q 100 159 101 162 L 105 163 L 109 169 Q 110 172 108 173 L 103 171 L 91 174 L 86 180 L 87 185 L 98 181 L 103 184 L 101 186 L 93 188 L 92 190 L 94 189 Q 100 187 102 190 Q 104 189 103 192 L 105 193 L 104 194 L 95 195 L 92 197 L 86 206 Q 87 208 89 206 Q 91 207 90 205 L 96 199 L 98 199 L 100 199 L 107 202 L 106 206 L 104 206 L 105 210 L 107 211 Q 106 206 109 207 L 110 211 L 112 208 L 113 208 L 113 212 L 111 211 L 110 213 L 113 215 Q 112 217 111 215 L 110 237 L 112 236 Q 111 233 114 234 Q 116 235 114 237 Q 113 239 116 238 L 117 226 L 113 228 Q 112 225 115 226 L 115 223 L 115 221 L 113 220 L 112 218 Q 114 215 115 218 Q 114 221 117 220 L 118 222 L 118 211 L 117 211 Q 114 212 115 209 Q 116 206 118 208 L 119 206 L 118 206 L 115 205 Q 116 202 113 203 L 108 195 L 108 187 L 107 186 L 109 177 Q 110 173 115 174 L 117 177 L 119 187 L 124 185 L 134 187 L 136 189 L 137 189 L 136 187 Q 131 181 122 181 Q 119 180 120 176 L 130 178 L 132 178 L 136 180 L 136 179 Q 130 174 122 172 L 119 173 Q 117 175 116 173 L 118 168 L 116 167 L 115 165 L 115 158 L 113 157 Z M 97 158 L 97 160 Q 99 163 100 160 Q 101 157 97 158 Z M 108 158 L 108 160 L 110 159 L 108 158 Z M 86 159 L 85 165 L 88 164 Q 89 159 86 159 Z M 205 159 L 208 163 Q 211 164 209 160 L 205 159 Z M 142 161 L 138 166 L 136 165 L 134 169 L 141 167 L 143 171 L 144 171 L 142 161 Z M 201 161 L 203 165 Q 206 166 205 164 L 201 161 Z M 97 163 L 94 166 Q 91 165 92 168 L 95 169 L 95 168 L 99 165 L 97 163 Z M 119 163 L 118 166 L 119 167 Q 120 164 125 165 L 125 163 L 119 163 Z M 210 163 L 210 165 L 207 167 Q 206 170 209 169 L 212 165 Q 213 162 210 163 Z M 247 163 Q 246 166 249 165 Q 250 162 247 163 Z M 217 164 L 215 169 L 216 171 L 220 169 Q 223 170 222 167 L 217 164 Z M 242 164 L 243 169 L 244 165 L 242 164 Z M 103 165 L 101 169 Q 100 171 103 170 L 105 170 L 106 170 L 103 165 Z M 255 165 L 254 166 Q 251 165 252 168 L 256 167 Q 257 164 255 165 Z M 127 166 L 125 168 L 127 171 L 129 170 L 127 166 Z M 199 166 Q 198 170 201 169 Q 202 165 199 166 Z M 90 168 L 85 172 L 86 173 L 89 171 L 91 172 Q 94 173 93 171 L 90 168 Z M 121 168 L 119 170 L 121 171 L 121 168 Z M 197 168 Q 194 172 198 171 L 197 168 Z M 212 168 L 211 171 L 212 171 L 212 168 Z M 238 168 L 237 171 L 238 171 L 238 168 Z M 205 169 Q 200 171 204 173 L 206 172 L 205 169 Z M 132 170 L 130 173 L 134 174 L 139 180 L 139 175 L 134 173 L 132 170 Z M 145 171 L 143 173 Q 140 172 141 175 L 146 176 L 145 171 Z M 211 171 L 209 173 L 211 173 L 211 171 Z M 247 171 Q 246 173 250 173 Q 251 170 247 171 Z M 255 173 L 255 179 L 256 179 Q 257 174 255 173 Z M 148 174 L 148 180 L 146 182 L 145 190 L 145 192 L 143 196 L 140 212 L 137 216 L 133 227 L 131 226 L 129 229 Q 130 231 127 230 Q 118 240 114 257 L 115 260 Q 121 256 122 248 Q 124 243 130 243 L 134 239 Q 137 236 136 230 L 140 226 L 141 221 L 141 217 L 140 219 L 138 220 L 142 210 L 144 209 L 142 215 L 146 212 L 145 208 L 149 205 L 151 202 L 152 191 L 157 175 Q 151 176 148 174 Z M 191 174 L 193 186 L 196 187 L 197 191 L 198 191 L 193 176 Q 194 173 191 174 Z M 175 175 L 162 178 L 168 182 L 167 182 L 168 185 L 166 184 L 165 186 Q 168 185 167 188 L 165 189 L 161 187 Q 158 188 159 186 L 157 187 L 158 198 L 164 209 L 174 214 L 177 213 Q 185 208 187 197 L 187 185 L 183 189 L 180 189 L 178 189 Q 180 196 176 195 L 174 183 L 180 178 Q 176 178 175 175 Z M 188 175 L 187 178 L 192 194 L 193 194 L 193 190 L 188 175 Z M 204 175 L 202 176 L 201 178 Q 204 179 205 177 Q 206 174 204 175 Z M 112 177 L 110 184 L 112 194 L 111 196 L 114 200 L 115 197 L 115 183 L 112 177 Z M 161 179 L 158 182 L 159 183 L 165 182 L 161 179 Z M 183 179 L 181 180 L 180 182 L 182 181 L 185 182 L 185 180 L 183 179 Z M 134 181 L 133 183 Q 136 182 138 185 Q 140 186 139 183 L 134 181 Z M 199 181 L 199 184 Q 202 183 199 181 Z M 209 182 Q 207 185 206 183 L 199 186 L 200 188 L 205 190 L 218 185 L 217 183 L 211 182 L 209 182 Z M 243 182 L 242 184 L 245 185 Q 246 187 247 185 L 243 182 Z M 93 184 L 86 188 L 87 192 L 88 190 L 96 185 L 93 184 Z M 119 188 L 117 198 L 115 202 L 116 203 L 119 202 L 120 205 L 120 202 L 122 202 L 121 197 L 127 195 L 129 195 L 134 195 L 134 197 L 136 197 L 140 201 L 137 196 Q 133 190 125 188 L 122 189 L 119 188 Z M 90 190 L 89 192 L 91 191 L 90 190 Z M 199 191 L 198 194 L 199 194 L 199 191 Z M 93 192 L 87 195 L 86 198 L 87 200 L 90 195 L 96 193 L 93 192 Z M 139 192 L 139 196 Q 142 197 141 193 L 139 192 Z M 242 193 Q 241 196 244 195 Q 245 192 242 193 Z M 194 194 L 193 200 Q 196 201 195 206 L 199 208 L 201 210 L 199 201 L 197 202 L 194 194 Z M 197 194 L 196 197 L 197 197 L 197 194 Z M 200 194 L 201 203 L 209 221 L 206 222 L 207 227 L 213 231 L 210 226 L 211 223 L 213 224 L 216 230 Q 215 233 218 232 L 220 234 L 218 231 Q 217 228 221 229 L 225 238 L 227 239 L 227 234 L 222 228 Q 220 222 213 223 L 205 207 L 206 205 Q 207 202 205 203 L 202 201 L 200 194 Z M 249 195 L 249 201 L 251 200 L 249 195 Z M 216 197 L 213 203 L 216 205 L 215 203 L 217 200 L 216 197 Z M 220 197 L 219 200 L 220 200 L 220 197 Z M 255 197 L 254 199 L 256 200 L 255 197 Z M 125 198 L 124 201 L 125 201 L 125 198 Z M 132 199 L 129 207 L 131 209 L 132 204 L 132 202 L 132 199 Z M 208 199 L 206 201 Q 208 204 210 200 L 208 199 Z M 251 201 L 252 206 Q 255 207 254 204 L 251 201 Z M 97 202 L 93 205 Q 92 207 95 206 L 95 208 Q 98 209 97 205 L 100 205 L 101 206 Q 103 200 97 202 Z M 136 202 L 138 205 Q 140 206 139 204 L 136 202 Z M 255 203 L 256 206 L 257 204 L 255 203 Z M 126 204 L 126 206 L 128 205 L 126 204 Z M 223 206 L 221 208 Q 220 211 223 210 L 223 206 Z M 235 207 L 236 210 L 237 208 L 235 207 Z M 91 208 L 89 210 Q 92 212 92 217 L 93 213 L 91 208 Z M 121 209 L 120 212 L 121 216 L 123 212 Q 124 208 121 209 Z M 211 209 Q 208 213 212 212 L 211 209 Z M 98 210 L 96 212 L 98 218 L 99 211 L 98 210 Z M 103 210 L 101 214 L 103 215 L 103 210 Z M 202 210 L 200 212 Q 198 216 202 215 Q 203 217 204 215 L 202 210 Z M 230 210 L 226 212 L 227 218 L 226 224 L 230 226 L 233 225 L 232 224 L 233 212 L 230 210 Z M 243 210 L 241 212 L 243 212 L 243 210 Z M 219 211 L 218 214 L 219 214 L 219 211 Z M 237 211 Q 234 215 238 214 L 237 211 Z M 253 211 Q 252 214 256 213 Q 257 210 253 211 Z M 132 212 Q 133 216 130 218 L 131 219 L 135 214 L 132 212 Z M 166 212 L 162 221 L 163 224 L 161 224 L 163 230 L 175 234 Q 183 233 188 229 L 190 225 Q 192 219 189 220 L 187 223 L 183 224 L 182 219 Q 184 213 180 214 Q 178 217 177 215 L 175 216 L 166 212 Z M 149 213 L 145 215 Q 143 220 147 219 Q 146 216 149 215 L 149 213 Z M 152 213 L 151 217 L 152 217 L 152 213 Z M 189 213 L 189 214 L 191 214 L 189 213 Z M 196 213 L 197 215 Q 198 212 196 213 Z M 96 214 L 95 217 L 96 217 L 96 214 Z M 157 214 L 147 227 L 148 229 L 154 218 L 158 216 Q 160 217 159 215 L 157 214 Z M 214 214 L 213 217 L 216 218 L 214 214 Z M 223 214 L 220 215 L 221 218 L 224 217 Q 225 213 223 214 Z M 102 216 L 103 223 L 104 223 Q 106 215 102 216 Z M 126 216 L 125 225 L 124 226 L 126 228 L 127 220 L 126 216 Z M 250 216 L 254 221 Q 257 222 256 220 Q 254 215 253 218 L 250 216 Z M 236 217 L 235 221 L 237 220 L 236 217 Z M 87 218 Q 85 221 88 220 L 87 218 Z M 120 218 L 121 224 L 121 220 L 123 220 L 120 218 Z M 202 218 L 200 220 L 203 227 L 204 227 L 203 220 L 202 218 Z M 91 219 L 94 226 L 98 224 L 97 221 L 93 221 Q 94 218 91 219 Z M 156 220 L 155 225 L 156 225 L 156 220 Z M 239 220 L 236 223 L 239 223 L 239 220 Z M 224 221 L 221 224 L 224 226 L 224 221 Z M 86 222 L 86 228 L 90 230 L 90 227 Q 87 228 88 226 L 88 224 Q 89 221 86 222 Z M 145 222 L 142 228 L 140 229 L 138 231 Q 139 237 136 240 Q 132 246 124 247 L 120 258 L 117 259 L 117 262 L 109 274 L 107 288 L 107 290 L 102 309 L 102 319 L 99 336 L 100 340 L 100 352 L 99 353 L 100 363 L 102 368 L 101 373 L 102 380 L 105 387 L 109 390 L 114 392 Q 123 393 127 388 Q 130 387 129 390 L 120 394 L 118 394 L 112 404 L 113 406 L 112 409 L 115 432 L 116 427 Q 118 424 119 427 L 117 432 Q 116 436 118 438 Q 119 442 117 444 L 119 451 L 116 471 L 114 473 L 112 480 L 112 492 L 110 495 Q 111 497 108 496 L 106 503 L 106 508 L 98 516 L 98 518 Q 97 521 95 518 L 103 508 Q 103 497 109 493 Q 107 476 114 469 L 113 467 L 116 458 L 115 440 L 114 449 L 113 450 L 114 452 L 111 466 Q 113 471 108 469 L 111 453 L 111 441 L 112 440 L 111 438 L 112 436 L 111 422 L 109 414 L 110 405 Q 109 402 108 404 L 106 403 L 93 404 L 93 406 L 92 409 L 92 435 L 91 436 L 92 438 L 91 464 L 90 465 L 90 473 L 91 474 L 90 479 L 91 482 Q 90 485 93 484 L 96 490 L 96 500 L 98 500 L 100 496 L 103 482 L 106 474 L 109 475 L 104 487 L 104 491 L 101 500 Q 99 504 98 501 L 96 502 Q 90 506 88 515 L 89 517 L 86 522 L 82 525 L 72 527 Q 67 529 68 536 Q 67 539 62 538 L 60 545 L 69 542 L 70 540 Q 71 537 75 537 L 80 545 L 86 545 Q 89 542 96 541 Q 99 539 97 534 L 95 534 L 90 539 Q 87 540 88 538 L 96 531 L 98 531 Q 102 533 100 540 L 96 543 Q 90 542 92 546 Q 94 544 101 545 Q 104 544 103 540 L 108 540 L 108 542 L 114 544 L 116 543 L 118 543 Q 123 545 122 541 L 120 542 L 114 542 L 108 538 Q 105 537 107 536 Q 109 530 104 532 L 102 529 L 108 530 Q 111 531 110 537 L 114 540 Q 118 541 120 539 L 142 543 L 144 540 L 145 533 L 149 532 L 161 532 L 161 534 Q 159 538 153 537 L 154 541 L 152 542 L 159 545 L 167 545 L 169 545 L 187 544 L 196 542 L 197 539 L 194 538 L 189 540 L 185 539 L 176 541 L 162 536 L 165 530 L 169 527 Q 171 526 169 525 Q 170 522 168 523 L 166 521 L 163 519 L 163 526 L 164 527 L 164 528 L 161 525 Q 160 520 162 519 L 159 513 L 157 512 Q 156 519 160 523 L 158 526 L 153 526 L 158 524 L 155 518 Q 154 512 157 510 L 150 495 Q 151 488 148 486 L 149 481 L 152 479 L 153 480 L 143 459 L 137 441 L 132 433 L 134 430 L 139 440 L 148 465 L 157 483 L 160 486 L 166 500 L 172 508 L 176 511 Q 173 500 166 493 Q 165 489 168 490 Q 170 497 175 502 L 180 514 L 183 515 L 184 516 L 187 513 L 186 505 L 189 503 L 188 505 L 190 510 Q 190 515 186 517 L 190 519 L 194 519 L 203 512 L 203 508 L 200 501 L 203 499 L 206 508 Q 207 512 204 514 L 196 520 L 197 521 L 203 518 L 205 520 L 202 528 L 202 537 L 208 541 L 221 544 L 226 542 L 231 544 Q 233 545 232 542 L 224 539 L 222 540 L 219 538 Q 216 537 217 541 L 216 541 L 214 538 L 211 537 L 209 538 L 205 534 L 205 529 L 206 526 Q 205 523 209 524 L 208 527 Q 207 533 209 535 L 214 536 L 213 535 L 215 532 Q 218 531 217 534 L 222 536 L 224 536 L 235 540 Q 241 538 239 544 L 242 545 L 254 546 Q 255 542 250 544 L 249 542 L 262 542 L 262 544 L 264 544 Q 263 541 266 542 L 264 540 Q 263 536 269 538 L 271 538 L 274 538 L 273 535 L 265 533 L 267 530 Q 271 528 270 532 L 276 536 L 276 539 L 282 539 L 281 535 L 287 539 Q 292 541 291 537 L 286 532 L 281 533 L 275 531 L 270 526 L 262 521 L 264 518 L 272 523 L 274 528 L 280 530 L 287 530 L 293 534 L 294 537 L 292 541 L 295 542 Q 298 543 299 541 L 298 537 Q 302 536 303 540 Q 304 544 301 545 Q 303 548 310 546 L 312 548 L 319 547 L 321 550 Q 327 551 326 549 L 323 547 L 321 542 L 315 544 Q 312 543 313 538 L 308 532 L 300 535 L 301 532 L 299 530 L 296 530 L 297 528 L 295 525 Q 296 522 293 523 L 293 519 Q 289 515 279 517 L 274 511 L 272 508 L 268 507 L 265 512 L 276 516 Q 278 517 278 521 L 284 525 L 287 525 L 287 526 L 279 525 L 275 519 L 272 518 L 270 519 L 263 515 L 258 521 L 262 522 L 264 526 Q 265 529 263 530 L 261 530 L 261 524 L 260 524 Q 258 527 257 523 L 252 527 L 256 528 Q 255 533 259 536 L 258 539 L 253 539 L 244 535 Q 238 533 239 537 Q 238 539 237 537 L 233 538 L 225 534 L 218 523 L 216 522 Q 215 526 217 528 Q 218 531 216 530 L 213 528 L 212 523 L 211 523 L 209 522 L 208 520 L 213 521 L 212 516 L 213 510 L 217 508 L 218 509 Q 217 506 220 507 Q 222 506 221 503 L 217 500 Q 216 497 220 498 L 223 501 L 221 498 Q 222 495 219 496 L 217 493 L 218 491 Q 217 488 220 489 L 225 500 L 229 502 L 231 507 L 230 512 L 238 511 L 242 508 L 243 505 L 238 504 L 236 504 L 234 502 L 233 502 Q 227 498 226 490 L 223 463 L 222 462 L 222 450 L 219 439 L 218 426 L 213 412 L 214 410 L 211 402 L 211 398 L 208 395 L 203 385 L 194 377 Q 190 378 191 375 L 195 375 L 201 379 Q 203 378 202 381 L 205 382 L 213 397 L 216 408 L 216 413 L 221 426 L 221 430 L 221 432 L 222 433 L 222 441 L 224 446 L 224 455 L 224 457 L 230 495 L 236 501 L 242 500 L 243 503 L 246 504 L 249 498 L 247 497 L 245 498 L 239 493 L 236 484 L 231 448 Q 229 446 232 445 L 234 450 Q 234 473 241 491 L 245 494 L 252 495 L 253 492 L 251 488 L 251 482 L 243 471 Q 244 468 242 469 L 238 465 L 234 447 L 234 441 L 231 428 L 231 419 L 228 406 L 228 395 L 226 389 L 226 384 L 223 377 L 220 375 L 222 384 L 223 387 Q 225 392 221 391 L 215 370 L 212 368 Q 207 369 208 366 L 202 364 L 190 367 L 187 366 L 176 370 L 173 369 L 174 373 L 171 375 L 169 373 L 161 373 L 154 370 L 151 367 L 150 368 L 145 367 Q 140 366 141 369 L 151 371 L 150 372 Q 144 371 142 374 L 146 374 L 148 374 L 150 373 L 152 373 L 155 374 L 156 378 L 162 378 L 176 385 L 187 398 L 188 404 L 202 430 L 202 432 L 187 407 L 184 397 Q 174 382 153 379 L 154 377 L 145 376 L 144 380 Q 147 384 155 383 L 160 387 Q 162 386 161 389 L 163 389 L 163 391 L 165 391 L 170 400 Q 171 404 168 403 L 162 393 L 159 389 L 148 385 L 143 388 L 138 389 L 131 388 L 123 383 L 114 373 L 110 350 Q 108 343 112 344 L 114 353 L 115 367 L 121 378 Q 126 384 137 386 L 142 385 L 137 377 L 132 359 L 131 336 L 130 335 L 130 324 L 131 323 L 130 321 L 130 319 Q 132 313 129 312 L 131 301 L 131 292 L 132 291 L 131 289 L 135 270 L 135 268 L 140 248 L 141 238 L 146 225 L 145 222 Z M 246 222 Q 243 226 236 225 L 234 231 Q 232 239 236 243 L 238 236 L 237 234 L 238 230 L 251 232 L 256 236 L 256 223 L 246 222 Z M 107 223 L 105 224 L 103 224 L 96 226 Q 89 230 86 238 L 86 252 L 88 256 Q 90 259 95 258 L 94 264 L 96 264 Q 95 261 98 262 L 99 265 L 102 263 L 102 266 L 108 263 L 107 262 L 108 260 L 106 257 L 104 258 L 101 257 L 95 250 L 99 239 L 107 233 L 107 223 Z M 193 223 L 192 227 L 193 227 L 193 223 Z M 153 224 Q 153 237 161 245 Q 160 247 163 246 L 166 252 L 165 254 Q 155 247 152 234 L 151 234 L 151 240 L 153 247 L 157 249 L 155 252 L 157 251 L 157 253 L 160 254 L 161 257 L 164 258 L 166 261 L 162 260 L 160 260 Q 161 262 159 261 L 152 253 L 150 244 L 149 244 L 149 251 L 153 265 L 157 262 L 168 264 L 168 253 L 169 251 Q 170 248 175 249 L 177 249 Q 179 252 179 259 L 190 252 L 195 245 L 199 235 L 198 229 L 194 239 L 191 243 Q 188 242 189 245 L 183 249 L 180 249 L 187 244 L 190 240 L 190 237 L 181 243 L 177 243 L 188 237 L 192 230 L 192 227 L 190 230 L 180 235 Q 165 237 159 230 L 158 232 Q 162 239 172 241 L 173 243 Q 164 242 159 237 Q 160 234 158 235 L 153 224 Z M 121 227 L 119 232 L 119 234 L 120 236 L 123 232 Q 124 228 121 227 Z M 226 227 L 229 232 L 231 231 L 232 228 L 230 229 L 226 227 Z M 147 229 L 146 233 L 147 233 L 147 229 Z M 206 229 L 212 249 Q 213 253 209 251 L 213 265 L 216 288 L 216 290 L 219 303 L 220 321 L 222 329 L 222 339 L 223 340 L 223 351 L 224 352 L 223 354 L 224 359 L 222 370 L 220 369 L 221 365 L 221 363 L 220 335 L 218 340 L 217 337 L 215 340 L 212 337 Q 213 334 211 335 L 211 334 L 211 331 L 209 332 L 208 330 L 211 324 L 211 322 L 202 335 L 205 333 L 208 334 L 209 338 L 207 336 L 201 337 L 206 339 L 210 348 L 210 350 L 209 354 L 210 356 L 209 364 L 216 367 L 219 373 L 220 373 Q 219 370 222 371 L 225 375 L 228 382 L 230 393 L 230 405 L 235 434 L 235 440 L 236 441 L 235 443 L 237 446 Q 236 452 239 455 Q 237 461 242 459 Q 243 472 252 478 L 253 486 L 255 487 L 257 483 L 251 472 L 250 459 L 249 458 L 249 447 L 248 446 L 249 443 L 249 441 L 249 438 L 236 419 Q 235 415 239 417 L 239 421 Q 250 431 258 446 L 262 455 Q 261 460 263 462 L 262 478 Q 258 482 258 490 L 249 505 L 239 515 Q 233 516 231 520 L 222 522 L 224 529 L 232 534 Q 237 536 239 533 Q 242 534 241 532 L 244 530 L 245 528 L 248 526 L 261 513 L 269 495 L 269 490 L 271 484 L 271 463 L 262 442 L 254 430 Q 251 431 252 429 L 243 421 L 241 418 L 248 421 L 247 420 L 248 416 L 247 414 L 247 383 L 247 381 L 247 373 L 248 372 L 247 369 L 247 367 L 248 365 L 247 362 L 248 360 L 248 337 L 247 336 L 247 326 L 246 325 L 246 312 L 244 310 L 243 305 L 242 289 L 239 273 L 239 271 L 236 263 Q 237 258 235 259 L 228 253 L 227 247 Q 224 243 219 243 Q 216 242 218 241 L 218 238 L 216 234 Q 208 235 206 229 Z M 146 233 L 145 236 L 146 236 L 146 233 Z M 204 233 L 203 236 L 204 236 L 204 233 Z M 229 233 L 230 237 Q 233 238 232 235 L 229 233 Z M 41 235 L 40 236 L 28 236 L 26 238 L 27 240 Q 26 242 29 241 L 28 274 L 27 275 Q 26 280 30 282 L 47 280 L 52 274 L 53 269 L 52 265 L 53 263 Q 52 256 48 254 Q 49 251 46 252 Q 49 248 48 239 L 41 235 Z M 145 236 L 144 239 L 145 239 L 145 236 Z M 205 236 L 205 241 L 206 241 L 205 236 Z M 222 237 L 222 241 L 229 244 L 231 248 L 232 254 L 234 255 L 234 247 L 229 239 L 225 241 L 222 237 Z M 114 238 Q 112 241 109 240 L 110 244 L 114 241 L 114 238 Z M 201 238 L 200 243 L 202 242 L 201 238 Z M 144 240 L 143 243 L 144 243 L 144 240 Z M 246 240 Q 244 243 247 242 L 246 240 Z M 106 241 L 105 247 L 107 246 L 106 241 Z M 207 241 L 206 244 L 207 244 L 207 241 Z M 102 242 L 101 244 L 103 245 L 102 242 Z M 143 243 L 142 249 L 143 249 L 143 243 Z M 203 243 L 201 256 L 199 261 Q 198 265 202 266 L 204 258 L 204 246 L 203 243 Z M 115 244 L 113 247 L 110 248 L 111 254 L 115 246 L 115 244 Z M 146 244 L 144 250 L 146 253 Q 145 257 147 259 L 147 267 L 149 267 L 150 281 L 155 293 L 159 298 L 165 301 L 170 301 L 175 303 L 178 302 Q 183 300 182 304 L 177 305 Q 170 306 168 303 L 163 304 L 156 299 Q 150 291 147 278 L 147 268 L 145 267 L 144 255 L 143 255 L 143 267 L 144 268 L 145 283 L 148 300 L 156 318 L 161 324 L 167 327 L 169 327 L 170 330 L 172 331 Q 179 330 183 333 L 192 333 L 195 336 L 200 333 Q 205 329 207 321 Q 207 312 210 307 L 211 294 L 212 291 L 212 285 L 207 301 L 208 303 L 201 324 L 196 331 L 188 331 L 192 329 L 196 325 L 200 318 L 200 314 L 205 306 L 204 304 L 205 302 L 205 297 L 201 307 L 194 319 Q 195 321 191 320 L 191 322 Q 190 325 188 322 L 193 316 L 199 302 L 206 279 L 206 274 L 206 272 L 207 270 L 207 264 L 199 288 L 198 295 L 191 307 Q 192 309 190 308 L 188 311 L 176 317 Q 169 319 168 316 Q 165 317 166 314 L 175 316 L 182 312 L 189 304 L 198 283 L 198 278 L 193 289 Q 188 296 179 299 Q 164 300 159 293 L 161 289 L 162 293 L 171 297 Q 180 299 184 295 Q 193 289 196 277 Q 195 274 198 275 L 199 278 L 200 275 Q 202 269 198 270 L 198 267 Q 194 279 187 287 L 183 290 L 181 290 L 193 275 L 193 272 L 189 273 L 187 273 L 180 274 L 178 276 L 178 293 L 170 293 L 167 291 L 167 282 L 163 281 L 164 285 Q 165 287 163 286 L 160 283 Q 161 280 158 281 L 155 274 L 159 275 L 161 280 L 163 277 L 167 280 L 167 275 L 161 273 L 156 273 L 150 265 L 146 247 Q 148 245 146 244 Z M 208 244 L 207 247 L 208 247 L 208 244 Z M 197 247 L 194 251 Q 188 257 180 260 L 178 260 L 178 264 L 183 265 L 189 262 L 194 256 L 197 249 L 197 247 Z M 209 247 L 208 251 L 209 251 L 209 247 Z M 100 248 L 102 252 L 102 251 L 102 249 L 100 248 Z M 142 249 L 141 252 L 142 252 L 142 249 Z M 171 250 L 171 259 L 171 261 L 170 265 L 168 266 L 165 265 L 156 265 L 156 270 L 160 272 L 162 271 L 170 272 L 170 288 L 171 290 L 176 291 L 175 290 L 175 274 L 176 271 L 181 272 L 183 271 L 190 271 L 190 266 L 177 265 L 175 264 L 175 251 L 171 250 Z M 237 250 L 238 257 L 236 258 Q 240 262 247 261 L 246 264 Q 245 268 248 267 L 251 263 L 253 264 L 257 261 L 256 257 L 257 253 L 250 256 L 245 255 L 237 250 Z M 245 250 L 245 252 L 247 251 L 245 250 Z M 252 251 Q 251 254 254 253 Q 255 250 252 251 Z M 141 253 L 140 258 L 141 258 L 141 253 Z M 198 254 L 193 263 Q 194 265 192 264 L 192 263 L 190 262 Q 189 267 193 265 L 194 272 L 198 257 L 198 254 Z M 111 256 L 110 259 L 111 259 L 111 256 Z M 158 256 L 159 258 Q 160 255 158 256 Z M 140 258 L 139 262 L 140 262 L 140 258 Z M 87 262 Q 84 267 89 265 L 91 269 L 93 268 L 92 264 L 87 262 Z M 139 262 L 137 267 L 138 270 L 139 267 L 139 262 Z M 243 265 L 241 269 L 244 270 L 245 273 L 246 273 Q 247 268 244 269 L 243 265 Z M 107 266 L 105 267 L 103 269 Q 105 274 102 276 Q 103 278 100 277 L 102 280 L 107 271 L 107 266 Z M 201 266 L 200 269 L 201 269 L 201 266 Z M 100 267 L 99 268 Q 96 267 97 271 Q 96 273 92 272 L 93 275 L 93 276 L 97 276 Q 96 271 101 270 Q 103 271 102 268 L 100 267 Z M 141 267 L 139 272 Q 138 276 140 278 Q 142 284 139 286 L 142 308 L 148 321 L 146 321 Q 138 312 138 296 L 136 301 L 137 313 L 139 319 Q 141 320 139 321 Q 134 318 135 310 Q 132 314 133 321 L 140 324 L 150 325 L 162 329 L 163 329 L 160 326 Q 152 320 149 311 L 149 308 L 146 302 L 143 282 L 143 280 L 142 270 L 141 267 Z M 254 268 L 250 270 L 252 270 L 253 272 L 254 270 L 254 268 Z M 137 271 L 136 275 L 137 275 L 137 271 Z M 256 272 L 254 276 L 256 277 L 256 272 Z M 86 274 L 86 279 L 90 276 L 90 274 L 86 274 Z M 246 274 L 248 277 Q 250 278 249 276 L 246 274 Z M 136 275 L 135 279 L 136 279 L 136 275 Z M 92 277 L 90 284 L 90 285 L 86 285 L 87 293 L 87 290 L 91 289 Q 95 291 92 293 L 93 296 L 97 289 L 101 291 L 103 291 L 103 286 L 100 285 Q 101 280 98 281 Q 99 286 97 287 Q 93 288 92 286 L 93 281 L 92 277 Z M 251 277 Q 248 278 250 280 L 249 285 Q 250 287 246 286 L 245 281 L 244 281 L 245 290 Q 250 291 253 288 L 255 288 L 256 286 Q 257 281 253 283 Q 250 282 251 277 Z M 135 280 L 134 283 L 135 283 L 135 280 Z M 208 286 L 207 289 L 208 289 L 208 286 Z M 51 287 L 52 289 Q 53 286 51 287 Z M 266 287 L 265 288 Q 257 287 258 290 L 262 289 L 265 290 L 270 289 Q 269 286 266 287 Z M 11 288 Q 10 292 13 291 Q 14 287 11 288 Z M 76 290 L 75 291 Q 68 289 70 296 L 72 295 L 81 295 L 82 296 Q 84 295 83 292 L 82 290 L 79 291 L 76 290 Z M 207 290 L 206 293 L 207 293 L 207 290 Z M 253 291 Q 251 294 254 293 L 253 291 Z M 256 291 L 255 295 L 256 295 L 256 291 Z M 325 291 L 325 293 L 331 293 L 325 291 Z M 246 292 L 247 299 L 256 302 L 254 298 Q 251 293 246 292 Z M 260 292 L 258 294 Q 257 297 260 298 L 264 297 L 269 298 L 270 295 L 270 293 L 260 292 Z M 101 293 L 95 295 L 85 309 L 86 310 Q 89 304 99 304 L 101 304 L 103 296 Q 104 292 101 293 Z M 86 294 L 84 298 L 87 298 L 86 294 Z M 206 294 L 205 297 L 206 297 L 206 294 Z M 325 295 L 325 299 L 334 299 L 333 297 L 333 295 L 325 295 Z M 75 297 L 70 298 L 70 325 L 71 327 L 71 329 L 70 332 L 71 335 L 70 337 Q 69 341 71 343 L 70 345 L 71 346 L 71 383 L 74 386 L 75 385 L 81 385 L 81 387 L 73 387 L 72 388 L 72 418 L 72 420 L 73 421 L 73 440 L 73 442 L 74 443 L 74 456 L 74 458 L 75 463 L 74 466 L 75 470 L 73 477 L 81 479 L 83 479 L 83 473 L 82 473 L 79 472 L 82 470 L 83 471 L 83 463 L 82 462 L 83 460 L 83 444 L 79 443 Q 78 440 83 441 Q 86 440 83 438 Q 78 437 77 439 L 74 435 L 77 436 Q 82 437 84 435 L 80 433 L 84 430 L 82 429 L 83 426 L 83 414 L 81 413 L 81 411 L 83 411 L 83 408 L 79 409 Q 76 408 79 406 Q 85 408 83 403 L 80 404 L 73 403 L 75 400 L 78 401 L 80 401 L 83 401 L 83 396 L 80 395 L 83 393 L 82 390 L 82 381 L 83 380 L 82 374 Q 77 375 76 373 L 77 371 L 82 372 L 82 357 L 79 356 Q 76 355 79 353 L 81 354 Q 83 355 82 352 L 76 351 Q 75 348 79 349 L 81 349 L 82 349 L 82 338 L 79 339 L 75 338 Q 74 335 78 336 L 81 337 L 79 334 L 81 334 L 81 333 L 81 331 L 82 328 L 82 302 L 83 301 L 82 298 L 76 298 L 75 297 Z M 89 298 L 87 301 L 89 300 L 89 298 Z M 11 299 L 11 320 L 10 321 L 12 328 L 12 317 L 13 316 L 13 300 L 11 299 Z M 214 300 L 213 303 L 214 303 L 214 300 Z M 258 300 L 258 320 L 257 321 L 258 324 L 258 340 L 257 341 L 258 342 L 258 348 L 263 349 Q 266 348 265 351 L 259 350 L 259 352 L 258 356 L 258 369 L 265 369 Q 266 372 262 371 L 259 372 L 259 373 L 263 373 L 263 375 Q 259 374 258 377 L 258 385 L 263 385 Q 264 389 259 387 L 259 390 L 261 389 Q 265 388 264 391 L 260 392 L 258 392 L 252 394 L 254 397 L 258 394 L 259 400 L 258 402 L 258 404 L 259 409 L 258 412 L 259 415 L 259 427 L 258 428 L 262 428 Q 265 430 262 431 L 260 430 L 259 433 L 262 434 L 264 439 L 265 434 L 265 426 L 264 425 L 265 420 L 265 418 L 266 416 L 266 390 L 267 389 L 267 356 L 268 355 L 269 301 Q 266 299 258 300 Z M 251 302 L 249 305 Q 248 308 252 306 L 253 309 L 255 306 L 251 302 Z M 213 303 L 210 313 L 211 316 L 213 309 L 213 303 Z M 100 305 Q 98 308 101 307 L 100 305 Z M 132 308 L 131 311 L 132 311 L 132 308 Z M 216 308 L 211 320 L 212 322 L 216 312 L 216 308 Z M 88 309 L 89 316 L 90 313 L 90 311 Q 91 308 88 309 Z M 99 309 L 89 317 L 90 318 Q 93 315 99 316 L 100 311 Q 101 308 99 309 Z M 254 312 L 252 315 L 255 316 Q 257 317 256 314 L 255 314 L 254 312 Z M 250 313 L 249 317 L 251 316 L 250 313 Z M 218 316 L 214 324 L 212 327 L 216 325 L 217 328 L 213 329 L 210 328 Q 209 331 213 330 L 216 337 L 216 333 Q 219 332 218 335 L 219 335 Q 220 330 218 329 Q 220 323 216 324 Q 215 320 218 321 L 218 316 Z M 95 317 L 95 320 L 97 321 Q 98 316 95 317 Z M 87 320 L 85 322 Q 84 324 87 323 L 85 327 L 86 330 L 90 327 L 88 323 L 89 321 L 87 320 Z M 255 321 L 252 324 L 255 325 L 255 321 Z M 97 323 L 95 324 L 87 333 L 86 335 L 98 329 Q 99 322 97 323 Z M 135 324 Q 134 327 137 326 Q 138 328 139 326 L 139 324 L 135 324 Z M 144 325 L 138 332 L 134 331 Q 130 330 132 336 L 144 340 L 144 341 L 133 339 L 134 356 Q 142 364 156 367 L 158 367 L 162 370 L 170 372 L 171 367 L 174 364 L 173 361 L 190 350 L 190 348 L 186 351 L 166 347 L 166 346 L 171 346 L 182 349 L 182 342 L 186 334 L 181 333 L 177 338 Q 176 341 179 340 L 181 339 L 180 342 L 169 340 L 171 337 L 174 338 L 175 334 Q 174 331 170 332 Q 170 337 166 339 L 163 339 L 157 336 L 159 331 L 159 329 L 155 329 L 155 332 L 152 336 L 143 334 L 141 332 Q 142 329 146 330 Q 147 326 144 325 Z M 251 325 L 250 329 L 252 328 L 251 325 Z M 149 327 Q 151 333 146 331 Q 145 335 150 333 Q 149 330 152 329 L 149 327 Z M 134 328 Q 133 331 136 330 Q 137 327 134 328 Z M 12 329 L 10 333 Q 9 335 12 334 L 12 329 Z M 165 330 L 161 331 L 160 334 L 163 337 Q 166 338 167 336 Q 168 331 165 330 Z M 97 332 L 96 335 L 97 335 L 97 332 Z M 255 333 L 253 334 L 251 338 Q 254 339 253 336 L 256 336 Q 257 332 255 333 Z M 90 335 L 88 337 L 89 340 Q 88 342 91 341 L 92 339 Q 93 336 90 337 L 90 335 Z M 189 335 L 192 340 L 191 342 L 192 346 L 193 343 L 192 337 L 189 335 Z M 198 336 L 195 337 L 196 339 L 200 337 L 198 336 Z M 185 338 L 185 341 L 187 340 Q 188 337 185 338 Z M 189 340 Q 186 341 187 345 L 184 347 L 188 348 L 190 343 L 189 340 Z M 256 341 L 253 344 Q 249 343 250 346 L 253 347 L 251 350 L 252 353 L 251 356 L 256 358 L 257 355 L 257 351 Q 254 349 255 346 L 257 346 L 256 341 Z M 12 342 L 10 344 L 11 347 L 10 349 Q 9 351 12 350 L 12 342 Z M 194 342 L 192 350 L 182 357 L 178 362 L 180 362 L 192 354 L 192 356 L 181 363 Q 178 362 179 365 L 179 366 L 196 357 Q 199 356 198 359 L 189 363 L 189 364 Q 193 365 195 362 L 200 362 L 203 359 L 206 349 L 206 347 L 202 342 L 199 343 L 194 342 Z M 90 343 L 87 344 L 88 347 Q 87 349 91 348 L 90 343 Z M 85 350 L 85 358 L 89 359 Q 94 363 95 370 L 98 372 L 97 375 L 99 374 L 98 360 L 96 355 Q 95 350 90 351 L 88 351 L 85 350 Z M 12 353 L 12 357 L 10 360 L 12 367 L 11 372 L 12 375 L 11 378 L 11 389 L 12 390 Q 10 391 11 396 L 13 395 L 13 355 L 12 353 Z M 91 376 Q 89 379 92 378 L 91 376 Z M 96 376 L 94 378 L 96 378 L 96 376 Z M 100 376 L 98 380 L 93 382 Q 87 384 86 381 L 85 389 Q 86 391 92 390 L 94 390 L 96 389 L 101 383 L 100 376 Z M 251 382 L 250 391 L 255 392 L 257 389 L 256 384 L 255 384 L 251 382 Z M 101 387 L 98 391 L 101 390 L 101 387 Z M 85 391 L 86 393 Q 87 390 85 391 Z M 93 391 L 91 393 L 92 397 L 94 397 L 93 391 Z M 108 391 L 103 393 L 101 392 L 93 401 L 94 402 L 110 402 L 113 395 L 108 391 Z M 87 398 Q 84 402 88 401 Q 89 405 86 404 L 87 406 L 89 405 L 91 400 Q 90 397 89 399 L 87 398 Z M 256 398 L 254 400 L 256 401 L 256 398 Z M 11 399 L 12 403 L 10 406 L 11 409 L 11 437 L 10 438 L 11 442 L 10 447 Q 9 451 12 453 L 12 427 L 13 426 Q 10 424 12 418 L 12 416 L 13 414 L 13 402 L 13 400 L 11 399 Z M 250 400 L 250 424 L 252 425 L 253 419 L 252 414 Q 250 407 253 406 L 252 403 Q 253 399 250 400 Z M 87 409 L 86 414 L 89 415 L 90 411 L 87 409 Z M 254 409 L 255 413 L 256 413 Q 257 408 254 409 Z M 86 420 L 87 431 L 90 433 Q 91 426 89 427 L 87 425 Q 88 422 90 424 L 90 421 L 86 420 Z M 256 420 L 255 425 L 256 425 L 256 420 Z M 86 437 L 88 440 Q 90 441 89 439 L 86 437 Z M 252 441 L 251 454 L 252 454 L 252 441 Z M 86 444 L 86 446 L 88 447 Q 89 443 86 444 Z M 255 448 L 255 452 L 255 451 Q 257 449 255 448 Z M 86 452 L 86 458 L 89 459 L 89 452 L 86 452 Z M 11 453 L 10 471 L 11 471 L 11 453 Z M 255 454 L 254 460 L 255 460 L 255 454 Z M 258 456 L 257 464 L 259 464 L 258 456 Z M 254 460 L 253 468 L 254 468 L 254 460 Z M 86 464 Q 84 469 88 468 Q 90 463 86 464 Z M 257 466 L 257 472 L 259 472 L 259 466 L 257 466 Z M 12 472 L 10 475 L 11 477 L 12 477 L 12 472 Z M 86 472 L 86 480 L 88 481 Q 90 480 88 479 Q 90 471 86 472 Z M 257 474 L 257 478 L 259 477 Q 260 473 257 474 Z M 15 479 L 14 481 L 16 482 L 15 479 Z M 154 480 L 153 483 L 155 484 L 154 480 Z M 150 482 L 151 492 L 164 515 Q 176 531 199 536 L 200 525 Q 196 526 195 523 L 187 522 L 181 518 Q 178 519 179 516 Q 169 512 163 504 Q 164 501 161 502 L 152 486 Q 153 481 150 482 Z M 326 482 L 323 483 L 324 486 L 315 490 L 313 489 L 306 490 L 306 491 L 317 491 L 318 490 L 322 490 Q 321 487 324 488 L 327 483 L 326 482 Z M 20 483 L 19 485 L 29 489 Q 35 488 38 491 Q 45 492 44 489 L 41 490 L 32 487 Q 26 489 27 485 L 25 486 L 20 483 Z M 53 484 L 50 486 L 53 487 L 56 486 L 53 484 Z M 67 484 L 67 486 L 69 485 L 67 484 Z M 156 484 L 156 490 L 162 499 L 163 499 L 156 484 Z M 64 486 L 62 487 L 60 487 L 59 490 L 65 488 Q 66 485 64 486 Z M 47 489 L 46 491 L 51 491 Q 50 488 47 489 Z M 92 492 L 90 494 L 92 494 L 92 492 Z M 89 494 L 84 496 L 83 498 L 90 495 L 89 494 Z M 10 496 L 10 498 L 25 503 L 33 503 L 36 504 L 46 504 L 47 503 L 51 504 L 60 502 Q 64 501 66 503 L 75 500 Q 79 501 78 498 L 71 500 L 49 501 Q 47 498 46 502 L 37 502 L 36 501 L 31 502 L 18 499 L 16 497 L 10 496 Z M 80 497 L 79 499 L 82 499 L 80 497 Z M 225 502 L 220 509 Q 219 511 223 510 Q 224 513 221 512 L 218 512 Q 219 509 216 510 L 216 517 L 217 518 Q 216 520 219 519 L 221 522 L 221 521 L 232 515 L 227 512 L 229 508 L 228 505 L 225 502 Z M 69 525 L 65 529 L 57 529 L 56 530 L 54 529 L 52 530 L 39 530 L 38 531 L 28 529 L 26 529 L 24 530 L 15 528 L 12 527 Q 9 528 11 530 L 10 533 L 10 548 L 57 548 L 57 545 L 60 539 Q 61 535 66 536 L 67 530 Q 72 527 69 525 Z M 172 526 L 171 528 L 165 533 Q 165 537 168 537 L 170 536 L 174 539 L 178 539 L 185 536 L 188 538 L 188 536 Q 178 533 172 526 Z M 249 529 L 247 530 L 245 533 Q 249 537 256 537 L 253 533 Q 255 527 249 529 Z M 304 529 L 305 531 Q 306 528 304 529 Z M 328 529 Q 326 532 321 530 L 318 531 L 310 530 L 315 538 L 315 542 L 323 541 L 324 545 L 332 550 L 335 549 L 335 529 L 328 529 Z M 149 534 L 145 544 Q 134 545 127 542 L 126 544 L 117 546 L 109 545 L 106 543 L 104 546 L 101 548 L 109 548 L 111 548 L 128 548 L 129 549 L 131 548 L 133 549 L 135 548 L 145 548 L 146 549 L 150 548 L 221 548 L 222 549 L 225 548 L 228 549 L 241 549 L 242 548 L 245 549 Q 248 550 247 547 L 231 546 L 230 545 Q 225 544 224 547 L 213 544 L 211 544 L 208 545 L 202 540 L 197 544 L 192 545 L 163 546 L 162 547 L 149 544 L 150 541 L 149 538 L 152 536 L 156 536 L 158 535 L 149 534 Z M 268 539 L 269 542 L 266 543 L 267 545 L 273 544 L 275 541 L 268 539 Z M 74 540 L 69 545 L 62 546 L 63 548 L 75 548 L 77 548 L 79 548 L 77 546 L 74 540 Z M 281 540 L 280 541 Q 275 539 276 543 L 275 545 Q 281 546 283 543 L 286 544 Q 290 543 289 546 L 284 544 L 279 547 Q 274 548 274 545 L 263 546 L 262 547 L 251 547 L 252 549 L 271 549 L 273 549 L 301 549 L 302 550 Q 307 551 309 549 L 307 547 L 303 548 L 300 547 L 298 543 L 296 544 L 286 540 L 281 540 Z M 88 546 Q 86 549 89 548 L 88 546 Z M 12 549 L 10 551 L 10 557 L 24 557 Q 25 554 27 559 Q 28 563 26 564 L 23 560 L 19 561 L 19 577 L 21 579 L 15 579 L 15 578 L 15 563 L 14 560 L 10 562 Q 9 566 11 568 L 11 587 L 12 588 L 11 592 L 35 592 L 36 593 L 43 592 L 45 592 L 53 592 L 54 593 Q 60 595 62 592 L 64 593 L 66 593 Q 70 594 72 592 L 74 593 L 97 593 L 99 593 L 101 592 L 139 592 L 141 592 L 143 593 L 148 592 L 150 592 L 152 593 L 154 593 L 161 592 L 163 592 L 166 593 L 169 592 L 171 593 L 177 592 L 179 592 L 181 593 L 183 592 L 185 593 Q 190 595 192 592 L 193 593 L 335 593 L 334 592 L 335 588 L 335 576 Q 331 580 323 579 L 321 579 L 320 575 L 323 573 L 324 577 L 327 578 L 331 575 L 330 572 L 328 569 L 321 567 L 320 564 L 321 561 L 327 557 L 330 558 L 334 557 L 335 558 L 335 553 L 324 553 L 322 553 L 320 552 L 284 552 L 282 552 Q 276 554 275 551 L 273 552 L 265 552 L 264 551 L 262 552 L 260 551 L 216 551 L 215 550 L 211 551 L 207 550 L 204 551 L 202 550 L 197 551 L 195 550 L 192 551 L 191 550 L 94 550 L 93 549 L 91 550 L 34 550 L 32 550 Q 26 552 25 549 L 20 550 L 18 549 L 16 550 L 12 549 Z M 327 560 Q 324 561 325 565 L 328 567 L 334 568 L 335 569 L 335 561 L 333 564 L 329 562 Q 330 559 327 560 Z "></path><path d="M 115 49 Q 118 47.8 117 51.5 L 115 50.5 L 115 49 Z "></path><path d="M 170.5 59 L 171 64.5 L 166.5 70 L 165 66.5 L 170.5 59 Z "></path><path d="M 110.5 100 Q 113.5 101.5 110.5 103 L 110.5 100 Z "></path><path d="M 228.5 122 Q 230.8 121.3 230 123.5 L 227 125 L 228.5 122 Z "></path><path d="M 288.5 127 L 292.5 128 L 294.5 127 L 295.5 129 Q 289 130 288.5 127 Z "></path><path d="M 299.5 131 L 302 132.5 L 299 133 L 299.5 131 Z "></path><path d="M 315 135 L 320 135 L 320 137 L 315 137 L 315 135 Z "></path><path d="M 315.5 154 L 320 155 Q 321.1 157.7 318.5 157 L 315 156 L 315.5 154 Z "></path><path d="M 228.5 168 Q 234.2 166.2 232 172.5 L 234 180.5 L 233 182.5 L 234 184.5 L 234 186.5 L 232 198.5 L 230.5 200 L 228.5 199 L 226 200 L 224 191.5 L 224 182 L 221 180.5 L 221.5 179 L 224 180 Q 224 172.3 228.5 168 Z M 230 170 L 226 182 L 227 193 L 230 198 L 231 194 L 231 179 L 230 178 L 231 176 L 230 170 Z "></path><path d="M 152.5 179 L 153 183.5 L 145.5 205 Q 142.8 203.8 145 202.5 L 152.5 179 Z "></path><path d="M 170.5 197 L 174.5 198 L 176.5 197 L 177.5 199 L 175 200.5 Q 176.2 203 180 202 Q 181.8 206.5 176.5 205 L 174.5 205 L 169.5 204 L 166 206 Q 164.3 201.9 168.5 203 L 172 202 L 170.5 199 L 169 199.5 L 170.5 197 Z "></path><path d="M 231.5 202 L 232 206 Q 229 207.3 230 203.5 L 231.5 202 Z "></path><path d="M 170 206 L 177 206 L 177 209 L 174.5 208 L 171.5 210 L 170 206 Z "></path><path d="M 114 212 Q 116.7 210.9 116 213.5 L 114 214.5 L 114 212 Z "></path><path d="M 228 214 Q 232.1 212.3 231 216.5 Q 229.5 219.5 228 216.5 L 228 214 Z "></path><path d="M 229.5 219 Q 232.5 218.2 231 222 Q 227.2 223.5 228 220.5 L 229.5 219 Z "></path><path d="M 111 222 Q 114 220.8 113 224.5 L 111 223.5 L 111 222 Z "></path><path d="M 313.5 223 Q 318.3 221.7 317 225 Q 313.2 225.8 313.5 223 Z "></path><path d="M 318 223 L 320 223.5 L 318 224.5 L 318 223 Z "></path><path d="M 313.5 227 L 319 228.5 L 314.5 229 L 313.5 227 Z "></path><path d="M 111 229 Q 114.3 227.9 113 232 Q 109.7 233.1 111 229 Z "></path><path d="M 114 230 L 116 230.5 L 114 231.5 L 114 230 Z "></path><path d="M 285.5 237 L 286.5 238 L 296.5 238 L 300.5 238 L 303.5 237 L 304.5 238 L 312 238 L 313 241.5 L 309.5 243 L 306.5 242 L 305 243.5 L 305 254.5 L 306 257.5 L 306 259.5 L 305 264.5 L 306 266.5 L 304 275.5 L 301 281 L 290.5 283 L 285 279.5 L 283 274.5 L 284 271.5 L 283 268 L 287.5 269 L 291 268 Q 289.1 270.8 290 277 Q 296.4 278.3 298 273.5 L 300 262.5 L 300 245.5 L 297.5 241 L 294.5 242 L 291.5 241 L 285 244 L 284 240.5 L 285.5 237 Z "></path><path d="M 35 240 L 42.5 240 L 44 241.5 L 45 243.5 L 40.5 249 L 35 249 L 35 240 Z "></path><path d="M 34 253 L 40.5 254 L 42.5 253 L 44 256 L 47 257.5 Q 49.6 260.4 49 266.5 L 48 270.5 L 43.5 275 L 36.5 276 L 34 275 L 34 253 Z "></path><path d="M 181.5 277 L 185 277.5 L 179.5 280 L 181.5 277 Z "></path><path d="M 316 291 L 321 291 L 321 293 L 316 293 L 316 291 Z "></path><path d="M 150.5 297 Q 152.8 296.3 152 298.5 L 156 308.5 L 162 317 Q 165.8 316.3 167 319.5 L 168 321.5 Q 165.7 325.2 163.5 320 L 157 315.5 L 149 298.5 L 150.5 297 Z "></path><path d="M 168 323 Q 172.5 326.3 180.5 327 L 188 323 L 186.5 326 Q 181.3 325.8 179.5 329 L 174.5 329 L 168 324.5 L 168 323 Z "></path><path d="M 209 339 L 212 340.5 L 214.5 346 L 215 341 L 217 341.5 L 217 350.5 Q 219.5 352 218 357.5 L 217 360.5 L 218 362.5 L 217 365 L 215 364.5 L 215 353.5 L 212 353 L 212 349.5 L 209 339 Z "></path><path d="M 146.5 341 L 163 345.5 L 160.5 346 L 148.5 343 L 146.5 341 Z "></path><path d="M 78 345 Q 81 344 80 347 Q 77 348 78 345 Z "></path><path d="M 330.5 348 L 331.5 350 Q 328.7 350.7 330.5 348 Z "></path><path d="M 329.5 352 Q 332.1 351.3 331 354 L 327 353.5 L 329.5 352 Z "></path><path d="M 263.5 353 L 265 356 Q 261.3 357.5 262 354.5 L 263.5 353 Z "></path><path d="M 106 360 Q 108.7 358.9 108 361.5 L 111 371.5 L 116 380 Q 113.3 381.1 114 378.5 L 110 375.5 L 108 372.5 L 106 360 Z "></path><path d="M 329 367 Q 332 366 331 369 Q 328 370 329 367 Z "></path><path d="M 179.5 374 L 188 375 Q 189.3 378 185.5 377 L 182.5 376 L 175.5 377 L 176.5 375 L 179.5 374 Z "></path><path d="M 72 376 L 77 376 L 77 378 L 73.5 379 L 72 376 Z "></path><path d="M 328 376 L 333 376.5 Q 331.8 379 328 378 L 328 376 Z "></path><path d="M 331 383 Q 334 382 333 385 Q 330 386 331 383 Z "></path><path d="M 186.5 389 L 194 394 L 198 401 Q 200.7 399.9 200 402.5 L 207 413.5 L 211 429.5 L 219 448.5 L 219 458.5 L 220 459.5 L 219 464.5 L 223 478 Q 220.3 479.1 221 476.5 Q 217.2 469.8 217 459.5 L 218 457.5 L 217 454.5 L 217 448.5 L 209 429.5 L 206 415.5 L 198 402 Q 195.3 403.1 196 400.5 L 193 396 L 187 392.5 L 186.5 389 Z M 204 445 L 204 455 L 206 455 Q 209 452 208 446 L 204 445 Z "></path><path d="M 331 393 Q 334 392 333 395 Q 330 396 331 393 Z "></path><path d="M 162.5 401 Q 165.8 399.9 165 402.5 L 169 409.5 Q 167.5 412.5 166 409.5 L 162.5 401 Z "></path><path d="M 321.5 401 L 324 401.5 Q 324.9 404.5 320.5 403 L 321.5 401 Z "></path><path d="M 260 402 L 263 403.5 L 262.5 406 L 260 405 L 260 402 Z "></path><path d="M 170 405 L 173 406.5 L 183 425.5 L 189 445 Q 192.1 444.3 191.5 447 L 197.5 447 L 204.5 443 L 207.5 443 L 211 445.5 Q 211 452.5 207 455.5 L 207 462.5 L 217 471.5 Q 220.7 475.8 219 485.5 L 217 486.5 Q 218.9 477.1 214.5 474 L 214 476.5 L 216 482.5 L 216 487.5 L 215 487.5 L 212 470 Q 209 471.3 210 467.5 L 207.5 467 Q 205.3 467.8 206 465.5 L 202 453.5 L 202 447 L 195.5 449 L 190.5 449 L 186 444.5 L 181 427.5 L 175 414.5 L 170 407.5 L 170 405 Z "></path><path d="M 318.5 407 L 324 407.5 L 318.5 408 L 318.5 407 Z "></path><path d="M 330 408 L 333 409.5 L 330 410 L 330 408 Z "></path><path d="M 323.5 411 Q 326.1 410.3 325 413 L 319.5 414 L 318.5 412 L 323.5 411 Z "></path><path d="M 167 415 Q 169.7 413.9 169 416.5 Q 171.8 418.3 170 424.5 L 169 426.5 L 172 430.5 L 172 437.5 L 175 447.5 L 175 457 L 172 455.5 L 173 447.5 L 170 437.5 L 170 431.5 L 168 427.5 L 167 415 Z "></path><path d="M 123 416 Q 126.3 414.7 125 419.5 L 127 425.5 L 125 426.5 L 123 416 Z "></path><path d="M 322 416 L 324 416.5 L 322 417.5 L 322 416 Z "></path><path d="M 173 420 Q 175.7 418.9 175 421.5 L 179 427.5 L 179 431.5 Q 183.7 435.8 184 444.5 L 189 451.5 L 191 461 L 193.5 462 L 199 460 L 199 456 L 197.5 456 L 195 457 L 194.5 459 Q 190 457 193.5 455 L 195.5 456 L 199.5 455 Q 202 456 201 460.5 Q 198.4 463.9 191.5 463 L 188 459.5 L 186 450.5 L 182 444.5 L 182 440.5 L 175 429.5 L 175 427.5 L 173 420 Z "></path><path d="M 320.5 420 L 325 420.5 L 320.5 421 L 320.5 420 Z "></path><path d="M 319.5 424 L 323.5 425 Q 324.8 422.8 326 425.5 L 318.5 426 L 319.5 424 Z "></path><path d="M 332.5 430 L 333 432 L 331 431.5 L 332.5 430 Z "></path><path d="M 315 433 L 325.5 433 L 326 435 L 315.5 435 L 315 433 Z "></path><path d="M 325.5 437 Q 328.5 438.5 325.5 440 Q 319.1 440.9 316 438.5 L 324.5 438 L 325.5 437 Z "></path><path d="M 126 438 L 128 438.5 L 128 452.5 L 134 470.5 L 141 480.5 L 142 486.5 L 142 488.5 Q 141.2 495.2 145 497.5 L 144 501 L 135 506.5 Q 135.8 509.1 132.5 508 L 133 506.5 Q 132.3 504.3 134.5 505 L 143 498.5 L 140 493.5 L 139 481.5 L 132 471.5 Q 131.3 462.7 127 457.5 L 126 438 Z "></path><path d="M 178 441 Q 180.7 439.9 180 442.5 L 181 446.5 L 180 448.5 L 181 451.5 L 186 466.5 L 186 470.5 L 187.5 472 L 191 470.5 Q 190.1 467.5 194.5 469 L 198 470 L 199.5 466 L 203 466.5 L 199 469.5 Q 199.5 472.5 192.5 471 L 188 474.5 L 193 482 L 188 479.5 L 184 471.5 L 184 467.5 Q 180.5 464 181 456.5 L 178 451.5 L 178 447.5 L 179 444.5 L 178 441 Z "></path><path d="M 315 443 L 326.5 443 L 327 445 L 316.5 444 L 315 444.5 L 315 443 Z "></path><path d="M 76.5 447 Q 80.5 446.5 81 449.5 L 80.5 451 L 77.5 449 L 75 450 L 76.5 447 Z "></path><path d="M 315.5 447 L 325.5 447 L 326 449 L 316.5 449 L 315.5 447 Z "></path><path d="M 317.5 451 L 318.5 452 L 328 452 L 327.5 454 L 318.5 454 L 315 452.5 L 317.5 451 Z "></path><path d="M 78.5 452 Q 81.5 453.5 78.5 455 Q 74.8 456 76 453 L 78.5 452 Z "></path><path d="M 319.5 456 Q 320.8 458.2 325.5 457 Q 326.8 454.8 328 457.5 Q 326.5 460.5 320.5 459 L 318.5 458 Q 317.3 460.3 316 457.5 L 319.5 456 Z "></path><path d="M 123.5 467 Q 125.8 466.3 125 468.5 Q 122.2 470.3 124 476.5 L 128 489.5 L 125 498 L 112 508.5 Q 109 511.5 109 517.5 L 111 524 Q 114.8 523 116 525.5 L 119 530.5 L 113.5 526 L 108 524 L 108 512.5 L 116.5 502 L 119.5 500 Q 126 497.5 126 488.5 L 121 475.5 L 121 469.5 L 123.5 467 Z "></path><path d="M 324.5 469 L 327 469.5 L 326.5 472 L 314.5 472 L 313.5 470 L 323.5 470 L 324.5 469 Z "></path><path d="M 323.5 474 L 325 477 L 322.5 478 L 320.5 477 L 319.5 478 L 311 478 L 311.5 476 L 318.5 476 L 323.5 474 Z "></path><path d="M 207.5 476 L 209 479 L 203.5 480 L 201 482.5 Q 199.2 488.8 202 490.5 L 198.5 496 L 192 493.5 L 196.5 493 L 199 494 L 198 483.5 L 201.5 479 L 207.5 476 Z "></path><path d="M 208.5 481 Q 211.1 480.2 210 483.5 L 207 488.5 L 208.5 497 L 210.5 497 L 214 498 L 216 504 L 213 502.5 L 211.5 500 L 205 497.5 Q 203.7 492.8 206 491.5 Q 203.7 490.2 205 485.5 L 208.5 481 Z "></path><path d="M 185.5 492 L 191 493 Q 192.1 495.7 189.5 495 L 184 494 L 183 499.5 L 184 503.5 L 182.5 506 L 181 503.5 L 181 501.5 Q 179.5 494.5 183.5 493 L 185.5 492 Z "></path><path d="M 134.5 494 L 136 496.5 L 129.5 504 L 123.5 505 L 117 509.5 L 115 515.5 L 119 521 L 113 516.5 Q 113 507.5 119.5 505 L 128.5 503 L 131 500.5 L 134.5 494 Z "></path><path d="M 325 495 L 329 496.5 L 330 499.5 L 328 503.5 L 328 505.5 Q 329 509.3 326 508 Q 327.2 502 324 499.5 L 325.5 499 L 327 499.5 L 327 497 Q 324 498 325 495 Z "></path><path d="M 321.5 499 L 323 501.5 L 323 503.5 Q 323.8 507.3 321.5 508 Q 313.9 509.5 315 506 L 320 505.5 Q 318.8 502.8 317.5 505 Q 311.8 503.4 314 509 L 324 510.5 L 323.5 512 Q 331.1 510.5 330 514 L 326.5 513 L 325.5 514 L 316 514 L 316.5 516 L 325.5 516 L 327 515.5 L 326.5 517 L 315.5 517 L 315 519 L 332.5 519 L 333 520.5 Q 329.8 524.3 322.5 524 L 322.5 523 L 329 522 L 328.5 520 L 320.5 520 L 318.5 520 Q 314.8 519 316 522 L 321 523 L 321 527 L 319.5 527 Q 316.8 525.8 319 524.5 L 319 523 L 315 523 Q 316.7 528.2 313 527 Q 314 523.2 311.5 522 L 309 522 Q 310 525 307 524 L 308.5 521 Q 313.3 522.3 312 519 L 306 519 L 306 516 Q 311.4 517.5 313 514.5 L 306 511.5 Q 305.1 508.1 310.5 510 L 313 504 L 321 503 L 320 500.5 L 321.5 499 Z M 316 511 L 316 512 L 320 512 L 316 511 Z "></path><path d="M 292.5 500 L 303.5 500 L 304.5 501 L 306.5 501 L 315.5 501 L 316.5 500 L 317 502 L 304.5 502 L 303.5 501 L 301.5 502 L 299.5 502 Q 293 503 292.5 500 Z "></path><path d="M 190 505 L 200 506 L 197 510.5 L 197 513 L 191 514 L 192.5 511 Q 193.8 513.3 195 510.5 L 197 507.5 L 191.5 506 L 190 506.5 L 190 505 Z "></path><path d="M 98.5 519 L 102 520.5 Q 103.3 526.6 100.5 526 L 97 528 L 99 522 L 96.5 522 L 90 527.5 Q 90.8 531.3 88.5 532 L 82 537.5 L 83 540.5 L 81 541.5 L 79 536.5 L 87 530 L 89.5 525 L 98.5 519 Z "></path><path d="M 124.5 520 L 126 522.5 L 125 524.5 Q 127.7 526.3 123.5 528 Q 117.7 529.7 119 526 L 123 526 L 123 524.5 L 122 522.5 L 124.5 520 Z "></path><path d="M 146.5 523 L 150 525.5 L 148.5 526 L 146.5 523 Z "></path><path d="M 131 526 L 133 526.5 L 130 532 L 135.5 533 L 139 532 Q 140.5 528.3 137.5 529 L 134 526.5 L 135.5 526 L 141 528 Q 141.8 531.8 138.5 533 Q 135 535.5 127.5 534 L 120 530.5 L 121.5 530 L 124.5 532 L 126.5 528 Q 132.3 529.7 131 526 Z "></path><path d="M 343.5 555 Q 345.8 554.3 345 556.5 L 343.5 555 Z "></path><path d="M 33.5 556 Q 37.9 554.5 37 557.5 Q 33.8 558.8 35 564.5 Q 36.5 567.5 42.5 566 Q 45.5 564.4 44 559 L 42 558.5 Q 43.6 555.5 49 557 L 48 563.5 L 48 565.5 L 49 572.5 L 49 574.5 L 50 578.5 L 44 579 L 44 568 L 35 568 L 37 580 L 29.5 580 L 29 578 Q 32 579.3 31 575.5 L 32 572.5 L 31 571.5 L 31 559.5 L 29 557.5 L 33.5 556 Z "></path><path d="M 106.5 556 L 109 557 L 110 570.5 L 109 571.5 L 109 578 Q 103.8 580.1 105 575.5 L 104 573.5 L 105 571.5 L 104 569.5 L 104 567.5 L 105 562.5 L 102 557.5 L 106.5 556 Z "></path><path d="M 176.5 556 L 183 560.5 Q 183.6 565.9 182 568 L 174.5 570 Q 173.3 567.8 172 570.5 L 173 577.5 L 168.5 580 L 166 579.5 L 168 563.5 L 165 557 L 175.5 557 L 176.5 556 Z M 175 559 Q 172 560 173 564 L 173 566 L 174 567 L 179 567 L 180 563 Q 180 559 175 559 Z "></path><path d="M 272.5 556 L 273.5 557 L 281.5 557 L 283 558.5 L 281.5 562 Q 279.3 562.8 280 560.5 Q 278.8 558 275 559 L 275 565.5 L 274 566.5 L 275 568.5 L 274 569.5 L 274 577 Q 278.1 575.7 277 579 L 266 578.5 L 269 576.5 L 269 562.5 L 270 560.5 Q 268.8 558 265 559 L 263.5 562 L 262 562 L 262 557 L 271.5 557 L 272.5 556 Z "></path><path d="M 53.5 557 L 55.5 558 L 57.5 557 L 59.5 557 L 63.5 558 L 67 557.5 Q 68.9 562.9 65.5 562 L 64 559 L 58 559 L 58 567 L 63 565 L 64 569.5 L 61 571 L 59.5 568 Q 57 569 58 573.5 L 59 576 L 63.5 577 L 65 574 L 67.5 573 L 68 579 L 55.5 579 L 54.5 580 L 54 559 L 52 558.5 L 53.5 557 Z "></path><path d="M 80.5 557 L 87 557 L 87 559.5 L 86 560.5 L 86 568 Q 92.1 569.8 94 566.5 Q 94.9 559.7 93 557 L 98.5 557 L 99 558.5 L 98 559.5 L 98 578 Q 101 577 100 580 L 92 579.5 Q 95.5 578 94 571.5 Q 92.1 568.3 86 570 Q 84.3 576.6 88 578.5 Q 85.5 581.1 80 580 Q 79.3 576.9 82 577.5 L 82 561.5 Q 76.7 559.2 80.5 557 Z "></path><path d="M 119.5 557 L 128 558 L 129 561.5 Q 126.7 565.2 124.5 560 Q 119 559 118 562.5 L 117 571.5 L 121.5 577 L 125 576 L 124 572 L 121 571.5 L 125.5 570 L 131 571 L 130 576.5 Q 132.3 577.8 129.5 579 Q 118.1 580.9 114 575.5 Q 111.1 571.9 112 564.5 L 114.5 560 L 119.5 557 Z "></path><path d="M 135 557 L 142 557 L 142 564.5 Q 143.4 567.3 148 566 L 149 559.5 L 148 557 L 153 557.5 L 153 576.5 L 154.5 577 L 153.5 579 L 150.5 578 Q 149.3 580.3 148 577.5 L 149 573.5 L 148 568 L 143.5 567 L 142 568.5 L 142 576.5 L 143 579 L 138.5 578 L 136 579 L 137 575.5 L 137 573.5 L 137 559.5 Q 134.3 560.1 135 557 Z "></path><path d="M 187.5 557 L 199.5 557 L 202 559.5 L 203 564.5 L 199 569.5 L 203.5 577 Q 206.1 576.3 205 579 L 199 576.5 Q 195.3 573.4 195 568 L 192 569.5 L 193 578.5 Q 191.8 581.3 190.5 579 L 185.5 580 L 185 578 L 187 577.5 L 187 559.5 Q 184.8 558.3 187.5 557 Z M 193 559 L 193 566 L 198 566 L 200 563 L 199 561 Q 198 558 193 559 Z "></path><path d="M 206 557 L 215 558 L 215 572.5 L 214 573.5 L 215 577.5 Q 213.8 580.3 208.5 579 L 209 577.5 L 209 560.5 L 207.5 560 L 206 557 Z "></path><path d="M 219 557 L 232.5 558 L 234 557.5 Q 235.3 563.6 232.5 563 L 229.5 559 L 227.5 560 Q 226.3 557.8 225 560.5 L 225 567.5 L 226.5 568 L 228.5 564 Q 231.1 563.2 230 566.5 L 231 571 Q 227.6 571.8 226.5 569 Q 223.8 570.3 225 575.5 Q 225.8 577.8 229.5 577 L 233 576 Q 231.9 573.3 234.5 574 L 236 573.5 L 234.5 580 L 233.5 579 L 223.5 579 L 221.5 580 L 219 579.5 L 221 566.5 L 219 557 Z "></path><path d="M 246.5 557 L 256 558 Q 258.2 563.6 252.5 562 Q 250.3 559 245 560 L 244 564.5 L 245 567 L 254.5 567 L 258 570.5 Q 259.3 577.8 254.5 579 L 245.5 579 L 244.5 578 L 240.5 579 L 241 577.5 L 242 573 Q 246.6 572.4 248.5 576 L 254 576 Q 255 570.4 250.5 569 Q 243.3 570.3 241 566.5 L 240 563.5 L 243.5 558 L 246.5 557 Z "></path><path d="M 285.5 557 Q 295.1 555.9 300 558 L 299 564 Q 294.1 565.6 296 560 L 291 560 L 290 566.5 L 292 567.5 L 293.5 565 L 296 566.5 L 296 573 L 293 573 Q 294.5 568.5 290 570 L 290 577 L 297 577 L 298.5 573 Q 301.5 572.1 300 576.5 L 299 579 L 282 578.5 L 286 577 Q 287.8 574.6 287 568.5 L 286 566.5 L 286 564.5 L 287 562.5 L 284 558.5 L 285.5 557 Z "></path><path d="M 307.5 557 L 316.5 557 L 318 558.5 L 318 560.5 L 316.5 563 Q 312 563.5 311.5 560 L 308 560 L 307 562.5 L 309.5 566 Q 315.3 565.2 317 568.5 L 318 574.5 L 317 577 Q 312.6 580.4 303 579 Q 301.8 573.5 305.5 572 L 308.5 577 Q 313 578 314 575.5 Q 315.3 569.3 311.5 568 Q 305.3 569.3 304 565.5 Q 303.4 560.1 305 558 L 307.5 557 Z "></path><path d="M 345.5 588 L 347 590.5 L 345 591.5 L 346 589.5 L 345.5 588 Z "></path><path d="M 341.5 589 Q 344.1 588.2 343 591.5 L 342 591.5 L 341.5 589 Z "></path></svg>