<svg width="350" height="600" version="1.1" xmlns="http://www.w3.org/2000/svg" desc="Created with imagetracer.js version 1.2.5"><path d="M 300.5 4 L 329.5 4 L 332.5 5 L 334 4.5 L 335 11.5 L 334 12.5 L 334 24.5 L 335 25.5 L 335 50.5 L 336 51.5 L 335 52.5 L 335 71.5 Q 337.3 72.8 336 77.5 L 335 78.5 L 335 95.5 L 336 96.5 L 336 123.5 L 336 125.5 L 335 127.5 Q 337.3 128.8 336 133.5 L 336 135.5 L 337 210.5 L 337 212.5 L 336 233.5 L 336 235.5 L 337 238.5 L 337 240.5 L 336 243.5 L 337 244.5 L 337 252.5 L 336 253.5 L 336 290.5 L 337 292.5 L 336 294.5 L 337 299.5 L 336 301.5 L 337 302.5 L 337 346.5 L 338 348.5 L 337 351.5 L 338 352.5 L 338 405.5 L 339 407.5 L 338 408.5 L 338 442.5 L 337 445.5 L 338 446.5 L 338 513.5 L 337 516.5 L 338 520.5 L 337 521.5 L 337 544.5 L 337 546.5 Q 335.7 551.3 338 552.5 L 338 587.5 L 337 590.5 L 337.5 592 L 336 592 L 335.5 594 L 330.5 594 L 329.5 593 L 245.5 593 L 242.5 594 Q 241 591.5 235.5 593 L 234.5 594 L 160.5 594 L 157.5 595 L 156.5 594 L 125.5 594 L 123.5 594 L 120.5 595 Q 119.2 592.8 114.5 594 L 112.5 594 Q 106.3 592.3 104.5 595 Q 102.8 592.3 96.5 594 Q 95.3 596.3 90.5 595 L 88.5 595 Q 82.3 596.7 80.5 594 L 79.5 595 L 8.5 595 L 7 593.5 L 7 452.5 L 8 447.5 L 7 444.5 L 7 442.5 Q 5.5 435 8 431.5 L 7 427.5 L 8 424.5 Q 5.8 423.3 7 418.5 L 8 417.5 L 8 194.5 L 7 193.5 L 7 179.5 L 8 177.5 Q 5.3 175.8 7 169.5 L 8 166.5 L 7 165.5 L 7 137.5 L 8 134.5 L 7 130.5 L 8 129.5 L 8 101.5 L 7 98.5 L 8 97.5 L 8 11.5 L 10.5 9 L 57.5 9 L 61.5 8 L 66.5 9 L 67.5 8 L 102.5 8 L 104.5 7 L 106.5 7 L 108.5 8 L 131.5 8 L 135.5 7 L 138.5 8 L 139.5 7 L 158.5 7 L 159.5 6 L 160.5 7 L 182.5 7 Q 183.8 4.7 188.5 6 L 189.5 7 L 215.5 7 L 216.5 6 L 270.5 6 L 271.5 5 L 273.5 6 L 274.5 5 L 282.5 5 L 284.5 6 L 285.5 5 L 299.5 5 L 300.5 4 Z M 301 7 L 293 9 L 263 9 L 262 10 L 254 9 L 252 9 L 220 9 L 219 10 L 207 10 L 206 11 L 204 10 L 129 10 L 128 11 L 125 10 L 116 11 L 114 11 L 113 10 L 103 10 L 101 10 L 99 11 L 89 11 L 88 10 L 80 12 L 61 12 L 58 11 L 56 11 L 49 13 L 44 13 L 41 12 L 38 13 L 20 13 L 19 14 L 16 13 L 14 13 Q 10 12 12 18 L 12 20 L 11 22 L 11 78 L 11 80 L 10 84 L 11 87 L 11 113 L 10 114 L 11 117 L 10 119 L 10 134 L 17 135 L 13 136 Q 11 134 10 137 L 10 176 L 11 177 L 10 181 L 11 183 L 11 203 L 12 204 L 11 208 L 12 210 L 12 231 L 11 232 L 12 234 L 12 322 L 13 325 L 12 328 L 13 331 L 12 332 L 12 370 L 12 372 L 13 375 L 12 380 L 12 398 L 13 401 L 13 403 L 13 417 L 12 418 L 12 479 L 11 480 L 11 489 L 12 490 L 11 492 L 11 531 L 10 534 L 20 530 L 23 530 L 31 525 L 41 528 L 50 533 L 57 531 Q 67 530 73 534 L 85 533 L 90 531 L 99 524 L 105 524 L 113 516 L 115 510 L 119 507 L 121 508 Q 123 507 122 510 L 128 514 L 130 518 Q 133 522 142 521 L 146 524 L 148 523 L 148 508 L 147 507 L 147 495 L 146 494 L 146 460 L 144 451 L 144 420 L 140 409 L 138 409 L 134 412 L 130 412 L 125 407 L 124 396 L 123 395 L 123 366 L 122 365 L 122 355 L 121 354 L 121 344 L 121 342 L 120 338 L 120 331 L 117 331 L 115 321 Q 114 318 110 319 L 111 305 L 111 303 L 111 283 L 112 280 L 112 278 L 111 273 L 111 252 L 113 241 L 113 222 L 111 229 L 108 231 L 100 227 L 90 225 L 89 223 L 89 214 L 90 213 L 89 209 L 89 207 Q 92 205 90 199 L 92 195 Q 93 190 88 192 L 88 185 L 89 184 L 88 182 L 87 182 L 85 178 L 83 181 L 80 177 L 80 148 L 79 147 L 80 144 L 78 137 L 78 123 L 80 121 L 76 114 L 75 107 L 72 105 Q 73 100 70 99 L 69 90 L 66 88 L 61 82 L 64 77 L 64 75 Q 61 78 54 77 L 49 90 L 49 91 L 51 90 L 58 93 L 70 108 L 71 115 L 64 120 L 64 133 L 65 134 L 65 151 L 68 151 L 68 152 L 65 152 L 65 159 L 65 161 Q 68 162 67 167 L 60 172 L 39 174 L 37 174 L 28 172 L 24 169 Q 23 164 26 163 L 25 160 L 26 157 L 25 154 L 25 120 L 24 118 L 23 118 L 19 116 L 18 114 L 18 109 L 25 100 Q 27 101 26 98 L 36 91 Q 43 93 40 86 L 43 84 L 44 81 L 39 78 L 37 76 L 34 74 L 33 72 L 33 68 Q 30 69 31 66 L 34 67 L 40 67 L 37 63 L 39 63 L 39 61 Q 37 57 35 62 Q 32 61 33 64 L 30 64 L 31 61 L 38 55 L 48 52 L 61 53 L 71 58 L 77 57 L 81 59 Q 83 58 82 61 L 84 60 L 86 67 L 92 72 Q 93 76 90 78 L 91 79 L 94 75 Q 96 76 96 80 L 100 82 L 107 93 Q 109 96 114 96 L 115 100 Q 117 98 119 102 Q 118 104 121 103 L 118 90 L 117 76 L 115 70 L 117 64 L 116 62 Q 115 53 120 52 Q 124 51 126 54 L 127 56 L 128 62 L 131 60 L 135 61 L 136 59 L 157 46 Q 162 45 164 48 L 173 44 L 180 44 L 185 45 L 189 44 L 191 45 L 190 50 L 191 52 L 189 58 Q 189 65 194 69 Q 192 73 197 72 L 202 80 L 207 83 L 211 82 L 220 83 L 232 92 L 235 97 Q 234 100 237 99 L 240 106 L 243 122 L 240 130 L 240 138 L 241 139 Q 243 145 240 147 L 241 149 L 240 151 L 240 153 L 240 191 L 241 192 L 240 195 L 241 197 L 240 198 L 240 222 L 239 223 Q 237 229 240 231 L 240 262 L 239 263 L 240 315 L 242 323 L 241 328 L 242 331 L 241 333 L 241 343 L 242 344 L 241 347 L 242 350 L 242 364 L 241 365 Q 239 371 242 373 L 241 376 L 242 380 L 242 410 L 243 411 L 242 412 L 242 430 L 242 432 L 243 433 L 243 467 Q 246 468 244 475 L 244 477 Q 247 483 245 494 L 246 495 L 246 515 L 245 518 L 249 519 L 258 519 L 266 512 Q 276 514 284 520 Q 288 521 290 518 L 296 521 L 299 521 Q 303 519 303 514 L 309 512 L 314 512 L 327 520 L 334 522 L 334 512 L 333 511 L 333 469 L 331 461 L 332 427 L 333 426 L 333 395 L 331 387 L 332 385 L 331 383 L 331 368 L 332 367 L 332 326 L 331 325 Q 330 316 332 311 L 332 309 L 331 306 L 331 285 L 332 284 L 331 282 L 332 274 L 332 272 L 331 266 L 331 264 L 333 241 L 333 239 L 332 238 L 332 225 L 333 222 L 333 200 L 332 199 L 332 190 L 333 189 L 332 184 L 332 175 L 333 174 L 332 170 L 332 135 L 333 134 L 332 130 L 333 126 L 332 125 L 332 102 L 331 101 L 332 99 L 331 97 L 332 94 L 331 92 Q 330 87 332 86 L 331 84 L 331 73 L 332 72 L 331 39 L 330 36 L 330 34 L 331 31 Q 329 29 330 24 L 330 22 L 331 20 Q 329 16 330 10 L 326 7 L 321 8 Q 316 9 315 7 L 311 8 L 309 8 L 306 7 L 303 8 L 301 7 Z M 172 47 L 165 50 L 162 49 L 156 49 L 145 55 L 141 59 L 140 58 L 139 63 L 132 62 Q 127 64 130 66 L 129 70 L 130 75 L 129 77 Q 128 80 131 81 L 139 79 L 153 80 L 164 87 Q 168 86 167 89 L 171 89 L 189 101 L 194 112 L 200 111 L 199 113 L 200 114 L 202 111 L 201 108 L 202 106 L 206 103 Q 209 104 207 100 L 197 96 L 195 93 L 190 88 L 184 88 L 183 91 L 168 81 L 161 80 L 157 78 L 157 77 L 166 78 Q 168 82 174 81 Q 172 79 173 74 L 169 71 L 170 74 L 169 77 L 168 75 L 164 72 L 162 73 L 159 72 L 154 73 Q 151 74 152 71 Q 156 72 158 69 L 161 71 Q 168 73 167 69 L 164 67 L 159 67 L 148 64 L 154 62 L 174 68 Q 175 71 177 69 L 179 71 L 179 74 Q 176 73 177 78 Q 182 80 181 76 L 184 74 L 187 78 L 188 73 L 188 71 Q 189 68 187 69 Q 184 64 182 70 L 173 64 L 168 62 L 161 62 L 157 60 L 160 58 Q 168 58 174 62 L 179 61 Q 181 62 180 59 L 171 56 L 173 55 L 175 55 Q 182 54 185 57 Q 187 58 186 55 L 182 54 L 186 53 L 187 51 L 187 48 L 177 48 L 175 48 L 172 47 Z M 50 54 L 42 57 L 40 61 L 44 63 L 49 62 L 55 65 Q 61 66 64 63 L 67 65 L 59 68 L 52 66 L 49 67 L 50 71 L 58 75 L 66 71 L 70 76 L 73 75 L 75 70 L 75 63 L 63 56 L 50 54 Z M 118 54 L 117 57 Q 116 60 120 59 L 119 61 L 120 63 Q 121 65 118 64 L 119 67 L 118 70 L 118 74 Q 121 73 120 76 L 118 77 L 122 88 Q 121 90 125 89 Q 126 92 122 91 L 123 99 L 126 100 L 123 102 L 126 103 L 124 106 Q 123 108 127 107 L 127 108 Q 123 107 124 111 L 126 110 L 130 111 Q 131 102 128 97 L 127 67 Q 124 64 125 58 Q 124 53 118 54 Z M 73 59 L 73 61 L 76 62 Q 78 63 77 61 L 73 59 Z M 184 63 L 182 65 Q 184 68 185 65 Q 186 62 184 63 Z M 42 65 Q 40 69 42 71 L 41 75 L 41 76 L 45 76 L 46 79 L 45 82 L 46 84 L 48 83 L 42 65 Z M 79 66 L 75 74 L 76 75 L 79 70 L 79 66 Z M 188 66 L 191 70 Q 193 71 192 69 L 188 66 Z M 37 69 Q 36 72 40 71 Q 41 68 37 69 Z M 81 69 L 78 76 L 79 82 L 68 84 Q 66 89 73 87 Q 75 82 77 86 Q 78 90 75 91 L 76 94 L 74 93 Q 75 88 72 89 Q 71 95 73 98 L 76 97 Q 79 101 78 111 L 81 114 L 82 119 L 86 122 Q 85 124 88 123 Q 86 116 87 105 Q 86 102 85 104 L 83 104 L 83 99 L 81 99 L 83 95 L 83 93 L 78 94 L 82 86 Q 83 82 80 83 L 83 79 Q 84 74 81 75 Q 80 72 83 71 Q 84 68 81 69 Z M 46 70 L 44 72 L 47 72 Q 48 69 46 70 Z M 86 73 L 87 78 L 88 76 Q 89 72 86 73 Z M 47 74 Q 46 77 49 76 Q 50 73 47 74 Z M 192 75 L 190 79 L 198 83 L 199 81 L 192 75 Z M 51 77 L 49 80 L 50 85 L 51 82 L 51 77 Z M 74 77 L 73 78 Q 70 77 71 80 L 75 79 Q 76 76 74 77 Z M 66 80 L 65 83 L 66 83 L 66 80 Z M 90 81 L 90 85 L 95 89 L 90 81 Z M 136 81 L 130 84 Q 130 94 137 98 Q 136 101 140 99 L 140 103 L 143 109 L 146 110 L 148 109 L 147 112 L 149 117 L 148 120 L 143 119 Q 142 122 145 121 L 144 123 L 148 128 Q 150 127 149 131 Q 151 134 152 131 Q 153 128 150 129 Q 149 126 152 127 L 153 129 L 158 126 L 155 122 L 157 119 L 160 121 L 157 121 L 161 127 L 160 131 Q 162 134 163 131 L 162 125 L 161 122 L 162 122 L 162 118 L 164 118 L 163 120 L 164 131 Q 165 134 169 133 L 169 131 L 165 126 L 165 121 Q 169 120 167 126 L 172 131 L 171 132 L 173 132 L 174 132 L 173 136 Q 172 140 175 139 L 175 136 L 180 130 L 179 127 L 180 124 L 180 127 Q 183 128 182 124 L 175 121 Q 174 115 179 112 L 181 117 L 183 116 L 182 113 L 179 111 Q 180 106 177 105 Q 180 103 179 100 L 177 101 L 173 96 L 177 99 Q 179 100 178 97 L 175 93 Q 165 92 161 86 L 150 83 L 148 81 L 136 81 Z M 179 83 L 181 86 L 182 85 L 191 85 Q 187 82 179 83 Z M 195 86 L 194 88 L 198 92 L 199 90 L 195 86 Z M 84 87 L 85 91 L 86 88 L 84 87 Z M 209 87 L 210 89 Q 211 86 209 87 Z M 43 90 L 41 92 L 43 94 L 45 93 Q 49 95 48 92 Q 47 89 43 90 Z M 93 92 L 93 94 L 97 96 L 98 94 L 97 94 Q 94 95 95 92 L 93 92 Z M 218 94 L 220 98 L 224 98 L 224 97 L 218 94 Z M 102 97 L 104 100 Q 106 101 105 99 L 102 97 Z M 210 97 L 210 100 L 212 99 L 215 100 Q 218 101 217 99 Q 215 95 210 97 Z M 41 99 L 40 100 L 29 101 L 23 105 L 24 106 L 31 103 L 40 102 Q 41 104 42 102 L 41 99 Z M 229 99 Q 228 107 233 110 Q 235 111 234 109 Q 230 107 234 105 L 231 101 Q 232 98 229 99 Z M 44 100 L 46 103 L 56 103 L 56 101 Q 52 99 44 100 Z M 58 101 L 58 103 L 64 105 L 64 104 Q 63 100 58 101 Z M 212 101 L 207 104 L 204 108 L 213 103 L 216 104 Q 218 105 217 102 L 212 101 Z M 221 102 L 219 105 Q 212 105 208 109 L 199 124 L 201 123 L 202 124 L 198 130 Q 197 135 200 137 L 200 144 Q 197 143 198 147 L 195 145 L 193 147 L 192 153 L 189 155 Q 186 156 187 154 Q 184 148 176 148 L 176 156 L 177 157 L 177 167 L 179 167 L 179 157 L 178 156 Q 177 152 180 153 L 181 151 L 184 157 Q 185 164 183 167 L 181 168 L 184 172 L 184 194 L 185 195 L 185 202 L 183 192 L 181 193 L 182 206 L 183 207 L 183 209 L 180 200 L 180 187 L 181 186 L 181 174 L 179 173 Q 180 177 177 178 L 174 170 L 173 172 L 172 171 L 170 170 L 167 171 Q 166 174 170 173 L 172 173 L 173 176 Q 162 177 157 174 L 157 171 L 156 179 L 173 181 L 174 183 L 175 181 L 177 188 L 172 191 L 157 191 L 155 190 L 156 186 L 166 188 Q 170 189 172 187 Q 176 188 174 184 L 158 182 L 156 185 L 155 176 L 154 175 L 155 172 L 155 152 L 155 150 L 153 147 L 154 139 L 154 137 L 155 134 L 156 136 L 157 154 L 158 153 Q 157 144 160 140 L 159 138 L 160 135 L 160 137 L 165 139 L 165 140 Q 161 139 162 142 L 161 141 L 160 143 L 166 144 L 166 145 L 162 144 Q 158 143 160 147 L 170 147 L 168 146 Q 167 143 171 144 L 172 145 L 169 141 Q 168 137 171 138 L 171 135 Q 165 136 162 133 Q 158 134 159 131 L 156 128 L 155 131 L 150 134 Q 144 129 141 121 L 133 113 L 128 114 L 126 114 L 123 115 L 120 120 L 134 118 Q 135 122 130 120 L 128 120 L 123 122 Q 120 121 121 124 L 125 126 Q 122 127 123 130 L 130 131 L 129 133 L 127 132 L 125 136 L 128 137 L 130 136 L 135 137 L 138 144 L 142 146 L 151 147 Q 153 148 152 152 L 150 152 L 152 163 L 153 187 L 157 198 Q 159 203 156 202 L 149 194 L 149 187 L 147 183 L 147 174 L 146 173 L 147 171 L 146 170 L 146 160 L 144 153 Q 147 151 143 150 Q 144 147 141 148 L 141 146 L 139 146 Q 138 153 141 157 L 141 176 L 141 178 L 141 184 L 143 190 Q 142 192 145 191 L 145 195 L 145 197 L 146 199 L 146 204 L 152 204 L 152 207 L 147 207 L 147 210 L 154 213 L 153 215 L 149 214 Q 147 219 155 217 L 156 219 Q 152 218 153 222 L 157 223 L 160 228 Q 159 230 163 229 L 165 226 Q 166 221 162 223 L 162 220 L 168 219 L 171 224 L 172 221 Q 171 218 174 219 L 175 221 L 175 233 L 178 234 Q 180 233 179 236 L 172 237 L 171 232 L 169 233 Q 172 234 170 240 L 173 247 L 171 252 L 173 252 L 174 254 L 176 273 L 177 274 L 178 291 L 182 303 L 182 307 L 190 339 L 195 337 L 206 368 L 214 381 L 213 383 L 206 379 L 198 365 L 192 348 Q 194 340 187 343 L 183 336 L 182 326 L 180 321 Q 181 316 177 318 L 171 301 L 169 271 L 168 270 L 168 257 L 166 250 L 166 236 L 163 234 L 161 239 L 158 238 L 158 261 L 159 262 Q 160 268 157 270 L 159 280 Q 160 282 157 281 L 160 313 L 161 318 L 164 323 Q 165 326 160 324 L 157 321 Q 158 316 156 315 L 153 284 L 153 282 L 152 281 L 152 273 L 152 271 L 151 270 L 150 237 L 149 236 Q 151 230 146 232 L 145 237 L 146 240 Q 148 245 143 243 L 144 247 L 143 250 L 144 251 L 144 261 L 147 272 L 147 274 L 146 276 L 146 287 L 146 289 L 147 290 L 147 298 L 149 302 L 150 332 L 151 333 L 151 343 L 152 344 L 153 380 L 153 382 L 155 391 L 156 433 L 158 443 L 158 454 L 159 455 L 158 459 L 164 461 L 167 461 L 163 459 L 162 457 Q 161 453 165 455 Q 164 450 167 449 Q 172 448 174 450 Q 176 451 175 448 L 163 446 Q 160 445 161 441 L 165 442 L 169 442 L 163 439 L 162 437 L 162 397 L 161 396 L 161 385 L 160 384 L 160 350 L 159 349 Q 158 343 161 341 Q 160 338 163 339 L 164 352 L 164 354 L 165 357 L 165 390 L 166 391 L 166 406 L 167 407 L 167 434 L 172 437 Q 175 434 174 427 L 170 425 Q 169 422 173 423 L 174 424 Q 175 421 171 422 Q 170 419 173 420 L 174 421 L 174 409 L 177 408 L 176 404 Q 172 405 174 401 L 174 399 L 173 389 L 171 383 L 173 380 L 173 375 Q 169 376 170 374 Q 168 372 171 371 L 173 372 L 175 367 L 177 368 L 178 402 L 180 407 L 180 405 L 183 407 Q 184 411 182 410 L 183 413 L 183 414 L 179 414 Q 178 417 183 416 L 184 419 Q 181 420 180 417 L 179 420 L 183 421 Q 185 420 184 423 L 179 422 Q 177 428 183 426 Q 184 430 179 428 L 179 431 L 183 432 Q 185 431 184 434 L 181 433 L 179 436 L 185 437 Q 188 436 187 439 L 180 438 L 182 442 L 186 442 Q 185 439 190 440 L 191 448 L 188 449 L 184 448 Q 179 447 180 450 Q 186 449 189 453 L 191 452 L 191 460 L 192 461 L 191 464 Q 192 467 189 466 L 187 466 L 184 465 L 182 465 Q 179 464 180 467 Q 187 466 190 469 Q 192 470 190 472 Q 188 478 193 476 L 193 483 L 190 483 L 190 490 L 194 490 L 196 498 L 195 505 L 191 506 L 193 510 L 195 509 L 193 513 L 196 512 Q 201 511 203 513 L 205 513 Q 204 509 200 510 L 200 508 L 206 508 L 206 506 L 201 506 Q 199 502 205 503 L 206 504 L 205 501 Q 199 503 200 499 L 206 499 Q 204 496 199 497 L 200 495 L 208 495 Q 210 496 209 500 L 210 500 L 210 487 L 208 490 L 201 487 Q 197 488 198 485 L 205 485 L 202 483 Q 197 484 198 481 L 206 481 L 207 482 Q 210 483 209 480 L 207 479 Q 200 481 201 477 L 204 476 L 207 477 L 206 475 Q 200 477 202 472 L 209 473 L 210 471 Q 209 468 208 470 Q 206 468 202 469 L 200 468 L 203 467 L 206 466 L 201 465 L 203 462 Q 208 461 210 463 L 210 461 L 202 461 L 202 458 L 210 458 L 207 455 Q 202 456 203 453 L 207 453 L 205 452 Q 203 448 208 449 Q 209 451 210 449 L 210 446 L 204 446 Q 202 441 209 443 L 210 444 L 210 442 L 205 442 L 205 440 L 210 440 L 210 437 L 205 437 L 207 434 Q 211 435 210 433 L 213 431 L 214 435 L 214 453 L 215 454 L 215 486 L 216 487 L 216 499 L 218 500 Q 223 502 222 498 Q 218 499 217 497 L 223 496 L 223 494 L 217 494 L 217 492 L 222 492 L 222 490 L 217 489 L 217 487 L 222 487 L 222 484 L 219 485 L 217 482 Q 222 483 223 481 L 218 480 L 222 478 Q 223 474 218 476 Q 217 472 222 474 Q 223 470 220 469 L 223 464 L 224 462 L 222 463 L 220 461 L 220 459 L 224 459 L 224 457 L 222 458 L 219 457 L 219 454 L 224 454 Q 225 451 221 452 Q 219 454 218 452 L 219 449 L 218 447 L 218 444 L 224 444 L 224 442 L 218 442 L 217 440 L 223 437 L 224 440 Q 223 442 230 441 L 232 441 L 232 439 L 231 439 L 228 438 Q 226 440 225 438 L 227 434 L 231 435 L 232 436 L 232 433 L 227 433 L 225 430 L 228 429 L 232 431 L 232 428 L 218 429 L 217 427 Q 216 424 224 425 L 225 421 L 217 423 L 216 419 L 224 417 L 224 419 L 226 420 L 226 415 L 232 415 L 232 410 L 227 412 Q 224 411 225 407 Q 230 408 232 406 L 232 402 L 222 407 L 219 407 L 217 403 L 224 402 L 220 401 L 218 397 Q 223 395 225 399 Q 224 401 227 400 L 229 400 Q 233 401 232 399 L 231 395 Q 229 398 226 397 L 225 395 L 225 392 L 231 392 L 231 388 Q 229 391 226 390 L 226 381 L 230 381 Q 232 380 230 379 L 231 375 L 235 373 L 235 369 L 234 371 L 232 369 Q 231 364 234 365 L 236 369 L 237 364 Q 239 357 236 356 L 236 339 L 237 338 L 236 337 L 236 315 L 235 314 L 235 282 L 234 281 L 234 265 L 236 254 L 235 250 L 235 227 L 236 226 L 236 205 L 237 204 Q 238 199 236 198 L 236 153 L 237 152 L 237 141 L 236 140 Q 235 131 238 128 L 235 122 L 235 117 L 232 115 Q 231 109 225 106 L 225 104 Q 224 101 221 102 Z M 93 103 L 91 107 L 92 133 L 93 133 L 93 103 Z M 132 103 L 132 109 L 138 112 L 142 112 L 141 109 L 133 106 L 132 103 Z M 182 104 L 180 106 Q 179 108 182 107 L 182 104 Z M 96 106 Q 95 109 98 108 Q 99 105 96 106 Z M 184 107 L 182 111 L 184 110 L 186 111 L 185 109 Q 186 106 184 107 Z M 25 108 L 25 110 L 27 109 L 25 108 Z M 121 108 Q 120 111 123 110 Q 124 107 121 108 Z M 39 110 L 43 116 Q 42 119 45 118 L 45 110 L 39 110 Z M 114 110 Q 113 114 119 112 L 118 114 Q 113 113 114 116 L 119 117 L 121 112 Q 119 109 114 110 Z M 33 111 L 34 117 L 34 113 L 37 114 L 38 112 L 33 111 Z M 52 111 L 53 116 L 55 112 L 52 111 Z M 57 112 L 54 118 L 57 117 L 57 112 Z M 96 112 L 96 114 L 101 115 L 101 114 Q 100 111 96 112 Z M 64 113 L 64 117 L 66 116 Q 67 112 64 113 Z M 110 113 L 109 117 L 110 117 L 110 113 Z M 187 113 L 185 115 Q 184 119 188 117 L 188 113 L 187 113 Z M 37 114 Q 35 118 39 117 L 40 118 L 39 116 Q 40 113 37 114 Z M 196 115 L 195 119 L 197 118 L 196 115 Z M 180 116 Q 177 120 181 119 L 180 116 Z M 185 117 L 181 121 L 184 125 L 183 129 L 187 127 L 186 124 L 186 122 Q 187 119 185 120 L 185 119 L 185 117 Z M 96 118 L 96 120 L 100 120 L 96 118 Z M 115 118 L 114 119 Q 111 118 112 121 L 116 120 L 117 121 Q 118 117 115 118 Z M 177 118 L 179 121 L 179 120 L 177 118 Z M 39 119 L 35 120 L 37 126 L 38 127 Q 35 128 36 125 L 34 125 L 34 122 L 33 128 L 38 130 L 42 125 L 40 121 Q 41 118 39 119 Z M 44 119 L 42 121 L 44 122 L 44 119 Z M 52 119 L 53 124 L 55 121 L 52 119 Z M 57 120 L 52 126 L 52 128 L 57 129 L 57 126 L 56 126 L 57 124 L 57 120 Z M 107 120 L 107 126 L 100 124 L 101 126 Q 104 125 103 128 L 105 132 L 103 131 Q 96 129 98 134 L 101 133 L 109 133 L 110 134 L 110 132 L 107 130 Q 106 127 109 128 L 109 121 L 107 120 Z M 116 122 L 111 125 Q 110 128 113 127 Q 114 123 116 127 L 116 129 L 111 128 L 113 140 L 112 146 L 112 148 L 113 152 L 113 154 L 115 157 Q 117 163 111 161 L 111 163 Q 115 161 114 165 L 114 167 L 115 170 L 112 169 L 108 171 L 109 175 L 113 173 L 114 176 Q 113 178 108 177 Q 106 182 113 180 L 116 190 L 116 213 L 117 214 L 117 233 L 116 234 L 116 249 L 115 250 L 115 267 L 116 268 L 116 284 L 115 285 L 115 296 L 116 297 L 115 314 Q 117 318 119 315 L 118 314 L 118 301 L 118 299 L 117 297 L 117 284 L 120 279 L 120 297 L 122 308 L 122 322 L 124 327 L 123 331 L 124 334 L 125 360 L 126 361 L 127 396 L 129 401 Q 130 404 135 404 L 131 404 Q 127 402 127 398 L 125 397 L 126 403 Q 129 409 139 407 Q 140 404 137 405 L 136 399 L 140 398 Q 142 399 141 397 L 140 397 Q 133 397 131 394 L 133 391 L 141 391 L 141 390 L 140 388 Q 135 389 134 387 Q 131 388 132 384 L 139 383 Q 143 384 141 380 L 139 381 L 134 380 Q 131 381 132 377 L 134 377 L 139 375 Q 141 376 140 373 L 139 373 Q 133 374 132 372 L 134 368 L 139 369 Q 141 368 140 365 L 139 365 Q 132 366 131 363 L 137 360 Q 142 362 140 357 L 138 358 L 132 356 L 132 353 L 139 353 L 139 351 L 134 352 L 132 352 L 131 349 L 134 347 Q 135 344 132 345 L 131 340 L 134 341 L 139 340 Q 140 337 136 338 L 133 334 Q 138 335 139 333 L 138 330 L 137 330 L 132 329 L 130 326 L 137 325 Q 139 326 138 324 L 137 324 L 132 323 Q 129 324 130 322 L 136 319 Q 138 320 137 317 L 135 318 L 131 317 L 129 314 L 136 313 L 137 311 L 133 312 L 130 308 Q 135 309 137 306 L 132 305 L 130 301 L 135 302 L 136 299 L 130 298 Q 125 299 127 295 L 135 295 L 136 294 Q 135 291 134 293 Q 127 294 125 291 Q 124 288 127 289 Q 128 286 124 287 L 124 284 L 131 285 L 133 284 Q 136 285 135 282 L 130 283 L 128 283 L 123 280 Q 124 277 126 279 L 128 278 L 130 279 L 132 279 Q 136 280 134 276 Q 127 277 124 274 Q 121 275 122 272 L 133 272 L 134 271 L 125 270 L 123 267 L 128 266 L 125 264 L 123 261 L 125 261 Q 130 263 129 259 L 125 258 L 123 256 Q 124 253 126 255 Q 130 256 129 253 L 125 251 Q 122 252 123 250 Q 124 247 126 249 Q 131 250 133 248 L 133 246 L 127 246 L 127 242 L 126 242 L 126 244 L 124 243 L 125 241 L 132 241 L 132 239 L 125 238 L 123 235 L 131 235 L 131 232 L 129 233 L 126 232 Q 123 233 124 230 L 126 230 L 130 229 Q 132 230 131 226 Q 124 227 122 223 Q 123 220 125 222 L 130 222 Q 129 219 128 221 L 122 219 L 123 217 L 130 217 L 130 213 L 124 214 Q 121 213 123 212 L 120 211 L 125 209 L 124 208 L 122 204 L 127 203 Q 130 204 128 200 Q 127 197 122 198 L 124 195 L 128 195 L 128 190 L 123 188 Q 118 189 119 186 L 122 185 L 125 186 Q 129 188 128 184 L 127 182 L 124 183 L 118 182 Q 117 179 120 180 L 122 180 L 127 179 L 126 176 Q 118 177 119 174 L 124 173 Q 125 176 127 172 L 127 168 L 124 170 L 121 169 Q 117 170 118 167 L 125 166 Q 128 167 126 163 L 119 163 L 117 162 Q 119 159 125 160 L 126 159 L 118 157 Q 115 156 118 154 L 125 155 L 126 153 Q 124 150 119 151 L 117 150 Q 118 147 125 148 L 126 147 L 125 145 L 126 141 L 124 135 L 122 136 L 123 138 L 121 138 L 121 140 L 116 140 L 117 137 L 117 135 L 113 135 L 115 132 L 118 133 L 119 136 Q 118 138 121 137 L 122 135 Q 123 131 120 132 L 121 129 Q 122 126 120 127 Q 117 126 118 123 L 116 122 Z M 45 123 L 41 128 L 41 130 L 33 131 L 32 137 L 35 141 Q 31 142 33 150 Q 34 152 36 150 L 40 151 L 45 158 L 46 156 L 46 154 L 46 142 L 45 141 L 45 129 L 46 128 Q 47 124 45 123 Z M 82 123 L 80 127 L 81 143 L 82 144 L 81 147 L 82 150 L 83 166 L 84 164 Q 83 161 86 162 L 85 160 L 86 158 L 84 150 L 84 140 L 83 139 L 84 137 L 84 126 L 84 124 L 82 123 Z M 196 123 Q 193 128 197 127 L 196 123 Z M 159 126 Q 157 129 160 128 L 159 126 Z M 52 129 L 52 142 L 51 143 L 52 149 L 55 150 L 58 149 Q 60 142 57 141 L 58 130 L 52 129 Z M 189 129 L 184 138 L 185 140 L 189 139 L 190 134 L 189 129 Z M 182 132 L 177 143 Q 175 144 178 145 L 180 137 L 182 135 L 182 132 Z M 194 132 L 194 138 L 194 135 Q 196 133 194 132 Z M 107 135 Q 104 139 108 138 L 107 135 Z M 93 138 L 92 147 L 91 148 L 92 153 L 93 153 L 93 138 Z M 99 138 L 97 139 L 98 141 L 106 140 Q 104 136 99 138 Z M 127 138 L 127 151 L 128 152 L 127 154 Q 129 158 128 167 L 129 168 L 130 206 L 131 207 L 131 217 L 133 226 L 132 229 L 134 240 L 134 258 L 136 267 L 135 269 L 137 274 L 138 294 L 138 296 L 139 297 L 140 312 L 140 314 L 139 316 L 140 317 L 140 328 L 141 329 L 141 347 L 142 348 L 142 359 L 143 360 L 143 374 L 144 375 L 143 379 L 144 382 L 143 387 L 144 389 L 144 401 L 144 403 L 146 414 L 146 433 L 147 434 L 147 445 L 148 446 L 148 488 L 149 489 L 150 525 L 154 527 L 159 526 Q 158 523 157 525 L 155 525 L 156 521 L 160 519 L 156 514 L 158 504 L 155 502 L 154 500 Q 153 495 158 497 L 158 494 Q 154 495 153 493 L 156 492 L 157 489 L 152 486 L 153 484 L 156 485 Q 157 482 154 481 L 155 478 Q 154 475 157 476 L 156 474 Q 153 475 154 473 L 157 472 L 155 470 L 156 468 Q 155 465 154 467 Q 150 468 152 464 L 157 465 Q 159 460 155 461 L 154 458 L 155 456 L 154 453 Q 157 451 153 450 L 154 448 L 156 449 Q 157 446 153 447 L 152 444 L 154 443 L 152 438 L 153 435 Q 149 433 153 431 L 151 428 L 152 425 L 151 422 L 153 420 Q 149 418 152 417 L 151 414 L 152 410 L 151 407 L 152 404 L 150 401 L 152 398 Q 153 395 150 396 L 151 394 L 149 391 L 151 390 Q 152 387 149 388 Q 147 384 151 385 L 149 383 Q 148 380 151 381 Q 152 378 150 379 L 148 378 L 151 374 Q 148 375 149 371 Q 153 369 149 367 L 151 366 L 149 364 Q 148 361 151 362 L 149 360 L 150 356 Q 146 354 150 352 Q 151 349 148 350 Q 147 347 150 348 L 148 345 L 149 343 L 147 335 Q 146 328 149 326 L 146 325 Q 144 320 148 321 Q 149 318 146 319 L 147 317 L 146 315 L 147 313 L 144 301 L 145 299 L 144 297 L 145 294 L 143 294 L 145 293 Q 146 290 143 291 L 144 285 Q 145 282 142 283 Q 141 279 144 280 Q 145 277 142 278 Q 141 275 144 276 Q 145 273 143 274 L 142 272 Q 145 273 144 271 L 141 269 L 144 268 Q 145 263 141 265 Q 140 262 143 263 L 140 260 L 142 258 L 140 255 Q 139 249 142 247 L 142 239 L 141 238 L 142 235 Q 139 228 141 218 L 140 217 L 141 214 L 140 212 L 139 186 L 138 185 L 137 147 L 135 140 L 133 141 L 132 139 L 127 138 Z M 196 138 L 195 142 L 196 142 L 196 138 Z M 100 143 L 97 144 L 96 148 L 97 153 L 96 162 L 94 165 L 93 174 L 92 175 L 88 169 L 88 163 L 91 163 Q 92 165 93 163 L 88 158 L 85 169 L 86 172 L 85 174 L 86 177 Q 85 179 88 178 L 89 176 Q 93 178 90 180 L 90 181 L 92 182 L 92 187 L 97 186 L 99 186 L 101 185 L 96 184 L 97 177 L 100 176 Q 103 177 102 174 L 98 173 L 98 171 L 102 171 L 102 168 L 100 169 L 98 166 L 101 165 Q 103 166 102 163 L 106 164 L 106 158 L 105 157 L 105 155 L 98 155 L 98 154 L 101 152 Q 102 149 100 150 L 98 151 L 98 147 L 100 147 Q 99 144 102 145 L 101 147 Q 100 150 104 148 L 105 151 L 105 149 L 106 146 L 106 143 L 100 143 Z M 187 147 L 188 151 L 190 152 L 189 149 Q 190 146 187 147 Z M 166 148 L 162 150 L 168 150 L 168 151 Q 163 152 162 150 L 157 157 L 158 161 L 157 165 L 165 168 L 170 166 Q 171 163 168 164 L 166 164 Q 158 165 159 163 L 161 163 L 167 161 L 169 162 L 171 161 L 172 165 L 172 164 L 172 162 L 173 160 L 169 157 L 168 155 L 170 154 L 169 152 L 170 149 L 166 148 Z M 52 151 L 53 156 Q 55 155 53 154 L 56 152 L 58 154 L 58 151 L 52 151 Z M 35 152 L 34 154 L 36 153 L 36 155 L 38 155 L 36 160 Q 35 162 38 161 L 39 156 L 41 156 L 40 154 Q 39 151 35 152 Z M 58 155 L 56 156 L 56 158 Q 55 161 58 160 L 58 155 Z M 35 156 L 33 158 L 35 158 L 35 156 Z M 42 157 Q 39 161 43 160 L 42 157 Z M 53 157 L 52 160 L 53 160 L 53 157 Z M 46 162 L 44 165 L 46 166 Q 45 163 48 164 Q 49 161 46 162 Z M 174 165 L 173 168 L 174 168 L 174 165 Z M 91 169 Q 89 172 92 171 L 91 169 Z M 101 179 Q 98 183 102 182 L 101 179 Z M 108 186 Q 105 188 108 189 L 113 187 L 108 186 Z M 95 190 Q 93 198 94 211 L 93 214 L 94 220 Q 100 219 103 222 Q 105 223 104 220 Q 103 217 100 218 L 98 218 L 97 217 L 97 215 Q 96 212 99 213 Q 100 210 98 211 L 100 208 L 103 209 L 104 206 L 104 204 L 99 204 L 99 202 L 102 201 L 105 202 L 107 202 L 110 201 Q 109 198 108 200 Q 101 201 99 198 Q 97 200 96 198 L 100 195 Q 104 196 103 193 Q 99 194 98 192 Q 99 189 95 190 Z M 108 194 L 107 197 L 113 197 L 108 194 Z M 108 204 Q 107 208 112 206 Q 113 202 108 204 Z M 110 208 L 109 210 L 112 210 L 110 208 Z M 127 208 L 129 210 Q 130 207 127 208 Z M 106 221 L 106 223 L 108 222 L 106 221 Z M 96 222 L 96 225 L 102 225 L 102 224 Q 101 221 96 222 Z M 166 230 L 164 232 L 166 232 L 166 230 Z M 132 264 L 130 266 L 133 266 Q 134 263 132 264 Z M 175 296 L 174 301 L 175 301 L 175 296 Z M 118 320 Q 116 325 120 324 Q 122 319 118 320 Z M 163 356 L 162 359 L 163 359 L 163 356 Z M 234 378 L 236 383 L 237 380 L 234 378 Z M 179 409 L 179 411 L 181 410 L 179 409 Z M 237 409 L 235 411 Q 234 415 238 413 L 238 409 L 237 409 Z M 232 417 L 230 420 L 232 420 L 232 417 Z M 237 417 L 235 419 L 238 420 Q 239 416 237 417 Z M 237 424 L 235 426 L 238 427 Q 239 423 237 424 Z M 236 431 Q 235 435 238 434 Q 239 430 236 431 Z M 236 438 Q 235 441 238 440 Q 239 437 236 438 Z M 173 440 L 170 442 Q 171 444 175 443 Q 177 439 173 440 Z M 180 443 L 180 446 L 188 448 L 188 447 L 186 444 L 180 443 Z M 232 443 L 226 445 L 224 445 L 226 447 L 232 446 L 232 443 Z M 231 449 L 227 451 L 231 451 L 232 452 Q 233 448 231 449 Z M 236 449 L 236 452 Q 240 453 239 451 L 236 449 Z M 224 450 Q 223 453 226 452 Q 227 449 224 450 Z M 180 452 L 180 454 L 185 454 L 185 456 L 182 455 L 179 455 L 179 462 L 185 462 Q 184 459 180 460 L 182 457 L 187 458 L 186 454 Q 185 451 180 452 Z M 232 454 L 225 455 L 226 457 L 233 457 L 232 454 Z M 237 454 L 236 458 Q 238 461 239 458 L 237 454 Z M 173 455 L 174 456 L 175 457 Q 176 454 173 455 Z M 226 460 L 225 463 L 232 463 L 233 464 L 233 460 L 231 461 L 226 460 Z M 160 465 L 159 479 L 160 480 L 160 490 L 161 491 L 161 507 L 162 508 Q 161 516 163 520 L 174 519 Q 175 522 171 521 L 169 521 L 167 522 Q 161 520 163 526 L 157 528 Q 150 529 149 525 Q 139 528 134 535 Q 132 540 136 539 L 137 542 L 141 541 L 141 543 L 146 546 L 155 542 L 156 543 L 155 545 L 148 546 L 149 548 L 151 547 L 154 548 L 156 547 L 158 548 L 173 548 L 174 547 L 232 547 L 235 546 L 220 542 Q 217 543 218 540 L 226 537 Q 234 535 238 539 L 241 537 L 248 539 Q 249 534 245 533 L 250 530 Q 253 531 251 527 L 246 521 Q 239 522 237 518 Q 236 521 231 520 L 228 523 L 223 522 L 221 526 L 214 529 L 210 529 L 205 532 L 200 532 L 176 538 L 170 538 Q 165 537 166 531 Q 170 525 178 522 L 180 522 L 180 520 Q 184 521 186 517 Q 188 518 187 515 L 184 514 L 177 515 L 175 510 L 172 511 L 170 511 L 166 510 L 162 506 L 161 471 L 161 469 L 160 465 Z M 166 465 L 166 467 L 170 466 L 174 468 Q 176 469 175 466 Q 172 464 166 465 Z M 213 465 L 212 468 L 213 468 L 213 465 Z M 232 466 L 226 467 Q 225 470 230 469 L 232 469 L 232 466 Z M 179 468 L 179 470 L 181 471 L 187 472 L 188 470 L 187 470 L 179 468 Z M 233 472 L 231 474 L 233 474 L 233 472 Z M 180 473 L 180 477 Q 184 476 186 479 L 186 477 L 180 473 Z M 168 474 L 166 476 L 167 478 L 168 476 L 168 474 Z M 238 475 Q 238 479 240 476 L 238 475 Z M 174 477 L 175 479 Q 176 476 174 477 Z M 233 477 L 227 478 L 228 480 L 233 479 L 233 477 Z M 181 479 L 179 481 Q 180 483 184 482 Q 185 484 186 482 L 181 479 Z M 213 479 L 211 483 L 213 482 L 213 479 Z M 240 479 L 237 480 Q 236 485 240 483 L 240 479 Z M 166 480 Q 165 484 168 483 Q 169 479 166 480 Z M 210 482 L 209 484 L 205 486 L 209 487 L 210 485 L 210 482 Z M 233 482 Q 234 487 229 485 L 228 487 L 231 486 L 233 487 L 233 482 Z M 180 484 L 180 488 L 185 489 L 185 485 L 180 484 Z M 166 486 L 166 488 L 168 487 L 166 486 Z M 237 487 Q 236 490 240 489 L 241 490 Q 242 485 237 487 Z M 181 490 L 179 492 L 185 494 L 185 493 L 181 490 Z M 233 491 L 231 493 L 234 493 L 233 491 Z M 174 492 Q 172 495 175 494 L 174 492 Z M 241 492 L 240 497 L 241 497 L 241 492 Z M 179 495 L 181 498 L 184 498 L 184 504 L 181 503 Q 178 502 179 505 Q 180 507 185 506 L 184 509 Q 183 511 186 510 L 185 496 L 179 495 Z M 229 496 Q 227 499 230 498 L 229 496 Z M 231 497 Q 230 500 234 499 Q 235 496 231 497 Z M 157 498 Q 154 502 158 501 L 157 498 Z M 179 499 L 179 501 L 182 501 L 179 499 Z M 168 500 L 169 502 Q 170 499 168 500 Z M 238 500 Q 237 503 240 502 Q 241 504 242 502 L 238 500 Z M 218 502 L 217 503 Q 213 502 215 506 L 220 505 L 224 506 L 224 503 L 218 502 Z M 228 503 L 228 505 L 234 506 L 235 504 L 228 503 Z M 215 508 L 214 509 Q 211 508 212 512 Q 216 510 225 511 L 224 510 L 224 508 L 215 508 Z M 229 509 L 229 511 L 234 511 L 234 509 L 229 509 Z M 238 509 Q 236 512 239 513 Q 244 515 242 510 L 238 509 Z M 118 512 L 114 520 L 110 523 Q 111 525 109 524 L 106 528 L 98 528 L 92 533 L 82 536 L 73 536 L 72 537 L 60 533 L 54 536 L 49 536 L 31 529 L 27 535 Q 20 533 21 537 L 16 539 L 17 537 Q 19 538 18 535 L 12 536 L 10 538 L 10 549 L 111 549 L 122 540 L 128 539 Q 130 538 129 535 L 141 527 L 142 524 L 135 523 L 128 520 L 118 512 Z M 206 513 L 207 518 L 206 521 L 207 524 L 208 524 L 208 514 L 206 513 Z M 217 513 L 214 515 L 211 514 L 213 517 L 218 515 L 224 516 L 226 519 L 226 514 L 224 515 L 220 514 L 217 513 Z M 233 514 L 231 516 Q 233 519 234 516 Q 235 513 233 514 Z M 266 515 L 264 518 L 256 522 L 257 527 L 256 531 L 271 541 L 278 541 L 294 548 L 296 547 L 334 547 L 334 524 Q 331 522 324 523 L 321 521 Q 318 522 319 519 L 316 519 L 313 516 L 309 515 L 302 521 L 296 523 Q 291 524 290 521 L 287 523 L 272 519 L 266 515 Z M 194 518 L 191 520 L 187 519 L 173 528 L 170 532 L 173 537 L 173 535 L 176 534 L 187 533 L 192 529 Q 191 524 196 526 L 194 524 L 196 520 Q 197 517 194 518 Z M 213 518 L 211 522 Q 214 523 213 520 L 219 519 L 213 518 Z M 161 522 L 159 524 Q 158 526 161 525 L 161 522 Z M 251 532 L 252 534 Q 253 531 251 532 Z M 253 534 L 253 539 L 248 542 L 244 540 Q 240 539 239 542 Q 238 544 241 543 L 242 546 L 242 547 L 278 547 Q 275 543 268 544 L 253 534 Z M 229 538 L 223 540 L 225 541 L 236 542 L 237 543 Q 239 544 238 541 L 235 541 L 229 538 Z M 126 543 L 119 545 L 118 548 L 140 548 Q 141 545 139 546 L 137 546 L 134 545 L 132 546 Q 126 547 126 543 Z M 320 549 L 319 550 L 193 550 L 191 550 L 189 551 L 175 551 L 174 550 L 172 551 Q 166 553 165 550 L 152 550 L 150 551 L 147 550 L 142 551 L 131 551 L 130 550 L 129 551 L 90 551 L 89 552 L 86 551 L 84 551 L 79 552 L 77 551 L 76 552 L 11 552 L 11 566 L 10 567 L 10 592 Q 11 594 13 592 Q 17 591 19 593 L 137 592 L 138 591 L 140 592 L 213 592 L 214 591 L 226 591 L 229 592 Q 233 593 235 591 Q 240 590 242 592 L 243 591 L 312 591 L 314 591 L 323 591 L 324 592 L 329 591 L 331 591 L 334 591 L 334 550 L 321 550 L 320 549 Z "></path><path d="M 193.5 16 L 197 17.5 Q 194.6 20.1 188.5 19 L 185 22.5 L 182 28.5 L 183 31 Q 185.7 29.9 185 32.5 Q 185.5 36.5 190.5 36 L 192.5 36 Q 198.3 34.3 197 38 L 187.5 39 L 182.5 38 L 180.5 39 L 177.5 38 L 152 40 L 152 37 L 160 37 L 160 22.5 L 159 20 Q 152.9 21.7 151 18.5 L 153.5 17 L 154.5 18 L 166.5 18 L 169.5 17 L 192.5 17 L 193.5 16 Z M 179 19 L 177 21 L 180 24 L 182 20 L 179 19 Z M 166 20 L 164 22 L 165 24 L 165 36 L 167 37 L 172 36 L 177 29 L 176 26 L 173 24 L 172 22 Q 172 18 166 20 Z M 178 32 L 177 36 L 180 35 Q 182 36 181 34 L 178 32 Z "></path><path d="M 48.5 57 L 52 57.5 L 45.5 59 L 45.5 58 L 48.5 57 Z "></path><path d="M 122.5 76 L 124 79.5 L 123 79.5 L 122.5 76 Z "></path><path d="M 151.5 77 L 154 77.5 L 151.5 78 L 151.5 77 Z "></path><path d="M 134.5 83 L 136 83.5 L 134 84 L 133.5 88 L 132 85.5 L 134.5 83 Z "></path><path d="M 148.5 85 Q 153.5 84.5 154 88.5 L 152.5 89 L 148.5 85 Z "></path><path d="M 148.5 88 L 152 90.5 L 150.5 91 L 148.5 88 Z "></path><path d="M 143.5 89 Q 147.3 88 146 91 Q 142.2 90.3 141 93.5 L 144.5 95 L 147 93.5 L 144.5 98 L 142 96.5 Q 142.8 93.9 139.5 95 L 138 93.5 L 141.5 90 L 143.5 89 Z "></path><path d="M 158.5 89 L 163 92.5 L 164 94.5 L 161 92.5 Q 161.8 90.3 159.5 91 L 158.5 89 Z "></path><path d="M 153.5 91 L 160 93.5 L 158 96.5 L 159 101.5 L 158 101.5 L 157 96.5 L 158 93.5 Q 156.3 95.1 154.5 92 L 153.5 91 Z "></path><path d="M 188.5 91 Q 193.3 90.3 194 93.5 Q 195.1 96.8 192.5 96 L 187 92.5 L 188.5 91 Z "></path><path d="M 166.5 94 L 170 95.5 L 167.5 96 L 166.5 94 Z "></path><path d="M 162.5 101 Q 166.9 99.5 166 102.5 L 167 105.5 L 165.5 109 L 164 105.5 L 165 103.5 Q 163.5 100.5 162 103.5 L 161.5 107 Q 159.8 104.2 154.5 105 L 152.5 106 L 153.5 104 L 159.5 104 L 160 102 L 161.5 102 L 162.5 101 Z "></path><path d="M 169.5 101 L 172.5 103 Q 174.3 100.2 176 104.5 L 177 110.5 L 174 119 L 172 118.5 Q 176 114.5 176 106.5 L 174 105.5 L 173.5 112 L 171.5 109 Q 170.3 111.2 169 108.5 L 168 105.5 L 171 105 L 169.5 101 Z M 170 106 Q 169 109 172 108 Q 173 105 170 106 Z "></path><path d="M 194.5 101 Q 196.8 100.3 196 102.5 L 198 106.5 L 194 109 L 194 105.5 L 192 102 L 194.5 101 Z "></path><path d="M 148.5 104 L 149 105.5 L 147 106.5 L 148.5 104 Z "></path><path d="M 154.5 108 L 158 109.5 L 156.5 112 L 153.5 110 L 152 110.5 Q 151.3 108.3 153.5 109 L 154.5 108 Z M 156 109 L 157 111 Q 158 108 156 109 Z "></path><path d="M 161 111 L 164 112.5 Q 165.1 115.8 162.5 115 L 161 111 Z "></path><path d="M 167.5 112 L 169 114.5 L 166 116 L 167.5 112 Z "></path><path d="M 154.5 113 L 156 116 L 153.5 117 Q 150 115 154.5 113 Z "></path><path d="M 172.5 113 L 173 114.5 Q 169.4 115.9 170 121.5 Q 172.8 122.6 172 126 Q 174.7 124.9 174 127.5 L 170 124.5 L 168 119.5 L 172.5 113 Z "></path><path d="M 75.5 117 L 76 119 L 69.5 123 L 69 121 L 75.5 117 Z "></path><path d="M 20.5 119 L 22.5 122 L 20 121 L 20.5 119 Z "></path><path d="M 12.5 120 L 16 121.5 L 13.5 122 L 12.5 120 Z "></path><path d="M 150.5 120 L 153 123.5 L 151.5 124 Q 149 123 150.5 120 Z "></path><path d="M 37.5 122 L 40 123.5 L 39.5 125 L 37.5 122 Z "></path><path d="M 175.5 123 Q 177.8 122.3 177 124.5 L 178 126.5 L 177 129 L 175 128.5 L 176 124.5 L 175.5 123 Z "></path><path d="M 128.5 125 L 131 125.5 L 128.5 126 L 128.5 125 Z "></path><path d="M 131 130 L 135 131.5 L 131 132 L 131 130 Z "></path><path d="M 20 134 Q 23 133 22 136 Q 19 137 20 134 Z "></path><path d="M 162.5 136 L 166 137.5 L 164.5 138 L 162.5 136 Z "></path><path d="M 72.5 138 L 76 138.5 Q 74.8 141.3 69.5 140 L 69.5 139 L 72.5 138 Z "></path><path d="M 121.5 141 L 124 142 L 124 145 L 117.5 145 Q 114.5 143.5 117.5 142 L 119.5 143 L 121.5 141 Z "></path><path d="M 132 144 Q 135.5 142.9 134 150.5 L 133 150.5 L 132 144 Z "></path><path d="M 69.5 145 Q 73.3 144 72 147 L 69.5 145 Z "></path><path d="M 134.5 153 L 135.5 155 Q 132.7 155.7 134.5 153 Z "></path><path d="M 161.5 153 L 163 156.5 L 162.5 158 L 169.5 158 L 170 159.5 L 168.5 159 L 161 160 L 160 154.5 L 161.5 153 Z "></path><path d="M 23.5 154 L 23 155.5 L 22 159 L 24 159.5 L 21.5 163 L 20.5 158 L 17 160.5 L 21 155 L 23.5 154 Z "></path><path d="M 69.5 155 L 76 157 Q 77.1 159.7 74.5 159 L 69.5 156 L 69.5 155 Z "></path><path d="M 15.5 156 L 13.5 159 L 12 158.5 L 15.5 156 Z "></path><path d="M 66.5 156 Q 68.8 155.3 68 157.5 L 66.5 156 Z "></path><path d="M 189.5 156 L 195 170.5 L 195 184.5 L 192.5 186 L 191 184.5 L 191 173.5 L 187 158.5 L 189.5 156 Z "></path><path d="M 100 157 Q 103.8 156.3 105 159.5 Q 105.8 161.8 103.5 161 L 100 160 L 100 157 Z "></path><path d="M 134 157 Q 137 156 136 159 Q 133 160 134 157 Z "></path><path d="M 70 158 Q 72.7 156.9 72 159.5 L 76 162.5 L 75.5 164 L 70 159.5 L 70 158 Z "></path><path d="M 134 161 Q 137.3 159.9 136 164 Q 132.7 165.1 134 161 Z "></path><path d="M 69 162 Q 71.7 160.9 71 163.5 L 74 168.5 L 72 169.5 L 69 162 Z "></path><path d="M 17.5 165 L 18 167 L 16 166.5 L 17.5 165 Z "></path><path d="M 21.5 165 L 22 168.5 L 21 168.5 L 21.5 165 Z "></path><path d="M 135.5 168 L 137 170.5 L 136 170.5 L 135.5 168 Z "></path><path d="M 135 173 L 137 173.5 L 137 180.5 L 136 180.5 L 135 173 Z "></path><path d="M 136.5 185 L 137 189.5 L 136 189.5 L 136.5 185 Z "></path><path d="M 159 194 L 168.5 196 Q 169.7 193.8 171 196.5 Q 169.5 199.5 163.5 198 L 160.5 197 L 159 197.5 L 159 194 Z "></path><path d="M 173.5 194 L 174 199 Q 171 200.3 172 196.5 L 173.5 194 Z "></path><path d="M 137.5 198 L 138 202.5 L 137 202.5 L 136 200.5 L 137.5 198 Z "></path><path d="M 160 201 L 171 202 L 169.5 205 L 160 204 L 160 201 Z "></path><path d="M 97.5 204 L 98.5 206 L 97.5 204 Z "></path><path d="M 157.5 204 L 159 207 Q 168 205.9 173 208 L 174.5 205 L 175 212 Q 170.2 208.9 161 210 L 160 216 L 157 214.5 L 158 209.5 L 156 205.5 L 157.5 204 Z "></path><path d="M 137.5 208 L 139 209.5 L 139 218.5 L 139 220.5 L 138.5 222 Q 136.3 220.3 137 215.5 L 138 213.5 L 137 211.5 L 137 209.5 L 137.5 208 Z "></path><path d="M 162.5 213 Q 169.2 212.3 172.5 215 L 174.5 214 Q 177.3 215.3 175 216.5 L 174.5 218 Q 173 214.5 171.5 217 L 163.5 216 L 161 217 L 162.5 213 Z "></path><path d="M 138.5 223 L 139.5 225 Q 136.7 225.7 138.5 223 Z "></path><path d="M 139.5 227 L 140 229 L 138 228.5 L 139.5 227 Z "></path><path d="M 139.5 236 L 140 238.5 L 139 238.5 L 139.5 236 Z "></path><path d="M 176.5 240 L 180 247 L 174 248 L 173 242.5 L 176.5 240 Z "></path><path d="M 176 250 Q 179.8 249 181 251.5 Q 181.8 254.1 178.5 253 Q 177.3 255.2 176 252.5 L 176 250 Z "></path><path d="M 178 256 L 182 257.5 Q 182.8 259.8 180.5 259 L 178 260 L 178 256 Z "></path><path d="M 181.5 266 L 183 268.5 L 181 269 L 181.5 266 Z "></path><path d="M 179 271 Q 182.8 270 184 272.5 L 180.5 275 L 179 271 Z "></path><path d="M 180 277 L 188 278 L 188 281 L 180 281 L 180 277 Z "></path><path d="M 182.5 283 Q 186.3 282.3 187 284.5 Q 187.8 287.1 184.5 286 L 181 287 L 182.5 283 Z "></path><path d="M 180.5 289 L 188.5 289 L 190 290.5 Q 190.8 293.1 187.5 292 L 190 295.5 L 189 296.5 L 190 301 L 183.5 302 L 182 298 L 185 297.5 L 182 295.5 L 180.5 289 Z "></path><path d="M 184 304 Q 189.4 302.5 191 305.5 L 190 311.5 L 193 320.5 L 193 326 L 200 328.5 Q 198.8 331.3 193.5 330 L 192 327 Q 188.3 328.4 190 322.5 L 188 313.5 L 189 311.5 L 188 308 Q 184.2 309.5 185 306.5 L 184 304 Z "></path><path d="M 197 318 L 205 319.5 Q 204.3 322.8 199.5 322 L 196 320.5 L 197 318 Z "></path><path d="M 173 325 Q 176.8 323.5 176 326.5 L 177 328.5 Q 175.8 331.3 174.5 329 L 172 327.5 L 173 325 Z "></path><path d="M 164 327 Q 166.7 325.9 166 328.5 L 165 329.5 L 165 336 Q 159.8 337.8 162 330.5 L 164 327 Z "></path><path d="M 202 327 L 212.5 328 L 214 329.5 Q 212.8 332.3 207.5 331 L 205.5 330 L 203.5 331 L 202 327 Z "></path><path d="M 173.5 330 Q 176.8 331.2 176 335 L 172 334 L 173.5 330 Z "></path><path d="M 195 332 L 206.5 333 L 209.5 332 L 215 333.5 Q 213.3 337.3 207 336.5 L 219.5 338 L 221.5 338 Q 224.1 337.3 223 340 L 214.5 342 L 199 342 L 199 338 L 200.5 338 L 202.5 338 L 206 337.5 L 202.5 336 L 195 336 L 195 332 Z "></path><path d="M 172 337 L 176 337 L 176 338.5 L 176.5 340 L 174.5 341 L 172 340 L 172 337 Z "></path><path d="M 231.5 341 Q 235.3 339.8 234 343.5 L 231.5 348 L 209.5 348 L 204.5 349 L 201 348 L 202.5 344 L 208 345 Q 206.9 342.3 209.5 343 L 210.5 344 L 219.5 344 L 222.5 343 Q 224.3 345.8 230.5 344 L 231.5 341 Z "></path><path d="M 173.5 342 Q 176.1 341.2 175 344.5 L 172 346 L 173.5 342 Z "></path><path d="M 174 347 Q 177 345.8 176 349.5 Q 172.5 351 175 352.5 Q 175.9 355.5 171.5 354 L 170 351 Q 173.8 352.5 173 349.5 L 174 347 Z "></path><path d="M 203.5 350 L 205.5 350 L 215.5 350 L 222.5 352 L 231.5 352 L 233 353.5 L 234 356.5 L 232.5 357 L 209.5 353 L 205.5 353 Q 201.1 354.1 203.5 350 Z "></path><path d="M 169 356 Q 173.6 354.8 175 357.5 L 174.5 359 L 169 359 L 169 356 Z "></path><path d="M 206.5 356 Q 219 354.4 225 358 L 224.5 360 L 206.5 360 L 205 357.5 L 206.5 356 Z "></path><path d="M 186.5 358 L 190 360.5 L 188.5 363 Q 184.8 363.8 184 361.5 L 186.5 358 Z "></path><path d="M 230.5 358 Q 234.3 356.8 233 360.5 Q 236.8 362.3 233.5 364 L 230 362.5 L 229 359.5 L 230.5 358 Z "></path><path d="M 169 362 L 175 363 Q 176.3 366 172.5 365 L 170.5 366 L 169 362 Z "></path><path d="M 208 362 Q 221.7 360.5 230 364 Q 231.8 369.3 224.5 367 L 223.5 366 L 208 366 L 208 362 Z "></path><path d="M 186 365 Q 189.8 364.3 191 367.5 Q 189.6 370.3 185 369 L 186 365 Z "></path><path d="M 213.5 368 L 228 370 L 230 373.5 L 230 376.5 Q 228.5 379.5 227 376.5 Q 228.8 370.4 221.5 373 Q 219.8 370.3 213.5 372 Q 212.3 374.3 211 371.5 Q 209.9 368.2 212.5 369 L 213.5 368 Z "></path><path d="M 189.5 371 L 190 374 Q 187.3 375.1 188 372.5 L 189.5 371 Z "></path><path d="M 216 375 L 225 376 Q 226.1 378.7 223.5 378 L 222.5 379 L 216 379 L 216 375 Z "></path><path d="M 216.5 381 L 224 383 L 221 391.5 L 224 392.5 Q 225.1 395.8 222.5 395 L 220.5 396 L 218 395 L 217 391.5 L 219 388.5 L 218 386 L 214 385 L 216.5 381 Z "></path><path d="M 180.5 383 L 181 384.5 L 179 385.5 L 180.5 383 Z "></path><path d="M 179.5 388 L 182 389 L 180.5 392 Q 177 392.8 179.5 388 Z "></path><path d="M 181.5 393 L 183 397 Q 178.9 398.7 180 394.5 L 181.5 393 Z "></path><path d="M 180 400 L 184 401.5 L 182.5 404 Q 177.9 405.2 180 400 Z "></path><path d="M 217 410 L 224 410 L 224 414 L 217 415 L 217 410 Z "></path><path d="M 208.5 412 Q 212.3 410.8 211 414.5 L 211 416.5 L 209.5 420 Q 206.1 420.9 208 415.5 L 209 413.5 L 208.5 412 Z "></path><path d="M 208.5 421 L 212 422 L 211 428 L 208.5 429 L 207 425.5 L 208.5 421 Z "></path><path d="M 169 427 L 173 427.5 L 173 429.5 Q 173.8 433.3 171.5 434 L 168 431.5 L 169 427 Z "></path><path d="M 218.5 431 Q 226.3 428.6 224 435 L 218 436 L 217 432.5 L 218.5 431 Z "></path><path d="M 309.5 442 L 316 444.5 L 315 448 L 312.5 449 Q 311.2 446.8 310 449.5 L 310.5 451 L 311.5 450 L 318 450 Q 319.1 452.7 316.5 452 L 316.5 453 L 322 453.5 L 320.5 455 L 310 455 L 310 458 L 324.5 458 L 325 461 L 326.5 461 L 328 463.5 L 325.5 466 L 313.5 468 L 310 467.5 L 310 481.5 L 311 482.5 L 312 497.5 Q 310.8 500.3 309.5 498 Q 306.1 498.9 308 493.5 L 308 491.5 Q 309.4 482.6 307 477.5 L 307 475.5 L 307 468.5 L 304.5 468 L 302 473.5 L 303 476 Q 297.8 477.8 300 470.5 L 302.5 467 L 307 466 Q 308.1 462.5 300.5 464 L 299 460.5 Q 300.5 456.8 306 458 L 306 456 L 300 456 L 300 452 L 306 451 L 307 443 L 309.5 442 Z M 309 445 L 310 447 L 313 446 L 309 445 Z M 311 452 L 311 453 L 315 453 L 311 452 Z M 302 460 Q 301 464 306 462 Q 307 458 302 460 Z M 310 460 L 310 462 L 312 461 L 310 460 Z M 318 462 L 317 463 Q 309 462 310 465 Q 319 466 325 464 Q 323 460 318 462 Z "></path><path d="M 314.5 470 L 318 471.5 L 315.5 475 L 313 473.5 L 314.5 470 Z "></path><path d="M 198 490 Q 206 488.3 209 492.5 L 205.5 494 L 201.5 492 L 199.5 492 Q 196.9 492.7 198 490 Z "></path><path d="M 151.5 513 L 153 515.5 L 151.5 519 L 151.5 513 Z "></path><path d="M 164 556 L 170.5 556 L 172 557.5 L 171 566 L 178 566 L 178 557.5 L 179.5 557 L 184 556 L 183 564.5 L 183 566.5 Q 182.1 575.1 185 579 Q 179.6 580.5 178 577.5 L 178 568 L 172.5 568 Q 169.5 569.5 171 575.5 L 172 579 L 165.5 579 L 165 577.5 L 166 576.5 L 166 564.5 L 165 562.5 L 166 560.5 Q 163.3 559.4 164 556 Z "></path><path d="M 187 556 L 201.5 556 L 203 557.5 L 202 564 Q 199.3 565.1 200 562.5 L 199 559 L 195.5 558 Q 192.5 559.5 194 565.5 L 196 566.5 Q 195.3 564.3 197.5 565 Q 198.8 562.8 200 565.5 L 200 571 L 197.5 571 L 195 569.5 Q 193.8 574.8 196.5 576 Q 200.3 576.8 201 574.5 Q 200.2 571.5 204 573 Q 205.3 577.6 202.5 579 L 187 578.5 L 189 576.5 L 189 562.5 L 187 556 Z "></path><path d="M 211.5 556 L 215.5 557 L 220.5 556 L 224.5 557 L 227 559.5 Q 227.7 566.2 224 568.5 L 232 577.5 L 229.5 579 L 223 574.5 L 218.5 568 L 217 568.5 L 217 575.5 L 218 578 L 210 578 L 210 559.5 L 208.5 557 L 211.5 556 Z M 216 558 L 217 561 L 216 563 L 217 566 L 221 567 L 222 565 L 221 560 Q 220 557 216 558 Z "></path><path d="M 232 556 Q 234.4 557.8 240.5 557 L 242 558.5 L 248.5 570 L 254 560.5 L 254 557 L 260.5 557 L 261 558.5 L 259 567.5 L 259 577 L 262 577.5 L 255.5 579 L 254.5 566 L 248.5 576 Q 244.8 576.8 244 574.5 L 240 568.5 L 240 566 L 238 566.5 Q 240.8 568.3 239 574.5 Q 236.8 575.8 239.5 577 Q 242.1 576.3 241 579 L 234 578.5 L 235 577.5 L 235 559 Q 230.5 560.5 232 556 Z "></path><path d="M 287.5 556 L 288.5 557 L 301 557 L 302 560.5 Q 300.8 563.8 297 563 L 295.5 560 L 294 560.5 L 294 577 L 296 577.5 L 291.5 579 L 289.5 579 Q 283.6 580.7 285 577 L 287 576.5 L 287 560 L 283 561.5 Q 283.8 564.1 280.5 563 Q 277.8 561.6 279 557 L 286.5 557 L 287.5 556 Z "></path><path d="M 65.5 557 L 71.5 558 L 73.5 558 L 78.5 557 L 84 559.5 Q 84.8 563.3 82.5 564 L 79.5 560 L 76 560.5 L 76 577.5 L 78 581 L 66.5 581 L 66 579 L 68 578.5 L 68 564.5 L 69 562.5 L 68 560 L 65 561.5 L 63.5 565 Q 59.8 563.5 61 558 L 65.5 557 Z "></path><path d="M 108.5 557 Q 110.8 556.3 110 558.5 L 107 562.5 L 108 567.5 L 107 570.5 L 109 581 L 104.5 580 L 100.5 581 L 99.5 579 L 102 577.5 L 101 568 L 93.5 568 L 93 569.5 Q 90.3 571.3 92 577.5 L 95 579.5 L 89.5 581 L 87.5 580 L 85 581 L 87 577.5 L 87 563.5 L 86 561.5 L 87 560.5 L 85.5 558 L 92.5 558 L 93 559.5 L 92 564.5 Q 93.8 567.8 100.5 566 Q 103 565 102 560.5 L 100.5 558 Q 106.7 559.8 108.5 557 Z "></path><path d="M 114.5 557 L 131 558 L 131 563 L 128.5 563 L 125.5 560 L 121 560.5 L 121.5 568 L 123 564 L 126 565.5 L 126 573.5 L 124.5 574 L 123 570 L 121 570.5 L 121 579 L 127 579 L 127 576.5 L 130.5 574 Q 133.3 575.3 131 576.5 L 130 581 L 121.5 581 L 120.5 580 L 118.5 581 L 114 580 L 114 567.5 L 115 565.5 L 113 558.5 L 114.5 557 Z "></path><path d="M 266 557 L 275 557 L 275 576.5 L 275.5 578 L 268 577.5 L 268 575.5 L 268 559.5 Q 265.3 560.1 266 557 Z "></path><path d="M 306.5 573 L 309 574 L 307.5 577 L 304 578 Q 303.3 574.2 306.5 573 Z "></path><path d="M 340.5 589 L 341 591.5 L 340 591.5 L 340.5 589 Z "></path></svg>