<svg width="350" height="600" version="1.1" xmlns="http://www.w3.org/2000/svg" desc="Created with imagetracer.js version 1.2.5"><path d="M 7.5 5 L 16.5 5 L 17.5 6 L 19.5 5 L 20.5 6 L 31.5 6 L 33.5 5 L 34.5 6 L 111.5 6 L 112.5 5 L 121.5 5 L 123.5 6 L 125.5 5 L 127.5 5 L 237.5 5 L 238.5 6 L 240.5 5 L 243.5 6 L 246.5 5 L 257.5 6 L 261.5 5 L 263.5 6 L 265.5 5 L 268.5 6 L 270.5 5 L 272.5 6 L 273.5 5 L 328.5 5 L 331.5 6 L 333.5 5 Q 335.8 6.8 335 11.5 L 335 13.5 Q 332.3 19.8 334 30.5 L 335 33.5 L 334 36.5 L 334 150.5 L 335 151.5 L 334 153.5 L 335 157.5 L 334 162.5 L 335 165.5 L 335 181.5 L 334 182.5 Q 336.5 184 335 189.5 L 334 191.5 L 335 192.5 L 335 204.5 L 334 207.5 L 335 210.5 L 334 215.5 L 335 216.5 L 335 234.5 L 334 236.5 L 335 239.5 L 335 241.5 L 335 332.5 L 334 333.5 L 335 334.5 L 335 352.5 L 336 354.5 Q 333.7 355.8 335 360.5 L 336 363.5 L 335 365.5 L 335 377.5 L 335 379.5 L 336 382.5 L 335 383.5 L 335 405.5 L 336 408.5 L 336 410.5 L 335 412.5 L 335 427.5 L 336 429.5 L 335 430.5 L 335 438.5 L 336 442.5 L 336 444.5 L 336 477.5 L 337 478.5 L 337 487.5 L 336 489.5 L 336 491.5 L 337 499.5 Q 334.3 501.3 336 507.5 L 337 511.5 L 336 513.5 L 337 514.5 L 337 556.5 L 336 558.5 L 337 559.5 L 337 587.5 L 336 590 L 325.5 591 L 323.5 590 L 320.5 591 L 317.5 590 L 315.5 591 L 310.5 590 L 305.5 591 L 302.5 590 L 297.5 591 L 294.5 590 L 292.5 591 L 264.5 591 L 263.5 592 L 259.5 591 L 258.5 592 L 232.5 592 L 231.5 593 L 229.5 592 L 227.5 593 Q 226 590.5 220.5 592 L 218.5 592 L 213.5 593 L 209.5 592 L 207.5 592 L 194.5 592 L 192.5 593 L 191.5 592 L 168.5 592 L 166.5 593 L 162.5 592 L 161.5 593 L 109.5 593 L 108.5 594 L 106.5 593 L 104.5 594 L 100.5 593 L 98.5 593 L 95.5 594 L 7 594 L 7 515.5 L 6 513.5 L 7 509.5 L 6 504.5 L 7 502.5 L 6 500.5 L 7 498.5 Q 4.5 497 6 491.5 L 7 488.5 L 6 487.5 L 6 464.5 L 5 463.5 L 6 462.5 L 6 435.5 L 6 433.5 L 5 405.5 L 6 404.5 L 6 379.5 L 5 378.5 L 5 355.5 L 6 354.5 L 6 296.5 L 5 294.5 L 5 292.5 L 6 158.5 L 6 156.5 L 5 145.5 L 5 143.5 L 6 137.5 Q 3.7 136.2 5 131.5 L 6 130.5 L 6 108.5 L 5 105.5 Q 7.5 104 6 98.5 L 5 97.5 L 5 6 L 7.5 5 Z M 156 6 L 155 7 L 132 7 L 136 13 L 138 19 L 138 29 L 134 39 Q 128 46 118 49 Q 116 47 112 48 L 109 52 L 114 52 L 117 54 Q 121 58 121 65 L 125 64 Q 134 62 136 68 L 136 67 L 143 61 L 149 64 L 154 62 L 163 62 L 164 63 L 170 52 L 179 45 Q 185 43 187 46 L 189 45 L 191 43 L 190 40 L 194 42 L 198 49 L 202 51 Q 201 56 205 57 L 205 56 L 207 54 L 204 49 L 208 51 L 210 47 Q 206 48 204 45 L 202 46 L 195 41 L 194 39 L 197 41 L 197 38 Q 200 37 199 40 Q 203 44 210 45 Q 211 48 213 44 L 208 36 L 208 33 L 198 31 Q 193 26 185 24 L 182 25 L 178 25 L 181 23 L 188 23 L 199 28 L 205 24 L 211 24 L 215 14 L 221 10 L 222 7 L 206 7 L 204 6 L 202 6 L 199 7 L 189 7 L 188 6 L 185 7 Q 180 8 179 6 L 173 7 L 171 7 L 157 7 L 156 6 Z M 275 6 L 271 10 L 269 10 L 267 10 L 262 8 L 258 8 L 251 12 Q 252 16 249 17 L 245 16 L 243 14 L 237 9 Q 230 11 229 8 L 219 13 L 215 19 Q 216 25 213 28 L 209 26 Q 204 25 203 29 L 207 29 Q 212 31 213 38 L 220 43 L 222 43 L 221 42 L 227 35 Q 230 36 229 33 L 236 27 Q 241 29 243 26 L 244 27 Q 241 30 235 29 Q 230 30 231 36 L 227 37 L 225 40 L 234 38 L 234 40 Q 231 39 232 42 L 232 43 L 240 39 Q 244 38 245 42 L 242 52 L 234 63 L 234 76 L 239 86 L 248 93 L 252 94 L 253 97 Q 252 99 255 98 L 254 92 L 257 90 L 257 99 Q 262 104 264 114 Q 266 113 265 109 Q 268 108 267 111 L 269 110 L 271 111 L 272 108 Q 269 101 271 91 L 269 86 L 272 85 Q 274 81 269 82 L 267 80 L 267 78 Q 269 72 266 73 L 264 70 L 261 69 L 261 64 L 265 58 L 266 40 L 267 39 Q 266 36 269 37 L 271 31 L 278 29 L 277 31 L 281 34 L 280 34 L 278 34 L 278 35 L 282 35 L 282 38 Q 293 37 299 31 L 296 29 L 296 28 L 301 29 L 307 26 Q 309 25 308 28 L 302 30 L 300 33 L 300 35 L 301 36 L 315 28 Q 317 27 316 23 Q 322 23 325 19 Q 326 16 324 17 L 324 16 L 328 17 L 327 19 L 322 22 L 318 27 L 317 33 L 313 38 L 305 45 L 306 47 L 302 54 L 299 55 L 297 63 L 289 70 Q 286 69 287 74 L 280 79 L 284 84 Q 285 86 283 85 L 281 88 L 285 90 L 284 93 L 285 95 L 289 96 L 294 93 L 293 90 L 293 86 L 296 79 Q 302 72 314 71 L 316 71 L 321 70 L 323 70 L 327 72 Q 330 74 330 79 L 327 76 Q 324 77 325 74 L 322 73 L 312 73 L 310 75 L 305 76 Q 302 75 303 78 L 300 79 L 297 84 L 297 90 L 299 95 Q 301 96 299 97 L 297 96 L 293 98 L 300 100 L 312 101 L 315 100 L 319 101 L 328 99 L 328 103 L 321 106 L 319 109 L 316 111 L 314 114 L 312 115 L 309 114 L 307 115 L 302 113 L 292 113 L 286 110 L 281 110 L 275 106 Q 272 105 273 112 L 271 112 L 272 114 L 270 117 L 274 118 L 275 125 L 269 121 L 265 121 L 259 127 Q 260 129 257 128 L 251 143 L 246 140 L 241 140 L 240 138 L 239 138 L 239 137 Q 244 136 247 139 Q 247 134 250 132 L 250 125 L 253 124 Q 255 125 254 122 L 250 123 L 248 126 L 245 125 L 245 121 Q 248 122 247 119 Q 245 115 239 115 L 237 120 Q 236 117 232 117 L 232 116 Q 236 117 234 113 L 242 109 L 250 110 L 251 112 L 246 110 L 242 110 L 240 113 L 242 112 Q 247 111 249 114 L 251 113 L 252 115 L 254 112 L 248 103 L 247 98 L 233 97 Q 231 95 230 98 L 230 108 L 231 109 L 231 115 L 221 126 Q 217 125 219 129 L 222 130 L 224 129 L 231 131 L 236 131 L 237 133 L 220 130 L 218 130 L 218 134 L 230 135 L 230 136 L 218 135 Q 213 133 216 132 L 215 130 L 229 115 Q 231 108 228 107 L 228 97 L 230 95 L 246 97 L 245 94 L 235 84 L 235 82 L 233 83 L 229 80 L 226 80 L 222 77 Q 221 74 224 75 L 226 78 L 226 74 L 222 73 L 219 69 L 211 66 L 212 64 L 218 68 L 222 68 L 223 69 L 222 65 L 219 66 L 217 66 L 216 63 L 210 62 L 187 106 L 193 111 L 193 113 L 191 112 L 187 107 L 180 118 L 180 120 Q 183 119 182 122 L 175 121 L 178 118 L 207 65 L 207 63 L 172 122 L 169 122 L 170 120 L 168 121 L 168 123 Q 165 122 166 125 L 164 125 L 158 134 L 159 137 L 162 132 L 163 133 L 161 136 L 162 140 L 166 134 L 167 137 L 169 136 L 170 138 L 170 137 L 173 135 L 177 130 Q 187 132 193 138 L 198 138 L 203 134 Q 202 120 194 114 L 196 113 L 203 124 L 205 134 L 204 136 L 197 140 L 191 139 L 182 133 L 177 133 L 172 136 L 171 140 L 166 144 L 170 146 L 182 138 L 187 140 L 188 143 L 186 143 L 182 141 L 175 144 Q 169 148 168 156 L 171 165 L 175 168 L 186 172 Q 188 173 187 177 L 190 178 Q 194 180 193 187 L 193 188 L 196 187 Q 198 186 197 189 L 199 188 L 213 194 Q 214 197 216 193 L 227 198 L 235 196 L 238 191 Q 239 182 236 179 L 230 173 L 217 169 L 216 173 L 227 176 Q 232 179 232 189 L 228 193 L 225 193 L 223 193 L 215 190 L 211 192 L 212 189 Q 213 182 210 180 L 211 175 L 214 173 L 215 167 L 213 162 L 204 151 L 197 145 L 194 141 L 197 141 L 205 146 L 215 161 L 216 167 L 235 174 L 240 182 Q 239 186 241 188 L 238 196 Q 235 200 228 199 L 226 199 L 224 200 L 242 213 Q 241 215 244 214 L 255 225 L 254 219 L 257 218 L 259 225 L 263 230 L 273 235 L 285 235 L 293 231 L 297 225 L 300 216 L 304 213 L 301 221 L 301 228 L 304 234 L 313 237 L 323 234 Q 324 237 322 236 L 319 240 L 320 247 Q 323 251 330 250 Q 328 252 329 258 L 332 260 L 332 196 L 331 193 L 331 191 Q 330 186 332 185 L 331 183 L 332 178 L 332 176 L 331 171 L 332 166 L 332 164 L 331 158 L 331 156 Q 330 150 332 149 L 331 147 L 331 120 L 332 119 L 331 117 L 331 36 L 332 35 L 331 33 L 331 23 L 332 22 L 330 13 L 332 9 L 332 7 L 325 7 L 323 7 L 320 8 L 319 7 L 288 7 L 292 14 L 292 19 L 305 14 L 307 15 L 302 17 Q 303 19 305 17 L 307 18 L 312 16 L 311 18 L 312 19 L 315 18 L 315 19 L 313 20 L 313 25 L 310 26 L 310 25 Q 311 20 309 19 L 306 20 L 303 19 L 301 20 Q 298 19 299 22 L 305 21 Q 308 20 306 24 L 302 26 L 299 26 L 301 25 L 302 23 Q 297 22 296 24 L 294 24 L 301 19 L 302 17 L 289 22 L 287 22 L 289 17 L 285 11 L 275 6 Z M 10 7 Q 7 8 8 13 L 19 19 L 37 25 Q 41 27 40 34 L 40 36 L 41 42 L 47 54 L 47 55 L 41 47 L 38 30 L 36 27 L 35 25 L 23 22 L 9 15 L 7 16 L 7 24 L 14 28 L 15 23 L 12 22 L 11 20 L 17 24 L 15 28 L 21 31 Q 24 32 22 28 L 20 26 L 19 24 L 28 28 L 30 28 L 33 29 L 33 36 L 35 38 L 36 44 L 43 54 L 44 58 L 48 57 L 47 60 L 50 58 L 52 59 L 57 55 Q 59 56 57 58 L 57 61 L 62 65 Q 68 63 68 67 L 65 66 L 62 67 L 59 66 L 57 64 L 54 61 L 51 62 L 56 66 L 55 69 Q 52 70 53 68 L 48 63 L 42 64 L 40 69 L 41 70 L 44 69 L 47 68 L 50 69 L 50 71 Q 47 70 48 73 L 54 76 L 63 75 L 62 77 L 65 77 L 63 80 L 64 82 Q 66 89 62 88 L 61 82 L 63 79 L 60 78 L 61 90 L 64 89 L 65 89 L 65 82 L 65 80 L 67 71 L 65 70 L 62 71 L 63 69 L 68 70 L 73 69 L 74 67 L 73 63 Q 70 62 71 65 L 66 63 Q 62 62 63 57 L 69 58 L 68 57 Q 69 54 66 55 L 67 53 Q 70 54 69 51 Q 72 49 68 48 Q 67 45 70 46 L 70 43 L 65 40 Q 62 41 63 38 L 68 36 Q 69 31 64 33 L 61 39 L 61 41 Q 64 40 63 43 L 61 42 L 57 54 L 53 54 Q 54 51 51 52 L 52 47 L 52 42 Q 55 43 54 41 Q 56 39 53 38 L 54 34 L 53 28 Q 56 27 55 30 L 55 32 L 56 36 L 58 28 L 64 23 L 68 23 L 87 14 L 91 9 L 75 18 L 73 18 L 87 10 L 88 7 L 57 7 L 55 9 L 53 8 L 51 9 L 47 14 L 46 18 Q 46 23 49 26 Q 50 28 47 27 L 43 35 L 41 33 L 45 26 L 43 21 L 44 13 L 48 9 L 47 7 L 44 8 L 42 7 L 40 8 L 38 7 L 10 7 Z M 98 7 Q 99 11 96 14 L 89 19 Q 86 20 88 22 L 87 24 L 80 28 Q 81 32 78 34 L 80 34 L 81 32 L 82 29 Q 84 28 83 31 L 92 26 L 94 22 L 95 20 L 92 22 L 89 22 L 94 19 Q 99 15 101 9 L 98 7 Z M 108 7 L 100 24 L 101 25 L 108 11 L 108 7 Z M 112 7 L 109 10 L 105 22 L 102 26 Q 103 29 99 27 Q 99 36 95 41 Q 96 43 94 42 L 89 48 L 84 51 L 81 50 L 84 53 L 87 51 L 88 52 L 87 54 L 84 55 L 81 59 L 78 60 L 80 65 L 79 68 Q 80 70 77 69 L 77 71 L 90 74 L 94 80 L 94 79 L 95 79 Q 95 86 91 89 L 95 97 Q 96 101 93 103 L 114 134 L 113 138 L 122 141 L 124 144 L 111 138 L 107 143 L 110 144 L 105 144 L 105 142 L 100 143 L 99 146 L 104 150 L 103 152 Q 98 153 99 151 L 101 151 L 101 149 L 98 147 L 95 149 L 90 148 L 88 151 L 87 159 L 85 162 L 94 168 L 99 168 L 104 164 L 108 164 L 107 168 L 110 174 Q 112 175 110 176 L 107 175 L 106 177 L 110 179 Q 112 178 111 181 L 119 184 Q 121 183 120 186 L 114 183 L 109 185 L 111 185 L 114 189 L 112 189 L 105 184 L 103 187 L 108 189 Q 107 191 102 190 L 100 193 L 102 192 Q 106 191 108 193 L 113 191 L 116 193 L 122 191 L 122 193 L 133 189 Q 138 190 141 187 L 147 187 L 157 179 Q 161 177 170 178 L 171 177 Q 173 178 172 175 L 169 173 Q 160 172 155 175 L 143 185 L 134 188 L 130 188 L 140 185 L 149 178 Q 154 176 152 167 L 152 164 L 148 166 L 146 165 Q 142 164 143 159 L 147 156 L 149 153 L 145 143 L 139 135 Q 138 127 141 124 Q 139 120 140 114 L 134 105 L 133 99 L 129 96 L 130 87 L 135 70 Q 130 71 129 66 L 125 66 L 121 68 L 118 74 Q 119 76 116 75 L 118 70 L 115 59 L 110 54 L 102 52 L 102 50 L 107 50 L 107 49 L 107 47 L 109 44 L 111 45 L 114 46 L 120 46 L 128 41 L 134 29 Q 135 18 132 13 Q 130 9 125 10 L 121 7 L 112 7 Z M 245 7 L 243 9 L 245 9 L 246 12 L 253 8 L 245 7 Z M 96 8 L 92 12 Q 89 11 90 15 L 83 19 L 83 20 L 92 16 L 96 11 L 96 8 Z M 103 8 L 99 17 L 100 19 L 105 11 Q 106 7 103 8 Z M 77 20 L 74 21 L 75 23 L 78 22 Q 79 19 77 20 Z M 80 20 Q 82 25 77 23 Q 75 26 74 24 Q 71 26 72 31 L 69 30 L 72 36 L 75 35 L 78 31 L 76 32 L 74 30 Q 82 29 85 24 L 85 21 L 82 22 L 82 21 L 80 20 Z M 99 22 L 96 23 Q 93 36 83 43 L 86 43 L 87 43 L 85 44 Q 82 45 83 49 L 86 49 L 84 48 L 88 45 L 88 43 L 93 38 L 91 37 L 95 34 L 96 37 L 98 32 L 97 31 L 94 33 L 99 25 L 99 22 Z M 70 26 L 65 30 L 63 30 L 62 32 Q 68 32 70 28 L 70 26 Z M 8 27 L 11 31 L 11 29 L 8 27 Z M 89 29 L 83 33 L 82 35 Q 84 34 83 38 Q 81 43 75 44 Q 72 45 74 47 L 71 50 L 72 51 L 71 56 Q 75 57 76 54 L 73 52 Q 74 49 78 50 L 80 47 Q 79 44 78 46 L 76 46 L 81 43 L 91 32 Q 92 28 89 29 Z M 8 30 Q 6 34 9 36 L 14 40 L 26 47 Q 28 48 27 46 L 24 44 L 21 38 Q 12 37 8 30 Z M 27 30 L 27 32 L 32 32 L 32 30 L 27 30 Z M 12 31 L 12 33 L 20 37 L 21 37 L 20 33 L 12 31 Z M 311 31 L 309 33 L 311 33 L 311 31 Z M 315 31 L 306 38 L 298 41 L 294 41 L 292 43 L 294 43 L 297 42 L 299 43 L 295 47 L 282 51 L 286 52 Q 295 50 302 46 L 315 33 L 315 31 Z M 60 32 L 58 37 L 61 36 L 60 32 Z M 24 33 L 22 35 L 25 36 L 24 33 Z M 298 33 Q 295 38 289 37 L 290 41 L 294 40 L 299 34 L 298 33 Z M 308 33 L 302 37 Q 297 36 298 39 Q 305 38 309 34 L 308 33 Z M 80 35 L 79 38 L 79 37 L 77 36 L 75 36 L 73 37 Q 68 36 69 39 L 75 43 L 81 38 Q 82 34 80 35 Z M 8 36 Q 7 41 12 45 L 21 51 Q 24 50 23 53 L 25 53 L 23 48 L 8 36 Z M 26 36 L 28 39 Q 32 38 33 41 L 33 38 Q 32 35 31 37 L 26 36 Z M 287 38 L 282 39 L 280 41 Q 277 40 278 43 L 281 42 L 283 43 L 288 42 Q 290 41 288 40 Q 289 37 287 38 Z M 24 40 L 24 43 L 30 45 Q 35 47 33 42 Q 30 39 24 40 Z M 227 41 L 226 42 Q 223 41 224 44 L 228 43 Q 229 40 227 41 Z M 240 41 L 237 44 L 227 45 L 233 55 L 233 57 L 227 48 Q 224 49 225 45 L 221 44 Q 216 43 218 48 L 218 50 Q 213 53 211 61 L 218 63 L 223 63 L 221 59 L 217 58 L 215 55 L 219 56 L 220 57 L 219 54 Q 217 52 220 51 L 220 54 L 224 56 L 225 58 Q 222 57 223 60 L 226 61 L 228 61 L 230 64 L 228 63 L 225 67 L 227 69 L 230 68 L 229 71 L 226 70 L 221 71 L 227 72 Q 229 73 228 78 L 232 80 Q 233 82 234 80 L 231 73 L 232 63 Q 235 55 241 51 L 242 47 L 242 41 L 240 41 Z M 289 43 L 288 44 L 280 44 L 279 48 L 288 45 L 287 48 L 294 46 L 295 44 L 290 45 L 290 44 L 289 43 Z M 193 45 L 191 47 L 192 52 Q 194 53 192 54 L 190 53 Q 187 54 188 52 Q 187 49 184 49 L 181 50 L 177 49 L 171 56 Q 170 62 173 61 L 176 66 L 176 69 L 180 75 L 186 89 L 203 61 Q 204 56 201 57 L 200 53 L 196 47 L 193 45 Z M 214 45 L 212 49 L 214 48 L 216 49 Q 218 44 214 45 Z M 9 46 L 14 55 L 18 57 L 21 55 Q 23 56 22 54 L 9 46 Z M 32 46 L 25 48 L 28 52 L 38 49 L 32 46 Z M 8 48 L 7 54 L 9 53 L 8 48 Z M 301 49 L 284 56 L 284 57 Q 288 56 287 59 L 284 60 L 284 59 Q 282 56 278 57 L 276 55 L 275 57 Q 276 59 280 59 L 281 61 L 279 60 Q 276 59 277 62 L 282 63 Q 284 69 278 67 L 278 73 L 281 72 L 279 69 L 281 68 L 282 71 L 291 67 Q 295 65 295 60 L 287 63 L 287 62 Q 290 63 289 60 L 299 55 L 302 51 Q 303 48 301 49 Z M 36 50 L 34 51 L 35 53 Q 40 55 39 51 L 36 50 Z M 81 51 L 80 52 Q 76 51 77 55 L 81 56 L 82 54 L 81 51 Z M 211 51 L 209 54 L 211 53 L 211 51 Z M 30 53 L 23 55 Q 18 57 22 59 Q 27 60 29 56 Q 34 58 33 54 L 30 53 Z M 9 54 L 7 59 L 7 65 L 10 71 L 14 74 L 20 75 L 21 77 L 19 80 L 22 81 L 26 87 Q 27 90 25 89 L 22 86 L 17 81 Q 9 80 7 84 L 8 120 L 18 112 L 26 108 L 37 108 L 39 109 L 40 113 L 35 111 Q 23 109 19 115 Q 16 114 17 117 L 8 124 L 9 128 L 8 129 L 8 172 L 7 173 L 8 175 Q 10 181 7 183 L 8 184 L 8 212 L 8 214 L 9 217 L 8 221 L 8 292 L 17 291 Q 23 287 25 278 Q 23 276 24 272 L 20 264 L 17 262 Q 13 263 14 261 Q 17 257 24 258 L 28 254 L 26 250 L 28 246 L 30 248 Q 35 247 37 249 L 46 247 L 55 241 L 59 236 L 63 224 L 62 213 L 59 206 Q 54 199 44 199 L 50 196 L 52 190 L 49 181 L 42 178 L 50 174 L 54 168 L 54 162 L 58 162 L 63 165 L 67 165 L 69 165 L 71 166 L 73 164 Q 78 165 81 162 Q 85 159 85 153 L 83 154 L 80 152 L 77 154 L 78 158 L 76 159 L 74 160 L 77 158 L 76 155 L 78 151 L 83 152 L 85 149 Q 87 143 84 142 L 85 138 Q 86 133 83 132 Q 79 125 70 124 L 68 124 L 52 124 L 49 123 L 48 121 Q 49 118 47 119 L 43 114 Q 42 107 44 104 L 41 101 L 42 100 Q 43 97 40 98 L 35 90 L 35 80 L 32 81 L 30 79 L 30 77 L 25 72 L 22 72 L 24 66 L 23 66 L 20 65 L 17 63 L 14 55 L 9 54 Z M 209 54 L 206 58 L 207 59 L 209 56 L 209 54 Z M 269 54 L 273 59 L 273 57 L 269 54 Z M 36 55 L 33 57 L 31 60 L 39 58 L 40 59 L 37 61 L 35 65 L 30 67 Q 29 64 32 65 L 33 62 L 29 64 L 24 70 L 27 71 L 29 70 L 28 73 Q 31 74 30 72 L 36 67 L 34 74 L 37 75 L 38 74 Q 37 68 39 66 L 37 66 L 43 61 L 46 61 L 45 60 L 42 57 Q 41 54 36 55 Z M 76 56 L 70 58 Q 68 62 73 61 L 72 60 L 79 59 L 76 56 Z M 29 58 L 27 59 L 23 64 Q 28 65 30 62 L 29 58 Z M 19 59 Q 17 62 21 64 L 21 60 L 19 59 Z M 206 59 L 203 63 L 204 64 L 206 61 L 206 59 Z M 272 60 L 272 66 L 272 63 L 277 66 Q 281 67 280 64 L 272 60 Z M 74 61 Q 73 64 76 63 L 77 69 Q 79 68 78 64 L 74 61 Z M 265 61 L 263 66 Q 261 67 264 68 L 265 64 L 265 61 Z M 268 61 L 266 66 Q 265 71 268 73 L 269 71 L 269 63 L 268 61 Z M 169 62 L 166 65 L 165 71 L 165 73 L 167 76 Q 166 67 171 64 Q 172 61 169 62 Z M 142 63 L 145 69 L 145 71 L 144 74 Q 143 79 147 77 L 146 71 L 147 67 L 146 65 L 142 63 Z M 153 64 L 150 65 L 150 77 L 155 77 L 154 75 L 155 72 L 154 68 L 153 64 Z M 159 64 L 159 76 L 161 76 L 161 65 L 159 64 Z M 172 65 L 169 73 L 173 72 Q 176 73 175 71 Q 171 69 174 68 Q 175 64 172 65 Z M 202 66 L 199 70 L 200 71 L 202 68 L 202 66 Z M 275 66 L 272 70 L 273 74 L 273 76 L 274 78 L 276 79 L 275 66 Z M 141 69 L 140 74 L 142 75 L 141 69 Z M 69 70 L 67 81 L 67 90 L 70 90 L 71 92 L 67 90 L 58 94 L 56 94 L 60 91 Q 57 87 58 80 L 56 79 L 58 89 Q 59 91 57 90 L 55 89 Q 57 82 54 81 Q 55 76 53 77 L 51 77 L 53 85 L 52 89 L 55 93 L 53 102 L 58 110 L 56 110 L 49 106 L 53 95 Q 52 89 48 87 L 47 76 L 45 72 L 41 73 L 37 79 Q 39 85 36 87 L 38 93 L 43 100 L 43 102 L 46 102 L 48 107 L 46 106 L 45 115 L 50 119 L 52 119 L 53 122 Q 54 124 56 122 L 59 123 Q 65 125 67 122 L 74 123 L 84 129 L 87 134 L 89 144 L 90 144 L 86 124 Q 84 122 87 121 L 89 126 L 93 145 Q 92 147 95 146 L 94 122 L 91 113 L 92 109 L 94 113 L 97 125 L 97 136 L 96 137 L 98 145 L 98 142 L 102 141 Q 105 142 104 139 Q 109 139 111 136 L 111 132 L 92 104 L 91 106 L 87 101 L 85 105 L 74 115 L 71 115 L 64 111 L 59 111 Q 60 107 57 105 L 57 102 L 61 100 L 60 104 L 69 108 L 82 100 L 84 97 L 81 95 L 81 94 L 86 95 L 91 78 L 88 75 L 69 70 Z M 272 70 L 271 75 L 272 75 L 272 70 Z M 199 71 L 193 80 L 194 81 L 199 73 L 199 71 Z M 138 72 L 138 75 Q 141 74 138 72 Z M 7 73 L 7 80 L 12 79 L 16 80 L 16 79 L 7 73 Z M 270 73 L 269 80 L 270 80 L 270 73 Z M 283 73 L 282 74 Q 278 73 279 76 Q 283 77 284 74 L 283 73 Z M 31 74 Q 30 78 33 79 L 36 78 L 35 76 Q 32 77 33 74 L 31 74 Z M 174 75 L 172 77 L 170 77 L 170 81 L 178 80 L 179 79 L 178 77 Q 177 74 174 75 Z M 139 78 L 138 79 Q 133 78 135 83 L 144 83 L 143 79 L 139 78 Z M 147 78 L 146 87 L 150 96 L 151 107 L 156 118 L 159 121 Q 158 123 161 122 L 163 116 L 164 100 L 162 101 Q 155 102 154 98 Q 151 99 152 96 L 158 99 L 162 99 L 166 93 L 168 85 L 168 79 L 167 82 Q 166 86 161 85 L 162 89 L 161 91 L 161 92 Q 164 91 163 94 Q 160 93 159 96 L 156 94 Q 152 95 153 92 L 159 92 L 157 91 L 156 89 L 159 89 L 159 81 Q 160 78 165 79 L 158 78 L 154 80 L 155 82 L 151 84 L 153 84 Q 154 82 155 85 L 150 85 Q 146 84 147 78 Z M 273 78 L 273 87 L 278 91 L 281 90 L 280 87 L 279 89 L 275 86 Q 276 80 273 78 Z M 279 80 Q 276 81 277 86 L 279 87 L 278 85 L 281 84 L 279 80 Z M 165 81 L 163 83 L 165 83 L 165 81 Z M 193 81 L 191 84 L 193 83 L 193 81 Z M 50 83 L 49 86 L 51 87 L 50 83 Z M 176 83 L 170 85 L 169 89 L 170 90 L 179 87 L 182 88 L 181 85 Q 182 82 176 83 Z M 133 86 L 132 91 L 145 92 L 146 93 L 144 88 L 143 86 L 133 86 Z M 190 86 L 187 90 L 188 91 L 190 88 L 190 86 Z M 274 89 L 273 104 L 278 106 L 284 105 L 280 99 Q 283 98 282 102 L 286 104 Q 289 103 287 107 L 285 106 L 284 108 L 293 112 L 293 111 L 290 108 L 291 106 L 294 108 L 291 105 Q 290 102 293 103 L 294 106 L 299 108 L 305 109 L 307 109 L 314 107 Q 319 109 318 105 L 312 106 L 307 105 L 304 106 L 302 105 L 298 106 Q 295 105 297 104 L 293 101 L 290 100 Q 291 104 286 102 L 286 100 Q 289 101 288 99 L 282 93 Q 276 93 274 89 Z M 177 90 Q 175 93 171 92 L 169 92 L 167 97 L 177 96 L 182 90 L 179 91 L 177 90 Z M 187 91 L 179 103 L 180 104 L 187 93 L 187 91 Z M 90 93 L 89 96 L 90 98 L 92 97 L 91 100 L 92 102 L 93 100 L 92 95 Q 93 92 90 93 Z M 182 93 L 178 97 L 179 101 L 183 94 L 182 93 Z M 135 94 Q 131 96 135 98 L 136 100 L 144 100 L 146 100 L 148 99 L 147 95 L 144 96 L 140 94 L 138 95 L 135 94 Z M 248 95 L 248 99 L 253 107 Q 252 109 255 108 L 257 112 L 256 114 L 263 118 L 256 100 Q 251 101 250 97 Q 251 94 248 95 Z M 174 99 L 169 101 L 167 101 L 168 106 L 173 104 Q 174 106 175 104 Q 177 98 174 99 Z M 294 99 L 295 101 L 303 104 Q 313 105 319 103 L 305 102 L 294 99 Z M 84 100 L 80 103 L 81 104 L 83 103 Q 84 105 85 103 Q 86 99 84 100 Z M 137 103 L 141 109 L 149 109 L 149 105 L 148 103 L 137 103 Z M 78 104 L 75 106 L 73 110 L 78 106 L 78 104 Z M 82 104 L 80 107 L 83 105 L 82 104 Z M 53 106 Q 52 109 55 108 Q 56 105 53 106 Z M 61 106 Q 62 110 68 112 Q 71 113 70 110 L 61 106 Z M 178 106 L 176 109 L 178 108 L 178 106 Z M 79 107 L 77 110 L 80 108 L 79 107 Z M 172 108 L 166 109 L 165 114 Q 164 118 169 116 L 173 111 Q 174 107 172 108 Z M 295 109 L 296 111 L 300 112 L 308 112 L 295 109 Z M 175 111 L 170 118 L 171 119 L 175 113 L 175 111 Z M 145 112 Q 144 115 147 117 L 147 118 L 152 118 L 151 114 L 151 112 L 145 112 Z M 266 115 Q 267 117 264 119 L 259 118 L 251 119 L 249 121 L 250 122 Q 251 120 257 121 Q 260 123 257 124 Q 254 123 255 126 L 264 120 Q 270 118 272 121 L 272 119 L 267 117 Q 268 114 266 115 Z M 143 116 L 143 118 L 142 128 L 141 131 Q 140 137 144 139 L 148 141 L 152 136 L 156 137 Q 156 130 160 127 L 159 127 Q 149 124 144 118 Q 145 115 143 116 Z M 254 116 L 251 118 L 254 118 L 254 116 Z M 154 119 L 151 121 L 157 125 L 158 123 L 154 119 Z M 165 119 L 162 124 L 166 122 L 165 119 Z M 255 127 L 253 129 L 254 131 L 255 129 L 255 127 Z M 253 131 L 249 137 L 250 140 L 253 133 L 253 131 Z M 166 137 L 164 140 L 166 139 L 166 137 Z M 153 139 L 153 141 L 159 143 L 159 140 L 153 139 Z M 151 142 L 149 144 L 151 148 L 152 146 Q 153 141 151 142 Z M 164 143 L 162 146 L 166 147 L 167 148 L 164 143 Z M 156 144 L 152 153 Q 153 155 150 154 Q 149 158 152 157 L 155 154 L 154 153 Q 153 150 156 151 L 155 150 L 158 146 Q 159 143 156 144 Z M 164 148 L 154 160 L 154 164 L 154 166 L 153 170 L 154 173 L 154 174 L 162 172 L 163 170 Q 165 164 162 163 L 163 155 L 166 153 L 168 150 L 164 148 Z M 148 157 L 144 160 L 147 164 L 150 163 L 149 159 Q 150 156 148 157 Z M 84 163 L 74 169 L 73 168 L 61 168 L 58 166 L 55 173 L 51 175 L 55 185 L 55 193 L 52 198 L 57 200 L 59 200 Q 58 203 61 202 L 64 209 L 64 211 L 66 217 Q 67 221 65 223 L 66 225 L 61 236 Q 60 238 64 237 L 66 242 L 68 238 Q 67 235 70 236 L 80 223 Q 82 224 81 222 Q 97 204 121 194 L 121 193 Q 115 196 106 194 L 104 194 Q 98 195 97 193 L 99 189 L 101 186 L 93 191 L 90 190 L 93 185 Q 96 179 105 180 Q 106 177 103 178 Q 102 174 106 175 L 104 167 L 97 170 L 89 169 L 84 163 Z M 168 163 L 166 165 L 166 172 Q 173 171 176 176 L 180 175 L 172 169 L 168 163 Z M 215 175 L 213 177 L 215 189 Q 219 192 228 191 L 230 188 L 227 180 L 220 175 L 215 175 Z M 181 176 Q 179 179 174 177 L 170 182 Q 168 187 172 186 L 173 180 Q 177 179 175 184 L 177 184 L 178 182 Q 177 179 180 180 L 179 184 L 182 185 L 182 181 L 185 183 L 184 186 L 188 183 L 190 187 L 191 185 L 190 183 Q 187 178 181 176 Z M 160 179 L 157 181 L 154 185 L 160 184 L 160 179 Z M 164 179 L 163 184 L 165 183 L 167 184 L 168 180 L 164 179 Z M 107 180 L 98 183 L 94 187 L 95 188 L 99 185 Q 104 187 103 183 L 109 181 L 107 180 Z M 110 181 L 109 183 L 111 182 L 110 181 Z M 177 184 L 176 187 L 179 187 Q 180 183 177 184 Z M 155 189 L 154 190 L 143 191 L 126 196 L 110 204 L 102 209 L 84 225 Q 85 227 83 226 L 78 232 Q 79 234 76 233 L 76 236 L 74 236 L 67 249 L 59 269 L 56 285 L 56 294 L 55 295 L 55 311 L 60 335 L 69 356 L 80 372 Q 91 385 107 395 L 122 403 L 135 407 L 137 407 L 143 409 L 145 409 Q 146 412 152 410 L 155 411 Q 164 413 170 410 L 172 410 L 175 411 L 177 411 L 185 409 L 194 409 L 210 403 Q 213 400 213 395 Q 217 387 228 387 L 230 387 L 236 386 L 239 384 Q 265 362 274 323 Q 275 318 273 317 L 275 313 L 275 304 L 276 303 L 275 282 L 268 258 L 263 247 L 249 227 Q 240 215 228 208 Q 225 209 226 206 L 224 206 L 221 203 L 209 197 L 206 197 L 198 193 L 183 190 L 179 191 L 177 191 L 174 190 L 169 192 L 166 190 L 156 190 L 155 189 Z M 298 230 L 292 235 L 278 238 L 276 237 L 274 238 Q 267 238 264 234 L 262 235 L 277 265 L 282 287 L 281 321 L 278 329 L 279 331 L 284 328 L 288 320 L 288 311 L 287 310 L 288 307 L 287 297 L 287 295 L 287 282 L 286 281 Q 288 277 287 271 L 290 267 L 298 286 Q 297 292 299 294 L 305 292 L 306 293 L 308 291 L 310 292 L 309 294 L 310 295 L 312 290 L 310 289 L 303 291 Q 299 292 300 289 L 308 288 L 309 287 L 307 278 Q 305 269 309 266 Q 308 262 311 263 L 317 289 L 322 298 L 323 312 L 329 331 L 329 337 L 325 340 L 321 338 Q 318 339 319 337 L 310 330 L 306 339 L 306 350 L 305 351 L 303 370 L 291 386 L 286 390 L 284 393 L 278 397 Q 279 399 277 398 L 271 406 L 265 411 L 256 422 Q 236 441 212 456 L 207 456 L 201 452 Q 197 453 198 451 L 196 451 Q 197 448 194 449 L 192 449 L 189 446 L 188 447 L 155 432 L 153 432 L 152 430 L 133 428 L 131 428 L 129 427 L 106 428 L 103 429 L 99 428 L 97 429 Q 92 430 93 427 L 90 427 L 94 423 L 106 419 L 112 413 L 112 410 L 118 408 Q 116 404 111 404 L 92 390 Q 72 373 61 348 L 59 352 L 56 354 L 41 357 L 38 359 Q 33 361 34 369 L 39 372 L 55 373 L 62 377 L 68 386 L 69 393 L 67 394 L 70 396 L 75 397 L 77 400 Q 79 399 78 402 L 77 401 Q 73 400 75 404 L 73 404 L 73 398 L 69 398 Q 67 394 65 398 L 59 396 L 56 394 L 56 385 L 50 380 Q 37 380 30 376 L 31 374 L 33 376 L 49 378 L 56 381 L 58 385 L 58 394 L 63 396 Q 65 397 64 391 L 63 391 Q 59 392 60 389 L 63 390 L 63 389 L 66 388 L 63 381 L 53 374 L 43 374 L 34 371 L 32 370 L 32 362 L 39 356 L 46 354 L 51 354 L 56 352 L 57 350 L 57 345 L 54 338 L 48 335 L 40 335 L 38 335 L 27 335 L 26 334 L 22 334 Q 23 331 20 332 L 19 324 Q 22 321 29 321 L 31 321 L 44 318 L 48 313 L 47 306 L 42 301 L 41 299 L 45 300 L 50 308 L 50 315 L 42 321 L 29 322 L 23 324 L 21 328 L 21 330 L 29 334 L 34 333 L 48 333 L 54 336 L 56 338 L 52 324 L 51 306 L 50 305 L 51 302 L 50 300 L 51 297 L 51 287 L 49 291 L 45 293 L 32 293 Q 30 297 34 296 L 35 298 Q 30 298 28 295 L 32 292 L 37 291 L 39 292 L 45 291 Q 49 289 49 284 L 49 282 L 48 279 L 38 274 L 36 272 L 40 269 L 38 273 L 48 276 L 52 282 L 55 269 L 55 266 L 54 268 L 48 272 Q 43 273 42 271 L 51 269 L 53 264 L 43 258 L 45 254 Q 49 253 51 255 Q 56 256 57 254 L 56 249 L 60 247 L 63 242 L 61 241 L 60 245 L 57 245 L 60 241 L 60 238 L 58 241 L 46 250 L 49 251 Q 54 253 52 248 L 56 245 L 54 249 L 55 252 L 52 253 L 43 252 Q 39 253 40 258 Q 42 262 48 262 Q 51 263 50 267 L 47 268 L 47 267 Q 50 268 48 264 L 43 263 L 38 258 L 39 254 Q 38 251 41 252 L 41 250 L 39 251 L 38 250 L 31 250 L 29 258 Q 27 261 21 262 Q 26 265 27 272 L 27 279 L 24 287 L 19 292 L 10 296 L 11 298 Q 12 304 8 307 L 9 398 L 17 394 Q 27 393 32 397 Q 34 396 33 399 L 37 401 Q 43 407 41 419 L 44 418 L 51 419 L 55 425 Q 54 431 57 430 L 60 435 L 55 437 L 55 436 L 54 433 Q 55 430 51 431 L 52 427 L 51 423 L 48 420 Q 41 419 40 422 L 38 421 L 36 422 L 38 417 Q 39 407 35 403 L 28 396 L 14 396 L 12 397 L 7 403 L 7 425 L 10 425 Q 13 431 21 433 L 22 434 L 20 423 L 21 414 L 27 430 Q 37 441 54 447 L 66 457 L 69 461 L 73 473 L 74 482 L 78 491 L 84 495 L 83 494 L 88 491 L 88 492 Q 85 491 86 494 Q 94 496 97 491 L 99 492 L 94 496 L 84 496 L 88 502 L 89 507 L 82 511 L 79 509 L 79 511 L 71 507 L 72 504 L 68 505 L 70 505 L 70 506 Q 66 507 67 504 L 56 499 L 42 499 L 41 500 L 34 498 L 34 497 L 36 498 L 52 498 L 50 494 L 54 493 L 53 489 L 44 489 L 43 491 L 46 492 L 46 493 L 41 490 L 36 489 Q 33 488 34 484 L 32 483 Q 29 484 30 481 L 34 482 L 35 483 Q 34 479 38 481 L 38 479 L 30 477 L 31 475 L 35 477 Q 39 478 38 475 L 35 475 L 25 469 L 21 463 L 23 460 L 20 458 L 21 455 L 21 457 L 24 459 L 34 462 L 37 463 L 38 463 L 36 461 L 30 456 L 30 453 L 27 451 Q 20 452 17 449 L 16 452 Q 12 453 14 449 L 11 446 L 8 445 L 8 463 L 10 464 L 16 461 Q 15 456 18 457 L 19 460 L 13 465 L 8 465 L 8 483 L 9 484 L 8 488 L 9 493 L 9 495 L 8 497 L 9 500 L 8 504 L 9 505 L 9 518 L 9 520 L 8 524 L 9 526 L 8 530 L 8 548 L 15 548 L 17 548 L 19 547 L 21 548 L 23 547 L 25 547 L 28 548 L 32 546 L 33 547 L 43 547 L 44 548 L 43 542 L 40 542 L 43 541 L 42 537 L 34 539 L 32 540 L 35 532 L 38 533 L 43 531 Q 45 530 44 525 Q 40 519 34 518 L 35 516 L 44 521 Q 47 523 47 529 Q 51 533 59 533 L 59 534 L 54 534 L 47 530 L 46 532 L 56 538 L 58 541 L 58 548 L 78 548 L 79 547 L 81 548 L 127 548 L 131 548 L 141 547 L 143 547 L 145 548 L 147 547 L 222 547 L 223 546 L 225 547 L 227 546 L 248 546 L 249 545 L 252 546 L 254 545 L 266 545 L 267 546 L 269 545 L 271 545 L 276 546 L 279 545 L 334 545 L 334 495 L 334 493 Q 335 488 333 487 L 333 475 L 334 474 L 333 472 L 333 343 L 332 342 L 333 338 L 333 336 L 332 332 L 332 323 L 333 322 L 332 319 L 332 262 L 328 261 L 324 257 L 325 252 L 319 250 Q 313 247 315 239 L 311 239 L 303 236 L 298 230 Z M 63 246 L 58 250 L 60 253 L 63 248 L 63 246 Z M 59 255 L 57 257 Q 52 258 51 256 Q 44 254 45 258 L 53 260 L 56 266 L 59 257 L 59 255 Z M 309 272 L 310 278 L 311 278 Q 313 271 309 272 Z M 291 275 L 291 281 L 292 279 L 291 275 Z M 312 279 Q 309 285 313 284 L 312 279 Z M 293 280 L 291 282 L 292 285 L 293 283 L 293 285 L 294 285 L 293 280 Z M 295 285 L 293 293 L 295 293 L 294 295 L 296 294 L 295 285 Z M 312 285 L 312 287 L 313 290 Q 312 292 315 291 L 314 289 Q 315 284 312 285 Z M 290 290 L 292 305 L 293 298 L 291 297 L 292 291 L 290 290 Z M 316 291 L 316 295 L 317 295 L 316 291 Z M 313 292 L 314 297 L 315 293 L 313 292 Z M 305 294 L 305 297 L 304 296 L 299 297 L 299 298 Q 301 297 300 300 L 303 298 Q 305 297 304 300 Q 302 301 305 302 L 307 295 L 305 294 Z M 312 294 L 310 298 Q 309 301 312 300 L 312 304 L 314 304 L 315 305 L 312 294 Z M 296 295 Q 296 299 293 298 L 294 302 L 297 298 L 296 295 Z M 309 295 L 308 298 L 309 298 L 309 295 Z M 317 298 L 316 301 L 317 301 L 317 298 Z M 297 299 L 297 301 L 295 301 L 296 303 L 298 302 Q 299 298 297 299 Z M 307 300 L 305 303 L 307 303 Q 308 305 309 303 L 309 300 L 308 302 L 307 300 Z M 320 302 L 316 306 L 319 306 L 320 304 L 320 302 Z M 301 303 L 299 305 L 303 307 L 303 304 L 301 303 Z M 310 304 L 309 306 L 311 307 L 310 304 Z M 294 305 Q 293 308 296 307 L 294 312 L 292 312 L 293 315 L 298 309 L 299 310 L 297 310 L 298 313 L 299 311 L 299 313 L 301 312 L 303 316 L 303 315 L 304 314 L 301 311 L 304 310 L 305 312 L 305 309 L 302 309 L 297 305 L 294 305 Z M 308 305 Q 306 308 309 307 L 308 305 Z M 309 308 Q 308 311 311 310 L 312 312 L 312 310 L 309 308 Z M 317 308 L 317 311 L 319 310 Q 320 307 317 308 Z M 308 309 L 308 313 L 309 313 L 308 309 Z M 313 309 L 313 312 L 313 314 L 311 314 L 312 316 L 310 316 L 312 319 L 313 319 Q 311 314 315 315 L 316 316 Q 317 313 314 314 L 315 311 Q 316 308 313 309 Z M 321 312 L 320 320 L 322 319 L 321 312 Z M 296 313 L 296 318 L 297 316 L 296 313 Z M 299 313 L 299 318 L 300 318 L 299 313 Z M 294 315 L 293 319 L 294 319 L 294 315 Z M 305 316 L 303 318 Q 302 320 305 319 L 306 321 L 306 320 L 308 320 Q 309 316 305 318 L 305 316 Z M 317 316 L 318 321 L 318 320 Q 321 318 317 316 Z M 310 317 L 307 323 L 310 325 L 309 323 L 312 322 L 310 321 L 310 317 Z M 301 318 L 300 322 L 302 323 L 301 318 Z M 316 318 L 312 326 L 314 326 L 316 321 L 316 318 Z M 293 319 L 289 328 L 290 329 L 293 324 L 293 319 Z M 296 319 L 290 333 L 288 332 L 287 334 L 286 333 L 285 335 L 283 336 Q 284 333 281 334 L 279 337 L 279 338 Q 281 339 280 337 L 282 336 L 280 339 L 282 341 L 283 337 L 289 334 L 292 334 L 296 322 L 296 319 Z M 323 319 L 322 321 L 322 323 L 321 327 L 325 329 L 323 319 Z M 319 321 L 316 323 Q 318 326 320 322 L 319 321 Z M 297 323 L 298 328 L 296 328 Q 295 330 298 329 L 299 331 L 300 328 L 303 334 L 304 334 L 299 324 L 297 323 Z M 303 323 L 303 325 L 302 328 L 303 330 L 304 327 L 304 325 Q 305 322 303 323 Z M 321 327 L 320 329 Q 316 327 317 331 L 323 336 L 320 332 L 321 330 L 321 327 Z M 289 329 L 287 331 L 289 331 L 290 332 L 289 329 Z M 296 329 L 294 333 L 297 334 L 297 333 Q 300 331 296 329 Z M 326 329 L 323 334 L 326 334 L 326 329 Z M 284 331 L 282 333 L 284 333 L 284 331 Z M 299 332 L 300 334 Q 301 331 299 332 Z M 301 334 L 300 337 L 301 337 L 301 334 Z M 303 335 L 303 340 L 304 338 L 303 335 Z M 278 338 L 276 340 L 278 340 L 278 338 Z M 291 338 L 289 339 L 288 341 L 290 340 L 291 343 Q 294 344 293 340 L 292 340 L 291 338 Z M 296 338 L 294 340 L 298 343 L 297 341 Q 298 337 296 338 Z M 276 340 L 274 342 Q 273 344 276 343 L 276 340 Z M 279 340 L 279 342 L 278 345 Q 277 347 280 346 L 280 341 L 279 340 Z M 287 341 L 284 348 L 287 349 L 288 354 L 290 353 Q 291 350 288 351 L 288 346 L 287 348 L 286 348 L 287 346 L 287 341 Z M 290 342 L 290 345 L 289 349 L 291 349 L 292 346 L 290 342 Z M 294 343 L 294 346 Q 297 345 294 343 Z M 272 345 L 271 350 Q 269 351 272 352 L 272 349 L 274 348 L 273 350 L 274 353 L 276 350 L 275 347 L 272 345 Z M 295 345 L 294 349 Q 293 354 296 356 L 295 360 Q 293 361 296 362 L 298 357 Q 300 350 295 352 L 297 347 Q 298 344 295 345 Z M 293 346 L 292 349 L 293 349 L 293 346 Z M 300 346 L 299 349 L 300 349 L 300 346 Z M 281 349 Q 280 352 283 351 Q 284 348 281 349 Z M 285 350 L 284 352 L 282 353 L 285 353 Q 288 352 285 350 Z M 292 350 L 291 353 L 292 353 L 292 350 Z M 271 353 Q 268 355 271 356 Q 274 355 271 353 Z M 282 353 L 280 357 L 283 356 L 283 358 L 284 358 Q 285 354 282 353 Z M 294 353 L 290 354 L 289 357 L 290 359 L 291 357 Q 290 354 294 355 L 294 353 Z M 300 354 L 299 359 L 300 359 L 300 354 Z M 268 356 L 266 358 L 267 361 L 267 360 Q 271 358 268 356 Z M 274 357 L 272 360 L 274 359 L 274 357 Z M 278 358 L 276 363 L 275 360 L 274 364 L 277 365 L 278 361 L 278 358 Z M 283 359 L 282 362 L 283 362 L 283 359 Z M 285 359 L 284 362 L 285 362 L 285 359 Z M 287 360 L 287 363 Q 290 362 287 360 Z M 273 361 L 271 365 L 273 364 L 273 361 Z M 280 362 L 279 366 L 280 366 L 280 362 Z M 299 362 L 298 365 L 299 365 L 299 362 Z M 282 363 L 281 366 L 282 366 L 282 363 Z M 268 364 L 266 367 Q 262 368 265 370 Q 264 372 267 371 L 266 369 L 269 365 L 268 364 Z M 283 364 L 283 366 L 285 365 L 283 364 Z M 271 365 L 269 367 L 272 368 L 271 365 Z M 297 365 L 295 369 L 294 366 L 293 370 L 292 369 L 289 376 L 292 375 L 292 377 L 293 377 Q 292 374 295 375 L 296 373 L 294 374 Q 291 373 294 371 L 297 372 L 298 368 L 297 365 Z M 279 366 L 278 370 L 277 372 L 279 371 L 281 368 L 280 368 L 279 366 Z M 274 369 L 272 372 L 275 374 Q 276 370 274 369 Z M 289 369 L 288 372 L 289 372 L 289 369 Z M 285 371 L 285 373 L 287 372 L 285 371 Z M 261 372 L 262 375 L 263 373 L 261 372 Z M 266 373 L 264 375 Q 263 377 266 376 L 266 373 Z M 270 373 L 269 376 L 270 376 L 270 373 Z M 283 373 L 282 376 L 283 376 L 283 373 Z M 288 373 L 287 375 L 284 376 L 286 376 L 284 385 L 284 386 Q 286 387 285 384 L 288 383 L 286 382 L 288 377 L 288 373 Z M 272 374 L 271 377 L 272 377 L 272 374 Z M 279 376 L 279 381 L 280 379 L 279 376 Z M 253 377 L 251 380 L 253 379 L 253 377 Z M 263 377 L 264 384 L 265 379 Q 266 376 263 377 Z M 277 377 L 275 379 L 276 382 L 277 379 L 277 377 Z M 259 378 L 258 381 L 259 381 L 259 378 Z M 269 378 L 268 381 L 269 381 L 269 378 Z M 284 378 L 283 381 L 284 381 L 284 378 Z M 280 379 L 280 382 L 282 381 Q 283 378 280 379 Z M 258 381 L 256 384 L 258 384 L 258 381 Z M 266 382 L 264 386 L 266 385 L 266 382 Z M 272 382 L 272 385 L 273 385 Q 274 381 272 382 Z M 275 382 L 271 395 L 272 398 L 275 389 L 275 382 Z M 278 382 L 277 385 L 278 385 L 278 382 Z M 280 383 L 279 386 L 280 386 L 280 383 Z M 263 384 L 262 389 L 263 389 L 263 384 Z M 251 385 L 249 387 L 250 390 L 251 387 L 251 385 Z M 256 385 L 256 392 L 257 392 Q 258 386 256 385 Z M 260 385 L 259 389 L 260 389 L 260 385 Z M 270 386 L 268 388 Q 267 390 270 389 L 270 386 Z M 272 386 L 271 390 L 272 390 L 272 386 Z M 279 386 L 276 387 L 277 392 L 279 391 L 279 386 Z M 282 386 L 280 388 Q 279 390 282 389 L 282 386 Z M 226 389 L 222 390 Q 217 391 218 396 L 219 396 L 221 393 Q 222 390 227 391 L 226 389 Z M 233 389 L 234 391 Q 235 388 233 389 Z M 240 389 L 238 393 L 240 393 L 240 389 Z M 267 390 L 265 394 L 267 393 L 267 390 Z M 242 391 L 241 396 L 242 396 L 242 391 Z M 244 391 Q 244 396 242 397 Q 239 396 240 399 L 244 398 Q 243 395 246 396 L 246 391 L 245 395 L 244 391 Z M 247 391 L 247 394 L 249 393 Q 250 390 247 391 Z M 255 391 L 253 394 L 255 393 L 255 391 Z M 226 392 L 225 396 L 226 396 L 226 392 Z M 229 392 L 229 394 L 231 393 L 229 392 Z M 233 392 L 231 400 L 233 399 L 233 392 Z M 259 392 L 258 396 L 259 396 L 259 392 Z M 222 393 L 223 396 L 224 394 L 222 393 Z M 237 394 L 234 399 L 237 399 L 237 394 Z M 238 394 L 239 400 L 240 395 L 238 394 Z M 268 394 L 269 399 L 268 398 L 267 400 Q 269 403 270 400 Q 272 393 268 394 Z M 230 395 L 228 400 L 230 399 L 230 395 Z M 252 395 L 251 398 L 252 398 L 252 395 Z M 263 396 L 262 399 L 260 399 Q 259 401 262 400 L 263 401 L 263 396 Z M 224 397 Q 223 400 226 399 Q 227 396 224 397 Z M 264 398 L 265 404 L 266 401 Q 267 397 264 398 Z M 253 399 L 252 401 L 254 402 L 253 399 Z M 222 400 L 221 403 Q 220 405 219 403 L 218 407 L 219 407 Q 218 404 222 405 L 222 400 Z M 225 400 L 223 402 L 225 402 L 225 400 Z M 248 401 L 246 403 Q 247 407 245 409 L 246 410 L 249 408 Q 251 407 249 406 Q 250 403 248 404 L 249 402 L 248 401 Z M 260 401 L 259 403 Q 263 404 262 402 L 260 401 Z M 216 402 L 216 407 L 217 407 L 216 402 Z M 258 402 L 257 406 L 258 406 L 258 402 Z M 234 404 L 234 405 L 238 405 L 234 404 Z M 239 404 L 240 408 L 241 405 L 239 404 Z M 262 404 L 261 407 L 262 407 L 262 404 Z M 260 405 L 259 408 L 261 408 L 260 405 Z M 236 406 L 235 409 L 236 409 L 236 406 Z M 243 406 L 244 411 L 245 408 Q 246 405 243 406 Z M 255 406 L 253 408 L 256 410 L 255 406 Z M 258 407 L 257 410 L 258 410 L 258 407 Z M 215 408 L 214 410 Q 217 409 216 412 L 216 413 Q 219 414 217 409 L 215 408 Z M 238 408 L 236 411 L 238 410 L 238 408 Z M 242 408 L 241 412 L 242 412 L 242 408 Z M 119 409 L 118 410 Q 114 409 116 414 L 117 414 Q 116 410 119 411 L 120 422 L 120 412 L 121 411 L 119 409 Z M 211 409 L 212 413 L 213 410 L 211 409 Z M 127 410 L 128 414 L 135 415 L 137 415 L 142 416 L 146 416 L 127 410 Z M 250 410 L 251 413 L 252 411 L 250 410 Z M 255 410 L 253 413 L 255 413 L 255 410 Z M 122 411 L 121 414 L 123 414 L 122 411 Z M 209 411 L 208 417 L 209 417 L 209 411 Z M 214 411 L 213 415 L 214 415 L 214 411 Z M 236 411 L 234 413 L 236 413 L 236 411 Z M 249 411 L 247 415 L 251 415 L 249 414 L 249 413 L 249 411 Z M 229 412 L 229 414 L 231 413 L 229 412 Z M 166 413 L 165 416 L 167 415 L 169 416 L 169 414 L 166 413 Z M 204 413 L 203 418 L 204 418 L 204 413 Z M 115 414 Q 113 418 115 420 L 114 422 Q 113 424 116 423 L 115 414 Z M 124 414 L 123 418 L 125 417 L 126 420 L 127 417 L 124 414 Z M 161 414 L 160 419 L 161 419 L 161 414 Z M 162 414 Q 161 417 164 416 Q 165 413 162 414 Z M 170 414 L 170 416 Q 172 420 174 417 L 175 419 L 175 417 Q 174 413 170 414 Z M 202 414 L 198 415 L 197 421 L 199 422 Q 197 414 202 416 L 202 414 Z M 210 414 L 210 416 L 212 415 L 210 414 Z M 218 414 L 217 418 L 218 418 L 218 414 Z M 219 414 L 220 418 L 221 416 Q 222 413 219 414 Z M 225 415 L 224 419 L 225 419 L 225 415 Z M 230 415 L 229 419 L 230 419 L 230 415 Z M 243 415 L 242 418 L 244 419 L 243 415 Z M 113 416 L 112 419 L 113 419 L 113 416 Z M 155 416 L 153 418 L 156 418 L 157 419 Q 158 415 155 416 Z M 212 416 L 210 418 L 211 424 L 212 418 L 212 416 Z M 238 416 L 239 418 Q 240 415 238 416 Z M 164 417 L 162 419 L 164 419 L 164 417 Z M 166 417 L 165 424 L 166 424 L 166 417 Z M 168 417 L 169 419 Q 170 416 168 417 Z M 176 417 L 176 419 L 176 421 L 177 428 Q 176 422 179 419 L 179 423 L 179 424 L 180 424 L 180 418 L 176 417 Z M 195 417 L 193 421 L 195 421 L 195 417 Z M 216 417 L 214 420 L 216 419 L 216 417 Z M 227 417 L 226 423 L 227 423 L 227 417 Z M 234 417 L 233 421 L 234 421 L 234 417 Z M 236 417 L 236 422 L 236 420 L 238 420 L 238 418 L 236 417 Z M 22 418 L 23 431 L 26 437 L 49 448 L 50 448 L 31 435 Q 23 429 22 418 Z M 111 418 L 110 421 L 111 421 L 111 418 Z M 129 418 L 129 419 L 131 419 L 129 418 Z M 132 418 L 132 420 L 135 419 L 135 423 L 136 423 Q 138 416 132 418 Z M 137 418 L 137 420 L 141 420 L 141 419 L 140 419 L 137 418 Z M 147 418 L 148 420 Q 149 417 147 418 Z M 149 418 L 150 424 L 150 420 L 152 420 Q 153 417 149 418 Z M 191 418 L 192 422 L 193 419 L 191 418 Z M 142 419 L 142 421 L 144 420 L 142 419 Z M 187 419 L 186 422 L 187 422 L 187 419 Z M 118 420 L 117 423 L 118 423 L 118 420 Z M 161 420 L 160 424 L 161 424 L 161 420 Z M 182 420 L 181 428 L 182 428 L 182 420 Z M 206 420 L 205 423 L 206 423 L 206 420 Z M 208 420 L 206 428 Q 204 429 207 430 L 208 427 L 208 420 Z M 217 420 L 216 423 L 217 423 L 217 420 Z M 106 421 L 103 422 L 104 425 L 106 424 L 107 422 L 106 421 Z M 129 421 L 128 424 L 129 424 L 129 421 Z M 131 421 L 130 424 L 131 424 L 131 421 Z M 152 421 L 151 427 L 152 427 L 152 421 Z M 229 421 L 228 424 L 231 424 L 229 423 L 229 421 Z M 107 422 L 108 425 L 111 424 L 107 422 Z M 162 422 Q 161 425 164 424 Q 165 421 162 422 Z M 168 422 Q 166 425 169 424 L 168 422 Z M 219 422 L 218 426 L 219 426 L 219 422 Z M 224 422 Q 221 427 226 426 L 227 424 L 225 425 L 224 422 Z M 185 423 L 183 425 L 186 425 L 185 427 Q 184 429 187 428 L 187 423 L 185 423 Z M 198 423 L 197 430 L 198 430 L 198 423 Z M 200 423 L 201 425 Q 202 422 200 423 Z M 203 423 L 202 427 L 203 427 L 203 423 Z M 242 423 L 243 425 Q 244 422 242 423 Z M 100 424 L 100 425 L 102 425 L 100 424 Z M 154 424 L 153 427 L 154 427 L 154 424 Z M 175 424 L 173 427 L 175 427 L 175 424 Z M 221 424 L 220 427 L 221 427 L 221 424 Z M 8 428 L 8 431 L 7 436 L 11 437 L 13 436 L 8 428 Z M 15 433 L 18 439 L 34 449 L 32 450 L 28 448 L 26 449 L 31 452 L 34 455 Q 33 452 36 453 L 37 452 L 36 449 L 45 453 L 44 455 L 41 453 Q 36 452 37 455 Q 44 456 48 461 L 45 462 L 56 468 L 57 468 Q 54 466 55 463 L 57 463 L 55 461 L 51 462 L 46 457 L 46 454 Q 53 454 57 458 L 54 458 L 51 457 L 49 458 L 62 462 L 62 461 L 59 459 L 59 458 L 63 459 Q 66 460 64 467 L 66 470 L 66 476 L 74 495 L 80 500 L 79 503 Q 76 502 77 505 L 80 507 Q 79 510 83 508 Q 84 505 82 506 L 82 505 L 86 506 L 88 506 L 85 502 Q 86 499 84 500 L 72 484 L 71 473 L 67 461 L 49 449 L 44 448 L 28 440 L 20 434 L 15 433 Z M 15 436 L 14 438 L 16 439 L 15 436 Z M 8 437 L 10 444 Q 15 448 23 450 Q 25 451 24 449 Q 22 447 25 446 L 29 448 L 30 448 L 28 445 L 24 444 L 22 445 L 12 439 Q 9 440 10 437 L 8 437 Z M 36 458 L 37 460 L 43 464 Q 45 463 44 466 L 43 465 L 40 466 Q 44 471 52 471 L 53 468 L 44 463 L 41 459 L 36 458 Z M 24 462 L 27 466 L 28 464 L 28 462 L 24 462 Z M 31 463 L 30 466 L 40 471 L 45 471 L 34 464 L 31 463 Z M 58 463 L 57 466 L 62 469 L 62 472 L 58 470 L 60 469 L 60 468 L 57 469 Q 53 468 54 471 L 63 475 L 64 476 Q 65 469 62 467 Q 64 462 60 463 L 58 463 Z M 30 469 L 30 471 L 40 475 Q 47 476 46 473 L 30 469 Z M 56 473 L 55 474 Q 49 472 50 476 L 56 478 Q 59 477 58 480 L 51 480 L 49 482 L 54 485 L 62 486 L 63 484 L 60 480 L 61 477 L 56 473 Z M 46 476 Q 44 479 43 477 Q 38 476 39 479 L 45 481 L 48 479 Q 53 481 52 477 L 46 476 Z M 39 482 Q 40 486 45 487 L 54 487 L 51 485 L 48 482 L 47 483 L 39 482 Z M 37 485 L 35 487 L 40 488 Q 41 490 42 488 L 37 485 Z M 58 488 L 55 489 L 57 493 L 55 494 Q 52 493 53 496 L 57 497 L 58 495 Q 57 490 61 492 L 61 490 L 58 488 Z M 61 493 L 60 497 L 64 498 Q 70 499 69 497 L 64 493 L 61 493 Z M 43 532 L 39 534 Q 35 533 36 536 L 43 535 L 45 538 L 46 545 L 52 548 L 56 547 L 57 548 L 56 544 L 53 545 L 50 544 L 48 543 L 46 533 L 43 532 Z M 50 537 L 49 540 L 52 543 Q 55 544 56 542 L 54 538 L 50 537 Z M 304 546 L 303 547 L 280 547 L 279 548 Q 277 546 272 547 L 270 547 L 261 547 L 260 548 Q 258 545 252 547 L 250 547 L 247 548 L 207 548 L 206 549 Q 204 547 200 548 L 198 548 L 196 549 L 193 548 L 191 549 L 187 548 L 186 549 L 143 549 Q 141 552 136 550 L 134 550 Q 129 551 128 549 L 127 550 L 105 550 L 103 550 Q 97 552 96 549 L 94 550 L 92 549 L 90 550 L 76 550 L 73 549 L 65 550 L 63 550 L 60 549 L 57 550 L 55 550 Q 48 552 47 549 L 44 550 L 42 550 L 31 550 L 30 549 L 29 550 L 16 550 L 15 551 L 10 550 Q 6 549 8 555 L 8 557 L 9 559 L 8 561 L 9 592 L 11 593 L 12 592 L 99 592 L 100 591 L 102 592 L 104 591 L 107 592 L 110 591 L 113 592 L 118 591 L 163 591 L 164 590 L 166 591 L 169 590 L 172 591 L 173 590 L 243 590 L 244 589 L 249 590 L 251 590 L 252 589 L 305 589 L 307 589 L 309 588 L 312 589 L 314 589 L 323 589 L 324 588 L 327 589 L 329 589 L 332 588 L 334 589 L 334 547 L 317 547 L 316 548 L 315 547 L 305 547 L 304 546 Z "></path><path d="M 327.5 11 Q 330.1 10.3 329 13 Q 322.1 12.2 318.5 16 L 314.5 16 L 314.5 15 L 320 14 Q 318.9 10.5 326.5 12 L 327.5 11 Z "></path><path d="M 155.5 13 Q 156.9 15.6 161.5 15 L 163.5 15 L 165.5 14 L 167.5 14 L 183.5 14 L 184 16 L 177.5 16 L 177 17.5 L 174 19 L 172 26.5 L 177.5 34 Q 184.4 32 183 36 L 180.5 37 L 169.5 37 L 168.5 38 L 166.5 37 L 164.5 38 L 162.5 38 L 152.5 38 L 152 36 L 154.5 35 L 158.5 36 L 160 33 Q 162.7 34.1 162 31.5 Q 165.8 30.8 165 25.5 L 157.5 17 L 150.5 17 L 150 15 Q 154.3 16 155.5 13 Z M 165 16 L 163 19 L 168 23 L 172 19 Q 173 14 169 16 L 165 16 Z M 168 29 L 164 34 L 165 36 L 171 35 Q 172 30 168 29 Z "></path><path d="M 316.5 17 L 322 17.5 L 316.5 18 L 316.5 17 Z "></path><path d="M 66.5 18 L 72 18.5 L 67.5 20 L 65.5 20 L 58.5 22 L 56 24.5 L 57 26.5 L 55 27 L 55 22 L 56.5 22 L 66.5 18 Z M 69 23 Q 68 26 71 25 Q 72 22 69 23 Z "></path><path d="M 283.5 22 L 286 22.5 Q 281.5 26.5 273.5 27 L 271.5 29 L 268.5 29 L 266.5 28 Q 260 32 261 43.5 Q 263.8 45.3 262 51.5 L 258.5 59 L 252 58 L 256 43.5 L 253 35.5 L 248.5 31 Q 243.1 32.9 244 29.5 Q 245.8 26.3 247.5 30 L 254 34.5 L 257 40.5 L 257 46.5 Q 254.3 51.1 255 58 L 259 56.5 L 260 43.5 Q 257.8 42.2 259 37.5 L 264 27 L 267.5 26 L 270.5 28 Q 272.7 24.2 279.5 25 L 283.5 22 Z M 275 31 L 270 38 L 272 40 L 276 35 Q 277 30 275 31 Z M 277 36 L 275 41 L 279 40 L 280 38 L 277 36 Z M 268 41 L 268 44 L 270 43 Q 271 40 268 41 Z M 276 44 L 275 45 Q 271 44 272 47 L 277 46 Q 278 43 276 44 Z M 271 47 L 268 49 Q 270 53 272 50 L 271 47 Z M 275 50 L 272 53 L 280 55 Q 284 56 285 54 L 275 50 Z M 268 52 L 269 54 Q 270 51 268 52 Z "></path><path d="M 287.5 25 L 294 26 L 293 30 L 286.5 32 L 286.5 31 L 292 27.5 L 290.5 27 L 280.5 30 L 279.5 28 L 287.5 25 Z "></path><path d="M 295.5 25 L 298 26.5 L 295 27 L 295.5 25 Z "></path><path d="M 178 28 L 186 29.5 L 185 33.5 L 185.5 35 Q 182.3 33.8 183 30 L 178 30 L 178 28 Z "></path><path d="M 189.5 31 L 194 33 Q 195.1 35.7 192.5 35 L 189.5 31 Z "></path><path d="M 233 33 Q 238.2 31.3 237 35 Q 231.8 36.7 233 33 Z "></path><path d="M 198 35 L 207.5 38 L 211 41.5 L 209.5 42 L 205.5 39 L 198 37 L 198 35 Z "></path><path d="M 75.5 38 L 77 38.5 L 74.5 40 L 75.5 38 Z "></path><path d="M 62.5 45 Q 66.7 43.9 65 48 L 61 46.5 L 62.5 45 Z "></path><path d="M 221.5 51 Q 228.4 52.6 231 58.5 Q 231.8 60.8 229.5 60 L 222.5 52 L 221.5 51 Z "></path><path d="M 86.5 105 L 89 106 L 88.5 109 Q 84.9 107.9 86.5 105 Z "></path><path d="M 187 117 L 190 118.5 L 189 121 L 183 122 Q 181.9 119.3 184.5 120 Q 185.8 122.3 187 119.5 L 187 117 Z "></path><path d="M 239.5 117 L 245 118.5 L 242.5 119 L 239.5 118 L 239.5 117 Z "></path><path d="M 145 131 Q 149.1 129.7 148 133 Q 143.9 134.3 145 131 Z "></path><path d="M 243.5 133 Q 245.8 132.3 245 134.5 L 243.5 133 Z "></path><path d="M 232.5 136 Q 237.9 134.1 237 137.5 L 235.5 137 Q 231.5 137.7 232.5 136 Z "></path><path d="M 111.5 143 L 126.5 145 L 133 149.5 L 134 157.5 L 131 163 L 127.5 165 L 120.5 165 L 118 163.5 L 121.5 163 L 125.5 164 Q 131.8 162.3 130 152.5 L 125.5 147 Q 115.8 146.8 111.5 143 Z "></path><path d="M 93.5 150 Q 97.3 149.3 98 151.5 L 96.5 151 Q 92.5 151.8 93.5 150 Z "></path><path d="M 112 174 L 118.5 178 Q 123 177 124 179.5 L 129 186.5 L 127.5 190 Q 126.3 186.3 122 187 L 122 185 Q 125.7 186.5 125 183.5 Q 123.4 178.7 117 180 L 115.5 177 L 112 175.5 L 112 174 Z "></path><path d="M 195.5 181 L 203 186.5 Q 203.8 188.8 201.5 188 L 194 182.5 L 195.5 181 Z "></path><path d="M 164.5 194 L 178.5 195 L 180 194.5 L 181 198.5 L 180 201 L 171.5 200 L 170 202.5 Q 172.8 204.3 171 210.5 L 170 213 L 164 213 L 164 208.5 L 163 203.5 Q 165.3 202.3 162.5 201 L 159.5 199 Q 158 202.5 156.5 200 L 154 200 L 154 195 L 163.5 195 L 164.5 194 Z "></path><path d="M 104.5 217 Q 110 216 111 219.5 L 116 233 Q 110.4 234 109 229.5 L 106 223 L 98.5 228 L 90.5 231 L 89 228.5 L 91.5 226 Q 96.1 226.6 97.5 224 L 104.5 217 Z "></path><path d="M 233.5 220 L 238 221 L 241 227.5 L 241 231.5 L 240 236.5 L 242 239.5 L 238.5 241 L 231 235.5 L 230 231.5 L 233 223 Q 230 224 231 221 L 233.5 220 Z "></path><path d="M 157.5 222 L 159.5 223 L 160.5 222 L 171.5 222 L 177.5 224 L 179.5 224 L 187.5 225 L 201.5 231 L 219 243 L 231 257.5 L 237 269.5 L 243 288.5 L 243 312.5 L 240 325.5 L 238 327.5 L 236 335.5 L 223 355 L 207.5 367 L 191.5 375 L 173.5 379 L 159.5 379 Q 158 376.5 156.5 380 L 152.5 380 L 148.5 377 L 137.5 374 L 120 365 Q 121.1 362.3 118.5 363 L 106 351.5 L 98 340.5 L 91 326.5 L 87 310.5 L 87 295.5 L 88 290.5 L 88 288.5 Q 93.1 260.1 110.5 244 L 132.5 229 L 143.5 225 L 157.5 222 Z M 161 226 L 146 229 L 144 229 Q 129 233 120 242 Q 107 252 99 268 L 95 278 L 92 292 L 92 310 L 95 323 Q 100 338 109 349 Q 117 358 129 365 L 145 372 L 153 373 L 154 374 L 153 370 Q 152 367 156 368 L 157 374 L 168 374 L 169 375 Q 170 373 176 374 L 178 374 L 194 370 L 212 359 Q 223 350 230 337 L 236 322 Q 235 315 238 313 L 238 289 L 236 281 Q 230 261 218 249 L 206 238 L 195 232 L 183 228 L 172 227 L 170 227 L 168 226 L 166 227 L 164 227 L 161 226 Z "></path><path d="M 164.5 228 Q 169.3 227.3 170 230.5 L 168 233.5 L 166 236.5 L 168.5 238 Q 169.7 235.8 171 238.5 L 172 242.5 L 170 247 L 167 248.5 Q 166.3 250.8 168.5 250 L 172 257.5 L 170 261 L 167 262.5 Q 165.5 266.9 168.5 266 L 170 268.5 L 167 270 L 166 274.5 Q 167.4 277.3 172 276 Q 170.9 278.7 173.5 278 L 174.5 277 L 178.5 281 L 182.5 282 L 187 279 Q 185.9 276.3 188.5 277 L 212 253.5 Q 211.3 249.8 213.5 249 Q 217.9 251.4 218 257 Q 213 256.2 211 259.5 L 209.5 262 L 200 270.5 Q 200.8 272.8 198.5 272 L 193 279 L 185 285.5 L 191.5 299 L 195 299 L 195 293 L 197.5 293 L 201 292 L 201 299 L 205 299 Q 204.1 291.9 207.5 288 Q 218.5 291 225.5 298 L 232 299 L 233.5 296 L 236 297.5 L 237 303.5 L 236 306 L 232 304.5 Q 232.8 302.3 230.5 303 L 228.5 302 L 225.5 305 L 209.5 313 L 206 313 Q 204.1 310.3 205 303.5 L 203.5 302 L 200 303.5 L 198.5 307 Q 195.2 308.1 196 305.5 L 194.5 302 Q 190.8 301.3 190 303.5 L 190 308.5 L 182 320.5 L 198 337.5 L 200 342 Q 202.7 340.9 202 343.5 L 208.5 351 L 213 350 Q 214.3 355.5 210.5 357 L 206 356 Q 206.8 351.5 204 349.5 L 194 339.5 L 194 338 Q 191.3 339.1 192 336.5 L 178.5 322 L 174.5 325 L 167 326 L 167 342.5 L 170.5 343 L 172 346 L 179 344 L 177.5 347 L 173.5 350 L 167 346 L 168.5 352 L 172.5 351 Q 174.5 355 176.5 351 L 180 350 L 180 353 Q 175.9 351.7 177 355 L 173.5 355 L 170.5 357 Q 168.8 353.3 167 356.5 L 168 364.5 L 167 367 L 170 368.5 Q 171.1 371.8 168.5 371 L 165.5 372 L 162 371 L 161 368.5 L 163 365.5 L 164 355.5 L 163 355.5 Q 163.9 358.5 159.5 357 L 154 352.5 L 155.5 350 L 159.5 353 L 164 349.5 L 160 347 Q 161.3 350.3 156.5 349 L 152 345.5 L 154.5 344 Q 156 346.5 157.5 343 L 159.5 342 L 162.5 345 L 164 343.5 L 164 327.5 L 162.5 326 L 158.5 326 L 148.5 321 L 141 327 L 139.5 330 Q 137.3 329.3 138 331.5 Q 127.5 340 120.5 352 L 117 351 L 116 346.5 L 126 340 L 126 338.5 L 144 319.5 L 145 316.5 Q 139.5 311.8 140 302 L 125.5 302 L 118.5 308 L 112.5 308 L 107 303.5 L 105.5 300 L 103.5 300 L 101.5 300 L 96.5 304 Q 94.3 303.3 95 299.5 L 96 294 Q 99.7 292.5 99 295.5 L 102.5 297 L 104.5 296 Q 105.8 298.3 107 295.5 L 110.5 291 L 114.5 289 L 121.5 291 L 124 293.5 L 125 298 L 138.5 298 L 140 296.5 Q 140.9 287.9 146 283.5 L 130 263 L 127 261.5 L 119.5 253 L 117.5 254 L 116 250.5 L 118 247 L 121.5 245 Q 124.5 246.5 123 252.5 L 148.5 281 L 154.5 277 L 161.5 276 L 163 274.5 Q 165.2 268.2 159.5 270 L 157 269.5 L 157 266 L 163 266 L 163 263 L 157 260 L 156 254.5 L 161 248.5 Q 156.8 245.8 156 239.5 L 157 236 L 160 237.5 L 161.5 244 Q 163.8 243.3 163 239.5 L 162 237.5 L 163 232.5 L 162 229 L 164.5 228 Z M 167 238 L 166 241 L 167 241 L 167 238 Z M 162 252 L 160 256 L 163 258 Q 164 253 162 252 Z M 168 255 L 167 259 L 168 259 L 168 255 Z M 160 279 Q 154 280 151 285 L 161 296 Q 160 298 163 297 L 163 291 L 162 290 L 163 287 Q 164 282 162 281 Q 163 278 160 279 Z M 166 279 L 167 298 L 167 296 L 173 293 L 179 285 L 174 281 L 172 281 L 166 279 Z M 148 286 Q 144 290 144 298 L 152 298 L 153 299 L 156 298 L 158 299 L 157 296 L 150 288 Q 151 285 148 286 Z M 182 289 L 180 292 L 175 296 Q 176 298 174 297 L 173 299 L 177 298 L 180 299 L 182 299 Q 185 300 186 298 L 185 293 L 183 291 Q 184 288 182 289 Z M 115 293 L 114 294 Q 109 293 111 297 L 121 297 L 121 295 L 115 293 Z M 210 294 L 210 299 L 213 299 L 219 299 L 210 294 Z M 113 301 Q 112 305 118 303 L 119 301 L 117 302 L 113 301 Z M 143 302 L 147 314 L 149 315 L 160 304 L 160 302 L 143 302 Z M 179 302 L 178 303 L 168 303 L 172 310 L 180 316 L 185 308 L 185 303 L 179 302 Z M 210 302 L 210 309 L 221 305 L 223 302 L 221 303 L 210 302 Z M 163 307 L 156 312 L 152 318 Q 154 321 159 321 L 161 321 L 163 322 L 163 307 Z M 168 308 L 167 322 L 175 320 L 175 318 L 168 308 Z "></path><path d="M 97.5 230 L 103 237.5 L 102 242 L 99.5 243 Q 99.5 237 95 235.5 L 95 232.5 L 97.5 230 Z "></path><path d="M 39.5 266 L 45 267.5 L 36.5 268 L 33 270 Q 31.8 275.5 35.5 277 L 41.5 278 L 45 280 Q 46.5 285.4 43.5 287 L 39.5 288 L 39.5 287 L 43 284.5 Q 43.8 280.8 41.5 280 Q 33.4 280.1 31 274.5 L 33.5 268 L 39.5 266 Z "></path><path d="M 71.5 285 L 79 288.5 L 82 294.5 L 82 300.5 L 77.5 307 L 67.5 309 L 60 304.5 Q 57 301.5 58 294.5 L 61 288 L 71.5 285 Z M 69 291 L 65 298 L 66 300 L 69 302 L 73 303 L 76 301 L 76 296 L 74 292 L 69 291 Z "></path><path d="M 27.5 287 L 37 287.5 L 28.5 288 L 25 291.5 L 24 297.5 L 27.5 301 L 33.5 301 L 42 305 L 44 310.5 L 41.5 315 L 35.5 317 L 28.5 317 L 19.5 319 L 13 323.5 L 13 330.5 L 19.5 338 L 25.5 339 L 26.5 338 L 43.5 338 L 51 341 L 52 346.5 L 51 349 L 45.5 352 L 40.5 352 L 34.5 354 L 29 357.5 Q 25.4 360.4 27 368.5 L 29 373.5 L 27 372.5 Q 23.8 369.2 25 361.5 L 27 357 L 35.5 352 Q 44.3 351.8 49 347.5 Q 50 342 46.5 341 L 36.5 339 L 34.5 340 L 32.5 340 Q 17.8 342.2 13 334.5 L 10 326.5 L 14.5 320 L 17.5 318 L 29.5 315 L 31.5 315 Q 38.8 316.3 41 312.5 Q 41.9 305.6 37.5 304 L 28.5 303 L 22 297.5 Q 21.9 289.4 27.5 287 Z "></path><path d="M 250.5 291 Q 253.4 293.6 259.5 293 L 261.5 295 Q 263 292.5 264.5 296 L 269.5 298 L 273 297 L 273 311.5 L 271.5 312 L 264.5 314 L 262.5 314 L 256.5 314 L 248.5 316 L 246 315 Q 244.5 311.3 247.5 312 L 260 307.5 L 261 300 L 249.5 297 L 248 295.5 L 250.5 291 Z M 265 302 L 265 307 L 267 307 L 267 302 L 265 302 Z "></path><path d="M 36.5 297 L 39 298.5 L 37.5 299 L 36.5 297 Z "></path><path d="M 226.5 358 L 229 359.5 Q 227.5 363.9 230.5 363 L 234 368.5 L 231.5 372 Q 229.3 372.8 230 370.5 L 227.5 367 L 225 365.5 Q 223.5 359.5 226.5 358 Z "></path><path d="M 105.5 361 Q 110.3 359.3 109 363.5 L 100 374.5 Q 104 376.5 104 382.5 L 101.5 386 Q 96.3 387.8 98 382.5 L 97 380 L 93 378 L 93 374.5 L 105.5 361 Z "></path><path d="M 216.5 367 L 225 374.5 L 226.5 378 L 233.5 372 L 241 370 L 237.5 376 Q 230.7 377.7 227.5 383 L 224.5 383 L 216.5 374 Q 213.9 374.8 215 371.5 L 214 368 L 216.5 367 Z "></path><path d="M 169.5 382 L 170.5 383 L 177 383 Q 178 386 175 385 L 175 389.5 L 176 390.5 L 176 408 Q 164.2 409.3 157 407 L 155 403.5 L 155 399.5 L 159 397 L 159 394 Q 156.3 395.1 157 392.5 L 151 385.5 Q 152.4 382.4 157.5 383 L 160 384 Q 161.5 390.7 166.5 395 L 168 394.5 L 168 383.5 L 169.5 382 Z M 162 401 L 162 404 L 168 404 L 168 401 L 162 401 Z "></path><path d="M 328.5 424 L 332 426.5 L 328.5 428 L 326.5 427 L 323 429.5 Q 320 432.5 320 438.5 L 325 446 Q 318.6 447 317 441.5 Q 317.6 438.8 311.5 440 L 308 443.5 L 308 446.5 L 304.5 452 L 300 442.5 L 292.5 434 L 284.5 431 L 277.5 431 Q 268.2 433.2 262.5 439 L 261 438.5 L 257 449.5 Q 258.3 456.3 256 459.5 L 258 462.5 L 255.5 467 L 252.5 468 L 246.5 461 L 238.5 462 L 236 464.5 Q 238.2 470.8 232.5 469 L 230.5 469 L 226.5 468 L 224 469 L 221.5 473 L 218.5 474 L 215.5 471 Q 210 472.5 208.5 470 L 200.5 472 L 194 478.5 L 192 482.5 L 191 492.5 L 196 501.5 L 195 505 Q 190.8 506 191.5 503 L 187.5 503 L 181 508.5 L 180 512.5 L 181 517 L 177 515.5 L 176 512 L 168.5 511 L 163 514.5 L 160 521.5 Q 163.7 524.6 164 530 L 168.5 532 L 170 531.5 Q 170.8 533.8 168.5 533 L 166.5 533 Q 160.8 533.8 160 529.5 L 157 521 L 150 522 Q 148.7 518.7 153.5 520 L 158 515.5 L 161 506.5 L 160 504.5 L 160 502.5 L 160 499.5 L 156.5 494 Q 150.3 487.7 139.5 486 L 131 490 Q 129.9 487.3 132.5 488 L 138 486 L 140 480.5 L 140 473.5 L 135.5 467 Q 132 464.5 124.5 466 Q 123.3 469 119 468 L 122 460.5 L 113.5 450 L 108.5 449 L 99.5 452 L 95 456.5 L 94 464.5 L 92.5 466 Q 90.3 466.8 91 464.5 L 90 462.5 L 91 457 L 85.5 454 L 83 458 Q 80.3 459.1 81 456.5 L 80 452.5 L 81 448.5 Q 79.8 440.2 73.5 437 L 69.5 435 Q 64 436.5 62.5 434 L 61 434.5 Q 62.8 431.3 69.5 433 Q 78.5 435.4 83 442.5 L 84 451.5 L 85.5 453 L 88.5 452 L 92 453 L 92.5 455 L 95.5 451 L 105.5 447 L 111.5 447 L 118 450.5 Q 117.3 452.8 119.5 452 L 125 458.5 L 125 463 L 136.5 464 L 140 467.5 Q 144 471.5 144 479.5 L 141 485 L 148.5 487 L 150.5 487 Q 157.9 489.6 162 495.5 L 165 503.5 Q 162.5 505 164 510.5 L 165.5 510 L 175.5 509 Q 176.8 511.2 178 508.5 L 182.5 503 L 190 499.5 Q 186.1 495.4 187 486.5 Q 188.6 477.1 194.5 472 Q 201.5 466 216.5 468 L 219.5 470 L 226.5 464 L 229.5 464 L 231.5 465 L 236.5 458 L 246.5 457 L 252.5 460 L 254 457.5 L 253 456.5 L 253 448.5 Q 254.7 440.7 259.5 436 L 269.5 430 L 276.5 428 L 285.5 428 Q 297.7 430.8 303 440.5 Q 301.9 443.8 304.5 443 L 310.5 437 L 317 437 L 317 433.5 L 322.5 427 L 328.5 424 Z M 167 425 L 167 427 L 169 428 Q 170 424 167 425 Z M 180 426 L 178 428 L 180 428 L 180 426 Z M 191 426 L 190 432 L 191 432 L 191 426 Z M 168 428 Q 166 431 169 430 L 168 428 Z M 231 428 L 229 433 L 231 433 L 231 428 Z M 173 429 L 173 431 L 175 430 L 173 429 Z M 189 429 L 187 431 L 189 431 L 189 429 Z M 192 429 Q 191 432 194 431 Q 195 428 192 429 Z M 240 429 L 238 431 L 240 431 L 240 429 Z M 218 431 L 218 433 L 220 432 L 218 431 Z M 222 431 L 221 434 L 222 434 L 222 431 Z M 224 431 L 223 434 L 224 434 L 224 431 Z M 207 432 L 206 435 L 208 436 L 207 432 Z M 226 432 L 225 436 L 227 435 L 229 436 L 230 436 L 226 434 L 226 432 Z M 172 433 Q 171 436 174 435 Q 175 432 172 433 Z M 215 433 L 215 435 L 217 436 Q 218 432 215 433 Z M 235 433 Q 233 436 236 435 L 235 433 Z M 219 434 L 218 441 L 219 441 L 219 434 Z M 178 435 Q 176 438 179 437 L 178 435 Z M 196 435 Q 195 438 198 437 Q 199 434 196 435 Z M 213 435 L 213 439 L 215 439 L 214 438 L 215 436 L 213 435 Z M 187 436 L 187 438 L 189 437 L 187 436 Z M 195 436 L 194 439 L 195 439 L 195 436 Z M 228 436 L 227 439 L 225 440 L 228 441 L 228 436 Z M 212 437 L 211 442 L 212 442 L 212 437 Z M 217 437 L 215 446 L 216 448 Q 214 449 217 450 L 217 448 L 219 448 L 219 446 L 218 446 L 217 437 Z M 221 437 L 222 439 Q 223 436 221 437 Z M 229 437 L 229 439 L 231 438 L 229 437 Z M 198 438 Q 197 441 200 440 Q 201 437 198 438 Z M 186 440 Q 185 443 188 442 Q 189 439 186 440 Z M 194 440 Q 192 443 195 442 L 194 440 Z M 204 440 L 204 444 L 205 444 Q 206 439 204 440 Z M 225 440 L 222 442 L 225 443 Q 228 442 225 440 Z M 199 441 L 198 444 L 199 444 L 199 441 Z M 196 443 Q 194 446 197 445 L 196 443 Z M 208 443 L 206 446 L 208 445 L 208 443 Z M 213 443 L 213 448 L 215 448 L 214 447 L 215 445 Q 216 442 213 443 Z M 220 443 L 220 447 L 223 445 Q 224 442 220 443 Z M 198 445 L 198 446 L 202 448 L 202 447 Q 201 444 198 445 Z M 203 445 Q 202 448 205 447 Q 206 444 203 445 Z M 212 447 Q 210 450 213 449 L 212 447 Z M 207 448 L 206 451 L 208 451 L 207 448 Z M 214 449 L 214 452 Q 217 451 214 449 Z M 208 451 Q 207 454 210 453 Q 211 450 208 451 Z M 313 468 L 288 480 L 289 482 L 314 469 L 313 468 Z M 311 472 L 304 476 L 298 483 Q 308 482 312 474 Q 313 471 311 472 Z M 327 473 L 324 475 L 322 478 L 326 480 L 322 485 L 324 485 L 327 481 L 326 478 L 328 475 Q 329 472 327 473 Z M 62 478 L 62 480 L 66 482 Q 68 476 62 478 Z M 322 478 L 320 482 L 322 482 L 322 478 Z M 67 482 Q 67 485 64 484 Q 63 487 66 486 L 68 488 L 67 482 Z M 285 484 L 282 485 L 283 487 L 288 485 L 285 484 Z M 300 484 L 295 485 L 283 492 L 274 494 L 273 496 L 291 495 L 297 493 L 298 491 Q 292 493 294 488 L 301 486 Q 302 483 300 484 Z M 320 485 L 320 487 L 322 486 L 320 485 Z M 284 488 L 281 489 L 280 491 L 286 489 L 284 488 Z M 63 489 L 63 491 Q 66 495 72 495 L 70 490 L 69 490 L 63 489 Z M 316 495 L 306 504 Q 305 507 308 506 L 316 497 L 316 495 Z M 74 496 L 71 499 L 75 501 Q 79 502 78 500 L 74 496 Z M 65 499 L 66 501 Q 67 498 65 499 Z M 240 499 L 239 502 L 240 502 L 240 499 Z M 68 500 L 68 502 L 72 503 L 74 503 L 68 500 Z M 263 501 L 261 505 L 266 507 L 263 501 Z M 266 501 L 265 503 L 267 504 L 266 501 Z M 273 501 L 271 503 L 278 505 Q 284 506 284 504 L 283 502 Q 276 503 273 501 Z M 236 504 L 234 509 L 236 510 L 236 504 Z M 76 505 Q 73 509 77 508 L 76 505 Z M 232 505 L 230 508 L 232 507 L 232 505 Z M 259 505 Q 257 508 260 507 L 259 505 Z M 318 505 L 318 509 L 320 508 Q 322 509 321 507 L 318 505 Z M 220 506 Q 219 509 222 508 Q 223 505 220 506 Z M 268 506 L 268 508 L 275 512 L 273 506 L 271 507 L 268 506 Z M 309 506 L 307 511 L 310 512 L 307 514 L 300 509 L 296 510 L 292 516 L 293 523 L 304 529 L 312 527 L 311 529 L 312 530 L 314 527 L 313 511 L 309 506 Z M 305 507 L 303 510 L 306 509 Q 307 506 305 507 Z M 225 508 Q 223 510 219 509 L 217 511 L 221 512 L 222 514 Q 223 511 228 512 L 228 510 L 226 510 Q 227 507 225 508 Z M 261 508 L 259 510 L 260 512 Q 259 516 263 514 L 261 508 Z M 265 508 L 268 514 L 269 514 L 267 510 Q 268 507 265 508 Z M 228 514 L 225 519 Q 224 522 227 521 L 231 516 Q 232 513 228 514 Z M 319 514 L 319 517 L 322 516 Q 323 513 319 514 Z M 233 516 L 232 518 L 231 520 L 233 519 L 233 516 Z M 297 527 Q 295 531 289 529 L 287 532 L 289 531 L 292 532 L 295 531 L 297 531 Q 302 533 301 529 L 297 527 Z "></path><path d="M 18 452 Q 21 451 20 454 Q 17 455 18 452 Z "></path><path d="M 22.5 453 L 26 454.5 L 22 455 L 22.5 453 Z "></path><path d="M 311.5 458 L 313 460.5 L 303 467.5 L 300.5 471 Q 298.3 470.3 299 472.5 L 300.5 472 L 317 465 L 316 471.5 L 301.5 487 L 298 488.5 L 301 489 L 296.5 495 L 279.5 498 L 268 498.5 L 271.5 500 L 288.5 501 L 292 499.5 L 289 497.5 L 293 497 L 294.5 500 L 304.5 503 L 315 493.5 L 319 487.5 L 319 482.5 L 318 480.5 L 323.5 473 L 330.5 469 L 331 471.5 L 328 476.5 L 330 479.5 L 325.5 485 L 323 486.5 L 317 497.5 L 310 506 L 314 508.5 L 317 516.5 L 317 522.5 Q 314.5 524 316 529.5 L 314.5 531 L 308.5 532 L 306.5 531 L 300.5 533 L 286.5 534 Q 284 532.8 285 529 L 290.5 527 L 294 528 L 292 524 L 288.5 524 L 286.5 524 Q 281 525.5 279.5 523 L 275.5 524 L 275.5 522 L 274 521.5 L 275.5 521 L 276.5 522 L 286.5 522 L 287.5 523 L 290 520.5 Q 289.1 512.1 293.5 509 L 302 506 L 301.5 504 L 299.5 504 L 291.5 501 L 287 503.5 L 285.5 506 L 275 506.5 L 278 512.5 L 274.5 514 L 270 513 L 268.5 516 L 264.5 514 L 260.5 516 L 255 508.5 L 255.5 507 L 249 510 Q 247.9 507.3 250.5 508 L 257 503.5 L 256 501 L 258.5 502 Q 261.3 500.8 259 499.5 Q 258.1 496.5 262.5 498 L 271 493.5 L 268.5 493 L 264.5 495 L 264 493.5 L 265.5 492 L 274.5 490 L 279 486.5 L 276.5 486 L 270.5 489 L 268.5 489 L 267 488.5 L 270.5 486 L 280.5 484 L 285 480.5 L 283.5 480 L 262.5 487 L 257 492.5 L 256 496.5 L 257 498.5 L 255.5 498 L 252 500.5 L 250.5 503 Q 248.3 503.8 249 501.5 L 254 495.5 L 254 493 Q 249.9 491.3 251 495.5 L 250 498 Q 246.3 499.5 247 496.5 L 250 491 L 246 492 L 247 485.5 Q 245 482 243 486.5 L 243 489 Q 246 487.8 245 491.5 L 236.5 496 L 233.5 496 Q 231 494.8 232 491 L 235.5 490 L 237 490.5 L 234 482 Q 231.3 483.1 232 480.5 L 227.5 484 L 223 487.5 L 220 491.5 L 217 500.5 L 218.5 504 L 221 504 Q 219.9 501.3 222.5 502 Q 224 504.5 225.5 501 L 227.5 500 L 228 503 L 225 504.5 L 225.5 507 L 229.5 504 L 231 504.5 Q 230.3 502.3 232.5 503 L 234.5 503 L 236.5 504 L 238 503.5 L 238.5 505 L 239 502 L 236 500.5 L 237 497 L 239.5 496 L 242 496.5 L 243 500 L 246 501.5 L 245 512 L 242 510.5 L 243 503.5 L 241 504.5 L 240 509.5 L 241 512.5 Q 239.6 518.6 234.5 521 L 231.5 523 L 222.5 523 L 221.5 524 L 220.5 523 L 212 523 Q 209.3 530.5 217.5 528 L 219.5 527 L 221.5 528 L 224.5 527 L 230.5 529 L 232.5 529 L 236.5 528 L 238.5 528 Q 244 528.5 246 525.5 L 247 521 Q 252.8 519.5 254.5 523 L 256 522.5 L 254.5 525 L 251.5 524 L 240.5 530 L 227.5 530 L 226.5 529 L 217.5 529 L 214.5 532 L 209.5 533 L 207.5 531 L 200.5 531 L 193.5 529 L 192 529.5 L 192.5 527 L 199.5 529 L 201.5 529 Q 207.6 528.4 210.5 531 L 207 526.5 Q 207.9 523.1 202.5 525 L 198 524 L 198.5 522 L 210 524 Q 208.8 521 212.5 522 L 215.5 521 L 218.5 522 Q 222.3 523 221 520 L 217 519.5 Q 223.3 520.3 225 516.5 Q 224.3 514.3 226.5 515 L 226.5 514 L 218.5 516 L 215 515 L 216 507 L 203 504 L 198 513.5 L 200.5 516 Q 206.5 515 208.5 518 L 214.5 518 L 216 519.5 L 214.5 520 L 195.5 515 L 191.5 517 L 192.5 515 L 196 514 L 203 502 L 215 506 L 214 499.5 L 219 489.5 L 225.5 483 L 228 481.5 L 230.5 478 L 233.5 478 Q 237.6 482.4 245.5 483 L 248.5 482 L 251 486.5 L 250 489 L 254.5 492 L 271.5 477 L 292.5 467 L 292.5 468 L 272.5 478 L 266 483.5 L 268.5 484 L 281.5 479 L 288.5 473 L 294.5 471 L 298.5 467 L 308.5 463 L 311 460.5 L 309.5 460 L 300.5 464 L 300.5 463 L 311.5 458 Z "></path><path d="M 297.5 464 L 299 464.5 L 294.5 467 L 295.5 465 L 297.5 464 Z "></path><path d="M 102 466 L 110 467 L 113 472.5 L 113 477.5 L 112 482 L 115.5 481 L 122 483 Q 122.8 487.7 118.5 489 L 116 489 L 116 494.5 Q 119 497.5 119 503.5 Q 116.3 504.6 117 508 L 113 509 L 112 511.5 L 118 515 L 118 519.5 L 114 526 L 116 526.5 L 103.5 527 L 99 526 L 100 517.5 L 97 509.5 L 99 508.5 L 101 518 L 104.5 517 L 108 519.5 L 106.5 523 L 105 523 L 105 519 L 102.5 519 Q 100 520 101 524.5 L 103 524.5 L 103.5 526 L 111.5 526 L 116 519.5 L 116 516.5 L 110 513 Q 111.5 509.2 108.5 510 L 105.5 508 L 105 509.5 L 108 511 Q 109.1 513.7 106.5 513 L 103 512 L 102 507.5 L 105.5 504 L 106.5 505 L 113.5 507 L 117 505 L 117 503 Q 114.3 504.1 115 501.5 L 116 498.5 L 112 492.5 L 112 488 Q 118.3 489.5 120 485.5 Q 118 482 111.5 483 L 108.5 487 L 105.5 488 L 104 487.5 L 102.5 490 L 101.5 488 L 99.5 489 L 101.5 486 L 103.5 487 L 104 485 L 108 486 L 107 482.5 L 109 482.5 Q 110.3 478.3 105.5 480 L 96.5 486 Q 90 484.5 87.5 479 Q 84.7 480.3 87 481.5 L 89.5 485 L 92.5 487 L 94 486.5 Q 94.5 490.5 91.5 491 L 91 489.5 Q 93.3 488.3 90.5 487 L 86 485 L 85 478.5 Q 87 474 89 477.5 Q 88.3 479.8 90.5 479 L 93.5 483 L 99.5 483 L 105 479.5 L 105 470.5 L 103.5 469 Q 100.5 469.7 102 466 Z M 107 468 Q 109 471 108 478 L 110 479 L 111 477 L 109 470 L 107 468 Z M 110 507 L 109 509 L 112 509 L 110 507 Z "></path><path d="M 23.5 469 L 24 472 Q 27 471 26 474 L 23 472.5 L 23.5 469 Z "></path><path d="M 261.5 490 L 262.5 492 Q 259.7 492.7 261.5 490 Z "></path><path d="M 223.5 491 L 226 495 Q 220.8 497.1 222 492.5 L 223.5 491 Z "></path><path d="M 101.5 494 L 105 495.5 L 103.5 498 L 99 495.5 L 101.5 494 Z "></path><path d="M 261 494 Q 264 493 263 496 Q 260 497 261 494 Z "></path><path d="M 324.5 495 Q 330 494.5 332 497.5 L 329.5 501 L 327.5 502 L 324.5 501 L 323 504 L 331.5 504 L 332 506 Q 329.9 504.4 324.5 505 L 323 508 L 332 508.5 L 329.5 510 L 323 509 L 323 513 L 331.5 513 L 332 515 L 324 514 Q 322.5 517.7 325.5 517 L 323 520.5 L 324.5 522 Q 331.5 523.5 331 520.5 L 327 519 Q 325.8 516 329.5 517 L 333 519.5 Q 333.5 523.5 330.5 524 L 324 523 L 324 535.5 L 322.5 537 L 321 535.5 L 320.5 524 L 318 525 Q 316.9 522.3 319.5 523 L 321 519 L 318 517.5 L 319 511.5 L 315 506.5 L 316 503 Q 321.6 505.2 320 499.5 L 321 496 L 323 496.5 L 322 498.5 Q 323.3 501.3 324.5 499 L 327.5 500 L 329 497 L 326.5 496 Q 324.7 498.5 324.5 495 Z "></path><path d="M 30.5 498 L 32 498.5 L 26 501.5 L 23.5 505 L 18 509.5 L 13 518.5 L 12 528.5 L 16.5 535 L 18.5 534 L 23.5 536 L 25 535.5 L 23 540.5 L 26 542 L 25.5 544 L 21 541.5 Q 23.1 535.6 18.5 537 L 14 536 L 14 534 Q 10.2 535.5 11 532.5 Q 8.5 531 10 525.5 Q 12.3 524.2 11 519.5 L 17 507 Q 22.4 506.4 25 501.5 Q 24.3 499.3 26.5 500 L 30.5 498 Z "></path><path d="M 219 500 L 221 500.5 L 219.5 503 L 219 500 Z "></path><path d="M 253 501 Q 256 500 255 503 Q 252 504 253 501 Z "></path><path d="M 109 503 Q 112 502 111 505 Q 108 506 109 503 Z "></path><path d="M 138 507 Q 141.3 505.7 140 510.5 L 139 514.5 L 141 513.5 L 142.5 508 Q 145.3 509.3 143 510.5 L 140 518.5 L 142 517.5 L 144.5 513 L 145 514.5 L 139 523.5 L 135 543 L 126.5 545 L 126.5 544 Q 130.3 545 129 542 L 123 541.5 L 129.5 541 L 131 539.5 L 136 523.5 L 136 516.5 L 138 507 Z M 135 533 L 132 540 L 133 541 L 135 537 L 135 533 Z "></path><path d="M 189.5 517 L 188.5 519 L 186 520.5 Q 190 523 197 522.5 Q 195.8 525.3 194.5 523 Q 187.7 524.3 184.5 522 Q 181.3 523.2 182 527 L 191 527.5 Q 190.3 529.8 186.5 529 L 184.5 529 L 179 528 L 184.5 519 L 189.5 517 Z "></path><path d="M 270 521 Q 273 519.8 272 523.5 L 270 522.5 L 270 521 Z "></path><path d="M 122.5 522 L 125 522 L 125 525 Q 127.7 523.9 127 526.5 L 122.5 534 L 119.5 535 L 115.5 534 L 107 537 Q 104.9 542.2 109.5 541 L 110.5 542 L 119 542 L 117.5 545 L 113.5 544 Q 112 546.5 110.5 543 L 107.5 542 L 108.5 544 L 110 544.5 L 106.5 545 L 104 540.5 L 105 537 L 99.5 538 L 85.5 538 L 80 535 L 81.5 528 Q 84 529 83 533.5 L 85.5 536 L 88.5 537 L 89.5 536 L 102.5 536 L 104.5 535 L 106.5 536 L 118 531.5 L 118.5 528 Q 121.3 529.3 119 530.5 Q 117.9 533.8 120.5 533 L 124 530.5 L 123 524 L 119.5 526 L 122.5 522 Z "></path><path d="M 257.5 522 Q 260.5 523.5 257.5 525 L 257.5 522 Z "></path><path d="M 262.5 522 L 263 525 Q 260.3 526.1 261 523.5 L 262.5 522 Z "></path><path d="M 14.5 523 L 18.5 529 L 24 531.5 L 20.5 532 L 14 527.5 L 14.5 523 Z "></path><path d="M 31.5 528 L 32 529.5 L 26.5 534 L 26.5 532 Q 24.3 532.8 25 530.5 L 27.5 530 L 31.5 528 Z "></path><path d="M 172 531 Q 175 530 174 533 Q 171 534 172 531 Z "></path><path d="M 67.5 534 L 70 534.5 L 67.5 535 L 67.5 534 Z "></path><path d="M 71.5 534 L 74 534.5 L 71.5 535 L 71.5 534 Z "></path><path d="M 120 541 Q 123 540 122 543 Q 119 544 120 541 Z "></path><path d="M 29.5 542 L 36 542.5 L 27.5 544 L 27.5 543 L 29.5 542 Z "></path><path d="M 169.5 555 L 170.5 556 L 185.5 556 L 187 557.5 L 186 564 L 183 562.5 Q 183.8 558.8 181.5 558 L 175 559 L 175 566.5 L 177 567 Q 175.7 562.9 179 564 L 179 570.5 L 177 571 Q 178.1 568.3 175.5 569 Q 172.7 570.3 175 571.5 L 174 573.5 L 175 578 Q 178 577 177 580 L 168 580 L 168 571.5 L 169 570.5 L 169.5 555 Z "></path><path d="M 313.5 555 L 322 556 L 322 561 L 320 561 L 320 558 L 314 558 L 314.5 567 L 317.5 563 Q 320.3 564.3 318 565.5 L 319 569.5 Q 317.5 572.5 316 569.5 Q 316.7 566.9 314 568 L 313 570.5 L 314 574.5 Q 311.8 575.8 314.5 577 L 317.5 576 L 321 574.5 L 322.5 571 L 324 573.5 L 321.5 579 L 317.5 578 L 309 580 L 309 562.5 L 310 561.5 L 310 559.5 L 311.5 556 L 313.5 555 Z "></path><path d="M 61.5 556 Q 63.8 555.3 63 557.5 L 62 559.5 L 62 561.5 Q 63.7 569.7 61 573.5 L 63 582 L 58 582 L 58 568.5 L 56.5 568 L 51.5 569 L 50 568.5 L 49 577.5 L 50 580.5 L 47.5 582 L 43 580.5 Q 46.6 579.1 46 573.5 L 45 572.5 L 45 563.5 L 46 561.5 L 44.5 559 L 41 563.5 L 37 579.5 L 35.5 581 L 27.5 567 L 23 577.5 L 24 580 L 20 578.5 L 15 563.5 L 12.5 560 Q 9.2 561.1 10 558.5 Q 11 556 15.5 557 L 21.5 572 L 26 561.5 L 25 559 Q 21.3 560.5 22 557.5 L 23.5 558 L 27.5 557 L 31 558 L 29 563.5 L 34.5 573 L 40 559 L 37 558.5 L 39.5 558 L 41.5 559 L 50 557 L 50 567 L 56.5 567 Q 59 566 58 561.5 L 57 557 L 61.5 556 Z "></path><path d="M 196.5 556 Q 208.3 554.2 211 561.5 L 212 569.5 L 206.5 578 Q 203.6 580.6 197.5 580 L 189 572.5 L 188 569.5 L 191 560.5 L 194.5 557 L 196.5 556 Z M 198 558 L 195 562 Q 194 571 196 576 Q 198 578 205 577 L 206 576 Q 205 570 207 569 L 206 561 Q 205 557 198 558 Z "></path><path d="M 219.5 556 Q 228.3 555.6 232 559 L 232 566.5 L 230.5 568 L 228 569.5 L 233.5 577 L 238 579.5 Q 236.7 582.3 235.5 580 L 232.5 580 L 229 578 Q 230.1 575.3 227.5 576 Q 223.9 573.9 224 569 L 221 569 L 221 578 Q 224 577 223 580 L 217.5 581 L 216 579.5 L 216 563.5 L 217 561.5 L 216.5 559 L 214 557.5 L 219.5 556 Z M 221 559 L 221 567 L 225 568 L 227 567 L 227 559 L 221 559 Z "></path><path d="M 236.5 556 L 239.5 557 L 242.5 556 Q 243.8 558.2 248.5 557 L 251.5 556 Q 254.8 554.9 254 557.5 L 255 560.5 L 253.5 562 L 250.5 559 L 249.5 560 L 247 561.5 L 247 577.5 L 248 579.5 L 245.5 581 L 243.5 581 L 240 579.5 L 242 579 L 243 572.5 L 242 571.5 L 242 560.5 L 240.5 559 L 238 560 L 236.5 563 Q 234 562 235 557.5 L 236.5 556 Z "></path><path d="M 270 556 L 277 557 Q 273.1 562.2 275 574.5 L 276.5 577 L 279.5 576 L 279 577.5 L 277.5 580 L 271.5 578 Q 269.8 580.8 264.5 580 L 259 575.5 L 258 567.5 Q 260.5 566 259 560.5 L 256 559 L 256.5 557 L 264 557 Q 262.1 561.2 263 569.5 L 265 575 L 268.5 576 Q 273.9 570.9 272 558.5 L 270 558.5 L 270 556 Z "></path><path d="M 282 556 Q 290.8 554 293 559.5 L 300.5 572 L 301 558 Q 297.2 559 296 556.5 L 306 556 L 306 558 L 303 558.5 L 303 578.5 L 300 579 L 289.5 564 L 289 577 Q 292 575.8 291 579.5 L 289.5 579 L 282.5 579 L 282 577 L 284 576.5 L 284 558 Q 281 559 282 556 Z "></path><path d="M 66 557 L 79 557 L 79 561.5 L 77 560.5 L 76.5 559 L 71 559 L 71.5 569 L 76 566 L 76 572.5 L 74 573 L 72.5 570 Q 69.8 569.4 71 575.5 L 70 577.5 L 71 580 L 78 580 L 78 577.5 Q 79.5 574.5 81 577.5 L 80 581 L 72.5 582 L 70.5 581 L 67.5 583 Q 64.3 581.3 66 574.5 L 67 573.5 L 67 562.5 L 66 560.5 L 66 558.5 L 66 557 Z "></path><path d="M 85.5 557 L 95 558 L 95 564 L 93 564 Q 95.3 557.6 87.5 560 Q 84.8 561.3 86 566.5 Q 87.5 569.5 89 566.5 Q 88.3 563.9 91 565 L 91 571.5 L 89 572 L 87.5 569 Q 84.5 568.1 86 572.5 L 87 577.5 Q 84.7 578.7 87.5 580 L 92 577.5 Q 90.9 573.3 95 575 L 95 580.5 L 93.5 581 L 91.5 582 L 89.5 581 L 83.5 583 L 83 560.5 L 82 558 L 85.5 557 Z "></path><path d="M 98.5 557 L 102.5 558 L 105 557 Q 106 560 103 559 L 103 561.5 L 102 564.5 L 103 566.5 L 103 568.5 L 102 571.5 L 103 573.5 L 102 577.5 Q 103.3 580.3 108.5 579 L 112.5 574 Q 115.1 573.2 114 576.5 L 111.5 580 L 106.5 581 L 104.5 581 L 98 581 L 98 569.5 L 99 567.5 L 98 562.5 L 98 560.5 L 98.5 557 Z "></path><path d="M 146.5 561 Q 149.1 560.2 148 563.5 L 145 564.5 L 147.5 570 Q 149.8 569.3 149 571.5 L 151 570.5 Q 149.9 567.2 152.5 568 L 155 573 Q 150.1 571.2 152 577.5 L 153 582.5 L 148.5 587 L 146 587 Q 144.9 584.3 147.5 585 Q 150.8 583.3 150 577.5 L 147 572 Q 144.3 573.1 145 570.5 Q 141.8 569.3 143 563.5 L 146.5 561 Z "></path><path d="M 135.5 572 L 142 573 L 144 577.5 L 143 580 L 138.5 581 L 133 576.5 L 135.5 572 Z M 136 575 L 136 577 Q 138 581 140 578 Q 141 573 136 575 Z "></path><path d="M 328 575 Q 333.2 572.9 332 577.5 L 328.5 579 Q 325.8 577.8 328 576.5 L 328 575 Z "></path></svg>