<svg width="350" height="600" version="1.1" xmlns="http://www.w3.org/2000/svg" desc="Created with imagetracer.js version 1.2.5"><path d="M 291.5 4 L 294.5 5 L 297.5 4 L 298.5 5 L 331.5 5 L 336 4 L 337 8.5 L 336 9.5 L 336 22.5 L 337 27.5 L 336 28.5 L 336 59.5 L 336 61.5 L 336 130.5 L 337 132.5 L 336 133.5 L 336 150.5 L 337 151.5 L 337 178.5 L 338 180.5 L 338 182.5 L 337 226.5 L 338 227.5 L 338 258.5 L 337 262.5 L 338 263.5 L 338 272.5 L 337 273.5 L 337 289.5 L 338 291.5 L 337 295.5 L 338 296.5 L 338 374.5 L 339 375.5 Q 336.3 377.3 338 383.5 L 338 385.5 L 339 400.5 L 339 402.5 L 338 406.5 L 338 521.5 L 339 525.5 L 338 528.5 L 339 531.5 L 339 533.5 L 339 545.5 L 338 546.5 L 339 549.5 L 339 557.5 L 338 558.5 L 339 559.5 L 339 573.5 L 339 575.5 L 339 591.5 L 338 594 Q 335.6 592.3 329.5 593 L 327.5 593 L 324.5 594 L 280.5 594 L 278.5 593 L 277.5 594 L 265.5 594 L 263.5 594 L 259.5 593 L 257.5 594 L 254.5 593 L 251.5 594 L 221.5 594 L 220.5 595 L 146.5 595 Q 145 592.5 139.5 594 Q 137.8 596.7 131.5 595 L 127.5 594 L 125.5 594 L 92.5 595 L 88.5 594 Q 87 596.5 81.5 595 L 79.5 595 L 76.5 594 L 74.5 594 L 45.5 594 L 44.5 595 L 20.5 595 L 18.5 596 L 14.5 595 L 12.5 596 L 10.5 595 Q 9.3 597.3 8 594.5 L 8 496.5 L 9 495.5 L 9 484.5 L 8 483.5 L 8 464.5 L 7 461.5 L 8 460.5 L 8 445.5 L 9 443.5 L 8 441.5 L 8 439.5 L 8 406.5 L 9 405.5 Q 6.3 403.8 8 397.5 L 9 396.5 L 9 371.5 L 8 369.5 L 9 364.5 L 8 363.5 L 8 274.5 L 7 273.5 L 8 270.5 Q 5.3 268.8 7 262.5 L 8 261.5 L 8 240.5 L 7 239.5 L 7 215.5 L 6 212.5 L 7 210.5 L 6 209.5 L 6 198.5 L 7 196.5 L 6 195.5 L 6 156.5 Q 3.7 155.3 5 150.5 L 6 149.5 L 6 122.5 L 5 121.5 L 5 110.5 L 4 109.5 L 4 94.5 L 5 93.5 L 5 82.5 L 4 77.5 L 6 68.5 L 6 56.5 L 5 55.5 L 5 33.5 L 6 29.5 L 5 28.5 L 5 13.5 L 6 9 L 10.5 8 L 11.5 9 L 32.5 9 L 33.5 8 L 42.5 8 L 43.5 9 L 59.5 9 L 62.5 8 L 64.5 8 L 81.5 8 L 83.5 7 L 85.5 8 L 86.5 7 L 163.5 7 L 164.5 6 L 180.5 5 L 183.5 6 L 185.5 5 L 187.5 5 L 271.5 6 L 272.5 5 L 290.5 5 L 291.5 4 Z M 195 8 L 194 9 L 182 9 L 181 10 L 156 10 L 154 11 L 152 11 L 140 11 L 139 10 L 90 10 L 89 11 L 87 10 L 86 11 L 64 11 L 62 11 L 60 12 L 28 12 L 27 13 L 21 12 L 19 12 L 16 13 L 14 12 Q 10 11 9 14 L 10 24 L 12 21 L 17 25 L 18 21 Q 17 17 23 19 Q 27 22 28 29 Q 29 31 36 30 Q 39 32 39 37 L 44 36 L 43 33 L 45 29 Q 44 26 47 27 L 49 24 L 56 27 L 57 31 L 60 32 Q 64 33 66 31 Q 73 31 77 35 L 126 36 L 129 35 L 130 36 L 141 36 L 143 37 L 145 37 Q 151 38 155 36 L 157 36 L 159 37 L 164 34 L 166 35 L 173 33 L 177 34 L 180 33 Q 186 32 187 36 L 201 36 L 202 37 L 221 37 L 222 36 Q 225 39 233 38 L 235 38 L 238 37 L 242 38 L 246 30 L 253 28 L 254 35 L 256 29 L 263 24 L 266 26 L 265 31 Q 264 33 268 32 L 270 36 L 273 35 L 296 35 L 298 35 L 303 34 L 308 25 L 313 22 L 314 25 Q 317 26 319 23 L 323 25 L 325 24 L 330 25 L 333 24 L 332 8 L 322 9 L 320 9 L 295 9 L 294 8 L 282 8 L 281 9 L 254 9 L 253 8 L 246 10 L 245 9 L 231 9 L 230 8 L 197 8 L 195 8 Z M 22 24 L 19 31 L 24 34 L 25 32 L 25 29 L 22 24 Z M 312 24 L 309 28 L 312 29 L 313 27 L 312 24 Z M 12 26 L 12 28 L 15 29 L 14 28 Q 15 25 12 26 Z M 317 26 L 315 29 L 318 29 L 317 26 Z M 328 27 L 327 29 L 330 28 Q 331 30 332 28 L 328 27 Z M 325 28 L 322 29 Q 321 32 325 31 L 325 28 Z M 261 29 L 259 33 L 261 32 L 261 29 Z M 310 32 L 308 33 L 306 36 L 309 35 Q 308 37 311 36 L 310 35 L 311 33 L 310 32 Z M 313 32 L 314 34 Q 315 31 313 32 Z M 316 32 L 317 36 L 318 36 Q 319 31 316 32 Z M 330 32 L 327 34 L 331 36 L 330 32 Z M 250 34 L 248 36 L 250 36 L 250 34 Z M 68 35 L 65 36 L 66 38 L 69 36 L 68 35 Z M 18 36 L 16 39 L 19 44 L 19 43 L 22 44 L 22 39 L 18 36 Z M 27 36 L 26 42 L 28 42 L 27 36 Z M 264 36 L 266 39 Q 268 40 267 38 L 264 36 Z M 10 37 L 10 40 L 14 39 Q 15 35 10 37 Z M 176 37 L 174 39 L 176 42 L 180 42 L 179 40 L 176 37 Z M 181 37 L 181 40 L 180 43 L 182 43 L 184 47 L 188 49 L 189 52 L 190 52 L 190 49 L 187 43 L 182 40 L 181 37 Z M 286 37 L 283 39 L 287 39 Q 288 36 286 37 Z M 56 38 L 55 44 L 56 44 L 56 38 Z M 249 38 L 249 41 L 251 40 L 252 43 L 252 40 L 249 38 Z M 275 38 L 276 40 Q 277 37 275 38 Z M 78 39 L 76 44 L 79 44 L 80 41 L 84 42 L 87 41 L 79 40 L 78 39 Z M 111 39 L 107 40 L 109 44 Q 112 43 111 47 L 111 50 Q 113 51 112 48 L 115 48 L 115 47 Q 112 48 113 44 L 116 44 L 114 43 L 113 41 Q 114 38 111 39 Z M 115 39 L 115 41 L 119 41 L 115 39 Z M 125 39 L 122 40 L 123 42 L 128 40 L 125 39 Z M 325 39 L 325 40 L 327 40 L 325 39 Z M 331 39 L 329 41 L 330 43 L 332 40 L 331 39 Z M 31 40 L 29 42 Q 28 44 31 43 L 31 40 Z M 89 40 L 89 41 L 93 41 L 89 40 Z M 95 40 Q 92 45 96 44 L 95 40 Z M 97 40 L 98 42 L 105 41 L 97 40 Z M 131 40 L 130 43 L 131 43 L 131 40 Z M 191 40 L 192 42 Q 193 39 191 40 Z M 46 41 Q 45 44 48 43 Q 49 40 46 41 Z M 67 41 L 66 46 L 68 47 L 67 41 Z M 195 41 L 196 42 L 197 45 L 197 42 L 199 42 L 195 41 Z M 316 41 L 313 43 L 316 43 L 316 41 Z M 332 41 L 331 43 L 331 45 Q 328 47 329 51 Q 333 53 332 49 L 331 49 L 332 47 L 332 41 Z M 117 42 L 119 45 L 120 43 L 117 42 Z M 310 42 L 309 45 L 307 46 L 304 45 L 307 44 L 307 43 L 300 45 L 300 44 L 299 43 L 298 46 L 295 44 L 293 45 L 290 45 L 290 47 L 285 47 L 286 53 Q 289 51 288 49 Q 292 48 290 53 L 288 54 L 289 56 L 291 55 L 290 57 L 298 58 L 298 57 L 301 55 L 299 54 Q 298 51 301 52 L 301 49 L 303 49 L 304 52 L 306 52 L 303 53 L 307 59 L 308 57 L 308 54 L 307 56 L 306 56 L 308 52 L 305 50 Q 304 47 308 48 L 308 46 L 314 45 L 310 42 Z M 26 43 L 28 46 L 29 45 L 29 47 L 31 46 L 26 43 Z M 80 43 L 82 46 L 85 44 L 80 43 Z M 88 43 L 86 46 L 89 44 L 88 43 Z M 104 43 L 104 44 Q 107 43 106 46 L 107 46 Q 108 41 104 43 Z M 123 43 Q 122 46 125 45 Q 126 42 123 43 Z M 155 43 L 155 46 Q 153 47 156 48 L 156 46 L 159 45 L 155 43 Z M 161 43 L 161 45 L 163 44 L 167 45 Q 168 47 169 45 L 161 43 Z M 207 43 L 207 47 Q 208 49 205 48 L 206 50 L 209 49 L 209 47 L 207 43 Z M 215 43 L 215 48 L 214 47 L 211 48 L 211 49 Q 218 50 221 48 L 220 46 L 215 43 Z M 225 43 L 224 46 L 225 46 L 225 43 Z M 259 43 L 259 47 Q 261 50 262 47 L 260 46 L 261 44 L 259 43 Z M 266 43 L 263 48 L 266 47 Q 268 46 267 49 L 269 49 L 268 45 L 267 45 L 266 43 Z M 281 43 L 281 45 L 279 45 L 281 50 L 284 48 L 283 46 L 286 45 L 281 43 Z M 317 43 L 316 47 L 313 46 Q 310 45 311 48 L 310 47 L 308 51 L 312 49 Q 313 52 311 51 L 310 53 L 316 51 L 315 49 L 317 48 L 316 52 L 319 54 L 318 52 L 321 50 L 321 52 Q 323 53 322 49 L 324 49 L 322 53 L 329 54 L 329 51 L 328 53 L 327 52 Q 324 53 325 50 L 327 50 L 325 49 L 327 48 L 326 46 L 323 48 L 320 47 Q 321 49 319 48 L 317 43 Z M 21 44 L 20 49 L 23 48 L 21 44 Z M 33 44 Q 31 47 34 46 L 33 44 Z M 90 44 L 89 46 L 92 46 L 90 44 Z M 131 44 L 131 45 L 133 45 L 131 44 Z M 141 44 L 139 46 L 136 45 L 133 47 L 134 49 L 134 50 Q 136 51 135 48 L 139 47 L 142 48 L 143 48 L 141 44 Z M 146 44 L 146 46 L 148 45 L 146 44 Z M 193 44 Q 191 47 194 46 L 194 49 L 196 48 L 195 45 L 193 44 Z M 230 44 L 232 46 Q 233 43 230 44 Z M 247 44 L 247 48 L 249 48 L 247 44 Z M 255 44 L 253 47 L 253 48 L 256 46 L 255 44 Z M 50 45 L 48 47 L 49 49 Q 51 48 50 51 L 52 50 L 50 45 Z M 53 45 L 54 51 L 54 50 L 56 50 Q 57 47 54 48 L 53 45 Z M 74 45 L 71 52 L 74 52 L 73 51 L 75 50 Q 77 49 75 48 L 77 48 L 80 46 L 78 45 L 74 45 Z M 109 45 L 108 47 L 106 48 Q 104 46 103 49 L 107 49 L 108 51 L 108 49 L 110 49 L 109 45 Z M 121 45 Q 121 48 117 47 L 117 48 L 122 48 L 121 45 Z M 201 45 L 198 47 L 196 50 L 196 51 L 202 48 L 203 50 L 204 48 L 201 45 Z M 205 45 Q 203 48 206 47 L 205 45 Z M 242 45 Q 239 50 243 49 L 242 45 Z M 18 46 L 16 51 L 18 50 L 18 46 Z M 38 46 L 36 50 L 37 53 L 38 49 Q 40 47 38 46 Z M 88 46 L 87 52 L 88 52 L 88 46 Z M 92 46 L 93 51 L 94 47 L 92 46 Z M 273 46 L 272 49 Q 271 51 270 49 L 268 50 L 269 52 Q 272 51 271 54 L 269 53 L 265 55 Q 271 54 273 57 L 280 57 L 282 57 L 287 56 Q 290 55 287 53 L 286 55 L 285 55 Q 286 52 283 53 L 284 50 L 282 51 L 282 52 L 278 52 L 278 54 L 277 52 L 274 54 Q 271 55 272 53 L 273 50 L 276 51 L 278 51 L 279 48 L 277 49 L 276 47 L 275 47 L 273 46 Z M 82 47 L 81 52 L 83 53 L 82 47 Z M 237 47 L 235 49 L 237 53 L 237 52 L 238 49 L 237 47 Z M 256 47 L 257 49 L 258 49 L 256 47 Z M 29 48 L 27 51 L 29 50 L 30 52 L 30 49 L 33 49 L 29 48 Z M 60 48 L 59 53 L 61 53 L 62 50 Q 63 47 60 48 Z M 71 48 L 68 52 L 70 52 L 71 50 L 71 48 Z M 98 48 L 98 55 L 99 55 Q 100 50 98 48 Z M 126 48 L 125 50 L 127 49 L 126 48 Z M 168 48 L 167 50 Q 169 53 170 50 L 168 48 Z M 183 48 L 184 54 Q 182 59 186 58 L 187 59 Q 186 52 183 48 Z M 251 48 L 250 51 L 251 51 L 251 48 Z M 255 48 L 253 52 L 256 53 L 258 52 Q 259 49 255 50 L 255 48 Z M 260 48 L 260 51 L 259 54 Q 262 55 261 52 Q 264 51 263 55 L 261 55 L 256 54 Q 254 56 253 53 L 249 54 L 249 55 Q 253 53 252 58 Q 250 59 253 60 L 253 57 L 255 57 L 265 56 L 264 55 L 266 52 L 266 49 L 264 50 L 260 48 Z M 25 49 L 22 51 L 24 51 L 25 53 L 26 50 L 25 49 Z M 47 49 L 44 54 L 46 57 L 47 57 L 46 54 L 48 50 L 47 49 Z M 58 49 L 55 54 L 57 54 L 59 51 Q 60 48 58 49 Z M 77 49 L 75 52 L 77 52 L 77 49 Z M 145 49 L 142 51 L 144 53 L 145 51 L 145 49 Z M 156 49 L 156 51 L 160 52 Q 163 51 160 49 L 159 51 L 158 51 Q 159 48 156 49 Z M 11 50 L 9 54 L 15 53 L 11 50 Z M 64 50 Q 62 53 65 52 L 64 50 Z M 150 50 L 151 52 L 153 51 L 150 50 Z M 244 50 L 243 53 L 244 53 L 244 50 Z M 247 50 Q 245 53 248 52 L 247 50 Z M 19 51 L 18 53 L 22 52 L 19 51 Z M 51 51 L 51 54 Q 49 55 52 56 L 55 55 L 52 54 L 53 52 L 51 51 Z M 116 52 L 116 53 L 118 53 L 116 52 Z M 178 53 L 176 56 L 178 55 L 178 57 L 180 57 L 178 53 Z M 191 53 L 190 56 L 191 56 L 191 53 Z M 216 53 L 210 55 L 224 57 L 226 57 L 228 56 L 224 55 L 226 54 L 223 53 L 223 55 L 222 53 Q 219 52 220 55 L 216 53 Z M 230 53 L 229 57 L 230 57 L 230 53 Z M 15 54 L 14 58 L 15 58 L 15 54 Z M 158 54 L 156 57 L 158 56 L 158 54 Z M 231 54 L 231 57 Q 232 59 237 58 L 238 55 Q 235 54 234 57 L 234 56 Q 235 53 231 54 Z M 243 54 L 244 57 Q 246 58 245 55 L 247 55 L 245 54 L 243 54 Z M 79 56 L 79 58 L 81 57 L 79 56 Z M 268 58 L 262 59 L 263 63 L 261 67 Q 256 68 255 66 L 253 67 L 256 68 L 259 74 L 257 84 L 252 82 L 250 79 L 247 83 L 244 82 L 243 80 L 244 76 L 240 75 L 235 71 L 229 72 L 226 69 L 230 60 L 217 60 L 216 59 L 205 60 L 208 61 L 210 66 L 207 82 L 199 98 L 199 102 L 197 104 L 198 106 L 196 116 L 197 119 L 195 124 L 196 137 L 197 138 L 197 147 L 198 148 L 198 168 L 197 169 Q 196 173 198 175 L 197 186 L 196 187 L 198 198 L 198 212 L 208 211 L 216 208 L 217 206 L 228 197 L 241 191 L 244 198 Q 243 206 238 211 L 234 214 L 232 217 L 226 220 L 220 232 L 213 235 L 210 234 L 208 232 Q 205 228 198 229 L 197 235 L 197 256 Q 200 257 198 263 L 202 268 L 203 282 L 210 299 L 210 302 L 206 307 L 204 308 L 199 314 Q 201 322 196 324 L 198 337 L 205 341 L 214 342 L 224 348 L 234 348 L 248 351 Q 252 352 251 358 L 261 362 L 266 370 L 268 382 L 265 384 L 261 389 L 244 398 Q 237 399 234 402 L 223 404 L 220 406 Q 217 405 218 408 L 202 416 L 198 416 L 199 413 L 197 414 L 196 413 L 193 415 Q 187 417 186 414 L 184 423 Q 190 428 191 437 L 196 438 L 198 445 L 197 452 L 195 455 L 195 457 Q 197 463 194 465 L 194 477 L 190 477 L 190 481 L 191 481 Q 190 478 193 479 Q 197 482 198 489 L 196 495 L 194 495 L 194 499 L 192 499 L 191 494 L 190 510 L 189 511 Q 188 516 190 518 L 189 527 L 186 527 L 186 504 L 185 504 L 183 503 L 180 500 L 179 501 L 177 498 L 175 508 L 171 507 L 170 501 L 169 503 L 166 505 L 165 503 Q 166 500 163 501 L 164 499 L 164 496 L 161 501 L 158 502 L 160 503 L 158 504 Q 159 502 156 501 Q 155 495 158 494 L 158 491 L 153 499 Q 154 503 150 501 L 150 504 Q 151 506 153 504 Q 157 503 155 508 L 153 512 L 157 513 L 159 509 Q 158 514 162 516 L 157 518 L 160 520 L 159 522 L 157 521 L 154 522 L 156 523 L 155 523 Q 153 521 152 524 L 153 527 L 148 528 L 150 528 L 149 533 L 149 536 L 151 536 Q 149 540 153 539 L 152 541 L 149 537 L 148 537 L 148 545 L 151 549 Q 153 548 152 545 Q 153 542 157 543 L 158 541 L 154 539 L 153 537 L 155 533 Q 153 531 154 526 Q 155 523 160 524 L 164 531 L 164 534 L 166 535 L 165 533 L 167 533 Q 168 530 165 531 L 167 527 L 168 530 L 168 532 L 167 535 Q 166 537 165 535 L 163 540 L 164 541 Q 168 539 165 538 L 168 539 L 171 536 L 170 534 L 174 531 L 175 536 L 175 519 L 179 520 L 180 519 L 180 510 L 182 508 L 184 509 L 183 515 L 184 516 L 184 540 L 185 541 L 184 548 L 187 549 L 211 549 L 212 548 L 214 549 L 231 549 L 232 548 L 237 549 L 239 548 L 240 549 L 294 549 L 297 548 L 334 548 L 335 549 L 335 531 L 335 529 L 336 526 L 335 521 L 335 483 L 334 482 L 335 477 L 335 451 L 334 450 L 334 436 L 335 435 L 335 424 L 334 423 L 335 421 L 335 373 L 334 372 Q 333 366 335 365 L 334 360 L 335 355 L 335 327 L 334 326 L 334 310 L 335 309 L 334 297 L 334 295 L 334 267 L 335 266 L 335 235 L 334 234 L 334 149 L 333 148 L 333 126 Q 332 141 328 151 L 325 152 L 327 156 Q 328 160 325 162 L 318 164 L 314 153 L 314 149 Q 315 144 323 145 L 324 146 L 323 142 L 319 143 L 312 136 L 314 131 L 311 126 Q 310 120 312 119 Q 313 114 310 113 L 312 109 L 312 106 L 309 110 L 308 119 L 306 120 L 303 117 L 300 103 L 299 103 L 295 96 L 296 94 L 295 90 L 297 89 L 298 85 L 301 84 L 296 76 L 293 82 L 291 83 L 288 81 L 286 75 Q 285 69 287 68 L 285 67 L 282 64 L 283 62 L 284 60 L 280 61 L 277 60 L 275 61 L 268 58 Z M 323 58 L 323 60 L 325 59 L 323 58 Z M 24 59 Q 22 62 25 63 Q 24 66 27 65 L 26 63 L 27 61 Q 25 62 24 59 Z M 65 59 L 65 61 L 63 63 L 52 64 L 49 67 L 53 67 L 54 71 L 52 70 Q 49 71 50 68 L 47 69 L 45 73 Q 52 72 57 75 L 61 83 L 57 85 Q 50 86 48 84 L 44 91 L 48 100 L 46 104 L 44 107 L 43 110 L 39 107 L 36 103 L 34 102 Q 32 106 27 105 L 26 108 L 27 109 Q 28 106 31 107 L 31 112 Q 36 112 35 120 Q 35 123 31 122 L 29 122 L 24 118 Q 25 112 23 111 L 21 112 L 22 115 Q 21 117 20 115 L 15 117 L 19 118 Q 21 117 20 121 L 23 120 L 25 120 L 32 127 L 30 132 L 32 141 L 25 140 L 20 134 L 20 128 Q 19 133 16 136 Q 15 139 19 138 L 23 144 L 22 149 L 20 150 L 16 149 L 16 152 L 22 159 L 21 164 Q 20 166 19 164 L 17 165 L 15 164 L 11 162 L 14 168 L 14 172 L 9 175 L 10 182 L 10 201 L 9 202 L 10 204 L 9 206 L 10 210 L 10 234 L 11 235 L 11 267 L 10 268 L 11 269 L 11 330 L 12 331 Q 14 337 11 339 L 11 356 L 12 357 L 12 373 L 11 374 L 11 430 L 12 431 L 11 435 L 11 451 L 12 452 L 12 472 L 11 473 L 11 483 L 12 484 L 11 549 L 41 549 L 42 550 L 52 550 L 53 549 L 56 550 L 80 550 L 81 549 L 115 549 L 116 550 L 118 549 L 142 549 L 142 542 L 145 530 L 145 513 L 146 512 Q 144 508 145 501 L 143 499 L 145 495 L 145 491 L 140 494 Q 136 495 137 492 L 140 491 L 140 489 L 137 491 L 135 491 L 140 482 L 140 480 L 135 484 Q 133 481 132 485 Q 128 486 129 484 L 141 473 L 143 473 L 143 476 L 140 480 L 145 476 L 148 480 L 150 479 L 152 485 L 154 482 L 157 483 L 159 482 Q 161 475 158 474 Q 157 469 160 468 L 163 477 L 162 479 L 163 488 L 164 488 Q 163 485 167 486 L 168 487 L 166 480 L 164 478 L 165 470 L 162 470 L 166 464 Q 169 468 167 477 L 169 476 L 167 465 Q 166 460 168 459 L 165 458 L 166 461 L 166 463 L 164 461 L 163 461 L 163 463 L 159 465 Q 160 462 157 461 L 158 457 L 156 458 Q 158 463 154 462 L 153 458 L 155 455 L 154 452 L 153 455 L 151 454 L 152 445 L 156 440 L 151 442 L 149 451 L 151 458 Q 152 460 149 459 L 148 457 L 149 443 L 156 429 L 155 427 L 155 420 L 153 419 L 152 415 L 147 416 L 148 418 L 144 417 L 143 420 L 139 419 L 137 420 L 138 424 L 128 419 L 129 417 L 134 417 L 134 415 L 140 416 L 142 416 L 140 414 L 126 413 L 119 411 L 117 412 L 101 410 L 78 400 L 70 398 L 66 395 L 62 385 Q 61 378 64 376 L 83 362 L 86 362 L 111 349 L 112 347 L 121 341 Q 123 342 122 339 Q 127 339 129 335 Q 130 330 128 329 L 130 324 L 130 310 L 127 305 L 125 303 Q 120 301 120 295 L 121 293 Q 118 294 119 292 L 117 290 L 111 283 Q 110 278 112 277 L 86 230 L 86 223 L 89 216 L 95 212 L 110 209 L 124 209 L 125 210 Q 135 209 141 211 L 141 204 L 142 203 L 142 188 L 143 187 L 143 171 L 139 163 L 140 160 L 139 157 L 137 158 L 136 157 Q 135 154 132 154 L 130 155 L 132 148 Q 140 150 143 147 L 142 146 L 142 132 L 141 131 L 142 128 L 142 116 L 137 116 Q 138 113 135 112 Q 134 107 137 106 L 137 104 L 130 94 Q 131 91 127 92 L 127 91 L 132 88 L 135 88 L 139 91 L 143 90 L 144 91 L 140 83 L 140 78 L 136 73 L 123 64 Q 120 65 121 62 L 113 62 L 112 61 Q 105 59 104 62 L 97 61 L 95 61 L 92 63 L 94 66 L 93 73 L 88 76 L 87 79 Q 88 81 85 80 L 79 75 L 78 71 L 79 68 L 74 67 L 73 65 L 74 61 L 76 61 L 75 59 L 65 59 Z M 169 59 L 167 61 L 169 61 L 169 59 Z M 136 60 L 136 62 L 138 61 L 136 60 Z M 171 60 L 172 64 L 173 64 Q 174 59 171 60 Z M 11 61 L 9 63 L 10 66 L 11 63 L 11 61 Z M 196 61 L 196 63 L 198 62 L 196 61 Z M 239 62 L 241 65 L 241 64 L 239 62 Z M 177 63 L 178 67 L 179 64 L 179 66 L 180 66 Q 181 61 177 63 Z M 316 63 L 312 68 L 313 70 L 315 67 L 318 65 Q 319 62 316 63 Z M 28 64 L 26 71 L 30 74 Q 29 76 32 75 Q 33 71 30 69 L 31 66 L 28 64 Z M 43 64 L 43 67 L 46 66 Q 47 63 43 64 Z M 150 64 Q 149 68 154 66 L 153 70 L 154 74 L 161 72 L 163 69 L 162 67 L 162 64 L 150 64 Z M 202 64 L 198 67 L 196 66 L 191 74 Q 191 81 187 86 L 182 91 L 180 91 L 179 94 L 179 97 L 183 103 L 183 101 L 188 100 Q 189 97 187 98 L 185 96 L 190 93 L 194 84 L 199 78 L 201 80 L 201 83 L 197 91 L 198 94 L 202 84 L 205 81 L 205 68 L 204 67 Q 205 63 202 64 Z M 239 64 L 238 68 L 239 68 L 239 64 Z M 86 65 L 86 69 L 89 71 L 87 68 L 89 68 L 89 67 L 86 65 Z M 142 65 L 145 68 L 146 68 Q 146 65 142 65 Z M 303 65 L 299 72 L 300 74 L 301 71 L 308 70 L 303 65 Z M 168 66 L 167 69 L 168 69 L 168 66 Z M 173 66 L 174 68 Q 175 65 173 66 Z M 243 66 L 242 68 L 245 69 L 245 67 L 243 66 Z M 241 67 L 239 69 L 241 69 L 241 67 Z M 329 67 L 328 69 L 324 70 L 326 79 L 326 74 L 331 71 L 329 67 Z M 147 68 L 146 70 L 147 73 L 146 75 Q 145 78 148 79 L 150 79 L 147 77 L 149 74 Q 150 69 147 68 Z M 43 69 Q 41 72 44 71 L 43 69 Z M 83 69 L 84 72 L 85 70 L 83 69 Z M 178 69 L 179 72 L 179 88 L 180 88 L 180 70 L 178 69 Z M 319 69 L 317 72 L 319 72 L 319 69 Z M 10 70 L 9 73 L 10 74 L 12 73 Q 13 69 10 70 Z M 291 70 L 290 75 L 292 74 L 291 70 Z M 22 71 L 20 73 Q 22 78 19 80 L 21 80 L 22 78 L 22 76 L 21 74 L 23 74 L 22 71 Z M 86 71 L 86 73 L 88 72 L 86 71 Z M 253 71 L 252 73 L 252 75 L 253 77 L 254 77 Q 255 72 253 71 Z M 316 72 L 312 75 L 314 77 L 317 73 L 316 72 Z M 16 73 L 14 75 Q 13 77 16 76 L 16 73 Z M 40 73 L 41 77 L 45 74 L 40 73 Z M 23 74 Q 22 77 25 76 Q 26 73 23 74 Z M 35 74 L 35 76 Q 34 79 29 78 L 31 84 L 35 84 L 35 83 L 33 79 Q 35 78 34 81 L 37 81 L 35 79 L 37 76 Q 38 73 35 74 Z M 306 74 Q 305 77 308 76 Q 309 73 306 74 Z M 320 75 L 318 78 L 320 79 L 320 75 Z M 12 76 L 12 78 L 14 77 L 12 76 Z M 185 76 L 184 81 L 185 81 L 185 76 Z M 46 77 Q 45 80 48 79 L 49 78 L 52 81 L 54 80 Q 55 76 53 77 L 53 79 Q 50 76 46 77 Z M 302 78 L 302 80 L 305 81 L 304 80 Q 305 77 302 78 Z M 151 79 L 149 83 L 153 84 L 153 80 L 151 79 Z M 155 79 L 155 84 L 157 85 L 155 91 L 157 90 L 157 92 L 155 91 L 154 93 L 152 94 L 153 91 Q 149 90 151 96 L 153 95 L 154 98 L 155 96 L 155 98 L 152 99 L 154 104 L 156 105 L 155 102 L 156 100 L 157 102 Q 159 101 158 97 L 162 95 Q 163 97 164 95 L 159 93 L 156 95 Q 155 92 158 93 L 157 89 L 158 84 L 161 80 Q 156 78 157 82 L 156 82 L 157 80 L 155 79 Z M 174 79 L 171 86 Q 170 90 173 92 L 171 98 Q 168 99 173 101 Q 172 95 176 93 L 175 86 L 174 86 Q 175 89 172 88 L 174 85 L 174 79 Z M 15 82 Q 14 87 18 90 L 21 85 Q 20 81 15 82 Z M 43 82 L 43 85 L 44 85 Q 45 81 43 82 Z M 315 82 Q 314 86 318 87 L 319 84 L 315 82 Z M 326 82 L 325 84 L 327 83 L 326 82 Z M 25 84 L 24 86 L 26 87 L 25 84 Z M 154 84 Q 151 89 155 88 L 154 84 Z M 184 84 L 185 86 Q 186 83 184 84 Z M 324 84 L 322 86 L 323 91 L 324 89 L 324 84 Z M 36 85 L 34 87 Q 33 90 37 88 Q 38 84 36 85 Z M 163 85 L 162 89 L 163 89 L 163 85 Z M 305 85 L 300 93 L 301 95 L 302 92 L 307 89 Q 309 84 305 85 Z M 11 90 L 10 92 L 13 91 L 11 90 Z M 22 91 L 19 94 Q 18 96 21 95 L 22 96 L 22 91 Z M 35 91 L 34 97 L 35 99 L 39 99 L 36 98 L 39 93 L 35 91 Z M 327 91 L 328 94 L 329 92 L 327 91 Z M 15 92 L 13 95 L 14 97 L 15 95 Q 17 93 15 92 Z M 314 92 L 312 94 Q 311 99 314 101 L 316 102 L 315 100 Q 314 94 316 93 L 314 92 Z M 26 93 L 26 96 L 26 97 L 30 96 L 32 93 L 29 94 L 26 93 Z M 41 93 L 40 96 L 41 96 L 41 93 Z M 308 93 L 306 95 L 304 98 L 306 97 L 308 100 L 309 100 L 308 93 Z M 331 94 L 330 97 L 332 97 L 331 94 Z M 137 95 Q 137 99 139 96 L 137 95 Z M 42 96 L 42 100 L 40 101 L 42 101 Q 43 103 44 101 L 42 96 Z M 140 96 L 138 98 L 140 100 L 140 99 Q 142 97 140 96 Z M 175 96 L 174 98 L 176 99 L 175 96 Z M 193 96 L 193 100 L 195 101 Q 196 96 193 96 Z M 325 96 L 323 100 L 320 101 Q 322 105 324 102 L 326 104 L 325 106 L 326 109 Q 325 112 329 110 L 328 101 L 325 96 Z M 9 99 L 9 109 L 13 104 Q 14 99 12 100 L 9 99 Z M 143 99 L 142 103 L 143 103 L 143 99 Z M 169 99 L 168 103 L 169 103 L 169 99 Z M 176 99 L 176 101 L 174 101 Q 175 103 172 102 L 173 104 L 175 103 L 177 106 L 178 101 Q 179 98 176 99 Z M 159 102 L 157 104 L 159 104 L 159 102 Z M 305 103 L 306 109 L 308 106 L 305 103 Z M 167 104 L 167 107 L 169 106 Q 170 103 167 104 Z M 172 104 L 171 107 L 172 107 L 172 104 Z M 156 105 L 157 109 L 157 107 L 160 106 L 156 105 Z M 319 106 L 314 112 L 318 116 L 318 115 L 322 112 Q 323 107 319 106 Z M 166 108 L 164 110 L 166 110 L 166 108 Z M 169 108 L 170 115 L 173 116 L 171 119 L 172 120 L 169 123 L 171 123 L 172 124 L 172 122 L 174 122 L 174 116 L 176 116 L 176 123 L 175 124 L 177 127 L 177 117 L 178 116 L 177 110 L 178 108 L 174 111 L 175 114 Q 170 116 172 110 L 169 108 Z M 14 109 Q 12 112 15 111 L 14 109 Z M 142 109 L 139 111 L 142 112 L 142 109 Z M 184 110 Q 183 112 188 112 L 189 114 L 192 112 L 192 110 L 184 110 Z M 169 111 L 166 116 Q 165 119 168 118 L 167 117 L 169 116 L 169 111 Z M 11 112 Q 9 115 12 114 L 11 112 Z M 147 113 L 147 121 L 148 121 Q 149 114 147 113 Z M 165 113 L 162 117 L 165 116 L 165 113 Z M 325 113 L 321 119 L 320 123 Q 324 124 323 122 L 327 119 Q 329 118 328 115 L 325 113 Z M 29 115 L 28 117 L 31 118 L 31 116 L 29 115 Z M 156 117 L 155 125 L 156 125 L 156 117 Z M 159 118 L 159 120 L 157 123 L 159 125 L 160 125 L 159 121 L 163 122 L 163 120 L 160 120 L 162 119 L 159 118 Z M 165 118 L 163 120 Q 165 123 166 120 Q 167 117 165 118 Z M 332 118 L 331 124 L 332 124 L 332 118 Z M 14 120 L 14 124 L 15 124 L 14 120 Z M 168 120 L 167 123 L 168 123 L 168 120 Z M 317 120 L 317 125 L 318 125 L 317 120 Z M 165 122 L 164 123 L 161 125 L 160 128 L 161 131 L 163 127 L 164 130 L 167 128 L 165 127 L 166 124 Q 167 121 165 122 Z M 328 122 L 325 125 L 325 134 L 328 143 L 329 141 L 327 130 L 329 130 L 329 124 L 328 128 L 327 128 L 328 124 L 328 122 Z M 147 124 L 146 131 L 147 131 L 147 124 Z M 169 124 L 169 126 L 167 132 Q 170 133 166 135 L 168 136 L 170 135 L 171 131 Q 173 132 171 134 L 173 134 L 175 130 L 175 132 L 176 132 L 175 127 L 172 125 L 173 130 L 170 130 L 170 125 L 169 124 Z M 157 126 L 156 130 L 157 130 L 157 126 Z M 10 127 L 10 132 L 12 131 L 11 133 Q 10 135 13 134 L 15 130 L 10 127 Z M 26 128 L 24 130 L 26 135 L 27 130 Q 28 127 26 128 Z M 152 128 L 151 148 L 152 148 L 152 128 Z M 156 130 L 155 134 L 156 134 L 156 130 Z M 164 130 L 160 135 L 165 137 L 165 136 Q 161 134 164 133 L 164 130 Z M 158 131 L 159 135 L 160 133 Q 161 130 158 131 Z M 319 131 L 316 134 Q 316 138 320 139 Q 323 137 322 132 L 319 131 Z M 146 132 L 146 147 L 147 147 L 146 132 Z M 175 133 L 173 136 L 175 136 L 175 133 Z M 158 136 L 154 148 L 156 151 L 158 140 L 158 136 Z M 171 136 L 170 141 L 172 145 L 170 152 L 167 153 L 169 149 L 169 144 L 166 154 L 165 153 L 164 157 L 166 158 Q 165 154 168 155 L 169 159 L 166 161 L 167 164 Q 168 166 166 165 L 164 165 L 165 168 L 163 174 L 162 170 L 161 170 Q 160 175 163 177 Q 164 179 162 178 L 160 178 L 161 181 L 159 186 L 161 189 L 159 192 L 161 193 Q 158 194 159 200 L 161 199 L 160 197 L 163 198 L 163 197 L 164 197 L 163 200 L 163 202 L 162 207 L 160 202 L 158 206 L 160 205 L 161 211 L 159 211 Q 158 213 162 212 L 166 200 L 171 156 L 171 154 L 174 140 L 175 138 Q 171 137 173 143 L 172 143 L 173 138 Q 174 135 171 136 Z M 161 137 Q 159 140 162 139 L 161 137 Z M 163 137 L 163 139 Q 161 143 165 142 L 164 141 Q 165 136 163 137 Z M 9 138 L 11 141 Q 13 142 12 140 L 9 138 Z M 166 138 L 166 141 Q 168 142 165 144 L 166 148 L 166 145 L 170 140 L 170 138 L 166 138 Z M 13 146 L 13 148 L 16 148 L 13 146 Z M 318 148 L 317 151 L 318 153 L 319 153 L 319 150 Q 323 151 322 149 L 321 149 L 318 148 Z M 146 149 L 147 155 Q 149 160 146 162 L 146 174 L 147 175 L 147 184 L 146 185 L 146 186 L 148 187 L 148 195 L 149 195 L 149 186 L 148 185 L 148 150 L 146 149 Z M 156 153 L 152 154 L 155 162 L 156 162 L 156 157 Q 153 158 154 156 L 156 156 L 157 154 L 156 153 Z M 12 154 L 11 156 L 18 160 Q 20 161 19 159 L 17 157 L 14 154 L 12 154 Z M 161 156 L 160 160 L 161 160 L 161 156 Z M 165 159 L 164 163 L 165 163 L 165 159 Z M 321 159 L 320 162 L 321 162 L 321 159 Z M 153 164 L 152 169 L 153 169 L 153 164 Z M 10 166 L 10 170 L 11 170 L 10 166 Z M 157 166 Q 155 169 158 168 L 157 166 Z M 158 168 Q 159 171 156 170 L 157 173 L 158 171 L 159 174 L 160 174 L 159 171 L 160 169 L 158 168 Z M 153 170 L 153 189 L 155 190 L 153 170 Z M 158 173 L 156 181 L 158 188 L 159 181 L 158 173 Z M 157 189 L 157 193 L 157 195 L 156 198 L 153 197 L 154 200 L 156 199 L 156 203 L 153 202 L 154 210 L 154 209 L 156 208 L 155 211 Q 158 212 157 210 L 157 208 Q 156 199 158 194 L 158 192 L 159 190 L 157 189 Z M 237 195 L 228 200 L 226 203 L 230 202 Q 231 206 228 207 L 225 209 L 221 213 Q 219 223 212 230 L 213 231 L 215 230 Q 220 226 222 219 L 233 212 L 240 202 L 240 197 L 237 195 Z M 224 203 L 219 209 L 225 204 L 224 203 Z M 146 206 L 145 210 L 148 211 L 148 207 L 146 206 Z M 159 232 L 154 235 L 157 236 L 155 241 L 154 239 L 152 244 L 153 246 L 153 245 L 158 241 L 159 238 L 158 236 L 159 234 L 159 232 Z M 146 237 L 145 240 L 147 241 L 146 245 L 148 244 Q 150 236 146 237 Z M 130 238 L 131 244 L 135 246 L 136 246 L 133 241 L 130 238 Z M 138 240 L 140 248 L 142 249 L 140 242 L 138 240 Z M 149 244 Q 146 245 147 251 L 150 253 Q 151 248 148 248 Q 147 245 150 246 L 151 249 L 152 247 L 149 244 Z M 129 245 L 128 249 L 129 249 L 129 245 Z M 137 246 L 133 251 L 134 254 L 134 253 L 137 251 L 138 249 L 137 246 Z M 162 246 L 158 256 L 159 261 L 159 268 L 162 268 L 162 271 Q 161 273 160 271 L 159 282 L 158 283 Q 159 287 155 285 L 155 261 L 153 280 L 150 289 Q 151 291 148 290 L 148 292 Q 144 293 143 291 L 143 289 L 147 289 L 149 280 L 149 275 Q 146 273 147 269 L 144 279 L 146 283 L 146 285 Q 147 289 142 287 L 139 295 L 142 293 L 143 294 L 147 293 L 148 297 L 157 295 L 174 296 Q 176 300 183 299 Q 185 303 190 304 L 194 313 L 195 311 L 197 312 L 193 308 L 195 304 L 200 308 L 197 305 Q 195 299 199 300 L 200 302 L 200 298 L 203 300 Q 202 302 206 301 L 204 299 Q 205 296 203 297 L 200 293 L 194 301 L 191 300 L 196 290 L 196 288 Q 195 284 198 285 Q 202 283 199 282 Q 200 278 197 279 L 197 282 L 193 277 L 191 276 L 193 282 L 191 282 Q 192 284 189 283 L 188 286 L 189 290 L 188 293 Q 189 295 186 294 L 184 297 L 181 297 L 175 293 L 178 291 Q 179 287 176 286 L 175 288 L 175 290 Q 176 292 173 291 Q 169 289 171 283 L 174 281 L 170 275 L 175 277 L 178 277 L 172 273 Q 168 274 170 270 L 181 274 L 181 273 Q 177 269 170 268 L 168 265 L 179 267 L 182 269 L 182 268 L 174 263 Q 170 262 171 258 L 181 263 Q 183 264 182 261 L 181 261 L 174 258 L 173 251 L 179 252 L 182 255 Q 184 251 186 255 L 186 254 Q 178 245 162 246 Z M 138 253 L 137 255 L 139 256 L 138 253 Z M 146 254 Q 146 257 142 256 L 140 265 L 141 268 L 144 267 L 143 264 L 144 262 L 143 260 L 147 258 L 146 254 Z M 181 255 L 179 257 L 181 257 L 181 255 Z M 132 256 L 132 259 L 137 261 Q 139 262 138 259 L 134 258 Q 135 255 132 256 Z M 188 256 Q 186 261 189 261 L 190 264 L 193 265 L 194 268 L 197 269 L 198 269 L 188 256 Z M 131 260 L 129 263 L 134 265 Q 135 267 136 265 L 131 262 L 131 260 Z M 150 261 L 148 263 L 149 267 L 150 265 L 150 261 Z M 127 266 L 127 268 L 130 269 L 131 269 L 127 266 Z M 186 266 Q 187 275 183 281 L 182 293 L 185 294 L 184 293 L 185 283 L 189 280 L 188 279 L 188 267 L 186 266 Z M 193 268 L 192 275 L 193 275 L 193 268 Z M 132 270 Q 130 273 129 271 L 127 272 L 129 274 L 133 272 L 132 270 Z M 142 271 L 140 273 L 141 275 L 142 275 L 142 271 Z M 124 274 L 120 281 L 120 284 L 123 284 L 127 280 L 126 277 Q 127 273 124 274 Z M 141 275 L 139 277 L 141 277 L 141 275 Z M 134 276 L 132 279 L 137 282 L 140 282 Q 141 279 137 280 L 134 276 Z M 176 280 L 176 284 L 179 285 L 179 282 L 176 280 Z M 131 281 Q 128 283 131 284 Q 134 283 131 281 Z M 134 283 L 133 285 L 138 289 L 138 285 Q 135 286 134 283 Z M 121 287 L 121 289 L 125 292 Q 127 285 121 287 Z M 202 287 L 201 290 L 202 290 L 202 287 Z M 131 289 L 134 295 L 137 296 L 138 297 Q 139 294 136 295 L 136 293 L 131 289 Z M 125 295 L 127 300 L 131 302 L 130 297 Q 129 294 125 295 Z M 143 297 L 138 300 L 135 299 L 134 303 L 144 298 L 147 298 L 143 297 Z M 168 303 L 162 306 L 159 305 L 160 313 L 160 315 L 159 317 Q 158 322 160 324 L 160 359 L 164 364 L 163 367 Q 162 371 164 373 L 163 378 L 166 379 L 168 382 L 169 388 L 169 386 Q 170 383 174 384 L 176 380 L 178 384 L 179 382 L 181 387 L 181 386 L 183 387 L 182 392 Q 185 393 184 390 Q 186 387 187 390 L 186 393 L 190 394 L 190 391 Q 193 390 192 393 L 196 395 L 195 397 L 197 401 L 196 406 L 198 406 L 200 401 L 204 403 L 204 402 Q 206 399 207 402 Q 206 406 209 405 L 208 403 L 210 399 L 212 403 Q 214 402 213 398 L 216 398 Q 215 402 218 401 L 217 395 Q 220 394 219 397 L 222 395 L 225 393 L 226 394 Q 225 389 229 391 L 230 389 L 232 390 L 237 387 L 243 392 L 244 391 L 241 388 Q 240 383 243 384 L 245 387 L 245 384 L 249 385 L 248 384 L 251 382 L 252 383 Q 251 379 255 380 L 257 382 L 256 379 L 258 377 L 260 379 L 258 376 L 260 373 L 262 374 Q 263 369 259 367 Q 260 364 257 365 L 253 364 Q 254 361 251 362 L 250 366 L 254 367 L 255 370 L 254 372 Q 255 374 252 373 Q 249 372 250 368 L 248 367 L 246 371 L 248 370 L 248 376 Q 252 377 249 379 L 245 376 L 243 377 L 240 376 L 235 377 Q 231 376 232 379 Q 229 380 230 377 L 225 379 L 224 375 L 222 374 L 224 380 L 221 381 L 221 378 L 220 380 L 217 381 Q 218 383 215 382 L 215 385 L 213 385 L 213 380 Q 210 381 212 383 Q 213 386 210 385 Q 209 388 212 387 L 213 387 Q 214 390 212 389 L 213 392 L 212 394 L 209 395 L 206 388 L 202 364 L 200 363 L 203 392 L 200 393 L 198 388 L 197 365 L 196 364 Q 197 359 193 361 Q 194 357 191 355 L 191 344 L 187 329 Q 189 322 184 324 L 182 324 L 185 336 L 185 343 L 187 351 L 187 363 L 188 364 L 188 372 L 184 369 L 182 337 L 178 322 L 177 322 L 178 326 L 177 329 L 177 334 L 179 340 L 178 342 L 174 339 L 174 322 L 171 312 L 170 312 L 170 320 L 172 327 L 171 327 L 171 329 Q 172 332 169 331 L 166 314 L 166 312 Q 164 306 170 308 L 171 306 L 168 303 Z M 150 304 L 147 307 L 147 328 L 144 344 L 143 361 L 142 362 L 142 379 L 141 380 L 139 381 L 139 387 L 142 389 L 141 392 L 137 390 L 135 389 L 135 377 L 134 376 L 135 360 Q 138 357 137 351 L 139 348 L 143 320 L 144 318 L 140 319 L 142 323 L 140 325 Q 140 333 137 339 L 136 350 L 134 355 L 134 368 L 133 369 L 133 387 L 134 390 L 132 391 L 129 390 L 128 386 L 127 386 L 127 394 L 125 394 L 125 393 L 124 391 L 126 383 L 124 382 L 123 387 Q 125 393 121 392 L 122 388 L 120 382 L 119 384 L 119 386 Q 120 390 117 389 L 118 385 L 114 387 L 115 385 L 115 382 L 112 375 L 110 379 L 109 375 L 108 375 Q 110 380 105 378 L 105 383 L 97 386 L 88 386 L 90 383 L 87 382 L 84 379 Q 85 376 89 377 L 88 379 L 98 379 L 99 376 L 104 371 L 103 370 Q 102 361 107 359 L 109 364 L 110 356 L 102 359 L 102 361 Q 103 365 101 364 L 99 360 L 98 365 L 96 361 Q 93 362 95 364 Q 96 368 93 367 L 92 363 Q 89 364 91 366 Q 92 370 89 369 L 88 365 L 87 371 L 85 367 Q 82 368 83 372 Q 80 373 81 370 L 77 371 L 70 379 Q 69 381 72 380 Q 73 383 70 382 L 73 390 L 75 389 Q 76 386 73 387 Q 71 383 76 384 L 75 386 L 76 387 L 78 386 L 75 392 L 76 393 L 77 391 L 80 389 L 78 393 Q 77 395 80 394 L 82 391 L 84 392 L 82 396 L 86 398 L 89 394 L 90 395 L 87 399 Q 86 401 89 400 L 91 397 Q 90 394 93 395 L 94 398 L 94 397 L 96 396 L 95 400 L 96 402 L 97 399 L 100 397 L 98 403 L 101 402 Q 100 395 103 396 L 105 398 Q 104 395 107 396 L 106 399 L 108 404 L 109 400 Q 108 397 111 398 L 112 405 L 112 399 L 115 397 L 114 401 L 117 406 L 117 399 L 119 397 L 120 404 L 122 399 L 123 406 L 124 401 L 126 401 L 128 400 L 130 404 L 131 402 Q 133 403 132 408 L 133 408 Q 131 401 135 402 L 136 406 L 136 404 L 139 402 L 138 404 L 140 409 Q 139 402 143 399 L 147 401 L 148 401 L 147 399 L 155 395 L 160 395 L 162 393 L 162 390 L 160 393 L 157 390 Q 156 386 159 387 L 157 383 L 159 380 Q 160 375 157 374 L 158 371 Q 159 363 155 360 L 156 359 L 156 341 L 157 340 L 156 313 L 154 320 Q 153 325 155 327 L 154 331 L 155 335 L 149 364 L 149 381 L 145 380 L 146 376 L 145 374 L 146 372 L 146 358 L 149 348 L 149 343 L 151 340 L 151 313 L 151 311 Q 152 305 150 304 Z M 174 306 L 176 319 L 180 318 L 176 312 L 176 307 L 174 306 Z M 186 307 L 184 309 L 185 311 Q 184 314 187 313 L 189 313 L 191 319 L 193 320 L 193 317 L 189 311 Q 190 308 187 309 L 187 307 L 186 307 Z M 143 308 L 143 314 L 140 316 L 143 317 L 144 315 Q 145 307 143 308 Z M 183 314 L 182 317 L 184 320 L 186 320 L 183 314 Z M 196 316 L 196 321 L 197 319 L 196 316 Z M 133 342 L 131 344 L 133 344 L 133 342 Z M 206 344 L 205 346 L 208 346 L 212 350 L 214 350 Q 216 356 219 351 L 213 349 L 211 345 L 206 344 Z M 121 347 L 118 348 L 119 354 L 115 355 L 115 350 L 110 356 L 113 356 L 115 360 L 115 357 Q 117 358 119 355 L 120 357 L 122 354 Q 123 346 121 347 Z M 203 350 L 204 352 Q 205 349 203 350 Z M 226 353 L 222 355 L 221 357 L 226 355 L 228 355 L 230 354 L 232 359 L 230 359 L 224 363 Q 222 369 226 368 L 225 366 L 226 364 Q 225 361 228 362 L 227 367 L 229 367 Q 228 362 231 360 L 233 365 L 233 363 L 236 361 L 237 363 L 238 360 Q 241 359 240 362 L 241 362 Q 240 359 243 360 L 244 363 L 247 361 L 240 358 L 235 358 L 232 355 Q 233 352 226 353 Z M 244 354 L 245 355 L 246 356 Q 247 353 244 354 Z M 140 355 L 139 361 L 140 361 L 140 355 Z M 118 358 L 117 361 L 118 361 L 118 358 Z M 206 359 L 204 361 L 205 363 L 205 365 L 210 365 Q 212 361 207 362 L 206 359 Z M 116 360 L 115 365 L 116 365 L 116 360 Z M 122 361 L 121 364 L 122 364 L 122 361 Z M 139 361 L 138 368 L 139 368 L 139 361 Z M 214 361 L 215 365 L 216 363 Q 217 360 214 361 Z M 247 361 L 246 365 L 250 363 Q 251 359 247 361 Z M 220 363 L 218 367 L 222 368 L 222 367 L 222 365 Q 223 362 220 363 Z M 125 366 L 122 368 L 125 369 L 125 366 Z M 242 367 Q 241 370 244 369 Q 245 366 242 367 Z M 227 372 L 228 374 L 235 374 L 227 372 Z M 115 375 L 113 377 L 115 377 L 115 375 Z M 220 375 L 219 378 L 220 378 L 220 375 Z M 121 377 L 121 378 L 124 378 L 121 377 Z M 209 377 L 208 382 L 209 382 L 209 377 Z M 163 382 L 162 384 L 164 385 L 163 382 Z M 210 382 L 209 385 L 210 385 L 210 382 Z M 175 387 L 174 390 L 175 390 L 175 387 Z M 246 388 Q 245 391 248 390 Q 249 387 246 388 Z M 172 392 L 170 394 L 172 394 L 172 392 Z M 234 392 L 235 394 Q 236 391 234 392 Z M 171 396 L 166 399 L 164 399 L 160 401 Q 153 399 155 404 L 153 404 L 154 401 L 150 404 L 151 406 L 154 405 L 158 410 Q 160 411 159 408 L 161 408 L 160 411 L 162 420 L 162 418 L 163 418 Q 164 423 161 425 L 162 429 L 162 430 L 161 428 Q 161 434 158 437 L 159 439 Q 160 443 157 442 L 160 452 L 169 457 L 171 456 L 171 468 L 170 469 L 171 475 Q 174 468 172 457 L 176 451 L 176 453 L 176 457 L 177 458 L 180 456 L 181 456 Q 182 458 179 457 L 177 461 Q 178 463 175 462 L 176 466 L 178 465 L 179 465 Q 176 467 177 474 L 177 476 Q 178 481 175 483 Q 172 481 173 477 L 172 477 Q 171 481 173 483 L 173 486 Q 170 485 171 488 L 169 489 L 171 489 L 173 495 L 172 504 L 174 505 L 174 499 L 176 498 L 176 497 L 176 495 L 180 489 L 180 487 L 178 490 Q 175 491 176 489 L 175 489 Q 176 493 173 492 L 174 486 Q 175 483 177 485 L 181 478 L 181 470 L 182 469 Q 179 467 180 463 Q 181 460 183 462 L 188 452 Q 184 450 187 449 L 187 447 L 185 448 L 184 451 Q 183 453 186 452 L 185 454 L 183 450 Q 177 451 175 448 L 176 446 L 178 447 L 177 446 L 178 444 Q 179 441 183 442 Q 186 440 185 434 L 182 432 L 179 426 L 181 426 L 181 425 L 175 421 Q 168 423 169 419 L 173 418 L 176 419 L 179 418 L 178 416 L 180 413 L 179 409 L 178 411 L 178 413 L 177 415 L 176 414 L 176 412 L 178 409 Q 177 405 180 406 L 179 405 L 181 402 L 181 404 L 184 405 L 184 403 L 186 404 L 184 407 L 187 405 Q 189 406 188 403 L 185 401 L 183 401 L 181 400 L 179 401 Q 174 402 175 400 L 171 396 Z M 93 398 L 91 400 Q 90 402 93 401 L 93 398 Z M 104 398 L 103 403 L 104 403 L 104 398 Z M 126 402 L 125 405 L 126 405 L 126 402 Z M 205 403 L 204 406 L 205 406 L 205 403 Z M 137 406 L 135 408 L 137 409 L 137 406 Z M 182 426 Q 180 429 183 430 L 184 428 L 183 428 L 182 426 Z M 156 434 L 155 438 L 156 438 L 156 434 Z M 189 436 L 188 441 L 189 441 L 189 436 Z M 186 438 L 185 441 L 184 443 Q 186 442 185 446 L 187 446 L 188 447 L 186 438 Z M 194 440 L 195 446 L 193 452 L 194 454 L 196 449 Q 197 442 194 440 Z M 191 441 L 191 445 L 190 454 L 185 462 L 189 465 Q 191 470 187 469 L 187 467 Q 186 472 183 475 L 184 478 L 186 474 Q 185 471 188 472 L 188 470 L 190 470 L 187 476 L 188 480 L 190 475 L 192 475 L 191 473 L 193 464 L 193 458 L 191 464 L 188 462 L 192 456 L 190 456 L 192 451 Q 193 444 191 441 Z M 156 446 L 156 454 L 157 454 L 156 446 Z M 174 455 L 174 457 L 176 456 L 174 455 Z M 162 457 L 161 459 L 163 460 L 162 457 Z M 183 462 L 182 466 L 183 468 L 185 464 Q 186 461 183 462 Z M 174 472 L 173 476 L 174 476 L 174 472 Z M 171 478 Q 171 481 168 480 L 168 483 L 171 481 L 171 478 Z M 185 478 Q 183 484 185 487 Q 189 488 187 481 L 186 481 L 185 478 Z M 192 482 Q 190 486 192 488 Q 191 491 194 490 L 196 490 L 192 482 Z M 182 487 L 181 490 L 182 490 L 182 487 Z M 186 489 L 187 492 L 188 490 L 186 489 Z M 152 490 Q 153 493 150 495 L 151 498 L 154 492 Q 155 489 152 490 Z M 181 490 L 180 493 L 181 493 L 181 490 Z M 165 491 L 164 495 L 165 495 L 165 491 Z M 186 492 L 185 495 L 186 495 L 186 492 Z M 180 494 L 179 497 L 180 497 L 180 494 Z M 170 495 L 168 498 L 169 501 L 170 498 L 170 495 Z M 151 508 L 151 509 L 153 509 L 151 508 Z M 159 529 Q 156 535 160 537 L 161 535 L 159 529 Z M 180 533 L 179 536 L 180 536 L 180 533 Z M 172 541 L 169 548 L 177 548 L 177 547 L 176 547 L 173 546 Q 174 543 172 544 L 172 543 L 172 541 Z M 158 543 L 157 546 L 158 546 L 158 543 Z M 138 551 L 137 552 L 82 552 L 81 553 L 11 552 L 11 562 L 12 563 L 11 592 L 18 593 L 21 592 L 23 593 L 25 592 L 37 592 L 38 591 L 66 591 L 68 591 L 78 592 L 80 592 L 90 592 L 91 591 L 93 592 L 116 592 L 117 591 L 119 592 L 121 592 L 123 591 L 126 592 L 129 591 L 130 592 L 138 592 L 140 592 L 197 592 L 198 591 L 200 592 L 223 592 L 224 591 L 244 591 L 245 590 L 250 591 L 252 591 L 254 590 L 262 591 L 264 591 L 321 591 L 322 590 L 324 591 L 334 590 L 335 587 L 335 551 L 332 553 L 331 552 L 321 552 L 320 551 L 313 552 L 311 552 L 240 552 L 239 551 L 238 552 L 165 552 L 162 551 L 160 552 L 158 551 L 156 552 L 145 552 L 143 552 L 138 551 Z "></path><path d="M 171.5 11 L 177.5 12 L 179.5 12 L 197.5 11 L 199 13.5 L 197.5 15 L 189 15 L 189 22.5 L 190.5 24 L 192.5 23 L 194.5 24 L 197.5 23 Q 202 25 198.5 27 L 196.5 28 L 192.5 28 L 170.5 28 L 166.5 29 L 163.5 28 L 162.5 29 L 150.5 29 L 149.5 30 L 148 27.5 Q 149.3 23.8 155.5 25 L 159 21.5 Q 160.1 18.2 157.5 19 L 152.5 15 L 147.5 16 L 146 13.5 L 147.5 12 L 170.5 12 L 171.5 11 Z M 161 15 Q 160 18 164 17 Q 165 14 161 15 Z M 170 15 L 166 21 Q 165 23 168 22 L 168 24 L 175 25 L 175 15 L 170 15 Z M 181 15 Q 178 16 180 18 L 179 20 L 179 24 L 184 24 L 184 15 L 181 15 Z M 163 23 L 160 25 L 163 25 L 163 23 Z "></path><path d="M 109.5 41 L 113 42.5 L 110.5 43 L 109.5 41 Z "></path><path d="M 217.5 45 L 218.5 47 L 216.5 48 L 216 46.5 L 217.5 45 Z "></path><path d="M 295.5 46 L 296.5 48 Q 293.7 48.7 295.5 46 Z "></path><path d="M 302 46 L 304 46.5 L 302 47.5 L 302 46 Z "></path><path d="M 299.5 47 L 300 49.5 L 299 49.5 L 299.5 47 Z "></path><path d="M 293.5 50 L 294 51.5 L 293 54 Q 290 55.3 291 51.5 L 293 51.5 L 293.5 50 Z "></path><path d="M 295.5 53 Q 299.3 52 298 55 L 295.5 53 Z "></path><path d="M 281.5 54 L 284 55.5 L 282.5 56 L 281.5 54 Z "></path><path d="M 318.5 133 Q 320.8 132.3 320 134.5 L 318 135.5 L 318.5 133 Z "></path><path d="M 167.5 173 L 168 177.5 L 166 182.5 L 166.5 184 Q 163.9 184.8 165 181.5 L 167 176.5 L 167 174.5 L 167.5 173 Z "></path><path d="M 164 185 Q 167.3 183.7 166 188.5 L 165 188.5 L 164 185 Z "></path><path d="M 162.5 192 L 163 194.5 L 162 194.5 L 162.5 192 Z "></path><path d="M 154 204 Q 157 203 156 206 Q 153 207 154 204 Z "></path><path d="M 161.5 273 L 165 274 L 163.5 277 L 160 275.5 L 161.5 273 Z "></path><path d="M 161.5 278 L 165 279 L 164 283.5 L 165 283.5 L 166.5 281 L 169 281.5 L 169 289.5 L 170 291.5 L 166.5 293 L 164 289.5 L 165 285.5 L 163.5 286 L 159 285 L 161 281.5 L 160 279.5 L 161.5 278 Z "></path><path d="M 161 290 L 164 291.5 Q 164.7 294.5 161 293 L 161 290 Z "></path><path d="M 168 336 Q 171.7 334.5 171 337.5 L 173 346.5 L 174 373.5 Q 172 377 170 372.5 L 171 366.5 L 169 356.5 Q 171.2 355.3 170 350.5 L 169 349.5 L 168 336 Z "></path><path d="M 77 372 Q 80 370.8 79 374.5 L 77 373.5 L 77 372 Z "></path><path d="M 154.5 388 L 157 391.5 L 155.5 394 L 153 392.5 Q 153.8 395.1 150.5 394 L 147.5 396 L 150 392.5 Q 148.9 389.2 151.5 390 L 153 390.5 L 154.5 388 Z "></path><path d="M 165 402 Q 167.7 400.9 167 403.5 L 165 404.5 L 165 402 Z "></path><path d="M 164.5 407 L 165 409 L 163 408.5 L 164.5 407 Z "></path><path d="M 213.5 412 L 217 412 Q 215.5 415.7 218.5 415 L 220 418 Q 216.3 416.5 217 419.5 L 216 422 Q 211.5 425.3 203.5 426 L 202 423 L 208.5 422 L 212 419.5 Q 209.8 418.3 212.5 417 L 216 415.5 L 213.5 415 L 201.5 422 L 201 419.5 L 206.5 415 L 209 415 Q 207.7 411.7 212.5 413 L 213.5 412 Z "></path><path d="M 167 413 L 169 413.5 L 167 414.5 L 167 413 Z "></path><path d="M 218.5 421 Q 222.3 419.8 221 423.5 L 217.5 429 L 207 432 L 207 428 L 208.5 428 L 217 424.5 L 218.5 421 Z "></path><path d="M 123.5 423 L 133.5 424 L 136 426.5 Q 137.3 430.7 132.5 429 L 129.5 427 L 122 426 L 123.5 423 Z "></path><path d="M 175.5 423 L 177 423.5 L 174 425.5 L 175.5 423 Z "></path><path d="M 168.5 426 L 177 428 Q 178.1 430.7 175.5 430 Q 174.1 432.6 169.5 432 L 165.5 431 L 163 432.5 L 168.5 426 Z "></path><path d="M 164.5 427 L 165 428.5 L 163 429.5 L 164.5 427 Z "></path><path d="M 120.5 428 L 133 431 L 133 435 L 131.5 435 L 122.5 433 L 118 430.5 L 120.5 428 Z "></path><path d="M 221.5 430 L 224 431.5 Q 224.9 434.5 220.5 433 L 208 436 L 209.5 433 L 221.5 430 Z "></path><path d="M 180.5 431 L 181 433.5 L 180 433.5 L 180.5 431 Z "></path><path d="M 169.5 433 L 171.5 434 L 175 433 L 174 437 L 169 438 L 168 434.5 L 169.5 433 Z "></path><path d="M 115 436 L 128.5 437 L 132 439.5 L 130.5 442 L 115 439 L 115 436 Z "></path><path d="M 166.5 437 L 167 439.5 L 166 439.5 L 166.5 437 Z "></path><path d="M 221.5 437 L 227 438 Q 228.1 440.7 225.5 440 L 223.5 440 L 218.5 442 L 209 443 Q 207.3 438.5 212.5 440 Q 213.8 437.8 218.5 439 L 221.5 437 Z "></path><path d="M 164.5 439 L 165 440.5 L 163 441.5 L 164.5 439 Z "></path><path d="M 168 439 L 171 439.5 L 171 448.5 L 164.5 452 L 162.5 449 L 161.5 451 L 160 447.5 L 161 444 L 165.5 443 L 166.5 446 Q 168.8 446.8 168 444.5 L 169 442.5 L 168 439 Z "></path><path d="M 175.5 440 L 174 442.5 Q 175.3 448.6 172.5 448 L 173 446.5 L 172 444.5 L 175.5 440 Z "></path><path d="M 114.5 442 L 115.5 443 L 128.5 443 L 130 444.5 Q 131.5 448.9 128.5 448 L 127.5 447 L 111 446 Q 109.3 441.9 113.5 443 L 114.5 442 Z "></path><path d="M 210.5 445 L 216.5 446 L 221.5 445 L 224.5 446 Q 229.3 444.7 228 448 L 222.5 449 L 220.5 448 L 218.5 448 L 210.5 449 L 209 446.5 L 210.5 445 Z "></path><path d="M 209 450 L 213.5 451 Q 215 448.5 216.5 452 Q 222.7 450.2 224.5 453 L 228 452 Q 229.3 455 225.5 454 Q 224 457.5 222.5 455 L 211.5 454 L 209 453 L 209 450 Z "></path><path d="M 114.5 451 L 116.5 452 L 120.5 451 L 123.5 452 L 128.5 451 Q 131.3 452.3 129 453.5 L 128.5 455 L 121.5 455 L 118.5 456 L 112 455 Q 110.5 451.2 113.5 452 L 114.5 451 Z "></path><path d="M 169.5 451 L 171.5 452 L 173 451.5 L 171.5 454 L 170.5 452 L 168.5 453 L 169.5 451 Z "></path><path d="M 208.5 454 L 226 463.5 L 222.5 465 L 213.5 461 L 208 456.5 L 208.5 454 Z "></path><path d="M 128.5 456 L 131 457.5 Q 132.1 460.8 129.5 460 L 129.5 461 Q 134.8 459.5 133 464 L 122.5 469 L 114 471 Q 112.5 467.2 115.5 468 L 118.5 465 L 122.5 465 L 129 461.5 L 123.5 461 L 113 465 Q 112.3 461.2 115.5 460 L 128.5 456 Z "></path><path d="M 208.5 461 L 210.5 461 L 218.5 467 L 221 467 Q 222.1 469.7 219.5 469 L 214.5 468 L 207 463.5 L 208.5 461 Z "></path><path d="M 151.5 462 Q 154.1 463.4 153.5 468 L 154 466 Q 157 464.8 156 468.5 L 154 468.5 L 156 472.5 L 154.5 476 L 150 464.5 L 151.5 462 Z "></path><path d="M 133.5 465 Q 136.1 464.2 135 467.5 L 131.5 471 L 128.5 471 L 122.5 475 Q 119.5 473.5 122.5 472 L 133.5 465 Z "></path><path d="M 205 465 L 210.5 467 L 222 476.5 L 218.5 477 L 204 467.5 L 205 465 Z "></path><path d="M 136.5 469 L 138 471.5 L 134 477 L 130.5 478 Q 129.3 475.8 128 478.5 Q 128.8 480.8 126.5 480 L 125 478.5 L 129.5 474 L 132.5 472 L 136.5 469 Z "></path><path d="M 178 470 Q 181.5 468.9 180 476.5 L 178 477.5 L 178 470 Z "></path><path d="M 202.5 470 L 204.5 470 L 213 477 L 215 483 Q 206.6 479.4 201 471.5 L 202.5 470 Z "></path><path d="M 199.5 472 L 211 485.5 L 211 487.5 L 209.5 487 L 206 484.5 L 198.5 476 L 198 477.5 L 208 491.5 Q 206.7 494.3 205.5 492 Q 203.3 492.8 204 490.5 L 195 479.5 L 195 475 L 197.5 476 L 199.5 472 Z "></path><path d="M 163.5 479 L 165 481.5 L 163 480.5 L 163.5 479 Z "></path><path d="M 164.5 483 L 165.5 485 Q 162.7 485.7 164.5 483 Z "></path><path d="M 156 506 L 158 506.5 L 156 507.5 L 156 506 Z "></path><path d="M 313.5 507 Q 320.8 505.8 323 509.5 Q 324.5 513.9 321.5 513 Q 320.3 515.3 315.5 514 L 311 511.5 Q 310.5 507.5 313.5 507 Z "></path><path d="M 168.5 511 L 169 513 L 167 512.5 L 168.5 511 Z "></path><path d="M 312.5 515 L 319.5 516 L 322.5 515 L 325 516 L 323.5 519 L 320.5 518 L 318.5 518 Q 313.7 516.7 315 520 L 326.5 520 L 327 522 L 317 522.5 L 326.5 524 L 328.5 524 Q 331.1 523.3 330 526 Q 324.2 524.1 315 525 L 315.5 527 Q 316.8 524.7 321.5 526 L 330.5 529 L 334 532.5 L 332 533 Q 333.1 535.7 330.5 535 Q 329.3 537.3 324.5 536 L 314.5 534 L 313 536.5 L 315 543.5 Q 313.8 546.3 312.5 544 L 310.5 545 L 308 543.5 L 311 542 L 310 535 L 307.5 534 L 296 536 L 294.5 539 L 291 538 L 292.5 534 L 306.5 532 L 308.5 532 Q 312.3 533.3 311 529.5 Q 309.7 526.8 308.5 529 L 305.5 530 L 296 528 Q 294.5 524.3 297.5 525 Q 302.4 522.1 310 523 Q 311.3 520 307.5 521 Q 306.3 523.3 301.5 522 L 294 518.5 L 294.5 516 L 311.5 516 L 312.5 515 Z M 304 517 L 302 519 L 310 520 L 310 518 L 304 517 Z M 303 525 L 303 527 L 309 527 L 309 525 L 303 525 Z M 318 528 L 316 529 L 314 532 L 316 533 L 324 533 L 325 534 L 330 534 L 330 532 L 323 528 L 320 529 L 318 528 Z "></path><path d="M 162.5 519 L 163 521 L 165 521.5 L 163.5 522 L 162.5 519 Z "></path><path d="M 187.5 528 L 190 529.5 L 189 538.5 L 190 543.5 L 187.5 547 L 186 544.5 L 187 541.5 L 186 540.5 L 186 529.5 L 187.5 528 Z "></path><path d="M 151 530 Q 154.7 528.8 153 534 Q 149.3 535.2 151 530 Z "></path><path d="M 321.5 538 L 324 539.5 L 324 541 L 320 541 L 321.5 538 Z "></path><path d="M 342.5 547 L 345 547.5 L 342.5 552 L 342 550.5 L 343 548.5 L 342.5 547 Z "></path><path d="M 344.5 553 L 345 555.5 L 344 555.5 L 344.5 553 Z "></path><path d="M 207.5 558 L 215.5 560 L 217.5 560 L 222 563.5 Q 225.4 566.1 224 573.5 L 218.5 580 Q 212.6 583.7 202 582 L 203 579.5 L 204 568.5 L 202 559 L 207.5 558 Z M 211 562 L 208 569 L 208 579 L 214 579 L 219 573 L 218 566 Q 217 561 211 562 Z "></path><path d="M 295.5 558 L 301 559 L 307 570.5 L 310.5 574 L 311 571.5 L 310 570.5 L 310 561.5 L 308 559.5 L 316 559 L 314 562.5 L 314 577.5 L 314 579.5 Q 315.8 584.8 310.5 583 L 306 579.5 L 299.5 569 L 298 574.5 L 299 577.5 L 301 581.5 L 289.5 583 L 285 581.5 L 286 579.5 L 281.5 571 L 275 572 L 274 579.5 L 275 582 L 270 582 L 270 580.5 L 272 575.5 L 272 568.5 L 274 561.5 L 272.5 559 Q 280.2 557.2 282 561.5 L 282 564.5 L 291.5 581 L 294 579.5 L 294 561.5 L 292 559.5 L 295.5 558 Z M 278 562 L 276 570 L 281 570 L 278 562 Z "></path><path d="M 16 559 L 38.5 559 L 39 562.5 L 36.5 566 L 35 562 L 30 562 L 30 575.5 L 31 580.5 L 33 582.5 L 26.5 584 L 22 582.5 L 24 580.5 L 24 570.5 L 25 569.5 L 24 567.5 L 25 562.5 Q 23.8 560 20 561 L 18.5 565 Q 16.3 565.8 17 563.5 L 16 559 Z "></path><path d="M 42 559 L 48 559 L 48 568.5 L 49.5 568 L 56 568 L 56 564.5 L 57 562.5 L 55 559 L 60.5 559 L 61 559.5 L 61 581.5 L 62 584 L 56.5 584 L 56 582.5 L 56 580.5 L 57 572.5 L 55.5 571 L 48 571 L 48 584 L 42 584 L 43 573.5 L 42 569.5 L 43 566.5 L 42 564.5 L 42 562.5 L 42 559 Z "></path><path d="M 63 559 L 78.5 559 L 80 560.5 Q 81.9 566.8 77 565 Q 79.3 558.6 71.5 561 L 70 562.5 L 70 571 Q 72.7 572.1 72 569.5 L 76 568 L 75 575 Q 72 576 73 573 L 70 573 L 70 582 L 73.5 582 L 78 581 L 79.5 578 L 81.5 577 L 82 579.5 L 79.5 583 L 68.5 584 L 65 583 L 65 561.5 Q 62.3 562.1 63 559 Z "></path><path d="M 103.5 559 L 111 560.5 L 109 561 L 110 572.5 L 109 575.5 L 109 577.5 L 110 582 L 112 582.5 L 106.5 584 L 103 583 L 102.5 570 L 97 571 L 97 582.5 L 94.5 583 L 92.5 583 L 88 584 L 88 582 L 91 581.5 L 91 563.5 L 88 562 L 88.5 560 L 98 560 L 97 568 L 103 568 L 103 561.5 Q 100.8 560.3 103.5 559 Z "></path><path d="M 118.5 559 L 125.5 560 L 127 559.5 Q 130.9 567.6 132 578.5 L 134.5 581 L 136 580.5 L 136 572.5 L 135 569.5 L 135 567.5 L 136 561 L 134 560.5 L 135.5 559 L 144 559 L 143 561.5 L 151.5 575 L 153 574.5 L 153 562.5 L 151 559 L 157.5 559 L 159 560.5 L 157 561 L 156 566.5 L 157 571.5 Q 154.2 573.3 156 579.5 L 156 581.5 L 154.5 584 L 152.5 584 L 148 579.5 L 140.5 567 L 140 581 L 146 581.5 L 143.5 584 L 131.5 584 L 129 583 L 128 575.5 L 126.5 574 Q 120.5 572.5 119 575.5 L 119 580.5 Q 121.8 579.9 121 583 L 115 584 L 118 561.5 Q 115.8 560.3 118.5 559 Z M 123 563 L 121 565 L 121 571 L 126 571 L 125 565 L 123 563 Z "></path><path d="M 166.5 559 Q 174 558 177 560 L 175.5 563 L 171.5 561 L 165 565.5 L 164 573.5 L 167.5 578 L 169.5 579 L 174 576.5 L 170 575 Q 168.2 570.1 174.5 572 L 180 573 Q 178.4 575.1 179 580.5 L 177.5 582 L 167.5 583 L 161 579.5 Q 157.9 575.1 159 566.5 L 162 561 Q 165.4 561.8 166.5 559 Z "></path><path d="M 181 559 L 197.5 559 L 198 560.5 L 199 562.5 L 198 565 Q 193.1 566.6 195 561 L 188 561 L 188 567.5 L 189.5 568 L 191.5 567 Q 193.8 567.8 193 571.5 Q 191.8 574.3 190.5 572 L 188.5 571 L 188 572.5 L 189 574.5 L 188 576.5 L 189 579 Q 193.6 580.3 195 577.5 Q 193.9 574.2 196.5 575 L 199 574 L 198 581 L 188.5 583 L 182 580.5 L 183 561 Q 180 562 181 559 Z "></path><path d="M 237 559 L 244.5 559 L 246 560.5 Q 247.8 569.2 252.5 575 L 257 561.5 L 256 559 Q 262.9 557.5 266 560.5 L 265 561.5 L 265 580 Q 269.1 578.7 268 582 L 259.5 582 L 259 580.5 L 260 579.5 L 260 565.5 L 259 565.5 L 254 582.5 L 252.5 584 L 248 580.5 L 241.5 567 L 238 576.5 L 238 582 L 232.5 583 L 231 580 Q 235.1 581.7 234 577.5 L 239 561 Q 236 562 237 559 Z "></path><path d="M 344.5 562 L 345 564 L 341 563.5 L 344.5 562 Z "></path><path d="M 344.5 567 L 345 569.5 L 344 569.5 L 344.5 567 Z "></path><path d="M 319.5 578 Q 323.3 577.3 324 579.5 L 321.5 583 L 318 581.5 L 319.5 578 Z "></path><path d="M 343.5 579 L 344.5 581 Q 341.7 581.7 343.5 579 Z "></path><path d="M 341.5 589 L 343 592.5 L 341 591.5 L 341.5 589 Z "></path><path d="M 345.5 589 L 346 592.5 L 345 592.5 L 345.5 589 Z "></path></svg>