<svg width="350" height="600" version="1.1" xmlns="http://www.w3.org/2000/svg" desc="Created with imagetracer.js version 1.2.5"><path d="M 30.5 5 L 42.5 7 L 46.5 6 Q 47.7 8.3 52.5 7 L 53.5 6 L 63.5 6 L 64.5 7 L 107.5 7 L 108.5 8 L 113.5 7 L 118.5 8 L 120.5 7 L 122.5 7 Q 127.3 5.8 128.5 8 Q 130 5.5 135.5 7 L 137.5 8 L 140.5 7 Q 142.3 9.8 148.5 8 L 149.5 7 L 163.5 7 L 164.5 8 L 200.5 8 L 201.5 7 L 218.5 7 L 220.5 8 L 221.5 7 L 280.5 7 L 281.5 6 L 282.5 7 L 295.5 7 L 296.5 6 L 336 6 L 336 49.5 L 335 52.5 Q 337.3 53.8 336 58.5 L 335 62.5 L 336 65.5 Q 333.7 66.8 335 71.5 L 336 76.5 L 335 77.5 L 335 89.5 L 336 91.5 L 335 92.5 L 335 142.5 L 334 143.5 L 334 155.5 L 335 157.5 L 334 160.5 L 335 161.5 L 335 191.5 L 336 192.5 L 336 194.5 L 335 197.5 L 336 198.5 L 336 231.5 L 335 233.5 L 336 237.5 L 335 238.5 L 335 254.5 L 334 255.5 L 334 324.5 Q 336.3 325.7 335 330.5 L 334 333.5 L 335 334.5 L 335 392.5 Q 332.8 393.8 334 398.5 L 335 399.5 L 335 408.5 L 335 410.5 L 334 413.5 L 335 415.5 L 334 418.5 L 335 423.5 Q 332.8 424.7 334 429.5 L 336 439.5 L 336 536.5 L 334 537.5 L 334.5 536 Q 331.9 535.2 333 538.5 L 336 539.5 L 336 592.5 L 334.5 594 L 323.5 594 L 322.5 593 L 321.5 594 L 296.5 594 L 295.5 593 L 270.5 593 L 269.5 594 L 257.5 594 L 253.5 593 L 252.5 594 L 243.5 594 L 241.5 594 L 232.5 593 L 229.5 594 L 228.5 593 L 219.5 593 Q 218 595.5 212.5 594 L 210.5 593 L 207.5 594 L 189.5 594 L 186.5 595 L 185.5 594 L 14.5 594 L 9.5 595 Q 6 593 7 586.5 L 8 585.5 L 8 566.5 L 7 565.5 L 7 557.5 L 8 553.5 Q 5.8 552.2 7 547.5 L 8 546.5 L 8 506.5 L 8 504.5 Q 9.2 499.8 7 498.5 L 8 494.5 Q 5.8 493.2 7 488.5 L 8 487.5 L 8 465.5 L 9 464.5 L 8 461.5 L 8 459.5 L 8 233.5 L 7 232.5 L 7 185.5 Q 9.8 183.8 8 177.5 Q 5.8 176.3 7 171.5 L 8 167.5 L 7 163.5 L 8 162.5 L 8 42.5 L 7 38.5 L 8 36.5 L 7 34.5 L 8 32.5 L 7 31.5 L 7 7 L 14.5 6 L 15.5 7 L 24.5 7 L 27.5 6 L 30.5 5 Z M 148 14 L 146 17 L 151 17 L 156 23 L 152 29 L 148 30 L 150 33 Q 160 35 167 32 L 169 32 L 186 32 L 188 33 Q 189 29 187 30 L 185 30 L 178 29 L 183 17 Q 188 18 189 16 L 189 14 L 148 14 Z M 37 22 Q 34 22 34 27 L 25 32 L 13 33 Q 11 31 10 34 Q 9 38 13 39 L 25 39 L 30 36 L 35 51 L 42 64 L 52 72 Q 59 71 58 74 L 65 75 L 67 78 L 66 80 L 67 89 L 73 100 L 72 103 Q 73 107 70 106 L 66 96 Q 67 92 64 93 L 63 98 L 60 99 Q 59 93 63 91 L 63 84 L 59 93 L 56 96 L 60 109 L 66 113 L 67 111 Q 71 106 78 105 L 71 89 L 69 80 L 70 73 L 74 70 L 77 74 L 77 71 L 74 68 Q 68 68 67 71 Q 55 70 49 63 Q 36 54 35 34 L 35 32 L 38 24 L 43 27 L 44 27 L 44 23 Q 42 21 37 22 Z M 313 23 L 310 26 L 311 30 Q 310 32 313 31 L 315 27 L 318 30 L 318 38 L 315 45 L 304 61 L 292 68 Q 286 67 285 70 L 282 70 Q 280 66 274 66 L 271 70 L 272 73 L 274 74 L 273 72 L 275 68 L 278 69 L 279 71 L 281 81 L 277 100 L 267 118 L 261 124 Q 258 123 259 126 L 242 138 L 234 141 Q 231 140 232 143 L 236 145 L 243 145 L 262 133 Q 266 131 265 125 L 273 119 L 274 117 Q 272 115 275 114 L 276 115 L 273 121 Q 274 123 272 122 L 268 126 L 264 135 Q 261 134 262 137 Q 252 144 238 147 L 242 156 L 256 173 L 265 187 L 272 181 L 284 177 L 299 177 L 306 179 L 318 186 L 324 197 Q 325 203 322 206 L 318 209 Q 315 208 316 211 L 325 207 L 326 203 L 326 197 L 323 192 Q 324 185 322 183 L 318 185 L 307 141 L 299 122 L 296 107 L 287 82 Q 288 79 286 80 Q 282 79 283 75 L 292 77 L 293 80 L 292 82 L 298 99 L 299 99 L 294 81 L 297 79 L 299 82 L 300 90 L 304 101 L 304 106 L 301 108 Q 303 123 310 135 L 311 143 L 315 155 L 315 160 L 320 172 L 322 182 L 324 167 L 331 158 L 331 150 L 332 149 L 331 146 L 332 144 L 332 124 L 332 122 L 331 119 L 332 116 L 331 111 L 332 109 L 331 105 L 331 88 L 332 87 L 331 82 L 331 58 L 331 56 L 330 54 L 331 49 L 330 47 L 330 30 Q 329 27 328 29 L 322 29 Q 319 24 313 23 Z M 142 30 L 145 38 L 145 40 L 143 37 L 141 43 L 139 40 L 140 37 L 133 34 L 134 37 Q 135 41 132 40 L 131 37 Q 129 32 123 33 L 124 37 Q 125 40 122 39 L 121 36 L 117 37 L 117 34 L 111 37 L 114 38 L 115 42 L 112 40 L 109 41 L 105 39 L 102 43 Q 104 41 106 45 L 102 45 L 100 43 L 95 48 L 101 48 Q 105 49 104 55 L 108 52 L 107 46 L 109 46 L 110 46 L 110 50 L 115 49 L 114 46 L 116 43 Q 118 44 117 49 L 120 48 L 128 48 L 129 49 L 129 48 L 129 46 Q 128 42 131 43 L 130 49 L 133 50 L 134 52 L 135 50 L 139 47 L 135 53 L 139 57 L 143 56 L 144 54 L 147 52 Q 148 57 143 59 L 143 63 L 139 65 Q 136 64 137 67 L 135 67 L 136 70 L 149 70 L 149 71 Q 145 70 147 75 Q 148 77 153 76 L 156 71 Q 160 70 158 75 L 151 79 L 147 78 L 144 77 L 145 81 L 149 82 L 159 77 L 159 79 Q 154 85 143 85 L 141 83 L 126 74 L 122 74 L 120 70 L 117 72 L 120 74 L 119 76 L 121 79 L 124 80 L 123 79 L 124 76 L 133 89 L 134 95 L 138 102 L 136 105 L 139 106 Q 140 110 142 107 Q 141 104 144 105 Q 148 106 147 111 Q 142 112 140 109 Q 137 108 138 111 L 136 110 L 134 111 L 144 114 L 148 112 Q 150 111 149 114 Q 151 118 158 117 Q 161 116 160 112 L 158 110 L 156 110 L 157 112 L 156 115 L 152 114 L 153 111 L 145 104 L 142 104 L 143 102 L 145 103 L 147 102 L 152 107 Q 161 105 163 111 Q 164 116 161 118 L 161 119 Q 164 118 163 121 L 161 122 L 161 123 Q 163 122 162 125 L 159 127 Q 155 128 156 126 L 159 124 L 159 123 L 155 124 L 152 123 L 150 120 L 156 121 L 160 120 L 152 119 L 148 116 Q 141 118 140 115 L 137 116 L 145 119 L 149 119 L 148 121 Q 141 122 139 118 L 138 120 L 145 124 L 148 123 Q 152 122 150 127 L 156 130 Q 158 135 153 133 L 147 126 Q 142 127 140 124 L 137 125 L 143 128 L 145 127 L 146 129 Q 143 128 144 131 L 149 132 Q 151 131 150 135 L 152 134 L 154 136 L 151 141 L 154 139 Q 153 136 156 137 Q 157 135 158 138 Q 159 140 157 139 L 152 145 Q 150 153 154 157 L 154 155 Q 156 151 158 155 L 159 152 L 161 151 L 160 159 L 163 160 L 162 158 Q 161 151 164 149 Q 163 146 166 147 L 165 145 Q 167 141 169 145 L 171 144 L 173 144 Q 176 143 175 146 L 178 147 L 179 150 L 178 153 L 180 157 L 179 160 L 177 158 L 178 156 L 176 155 Q 175 160 177 162 L 175 165 Q 173 171 176 173 L 172 180 L 173 181 L 181 169 L 182 173 L 184 167 L 183 160 L 180 154 L 181 152 L 181 148 L 178 144 L 173 140 L 166 141 L 163 145 L 159 149 L 158 148 L 154 149 L 153 147 L 154 145 L 159 140 L 166 139 L 167 138 L 166 135 L 161 136 L 160 134 L 161 132 Q 160 129 167 130 L 168 133 L 174 128 Q 171 126 172 123 L 177 125 Q 183 124 182 127 Q 180 130 175 128 L 178 133 L 177 135 L 173 134 L 172 138 L 175 139 L 177 138 Q 184 139 187 145 L 187 147 L 183 151 L 183 157 L 186 161 Q 184 167 187 169 L 186 173 L 179 177 L 179 190 L 181 190 L 180 186 L 181 181 L 187 178 L 189 175 L 187 165 L 193 161 L 194 159 L 194 156 L 190 160 L 188 160 Q 184 158 185 152 L 189 149 L 188 152 Q 187 156 190 157 L 190 156 L 190 154 L 191 148 L 188 146 L 191 137 L 189 137 L 192 135 Q 193 132 189 133 L 189 131 L 196 129 L 195 128 L 195 126 L 201 119 L 201 116 L 199 120 L 188 129 Q 186 131 185 129 L 188 127 L 192 122 L 197 119 L 201 114 L 201 112 L 199 115 L 194 118 L 194 117 Q 193 114 196 115 L 196 113 L 198 113 Q 199 110 197 111 L 195 112 Q 195 107 198 107 L 198 102 L 198 100 Q 197 93 201 92 L 208 86 L 208 88 L 208 89 L 216 85 Q 220 86 219 83 L 216 83 L 226 77 Q 229 78 228 75 L 218 80 Q 215 81 216 78 L 227 73 L 226 71 L 227 66 Q 224 65 225 69 L 207 76 Q 202 84 192 86 L 184 84 L 185 80 L 179 77 L 181 73 L 184 76 L 191 78 L 194 76 L 195 71 L 191 72 L 185 70 L 185 69 L 187 70 L 189 69 L 203 69 L 203 66 L 196 63 Q 195 58 200 55 Q 202 56 201 53 L 207 51 Q 208 47 210 50 L 212 48 L 217 47 L 222 47 L 222 40 L 224 41 L 224 48 L 229 49 L 230 50 L 229 47 Q 228 42 231 41 L 232 46 L 231 49 L 235 50 L 238 46 L 239 47 L 238 53 Q 241 54 240 52 L 243 50 L 242 53 L 243 58 L 254 54 L 253 49 L 251 50 Q 249 47 248 51 L 245 50 Q 246 47 250 48 L 246 41 L 243 39 L 240 41 L 238 44 L 237 44 Q 236 39 239 39 L 238 36 L 234 37 Q 231 36 232 39 L 229 40 L 231 35 L 228 34 L 221 38 L 223 33 L 217 34 L 214 38 Q 215 40 212 39 L 213 35 L 209 34 L 208 39 L 205 39 L 206 34 L 200 36 L 199 43 L 197 42 L 198 40 Q 199 36 195 38 L 197 31 L 188 35 L 170 46 L 156 39 Q 150 33 142 30 Z M 26 41 L 25 42 L 11 42 L 11 112 L 12 113 L 11 116 L 11 178 L 12 179 L 11 181 L 11 188 L 14 192 L 17 201 L 17 216 Q 19 220 25 219 L 26 215 L 22 216 L 19 212 L 20 206 L 25 195 L 38 186 L 52 180 L 50 149 L 49 144 L 45 138 L 42 137 L 29 117 Q 28 108 23 104 L 24 102 Q 23 99 26 100 L 25 98 L 26 93 L 31 94 Q 36 98 38 108 L 40 109 L 40 106 L 37 101 L 37 97 L 34 90 Q 33 84 37 83 L 40 84 L 42 87 Q 45 88 43 83 L 46 81 Q 52 85 55 92 L 60 82 L 60 78 L 50 75 L 42 69 Q 32 58 27 44 Q 28 40 26 41 Z M 94 49 L 90 55 L 97 56 L 100 59 Q 99 56 102 57 L 103 55 L 99 50 L 97 50 Q 95 52 94 49 Z M 255 55 L 248 58 Q 245 59 246 64 L 253 62 L 255 62 L 257 61 L 255 55 Z M 93 57 L 92 58 Q 86 56 87 61 L 85 64 L 88 63 L 93 63 L 96 65 L 97 61 L 93 57 Z M 232 64 L 230 67 L 232 67 L 232 64 Z M 251 64 L 248 67 L 250 72 L 259 69 L 258 66 L 258 64 L 251 64 Z M 87 66 L 83 67 L 84 75 L 89 72 Q 97 75 94 67 Q 92 65 87 66 Z M 230 67 L 227 71 L 234 69 Q 232 65 231 69 L 230 67 Z M 112 69 L 111 72 L 118 75 L 119 75 L 112 69 Z M 256 72 L 252 73 L 249 76 L 251 81 Q 252 78 258 79 L 259 80 L 258 77 L 259 74 L 256 72 Z M 88 75 L 83 79 L 85 86 Q 86 81 92 82 L 93 78 L 93 75 L 88 75 Z M 114 75 L 114 78 L 116 77 L 114 75 Z M 116 77 Q 115 80 119 79 Q 120 76 116 77 Z M 194 77 L 194 79 L 187 80 L 189 83 L 193 82 L 196 78 L 194 77 Z M 200 78 L 197 79 L 196 83 L 198 82 Q 200 83 199 80 L 201 80 Q 202 77 200 78 Z M 120 79 L 120 82 L 119 81 Q 116 80 117 83 Q 124 82 126 87 Q 125 89 128 88 L 126 83 L 120 79 Z M 254 81 L 250 83 L 249 86 L 249 88 L 255 88 L 257 88 Q 259 89 258 85 L 258 83 Q 259 79 254 81 Z M 222 82 Q 220 85 223 84 L 222 82 Z M 46 84 L 46 88 Q 45 91 48 90 L 47 92 Q 45 96 49 95 L 48 97 Q 47 100 50 99 L 49 102 L 49 104 Q 52 103 51 106 L 47 105 L 43 95 Q 44 90 40 92 L 40 89 L 37 87 L 42 101 L 41 103 L 43 103 L 45 108 L 43 112 Q 42 114 38 113 L 31 97 L 29 98 L 31 104 Q 30 107 33 106 L 37 116 L 38 117 L 35 116 L 33 114 L 32 114 L 34 120 L 37 119 L 41 127 L 43 130 L 47 132 L 44 136 L 46 136 L 49 133 L 51 134 L 49 137 Q 48 139 51 138 L 54 133 L 55 136 L 55 134 L 57 134 L 59 133 L 58 139 L 55 141 L 57 141 L 58 141 L 57 145 L 57 147 L 52 150 L 53 152 L 53 150 L 57 149 L 58 152 L 57 155 L 57 156 Q 59 155 58 158 L 54 159 L 55 161 L 59 159 L 58 161 L 59 163 L 56 164 L 56 162 Q 53 161 54 166 L 56 165 L 59 166 L 55 167 L 56 169 L 58 168 L 57 170 L 58 172 L 58 173 Q 60 172 59 175 L 59 179 L 58 180 Q 55 179 56 182 L 58 181 L 60 182 L 56 185 L 57 186 L 60 184 L 59 187 L 60 189 L 56 191 L 59 191 L 60 191 Q 61 195 56 193 Q 55 196 59 195 L 60 195 Q 61 197 58 196 L 59 198 L 61 197 Q 62 201 60 202 Q 56 201 57 204 L 62 203 L 61 205 Q 56 204 57 207 L 61 206 L 62 207 L 59 208 L 57 211 L 62 210 L 61 212 Q 57 211 58 214 L 63 213 L 64 216 L 63 218 L 65 219 L 59 220 L 61 223 L 66 220 L 63 224 Q 60 223 61 226 L 67 223 L 65 226 L 67 226 L 68 226 Q 69 228 67 227 L 64 231 L 70 228 L 70 231 L 67 237 L 72 233 L 73 236 L 72 238 Q 69 237 70 240 L 75 237 L 75 239 L 79 238 L 81 239 L 90 238 L 94 236 L 98 237 L 101 237 L 99 236 L 99 234 L 101 234 Q 100 231 103 232 L 102 229 L 105 231 L 106 231 L 102 226 L 107 229 L 107 227 L 103 223 L 105 222 L 104 221 Q 103 218 106 219 L 105 216 L 110 219 L 107 213 L 111 215 L 109 212 L 110 209 L 111 212 L 113 213 L 113 211 L 109 206 L 111 205 L 113 207 L 111 203 L 114 201 L 113 198 L 115 198 L 115 197 L 115 195 L 114 191 L 115 188 L 113 176 L 109 171 L 111 163 L 111 160 L 115 160 L 115 159 L 118 157 L 118 158 L 120 159 L 120 164 L 116 167 L 118 167 L 116 172 L 118 172 L 117 174 L 118 181 L 120 181 L 118 184 L 119 187 L 119 186 L 121 185 Q 118 187 119 194 L 120 194 Q 119 191 122 192 L 123 198 L 127 197 L 128 200 L 128 198 Q 131 197 130 200 Q 133 201 132 199 L 137 200 L 144 199 L 145 200 Q 144 196 147 197 L 148 200 L 148 197 Q 153 196 151 200 L 156 198 Q 158 197 157 200 L 161 199 L 161 203 L 152 203 L 150 203 L 133 203 L 125 207 L 125 208 Q 128 207 127 210 L 124 211 L 127 211 L 126 213 Q 121 212 123 216 L 126 217 L 123 217 L 124 220 Q 125 222 122 221 L 122 223 L 124 224 L 121 225 L 122 227 L 124 226 L 122 229 Q 121 231 124 230 L 122 233 L 125 233 L 123 236 L 124 237 L 123 241 L 125 240 L 128 242 L 127 245 L 125 244 L 124 246 L 132 251 L 134 254 Q 135 251 138 252 L 136 257 L 139 258 L 142 263 L 144 263 L 143 260 L 146 258 L 147 262 L 149 261 L 150 264 L 153 259 Q 156 258 155 261 L 153 262 L 151 266 L 153 265 Q 152 262 155 263 L 154 268 L 155 270 L 154 272 L 156 273 L 156 266 L 161 266 Q 160 271 164 273 L 165 271 L 166 275 L 168 272 L 171 274 L 170 276 L 171 282 L 171 278 L 173 277 Q 172 280 175 279 L 176 274 Q 182 272 180 278 L 182 279 L 181 277 L 183 273 L 180 272 L 181 265 Q 184 263 180 262 L 182 259 L 184 261 Q 183 264 186 263 L 186 267 L 189 267 L 188 263 Q 191 262 190 265 L 193 265 L 193 267 L 194 267 L 193 264 Q 194 260 190 262 L 192 259 Q 195 258 196 261 L 195 263 L 196 264 Q 198 263 197 260 L 200 261 L 196 256 L 200 254 L 199 258 L 202 259 Q 204 260 203 258 L 206 259 L 205 255 L 209 253 L 210 255 L 210 252 L 212 252 L 211 250 L 212 248 L 215 249 L 214 246 L 216 242 L 218 243 L 218 241 L 220 241 L 218 238 L 219 235 L 217 231 L 219 232 L 219 230 L 216 228 Q 215 225 218 226 L 219 227 Q 220 224 218 225 L 215 222 L 216 221 L 215 218 L 217 219 Q 219 220 218 217 L 213 215 L 216 214 L 217 215 L 215 211 Q 212 212 213 209 L 215 209 L 213 205 L 215 205 L 214 203 L 193 201 L 192 200 L 188 202 L 182 201 L 183 196 L 185 197 Q 186 194 188 198 L 190 197 Q 191 199 193 196 Q 195 195 194 198 L 196 197 L 203 199 L 203 198 L 205 198 L 207 197 L 208 199 L 210 196 L 211 198 L 211 196 Q 214 195 213 198 L 215 198 L 214 196 L 217 195 L 215 194 L 217 190 L 216 188 L 217 181 L 219 178 L 224 174 Q 226 173 225 169 L 229 166 L 227 177 L 224 178 Q 224 183 221 185 L 221 188 L 223 187 L 223 193 L 224 193 Q 222 187 226 188 L 227 195 L 227 194 L 230 192 L 228 197 L 229 205 L 233 196 L 234 197 L 232 201 L 233 206 L 234 199 L 237 200 L 234 207 L 235 211 L 236 205 L 239 203 L 237 208 L 238 213 L 240 207 L 242 206 L 240 213 L 242 216 L 244 210 Q 243 207 246 208 L 243 219 L 245 219 L 246 214 L 248 213 L 246 219 L 247 221 L 249 216 L 251 215 L 249 219 L 250 223 L 250 221 L 253 219 L 251 223 L 252 225 L 255 221 L 255 224 Q 258 225 256 227 L 259 227 L 258 233 L 262 252 L 264 255 L 264 258 Q 267 257 266 260 L 269 260 L 269 262 L 267 263 Q 269 266 271 262 L 271 264 Q 267 265 271 267 L 274 266 L 273 271 L 276 270 L 275 272 L 277 272 L 276 276 L 279 275 L 278 278 Q 277 280 280 279 L 281 279 L 280 281 L 281 282 L 283 281 L 284 281 L 284 283 Q 281 282 282 285 L 286 284 Q 287 287 284 286 L 284 289 L 287 288 L 285 291 L 286 293 L 289 291 Q 290 294 287 293 L 288 295 L 290 294 L 290 296 Q 287 295 288 298 L 290 297 L 290 299 L 290 301 Q 291 303 288 302 L 290 310 L 289 319 L 287 322 L 292 331 Q 291 334 294 333 L 292 329 L 293 324 L 292 322 L 294 322 Q 296 323 295 321 L 295 319 L 301 319 L 308 323 L 309 326 Q 308 328 311 327 L 313 331 L 315 332 L 312 325 Q 314 319 309 321 L 308 319 Q 309 314 305 316 L 305 313 L 308 312 L 311 314 L 312 315 Q 311 312 314 313 L 314 311 L 311 312 L 309 309 L 311 306 L 310 306 L 309 303 L 307 302 L 303 303 L 302 302 L 302 300 Q 304 301 303 299 L 302 299 L 299 299 L 302 297 Q 304 298 303 296 L 302 296 Q 297 297 299 293 L 301 293 L 300 292 L 302 289 L 300 288 L 300 287 Q 302 288 301 285 L 298 286 L 300 283 L 300 280 L 297 281 Q 296 278 300 279 L 300 277 L 298 278 L 300 275 L 299 274 L 297 275 L 299 271 L 296 270 L 299 268 L 298 267 L 298 266 L 297 265 L 298 263 L 298 261 L 295 262 Q 294 259 297 260 Q 298 257 296 258 L 296 257 Q 297 253 295 254 L 295 253 L 290 239 L 286 234 Q 287 230 285 231 L 286 229 L 284 225 L 281 226 L 282 222 L 278 219 L 275 211 L 272 209 L 272 207 L 270 207 L 270 202 L 268 202 Q 269 197 265 196 Q 266 193 264 194 L 261 192 Q 262 186 259 184 L 251 172 L 249 173 L 248 170 L 246 171 L 245 169 L 243 169 L 244 167 L 242 166 L 241 160 L 233 148 L 230 147 Q 231 144 228 145 L 228 143 L 226 144 L 226 143 Q 227 140 224 141 L 224 143 L 223 140 L 220 140 Q 221 143 218 142 L 218 140 L 216 143 L 214 143 L 216 140 L 213 142 Q 214 144 211 143 L 213 140 L 212 139 L 210 142 L 208 143 L 209 141 Q 210 137 207 138 Q 208 142 206 143 L 205 142 L 204 142 Q 205 144 202 143 L 202 141 L 201 143 L 200 142 L 197 156 L 194 163 Q 193 167 195 169 L 194 175 L 190 179 L 187 179 L 183 184 Q 182 188 184 190 L 183 193 Q 184 196 182 195 L 178 191 L 176 190 L 177 194 L 176 198 L 178 197 L 181 199 L 180 201 L 178 200 Q 175 201 176 199 L 174 200 L 170 197 Q 171 193 169 194 L 163 189 L 159 182 Q 157 175 160 174 L 160 171 L 154 171 L 150 166 Q 151 163 149 164 L 143 156 Q 142 147 145 144 Q 146 139 142 141 L 142 138 L 140 139 L 138 140 L 139 138 L 138 137 L 136 137 Q 132 136 134 140 Q 131 141 132 137 L 131 137 L 127 136 L 128 140 Q 125 141 126 137 L 124 137 L 125 140 L 123 140 L 123 138 L 122 140 L 120 138 L 119 142 L 117 140 L 115 139 L 116 142 L 116 144 L 114 140 L 112 141 L 113 144 L 111 145 L 110 144 L 108 143 L 109 146 L 105 144 L 107 147 L 107 149 L 105 148 L 102 149 L 103 152 L 101 152 Q 102 154 99 153 L 99 155 L 99 159 L 97 159 L 97 162 L 97 164 L 97 165 L 95 164 L 95 166 Q 96 172 92 173 L 94 178 L 92 178 L 93 180 L 91 180 L 91 178 L 89 182 L 92 187 Q 91 193 94 196 Q 95 204 92 209 L 88 210 L 90 205 L 87 206 L 89 202 L 89 199 L 88 201 L 86 202 L 87 197 L 87 194 L 86 196 L 84 197 L 86 193 L 86 187 L 85 191 L 83 192 L 84 189 L 83 182 L 82 182 L 81 176 L 80 178 L 79 174 L 78 174 L 76 172 L 77 169 L 76 169 L 75 168 L 73 168 L 74 165 L 73 163 L 74 161 L 71 162 L 73 159 L 72 159 Q 69 160 70 158 L 70 156 L 68 155 L 66 152 L 69 150 L 70 148 L 66 150 L 64 146 L 65 144 Q 61 145 62 143 L 65 141 L 63 140 Q 61 136 65 137 L 64 136 L 65 134 L 64 130 L 67 131 L 70 125 L 70 120 L 74 111 L 77 110 L 76 107 L 73 111 Q 74 113 71 112 L 71 114 Q 68 113 67 116 Q 64 115 65 118 Q 64 120 63 118 L 59 121 L 60 130 L 57 131 Q 55 128 56 122 L 54 121 L 49 124 L 49 126 L 53 131 L 51 132 L 46 126 L 42 127 L 43 125 L 41 121 L 44 119 L 45 122 L 50 119 L 52 119 Q 53 116 50 117 Q 49 114 52 115 L 53 116 Q 52 113 55 114 L 55 112 L 59 112 L 56 110 L 56 105 L 48 85 L 46 84 Z M 89 85 L 85 88 L 85 90 L 84 96 L 90 93 L 93 93 L 92 88 Q 93 83 89 85 Z M 121 85 L 120 87 L 123 87 L 121 85 Z M 124 87 L 125 90 L 122 89 Q 121 92 124 91 Q 127 93 124 94 L 121 93 L 120 95 L 128 96 L 127 90 L 124 87 Z M 215 88 L 213 89 L 213 90 L 216 89 L 215 88 Z M 248 90 L 247 96 L 256 97 L 257 94 L 257 90 L 248 90 Z M 130 91 L 129 95 L 132 97 L 130 91 Z M 210 91 L 207 92 L 206 96 L 212 94 L 213 92 L 211 93 L 210 91 Z M 200 94 L 199 97 L 200 99 L 202 95 L 200 94 Z M 89 95 L 88 97 L 84 99 L 88 105 L 95 101 L 93 95 L 91 96 L 89 95 Z M 213 95 L 208 97 L 206 97 L 201 102 L 203 105 L 208 102 Q 212 103 211 100 L 206 102 Q 203 103 204 101 L 213 97 L 214 98 Q 215 94 213 95 Z M 126 97 L 127 100 L 126 102 L 131 103 L 132 103 L 131 99 L 126 97 Z M 133 97 L 132 99 L 134 100 L 133 97 Z M 247 98 L 246 102 Q 247 104 249 102 L 251 104 L 244 104 L 240 116 Q 239 122 241 124 L 246 123 L 249 119 L 253 109 L 253 105 Q 257 105 255 99 L 247 98 Z M 123 99 L 123 101 L 126 101 L 123 99 Z M 122 100 Q 120 103 123 102 L 122 100 Z M 26 102 L 30 112 L 32 113 L 28 104 L 26 102 Z M 95 103 L 89 107 L 90 114 L 97 126 L 101 127 L 103 122 L 96 106 Q 97 102 95 103 Z M 208 103 L 205 105 L 205 106 L 211 105 Q 212 102 208 103 Z M 133 104 L 131 106 L 136 108 L 133 104 Z M 81 110 L 79 111 L 76 116 Q 75 119 80 117 L 89 129 Q 88 131 91 130 L 91 132 L 102 138 Q 104 137 103 140 L 108 138 Q 110 139 109 136 Q 101 135 96 129 L 82 113 Q 83 109 81 110 Z M 206 110 L 203 111 L 202 114 L 203 115 L 205 114 L 206 112 L 206 110 Z M 76 117 L 75 124 L 70 133 Q 74 156 85 174 Q 84 176 87 175 L 88 172 Q 87 168 90 169 Q 89 165 92 164 L 93 154 L 98 146 L 102 141 Q 98 142 99 140 L 98 140 L 91 136 L 78 123 L 76 117 Z M 56 118 L 54 120 L 56 120 L 57 121 L 56 118 Z M 203 120 L 201 123 L 203 122 L 203 120 Z M 199 129 L 201 132 L 201 131 L 199 129 Z M 198 132 L 196 134 Q 195 136 198 135 L 199 139 L 200 139 Q 201 133 198 132 Z M 43 133 L 43 135 L 45 134 L 43 133 Z M 146 133 Q 145 136 148 135 Q 149 132 146 133 Z M 196 136 L 195 143 L 197 144 Q 198 137 196 136 Z M 146 137 Q 144 140 147 139 L 146 137 Z M 193 144 Q 191 148 194 150 L 193 155 L 195 154 Q 197 146 193 144 Z M 148 145 L 146 149 L 147 158 L 151 161 Q 147 155 148 145 Z M 167 150 L 165 153 L 167 156 L 168 153 L 170 153 L 170 151 L 167 150 Z M 71 151 L 69 153 L 71 153 L 71 151 Z M 174 152 L 171 155 L 173 158 L 175 155 L 174 152 Z M 55 153 L 54 155 L 56 154 L 55 153 Z M 54 156 L 54 158 L 56 157 L 54 156 Z M 155 158 Q 151 160 153 167 L 156 169 L 154 164 L 156 161 Q 157 157 155 158 Z M 169 158 L 167 165 L 171 173 L 172 173 L 171 167 L 169 163 L 170 161 L 169 158 Z M 174 160 L 173 163 L 174 163 L 174 160 Z M 161 163 L 159 166 Q 158 169 161 168 L 162 169 L 161 163 Z M 192 165 L 192 175 L 193 173 Q 194 167 192 165 Z M 163 169 L 164 172 L 160 180 Q 159 182 162 181 L 164 176 L 166 175 L 165 177 L 167 181 Q 168 178 171 179 L 172 177 L 172 174 L 171 176 L 168 177 L 167 172 Q 166 168 163 169 Z M 176 180 L 174 182 L 175 187 L 176 187 L 176 180 Z M 172 181 L 171 185 L 172 185 L 172 181 Z M 166 183 L 164 185 L 167 190 L 173 195 Q 172 197 175 196 L 175 192 L 173 188 L 166 183 Z M 57 187 L 57 188 L 59 188 L 57 187 Z M 88 190 L 87 193 L 88 193 L 88 190 Z M 226 195 L 225 200 L 226 200 L 226 195 Z M 57 199 L 57 201 L 60 200 L 57 199 Z M 114 207 Q 112 210 115 209 L 114 207 Z M 61 215 L 58 216 L 59 218 L 63 216 L 61 215 Z M 107 219 L 106 221 L 109 223 L 107 219 Z M 255 224 L 253 226 L 255 226 L 255 224 Z M 297 233 L 294 235 L 292 234 L 291 236 L 299 235 L 300 240 L 298 241 L 300 242 L 296 243 L 301 261 L 303 260 L 301 263 Q 300 265 303 264 L 304 264 L 302 267 L 304 267 Q 305 269 302 268 Q 301 271 304 270 L 303 274 L 305 274 L 303 277 Q 302 279 305 278 L 306 280 Q 303 279 304 282 L 306 281 L 304 284 Q 303 286 306 285 L 307 285 Q 308 287 305 286 L 306 288 L 308 287 L 306 276 L 307 274 L 304 256 L 301 256 L 304 255 L 303 247 L 299 249 Q 298 246 302 247 L 302 245 L 298 245 L 303 243 L 301 237 Q 303 231 297 233 Z M 102 234 L 104 236 Q 105 233 102 234 Z M 295 237 Q 293 241 296 243 L 298 242 L 296 241 L 295 237 Z M 95 239 L 95 241 L 92 240 L 85 241 L 87 242 L 95 243 L 97 243 L 100 243 L 95 239 Z M 102 240 L 101 243 L 104 244 L 105 245 Q 106 242 103 243 L 102 240 Z M 246 241 L 243 245 L 242 244 L 241 246 L 239 246 Q 240 243 238 244 L 238 246 L 238 247 L 236 245 L 233 243 L 234 246 L 234 248 L 231 244 L 230 248 L 228 245 L 227 249 L 225 247 L 223 250 L 224 253 L 223 253 Q 224 250 221 251 L 220 254 Q 221 257 218 256 L 216 263 L 216 268 L 217 268 Q 216 264 220 266 L 219 264 L 220 259 Q 221 255 225 256 L 224 259 L 225 260 L 226 258 L 239 248 Q 241 247 240 252 L 234 254 Q 229 256 232 258 L 230 262 L 232 262 L 228 269 L 228 272 L 230 271 Q 229 267 232 268 L 231 271 L 232 275 L 230 276 Q 227 277 228 281 Q 227 283 226 281 L 223 282 L 221 281 L 220 271 L 218 272 L 220 278 L 219 280 L 217 281 L 220 283 Q 222 287 218 286 L 219 288 L 227 283 L 229 283 Q 227 288 231 287 L 230 285 L 232 280 L 236 279 Q 239 281 235 283 L 237 283 Q 238 279 240 282 L 241 272 L 243 272 L 243 271 L 243 269 L 245 270 Q 247 271 246 268 L 249 266 L 250 267 L 249 264 L 243 267 L 239 271 L 238 277 L 237 278 L 234 277 L 236 270 L 234 266 L 236 261 Q 235 258 238 259 L 238 257 L 246 254 L 246 247 L 249 247 L 249 245 Q 251 246 250 242 L 246 241 Z M 107 242 L 107 246 L 111 248 L 112 251 L 113 251 Q 112 248 115 249 L 116 251 L 117 249 Q 118 246 114 247 Q 112 249 111 247 Q 112 244 109 245 L 109 243 L 107 242 Z M 84 243 L 74 248 L 76 251 L 81 249 L 84 250 L 87 249 L 87 248 Q 81 250 82 246 L 86 245 L 90 246 L 91 246 Q 90 242 84 243 Z M 250 245 L 249 255 L 239 261 L 241 261 Q 244 263 240 265 L 241 266 L 245 264 L 243 263 L 244 261 L 249 258 L 250 261 L 249 263 Q 248 265 251 264 L 252 262 L 251 258 Q 250 254 253 253 L 254 253 L 254 250 Q 257 251 256 249 L 250 245 Z M 92 246 L 88 249 L 88 251 L 87 253 L 89 256 L 89 257 L 84 254 Q 82 250 80 254 L 86 256 L 89 259 L 90 258 L 95 260 L 96 260 L 89 254 Q 91 249 93 252 L 96 251 L 95 247 L 92 246 Z M 100 247 L 102 250 L 109 254 L 110 254 Q 107 248 100 247 Z M 256 250 L 254 254 L 257 263 L 258 260 L 256 256 L 258 253 Q 259 249 256 250 Z M 71 252 L 71 253 L 73 253 L 71 252 Z M 98 252 L 102 258 L 101 259 L 107 264 L 105 261 L 107 258 L 98 252 Z M 118 252 L 117 254 L 119 255 L 118 252 Z M 128 253 Q 126 256 129 255 L 128 253 Z M 259 253 L 258 257 L 260 256 L 259 253 Z M 67 256 L 64 260 L 66 260 L 67 258 L 67 256 Z M 70 256 L 70 257 L 75 259 L 77 259 Q 85 260 89 265 L 89 264 L 78 257 Q 76 255 75 258 Q 74 255 70 256 Z M 261 257 L 261 263 L 262 263 L 261 257 Z M 213 258 L 210 261 L 213 262 L 214 259 L 213 258 Z M 70 259 Q 69 263 72 264 L 73 261 L 70 259 Z M 119 259 L 115 260 L 120 268 L 121 268 L 118 264 L 119 262 L 119 259 Z M 229 259 L 227 262 L 229 261 L 229 259 Z M 97 260 Q 95 263 98 262 L 97 260 Z M 124 260 L 123 264 L 128 270 L 130 270 L 124 260 Z M 78 262 L 77 266 L 83 266 L 83 264 L 78 262 Z M 99 262 Q 97 264 100 266 L 99 268 Q 100 270 98 269 L 96 266 L 93 270 L 95 272 Q 97 273 96 270 L 100 271 Q 104 273 103 269 L 104 268 L 99 262 Z M 227 262 L 226 265 L 227 265 L 227 262 Z M 230 262 L 228 265 L 230 264 L 230 262 Z M 212 263 L 210 267 L 211 270 L 212 268 L 212 263 Z M 184 264 L 185 275 L 186 275 L 186 271 L 184 264 Z M 257 264 L 257 267 L 255 271 L 257 271 L 258 273 L 258 271 L 258 269 Q 259 265 257 264 Z M 71 265 L 71 272 Q 69 273 72 274 L 73 267 L 71 265 Z M 90 265 Q 88 268 91 267 L 90 265 Z M 140 265 L 139 267 L 142 272 L 142 279 L 146 292 L 146 284 L 147 283 L 143 272 L 144 269 L 140 265 Z M 207 265 L 205 269 Q 204 274 207 275 L 207 271 L 207 269 L 207 265 Z M 226 265 L 224 269 L 225 275 L 227 274 L 226 265 Z M 85 266 L 84 269 L 88 270 L 85 266 Z M 122 268 L 121 270 L 124 272 L 122 268 Z M 213 268 L 212 271 L 213 271 L 213 268 Z M 190 269 L 188 272 L 189 273 L 191 272 L 190 269 Z M 76 270 L 76 272 L 81 275 L 84 275 L 87 279 Q 89 280 88 277 Q 91 275 98 276 L 99 275 L 98 272 L 97 274 Q 96 276 95 274 Q 91 275 93 271 L 90 271 L 90 273 L 89 275 Q 82 276 81 272 Q 78 273 79 270 L 76 270 Z M 136 271 L 135 274 L 136 274 L 136 271 Z M 125 272 L 124 274 L 126 275 L 125 272 Z M 161 272 L 160 274 L 158 275 Q 160 278 161 275 L 161 272 Z M 203 272 L 202 275 L 203 275 L 203 272 Z M 265 273 L 264 278 L 265 278 L 265 273 Z M 137 274 L 135 279 L 136 282 L 137 280 L 137 274 Z M 198 274 L 198 281 L 202 284 L 198 278 L 198 274 Z M 105 276 L 104 278 L 106 279 L 105 276 Z M 111 277 L 109 280 L 107 281 L 110 284 L 110 282 L 112 282 L 111 277 Z M 215 277 L 214 279 L 217 280 L 215 277 Z M 165 278 L 164 281 L 165 281 L 165 278 Z M 178 278 L 177 281 L 178 281 L 178 278 Z M 244 279 L 243 284 L 244 284 L 244 279 Z M 248 279 L 248 280 L 250 280 L 248 279 Z M 210 280 L 209 282 L 212 283 L 210 280 Z M 89 281 L 89 282 L 91 282 L 89 281 Z M 156 281 L 154 285 L 155 286 L 158 285 L 156 281 Z M 193 281 L 193 286 L 194 286 Q 195 282 193 281 Z M 251 281 L 250 282 Q 247 281 248 284 L 251 283 L 251 281 Z M 101 282 L 100 284 L 96 283 L 98 286 L 101 285 L 101 282 Z M 172 282 Q 171 285 174 284 Q 175 281 172 282 Z M 178 282 L 178 285 L 175 286 L 176 289 L 180 286 Q 181 281 178 282 Z M 187 282 L 184 285 L 186 287 L 187 284 L 187 282 Z M 264 282 L 263 285 L 264 285 L 264 282 Z M 271 282 L 270 286 L 271 286 L 271 282 Z M 67 283 Q 65 286 69 287 L 71 286 L 67 283 Z M 164 283 L 159 289 L 160 290 L 165 285 L 164 283 Z M 170 283 Q 170 286 168 285 Q 166 283 165 286 L 166 289 L 170 286 L 170 283 Z M 213 283 L 214 285 Q 215 282 213 283 Z M 132 284 L 131 288 L 132 288 L 132 284 Z M 210 284 L 211 290 L 211 288 Q 214 286 210 284 Z M 255 284 L 254 287 L 254 289 Q 252 295 256 297 L 255 299 L 259 297 L 257 288 L 255 284 Z M 102 285 L 102 289 Q 107 290 108 296 L 108 292 L 106 290 L 102 285 Z M 114 285 Q 113 288 116 287 Q 117 284 114 285 Z M 140 285 L 139 291 L 141 291 L 140 285 Z M 240 285 L 236 290 L 240 291 L 238 291 L 236 291 L 232 292 L 230 293 L 231 291 L 229 290 L 230 295 L 233 293 L 241 292 Q 243 291 242 287 L 245 287 L 240 285 Z M 250 285 L 249 287 L 251 286 L 250 285 Z M 89 287 Q 89 291 96 291 L 98 294 Q 100 293 99 296 L 98 298 L 103 296 L 98 290 Q 99 287 96 288 L 96 290 L 89 287 Z M 191 287 L 190 290 L 191 290 L 191 287 Z M 198 287 L 198 295 L 199 295 Q 200 289 198 287 Z M 226 287 L 224 288 L 222 291 L 221 290 L 217 292 L 216 297 Q 214 301 213 298 L 211 308 L 204 315 L 206 318 L 205 322 L 201 324 L 203 319 L 203 317 L 199 322 L 198 327 Q 197 330 200 329 L 201 332 Q 202 337 198 339 L 200 346 L 199 350 Q 198 352 194 351 L 191 358 L 191 362 L 187 374 L 178 389 Q 175 388 176 391 L 173 393 L 174 396 L 173 396 Q 170 397 172 399 L 170 402 L 171 403 L 175 397 L 178 398 L 177 397 L 178 395 L 183 399 L 183 397 L 179 394 L 180 392 L 184 395 Q 186 396 185 393 L 182 392 L 183 390 L 188 394 L 188 393 L 185 390 L 183 387 L 189 391 L 190 391 L 183 385 L 184 383 L 191 389 L 191 387 L 186 383 Q 185 380 188 381 L 188 379 L 190 379 L 192 381 L 191 379 L 193 374 L 196 373 L 196 375 L 198 374 L 194 371 L 195 369 L 197 370 Q 198 374 200 371 L 196 368 L 197 366 L 195 363 L 197 362 L 198 363 L 198 360 Q 201 361 200 359 L 200 357 L 202 358 L 200 354 L 205 356 L 204 353 L 208 355 L 206 353 L 208 352 Q 209 356 211 353 L 207 350 L 208 348 L 215 353 L 215 352 L 211 348 L 211 347 L 210 344 L 214 342 L 215 345 L 216 343 L 214 339 L 219 342 L 213 336 L 215 335 L 219 339 L 215 334 L 217 331 Q 215 329 218 328 L 223 332 L 218 327 L 219 325 L 222 327 L 223 330 L 226 332 L 224 328 L 221 325 L 221 323 L 223 318 L 226 316 L 227 315 L 229 317 Q 224 310 223 301 L 222 301 L 217 301 Q 218 297 222 298 Q 221 291 226 289 L 226 287 Z M 307 288 L 305 290 L 306 292 L 308 291 Q 309 287 307 288 Z M 74 289 L 70 292 L 73 293 L 74 291 L 74 289 Z M 214 289 L 214 291 L 216 290 L 214 289 Z M 227 289 L 225 294 L 226 298 L 229 299 L 230 300 Q 231 296 228 297 L 227 289 Z M 54 290 L 51 296 Q 52 302 56 305 L 55 307 L 54 305 L 53 308 L 59 306 L 59 305 Q 56 306 57 303 L 60 304 L 62 301 Q 64 302 63 299 L 60 300 Q 57 301 58 298 L 56 298 L 54 290 Z M 138 290 L 137 296 L 136 295 L 135 295 Q 136 298 133 297 L 133 295 L 132 300 Q 134 304 140 303 L 139 298 L 139 296 L 138 290 Z M 162 290 L 162 294 L 166 293 L 162 290 Z M 171 290 L 168 293 L 167 298 Q 170 299 168 305 L 170 306 L 169 304 L 169 294 L 171 292 L 171 290 Z M 185 290 L 184 294 L 185 294 L 185 290 Z M 212 290 L 211 295 L 213 294 L 212 290 Z M 261 290 L 261 295 L 262 295 L 261 290 Z M 123 291 L 123 295 L 124 295 L 123 291 Z M 205 291 Q 203 296 206 299 L 207 299 L 205 291 Z M 244 291 L 244 293 L 244 294 L 240 294 L 240 296 L 244 297 L 245 293 L 247 293 L 244 291 Z M 263 291 L 262 296 L 263 298 L 265 299 L 264 297 L 265 294 Q 266 290 263 291 Z M 270 291 L 267 296 Q 266 298 269 297 L 270 293 L 270 291 Z M 309 291 L 307 293 L 308 300 L 312 301 L 313 299 L 311 298 L 309 299 L 310 297 Q 311 294 309 295 L 309 294 L 309 291 Z M 113 292 Q 111 295 114 294 L 113 292 Z M 83 293 L 83 295 L 83 298 L 79 302 Q 80 305 84 304 L 86 300 L 85 295 L 83 293 Z M 127 293 Q 127 296 125 295 L 126 298 L 125 299 L 127 299 L 128 297 L 127 293 Z M 180 293 L 178 296 L 184 308 L 186 309 L 180 298 L 180 293 Z M 249 293 L 247 295 L 248 296 L 251 295 Q 252 292 249 293 Z M 153 294 L 151 298 L 153 297 L 153 294 Z M 174 294 L 173 299 L 174 299 L 174 294 Z M 233 295 Q 232 299 235 298 L 236 301 L 237 298 Q 238 293 233 295 Z M 149 296 L 148 299 L 149 299 L 149 296 Z M 163 296 L 160 297 Q 159 301 162 300 L 163 306 L 164 306 L 163 296 Z M 195 296 Q 192 300 196 299 L 195 296 Z M 251 296 L 251 298 L 254 299 L 254 298 L 251 296 Z M 261 296 L 261 299 Q 264 298 261 296 Z M 63 297 L 63 299 L 66 298 L 63 297 Z M 74 297 L 73 299 L 71 298 L 66 299 L 70 301 L 68 301 L 69 303 L 74 300 L 76 301 L 78 301 L 74 299 L 74 297 Z M 124 297 L 123 300 L 125 301 L 124 297 Z M 246 297 L 242 301 L 244 303 L 244 302 Q 249 299 246 297 Z M 249 297 L 247 300 L 248 301 L 250 300 L 251 301 L 249 297 Z M 95 298 L 92 299 L 90 302 L 97 299 L 95 298 Z M 105 298 L 103 301 Q 100 300 101 303 L 106 301 L 105 298 Z M 114 298 Q 111 299 112 303 L 108 304 L 108 302 L 106 303 L 106 304 Q 108 303 107 306 L 107 308 L 106 311 L 102 308 L 100 309 L 98 313 L 101 314 L 102 317 Q 103 319 100 318 L 100 320 L 105 319 L 102 314 Q 103 311 101 312 L 101 311 L 104 313 L 109 312 Q 110 315 107 314 L 109 318 Q 110 314 116 314 Q 120 315 119 320 Q 116 321 115 318 L 109 321 L 107 324 L 106 324 Q 107 320 105 321 L 101 326 L 101 327 Q 104 328 103 325 Q 106 324 105 327 L 105 328 L 108 327 Q 109 325 110 328 Q 111 332 108 331 L 106 336 L 110 333 Q 112 332 111 336 L 116 337 L 115 339 L 117 342 L 119 345 L 122 346 L 123 350 Q 125 354 127 351 Q 129 352 128 349 L 132 346 L 133 353 L 131 354 L 129 354 Q 128 356 131 355 L 130 358 L 133 357 Q 135 356 134 360 L 129 363 L 130 364 L 135 361 L 135 364 L 139 365 L 135 367 L 135 368 L 141 366 L 140 369 L 141 371 L 139 372 Q 136 371 137 374 L 141 372 L 143 373 L 141 377 L 142 377 Q 141 374 144 375 L 144 377 L 146 376 L 146 379 L 146 381 L 148 381 L 148 373 L 145 370 L 143 365 L 143 359 L 138 349 Q 137 343 139 342 L 132 320 L 122 305 L 114 298 Z M 204 298 L 199 301 L 200 305 L 200 302 L 204 300 L 204 298 Z M 100 299 L 98 301 L 100 301 L 100 299 Z M 197 299 L 196 304 L 197 304 L 197 299 Z M 260 299 L 258 301 Q 257 303 260 302 L 260 299 Z M 267 299 L 267 304 L 268 302 L 267 299 Z M 238 300 L 236 303 L 238 302 L 238 300 Z M 125 301 L 128 306 L 128 304 L 130 304 L 125 301 Z M 228 301 L 227 305 L 228 305 L 228 301 Z M 257 301 L 254 305 L 252 305 L 252 310 L 254 310 Q 253 307 256 308 L 258 305 L 257 301 Z M 263 301 L 264 303 Q 265 300 263 301 Z M 94 302 L 93 303 Q 90 302 91 305 L 95 303 L 94 302 Z M 231 302 L 230 305 L 231 305 L 231 302 Z M 66 303 L 66 308 L 68 307 Q 69 302 66 303 Z M 76 303 Q 75 306 78 305 Q 79 302 76 303 Z M 160 303 L 160 307 L 162 307 L 160 303 Z M 240 303 L 237 305 L 233 310 L 237 309 L 238 311 L 239 318 L 241 317 L 242 320 L 244 319 L 247 320 L 246 322 L 244 321 L 245 324 L 243 325 Q 240 324 241 327 L 247 326 L 250 324 L 248 327 Q 249 329 246 328 L 245 333 L 247 336 L 247 339 L 244 335 L 242 336 L 242 341 L 240 341 L 240 345 Q 244 346 244 351 L 246 350 L 247 346 L 255 341 L 257 342 Q 261 340 257 338 Q 256 332 258 331 L 256 320 L 259 316 L 254 315 L 257 314 Q 260 312 260 308 L 261 306 Q 258 305 259 309 L 256 310 L 253 314 Q 250 313 252 312 L 249 308 L 250 306 L 245 305 L 247 309 L 246 311 Q 245 313 242 312 L 240 309 L 243 307 L 244 305 L 241 305 Q 242 302 240 303 Z M 96 304 L 94 306 Q 91 305 92 308 L 98 306 L 96 304 Z M 142 304 L 142 306 L 142 308 Q 141 312 145 310 L 144 307 Q 145 303 142 304 Z M 154 304 L 153 307 L 155 308 L 154 304 Z M 206 304 L 205 306 L 207 307 L 206 304 Z M 265 304 L 263 306 L 262 312 L 265 314 L 264 310 L 265 307 L 265 304 Z M 88 305 L 88 308 L 89 308 Q 90 304 88 305 Z M 135 305 L 135 308 L 136 308 Q 137 304 135 305 Z M 138 305 L 138 308 L 139 308 Q 140 304 138 305 Z M 150 305 L 149 307 L 153 310 L 150 305 Z M 198 305 L 197 310 L 199 311 L 198 305 Z M 229 305 L 228 310 L 229 310 L 229 305 Z M 313 305 L 313 308 L 317 309 L 315 307 Q 316 304 313 305 Z M 83 306 L 83 311 L 85 310 L 83 306 Z M 100 306 L 95 309 Q 91 308 93 312 L 92 312 L 90 315 L 93 313 Q 95 314 94 312 L 101 307 L 100 306 Z M 171 306 Q 169 309 172 308 L 171 306 Z M 179 307 Q 177 312 180 315 L 183 316 L 179 307 Z M 274 307 L 273 309 L 275 310 L 274 307 Z M 58 308 L 58 309 L 60 309 L 58 308 Z M 68 308 L 68 309 L 70 309 L 68 308 Z M 89 308 L 89 310 L 88 312 L 92 309 L 89 308 Z M 156 308 L 156 313 L 157 313 L 156 308 Z M 166 308 L 164 311 L 166 314 L 169 316 L 166 308 Z M 71 309 L 70 314 L 65 314 L 66 311 L 62 314 L 63 316 L 60 320 L 61 326 L 61 328 Q 62 330 60 329 L 60 330 Q 62 329 61 333 Q 57 335 61 337 Q 60 339 63 338 L 64 342 L 66 341 L 77 347 L 83 346 L 80 340 L 76 338 Q 77 335 74 336 L 74 331 Q 70 332 68 329 Q 65 330 66 327 Q 69 326 71 329 L 75 328 L 80 319 L 80 321 L 83 320 Q 79 319 80 313 L 79 313 Q 80 317 76 315 L 75 320 Q 76 322 72 321 L 72 322 Q 76 321 75 324 L 72 325 L 74 325 L 73 327 Q 69 328 71 324 L 68 324 Q 67 321 70 322 L 72 318 L 74 319 L 73 314 L 74 312 L 77 310 L 77 309 L 73 310 L 71 309 Z M 187 309 L 188 314 Q 187 318 190 317 Q 191 312 187 309 Z M 318 309 L 317 311 L 319 312 L 318 309 Z M 137 310 L 136 312 L 144 323 L 145 323 L 143 316 L 137 310 Z M 60 311 L 59 312 Q 56 311 57 314 L 60 313 L 60 311 Z M 231 311 L 231 315 L 233 316 Q 233 312 231 311 Z M 277 311 L 279 316 L 279 313 L 277 311 Z M 84 312 L 81 314 Q 83 317 84 314 L 84 312 Z M 148 312 Q 148 315 145 314 L 147 322 L 148 322 L 147 316 L 149 316 L 148 312 Z M 53 313 L 51 315 L 52 316 L 55 315 Q 56 312 53 313 Z M 178 313 L 178 319 L 180 318 L 178 313 Z M 161 314 L 160 316 L 159 315 L 157 321 L 160 319 Q 159 316 162 317 L 161 314 Z M 236 314 Q 234 319 238 322 L 239 322 L 236 314 Z M 261 314 L 262 315 L 263 316 Q 264 313 261 314 Z M 277 314 L 276 320 L 277 320 L 277 314 Z M 314 314 L 312 318 L 312 320 L 313 321 L 315 318 L 314 317 L 315 315 L 314 314 Z M 55 315 L 58 321 L 59 320 Q 55 318 58 317 Q 59 314 55 315 Z M 94 315 L 89 319 L 90 320 L 94 317 L 94 315 Z M 317 315 L 315 317 L 317 317 L 317 315 Z M 99 316 L 98 318 L 101 317 L 99 316 Z M 170 316 L 169 319 L 170 319 L 170 316 Z M 259 316 L 259 318 L 261 317 L 259 316 Z M 263 316 L 262 320 L 263 321 L 265 318 Q 266 315 263 316 Z M 112 317 L 111 319 L 113 318 L 112 317 Z M 150 317 L 150 321 L 151 321 L 150 317 Z M 184 317 L 182 324 L 179 323 L 176 329 Q 175 331 179 330 L 180 332 L 184 325 L 184 317 Z M 280 317 L 280 323 L 281 323 L 280 317 Z M 51 318 L 50 321 L 51 321 L 51 318 Z M 227 318 L 227 321 L 229 322 L 228 320 Q 229 317 227 318 Z M 261 318 L 259 320 L 261 320 L 261 318 Z M 54 319 Q 52 322 55 321 L 54 319 Z M 171 319 Q 168 324 172 323 L 171 327 L 167 329 L 164 327 L 163 330 L 167 331 L 171 330 Q 175 328 175 321 L 171 319 Z M 319 319 L 317 321 L 319 321 L 319 319 Z M 97 320 L 98 325 Q 100 324 98 323 L 99 321 L 97 320 Z M 322 320 Q 319 324 323 323 L 322 320 Z M 90 321 L 90 323 L 92 322 L 90 321 Z M 157 321 L 155 323 L 156 325 L 157 323 L 157 321 Z M 162 321 L 162 323 L 162 324 L 165 323 Q 166 320 162 321 Z M 277 321 L 276 329 L 278 330 L 277 328 L 278 324 L 277 321 Z M 138 322 L 137 324 L 139 325 L 138 322 Z M 240 322 L 241 325 L 241 323 L 243 323 L 240 322 Z M 299 322 L 297 324 L 298 325 L 300 324 L 299 322 Z M 80 323 L 81 325 Q 82 322 80 323 Z M 224 323 L 223 325 L 228 329 L 224 323 Z M 282 323 L 280 332 L 283 333 L 282 330 L 284 326 L 283 326 L 282 323 Z M 96 325 L 94 326 L 93 328 L 97 326 L 96 325 Z M 302 325 L 306 337 L 300 339 L 299 341 L 305 339 L 307 340 L 299 342 L 300 344 L 302 343 L 302 345 L 305 344 L 304 343 L 304 342 L 307 343 L 307 341 L 311 342 L 313 344 Q 314 340 311 341 L 311 340 Q 313 341 312 338 L 310 339 L 308 339 L 311 337 L 310 336 L 311 333 L 308 334 L 308 333 Q 310 334 309 331 L 307 332 L 307 331 L 304 327 Q 305 324 302 325 Z M 79 326 L 77 328 L 78 334 L 79 334 L 79 326 Z M 59 327 L 57 328 L 57 329 L 60 328 L 59 327 Z M 98 327 L 94 329 Q 93 332 97 331 L 98 328 L 100 328 L 98 327 Z M 142 327 L 141 335 L 142 335 L 142 327 Z M 155 327 L 156 331 L 157 328 L 155 327 Z M 265 328 L 267 331 L 268 331 L 265 328 Z M 153 329 L 152 334 L 153 334 L 153 329 Z M 106 330 L 103 334 L 107 332 Q 108 329 106 330 Z M 175 330 L 169 335 L 170 336 L 176 331 L 175 330 Z M 98 331 Q 97 334 100 333 Q 101 330 98 331 Z M 159 331 L 159 334 L 164 336 L 167 335 L 159 331 Z M 237 331 L 238 334 L 238 332 Q 242 330 241 335 L 242 335 L 242 331 L 237 331 Z M 56 332 L 52 335 L 53 338 L 53 337 L 57 335 L 56 332 Z M 263 332 L 261 335 L 261 336 L 264 335 Q 265 331 263 332 Z M 269 332 Q 265 334 265 340 L 263 339 Q 258 342 259 349 L 254 352 Q 251 351 252 355 L 250 355 L 250 353 L 246 356 L 240 368 Q 241 370 238 369 L 237 372 L 238 376 L 237 382 L 234 384 L 228 382 L 229 377 L 231 375 L 231 371 L 234 372 L 236 370 L 233 365 L 235 359 L 234 359 L 230 357 L 228 352 Q 227 349 230 350 L 232 356 L 232 357 L 237 357 L 236 352 Q 235 347 237 346 L 237 342 Q 234 340 235 336 L 225 337 L 220 343 L 220 355 L 218 362 L 217 381 L 208 385 L 197 395 L 188 397 L 184 402 Q 187 403 189 400 L 192 401 L 195 400 L 195 402 L 190 401 L 185 407 Q 187 405 190 410 Q 191 412 188 411 L 187 408 L 186 410 L 184 409 Q 185 406 182 407 L 183 411 L 195 413 L 198 409 L 199 401 L 202 402 L 207 399 Q 212 401 211 397 L 215 397 L 225 392 L 229 387 Q 228 383 231 384 L 229 392 L 226 394 L 227 397 L 227 396 Q 229 393 230 396 L 228 400 Q 225 401 226 398 L 225 398 L 225 406 L 228 406 L 227 405 Q 226 402 230 403 L 232 399 Q 233 394 230 393 L 233 385 L 235 392 L 234 395 L 234 407 L 235 408 L 234 424 L 233 425 L 234 429 L 233 434 L 236 445 L 238 460 L 240 465 L 240 471 L 243 475 L 242 480 L 242 492 L 250 520 L 249 526 L 238 533 L 237 536 L 238 540 L 243 537 L 241 542 L 242 544 L 240 543 L 230 544 L 234 545 L 261 545 L 261 543 L 247 543 L 246 544 L 243 544 L 253 533 Q 252 525 255 522 L 255 492 L 256 491 Q 257 481 254 477 L 255 472 L 255 456 L 256 455 Q 257 446 254 442 L 254 434 L 252 433 L 250 429 L 251 424 L 247 417 L 248 413 Q 255 418 253 431 L 256 432 L 258 431 Q 260 427 255 428 L 254 426 Q 253 420 256 419 L 257 427 L 257 421 L 260 422 L 261 418 L 263 417 L 259 433 L 256 435 L 256 444 L 258 453 L 257 456 L 258 461 L 258 477 L 259 480 L 259 486 L 256 496 L 257 500 L 257 521 L 255 527 L 256 529 Q 257 533 254 535 L 255 538 L 263 540 L 264 543 L 268 545 L 272 545 L 270 543 L 268 540 L 274 544 Q 276 543 275 540 L 273 538 L 262 527 L 266 507 L 270 496 L 270 483 L 268 482 L 269 484 L 268 486 L 266 486 L 270 477 L 271 480 L 272 479 L 272 470 L 274 466 L 276 452 L 278 448 L 279 431 L 280 430 L 279 426 L 280 424 L 277 414 L 277 409 L 275 406 L 276 403 L 274 396 L 276 395 L 280 411 L 283 412 L 285 411 L 282 409 L 281 407 L 282 402 L 280 396 L 281 391 L 299 380 L 303 375 L 303 371 L 301 366 L 294 358 L 284 341 L 275 332 L 269 332 Z M 304 333 L 300 335 L 299 337 L 304 335 L 304 333 Z M 183 334 L 179 339 L 180 340 L 183 336 L 183 334 Z M 317 336 L 316 339 L 317 339 L 317 336 Z M 58 337 L 57 339 L 60 341 L 58 337 Z M 108 337 L 108 338 L 110 338 L 108 337 Z M 156 337 L 158 340 L 159 340 L 156 337 Z M 54 338 Q 52 342 47 342 L 42 347 L 38 358 L 39 360 L 37 371 Q 35 377 38 379 L 37 383 L 38 385 Q 39 395 36 402 L 36 418 L 37 419 Q 39 428 35 432 Q 36 436 34 435 L 28 444 L 29 450 Q 31 449 30 444 Q 32 439 39 439 L 42 435 L 45 425 L 45 418 L 47 412 L 49 395 L 51 390 L 51 381 L 48 372 L 49 367 L 51 371 L 55 387 L 55 389 L 55 396 L 50 404 L 48 413 L 49 429 L 59 459 L 57 457 L 55 460 L 57 470 L 57 477 L 55 487 L 50 498 L 50 500 Q 47 499 48 502 L 43 501 L 40 499 L 38 492 L 43 489 Q 42 484 46 486 L 49 482 Q 48 478 52 480 Q 53 476 48 478 Q 49 473 47 471 L 45 474 Q 44 477 39 476 L 39 478 L 38 477 L 36 476 Q 38 483 33 481 L 33 479 L 30 480 Q 31 475 28 473 L 26 477 Q 27 479 25 478 L 22 477 L 23 483 L 26 485 L 26 486 L 31 486 L 31 490 Q 28 489 29 492 L 33 491 L 38 504 L 43 507 L 50 506 L 55 498 L 60 479 L 59 477 L 60 476 L 61 464 L 63 477 L 58 493 L 58 503 L 59 504 L 58 506 L 60 514 L 60 521 L 58 528 L 55 532 L 53 533 L 49 539 Q 47 544 53 542 L 55 539 Q 57 538 56 541 L 54 542 L 57 545 Q 63 540 65 531 Q 68 530 67 533 L 70 534 L 75 533 L 83 535 Q 88 537 90 534 Q 92 535 91 531 L 86 531 L 78 525 L 75 525 L 76 521 L 76 519 L 78 506 L 80 503 L 79 501 L 80 499 L 79 495 L 82 490 Q 82 477 86 468 L 86 459 L 89 449 L 89 442 L 91 435 L 91 424 L 92 423 L 92 410 L 90 405 L 89 394 L 86 390 L 86 374 L 85 371 L 79 367 Q 74 364 73 358 Q 77 356 76 361 L 81 365 L 86 366 L 91 362 Q 92 354 89 351 L 92 350 L 91 346 L 90 349 L 85 353 Q 80 354 79 351 L 74 353 L 65 349 L 64 344 L 62 345 L 54 338 Z M 82 338 L 80 340 L 82 340 L 83 341 Q 84 337 82 338 Z M 161 338 Q 160 342 165 340 L 165 342 Q 168 343 167 341 L 161 338 Z M 174 340 L 171 344 L 173 346 L 174 342 L 174 340 Z M 83 341 L 83 344 L 86 343 L 89 345 L 89 344 L 83 341 Z M 332 341 L 330 343 L 331 346 L 330 348 Q 329 350 332 349 L 332 341 Z M 115 343 L 115 345 L 117 344 L 115 343 Z M 310 343 L 303 346 L 306 347 L 304 348 L 306 349 L 304 350 L 301 350 L 303 349 L 301 348 L 303 347 L 303 346 L 300 346 L 300 352 L 300 354 L 301 358 L 300 361 Q 301 364 305 363 L 306 361 L 303 359 L 303 358 L 308 359 L 310 353 L 313 352 L 314 352 L 314 348 L 317 348 L 317 346 L 312 347 Q 313 345 310 343 Z M 68 344 L 67 348 Q 68 350 73 349 L 72 347 Q 69 348 70 345 L 68 344 Z M 158 345 L 156 347 L 157 349 L 159 346 L 158 345 Z M 185 345 L 183 347 L 185 354 L 186 351 L 185 345 Z M 255 345 L 252 346 L 254 349 L 256 348 L 255 345 Z M 323 345 Q 320 349 324 348 L 327 347 L 326 346 L 323 345 Z M 116 346 L 113 350 L 116 348 L 116 346 Z M 179 346 L 178 353 L 180 353 L 179 346 Z M 320 346 L 321 348 Q 322 345 320 346 Z M 86 347 L 82 349 L 86 349 L 86 347 Z M 172 347 L 172 349 L 171 351 L 174 353 L 173 350 Q 174 346 172 347 Z M 240 347 L 239 352 L 240 352 L 240 347 Z M 92 352 L 91 354 L 96 363 L 94 362 Q 88 367 89 380 L 89 382 L 90 391 L 93 397 L 94 424 Q 98 428 98 437 L 104 440 L 100 434 L 102 431 L 109 436 L 111 438 L 102 427 L 100 422 L 99 398 L 96 389 L 97 380 L 98 385 L 98 380 L 102 379 L 103 380 Q 104 376 101 377 L 102 374 L 102 371 L 99 372 L 100 377 L 96 379 L 94 368 Q 93 364 96 365 L 97 369 Q 96 364 99 363 L 97 362 Q 96 356 92 352 Z M 244 352 Q 243 355 247 354 Q 248 351 244 352 Z M 314 353 L 314 355 L 320 354 L 314 353 Z M 329 353 L 327 355 L 328 357 L 329 355 L 329 353 Z M 125 354 L 124 356 L 126 355 L 125 354 Z M 319 355 L 317 357 L 320 357 L 320 359 L 315 359 L 315 361 L 317 360 L 319 361 L 318 361 L 318 363 L 314 363 L 315 367 L 314 369 L 314 372 L 317 376 L 316 378 L 318 378 L 317 371 L 315 371 L 316 367 L 322 360 Q 324 353 319 355 Z M 161 356 L 164 367 L 165 367 L 165 363 L 161 356 Z M 206 356 L 207 358 Q 208 355 206 356 Z M 124 357 L 124 359 L 126 358 L 124 357 Z M 171 357 L 170 364 L 171 364 L 171 357 Z M 156 358 L 159 371 L 160 371 Q 160 362 156 358 Z M 205 358 L 204 360 L 208 363 L 205 358 Z M 240 358 L 236 364 L 237 365 L 239 364 L 241 360 Q 242 357 240 358 Z M 308 361 Q 309 364 306 363 L 307 369 L 307 378 Q 304 379 305 385 Q 301 387 300 393 L 301 394 L 298 393 L 300 396 L 302 395 L 302 397 L 304 397 L 304 399 L 300 397 L 300 399 L 297 394 L 297 392 L 300 391 Q 301 388 298 389 L 296 390 Q 297 386 294 387 L 294 385 L 286 391 Q 283 390 284 394 L 286 395 L 285 393 L 287 394 L 286 396 L 287 399 L 287 401 Q 284 400 285 396 L 284 396 Q 283 400 285 402 L 284 404 L 286 407 Q 288 412 285 414 L 289 416 L 287 414 L 288 412 L 290 415 Q 292 416 291 414 L 291 412 L 292 415 L 289 417 L 291 420 L 294 420 L 295 418 L 296 418 L 295 420 Q 300 420 303 423 L 305 422 L 306 420 L 308 419 L 307 421 L 307 422 Q 310 423 309 421 L 310 421 Q 309 423 312 422 L 313 418 L 310 419 L 312 415 L 313 415 Q 312 418 315 417 Q 317 416 315 415 L 318 409 L 319 409 Q 318 417 313 421 Q 312 424 316 422 L 317 419 L 319 420 Q 322 418 322 414 L 326 410 L 325 409 L 328 410 L 330 406 L 328 390 L 326 391 L 324 391 L 326 388 L 325 386 L 326 382 L 323 380 L 322 377 L 323 375 L 322 364 L 319 368 L 321 373 L 321 377 L 318 383 L 313 385 Q 306 382 312 379 L 309 373 L 310 370 L 310 362 L 308 361 Z M 206 363 Q 204 366 207 365 L 206 363 Z M 100 364 L 98 366 L 100 371 L 101 371 Q 102 365 100 364 Z M 172 364 L 171 368 L 172 368 L 172 364 Z M 204 365 L 202 367 L 205 368 L 204 365 Z M 156 366 L 155 369 L 156 369 L 156 366 Z M 97 371 Q 94 375 98 374 L 97 371 Z M 236 376 L 233 377 L 235 381 L 236 379 L 236 376 Z M 180 377 L 180 379 L 182 378 L 180 377 Z M 232 377 L 231 382 L 232 382 L 232 377 Z M 189 381 L 193 386 L 193 385 L 189 381 Z M 299 381 L 299 384 Q 298 387 301 386 L 302 383 Q 300 384 299 381 Z M 103 382 L 101 387 Q 100 389 99 387 L 98 389 Q 99 391 101 389 L 101 395 Q 97 396 100 398 Q 98 403 102 402 L 101 400 L 103 396 Q 105 395 104 399 L 105 399 Q 107 393 103 394 L 102 391 L 103 387 L 103 382 Z M 147 382 L 149 384 Q 150 381 147 382 Z M 177 383 L 175 385 L 177 385 L 177 383 Z M 149 385 L 145 387 L 150 387 L 149 385 Z M 154 386 L 154 388 L 146 389 L 146 390 Q 150 391 152 389 L 152 391 L 149 393 L 152 393 Q 153 396 150 395 L 147 394 L 146 396 L 149 397 Q 154 395 153 399 L 148 398 L 145 399 L 151 401 Q 153 400 152 403 L 144 401 L 145 403 Q 148 402 147 405 L 143 403 L 141 404 L 144 405 L 144 406 L 137 404 L 137 406 L 137 407 L 133 405 Q 130 408 124 407 L 119 412 L 119 417 Q 122 416 121 421 L 124 422 L 125 428 L 126 428 L 125 425 L 126 421 L 123 419 L 125 416 L 122 415 Q 123 411 128 412 L 128 411 Q 125 412 126 409 L 131 409 L 131 412 L 134 412 L 136 411 L 137 409 L 143 409 Q 144 412 141 411 L 140 414 Q 139 416 142 415 Q 143 418 145 414 L 146 414 L 146 409 Q 151 408 152 412 L 151 414 L 153 414 L 155 419 L 154 420 L 155 424 L 158 420 L 156 406 L 158 406 L 155 404 L 156 399 L 159 400 L 161 400 L 159 399 L 158 396 Q 157 393 162 394 L 163 392 L 162 392 L 156 388 Q 157 385 154 386 Z M 165 394 L 163 396 L 164 399 L 165 399 L 165 394 Z M 180 398 L 179 401 L 181 402 L 180 398 Z M 106 399 Q 103 403 107 402 L 106 399 Z M 158 401 L 159 403 Q 160 400 158 401 Z M 164 401 Q 163 404 166 403 Q 167 400 164 401 Z M 102 403 Q 100 406 103 405 L 105 408 L 105 404 L 104 404 L 102 403 Z M 134 403 L 134 404 L 136 404 L 134 403 Z M 225 406 L 224 407 Q 221 406 222 410 L 225 411 L 223 416 L 221 414 L 220 414 L 221 418 L 219 421 L 220 423 L 221 420 L 225 418 L 227 412 L 225 406 Z M 106 408 L 105 411 L 102 413 Q 102 419 106 422 Q 108 423 107 420 L 110 419 L 109 416 Q 111 408 106 410 L 106 408 Z M 181 408 L 179 409 L 179 410 Q 181 409 180 412 L 182 413 L 181 408 Z M 199 408 L 196 414 L 198 414 L 197 416 Q 196 418 199 417 L 199 420 L 200 421 Q 197 420 198 423 L 198 425 Q 197 427 200 426 L 198 429 L 200 433 L 200 432 L 200 430 Q 203 427 202 421 Q 200 419 203 418 L 201 415 L 202 413 L 205 411 Q 206 414 204 413 L 204 414 Q 208 412 207 417 L 206 416 L 204 417 L 205 419 L 208 421 L 205 421 L 206 426 Q 204 427 207 428 L 210 426 Q 211 414 207 409 L 199 408 Z M 166 409 L 165 413 L 168 414 Q 169 411 167 412 L 166 409 Z M 222 410 L 221 413 L 222 413 L 222 410 Z M 187 413 L 186 415 L 183 416 L 161 416 L 162 418 L 164 417 L 167 418 L 169 418 L 173 417 L 179 418 L 182 419 Q 184 420 183 417 L 186 417 L 185 420 Q 186 422 183 421 L 183 422 Q 186 421 185 424 L 183 425 L 184 427 Q 182 428 185 429 Q 188 427 188 423 L 188 421 L 191 418 L 196 419 L 196 417 L 189 417 L 189 414 L 187 413 Z M 136 415 Q 137 418 134 417 L 134 421 Q 138 420 137 423 L 134 424 L 137 425 L 136 425 L 137 428 L 136 429 L 138 429 L 139 435 L 139 447 L 138 448 L 139 455 L 135 451 L 131 453 L 130 456 L 135 463 L 137 462 L 140 463 Q 143 462 142 465 L 146 466 L 148 468 L 152 465 L 151 470 L 152 473 Q 156 479 165 481 Q 174 483 179 479 Q 184 475 186 469 Q 188 462 184 463 L 182 468 L 181 468 L 182 463 L 189 461 L 189 463 L 192 462 L 191 465 Q 188 464 189 467 L 193 466 L 194 462 L 205 460 L 210 453 L 209 451 Q 210 448 208 449 L 206 449 L 207 452 L 203 453 L 200 455 L 201 451 L 201 435 Q 198 436 200 438 L 199 440 Q 198 444 200 446 L 199 453 L 197 454 L 194 458 L 192 459 L 190 458 L 183 460 L 179 465 L 180 470 L 177 473 L 168 476 L 158 472 L 156 469 L 156 464 Q 155 461 151 462 L 144 458 L 143 461 L 140 460 L 140 434 L 141 433 Q 142 430 139 431 L 140 427 L 139 425 Q 138 422 141 423 Q 142 420 138 421 Q 136 417 142 418 L 142 417 Q 138 418 139 415 L 136 415 Z M 144 417 L 145 419 L 148 418 L 144 417 Z M 259 422 L 258 427 L 259 427 L 259 422 Z M 149 423 L 149 425 L 154 427 L 152 425 Q 153 422 149 423 Z M 216 424 L 216 428 L 217 428 Q 216 425 219 426 L 218 434 Q 217 437 215 434 L 216 432 L 214 431 L 214 438 L 213 439 Q 214 442 210 440 L 207 447 L 208 448 L 210 444 Q 212 441 213 444 L 211 449 L 212 451 L 215 445 L 214 442 L 215 439 L 218 437 L 221 430 L 221 426 Q 220 423 216 424 Z M 114 425 Q 112 428 111 426 L 109 430 L 111 435 L 115 436 L 118 441 L 117 443 L 120 450 L 123 451 L 125 450 L 131 453 L 126 445 L 122 440 L 119 440 L 117 437 L 118 435 Q 119 431 116 432 L 114 425 Z M 307 426 L 304 432 L 306 431 L 306 434 L 304 432 L 301 437 L 303 440 L 299 445 L 299 447 L 298 447 Q 299 444 296 445 L 298 436 L 296 435 L 291 443 Q 292 447 290 449 L 293 454 Q 295 455 294 453 L 292 449 L 294 448 L 295 451 L 295 455 L 290 461 L 289 461 L 290 459 L 289 458 L 289 457 L 289 453 L 286 457 Q 284 467 290 470 Q 293 469 292 472 L 294 473 L 293 471 L 294 468 L 297 482 L 297 485 L 292 493 L 294 493 L 293 495 L 293 496 L 297 494 L 302 484 L 301 481 L 302 475 L 302 473 L 304 473 L 304 472 L 307 470 Q 310 468 306 467 L 307 465 L 305 464 L 305 466 L 303 464 L 304 462 L 305 464 L 308 462 L 309 465 L 310 461 Q 308 457 307 461 L 304 460 L 300 465 Q 301 467 299 466 L 299 465 L 298 460 L 299 457 L 300 459 L 301 457 Q 300 453 304 454 L 305 452 L 303 452 L 303 447 L 307 441 L 307 426 Z M 150 427 L 149 430 L 153 430 L 153 429 Q 151 430 150 427 Z M 128 428 L 126 430 L 127 433 Q 126 435 129 434 Q 133 432 129 430 Q 130 427 128 428 Z M 204 429 L 204 434 L 206 433 Q 207 428 204 429 Z M 184 430 L 185 432 Q 186 429 184 430 Z M 150 431 Q 149 434 153 433 Q 154 430 150 431 Z M 108 439 L 107 442 L 110 443 L 108 439 Z M 36 442 L 35 445 L 36 446 L 38 443 L 36 442 Z M 165 442 L 161 448 Q 166 450 164 445 L 172 444 L 174 448 L 176 447 Q 178 448 177 446 Q 174 441 165 442 Z M 309 442 L 307 444 L 308 446 L 304 449 L 306 451 Q 308 450 306 449 L 308 449 L 310 445 L 309 442 Z M 170 446 L 169 447 Q 166 446 167 450 L 168 453 L 167 456 L 167 457 L 172 457 L 173 454 L 172 448 L 170 446 Z M 163 450 L 157 452 L 154 458 L 156 461 L 156 458 L 165 453 Q 166 449 163 450 Z M 177 450 L 175 453 L 183 458 L 184 454 Q 181 455 180 452 L 177 450 Z M 32 453 Q 31 456 34 455 Q 35 452 32 453 Z M 37 456 L 36 459 L 37 459 L 37 456 Z M 164 456 L 163 460 L 168 463 Q 173 464 175 462 L 176 456 Q 173 455 174 459 Q 166 461 164 456 Z M 29 457 Q 28 461 31 460 Q 32 456 29 457 Z M 39 461 L 37 463 L 39 464 L 39 461 Z M 32 463 L 30 465 L 32 467 Q 35 468 34 466 L 33 466 L 32 463 Z M 200 463 L 199 528 Q 202 529 200 535 L 201 535 L 201 525 L 200 524 L 201 519 L 200 463 Z M 28 464 L 26 466 L 28 466 L 28 464 Z M 139 465 L 138 468 L 140 469 L 139 465 Z M 42 467 L 44 471 L 45 469 L 42 467 Z M 26 468 L 27 470 Q 28 467 26 468 Z M 37 468 Q 36 471 39 470 Q 40 467 37 468 Z M 275 470 L 273 477 L 275 488 Q 274 491 277 490 L 276 489 L 278 490 L 277 493 Q 280 497 287 498 L 290 494 L 290 492 L 287 493 L 284 495 L 285 492 L 281 492 L 281 494 L 280 494 L 281 492 L 278 488 L 277 478 L 275 470 Z M 23 471 Q 22 474 25 473 Q 26 470 23 471 Z M 33 471 Q 30 473 33 474 L 34 472 L 33 471 Z M 140 473 L 139 485 L 140 485 L 140 473 Z M 34 475 L 32 477 L 34 477 L 34 475 Z M 140 488 L 138 496 L 138 530 L 139 535 L 140 535 L 140 524 L 139 523 L 139 501 L 140 500 L 140 488 Z M 316 506 Q 315 509 320 508 Q 321 506 322 509 L 318 509 L 318 510 L 323 510 L 323 508 Q 321 505 316 506 Z M 314 512 L 315 513 L 316 514 Q 317 511 314 512 Z M 318 512 Q 317 515 322 514 Q 323 510 318 512 Z M 316 515 Q 313 516 315 518 Q 316 520 312 519 L 312 522 L 316 524 L 310 525 L 309 528 L 310 529 Q 311 525 316 526 Q 315 535 317 540 L 327 540 L 320 539 L 317 534 Q 316 526 318 523 L 323 522 L 320 521 Q 318 523 317 521 L 321 519 L 317 518 L 320 517 L 316 515 Z M 323 515 L 322 517 L 328 517 Q 327 514 323 515 Z M 323 528 L 322 531 L 323 531 L 323 528 Z M 218 533 L 218 534 L 220 534 L 218 533 Z M 128 534 L 127 535 L 117 535 L 115 535 L 110 536 L 108 536 L 106 535 L 95 536 L 98 537 Q 104 535 106 538 L 122 537 L 124 537 L 126 536 Q 130 535 132 537 Q 135 538 134 535 L 128 534 Z M 165 534 L 160 536 L 180 536 L 180 534 L 165 534 Z M 184 534 L 184 536 L 193 535 L 184 534 Z M 225 534 L 225 535 Q 231 533 233 536 L 235 535 L 225 534 Z M 37 535 L 31 537 L 33 540 L 39 537 L 47 539 L 48 539 L 46 536 L 37 535 Z M 279 535 L 279 536 L 290 536 L 291 537 Q 296 538 298 536 L 279 535 Z M 302 535 Q 301 537 304 536 L 305 537 Q 306 533 302 535 Z M 70 536 L 70 538 L 75 539 L 83 539 L 83 537 Q 78 535 70 536 Z M 28 537 L 27 538 L 12 540 L 15 541 L 29 539 L 28 537 Z M 140 537 L 139 539 L 128 540 L 130 541 L 139 541 L 140 542 L 161 542 L 163 542 L 165 541 L 172 541 L 172 539 L 166 540 L 155 540 L 158 538 L 158 537 L 144 538 L 154 540 L 141 541 L 140 537 Z M 191 537 L 186 539 L 194 539 Q 195 536 193 537 L 191 537 Z M 221 538 L 221 539 Q 230 538 235 541 L 235 539 L 233 538 L 221 538 Z M 306 538 L 305 539 L 286 540 L 307 540 L 306 538 Z M 313 538 L 312 540 L 314 539 L 313 538 Z M 91 539 L 90 540 L 80 540 L 76 542 L 73 541 L 72 542 L 63 543 L 67 544 Q 72 546 74 543 L 77 544 L 79 544 L 85 542 L 91 542 L 92 541 Q 93 538 91 539 Z M 111 539 L 111 540 L 115 540 L 111 539 Z M 117 539 L 117 541 L 126 540 L 117 539 Z M 210 539 L 210 541 L 216 542 L 221 542 L 216 539 L 214 540 L 210 539 Z M 39 540 L 38 541 Q 32 539 33 543 L 31 541 L 27 543 L 23 542 L 13 542 L 12 544 L 12 545 L 30 545 L 31 544 L 33 545 L 35 545 L 37 543 Q 42 544 44 542 Q 43 539 39 540 Z M 99 541 L 96 542 L 96 543 L 110 543 L 109 541 L 99 541 Z M 282 542 L 283 544 L 287 543 L 300 544 L 300 542 L 282 542 Z M 46 543 Q 44 546 39 544 L 39 545 L 51 545 L 46 543 Z M 159 543 L 160 545 L 178 545 L 180 545 L 192 544 L 159 543 Z M 195 543 L 195 544 L 200 544 L 195 543 Z M 219 543 L 217 545 L 219 545 L 219 543 Z M 223 543 L 221 544 L 221 545 Q 227 547 229 544 L 223 543 Z M 281 550 L 280 551 L 64 551 L 62 551 Q 57 550 56 552 L 51 551 L 49 551 L 37 552 L 35 552 L 31 551 L 21 551 L 20 552 L 16 551 L 12 552 L 12 592 L 14 592 L 16 592 L 24 592 L 25 591 L 27 592 L 31 591 L 34 592 L 37 591 L 39 592 L 44 591 L 46 592 L 49 591 L 52 592 L 55 591 L 59 592 L 61 591 L 84 592 L 86 592 L 91 591 L 96 592 L 98 591 L 107 592 L 109 592 L 111 591 L 114 592 L 116 591 L 119 592 L 120 591 L 156 591 L 158 591 L 180 591 L 181 590 Q 185 589 187 591 L 190 590 L 194 591 L 198 590 L 201 591 L 203 590 L 223 590 L 225 590 L 238 590 L 239 589 L 241 590 L 289 590 L 290 591 L 298 590 L 300 590 Q 304 589 306 591 L 314 591 L 315 590 L 329 590 L 331 591 L 332 590 L 332 563 L 333 562 L 332 551 L 313 551 L 312 550 L 310 551 L 307 550 L 304 551 L 301 550 L 294 551 L 292 551 L 289 550 L 286 551 L 281 550 Z "></path><path d="M 158.5 16 Q 161.8 14.9 161 17.5 L 157.5 20 L 155.5 17 L 158.5 16 Z "></path><path d="M 165 17 Q 168.8 15.5 168 18.5 L 174 28.5 L 165.5 29 L 161 22.5 L 165 17 Z "></path><path d="M 171 17 L 179 17 L 179 19.5 L 177 26 Q 174.3 27.1 175 24.5 L 171 17 Z "></path><path d="M 158.5 26 L 161 27.5 Q 161.8 30.1 158.5 29 Q 157.3 31.3 156 28.5 L 158.5 26 Z "></path><path d="M 325.5 35 L 328 36.5 L 325 40.5 L 325 45.5 L 320 55.5 L 310.5 68 L 308.5 69 L 307 66 Q 310.8 67.5 310 64.5 Q 318.5 57 321 43.5 L 320 40.5 L 322.5 37 L 325.5 35 Z "></path><path d="M 191.5 36 L 193 36.5 L 189 42.5 L 189 45 L 187 45 L 187 47 Q 184.3 45.9 185 48.5 L 181.5 53 L 173 49 L 174.5 46 L 191.5 36 Z "></path><path d="M 147.5 37 L 165 47 Q 166.1 49.7 163.5 49 L 155.5 53 L 147.5 37 Z "></path><path d="M 214 40 Q 216.7 38.9 216 41.5 L 218 44.5 Q 216 48 214 43.5 L 214 40 Z "></path><path d="M 123.5 41 Q 126.3 42.4 125 47 L 122 45.5 Q 121.3 41.8 123.5 41 Z "></path><path d="M 145 42 L 147 42 L 147 47 L 145 47 L 145 42 Z "></path><path d="M 207.5 42 Q 209.8 41.3 209 43.5 L 210 47.5 L 206 44.5 L 207.5 42 Z "></path><path d="M 200.5 46 L 205 49.5 Q 203.3 52.8 201.5 49 Q 198.2 50.1 199 47.5 L 200.5 46 Z "></path><path d="M 190 47 Q 193 46 192 49 Q 189 50 190 47 Z "></path><path d="M 166.5 50 L 169.5 50 L 180 56 Q 177.3 59 178 65 Q 166.2 63.7 159 66 L 159 64 Q 161.7 65.1 161 62.5 L 158.5 58 L 158 61 Q 154.7 62.3 156 57.5 L 166.5 50 Z "></path><path d="M 184.5 52 L 183.5 54 L 184.5 52 Z "></path><path d="M 193 52 L 198 54.5 L 195.5 56 L 193 55 L 193 52 Z "></path><path d="M 150 55 Q 153 54 152 57 Q 149 58 150 55 Z "></path><path d="M 179 61 Q 182 60 181 63 Q 178 64 179 61 Z "></path><path d="M 153 63 Q 155.7 61.9 155 64.5 L 152.5 66 L 153 64.5 L 153 63 Z "></path><path d="M 143.5 65 L 145 65.5 L 142.5 67 L 143.5 65 Z "></path><path d="M 164 69 L 167.5 70 L 169.5 69 L 171.5 70 Q 172.8 67.8 177.5 69 L 177 70.5 Q 177.8 72.8 175.5 72 Q 172.7 73.3 175 74.5 L 174.5 76 L 168.5 74 L 163.5 76 L 161 72.5 L 164 71 L 164 69 Z "></path><path d="M 304.5 69 L 307 70.5 L 303.5 75 L 300.5 76 L 297.5 75 Q 296.3 77.3 295 74.5 L 303 71.5 L 304.5 69 Z "></path><path d="M 220 73 L 222 73.5 L 220 74.5 L 220 73 Z "></path><path d="M 168.5 76 L 174 77 L 173 82 L 166.5 82 L 165.5 83 L 164.5 81 L 170 79.5 L 167.5 78 L 164.5 80 L 164 78 L 168.5 76 Z "></path><path d="M 176 81 L 181 84.5 Q 181.8 87.1 178.5 86 Q 175.3 84.8 176 81 Z "></path><path d="M 160.5 82 L 162 84.5 L 159.5 90 Q 155.3 88.3 158 86.5 Q 157.5 82.5 160.5 82 Z "></path><path d="M 210 83 Q 213 82 212 85 Q 209 86 210 83 Z "></path><path d="M 285.5 84 Q 287.8 83.3 287 85.5 L 285 87.5 L 284 98.5 L 279 113 L 277 112.5 L 284 90.5 L 283 86.5 L 285.5 84 Z "></path><path d="M 176 93 Q 179 91.8 178 95.5 Q 173.8 98.3 173 104.5 Q 174.8 107.8 176.5 104 Q 185.1 104.9 189 102 L 190.5 99 Q 193.8 97.9 193 100.5 L 191 104 L 186.5 106 L 184.5 106 Q 178.3 105.3 176 108.5 L 175 113.5 Q 175.5 116.5 179.5 116 L 184 113.5 L 186.5 108 Q 189.8 106.9 189 109.5 L 183.5 117 L 177.5 118 L 175 117 L 176.5 120 L 178.5 121 Q 179.8 118.8 181 121.5 Q 180 124 175.5 123 L 172 121 L 172 117 L 173.5 117 L 171 113.5 L 172 107.5 Q 168.3 106.7 169 101.5 L 170 99 Q 172.7 100.1 172 97.5 L 176 95 L 176 93 Z "></path><path d="M 155 94 L 165 100.5 L 166 105.5 L 163.5 109 Q 161.3 107.3 162 102.5 L 159.5 100 L 156.5 98 L 155 94 Z "></path><path d="M 179.5 108 L 182 109.5 L 180.5 113 Q 177.2 114.1 178 111.5 Q 175.3 109.7 179.5 108 Z "></path><path d="M 160.5 127 L 162 127.5 L 159.5 129 L 160.5 127 Z "></path><path d="M 179 135 Q 184.9 134.1 187 138.5 L 183.5 139 Q 182.4 136.3 179 137 L 179 135 Z "></path><path d="M 180.5 164 L 181 166.5 L 180 166.5 L 180.5 164 Z "></path><path d="M 208.5 189 L 211 190 L 209.5 194 Q 205.5 194.5 205 191.5 L 208.5 189 Z "></path><path d="M 125 191 Q 130.2 188.9 129 193.5 Q 127.7 196.2 126.5 194 Q 123.5 194.7 125 191 Z "></path><path d="M 92.5 210 L 95 213.5 L 91 215 L 90 212.5 L 92.5 210 Z "></path><path d="M 130.5 244 L 132 246.5 L 128 248 Q 126.5 244.2 129.5 245 L 130.5 244 Z "></path><path d="M 251.5 247 L 253 252 Q 248.9 253.2 251.5 247 Z "></path><path d="M 192.5 249 Q 195 250.2 194 254 L 190 252.5 Q 188.9 249.2 191.5 250 L 192.5 249 Z "></path><path d="M 204.5 249 Q 207.5 248.2 206 252 Q 202.2 253.5 203 250.5 L 204.5 249 Z "></path><path d="M 168.5 252 Q 174.3 251.2 176 254.5 Q 176.8 258.3 174.5 259 L 168.5 260 L 168.5 259 L 172 257.5 L 165 254.5 L 168.5 252 Z "></path><path d="M 139 253 Q 143.5 251.5 142 256 Q 137.5 257.5 139 253 Z "></path><path d="M 148.5 255 Q 153.1 253.8 151 259 L 147 257.5 L 148.5 255 Z "></path><path d="M 186.5 255 Q 191.1 253.8 189 259 Q 183.8 261.1 185 256.5 L 186.5 255 Z "></path><path d="M 159.5 257 L 161 261 L 157 259.5 Q 156.3 257.3 158.5 258 L 159.5 257 Z "></path><path d="M 174 263 Q 178.1 261.3 177 265.5 Q 175.5 268.5 174 265.5 L 174 263 Z "></path><path d="M 178.5 266 L 179 269.5 L 177 273 Q 171 275 173 269 L 178.5 266 Z "></path><path d="M 167.5 267 Q 171.7 265.9 170 270 L 167.5 271 L 166 268.5 L 167.5 267 Z "></path><path d="M 219.5 302 L 221 304.5 L 216 308.5 Q 216.5 312.5 213.5 313 L 211 311.5 L 219.5 302 Z "></path><path d="M 115.5 304 L 123 310.5 Q 124.3 314.3 120.5 313 L 118.5 312 L 116.5 313 L 111 309 Q 109.3 304.9 113.5 306 L 115.5 304 Z "></path><path d="M 218.5 311 L 223 313.5 L 221.5 314 L 219.5 313 L 220.5 316 L 217.5 315 L 218.5 318 L 214 315.5 L 214.5 314 L 216.5 315 L 216.5 313 L 219 312.5 L 218.5 311 Z "></path><path d="M 124.5 316 Q 127.1 315.2 126 318.5 L 128 321.5 L 124 323 L 123 317.5 L 124.5 316 Z "></path><path d="M 211.5 317 L 217 319.5 L 214.5 320 L 211.5 317 Z "></path><path d="M 208.5 319 L 214 321.5 L 213 324 L 209.5 323 L 206 324 Q 205.3 320.2 208.5 319 Z "></path><path d="M 205 326 L 210 326 L 210 328 L 205 328 L 205 326 Z "></path><path d="M 113 327 L 117 327 L 117 328.5 L 119 333.5 L 115 335 L 113 327 Z "></path><path d="M 204.5 329 L 206.5 330 Q 207.8 327.8 209 330.5 L 203.5 336 L 202 334.5 Q 204.8 333.3 204.5 329 Z "></path><path d="M 229.5 345 Q 231.8 344.3 231 346.5 L 228 348 L 229.5 345 Z "></path><path d="M 307 345 Q 309.7 343.9 309 346.5 L 309.5 349 L 311 349.5 L 309.5 350 Q 306.3 348.8 307 345 Z "></path><path d="M 275 347 Q 278.8 345.5 278 348.5 L 276 354 Q 273.3 355.1 274 352.5 L 275 347 Z "></path><path d="M 305.5 350 L 308 350.5 L 302.5 352 L 302.5 351 L 305.5 350 Z "></path><path d="M 307.5 352 L 309 352.5 L 304.5 354 L 304.5 353 L 307.5 352 Z "></path><path d="M 264 355 L 270.5 355 L 271 357 L 264.5 357 L 264 355 Z "></path><path d="M 304.5 355 L 306 355.5 L 302.5 357 L 302.5 356 L 304.5 355 Z "></path><path d="M 275 357 L 278 358.5 L 288 371.5 Q 279.5 380.5 274.5 393 L 272 381.5 L 275 368.5 L 275 357 Z "></path><path d="M 86 358 L 89 359.5 L 86 361 L 86 358 Z "></path><path d="M 49.5 359 L 52 366 L 56.5 367 L 64 363.5 L 66.5 359 L 67 363.5 L 63.5 368 L 56.5 370 L 50 365.5 L 48 360.5 L 49.5 359 Z "></path><path d="M 55 359 Q 59.5 357.5 58 362 L 55 360.5 L 55 359 Z "></path><path d="M 230 361 Q 233.7 359.6 232 365.5 L 233 369 Q 230.3 370.1 231 367.5 L 230 361 Z "></path><path d="M 290.5 367 L 295 368 L 294.5 370 L 292.5 369 L 290.5 370 Q 287.5 368.5 290.5 367 Z "></path><path d="M 308.5 378 L 310 378.5 L 307.5 380 L 308.5 378 Z "></path><path d="M 291.5 388 L 292 390 L 290 389.5 L 291.5 388 Z "></path><path d="M 293.5 390 L 296 395.5 L 294 394.5 L 293.5 392 L 292 392.5 L 293.5 390 Z "></path><path d="M 307.5 390 L 308 392.5 L 305 394.5 L 307.5 390 Z "></path><path d="M 252 391 L 256 391 L 256 392.5 Q 258.2 393.8 255.5 395 Q 254 391.5 252.5 394 L 251 393.5 L 252 391 Z "></path><path d="M 302.5 392 Q 304.8 391.3 304 393.5 L 302.5 392 Z "></path><path d="M 315.5 392 L 316 393.5 L 314 394.5 L 315.5 392 Z "></path><path d="M 76.5 395 L 80 397.5 Q 77.8 402.3 75.5 398 Q 72.9 398.7 74 396 L 76.5 395 Z "></path><path d="M 292.5 397 L 294.5 402 Q 297.5 402.9 296 398.5 L 298 397.5 L 297 401.5 L 300 403 Q 301 406 298 405 L 296.5 402 L 293 404 L 292.5 406 L 292 404.5 L 293 401.5 L 292.5 397 Z "></path><path d="M 313.5 398 L 312.5 400 L 313.5 398 Z "></path><path d="M 308.5 399 Q 311.5 398.2 310 402 Q 307.3 400.9 308 403.5 L 306 404.5 L 307 402.5 L 306.5 401 L 309 400.5 L 308.5 399 Z "></path><path d="M 303.5 401 L 303 402.5 L 302.5 404 L 302 402.5 L 303.5 401 Z "></path><path d="M 286.5 402 L 287 404.5 L 286 404.5 L 286.5 402 Z "></path><path d="M 318.5 402 L 318 403.5 L 314.5 413 L 314 410.5 L 318.5 402 Z "></path><path d="M 320.5 402 L 321 404.5 L 319.5 407 L 319 405.5 L 320.5 402 Z "></path><path d="M 324.5 402 L 325 404.5 L 324 404.5 L 324.5 402 Z "></path><path d="M 289.5 403 L 290 405.5 L 289 405.5 L 289.5 403 Z "></path><path d="M 309.5 404 L 312 404.5 L 309.5 405 L 309.5 404 Z "></path><path d="M 322.5 404 L 324 408.5 L 323 408.5 L 322.5 407 L 322 409 L 320 408.5 L 322.5 404 Z "></path><path d="M 244.5 406 L 251.5 412 L 258.5 413 L 262 412 Q 263.1 414.7 260.5 414 L 254.5 416 L 246 411 L 244.5 406 Z "></path><path d="M 299.5 406 L 302 407.5 L 301.5 409 L 301 407 Q 297.7 405.9 299 410 L 302 411.5 L 298.5 419 Q 295.3 417.3 299 415.5 L 299.5 412 L 301 412.5 Q 301.8 410.3 299.5 411 L 297 410 L 292.5 418 L 292 416.5 L 294 413.5 L 292 410.5 L 294 410.5 L 294.5 407 L 295 410 Q 297.7 411.1 297 408.5 L 299.5 406 Z "></path><path d="M 308.5 406 Q 311.8 407.8 312 412.5 L 308.5 417 L 309 415.5 L 311 411.5 L 308 410.5 L 310 408.5 L 308.5 406 Z "></path><path d="M 190.5 407 Q 195.1 405.8 193 411 Q 190 412.3 191 408.5 L 190.5 407 Z "></path><path d="M 290 407 Q 292.7 405.9 292 408.5 L 289 410.5 Q 289.8 408.3 287.5 409 L 287.5 408 L 289.5 409 L 290 407 Z "></path><path d="M 306.5 407 L 307 409.5 L 304 415 L 307 413.5 L 307.5 412 L 308 413.5 L 306 418 L 304 418 Q 305.5 421.7 302.5 421 Q 300.3 420.3 301 416.5 L 306.5 407 Z M 304 415 L 302 417 L 303 419 Q 307 417 304 415 Z "></path><path d="M 320.5 411 L 320 412.5 L 319 418 L 317 417.5 L 320.5 411 Z "></path><path d="M 105.5 412 L 108 412 L 108 419 L 105.5 420 L 104 413.5 L 105.5 412 Z "></path><path d="M 297.5 414 L 296.5 416 L 297.5 414 Z "></path><path d="M 70.5 419 L 77 423.5 Q 76.3 425.8 78.5 425 L 84 421 Q 83 418 86 419 L 79 430.5 L 79 455.5 L 77 462.5 L 77 469.5 L 73 481.5 Q 76 482.5 75 487.5 L 68 514.5 L 69 517.5 L 68 521.5 L 69 526 L 67 525.5 L 67 513.5 L 70 502.5 L 70 497.5 L 73 489.5 L 73 482 Q 69.7 483.3 71 478.5 L 73 474.5 L 74 464.5 L 76 458.5 L 76 426.5 L 70.5 419 Z "></path><path d="M 112 429 L 115 430.5 Q 116.1 433.8 113.5 433 L 112 429 Z "></path><path d="M 303.5 434 L 304 437.5 L 303 437.5 L 303.5 434 Z "></path><path d="M 294.5 441 L 295 443 L 293 442.5 L 294.5 441 Z "></path><path d="M 120.5 442 L 123 443 L 124 448 Q 121.3 449.1 122 446.5 Q 118.9 445.4 120.5 442 Z "></path><path d="M 302.5 443 L 304 443.5 L 301.5 445 L 302.5 443 Z "></path><path d="M 292.5 444 L 293 446.5 L 292 446.5 L 292.5 444 Z "></path><path d="M 301.5 446 L 301 447.5 L 302 451.5 L 300 452 Q 298.8 447.4 301.5 446 Z "></path><path d="M 297.5 450 L 298 452 L 296 451.5 L 297.5 450 Z "></path><path d="M 297 453 Q 300.3 451.9 299 456 Q 295.7 457.1 297 453 Z "></path><path d="M 134.5 454 L 138 457.5 L 137 458.5 Q 137.7 461.1 135 460 L 133 455.5 L 134.5 454 Z "></path><path d="M 204.5 454 L 207 455.5 L 202 459 Q 201.3 455.2 204.5 454 Z "></path><path d="M 296.5 457 L 296 458.5 L 295.5 460 L 295 458.5 L 296.5 457 Z "></path><path d="M 293.5 458 L 293 459.5 L 291.5 462 L 292 460.5 L 293.5 458 Z "></path><path d="M 145 462 L 148 463.5 Q 148.8 465.8 146.5 465 L 145 462 Z "></path><path d="M 302.5 465 L 305 468.5 L 303 468.5 L 300.5 475 L 300 471.5 L 302.5 465 Z "></path><path d="M 297 469 Q 300 468 299 471 Q 296 472 297 469 Z "></path><path d="M 261 474 Q 264.7 472.6 263 478.5 L 262 478.5 L 261 474 Z "></path><path d="M 267 474 Q 270 473 269 476 Q 266 477 267 474 Z "></path><path d="M 244.5 475 Q 247.9 478 247 484 Q 243.3 485.4 245 479.5 L 244.5 475 Z "></path><path d="M 248 477 Q 251 475.8 250 479.5 L 248 480.5 L 248 477 Z "></path><path d="M 298.5 477 L 300 482.5 L 298 483 L 298.5 477 Z "></path><path d="M 313.5 520 Q 315.8 519.3 315 521.5 L 313.5 520 Z "></path><path d="M 66 527 L 68 527.5 L 66.5 530 L 66 527 Z "></path><path d="M 339.5 547 L 341 549.5 L 339.5 553 L 339 550.5 L 340 548.5 L 339.5 547 Z "></path><path d="M 195.5 558 L 199.5 559 L 200.5 558 L 209.5 558 L 212 561.5 L 209.5 565 L 208 561 Q 202.6 559.5 201 562.5 Q 198.8 569.8 204 568 Q 202.9 565.3 205.5 566 Q 206.7 563.8 208 566.5 L 207 573 Q 203.3 574.5 204 571.5 Q 202.5 568.5 201 571.5 L 202 574.5 L 201 580 L 208.5 580 L 212.5 577 L 215 577 L 213 582 Q 210.3 583.9 203.5 583 L 201.5 583 L 195 583 L 195 580 L 197 579.5 L 197 561.5 L 194 559.5 L 195.5 558 Z "></path><path d="M 223.5 558 L 226 559.5 L 225 564.5 L 228.5 576 L 233 566.5 L 234 560.5 L 233.5 559 Q 239.8 556.8 238 562.5 L 231 577.5 L 231 581 Q 234 580 233 583 L 223.5 583 L 223 581 Q 225.7 582.1 225 579.5 L 218 561 Q 215 562 216 559 L 222.5 559 L 223.5 558 Z "></path><path d="M 263.5 558 Q 267.3 557.3 268 559.5 Q 264.4 566.4 266 578.5 L 267 581 Q 272.7 581.4 275 577.5 Q 274.2 574.9 277.5 576 Q 280.3 577.3 278 578.5 L 274.5 583 L 267.5 584 L 264.5 583 L 262.5 584 L 260.5 584 L 258 582.5 Q 257.3 579.9 260 581 L 260 578.5 L 261 575.5 L 260 571.5 L 260 569.5 L 261 566.5 L 260 561 Q 257 562 258 559 L 263.5 558 Z "></path><path d="M 55 559 Q 58.5 560.7 65.5 560 L 68.5 559 L 70.5 560 L 71.5 559 L 83 559 L 84 562.5 L 83 565 Q 79.7 566.1 81 562 L 74 562 L 74 575.5 L 73 576.5 L 73 578.5 L 74.5 581 L 77 582.5 L 70.5 584 L 67.5 583 Q 66.3 585.2 65 582.5 L 67 579.5 L 67 563.5 Q 65.4 560.5 60 562 L 58.5 565 L 55 563.5 L 55 559 Z "></path><path d="M 86.5 559 L 93.5 559 L 94 561.5 Q 91.7 562.8 93 567.5 L 94.5 569 L 104 569 Q 105 562.1 103 559 L 110 559 L 110 561.5 L 109 566.5 L 110 568.5 L 109 571.5 Q 111.5 573 110 578.5 L 109 579.5 L 111.5 583 L 103.5 583 L 103 580.5 Q 105.8 578.8 104 572.5 Q 102.7 569.8 101.5 572 L 96.5 571 L 94.5 571 L 93 571.5 L 93 578.5 L 95 583 L 86.5 583 L 86 581 L 88 580.5 L 88 562.5 L 86.5 559 Z "></path><path d="M 115 559 L 129.5 559 L 131 560.5 L 130.5 565 L 129 562 L 121 562 L 121 568.5 L 122 568.5 Q 121.2 565.5 125 567 L 124.5 575 L 122.5 571 L 121 572.5 L 121 580 L 128.5 580 Q 129.8 576.2 134 577 L 132 582 L 113 583 L 115 579.5 L 115 559 Z "></path><path d="M 165 559 L 183.5 559 L 191 564.5 L 192 572.5 L 185.5 580 L 173.5 582 L 171.5 582 L 165 581.5 L 167 581 L 168 573.5 L 167 568.5 L 168 563.5 L 167 561 Q 164 562 165 559 Z M 175 562 L 173 564 Q 171 575 176 580 L 182 578 Q 186 575 184 566 L 182 563 Q 176 565 175 562 Z "></path><path d="M 245 559 L 252 559 L 252 561.5 L 251 562.5 L 251 578.5 L 253 583 L 246.5 582 L 245 582.5 L 246 579.5 L 245 577.5 L 246 576.5 L 246 561.5 L 245 559 Z "></path><path d="M 298.5 577 L 302 579.5 L 301 583 Q 297.2 584 296 581.5 Q 294.5 577.1 297.5 578 L 298.5 577 Z "></path><path d="M 338.5 589 L 339 592.5 L 338 592.5 L 338.5 589 Z "></path><path d="M 342.5 590 Q 345.5 591.5 342.5 593 L 342.5 590 Z "></path></svg>