<svg width="350" height="600" version="1.1" xmlns="http://www.w3.org/2000/svg" desc="Created with imagetracer.js version 1.2.5"><path d="M 6 6 L 29.5 7 L 30.5 6 L 111.5 6 L 114 6.5 Q 112.3 11.3 116.5 10 L 116 11.5 L 117 18 L 113 17 L 111.5 13 L 110 16 Q 105.4 16.6 103.5 13 L 103 15 L 99.5 14 L 98 14.5 Q 98.7 11.9 96 13 Q 97.3 16 93.5 15 Q 92 17.5 90.5 14 Q 87.5 13.2 89 17 L 85.5 17 L 83 16 Q 84.5 19.7 81.5 19 L 79.5 20 L 77 19 L 75.5 23 L 73.5 22 Q 70.8 23.3 73 24.5 L 71.5 27 L 69.5 26 L 68 28.5 Q 70.3 29.8 67.5 31 L 66.5 29 L 65 31.5 L 66 33.5 Q 64.3 36.8 62.5 33 Q 59.2 31.9 60 34.5 L 61 37 L 63.5 36 Q 66.5 37.5 63.5 39 L 62 38.5 L 63 42.5 L 61 46.5 L 63 46.5 L 63 52 Q 58.9 50.7 60 54 L 63 54 L 63 59 L 60 60.5 Q 61.3 63.3 62.5 61 Q 65.1 60.2 64 63.5 L 65 66 Q 60.9 64.7 62 68 L 66 67 L 67 70.5 L 65 74 L 69 74 L 69 75.5 L 70 77.5 L 69 80 L 71.5 79 L 73 81.5 L 72 84.5 L 75 83.5 Q 73.3 88.8 78.5 87 L 82 89 Q 83.3 92.7 77.5 91 L 71 94 L 72 99 L 76 99 L 76 97.5 L 78 96.5 L 79.5 99 L 80 96 L 84 96.5 L 83 99.5 L 87 97.5 L 87.5 100 L 88 98 L 98.5 101 L 103 97.5 L 101.5 97 Q 100.1 99.6 95.5 99 Q 92.3 98.3 93 93.5 L 94.5 94 L 97.5 95 L 103 91.5 L 102.5 90 Q 101.1 93.6 95.5 93 L 93 92 L 94 81.5 L 102 59.5 L 113 41.5 L 119.5 34 L 122.5 32 L 128.5 29 Q 131.4 30.6 130.5 36 L 131 29.5 L 129.5 27 L 135 29.5 L 136 33.5 L 132 48.5 L 129.5 52 L 128 47.5 L 128 45.5 L 127.5 44 L 125 49.5 L 127 49.5 L 128.5 60 L 130 59.5 Q 130 65.5 127 68.5 L 127 72.5 L 130 82.5 L 126.5 84 Q 124.8 80.3 123 83.5 Q 122.1 91.4 127.5 93 L 133.5 95 L 136 94 L 136 92 Q 133.3 93.1 134 90.5 L 132 87.5 L 135 89.5 Q 134.3 91.8 136.5 91 L 139 92.5 L 139 90 Q 136.3 91.1 137 88.5 L 134 85.5 L 131 76.5 L 133 77.5 L 135.5 84 L 136 80.5 L 135 78.5 L 136 78.5 L 140 87 L 145 90.5 L 149 96.5 L 149 99 L 147 99.5 Q 149.4 104.6 155.5 106 L 156 103.5 Q 153.5 102 155 96.5 L 156 96.5 L 156.5 102 L 157.5 97 L 158 101 L 161 100.5 Q 158.1 96.9 159 89.5 L 157.5 88 Q 156.5 92 150.5 91 L 147 88.5 L 145.5 86 Q 142.5 86.9 144 82.5 L 142.5 79 L 140 80 L 135 69.5 Q 136.4 59.2 133 55 Q 130.3 56.1 131 53.5 L 136 40.5 L 137 30.5 L 132.5 23 L 130 24 L 129.5 21 L 127 22 L 126.5 18 L 124 19 L 123.5 15 L 121 16 L 122 13.5 L 119 11.5 L 120 8.5 L 117 7.5 Q 116.3 5.3 118.5 6 L 119.5 7 L 135.5 7 Q 137 4.5 142.5 6 L 144.5 6 L 188.5 6 L 191.5 7 L 194.5 6 L 195.5 7 L 239.5 7 L 241.5 6 L 243.5 7 L 247.5 6 L 248.5 7 L 326.5 7 L 331.5 9 L 333.5 8 L 335 9.5 L 336 203.5 L 337 207.5 L 337 209.5 L 336 217.5 L 337 219.5 L 336 220.5 L 336 249.5 L 337 250.5 L 337 258.5 L 336 259.5 L 336 275.5 L 337 278.5 Q 334.3 280.3 336 286.5 L 337 288.5 L 336 293.5 Q 338.2 294.7 337 299.5 L 336 301.5 L 337 302.5 L 337 370.5 L 336 372.5 L 337 373.5 L 337 404.5 Q 339.2 405.8 338 410.5 L 337 414.5 L 338 415.5 L 338 427.5 L 337 430.5 L 337 432.5 Q 335.5 438 338 439.5 L 338 462.5 L 337 467.5 L 338 471.5 L 337 472.5 L 337 484.5 L 338 487.5 L 337 488.5 L 337 543.5 L 338 545.5 L 337 550.5 L 337 552.5 Q 335.3 558.8 338 560.5 L 337 561.5 L 337 588.5 L 339 592 L 336.5 593 L 332.5 592 L 331.5 593 L 314.5 593 L 313.5 592 L 300.5 592 L 299.5 591 L 298.5 592 L 139.5 592 L 137.5 593 L 136.5 592 L 124.5 592 L 122.5 593 L 120.5 593 L 117.5 592 L 113.5 593 L 111.5 592 L 110.5 593 L 58.5 593 L 56.5 594 L 54.5 593 L 52.5 594 L 51.5 593 L 35.5 593 Q 33.7 595.8 27.5 594 L 23.5 593 L 21.5 594 L 19.5 593 L 17.5 594 L 15.5 594 L 5.5 594 L 4 592.5 L 3 577.5 L 4 576.5 L 4 563.5 Q 1.8 562.3 3 557.5 L 3 555.5 L 4 552.5 L 4 488.5 L 5 487.5 L 5 471.5 L 4 470.5 L 4 427.5 L 5 425.5 L 4 424.5 L 4 416.5 L 5 413.5 L 5 411.5 L 4 408.5 L 5 405.5 L 5 401.5 L 5 390.5 L 4 389.5 L 5 388.5 L 5 335.5 Q 2.5 334 4 328.5 L 5 326.5 L 4 325.5 L 4 315.5 L 5 312.5 L 4 311.5 L 4 293.5 L 5 290.5 L 4 285.5 L 5 284.5 L 5 274.5 L 5 272.5 L 4 269.5 L 5 266.5 L 4 258.5 L 5 256.5 L 4 255.5 L 4 166.5 Q 6.3 165.3 5 160.5 L 5 158.5 L 5 107.5 L 6 104.5 L 6 102.5 L 6 6 Z M 157 8 L 151 10 Q 145 12 144 19 L 144 21 L 143 24 Q 141 35 147 41 Q 146 43 149 42 Q 153 43 152 48 L 157 50 L 158 52 L 159 61 L 166 65 Q 168 64 167 68 L 167 70 Q 166 72 169 71 L 170 68 Q 169 63 174 65 L 175 69 Q 176 76 173 79 L 174 82 L 174 89 L 172 97 L 170 99 Q 169 101 172 100 L 196 61 Q 195 58 198 59 Q 199 56 201 61 L 195 86 L 195 87 L 227 63 L 231 65 Q 237 62 238 54 Q 239 48 236 46 L 233 43 L 228 42 L 224 44 Q 220 45 222 41 L 222 39 L 223 37 Q 222 28 216 24 Q 217 21 214 22 L 213 18 Q 214 15 211 16 L 211 12 L 210 14 L 209 13 Q 206 14 207 12 L 198 8 L 157 8 Z M 311 9 L 311 20 L 313 28 L 313 47 L 314 48 L 314 61 L 313 63 Q 308 63 306 59 Q 303 60 304 58 L 265 28 L 255 24 L 271 86 L 269 87 L 229 66 L 226 66 L 200 87 Q 197 86 198 89 L 195 91 L 191 89 L 195 78 L 195 72 L 199 64 L 198 61 Q 193 66 192 74 L 173 104 Q 172 106 176 105 L 178 113 L 183 103 L 189 100 L 191 101 L 188 102 L 182 110 L 183 112 L 184 110 Q 183 107 186 108 L 187 108 L 185 116 L 186 117 L 190 114 L 187 118 L 188 120 L 191 119 Q 193 113 189 112 L 189 107 Q 190 104 192 106 L 202 104 L 204 105 L 206 103 L 216 102 L 221 100 Q 226 102 224 96 L 221 97 L 214 96 L 212 96 L 201 95 L 203 92 Q 205 93 204 90 L 212 86 L 224 75 L 224 77 L 217 83 Q 212 85 215 87 Q 214 90 222 88 L 224 88 L 228 83 L 228 78 L 225 73 L 230 73 L 238 77 L 248 84 L 253 85 L 260 89 L 265 94 L 269 95 L 275 100 L 281 102 L 277 84 L 275 81 L 274 71 L 272 67 L 269 52 L 266 45 Q 265 39 268 38 L 278 44 L 279 47 L 283 49 L 286 54 L 289 55 L 290 58 L 319 82 L 320 80 L 322 81 L 322 79 L 322 63 L 321 62 L 322 59 L 321 57 L 322 55 L 321 31 L 321 29 L 320 27 L 321 24 L 321 9 L 311 9 Z M 130 36 L 129 40 L 130 40 L 130 36 Z M 129 40 L 128 44 L 129 44 L 129 40 Z M 125 50 L 124 53 L 125 53 L 125 50 Z M 124 53 L 122 56 L 123 58 L 124 56 L 124 53 Z M 121 60 L 119 65 L 121 64 L 121 60 Z M 128 60 L 125 66 L 126 68 L 128 63 L 128 60 Z M 147 61 L 147 64 L 149 65 Q 150 60 147 61 Z M 152 62 L 151 64 L 151 66 L 150 68 L 154 73 L 162 90 L 164 83 L 165 83 L 163 88 Q 161 93 165 95 L 165 89 L 171 78 L 173 71 L 172 67 L 168 74 L 168 77 L 164 77 L 164 79 Q 163 81 159 80 L 158 73 Q 154 72 155 66 L 152 62 Z M 119 65 L 114 74 L 115 75 L 119 68 L 119 65 Z M 124 70 L 119 78 L 120 79 L 124 72 L 124 70 Z M 152 71 L 151 75 L 154 77 L 152 71 Z M 114 75 L 110 80 L 111 81 L 114 77 L 114 75 Z M 155 78 L 155 83 L 156 83 Q 157 79 155 78 Z M 119 79 L 117 82 L 119 81 L 119 79 Z M 110 81 L 106 86 L 107 87 L 110 83 L 110 81 Z M 117 82 L 115 84 Q 116 86 113 85 L 112 88 L 113 89 L 117 84 L 117 82 Z M 170 83 L 166 92 L 167 94 Q 166 96 169 95 L 171 88 Q 172 84 170 83 Z M 105 88 L 103 90 L 105 90 L 105 88 Z M 105 90 Q 104 97 107 102 Q 110 108 117 108 Q 118 111 116 110 L 114 110 L 111 112 L 113 114 Q 120 115 123 112 L 122 109 L 124 108 L 123 106 L 125 105 L 127 105 L 127 107 L 131 106 L 131 108 L 133 107 L 134 108 L 131 110 Q 128 109 129 112 L 131 111 Q 135 110 136 113 L 133 120 Q 138 121 139 119 L 137 118 L 139 115 Q 140 110 145 111 L 146 115 L 151 119 L 149 120 L 149 119 L 143 115 Q 144 112 141 113 L 140 117 L 147 122 L 155 120 Q 157 119 156 116 Q 155 113 151 114 L 146 111 Q 144 109 145 103 L 147 101 L 144 97 L 136 98 L 133 100 L 126 100 L 122 98 L 119 92 L 117 93 L 111 90 L 109 91 L 105 90 Z M 301 93 L 297 94 L 296 97 L 299 98 L 302 103 L 308 106 L 307 104 L 309 99 L 308 97 Q 307 92 301 93 Z M 67 96 L 67 98 L 70 99 Q 72 95 67 96 Z M 165 97 L 161 103 L 164 104 L 167 111 L 169 110 L 169 105 L 165 97 Z M 239 100 L 237 107 Q 236 110 232 109 L 230 115 L 228 116 Q 229 113 226 114 L 223 120 Q 222 122 225 121 L 221 126 L 222 128 Q 229 121 233 112 L 234 112 L 227 124 L 228 126 L 230 122 L 231 122 L 229 127 L 235 122 L 231 127 L 232 128 L 238 123 L 238 125 L 233 129 L 237 131 L 237 130 Q 235 128 238 127 L 238 129 L 240 128 L 242 129 L 244 128 L 245 128 L 243 130 L 237 132 L 237 133 L 242 132 L 243 132 Q 244 134 241 133 L 239 136 L 240 137 L 236 135 L 235 138 L 237 137 L 237 139 L 239 139 L 238 141 L 239 143 L 238 142 L 237 146 L 240 148 L 244 149 L 248 147 Q 249 143 244 145 L 242 142 L 250 143 L 250 140 Q 246 141 247 139 L 253 136 L 253 133 L 246 134 Q 246 129 251 127 L 259 127 L 260 128 L 262 127 Q 263 124 260 125 Q 259 122 263 123 L 265 119 L 263 118 L 258 121 L 254 121 L 256 120 L 257 118 L 253 118 L 248 123 L 244 124 L 238 121 L 238 119 L 234 119 Q 233 116 236 117 L 235 116 L 237 116 L 241 113 L 240 110 L 241 106 Q 243 99 239 100 Z M 210 106 L 208 108 L 210 111 L 210 116 L 207 123 L 206 115 L 204 112 Q 199 110 200 114 L 197 115 L 195 119 L 196 122 L 195 125 L 196 129 L 196 131 Q 194 137 197 139 L 197 165 L 199 174 L 198 177 L 199 179 L 199 225 L 200 226 L 199 231 L 202 232 L 204 240 Q 202 246 206 245 L 211 256 L 210 263 L 216 264 Q 218 263 217 266 L 218 266 L 217 239 L 216 238 L 216 182 L 215 181 L 215 167 L 213 165 L 215 162 L 212 158 L 212 149 L 209 148 L 207 144 L 206 134 L 203 135 L 199 130 L 201 122 L 199 119 L 200 117 L 202 118 L 203 118 L 201 126 L 202 130 Q 204 133 205 130 L 203 126 L 204 126 Q 203 128 206 127 L 209 123 L 209 126 L 206 128 L 208 128 L 209 132 L 210 132 L 209 128 L 211 127 L 212 127 L 210 134 L 215 142 Q 216 144 214 143 L 211 138 L 210 138 L 210 142 L 216 147 L 219 146 L 221 141 L 222 139 L 220 140 L 214 138 L 213 136 L 214 131 L 214 113 L 210 106 Z M 126 107 L 125 109 L 128 110 L 126 107 Z M 150 107 L 149 109 L 151 110 L 150 107 Z M 185 110 L 182 114 L 183 116 L 182 118 L 183 119 L 185 113 L 185 110 Z M 172 111 L 172 113 L 174 112 L 172 111 Z M 128 113 L 128 119 L 128 121 L 128 131 L 127 132 L 127 141 L 128 142 L 127 143 L 127 160 L 126 161 Q 129 164 127 173 L 128 174 L 127 178 L 127 199 L 126 201 L 126 203 L 127 208 L 126 211 L 127 215 L 126 241 L 123 257 L 124 258 L 124 268 L 125 269 L 124 270 L 124 281 L 123 282 L 124 285 L 123 301 L 122 302 L 122 314 L 121 315 L 120 357 L 119 358 Q 118 362 120 364 Q 118 367 119 375 L 118 376 L 117 416 L 111 424 Q 112 427 109 426 L 105 431 Q 104 434 107 433 L 108 436 Q 111 437 110 435 L 110 433 Q 113 428 119 428 L 120 424 L 120 414 L 124 413 L 125 415 L 125 423 L 128 426 L 129 436 L 132 441 L 137 437 L 140 430 L 143 429 L 146 431 L 151 430 L 153 428 Q 152 420 155 418 L 155 405 L 162 402 Q 164 403 162 405 L 162 409 L 166 418 L 166 421 Q 170 422 168 417 L 172 416 L 177 417 L 178 420 L 176 426 L 180 427 L 181 430 Q 184 434 191 434 L 192 428 Q 197 424 197 418 L 202 418 L 206 416 L 208 422 L 211 424 L 222 426 L 224 430 L 226 431 L 232 432 L 231 436 L 225 433 L 222 433 L 219 429 L 215 432 L 212 432 L 209 431 L 210 433 L 209 440 L 198 445 L 190 443 L 188 445 L 183 446 Q 179 445 180 448 L 187 449 L 195 449 L 203 447 L 219 451 L 220 454 L 211 457 L 209 456 L 206 457 L 207 459 Q 211 460 213 457 L 215 458 L 228 458 L 229 459 L 229 455 Q 232 453 239 454 L 242 452 L 241 448 L 243 444 Q 240 442 241 438 L 237 434 L 235 435 L 230 427 L 229 416 L 227 411 L 226 391 L 224 382 L 224 366 L 222 359 L 222 348 L 223 347 L 221 330 L 218 321 L 220 321 L 214 316 L 212 313 Q 210 308 204 308 L 205 314 L 205 333 L 206 334 L 206 368 L 208 376 L 209 376 Q 208 372 211 373 Q 214 374 213 380 L 213 382 L 214 394 L 215 395 L 213 400 L 216 410 L 213 411 L 210 402 L 209 413 Q 212 414 208 416 L 204 411 L 204 397 L 205 396 L 205 380 L 201 369 L 201 354 L 202 353 L 201 352 L 201 316 L 198 308 L 199 306 Q 200 303 198 304 L 193 296 L 195 290 L 190 286 L 189 288 L 173 285 Q 169 283 170 276 L 177 272 L 173 267 L 175 264 L 177 264 L 174 257 L 174 255 Q 173 251 177 252 L 178 249 L 184 245 Q 186 246 185 244 L 182 241 Q 179 240 180 236 L 178 237 L 179 246 Q 177 249 172 247 L 172 232 L 171 231 Q 170 226 172 225 L 169 213 L 172 214 L 174 213 Q 175 208 173 206 L 171 209 Q 172 213 169 212 L 170 209 L 169 205 L 173 204 Q 175 203 173 202 L 174 197 L 179 195 L 175 188 L 175 185 L 178 179 L 177 176 Q 175 170 180 171 L 179 173 L 180 177 L 178 184 L 178 186 L 179 189 L 182 191 L 180 184 L 182 179 Q 184 181 183 186 L 190 196 L 191 201 L 189 205 Q 187 209 191 208 Q 192 206 193 209 L 192 214 Q 193 216 190 215 L 190 210 L 186 211 L 187 219 L 190 221 Q 193 220 191 228 L 196 230 L 196 198 L 196 196 L 196 188 L 195 187 L 196 184 L 195 182 L 195 169 L 194 168 L 193 129 L 191 126 L 193 122 Q 194 119 192 120 L 188 127 L 186 128 L 182 130 L 175 128 L 169 121 L 169 118 L 162 121 L 159 119 Q 154 124 146 125 L 141 123 Q 133 124 129 122 L 132 114 L 128 113 Z M 163 113 Q 161 116 164 115 L 163 113 Z M 288 113 L 284 115 Q 286 119 288 116 L 292 121 L 292 124 L 294 123 L 298 125 L 300 124 L 298 117 Q 296 112 288 113 Z M 33 114 L 27 117 L 19 125 L 16 138 Q 15 144 18 147 L 21 149 L 21 150 L 25 150 L 27 153 L 28 153 L 28 157 Q 33 156 36 160 L 36 163 L 32 169 Q 33 171 31 170 L 30 171 L 27 168 L 21 169 L 19 163 L 12 164 L 14 169 L 12 170 L 9 168 L 7 171 L 8 173 L 7 183 L 7 185 L 7 212 L 10 215 Q 13 216 12 214 L 12 212 L 16 212 L 21 216 L 23 216 L 27 212 L 31 213 Q 33 214 32 211 L 37 210 L 40 203 L 40 196 L 38 195 L 38 193 Q 41 194 40 192 L 44 188 L 45 189 Q 46 186 50 187 L 49 190 L 50 191 L 50 200 L 56 204 L 60 202 L 63 203 L 68 201 Q 71 202 69 197 Q 70 194 75 195 L 76 198 Q 77 202 74 204 L 76 209 L 83 213 L 85 213 L 91 208 L 94 208 L 93 213 Q 94 215 99 214 L 104 208 Q 110 207 111 212 Q 109 217 115 215 L 119 210 Q 125 211 124 209 L 124 207 L 123 205 Q 122 199 124 198 L 124 167 L 122 168 Q 117 169 119 165 L 114 164 L 112 168 L 110 169 L 105 168 L 105 164 L 107 164 L 108 163 Q 107 157 109 156 L 107 142 Q 105 138 100 139 Q 95 142 94 149 L 95 152 L 91 152 L 91 151 L 89 152 Q 86 153 87 150 Q 86 147 85 149 L 81 148 Q 83 142 80 140 Q 77 141 78 138 Q 75 137 74 140 L 72 139 Q 67 137 68 141 L 61 145 L 58 141 L 54 140 Q 53 137 57 138 L 56 135 L 59 131 Q 60 120 55 117 Q 54 120 50 119 L 47 115 L 46 119 L 41 120 Q 38 119 38 116 L 35 114 L 33 114 Z M 171 115 L 169 118 L 171 117 L 171 119 L 177 123 L 171 115 Z M 176 116 L 176 118 Q 178 121 179 118 Q 180 114 176 116 Z M 312 116 L 312 118 L 312 120 Q 311 122 314 121 L 315 126 L 323 130 L 324 127 Q 321 126 322 122 Q 319 116 312 116 Z M 181 121 L 182 124 L 183 122 L 181 121 Z M 187 121 L 185 125 L 183 126 Q 185 129 187 125 L 187 121 Z M 219 123 L 215 128 L 216 129 L 221 125 Q 222 122 219 123 Z M 218 128 L 216 130 L 217 135 L 219 134 L 218 128 Z M 220 128 L 220 131 L 221 131 Q 222 127 220 128 Z M 232 130 L 230 132 L 232 132 L 232 130 Z M 270 130 L 268 132 L 269 134 L 267 138 L 268 141 Q 270 145 277 144 L 276 143 L 277 139 L 277 136 L 275 132 L 270 130 Z M 227 133 L 225 135 Q 224 138 229 136 L 230 138 L 228 137 Q 223 136 224 139 L 230 141 Q 232 142 231 138 L 234 138 L 234 137 Q 233 134 229 135 L 227 133 Z M 302 140 L 297 142 Q 296 145 300 144 L 300 148 Q 303 151 309 151 L 306 142 Q 305 139 302 140 Z M 267 153 L 264 154 Q 262 158 266 157 L 267 161 L 274 166 L 276 166 L 273 156 Q 272 152 267 153 Z M 321 158 L 319 164 L 328 170 L 329 166 L 327 159 L 323 158 L 321 158 Z M 240 161 L 238 162 L 234 164 L 234 165 L 239 165 L 241 172 L 247 175 L 251 174 L 251 171 L 248 164 L 240 161 Z M 299 164 L 297 165 Q 294 166 295 170 L 298 172 L 307 176 L 306 168 Q 305 163 299 164 Z M 277 179 L 268 184 L 263 192 Q 264 196 259 194 L 260 199 L 258 202 L 257 200 Q 253 199 255 205 L 257 204 L 260 209 L 261 210 L 261 218 L 257 219 L 251 209 L 249 208 L 246 209 L 244 212 L 242 211 L 239 209 L 234 215 L 234 220 Q 238 220 237 225 L 233 229 L 232 228 L 230 229 L 227 227 L 224 228 L 222 233 Q 224 239 220 238 L 221 243 L 222 268 L 227 273 L 232 260 L 235 259 L 240 269 L 240 273 L 247 272 L 249 272 L 252 271 L 258 272 L 265 281 Q 264 284 267 283 L 266 277 Q 264 275 267 274 L 277 277 L 276 275 L 282 271 Q 284 270 283 273 L 287 272 L 289 265 L 293 261 L 292 260 L 293 257 L 292 256 L 290 254 Q 291 251 295 251 L 297 255 Q 296 258 300 256 L 302 262 L 309 265 Q 317 267 321 264 Q 326 261 327 254 L 326 248 Q 327 245 332 246 Q 333 249 330 248 L 330 256 L 328 261 L 320 267 Q 317 266 318 269 L 313 273 L 314 277 L 313 279 L 310 278 L 308 281 L 304 281 L 299 278 L 296 279 L 291 284 L 289 292 L 290 297 L 296 306 L 299 307 L 308 305 Q 310 304 309 307 L 311 307 Q 312 310 310 309 L 306 314 Q 305 320 308 322 Q 307 325 310 324 L 313 327 L 314 326 L 316 327 L 322 327 L 322 324 L 325 323 Q 328 324 327 329 Q 332 330 333 328 L 333 195 Q 333 194 329 194 L 327 192 L 318 188 L 317 191 Q 318 193 315 192 Q 312 193 314 195 Q 316 200 313 199 Q 309 200 310 205 L 308 206 Q 303 205 304 208 Q 299 210 301 204 L 298 203 Q 295 202 297 201 L 297 196 L 294 189 L 283 180 L 277 179 Z M 240 185 L 235 189 L 241 191 L 242 194 Q 244 198 250 197 L 250 194 L 247 188 Q 246 184 240 185 Z M 183 191 L 181 193 L 184 199 Q 185 206 182 209 L 183 213 L 183 210 L 185 210 L 184 208 L 185 208 Q 184 210 187 209 L 187 203 L 188 202 L 187 200 L 188 197 L 186 192 L 185 195 L 183 191 Z M 176 197 L 176 205 L 178 205 L 178 208 L 178 209 L 181 207 L 181 197 L 180 204 Q 177 205 178 203 L 178 201 Q 179 196 176 197 Z M 90 210 L 87 213 L 87 218 L 84 225 L 82 226 Q 77 227 78 233 L 82 234 L 86 242 Q 85 249 88 252 Q 92 248 93 242 Q 92 239 95 240 L 90 229 Q 92 223 91 215 L 92 214 Q 94 209 90 210 Z M 49 211 Q 47 216 50 219 L 52 220 L 60 221 L 61 217 L 60 213 Q 53 214 49 211 Z M 174 214 L 172 217 L 175 219 L 176 216 L 175 216 L 174 214 Z M 185 214 L 183 217 L 182 216 L 180 217 L 179 216 L 178 218 Q 179 220 183 219 L 185 216 L 185 214 Z M 36 218 L 37 221 L 37 223 Q 40 222 39 225 L 49 227 L 48 222 Q 45 216 36 218 Z M 27 229 L 20 230 L 21 236 L 24 238 L 32 238 Q 33 241 36 240 L 35 234 Q 33 229 27 229 Z M 192 230 L 186 235 Q 190 237 191 244 L 191 245 L 195 244 L 196 242 Q 198 236 195 235 Q 196 232 194 233 L 192 230 Z M 7 231 L 7 239 L 17 246 L 18 243 L 18 239 L 16 234 Q 13 230 7 231 Z M 185 236 L 183 238 L 184 241 L 188 244 L 188 241 L 185 236 Z M 57 237 L 55 240 Q 53 250 57 256 Q 58 261 54 263 L 57 265 L 64 265 L 71 269 L 75 275 L 78 274 L 77 270 L 78 259 L 81 258 L 80 255 L 76 256 L 75 255 L 72 258 Q 70 256 66 257 L 63 254 L 62 248 L 59 245 L 59 240 L 57 237 Z M 97 239 L 93 249 L 101 245 L 100 248 L 102 250 Q 104 248 103 243 L 98 244 L 95 246 L 98 242 Q 100 243 99 241 L 97 239 Z M 201 239 L 199 243 L 194 246 L 191 249 L 189 255 Q 188 261 191 264 L 196 267 L 201 267 L 195 263 L 197 260 L 196 256 L 203 245 Q 200 243 201 239 Z M 186 246 L 185 247 L 182 247 L 182 253 L 179 254 Q 177 252 176 255 L 177 259 L 184 267 Q 183 269 187 268 L 189 268 L 202 274 L 201 281 L 201 283 L 202 285 L 198 286 Q 195 284 196 278 L 199 277 L 197 273 L 193 274 L 190 273 L 189 272 L 186 275 L 185 274 L 176 275 L 174 277 L 174 284 L 177 283 L 182 285 Q 185 286 184 283 L 190 283 L 196 286 L 200 291 L 198 294 L 199 302 L 203 305 L 204 304 L 209 308 Q 212 309 211 307 L 210 307 L 207 306 L 207 302 L 203 296 Q 201 289 204 288 L 203 284 Q 202 277 206 275 Q 208 276 207 273 L 210 272 Q 215 271 217 273 L 216 271 L 217 268 Q 214 269 213 266 Q 210 265 211 268 L 204 272 L 202 271 Q 199 272 200 269 L 195 269 Q 193 266 190 267 L 185 258 Q 184 249 189 247 L 186 246 Z M 204 248 L 202 255 L 206 254 L 204 248 Z M 98 249 L 92 252 Q 92 263 99 269 Q 100 271 97 270 L 90 261 L 86 262 L 82 260 L 79 264 Q 77 270 80 272 Q 79 275 83 273 L 83 275 L 91 275 Q 92 278 88 277 L 89 279 L 92 279 L 98 273 Q 97 270 100 271 Q 101 276 96 278 L 97 279 L 110 271 L 112 272 Q 113 275 115 271 L 101 250 L 98 249 Z M 89 252 L 88 255 L 89 258 Q 88 260 91 259 L 90 257 Q 92 251 89 252 Z M 16 255 L 17 259 L 16 261 L 18 266 L 23 270 L 25 270 L 26 268 L 24 258 Q 22 254 16 255 Z M 207 255 L 206 258 L 207 258 L 207 255 Z M 202 256 L 201 261 L 202 261 L 202 256 Z M 37 258 L 36 262 L 37 262 L 37 258 Z M 178 264 L 177 267 L 181 270 L 178 264 Z M 233 264 L 232 267 L 233 267 L 233 264 Z M 7 266 L 7 271 L 11 279 Q 12 281 16 280 L 15 278 L 17 275 L 16 270 Q 14 265 7 266 Z M 202 266 L 203 268 L 205 267 L 206 268 L 206 266 L 202 266 Z M 232 267 L 231 271 L 232 271 L 232 267 Z M 231 272 L 230 276 L 231 276 L 231 272 Z M 224 274 L 222 276 Q 221 278 224 277 L 224 274 Z M 250 274 L 248 275 L 243 285 L 244 288 Q 245 281 251 277 L 253 278 L 249 286 L 249 294 Q 252 295 251 292 L 254 290 Q 255 288 256 291 L 255 296 L 264 300 L 266 302 L 263 291 L 263 285 L 258 275 Q 256 273 250 274 Z M 106 275 L 105 277 L 107 276 L 106 275 Z M 212 275 L 209 276 L 210 278 L 213 276 L 212 275 Z M 112 276 L 111 279 L 112 279 L 112 276 Z M 240 276 L 238 278 L 239 279 L 241 278 Q 242 275 240 276 Z M 80 278 L 76 285 L 75 282 L 73 285 L 74 292 L 75 288 Q 74 285 77 286 L 79 282 L 84 279 L 80 278 Z M 85 278 L 85 280 L 87 279 L 85 278 Z M 99 279 L 97 280 L 92 287 Q 91 289 94 288 L 94 298 L 91 310 L 89 313 L 92 314 L 92 318 L 88 328 L 97 331 L 98 333 L 100 330 L 101 319 L 101 317 L 112 295 L 112 293 L 116 284 L 115 279 Q 111 280 112 284 Q 105 285 101 290 Q 97 289 98 292 Q 93 294 95 288 Q 101 288 105 283 Q 110 285 108 280 Q 105 279 106 282 L 101 284 Q 97 285 96 283 L 100 281 Q 101 278 99 279 Z M 111 279 L 110 282 L 111 282 L 111 279 Z M 233 279 Q 231 283 234 286 L 235 281 L 233 279 Z M 221 281 L 215 286 L 212 282 L 207 290 L 209 296 L 213 299 L 214 298 L 215 301 L 213 301 Q 212 305 215 306 L 215 304 Q 219 302 218 306 L 229 312 Q 230 315 232 311 L 222 304 L 219 301 L 213 296 L 215 292 L 222 296 L 223 300 L 232 303 L 233 307 L 237 307 L 243 310 L 250 310 L 256 314 L 261 313 L 273 318 L 276 321 L 276 320 L 267 312 L 268 310 L 266 304 L 265 306 L 265 308 L 252 299 Q 246 296 236 298 L 228 295 L 224 290 L 230 294 L 238 296 L 239 296 Q 232 293 228 287 Q 225 288 226 284 Q 224 279 223 282 L 221 281 Z M 239 281 L 238 285 L 239 289 Q 238 292 241 291 L 242 292 L 240 289 Q 239 284 241 283 Q 242 280 239 281 Z M 84 282 L 80 288 L 81 289 L 83 303 L 83 291 L 86 287 Q 87 283 84 284 L 84 282 Z M 86 282 Q 85 285 88 284 Q 89 281 86 282 Z M 92 282 L 87 288 L 88 293 Q 88 286 93 283 L 92 282 Z M 41 283 L 40 286 L 41 286 L 41 283 Z M 76 287 L 77 293 L 78 288 L 76 287 Z M 92 288 L 88 296 Q 87 302 90 305 Q 92 304 90 303 Q 93 301 91 296 Q 88 294 92 293 L 92 288 Z M 37 289 L 36 293 L 37 293 L 37 289 Z M 7 292 L 7 294 L 7 296 L 6 298 L 7 300 L 6 302 L 7 307 L 10 309 L 13 307 Q 14 303 11 304 L 12 296 L 7 292 Z M 40 292 L 41 296 L 42 293 L 40 292 Z M 78 293 L 77 297 L 78 297 L 78 293 Z M 16 295 L 15 298 L 16 298 L 16 295 Z M 73 299 L 72 302 L 73 302 L 73 299 Z M 258 299 Q 256 302 259 301 L 258 299 Z M 87 301 L 86 305 L 87 305 L 87 301 Z M 31 304 L 32 306 Q 33 303 31 304 Z M 80 304 L 78 309 Q 81 310 80 307 Q 82 305 80 304 Z M 82 306 L 81 310 L 82 310 L 82 306 Z M 84 307 Q 85 312 81 314 L 82 316 Q 81 318 84 317 L 87 309 Q 88 305 84 307 Z M 217 310 L 216 312 L 221 316 L 223 316 L 222 314 L 217 310 Z M 242 313 L 244 315 L 245 315 L 242 313 Z M 248 314 L 247 316 L 250 316 L 248 314 Z M 224 316 L 225 318 L 226 318 L 224 316 Z M 258 316 L 259 318 L 267 321 Q 276 328 281 340 L 284 341 L 292 351 L 292 354 L 290 354 L 291 362 L 292 362 Q 291 357 295 359 L 296 362 L 296 365 L 293 370 L 297 368 Q 299 367 298 370 L 301 371 Q 304 370 302 374 L 305 374 L 304 376 L 306 382 Q 305 385 308 384 L 311 389 L 307 408 L 302 415 L 303 416 L 305 415 L 309 410 Q 312 409 311 412 L 307 415 L 310 424 L 311 424 L 310 421 L 311 416 L 314 425 L 315 425 L 313 418 L 314 416 L 316 421 L 317 421 L 315 414 L 320 416 L 321 417 L 320 414 Q 317 415 318 412 L 316 413 L 316 412 Q 317 408 314 409 L 314 403 L 316 400 L 318 389 L 321 384 L 322 379 L 317 372 Q 318 365 316 366 L 314 366 L 316 371 L 315 372 L 312 369 L 309 372 L 310 381 L 312 384 L 310 384 L 308 382 L 308 380 L 306 374 L 307 369 L 311 367 L 308 366 L 306 368 L 303 367 Q 304 369 301 368 L 301 367 Q 302 364 300 365 L 301 363 L 303 364 L 306 363 L 312 365 L 311 362 Q 305 361 304 363 L 297 360 L 294 356 L 293 349 L 291 346 L 288 343 L 281 336 Q 280 329 277 326 L 272 320 L 265 319 L 258 316 Z M 9 317 L 7 319 L 7 326 L 9 326 L 9 328 L 17 332 L 19 331 L 17 328 L 18 324 L 18 322 L 13 317 L 11 318 L 9 317 Z M 81 318 L 81 323 L 84 321 L 86 323 L 87 320 L 86 320 Q 83 321 84 318 L 81 318 Z M 229 319 L 232 326 Q 231 328 234 327 L 235 330 L 240 333 L 237 330 L 239 328 L 244 330 L 245 333 L 247 332 L 255 336 L 258 335 L 259 339 L 254 338 L 256 341 L 260 340 L 262 343 L 265 351 Q 267 357 263 356 Q 263 361 267 364 L 268 373 L 269 373 L 268 365 Q 270 362 271 365 Q 270 367 273 366 L 274 361 Q 277 360 276 363 L 277 363 Q 278 359 275 360 L 276 357 L 266 337 L 262 333 L 253 332 L 254 328 L 246 322 L 244 323 L 236 322 L 229 319 Z M 48 320 L 45 322 L 47 322 L 48 323 L 48 320 Z M 83 323 L 82 325 L 85 326 Q 86 328 87 326 L 83 323 Z M 259 323 L 259 326 L 267 331 L 261 325 Q 262 322 259 323 Z M 43 325 L 38 329 L 41 330 L 40 329 L 43 328 L 43 325 Z M 53 325 L 51 327 L 54 327 Q 55 324 53 325 Z M 47 327 L 47 332 L 48 332 Q 49 328 47 327 Z M 44 329 L 43 332 L 45 332 L 44 329 Z M 52 329 L 51 332 L 52 332 L 52 329 Z M 61 329 L 60 332 L 61 332 L 61 329 Z M 55 330 L 54 339 L 55 339 L 55 330 Z M 28 331 L 26 333 L 27 335 L 30 334 L 32 335 L 32 334 L 28 331 Z M 33 331 L 36 335 L 39 333 L 33 331 Z M 46 333 L 46 336 Q 49 335 46 333 Z M 60 333 L 59 335 L 61 336 L 60 333 Z M 241 333 L 244 336 L 246 336 L 245 334 L 244 334 L 241 333 Z M 273 334 L 270 340 L 274 338 L 280 350 Q 279 353 282 352 L 283 353 L 278 341 L 273 334 Z M 30 336 L 29 339 L 30 339 L 30 336 Z M 51 336 L 49 339 L 51 338 L 51 336 Z M 58 336 Q 55 337 57 339 L 56 343 L 57 350 L 58 350 L 57 346 L 58 344 L 58 336 Z M 62 336 L 61 338 L 64 338 L 62 336 Z M 247 336 L 249 338 L 251 338 L 247 336 Z M 15 338 L 8 344 Q 7 346 11 345 L 12 348 L 21 351 L 22 352 L 21 350 L 22 347 L 21 342 Q 19 338 15 338 Z M 40 338 L 39 341 L 40 341 L 40 338 Z M 48 338 L 46 344 L 48 343 L 48 338 Z M 31 339 L 31 342 L 30 351 L 32 350 L 32 341 L 31 339 Z M 52 341 L 52 344 L 55 342 L 52 341 Z M 44 342 L 43 344 L 42 346 L 45 345 L 44 342 Z M 275 344 L 274 347 L 275 347 L 275 344 Z M 47 348 L 47 350 Q 45 354 44 351 L 43 353 L 40 354 L 39 357 L 40 358 L 44 357 L 46 361 L 47 362 L 45 361 L 42 363 Q 43 365 47 365 L 48 368 Q 50 372 56 372 L 58 369 L 57 354 L 56 354 L 52 349 L 50 350 L 47 348 Z M 69 348 L 69 350 L 71 349 L 69 348 Z M 89 349 Q 87 352 90 351 L 89 349 Z M 32 351 L 31 353 L 33 354 L 32 351 Z M 285 355 L 284 358 L 285 360 L 287 357 L 285 355 Z M 280 359 L 280 362 L 282 361 Q 283 358 280 359 Z M 261 360 L 260 364 L 259 364 L 257 364 Q 258 367 255 366 L 249 377 Q 250 380 246 378 L 243 384 L 243 388 Q 244 390 246 388 L 249 389 L 249 387 L 247 387 L 249 386 Q 248 388 252 387 Q 254 388 253 392 L 258 389 Q 260 388 259 391 L 261 390 L 260 385 L 259 387 L 258 386 L 256 387 L 252 385 L 250 386 Q 249 382 255 384 L 256 385 L 256 383 L 249 383 Q 247 387 245 384 L 249 381 Q 256 380 259 383 Q 261 382 260 385 L 264 384 Q 267 385 266 383 L 266 381 Q 268 380 267 383 L 269 383 L 268 380 L 266 378 L 266 377 L 265 375 L 266 372 L 263 368 L 263 363 L 261 360 Z M 286 361 L 285 362 Q 282 361 283 364 L 277 365 L 275 371 L 276 374 L 272 379 L 273 384 L 273 386 Q 270 388 271 394 L 270 392 L 266 391 Q 265 394 268 393 Q 269 397 264 395 L 260 401 L 261 403 L 262 405 L 263 405 L 263 400 L 266 400 L 268 396 L 271 396 Q 270 399 273 398 L 274 394 Q 273 390 277 392 Q 276 388 279 387 L 282 388 L 279 390 L 281 396 L 277 399 L 277 400 L 282 400 L 290 397 L 290 394 L 286 397 L 282 396 Q 281 392 284 391 L 288 392 L 288 388 L 291 387 Q 293 388 292 385 L 288 386 L 286 383 L 283 382 Q 284 379 282 380 L 282 382 L 281 384 Q 282 386 278 385 L 276 382 L 279 383 L 281 378 L 276 380 L 274 380 L 277 378 L 279 374 Q 282 373 281 376 Q 285 377 286 375 L 283 371 L 286 369 L 287 365 L 286 361 Z M 37 363 L 35 365 L 37 365 L 37 363 Z M 96 363 L 94 366 Q 93 370 96 369 L 96 363 Z M 290 364 L 291 366 Q 292 363 290 364 Z M 17 365 L 15 367 Q 12 366 13 371 Q 14 373 18 372 Q 20 377 26 378 L 27 376 L 27 374 L 25 369 Q 24 364 17 365 Z M 35 367 L 34 370 L 35 370 L 35 367 Z M 91 369 L 84 373 L 80 372 L 80 374 Q 79 376 82 375 L 84 381 L 81 382 L 86 389 L 89 389 L 94 386 L 93 383 L 90 384 L 92 378 L 90 379 L 88 378 L 91 373 L 91 369 Z M 289 369 L 287 372 L 289 372 Q 292 371 289 369 Z M 73 371 L 68 374 L 68 375 L 73 373 L 73 371 Z M 272 371 L 271 374 L 273 375 L 272 371 Z M 95 372 L 92 376 L 93 377 L 95 376 L 95 372 Z M 290 372 L 287 376 Q 290 377 289 374 L 292 375 L 295 375 Q 293 370 292 373 L 290 372 Z M 98 373 L 97 381 L 98 382 L 97 385 L 90 391 L 88 390 L 84 393 L 87 393 L 91 393 L 97 387 L 98 388 L 91 395 L 87 397 L 85 396 L 82 399 L 79 409 L 77 409 L 69 414 L 70 417 L 70 416 L 74 413 L 76 414 L 76 422 L 78 422 L 78 418 L 80 418 L 81 421 L 83 422 L 82 419 Q 81 416 84 417 L 86 424 L 87 424 L 86 420 L 87 417 L 92 421 L 92 419 L 84 412 L 88 403 L 99 390 L 98 386 L 99 384 L 98 373 Z M 299 373 L 297 377 L 302 378 L 301 377 Q 302 374 299 375 L 299 373 Z M 269 376 L 269 378 L 271 377 L 269 376 Z M 35 377 L 34 380 L 35 380 L 35 377 Z M 96 380 L 94 384 L 96 383 L 96 380 Z M 290 380 Q 289 383 292 382 Q 293 379 290 380 Z M 289 381 Q 287 384 290 383 L 289 381 Z M 9 382 L 9 391 L 17 395 L 19 395 Q 21 385 14 382 L 11 383 L 9 382 Z M 58 382 L 57 384 L 59 383 L 58 382 Z M 299 382 L 297 385 L 299 384 L 299 382 Z M 303 382 L 298 388 Q 299 390 301 388 L 303 389 L 304 386 L 302 386 L 303 384 L 303 382 Z M 81 383 L 80 386 L 81 386 L 81 383 Z M 54 384 L 53 385 L 50 385 L 50 387 L 38 387 L 37 390 L 38 392 L 40 391 L 42 388 L 47 390 L 38 393 L 36 393 L 34 394 L 26 404 L 24 403 Q 21 402 22 405 Q 23 407 25 405 L 29 407 L 29 408 L 24 407 L 22 410 L 20 413 Q 22 412 21 415 L 15 412 Q 11 411 10 414 Q 11 416 13 414 L 13 416 L 16 417 Q 20 416 19 419 L 14 417 L 12 421 L 9 422 Q 10 425 7 427 Q 6 429 9 428 L 12 423 L 15 421 L 10 431 Q 9 434 12 433 L 15 425 L 18 423 L 17 429 L 18 431 L 21 423 L 22 428 L 22 421 L 27 413 Q 28 409 33 409 L 32 411 Q 31 413 34 412 L 36 409 L 41 405 Q 43 404 42 400 L 40 401 L 41 403 L 38 404 L 36 401 L 36 398 L 39 397 L 43 399 L 47 397 L 48 392 L 52 388 Q 54 389 53 387 L 56 385 L 54 384 Z M 270 384 L 268 389 L 270 389 L 270 384 Z M 210 386 L 210 398 L 210 395 L 210 393 L 211 391 Q 212 387 210 386 Z M 265 387 L 262 391 L 266 389 Q 267 386 265 387 Z M 292 388 L 290 390 Q 289 392 292 391 Q 295 390 292 388 Z M 82 389 L 79 390 L 80 395 L 83 390 L 82 389 Z M 32 390 L 31 393 L 32 393 L 32 390 Z M 246 390 Q 246 393 243 392 L 244 395 L 244 393 L 247 393 L 246 390 Z M 250 391 L 249 393 L 252 395 L 250 391 Z M 258 392 Q 255 393 257 395 L 257 399 Q 254 398 255 402 L 253 402 L 252 399 L 249 397 L 246 397 Q 247 394 244 395 L 243 400 L 244 403 L 244 405 L 250 426 L 247 430 L 248 432 L 248 431 L 252 428 L 253 433 L 252 438 L 254 438 L 254 430 L 256 430 L 258 440 L 260 439 L 257 431 Q 256 428 259 429 L 261 436 L 263 436 L 259 427 L 257 428 L 254 427 L 255 425 Q 256 427 261 426 L 264 429 L 264 426 Q 263 423 259 424 L 256 422 L 256 413 L 255 412 Q 254 405 256 402 L 258 402 L 259 398 L 259 396 L 258 392 Z M 264 392 L 262 395 L 266 394 L 264 392 Z M 293 392 L 292 394 Q 294 393 293 396 L 294 396 L 293 392 Z M 29 393 L 29 395 L 31 394 L 29 393 Z M 273 398 Q 272 401 275 400 Q 276 397 273 398 Z M 292 398 L 293 400 Q 294 397 292 398 Z M 269 400 L 269 402 L 273 402 L 269 400 Z M 287 400 Q 282 403 273 403 L 276 404 Q 275 407 270 406 Q 267 405 269 404 L 269 402 L 263 410 Q 258 409 259 412 L 265 414 L 270 411 L 272 408 L 275 410 L 274 409 L 277 408 L 279 417 L 283 419 Q 284 416 281 417 Q 280 414 283 415 L 284 417 L 285 415 L 284 412 L 285 408 L 291 410 L 290 406 L 293 407 L 298 407 L 302 404 Q 301 401 300 403 Q 294 404 294 400 L 293 403 L 291 404 L 288 403 Q 289 399 287 400 Z M 291 400 L 291 403 Q 294 402 291 400 Z M 260 403 L 258 405 L 260 405 L 260 403 Z M 46 410 L 47 415 L 47 417 L 48 423 L 55 427 Q 54 422 57 420 L 56 415 L 46 410 Z M 273 411 L 271 414 L 273 413 L 273 411 Z M 9 413 L 7 415 L 9 415 L 9 413 Z M 160 418 L 159 426 L 162 425 L 160 418 Z M 84 422 L 83 426 L 84 426 L 84 422 Z M 78 424 L 77 428 L 78 428 L 78 424 Z M 88 424 L 87 429 L 88 429 L 88 424 Z M 201 424 L 203 429 L 207 430 L 208 430 L 206 426 Q 205 423 201 424 Z M 169 425 L 166 426 L 165 435 L 163 438 L 164 455 L 164 439 L 169 427 L 169 425 Z M 85 426 L 84 429 L 85 429 L 85 426 Z M 153 431 Q 143 433 138 439 Q 139 442 135 440 L 134 443 L 139 443 Q 140 448 136 451 L 136 471 Q 140 477 138 488 L 133 489 L 134 492 L 134 510 L 136 517 L 136 535 L 137 536 Q 138 540 136 542 Q 135 546 140 544 L 137 506 L 136 505 L 136 494 L 137 493 L 137 491 L 142 491 L 141 495 L 141 507 L 142 508 L 142 517 L 144 525 L 144 535 L 145 536 L 144 538 L 147 544 L 150 543 L 149 541 L 149 520 L 148 515 L 149 512 L 147 503 L 147 490 L 147 488 L 146 486 L 149 479 L 149 467 L 148 466 L 149 462 L 149 460 Q 151 454 148 453 L 151 446 L 145 443 L 146 438 L 154 432 L 153 431 Z M 160 431 L 150 441 L 154 442 Q 155 440 156 443 Q 157 448 154 449 L 154 471 L 155 472 L 154 481 L 152 483 L 153 523 L 154 524 L 153 526 Q 156 529 154 538 L 156 543 Q 155 546 159 544 Q 157 537 158 526 L 157 525 L 158 523 L 158 521 L 157 516 L 157 499 L 158 498 L 157 496 L 158 480 L 159 479 L 158 477 L 158 460 L 157 459 L 158 457 L 157 454 L 159 446 L 158 444 L 158 439 L 160 435 L 160 433 L 160 431 Z M 116 432 Q 114 437 115 445 L 113 449 Q 115 455 112 457 L 112 466 L 113 467 L 112 469 L 112 479 L 113 480 L 112 489 L 115 491 L 114 493 L 114 507 L 116 507 L 116 525 L 112 525 L 111 522 L 112 520 L 111 519 Q 113 511 110 508 L 110 506 L 110 496 L 108 495 L 109 498 L 109 516 L 109 518 Q 110 524 108 523 L 106 520 L 104 541 L 102 545 L 108 545 L 116 539 L 120 539 L 119 536 L 120 531 L 119 530 L 119 486 L 118 485 L 119 478 L 119 476 L 118 464 L 117 463 L 117 450 L 118 449 L 118 433 L 116 432 Z M 124 433 L 122 463 L 122 465 L 124 470 L 123 474 L 124 476 L 123 480 L 123 485 L 125 491 L 124 493 L 124 503 L 125 504 Q 127 510 124 512 L 124 522 L 125 523 L 124 528 L 125 530 L 125 538 L 124 539 L 124 545 L 127 545 L 129 545 L 131 544 L 132 545 Q 133 540 131 539 L 131 531 L 132 530 L 130 511 L 129 510 L 129 492 L 128 489 L 133 486 Q 134 476 131 470 L 131 453 L 128 452 Q 128 448 125 446 L 124 433 Z M 171 435 L 169 439 L 171 438 L 171 435 Z M 183 435 L 182 439 L 183 439 L 183 435 Z M 193 436 L 192 441 L 193 441 L 193 436 Z M 105 437 L 103 440 L 104 449 L 105 449 L 104 445 Q 103 441 106 442 L 108 447 L 110 446 L 111 441 L 105 439 L 105 437 Z M 63 442 L 56 448 L 57 452 L 54 454 L 48 451 L 46 449 L 42 445 L 33 445 L 32 444 L 29 446 L 26 448 L 19 455 L 16 463 L 21 477 L 28 482 L 27 484 Q 26 487 30 485 L 28 492 L 22 487 Q 15 486 13 489 L 8 497 L 9 500 Q 10 504 6 502 L 6 524 L 9 526 Q 15 527 18 525 Q 19 520 16 519 Q 15 509 20 506 L 28 500 L 30 501 Q 34 500 32 505 L 26 506 L 21 514 L 22 516 L 21 521 L 22 525 L 28 528 L 39 528 L 44 523 L 45 513 L 53 514 Q 56 516 54 521 L 58 523 L 62 523 Q 63 518 68 519 L 69 514 L 69 505 L 70 504 L 69 501 L 71 495 Q 72 490 77 491 L 78 488 L 77 484 L 81 467 L 86 463 L 84 466 L 85 467 L 90 463 L 92 469 L 96 470 L 96 466 L 95 466 Q 90 463 90 457 L 85 458 L 79 447 Q 76 448 77 445 L 72 442 L 63 442 Z M 245 446 L 244 450 L 245 450 L 245 446 Z M 107 448 L 108 456 L 109 454 L 108 450 Q 109 447 107 448 Z M 103 449 L 100 452 L 101 453 L 104 451 Q 105 448 103 449 Z M 178 450 L 181 458 L 180 460 L 181 464 L 180 468 L 182 472 L 182 479 L 180 486 L 181 489 L 181 502 L 180 503 L 180 539 L 184 544 L 190 541 Q 191 544 195 543 L 194 537 L 195 532 L 200 530 L 198 520 L 199 518 L 200 496 L 200 494 L 199 467 L 195 470 L 197 480 L 196 483 L 196 515 L 197 520 L 197 522 L 195 527 L 191 525 Q 189 518 192 517 L 191 515 L 191 481 L 192 480 L 190 472 L 190 462 L 188 458 Q 184 459 183 456 Q 185 452 192 454 Q 195 455 194 461 L 195 461 Q 196 455 193 453 Q 192 450 191 452 L 178 450 Z M 100 453 L 99 456 L 100 456 L 100 453 Z M 169 454 L 168 472 L 169 473 L 170 497 L 170 499 L 171 501 L 169 506 L 170 508 L 170 510 L 170 527 L 171 528 L 171 544 L 175 544 L 174 506 L 171 491 L 171 475 L 172 474 L 171 463 L 169 454 Z M 103 455 L 101 461 L 99 460 L 97 473 L 94 475 L 86 484 L 84 482 L 84 473 L 85 472 L 84 467 L 81 473 Q 83 478 80 480 Q 78 486 81 488 L 80 490 L 80 492 L 81 504 L 83 501 L 83 497 L 87 488 Q 88 484 92 485 L 93 501 Q 97 495 96 485 L 99 479 L 100 465 L 101 462 L 104 461 L 103 455 Z M 163 455 L 162 458 L 163 458 L 163 455 Z M 239 455 L 240 456 Q 241 458 242 456 L 239 455 Z M 233 456 L 234 458 L 238 457 L 233 456 Z M 246 456 Q 243 460 237 460 L 234 476 L 235 495 L 234 498 L 235 503 L 235 505 L 235 521 L 234 522 L 234 534 L 236 534 L 237 540 L 239 539 L 241 541 L 240 543 L 245 543 L 244 521 L 240 499 L 238 496 L 238 490 L 238 488 L 238 464 L 239 463 L 239 461 L 244 461 L 246 458 L 246 456 Z M 219 460 L 215 461 L 215 470 L 214 471 L 215 476 Q 214 471 217 470 Q 220 472 218 479 L 218 481 L 219 484 L 218 487 L 219 489 L 219 491 L 218 493 Q 217 498 219 500 L 218 501 L 218 511 L 218 513 L 219 515 L 218 517 L 219 518 L 219 529 L 219 531 Q 221 536 218 538 Q 216 546 223 543 L 222 539 Q 221 534 223 533 L 222 529 L 224 520 L 223 518 L 224 516 L 223 512 L 225 506 Q 226 495 223 489 L 223 487 L 223 470 L 222 469 L 223 465 Q 225 458 219 460 Z M 247 460 L 246 477 L 248 482 L 255 484 L 257 488 L 257 485 Q 255 481 249 481 L 247 476 L 248 471 L 247 460 Z M 206 461 L 204 463 L 204 480 L 205 481 L 205 506 L 204 507 L 204 530 L 205 531 L 205 543 L 215 543 L 215 537 L 215 535 L 216 531 L 215 529 L 216 526 Q 218 519 215 518 L 215 501 L 216 500 L 216 482 L 214 515 L 214 517 Q 216 522 213 524 L 214 526 L 212 530 Q 215 531 214 536 Q 213 539 208 538 L 209 536 L 208 534 Q 207 526 211 524 L 210 521 L 211 498 L 212 497 L 211 495 L 211 493 L 212 489 L 211 484 L 212 482 L 211 474 L 211 472 L 211 461 L 206 461 Z M 164 463 L 163 466 L 164 466 L 164 463 Z M 231 463 L 228 468 L 228 485 L 227 486 L 229 493 L 229 498 L 230 498 L 230 485 L 229 484 Q 228 475 231 471 L 231 463 Z M 108 465 L 108 470 L 107 472 L 108 491 L 109 491 L 109 477 L 108 476 L 109 473 Q 110 467 108 465 Z M 163 466 L 162 471 L 163 471 L 163 466 Z M 89 469 L 86 473 L 87 475 L 89 472 L 89 469 Z M 163 473 L 163 477 L 163 491 L 162 492 Q 161 496 163 498 L 162 500 L 164 544 L 166 543 L 165 506 L 165 504 L 166 499 Q 164 494 165 486 L 164 485 L 165 482 L 163 473 Z M 89 474 L 87 476 L 88 478 L 89 476 L 89 474 Z M 104 474 L 100 484 L 99 494 L 95 503 L 95 506 L 93 508 L 91 507 L 88 503 L 89 501 L 89 495 L 84 506 L 86 511 L 84 517 Q 85 520 81 518 L 83 522 L 87 519 L 86 524 L 86 526 L 87 532 Q 86 534 81 533 L 77 545 L 87 544 L 89 540 L 89 532 L 92 527 L 92 521 L 95 510 L 99 508 L 96 518 L 96 527 L 93 531 Q 92 536 94 538 L 91 544 Q 90 547 96 545 L 97 542 L 100 540 L 100 534 L 101 533 L 101 503 L 99 500 Q 98 495 101 494 L 103 495 L 105 494 L 104 488 L 105 485 L 104 474 Z M 244 474 L 243 477 L 243 479 L 242 482 L 243 483 L 243 494 L 245 496 L 246 505 L 246 507 L 249 526 L 251 531 Q 250 533 254 532 L 252 518 L 248 507 L 250 498 L 247 496 L 245 491 L 245 486 L 245 484 L 244 474 Z M 87 478 L 86 481 L 87 481 L 87 478 Z M 250 484 L 250 491 L 251 492 Q 250 494 253 493 L 253 496 L 254 496 L 253 486 L 250 484 Z M 258 488 L 257 501 L 259 504 L 257 505 L 255 501 L 253 505 L 255 511 L 261 510 L 263 514 L 263 517 L 266 521 L 266 530 L 272 539 L 274 540 L 267 527 Q 266 523 272 525 L 277 533 L 279 534 Q 280 524 278 520 L 274 522 Q 271 521 272 518 L 265 513 L 265 512 Q 266 505 264 506 L 261 502 L 265 505 Q 264 507 267 506 L 268 508 L 269 514 L 272 513 L 269 511 L 268 506 Q 269 503 266 504 L 266 502 L 264 501 L 260 502 L 258 500 Q 256 493 259 492 L 258 488 Z M 75 493 L 72 496 L 72 508 L 71 509 Q 73 516 70 520 L 65 522 L 63 534 L 58 541 L 57 545 L 61 545 L 67 542 L 73 530 Q 72 526 75 527 L 78 523 L 77 513 L 77 511 L 75 506 Q 74 503 77 504 L 78 505 L 76 495 L 75 493 Z M 105 498 L 104 503 L 105 503 L 105 498 Z M 230 503 L 229 509 L 229 511 L 229 523 L 228 524 L 229 532 L 230 524 L 230 503 Z M 312 503 L 312 505 L 318 506 Q 320 507 319 505 Q 317 502 312 503 Z M 82 506 L 81 509 L 82 509 L 82 506 Z M 312 506 L 311 509 L 307 510 Q 304 511 305 515 L 311 517 L 306 518 Q 303 517 304 520 L 304 522 L 305 523 L 311 523 L 311 525 Q 305 524 302 527 L 300 531 L 303 533 L 302 530 L 306 528 L 308 528 L 310 527 L 311 528 L 311 543 L 313 543 L 313 527 L 323 527 L 324 526 L 324 521 L 312 521 Q 311 517 318 519 L 321 518 L 324 519 L 326 518 L 326 517 L 313 517 L 312 515 L 320 515 L 321 514 L 323 515 Q 325 516 324 513 L 317 513 L 316 514 Q 311 515 312 513 Q 313 510 315 512 L 322 511 L 312 510 Q 311 507 316 508 L 317 506 L 315 507 L 312 506 Z M 283 509 L 281 512 L 274 514 L 275 517 L 278 515 L 282 516 L 283 519 L 280 520 L 282 523 Q 280 527 284 526 L 283 525 Q 282 521 285 522 L 286 524 L 287 533 L 297 541 Q 296 543 299 542 L 298 539 L 292 534 Q 286 531 287 523 L 284 521 L 284 520 L 284 511 L 283 509 Z M 105 510 L 104 515 L 105 515 L 105 510 Z M 106 516 L 105 519 L 106 519 L 106 516 Z M 260 519 L 258 524 L 258 530 Q 262 531 261 537 L 257 538 L 257 543 L 270 543 L 261 530 L 261 521 L 260 519 Z M 83 523 L 80 527 Q 81 529 79 528 L 69 544 L 69 545 L 73 545 L 78 533 Q 79 529 83 530 L 83 523 Z M 251 532 L 250 542 L 252 543 L 251 532 Z M 283 532 L 286 537 L 286 539 L 289 540 Q 295 542 294 538 L 292 539 L 285 534 Q 286 531 283 532 Z M 229 534 L 228 543 L 229 543 L 229 534 Z M 279 537 L 280 539 Q 281 536 279 537 Z M 275 540 L 276 542 L 277 542 L 275 540 Z M 315 544 L 314 545 L 284 545 L 283 546 L 273 546 L 272 545 L 269 546 L 240 546 L 239 547 L 234 546 L 232 546 L 227 547 L 225 546 L 215 546 L 214 547 L 211 546 L 203 547 L 201 547 L 191 546 L 188 547 Q 182 549 181 546 L 176 547 L 130 547 L 129 548 L 126 547 L 125 548 L 98 548 L 96 548 L 76 548 L 75 549 L 73 548 L 64 549 L 62 549 L 60 548 L 58 549 L 56 549 L 7 549 L 7 590 L 11 591 L 57 591 L 58 590 L 60 591 L 62 590 L 70 591 L 72 591 Q 75 589 82 590 L 84 590 L 86 591 Q 90 592 92 590 L 169 590 L 171 590 L 187 589 L 189 589 L 191 590 L 195 589 L 200 590 L 202 590 L 204 589 L 206 590 L 216 590 L 217 589 L 333 589 Q 336 587 334 582 L 334 580 L 334 564 L 333 563 L 334 562 L 334 547 L 333 545 L 317 545 L 315 544 Z "></path><path d="M 94.5 19 L 96.5 20 L 106 20 Q 107.5 23.7 104.5 23 L 103 22.5 L 105 28.5 L 103.5 29 L 100 27 L 98.5 24 Q 95.9 23.3 97 26 L 95 26 L 94.5 24 L 91 26 Q 92.3 21.9 89 23 Q 90.6 27.9 85 26 L 84.5 24 L 82.5 27 L 80 25.5 L 88.5 20 Q 93.3 21.3 94.5 19 Z "></path><path d="M 147 19 L 160.5 19 L 161.5 20 L 162.5 19 L 185.5 19 L 187.5 19 L 192.5 20 L 194.5 20 Q 199 19 200 21.5 L 199.5 23 L 196.5 22 L 195 23.5 L 195 35 L 200 36 Q 201.1 38.7 198.5 38 L 195.5 39 L 194.5 38 L 185.5 38 L 181.5 39 L 180.5 38 L 147 38 L 146 35.5 L 148.5 34 L 150.5 35 L 155 29 Q 157.7 30.1 157 27.5 L 152.5 22 Q 145.2 24.3 147 19 Z M 159 21 L 157 23 L 161 25 L 162 23 L 159 21 Z M 168 21 L 162 27 L 162 29 L 166 33 L 166 35 L 170 36 L 174 35 L 177 36 L 172 23 Q 171 20 170 22 L 168 21 Z M 176 22 L 180 31 L 185 23 L 176 22 Z M 188 22 L 182 36 L 188 35 L 191 36 L 190 32 Q 193 30 191 24 L 188 22 Z M 159 31 L 156 35 L 162 35 L 162 34 L 159 31 Z "></path><path d="M 77.5 26 Q 80.1 25.3 79 28 L 73.5 30 L 75.5 27 L 77.5 26 Z "></path><path d="M 88.5 32 L 96.5 33 Q 97.7 30.7 99 33.5 L 97 34.5 L 98 36.5 L 98 38.5 L 98 41 Q 100.7 39.9 100 42.5 L 98.5 42 L 94.5 44 L 91.5 39 L 89 40 L 91 45.5 L 88.5 44 L 87.5 45 Q 84.9 45.8 86 42.5 L 85 42.5 L 84.5 44 L 80.5 42 L 79.5 43 L 75.5 44 L 75 42 Q 71.2 40.5 72 43.5 L 76 45 L 77 50 L 79.5 50 L 84 53 Q 82.9 55.7 85.5 55 L 87 54.5 Q 87.8 56.8 85.5 56 L 83 59.5 L 88 65.5 L 86 66 Q 87.3 62.7 82.5 64 L 79 61.5 L 70 45.5 L 70 42.5 L 75.5 35 L 88.5 32 Z M 82 57 L 81 60 L 82 60 L 82 57 Z "></path><path d="M 66.5 55 L 69 56.5 Q 69.7 59.1 67 58 L 66.5 55 Z "></path><path d="M 159.5 55 L 165 61.5 L 160 57.5 L 159.5 55 Z "></path><path d="M 68 59 Q 72.1 57.3 71 61.5 Q 68.8 62.8 71.5 64 Q 73.3 61.3 75 65.5 L 74 68 L 76.5 67 L 78.5 72 L 81 71 L 80 75 L 82 75.5 L 79.5 79 L 78.5 77 L 76.5 80 Q 69.2 72.1 68 59 Z "></path><path d="M 82.5 77 Q 85.8 75.9 85 78.5 L 83.5 78 L 82.5 77 Z "></path><path d="M 130.5 89 L 133 92.5 L 132 92.5 L 130.5 89 Z "></path><path d="M 109.5 92 L 110 95 Q 107.3 96.1 108 93.5 L 109.5 92 Z "></path><path d="M 193.5 100 L 194 102.5 L 192 101.5 L 193.5 100 Z "></path><path d="M 236.5 111 L 235.5 113 L 236.5 111 Z "></path><path d="M 226.5 118 L 225.5 120 L 226.5 118 Z "></path><path d="M 162.5 122 L 165 126.5 L 166.5 138 L 175 135 L 177 141.5 L 176 145.5 Q 176.8 147.8 180.5 147 L 187.5 141 L 190 144.5 L 182 159 L 178.5 161 L 173 161 L 173 172.5 L 171.5 173 L 168.5 174 L 163.5 173 L 155.5 175 L 151.5 174 L 148.5 175 Q 145.8 173.8 148 172.5 L 145 162.5 L 146 161.5 L 146 147.5 L 147 146.5 L 146 141.5 L 149.5 136 L 151.5 136 L 159 128.5 Q 159.3 123.8 162.5 122 Z M 163 125 L 158 134 L 159 137 Q 161 136 159 135 L 161 135 L 160 133 L 163 129 L 163 125 Z M 163 131 L 162 133 L 162 135 L 163 138 L 161 139 L 163 141 L 164 139 Q 165 132 163 131 Z M 160 137 L 158 139 L 161 142 L 161 140 L 161 138 L 160 137 Z M 173 137 L 167 141 L 163 141 L 164 146 L 168 144 L 169 147 L 168 149 L 170 152 Q 172 151 171 154 L 173 154 Q 172 151 175 152 L 173 155 L 175 156 L 178 151 Q 176 153 179 155 L 175 157 L 172 155 L 170 155 Q 165 153 168 152 L 167 149 L 166 155 Q 167 157 171 156 L 174 159 L 179 158 L 188 146 Q 189 143 187 144 L 184 148 Q 181 147 182 150 L 181 150 L 181 148 L 172 148 L 174 145 Q 173 142 172 144 L 169 143 L 175 141 L 174 139 Q 175 136 173 137 Z "></path><path d="M 247.5 124 L 246.5 126 L 247.5 124 Z "></path><path d="M 240.5 125 L 239.5 127 L 240.5 125 Z "></path><path d="M 137 179 L 140 180.5 L 141 182.5 L 140 184.5 Q 142.8 187.2 142 193.5 L 143.5 195 L 150 183 Q 152.7 181.9 152 184.5 Q 156.5 186 155 193.5 L 150 199.5 L 150 204 Q 147 205.3 148 201.5 L 147 201.5 L 146 206.5 Q 146.8 208.8 150.5 208 L 153.5 206 L 155 208.5 L 155 230.5 L 157 234.5 L 156 235.5 L 156 243 L 149.5 247 Q 148 243.5 146.5 246 L 137.5 246 L 135 243.5 L 136 240.5 L 135 239.5 L 135 220.5 L 136 217.5 L 135 214 L 130 211.5 L 129 206.5 L 131.5 203 Q 133.8 203.8 133 201.5 Q 129.5 200 131 193.5 L 137 179 Z M 139 183 L 137 185 L 137 198 L 138 199 L 137 201 L 139 201 L 140 203 L 140 202 L 142 202 Q 143 199 140 200 L 139 198 L 140 193 L 139 192 L 139 183 Z M 151 187 Q 151 194 148 197 Q 149 199 147 198 L 148 200 L 153 194 Q 154 188 151 187 Z M 149 191 L 147 195 L 149 194 L 149 191 Z M 135 192 L 134 196 L 135 196 L 135 192 Z M 132 205 L 134 209 L 134 207 L 136 207 L 132 205 Z "></path><path d="M 73.5 259 L 77 259.5 L 75.5 262 L 73.5 259 Z "></path><path d="M 72 263 Q 75 261.8 74 265.5 L 72 264.5 L 72 263 Z "></path><path d="M 238.5 299 L 247.5 303 L 254.5 303 L 257 305.5 Q 256.3 307.8 258.5 307 L 261 307.5 L 261 309 L 266 309 L 266 311 L 256.5 310 L 243.5 304 L 241.5 305 L 237 303 L 238.5 299 Z M 260 301 L 262 304 L 262 303 L 260 301 Z "></path><path d="M 102.5 304 L 103 306.5 L 99 312.5 Q 99.8 317.3 97.5 319 L 97 317 Q 93.2 318.5 94 315.5 L 93.5 314 L 97 312.5 L 96 309.5 L 98 308.5 L 98.5 310 L 102.5 304 Z "></path><path d="M 94 320 Q 97 318.8 96 322.5 L 94 329 Q 91 330.3 92 326.5 L 91 323.5 L 94 322 L 94 320 Z "></path><path d="M 208 349 L 212 350.5 Q 213.3 361.4 211 367 L 208 365.5 Q 206.8 360.8 209 359.5 L 208 358.5 L 208 349 Z "></path><path d="M 47.5 352 Q 51.3 351.3 52 353.5 Q 52.8 358.3 49.5 359 Q 46.2 360.1 47 357.5 L 46 353.5 L 47.5 352 Z "></path><path d="M 51.5 364 L 55 365.5 Q 55.5 369.5 52.5 370 Q 49.5 369.5 50 365.5 L 51.5 364 Z "></path><path d="M 255.5 369 Q 260.8 367.5 259 372 L 255.5 371 L 254 371.5 L 255.5 369 Z "></path><path d="M 252 374 L 258 375.5 L 255.5 377 L 253.5 376 L 251.5 377 L 252 375.5 L 252 374 Z "></path><path d="M 42 395 Q 45 394 44 397 Q 41 398 42 395 Z "></path><path d="M 281.5 403 Q 284.1 402.2 283 405.5 L 280.5 407 L 279 404 L 281.5 403 Z "></path><path d="M 284.5 403 L 287 404.5 L 285.5 405 L 284.5 403 Z "></path><path d="M 294.5 403 L 298 404.5 L 294 405 L 294.5 403 Z "></path><path d="M 32.5 404 Q 38.4 402.3 37 406 L 32.5 408 L 31 405.5 L 32.5 404 Z "></path><path d="M 267 407 L 269 407.5 L 267 408.5 L 267 407 Z "></path><path d="M 281 408 L 283 408.5 L 281 409.5 L 281 408 Z "></path><path d="M 308.5 511 L 311 512.5 L 311 514 L 307 514 L 308.5 511 Z "></path><path d="M 307.5 519 Q 312.3 517.7 311 521 L 306 520.5 L 307.5 519 Z "></path><path d="M 315.5 522 L 316.5 523 L 323 523 L 322.5 525 L 313 525 Q 311.9 522.3 314.5 523 L 315.5 522 Z "></path><path d="M 267.5 554 L 268 559 Q 265.3 560.1 266 557.5 L 263.5 557 Q 258.3 555.8 257 558.5 L 257 566 L 260 566 Q 258.9 562.7 263 564 L 263 570 L 260 570 Q 261.1 566.7 257 568 Q 258.6 570.1 258 575.5 L 259.5 577 L 266 574.5 L 267.5 572 L 269 572.5 L 269 579 L 258.5 580 L 253.5 579 L 250.5 580 L 248 579.5 L 248 578 Q 251.7 579.5 251 576.5 L 252 574.5 L 251 573.5 L 251 558.5 L 249 555 L 266.5 555 L 267.5 554 Z "></path><path d="M 275 554 L 288.5 554 L 294 557.5 L 289.5 566 Q 287.3 565.3 288 567.5 L 292.5 573 L 301 577.5 L 297.5 580 L 292 579 L 290.5 576 L 287 573.5 L 284 568 L 280 568 L 280 577 Q 283 576 282 579 L 273 578.5 L 275 578 L 275 554 Z M 283 556 L 280 557 L 280 565 L 285 565 Q 288 563 288 559 Q 287 555 283 556 Z "></path><path d="M 205 555 L 213.5 556 L 217 555 L 217 557 Q 214.3 555.9 215 558.5 L 218.5 568 L 224.5 556 L 227.5 555 L 231 557.5 L 235.5 566 L 239 557 Q 236 558 237 555 Q 243.1 553.3 245 556.5 Q 245.8 558.8 243.5 558 Q 236.8 566.8 235 579 Q 238 578 237 581 L 229.5 581 L 228 579.5 L 232 577.5 L 233 572.5 L 226.5 561 L 221 569.5 L 220 573.5 L 223.5 579 Q 224.8 576.8 226 579.5 L 224.5 581 L 215 581 L 215 579 Q 217.7 580.1 217 577.5 L 207.5 557 L 205 558 L 205 555 Z "></path><path d="M 166.5 556 L 174 557 L 171.5 564 Q 169.3 564.8 170 562.5 L 169 560 L 163.5 559 L 162 560.5 L 162 579 Q 165 578 164 581 L 161.5 582 L 157.5 581 Q 156.3 583.3 155 580.5 L 156 578.5 L 156 560 Q 150.6 558.5 149 561.5 L 147.5 565 Q 144.4 563.6 145 558.5 L 146.5 557 L 165.5 557 L 166.5 556 Z "></path><path d="M 188.5 556 Q 197.5 555.5 201 560.5 Q 204 563.5 203 570.5 L 199 579 L 189.5 581 L 187.5 581 L 180 576.5 Q 176.8 573.2 178 565.5 L 182 558 L 188.5 556 Z M 188 559 L 186 561 L 186 578 L 194 578 L 195 577 L 195 561 Q 194 558 188 559 Z "></path><path d="M 87.5 557 L 89.5 558 L 94.5 557 L 97 558.5 L 95 561.5 L 96 563.5 Q 93.5 565 95 570.5 L 96 573.5 L 96 575.5 L 97 582 L 93.5 583 L 91.5 582 Q 90.3 584.3 89 581.5 Q 92 579.5 91 573.5 L 90 571 L 79.5 570 L 77 571 L 78 581 L 81 581.5 Q 80 584 75.5 583 L 73.5 582 L 71.5 582 L 70 581.5 L 72 576.5 L 71 575.5 L 71 560.5 L 69 558.5 L 72.5 558 L 78 559 L 77 566 L 80.5 567 L 82.5 567 L 90 567 L 90 560 L 87 558.5 L 87.5 557 Z "></path><path d="M 101.5 557 Q 103 559.5 108.5 558 L 110.5 557 L 112.5 557 L 117 558 L 115.5 562 L 110.5 561 Q 106.5 562.7 108 569 L 115.5 566 L 115 567.5 Q 116.3 573.6 113.5 573 L 112 573.5 L 111.5 570 L 108 571 L 108 579 L 115.5 579 L 118.5 575 Q 122.7 573.7 121 578.5 L 118.5 582 L 113.5 581 L 108.5 583 L 104.5 582 L 102.5 583 L 100 582 Q 99.3 578.6 102 577.5 L 102 561 L 99 559.5 Q 98.3 557.3 100.5 558 L 101.5 557 Z "></path><path d="M 47.5 558 Q 48.8 560.2 53.5 559 L 56.5 558 L 59.5 559 L 61.5 558 L 63.5 559 Q 64.8 556.8 66 559.5 Q 67.3 564.8 64.5 566 L 62 561 L 55 561 L 55 565.5 L 55 567.5 L 54 571.5 L 55 572.5 L 55 581 L 57 581.5 L 47.5 584 L 46.5 582 Q 48.8 582.8 48 580.5 L 49 576.5 L 48 572.5 L 49 568.5 L 48 566.5 L 48 564.5 L 47.5 561 L 42 562 L 40.5 565 L 38 563.5 L 37 560.5 L 38.5 559 L 46.5 559 L 47.5 558 Z "></path><path d="M 309.5 573 L 312 574 Q 314.1 579.2 309.5 578 Q 307.8 580.8 306 576.5 L 307.5 574 L 309.5 573 Z "></path></svg>