<svg width="350" height="600" version="1.1" xmlns="http://www.w3.org/2000/svg" desc="Created with imagetracer.js version 1.2.5"><path d="M 225.5 6 L 241.5 7 L 246.5 6 L 250.5 6 L 255.5 7 L 257.5 7 Q 262.2 8.3 263.5 6 L 287.5 6 L 290.5 7 L 291.5 6 L 303.5 6 L 305.5 7 L 307.5 6 L 309.5 6 L 320.5 6 L 322.5 7 L 323.5 6 L 335.5 6 L 337 8.5 L 336 9.5 L 336 29.5 L 337 30.5 L 337 46.5 L 336 47.5 L 336 198.5 L 337 203.5 L 336 208.5 L 337 209.5 L 337 223.5 Q 334.3 225.3 336 231.5 L 336 233.5 L 337 238.5 L 337 254.5 L 337 256.5 L 337 306.5 L 336 308.5 L 337 309.5 L 337 378.5 L 338 379.5 L 338 387.5 L 337 388.5 L 337 452.5 L 338 453.5 L 338 466.5 L 339 468.5 L 338 469.5 L 338 503.5 L 337 506.5 L 337 508.5 L 337 554.5 L 338 559.5 L 337 560.5 L 337 571.5 L 338 574.5 L 337 583.5 L 338 584.5 L 338 592 L 334.5 593 L 333.5 592 L 291.5 592 L 288.5 593 L 285.5 592 L 284.5 593 L 254.5 593 L 252.5 592 L 251.5 593 L 148.5 594 L 146.5 595 L 145.5 594 L 136.5 594 L 134.5 595 L 130.5 594 L 125.5 595 L 122.5 594 Q 121.3 596.3 116.5 595 L 114.5 595 L 112.5 594 L 111.5 595 L 99.5 595 L 97.5 594 L 92.5 595 L 88.5 594 L 86.5 595 L 85.5 594 L 77.5 594 L 76.5 595 L 8 595 L 7 587.5 L 8 586.5 L 8 551.5 L 9 550.5 L 8 549.5 Q 9.5 542 7 538.5 L 8 537.5 L 8 363.5 L 8 359.5 L 8 340.5 L 7 338.5 L 8 334.5 L 8 332.5 L 7 313.5 L 7 311.5 Q 5.5 306 8 304.5 L 7 301.5 L 8 297.5 L 7 294.5 L 8 292.5 L 7 291.5 L 7 268.5 L 8 264.5 L 8 262.5 L 7 257.5 L 8 254.5 Q 5.8 253.3 7 248.5 L 7 246.5 L 7 164.5 Q 9.8 162.8 8 156.5 L 7 153.5 L 7 151.5 L 8 146.5 L 7 143.5 L 8 138.5 L 7 133.5 L 8 129.5 Q 5.8 128.3 7 123.5 L 8 120.5 L 8 118.5 Q 9.3 111.7 7 108.5 L 8 107.5 L 8 97.5 L 8 95.5 L 8 9.5 L 9.5 8 L 159.5 8 Q 160.8 5.8 165.5 7 L 167.5 8 L 168.5 7 L 187.5 7 L 189.5 7 L 224.5 7 L 225.5 6 Z M 235 8 L 234 9 L 165 9 L 162 10 L 160 10 L 132 10 L 131 9 L 130 10 L 21 10 L 19 11 L 17 11 L 13 10 L 11 12 L 11 78 L 11 80 L 11 88 L 10 89 L 11 94 L 11 96 L 10 104 L 10 106 L 11 111 L 10 112 L 10 163 L 10 165 L 11 168 L 10 170 L 10 222 L 10 224 L 10 293 L 11 294 L 11 310 L 10 315 L 14 315 L 23 311 L 25 311 L 31 308 L 32 305 L 40 299 L 45 300 L 46 303 L 51 306 L 56 305 Q 67 305 73 311 L 81 311 L 81 313 Q 80 315 79 313 L 76 315 L 75 313 L 69 312 L 69 314 L 68 311 L 67 314 L 66 310 L 64 309 L 62 313 L 61 313 L 62 311 L 60 307 Q 57 306 58 309 Q 52 310 49 307 L 48 315 L 47 307 L 46 307 L 43 304 Q 44 301 42 302 Q 37 304 40 306 L 40 319 L 39 307 L 38 305 L 37 307 L 36 305 L 35 314 L 34 310 L 32 317 L 31 311 L 30 314 L 29 312 L 27 313 L 25 313 L 24 317 L 23 314 L 11 318 L 12 326 L 23 323 Q 25 322 23 321 L 24 319 L 24 321 Q 25 324 29 323 L 30 319 L 30 322 L 34 323 L 35 321 L 39 323 L 43 322 Q 47 320 44 319 L 45 315 L 46 315 Q 44 322 49 320 L 50 313 L 50 320 L 53 318 L 54 319 Q 56 316 56 310 L 57 317 L 63 315 Q 64 312 66 316 L 68 315 L 70 315 L 70 317 L 72 316 L 74 317 L 75 317 Q 74 319 77 318 L 79 318 L 80 315 L 81 318 L 83 317 L 84 319 L 84 318 L 89 320 Q 90 323 88 322 L 86 322 L 67 318 L 61 318 L 57 320 L 60 321 L 59 325 L 57 323 L 57 320 L 52 323 L 50 322 L 44 325 L 39 325 L 39 327 L 38 325 L 23 325 L 17 327 L 14 328 L 11 326 L 10 335 L 10 337 L 11 338 L 11 364 L 12 365 L 11 375 L 11 377 L 12 380 L 11 382 L 12 399 L 14 399 Q 15 401 12 400 L 11 405 L 14 406 L 22 404 Q 28 403 31 406 L 34 405 Q 36 406 35 403 L 38 401 L 40 405 L 49 404 L 53 402 L 54 406 L 54 407 L 55 407 L 55 403 L 59 403 Q 61 407 63 403 Q 65 402 64 405 L 66 404 Q 68 403 67 406 L 70 404 L 71 404 L 72 406 L 77 406 L 79 406 L 83 407 L 84 405 L 79 403 Q 76 400 77 392 L 75 389 L 67 386 L 57 376 L 55 371 L 55 365 L 57 363 L 58 358 L 63 355 L 59 353 Q 58 350 62 351 L 64 354 L 72 349 L 77 348 L 84 349 L 94 356 L 100 349 L 105 337 L 103 338 L 101 337 L 97 338 Q 96 334 99 333 Q 101 332 100 335 L 103 334 L 106 336 L 111 326 Q 112 322 107 324 L 103 322 Q 96 320 95 323 Q 91 324 90 322 Q 89 318 97 320 L 99 317 L 99 320 L 101 319 L 113 323 L 117 315 Q 116 312 115 314 L 110 313 Q 108 316 107 312 L 105 313 L 104 311 L 94 313 L 94 315 L 93 313 L 90 314 L 88 314 L 86 311 L 91 312 L 97 310 L 116 311 L 118 313 L 126 299 L 133 275 L 140 264 L 139 262 Q 137 265 136 263 L 133 263 Q 134 266 131 265 L 134 261 L 136 262 L 137 260 L 141 257 L 140 259 L 140 262 L 144 262 Q 143 265 146 264 L 148 262 L 148 252 Q 152 251 151 254 L 158 254 L 159 253 L 160 255 L 160 254 L 162 255 L 161 257 L 151 256 Q 152 263 147 266 L 143 264 L 137 273 L 132 292 L 126 306 L 121 316 L 110 332 L 100 353 L 97 356 L 81 363 L 82 361 L 81 356 L 79 355 L 76 357 L 79 357 L 77 364 L 78 366 L 76 367 L 77 363 L 77 358 L 76 362 L 75 361 L 74 358 Q 75 355 73 356 L 73 358 L 72 357 L 71 360 L 73 359 L 73 364 L 74 367 L 71 366 L 68 365 Q 66 369 70 368 Q 71 366 72 369 L 70 373 Q 69 375 73 374 L 72 380 L 74 380 L 77 379 L 77 381 Q 75 382 78 383 Q 81 382 80 385 L 83 383 L 84 384 L 85 382 Q 84 379 83 381 L 78 380 L 78 375 L 86 366 L 87 367 Q 80 370 80 379 L 83 380 L 84 375 L 87 373 L 86 375 L 88 377 L 89 373 L 90 380 L 88 385 Q 85 384 86 387 L 93 386 Q 96 388 93 389 L 89 388 L 86 389 L 83 393 Q 87 392 88 396 Q 87 400 91 398 L 94 414 L 95 412 L 94 409 L 95 407 L 92 397 Q 93 394 90 395 L 87 391 L 90 392 L 94 391 L 95 392 L 93 393 L 97 400 L 97 408 L 98 409 Q 100 415 97 417 Q 98 421 95 420 L 95 415 L 93 420 L 93 432 L 94 433 L 94 440 L 92 447 L 93 451 L 93 470 L 92 476 L 89 475 L 90 471 L 90 460 L 89 459 L 90 457 L 90 443 L 91 442 L 91 433 L 90 432 L 90 420 L 91 419 L 88 399 L 85 397 Q 88 399 87 406 L 88 411 L 87 470 L 86 471 L 84 469 L 85 466 L 84 464 L 84 450 L 84 448 L 83 446 L 84 445 L 84 438 L 77 439 L 77 441 L 76 440 L 61 440 L 60 439 L 47 440 L 21 450 L 16 456 L 12 458 L 11 465 L 12 466 L 12 519 L 15 523 Q 16 526 14 525 L 12 525 L 12 540 L 14 541 Q 16 540 15 544 L 17 543 L 26 546 L 31 546 L 33 548 L 38 549 L 41 548 L 43 548 L 45 549 L 47 548 L 67 548 L 72 547 L 74 547 L 81 546 L 78 544 L 68 544 L 61 542 L 55 542 L 50 540 Q 45 541 46 538 L 56 539 L 58 539 L 63 541 L 71 541 L 72 542 L 86 542 L 87 541 L 91 542 L 92 544 Q 93 541 99 542 L 102 539 L 106 540 L 108 540 L 112 536 L 117 535 Q 119 536 118 534 L 123 530 L 124 528 L 112 532 L 103 533 L 101 530 L 104 531 L 123 526 L 133 521 L 138 520 L 140 520 L 142 519 Q 145 520 144 518 Q 145 515 147 517 L 150 515 L 153 517 L 164 513 L 163 511 L 164 507 L 171 501 L 174 502 L 175 502 Q 171 500 172 496 L 177 494 L 181 496 Q 185 498 182 500 Q 183 504 180 503 L 180 507 L 182 507 L 183 505 Q 183 501 189 501 L 190 499 L 196 495 L 194 494 L 196 490 Q 195 487 199 488 L 198 494 Q 201 495 200 493 L 205 490 L 211 482 L 211 472 L 210 471 L 207 466 Q 205 461 200 461 L 197 457 L 188 449 Q 185 450 186 447 L 197 453 Q 201 455 201 460 L 207 462 L 212 470 L 214 473 L 214 475 L 215 477 L 221 467 L 221 460 Q 217 457 218 452 L 211 447 Q 203 446 199 442 L 193 442 L 184 438 L 163 438 Q 161 436 160 439 L 165 440 Q 168 439 167 442 Q 159 443 155 439 Q 150 438 149 441 L 141 441 L 140 440 L 127 441 L 123 439 L 122 441 L 117 440 L 107 440 L 106 438 L 119 438 L 122 439 L 124 436 L 137 431 L 139 431 Q 146 430 148 425 Q 147 422 150 423 L 153 418 L 147 415 L 144 416 L 136 415 L 133 416 Q 126 418 125 415 L 123 416 L 120 415 Q 115 414 116 417 L 113 415 L 102 416 L 102 431 L 104 432 L 127 431 Q 128 435 122 433 L 120 433 L 103 434 L 102 437 L 103 460 L 104 461 L 103 465 L 103 467 L 103 477 L 101 477 L 101 471 L 100 470 Q 99 464 101 463 Q 103 456 100 455 L 100 429 L 99 428 L 100 400 L 101 404 Q 102 406 104 404 L 108 405 L 110 405 Q 112 406 111 404 L 114 402 L 115 404 L 115 401 Q 118 400 117 403 L 119 402 L 125 404 L 133 401 Q 135 400 134 403 L 137 401 L 139 402 L 142 401 L 143 403 L 148 402 L 148 398 L 145 400 L 147 397 L 146 389 L 142 390 L 138 390 L 135 391 L 136 388 L 137 390 L 137 388 L 142 387 L 143 389 L 145 388 L 140 374 Q 141 369 138 370 L 137 360 L 130 341 L 128 344 L 125 345 L 118 354 L 120 354 Q 121 357 118 356 L 118 354 L 110 363 L 108 364 Q 102 367 103 377 L 99 381 L 101 386 L 100 388 Q 99 392 102 393 Q 103 398 100 399 Q 100 391 96 388 L 97 386 Q 94 387 95 384 L 97 384 L 98 384 L 95 382 L 100 377 L 102 365 L 104 365 L 106 362 L 108 362 L 109 359 L 111 359 L 111 356 L 114 356 L 114 354 Q 117 355 116 353 L 128 341 L 129 341 L 128 338 Q 127 331 130 329 L 135 325 L 137 322 L 139 323 L 137 321 L 139 320 L 138 317 L 140 316 L 140 313 Q 144 309 145 302 L 147 302 L 146 299 L 148 299 Q 147 295 150 296 L 150 294 L 152 294 L 152 290 L 156 288 L 158 283 Q 159 279 163 280 L 164 289 L 166 293 L 174 298 L 183 296 L 187 291 L 188 281 L 190 279 L 190 288 L 190 291 Q 192 290 191 293 L 193 292 L 193 294 L 196 293 L 195 295 L 201 297 L 202 309 L 204 309 Q 203 312 206 311 L 205 313 L 215 316 L 216 318 L 218 317 L 219 321 L 221 320 L 222 325 Q 221 327 224 326 Q 225 329 223 328 L 220 324 L 211 315 Q 204 317 205 313 L 202 311 L 197 313 L 176 313 Q 174 316 169 314 L 166 316 L 158 317 L 156 319 L 152 319 L 138 326 L 136 325 L 130 335 L 142 367 L 143 375 L 146 381 L 146 385 L 153 405 L 155 421 L 141 433 L 137 432 L 129 436 Q 126 435 127 438 L 133 437 Q 137 436 139 438 Q 148 440 152 436 L 154 436 Q 155 433 161 434 L 171 434 L 173 435 L 174 433 L 172 426 L 171 429 L 167 432 L 165 430 L 168 428 Q 167 423 170 424 Q 171 421 169 422 L 169 421 L 167 420 L 169 419 Q 167 417 168 412 L 168 410 L 167 407 L 165 407 L 167 406 L 166 403 L 166 387 L 167 386 L 166 370 L 163 358 L 152 342 L 155 341 L 156 344 L 165 348 L 167 347 L 168 348 L 178 348 L 179 349 L 207 344 L 209 344 L 211 343 L 223 344 Q 223 338 227 334 L 225 330 L 226 328 L 229 329 L 239 314 L 244 312 Q 245 315 243 314 L 234 325 L 228 336 L 224 352 L 223 366 L 222 367 L 223 381 L 226 392 L 226 408 L 225 409 L 226 414 L 230 416 L 235 417 L 238 417 L 247 411 Q 249 412 248 409 L 251 409 L 251 408 L 253 408 Q 256 409 255 406 L 263 403 L 264 399 L 265 401 L 265 399 L 267 399 L 267 397 L 269 397 L 269 395 L 271 395 L 271 394 L 273 394 L 273 393 L 275 393 L 275 390 L 278 391 L 277 388 L 280 389 L 279 387 L 282 388 L 281 385 L 283 384 L 284 386 L 284 384 L 286 384 L 289 383 L 290 382 L 290 364 L 278 370 Q 272 368 273 372 Q 269 373 270 370 L 265 371 L 265 373 Q 262 372 263 375 L 260 375 L 260 377 L 258 377 L 253 391 L 250 392 L 250 390 L 253 386 L 256 372 L 264 356 L 266 346 L 270 340 L 274 322 Q 274 311 271 304 Q 267 294 259 288 Q 260 285 258 286 L 247 274 Q 248 271 245 272 L 245 270 L 244 270 L 236 263 L 224 246 L 218 243 L 222 242 L 224 242 L 226 243 L 229 242 L 232 244 L 235 243 L 235 245 L 237 244 L 241 245 L 242 243 L 242 245 L 244 244 L 245 246 L 246 244 L 246 246 L 248 245 Q 250 244 249 247 L 254 250 Q 253 252 256 251 L 261 257 L 251 249 L 226 244 L 235 258 L 252 276 L 271 300 L 275 310 L 275 319 L 276 320 L 275 331 L 269 344 L 270 347 L 264 359 L 265 361 L 271 347 L 274 348 L 274 346 L 275 345 L 272 342 L 275 338 L 278 341 L 277 343 L 278 353 L 281 352 L 283 356 L 286 354 L 285 353 L 280 350 Q 281 352 278 351 L 281 345 Q 282 340 279 340 L 282 334 L 287 336 L 288 337 L 288 329 L 286 328 L 283 323 L 280 324 L 281 322 L 279 316 L 279 312 L 282 307 L 285 306 Q 286 301 284 300 L 286 296 L 287 304 L 286 308 L 289 310 L 288 304 L 290 305 Q 288 311 292 311 L 294 313 L 293 311 Q 293 306 297 305 L 298 308 Q 299 311 295 309 L 296 313 L 294 314 L 295 316 L 297 315 Q 295 309 299 310 L 300 316 L 302 315 L 302 317 Q 300 321 299 318 Q 296 317 297 320 L 302 322 Q 304 321 302 320 L 304 317 L 305 319 L 306 316 L 306 320 L 308 319 L 307 315 L 309 315 L 309 312 L 311 312 L 311 315 Q 314 314 313 317 L 318 318 Q 320 317 318 316 L 319 314 L 318 312 L 316 311 L 317 314 Q 318 317 314 315 L 313 312 L 316 310 L 315 308 Q 316 305 318 307 L 319 305 L 320 310 L 320 308 L 323 307 L 320 302 Q 318 296 322 297 Q 323 293 325 297 L 324 299 Q 320 298 321 301 L 323 302 Q 322 299 325 300 Q 329 298 326 297 L 327 294 L 326 294 L 324 293 L 321 296 L 320 295 L 319 304 L 318 301 L 316 302 L 312 298 L 313 292 L 314 290 Q 311 289 312 294 L 311 293 L 310 295 L 310 297 L 310 301 L 309 300 L 308 300 Q 306 304 310 303 L 312 300 L 312 304 L 314 303 L 316 305 L 313 307 L 311 304 Q 308 303 309 306 Q 305 307 308 309 L 308 311 L 307 309 L 306 315 L 305 308 Q 302 309 304 311 L 304 312 Q 301 312 301 308 L 303 305 Q 300 306 301 302 L 303 302 L 302 299 L 295 303 L 291 303 L 290 301 L 294 302 L 297 300 L 294 292 Q 293 289 296 290 L 298 297 L 302 298 L 300 292 Q 299 287 302 288 Q 301 293 304 295 L 306 294 L 305 292 L 307 287 L 308 294 L 309 294 L 309 285 L 311 284 L 312 282 Q 313 273 307 271 L 309 270 Q 313 273 313 279 L 321 277 L 325 278 L 328 283 L 331 284 L 333 287 L 333 282 L 333 280 Q 334 277 330 278 L 332 275 L 333 278 L 334 278 Q 336 271 333 270 L 334 267 Q 332 263 327 264 L 325 264 L 326 268 L 323 269 L 322 267 L 323 265 Q 322 262 325 263 Q 326 259 324 258 L 322 259 L 315 257 Q 316 254 313 253 L 313 238 L 326 236 L 329 233 L 329 231 Q 325 237 315 235 Q 313 237 312 235 L 314 234 L 318 228 L 324 225 Q 326 226 325 223 L 328 223 L 326 226 L 329 230 L 330 229 Q 329 222 331 219 L 328 217 L 326 222 L 320 224 L 321 215 L 325 213 L 324 210 L 327 209 L 325 208 Q 326 211 322 209 L 323 212 L 320 212 Q 318 216 319 225 L 315 227 L 314 224 L 313 229 L 310 230 L 305 228 L 308 226 L 311 228 L 311 226 L 307 223 L 308 220 Q 309 217 306 218 L 305 221 L 300 220 L 297 221 L 299 225 L 303 227 Q 305 226 304 229 Q 298 229 296 225 Q 297 222 294 223 L 293 218 L 292 218 Q 293 220 291 219 Q 289 217 288 220 L 289 222 L 288 225 L 289 228 L 288 227 L 284 228 L 283 231 L 284 234 L 285 231 L 287 232 L 286 234 Q 285 237 281 236 L 281 230 L 282 229 L 281 226 L 280 230 L 279 229 L 275 230 L 272 226 L 275 224 L 274 219 L 268 211 L 269 209 L 276 219 L 276 218 L 283 215 L 280 213 Q 277 214 278 212 L 281 210 L 282 205 L 285 206 L 286 203 L 284 202 L 283 204 L 281 204 L 283 201 L 279 199 L 280 203 L 279 202 L 276 206 L 279 207 Q 278 209 275 208 L 273 209 L 276 203 L 276 200 L 281 197 L 284 198 L 287 197 L 290 190 Q 291 187 293 189 L 296 188 L 297 188 Q 296 190 299 189 L 301 189 L 303 188 L 302 185 L 296 181 Q 298 177 303 178 Q 302 185 307 188 L 311 187 L 311 189 L 309 190 L 307 189 L 306 190 L 299 190 L 302 196 Q 299 197 300 203 L 298 203 L 299 206 Q 298 208 301 207 L 302 203 L 304 202 L 303 209 L 307 210 L 308 204 L 308 209 Q 311 210 310 208 L 312 207 L 311 209 L 312 211 L 310 219 L 316 221 L 316 220 L 312 218 L 313 215 L 319 211 L 318 207 L 315 206 Q 312 205 314 204 L 313 202 Q 314 199 312 200 Q 309 199 310 195 L 313 193 L 314 192 L 317 195 L 318 194 L 321 195 L 321 190 L 325 187 Q 327 186 326 189 L 323 191 L 324 194 Q 326 197 328 193 L 327 190 L 330 189 L 329 195 L 329 196 L 333 195 L 333 92 L 334 91 L 333 90 L 333 80 L 333 78 L 333 70 L 334 69 L 333 65 L 333 49 L 334 48 L 333 9 L 328 8 L 326 9 L 322 8 L 315 9 L 313 9 L 278 9 L 277 8 L 276 9 L 261 9 L 259 9 L 236 9 L 235 8 Z M 293 190 Q 293 195 289 198 Q 290 200 294 199 L 296 201 Q 295 198 298 199 L 299 197 L 296 192 Q 297 189 293 190 Z M 314 194 L 312 196 L 314 201 L 317 202 Q 320 203 319 201 L 315 198 L 314 194 Z M 320 196 Q 318 201 322 200 Q 324 195 320 196 Z M 326 196 L 326 198 L 328 197 L 326 196 Z M 331 197 L 329 200 Q 332 201 333 199 Q 334 196 331 197 Z M 285 198 L 287 202 L 289 202 L 288 200 L 285 198 Z M 322 201 L 321 204 L 322 206 L 323 204 Q 324 200 322 201 Z M 331 201 L 330 204 Q 327 205 328 202 Q 324 200 325 205 L 327 204 L 327 206 L 333 204 Q 334 200 331 201 Z M 290 202 L 289 209 L 287 211 Q 291 210 293 213 Q 295 214 294 210 L 292 209 Q 293 211 290 210 L 290 206 Q 293 207 292 203 L 290 202 Z M 294 204 L 294 205 Q 296 204 295 207 L 297 208 L 296 206 Q 297 203 294 204 Z M 287 206 L 284 208 L 286 208 L 287 209 L 287 206 Z M 331 206 Q 330 211 334 209 Q 336 205 331 206 Z M 298 208 L 297 212 Q 299 215 300 212 L 298 208 Z M 283 210 L 282 212 L 284 211 L 283 210 Z M 328 210 L 326 212 L 330 213 L 332 216 L 332 212 L 328 210 Z M 309 211 L 302 213 L 304 217 L 310 214 Q 312 215 311 213 L 309 211 Z M 287 212 L 285 214 L 288 217 Q 290 218 289 215 L 291 215 L 291 214 Q 290 211 289 213 L 287 212 Z M 296 213 L 294 215 L 295 218 L 298 216 Q 300 217 299 214 L 296 213 Z M 317 214 L 315 216 Q 314 218 317 217 L 317 214 Z M 325 214 L 323 216 L 324 221 L 327 216 L 325 214 Z M 299 216 Q 298 219 301 218 Q 302 215 299 216 Z M 334 220 L 332 226 Q 335 227 334 225 L 334 223 L 334 220 Z M 312 222 L 313 224 Q 314 221 312 222 Z M 320 228 L 318 234 Q 322 235 323 233 L 322 231 Q 323 227 320 228 Z M 324 228 Q 323 231 326 230 Q 327 227 324 228 Z M 334 230 L 333 232 L 331 233 L 328 237 L 330 241 L 331 239 L 330 237 L 332 234 L 333 237 L 332 241 L 329 243 L 327 240 L 323 242 L 321 239 L 316 240 L 316 248 L 315 249 L 317 254 L 323 257 L 327 257 L 331 263 Q 336 265 334 260 L 334 258 L 334 230 Z M 323 237 L 323 239 L 325 240 Q 326 236 323 237 Z M 318 279 Q 315 283 321 281 L 324 289 L 323 288 L 318 290 L 320 290 L 321 293 L 323 292 L 323 290 L 327 290 Q 326 294 330 296 Q 331 298 328 297 Q 329 302 327 303 Q 323 302 324 305 L 329 308 L 332 307 L 331 305 Q 330 302 333 303 L 333 301 L 330 302 L 329 300 L 333 298 L 333 291 L 329 284 L 324 280 L 323 282 L 322 282 Q 323 278 320 279 L 318 279 Z M 313 284 L 310 288 Q 312 291 314 287 L 313 284 Z M 160 285 L 146 307 L 144 315 L 152 317 L 168 313 L 170 313 L 177 311 L 195 311 L 199 310 L 198 299 L 189 294 L 179 299 L 170 298 Q 163 295 162 287 Q 163 284 160 285 Z M 316 291 L 314 295 L 316 297 L 317 295 L 318 298 L 319 294 L 316 291 Z M 309 296 L 305 297 L 305 299 L 303 300 L 306 300 L 305 304 L 306 306 L 307 306 L 307 299 L 309 298 L 309 296 Z M 334 298 L 333 301 L 334 301 L 334 298 Z M 325 308 L 324 310 L 326 311 L 325 308 Z M 284 309 L 281 312 L 282 318 L 289 326 L 290 323 Q 289 319 292 320 Q 293 326 290 329 L 291 340 L 292 341 L 292 364 L 293 365 L 293 374 L 292 375 L 293 376 L 293 410 L 294 411 L 293 413 L 293 415 L 294 417 L 294 454 L 294 456 Q 292 459 293 467 L 291 469 L 290 476 L 288 477 Q 287 469 291 466 L 290 463 L 292 442 L 291 439 L 292 437 Q 293 434 291 435 L 289 436 Q 288 431 291 432 L 291 391 L 290 385 L 279 393 L 280 394 L 283 392 L 283 394 Q 285 395 284 393 L 287 391 L 288 395 L 285 397 L 286 399 L 283 400 L 284 396 L 281 397 L 279 394 Q 276 395 277 399 L 275 400 Q 273 402 272 399 Q 265 406 255 409 L 256 412 L 255 411 L 242 419 L 232 419 L 230 419 L 224 416 L 222 407 L 221 409 L 219 407 Q 220 404 222 406 L 222 400 L 223 398 L 221 399 Q 218 400 219 397 L 222 396 L 220 378 L 217 379 Q 216 375 219 376 L 219 363 L 222 348 Q 220 345 215 346 L 212 345 L 210 346 L 208 345 L 205 347 L 188 349 L 187 350 L 168 350 L 166 350 L 164 349 L 161 350 L 166 353 L 164 354 L 168 364 L 170 375 L 170 385 L 169 386 L 169 399 L 170 401 L 172 400 L 177 401 L 190 399 L 192 399 L 194 400 L 196 399 L 198 400 L 202 399 L 204 399 L 209 400 L 213 403 L 212 406 L 206 409 Q 204 411 203 409 L 204 407 L 204 403 L 202 410 L 199 411 L 194 418 L 196 420 Q 199 419 198 422 L 207 426 L 209 425 L 216 427 L 217 430 L 219 429 L 221 431 Q 220 435 224 433 L 225 436 Q 224 438 228 437 L 227 436 L 231 434 L 232 435 L 231 432 L 234 430 L 235 432 L 235 431 Q 237 426 239 430 L 237 434 L 236 433 L 235 433 Q 236 437 232 435 L 232 438 L 230 438 L 228 438 Q 226 442 230 441 L 232 446 L 231 449 L 232 451 L 231 454 L 232 456 L 231 461 L 228 462 L 227 465 L 228 470 L 227 469 L 226 472 L 228 471 L 229 472 L 225 480 L 214 485 Q 211 484 212 487 L 209 489 L 207 491 L 208 494 L 207 493 L 196 498 L 199 499 L 198 501 L 196 498 L 190 501 L 198 505 L 216 501 L 224 496 L 229 496 L 241 493 L 253 486 L 258 489 L 275 482 L 276 483 L 281 478 L 282 479 Q 286 478 285 481 Q 278 480 277 485 L 275 484 L 259 491 L 254 489 L 251 489 L 238 496 L 221 499 L 214 504 L 205 506 L 205 508 L 201 510 Q 198 511 199 509 L 203 507 L 203 506 L 198 507 L 192 506 L 189 503 L 183 507 L 185 507 L 186 514 L 179 517 Q 176 516 177 519 L 174 518 Q 171 519 172 516 L 167 515 L 165 513 L 164 515 L 162 517 L 151 518 Q 148 523 141 523 L 139 523 L 131 526 L 130 534 L 107 544 L 103 542 L 101 546 L 98 547 L 98 548 L 108 546 Q 109 549 111 547 L 113 548 Q 115 549 114 547 L 117 545 L 116 548 L 118 548 L 120 548 L 126 547 L 128 547 Q 133 546 135 548 L 140 547 L 143 548 L 148 547 L 150 547 L 160 547 L 161 548 L 163 547 L 193 547 L 196 542 L 199 542 L 205 538 L 207 538 L 214 533 L 216 534 L 222 531 L 224 523 L 229 519 Q 230 515 232 518 L 232 516 L 236 514 L 237 517 L 240 515 L 239 513 L 247 508 L 248 508 L 248 504 L 258 500 L 261 501 L 264 500 L 264 499 Q 261 500 262 498 L 263 496 L 256 497 L 257 494 L 268 494 Q 272 495 271 501 L 254 504 L 251 510 Q 245 509 242 512 L 244 516 Q 246 513 252 513 L 254 510 Q 255 507 257 509 Q 259 510 258 508 L 261 505 L 272 503 L 276 500 Q 279 501 277 496 L 280 493 L 289 492 L 294 489 L 295 492 L 305 495 L 307 499 L 306 503 L 302 506 L 289 510 L 285 515 L 286 518 L 291 521 L 302 522 L 307 524 L 307 521 Q 305 516 304 519 Q 297 520 296 516 L 298 511 L 303 508 L 305 509 L 307 508 Q 310 507 309 503 L 314 502 L 315 500 L 306 493 Q 306 488 310 487 L 319 490 Q 325 488 327 491 L 332 489 Q 333 491 334 489 L 333 484 L 329 485 L 322 485 L 324 483 L 333 482 Q 334 479 331 480 Q 330 476 333 477 L 333 474 L 323 478 L 314 478 L 313 480 L 320 482 Q 322 481 321 485 L 313 482 L 309 479 Q 308 471 304 468 Q 305 458 302 453 L 302 427 L 301 426 L 301 407 L 300 406 L 300 396 L 303 397 L 305 394 Q 307 393 306 396 L 303 398 L 304 427 L 304 429 L 305 438 L 309 436 L 310 439 Q 311 441 309 440 L 307 440 Q 308 443 305 442 L 305 439 L 304 443 L 304 445 Q 307 446 305 453 L 308 454 L 306 457 L 307 466 L 311 469 L 321 469 L 322 468 Q 326 469 325 466 L 321 464 L 320 466 Q 322 467 320 468 L 314 467 L 315 465 L 314 462 L 312 466 L 309 465 L 311 462 Q 315 463 313 458 L 319 453 L 323 453 L 325 451 L 330 450 L 334 451 L 333 448 L 334 446 Q 335 443 332 444 Q 331 441 334 442 L 333 440 L 334 437 L 334 434 L 332 438 L 330 436 L 328 437 L 326 435 L 329 433 L 328 435 L 330 435 Q 331 432 333 434 L 333 424 L 331 423 L 330 421 L 333 420 L 334 421 Q 336 413 332 414 Q 331 410 334 411 L 334 395 Q 331 392 332 386 L 329 381 L 325 379 L 326 376 L 323 377 L 321 376 L 320 378 L 323 379 L 326 383 L 328 382 L 327 385 Q 328 388 325 387 L 325 385 L 321 380 L 319 381 L 323 387 Q 325 394 321 393 L 321 391 L 320 394 L 318 393 L 314 394 L 314 391 Q 318 392 317 390 L 320 388 L 319 383 L 315 379 Q 312 380 313 377 L 319 380 L 319 376 L 314 375 L 305 375 L 301 381 L 302 386 L 302 394 L 299 391 L 299 368 L 296 366 L 296 368 L 294 367 L 294 344 L 293 343 Q 292 338 295 337 L 295 344 L 297 344 L 296 343 L 296 330 L 294 335 L 292 334 L 293 325 L 295 323 L 296 329 L 297 325 L 298 330 L 299 330 L 297 321 L 294 317 L 293 317 L 290 313 L 289 315 L 288 314 L 289 312 L 286 313 Q 287 311 284 309 Z M 321 310 L 321 313 Q 319 314 322 315 Q 325 316 323 312 L 321 310 Z M 333 310 L 331 313 L 324 319 L 308 323 L 306 322 L 303 328 L 304 328 Q 303 325 306 326 L 306 324 L 308 324 Q 310 326 309 332 L 308 331 L 305 332 L 306 336 L 309 335 Q 311 336 310 332 L 313 332 L 314 334 L 314 333 L 317 334 L 318 333 L 317 330 L 320 328 L 321 332 L 322 330 L 325 328 L 326 330 L 328 329 L 325 338 Q 322 339 323 335 L 322 335 Q 320 341 326 339 L 327 342 L 326 344 L 326 345 L 331 342 L 329 341 Q 326 340 328 339 Q 327 336 330 337 L 328 335 L 331 334 L 331 336 L 334 336 L 333 332 L 334 330 Q 330 331 331 329 L 334 326 L 333 325 L 334 323 L 334 318 L 332 322 Q 329 323 330 320 L 333 318 L 334 313 L 333 310 Z M 145 317 L 143 319 Q 142 321 145 320 L 148 319 L 145 317 Z M 303 328 Q 300 329 301 333 L 298 336 L 300 347 L 302 343 Q 306 344 305 342 L 307 342 L 307 340 L 301 339 Q 300 336 303 337 L 302 336 L 303 333 Q 307 330 303 328 Z M 309 336 L 308 339 L 309 339 L 309 336 Z M 314 336 Q 313 339 316 338 Q 317 335 314 336 Z M 319 337 L 317 340 Q 318 344 314 342 L 313 339 L 310 341 L 311 344 L 316 343 L 319 348 Q 320 352 317 353 Q 318 355 316 354 L 314 351 L 312 352 Q 309 351 310 356 L 310 358 L 311 360 L 312 357 L 320 355 L 320 347 L 318 345 L 319 341 L 319 337 Z M 288 338 L 287 340 L 285 339 L 283 344 Q 285 347 287 343 L 289 344 L 288 338 Z M 322 342 L 322 344 L 324 343 L 322 342 Z M 305 344 L 303 346 L 306 349 L 309 348 L 310 351 L 313 349 L 314 345 L 309 347 Q 307 343 306 346 L 305 344 Z M 323 345 L 324 348 L 325 346 L 323 345 Z M 329 345 L 328 348 L 329 348 L 329 345 Z M 286 346 L 284 348 L 286 352 L 288 351 L 288 355 L 288 356 L 289 356 L 289 347 L 286 346 Z M 300 348 Q 297 354 302 352 Q 303 349 300 350 L 300 348 Z M 325 348 L 324 358 L 323 359 L 325 359 L 327 359 L 330 358 L 330 353 L 329 356 L 327 357 L 325 356 L 325 348 Z M 328 350 L 329 353 L 330 351 L 328 350 Z M 72 351 L 61 359 L 63 366 L 63 364 L 65 364 L 64 363 L 64 362 L 63 360 L 65 359 L 66 356 L 67 360 L 66 362 L 67 363 L 70 360 L 69 359 Q 67 353 72 354 L 74 354 Q 75 350 72 351 Z M 81 351 L 80 353 L 85 354 L 85 353 L 83 351 L 81 351 Z M 273 351 Q 270 352 272 354 Q 271 356 275 355 L 275 357 L 273 358 Q 274 360 279 359 L 279 355 Q 276 356 277 353 L 273 351 Z M 297 351 L 296 356 L 297 356 L 297 351 Z M 77 352 L 76 354 L 78 355 L 77 352 Z M 87 353 L 87 356 L 85 359 L 89 358 Q 90 354 87 353 Z M 84 355 L 82 357 L 85 357 Q 86 354 84 355 Z M 269 355 Q 267 358 270 357 L 269 355 Z M 300 355 L 302 373 L 303 370 L 306 371 L 307 370 Q 309 369 308 372 L 311 373 Q 312 370 309 371 Q 308 368 311 369 L 314 373 L 314 371 L 317 373 Q 316 375 320 374 L 321 372 L 324 374 Q 329 376 328 372 L 309 364 L 305 356 L 300 355 Z M 317 357 Q 314 358 315 362 L 319 364 L 321 363 L 322 361 L 317 357 Z M 286 359 L 282 360 Q 281 363 285 362 L 286 364 L 287 362 Q 288 358 286 359 Z M 298 359 L 297 363 L 298 363 L 298 359 Z M 269 360 L 269 362 L 272 363 L 274 362 L 277 363 Q 275 365 279 367 L 281 366 L 280 365 L 281 363 L 275 361 L 273 361 L 269 360 Z M 326 360 L 324 364 L 329 366 L 330 364 Q 332 358 326 360 Z M 72 361 L 70 364 Q 69 366 72 365 L 72 361 Z M 262 364 L 258 373 L 259 374 L 263 368 L 262 364 Z M 67 365 L 66 375 L 67 375 L 67 365 Z M 273 365 L 274 367 L 276 366 L 273 365 Z M 319 365 Q 318 368 322 367 Q 323 364 319 365 Z M 324 367 Q 323 369 326 368 L 327 369 Q 328 366 324 367 Z M 62 368 L 62 371 L 65 373 Q 67 366 62 368 Z M 59 369 L 59 373 Q 58 376 61 375 L 60 377 L 65 381 L 67 380 L 68 380 L 68 385 L 72 384 L 69 383 L 71 378 L 70 375 L 68 379 L 67 378 Q 63 379 64 377 L 64 375 L 64 373 L 60 374 Q 61 370 59 369 Z M 333 372 L 331 374 L 333 374 L 333 372 Z M 330 374 L 328 377 L 332 378 L 333 379 L 333 376 L 331 376 Q 332 373 330 374 Z M 84 386 L 80 392 L 81 393 L 82 390 L 86 388 L 84 386 Z M 80 393 L 79 398 L 80 398 L 80 393 Z M 82 398 L 81 401 L 83 402 Q 84 397 82 398 Z M 201 401 L 199 403 L 200 408 L 200 407 L 200 405 L 201 403 L 201 401 Z M 193 403 L 192 407 L 190 406 L 188 409 L 192 408 L 195 409 Q 198 410 196 405 L 195 405 Q 196 407 193 406 L 193 403 Z M 137 404 L 137 406 L 142 406 L 142 405 L 141 405 L 137 404 Z M 178 405 L 177 409 L 178 409 L 178 405 Z M 185 406 L 184 409 L 185 409 L 185 406 Z M 59 407 L 58 410 L 59 410 L 59 407 Z M 68 407 L 66 409 L 67 412 L 68 409 L 68 407 Z M 132 407 L 132 409 L 137 409 L 137 408 L 136 408 L 132 407 Z M 61 411 L 62 414 L 63 412 L 61 411 Z M 110 411 L 107 413 L 110 413 L 110 411 Z M 112 411 Q 111 414 114 413 Q 115 410 112 411 Z M 29 412 L 27 414 L 29 414 L 29 412 Z M 68 413 Q 67 416 70 415 Q 71 412 68 413 Z M 81 414 L 79 418 L 77 417 Q 71 416 70 418 L 66 417 L 63 418 Q 59 419 60 416 L 51 417 L 48 418 Q 34 420 27 416 Q 20 415 21 418 L 12 418 L 12 422 L 14 421 L 19 422 L 21 422 L 23 423 Q 24 421 29 422 L 31 422 L 34 423 L 38 422 L 58 422 L 59 423 L 60 422 L 68 422 L 70 422 L 72 421 Q 77 419 76 423 L 60 425 L 56 425 Q 54 422 48 424 L 46 424 L 38 424 L 37 425 Q 33 422 25 424 L 20 425 L 18 424 L 12 424 L 12 430 L 26 430 L 27 431 L 48 431 L 50 431 L 58 431 L 59 432 L 60 431 L 70 431 L 72 431 L 74 430 L 79 431 L 80 433 L 73 432 L 71 432 L 65 433 L 63 433 L 61 434 L 58 433 Q 51 431 50 434 L 45 433 L 25 433 L 22 432 L 13 432 L 12 434 L 16 435 Q 17 439 12 437 L 12 442 L 19 441 L 21 442 L 30 438 Q 33 437 32 440 L 25 444 L 12 445 L 13 455 L 14 453 L 18 449 L 34 442 Q 40 441 44 438 L 52 438 L 53 437 L 69 438 Q 70 434 72 437 L 74 436 L 84 436 L 85 431 L 85 415 L 84 415 Q 85 419 81 417 L 81 414 Z M 172 414 L 173 420 L 175 419 L 177 420 L 180 419 L 186 420 L 189 422 L 190 414 L 187 415 L 172 414 Z M 174 421 L 175 428 L 183 428 L 185 426 L 185 424 L 181 426 L 179 423 L 185 423 L 182 422 L 180 422 L 174 421 Z M 202 429 L 200 434 L 202 434 L 205 430 L 202 429 Z M 177 430 L 176 436 L 178 435 L 190 438 L 193 440 L 199 440 L 209 445 L 214 446 L 218 450 L 220 450 L 221 448 Q 219 443 214 443 L 212 441 L 211 439 L 202 437 L 200 438 L 196 437 L 192 437 L 185 436 L 183 435 L 192 434 L 190 433 Q 191 430 196 431 L 177 430 Z M 197 434 L 197 435 L 200 435 L 197 434 Z M 208 435 L 209 437 Q 210 434 208 435 Z M 228 442 Q 226 445 229 444 L 228 442 Z M 327 452 L 319 455 L 316 458 L 317 461 L 319 462 Q 323 461 325 463 L 326 463 L 324 460 L 331 456 Q 335 458 334 454 Q 332 451 327 452 Z M 328 458 L 328 461 L 334 462 L 334 459 L 328 458 Z M 327 463 L 327 464 L 328 464 L 328 468 L 325 470 L 311 472 L 313 475 L 328 475 L 333 473 Q 335 472 334 467 Q 333 462 327 463 Z M 318 464 Q 316 467 319 466 L 318 464 Z M 309 489 L 309 491 L 313 493 Q 316 494 314 490 L 309 489 Z M 318 491 L 316 493 Q 315 497 318 498 L 319 496 L 317 495 L 318 493 L 318 491 Z M 292 492 L 287 494 L 285 494 L 282 495 L 280 499 L 273 505 L 268 506 L 266 506 L 261 507 L 263 511 Q 262 514 266 512 Q 267 517 264 519 Q 262 524 266 523 L 267 525 L 271 524 L 273 528 L 271 535 Q 270 539 263 537 L 260 532 L 251 537 L 248 537 L 247 538 L 241 533 L 242 527 Q 243 523 248 523 L 250 523 L 251 520 L 255 517 L 258 520 L 255 512 L 254 514 Q 253 516 249 515 L 246 520 L 242 522 L 234 523 Q 229 525 232 527 L 230 532 L 228 532 Q 231 530 229 525 L 231 522 L 233 522 L 235 520 Q 241 521 243 518 L 243 516 Q 238 520 230 520 L 226 524 L 225 530 L 218 536 Q 210 534 212 539 Q 202 539 197 546 Q 196 548 200 547 L 202 547 Q 203 545 209 546 L 211 546 L 220 546 L 221 547 L 222 546 L 235 546 L 237 546 L 248 546 L 249 545 L 297 545 L 299 545 L 314 544 L 317 539 L 314 537 Q 315 533 312 531 L 305 526 L 288 524 L 284 522 L 283 520 Q 282 513 285 512 Q 284 509 287 510 L 287 508 L 295 506 L 296 504 Q 293 505 294 502 L 293 502 L 291 500 L 293 497 Q 295 496 294 499 L 297 499 L 297 503 Q 295 504 298 505 L 303 503 L 304 501 Q 301 496 294 495 L 292 492 Z M 322 492 L 320 495 L 324 494 L 330 495 L 331 497 Q 329 500 324 500 L 323 502 L 330 502 L 330 504 L 326 505 L 334 505 Q 335 502 332 503 Q 331 499 334 500 L 334 492 L 330 493 Q 323 495 322 492 Z M 176 496 L 175 499 L 176 499 L 176 496 Z M 325 496 L 321 498 L 325 498 L 325 496 Z M 266 497 L 265 499 L 268 499 L 266 497 Z M 176 502 L 176 506 L 177 506 L 176 502 Z M 170 504 L 166 506 L 165 511 L 170 513 Q 174 514 173 512 L 176 510 L 173 506 Q 174 502 170 504 Z M 314 504 L 314 505 L 318 505 L 314 504 Z M 323 504 L 323 505 L 325 505 L 323 504 Z M 311 506 L 305 511 L 301 511 L 299 514 L 303 516 L 308 517 Q 309 514 315 515 L 317 515 L 319 514 L 317 513 L 314 512 Q 311 511 312 514 Q 308 515 309 512 L 311 512 L 310 509 L 318 508 L 311 506 Z M 324 507 Q 321 511 328 509 L 329 507 L 326 508 L 324 507 Z M 331 507 L 331 508 Q 333 507 332 510 L 327 511 L 333 512 Q 335 513 334 511 L 334 509 Q 335 505 331 507 Z M 182 509 L 177 511 Q 178 515 183 514 Q 184 511 182 512 L 182 511 L 182 509 Z M 322 513 L 322 515 L 331 515 L 332 516 Q 334 517 333 515 L 332 513 L 322 513 Z M 176 514 Q 174 517 177 516 L 176 514 Z M 312 517 L 313 520 L 314 518 L 316 519 L 317 522 L 319 523 L 318 519 L 318 517 L 312 517 Z M 322 517 L 322 525 L 329 527 Q 331 528 330 525 L 332 525 Q 334 524 333 527 L 330 528 L 333 529 Q 335 530 334 524 L 333 524 L 331 520 L 334 521 L 334 518 L 331 517 L 329 518 L 322 517 Z M 253 520 L 255 524 Q 257 523 255 522 Q 256 519 253 520 Z M 258 521 L 256 525 L 258 526 L 258 521 Z M 311 521 L 311 523 Q 314 524 312 526 Q 317 527 316 534 L 320 536 Q 321 542 318 545 L 320 544 L 328 545 L 330 545 L 334 545 L 334 535 L 331 531 L 326 529 L 321 531 L 319 528 L 313 523 Q 314 520 311 521 Z M 248 525 L 244 528 L 247 534 L 251 533 Q 256 535 255 532 L 259 530 L 259 529 Q 256 530 257 528 L 256 528 L 252 525 L 248 525 Z M 263 527 L 259 531 L 261 532 Q 260 529 263 530 L 266 534 Q 271 536 269 530 Q 267 525 266 528 L 263 527 Z M 12 544 L 12 548 L 21 548 L 12 544 Z M 83 544 Q 82 547 85 546 Q 86 543 83 544 Z M 283 547 L 282 548 L 233 548 L 230 549 L 228 548 L 225 549 L 187 549 L 186 550 L 183 549 L 181 549 L 178 550 L 175 549 L 174 550 L 131 550 L 130 551 Q 128 549 124 550 L 121 551 L 118 550 L 116 551 L 111 550 L 110 551 L 15 551 L 14 552 L 12 553 L 12 592 L 34 592 L 35 593 L 48 592 L 50 592 L 52 593 L 58 592 L 60 592 L 83 592 L 84 593 L 151 592 L 153 592 Q 163 593 170 591 L 172 591 L 174 592 L 177 591 L 218 591 L 220 591 L 221 590 L 314 590 L 315 589 L 316 590 L 333 590 L 334 589 L 334 547 L 297 547 L 296 548 L 292 547 L 287 548 L 285 548 L 283 547 Z "></path><path d="M 171.5 14 L 207.5 14 L 208 15.5 L 201 18.5 L 202 20.5 L 202 30 Q 207.4 28.5 209 31.5 L 207.5 33 L 185.5 33 L 183.5 34 L 181 33 L 190 77 L 197.5 73 L 196.5 75 L 190.5 79 L 188 76.5 L 188 71.5 L 186 67.5 L 186 62.5 L 184 57.5 L 181 38.5 L 178.5 33 Q 174.8 32.3 174 34.5 L 168.5 64 L 168 58.5 L 173 33 L 153.5 33 L 151.5 32 L 148.5 33 L 146 32.5 L 147.5 30 L 151.5 31 Q 155.9 29.4 155 22.5 L 151.5 17 L 147.5 16 Q 146.2 18.3 145 15.5 L 170.5 15 L 171.5 14 Z M 194 16 L 191 18 L 192 21 L 192 23 L 191 26 L 192 30 L 197 30 L 197 18 L 194 16 Z M 157 17 L 159 21 L 160 19 Q 161 16 157 17 Z M 166 17 L 160 25 L 163 30 L 171 30 L 173 32 L 174 30 L 173 25 L 168 20 L 169 19 Q 170 16 166 17 Z M 175 17 L 173 19 L 178 27 L 182 17 L 177 18 L 175 17 Z M 185 17 L 179 30 L 187 30 L 188 26 L 187 22 Q 189 16 185 17 Z M 158 28 L 156 30 L 158 31 L 158 28 Z "></path><path d="M 54.5 22 L 56 23.5 L 61 41.5 L 60 41.5 L 54.5 24 L 53 24.5 L 54.5 22 Z "></path><path d="M 290.5 25 L 297 42 Q 294.3 43.1 295 40.5 L 292 34.5 L 291 27 L 289 26.5 L 290.5 25 Z "></path><path d="M 288.5 28 L 289 29.5 L 286.5 41 L 286 35.5 L 288.5 28 Z "></path><path d="M 52.5 29 L 52 30.5 L 51.5 32 L 51 30.5 L 52.5 29 Z "></path><path d="M 33.5 30 L 42 48.5 L 40 47.5 L 33 32.5 L 33.5 30 Z "></path><path d="M 271.5 30 L 273 32.5 L 273 34.5 L 276 40.5 L 274 39.5 L 271 33.5 L 271.5 30 Z "></path><path d="M 274.5 33 L 276.5 36 L 274.5 33 Z "></path><path d="M 315 33 Q 317.7 31.9 317 34.5 L 312 42 L 310 41.5 Q 314.8 39 315 33 Z "></path><path d="M 77 34 L 80 34.5 L 68.5 51 L 68 49.5 L 76 38.5 L 77 34 Z "></path><path d="M 49 36 L 51 36.5 L 49 37.5 L 49 36 Z "></path><path d="M 308.5 44 L 307 46.5 Q 307.8 48.8 305.5 48 L 308.5 44 Z "></path><path d="M 119 46 L 123 48.5 L 123 51.5 L 140 82.5 L 138 81.5 L 119 46 Z "></path><path d="M 236.5 47 Q 238.8 46.3 238 48.5 L 208 95 L 216 96.5 L 211.5 97 L 206 94.5 L 236 49.5 Q 233.7 48.2 236.5 47 Z "></path><path d="M 233.5 49 L 230.5 53 L 228.5 54 L 228 52 L 233.5 49 Z "></path><path d="M 125.5 50 L 130 53.5 L 128.5 53 L 125.5 50 Z "></path><path d="M 25.5 54 Q 28.5 53.2 27 57 L 24 55.5 L 25.5 54 Z "></path><path d="M 84 54 L 87 55.5 Q 83.3 58.8 76.5 59 L 76.5 58 L 82.5 57 L 84 55.5 L 84 54 Z "></path><path d="M 131.5 54 L 136 57.5 L 133.5 56 L 131.5 54 Z "></path><path d="M 225.5 54 L 227 54.5 L 204.5 70 L 206.5 67 L 225.5 54 Z "></path><path d="M 262 54 Q 265 53 264 56 Q 261 57 262 54 Z "></path><path d="M 323.5 54 L 324 57 Q 321.3 58.1 322 55.5 L 323.5 54 Z "></path><path d="M 35.5 58 L 36.5 60 Q 33.7 60.7 35.5 58 Z "></path><path d="M 137.5 58 L 142 61.5 L 140.5 61 L 137.5 58 Z "></path><path d="M 71.5 59 L 74 59.5 L 71.5 60 L 71.5 59 Z "></path><path d="M 39.5 60 L 40 61.5 L 31 72.5 L 31 75 Q 28.3 76.1 29 73.5 L 36 63 L 39 61.5 L 39.5 60 Z "></path><path d="M 66 60 Q 69 58.8 68 62.5 L 77 78.5 L 75 77.5 L 66 60 Z "></path><path d="M 143.5 62 L 144.5 64 L 143.5 62 Z "></path><path d="M 277.5 62 L 276 64.5 L 272 72 L 270 71.5 L 277.5 62 Z "></path><path d="M 306.5 64 L 308 66.5 L 307 66.5 L 306.5 64 Z "></path><path d="M 147.5 65 L 153 68.5 L 151.5 68 Q 146.8 67.2 147.5 65 Z "></path><path d="M 167.5 65 L 168 68.5 L 166.5 72 L 166 68.5 L 167.5 65 Z "></path><path d="M 45.5 67 Q 49.3 66.3 50 68.5 L 49.5 71 L 49 68 Q 43.2 67.2 40.5 71 L 41.5 69 L 45.5 67 Z "></path><path d="M 58.5 67 L 60 67.5 L 58 70.5 L 56 89.5 L 54.5 91 L 53 86 Q 56.7 87.3 55 81.5 L 57 74.5 L 57 68.5 L 58.5 67 Z "></path><path d="M 280.5 68 L 282 68.5 L 277.5 72 L 277 70 L 280.5 68 Z "></path><path d="M 309.5 69 L 314 76.5 L 312 77 L 309.5 69 Z "></path><path d="M 63.5 70 L 70 74.5 L 67.5 73 Q 63.5 72.5 63.5 70 Z "></path><path d="M 154.5 70 L 165 76 Q 163.5 72.3 166.5 73 L 166 74.5 Q 167.3 78.3 163.5 77 L 154.5 71 L 154.5 70 Z "></path><path d="M 295 70 L 297 70.5 L 292.5 86 Q 290.3 85.3 291 81.5 L 292 81.5 L 292.5 83 L 295 70 Z "></path><path d="M 200.5 71 L 199.5 73 L 200.5 71 Z "></path><path d="M 50.5 72 L 52 78.5 L 51 78.5 L 50.5 72 Z "></path><path d="M 288.5 73 L 289.5 75 Q 286.7 75.7 288.5 73 Z "></path><path d="M 267 74 L 270 75.5 L 267 76 L 267 74 Z "></path><path d="M 71.5 75 L 72.5 77 L 71.5 75 Z "></path><path d="M 289.5 77 L 291 79.5 L 290 79.5 L 289.5 77 Z "></path><path d="M 140.5 84 L 147 95.5 L 145 96 L 145 93.5 L 140 85.5 L 140.5 84 Z "></path><path d="M 139.5 96 L 138.5 98 L 139.5 96 Z "></path><path d="M 290 96 Q 293 94.8 292 98.5 L 299 116.5 L 296 114.5 L 292 99 Q 289.3 97.9 290 100.5 L 289 100.5 L 290 96 Z "></path><path d="M 54.5 97 L 59 116.5 L 57 115.5 L 55 103.5 L 53.5 102 L 50.5 109 L 51 107.5 L 54.5 97 Z "></path><path d="M 110.5 102 L 111 104 L 109 103.5 L 110.5 102 Z "></path><path d="M 289.5 102 L 290 107.5 L 289 107.5 L 289.5 102 Z "></path><path d="M 245.5 103 L 248 103.5 L 245.5 104 L 245.5 103 Z "></path><path d="M 32.5 106 L 36 113.5 L 34 112.5 Q 31 110 32.5 106 Z "></path><path d="M 91.5 106 L 94 109.5 L 92.5 110 L 90 109 L 91.5 106 Z "></path><path d="M 261.5 106 L 265 107 Q 266.3 110 262.5 109 L 245.5 114 L 246.5 112 L 261 109 L 261.5 106 Z "></path><path d="M 270.5 106 L 278 111.5 L 275.5 110 L 272 109 L 275 114.5 L 273 113.5 Q 268.8 110.9 270.5 106 Z "></path><path d="M 78.5 108 L 79 109.5 L 69 124.5 L 69.5 126 L 67 124.5 L 75 113.5 L 76 109 L 78.5 108 Z "></path><path d="M 316.5 108 Q 318.8 107.3 318 109.5 L 308.5 121 L 311 117.5 L 316 110.5 L 313.5 110 L 312 110.5 L 316.5 108 Z "></path><path d="M 288.5 109 L 289 112.5 L 288 112.5 L 288.5 109 Z "></path><path d="M 49.5 112 L 50 114.5 L 48.5 117 L 48 114.5 L 49.5 112 Z "></path><path d="M 280.5 112 L 281.5 114 L 280.5 112 Z "></path><path d="M 241.5 113 L 242 115 L 234.5 116 L 234.5 115 L 241.5 113 Z "></path><path d="M 305.5 113 L 307 113.5 L 304.5 115 L 305.5 113 Z "></path><path d="M 283.5 114 L 284.5 116 L 283.5 114 Z "></path><path d="M 287.5 114 L 288 116.5 L 287 116.5 L 287.5 114 Z "></path><path d="M 36.5 115 L 38 118.5 L 37 118.5 L 36.5 115 Z "></path><path d="M 62.5 115 L 64 115.5 L 61.5 117 L 62.5 115 Z "></path><path d="M 126.5 115 Q 128.8 114.3 128 116.5 L 126.5 115 Z "></path><path d="M 229.5 116 L 233 116.5 L 229.5 117 L 229.5 116 Z "></path><path d="M 225.5 117 L 228 117.5 L 223.5 119 L 223.5 118 L 225.5 117 Z "></path><path d="M 277.5 119 Q 279.8 118.3 279 120.5 L 281 123.5 L 280 123.5 L 277.5 119 Z "></path><path d="M 145.5 120 L 146 122.5 L 116 167.5 Q 118.3 168.8 115.5 170 Q 112.9 170.8 114 167.5 L 145.5 120 Z "></path><path d="M 39.5 121 L 41 124.5 L 37.5 126 L 37.5 125 Q 40.8 126.1 40 123.5 L 39.5 121 Z "></path><path d="M 209.5 121 L 212 121.5 L 209.5 122 L 209.5 121 Z "></path><path d="M 205.5 122 L 208 122.5 L 208 124.5 L 238 173.5 L 236.5 174 Q 214 154.8 189 139 L 179 198 Q 176.3 199.1 177 196.5 L 170 169.5 L 172 170.5 L 172 174.5 L 177.5 194 L 188 138 L 191.5 138 L 234.5 171 L 234 169.5 L 207 126.5 L 205.5 122 Z "></path><path d="M 274.5 125 L 277 125.5 L 274.5 126 L 274.5 125 Z "></path><path d="M 321 128 Q 323.7 126.9 323 129.5 L 321 130.5 L 321 128 Z "></path><path d="M 83.5 129 L 88 131.5 L 75.5 134 L 75.5 133 L 84 131.5 L 83.5 129 Z "></path><path d="M 261 129 L 264 129.5 L 261 131 L 261 129 Z "></path><path d="M 24.5 131 L 30 132.5 L 26.5 133 L 24.5 131 Z "></path><path d="M 315.5 131 L 318 131.5 L 315.5 132 L 315.5 131 Z "></path><path d="M 69.5 134 L 72 134.5 L 69.5 135 L 69.5 134 Z "></path><path d="M 279 134 Q 282 133 281 136 L 278.5 137 L 279 135.5 L 279 134 Z "></path><path d="M 307.5 134 L 315 147.5 L 312 145.5 L 307 136.5 L 307.5 134 Z "></path><path d="M 67.5 135 L 76 153.5 L 74 152.5 L 74 149.5 L 67 137.5 L 67.5 135 Z "></path><path d="M 163.5 139 L 165 144.5 L 164 144.5 L 163.5 139 Z "></path><path d="M 276.5 139 L 274 142.5 Q 274.8 144.8 272.5 144 L 276.5 139 Z "></path><path d="M 159.5 140 L 162 140.5 L 149.5 148 L 150.5 146 L 159.5 140 Z "></path><path d="M 288.5 140 L 293.5 163 L 295 161.5 L 297 143.5 L 298.5 141 L 299 143.5 L 295 165 Q 292.3 166.1 293 163.5 L 288 144.5 L 288.5 140 Z "></path><path d="M 60.5 142 L 60 143.5 L 56 163.5 L 54.5 165 Q 51.1 165.9 53 160.5 L 50 145.5 L 48.5 144 L 41.5 148 L 41.5 147 L 49.5 143 L 51 144.5 L 52 154.5 L 54.5 162 L 58 150.5 L 58 146.5 L 60.5 142 Z "></path><path d="M 282.5 142 L 284 142.5 L 280.5 144 L 280.5 143 L 282.5 142 Z "></path><path d="M 301.5 143 L 310.5 148 L 313 148 Q 311.9 150.7 314.5 150 Q 315.8 147.7 317 150.5 Q 317.8 152.8 315.5 152 L 301.5 144 L 301.5 143 Z "></path><path d="M 277.5 144 L 279 144.5 L 276.5 146 L 277.5 144 Z "></path><path d="M 165.5 146 L 168 156.5 L 167 156.5 L 165.5 146 Z "></path><path d="M 270.5 146 L 271 149 Q 268.3 150.1 269 147.5 L 270.5 146 Z "></path><path d="M 146 148 L 148 148.5 L 146 149.5 L 146 148 Z "></path><path d="M 32.5 149 L 32 150.5 L 30.5 155 L 30 152.5 L 32.5 149 Z "></path><path d="M 38.5 149 L 37.5 151 L 33.5 153 L 34.5 151 L 38.5 149 Z "></path><path d="M 144.5 150 L 143.5 152 L 144.5 150 Z "></path><path d="M 140.5 152 L 142 152.5 L 127.5 162 L 129.5 159 L 140.5 152 Z "></path><path d="M 168.5 158 L 171 167.5 L 169 166.5 L 168.5 158 Z "></path><path d="M 123.5 163 L 125 163.5 L 119.5 167 L 121.5 164 L 123.5 163 Z "></path><path d="M 287.5 164 L 292 166.5 Q 292.8 172.3 289.5 174 L 289 171.5 L 290 166 L 287.5 164 Z "></path><path d="M 306.5 165 Q 309.1 164.2 308 167.5 L 305 172 L 302 173.5 Q 302.8 176.1 299.5 175 L 299.5 177 L 297.5 177 L 296 176.5 L 299 170.5 L 297 170.5 L 303.5 167 L 302.5 170 L 306 167.5 Q 303.8 166.3 306.5 165 Z M 300 171 L 300 173 L 302 172 L 300 171 Z "></path><path d="M 282.5 167 L 284 167.5 L 282 168 Q 280.9 170.7 283.5 170 L 288 171.5 L 283.5 173 L 281.5 172 L 273 177 L 278.5 170 L 282.5 167 Z "></path><path d="M 285 167 Q 287.7 165.9 287 168.5 L 285 169.5 L 285 167 Z "></path><path d="M 92 170 L 95 171.5 L 100 187.5 L 98 186.5 L 93.5 172 L 89.5 185 L 89 181.5 L 92 170 Z "></path><path d="M 255.5 171 L 257 173.5 L 260 189.5 L 259 189.5 L 256 175 L 253.5 176 L 253 174.5 L 255.5 171 Z "></path><path d="M 293 171 Q 296.3 169.7 295 174.5 L 294 179 L 286 177 Q 285 183.3 288 186.5 L 285 184.5 L 284 178.5 L 287.5 174 L 288.5 176 L 290.5 175 L 293 176 L 293 171 Z "></path><path d="M 314.5 171 L 315 173.5 Q 314 178 307.5 177 L 307.5 176 L 314 174 L 314.5 171 Z "></path><path d="M 304.5 177 L 305.5 179 Q 302.7 179.7 304.5 177 Z "></path><path d="M 71 178 Q 74.3 176.7 73 181.5 L 74 183.5 L 73 183.5 L 71 178 Z "></path><path d="M 116.5 179 Q 119.1 178.3 118 181 Q 115 179.8 116 183.5 L 107 196.5 L 108 198.5 L 106 197.5 L 106 195.5 L 115 182.5 Q 112.3 180.7 116.5 179 Z "></path><path d="M 288.5 179 L 287.5 181 L 288.5 179 Z "></path><path d="M 233 180 Q 236 178.8 235 182.5 L 233 181.5 L 233 180 Z "></path><path d="M 236.5 181 L 238.5 184 L 236.5 181 Z "></path><path d="M 252.5 181 L 253 184.5 L 250.5 191 L 250 188.5 L 252.5 181 Z "></path><path d="M 276.5 181 Q 279.3 182.2 277 183.5 L 269 198 Q 266.3 199.1 267 196.5 L 275 185.5 L 276.5 181 Z "></path><path d="M 110.5 182 L 112 182.5 L 102.5 187 L 102.5 186 L 110.5 182 Z "></path><path d="M 295.5 182 L 293.5 185 L 295.5 182 Z "></path><path d="M 272.5 183 L 271.5 185 L 272.5 183 Z "></path><path d="M 235.5 184 L 241 193.5 L 240 193.5 L 235.5 184 Z "></path><path d="M 240.5 184 L 249 190.5 L 246.5 189 Q 241.5 187.5 240.5 184 Z "></path><path d="M 74.5 185 L 76 188.5 L 75 188.5 L 74.5 185 Z "></path><path d="M 82.5 185 L 85 186.5 L 83.5 186 L 82.5 185 Z "></path><path d="M 77.5 191 L 79 195.5 L 78 195.5 L 77.5 191 Z "></path><path d="M 243.5 197 L 244 199 L 241.5 200 L 243.5 197 Z "></path><path d="M 238.5 199 L 240 199.5 Q 234.5 203.2 226 203 Q 227 206 224 205 Q 222.9 202.3 225.5 203 L 238.5 199 Z "></path><path d="M 113.5 200 L 117 200.5 L 113.5 201 L 113.5 200 Z "></path><path d="M 60.5 201 L 62.5 204 L 60 203 L 60.5 201 Z "></path><path d="M 118.5 201 L 121 201.5 L 118.5 202 L 118.5 201 Z "></path><path d="M 122 202 Q 125 201 124 204 Q 121 205 122 202 Z "></path><path d="M 115.5 205 L 119 205.5 L 109.5 208 L 109.5 207 L 115.5 205 Z "></path><path d="M 80.5 206 L 80 207.5 L 77.5 211 L 78 209.5 L 80.5 206 Z "></path><path d="M 106.5 208 L 112.5 220 L 121.5 213 L 132.5 210 L 132.5 211 L 126.5 212 L 114 220.5 L 110.5 225 L 103 218.5 L 105.5 220 L 110.5 223 L 111 220.5 L 106 210.5 L 106.5 208 Z "></path><path d="M 241.5 208 L 242 209.5 L 240 210.5 L 241.5 208 Z "></path><path d="M 76.5 212 L 75 214.5 L 71 223 L 69 222.5 L 76.5 212 Z "></path><path d="M 86.5 213 L 89 216.5 L 92.5 231 L 96 215 Q 98.7 213.9 98 216.5 L 95 223.5 L 94 231.5 L 92.5 233 Q 89.5 233.9 91 229.5 L 86.5 213 Z "></path><path d="M 84.5 214 L 83.5 216 L 84.5 214 Z "></path><path d="M 152.5 214 L 163.5 220 L 168.5 218 L 167.5 220 L 161.5 221 L 152.5 215 L 152.5 214 Z "></path><path d="M 190.5 214 L 204.5 214 L 213.5 216 L 215.5 216 L 221.5 217 L 224.5 219 L 226.5 219 L 231.5 221 L 236.5 215 L 237 216.5 L 234 220.5 L 237.5 222 L 240.5 220 L 239.5 223 L 250 225 L 249 221.5 L 250 219.5 L 249 216.5 L 251 217.5 L 251 225.5 L 252.5 227 L 256.5 228 Q 258.8 225.3 258 219.5 L 259.5 218 L 259 221.5 Q 260.3 226.3 258 227.5 L 268.5 232 L 289 251.5 L 288.5 253 L 273 239.5 L 267.5 233 L 251.5 228 L 250.5 229 L 246.5 227 L 216.5 218 L 210.5 218 L 202.5 216 L 192.5 216 L 180.5 221 L 174 226 L 172.5 229 L 169.5 228 L 161 232.5 L 159.5 235 Q 156.9 238.4 149.5 237 L 144 234.5 L 148.5 234 Q 150 236.5 155.5 235 L 170.5 225 L 172 225.5 L 170.5 223 L 166.5 224 L 167.5 222 Q 173 223.5 174.5 221 L 176.5 222 L 190.5 214 Z M 279 217 L 281 221 L 284 220 Q 286 221 285 218 L 279 217 Z M 277 222 L 276 225 L 277 228 L 279 224 Q 280 221 277 222 Z M 281 223 L 281 225 L 284 226 Q 286 222 281 223 Z "></path><path d="M 126.5 215 L 128 215.5 L 121 219 Q 122.1 221.7 119.5 221 L 117.5 222 L 119.5 219 L 126.5 215 Z "></path><path d="M 173.5 216 L 175 216.5 L 171.5 218 L 171.5 217 L 173.5 216 Z "></path><path d="M 176.5 216 L 179 216.5 Q 176.9 219.8 176.5 216 Z "></path><path d="M 150.5 217 L 159 222.5 L 157.5 224 L 151.5 218 L 150.5 217 Z "></path><path d="M 261.5 217 L 271 224.5 L 269.5 224 Q 263.5 221.5 261.5 217 Z "></path><path d="M 75.5 219 L 77 219.5 L 74.5 221 L 75.5 219 Z "></path><path d="M 131.5 220 Q 136.3 218.7 135 222 Q 129.3 221 127 224.5 L 126.5 226 L 126 224.5 L 131.5 220 Z "></path><path d="M 144 222 Q 147 221 146 224 Q 143 225 144 222 Z "></path><path d="M 141.5 224 L 146.5 229 L 151 229 Q 152.3 232.7 146.5 231 L 141 225.5 L 141.5 224 Z "></path><path d="M 108 226 L 110 226.5 Q 107.2 229.2 108 235.5 L 105 241.5 L 105 248.5 L 110 256.5 L 107 254.5 L 103 244.5 L 107 234.5 L 108 226 Z "></path><path d="M 294 226 Q 296.7 224.9 296 227.5 L 298 231 L 294 228.5 L 294 226 Z "></path><path d="M 122.5 229 L 123 232.5 L 118.5 240 L 117 239.5 L 122.5 229 Z "></path><path d="M 53 230 Q 55.7 228.9 55 231.5 L 61 251.5 L 59 250.5 L 55 233.5 L 53.5 232 L 51 239.5 L 51 243.5 L 47.5 251 L 48 249.5 L 53 230 Z "></path><path d="M 125 230 Q 127.7 228.9 127 231.5 L 126 236.5 L 121.5 241 L 120 240.5 L 122 240 L 125 233.5 L 125 230 Z "></path><path d="M 134.5 231 L 142 232 L 143 239 Q 140.3 240.1 141 237.5 L 139.5 234 L 137.5 239 L 136 236 Q 132.3 234.7 134 240.5 L 130 243.5 L 132 240.5 L 133 234 L 137.5 235 L 138 233 Q 133.8 233 134.5 231 Z "></path><path d="M 299 231 Q 305.5 230.3 308 234.5 L 307 243.5 L 308 245.5 L 308 247.5 Q 309.3 254.8 304.5 256 L 300 257 L 299.5 259 L 299 256 L 303 255 L 305 251.5 L 305 235.5 L 304 233 L 299 233 L 299 231 Z "></path><path d="M 128 237 L 130 237.5 L 127 239.5 L 128 237 Z "></path><path d="M 111.5 238 L 112 239.5 Q 108 241.5 108 247.5 L 109 251 L 111 251 L 111 247 L 112.5 247 L 112 248.5 L 112 251.5 L 116.5 256 L 121.5 259 L 123.5 259 L 129 263.5 L 126.5 262 L 122.5 259 L 119.5 260 L 113.5 256 L 111.5 257 L 111.5 256 Q 113.8 256.8 113 254.5 L 108 250.5 L 107 243.5 L 111.5 238 Z "></path><path d="M 31 241 L 33 241.5 L 32.5 244 L 31 241 Z "></path><path d="M 78.5 242 L 79 243.5 L 75.5 248 L 75 246.5 L 78.5 242 Z "></path><path d="M 43.5 247 L 45.5 250 L 43.5 247 Z "></path><path d="M 35.5 248 L 36.5 250 L 35.5 248 Z "></path><path d="M 124.5 248 L 125 249.5 Q 122.3 250.6 123 254 Q 125.7 255.1 125 252.5 L 127.5 249 L 129 253.5 L 128 256 L 123.5 257 L 120 254.5 L 122.5 249 L 124.5 248 Z "></path><path d="M 73.5 249 L 74 250.5 L 67.5 259 L 66 258.5 L 73.5 249 Z "></path><path d="M 217.5 249 Q 220.8 254.2 219 264.5 L 217 268 L 215 268 Q 216.5 271.7 213.5 271 Q 210 275.5 201.5 275 L 191 266.5 L 191.5 264 L 201.5 273 L 208.5 273 L 216 266.5 L 218 261.5 L 218 256.5 Q 215.2 254.7 217.5 249 Z "></path><path d="M 37.5 251 L 42 257.5 L 40 256.5 L 37.5 251 Z "></path><path d="M 310.5 256 L 314 256.5 Q 312.8 259.3 311.5 257 L 310.5 256 Z "></path><path d="M 262.5 257 L 272 262 L 272.5 264 L 274.5 263 L 274 264.5 L 274.5 266 L 276.5 266 Q 279.8 264.9 279 267.5 L 281 267.5 Q 280.3 270.1 283 269 L 283 271 L 280.5 270 L 279.5 271 L 276.5 268 L 273.5 270 L 272 269.5 L 272 274 Q 275 273 274 276 L 267 279 L 267 277 Q 269.7 278.1 269 275.5 L 271 268 Q 274.3 269.1 273 265 L 262 259 L 262.5 257 Z "></path><path d="M 294.5 257 L 303 266.5 L 301.5 267 L 294 258.5 L 294.5 257 Z "></path><path d="M 306 259 Q 308.7 257.9 308 260.5 L 309.5 260 Q 312.5 259.2 311 263 L 308 264.5 Q 308.9 267.5 304.5 266 Q 302.3 265.3 303 261.5 L 306 260.5 L 306 259 Z "></path><path d="M 317.5 262 L 319 265.5 Q 317.5 268.5 316 265.5 L 317.5 262 Z "></path><path d="M 82 263 L 85 263.5 L 82 265 L 82 263 Z "></path><path d="M 22.5 265 Q 26.3 264 25 267 L 22.5 265 Z "></path><path d="M 79.5 265 L 81 265.5 L 77.5 267 L 77.5 266 L 79.5 265 Z "></path><path d="M 208.5 265 L 211 265.5 L 208.5 266 L 208.5 265 Z "></path><path d="M 329.5 266 L 331 266 L 331 270 Q 328.3 271.1 329 268.5 Q 326.7 267.3 329.5 266 Z "></path><path d="M 311 267 Q 314 266 313 269 Q 310 270 311 267 Z "></path><path d="M 69.5 268 L 68 270.5 L 71 276.5 L 69 275.5 L 66 269 L 69.5 268 Z "></path><path d="M 38.5 270 Q 40.8 269.3 40 271.5 L 38 272.5 L 38.5 270 Z "></path><path d="M 285.5 270 L 294 274 L 297.5 280 L 302.5 279 L 302.5 280 L 294.5 283 L 293 282.5 Q 293.8 286.8 291 287.5 L 291 292.5 L 292 294.5 L 290.5 296 Q 288.8 292.9 287 294.5 L 289 290.5 L 288 287 L 286 286.5 L 290 284.5 L 294 279.5 L 294 277.5 L 293 275 L 289.5 275 L 284 271.5 L 285.5 270 Z "></path><path d="M 315 270 Q 318.7 268.8 317 274 L 314 272.5 L 315 270 Z "></path><path d="M 321.5 270 L 323 273 L 320 271.5 L 321.5 270 Z "></path><path d="M 37.5 274 L 38 275.5 L 36 276.5 L 37.5 274 Z "></path><path d="M 279 277 Q 282 276 281 279 Q 278 280 279 277 Z "></path><path d="M 47.5 278 L 51 288.5 L 49 289 L 47.5 278 Z "></path><path d="M 58 278 Q 60.7 276.9 60 279.5 L 52.5 304 Q 50.1 301.9 51 296.5 L 52 296.5 L 52.5 300 L 58 278 Z "></path><path d="M 71.5 278 L 76 287.5 L 74 286.5 L 71.5 278 Z "></path><path d="M 264.5 278 L 266 278.5 L 264 279 Q 265.1 281.7 262.5 281 L 259 282 Q 257.8 279 261.5 280 L 264.5 278 Z "></path><path d="M 34.5 279 L 35 280.5 L 31.5 287 Q 29.3 287.8 30 285.5 L 34.5 279 Z "></path><path d="M 287.5 279 Q 289.8 278.3 289 280.5 Q 287.5 283.5 286 280.5 L 287.5 279 Z "></path><path d="M 283 280 Q 286.3 278.9 285 283 Q 281.7 284.1 283 280 Z "></path><path d="M 39.5 281 L 41 281.5 L 38.5 283 L 39.5 281 Z "></path><path d="M 64.5 281 L 71 284.5 L 69.5 285 L 64.5 282 L 64.5 281 Z "></path><path d="M 275.5 281 Q 278.1 280.3 277 283 L 274 282.5 L 275.5 281 Z "></path><path d="M 269 282 Q 272.8 280.5 272 283.5 L 269 285 L 269 282 Z "></path><path d="M 265 284 Q 269.5 282.5 268 287 L 265 285.5 L 265 284 Z "></path><path d="M 326.5 287 L 329 288.5 L 328.5 290 L 326.5 287 Z "></path><path d="M 280 288 Q 283 287 282 290 Q 279 291 280 288 Z "></path><path d="M 268 289 Q 271.3 287.9 270 292 Q 266.7 293.1 268 289 Z "></path><path d="M 50.5 290 L 51 294.5 L 50 294.5 L 50.5 290 Z "></path><path d="M 273 290 Q 276.8 288.5 276 291.5 Q 274.5 294.5 273 291.5 L 273 290 Z "></path><path d="M 211.5 293 L 214 294 L 212.5 297 Q 210.3 297.8 211 295.5 Q 208.8 294.3 211.5 293 Z "></path><path d="M 272.5 293 L 273 295 L 271 294.5 L 272.5 293 Z "></path><path d="M 280.5 295 L 282 295.5 L 279.5 297 L 280.5 295 Z "></path><path d="M 277 300 Q 280.7 298.8 279 304 Q 275.3 305.2 277 300 Z "></path><path d="M 281.5 302 Q 284.1 301.3 283 304 L 280 303.5 L 281.5 302 Z "></path><path d="M 326.5 304 Q 328.8 303.3 328 305.5 L 326.5 304 Z "></path><path d="M 41.5 305 L 42 307.5 L 41 307.5 L 41.5 305 Z "></path><path d="M 299.5 306 L 300 308.5 L 299 308.5 L 299.5 306 Z "></path><path d="M 36.5 308 L 37 310.5 L 36 310.5 L 36.5 308 Z "></path><path d="M 43.5 309 L 44 311.5 L 43 311.5 L 43.5 309 Z "></path><path d="M 51.5 313 L 52 315.5 L 51 315.5 L 51.5 313 Z "></path><path d="M 102.5 313 L 103 317.5 L 102 317.5 L 102.5 313 Z "></path><path d="M 104.5 314 L 105 316.5 L 104 316.5 L 104.5 314 Z "></path><path d="M 21.5 316 L 22 321.5 L 21 321.5 L 21.5 316 Z "></path><path d="M 288.5 318 L 289 321.5 L 287 322.5 L 288.5 318 Z "></path><path d="M 327.5 318 L 329 322 Q 324.9 323.7 326 319.5 L 327.5 318 Z "></path><path d="M 12 319 L 14 319.5 L 12 320.5 L 12 319 Z "></path><path d="M 61 319 Q 65.5 317.3 64 322.5 L 61 320.5 L 61 319 Z "></path><path d="M 68.5 320 Q 71.5 319.2 70 323 L 67 321.5 L 68.5 320 Z "></path><path d="M 75 321 L 78 322.5 Q 78.8 325.5 75 324 L 75 321 Z "></path><path d="M 80 322 L 83 323.5 Q 81.5 326.5 80 323.5 L 80 322 Z "></path><path d="M 319.5 322 Q 321.8 321.3 321 323.5 Q 323.3 324.8 320.5 326 L 318 324.5 L 319.5 322 Z "></path><path d="M 313.5 323 Q 316.1 322.2 315 325.5 L 316 328.5 Q 314.7 332 310 331 Q 309.2 326.7 313 325.5 Q 310.8 324.3 313.5 323 Z "></path><path d="M 50.5 324 L 53 325.5 L 51.5 328 Q 49.3 328.8 50 326.5 Q 47.8 325.3 50.5 324 Z "></path><path d="M 95.5 324 Q 100.3 322.7 99 326 Q 95.2 326.8 95.5 324 Z "></path><path d="M 89.5 325 L 91 328 Q 87.3 329.5 88 326.5 L 89.5 325 Z "></path><path d="M 102 325 L 106 325 L 106 326.5 Q 104.8 329.3 103.5 327 Q 100.9 327.7 102 325 Z "></path><path d="M 43 326 L 47 326.5 L 43 328 L 43 326 Z "></path><path d="M 62.5 326 Q 67.3 324.7 66 328 L 63.5 329 L 62.5 326 Z "></path><path d="M 26.5 327 Q 28 330.5 29.5 328 L 32 329.5 L 31 332 Q 28.3 333.1 29 330.5 L 28 330.5 L 27.5 332 L 25 328.5 L 26.5 327 Z "></path><path d="M 76 327 Q 80.5 325.5 79 330 L 76 328.5 L 76 327 Z "></path><path d="M 282.5 327 L 284 330.5 Q 282.8 333.2 281.5 331 L 279.5 332 L 278 328 L 280.5 329 L 282.5 327 Z "></path><path d="M 34.5 328 Q 37.5 327.2 36 331 L 33 329.5 L 34.5 328 Z "></path><path d="M 96 328 L 100 329.5 Q 100.8 331.8 98.5 331 Q 97.2 333.2 96 330.5 L 96 328 Z "></path><path d="M 12 329 L 15 330.5 L 12 332 L 12 329 Z "></path><path d="M 58 329 Q 61 328 60 331 L 57.5 332 L 58 330.5 L 58 329 Z "></path><path d="M 68 329 L 71 330.5 L 68 332 L 68 329 Z "></path><path d="M 80 329 L 84 330.5 L 80 331 L 80 329 Z "></path><path d="M 17 330 Q 20.7 328.5 20 331.5 Q 18.5 334.5 17 331.5 L 17 330 Z "></path><path d="M 46 330 Q 50.5 328.5 49 333 L 46 331.5 L 46 330 Z "></path><path d="M 102.5 330 L 105 331.5 L 102.5 333 Q 99.5 331.5 102.5 330 Z "></path><path d="M 84.5 332 Q 88.3 331 87 334 L 84.5 332 Z "></path><path d="M 38.5 333 L 40 336 L 36 334.5 L 38.5 333 Z "></path><path d="M 42.5 334 L 43 337 Q 40.3 338.1 41 335.5 L 42.5 334 Z "></path><path d="M 90.5 334 L 93 335.5 L 90.5 337 Q 87.5 335.5 90.5 334 Z "></path><path d="M 275 334 Q 279.5 332.5 278 337 Q 273.5 338.5 275 334 Z "></path><path d="M 15.5 335 Q 18 336 17 340.5 L 15 341.5 L 14 336.5 L 15.5 335 Z "></path><path d="M 24.5 336 L 26 340 L 23 338.5 L 24.5 336 Z "></path><path d="M 58 336 L 62 337.5 L 62 339 L 58 339 L 58 336 Z "></path><path d="M 19 337 Q 22.7 335.8 21 341 Q 17.3 342.2 19 337 Z "></path><path d="M 46 337 L 49.5 338 L 53 337 Q 54.5 340.7 51.5 340 L 49 339 Q 50.1 341.7 47.5 341 L 46 337 Z "></path><path d="M 70.5 337 Q 76.2 335.4 74 341 Q 69.9 342.7 71 338.5 L 70.5 337 Z "></path><path d="M 85.5 337 L 87.5 341 L 89.5 340 Q 92.5 341.5 89.5 343 L 86.5 341 Q 84.8 343.7 83 339.5 Q 82.3 337.3 84.5 338 L 85.5 337 Z "></path><path d="M 30 340 Q 34.1 338.3 33 342.5 L 31.5 342 Q 28.9 342.7 30 340 Z "></path><path d="M 77.5 340 L 80 341.5 L 78.5 344 Q 76.3 344.8 77 342.5 Q 74.8 341.3 77.5 340 Z "></path><path d="M 94 341 L 98 341 L 98 342.5 L 95.5 344 L 94 341 Z "></path><path d="M 53.5 342 L 55 346 L 52 344.5 L 53.5 342 Z "></path><path d="M 71 342 L 75 343.5 L 73.5 346 L 71 342 Z "></path><path d="M 43.5 343 L 44 346.5 L 42.5 346 Q 39.9 346.7 41 344 L 43.5 343 Z "></path><path d="M 57.5 343 Q 61.7 341.9 60 346 L 56 344.5 L 57.5 343 Z "></path><path d="M 64 343 Q 68.1 341.7 67 345 Q 62.9 346.3 64 343 Z "></path><path d="M 19.5 344 L 22.5 348 Q 23.6 345.3 27 346 Q 28 349.8 25.5 351 L 23.5 348 L 23 350 Q 19.2 350.8 18 347.5 L 19.5 344 Z "></path><path d="M 83.5 344 L 88 345.5 L 86.5 348 L 83 345.5 L 83.5 344 Z "></path><path d="M 30.5 346 Q 35.1 344.8 33 350 L 30.5 351 L 29 347.5 L 30.5 346 Z "></path><path d="M 94 346 Q 98.1 344.7 97 348 Q 92.9 349.3 94 346 Z "></path><path d="M 63 348 Q 67.5 346.5 66 351 Q 61.5 352.5 63 348 Z "></path><path d="M 129 348 L 132 349.5 Q 132.8 351.8 130.5 351 L 129 348 Z "></path><path d="M 209.5 348 Q 212.5 349.5 209.5 351 Q 207.3 351.8 208 349.5 L 209.5 348 Z "></path><path d="M 13 349 L 17 350.5 L 14.5 352 L 13 349 Z "></path><path d="M 126.5 349 L 128 351.5 Q 126.5 354.5 125 351.5 L 126.5 349 Z "></path><path d="M 202.5 349 Q 205.1 348.3 204 351 L 201 350.5 L 202.5 349 Z "></path><path d="M 216.5 349 Q 219.1 348.2 218 351.5 Q 216.5 354.5 215 351.5 L 216.5 349 Z "></path><path d="M 21 351 L 25 352.5 L 21 354 L 21 351 Z "></path><path d="M 169.5 352 L 171 352.5 L 170 355 Q 167.3 356.1 168 353.5 L 169.5 352 Z "></path><path d="M 172 352 Q 174.7 350.9 174 353.5 L 172 354.5 L 172 352 Z "></path><path d="M 13.5 353 L 14 355 L 12 354.5 L 13.5 353 Z "></path><path d="M 180.5 353 Q 184.3 352.3 185 354.5 L 184.5 356 L 191 355 L 189 358.5 L 189 361.5 L 191.5 362 Q 196.8 360.3 195 365.5 L 192.5 369 L 184.5 370 L 182.5 369 Q 181 371.5 175.5 370 Q 171.5 369.5 172 364.5 L 173 362 L 181 358.5 L 177 357.5 L 178 354 L 180.5 353 Z M 188 356 L 186 358 L 188 358 L 188 356 Z M 178 362 L 176 365 Q 173 366 178 368 Q 184 369 187 367 L 185 366 L 184 367 L 181 364 L 178 362 Z M 191 363 L 188 367 L 191 367 L 192 368 Q 193 364 191 363 Z "></path><path d="M 211 353 Q 214.8 351.5 214 354.5 L 211 356 L 211 353 Z "></path><path d="M 37 354 L 40 355.5 L 41 358.5 L 38.5 359 Q 37 355.5 35.5 358 L 33 356.5 L 35.5 355 L 37 355.5 L 37 354 Z "></path><path d="M 41 354 L 45 355.5 L 43.5 359 Q 40.3 357.8 41 354 Z "></path><path d="M 51 354 L 55 354 L 55 355.5 L 51.5 358 Q 48.8 356.8 51 355.5 L 51 354 Z "></path><path d="M 195.5 355 L 196 358.5 Q 194.5 361.5 193 358.5 L 195.5 355 Z "></path><path d="M 199.5 355 L 201 355 L 201 359 L 198 357.5 L 199.5 355 Z "></path><path d="M 130 356 L 133 357.5 L 134 361 Q 130.2 362.5 131 359.5 L 130 356 Z "></path><path d="M 203 356 Q 206.3 354.9 205 359 Q 201.7 360.1 203 356 Z "></path><path d="M 18.5 357 L 21 361.5 Q 19.5 364.5 18 361.5 Q 18.7 358.9 16 360 L 16 358 L 18.5 357 Z "></path><path d="M 123.5 357 L 124 359.5 L 122 360.5 L 123.5 357 Z "></path><path d="M 21.5 358 L 24 359.5 Q 25 363.3 22 362 L 21.5 358 Z "></path><path d="M 125 358 Q 127.7 356.9 127 359.5 L 125 360.5 L 125 358 Z "></path><path d="M 216 358 Q 218.7 356.9 218 359.5 L 216 360.5 L 216 358 Z "></path><path d="M 117.5 359 L 119 363 L 116 361.5 L 117.5 359 Z "></path><path d="M 209.5 361 Q 211.8 360.3 211 362.5 L 213.5 361 L 215 361.5 L 211.5 366 L 209.5 365 L 206.5 366 L 205 365.5 L 203.5 368 Q 200.7 366.8 203 365.5 L 204 362 Q 207 360.8 206 364.5 L 208 363.5 L 209.5 361 Z "></path><path d="M 46.5 362 L 48.5 363 L 50.5 362 Q 53 363.2 52 367 Q 49.3 368.1 50 365.5 L 48 364.5 Q 48.8 366.8 46.5 366 L 45 363.5 L 46.5 362 Z "></path><path d="M 84.5 362 L 85 363.5 L 77 370.5 Q 78.5 378.1 75 377 L 74 369.5 Q 75.3 366.8 76.5 369 L 79.5 366 L 84.5 362 Z "></path><path d="M 114.5 363 L 116 367.5 L 113.5 370 Q 112 366.5 110.5 369 Q 107.9 369.8 109 366.5 Q 110.2 364 114 365 L 114.5 363 Z "></path><path d="M 132.5 364 L 135 365 L 133.5 369 Q 130.6 369.4 132.5 364 Z "></path><path d="M 33.5 365 Q 37.3 364.3 38 366.5 L 37 370.5 L 39.5 371 Q 43.5 370.5 44 373.5 L 41.5 377 L 38 376 Q 36.8 379 40.5 378 L 42 380.5 L 39 382.5 L 42.5 383 L 44.5 382 L 48 386.5 L 47 390 L 40.5 392 L 37.5 391 L 33.5 390 L 27.5 393 L 20 387.5 L 22.5 382 Q 24.5 379 30.5 380 L 33.5 382 L 34 380.5 L 33 378 L 30 376.5 L 32.5 373 L 34.5 374 L 34 372.5 Q 34.8 370.3 32.5 371 L 30 367 L 33.5 365 Z M 35 367 L 33 369 L 35 370 L 35 367 Z M 27 382 L 27 384 L 25 383 Q 22 384 23 388 L 28 391 L 31 391 L 33 387 Q 35 388 34 385 Q 32 381 27 382 Z M 44 384 L 43 389 L 40 390 L 44 390 L 44 384 Z M 40 386 L 41 388 Q 42 385 40 386 Z "></path><path d="M 124.5 365 Q 128.5 364.5 129 367.5 L 128 369.5 L 134 371 L 132.5 375 Q 129.5 374.2 131 378 Q 134.8 377 136 379.5 L 135 383 Q 138.8 384.5 138 381.5 L 141 380 Q 142 383.8 139.5 385 Q 138 382.5 136.5 386 L 134 384.5 L 134.5 383 L 130 382.5 L 134 380.5 L 129 380 Q 130.5 383.8 127.5 383 L 125.5 383 Q 119.8 383.8 119 379.5 L 117.5 376 L 115 377.5 L 116.5 381 L 119 382.5 L 116.5 383 L 113 382 L 112 377.5 L 118 374 Q 116.5 370.2 119.5 371 L 123 369.5 L 122 367.5 L 124.5 365 Z M 120 373 Q 119 376 122 375 Q 123 372 120 373 Z M 124 374 L 122 376 L 124 376 L 124 374 Z "></path><path d="M 20.5 366 L 22 369 L 19 367.5 L 20.5 366 Z "></path><path d="M 23.5 368 L 24 370.5 L 23 370.5 L 23.5 368 Z "></path><path d="M 13 370 L 16.5 371 L 19 370 L 19 374 L 17.5 374 L 15.5 374 Q 13.3 374.8 14 372.5 L 13 370 Z "></path><path d="M 90.5 370 L 94 372.5 L 95 375.5 L 92 377 Q 93.3 372.4 90.5 371 L 89 371.5 L 90.5 370 Z "></path><path d="M 195 371 L 201 372 Q 202 377.3 199 379.5 L 200.5 384 L 202.5 383 L 205 388.5 L 203 392 L 198 393 L 197.5 390 L 195.5 394 L 187.5 395 L 182 387.5 L 183 385 L 188.5 382 L 189 384 Q 191.7 385.1 191 382.5 L 192 379 L 196 379 L 196 377.5 L 192 374.5 Q 193.3 371.8 194.5 374 L 196 373.5 L 195 371 Z M 188 385 L 185 388 L 186 390 Q 187 394 194 393 L 196 388 L 191 386 Q 189 389 188 385 Z M 200 386 L 201 390 L 202 388 Q 203 385 200 386 Z "></path><path d="M 49.5 372 Q 52.5 371.2 51 375 L 48 373.5 L 49.5 372 Z "></path><path d="M 107 372 Q 110 371 109 374 Q 106 375 107 372 Z "></path><path d="M 206.5 372 Q 209.5 373.5 206.5 375 L 206.5 372 Z "></path><path d="M 210 372 L 213 372.5 L 210 374 L 210 372 Z "></path><path d="M 215 372 Q 218 371 217 374 Q 214 375 215 372 Z "></path><path d="M 176.5 373 L 177 377.5 L 173.5 379 L 171 377.5 L 171 376 L 174 376 Q 172.9 373.3 175.5 374 L 176.5 373 Z "></path><path d="M 295.5 374 Q 298.3 375.4 297 380 L 294 378.5 Q 293.3 374.8 295.5 374 Z "></path><path d="M 19.5 375 L 21 378 Q 17.2 379.5 18 376.5 L 19.5 375 Z "></path><path d="M 179.5 375 L 182 376.5 L 179.5 378 Q 176.5 376.5 179.5 375 Z "></path><path d="M 106 376 Q 109 374.8 108 378.5 L 109.5 378 Q 112.1 377.2 111 380.5 L 108.5 382 L 107 381.5 L 106.5 383 Q 104.3 382.3 105 378.5 L 106 376 Z "></path><path d="M 185 376 L 187 376.5 L 185 377.5 L 185 376 Z "></path><path d="M 310 376 Q 313 375 312 378 Q 309 379 310 376 Z "></path><path d="M 307 377 Q 310 376 309 379 Q 306 380 307 377 Z "></path><path d="M 203.5 378 Q 206.1 377.3 205 380 L 202 379.5 L 203.5 378 Z "></path><path d="M 93.5 379 L 94 384.5 L 93 384.5 L 93.5 379 Z "></path><path d="M 209.5 379 Q 211.8 378.3 211 380.5 L 212 382.5 Q 210 386 208 381.5 L 209.5 379 Z "></path><path d="M 182.5 381 Q 184.8 380.3 184 382.5 L 181 384 L 182.5 381 Z "></path><path d="M 213 381 L 216 381 Q 214.9 383.7 217.5 383 L 219 382.5 L 217.5 385 Q 215.3 385.8 216 383.5 L 213 382.5 L 213 381 Z "></path><path d="M 173.5 382 Q 177.3 381 176 384 L 173.5 382 Z "></path><path d="M 178.5 382 Q 180.8 381.3 180 383.5 L 179 386 Q 176 387.3 177 383.5 L 178.5 382 Z "></path><path d="M 295 383 L 297 383.5 L 297 398.5 L 298 399.5 L 298 413.5 L 299 414.5 L 299 432.5 Q 296.2 434.3 298 440.5 L 299 441.5 L 299 449.5 L 296.5 454 L 296 409.5 L 295 408.5 L 295 394.5 L 294 392.5 L 295 391.5 L 295 383 Z "></path><path d="M 110.5 384 Q 113.1 383.2 112 386.5 Q 110.5 389.5 109 386.5 L 110.5 384 Z "></path><path d="M 207.5 384 Q 210.1 383.3 209 386 L 206.5 387 L 206 385.5 L 207.5 384 Z "></path><path d="M 102 385 Q 106.5 383.5 105 388 L 102 386.5 L 102 385 Z "></path><path d="M 125 385 L 132 387 Q 133.4 391 126.5 389 L 125 385 Z "></path><path d="M 61.5 386 L 62.5 388 Q 59.7 388.7 61.5 386 Z "></path><path d="M 307.5 386 Q 310.3 385.4 309 391.5 L 307.5 394 Q 304.3 393.3 305 388.5 L 307.5 386 Z "></path><path d="M 54 387 Q 57.8 386 59 388.5 L 55.5 391 L 54 387 Z "></path><path d="M 50 388 Q 53 387 52 390 Q 49 391 50 388 Z "></path><path d="M 118.5 388 Q 121.5 387.2 120 391 Q 116.2 392.5 117 389.5 L 118.5 388 Z "></path><path d="M 328.5 388 L 329 391 L 327 390.5 L 328.5 388 Z "></path><path d="M 172 389 Q 174.7 387.9 174 390.5 L 172 394 Q 169 395 170 392 Q 173.3 393.1 172 389 Z "></path><path d="M 208.5 389 L 209 391 L 211.5 390 L 213 392.5 L 206.5 394 L 205 391.5 L 208.5 389 Z "></path><path d="M 311.5 389 Q 314.1 388.2 313 391.5 L 309 394.5 L 311.5 389 Z "></path><path d="M 217.5 390 L 218 392.5 L 215 394 Q 213.5 390.3 216.5 391 L 217.5 390 Z "></path><path d="M 18.5 391 L 21.5 395 L 24 394 L 22.5 397 L 17 393.5 L 18.5 391 Z "></path><path d="M 107.5 391 Q 110.1 390.3 109 393 L 106 392.5 L 107.5 391 Z "></path><path d="M 140 393 Q 143.7 391.5 143 394.5 L 140 396 L 140 393 Z "></path><path d="M 174.5 393 L 177.5 395 L 179 394.5 Q 180.1 398.7 176 397 L 175.5 395 L 173 396 L 174.5 393 Z "></path><path d="M 329.5 393 Q 332 394.2 331 398 L 328 396.5 L 329.5 393 Z "></path><path d="M 111 394 Q 114.7 392.5 114 395.5 L 111 397 L 111 394 Z "></path><path d="M 123.5 394 L 129 396.5 Q 129.8 398.8 127.5 398 Q 126 395.5 124.5 399 L 122.5 400 L 120 396.5 L 123.5 394 Z "></path><path d="M 44.5 395 L 47 395 L 47 400 L 44.5 399 L 42 400 L 41 396 L 44.5 395 Z "></path><path d="M 50.5 395 L 53 396.5 Q 54.2 401.1 49 399 L 50.5 395 Z "></path><path d="M 182 395 L 185 395.5 L 181.5 398 L 182 396.5 L 182 395 Z "></path><path d="M 196.5 395 Q 200.3 394 199 397 L 196.5 398 Q 193.5 396.5 196.5 395 Z "></path><path d="M 201.5 395 L 203 395.5 L 200.5 397 L 201.5 395 Z "></path><path d="M 65.5 396 L 66 400 Q 63 401.3 64 397.5 L 65.5 396 Z "></path><path d="M 210.5 396 Q 213.1 395.2 212 398.5 Q 210.5 401.5 209 398.5 L 210.5 396 Z "></path><path d="M 288.5 396 L 290 396.5 L 287.5 398 L 288.5 396 Z "></path><path d="M 68.5 397 Q 71.1 396.2 70 399.5 Q 68.5 402.5 67 399.5 L 68.5 397 Z "></path><path d="M 139.5 397 Q 142.1 396.3 141 399 L 138.5 400 L 138 398.5 L 139.5 397 Z "></path><path d="M 214 397 Q 217.7 395.5 217 398.5 L 214 400 L 214 397 Z "></path><path d="M 309 397 L 311 397 L 311 402 L 309 402 L 309 397 Z "></path><path d="M 314.5 397 L 315 399.5 L 312 401 L 314.5 397 Z "></path><path d="M 322 397 Q 325 395.8 324 399.5 L 322 398.5 L 322 397 Z "></path><path d="M 29 398 Q 33.1 396.7 32 400 L 29.5 401 L 29 398 Z "></path><path d="M 106.5 398 Q 109.1 397.2 108 400.5 Q 106.5 403.5 105 400.5 L 106.5 398 Z "></path><path d="M 319.5 398 L 321 401.5 L 319 400.5 L 319.5 398 Z "></path><path d="M 19 400 L 22 400.5 L 19 402 L 19 400 Z "></path><path d="M 305 400 Q 308 398.8 307 402.5 L 304 404 L 305 400 Z "></path><path d="M 280 401 Q 283 400 282 403 Q 279 404 280 401 Z "></path><path d="M 327 401 Q 330.3 399.7 329 404.5 L 327 403.5 L 327 401 Z "></path><path d="M 274.5 402 Q 277.5 401.2 276 405 Q 272.3 406.5 273 403.5 L 274.5 402 Z "></path><path d="M 331.5 402 Q 334.1 401.3 333 404 L 330 403.5 L 331.5 402 Z "></path><path d="M 319.5 403 L 321 407 L 318 405.5 L 319.5 403 Z "></path><path d="M 271.5 404 L 272 406.5 L 269 408.5 L 269 406 Q 271.8 407 271.5 404 Z "></path><path d="M 312 404 Q 316.1 402.7 315 406 Q 310.9 407.3 312 404 Z "></path><path d="M 266.5 405 L 268 407.5 L 265 409 L 264 411.5 L 265 414.5 Q 263.5 417.5 262 414.5 L 263 411.5 Q 260.5 410 264 408.5 L 266.5 405 Z "></path><path d="M 280.5 405 Q 285.3 404.3 286 407.5 Q 287 413 283.5 414 L 281.5 413 L 280.5 415 Q 283.8 413.9 283 416.5 L 284.5 419 Q 286.8 414.7 289 419.5 Q 290 425 286.5 426 Q 283.8 424.8 286 423.5 L 285.5 421 L 283.5 424 Q 281.3 424.8 282 422.5 L 281 422.5 L 280 424.5 Q 281.3 427.3 282.5 425 Q 285.1 424.2 284 427.5 L 285 431 Q 282.3 432.1 283 429.5 L 283.5 428 L 280.5 427 L 278.5 429 L 269.5 430 L 266 424.5 L 266.5 423 Q 261.9 421.8 264 427 L 261 427 L 260 423.5 L 262.5 423 L 265.5 421 L 269 419.5 L 268 417.5 L 269.5 418 L 274.5 416 L 278.5 419 L 278 417.5 L 276.5 415 L 274 413.5 L 277 409.5 L 276 407 L 280.5 405 Z M 272 418 L 269 424 L 270 426 Q 271 428 275 427 L 277 423 L 275 421 Q 272 420 274 419 L 272 418 Z "></path><path d="M 308.5 405 Q 311.1 404.3 310 407 L 307 406.5 L 308.5 405 Z "></path><path d="M 216 407 Q 219.3 405.9 218 410 Q 214.7 411.1 216 407 Z "></path><path d="M 212.5 408 L 213 411 L 210.5 412 L 210 409 L 212.5 408 Z "></path><path d="M 325 410 Q 328 409 327 412 Q 324 413 325 410 Z "></path><path d="M 269.5 411 Q 272.2 412.3 270 413.5 Q 270.8 415.8 268.5 415 L 267 415.5 L 268 413.5 L 267.5 412 L 269.5 411 Z "></path><path d="M 306 412 Q 311.2 409.9 310 414.5 L 311 417 Q 303.5 419.5 306 412 Z "></path><path d="M 316.5 412 Q 318.8 411.3 318 413.5 L 318 415.5 L 317.5 417 L 315 413.5 L 316.5 412 Z "></path><path d="M 321.5 413 Q 324.5 414.5 321.5 416 Q 319.3 416.8 320 414.5 L 321.5 413 Z "></path><path d="M 211.5 414 Q 214.1 413.2 213 416.5 L 210.5 418 L 208.5 418 L 206 416.5 Q 205.2 413.9 208.5 415 Q 210 417.5 211.5 414 Z "></path><path d="M 216.5 414 Q 219.1 413.3 218 416 L 215.5 417 L 215 415.5 L 216.5 414 Z "></path><path d="M 197.5 415 Q 200.1 414.3 199 417 L 196.5 418 L 196 416.5 L 197.5 415 Z "></path><path d="M 201.5 415 Q 204.5 414.2 203 418 L 200 416.5 L 201.5 415 Z "></path><path d="M 258.5 415 L 261 416.5 L 259.5 419 Q 257.3 419.8 258 417.5 Q 255.8 416.3 258.5 415 Z "></path><path d="M 332.5 416 L 333 419 Q 330.3 420.1 331 417.5 L 332.5 416 Z "></path><path d="M 252 417 L 254 417 L 254 422 L 251 420.5 L 252 417 Z "></path><path d="M 323.5 417 L 326 418 L 325.5 421 L 323.5 420 Q 322.3 422.3 321 419.5 L 323.5 417 Z "></path><path d="M 249.5 418 L 250 423 L 247 421.5 Q 245.9 418.2 248.5 419 L 249.5 418 Z "></path><path d="M 106.5 419 L 109.5 420 L 110.5 419 L 125 419 L 124.5 421 L 112.5 421 L 110.5 422 L 103 420.5 L 106.5 419 Z "></path><path d="M 127 419 L 135.5 420 L 137.5 419 L 139.5 419 L 149.5 419 L 150 421 L 137.5 421 L 136.5 422 L 134.5 422 L 127 421 L 127 419 Z "></path><path d="M 215.5 419 L 218 420.5 Q 219.3 424.3 215.5 423 L 214 420.5 L 215.5 419 Z "></path><path d="M 221.5 419 Q 224.1 418.2 223 421.5 L 220.5 423 L 219 420 L 221.5 419 Z "></path><path d="M 209.5 420 L 210 422 L 208 421.5 L 209.5 420 Z "></path><path d="M 228.5 420 L 229 423 Q 224.9 424.3 226 421 L 228.5 420 Z "></path><path d="M 80 421 L 84 421.5 L 80 423 L 80 421 Z "></path><path d="M 135.5 423 L 142.5 424 L 144 423.5 Q 144.8 425.8 142.5 425 L 140.5 426 Q 139 423.5 133.5 425 L 130.5 426 L 128.5 426 L 106 425.5 Q 106.8 423.3 110.5 424 L 112.5 424 L 134.5 424 L 135.5 423 Z "></path><path d="M 236.5 423 L 238 423.5 L 235.5 425 L 236.5 423 Z "></path><path d="M 309 424 L 311.5 425 L 313.5 424 L 315 428 L 309 425.5 L 309 424 Z "></path><path d="M 324 424 Q 327.3 422.9 326 427 Q 322.7 428.1 324 424 Z "></path><path d="M 80.5 425 L 83 425.5 L 80.5 426 L 80.5 425 Z "></path><path d="M 95.5 425 Q 98.5 424.1 97 428.5 L 98 429.5 L 99 443.5 L 98 444.5 Q 99.4 453.4 97 458.5 L 98 461.5 L 97 463.5 L 98 465.5 L 98 467.5 L 96.5 475 L 95 473.5 L 95 458.5 L 96 456.5 L 95 455.5 L 95 445.5 L 96 444.5 L 96 435.5 L 94 426.5 L 95.5 425 Z "></path><path d="M 256.5 425 Q 258.8 424.3 258 426.5 Q 260.3 427.8 257.5 429 L 255 427.5 L 256.5 425 Z "></path><path d="M 51.5 427 L 74.5 427 L 75 429 L 66.5 429 L 65.5 428 L 62.5 429 L 60.5 429 L 55.5 428 L 53.5 429 L 51.5 427 Z "></path><path d="M 329.5 427 L 330 430 Q 327.3 431.1 328 428.5 L 329.5 427 Z "></path><path d="M 224.5 428 Q 227.5 427.2 226 431 Q 222.3 432.5 223 429.5 L 224.5 428 Z "></path><path d="M 317 428 Q 320.3 426.9 319 431 Q 315.7 432.1 317 428 Z "></path><path d="M 241.5 429 Q 244.3 430.3 242 431.5 Q 242.7 434.1 240 433 L 241.5 429 Z "></path><path d="M 308 430 Q 311.3 428.7 310 433.5 L 308 432.5 L 308 430 Z "></path><path d="M 252.5 432 Q 254.8 431.3 254 433.5 L 253 436 L 250 434.5 L 252.5 432 Z "></path><path d="M 280.5 432 L 281 436 Q 277.3 437.5 278 434.5 L 280.5 432 Z "></path><path d="M 311 432 L 314 433.5 Q 314.8 435.8 312.5 435 L 311 432 Z "></path><path d="M 268.5 433 L 270 433 L 270 437 Q 265.9 438.7 267 434.5 L 268.5 433 Z "></path><path d="M 274.5 433 Q 278 435 273.5 437 L 273 434.5 L 274.5 433 Z "></path><path d="M 20.5 434 L 22.5 435 L 25.5 434 L 26.5 435 L 43 435 L 42.5 437 L 25.5 437 L 21.5 436 L 18 437 Q 16.9 434.3 19.5 435 L 20.5 434 Z "></path><path d="M 263.5 434 Q 266.1 433.2 265 436.5 L 263.5 439 L 262 435.5 L 263.5 434 Z "></path><path d="M 318 435 Q 321 433.8 320 437.5 L 318 436.5 L 318 435 Z "></path><path d="M 242.5 436 L 244 439.5 Q 242.5 442.5 241 439.5 L 242.5 436 Z "></path><path d="M 322.5 436 L 325 439.5 L 322.5 441 L 321 437.5 L 322.5 436 Z "></path><path d="M 236.5 437 Q 238.8 436.3 238 438.5 L 239 442 Q 235.2 443.5 236 440.5 L 235 438.5 L 236.5 437 Z "></path><path d="M 252.5 438 L 254.5 438 L 259 442.5 L 257.5 445 Q 254.2 443.9 255 446.5 L 256.5 451 L 257 449 L 261 450.5 L 262.5 453 L 264 453.5 L 262 458 Q 258.2 459.5 259 456.5 L 260 454.5 L 257 453 Q 255.8 457.6 258.5 459 Q 264.4 457.3 263 461 L 260.5 462 L 255.5 461 L 253.5 462 L 251 460.5 Q 252.1 464.7 248 463 L 246.5 460 L 244.5 461 Q 241.3 460.3 242 455.5 L 245 449 L 250.5 448 L 253.5 452 L 254 450.5 L 253 446.5 L 253.5 445 Q 249.5 445.5 249 442.5 L 252.5 438 Z M 252 440 Q 251 443 254 442 Q 255 439 252 440 Z M 247 450 L 245 455 L 246 457 L 249 458 L 252 457 L 249 452 Q 250 449 247 450 Z "></path><path d="M 288.5 438 Q 290.8 437.3 290 439.5 L 287 441.5 L 288.5 438 Z "></path><path d="M 281.5 440 L 283 441.5 L 282.5 444 L 280.5 445 L 279 441 L 281.5 440 Z "></path><path d="M 317 440 Q 320 438.8 319 442.5 L 317 443.5 L 317 440 Z "></path><path d="M 170 441 L 181.5 443 L 183 444.5 L 180.5 446 L 177.5 444 L 170 443 L 170 441 Z "></path><path d="M 269 441 L 272 441.5 L 271 444 Q 267.7 445.1 269 441 Z "></path><path d="M 276.5 441 Q 278.8 440.3 278 442.5 L 275 444 L 276.5 441 Z "></path><path d="M 147 442 L 159.5 444 L 169.5 448 L 173.5 448 L 186 456 L 189.5 462 L 196 465 L 199 469.5 L 200 486 L 197 485.5 L 197 474.5 Q 196.1 467.9 191.5 465 L 184 459.5 L 181.5 456 L 174.5 451 L 154.5 445 L 148.5 445 L 147 443.5 L 147 442 Z "></path><path d="M 309.5 443 Q 312.5 442.2 311 446 Q 307.2 447.5 308 444.5 L 309.5 443 Z "></path><path d="M 323 443 Q 326.3 441.7 325 446.5 L 324 450 L 321 448.5 L 323 443 Z "></path><path d="M 327 443 Q 331.5 441.5 330 446 Q 325.5 447.5 327 443 Z "></path><path d="M 128.5 445 L 144.5 450 L 161.5 453 L 166 457.5 Q 165.2 460.1 168.5 459 Q 177.1 464.4 181 474.5 L 182 490.5 L 179.5 494 L 178 491.5 L 179 490.5 L 179 479.5 L 175 469.5 L 162.5 457 L 157.5 454 L 138.5 451 L 132.5 448 L 127 448 L 128.5 445 Z "></path><path d="M 238.5 445 L 240 447.5 L 237.5 449 Q 234 447 238.5 445 Z "></path><path d="M 242 445 Q 245.8 443.5 245 446.5 Q 243.5 449.5 242 446.5 L 242 445 Z "></path><path d="M 318 445 L 320 445.5 L 318 446.5 L 318 445 Z "></path><path d="M 65.5 446 L 73.5 446 L 74 448 L 51 450 Q 49.7 446.7 54.5 448 L 65.5 446 Z "></path><path d="M 262.5 446 Q 266.3 444.8 265 448.5 Q 263 452 261 447.5 L 262.5 446 Z "></path><path d="M 288 446 Q 291.7 444.8 290 450 Q 286.3 451.2 288 446 Z "></path><path d="M 314 446 Q 317 445 316 448 Q 313 449 314 446 Z "></path><path d="M 267 447 L 271 447.5 L 270.5 449 Q 273.9 448.1 272 453.5 L 270 452.5 L 270 449 Q 265.9 450.3 267 447 Z "></path><path d="M 310 447 Q 312.7 445.9 312 448.5 L 310 449.5 L 310 447 Z "></path><path d="M 281 448 Q 283.7 446.9 283 449.5 Q 285.3 450.8 282.5 452 L 281 448 Z "></path><path d="M 108 449 L 113 450 Q 114.3 453 110.5 452 L 108 451 L 108 449 Z "></path><path d="M 115.5 449 L 123.5 451 L 125 450.5 Q 126.1 453.8 123.5 453 L 116.5 451 Q 115.3 453.3 114 450.5 L 115.5 449 Z "></path><path d="M 273.5 449 L 275 451.5 L 273 452.5 L 273.5 449 Z "></path><path d="M 285.5 449 Q 288.5 450.5 285.5 452 L 285.5 449 Z "></path><path d="M 72.5 450 L 74 453 L 64.5 453 L 57.5 456 L 53.5 456 L 54.5 454 L 59.5 452 L 71.5 451 L 72.5 450 Z "></path><path d="M 276 450 Q 279.7 448.8 278 454 Q 274.3 455.2 276 450 Z "></path><path d="M 41.5 451 Q 47.4 449.3 46 453 L 42.5 454 L 40.5 453 L 27 460 L 18 475.5 L 17 480.5 L 18 482.5 L 17 483.5 L 17 499 L 14 497.5 L 13 490.5 L 15 482.5 L 15 480.5 L 14 476.5 Q 17.6 466.1 24.5 459 L 32.5 454 L 41.5 451 Z "></path><path d="M 128 452 Q 137.5 452.8 143 458.5 Q 144.1 461.8 141.5 461 Q 136.9 454.8 128 454 L 128 452 Z "></path><path d="M 313.5 452 L 314 454.5 Q 312.5 457.5 311 454.5 Q 310.3 452.3 312.5 453 L 313.5 452 Z "></path><path d="M 309.5 454 L 310 457 Q 307.3 458.1 308 455.5 L 309.5 454 Z "></path><path d="M 296 455 L 298 455.5 L 298 471.5 L 299 477 Q 296 478.3 297 474.5 L 296 473.5 L 296 455 Z "></path><path d="M 75.5 456 Q 82.4 454 81 458 Q 75.3 459.3 75.5 456 Z "></path><path d="M 68.5 457 Q 72.3 456.3 73 458.5 Q 73.8 461.1 70.5 460 L 69.5 459 L 64 464.5 L 64 467 Q 61 465.8 62 469.5 L 64.5 473 L 69.5 477 L 82.5 482 L 101.5 483 L 120.5 479 L 126 473.5 L 127 466.5 L 122.5 461 L 117 458.5 Q 118.3 455.8 119.5 458 Q 126.1 458.4 129 462.5 L 131 469.5 L 130 473.5 L 126.5 478 L 117.5 483 L 111.5 483 L 105.5 485 L 103.5 484 L 96.5 486 L 93.5 484 L 89.5 485 L 85.5 484 L 83.5 484 L 75.5 483 L 61 474.5 Q 58 472.5 59 466.5 L 65.5 458 L 68.5 457 Z "></path><path d="M 234.5 459 L 237 460 Q 238.1 463.3 234 462 L 234.5 459 Z "></path><path d="M 269.5 459 Q 272.5 460.5 269.5 462 L 267 460.5 L 269.5 459 Z "></path><path d="M 278.5 459 L 279 461 Q 281.7 462.1 281 459.5 L 282 459.5 L 283 462.5 L 282 463.5 L 283.5 466 Q 281.3 466.8 282 464.5 L 279 462.5 Q 279.7 465.1 277 464 Q 276 460.2 278.5 459 Z "></path><path d="M 274.5 460 L 275 463 Q 272.3 464.1 273 461.5 L 274.5 460 Z "></path><path d="M 285 460 Q 288 459 287 462 Q 284 463 285 460 Z "></path><path d="M 44.5 461 Q 49.3 459.7 48 463 L 44 464.5 Q 38 468.5 40 480.5 L 48.5 494 L 53 495 Q 51.8 498 55.5 497 L 63.5 503 L 65.5 503 L 72.5 506 L 74.5 506 L 76 506.5 L 72.5 508 Q 60.8 505.4 53 500 Q 54.1 497.3 51.5 498 L 44 493.5 L 41.5 488 Q 39.3 488.8 40 486.5 Q 35.2 481.3 37 469.5 L 40 464 L 44.5 461 Z "></path><path d="M 242 462 Q 245.8 460.5 245 463.5 L 242 465 L 242 462 Z "></path><path d="M 147 463 L 154 466.5 L 156 474.5 L 156 482.5 L 146.5 494 L 144.5 494 Q 138.1 500.6 128.5 504 L 112.5 505 L 109.5 504 L 98.5 507 L 96.5 506 L 86.5 509 L 79.5 509 L 78 506 L 87.5 506 L 89.5 505 L 91.5 505 L 105.5 504 Q 107.5 501 113.5 502 L 117.5 503 L 122.5 502 L 124.5 502 L 129.5 500 L 131 500.5 L 132.5 498 L 148 488.5 L 150 485.5 Q 154.1 482.6 153 474.5 L 152 469.5 L 147 463 Z "></path><path d="M 232.5 463 L 234 463 L 234 467 Q 229.9 468.7 231 464.5 L 232.5 463 Z "></path><path d="M 236.5 463 Q 239.8 461.9 239 464.5 L 236.5 466 Q 233.5 464.5 236.5 463 Z "></path><path d="M 257.5 465 L 259.5 468 L 260 466 L 262 466 L 262 468 Q 264.7 466.9 264 469.5 L 261.5 471 Q 260 467.5 258.5 470 Q 255.6 470.4 257.5 465 Z "></path><path d="M 266.5 466 Q 269.3 467.2 267 468.5 L 266.5 470 L 265 467.5 L 266.5 466 Z "></path><path d="M 249 469 Q 252.7 467.5 252 470.5 Q 250.5 473.5 249 470.5 L 249 469 Z "></path><path d="M 275 469 L 278 470.5 L 276.5 473 L 275 473 L 275 469 Z "></path><path d="M 282.5 469 L 286 475.5 L 284 474.5 Q 285.1 471.2 282.5 472 Q 279.5 470.5 282.5 469 Z "></path><path d="M 243.5 470 L 247 471 L 245.5 474 L 242 471.5 L 243.5 470 Z "></path><path d="M 234.5 471 Q 237 472.2 236 476 L 232.5 475 L 230 476 Q 228.3 471.9 232.5 473 L 234 473.5 L 234.5 471 Z "></path><path d="M 249 473 Q 253.5 471.5 252 476 L 249 474.5 L 249 473 Z "></path><path d="M 264.5 473 Q 267 474.2 266 478 L 263 476.5 L 264.5 473 Z "></path><path d="M 267 473 Q 269.7 471.9 269 474.5 L 270 477 L 267 475.5 L 267 473 Z "></path><path d="M 238 476 Q 241 475 240 478 Q 237 479 238 476 Z "></path><path d="M 257 477 Q 260.3 475.9 259 480 Q 255.7 481.1 257 477 Z "></path><path d="M 230 478 Q 233 477 232 480 Q 229 481 230 478 Z "></path><path d="M 246.5 478 Q 249.5 477.2 248 481 L 245 479.5 L 246.5 478 Z "></path><path d="M 250 478 Q 253.7 476.5 253 479.5 Q 251.5 482.5 250 479.5 L 250 478 Z "></path><path d="M 267.5 478 L 268.5 480 Q 269.8 477.8 271 480.5 Q 271.8 482.8 269.5 482 L 268 482.5 L 267.5 480 L 265 481 Q 263.9 478.3 266.5 479 L 267.5 478 Z "></path><path d="M 272 478 Q 276.1 476.7 275 480 Q 270.9 481.3 272 478 Z "></path><path d="M 323 479 L 328 479 L 328 481 L 323 481 L 323 479 Z "></path><path d="M 239.5 482 L 240 484.5 L 240.5 487 L 241 485 Q 243.7 483.9 243 486.5 L 242 489 Q 239.3 490.1 240 487.5 L 238.5 488 Q 235.5 488.9 237 484.5 L 239.5 482 Z "></path><path d="M 258 482 Q 262.5 480.5 261 485 Q 256.5 486.5 258 482 Z "></path><path d="M 248.5 483 L 250 485.5 L 247 487 L 248.5 483 Z "></path><path d="M 220.5 484 L 223.5 486 Q 224.8 483.8 226 486.5 L 223.5 488 L 221.5 487 Q 220.3 489.2 219 486.5 L 220.5 484 Z "></path><path d="M 214.5 486 L 217 487.5 L 213 490 L 214.5 486 Z "></path><path d="M 234.5 486 L 236 490 Q 231.9 491.7 233 487.5 L 234.5 486 Z "></path><path d="M 223.5 491 Q 226.5 490.2 225 494 L 222 492.5 L 223.5 491 Z "></path><path d="M 212.5 494 L 215 495.5 L 213.5 499 L 211 497.5 L 212.5 494 Z "></path><path d="M 207 495 Q 210.8 493.5 210 496.5 L 205.5 501 L 203 498.5 L 204.5 496 L 206.5 497 L 207 495 Z "></path><path d="M 245.5 495 L 247.5 496 L 253 495 L 251.5 498 L 243.5 498 L 239.5 500 L 231 501 Q 229.8 498 233.5 499 L 236.5 498 L 245.5 495 Z "></path><path d="M 260.5 497 L 261 499 L 259 498.5 L 260.5 497 Z "></path><path d="M 284 497 Q 288.1 495.3 287 499.5 L 284 501 L 282.5 504 Q 279.5 504.7 281 501 Q 285.9 502.6 284 497 Z "></path><path d="M 253 498 Q 256 497 255 500 Q 252 501 253 498 Z "></path><path d="M 222.5 501 L 228.5 502 L 230 501.5 L 228.5 505 L 223.5 504 L 220 506 L 222.5 501 Z "></path><path d="M 237 501 Q 241.1 499.3 240 503.5 L 241 503.5 Q 240.2 500.5 244 502 L 242.5 507 L 237 502.5 L 237 501 Z "></path><path d="M 287.5 502 L 291 503.5 L 288 505 L 287.5 502 Z "></path><path d="M 17 503 Q 20.7 501.5 20 504.5 L 26 510.5 L 26 512.5 L 24.5 512 L 17 505.5 L 17 503 Z "></path><path d="M 212.5 505 Q 220.1 503.5 219 507 Q 212.2 506.1 209 509 Q 207.3 504.9 211.5 506 L 212.5 505 Z "></path><path d="M 269.5 507 L 272 508.5 L 269.5 512 L 268 508.5 L 269.5 507 Z "></path><path d="M 190 508 L 193 509.5 Q 193.7 512.5 190 511 L 190 508 Z "></path><path d="M 229.5 508 Q 233.7 506.7 232 511.5 L 230 512.5 L 229.5 511 L 227 512.5 Q 225.5 508.1 228.5 509 L 229.5 508 Z "></path><path d="M 273 508 Q 277.1 506.7 276 510 L 273.5 511 L 273 508 Z "></path><path d="M 234.5 509 Q 236.8 508.3 236 510.5 L 233 512 L 234.5 509 Z "></path><path d="M 194 511 Q 198.1 509.3 197 513.5 Q 195.5 516.5 194 513.5 L 194 511 Z "></path><path d="M 200 511 Q 204.1 509.7 203 513 Q 198.9 514.3 200 511 Z "></path><path d="M 211.5 511 Q 213.8 510.3 213 512.5 L 213 514.5 L 212 520.5 L 214.5 519 L 216.5 518 L 221 521.5 Q 222.3 528.8 217.5 530 L 213.5 531 L 211.5 531 L 206.5 532 L 203.5 531 L 201.5 531 L 197 530 L 196 524.5 Q 199.6 520.6 206.5 520 L 208.5 523 L 209 518 L 205 515.5 L 206 513 L 211.5 511 Z M 211 514 L 209 516 L 211 516 L 211 514 Z M 215 521 L 213 525 L 214 527 Q 213 529 217 528 L 218 526 L 217 523 Q 218 520 215 521 Z M 203 523 L 200 524 Q 199 528 202 529 L 204 528 Q 208 529 206 524 L 203 523 Z M 210 526 L 209 529 L 210 529 L 210 526 Z "></path><path d="M 306.5 511 L 308 515 L 305 513.5 L 306.5 511 Z "></path><path d="M 190.5 512 L 193 513.5 Q 193.8 516.1 190.5 515 Q 187.5 513.5 190.5 512 Z "></path><path d="M 221.5 512 L 222 513.5 L 218.5 515 L 219.5 513 L 221.5 512 Z "></path><path d="M 280.5 514 L 280 515.5 L 278.5 518 L 277 515 L 280.5 514 Z "></path><path d="M 35.5 516 L 39.5 517 L 45.5 522 L 49.5 522 L 65.5 527 L 81.5 530 L 98 530 Q 99.4 534 92.5 532 L 90.5 533 L 89.5 532 L 75.5 532 L 63.5 528 L 46.5 525 L 34 517.5 L 35.5 516 Z "></path><path d="M 226 516 L 229 516.5 L 226 518 L 226 516 Z "></path><path d="M 272.5 516 Q 278.2 514.4 276 520 L 273 518.5 L 272.5 516 Z "></path><path d="M 247 519 Q 250 518 249 521 Q 246 522 247 519 Z "></path><path d="M 324.5 519 Q 330.8 517.1 329 522 L 324 523 L 323 520.5 L 324.5 519 Z "></path><path d="M 155.5 520 L 157 524.5 L 155.5 527 L 163 526 L 162 529.5 L 166 531.5 L 162.5 537 L 154.5 539 L 152.5 541 L 148.5 541 L 145.5 538 L 139 535.5 Q 139.8 533.3 137.5 534 L 138 532.5 L 139.5 530 L 145.5 527 Q 147.4 530.7 152.5 531 L 152 529.5 L 150.5 526 Q 148.3 526.8 149 524.5 L 150 522 L 155.5 520 Z M 159 528 L 158 530 L 160 529 L 159 528 Z M 145 530 L 143 531 L 141 534 L 146 536 L 151 534 L 145 530 Z M 156 532 L 156 534 L 154 535 L 159 536 L 160 537 L 163 534 Q 161 531 156 532 Z M 152 537 L 151 539 L 154 538 L 152 537 Z "></path><path d="M 165.5 521 Q 167.8 520.3 167 522.5 L 164 524 L 165.5 521 Z "></path><path d="M 173.5 522 L 175.5 523 Q 176.8 520.8 178 523.5 L 176.5 526 Q 174.3 526.8 175 524.5 L 174 524.5 Q 174.7 527.1 172 526 L 173.5 522 Z "></path><path d="M 181.5 522 L 183 524.5 L 179 527 L 181.5 522 Z "></path><path d="M 278.5 523 L 279 525.5 L 277.5 528 L 276 524 L 278.5 523 Z "></path><path d="M 281.5 524 L 282 527 Q 279.3 528.1 280 525.5 L 281.5 524 Z "></path><path d="M 19.5 525 L 23.5 529 L 41 537.5 L 37.5 539 L 17 527.5 Q 16.3 525.3 18.5 526 L 19.5 525 Z "></path><path d="M 139.5 525 Q 141.8 524.3 141 526.5 L 135 529.5 L 136.5 526 Q 138 528.5 139.5 525 Z "></path><path d="M 238.5 525 Q 240.8 524.3 240 526.5 L 237.5 528 L 236.5 526 L 238.5 525 Z "></path><path d="M 285.5 525 Q 288.5 526.5 285.5 528 Q 283.3 528.8 284 526.5 L 285.5 525 Z "></path><path d="M 292.5 528 Q 295.1 527.2 294 530.5 L 292.5 533 L 291 529.5 L 292.5 528 Z "></path><path d="M 297.5 528 L 300 529.5 L 299 532 Q 294.9 533.7 296 529.5 L 297.5 528 Z "></path><path d="M 233 529 L 236 529 L 236 531 Q 238.7 529.9 238 532.5 L 235 534.5 L 233 529 Z "></path><path d="M 301.5 530 Q 305.3 529 304 532 L 301.5 533 Q 298.5 531.5 301.5 530 Z "></path><path d="M 306.5 530 L 309 531.5 L 306 533 L 306.5 530 Z "></path><path d="M 180.5 531 L 182 534.5 L 180 535.5 L 179.5 534 L 176 536 Q 174.3 530.8 178 532 L 178.5 534 L 180.5 531 Z "></path><path d="M 185.5 531 L 186 535 Q 183.3 536.1 184 533.5 L 183.5 532 L 185.5 531 Z "></path><path d="M 192.5 531 Q 196 533 191.5 535 Q 188 533 192.5 531 Z "></path><path d="M 231.5 532 L 234 536 L 240.5 537 L 242.5 536 L 248 541.5 L 248 544 L 245.5 544 L 240.5 539 L 238.5 539 L 236.5 539 L 231 538 L 230 533.5 L 231.5 532 Z "></path><path d="M 280.5 532 Q 283.1 531.3 282 534 L 285 534 L 285 536 Q 280.4 537.3 279 534.5 L 280.5 532 Z "></path><path d="M 311.5 534 Q 313.8 534.8 313 538.5 L 310 540 L 309 535 L 311.5 534 Z "></path><path d="M 306.5 535 L 308 539 L 305 537.5 L 306.5 535 Z "></path><path d="M 292 536 L 295 537.5 L 292.5 541 L 292 536 Z "></path><path d="M 197 537 Q 199.7 535.9 199 538.5 L 197.5 541 L 197 537 Z "></path><path d="M 297 537 Q 301.5 535.3 300 540.5 Q 298.5 543.5 297 540.5 L 297 537 Z "></path><path d="M 193 538 Q 196.8 536.5 196 539.5 Q 194.5 542.5 193 539.5 L 193 538 Z "></path><path d="M 256.5 538 Q 259.5 537.1 258 541.5 L 257 544 Q 253.3 545.4 255 539.5 L 256.5 538 Z "></path><path d="M 273.5 538 L 276 539 Q 277.1 542.3 273 541 L 273.5 538 Z "></path><path d="M 251.5 539 Q 256.1 537.8 254 543 Q 248.8 545.1 250 540.5 L 251.5 539 Z "></path><path d="M 280 540 L 283 540.5 L 280 542 L 280 540 Z "></path><path d="M 287.5 540 Q 290.8 538.9 290 541.5 L 287.5 543 Q 284.5 541.5 287.5 540 Z "></path><path d="M 261.5 541 Q 263.8 540.3 263 542.5 L 260 544 L 261.5 541 Z "></path><path d="M 125 542 Q 129.1 540.3 128 544.5 L 125 546 L 125 542 Z "></path><path d="M 132 542 Q 135.7 540.5 135 543.5 L 132 545 L 132 542 Z "></path><path d="M 121 543 Q 124.7 541.5 124 544.5 L 121 546 L 121 543 Z "></path><path d="M 146 543 Q 150.5 541.5 149 546 Q 144.5 547.5 146 543 Z "></path><path d="M 151 543 Q 155.1 541.7 154 545 Q 149.9 546.3 151 543 Z "></path><path d="M 187.5 543 Q 189.8 542.3 189 544.5 L 186 546 L 187.5 543 Z "></path><path d="M 244.5 554 L 260.5 554 L 264 557.5 Q 265.3 562.8 262.5 564 L 259 565 L 260 569.5 L 265 577 L 269 579.5 Q 269.8 581.8 267.5 581 L 259 574.5 L 253.5 566 L 250.5 567 Q 249.2 564.8 248 567.5 L 249 579 L 251 579.5 Q 249.8 582.3 248.5 580 L 242 581 Q 241.3 577.9 244 578.5 L 244 566.5 L 245 564.5 L 244 563.5 L 244 557 Q 241 558 242 555 L 244.5 554 Z M 249 557 L 248 562 L 249 565 Q 254 566 257 563 Q 260 564 258 559 L 257 557 L 249 557 Z "></path><path d="M 207.5 555 Q 209.8 554.3 209 556.5 L 210 558.5 L 207.5 560 Q 206.1 556.8 201 558 L 201 564.5 L 200 565.5 L 201 566.5 L 201 579 Q 204 578 203 581 L 194.5 582 L 192 580.5 L 194 578.5 L 194 559.5 L 190.5 558 Q 189.4 560.8 186 560 L 187.5 556 L 206.5 556 L 207.5 555 Z "></path><path d="M 217 555 L 230 555 L 230 560.5 L 235 578 Q 238 577 237 580 L 234.5 581 L 229 580 Q 230.1 572.2 226.5 568 L 219 569 L 216 579 Q 219 578 218 581 L 209 580.5 L 212 578.5 L 219 558 Q 215.7 559.1 217 555 Z M 223 557 L 221 567 L 225 566 L 227 567 L 225 561 Q 226 556 223 557 Z "></path><path d="M 121.5 557 Q 129.8 554.5 127 562 Q 123.2 563.5 124 560.5 Q 122.8 557.8 121.5 560 Q 117 559 116 561.5 L 117 569 Q 120 570 119 567 L 122 567 L 123 572.5 L 120.5 574 Q 119.4 571.3 116 572 Q 117.6 574.1 117 579.5 L 118.5 581 L 126 580 Q 124.9 577.3 127.5 578 L 129.5 577 L 126 581.5 L 125.5 583 L 114.5 583 L 112.5 583 Q 108.1 584.5 109 581.5 L 111 575.5 L 110 571.5 L 110 569.5 L 111 562.5 L 108 558.5 L 120.5 558 L 121.5 557 Z "></path><path d="M 167.5 557 Q 174.2 556.3 177.5 559 L 179 558.5 Q 180.7 563.3 176.5 562 L 174.5 560 L 167 560 L 167 566 L 175.5 566 L 181 569 L 182 577.5 Q 178.3 583.8 166.5 582 L 161.5 581 L 159.5 581 L 157 580.5 L 162.5 573 Q 165.1 572.2 164 575.5 L 165 578 L 170.5 579 L 176 577 L 177 572.5 L 174.5 569 Q 167 570 164 568 L 161 561.5 L 167.5 557 Z "></path><path d="M 52.5 558 L 76.5 558 L 77 563 Q 73.3 564.5 74 561.5 Q 72.4 558.5 67 560 L 67 573.5 L 66 575.5 L 67 578.5 L 66 580.5 L 70 582 L 69.5 584 L 62.5 584 L 57 585 Q 55.9 582.3 58.5 583 L 61 580.5 L 61 562.5 L 60 560 L 55 560 L 55 561.5 L 52 563 L 51 559.5 L 52.5 558 Z "></path><path d="M 79.5 558 Q 86.5 556.5 86 559.5 L 86 561.5 L 86 570 L 91.5 570 L 93.5 570 L 97.5 571 Q 100.3 569.8 98 568.5 L 99 566.5 L 97 558 L 103.5 558 L 104 558.5 L 104 581.5 L 105 584 L 98.5 584 L 98 582.5 L 99 580.5 L 98 579.5 L 98 573 L 87.5 573 L 86.5 572 L 86 580.5 L 87 584 L 79.5 584 L 79 582.5 L 81 579.5 L 80 576.5 L 81 575.5 L 81 561.5 L 79.5 558 Z "></path><path d="M 283 575 L 289 575 L 289 578.5 L 285.5 580 L 283 579 L 283 575 Z "></path><path d="M 344.5 588 L 345 590.5 L 344 590.5 L 344.5 588 Z "></path></svg>