<svg width="350" height="600" version="1.1" xmlns="http://www.w3.org/2000/svg" desc="Created with imagetracer.js version 1.2.5"><path d="M 24.5 5 L 26.5 6 Q 28 3.5 33.5 5 L 35.5 5 L 39.5 6 L 42.5 5 L 43.5 6 L 101.5 6 L 103.5 6 L 144.5 6 L 147.5 7 L 148.5 6 L 161.5 6 L 162.5 7 L 175.5 7 Q 176.8 4.7 181.5 6 L 183.5 7 L 184.5 6 L 192.5 6 L 194.5 6 L 198.5 7 Q 200 4.5 205.5 6 L 206.5 7 L 220.5 7 L 224.5 6 L 226.5 7 L 230.5 6 L 232.5 7 L 234.5 6 L 237.5 7 L 239.5 7 L 276.5 7 L 280.5 6 L 282.5 6 L 294.5 6 L 295 8 L 273.5 9 L 271.5 9 L 263.5 9 L 258.5 13 L 256 13 Q 257.8 17.9 251.5 16 Q 250 13.5 244.5 15 L 237 18 L 232 25.5 L 231 33.5 L 232 35.5 L 230 39 L 223.5 39 L 222 40.5 L 220 47.5 L 222.5 52 L 229.5 57 L 240.5 59 L 238 55.5 L 237 47.5 L 242.5 41 L 256 32.5 Q 253.8 21.3 259.5 18 L 266.5 14 L 281.5 11 L 286.5 12 L 288.5 12 L 304.5 13 Q 306.2 10.2 312.5 12 L 317 13 L 315 18 L 311 17.5 L 313.5 14 L 307.5 13 Q 305.8 16.8 298.5 15 L 297.5 14 L 273.5 14 L 260 19 Q 257.3 23.5 258 31 L 265.5 28 L 269.5 28 L 271 30.5 L 270 35 L 265.5 32 L 265 33.5 L 267.5 38 L 269 38.5 L 268.5 41 L 265 40 Q 266 43 263 42 L 264 39.5 L 260 38 Q 258.5 34.2 261.5 35 L 264 36 Q 265.7 30.8 262 32 Q 263.3 35.3 258.5 34 L 254 36 L 253.5 39 L 251.5 38 L 242 44.5 Q 239.4 45.9 240 50.5 L 241 52.5 L 240 54.5 L 241 57 L 246.5 60 L 248.5 59 Q 251.5 60.5 248.5 62 L 244.5 61 L 247.5 65 L 252 68.5 L 254.5 74 Q 265.4 75.1 270 82.5 L 271 88.5 L 281 100.5 L 281 105.5 L 289 116.5 L 289 119.5 L 295 131.5 L 295 138.5 Q 298.8 141.8 299.5 148 L 301.5 147 L 311.5 159 Q 314.5 162 321.5 161 L 327 156.5 Q 328.3 151.3 325.5 150 L 322 151 L 322 157 L 320 157 L 319 153.5 L 321 149 L 326.5 149 L 330 151 Q 331.5 159.2 326.5 162 L 322.5 164 L 315.5 164 L 307 159 L 307 157 Q 304.3 158.1 305 155.5 L 300.5 148 L 300 153.5 L 303 159.5 L 303 167.5 L 306 172.5 L 308 185.5 L 312 195.5 L 313 215.5 L 316 227.5 L 316 238.5 L 319 252.5 L 315 262.5 L 318 272.5 L 317 273.5 L 317 283.5 L 315 288.5 L 315 295.5 L 317 299.5 L 317 312.5 L 314 319.5 L 314 323.5 L 315 324.5 L 315 332.5 L 313 338.5 Q 315.2 339.7 314 344.5 L 312 347.5 Q 316 349.5 314 357.5 L 312 360.5 L 313.5 361 Q 315 357.5 316.5 360 L 318 359.5 L 318 347.5 L 323.5 338 L 334 334 L 334 312.5 L 335 311.5 L 335 248.5 L 336 247.5 L 334 238.5 L 335 237.5 L 335 227.5 L 334 226.5 L 334 217.5 L 334 213.5 Q 332.3 207.3 335 205.5 L 335 175.5 L 334 173.5 L 334 171.5 L 335 165.5 L 334 163.5 L 335 162.5 L 335 150.5 L 334 150.5 L 332.5 156 L 331 151.5 L 335 146.5 L 335 123.5 Q 332.7 119.7 330.5 125 L 329 124.5 L 335 119.5 Q 337.2 113.2 331.5 115 L 326.5 117 L 328.5 114 L 331.5 113 L 333.5 114 Q 336.3 112.8 335 107.5 L 335 105.5 Q 334.3 102.9 337 104 L 337 165.5 Q 334.5 167 336 172.5 L 337 173.5 L 337 241.5 L 338 245.5 L 337 248.5 L 338 255.5 L 337 258.5 L 338 259.5 L 338 273.5 L 337 274.5 L 337 315.5 L 336 317.5 L 336 319.5 L 337 322.5 L 337 343.5 L 337 345.5 L 337 364.5 Q 334.2 363.9 335 367 Q 337.7 365.9 337 368.5 L 337 370.5 L 336 373.5 L 337 375.5 L 337 377.5 L 337 482.5 L 336 483.5 L 337 484.5 L 337 501.5 L 337 503.5 L 336 509.5 L 337 513.5 L 336 516.5 L 337 517.5 L 337 526.5 L 336 527.5 L 336 576.5 L 336 578.5 L 337 585.5 L 335 589.5 Q 338.5 591 336 592.5 L 335.5 594 L 323.5 594 L 321.5 594 L 316.5 593 L 188.5 593 L 186.5 594 L 183.5 593 L 178.5 594 L 176.5 594 Q 171 595.5 169.5 593 L 168.5 594 L 69.5 594 L 66.5 593 L 64.5 594 L 62.5 594 L 54.5 594 L 54 592 L 62.5 591 L 64.5 591 L 68.5 592 L 70.5 591 L 72.5 591 L 76.5 592 L 80.5 591 L 85.5 592 Q 86.8 589.8 91.5 591 L 93.5 592 Q 94.7 589.8 99.5 591 L 102.5 592 L 159.5 592 L 162.5 591 L 164.5 592 Q 166 589.5 171.5 591 L 173.5 591 L 229.5 591 L 231.5 590 L 232.5 591 L 316.5 591 L 320.5 592 L 322.5 592 L 324.5 591 L 325.5 592 L 333 592 L 334 587.5 L 333 586.5 L 333 577.5 L 334 575.5 L 333 573.5 L 334 568.5 L 333 563.5 L 334 562.5 L 334 549 L 327.5 548 L 277.5 548 L 276.5 547 Q 274.7 549.8 268.5 548 L 266.5 548 L 262.5 547 L 261.5 548 L 237.5 548 L 235.5 548 L 225.5 548 L 224.5 547 L 223.5 548 L 18.5 548 L 16.5 549 L 14.5 549 L 8.5 548 L 9 549.5 L 9 558.5 L 8 559.5 L 9 560.5 L 9 586.5 L 10 587.5 L 9 592 L 45.5 592 L 47.5 591 L 51.5 592 L 53 591.5 Q 53.8 593.8 51.5 593 L 50.5 594 L 8.5 594 L 5 595 L 6 587.5 L 5 584.5 L 6 580.5 L 5 577.5 L 6 575.5 Q 3.7 574.2 5 569.5 Q 7.3 568.3 6 563.5 Q 3.7 562.3 5 557.5 L 6 556.5 L 6 529.5 L 6 527.5 L 5 422.5 L 6 417.5 L 5 416.5 L 5 392.5 L 6 391.5 L 6 341.5 L 7 340.5 Q 4.7 339.3 6 334.5 L 7 333.5 L 7 323.5 L 6 322.5 L 6 302.5 L 7 301.5 L 7 273.5 L 8 272.5 L 7 271.5 L 7 118.5 L 8 114.5 L 8 112.5 L 7 106.5 L 7 104.5 Q 5.8 99.8 8 98.5 L 8 13.5 L 9 12.5 L 9 6 L 11 6.5 L 11 35.5 L 12 35.5 Q 14.1 25.1 21.5 20 Q 27.5 15.5 36.5 14 L 50 16.5 L 42.5 17 L 39.5 16 L 29.5 18 L 19 26.5 L 12 40.5 L 11 53.5 L 12.5 57 L 14 53 L 16.5 52 L 17 53.5 L 15 57 Q 19 55.6 17 62.5 Q 25 67.4 23 81 Q 27.6 82.3 29 79.5 L 26 73.5 L 30 70.5 Q 29.2 67.9 32.5 69 L 36 68 L 36 66 Q 33.3 67.1 34 64.5 Q 32.5 61.5 31 64.5 L 30.5 66 L 30 63 Q 32.7 64.1 32 61.5 Q 29.7 60.3 31 55.5 L 32.5 53 L 31 52.5 L 32.5 50 L 33.5 53 L 36.5 51 L 38 53.5 L 35 54.5 L 34 62 Q 37 60.8 36 64.5 Q 40.9 66.1 40 73.5 L 39 76 L 32.5 80 Q 31.3 77.8 30 80.5 Q 28.1 85.9 31.5 85 L 33 82 Q 35.7 80.9 35 83.5 L 34 86 L 31.5 87 L 18.5 79 L 15.5 80 L 11.5 79 Q 8.3 80.8 10 87.5 L 10 89.5 L 11 94.5 L 10 96.5 L 11 98.5 L 10 99.5 L 10 124.5 L 9 126.5 L 10 129.5 L 9 130.5 L 9 143.5 L 9 145.5 L 10 160 L 18 163 Q 19.1 165.7 16.5 165 L 10.5 161 L 9 165.5 L 10 166.5 L 10 185.5 L 9 186.5 L 9 194.5 Q 11.5 196 10 201.5 L 10 203.5 L 10 253.5 L 9 254.5 L 10 257.5 L 10 265.5 L 9 266.5 Q 11.5 268 10 273.5 L 9 275.5 Q 11.2 276.7 10 281.5 L 9 285.5 L 10 286.5 L 10 298.5 L 9 302.5 L 9 306.5 Q 7.8 311.2 10 312.5 L 9 313.5 L 9 391.5 Q 6.7 392.7 8 397.5 L 9 399.5 L 7 410.5 L 7 422.5 L 8 423.5 L 8 446.5 L 8 448.5 L 8.5 452 L 11 441.5 L 10 438.5 L 12 439.5 L 14 444.5 L 8 457.5 L 8 472 Q 14.2 472.8 17 468.5 Q 17.8 466.3 15.5 467 Q 14.5 470 9.5 469 L 9.5 468 Q 14 469 15 466.5 L 15.5 464 L 17 464.5 L 15 454.5 Q 18.6 452.6 18 446.5 L 14 437.5 L 18 440.5 L 21 444.5 L 21 448.5 L 18 452.5 L 20 463 L 23.5 462 L 27 463 Q 29.1 468.2 24.5 467 L 22 465.5 L 23 467.5 L 22 468.5 L 22 476 L 18.5 478 L 19.5 475 L 17.5 476 Q 15.7 473.2 9.5 475 Q 6.8 476.2 9 477.5 L 9.5 480 L 13.5 478 L 18 479.5 L 15 485 L 18 485 L 18 490 L 19.5 490 L 22 491 Q 23 494 20 493 L 20 496.5 L 17 503.5 L 17 507.5 L 18 507.5 Q 16.9 504.2 19.5 505 L 21 504.5 L 19 511.5 L 21 512 Q 20 509 23 510 Q 21.5 513.7 24.5 513 Q 25.8 510.7 27 513.5 L 24 518.5 L 25.5 518 Q 27.8 517.3 27 519.5 L 26 521.5 L 29 519.5 L 29.5 516 L 31.5 521 Q 34.5 520.2 33 524 L 35.5 524 L 37 523.5 L 37.5 525 L 38 523 L 43.5 524 L 47 523 Q 48.8 518.5 43.5 520 Q 40.8 518.8 42 513.5 L 40 511.5 L 42 511 Q 40.8 514 44.5 513 L 45.5 512 L 49.5 516 Q 53.9 517.5 53 514.5 Q 53.8 512.3 57.5 513 L 59 515.5 L 55 520.5 L 59 521 Q 61.7 518.4 61 511.5 L 59 500.5 L 63 497.5 L 64 491.5 L 62 492.5 L 60 498 L 56.5 500 L 55 499.5 L 57 512 L 53.5 511 L 52 511.5 L 53 505.5 Q 50 501.5 51 493.5 Q 53.8 488.1 62 489 L 61 481.5 L 63 482.5 Q 62.5 486.5 65.5 487 L 77.5 490 L 79.5 490 L 81 489.5 Q 78.8 488.3 81.5 487 L 86.5 485 L 88 487.5 L 85.5 489 L 84 488.5 Q 84.8 490.8 82.5 490 L 79.5 492 Q 78 489.5 76.5 493 L 74.5 492 L 74 494 Q 71.3 495.1 72 492.5 L 70 491.5 Q 70.8 493.8 68.5 493 L 66 491.5 Q 67 498.5 64 501.5 L 64 503.5 L 65 509.5 L 65 511.5 L 63 519.5 L 61 521.5 L 64 523.5 L 61.5 528 L 60 527.5 L 61 531 L 58 531 L 58 534 Q 54.2 532.5 55 535.5 L 54 537.5 Q 55.5 542.5 63.5 541 L 66 540 Q 67.1 542.7 64.5 542 Q 63 544.5 57.5 543 L 52 538.5 Q 53.3 533.7 50 535 L 50 539.5 L 52 543 Q 57.2 545.2 67.5 544 L 72.5 538 L 79.5 539 Q 83.8 538.3 83 532.5 L 82 528 Q 79 529 80 526 L 83.5 528 Q 85.3 525.3 91.5 527 L 100 521.5 Q 104.5 516 103 504.5 L 100 498 L 91.5 494 L 89 495 Q 87.9 491.5 95.5 493 L 103 499.5 L 105 504.5 L 105 514.5 Q 102.4 521.9 96.5 526 Q 92.6 530 85 529 L 85.5 533 Q 87.3 529.2 89 532.5 L 87 535.5 L 90 541 L 93 540.5 Q 88.8 539 90 533 Q 93 531.8 92 535.5 L 93 538 Q 95.6 540.7 102.5 540 L 105 539 L 106.5 536 Q 108.8 535.3 108 537.5 L 102.5 542 Q 95.8 540.8 93.5 544 L 91.5 543 L 90.5 544 L 86 539.5 L 85.5 535 Q 83.3 535.8 84 539.5 L 87.5 544 L 98.5 546 Q 100.2 543.3 106.5 545 L 112 543 L 114 539.5 L 114 536.5 L 111 530.5 L 113.5 529 Q 116.5 533 123.5 533 L 134.5 529 L 139 524.5 L 141 516.5 L 138.5 513 Q 134.1 514.5 135 511.5 Q 137.3 510.3 134.5 509 L 123 506 Q 124.3 509 120.5 508 L 116 511.5 L 115.5 516 L 114 512.5 L 118.5 507 L 122 505.5 L 116.5 502 L 109 505.5 L 107.5 509 L 107 505.5 L 113 500.5 L 110.5 497 L 106.5 498 L 93 489.5 L 91.5 487 L 89 488.5 L 91 485.5 L 89.5 483 L 88 483.5 L 86.5 481 L 83 480 L 80.5 476 L 74.5 474 L 66.5 477 L 64 476 L 63.5 473 L 62 473.5 Q 63 467 59.5 465 L 59 469 L 56 467.5 Q 56.8 465.3 54.5 466 L 53 466.5 L 52.5 465 L 52 467 L 48.5 466 L 46.5 469 L 43 466.5 Q 44.1 469.8 41.5 469 Q 39.5 465 37.5 469 L 34.5 466 Q 32.3 465.3 33 467.5 L 31.5 467 Q 29.3 467.8 30 465.5 L 29 463 L 31.5 462 L 34.5 464 Q 35.8 461.8 40.5 463 L 43.5 464 L 45.5 463 L 47.5 463 L 49 463 L 49.5 461 L 55.5 461 L 65 457.5 Q 65.9 450.6 61.5 449 L 59 447.5 Q 59.5 444.5 52.5 446 L 48 442.5 L 44.5 438 L 34.5 436 L 31.5 437 L 27 440.5 L 24.5 444 L 24 442.5 L 26 438 L 35.5 434 L 45.5 437 L 50 440.5 Q 48.8 444.3 52.5 443 Q 54.3 446.8 56 443.5 L 53 434.5 L 48 429.5 L 46 420.5 L 41 414.5 L 39 405 L 29.5 403 L 27.5 404 L 28.5 402 L 37.5 403 L 36.5 401 L 32.5 399 L 29.5 400 L 27.5 400 L 21.5 403 L 18.5 403 L 16.5 402 L 15 406 L 20 405 L 19.5 407 Q 18.3 404.8 17 407.5 L 16.5 411 L 11 409.5 L 15 408 L 14 402.5 Q 14.5 399.5 18.5 400 L 20.5 401 L 19.5 399 L 15.5 398 L 12 400.5 L 13 405.5 L 11 406 L 12 398 Q 14.1 396.4 19.5 397 L 24.5 400 Q 27.8 396.2 36 398 Q 33.3 394.4 34 386.5 L 32 384.5 L 32 380.5 Q 27 377.5 26 370.5 L 25 358.5 L 27 354.5 Q 20.2 348.3 22 333.5 L 24 330.5 Q 19.8 325.7 21 315.5 L 22 314.5 L 22 306.5 Q 18.1 302.4 19 293.5 L 20 292.5 L 21 279.5 L 20 274.5 L 21 271.5 L 19 265.5 L 19 260.5 L 20 258.5 L 19 255.5 L 21 247.5 Q 18.5 246 20 240.5 Q 22.8 238.7 21 232.5 Q 18.5 231 20 225.5 Q 22.5 224 21 218.5 L 23 214.5 L 23 200.5 L 27 192.5 L 27 179.5 Q 30.3 175.8 29 167.5 L 26.5 169 Q 23.2 172.2 15.5 171 L 12 169.5 L 12.5 167 Q 14.3 170.7 21.5 169 L 31 163 L 32 158.5 L 27.5 162 L 19 165 Q 17.9 162.3 20.5 163 Q 28.4 160.9 32 154.5 L 30 151.5 L 35 148.5 Q 35.7 138.7 41 133.5 L 41 129 L 35 130 Q 33.8 127 37.5 128 L 41 127 L 41.5 129 L 43 125 L 36 126 L 37.5 123 Q 43.6 121.8 43 124.5 L 44 124.5 L 45 119.5 L 54 107.5 L 58 97.5 L 64.5 90 L 68 87.5 L 68 85.5 L 75.5 77 L 80 73.5 L 85.5 66 Q 90.8 60.7 100.5 60 L 106.5 55 L 110.5 55 L 115.5 53 L 120 48.5 L 118.5 44 L 117.5 46 L 114.5 43 L 110.5 42 L 107 44.5 Q 107.8 46.8 105.5 46 Q 104.2 48.2 99.5 47 L 98 44.5 L 99.5 45 L 103.5 46 Q 105.8 40.8 113.5 41 L 117.5 44 L 118 42.5 Q 115 38 107.5 38 L 105 39 L 103.5 43 L 100.5 44 L 99 40.5 L 101.5 42 Q 103.8 42.8 103 40.5 L 105.5 37 L 110.5 36 Q 117.5 37.5 121 42.5 L 122.5 48 L 134.5 42 L 143.5 40 L 153 43 L 154.5 46 L 163.5 52 L 164 50.5 L 163 46.5 L 164 46.5 L 165.5 49 L 167.5 46 L 170 44.5 L 168.5 39 Q 169.1 43.6 166.5 45 L 166 39 L 162 41.5 L 161.5 46 Q 159.8 42.5 154 44 Q 152.7 40.3 158.5 42 Q 159.8 44.3 161 41.5 L 162 38 L 168.5 35 L 170 38 Q 172.7 36.9 172 39.5 L 173.5 42 L 178.5 41 L 183.5 45 L 187.5 45 Q 190.4 42.4 196.5 43 L 197.5 44 L 205.5 44 L 217 49 L 216 43.5 L 219.5 38 L 224.5 37 Q 226.3 39.8 228 35.5 L 227 29.5 Q 228.7 21.2 234.5 17 L 242.5 13 L 245.5 13 L 249.5 14 L 251.5 13 Q 252.8 15.3 254 12.5 L 255.5 10 L 257 9.5 L 238.5 9 L 237.5 8 L 233.5 9 L 231.5 8 L 226.5 9 L 224.5 8 L 221.5 9 L 212.5 10 L 211.5 9 L 192.5 9 L 190.5 8 L 187.5 9 L 183.5 8 L 181.5 8 L 176.5 9 L 174.5 9 Q 168.3 10.8 166.5 8 L 163.5 9 L 162.5 8 L 110.5 8 L 106.5 7 L 101.5 8 L 99.5 7 Q 97.8 9.8 91.5 8 Q 90.3 5.8 89 8.5 Q 97.4 10.6 102 16.5 Q 107.1 19.9 106 29.5 L 99.5 39 L 99 36.5 Q 104.5 33 104 23.5 L 96.5 14 Q 92.2 9.8 84.5 9 L 75.5 12 L 69.5 9 L 66.5 10 L 66.5 9 Q 69.1 9.7 68 7 L 56 7.5 L 60 10.5 Q 60.7 13.1 58 12 Q 59.3 9 55.5 10 L 51.5 9 L 47 11 Q 45.7 7.7 50.5 9 L 53 7.5 L 15 6.5 L 23.5 6 L 24.5 5 Z M 72 7 L 72 9 L 76 10 L 81 9 L 81 7 L 72 7 Z M 174 44 L 174 45 L 179 47 Q 181 48 180 46 Q 179 43 174 44 Z M 174 47 L 169 48 L 168 51 L 169 52 L 175 49 Q 176 46 174 47 Z M 127 52 L 125 54 L 126 56 L 119 59 L 118 61 L 133 55 L 127 52 Z M 201 52 Q 201 55 206 55 L 208 59 L 214 60 L 215 60 L 213 56 L 216 57 L 217 57 Q 211 52 201 52 Z M 217 52 Q 217 55 221 55 L 226 61 L 227 59 L 217 52 Z M 119 53 Q 114 58 106 59 L 103 63 L 107 60 Q 110 59 109 62 L 104 66 L 105 67 L 114 63 L 115 59 L 119 56 L 119 53 Z M 195 55 L 192 57 L 194 58 Q 200 57 203 60 L 204 57 L 195 55 Z M 134 57 L 122 61 L 122 62 L 126 61 L 126 63 L 121 66 L 122 67 L 133 61 L 136 58 L 134 57 Z M 139 57 L 137 61 L 142 61 L 143 59 L 139 57 Z M 14 58 L 12 62 L 14 61 L 14 58 Z M 242 59 L 243 61 L 244 61 L 242 59 Z M 192 60 L 191 62 Q 197 62 199 67 L 199 69 L 205 69 Q 206 65 201 67 L 201 65 L 205 66 L 205 65 Q 202 60 195 61 L 192 60 Z M 218 60 L 220 62 Q 221 59 218 60 Z M 234 60 L 232 62 L 232 64 L 238 69 L 241 68 L 237 66 L 238 64 Q 242 63 244 66 L 245 66 L 234 60 Z M 12 62 L 12 71 L 14 68 L 12 67 L 12 62 Z M 15 62 L 13 64 L 14 67 L 16 66 L 17 69 L 18 67 L 15 62 Z M 146 63 L 143 67 L 138 72 L 140 73 Q 140 70 145 71 L 149 66 L 149 64 L 147 67 L 144 68 L 146 65 L 146 63 Z M 209 63 L 208 70 L 211 71 L 213 70 L 217 72 L 219 72 L 222 72 L 218 70 L 216 67 L 222 69 L 222 67 L 215 63 L 209 63 Z M 222 63 L 226 70 L 230 71 L 229 70 L 233 69 L 227 64 L 222 63 Z M 96 64 L 88 69 Q 85 68 86 71 L 86 72 L 89 70 L 91 71 L 86 74 L 85 76 Q 95 74 100 68 L 99 66 Q 100 63 96 64 Z M 138 64 Q 136 66 132 65 L 127 68 Q 124 67 125 70 L 132 67 L 134 69 L 127 72 L 126 74 L 138 69 L 141 65 L 138 64 Z M 185 64 L 184 65 Q 180 64 181 67 Q 182 69 184 67 L 185 70 Q 186 72 188 70 L 193 72 L 195 71 L 192 69 Q 187 70 188 67 L 194 68 Q 196 69 195 66 L 185 64 Z M 114 65 L 107 70 L 103 76 L 104 78 L 108 72 Q 111 71 110 74 L 106 77 L 107 79 L 121 70 L 116 69 L 115 67 Q 116 64 114 65 Z M 245 66 L 245 68 L 249 70 L 249 69 L 245 66 Z M 19 67 L 19 71 L 19 70 Q 21 68 19 67 Z M 103 69 L 101 70 Q 98 72 101 73 Q 103 74 102 71 L 104 71 Q 105 68 103 69 Z M 34 70 L 31 71 L 30 74 Q 29 77 32 78 L 35 76 Q 36 71 34 70 Z M 16 71 L 15 74 Q 19 75 18 72 L 16 71 Z M 206 71 L 210 80 L 218 82 L 219 80 Q 212 82 214 77 L 217 78 L 218 78 L 214 74 Q 208 76 209 72 L 206 71 Z M 12 72 Q 9 77 13 76 L 14 77 L 12 72 Z M 199 72 Q 196 75 189 75 Q 191 79 197 79 L 198 75 L 204 77 L 206 77 L 205 74 L 199 72 Z M 243 72 L 244 73 L 252 83 Q 251 85 254 84 L 254 82 L 249 76 Q 247 72 243 72 Z M 226 73 L 225 74 Q 218 73 219 76 L 227 81 L 227 76 L 232 78 L 233 78 L 226 73 Z M 120 74 L 112 81 Q 111 84 114 83 L 116 78 L 119 77 Q 121 76 120 80 L 120 81 L 125 78 L 125 77 Q 121 78 122 76 L 120 74 Z M 137 74 L 127 78 L 128 80 L 131 78 Q 133 77 132 80 L 132 81 L 139 77 Q 143 78 142 75 L 137 74 Z M 235 74 L 238 82 L 245 85 L 246 85 L 244 80 L 247 81 L 247 80 L 240 74 L 235 74 Z M 95 75 L 91 78 Q 85 81 83 88 Q 82 90 85 89 L 86 86 L 91 82 L 87 88 L 88 89 L 100 79 L 101 77 Q 100 74 95 75 Z M 82 77 L 75 82 L 77 85 L 80 85 L 83 83 Q 82 80 85 81 L 86 78 L 82 77 Z M 199 78 L 201 80 L 204 80 L 199 78 Z M 142 79 L 139 80 L 140 82 L 143 80 L 142 79 Z M 165 79 L 165 81 L 162 87 L 164 89 L 164 85 L 167 83 L 166 90 L 168 89 L 167 81 L 165 79 Z M 103 80 L 95 89 L 96 93 L 96 92 L 101 88 L 99 92 L 100 93 L 103 91 Q 109 88 109 80 L 107 81 L 103 80 Z M 118 81 L 117 83 L 119 82 L 118 81 Z M 208 81 L 207 82 Q 203 81 204 84 L 208 85 L 209 86 L 208 84 L 209 82 L 208 81 Z M 160 82 L 152 85 L 126 85 L 123 88 L 115 91 L 112 96 L 105 100 L 101 100 L 99 106 L 94 110 Q 92 113 91 111 L 87 119 Q 85 123 80 123 L 78 133 L 73 138 Q 72 144 69 148 L 69 154 L 66 157 L 65 172 L 63 176 L 63 178 L 62 181 Q 64 186 60 185 Q 62 199 56 206 L 57 209 L 56 213 L 57 232 L 57 234 L 58 236 Q 58 244 54 249 L 56 255 L 56 269 L 54 273 L 56 287 L 55 290 L 59 298 Q 61 308 56 313 L 59 322 L 57 331 L 60 341 Q 59 352 62 360 Q 64 365 61 367 L 63 375 L 63 382 L 70 396 L 72 409 L 81 422 L 82 430 L 85 437 L 90 440 L 93 442 Q 96 443 95 449 L 101 452 L 102 455 L 114 462 L 115 465 L 125 469 L 129 466 L 139 466 L 148 472 L 151 472 L 162 477 L 167 476 L 175 476 L 176 477 L 187 474 L 203 472 L 205 472 L 207 473 L 213 470 L 223 469 L 228 461 L 232 459 L 236 459 L 237 456 Q 242 448 251 445 L 261 430 Q 260 421 265 419 Q 264 415 267 416 L 268 415 L 269 407 L 275 398 L 274 395 L 276 383 L 279 378 L 279 369 L 282 358 Q 284 352 281 351 L 284 341 Q 286 334 283 333 L 283 324 L 286 315 L 285 310 Q 284 301 287 297 Q 288 287 284 284 L 284 274 L 286 267 L 285 256 L 284 255 L 284 231 L 282 228 L 280 217 L 281 215 L 280 213 L 282 208 L 278 201 L 278 193 L 279 192 L 276 184 L 277 179 L 273 172 Q 274 167 272 166 L 273 164 Q 265 158 263 147 L 263 138 L 261 137 L 259 132 Q 260 129 258 130 L 250 119 L 249 111 L 242 102 L 237 101 L 228 94 L 226 91 Q 218 92 216 86 L 210 88 L 202 85 L 195 86 L 191 88 L 182 88 L 171 84 L 171 88 L 166 97 L 163 96 L 159 88 L 160 84 L 160 82 Z M 223 82 L 222 83 Q 218 82 219 85 L 224 88 L 226 88 L 223 86 Q 224 83 226 85 L 227 85 L 223 82 Z M 121 83 L 119 84 L 117 87 Q 121 87 123 84 L 121 83 Z M 231 83 Q 233 88 240 91 L 241 91 L 240 88 L 243 88 L 236 83 L 231 83 Z M 72 85 L 70 88 L 72 90 L 74 89 L 77 85 L 73 88 L 72 85 Z M 111 85 L 109 88 L 106 90 L 100 97 L 104 94 Q 106 95 105 93 L 108 91 L 109 93 L 113 87 L 111 85 Z M 80 87 L 78 89 L 75 89 Q 76 92 74 91 L 65 102 L 66 105 L 73 104 L 83 93 L 80 87 Z M 90 90 L 88 91 Q 81 95 78 104 L 80 107 L 85 106 L 94 96 L 93 91 L 90 90 Z M 68 91 Q 60 97 56 107 L 57 109 L 58 106 L 61 104 L 58 110 L 61 110 L 64 106 L 63 104 L 63 100 L 69 93 Q 70 90 68 91 Z M 232 92 L 233 94 L 238 95 L 240 99 Q 242 100 241 97 L 243 97 Q 240 91 232 92 Z M 97 96 L 93 101 L 90 102 Q 89 105 92 104 Q 93 101 95 105 L 99 100 L 97 96 Z M 90 104 L 88 107 L 90 106 L 90 104 Z M 72 106 Q 70 108 66 107 L 59 118 L 60 120 L 61 117 L 64 115 L 62 119 Q 61 121 64 120 Q 70 116 72 108 L 72 106 Z M 76 106 L 74 109 L 76 108 L 76 106 Z M 78 109 L 76 112 L 79 110 L 78 109 Z M 83 109 L 81 110 L 81 112 L 78 113 L 76 118 L 77 120 L 79 117 L 82 115 Q 83 118 80 120 L 81 121 L 87 114 L 87 111 Q 84 112 85 109 L 83 109 Z M 53 111 L 50 118 L 51 124 L 52 119 L 54 118 L 53 120 L 54 122 Q 58 118 59 112 L 53 111 Z M 268 112 Q 266 116 268 118 L 267 123 L 270 133 L 273 134 L 270 129 Q 268 124 272 125 L 273 129 L 275 130 L 273 120 L 268 112 Z M 73 113 L 70 116 L 72 120 L 75 114 L 73 113 Z M 253 113 L 257 121 L 261 123 Q 262 119 260 120 Q 256 119 257 115 L 259 115 Q 258 112 253 113 Z M 284 118 L 283 121 Q 286 123 286 130 L 288 131 L 287 129 L 290 128 L 284 118 Z M 276 120 L 277 124 Q 276 127 280 126 L 281 130 L 283 131 Q 284 124 281 121 L 276 120 Z M 66 121 L 66 123 L 68 122 L 66 121 Z M 57 122 L 53 127 L 49 127 Q 50 124 47 125 L 45 130 L 46 133 L 47 131 L 48 135 L 49 130 Q 51 127 52 130 L 51 133 L 53 132 Q 52 128 55 129 L 56 131 L 57 127 L 57 122 Z M 73 122 L 69 124 L 64 130 L 65 131 L 66 128 L 70 129 L 73 124 L 73 122 Z M 263 122 L 261 127 L 262 129 L 264 128 L 266 133 L 267 133 L 266 128 L 265 125 Q 266 121 263 122 Z M 60 124 L 59 129 L 60 131 L 62 127 Q 63 123 60 124 Z M 75 124 Q 74 130 69 134 Q 68 136 72 135 Q 76 132 77 126 Q 78 123 75 124 Z M 278 129 L 279 131 Q 280 128 278 129 Z M 280 131 L 279 133 L 282 133 L 280 131 Z M 277 132 L 277 144 Q 280 146 280 150 L 284 150 L 284 149 L 283 149 L 280 144 L 283 143 L 281 137 L 279 135 L 277 132 Z M 286 132 L 283 136 L 286 141 L 288 148 L 290 144 L 289 139 Q 285 137 288 136 L 286 132 Z M 57 133 L 58 140 L 59 137 L 57 133 Z M 62 133 L 62 135 L 58 146 L 60 148 L 63 142 L 65 145 L 66 134 L 62 133 Z M 270 135 L 270 145 L 271 145 Q 270 141 273 142 L 274 144 L 274 137 Q 271 138 270 135 Z M 44 136 L 40 142 L 41 148 L 41 145 L 44 143 L 43 148 L 45 148 L 46 146 Q 47 138 44 136 Z M 53 136 L 48 146 L 49 151 L 49 148 L 52 146 L 53 148 L 54 146 L 54 138 L 55 137 L 53 136 Z M 293 139 L 295 150 L 295 147 L 298 147 L 293 139 Z M 267 140 L 265 145 L 270 156 L 270 155 Q 272 151 274 155 L 274 152 L 272 150 Q 266 148 267 140 Z M 284 143 L 283 147 L 284 147 L 284 143 Z M 291 144 L 291 149 L 292 149 Q 293 145 291 144 Z M 56 147 L 53 160 L 55 159 Q 54 154 57 155 L 58 159 L 60 152 L 59 151 L 56 147 Z M 66 148 L 62 150 L 61 155 L 62 157 L 63 154 L 66 153 L 66 148 Z M 38 150 L 35 157 L 36 163 L 38 162 L 37 157 L 40 158 Q 42 159 41 153 L 38 150 Z M 278 150 L 276 153 L 280 162 L 280 160 Q 282 157 283 160 Q 284 164 282 163 L 280 163 L 283 166 L 284 164 L 283 153 L 278 152 L 278 150 Z M 286 152 L 287 168 L 287 164 Q 290 163 289 166 L 290 166 L 290 162 L 286 152 Z M 46 153 L 44 158 L 45 164 L 47 159 L 47 156 Q 50 157 49 154 L 46 153 Z M 293 153 L 291 155 L 292 161 Q 294 164 295 161 L 294 156 Q 295 152 293 153 Z M 298 154 L 296 156 L 299 166 L 300 166 L 298 154 Z M 275 155 L 274 160 L 275 160 L 275 155 Z M 51 159 Q 46 164 48 175 L 49 175 Q 47 169 51 170 L 52 173 L 53 166 L 56 167 L 58 164 L 59 174 Q 58 169 61 168 L 62 172 L 62 163 L 63 160 L 61 159 L 56 164 L 54 164 L 51 159 Z M 275 161 Q 274 169 277 174 L 279 175 Q 278 171 281 172 L 283 177 L 284 175 L 284 171 L 277 164 Q 278 160 275 161 Z M 293 163 L 292 169 L 295 179 L 298 180 Q 299 177 296 178 L 295 176 L 297 172 L 297 174 L 298 174 L 297 165 Q 296 162 295 164 L 293 163 Z M 33 166 L 32 171 L 33 175 L 35 174 L 36 177 L 37 176 Q 36 169 38 167 L 33 166 Z M 42 166 L 41 170 L 43 169 L 44 172 Q 46 171 45 167 L 42 166 Z M 302 168 L 300 183 Q 301 185 303 183 Q 305 184 304 188 L 305 188 L 305 180 L 302 168 Z M 41 170 L 40 175 L 41 175 L 41 170 Z M 55 172 L 49 181 L 50 183 L 50 185 L 52 188 L 52 182 Q 55 181 54 186 L 55 186 L 55 172 Z M 287 172 L 287 185 Q 290 186 289 192 L 291 193 L 290 191 L 291 186 L 292 190 L 293 190 L 293 185 L 290 176 Q 291 172 287 174 L 287 172 Z M 299 174 L 298 178 L 299 178 L 299 174 Z M 45 176 L 40 181 L 41 183 L 43 180 L 44 183 L 45 181 L 45 176 Z M 59 177 L 59 180 Q 62 179 59 177 Z M 31 178 L 30 182 L 29 185 L 30 192 L 31 192 Q 29 186 33 187 L 34 191 L 34 188 L 38 190 Q 36 196 40 195 L 41 202 L 42 202 L 42 192 L 41 191 Q 42 186 39 187 L 38 184 L 37 184 Q 38 188 36 187 Q 33 186 34 182 L 31 178 Z M 284 178 L 279 179 L 280 187 L 281 187 Q 279 182 283 183 L 284 184 L 284 178 Z M 38 179 Q 33 181 37 183 L 38 181 L 38 179 Z M 297 182 Q 294 183 296 185 L 294 198 L 298 199 L 299 196 L 297 182 Z M 47 183 L 43 187 L 45 193 L 45 202 L 44 203 L 45 204 L 47 203 L 48 201 Q 50 195 47 194 L 48 189 Q 49 182 47 183 Z M 285 184 L 284 187 L 285 187 L 285 184 Z M 57 187 L 56 190 L 54 191 L 53 192 L 50 191 Q 49 194 52 193 Q 51 199 54 203 L 54 198 L 57 199 L 57 187 Z M 282 187 Q 280 190 283 189 L 282 187 Z M 307 188 L 305 193 L 305 206 L 304 207 Q 303 211 306 213 L 307 213 L 306 210 L 307 206 Q 311 205 309 213 L 310 213 L 310 200 Q 307 196 308 190 L 307 188 Z M 302 189 Q 301 192 304 191 Q 305 188 302 189 Z M 285 191 L 284 192 L 282 193 L 282 201 L 284 200 L 286 204 L 286 203 L 286 201 L 286 192 L 285 191 Z M 302 193 L 301 200 L 303 200 L 302 193 Z M 289 196 L 288 200 L 289 202 L 288 207 L 291 215 L 291 209 Q 294 208 293 213 L 294 213 L 292 202 Q 294 194 289 196 Z M 29 197 L 26 203 L 26 216 L 27 218 L 28 218 L 27 215 L 29 212 L 30 218 L 31 218 L 30 214 Q 29 204 31 198 L 29 197 Z M 35 197 L 32 206 Q 31 213 34 216 L 35 216 L 34 212 Q 33 209 36 210 L 38 216 L 39 212 L 39 206 Q 35 203 35 197 Z M 39 198 L 38 201 L 39 201 L 39 198 Z M 51 201 L 46 212 L 49 220 L 51 221 L 50 219 L 51 214 Q 53 215 52 219 L 53 219 Q 54 207 51 201 Z M 301 202 L 299 206 L 296 207 L 297 218 L 298 218 Q 296 212 300 213 L 301 215 L 302 213 L 301 202 Z M 42 207 L 39 217 L 39 226 L 41 227 L 41 222 L 44 224 L 43 226 L 44 227 L 46 224 Q 47 218 44 216 Q 46 209 42 210 L 42 207 Z M 285 209 L 286 221 L 286 219 L 288 220 L 288 227 L 289 227 Q 291 217 287 213 Q 288 208 285 209 Z M 305 214 L 303 224 L 303 226 L 304 230 L 306 227 L 308 231 L 308 226 L 308 224 L 307 218 L 305 214 Z M 25 216 Q 22 223 23 235 L 25 236 L 24 231 Q 28 230 26 237 L 28 236 Q 29 231 27 230 L 29 222 L 26 220 L 25 216 Z M 309 216 L 309 222 L 310 225 L 310 231 L 308 237 L 310 240 Q 309 235 312 233 L 312 236 L 313 236 L 313 228 L 311 219 Q 312 215 309 216 Z M 33 218 L 31 220 Q 33 225 30 227 L 32 238 L 33 238 Q 34 233 32 232 L 34 231 Q 36 233 36 238 L 37 234 Q 38 226 35 223 L 36 221 L 33 218 Z M 294 218 L 292 220 L 294 225 L 293 227 L 295 234 L 295 232 L 298 234 Q 297 237 300 236 L 299 224 L 295 221 Q 296 217 294 218 Z M 48 221 Q 48 227 44 229 L 46 233 L 47 233 L 46 230 L 49 228 L 50 232 L 51 230 L 50 224 L 48 221 Z M 54 222 L 52 234 L 49 235 Q 51 237 50 244 L 52 246 L 52 241 Q 55 240 54 243 L 55 243 L 55 227 L 54 222 Z M 287 226 Q 284 230 288 229 L 287 226 Z M 39 229 L 38 235 L 39 239 L 38 241 L 39 243 L 39 241 Q 42 240 41 244 L 42 244 L 42 234 L 41 233 Q 42 228 39 229 Z M 291 230 L 288 233 L 288 241 L 290 248 L 292 249 L 291 247 Q 289 239 294 241 L 293 244 L 294 246 L 296 242 L 292 237 L 291 230 Z M 305 231 L 304 234 L 305 234 L 305 231 Z M 303 234 L 302 238 L 303 238 L 303 234 Z M 45 236 L 45 238 Q 47 243 44 245 Q 42 255 46 260 L 47 256 L 49 260 L 50 252 L 50 248 L 47 240 L 48 238 L 45 236 Z M 30 237 L 27 240 L 25 239 L 23 242 Q 25 245 24 252 L 25 252 Q 24 247 28 249 L 29 253 L 30 250 L 30 241 L 31 240 L 30 237 Z M 302 238 L 300 241 Q 297 240 298 243 L 299 246 L 298 249 L 298 255 L 300 262 L 302 263 L 301 255 Q 304 254 303 258 L 304 258 L 304 247 Q 302 245 303 240 L 302 238 Z M 306 238 L 304 240 L 305 245 L 308 244 Q 309 239 306 238 Z M 35 240 L 33 242 Q 31 252 36 256 L 36 254 Q 34 252 37 251 L 37 255 L 38 255 Q 37 251 40 252 L 38 261 L 38 273 L 40 272 Q 39 269 42 270 L 43 275 L 43 263 L 43 261 L 41 256 L 41 249 L 39 249 L 36 245 Q 38 239 35 240 Z M 314 241 Q 314 244 311 243 Q 310 247 313 249 L 313 253 L 314 253 L 314 241 Z M 40 243 L 39 246 L 40 246 L 40 243 Z M 288 247 L 288 258 L 288 256 L 290 255 Q 289 258 292 257 L 291 255 L 292 253 L 288 247 Z M 31 252 L 27 261 L 27 266 L 30 267 L 29 271 L 30 274 L 32 275 L 31 272 Q 30 268 33 267 Q 36 269 34 276 L 36 275 L 35 270 L 36 266 L 36 262 L 31 252 Z M 52 252 L 52 254 L 50 263 L 46 264 Q 45 267 48 266 L 49 269 Q 48 275 51 274 L 54 269 L 54 257 L 53 256 Q 54 251 52 252 Z M 296 253 L 293 257 Q 291 263 294 265 L 293 268 L 294 275 L 294 270 Q 297 269 296 274 L 298 273 L 298 262 L 296 253 Z M 311 253 L 306 256 L 309 268 L 311 264 L 311 253 Z M 23 254 L 22 263 L 25 264 Q 26 257 23 254 Z M 289 259 L 288 261 L 290 262 L 289 259 Z M 23 264 L 22 267 L 23 267 L 23 264 Z M 305 264 L 304 265 Q 301 264 302 267 L 305 267 L 305 264 Z M 26 265 L 25 268 L 26 268 L 26 265 Z M 290 266 L 288 269 L 289 271 L 288 273 L 288 281 Q 291 281 290 286 L 291 286 L 290 266 Z M 314 266 L 314 277 L 315 277 Q 316 269 314 266 Z M 27 268 L 26 272 L 27 272 L 27 268 Z M 309 269 L 308 273 L 309 273 L 309 269 Z M 46 273 L 46 278 L 46 295 L 47 295 Q 46 292 49 293 L 50 297 L 51 297 L 49 280 L 46 273 Z M 28 274 L 23 275 L 25 289 L 26 289 L 25 286 Q 24 282 27 281 L 28 283 L 29 278 Q 30 273 28 274 Z M 300 275 L 302 296 L 303 293 L 305 296 L 306 288 L 305 276 L 304 276 L 300 275 Z M 52 276 L 51 281 L 53 281 L 52 276 Z M 36 277 L 31 278 L 30 284 L 32 293 L 33 293 Q 32 286 35 287 L 36 290 L 37 290 Q 38 281 36 277 Z M 308 277 L 308 285 L 309 285 Q 308 281 311 282 L 311 277 L 308 277 Z M 297 279 L 294 280 L 293 285 Q 291 289 295 288 L 297 293 L 298 289 L 298 280 L 297 279 Z M 314 279 L 313 283 L 314 283 L 314 279 Z M 43 282 L 40 283 L 39 287 L 40 297 L 41 297 Q 40 293 43 294 L 43 282 Z M 23 290 L 22 297 L 23 297 L 23 290 Z M 291 290 L 289 302 L 291 301 L 291 303 L 293 304 L 293 298 L 291 290 Z M 26 291 L 24 298 Q 23 306 26 310 L 26 305 L 29 307 L 28 309 Q 27 313 30 312 L 32 302 Q 33 296 30 295 Q 31 292 28 293 L 28 291 L 26 291 Z M 307 291 Q 308 298 305 302 L 307 303 L 309 303 L 309 292 L 307 291 Z M 299 294 L 298 301 L 296 301 L 296 298 L 294 301 Q 293 303 296 302 L 295 306 L 297 310 L 296 312 L 297 321 L 298 319 Q 297 316 300 317 L 299 320 L 300 326 L 303 316 L 302 302 Q 299 299 299 294 Z M 54 295 L 52 298 Q 50 304 53 306 Q 52 309 55 308 Q 56 300 54 295 Z M 38 296 L 35 301 Q 37 306 34 308 L 37 320 L 38 320 L 37 316 L 39 312 L 40 314 L 41 320 L 42 318 L 42 309 L 38 296 Z M 313 296 L 311 311 L 314 311 Q 315 302 313 296 Z M 42 298 Q 40 301 43 300 L 42 298 Z M 46 299 L 43 304 L 44 314 L 45 314 Q 43 308 47 309 L 48 310 L 47 307 Q 46 302 48 301 L 46 299 Z M 50 303 Q 48 307 50 309 L 49 314 L 51 318 L 52 318 L 51 307 L 50 303 Z M 289 303 L 288 307 L 289 307 L 289 303 Z M 292 304 L 291 309 L 292 309 L 292 304 Z M 290 308 L 289 310 L 291 311 L 290 308 Z M 33 309 L 29 317 L 29 325 L 32 323 L 33 323 L 33 328 L 35 328 L 34 327 Q 33 322 35 321 L 33 309 Z M 293 312 L 291 313 L 287 320 L 287 334 L 288 334 Q 287 326 290 327 L 291 336 L 294 328 L 294 319 L 293 318 L 294 316 Q 295 311 293 312 Z M 305 313 L 306 322 L 308 318 Q 310 311 305 313 Z M 26 314 L 26 322 L 27 317 L 26 314 Z M 55 317 L 53 321 Q 52 327 55 329 L 56 327 Q 57 320 55 317 Z M 46 318 L 44 320 Q 45 323 42 322 L 44 339 L 46 340 L 45 334 L 49 332 L 47 322 L 47 320 Q 48 317 46 318 Z M 37 323 L 37 326 L 37 328 L 40 329 L 40 323 L 37 323 Z M 312 323 Q 311 328 308 331 L 309 333 L 307 339 Q 306 341 309 340 L 310 342 L 312 331 L 312 323 Z M 303 327 L 302 333 Q 303 335 305 333 L 305 338 L 306 338 L 306 333 L 303 327 Z M 52 329 L 51 333 L 52 333 L 52 329 Z M 296 330 L 295 344 L 294 345 L 295 356 L 296 350 Q 295 347 298 348 L 299 353 Q 303 345 301 332 Q 300 329 296 330 Z M 30 332 Q 28 340 31 345 L 34 343 L 35 348 L 36 348 L 36 342 L 34 334 Q 31 335 30 332 Z M 48 334 L 48 340 L 49 340 Q 50 335 48 334 Z M 52 334 L 50 341 Q 49 344 52 343 L 53 347 L 54 347 L 53 336 L 52 334 Z M 334 336 L 328 337 L 322 347 L 321 352 L 323 361 L 313 364 Q 310 367 311 375 L 310 376 Q 307 377 308 375 L 306 376 L 309 384 L 309 386 Q 307 396 311 402 L 320 407 L 319 411 L 314 407 L 304 410 L 301 412 L 297 420 L 300 425 L 303 423 L 304 417 L 310 414 Q 314 413 313 416 Q 309 415 307 418 L 305 421 L 317 419 L 326 419 L 331 422 Q 334 423 333 429 L 335 428 Q 335 423 332 421 Q 329 422 330 419 L 334 421 L 334 418 L 329 417 L 329 416 Q 333 415 335 417 L 335 416 L 333 414 L 333 413 L 334 413 L 334 390 Q 336 388 334 387 L 328 388 L 329 403 L 329 405 Q 330 411 328 411 L 326 410 L 326 398 L 325 397 L 326 395 L 325 393 L 326 389 Q 325 386 320 387 L 320 389 L 320 393 L 318 392 Q 315 391 316 388 Q 319 384 325 385 L 325 383 L 316 383 L 316 381 L 318 379 L 325 379 L 324 377 Q 326 375 324 374 L 321 376 L 323 376 L 323 377 Q 315 378 316 375 L 323 374 L 325 374 L 325 370 L 329 367 L 328 369 Q 326 374 331 373 L 333 373 L 333 375 L 328 374 L 328 376 L 334 376 L 333 370 L 335 359 L 335 357 L 334 354 L 335 341 L 330 343 L 326 348 L 329 358 L 328 360 L 326 361 L 326 360 Q 327 354 324 353 Q 323 347 326 345 L 335 339 L 334 336 Z M 38 337 L 38 340 L 38 342 L 40 353 L 42 357 L 43 357 L 42 353 L 44 350 L 46 357 L 47 357 L 47 353 L 42 339 L 42 337 L 38 337 Z M 57 338 L 56 349 L 57 349 L 57 338 Z M 292 339 L 290 340 L 288 342 L 286 351 L 287 354 L 288 351 Q 287 346 290 347 L 291 350 L 292 345 L 292 339 Z M 303 339 Q 302 342 305 341 Q 306 338 303 339 Z M 28 342 L 27 345 L 28 345 L 28 342 Z M 306 343 L 303 344 L 302 351 L 302 352 L 306 351 L 306 343 Z M 29 345 L 28 351 L 33 362 L 34 358 Q 36 359 35 363 L 36 363 Q 37 358 35 357 Q 37 351 33 352 L 29 345 Z M 54 348 L 52 350 L 54 350 L 54 348 Z M 310 348 L 307 355 L 308 363 L 310 353 L 310 348 Z M 49 349 L 49 353 L 48 358 L 50 366 L 50 363 L 53 365 L 52 368 Q 51 371 54 370 L 54 363 L 49 349 Z M 55 351 L 53 354 L 56 362 L 56 367 L 58 366 L 58 360 L 55 351 Z M 38 352 L 37 355 L 39 356 L 38 352 Z M 305 353 L 302 357 L 303 359 L 305 355 L 305 353 Z M 40 356 L 40 361 Q 39 364 42 363 Q 43 358 40 356 Z M 290 356 L 290 358 L 287 359 L 285 359 L 286 361 L 283 370 L 284 375 L 285 370 Q 287 367 288 370 L 286 373 L 287 377 L 290 370 L 292 361 Q 294 355 290 356 Z M 46 357 L 44 359 L 46 359 L 46 357 Z M 296 359 L 294 361 Q 295 368 292 371 L 293 374 L 296 368 L 298 360 L 296 359 Z M 46 361 L 44 363 Q 43 371 47 376 L 50 375 L 51 379 L 52 377 L 51 373 L 48 370 L 46 361 Z M 304 362 Q 304 366 299 364 L 298 371 Q 296 372 299 373 L 301 368 L 303 369 L 304 365 L 304 362 Z M 31 364 L 30 370 L 31 370 L 31 364 Z M 40 365 L 38 368 Q 39 370 37 369 Q 35 367 34 370 L 39 383 L 39 379 Q 42 378 41 382 L 43 383 L 40 369 L 42 369 L 40 365 Z M 306 367 L 305 370 L 306 370 L 306 367 Z M 56 368 L 59 376 L 60 376 Q 61 371 58 370 Q 59 367 56 368 Z M 32 370 L 32 376 L 33 376 L 32 370 Z M 53 372 L 56 382 L 56 381 L 58 381 L 56 374 Q 57 370 53 372 Z M 48 376 L 47 379 L 48 379 L 48 376 Z M 45 377 L 45 381 L 44 385 L 47 396 L 49 396 L 48 392 Q 51 391 50 394 L 52 394 L 50 388 Q 52 382 49 383 L 45 377 Z M 290 377 L 287 383 Q 288 392 284 396 L 285 401 L 288 394 L 289 398 L 292 392 L 295 377 L 293 378 L 290 377 Z M 329 377 L 328 379 L 334 379 L 334 377 L 331 378 L 329 377 Z M 331 380 Q 330 382 334 382 Q 335 379 331 380 Z M 53 381 L 51 384 L 53 392 L 59 401 L 60 401 Q 60 393 56 389 Q 58 383 54 384 L 53 381 Z M 282 381 L 277 396 L 278 398 L 279 393 Q 281 389 283 393 L 285 383 Q 283 384 282 381 Z M 296 382 L 295 390 L 296 390 Q 295 386 298 387 L 300 384 L 300 382 L 296 382 Z M 329 382 Q 326 384 329 385 Q 334 387 333 383 L 329 382 Z M 62 384 L 59 388 L 62 396 L 62 401 L 67 406 L 68 406 L 66 401 Q 69 400 68 403 L 69 403 L 68 397 L 62 384 Z M 37 386 Q 38 394 42 399 Q 43 403 49 402 L 43 393 L 42 387 L 37 386 Z M 300 389 L 299 392 L 300 392 L 300 389 Z M 306 389 L 304 391 L 303 404 L 298 411 L 307 406 L 310 406 L 305 398 Q 304 392 306 391 L 306 389 Z M 299 392 L 296 395 Q 290 393 292 399 L 289 402 L 290 403 L 289 405 L 290 407 L 293 402 Q 292 399 295 400 L 294 403 L 295 404 L 299 395 L 299 392 Z M 54 396 L 52 400 Q 52 406 55 409 L 58 411 L 56 407 L 59 408 L 58 403 L 54 396 Z M 281 400 L 278 401 Q 274 404 273 410 L 276 409 L 275 412 Q 274 414 277 413 L 277 411 L 282 402 Q 283 399 281 400 Z M 43 404 L 41 407 L 45 416 L 47 417 L 43 404 Z M 284 404 L 282 407 L 283 409 L 283 407 L 286 408 L 287 406 Q 288 403 286 404 L 284 404 Z M 48 405 L 46 407 L 51 420 L 53 421 L 52 419 L 54 418 L 55 419 L 48 405 Z M 61 406 Q 63 408 62 415 L 65 420 L 68 421 L 66 419 Q 65 416 68 417 L 69 420 L 71 421 L 68 410 Q 66 406 61 406 Z M 294 408 L 292 410 L 290 409 L 286 411 L 287 413 L 286 415 L 288 415 L 287 417 L 288 418 L 295 409 L 294 408 Z M 56 412 L 55 414 L 60 422 L 63 423 L 64 424 L 60 413 L 56 412 Z M 279 416 L 276 421 L 279 419 L 280 421 L 277 425 L 278 426 L 281 424 L 281 416 L 279 416 Z M 269 417 L 266 424 L 269 422 L 270 424 L 268 427 Q 267 429 271 428 L 274 419 L 274 417 L 269 417 Z M 292 417 L 290 420 Q 288 424 283 424 L 282 427 L 283 429 L 285 426 L 288 424 Q 289 428 285 430 L 286 431 Q 290 428 292 422 L 292 417 Z M 56 419 L 55 421 L 57 422 L 56 419 Z M 284 419 L 286 421 Q 287 418 284 419 Z M 276 421 L 275 424 L 276 424 L 276 421 Z M 320 421 L 318 423 Q 320 426 321 423 Q 322 420 320 421 Z M 324 421 L 322 423 L 324 423 L 325 424 Q 326 420 324 421 Z M 51 422 Q 50 430 55 435 L 56 435 L 51 422 Z M 60 424 L 59 426 L 56 428 L 58 433 L 60 434 L 59 432 L 61 431 L 62 432 L 60 424 Z M 309 425 L 307 428 L 309 427 L 309 425 Z M 327 425 L 324 428 L 325 430 L 326 428 L 329 427 Q 330 424 327 425 Z M 64 426 L 65 431 L 67 432 L 69 432 L 68 429 L 64 426 Z M 296 426 L 294 429 L 295 431 L 296 429 L 296 426 Z M 302 426 L 296 435 L 298 440 L 299 436 L 299 434 L 303 427 L 302 426 Z M 314 426 L 315 428 Q 316 425 314 426 Z M 318 426 L 316 428 L 318 428 L 318 426 Z M 330 427 L 328 430 L 329 433 L 330 430 L 330 427 Z M 275 428 Q 274 431 279 430 Q 280 426 275 428 Z M 307 428 L 305 432 L 307 431 L 307 428 Z M 267 430 L 265 432 Q 264 435 269 433 L 271 433 L 273 435 Q 272 438 278 436 L 279 439 L 286 440 Q 287 442 288 440 L 280 433 L 267 430 Z M 333 430 L 334 436 L 335 436 Q 337 429 333 430 Z M 289 431 L 287 433 L 289 433 L 289 431 Z M 319 431 L 318 435 L 320 434 L 319 431 Z M 63 432 L 63 437 L 65 437 L 63 432 Z M 305 432 L 304 435 L 305 435 L 305 432 Z M 307 432 Q 309 438 304 436 L 303 441 L 304 444 L 306 438 L 308 438 L 310 433 L 307 432 Z M 314 432 L 312 434 L 313 435 L 315 434 L 314 432 Z M 293 433 L 290 436 L 292 439 L 293 439 L 293 433 Z M 301 435 L 299 438 L 301 439 L 301 435 Z M 310 435 L 309 438 Q 308 441 311 440 L 312 438 Q 313 434 310 435 Z M 316 435 Q 315 438 318 437 Q 319 434 316 435 Z M 329 436 L 327 438 Q 326 440 329 439 L 330 437 L 329 436 Z M 316 437 L 315 440 L 316 440 L 316 437 Z M 331 437 L 330 440 L 331 440 L 331 437 Z M 58 438 L 58 441 L 62 445 L 63 443 Q 64 438 61 439 L 61 441 Q 58 440 60 439 L 58 438 Z M 67 440 Q 64 449 69 453 Q 70 459 67 462 L 61 464 L 65 468 L 66 465 Q 68 466 67 470 L 72 468 L 74 464 L 74 458 L 67 440 Z M 274 440 L 272 442 L 274 442 L 273 444 L 274 445 L 276 442 L 274 440 Z M 318 440 L 316 442 Q 315 444 318 443 L 319 441 L 318 440 Z M 300 441 L 300 445 L 301 445 L 300 441 Z M 307 441 L 306 444 L 307 446 L 309 443 Q 310 440 307 441 Z M 329 442 L 328 444 L 331 445 L 329 442 Z M 310 443 L 309 446 L 310 446 L 310 443 Z M 315 444 L 315 447 L 317 446 Q 318 443 315 444 Z M 273 445 L 270 452 Q 269 454 272 453 L 274 450 L 273 445 Z M 287 445 Q 287 448 284 447 L 284 450 L 288 454 L 289 449 Q 290 446 287 447 L 287 445 Z M 295 445 L 296 450 L 296 451 Q 298 452 297 450 L 298 447 L 295 445 Z M 312 445 L 310 448 L 311 451 L 312 449 L 312 445 Z M 322 445 L 322 446 L 324 446 L 322 445 Z M 306 446 L 304 448 L 305 452 L 306 450 L 306 446 Z M 333 446 L 333 449 L 334 449 Q 335 445 333 446 Z M 291 447 L 289 453 L 290 455 L 292 450 L 291 447 Z M 324 447 Q 322 450 321 448 L 317 450 L 319 450 L 321 450 L 324 451 L 323 450 L 326 448 L 324 447 Z M 308 449 L 307 452 L 308 452 L 308 449 Z M 314 449 Q 314 453 316 450 L 314 449 Z M 276 450 L 274 452 Q 273 454 276 453 Q 279 452 276 450 Z M 278 450 L 278 453 L 280 452 Q 281 449 278 450 Z M 293 450 L 292 453 L 293 453 L 293 450 Z M 300 450 L 300 454 L 300 453 Q 302 451 300 450 Z M 94 451 L 95 454 L 94 458 Q 93 460 90 459 L 88 459 L 91 464 Q 94 468 100 469 L 101 469 L 99 467 L 98 465 Q 101 466 100 463 L 97 461 Q 93 462 94 459 L 99 460 L 99 459 L 102 460 L 101 457 L 94 451 Z M 329 451 Q 327 455 330 456 L 331 456 L 329 451 Z M 281 452 L 281 454 L 283 453 L 281 452 Z M 307 452 L 306 456 L 307 456 L 307 452 Z M 311 452 L 310 455 L 311 455 L 311 452 Z M 315 453 L 316 456 L 317 454 L 315 453 Z M 321 453 L 321 456 Q 324 455 321 453 Z M 260 454 L 255 456 L 254 460 L 261 459 Q 262 462 259 464 L 259 466 Q 262 465 261 468 L 264 467 L 263 463 L 262 465 L 261 465 L 264 456 Q 265 452 260 454 Z M 276 454 L 276 456 L 278 455 L 276 454 Z M 279 454 Q 280 457 277 459 Q 276 462 280 460 L 281 455 L 279 454 Z M 296 454 L 295 457 L 295 459 L 293 462 L 289 456 L 287 457 Q 288 459 286 458 L 286 459 Q 288 458 287 462 L 285 462 L 284 460 L 282 461 L 283 464 L 281 468 L 284 474 Q 279 475 278 471 L 280 464 L 280 462 L 277 464 L 275 463 L 273 466 Q 271 470 265 469 Q 262 469 262 474 L 265 472 L 266 474 L 263 479 L 267 482 L 266 494 L 264 493 L 262 493 Q 259 492 260 495 L 262 495 L 261 497 L 267 500 L 270 504 L 273 513 Q 274 519 271 523 L 272 525 L 272 527 Q 271 529 274 528 L 275 531 Q 276 534 274 533 L 268 526 L 268 524 L 268 521 L 267 523 L 264 525 L 266 527 Q 265 534 269 537 L 269 534 L 276 535 L 277 529 L 281 528 Q 280 525 283 524 Q 284 521 282 522 L 275 514 Q 273 507 277 508 L 278 513 L 280 513 L 279 510 L 283 509 Q 282 506 285 507 L 284 511 L 283 510 L 281 513 L 285 512 Q 287 513 286 510 L 288 510 L 288 508 L 292 506 L 288 503 L 288 505 L 287 507 L 286 507 L 287 505 L 284 503 L 283 506 L 280 505 Q 282 501 284 503 L 283 496 L 281 497 L 281 496 Q 280 493 285 494 Q 287 495 287 500 L 291 497 L 296 501 Q 294 503 297 505 L 296 510 L 299 511 L 302 506 L 301 504 L 302 501 L 307 498 Q 310 499 309 504 L 302 506 L 303 509 L 300 518 Q 299 522 305 520 L 307 520 L 310 522 Q 309 524 312 523 L 307 529 L 308 531 L 305 531 L 307 527 L 305 528 L 304 527 L 301 528 L 300 533 L 305 535 L 310 533 Q 309 528 313 526 Q 315 527 314 524 L 318 524 L 317 521 Q 321 522 322 519 Q 323 514 321 513 L 319 517 L 317 518 L 314 522 L 311 522 L 318 513 L 318 507 L 317 507 Q 314 508 315 506 L 319 503 L 327 491 L 327 495 L 328 495 Q 327 491 330 492 L 330 483 L 329 482 L 330 478 L 330 476 L 327 477 Q 325 473 329 474 L 332 473 L 332 470 L 329 465 L 328 470 L 329 471 L 326 465 L 321 467 L 318 466 L 318 468 L 317 463 L 316 466 L 315 460 L 313 459 L 314 461 L 314 464 L 313 463 L 309 462 L 308 465 L 306 463 Q 307 460 304 461 L 304 466 L 303 465 L 303 463 L 302 459 L 300 463 L 299 459 L 298 464 L 297 464 Q 298 461 295 462 L 296 460 L 296 454 Z M 312 456 Q 310 459 313 458 L 312 456 Z M 332 456 L 333 458 Q 334 455 332 456 Z M 251 457 L 245 461 Q 242 460 243 463 L 247 465 L 250 463 L 251 460 L 251 457 Z M 302 457 L 303 459 Q 304 456 302 457 Z M 265 458 L 263 461 L 265 466 L 267 460 L 266 460 L 265 458 Z M 274 458 L 275 460 Q 276 457 274 458 Z M 104 459 L 105 462 L 104 467 L 116 472 L 117 470 L 112 468 L 111 466 L 114 467 L 115 467 L 104 459 Z M 325 460 L 323 462 Q 322 464 325 463 Q 328 462 325 460 Z M 78 461 L 77 465 L 81 470 L 82 470 L 82 467 L 78 461 Z M 83 461 L 82 463 L 86 465 L 83 461 Z M 101 461 L 102 463 L 103 463 L 101 461 Z M 320 461 L 321 463 Q 322 460 320 461 Z M 233 463 L 230 465 L 228 468 L 230 467 L 230 469 L 228 470 L 228 471 L 234 469 L 240 465 L 240 463 L 233 463 Z M 252 464 L 249 467 L 250 469 L 252 468 L 253 470 L 253 468 L 256 464 L 254 465 L 252 464 Z M 333 464 L 334 469 L 335 469 L 334 466 Q 335 463 333 464 Z M 92 467 L 91 468 Q 86 466 87 470 L 90 471 L 91 474 L 99 479 L 102 479 L 100 477 Q 97 478 98 475 L 102 476 L 101 474 Q 98 475 99 472 L 97 472 L 95 470 L 92 467 Z M 258 467 L 256 469 L 257 472 L 258 469 L 258 467 Z M 239 468 L 236 472 L 236 473 L 240 472 L 241 469 L 239 468 Z M 260 468 L 258 471 L 260 470 L 260 468 Z M 104 469 L 103 470 Q 100 469 101 472 L 105 475 L 106 474 L 111 477 L 110 476 L 112 475 L 104 469 Z M 121 469 L 117 474 L 125 478 L 127 477 L 124 476 L 122 473 L 125 472 L 121 469 Z M 19 470 L 16 472 L 16 473 L 19 472 L 19 470 Z M 65 470 L 64 473 L 65 473 L 65 470 Z M 72 470 L 70 472 Q 67 471 68 474 Q 72 475 73 473 Q 74 469 72 470 Z M 132 470 L 132 471 L 134 471 L 132 470 Z M 248 470 L 246 472 L 248 472 L 248 470 Z M 252 470 L 250 472 L 252 472 L 252 470 Z M 217 472 L 214 474 L 217 474 L 216 477 L 217 478 L 223 474 Q 224 470 217 472 Z M 243 472 L 237 475 L 235 475 L 230 478 L 231 476 L 230 473 Q 224 474 221 479 L 223 479 L 225 483 L 228 482 L 229 485 Q 239 483 244 476 L 243 472 Z M 84 473 L 89 479 L 90 479 L 89 477 L 91 477 L 92 477 Q 90 472 84 473 Z M 210 474 L 210 476 L 212 475 L 210 474 Z M 146 475 Q 144 478 147 479 L 148 479 L 146 475 Z M 252 475 L 249 479 Q 251 482 252 479 L 252 475 Z M 334 475 L 333 486 L 334 486 L 334 475 Z M 256 476 L 254 478 Q 252 484 256 483 L 255 480 L 257 477 L 256 476 Z M 112 477 L 113 479 L 115 479 L 112 477 Z M 119 477 L 117 483 Q 119 486 124 486 L 125 483 L 127 484 L 128 484 L 119 477 Z M 91 479 L 92 481 L 93 481 L 91 479 Z M 107 479 L 105 482 L 110 485 L 114 484 L 107 479 Z M 127 479 L 127 481 L 132 483 Q 134 484 133 481 L 127 479 Z M 203 479 L 203 482 Q 201 483 204 484 L 214 481 L 213 479 L 210 480 L 203 479 Z M 248 479 L 245 483 L 248 488 L 248 485 L 248 483 Q 251 484 250 481 L 248 482 L 249 480 L 248 479 Z M 258 479 L 257 482 L 258 482 L 258 479 Z M 98 480 L 96 482 L 97 485 L 100 486 L 103 489 L 102 487 L 103 485 L 102 483 L 98 480 Z M 217 480 L 216 483 L 214 484 L 217 484 L 216 486 L 220 486 L 221 483 L 217 480 Z M 243 480 L 238 484 Q 234 483 235 486 L 233 487 L 235 489 L 239 488 L 241 488 Q 240 483 243 482 L 243 480 Z M 176 482 L 175 484 L 177 483 L 176 482 Z M 94 483 L 93 485 L 95 486 L 94 483 Z M 129 484 L 130 486 Q 131 483 129 484 Z M 245 484 L 244 487 L 245 487 L 245 484 Z M 13 485 Q 11 488 10 486 L 8 491 L 13 489 L 14 486 L 13 485 Z M 134 485 L 133 487 L 141 491 L 141 490 L 134 485 Z M 263 485 L 261 487 L 262 489 L 263 487 L 263 485 Z M 17 486 L 15 490 L 12 492 L 12 493 L 15 495 L 17 495 L 18 498 L 19 496 Q 20 492 17 493 L 17 486 Z M 196 486 L 196 488 L 206 488 L 207 489 Q 210 488 207 486 L 204 487 L 196 486 Z M 112 487 L 111 489 L 117 493 L 117 490 L 120 490 Q 119 487 118 489 Q 113 490 112 487 Z M 226 487 L 225 490 L 220 491 L 220 492 Q 222 491 221 494 L 228 493 L 226 487 Z M 251 487 Q 249 490 252 489 L 251 487 Z M 122 488 L 123 490 L 128 492 L 131 490 L 134 491 L 134 489 L 122 488 Z M 158 488 L 156 490 L 158 490 L 158 488 Z M 244 488 L 241 490 Q 243 493 244 490 L 244 488 Z M 213 489 Q 212 492 207 491 L 205 494 L 207 493 L 213 493 Q 212 490 215 491 Q 216 488 213 489 Z M 259 489 L 256 494 L 259 492 L 259 489 Z M 152 490 L 151 493 L 153 493 L 152 490 Z M 156 490 L 154 492 L 156 492 L 156 490 Z M 236 490 L 230 495 Q 226 494 227 497 Q 234 496 238 492 Q 239 489 236 490 Z M 245 490 L 243 493 L 245 494 L 245 490 Z M 103 491 L 106 494 L 107 494 L 103 491 Z M 111 491 L 110 493 Q 112 497 119 498 L 121 498 L 126 500 L 126 498 Q 117 497 111 491 Z M 192 491 L 190 492 L 190 493 Q 193 492 191 496 L 199 496 L 198 492 L 200 492 L 192 491 Z M 254 491 Q 251 504 242 511 Q 242 520 247 525 Q 250 526 249 523 L 245 520 L 248 519 L 246 518 L 243 513 L 244 511 L 245 513 L 247 512 L 246 511 Q 243 510 246 508 L 249 509 L 248 508 L 250 508 Q 249 503 252 504 Q 251 498 256 497 L 254 496 L 254 491 Z M 123 492 L 120 494 L 120 495 L 123 494 L 123 492 Z M 130 492 L 132 494 L 133 494 L 130 492 Z M 135 492 Q 136 496 142 498 L 143 495 L 145 496 Q 149 497 148 494 L 146 495 L 139 492 L 135 492 Z M 333 493 L 330 497 L 332 509 L 332 500 L 333 499 L 333 493 Z M 126 494 L 130 499 L 133 497 L 126 494 Z M 213 494 L 211 496 Q 204 495 205 498 Q 207 496 209 499 L 215 498 L 213 494 Z M 236 495 Q 235 498 238 497 Q 239 494 236 495 Z M 153 496 L 151 498 L 153 498 L 153 496 Z M 134 497 L 136 499 L 137 499 L 134 497 Z M 222 497 L 220 499 L 215 500 L 215 501 L 220 500 Q 225 502 224 499 L 222 497 Z M 241 497 L 235 500 L 232 500 L 229 504 L 230 507 L 234 510 Q 233 513 236 512 Q 238 511 236 510 Q 237 507 235 508 Q 232 507 232 504 L 235 501 L 239 501 L 243 498 L 242 501 Q 239 500 240 503 L 244 501 Q 246 495 241 497 Z M 17 498 L 14 503 L 15 505 L 17 500 L 17 498 Z M 168 498 L 168 500 L 170 499 L 168 498 Z M 326 498 L 324 501 L 326 501 L 326 498 Z M 179 499 L 179 502 L 181 501 L 179 499 Z M 199 499 Q 197 502 200 501 L 199 499 Z M 259 499 L 258 500 L 255 502 L 256 504 L 259 503 L 260 504 L 259 504 L 257 507 L 260 507 Q 262 508 261 506 L 262 506 L 261 512 L 258 517 L 260 519 L 263 513 L 264 515 L 264 510 L 267 508 L 268 513 L 267 517 L 268 520 L 270 517 L 270 513 L 267 505 L 262 501 L 259 499 Z M 128 502 L 128 503 L 133 503 L 128 502 Z M 327 502 L 323 507 L 324 510 L 328 509 L 327 502 Z M 154 503 L 153 505 L 157 504 L 154 503 Z M 223 503 Q 222 507 218 506 L 216 506 L 212 509 L 201 510 L 193 515 L 180 515 L 179 514 Q 174 515 175 513 L 173 514 Q 163 516 160 511 L 155 513 L 153 512 L 147 513 L 147 511 L 144 512 L 142 512 L 143 514 Q 144 521 141 525 L 134 532 L 124 535 Q 118 536 116 534 L 116 540 L 112 546 L 123 546 L 124 547 L 126 546 L 167 546 L 164 540 Q 164 531 170 528 Q 172 529 171 526 L 177 525 Q 178 528 174 527 L 171 531 L 179 528 Q 182 527 181 530 Q 174 530 171 534 L 172 539 L 171 541 Q 168 540 169 537 L 167 536 L 168 541 L 175 546 L 179 545 L 180 539 L 184 536 L 193 537 L 197 540 L 201 538 L 204 539 L 196 542 L 191 539 L 189 540 Q 188 537 184 538 L 181 541 L 180 546 L 183 546 L 186 542 Q 192 541 195 544 Q 197 543 196 546 L 265 546 L 266 545 L 268 546 L 291 546 Q 288 544 289 541 L 284 543 L 277 538 L 275 539 L 270 538 Q 266 537 265 540 L 267 540 L 269 540 L 276 542 Q 278 541 277 544 L 270 542 L 266 542 L 258 545 L 252 544 L 246 541 L 247 536 L 249 540 Q 252 539 254 542 L 262 542 L 255 541 L 257 538 L 260 539 L 265 538 L 263 534 L 256 534 L 255 531 L 254 531 L 254 533 L 254 534 L 252 533 L 250 531 L 243 527 L 239 521 L 239 510 L 236 514 L 235 520 L 232 521 L 233 519 L 233 514 L 231 518 Q 226 519 226 516 Q 223 517 224 515 L 221 513 L 219 511 L 216 514 L 215 513 L 211 514 L 203 522 L 204 531 L 201 532 L 198 534 L 199 531 L 198 528 L 194 530 L 195 533 L 193 534 L 191 531 L 186 528 L 186 530 L 186 532 Q 189 531 188 534 Q 178 532 175 538 L 177 543 L 176 545 Q 172 543 173 537 L 178 533 L 184 532 L 183 529 Q 185 527 183 526 Q 177 528 178 524 L 189 526 L 192 529 Q 193 525 199 526 L 200 521 L 208 513 Q 210 510 216 511 L 218 509 Q 224 508 226 512 Q 228 511 227 515 L 230 513 L 226 507 Q 228 501 223 503 Z M 235 503 L 235 505 L 238 506 Q 240 502 235 503 Z M 172 504 L 170 506 L 172 506 L 172 504 Z M 183 504 Q 181 507 184 506 L 183 504 Z M 198 504 L 198 505 L 200 505 L 198 504 Z M 253 504 L 253 506 L 253 508 Q 250 507 251 510 L 248 512 Q 247 514 250 513 L 251 516 L 255 513 L 256 511 L 254 510 L 256 507 L 255 506 L 255 505 L 253 504 Z M 241 505 L 238 507 L 240 509 L 242 506 L 241 505 Z M 146 506 L 146 507 L 148 507 L 146 506 Z M 173 508 L 174 510 Q 175 507 173 508 Z M 180 508 L 181 510 L 182 510 L 180 508 Z M 259 508 L 258 511 L 258 512 L 260 511 L 259 508 Z M 292 508 L 290 509 L 290 511 L 286 517 L 285 515 L 284 517 L 283 516 Q 285 514 283 513 L 280 517 L 281 519 L 287 522 L 290 521 L 291 523 L 291 521 L 294 522 L 298 519 L 296 513 Q 293 514 294 511 L 292 511 L 293 515 L 290 515 L 292 511 L 292 508 Z M 195 510 Q 193 513 196 512 L 195 510 Z M 334 510 L 333 520 L 331 522 L 333 527 L 334 527 L 334 510 Z M 330 511 L 326 515 Q 326 520 323 522 L 326 523 L 328 522 L 330 519 L 330 511 Z M 265 515 L 264 516 L 262 516 L 262 520 L 260 520 Q 262 528 257 532 L 260 532 Q 263 531 262 527 L 261 524 L 264 521 L 265 517 L 265 515 Z M 254 519 Q 252 522 255 521 L 254 519 Z M 13 520 L 9 524 L 8 528 L 9 530 L 11 528 L 13 522 L 13 520 Z M 29 521 Q 28 524 31 523 Q 32 520 29 521 Z M 255 522 L 256 526 L 257 524 Q 258 521 255 522 Z M 322 522 L 318 524 L 317 528 L 323 523 L 322 522 Z M 23 523 Q 22 526 25 525 Q 26 522 23 523 Z M 292 523 Q 290 526 293 525 L 292 523 Z M 308 523 L 308 524 L 310 524 L 308 523 Z M 287 524 L 285 528 L 287 532 L 287 531 L 288 531 L 287 533 L 292 534 L 291 533 L 294 531 L 293 534 L 299 533 L 300 531 L 299 529 L 297 527 L 297 529 L 296 532 L 295 532 L 296 528 L 294 527 L 292 528 L 290 528 L 290 524 L 287 524 Z M 325 525 L 324 527 L 319 531 L 316 531 Q 314 529 313 532 Q 312 534 315 533 L 316 535 L 317 532 Q 320 533 322 530 L 324 532 L 324 534 L 319 540 L 320 541 L 328 541 L 328 539 L 323 540 Q 322 537 327 538 L 329 535 L 328 532 L 329 530 L 330 532 L 330 527 L 329 527 L 325 525 Z M 14 526 L 11 531 Q 11 540 17 543 L 18 543 L 14 538 Q 13 530 16 528 L 14 526 Z M 28 527 Q 27 530 31 529 Q 32 526 28 527 Z M 253 527 L 253 529 L 257 531 L 255 529 Q 256 526 253 527 Z M 257 527 L 257 529 L 259 528 L 257 527 Z M 19 528 L 15 532 L 18 538 Q 17 541 20 540 L 23 544 Q 29 542 28 546 L 40 543 L 41 541 L 37 534 L 33 535 L 33 532 L 32 534 L 28 532 L 28 534 L 27 531 L 26 534 Q 23 535 24 533 L 25 531 L 23 532 L 22 530 L 20 531 L 19 528 Z M 39 528 L 37 531 Q 40 535 47 534 L 46 531 L 44 532 Q 41 533 42 531 L 41 531 Q 38 530 40 529 L 39 528 Z M 282 528 L 281 534 L 279 534 L 279 536 L 281 535 L 280 537 L 285 539 L 286 536 L 284 537 L 284 536 L 282 528 Z M 51 531 L 49 532 L 49 533 L 52 532 L 51 531 Z M 334 531 L 331 537 L 334 535 L 334 531 Z M 303 536 L 296 537 L 298 542 L 298 538 L 303 541 L 308 541 L 309 539 Q 304 540 305 538 L 304 538 L 303 536 Z M 311 536 L 309 539 L 312 539 L 311 536 Z M 43 537 L 42 543 L 39 544 Q 38 547 46 546 L 48 546 L 52 546 Q 48 544 48 539 Q 47 536 43 537 Z M 290 538 L 290 541 L 294 544 L 292 540 Q 293 537 290 538 Z M 73 540 L 69 546 L 76 546 L 77 545 L 78 546 L 84 546 L 82 540 L 79 541 Q 74 542 73 540 Z M 314 540 L 312 542 L 314 542 L 314 540 Z M 10 541 Q 7 548 12 546 L 10 541 Z M 332 541 L 332 543 L 325 546 Q 326 548 328 546 L 333 547 L 334 545 Q 335 540 332 541 Z M 310 542 L 310 543 L 312 543 L 310 542 Z M 301 543 L 301 546 L 305 545 L 301 543 Z M 316 543 L 312 546 L 319 547 L 322 546 L 316 543 Z M 186 544 L 186 546 L 191 546 L 191 544 L 186 544 Z "></path><path d="M 296 6 L 335.5 6 L 337 7.5 L 336.5 53 L 334 51.5 L 337 55.5 L 337 87.5 L 336 91.5 L 337 96.5 L 336 103 L 334 103 L 334 98 L 330.5 98 L 327.5 100 L 324.5 99 L 321.5 100 Q 320.3 97.7 315.5 99 L 313.5 100 L 312 99.5 Q 311.3 101.8 313.5 101 L 320 104 L 322 111.5 L 319 119 L 315.5 121 L 315 119.5 Q 319.9 117.9 319 110.5 L 316.5 106 L 308 101.5 L 310.5 98 L 320.5 97 Q 322 99.5 327.5 98 L 334 96 L 335 90.5 L 333.5 90 L 331.5 92 L 318.5 94 L 316.5 94 L 309.5 93 L 305.5 94 L 302 97.5 L 303 104 Q 305.7 102.9 305 105.5 Q 303.5 108.5 302 105.5 L 302 104 L 300 103.5 L 300 97.5 L 307.5 92 L 326.5 91 L 334 86.5 L 333.5 83 L 325.5 87 L 309.5 87 L 308.5 88 L 306.5 87 L 300.5 89 L 295 93 L 293 101.5 L 298.5 110 L 305.5 112 L 310 110 L 307.5 114 L 302.5 115 L 293 108.5 Q 288.9 105.6 290 97.5 L 296.5 87 L 304.5 83 L 309.5 83 L 316.5 85 L 327.5 85 L 334 80.5 Q 332.3 74.3 335 72.5 L 334 71.5 L 334 63.5 L 335 61 Q 331.7 59.7 333 64.5 Q 327.7 70.5 319 72 Q 320.1 74.7 317.5 74 Q 313.2 78.2 304.5 78 L 294.5 73 L 292.5 73 L 289 71.5 L 286.5 68 L 282 65.5 L 279 60 L 273.5 57 L 255.5 56 Q 255 52.5 250.5 53 Q 247.3 54.2 248 58 Q 245.3 59.1 246 56.5 L 245 54.5 L 249.5 48 L 250 50 Q 253.8 51 255 48.5 L 255 46.5 L 254 43.5 L 257.5 36 Q 260.1 35.3 259 38 Q 255.7 36.7 257 41.5 L 256 43.5 L 257 45.5 L 256 48 L 258.5 47 L 259.5 49 L 269.5 45 L 271.5 45 Q 274.8 46.1 274 43.5 L 272 40.5 L 272.5 39 Q 269.5 39.7 271 36 L 276 38.5 L 275 44 L 280.5 44 L 281 42.5 L 282 42.5 Q 281.3 45.1 284 44 L 284 47 L 278.5 50 L 276.5 50 L 263.5 52 L 261 53.5 Q 277.5 52.5 283.5 62 L 284 60.5 L 277.5 54 L 274 54 Q 272.6 50.3 278.5 52 L 283 55.5 L 285.5 59 Q 287.8 58.3 287 60.5 L 290 67 Q 293.3 68.3 292 63.5 L 286.5 56 L 284 54.5 Q 283.3 52.3 285.5 53 L 292 58.5 L 297.5 67 L 301 68.5 Q 300.3 70.8 302.5 70 L 305.5 72 L 306 69 L 300 65.5 L 301 63.5 L 295 58.5 Q 294.2 55.5 298 57 L 301.5 62 L 302 60.5 Q 297.8 57.6 297 52 L 288 50 Q 286.7 46.7 291.5 48 L 300 52.5 L 307.5 63 L 312.5 64 L 314.5 63 L 319 64 L 317.5 61 L 310.5 56 L 310 57.5 L 312 60.5 Q 310.5 63.5 309 60.5 L 304 54.5 L 304 52 L 309.5 56 L 310 54 Q 316.3 55 319.5 60 L 323.5 60 L 327 57.5 L 325.5 55 L 314.5 54 L 313 52.5 Q 311.9 49.2 314.5 50 L 319.5 53 L 321.5 52 Q 323 54.5 328.5 53 L 330.5 50 L 326.5 51 Q 325 48.5 319.5 50 L 315 46.5 Q 314 42.8 317 44 L 318.5 47 L 333 48 L 331.5 45 L 324.5 46 Q 314.9 44.1 311 36.5 L 309.5 34 L 306 33.5 Q 308.2 32.3 305.5 31 L 302.5 31 L 292 24.5 L 295.5 24 L 304.5 28 L 304 26.5 Q 304.8 24.3 302.5 25 L 290 19.5 L 293 18.5 L 288 17.5 Q 289.4 14.8 294 16 L 293 19.5 L 295.5 20 L 297.5 20 L 302.5 21 L 308.5 19 L 312.5 20 L 322 26 Q 323.1 28.7 320.5 28 L 313.5 23 L 306.5 22 L 305.5 24 L 308.5 23 Q 318.2 26.3 323.5 34 L 326.5 30 L 328 32.5 L 328 34.5 Q 329.7 42.3 334.5 47 L 335 43.5 L 334 42.5 L 334 26.5 L 332 23.5 L 333 23.5 L 333.5 25 L 334 21.5 L 329 14 L 326 12.5 L 327.5 12 L 331 14.5 Q 330.3 16.8 332.5 16 L 334 16.5 L 333 11.5 L 334 8 L 314.5 8 L 312.5 7 L 309.5 8 L 307.5 8 L 296.5 8 L 296 6 Z M 307 25 Q 304 30 309 28 L 307 32 L 313 34 L 312 33 Q 313 30 310 31 L 310 29 L 314 30 L 315 33 L 327 40 L 327 37 L 321 35 L 319 32 L 307 25 Z M 316 36 Q 314 39 317 38 L 316 36 Z M 320 40 Q 320 43 325 44 L 329 43 L 320 40 Z M 258 52 Q 257 55 260 54 Q 261 51 258 52 Z M 331 54 L 331 60 L 334 55 L 331 54 Z M 302 63 L 302 65 L 308 68 L 308 65 L 302 63 Z M 329 63 L 324 64 L 322 66 L 314 66 L 313 65 L 312 67 L 317 68 L 318 68 Q 319 70 312 69 L 313 71 L 319 71 L 330 66 Q 331 62 329 63 Z M 293 69 L 292 71 L 294 72 L 293 69 Z M 298 69 L 298 73 L 304 76 Q 312 78 315 74 L 310 72 L 306 74 Q 300 73 298 69 Z M 253 75 L 258 84 L 263 85 L 264 86 Q 263 82 267 84 L 267 83 L 265 80 L 253 75 Z M 260 86 L 259 88 Q 263 89 263 95 L 265 94 L 267 95 L 269 99 L 270 99 L 269 94 L 260 86 Z M 254 87 L 260 94 L 260 93 L 254 87 Z M 249 88 Q 247 91 251 93 L 251 96 L 257 101 L 259 100 L 258 97 L 249 88 Z M 273 93 L 273 101 L 274 101 Q 273 97 276 98 L 277 99 L 273 93 Z M 264 96 L 262 98 L 267 109 L 269 110 L 268 105 Q 271 104 270 107 L 271 107 L 268 100 L 264 96 Z M 249 98 L 247 102 L 251 107 L 251 104 Q 254 103 253 106 L 255 107 Q 254 100 249 98 Z M 258 103 L 260 112 L 261 112 Q 260 108 263 109 L 261 107 Q 263 101 258 103 Z M 276 107 L 274 111 L 275 116 L 278 118 L 276 115 Q 275 111 278 112 L 279 115 L 281 115 L 276 107 Z M 262 112 Q 260 115 263 114 L 262 112 Z M 263 114 Q 262 117 265 116 Q 266 113 263 114 Z "></path><path d="M 143.5 11 L 146.5 12 L 148.5 12 L 150.5 11 Q 152 13.5 157.5 12 L 159.5 11 L 160.5 12 L 189.5 12 Q 190.8 9.8 192 12.5 Q 190.6 15.3 186 14 L 186 27.5 L 187.5 29 L 192 29.5 Q 190.8 32.3 189.5 30 L 184.5 31 L 179.5 30 L 177.5 30 L 171.5 31 L 170.5 30 L 162.5 30 L 160.5 30 L 157.5 31 L 156.5 30 L 143 30 Q 141.8 27 145.5 28 L 148.5 29 L 150 27.5 L 155 20.5 L 150.5 14 L 146.5 13 L 143.5 14 Q 140.5 12.5 143.5 11 Z M 159 13 L 155 14 L 156 18 L 159 16 L 159 13 Z M 162 14 L 158 20 L 158 22 L 162 27 Q 161 30 164 29 L 170 21 L 167 16 Q 166 13 162 14 Z M 170 14 L 173 18 L 175 15 L 170 14 Z M 180 14 L 173 21 Q 174 27 180 29 L 182 28 L 182 15 L 180 14 Z M 155 23 L 153 28 L 159 28 L 157 25 Q 158 22 155 23 Z M 171 24 L 168 27 L 168 29 L 174 29 L 173 26 L 171 24 Z "></path><path d="M 323.5 11 Q 325.8 10.3 325 12.5 L 323.5 11 Z "></path><path d="M 49.5 12 L 56 12.5 L 49.5 13 L 49.5 12 Z "></path><path d="M 65.5 12 Q 73.3 10.3 75 14.5 Q 75.7 17.1 73 16 L 71.5 13 L 64.5 14 L 65.5 12 Z "></path><path d="M 80.5 13 Q 94.7 11.8 99 20.5 L 99 27.5 L 97 28 L 98 21.5 L 96 18 L 88.5 14 L 81.5 14 L 79.5 15 L 80.5 13 Z "></path><path d="M 281 16 L 283.5 17 L 285 16.5 L 285 18 L 281 18 L 281 16 Z "></path><path d="M 298.5 16 L 306 17 L 305.5 19 L 298.5 19 Q 295.5 17.5 298.5 16 Z "></path><path d="M 308 16 L 310 16.5 L 308 17.5 L 308 16 Z "></path><path d="M 327.5 16 L 328 18.5 L 327 18.5 L 327.5 16 Z "></path><path d="M 54.5 17 Q 58.3 16 57 19 L 53 18.5 L 54.5 17 Z "></path><path d="M 62.5 18 L 65 19 L 66 21.5 L 64.5 22 Q 60.9 20.9 62.5 18 Z "></path><path d="M 89.5 18 L 93 20 Q 95.6 22.3 95 28.5 Q 93.8 34.3 89.5 37 L 88 36.5 L 94 26.5 L 89.5 18 Z "></path><path d="M 270.5 18 Q 275.3 16.7 274 20 L 269.5 22 Q 266 20 270.5 18 Z "></path><path d="M 264.5 19 Q 266.8 18.3 266 20.5 L 267 24.5 L 263.5 28 L 261.5 26 Q 258.9 26.8 260 23.5 L 261 21 L 264.5 19 Z M 266 21 L 264 24 L 266 23 L 266 21 Z "></path><path d="M 329 19 Q 331.7 17.9 331 20.5 L 331.5 22 L 329 20.5 L 329 19 Z "></path><path d="M 244.5 20 Q 250.3 18.3 249 22 L 244.5 22 L 241 24 L 240 31 Q 237.3 32.1 238 29.5 L 237 27.5 L 240.5 22 L 244.5 20 Z "></path><path d="M 275.5 20 L 279 20.5 L 272.5 23 L 273.5 21 L 275.5 20 Z "></path><path d="M 56.5 22 L 62 26.5 L 63 30.5 L 62 33 Q 66 34.4 64 27.5 L 66 27.5 L 64 23.5 L 69 27.5 L 70 33.5 L 68 37.5 Q 70.5 39 69 44.5 L 73 52.5 L 74 59 Q 71.3 60.1 72 57.5 Q 74.5 56 71 54.5 L 66.5 46 L 64.5 51 L 63 48 L 60 48 Q 61.1 45.3 58.5 46 L 58.5 45 Q 65.5 46.5 65 43.5 L 64 41 Q 61.3 39.9 62 42.5 L 59.5 44 L 58.5 43 L 54.5 47 L 50 50.5 Q 51.9 55.9 48.5 55 L 46.5 56 Q 42.3 55.3 43 49.5 L 46.5 45 L 57 38.5 L 55 37.5 L 58 34.5 L 60 26.5 L 56.5 22 Z M 67 28 L 66 33 L 67 33 L 67 28 Z M 66 33 L 60 40 L 61 41 L 65 39 L 66 40 L 65 37 L 66 35 L 66 33 Z M 55 42 L 46 49 Q 45 53 48 54 L 49 50 L 51 47 L 56 43 L 55 42 Z M 67 43 L 68 45 Q 69 42 67 43 Z "></path><path d="M 282.5 22 L 283.5 24 L 280.5 25 L 279.5 23 L 282.5 22 Z "></path><path d="M 288 22 Q 291 21 290 24 Q 287 25 288 22 Z "></path><path d="M 280.5 26 Q 283.8 24.9 283 27.5 L 281.5 27 L 280.5 26 Z "></path><path d="M 292.5 27 L 296 28.5 L 294.5 29 L 292.5 27 Z "></path><path d="M 274.5 30 L 279.5 31 Q 281.3 28.2 287.5 30 L 288 32.5 L 284.5 39 Q 279 39.5 277 36.5 L 274 31.5 L 274.5 30 Z M 283 32 L 283 34 L 281 35 L 281 36 Q 284 37 285 35 Q 286 31 283 32 Z "></path><path d="M 96.5 32 L 97 33.5 L 96 36 L 94 35.5 L 96.5 32 Z "></path><path d="M 296 32 L 303 34.5 Q 301.8 37.3 300.5 35 L 296.5 34 L 294 35.5 L 294.5 33 L 296 33.5 L 296 32 Z "></path><path d="M 52 36 Q 55 35 54 38 Q 51 39 52 36 Z "></path><path d="M 303 36 L 308 38 L 314 45.5 L 312.5 47 L 303 37.5 L 303 36 Z "></path><path d="M 297.5 38 L 300.5 38 L 309.5 47 L 311 47 L 310.5 51 L 305.5 45 L 301.5 42 L 299 42 L 297.5 38 Z "></path><path d="M 234 39 L 237 40.5 L 233.5 44 L 225.5 44 L 224 45.5 L 223.5 48 L 222 45.5 L 225.5 42 L 234 42 L 234 39 Z "></path><path d="M 260.5 39 L 262 39.5 L 259 41 L 258.5 43 L 258 41.5 L 260.5 39 Z "></path><path d="M 250.5 40 L 252 40.5 L 251 43 L 247 44.5 L 246 47.5 L 246.5 49 Q 243.5 48.1 245 52.5 L 243 53.5 L 243 51.5 Q 243.8 49.3 241.5 50 L 243 47.5 L 245 44.5 L 250.5 40 Z "></path><path d="M 296.5 40 L 298 42.5 L 296 41.5 L 296.5 40 Z "></path><path d="M 14.5 41 L 15 45.5 L 15 47.5 Q 16.3 52.3 13 51 Q 11.9 44.6 14.5 41 Z "></path><path d="M 260.5 43 L 261 44.5 L 259 45.5 L 260.5 43 Z "></path><path d="M 265.5 43 L 266 45 L 264 44.5 L 265.5 43 Z "></path><path d="M 292 43 Q 295.8 42.3 297 45.5 Q 297.8 47.8 295.5 47 L 292 45 L 292 43 Z "></path><path d="M 92 44 Q 94.7 42.9 94 45.5 L 95 48 Q 98.2 50.6 105.5 50 Q 107.1 45.1 114.5 46 L 115.5 48 L 110.5 47 Q 108.7 52.8 99.5 51 L 93 47.5 L 92 44 Z "></path><path d="M 22.5 46 L 23 47.5 L 21 48.5 L 22.5 46 Z "></path><path d="M 227.5 46 Q 229.8 45.3 229 47.5 L 229 49.5 Q 228.3 52.1 231 51 L 231 53 L 226 49.5 L 227.5 46 Z "></path><path d="M 300 47 L 304 48 Q 305.3 51 301.5 50 L 300 47 Z "></path><path d="M 56 50 L 58 50.5 L 56 51.5 L 56 50 Z "></path><path d="M 29.5 52 L 30 53.5 L 27 58 Q 23.7 59.3 25 54.5 Q 27.2 56.2 29.5 52 Z "></path><path d="M 41.5 52 L 42 53.5 L 40.5 60 L 39 55.5 L 41.5 52 Z "></path><path d="M 291 52 L 295 53 Q 296.3 56 292.5 55 L 291 52 Z "></path><path d="M 21 54 Q 25 52.6 23 59.5 L 22 59.5 L 21 54 Z "></path><path d="M 52.5 56 L 53 57.5 L 51 58.5 L 52.5 56 Z "></path><path d="M 57.5 56 L 57 57.5 L 56.5 59 L 56 57.5 L 57.5 56 Z "></path><path d="M 47 58 Q 49.7 56.9 49 59.5 L 51 61.5 L 53 72.5 L 54.5 74 L 61.5 76 L 67.5 76 L 69 72.5 L 68 71.5 L 68 65 Q 63.8 64 62.5 67 L 62 64 L 68 63 L 67 59 L 71 59 L 71 60.5 L 69 63.5 Q 73 65.5 69 67.5 L 71 74.5 L 70 77 L 64.5 78 L 63.5 77 L 54.5 77 L 51 79.5 L 47.5 85 L 40.5 89 L 35 89 Q 33.9 85.5 41.5 87 L 45 85 L 49.5 77 L 51 77.5 L 49 70.5 L 50 68.5 L 49 65 Q 46.3 66.1 47 63.5 L 49 63.5 L 47 58 Z "></path><path d="M 20.5 59 L 20 60.5 L 19.5 62 L 19 60.5 L 20.5 59 Z "></path><path d="M 28 59 Q 31 58 30 61 Q 27 62 28 59 Z "></path><path d="M 44.5 62 L 44 63.5 Q 44.8 65.8 42.5 65 L 44.5 62 Z "></path><path d="M 26.5 64 L 30 67.5 L 28.5 69 L 26.5 64 Z "></path><path d="M 43.5 66 L 44 69.5 L 43 69.5 L 43.5 66 Z "></path><path d="M 32.5 73 L 33 76 Q 30.3 77.1 31 74.5 L 32.5 73 Z "></path><path d="M 12.5 91 L 14 94.5 L 12 93.5 L 12.5 91 Z "></path><path d="M 19.5 91 L 19 92.5 Q 18.4 97.1 21 98.5 L 19.5 99 L 17 94.5 L 19.5 91 Z "></path><path d="M 40.5 92 L 43 93.5 Q 45.9 97.1 45 104.5 L 40.5 112 L 40 110.5 Q 44.1 107.6 43 99.5 L 40.5 92 Z "></path><path d="M 25.5 93 L 31 95.5 L 29.5 96 L 26.5 94 L 24 95 L 25 98.5 L 22 99 Q 21.3 94.3 25.5 93 Z "></path><path d="M 36.5 94 Q 39.5 95.5 38 101.5 L 37 101.5 L 36.5 94 Z "></path><path d="M 32.5 97 Q 34.8 96.3 34 98.5 L 35 100.5 L 31.5 106 L 32 104.5 L 34 100.5 L 32.5 97 Z "></path><path d="M 71.5 98 Q 73.8 97.3 73 99.5 L 69.5 104 Q 66.8 102.7 69 101.5 L 71.5 98 Z "></path><path d="M 83.5 99 Q 85.8 98.3 85 100.5 L 81.5 106 L 80 103.5 L 83.5 99 Z "></path><path d="M 11.5 102 L 14 103 Q 12.9 105.7 15.5 105 Q 17.7 108.7 24.5 108 L 29.5 106 L 28.5 108 L 22.5 109 L 21 110.5 L 25.5 111 L 34 108 L 35.5 105 L 36 107.5 L 31.5 111 L 24.5 113 L 23 112.5 Q 23.7 115.1 21 114 Q 22.3 111 18.5 112 L 11 107.5 L 12.5 107 L 16.5 110 L 17 108.5 L 12 105 L 11.5 102 Z "></path><path d="M 39.5 102 L 41 104.5 L 35.5 113 L 34 112.5 Q 38.8 109.3 39.5 102 Z "></path><path d="M 283 105 L 290 110.5 L 291 113.5 L 289.5 113 Q 287.3 113.8 288 111.5 L 283 105 Z "></path><path d="M 307.5 105 L 310 105.5 Q 307.9 108.8 307.5 105 Z "></path><path d="M 11.5 113 L 18 115.5 L 13.5 116 L 11.5 113 Z "></path><path d="M 34.5 115 L 36.5 115 L 39 115.5 L 37.5 117 L 31.5 117 L 20 121 L 15.5 128 L 16 126.5 L 20.5 120 L 34.5 115 Z "></path><path d="M 40 115 L 45 117.5 L 43.5 118 L 40 117 L 40 115 Z "></path><path d="M 293.5 116 Q 298.1 123.4 310.5 123 L 314 122 Q 315.3 125 311.5 124 L 303.5 126 L 293 119 L 293.5 116 Z "></path><path d="M 12.5 118 L 16 118.5 L 12.5 119 L 12.5 118 Z "></path><path d="M 35.5 118 Q 36.8 120.2 41.5 119 L 43 120.5 L 41.5 121 L 40.5 120 L 32.5 120 L 30.5 121 L 31.5 119 L 35.5 118 Z "></path><path d="M 27.5 121 L 29 121.5 L 21 127.5 L 20 135 Q 17 136.3 18 132.5 L 21 125 L 27.5 121 Z "></path><path d="M 324.5 122 L 324 123.5 L 323 127 Q 320.3 125.9 321 128.5 L 320 131 Q 315.8 135 306.5 135 Q 298.8 133.2 295 127.5 L 295.5 125 L 298.5 129 L 305.5 132 L 307.5 132 Q 316.5 132.5 320 127.5 L 324.5 122 Z "></path><path d="M 29.5 123 L 32 123.5 L 26 127.5 L 25 134.5 L 27 139 Q 24 140.3 25 136.5 Q 22.2 135.8 23 131.5 L 25 126 L 29.5 123 Z "></path><path d="M 30.5 129 L 32 141.5 L 28.5 147 L 20.5 152 L 13.5 152 L 10 149.5 L 10.5 148 L 14.5 150 Q 16 146.5 17.5 149 L 21.5 149 L 28 146 L 30 139.5 L 28 132.5 L 30.5 129 Z "></path><path d="M 331.5 129 L 333 129.5 L 331 130 L 327 138.5 L 322.5 143 L 317.5 144 L 317.5 143 L 323 140.5 L 328 131 L 331.5 129 Z "></path><path d="M 163.5 131 L 170.5 133 L 175.5 131 L 183.5 136 L 186.5 136 L 193 142.5 L 194 146.5 L 194 148.5 L 195 151.5 L 194 153.5 L 195 155.5 L 194 157.5 L 196 161.5 L 194.5 166 L 193.5 164 L 193 166.5 Q 195.5 168 192 169.5 L 190 174 L 193.5 175 L 196.5 172 L 197.5 173 Q 202.5 172.5 203 176.5 Q 205.4 183.6 211 187.5 Q 210.4 192.9 212 195 Q 214.7 193.9 214 196.5 L 216 200.5 L 217 215.5 L 224 237.5 Q 232.1 247.4 237 260.5 L 246.5 272 L 252.5 271 L 256 272 Q 253.4 268.8 254 261.5 L 252 258.5 L 250 245.5 L 247 239.5 L 247 233.5 L 251.5 228 L 258 238.5 L 260 259.5 L 263 267.5 L 263 271.5 L 266.5 275 L 273 279.5 L 274 281.5 L 273 284 L 269 284.5 L 270 288.5 L 266 291.5 L 269 303.5 L 269 305.5 L 272 319.5 L 272 321.5 Q 274.6 322.9 274 327.5 L 270.5 334 L 263 327.5 L 263 315.5 L 261 308.5 L 261 302.5 L 258 287.5 L 256.5 286 L 244.5 284 L 231 277 L 226.5 271 Q 224.3 271.8 225 269.5 L 222 268 L 211.5 251 L 210 257.5 L 210 267.5 Q 206.9 272.9 207 281.5 L 209 284.5 L 210 292.5 L 214 303.5 L 220 315.5 L 225.5 321 L 240 333.5 L 244 345.5 Q 241.5 347 245 348.5 Q 250.7 355.3 250 368.5 L 243 388.5 L 233.5 400 L 230 401 Q 231 404 228 403 L 228 405.5 Q 220 414.8 207 418 L 209 436.5 L 217 452.5 L 215.5 454 L 208.5 455 L 206.5 454 L 204.5 455 L 198.5 453 L 196 450.5 L 190 433.5 L 190 430 L 181.5 432 L 166 432 L 167 434.5 Q 164.3 435.6 165 439 L 159.5 441 L 145.5 441 L 143.5 442 L 141.5 442 L 138 444.5 L 141.5 446 L 149.5 443 L 157.5 443 L 163 445.5 L 162 449 L 165.5 447 L 167 450 L 172.5 453 Q 174 450.5 175.5 454 Q 177.8 453.3 177 455.5 L 174.5 459 L 177.5 458 L 180 459 L 179.5 461 L 170.5 461 L 167.5 462 L 164 456 L 159.5 456 L 152.5 459 L 146.5 459 L 141 456 Q 142 453 139 454 Q 137.5 457.8 140.5 457 L 141.5 459 L 138 456.5 Q 139.3 452.8 135.5 454 L 133.5 453 L 131.5 453 L 125 452 L 122 443 L 116 439.5 L 117 435 L 125.5 431 L 138.5 431 L 139.5 430 L 143 431 Q 144.7 426.9 140.5 428 L 139 424 Q 145.5 418.9 157 419 L 158.5 416 L 161.5 414 L 174.5 414 L 189 407 L 189 403.5 L 184 392.5 L 183 377.5 L 181.5 376 L 161.5 385 L 158 388.5 Q 156.7 396.7 152 401.5 L 154 409.5 L 150.5 411 L 145 402.5 L 145 398.5 L 146 397.5 L 146 389.5 Q 142.4 386.6 144 378.5 Q 145.8 375.3 150.5 375 L 152.5 376 L 162 371 L 168.5 363 L 176.5 357 L 179 357 L 179 354.5 L 171 342.5 Q 167.9 336.9 169 328 L 167 328.5 L 167 335.5 L 169 341.5 L 167.5 342 L 165 337.5 L 165 324 L 167 323.5 L 166 321 Q 163 319.8 164 323.5 Q 161.1 328.1 162 336.5 L 164 340.5 L 162.5 340 Q 160.3 340.8 161 338.5 L 158.5 335 L 155 332.5 L 154 324.5 L 152 321.5 L 152 305.5 L 153 301.5 L 152 295 Q 148.3 296.4 150 290.5 L 149 289.5 L 149 279.5 L 155 262.5 L 155 246.5 L 153 238 L 146.5 234 L 139 244.5 L 135 254.5 L 128.5 262 L 126 263.5 L 123.5 267 Q 121.3 266.3 122 268.5 L 106 282.5 L 100.5 291 Q 97.8 289.8 100 288.5 L 107.5 278 Q 109.8 278.8 109 276.5 L 112 275.5 L 111 272 L 114.5 273 L 115.5 271 Q 112.9 271.7 114 269 L 117.5 270 L 117 268.5 L 117 266 L 119 266 L 119 264 Q 121.7 265.1 121 262.5 Q 118.8 261.2 121.5 260 L 123 260.5 L 123.5 257 L 126.5 261 L 134 252.5 L 138 240.5 L 136.5 238 L 139.5 239 L 139 237.5 L 140 235.5 L 139 233 L 141 233 Q 139.9 230.3 142.5 231 L 142 229.5 L 142.5 228 L 144.5 229 L 143 226.5 L 142 223.5 L 144.5 223 L 146 223.5 Q 146.8 221.3 144.5 222 L 145.5 220 L 147 220.5 L 146 218.5 L 151 217 L 148 226.5 L 149 230.5 L 153.5 235 L 159.5 236 L 167.5 233 L 170 230.5 Q 169.3 226.8 171.5 226 L 172 231.5 L 166.5 236 L 158 238 Q 156.9 240.7 159.5 240 L 161 239.5 L 160 241.5 L 162 242 L 161 244.5 L 163 245 L 162 247.5 L 163 249.5 L 159 255 Q 162 256 161 253 L 163.5 253 L 160.5 257 Q 157.5 256.1 159 260.5 L 158.5 262 L 162 261 L 160.5 264 Q 157.2 262.9 158 265.5 L 156 269.5 L 159.5 267 Q 161.8 266.3 161 268.5 L 157 271 L 155 275.5 L 158.5 273 Q 160.8 272.3 160 274.5 L 156 277 L 155 280.5 L 158.5 278 L 161 278.5 L 157 282.5 L 157 284.5 L 159.5 283 Q 161.8 282.3 161 284.5 L 157 292.5 L 159 291.5 L 161 286 L 165 283.5 L 182 262.5 L 182.5 259 Q 184.3 262.8 186 259.5 L 192 249.5 L 193 245 Q 190 246 191 243 L 194.5 244 L 195 242.5 L 191 241 Q 189.8 238 193.5 239 L 196 240 Q 197.3 237 193.5 238 L 190 237 L 190.5 235 L 194.5 236 L 194.5 235 L 189 233.5 L 192 232.5 L 188 224.5 L 190 225.5 Q 188.9 228.8 191.5 228 L 197.5 232 L 200.5 232 L 206 230 L 208 226.5 L 209 220.5 Q 206.6 212.4 201 207.5 L 201 201.5 Q 203.8 200.8 203 196.5 L 199.5 189 L 199 193 Q 196.3 194.1 197 191.5 L 194.5 188 Q 190.1 189.5 191 186.5 Q 189.8 183.8 188.5 186 L 185 183.5 L 181 176.5 L 181 171.5 L 179 164.5 L 180 162 L 178 162 L 178 158 L 176.5 158 L 174 153 Q 171.3 154.1 172 151.5 L 172.5 149 L 175 149 Q 173.9 146.3 176.5 147 L 176.5 146 L 173.5 145 L 169 147 L 170 144.5 Q 168.8 141.8 167.5 144 L 160 147 L 159.5 144 L 156 145 L 155.5 143 L 155 145 Q 151.7 143.7 153 148.5 L 150 150 Q 148.8 154.6 151.5 156 L 155 155 L 155 158 Q 150.9 156.3 152 160.5 L 154.5 159 L 156.5 158 L 158 160.5 L 154 163 L 163.5 177 L 175 172 Q 176.1 174.7 173.5 174 Q 168 177.5 167.5 186 Q 166.8 183.3 162.5 184 Q 160.1 188.3 154 188 Q 155.3 191.3 150.5 190 L 144 193 L 136 204.5 L 136 207.5 L 132 216.5 L 132 220.5 L 125 239.5 L 116.5 251 L 111 255.5 L 97.5 279 L 87.5 282 L 84.5 281 L 78 283 Q 76.9 285.7 79.5 285 Q 81.2 282.2 86.5 283 Q 88.5 285.8 93 285 L 94.5 282 L 94 283.5 Q 93.1 286.9 98.5 285 L 100 284.5 L 99 287 L 95 287 L 95 288.5 L 98 290 Q 99.3 293.3 94.5 292 L 93.5 291 L 84.5 291 L 82 293.5 L 82 301.5 L 80 307.5 L 80 316.5 L 79 317.5 L 79 326.5 L 74.5 333 L 74 330.5 Q 78.5 329 77 321.5 L 73.5 320 L 70 324.5 L 73 334 Q 70 335.3 71 331.5 L 68 323.5 L 70 320 Q 73 321.3 72 317.5 L 72 315.5 L 74 293 L 70 291.5 L 71 288.5 L 70 284.5 L 77 278.5 L 83 238.5 L 82 234.5 L 87.5 226 L 90 227 L 91 239.5 L 89 243.5 L 90 247.5 L 89 248.5 L 88 263.5 L 85 276 L 94.5 278 L 100 271.5 L 106 257.5 L 117 246.5 L 124 235.5 L 132 207 L 119.5 210 L 107.5 210 L 100 205.5 L 101 202 L 98.5 202 L 93 196.5 L 92 189.5 L 95 184.5 L 94 182 L 83.5 184 L 81.5 184 L 66 188 Q 65.3 180.5 68 176 L 77 170.5 L 80.5 166 Q 83.2 163.2 89.5 164 L 91 167 L 96.5 168 L 104.5 164 L 108.5 165 L 108.5 164 Q 104.8 165 106 162 L 113 163 Q 111.5 159.2 114.5 160 L 117.5 161 L 120 156 L 127.5 154 L 127.5 155 Q 124.5 154.1 126 158.5 L 127.5 161 L 129.5 156 L 131 158.5 L 129 162.5 L 131.5 166 Q 131 160.5 134.5 159 L 136.5 158 L 139 160.5 L 140 167 L 149.5 169 L 149.5 168 Q 147.3 168.8 148 166.5 L 144 159.5 L 143 154.5 L 144 151.5 L 143 149.5 L 146.5 144 L 149 142.5 L 153.5 136 L 163.5 131 Z M 165 133 L 161 135 Q 157 134 158 137 L 163 136 L 165 136 L 167 135 L 165 133 Z M 176 134 L 175 137 L 182 139 Q 185 140 183 136 L 176 134 Z M 70 138 L 69 141 L 70 141 L 70 138 Z M 160 139 L 159 141 L 161 140 L 160 139 Z M 188 140 L 187 143 L 190 143 Q 192 139 188 140 Z M 180 141 Q 179 144 182 143 Q 183 140 180 141 Z M 178 144 L 179 146 Q 180 143 178 144 Z M 149 146 L 148 149 L 149 149 L 149 146 Z M 181 148 L 182 152 L 185 153 Q 188 154 187 152 Q 186 147 181 148 Z M 147 152 L 146 158 L 148 158 L 150 160 Q 147 157 147 152 Z M 178 153 L 177 157 L 180 157 L 178 153 Z M 184 154 Q 183 156 187 156 L 188 154 L 186 155 L 184 154 Z M 191 154 Q 190 157 193 156 Q 194 153 191 154 Z M 190 156 L 188 158 L 189 160 L 188 162 L 190 161 L 193 162 Q 194 159 191 158 Q 192 155 190 156 Z M 122 160 L 119 161 Q 118 165 124 163 L 126 167 Q 125 169 128 168 L 127 167 L 128 164 L 122 160 Z M 136 161 L 135 166 L 136 166 L 136 161 Z M 182 165 L 183 167 L 184 167 L 182 165 Z M 188 165 L 186 168 L 188 167 L 189 170 Q 191 169 189 168 L 190 166 L 188 165 Z M 137 166 L 135 168 L 138 170 L 137 166 Z M 116 167 L 115 170 L 116 170 L 116 167 Z M 118 168 L 118 170 L 120 169 L 118 168 Z M 129 168 L 127 170 Q 126 172 129 171 L 129 168 Z M 88 169 L 86 174 L 88 176 L 89 173 Q 92 172 91 175 L 93 175 L 93 172 Q 97 173 96 170 L 94 171 L 88 169 Z M 101 169 L 99 173 L 97 172 Q 94 173 96 175 Q 96 178 94 179 Q 86 177 87 181 L 89 180 Q 95 178 95 182 L 97 181 L 100 183 L 97 192 L 99 191 Q 98 188 101 189 L 99 195 L 100 196 Q 103 196 102 192 L 106 193 L 105 198 Q 108 199 107 196 Q 109 193 110 196 L 109 198 L 111 200 L 114 194 L 116 197 L 116 196 L 118 197 L 117 199 Q 116 201 119 200 L 120 198 Q 119 194 122 195 L 121 200 L 124 200 L 124 194 L 126 194 L 127 200 L 128 199 L 129 192 L 131 193 L 130 195 Q 129 198 132 197 L 133 195 Q 132 188 135 189 Q 137 190 135 192 L 136 195 L 137 193 Q 136 185 139 186 L 140 192 L 142 190 L 143 182 Q 145 183 145 188 L 147 187 L 146 180 Q 151 178 149 184 L 151 183 L 150 179 Q 155 178 153 182 L 155 182 Q 153 178 157 179 L 159 184 L 159 180 Q 162 179 161 182 L 163 181 L 160 176 L 145 179 L 131 188 L 120 190 L 118 188 L 112 185 L 111 183 Q 110 177 114 176 Q 115 172 111 174 L 111 172 L 110 172 Q 111 174 108 173 L 108 170 L 106 174 Q 103 175 104 172 L 102 173 L 101 169 Z M 132 169 L 130 171 L 133 171 Q 134 168 132 169 Z M 155 169 L 156 171 Q 157 168 155 169 Z M 139 170 L 140 172 L 141 172 L 139 170 Z M 153 170 L 151 173 L 153 172 L 153 170 Z M 184 171 L 184 173 L 186 174 Q 187 170 184 171 Z M 80 172 L 80 174 L 84 174 L 84 173 L 83 173 L 80 172 Z M 130 175 L 127 178 Q 128 181 123 179 L 124 181 L 128 180 L 130 177 L 130 175 Z M 135 176 L 134 178 L 136 179 L 135 176 Z M 74 178 Q 72 181 75 180 L 74 178 Z M 132 178 L 131 181 L 126 183 Q 124 181 119 182 L 121 185 Q 125 184 124 187 Q 131 186 135 183 Q 136 180 133 181 L 132 178 Z M 138 178 L 138 180 L 138 181 L 141 179 L 138 178 Z M 153 184 Q 154 187 150 186 L 151 188 L 156 186 L 153 184 Z M 202 185 Q 201 188 204 187 Q 205 184 202 185 Z M 205 189 Q 204 192 207 191 Q 208 188 205 189 Z M 115 197 L 113 200 L 115 200 L 115 197 Z M 137 197 L 134 200 L 126 203 L 124 203 L 117 205 L 115 204 L 108 205 L 114 207 Q 117 205 125 206 L 135 202 L 138 198 L 137 197 Z M 209 199 L 210 201 Q 211 198 209 199 Z M 210 203 L 211 207 L 212 207 Q 214 202 210 203 Z M 212 209 Q 210 212 213 211 L 212 209 Z M 211 214 Q 210 217 213 216 Q 214 213 211 214 Z M 211 222 L 210 226 L 211 230 Q 215 228 212 227 L 213 223 L 211 222 Z M 217 222 L 215 238 L 212 244 L 212 249 L 222 265 Q 232 280 254 284 Q 257 285 256 283 Q 258 281 256 280 L 251 282 L 246 280 Q 253 280 256 276 L 252 275 Q 250 271 249 274 L 244 273 L 238 267 L 224 243 L 217 222 Z M 88 229 Q 83 232 84 239 L 89 240 Q 91 232 88 229 Z M 144 231 Q 144 234 141 233 Q 140 236 143 235 Q 147 233 144 231 Z M 211 231 L 209 233 L 208 239 L 211 238 L 210 235 L 212 235 L 211 231 Z M 250 232 L 249 236 L 250 241 Q 249 243 252 242 Q 253 239 255 241 Q 256 235 253 234 L 250 232 Z M 205 234 L 204 237 L 205 237 L 205 234 Z M 208 239 Q 206 242 209 243 L 210 243 L 208 239 Z M 202 241 L 199 242 L 193 255 L 196 255 L 202 243 L 202 241 Z M 158 242 L 158 244 L 160 243 L 158 242 Z M 207 242 L 205 247 Q 207 250 208 247 L 207 242 Z M 84 243 L 84 250 L 79 274 L 80 282 L 82 281 L 83 280 L 84 270 L 86 265 L 88 244 L 84 243 Z M 253 243 L 254 257 L 258 267 Q 256 273 260 272 L 260 267 L 256 253 Q 257 248 255 249 L 254 247 L 255 244 L 253 243 Z M 159 245 L 159 247 L 161 246 L 159 245 Z M 205 247 L 203 251 L 206 252 L 205 247 Z M 159 248 L 160 250 L 162 249 L 159 248 Z M 203 251 L 200 257 L 200 259 Q 199 261 202 260 L 201 259 Q 200 254 204 256 L 203 251 Z M 193 255 L 186 266 Q 188 270 190 267 L 189 265 L 193 260 L 193 255 Z M 198 259 L 195 264 L 197 264 L 198 262 L 198 259 Z M 124 261 L 124 263 L 126 262 L 124 261 Z M 195 264 L 191 270 L 187 274 L 184 274 L 183 279 L 165 304 L 157 321 L 156 326 Q 155 331 159 333 L 160 330 L 159 327 L 162 317 L 167 311 L 170 312 L 171 313 L 170 310 L 174 312 L 175 312 L 171 307 L 172 305 L 175 310 L 178 309 L 177 305 Q 173 303 177 301 L 177 303 L 181 305 Q 184 303 180 301 Q 177 302 178 299 L 181 300 Q 183 299 182 302 L 185 302 L 189 297 L 185 299 Q 181 299 182 295 L 185 296 L 186 295 L 185 292 L 188 293 Q 190 292 188 291 Q 187 288 191 289 L 189 287 L 192 283 L 192 281 L 189 282 L 195 274 L 193 271 L 193 269 L 197 269 L 195 264 Z M 186 266 L 182 270 L 185 271 L 187 270 L 186 266 Z M 182 270 L 178 273 L 165 287 L 159 299 L 155 303 L 153 312 L 154 320 L 155 320 L 154 317 L 156 305 L 160 307 L 161 305 L 159 303 L 160 301 L 163 303 L 161 300 Q 160 297 163 298 Q 164 302 166 299 Q 167 296 164 297 L 164 295 L 168 297 L 169 295 L 167 292 L 170 293 L 171 292 Q 172 288 169 289 Q 168 286 171 287 Q 172 291 174 288 L 172 285 L 175 284 Q 176 286 177 284 L 175 278 L 179 280 L 178 278 L 178 276 L 181 276 Q 180 273 183 274 L 182 270 Z M 264 277 L 264 279 L 270 282 Q 272 283 271 280 L 264 277 Z M 261 278 L 259 281 L 261 280 L 261 278 Z M 260 281 L 263 306 L 263 308 L 266 314 L 267 319 Q 269 318 268 315 L 268 313 L 266 308 L 267 306 Q 263 304 266 303 L 265 300 L 266 297 L 264 295 L 263 290 Q 264 285 261 286 L 262 282 L 260 281 Z M 76 282 L 73 286 L 77 283 L 76 282 Z M 266 283 L 265 285 L 267 286 L 266 283 Z M 205 284 Q 206 288 203 287 L 204 290 L 194 302 L 194 310 L 197 318 L 200 338 L 206 348 L 202 347 L 200 348 Q 204 352 203 363 L 205 364 L 218 360 L 226 355 L 225 336 L 222 325 L 207 289 Q 209 283 205 284 Z M 75 287 L 73 291 L 75 290 L 75 287 Z M 77 287 L 73 315 L 73 317 L 77 319 L 81 298 L 81 290 L 82 289 L 82 287 L 77 287 Z M 192 292 L 189 295 Q 188 297 191 296 L 193 293 L 192 292 Z M 157 293 L 156 297 L 157 297 L 157 293 Z M 191 299 L 189 301 L 191 301 L 191 299 Z M 189 301 L 186 305 L 189 303 L 189 301 Z M 185 305 L 182 306 L 176 315 L 185 307 L 185 305 Z M 190 305 L 183 313 L 180 314 L 171 329 L 171 337 L 174 343 Q 173 346 176 345 L 176 348 Q 184 356 189 367 Q 190 371 187 370 L 187 366 L 185 369 L 186 390 L 195 412 L 195 428 L 194 429 L 197 432 L 196 433 L 193 430 L 191 429 L 198 449 L 198 447 L 200 447 L 200 451 L 202 451 L 201 450 Q 200 446 203 447 L 204 452 L 206 452 L 204 449 Q 203 446 206 447 L 209 453 L 209 450 Q 207 448 210 447 L 212 451 L 213 449 L 207 439 L 206 428 L 205 427 L 205 416 L 204 415 L 204 403 L 204 401 L 203 400 L 202 363 L 200 354 L 198 351 L 196 325 L 190 305 Z M 158 308 L 157 312 L 158 312 L 158 308 Z M 168 313 L 166 315 L 170 318 Q 170 314 168 313 Z M 176 315 L 169 326 Q 167 327 170 328 Q 171 321 176 317 L 176 315 Z M 165 317 L 165 320 Q 169 321 168 319 L 165 317 Z M 269 320 Q 264 322 265 328 L 270 331 L 272 328 L 272 325 L 269 320 Z M 231 329 L 228 332 L 233 332 L 231 329 Z M 230 334 L 228 336 Q 227 338 230 337 L 230 334 Z M 235 341 Q 234 347 238 351 Q 237 353 240 352 L 241 355 L 242 355 L 240 347 L 235 343 L 235 341 Z M 228 343 L 228 345 L 230 344 L 228 343 Z M 230 347 L 231 353 L 234 352 L 233 349 L 230 347 Z M 235 352 L 231 357 L 229 356 L 218 363 Q 217 365 220 364 Q 224 367 223 377 L 224 377 L 223 366 L 223 364 L 223 362 L 227 362 L 227 361 L 234 356 L 237 358 L 233 361 L 234 363 L 234 361 L 238 360 Q 240 354 236 355 L 235 352 Z M 181 357 L 158 377 L 149 377 L 146 380 L 148 390 L 148 399 L 147 400 Q 148 406 151 410 L 152 410 L 151 406 L 151 400 L 158 385 L 175 376 L 182 374 L 183 373 Q 181 366 184 365 L 183 360 L 181 357 Z M 244 357 L 243 360 L 244 360 L 244 357 Z M 245 360 L 244 371 L 245 371 L 245 360 Z M 228 362 L 228 374 L 229 375 L 228 377 L 229 382 L 231 377 L 231 371 L 228 362 Z M 239 362 L 235 366 L 238 366 L 236 370 L 236 376 L 239 376 L 238 374 L 240 370 L 240 363 L 239 362 Z M 212 363 L 204 366 L 203 370 L 204 371 L 204 381 L 205 382 L 205 399 L 207 401 L 211 399 L 218 389 L 218 379 L 219 378 Q 220 368 215 365 Q 216 361 212 363 Z M 236 378 L 233 381 L 236 381 Q 237 383 238 381 Q 239 377 236 378 Z M 233 382 L 231 385 L 228 383 Q 225 392 219 397 L 213 401 L 211 405 L 209 404 L 208 406 Q 211 407 207 409 Q 206 412 209 411 L 210 412 Q 209 407 212 408 L 212 405 L 216 407 L 215 405 Q 214 402 218 403 L 219 406 L 220 406 Q 221 401 218 400 L 221 399 L 220 396 L 226 399 L 228 398 L 225 396 L 223 393 Q 228 392 230 396 L 230 393 L 227 392 L 228 389 L 232 392 L 232 390 L 229 389 L 230 387 L 234 389 L 236 385 L 233 382 Z M 221 399 Q 220 402 223 401 Q 224 398 221 399 Z M 217 409 L 213 412 Q 209 411 210 414 L 213 414 L 218 410 L 217 409 Z M 273 410 L 272 413 L 273 413 L 273 410 Z M 72 412 L 73 418 Q 72 421 75 420 L 77 425 L 80 427 Q 78 417 72 412 Z M 191 412 L 189 416 Q 187 417 190 418 L 192 414 Q 193 411 191 412 Z M 182 413 L 169 417 L 165 416 L 162 418 L 168 419 Q 169 417 175 418 L 182 415 L 182 413 Z M 186 414 L 185 418 Q 184 420 187 419 L 188 416 Q 189 413 186 414 Z M 207 414 Q 206 417 209 416 Q 210 413 207 414 Z M 182 417 L 179 421 L 181 421 L 183 418 L 182 417 Z M 179 418 L 176 419 Q 174 422 173 420 L 171 421 L 159 421 L 158 425 L 161 426 L 162 423 L 166 424 L 167 422 L 169 423 L 170 425 L 172 422 Q 174 421 173 424 L 175 425 L 174 423 L 179 420 L 179 418 Z M 157 421 L 156 422 L 147 422 L 144 425 L 150 428 L 153 426 Q 149 427 150 433 Q 146 435 151 437 L 154 436 L 156 437 L 156 435 L 152 434 L 152 436 L 151 434 L 151 432 L 152 429 L 155 427 L 156 425 Q 155 422 158 423 Q 159 420 157 421 Z M 184 421 L 183 424 L 185 424 L 184 421 Z M 72 422 L 72 424 L 69 426 L 74 435 L 82 441 L 83 441 L 81 438 L 79 434 Q 82 433 81 436 L 83 437 L 74 424 Q 75 421 72 422 Z M 179 422 Q 177 425 180 424 L 179 422 Z M 266 424 L 265 427 L 266 427 L 266 424 Z M 157 427 Q 155 430 158 429 L 157 427 Z M 181 428 L 179 429 L 179 430 L 185 429 L 181 428 Z M 134 433 L 133 434 L 124 434 L 122 436 L 123 438 L 123 436 Q 126 435 125 439 L 127 439 L 128 437 Q 127 434 130 435 L 129 437 L 130 442 L 132 443 L 131 441 L 133 438 Q 135 437 134 440 L 137 441 L 136 436 L 139 437 L 140 434 L 134 433 Z M 141 434 L 141 436 L 143 435 L 141 434 Z M 146 434 L 144 437 L 146 436 L 146 434 Z M 157 435 L 158 437 L 160 436 L 157 435 Z M 271 435 L 272 437 Q 273 434 271 435 Z M 72 436 L 70 440 L 73 441 L 75 446 L 81 451 L 80 447 L 74 438 Q 75 435 72 436 Z M 141 436 L 140 439 L 141 439 L 141 436 Z M 261 436 L 256 441 L 256 443 L 256 445 L 257 448 Q 259 450 265 449 L 267 452 L 265 456 L 267 456 L 269 451 L 270 448 L 270 445 L 268 448 Q 269 450 267 449 L 268 447 Q 269 443 266 444 L 265 448 L 263 447 L 264 445 L 261 446 L 264 442 L 264 437 L 261 444 L 259 445 L 261 439 L 261 436 Z M 267 437 L 264 444 L 266 443 Q 265 440 269 441 L 270 443 L 271 440 L 270 440 L 269 438 L 267 437 Z M 87 440 L 86 442 L 91 448 L 93 448 L 87 440 Z M 84 442 L 81 444 L 84 449 L 83 454 L 87 457 L 88 456 L 91 457 L 88 454 Q 87 451 90 452 L 92 454 L 90 449 L 87 446 L 84 442 Z M 125 445 L 126 447 Q 127 444 125 445 Z M 75 448 Q 73 453 76 456 Q 75 458 78 457 L 82 461 L 83 460 L 86 461 L 86 460 L 81 455 L 75 448 Z M 250 448 L 247 451 L 244 451 L 244 453 Q 241 452 242 455 L 245 456 L 242 458 L 241 460 Q 249 457 254 450 Q 255 446 250 448 Z M 258 451 L 256 453 L 258 453 L 258 451 Z M 144 453 L 144 455 L 146 454 L 144 453 Z M 155 454 Q 154 457 157 456 Q 158 453 155 454 Z M 149 455 L 148 457 Q 152 458 151 456 L 149 455 Z M 270 456 L 268 458 Q 267 460 270 459 L 270 456 Z M 273 456 L 271 458 L 273 458 L 273 456 Z "></path><path d="M 13 132 Q 15.7 130.9 15 133.5 L 14 136.5 L 19 140.5 L 20.5 143 L 24.5 142 L 23.5 144 L 19.5 145 Q 16.3 143.8 17 140 L 13 137.5 L 13 132 Z "></path><path d="M 10.5 138 L 11.5 140 Q 8.7 140.7 10.5 138 Z "></path><path d="M 303.5 144 L 315.5 157 L 308 153 L 303.5 144 Z "></path><path d="M 168.5 150 L 169 151.5 L 169 153.5 L 167.5 157 L 164.5 158 L 163 155 Q 160.3 156.1 161 153.5 L 163.5 151 L 168.5 150 Z "></path><path d="M 27.5 153 Q 30.1 152.3 29 155 L 21.5 159 L 16.5 159 L 15 156 L 21.5 157 L 27.5 153 Z "></path><path d="M 101.5 155 L 102 159 L 104 159 Q 102.9 156.3 105.5 157 L 111 160.5 L 109.5 161 L 105.5 159 Q 104 162.5 102.5 160 L 100 158.5 L 101.5 155 Z "></path><path d="M 162.5 162 L 164 164.5 L 163.5 166 L 168.5 165 Q 172 167 167.5 169 Q 165.5 171.8 161 171 Q 160.3 167.6 163 166.5 L 160 166 L 162.5 162 Z "></path><path d="M 98.5 174 Q 105.7 174.2 108 179.5 L 109 182.5 L 108 186.5 L 105.5 189 L 103 187.5 L 104 182.5 L 101.5 179 L 97 177 L 98.5 174 Z "></path><path d="M 198.5 207 L 199.5 209 L 198.5 207 Z "></path><path d="M 150.5 210 Q 152.8 209.3 152 211.5 L 152 213.5 L 151.5 216 L 149 211.5 L 150.5 210 Z "></path><path d="M 200.5 215 L 201.5 217 L 200.5 215 Z "></path><path d="M 153 228 Q 158.2 226.3 157 230 Q 151.8 231.7 153 228 Z "></path><path d="M 134.5 240 L 135.5 242 Q 132.7 242.7 134.5 240 Z "></path><path d="M 128.5 254 L 130 254.5 L 127.5 258 Q 124 256 128.5 254 Z "></path><path d="M 90.5 282 L 91.5 284 L 90.5 282 Z "></path><path d="M 333.5 345 L 333 346.5 L 332 352.5 Q 334.3 353.8 333 358.5 L 327.5 365 L 322.5 368 L 324.5 365 L 330 360.5 L 331 356.5 Q 328.5 355 330 349.5 L 333.5 345 Z "></path><path d="M 320.5 363 Q 323.1 362.3 322 365 L 316 368.5 L 313.5 377 L 312 370.5 L 314 367 L 320.5 363 Z "></path><path d="M 319.5 368 L 321 368.5 L 318.5 372 Q 315 370 319.5 368 Z "></path><path d="M 310.5 377 L 312 380.5 Q 313 384.3 310 383 L 309 379.5 L 310.5 377 Z "></path><path d="M 312.5 385 L 313 386.5 L 313 388.5 Q 313.7 391.1 311 390 L 310 387.5 L 312.5 385 Z "></path><path d="M 330 390 Q 334.1 388.3 333 392.5 Q 331.5 395.5 330 392.5 L 330 390 Z "></path><path d="M 311.5 392 L 313 392.5 L 313 394.5 Q 312.5 399.5 316.5 400 L 318.5 400 L 323 404.5 L 324 410.5 L 320.5 414 L 319 412.5 L 322 410.5 Q 321.9 404.1 317.5 402 Q 312.5 402.5 312 398.5 L 310 393.5 L 311.5 392 Z "></path><path d="M 21.5 409 Q 26.9 408.4 29 410 L 28.5 413 Q 26.6 409.4 22 410 L 20.5 413 L 20 410.5 L 21.5 409 Z "></path><path d="M 310.5 409 L 315 410 L 313.5 413 L 308.5 412 L 303 415 L 300.5 422 L 300 416.5 Q 303.8 411.3 310.5 409 Z "></path><path d="M 11 413 L 18 413.5 L 11 415 L 11 413 Z "></path><path d="M 31.5 415 Q 36.6 414.4 38 417.5 Q 38.8 419.8 36.5 419 Q 31.9 417.8 31.5 415 Z "></path><path d="M 325.5 415 L 326.5 417 Q 323.7 417.7 325.5 415 Z "></path><path d="M 21.5 417 L 28 417.5 L 21.5 418 L 21.5 417 Z "></path><path d="M 18.5 418 L 19 419.5 L 18 422 L 16 421.5 L 18.5 418 Z "></path><path d="M 29.5 418 Q 30.5 421 35.5 420 L 39 423.5 L 40 427.5 Q 37.8 428.8 40.5 430 Q 44.3 429 43 432 L 36.5 430 L 27.5 432 L 25 434.5 Q 25.6 439.6 22.5 441 L 22 439.5 L 24 433.5 L 26.5 431 L 32.5 429 L 34.5 430 L 38 429 Q 38.1 424.1 34.5 422 L 29 419.5 L 29.5 418 Z "></path><path d="M 131.5 436 L 130.5 438 L 131.5 436 Z "></path><path d="M 34.5 440 L 44.5 441 L 55.5 450 L 58.5 449 L 60 453 L 64 455.5 Q 61.7 459.2 59.5 454 L 51.5 455 L 48 453 L 48.5 450 L 54.5 454 L 58 453 Q 59.4 449 52.5 451 L 49.5 447 L 48.5 448 L 44.5 444 L 43 444 L 42.5 442 L 32.5 442 L 27 451 L 22.5 452 L 22.5 451 Q 25.8 452.1 25 449.5 L 30.5 442 L 34.5 440 Z "></path><path d="M 24.5 445 L 25 446.5 L 22.5 448 L 24.5 445 Z "></path><path d="M 36.5 445 Q 42.5 443.5 44 446.5 Q 42.8 449.3 41.5 447 L 36.5 446 L 32 449.5 L 28.5 454 L 25.5 455 L 25.5 454 L 30 451.5 L 32.5 447 L 36.5 445 Z "></path><path d="M 171.5 448 L 173 451 Q 169.5 452.1 171.5 448 Z "></path><path d="M 37 450 L 39 450.5 L 37 457 L 34.5 458 L 36 455.5 L 37 450 Z "></path><path d="M 40.5 450 Q 45.3 449.3 46 452.5 L 44.5 453 L 40.5 451 L 40.5 450 Z "></path><path d="M 42.5 455 Q 47.8 453.8 49 456.5 L 45.5 457 L 43.5 456 L 41 457.5 L 42.5 455 Z "></path><path d="M 291 463 L 293 463.5 L 291 464.5 L 291 463 Z "></path><path d="M 309.5 464 L 313 466.5 L 311.5 467 L 309 466.5 L 309.5 464 Z "></path><path d="M 52.5 468 L 54.5 472 L 55 470 Q 58.8 469 60 471.5 L 56 483 L 49.5 486 L 48.5 484 L 46.5 489 L 46 487.5 L 46.5 486 L 44 484.5 L 43.5 483 L 43 485.5 L 44 489.5 L 43 489.5 Q 43.8 484.8 40.5 484 L 40 486.5 L 40.5 488 L 38.5 489 L 38 487.5 L 39 483.5 L 37.5 481 L 36 482.5 Q 39.8 484.3 36.5 486 L 33 484.5 L 32.5 482 Q 29.8 483.3 32 484.5 L 27 493.5 L 29.5 492 L 38 494 L 39.5 498 Q 41.2 495.2 43 499.5 L 42 502.5 Q 43.5 505.5 45 502.5 L 44 500.5 L 45 499.5 L 43.5 497 L 46 498 L 46.5 496 L 47 497.5 L 46.5 499 L 48 499.5 L 47 504.5 L 49 512.5 L 48 512.5 L 47 510.5 L 47 508.5 L 45.5 503 L 41.5 509 Q 39.3 509.8 40 507.5 Q 42.5 506 39 504.5 Q 39.9 501.5 35.5 503 L 36 504.5 L 35.5 506 L 34.5 504 L 33 504.5 L 35 499.5 L 31.5 502 L 30.5 501 L 25 501 Q 26.7 495.8 23 497 Q 24 500 21 499 L 21 502.5 L 20 502.5 Q 18.1 497.1 21.5 498 L 21 496.5 L 21 494 L 26 494 L 26 491.5 L 31 484 Q 27.3 485.5 28 482.5 L 27 482.5 L 26 489.5 L 24.5 491 L 24 489.5 L 24.5 488 L 23 487.5 L 25 487 L 27 479 Q 24.3 480.1 25 477.5 L 25.5 476 Q 20.9 477.2 23 472 L 26 473.5 L 26.5 476 L 29.5 472 Q 31.8 471.3 31 473.5 L 33 474.5 L 33.5 472 L 36.5 474 Q 38.3 470.3 40 473.5 L 40.5 475 L 42 472 L 45 473.5 L 45.5 475 L 46 471 L 48.5 472 L 49 470 L 52.5 468 Z M 50 472 L 50 478 L 51 478 Q 52 473 50 472 Z M 56 472 L 54 474 L 56 474 L 56 472 Z M 29 475 L 30 477 Q 31 474 29 475 Z M 47 475 L 46 479 L 47 479 L 47 475 Z M 55 475 L 54 478 L 55 478 L 55 475 Z "></path><path d="M 37.5 470 L 36.5 472 L 37.5 470 Z "></path><path d="M 303 474 Q 305.7 472.9 305 475.5 L 306.5 478 L 309.5 474 L 319.5 474 L 320 475.5 L 322 480.5 L 319.5 483 L 306 486 Q 307.1 488.7 304.5 488 L 302 482.5 L 306 484.5 L 307 479.5 L 305 479.5 Q 306 475.8 303 477 L 303 474 Z M 315 477 Q 313 480 316 479 L 315 477 Z M 311 478 L 309 480 L 310 484 L 312 483 L 311 478 Z "></path><path d="M 228.5 475 L 229 476.5 L 228 479 Q 225.3 477.9 226 480.5 L 225 480.5 Q 224.3 476.8 226.5 476 L 228.5 475 Z "></path><path d="M 277.5 475 L 281.5 476 L 285.5 475 L 287 477.5 L 287 479.5 Q 285.9 482.8 288.5 482 Q 289.8 479.8 291 482.5 L 290 483.5 L 290 492.5 L 288.5 494 L 287 490.5 L 288 486.5 L 286.5 487 L 282.5 486 L 281 486.5 L 279.5 484 L 274.5 485 L 272 484 L 271 480.5 L 273.5 476 L 277.5 475 Z M 275 479 L 274 482 L 276 483 L 275 479 Z M 283 482 L 284 484 Q 285 481 283 482 Z "></path><path d="M 70.5 478 L 75.5 481 L 77.5 480 L 81 482 Q 82.1 484.7 79.5 484 L 70.5 486 L 65 483.5 L 64 480.5 Q 65.8 482.1 67.5 479 L 69.5 480 L 70.5 478 Z "></path><path d="M 326 479 L 328 479.5 L 328 486.5 L 326 487.5 L 325 481.5 L 326 479 Z "></path><path d="M 19.5 480 L 21 483 L 18 482.5 L 19.5 480 Z "></path><path d="M 59.5 480 L 60 482.5 L 58 481.5 L 59.5 480 Z "></path><path d="M 20.5 486 L 21 488.5 L 20 488.5 L 20.5 486 Z "></path><path d="M 33.5 487 L 34 491.5 L 32 490.5 L 33.5 487 Z "></path><path d="M 36.5 487 L 35.5 489 L 36.5 487 Z "></path><path d="M 307.5 488 Q 310.9 487.1 309 492.5 L 310 496 Q 307.3 497.1 308 494.5 Q 305.3 493.7 306 489.5 L 307.5 488 Z "></path><path d="M 36 490 Q 39 489 38 492 Q 35 493 36 490 Z "></path><path d="M 49.5 490 Q 52.3 491.3 50 492.5 Q 50.8 494.8 48.5 494 L 49 492.5 L 49.5 490 Z "></path><path d="M 267 495 L 271 496.5 L 272 500 Q 274.7 498.9 274 501.5 L 278 506.5 L 276.5 506 Q 271.5 506.5 271 502.5 L 267 497.5 L 267 495 Z "></path><path d="M 281.5 498 L 282 500 L 280 499.5 L 281.5 498 Z "></path><path d="M 314.5 499 L 315.5 501 L 317.5 500 L 316.5 502 L 314 500.5 L 314.5 499 Z "></path><path d="M 311.5 501 L 310.5 503 L 311.5 501 Z "></path><path d="M 30 503 Q 33 502 32 505 Q 29 506 30 503 Z "></path><path d="M 27.5 505 L 28.5 507 L 27.5 505 Z "></path><path d="M 37.5 505 Q 40.3 506.3 38 507.5 L 37 509.5 Q 40.5 511 38 512.5 L 37.5 516 Q 35.3 513.3 36 507.5 L 37.5 505 Z "></path><path d="M 98 505 L 101 506.5 Q 102.3 517.3 96.5 521 Q 92 525.5 83.5 526 L 80 523.5 L 81.5 521 Q 73.5 519.5 71 523.5 Q 72 527.3 69 526 Q 68.3 521.3 72.5 520 L 81.5 519 L 86.5 521 L 93 517.5 L 93.5 516 L 94 518.5 Q 90.9 523.4 82 522.5 L 89.5 523 L 95 521 L 95 519 Q 97.7 520.1 97 517.5 Q 101 515.5 99 507.5 L 98 505 Z "></path><path d="M 114.5 505 L 118 505.5 L 112 509.5 L 110.5 513 Q 107.8 511.8 110 510.5 L 114.5 505 Z "></path><path d="M 23.5 507 L 26 507.5 L 25.5 510 L 23.5 507 Z "></path><path d="M 304 507 Q 307.7 505.5 307 508.5 L 305 511.5 L 306 513.5 L 302 516.5 L 304 513.5 L 304 511.5 L 305 509.5 L 304 507 Z "></path><path d="M 311 507 L 313 507.5 L 312 509.5 L 315 508.5 L 314 510.5 L 316 510.5 L 315 515 L 312.5 516 L 312 514 Q 309 512.8 310 516.5 L 308.5 519 L 306.5 519 Q 304.3 519.8 305 517.5 Q 307 513.8 309 515.5 L 308 512 L 310.5 513 L 312 510 L 310 509.5 L 311 507 Z M 314 511 L 312 514 L 314 513 L 314 511 Z "></path><path d="M 31.5 508 L 30.5 510 L 31.5 508 Z "></path><path d="M 122.5 509 L 123 510.5 L 121 513.5 L 121 515.5 L 120 519 L 116.5 520 L 116 518 L 120 515.5 L 119 512.5 L 120 510 L 122.5 509 Z "></path><path d="M 252.5 510 L 251.5 512 L 252.5 510 Z "></path><path d="M 28.5 511 L 29 513.5 L 28 513.5 L 28.5 511 Z "></path><path d="M 108.5 514 Q 111.1 513.3 110 516 L 107.5 517 L 107 515.5 L 108.5 514 Z "></path><path d="M 132.5 515 L 135.5 516 Q 136.7 513.8 138 516.5 Q 138.9 523.4 134.5 525 L 128.5 528 L 119.5 528 L 118.5 529 L 113 528 Q 111.9 524.5 119.5 526 L 121.5 526 L 131.5 525 L 136 520.5 L 136 517 Q 130.4 518.7 132.5 515 Z "></path><path d="M 215.5 515 L 222.5 515 L 223 517 Q 214.3 515.1 211 519.5 L 208 525.5 L 210 524.5 L 211.5 522 L 218 519 Q 219.1 521.7 216.5 521 L 211 525.5 L 210 532.5 L 211 535 L 214 536.5 L 213.5 538 L 208 534.5 L 207.5 526 L 206 526.5 L 210 517 L 215.5 515 Z "></path><path d="M 295.5 515 L 296 516.5 L 295 519 Q 291.7 520.1 293 516 L 295.5 515 Z "></path><path d="M 112.5 516 L 113 517.5 L 107 520 Q 105.7 516.7 110.5 518 L 112.5 516 Z "></path><path d="M 288.5 516 Q 290.8 515.3 290 517.5 L 287 519 L 288.5 516 Z "></path><path d="M 39.5 517 L 40 520 L 42 520.5 L 40.5 521 L 38 520 L 39.5 517 Z "></path><path d="M 129.5 519 L 130 521.5 L 124.5 525 Q 120.8 521.7 112.5 523 L 108 525 L 108 531.5 L 110 535 Q 106.6 535.8 105.5 533 Q 103.7 536.6 98.5 537 L 95 534.5 Q 94 530.8 97 532 Q 95.9 534.7 98.5 534 L 100.5 535 L 104 532.5 L 106 525.5 L 108.5 523 Q 112.5 520 120.5 521 L 126.5 523 L 129.5 519 Z "></path><path d="M 236 519 Q 239 517.8 238 521.5 L 232.5 526 Q 224.3 524.3 222.5 529 L 222 527.5 Q 224.2 522.7 232.5 524 L 236 520.5 L 236 519 Z "></path><path d="M 275.5 520 L 274.5 522 L 275.5 520 Z "></path><path d="M 220.5 521 L 224 521.5 L 216 526 L 215 529.5 L 216 533 L 213 531.5 Q 212.2 525.7 215.5 524 L 220.5 521 Z "></path><path d="M 225 521 Q 230.2 519.3 229 523 Q 223.8 524.7 225 521 Z "></path><path d="M 290.5 529 L 291 531 L 289 530.5 L 290.5 529 Z "></path><path d="M 303.5 529 L 304 530.5 L 302 531.5 L 303.5 529 Z "></path><path d="M 80.5 532 L 81 534.5 Q 79.6 537.6 74.5 537 L 70 535 Q 68.7 531.7 73.5 533 L 76.5 536 L 77.5 535 Q 79.8 535.8 79 533.5 L 80.5 532 Z "></path><path d="M 21.5 534 Q 24.1 533.2 23 536.5 L 28 539 Q 29.4 543 22.5 541 Q 19.3 540.3 20 535.5 L 21.5 534 Z "></path><path d="M 215 534 L 220 536 Q 218.9 538.7 221.5 538 L 226.5 539 L 228.5 539 Q 230.8 539.8 230 537.5 L 232.5 536 L 232 537.5 Q 232.5 541.5 229.5 542 L 229 540 L 221.5 541 L 215 535.5 L 215 534 Z "></path><path d="M 239.5 534 L 245 537.5 Q 246.3 542.3 243 541 L 240.5 536 L 236.5 538 L 236 535 L 239.5 534 Z "></path><path d="M 66.5 536 L 67 537.5 L 63.5 539 L 63.5 538 L 66.5 536 Z "></path><path d="M 236.5 539 Q 241.3 538.3 242 541.5 L 240.5 544 Q 238.3 544.8 239 542.5 L 237 541.5 L 238 543.5 L 235.5 545 L 234 542.5 L 236.5 539 Z "></path><path d="M 342.5 544 L 341.5 546 L 342.5 544 Z "></path><path d="M 341.5 547 L 342 549.5 L 341 551.5 L 341.5 553 L 340 550.5 L 341.5 547 Z "></path><path d="M 172 557 L 178.5 558 L 182.5 557 L 188 558.5 L 187 561.5 L 189 566 Q 192.3 567.3 191 562.5 L 192 559.5 L 191.5 558 Q 197.8 559.8 199.5 557 L 200.5 559 Q 195.5 558.5 195 562.5 L 190 578.5 L 191.5 581 L 186.5 582 L 182.5 581 L 181 581.5 Q 180.1 578.5 184.5 580 Q 187.6 578.6 187 573.5 L 180 562 Q 177.3 560.9 178 563.5 Q 174.5 567 174 573.5 L 179 579.5 L 179 582 L 168.5 582 L 168 580 Q 170.7 581.1 170 578.5 Q 162.3 571.5 159 561 L 156.5 560 L 154 561 L 154 558 L 161.5 558 L 163.5 559 L 165 558.5 L 171.5 569 L 176 560.5 L 172 559 L 172 557 Z "></path><path d="M 211.5 557 L 218.5 557 L 226 562.5 L 228 571.5 L 221.5 580 L 209.5 581 L 204 576.5 L 201 570.5 L 201 565.5 L 202 562 L 211.5 557 Z M 214 559 L 207 567 L 208 576 Q 210 580 217 580 L 223 572 L 222 564 L 218 559 L 214 559 Z "></path><path d="M 231 557 L 239.5 558 L 240.5 557 L 251.5 557 L 254 563.5 L 251.5 568 L 249 569.5 L 257.5 579 L 260 580.5 L 254.5 581 L 247 575.5 L 243.5 570 L 240 570.5 L 241 575.5 L 240 577.5 L 242 580.5 L 232.5 581 L 234 578.5 L 234 560.5 L 232.5 560 L 231 557 Z M 243 559 Q 238 561 241 563 L 240 565 L 240 568 L 247 568 Q 249 567 248 561 Q 247 558 243 559 Z "></path><path d="M 264.5 557 L 272 558.5 L 271 559.5 L 270 572.5 L 271 579 L 275.5 580 Q 276 576.5 280.5 577 L 276.5 582 L 264 581 L 265 560.5 Q 263.8 557.8 262.5 560 Q 259.9 560.7 261 558 L 264.5 557 Z "></path><path d="M 284.5 558 L 298.5 558 L 304 561.5 L 307 567.5 L 307 571.5 L 301.5 579 L 298.5 581 L 290.5 582 L 286.5 581 L 284.5 582 L 283.5 580 L 286 578.5 L 286 560.5 L 284.5 558 Z M 292 560 L 291 579 L 297 577 L 300 569 L 297 562 Q 296 559 292 560 Z "></path><path d="M 342.5 558 L 341.5 560 L 342.5 558 Z "></path><path d="M 46.5 559 L 54.5 560 L 56.5 559 L 60.5 560 L 62.5 560 L 69 560 L 69 564.5 L 65 566 Q 67.1 559.6 60 562 L 59 571.5 L 60 574.5 L 59 581 Q 63.1 579.7 62 583 Q 59.6 581.3 53.5 582 L 52 582.5 L 54 579.5 L 53 578.5 L 53 566.5 L 52 565.5 L 53 563.5 Q 51.8 561 48 562 Q 49.9 567.6 45 566 L 44 561.5 L 46.5 559 Z "></path><path d="M 74.5 559 L 82 559.5 L 81 560.5 L 81 567 L 83.5 568 L 84.5 567 L 92 567 L 91 559 L 99 559.5 L 98 560.5 L 98 579.5 L 100 583 L 91 581.5 L 92 580.5 L 92 569 Q 85.1 568 82 570 L 82 580.5 Q 84.8 579.9 84 583 L 75 582 L 76 568.5 L 74.5 559 Z "></path><path d="M 104.5 559 L 123.5 559 L 124 561.5 Q 122.3 564.8 120.5 561 Q 113.8 559.3 112 562.5 L 112 569.5 L 114 570 L 116.5 566 Q 119.8 567.9 118 574 Q 114.2 575.5 115 572.5 Q 113.5 569.5 112 572.5 L 113 580 L 120.5 580 L 121 578.5 L 125 577 Q 125.8 580.8 122.5 582 Q 116.3 583.7 114.5 581 Q 112.8 583.7 106.5 582 L 107 580.5 L 107 561.5 L 105.5 561 L 104.5 559 Z "></path><path d="M 339.5 563 L 343 564.5 L 340.5 565 L 339.5 563 Z "></path><path d="M 316.5 577 Q 320.3 576.3 321 578.5 L 320 582 Q 315.3 583 314 579.5 Q 313.3 577.3 315.5 578 L 316.5 577 Z "></path><path d="M 339.5 590 Q 342.5 591.5 339.5 593 L 339.5 590 Z "></path><path d="M 343.5 590 L 344 592.5 L 343 592.5 L 343.5 590 Z "></path></svg>