<svg width="350" height="600" version="1.1" xmlns="http://www.w3.org/2000/svg" desc="Created with imagetracer.js version 1.2.5"><path d="M 231.5 4 L 237.5 5 L 238.5 4 L 332 4 L 333 10.5 L 333 39.5 L 334 43.5 L 333 45.5 L 334 47.5 Q 331.8 48.8 333 53.5 L 334 56.5 L 333 57.5 L 333 72.5 L 334 73.5 L 334 107.5 L 335 108.5 L 335 148.5 L 335 150.5 L 335 193.5 L 336 194.5 L 335 195.5 L 335 250.5 L 336 253.5 L 335 254.5 L 335 270.5 L 336 272.5 L 336 274.5 L 335 279.5 L 336 284.5 L 335 286.5 L 336 287.5 L 336 372.5 L 337 374.5 L 336 377.5 L 337 380.5 Q 334.2 389.2 336 402.5 Q 338.8 404.2 337 410.5 L 336 414.5 L 337 418.5 L 336 420.5 L 337 423.5 L 336 427.5 L 337 430.5 L 336 435.5 L 337 436.5 L 337 501.5 L 338 505.5 L 337 509.5 L 338 510.5 L 338 532.5 L 339 535.5 L 337 539.5 L 338 540.5 L 338 565.5 L 337 570.5 L 338 571.5 L 338 595 L 331.5 594 L 329.5 595 L 327.5 595 L 324.5 594 L 307.5 594 L 302.5 595 L 300.5 594 L 297.5 595 L 295.5 595 L 293.5 594 L 268.5 594 L 266.5 594 L 254.5 595 L 252.5 594 L 247.5 595 L 245.5 594 L 241.5 595 L 240.5 594 L 227.5 594 L 225.5 595 L 223.5 594 L 222.5 595 L 153.5 595 L 152.5 596 L 148.5 595 L 146.5 596 L 144.5 595 L 143.5 596 L 97.5 596 L 95.5 597 L 91.5 596 L 88.5 597 L 86.5 596 L 84.5 597 L 83.5 596 L 48.5 596 L 47.5 597 L 36.5 597 L 34.5 597 L 8.5 597 L 8 595.5 L 7 594.5 L 7 583.5 L 8 582.5 L 8 555.5 L 9 554.5 L 8 550.5 L 9 547.5 L 8 545.5 L 8 543.5 L 9 539.5 L 9 537.5 L 8 535.5 L 9 533.5 L 8 532.5 L 8 518.5 L 8 516.5 L 9 511.5 L 8 510.5 L 8 502.5 L 9 500.5 L 8 497.5 L 9 492.5 L 9 475.5 L 8 474.5 L 8 457.5 L 9 453.5 L 8 451.5 L 9 449.5 L 8 448.5 L 8 425.5 L 9 423.5 L 8 422.5 L 8 369.5 Q 5.8 368.3 7 363.5 L 7 361.5 L 8 354.5 L 7 353.5 L 7 323.5 L 6 321.5 L 7 318.5 L 7 286.5 L 6 283.5 L 7 282.5 L 7 272.5 L 6 271.5 L 6 40.5 L 5 37.5 Q 7.5 36 6 30.5 L 5 29.5 L 5 8.5 L 7.5 5 L 23.5 6 L 25.5 5 L 26.5 6 L 44.5 6 L 45.5 5 L 63.5 5 L 65.5 6 L 67.5 6 L 79.5 5 L 84.5 6 L 86.5 6 L 94.5 5 L 96.5 6 Q 97.7 3.7 102.5 5 L 103.5 6 L 150.5 6 L 154.5 5 L 157.5 6 L 160.5 5 L 164.5 6 L 165.5 5 L 230.5 5 L 231.5 4 Z M 289 7 L 288 8 L 255 8 L 254 9 L 252 8 L 222 8 L 221 9 L 216 8 L 211 9 L 209 8 L 206 9 L 197 9 L 196 8 L 194 9 L 140 9 L 139 10 L 137 9 Q 131 8 130 10 L 128 9 L 125 10 L 54 10 L 52 10 Q 45 12 44 9 L 43 10 L 11 10 L 11 76 L 12 77 L 11 82 L 11 110 L 12 111 L 12 120 L 11 121 L 12 123 L 11 126 L 12 132 L 40 121 L 56 119 L 58 119 L 75 124 L 88 134 Q 87 136 90 135 Q 97 142 101 153 L 104 165 L 104 180 L 101 191 Q 96 203 87 212 L 89 216 L 89 226 L 86 234 L 89 235 L 98 248 L 99 260 L 126 252 L 135 245 L 144 241 L 144 239 L 133 217 L 131 207 L 131 195 L 130 194 L 131 179 L 137 160 L 145 146 L 154 134 L 169 123 L 181 117 L 197 112 L 206 112 L 209 111 L 211 112 L 214 111 L 215 112 L 229 113 L 241 117 L 259 127 Q 275 140 284 161 L 289 175 L 290 192 L 291 193 L 289 210 L 288 211 L 289 213 L 294 210 Q 302 209 303 214 L 303 221 L 288 251 L 287 259 L 267 298 L 262 302 L 251 306 L 249 305 Q 241 310 231 311 L 208 323 L 203 323 L 189 318 L 181 317 L 165 311 L 145 308 L 141 306 L 134 306 L 131 308 L 122 310 L 118 313 L 120 313 Q 126 318 129 327 L 129 341 L 124 350 L 113 359 L 116 364 Q 117 368 113 366 L 113 368 L 111 378 Q 106 385 97 387 Q 85 388 80 384 L 76 380 L 76 377 L 66 381 L 52 381 Q 40 378 33 372 L 29 368 L 26 366 L 20 356 L 17 344 L 18 331 L 23 321 L 34 312 L 31 311 L 23 305 L 20 305 L 12 288 L 13 273 L 18 265 L 12 261 L 13 257 Q 11 253 12 247 L 20 241 L 20 243 L 15 247 L 16 255 L 19 256 L 20 259 L 15 260 L 20 262 L 31 255 L 38 254 L 42 243 Q 49 232 64 229 Q 75 228 81 232 L 83 231 Q 84 222 82 218 L 85 220 Q 84 222 87 221 Q 85 219 86 213 L 83 208 Q 80 209 81 206 Q 84 205 86 208 L 90 204 L 95 191 Q 94 187 97 188 L 98 191 L 99 189 L 98 187 Q 101 183 99 175 L 101 175 L 102 170 L 99 168 Q 97 163 101 164 Q 99 148 89 138 L 78 128 L 66 123 L 62 124 L 58 123 Q 42 121 34 128 L 40 136 Q 41 139 39 140 L 36 134 L 33 132 L 36 137 Q 38 145 34 149 L 30 152 Q 25 153 24 150 Q 21 151 22 149 L 22 147 Q 21 144 24 145 L 25 150 L 28 151 L 31 150 L 33 147 L 33 138 L 31 134 L 26 130 Q 19 129 15 132 L 16 134 L 11 135 L 11 171 L 13 173 L 21 170 L 25 171 Q 21 170 20 173 L 15 173 L 12 176 L 13 177 L 17 175 L 25 176 Q 30 179 28 187 L 31 186 L 32 187 L 27 190 L 18 205 Q 17 210 20 210 L 20 216 Q 17 217 18 214 L 17 214 L 18 224 L 26 228 L 27 230 L 22 229 L 24 232 Q 26 231 25 234 L 29 235 L 28 237 L 24 236 L 21 235 L 16 237 L 10 245 L 10 262 L 11 263 L 11 283 L 10 284 L 10 292 L 11 293 L 11 324 L 10 325 L 11 330 L 11 350 L 12 351 L 12 465 L 14 464 L 17 467 L 21 468 L 21 466 L 17 465 Q 18 460 14 462 Q 13 458 17 459 L 17 457 L 13 458 Q 12 455 16 456 L 18 453 L 18 456 L 20 455 L 22 456 L 19 458 L 20 460 L 17 461 L 21 461 L 22 466 L 24 465 Q 26 464 25 468 L 27 468 L 26 464 Q 30 462 29 466 L 32 467 L 30 463 L 34 461 L 35 465 Q 36 467 38 465 L 42 467 Q 45 468 44 465 L 39 464 L 40 462 Q 39 458 43 459 L 44 456 L 47 458 L 49 457 Q 51 453 53 457 L 53 456 Q 51 454 54 453 L 55 454 L 55 461 Q 52 462 53 459 L 51 460 L 52 462 Q 53 464 55 462 Q 58 461 56 465 L 54 466 L 52 465 Q 49 464 50 467 L 56 466 L 59 467 L 60 470 L 62 471 L 61 469 Q 60 466 63 467 L 65 464 Q 67 463 66 466 L 66 467 Q 69 468 68 465 Q 66 460 65 463 L 61 461 Q 60 458 63 459 L 65 459 L 68 458 L 69 460 L 69 457 L 72 456 Q 75 455 73 459 L 75 459 L 74 463 L 78 460 L 79 462 Q 80 464 77 463 L 77 466 L 74 465 Q 71 464 72 467 L 72 468 L 74 467 Q 77 466 76 469 Q 80 470 78 465 L 82 466 L 83 463 L 86 462 Q 88 463 88 468 L 89 465 L 93 466 L 91 464 Q 90 461 94 462 Q 96 463 94 465 L 95 468 L 97 468 L 96 463 L 99 464 Q 101 463 100 467 L 102 467 L 102 470 Q 105 471 104 468 L 108 469 L 108 467 L 107 467 L 106 466 L 108 465 Q 107 467 110 466 L 109 464 L 111 461 Q 114 462 113 460 Q 111 458 114 457 Q 117 456 115 460 L 117 460 L 115 464 L 118 464 L 119 468 L 118 472 L 121 472 L 120 468 Q 124 469 126 466 L 129 468 L 135 468 L 135 473 L 137 473 L 136 472 L 136 469 L 140 469 L 140 468 L 139 468 Q 135 469 136 467 L 135 467 Q 130 468 132 463 L 135 462 L 137 463 L 138 463 L 136 466 L 138 465 L 140 466 L 144 463 Q 148 462 146 466 L 150 465 L 151 468 Q 153 466 155 469 Q 157 468 155 467 Q 154 464 157 465 L 157 464 L 154 465 L 151 464 L 157 461 Q 159 460 158 463 L 158 464 L 162 463 L 160 460 L 163 458 L 165 459 L 164 462 L 167 465 L 169 464 L 172 465 L 171 463 Q 167 464 168 462 L 166 462 L 168 457 L 167 454 L 170 455 L 172 454 L 173 457 L 176 456 L 175 459 L 172 457 L 171 459 L 174 460 L 175 464 Q 176 466 178 464 Q 182 464 183 467 L 183 465 L 189 461 Q 192 462 191 459 L 194 459 L 194 457 L 195 455 L 191 457 L 189 455 L 191 455 Q 193 454 191 453 Q 190 450 193 451 L 194 453 L 199 451 L 196 450 Q 194 446 199 447 L 200 448 Q 199 443 203 445 L 202 443 Q 203 440 201 441 Q 199 443 198 441 Q 199 438 201 440 L 202 438 Q 206 436 202 434 L 208 430 L 207 428 Q 206 425 209 426 L 209 422 L 214 419 L 212 416 L 214 414 L 216 416 Q 215 412 218 413 L 217 411 L 221 409 L 226 412 L 227 411 Q 229 414 233 413 L 232 407 L 236 408 L 238 405 Q 240 406 238 408 L 239 409 L 241 408 L 239 413 Q 242 414 241 411 L 246 412 L 245 411 Q 246 408 248 410 Q 252 411 251 408 L 255 408 L 261 412 L 261 410 L 264 411 L 266 410 L 268 411 Q 269 413 271 410 L 272 411 L 269 415 Q 268 418 272 416 L 273 419 L 275 418 L 275 420 Q 272 419 273 422 L 275 421 Q 277 420 276 424 L 274 423 L 271 425 L 276 426 L 278 425 L 278 428 Q 275 427 276 430 L 280 428 L 281 434 Q 280 436 283 435 L 283 437 L 285 437 L 284 439 L 280 438 L 277 439 L 282 441 L 286 440 L 285 443 L 286 445 L 288 444 Q 290 445 288 447 L 290 447 L 287 454 L 289 453 Q 292 452 291 455 L 294 456 Q 293 452 296 451 Q 299 450 297 454 L 299 454 Q 300 452 301 455 L 300 457 L 301 458 L 305 457 Q 309 455 305 453 Q 304 449 308 450 L 311 453 L 308 447 L 310 447 L 312 443 L 314 443 L 312 442 L 314 438 L 318 435 L 319 435 L 318 439 L 320 438 L 323 439 Q 325 440 324 446 Q 325 448 327 446 Q 329 447 328 451 L 330 452 L 329 448 L 332 446 L 333 448 L 333 370 L 333 368 L 332 365 L 332 211 L 331 210 L 332 205 L 331 202 L 332 199 L 331 197 L 332 195 L 331 190 L 331 179 L 332 178 L 332 120 L 331 119 L 329 10 L 328 8 L 298 8 L 297 7 L 294 8 L 292 8 L 289 7 Z M 201 115 L 184 119 Q 171 124 162 132 Q 150 141 143 155 L 134 181 L 135 183 L 134 185 L 134 200 L 135 201 L 134 204 L 136 207 L 136 213 L 140 225 L 149 239 L 155 238 L 155 236 L 148 226 L 144 216 L 141 202 L 141 186 L 143 175 Q 147 159 156 149 Q 171 129 200 123 L 222 123 L 234 126 Q 246 131 256 139 Q 267 149 274 164 L 278 176 L 279 189 L 280 190 L 279 195 L 280 197 L 275 220 L 268 233 L 259 243 Q 260 245 258 244 L 256 247 L 242 257 L 249 260 L 256 257 Q 269 246 278 231 L 284 216 L 287 199 L 287 187 L 284 171 Q 279 155 270 144 Q 258 128 240 120 L 220 115 L 201 115 Z M 212 125 L 211 126 L 200 126 L 184 131 Q 172 137 163 146 Q 164 148 161 147 L 152 161 L 148 170 L 144 187 L 144 199 L 145 200 L 146 211 Q 150 224 157 234 L 162 238 L 173 238 L 179 239 L 179 235 L 189 203 L 162 182 Q 157 181 158 176 L 191 176 L 192 175 L 196 176 L 199 170 L 205 147 L 207 144 L 207 140 L 211 138 L 220 164 L 220 168 L 223 176 L 227 175 L 262 175 L 262 177 L 231 201 L 236 221 L 242 238 L 240 239 L 210 217 L 184 237 L 182 240 L 190 241 L 208 251 L 212 251 L 215 253 L 229 256 L 236 256 L 252 246 Q 271 230 276 201 L 276 184 Q 273 181 274 175 Q 270 160 261 150 Q 245 129 214 125 L 212 125 Z M 210 143 L 200 173 L 201 175 L 218 175 L 219 176 L 219 172 L 210 143 Z M 19 176 L 13 178 L 11 183 L 14 188 L 16 188 Q 14 184 18 185 Q 20 186 18 188 L 19 191 L 17 192 Q 8 190 11 197 L 15 197 L 21 194 L 24 191 Q 23 186 26 186 Q 27 180 25 178 L 19 176 Z M 242 177 L 241 178 L 224 178 L 227 191 L 231 198 L 254 179 Q 255 176 251 177 L 249 177 L 244 178 L 242 177 Z M 180 178 L 179 179 L 163 180 L 190 199 L 194 183 L 196 180 Q 197 176 192 178 L 190 178 L 185 179 L 183 179 L 180 178 Z M 199 178 L 192 201 L 210 214 L 227 201 L 226 194 L 221 181 L 221 178 L 199 178 Z M 12 189 Q 9 193 16 191 L 17 189 L 15 190 L 12 189 Z M 19 195 Q 17 199 11 198 L 11 237 L 10 238 L 11 240 L 12 238 Q 15 233 21 234 L 14 222 L 14 212 L 18 199 Q 22 197 19 195 Z M 228 203 L 222 208 Q 219 207 220 210 L 214 214 Q 211 213 212 216 L 235 232 L 237 234 L 229 205 L 228 203 Z M 192 204 L 183 233 L 183 234 Q 196 226 207 216 L 192 204 Z M 294 212 L 290 215 L 287 215 Q 282 234 270 248 L 261 256 L 256 262 L 259 264 Q 260 270 257 274 L 250 280 Q 243 281 241 278 L 231 278 L 229 278 L 216 280 L 208 283 Q 203 286 202 293 Q 203 296 200 295 L 200 298 L 197 298 L 200 293 Q 199 287 202 285 L 202 282 L 199 284 Q 195 285 197 281 L 194 282 L 183 282 L 192 279 L 191 276 Q 187 277 188 274 Q 192 273 195 276 L 201 273 L 217 274 L 225 277 Q 234 278 240 275 L 244 277 Q 249 279 251 276 Q 253 277 252 275 L 251 275 Q 239 277 235 271 L 237 262 Q 247 261 253 265 L 253 263 L 236 258 L 221 257 L 211 253 L 204 252 L 187 243 L 170 240 L 167 241 L 157 239 L 140 245 L 127 254 L 107 261 L 99 262 L 96 265 Q 97 267 95 266 Q 87 269 87 278 L 95 281 L 103 291 L 107 302 L 106 315 L 97 328 L 93 332 L 83 335 L 73 335 L 62 331 L 59 328 L 57 326 Q 50 322 48 314 L 52 312 L 53 319 Q 55 323 57 320 L 64 327 L 75 330 L 84 330 L 93 327 Q 102 321 104 309 L 103 299 L 97 288 L 89 281 L 87 281 L 81 278 L 78 284 L 74 287 L 76 288 Q 69 287 66 290 Q 54 290 49 284 L 42 277 L 38 265 L 38 259 Q 35 259 36 256 Q 28 257 24 261 L 19 267 L 20 268 Q 23 262 31 261 Q 32 259 33 262 L 29 262 Q 21 266 18 275 Q 16 287 21 292 L 20 292 Q 15 291 16 285 L 15 285 L 15 289 L 17 294 L 23 303 L 35 309 L 43 309 L 44 308 L 46 309 L 44 311 L 41 311 L 33 315 L 24 325 L 21 331 L 21 339 L 20 340 Q 21 357 30 366 Q 39 376 55 379 L 67 379 L 77 374 L 83 367 L 84 360 L 81 358 L 85 356 L 87 360 L 86 367 L 78 376 L 80 381 L 89 385 Q 100 386 105 381 L 110 372 Q 110 365 105 363 L 107 362 L 108 361 L 112 365 L 112 363 L 108 359 L 105 360 Q 98 362 97 359 Q 94 360 95 357 L 101 358 L 110 357 L 116 354 Q 123 348 126 338 L 125 326 L 122 321 L 118 316 L 111 314 L 109 315 Q 106 316 107 313 L 112 310 L 129 306 L 130 305 L 129 301 L 139 304 L 148 305 L 152 307 L 162 308 L 195 318 L 200 318 L 206 321 L 211 320 L 231 309 L 261 301 L 266 296 L 274 280 L 274 277 L 268 287 L 261 292 L 250 296 L 248 296 L 251 293 L 262 290 L 271 278 L 292 239 L 290 234 L 292 226 L 298 218 L 300 219 L 300 215 Q 299 211 294 212 Z M 299 220 L 293 231 L 294 233 L 299 223 L 299 220 Z M 67 232 L 55 235 L 52 237 L 42 249 L 42 266 Q 44 267 43 272 L 47 279 Q 52 285 63 287 L 72 285 L 75 283 L 79 275 Q 79 267 75 263 L 72 261 L 66 265 Q 65 268 69 266 Q 70 270 65 268 Q 62 267 63 264 L 70 259 L 76 260 L 81 269 L 81 278 L 83 278 L 85 272 L 91 267 L 95 262 L 95 253 L 90 242 L 83 235 L 67 232 Z M 14 257 Q 12 260 15 259 L 14 257 Z M 241 263 Q 237 265 238 271 Q 239 273 243 272 L 244 273 L 246 272 Q 245 274 249 273 Q 252 271 252 266 L 241 263 Z M 254 264 Q 255 270 252 273 L 253 274 L 256 268 Q 257 263 254 264 Z M 19 268 L 17 271 L 19 270 L 19 268 Z M 202 275 L 200 277 L 204 280 Q 210 281 214 278 Q 217 279 216 276 L 202 275 Z M 252 410 Q 250 413 253 414 L 254 411 L 252 410 Z M 256 412 L 257 414 L 258 414 L 256 412 Z M 264 413 L 262 415 L 265 415 L 264 413 Z M 223 414 L 221 416 L 223 416 L 223 414 Z M 227 415 L 227 417 L 229 418 Q 230 414 227 415 Z M 254 415 Q 252 418 255 417 L 254 415 Z M 266 415 Q 264 418 267 417 L 266 415 Z M 238 416 L 239 421 L 242 420 L 241 417 L 238 416 Z M 223 418 L 223 420 L 225 419 L 223 418 Z M 234 418 L 234 420 L 236 419 L 234 418 Z M 219 419 L 219 421 L 221 420 L 219 419 Z M 237 420 L 235 424 Q 237 427 238 424 L 237 420 Z M 255 422 L 255 425 L 258 424 L 255 422 Z M 226 423 Q 224 426 227 425 L 226 423 Z M 247 423 Q 244 425 247 426 L 249 425 L 247 423 Z M 264 424 L 263 428 L 265 427 L 264 424 Z M 221 425 L 219 430 L 222 428 Q 223 424 221 425 Z M 241 426 L 232 429 L 233 432 L 231 435 L 227 434 L 225 434 L 227 438 L 224 443 Q 225 445 223 444 L 221 447 L 223 446 L 224 450 L 226 449 L 229 450 Q 228 453 223 452 L 224 457 L 226 461 L 225 462 L 222 462 L 222 466 L 221 466 L 222 468 L 227 466 L 228 464 L 231 462 L 232 459 L 235 459 L 240 464 L 247 460 L 254 450 L 264 455 L 265 456 L 264 454 L 265 450 L 263 451 Q 259 452 260 449 L 264 448 Q 263 444 266 445 L 263 442 Q 264 438 261 439 L 260 434 L 261 432 L 259 432 L 259 436 L 258 436 Q 256 440 254 437 L 257 436 L 256 434 Q 255 431 258 432 L 258 430 L 255 431 L 256 428 L 256 426 L 253 427 L 251 427 L 252 429 Q 253 432 250 431 L 248 427 L 242 430 Q 239 431 240 429 L 243 427 L 241 426 Z M 262 430 L 262 431 L 264 431 L 262 430 Z M 263 432 L 264 435 L 263 437 L 265 436 Q 267 437 266 434 L 263 432 Z M 205 436 L 206 438 L 207 438 L 205 436 Z M 266 438 Q 265 441 268 440 L 269 441 Q 270 436 266 438 Z M 275 438 Q 273 441 276 440 L 275 438 Z M 211 441 Q 208 442 210 444 Q 209 448 214 446 L 216 443 L 213 444 L 211 441 Z M 317 441 L 320 445 L 320 444 L 317 441 Z M 312 447 L 310 449 L 312 449 L 312 447 Z M 273 450 L 273 453 Q 277 454 276 451 L 273 450 Z M 316 450 L 316 453 L 319 454 Q 320 451 318 452 L 318 451 L 316 450 Z M 254 453 L 250 461 L 236 469 L 233 470 L 230 469 L 237 466 Q 236 463 233 463 L 230 467 L 227 468 Q 224 467 225 470 L 229 469 L 230 471 L 228 472 L 224 472 L 224 477 L 222 477 L 223 480 L 225 479 Q 226 483 223 485 L 225 489 L 227 485 L 229 490 Q 226 490 227 495 L 229 494 L 234 496 L 234 501 L 231 501 L 232 499 L 230 498 L 231 505 Q 238 505 242 509 L 244 508 L 249 509 Q 250 506 247 507 Q 246 504 250 505 Q 249 502 252 501 L 250 500 L 251 496 L 255 495 L 256 497 Q 253 496 254 499 L 256 498 L 259 500 L 262 499 L 262 498 Q 258 499 259 497 L 262 495 L 263 496 L 260 489 L 264 487 L 265 489 L 266 487 L 262 485 L 264 484 L 262 482 L 266 480 L 263 478 L 266 476 L 266 478 Q 268 481 269 478 L 261 473 Q 260 468 263 468 L 262 465 L 267 461 L 264 457 Q 258 458 257 455 Q 258 451 254 453 Z M 209 454 L 208 457 L 209 457 L 209 454 Z M 272 454 L 270 456 Q 268 461 274 459 L 272 454 Z M 202 455 L 200 458 L 202 460 L 203 458 L 202 455 Z M 221 457 L 219 459 L 223 460 L 224 460 L 221 457 Z M 295 458 Q 293 461 296 460 L 295 458 Z M 44 459 L 43 462 L 45 462 Q 44 465 47 464 L 48 465 L 46 460 L 44 459 Z M 300 460 L 299 463 L 301 464 L 300 460 Z M 308 460 Q 307 464 310 463 Q 311 459 308 460 Z M 114 461 Q 112 464 115 463 L 114 461 Z M 71 462 L 71 464 L 73 463 L 71 462 Z M 217 462 L 217 464 L 219 465 Q 220 461 217 462 Z M 317 464 L 316 466 L 318 467 L 317 464 Z M 115 465 L 113 468 L 116 470 L 115 465 Z M 203 465 Q 202 468 205 467 Q 206 464 203 465 Z M 328 465 L 328 467 L 330 468 Q 331 464 328 465 Z M 144 466 L 143 471 L 144 471 L 144 466 Z M 68 467 L 68 469 Q 64 471 69 473 L 71 472 L 70 470 Q 71 466 68 467 Z M 92 467 L 91 471 L 93 470 L 92 467 Z M 175 467 L 175 468 L 178 468 L 175 467 Z M 291 467 Q 290 470 293 469 Q 294 466 291 467 Z M 297 467 L 297 470 Q 300 469 297 467 Z M 38 468 L 38 471 Q 41 470 38 468 Z M 170 468 L 171 470 Q 172 467 170 468 Z M 216 468 Q 214 471 217 470 L 216 468 Z M 327 468 L 327 470 L 329 469 L 327 468 Z M 28 469 L 27 472 L 27 473 L 29 472 L 33 474 L 33 471 L 28 469 Z M 48 469 L 47 472 L 50 471 L 48 469 Z M 55 469 L 55 470 L 57 470 L 55 469 Z M 88 469 L 87 471 L 89 472 L 88 469 Z M 109 469 L 108 471 L 111 472 L 109 469 Z M 128 469 L 127 470 Q 123 469 124 472 L 128 471 L 128 469 Z M 81 470 L 81 472 L 85 474 L 86 472 L 81 470 Z M 160 470 L 159 473 L 160 473 L 160 470 Z M 177 470 L 175 473 L 177 472 L 177 470 Z M 265 470 L 265 473 L 267 472 Q 268 469 265 470 Z M 129 471 L 129 473 L 131 472 L 133 473 Q 134 469 129 471 Z M 310 471 L 309 474 L 312 475 L 313 473 Q 311 474 310 471 Z M 46 472 L 46 475 L 47 475 Q 48 471 46 472 Z M 75 472 L 75 474 L 77 473 L 80 475 L 81 473 L 75 472 Z M 98 472 Q 95 473 97 475 Q 96 478 99 477 L 100 474 L 98 472 Z M 140 472 L 137 474 L 141 474 L 142 476 L 142 474 L 140 472 Z M 155 472 L 154 473 Q 151 472 152 475 L 156 474 L 155 472 Z M 167 472 L 166 477 L 168 478 L 167 472 Z M 193 472 L 192 475 L 193 475 L 193 472 Z M 197 472 L 198 476 Q 201 477 200 474 L 197 472 Z M 320 472 L 318 475 L 320 474 L 320 472 Z M 34 473 Q 33 476 36 475 Q 37 472 34 473 Z M 40 473 L 37 474 L 38 477 L 41 476 L 40 473 Z M 114 473 L 114 476 L 114 477 L 116 476 Q 117 472 114 473 Z M 210 473 L 209 478 L 211 477 L 210 473 Z M 270 473 Q 269 476 272 475 Q 273 472 270 473 Z M 324 473 L 322 475 L 323 476 L 326 475 Q 327 472 324 473 Z M 51 474 L 49 475 L 50 477 L 53 475 L 51 474 Z M 122 474 L 122 476 L 125 475 L 122 474 Z M 58 475 L 58 479 L 54 478 Q 53 482 56 485 Q 57 489 54 488 L 54 486 L 50 489 Q 49 492 53 490 L 54 494 Q 56 492 58 495 L 64 492 Q 66 491 65 494 L 65 496 L 67 498 L 69 496 Q 68 490 71 489 Q 72 485 67 487 L 67 486 L 64 485 L 63 482 Q 60 484 61 489 L 59 491 L 57 491 L 57 484 L 60 482 L 60 476 L 58 475 Z M 148 475 L 147 477 L 149 478 L 148 475 Z M 185 475 L 184 477 L 186 478 L 185 475 Z M 219 475 L 219 478 L 221 477 Q 222 474 219 475 Z M 13 476 L 12 478 Q 14 482 16 479 L 13 476 Z M 20 476 Q 18 479 21 478 L 20 476 Z M 155 476 Q 154 479 157 478 Q 158 475 155 476 Z M 204 476 L 203 480 L 205 479 Q 207 480 206 477 L 204 476 Z M 281 476 L 279 479 L 281 478 L 281 476 Z M 301 476 L 301 478 L 303 477 L 301 476 Z M 23 477 Q 21 480 24 479 L 23 477 Z M 64 477 Q 62 480 65 479 L 64 477 Z M 178 477 L 176 479 Q 175 482 178 481 L 178 477 Z M 73 478 L 73 479 L 75 479 L 73 478 Z M 129 478 L 126 481 L 128 484 L 128 480 L 132 479 L 129 478 Z M 24 479 L 25 483 L 27 480 L 24 479 Z M 141 479 L 141 481 Q 143 484 144 481 Q 145 478 141 479 Z M 191 479 Q 190 482 193 481 Q 194 478 191 479 Z M 207 479 L 207 481 L 209 480 L 207 479 Z M 182 480 L 181 483 L 182 483 L 182 480 Z M 284 480 L 283 481 Q 280 480 281 487 L 282 487 Q 280 481 284 482 L 284 480 Z M 331 480 L 330 484 L 331 484 L 331 480 Z M 163 481 L 164 484 L 166 483 Q 167 480 163 481 Z M 195 482 L 195 487 L 197 486 Q 198 483 195 484 L 195 482 Z M 29 483 L 27 487 L 30 487 L 31 485 L 29 483 Z M 147 483 L 145 485 L 147 488 L 147 486 Q 149 484 147 483 Z M 152 483 Q 150 486 153 485 L 152 483 Z M 202 483 L 201 486 L 202 486 L 202 483 Z M 324 483 L 324 485 L 326 486 Q 327 482 324 483 Z M 44 484 L 44 486 L 42 486 Q 43 489 41 488 Q 36 490 39 492 L 37 495 L 40 495 L 39 499 Q 40 502 45 501 L 44 500 L 46 496 Q 51 494 53 498 L 50 500 L 52 500 L 50 504 L 51 505 L 53 504 L 54 508 L 55 506 L 55 508 Q 58 509 57 507 L 54 505 L 55 503 L 54 495 L 46 489 Q 48 483 44 484 Z M 107 484 L 105 486 L 107 486 L 107 484 Z M 142 484 L 141 485 Q 138 484 139 487 L 143 485 L 142 484 Z M 157 484 L 157 486 L 161 485 L 157 484 Z M 290 485 L 289 487 L 289 488 L 292 487 L 290 485 Z M 36 486 L 38 490 L 38 488 L 36 486 Z M 101 486 L 101 488 L 105 490 L 103 495 Q 100 496 101 494 L 97 490 L 95 490 L 95 495 L 97 496 L 96 496 L 94 500 L 100 502 L 99 504 L 101 508 L 100 512 Q 99 514 102 513 L 102 516 L 106 516 L 106 519 L 105 518 L 103 522 L 104 524 L 103 526 L 105 529 L 106 522 L 109 520 L 110 522 L 111 519 L 109 519 L 111 512 L 109 513 L 108 512 L 105 513 L 104 511 L 105 509 Q 106 504 104 503 L 106 500 Q 108 501 107 497 L 110 496 L 116 496 L 116 493 L 113 492 Q 114 488 111 489 L 110 486 L 108 487 L 101 486 Z M 151 486 L 150 490 L 153 491 L 154 487 L 153 487 Q 154 489 151 488 L 151 486 Z M 166 486 L 164 489 L 168 491 L 170 490 L 170 488 L 168 489 L 166 486 Z M 184 486 L 183 488 Q 185 491 186 488 L 184 486 Z M 284 486 L 283 488 Q 287 489 286 487 L 284 486 Z M 322 486 Q 319 490 323 489 L 322 486 Z M 74 487 L 75 489 Q 76 486 74 487 Z M 131 487 L 136 493 L 137 493 L 136 490 L 133 489 Q 134 486 131 487 Z M 205 487 L 206 492 L 206 491 Q 209 489 205 487 Z M 276 487 L 277 489 Q 278 486 276 487 Z M 143 488 L 143 490 L 145 489 L 143 488 Z M 180 488 Q 178 491 181 490 L 180 488 Z M 217 488 Q 216 491 220 490 Q 221 487 217 488 Z M 157 489 L 154 495 L 155 495 Q 154 492 157 493 L 157 489 Z M 174 489 L 175 491 Q 176 488 174 489 Z M 211 489 L 209 491 L 211 491 L 211 489 Z M 295 489 L 297 493 L 298 491 L 295 489 Z M 85 490 L 84 493 L 85 493 L 85 490 Z M 182 490 L 181 493 L 183 494 Q 184 489 182 490 Z M 279 490 L 278 493 L 278 494 L 280 494 L 279 490 Z M 18 491 L 17 492 Q 13 491 14 494 L 17 496 Q 14 497 15 502 L 14 501 L 12 500 Q 11 505 13 507 L 17 506 L 14 510 L 15 511 L 17 510 L 16 515 L 17 520 L 16 522 L 17 524 L 16 533 L 18 537 L 17 541 L 19 543 L 20 540 L 19 537 L 20 530 L 20 528 L 18 523 Q 19 520 21 522 L 24 520 Q 25 518 26 521 Q 24 524 22 523 L 24 532 L 27 537 Q 26 540 29 539 Q 30 543 26 545 Q 27 547 31 546 L 30 549 L 41 549 L 42 550 L 50 549 L 48 548 L 46 544 L 48 544 L 44 543 L 46 540 Q 49 541 47 537 L 46 537 Q 43 538 44 534 L 46 534 L 43 533 L 48 525 Q 52 523 51 527 Q 49 528 52 529 Q 55 528 54 523 L 52 524 Q 49 525 50 523 L 49 523 Q 46 524 47 522 L 49 519 L 47 520 L 46 518 L 49 514 L 46 514 Q 47 511 45 512 Q 43 515 42 511 L 40 513 L 41 516 Q 40 518 39 516 L 37 517 Q 33 518 34 516 L 38 514 Q 39 511 35 512 L 32 513 L 29 511 L 24 512 L 25 515 Q 24 517 27 516 L 27 518 Q 24 519 23 516 L 22 519 Q 20 522 18 518 L 19 511 L 21 511 L 19 510 L 20 506 L 26 504 L 27 504 L 27 508 L 30 508 L 29 504 L 31 501 L 27 500 L 28 498 L 25 496 Q 21 495 23 501 L 20 503 L 21 501 Q 22 498 19 499 L 20 496 L 18 495 L 20 492 L 18 491 Z M 139 491 L 139 493 L 141 492 L 139 491 Z M 267 491 L 266 494 L 268 495 Q 267 492 271 493 L 271 492 L 270 492 L 267 491 Z M 90 492 Q 88 495 91 494 L 90 492 Z M 128 492 L 127 496 L 128 496 L 128 492 Z M 302 492 L 302 494 L 300 495 Q 297 499 295 498 Q 296 501 292 499 L 292 502 L 295 503 L 296 503 L 295 505 L 297 505 L 299 505 L 302 508 Q 303 510 301 509 L 299 509 Q 300 513 298 512 L 299 515 Q 297 519 295 516 L 296 512 L 283 511 L 281 509 L 280 512 L 277 513 Q 273 514 274 511 L 268 512 L 268 510 L 264 512 L 263 515 L 265 516 Q 264 511 268 513 Q 270 517 266 516 L 267 519 Q 268 521 266 520 L 263 524 L 261 523 L 261 522 L 259 521 L 261 517 L 259 518 L 256 515 L 255 515 Q 256 517 250 516 Q 247 515 250 513 L 252 514 L 254 511 L 252 509 L 251 511 L 248 512 L 246 512 L 241 511 L 241 509 L 239 512 L 236 512 L 236 517 Q 233 516 234 519 Q 236 520 234 521 L 233 520 L 225 520 L 223 520 L 221 521 L 217 520 L 214 516 L 215 514 L 209 512 L 207 512 Q 203 511 204 514 Q 201 515 202 512 L 198 509 L 197 512 L 194 511 Q 192 514 191 512 L 189 513 L 187 512 L 185 513 Q 178 515 177 512 L 174 513 L 172 512 L 170 512 L 168 513 L 164 511 L 161 512 L 159 509 L 157 512 L 155 511 L 151 512 L 148 513 L 145 512 L 142 513 Q 139 514 141 516 Q 140 518 143 517 L 144 517 Q 145 521 141 519 L 141 517 L 138 518 L 137 515 L 135 516 L 133 516 L 131 522 Q 130 526 133 525 L 135 518 L 137 522 L 137 526 L 135 529 L 137 532 L 136 534 L 137 536 L 136 538 L 140 545 L 140 543 Q 146 541 144 546 L 140 547 L 133 546 L 133 543 L 131 546 L 132 547 Q 125 549 126 545 L 130 544 L 128 543 L 130 540 L 128 532 L 128 528 L 127 525 Q 130 523 129 519 L 130 517 L 127 517 L 127 523 L 122 524 Q 120 519 124 520 L 124 518 L 122 518 L 122 516 Q 119 517 120 515 L 118 514 L 121 522 L 117 525 L 119 528 Q 120 531 117 530 L 120 538 L 119 540 L 123 543 L 122 546 Q 124 547 122 548 L 117 546 L 114 547 Q 112 545 111 548 Q 108 549 109 546 L 107 546 L 107 540 L 105 539 L 106 542 L 105 545 L 105 546 Q 107 545 106 548 L 106 549 L 135 549 L 136 548 L 141 549 L 143 549 L 145 548 L 190 548 L 186 546 L 188 543 L 191 545 L 193 544 L 205 545 L 207 545 L 207 544 L 210 539 L 217 541 Q 222 540 221 543 L 226 543 L 226 545 L 220 545 L 219 544 Q 214 543 214 546 L 209 544 L 207 547 L 283 547 L 282 545 L 285 543 L 284 547 L 294 547 L 296 544 L 294 545 L 290 544 L 290 541 L 296 541 L 297 544 L 298 542 L 300 542 L 305 539 L 302 535 Q 305 533 303 532 L 305 528 L 301 527 L 302 525 Q 303 521 301 522 L 299 519 Q 303 517 302 522 L 304 521 L 302 517 L 302 515 L 307 515 Q 306 509 310 507 L 308 503 Q 307 500 310 501 L 313 507 L 312 509 L 313 511 L 315 508 Q 319 509 317 505 L 320 505 L 323 501 Q 322 498 321 500 L 311 498 L 309 497 Q 310 494 312 496 L 314 495 L 312 493 Q 308 492 309 495 L 307 494 L 304 499 Q 303 501 307 500 L 305 503 L 306 504 L 304 507 L 302 503 L 303 494 L 306 494 L 302 492 Z M 148 493 Q 147 496 150 495 Q 151 492 148 493 Z M 169 493 Q 168 496 171 495 Q 172 497 173 495 L 169 493 Z M 212 493 Q 210 495 206 494 L 204 497 L 213 494 L 212 493 Z M 283 493 L 280 495 L 284 495 L 283 493 Z M 328 493 L 327 496 L 330 497 L 332 496 L 333 494 L 328 495 L 328 493 Z M 179 494 Q 177 497 180 496 L 179 494 Z M 182 494 L 181 497 L 182 497 L 182 494 Z M 277 494 L 275 496 L 276 498 L 277 498 L 277 494 Z M 267 495 L 265 497 Q 264 499 267 498 L 267 495 Z M 273 495 L 272 496 Q 269 495 270 500 L 271 500 Q 270 496 273 497 L 273 495 Z M 62 496 L 60 499 L 63 500 L 64 500 L 62 496 Z M 123 496 L 121 498 Q 122 500 124 498 L 126 499 L 126 497 L 123 496 Z M 129 496 L 128 498 L 131 499 L 129 496 Z M 145 496 L 142 499 L 140 499 L 135 497 Q 131 499 136 502 Q 135 504 138 503 Q 139 506 136 505 L 135 510 L 136 510 Q 135 507 138 508 L 141 504 Q 145 505 144 503 Q 141 501 145 500 L 145 496 Z M 153 497 L 152 500 L 153 500 L 153 497 Z M 178 497 L 176 500 L 179 500 L 178 497 Z M 183 497 L 180 504 L 182 503 Q 181 499 185 501 Q 186 498 183 499 L 183 497 Z M 186 497 L 186 499 L 191 499 L 191 497 L 186 497 Z M 220 497 Q 218 500 221 499 L 220 497 Z M 72 498 L 70 500 L 71 503 L 73 504 L 72 498 Z M 158 498 L 156 500 L 159 500 L 158 498 Z M 279 498 L 281 502 L 282 500 L 279 498 Z M 325 498 L 325 500 L 327 501 Q 328 497 325 498 Z M 115 499 L 113 505 L 112 502 Q 109 501 110 506 L 113 507 Q 111 512 117 510 L 116 508 Q 113 509 114 507 L 119 504 L 117 503 L 117 502 Q 118 498 115 499 Z M 227 499 L 223 501 L 227 501 L 227 499 Z M 273 499 L 272 501 L 274 500 L 273 499 Z M 67 500 L 69 508 L 70 508 Q 71 501 67 500 Z M 78 500 L 73 510 Q 72 512 79 511 Q 81 512 81 516 L 83 515 Q 82 506 78 500 Z M 211 500 L 209 503 L 211 502 Q 213 501 212 504 L 214 503 L 211 500 Z M 255 500 Q 252 504 256 503 L 255 500 Z M 131 501 L 130 503 L 125 505 L 123 509 L 120 508 Q 119 511 122 510 L 122 512 L 124 511 L 127 513 L 129 507 L 131 508 L 130 514 L 133 512 L 133 516 L 134 516 Q 135 510 132 509 L 132 503 L 131 501 Z M 277 502 L 276 504 L 273 505 L 275 505 Q 277 506 276 510 L 278 510 L 277 507 L 279 507 L 277 506 L 277 502 Z M 97 503 L 95 509 L 99 509 L 97 503 Z M 159 503 L 161 507 L 162 505 L 159 503 Z M 328 503 L 327 506 L 328 506 L 328 503 Z M 108 504 L 107 509 L 108 509 L 108 504 Z M 174 505 L 174 509 L 177 507 Q 178 503 174 505 Z M 34 506 L 32 509 L 34 508 L 34 506 Z M 149 506 Q 148 508 152 508 Q 153 505 149 506 Z M 184 506 L 183 511 L 185 510 L 184 506 Z M 168 507 L 167 511 L 168 511 L 168 507 Z M 51 508 L 50 510 L 52 509 L 52 511 L 53 511 Q 54 507 51 508 Z M 67 508 L 70 513 L 70 510 L 67 508 Z M 262 508 L 255 511 L 258 511 Q 259 514 257 513 L 257 514 Q 261 515 259 511 L 262 512 L 263 510 Q 264 507 262 508 Z M 333 508 L 328 510 L 322 509 L 321 512 Q 318 513 319 510 L 318 510 Q 315 509 316 512 L 311 513 L 312 517 Q 309 518 313 520 L 313 521 L 317 521 L 319 515 Q 322 513 330 514 L 331 518 L 328 520 L 326 519 L 323 520 L 321 520 L 322 521 L 330 521 Q 329 525 332 524 Q 333 527 330 526 L 330 527 Q 332 526 331 529 L 328 530 L 333 530 L 333 508 Z M 64 509 L 62 516 L 60 518 L 60 520 L 62 520 Q 61 523 64 522 Q 65 525 67 521 Q 63 517 64 509 Z M 217 509 L 218 512 Q 217 515 221 514 L 221 513 L 219 513 L 219 509 L 217 509 Z M 223 509 L 222 511 L 225 512 L 223 509 Z M 54 511 L 53 514 L 56 514 L 57 513 L 54 511 Z M 95 511 L 95 517 L 92 518 L 93 515 L 92 512 L 88 513 L 85 513 L 85 517 L 84 517 L 83 519 Q 86 518 84 522 L 77 520 L 78 516 L 74 517 Q 73 521 76 522 Q 77 524 75 523 L 75 524 Q 77 523 76 526 L 75 529 L 76 531 L 75 538 L 75 540 L 77 540 L 81 546 L 81 547 L 77 547 Q 76 550 81 549 Q 83 545 85 549 L 94 549 Q 95 545 99 546 L 98 549 L 101 549 L 100 547 L 101 543 L 98 542 L 100 539 L 98 536 Q 101 534 99 529 L 101 526 L 100 523 L 97 525 L 94 524 Q 91 525 92 521 L 88 520 L 89 518 L 88 514 L 91 516 Q 89 521 95 519 L 96 522 L 96 519 L 99 519 Q 97 517 98 513 L 95 511 Z M 72 512 L 72 519 L 73 516 L 72 512 Z M 140 512 L 137 513 L 138 515 L 140 514 L 140 512 Z M 229 512 L 229 514 L 227 515 L 225 515 Q 222 514 223 517 L 219 517 L 220 519 L 229 518 L 231 518 L 230 516 Q 231 513 233 515 L 233 514 L 229 512 Z M 22 513 L 20 515 Q 19 517 22 516 L 23 514 L 22 513 Z M 53 514 L 51 516 Q 50 518 53 517 L 53 514 Z M 116 514 L 115 517 L 117 518 L 116 514 Z M 122 514 L 122 516 L 124 515 L 122 514 Z M 113 516 L 111 518 L 113 518 L 113 516 Z M 309 516 L 307 518 Q 308 522 306 521 L 304 524 L 308 522 L 307 528 Q 306 531 310 530 L 312 530 Q 311 527 314 528 L 316 528 L 318 527 L 315 525 L 312 527 L 309 526 L 310 524 L 312 525 L 308 520 L 309 518 L 309 516 Z M 325 516 L 325 517 L 327 517 L 325 516 Z M 54 517 L 51 520 L 54 522 Q 53 519 56 520 L 54 517 Z M 72 520 L 68 524 L 70 524 Q 72 529 71 539 L 71 540 Q 73 539 72 543 L 73 543 L 72 529 Q 74 527 71 526 Q 69 521 73 522 L 72 520 Z M 115 520 L 112 523 L 113 528 Q 110 529 115 531 L 117 530 L 115 529 L 114 526 L 115 522 L 115 520 Z M 107 523 L 106 528 L 109 529 L 110 527 L 109 525 Q 110 522 107 523 Z M 322 523 L 322 524 L 324 524 L 322 523 Z M 13 524 L 12 528 L 13 528 L 13 524 Z M 66 524 L 64 526 L 61 525 L 59 529 L 62 527 L 66 528 L 68 525 L 66 524 Z M 325 526 L 325 527 L 327 527 L 325 526 Z M 132 527 L 130 529 L 132 530 L 132 527 Z M 68 529 L 66 531 L 62 530 Q 59 531 61 533 Q 60 536 63 535 Q 65 540 60 538 L 62 543 L 60 544 L 64 545 L 66 544 L 64 543 L 63 540 L 66 538 L 68 535 L 67 533 L 68 531 L 68 529 Z M 104 529 L 103 532 L 105 533 L 104 529 Z M 53 530 L 51 532 L 52 534 L 50 539 L 52 538 L 53 545 L 53 543 L 55 543 L 53 540 L 53 530 Z M 57 530 L 55 532 L 57 532 L 57 530 Z M 311 530 L 310 532 L 314 535 L 318 533 L 315 532 L 314 533 L 311 530 Z M 134 531 L 133 533 L 131 533 L 132 535 L 130 538 L 132 538 L 131 542 L 134 543 L 135 543 L 133 540 L 134 534 Q 136 532 134 531 Z M 107 532 L 108 536 L 109 543 Q 111 546 113 542 L 110 541 L 112 536 L 110 533 L 109 533 L 107 532 Z M 114 532 L 114 537 L 116 538 L 114 532 Z M 306 532 L 304 534 L 306 534 L 306 532 Z M 326 532 L 327 534 L 330 533 L 331 534 Q 332 531 326 532 Z M 59 535 L 59 538 L 60 538 Q 61 534 59 535 Z M 317 536 L 317 540 L 316 541 L 312 539 L 313 541 Q 312 545 316 543 L 316 546 Q 313 547 312 544 Q 309 543 310 546 L 310 547 L 322 547 L 324 546 L 327 547 L 326 542 L 330 543 L 332 542 L 332 545 L 328 547 L 333 547 L 334 545 L 333 541 L 333 539 L 334 537 L 329 536 L 329 539 L 328 538 Q 327 535 322 536 L 323 543 L 322 545 L 320 546 Q 317 545 319 544 L 318 542 Q 319 535 317 536 Z M 306 537 Q 307 542 304 543 Q 300 542 301 545 L 299 546 L 299 547 L 307 547 L 305 544 L 309 541 L 310 539 L 306 537 Z M 12 539 L 12 541 L 14 540 L 12 539 Z M 116 541 L 114 543 L 118 545 L 120 544 L 116 541 Z M 16 544 Q 14 547 12 546 L 13 548 L 16 546 L 16 544 Z M 71 544 L 70 546 L 68 547 L 66 547 L 62 548 L 60 548 L 58 547 L 55 548 L 53 548 L 54 549 L 73 549 L 71 544 Z M 22 546 L 21 548 L 25 550 L 26 548 L 25 548 L 22 546 Z M 18 547 L 16 550 L 19 549 Q 20 546 18 547 Z M 196 547 L 196 548 L 200 548 L 196 547 Z M 212 550 L 211 551 L 148 551 L 146 552 L 143 551 L 137 552 L 135 552 L 133 551 L 131 552 L 52 552 L 50 552 Q 45 551 44 553 L 41 552 L 40 553 L 12 553 L 12 578 L 11 579 L 12 593 L 15 593 L 43 593 L 44 592 L 47 593 L 51 592 L 53 593 Q 54 590 61 592 L 63 592 Q 67 591 69 593 L 72 592 L 89 592 L 90 593 L 91 592 L 106 592 L 108 591 L 109 589 Q 108 579 103 574 Q 102 569 106 568 Q 112 566 110 571 L 106 570 Q 106 575 110 577 L 110 573 Q 114 572 115 576 Q 117 580 113 579 L 111 579 L 113 584 L 112 591 L 112 592 L 151 592 L 152 591 L 157 592 L 172 591 L 174 591 Q 178 590 180 592 L 182 591 L 299 591 L 304 590 L 306 591 L 309 590 L 333 590 Q 334 590 333 586 L 334 584 L 330 585 L 328 582 L 324 585 L 318 583 L 312 584 Q 315 582 314 576 L 318 574 L 319 577 L 318 579 Q 319 581 324 580 L 326 577 L 325 572 L 322 568 L 320 569 L 315 568 L 311 564 L 312 561 L 318 556 L 329 557 Q 330 562 328 563 Q 326 559 320 560 L 318 564 L 321 566 L 328 566 L 331 573 Q 331 578 328 581 L 329 582 L 333 580 L 334 581 L 334 552 L 333 550 L 219 550 L 218 551 L 212 550 Z "></path><path d="M 21.5 137 L 25.5 138 L 28 140.5 Q 29.1 143.8 26.5 143 L 23.5 139 Q 19.5 140 21.5 137 Z "></path><path d="M 18.5 138 L 20 138.5 L 15 142.5 Q 15.7 145.1 13 144 L 15.5 139 L 18.5 138 Z "></path><path d="M 16.5 144 L 18 144.5 L 15.5 149 L 15 145.5 L 16.5 144 Z "></path><path d="M 25.5 173 L 31 174 L 32 178 Q 29.3 179.1 30 176.5 L 25.5 174 L 25.5 173 Z "></path><path d="M 31.5 181 L 32 184 Q 29.3 185.1 30 182.5 L 31.5 181 Z "></path><path d="M 72.5 181 L 80 186.5 L 81 190.5 L 75.5 197 Q 71.8 196.3 71 198.5 L 71 201 Q 73.7 199.9 73 202.5 L 80 205.5 L 77.5 207 L 75.5 207 Q 70 206.6 68 202.5 Q 66.8 196.4 69.5 197 L 75.5 195 L 78 192.5 Q 79.3 185.3 74.5 184 L 69.5 183 L 66 189 L 59.5 193 L 59 191 L 51 186.5 L 52.5 186 L 55.5 187 L 55.5 186 L 49.5 184 L 44.5 184 L 44.5 185 Q 48.3 184 47 187 L 44.5 186 L 42.5 186 Q 34.5 187 30.5 192 L 30 190.5 L 38 185.5 L 35.5 185 L 33.5 186 L 33.5 185 Q 39.3 181.3 50.5 183 Q 52.8 185.7 58.5 185 L 63.5 188 L 67.5 182 L 72.5 181 Z "></path><path d="M 57.5 192 L 58 193.5 Q 54.5 194 55 198.5 L 58 206.5 L 60.5 209 L 67.5 212 L 72.5 212 L 74 211.5 L 72.5 214 L 58.5 215 L 52 209.5 L 51 201 Q 54.7 202.3 53 196.5 L 55.5 193 L 57.5 192 Z M 54 204 Q 52 208 55 210 L 61 214 L 65 214 L 58 210 L 54 204 Z "></path><path d="M 19.5 219 L 23 223.5 L 21.5 224 Q 17.8 222.8 19.5 219 Z "></path><path d="M 34.5 223 Q 40.7 222.3 42 226.5 L 43 231.5 Q 40.9 238.4 30.5 237 L 30.5 236 Q 37.1 235.6 40 231.5 Q 40.8 225.8 36.5 225 L 34 226.5 Q 33.3 228.8 35.5 228 Q 38.5 229.5 35.5 231 L 31 227.5 L 34.5 223 Z "></path><path d="M 66.5 237 L 76.5 238 Q 77.8 235.8 79 238.5 L 76.5 240 L 75.5 239 L 62.5 239 L 53.5 245 L 51.5 244 L 47 249.5 L 46 262.5 L 49 273.5 L 48 273.5 Q 42.5 267 43 254.5 Q 45.2 246.2 51.5 242 Q 53.8 241.3 53 243.5 L 57.5 240 L 66.5 237 Z "></path><path d="M 21.5 244 L 22.5 246 L 19 248.5 L 18 251.5 Q 20.3 252.8 17.5 254 L 16 248.5 L 21.5 244 Z "></path><path d="M 187.5 258 Q 191 260 186.5 262 L 186 259.5 L 187.5 258 Z "></path><path d="M 187 263 L 192 265.5 L 189.5 266 L 187 265 L 187 263 Z "></path><path d="M 28.5 266 L 25.5 270 L 24 269.5 L 28.5 266 Z "></path><path d="M 73.5 268 Q 78 269 77 275.5 L 72.5 282 Q 70.2 284.7 64.5 284 L 63.5 282 Q 70 283 72 279.5 Q 75 277.5 74 271.5 L 73.5 268 Z "></path><path d="M 69 271 L 72 272.5 Q 72.8 278.3 68.5 279 Q 65.9 279.8 67 276.5 L 69 276.5 L 69 271 Z "></path><path d="M 51.5 277 Q 52.6 279.8 56 279 Q 57.1 281.7 54.5 281 L 51 278.5 L 51.5 277 Z "></path><path d="M 57.5 281 L 61 282 Q 62.3 285 58.5 284 L 56 282.5 L 57.5 281 Z "></path><path d="M 245.5 295 L 247 295.5 Q 237.4 301.9 223.5 304 L 209.5 312 L 203.5 312 L 199 311 L 199.5 309 L 202.5 310 L 204.5 309 L 208.5 311 L 219.5 304 L 240.5 298 L 245.5 295 Z "></path><path d="M 23 298 L 30 302.5 Q 30.8 304.8 28.5 304 L 23 299.5 L 23 298 Z "></path><path d="M 47 299 Q 50 297.8 49 301.5 L 48 307 Q 45.3 308.1 46 305.5 L 47 299 Z "></path><path d="M 77.5 302 Q 83.7 301.3 85 305.5 L 87 314.5 L 82.5 321 L 77.5 323 L 67.5 324 L 60 319 L 56 310.5 L 56 305.5 L 58 306.5 L 58 312.5 L 61 318 L 66.5 321 L 64 317.5 Q 60.5 313.5 62 304.5 L 64 303.5 L 63 311.5 Q 64.3 317.3 68.5 320 L 76.5 321 L 83 318 L 85 309.5 L 81.5 304 Q 75 303 73 306.5 L 74 311.5 L 73 311.5 L 72 304 L 77.5 302 Z "></path><path d="M 50 304 Q 54 302.6 52 309.5 L 51 309.5 L 50 304 Z "></path><path d="M 40.5 313 L 41 314.5 L 35.5 318 Q 32.5 316.5 35.5 315 L 40.5 313 Z "></path><path d="M 45.5 316 L 46.5 318 L 39 321 Q 37.8 318 41.5 319 L 45.5 316 Z "></path><path d="M 113.5 317 L 120 322.5 L 123 328.5 L 123 333.5 L 122 336 Q 119.3 337.1 120 334.5 Q 122.5 333 121 327.5 L 114.5 319 Q 111.7 319.7 113.5 317 Z "></path><path d="M 95.5 319 Q 98.1 318.3 97 321 L 95 321 Q 96.1 323.7 93.5 323 L 92 326 L 84.5 327 L 83.5 325 L 86.5 325 L 93 321.5 Q 92.3 319.3 94.5 320 L 95.5 319 Z "></path><path d="M 28 321 L 31 321.5 L 29 325 Q 26.3 323.9 27 326.5 Q 22.5 332 24 343.5 Q 26 354 31 360 L 36 361 Q 37.3 364 33.5 363 L 30 360.5 L 23 346.5 L 22 332.5 L 28 321 Z "></path><path d="M 45.5 321 L 46.5 323 Q 41 323.5 39 327.5 Q 33.9 331.9 36 343.5 L 37 346.5 L 36 346.5 Q 32.7 341.8 34 332.5 L 41.5 323 L 45.5 321 Z "></path><path d="M 116.5 326 Q 119.9 328.6 119 335.5 L 115.5 342 Q 113.3 342.8 114 340.5 L 117 335.5 L 117 328.5 L 116.5 326 Z "></path><path d="M 31.5 328 L 32 330.5 Q 28.1 333.1 29 340.5 L 31 350.5 L 34 355.5 L 31 353.5 L 28 345.5 L 27 334.5 L 31.5 328 Z "></path><path d="M 96.5 347 L 103 348.5 L 98.5 350 L 96 349 L 96.5 347 Z "></path><path d="M 89 349 Q 92.7 352.4 101.5 352 L 109.5 349 L 107.5 352 L 98.5 354 L 95.5 353 L 89 351 L 89 349 Z "></path><path d="M 36.5 352 L 44 361.5 L 42.5 362 Q 36.8 358.6 36.5 352 Z "></path><path d="M 75.5 356 Q 78.5 357.5 75.5 359 Q 73.3 359.8 74 357.5 L 75.5 356 Z "></path><path d="M 39.5 361 L 50.5 369 L 61 371.5 L 53.5 372 Q 43.9 369.6 39 362.5 L 39.5 361 Z "></path><path d="M 78.5 362 L 80 364.5 L 73.5 372 L 65.5 376 L 61 376 Q 59.7 372.7 64.5 374 Q 72.5 371.5 77 365.5 L 78.5 362 Z "></path><path d="M 105.5 371 L 106 376.5 Q 102.7 382.7 93.5 383 Q 86.9 382.1 84 377.5 L 84.5 376 Q 87.2 381.8 96.5 381 L 104 375.5 L 105.5 371 Z "></path><path d="M 87.5 373 L 92.5 377 L 96.5 375 L 97 376.5 Q 95.8 379.3 90.5 378 L 88 377 L 87.5 373 Z "></path><path d="M 242.5 402 Q 246.3 401 245 404 L 242.5 402 Z "></path><path d="M 243 405 Q 245.7 403.9 245 406.5 L 243 407.5 L 243 405 Z "></path><path d="M 257.5 406 Q 261.3 405 260 408 L 257.5 409 Q 254.5 407.5 257.5 406 Z "></path><path d="M 222 407 Q 225 406 224 409 Q 221 410 222 407 Z "></path><path d="M 312.5 427 L 314 427 L 314 431 L 315.5 431 L 317 434 L 312.5 437 L 312 435.5 L 314 432.5 L 311 428.5 L 312.5 427 Z "></path><path d="M 245 429 Q 247.7 427.9 247 430.5 Q 245.7 434 241 433 L 241 431 Q 246.2 432.7 245 429 Z "></path><path d="M 318.5 429 L 319.5 431 L 317 430.5 L 318.5 429 Z "></path><path d="M 325.5 429 Q 327.8 428.3 327 430.5 L 328 434.5 Q 327.3 436.8 323.5 436 Q 320.3 434.8 321 431 Q 324.4 431.8 325.5 429 Z "></path><path d="M 235.5 430 Q 238.8 428.9 238 431.5 L 235.5 433 Q 232.5 431.5 235.5 430 Z "></path><path d="M 258.5 437 Q 261.1 436.3 260 439 L 257 438.5 L 258.5 437 Z "></path><path d="M 287 438 Q 290 437 289 440 Q 286 441 287 438 Z "></path><path d="M 173.5 441 L 175 441.5 L 172 446.5 L 175 448.5 L 170 452 L 171 448.5 L 169 445.5 L 173.5 441 Z "></path><path d="M 256 441 Q 259.8 440 261 442.5 L 256 443 L 256 441 Z "></path><path d="M 64 447 L 70 447 L 70 451 L 65 450 Q 63.5 453.8 66.5 453 L 68.5 453 Q 70.8 452.3 70 454.5 Q 68.7 458 64 457 L 61 451.5 L 64 450 L 64 447 Z "></path><path d="M 34.5 449 L 38 450 Q 39.1 452.7 36.5 452 L 35 454.5 L 36.5 454 Q 39.5 453.2 38 457 L 33.5 458 L 31 455.5 Q 34.5 454 32 452.5 Q 30.9 449.2 33.5 450 L 34.5 449 Z "></path><path d="M 53 450 Q 56 449 55 452 Q 52 453 53 450 Z "></path><path d="M 122.5 452 L 126 452.5 Q 124.8 455.3 123.5 453 L 122.5 452 Z "></path><path d="M 174.5 452 Q 177.5 453.5 174.5 455 Q 171.5 453.5 174.5 452 Z "></path><path d="M 302 453 L 305 454.5 L 302 456 L 302 453 Z "></path><path d="M 57.5 455 L 58 456.5 L 56 457.5 L 57.5 455 Z "></path><path d="M 156.5 455 Q 159.8 453.9 159 456.5 L 158 460 Q 153.5 461.8 155 456.5 L 156.5 455 Z "></path><path d="M 142.5 457 L 144 457 L 144 459 Q 146.7 457.9 146 460.5 Q 145.3 462.8 141.5 462 L 141 459.5 L 142.5 457 Z "></path><path d="M 96.5 459 Q 99.5 460.5 96.5 462 Q 94.3 462.8 95 460.5 L 96.5 459 Z "></path><path d="M 176 459 L 179 459.5 L 176 461 L 176 459 Z "></path><path d="M 231 491 Q 234 490 233 493 Q 230 494 231 491 Z "></path><path d="M 250 493 Q 253 492 252 495 Q 249 496 250 493 Z "></path><path d="M 98 496 L 102 497.5 Q 103.1 500.8 100.5 500 L 98 496 Z "></path><path d="M 305.5 507 Q 307.8 506.3 307 508.5 L 305 514 Q 300.9 515.3 302 512 L 304 511.5 L 303 508 L 305.5 507 Z "></path><path d="M 330.5 510 Q 333.5 509.2 332 513 L 329 511.5 L 330.5 510 Z "></path><path d="M 278.5 513 L 280.5 514 L 284 513 L 284 515.5 L 280.5 520 L 277 518.5 L 276 516.5 L 278.5 513 Z "></path><path d="M 28.5 514 Q 32.3 513 31 516 L 28.5 514 Z "></path><path d="M 170 514 L 174 515.5 Q 174.8 518.1 171.5 517 L 170 514 Z "></path><path d="M 196.5 514 Q 199.1 513.3 198 516 L 200.5 516 L 202 518.5 L 199 520 L 197.5 517 L 190 518 Q 188.5 514.2 191.5 515 L 193.5 516 L 196.5 514 Z "></path><path d="M 272 514 Q 276.5 512.3 275 517.5 Q 273.3 521.8 271.5 519 Q 267.3 520.1 269 516 Q 273.1 517.3 272 514 Z "></path><path d="M 314.5 514 L 317 515.5 L 315.5 518 Q 313.3 518.8 314 516.5 Q 311.8 515.3 314.5 514 Z "></path><path d="M 145 515 Q 149.5 513.5 148 518 Q 143.5 519.5 145 515 Z "></path><path d="M 157.5 515 Q 160.1 514.2 159 517.5 L 156 519 L 157.5 515 Z "></path><path d="M 203 515 Q 207.5 513.3 206 518.5 Q 204.5 521.5 203 518.5 L 203 515 Z "></path><path d="M 287.5 515 L 289 518.5 L 286 520 L 285 516 L 287.5 515 Z "></path><path d="M 175 516 Q 180.3 515.3 183 518.5 Q 181.8 521 178 520 L 177.5 518 L 175 519 L 175 516 Z "></path><path d="M 208.5 516 Q 212.3 514.8 211 518.5 L 207 520 L 208.5 516 Z "></path><path d="M 290 516 Q 294.5 514.5 293 519 Q 288.5 520.5 290 516 Z "></path><path d="M 29.5 518 Q 31.8 517.3 31 519.5 L 28 521 L 29.5 518 Z "></path><path d="M 43 520 Q 46 518.8 45 522.5 L 43 521.5 L 43 520 Z "></path><path d="M 269 520 Q 272.3 518.7 271 523.5 L 272 527 Q 267.9 528.3 269 525 L 265 525 L 265 522 Q 270.2 523.7 269 520 Z "></path><path d="M 170.5 521 Q 172.8 520.3 172 522.5 Q 170.5 525.5 169 522.5 L 170.5 521 Z "></path><path d="M 187 521 Q 191.5 519.5 190 524 L 187 522.5 L 187 521 Z "></path><path d="M 203 521 Q 207.5 519.5 206 524 Q 201.5 525.5 203 521 Z "></path><path d="M 210 521 Q 213.8 520.3 215 523.5 L 214.5 525 L 212.5 524 L 213.5 526 L 217 527 Q 218.1 529.7 215.5 529 L 213.5 528 Q 212.4 530.8 209 530 L 210 527.5 L 208 524 Q 211.3 525.1 210 521 Z "></path><path d="M 274 521 Q 278.5 519.5 277 524 L 274 522.5 L 274 521 Z "></path><path d="M 26 522 Q 30.5 520.5 29 525 Q 24.5 526.5 26 522 Z "></path><path d="M 293 522 Q 296.8 520.5 296 523.5 L 293 525 L 293 522 Z "></path><path d="M 30 523 Q 34.5 521.5 33 526 Q 28.5 527.5 30 523 Z "></path><path d="M 150.5 523 Q 154.3 521.8 153 525.5 L 150 527 L 149 524.5 L 150.5 523 Z "></path><path d="M 154 523 L 158 524 Q 159.2 527.7 154 526 L 154 523 Z "></path><path d="M 160 523 L 164 523 L 164 524.5 L 160 526 L 160 523 Z "></path><path d="M 183 523 Q 187.1 521.7 186 525 Q 181.9 526.3 183 523 Z "></path><path d="M 36 524 Q 40.1 522.7 39 526 Q 34.9 527.3 36 524 Z "></path><path d="M 78.5 524 Q 81.8 522.9 81 525.5 L 80 528 L 77 526.5 L 78.5 524 Z "></path><path d="M 199.5 524 Q 202.5 523.2 201 527 Q 197.2 528.5 198 525.5 L 199.5 524 Z "></path><path d="M 290.5 524 L 292 524 L 292 528 Q 287.9 529.7 289 525.5 L 290.5 524 Z "></path><path d="M 42 525 L 45 525.5 L 44 528 Q 40.7 529.1 42 525 Z "></path><path d="M 122 525 L 126 526.5 L 123.5 528 L 122 525 Z "></path><path d="M 138 525 Q 141.8 523.5 141 526.5 L 142.5 526 Q 145.5 525.2 144 529 L 139.5 531 L 138 527.5 L 138 525 Z "></path><path d="M 280.5 525 L 283 526.5 Q 282.3 524.3 284.5 525 L 286 529 L 277.5 531 L 275 529.5 L 279 528 L 280.5 525 Z "></path><path d="M 294 526 Q 298.1 524.7 297 528 Q 292.9 529.3 294 526 Z "></path><path d="M 32 527 Q 36.1 525.3 35 529.5 L 33.5 529 Q 30.9 529.7 32 527 Z "></path><path d="M 263 527 Q 266.7 525.5 266 528.5 L 265.5 530 L 268.5 531 L 272 530 L 271 533.5 L 272 535.5 L 271 537.5 L 273.5 536 Q 278.3 534.7 277 538 L 275 538.5 L 276 541 L 271 542 L 271 540 Q 268.3 541.1 269 538.5 L 266.5 535 L 262.5 537 Q 260.5 533 258.5 537 L 255 535.5 L 254.5 534 L 251 535 Q 249.7 531.7 254.5 533 L 256.5 533 L 262 532 L 263 527 Z M 265 532 L 265 534 L 270 534 L 270 533 L 269 533 L 265 532 Z "></path><path d="M 91.5 528 L 95 529.5 Q 96.9 535.8 92 534 Q 93.1 530.7 89 532 L 89 529 L 91.5 528 Z "></path><path d="M 25 529 Q 28.8 527.5 28 530.5 L 28.5 532 L 25 531 L 25 529 Z "></path><path d="M 189 529 L 195 530 Q 196.6 534.9 191 533 L 190.5 531 L 189 531.5 L 189 529 Z "></path><path d="M 197.5 529 L 199.5 532 Q 195.1 533.5 196 530.5 L 197.5 529 Z "></path><path d="M 77 530 Q 81.1 528.7 80 532 Q 75.9 533.3 77 530 Z "></path><path d="M 86.5 530 L 87 532.5 L 84 534 Q 82.5 530.2 85.5 531 L 86.5 530 Z "></path><path d="M 286.5 530 Q 291 532 287.5 534 L 285 534.5 L 287 535 Q 288.5 538.8 285.5 538 L 284 534.5 L 286.5 530 Z "></path><path d="M 215.5 531 Q 217.8 530.3 217 532.5 L 214 534 L 215.5 531 Z "></path><path d="M 63.5 532 Q 67.3 531 66 534 L 62 533.5 L 63.5 532 Z "></path><path d="M 121.5 532 Q 124.5 531.1 123 535.5 L 124.5 535 Q 127.8 533.9 127 536.5 L 123 538 Q 124.1 534.7 120 536 L 120 533.5 L 121.5 532 Z "></path><path d="M 175.5 532 L 176 535 L 170.5 536 L 169 533 L 172.5 534 L 175.5 532 Z "></path><path d="M 298.5 532 Q 302.3 530.8 301 534.5 Q 299 538 297 533.5 L 298.5 532 Z "></path><path d="M 30.5 533 L 32.5 534 L 34.5 533 L 36 536 L 30.5 537 L 29 534.5 L 30.5 533 Z "></path><path d="M 37 533 L 41 534.5 Q 41.8 537.1 38.5 536 L 37 533 Z "></path><path d="M 179.5 533 Q 182.1 532.2 181 535.5 Q 179.5 538.5 178 535.5 L 179.5 533 Z "></path><path d="M 198.5 533 Q 200.8 532.3 200 534.5 L 197.5 536 L 196.5 534 L 198.5 533 Z "></path><path d="M 149.5 534 Q 153.7 532.9 152 537 L 148 535.5 L 149.5 534 Z "></path><path d="M 209.5 534 Q 213.9 532.5 213 535.5 Q 211.6 538.3 207 537 Q 205.9 534.3 208.5 535 L 209.5 534 Z "></path><path d="M 279.5 534 L 282 535 Q 283.5 538.8 280.5 538 Q 276 536 279.5 534 Z "></path><path d="M 293 534 L 297 535.5 L 294.5 537 L 293 534 Z "></path><path d="M 143.5 535 L 146 536.5 L 142 538 L 143.5 535 Z "></path><path d="M 156 535 Q 161.2 533.3 160 537 Q 154.8 538.7 156 535 Z "></path><path d="M 288 535 L 292 535 L 292 536.5 L 289.5 538 L 288 535 Z "></path><path d="M 215.5 536 Q 219.3 535 218 538 L 214 537.5 L 215.5 536 Z "></path><path d="M 78 537 Q 82.1 535.3 81 539.5 Q 79.5 542.5 78 539.5 L 78 537 Z "></path><path d="M 174.5 537 Q 178.3 536 177 539 L 174.5 540 Q 171.5 538.5 174.5 537 Z "></path><path d="M 323 537 L 327 538.5 L 323 540 L 323 537 Z "></path><path d="M 83.5 538 Q 87.7 536.9 86 541 L 82 539.5 L 83.5 538 Z "></path><path d="M 160.5 538 Q 163.5 537.2 162 541 Q 156.8 542.7 158 539 L 160.5 538 Z "></path><path d="M 32.5 539 L 34 542.5 L 33 545 L 30 543.5 L 30 541.5 Q 29.3 539.3 31.5 540 L 32.5 539 Z "></path><path d="M 39.5 539 Q 42.5 538.2 41 542 Q 37.2 543.5 38 540.5 L 39.5 539 Z "></path><path d="M 88.5 539 L 91 540.5 L 88.5 542 Q 85.5 540.5 88.5 539 Z "></path><path d="M 192.5 539 L 195 540.5 L 193.5 543 L 191 542 L 192.5 539 Z "></path><path d="M 259 539 Q 263.1 537.7 262 541 Q 257.9 542.3 259 539 Z "></path><path d="M 196 540 Q 200.5 538.5 199 543 Q 194.5 544.5 196 540 Z "></path><path d="M 200 540 Q 203.8 539 205 541.5 L 201.5 543 L 200 540 Z "></path><path d="M 96.5 541 L 98 543.5 Q 96.5 546.5 95 543.5 L 96.5 541 Z "></path><path d="M 147.5 541 Q 150 542.2 149 546 Q 145.3 547.5 146 544.5 L 145 542 L 147.5 541 Z "></path><path d="M 264.5 541 Q 268.9 539.5 268 542.5 Q 271.8 544.3 268.5 546 L 266 544.5 L 265.5 543 L 261.5 545 Q 258.5 543.5 261.5 542 L 264.5 541 Z "></path><path d="M 83.5 542 Q 88.3 540.7 87 544 Q 83.2 544.8 83.5 542 Z "></path><path d="M 182.5 542 L 184 544.5 L 181.5 546 L 180 543 L 182.5 542 Z "></path><path d="M 278.5 542 Q 281.5 541.2 280 545 L 277.5 546 L 276 543 L 278.5 542 Z "></path><path d="M 151.5 543 L 153 545.5 Q 151.5 548.5 150 545.5 L 151.5 543 Z "></path><path d="M 170.5 543 Q 174.7 541.9 173 546 L 169 546 L 169 544.5 L 170.5 543 Z "></path><path d="M 174 543 Q 179.6 541.1 178 546 Q 172.4 547.9 174 543 Z "></path><path d="M 271 543 Q 276.2 541.3 275 545 Q 269.8 546.7 271 543 Z "></path><path d="M 37.5 544 L 41 545.5 Q 41.8 548.1 38.5 547 Q 37 544.5 35.5 548 L 33 546.5 L 37.5 544 Z "></path><path d="M 158 544 L 163 544 L 163 545.5 L 160.5 547 L 158 546 L 158 544 Z "></path><path d="M 341.5 544 L 343 548.5 L 341.5 551 L 341 549.5 L 341 547.5 L 341.5 544 Z "></path><path d="M 87.5 545 L 88 546.5 L 85 548 Q 83.9 545.3 86.5 546 L 87.5 545 Z "></path><path d="M 42.5 546 Q 46.3 545 45 548 L 42.5 546 Z "></path><path d="M 292.5 556 L 294.5 557 L 296.5 557 L 298.5 556 L 309 556 L 309 561 L 306 561 L 306 558 L 299 558 L 299 566.5 L 301.5 567 L 303 564 L 305 564.5 L 305 572 L 300.5 569 L 299 570.5 L 299 579.5 Q 299.8 581.8 303.5 581 L 305.5 581 L 308 579.5 L 310.5 576 L 311 579.5 L 307.5 584 L 297.5 585 L 295.5 585 L 292 583.5 L 294 575.5 L 293 573.5 L 294 572.5 L 294 559 Q 290.3 560.5 291 557.5 L 292.5 556 Z "></path><path d="M 70.5 557 L 80.5 558 L 82.5 557 L 87 558 Q 88 561.8 85.5 563 L 83.5 564 L 83 560 L 76.5 560 L 75 561.5 L 76 564.5 L 75 568 L 79.5 565 Q 82 566 81 570.5 L 80 573 L 77 571.5 Q 77.7 568.9 75 570 L 76 580 L 83.5 580 L 89 577 L 85.5 585 L 83.5 584 L 69.5 584 Q 68.3 586.3 67 583.5 L 69 574.5 L 68 573.5 L 68 560.5 L 67 558 L 70.5 557 Z "></path><path d="M 122.5 557 L 124.5 557 L 126.5 558 L 139.5 558 L 143 560.5 L 144 563.5 L 141.5 568 L 135.5 571 L 130 571 L 131 584 L 123.5 585 L 122.5 583 L 124 582.5 L 124 560 L 121 558.5 L 122.5 557 Z M 130 560 L 130 568 L 137 568 L 139 565 L 138 563 L 138 560 L 130 560 Z "></path><path d="M 152.5 557 L 156.5 558 Q 158 555.5 163.5 557 L 165 560.5 Q 163 565 161 561.5 L 160.5 560 L 154 560 L 154 569 L 157.5 569 L 159 566 Q 162.3 564.7 161 569.5 L 162 571.5 L 161 574 L 158 572.5 L 158 571 L 154 571 L 154 580.5 L 155.5 582 L 162.5 582 L 163 580.5 L 167 579 L 165 584 L 153.5 584 L 151.5 585 L 149.5 584 L 147 585 L 149 576.5 L 148 575.5 L 148 560 L 145 559.5 L 146.5 558 Q 151.3 559.3 152.5 557 Z "></path><path d="M 193.5 557 L 197 558.5 L 194 560 L 193 565.5 L 193 585 L 187 583 L 184 577 Q 181.3 578.1 182 575.5 L 178.5 570 L 177 581.5 L 178.5 584 Q 173.1 583.4 171 585 Q 170.3 581.9 173 582.5 L 173 576.5 L 173 574.5 L 173 560.5 L 171.5 560 L 170.5 558 L 177.5 558 L 178 560.5 L 189.5 577 L 190 560.5 L 187 558.5 L 193.5 557 Z "></path><path d="M 200.5 557 L 210.5 558 L 212.5 558 L 217.5 557 L 219.5 557 L 223 557 L 223 563 L 220 561.5 L 219.5 560 L 214 560 L 213 562.5 L 214 563.5 L 214 580.5 L 216 584 L 213.5 585 L 208.5 584 Q 207.3 586.3 206 583.5 Q 210 578.5 208 567.5 L 206.5 560 L 204.5 560 Q 200 559.5 199.5 563 Q 197 561.8 198 558 L 200.5 557 Z "></path><path d="M 229.5 557 L 241.5 557 L 242 559.5 L 246 571.5 L 246 575.5 L 249.5 582 Q 252.1 581.3 251 584 L 241 585 L 242 578.5 L 238.5 571 Q 232.3 569.3 230.5 572 L 229 571.5 L 225 583 L 227 583.5 L 219 585 L 220.5 582 L 223 580.5 L 231 559.5 L 228 558.5 L 229.5 557 Z M 234 559 L 231 567 Q 228 568 233 570 L 239 569 L 236 561 Q 237 558 234 559 Z "></path><path d="M 258.5 557 L 270 558 Q 270.7 563.3 267.5 566 L 265 564.5 L 266 560.5 L 262.5 559 L 257 563.5 Q 254.1 567.1 255 574.5 L 258.5 581 L 264.5 583 L 269 581 Q 270.1 583.7 267.5 583 L 266.5 584 L 258.5 584 L 254.5 583 L 251 579.5 Q 247.7 574.8 249 565.5 L 254.5 559 L 258.5 557 Z "></path><path d="M 272 557 L 282 557.5 L 279 559 L 279 581.5 Q 279.3 582.8 285.5 582 L 288 578 L 290.5 577 Q 293.3 578.2 291 579.5 L 288.5 584 L 272 583.5 L 273 582.5 L 273 559.5 L 272 557 Z "></path><path d="M 24.5 558 L 30.5 559 L 32.5 558 Q 35.3 559.3 33 560.5 L 33 567.5 L 35 571.5 L 36 581 L 41 583.5 Q 39.3 586.8 32.5 585 L 31 583.5 L 30 573.5 L 28.5 572 Q 21.7 570.2 20 573.5 L 18 582 L 21 583.5 L 20.5 585 L 12 585 L 13.5 582 L 16 580.5 L 22 561 Q 16.8 562.7 18 559 L 24.5 558 Z M 25 561 L 23 567 L 23 570 L 29 570 Q 27 568 28 563 L 25 561 Z "></path><path d="M 52.5 558 L 54.5 559 L 56.5 559 Q 61.9 557.1 61 560.5 L 62 564.5 Q 61.5 567.5 57.5 567 L 56 564.5 L 57 562.5 Q 55.8 559.8 50.5 561 L 47 563.5 Q 42.7 565.7 44 573.5 L 49.5 580 L 55.5 581 L 62 579 L 60.5 583 Q 56.8 586.3 48.5 585 L 41 579.5 Q 37.8 576.2 39 568.5 L 45.5 560 L 52.5 558 Z "></path><path d="M 341.5 562 L 343 562.5 L 340.5 564 L 341.5 562 Z "></path><path d="M 98.5 576 Q 103.3 575.3 104 578.5 Q 106.1 584.4 101.5 583 L 97.5 584 L 95 583 L 94 580.5 L 96.5 577 L 98.5 576 Z M 99 579 L 100 581 Q 101 578 99 579 Z "></path><path d="M 340.5 589 L 341 592.5 L 340 592.5 L 340.5 589 Z "></path><path d="M 344.5 589 Q 347.3 590.3 345 591.5 L 344.5 593 L 344.5 589 Z "></path></svg>