<svg width="350" height="600" version="1.1" xmlns="http://www.w3.org/2000/svg" desc="Created with imagetracer.js version 1.2.5"><path d="M 320.5 5 L 333.5 5 L 335 6.5 L 335 83.5 Q 337.5 85 336 90.5 L 336 92.5 L 336 269.5 L 337 271.5 L 337 273.5 L 337 315.5 L 338 317.5 L 337 318.5 L 337 384.5 L 338 386.5 L 337 388.5 L 337 390.5 L 338 409.5 L 337 414.5 L 338 419.5 L 337 420.5 L 337 441.5 L 337 443.5 L 338 461.5 L 337 465.5 L 338 467.5 L 337 468.5 L 337 510.5 L 338 511.5 L 338 520.5 L 337 521.5 L 337 546.5 L 338 547.5 L 338 575.5 L 337 578.5 L 338 579.5 L 338 591.5 L 335.5 594 L 232.5 594 Q 231.3 596.3 226.5 595 L 225.5 594 L 195.5 594 L 194.5 595 L 158.5 595 Q 157 592.5 151.5 594 L 149.5 594 L 146.5 595 L 145.5 594 L 80.5 594 L 79.5 595 L 67.5 595 L 65.5 594 L 64.5 595 L 45.5 595 L 44.5 594 L 7.5 594 L 6 592.5 L 7 585.5 L 7 583.5 L 7 497.5 L 6 496.5 L 7 492.5 L 6 490.5 L 7 489.5 L 7 452.5 L 6 448.5 L 7 443.5 L 6 438.5 L 7 433.5 L 7 431.5 L 7 396.5 L 6 392.5 L 7 391.5 L 7 208.5 L 7 206.5 Q 8.3 201.8 6 200.5 L 7 199.5 L 7 98.5 L 6 97.5 L 6 16.5 L 7 12.5 L 6 8.5 L 7.5 7 L 53.5 7 L 55.5 8 L 56.5 7 L 78.5 7 L 80.5 7 L 98.5 7 L 99.5 8 L 100.5 7 L 158.5 7 L 159.5 6 L 161.5 7 L 165.5 6 L 167.5 7 L 168.5 6 L 319.5 6 L 320.5 5 Z M 314 8 L 313 9 L 263 9 L 261 9 L 238 9 L 234 10 L 230 10 L 222 10 L 221 9 L 217 10 L 153 10 L 152 11 L 136 11 L 135 10 L 131 11 L 129 11 L 127 10 Q 122 9 121 11 L 113 10 L 111 10 L 107 11 L 104 10 L 91 10 L 90 11 L 88 10 L 84 11 L 81 10 L 80 11 L 53 11 L 52 12 L 35 12 L 34 11 L 18 11 L 17 10 L 10 10 L 10 20 L 9 21 L 9 69 L 10 71 L 9 74 L 9 98 L 10 99 L 10 263 L 11 264 L 10 267 L 11 269 L 10 271 L 10 401 L 9 402 L 10 404 L 10 426 L 11 426 L 16 426 L 16 429 L 13 427 L 10 431 L 10 443 L 9 445 L 9 447 L 10 449 L 9 453 L 11 452 Q 10 449 14 450 L 16 450 L 17 450 L 17 454 L 20 453 L 19 449 L 16 447 L 15 443 Q 14 439 17 438 L 17 440 L 18 440 L 18 437 L 15 433 L 19 431 L 20 432 L 17 428 L 19 422 L 19 417 L 21 416 Q 20 418 23 417 L 26 421 Q 30 420 28 424 L 33 425 L 27 425 L 25 422 L 21 421 L 21 444 L 22 445 L 21 449 L 28 449 L 30 453 Q 33 451 31 445 L 33 443 L 34 453 L 37 454 L 36 451 L 37 448 L 37 440 L 36 439 Q 35 434 39 433 L 43 433 L 46 435 L 48 444 Q 46 449 50 448 L 52 448 L 52 442 L 54 440 L 53 438 L 53 436 L 52 431 L 53 428 L 52 427 L 52 420 L 55 419 Q 60 418 63 421 L 65 426 Q 63 432 66 434 L 65 436 L 67 451 L 69 450 L 70 453 L 70 446 L 72 447 L 72 456 L 76 456 L 78 460 L 85 450 L 83 449 Q 82 445 85 446 L 87 455 L 92 458 L 91 450 L 90 450 Q 90 444 87 443 L 87 432 Q 86 429 82 430 L 82 443 L 81 444 L 79 442 Q 81 436 76 438 L 77 444 L 76 454 L 74 454 L 74 439 Q 75 435 80 436 L 79 433 L 80 428 Q 86 427 89 429 L 90 433 L 92 434 L 92 431 L 89 427 L 90 420 L 95 408 L 100 407 L 101 402 L 101 400 L 98 398 L 97 396 L 98 394 L 96 387 L 98 381 L 109 371 L 106 366 L 108 362 L 105 354 L 105 340 L 107 329 L 104 316 Q 103 309 107 308 L 106 305 L 107 301 L 106 298 L 107 294 L 112 290 L 118 282 L 124 279 L 133 279 L 139 272 L 141 273 Q 144 274 145 272 L 144 270 L 141 267 Q 138 268 139 264 L 138 264 L 133 257 L 133 248 Q 136 246 132 245 L 135 244 L 133 235 L 131 232 L 135 229 L 142 228 Q 143 225 141 226 Q 131 219 128 206 Q 127 197 129 192 L 132 185 L 138 176 L 152 169 Q 157 171 159 168 L 171 170 L 180 175 Q 189 183 192 198 L 191 202 L 192 205 Q 189 217 181 226 L 184 226 L 186 226 L 189 227 L 189 231 L 185 240 L 185 244 L 187 243 L 188 247 L 187 252 L 190 254 L 190 256 Q 186 254 187 258 L 189 258 L 188 260 L 186 260 L 186 263 Q 183 262 184 265 L 186 264 L 187 265 L 197 265 L 198 266 L 202 264 L 204 264 L 209 268 L 213 266 L 218 269 L 222 274 L 227 273 L 229 274 Q 236 281 240 293 L 239 298 L 245 316 L 245 333 Q 243 334 244 339 L 239 347 L 239 369 L 234 370 L 231 373 L 230 381 L 226 383 L 229 392 L 230 404 L 236 406 L 239 411 L 246 416 L 247 419 L 244 424 L 242 434 L 243 439 L 242 443 L 243 445 L 244 445 Q 242 439 246 440 L 249 447 L 252 446 L 251 433 Q 250 430 249 432 L 247 428 L 251 426 L 251 424 L 248 425 L 249 419 L 253 418 L 255 414 Q 258 413 257 416 Q 262 415 263 418 L 261 421 Q 258 420 259 424 Q 262 425 261 423 L 264 421 L 267 442 L 270 440 L 270 402 L 272 401 L 271 400 L 273 396 Q 275 393 276 396 L 275 399 L 277 398 L 282 402 Q 283 399 281 400 L 278 396 L 284 398 L 285 400 L 286 407 L 288 409 L 287 413 L 288 415 L 287 420 L 289 435 Q 293 434 292 429 L 296 426 L 296 424 L 293 425 L 292 423 L 293 418 Q 296 416 305 417 L 308 422 L 308 434 L 312 435 Q 318 434 321 429 L 325 430 Q 326 433 328 431 L 334 434 L 334 355 L 333 354 L 334 353 L 334 333 L 334 331 L 334 283 L 333 282 L 334 277 L 333 275 L 334 271 L 333 269 L 333 81 L 332 80 L 333 77 L 332 76 L 332 33 L 331 32 L 332 30 L 331 25 L 331 10 L 330 8 L 317 8 L 316 9 L 314 8 Z M 156 172 L 143 178 L 134 190 L 132 200 L 133 209 L 139 220 L 150 227 L 154 228 Q 168 230 176 224 Q 184 218 187 207 L 187 195 L 181 182 L 172 174 L 165 172 L 156 172 Z M 179 228 L 177 230 L 178 235 L 174 234 L 169 235 Q 170 230 168 229 L 155 230 L 153 232 L 154 236 Q 152 239 146 237 L 143 230 L 137 232 L 135 232 L 137 245 L 150 243 L 162 243 L 163 242 L 167 243 L 169 242 L 174 243 L 177 242 L 182 243 L 186 229 Q 184 227 179 228 Z M 175 229 L 172 230 Q 170 235 176 233 L 176 229 L 175 229 Z M 149 230 Q 146 235 150 234 L 151 231 L 149 230 Z M 161 245 L 156 248 L 150 249 L 147 253 L 150 253 L 153 252 L 158 253 L 160 257 L 158 260 L 157 257 L 154 259 L 152 258 L 147 259 L 147 257 L 145 261 Q 143 267 146 269 Q 145 271 148 270 Q 148 276 153 278 Q 156 277 155 280 L 162 279 L 162 278 Q 157 279 159 274 L 157 274 L 154 276 Q 153 272 156 273 Q 157 269 159 272 L 161 271 Q 162 268 158 269 L 158 267 L 164 268 L 166 267 Q 167 270 164 269 Q 163 272 167 271 L 169 271 L 172 273 Q 173 275 170 274 L 168 274 L 166 273 L 160 275 L 167 276 L 166 278 L 163 279 L 168 281 Q 170 282 169 280 L 171 280 L 171 279 L 175 276 Q 177 273 176 267 L 179 261 L 178 256 L 170 258 L 168 257 L 167 259 Q 161 261 163 254 Q 164 250 170 251 L 172 251 Q 176 252 175 249 L 177 249 Q 176 246 171 247 L 169 245 L 168 247 Q 165 248 166 245 Q 163 244 164 247 L 162 247 Q 163 244 161 245 Z M 176 251 L 177 253 Q 178 250 176 251 Z M 173 280 Q 172 283 175 282 Q 176 279 173 280 Z M 157 281 L 142 289 L 137 297 L 141 294 Q 140 291 143 292 L 142 296 L 138 299 L 134 304 L 136 314 L 138 313 L 137 311 L 138 309 L 137 305 L 144 299 Q 146 300 145 298 L 151 294 L 158 292 L 162 287 L 165 289 L 168 288 L 169 290 L 171 286 L 164 281 L 161 282 L 157 281 Z M 204 281 L 204 282 L 206 282 L 204 281 Z M 175 284 L 170 292 L 176 294 L 175 292 L 176 290 Q 177 285 175 284 Z M 180 285 Q 180 288 184 288 Q 195 286 201 290 Q 205 291 204 288 L 193 285 Q 187 284 186 286 L 180 285 Z M 211 288 L 211 289 L 214 289 L 211 288 Z M 222 290 L 221 292 L 225 295 L 222 290 Z M 215 292 L 218 295 L 218 294 L 215 292 Z M 163 294 L 148 302 Q 140 308 138 321 L 139 334 L 144 343 L 152 350 L 162 354 Q 166 355 168 353 L 171 354 Q 179 353 185 349 Q 190 347 190 340 L 197 333 L 196 332 L 197 328 Q 197 312 190 305 L 180 297 L 175 297 L 173 297 Q 170 298 171 295 L 167 294 L 165 295 L 163 294 Z M 220 295 L 220 298 L 224 300 Q 228 304 229 313 L 230 313 Q 229 303 224 298 L 220 295 Z M 133 308 L 129 312 Q 128 314 131 313 L 133 317 Q 132 321 135 320 L 133 308 Z M 229 313 L 229 318 L 230 316 L 229 313 Z M 204 328 L 205 334 L 204 336 L 205 342 L 206 342 L 206 329 L 204 328 Z M 210 335 L 209 343 L 204 343 L 204 345 L 203 348 L 202 348 L 203 344 L 200 346 Q 195 347 194 345 L 197 339 Q 198 336 194 337 L 192 343 L 192 345 L 190 349 L 191 354 L 191 358 L 187 364 Q 188 366 185 365 L 185 363 L 184 369 L 188 370 L 193 369 L 195 370 L 200 364 L 203 362 L 211 351 L 210 347 L 211 345 L 210 335 Z M 180 357 L 180 359 L 182 358 L 180 357 Z M 219 358 L 217 360 L 219 360 L 219 358 Z M 183 361 L 179 368 L 180 372 L 182 373 L 181 370 L 183 363 L 183 361 Z M 176 369 L 176 373 L 179 375 L 178 373 Q 179 368 176 369 Z M 160 386 L 158 388 L 171 392 L 171 391 L 166 387 L 160 386 Z M 122 389 Q 120 392 114 390 L 112 392 L 115 392 L 117 392 L 121 391 L 127 393 L 130 393 L 122 389 Z M 111 390 L 107 393 L 108 394 L 111 393 L 111 390 Z M 177 395 L 179 397 L 183 397 L 177 395 Z M 136 397 Q 134 400 137 399 L 136 397 Z M 152 398 Q 152 401 157 402 L 159 402 L 152 398 Z M 223 404 L 220 411 L 221 416 L 222 415 Q 221 409 223 408 L 223 404 Z M 277 406 L 272 409 L 273 410 L 273 437 L 274 438 L 273 442 L 273 444 L 274 449 L 274 466 L 273 467 L 275 467 L 274 471 L 272 469 Q 274 467 272 466 L 271 469 L 266 470 L 263 463 L 264 458 L 264 456 L 263 432 L 256 433 L 259 433 L 259 435 Q 262 434 261 438 Q 259 439 262 441 Q 261 443 256 442 L 257 440 L 256 437 L 255 446 L 256 449 L 256 461 L 255 462 L 258 466 L 263 468 L 264 470 L 263 472 L 269 472 L 269 470 L 271 470 Q 273 471 271 473 L 279 473 L 279 469 L 278 471 Q 275 472 276 469 L 279 468 L 278 462 L 281 460 Q 282 462 283 460 L 282 458 L 282 448 L 283 447 L 282 446 L 282 420 L 281 419 L 282 416 L 281 414 Q 280 408 282 407 L 280 406 L 279 408 Q 281 407 280 410 L 277 411 Q 273 409 277 408 L 277 406 Z M 235 408 L 236 413 L 238 414 Q 238 409 235 408 Z M 99 409 Q 94 412 95 417 L 100 418 Q 103 417 101 411 L 99 409 Z M 239 416 L 239 423 L 241 423 L 241 420 Q 245 421 244 419 Q 243 415 239 416 Z M 97 419 L 94 420 L 92 424 L 92 427 L 95 427 L 97 426 L 100 427 Q 102 426 101 421 Q 100 418 99 420 L 97 419 Z M 296 419 L 297 424 L 302 422 L 304 426 L 302 429 Q 299 430 300 427 L 299 427 Q 300 430 298 429 L 296 429 L 296 442 L 297 443 L 296 445 L 298 444 Q 300 443 299 447 L 297 447 L 297 460 L 298 461 Q 299 463 297 462 L 293 458 L 293 446 L 290 445 Q 289 448 292 447 L 290 451 L 289 450 L 288 450 L 289 454 L 289 460 L 292 460 Q 294 464 290 463 L 287 462 L 281 463 L 282 466 L 283 488 L 288 484 L 291 485 Q 293 486 292 491 Q 290 492 293 493 L 294 493 L 294 487 L 296 487 L 298 484 Q 303 483 304 487 L 304 493 L 302 493 L 297 494 Q 298 496 296 495 L 292 493 L 290 495 L 286 494 L 283 490 Q 280 489 281 492 Q 284 493 280 495 L 282 496 L 284 495 Q 285 498 281 497 L 283 501 L 300 501 L 301 500 L 304 501 L 305 495 L 305 475 L 301 474 Q 300 471 303 472 L 305 472 L 306 466 Q 307 459 304 457 L 307 452 L 306 447 L 307 445 L 306 442 L 307 438 L 305 427 L 305 419 L 296 419 Z M 56 421 L 54 423 L 55 425 L 55 440 L 54 441 Q 53 447 55 451 L 60 447 L 60 437 L 59 436 Q 58 431 60 430 L 59 427 L 59 425 Q 61 419 56 421 Z M 236 423 L 233 426 L 233 436 L 234 437 L 234 454 L 233 456 L 229 457 L 230 460 L 230 471 Q 225 474 227 483 Q 224 484 223 481 L 222 492 L 218 496 L 238 500 L 239 501 L 238 496 L 239 495 L 239 444 L 240 441 L 239 437 L 240 426 L 239 426 L 238 425 L 236 423 Z M 211 424 L 211 427 L 213 426 Q 214 423 211 424 Z M 322 430 L 321 432 L 314 437 L 311 437 L 309 437 L 310 441 L 309 446 L 311 445 L 310 443 L 312 443 L 311 440 L 311 438 L 313 439 L 316 437 Q 318 436 317 440 L 319 439 L 318 436 L 321 435 L 322 438 L 325 437 L 327 438 L 327 436 L 329 437 Q 330 435 331 438 L 329 439 Q 331 443 333 440 L 334 440 L 334 436 L 330 435 L 328 435 L 324 433 L 322 430 Z M 98 432 L 95 433 L 94 437 L 95 440 L 94 444 L 94 453 L 95 454 L 94 458 Q 96 462 95 471 L 95 473 L 96 475 L 96 477 L 95 479 L 96 483 L 96 492 L 95 493 L 98 497 L 106 494 L 120 493 L 125 491 Q 126 488 123 489 L 121 482 L 124 480 L 123 473 L 113 470 Q 109 469 110 465 L 102 463 L 101 461 L 102 459 L 101 457 L 101 433 L 98 432 Z M 293 433 L 289 437 L 290 438 L 293 436 L 293 433 Z M 38 435 L 38 439 L 39 439 Q 38 436 41 437 Q 42 440 39 439 L 39 443 L 39 445 Q 40 453 38 457 Q 41 458 40 456 L 45 452 Q 43 446 44 437 Q 43 434 38 435 Z M 291 438 L 289 442 Q 294 444 293 440 L 292 440 L 291 438 Z M 218 439 L 216 441 L 218 441 L 218 439 Z M 317 440 L 316 444 L 318 444 L 317 446 L 319 447 L 319 440 L 318 442 L 317 440 Z M 324 441 Q 321 443 324 444 L 326 443 L 328 445 Q 330 439 324 441 Z M 332 442 L 332 459 L 333 462 L 331 463 L 334 463 L 334 446 L 333 445 L 334 443 L 332 442 Z M 269 443 L 267 445 L 268 446 L 270 445 Q 271 442 269 443 Z M 322 447 L 322 449 L 328 449 L 328 447 L 326 448 L 322 447 Z M 60 448 L 58 452 L 59 455 L 60 453 Q 63 454 62 458 L 65 457 L 69 458 L 70 456 L 69 455 L 65 451 Q 64 447 60 448 Z M 268 449 L 267 451 L 270 451 L 268 449 Z M 243 451 L 242 460 L 241 461 L 242 462 L 244 461 L 244 453 L 243 451 Z M 14 452 L 12 456 L 10 457 L 10 467 L 13 467 L 15 466 Q 18 467 17 471 L 21 472 L 21 466 L 17 467 L 17 460 L 19 459 L 20 462 L 26 457 Q 28 450 22 452 Q 23 456 20 457 L 16 456 L 14 452 Z M 32 453 L 27 459 L 32 455 L 32 457 L 38 461 L 39 461 L 38 459 L 32 453 Z M 104 453 L 104 461 L 106 462 L 110 462 L 110 454 L 104 453 Z M 190 454 L 181 456 L 182 466 L 188 465 L 193 466 L 197 463 L 196 455 L 192 454 L 193 459 L 190 460 L 190 454 Z M 114 455 L 112 457 Q 111 461 113 463 L 112 466 L 115 468 L 123 471 L 125 468 L 126 470 L 126 468 L 126 466 L 124 458 L 117 457 L 114 455 Z M 250 455 L 248 457 L 250 457 L 250 455 Z M 72 456 L 71 458 L 74 459 L 72 456 Z M 199 456 L 199 468 L 202 469 L 204 469 Q 208 468 210 470 L 211 469 L 211 459 L 209 458 L 205 459 L 206 460 L 206 466 L 203 466 L 203 457 L 199 456 Z M 87 457 L 86 459 L 91 463 L 91 460 L 87 457 Z M 269 457 L 267 459 Q 266 462 270 460 Q 271 456 269 457 Z M 324 457 L 323 463 L 325 463 L 324 461 L 328 459 Q 329 456 326 457 L 324 457 Z M 49 458 L 49 461 Q 46 462 47 459 L 43 461 L 45 465 L 42 470 L 43 475 Q 41 476 44 477 Q 46 476 45 479 L 46 479 L 45 475 L 46 473 L 44 472 L 47 465 L 51 462 Q 53 461 51 460 Q 52 457 49 458 Z M 53 458 L 53 462 L 55 461 Q 56 457 53 458 Z M 176 458 L 177 470 L 178 467 L 178 465 Q 180 457 176 458 Z M 307 458 L 308 464 L 307 466 L 308 468 L 307 471 L 307 479 L 308 480 Q 309 493 307 501 L 317 501 L 318 500 L 317 497 Q 312 497 310 493 L 312 485 L 318 480 L 323 482 Q 325 478 332 478 Q 334 479 334 484 L 334 466 L 323 466 L 321 464 Q 318 465 319 462 L 315 463 L 316 461 L 315 460 L 315 459 L 307 458 Z M 128 459 L 127 466 L 129 472 L 133 471 L 139 473 L 140 467 L 145 470 L 156 470 Q 159 473 166 472 L 168 472 L 168 474 Q 160 475 156 472 L 146 472 L 144 472 L 147 483 L 145 486 L 150 493 L 150 498 L 155 500 L 159 507 Q 157 512 163 510 L 164 506 Q 168 499 176 497 L 175 495 L 175 491 L 179 484 L 177 481 L 178 479 Q 175 476 176 472 L 172 473 L 169 473 L 172 471 Q 171 467 175 469 L 174 459 L 166 462 Q 154 464 149 459 Q 141 458 138 461 Q 129 463 128 459 Z M 246 462 L 242 466 L 243 467 L 242 470 L 243 475 L 244 468 Q 246 464 252 465 Q 255 466 254 470 L 258 472 L 262 471 L 256 470 L 255 467 Q 252 462 246 462 Z M 57 463 L 57 464 L 71 464 L 57 463 Z M 268 463 Q 267 468 271 466 Q 273 462 268 463 Z M 32 464 L 27 465 L 26 468 Q 27 470 24 469 L 25 472 L 22 474 L 19 473 L 12 474 L 10 476 L 10 485 L 15 487 Q 18 489 17 495 L 17 496 L 21 495 L 29 488 Q 34 488 36 485 L 41 485 Q 42 481 40 482 L 40 481 L 39 478 L 40 475 L 39 472 L 39 470 L 38 467 L 40 467 L 38 465 L 36 469 L 34 469 L 34 464 L 32 464 Z M 81 465 L 79 468 L 80 478 L 83 480 L 83 484 Q 87 482 86 486 Q 85 488 84 486 L 83 488 L 86 489 L 83 491 L 87 494 L 92 495 L 93 491 L 92 488 L 91 492 L 87 493 L 86 491 L 93 486 L 90 484 L 93 482 L 88 479 L 93 477 L 88 475 Q 87 472 91 473 L 92 474 Q 93 471 90 472 Q 87 471 89 470 L 88 467 Q 87 464 86 466 L 81 465 Z M 90 468 Q 89 471 92 470 Q 93 467 90 468 Z M 247 468 L 247 472 L 251 473 L 250 470 Q 251 466 247 468 Z M 57 472 L 57 476 Q 54 477 55 473 Q 52 472 53 476 Q 50 477 51 473 Q 47 471 48 477 L 49 479 L 52 478 L 51 480 Q 50 483 54 481 L 55 479 Q 57 480 56 484 L 59 485 L 62 479 L 62 476 L 65 472 L 63 473 L 57 472 Z M 199 472 L 199 474 L 203 476 Q 204 480 202 479 L 199 485 L 200 494 Q 208 493 213 495 L 213 488 L 210 482 Q 208 475 211 474 L 211 472 L 199 472 Z M 181 473 Q 180 476 183 475 Q 184 472 181 473 Z M 67 474 L 65 476 L 66 479 L 66 476 L 69 477 L 69 476 L 67 474 Z M 71 474 Q 70 479 74 477 L 75 480 L 76 478 L 71 474 Z M 186 474 L 187 475 L 188 476 Q 189 473 186 474 Z M 142 475 L 138 477 L 139 481 L 136 486 L 137 487 L 142 481 L 141 483 L 142 484 L 144 483 L 142 475 Z M 259 476 L 259 481 L 260 481 L 259 476 Z M 43 477 L 42 480 L 43 480 L 43 477 Z M 71 477 Q 68 479 71 480 L 72 480 L 71 477 Z M 198 477 L 195 480 L 196 482 L 198 479 L 198 477 Z M 242 477 L 242 479 L 244 478 L 242 477 Z M 68 479 L 66 482 L 68 481 L 68 479 Z M 265 479 L 265 481 L 264 480 L 262 486 L 264 485 Q 263 482 266 483 L 266 479 L 265 479 Z M 271 479 Q 271 483 273 480 L 271 479 Z M 275 479 Q 274 481 277 480 L 278 483 L 277 486 L 278 487 Q 280 486 279 481 Q 278 478 275 479 Z M 248 480 L 248 481 L 250 481 L 248 480 Z M 252 480 L 251 483 Q 250 485 253 484 L 254 482 Q 255 479 252 480 Z M 274 480 L 273 483 L 274 483 L 274 480 Z M 64 481 L 62 483 L 63 485 L 64 483 L 64 481 Z M 80 481 L 79 486 L 80 486 L 80 481 Z M 328 481 L 328 483 Q 330 486 331 483 Q 332 479 328 481 Z M 319 482 L 316 485 L 317 487 L 320 489 L 319 491 L 321 490 Q 323 489 322 492 L 323 492 Q 324 487 322 488 L 322 487 Q 324 488 323 486 L 320 484 L 319 486 L 318 486 L 319 484 L 319 482 Z M 248 483 L 245 485 L 248 486 L 249 484 L 248 483 Z M 141 484 L 139 487 L 141 486 L 141 484 Z M 266 484 Q 266 487 264 486 L 264 488 L 261 486 L 262 489 L 259 485 L 258 488 L 262 491 L 263 490 L 265 491 L 267 487 L 266 484 Z M 274 484 Q 271 485 271 489 L 273 488 L 275 489 L 273 487 L 277 485 L 274 484 Z M 44 485 Q 45 488 43 487 L 40 486 Q 38 489 34 488 L 25 494 L 26 496 L 30 493 L 32 494 L 35 493 L 34 496 L 36 496 L 38 493 L 38 495 Q 42 496 41 494 L 40 494 L 39 491 L 43 492 L 43 495 Q 40 494 41 498 L 40 497 L 35 498 L 36 500 L 38 499 L 43 500 L 45 499 L 44 496 L 46 493 L 46 495 L 47 495 Q 46 491 49 492 L 50 492 Q 49 494 52 493 L 51 496 Q 52 498 54 496 L 53 498 Q 52 500 55 499 L 56 497 L 57 500 L 55 501 L 58 502 L 62 499 L 63 500 L 60 502 L 67 502 L 68 503 Q 69 496 66 495 L 65 498 L 62 497 Q 63 494 61 495 L 59 495 L 60 492 Q 55 493 56 491 L 55 488 L 58 490 L 61 489 L 63 495 L 64 493 L 62 489 L 60 486 L 55 485 Q 48 483 47 486 L 44 485 Z M 183 486 L 181 489 L 183 488 L 183 486 Z M 242 486 L 242 489 L 244 488 Q 245 485 242 486 Z M 135 488 L 133 491 L 135 490 L 135 488 Z M 185 488 L 183 491 L 185 490 L 185 488 Z M 195 488 L 194 491 L 196 491 L 197 489 L 195 488 Z M 247 488 Q 247 491 243 490 L 243 491 Q 245 490 244 494 L 245 494 Q 244 490 247 491 L 247 488 Z M 181 489 L 178 490 L 177 493 Q 176 495 179 494 L 181 491 L 181 489 Z M 216 489 L 216 492 L 219 491 L 216 489 Z M 254 489 L 255 492 L 254 494 L 251 495 L 256 495 Q 258 494 257 490 L 254 489 Z M 279 489 L 273 492 L 274 494 L 279 492 L 279 489 Z M 136 490 L 134 493 L 137 491 L 136 490 Z M 145 490 L 142 494 L 143 495 L 146 492 L 145 490 Z M 192 490 L 190 492 L 192 492 L 192 490 Z M 270 490 L 268 492 L 270 492 L 270 490 Z M 131 491 L 131 493 L 133 492 L 131 491 Z M 317 491 L 319 494 Q 321 495 320 493 L 317 491 Z M 147 492 L 146 494 L 148 495 L 147 492 Z M 196 492 L 193 498 L 198 494 Q 199 491 196 492 Z M 334 492 L 333 495 L 334 495 L 334 492 Z M 83 493 L 78 496 L 77 500 L 77 502 L 83 503 L 84 501 Q 79 502 81 498 L 86 500 L 86 498 L 89 499 Q 92 500 91 497 Q 85 497 83 493 Z M 137 493 L 136 495 L 138 494 L 137 493 Z M 181 494 L 179 497 L 181 496 L 181 494 Z M 271 494 L 265 497 L 265 501 L 271 501 L 271 494 Z M 12 495 L 10 497 L 11 499 L 10 501 Q 9 503 13 502 L 15 497 Q 16 493 12 495 Z M 47 495 Q 45 500 49 499 L 50 497 L 47 495 Z M 138 495 L 135 500 L 139 497 Q 140 494 138 495 Z M 187 495 L 187 497 L 189 496 L 187 495 Z M 246 495 L 245 497 L 247 498 L 246 495 Z M 22 496 L 22 497 L 25 497 L 22 496 Z M 111 496 L 94 500 Q 90 503 84 504 L 77 509 Q 78 511 76 510 L 67 524 L 67 530 L 72 537 Q 78 543 90 543 L 92 543 Q 96 542 98 544 L 109 543 L 121 540 L 129 536 L 137 534 L 145 529 Q 151 524 155 516 Q 157 507 153 505 L 148 502 L 144 502 L 141 503 L 136 517 L 131 520 L 137 531 L 134 532 L 132 530 L 121 526 Q 115 525 114 528 L 115 526 L 115 523 L 113 526 Q 109 528 110 523 L 106 521 L 97 523 L 91 527 L 87 527 L 80 531 Q 76 532 77 529 L 91 518 L 92 516 L 82 511 L 84 509 L 100 509 L 114 497 L 111 496 Z M 117 496 L 121 505 L 123 498 Q 123 494 117 496 Z M 181 496 L 181 498 L 183 497 L 181 496 Z M 202 496 L 203 500 L 205 503 L 205 500 L 209 499 L 223 509 L 226 508 L 228 508 Q 233 507 234 510 L 231 511 L 228 515 L 237 521 Q 239 520 238 523 Q 243 525 240 527 L 220 523 L 216 521 L 211 521 L 197 528 L 188 530 L 193 518 Q 188 513 179 512 L 180 510 L 185 511 L 184 507 L 184 505 L 183 501 L 179 499 L 170 503 L 166 510 L 168 519 L 171 524 L 181 530 L 194 535 L 211 538 L 226 538 L 239 535 L 245 532 Q 249 529 251 523 L 251 521 L 246 510 L 241 505 L 231 501 L 202 496 Z M 242 496 L 243 499 L 244 497 L 242 496 Z M 323 496 L 321 501 L 328 501 L 329 500 L 332 502 Q 334 501 333 504 L 328 503 L 326 504 L 323 503 L 321 503 L 255 503 L 251 504 L 248 503 L 245 504 L 248 505 L 251 508 L 252 507 L 254 508 L 332 508 L 333 509 L 334 509 L 334 497 L 327 497 L 325 499 Q 326 501 323 500 L 323 496 Z M 73 497 L 72 502 L 73 502 L 73 497 Z M 131 497 L 129 500 L 131 499 L 131 497 Z M 139 497 L 139 499 L 141 498 L 139 497 Z M 146 497 L 144 500 L 146 499 L 146 497 Z M 200 497 L 198 500 L 200 499 L 200 497 Z M 249 497 Q 247 500 250 499 L 249 497 Z M 28 498 Q 23 501 16 501 L 22 503 L 26 500 Q 27 503 29 499 L 28 498 Z M 133 498 L 131 501 L 133 500 L 133 498 Z M 185 498 L 186 501 L 187 499 L 185 498 Z M 45 499 L 45 501 L 47 500 L 45 499 Z M 50 499 L 49 502 L 53 502 L 52 501 Q 53 498 50 499 Z M 246 499 L 246 500 L 248 500 L 246 499 Z M 250 499 L 250 501 L 252 500 L 250 499 Z M 261 499 L 259 501 L 261 501 L 261 499 Z M 124 500 L 125 503 L 126 501 L 124 500 Z M 135 500 L 131 505 L 135 502 L 135 500 Z M 190 500 L 188 504 L 190 504 L 192 501 L 190 500 Z M 198 500 L 196 503 L 198 502 L 198 500 Z M 194 501 L 188 509 Q 187 512 190 511 L 190 509 L 194 503 L 194 501 Z M 199 501 L 196 507 L 197 508 L 201 503 Q 202 500 199 501 Z M 113 502 L 111 503 L 107 508 L 117 507 L 115 504 Q 116 501 113 502 Z M 207 502 L 205 508 L 214 508 L 215 509 L 215 507 L 207 502 Z M 196 503 L 194 506 L 196 505 L 196 503 Z M 12 504 L 10 506 L 12 509 L 74 509 L 76 508 L 77 505 L 63 505 L 61 504 L 59 504 L 54 505 L 52 505 L 50 504 L 42 505 L 40 505 L 35 504 L 32 505 L 30 504 L 28 505 L 26 504 L 23 506 L 19 504 L 17 505 L 12 504 Z M 188 504 L 186 506 L 187 509 L 188 506 L 188 504 Z M 124 505 L 122 509 L 124 508 L 124 505 Z M 131 505 L 129 508 L 131 507 L 131 505 Z M 135 505 L 133 508 L 135 507 L 135 505 Z M 200 507 L 197 511 L 200 509 L 200 507 Z M 193 508 L 191 511 L 193 510 L 193 508 Z M 117 509 L 116 510 L 107 510 L 105 510 L 98 514 L 106 518 L 114 516 L 118 511 Q 119 508 117 509 Z M 128 509 L 126 511 L 128 511 L 128 509 Z M 135 509 L 131 514 L 135 511 L 135 509 Z M 10 510 L 10 590 L 12 591 L 114 591 L 115 592 L 117 591 L 125 591 L 126 592 L 130 591 L 134 591 L 136 592 L 138 592 L 139 591 L 148 591 L 151 592 L 154 591 L 156 592 Q 159 589 168 591 L 170 591 L 172 592 L 173 591 L 286 591 L 287 590 L 290 591 L 293 590 L 334 590 L 334 511 L 331 510 L 254 510 L 256 515 Q 258 528 252 533 L 245 539 L 233 544 L 223 544 L 222 543 L 220 544 L 219 543 L 205 543 L 199 541 L 193 541 L 171 531 L 163 521 L 163 514 L 161 513 Q 158 514 159 519 L 154 527 L 149 532 L 138 538 Q 133 537 134 540 L 108 548 L 105 547 L 104 548 L 96 548 L 94 548 L 91 549 L 81 547 L 74 543 Q 66 538 64 529 Q 64 517 71 512 L 54 511 L 52 511 Q 46 513 45 510 L 41 511 L 36 510 L 34 510 L 32 511 L 31 510 L 10 510 Z M 210 510 L 211 516 Q 209 517 212 518 L 221 514 Q 223 515 222 512 L 210 510 Z M 224 510 Q 223 513 226 512 Q 227 509 224 510 Z M 93 511 L 95 513 L 97 512 L 93 511 Z M 126 511 L 124 514 L 126 513 L 126 511 Z M 129 511 L 129 513 L 131 512 L 129 511 Z M 200 511 L 197 515 Q 195 516 198 517 L 200 513 L 200 511 Z M 202 511 L 202 513 L 204 512 L 202 511 Z M 196 512 L 194 515 L 196 514 L 196 512 Z M 202 513 L 200 516 L 202 515 L 202 513 Z M 206 513 L 208 517 L 209 515 L 206 513 Z M 128 514 L 123 520 L 128 516 L 128 514 Z M 224 515 L 217 519 L 219 520 L 228 521 L 233 523 Q 235 524 234 521 L 224 515 Z M 96 516 L 88 522 L 84 527 L 101 520 L 96 516 Z M 119 519 L 117 523 L 119 523 L 121 520 L 119 519 Z M 195 519 L 191 527 L 202 524 L 207 521 L 206 519 L 195 519 Z M 125 523 L 125 525 L 132 528 L 132 527 Q 131 522 125 523 Z "></path><path d="M 147.5 19 L 157.5 19 L 158.5 20 L 160.5 19 L 162.5 19 L 188.5 19 L 189.5 20 L 194 19 Q 195.3 22 191.5 21 L 189.5 21 Q 185.1 19.5 186 22.5 L 184 25.5 L 182 36 L 191 37 L 190.5 39 L 173.5 39 L 171.5 39 L 157.5 38 L 156.5 39 L 149 39 L 149.5 37 L 159 37 L 159 22.5 L 157.5 21 L 146 20.5 L 147.5 19 Z M 164 21 L 164 37 L 176 37 L 170 21 L 167 22 L 164 21 Z M 174 21 L 179 32 L 182 25 L 182 21 L 174 21 Z "></path><path d="M 158 177 L 161 178.5 L 165 192 L 178 193 Q 179.5 196.8 176.5 196 L 169 202.5 L 169 205.5 L 174 217.5 L 171.5 219 L 159.5 210 L 148.5 219 L 145 219 L 149 200 L 138 191.5 L 138.5 190 L 148.5 190 L 152.5 191 L 155 187.5 L 158 177 Z M 160 183 L 156 190 L 157 191 L 162 191 L 160 183 Z M 145 193 L 145 195 L 151 199 L 152 195 L 145 193 Z M 155 194 L 153 202 L 159 206 L 165 202 L 164 196 L 163 194 L 155 194 Z M 167 195 L 168 200 L 173 196 L 167 195 Z M 151 204 L 148 213 L 149 214 L 151 213 L 156 207 Q 155 203 151 204 Z M 167 204 L 164 207 Q 161 206 162 209 L 168 213 L 169 213 L 167 204 Z "></path><path d="M 168 259 Q 172.1 257.7 171 261 Q 166.9 262.3 168 259 Z "></path><path d="M 152 260 Q 156.1 258.7 155 262 Q 150.9 263.3 152 260 Z "></path><path d="M 158.5 286 L 159 287.5 L 157 288.5 L 158.5 286 Z "></path><path d="M 138.5 300 L 137.5 302 L 138.5 300 Z "></path><path d="M 166.5 300 L 173 318 L 189.5 318 L 190 320 L 188 320 Q 189.1 322.7 186.5 322 L 178 329.5 L 185 343.5 Q 183.2 347.8 181.5 345 L 169.5 337 L 167.5 337 Q 161.6 343.6 152.5 347 Q 150.3 346.3 151 342.5 L 156 328 L 144 319.5 L 144.5 318 L 159.5 318 L 160 315.5 L 164 303.5 L 166.5 300 Z M 166 307 L 162 318 L 169 318 Q 169 311 166 307 Z M 151 320 L 157 326 L 158 322 Q 157 318 151 320 Z M 161 320 L 159 328 L 168 334 L 174 329 L 172 323 L 170 320 L 161 320 Z M 175 320 L 178 326 L 184 321 L 175 320 Z M 158 331 Q 159 337 156 341 L 157 342 L 165 336 Q 163 331 158 331 Z M 174 331 Q 175 334 173 333 L 171 336 L 177 339 L 180 342 L 176 333 Q 177 330 174 331 Z "></path><path d="M 276 389 Q 278.7 387.9 278 390.5 L 279 392.5 L 276 394 L 276 389 Z "></path><path d="M 277.5 412 L 279 416.5 L 276.5 418 L 275 414.5 L 277.5 412 Z "></path><path d="M 56 423 Q 58.7 421.9 58 424.5 L 56 425.5 L 56 423 Z "></path><path d="M 300 430 L 302 430.5 L 300 431.5 L 300 430 Z "></path><path d="M 12.5 431 L 13 433 L 11 432.5 L 12.5 431 Z "></path><path d="M 83 433 Q 85.7 431.9 85 434.5 L 83 435.5 L 83 433 Z "></path><path d="M 297 436 L 302.5 436 L 303 437.5 L 302 441 Q 297.9 442.3 299 439 L 301 438.5 L 298.5 438 L 297 438.5 L 297 436 Z "></path><path d="M 83 438 Q 86.3 436.9 85 441 Q 81.7 442.1 83 438 Z "></path><path d="M 276 439 L 280 440.5 Q 280.8 443.1 277.5 442 L 276 439 Z "></path><path d="M 11 444 Q 14.3 442.9 13 447 Q 9.7 448.1 11 444 Z "></path><path d="M 278.5 446 L 280 451 Q 274.8 453.1 276 448.5 L 278.5 446 Z "></path><path d="M 300.5 452 L 302 455 Q 298.5 456.1 300.5 452 Z "></path><path d="M 276 454 L 279 455.5 L 277.5 458 L 276 454 Z "></path><path d="M 311.5 459 L 313 461.5 L 311.5 464 L 310 460.5 L 311.5 459 Z "></path><path d="M 299.5 464 L 302 465.5 L 299 466 L 299.5 464 Z "></path><path d="M 285 466 L 288 467.5 Q 289.5 472.8 285 471 L 285 466 Z "></path><path d="M 292 466 Q 296.5 464.3 295 469.5 L 292 471 L 292 466 Z "></path><path d="M 318.5 466 L 321 466.5 L 318.5 467 L 318.5 466 Z "></path><path d="M 83.5 467 L 84 470 Q 79.9 471.3 81 468 L 83.5 467 Z "></path><path d="M 325.5 467 L 328 467.5 L 325 470.5 L 326 471.5 Q 327.1 475.7 323 474 L 323 469 Q 325.8 470 325.5 467 Z "></path><path d="M 330.5 467 Q 333.5 467.5 333 471.5 L 332 471.5 L 331.5 469 L 330 469.5 L 330.5 467 Z "></path><path d="M 27 468 Q 30.3 466.9 29 471 Q 25.7 472.1 27 468 Z "></path><path d="M 297 471 L 300 471 L 300 476 L 296 473.5 L 297 471 Z "></path><path d="M 320.5 472 Q 322.8 471.3 322 473.5 L 320.5 472 Z "></path><path d="M 23.5 474 Q 26.1 473.3 25 476 L 22 475.5 L 23.5 474 Z "></path><path d="M 320 475 Q 323 474 322 477 Q 319 478 320 475 Z "></path><path d="M 84.5 480 Q 87.5 481.5 84.5 483 L 84.5 480 Z "></path><path d="M 38.5 488 L 39 489.5 L 37 490.5 L 38.5 488 Z "></path><path d="M 315.5 527 L 322 529.5 Q 322.5 533.5 319.5 534 L 313 534.5 L 324 537 Q 325.1 539.7 322.5 539 L 321.5 538 L 313.5 538 L 313.5 539 L 323.5 540 L 325 541.5 L 321 543.5 L 323 544 Q 324.7 548.1 320.5 547 L 314 546 Q 312.9 548.7 315.5 548 L 317.5 548 L 329.5 548 L 332 549 L 330.5 553 L 321.5 555 L 314 555 Q 312.3 558.5 313 565.5 Q 315.7 567.2 314 573.5 L 311 575 Q 308.8 567.9 310 555.5 L 308.5 554 L 306 554 L 306 559 L 304 559 L 303 553 L 310 552 Q 311.4 548 304.5 550 L 300 547.5 L 302.5 544 L 310 542.5 L 302.5 541 L 300 538.5 L 302.5 536 Q 308.5 537.5 310 534.5 Q 308.8 529.3 311.5 528 L 315.5 527 Z M 316 530 L 316 531 L 318 531 L 316 530 Z M 315 542 Q 314 544 317 543 L 318 544 Q 319 541 315 542 Z M 307 546 Q 306 548 309 547 L 310 548 Q 311 545 307 546 Z M 314 550 L 314 552 Q 322 553 327 551 L 314 550 Z "></path><path d="M 340.5 547 Q 343.8 545.9 343 548.5 L 340.5 553 L 340 550.5 L 341 548.5 L 340.5 547 Z "></path><path d="M 340.5 554 L 343 554.5 L 340.5 555 L 340.5 554 Z "></path><path d="M 318.5 556 L 321 557 Q 322.6 561.9 317 560 L 318.5 556 Z "></path><path d="M 341.5 556 L 343 558.5 L 341 559.5 L 342 557.5 L 341.5 556 Z "></path><path d="M 340 563 L 343 563.5 L 340.5 565 L 340 563 Z "></path><path d="M 339.5 590 L 341 594 Q 337.2 595.2 339.5 590 Z "></path><path d="M 343.5 590 L 345 592.5 L 343 593.5 L 343.5 590 Z "></path></svg>