<svg width="350" height="600" version="1.1" xmlns="http://www.w3.org/2000/svg" desc="Created with imagetracer.js version 1.2.5"><path d="M 312.5 3 L 318.5 4 L 320.5 4 L 329.5 3 L 334 4 L 333 42.5 L 334 45.5 L 333 49.5 L 334 50.5 L 334 59.5 L 333 61.5 L 334 62.5 L 334 70.5 Q 331.5 72 333 77.5 L 334 78.5 L 334 98.5 L 335 99.5 L 334 100.5 L 334 134.5 L 335 135.5 L 335 312.5 L 336 313.5 L 335 316.5 L 336 318.5 L 335 323.5 L 335 325.5 L 335 336.5 L 336 338.5 L 335 340.5 Q 337.5 342 336 347.5 L 336 349.5 L 336 396.5 L 337 397.5 L 336 398.5 L 336 406.5 L 337 410.5 L 336 415.5 L 337 416.5 L 337 491.5 L 338 492.5 L 338 542.5 L 339 544.5 L 338 546.5 L 339 547.5 L 339 589.5 Q 337.3 593.8 335.5 591 L 214.5 591 L 213.5 592 L 208.5 591 L 205.5 592 L 202.5 591 L 201.5 592 L 164.5 592 L 163.5 593 L 161.5 592 L 160.5 593 L 132.5 593 L 131.5 594 Q 130 591.5 124.5 593 L 122.5 594 L 120.5 593 L 119.5 594 L 81.5 594 L 80.5 595 L 75.5 594 L 73.5 595 Q 72.3 592.8 67.5 594 L 65.5 595 L 63.5 595 L 49.5 594 L 48.5 595 L 40.5 595 L 38.5 595 Q 33 596.5 31.5 594 L 30.5 595 L 11.5 595 L 8.5 596 Q 5.8 594.8 8 593.5 Q 9.8 587.2 7 585.5 L 7 507.5 L 6 505.5 L 7 503.5 L 6 500.5 L 7 495.5 L 6 494.5 L 6 485.5 L 7 482.5 L 6 478.5 L 7 473.5 L 6 470.5 L 6 172.5 L 5 170.5 L 6 166.5 L 5 165.5 L 5 153.5 L 6 152.5 L 6 143.5 L 5 142.5 L 5 119.5 L 6 116.5 L 5 115.5 L 5 36.5 Q 7.8 34.8 6 28.5 L 5 27.5 L 5 11.5 L 7.5 6 L 100.5 6 L 102.5 7 L 103.5 6 L 120.5 6 L 123.5 7 L 126.5 6 L 128.5 6 L 130.5 7 L 131.5 6 L 269.5 5 L 270.5 4 L 274.5 5 L 277.5 4 L 282.5 5 L 283.5 4 L 311.5 4 L 312.5 3 Z M 284 6 Q 285 11 282 13 L 284 16 L 287 17 Q 286 19 289 18 L 286 13 Q 285 9 288 8 L 289 12 L 290 8 Q 289 5 284 6 Z M 292 6 L 293 11 L 294 8 Q 295 5 292 6 Z M 301 6 L 301 8 L 303 7 L 309 10 L 308 8 L 308 6 L 301 6 Z M 311 6 L 314 20 L 314 46 L 313 45 L 312 64 L 311 63 L 309 67 L 310 70 L 311 68 L 313 68 L 313 50 L 315 49 L 315 68 L 314 69 L 314 77 L 315 78 Q 316 82 314 84 L 316 91 L 317 91 L 317 60 L 316 59 L 316 47 L 318 44 L 319 46 L 319 66 L 321 68 L 321 66 L 321 64 L 320 59 Q 318 52 321 51 L 320 50 L 319 7 L 317 8 L 317 26 L 318 27 L 318 41 L 319 42 L 319 43 Q 315 42 316 37 L 316 35 L 315 31 L 315 11 L 314 8 L 311 6 Z M 322 6 L 322 14 L 323 15 L 324 61 L 324 51 L 326 51 L 325 50 L 325 28 L 324 27 L 324 7 L 322 6 Z M 327 6 L 327 46 L 328 47 L 327 49 L 328 53 L 330 49 L 329 46 L 329 9 L 330 8 L 327 6 Z M 194 7 L 193 8 L 138 8 L 137 9 L 107 9 L 103 8 L 101 8 L 90 8 L 89 9 L 9 9 L 9 30 L 8 31 L 9 32 L 9 74 L 9 76 L 8 81 L 8 83 L 9 85 L 8 88 L 9 90 L 9 92 L 9 126 L 8 128 L 8 130 L 9 135 L 8 139 L 9 142 L 9 225 L 9 227 L 9 288 L 10 289 L 9 294 L 9 311 L 10 312 L 9 314 L 9 339 L 10 340 L 10 348 L 9 349 L 10 351 L 10 447 L 9 449 Q 11 452 13 448 Q 12 445 15 446 L 15 449 L 9 456 Q 7 464 11 469 L 11 467 L 16 468 Q 18 467 17 470 L 21 472 Q 26 471 28 473 Q 32 474 30 469 L 28 470 L 26 468 L 30 466 L 30 464 L 23 464 L 24 469 Q 21 470 22 468 L 22 466 L 20 464 Q 15 466 16 462 L 20 459 L 15 453 L 16 448 L 23 451 Q 27 450 25 455 L 29 456 Q 28 451 32 450 Q 36 449 38 452 L 36 455 L 37 461 Q 40 460 42 463 Q 47 464 47 463 L 47 441 L 49 440 Q 53 438 52 432 L 54 433 L 53 441 L 54 441 Q 53 437 56 438 L 59 444 L 59 456 L 60 457 L 60 465 L 62 467 L 64 461 L 66 446 Q 67 439 72 436 L 72 432 L 76 424 L 76 419 L 79 413 L 79 410 L 78 412 Q 75 413 76 411 L 75 411 L 70 411 Q 71 414 68 413 L 70 409 L 73 410 L 77 408 L 77 406 L 74 407 L 71 404 Q 72 399 77 400 L 78 398 L 78 396 L 82 396 L 84 387 L 87 381 L 90 379 L 92 375 Q 93 371 90 372 L 90 370 L 82 372 L 82 370 L 87 370 L 87 367 L 90 365 L 86 359 L 91 357 L 95 358 L 97 355 L 101 356 L 103 355 Q 105 356 104 354 Q 110 346 121 343 Q 123 342 121 341 Q 122 337 120 338 L 118 341 L 114 342 L 114 340 Q 117 341 116 339 L 120 336 L 122 337 L 125 330 Q 129 329 130 332 L 129 335 L 129 337 L 133 337 Q 132 341 135 340 L 137 334 L 144 334 L 145 335 L 148 333 L 148 330 Q 145 331 146 328 L 142 327 L 139 322 Q 138 317 141 316 Q 140 313 143 314 L 148 306 Q 154 307 153 305 Q 157 298 166 296 L 168 296 L 173 297 L 176 296 L 181 298 L 183 297 L 187 299 Q 190 300 189 305 Q 190 307 192 305 L 198 308 L 200 314 Q 199 316 202 315 L 200 328 L 201 335 L 195 339 L 193 339 L 189 340 Q 185 341 186 345 L 177 352 Q 182 356 183 365 L 187 370 Q 186 375 189 376 L 196 356 L 190 352 Q 189 345 194 343 Q 199 342 200 345 L 204 344 L 207 347 L 208 346 L 213 349 Q 216 348 214 354 L 212 355 L 213 351 L 209 354 Q 212 361 206 359 L 203 362 L 203 365 L 197 380 L 198 385 Q 200 390 197 392 L 198 395 L 197 399 L 194 401 L 196 401 L 197 407 L 200 408 Q 205 411 204 420 L 207 421 Q 209 420 208 423 L 213 426 L 222 425 L 227 422 Q 224 419 225 413 L 228 412 Q 232 411 233 414 L 232 422 Q 233 424 235 422 L 239 423 Q 241 424 240 429 L 242 431 L 241 432 L 241 440 L 239 442 Q 249 441 255 444 L 259 451 Q 260 455 258 457 L 259 458 L 276 458 L 278 458 L 278 460 L 280 461 L 280 453 L 279 452 L 280 435 L 272 431 Q 260 423 257 408 L 258 394 L 266 378 L 279 370 L 278 368 L 277 348 L 277 346 L 278 341 L 269 335 Q 257 327 254 310 Q 254 293 262 285 Q 268 277 277 274 L 276 273 L 276 262 Q 265 260 259 252 Q 260 249 257 250 L 250 237 Q 251 232 249 231 L 250 216 Q 253 206 259 200 L 275 189 L 277 189 L 277 171 L 272 170 L 263 165 L 255 158 L 250 148 L 248 139 Q 249 123 256 115 Q 263 105 275 102 L 275 87 L 274 84 Q 261 84 255 77 L 246 68 L 241 54 L 243 40 L 250 27 L 257 22 L 268 17 Q 267 14 270 15 L 272 12 L 271 7 L 207 7 L 206 8 Q 202 5 194 7 Z M 282 7 L 280 11 L 282 12 L 282 7 Z M 304 10 L 302 16 L 303 21 L 305 14 L 305 17 L 306 20 L 306 27 L 304 27 L 304 22 L 303 26 L 301 25 L 301 20 Q 298 18 299 13 L 298 20 Q 301 21 297 23 Q 296 25 299 24 L 307 35 L 309 43 L 310 43 Q 311 37 308 36 L 309 33 L 311 34 L 310 38 L 312 38 L 310 11 L 309 11 Q 308 16 310 18 L 309 31 L 308 32 L 307 15 L 306 14 Q 307 11 304 12 L 304 10 Z M 274 12 L 271 16 L 275 16 L 274 12 Z M 293 13 L 291 16 L 292 18 L 289 19 L 295 21 L 296 22 L 296 19 L 293 20 L 293 13 Z M 280 14 Q 278 17 281 16 L 280 14 Z M 271 21 L 257 28 Q 249 34 247 46 L 247 56 L 252 68 L 264 77 L 276 80 L 284 79 L 294 74 Q 303 67 305 54 L 304 42 L 297 30 L 283 21 L 271 21 Z M 311 53 L 308 62 L 309 63 L 311 61 L 311 59 L 311 53 Z M 330 53 L 329 57 L 330 57 L 330 53 Z M 326 56 L 325 59 L 326 59 L 326 56 Z M 329 61 L 328 64 L 329 64 L 329 61 Z M 308 63 L 304 70 L 304 105 L 307 107 L 306 104 L 306 91 L 307 90 Q 306 79 308 72 Q 311 70 307 69 L 308 67 L 308 63 Z M 324 66 L 323 69 L 323 71 L 322 76 L 324 75 Q 323 71 326 72 L 327 76 L 326 81 L 327 82 L 327 91 L 329 92 L 328 86 L 328 84 L 329 82 L 328 81 L 328 69 L 327 66 L 325 71 L 324 66 Z M 320 70 L 319 73 L 320 73 L 320 70 Z M 313 71 L 312 75 L 313 75 L 313 71 Z M 302 73 L 300 75 L 301 83 L 302 83 L 302 73 Z M 310 73 L 309 96 L 308 97 Q 311 100 310 107 Q 306 109 311 111 L 312 106 L 310 95 L 310 73 Z M 320 74 L 319 78 L 320 78 L 320 74 Z M 313 76 L 312 79 L 313 79 L 313 76 Z M 324 76 L 323 100 L 324 100 L 324 76 Z M 298 77 L 297 92 L 298 92 L 298 77 Z M 294 79 L 292 82 Q 291 86 293 88 L 292 91 Q 294 92 293 97 L 295 98 L 296 98 L 295 97 L 295 88 L 294 79 Z M 288 82 L 289 92 L 291 93 L 290 90 L 290 83 L 288 82 Z M 280 84 L 278 86 L 279 87 L 282 85 L 283 86 Q 284 82 280 84 Z M 302 84 L 301 88 L 302 88 L 302 84 Z M 313 84 L 312 89 L 313 89 L 313 84 Z M 285 86 L 283 88 Q 282 90 285 89 L 285 86 Z M 321 87 L 319 96 L 320 98 L 320 110 L 321 110 L 321 87 Z M 278 89 L 279 99 L 280 99 L 279 94 L 280 91 Q 281 88 278 89 Z M 302 89 L 301 99 L 303 98 L 302 89 Z M 316 91 L 314 93 L 316 93 L 316 91 Z M 297 93 L 298 96 Q 299 101 296 102 L 302 104 L 302 102 L 301 102 L 299 100 Q 300 92 297 93 Z M 329 93 L 327 95 L 328 98 L 329 98 L 329 93 Z M 317 96 L 316 100 L 317 100 L 317 96 Z M 286 97 Q 283 101 287 100 L 286 97 Z M 314 97 L 313 104 L 314 104 L 314 97 Z M 329 100 L 329 143 L 330 143 L 330 109 L 329 100 Z M 281 104 L 273 106 L 266 111 Q 263 110 264 113 L 262 113 Q 256 120 253 131 L 254 146 L 260 157 Q 266 165 278 168 Q 298 170 307 160 Q 314 153 316 142 L 316 130 L 310 117 L 297 106 L 288 104 L 281 104 Z M 325 104 L 324 130 L 325 131 L 323 136 L 324 141 Q 322 142 323 148 L 321 152 Q 323 156 325 153 L 323 152 Q 323 148 326 146 Q 327 139 325 136 L 327 136 L 326 135 L 325 104 Z M 315 108 L 313 114 L 314 116 L 316 116 L 315 108 Z M 318 109 L 317 114 L 318 114 L 318 109 Z M 322 114 L 321 120 L 322 120 L 322 114 Z M 318 116 L 318 123 L 319 123 L 318 116 Z M 320 123 L 321 135 L 322 135 L 322 127 L 320 126 L 320 123 Z M 322 136 L 318 149 L 319 151 Q 322 149 321 142 L 322 139 L 322 136 Z M 328 147 L 326 149 Q 325 151 328 150 L 329 151 L 328 147 Z M 318 151 L 316 154 Q 315 157 319 155 L 318 151 Z M 330 151 L 329 154 L 331 155 L 330 151 Z M 327 153 L 328 163 L 329 163 Q 330 155 327 153 Z M 315 156 L 313 160 Q 315 163 316 160 L 315 156 Z M 321 156 L 319 158 L 320 161 L 321 159 L 321 161 L 323 160 L 321 156 Z M 325 157 Q 322 162 325 164 L 325 182 L 324 185 L 325 188 L 327 179 L 326 176 L 326 160 L 325 157 Z M 314 161 L 312 163 L 313 165 L 314 163 L 314 161 Z M 319 161 L 315 165 L 314 169 Q 312 179 315 186 L 316 186 L 316 173 L 315 172 L 317 165 L 320 163 L 319 161 Z M 310 162 Q 307 164 308 169 L 310 168 L 310 162 Z M 323 163 L 321 165 Q 322 167 319 166 L 320 171 L 321 167 L 323 168 L 323 163 Z M 330 163 L 328 165 L 329 168 L 330 165 L 330 163 Z M 306 166 L 305 178 L 306 179 L 306 193 L 308 193 L 307 191 L 307 171 L 306 166 Z M 312 166 L 311 179 L 312 179 L 312 166 Z M 301 168 L 302 173 L 302 191 L 304 192 L 304 183 L 303 182 L 303 173 L 304 172 L 303 170 Q 304 167 301 168 Z M 297 170 L 297 173 L 299 174 Q 300 169 297 170 Z M 294 171 L 295 181 L 296 175 Q 297 170 294 171 Z M 319 171 L 319 187 L 320 187 L 319 171 Z M 282 172 L 281 188 L 282 188 L 282 172 Z M 285 172 L 284 177 L 286 176 L 285 172 Z M 288 172 L 287 176 L 289 177 L 288 172 Z M 290 172 L 291 183 L 293 184 L 293 182 L 293 180 L 292 178 Q 294 171 290 172 Z M 329 172 L 329 191 L 330 189 L 330 175 L 329 172 Z M 312 180 L 311 183 L 312 183 L 312 180 Z M 285 181 L 284 185 L 285 185 L 285 181 Z M 323 181 L 321 185 L 323 184 L 323 181 Z M 313 185 L 312 188 L 313 188 L 313 185 Z M 299 186 L 298 188 L 300 189 L 299 186 Z M 314 188 L 313 192 L 316 194 L 314 188 Z M 318 189 Q 316 192 320 193 L 320 190 L 318 189 Z M 323 189 L 322 193 L 323 193 L 323 189 Z M 327 191 L 324 195 L 325 198 L 325 217 L 326 218 L 326 242 L 327 243 L 327 263 L 326 264 L 327 265 L 329 261 L 328 257 L 328 242 L 329 241 L 328 239 L 328 213 L 326 205 L 326 194 L 327 193 L 327 191 Z M 282 192 L 274 194 L 264 201 Q 257 207 254 218 L 254 233 L 262 249 Q 269 256 282 259 L 293 259 L 305 254 Q 316 247 319 231 L 319 221 L 317 213 L 312 205 Q 307 197 297 193 L 282 192 Z M 329 192 Q 326 196 330 195 L 329 202 L 330 205 L 330 224 L 332 225 L 331 223 L 332 220 L 331 217 L 331 201 L 332 200 L 331 192 L 330 194 L 329 192 Z M 314 195 L 311 197 L 316 201 L 314 195 Z M 317 195 L 317 197 L 317 199 L 319 202 L 317 202 L 320 208 L 320 205 L 320 203 L 319 199 Q 320 194 317 195 Z M 322 196 L 322 198 L 321 203 L 322 204 L 323 219 L 324 219 Q 325 214 323 213 L 323 197 L 322 196 Z M 324 233 L 322 236 L 323 257 Q 322 260 320 257 L 321 252 L 321 250 Q 318 251 319 258 L 322 259 L 326 263 L 324 259 L 324 241 L 325 240 L 324 233 Z M 320 243 L 318 247 L 320 248 L 320 243 Z M 330 243 L 329 256 L 330 256 L 330 243 Z M 317 248 L 314 252 L 317 254 L 317 248 Z M 313 252 L 311 255 L 313 260 Q 313 257 318 257 L 317 255 L 313 256 L 313 252 Z M 310 255 Q 307 256 308 260 L 308 262 Q 307 264 310 263 L 310 255 Z M 305 258 L 306 264 L 307 260 Q 308 257 305 258 Z M 315 259 L 314 262 L 315 273 L 316 265 L 316 262 Q 319 263 318 261 L 315 259 Z M 303 260 L 301 262 Q 300 265 303 264 L 304 262 Q 305 259 303 260 Z M 299 262 L 297 264 L 298 266 Q 299 270 297 272 L 299 274 L 299 265 L 300 264 Q 301 261 299 262 Z M 281 263 L 281 273 L 282 266 L 281 263 Z M 293 263 L 295 271 L 296 271 L 296 263 L 293 263 Z M 324 263 L 323 271 L 324 271 L 324 263 Z M 285 264 L 284 270 L 285 270 L 285 264 Z M 290 264 Q 289 267 292 266 Q 293 263 290 264 Z M 318 264 Q 315 268 319 267 Q 322 269 320 276 L 322 275 L 321 268 L 318 264 Z M 328 265 L 327 268 L 329 269 L 328 265 Z M 310 266 L 308 272 L 309 274 L 310 274 L 310 266 Z M 302 268 L 301 275 L 303 275 L 302 268 Z M 287 269 Q 286 273 289 272 Q 290 268 287 269 Z M 317 272 L 317 276 L 318 276 L 317 272 Z M 329 273 L 327 276 L 328 280 L 329 278 L 329 273 Z M 309 274 L 308 279 L 309 279 L 309 274 Z M 311 274 L 310 280 L 311 280 L 311 274 Z M 326 274 L 323 275 L 322 278 L 323 280 L 325 279 L 326 276 L 326 274 Z M 314 275 Q 311 283 315 287 L 317 288 L 316 283 L 316 281 L 314 275 Z M 284 278 L 273 283 L 265 291 L 261 300 Q 263 306 260 308 Q 261 318 266 325 Q 273 333 286 336 Q 298 337 305 331 Q 313 324 316 313 Q 317 295 309 288 Q 305 282 297 279 Q 292 277 284 278 Z M 319 279 L 318 284 L 319 286 L 318 290 L 320 293 L 320 281 L 321 280 L 319 279 Z M 323 282 L 323 312 L 320 318 Q 319 321 322 320 Q 324 322 323 328 L 324 328 Q 323 325 326 326 L 324 317 L 324 303 L 325 302 Q 326 297 324 296 L 324 285 L 325 284 Q 326 281 323 282 Z M 330 282 L 327 285 L 328 288 L 331 283 L 330 282 Z M 331 287 L 330 292 L 331 292 L 331 287 Z M 328 290 L 327 314 L 328 315 L 327 319 L 328 321 L 329 336 L 330 333 L 329 332 L 329 310 L 329 308 L 328 306 L 328 290 Z M 177 298 L 180 302 L 182 302 Q 182 298 177 298 Z M 331 300 L 330 305 L 331 305 L 331 300 Z M 155 304 Q 154 308 157 307 Q 158 303 155 304 Z M 170 304 Q 169 307 172 306 Q 173 303 170 304 Z M 149 307 L 147 310 L 150 309 Q 151 306 149 307 Z M 162 309 Q 160 312 163 311 L 162 309 Z M 174 311 L 172 314 L 174 313 L 174 311 Z M 156 314 L 155 317 L 156 317 L 156 314 Z M 144 315 L 142 318 L 144 317 L 144 315 Z M 161 315 Q 160 318 163 317 Q 164 314 161 315 Z M 183 317 L 182 320 L 183 320 L 183 317 Z M 200 317 L 199 320 L 200 320 L 200 317 Z M 165 320 L 163 323 Q 162 325 165 324 L 165 320 Z M 176 320 L 175 324 Q 176 326 173 325 L 172 328 L 171 325 L 170 330 L 168 331 L 161 330 L 161 325 L 160 331 L 158 332 L 156 329 L 155 332 L 153 330 L 151 332 Q 150 334 153 333 L 152 337 L 155 342 L 153 342 L 151 337 L 150 337 L 150 336 L 150 334 L 147 335 L 147 338 L 155 348 Q 155 355 159 359 L 161 358 Q 162 354 159 355 L 156 344 L 157 341 Q 155 336 159 337 L 161 338 Q 162 340 159 339 L 158 344 L 160 344 L 161 340 L 161 348 L 169 354 L 172 354 L 173 349 Q 171 344 170 347 L 169 343 L 173 342 L 174 345 Q 176 348 177 345 L 175 342 Q 174 339 177 340 L 177 342 L 179 341 L 181 344 L 184 337 L 181 336 Q 180 333 183 334 L 182 336 L 184 336 L 185 337 L 184 332 L 176 335 L 175 332 L 176 328 L 179 330 L 179 328 L 176 327 L 179 326 L 181 326 Q 185 327 184 332 L 186 331 L 186 333 L 186 334 L 189 332 L 192 334 L 194 331 L 192 332 Q 189 331 190 328 L 187 325 L 187 322 Q 185 318 184 322 L 176 320 Z M 320 320 L 319 332 L 320 332 L 320 320 Z M 167 321 L 166 324 L 167 324 L 167 321 Z M 174 321 L 172 323 L 174 323 L 174 321 Z M 190 321 L 189 324 L 190 324 L 190 321 Z M 149 325 L 150 327 Q 151 324 149 325 Z M 316 327 L 314 329 L 315 338 Q 314 331 317 329 Q 318 326 316 327 Z M 127 331 L 125 334 L 126 338 L 128 334 L 127 331 Z M 332 331 Q 330 337 332 340 L 333 340 L 332 331 Z M 310 332 L 310 345 L 312 345 Q 309 343 311 337 L 312 334 Q 313 331 310 332 Z M 320 333 L 319 338 L 320 338 L 320 333 Z M 323 333 L 322 340 L 323 340 L 323 333 Z M 195 334 L 194 337 L 195 337 L 195 334 Z M 308 335 L 306 337 L 308 338 L 308 335 Z M 140 336 L 138 338 Q 137 341 140 342 L 141 343 L 141 348 L 144 348 L 145 350 L 146 361 L 150 370 Q 151 372 155 371 L 156 375 L 158 378 L 158 373 L 161 371 L 163 371 L 165 370 L 166 361 L 169 357 L 165 359 Q 166 363 162 361 L 160 366 Q 155 367 154 364 L 155 359 L 152 349 L 147 341 Q 145 336 140 336 Z M 188 336 Q 186 339 189 338 L 188 336 Z M 330 336 L 330 364 L 331 362 L 330 358 L 331 353 L 330 352 L 330 336 Z M 304 337 L 303 351 L 304 351 L 304 337 Z M 129 338 L 129 341 L 131 340 Q 132 337 129 338 Z M 320 339 L 319 342 L 320 342 L 320 339 Z M 300 340 L 299 353 L 300 354 L 299 357 L 301 358 L 300 340 Z M 281 341 L 281 366 L 282 368 L 283 368 L 283 354 L 282 352 L 282 350 Q 281 344 283 343 Q 284 340 281 341 Z M 285 341 L 286 344 L 287 353 L 287 344 L 288 343 Q 289 340 285 341 Z M 290 341 L 290 345 L 292 344 Q 293 340 290 341 Z M 296 341 L 295 344 L 296 344 L 296 341 Z M 136 343 L 136 346 Q 134 351 138 350 L 140 354 L 142 355 Q 143 350 141 351 L 136 343 Z M 324 344 L 323 350 L 324 350 L 324 344 Z M 177 345 L 177 347 L 179 346 L 177 345 Z M 195 345 L 192 350 L 193 352 L 198 354 L 199 352 L 200 352 L 199 354 L 206 355 L 207 351 Q 209 349 207 348 Q 205 351 200 350 L 198 346 L 195 345 Z M 201 346 Q 200 349 203 348 Q 204 345 201 346 Z M 291 348 L 290 351 L 291 352 L 291 363 L 293 364 L 292 362 L 292 349 L 291 348 Z M 312 349 L 311 355 L 312 355 L 312 349 Z M 316 349 L 315 353 L 316 353 L 316 349 Z M 318 350 L 317 356 L 318 356 L 318 350 Z M 304 352 L 303 355 L 304 355 L 304 352 Z M 295 353 L 294 356 L 295 356 L 295 353 Z M 287 354 L 286 361 L 287 361 L 287 354 Z M 316 354 L 315 357 L 316 357 L 316 354 Z M 305 355 L 304 360 L 305 360 L 305 355 Z M 199 356 L 197 358 L 198 360 L 199 358 L 199 356 Z M 296 356 L 294 358 L 295 360 L 296 358 L 296 356 Z M 201 357 L 196 368 L 198 371 L 201 361 L 201 357 Z M 327 358 L 326 366 L 327 366 L 327 358 Z M 308 359 L 307 362 L 308 362 L 308 359 Z M 321 359 L 320 374 L 321 374 L 321 359 Z M 323 359 L 322 367 L 323 367 L 323 359 Z M 159 360 L 157 362 Q 156 364 159 363 L 159 360 Z M 316 360 L 315 365 L 316 365 L 316 360 Z M 122 361 L 117 363 L 113 368 Q 114 370 116 368 Q 120 367 118 372 L 117 371 Q 115 374 112 373 L 107 383 L 107 400 L 105 406 L 105 420 L 107 420 L 107 412 L 106 411 L 107 404 L 110 402 L 111 401 L 113 391 L 116 389 L 117 383 L 121 380 L 119 384 Q 120 388 118 390 Q 119 393 117 392 Q 113 394 114 400 L 109 408 L 109 423 Q 106 422 107 428 L 105 428 L 107 432 L 113 436 L 114 431 L 114 423 L 117 414 L 117 400 L 119 399 L 120 403 L 119 407 L 120 414 Q 124 410 124 403 L 127 405 L 124 413 L 120 417 L 116 430 L 118 439 L 123 442 Q 124 445 126 441 L 128 442 L 129 437 L 134 435 L 132 431 L 132 425 L 134 420 L 140 411 L 143 407 L 140 407 Q 141 410 138 409 L 138 412 L 132 415 L 126 424 L 125 436 L 124 437 L 126 437 L 125 440 L 121 439 L 124 422 L 132 413 L 128 407 Q 127 401 132 400 L 136 401 L 138 401 L 138 391 L 138 389 L 140 383 L 137 368 Q 135 362 129 361 L 124 362 L 122 361 Z M 299 361 L 299 365 L 298 367 L 300 367 L 301 368 L 299 361 Z M 305 361 L 303 363 L 304 367 L 305 367 L 305 361 Z M 287 362 L 286 367 L 288 366 L 287 362 Z M 196 364 L 194 368 L 196 367 L 196 364 Z M 296 364 L 295 367 L 296 367 L 296 364 Z M 307 364 L 308 371 L 309 371 Q 311 363 307 364 Z M 328 366 L 327 370 L 328 370 L 328 366 Z M 181 368 L 178 370 L 174 374 L 172 387 L 169 394 L 166 397 L 167 399 L 173 391 L 173 388 Q 176 389 175 387 L 178 385 L 171 398 Q 170 400 173 399 L 171 406 L 169 406 L 171 405 L 171 403 L 165 407 L 164 406 L 166 403 Q 163 406 157 405 L 151 408 L 148 411 L 145 422 L 146 430 L 149 430 L 159 425 Q 161 424 159 423 L 160 421 L 161 418 L 163 419 L 164 417 L 164 419 L 164 420 L 167 419 L 168 417 Q 165 418 166 416 L 168 416 L 170 415 L 169 412 L 168 414 L 166 414 L 169 409 L 170 412 L 170 410 L 173 411 L 177 410 Q 179 409 177 408 L 180 409 L 180 407 L 184 405 Q 183 402 186 403 L 184 401 L 187 402 L 192 400 L 192 397 L 189 398 L 188 401 Q 184 400 185 396 L 187 396 L 194 394 L 195 392 Q 190 391 189 394 L 186 392 L 184 396 L 183 396 L 183 391 Q 180 391 181 387 L 190 385 L 191 383 L 187 383 L 182 385 Q 180 387 179 385 L 185 380 Q 186 373 183 370 Q 184 367 181 368 Z M 314 370 L 313 373 L 314 373 L 314 370 Z M 317 370 L 316 374 L 317 374 L 317 370 Z M 326 370 L 326 394 L 327 392 L 326 391 L 326 370 Z M 195 371 Q 194 374 197 373 Q 198 370 195 371 Z M 289 371 L 285 372 L 279 376 L 278 375 L 270 380 L 266 386 L 262 396 L 262 410 L 266 420 Q 273 429 286 433 L 300 433 L 310 428 Q 318 422 321 411 L 322 408 L 321 393 L 315 382 L 304 373 L 297 371 L 289 371 Z M 311 371 L 312 373 Q 313 370 311 371 Z M 333 371 L 331 383 L 333 382 L 333 371 Z M 329 372 L 328 376 L 329 376 L 329 372 Z M 151 373 L 150 375 L 154 378 L 154 375 L 151 373 Z M 162 373 L 161 376 L 162 378 L 164 375 Q 165 372 162 373 Z M 96 374 L 90 386 L 88 387 L 86 389 Q 87 395 84 398 L 84 399 L 88 399 L 90 396 Q 89 392 92 393 L 94 387 Q 93 380 96 381 Q 94 379 97 378 L 96 374 Z M 322 374 L 321 378 L 322 378 L 322 374 Z M 195 377 Q 195 380 193 379 L 191 379 L 191 380 L 195 380 L 195 377 Z M 329 379 L 328 382 L 329 382 L 329 379 Z M 322 380 L 322 386 L 323 386 Q 324 381 322 380 Z M 193 386 L 183 390 L 186 391 L 188 390 L 190 390 L 193 389 L 194 387 L 194 389 L 196 388 Q 197 385 193 386 Z M 329 391 L 329 405 L 330 405 Q 331 396 329 391 Z M 196 395 L 195 396 Q 192 395 193 399 L 196 397 L 196 395 Z M 332 398 L 331 418 L 331 420 L 332 423 L 331 427 L 332 428 L 333 441 L 333 414 L 333 412 L 333 404 L 332 398 Z M 169 400 Q 164 402 168 404 L 168 403 L 170 403 Q 171 399 169 400 Z M 194 402 L 192 404 Q 191 408 194 407 L 194 402 Z M 133 403 L 131 407 L 136 405 L 133 403 Z M 146 404 L 145 406 L 147 405 L 146 404 Z M 188 404 L 186 407 L 182 410 Q 179 411 181 413 Q 180 416 184 414 L 186 418 Q 189 419 188 416 L 185 415 L 189 405 L 188 404 Z M 326 407 L 325 412 L 327 418 L 328 416 L 327 412 L 328 410 Q 329 406 326 407 Z M 83 410 L 80 415 L 81 417 Q 82 420 79 419 L 79 423 L 83 422 L 86 423 L 87 424 Q 88 416 85 413 Q 86 409 83 410 Z M 194 412 L 189 413 L 192 417 L 195 416 L 194 412 Z M 200 412 L 199 415 L 202 417 L 200 412 Z M 142 413 L 135 425 Q 134 430 136 432 Q 135 434 138 433 L 142 415 L 142 413 Z M 177 413 L 176 414 Q 173 413 174 416 L 164 424 L 165 428 L 170 431 Q 172 430 170 429 Q 171 419 177 415 L 177 413 Z M 228 414 Q 227 417 231 416 Q 232 413 228 414 Z M 180 417 L 176 424 L 177 428 L 180 422 L 180 417 Z M 324 417 L 320 423 L 321 426 L 323 427 L 322 424 L 324 420 L 324 417 Z M 190 418 L 190 420 L 188 421 Q 183 425 181 432 Q 182 434 184 432 L 194 435 Q 192 433 196 431 L 196 433 L 199 434 L 198 436 L 195 437 L 200 437 L 201 432 L 202 432 L 200 438 L 210 440 L 212 439 L 213 442 L 217 443 L 222 442 L 227 443 L 228 444 L 227 441 Q 229 439 227 438 L 221 441 L 218 440 L 221 439 L 222 436 L 232 434 L 233 432 L 227 434 Q 220 435 219 433 L 220 429 L 222 430 L 224 429 L 223 431 L 227 431 L 227 425 L 222 428 L 220 427 Q 216 426 217 429 L 211 430 L 210 434 Q 211 437 217 436 L 218 438 Q 215 437 216 440 L 217 441 L 208 436 Q 210 434 209 430 L 202 424 L 199 419 L 197 418 L 194 419 L 190 418 Z M 327 419 L 326 452 L 328 452 L 327 449 L 327 419 Z M 161 420 Q 160 423 163 422 Q 164 419 161 420 Z M 143 423 L 141 433 Q 139 434 142 436 L 141 438 Q 140 441 143 440 L 144 434 L 144 432 L 143 423 Z M 78 424 L 76 429 L 82 428 L 86 428 L 97 432 L 98 430 Q 94 431 95 428 L 94 428 L 90 428 L 84 425 L 81 425 Q 79 427 78 424 Z M 96 424 Q 93 428 97 427 L 96 424 Z M 233 424 L 233 426 L 235 426 L 234 430 L 236 430 Q 239 429 238 426 Q 237 423 233 424 Z M 181 425 L 179 428 L 181 428 L 181 425 Z M 319 425 L 317 427 L 318 441 L 318 431 L 319 430 L 319 425 Z M 158 428 Q 157 437 152 441 L 154 441 L 158 435 L 158 428 Z M 76 430 L 74 432 L 77 434 L 84 436 Q 88 437 90 435 Q 95 437 94 433 L 84 430 L 81 431 L 76 430 Z M 314 430 L 312 432 Q 315 433 315 438 L 315 437 L 315 435 Q 317 429 314 430 Z M 239 431 L 238 432 Q 235 431 236 434 L 236 436 L 232 439 L 233 440 L 235 439 L 240 432 L 239 431 Z M 310 432 Q 305 434 308 436 L 307 439 L 309 439 L 311 435 Q 312 431 310 432 Z M 147 433 L 146 440 L 149 440 L 152 436 L 153 434 L 151 435 L 147 433 Z M 135 435 Q 135 439 133 438 L 131 441 L 138 443 L 137 440 L 138 439 L 135 435 Z M 305 435 L 302 436 L 300 439 L 304 437 L 303 444 L 304 446 L 306 442 Q 307 434 305 435 Z M 75 436 L 74 438 L 72 439 L 68 446 Q 68 457 64 465 L 63 483 L 65 482 L 64 484 L 68 485 L 67 482 L 67 467 L 68 466 Q 69 461 67 460 L 70 446 Q 69 443 72 444 Q 70 452 71 465 L 70 466 L 70 481 L 71 483 L 83 492 L 88 492 L 96 495 L 98 494 L 103 487 L 121 492 L 135 479 L 145 474 L 148 474 L 150 472 L 158 470 L 168 470 L 169 471 L 178 470 L 180 467 Q 184 466 183 469 L 186 470 L 190 456 L 194 448 L 194 444 L 194 442 L 195 440 L 194 439 L 188 452 L 186 464 L 168 468 L 159 464 Q 152 466 151 463 L 138 469 L 136 472 L 138 471 Q 140 470 139 473 L 119 486 L 113 485 Q 110 484 113 482 L 116 483 L 120 483 L 132 474 L 134 474 L 135 472 L 128 473 L 125 475 L 122 474 L 120 475 L 105 469 L 95 461 L 88 453 Q 89 450 86 451 L 85 448 L 83 447 L 86 456 L 92 464 L 100 469 L 104 474 L 103 475 L 96 470 L 83 456 L 82 453 L 83 450 L 80 446 L 79 437 L 75 436 Z M 284 436 L 283 461 L 285 462 L 285 450 L 284 449 L 285 445 L 284 436 Z M 287 437 L 288 442 L 289 442 Q 291 436 287 437 Z M 298 437 L 297 442 L 298 442 L 298 437 Z M 239 438 L 234 442 Q 235 444 232 443 L 232 445 L 236 444 L 239 440 L 239 438 Z M 292 438 Q 291 441 294 440 Q 295 437 292 438 Z M 311 439 L 312 442 L 313 440 L 311 439 Z M 315 440 L 314 444 L 315 444 L 315 440 Z M 310 441 L 307 444 Q 306 446 309 445 L 310 443 L 310 441 Z M 332 441 L 332 445 L 332 468 L 331 469 L 333 470 L 333 444 L 332 441 Z M 288 442 L 288 447 L 288 462 L 290 462 L 289 460 L 289 445 L 288 442 Z M 321 443 L 320 448 L 321 448 L 321 443 Z M 49 444 L 49 463 L 50 465 L 41 465 L 39 463 L 32 464 Q 31 472 33 475 L 41 476 L 42 472 L 45 471 Q 50 471 50 475 L 50 478 L 55 478 L 55 469 L 57 467 L 56 459 L 56 457 L 56 449 L 55 448 L 56 446 L 56 444 L 49 444 Z M 241 444 L 237 445 L 235 450 L 239 449 L 240 446 L 240 448 L 244 447 L 246 449 Q 244 453 243 450 L 242 452 L 234 459 L 241 461 L 242 464 L 233 466 L 227 466 Q 218 475 206 480 L 210 468 L 197 470 L 198 467 L 196 466 L 192 475 L 193 481 L 197 483 Q 201 482 203 484 L 219 481 L 229 477 L 252 462 L 256 457 L 255 449 L 250 444 L 241 444 Z M 215 445 L 214 449 L 215 451 L 225 446 L 215 445 Z M 311 445 L 311 450 L 313 449 Q 314 444 311 445 Z M 318 445 L 317 461 L 318 461 L 318 445 Z M 234 446 L 233 448 L 235 447 L 234 446 Z M 299 446 L 298 463 L 299 463 L 299 446 Z M 302 446 L 301 453 L 302 453 L 302 446 Z M 226 447 L 219 451 Q 216 450 217 453 L 224 455 L 229 452 Q 231 445 226 447 Z M 306 448 L 305 456 L 307 456 L 306 448 Z M 322 448 L 321 459 L 320 460 Q 319 462 322 461 L 322 448 Z M 293 449 L 292 454 L 292 456 L 291 461 Q 290 463 293 462 L 295 462 L 295 453 L 294 458 L 293 449 Z M 308 449 L 309 452 L 310 450 L 308 449 Z M 239 451 L 237 453 L 239 453 L 239 451 Z M 215 452 L 201 462 L 202 465 L 212 461 L 214 459 L 215 454 L 215 452 Z M 235 453 L 235 455 L 237 454 L 235 453 Z M 312 453 L 311 458 L 312 458 L 312 453 Z M 328 453 L 326 462 L 328 463 L 328 453 Z M 218 455 L 216 457 L 217 459 L 221 457 L 218 455 Z M 229 455 L 228 457 L 231 457 L 229 455 Z M 315 455 L 314 460 L 315 460 L 315 455 Z M 223 458 L 214 463 L 215 466 L 221 464 L 227 464 L 229 461 Q 228 457 223 458 Z M 304 458 L 303 462 L 305 461 L 304 458 Z M 257 460 L 253 466 L 257 465 L 256 464 L 260 462 L 261 460 L 259 461 L 257 460 Z M 232 461 L 230 464 L 236 463 Q 235 460 232 461 Z M 267 461 L 267 462 L 271 462 L 267 461 Z M 272 461 Q 271 464 274 463 Q 275 460 272 461 Z M 209 464 L 209 466 L 212 465 L 209 464 Z M 279 464 L 280 478 L 281 470 L 280 468 L 283 466 L 279 464 Z M 311 464 L 310 468 Q 309 472 313 470 L 312 468 L 314 465 L 311 464 Z M 315 464 L 315 466 L 317 465 L 315 464 Z M 319 464 L 320 466 Q 321 463 319 464 Z M 194 465 L 192 468 L 195 466 L 194 465 Z M 296 465 L 296 467 L 298 466 L 296 465 Z M 303 465 L 303 467 L 306 467 Q 307 463 303 465 Z M 323 466 L 322 469 L 325 470 L 323 474 L 326 474 L 325 473 L 326 470 L 328 470 L 326 467 L 325 467 Q 326 469 323 468 L 323 466 Z M 191 467 Q 189 470 192 469 L 191 467 Z M 217 467 L 212 468 Q 213 471 210 473 L 211 476 L 221 468 L 217 467 Z M 319 467 L 319 470 Q 320 474 318 476 L 320 476 L 321 474 L 319 467 Z M 57 468 L 57 477 L 61 480 L 62 470 L 57 468 Z M 250 468 L 243 474 L 225 483 L 227 486 L 227 485 L 231 483 L 232 486 Q 235 487 233 483 L 235 483 L 236 484 L 235 482 L 239 479 L 240 485 L 241 480 L 240 478 L 242 477 L 243 483 L 244 477 Q 243 473 246 474 Q 247 470 249 473 L 251 469 L 250 468 Z M 316 468 Q 313 470 316 471 L 317 469 L 316 468 Z M 258 469 L 257 474 L 259 473 L 258 469 Z M 14 470 L 12 472 L 14 476 L 13 478 L 17 478 L 19 483 L 20 481 L 21 483 Q 18 482 19 486 L 19 487 L 21 486 L 25 489 L 34 487 L 37 481 L 36 479 L 35 479 L 28 475 L 19 475 L 14 470 Z M 188 470 L 188 472 L 190 471 L 188 470 Z M 283 470 L 283 472 L 285 471 L 283 470 Z M 296 470 Q 294 473 297 472 L 296 470 Z M 334 470 L 333 473 L 334 473 L 334 470 Z M 251 471 L 250 474 L 251 474 L 251 471 Z M 260 471 L 260 473 L 262 472 L 260 471 Z M 294 471 Q 291 472 293 474 Q 292 476 295 475 L 294 471 Z M 312 471 L 306 474 L 308 475 Q 307 472 310 473 L 309 476 L 310 477 L 312 476 L 313 474 L 312 474 L 312 473 L 312 471 Z M 11 472 L 10 476 L 13 476 L 12 475 L 11 472 Z M 253 472 L 253 477 L 254 477 L 253 472 Z M 263 472 L 263 473 Q 265 472 264 475 L 266 474 L 263 472 Z M 300 472 L 300 475 L 302 474 Q 303 471 300 472 Z M 315 472 Q 317 477 313 476 L 314 478 L 316 477 L 317 478 L 316 476 L 317 473 L 315 472 Z M 190 473 L 188 475 L 189 478 L 190 478 L 190 473 Z M 292 473 L 290 475 L 291 479 L 293 478 L 292 473 Z M 289 474 L 287 478 L 289 477 L 289 474 Z M 246 475 L 246 477 L 248 476 L 246 475 Z M 257 475 L 256 477 L 261 480 L 261 475 L 259 476 L 257 475 Z M 264 475 L 263 478 L 264 478 L 264 475 Z M 296 475 L 294 477 L 297 477 L 296 475 Z M 322 475 L 320 479 Q 319 481 322 480 L 322 475 Z M 331 475 L 331 478 L 332 478 Q 333 474 331 475 Z M 250 476 L 248 478 L 249 480 L 250 478 L 250 476 Z M 283 476 L 282 480 L 284 481 L 283 476 Z M 253 477 L 252 480 L 250 481 L 253 481 L 253 477 Z M 319 477 L 318 481 L 319 481 L 319 477 Z M 46 478 L 41 481 L 37 487 L 35 489 L 24 493 L 26 496 L 29 496 Q 28 493 31 494 L 33 494 L 38 491 L 39 488 L 48 480 L 46 478 Z M 270 478 L 268 482 L 270 481 L 270 478 Z M 188 479 Q 187 482 190 481 Q 191 478 188 479 Z M 311 479 L 311 482 L 309 483 L 310 485 L 313 481 Q 314 478 311 479 Z M 334 479 L 330 486 L 332 486 L 333 484 L 333 488 L 334 488 L 334 479 Z M 257 480 L 255 485 Q 254 487 257 486 L 257 480 Z M 278 480 Q 278 485 275 487 L 277 487 L 278 484 L 281 482 L 278 480 Z M 294 480 L 293 483 L 296 483 L 294 482 L 294 480 Z M 305 480 L 301 483 L 305 483 L 305 480 Z M 323 480 L 322 485 L 323 485 L 323 480 Z M 313 481 Q 312 484 315 483 Q 316 480 313 481 Z M 11 482 L 10 491 L 11 492 Q 12 496 10 498 L 11 500 L 12 498 Q 13 501 19 500 L 21 500 L 23 499 Q 24 496 22 497 L 18 498 L 19 495 L 14 498 L 12 496 Q 15 494 13 493 Q 12 489 15 490 L 14 489 Q 15 486 13 487 L 12 490 L 11 482 Z M 49 482 L 44 486 L 47 487 L 50 483 L 49 482 Z M 246 482 L 245 486 L 246 486 L 246 482 Z M 284 482 L 283 486 L 285 485 L 284 482 Z M 287 482 Q 286 485 289 484 Q 290 481 287 482 Z M 54 483 L 50 488 L 55 484 L 54 483 Z M 192 483 L 191 486 L 192 487 L 195 486 L 197 489 L 198 487 L 192 483 Z M 249 483 Q 247 486 250 485 L 249 483 Z M 253 483 L 251 485 L 254 485 Q 255 482 253 483 Z M 265 483 L 263 486 L 265 485 L 265 483 Z M 268 483 L 268 486 Q 271 485 268 483 Z M 58 484 L 60 486 L 61 486 L 58 484 Z M 222 484 L 220 486 L 222 487 L 222 484 Z M 230 484 L 229 486 L 231 485 L 230 484 Z M 260 484 L 260 486 L 262 485 L 260 484 Z M 216 486 L 211 488 L 217 488 Q 218 485 216 486 Z M 325 486 L 323 488 L 325 488 L 325 486 Z M 43 487 L 42 490 L 43 490 L 43 487 Z M 45 487 L 45 490 L 47 489 L 45 487 Z M 199 487 L 199 489 L 202 489 L 203 489 L 199 487 Z M 317 487 Q 316 490 320 489 Q 321 486 317 487 Z M 194 488 L 192 491 L 194 492 L 194 488 Z M 209 488 Q 208 492 211 491 Q 212 487 209 488 Z M 272 488 L 273 490 Q 274 487 272 488 Z M 292 488 L 280 494 L 270 506 L 267 520 L 268 526 L 270 528 L 270 532 L 276 541 Q 282 547 292 549 L 304 549 L 315 544 Q 325 538 327 524 Q 329 509 323 502 Q 318 493 308 489 Q 302 486 292 488 Z M 59 489 L 57 491 L 59 491 L 59 489 Z M 66 489 L 66 494 L 67 494 Q 68 490 66 489 Z M 228 489 L 225 492 Q 227 495 229 491 Q 230 488 228 489 Z M 234 489 Q 233 492 240 491 L 241 489 L 238 490 L 234 489 Z M 262 489 L 260 491 L 262 491 L 262 489 Z M 20 490 L 21 492 L 22 492 L 20 490 Z M 64 490 L 62 493 L 64 492 L 64 490 Z M 74 490 L 73 493 L 74 493 L 74 490 Z M 205 490 L 205 491 L 208 491 L 205 490 Z M 213 490 L 214 492 L 216 492 Q 217 488 213 490 Z M 42 491 L 39 493 L 41 494 L 40 498 L 42 499 L 41 497 L 43 494 L 42 491 Z M 69 491 L 69 493 L 71 492 L 69 491 Z M 249 491 L 249 494 L 250 494 Q 251 490 249 491 Z M 322 491 L 323 493 Q 324 490 322 491 Z M 330 491 L 331 495 L 332 493 Q 333 490 330 491 Z M 238 492 L 236 494 L 238 494 L 238 492 Z M 36 493 L 37 495 L 39 494 L 36 493 Z M 33 495 L 31 497 L 32 500 L 33 497 L 33 500 L 34 500 Q 35 496 33 495 Z M 70 495 L 70 497 L 73 497 Q 74 493 70 495 Z M 225 497 L 223 500 Q 222 502 225 501 L 225 497 Z M 233 497 L 231 500 L 232 502 L 233 500 L 233 497 Z M 36 498 L 36 500 L 38 499 L 36 498 Z M 131 499 L 129 501 L 130 504 L 131 501 L 131 499 Z M 267 499 L 266 502 L 267 502 L 267 499 Z M 134 500 L 134 503 L 135 503 Q 136 499 134 500 Z M 255 500 L 253 502 L 254 505 L 255 502 L 255 500 Z M 30 501 L 28 503 L 14 502 L 10 504 Q 9 506 16 505 L 18 505 L 27 505 L 28 504 L 31 505 L 35 504 L 37 505 L 39 505 Q 43 506 41 502 L 32 502 L 30 501 Z M 81 501 L 80 504 L 81 504 L 81 501 Z M 115 501 L 112 506 L 115 504 L 115 501 Z M 259 501 L 257 505 L 259 506 L 259 501 Z M 93 502 L 91 507 L 93 506 L 93 502 Z M 106 502 L 104 505 L 105 507 L 106 505 L 106 502 Z M 118 502 L 117 505 L 118 505 L 118 502 Z M 126 502 L 125 505 L 126 505 L 126 502 Z M 143 502 L 142 505 L 143 505 L 143 502 Z M 263 502 L 262 506 L 263 506 L 263 502 Z M 330 502 L 330 506 L 332 505 Q 333 501 330 502 Z M 65 503 L 63 506 L 65 505 L 65 503 Z M 87 503 Q 86 506 89 505 Q 90 502 87 503 Z M 77 504 L 74 509 L 75 511 L 77 507 L 77 504 Z M 101 504 L 99 507 L 100 509 L 101 507 L 101 504 Z M 121 504 L 120 507 L 121 507 L 121 504 Z M 52 505 L 51 508 L 52 508 L 52 505 Z M 156 505 L 154 507 L 155 509 L 156 507 L 156 505 Z M 135 506 L 134 510 L 135 510 L 135 506 Z M 10 507 L 10 536 L 11 537 Q 13 543 10 545 L 11 592 L 13 593 L 28 593 L 30 593 L 47 593 L 48 592 L 52 593 L 54 592 Q 60 590 62 593 L 64 592 L 67 593 L 68 592 L 115 592 L 116 591 L 118 592 L 121 591 L 124 592 L 126 591 L 129 592 L 132 591 L 190 590 L 192 590 L 194 589 L 196 590 L 200 589 L 202 589 L 204 590 L 205 589 L 327 589 L 329 588 L 332 589 L 335 588 L 336 587 L 336 562 L 335 562 L 328 560 L 323 550 L 323 544 L 312 552 L 306 554 Q 288 556 280 549 L 277 549 Q 278 546 276 547 Q 269 541 265 533 L 262 519 L 263 511 L 264 509 Q 260 512 252 510 L 251 511 L 249 510 Q 242 508 241 511 L 234 510 L 232 510 Q 225 508 224 511 L 215 510 L 213 510 L 205 511 L 203 511 L 201 512 L 210 527 L 210 530 L 219 541 L 221 542 L 222 540 L 229 540 L 231 546 L 244 546 L 250 543 Q 261 542 267 546 Q 267 552 263 555 L 252 564 L 230 573 L 224 577 L 213 577 L 212 576 Q 209 577 210 575 L 205 571 Q 206 568 203 567 Q 203 560 206 558 L 202 552 L 188 542 L 186 543 L 174 543 L 170 545 L 163 545 L 153 541 L 138 541 L 131 536 L 132 531 Q 137 527 139 521 L 138 518 Q 139 515 143 515 L 144 513 L 112 514 L 110 514 L 93 514 L 92 515 L 84 514 L 79 524 L 78 536 L 76 542 L 72 546 L 68 547 L 59 545 L 53 568 L 48 569 L 39 568 L 39 561 L 49 525 L 50 514 L 43 514 L 41 513 Q 42 507 41 507 L 10 507 Z M 59 507 L 58 510 L 59 510 L 59 507 Z M 66 507 L 63 511 L 65 511 L 66 509 L 66 507 Z M 115 507 L 113 510 L 115 511 L 115 507 Z M 147 507 L 146 510 L 147 510 L 147 507 Z M 331 507 L 333 515 L 334 527 L 335 527 L 335 514 L 334 513 Q 336 505 331 507 Z M 72 508 L 71 511 L 72 511 L 72 508 Z M 138 508 L 138 510 L 140 509 L 138 508 Z M 53 517 L 52 520 L 53 520 L 53 517 Z M 167 520 Q 167 524 164 526 L 165 530 L 169 531 L 172 532 L 167 520 Z M 67 522 L 66 526 L 67 526 L 67 522 Z M 52 523 L 51 526 L 52 526 L 52 523 Z M 333 526 Q 333 530 330 532 L 331 534 L 331 532 Q 334 531 333 536 L 334 536 L 333 526 Z M 51 530 L 49 532 L 50 535 L 51 532 L 51 530 Z M 68 530 L 67 533 L 68 533 L 68 530 Z M 55 531 L 56 534 L 57 532 L 55 531 Z M 65 531 L 64 534 L 65 534 L 65 531 Z M 69 534 L 68 537 L 69 537 L 69 534 Z M 49 535 L 47 540 L 48 543 L 49 540 L 49 535 Z M 54 535 Q 52 539 56 538 L 56 536 L 54 535 Z M 58 535 L 57 538 L 58 538 L 58 535 Z M 335 536 L 334 541 L 335 541 L 335 536 Z M 66 538 L 64 542 L 63 540 L 62 540 Q 60 546 65 544 L 66 541 L 66 538 Z M 331 538 L 332 544 L 333 544 Q 335 537 331 538 Z M 53 540 Q 52 543 55 542 Q 56 539 53 540 Z M 68 540 L 68 544 Q 69 546 71 544 Q 73 545 72 543 L 68 540 Z M 327 542 L 326 544 L 328 543 L 327 542 Z M 47 543 L 45 551 L 43 554 L 44 558 L 47 548 L 47 543 Z M 331 544 L 330 547 L 331 547 L 331 544 Z M 53 545 L 49 554 L 50 558 L 53 548 L 53 545 Z M 56 545 L 54 549 L 56 550 L 56 545 Z M 334 545 L 333 548 L 334 548 L 334 545 Z M 49 546 L 46 554 L 47 558 L 49 550 L 49 546 Z M 334 549 L 334 552 L 335 552 Q 336 548 334 549 Z M 336 552 L 335 557 L 336 557 L 336 552 Z M 53 553 L 52 556 L 53 556 L 53 553 Z M 43 558 L 41 563 Q 40 566 44 565 L 45 566 Q 46 561 43 562 L 43 558 Z M 46 558 L 45 562 L 46 562 L 46 558 Z M 52 558 L 51 561 L 52 561 L 52 558 Z "></path><path d="M 139.5 17 L 150.5 18 L 152.5 17 L 153.5 18 L 166.5 18 L 167.5 17 L 190.5 17 L 191.5 19 L 185 21.5 L 186 29.5 L 185 33 L 190 33 L 190 35 L 179.5 36 L 178.5 35 L 169.5 35 L 167.5 36 L 165.5 35 L 164.5 36 L 144.5 36 L 143.5 37 L 141 36 L 141.5 34 L 148.5 34 Q 152.2 31.7 147 29.5 L 142 21 L 135 21 L 135 18 L 139.5 17 Z M 146 20 Q 146 27 152 30 Q 151 32 154 31 L 160 22 L 160 20 L 146 20 Z M 165 20 L 157 32 L 157 34 L 163 33 L 165 34 L 168 33 L 168 21 L 165 20 Z M 171 20 L 172 33 L 174 33 L 174 23 L 174 21 L 171 20 Z M 178 20 L 179 27 L 178 31 Q 177 34 181 33 Q 184 31 182 25 L 182 23 Q 183 18 178 20 Z "></path><path d="M 275.5 26 L 282.5 41 Q 291.8 40.2 297 42 Q 298.1 44.7 295.5 44 L 287 49 L 287 52.5 L 291 59.5 L 292 66 L 289.5 67 L 275.5 57 L 260.5 67 L 259 63.5 L 265 50.5 Q 260.5 44.7 253 43 L 253.5 41 L 267.5 41 L 275.5 26 Z M 274 30 L 271 41 L 279 41 L 276 34 Q 277 29 274 30 Z M 260 43 Q 260 46 266 47 L 267 45 L 267 43 L 260 43 Z M 269 43 L 268 50 L 276 55 L 283 51 L 281 45 L 280 43 L 269 43 Z M 284 43 L 285 48 L 292 45 L 292 43 L 284 43 Z M 266 51 L 262 62 L 263 64 L 272 58 L 273 56 L 266 51 Z M 284 52 L 278 57 L 287 62 L 288 63 L 284 52 Z "></path><path d="M 283 111 L 287 112.5 L 294.5 128 L 307.5 128 L 308 129.5 L 298 136 L 298 140.5 Q 303 145.8 303 155 L 300 155 Q 301.1 152.3 298.5 153 L 286.5 146 L 283.5 146 L 272.5 154 L 268 155 L 268 150.5 L 273 141.5 L 273 137 L 265 132.5 Q 265.7 129.5 262 131 L 262 128.5 L 263.5 129 L 265.5 128 L 267.5 129 L 268.5 128 L 277 128 L 283 111 Z M 285 114 L 280 128 L 290 128 L 291 127 L 285 114 Z M 291 129 L 290 130 L 280 130 Q 276 132 277 138 L 285 142 L 294 137 L 292 132 Q 293 128 291 129 Z M 300 129 L 295 130 L 297 134 L 303 131 Q 304 128 300 129 Z M 269 130 L 267 132 L 273 134 L 274 136 L 276 132 L 276 130 L 269 130 Z M 295 139 L 292 141 L 289 145 L 298 149 L 299 150 Q 298 143 295 139 Z M 275 140 L 270 152 L 271 153 Q 273 148 280 147 L 282 144 L 278 140 L 275 140 Z "></path><path d="M 289 202 L 292 203.5 L 292 207.5 L 295 217 L 297.5 216 L 311 216 Q 312 219.8 309.5 221 Q 302.1 223.1 298 228.5 L 301 234.5 L 304 248.5 L 302.5 248 L 300 248 Q 301.1 245.3 298.5 246 L 284.5 236 Q 276.7 242.7 265.5 246 L 265 243.5 L 274 231.5 L 275 226 L 273 226 Q 274.1 223.3 271.5 224 L 266 219.5 L 266.5 217 L 281.5 217 L 288 206.5 L 289 202 Z M 290 207 L 285 216 L 285 217 L 292 216 L 290 207 Z M 291 218 Q 289 221 284 219 Q 280 222 279 228 L 286 233 L 296 227 L 294 219 L 291 218 Z M 302 218 L 296 219 L 299 226 L 307 220 Q 308 217 302 218 Z M 271 219 L 271 222 L 278 225 Q 277 222 280 221 Q 279 218 278 220 Q 276 218 271 219 Z M 278 229 L 271 241 L 282 236 Q 284 237 283 234 L 278 229 Z M 296 229 L 291 232 L 289 236 L 298 242 L 301 245 L 297 233 Q 298 228 296 229 Z "></path><path d="M 288.5 283 Q 290.8 282.3 290 284.5 Q 292.7 286.8 292 292.5 L 295.5 298 L 299.5 297 L 301.5 298 Q 302.7 295.8 307.5 297 L 309 300 L 306.5 300 L 299 306.5 L 299 309.5 L 304 319.5 L 305 325 L 298.5 324 L 287.5 316 L 272.5 326 Q 270.3 325.3 271 321.5 L 276 311.5 L 276 307.5 L 267 300.5 L 268.5 298 L 280.5 298 L 281 296.5 L 286 285.5 L 288.5 283 Z M 287 288 L 284 295 L 284 298 L 292 298 L 291 295 L 291 293 L 289 290 Q 290 287 287 288 Z M 273 300 L 272 302 L 278 305 L 279 300 L 276 301 L 273 300 Z M 283 300 Q 279 302 280 308 L 287 313 L 295 308 Q 296 302 293 300 L 291 301 L 283 300 Z M 296 300 L 298 305 L 303 301 L 296 300 Z M 296 309 L 292 313 Q 289 312 290 316 L 301 322 L 302 323 L 297 311 Q 298 308 296 309 Z M 280 310 Q 276 314 275 321 Q 281 319 285 315 L 280 310 Z "></path><path d="M 184.5 323 Q 187.5 324.5 184.5 326 L 184.5 323 Z "></path><path d="M 173 333 L 175 333.5 L 173.5 336 L 173 333 Z "></path><path d="M 154.5 334 L 156 336.5 L 154 337 L 154.5 334 Z "></path><path d="M 179.5 335 L 178.5 337 L 179.5 335 Z "></path><path d="M 175.5 336 L 176 338.5 L 175 338.5 L 175.5 336 Z "></path><path d="M 165.5 337 L 166 340.5 L 165 340.5 L 165.5 337 Z "></path><path d="M 165.5 346 L 165 347.5 L 164.5 349 L 164 347.5 L 165.5 346 Z "></path><path d="M 167.5 348 L 168.5 350 L 167.5 348 Z "></path><path d="M 211.5 356 L 212 357.5 L 210 358.5 L 211.5 356 Z "></path><path d="M 293.5 376 Q 296.1 375.2 295 378.5 L 301.5 392 L 315 391 L 312.5 396 L 305 401.5 L 311 418.5 L 311 422 L 304.5 420 L 292.5 411 L 279.5 422 L 277 422 L 278 413.5 L 282 403.5 L 279 402 Q 280.1 399.3 277.5 400 L 272 396 L 273.5 393 L 281.5 393 L 282.5 394 L 286 392.5 L 291 378.5 L 293.5 376 Z M 293 380 L 289 390 L 289 393 L 298 393 L 297 388 L 293 380 Z M 297 394 L 296 395 L 287 395 L 285 403 L 293 408 Q 299 407 301 402 Q 302 397 299 396 Q 300 393 297 394 Z M 303 394 L 303 399 Q 308 399 310 395 L 303 394 Z M 282 395 L 279 396 L 283 401 L 284 396 L 282 395 Z M 303 403 L 298 408 Q 295 407 296 410 L 306 417 L 307 418 L 307 415 L 304 410 L 303 403 Z M 284 406 L 280 417 L 281 418 L 288 413 L 290 409 L 284 406 Z "></path><path d="M 177.5 391 L 179 391.5 L 177 392 L 176 397 L 173.5 398 L 174 396.5 L 177.5 391 Z "></path><path d="M 178.5 395 L 179 399.5 L 178 399.5 L 178.5 395 Z "></path><path d="M 180.5 400 L 181 401.5 L 180 404.5 L 182 403.5 L 182.5 402 L 183 403.5 L 179.5 406 L 177 405 L 180.5 400 Z "></path><path d="M 174.5 403 L 175 404.5 L 174.5 406 Q 176.8 405.3 176 407.5 Q 175.3 409.8 171.5 409 L 173 406.5 L 174.5 403 Z "></path><path d="M 158.5 406 L 157.5 408 L 158.5 406 Z "></path><path d="M 154 408 Q 157 407 156 410 Q 153 411 154 408 Z "></path><path d="M 159.5 408 L 161 408.5 L 157 412.5 Q 157.6 417.6 154.5 419 L 154 414.5 L 159.5 408 Z "></path><path d="M 152.5 409 L 153 410.5 L 151 411.5 L 152.5 409 Z "></path><path d="M 149.5 413 L 150 419 Q 147.3 417.9 148 420.5 L 147 420.5 L 149.5 413 Z "></path><path d="M 152.5 413 L 153 417.5 L 150 428 Q 145.5 429.8 147 424.5 L 148 424.5 L 148.5 427 L 149 420 Q 151.7 421.1 151 418.5 L 152.5 413 Z "></path><path d="M 162.5 414 L 163 415.5 L 161 416.5 L 162.5 414 Z "></path><path d="M 159.5 415 L 159 416.5 L 158.5 419 Q 155 417 159.5 415 Z "></path><path d="M 189.5 423 L 190 426.5 L 188 426.5 L 187.5 430 L 187 426.5 L 189.5 423 Z "></path><path d="M 194.5 423 Q 197.1 422.3 196 425 Q 191.9 423.3 193 427.5 L 192 427.5 Q 191.5 423.5 194.5 423 Z "></path><path d="M 200.5 425 L 201 426.5 L 197 429.5 L 198 427 Q 200.8 428 200.5 425 Z "></path><path d="M 202.5 427 L 203 429.5 L 202 429.5 L 202.5 427 Z "></path><path d="M 205.5 430 L 206 431.5 L 204.5 434 L 204 432.5 L 205.5 430 Z "></path><path d="M 75.5 438 Q 78.6 439.4 78 444.5 L 77 445.5 L 77 452.5 Q 74.3 455.8 75 462.5 L 81 483 Q 86.1 487.1 96 486 L 97 489.5 Q 95.8 492.2 94.5 490 L 83.5 488 L 78 483.5 L 76 476.5 L 76 470.5 L 74 467.5 L 72 458.5 L 75 449.5 L 75 444 Q 71.7 445.3 73 440.5 L 75.5 438 Z "></path><path d="M 51 445 Q 55.9 443.4 54 449 Q 51.3 450.1 52 447.5 L 51 445 Z "></path><path d="M 14.5 454 Q 17.5 455.5 14.5 457 Q 12.3 457.8 13 455.5 L 14.5 454 Z "></path><path d="M 51 457 Q 54 456 53 459 Q 50 460 51 457 Z "></path><path d="M 35 466 Q 38.3 464.9 37 469 Q 33.7 470.1 35 466 Z "></path><path d="M 21 479 Q 24 478 23 481 Q 20 482 21 479 Z "></path><path d="M 33.5 480 Q 35.8 479.3 35 481.5 L 33.5 480 Z "></path><path d="M 102 482 L 109 482 L 109 485 L 102 485 L 102 482 Z "></path><path d="M 298.5 492 L 305.5 510 L 320.5 508 Q 323.5 509.5 320.5 511 L 315.5 512 L 308 518.5 L 314 533.5 L 314 537 L 310.5 536 L 296.5 526 L 280 537 L 282 533.5 L 286 518.5 L 277 511.5 L 277.5 510 L 289.5 510 L 294 498.5 L 298.5 492 Z M 299 497 L 293 509 L 294 510 L 302 510 L 299 497 Z M 283 512 Q 283 516 288 516 L 289 514 Q 290 511 283 512 Z M 293 512 L 289 518 L 297 524 L 305 518 L 304 515 L 304 512 L 293 512 Z M 306 512 L 308 516 L 312 513 L 306 512 Z M 307 519 L 304 521 L 300 526 L 309 531 L 310 532 L 307 519 Z M 289 521 L 285 529 L 286 532 L 294 526 L 289 521 Z "></path><path d="M 343.5 541 L 344 542.5 L 344 544.5 Q 345 548.3 342 547 L 343 544.5 L 341.5 542 L 343 542.5 L 343.5 541 Z "></path><path d="M 97.5 548 L 116.5 549 L 123.5 551 L 139.5 558 L 143 561.5 L 145 567.5 Q 142.4 574.9 136.5 579 L 124.5 584 L 107.5 585 L 105.5 584 L 103.5 584 L 95.5 584 L 79.5 581 L 68 574.5 L 65 570.5 L 64 560.5 L 68.5 555 L 80.5 550 L 96.5 549 L 97.5 548 Z M 94 551 L 93 552 L 83 552 L 81 552 L 70 557 L 66 563 L 67 567 Q 73 573 83 576 L 91 578 L 106 579 L 107 580 L 130 578 L 136 575 Q 141 573 140 565 L 136 560 L 125 555 L 123 555 L 116 552 L 94 551 Z "></path><path d="M 341.5 548 Q 343.8 547.3 343 549.5 Q 345.2 550.8 344 555.5 L 342 556.5 L 343 552.5 L 341.5 548 Z "></path><path d="M 108.5 553 L 111 560 L 117.5 561 L 119.5 561 L 126.5 561 L 127 562.5 L 120.5 565 L 118.5 565 Q 113.9 563.6 116 569.5 L 119 573.5 L 116.5 575 L 100.5 567 L 99.5 568 L 91.5 568 L 79 570 L 80 566 L 88 563 Q 89.1 560.3 86.5 561 Q 85.4 558.3 82 559 Q 80.6 555 87.5 557 L 97.5 559 L 105.5 556 L 108.5 553 Z M 97 561 L 97 563 L 102 565 L 110 565 L 110 564 L 107 561 L 97 561 Z M 93 563 L 88 565 L 87 567 L 92 566 L 94 566 Q 97 567 96 564 L 93 563 Z M 110 566 Q 108 570 112 569 L 113 570 L 112 568 Q 113 565 110 566 Z "></path><path d="M 312.5 555 L 314.5 555 L 319 556 Q 320 559.8 317.5 561 L 311 562.5 L 316.5 563 L 318 562.5 L 318 565 L 311.5 565 L 311.5 566 Q 319.7 567.7 323.5 565 L 326 566 L 325.5 568 L 310.5 568 L 310.5 569 L 315.5 570 L 321 569 L 321 571 L 310.5 571 L 310 573 L 329.5 572 L 332 573 Q 333.5 576.7 330.5 576 L 324.5 578 L 322.5 578 L 310 579 L 311 583.5 L 308.5 587 L 307 579 L 301 579 L 301 581 Q 304 580 303 583 L 299 581.5 L 300.5 578 L 304.5 577 L 307 578 L 307 575 L 298.5 575 L 298 573.5 L 300.5 571 Q 306 571.5 308 568.5 L 301.5 568 L 300 566.5 L 301.5 564 L 303.5 563 L 305.5 563 L 308 562.5 L 305 562 L 306 557 L 312.5 555 Z M 311 558 L 311 560 L 316 560 L 316 558 L 311 558 Z M 306 565 L 306 566 L 308 566 L 306 565 Z M 302 572 Q 301 575 305 574 L 307 574 L 307 572 L 302 572 Z M 317 574 L 316 575 Q 309 573 310 577 L 319 577 L 329 575 L 317 574 Z "></path><path d="M 342.5 560 L 341.5 562 L 342.5 560 Z "></path><path d="M 343.5 564 L 344.5 566 L 343.5 564 Z "></path><path d="M 334.5 573 L 335 575.5 L 334 575.5 L 334.5 573 Z "></path><path d="M 313 580 L 318 580 L 318 583 L 314.5 584 L 313 580 Z "></path><path d="M 341.5 587 L 342 589.5 L 340 588.5 L 341.5 587 Z "></path><path d="M 345.5 587 L 346 589.5 L 344 590.5 L 345.5 587 Z "></path></svg>