<svg width="350" height="600" version="1.1" xmlns="http://www.w3.org/2000/svg" desc="Created with imagetracer.js version 1.2.5"><path d="M 231.5 4 L 270.5 5 L 272.5 5 Q 278 6.5 279.5 4 L 281.5 5 L 284.5 4 L 285.5 5 L 295.5 5 Q 296.8 2.8 301.5 4 L 302.5 5 L 310.5 5 L 312.5 5 L 332.5 5 L 333.5 4 L 335 5.5 L 335 111.5 L 336 115.5 L 335 118.5 L 335 141.5 L 336 142.5 L 335 145.5 L 336 148.5 L 335 153.5 L 336 154.5 L 336 209.5 L 335 212.5 Q 337.5 216 336 223.5 L 335 227.5 L 336 228.5 L 336 236.5 L 335 237.5 L 335 261.5 L 336 262.5 L 336 276.5 Q 333.3 278.2 335 284.5 L 336 287.5 L 335 288.5 L 335 308.5 L 336 310.5 L 336 312.5 L 336 350.5 Q 338.2 351.7 337 356.5 L 336 357.5 L 336 369.5 L 337 370.5 L 337 386.5 Q 334.8 387.8 336 392.5 L 336 394.5 L 336 512.5 L 337 516.5 L 336 521.5 L 336 523.5 L 337 527.5 L 336 529.5 L 337 532.5 L 336 537.5 Q 338.2 538.8 337 543.5 L 337 545.5 L 337 589.5 L 336 591.5 Q 338.3 592.8 335.5 594 L 331.5 595 L 329.5 595 L 308.5 595 L 307.5 594 L 304.5 595 L 302.5 595 L 278.5 595 L 277.5 596 L 275.5 595 L 270.5 596 L 243.5 596 L 241.5 597 L 237.5 596 L 235.5 597 L 234.5 596 L 222.5 596 L 220.5 597 L 219.5 596 L 179.5 596 L 178.5 595 L 176.5 596 L 174.5 596 L 172.5 595 L 171.5 596 L 141.5 596 L 140.5 597 L 139.5 596 L 99.5 596 L 97.5 596 L 95.5 597 L 48.5 597 Q 47 599.5 41.5 598 L 39.5 598 L 33.5 597 L 31.5 597 L 29.5 598 L 27.5 597 L 26.5 598 L 5.5 598 L 4.5 599 L 2 594.5 L 3 593.5 L 3 582.5 L 4 581.5 L 4 544.5 L 3 541.5 L 4 537.5 L 3 536.5 L 3 525.5 L 2 524.5 L 3 523.5 L 3 497.5 L 4 496.5 L 3 493.5 L 4 488.5 L 3 487.5 L 3 479.5 L 4 476.5 L 3 473.5 L 3 471.5 L 3 401.5 L 4 400.5 L 4 350.5 L 5 348.5 L 4 347.5 L 4 338.5 Q 6.3 337.3 5 332.5 L 4 327.5 L 5 325.5 L 4 323.5 L 5 320.5 L 5 318.5 L 4 303.5 Q 6.3 302.3 5 297.5 L 4 296.5 L 4 261.5 L 5 259.5 L 4 258.5 L 4 236.5 L 5 233.5 L 4 232.5 L 4 208.5 L 5 205.5 L 4 204.5 L 4 107.5 L 5 104.5 L 4 103.5 L 4 84.5 L 5 82.5 L 4 81.5 L 4 10.5 L 5 7 L 8.5 6 L 9.5 7 L 24.5 7 L 26.5 6 L 27.5 7 L 60.5 7 L 61.5 6 L 101.5 6 L 105.5 5 L 106.5 6 L 162.5 6 Q 164 3.5 169.5 5 Q 171 7.5 176.5 6 L 178.5 6 Q 183.3 7.3 184.5 5 L 201.5 5 L 204.5 6 L 205.5 5 L 230.5 5 L 231.5 4 Z M 239 6 L 238 7 L 228 7 L 226 7 Q 221 6 220 8 L 192 8 L 191 7 L 190 8 L 172 8 L 169 9 L 169 7 L 168 8 L 151 9 L 149 9 Q 144 10 143 8 L 96 8 L 94 8 L 89 9 L 81 9 L 80 8 L 77 9 L 57 9 L 56 10 L 27 10 L 26 11 L 18 9 L 16 10 L 8 9 L 8 40 L 7 41 L 8 45 L 8 179 L 7 180 L 7 207 L 8 208 L 7 215 L 9 214 Q 11 215 10 213 L 20 206 L 26 204 L 34 207 L 35 208 Q 37 196 34 190 L 31 192 L 28 188 Q 25 189 26 185 L 25 185 L 23 185 L 18 186 L 13 179 L 13 176 Q 15 172 20 173 L 19 169 L 19 166 L 23 159 L 19 153 Q 21 147 18 146 L 22 138 Q 25 137 24 140 L 27 140 L 26 137 Q 29 134 28 129 L 33 126 L 32 122 L 35 118 L 39 115 L 42 118 Q 41 121 44 120 L 43 127 Q 48 126 51 122 L 54 122 L 56 126 L 59 127 L 60 130 L 59 134 L 61 138 Q 60 142 65 140 L 69 147 L 67 154 L 67 168 L 66 170 L 63 172 Q 60 173 62 175 L 61 184 L 59 189 Q 54 188 53 193 L 47 192 L 45 189 L 41 191 L 42 193 L 41 194 L 41 212 L 43 213 L 52 215 L 53 214 L 66 214 L 68 217 L 73 214 L 78 214 L 83 212 L 89 208 L 96 211 Q 99 212 98 210 L 104 206 L 112 208 L 114 207 L 118 208 L 120 201 L 123 197 Q 122 194 125 195 L 127 191 Q 132 184 141 181 L 144 182 L 151 178 L 152 180 L 152 172 L 151 172 L 147 170 L 142 163 Q 141 156 144 154 L 144 148 L 141 144 Q 142 137 139 135 L 142 127 L 152 119 L 164 116 L 177 117 L 199 125 L 205 130 Q 204 132 207 131 L 210 137 L 210 146 L 200 161 L 196 163 Q 192 164 192 169 L 189 170 Q 190 173 187 175 Q 186 177 189 176 L 188 180 L 183 179 L 184 175 Q 182 171 180 176 L 181 182 L 187 183 L 200 183 L 213 193 L 216 201 L 223 202 L 228 208 L 231 207 L 237 209 Q 243 205 244 195 L 245 193 L 242 194 L 239 194 L 235 192 L 236 190 L 236 187 L 233 188 L 231 184 L 229 185 L 226 184 Q 226 177 230 175 Q 229 172 232 173 L 232 171 L 236 169 L 240 169 L 240 161 L 232 156 L 229 149 L 231 142 L 230 136 L 233 135 L 232 134 Q 229 133 230 130 L 227 127 L 227 123 L 233 118 L 232 116 L 232 109 L 235 108 L 235 106 L 238 104 L 237 109 L 241 106 L 242 107 L 239 111 L 245 106 L 246 107 L 240 114 L 241 115 Q 242 112 245 113 Q 246 116 244 115 L 241 119 L 245 120 L 248 125 L 247 131 L 246 133 L 248 132 L 251 134 L 250 137 L 248 138 Q 245 134 243 139 L 241 137 L 240 137 L 241 142 L 238 144 L 240 144 L 239 147 L 240 148 Q 241 145 244 146 L 243 150 L 242 149 L 241 151 L 239 152 L 244 154 L 243 153 Q 242 150 246 151 L 245 155 L 252 159 L 252 158 L 255 157 L 253 150 L 247 143 L 245 141 L 246 139 L 250 141 L 255 148 L 260 160 L 270 170 L 270 171 L 278 174 L 279 178 L 272 184 L 268 185 L 266 185 Q 265 190 268 193 L 267 197 L 267 198 L 265 199 L 265 207 L 263 207 L 263 199 L 264 198 L 263 196 L 264 194 L 263 185 L 261 181 L 257 176 L 251 173 L 249 176 L 247 173 Q 244 172 245 176 L 243 176 L 243 174 L 236 177 L 236 180 L 233 184 L 235 186 L 238 180 Q 237 177 240 178 L 242 178 Q 247 176 249 180 L 248 182 L 240 184 L 238 188 L 239 189 Q 241 184 249 184 Q 250 182 251 185 L 246 188 L 244 191 L 247 189 Q 252 191 254 188 L 256 189 L 258 189 L 261 190 L 260 194 Q 257 193 258 196 L 256 196 L 256 198 L 254 198 L 254 200 L 251 199 L 249 200 L 251 203 L 247 200 L 238 213 Q 240 221 236 224 L 240 225 L 240 236 L 241 237 L 243 240 L 253 245 L 262 243 L 264 208 L 265 211 L 268 210 L 271 211 L 279 206 L 282 202 L 286 199 L 291 201 L 296 200 L 298 200 L 302 201 L 303 196 L 303 177 L 297 172 L 286 173 L 282 166 L 283 160 L 286 156 L 285 155 L 283 152 L 278 150 L 278 139 L 279 137 L 286 130 L 289 130 L 288 128 L 290 124 L 298 117 Q 300 118 299 114 Q 303 109 309 107 L 311 111 L 311 115 L 315 118 L 315 119 L 320 119 L 320 123 L 324 128 Q 325 134 321 136 L 326 144 Q 327 148 325 150 Q 324 155 327 157 L 326 164 L 321 168 L 316 166 L 315 168 L 311 171 L 308 175 L 308 186 L 309 187 L 308 190 L 309 203 L 314 197 L 313 195 L 313 186 L 320 176 Q 319 172 322 173 L 324 179 L 328 176 L 334 176 L 334 164 L 334 162 L 333 160 L 333 136 L 332 135 L 333 132 L 333 95 L 332 94 Q 330 87 333 86 L 332 82 L 333 80 L 332 78 L 332 34 L 332 32 L 332 15 L 331 14 L 331 7 L 329 8 L 325 7 Q 323 9 319 8 L 316 7 L 311 8 L 308 7 L 300 7 L 299 8 L 297 7 L 246 7 Q 244 5 239 6 Z M 307 111 L 303 112 L 302 115 L 303 117 L 301 120 L 296 122 L 295 125 Q 296 128 292 126 L 292 129 L 294 129 L 292 133 L 291 131 Q 289 134 285 133 L 282 136 L 280 146 L 282 148 Q 285 147 284 150 L 286 150 Q 284 146 288 147 L 289 144 L 288 146 L 290 146 Q 293 147 292 152 L 289 153 L 290 156 L 286 159 L 287 164 Q 293 166 291 161 L 300 157 Q 303 159 302 164 L 307 165 L 309 164 L 306 159 L 307 155 L 315 153 Q 316 156 319 155 L 320 161 Q 322 164 323 161 L 321 160 L 323 159 L 324 160 L 321 152 L 319 152 L 320 150 L 318 148 L 316 147 L 320 143 L 323 144 L 322 140 L 313 142 L 311 139 L 315 137 L 318 137 L 315 133 L 318 131 Q 319 129 321 132 L 321 128 L 317 125 L 318 122 L 313 123 L 312 118 L 308 119 Q 310 113 307 111 Z M 39 117 L 35 121 L 36 126 L 30 129 L 31 132 L 29 135 Q 27 136 30 137 Q 32 136 31 140 L 29 141 L 26 145 Q 22 146 24 141 L 21 141 L 21 151 L 23 152 Q 27 151 25 155 L 28 156 L 32 154 L 38 155 L 39 158 L 37 157 Q 35 160 32 159 L 32 157 Q 30 160 26 159 L 21 166 Q 20 170 24 170 Q 26 169 25 172 L 20 175 L 16 175 Q 15 182 20 184 L 21 181 L 25 182 L 27 181 Q 30 182 28 177 L 30 177 Q 32 178 31 174 Q 33 170 35 174 L 41 173 L 42 176 Q 41 171 44 170 L 46 175 L 53 174 L 55 170 L 56 173 L 55 176 L 52 177 L 51 179 L 55 178 L 53 184 L 50 186 Q 45 189 50 191 L 53 190 Q 56 189 55 185 L 58 186 L 59 182 L 58 179 L 59 177 L 57 170 L 63 169 L 65 167 L 62 163 L 64 160 L 63 158 L 64 153 L 66 151 Q 67 144 64 142 L 62 146 L 60 147 L 57 142 L 59 142 Q 60 137 57 137 L 57 128 L 56 127 L 54 124 L 52 123 L 47 129 L 44 128 L 43 131 L 40 128 L 41 124 L 39 117 Z M 232 120 L 230 122 L 231 124 L 233 121 L 232 120 Z M 162 126 Q 160 129 163 128 L 162 126 Z M 169 132 L 168 137 L 165 136 L 164 139 Q 167 140 163 142 Q 164 146 161 145 Q 162 152 158 156 Q 159 158 156 157 L 156 160 L 153 161 Q 152 164 156 162 L 156 166 Q 152 168 156 170 L 155 173 Q 154 178 156 180 Q 157 189 153 192 L 152 184 L 148 187 Q 145 186 146 189 L 144 189 L 142 193 L 142 197 Q 144 200 151 199 L 154 200 L 162 200 L 168 194 L 180 186 L 178 184 L 177 178 L 176 178 L 173 178 L 160 171 Q 161 166 157 165 L 157 162 L 160 160 L 162 168 L 167 172 L 173 175 L 177 175 L 183 169 L 187 161 L 190 159 L 192 152 L 184 150 Q 183 154 188 152 L 188 155 Q 190 156 188 157 L 186 156 Q 183 157 184 154 L 182 154 L 180 162 L 176 163 L 184 147 L 187 148 Q 194 151 192 145 L 192 143 L 190 142 L 191 140 Q 192 136 188 138 L 188 136 L 184 135 L 182 136 Q 179 137 180 134 L 175 135 L 173 133 L 172 133 L 169 132 Z M 235 139 L 232 144 Q 230 153 236 155 L 237 155 L 233 150 Q 232 143 236 142 L 235 139 Z M 200 140 L 200 142 L 202 141 L 200 140 Z M 205 143 L 204 146 L 205 146 L 205 143 Z M 237 145 L 237 149 L 237 148 Q 239 146 237 145 Z M 193 149 L 192 152 L 193 152 L 193 149 Z M 145 157 L 144 160 L 145 160 L 145 157 Z M 149 159 L 147 163 L 148 163 Q 147 160 150 161 Q 151 158 149 159 Z M 253 159 L 252 161 L 254 162 L 253 159 Z M 190 162 L 188 165 L 190 165 L 190 162 Z M 245 162 L 243 168 L 246 167 Q 247 163 245 162 Z M 259 162 L 258 164 L 262 166 L 259 162 Z M 149 165 L 149 167 L 151 168 Q 152 164 149 165 Z M 250 165 L 249 170 Q 252 173 258 174 L 250 165 Z M 312 165 L 310 169 L 312 168 L 312 165 Z M 263 166 L 262 168 L 270 180 Q 269 182 272 181 L 273 178 L 275 178 L 276 178 L 263 166 Z M 261 170 L 260 172 L 262 173 L 261 170 Z M 301 170 L 300 172 L 302 173 L 301 170 Z M 236 171 L 229 179 L 230 183 L 232 179 L 238 175 L 239 173 L 236 171 Z M 265 173 L 263 175 L 264 177 L 265 177 L 265 173 Z M 40 178 L 38 180 L 39 182 L 40 182 L 40 178 Z M 334 179 L 332 181 L 333 186 L 334 186 L 334 179 Z M 44 180 L 42 183 L 43 184 Q 47 182 44 180 Z M 239 180 L 239 182 L 239 183 L 245 181 L 239 180 Z M 47 183 L 44 187 L 47 185 L 47 183 Z M 33 184 L 30 188 Q 29 190 32 189 L 33 187 L 33 184 Z M 191 184 L 187 186 L 191 186 L 193 186 Q 194 183 191 184 Z M 137 185 L 135 188 L 138 188 Q 139 184 137 185 Z M 186 185 L 182 187 L 180 190 L 186 187 L 186 185 Z M 318 187 L 316 189 Q 317 195 315 199 L 315 201 Q 316 205 313 206 Q 312 211 316 209 L 317 213 L 315 214 Q 310 216 314 218 L 319 215 L 322 217 L 321 222 L 323 222 L 323 217 L 326 216 L 330 218 Q 333 218 332 223 L 333 223 L 333 215 L 332 214 L 329 209 L 329 207 Q 328 204 331 205 Q 333 206 332 210 L 333 210 L 333 203 L 330 204 L 329 202 L 330 196 L 325 194 Q 326 189 324 187 L 322 192 L 320 191 L 321 188 L 318 187 Z M 329 189 L 328 193 L 329 193 L 329 189 Z M 333 189 L 331 193 L 333 195 L 333 192 Q 335 190 333 189 Z M 126 196 L 120 208 L 118 219 L 112 231 L 115 238 L 114 240 Q 115 244 111 242 L 109 239 L 108 243 L 104 240 Q 101 241 102 245 L 107 246 L 105 247 L 94 265 L 89 270 L 89 276 L 84 280 L 85 282 L 84 290 L 81 293 Q 83 298 79 297 L 76 302 L 77 303 L 79 302 L 81 302 L 84 300 L 88 301 L 93 310 L 94 315 L 94 325 L 96 325 Q 98 330 98 339 L 101 338 L 102 339 L 100 320 L 96 309 L 93 308 L 94 306 L 91 301 Q 92 298 88 299 L 88 297 L 83 296 L 84 294 Q 87 293 88 296 Q 87 298 90 297 L 89 296 Q 89 291 92 291 L 87 290 L 89 287 L 94 287 L 101 291 L 108 305 L 110 315 L 110 367 L 110 369 L 110 393 L 112 399 L 113 392 L 114 367 L 116 359 L 116 341 L 117 340 L 117 335 L 114 335 L 114 320 L 114 318 L 113 317 L 112 305 L 105 293 Q 102 294 103 292 L 101 289 L 89 284 L 86 285 L 88 282 L 94 282 L 104 287 L 111 297 Q 112 299 114 297 L 116 298 L 117 295 L 116 295 L 115 293 L 112 292 L 110 290 L 110 288 L 109 285 L 114 281 L 116 282 L 117 282 L 114 276 Q 110 269 102 268 Q 96 267 94 270 Q 91 271 92 269 L 97 265 L 104 265 L 111 267 L 110 265 L 112 265 L 113 265 L 112 263 Q 111 260 110 262 L 105 260 L 104 256 L 105 252 L 108 249 L 110 249 L 114 251 L 116 255 L 114 260 L 115 262 L 116 259 L 119 257 L 120 261 L 122 260 L 121 259 L 121 244 L 119 241 L 119 236 Q 123 229 123 219 L 126 217 L 125 229 L 123 233 L 124 236 L 129 237 Q 131 236 130 243 L 124 245 L 125 248 L 125 287 L 124 288 Q 123 293 125 295 L 125 298 L 122 304 L 123 306 L 122 308 L 121 334 L 121 336 L 120 343 L 125 344 Q 126 339 122 337 L 123 335 L 126 337 L 127 336 L 127 327 L 128 326 L 128 307 L 128 305 L 129 301 Q 131 295 128 294 L 129 289 L 132 287 L 131 290 L 131 320 L 130 321 L 130 330 L 130 332 L 127 349 L 129 350 L 126 355 L 125 376 L 125 378 L 126 411 L 128 383 L 129 382 L 129 372 L 131 363 L 131 355 L 132 354 L 131 352 L 132 351 L 133 325 L 136 309 L 136 300 L 139 288 L 139 281 L 136 283 Q 133 284 134 282 L 132 283 L 127 282 L 128 280 L 130 280 L 132 280 Q 129 278 130 274 L 127 272 L 126 266 Q 128 262 135 263 L 138 269 L 137 272 Q 136 275 132 274 Q 131 278 134 279 L 135 277 L 138 275 L 140 275 L 140 274 L 142 273 Q 144 279 141 281 L 142 283 L 140 290 L 139 307 L 136 322 L 136 333 L 134 342 L 134 356 L 133 357 L 134 361 L 132 367 L 131 384 L 130 385 L 130 397 L 128 407 L 128 426 L 133 429 L 135 426 L 135 428 L 135 429 L 137 428 L 142 429 L 136 433 Q 132 432 134 436 L 132 436 L 132 441 L 129 440 L 130 434 Q 131 427 128 426 Q 128 431 126 432 L 124 429 L 125 427 L 125 411 L 123 435 L 122 436 L 123 443 L 123 437 L 126 435 L 124 448 L 124 458 L 121 457 Q 120 451 122 450 L 122 443 L 120 450 L 120 460 L 121 461 L 118 485 L 117 486 L 117 496 L 116 497 L 117 512 L 119 482 L 121 478 L 123 479 L 121 483 L 121 491 L 120 492 L 121 494 L 120 496 L 120 509 L 119 510 L 119 529 L 122 537 L 128 546 Q 130 547 128 548 L 119 538 L 116 528 L 116 523 L 115 523 L 115 533 L 116 534 Q 117 537 115 538 Q 112 537 113 540 L 114 541 Q 110 542 111 540 L 108 538 L 111 537 L 110 535 L 103 532 L 103 530 L 101 533 L 101 547 Q 109 549 113 545 L 116 545 L 121 549 L 130 550 L 135 553 L 143 553 L 145 553 L 147 554 L 158 554 L 181 547 Q 185 546 187 548 Q 193 549 192 547 Q 193 542 198 543 L 198 547 Q 195 546 196 549 L 204 550 L 211 555 L 228 555 L 235 553 L 241 553 L 240 556 Q 244 559 253 558 L 255 558 Q 261 558 264 555 L 264 551 Q 267 552 266 548 L 263 546 L 255 545 L 248 537 L 256 535 L 257 536 L 253 539 L 255 542 L 259 543 Q 260 546 262 542 L 258 537 L 262 536 L 264 539 Q 263 544 265 546 L 269 547 Q 268 542 272 541 L 274 542 L 271 544 Q 270 549 274 550 L 277 549 L 276 542 L 264 532 L 255 531 L 244 527 L 231 518 Q 226 515 225 510 L 227 505 Q 226 502 230 503 Q 231 506 228 505 L 227 510 L 228 513 L 240 523 L 257 529 L 267 531 L 271 535 L 273 535 Q 278 537 279 544 Q 280 550 277 552 Q 276 554 275 552 L 269 553 L 267 556 L 269 555 L 276 559 L 288 559 L 289 558 L 292 559 L 295 558 L 297 559 L 312 558 L 313 557 L 317 558 L 319 557 Q 321 558 320 555 L 322 555 L 320 551 L 312 552 L 311 550 L 312 545 L 316 543 Q 321 542 323 546 L 322 551 L 323 553 Q 324 555 326 553 L 328 554 L 330 553 L 333 553 L 333 545 L 329 543 L 327 543 L 321 542 Q 316 539 315 534 L 305 527 L 299 527 L 291 524 L 286 519 L 280 513 L 274 512 L 265 508 L 261 508 L 249 502 L 234 491 L 215 466 L 211 454 L 209 452 L 208 445 L 205 442 L 202 440 L 195 431 Q 196 426 193 427 L 191 423 L 190 357 L 189 356 L 189 342 L 188 341 L 189 339 L 188 331 Q 185 329 189 328 L 188 324 Q 187 315 189 310 L 189 308 L 189 294 L 191 293 L 192 296 Q 190 299 191 307 L 190 308 L 191 311 L 190 314 L 190 322 L 191 323 Q 190 325 193 324 Q 195 327 194 336 L 197 337 L 195 333 L 194 304 L 193 302 L 193 300 L 194 297 L 193 295 L 194 293 L 193 288 L 195 281 L 193 280 L 191 277 L 192 249 L 194 247 L 194 241 L 196 235 L 199 231 L 200 230 L 197 227 L 197 222 L 203 213 L 203 210 L 207 209 L 209 205 L 212 204 L 210 201 L 206 203 L 208 206 L 207 206 Q 203 205 204 201 L 200 200 L 187 203 L 171 212 Q 163 217 159 226 L 146 239 L 141 239 Q 132 232 128 220 Q 125 210 126 196 Z M 248 197 Q 246 200 249 199 L 248 197 Z M 334 200 L 333 203 L 334 203 L 334 200 Z M 141 201 L 141 205 L 145 204 L 149 205 L 151 205 Q 152 207 157 206 L 158 203 L 156 204 L 147 202 L 147 204 L 146 202 L 141 201 Z M 294 202 L 294 205 L 297 203 L 297 205 L 298 205 Q 299 200 294 202 Z M 213 203 L 213 205 L 211 206 L 212 208 L 210 209 L 213 210 L 211 210 Q 209 215 214 214 L 213 213 L 220 208 L 213 203 Z M 300 203 L 300 206 Q 303 205 300 203 Z M 292 204 L 292 207 L 293 207 Q 294 203 292 204 Z M 311 204 L 307 209 L 308 212 L 307 215 L 309 219 Q 311 218 310 215 Q 311 212 313 214 Q 317 212 314 210 L 309 211 Q 308 208 311 207 L 311 204 Z M 25 207 L 18 212 L 16 212 L 13 216 L 20 212 Q 24 213 23 211 L 25 211 L 27 210 L 27 212 L 29 212 Q 28 214 32 213 L 32 220 L 33 220 L 33 214 Q 36 214 35 211 L 25 207 Z M 141 207 L 141 210 L 144 211 L 145 208 L 141 207 Z M 103 208 L 101 211 L 96 215 L 97 222 Q 96 217 99 215 L 101 216 L 102 214 L 103 216 L 103 212 L 106 213 L 106 212 L 111 211 L 117 213 L 117 212 L 112 209 L 108 210 Q 107 207 103 208 Z M 150 208 L 149 211 L 153 213 L 155 210 L 150 208 Z M 283 208 L 284 210 Q 285 207 283 208 Z M 279 209 L 278 212 L 279 212 L 279 209 Z M 88 210 L 85 213 L 79 215 L 80 217 L 87 213 L 90 213 L 91 215 L 92 213 Q 92 210 88 210 Z M 304 210 L 303 223 L 302 224 Q 299 223 300 226 Q 297 229 289 229 Q 292 231 291 236 L 297 237 L 302 237 L 301 232 L 304 231 L 303 229 Q 302 224 305 225 Q 306 216 304 210 Z M 208 211 Q 202 215 201 224 L 205 221 L 206 223 L 203 228 L 203 231 Q 199 237 197 247 L 198 248 L 201 246 L 203 246 L 205 234 L 207 231 L 207 227 L 212 217 L 210 216 Q 205 214 208 213 L 208 211 Z M 219 211 L 215 213 L 216 215 L 222 212 L 219 211 Z M 94 212 L 93 219 L 94 219 L 94 212 Z M 269 212 L 265 214 L 270 214 Q 271 211 269 212 Z M 113 213 L 112 220 L 113 220 L 113 213 Z M 225 213 L 215 218 L 212 222 L 210 232 L 207 238 L 203 258 L 204 260 L 203 264 L 202 294 L 204 293 L 206 294 L 206 289 L 206 287 L 207 286 L 207 277 L 208 276 L 211 248 L 214 236 L 219 225 L 217 224 Q 212 225 213 222 L 217 223 L 219 223 L 217 220 L 218 218 L 219 221 L 221 221 L 220 219 L 223 217 L 223 221 Q 220 220 221 224 L 230 218 Q 232 217 231 220 L 232 220 Q 233 215 231 214 L 228 215 L 225 213 Z M 110 214 L 111 216 Q 112 213 110 214 Z M 43 215 L 42 219 L 43 219 L 43 215 Z M 46 215 L 45 218 L 47 217 L 48 219 L 50 218 L 53 219 L 54 217 L 53 217 L 46 215 Z M 291 215 L 289 220 L 291 219 L 291 215 Z M 72 216 L 70 218 L 73 218 L 74 220 L 75 218 Q 76 215 72 216 Z M 83 216 L 82 224 L 83 224 L 83 216 Z M 84 216 L 84 218 L 86 217 L 84 216 Z M 91 216 L 90 219 L 91 219 L 91 216 Z M 60 217 L 58 219 L 60 219 L 61 220 Q 62 216 60 217 Z M 63 218 L 64 220 Q 65 217 63 218 Z M 88 218 L 88 225 L 90 224 L 91 225 Q 92 221 88 223 L 88 218 Z M 235 218 L 233 221 L 235 221 L 235 218 Z M 111 219 L 110 223 L 111 223 L 111 219 Z M 298 220 L 295 224 L 298 225 L 298 220 Z M 327 220 L 325 222 L 324 228 L 321 232 Q 324 233 323 231 L 326 229 L 325 231 Q 326 233 324 232 Q 320 235 321 241 Q 325 240 326 243 L 324 244 L 318 243 L 318 234 L 319 233 L 316 228 Q 314 230 310 229 L 306 231 Q 305 234 308 233 L 310 238 L 316 239 Q 318 238 317 242 L 317 244 L 316 243 L 312 244 L 313 247 L 317 246 L 316 252 Q 315 254 318 253 L 320 256 Q 324 253 326 247 L 332 243 L 326 240 L 330 231 L 329 222 L 327 220 Z M 86 221 L 85 227 L 86 227 L 86 221 Z M 228 221 L 228 223 L 230 222 L 228 221 Z M 266 221 L 265 224 L 266 226 L 268 222 L 266 221 Z M 277 221 L 275 223 L 277 223 L 277 221 Z M 291 221 L 289 224 L 291 223 L 291 221 Z M 310 221 Q 309 224 312 223 Q 313 220 310 221 Z M 29 222 L 26 225 L 28 225 L 28 235 L 27 236 L 25 230 L 26 227 Q 27 224 24 225 L 25 239 L 28 243 L 27 246 L 28 247 L 32 246 L 30 241 L 31 238 L 30 236 L 31 233 Q 33 227 30 226 Q 31 221 29 222 Z M 74 222 L 75 224 Q 76 221 74 222 Z M 21 223 L 20 226 L 20 239 L 21 240 Q 18 247 25 245 L 26 242 L 24 243 Q 20 241 24 240 L 21 233 L 22 225 L 24 225 L 21 223 Z M 65 223 L 63 225 L 65 225 L 65 223 Z M 68 223 L 67 227 L 68 227 L 68 223 Z M 227 223 Q 219 227 217 236 Q 216 240 219 239 Q 221 229 228 224 L 227 223 Z M 233 223 L 229 229 L 232 228 L 231 233 L 234 235 L 231 235 L 232 238 Q 234 244 230 243 L 228 235 L 227 235 L 228 239 Q 229 243 227 242 L 225 241 L 225 232 L 218 249 L 220 255 L 225 254 Q 226 257 228 253 L 232 255 L 237 254 L 241 248 L 234 243 Q 233 237 236 236 L 237 242 L 243 246 L 238 239 L 237 229 L 234 227 L 233 223 Z M 54 225 L 53 228 L 52 226 L 50 227 Q 46 229 46 234 L 42 235 L 39 240 Q 40 242 37 241 L 36 245 L 37 250 L 36 252 L 37 254 Q 33 255 36 257 L 35 261 Q 30 260 29 264 L 36 265 L 38 269 L 33 272 Q 39 271 40 275 L 39 277 L 42 281 L 43 279 L 49 275 Q 50 269 46 269 Q 45 266 48 267 Q 51 266 48 264 L 46 265 L 43 264 L 42 266 L 36 263 Q 39 262 38 257 L 38 255 Q 37 252 40 253 L 41 250 L 38 249 L 45 246 L 49 242 L 55 241 L 56 239 L 55 235 Q 48 236 46 241 Q 40 243 41 240 L 52 233 L 54 230 L 54 225 Z M 94 225 L 93 230 L 95 229 L 94 225 Z M 307 225 L 307 227 L 310 227 L 307 225 Z M 90 226 L 91 230 L 92 227 L 90 226 Z M 321 226 L 319 228 L 321 228 L 321 226 Z M 285 227 L 286 234 L 286 237 L 283 243 L 286 243 L 288 240 L 287 230 L 285 227 Z M 7 229 L 7 231 L 9 230 L 7 229 Z M 106 229 Q 103 235 106 237 L 106 238 L 104 235 L 102 236 L 105 240 L 107 239 L 108 237 L 106 229 Z M 229 229 L 228 234 L 229 234 L 229 229 Z M 265 229 L 264 234 Q 268 236 274 235 Q 275 232 272 233 L 272 230 L 265 229 Z M 281 229 L 280 235 L 282 236 Q 283 231 281 229 Z M 333 229 L 332 234 L 333 234 L 333 229 Z M 75 230 L 78 245 L 82 235 Q 84 236 83 233 L 81 234 L 77 233 Q 78 229 75 230 Z M 108 230 L 109 234 L 110 231 L 108 230 Z M 277 230 L 276 242 Q 275 245 271 244 L 270 249 L 279 252 Q 281 255 280 262 L 277 264 Q 278 266 282 265 L 283 268 L 282 272 L 282 277 L 285 283 L 286 283 L 286 278 Q 289 278 288 275 L 291 274 L 289 264 L 293 263 L 296 264 L 298 263 L 296 258 L 301 253 L 305 252 L 307 253 L 307 250 Q 306 247 305 249 L 301 248 L 299 248 L 297 247 Q 291 246 289 250 L 292 250 L 294 250 Q 296 249 295 252 Q 290 250 288 254 Q 287 257 291 255 L 291 259 L 287 261 L 288 264 L 287 272 L 284 273 L 285 254 L 286 252 Q 280 254 281 251 Q 282 248 284 250 L 286 250 L 277 243 L 278 239 Q 279 233 277 230 Z M 104 231 L 102 234 L 104 233 L 104 231 Z M 13 232 Q 12 236 15 235 Q 16 231 13 232 Z M 59 232 L 58 235 L 60 234 L 61 239 L 64 238 L 61 236 L 62 234 L 62 236 L 65 236 L 66 235 L 59 232 Z M 7 233 L 8 235 L 11 234 L 7 233 Z M 86 235 L 84 238 L 86 241 L 87 241 L 86 235 Z M 91 236 L 89 238 L 91 238 L 91 236 Z M 16 237 L 14 239 L 11 238 L 9 238 Q 6 239 7 243 L 10 241 L 13 243 Q 12 246 17 244 L 18 245 Q 19 240 17 239 Q 18 236 16 237 Z M 73 237 L 71 246 L 65 253 L 64 255 L 66 254 Q 68 255 67 252 L 73 247 L 74 242 L 73 237 Z M 124 238 L 124 244 L 126 243 L 127 243 L 127 239 L 124 238 Z M 264 238 L 265 241 L 264 248 L 264 250 Q 261 251 262 257 L 268 256 L 270 256 Q 272 260 277 259 L 276 255 L 275 255 L 269 252 L 266 247 L 266 245 Q 268 237 264 238 Z M 35 239 L 36 240 L 37 241 Q 38 238 35 239 Z M 69 239 L 67 243 L 69 242 L 69 239 Z M 95 239 Q 93 242 96 241 L 95 239 Z M 297 239 L 297 244 L 301 245 Q 307 247 305 241 L 304 239 L 301 240 L 297 239 Z M 64 242 L 63 248 L 65 248 L 64 242 Z M 82 242 Q 82 247 79 248 L 77 247 L 75 250 L 76 255 L 78 254 L 81 249 L 84 247 Q 85 245 86 248 L 81 256 L 83 255 L 85 257 L 82 259 Q 78 260 79 257 L 77 258 Q 76 261 79 260 L 79 263 L 82 262 L 85 262 L 90 266 L 94 260 Q 92 261 91 258 L 90 259 L 86 255 Q 88 253 85 252 Q 87 247 95 248 L 97 246 L 94 244 L 91 245 Q 83 247 82 242 Z M 59 243 L 51 246 Q 48 245 49 248 L 46 250 L 44 254 L 40 255 L 42 261 Q 41 263 44 262 L 43 260 L 47 258 L 50 257 L 54 258 L 56 255 L 53 252 L 48 254 L 46 251 Q 49 248 58 249 L 60 246 Q 61 242 59 243 Z M 333 245 L 332 249 L 333 249 L 333 245 Z M 245 246 L 246 250 L 245 254 L 247 263 L 254 261 L 258 256 Q 259 249 256 247 Q 253 245 245 246 Z M 261 246 L 259 248 L 261 249 L 261 246 Z M 15 248 L 14 251 L 11 252 L 10 253 L 7 252 L 8 256 Q 11 257 10 254 L 15 253 L 18 256 L 15 248 Z M 25 248 L 26 253 Q 25 255 28 254 L 25 248 Z M 29 248 L 32 253 Q 34 254 33 251 L 35 251 L 35 249 L 29 248 Z M 63 248 L 60 252 L 63 250 L 63 248 Z M 215 248 L 212 255 L 213 258 L 215 252 L 215 248 Z M 199 249 L 196 252 L 197 258 L 200 253 L 200 251 Q 201 248 199 249 Z M 108 251 L 106 257 Q 107 260 112 259 L 113 257 L 112 253 L 108 251 Z M 243 251 L 240 256 L 240 264 L 241 265 L 241 276 L 240 277 Q 238 285 242 288 L 242 273 L 243 272 L 242 269 Q 241 264 243 263 L 242 260 L 243 256 L 243 254 L 243 251 Z M 333 251 L 332 254 L 333 254 L 333 251 Z M 23 253 L 22 268 L 22 270 Q 24 276 21 278 L 22 280 L 24 277 Q 26 270 23 269 L 24 266 L 23 262 L 25 258 Q 28 259 26 255 L 24 256 L 23 253 Z M 30 254 L 28 258 Q 29 260 26 259 L 26 261 L 30 259 L 33 259 L 30 254 Z M 75 255 L 69 258 L 65 257 L 67 260 L 71 260 L 76 258 L 75 255 Z M 201 255 L 199 258 L 200 263 L 201 258 L 201 255 Z M 217 255 L 214 264 L 215 270 L 217 260 L 217 255 Z M 333 256 L 332 259 L 333 259 L 333 256 Z M 258 257 L 257 260 L 258 260 L 258 257 Z M 12 258 L 9 260 Q 6 259 7 262 L 11 263 Q 15 262 13 266 L 11 267 Q 8 266 9 270 L 16 271 Q 15 276 18 277 L 18 268 L 19 267 L 17 264 L 18 262 Q 16 258 12 258 Z M 324 258 L 322 262 L 327 262 L 327 261 L 324 258 Z M 59 259 Q 57 262 51 260 L 49 260 Q 46 259 47 262 L 51 264 L 55 264 L 58 269 Q 59 273 55 271 L 51 276 L 53 278 L 58 277 Q 61 278 60 284 Q 56 285 59 287 Q 58 290 61 289 L 63 289 Q 66 288 64 294 L 67 295 L 69 299 L 72 295 L 70 291 L 72 285 L 76 283 L 79 284 L 78 282 Q 79 279 77 280 Q 72 278 76 276 Q 77 272 74 273 L 72 273 L 70 269 L 77 270 L 78 273 L 88 269 L 84 265 L 80 265 L 76 268 Q 70 269 69 266 L 67 267 L 69 270 Q 68 275 70 277 L 69 288 L 66 287 Q 64 280 67 279 L 66 274 L 62 275 L 59 274 L 63 271 L 66 270 L 57 264 L 62 262 L 59 259 Z M 264 259 Q 262 272 268 279 L 269 276 L 274 274 L 279 275 L 280 270 L 272 267 L 270 272 L 271 274 L 267 275 L 266 273 L 269 267 L 272 265 L 274 261 Q 271 258 264 259 Z M 195 261 L 196 266 L 195 268 Q 193 275 197 278 L 196 280 L 197 297 L 199 294 L 199 286 L 200 285 L 200 267 L 198 266 L 198 265 L 197 263 Q 198 260 195 261 Z M 260 261 Q 257 265 261 264 L 260 261 Z M 121 262 L 119 264 L 120 266 L 118 267 L 119 271 L 114 268 Q 115 265 112 266 L 113 270 L 119 277 L 120 286 L 121 286 L 121 262 Z M 332 262 L 333 264 Q 334 261 332 262 Z M 255 263 L 249 265 L 250 269 L 253 270 L 256 269 Q 254 271 255 277 L 253 280 L 249 282 L 253 283 Q 256 285 251 288 Q 250 292 253 293 Q 252 295 255 294 Q 257 293 255 292 L 256 287 Q 258 282 264 284 Q 265 281 262 282 L 260 277 L 259 279 L 256 278 L 257 275 L 257 266 L 256 265 Q 257 262 255 263 Z M 27 264 L 28 279 L 29 273 L 30 271 L 28 271 L 28 267 L 31 267 L 27 264 Z M 131 265 Q 128 266 129 271 L 132 272 L 135 271 L 133 266 L 131 265 Z M 330 265 L 329 267 L 326 269 L 331 271 Q 333 270 332 273 L 333 273 Q 335 267 332 268 L 330 265 Z M 211 269 L 209 278 L 210 292 L 210 282 L 211 281 L 211 269 Z M 247 269 L 246 272 L 248 273 L 247 269 Z M 33 273 L 31 275 Q 33 280 30 282 L 31 283 L 33 282 L 32 280 L 33 275 L 33 273 Z M 36 274 L 35 277 L 35 279 L 37 280 L 36 274 Z M 333 274 L 330 277 L 324 278 Q 323 282 329 280 L 330 279 L 333 282 L 333 281 L 333 279 L 333 274 Z M 79 275 L 79 277 L 82 277 L 79 275 Z M 293 275 L 291 277 Q 290 279 293 278 L 293 275 Z M 138 276 L 136 278 Q 135 280 138 279 L 139 277 L 138 276 Z M 247 276 Q 244 278 247 279 L 250 277 L 247 276 Z M 7 277 L 9 281 Q 11 280 9 279 Q 10 276 7 277 Z M 320 277 L 319 281 L 316 282 Q 315 285 318 284 Q 319 281 321 283 L 320 277 Z M 48 278 L 45 282 L 47 282 Q 46 279 49 280 L 48 278 Z M 56 279 L 54 282 L 57 280 L 56 279 Z M 267 279 L 265 281 L 267 281 L 267 279 Z M 280 279 Q 278 282 281 283 L 282 283 L 280 279 Z M 14 280 L 10 283 L 11 286 L 13 282 L 15 284 L 14 287 L 15 288 Q 18 286 16 281 L 14 280 Z M 17 280 L 17 282 L 19 281 L 17 280 Z M 23 280 L 21 282 L 22 285 L 23 285 L 23 280 Z M 274 281 L 274 283 L 276 284 Q 277 280 274 281 Z M 111 283 L 110 286 L 113 290 Q 112 293 116 291 L 115 286 L 111 283 Z M 33 284 Q 30 287 24 286 L 18 293 L 23 295 L 22 302 L 25 301 Q 27 300 26 303 L 23 304 L 20 308 L 18 309 L 16 313 L 13 309 L 16 304 L 19 305 L 19 303 L 17 302 L 7 303 L 7 308 L 10 308 L 13 313 L 10 320 L 17 319 L 22 329 Q 21 331 24 330 L 22 325 L 23 319 L 25 315 Q 26 312 22 313 L 22 311 L 26 309 L 27 307 L 33 304 L 34 302 L 26 300 L 25 298 L 30 295 L 34 285 L 33 284 Z M 329 284 L 331 287 L 331 286 L 329 284 Z M 40 285 L 41 287 Q 42 284 40 285 Z M 245 287 L 245 291 L 248 289 Q 249 286 245 287 Z M 270 288 L 268 291 L 273 291 L 273 290 L 270 288 Z M 292 288 Q 290 291 286 290 L 284 290 L 280 293 L 276 293 L 276 294 Q 279 293 277 299 L 280 299 L 281 299 L 280 296 L 284 294 L 287 294 L 288 291 L 292 290 L 292 288 Z M 12 289 L 10 291 Q 6 290 7 293 L 10 294 L 12 291 L 12 289 Z M 75 289 Q 72 290 73 294 Q 79 296 77 291 L 75 289 Z M 280 289 L 280 291 L 282 290 L 280 289 Z M 38 290 L 37 292 L 40 291 L 38 290 Z M 120 292 L 119 295 L 120 295 L 120 292 Z M 319 292 L 314 297 L 312 297 L 310 300 L 307 302 L 303 301 L 297 296 L 295 297 L 290 295 L 286 296 Q 285 299 289 298 L 291 298 L 291 300 Q 293 304 296 300 L 300 301 L 306 306 L 310 305 L 311 309 Q 312 311 314 309 Q 317 311 316 318 L 318 317 L 322 318 L 325 317 Q 324 314 320 315 L 320 310 Q 324 311 323 309 L 322 309 L 317 308 L 315 305 L 319 304 L 325 296 L 325 292 L 319 292 Z M 93 293 L 92 296 L 95 300 Q 94 302 97 301 L 98 299 L 97 295 L 95 294 Q 96 296 93 295 L 93 293 Z M 267 294 L 265 296 L 269 297 L 270 296 L 267 294 Z M 16 295 L 14 297 L 10 296 Q 5 295 7 300 L 14 301 L 14 299 Q 16 296 21 297 Q 20 294 16 295 Z M 100 298 L 99 300 L 103 306 L 104 306 Q 104 300 100 298 Z M 256 298 L 256 300 L 258 299 L 256 298 Z M 273 299 L 271 300 L 268 301 Q 263 300 265 305 L 268 303 L 271 304 L 273 301 L 273 299 Z M 281 299 L 281 301 L 283 300 L 281 299 Z M 38 300 L 38 302 L 41 301 L 38 300 Z M 324 300 L 326 303 Q 331 305 330 301 L 324 300 Z M 98 301 L 97 304 L 101 311 L 105 328 L 107 382 L 107 370 L 108 369 L 107 367 L 107 365 L 107 342 L 108 341 L 107 338 L 107 336 L 107 322 L 108 321 L 105 307 L 102 308 Q 102 303 98 301 Z M 114 301 L 117 314 L 116 316 L 118 330 L 119 304 L 116 303 Q 117 300 114 301 Z M 286 301 L 287 307 L 289 306 Q 292 305 290 311 Q 289 315 284 314 L 283 309 L 281 310 L 279 309 L 281 305 L 281 302 L 273 305 L 272 311 L 274 310 Q 279 309 281 311 L 280 315 L 281 317 L 280 320 L 281 323 L 282 320 L 289 317 L 291 317 L 294 313 L 291 310 L 290 303 L 286 301 Z M 294 303 L 294 308 Q 295 310 297 308 L 300 310 Q 301 313 298 315 L 302 316 Q 305 319 305 326 L 308 328 Q 310 329 309 326 L 312 324 L 315 319 Q 316 316 313 317 L 313 315 L 311 314 L 312 320 L 308 319 Q 309 315 306 316 Q 303 315 306 313 L 308 314 L 309 312 L 307 307 L 306 309 L 302 308 Q 299 304 294 303 Z M 78 304 L 75 307 L 76 309 L 76 313 L 72 319 L 78 320 L 83 329 L 83 326 Q 88 323 82 321 Q 81 318 86 319 L 88 321 L 86 316 L 87 314 L 83 307 Q 79 308 80 305 L 82 305 L 80 304 L 78 304 Z M 34 305 L 31 307 L 32 310 L 35 311 L 36 317 L 35 320 Q 29 318 31 324 L 35 325 Q 40 323 38 329 Q 34 328 33 332 L 34 336 L 39 339 L 43 329 L 48 328 Q 50 327 49 323 L 52 320 L 47 312 L 47 307 L 45 308 L 41 307 L 39 310 Q 39 312 44 312 L 46 315 L 48 314 L 44 322 L 44 326 L 42 330 L 39 331 L 40 325 L 43 321 L 43 319 L 39 322 Q 35 323 36 321 Q 37 318 39 320 L 44 316 L 37 312 L 38 309 L 34 305 Z M 269 306 L 265 309 L 264 310 L 261 307 Q 258 306 259 310 L 256 309 L 254 309 Q 257 310 256 315 L 255 316 L 248 317 L 255 319 L 258 323 Q 259 320 265 321 L 266 322 L 265 317 L 262 315 Q 259 314 260 317 Q 259 320 257 317 Q 256 312 259 311 L 262 312 L 268 310 L 270 307 L 269 306 Z M 332 307 Q 332 310 329 309 L 328 313 Q 325 314 329 316 Q 330 319 327 318 Q 326 321 329 320 L 330 324 L 333 326 L 333 317 L 332 316 Q 329 315 330 312 L 333 310 L 332 307 Z M 50 309 L 50 311 L 52 312 Q 53 308 50 309 Z M 90 312 L 90 322 L 91 322 Q 92 315 90 312 Z M 70 321 L 61 326 Q 58 325 59 329 L 64 327 L 65 327 L 64 330 L 57 335 L 58 337 L 62 334 L 65 334 Q 67 333 65 332 L 66 330 L 66 332 L 73 333 L 74 331 L 74 333 L 78 330 L 76 322 L 70 321 Z M 287 321 L 286 331 L 287 331 L 287 321 Z M 53 323 L 53 326 L 54 326 Q 55 322 53 323 Z M 8 326 L 7 333 L 13 335 L 14 338 L 17 336 L 21 337 L 19 349 L 17 348 L 18 341 L 19 339 L 15 340 Q 12 341 13 338 L 10 340 Q 11 343 7 341 L 7 343 L 14 344 L 17 356 L 19 353 Q 18 350 21 351 L 23 351 L 25 350 L 24 345 L 33 343 Q 34 346 36 342 Q 37 339 35 340 Q 29 338 30 330 L 28 329 L 26 333 L 20 331 L 21 334 L 20 335 L 9 331 L 10 328 L 8 326 Z M 264 326 L 266 332 L 267 332 L 266 328 L 264 326 Z M 326 326 Q 323 327 325 329 L 324 338 L 330 342 Q 334 344 333 340 L 333 338 L 329 333 L 330 329 L 326 326 Z M 12 327 L 11 329 L 16 331 Q 21 333 19 327 L 16 328 L 12 327 Z M 51 329 L 49 330 L 50 332 Q 54 333 53 331 L 51 329 Z M 94 329 L 91 343 Q 93 346 92 353 L 93 353 Q 92 350 95 351 L 94 346 L 95 341 L 95 339 L 94 338 L 94 329 Z M 296 330 L 295 333 L 297 334 L 296 330 Z M 47 331 L 42 338 L 43 340 L 44 337 L 49 333 L 47 331 Z M 85 331 L 84 334 L 85 334 L 85 331 Z M 291 333 L 289 338 L 290 343 L 293 344 L 295 348 L 297 345 L 295 344 Q 294 340 297 338 L 295 337 L 293 334 L 291 333 Z M 79 334 L 76 338 L 78 341 L 78 339 L 80 339 L 79 334 Z M 258 335 L 257 339 L 258 339 L 258 335 Z M 274 336 L 275 338 Q 276 335 274 336 Z M 58 339 L 48 343 L 41 350 L 38 359 Q 36 375 44 382 L 50 386 L 58 388 L 60 390 L 65 390 L 75 386 L 83 377 L 82 358 L 81 357 Q 80 352 82 351 L 81 349 L 77 346 Q 74 347 75 345 L 70 341 Q 61 342 58 339 Z M 268 339 L 263 344 L 263 346 L 255 351 L 261 354 L 259 355 L 253 354 L 254 351 L 253 351 L 251 350 Q 249 354 247 350 L 244 351 L 240 356 L 241 357 L 244 355 L 254 357 L 256 357 L 259 358 L 257 363 L 262 360 L 261 358 Q 260 353 264 355 L 263 360 L 266 362 L 265 364 Q 264 366 267 365 L 268 367 L 271 365 L 272 363 L 269 360 L 269 350 L 274 346 Q 276 347 275 344 L 277 344 L 277 342 Q 270 343 268 339 Z M 42 340 L 39 343 L 40 345 L 42 342 L 42 340 Z M 98 340 L 98 347 L 100 348 L 102 348 L 102 341 L 98 340 Z M 324 341 L 321 348 L 324 350 Q 323 353 327 351 L 326 354 Q 323 353 324 357 L 318 360 L 321 362 Q 326 361 327 364 L 325 372 L 326 376 L 326 378 L 327 382 L 327 381 L 331 379 L 333 376 Q 334 369 332 370 Q 329 369 331 368 Q 332 361 330 358 L 328 359 L 326 356 L 329 355 Q 331 356 330 353 L 333 353 L 333 352 L 328 348 L 326 349 L 324 346 L 324 344 L 326 345 L 324 341 Z M 329 344 L 328 346 Q 331 345 333 348 L 333 345 L 329 344 Z M 35 345 L 33 347 L 35 348 L 35 345 Z M 121 345 L 119 348 L 122 350 L 121 345 Z M 281 345 L 279 349 L 284 350 Q 288 349 286 353 L 284 354 L 286 357 L 285 359 L 281 357 L 278 358 Q 276 356 275 359 Q 284 361 289 367 L 287 371 L 290 377 L 293 375 L 295 379 Q 297 378 296 382 Q 295 385 290 384 Q 289 381 292 382 L 291 379 L 282 383 L 280 386 L 284 385 Q 289 384 290 388 L 295 387 L 294 390 L 295 391 L 301 387 Q 300 391 303 392 L 307 391 L 312 397 L 312 400 L 315 401 L 320 399 L 319 401 L 320 405 Q 319 409 314 408 L 315 412 L 314 415 L 315 418 L 322 414 L 327 417 L 325 414 L 325 409 L 322 407 L 319 413 L 316 412 L 318 409 L 322 406 L 321 405 Q 320 399 324 401 L 325 405 L 328 408 L 327 409 L 332 410 L 332 406 L 328 398 L 332 393 L 329 394 L 318 392 L 319 395 Q 321 400 316 398 L 314 394 Q 318 392 316 386 L 313 385 L 309 386 Q 312 387 311 391 Q 308 392 309 390 L 304 385 L 301 381 L 299 382 L 297 383 L 302 376 Q 301 372 305 374 L 305 372 L 301 374 Q 302 376 298 375 L 298 377 L 295 377 L 292 372 L 297 369 L 298 367 L 300 370 L 300 369 Q 304 367 301 365 Q 298 366 299 363 L 296 362 L 298 358 L 301 359 L 304 355 L 305 348 L 300 347 L 298 347 Q 299 351 297 350 L 297 351 L 301 349 Q 304 348 303 351 L 299 353 L 296 356 L 294 362 L 295 368 L 292 367 L 293 364 Q 294 361 290 362 L 288 359 L 292 360 L 292 359 L 293 356 Q 294 353 291 354 L 288 350 Q 291 349 293 352 L 296 352 L 294 350 Q 291 351 292 347 L 281 345 Z M 125 346 L 124 349 L 125 349 L 125 346 Z M 27 347 L 27 349 Q 26 351 29 350 L 31 350 L 31 349 Q 30 346 29 348 L 27 347 Z M 35 349 L 32 352 L 36 352 L 35 349 Z M 99 349 L 100 357 L 102 350 L 99 349 Z M 119 351 L 119 361 L 117 370 L 116 395 L 114 402 L 112 421 L 110 424 L 111 429 L 111 431 L 109 436 L 108 451 L 107 452 L 108 460 L 110 448 L 114 445 L 111 454 L 111 462 L 108 468 L 108 476 L 105 487 L 103 514 L 102 515 L 103 517 Q 101 520 102 528 L 101 529 L 103 529 Q 102 524 105 523 Q 110 522 112 524 L 112 510 L 112 508 L 114 499 L 111 498 L 109 495 L 110 493 L 107 487 L 107 483 L 109 479 L 113 480 L 112 480 Q 108 482 109 488 L 113 489 L 113 487 L 113 485 L 115 477 L 118 447 L 119 446 L 119 438 L 118 441 L 115 442 L 117 435 L 115 433 L 112 430 Q 111 424 115 423 L 116 424 Q 113 425 114 430 L 117 431 Q 120 430 119 426 L 118 423 L 120 424 L 121 423 L 123 370 L 123 368 L 124 365 L 124 353 L 123 355 L 122 353 L 119 351 Z M 94 354 L 95 366 L 93 366 L 97 373 L 97 370 L 97 368 Q 95 364 96 357 L 94 354 Z M 102 357 L 99 358 L 99 371 L 100 372 L 101 383 L 101 385 Q 104 386 102 393 L 103 393 L 103 359 L 102 357 Z M 308 359 L 305 362 L 308 366 L 307 369 L 307 370 L 317 365 L 320 367 L 318 373 L 322 370 L 321 368 Q 320 365 324 366 L 324 364 L 317 363 L 314 362 Q 315 365 311 363 L 308 359 Z M 18 361 L 16 363 L 18 363 L 19 364 L 18 361 Z M 11 362 L 10 365 L 11 365 L 11 362 Z M 21 364 L 19 371 L 7 368 L 8 373 L 12 375 L 14 372 L 20 374 L 21 372 L 25 369 L 23 374 L 24 380 L 26 382 Q 27 386 23 384 L 21 380 Q 18 381 20 383 L 19 386 L 17 385 L 8 387 L 10 390 L 14 390 L 21 386 Q 25 387 27 385 L 29 386 Q 31 387 30 383 L 32 383 L 32 380 L 28 378 Q 25 379 26 376 L 29 374 L 30 371 Q 31 368 28 369 L 28 367 L 24 364 L 21 364 Z M 32 364 L 30 366 L 32 366 L 32 364 Z M 279 364 L 279 366 Q 276 365 275 368 L 272 367 L 270 370 L 279 374 L 284 373 Q 283 369 286 368 L 279 364 Z M 315 369 L 310 372 Q 307 371 308 375 Q 307 377 306 375 Q 301 376 302 381 L 309 385 L 310 382 Q 311 379 307 380 L 307 378 L 311 375 Q 313 376 312 373 L 315 373 L 315 369 Z M 322 374 L 320 376 Q 318 382 323 380 L 323 375 L 322 374 Z M 15 375 L 13 378 L 10 379 Q 7 378 8 381 L 16 383 L 19 378 L 15 375 Z M 97 375 Q 98 379 97 388 L 99 389 Q 96 385 98 377 L 97 375 Z M 331 381 L 331 386 L 333 387 L 331 381 Z M 38 383 L 36 387 L 42 388 L 44 390 L 40 385 Q 41 382 38 383 Z M 83 385 L 84 387 Q 85 384 83 385 Z M 267 385 L 261 401 L 263 401 L 264 398 L 269 397 Q 270 393 272 396 L 274 396 L 273 395 L 267 389 L 267 385 Z M 86 387 L 89 390 L 89 388 L 86 387 Z M 272 387 L 274 392 L 277 394 Q 278 399 274 401 L 277 402 L 283 398 L 284 397 L 285 389 L 284 389 Q 276 390 272 387 Z M 24 388 L 14 393 L 9 398 L 5 408 Q 3 423 9 430 Q 14 436 24 438 L 32 438 L 41 434 Q 49 429 51 419 Q 53 404 47 398 L 38 390 L 31 388 L 24 388 Z M 48 390 L 46 392 Q 51 393 52 399 L 56 397 L 58 397 L 60 402 L 60 401 Q 63 399 61 398 Q 62 395 59 396 L 57 393 Q 51 394 48 390 Z M 97 390 L 97 393 L 99 394 Q 100 389 97 390 Z M 80 392 L 69 397 L 62 405 L 59 415 L 60 425 L 65 433 Q 69 438 78 440 L 88 440 Q 95 439 99 434 L 99 411 L 92 417 L 96 431 L 93 430 L 86 424 L 84 422 L 79 427 L 76 429 Q 73 433 71 429 L 75 418 L 69 413 L 67 410 L 70 411 L 78 409 L 81 401 L 86 397 L 89 406 L 89 408 L 97 408 L 95 402 L 95 397 L 91 393 L 80 392 Z M 64 393 Q 63 396 66 395 Q 67 392 64 393 Z M 103 394 L 102 397 L 103 397 L 103 394 Z M 99 395 L 97 397 L 98 401 L 99 401 L 99 395 Z M 270 398 L 268 401 L 271 399 L 270 398 Z M 288 399 L 282 402 L 282 403 L 285 402 Q 296 401 301 404 Q 302 401 299 402 L 299 400 L 298 400 L 288 399 Z M 83 402 L 81 408 L 81 409 L 86 409 L 85 405 Q 86 401 83 402 Z M 305 403 L 303 405 L 305 405 L 305 403 Z M 104 404 L 102 411 L 103 413 L 103 415 L 102 418 L 103 420 L 102 422 L 103 435 L 103 437 L 103 449 L 105 449 L 106 436 L 107 435 L 106 423 L 104 417 L 104 404 Z M 270 404 Q 270 407 274 407 L 275 405 L 274 405 L 270 404 Z M 264 405 L 262 408 L 260 409 L 258 409 Q 257 412 260 411 L 261 417 L 262 417 L 261 413 L 264 407 L 264 405 Z M 286 405 L 275 410 Q 268 415 265 425 Q 263 441 270 448 Q 269 450 272 449 L 272 451 L 278 455 L 290 458 L 292 458 L 300 456 L 306 452 Q 308 453 307 450 L 309 450 L 315 438 L 315 424 L 311 416 L 300 407 L 295 405 L 286 405 Z M 309 405 L 309 407 L 309 408 L 311 407 Q 312 404 309 405 Z M 55 406 L 55 409 L 57 410 Q 58 405 55 406 Z M 267 408 L 269 411 L 269 410 L 267 408 Z M 109 409 L 108 413 L 110 414 L 109 409 Z M 94 410 L 93 411 Q 90 410 91 414 L 94 412 L 94 410 Z M 81 411 Q 77 413 78 418 Q 82 417 84 420 L 89 416 L 88 411 L 83 412 L 81 411 Z M 73 412 Q 72 415 76 414 Q 77 411 73 412 Z M 109 415 L 108 419 L 109 419 L 109 415 Z M 90 418 L 88 420 Q 85 419 86 422 L 89 423 L 92 426 L 90 418 Z M 77 419 L 75 425 L 76 426 L 79 424 L 81 420 L 77 419 Z M 261 426 L 260 429 L 261 429 L 261 426 Z M 52 428 L 50 430 Q 49 432 52 431 L 53 435 Q 56 436 55 434 Q 53 432 56 431 L 52 428 Z M 59 430 L 57 432 L 60 433 L 59 430 Z M 8 432 L 7 438 L 11 439 L 12 437 L 9 435 L 8 432 Z M 120 432 L 119 438 L 120 438 L 120 432 Z M 133 432 L 132 435 L 133 435 L 133 432 Z M 239 434 L 230 438 L 223 446 L 220 456 Q 220 465 224 470 Q 228 476 237 479 L 249 479 L 258 474 Q 263 469 265 461 Q 266 448 260 442 L 254 436 Q 248 433 239 434 Z M 48 438 L 40 441 L 31 450 L 28 457 Q 30 462 27 464 Q 28 474 33 481 Q 38 487 47 489 Q 62 491 69 484 L 74 478 L 78 466 L 77 463 L 78 461 L 77 456 L 72 447 L 62 439 Q 56 437 48 438 Z M 20 440 L 22 446 L 23 443 L 28 444 L 30 443 Q 35 445 34 441 L 32 442 L 31 441 Q 23 443 20 440 Z M 98 441 L 94 447 Q 93 450 96 449 L 98 449 Q 101 448 99 454 L 99 456 L 102 461 L 100 462 L 96 456 L 91 458 L 92 455 L 86 457 L 86 461 Q 90 460 89 463 L 94 461 L 96 463 L 95 468 L 101 469 L 103 462 L 103 455 L 101 454 L 99 448 Q 100 440 98 441 Z M 80 446 L 80 451 L 85 452 L 86 452 L 85 449 L 80 446 Z M 26 450 Q 24 453 27 452 L 26 450 Z M 88 451 L 88 452 Q 94 450 93 454 L 96 453 L 96 451 L 88 451 Z M 269 451 Q 267 456 272 457 L 274 456 L 269 451 Z M 304 457 L 298 460 Q 293 459 292 461 Q 286 463 285 460 L 282 460 Q 283 464 281 463 L 281 464 L 288 462 L 299 462 L 304 459 L 304 457 Z M 316 458 L 314 460 L 315 462 L 313 467 L 317 466 L 318 462 L 316 458 Z M 273 461 L 270 465 L 272 470 L 273 467 L 277 466 L 276 463 L 273 461 Z M 82 463 L 80 468 L 82 470 L 86 467 L 82 465 L 82 463 Z M 90 465 L 90 467 L 92 466 L 90 465 Z M 310 465 L 309 467 L 311 468 L 310 465 Z M 287 466 L 277 471 L 269 480 L 266 490 L 266 496 L 268 504 L 282 510 L 286 516 L 292 520 Q 303 520 309 515 Q 316 509 319 500 L 319 487 L 313 475 L 303 467 L 287 466 Z M 327 468 Q 326 471 329 470 Q 330 467 327 468 Z M 314 469 Q 319 474 321 482 L 325 483 L 324 478 L 329 475 L 330 479 L 332 479 L 332 470 L 329 472 L 326 471 L 323 475 Q 324 477 322 476 L 320 473 Q 318 469 314 469 Z M 91 470 Q 89 476 96 474 Q 98 475 96 477 L 100 477 L 101 474 L 91 470 Z M 83 472 L 81 475 L 80 474 L 75 481 L 75 485 L 78 485 L 77 481 Q 78 478 82 479 L 81 482 Q 78 481 79 484 L 84 483 L 86 484 L 88 484 L 87 481 L 89 478 L 85 479 L 83 477 L 85 473 L 83 472 Z M 265 473 L 265 475 L 263 476 Q 260 475 261 479 L 261 481 L 259 488 L 260 489 L 258 488 Q 255 487 256 490 L 252 488 L 254 487 L 256 487 L 257 483 Q 259 481 257 480 L 248 488 L 251 489 L 253 494 Q 252 496 255 495 L 255 497 Q 259 496 261 499 L 261 496 L 258 495 L 262 490 L 264 481 L 268 475 L 265 473 Z M 26 474 Q 24 477 27 476 L 26 474 Z M 96 480 L 94 483 L 96 482 L 96 480 Z M 19 483 L 19 485 Q 18 488 13 487 L 12 491 L 13 492 L 16 489 L 26 485 L 19 483 Z M 99 483 L 97 486 L 99 486 L 99 483 Z M 86 487 Q 84 490 78 488 L 68 494 L 61 503 L 60 507 Q 58 521 65 528 Q 70 534 78 536 Q 90 538 97 533 L 98 532 L 99 508 L 93 513 L 97 526 L 94 526 L 85 519 L 74 528 L 71 527 L 76 512 L 74 512 L 67 508 Q 65 504 69 505 L 71 505 L 72 504 L 80 504 L 83 495 L 86 493 L 89 501 L 89 504 L 91 505 L 99 505 Q 101 501 100 493 L 92 488 L 86 487 Z M 67 488 L 65 490 L 56 492 L 54 494 L 56 496 L 59 494 L 62 496 L 67 490 L 67 488 Z M 26 490 L 15 495 Q 7 500 5 512 L 5 520 L 9 530 L 16 536 L 22 539 L 25 539 L 27 541 Q 28 538 35 540 L 44 535 Q 51 530 53 520 L 53 510 L 48 499 Q 42 489 26 490 Z M 112 491 L 113 496 L 114 493 Q 115 490 112 491 Z M 324 491 L 323 494 L 329 496 L 329 492 L 324 491 Z M 8 492 L 8 497 L 10 494 L 8 492 Z M 85 499 L 83 502 Q 82 507 86 505 L 85 499 Z M 327 499 L 322 500 L 320 507 L 322 507 L 325 506 L 330 511 L 329 514 L 333 514 L 333 505 L 332 504 L 330 504 Q 323 506 325 501 L 329 501 L 327 499 Z M 333 499 L 331 501 L 333 501 L 333 499 Z M 262 500 L 262 503 L 263 503 Q 264 499 262 500 Z M 73 507 L 73 509 L 76 510 L 78 509 L 73 507 Z M 84 507 L 80 508 L 79 513 L 84 516 L 89 513 L 88 510 Q 89 506 86 507 L 84 507 Z M 91 507 L 91 510 L 94 508 L 91 507 Z M 77 515 L 75 522 L 76 523 L 81 520 L 82 518 L 77 515 Z M 90 515 L 87 519 L 91 521 L 93 523 L 91 518 Q 92 514 90 515 Z M 322 519 L 321 522 L 322 522 L 322 519 Z M 58 524 L 58 528 L 53 530 L 58 530 L 60 533 L 65 533 L 60 526 Q 61 523 58 524 Z M 106 524 L 104 526 L 106 530 L 106 531 L 110 531 L 109 527 L 106 524 Z M 112 532 L 111 535 L 112 535 L 112 532 Z M 58 533 L 54 535 L 53 539 L 52 541 L 60 538 L 62 539 L 65 541 L 66 540 L 69 543 L 75 539 L 66 533 L 65 535 L 64 536 L 57 537 L 59 534 L 58 533 Z M 7 535 L 7 537 L 9 536 L 7 535 Z M 97 536 Q 94 539 90 538 L 91 541 L 85 544 Q 78 546 77 542 L 71 545 L 61 544 L 59 542 Q 54 541 53 544 Q 46 546 45 543 L 42 544 L 39 543 L 31 543 L 29 545 L 32 553 L 34 552 Q 33 549 36 550 Q 37 547 39 552 L 38 555 L 42 555 L 40 552 L 40 549 L 44 547 L 46 551 L 47 547 L 50 546 L 55 549 L 60 548 L 59 551 L 55 551 L 49 548 L 48 553 L 42 557 Q 36 556 35 558 L 25 557 L 22 553 L 22 550 Q 18 551 17 548 L 13 551 L 16 555 Q 17 557 15 556 L 13 556 L 9 556 Q 10 559 6 558 L 6 565 L 10 567 L 7 567 Q 5 572 9 571 Q 10 574 6 573 L 7 595 L 17 595 L 18 594 L 20 595 L 55 595 L 56 594 L 75 594 L 76 595 L 78 594 L 88 594 L 89 595 L 90 594 L 104 594 L 105 593 L 136 593 L 137 592 L 138 593 L 152 593 L 153 594 L 154 593 L 164 593 L 167 594 L 169 593 L 216 593 L 218 593 L 220 594 L 224 593 L 228 593 L 231 594 L 232 593 L 307 592 L 309 592 L 333 592 L 333 592 L 333 586 L 328 588 L 329 590 L 326 591 Q 322 589 326 588 L 324 587 L 322 587 Q 324 592 321 591 L 318 586 L 309 586 L 309 589 Q 304 591 305 587 L 309 584 L 318 584 L 318 582 L 314 583 L 309 582 L 306 580 Q 308 576 315 577 L 317 577 L 317 575 L 309 574 L 307 572 Q 310 568 317 568 L 318 561 L 314 562 L 280 562 L 279 563 L 272 561 L 270 562 L 268 561 L 259 561 L 258 562 L 255 561 L 252 562 L 243 560 L 235 560 L 233 560 L 231 559 L 226 560 L 219 560 Q 209 558 203 553 L 193 553 L 192 552 L 181 552 L 161 558 L 137 557 Q 132 554 125 554 L 122 552 L 103 557 L 99 557 Q 97 559 96 557 L 99 550 L 98 546 L 97 548 L 90 548 L 88 547 L 97 546 L 97 536 Z M 7 537 L 7 541 L 7 552 L 6 553 L 8 555 L 11 554 L 9 551 L 12 544 L 15 546 L 20 546 L 20 548 L 23 548 L 25 548 Q 27 549 26 546 L 13 539 L 11 539 Q 12 542 10 541 L 7 537 Z M 81 540 L 81 541 L 84 541 L 81 540 Z M 317 545 Q 314 546 315 550 L 318 549 L 320 550 L 321 547 Q 320 544 317 545 Z M 29 548 L 25 551 Q 25 555 28 555 L 28 554 L 28 552 Q 27 549 30 550 Q 31 547 29 548 Z M 114 549 L 110 551 L 103 550 L 101 553 L 100 555 L 114 551 L 115 550 L 114 549 Z M 34 553 L 32 555 Q 31 557 34 556 L 34 553 Z M 330 557 L 325 561 L 330 561 Q 332 562 331 566 L 328 568 L 325 567 Q 321 566 322 569 L 329 569 L 330 570 Q 332 569 331 572 L 333 572 L 333 558 L 330 557 Z M 323 563 L 323 565 L 327 565 L 327 564 L 326 564 L 323 563 Z M 313 571 Q 312 573 317 573 Q 318 569 313 571 Z M 322 571 L 323 573 Q 327 574 326 571 L 324 572 L 322 571 Z M 331 574 L 329 576 L 332 576 Q 333 573 331 574 Z M 322 578 Q 321 581 324 580 L 326 580 L 332 579 L 333 580 L 333 578 L 322 578 Z M 315 579 L 315 580 L 318 580 L 315 579 Z M 332 581 L 331 582 L 323 582 L 322 584 L 326 585 Q 331 586 332 583 L 332 581 Z "></path><path d="M 165.5 17 L 168.5 18 L 169.5 17 L 184 17 Q 185.3 20.3 180.5 19 L 174 27.5 L 176 32 Q 179.1 31.3 178.5 34 L 186.5 34 L 186.5 35 L 170.5 37 L 168.5 36 L 165.5 37 L 150.5 37 L 148 38 Q 146.7 34.7 151.5 36 L 154 35 L 155 27.5 L 153 20 L 148.5 21 L 147.5 19 L 149.5 18 L 164.5 18 L 165.5 17 Z M 174 19 L 168 20 L 169 24 L 174 21 L 174 19 Z M 160 20 Q 158 22 159 29 L 159 31 L 160 33 Q 159 37 163 35 L 168 29 L 164 22 L 160 20 Z M 172 31 L 170 33 L 171 35 L 173 34 L 172 31 Z "></path><path d="M 300.5 129 L 300 130.5 L 299.5 132 L 299 130.5 L 300.5 129 Z "></path><path d="M 293.5 131 L 295.5 134 L 293 133 L 293.5 131 Z "></path><path d="M 42.5 134 L 43.5 136 L 42.5 134 Z "></path><path d="M 306.5 137 L 308 137.5 L 305 139 L 303.5 142 L 304 140.5 L 306.5 137 Z "></path><path d="M 283.5 138 L 284.5 140 L 283.5 138 Z "></path><path d="M 168.5 140 L 175 144.5 L 172.5 146 Q 170.6 142.4 166 143 Q 164.9 140.3 167.5 141 L 168.5 140 Z "></path><path d="M 291.5 140 L 293.5 143 Q 291.3 143.8 292 141.5 L 291.5 140 Z "></path><path d="M 301.5 143 Q 303.8 142.3 303 144.5 L 301.5 143 Z "></path><path d="M 314.5 143 L 315 145.5 L 314 145.5 L 314.5 143 Z "></path><path d="M 297.5 144 L 299 147.5 L 298 147.5 L 297.5 144 Z "></path><path d="M 306.5 144 L 308 144.5 L 307 146.5 L 307.5 148 Q 303 146 306.5 144 Z "></path><path d="M 167.5 145 L 173 147 Q 174.5 150.8 171.5 150 L 169.5 151 L 168 148 Q 165.3 149.1 166 146.5 L 167.5 145 Z "></path><path d="M 292.5 146 L 295 149.5 L 293 148.5 L 292.5 146 Z "></path><path d="M 45.5 148 L 43.5 151 L 43 149 L 45.5 148 Z "></path><path d="M 296.5 151 L 297.5 153 L 296.5 151 Z "></path><path d="M 249.5 152 L 252 153.5 Q 253.1 156.8 250.5 156 L 248 155 L 249.5 152 Z "></path><path d="M 301 154 L 303 154.5 L 301 155.5 L 301 154 Z "></path><path d="M 30.5 159 L 29.5 161 L 30.5 159 Z "></path><path d="M 172 159 Q 176.5 157.5 175 162 L 172 160.5 L 172 159 Z "></path><path d="M 287.5 159 L 289 161.5 L 288 161.5 L 287.5 159 Z "></path><path d="M 168.5 162 L 174.5 165 L 177 164 Q 176 167 179 166 L 179 169 L 175.5 168 Q 174 171.5 172.5 169 Q 169.9 169.7 171 167 L 173 166.5 L 166 165 Q 164.9 162.3 167.5 163 L 168.5 162 Z "></path><path d="M 26.5 166 Q 29.5 167.5 26.5 169 L 26.5 166 Z "></path><path d="M 189.5 204 Q 191.8 203.3 191 205.5 L 193 209.5 L 190.5 213 Q 185.8 213.8 185 210.5 L 184 206.5 L 189.5 204 Z M 187 207 L 187 211 L 190 212 L 191 210 L 187 207 Z "></path><path d="M 320.5 204 L 324 205.5 Q 324.8 209.3 322.5 210 L 318 209 Q 317.3 205.2 320.5 204 Z "></path><path d="M 245 205 L 248 206.5 L 245 207 L 245 205 Z "></path><path d="M 196.5 208 L 198 208.5 L 195 211.5 L 194 220 Q 188.8 221.8 191 214.5 L 196.5 208 Z "></path><path d="M 170.5 219 L 172 219.5 L 168 225.5 L 165 240 Q 161.3 241.3 163 235.5 L 165 226.5 L 170.5 219 Z "></path><path d="M 180.5 223 L 183.5 223 L 187 225 L 187 231.5 L 185.5 232 L 183 233 Q 181.4 235.1 182 240.5 L 184 239.5 L 185.5 237 L 189.5 236 L 189 237.5 L 188 241 L 186 240.5 L 188 237.5 L 184 240.5 L 184.5 242 L 183 241.5 L 182.5 245 L 180.5 241 L 179 241.5 L 178 238.5 L 181 237.5 L 180 235.5 L 181 233.5 Q 175.8 231.8 177 225 L 180.5 223 Z M 182 224 L 180 226 Q 179 230 182 231 L 184 230 Q 186 231 185 227 L 182 224 Z "></path><path d="M 298.5 228 L 300 231.5 L 297.5 233 Q 293 231 296.5 229 L 298.5 228 Z "></path><path d="M 313.5 232 L 317 233.5 Q 317.8 235.8 315.5 235 L 312 233.5 L 313.5 232 Z "></path><path d="M 174 237 L 177 237.5 L 175.5 240 L 177 240.5 L 175.5 241 L 174 237 Z "></path><path d="M 233.5 245 L 238 248.5 Q 239.1 251.8 236.5 251 L 232 247.5 L 233.5 245 Z "></path><path d="M 319.5 245 L 321 245 L 321 250 L 318 248.5 L 319.5 245 Z "></path><path d="M 128.5 247 L 134 253.5 L 132.5 254 L 130 253 L 128.5 247 Z "></path><path d="M 146.5 249 Q 151.8 247.8 153 250.5 L 154 255.5 L 151 257 L 150 263 Q 152.7 264.1 152 261.5 L 156.5 259 L 157 262.5 L 151 267.5 L 152 273 L 150 272.5 L 151 270.5 L 149.5 265 L 147.5 269 Q 143.5 269.5 143 266.5 L 143.5 265 L 145.5 268 Q 148.1 268.7 147 266 Q 144 267 145 264 L 147.5 265 L 148 261.5 L 144 255.5 L 144 251.5 L 146.5 249 Z M 146 251 L 145 254 L 148 257 L 151 256 L 152 254 Q 151 250 146 251 Z M 153 261 L 153 264 L 155 263 Q 156 260 153 261 Z "></path><path d="M 42.5 268 Q 46.8 269.8 44 271.5 Q 44.8 273.8 42.5 273 L 41 269.5 L 42.5 268 Z "></path><path d="M 97.5 270 L 102.5 270 L 111 274.5 L 110 278 L 100.5 273 L 96.5 273 L 94.5 274 Q 91.5 272.5 94.5 271 L 97.5 270 Z "></path><path d="M 91.5 276 Q 98.8 273.7 97 279 L 89.5 279 L 89 277 L 91.5 276 Z "></path><path d="M 171.5 277 L 175.5 278 L 178 280.5 L 179 282.5 L 175.5 287 L 174 287.5 L 176 288 L 176 293.5 L 177.5 294 L 182 293 Q 183.5 296.8 180.5 296 L 177 298 L 175.5 301 Q 173 299.8 174 296 L 171.5 295 Q 169.8 297.8 168 293.5 L 171.5 293 L 175 295.5 L 174 288 L 168 287 L 167 281.5 L 169.5 278 L 171.5 277 Z M 170 279 Q 168 284 172 286 L 176 285 L 174 281 L 170 279 Z "></path><path d="M 186.5 288 L 187 295.5 L 185 298.5 L 185 309.5 L 183 317.5 L 183 327.5 L 183 329.5 L 184 366.5 L 185 367.5 L 184 368.5 L 184 377.5 L 184 379.5 L 185 390.5 L 185 392.5 L 185 409.5 L 186 410.5 L 186 420.5 L 187 421.5 L 187 437.5 L 188.5 442 L 190 436 L 192.5 436 L 198 441.5 L 199 445.5 L 195 450.5 L 195 453 L 198 451.5 L 199 447 Q 202 445.8 201 449.5 Q 198.3 451.3 200 457.5 L 204 470.5 L 204 476.5 L 209 496.5 L 218 509.5 L 220 517.5 L 224.5 525 L 231.5 527 L 238 531.5 L 244 545.5 L 246.5 548 L 251 550 Q 249.9 552.7 252.5 552 L 257 555.5 Q 255.8 558.3 254.5 556 Q 245.4 553.5 241 546.5 L 236 533 L 225 527.5 Q 225.9 524.5 221.5 526 L 218.5 521 L 215.5 526 L 209 524 Q 207.9 521.3 210.5 522 L 213 523 L 210.5 518 L 207.5 519 L 203 517 Q 201.3 509.9 205.5 508 L 208.5 507 L 213.5 509 L 214 507.5 L 211 503 L 207 501.5 L 201 476.5 L 202 474.5 L 198 454 Q 195.3 452.9 196 455.5 L 196.5 457 L 194 458.5 L 193 462 Q 190.3 463.1 191 460.5 Q 194.6 459.1 194 453.5 L 191.5 449 L 189.5 448 L 189 458.5 L 190 459.5 L 190 470.5 L 192 480.5 L 199 504 L 196 502.5 L 194.5 500 L 192 508.5 L 193 510.5 L 191.5 510 L 189.5 509 L 188 509.5 Q 189.1 506.2 186.5 507 L 187 505.5 L 185 498.5 Q 187.8 497.8 187 493.5 L 186 490 L 182 489 L 181 494.5 L 182 497 Q 185 496 184 499 L 179 495.5 Q 178.3 489.3 182.5 488 L 189 489 Q 190.6 491.1 190 496.5 Q 186.5 497 187 501.5 L 189 502.5 L 190 499 L 192.5 498 L 194 498.5 L 186 469.5 L 185 445.5 L 184 444.5 L 184 428.5 L 183 427.5 L 183 404.5 L 182 401.5 L 182 399.5 L 183 394.5 L 183 392.5 L 183 376.5 L 182 375.5 L 182 373.5 L 182 356.5 L 181 351.5 L 181 349.5 L 181 321.5 L 183 312.5 L 183 302.5 L 186.5 288 Z M 209 292 L 208 304 L 209 304 L 209 292 Z M 205 295 L 202 296 L 201 302 Q 203 305 205 301 L 205 295 Z M 241 295 L 239 298 L 238 310 L 235 322 L 230 333 Q 229 336 234 334 L 236 330 L 237 319 L 241 301 L 241 295 Z M 246 299 L 249 307 L 253 308 L 252 307 Q 251 304 255 305 L 253 301 Q 251 298 246 299 Z M 197 301 L 196 307 L 198 308 Q 199 302 197 301 Z M 205 303 L 204 305 L 201 306 L 203 311 L 205 310 L 205 303 Z M 212 304 L 211 308 L 212 308 L 212 304 Z M 245 305 L 243 309 L 246 308 L 245 305 Z M 208 308 L 207 324 L 210 337 L 211 337 L 208 308 Z M 197 309 L 197 322 L 198 323 L 198 332 L 205 348 L 207 349 L 202 338 L 199 323 L 199 314 L 197 309 Z M 212 309 L 211 320 L 212 320 L 212 309 Z M 202 313 L 203 325 L 203 327 L 205 334 L 206 334 L 205 329 L 205 314 L 202 313 Z M 245 313 L 243 315 Q 242 317 245 316 L 245 313 Z M 249 321 L 247 323 L 249 323 L 249 321 Z M 242 323 L 241 327 L 244 325 L 246 326 L 247 323 L 245 324 L 242 323 Z M 255 325 L 254 327 L 252 326 L 249 327 L 253 328 Q 254 330 255 328 L 255 325 Z M 192 328 L 191 333 L 192 333 L 192 328 Z M 214 328 L 213 332 L 215 332 L 214 328 Z M 255 329 L 254 331 L 256 332 L 255 329 Z M 215 333 L 215 344 L 219 348 L 217 350 Q 219 354 226 354 L 231 344 L 227 342 L 227 339 L 230 335 L 227 334 L 223 339 L 219 342 Q 215 339 215 333 Z M 207 334 L 206 337 L 207 337 L 207 334 Z M 192 335 L 192 340 L 191 342 L 192 373 L 193 373 L 193 353 L 195 352 L 195 384 L 196 385 L 197 402 Q 199 410 207 414 L 210 413 L 208 408 L 204 407 L 200 400 L 207 395 Q 202 393 203 388 Q 206 387 205 390 L 208 392 L 210 392 L 215 391 L 221 386 Q 226 381 227 372 L 227 370 L 229 365 L 232 363 L 234 356 L 234 350 L 232 353 L 230 355 L 226 356 Q 222 355 224 359 L 221 361 L 210 356 L 207 354 L 199 342 Q 196 341 197 345 L 198 346 L 192 343 L 194 342 L 192 335 Z M 208 337 L 207 340 L 208 340 L 208 337 Z M 233 337 L 231 340 L 232 342 L 233 340 L 233 337 Z M 196 338 L 196 341 L 198 340 Q 199 337 196 338 Z M 252 343 L 247 346 L 246 348 Q 251 349 253 346 Q 254 342 252 343 Z M 208 349 L 207 351 L 209 352 L 208 349 Z M 234 365 L 235 368 L 236 366 L 234 365 Z M 234 368 L 232 375 L 235 376 L 237 375 Q 233 373 234 368 Z M 193 376 L 192 390 L 193 390 L 193 376 Z M 228 377 L 226 380 L 227 382 L 228 380 L 228 377 Z M 232 378 L 231 381 L 232 383 Q 236 381 233 380 Q 234 377 232 378 Z M 236 382 L 234 384 Q 235 386 233 385 L 229 389 Q 230 393 228 395 L 228 401 L 231 401 L 230 396 L 232 390 L 237 388 L 240 389 L 241 383 L 236 382 Z M 224 387 L 222 390 L 214 394 L 211 395 L 214 402 L 213 406 L 210 407 L 211 409 L 215 406 L 217 406 L 218 409 L 214 417 L 214 419 Q 215 421 212 420 L 211 418 Q 212 415 208 416 L 209 420 Q 210 424 206 422 L 204 416 L 196 407 L 194 402 L 194 394 L 193 394 L 193 420 L 194 424 L 199 426 L 197 429 L 199 434 L 208 440 Q 212 441 213 439 L 211 436 L 214 435 L 215 433 L 211 434 L 211 431 Q 215 432 214 430 L 215 428 L 211 430 L 207 429 L 209 426 L 211 427 L 213 426 L 210 425 L 213 424 Q 220 419 223 410 L 227 391 L 227 388 L 225 391 Q 226 393 223 392 L 224 389 L 224 387 Z M 246 389 L 242 390 L 243 393 L 242 396 L 243 397 L 245 395 L 246 391 L 246 389 Z M 236 391 L 234 393 L 235 395 L 235 394 L 238 392 Q 240 393 238 395 L 239 396 L 240 393 Q 239 390 236 391 Z M 203 398 L 203 403 Q 204 406 209 405 L 208 404 L 208 400 Q 205 401 206 398 L 203 398 Z M 239 403 Q 237 407 240 409 L 243 408 L 240 415 L 238 416 Q 236 413 232 414 L 233 418 L 233 419 L 235 418 L 238 422 L 240 417 L 247 412 L 250 413 L 251 413 L 248 411 L 247 405 L 244 407 L 239 406 L 239 403 Z M 227 405 L 226 409 L 229 407 Q 230 404 227 405 Z M 233 406 L 234 412 L 235 410 L 235 408 Q 236 405 233 406 Z M 215 408 L 213 411 L 215 410 L 215 408 Z M 253 414 L 252 415 L 250 415 L 250 419 L 247 421 L 248 423 L 249 420 Q 254 421 256 418 Q 257 415 253 416 L 253 414 Z M 244 416 L 242 420 L 243 424 Q 245 423 244 420 L 247 418 Q 248 415 244 416 Z M 231 423 Q 229 428 234 427 L 237 431 L 240 431 L 238 426 L 236 425 Q 233 426 234 423 L 231 423 Z M 247 423 Q 245 427 249 429 L 248 431 L 253 432 L 254 429 L 247 425 L 247 423 Z M 219 425 L 217 428 L 219 427 L 219 425 Z M 224 426 L 222 428 Q 221 430 224 429 L 226 429 Q 230 430 229 427 L 224 426 Z M 242 427 L 242 431 L 244 430 L 246 431 L 244 429 Q 245 426 242 427 Z M 215 431 L 215 433 L 217 432 L 215 431 Z M 222 434 L 217 437 L 216 441 L 213 443 L 215 456 L 217 457 L 218 456 L 219 446 L 225 438 L 222 436 L 222 434 Z M 191 439 L 190 442 L 192 447 Q 191 449 195 448 Q 197 447 196 443 L 191 439 Z M 241 445 Q 240 449 243 448 Q 244 444 241 445 Z M 250 450 L 249 453 L 253 452 Q 254 449 252 450 L 250 450 Z M 236 451 L 230 453 L 235 456 L 236 454 Q 238 452 236 451 Z M 241 451 L 238 458 L 242 460 L 247 456 L 246 454 L 246 451 L 241 451 Z M 249 458 L 247 460 Q 244 459 245 462 L 250 465 L 252 467 L 249 458 Z M 238 459 L 234 466 L 235 467 L 240 462 L 238 459 Z M 241 487 L 242 489 L 246 490 L 248 489 L 241 487 Z M 191 500 L 190 503 Q 189 506 192 505 L 193 502 Q 194 499 191 500 Z M 206 509 L 205 512 Q 205 516 209 518 Q 213 516 211 510 L 206 509 Z M 215 509 L 215 514 L 213 518 L 216 522 L 219 520 L 215 509 Z "></path><path d="M 316.5 297 L 318 299.5 L 310 304 Q 308.5 300.3 311.5 301 L 314 300 Q 312.9 297.3 315.5 298 L 316.5 297 Z "></path><path d="M 151.5 304 L 157 307.5 Q 158.3 313.6 155.5 313 Q 152.3 313.8 153 318.5 L 154.5 323 L 159.5 321 L 161 323.5 L 158.5 327 L 154.5 328 L 151 326 L 151 342.5 L 150 345.5 L 151 348.5 L 150 349.5 L 150 365.5 L 151 368.5 L 150 370.5 L 151 371.5 L 151 386.5 L 153 394.5 L 154 442.5 L 156 453.5 L 156 463.5 L 158 468.5 L 160 483.5 Q 161.4 490.1 166 493.5 L 163.5 495 L 160 490.5 L 157 481.5 L 157 479.5 Q 157.7 473.8 155 471.5 L 156 468.5 L 154 465.5 L 152 433.5 Q 154.8 431.7 153 425.5 L 152 424.5 L 151 393.5 L 150 392.5 L 150 383.5 L 148.5 376 L 144.5 382 L 144 380.5 L 144.5 379 L 140.5 380 L 137 377.5 L 135 374.5 L 137.5 374 L 142.5 377 L 143 374.5 L 140.5 367 L 138.5 367 L 136 365.5 Q 135.4 360.1 137 358 L 143.5 357 Q 146.8 358.8 147 363.5 L 144.5 367 L 142 368.5 L 144.5 374 L 149 371 L 150 328.5 L 148 321.5 L 149 319.5 L 145 309.5 L 148.5 305 L 151.5 304 Z M 151 306 L 148 310 L 150 313 Q 149 316 153 314 L 155 308 L 154 308 L 151 306 Z M 150 318 Q 149 321 152 320 Q 153 317 150 318 Z M 159 322 L 158 323 Q 153 322 155 326 L 159 325 L 159 322 Z M 140 359 Q 137 360 138 365 L 141 366 L 144 365 L 143 361 L 140 359 Z M 148 372 L 146 376 L 148 375 L 148 372 Z M 139 376 L 139 378 Q 141 381 142 378 L 139 376 Z M 144 483 L 142 485 L 143 487 L 145 484 L 144 483 Z M 136 485 L 138 488 L 140 487 L 136 485 Z "></path><path d="M 18 312 Q 21 310.8 20 314.5 L 21 318 Q 18.3 319.1 19 316.5 L 18 312 Z "></path><path d="M 146.5 322 L 148 325.5 L 147 325.5 L 146.5 322 Z "></path><path d="M 22.5 336 L 30 337 L 28.5 340 Q 22.9 339.2 22.5 336 Z "></path><path d="M 292.5 337 L 294 340.5 Q 292.5 343.5 291 340.5 L 292.5 337 Z "></path><path d="M 23 340 L 26 340.5 L 23 342 L 23 340 Z "></path><path d="M 267.5 345 L 269 347.5 L 262 352 L 262 349 L 264 349 Q 262.9 346.3 265.5 347 L 267.5 345 Z "></path><path d="M 60 346 L 64 348.5 L 67.5 356 L 72.5 355 L 79 356 Q 80.5 359.7 77.5 359 L 70 363.5 L 76 377.5 L 73 379 L 71.5 376 L 61.5 370 L 50.5 378 L 48 378 L 52 364.5 L 45 359.5 L 45.5 356 L 55.5 356 L 60 346 Z M 60 351 L 59 356 L 64 356 L 62 353 Q 63 350 60 351 Z M 49 358 L 49 360 L 54 361 L 54 358 L 49 358 Z M 61 358 L 57 359 L 56 363 Q 61 363 63 366 L 67 364 L 65 359 L 64 359 L 61 358 Z M 71 358 L 69 359 L 70 361 L 72 360 Q 73 357 71 358 Z M 54 366 L 52 373 L 52 374 L 60 369 Q 59 365 54 366 Z M 67 366 L 65 369 L 69 371 L 70 371 L 68 368 Q 69 365 67 366 Z "></path><path d="M 168.5 348 Q 174.8 346.8 176 350.5 Q 177.5 356.5 174.5 358 Q 172.3 357.3 173 359.5 L 174.5 364 L 176.5 363 L 178 363.5 Q 177.3 360.9 180 362 L 175.5 369 L 173.5 370 L 173 368 L 168.5 369 L 166 363 Q 169.3 361.7 168 366.5 L 171 368 L 170 364.5 L 172 364 Q 173.3 359.4 170.5 358 Q 166.5 358.5 166 355.5 Q 164.5 348.5 167.5 349 L 168.5 348 Z M 171 349 L 168 350 Q 167 356 171 357 L 174 356 L 173 350 L 171 349 Z "></path><path d="M 197 349 Q 200.5 347.9 199 355.5 L 205.5 365 L 209.5 359 L 216 360 L 218 365.5 L 217 369 L 214 370.5 L 216.5 371 Q 219.2 367.3 225 368 L 222 375 L 217 378.5 Q 218.3 383.8 215.5 385 Q 213.3 385.8 214 383.5 L 213 381 L 206 377.5 Q 205.2 374.9 208.5 376 Q 210 373.5 211.5 377 Q 213.8 377.8 213 375.5 L 203 366.5 L 197 356.5 L 197 349 Z M 211 361 L 209 366 L 212 367 Q 215 368 214 365 L 216 365 L 211 361 Z "></path><path d="M 163.5 391 L 170 393.5 L 171 397.5 L 168 403.5 L 171 407.5 L 170.5 409 Q 173.1 408.2 172 411.5 L 170 412.5 L 168.5 410 L 165.5 411 L 165.5 410 L 167 409.5 L 163.5 408 L 163.5 410 L 161.5 407 L 167 407 L 167 404.5 L 166 402 Q 161.3 403 160 399.5 L 159 397.5 L 163.5 391 Z M 164 393 Q 161 394 162 398 L 168 399 L 167 397 Q 169 391 164 393 Z "></path><path d="M 27.5 393 L 31 395.5 L 33 406 Q 36.3 403.9 44.5 405 L 46 406.5 L 42.5 410 L 37 414.5 L 37 417.5 L 41 426.5 L 38.5 428 L 30.5 421 L 28.5 421 L 23 425.5 Q 23.9 428.5 19.5 427 L 17.5 428 L 16 425.5 L 20 414 Q 13.7 412.4 10 407.5 L 11.5 406 L 23 406 L 25 396.5 L 27.5 393 Z M 29 399 L 27 401 Q 25 408 30 406 L 29 399 Z M 40 407 L 34 409 L 35 412 L 40 409 L 40 407 Z M 18 408 L 16 410 L 21 413 L 21 409 L 18 408 Z M 28 408 L 26 409 Q 23 410 24 415 L 29 418 L 33 415 L 32 410 Q 31 407 28 408 Z M 23 417 Q 20 418 21 422 L 21 423 L 26 420 L 23 417 Z M 32 418 L 32 420 L 36 423 L 35 420 Q 36 417 32 418 Z "></path><path d="M 322.5 395 L 326 397.5 Q 327.1 400.8 324.5 400 L 321 396.5 L 322.5 395 Z "></path><path d="M 174.5 404 L 175 405.5 L 173.5 410 L 172 406.5 L 174.5 404 Z "></path><path d="M 177 404 L 179 404.5 L 176.5 408 L 175 407.5 L 177 404 Z "></path><path d="M 289 409 Q 292.3 407.7 291 412.5 L 296 424 Q 304.5 425 309 422 L 307.5 425 Q 301.4 426.4 299 431.5 L 306 446 L 290.5 438 L 279.5 447 L 277 443.5 L 281 433 L 270 428 Q 268.5 424.2 271.5 425 L 275 424.5 L 275.5 426 Q 277.3 423.3 283.5 425 L 285 423.5 L 289 409 Z M 289 416 L 288 425 L 293 424 L 291 419 Q 292 415 289 416 Z M 301 425 L 297 427 L 299 429 L 302 427 Q 303 424 301 425 Z M 287 426 L 284 432 L 287 434 L 292 435 L 296 432 L 295 428 Q 294 425 291 426 L 287 426 Z M 277 427 Q 277 430 282 431 L 283 429 Q 284 426 277 427 Z M 297 433 L 294 437 L 299 440 L 300 441 L 297 433 Z M 284 435 L 281 441 L 282 442 L 288 438 L 284 435 Z "></path><path d="M 135.5 413 Q 140 412 141 414.5 L 142 423 L 138.5 425 L 135 425 L 133.5 422 L 132 421.5 L 132 415 L 135.5 413 Z M 136 415 L 134 417 L 135 422 L 138 423 Q 141 422 140 417 Q 139 414 136 415 Z "></path><path d="M 168.5 434 Q 174.3 433.2 176 436.5 L 177 442.5 L 174 446.5 L 175 449 Q 177.7 450.1 177 447.5 L 181.5 444 L 183 448.5 L 178 454.5 L 179 460 Q 176 461.3 177 457.5 L 176 455 L 173.5 456 L 174 454.5 Q 174.8 452.3 172.5 453 L 172.5 452 Q 174.8 452.8 174 450.5 L 173 447 L 168 446 Q 169.1 443.3 166.5 444 Q 164 443 165 438.5 L 166 435 L 168.5 434 Z M 171 435 Q 166 436 167 442 L 173 446 Q 175 444 174 438 L 171 435 Z M 180 447 L 178 450 L 178 451 L 180 450 L 180 447 Z "></path><path d="M 241.5 437 Q 244.8 435.9 244 438.5 L 243 440.5 L 247.5 448 Q 253 449.5 254.5 447 L 256.5 448 L 258.5 447 L 260 449.5 L 251 455.5 L 257 467.5 L 257 471 L 252.5 470 L 242.5 463 L 234 470.5 L 232.5 473 L 230 469.5 L 234 457 L 224 450.5 Q 225.3 447.8 230.5 449 L 232.5 449 Q 237 450 238 447.5 L 240 442.5 L 240 438.5 L 241.5 437 Z "></path><path d="M 52 444 L 56 445.5 L 60.5 456 L 71 455 Q 72.5 458.7 69.5 458 L 63 462.5 L 67 469.5 L 69 478 L 52.5 470 L 41.5 478 L 40 475.5 L 42 468.5 L 44 466.5 L 35 459.5 L 36.5 457 L 48 456 L 52 444 Z M 54 448 L 50 456 L 57 456 L 54 448 Z M 52 458 L 48 459 L 47 464 L 53 467 L 60 463 L 59 460 Q 58 457 52 458 Z M 62 458 L 62 460 L 65 459 L 62 458 Z M 44 459 L 42 461 L 44 461 Q 45 463 46 461 Q 47 458 44 459 Z M 61 464 L 58 466 L 56 469 L 64 473 L 65 474 L 61 464 Z M 45 467 L 43 474 L 48 472 L 50 468 L 45 467 Z "></path><path d="M 169.5 451 L 170 452.5 L 169 453.5 L 170.5 456 L 168 454.5 L 169.5 451 Z "></path><path d="M 161.5 452 L 164 455.5 L 164 459.5 L 172 481 L 169 479.5 L 161.5 457 L 161 463.5 L 159.5 465 L 158 459.5 L 159 454.5 L 161.5 452 Z "></path><path d="M 135 465 L 138.5 465 L 144 470.5 L 145 475.5 L 143 479 L 139 480.5 L 140.5 484 L 144.5 481 Q 146.8 481.8 146 485.5 L 144 488.5 L 144.5 490 L 139.5 489 L 137.5 490 Q 136.4 487.3 133 488 L 135.5 484 Q 139.9 485.5 139 482.5 L 138 479 Q 133.3 480 132 476.5 Q 131.8 468.5 135 465 Z M 136 467 L 134 473 L 135 477 L 142 476 L 143 477 L 140 470 L 136 467 Z "></path><path d="M 161 466 Q 163.7 464.9 163 467.5 L 162 471.5 L 167 482 L 164 480.5 L 160 472.5 L 160 468.5 L 161 466 Z "></path><path d="M 290 470 Q 293.7 468.6 292 474.5 Q 296 477.8 296 484 L 309.5 484 L 311 485.5 Q 311.8 487.8 309.5 487 L 301 493.5 L 306 505.5 L 306 507.5 Q 307.5 511.9 304.5 511 L 290.5 500 Q 286.1 505.4 279 507 L 279 502.5 L 283 493.5 L 273 484.5 L 273.5 483 L 280.5 483 L 282.5 483 Q 286.3 483.8 287 481.5 L 290 470 Z M 291 477 L 289 481 L 291 484 L 293 483 L 291 477 Z M 280 486 Q 280 490 284 490 L 285 488 Q 286 485 280 486 Z M 289 486 L 287 488 L 286 494 L 291 497 L 296 494 L 295 488 Q 294 485 289 486 Z M 299 486 L 300 491 L 304 488 Q 306 489 305 487 L 304 487 L 299 486 Z M 286 496 L 283 502 Q 286 503 288 500 Q 290 501 289 499 L 286 496 Z M 297 496 L 294 500 L 302 506 L 303 506 L 299 498 L 297 496 Z "></path><path d="M 215.5 480 Q 221.8 478.8 223 482.5 L 224 488.5 L 221 492.5 L 222.5 495 L 224 491 Q 227.8 489.5 227 492.5 L 228 499 L 225 499 L 225 505.5 L 223 504.5 Q 224.8 498.4 217.5 501 L 214 498.5 Q 212.8 494.8 216.5 496 L 216 497.5 L 217.5 500 Q 220.8 501.1 220 498.5 L 218.5 496 L 221 497 Q 221.8 492.3 217.5 491 Q 213.5 491.5 213 488.5 L 213 486.5 Q 212 481 215.5 480 Z M 218 481 L 214 485 L 219 490 Q 222 489 221 484 L 218 481 Z M 226 492 L 225 497 L 226 497 L 226 492 Z "></path><path d="M 168.5 487 Q 171.3 488.3 170 493.5 L 176 501.5 L 181 512 Q 183.7 510.9 183 513.5 L 192.5 525 L 209.5 528 L 217 533.5 Q 217.8 535.8 215.5 535 Q 214 531.5 212.5 534 L 197.5 531 L 189 527 Q 183.7 516 175 507.5 L 168 492.5 L 168.5 487 Z "></path><path d="M 29.5 495 Q 31.8 494.3 31 496.5 L 33 499.5 L 34 506 L 37.5 507 Q 38.8 504.8 43.5 506 L 47 508.5 L 37 516.5 L 39 525.5 L 41 528.5 L 39.5 529 L 30.5 522 L 17 529 L 20 517.5 L 22 515.5 L 21 513 L 13 508.5 L 13.5 507 L 24.5 507 L 25 505.5 L 29.5 495 Z M 30 501 L 28 507 L 31 507 L 32 506 L 30 501 Z M 32 508 L 28 509 L 25 513 L 27 518 L 30 519 L 34 516 L 32 508 Z M 38 508 L 35 509 L 36 513 L 42 509 L 38 508 Z M 19 509 L 19 511 L 22 512 L 24 511 Q 23 508 19 509 Z M 24 516 L 21 524 L 21 525 L 27 521 L 24 516 Z M 35 519 L 33 520 L 36 524 L 37 524 L 35 519 Z "></path><path d="M 245.5 505 Q 249.3 504.3 250 506.5 L 248.5 506 L 244 508.5 L 245 513 L 249.5 515 L 252 514 L 251 506.5 L 254 508.5 L 256.5 514 L 260 515 Q 259 511.2 261.5 510 Q 264.8 508.9 264 511.5 L 264 513.5 L 265 520.5 L 264 520.5 Q 264.8 518.3 262.5 519 L 261 522 L 255 522 L 255 519.5 L 259 516.5 L 254.5 514 L 249.5 517 L 247.5 517 L 244 513.5 L 242 507 L 245.5 505 Z M 263 511 L 261 513 L 262 515 L 263 515 L 263 511 Z M 260 518 L 258 521 L 260 520 L 260 518 Z "></path><path d="M 183.5 506 L 185 506.5 L 184 509 L 187 509.5 L 184.5 510 L 182 509 L 183.5 506 Z "></path><path d="M 158 512 L 163 513.5 L 160 514 L 160 518.5 L 163.5 523 L 167 522 Q 168.2 516 165 513.5 L 167.5 515 Q 169.8 514.3 169 516.5 L 170 520.5 L 168 524.5 L 170.5 528 L 172.5 525 L 172 526.5 L 171 529.5 L 173 533.5 L 171 534 Q 172.1 531.3 169.5 532 L 167.5 532 L 163.5 530 L 161.5 531 L 161.5 530 Q 163.5 527.2 168 528 L 165.5 524 Q 159.8 524.8 159 520.5 L 158 512 Z "></path><path d="M 135.5 514 L 136.5 516 Q 133.2 514.9 134 517.5 L 132 520.5 L 135 525 L 139 523.5 L 138 517 L 142 519.5 Q 143.3 524.8 140.5 526 L 138.5 527 L 137 526.5 L 139.5 534 L 142.5 527 L 145.5 526 Q 147.8 526.8 147 530.5 L 142.5 538 L 137.5 535 L 133.5 536 L 130 534 Q 128.9 531.3 131.5 532 L 136 531 L 135 527 L 133 527 Q 134.1 524.3 131.5 525 L 130 523.5 L 130 517 L 135.5 514 Z M 145 527 Q 141 528 142 534 L 145 532 L 145 527 Z M 134 532 Q 132 535 135 534 Q 136 536 137 534 L 134 532 Z "></path><path d="M 174 524 Q 177.3 522.7 176 527.5 L 173 529.5 L 174 524 Z "></path><path d="M 285.5 526 L 291.5 526 L 296 529.5 Q 297.3 535.8 293.5 537 L 288.5 537 L 288 535 L 286.5 535 Q 283.2 533.3 284 527.5 L 285.5 526 Z M 287 527 L 285 529 L 286 533 L 293 535 L 294 532 L 291 528 L 290 528 L 287 527 Z "></path><path d="M 219.5 534 L 220.5 536 Q 217.1 535.1 219 540.5 L 223 543 L 224 540.5 L 222 534.5 L 223.5 535 L 226 536.5 L 227 543 L 229.5 544 L 233.5 537 Q 236.3 538.3 235 543.5 L 234 546.5 L 234.5 548 L 231 549.5 L 229.5 552 Q 225.8 552.8 225 550.5 L 227 545 L 223.5 544 L 218.5 545 Q 214.8 543.8 216 537.5 L 219.5 534 Z M 228 548 L 226 550 L 229 551 Q 230 547 228 548 Z "></path><path d="M 303.5 535 L 304 537.5 L 301 541.5 L 304 549 L 301 547.5 L 298.5 543 Q 296.5 546 290.5 545 L 289 542 L 298 538.5 Q 297.3 536.3 299.5 537 L 301 536.5 L 299 540 Q 301.7 541.1 301 538.5 L 303.5 535 Z M 292 542 L 292 544 L 296 543 L 292 542 Z "></path><path d="M 341 544 L 344 544.5 L 341 546 L 341 544 Z "></path><path d="M 80 546 Q 83.3 544.9 82 549 Q 78.7 550.1 80 546 Z "></path><path d="M 341.5 547 L 344 547.5 Q 341.3 548.8 341.5 553 L 341 549.5 L 341.5 547 Z "></path><path d="M 75.5 553 L 79.5 554 L 80.5 553 L 88 553 L 87.5 555 L 76.5 555 Q 75.3 557.3 74 554.5 L 75.5 553 Z "></path><path d="M 55 555 L 61.5 555 L 62 557 L 55.5 557 L 55 555 Z "></path><path d="M 342.5 556 L 344 558.5 L 343 558.5 L 342.5 556 Z "></path><path d="M 13 559 L 17 559.5 L 13 561 L 13 559 Z "></path><path d="M 183.5 560 L 186 560.5 Q 186.5 563.5 179.5 562 L 177 563 Q 175.6 559 182.5 561 L 183.5 560 Z "></path><path d="M 156 561 L 162.5 561 L 163 563 L 156.5 563 L 156 561 Z "></path><path d="M 51.5 562 L 61 562.5 L 58.5 564 L 47.5 564 L 45.5 565 L 42.5 564 L 40.5 565 L 39.5 563 L 50.5 563 L 51.5 562 Z "></path><path d="M 90.5 562 L 94 563.5 L 88.5 565 L 88 563 L 90.5 562 Z "></path><path d="M 101.5 562 L 123.5 562 L 124.5 563 L 126.5 563 L 128.5 562 L 144 562 L 143.5 564 L 100.5 564 L 101.5 562 Z "></path><path d="M 16 563 L 34.5 563 L 35 565 L 16.5 565 L 16 563 Z "></path><path d="M 16.5 570 Q 19.5 571.5 16.5 573 L 13 571.5 L 16.5 570 Z "></path><path d="M 26.5 571 L 32 572 Q 33.1 574.7 30.5 574 L 25 572.5 L 26.5 571 Z "></path><path d="M 66.5 572 L 72 574 L 73.5 580 L 75.5 577 L 81 578 L 80 584 L 55.5 585 Q 52 583 56.5 581 Q 61 582 62 579.5 Q 61 574 64.5 573 L 66.5 572 Z M 67 579 Q 66 582 69 581 Q 70 578 67 579 Z M 65 580 L 66 582 Q 67 579 65 580 Z "></path><path d="M 340.5 580 L 344 580.5 L 340.5 581 L 340.5 580 Z "></path><path d="M 23.5 581 L 27 582 L 26.5 584 L 20 584 Q 18.8 581 22.5 582 L 23.5 581 Z "></path><path d="M 133 583 Q 136.3 581.9 135 586 Q 131.7 587.1 133 583 Z "></path><path d="M 168.5 586 Q 171.5 587.5 168.5 589 L 166.5 589 Q 163.9 589.7 165 587 L 168.5 586 Z "></path><path d="M 182.5 586 L 191.5 587 L 194.5 586 L 196.5 587 L 198.5 586 L 200.5 587 L 202.5 587 L 212.5 586 Q 215.5 587.5 212.5 589 L 210.5 588 L 191.5 588 L 189.5 589 L 188.5 588 L 179.5 588 L 178 588.5 Q 177.1 585.5 181.5 587 L 182.5 586 Z "></path><path d="M 344.5 589 L 346 593 Q 342.2 594.2 344.5 589 Z "></path><path d="M 340.5 590 L 341 592.5 L 340 592.5 L 340.5 590 Z "></path></svg>