<svg width="350" height="600" version="1.1" xmlns="http://www.w3.org/2000/svg" desc="Created with imagetracer.js version 1.2.5"><path d="M 287.5 4 L 304.5 4 L 305.5 5 L 307.5 5 L 310.5 4 L 312.5 5 L 314.5 4 L 318.5 5 Q 320.3 2.3 326.5 4 L 328.5 4 L 335 5 L 336 15.5 L 335 16.5 L 335 39.5 L 336 44.5 L 335 46.5 L 336 50.5 L 335 51.5 L 335 327.5 L 335 329.5 L 336 332.5 L 336 434.5 L 335 437.5 L 336 440.5 L 336 591.5 L 335 594 L 268.5 594 Q 267.3 596.3 262.5 595 L 257.5 594 L 254.5 595 L 243.5 594 L 241.5 595 L 237.5 594 L 236.5 595 L 210.5 595 L 207.5 594 L 205.5 594 L 201.5 595 L 200.5 594 L 140.5 594 L 137.5 595 L 103.5 595 L 102.5 596 L 99.5 595 L 98.5 596 L 87.5 596 L 85.5 596 L 5.5 596 L 5 595.5 L 5 584.5 L 5 582.5 L 6 578.5 L 6 497.5 L 6 495.5 L 6 478.5 Q 3.7 477.2 5 472.5 L 5 470.5 Q 6.5 465 4 463.5 L 5 462.5 L 5 453.5 L 5 451.5 L 5 439.5 L 4 438.5 L 5 437.5 L 5 419.5 L 4 416.5 L 5 414.5 L 4 410.5 L 5 407.5 L 4 404.5 L 5 401.5 L 5 399.5 L 5 389.5 L 4 388.5 L 5 387.5 L 5 360.5 L 6 358.5 L 5 357.5 L 5 313.5 L 4 312.5 L 5 309.5 L 4 293.5 L 5 292.5 L 5 210.5 L 5 208.5 Q 6.7 202.2 4 200.5 Q 6.5 199 5 193.5 L 4 191.5 L 5 189.5 L 4 187.5 L 5 184.5 L 4 182.5 L 5 180.5 L 4 175.5 L 5 172.5 L 4 171.5 L 4 162.5 L 4 160.5 L 5 155.5 L 4 150.5 L 4 148.5 L 5 146.5 L 4 144.5 L 4 142.5 L 5 131.5 L 4 130.5 L 4 64.5 L 5 61.5 L 4 60.5 L 4 26.5 Q 6.3 25.3 5 20.5 L 4 18.5 L 5 17.5 L 5 6 L 36.5 6 L 38.5 5 L 39.5 6 L 52.5 6 L 54.5 6 L 69.5 6 L 70.5 5 L 71.5 6 L 86.5 6 L 88.5 6 L 106.5 6 L 107.5 5 L 286.5 5 L 287.5 4 Z M 113 7 L 112 8 L 23 8 L 19 9 L 16 8 L 14 9 L 8 8 L 8 15 L 7 16 L 8 18 L 7 24 L 7 26 L 7 43 L 8 44 L 7 46 L 8 48 L 8 50 L 7 52 L 7 61 L 8 62 Q 6 67 10 66 L 23 83 L 136 246 L 139 246 L 144 242 L 143 239 L 143 230 L 144 229 L 143 225 Q 142 220 145 220 L 144 218 L 145 206 Q 148 199 156 198 Q 163 197 167 200 L 171 198 L 180 199 L 184 204 L 187 214 Q 188 219 185 221 L 186 240 L 196 247 L 198 242 L 217 218 Q 216 215 219 216 L 220 213 L 230 200 Q 229 197 232 198 L 232 196 L 236 193 L 236 191 L 268 148 Q 267 145 270 146 L 275 137 L 309 91 L 324 67 Q 326 63 331 63 L 332 57 L 331 54 Q 330 49 332 48 L 331 45 L 332 43 L 331 41 L 331 28 L 332 27 L 331 24 L 331 8 L 329 7 L 327 8 L 326 7 L 307 7 L 305 7 L 303 8 L 286 8 L 283 7 L 280 8 L 278 7 L 276 8 L 212 8 L 210 8 L 201 8 L 200 7 L 198 8 L 196 8 L 193 7 Q 188 6 187 8 L 182 7 Q 176 6 175 8 L 170 7 L 168 7 L 163 8 L 161 7 L 157 7 L 155 8 Q 153 5 147 7 L 144 8 L 142 7 L 139 8 L 136 7 L 134 8 L 132 7 L 130 8 L 125 7 L 123 7 L 119 8 L 117 8 L 113 7 Z M 329 66 L 283 132 L 205 238 L 210 240 L 285 135 L 331 67 L 329 66 Z M 8 67 L 7 70 L 10 76 L 17 84 L 38 115 L 38 117 L 51 134 L 57 145 L 123 240 L 126 238 L 57 138 Q 58 135 55 136 L 54 133 Q 41 117 31 99 L 16 79 L 16 77 L 8 67 Z M 332 69 L 300 118 L 213 241 L 217 245 L 219 242 Q 218 239 221 240 L 222 237 L 246 201 L 255 190 L 270 165 L 292 134 L 320 90 L 330 77 L 332 72 L 332 69 Z M 9 76 L 9 80 L 12 82 L 9 76 Z M 330 79 L 329 83 L 300 125 L 284 151 L 269 171 L 265 179 L 262 180 L 250 202 L 212 258 L 222 267 L 221 272 L 218 276 L 215 278 L 212 276 L 210 277 L 211 278 L 211 286 L 217 287 L 230 280 L 235 280 L 245 284 Q 247 288 249 284 L 249 286 L 253 285 L 256 286 L 258 283 L 258 285 L 263 284 L 266 283 L 278 283 L 279 284 L 290 283 L 294 281 L 302 281 L 312 287 Q 318 286 321 289 L 329 289 L 330 288 L 332 289 L 331 287 L 332 283 L 332 281 L 331 277 L 331 261 L 332 260 L 331 258 L 331 256 L 332 254 L 331 249 L 331 247 Q 329 240 332 239 L 332 176 L 331 175 L 332 170 L 331 169 L 331 97 L 331 95 L 332 93 Q 330 91 331 87 L 331 85 L 332 81 Q 333 78 330 79 Z M 8 82 L 8 85 L 8 94 L 7 95 L 8 98 L 7 100 L 8 102 L 7 105 Q 6 110 8 112 L 7 116 L 7 118 L 8 122 L 7 124 L 8 126 L 7 129 L 8 132 L 7 134 L 8 138 L 8 140 L 7 142 Q 6 146 8 148 L 8 296 L 7 299 L 9 300 L 10 299 L 27 299 L 28 298 L 33 299 L 34 298 L 52 297 L 63 293 L 68 295 L 76 295 L 79 293 Q 90 293 97 289 L 98 291 L 107 289 L 111 291 L 113 290 L 116 291 L 117 289 L 120 291 L 122 290 Q 121 280 125 275 L 118 281 L 108 274 L 109 271 L 121 260 L 117 253 L 114 251 L 115 247 L 8 82 Z M 14 84 L 15 89 L 17 90 L 14 84 Z M 18 90 L 18 94 L 32 115 L 34 116 L 34 114 L 18 90 Z M 35 116 L 34 118 Q 39 120 40 128 L 117 243 L 119 242 L 117 236 L 116 238 L 115 238 L 116 236 L 52 140 L 35 116 Z M 167 210 L 165 214 L 165 216 L 170 216 L 169 211 L 167 210 Z M 159 218 Q 157 220 153 219 L 148 224 L 148 226 L 148 227 Q 155 229 157 225 Q 161 227 170 226 L 174 226 Q 180 228 182 225 Q 184 226 183 223 L 176 218 L 159 218 Z M 161 228 L 161 231 L 163 230 L 164 232 Q 158 230 160 236 L 161 238 L 163 238 L 162 235 L 165 233 Q 167 226 161 228 Z M 176 228 L 175 229 Q 170 227 171 231 L 173 231 Q 174 233 172 232 L 169 236 L 172 235 Q 171 237 174 236 L 175 236 L 173 241 L 176 246 L 176 240 L 179 235 L 179 228 L 176 228 Z M 153 229 L 151 231 L 151 235 Q 155 236 154 240 L 159 239 L 154 235 L 155 233 Q 154 230 157 231 L 157 229 L 155 230 L 153 229 Z M 159 229 L 157 234 L 156 233 L 155 235 L 159 236 L 159 229 Z M 166 232 L 166 234 L 168 233 L 166 232 Z M 168 237 Q 166 240 165 238 L 159 241 L 163 242 L 163 240 L 165 241 L 167 240 L 171 242 Q 173 243 172 240 L 171 240 L 170 239 L 169 239 L 168 237 Z M 148 239 Q 147 245 143 246 Q 140 245 141 248 L 138 249 L 130 256 L 127 260 L 112 271 L 112 274 L 116 278 L 151 249 Q 147 246 148 239 Z M 127 240 L 126 242 L 128 241 L 127 240 Z M 157 240 L 157 245 L 160 246 L 161 249 L 164 249 L 163 244 L 162 246 L 160 243 L 159 243 L 159 242 L 157 240 Z M 202 240 L 202 242 Q 207 241 210 245 L 211 245 Q 209 240 202 240 Z M 185 241 L 181 243 L 180 246 L 193 256 L 203 261 Q 207 267 214 270 L 216 273 L 219 269 L 219 266 L 198 251 Q 195 252 196 249 L 193 248 L 185 241 Z M 131 242 L 121 249 L 125 251 Q 126 254 124 253 L 124 254 Q 126 253 125 256 L 125 257 L 135 249 L 131 242 Z M 121 244 L 119 246 L 121 246 L 121 244 Z M 165 244 L 165 245 L 167 245 L 165 244 Z M 168 244 L 168 247 Q 166 248 169 249 Q 174 249 174 246 L 168 244 Z M 202 244 L 198 249 L 208 255 L 209 256 Q 210 253 208 254 L 206 251 L 209 251 L 207 247 L 202 244 Z M 212 245 L 213 249 Q 216 250 215 248 L 212 245 Z M 174 247 L 174 249 L 171 251 L 168 252 Q 167 254 170 253 Q 171 256 169 255 L 169 256 Q 172 255 171 258 Q 167 259 168 257 L 167 257 L 168 264 L 168 263 L 169 263 Q 170 267 168 266 L 166 266 Q 163 265 164 268 L 166 269 L 163 270 L 176 270 L 182 261 L 184 262 L 183 259 L 181 260 L 181 259 L 178 258 L 176 255 L 176 251 L 176 249 Q 177 246 174 247 Z M 157 248 L 157 253 Q 155 254 156 259 Q 160 260 157 262 L 156 259 L 153 263 L 156 265 Q 155 262 158 263 L 160 267 L 160 261 L 162 262 L 161 264 L 163 264 L 162 266 L 165 265 L 164 259 L 166 259 L 165 254 L 167 254 L 163 252 L 163 257 L 161 254 Q 162 250 159 251 L 159 249 L 158 251 L 157 248 Z M 165 248 L 165 250 L 167 249 L 165 248 Z M 180 250 L 179 253 L 184 256 L 188 260 L 189 259 Q 191 260 190 258 L 180 250 Z M 151 251 L 151 253 Q 148 252 149 255 L 144 258 L 145 260 Q 151 260 153 257 Q 155 250 151 251 Z M 210 251 Q 208 254 211 253 L 210 251 Z M 142 259 L 139 261 Q 136 262 137 266 Q 143 267 145 264 L 142 259 Z M 193 259 L 189 264 L 189 266 L 192 267 Q 196 268 194 263 L 197 264 L 197 262 L 193 259 Z M 186 263 L 184 264 L 181 268 Q 177 267 179 271 L 178 271 L 178 273 L 177 278 L 179 277 L 181 279 L 177 280 L 179 280 L 178 285 L 176 283 L 174 285 L 176 287 L 179 286 Q 181 287 180 284 L 185 281 L 188 282 L 190 281 L 185 280 L 185 275 L 187 275 L 187 277 Q 191 278 193 276 L 194 278 L 196 275 L 191 276 Q 188 277 189 274 L 185 273 L 187 270 L 188 273 L 188 271 L 194 272 Q 195 268 189 270 L 185 268 Q 182 269 183 267 L 186 265 L 186 263 Z M 149 264 L 148 266 L 145 266 L 139 269 L 137 272 L 140 272 L 144 269 L 146 270 Q 150 269 148 275 L 149 275 Q 147 269 151 270 L 149 278 L 149 279 Q 151 280 150 277 Q 153 276 152 280 L 150 280 Q 149 282 152 281 L 154 281 L 154 283 L 157 284 L 161 278 L 157 271 L 156 273 L 155 271 L 153 275 L 155 275 L 154 279 L 153 279 Q 154 275 151 276 L 152 273 Q 156 271 152 269 L 154 268 L 149 264 Z M 197 265 L 196 267 L 199 268 L 201 268 L 197 265 Z M 159 268 L 159 270 L 161 269 L 159 268 Z M 204 269 L 196 282 L 188 287 Q 184 286 185 289 L 190 291 L 192 288 Q 195 287 196 290 Q 194 294 198 293 L 200 298 Q 203 299 199 301 Q 200 305 198 304 L 194 296 L 181 290 L 175 298 L 169 297 Q 168 301 173 299 L 173 302 L 170 303 L 169 306 L 172 311 L 177 313 L 179 312 Q 181 308 183 313 L 183 317 L 190 317 L 190 320 L 198 325 L 202 324 Q 207 318 209 309 L 208 306 L 209 304 Q 210 299 208 298 L 209 296 L 208 293 L 209 290 L 208 288 L 209 285 L 207 275 L 204 269 Z M 195 270 Q 194 274 199 272 Q 200 268 195 270 Z M 135 271 L 133 274 L 136 272 L 135 271 Z M 161 272 L 162 274 Q 163 271 161 272 Z M 145 273 L 145 275 L 147 274 L 145 273 Z M 172 273 L 167 275 Q 163 274 164 277 L 173 274 L 172 273 Z M 130 274 L 125 282 L 125 301 L 126 302 L 125 305 L 126 307 L 125 310 L 126 316 L 135 327 L 141 326 L 151 319 L 152 317 L 165 307 L 167 304 L 166 301 Q 163 302 164 299 L 167 296 L 172 295 L 175 296 L 176 294 L 169 292 Q 165 290 166 285 L 162 283 L 162 291 L 158 286 L 156 287 L 152 286 L 150 286 L 153 289 L 156 288 L 157 291 L 156 294 L 153 292 L 149 301 L 145 300 L 146 297 L 146 294 L 144 295 L 140 300 L 140 309 L 139 309 Q 136 308 137 303 L 136 305 L 133 306 Q 132 302 135 300 L 143 293 Q 146 294 145 292 L 147 292 L 147 290 L 140 292 Q 137 297 135 294 Q 138 288 146 288 Q 147 285 145 286 Q 143 282 142 285 L 137 281 L 135 281 L 130 274 Z M 142 274 Q 141 277 144 276 Q 145 273 142 274 Z M 176 275 L 171 281 L 173 280 L 174 282 Q 176 281 174 280 L 176 280 L 176 275 Z M 135 276 L 136 278 L 139 277 L 135 276 Z M 145 278 L 142 280 L 141 282 L 147 280 Q 148 277 145 278 Z M 148 282 L 148 283 L 150 283 L 148 282 Z M 173 282 L 171 284 L 174 284 L 173 282 Z M 231 282 L 228 283 Q 224 285 229 287 L 229 285 Q 232 284 231 287 L 234 286 L 233 289 L 235 289 L 237 285 L 231 282 Z M 294 283 L 291 287 L 291 286 L 289 285 L 288 288 Q 295 287 299 290 L 301 290 L 301 293 L 299 292 Q 296 291 297 294 L 296 294 L 297 292 L 295 291 L 294 294 L 294 293 Q 295 289 291 291 L 288 295 L 287 292 L 289 292 L 288 290 L 284 292 Q 280 290 285 288 L 287 289 L 288 287 L 287 286 L 285 286 L 278 287 L 276 287 L 275 285 L 271 288 L 275 289 L 279 288 L 281 288 L 281 291 L 278 292 L 276 292 L 273 290 L 263 290 L 262 289 L 258 290 L 255 288 L 253 289 L 250 288 L 246 295 L 250 297 L 264 297 L 265 298 L 270 297 Q 271 300 278 298 L 280 298 L 284 297 Q 288 296 290 298 L 292 297 L 300 298 L 302 298 L 303 297 L 329 297 L 330 296 L 332 297 L 331 292 L 323 292 L 313 290 L 306 287 L 304 287 L 303 286 Q 301 281 300 284 L 295 283 L 295 285 L 294 283 Z M 169 284 L 169 287 L 172 288 L 171 287 Q 172 283 169 284 Z M 264 286 L 264 288 L 266 287 L 268 288 L 270 288 L 270 286 L 264 286 Z M 228 287 L 226 290 L 228 289 L 228 287 Z M 213 288 Q 210 289 211 296 L 213 299 L 214 298 L 229 298 L 232 295 L 231 297 L 235 298 L 238 297 Q 241 298 240 296 L 241 296 L 241 297 L 246 297 L 245 294 L 244 294 Q 245 296 242 295 L 241 292 L 240 294 L 239 292 L 237 296 L 236 295 L 234 295 L 235 292 L 234 292 Q 230 291 231 294 L 228 296 L 226 296 L 223 295 L 222 297 Q 219 295 220 290 L 219 292 L 218 288 L 216 289 L 213 288 Z M 244 288 L 241 291 L 243 291 L 244 292 L 244 288 Z M 149 289 Q 148 293 151 292 Q 152 288 149 289 Z M 247 289 L 245 293 L 247 292 L 247 289 Z M 226 291 Q 224 294 227 293 L 226 291 Z M 100 292 Q 97 293 98 297 L 97 298 L 93 294 L 92 296 L 93 297 Q 89 298 90 296 L 89 296 Q 90 298 88 297 L 86 297 L 85 295 L 83 298 L 77 297 L 73 298 L 65 296 L 44 300 L 52 300 L 53 303 L 44 303 L 43 302 L 41 303 L 29 303 Q 23 300 14 301 L 12 301 L 7 302 L 8 304 L 18 304 L 18 306 L 9 306 L 8 308 L 8 310 Q 7 312 15 311 L 19 311 L 21 312 L 34 313 L 33 314 L 10 314 Q 8 312 7 315 L 8 320 L 33 321 L 28 323 Q 22 325 21 322 L 14 323 L 11 322 Q 6 321 8 326 L 20 326 L 21 325 Q 23 324 22 327 L 16 328 L 9 328 L 8 331 L 8 333 Q 5 340 13 338 L 12 340 L 10 339 L 8 342 L 11 342 L 15 342 L 21 337 L 32 335 L 34 336 Q 43 334 49 328 L 53 328 L 55 328 L 57 327 L 67 330 L 79 339 L 85 339 L 86 342 L 90 343 Q 97 344 101 341 L 111 341 L 113 344 Q 115 343 114 346 L 123 351 Q 127 349 126 353 L 123 355 Q 111 354 104 356 L 105 358 Q 109 357 108 360 L 104 361 L 101 360 L 100 361 L 80 361 L 79 362 L 70 362 L 69 360 L 83 359 L 83 358 L 73 358 L 72 359 L 63 360 L 66 361 L 68 360 Q 70 365 65 363 L 62 364 L 54 362 L 53 363 L 21 363 L 19 363 Q 11 364 12 361 L 15 360 L 19 361 L 19 359 L 8 359 L 8 364 L 20 364 L 21 367 L 11 367 L 10 366 L 8 367 L 8 373 L 13 372 L 21 372 L 22 373 L 31 373 L 31 375 L 22 375 L 21 374 L 12 374 L 11 375 Q 6 374 8 379 L 16 380 Q 15 382 14 380 Q 9 379 8 382 Q 6 388 10 388 Q 13 389 12 396 L 14 395 L 13 392 L 18 393 Q 22 392 20 397 L 24 396 L 27 395 L 35 397 L 56 397 Q 57 400 63 398 L 64 400 Q 63 402 67 401 L 66 400 Q 65 397 70 398 L 71 401 L 73 400 Q 77 399 79 401 L 80 400 L 87 400 L 87 403 L 81 403 L 79 403 L 77 402 Q 75 404 71 403 L 69 403 Q 62 405 63 401 L 49 401 L 48 402 L 43 401 L 39 401 L 35 402 Q 32 401 33 404 L 30 403 L 24 406 L 27 407 L 28 406 L 36 406 L 35 404 Q 36 401 38 403 Q 42 402 40 406 L 43 406 L 43 409 L 47 410 L 56 410 L 57 409 Q 58 411 63 410 L 64 412 L 40 412 L 38 412 L 36 413 L 34 410 L 42 410 L 23 409 Q 22 413 29 411 L 30 415 L 34 416 L 58 417 L 60 417 L 64 416 Q 65 418 70 417 L 72 419 L 86 419 L 85 421 L 73 421 L 72 424 L 42 425 L 50 425 L 52 427 L 59 429 L 61 429 L 83 429 L 84 428 L 87 429 L 88 432 L 89 431 L 95 431 L 93 435 L 96 435 L 99 434 L 98 432 L 98 421 L 106 414 Q 108 415 107 413 L 112 409 L 118 403 L 119 390 L 125 385 L 124 383 L 127 377 L 128 367 L 125 366 L 125 364 L 129 364 L 130 366 L 134 364 L 137 357 Q 138 352 136 351 Q 135 345 139 344 Q 137 337 140 336 L 140 330 L 138 330 L 136 330 L 131 328 L 125 321 L 122 310 L 122 308 Q 123 302 122 302 L 104 302 L 101 303 L 96 302 L 94 302 L 84 302 L 83 303 L 55 303 L 54 301 L 57 300 L 68 300 L 69 301 L 70 300 L 80 300 L 81 299 L 90 299 L 91 300 Q 92 298 98 299 L 100 299 L 103 300 L 111 300 L 112 299 Q 116 298 118 300 L 121 299 Q 123 300 122 296 L 122 294 L 119 293 L 119 295 L 118 294 L 117 294 Q 113 293 114 296 L 113 296 L 113 293 L 107 293 L 104 297 L 103 296 L 102 296 L 99 295 L 101 295 L 103 294 Q 104 296 105 294 L 100 292 Z M 94 293 L 94 295 L 97 295 Q 98 291 94 293 Z M 224 293 Q 222 296 225 295 L 224 293 Z M 80 296 L 80 297 L 82 297 L 80 296 Z M 313 299 L 312 300 L 251 300 L 250 301 L 248 300 L 246 301 L 242 300 L 240 300 L 226 300 L 218 302 L 211 301 L 211 312 L 205 325 L 202 327 Q 195 329 193 325 Q 194 321 189 323 L 187 321 Q 186 318 182 319 L 172 313 L 168 308 L 164 311 L 166 322 L 166 329 L 164 329 L 163 323 L 164 321 L 163 312 L 161 313 L 159 316 Q 154 322 146 325 L 142 333 L 142 345 L 155 354 L 162 362 Q 165 361 164 364 L 159 363 Q 156 362 157 359 L 154 356 Q 151 357 152 355 L 146 351 L 142 346 L 139 348 L 142 355 L 142 359 L 145 359 L 149 358 L 153 364 L 145 362 L 139 363 Q 136 367 131 367 L 129 373 Q 132 371 140 372 L 142 372 Q 147 370 146 374 L 145 373 L 138 373 L 137 375 L 131 376 L 126 382 L 128 385 L 127 387 L 122 391 Q 120 403 125 409 L 124 410 L 124 422 L 125 422 Q 123 415 127 416 L 128 419 L 129 438 L 131 441 L 130 445 L 133 462 L 133 472 L 137 488 L 138 498 L 144 500 Q 146 501 145 499 L 150 496 L 156 496 L 164 502 L 176 503 L 177 504 L 188 500 L 201 499 L 204 497 L 215 496 L 217 495 L 216 491 L 216 481 L 217 480 L 216 478 L 217 475 L 214 473 L 217 471 L 221 472 L 218 473 L 218 474 Q 221 473 220 476 L 217 478 L 222 478 Q 223 481 221 480 L 219 483 L 223 482 L 222 485 L 220 484 L 219 487 L 227 484 L 224 473 L 223 459 L 221 457 L 219 446 L 219 437 L 217 427 L 217 405 L 216 405 L 212 394 L 205 389 L 201 390 Q 198 391 199 388 L 202 387 L 211 390 L 214 395 L 214 397 L 216 397 L 217 404 L 218 404 L 218 396 L 217 395 Q 216 390 218 389 Q 219 385 217 384 Q 214 385 215 383 L 209 377 Q 204 376 203 378 L 200 377 L 192 379 L 182 387 Q 179 388 180 385 L 184 384 L 191 378 L 197 376 L 200 375 L 202 376 L 204 375 Q 210 374 212 377 L 213 378 L 211 375 L 211 372 L 208 372 Q 209 369 206 370 L 206 367 L 203 367 L 204 365 L 202 363 L 200 363 Q 201 367 199 366 L 196 362 L 201 360 L 206 362 L 204 357 L 205 355 L 204 352 L 200 353 L 202 350 L 197 347 Q 194 347 194 352 L 192 353 Q 191 348 194 348 Q 193 345 197 346 L 199 343 Q 200 338 197 338 L 197 334 L 194 330 L 198 328 L 201 341 Q 200 347 203 346 L 207 353 L 208 363 L 212 370 L 211 372 L 215 374 L 220 384 L 220 398 L 225 397 L 230 398 L 233 405 L 244 417 L 243 420 L 245 420 L 246 425 L 245 434 L 240 441 Q 241 445 239 447 L 240 451 L 239 458 L 243 457 L 241 456 L 242 454 L 252 454 L 255 455 Q 260 457 262 454 Q 268 453 271 456 L 276 456 L 272 455 L 273 453 L 289 453 L 292 454 L 292 451 L 305 450 L 307 447 L 313 442 L 319 442 L 324 445 L 325 449 L 327 448 L 332 449 Q 334 448 333 443 L 327 442 L 325 442 Q 319 444 320 440 L 322 440 L 316 438 L 314 439 L 304 438 L 306 433 L 303 434 L 291 433 L 289 432 L 290 430 L 299 430 Q 300 432 301 430 L 299 429 L 296 428 L 294 429 L 292 426 L 295 425 L 301 427 L 306 424 L 311 426 Q 315 427 316 424 L 319 425 L 322 419 L 326 416 Q 328 419 333 418 L 332 416 L 333 411 L 333 379 L 332 378 L 333 376 L 332 317 L 330 315 L 330 314 L 332 314 L 332 300 L 327 299 L 325 300 L 321 299 L 318 300 L 313 299 Z M 52 331 Q 50 333 46 332 Q 43 336 37 337 Q 32 339 35 341 Q 33 343 28 343 L 34 344 L 37 341 L 44 340 L 46 340 L 53 335 Q 56 336 55 334 L 57 334 Q 60 335 61 333 Q 58 330 52 331 Z M 33 338 L 31 340 L 33 340 L 33 338 Z M 23 339 L 19 342 Q 16 341 17 344 L 28 340 L 23 339 Z M 84 342 L 83 345 L 85 346 L 84 342 Z M 101 344 L 99 347 L 99 348 L 101 347 L 101 344 Z M 106 344 L 105 347 L 107 348 L 106 344 Z M 12 345 L 12 347 L 14 346 L 12 345 Z M 55 345 L 51 347 L 49 350 L 48 349 L 47 349 Q 44 348 45 351 L 50 351 L 55 347 Q 58 348 57 346 L 55 345 Z M 61 345 L 59 347 L 62 348 L 65 348 L 61 345 Z M 92 345 L 91 347 L 94 348 L 94 346 L 92 345 Z M 98 345 L 97 346 Q 94 345 95 348 L 98 347 L 98 345 Z M 110 345 L 108 348 L 110 347 L 110 345 Z M 37 346 L 33 351 L 34 352 L 37 348 L 37 346 Z M 8 348 L 8 349 L 10 349 L 8 348 Z M 30 348 L 28 351 L 30 350 L 30 348 Z M 27 349 L 25 352 L 27 351 L 27 349 Z M 71 350 Q 70 353 73 352 Q 74 349 71 350 Z M 109 350 L 108 351 Q 105 350 106 353 L 108 352 L 110 353 Q 112 354 111 351 L 109 350 Z M 31 351 L 29 355 L 31 354 L 31 351 Z M 25 352 L 22 355 Q 21 357 24 356 L 25 356 L 24 361 L 31 360 L 34 361 L 37 360 L 39 361 L 47 361 L 48 360 L 52 361 L 57 360 L 36 359 L 34 357 L 31 359 L 29 359 L 26 358 L 28 353 L 26 354 L 25 352 Z M 39 352 Q 40 355 38 354 L 36 354 L 37 355 L 42 355 Q 44 351 39 352 Z M 82 352 L 77 355 L 77 356 L 82 354 L 82 352 Z M 60 359 L 58 361 L 60 361 L 60 359 Z M 222 400 L 220 402 L 220 419 L 222 422 L 223 421 L 240 421 L 242 420 L 230 406 L 229 402 L 226 400 L 222 400 Z M 16 402 L 16 404 L 18 403 L 16 402 Z M 20 405 L 21 407 L 23 406 L 20 405 Z M 11 406 L 9 408 L 11 411 Q 12 408 16 409 L 17 411 L 18 409 Q 16 405 11 406 Z M 120 406 L 113 411 L 111 414 L 106 418 L 104 421 L 121 421 L 122 420 L 121 416 Q 119 409 122 408 L 120 406 Z M 22 409 L 20 411 L 22 411 L 22 409 Z M 22 418 L 21 421 L 22 421 L 22 418 Z M 8 421 L 8 423 L 12 424 L 14 423 L 8 421 Z M 324 421 L 324 425 L 327 424 L 327 426 L 329 425 Q 332 424 331 427 L 332 427 Q 333 423 331 422 L 329 423 Q 326 424 327 421 L 324 421 Z M 240 422 Q 242 425 241 433 L 242 433 L 242 423 L 240 422 Z M 22 423 L 21 426 L 25 426 Q 27 422 22 423 Z M 103 423 L 101 425 L 102 434 L 107 434 Q 106 431 109 432 L 110 433 Q 109 429 112 430 L 114 434 L 114 431 Q 116 428 117 431 L 116 434 L 117 435 L 120 434 L 119 432 L 123 434 L 123 431 L 123 429 L 122 424 L 118 423 L 108 423 L 107 424 L 103 423 Z M 225 423 L 224 428 L 225 428 L 225 423 Z M 228 423 L 228 433 L 229 435 L 230 435 L 229 432 L 230 425 L 233 426 L 233 435 L 235 435 L 234 430 Q 236 427 237 430 L 236 432 Q 235 434 238 433 L 238 423 L 228 423 Z M 34 424 L 34 425 L 38 425 L 34 424 Z M 126 424 L 125 443 L 124 444 L 125 446 L 124 448 L 124 465 L 123 466 L 124 469 Q 125 473 123 475 L 123 486 L 124 488 L 128 490 L 128 486 L 132 487 L 133 490 L 134 490 L 133 481 L 132 481 L 129 480 L 127 477 L 130 478 L 133 478 L 132 474 L 127 475 Q 126 472 129 473 L 131 473 Q 133 467 130 466 L 131 464 Q 129 462 130 457 L 128 453 L 128 440 L 127 439 L 128 436 Q 125 432 126 424 Z M 26 426 L 26 427 L 28 427 L 26 426 Z M 12 427 L 9 429 L 16 429 Q 17 425 12 427 Z M 306 427 L 306 429 L 308 430 Q 309 426 306 427 Z M 315 429 L 316 432 L 318 431 Q 319 428 315 429 Z M 42 430 L 37 431 L 37 432 Q 45 433 49 431 L 42 430 Z M 8 431 L 8 433 L 15 433 L 15 432 L 14 432 L 8 431 Z M 20 431 L 20 432 L 28 432 L 20 431 Z M 30 431 L 30 432 L 34 432 L 30 431 Z M 322 433 L 322 434 L 326 434 L 322 433 Z M 329 433 L 329 434 L 332 434 L 329 433 Z M 30 434 L 30 435 L 34 435 L 30 434 Z M 19 435 L 19 436 L 21 436 L 19 435 Z M 23 437 L 23 439 L 25 438 L 23 437 Z M 31 437 L 32 439 L 34 438 L 31 437 Z M 39 437 Q 36 441 40 440 L 41 440 L 40 445 Q 41 447 37 446 L 37 444 L 35 447 L 36 448 L 43 448 L 43 451 L 46 451 Q 49 452 47 448 Q 53 449 57 447 L 53 445 L 44 446 L 44 443 L 49 443 L 49 438 L 47 437 L 43 438 L 39 437 Z M 55 438 L 53 440 L 56 440 Q 57 437 55 438 Z M 324 438 L 324 440 L 330 440 L 330 438 L 324 438 Z M 8 439 L 8 442 L 17 442 Q 20 441 17 439 L 13 440 L 8 439 Z M 108 439 L 107 445 L 108 469 L 111 471 L 109 474 L 110 477 L 109 481 L 110 492 L 113 495 L 116 494 L 118 495 L 126 494 L 120 486 L 121 482 L 121 458 L 122 455 L 121 452 Q 124 448 122 440 L 121 440 L 118 439 L 113 440 L 108 439 Z M 26 440 Q 25 443 28 442 Q 29 439 26 440 Z M 34 441 L 31 443 L 34 444 L 36 444 Q 37 440 34 441 Z M 65 441 L 63 443 L 65 443 L 65 441 Z M 69 441 L 68 443 L 73 442 L 75 443 L 74 445 L 67 445 L 66 447 L 68 446 L 70 447 L 99 447 L 100 448 L 102 448 Q 101 451 104 450 L 105 444 L 104 441 L 100 442 L 92 441 L 90 441 L 88 442 L 69 441 Z M 229 442 L 225 443 L 226 448 L 225 451 L 226 453 L 224 456 L 226 458 L 226 471 L 230 485 L 220 492 L 221 493 L 236 493 Q 235 489 238 488 L 239 494 Q 237 498 236 495 Q 224 494 218 498 L 221 502 L 228 508 L 227 510 L 222 512 L 213 511 L 207 507 L 200 505 L 193 505 L 184 508 Q 172 510 166 506 L 148 513 L 134 513 L 132 510 L 141 504 Q 142 501 138 502 L 135 497 L 132 498 L 130 498 L 128 497 L 109 497 L 107 496 L 107 485 L 107 483 L 106 476 L 19 476 L 18 477 L 8 477 L 8 531 L 9 532 L 8 534 L 9 536 L 8 540 L 9 546 L 8 549 Q 7 554 9 556 L 8 558 L 8 593 L 21 593 L 23 594 L 27 594 Q 31 595 33 593 L 92 593 L 93 592 L 95 593 L 99 592 L 137 592 L 138 591 L 139 592 L 158 592 L 160 592 L 200 592 L 201 591 L 205 592 L 208 591 L 211 592 L 213 592 Q 217 593 219 591 L 224 592 L 226 592 L 230 591 L 234 592 L 238 591 L 240 592 Q 244 593 246 591 L 249 592 L 251 591 L 254 592 L 258 591 L 261 592 Q 262 590 267 591 L 269 591 L 271 592 Q 275 593 277 591 L 279 592 L 282 591 L 285 592 L 287 592 L 291 591 L 331 591 L 331 581 L 332 580 Q 330 572 331 562 L 331 558 L 333 551 L 332 548 L 332 486 L 333 485 L 333 474 L 314 474 L 313 475 L 312 474 L 301 474 L 299 474 L 297 475 L 295 474 L 281 474 L 280 475 L 241 475 L 239 477 L 239 487 L 237 485 L 237 483 L 237 469 L 236 468 L 236 455 L 237 453 L 237 451 L 237 442 L 229 442 Z M 12 444 L 8 446 L 24 446 L 25 444 L 23 445 L 19 444 L 16 445 L 12 444 Z M 29 444 L 27 446 L 29 446 L 29 444 Z M 311 445 L 312 450 L 310 451 L 310 452 L 314 452 L 318 449 Q 321 450 320 447 L 311 445 Z M 33 446 L 30 448 L 9 448 L 8 450 L 24 450 L 25 449 L 27 450 L 33 449 L 34 447 L 33 446 Z M 32 451 L 24 453 L 20 452 L 18 453 L 10 452 L 9 454 L 25 454 L 26 453 L 30 454 L 32 453 L 32 451 Z M 67 452 L 66 453 L 53 453 L 53 454 L 72 454 L 69 452 L 67 452 Z M 38 453 L 38 454 L 41 454 L 38 453 Z M 45 453 L 45 454 L 51 454 L 45 453 Z M 91 453 L 91 454 L 98 454 L 98 456 L 102 454 Q 104 453 103 457 L 104 457 L 104 453 L 91 453 Z M 330 453 L 326 454 L 327 456 L 333 456 Q 335 452 330 453 Z M 77 455 L 76 456 L 63 457 L 83 457 L 82 455 L 80 456 L 77 455 Z M 295 455 L 295 456 L 299 457 L 301 456 L 295 455 Z M 311 455 L 311 456 L 313 456 L 311 455 Z M 19 456 L 16 458 L 19 458 L 19 456 Z M 35 456 L 35 458 L 38 458 L 35 456 Z M 44 456 L 44 458 L 47 458 L 44 456 Z M 56 456 L 56 458 L 61 458 L 61 456 L 56 456 Z M 250 456 L 247 458 L 251 458 L 250 456 Z M 281 456 L 281 457 L 283 457 L 281 456 Z M 285 456 L 285 457 L 291 457 L 285 456 Z M 320 456 L 315 459 L 320 460 L 321 458 Q 322 455 320 456 Z M 24 457 L 22 460 L 26 459 Q 27 456 24 457 Z M 265 457 L 264 459 L 274 459 L 265 457 Z M 305 458 L 305 459 L 308 459 L 305 458 Z M 78 459 L 77 460 L 68 460 L 68 461 L 89 461 L 90 460 L 92 461 L 94 461 L 96 460 L 97 461 L 105 461 L 105 459 L 78 459 Z M 284 459 L 284 460 L 286 460 L 284 459 Z M 240 460 L 239 462 L 243 463 L 244 462 L 258 462 L 249 461 L 248 460 L 243 461 L 240 460 Z M 293 461 L 293 462 L 302 462 L 293 461 Z M 275 462 Q 274 464 278 463 L 280 463 L 282 464 L 284 463 L 275 462 Z M 327 462 L 326 463 L 306 463 L 305 464 L 303 463 L 302 464 L 286 464 L 286 465 L 313 465 L 314 464 L 332 464 L 327 462 Z M 11 463 L 11 464 L 19 464 L 11 463 Z M 80 463 L 71 465 L 80 465 L 80 463 Z M 81 463 L 81 465 L 86 465 L 86 464 L 85 464 L 81 463 Z M 9 466 Q 8 468 12 468 Q 13 465 9 466 Z M 297 467 L 296 468 L 287 468 L 285 468 Q 283 470 279 469 L 275 469 Q 271 466 263 468 L 259 468 Q 252 466 251 469 L 242 469 L 241 468 L 240 472 L 246 471 L 250 471 Q 254 470 256 472 L 259 471 L 261 471 L 264 472 L 266 472 L 268 471 L 270 472 L 278 472 L 279 471 L 281 472 L 283 471 L 285 472 L 333 472 L 333 467 L 304 467 L 301 468 L 297 467 Z M 63 469 L 61 470 L 59 470 L 18 470 L 17 471 L 15 470 L 8 470 L 8 473 Q 9 475 14 474 L 16 474 L 32 474 L 33 473 L 38 474 L 41 473 L 45 474 Q 49 475 51 473 L 56 474 L 58 474 L 61 473 L 63 473 L 65 474 L 70 473 L 72 473 L 74 474 L 76 473 L 106 473 L 105 469 L 91 470 L 88 469 L 86 470 Q 79 472 78 469 Q 73 468 72 470 L 63 469 Z M 151 498 Q 145 506 135 510 L 140 511 L 141 510 L 150 510 L 163 505 L 157 500 L 151 498 Z M 207 499 L 204 501 Q 201 500 202 503 L 215 509 L 220 510 L 224 509 Q 226 510 225 508 L 216 499 L 207 499 Z "></path><path d="M 147 17 L 177.5 17 L 178.5 18 L 180.5 17 L 182 19.5 L 180.5 21 L 174 21 L 173 23.5 L 174 24.5 L 174 34 L 177.5 33 L 179.5 33 Q 183.3 31.8 182 35.5 Q 180.3 39.8 178.5 37 L 155.5 37 L 154.5 36 L 153.5 37 L 147 37 Q 145.2 32.1 151.5 34 L 153.5 34 L 156 32.5 L 156 21.5 L 154.5 20 L 148.5 21 L 147 17 Z M 161 20 L 161 34 L 163 33 L 168 34 L 168 21 L 167 20 L 164 21 L 161 20 Z "></path><path d="M 238.5 63 L 247.5 63 L 256 68.5 Q 261 72.5 261 81.5 L 255 94 L 246.5 99 L 237.5 100 Q 234.5 98.5 237.5 97 L 246 93 Q 249 89.8 249 82.5 L 243.5 75 Q 240.2 71.8 232.5 73 L 229.5 74 L 224 78.5 L 222.5 81 Q 220.3 80.3 221 76.5 L 230.5 66 L 238.5 63 Z M 237 66 L 231 68 L 229 71 L 233 70 Q 241 68 245 71 Q 251 74 252 84 L 252 86 Q 251 93 246 96 L 247 97 L 251 95 L 255 91 L 257 84 Q 257 76 254 72 L 251 68 L 246 66 L 237 66 Z "></path><path d="M 159.5 255 L 159 256.5 L 158.5 258 L 158 256.5 L 159.5 255 Z "></path><path d="M 173.5 258 L 177 259.5 L 176.5 261 L 175.5 259 L 175 263 Q 172 262 173 265 L 170.5 265 L 171 263.5 L 173 260.5 Q 170.8 259.3 173.5 258 Z "></path><path d="M 168.5 259 Q 170.8 258.3 170 260.5 L 168.5 259 Z "></path><path d="M 157.5 275 L 159 278.5 L 158 278.5 L 157.5 275 Z "></path><path d="M 250.5 289 L 251 291 L 249 290.5 L 250.5 289 Z "></path><path d="M 304.5 290 L 305 292 L 302 291.5 L 304.5 290 Z "></path><path d="M 257.5 292 L 258 294.5 L 256 295.5 L 257.5 292 Z "></path><path d="M 260.5 292 L 260 293.5 L 259.5 295 L 259 293.5 L 260.5 292 Z "></path><path d="M 291.5 292 L 291 293.5 L 290.5 295 L 290 293.5 L 291.5 292 Z "></path><path d="M 267.5 293 L 265.5 296 L 267.5 293 Z "></path><path d="M 281.5 293 L 282 294.5 L 280 295.5 L 281.5 293 Z "></path><path d="M 284.5 293 L 285 295 L 283 294.5 L 284.5 293 Z "></path><path d="M 108 294 L 110 294.5 L 108 295.5 L 108 294 Z "></path><path d="M 251 294 L 253.5 295 L 255 294.5 L 253.5 296 L 251 295.5 L 251 294 Z "></path><path d="M 27.5 304 L 30.5 305 L 32.5 305 Q 36.9 303.5 36 306.5 Q 34.8 309.3 33.5 307 L 27 307 L 27.5 304 Z "></path><path d="M 218.5 304 L 225.5 305 L 227.5 304 L 226.5 306 Q 218.3 304.3 214.5 307 L 213.5 305 L 218.5 304 Z "></path><path d="M 317.5 304 L 327 305 Q 328.1 307.7 325.5 307 L 321.5 306 L 320.5 307 L 299.5 307 L 298.5 308 L 296.5 308 L 269 307 Q 267.9 303.5 275.5 305 L 276.5 306 L 296.5 306 L 297.5 305 L 316.5 305 L 317.5 304 Z "></path><path d="M 42.5 305 L 50.5 305 L 51 307 L 48.5 308 L 46.5 307 L 42.5 308 Q 39.5 306.5 42.5 305 Z "></path><path d="M 55 305 L 69.5 305 L 70 307 Q 67.9 308.6 62.5 308 L 58.5 307 L 56.5 308 L 55 305 Z "></path><path d="M 91.5 305 L 97.5 306 L 99 307.5 Q 97.8 310.3 92.5 309 L 90 308 L 91.5 305 Z "></path><path d="M 111.5 305 L 118 306 L 117.5 308 L 110 308 L 111.5 305 Z "></path><path d="M 236.5 305 L 255.5 305 L 257 306.5 L 235.5 307 L 236.5 305 Z "></path><path d="M 77 306 L 87.5 306 L 88 308 L 84.5 309 L 82.5 309 Q 78 310 77 307.5 L 77 306 Z "></path><path d="M 321 308 L 330 309 Q 331.3 312 327.5 311 L 321 310 L 321 308 Z "></path><path d="M 269.5 310 Q 275.8 308.3 277.5 311 Q 278.8 308.8 280 311.5 L 276.5 313 L 275.5 312 L 266 311.5 L 269.5 310 Z "></path><path d="M 41.5 311 Q 46.3 309.7 45 313 L 40 312.5 L 41.5 311 Z "></path><path d="M 290.5 311 L 298.5 311 L 300 312.5 L 288 314 Q 286.9 311.3 289.5 312 L 290.5 311 Z "></path><path d="M 316.5 311 L 322 312 L 321.5 314 L 308 314 L 308.5 312 L 315.5 312 L 316.5 311 Z "></path><path d="M 53 312 Q 58.2 310.3 57 314 Q 51.8 315.7 53 312 Z "></path><path d="M 60 312 Q 65.4 310.5 67 313.5 Q 67.9 316.5 63.5 315 L 60 314 L 60 312 Z "></path><path d="M 213 312 L 221.5 313 L 223.5 313 L 233.5 313 L 234 315 L 213.5 315 L 213 312 Z "></path><path d="M 103 313 L 110.5 314 L 111.5 313 L 122 313 Q 123.3 316 119.5 315 L 117.5 315 L 111.5 316 L 109.5 315 L 107.5 315 Q 101.7 316.7 103 313 Z "></path><path d="M 246.5 313 L 249.5 314 L 252.5 313 L 254 314.5 L 244.5 315 L 244.5 314 L 246.5 313 Z "></path><path d="M 81.5 314 Q 86 313 87 315.5 L 83.5 316 L 81.5 314 Z "></path><path d="M 262.5 314 L 268 314 L 268 316.5 L 266.5 316 Q 261 315.5 259 318.5 L 262 319.5 L 260 322.5 L 262.5 323 L 265.5 321 L 273 323 L 273 329 L 275.5 329 L 277 326.5 L 274.5 323 Q 275.8 325.3 277 322.5 L 276.5 321 Q 274.8 323.8 273 319.5 L 273 318 L 269 318 L 269 316.5 Q 270.3 313.8 271.5 316 L 275 316 Q 273.9 318.7 276.5 318 L 279.5 317 L 284.5 321 L 287 321 Q 285.8 324 289.5 323 Q 290.7 325.3 295.5 324 L 297.5 324 L 304.5 321 L 309.5 321 Q 310.8 324 315 323 L 316 327 L 323.5 328 L 331 332 L 330.5 334 L 323.5 334 L 321.5 334 L 312.5 335 L 310.5 335 Q 304.3 336.7 302.5 334 L 301.5 335 L 293.5 335 L 291.5 332 L 290.5 333 L 277.5 333 L 276.5 334 Q 275 331.5 269.5 333 L 267.5 333 L 260.5 334 L 258.5 334 L 254.5 333 L 253.5 334 L 243.5 334 L 241.5 334 Q 234.1 335.4 231.5 332 L 230 334.5 L 237 335.5 L 231.5 338 L 229 337 Q 230.4 333 223.5 335 L 221.5 334 L 219.5 335 L 218.5 334 L 212 334 Q 210.5 330.2 213.5 331 L 215.5 331 L 231 332 Q 229.9 329.3 232.5 330 L 239 329 L 240.5 326 L 242.5 326 L 245.5 327 L 248.5 326 L 251 327 Q 249.8 324 253.5 325 L 256.5 317 L 262.5 314 Z M 259 319 L 257 321 L 258 323 L 259 321 L 259 319 Z M 278 320 L 278 323 L 280 322 Q 281 319 278 320 Z M 282 323 L 281 326 L 282 326 L 282 323 Z M 309 325 L 306 328 L 308 328 Q 309 324 311 328 Q 312 330 310 329 L 308 329 L 310 331 L 315 330 L 315 329 Q 310 330 312 325 L 309 325 Z M 289 327 L 289 329 L 291 328 L 289 327 Z M 294 327 L 292 329 Q 294 332 301 330 L 303 332 L 308 331 L 308 330 Q 305 331 306 328 L 304 327 Q 303 330 299 329 L 297 329 L 294 327 Z "></path><path d="M 283 316 L 290.5 316 L 291 318 L 283.5 318 L 283 316 Z "></path><path d="M 300 317 L 306.5 317 L 307 319 L 300.5 319 L 300 317 Z "></path><path d="M 85.5 318 L 96.5 318 L 97.5 319 Q 99 316.5 104.5 318 L 109 319 Q 110.1 321.7 107.5 321 L 105.5 321 L 96.5 321 L 95.5 320 L 93.5 321 L 91.5 320 L 89.5 320 L 84 319.5 L 85.5 318 Z "></path><path d="M 114 318 Q 118.1 316.7 117 320 Q 112.9 321.3 114 318 Z "></path><path d="M 324 318 L 329 318 L 329 320 L 324 320 L 324 318 Z "></path><path d="M 36.5 319 L 45.5 319 L 46 321 L 35 320.5 L 36.5 319 Z "></path><path d="M 52 319 L 72.5 319 L 73 321 L 69.5 322 L 66.5 321 Q 59 319.5 55.5 322 L 52 321 L 52 319 Z "></path><path d="M 209 321 L 225 321.5 L 222.5 323 L 218.5 322 L 216.5 322 L 209 323 L 209 321 Z "></path><path d="M 241.5 322 Q 244.8 320.9 244 323.5 Q 242.5 326.5 236.5 325 L 236.5 324 L 241.5 322 Z "></path><path d="M 76.5 323 L 77.5 324 Q 88.6 322.9 95 325 L 94.5 327 L 84.5 327 L 83.5 326 L 74.5 326 L 72 327 Q 70.3 322.5 75.5 324 L 76.5 323 Z "></path><path d="M 155.5 323 L 157 326.5 L 155 333.5 L 156 335.5 L 154 347 Q 150.7 348.3 152 343.5 L 153 342.5 L 153 332.5 L 150 331.5 L 150 324.5 L 152 324 L 153.5 332 L 154 324.5 L 155.5 323 Z "></path><path d="M 111 324 L 122.5 324 L 123 326 L 119.5 327 L 118.5 326 L 111 326 L 111 324 Z "></path><path d="M 223 325 L 226 326.5 L 223 327 L 223 325 Z "></path><path d="M 325 325 L 330 326.5 L 326.5 328 L 325 325 Z "></path><path d="M 30 326 L 45.5 326 L 46 328 L 39.5 329 L 38.5 328 L 30 328 L 30 326 Z "></path><path d="M 100.5 328 L 101.5 329 L 123 329.5 Q 122.3 331.8 118.5 331 L 116.5 331 L 101.5 331 L 100 329.5 L 100.5 328 Z "></path><path d="M 203 328 L 212 328.5 Q 209.2 331.3 203 330 L 203 328 Z "></path><path d="M 76.5 329 L 78 331.5 L 76 330.5 L 76.5 329 Z "></path><path d="M 81.5 329 L 85 330.5 L 82.5 332 L 80 330.5 L 81.5 329 Z "></path><path d="M 92 329 Q 97.2 327.3 96 331 Q 90.8 332.7 92 329 Z "></path><path d="M 127 329 Q 132.2 327.3 131 331 Q 125.8 332.7 127 329 Z "></path><path d="M 17.5 331 L 19.5 332 L 24 331 Q 25.4 334.7 19.5 333 L 15 334 Q 13.9 331.3 16.5 332 L 17.5 331 Z "></path><path d="M 83.5 334 L 87.5 335 Q 88.7 332.8 90 335.5 L 88.5 337 L 82 337 L 83.5 334 Z "></path><path d="M 44.5 335 L 48 335.5 L 45 337.5 L 44.5 335 Z "></path><path d="M 98 335 L 132.5 335 L 133 337 L 98.5 337 L 98 335 Z "></path><path d="M 244.5 335 L 246.5 336 L 257.5 336 Q 258.8 333.7 263.5 335 L 266 336.5 Q 265 339 260.5 338 L 257.5 337 L 256.5 338 L 240 338 Q 238.7 334.7 243.5 336 L 244.5 335 Z "></path><path d="M 274.5 335 Q 280.5 333.5 282 336.5 L 281.5 338 L 270 338 Q 268.7 334.7 273.5 336 L 274.5 335 Z "></path><path d="M 296.5 336 L 307.5 338 L 309.5 338 L 317.5 337 L 318.5 338 L 326 338 L 325.5 340 L 303.5 340 L 302.5 339 L 288.5 339 L 285 340 Q 283.9 337.3 286.5 338 L 296.5 336 Z "></path><path d="M 136.5 338 L 137 341 L 132.5 340 L 131.5 341 L 121 341 L 121.5 339 L 135.5 339 L 136.5 338 Z "></path><path d="M 205 338 L 216.5 338 L 218 339.5 L 215.5 341 L 214.5 340 L 205 340 L 205 338 Z "></path><path d="M 224 340 L 234.5 340 L 245.5 342 L 248.5 341 L 252.5 342 L 253.5 341 L 265 341 L 264.5 343 L 257.5 343 L 255.5 343 L 236.5 343 L 235.5 342 L 224 342 L 224 340 Z "></path><path d="M 132 342 L 135 343.5 Q 133.5 346.5 132 343.5 L 132 342 Z "></path><path d="M 229.5 347 Q 234.3 345.7 233 349 L 228 348.5 L 229.5 347 Z "></path><path d="M 273 347 Q 278.2 345.3 277 349 Q 271.8 350.7 273 347 Z "></path><path d="M 284 347 L 289 347 L 289 349 L 284 349 L 284 347 Z "></path><path d="M 292.5 347 L 294.5 348 Q 296 345.5 301.5 347 L 303.5 347 Q 307 349.5 314.5 348 L 315.5 347 L 327 347 L 326.5 349 L 314.5 349 L 312.5 350 L 310.5 350 Q 303 351.5 299.5 349 L 298.5 350 L 291 350 L 292.5 347 Z "></path><path d="M 211 348 L 220 349.5 L 217.5 351 L 211 350 L 211 348 Z "></path><path d="M 245.5 348 L 257 348.5 L 254.5 350 L 250.5 349 L 246.5 350 L 245.5 348 Z "></path><path d="M 191.5 354 L 193 354.5 L 184.5 364 L 175.5 371 L 173 371 Q 171.9 368.3 174.5 369 L 189 357.5 L 191.5 354 Z "></path><path d="M 320.5 354 Q 327.3 352.3 329 355.5 Q 329.9 358.5 325.5 357 L 323.5 357 Q 319.8 357.8 319 355.5 L 320.5 354 Z "></path><path d="M 215 356 L 220 356.5 L 215.5 358 L 215 356 Z "></path><path d="M 232.5 357 L 243 357.5 L 237.5 359 L 232.5 358 L 232.5 357 Z "></path><path d="M 262.5 357 L 264.5 358 L 267.5 357 L 271 358.5 L 261.5 359 L 262.5 357 Z "></path><path d="M 282 358 L 295.5 358 L 298.5 359 L 299.5 358 L 308.5 358 L 308.5 359 L 305.5 360 L 282 360 L 282 358 Z "></path><path d="M 192.5 359 Q 195.1 358.3 194 361 L 191 362.5 L 185.5 369 L 180 371.5 L 181 373.5 L 173.5 380 L 167.5 380 L 163.5 376 L 148.5 370 L 145.5 371 L 146.5 369 L 150.5 369 L 158.5 372 L 168.5 379 L 171.5 379 Q 177.6 377.6 180 372.5 L 179 370 Q 185.6 368.9 189 363.5 L 192.5 359 Z "></path><path d="M 116.5 360 L 127.5 361 L 129.5 361 L 133 361.5 L 131.5 363 L 112 363 Q 110.7 359.7 115.5 361 L 116.5 360 Z "></path><path d="M 313 361 L 327.5 361 L 330 362.5 L 325.5 363 L 323.5 363 L 313.5 363 L 313 361 Z "></path><path d="M 251.5 362 L 256 362.5 L 251.5 363 L 251.5 362 Z "></path><path d="M 273.5 363 L 274 365 L 271 364.5 L 273.5 363 Z "></path><path d="M 109.5 364 L 122 366.5 Q 120.8 369.3 115.5 368 L 114.5 367 L 105.5 367 Q 104.2 369.3 99.5 368 L 96.5 367 L 94.5 367 Q 90.8 368 92 365 L 108.5 365 L 109.5 364 Z "></path><path d="M 215.5 364 Q 217 366.5 222.5 365 L 224.5 364 L 226.5 364 Q 231.8 362.5 230 367 L 215.5 367 L 214 365.5 L 215.5 364 Z "></path><path d="M 26 365 L 53.5 366 L 55 367.5 L 53.5 369 L 39.5 369 Q 38.1 366.4 33.5 367 L 32.5 368 L 26 368 L 26 365 Z "></path><path d="M 65.5 365 L 74.5 365 L 75.5 366 L 89 367 Q 90.1 370.5 82.5 369 L 80.5 369 L 77.5 368 L 61 368 Q 59.7 364.7 64.5 366 L 65.5 365 Z "></path><path d="M 162.5 365 L 166 367.5 L 162 368 L 162.5 365 Z "></path><path d="M 155 366 L 164.5 370 L 167 372.5 L 164.5 373 L 160.5 370 Q 159 372.5 157.5 369 L 155 367.5 L 155 366 Z "></path><path d="M 237.5 366 L 241.5 367 L 243.5 366 L 244.5 367 L 252 367 L 251.5 369 L 237.5 369 Q 234.5 367.5 237.5 366 Z "></path><path d="M 282.5 368 Q 289.5 367.3 293 369 L 292.5 371 L 285.5 371 L 282.5 370 L 281 369.5 L 282.5 368 Z "></path><path d="M 316.5 368 L 321.5 369 L 324.5 368 Q 327.5 369.5 324.5 371 L 311.5 371 L 311 369 L 316.5 368 Z "></path><path d="M 198.5 370 Q 200.8 369.3 200 371.5 Q 198.5 374.5 197 371.5 L 198.5 370 Z "></path><path d="M 47.5 372 L 70 373 L 69.5 375 L 56.5 375 Q 55 372.5 49.5 374 L 46 375 L 47.5 372 Z "></path><path d="M 82.5 372 L 104.5 373 L 108.5 372 L 109.5 374 L 97.5 375 L 96.5 374 L 83.5 374 L 81 375 L 82.5 372 Z "></path><path d="M 119.5 372 L 122 373.5 Q 120.8 376.3 119.5 374 L 116 375 Q 114.8 372 118.5 373 L 119.5 372 Z "></path><path d="M 225.5 374 L 234 375 L 233.5 377 L 225.5 377 Q 222.5 375.5 225.5 374 Z "></path><path d="M 246 377 L 257.5 377 L 258 379 L 246.5 379 L 246 377 Z "></path><path d="M 32.5 378 L 42.5 379 L 44 378.5 L 43.5 380 L 31.5 380 L 30 380.5 Q 29.3 378.3 31.5 379 L 32.5 378 Z "></path><path d="M 66.5 378 L 70.5 379 L 71.5 378 L 90 378 L 89.5 380 L 66.5 380 L 64 381 Q 62.9 378.3 65.5 379 L 66.5 378 Z "></path><path d="M 135.5 378 Q 142.8 375.8 141 381 Q 132.3 379.5 129 383 L 131.5 379 L 135.5 378 Z "></path><path d="M 142.5 378 Q 146.3 377.3 147 379.5 L 144.5 380 L 142.5 378 Z "></path><path d="M 270 378 L 281.5 378 L 282 380 L 270.5 380 L 270 378 Z "></path><path d="M 308.5 378 L 325.5 378 L 326 380 L 312.5 380 L 311.5 381 L 307 379.5 L 308.5 378 Z "></path><path d="M 110.5 379 L 115 379.5 L 115 381 L 110 381 L 110.5 379 Z "></path><path d="M 20 383 L 33 384.5 L 20 385 L 20 383 Z "></path><path d="M 49 383 L 56.5 383 L 58 384.5 L 49 385 L 49 383 Z "></path><path d="M 88 383 L 95.5 383 L 96.5 384 L 97.5 383 L 115 383 Q 116.3 386.3 111.5 385 L 108.5 384 L 107.5 385 L 88 385 L 88 383 Z "></path><path d="M 138.5 385 L 146.5 385 L 153 389 Q 154.1 391.7 151.5 391 L 149 387 L 142.5 386 L 136 388 Q 134.9 385.3 137.5 386 L 138.5 385 Z "></path><path d="M 227.5 386 L 234 387 Q 235.3 390 231.5 389 L 228.5 388 L 226 387.5 L 227.5 386 Z "></path><path d="M 37.5 388 L 45.5 389 L 47.5 389 L 60.5 389 L 63 388 Q 64.1 390.7 61.5 390 L 58.5 391 L 45.5 391 L 44.5 390 L 42.5 391 L 40.5 390 L 28.5 393 L 21 391.5 Q 22 389 26.5 390 L 28.5 390 L 37.5 388 Z "></path><path d="M 254.5 388 Q 259.8 386.8 261 389.5 Q 261.5 392.5 254.5 391 Q 251.5 389.5 254.5 388 Z "></path><path d="M 74.5 389 Q 79.3 387.8 80.5 390 L 82.5 390 L 104 389 L 103.5 391 L 101.5 390 L 100.5 391 Q 92.2 389.8 87.5 392 L 86.5 391 L 76.5 391 L 74.5 391 L 72 390.5 L 74.5 389 Z "></path><path d="M 110.5 389 Q 115.9 387.1 115 390.5 L 112.5 391 L 110.5 389 Z "></path><path d="M 276.5 389 L 285 390.5 Q 283.8 393.3 282.5 391 L 279.5 392 L 277.5 392 L 275 390.5 L 276.5 389 Z "></path><path d="M 303 389 L 319 389.5 L 314.5 391 L 312.5 391 L 303.5 391 L 303 389 Z "></path><path d="M 320.5 389 L 327.5 389 L 328 391 L 325.5 390 L 322.5 391 L 320.5 389 Z "></path><path d="M 156 392 Q 161.7 395.6 171.5 396 L 173.5 395 L 180.5 397 L 187.5 395 Q 190.5 396.5 187.5 398 L 185.5 398 L 176.5 399 L 172.5 397 L 170.5 397 L 163.5 397 L 156 394 L 156 392 Z "></path><path d="M 140 394 L 146 396 Q 147.1 398.7 144.5 398 L 140 396 L 140 394 Z "></path><path d="M 237 396 L 243.5 396 L 244 398 L 237.5 398 L 237 396 Z "></path><path d="M 257.5 396 L 260 397 L 260 399 L 254 399 Q 252.8 396 256.5 397 L 257.5 396 Z "></path><path d="M 92.5 398 Q 99.3 396.3 101 399.5 L 91.5 400 L 92.5 398 Z "></path><path d="M 107.5 398 Q 114.4 396 113 400 L 106.5 401 L 106 399.5 L 107.5 398 Z "></path><path d="M 275 398 L 287 398.5 L 281.5 400 L 279.5 400 Q 273.6 401.7 275 398 Z "></path><path d="M 307.5 398 L 315 398.5 L 308.5 400 L 307.5 398 Z "></path><path d="M 150 400 L 154 401.5 Q 154.8 403.8 152.5 403 L 150 402 L 150 400 Z "></path><path d="M 49.5 402 L 51.5 402 L 59 402 L 59 405 L 50.5 406 Q 46 404 49.5 402 Z "></path><path d="M 288 403 L 298.5 403 L 299 405 L 288.5 405 L 288 403 Z "></path><path d="M 262 404 L 266 405.5 L 262 406 L 262 404 Z "></path><path d="M 66.5 405 L 68 405 L 68.5 407 L 81.5 407 L 87 408 L 86.5 410 L 79.5 410 L 77.5 410 Q 72.8 411.2 71.5 409 L 65 411 L 64 408.5 L 68 407.5 L 66.5 405 Z "></path><path d="M 237 405 L 244.5 405 L 246 406.5 L 237 407 L 237 405 Z "></path><path d="M 92.5 406 L 94.5 407 L 97.5 406 L 99.5 407 Q 101 404.5 106.5 406 L 110 407.5 L 92.5 409 L 90 407.5 L 92.5 406 Z "></path><path d="M 143.5 406 L 154 414.5 L 155 419 L 158 420.5 Q 157.3 423.1 160 422 L 161 415.5 L 160 415.5 L 159.5 417 Q 156.8 415.6 158 411 Q 160.7 409.9 160 412.5 L 161.5 415 L 164 414 Q 162.3 416.4 163 422.5 L 161 424.5 L 169 440.5 L 169 445 Q 166.3 446.1 167 443.5 L 159 425.5 L 155 421.5 L 155 419 L 152 417.5 Q 150.6 411.4 145.5 409 L 142 407.5 L 143.5 406 Z "></path><path d="M 151 406 Q 155.1 404.7 154 408 Q 149.9 409.3 151 406 Z "></path><path d="M 327 406 Q 332.2 404.3 331 408 Q 325.8 409.7 327 406 Z "></path><path d="M 155.5 408 Q 158.5 409.5 155.5 411 Q 153.3 411.8 154 409.5 L 155.5 408 Z "></path><path d="M 310.5 408 Q 318.1 406.5 317 410 Q 310.4 411.5 310.5 408 Z "></path><path d="M 254 409 L 262.5 409 L 263 411 L 254.5 411 L 254 409 Z "></path><path d="M 279.5 409 L 288 409.5 L 279.5 410 L 279.5 409 Z "></path><path d="M 178 411 Q 182 409.6 180 416.5 L 178 415.5 L 178 411 Z "></path><path d="M 88.5 412 L 97.5 412 L 98 414 L 87 413.5 L 88.5 412 Z "></path><path d="M 187.5 413 L 188 417 Q 185.3 418.1 186 415.5 L 187.5 413 Z "></path><path d="M 66 414 L 72 414.5 Q 70.6 417.3 66 416 L 66 414 Z "></path><path d="M 214.5 414 L 215 424.5 L 212 436 Q 209.3 437.1 210 434.5 L 213 425.5 L 213 415.5 L 214.5 414 Z "></path><path d="M 296.5 414 L 300 415.5 L 295.5 416 L 296.5 414 Z "></path><path d="M 169 415 L 171 415.5 L 171 427 L 169 426.5 L 169 415 Z "></path><path d="M 259.5 415 L 266 416 Q 267.3 419 263.5 418 L 261.5 417 L 258 418 L 259.5 415 Z "></path><path d="M 173 416 L 175 416.5 L 175 430.5 L 174 436 L 172 435.5 L 172 426.5 L 172 424.5 L 173 416 Z "></path><path d="M 249.5 416 L 250 418 L 247.5 419 L 247 417 L 249.5 416 Z "></path><path d="M 165 417 L 168 418.5 Q 169.5 424.5 166.5 426 L 165 424.5 L 165 417 Z "></path><path d="M 315 418 Q 319.1 416.7 318 420 Q 313.9 421.3 315 418 Z "></path><path d="M 280 420 L 286 420 L 286 422 L 280 422 L 280 420 Z "></path><path d="M 304 420 Q 308.1 418.7 307 422 Q 302.9 423.3 304 420 Z "></path><path d="M 254.5 421 L 261.5 421 L 262 423 L 255.5 423 L 254.5 421 Z "></path><path d="M 81 423 L 84.5 424 L 86.5 423 L 92 424.5 L 88.5 426 L 84.5 425 L 82.5 425 Q 79.9 425.7 81 423 Z "></path><path d="M 275.5 423 Q 280.3 422.3 281 425.5 L 282 429 Q 285.8 428 287 430.5 L 285.5 432 L 275.5 432 L 268 433.5 L 271 435.5 L 270.5 437 L 254.5 437 L 252.5 437 L 250.5 438 L 246 437 Q 244.8 434 248.5 435 L 250.5 435 L 257 433.5 L 256 431 L 263.5 432 L 265.5 430 Q 270 431 271 428.5 Q 270.5 424.5 273.5 424 L 275.5 423 Z M 275 426 Q 274 429 277 428 Q 278 425 275 426 Z "></path><path d="M 179.5 425 Q 181.8 426.8 181 431.5 Q 179.5 434.5 178 431.5 Q 176.8 426.3 179.5 425 Z "></path><path d="M 248 426 L 254 426 L 254 428 L 248 428 L 248 426 Z "></path><path d="M 184.5 427 L 185 446 Q 182.3 447.1 183 444.5 L 182 443.5 L 182 430.5 L 184.5 427 Z "></path><path d="M 158.5 430 L 160 431.5 Q 160.8 442.2 165 449.5 L 165 454.5 L 168 466.5 L 175 481.5 L 172 479.5 L 165 465.5 L 164 456.5 L 157 431.5 L 158.5 430 Z "></path><path d="M 272 437 L 279.5 437 L 280 438.5 Q 278.8 441.3 277.5 439 L 273.5 440 L 272 437 Z "></path><path d="M 282 437 L 289.5 437 L 290 438.5 L 286.5 440 L 282 439 L 282 437 Z "></path><path d="M 259.5 438 L 263 439.5 L 262.5 441 L 255.5 441 L 254.5 439 L 259.5 438 Z "></path><path d="M 210.5 439 L 211 441.5 L 209 444.5 L 206 461 Q 203 462.3 204 458.5 L 206 449.5 L 210.5 439 Z "></path><path d="M 215.5 440 Q 218.1 439.2 217 442.5 L 214 444 L 215.5 440 Z "></path><path d="M 241 441 L 247.5 441 L 248 443 L 241.5 443 L 241 441 Z "></path><path d="M 215.5 446 L 217 449 Q 213.3 450.5 214 447.5 L 215.5 446 Z "></path><path d="M 216.5 451 Q 219.3 452.3 217 453.5 Q 217.8 455.8 215.5 455 Q 212 453 216.5 451 Z "></path><path d="M 143.5 456 Q 145.8 456.8 145 460.5 L 143 461.5 L 143.5 456 Z "></path><path d="M 216.5 457 Q 218.8 456.3 218 458.5 L 215 460 L 216.5 457 Z "></path><path d="M 217.5 461 Q 219.8 460.3 219 462.5 L 215 464 Q 213.9 461.3 216.5 462 L 217.5 461 Z "></path><path d="M 205.5 463 L 207 465.5 L 202.5 476 L 201 473.5 L 205.5 463 Z "></path><path d="M 218.5 466 Q 222.3 465 221 468 L 214 470 Q 212.9 467.3 215.5 468 L 218.5 466 Z "></path><path d="M 126 467 Q 129.8 465.5 129 468.5 Q 127.5 471.5 126 468.5 L 126 467 Z "></path><path d="M 146.5 468 L 151 469 Q 152.3 472 148.5 471 L 146.5 468 Z "></path><path d="M 149 475 L 153 476 Q 154.1 478.7 151.5 478 L 149 477 L 149 475 Z "></path><path d="M 211.5 476 L 212 478.5 L 210 479.5 L 211.5 476 Z "></path><path d="M 129.5 481 L 133 484.5 L 131.5 486 L 128 482.5 L 129.5 481 Z "></path><path d="M 210.5 482 L 215 482.5 L 209.5 485 L 209 483.5 L 210.5 482 Z "></path><path d="M 150 483 L 160.5 487 L 163.5 487 L 167 489.5 L 164.5 490 L 162.5 489 L 163 490.5 Q 163.8 492.8 161.5 492 L 154 490 Q 155.5 486.2 152.5 487 L 150 486 L 150 483 Z "></path><path d="M 199.5 486 Q 201.8 485.3 201 487.5 L 196 490 Q 194.3 485.9 198.5 487 L 199.5 486 Z "></path><path d="M 209.5 487 L 213 487.5 L 213 489.5 Q 213.8 492.1 210.5 491 L 203.5 495 L 181.5 500 L 177.5 498 L 175 499 Q 173.6 495 180.5 497 L 184.5 497 L 204.5 493 L 209 490.5 L 205.5 490 Q 204.3 492.2 203 489.5 Q 202.4 486.8 208.5 488 L 209.5 487 Z "></path><path d="M 185.5 488 Q 188.1 487.3 187 490 L 181.5 491 L 180.5 489 L 185.5 488 Z "></path><path d="M 191.5 491 L 196 491.5 L 187.5 495 L 184 493.5 L 191.5 491 Z "></path><path d="M 166.5 495 L 170 497.5 Q 168.8 500.3 167.5 498 Q 164.4 498.7 166.5 495 Z "></path><path d="M 314.5 528 Q 322.7 526.9 326 529 Q 327.5 532.8 324.5 532 L 322.5 534 L 314 534 L 314 532 L 321.5 532 L 322 530 Q 314.8 528.5 312 532.5 L 313 536 L 322.5 536 L 323 538 Q 316.1 539 313 537 L 313.5 540 L 315.5 539 Q 316.8 541.3 321.5 540 L 323.5 539 L 325.5 539 Q 328.1 538.3 327 541 L 321.5 542 L 317.5 541 L 313 542 Q 311.3 546.5 316.5 545 L 317.5 544 L 324 544 L 324 546 L 316.5 546 L 316 548 L 318.5 547 L 321.5 548 L 323.5 548 L 325.5 547 L 330 548 Q 331.7 552.1 327.5 551 L 326.5 552 L 313 552 L 313 570.5 L 311.5 572 L 310 570.5 L 310 552 L 299 551.5 L 306 550.5 L 300 547.5 Q 299.2 544.9 302.5 546 L 303.5 545 L 310 545 L 308.5 542 Q 303.4 542.6 302 539.5 L 303.5 536 L 310 536 L 310 530.5 L 311.5 530 L 314.5 528 Z M 305 538 L 305 540 Q 309 541 310 539 L 305 538 Z M 309 546 L 305 548 L 309 548 L 309 546 Z M 313 546 Q 312 549 315 548 Q 316 545 313 546 Z M 316 549 L 314 551 L 317 551 L 316 549 Z M 321 549 L 320 551 L 327 550 L 323 549 L 321 549 Z "></path><path d="M 340 543 L 342 543.5 L 341 545.5 L 342 547.5 L 340.5 551 Q 337.8 549.8 340 548.5 L 340 543 Z "></path><path d="M 296.5 552 L 298 552.5 L 295.5 554 L 296.5 552 Z "></path><path d="M 340.5 552 L 341.5 554 L 343 553.5 L 342 555.5 L 342.5 557 Q 338.8 555.2 340.5 552 Z "></path><path d="M 317.5 554 L 320 555.5 Q 320.8 558.1 317.5 557 Q 314.5 555.5 317.5 554 Z "></path><path d="M 341.5 579 Q 343.8 578.3 343 580.5 L 341.5 579 Z "></path><path d="M 338 589 L 340 589.5 L 338.5 592 L 338 589 Z "></path><path d="M 343.5 589 L 344 591.5 L 342 592.5 L 343.5 589 Z "></path></svg>