<svg width="350" height="600" version="1.1" xmlns="http://www.w3.org/2000/svg" desc="Created with imagetracer.js version 1.2.5"><path d="M 64.5 5 L 85.5 5 Q 87 7.5 92.5 6 L 93.5 5 L 125.5 5 L 127.5 6 L 128.5 5 L 174.5 5 L 176.5 5 Q 179.7 7.3 186.5 6 L 188.5 5 L 190.5 5 L 194.5 6 L 195.5 5 L 215.5 5 L 216.5 6 L 226.5 6 L 227.5 5 L 245.5 5 Q 247.3 7.8 253.5 6 L 255.5 6 L 270.5 6 L 271.5 5 L 274.5 6 Q 276.3 3.2 282.5 5 L 285.5 6 L 286.5 5 L 307.5 5 L 308.5 6 L 332.5 6 L 336 7.5 L 335 8.5 L 335 42.5 Q 337.5 44 336 49.5 L 335 53.5 L 336 54.5 L 336 62.5 L 335 63.5 L 335 81.5 L 335 83.5 L 336 85.5 L 336 96.5 L 335 98.5 L 336 100.5 L 335 101.5 L 335 136.5 L 336 138.5 L 335 140.5 L 336 145.5 L 336 161.5 L 335 164.5 L 336 165.5 L 336 241.5 L 336 243.5 L 335 245.5 L 336 248.5 L 335 252.5 L 336 253.5 L 336 326.5 L 337 327.5 L 337 329.5 L 336 336.5 Q 338.5 338 337 343.5 L 336 347.5 L 337 350.5 L 337 352.5 L 337 401.5 Q 334.3 403.2 336 409.5 L 337 410.5 L 337 420.5 L 336 422.5 Q 338.2 423.7 337 428.5 L 336 429.5 L 336 465.5 L 337 466.5 L 337 479.5 L 337 481.5 Q 338.2 486.3 336 487.5 L 337 489.5 L 336 491.5 L 337 492.5 L 337 522.5 L 336 525.5 Q 338.3 528.7 337 535.5 L 336 538.5 L 337 539.5 L 337 590 L 334.5 591 L 310.5 591 L 309.5 590 L 296.5 590 L 293.5 591 L 292.5 590 L 257.5 590 L 256.5 591 L 239.5 591 L 234.5 592 L 233.5 591 L 221.5 591 L 220.5 592 L 204.5 593 L 203.5 592 L 190.5 592 Q 189 594.5 183.5 593 Q 182.3 590.8 177.5 592 L 173.5 593 Q 171.8 590.3 165.5 592 L 164.5 593 L 136.5 593 L 134.5 593 L 125.5 593 L 124.5 592 L 122.5 592 L 120.5 593 L 108.5 593 L 107.5 594 L 106.5 593 L 69.5 593 L 67.5 593 L 61.5 594 L 59.5 594 L 54.5 593 L 50.5 594 Q 49 591.5 43.5 593 L 35.5 595 L 24.5 595 Q 23 592.5 17.5 594 L 12.5 595 L 5 593 L 6 506.5 L 5 505.5 L 5 401.5 Q 2.5 400 4 394.5 L 5 393.5 L 5 375.5 L 6 373.5 L 5 372.5 L 5 362.5 L 6 361.5 L 6 337.5 Q 3.2 335.8 5 329.5 L 6 326.5 L 5 325.5 L 5 307.5 L 6 305.5 L 5 304.5 L 5 290.5 L 6 288.5 L 5 287.5 L 5 273.5 L 6 269.5 L 5 267.5 L 6 264.5 L 5 261.5 L 6 259.5 L 5 256.5 L 6 255.5 L 6 247.5 L 5 246.5 L 5 162.5 L 6 161.5 L 6 146.5 L 7 141.5 L 7 139.5 L 6 136.5 L 7 132.5 L 6 129.5 L 7 127.5 L 6 126.5 L 6 7.5 L 7.5 6 L 63.5 6 L 64.5 5 Z M 14 8 L 11 9 L 9 11 L 9 69 L 8 70 L 9 72 L 8 74 L 9 76 L 9 163 L 8 164 L 8 190 L 7 191 L 8 192 L 8 242 L 9 243 Q 11 249 8 251 L 8 298 L 9 299 L 8 303 Q 7 308 9 310 Q 11 316 8 318 L 9 320 L 9 336 L 8 337 L 9 339 L 9 366 L 8 367 L 9 371 L 8 375 L 9 380 L 9 382 L 8 384 L 9 386 L 8 387 L 8 423 L 8 425 L 8 505 L 9 506 L 9 562 L 8 563 L 8 588 L 10 590 L 12 589 L 14 589 L 23 591 L 40 591 L 50 589 L 59 591 L 61 590 L 77 590 L 78 589 L 102 589 L 103 590 L 120 589 L 122 589 L 124 588 L 128 589 L 156 589 L 157 590 L 168 589 L 169 588 L 173 589 L 176 588 L 178 589 L 180 589 L 185 588 L 187 589 L 197 588 L 199 588 L 201 589 L 226 588 L 228 588 L 256 587 L 257 586 L 294 586 L 298 587 L 300 587 Q 306 589 308 586 L 310 587 L 313 586 L 328 586 L 330 586 L 332 587 L 333 587 L 333 471 L 333 469 L 333 433 L 332 432 L 333 430 L 332 428 L 333 423 L 332 420 L 333 416 L 333 322 L 332 318 L 332 316 L 333 313 L 332 303 L 332 301 Q 331 295 333 294 L 332 290 L 332 288 L 332 275 L 333 274 L 332 271 L 333 263 L 333 261 L 332 249 L 328 252 L 327 251 L 323 254 L 310 257 L 308 256 L 306 257 Q 289 255 280 246 L 277 241 L 272 237 L 264 228 Q 262 216 266 212 L 269 210 L 270 208 Q 267 209 268 206 L 271 204 L 270 202 L 270 194 L 275 185 Q 280 177 290 174 L 304 172 Q 301 169 302 163 L 300 163 L 294 159 L 288 172 Q 289 175 286 174 Q 287 164 293 158 L 292 155 Q 290 146 294 144 L 294 141 L 290 143 Q 287 142 288 146 L 284 149 L 282 152 L 287 153 L 285 163 L 278 165 L 272 181 L 270 183 L 262 206 Q 263 209 260 208 L 262 198 L 277 164 L 269 157 Q 265 156 266 159 L 263 159 L 263 163 L 255 173 L 255 176 L 250 181 L 235 209 L 237 209 L 252 225 L 257 237 L 260 253 L 260 278 L 260 280 L 256 302 L 250 316 L 225 356 L 214 368 Q 215 370 213 369 L 207 377 L 211 385 L 213 375 L 215 374 L 212 386 L 212 389 L 238 434 L 246 453 L 245 458 L 239 459 L 229 448 L 222 434 L 211 418 L 206 407 L 194 389 L 183 398 L 179 399 L 178 468 L 178 470 L 178 496 L 175 506 L 172 508 L 168 507 L 166 500 L 165 482 L 164 481 L 164 453 L 163 449 L 163 447 L 164 445 L 164 403 L 163 402 L 164 394 L 150 385 Q 151 389 148 391 L 148 397 L 142 426 L 141 440 L 139 447 L 139 458 L 136 472 L 134 493 L 131 503 L 129 518 L 127 519 L 127 514 L 133 488 L 135 468 L 137 461 L 137 450 L 140 435 L 141 420 L 148 388 L 148 383 L 144 388 Q 145 391 142 390 L 137 400 L 137 407 L 128 442 L 128 450 L 121 484 L 119 502 L 117 508 L 117 517 L 114 527 L 114 534 L 112 537 L 112 544 L 109 559 L 109 561 L 106 571 Q 107 575 104 574 L 107 554 L 110 545 L 110 538 L 113 528 L 118 490 L 127 445 L 127 438 L 130 427 L 130 422 L 134 410 L 134 406 L 124 422 L 123 430 L 117 447 L 115 463 L 113 467 L 114 469 L 108 500 L 97 544 L 96 544 L 96 537 L 98 533 L 102 512 L 107 496 L 107 491 L 112 470 L 116 442 L 119 433 L 119 431 L 101 457 L 95 462 Q 89 463 88 461 L 88 456 L 91 447 L 98 432 L 134 371 L 133 371 L 115 354 Q 116 351 113 352 L 95 331 L 80 302 L 75 316 L 75 325 L 68 350 L 69 352 L 68 353 L 66 374 L 64 379 L 64 386 L 61 397 L 61 403 L 58 414 L 58 423 L 55 436 L 55 443 L 50 463 L 50 470 L 47 485 L 47 496 L 42 518 L 41 532 L 38 542 L 36 543 L 45 495 L 48 464 L 54 435 L 54 427 L 56 420 L 58 400 L 60 395 L 60 388 L 66 362 L 65 360 L 66 359 L 66 350 L 68 340 L 74 319 L 74 310 L 76 303 Q 75 300 78 301 L 79 302 L 77 295 L 77 288 L 71 267 L 71 258 L 73 254 L 73 249 L 75 242 L 76 240 L 71 242 L 64 241 L 60 238 L 58 231 L 56 232 L 54 231 L 52 232 L 44 227 L 41 232 Q 42 238 39 241 L 36 256 L 36 263 L 30 289 L 30 297 L 27 305 L 25 321 L 22 330 L 21 347 L 12 396 L 11 396 L 12 382 L 14 376 L 13 373 L 17 356 L 20 326 L 22 321 L 24 304 L 27 294 L 37 233 L 39 227 L 42 224 L 42 218 L 36 220 L 29 219 L 25 217 L 12 207 L 13 203 L 24 213 L 31 215 L 41 212 Q 43 213 42 211 Q 46 207 53 207 L 59 201 L 60 196 L 64 194 Q 63 190 66 189 L 72 192 L 90 192 L 92 191 L 93 195 L 85 197 L 78 197 L 70 194 Q 67 193 68 196 L 64 198 L 62 206 L 55 212 L 49 213 L 46 219 L 47 225 L 53 228 L 58 228 L 60 228 L 62 227 L 65 236 L 67 237 L 76 237 L 77 238 L 83 225 Q 90 215 102 210 Q 104 209 103 212 L 105 212 L 103 205 L 99 200 L 93 186 L 88 180 L 81 166 Q 82 162 78 164 Q 77 159 73 156 Q 65 158 62 164 L 59 164 Q 54 160 52 154 L 55 151 L 64 148 L 70 144 L 64 129 L 60 114 L 56 112 L 54 107 L 55 100 L 59 97 Q 66 96 69 99 L 72 107 L 70 110 Q 69 113 72 112 L 85 130 L 86 134 L 91 133 L 99 127 L 101 127 L 103 126 L 107 136 Q 108 138 105 137 L 100 130 L 88 139 L 82 142 L 79 142 L 67 149 L 62 150 Q 60 153 59 151 L 55 153 L 60 161 L 62 161 L 78 150 L 85 148 L 103 138 Q 107 137 106 140 L 104 140 L 96 145 L 97 147 L 95 150 L 97 150 L 99 154 Q 98 158 101 157 L 101 165 L 100 166 L 109 181 L 112 179 Q 115 178 114 175 L 118 173 Q 125 167 127 156 L 127 142 L 120 127 L 112 126 L 97 117 Q 82 104 78 81 Q 81 75 79 65 L 90 42 L 85 42 L 80 39 L 77 31 Q 79 16 89 10 L 80 9 L 79 8 L 47 8 L 46 9 L 44 8 L 18 8 L 17 9 L 14 8 Z M 105 8 L 104 9 L 96 9 Q 97 12 92 11 Q 83 17 80 28 L 81 34 L 88 39 Q 93 41 95 38 Q 98 37 97 40 L 92 42 L 92 47 L 87 52 L 84 59 L 80 77 Q 83 78 81 84 L 86 98 L 95 111 L 108 120 L 121 124 Q 127 122 129 125 L 131 124 L 133 127 L 134 133 Q 137 138 145 140 L 150 140 L 157 138 L 158 139 Q 159 132 156 130 Q 155 126 158 127 L 159 128 L 155 117 L 151 119 L 142 120 L 139 114 L 140 104 L 158 106 L 158 94 L 161 80 L 157 72 L 159 66 L 163 63 L 164 64 Q 160 66 160 73 Q 162 77 168 77 L 172 72 Q 173 67 170 66 L 171 63 L 174 65 L 176 69 Q 176 74 173 76 Q 174 78 171 77 L 173 82 L 176 98 Q 177 104 174 106 L 193 106 L 197 105 L 198 107 Q 196 113 199 115 L 197 121 L 195 122 Q 189 117 180 117 L 177 121 L 178 125 L 176 128 L 177 131 Q 178 135 174 136 L 175 138 L 175 151 L 177 150 Q 181 149 182 152 L 181 156 Q 185 157 185 163 Q 189 169 198 171 Q 205 173 208 169 L 214 169 L 221 172 L 205 172 L 204 173 L 195 173 L 187 170 Q 180 165 177 158 Q 178 153 175 154 L 174 160 L 175 163 L 173 182 L 173 184 L 174 186 L 174 220 Q 177 221 176 219 L 190 209 L 200 206 L 202 206 L 208 204 Q 216 203 219 205 L 231 179 L 237 170 L 238 162 L 244 150 Q 247 151 245 146 L 234 139 L 231 139 L 231 135 L 236 128 L 238 128 L 253 138 L 266 117 Q 267 113 271 114 L 269 112 L 270 104 L 275 100 L 279 100 L 286 104 L 287 107 L 286 114 L 281 117 L 279 119 L 279 125 L 276 135 L 270 144 L 270 147 Q 271 149 273 147 L 278 150 L 281 149 Q 285 147 284 140 L 287 141 L 292 140 L 296 136 L 296 134 Q 299 130 306 130 L 322 121 L 331 106 Q 334 97 332 85 L 333 84 L 332 63 L 332 61 L 333 56 L 332 55 L 332 11 L 329 9 L 315 9 L 314 10 L 306 10 L 305 9 L 225 9 L 224 8 L 221 9 L 216 8 L 199 8 L 198 9 L 196 8 L 190 9 L 188 9 L 167 9 L 166 8 L 160 9 L 158 9 L 153 8 L 131 8 L 130 9 L 110 9 L 105 8 Z M 168 78 L 164 81 L 166 81 L 164 85 L 166 88 Q 167 90 163 89 L 163 92 L 165 92 Q 166 95 163 94 Q 162 97 166 96 L 166 99 L 163 98 L 162 100 L 167 101 L 165 105 L 170 106 Q 171 108 172 106 L 172 93 L 169 83 Q 171 77 168 78 Z M 61 99 L 58 100 L 57 103 Q 56 107 59 108 L 60 108 L 61 110 L 66 110 Q 70 109 68 102 Q 66 98 61 99 Z M 162 102 L 162 104 L 164 103 L 162 102 Z M 276 102 L 273 105 Q 272 113 277 116 L 285 110 L 284 106 Q 282 102 276 102 Z M 148 108 L 143 109 L 144 117 L 154 114 L 176 114 L 177 115 L 190 116 L 194 118 L 194 108 L 192 109 L 177 109 L 176 110 L 175 109 L 153 109 L 148 108 Z M 333 110 L 328 118 L 322 124 L 311 131 Q 305 130 303 133 L 302 135 L 304 134 Q 306 133 305 136 L 300 139 L 296 148 L 298 158 L 305 162 L 307 161 L 308 172 L 305 174 L 295 174 L 286 178 L 282 183 L 280 184 L 274 196 L 275 200 Q 276 204 273 203 L 274 209 L 273 209 L 270 212 Q 272 217 269 219 Q 268 227 273 231 Q 272 233 275 232 L 275 234 L 281 235 Q 283 236 282 241 L 286 244 Q 288 243 287 246 L 304 253 L 317 252 L 324 248 L 326 249 L 333 243 L 333 196 L 332 195 L 332 171 L 333 168 L 333 166 Q 335 160 332 159 L 332 120 L 332 118 L 333 113 L 333 110 Z M 68 112 L 67 113 Q 63 112 64 115 L 66 115 L 65 118 L 66 119 L 68 118 L 66 122 L 69 122 L 68 125 L 69 131 L 72 137 L 72 141 L 74 142 L 81 139 L 78 138 L 82 135 Q 83 132 81 133 L 79 134 Q 78 130 81 131 L 78 125 L 73 127 L 72 126 L 76 123 L 75 121 L 72 123 L 73 121 L 73 119 L 68 112 Z M 173 116 L 164 118 L 160 117 L 161 119 L 173 119 L 174 120 L 173 116 Z M 272 117 L 264 128 Q 263 131 266 130 L 266 131 L 263 130 L 262 132 L 265 134 Q 263 137 262 133 L 260 134 L 264 136 Q 265 139 263 138 Q 260 133 258 137 Q 257 139 261 138 L 263 141 L 259 139 L 256 140 L 266 144 L 270 138 L 275 122 Q 277 115 272 117 Z M 162 121 L 161 128 L 171 128 L 172 129 Q 174 128 173 123 Q 172 120 171 122 L 168 121 L 166 122 L 162 121 Z M 128 127 L 124 129 L 131 141 L 132 146 L 131 162 L 125 173 L 121 176 L 118 180 L 111 183 L 111 187 L 121 207 L 125 205 L 127 206 L 136 206 L 141 183 L 143 179 Q 142 176 145 177 L 138 206 L 136 207 L 148 209 L 155 214 L 157 214 L 158 216 L 158 215 L 158 213 L 159 212 L 159 165 L 160 164 L 159 163 L 159 146 L 158 143 L 156 144 Q 153 145 154 142 L 150 144 L 148 144 L 145 149 L 139 179 L 134 196 L 132 197 L 132 193 L 138 174 L 144 144 L 137 142 L 128 132 L 129 129 Q 130 126 128 127 Z M 163 130 L 161 133 L 164 132 L 165 133 L 173 133 L 172 132 L 172 130 L 163 130 Z M 237 132 L 235 138 L 259 148 L 276 159 L 281 161 L 284 156 L 270 149 Q 268 145 267 148 L 237 132 Z M 161 136 L 160 140 L 161 159 L 162 160 L 162 178 L 161 179 L 162 181 L 162 217 L 162 219 Q 163 223 161 225 L 162 236 L 162 238 Q 163 242 161 244 L 161 256 L 162 257 L 162 273 L 161 274 L 162 279 L 167 275 L 166 272 L 167 259 L 167 257 L 166 254 L 166 232 L 167 231 L 166 229 L 167 227 L 166 224 L 166 222 L 167 217 L 165 209 L 165 181 L 166 180 L 165 178 L 166 176 L 165 173 L 166 172 L 166 162 L 165 159 L 166 139 L 166 137 L 161 136 Z M 171 136 L 169 138 L 169 147 L 168 148 Q 167 152 169 154 L 168 159 L 169 164 L 168 214 L 168 216 L 169 218 L 169 248 L 170 249 L 170 258 L 169 259 L 170 263 L 169 268 L 172 272 L 172 210 L 171 207 L 172 206 L 172 164 L 172 162 Q 174 155 171 154 L 172 149 Q 173 144 171 143 L 172 139 L 172 137 L 171 136 Z M 91 147 L 77 154 L 77 155 Q 86 153 93 148 L 91 147 Z M 249 147 L 249 151 L 259 154 L 261 156 Q 264 157 263 155 L 256 149 L 249 147 Z M 93 151 L 82 156 L 79 159 L 80 162 L 84 163 L 95 158 L 94 154 Q 95 150 93 151 Z M 246 152 L 243 161 L 255 166 L 260 159 L 252 153 L 246 152 Z M 97 159 L 96 160 Q 93 159 94 162 L 86 167 L 87 168 L 97 164 L 98 162 L 97 159 Z M 242 163 L 242 165 L 245 165 L 251 169 Q 254 170 253 167 L 242 163 Z M 241 166 L 228 189 L 207 235 L 193 258 Q 194 260 198 259 L 198 256 L 202 248 L 221 215 Q 231 190 244 170 L 244 167 L 241 166 Z M 96 167 L 96 171 L 105 191 L 116 208 L 126 230 L 131 237 L 135 249 L 141 260 L 143 259 L 143 255 L 130 232 L 106 182 L 98 169 Q 99 166 96 167 Z M 92 169 L 88 170 L 88 173 L 114 221 L 124 243 L 139 266 L 141 263 L 138 262 L 137 257 L 131 244 L 119 225 L 104 195 L 100 190 L 92 169 Z M 246 170 L 199 261 L 202 261 L 206 260 L 206 258 L 237 196 L 249 176 L 251 173 L 246 170 Z M 136 375 L 132 384 L 108 421 L 92 455 L 92 457 Q 91 459 94 458 L 100 452 L 115 430 L 144 381 L 136 375 Z M 204 379 L 198 386 Q 197 390 201 388 L 202 394 L 213 412 L 218 424 L 221 425 L 226 436 L 229 439 L 233 449 L 241 455 L 241 450 L 204 379 Z M 167 395 L 167 400 L 167 402 L 166 404 Q 169 411 167 424 L 167 426 L 166 433 L 166 435 L 166 457 L 167 458 L 166 460 L 167 461 L 168 495 L 171 503 L 173 500 L 173 460 L 174 458 L 173 455 L 174 451 L 173 450 L 173 435 L 173 433 L 174 432 L 174 397 L 167 395 Z "></path><path d="M 173.5 17 L 182.5 18 L 184 19.5 L 183 22 L 178.5 21 Q 175.8 22.3 177 27.5 L 179.5 32 L 183 33.5 L 182 36 L 178.5 35 L 177.5 36 L 165.5 36 L 163.5 36 L 157.5 37 L 155.5 36 L 152 37 L 152 34 L 156 34 L 156 32.5 L 157 30.5 L 156 28.5 L 157 24.5 L 156 22 L 150.5 23 Q 147.7 21.8 150 20.5 Q 149.1 17.1 154.5 19 L 156.5 19 L 172.5 18 L 173.5 17 Z M 170 21 L 170 31 Q 168 32 171 33 L 174 32 L 173 31 L 173 23 L 174 22 L 170 21 Z M 161 22 L 161 26 L 161 28 L 160 33 L 163 32 L 165 32 L 165 24 L 161 22 Z "></path><path d="M 75 128 Q 79.1 126.7 78 130 Q 73.9 131.3 75 128 Z "></path><path d="M 272 162 Q 275.3 160.7 274 165.5 L 251.5 221 L 250 217.5 L 261 192.5 L 272 162 Z "></path><path d="M 293.5 165 Q 296.1 164.2 295 167.5 L 293.5 170 L 292 166.5 L 293.5 165 Z "></path><path d="M 231.5 168 Q 236.3 166.7 235 170 Q 232.1 172.9 224.5 172 L 225.5 170 Q 230.1 170.6 231.5 168 Z "></path><path d="M 261 171 Q 264.3 169.7 263 174.5 L 248.5 211 Q 246.3 211.8 247 209.5 L 261 171 Z "></path><path d="M 132 172 Q 135.3 170.7 134 175.5 L 131 187.5 L 131 192.5 L 126.5 203 L 125 200.5 L 127 196.5 L 132 172 Z "></path><path d="M 208.5 177 L 209 178.5 L 201.5 198 L 201 195.5 L 206 179.5 L 208.5 177 Z "></path><path d="M 193 179 Q 196.3 177.7 195 182.5 L 189 202.5 L 185.5 209 L 185 205.5 L 189 196.5 L 193 179 Z "></path><path d="M 196 190 Q 198.7 188.9 198 191.5 L 194.5 200 L 194 195.5 L 196 190 Z "></path><path d="M 47.5 234 L 50 235.5 L 45 255.5 L 45 260.5 L 38 297.5 L 35 305.5 L 36 307.5 L 33 325 Q 29.5 326.1 31 318.5 L 32 317.5 L 32 307.5 L 37 287.5 L 43 250.5 Q 46.3 244.8 46 235.5 L 47.5 234 Z "></path><path d="M 28 238 Q 32.9 236.2 31 242.5 L 25 271.5 L 22 294.5 L 16 319.5 L 16 325.5 L 14.5 327 L 13 324.5 L 28 238 Z "></path><path d="M 68 245 Q 72.1 243.3 71 247.5 L 71 249.5 L 63 282.5 L 60 307.5 L 58 313.5 L 56 329.5 L 53 338.5 L 53 345.5 L 47 369.5 L 47 375.5 L 42 399.5 L 42 406.5 L 39.5 412 L 39 402.5 L 45 372.5 L 45 367.5 L 51 342.5 L 51 337.5 L 54 328.5 L 54 323.5 L 57 311.5 L 57 304.5 L 60 291.5 L 60 285.5 L 65 263.5 L 65 256.5 L 68 245 Z "></path><path d="M 327.5 254 Q 330.5 253.1 329 257.5 L 327 259.5 L 326 266.5 L 322 275.5 L 320 285.5 L 313 305.5 L 313 309.5 L 310 316.5 L 306 333.5 L 303.5 338 L 303 332.5 L 314 294.5 L 317 288.5 L 317 284.5 L 324 265.5 L 326 255.5 L 327.5 254 Z "></path><path d="M 319.5 256 Q 322.9 255.1 321 260.5 L 312 284.5 L 311 291.5 L 308 298.5 L 297 339.5 L 286 372.5 L 285 380.5 L 279 399.5 L 278 410.5 L 275.5 414 L 275 409.5 L 285 366.5 L 294 341.5 L 295 333.5 L 303 307.5 L 305 304.5 L 306 296.5 L 308 294.5 L 308 290.5 L 313 272.5 L 319.5 256 Z "></path><path d="M 295.5 259 L 296 262.5 L 294 264.5 L 279 315.5 L 274 327.5 L 274 331.5 L 269 345.5 L 267 356.5 L 261 375.5 L 261 379.5 L 255.5 394 L 255 390.5 L 260 377.5 L 261 368.5 L 272 332.5 L 272 328.5 L 277 316.5 L 293 262.5 L 295.5 259 Z "></path><path d="M 301.5 265 L 302 269.5 L 300 272.5 L 298 283.5 L 290 304.5 L 287 319.5 L 279 344.5 L 271.5 358 L 271 354.5 L 278 337.5 L 284 313.5 L 295 282.5 L 297 272.5 L 301.5 265 Z "></path><path d="M 82.5 328 Q 84.8 328.8 84 332.5 L 80 350.5 L 80 352.5 L 80 359.5 L 78 362.5 Q 78.6 368.6 76 371.5 L 75 383.5 L 69 409.5 L 69 416.5 L 67 425 Q 64 426.3 65 422.5 L 66 421.5 L 66 413.5 L 72 385.5 L 73 374.5 L 77 360.5 L 79 341.5 L 82.5 328 Z "></path><path d="M 13.5 330 L 14 333 L 12 332.5 L 13.5 330 Z "></path><path d="M 91 332 Q 95.9 330.2 94 336.5 L 86 368.5 L 86 375.5 L 79 412 Q 75.7 413.3 77 408.5 L 82 387.5 L 82 382.5 L 89 349.5 L 91 332 Z "></path><path d="M 192 398 Q 195.3 396.7 194 401.5 L 185 442 Q 182 443.3 183 439.5 L 186 430.5 L 186 425.5 L 188 420.5 L 192 398 Z "></path><path d="M 188 399 Q 191.7 397.6 190 403.5 L 187 414 Q 184.3 415.1 185 412.5 L 188 399 Z "></path><path d="M 198.5 401 Q 200.8 401.8 200 405.5 L 187 463 Q 183.3 464.4 185 458.5 L 188 449.5 L 189 440.5 L 191 437.5 L 191 432.5 L 193 427.5 L 196 407.5 L 198.5 401 Z "></path><path d="M 203 408 Q 206.7 406.6 205 412.5 L 202 425.5 L 202 431.5 L 198 450.5 L 197 462.5 L 189 501.5 L 189 503.5 L 187.5 507 L 187 503.5 L 195 463.5 L 203 408 Z "></path><path d="M 74 430 Q 77 428.8 76 432.5 L 72 450.5 L 72 455.5 L 66 477.5 L 66 484.5 L 61 511.5 L 61 518.5 L 58.5 523 L 58 521.5 L 59 520.5 L 59 513.5 L 62 499.5 L 63 486.5 L 65 480.5 L 65 478.5 L 65 473.5 L 68 464.5 L 68 459.5 L 71 449.5 L 71 442.5 L 74 430 Z "></path><path d="M 183.5 443 L 184 448.5 L 182.5 451 L 182 444.5 L 183.5 443 Z "></path><path d="M 301.5 523 L 307.5 524 L 311 526.5 Q 311.8 528.8 309.5 528 L 302 529.5 L 309 530 Q 310.1 533.5 302.5 532 L 302.5 533 L 311.5 533 L 312.5 534 L 314.5 533 L 319 534 Q 320.3 537.3 315.5 536 L 311.5 535 L 311.5 536 L 318.5 539 L 323.5 539 L 331 542.5 L 329.5 546 L 316.5 546 L 300 543 L 300 552.5 L 301 553.5 L 300 557.5 L 301 562.5 L 299.5 565 L 296 564 L 297 558.5 L 296 555.5 L 297 553.5 L 296 552.5 L 296 543 L 288.5 542 L 289 543.5 Q 289.8 545.8 287.5 545 L 281 543 Q 279.9 539.5 287.5 541 L 289.5 541 Q 296.4 543 295 539 L 277.5 539 L 277 537.5 L 278.5 536 L 289 534.5 L 283 532 L 283.5 530 L 299.5 530 L 299.5 529 Q 295.8 529.8 295 527.5 L 296 524 L 301.5 523 Z M 302 526 L 302 527 L 306 527 L 302 526 Z M 288 536 L 288 538 L 290 537 L 293 538 L 295 538 L 295 536 L 288 536 Z M 300 536 L 300 538 L 304 537 L 300 536 Z M 305 537 L 305 538 L 308 538 L 305 537 Z M 300 539 L 300 542 L 319 545 L 327 545 L 328 542 L 315 539 L 300 539 Z "></path><path d="M 58.5 526 L 59 529.5 L 56 543.5 L 54.5 545 L 54 540.5 L 57 531.5 L 57 527.5 L 58.5 526 Z "></path><path d="M 183.5 530 L 184 537.5 L 182 538.5 L 183.5 530 Z "></path><path d="M 343.5 540 L 344 541.5 L 344 543.5 L 342 547.5 L 344 551.5 L 344 553.5 L 343.5 555 L 342 552.5 L 343 549.5 L 341 546.5 L 342 544.5 L 341.5 541 L 343.5 540 Z "></path><path d="M 53 546 Q 56 544.8 55 548.5 L 53 554.5 L 49.5 578 L 48 574.5 L 53 546 Z "></path><path d="M 307 547 L 314 548 L 313.5 550 L 307 550 L 307 547 Z "></path><path d="M 340.5 559 L 344 559.5 L 341.5 561 L 340.5 559 Z "></path><path d="M 343.5 563 L 344 565.5 L 343 565.5 L 343.5 563 Z "></path><path d="M 342.5 575 L 343.5 577 L 340 576.5 L 342.5 575 Z "></path><path d="M 48 579 Q 50.7 577.9 50 580.5 L 48 581.5 L 48 579 Z "></path><path d="M 341.5 584 L 341 585.5 L 340.5 589 L 340 585.5 L 341.5 584 Z "></path><path d="M 343.5 584 L 346 587.5 L 343 589.5 L 344 585.5 L 343.5 584 Z "></path></svg>