<svg width="350" height="600" version="1.1" xmlns="http://www.w3.org/2000/svg" desc="Created with imagetracer.js version 1.2.5"><path d="M 105.5 5 L 106.5 6 L 136.5 6 L 139.5 5 L 140.5 6 L 174.5 6 Q 176.3 3.2 182.5 5 L 185.5 6 L 187.5 6 L 198.5 5 L 199.5 6 L 209.5 6 L 212.5 5 L 213.5 6 L 250.5 6 L 252.5 6 L 256.5 5 L 259.5 6 L 262.5 5 Q 263.8 7.3 268.5 6 Q 269.8 3.7 274.5 5 L 276.5 5 L 282.5 6 L 285.5 5 L 287.5 6 Q 289 3.5 294.5 5 L 296.5 5 L 304.5 6 Q 305.7 3.7 310.5 5 L 319.5 7 Q 320.8 4.7 325.5 6 L 327.5 7 L 333 6 L 333 47.5 L 334 48.5 L 333 50.5 L 333 52.5 L 334 55.5 L 334 95.5 L 335 97.5 L 334 99.5 L 335 101.5 L 334 103.5 L 335 104.5 L 335 191.5 L 334 194.5 L 335 198.5 L 334 203.5 L 335 204.5 L 335 294.5 L 336 295.5 L 335 298.5 L 336 303.5 L 335 306.5 L 336 314.5 L 336 316.5 L 336 337.5 L 335 338.5 L 336 340.5 L 335 342.5 L 336 343.5 L 336 418.5 L 337 421.5 L 336 422.5 L 336 499.5 Q 338.5 501 337 506.5 L 336 510.5 L 337 513.5 L 336 514.5 L 336 524.5 L 336 526.5 Q 334.3 532.8 337 534.5 L 336 536.5 L 337 538.5 L 336 539.5 L 336 547.5 L 337 550.5 L 336 568.5 L 337 570.5 L 336 575.5 L 337 577.5 L 336 579.5 L 336 581.5 L 336 595 L 328.5 595 L 327.5 596 L 296.5 596 L 295.5 595 L 267.5 595 L 266.5 594 L 190.5 594 Q 189 591.5 183.5 593 L 180.5 594 L 175.5 593 Q 173.8 595.8 167.5 594 L 164.5 593 L 161.5 594 L 96.5 594 Q 95.3 596.3 90.5 595 L 89.5 594 L 55.5 594 L 53.5 595 L 51.5 595 Q 45.3 596.7 43.5 594 L 41.5 595 L 39.5 595 L 7.5 595 L 7 591.5 L 8 588.5 L 7 584.5 L 8 579.5 L 8 577.5 L 8 561.5 L 7 560.5 L 8 559.5 L 8 520.5 L 7 519.5 L 7 510.5 L 8 509.5 L 8 436.5 Q 5.8 435.2 7 430.5 L 8 429.5 L 8 378.5 L 7 375.5 L 8 374.5 L 8 313.5 L 7 312.5 L 7 303.5 L 8 302.5 L 8 204.5 L 7 200.5 L 7 198.5 L 7 170.5 L 8 166.5 L 7 161.5 L 8 160.5 L 8 145.5 L 8 143.5 L 8 133.5 L 7 132.5 L 8 131.5 L 8 98.5 L 9 97.5 L 9 88.5 L 9 86.5 L 8 82.5 L 8 80.5 L 9 66.5 L 8 65.5 L 8 51.5 L 8 49.5 Q 9.8 38.8 7 32.5 L 8 28.5 L 7 27.5 L 7 8.5 L 8.5 7 L 104.5 6 L 105.5 5 Z M 108 9 L 105 10 L 106 14 L 109 10 L 108 9 Z M 116 9 L 115 13 L 115 22 L 116 23 L 116 37 L 115 38 L 117 45 L 115 51 Q 116 54 109 52 L 106 49 L 104 50 L 105 52 Q 104 55 107 54 L 109 54 L 117 54 L 117 57 L 111 57 L 110 56 L 106 57 L 103 62 L 105 63 L 112 63 Q 113 66 118 66 L 117 67 L 117 80 L 116 81 L 118 86 L 118 95 L 117 96 L 118 98 Q 119 102 117 104 Q 116 110 119 113 L 117 124 L 118 125 L 118 136 L 119 137 L 118 140 L 119 142 Q 120 146 118 148 L 119 189 L 120 190 L 119 192 L 119 201 L 120 202 L 119 208 L 113 209 L 105 209 L 104 208 L 100 209 L 67 209 L 66 208 L 58 208 L 56 208 L 43 208 L 42 209 L 40 208 Q 38 211 37 207 L 35 209 L 12 209 L 11 212 L 57 212 L 58 211 L 60 212 L 63 211 L 65 212 L 69 211 L 123 211 L 123 156 L 122 155 L 123 153 L 122 152 L 122 70 L 121 69 L 122 67 L 121 65 L 121 16 L 120 15 L 121 11 Q 120 8 116 9 Z M 123 9 L 123 30 L 124 31 L 124 65 L 125 66 L 124 69 L 125 74 L 124 76 L 125 80 L 124 85 L 125 87 L 126 212 L 129 216 L 141 264 L 141 266 L 145 274 L 145 195 L 145 191 L 144 186 L 144 139 L 143 138 L 144 136 L 143 134 L 143 90 L 143 88 L 142 85 L 143 83 L 142 81 L 141 11 L 140 9 L 123 9 Z M 148 9 L 147 17 L 149 17 L 149 11 L 148 9 Z M 152 9 L 152 17 L 154 18 L 158 17 L 160 18 L 176 18 L 178 18 L 183 17 L 185 17 L 194 18 L 194 20 L 187 20 Q 188 24 185 23 L 182 33 L 193 33 L 194 35 L 193 36 L 179 36 L 178 37 L 177 36 L 153 36 L 154 120 L 154 122 L 155 125 L 155 163 L 156 164 L 156 214 L 157 215 L 156 218 L 156 228 L 157 229 L 157 277 L 161 283 Q 160 290 154 294 Q 155 297 150 295 L 148 293 L 145 290 L 143 289 Q 144 284 142 283 L 144 277 L 136 277 L 135 278 L 119 278 L 116 277 L 114 278 L 76 278 L 75 279 Q 70 280 69 278 L 68 279 L 50 279 L 48 279 L 45 278 L 42 279 L 13 279 L 12 277 L 39 276 L 41 276 L 44 277 L 45 276 L 106 276 L 107 275 L 109 276 L 113 275 Q 117 274 119 276 L 120 275 L 141 275 L 138 260 L 136 256 L 136 252 L 125 213 L 117 213 L 116 214 L 33 214 L 32 215 L 30 214 L 28 214 L 26 215 L 11 215 L 11 272 Q 9 273 10 279 L 10 281 L 11 310 L 11 312 L 10 315 L 11 318 L 11 371 L 10 372 L 11 389 Q 15 387 25 388 L 27 388 L 35 385 L 50 382 L 54 376 L 60 374 L 73 379 L 84 378 L 85 375 L 92 373 L 115 372 L 116 371 L 120 372 L 123 371 L 151 373 L 153 373 L 155 374 L 160 372 L 162 372 L 171 371 L 188 365 L 191 357 L 191 352 L 193 346 L 196 339 L 199 336 L 185 335 L 184 334 L 182 335 Q 177 336 176 334 L 170 335 L 171 333 L 170 331 L 170 267 L 169 266 L 170 264 L 169 262 L 169 225 L 168 224 L 168 185 L 167 184 L 167 114 L 166 111 L 167 109 L 166 107 L 167 104 L 166 100 L 166 45 L 168 43 L 181 43 L 182 44 L 185 43 L 187 44 L 190 43 L 192 44 L 194 43 L 197 44 L 200 43 Q 204 42 206 45 L 203 45 L 201 45 L 193 46 L 191 46 L 187 45 L 185 46 L 169 46 L 169 152 L 170 153 L 170 195 L 171 196 L 172 289 L 173 290 L 172 295 L 173 296 L 173 332 Q 174 334 176 332 L 177 333 L 186 333 L 188 333 L 190 332 L 195 333 Q 196 331 201 332 L 205 328 L 205 325 L 212 325 L 217 332 L 278 332 L 279 331 Q 280 334 287 332 L 289 332 L 313 332 L 314 331 L 316 332 L 318 331 L 322 332 L 323 331 L 332 331 L 332 291 L 331 290 L 331 236 L 331 234 L 331 220 L 330 219 L 330 207 L 331 206 L 330 202 L 331 199 L 331 182 L 330 181 L 330 172 L 331 171 L 331 87 L 330 86 L 331 83 L 330 81 L 331 79 L 330 78 L 330 47 L 329 45 L 321 45 L 319 45 Q 311 47 312 43 L 329 43 L 330 42 L 329 40 Q 328 35 330 34 L 329 32 L 330 29 L 329 9 L 301 9 L 300 10 Q 294 12 293 9 L 289 10 L 274 9 L 272 9 Q 267 8 266 10 L 264 9 L 233 9 L 231 9 L 223 9 L 222 10 L 219 9 L 217 10 L 212 9 L 210 9 L 206 10 L 200 9 L 198 9 L 193 10 Q 186 12 185 9 L 183 10 L 170 10 L 168 10 L 152 9 Z M 19 10 L 17 11 L 18 13 L 20 12 Q 21 9 19 10 Z M 39 10 L 37 13 L 40 11 L 39 10 Z M 57 10 L 57 12 L 59 11 L 57 10 Z M 72 10 L 72 14 L 80 14 L 80 10 L 72 10 Z M 98 10 Q 96 14 100 13 L 101 14 Q 103 8 98 10 Z M 52 11 Q 47 13 47 19 L 50 18 L 54 19 L 56 18 Q 59 19 58 17 L 52 11 Z M 83 11 L 84 16 Q 83 18 86 17 L 87 14 L 83 11 Z M 110 11 L 108 15 L 110 21 Q 108 22 111 23 L 112 21 L 112 12 L 110 11 Z M 90 12 L 89 17 L 89 19 Q 86 18 87 21 L 93 20 L 95 14 Q 94 11 90 12 Z M 29 14 Q 28 16 32 15 L 33 16 Q 34 12 29 14 Z M 13 15 L 12 21 L 14 21 L 13 15 Z M 40 15 L 40 17 L 43 18 L 43 17 L 40 15 Z M 97 15 L 97 20 L 93 22 L 85 22 L 84 20 Q 79 21 78 17 Q 78 21 75 23 L 77 31 Q 74 38 82 36 Q 84 35 83 32 L 87 29 Q 95 28 99 32 L 99 52 L 98 53 L 98 54 L 102 54 L 102 44 L 103 43 L 103 26 L 100 20 L 100 17 L 97 15 Z M 70 16 L 70 19 L 74 19 L 74 18 L 70 16 Z M 25 19 L 21 20 L 23 24 L 20 30 Q 18 34 23 33 L 26 28 L 26 20 L 25 19 Z M 38 19 L 37 33 L 44 34 L 47 25 L 38 19 Z M 32 20 L 33 22 Q 34 19 32 20 Z M 61 20 L 57 23 L 60 29 L 61 26 L 61 20 Z M 147 20 L 147 33 L 150 33 L 150 24 L 149 23 Q 150 19 147 20 Z M 154 20 L 152 22 Q 151 26 153 28 L 153 33 L 156 33 Q 158 32 156 31 L 156 21 L 154 20 Z M 164 20 L 162 22 L 162 34 Q 165 32 173 33 L 173 31 L 168 23 Q 168 20 164 20 Z M 174 20 L 172 22 L 178 30 L 181 21 L 179 20 L 177 21 L 174 20 Z M 145 21 L 144 33 L 145 33 L 145 21 Z M 50 22 L 51 26 L 54 28 Q 56 20 50 22 Z M 14 24 L 13 29 L 17 28 L 18 26 L 14 24 Z M 33 24 L 30 25 L 29 28 L 31 31 L 34 30 Q 35 23 33 24 Z M 107 25 L 106 30 L 110 32 L 113 36 L 114 31 L 113 25 L 110 27 L 107 25 Z M 50 29 L 48 33 L 51 34 L 52 32 L 50 31 L 50 29 Z M 54 30 L 54 40 L 58 43 L 61 43 L 61 31 L 54 30 Z M 11 31 L 11 40 L 11 42 Q 10 45 13 44 L 17 38 L 14 33 L 11 31 Z M 88 31 L 86 33 Q 87 37 84 36 L 85 47 L 91 46 L 97 47 L 96 45 L 96 32 Q 94 30 88 31 Z M 27 33 L 24 35 L 23 37 L 27 35 L 32 36 L 30 37 L 32 38 L 24 41 Q 25 43 22 42 L 18 52 L 17 48 L 15 47 L 16 49 Q 14 55 18 54 L 19 58 L 26 63 L 28 62 L 28 57 L 25 57 L 23 55 L 23 53 L 29 56 L 32 55 L 38 48 Q 39 40 36 38 L 34 38 L 34 34 L 27 33 Z M 71 33 L 69 35 L 70 38 L 69 40 Q 67 46 73 44 L 74 38 Q 76 32 73 33 L 73 35 L 71 33 Z M 107 34 L 106 41 L 113 45 Q 115 46 114 44 L 114 42 L 113 41 L 107 34 Z M 42 36 L 41 40 L 42 40 L 42 36 Z M 145 36 L 144 56 L 145 56 L 145 36 Z M 148 36 L 148 98 L 149 99 L 148 101 L 149 102 L 150 175 L 150 177 L 151 179 L 151 224 L 152 225 L 151 229 L 152 232 L 153 276 L 153 202 L 153 200 L 152 198 L 151 82 L 150 81 L 151 79 L 150 74 L 151 72 L 150 69 L 150 67 L 150 37 L 148 36 Z M 48 37 Q 43 40 44 47 L 47 46 L 50 47 L 51 44 L 50 39 Q 51 36 48 37 Z M 19 38 L 19 40 L 21 39 L 19 38 Z M 80 38 L 77 39 Q 75 45 82 43 L 81 42 Q 82 37 80 38 Z M 55 44 L 54 50 L 56 51 L 55 44 Z M 59 45 L 59 52 L 61 53 L 61 46 L 59 45 Z M 79 45 L 77 47 L 79 53 Q 78 56 82 54 L 82 45 L 79 45 Z M 110 47 L 109 49 L 112 50 L 112 48 L 110 47 Z M 12 48 L 12 53 L 13 51 L 12 48 Z M 43 48 L 40 52 Q 43 53 45 50 L 51 52 L 51 49 L 43 48 Z M 91 48 L 90 49 Q 84 47 85 51 L 85 53 Q 84 55 88 54 L 90 54 L 97 54 L 96 52 Q 98 50 96 49 L 94 50 L 91 48 Z M 45 54 L 41 55 L 47 62 L 50 61 L 51 61 L 51 55 L 45 54 Z M 35 56 L 35 63 L 39 64 L 40 62 L 37 59 L 35 56 Z M 70 56 L 69 60 Q 77 61 80 58 L 78 57 L 76 57 L 70 56 Z M 85 56 L 83 58 L 84 60 Q 83 62 90 61 L 91 58 Q 90 55 85 56 Z M 96 56 Q 93 57 94 61 L 101 61 L 101 58 Q 100 55 99 57 L 96 56 Z M 13 57 L 13 63 L 14 63 L 13 57 Z M 54 57 L 54 60 Q 59 61 60 59 L 54 57 Z M 145 57 L 144 63 L 145 63 L 145 57 Z M 78 61 L 76 65 L 78 69 L 80 69 L 80 62 L 78 61 Z M 56 63 L 56 66 L 62 67 L 62 63 L 56 63 Z M 70 63 L 69 70 L 71 73 L 74 71 L 74 63 L 70 63 Z M 43 64 L 41 67 L 45 72 L 45 70 L 47 70 L 45 65 L 43 64 Z M 50 64 Q 49 69 53 70 L 53 66 L 50 64 Z M 104 65 L 104 71 L 104 72 L 108 71 L 110 67 L 110 65 L 104 65 Z M 144 65 L 145 70 L 145 121 L 145 123 L 145 136 L 146 137 L 145 140 L 145 142 L 146 147 L 146 184 L 147 185 L 146 189 L 147 191 L 147 251 L 148 252 L 147 255 L 148 257 L 148 276 L 150 275 L 149 273 L 149 220 L 148 219 L 149 216 L 148 215 L 148 161 L 147 160 Q 145 153 148 152 L 147 151 L 147 116 L 146 115 L 147 112 L 146 110 L 146 66 L 144 65 Z M 36 67 L 36 70 L 36 72 L 37 74 L 41 73 L 40 70 Q 41 65 36 67 Z M 12 68 L 11 105 L 12 108 L 12 110 L 11 112 L 12 119 L 18 126 L 18 146 L 19 149 L 29 161 L 31 160 L 28 156 L 28 124 L 25 119 L 25 104 L 29 103 L 30 103 L 30 91 Q 32 89 30 88 L 28 89 L 25 88 Q 16 80 12 68 Z M 112 68 L 111 72 L 112 74 L 114 75 Q 116 67 112 68 Z M 56 69 L 55 73 L 62 77 Q 64 78 63 72 Q 61 68 56 69 Z M 79 70 L 77 73 Q 73 74 77 76 L 80 75 L 79 70 Z M 85 71 L 83 74 L 89 74 L 89 73 Q 88 70 85 71 Z M 49 72 L 46 76 L 47 79 Q 48 82 53 81 L 52 80 L 53 78 L 53 80 Q 56 81 55 77 L 49 74 L 49 72 Z M 20 75 L 22 78 L 30 80 L 36 78 L 36 75 L 32 77 L 20 75 Z M 69 76 L 69 80 L 71 81 Q 73 75 69 76 Z M 80 78 L 77 79 L 76 83 L 73 84 L 69 83 L 71 87 L 81 85 Q 82 80 80 78 Z M 59 80 Q 56 82 59 83 L 63 83 L 59 80 Z M 45 84 L 41 85 L 42 88 L 39 85 L 38 87 L 35 86 L 34 91 L 34 93 Q 33 95 37 94 L 39 94 L 41 95 L 43 97 L 42 95 L 45 94 L 43 93 L 46 92 L 47 93 Q 48 90 46 91 Q 43 90 45 89 L 44 88 L 45 86 L 46 89 L 49 90 L 50 90 L 47 88 L 45 84 Z M 56 84 L 55 86 L 62 88 L 62 86 L 56 84 Z M 101 86 L 99 89 Q 97 90 100 91 L 103 90 L 102 88 Q 103 85 101 86 Z M 115 88 L 113 91 L 115 92 L 115 88 Z M 56 89 L 57 91 Q 59 90 58 93 L 61 94 L 62 91 Q 61 88 56 89 Z M 107 90 L 105 91 Q 101 93 101 98 L 105 98 L 108 96 Q 109 91 107 90 Z M 51 92 L 51 95 L 57 100 L 59 97 Q 57 91 51 92 Z M 112 92 L 111 99 L 113 99 L 114 97 L 112 92 Z M 46 94 L 47 95 L 48 96 Q 49 93 46 94 Z M 94 94 L 92 96 L 95 97 L 94 94 Z M 96 94 L 97 97 L 98 95 L 96 94 Z M 73 95 Q 70 102 75 100 Q 76 96 73 95 Z M 85 95 L 85 96 L 87 96 L 85 95 Z M 33 97 L 34 111 L 37 116 Q 36 120 41 118 L 40 115 L 40 106 L 41 105 L 40 99 Q 38 95 33 97 Z M 79 97 L 78 100 L 82 101 L 82 99 L 79 97 Z M 50 98 L 47 100 Q 43 99 44 102 L 54 106 L 55 103 L 50 98 Z M 108 99 L 106 101 L 108 104 L 111 115 L 111 107 L 112 106 L 112 104 L 108 99 Z M 97 100 L 95 103 L 99 104 L 103 114 Q 102 116 105 115 Q 106 117 107 115 Q 104 112 105 105 Q 102 101 97 100 Z M 60 103 L 57 107 L 58 111 L 57 122 L 61 125 L 62 124 L 61 121 Q 59 114 62 113 L 61 105 L 60 103 Z M 72 103 L 73 110 L 75 105 L 72 103 Z M 78 103 L 77 108 L 79 110 L 81 105 Q 82 102 78 103 Z M 87 103 Q 82 105 85 107 L 84 109 Q 85 112 81 110 L 83 117 L 81 116 L 80 119 L 85 122 L 88 122 Q 89 118 91 121 Q 90 115 93 112 L 92 105 Q 91 102 87 103 Z M 43 105 L 44 124 L 50 139 L 50 149 L 51 150 Q 48 151 50 158 L 53 160 L 52 155 Q 54 147 53 137 L 54 136 L 52 129 L 52 125 L 55 117 L 54 110 L 43 105 Z M 97 107 L 94 118 Q 93 122 98 120 L 101 119 L 97 107 Z M 115 108 L 114 113 L 115 113 L 115 108 Z M 76 112 Q 73 119 77 123 L 81 126 Q 82 122 79 123 Q 76 119 76 112 Z M 72 113 L 71 119 L 72 119 L 72 113 Z M 114 117 L 111 119 Q 114 121 113 128 L 115 129 L 115 118 L 114 117 Z M 104 118 L 104 121 L 107 122 Q 110 123 108 119 L 104 118 Z M 72 121 L 72 124 L 75 126 L 73 123 Q 74 120 72 121 Z M 14 127 L 13 130 L 14 130 L 14 127 Z M 61 127 L 61 130 Q 64 129 61 127 Z M 77 132 L 74 134 L 76 134 L 77 135 L 77 132 Z M 58 134 L 56 137 L 57 142 L 58 142 L 58 134 Z M 62 134 L 61 139 L 62 139 L 62 134 Z M 72 134 L 73 140 Q 72 142 76 141 Q 78 140 77 137 L 76 137 Q 77 140 75 139 L 73 138 L 74 135 L 72 134 Z M 12 135 L 11 141 L 13 140 Q 14 136 12 135 Z M 91 136 L 87 138 L 86 141 L 88 145 L 86 146 L 86 145 L 86 142 L 83 149 L 84 150 L 90 145 L 89 143 L 90 143 Q 89 145 92 144 L 93 142 L 93 136 L 91 136 Z M 113 136 L 112 139 L 113 139 L 113 136 Z M 45 142 Q 43 145 39 144 L 37 148 L 31 151 Q 30 156 34 154 L 33 159 L 36 161 Q 35 158 38 159 L 39 162 L 39 163 Q 43 164 42 162 L 45 160 L 44 164 L 45 165 L 47 164 L 47 143 L 45 142 Z M 79 142 Q 75 144 75 149 L 74 152 L 76 156 L 80 158 L 81 156 L 79 147 L 81 143 L 79 142 Z M 14 144 Q 15 146 14 154 Q 15 157 19 156 L 19 154 L 15 148 Q 16 143 14 144 Z M 58 145 L 56 147 L 56 157 L 58 156 L 58 145 Z M 31 146 L 31 148 L 34 147 L 31 146 Z M 97 147 L 95 148 L 93 152 L 88 156 L 85 154 Q 82 153 83 158 Q 85 156 88 160 Q 94 161 97 158 L 100 153 L 99 149 Q 100 146 97 147 Z M 12 151 L 11 154 L 12 154 L 12 151 Z M 72 155 L 72 157 Q 71 159 74 158 L 73 157 Q 74 154 72 155 Z M 12 157 L 10 159 L 11 163 L 12 163 L 12 157 Z M 17 158 L 15 160 L 17 163 L 18 160 Q 19 157 17 158 Z M 22 159 L 21 168 L 23 176 L 24 168 Q 26 161 22 159 Z M 62 159 L 58 162 L 56 164 L 55 181 L 54 182 Q 55 184 59 183 L 62 178 L 62 159 Z M 83 160 L 81 163 L 84 164 L 83 160 Z M 92 162 L 92 169 L 95 169 L 94 168 Q 96 161 92 162 Z M 27 163 Q 28 171 25 176 L 25 187 L 27 188 L 34 189 L 36 189 L 40 188 L 41 186 L 46 182 L 51 183 L 52 182 L 53 165 L 45 167 L 38 166 L 33 163 L 27 163 Z M 76 163 L 72 166 L 77 168 Q 79 167 78 164 L 76 163 Z M 12 165 L 11 168 L 12 168 L 12 165 Z M 16 165 L 14 169 Q 13 173 18 171 L 19 172 L 18 166 L 16 165 Z M 91 165 L 90 169 L 91 169 L 91 165 Z M 87 167 L 84 177 Q 82 182 86 181 L 87 182 L 87 167 Z M 90 172 L 91 176 L 90 178 L 91 181 L 97 182 L 96 174 Q 95 171 90 172 Z M 13 174 L 11 178 Q 10 181 16 179 L 15 178 Q 17 173 13 174 Z M 73 174 L 71 176 Q 70 179 74 178 L 75 175 L 73 174 Z M 22 176 L 20 181 L 22 182 L 22 176 Z M 12 181 L 11 185 L 12 185 L 12 181 Z M 80 181 L 78 183 L 79 190 L 80 190 L 80 181 Z M 62 183 L 60 185 Q 59 189 62 188 L 62 183 Z M 73 183 L 72 186 L 73 186 L 73 183 Z M 48 184 L 46 185 L 44 188 Q 42 192 36 190 L 40 195 L 40 194 L 43 191 L 55 191 L 57 187 L 48 184 Z M 85 184 L 84 191 L 88 191 L 89 192 L 88 185 L 85 184 Z M 92 184 L 92 191 Q 94 195 100 193 L 98 185 L 92 184 Z M 21 191 L 18 195 L 20 198 L 22 197 L 21 191 Z M 11 193 L 11 196 L 13 195 Q 14 192 11 193 Z M 34 193 L 31 195 L 28 199 L 30 198 L 33 198 L 33 204 L 36 203 L 45 204 L 46 202 L 45 195 L 44 193 L 41 198 L 34 193 Z M 73 193 L 73 196 L 76 194 L 75 193 L 73 193 Z M 116 193 L 113 195 L 103 195 L 96 196 L 97 198 L 116 198 L 116 193 Z M 86 194 L 84 197 L 86 200 L 91 198 Q 94 199 93 197 L 92 195 Q 87 196 86 194 Z M 15 196 L 12 199 L 16 199 L 15 196 Z M 78 196 L 76 197 L 74 197 L 73 199 L 76 200 L 81 199 L 78 196 Z M 59 197 L 57 198 L 54 202 L 54 203 L 59 203 L 60 200 L 61 202 L 62 201 L 59 197 Z M 48 198 L 48 201 L 51 202 L 52 200 L 48 198 Z M 24 200 L 23 204 L 27 203 L 29 204 L 30 200 L 28 201 L 24 200 Z M 91 201 Q 90 205 95 203 Q 96 199 91 201 Z M 112 201 L 113 203 L 116 203 L 112 201 Z M 150 280 L 152 282 L 154 281 L 150 280 Z M 146 281 Q 144 284 147 283 L 147 286 L 147 287 L 149 286 L 150 289 L 148 290 L 152 291 L 153 289 Q 152 286 156 287 L 155 286 Q 156 283 153 284 L 151 284 Q 147 285 148 282 L 146 281 Z M 155 282 Q 154 285 157 284 Q 158 281 155 282 Z M 207 327 L 206 332 L 207 332 L 207 327 Z M 211 327 L 209 331 L 212 336 L 213 347 Q 215 348 213 349 Q 209 350 210 348 L 209 348 Q 210 352 206 350 L 206 353 L 203 353 L 201 342 L 200 342 L 201 357 Q 204 361 203 368 L 201 369 L 199 368 Q 193 367 192 369 L 189 367 L 175 372 Q 172 371 173 374 L 183 379 L 182 383 Q 179 384 180 381 L 178 378 L 173 377 L 171 377 L 179 394 Q 177 399 181 398 L 182 399 Q 181 390 177 385 Q 179 382 180 385 Q 179 388 183 386 Q 186 391 186 400 L 187 400 Q 189 394 186 393 L 187 386 Q 191 388 189 396 L 191 397 L 191 388 L 193 387 L 194 392 Q 193 387 196 385 L 197 387 L 199 376 L 198 371 L 207 368 L 215 368 L 217 366 L 221 355 L 220 343 L 221 341 Q 218 340 219 344 L 219 346 Q 220 350 216 348 L 215 346 L 216 342 L 211 327 Z M 208 332 L 208 347 L 209 347 Q 210 337 208 332 Z M 204 333 L 203 336 L 204 336 L 204 333 Z M 273 333 L 272 334 L 228 334 L 227 335 L 226 334 L 217 334 L 218 338 L 221 337 L 222 339 L 224 349 L 224 353 L 220 364 L 220 366 L 225 366 L 225 368 L 231 368 Q 231 371 236 370 L 240 374 L 257 382 L 259 388 L 265 386 L 267 390 L 270 391 Q 267 388 268 382 L 277 378 L 281 373 L 289 375 L 294 372 Q 296 371 295 375 L 298 376 L 300 381 L 298 380 L 296 383 L 293 382 L 291 379 L 295 381 L 297 380 L 296 378 Q 297 375 293 376 L 293 374 L 290 376 L 280 375 L 279 379 L 277 380 L 279 384 Q 281 385 279 386 L 276 382 Q 277 379 275 380 L 270 383 L 270 386 L 276 394 L 275 396 L 271 395 L 272 399 L 278 403 L 284 402 Q 286 397 280 399 L 279 396 Q 276 397 277 394 L 280 395 L 291 393 L 291 390 Q 288 391 289 389 L 291 387 L 294 388 L 294 385 L 299 387 L 299 386 L 302 385 Q 304 386 303 384 L 305 384 L 304 382 L 306 381 L 308 386 L 307 388 Q 309 391 310 388 L 309 383 L 305 380 L 306 378 L 305 374 L 303 373 L 299 374 L 296 373 L 300 372 L 302 372 L 304 371 L 311 375 L 310 374 Q 307 373 308 376 L 313 375 Q 318 379 319 388 L 319 390 Q 322 395 321 405 Q 328 409 331 418 L 332 418 L 332 379 Q 330 377 331 373 L 331 371 Q 330 365 332 364 Q 333 359 331 358 L 332 356 L 332 337 L 331 336 L 332 333 L 304 333 L 303 334 L 300 333 L 296 334 L 294 334 L 274 334 L 273 333 Z M 205 337 L 204 345 L 205 345 L 205 337 Z M 197 344 L 196 347 L 197 347 L 197 344 Z M 196 347 L 194 351 L 195 353 L 192 363 Q 190 364 193 365 L 196 360 L 196 347 Z M 206 347 L 205 350 L 206 350 L 206 347 Z M 205 371 L 201 372 L 198 407 L 194 415 L 190 417 L 193 419 L 192 428 L 190 430 Q 188 435 192 434 L 194 428 L 197 426 L 199 427 Q 199 434 194 437 Q 193 440 199 438 L 201 435 Q 202 430 200 429 L 204 423 L 206 424 L 209 433 L 213 436 L 218 433 Q 220 434 219 431 L 217 431 L 209 425 Q 210 422 207 423 L 207 420 L 219 429 L 222 430 L 221 428 L 222 426 Q 221 422 225 424 L 223 418 Q 226 416 222 414 L 209 417 L 206 416 L 208 414 L 218 413 L 219 412 L 218 410 Q 217 406 220 407 L 216 403 L 217 401 Q 218 397 214 399 L 214 397 L 217 396 L 214 395 L 214 392 Q 218 393 217 390 L 213 389 Q 212 385 217 387 L 217 385 L 213 385 L 213 384 Q 214 381 216 383 L 217 383 Q 216 380 211 381 Q 210 378 213 379 L 211 377 L 215 375 L 209 374 L 210 372 L 205 371 Z M 220 372 L 220 374 L 226 375 L 226 373 L 220 372 Z M 232 372 L 229 373 L 230 378 L 235 375 L 244 388 L 246 387 L 247 387 L 247 391 Q 250 392 249 388 L 254 388 L 255 391 L 255 390 L 257 390 L 254 383 L 245 380 L 234 372 L 232 372 Z M 110 374 L 109 375 L 99 375 L 98 376 L 96 375 L 91 376 Q 88 377 90 379 Q 91 381 89 380 L 89 381 L 93 380 L 95 381 Q 97 382 96 379 Q 99 378 98 381 L 102 381 L 101 380 Q 102 377 104 379 L 106 378 Q 108 383 104 382 L 104 380 L 102 383 L 101 382 L 91 383 L 93 389 L 91 394 L 97 393 Q 99 389 94 390 L 94 387 L 98 387 Q 97 391 100 390 L 101 388 Q 100 385 103 386 L 102 389 L 102 390 L 106 390 L 108 387 Q 110 386 109 389 L 109 390 L 110 390 L 110 386 L 112 386 L 113 389 L 113 386 Q 116 385 115 388 L 116 388 Q 115 385 118 386 L 120 389 Q 122 390 121 386 Q 126 385 124 389 Q 128 390 126 385 L 128 385 L 129 389 L 132 385 L 133 388 L 133 387 L 136 385 L 137 388 L 138 385 L 140 386 Q 139 389 142 388 L 143 384 Q 147 383 145 388 L 147 389 L 140 390 L 135 389 L 126 391 L 110 391 L 107 392 L 104 391 L 98 392 L 97 400 L 98 400 Q 97 396 100 397 L 101 399 L 101 397 Q 106 396 108 399 L 108 397 L 112 398 L 114 401 L 114 397 Q 117 396 116 399 Q 119 400 118 397 Q 121 396 120 401 L 122 402 Q 121 395 124 396 L 126 401 L 126 396 L 129 396 L 129 401 L 131 401 L 131 395 Q 136 393 134 399 L 135 399 Q 134 395 137 396 L 138 397 Q 137 394 140 395 L 142 399 L 142 395 Q 145 394 144 397 L 145 397 Q 144 394 148 395 L 150 398 Q 152 399 151 395 L 153 395 L 155 398 L 155 395 Q 160 394 158 398 Q 161 399 160 396 L 163 394 L 164 397 L 166 394 L 167 397 L 168 397 L 164 385 L 163 389 Q 160 391 153 390 Q 152 387 155 388 L 154 387 L 156 384 Q 158 383 157 388 L 158 388 Q 156 383 160 384 Q 161 386 162 384 L 160 380 L 159 380 Q 160 384 157 383 L 157 380 L 153 382 Q 152 378 155 377 L 151 375 L 138 375 L 137 374 L 117 374 L 115 376 L 111 376 Q 112 373 110 374 Z M 162 374 L 160 376 L 162 376 L 162 374 Z M 59 376 L 52 385 L 56 392 L 57 397 L 61 396 Q 62 400 59 399 L 61 403 L 63 399 L 63 393 Q 59 395 60 391 L 62 391 L 62 389 L 59 388 L 62 386 L 60 384 Q 59 381 62 382 L 62 380 L 65 380 L 64 378 L 60 378 Q 61 375 59 376 Z M 166 378 L 164 381 L 166 380 L 166 378 Z M 234 378 L 234 382 L 236 383 L 234 378 Z M 311 378 L 313 381 L 313 380 L 311 378 Z M 222 379 L 220 381 L 220 392 L 220 394 Q 219 396 222 395 L 223 398 L 225 395 L 226 396 L 226 407 L 227 407 L 227 398 L 230 397 L 231 406 L 231 395 Q 234 394 233 398 L 234 398 Q 233 394 236 395 L 237 399 L 238 393 L 235 385 L 234 388 L 232 386 L 231 386 L 229 381 L 228 384 Q 224 385 226 380 L 222 381 L 222 379 Z M 81 380 L 75 381 L 77 385 L 85 384 Q 87 378 81 380 Z M 314 381 L 312 384 L 314 384 L 314 381 Z M 71 382 L 69 384 Q 68 386 71 385 L 71 382 Z M 169 382 L 166 384 L 169 385 Q 172 384 169 382 Z M 63 386 L 64 388 Q 65 385 63 386 Z M 76 386 L 72 393 Q 71 395 75 394 L 76 396 L 79 395 L 80 401 L 81 401 Q 82 396 80 395 L 80 393 L 84 393 L 85 389 L 84 386 Q 79 385 78 387 L 76 386 Z M 89 386 L 88 389 L 89 389 L 89 386 Z M 69 387 L 66 392 L 67 396 L 70 388 L 69 387 Z M 36 388 L 11 392 L 11 406 L 10 407 Q 8 412 12 414 L 12 410 L 18 407 L 19 411 Q 17 415 21 414 L 20 413 Q 18 405 22 406 L 23 408 L 24 414 L 26 413 L 25 411 Q 23 404 28 406 L 30 413 L 30 407 Q 28 405 31 404 Q 34 406 33 412 L 35 412 L 35 404 L 38 406 Q 36 413 41 411 L 40 405 Q 39 401 42 402 Q 44 403 43 407 L 44 407 Q 43 399 46 400 L 47 404 L 48 404 L 46 399 L 48 397 L 50 399 L 44 390 L 44 388 L 36 388 Z M 306 388 L 305 396 L 303 398 L 304 400 L 308 394 Q 305 392 306 388 Z M 264 389 L 260 391 L 258 390 L 256 394 L 261 401 Q 260 403 263 402 L 265 400 Q 266 403 268 401 Q 271 400 270 403 L 268 404 Q 270 408 272 405 Q 271 410 275 412 L 275 415 Q 278 414 277 418 L 279 418 L 278 416 Q 279 413 276 414 L 275 407 L 269 396 L 268 398 L 266 395 L 268 395 L 266 391 L 265 394 L 263 393 Q 262 390 265 391 L 264 389 Z M 53 390 L 54 398 L 55 398 Q 56 392 53 390 Z M 88 390 L 86 393 L 89 393 L 88 390 Z M 174 393 L 172 396 Q 177 398 176 394 L 174 393 Z M 299 393 L 299 396 L 301 395 Q 302 392 299 393 Z M 247 394 L 246 395 Q 240 394 242 398 L 249 396 L 247 394 Z M 251 395 L 254 399 Q 256 400 255 398 L 251 395 Z M 296 395 L 294 397 L 297 397 Q 298 394 296 395 Z M 315 397 L 314 400 L 315 400 L 315 397 Z M 309 398 L 307 402 L 309 401 L 309 398 Z M 84 399 L 83 402 L 85 406 L 86 400 L 84 399 Z M 173 399 L 171 401 L 169 400 Q 166 399 167 402 L 162 404 L 149 404 L 148 405 L 145 404 L 142 405 L 137 404 L 136 405 L 128 405 L 126 405 L 117 407 L 104 407 L 103 408 L 94 408 L 93 406 Q 89 405 91 410 L 95 412 L 95 410 L 98 412 L 97 414 Q 101 415 99 410 Q 104 408 102 414 L 104 414 L 104 409 Q 109 407 107 413 L 111 413 L 113 409 L 114 409 L 114 413 Q 119 415 117 410 L 120 410 Q 119 414 122 413 L 123 409 L 126 411 Q 125 414 129 413 L 128 412 L 130 409 L 131 409 L 131 413 L 135 413 L 134 411 Q 135 408 137 410 Q 140 409 138 413 L 143 413 L 143 409 L 145 409 L 147 413 L 147 411 L 150 409 L 152 413 Q 154 412 152 411 Q 151 408 155 409 L 156 413 L 158 413 L 157 409 L 160 408 L 161 412 L 162 409 Q 166 407 165 412 L 167 411 Q 166 406 169 407 L 169 404 L 173 402 L 173 399 Z M 175 399 L 175 401 L 177 402 Q 178 398 175 399 Z M 294 399 L 290 401 L 293 401 L 292 403 L 295 403 L 294 399 Z M 66 400 L 65 405 L 67 412 L 68 412 Q 69 404 66 400 Z M 149 400 Q 148 403 151 402 Q 152 399 149 400 Z M 159 400 Q 159 404 161 401 L 159 400 Z M 224 400 L 223 403 L 224 403 L 224 400 Z M 56 401 L 55 407 L 56 410 L 55 412 L 56 413 L 58 412 L 56 401 Z M 237 401 Q 236 404 239 403 Q 240 400 237 401 Z M 288 401 L 285 404 L 286 405 L 290 402 L 288 401 Z M 305 401 L 302 405 L 305 403 L 305 401 Z M 77 402 L 76 405 L 77 405 L 77 402 Z M 241 402 L 238 407 L 240 410 Q 239 413 242 412 L 241 416 L 244 418 L 242 419 L 241 422 L 242 424 L 241 428 L 245 429 L 245 428 L 246 428 L 245 431 L 246 437 L 246 435 L 249 433 L 250 438 L 252 434 L 254 435 L 257 430 L 259 434 L 262 426 L 264 431 L 265 423 Q 264 419 267 420 Q 269 421 268 426 L 269 426 Q 270 418 267 415 Q 266 411 269 412 L 270 415 L 271 415 L 269 410 L 264 406 L 262 406 L 260 407 L 254 404 L 251 405 Q 246 406 245 404 Q 242 405 243 402 L 241 402 Z M 291 403 L 288 407 L 292 404 L 291 403 Z M 60 404 L 59 407 L 60 407 L 60 404 Z M 174 404 L 173 407 L 176 408 L 177 406 L 174 404 Z M 235 404 L 234 407 L 235 407 L 235 404 Z M 299 405 L 296 406 L 297 408 L 301 406 L 299 405 Z M 306 405 L 301 408 L 301 409 Q 305 410 306 407 L 306 405 Z M 221 406 L 223 410 L 224 408 L 221 406 Z M 45 407 L 44 410 L 45 410 L 45 407 Z M 234 407 L 233 410 L 236 415 L 236 423 L 238 424 L 239 421 Q 238 412 234 407 Z M 288 407 L 285 411 Q 284 415 286 417 Q 285 420 288 419 L 287 413 L 291 415 L 288 407 Z M 293 408 L 291 410 L 294 411 L 293 408 Z M 232 411 L 230 420 L 231 421 L 232 431 L 234 426 L 233 414 L 232 411 Z M 94 412 L 92 415 L 94 415 L 94 412 Z M 170 412 L 167 414 Q 160 412 159 415 L 156 414 L 154 414 L 151 415 L 146 414 L 144 414 Q 139 413 138 415 L 119 415 L 118 414 L 114 415 L 115 421 L 116 419 Q 115 414 119 416 L 118 421 Q 117 423 120 422 Q 119 417 122 416 Q 124 417 124 422 L 125 419 Q 124 415 127 416 L 129 420 L 129 417 L 135 418 L 136 423 L 136 418 L 139 419 L 142 418 L 143 424 Q 145 423 143 422 L 145 418 Q 147 419 146 424 L 148 424 L 148 419 L 152 421 L 152 418 Q 157 416 155 424 L 156 424 Q 155 416 158 417 L 159 419 L 159 417 L 165 416 Q 168 417 166 424 L 167 424 Q 169 417 166 416 L 169 415 L 170 416 L 170 412 Z M 305 412 L 306 413 L 301 420 L 300 424 Q 301 427 305 426 L 305 423 Q 301 425 302 421 L 308 418 L 307 414 Q 308 411 305 412 Z M 318 412 L 317 417 L 322 415 L 318 414 L 318 412 Z M 225 413 L 227 415 L 226 418 L 228 422 L 228 415 L 225 413 Z M 62 414 L 61 416 Q 63 419 64 416 L 62 414 Z M 73 414 L 73 415 L 78 415 L 73 414 Z M 292 414 L 293 420 L 294 420 Q 296 413 292 414 Z M 81 415 L 81 416 L 83 416 L 81 415 Z M 104 415 L 102 417 Q 101 419 104 418 L 104 415 Z M 107 415 L 107 417 L 109 416 L 111 417 L 113 416 L 107 415 Z M 272 415 L 271 418 L 272 418 L 272 415 Z M 99 416 L 89 419 L 92 419 L 92 420 Q 89 419 90 422 Q 96 424 94 418 Q 98 416 97 421 Q 99 424 100 421 Q 101 417 99 416 Z M 175 416 L 173 420 Q 175 423 176 420 L 175 416 Z M 43 418 Q 41 421 44 420 L 43 418 Z M 107 418 L 106 421 L 107 421 L 107 418 Z M 111 418 L 110 422 L 111 422 L 111 418 Z M 51 419 L 52 421 Q 53 418 51 419 Z M 163 419 L 162 424 L 163 424 L 163 419 Z M 132 420 L 131 423 L 132 423 L 132 420 Z M 295 420 L 294 422 L 298 424 L 295 420 Z M 51 422 L 52 424 Q 53 421 51 422 Z M 57 422 L 58 424 Q 59 421 57 422 Z M 152 422 L 150 424 L 152 424 L 152 422 Z M 311 422 Q 310 425 313 424 Q 314 421 311 422 Z M 278 424 L 276 426 L 279 428 L 278 424 Z M 283 425 L 285 427 Q 286 424 283 425 Z M 289 425 L 290 427 Q 291 424 289 425 Z M 11 426 L 12 429 Q 16 430 15 428 L 14 428 L 11 426 Z M 225 426 L 224 429 L 225 429 L 225 426 Z M 24 427 L 20 429 L 33 429 L 32 427 Q 27 426 26 428 L 24 427 Z M 327 427 L 326 430 L 327 430 L 327 427 Z M 17 428 L 17 429 L 19 429 L 17 428 Z M 84 428 L 84 429 L 110 429 L 84 428 Z M 113 428 L 113 429 L 117 429 L 113 428 Z M 292 428 L 290 430 L 292 431 L 292 428 Z M 296 428 L 296 430 L 299 430 L 296 428 Z M 307 428 Q 306 431 310 430 Q 311 427 307 428 Z M 315 428 L 315 429 L 317 429 L 315 428 Z M 61 429 L 60 430 L 53 430 L 52 432 L 64 433 L 46 433 L 45 434 L 21 434 L 20 433 L 18 434 L 11 434 L 11 451 L 188 451 L 189 450 Q 193 449 195 451 L 197 450 L 199 450 Q 205 448 207 451 L 209 450 L 212 451 L 214 451 L 219 450 L 221 450 L 235 450 L 236 451 L 238 450 L 241 451 L 243 451 L 253 451 L 254 450 L 256 451 L 258 451 L 325 451 L 323 450 Q 321 446 320 449 L 317 442 L 315 443 L 312 442 L 305 443 L 303 443 L 300 442 L 298 443 L 296 442 L 295 443 L 277 443 L 274 444 L 264 442 L 263 439 L 259 441 Q 252 439 251 442 Q 244 442 241 438 L 223 445 Q 214 444 210 447 L 206 445 Q 202 449 193 447 L 188 443 L 184 432 Q 179 431 180 434 L 128 434 L 126 434 L 100 434 L 97 433 L 94 434 Q 86 435 84 432 L 76 432 L 75 433 L 65 433 L 68 432 L 72 432 Q 75 433 76 431 L 76 429 L 67 429 L 65 429 L 63 430 L 61 429 Z M 285 429 Q 284 432 287 431 Q 288 428 285 429 Z M 29 430 L 28 432 L 31 432 L 29 430 Z M 34 430 L 34 431 L 40 431 L 34 430 Z M 43 430 L 43 431 L 47 432 L 51 431 L 43 430 Z M 276 430 Q 274 433 277 432 L 276 430 Z M 20 431 L 20 432 L 25 432 L 20 431 Z M 103 431 L 103 432 L 147 432 L 103 431 Z M 310 431 Q 307 433 310 434 Q 314 435 313 433 L 310 431 Z M 159 432 L 159 433 L 161 433 L 159 432 Z M 298 432 L 297 434 L 300 433 L 298 432 Z M 287 433 L 287 435 L 289 434 L 287 433 Z M 277 434 L 277 436 L 279 437 Q 280 433 277 434 Z M 329 435 L 329 438 L 327 438 Q 326 440 329 439 L 330 440 Q 331 436 329 435 Z M 215 438 L 213 441 Q 212 443 215 442 L 215 438 Z M 328 442 L 325 444 L 325 446 Q 324 450 328 448 L 329 446 Q 330 441 328 442 Z M 329 450 L 329 451 L 332 452 L 333 452 Q 332 449 329 450 Z M 32 453 L 29 455 L 31 460 L 32 460 L 32 453 Z M 57 453 L 55 455 L 56 460 L 57 455 L 57 453 Z M 113 453 L 112 454 L 97 455 L 100 461 L 100 455 L 104 457 L 104 455 L 107 455 L 107 461 L 109 461 L 108 456 L 111 456 L 111 461 L 114 461 L 114 454 L 113 453 Z M 122 453 L 121 454 Q 116 452 117 456 L 120 457 L 119 459 Q 118 462 121 461 L 122 457 L 122 453 Z M 135 453 L 136 461 Q 138 460 136 459 L 138 455 L 135 453 Z M 148 453 L 145 454 L 146 461 Q 148 460 146 459 L 147 455 Q 152 453 150 460 L 151 460 Q 149 454 153 455 Q 155 456 155 461 L 155 453 L 150 454 L 148 453 Z M 163 453 L 162 458 Q 161 461 164 460 L 165 455 Q 166 452 163 453 Z M 168 453 L 167 460 L 170 461 L 169 459 Q 168 455 171 454 L 172 455 L 172 460 L 174 460 L 176 456 L 177 456 L 177 461 L 180 461 L 180 453 L 178 453 L 175 454 L 168 453 Z M 184 453 L 183 460 L 184 460 L 184 453 Z M 187 453 L 188 461 L 189 455 Q 190 452 187 453 Z M 191 453 L 191 461 L 193 460 L 195 461 L 196 456 Q 195 453 199 454 L 198 458 Q 196 463 202 461 L 202 455 L 203 454 L 191 453 Z M 205 453 L 205 455 Q 204 462 207 461 L 206 458 L 209 454 L 210 457 Q 208 463 213 461 L 212 459 Q 211 455 214 454 Q 216 453 215 460 L 218 461 L 217 459 L 219 454 L 205 453 Z M 221 453 L 220 459 L 222 461 Q 221 455 224 454 L 221 453 Z M 227 453 L 224 460 L 227 461 L 226 457 L 228 454 L 230 456 Q 227 463 234 461 L 233 460 Q 232 455 235 454 L 236 455 L 236 461 L 238 461 L 239 455 L 239 453 L 227 453 Z M 243 453 L 241 459 L 241 461 L 248 461 L 247 456 L 250 454 L 251 457 Q 249 462 253 461 Q 251 456 255 454 L 257 461 L 257 454 L 260 455 Q 262 456 261 453 L 246 453 L 246 459 L 243 460 L 243 453 Z M 263 453 L 264 458 Q 263 463 267 461 L 266 458 Q 268 451 263 453 Z M 275 453 L 272 455 L 276 455 L 278 462 L 278 455 L 281 455 L 281 462 L 283 462 L 284 456 Q 283 453 280 454 L 278 454 L 275 453 Z M 11 454 L 11 459 L 14 460 L 14 454 L 11 454 Z M 16 454 L 16 456 L 18 455 L 16 454 Z M 35 454 L 35 460 L 37 460 L 37 454 L 35 454 Z M 40 454 L 40 460 L 42 460 L 42 454 L 40 454 Z M 45 454 L 45 460 Q 48 461 47 458 L 47 456 Q 48 453 45 454 Z M 50 454 L 50 460 L 52 460 L 52 454 L 50 454 Z M 59 454 L 60 460 L 61 455 L 63 455 L 63 460 L 65 460 L 65 455 L 68 455 L 69 461 L 69 455 L 72 455 L 72 460 L 74 460 L 73 458 L 74 456 L 74 454 L 59 454 Z M 76 454 L 75 458 L 78 461 L 79 455 L 76 454 Z M 81 454 L 82 461 L 83 455 L 81 454 Z M 85 454 L 85 461 L 87 461 L 87 455 L 90 455 L 90 461 L 92 461 L 92 454 L 85 454 Z M 124 454 L 125 457 L 124 459 L 126 461 L 128 455 L 124 454 Z M 130 454 L 130 461 L 132 461 L 133 455 L 130 454 Z M 139 454 L 139 456 L 139 458 L 141 461 Q 143 460 141 459 L 142 456 Q 143 453 139 454 Z M 158 454 L 159 458 L 160 455 L 158 454 Z M 270 454 L 270 462 L 271 462 L 270 454 Z M 287 454 L 286 462 L 288 462 L 287 460 L 288 458 L 287 454 Z M 290 454 L 290 461 L 292 461 L 292 455 L 290 454 Z M 295 454 L 294 459 Q 293 461 296 460 L 297 456 Q 298 453 295 454 Z M 299 454 L 298 459 Q 297 464 301 462 L 300 460 L 301 458 Q 302 453 299 454 Z M 304 454 L 303 461 L 306 462 L 306 455 L 304 454 Z M 310 454 L 308 462 L 311 462 L 310 454 Z M 313 454 L 313 461 L 313 462 L 316 462 L 314 457 L 315 455 L 313 454 Z M 317 454 L 317 462 Q 321 463 319 458 L 319 456 Q 320 453 317 454 Z M 322 454 L 320 456 L 322 462 L 324 455 L 322 454 Z M 326 454 L 325 460 Q 323 461 326 462 L 329 461 L 331 462 L 332 456 L 329 454 L 330 460 L 328 460 Q 325 459 326 454 Z M 18 456 L 17 459 L 18 459 L 18 456 Z M 104 458 L 103 461 L 104 461 L 104 458 Z M 261 458 L 259 461 L 261 461 L 261 458 Z M 159 459 L 160 461 Q 161 458 159 459 Z M 24 478 L 23 479 L 11 479 L 11 495 L 11 497 L 10 501 L 17 502 Q 22 504 24 501 L 25 502 L 117 502 L 119 502 L 120 503 L 128 503 L 130 503 L 134 502 L 136 503 L 141 502 L 144 503 L 146 502 L 148 503 L 153 502 L 155 503 L 165 503 L 166 502 L 167 503 L 175 503 L 177 503 L 182 502 L 184 503 L 263 503 L 265 503 L 296 503 L 297 504 L 299 503 L 307 504 L 309 504 L 333 504 L 333 492 L 321 492 L 320 491 L 224 491 L 222 491 L 209 491 L 208 490 L 204 491 L 200 491 Q 193 493 192 490 Q 190 492 186 491 L 184 491 L 180 490 L 177 491 Q 172 492 171 490 L 166 491 L 161 490 L 159 491 L 157 490 L 153 491 L 149 490 Q 143 489 142 491 L 140 490 L 136 491 Q 130 493 129 490 L 15 489 Q 11 488 12 485 L 14 483 L 104 483 L 106 483 Q 112 481 114 484 Q 120 486 122 483 Q 126 482 128 484 L 244 484 L 246 484 Q 250 483 252 485 L 254 484 L 256 485 L 311 485 L 312 486 L 314 485 L 323 486 L 325 486 L 329 485 L 331 486 Q 333 487 332 481 L 331 481 L 329 480 L 326 481 L 315 480 L 313 480 L 310 481 L 308 480 L 304 481 L 303 480 L 268 480 L 267 479 L 266 480 L 239 480 L 237 480 L 206 480 L 205 479 Q 199 478 198 480 L 196 479 L 186 479 L 185 480 L 181 479 L 178 480 L 175 479 L 172 480 L 170 480 L 168 479 L 166 480 L 164 479 L 156 480 L 154 480 L 150 479 L 148 480 Q 142 482 141 479 Q 134 482 124 480 L 122 480 L 109 479 L 107 479 Q 100 477 99 480 L 97 479 Q 91 478 90 480 L 89 479 L 42 479 L 41 478 L 39 479 L 25 479 L 24 478 Z M 11 504 L 12 506 L 68 506 L 70 506 L 73 507 Q 77 508 79 506 L 80 507 L 275 508 L 276 509 L 278 508 L 282 509 L 331 509 L 332 510 L 333 506 L 264 506 L 263 505 L 261 506 Q 254 508 253 505 L 251 506 Q 245 508 244 505 L 214 505 L 213 506 L 212 505 L 162 505 L 160 505 L 158 506 L 156 505 L 92 505 L 91 504 L 89 505 Q 83 507 82 504 L 80 505 L 70 505 L 69 504 L 67 505 L 64 504 L 62 504 L 57 505 L 55 504 L 24 504 L 23 505 L 11 504 Z M 10 509 L 10 528 L 11 531 L 11 548 L 10 549 L 11 551 L 10 573 L 15 574 L 17 573 L 21 574 L 23 573 L 145 573 L 146 572 L 147 573 L 230 573 L 231 574 L 233 573 L 236 574 L 238 574 L 240 573 L 241 574 L 304 574 L 307 575 L 310 574 L 313 575 L 317 574 L 316 569 L 313 568 L 311 573 L 309 571 Q 306 569 311 567 Q 317 568 316 566 L 315 566 L 306 563 Q 305 559 313 561 L 316 560 L 307 557 Q 304 558 305 556 L 310 553 L 312 554 L 316 553 L 319 547 Q 325 546 329 548 L 330 552 L 328 553 L 325 552 L 321 553 L 321 554 Q 328 553 327 556 L 320 555 L 321 557 L 331 557 L 330 559 L 323 558 L 321 558 L 320 561 L 322 560 L 324 561 L 326 561 Q 330 560 328 564 L 332 565 L 332 547 L 333 546 L 332 544 Q 331 539 333 538 L 332 529 L 332 527 L 333 525 L 332 522 L 333 519 L 332 512 L 320 512 L 319 511 L 144 511 L 143 510 L 141 511 L 123 511 L 122 510 L 120 511 L 116 510 L 112 511 L 107 510 L 26 510 L 25 509 L 10 509 Z M 320 549 L 320 551 L 326 551 L 326 549 L 320 549 Z M 320 562 L 320 564 L 327 564 Q 325 560 320 562 Z M 325 565 L 324 566 Q 319 565 320 568 L 328 568 L 329 567 L 325 565 Z M 332 568 Q 328 571 320 570 L 320 572 L 321 574 L 332 574 L 332 568 Z M 23 575 L 21 577 L 48 577 L 53 578 L 55 578 L 57 577 L 71 577 L 72 578 L 74 577 L 88 577 L 89 578 L 92 577 L 94 577 L 118 577 L 119 578 L 128 578 L 129 577 L 197 577 L 198 578 Q 203 580 205 577 Q 209 576 211 578 L 248 578 L 249 579 L 253 578 L 255 578 L 269 579 L 271 579 L 314 579 L 314 581 L 305 581 L 304 582 L 300 581 Q 295 580 294 582 L 293 581 L 250 581 L 248 581 L 244 580 L 241 581 L 239 580 L 179 580 L 178 579 Q 176 581 172 580 L 170 580 Q 163 582 162 579 L 160 580 Q 154 582 153 579 L 150 580 L 148 580 L 11 580 L 10 583 L 10 585 L 11 587 L 10 591 L 47 591 L 48 590 L 53 591 L 55 591 L 57 590 L 59 591 L 64 590 L 66 590 L 69 591 L 71 591 L 74 590 L 79 591 L 81 590 L 83 591 L 85 590 L 203 590 L 205 590 L 208 591 L 210 590 L 213 591 L 215 590 L 217 591 L 294 591 L 295 592 Q 299 593 301 591 L 303 592 L 306 591 L 314 592 L 316 592 Q 320 593 322 591 Q 326 590 328 592 L 331 591 L 332 589 Q 333 582 330 581 L 326 582 L 322 581 L 320 581 L 318 582 L 315 582 L 317 579 L 319 580 L 320 579 L 332 579 Q 333 575 331 576 L 329 576 L 325 577 L 323 577 L 320 576 L 316 576 L 314 577 L 311 576 L 308 577 L 304 577 L 302 576 L 297 577 L 295 577 L 293 576 L 219 576 L 216 575 L 214 576 L 209 575 Q 204 574 203 576 L 198 575 L 196 575 L 189 576 L 187 576 L 186 575 L 148 575 L 144 575 L 135 576 L 133 576 L 130 575 L 128 576 L 124 575 L 122 576 L 111 576 L 109 576 L 104 575 L 103 576 L 95 576 L 93 576 L 55 576 L 54 575 L 52 576 L 42 576 L 41 575 L 39 576 L 37 575 L 35 576 Q 26 578 23 575 Z M 12 576 L 12 577 L 14 577 L 12 576 Z M 17 576 L 17 577 L 19 577 L 17 576 Z "></path><path d="M 79 24 Q 83.9 22.2 82 28.5 Q 80.5 31.5 79 28.5 L 79 24 Z "></path><path d="M 99.5 24 L 101 27.5 L 98 29 Q 97 25.2 99.5 24 Z "></path><path d="M 27.5 41 L 30 42.5 L 28.5 45 L 26 43.5 L 27.5 41 Z "></path><path d="M 209.5 43 L 213.5 44 L 214.5 43 L 311 43 L 310.5 45 L 290.5 45 L 288.5 45 L 285.5 44 L 282.5 45 L 280.5 44 L 276.5 45 L 274.5 44 L 273.5 45 L 207.5 45 L 207.5 44 L 209.5 43 Z "></path><path d="M 33 44 L 37 45.5 L 35.5 48 Q 32.2 46.9 33 49.5 L 30 51 Q 31.7 55.1 27.5 54 L 26 51 L 29.5 49 Q 30.8 51.3 32 48.5 L 33 44 Z "></path><path d="M 241.5 49 L 248 51 L 250 56.5 L 250 60.5 Q 247.8 61.7 249 66.5 Q 252.5 73.2 251 84 L 263.5 84 L 265 85.5 L 265 92 Q 261.9 91.3 262.5 94 L 255 94 L 255 96.5 Q 252.7 97.7 254 102.5 L 256 105.5 L 254 110.5 L 254 136.5 L 253 139.5 L 254 142.5 L 253 143.5 L 253 153.5 L 254 155.5 L 253 156.5 L 253 243.5 L 252 247.5 L 253 250.5 L 252 251.5 L 252 316.5 L 247.5 323 L 245.5 323 L 239 316.5 L 238 312.5 L 238 293.5 L 239 290.5 L 238 286.5 L 239 281.5 L 238 279.5 L 238 277.5 L 239 268.5 L 238 267.5 L 238 218.5 L 237 217.5 L 237 174.5 L 236 171.5 L 237 166.5 L 236 165.5 L 236 136.5 L 235 135.5 L 236 132.5 L 235 131.5 L 235 109 Q 232.3 110.1 233 107.5 L 232 104.5 Q 235 103.5 234 98.5 L 231.5 93 L 222.5 93 L 221 91.5 L 221 84 L 235 84 L 235 71.5 L 238 60.5 Q 234.8 59.3 236 53.5 L 241.5 49 Z M 243 52 L 240 53 L 239 56 L 241 61 Q 237 69 239 83 Q 240 85 245 84 L 244 82 L 248 80 L 248 78 L 243 78 L 243 76 L 248 76 L 248 74 L 243 74 Q 242 70 247 72 L 247 69 L 244 70 L 245 68 Q 247 69 246 66 L 242 64 Q 241 61 245 62 L 247 59 L 246 54 L 243 52 Z M 237 85 L 231 87 L 226 86 Q 223 87 224 91 L 233 91 L 234 92 L 239 91 L 241 91 L 262 91 L 262 86 L 256 87 Q 249 85 239 86 L 237 85 Z M 242 93 L 236 94 L 237 103 L 241 104 L 245 104 L 248 103 L 248 100 Q 245 101 246 98 L 250 98 L 247 96 L 244 97 L 245 95 Q 246 91 242 93 Z M 252 104 L 251 105 L 234 106 L 237 107 L 253 107 L 252 104 Z M 239 109 L 238 145 L 239 146 L 238 151 L 239 153 Q 241 159 238 161 L 239 162 L 239 184 L 239 186 L 240 190 L 240 242 L 241 243 L 240 245 Q 239 250 241 252 L 240 255 L 241 256 L 241 306 L 242 307 L 242 317 L 244 317 L 244 223 L 244 221 Q 245 216 243 215 L 244 206 L 244 204 L 243 202 L 243 200 Q 242 194 244 193 L 243 192 L 243 131 L 243 129 Q 244 124 242 123 L 243 121 L 242 119 L 243 112 L 239 109 Z M 245 109 L 245 147 L 246 148 Q 248 154 245 156 L 246 157 L 246 232 L 246 234 L 247 236 L 246 247 L 246 249 L 246 262 L 247 263 Q 249 268 246 270 L 247 274 L 248 319 L 249 316 L 249 297 L 250 296 L 249 292 L 249 290 L 250 286 L 249 282 L 250 280 L 249 276 L 250 274 L 250 209 L 251 208 L 251 200 L 251 198 L 250 194 Q 249 189 251 188 L 251 170 L 250 169 L 250 161 L 251 160 L 251 110 L 245 109 Z "></path><path d="M 190.5 50 Q 197.5 48.5 199 52.5 L 201 59.5 L 199 63.5 L 201 68.5 L 202 84 L 214.5 84 L 215 85.5 Q 217.3 86.8 216 91.5 Q 213.2 95.5 206 94 L 204 102.5 L 206 106.5 L 203 110.5 L 203 256.5 L 202 259.5 L 203 262.5 L 202 263.5 L 202 271.5 L 202 273.5 L 202 318.5 L 198.5 323 L 195.5 323 L 189 317.5 L 189 224.5 L 188 223.5 L 189 221.5 L 188 216.5 L 188 214.5 L 187 110.5 L 184 104.5 L 186 100.5 Q 183.8 99.2 185 94.5 L 183.5 93 L 180.5 94 L 173 93 L 174 87.5 L 173 84 L 176.5 83 L 178.5 84 L 180.5 84 Q 184.3 84.8 185 82.5 L 184 79.5 L 185 70.5 L 188 60.5 Q 185.2 58.8 186 53.5 L 190.5 50 Z M 192 52 L 189 55 L 191 62 L 195 64 L 198 59 L 197 55 Q 196 51 192 52 Z M 191 65 L 188 70 L 188 84 L 196 84 L 199 82 Q 200 79 197 80 Q 196 77 199 78 Q 200 75 196 76 Q 195 73 198 74 Q 199 71 195 72 L 195 67 L 197 67 L 191 65 Z M 177 86 L 177 90 L 179 91 L 204 91 L 205 92 L 206 91 L 213 91 Q 214 87 212 86 L 200 86 L 199 87 L 177 86 Z M 188 93 L 188 101 L 189 102 L 187 106 Q 186 108 190 107 L 192 107 L 194 108 L 194 107 L 191 105 L 201 101 L 201 99 L 198 100 Q 197 97 200 98 L 202 98 L 202 96 L 198 96 L 199 93 L 194 94 L 188 93 Z M 202 105 L 198 107 L 203 107 Q 204 104 202 105 Z M 190 110 L 190 171 L 191 172 L 191 282 L 192 283 L 191 285 Q 190 290 192 292 L 192 317 L 195 318 L 195 122 L 194 121 L 195 112 Q 194 109 190 110 Z M 198 110 L 197 117 L 197 119 L 197 145 L 198 146 L 197 149 L 198 151 L 198 232 L 197 233 L 198 238 L 198 242 L 197 244 L 198 247 L 197 251 L 197 269 L 198 270 Q 200 276 197 278 L 198 286 L 198 288 L 197 291 L 199 319 L 200 318 L 200 222 L 201 221 L 200 212 L 200 210 Q 199 204 201 203 Q 202 198 200 197 L 201 195 L 200 192 L 201 188 L 201 179 L 200 178 L 201 176 L 201 150 L 200 148 L 200 146 L 201 144 Q 203 137 200 136 Q 198 129 201 128 L 200 126 L 200 124 L 200 113 L 201 112 L 198 110 Z "></path><path d="M 289.5 50 Q 296.8 48.8 299 52.5 L 300 58.5 L 298 63.5 L 301 70.5 Q 300 79.5 302 84 L 316.5 85 L 318 86.5 Q 319.3 91.8 316.5 93 L 314.5 94 Q 313.3 91.7 308.5 93 L 306.5 94 L 304 93 L 303 102.5 Q 305.2 103.8 304 108.5 Q 300.5 110 303 111.5 L 302 113.5 L 302 215.5 L 301 216.5 L 302 221.5 L 301 225.5 L 302 230.5 L 302 232.5 L 301 244.5 L 302 246.5 L 302 248.5 L 301 251.5 L 301 318.5 L 295.5 326 L 294 326 L 294 324 Q 291.3 325.1 292 322.5 L 288 319.5 L 288 307.5 L 287 305.5 L 288 303.5 L 287 302.5 L 287 261.5 L 286 259.5 L 287 258.5 L 287 243.5 L 286 240.5 L 287 237.5 L 286 236.5 L 285 123.5 L 284 122.5 L 284 109.5 L 281 104.5 Q 283.8 103.8 283 99.5 L 282 94 Q 279 92 271.5 93 L 270 91.5 L 269 86.5 L 271.5 84 L 285 84 L 287 66.5 L 289 61 L 286 59.5 L 285 57.5 L 287 51 L 289.5 50 Z M 291 52 L 289 54 Q 288 59 292 61 L 288 77 Q 287 82 289 84 L 293 85 L 298 84 Q 299 81 297 82 L 297 81 Q 300 82 298 78 L 295 78 L 298 77 L 298 74 Q 294 75 295 72 L 298 71 L 296 69 L 294 70 L 293 69 Q 294 66 296 68 L 296 65 L 292 65 L 297 58 L 297 55 Q 296 51 291 52 Z M 287 85 L 286 86 L 272 86 L 272 91 L 284 91 L 285 92 Q 290 94 292 91 Q 298 89 300 92 L 304 91 L 306 91 L 310 92 L 315 91 Q 317 85 311 87 L 308 86 L 306 87 L 288 86 L 287 85 Z M 289 93 L 285 94 Q 284 101 288 103 L 297 103 L 297 101 L 301 100 L 299 98 L 297 99 Q 296 96 299 97 L 298 95 L 295 95 L 295 93 L 289 93 Z M 285 105 L 285 107 L 296 107 L 297 108 L 302 106 L 285 105 Z M 287 110 L 287 159 L 287 161 Q 285 167 288 169 L 288 217 L 289 218 L 288 220 L 289 225 L 288 228 L 289 229 L 290 318 L 293 320 L 293 111 L 293 110 L 287 110 Z M 296 110 L 296 136 L 296 138 Q 297 142 295 144 L 296 148 L 295 151 Q 294 156 296 158 L 295 160 L 295 170 L 296 171 L 295 173 L 295 183 L 296 184 L 295 186 L 295 188 L 296 190 L 295 193 L 296 196 L 296 208 L 295 209 L 295 217 L 296 218 L 296 248 L 296 250 L 295 255 L 295 267 L 296 268 L 295 269 L 295 317 L 295 319 L 294 321 Q 293 323 296 322 L 298 319 Q 297 313 299 312 L 298 309 L 299 307 L 299 253 L 300 252 L 300 244 L 299 243 L 300 240 L 299 238 L 300 235 L 299 230 L 300 225 L 299 223 L 300 218 L 299 215 L 300 212 L 300 202 L 299 201 L 299 191 L 300 190 L 299 187 L 299 153 L 300 152 L 299 148 L 300 145 L 300 143 L 299 140 L 300 137 L 300 111 L 296 110 Z "></path><path d="M 88 108 Q 91 107 90 110 L 88 110.5 L 89 112.5 L 87.5 112 Q 84.9 112.7 86 110 Q 89 111 88 108 Z "></path><path d="M 90.5 138 L 91.5 140 L 90.5 138 Z "></path><path d="M 97.5 151 L 99 151.5 L 97 152.5 L 97.5 154 L 95 153.5 Q 94.3 151.3 96.5 152 L 97.5 151 Z "></path><path d="M 92.5 155 L 96 155.5 L 93.5 157 L 92.5 155 Z "></path><path d="M 89.5 156 L 88.5 158 L 89.5 156 Z "></path><path d="M 205.5 372 Q 207.8 371.3 207 373.5 L 209 376.5 Q 207.8 379.3 206.5 377 L 204.5 378 L 204 375 Q 201 376 202 373 L 205.5 372 Z "></path><path d="M 115.5 377 L 116 379 L 120 377 Q 118.7 381.1 122 380 Q 121 377 124 378 Q 122.9 380.7 125.5 380 L 127.5 377 L 129.5 380 L 131.5 377 L 132 380 L 136 378 Q 134.9 380.7 137.5 380 L 141 378 L 141.5 380 L 142 378 L 144.5 379 L 145 377 L 148 378.5 L 148.5 381 L 150.5 377 Q 152.8 377.8 152 381.5 L 149 383 L 150.5 386 L 151 384 Q 154.3 382.9 153 387 L 148 388 L 147 384.5 L 148 382.5 L 146.5 383 L 144.5 382 L 112.5 382 L 108 383 L 107 378 Q 109.7 376.9 109 379.5 L 111 380.5 L 112.5 378 Q 114 380.5 115.5 377 Z "></path><path d="M 281.5 377 L 283 380 Q 279.5 381.1 281.5 377 Z "></path><path d="M 286.5 387 L 287.5 389 Q 284.7 389.7 286.5 387 Z "></path><path d="M 258 392 L 262 392 L 262 393.5 L 263 398.5 L 259 395.5 L 258 392 Z "></path><path d="M 211 417 L 220.5 418 L 222 419.5 Q 220.8 422.3 219.5 420 Q 212.8 421.8 211 418.5 L 211 417 Z "></path><path d="M 278 515 L 285.5 515 L 287 516.5 L 288 520.5 L 287 523.5 L 287 525.5 L 288 532 L 305.5 533 Q 308 528.5 316.5 530 Q 322.8 531.8 321 541.5 Q 318.1 545.6 311.5 546 L 308 544 Q 309.1 546.7 306.5 546 L 303.5 548 Q 293.4 548.2 287 551 L 286 560.5 Q 288.5 562 287 567.5 L 285.5 569 Q 280.8 567.8 279.5 570 L 276 567.5 L 277 565.5 L 277 554.5 L 275.5 552 L 273.5 552 L 266.5 553 L 264.5 551 L 259.5 550 L 256.5 551 L 255.5 550 L 227.5 550 L 226.5 549 L 225.5 550 L 193.5 550 L 191.5 550 Q 186 551.5 184.5 549 L 182.5 549 L 173.5 549 L 172.5 550 L 171.5 549 L 133.5 549 L 132.5 548 L 129.5 549 Q 124 550.5 122.5 548 L 88.5 548 L 86.5 547 L 83.5 548 L 80.5 547 L 77.5 548 L 75.5 547 L 73.5 547 L 27.5 547 L 19 540.5 L 26.5 535 L 34.5 534 L 36.5 535 L 37.5 534 L 47.5 534 L 49.5 534 L 57.5 535 L 58.5 534 L 91.5 534 L 93.5 533 L 98.5 534 L 101.5 533 L 104.5 534 L 108.5 534 L 111.5 533 L 113.5 534 L 114.5 533 L 136.5 533 L 138.5 533 L 160.5 533 L 163.5 532 L 165.5 533 L 166.5 532 L 197.5 532 L 198.5 531 L 200.5 531 L 204.5 532 L 205.5 531 L 229.5 531 L 230.5 530 L 232.5 530 L 237.5 531 L 238.5 530 L 264 530 Q 262.7 526.7 267.5 528 L 269.5 530 L 277 530 L 277 517.5 L 278 515 Z M 280 517 L 280 527 L 279 529 L 279 531 L 279 557 L 280 558 Q 282 564 279 566 L 281 568 L 284 567 L 284 538 L 285 537 L 285 520 L 284 519 L 284 517 L 280 517 Z M 267 530 L 267 539 L 268 539 Q 270 532 267 530 Z M 247 532 L 246 533 L 220 533 L 219 534 L 216 533 L 215 534 L 184 534 L 183 535 L 181 534 L 180 535 L 149 535 L 147 536 L 145 536 L 67 536 L 66 535 L 64 536 L 38 536 L 37 537 L 33 536 L 26 538 L 23 542 Q 26 543 25 540 L 30 541 L 34 541 Q 40 543 42 540 Q 47 539 49 541 L 50 540 L 67 540 L 69 540 L 74 539 L 79 540 L 83 539 L 86 540 L 95 540 L 96 539 L 97 540 L 264 540 L 264 532 L 249 532 L 247 532 Z M 271 532 L 271 540 L 274 542 Q 273 545 276 544 L 277 541 L 277 532 L 271 532 Z M 312 532 L 308 536 L 309 541 L 314 544 L 316 543 L 319 538 L 318 535 Q 317 531 312 532 Z M 288 533 Q 286 535 287 541 L 288 541 Q 287 538 290 539 L 291 547 L 292 543 L 291 541 L 294 540 L 293 543 L 294 547 L 296 547 L 296 541 L 298 540 Q 300 541 299 546 Q 302 547 301 543 Q 299 541 302 540 L 305 544 L 305 537 L 296 533 L 294 534 L 292 534 L 288 533 Z M 271 540 L 270 543 L 271 543 L 271 540 Z M 29 542 L 29 544 Q 31 547 32 544 L 29 542 Z M 36 542 L 34 544 L 35 545 L 39 544 L 40 545 Q 41 540 36 542 Z M 42 542 Q 41 545 45 544 Q 46 541 42 542 Z M 49 542 L 47 545 L 51 544 Q 52 541 49 542 Z M 54 542 L 54 545 L 57 545 L 58 544 L 54 542 Z M 70 542 L 68 544 Q 67 546 70 545 L 70 542 Z M 77 542 L 75 545 L 77 545 L 77 542 Z M 81 542 L 79 544 Q 78 546 81 545 Q 84 544 81 542 Z M 86 542 L 84 544 Q 83 547 87 545 L 86 542 Z M 95 542 L 93 545 L 96 545 L 95 542 Z M 250 542 Q 247 543 248 548 Q 251 549 250 546 L 250 544 L 250 542 Z M 263 542 L 261 548 L 263 548 L 263 542 Z M 90 543 L 88 545 L 91 545 Q 92 542 90 543 Z M 106 543 L 104 545 L 106 545 L 106 543 Z M 116 543 L 115 546 L 116 546 L 116 543 Z M 120 543 L 119 546 L 121 546 L 120 543 Z M 124 543 L 124 546 L 126 545 Q 127 542 124 543 Z M 131 543 L 131 546 L 133 545 Q 134 542 131 543 Z M 136 543 L 134 545 L 136 545 L 136 543 Z M 138 543 L 138 546 L 140 545 Q 141 542 138 543 Z M 142 543 Q 141 547 144 546 Q 145 542 142 543 Z M 148 543 L 147 546 L 148 546 L 148 543 Z M 158 543 Q 157 547 160 546 Q 161 542 158 543 Z M 171 543 L 170 546 L 171 546 L 171 543 Z M 174 543 Q 172 548 176 547 Q 178 542 174 543 Z M 180 543 L 179 547 L 181 546 L 180 543 Z M 184 543 L 183 546 L 185 546 L 184 543 Z M 192 543 L 191 547 L 193 546 L 192 543 Z M 196 543 L 196 547 L 197 547 Q 198 542 196 543 Z M 201 543 L 200 547 L 202 547 L 201 543 Z M 205 543 L 204 546 L 205 546 L 205 543 Z M 213 543 L 212 547 L 213 547 L 213 543 Z M 217 543 L 216 547 L 217 547 L 217 543 Z M 221 543 L 220 547 L 221 547 L 221 543 Z M 225 543 L 224 547 L 225 547 L 225 543 Z M 229 543 L 228 547 L 229 547 L 229 543 Z M 236 543 L 235 547 L 236 547 L 236 543 Z M 240 543 L 239 548 L 240 548 L 240 543 Z M 243 543 L 243 547 L 245 548 Q 247 542 243 543 Z M 254 543 L 253 548 L 254 548 L 254 543 Z M 257 543 L 258 548 L 259 546 Q 260 542 257 543 Z M 266 543 Q 265 547 268 548 L 268 547 L 268 545 Q 269 542 266 543 Z M 274 545 L 273 550 L 275 551 L 274 545 Z M 310 555 Q 309 559 316 557 Q 317 554 310 555 Z M 312 562 Q 312 565 317 564 Q 318 560 312 562 Z "></path><path d="M 340.5 546 L 341.5 550 L 343 549.5 L 340 551 L 340.5 546 Z "></path><path d="M 341.5 558 Q 343.8 557.3 343 559.5 L 341.5 558 Z "></path><path d="M 341.5 564 L 342.5 566 L 340.5 566 L 339 565.5 L 341.5 564 Z "></path><path d="M 322.5 571 L 323 573 L 321 572.5 L 322.5 571 Z "></path><path d="M 341.5 581 L 342.5 583 Q 340.3 582.3 341 584.5 L 340 584.5 L 339 582.5 L 341 582.5 L 341.5 581 Z "></path><path d="M 339.5 591 L 340 593.5 L 339.5 595 L 338 592.5 L 339.5 591 Z "></path><path d="M 343.5 591 L 344 594.5 L 343 594.5 L 343.5 591 Z "></path></svg>