<svg width="350" height="600" version="1.1" xmlns="http://www.w3.org/2000/svg" desc="Created with imagetracer.js version 1.2.5"><path d="M 267.5 6 L 276.5 7 L 277.5 6 L 331.5 6 L 333.5 7 L 338 6 L 339 14.5 L 338 15.5 L 337 63.5 L 338 66.5 L 337 68.5 L 338 69.5 L 338 267.5 L 340 276.5 L 340 285.5 L 339 288.5 L 340 289.5 L 340 302.5 L 340 304.5 L 339 309.5 Q 341.3 310.8 340 315.5 L 339 317.5 L 340 318.5 L 340 333.5 L 338 343.5 L 339 344.5 L 339 363.5 L 338 364.5 L 337 464.5 L 338 465.5 L 338 478.5 L 339 479.5 L 339 516.5 L 338 517.5 L 338 560.5 L 339 562.5 L 338 564.5 L 339 566.5 L 338 567.5 L 338 593.5 L 336.5 595 L 333.5 596 L 332.5 595 L 288.5 595 L 287.5 594 L 286.5 595 L 252.5 595 L 250.5 596 L 248 595 L 247.5 597 L 247 595 L 234.5 595 L 233.5 596 L 209.5 596 L 207.5 596 L 193.5 596 L 192.5 595 L 189.5 596 L 187.5 596 L 172.5 596 L 171.5 595 L 170.5 596 L 120.5 596 L 118.5 597 L 117.5 596 L 97.5 596 L 96.5 595 L 95.5 596 L 13.5 596 L 12.5 597 Q 10.8 594.3 4.5 596 L 3 594.5 L 4 587.5 L 3 583.5 L 3 581.5 L 3 572.5 L 2 571.5 L 2 543.5 L 2 541.5 L 3 537.5 L 2 536.5 L 2 528.5 L 2 526.5 L 3 507.5 Q 0.7 506.2 2 501.5 Q 4.8 499.7 3 493.5 L 2 489.5 L 3 488.5 L 3 480.5 L 2 479.5 L 2 424.5 L 3 422.5 Q 0.7 421.2 2 416.5 L 3 413.5 L 2 411.5 L 3 409.5 L 2 406.5 L 3 405.5 L 3 364.5 L 2 362.5 L 3 361.5 L 3 352.5 L 2 350.5 L 3 349.5 L 3 334.5 L 4 333.5 L 3 332.5 L 3 268.5 L 4 267.5 L 4 230.5 L 5 225.5 L 4 224.5 L 4 193.5 L 5 190.5 L 4 186.5 L 5 185.5 L 5 158.5 L 4 156.5 L 5 155.5 L 5 105.5 L 5 103.5 L 5 13.5 L 6 11.5 L 5 8.5 L 6.5 7 L 14.5 7 L 16.5 8 L 17.5 7 L 65.5 7 L 66.5 8 L 97.5 8 L 98.5 9 L 100.5 9 L 102.5 8 L 104.5 9 L 106.5 9 L 118.5 9 L 119.5 8 L 123.5 9 L 124.5 8 L 177.5 8 Q 178.7 5.8 183.5 7 L 186.5 8 L 188.5 7 Q 190.2 9.8 196.5 8 L 198.5 8 L 229.5 8 L 231.5 7 L 234.5 8 L 235.5 7 L 266.5 7 L 267.5 6 Z M 314 8 L 313 9 L 291 9 L 290 10 L 268 10 L 267 11 L 259 11 L 258 10 L 199 10 L 198 11 L 190 11 L 189 10 L 185 11 L 146 11 L 144 11 Q 139 10 138 12 L 135 11 L 133 12 L 118 12 L 117 11 L 115 12 L 113 12 L 112 11 L 81 11 L 80 10 L 65 10 L 64 9 L 60 10 L 55 9 L 37 10 L 36 11 L 34 10 L 16 10 L 9 11 L 8 16 L 8 162 L 7 163 L 8 165 L 8 242 L 7 243 L 7 257 L 8 258 L 7 260 L 7 282 L 6 283 L 7 324 L 13 322 L 12 320 L 13 319 L 13 306 L 12 303 L 13 301 L 13 291 L 10 288 L 11 280 Q 14 275 20 274 Q 25 273 27 276 L 29 282 L 27 283 L 29 283 Q 30 288 26 291 L 28 295 L 31 311 L 30 313 L 32 316 L 32 318 L 37 318 L 37 308 L 36 307 L 36 270 L 35 269 Q 37 263 34 264 L 32 263 L 32 251 L 22 258 L 18 258 L 16 250 L 20 247 L 21 244 L 27 242 L 31 237 L 31 220 L 32 219 L 31 217 L 32 212 L 30 207 L 30 205 L 32 200 L 38 196 L 44 197 L 47 202 L 46 204 L 47 206 L 45 210 Q 44 217 47 221 L 53 219 Q 54 222 60 220 L 62 216 L 62 207 L 63 206 Q 64 198 61 195 L 61 190 L 67 183 L 76 184 Q 81 186 79 194 L 76 197 L 77 198 L 67 199 L 67 205 L 69 205 L 69 207 L 66 209 L 68 209 Q 70 210 68 212 L 70 212 L 70 216 L 69 216 L 68 218 L 70 217 Q 72 220 76 219 L 75 216 Q 77 206 74 201 L 77 199 L 78 201 L 79 218 L 81 219 L 86 218 Q 86 212 90 208 L 95 204 L 107 202 L 108 205 L 105 204 L 100 205 L 99 207 L 101 206 L 107 209 L 107 208 Q 109 205 110 208 L 109 212 L 111 211 Q 112 205 109 204 L 111 201 L 113 202 L 115 201 Q 117 202 116 199 L 111 198 L 109 195 Q 104 196 103 194 L 105 187 Q 100 184 104 182 Q 105 179 103 180 L 99 173 L 100 162 L 105 159 L 106 156 L 110 152 Q 115 153 117 149 L 119 150 Q 120 146 122 150 L 117 153 Q 118 155 120 153 L 123 154 L 126 152 L 124 156 L 131 151 Q 132 148 130 149 L 127 150 L 126 148 L 133 146 L 135 146 Q 142 144 140 149 L 146 148 L 152 155 L 154 154 L 158 155 L 159 158 L 155 156 Q 152 155 153 158 L 156 159 L 158 162 L 159 166 L 157 171 L 157 179 L 161 181 L 163 180 L 165 184 Q 166 186 170 186 L 169 188 L 165 187 Q 163 185 162 188 L 165 190 L 172 192 L 171 194 L 168 193 L 165 197 L 173 196 L 174 199 Q 175 201 177 199 L 176 201 L 172 200 L 169 201 Q 161 202 159 198 L 160 194 L 156 196 Q 155 198 158 197 L 158 200 L 156 201 L 160 203 Q 170 201 176 205 L 179 210 L 181 217 L 181 220 L 190 220 L 190 196 L 186 189 L 188 182 L 194 179 Q 202 179 205 184 Q 207 191 203 194 Q 206 198 205 207 L 207 212 L 209 211 L 218 213 L 225 213 L 225 207 L 226 206 L 225 204 L 227 196 Q 229 189 225 188 L 226 181 L 229 178 L 235 176 Q 240 177 243 182 Q 245 188 241 190 L 243 203 L 247 202 L 249 202 Q 255 200 257 203 L 261 202 L 264 186 L 261 179 L 261 175 L 264 169 Q 267 166 274 167 L 279 175 L 278 180 Q 279 182 276 181 L 277 188 L 277 190 L 278 202 Q 279 204 281 202 Q 286 201 288 203 Q 289 200 296 202 L 298 196 L 295 188 L 297 184 L 304 179 L 310 181 L 313 187 L 311 194 L 312 196 L 311 199 L 312 202 L 312 215 L 315 216 L 316 215 Q 315 207 318 204 L 316 200 L 317 193 L 323 189 L 330 190 L 333 195 Q 334 199 331 201 L 333 219 L 335 220 L 335 219 L 335 217 Q 334 212 336 211 L 335 209 L 335 183 L 334 182 L 335 179 L 334 176 L 335 173 L 335 156 L 336 155 L 335 153 L 335 77 L 334 76 L 335 72 L 334 69 L 334 67 L 335 15 L 336 10 Q 330 8 321 9 L 320 8 L 318 9 L 314 8 Z M 113 154 L 113 156 L 115 155 L 113 154 Z M 113 156 L 111 159 L 113 158 L 113 156 Z M 119 158 L 117 160 L 118 162 L 119 160 L 119 158 Z M 147 158 L 146 162 L 147 162 L 147 158 Z M 155 161 L 154 168 L 156 167 L 155 161 Z M 109 165 Q 107 168 110 167 L 110 170 L 105 168 L 108 174 L 112 173 L 114 174 L 117 179 Q 127 181 132 176 Q 134 175 133 178 L 126 181 Q 121 180 122 183 L 118 184 L 112 182 L 108 183 L 112 185 L 117 186 L 134 184 L 144 179 L 147 174 L 150 175 L 149 177 L 148 179 L 151 177 Q 152 172 149 171 Q 144 176 136 178 L 137 176 Q 139 177 138 175 L 147 169 L 147 167 L 137 172 L 125 175 L 113 169 L 111 166 L 109 165 Z M 119 169 L 119 171 L 124 173 Q 126 170 132 171 L 133 169 L 125 170 L 123 170 L 119 169 Z M 271 169 L 268 170 Q 264 172 266 177 L 270 178 L 275 177 L 274 170 L 271 169 Z M 107 177 L 107 179 L 113 180 L 112 179 L 112 177 L 107 177 Z M 234 178 L 232 179 L 228 184 L 229 187 L 236 189 Q 240 188 239 182 Q 239 178 234 178 Z M 118 180 L 116 182 L 119 182 L 118 180 Z M 195 181 L 193 182 L 190 186 Q 189 191 191 193 L 195 194 L 198 194 L 202 190 L 201 186 L 197 181 L 195 181 Z M 149 183 L 147 185 Q 146 187 149 186 L 149 183 Z M 272 183 L 267 184 Q 266 187 270 186 L 270 191 L 267 191 L 268 193 L 270 192 Q 271 196 266 194 Q 265 197 268 196 Q 269 194 270 197 L 270 198 L 265 198 L 265 200 L 267 199 L 271 200 L 267 202 L 275 203 L 274 197 L 274 184 L 272 183 Z M 305 183 Q 300 185 301 192 L 304 193 L 309 191 L 309 188 L 307 184 L 305 183 Z M 137 184 L 135 185 L 135 187 L 134 189 L 132 188 L 132 187 L 134 188 L 134 186 L 125 187 L 125 189 L 124 188 L 112 188 L 117 194 L 117 193 Q 115 191 118 190 L 122 192 Q 124 191 123 195 Q 119 196 120 194 L 121 192 Q 118 191 119 194 L 117 194 Q 116 197 119 196 L 120 199 L 120 196 L 127 197 L 129 196 L 131 196 L 133 195 L 135 190 L 135 195 L 130 200 L 129 199 L 127 202 L 127 200 Q 123 201 124 199 L 123 199 Q 119 198 120 201 L 126 203 L 130 201 Q 134 200 132 204 L 129 206 L 126 206 L 126 208 L 125 210 L 124 210 L 125 208 L 119 202 L 117 208 L 122 216 Q 121 219 124 218 L 123 215 L 124 213 L 124 215 L 126 214 L 125 216 L 126 219 L 128 213 L 129 213 L 128 216 Q 127 220 131 218 L 130 216 L 133 216 L 132 219 Q 135 220 134 218 L 134 216 L 135 214 L 136 216 L 137 213 L 139 214 L 142 206 L 139 202 Q 140 197 137 198 L 137 202 L 134 201 L 134 198 L 136 198 Q 135 195 138 196 L 140 192 L 139 189 Q 141 183 137 184 Z M 68 185 L 64 190 Q 64 195 68 197 Q 74 198 75 194 Q 77 195 76 189 Q 74 184 68 185 Z M 146 190 L 143 193 L 145 193 L 146 194 L 146 190 Z M 237 191 L 235 194 Q 231 195 234 197 L 234 198 L 229 198 L 229 200 L 233 199 L 233 202 Q 228 200 229 204 L 233 203 L 234 205 Q 230 204 231 207 L 233 206 Q 236 208 233 209 L 231 208 L 228 210 L 234 210 L 235 210 L 234 213 L 239 213 L 239 205 L 239 203 L 238 198 Q 239 190 237 191 Z M 324 191 Q 320 193 321 199 L 328 200 L 329 198 L 328 193 Q 327 190 324 191 Z M 149 194 L 148 197 L 149 197 L 149 194 Z M 143 195 L 143 201 L 146 202 L 150 201 Q 151 204 153 202 Q 155 203 154 200 L 152 199 L 148 200 L 145 196 L 143 195 Z M 200 195 L 194 198 L 197 198 L 197 202 Q 193 200 194 205 L 196 204 Q 198 203 197 206 L 195 207 Q 192 206 193 209 L 197 208 Q 198 211 196 210 L 196 211 Q 199 210 198 213 L 196 214 L 197 217 L 194 218 L 199 219 L 204 218 Q 206 211 202 208 L 202 200 L 200 195 Z M 307 195 L 302 197 L 302 198 Q 306 197 305 200 L 303 201 L 305 202 L 300 204 L 304 204 L 304 206 L 299 206 L 299 208 L 304 208 Q 305 212 300 210 L 300 211 Q 305 209 304 213 L 298 214 L 309 215 L 309 203 L 308 202 Q 309 194 307 195 Z M 37 199 L 34 202 Q 32 210 37 212 Q 39 217 36 219 Q 35 222 39 220 L 39 222 L 36 224 L 39 224 L 38 227 Q 35 226 36 229 L 38 228 Q 40 227 39 230 L 39 231 Q 43 232 43 229 Q 44 224 42 223 L 42 214 L 39 213 L 44 207 L 43 201 Q 42 198 37 199 Z M 327 203 L 325 205 Q 326 208 322 206 Q 321 209 324 208 L 325 208 L 324 210 Q 320 209 321 212 L 323 211 Q 325 210 324 213 L 322 214 Q 324 217 329 216 Q 330 208 327 203 Z M 148 204 Q 148 207 145 206 L 144 209 L 145 210 L 146 208 L 149 209 Q 153 210 151 205 L 148 204 Z M 158 204 L 156 206 L 158 206 L 158 204 Z M 293 204 L 292 205 L 246 205 Q 243 206 244 211 L 255 211 L 256 210 L 259 211 L 262 210 L 279 211 L 281 211 L 286 210 L 288 211 L 290 211 Q 293 212 294 210 L 293 207 L 294 205 L 293 204 Z M 115 205 L 114 208 L 116 208 L 115 205 Z M 165 205 L 163 209 L 166 207 Q 167 204 165 205 Z M 167 205 L 166 209 Q 165 211 168 210 L 169 207 L 171 207 L 167 205 Z M 96 206 L 94 208 L 95 209 L 97 208 L 96 206 Z M 175 208 L 169 210 L 167 216 L 168 217 L 170 211 L 175 210 L 175 208 Z M 147 209 L 148 211 Q 149 208 147 209 Z M 163 209 L 161 211 L 162 213 L 163 211 L 163 209 Z M 166 210 L 161 219 L 162 221 L 166 212 L 166 210 Z M 144 211 L 143 214 L 145 214 L 144 211 Z M 159 211 L 157 214 L 159 213 L 159 211 Z M 106 212 L 98 221 L 107 213 L 106 212 Z M 117 212 L 117 218 L 118 218 L 117 212 Z M 177 212 L 171 213 L 170 219 L 171 219 Q 170 216 173 217 Q 175 218 173 220 Q 172 222 175 221 Q 176 219 177 222 L 175 225 Q 174 227 177 226 L 176 229 L 176 238 L 177 239 L 176 242 L 178 249 L 179 249 L 179 240 L 178 239 L 178 228 L 179 227 L 178 224 L 178 217 L 174 217 Q 173 214 177 215 L 177 212 Z M 269 213 L 263 214 L 264 220 L 267 219 Q 268 222 265 221 L 264 223 L 268 222 L 270 224 L 264 227 L 265 231 L 264 232 L 264 271 L 264 273 L 265 275 L 264 276 L 264 306 L 263 307 L 264 309 L 263 313 L 263 341 L 262 342 L 263 346 L 263 378 L 264 379 L 263 381 L 264 384 L 264 401 L 263 402 L 264 403 L 265 508 L 265 482 L 266 481 L 265 478 L 266 474 L 265 470 L 266 468 L 266 332 L 267 331 L 267 295 L 268 294 L 267 292 L 268 290 L 267 289 L 267 273 L 267 271 L 267 228 L 270 227 L 270 327 L 269 328 L 270 331 L 269 333 L 269 346 L 268 347 L 268 365 L 269 366 L 268 370 L 269 373 Q 270 377 268 379 L 269 381 L 270 455 L 270 457 L 269 465 L 269 467 Q 268 470 271 469 L 270 468 L 271 467 L 271 435 L 272 432 L 271 428 L 272 423 L 272 338 L 273 337 L 273 303 L 274 302 L 274 294 L 273 293 L 274 290 L 274 278 L 273 277 L 274 274 L 273 270 L 274 266 L 273 262 L 274 257 L 274 255 L 274 226 L 272 225 Q 271 222 275 223 L 276 224 L 275 221 L 276 214 L 270 214 L 269 213 Z M 287 213 L 287 215 L 294 215 Q 292 211 287 213 Z M 157 214 L 154 219 L 157 217 L 157 214 Z M 209 214 L 209 216 Q 215 217 219 215 L 209 214 Z M 233 215 L 231 217 L 232 220 L 233 222 L 253 222 L 255 222 L 259 223 L 260 217 L 235 216 L 233 215 Z M 142 216 L 139 218 L 142 219 L 142 216 Z M 279 216 L 279 224 L 285 224 L 287 224 L 289 223 L 290 224 L 309 224 L 310 225 Q 316 227 318 224 L 327 226 Q 329 225 328 221 Q 330 219 328 218 L 324 219 L 320 218 L 316 219 L 315 218 L 297 218 L 296 217 L 279 216 Z M 105 217 L 99 223 L 100 225 L 105 219 L 105 217 Z M 226 217 L 225 218 L 193 221 L 192 222 L 181 222 L 181 230 L 191 228 L 193 229 L 204 227 L 206 227 L 214 226 L 216 226 L 221 225 L 223 225 L 229 223 L 228 221 Q 230 216 226 217 Z M 119 219 L 118 221 L 120 222 L 119 219 Z M 68 220 L 67 221 L 51 221 L 49 223 L 50 225 Q 48 229 52 228 L 54 228 L 58 226 L 70 226 L 71 225 L 75 226 L 77 226 L 82 225 L 86 225 L 86 220 L 82 221 L 75 220 L 72 221 L 68 220 Z M 168 220 L 164 226 L 165 227 L 168 223 L 168 220 Z M 171 220 L 171 223 Q 174 222 171 220 Z M 105 221 L 102 225 L 105 223 L 105 221 Z M 136 222 L 135 225 L 136 227 L 138 224 Q 139 221 136 222 Z M 159 222 L 157 224 L 158 227 L 159 225 L 159 222 Z M 174 222 L 170 228 L 171 229 L 174 225 L 174 222 Z M 333 222 L 330 228 L 323 228 L 316 226 Q 311 225 313 229 L 325 229 L 327 230 L 329 230 L 331 229 L 335 230 L 335 222 L 333 222 Z M 96 223 L 94 225 L 96 225 L 96 223 Z M 155 223 L 153 225 L 154 227 L 155 225 L 155 223 Z M 170 223 L 167 227 L 168 228 L 170 225 L 170 223 Z M 231 224 L 230 227 L 227 226 L 226 227 L 212 228 L 210 230 Q 211 234 207 232 L 206 229 Q 197 228 194 233 L 196 236 L 198 235 Q 202 234 203 237 L 202 238 L 193 238 L 193 239 Q 202 240 207 238 L 209 234 L 211 236 L 210 238 L 210 258 L 211 259 L 211 268 L 210 269 L 211 271 L 211 279 L 210 280 L 211 282 L 211 323 L 212 324 Q 214 330 211 332 L 212 333 L 212 355 L 213 356 L 213 392 L 213 394 L 215 396 L 221 391 L 220 388 L 222 379 Q 221 376 224 377 L 224 374 L 226 374 L 228 374 L 227 267 L 226 266 L 226 238 L 225 235 Q 228 233 224 232 L 226 228 L 228 228 L 228 233 L 231 233 L 229 232 L 234 229 L 235 232 L 233 233 L 238 234 Q 237 229 240 228 L 239 226 L 238 224 L 231 224 Z M 249 224 L 242 225 L 243 229 L 242 233 Q 243 236 240 235 L 240 270 L 241 271 L 240 273 Q 239 277 241 279 L 240 281 L 241 284 L 241 319 L 240 320 L 241 322 L 241 362 L 242 363 L 241 366 L 242 367 L 243 378 L 244 375 L 243 373 L 244 369 L 246 367 L 252 367 L 252 340 L 249 335 L 250 330 L 254 327 Q 256 320 261 316 L 261 293 L 262 292 L 261 289 L 261 270 L 262 269 L 261 266 L 261 224 L 257 225 L 255 225 L 249 224 Z M 101 225 L 99 228 L 101 227 L 101 225 Z M 278 225 L 276 227 L 276 307 L 275 308 L 275 317 L 278 318 L 280 315 L 281 315 L 281 299 L 281 297 L 280 292 L 287 277 L 290 275 L 290 280 L 295 289 L 295 273 L 295 271 L 296 267 L 296 242 L 296 240 L 294 235 Q 303 234 308 237 L 309 236 L 310 228 Q 309 225 306 226 L 304 226 L 298 227 L 297 234 Q 293 236 294 231 L 287 231 L 286 226 L 285 226 Q 279 228 278 225 Z M 103 226 L 101 229 L 104 227 L 103 226 Z M 290 226 Q 288 231 294 229 Q 296 224 290 226 Z M 131 227 L 131 229 L 133 228 L 131 227 Z M 134 228 L 132 231 L 134 230 L 134 228 Z M 174 228 L 173 231 L 174 231 L 174 228 Z M 55 229 L 51 231 L 47 230 L 24 247 L 21 247 L 22 253 L 35 245 L 46 240 L 57 232 Q 58 228 55 229 Z M 72 229 L 65 231 L 72 232 L 71 234 L 65 233 L 65 236 L 73 236 L 73 238 L 66 238 L 66 239 Q 76 241 80 237 L 78 243 L 78 272 L 79 273 L 78 277 L 78 279 L 79 282 Q 81 288 78 290 L 78 335 L 78 337 L 79 340 Q 81 345 78 347 Q 81 350 79 358 L 80 359 L 79 361 L 79 427 L 80 428 L 79 431 L 80 437 L 80 439 L 79 444 L 80 445 L 80 454 L 90 456 L 98 453 L 103 453 L 102 438 L 101 437 L 101 422 L 102 421 L 98 395 L 99 392 L 98 390 L 99 387 L 96 373 L 96 371 L 95 369 Q 97 365 96 359 L 98 357 Q 101 358 99 354 L 102 353 L 105 355 L 105 354 L 114 348 L 117 348 L 130 342 L 146 338 L 149 336 Q 153 335 155 337 L 156 336 L 172 335 L 170 332 L 167 333 L 164 332 L 154 332 L 148 334 L 143 334 L 106 347 L 109 349 L 108 350 L 97 352 L 98 356 L 94 355 L 95 352 L 92 349 L 93 348 Q 94 342 91 341 L 91 336 L 94 334 Q 95 331 92 330 Q 91 322 94 319 L 93 317 Q 92 310 95 308 L 93 304 L 93 300 L 89 294 L 89 288 L 86 287 L 86 267 L 87 266 L 85 263 L 88 243 L 88 241 Q 89 233 87 230 L 81 229 L 79 232 L 80 234 Q 81 238 77 236 L 76 234 L 77 231 Q 76 228 72 229 Z M 93 229 L 93 231 L 95 230 L 93 229 Z M 96 229 L 95 232 L 97 234 L 98 230 L 96 229 Z M 148 229 L 145 233 L 146 235 L 148 231 L 148 229 Z M 100 231 L 100 233 L 102 232 L 100 231 Z M 153 231 L 150 235 L 151 237 L 153 234 L 153 231 Z M 172 231 L 168 236 L 169 238 L 172 233 L 172 231 Z M 103 232 L 101 235 L 104 233 L 103 232 Z M 188 232 L 181 233 L 182 240 L 182 247 L 184 247 L 185 253 L 185 263 Q 182 264 183 271 L 181 272 L 181 273 L 186 272 L 185 281 L 182 282 L 172 302 L 172 309 L 169 311 L 176 319 L 175 339 L 174 340 L 174 374 L 175 375 L 175 386 L 176 387 L 179 432 L 181 435 L 195 427 L 197 422 L 201 420 L 200 417 L 199 366 Q 197 364 198 360 L 198 358 L 199 355 L 198 354 L 198 334 L 197 333 L 197 313 L 196 312 L 197 309 L 196 306 L 195 249 Q 192 246 193 241 L 190 240 L 192 236 L 191 234 Q 192 231 188 232 Z M 313 232 L 311 234 L 312 236 L 310 240 L 310 258 L 309 259 L 310 261 L 309 266 L 309 296 L 316 296 L 316 296 L 316 244 L 314 242 L 316 239 Q 313 240 314 237 L 315 234 Q 316 231 313 232 Z M 318 232 L 318 239 L 317 240 L 323 241 L 330 241 L 330 234 L 329 232 L 318 232 Z M 332 232 Q 334 235 333 243 L 330 244 L 331 247 L 330 248 L 329 298 L 331 297 L 333 300 Q 331 305 335 307 L 336 307 L 336 278 L 336 276 L 335 274 L 336 272 L 335 270 L 335 233 L 332 232 Z M 60 233 Q 56 238 50 239 L 48 246 L 49 251 L 48 261 L 48 263 L 49 265 L 48 268 L 49 272 L 48 274 L 49 282 L 49 284 L 48 290 L 48 292 L 49 315 L 53 317 L 55 318 L 55 325 L 49 328 L 49 356 L 50 357 L 49 359 L 50 362 L 49 366 L 50 369 L 49 373 L 50 375 L 50 421 L 51 422 L 50 425 L 51 428 L 51 430 L 51 443 L 50 444 L 51 446 L 51 455 L 59 454 L 65 448 L 67 448 Q 68 452 70 449 L 69 448 L 69 405 L 68 404 L 66 307 L 65 306 L 66 304 L 65 302 L 65 265 L 64 264 L 65 261 L 63 243 Q 58 241 60 233 Z M 155 233 L 155 235 L 157 234 L 155 233 Z M 167 233 L 165 235 L 166 237 L 167 235 L 167 233 Z M 130 236 L 129 242 L 130 242 L 130 236 Z M 228 236 L 229 239 L 229 266 Q 231 267 230 272 L 229 275 L 230 277 L 230 332 L 231 333 L 230 338 L 231 340 L 231 366 L 232 367 L 231 370 L 232 372 L 232 401 L 233 404 L 232 409 L 233 410 L 233 488 L 234 489 L 233 491 L 234 493 L 234 512 L 236 511 L 235 510 L 235 392 L 235 390 L 234 388 L 235 386 Q 237 380 234 379 L 235 375 L 234 370 Q 233 364 235 363 L 234 360 L 234 330 L 233 329 L 234 327 L 232 320 L 233 318 L 233 274 L 233 272 L 232 269 L 233 265 L 233 263 Q 235 256 232 255 L 232 239 L 233 238 Q 232 235 228 236 Z M 234 236 L 235 241 L 235 277 L 236 278 L 236 295 L 235 296 L 236 299 L 237 405 L 238 406 L 237 408 L 238 415 L 238 417 L 237 419 L 238 421 L 237 423 L 238 425 Q 240 430 237 432 L 238 433 L 238 460 L 239 460 L 239 369 L 238 368 L 239 366 Q 240 361 238 360 L 239 357 Q 241 350 238 349 Q 236 342 239 341 L 238 338 L 238 266 L 237 265 L 238 263 L 237 260 L 237 237 L 234 236 Z M 101 237 L 100 243 L 101 243 L 101 237 Z M 139 237 L 137 240 L 139 239 L 139 237 Z M 125 238 L 124 242 L 125 242 L 125 238 Z M 299 238 L 299 240 L 298 241 L 298 301 L 297 309 L 295 308 L 295 299 L 294 297 Q 290 298 291 295 L 288 293 Q 290 299 285 297 L 286 294 L 286 292 L 284 294 L 284 303 L 283 304 L 284 305 L 284 314 L 287 312 L 291 313 L 291 317 L 295 321 L 295 318 L 294 315 L 296 310 L 297 315 L 297 317 L 296 320 L 297 322 L 296 323 L 296 353 L 296 355 L 295 359 L 296 362 L 295 363 L 295 410 L 294 411 L 294 426 L 295 428 L 295 430 L 294 431 L 294 485 L 294 487 L 293 490 L 294 492 L 293 496 L 293 498 L 294 514 L 295 513 L 296 440 L 297 439 L 297 410 L 298 409 L 298 371 L 299 370 L 299 343 L 300 342 L 300 318 L 301 317 L 301 290 Q 303 288 302 284 L 302 282 L 302 239 L 299 238 Z M 163 239 L 161 242 L 163 241 L 163 239 Z M 305 239 L 304 304 L 303 305 L 303 322 L 302 323 L 303 326 L 303 328 L 302 331 L 302 355 L 301 356 L 301 421 L 300 422 L 300 447 L 299 448 L 299 476 L 298 477 L 299 478 L 300 486 L 301 431 L 302 430 L 301 428 L 302 427 L 302 403 L 303 402 L 303 366 L 303 364 L 304 363 L 304 344 L 305 343 L 305 324 L 306 323 L 306 287 L 307 286 L 307 251 L 308 250 L 308 240 L 305 239 Z M 151 240 L 150 243 L 151 243 L 151 240 Z M 207 240 L 205 242 L 206 308 L 207 309 L 206 311 L 207 312 L 207 339 L 208 340 L 208 376 L 209 377 L 209 402 L 210 403 L 210 428 L 211 428 L 211 393 L 210 392 L 210 379 L 211 378 L 210 376 L 210 339 L 209 338 L 208 259 L 208 257 L 207 252 L 208 249 L 207 240 Z M 69 241 L 68 278 L 69 282 L 69 284 L 68 286 L 69 290 L 69 292 L 69 300 L 68 301 L 69 302 L 69 339 L 69 341 L 70 343 L 69 345 L 70 347 L 69 349 L 70 352 L 71 419 L 72 420 L 72 461 L 73 462 L 72 464 L 73 465 L 74 499 L 74 453 L 74 451 L 73 449 L 73 413 L 72 412 L 72 370 L 71 367 L 72 363 L 71 362 L 71 323 L 70 319 L 70 317 L 70 301 L 71 300 L 71 285 L 70 284 L 71 282 L 71 280 L 70 277 L 70 248 L 69 247 L 70 245 L 69 241 Z M 73 241 L 72 244 L 73 245 L 73 330 L 73 332 L 74 335 L 74 346 L 73 347 L 74 349 L 74 379 L 75 380 L 75 437 L 76 441 L 76 443 L 75 448 L 76 449 L 76 485 L 77 485 L 77 414 L 76 413 L 77 410 L 77 385 L 76 384 Q 75 378 77 377 L 76 376 L 76 330 L 76 328 Q 78 322 75 321 L 75 307 L 76 306 L 75 305 L 75 295 L 75 293 L 75 283 L 76 282 L 75 279 L 75 245 L 75 243 Q 76 240 73 241 Z M 119 241 L 119 246 L 121 247 L 119 241 Z M 144 242 L 144 244 L 146 243 L 144 242 Z M 197 242 L 198 247 L 199 304 L 200 305 L 200 339 L 201 340 L 201 358 L 202 359 L 202 381 L 203 382 L 206 492 L 206 494 L 207 495 L 207 505 L 208 505 L 208 482 L 207 481 L 207 471 L 208 470 L 207 468 L 207 438 L 207 436 L 206 430 L 206 428 L 207 424 L 206 422 L 206 389 L 205 388 L 205 356 L 204 353 L 205 351 L 205 342 L 204 341 L 204 311 L 203 310 L 204 308 L 203 305 L 204 302 L 203 301 L 203 273 L 202 272 L 202 243 L 197 242 Z M 319 243 L 319 312 L 318 313 L 319 315 L 318 323 L 318 325 L 318 427 L 319 428 L 318 429 L 318 461 L 317 462 L 319 466 L 319 432 L 319 430 L 320 429 L 320 368 L 321 367 L 321 337 L 322 336 L 322 247 L 323 246 Q 324 241 319 243 Z M 325 243 L 326 246 L 325 249 L 325 293 L 324 294 L 325 298 L 324 301 L 324 339 L 323 342 L 324 346 L 323 347 L 323 386 L 322 387 L 323 390 L 322 395 L 322 441 L 321 442 L 322 488 L 322 460 L 323 459 L 323 421 L 324 420 L 324 380 L 325 379 L 325 350 L 326 349 L 325 347 L 326 345 L 326 296 L 326 294 L 327 292 L 327 246 L 328 245 L 325 243 Z M 126 244 Q 124 247 127 246 L 126 244 Z M 41 245 L 36 250 L 36 254 L 40 254 L 40 256 L 39 258 L 44 255 Q 45 252 42 253 Q 41 250 44 251 L 45 248 Q 46 243 41 245 Z M 122 247 L 123 249 Q 124 246 122 247 Z M 146 247 L 145 251 L 146 251 L 146 247 Z M 153 247 L 154 250 L 155 248 L 153 247 Z M 181 253 L 174 256 L 156 260 L 142 261 L 141 262 L 131 262 L 129 262 L 126 263 Q 119 265 118 262 L 113 263 L 103 262 L 90 255 L 88 262 L 92 261 Q 93 264 96 263 L 95 266 L 91 265 L 93 268 L 97 267 L 99 263 L 101 264 Q 107 262 105 267 L 108 268 L 109 268 L 108 265 L 118 266 L 120 266 Q 133 268 142 265 L 144 265 L 154 267 L 172 266 L 179 263 L 182 262 Q 184 255 181 253 Z M 45 257 L 43 259 L 44 261 L 44 317 L 46 317 L 46 300 L 45 299 L 46 295 L 45 291 L 45 278 L 46 277 L 45 276 L 45 257 Z M 40 261 L 38 263 L 39 264 L 39 314 L 40 315 L 39 317 L 41 317 L 41 286 L 40 285 Q 38 278 41 277 L 40 261 Z M 179 265 L 175 266 L 176 268 L 180 266 L 179 265 Z M 139 267 L 136 268 L 136 269 L 147 269 L 139 267 Z M 113 268 L 113 269 Q 118 268 120 270 L 121 270 Q 119 266 113 268 Z M 130 268 L 131 270 L 134 269 L 130 268 Z M 123 269 L 123 270 L 125 270 L 123 269 Z M 165 269 Q 163 272 166 271 L 165 269 Z M 142 270 L 139 271 L 140 273 L 143 272 Q 144 269 142 270 Z M 152 270 L 153 273 L 154 271 L 152 270 Z M 109 271 L 109 274 L 114 273 Q 113 270 109 271 Z M 19 276 L 16 277 L 14 281 L 14 288 L 19 290 L 24 289 L 26 286 L 26 281 L 24 277 L 19 276 Z M 182 276 Q 180 279 179 277 L 172 280 L 168 280 L 161 283 L 156 283 L 152 285 L 133 287 L 131 287 L 129 288 Q 123 290 122 287 L 117 288 L 103 284 L 99 284 L 89 280 L 90 283 L 89 285 L 92 286 Q 93 289 95 287 L 101 288 L 103 288 Q 108 291 118 290 L 120 290 L 123 291 L 127 290 L 129 291 L 131 290 L 150 289 L 152 289 L 175 284 L 182 280 L 182 276 Z M 148 279 L 146 281 Q 145 283 148 282 L 148 279 Z M 123 280 L 122 283 L 123 283 L 123 280 Z M 295 291 L 294 294 L 295 294 L 295 291 Z M 19 292 L 20 297 L 18 297 Q 17 300 21 299 L 19 303 L 20 305 L 19 307 Q 18 310 21 309 L 20 312 Q 22 311 21 314 L 18 316 L 22 316 L 21 319 L 26 319 Q 27 321 28 319 L 27 307 L 23 294 L 23 292 L 19 292 Z M 93 292 L 93 296 L 100 298 L 101 301 L 103 300 L 106 303 L 114 306 L 124 307 L 130 311 L 134 311 L 147 315 L 148 318 L 134 314 Q 129 313 130 316 L 152 320 L 160 323 Q 162 322 161 325 L 171 329 L 172 328 L 173 321 L 172 321 L 167 317 Q 164 318 165 316 L 164 314 Q 156 314 152 311 Q 148 312 149 309 L 152 308 L 160 311 L 163 311 L 156 307 L 150 307 L 146 305 L 135 304 L 128 301 L 123 301 L 115 298 L 101 296 L 93 292 Z M 144 293 L 141 297 L 143 297 L 144 295 L 144 293 Z M 140 294 L 139 297 L 140 297 L 140 294 Z M 309 298 L 309 304 L 309 306 L 307 324 L 307 326 L 308 328 L 307 329 L 307 352 L 306 353 L 306 379 L 306 381 L 305 385 L 306 390 L 305 391 L 305 414 L 304 415 L 305 417 L 304 418 L 303 471 L 314 471 L 314 468 L 315 465 L 314 461 L 315 459 L 315 362 L 316 361 Q 317 356 315 355 L 316 354 L 316 299 L 309 298 Z M 148 299 L 147 302 L 148 302 L 148 299 Z M 96 300 L 97 304 L 105 308 L 113 310 L 115 310 L 120 312 L 126 312 L 121 309 L 119 309 L 109 307 L 102 304 L 100 301 L 96 300 Z M 330 305 L 329 321 L 328 322 L 328 346 L 327 347 L 328 349 L 327 351 L 327 394 L 327 396 Q 328 400 326 402 L 327 404 L 326 405 L 326 435 L 325 436 L 326 441 L 325 442 L 325 470 L 328 469 Q 332 468 333 471 L 332 473 L 334 473 L 335 474 L 335 464 L 334 463 L 334 444 L 335 443 L 334 441 L 336 430 L 335 429 L 335 387 L 334 386 L 335 366 L 335 364 L 336 362 Q 338 351 335 345 L 335 343 L 336 339 L 336 310 L 331 309 L 330 305 Z M 99 307 L 96 313 L 97 317 L 104 318 L 106 318 L 112 318 L 118 316 L 120 317 L 125 316 L 127 317 L 127 315 L 119 313 L 112 313 L 106 310 L 99 309 L 99 307 Z M 164 311 L 167 314 L 168 314 Q 168 310 164 311 Z M 288 315 L 283 326 L 283 327 L 288 326 Q 291 325 290 328 L 289 329 L 275 330 L 275 345 L 274 346 L 275 348 L 274 350 L 274 394 L 275 395 L 275 410 L 274 411 L 275 413 L 275 430 L 275 432 L 274 471 L 290 471 L 291 470 L 290 466 L 291 465 L 291 443 L 291 441 L 292 436 L 292 396 L 293 395 L 293 387 L 292 386 L 292 376 L 293 375 L 292 371 L 293 367 L 294 327 L 291 326 Q 293 318 289 319 L 288 315 Z M 45 318 L 8 325 Q 5 326 7 328 L 6 330 L 7 333 L 16 330 Q 30 329 41 325 L 42 326 L 51 326 L 51 318 L 45 318 Z M 261 321 Q 258 322 259 327 L 261 326 L 261 321 Z M 281 322 L 279 326 L 281 325 L 281 322 Z M 295 322 L 294 325 L 295 325 L 295 322 Z M 139 323 L 118 327 L 115 329 L 99 333 L 94 337 L 96 342 L 96 349 Q 97 351 99 349 Q 103 351 102 347 L 106 344 L 126 337 L 155 330 L 163 330 L 163 328 L 160 326 L 158 327 L 156 327 L 142 327 L 125 331 L 120 331 L 124 328 L 145 325 L 139 323 Z M 151 323 L 153 325 Q 154 322 151 323 Z M 41 329 L 40 346 L 41 347 L 41 382 L 42 383 L 41 385 L 42 387 L 42 415 L 43 416 L 43 460 L 44 461 L 43 463 L 44 466 L 44 508 L 46 508 L 45 503 L 46 499 L 46 497 Q 47 492 45 491 L 46 488 L 46 486 L 45 484 L 45 474 L 46 473 L 45 472 L 45 445 L 44 444 L 44 404 L 43 403 L 44 401 L 43 400 L 43 359 L 42 358 L 42 342 L 41 341 L 41 329 Z M 44 329 L 44 342 L 45 343 L 44 346 L 45 348 L 45 379 L 46 380 L 46 437 L 47 438 L 46 440 L 47 443 L 46 447 L 46 449 L 47 451 Q 48 455 46 457 L 47 458 L 48 509 L 49 509 L 49 431 L 48 430 L 49 427 L 48 425 L 48 396 L 47 395 L 48 390 Q 49 385 47 384 L 48 382 L 47 380 L 47 347 L 46 345 L 46 343 L 46 330 L 44 329 Z M 254 329 Q 252 336 256 339 L 256 340 L 259 339 L 261 341 L 260 330 L 254 329 Z M 33 330 L 34 336 L 34 338 L 33 342 L 34 396 L 34 398 L 35 401 L 35 425 L 34 426 L 36 433 L 36 458 L 41 458 L 41 446 L 41 444 L 40 442 L 41 440 L 40 439 L 40 413 L 40 411 L 39 406 L 39 384 L 38 383 L 38 349 L 37 348 L 37 331 L 33 330 Z M 30 331 L 29 333 Q 26 337 17 337 L 19 337 L 20 339 L 26 337 L 29 338 Q 27 341 21 341 L 21 342 L 30 341 L 31 338 L 31 336 L 30 331 Z M 22 332 L 22 333 L 25 333 L 22 332 Z M 12 334 L 6 337 L 6 395 L 7 396 L 6 398 L 6 460 Q 15 461 21 459 L 20 453 L 19 416 L 18 415 L 16 349 L 13 342 L 13 335 L 12 334 Z M 170 338 L 171 364 L 171 346 L 171 344 L 170 338 Z M 257 342 L 257 362 L 257 364 L 258 367 Q 258 370 254 369 L 251 370 L 249 369 Q 245 373 247 382 L 245 383 L 242 382 L 242 442 L 243 443 L 242 446 Q 244 450 243 459 L 243 461 L 242 463 L 243 464 L 244 472 Q 245 470 250 471 L 250 470 Q 245 471 246 468 L 249 467 Q 251 468 250 465 L 256 463 L 258 469 Q 257 472 260 471 L 260 446 L 261 445 L 260 442 L 261 440 L 260 437 L 261 433 L 260 428 L 260 426 L 260 412 L 261 411 L 260 407 L 261 405 L 261 403 L 260 399 L 261 398 L 261 374 L 261 372 L 260 369 L 260 367 L 261 362 L 260 357 L 260 345 L 261 342 L 259 343 L 257 342 Z M 27 343 Q 24 344 26 346 L 25 349 L 26 352 L 26 373 L 27 374 L 27 409 L 27 411 L 28 413 L 28 445 L 29 446 L 28 449 L 29 450 L 29 470 L 30 474 L 30 476 L 29 479 L 30 482 L 30 490 L 29 491 L 30 492 L 30 528 L 31 529 L 30 532 L 31 535 L 31 537 L 30 539 L 31 543 L 31 570 L 32 575 L 36 574 L 35 570 L 36 567 L 36 565 L 35 563 L 36 561 L 35 559 L 35 507 L 34 506 Q 33 500 35 499 L 34 495 L 34 470 L 33 469 Q 31 462 34 461 Q 31 453 33 441 L 33 439 L 32 437 L 32 435 L 33 432 L 32 430 L 33 427 L 32 426 L 32 410 L 31 409 L 32 407 L 31 403 L 32 401 L 31 399 L 31 381 L 32 380 L 31 379 L 31 352 Q 29 350 30 345 L 27 343 Z M 22 344 L 19 345 L 19 360 L 20 362 L 20 364 L 19 366 L 20 368 L 20 381 L 21 382 L 20 384 L 20 386 L 21 387 L 21 403 L 22 404 L 21 406 L 22 407 L 22 432 L 23 433 L 22 435 L 23 438 L 24 483 L 24 485 L 25 487 L 25 513 L 26 514 L 26 527 L 25 528 L 26 529 L 26 543 L 26 545 L 27 546 L 27 572 L 27 574 L 28 576 L 29 576 L 28 478 L 27 477 L 28 474 L 27 472 L 27 445 L 26 444 L 26 418 L 25 415 L 26 411 L 25 410 L 25 396 L 24 391 L 25 389 L 24 388 L 24 367 L 23 366 L 23 353 L 24 352 Q 21 350 22 344 Z M 111 352 L 110 355 L 111 355 L 111 352 Z M 100 356 L 101 359 L 102 357 L 100 356 Z M 111 357 L 110 362 L 111 362 L 111 357 Z M 106 358 L 103 363 L 104 365 L 106 361 L 106 358 Z M 112 367 L 109 372 L 112 370 L 112 367 Z M 171 367 L 170 371 L 171 371 L 171 367 Z M 112 372 L 110 376 L 113 374 Q 114 371 112 372 Z M 121 374 L 121 377 L 123 376 Q 124 373 121 374 Z M 172 374 L 171 385 L 172 386 L 173 407 L 175 408 L 173 398 L 173 383 L 172 374 Z M 106 375 L 104 378 L 106 377 L 106 375 Z M 228 375 L 227 378 L 228 378 L 228 375 Z M 107 378 L 105 381 L 107 381 L 107 378 Z M 111 378 L 111 381 L 113 380 Q 114 377 111 378 Z M 123 380 L 121 383 L 123 382 L 123 380 Z M 113 381 L 111 384 L 113 383 L 113 381 Z M 141 383 L 139 385 L 140 387 L 141 385 L 141 383 Z M 107 384 L 105 388 L 107 387 L 107 384 Z M 127 385 L 121 392 L 127 387 L 127 385 Z M 224 386 L 224 395 Q 223 397 222 395 L 219 398 L 218 397 Q 218 402 216 403 Q 212 402 214 408 L 214 410 L 213 414 L 214 415 L 214 439 L 215 440 L 214 442 L 214 453 L 216 460 L 220 449 Q 222 441 218 442 L 217 436 L 222 424 Q 223 420 227 421 L 221 434 L 222 436 L 226 433 L 224 441 L 224 448 L 218 462 L 215 463 L 215 474 L 223 473 L 216 472 L 219 469 L 229 469 L 229 406 L 228 405 L 229 401 L 229 399 L 228 392 L 228 390 Q 230 384 224 386 Z M 141 387 L 138 389 L 140 391 L 141 389 L 141 387 Z M 108 388 L 106 390 L 108 390 L 108 388 Z M 126 388 L 126 390 L 128 389 L 126 388 Z M 110 390 L 108 392 L 110 392 L 111 393 L 110 390 Z M 128 391 L 123 397 L 128 393 L 128 391 Z M 114 392 L 111 396 L 114 394 L 114 392 Z M 119 394 L 118 397 L 119 397 L 119 394 Z M 128 394 L 125 398 L 128 396 L 128 394 Z M 139 394 L 139 397 L 141 396 Q 142 393 139 394 Z M 111 396 L 107 400 L 108 402 L 111 398 L 111 396 Z M 114 397 L 111 401 L 114 399 L 114 397 Z M 141 400 L 139 404 L 141 403 L 141 400 Z M 111 401 L 108 405 L 111 403 L 111 401 Z M 122 401 L 118 406 L 122 403 L 122 401 Z M 128 401 L 126 404 L 128 403 L 128 401 Z M 114 402 L 109 408 L 114 404 L 114 402 Z M 125 404 L 123 406 L 125 406 L 125 404 Z M 128 404 L 123 410 L 128 406 L 128 404 Z M 138 406 L 138 408 L 140 407 L 138 406 Z M 142 406 L 139 410 L 143 407 L 142 406 Z M 114 408 L 112 411 L 114 410 L 114 408 Z M 131 408 L 132 411 L 133 409 L 131 408 Z M 174 408 L 174 411 L 175 434 L 178 446 L 178 452 L 180 456 L 178 459 L 179 460 L 181 459 L 179 464 L 181 464 L 182 462 L 183 466 L 182 469 L 185 467 L 186 468 L 183 472 L 187 469 L 188 473 L 191 472 Q 192 468 190 469 Q 182 464 180 454 L 179 444 L 176 433 L 176 416 Q 174 414 175 410 L 174 408 Z M 120 409 L 118 411 L 119 413 L 120 411 L 120 409 Z M 127 409 L 125 412 L 127 413 L 127 409 Z M 112 411 L 110 414 L 112 413 L 112 411 Z M 135 411 L 131 416 L 135 413 L 135 411 Z M 113 413 L 111 416 L 113 415 L 113 413 Z M 122 414 L 120 418 Q 118 423 122 422 L 121 420 L 122 418 L 122 414 Z M 128 414 L 126 417 L 128 416 L 128 414 Z M 116 416 L 112 421 L 115 419 L 116 420 L 117 420 L 116 416 Z M 140 416 L 140 418 L 142 417 L 140 416 Z M 145 416 L 138 424 L 145 418 L 145 416 Z M 108 418 L 106 421 L 108 422 L 108 418 Z M 145 419 Q 145 422 142 421 L 138 428 L 145 422 L 145 419 Z M 115 420 L 112 424 L 115 422 L 115 420 Z M 116 421 L 117 424 L 114 429 L 114 430 L 116 429 Q 115 426 118 427 L 118 421 L 116 421 Z M 199 423 L 198 427 L 195 428 Q 190 431 188 438 L 181 444 L 182 451 L 185 459 L 188 458 L 191 460 Q 194 459 192 463 Q 189 464 188 461 L 187 463 L 193 467 L 195 466 L 201 468 L 202 466 L 201 464 L 202 460 L 201 459 L 201 430 L 200 429 L 201 424 L 199 423 Z M 108 424 L 106 427 L 108 426 L 108 424 Z M 115 424 L 109 431 L 115 426 L 115 424 Z M 110 425 L 108 428 L 111 426 L 110 425 Z M 119 427 L 118 429 L 117 431 L 119 430 L 119 427 Z M 131 427 L 131 429 L 133 428 L 131 427 Z M 135 427 L 133 430 L 135 429 L 135 427 Z M 145 427 L 143 429 L 145 429 L 145 427 Z M 211 429 L 210 432 L 211 432 L 211 429 Z M 113 430 L 110 433 L 111 435 L 113 432 L 113 430 Z M 145 430 L 138 438 L 145 432 L 145 430 Z M 115 432 L 110 437 L 111 439 L 115 434 L 115 432 Z M 211 433 L 210 436 L 211 436 L 211 433 Z M 119 434 L 113 441 L 114 442 L 120 436 L 119 434 Z M 145 435 L 142 439 L 144 439 L 145 437 L 145 435 Z M 121 437 L 113 445 L 114 446 L 122 439 Q 123 436 121 437 Z M 131 437 L 131 440 L 133 439 Q 134 436 131 437 Z M 184 437 L 183 438 Q 179 437 180 440 L 185 438 L 184 437 Z M 122 440 L 120 442 L 122 442 L 122 440 Z M 141 440 L 140 444 L 141 444 L 141 440 Z M 138 441 L 137 444 L 138 444 L 138 441 Z M 211 441 L 212 443 Q 213 440 211 441 Z M 113 442 L 111 445 L 113 444 L 113 442 Z M 119 442 L 112 450 L 113 452 L 120 443 L 119 442 Z M 134 442 L 132 444 L 133 446 L 134 444 L 134 442 Z M 144 444 L 142 446 L 144 446 L 144 444 Z M 121 447 L 121 449 L 113 459 L 114 461 L 122 452 Q 124 446 121 447 Z M 144 447 L 141 451 L 137 453 L 138 456 L 144 449 L 144 447 Z M 212 448 L 211 455 L 212 455 L 212 448 Z M 139 449 L 137 452 L 139 451 L 139 449 Z M 115 451 L 112 455 L 115 453 L 115 451 Z M 66 452 L 61 457 L 61 455 Q 57 459 51 458 L 50 465 L 52 465 L 53 463 L 52 461 L 54 459 L 62 459 L 63 457 L 63 459 L 66 459 L 67 456 L 68 456 L 66 462 L 69 462 L 69 453 L 67 454 L 66 452 Z M 132 453 L 130 455 L 132 455 L 132 453 Z M 98 456 L 93 459 L 82 458 L 80 458 L 81 460 L 90 460 L 92 460 L 96 460 L 98 462 L 104 463 L 105 464 L 104 461 L 104 459 L 104 456 L 98 456 Z M 122 457 L 117 463 L 122 459 L 122 457 Z M 144 457 L 138 463 L 138 465 L 138 467 L 139 469 L 144 462 L 140 464 L 144 459 L 144 457 Z M 212 457 L 211 495 L 212 495 L 212 457 Z M 133 458 L 131 463 L 136 459 L 133 458 Z M 110 459 L 109 462 L 110 462 L 110 459 Z M 117 459 L 114 463 L 117 461 L 117 459 Z M 41 460 L 36 461 L 36 463 L 41 463 L 41 460 Z M 122 460 L 115 469 L 116 471 L 122 463 L 122 460 Z M 18 462 L 17 464 Q 22 462 20 468 L 21 468 Q 24 460 18 462 Z M 111 462 L 109 464 L 110 468 L 111 468 L 111 462 Z M 239 462 L 238 465 L 239 465 L 239 462 Z M 11 463 L 10 465 L 15 464 L 11 463 Z M 64 464 L 63 465 L 52 465 L 53 467 L 54 466 L 67 466 L 68 469 L 66 470 L 61 469 Q 59 472 53 470 L 51 472 L 52 477 L 55 478 L 61 476 L 68 476 L 68 478 L 61 478 Q 59 481 54 480 L 52 480 L 53 490 L 64 488 L 64 487 Q 57 489 58 485 L 70 484 L 70 476 L 69 475 L 70 473 L 69 464 L 67 465 L 64 464 Z M 116 464 L 114 466 L 116 466 L 116 464 Z M 36 465 L 38 468 L 41 467 L 36 465 Z M 83 465 L 83 466 L 85 466 L 83 465 Z M 99 465 Q 99 468 103 468 L 106 468 L 105 466 L 104 466 L 99 465 Z M 318 466 L 318 490 L 318 473 L 319 472 L 318 466 Z M 96 468 Q 95 471 98 470 Q 99 467 96 468 Z M 122 468 L 118 473 L 122 470 L 122 468 Z M 134 468 L 131 471 L 132 473 L 134 470 L 134 468 Z M 81 469 L 80 484 L 87 485 L 89 481 L 93 479 L 96 479 L 97 480 L 97 477 L 91 477 L 91 475 L 95 474 L 97 475 L 99 474 L 100 477 L 100 478 Q 104 479 106 477 L 108 478 L 107 473 L 105 472 L 103 474 L 102 472 L 99 472 Q 94 473 93 471 L 91 472 L 89 471 Q 86 470 87 473 L 84 474 L 81 473 L 81 469 Z M 21 470 L 17 471 Q 15 475 19 474 L 21 474 L 21 470 Z M 143 470 L 138 477 L 143 473 L 143 470 Z M 156 470 L 154 473 L 152 474 L 149 478 L 153 475 L 154 478 L 149 484 L 150 485 L 152 484 L 155 480 Q 153 473 156 472 L 156 470 Z M 195 470 L 195 477 L 194 478 L 201 478 L 201 481 L 192 481 L 191 484 L 191 486 L 196 493 L 193 501 L 188 501 L 188 506 L 193 505 L 196 506 L 196 502 L 202 500 L 202 491 L 203 490 Q 202 487 201 489 L 199 488 Q 195 489 196 486 L 202 486 L 195 484 L 196 482 L 200 483 L 202 482 L 202 475 L 201 474 L 201 470 L 195 470 Z M 230 470 L 228 474 L 215 476 Q 217 479 216 487 L 229 487 L 230 486 L 229 483 L 229 481 Q 227 474 230 473 L 230 470 Z M 270 470 L 269 502 L 268 503 Q 266 509 270 508 L 270 470 Z M 40 471 L 37 475 Q 36 477 39 476 Q 40 479 37 478 L 37 491 L 42 491 L 41 480 L 41 478 Q 42 470 40 471 Z M 135 471 L 132 474 L 133 477 L 135 474 L 135 471 Z M 187 471 L 184 475 L 187 473 L 187 471 Z M 7 472 Q 4 476 10 474 Q 11 471 9 472 L 7 472 Z M 12 472 L 12 474 L 16 473 L 12 472 Z M 113 472 L 112 475 L 113 475 L 113 472 Z M 149 472 L 147 477 L 150 475 L 149 472 Z M 253 472 Q 250 476 243 475 L 242 482 L 243 488 L 256 486 L 260 486 L 260 474 Q 255 475 253 472 Z M 325 472 L 324 479 L 325 481 L 324 485 L 324 487 Q 322 493 330 490 L 329 488 L 325 489 L 327 486 Q 331 485 333 487 L 335 486 L 336 485 L 336 476 L 326 475 L 327 473 L 325 472 Z M 160 473 L 159 480 L 161 480 L 160 473 Z M 191 473 L 188 478 L 189 479 L 191 478 L 191 473 Z M 143 474 L 141 477 Q 142 479 140 478 L 133 486 L 134 489 L 135 487 Q 134 484 137 485 L 138 483 L 141 481 L 143 478 L 143 474 Z M 188 474 L 186 477 L 188 476 L 188 474 Z M 274 474 L 274 485 L 281 485 L 277 484 L 276 482 L 285 482 L 290 483 L 290 474 L 274 474 Z M 21 475 L 20 476 L 8 476 L 6 478 L 8 478 L 9 480 L 6 481 L 6 492 L 22 491 L 21 475 Z M 304 476 L 303 483 L 303 485 L 302 487 L 307 489 L 314 489 L 314 477 L 305 477 L 304 476 Z M 148 478 L 146 481 L 149 479 L 148 478 Z M 109 479 L 108 480 L 98 481 L 101 481 L 103 481 L 109 482 L 109 479 Z M 135 479 L 132 483 L 133 484 L 136 480 L 135 479 Z M 148 480 L 148 482 L 150 481 L 148 480 Z M 156 481 L 154 485 Q 153 487 152 485 L 147 492 L 148 493 L 151 489 Q 150 486 154 487 L 156 484 L 156 481 Z M 161 481 L 160 484 L 162 485 L 161 481 Z M 93 482 L 91 485 L 87 487 L 80 487 L 80 494 L 82 495 Q 79 496 80 501 L 80 503 L 81 507 L 81 505 L 87 504 L 89 504 L 100 506 L 109 506 L 108 509 L 106 508 L 104 509 Q 99 510 98 508 L 92 509 L 94 509 L 94 512 L 84 509 L 77 513 L 75 512 L 73 513 L 70 510 L 69 510 L 66 509 L 63 510 L 66 511 L 67 514 L 60 512 L 57 511 L 53 512 L 43 512 L 42 511 L 38 512 L 42 513 Q 45 512 44 515 L 40 516 L 38 516 Q 37 521 40 522 L 38 522 L 39 533 L 43 532 L 45 532 L 46 530 L 48 529 L 47 532 L 53 531 L 55 533 L 53 537 L 52 537 Q 53 533 49 535 L 47 538 L 50 537 Q 49 539 52 538 L 52 539 L 43 539 L 46 537 L 43 535 L 38 536 L 38 551 L 39 554 L 42 554 L 45 553 L 53 553 L 54 554 L 57 553 L 59 553 L 63 552 L 60 550 L 56 550 L 54 551 Q 49 552 48 550 L 46 551 L 44 551 L 44 547 L 40 548 Q 39 545 42 546 Q 43 543 45 547 Q 49 548 50 545 L 52 546 L 49 548 L 52 548 L 54 548 L 56 547 L 59 548 Q 66 549 70 545 Q 79 544 84 547 L 84 545 L 79 545 L 79 543 L 83 542 L 87 543 L 101 543 L 99 540 L 93 539 L 91 539 L 89 540 Q 83 542 82 539 Q 78 538 79 541 L 76 539 L 73 540 L 71 541 L 72 539 L 69 538 L 71 537 L 67 536 L 67 537 Q 69 536 68 539 L 66 540 L 64 540 L 60 539 L 60 538 Q 66 540 65 536 L 63 537 Q 56 538 55 535 Q 58 533 58 529 L 58 531 L 58 533 L 59 534 Q 60 532 65 533 L 67 533 L 74 533 L 74 531 L 75 531 Q 74 534 78 533 L 78 531 Q 80 530 79 533 L 81 533 L 82 531 L 85 532 L 86 530 L 86 532 L 89 533 L 95 531 L 95 533 L 97 532 L 99 533 L 101 532 L 103 533 L 104 534 L 103 532 L 106 528 L 102 526 L 100 527 L 87 527 L 85 527 Q 83 525 79 526 L 77 526 L 73 527 L 71 524 L 54 525 Q 51 526 53 528 L 53 529 L 52 527 L 50 528 L 48 526 L 48 524 L 50 524 L 53 522 L 61 522 L 62 521 L 73 522 Q 74 525 76 523 L 86 523 L 87 524 L 102 524 L 103 523 L 105 524 L 108 523 Q 107 519 110 520 L 111 518 Q 109 509 112 506 L 112 504 L 111 503 L 111 491 L 100 488 L 88 494 Q 85 493 86 497 L 85 497 L 85 494 Q 82 495 83 492 L 86 491 L 88 492 L 92 491 L 99 486 L 108 487 L 111 489 L 111 487 L 108 484 L 100 484 L 99 485 L 93 482 Z M 142 482 L 136 489 L 138 489 L 142 484 L 142 482 Z M 115 485 Q 113 488 116 487 L 115 485 Z M 148 485 L 145 490 L 148 488 L 148 485 Z M 157 485 L 153 491 Q 152 493 155 492 L 157 489 L 157 485 Z M 163 485 L 162 488 L 163 488 L 163 485 Z M 182 485 Q 179 487 182 488 L 183 486 L 182 485 Z M 290 486 L 289 490 L 290 490 L 290 486 Z M 188 487 L 187 489 L 187 493 L 189 493 L 190 493 L 189 495 L 190 498 L 191 498 Q 193 489 188 487 Z M 275 487 L 273 489 L 274 506 L 276 502 L 275 502 L 274 499 L 278 498 Q 285 497 289 499 Q 291 497 290 492 L 285 491 L 283 491 Q 278 492 279 489 L 283 490 Q 288 492 287 488 L 275 487 Z M 70 488 L 65 490 L 65 492 L 64 491 L 54 493 Q 51 492 52 495 L 68 492 L 69 497 L 68 496 Q 63 495 62 497 L 55 497 L 54 499 L 52 499 L 53 504 L 54 505 L 63 505 L 65 505 L 68 507 L 70 506 L 70 488 Z M 163 488 L 163 490 L 165 489 L 163 488 Z M 185 488 L 183 490 L 185 490 L 185 488 Z M 230 488 L 221 490 L 218 489 Q 215 488 216 491 L 230 490 L 230 488 Z M 160 489 L 156 491 L 154 496 L 155 497 L 161 490 L 160 489 Z M 252 489 L 243 491 L 244 504 L 246 500 L 249 499 L 255 500 L 257 500 L 260 498 L 260 489 L 252 489 Z M 77 490 L 76 495 L 77 495 L 77 490 Z M 135 490 L 133 493 L 135 492 L 135 490 Z M 299 490 L 298 505 L 297 506 L 298 515 L 299 508 L 299 496 L 300 495 L 299 490 Z M 302 490 L 302 498 Q 303 500 305 498 Q 311 496 312 500 L 310 500 L 311 502 L 313 501 Q 315 505 311 504 L 311 506 L 310 510 L 312 511 Q 311 504 314 505 L 314 491 Q 306 492 302 490 Z M 152 491 L 148 497 L 149 499 L 151 495 Q 155 493 152 491 Z M 332 491 L 331 492 L 324 492 L 324 498 L 329 497 L 336 498 L 336 491 L 332 491 Z M 228 492 L 227 493 L 216 493 L 216 498 L 221 499 L 222 504 L 226 506 Q 225 508 229 507 L 230 505 L 229 503 L 230 494 L 228 492 Z M 318 492 L 317 496 L 318 496 L 318 492 Z M 21 493 L 18 494 Q 17 497 20 496 L 22 496 Q 23 492 21 493 Z M 40 493 L 37 496 L 41 496 L 42 497 Q 44 492 40 493 Z M 142 493 L 137 499 L 138 501 L 142 496 L 142 493 Z M 8 494 L 7 496 L 17 495 L 17 494 L 11 495 L 8 494 Z M 158 496 L 156 499 L 158 498 L 158 496 Z M 152 498 L 150 500 L 151 502 L 152 500 L 152 498 Z M 21 499 Q 18 500 20 502 L 17 503 L 18 501 L 15 500 L 15 502 Q 17 506 13 505 L 13 504 L 13 500 L 7 500 L 6 508 L 8 507 L 9 511 L 11 510 L 8 506 L 11 507 L 12 508 L 12 513 L 17 513 L 16 515 Q 17 518 15 517 L 14 514 L 11 515 L 11 517 L 10 517 Q 7 516 8 511 Q 4 515 6 524 L 6 526 L 7 530 Q 5 531 8 532 L 9 530 L 8 527 L 12 529 L 13 528 Q 12 525 15 526 L 16 528 L 16 526 Q 19 525 18 528 L 19 528 Q 18 524 21 525 L 20 528 Q 19 533 23 531 L 23 524 L 24 523 L 23 522 L 23 502 L 22 501 Q 23 498 21 499 Z M 42 499 L 41 500 L 38 500 L 38 506 L 42 505 L 42 499 Z M 321 499 L 320 510 L 321 510 L 321 499 Z M 159 500 L 157 502 L 158 504 L 159 502 L 159 500 Z M 324 500 L 324 511 L 327 511 L 325 508 L 327 502 Q 333 501 336 503 L 335 500 Q 328 498 327 501 L 324 500 Z M 140 501 L 138 503 L 140 503 L 140 501 Z M 281 501 L 278 503 L 285 503 L 287 503 Q 288 499 283 501 L 281 501 Z M 302 501 L 302 508 L 305 508 L 305 507 Q 302 508 303 506 L 305 506 Q 306 503 303 504 L 303 502 L 306 502 L 302 501 Z M 122 502 L 119 507 L 122 505 L 122 502 Z M 153 502 L 150 506 Q 149 508 152 507 L 153 505 L 153 502 Z M 289 502 L 288 505 L 289 505 L 289 502 Z M 172 503 L 172 505 L 174 504 L 172 503 Z M 147 504 L 145 506 L 146 509 L 147 506 L 147 504 Z M 308 504 L 306 506 Q 305 510 308 509 L 309 507 Q 310 503 308 504 Z M 330 504 L 330 505 L 333 505 L 330 504 Z M 141 505 L 140 510 L 141 510 L 141 505 Z M 160 505 L 158 509 L 160 508 L 160 505 Z M 177 505 L 176 508 L 178 508 L 179 506 L 177 505 Z M 219 505 L 217 507 L 220 507 L 219 505 Z M 257 505 L 255 507 L 258 507 Q 259 504 257 505 Z M 153 507 L 153 509 L 155 508 L 153 507 Z M 164 507 L 162 509 L 163 511 L 164 509 L 164 507 Z M 205 507 L 203 512 L 205 513 L 196 516 L 189 515 L 189 517 L 188 515 Q 190 516 189 513 L 195 512 Q 200 514 199 510 L 188 512 Q 185 511 187 510 L 185 508 L 183 511 L 181 512 Q 177 511 178 514 L 174 517 L 177 523 L 177 528 Q 176 530 175 528 L 174 531 L 167 529 L 165 529 L 156 524 L 139 524 L 132 526 L 138 528 L 136 529 Q 131 530 130 528 L 116 538 L 105 540 L 103 536 L 95 535 L 93 535 L 89 537 L 101 537 Q 104 539 100 541 Q 102 545 104 542 L 111 543 L 112 541 L 116 543 L 119 541 L 119 543 L 126 542 L 127 543 L 137 543 L 138 544 L 147 544 L 148 543 Q 155 545 159 542 L 159 541 L 157 541 L 157 537 L 164 538 L 168 537 L 182 539 L 183 537 L 183 539 Q 186 540 185 538 L 186 538 Q 185 540 188 539 L 188 537 Q 190 540 197 539 L 197 537 L 195 538 L 195 536 L 191 537 L 190 535 L 183 535 L 182 536 L 178 535 L 176 536 L 174 536 L 173 535 L 156 534 L 155 533 L 153 534 L 149 533 Q 147 529 151 530 L 151 529 Q 144 531 145 527 L 148 526 L 159 528 L 160 532 L 162 531 L 164 531 L 169 532 L 171 532 L 173 533 L 175 533 L 184 533 L 185 532 L 194 534 L 197 533 L 209 534 L 212 530 Q 218 529 221 532 L 223 531 L 225 532 L 227 531 L 238 533 L 239 532 L 250 531 L 252 531 L 254 530 L 255 531 L 261 531 Q 262 535 260 534 L 259 536 L 264 535 L 273 536 L 276 535 L 280 536 L 285 535 L 294 535 L 294 533 L 303 531 L 305 532 L 307 531 L 315 531 L 315 528 Q 322 526 333 527 L 333 525 L 332 526 L 322 526 L 319 525 L 317 526 L 313 525 L 303 530 L 299 529 Q 293 531 285 530 L 284 531 L 281 528 L 280 529 Q 276 530 275 528 Q 274 525 278 526 L 279 525 L 282 528 L 292 526 L 291 523 Q 293 522 292 525 L 295 526 Q 296 523 294 524 L 294 523 L 296 525 Q 295 528 300 526 L 302 526 Q 307 528 305 523 L 317 521 L 320 523 L 331 523 L 333 523 Q 337 524 335 519 L 331 519 L 331 521 L 330 521 Q 331 517 326 519 L 324 519 L 322 520 L 314 519 L 314 521 L 313 519 L 310 517 L 312 520 L 310 518 L 309 521 L 299 519 L 295 515 L 280 514 L 275 512 L 269 515 Q 260 516 257 513 Q 252 512 253 515 L 256 517 L 255 519 L 252 520 L 251 519 L 249 521 L 248 520 L 245 522 L 247 518 L 241 522 L 237 521 L 243 517 L 242 514 L 240 513 L 234 514 L 234 516 L 233 514 L 228 514 Q 226 517 222 517 L 225 518 L 223 518 L 221 522 L 219 521 L 221 517 L 220 517 Q 214 519 215 516 L 221 513 L 223 513 L 225 512 L 226 508 L 217 512 Q 212 513 213 511 L 216 509 L 217 507 L 213 509 L 205 507 Z M 252 507 Q 251 510 255 509 Q 256 506 252 507 Z M 282 507 L 282 509 L 284 508 L 282 507 Z M 128 508 L 124 512 L 125 514 L 128 510 L 128 508 Z M 167 508 Q 168 511 165 513 Q 164 515 167 514 L 169 509 L 167 508 Z M 276 508 L 273 509 L 271 509 L 268 510 Q 261 512 260 509 L 256 511 L 263 513 L 277 511 L 276 508 Z M 287 508 L 287 511 L 289 512 Q 290 507 287 508 Z M 335 508 L 334 511 L 335 513 L 336 513 Q 338 507 335 508 Z M 117 509 L 115 511 L 116 514 L 117 511 L 117 509 Z M 130 509 L 127 514 L 130 512 L 130 509 Z M 147 509 L 147 511 L 149 510 L 147 509 Z M 156 509 L 153 515 L 151 516 L 154 516 L 156 513 L 156 509 Z M 248 509 L 242 513 L 243 515 L 249 512 L 248 509 Z M 280 509 L 278 511 L 280 511 Q 281 513 282 511 Q 283 508 280 509 Z M 283 509 L 283 511 L 286 510 L 283 509 Z M 332 509 L 331 512 L 332 512 L 332 509 Z M 119 510 L 117 513 L 119 513 L 119 510 Z M 123 510 L 121 513 L 123 512 L 123 510 Z M 137 511 L 136 514 L 137 514 L 137 511 Z M 10 512 L 10 515 Q 13 514 10 512 Z M 159 512 Q 158 515 161 514 Q 162 511 159 512 Z M 173 512 L 171 514 L 173 514 L 173 512 Z M 251 512 L 251 513 L 253 513 L 251 512 Z M 150 513 L 147 516 Q 148 519 146 518 L 145 520 L 148 519 L 150 516 L 150 513 Z M 321 513 L 320 516 L 321 516 L 321 513 Z M 127 514 Q 125 517 128 516 L 127 514 Z M 139 514 L 137 518 Q 136 520 139 519 L 140 517 L 139 514 Z M 145 514 L 141 518 Q 140 520 143 519 L 145 516 L 145 514 Z M 249 514 L 247 518 L 249 517 L 249 514 Z M 134 515 L 132 517 Q 131 520 134 519 L 134 515 Z M 302 515 L 301 517 L 305 517 L 302 515 Z M 335 515 L 336 517 Q 337 514 335 515 Z M 117 516 L 117 518 Q 116 521 112 520 L 107 533 L 109 533 L 110 537 L 123 530 L 128 523 Q 130 524 129 521 L 126 519 Q 123 520 124 518 L 123 518 L 117 516 Z M 164 516 L 157 518 L 160 524 L 166 525 L 168 525 Q 168 528 173 527 L 174 528 L 169 518 Q 170 515 164 516 Z M 335 525 Q 333 528 336 527 L 335 525 Z M 16 528 Q 14 532 18 531 L 18 529 L 16 528 Z M 319 530 L 319 533 L 317 534 L 310 534 L 309 536 L 315 535 L 320 536 L 319 535 L 323 532 Q 324 534 325 532 L 325 530 L 319 530 Z M 327 530 Q 324 535 330 533 L 332 533 Q 334 534 333 532 L 331 530 L 327 530 Z M 334 530 L 334 534 L 335 534 Q 336 529 334 530 Z M 217 533 L 215 536 L 230 535 L 217 533 Z M 322 533 L 320 535 L 323 537 Q 324 532 322 533 Z M 21 534 L 22 537 L 21 540 L 23 541 Q 25 533 21 534 Z M 243 534 L 244 536 L 249 537 Q 250 540 247 542 L 249 543 Q 248 540 251 541 L 250 543 L 254 543 Q 257 545 253 547 L 258 547 L 260 547 L 262 546 L 265 547 L 269 542 Q 268 539 271 540 L 270 542 L 272 545 L 274 541 L 274 543 Q 277 544 276 542 L 279 543 L 284 542 L 284 543 Q 281 542 282 545 L 284 544 L 286 545 Q 289 546 287 542 L 290 540 L 288 544 L 289 547 Q 292 548 291 546 L 295 541 L 291 544 L 291 543 Q 290 538 295 540 L 297 540 Q 299 541 298 538 L 287 538 L 286 539 L 281 538 L 280 540 L 279 538 L 276 539 L 273 538 L 265 538 L 264 539 L 253 539 L 251 538 L 253 535 L 243 534 Z M 85 535 L 84 536 L 72 536 L 74 539 L 75 537 L 79 538 L 81 538 L 83 537 Q 89 538 88 536 L 87 536 L 85 535 Z M 325 536 L 323 540 L 321 540 L 322 538 L 320 539 Q 319 542 322 541 L 323 543 L 326 539 L 325 536 Z M 229 538 Q 228 541 234 540 L 238 546 L 238 547 L 237 545 Q 235 548 231 547 L 232 550 Q 229 555 220 553 L 218 553 L 211 554 L 212 556 L 215 555 L 229 556 L 231 556 L 246 555 L 248 555 L 254 554 L 256 558 L 248 562 L 253 563 L 267 564 L 271 566 L 270 570 Q 271 572 273 570 L 279 573 L 277 574 L 275 574 L 270 575 L 269 574 L 266 577 L 265 575 L 258 577 Q 265 576 267 580 L 267 581 L 272 581 L 271 579 L 278 575 Q 283 577 282 573 Q 285 572 284 575 L 295 576 Q 298 574 298 570 L 299 570 L 298 573 L 299 576 L 297 577 L 300 579 Q 299 581 302 580 L 303 579 L 305 581 L 309 581 L 324 581 L 325 580 L 326 581 L 334 581 L 335 584 L 335 575 L 336 574 L 335 569 L 332 568 L 330 568 L 325 570 L 323 569 L 321 569 L 320 568 L 312 568 L 310 571 Q 313 572 311 574 Q 313 579 310 578 L 307 576 L 306 571 L 307 569 Q 308 566 306 567 L 304 567 L 300 568 L 298 567 L 293 568 L 291 568 L 289 567 L 286 568 L 280 566 Q 275 567 277 563 L 279 563 L 263 561 L 260 557 L 269 554 L 280 554 Q 281 551 285 552 L 280 550 Q 278 548 277 551 L 279 551 L 278 553 L 273 549 L 271 549 L 267 550 L 264 549 L 263 550 L 252 550 L 250 550 L 246 549 L 247 547 L 247 545 L 240 545 L 238 541 L 245 540 L 239 538 L 229 538 Z M 300 538 L 299 540 L 303 541 L 303 539 L 300 538 Z M 304 539 L 304 541 Q 303 543 302 541 L 301 544 L 305 543 L 306 541 Q 307 538 304 539 Z M 334 540 L 335 542 Q 336 539 334 540 Z M 161 541 L 161 542 L 164 542 L 161 541 Z M 165 542 L 165 543 L 170 544 L 169 548 L 165 546 Q 158 548 157 545 L 149 545 L 148 546 Q 141 548 140 545 L 98 545 L 99 547 L 104 546 L 106 546 L 121 546 L 123 547 L 126 546 L 128 547 L 130 546 L 132 547 L 134 550 L 123 550 L 122 549 L 119 550 L 116 549 L 114 550 L 106 550 L 105 549 L 103 550 L 100 549 L 100 552 L 99 551 L 97 552 L 97 551 L 97 549 L 95 550 L 93 550 Q 87 552 86 549 L 84 550 Q 79 551 78 549 L 76 550 L 75 547 L 71 547 Q 71 551 65 549 L 67 552 L 70 550 L 69 552 L 72 553 L 76 551 L 81 552 L 83 551 L 95 552 Q 97 556 93 555 L 93 557 Q 90 556 91 560 L 91 561 Q 94 562 95 560 L 93 559 L 95 558 L 95 559 L 99 559 L 99 556 Q 96 557 97 555 L 99 555 L 105 551 L 107 552 L 112 551 L 113 554 L 111 552 L 104 553 L 100 555 Q 98 559 102 558 L 104 558 L 106 560 L 105 559 L 104 561 L 113 561 L 114 560 L 116 561 L 118 561 L 114 558 L 115 551 L 115 555 Q 119 556 118 553 L 116 553 L 118 552 Q 119 555 121 551 L 121 553 L 120 555 L 134 555 L 135 554 L 147 555 L 148 553 L 146 554 Q 144 551 139 552 L 137 549 Q 143 547 145 550 L 152 550 L 151 548 L 155 546 L 163 548 Q 165 549 164 553 L 161 556 L 152 559 L 142 559 L 141 558 L 137 559 L 135 558 L 128 559 Q 126 557 125 560 L 126 563 L 123 565 L 119 564 Q 117 566 113 565 L 110 564 L 105 566 L 103 565 L 100 567 L 99 566 L 97 565 L 92 566 L 89 565 L 87 565 L 85 566 L 76 566 L 75 565 L 73 567 L 68 568 L 66 567 L 63 568 L 64 571 L 60 570 Q 55 571 56 569 Q 59 567 57 566 Q 58 562 55 563 L 54 567 L 55 569 L 52 568 L 53 565 L 55 562 L 53 563 L 52 560 L 57 561 L 59 560 L 61 561 L 62 558 L 62 561 L 57 563 L 61 563 L 62 564 Q 64 559 67 561 Q 66 558 70 559 L 69 561 Q 68 563 71 562 L 72 560 Q 71 557 74 558 L 75 559 Q 74 556 77 557 L 76 561 L 78 560 Q 80 561 79 559 L 79 557 Q 81 558 80 555 L 78 556 L 76 555 L 70 557 L 59 557 L 58 556 L 48 558 L 50 558 L 50 559 Q 46 558 47 561 L 51 560 Q 52 563 50 562 L 48 565 L 40 562 L 39 564 L 39 566 Q 38 572 41 571 L 41 569 Q 43 568 42 571 L 44 571 L 46 567 L 48 570 L 46 569 L 47 572 Q 48 574 45 573 L 45 574 L 49 574 L 48 571 L 51 570 L 58 573 L 82 574 L 84 574 L 85 575 L 107 577 L 109 577 Q 112 576 111 579 L 108 580 L 106 580 Q 100 582 99 579 L 96 580 L 94 578 L 88 577 L 87 580 L 84 579 L 81 581 L 80 579 Q 78 577 73 578 L 73 577 L 80 578 L 82 578 L 86 578 L 74 575 L 66 575 L 64 577 L 66 578 Q 65 575 69 576 Q 73 578 70 580 L 74 582 L 75 579 L 79 580 L 79 581 Q 76 580 77 583 L 81 582 Q 84 585 92 583 L 94 583 L 96 582 L 99 583 Q 103 584 105 582 L 107 583 L 115 582 L 122 579 L 127 579 L 131 577 L 141 576 L 142 579 L 132 580 L 128 582 L 121 582 L 110 586 L 91 586 L 89 587 L 89 589 L 86 586 L 85 588 L 86 589 Q 83 590 84 587 L 79 586 L 68 586 Q 63 584 67 582 Q 71 583 70 581 L 69 581 Q 64 582 64 579 Q 60 580 61 578 L 59 579 L 53 578 L 51 578 Q 46 579 47 576 Q 42 575 40 579 L 40 578 L 36 576 L 31 578 Q 23 579 21 576 L 20 578 Q 21 580 27 579 L 28 581 Q 20 582 18 579 L 12 580 L 12 582 L 11 580 L 9 580 L 11 579 L 6 578 L 7 585 L 8 582 L 7 580 L 8 580 Q 7 582 10 581 Q 11 584 9 583 L 9 584 Q 15 585 18 581 Q 22 583 19 585 L 19 584 L 17 583 L 17 586 L 11 586 L 12 588 L 22 585 Q 23 583 24 586 Q 25 588 23 587 Q 20 588 22 590 L 21 589 L 9 591 L 10 593 L 12 592 L 16 594 L 31 594 L 31 593 L 32 589 L 23 590 Q 22 587 26 588 Q 29 586 29 582 L 33 580 Q 32 577 35 578 L 34 581 L 37 581 L 38 583 L 39 580 L 40 583 L 44 584 L 46 581 L 46 583 L 43 585 Q 41 583 40 586 L 41 587 L 44 586 L 45 589 L 42 592 L 38 593 L 34 592 L 33 594 L 46 594 L 47 593 L 49 594 L 51 593 L 52 590 L 57 592 L 56 591 L 57 589 L 59 590 Q 58 593 61 592 L 61 593 L 59 592 L 56 594 L 64 594 L 66 594 L 71 592 L 74 594 L 76 593 Q 82 591 84 594 L 85 593 L 104 593 L 106 593 L 108 594 L 113 593 Q 114 596 120 594 L 122 594 L 131 594 L 132 593 L 136 594 L 138 594 L 141 593 L 145 594 L 147 594 L 150 593 L 152 593 L 155 594 Q 160 596 162 593 L 164 594 L 166 593 L 170 593 L 195 593 L 196 594 L 198 593 L 218 593 L 219 594 L 221 593 L 225 594 L 228 593 L 260 593 L 264 593 L 271 592 L 274 593 L 279 592 L 281 592 L 305 592 L 306 593 L 308 592 L 313 593 L 315 593 L 318 592 L 320 593 L 335 593 L 335 586 L 334 584 L 332 585 Q 330 582 324 584 L 322 584 L 317 585 L 316 584 L 303 584 L 301 584 L 295 580 Q 288 581 285 578 L 277 580 L 278 582 L 276 584 L 268 585 L 266 587 L 250 586 L 249 585 L 244 586 L 242 586 L 240 585 L 238 586 L 236 586 L 226 588 L 223 587 L 221 587 L 220 588 L 197 588 L 189 590 L 170 589 L 163 587 L 160 588 L 157 587 L 154 588 L 150 588 L 145 587 L 143 587 L 140 588 L 138 588 L 130 588 L 130 585 L 137 585 L 138 584 L 157 585 L 159 585 L 161 584 L 163 584 L 176 586 L 178 586 L 180 587 Q 191 589 198 585 L 202 585 L 204 586 Q 205 584 210 585 L 212 585 L 223 585 L 222 584 L 222 583 L 227 585 L 229 585 L 233 583 L 237 584 L 239 583 L 241 579 L 243 580 Q 244 582 241 581 L 242 583 L 246 582 Q 247 578 245 579 L 242 576 L 239 576 L 240 579 L 239 579 L 239 581 L 237 582 L 237 581 L 237 579 L 236 580 L 222 580 L 210 583 L 206 583 L 202 584 L 200 583 L 197 584 L 195 583 L 185 585 L 179 583 Q 176 584 177 582 Q 176 579 175 581 L 172 579 L 161 579 L 149 582 L 145 581 L 143 577 Q 155 579 164 575 L 166 575 L 167 576 L 175 576 L 177 578 L 183 578 L 186 582 L 212 581 L 219 578 Q 229 579 235 577 L 234 573 L 224 574 L 222 574 Q 216 576 215 573 L 204 575 L 202 575 L 198 574 L 195 572 L 196 569 L 194 568 L 182 568 L 181 567 L 174 569 L 161 569 L 160 570 L 149 570 L 148 571 L 132 571 L 121 573 L 119 573 L 110 573 L 108 572 L 110 569 L 119 569 L 120 570 L 130 568 L 148 568 L 149 567 L 161 567 L 162 566 L 172 566 L 179 565 L 177 561 L 185 559 L 187 559 L 210 559 L 215 561 L 214 566 L 215 569 L 212 570 L 213 572 L 214 571 L 226 571 L 228 571 L 230 570 L 241 570 Q 243 571 241 573 L 242 574 L 245 572 L 246 570 L 227 559 L 209 558 L 208 557 Q 204 558 206 554 L 208 552 L 223 551 L 226 550 L 225 546 L 228 545 Q 231 546 230 543 L 224 542 L 224 544 L 222 542 L 210 542 L 208 542 Q 202 541 201 543 L 199 542 L 196 543 L 165 542 Z M 314 542 Q 312 545 315 544 L 314 542 Z M 325 542 L 325 544 L 328 544 Q 329 541 325 542 Z M 331 542 Q 331 545 328 544 L 329 546 L 331 545 L 331 542 Z M 333 542 L 334 545 L 334 548 L 333 547 L 331 548 L 332 554 L 334 549 L 334 555 L 331 556 L 333 556 Q 335 557 333 559 Q 334 561 332 560 Q 329 561 331 563 L 330 562 L 326 564 Q 323 563 324 566 Q 328 567 327 565 L 328 565 Q 327 567 330 566 L 332 566 L 336 566 L 334 559 L 336 559 L 335 558 L 335 544 L 333 542 Z M 274 543 L 272 546 Q 274 549 275 546 L 274 543 Z M 23 544 Q 21 547 24 546 L 23 544 Z M 270 544 L 268 545 L 267 547 L 271 546 L 270 544 Z M 280 544 L 278 547 L 280 547 L 280 544 Z M 294 544 L 292 547 Q 290 548 293 549 L 295 545 L 294 544 Z M 92 545 L 92 547 L 94 546 L 92 545 Z M 329 547 L 328 551 L 329 551 L 329 547 Z M 9 548 Q 7 551 10 550 L 9 548 Z M 19 548 L 20 550 L 22 549 L 19 548 Z M 291 549 L 291 552 Q 294 551 291 549 Z M 155 551 Q 153 554 152 552 L 150 553 L 151 555 L 156 554 L 156 552 L 159 553 Q 160 549 155 551 Z M 296 551 L 296 552 L 305 552 L 296 551 Z M 325 551 L 326 553 L 328 552 L 325 551 Z M 24 552 Q 20 553 21 558 L 21 560 Q 22 563 20 562 L 17 567 Q 19 568 17 569 L 16 566 Q 13 567 15 569 L 15 570 L 14 568 L 13 570 L 12 568 L 11 568 L 9 565 Q 11 563 9 562 L 6 568 L 7 576 L 10 576 L 17 574 L 19 569 L 21 569 L 22 567 L 23 567 L 22 571 Q 20 572 23 573 L 24 572 L 24 556 L 24 554 L 24 552 Z M 64 552 L 64 554 L 66 553 L 64 552 Z M 7 553 L 6 559 L 8 559 L 7 553 Z M 14 553 L 15 555 Q 16 552 14 553 Z M 290 553 L 287 555 L 290 555 L 290 553 Z M 83 555 Q 82 557 85 556 L 86 560 L 90 557 L 90 555 L 83 555 Z M 251 556 L 243 558 L 241 557 L 232 559 L 249 569 L 248 572 Q 249 574 247 573 L 247 574 Q 252 576 254 573 L 257 574 L 257 573 Q 254 574 255 571 L 257 569 Q 263 570 267 568 L 248 565 L 244 563 L 242 559 L 251 558 L 251 556 Z M 283 556 L 282 559 L 286 559 L 283 556 Z M 290 556 L 289 558 L 291 559 L 290 556 Z M 82 557 Q 81 560 84 559 Q 85 556 82 557 Z M 269 557 Q 268 560 271 559 Q 272 556 269 557 Z M 272 557 Q 271 561 278 559 L 281 558 L 272 557 Z M 14 558 Q 12 561 15 560 L 14 558 Z M 16 558 L 15 561 L 16 563 L 17 563 Q 16 560 19 561 Q 21 557 16 558 Z M 46 558 L 44 560 L 47 563 L 48 563 L 46 558 Z M 89 558 L 87 561 L 89 561 L 89 558 Z M 287 558 L 286 561 L 287 563 L 289 559 L 287 558 Z M 42 560 L 41 562 Q 45 563 44 561 L 42 560 Z M 66 561 L 64 563 L 66 563 L 66 561 Z M 320 561 L 318 564 L 319 565 L 322 563 L 322 564 Q 319 563 320 566 L 323 566 L 323 562 L 322 562 L 320 561 Z M 11 562 L 11 564 L 14 563 L 11 562 Z M 198 562 L 193 563 L 193 564 Q 197 565 199 563 L 199 566 L 209 566 L 209 563 L 198 562 Z M 292 562 Q 290 565 293 564 L 292 562 Z M 300 562 L 298 564 L 301 564 L 300 562 Z M 303 562 L 303 564 L 307 564 L 303 562 Z M 67 563 L 67 564 L 69 564 L 67 563 Z M 186 563 L 186 564 L 188 564 L 186 563 Z M 190 563 L 191 565 Q 192 562 190 563 Z M 20 571 Q 18 574 21 573 L 20 571 Z M 41 573 L 39 575 L 42 575 L 41 573 Z M 52 573 L 51 575 L 55 575 L 52 573 Z M 56 575 L 56 576 L 59 576 L 56 575 Z M 15 576 L 13 578 L 15 578 L 15 576 Z M 254 576 L 254 577 L 257 577 L 254 576 Z M 249 579 L 248 582 L 251 583 L 252 580 L 251 579 L 249 579 Z M 255 579 L 252 580 L 253 584 L 256 584 L 255 582 L 258 581 L 258 583 L 258 584 Q 260 585 259 582 L 263 584 L 263 580 L 261 579 L 257 580 L 255 579 Z M 36 583 Q 33 585 36 586 Q 39 585 36 583 Z M 38 586 L 35 588 L 37 590 L 38 588 L 38 586 Z M 40 588 Q 37 590 40 591 L 42 590 L 40 588 Z M 7 591 L 7 594 Q 10 593 7 591 Z "></path><path d="M 151.5 17 Q 152.7 19.3 157.5 18 L 160.5 17 L 162.5 18 L 163.5 17 L 189 17 Q 190.8 21.9 184.5 20 L 183 21.5 L 183 34 L 188.5 33 L 192 34.5 L 191.5 36 L 155.5 36 L 154.5 37 L 146 37 L 146 34 L 154.5 34 L 154 32.5 L 153 28.5 L 146.5 19 L 143.5 20 L 142.5 18 L 150.5 18 L 151.5 17 Z M 153 19 L 152 23 L 158 31 L 161 20 L 159 19 L 156 20 L 153 19 Z M 172 19 L 169 20 L 170 27 L 170 34 L 173 34 L 173 22 L 172 19 Z M 178 19 L 176 27 L 177 34 L 179 33 L 179 21 L 178 19 Z M 166 21 L 160 34 Q 165 35 167 33 L 166 21 Z "></path><path d="M 136.5 186 L 138 190.5 L 136 191.5 L 136 189.5 L 136.5 186 Z "></path><path d="M 124.5 191 L 128 192 L 126.5 195 Q 123.2 196.1 124 193.5 L 124.5 191 Z "></path><path d="M 132.5 192 L 131.5 194 L 132.5 192 Z "></path><path d="M 137.5 203 L 138 205 L 140 205.5 Q 136.9 206.9 137.5 212 L 135 208.5 L 135.5 206 L 137.5 207 L 137 205.5 L 137.5 203 Z "></path><path d="M 119.5 205 L 120 207.5 L 119 207.5 L 119.5 205 Z "></path><path d="M 128.5 207 L 129.5 209 L 127 208.5 L 128.5 207 Z "></path><path d="M 131 207 Q 133.7 205.9 133 208.5 L 131 209.5 L 131 207 Z "></path><path d="M 126.5 210 L 127 213 L 125 212.5 L 126.5 210 Z "></path><path d="M 131.5 212 L 134 212.5 L 130.5 214 L 131.5 212 Z "></path><path d="M 298 232 Q 303.4 230.5 305 233.5 L 298 234 L 298 232 Z "></path><path d="M 283 330 L 285 330 L 285 335 Q 281.3 336.5 282 333.5 L 283 330 Z "></path><path d="M 111.5 331 Q 117.3 329.3 116 333 L 109.5 334 L 97 339 L 98.5 336 L 111.5 331 Z "></path><path d="M 245.5 384 Q 248.3 383.4 247 389.5 Q 245.5 392.5 244 389.5 L 243 387.5 L 245.5 384 Z "></path><path d="M 193.5 451 L 196 452.5 L 193.5 457 L 191.5 458 L 190 455.5 L 193.5 451 Z "></path><path d="M 104.5 474 L 103.5 476 L 104.5 474 Z "></path><path d="M 81 476 L 88 476.5 L 84.5 479 L 81 478 L 81 476 Z "></path><path d="M 306 479 L 313 479.5 Q 311.4 482.5 306 481 L 306 479 Z "></path><path d="M 9.5 501 L 11 504.5 L 10 504.5 L 9.5 503 L 8 503.5 L 9.5 501 Z "></path><path d="M 19.5 506 Q 22.3 507.2 20 508.5 L 19.5 519 L 18 515.5 L 19 513.5 L 18 509.5 L 19.5 506 Z "></path><path d="M 16.5 508 L 17 512 Q 12.9 513.7 14 509.5 L 15 509.5 L 15.5 511 L 16.5 508 Z "></path><path d="M 56.5 515 L 60.5 516 L 62.5 516 L 108 515 L 107.5 517 L 90.5 517 L 87.5 518 L 78.5 518 L 77.5 519 L 75.5 518 Q 74 520.5 68.5 519 L 64.5 518 L 62.5 518 L 55.5 518 L 55 516.5 L 56.5 515 Z "></path><path d="M 236.5 515 Q 240.3 514.3 241 516.5 L 234 519.5 L 234.5 521 L 231.5 520 L 226.5 522 L 225.5 521 L 223 522.5 L 224 519 L 229.5 517 L 233.5 517 L 236.5 515 Z "></path><path d="M 277 515 Q 280 513.8 279 517.5 L 278 521 Q 274.3 522.5 275 519.5 L 272 518.5 Q 271.3 516.3 273.5 517 L 275 516.5 L 275.5 518 L 277 515 Z "></path><path d="M 281 515 L 284 515.5 L 282 522 Q 278.2 523.5 279 520.5 L 281 515 Z "></path><path d="M 183 516 L 185 516.5 L 183.5 519 L 183 516 Z "></path><path d="M 261.5 516 L 263 519.5 Q 261 524 259 520.5 Q 258.5 516.5 261.5 516 Z "></path><path d="M 42.5 517 L 43.5 519 L 42.5 517 Z "></path><path d="M 180.5 517 L 182.5 520 L 191.5 521 L 195 524.5 L 195 527 L 201.5 527 L 203.5 527 L 205.5 526 L 209.5 526 L 212.5 525 L 215 526 L 214.5 529 L 205.5 529 Q 204 531.5 198.5 530 L 197.5 529 L 189.5 529 L 188 527.5 L 189 524.5 L 183.5 523 L 181.5 524 L 180 520.5 L 180 518.5 L 180.5 517 Z "></path><path d="M 288.5 517 Q 291.1 516.2 290 519.5 L 288.5 524 Q 285.5 523.5 286 519.5 L 288.5 517 Z "></path><path d="M 10.5 518 Q 13.1 517.2 12 520.5 L 11 520.5 L 10.5 518 Z "></path><path d="M 46.5 518 L 47 519.5 L 45 520.5 L 46.5 518 Z "></path><path d="M 118.5 518 L 119.5 520 L 118.5 518 Z "></path><path d="M 205 518 L 216.5 518 L 217 521.5 L 215.5 521 L 205.5 521 L 205 518 Z "></path><path d="M 292 519 Q 295.7 517.5 295 520.5 L 292 522 L 292 519 Z "></path><path d="M 7.5 520 L 8 522.5 L 7 522.5 L 7.5 520 Z "></path><path d="M 19 520 Q 21.7 518.9 21 521.5 L 19 522.5 L 19 520 Z "></path><path d="M 43.5 520 L 44 522.5 L 43.5 524 L 42 523.5 L 44 526.5 L 41.5 527 L 41 524.5 L 43.5 520 Z "></path><path d="M 9.5 521 L 10 523.5 L 9 523.5 L 9.5 521 Z "></path><path d="M 13.5 521 L 15 521.5 L 13 522 Q 14 525 11 524 Q 9.9 521.3 12.5 522 L 13.5 521 Z "></path><path d="M 16.5 521 L 18 524 L 15.5 525 L 15 523.5 L 16.5 521 Z "></path><path d="M 45.5 522 Q 47.8 521.3 47 523.5 L 45.5 522 Z "></path><path d="M 196.5 524 L 199 525.5 L 197.5 525 L 196.5 524 Z "></path><path d="M 224.5 524 L 225.5 525 L 239.5 525 L 241.5 526 L 243.5 526 L 255.5 525 L 257.5 526 L 258.5 525 L 271.5 525 L 273 528 L 266.5 529 L 264.5 528 L 263.5 529 L 238.5 529 L 236.5 529 L 221.5 529 L 220 527.5 L 221.5 525 L 224.5 524 Z "></path><path d="M 115.5 526 L 116 528.5 L 115 528.5 L 115.5 526 Z "></path><path d="M 68.5 529 L 69 532 Q 66.3 533.1 67 530.5 L 68.5 529 Z "></path><path d="M 111.5 529 L 112 532.5 L 111 532.5 L 111.5 529 Z "></path><path d="M 118 537 L 138.5 537 L 140.5 538 L 142.5 538 L 145.5 537 L 146.5 538 L 154 538 L 153.5 540 L 136.5 540 L 135.5 539 L 126.5 539 L 124.5 539 L 119.5 540 L 118 537 Z "></path><path d="M 54.5 538 L 58 538.5 L 54.5 539 L 54.5 538 Z "></path><path d="M 236.5 539 L 235.5 541 L 236.5 539 Z "></path><path d="M 262 542 Q 265 541 264 544 Q 261 545 262 542 Z "></path><path d="M 133.5 546 Q 135.8 545.3 135 547.5 L 133.5 546 Z "></path><path d="M 241.5 548 L 241 549.5 Q 241.8 552.1 238.5 551 L 239.5 549 L 241.5 548 Z "></path><path d="M 342.5 548 L 345 548.5 Q 342.2 550.5 343 555 L 345 555.5 L 342 556 L 343 550.5 L 342.5 548 Z "></path><path d="M 234 550 L 236 550.5 L 234 551.5 L 234 550 Z "></path><path d="M 242.5 551 L 241.5 553 L 242.5 551 Z "></path><path d="M 268.5 551 L 272 551.5 L 269.5 553 L 268.5 551 Z "></path><path d="M 109.5 554 L 110 556.5 L 109 556.5 L 109.5 554 Z "></path><path d="M 107.5 557 L 109.5 560 Q 105.1 561.1 107.5 557 Z "></path><path d="M 343.5 557 L 345 559.5 L 343 558.5 L 343.5 557 Z "></path><path d="M 168.5 561 L 171.5 562 L 173.5 561 Q 176.5 562.5 173.5 564 L 138.5 567 L 137 564.5 Q 138.3 561.8 139.5 564 L 142.5 563 L 144.5 563 L 155.5 563 L 156.5 562 L 167.5 562 L 168.5 561 Z "></path><path d="M 333.5 562 L 332.5 564 L 333.5 562 Z "></path><path d="M 343.5 563 L 344.5 565 L 343.5 563 Z "></path><path d="M 19 564 Q 22.3 562.9 21 567 Q 17.7 568.1 19 564 Z "></path><path d="M 41.5 564 L 43.5 567 L 41 566 L 41.5 564 Z "></path><path d="M 74.5 568 L 76.5 569 L 77.5 568 L 91.5 568 Q 92.7 570.3 97.5 569 L 99.5 569 Q 104 568 105 570.5 Q 104 573 99.5 572 L 98.5 571 L 76.5 571 L 72.5 572 Q 69.5 570.5 72.5 569 L 74.5 568 Z "></path><path d="M 9.5 569 L 11 573.5 L 8 573.5 L 9.5 569 Z "></path><path d="M 344.5 569 L 343.5 571 L 344.5 569 Z "></path><path d="M 16.5 570 L 15.5 572 L 16.5 570 Z "></path><path d="M 295.5 571 L 296 573 L 294 572.5 L 295.5 571 Z "></path><path d="M 300.5 572 Q 302.8 571.3 302 573.5 L 300.5 572 Z "></path><path d="M 312.5 574 L 315 574.5 L 312.5 575 L 312.5 574 Z "></path><path d="M 312.5 578 L 315 578.5 L 312.5 579 L 312.5 578 Z "></path><path d="M 52.5 579 L 56 580 Q 57.1 582.7 54.5 582 L 53 581.5 Q 52.2 584.1 55.5 583 L 60 584 L 60.5 582 L 62 587 L 64.5 588 L 66 587.5 L 65 589.5 L 67.5 588 L 69.5 589 L 70.5 587 L 71 590 L 68.5 589 L 68 591 L 63 590.5 L 64 588 L 61.5 587 L 59.5 587 L 52.5 586 L 50.5 586 Q 48.3 586.8 49 584.5 L 47 584.5 L 47.5 582 Q 49.8 581.3 49 583.5 L 52 581.5 Q 49.8 580.3 52.5 579 Z "></path><path d="M 72 588 Q 75 587 74 590 Q 71 591 72 588 Z "></path><path d="M 340 590 Q 343.3 588.9 342 593 Q 338.7 594.1 340 590 Z "></path><path d="M 344 590 Q 347.7 588.8 346 594 Q 342.3 595.2 344 590 Z "></path></svg>