<svg width="350" height="600" version="1.1" xmlns="http://www.w3.org/2000/svg" desc="Created with imagetracer.js version 1.2.5"><path d="M 291.5 4 L 293.5 5 L 316.5 5 L 320.5 4 L 321.5 5 L 337 5 L 337 71.5 L 336 73.5 Q 338.2 74.7 337 79.5 L 337 81.5 L 337 203.5 Q 334.8 204.8 336 209.5 L 336 211.5 L 337 214.5 L 337 216.5 L 337 306.5 L 336 307.5 L 337 308.5 L 337 319.5 L 338 321.5 L 337 322.5 L 337 389.5 L 338 390.5 L 338 402.5 L 337 404.5 L 338 407.5 L 337 411.5 L 338 413.5 L 337 414.5 L 337 447.5 L 336 449.5 L 337 450.5 L 337 536.5 L 338 539.5 L 337 542.5 L 338 544.5 L 337 545.5 L 337 585.5 L 338 588.5 L 337 592 L 332.5 593 L 331.5 592 L 212.5 592 L 208.5 593 L 207.5 592 L 199.5 592 L 196.5 593 L 194.5 593 L 192.5 592 L 191.5 593 L 149.5 593 L 148.5 594 L 146.5 593 L 145.5 594 L 10.5 595 L 9.5 596 L 4 595 L 4 570.5 Q 6.3 569.3 5 564.5 Q 2.5 563 4 557.5 Q 6.3 556.3 5 551.5 L 4 549.5 L 5 548.5 L 5 537.5 L 4 535.5 L 5 534.5 L 5 511.5 Q 2.3 509.8 4 503.5 Q 6.7 501.8 5 495.5 L 4 490.5 L 5 489.5 L 5 479.5 L 4 475.5 Q 6.3 474.2 5 469.5 L 5 467.5 L 5 451.5 L 4 448.5 L 5 445.5 L 4 440.5 L 5 437.5 L 4 436.5 L 4 424.5 L 5 419.5 L 4 417.5 L 5 416.5 L 5 406.5 L 5 404.5 L 4 401.5 L 4 376.5 L 5 374.5 L 4 373.5 L 4 361.5 L 5 359.5 L 4 358.5 L 4 333.5 L 5 330.5 L 4 329.5 L 4 302.5 L 3 301.5 L 4 300.5 L 4 216.5 Q 6.7 214.7 5 208.5 L 4 204.5 L 5 199.5 L 4 194.5 L 5 193.5 L 5 112.5 L 6 111.5 L 5 109.5 L 5 107.5 L 6 97.5 L 5 96.5 L 5 88.5 L 6 87.5 L 6 66.5 L 5 62.5 L 6 61.5 L 6 6 L 110.5 6 L 114.5 5 L 116.5 5 L 138.5 6 L 140.5 6 L 142.5 5 L 182.5 5 L 184.5 5 L 187.5 6 L 189.5 6 L 198.5 5 Q 199.7 7.3 204.5 6 L 208.5 5 L 211.5 6 L 214.5 5 L 219.5 6 L 220.5 5 L 290.5 5 L 291.5 4 Z M 154 14 L 155 17 L 164 17 L 164 35 L 160 36 L 158 35 L 157 38 L 160 37 L 193 37 L 195 36 Q 194 33 193 35 L 188 34 L 183 29 Q 184 26 181 27 L 182 21 L 182 18 Q 185 19 184 17 L 185 15 Q 180 13 181 18 L 178 20 L 175 14 L 169 14 L 168 15 Q 158 16 154 14 Z M 58 28 L 57 31 Q 60 38 58 51 L 58 53 L 59 61 L 59 63 L 59 75 L 58 76 L 59 80 L 62 79 Q 66 80 65 78 L 65 76 L 65 50 L 64 49 L 65 47 L 64 46 Q 66 35 63 30 L 64 28 L 62 29 L 58 28 Z M 154 36 L 155 38 Q 156 35 154 36 Z M 68 45 L 66 47 L 67 61 Q 68 63 72 62 Q 71 57 74 56 Q 76 57 75 61 L 76 61 Q 78 55 75 54 L 76 52 L 75 46 L 74 46 L 68 45 Z M 80 47 L 78 49 Q 77 53 79 53 L 132 53 L 134 53 L 139 54 L 141 53 L 143 53 L 147 54 L 149 53 Q 153 52 155 54 L 157 53 L 159 54 L 162 53 L 164 53 Q 168 52 170 54 L 172 53 L 185 53 L 186 54 L 200 53 L 202 53 L 205 54 L 207 54 L 209 53 L 211 53 L 216 54 L 221 53 L 223 53 L 334 53 L 334 51 L 325 51 L 324 50 L 321 51 L 318 50 L 295 50 L 293 50 L 290 49 L 288 49 L 286 50 L 285 49 L 245 49 L 243 49 Q 234 51 231 48 L 229 48 L 227 49 L 219 48 L 217 48 Q 215 51 210 49 L 208 49 L 204 48 L 202 49 L 199 48 L 197 49 L 194 48 L 191 49 L 179 49 L 178 48 L 170 48 L 169 49 L 167 48 L 86 48 L 84 48 L 80 47 Z M 21 48 L 20 51 Q 21 53 18 52 L 19 58 L 23 60 L 26 60 L 29 55 L 28 51 Q 27 47 21 48 Z M 46 48 L 45 49 L 32 50 L 30 52 L 31 56 L 33 57 L 48 60 L 56 59 L 57 56 L 56 54 L 57 52 L 56 50 L 56 48 L 46 48 Z M 237 54 L 236 55 L 204 55 L 202 55 L 200 56 L 198 55 L 79 55 L 78 60 L 95 60 L 96 61 L 97 60 L 144 60 L 146 60 L 151 59 Q 157 57 159 60 L 160 59 L 263 58 L 265 58 L 281 58 L 282 57 L 284 58 Q 288 59 290 57 L 303 57 L 304 58 L 305 57 L 334 57 L 335 56 L 329 54 L 328 55 L 263 55 L 261 55 L 238 55 L 237 54 Z M 38 65 L 37 68 L 38 68 L 38 65 Z M 49 65 L 46 66 Q 44 68 45 75 L 45 77 L 46 79 L 46 90 L 46 92 L 46 112 L 45 113 L 52 113 L 52 100 L 53 99 L 52 94 L 52 71 L 51 70 L 52 67 Q 53 63 49 65 Z M 56 81 L 54 83 L 55 98 L 57 97 L 59 98 L 60 97 L 60 89 L 62 87 Q 64 88 62 90 L 63 94 L 64 94 L 64 85 L 63 84 L 63 81 L 56 81 Z M 43 82 L 42 84 L 27 84 L 21 85 Q 22 89 19 92 L 24 94 L 33 94 L 34 95 L 43 94 L 44 93 L 43 82 Z M 66 82 L 66 89 L 68 90 Q 74 92 76 89 L 77 90 L 101 90 L 103 90 Q 107 91 109 89 L 111 90 L 115 89 L 117 90 L 130 90 L 131 89 L 132 90 L 153 90 L 155 90 L 160 89 Q 161 92 167 90 L 169 90 L 172 89 L 174 90 L 176 90 L 199 90 L 201 89 L 204 90 L 206 89 L 208 90 L 210 90 L 212 89 L 214 89 L 216 90 L 217 89 L 254 89 L 255 88 L 256 89 L 270 89 L 271 90 L 272 89 L 332 89 L 334 89 L 335 86 L 329 86 L 328 85 L 305 85 L 304 86 L 301 85 L 266 85 L 264 85 Q 258 87 257 84 L 255 85 Q 249 87 248 84 L 244 85 L 242 85 L 239 84 L 220 84 L 219 85 L 218 84 L 169 84 L 168 83 L 165 84 L 163 83 L 116 83 L 115 82 L 111 83 L 109 83 L 107 82 L 77 82 L 76 83 L 75 82 L 66 82 Z M 15 83 L 9 87 L 10 92 L 15 93 Q 19 92 18 86 L 15 83 Z M 68 91 L 66 93 Q 65 97 67 97 L 90 97 L 92 97 Q 96 98 98 96 L 102 97 L 104 97 L 108 96 Q 112 95 114 97 L 115 96 L 171 96 L 173 96 L 175 95 L 179 96 L 181 96 L 183 95 L 188 96 L 191 95 Q 196 94 198 96 L 199 95 L 231 95 L 232 94 L 234 95 L 236 94 L 238 95 L 240 94 L 242 94 L 252 94 L 253 95 L 254 94 L 315 94 L 316 93 L 335 93 L 335 91 L 205 91 L 204 92 L 202 91 L 194 92 L 191 91 L 186 92 L 183 91 L 181 91 L 177 92 Q 175 89 169 91 L 167 91 L 129 91 L 128 92 L 123 91 L 119 91 L 115 92 L 113 91 L 110 92 L 106 91 L 104 92 L 102 92 L 100 91 L 97 92 L 95 91 L 93 92 L 91 92 L 88 91 L 85 92 L 82 91 L 80 91 Q 74 90 73 92 L 68 91 Z M 58 101 L 56 103 L 57 130 L 58 131 L 58 151 L 59 154 Q 67 157 64 149 L 64 147 L 64 131 L 65 130 L 63 102 L 62 102 L 58 101 Z M 68 119 L 66 121 Q 64 127 67 129 L 66 134 Q 68 137 74 135 L 74 127 L 76 125 Q 79 127 77 134 L 78 134 L 78 125 L 77 124 L 79 121 L 78 119 L 68 119 Z M 22 120 L 18 125 L 19 131 Q 20 133 25 132 L 29 127 L 28 124 Q 26 120 22 120 Z M 54 120 L 53 121 L 38 121 L 33 122 L 31 124 Q 32 130 30 132 L 39 134 L 52 134 L 55 133 L 55 122 L 54 120 Z M 82 121 Q 79 122 80 126 L 125 126 L 126 127 L 129 126 L 142 126 L 143 127 L 144 126 L 179 126 L 182 127 L 184 126 L 186 126 L 190 127 L 195 126 L 197 126 L 200 127 L 202 127 L 207 126 L 209 126 L 211 127 L 212 126 L 334 126 L 334 121 L 328 121 L 326 121 L 220 121 L 219 122 L 215 121 L 213 121 L 211 122 L 209 121 L 208 122 L 131 122 L 129 122 L 127 121 L 122 122 L 119 121 L 117 122 Q 111 124 110 121 L 108 122 L 91 122 L 89 122 L 82 121 Z M 81 128 L 81 134 L 83 133 L 84 134 L 99 134 L 101 134 Q 107 136 109 133 L 111 134 L 114 133 L 119 134 L 121 133 L 165 133 L 166 132 L 168 133 L 171 132 L 180 133 L 182 133 L 183 132 L 220 132 L 221 131 Q 222 134 228 132 L 230 132 L 232 131 L 296 131 L 298 131 Q 303 133 305 130 L 307 131 L 309 130 L 320 130 L 321 131 L 322 130 L 334 130 L 334 128 L 211 128 L 209 128 L 193 128 L 192 129 L 187 128 L 185 128 L 180 129 L 176 128 L 173 129 L 171 128 L 81 128 Z M 49 137 L 43 138 L 43 165 L 44 166 L 44 180 L 45 182 L 44 185 Q 41 192 48 190 L 50 190 L 51 188 L 50 186 L 51 183 L 51 166 L 50 165 L 50 148 L 49 147 L 49 137 Z M 59 156 L 54 158 L 52 158 L 52 166 L 53 167 L 53 175 L 55 175 L 57 175 Q 63 177 60 170 Q 57 168 62 166 L 63 172 L 63 158 Q 62 155 59 156 Z M 85 158 L 84 159 L 66 159 L 65 164 L 69 165 L 70 164 L 82 164 L 84 164 L 100 164 L 101 165 L 102 164 L 221 164 L 225 164 L 230 163 L 232 163 L 237 164 L 238 163 L 291 163 L 292 162 L 294 163 L 328 163 L 330 163 L 334 162 L 334 159 L 253 159 L 251 159 L 248 158 L 246 159 L 242 158 L 240 159 L 238 159 L 236 158 L 231 159 L 164 159 L 162 158 L 160 158 L 157 159 L 154 158 L 151 159 L 148 158 L 143 159 L 141 159 L 139 158 L 137 159 L 135 159 L 133 158 L 131 159 L 129 159 L 124 158 L 119 159 L 117 159 L 114 158 L 112 159 L 109 158 L 108 159 L 97 159 L 95 159 L 93 158 L 91 158 L 89 159 L 85 158 Z M 33 160 L 23 162 L 20 163 Q 17 163 18 170 L 24 172 L 40 172 L 41 171 L 42 171 L 42 163 L 39 161 L 37 161 L 33 160 Z M 9 161 L 7 163 L 8 171 L 12 172 Q 17 170 15 162 L 9 161 Z M 214 165 L 213 166 L 123 166 L 121 166 Q 115 165 114 167 L 111 166 L 109 166 L 105 167 L 102 166 L 99 167 Q 88 169 82 166 L 80 166 L 78 167 L 76 167 L 74 166 L 67 167 L 65 169 L 66 172 L 150 171 L 151 170 L 155 171 L 157 170 L 197 170 L 199 170 L 202 169 L 219 169 L 220 168 L 261 168 L 262 167 Q 263 170 270 168 L 272 168 Q 278 170 280 167 L 282 168 L 287 167 L 304 167 L 306 167 L 323 167 L 324 166 L 326 167 L 328 167 L 334 166 L 238 165 L 236 165 Q 229 163 228 166 L 226 165 L 224 165 Q 219 164 218 166 L 214 165 Z M 64 174 L 64 183 L 64 185 L 65 187 L 65 203 L 66 204 L 65 206 L 66 221 L 66 223 Q 65 225 68 224 L 71 225 L 71 186 L 71 184 L 70 182 L 71 177 L 71 174 L 64 174 Z M 74 191 L 73 194 L 74 196 L 74 207 L 78 208 L 82 208 L 82 201 L 85 201 L 86 207 L 86 195 L 87 194 L 87 191 L 74 191 Z M 232 191 L 231 192 L 169 192 L 168 193 L 166 192 L 164 193 L 162 192 L 159 193 L 157 192 L 155 193 L 153 193 L 151 192 L 148 193 L 139 193 L 138 192 L 136 193 Q 130 195 129 192 L 128 193 L 89 193 Q 87 198 91 200 L 92 199 L 138 199 L 139 198 L 141 199 L 146 198 L 148 199 L 150 199 L 152 198 L 208 198 L 211 197 L 213 198 L 215 197 L 250 197 L 251 196 L 254 197 L 264 197 L 265 196 L 267 197 L 287 197 L 288 196 Q 294 194 296 197 L 300 196 L 302 196 L 304 197 Q 305 194 312 196 L 314 196 L 317 197 L 318 196 L 334 196 L 335 193 L 334 191 L 315 191 L 313 191 L 305 191 L 304 192 L 302 191 L 300 191 L 298 192 L 296 191 L 293 192 L 287 191 L 285 191 L 283 192 L 281 192 L 275 191 L 269 191 L 264 192 L 262 192 L 260 191 L 258 191 L 254 192 L 252 192 L 250 191 L 247 192 L 245 191 L 242 192 L 240 191 L 237 192 L 235 192 L 232 191 Z M 25 192 L 19 197 Q 19 204 24 206 L 28 204 L 30 200 L 29 195 L 25 192 Z M 43 193 L 37 195 L 34 194 L 31 196 L 32 202 L 39 204 L 51 204 L 52 205 L 62 203 L 63 198 L 62 193 L 52 194 L 50 194 L 43 193 Z M 307 198 L 306 199 L 231 199 L 230 200 L 225 199 L 223 199 L 220 200 L 218 200 L 209 200 L 208 199 L 206 200 L 201 199 L 200 200 L 142 200 L 141 201 L 139 200 L 137 200 L 124 201 L 122 201 Q 116 203 115 200 L 114 201 L 89 201 L 88 204 L 89 207 L 112 207 L 113 206 L 115 207 L 117 207 L 121 206 L 191 205 L 193 205 L 197 204 L 199 205 L 200 204 L 222 204 L 223 203 L 225 204 L 226 203 L 249 203 L 251 203 L 260 203 L 261 202 L 263 203 L 268 202 L 270 203 L 273 202 L 276 203 L 277 202 L 298 202 L 300 202 L 302 201 L 304 202 L 306 202 L 308 201 L 327 201 L 328 200 L 331 201 L 334 200 L 334 198 L 318 198 L 316 198 L 314 199 L 307 198 Z M 60 205 Q 59 208 62 207 Q 63 204 60 205 Z M 53 208 L 52 209 Q 46 208 46 210 L 46 243 L 46 245 L 46 254 L 47 255 Q 46 259 52 257 L 53 256 L 53 241 L 54 240 L 53 211 Q 55 209 53 208 Z M 55 220 L 55 224 L 55 226 L 56 228 Q 57 232 55 234 L 58 239 Q 60 236 64 237 L 65 228 Q 61 226 64 225 L 63 223 L 63 220 L 55 220 Z M 129 222 L 128 223 L 76 223 L 74 226 Q 72 229 67 227 L 68 231 L 67 234 L 68 237 L 69 229 L 74 228 L 77 229 L 79 229 L 80 228 L 154 228 L 157 227 L 161 228 L 164 227 L 168 228 L 170 227 L 271 227 L 272 226 L 280 227 L 282 227 L 285 226 L 287 226 L 290 227 L 291 226 L 300 226 L 302 226 L 334 226 L 334 223 L 317 223 L 316 224 L 311 223 L 249 223 L 248 222 L 246 223 L 241 222 L 238 223 L 235 222 L 233 223 Q 228 224 227 222 L 223 223 L 211 223 L 210 222 L 208 223 L 204 222 Q 202 224 198 223 L 196 223 L 130 223 L 129 222 Z M 11 223 Q 11 226 9 225 Q 5 227 7 234 Q 8 236 13 235 L 16 228 L 11 223 Z M 31 223 L 30 224 L 22 224 L 17 227 L 18 233 L 24 235 L 39 235 L 40 234 L 44 236 L 44 223 L 31 223 Z M 214 228 L 213 229 L 121 229 L 119 229 L 115 230 L 113 229 L 110 230 Q 104 232 103 229 L 101 230 L 75 230 L 73 230 Q 70 231 72 233 L 71 235 L 74 236 L 76 236 L 79 235 L 144 235 L 145 234 L 147 235 L 149 235 Q 154 237 156 234 L 159 235 L 161 235 L 163 234 L 212 234 L 214 233 L 216 233 L 219 234 L 222 233 L 305 233 L 306 232 L 311 233 L 313 232 L 334 232 L 334 228 L 298 228 L 297 229 L 294 228 L 290 229 L 285 228 L 282 229 L 279 228 L 276 229 Q 271 230 270 228 Q 268 231 262 229 L 260 229 L 242 229 L 241 228 L 235 229 L 232 228 Q 230 231 224 229 L 222 229 Q 215 231 214 228 Z M 63 239 L 61 241 Q 63 246 60 248 L 61 250 L 61 275 L 62 276 L 62 291 L 68 292 L 68 260 L 67 259 L 67 249 L 68 248 L 67 246 L 68 241 Q 67 238 63 239 Z M 84 256 L 83 257 Q 73 256 69 258 Q 71 262 70 271 L 71 272 L 72 273 L 82 273 Q 81 269 84 268 L 85 272 L 87 271 L 86 269 L 86 259 L 87 258 L 84 256 Z M 110 257 L 109 258 L 88 258 L 89 263 L 90 264 L 207 264 L 209 264 L 213 263 Q 216 262 215 265 L 219 263 Q 223 264 225 262 L 239 263 L 241 263 L 245 264 L 249 263 L 251 263 L 253 264 L 258 263 L 260 264 L 262 264 L 299 264 L 300 263 L 305 264 L 307 264 L 311 263 L 313 264 L 315 263 L 317 263 L 319 264 L 333 263 L 334 264 Q 334 259 334 259 L 313 259 L 311 259 L 302 259 L 301 260 L 300 259 L 289 259 L 286 260 L 285 259 L 143 259 L 140 258 L 136 259 L 135 258 L 111 258 L 110 257 Z M 39 259 L 30 261 L 29 264 L 30 266 L 29 269 Q 32 271 39 270 L 41 270 L 43 271 L 51 271 L 52 270 L 55 271 L 59 270 L 60 267 L 59 263 L 59 259 L 50 259 L 47 260 L 39 259 Z M 23 260 L 21 261 L 18 265 L 19 269 Q 20 271 25 270 L 28 265 L 27 261 L 23 260 Z M 225 264 L 216 269 L 215 271 L 220 269 L 223 270 L 215 273 L 212 277 L 223 274 L 225 270 Q 230 269 232 271 Q 235 272 234 269 L 226 268 L 225 264 Z M 231 264 L 229 266 Q 236 267 241 271 L 241 268 L 231 264 Z M 245 265 L 242 266 L 245 270 L 247 269 L 249 270 L 279 270 L 280 269 L 285 270 L 287 270 L 289 269 L 291 270 L 293 270 L 295 269 L 297 270 Q 301 271 303 269 L 305 270 L 307 269 L 334 269 L 334 265 L 313 265 L 312 266 L 311 265 L 295 265 L 293 265 L 290 266 L 288 266 L 286 265 L 281 266 L 273 266 L 272 265 L 268 266 L 266 265 L 263 266 L 261 266 L 259 265 L 258 266 L 250 266 L 245 265 Z M 89 266 L 89 272 L 139 272 L 141 271 L 143 271 L 146 272 L 149 271 L 151 272 L 155 271 L 157 271 L 162 272 L 163 271 L 198 271 L 199 270 L 201 271 L 209 270 L 213 267 L 89 266 Z M 210 272 L 209 274 L 204 278 Q 199 277 201 281 L 210 276 L 210 272 Z M 226 272 L 226 273 Q 230 272 229 275 Q 220 274 216 278 L 216 279 L 222 277 L 227 278 L 220 279 L 217 281 Q 212 280 213 283 L 225 281 L 228 279 L 230 280 L 233 279 L 239 282 L 242 282 L 235 278 L 231 278 Q 228 277 231 275 L 239 278 Q 241 279 240 276 Q 235 272 226 272 Z M 239 272 L 243 276 L 243 275 L 239 272 Z M 55 274 L 50 275 L 47 278 L 47 313 L 47 315 L 47 329 L 53 329 L 55 331 L 54 328 L 54 321 L 56 313 L 54 305 L 54 299 L 54 297 L 56 290 L 56 282 L 56 280 Q 57 273 55 274 Z M 210 278 L 208 280 Q 207 282 211 281 L 210 278 Z M 198 281 Q 199 284 197 283 L 198 285 L 206 284 L 207 282 L 204 283 L 200 283 Q 201 280 198 281 Z M 233 281 L 231 283 Q 230 285 233 284 L 234 282 L 233 281 Z M 244 283 Q 243 286 247 285 L 247 287 Q 249 288 248 284 L 244 283 Z M 210 284 L 206 286 L 206 287 Q 209 288 210 286 L 210 284 Z M 227 284 L 228 286 Q 229 283 227 284 Z M 236 284 L 234 286 L 239 287 L 242 285 L 236 284 Z M 218 286 L 215 288 L 218 288 L 218 286 Z M 230 286 L 226 293 Q 227 295 224 294 L 222 300 L 222 313 L 221 314 Q 223 319 219 318 L 214 334 L 215 336 Q 217 341 214 343 Q 212 349 215 351 L 213 360 L 214 361 L 214 373 L 219 376 L 223 371 L 220 359 L 221 356 L 224 369 L 227 358 L 227 333 L 227 331 L 229 326 L 228 322 L 230 321 L 232 315 L 234 315 L 240 312 L 241 310 L 239 311 L 238 308 Q 244 308 246 304 L 246 302 L 241 306 Q 238 307 239 305 L 238 305 L 239 303 L 241 304 L 247 300 L 251 295 L 251 293 L 243 299 L 240 301 Q 238 303 237 301 L 241 298 Q 243 294 245 296 Q 244 293 247 294 L 250 289 L 250 287 L 248 290 L 232 300 L 228 299 L 227 297 Q 226 290 230 289 L 230 286 Z M 212 287 L 209 288 L 209 290 L 206 288 L 204 289 L 202 288 L 201 290 L 197 290 L 193 292 L 199 300 L 206 314 L 208 313 L 209 310 L 211 311 L 214 308 L 215 309 Q 218 308 217 311 L 220 312 L 219 307 L 220 298 L 225 290 L 220 288 L 219 292 Q 216 293 217 291 L 216 291 Q 217 295 214 294 Q 215 289 212 287 Z M 243 287 L 239 289 L 234 288 L 236 291 L 245 289 L 246 288 L 243 287 Z M 182 292 L 184 296 Q 181 297 180 294 L 173 295 L 167 299 L 158 316 L 156 323 L 146 343 L 138 381 L 135 387 L 135 391 L 132 398 L 132 403 L 129 410 Q 129 423 125 433 L 125 442 L 131 451 L 137 453 L 138 453 L 132 443 L 131 446 L 128 444 Q 126 430 130 423 L 133 421 L 132 419 L 132 414 L 136 400 L 136 395 L 144 367 Q 143 364 146 365 L 149 356 L 149 352 L 147 357 L 146 357 L 146 352 L 151 337 L 154 333 Q 153 330 156 331 Q 158 330 156 329 L 157 324 L 161 321 L 169 303 L 176 297 L 177 299 L 180 297 L 181 298 L 177 301 L 176 299 L 171 304 L 157 336 L 146 374 L 146 379 L 142 391 L 141 402 L 136 420 Q 139 421 137 423 L 140 432 L 145 435 L 146 436 L 145 423 L 145 421 L 144 418 L 145 416 L 147 387 L 154 363 L 159 337 L 161 334 Q 160 331 163 332 L 160 342 L 160 349 L 157 360 L 157 362 L 154 368 L 154 373 L 151 382 L 152 383 L 154 382 L 154 396 L 153 397 L 153 407 L 152 408 L 152 429 L 159 445 L 162 446 L 164 449 L 168 441 Q 169 437 166 438 L 163 433 L 161 425 L 162 420 L 164 424 L 165 432 L 169 437 Q 172 426 179 419 L 177 415 L 176 415 L 173 411 L 171 401 L 171 386 L 171 384 L 173 364 L 176 365 L 175 370 L 175 372 L 174 375 L 174 390 L 175 390 L 175 376 L 177 375 L 177 403 L 180 417 L 186 412 L 185 409 L 189 410 L 187 407 L 184 408 L 182 396 L 182 385 L 183 384 L 182 382 L 182 368 L 181 367 Q 184 359 178 361 L 174 358 Q 175 351 171 349 L 174 334 L 182 322 L 187 318 L 176 335 L 173 348 L 176 351 L 177 349 Q 176 346 179 347 L 176 357 L 182 359 Q 184 357 183 353 L 187 347 Q 189 346 188 350 L 189 350 Q 188 345 191 346 L 190 353 Q 192 360 188 359 L 187 357 L 188 353 L 188 350 L 185 355 Q 186 362 183 365 L 185 369 Q 184 371 187 370 L 190 375 L 191 372 L 190 370 L 192 363 L 192 357 L 194 353 L 194 348 L 200 345 Q 203 347 201 352 L 199 352 L 199 347 L 197 347 L 196 350 L 198 354 L 196 360 L 196 365 L 193 373 L 193 385 L 194 387 Q 195 389 197 387 L 197 393 Q 201 394 199 389 L 202 389 L 203 394 Q 202 397 206 395 L 208 392 L 210 393 L 212 392 L 211 369 L 211 367 L 211 359 L 212 358 L 211 356 L 212 354 Q 213 349 211 348 L 212 346 L 212 337 L 211 336 Q 212 333 209 334 Q 210 343 207 349 L 207 365 L 204 371 L 205 375 L 202 376 L 203 371 L 202 368 L 202 359 L 205 347 L 205 339 L 204 338 L 207 331 L 203 325 L 203 322 L 200 316 L 203 317 L 202 311 L 201 314 L 198 311 Q 199 307 195 309 L 195 308 L 198 306 L 200 311 L 201 311 L 201 307 L 196 300 Q 193 291 182 292 Z M 231 292 L 231 295 L 235 294 L 231 292 Z M 60 294 L 57 295 L 57 305 L 58 306 L 58 311 L 68 311 L 67 306 L 70 304 L 71 308 L 73 297 L 70 295 L 69 299 Q 66 300 67 296 L 66 296 Q 65 293 60 294 Z M 9 295 L 7 297 L 7 308 L 12 309 L 14 305 L 17 304 L 23 307 L 26 307 L 29 308 L 32 307 L 37 308 L 45 307 L 45 301 L 46 300 L 45 296 L 43 295 L 42 296 L 29 297 L 27 297 L 21 298 L 19 298 L 17 298 L 17 302 Q 13 303 15 298 Q 14 294 9 295 Z M 101 295 L 100 296 L 75 296 L 74 302 L 163 302 L 167 297 L 166 297 L 165 296 L 118 296 L 116 296 L 108 296 L 107 295 L 104 296 L 101 295 Z M 253 295 L 250 302 L 254 301 L 255 302 L 327 302 L 329 302 L 331 301 L 332 304 L 329 303 L 312 303 L 311 304 L 309 303 L 307 303 L 302 304 L 300 303 L 298 303 L 296 304 L 295 303 L 251 303 L 250 302 L 249 304 Q 251 303 250 306 Q 248 307 251 308 L 317 308 L 318 307 L 320 308 L 322 307 L 327 308 Q 328 306 334 307 Q 336 306 334 305 L 335 301 L 335 297 L 321 297 L 318 296 Q 311 294 310 297 L 305 296 L 303 296 L 294 296 L 293 297 Q 291 295 287 296 L 285 296 L 276 296 L 275 297 L 274 296 L 254 296 L 253 295 Z M 79 303 L 74 304 Q 73 309 76 310 L 79 309 L 80 310 L 95 310 L 97 310 L 102 309 L 104 310 L 106 310 L 112 309 L 115 310 L 116 309 L 159 309 L 161 305 L 80 304 L 79 303 Z M 240 314 L 236 317 L 233 322 L 233 324 L 231 327 Q 230 331 232 333 L 230 336 L 231 341 L 230 343 L 230 360 L 228 366 L 229 368 L 228 367 L 225 373 L 224 375 L 227 374 L 231 368 Q 230 363 232 362 L 233 327 Q 235 319 241 315 L 240 314 Z M 61 316 L 62 320 L 61 340 L 61 342 L 60 344 L 61 348 L 60 355 L 60 357 L 61 359 L 61 370 L 67 370 Q 66 367 69 368 L 68 350 L 67 349 L 67 331 L 68 330 L 68 316 L 61 316 Z M 73 333 L 70 334 L 69 340 L 70 341 L 70 350 L 72 351 L 73 350 L 81 350 L 80 348 L 82 343 L 85 350 Q 89 348 86 347 L 87 345 L 86 343 Q 85 338 88 337 L 91 342 L 96 341 Q 97 344 103 342 L 105 342 L 107 341 L 109 342 L 121 342 L 122 341 L 127 342 L 131 342 L 133 341 L 143 341 L 144 342 L 145 339 L 145 336 L 119 336 L 117 336 L 87 336 L 86 334 L 84 335 L 78 333 L 73 333 Z M 48 335 L 37 337 L 32 340 Q 33 344 31 343 Q 28 342 30 341 Q 31 337 28 336 L 21 337 Q 17 339 18 346 L 24 349 L 27 348 L 30 344 L 37 348 L 58 348 L 59 346 L 58 344 L 59 341 L 59 339 L 59 335 L 50 335 L 48 335 Z M 237 335 Q 234 336 235 340 L 316 340 L 317 339 L 319 340 L 321 340 L 323 339 L 334 339 L 334 335 L 330 336 L 328 335 L 326 335 L 321 336 L 319 336 L 316 335 L 314 336 L 311 335 Q 309 337 305 336 L 303 336 L 301 335 L 300 336 L 290 336 L 288 336 L 285 335 L 280 336 L 278 336 L 274 335 L 270 336 L 268 335 L 267 336 L 258 336 L 256 336 L 254 335 L 252 336 L 250 335 L 248 335 L 240 336 L 237 335 Z M 154 337 L 152 340 L 153 343 L 154 341 L 154 337 Z M 300 341 L 299 342 L 235 342 L 234 345 Q 235 347 237 345 L 240 346 Q 245 348 247 345 L 248 346 L 272 346 L 274 346 L 277 345 L 334 345 L 334 341 L 305 341 L 302 342 L 300 341 Z M 89 343 L 89 348 L 137 348 L 139 347 L 142 348 L 143 347 L 143 343 L 98 343 L 96 343 L 92 344 L 89 343 Z M 152 343 L 151 346 L 152 346 L 152 343 Z M 151 346 L 149 349 L 150 352 L 151 349 L 151 346 Z M 145 370 L 144 373 L 145 373 L 145 370 Z M 185 371 L 185 380 L 186 375 L 185 371 Z M 143 378 L 142 381 L 143 381 L 143 378 Z M 188 378 L 189 397 L 191 387 L 188 378 Z M 186 384 L 185 389 L 186 389 L 186 384 Z M 151 385 Q 148 391 149 402 L 148 403 L 148 428 Q 151 429 149 436 L 152 444 L 157 448 L 157 445 L 151 434 L 149 423 L 149 411 L 151 402 L 150 400 L 151 398 L 151 385 Z M 141 386 L 140 389 L 141 389 L 141 386 Z M 140 389 L 139 393 L 140 393 L 140 389 Z M 186 392 L 185 397 L 186 397 L 186 392 Z M 139 393 L 138 399 L 139 399 L 139 393 Z M 186 399 L 185 402 L 186 402 L 186 399 Z M 138 400 L 136 405 L 137 408 L 138 405 L 138 400 Z M 189 401 L 189 409 L 192 407 L 189 401 Z M 219 403 Q 219 406 223 406 Q 226 407 227 405 Q 224 402 219 403 Z M 203 405 L 198 406 L 191 411 Q 192 413 194 411 L 201 413 Q 202 416 199 415 L 199 417 Q 198 419 197 417 L 195 418 L 197 419 L 204 420 Q 206 424 208 420 Q 209 417 207 418 Q 205 420 204 418 L 208 416 L 209 418 Q 213 412 221 410 Q 223 411 222 408 L 219 406 Q 214 407 213 405 L 203 405 Z M 236 405 L 234 407 L 237 412 L 240 410 L 242 406 L 236 405 Z M 252 406 L 249 407 L 248 412 L 252 413 L 253 411 L 254 408 L 252 406 Z M 246 407 L 242 410 L 234 421 L 254 422 L 261 410 L 265 408 Q 266 411 263 410 L 257 420 L 257 422 L 261 423 L 281 423 L 288 408 L 282 407 Q 275 405 274 408 L 273 407 L 256 407 L 256 409 L 254 413 Q 255 415 252 414 L 252 419 L 249 421 L 251 417 L 250 414 L 247 415 Q 242 417 246 419 Q 249 418 248 421 L 243 420 L 242 417 L 246 414 L 245 412 L 247 408 L 246 407 Z M 136 409 L 135 412 L 136 412 L 136 409 Z M 294 409 L 290 411 L 284 424 L 289 426 Q 291 427 290 423 Q 295 422 293 426 Q 296 427 295 424 L 298 423 L 299 426 Q 302 427 301 423 L 304 423 L 303 425 L 307 426 L 308 423 L 308 421 Q 307 418 310 419 Q 313 417 312 412 L 300 410 L 298 410 L 294 409 Z M 190 411 L 188 414 L 190 413 L 190 411 Z M 221 412 L 217 414 L 213 419 L 215 418 L 225 420 L 227 419 L 226 414 Q 223 415 225 417 L 225 418 L 220 418 L 222 415 L 221 412 Z M 15 413 L 14 415 L 9 414 L 7 418 L 7 420 L 8 422 L 7 424 L 8 428 L 7 436 L 7 438 L 8 441 L 7 444 L 14 447 L 16 452 L 18 451 L 21 450 L 26 453 L 27 451 L 29 451 Q 31 452 30 449 L 34 450 Q 35 446 32 447 L 32 444 L 35 445 Q 38 446 36 441 Q 38 439 35 438 L 37 436 L 35 432 L 41 434 L 41 432 L 37 430 Q 34 431 35 428 L 42 431 L 42 430 L 37 426 Q 34 427 35 424 L 24 418 L 22 419 L 15 418 L 16 416 L 18 417 L 20 417 L 15 413 Z M 191 413 L 192 419 L 195 417 L 196 414 L 191 413 Z M 315 413 L 315 415 L 317 414 L 315 413 Z M 323 413 L 323 415 L 320 414 L 317 418 L 315 415 L 310 426 L 316 428 L 315 427 Q 316 424 314 425 L 314 424 L 313 422 L 315 421 L 317 426 Q 318 429 323 428 Q 324 425 320 426 L 317 423 L 319 419 L 321 417 Q 328 418 331 415 L 333 416 Q 336 417 334 413 L 332 414 L 323 413 Z M 188 414 L 183 420 L 189 419 L 188 414 Z M 233 414 L 233 416 L 235 415 L 233 414 Z M 333 417 L 332 420 L 333 420 L 333 417 Z M 230 418 L 230 420 L 232 419 L 230 418 Z M 211 420 L 206 426 L 200 438 Q 204 439 203 436 Q 206 435 205 439 L 208 438 L 220 439 L 218 437 L 220 435 L 222 436 L 223 433 L 230 425 L 229 421 L 226 422 L 211 420 Z M 195 421 Q 194 423 198 423 Q 196 430 200 433 L 204 427 L 204 424 Q 202 419 195 421 Z M 134 422 L 132 424 L 130 433 L 130 439 L 134 443 L 134 446 Q 138 453 148 453 L 144 447 L 145 444 L 145 442 L 138 434 L 135 426 Q 136 421 134 422 Z M 183 422 L 178 423 L 177 426 L 178 427 L 184 423 L 183 422 Z M 191 422 L 192 424 Q 193 421 191 422 Z M 321 422 Q 319 425 322 424 L 321 422 Z M 234 423 L 231 428 L 236 425 L 239 426 L 242 425 L 246 433 L 242 436 Q 239 437 241 439 Q 240 443 244 441 L 245 437 L 252 424 Q 245 422 234 423 Z M 256 424 L 249 434 L 247 441 Q 248 443 253 442 L 254 443 L 253 441 Q 252 438 256 439 L 255 442 Q 254 445 258 443 L 259 438 L 259 436 L 262 434 L 261 439 L 260 442 L 262 443 L 264 438 L 266 439 L 265 441 L 266 443 L 268 440 Q 271 439 269 443 L 274 443 L 276 436 L 278 434 L 279 427 Q 278 424 274 425 L 271 424 Q 264 422 263 425 Q 261 423 256 424 Z M 193 425 L 191 428 L 193 427 L 193 425 Z M 333 425 L 330 428 L 334 428 Q 335 424 333 425 Z M 283 426 L 277 441 Q 276 445 279 446 Q 284 447 285 445 L 279 443 Q 278 439 281 440 L 282 437 L 281 435 L 282 433 Q 281 430 284 431 L 285 436 L 285 435 L 293 429 L 298 430 L 300 437 L 301 437 L 300 432 L 305 434 L 307 430 L 306 427 L 301 428 L 298 427 L 295 428 L 284 427 L 283 426 Z M 177 427 L 171 438 L 175 435 Q 180 434 183 437 Q 188 438 190 436 L 189 435 L 187 435 L 184 435 L 177 432 L 177 427 Z M 237 427 L 235 429 L 237 429 L 237 427 Z M 311 429 L 307 434 L 304 447 L 306 448 L 318 448 Q 319 450 320 448 L 318 447 Q 317 443 320 442 L 320 444 L 320 446 Q 319 448 322 447 Q 323 450 325 448 L 329 449 L 329 445 L 334 433 Q 335 428 330 430 L 327 429 L 325 430 L 321 429 L 318 430 L 311 429 Z M 229 430 L 221 441 L 224 442 L 226 438 Q 225 434 228 435 L 229 436 L 228 434 L 229 432 L 229 430 Z M 120 431 L 119 432 L 56 432 L 56 434 L 55 435 L 47 436 L 50 436 Q 51 439 47 438 L 45 438 L 45 440 L 40 440 L 39 443 L 40 445 L 39 444 L 36 454 L 33 458 L 45 458 L 45 457 Q 39 459 40 455 L 44 454 L 49 457 L 45 458 L 46 461 L 47 460 L 57 460 L 58 459 L 59 460 L 71 460 L 72 461 L 75 460 L 78 461 L 82 460 L 81 457 L 97 457 L 97 460 L 100 459 L 103 460 Q 106 458 114 459 L 115 458 L 119 459 L 121 459 L 125 458 L 127 459 L 129 459 L 131 458 L 133 459 Q 134 457 139 458 L 140 459 Q 141 456 137 457 L 134 456 L 132 457 L 129 456 Q 127 458 123 457 L 121 457 L 119 456 L 116 457 L 117 455 L 129 455 L 129 454 L 122 454 L 121 452 L 129 452 L 123 444 L 122 440 L 123 433 L 120 431 Z M 292 431 L 287 435 L 288 436 L 294 432 L 297 434 L 297 433 Q 296 430 292 431 Z M 47 432 L 47 433 L 51 433 L 47 432 Z M 232 433 L 232 434 L 234 434 L 232 433 Z M 197 435 L 193 436 Q 191 440 196 439 L 198 436 L 197 435 Z M 39 436 L 40 438 L 41 438 L 39 436 Z M 147 436 L 147 447 L 151 453 L 158 454 L 158 453 L 154 449 Q 148 445 147 436 Z M 229 436 Q 228 439 232 438 Q 233 442 228 440 L 229 442 L 236 441 L 234 440 L 235 438 L 229 436 Z M 284 436 L 284 440 Q 285 444 291 443 Q 292 440 288 441 L 284 436 Z M 304 436 L 300 442 L 301 444 L 298 444 L 298 442 L 296 443 L 294 443 L 296 446 L 296 447 L 301 447 L 304 439 L 304 436 Z M 335 436 L 332 441 L 333 446 L 334 442 L 335 439 L 335 436 Z M 178 438 L 175 439 Q 173 443 171 439 L 169 442 L 170 444 L 180 441 L 179 440 L 179 439 L 178 438 Z M 184 438 L 182 441 L 184 440 Q 190 438 192 441 L 195 441 Q 192 436 184 438 Z M 200 440 L 198 441 L 193 449 L 188 468 L 192 467 L 201 468 L 201 463 L 195 463 Q 192 462 195 460 L 200 461 Q 201 463 202 461 Q 204 455 199 457 Q 194 456 195 451 L 205 442 L 215 444 L 216 448 L 215 452 L 208 457 L 205 456 L 204 460 Q 208 459 209 462 L 209 464 L 204 464 L 204 467 Q 205 469 209 468 L 220 441 L 214 440 L 205 440 L 204 441 L 200 440 Z M 183 442 L 170 446 L 167 449 L 165 456 L 164 469 Q 162 470 165 471 L 165 470 L 168 468 L 169 469 L 168 465 Q 167 461 171 463 L 170 466 L 172 467 Q 171 464 174 465 L 174 467 L 181 466 L 180 462 Q 176 461 177 464 Q 176 467 174 464 Q 173 460 177 462 L 175 458 Q 178 457 177 460 Q 180 461 179 458 Q 184 456 182 462 L 182 464 Q 181 468 186 466 L 187 462 L 187 460 L 193 444 L 188 442 L 185 443 L 183 442 Z M 239 442 L 238 443 L 224 443 L 221 446 L 213 464 L 214 467 L 219 465 Q 224 467 222 462 Q 225 461 224 465 L 227 465 L 229 465 Q 232 466 231 464 L 231 462 Q 230 458 233 459 L 234 464 Q 233 466 236 465 L 237 461 L 236 461 Q 233 462 234 458 L 237 459 L 239 453 L 240 451 Q 234 453 235 449 L 233 449 Q 235 444 241 444 L 242 446 L 242 443 L 239 442 Z M 246 443 L 244 445 L 238 465 L 239 466 L 269 466 L 270 465 Q 269 456 272 452 Q 273 449 270 450 Q 269 447 273 448 L 273 444 L 263 444 L 261 444 L 258 445 L 257 444 Q 249 446 246 443 Z M 206 444 L 204 446 L 205 447 L 207 446 L 209 446 Q 210 442 206 444 Z M 211 445 L 213 448 L 213 447 L 211 445 Z M 290 445 L 291 447 L 294 447 Q 293 444 290 445 Z M 241 446 L 237 447 Q 236 451 241 449 L 241 446 Z M 332 446 L 331 450 L 334 451 L 335 450 L 332 446 Z M 277 447 Q 271 455 272 468 L 279 470 L 281 469 L 284 470 Q 288 471 290 469 L 296 470 L 298 474 L 296 493 L 303 494 Q 312 494 317 490 L 316 489 L 318 488 L 317 492 L 314 494 L 316 494 L 319 493 L 322 495 L 325 478 Q 326 474 324 473 L 320 474 L 318 474 Q 316 471 310 473 L 308 473 L 307 471 L 314 472 L 315 470 Q 310 471 311 469 L 309 468 Q 310 471 307 470 L 307 468 Q 304 469 306 471 L 306 472 L 298 472 L 297 470 L 297 463 L 301 449 L 290 449 L 289 448 L 277 447 Z M 161 448 L 158 450 L 161 451 L 162 454 L 163 454 L 161 448 Z M 11 449 L 12 451 Q 13 448 11 449 Z M 304 449 L 305 454 Q 306 456 302 455 L 300 462 L 301 470 L 304 463 L 306 467 L 308 466 L 306 463 L 307 454 L 311 451 Q 316 450 318 453 L 322 452 Q 326 454 324 462 L 319 465 L 321 468 L 323 465 L 325 466 Q 322 467 323 470 Q 318 472 319 468 L 318 468 L 311 465 L 310 467 L 316 470 L 318 469 L 318 471 L 316 472 L 325 472 L 327 464 L 328 450 L 313 450 L 312 449 L 310 450 L 304 449 Z M 313 452 L 311 453 L 309 456 L 314 454 Q 315 451 313 452 Z M 330 452 L 330 457 L 330 459 L 328 467 L 328 472 L 334 472 Q 335 468 332 469 Q 331 466 334 467 L 334 464 L 334 462 L 333 460 L 334 456 L 334 454 L 330 452 Z M 9 453 Q 8 456 12 455 Q 13 452 9 453 Z M 23 453 L 21 455 L 23 455 L 23 453 Z M 130 453 L 131 455 L 132 455 L 130 453 Z M 152 456 L 151 457 Q 146 455 147 459 L 149 458 L 150 459 L 162 459 L 162 456 L 154 456 L 152 456 Z M 8 457 L 8 459 L 10 458 L 8 457 Z M 310 458 L 308 460 L 310 460 L 310 458 Z M 321 459 L 319 462 L 321 461 L 321 459 Z M 40 460 L 40 461 L 44 461 L 40 460 Z M 114 460 L 113 461 L 99 462 L 115 462 Q 116 459 114 460 Z M 116 460 L 117 462 L 119 461 L 122 462 L 123 461 L 116 460 Z M 130 460 L 130 462 L 140 462 L 141 463 L 156 463 L 157 462 L 159 463 L 161 462 L 147 461 L 145 461 L 142 460 L 140 460 L 138 461 L 136 460 L 133 461 L 130 460 Z M 9 461 L 7 463 L 16 463 L 17 464 Q 22 465 23 463 L 9 461 Z M 309 461 L 308 463 L 310 464 L 309 461 Z M 313 461 Q 312 464 315 463 Q 316 460 313 461 Z M 27 462 L 24 463 L 24 464 L 41 464 L 28 463 L 27 462 Z M 47 462 Q 46 465 49 464 Q 50 461 47 462 Z M 51 462 Q 51 465 53 463 L 55 464 L 56 463 L 73 463 L 51 462 Z M 90 462 L 90 463 L 93 463 L 90 462 Z M 43 463 L 43 464 L 45 464 L 43 463 Z M 115 463 L 114 464 L 108 464 Q 109 468 107 467 Q 105 465 104 468 L 102 464 L 101 468 Q 100 470 99 468 L 98 472 L 98 474 Q 97 476 100 475 L 102 470 L 103 470 L 102 472 L 103 474 L 106 475 Q 104 470 108 468 L 108 470 L 110 469 L 113 471 Q 116 470 115 473 L 120 475 Q 121 473 126 474 L 128 474 L 132 474 L 132 469 L 134 469 L 135 471 L 135 464 L 133 465 L 134 467 L 131 468 Q 132 464 130 463 L 128 464 L 126 464 L 127 467 L 124 468 L 125 464 L 121 463 L 122 466 Q 123 469 121 470 Q 118 468 119 464 L 118 464 Q 120 471 116 470 L 115 468 L 116 466 Q 117 462 115 463 Z M 7 464 L 9 478 L 13 477 Q 11 475 12 471 L 15 469 L 16 477 L 16 474 L 20 472 L 21 474 L 20 473 L 19 475 Q 24 477 23 473 Q 26 472 25 475 L 30 475 Q 32 474 30 473 L 33 471 L 34 475 L 36 470 L 38 475 L 40 472 L 41 475 Q 43 474 41 473 L 42 471 L 40 466 L 34 466 L 34 469 L 31 470 L 31 467 L 30 469 Q 27 470 28 468 L 26 466 L 24 470 L 22 467 L 21 467 Q 23 472 19 471 L 18 469 Q 19 465 16 466 L 14 466 Q 11 463 7 464 Z M 90 464 L 89 465 L 86 465 Q 87 469 85 468 L 83 468 Q 84 470 82 469 L 80 469 L 78 469 L 78 465 L 77 465 L 77 467 L 76 470 Q 77 472 75 471 Q 72 470 74 469 L 68 468 L 69 474 L 69 472 Q 71 469 72 472 Q 71 475 75 474 L 76 475 L 79 472 L 80 473 L 82 472 Q 84 471 83 474 L 84 474 Q 83 470 86 471 L 87 474 Q 86 469 89 468 Q 91 469 90 475 L 92 474 Q 93 469 91 468 Q 90 465 94 466 L 95 474 L 96 471 L 95 466 Q 98 465 97 468 L 98 468 Q 99 463 94 465 L 92 465 L 90 464 Z M 158 464 L 157 465 L 146 465 L 144 465 L 140 466 Q 141 468 143 466 L 144 468 L 145 474 L 147 473 L 146 472 L 146 467 L 151 467 L 152 473 L 154 466 Q 157 468 155 473 Q 159 474 157 468 L 160 466 L 161 471 L 162 466 Q 161 463 160 465 L 158 464 Z M 48 465 L 46 467 L 47 474 L 49 475 L 48 470 L 51 468 L 52 473 L 52 471 Q 57 470 55 474 L 58 474 L 58 468 L 60 467 Q 62 468 60 470 L 61 472 L 60 474 L 62 474 L 62 467 Q 65 466 64 469 L 68 468 Q 69 464 66 465 L 64 465 L 62 466 L 60 466 L 58 465 L 57 469 L 56 469 Q 57 465 54 466 L 55 469 L 55 470 Q 51 470 52 466 L 51 466 L 48 465 Z M 316 465 L 317 467 Q 318 464 316 465 Z M 44 466 L 42 469 L 44 469 L 44 466 Z M 230 466 L 229 467 L 217 467 L 214 469 L 212 468 L 209 481 L 209 492 L 216 494 L 214 490 L 212 491 L 211 489 Q 212 486 217 487 Q 218 484 220 488 Q 222 489 221 487 L 215 484 L 214 482 L 217 477 Q 219 478 218 475 L 222 472 Q 224 473 223 470 L 227 471 Q 229 470 228 473 L 232 473 L 234 477 L 233 481 Q 230 487 222 488 L 226 491 L 230 487 L 232 489 L 230 494 L 234 493 L 234 485 L 236 479 L 237 468 Q 235 465 230 466 Z M 138 467 L 138 474 L 139 474 Q 140 466 138 467 Z M 184 467 L 166 472 L 162 478 L 163 480 L 162 482 L 162 495 L 172 493 L 178 493 L 179 490 L 174 490 L 165 494 L 163 490 L 166 489 L 171 490 Q 172 487 170 488 L 166 482 L 166 476 L 175 471 L 182 472 L 185 475 Q 186 468 184 467 Z M 240 468 L 236 485 L 236 493 L 242 493 L 244 493 L 252 493 L 252 491 L 254 490 Q 252 496 260 493 L 262 493 Q 267 495 265 489 L 265 487 L 268 471 L 266 468 L 240 468 Z M 272 468 Q 266 476 268 493 L 264 497 L 262 504 L 264 513 Q 265 517 261 515 L 261 518 L 265 517 L 270 518 L 290 518 L 292 513 L 292 502 L 293 501 L 293 497 L 292 499 L 289 501 Q 288 503 291 502 L 289 505 L 290 506 L 287 507 L 288 503 L 285 504 Q 282 505 283 502 L 285 502 L 282 500 L 285 498 L 286 501 L 287 497 L 292 497 L 284 494 L 282 495 L 271 495 L 270 493 L 278 493 L 279 494 L 283 493 L 281 490 Q 278 489 279 492 Q 276 493 277 490 Q 274 489 273 492 L 269 491 Q 273 489 272 485 L 277 487 L 278 488 L 275 484 L 274 476 L 279 472 L 282 474 L 285 473 L 290 477 L 289 482 L 281 488 L 285 490 L 287 490 Q 289 491 288 489 L 291 487 L 290 491 L 287 493 Q 286 495 293 494 L 294 493 L 295 479 L 296 478 Q 297 472 294 471 Q 289 470 288 472 L 286 471 L 274 471 L 272 468 Z M 189 469 L 188 487 L 186 491 Q 187 493 189 491 L 191 492 L 206 492 L 206 487 L 206 485 L 207 484 L 208 472 L 206 469 L 191 469 L 189 469 Z M 65 470 L 64 473 L 65 473 L 65 470 Z M 174 474 L 173 477 L 175 477 L 174 474 Z M 182 474 L 181 478 L 183 479 L 182 474 Z M 230 474 L 230 478 Q 229 480 232 479 Q 233 475 230 474 Z M 327 474 L 327 478 L 331 475 L 333 476 L 335 476 Q 333 472 327 474 Z M 277 475 Q 276 478 279 477 Q 280 474 277 475 Z M 282 475 L 282 477 L 286 478 Q 288 479 287 477 Q 286 474 282 475 Z M 100 476 L 89 478 L 83 477 L 82 480 L 81 478 L 79 479 L 76 478 L 72 478 L 68 479 L 66 478 L 62 478 L 60 479 L 59 478 L 51 478 L 49 478 L 47 479 Q 41 477 42 481 L 43 482 L 41 481 L 41 479 Q 34 478 35 481 L 32 483 L 34 480 L 32 479 L 32 481 L 21 479 L 19 479 L 16 481 L 22 482 L 24 481 L 24 484 L 16 482 L 16 484 L 16 486 L 15 483 L 12 483 L 13 481 L 14 479 L 12 480 L 8 479 L 9 492 L 10 491 L 16 491 Q 15 486 20 485 Q 24 483 23 487 L 25 486 Q 28 487 26 482 L 28 483 L 27 487 L 25 488 L 23 487 L 21 490 L 19 489 L 18 491 Q 23 492 24 489 L 23 491 L 27 491 L 29 491 Q 32 492 31 489 L 35 489 L 36 491 Q 39 489 39 483 L 39 485 L 41 486 L 44 485 L 44 489 Q 42 490 45 491 Q 46 489 52 490 L 54 490 L 57 488 L 58 488 L 57 490 L 58 491 L 59 488 L 62 488 Q 61 491 64 490 L 63 489 L 66 490 L 68 487 L 71 488 L 72 490 L 75 486 L 75 488 L 78 489 L 76 489 Q 74 487 73 490 L 79 490 L 80 487 L 81 487 L 80 490 L 83 490 L 84 488 L 84 490 L 87 490 L 88 488 L 88 490 Q 91 491 90 489 L 91 489 Q 90 491 94 490 L 96 490 L 96 486 L 95 488 L 94 488 L 96 484 L 98 490 L 101 489 Q 103 490 102 488 L 103 488 Q 102 490 105 489 L 104 486 L 106 486 L 108 485 L 110 482 L 110 486 L 108 486 Q 109 488 106 487 Q 105 490 108 489 L 111 488 L 115 489 L 118 488 L 119 489 L 127 489 L 129 489 L 133 488 L 135 488 L 145 488 L 145 487 L 146 487 Q 145 489 149 488 L 151 488 L 154 489 L 160 488 L 159 482 L 160 477 L 158 476 Q 152 475 151 477 L 147 476 L 145 476 L 142 477 L 140 476 L 139 477 L 119 477 L 117 477 L 115 476 L 105 476 L 104 477 L 102 476 L 100 476 Z M 330 477 L 331 482 L 333 478 L 330 477 Z M 217 480 L 217 482 L 219 483 Q 220 479 217 480 Z M 278 480 L 277 483 L 279 483 L 278 480 Z M 185 482 L 180 486 L 184 486 L 182 489 L 184 494 L 185 490 L 185 488 L 185 482 Z M 176 484 L 174 488 L 176 487 L 176 484 Z M 326 486 L 325 495 L 330 495 L 327 494 Q 326 490 332 492 Q 333 494 334 492 L 327 489 L 326 486 Z M 330 486 L 330 487 L 332 487 L 330 486 Z M 68 489 L 68 490 L 70 490 L 68 489 Z M 67 490 L 66 493 L 67 493 L 67 490 Z M 221 490 L 221 492 L 220 494 L 228 494 L 221 490 Z M 106 491 L 104 493 L 106 493 L 108 493 L 109 493 L 106 491 Z M 129 491 Q 129 495 131 492 L 129 491 Z M 139 491 L 139 492 L 141 492 L 139 491 Z M 152 491 L 152 492 L 159 492 L 152 491 Z M 84 492 L 84 493 L 86 493 L 84 492 Z M 88 492 L 88 493 L 91 493 L 88 492 Z M 93 492 L 93 493 L 95 493 L 93 492 Z M 97 492 L 97 493 L 102 493 L 97 492 Z M 8 493 Q 7 497 12 495 Q 13 491 8 493 Z M 18 493 L 19 494 L 20 495 Q 21 492 18 493 Z M 36 493 L 36 494 L 38 494 L 36 493 Z M 50 493 L 50 494 L 52 494 L 50 493 Z M 138 494 L 137 495 L 126 495 L 126 497 L 125 495 L 120 495 L 119 497 L 121 496 L 120 498 Q 121 501 119 500 L 120 503 L 119 502 Q 116 501 117 504 L 114 502 L 116 499 Q 120 500 119 497 L 117 498 L 115 497 L 112 498 L 109 498 Q 110 494 108 495 L 108 497 L 108 499 Q 103 497 106 496 L 94 495 L 93 499 L 92 499 Q 93 495 90 496 L 87 497 L 88 499 L 87 498 L 83 499 L 72 498 L 70 498 L 67 496 L 65 500 L 64 498 L 65 496 Q 62 495 63 498 L 61 499 Q 57 498 58 502 L 61 500 L 62 502 L 61 504 L 65 502 L 65 505 L 60 507 L 60 506 Q 62 507 61 505 Q 60 502 59 504 Q 56 505 57 502 L 55 503 L 56 506 L 58 507 L 55 508 L 54 506 Q 56 507 55 505 L 53 504 L 52 507 L 48 508 L 46 507 L 40 509 L 57 509 L 58 510 Q 59 508 64 509 L 69 508 L 71 509 L 83 508 L 84 507 L 85 508 L 93 508 L 94 505 L 97 504 Q 98 500 96 501 L 94 502 L 95 499 L 101 496 L 103 497 L 103 499 L 100 498 Q 97 499 98 504 L 100 503 Q 99 500 102 501 L 103 501 Q 104 504 101 503 L 100 507 Q 105 508 107 505 L 106 507 L 108 507 Q 109 505 111 508 L 119 506 L 120 507 L 133 507 L 134 509 L 133 514 Q 136 515 135 512 Q 140 513 141 511 Q 139 505 143 506 L 142 504 L 145 502 L 151 505 L 152 509 L 151 510 L 144 511 L 152 511 L 153 513 L 153 514 L 146 514 L 146 515 L 156 515 L 156 518 L 153 520 L 154 522 L 151 523 L 155 523 L 157 526 L 158 511 L 159 510 L 159 499 L 160 498 L 158 494 L 156 495 L 154 494 L 151 496 L 147 494 L 146 497 Q 147 500 144 499 L 146 496 L 143 494 L 142 496 L 138 494 Z M 175 494 Q 172 497 167 496 L 162 503 L 162 505 L 160 521 L 163 520 L 181 518 Q 183 517 181 516 L 182 511 L 182 497 L 181 496 Q 181 493 175 494 Z M 187 494 L 188 504 L 189 500 L 194 496 L 201 497 L 202 496 L 207 502 Q 208 507 204 509 L 204 512 Q 201 511 202 514 L 204 513 Q 206 512 205 515 L 200 517 L 196 516 L 193 517 L 189 516 Q 188 512 194 514 L 195 515 L 189 506 L 188 516 L 187 517 L 188 519 L 191 519 Q 194 517 201 518 L 204 517 L 208 518 L 208 501 L 207 500 Q 208 494 207 494 L 187 494 Z M 257 494 L 256 495 L 235 495 L 235 518 Q 242 517 245 519 L 244 516 Q 238 518 239 514 L 245 515 Q 246 512 243 513 L 243 511 L 242 511 L 242 512 L 238 512 L 240 509 L 242 510 L 244 507 L 243 505 L 246 499 L 251 500 Q 252 497 258 498 L 260 503 L 259 512 L 258 513 Q 254 512 255 515 L 257 514 L 261 515 L 260 509 L 262 499 Q 264 491 257 494 Z M 296 494 L 294 498 L 295 512 L 295 511 L 297 511 L 298 508 L 303 509 L 301 506 L 303 500 L 307 498 L 310 497 L 317 499 L 320 503 L 319 505 L 320 509 L 318 514 Q 317 518 320 519 L 322 510 L 321 505 L 322 504 L 322 496 L 318 495 L 306 495 L 305 496 L 296 494 Z M 83 495 L 77 497 L 81 498 L 84 497 Q 85 494 83 495 Z M 115 495 L 115 496 L 118 496 L 115 495 Z M 210 495 L 211 512 L 211 514 L 210 516 L 212 519 Q 215 517 223 518 L 223 517 Q 220 518 221 515 L 225 512 Q 226 515 223 514 Q 222 517 226 516 L 226 518 L 232 518 L 233 515 L 233 495 L 227 496 Q 216 497 210 495 Z M 8 496 L 7 499 L 8 501 L 7 506 L 7 508 L 9 510 L 20 510 L 21 509 Q 23 510 22 507 L 24 503 L 24 507 L 26 508 L 24 509 L 29 509 Q 30 506 28 507 L 25 504 L 27 503 L 26 502 Q 25 499 28 500 L 29 502 L 33 500 L 34 501 L 34 499 L 30 499 L 30 498 L 28 496 Q 24 497 25 502 L 24 501 L 23 501 Q 19 500 21 506 L 20 506 Q 19 499 23 498 L 15 496 L 12 497 L 8 496 Z M 39 496 Q 38 499 42 498 L 43 498 L 41 501 L 42 504 L 40 505 L 40 500 Q 37 500 38 497 Q 33 495 34 499 L 37 498 L 39 502 L 38 505 L 35 504 L 36 507 L 32 505 L 33 507 L 32 509 L 35 509 L 37 509 L 37 508 Q 38 505 42 506 L 45 503 L 44 500 L 45 500 Q 44 502 47 501 L 49 501 L 49 504 Q 46 505 47 503 L 46 503 Q 47 505 44 504 Q 43 508 49 506 L 51 506 L 49 499 L 48 499 Q 46 495 39 496 Z M 53 496 L 51 498 L 52 503 L 54 502 Q 53 498 57 500 L 57 498 L 61 497 L 53 496 Z M 74 496 L 74 497 L 76 497 L 74 496 Z M 332 496 Q 330 498 326 497 L 324 499 L 324 516 L 323 517 L 325 520 L 329 519 L 333 520 L 334 521 Q 335 514 331 513 L 334 511 Q 336 504 332 503 L 334 500 Q 336 495 332 496 Z M 195 498 L 193 501 L 197 499 L 198 500 Q 199 496 195 498 Z M 255 499 L 252 502 L 254 502 Q 255 499 257 503 L 257 500 L 255 499 Z M 307 499 L 305 501 L 306 503 L 307 501 L 307 499 Z M 36 500 L 34 502 Q 33 505 38 503 L 36 500 Z M 248 500 Q 246 503 249 502 L 248 500 Z M 312 500 L 310 502 L 312 502 Q 313 504 314 502 L 312 500 Z M 31 502 Q 28 503 29 507 L 30 507 Q 29 503 32 504 Q 33 501 31 502 Z M 317 502 L 318 504 Q 319 501 317 502 Z M 185 504 L 184 508 L 185 508 L 185 504 Z M 96 505 L 95 508 Q 100 510 99 506 L 97 507 L 96 505 Z M 185 509 L 183 539 L 182 540 L 185 541 L 185 509 Z M 106 510 L 103 512 L 105 514 Q 109 512 106 510 Z M 123 510 L 119 512 L 121 512 L 121 514 Q 118 513 119 516 Q 117 520 116 517 Q 113 518 114 515 L 109 515 L 109 513 L 110 511 L 107 513 L 108 516 L 108 518 L 112 519 L 113 521 L 113 520 L 116 519 L 117 521 L 117 519 L 122 520 L 126 518 L 127 522 L 129 522 L 126 517 L 131 515 Q 130 512 129 514 Q 125 515 126 512 L 131 512 L 129 511 L 127 511 L 123 510 Z M 305 510 L 305 515 L 307 515 L 305 510 Z M 13 511 L 8 512 L 9 518 L 8 521 L 16 522 L 15 520 L 16 518 L 19 519 Q 21 520 20 524 L 23 526 L 23 523 Q 20 524 21 521 Q 26 520 24 524 L 27 523 Q 29 524 28 521 L 30 521 L 31 514 L 32 514 L 31 516 L 33 516 L 34 514 L 36 515 L 37 516 Q 39 510 36 511 L 36 513 L 33 512 Q 27 510 29 516 L 29 518 L 27 518 L 27 522 Q 21 519 27 517 L 26 514 L 24 515 L 25 517 L 22 519 L 22 518 L 21 517 L 18 518 L 15 516 L 15 514 L 19 514 L 20 516 L 20 515 L 22 515 L 24 514 L 24 512 L 16 512 Q 14 515 13 511 Z M 27 511 L 27 513 L 29 512 L 27 511 Z M 98 511 L 98 513 L 101 514 L 100 513 Q 101 510 98 511 Z M 111 511 L 111 513 L 115 514 L 114 513 Q 115 510 111 511 Z M 116 511 L 116 512 L 118 512 L 116 511 Z M 198 511 L 198 513 L 200 512 L 198 511 Z M 74 512 L 75 514 Q 76 511 74 512 Z M 300 512 L 297 514 L 295 513 L 293 513 L 293 518 L 299 518 L 299 517 Q 296 515 300 514 L 300 512 Z M 66 513 L 66 515 L 68 516 L 65 518 L 68 518 L 69 515 L 66 513 Z M 78 514 L 77 515 Q 74 514 75 517 L 79 518 L 80 516 L 78 517 L 78 516 L 78 514 Z M 86 514 L 86 515 L 89 515 L 86 514 Z M 94 514 L 94 515 L 96 515 L 94 514 Z M 102 514 L 103 517 L 102 518 L 106 520 L 106 517 L 102 514 Z M 247 514 L 248 516 Q 249 513 247 514 Z M 303 514 L 301 518 L 306 518 L 303 514 Z M 135 515 L 133 519 L 134 521 L 134 535 L 135 536 L 134 540 L 135 548 Q 134 544 137 543 L 137 536 L 140 536 L 139 535 L 135 534 Q 134 527 137 528 L 136 530 L 137 533 L 141 526 L 136 527 L 138 521 L 137 520 L 135 521 L 136 518 L 135 515 Z M 253 515 L 251 517 L 248 516 L 248 518 L 254 518 Q 255 514 253 515 Z M 35 516 Q 35 519 33 518 L 33 519 Q 35 518 34 521 L 34 522 L 36 521 L 35 516 Z M 45 516 L 42 518 L 45 518 L 45 516 Z M 47 516 L 47 517 L 50 517 L 47 516 Z M 52 516 L 52 517 L 54 517 L 52 516 Z M 61 516 L 61 517 L 63 517 L 61 516 Z M 256 516 L 257 518 Q 258 515 256 516 Z M 99 517 L 98 518 L 87 519 L 99 519 L 99 517 Z M 129 517 L 130 519 L 131 519 L 129 517 Z M 139 517 L 136 519 L 139 520 L 141 519 L 139 517 Z M 83 518 L 81 520 Q 82 523 78 521 L 72 528 L 75 526 L 73 529 L 74 531 L 76 532 L 75 529 Q 79 527 78 522 L 81 524 Q 82 527 78 525 L 78 527 L 82 528 L 82 525 L 85 527 L 84 530 L 83 529 L 81 530 Q 82 532 79 531 L 79 529 L 77 531 L 77 536 Q 74 537 75 541 L 72 543 L 75 543 L 77 540 L 83 542 L 81 540 Q 80 537 83 538 L 87 532 L 86 525 Q 88 523 86 522 L 84 523 L 83 518 Z M 145 518 L 145 519 L 153 519 L 145 518 Z M 204 519 L 203 520 L 193 520 L 192 521 L 188 520 L 188 540 L 189 541 L 190 542 L 197 542 Q 199 541 198 537 L 198 535 L 194 533 L 195 528 L 192 526 L 193 523 L 195 522 L 194 525 L 196 525 L 198 529 Q 194 530 198 532 L 200 531 L 199 529 L 200 525 L 199 523 L 202 521 L 201 528 L 202 531 L 201 533 Q 198 532 199 535 L 200 538 L 200 541 L 207 541 L 208 535 L 208 520 L 207 520 L 204 519 Z M 223 519 L 222 520 L 212 520 L 210 522 Q 208 528 211 530 L 210 531 L 210 537 L 216 536 L 219 541 L 223 540 L 215 534 L 212 530 L 214 524 L 221 522 L 225 522 L 230 527 L 229 533 L 224 536 L 224 537 L 227 536 L 230 537 L 231 534 L 231 525 L 232 524 Q 233 519 231 520 L 228 519 L 225 520 L 223 519 Z M 258 519 L 257 520 L 236 520 L 234 522 L 233 538 L 233 539 L 251 539 L 252 538 L 260 538 L 261 533 L 261 522 L 260 521 Q 261 518 258 519 Z M 263 519 L 264 533 L 267 531 L 269 531 L 267 528 L 267 526 L 272 521 L 272 519 L 263 519 Z M 300 519 L 293 520 L 292 526 L 292 538 Q 297 540 296 536 Q 299 535 298 539 L 300 539 Q 299 534 302 533 Q 304 534 302 536 Q 301 539 304 540 L 310 536 L 310 539 L 318 540 L 320 522 L 317 519 L 303 519 L 302 520 L 300 519 Z M 53 520 L 52 522 L 55 522 L 53 520 Z M 123 520 L 122 523 L 122 524 L 126 523 L 126 521 L 123 522 L 123 520 Z M 176 520 L 175 521 L 162 522 L 160 524 Q 161 528 159 530 L 160 536 Q 158 537 161 538 L 171 536 L 179 537 L 179 540 L 171 538 L 170 539 L 162 539 L 159 545 Q 158 547 162 546 L 162 548 L 158 550 L 159 552 L 161 551 Q 164 553 161 554 L 157 553 Q 155 558 161 556 L 163 556 L 166 555 L 174 558 L 175 554 L 172 553 L 175 552 L 175 548 Q 172 549 173 546 Q 172 543 168 544 L 168 546 L 166 543 L 169 542 L 175 544 L 176 547 L 179 546 L 180 545 Q 179 539 181 538 L 181 523 L 182 522 Q 183 519 176 520 Z M 287 520 L 288 524 Q 289 530 287 532 L 275 535 L 275 536 Q 281 538 283 535 Q 287 534 288 537 Q 287 539 286 537 L 281 538 L 279 537 L 276 538 L 272 536 L 269 538 L 264 535 L 263 539 L 268 540 L 285 540 L 286 539 L 289 540 L 290 536 L 289 532 L 290 527 L 290 520 L 287 520 Z M 38 521 L 38 522 L 40 522 L 38 521 Z M 94 521 L 93 522 Q 87 520 89 527 L 100 531 L 102 530 Q 104 531 103 529 L 102 529 L 95 525 L 94 527 L 90 524 L 102 523 L 103 524 Q 104 521 102 522 L 100 522 Q 95 523 94 521 Z M 108 521 Q 106 524 109 523 L 108 521 Z M 145 521 L 145 523 L 150 523 L 150 522 L 149 522 L 145 521 Z M 324 521 L 322 523 L 321 541 L 327 542 L 332 542 L 331 539 L 330 539 L 330 540 L 326 540 L 327 538 L 324 536 L 325 534 L 323 531 L 324 528 L 328 525 L 334 524 Q 335 521 332 522 L 330 522 L 324 521 Z M 63 522 L 62 524 L 69 524 L 63 522 Z M 131 522 L 129 525 L 131 525 L 131 522 Z M 275 522 L 272 523 L 273 525 L 275 524 L 275 522 Z M 281 522 L 279 524 L 281 525 L 281 522 Z M 9 523 L 7 525 L 9 532 L 12 526 Q 17 528 16 525 L 15 525 Q 14 522 9 523 Z M 51 523 L 52 526 L 54 525 L 51 523 Z M 60 523 L 58 525 L 60 527 L 60 526 Q 62 524 60 523 Z M 120 523 L 118 525 Q 117 527 120 526 Q 123 525 120 523 Z M 69 524 Q 68 527 71 526 Q 72 523 69 524 Z M 107 524 L 106 526 L 108 525 L 107 524 Z M 221 524 L 221 526 Q 223 524 225 527 L 225 526 L 221 524 Z M 31 525 L 31 526 L 33 526 L 31 525 Z M 125 525 L 123 527 L 125 527 L 125 525 Z M 153 525 L 151 527 L 154 527 L 153 525 Z M 69 526 L 67 528 L 69 528 L 69 526 Z M 17 527 L 18 531 L 19 528 L 17 527 Z M 43 527 L 40 528 L 40 529 L 45 529 L 43 527 Z M 56 527 L 56 531 L 53 532 L 57 532 Q 58 528 56 527 Z M 114 527 L 114 528 Q 118 527 119 530 L 119 531 L 115 531 L 115 533 L 117 532 Q 121 531 119 535 L 115 536 L 121 536 L 120 529 Q 119 526 114 527 Z M 123 527 L 122 529 L 130 529 L 123 527 Z M 13 528 L 14 534 Q 13 530 16 529 L 13 528 Z M 32 528 L 30 530 L 33 530 Q 34 527 32 528 Z M 36 528 L 36 529 L 38 529 L 36 528 Z M 61 528 L 61 531 L 63 530 Q 65 531 64 529 L 63 529 L 61 528 Z M 105 528 Q 103 530 109 529 L 110 530 Q 111 527 105 528 Z M 157 528 Q 155 531 150 530 L 149 535 L 146 536 L 146 535 Q 145 531 149 532 L 148 531 L 148 529 L 144 529 L 143 538 L 146 539 L 144 543 L 145 546 L 145 547 Q 147 548 146 545 L 149 545 L 149 544 L 150 544 Q 150 550 147 553 Q 148 556 144 554 L 146 560 L 144 561 L 142 558 L 141 558 L 142 562 L 140 563 Q 137 562 138 565 L 136 565 L 141 561 L 139 560 L 141 557 Q 143 550 140 549 L 141 540 L 141 537 Q 138 536 139 539 L 139 541 L 138 544 L 140 544 L 138 549 L 137 544 L 135 551 L 135 553 L 134 555 L 135 558 Q 134 560 131 559 L 131 561 Q 129 557 124 558 L 123 561 Q 124 563 121 562 Q 120 559 123 560 L 122 558 L 120 559 L 117 558 L 114 560 L 116 560 L 116 561 Q 113 560 114 563 L 113 563 L 113 559 L 108 559 L 108 561 L 107 559 L 100 560 L 98 560 Q 91 562 90 559 L 88 560 L 86 563 L 85 562 L 87 559 Q 83 558 84 561 L 83 560 L 80 562 L 79 559 Q 75 558 74 561 L 76 564 Q 78 563 77 566 L 76 565 L 74 566 L 71 565 L 71 564 L 72 564 L 72 559 L 64 560 L 64 563 L 63 560 L 60 561 L 60 563 Q 56 562 57 566 L 56 566 Q 57 563 55 564 L 53 565 L 53 562 Q 56 563 55 560 L 50 561 L 48 561 L 46 560 L 44 561 L 40 561 Q 42 565 38 564 L 38 563 Q 40 564 39 561 L 31 562 L 32 565 L 33 566 Q 30 567 31 564 L 30 564 L 26 563 L 26 564 Q 29 563 28 566 L 26 565 Q 23 566 24 564 L 26 561 L 24 562 Q 21 561 22 564 L 19 564 L 17 565 L 18 563 L 16 561 L 14 562 L 7 561 Q 9 564 8 570 L 16 570 L 17 569 L 20 570 L 27 569 L 29 569 L 41 569 L 42 570 L 46 569 Q 50 568 52 570 L 53 569 L 75 569 L 76 568 L 79 569 L 82 568 L 84 569 L 86 568 Q 95 567 101 569 L 103 569 L 113 568 L 115 568 L 118 569 L 120 568 L 147 568 L 153 559 L 157 543 L 156 541 L 157 539 L 157 528 Z M 71 530 L 68 532 L 72 532 L 71 530 Z M 104 531 L 107 535 Q 106 537 109 536 L 109 539 L 110 539 L 110 535 Q 107 536 108 534 L 110 534 L 110 532 L 107 532 L 104 531 Z M 124 531 L 124 534 L 126 533 Q 127 530 124 531 Z M 141 531 L 140 535 L 141 535 L 141 531 Z M 73 532 L 71 534 L 63 534 L 62 533 L 59 535 L 63 536 L 64 535 L 73 535 Q 76 534 73 532 Z M 129 532 L 130 533 L 131 534 Q 132 531 129 532 Z M 88 533 L 88 537 Q 89 539 86 538 L 86 535 L 85 538 L 85 539 Q 89 537 88 541 L 92 543 L 92 541 Q 95 540 94 544 L 98 545 L 99 547 L 100 543 L 98 544 L 98 543 L 97 542 L 95 543 L 96 540 Q 94 536 89 537 L 88 533 Z M 57 534 L 56 536 L 59 536 L 57 534 Z M 8 535 Q 6 538 9 537 Q 11 538 10 542 L 13 540 L 18 543 L 19 541 L 19 543 Q 22 544 21 542 L 22 542 L 21 544 L 24 544 L 26 544 Q 29 545 28 543 L 30 543 L 32 540 L 24 542 L 24 541 Q 23 538 27 539 L 27 537 L 27 535 L 25 538 Q 21 537 20 540 L 19 537 Q 16 536 17 539 L 16 539 L 17 537 L 12 535 L 10 536 L 8 535 Z M 29 535 Q 30 538 28 537 L 28 538 Q 32 539 33 537 L 33 535 L 29 535 Z M 34 535 Q 33 538 36 537 Q 37 534 34 535 Z M 43 535 L 43 536 L 51 536 L 43 535 Z M 53 535 L 52 537 L 55 536 L 53 535 Z M 95 535 L 95 536 L 97 536 L 95 535 Z M 131 535 L 128 537 Q 130 540 131 537 L 131 535 Z M 125 536 L 125 537 L 127 537 L 125 536 Z M 39 537 L 37 539 L 40 539 Q 41 536 39 537 Z M 65 538 L 65 540 L 69 539 L 65 538 Z M 70 538 L 68 542 L 65 543 L 68 543 L 69 548 L 71 549 L 69 545 L 72 539 L 70 538 Z M 97 538 L 97 539 L 100 539 L 97 538 Z M 102 538 L 102 539 L 107 539 L 102 538 Z M 113 538 L 114 542 L 114 539 L 118 539 L 113 538 Z M 214 538 L 210 541 L 214 541 L 216 541 L 217 541 L 214 538 Z M 227 538 L 227 540 L 232 540 Q 231 537 227 538 Z M 35 539 L 35 540 L 37 540 L 35 539 Z M 43 539 Q 42 542 45 541 Q 46 538 43 539 Z M 52 539 L 52 540 L 54 540 L 52 539 Z M 260 539 L 251 541 Q 247 540 248 543 L 252 542 L 254 543 Q 257 545 256 551 L 251 553 L 253 557 L 256 555 L 257 552 L 258 555 L 256 556 L 259 557 L 260 555 L 260 543 L 261 542 L 260 539 Z M 120 540 Q 120 543 118 542 L 119 545 L 118 546 Q 113 547 114 545 L 111 547 Q 112 549 114 547 L 117 548 Q 118 551 120 550 L 119 553 L 117 552 L 117 554 Q 116 556 119 555 L 120 556 Q 119 551 122 552 Q 121 549 124 548 L 124 546 L 122 547 Q 119 545 120 540 Z M 292 540 Q 295 543 295 550 L 295 552 L 296 554 L 296 563 L 315 563 L 314 562 L 315 560 L 317 563 L 318 562 L 318 544 L 315 541 L 299 541 L 298 540 L 296 541 L 292 540 Z M 64 541 L 62 543 Q 61 545 64 544 L 64 541 Z M 233 541 L 233 555 L 234 556 Q 232 562 240 559 L 242 559 L 244 560 L 247 559 L 249 556 L 247 557 L 244 555 L 242 556 L 236 555 L 235 552 L 238 548 Q 240 549 239 547 L 245 542 L 233 541 Z M 274 541 L 273 542 L 263 542 L 263 548 Q 259 550 263 552 L 262 557 L 263 560 L 270 559 L 272 561 L 283 561 L 284 562 L 287 559 Q 289 558 288 562 L 293 562 L 293 549 L 291 544 L 289 545 Q 286 544 287 547 Q 286 550 284 547 Q 283 543 287 545 L 288 541 L 285 542 Q 277 544 274 541 Z M 12 542 L 15 551 L 16 548 L 21 547 L 19 551 Q 22 550 21 554 L 19 552 Q 16 553 17 551 L 15 552 L 18 555 L 25 554 L 27 550 L 23 552 L 24 549 L 19 545 L 16 547 L 17 545 L 12 542 Z M 42 542 Q 40 544 36 543 L 36 544 Q 42 542 40 548 L 49 544 L 55 544 L 46 543 L 43 545 Q 44 541 42 542 Z M 58 542 Q 55 544 58 545 L 60 544 L 58 542 Z M 186 542 Q 181 543 182 550 L 185 548 L 186 551 L 187 545 L 186 542 Z M 207 542 L 206 543 L 189 544 L 183 565 L 192 565 L 186 562 L 188 559 L 192 562 Q 191 564 194 563 L 195 558 L 190 555 L 191 549 L 195 546 L 201 545 L 205 551 L 204 554 L 200 557 L 198 560 Q 203 561 205 556 L 207 556 L 207 548 L 208 547 Q 210 541 207 542 Z M 229 542 L 228 543 L 211 543 L 210 546 L 210 552 L 215 559 L 217 555 Q 215 550 219 551 Q 221 552 219 554 Q 218 557 221 556 Q 222 559 218 558 L 218 556 L 217 560 L 224 559 Q 225 556 222 557 L 222 554 Q 225 555 224 552 Q 227 551 226 554 L 231 552 L 230 550 L 230 543 L 229 542 Z M 246 543 L 243 546 L 245 546 L 247 546 L 246 543 Z M 321 543 L 321 555 L 321 557 L 322 562 L 325 563 Q 328 564 326 560 L 329 560 L 330 563 L 333 558 L 332 557 Q 330 553 329 556 Q 325 555 327 559 L 324 558 L 328 553 Q 330 554 329 552 L 332 550 Q 333 554 330 553 L 331 555 L 333 554 L 334 555 Q 335 550 332 549 L 334 545 L 321 543 Z M 104 544 L 100 547 L 100 548 L 104 548 L 105 546 Q 106 543 104 544 Z M 250 544 Q 249 547 252 546 L 253 548 Q 255 547 253 546 Q 254 542 250 544 Z M 36 546 L 32 549 Q 28 548 29 551 L 38 548 Q 39 545 36 546 Z M 51 546 Q 49 549 48 547 L 45 548 L 45 549 Q 47 548 46 551 L 52 556 L 55 556 L 56 553 Q 55 550 58 551 L 58 550 L 55 551 L 50 549 L 52 548 Q 53 545 51 546 Z M 94 546 L 92 548 L 95 548 L 94 546 Z M 107 548 L 103 550 L 105 550 L 108 553 Q 107 549 110 550 Q 111 547 109 548 L 107 548 Z M 179 548 L 177 550 Q 176 553 179 552 L 179 548 Z M 10 549 L 9 551 L 12 551 L 10 549 Z M 146 549 L 145 552 L 147 552 L 148 550 L 146 549 Z M 238 549 L 239 553 L 240 551 Q 241 548 238 549 Z M 36 550 L 35 552 L 33 553 L 35 553 L 37 556 L 39 555 L 40 559 L 44 558 L 45 555 L 44 553 L 41 551 L 43 556 L 40 556 Q 41 553 39 554 L 36 550 Z M 74 550 L 73 555 L 74 555 L 74 550 Z M 80 550 L 80 553 L 81 553 Q 82 549 80 550 Z M 84 550 Q 84 553 86 552 Q 85 555 88 554 L 87 553 L 90 551 L 84 550 Z M 111 550 L 110 554 L 113 555 Q 117 556 116 554 L 115 554 L 111 552 L 111 550 Z M 113 550 Q 112 553 116 552 Q 117 549 113 550 Z M 27 551 L 28 555 L 27 557 L 25 557 Q 24 560 28 559 Q 30 558 29 554 L 29 552 L 27 551 Z M 59 551 L 56 554 Q 55 556 58 555 L 59 553 L 59 551 Z M 61 551 L 61 557 L 63 557 L 62 556 L 63 552 L 61 551 Z M 92 551 L 93 552 Q 94 556 91 555 L 91 552 L 89 556 L 95 557 Q 98 558 97 555 L 96 555 L 95 554 L 95 552 L 92 551 Z M 98 551 L 98 554 Q 97 556 100 555 L 98 551 Z M 182 551 L 184 555 L 185 552 L 184 552 L 182 551 Z M 125 552 L 122 556 L 125 556 L 126 553 L 125 552 Z M 129 552 L 127 554 Q 126 557 129 556 L 130 554 Q 131 551 129 552 Z M 32 553 L 32 557 L 30 558 L 30 559 L 35 558 L 33 556 Q 34 552 32 553 Z M 102 553 L 104 556 Q 106 557 105 555 L 102 553 Z M 82 554 L 82 556 L 86 556 L 86 555 L 85 555 L 82 554 Z M 225 554 L 224 557 Q 228 556 227 559 L 231 559 Q 232 555 230 554 L 225 556 L 225 554 Z M 245 554 L 245 555 L 248 555 L 245 554 Z M 8 555 L 7 559 L 12 557 Q 14 556 13 559 Q 17 560 18 558 L 13 555 L 11 556 L 8 555 Z M 47 555 L 46 558 L 48 558 L 47 555 Z M 102 555 L 99 557 L 102 557 L 102 555 Z M 166 557 L 155 559 L 154 563 L 155 565 L 155 564 L 158 561 L 162 560 L 168 561 L 171 567 L 172 565 L 171 562 L 173 562 L 166 557 Z M 181 557 L 178 561 L 180 560 L 183 561 Q 185 556 181 557 Z M 19 558 L 19 559 L 23 559 L 19 558 Z M 250 559 L 250 566 L 249 561 L 246 562 Q 241 563 240 561 Q 232 560 228 563 L 225 562 L 223 562 L 220 564 L 223 565 Q 222 567 221 565 L 218 566 L 215 565 L 213 566 Q 210 567 211 564 L 216 564 L 209 560 L 209 562 L 208 560 Q 205 559 206 562 L 205 561 L 202 565 L 203 567 L 202 566 L 201 568 L 224 568 L 225 567 L 230 568 L 232 568 L 248 568 L 249 567 L 252 568 L 255 567 L 255 565 Q 257 568 263 568 L 265 568 L 267 567 Q 272 566 274 568 L 280 567 L 282 567 L 286 568 L 289 567 L 309 567 L 303 565 L 301 566 L 293 564 L 287 564 L 284 563 L 282 564 L 265 562 L 259 559 Q 254 558 253 560 L 250 559 Z M 20 560 L 19 563 L 20 563 L 20 560 Z M 56 560 L 57 562 L 59 561 L 56 560 Z M 334 561 L 332 563 L 334 563 L 334 561 Z M 219 562 L 217 564 L 219 564 L 219 562 Z M 179 563 L 179 567 L 181 566 Q 182 562 179 563 Z M 196 563 L 196 565 L 198 564 L 196 563 Z M 175 564 L 175 570 L 178 571 L 179 569 L 178 566 L 175 564 Z M 319 564 L 312 566 L 312 567 L 333 567 L 333 565 L 319 564 Z M 186 567 Q 183 569 186 570 L 189 568 Q 191 569 189 571 L 192 571 L 193 569 L 193 567 L 186 567 Z M 150 568 L 146 573 Q 145 576 149 575 L 150 576 Q 151 573 148 574 L 150 570 L 153 572 Q 156 571 154 575 L 156 575 Q 157 571 153 570 Q 154 567 152 568 L 150 568 Z M 308 568 L 307 569 L 262 569 L 260 569 L 256 570 L 253 569 L 252 570 L 206 570 L 204 570 L 195 571 L 190 575 L 183 577 L 181 576 L 166 577 L 165 578 L 160 577 L 152 577 L 151 578 L 142 576 L 144 570 L 123 570 L 122 571 L 91 571 L 90 570 L 88 571 L 61 571 L 59 571 Q 53 570 52 572 Q 45 574 44 571 L 42 572 L 39 571 L 33 572 L 31 572 Q 24 574 23 571 L 20 572 L 7 572 L 7 578 L 8 581 Q 9 585 7 587 L 8 592 L 12 593 Q 16 594 18 592 Q 19 594 24 593 L 27 592 Q 33 590 35 593 L 37 592 L 92 592 L 93 591 L 95 592 Q 99 593 101 591 L 103 592 L 104 591 L 162 591 L 163 590 L 165 591 L 176 590 L 179 591 L 181 590 L 183 590 L 192 590 L 193 591 L 194 590 L 245 590 L 247 590 L 252 589 L 262 590 L 270 590 L 278 589 L 281 590 L 285 589 L 287 589 L 291 590 L 299 589 L 301 589 L 302 590 L 333 590 L 334 588 L 334 569 L 328 569 L 327 568 L 325 569 L 314 568 L 312 568 L 310 569 L 308 568 Z M 182 569 L 183 573 Q 186 571 182 569 Z M 172 571 L 174 573 L 175 573 L 172 571 Z M 187 571 L 187 573 L 189 572 L 187 571 Z M 164 573 Q 161 575 164 576 L 165 574 L 164 573 Z "></path><path d="M 166.5 16 Q 167.8 18.2 172.5 17 L 175 19.5 L 178 25.5 L 173 33 L 167 35 L 166 32.5 L 166.5 16 Z "></path><path d="M 178.5 28 L 183 31.5 L 184 33.5 Q 183.3 35.8 179.5 35 L 177.5 34 L 175 35 L 178.5 28 Z "></path><path d="M 203.5 292 L 203.5 295 Q 201.3 295.8 202 293.5 L 203.5 292 Z "></path><path d="M 209 294 L 212 294.5 L 210 295.5 L 211 300.5 L 210 302.5 L 212 301.5 Q 211.3 298.9 214 300 L 214 296.5 L 216 297.5 L 212 304 Q 208.3 302.5 209 305.5 L 208 305.5 Q 206.8 300.8 209 299.5 L 209 297.5 L 209 294 Z "></path><path d="M 218.5 294 Q 221.2 295.3 219 296.5 L 217 306.5 L 217.5 308 Q 215.3 307.3 216 303.5 L 219 295.5 L 218.5 294 Z "></path><path d="M 205.5 295 L 206 297 Q 203 295.8 204 299.5 L 203 299.5 Q 201.5 295.1 204.5 296 L 205.5 295 Z "></path><path d="M 191.5 298 L 194 299 L 196 304.5 L 193 302.5 L 191.5 298 Z "></path><path d="M 200.5 298 L 202 300.5 L 200 299.5 L 200.5 298 Z "></path><path d="M 224 300 Q 226.7 298.9 226 301.5 L 227.5 304 Q 224.9 304.7 226 302 L 224 302 L 224 300 Z "></path><path d="M 180.5 302 Q 182.8 301.3 182 303.5 L 172 315.5 Q 171.6 324.1 168 329.5 L 168 333.5 L 166 336.5 L 166 341.5 L 163 352.5 L 164 356.5 L 162 360.5 L 162 368.5 L 163 369.5 L 162 371.5 L 162 373.5 L 162 383.5 L 160 391.5 L 160 405.5 L 159 406.5 L 160 407.5 L 160 429.5 L 165 439.5 L 162 440 L 158 432.5 L 157 427.5 L 157 397.5 L 158 396.5 L 160 369.5 Q 157.8 368.3 159 363.5 L 160 360 L 162 359.5 Q 159.3 357.8 161 351.5 L 166 327.5 L 168 324.5 L 169 315.5 L 178.5 303 L 180.5 302 Z M 175 395 L 174 399 L 175 399 L 175 395 Z M 175 400 L 174 404 L 175 404 L 175 400 Z M 176 404 L 175 409 L 176 409 L 176 404 Z "></path><path d="M 230.5 304 L 233 309.5 L 232 309.5 Q 233 305.8 230 307 L 230.5 304 Z "></path><path d="M 192.5 307 Q 195.1 306.3 194 309 L 188.5 310 L 189.5 308 L 192.5 307 Z "></path><path d="M 236.5 310 L 237 312 L 235 311.5 L 236.5 310 Z "></path><path d="M 176.5 316 Q 179.8 314.9 179 317.5 L 173 329.5 L 168.5 349 L 167 345.5 L 170 331.5 Q 173.5 327 174 319.5 L 176.5 316 Z "></path><path d="M 225.5 322 L 226 323.5 L 224.5 326 L 224 324.5 L 225.5 322 Z "></path><path d="M 164.5 323 Q 167.1 322.2 166 325.5 L 162.5 331 Q 159.9 331.8 161 328.5 L 164.5 323 Z "></path><path d="M 222.5 326 L 224 329.5 L 222.5 334 L 222 329.5 L 223 327.5 L 222.5 326 Z "></path><path d="M 225.5 329 L 226 331.5 L 225 331.5 L 225.5 329 Z "></path><path d="M 194.5 334 L 195.5 336 L 193 335.5 L 194.5 334 Z "></path><path d="M 190.5 338 L 191 341.5 L 190 345 Q 187 346.3 188 342.5 L 190.5 338 Z "></path><path d="M 218.5 339 L 219 341.5 L 218 341.5 L 218.5 339 Z "></path><path d="M 225.5 339 L 225 340.5 L 226 342.5 L 224 343 L 225.5 339 Z "></path><path d="M 224.5 344 L 225 346.5 L 223.5 349 L 223 347.5 L 224.5 344 Z "></path><path d="M 166.5 356 L 168 356.5 L 168 363.5 Q 164.5 367.5 166 376.5 L 167 377.5 L 167 397.5 L 170 407.5 Q 168.5 410.5 167 407.5 L 165 399.5 L 165 376.5 Q 162.2 374.8 164 368.5 L 166 358.5 Q 163.8 357.3 166.5 356 Z "></path><path d="M 217.5 357 L 217 358.5 L 216.5 360 L 216 358.5 L 217.5 357 Z "></path><path d="M 197.5 367 Q 199.8 367.8 199 371.5 L 198 374.5 L 199 379.5 L 198 384 Q 193.9 385.7 195 381.5 L 196 380.5 L 196 368.5 L 197.5 367 Z "></path><path d="M 210 407 L 213 408.5 L 213 412 L 211 412 Q 212.5 415.7 209.5 415 L 207.5 411 L 207 413 L 203.5 415 L 202 412 L 207 410.5 L 205.5 408 L 208 408 Q 206.7 412.1 210 411 L 210 407 Z "></path><path d="M 200 408 Q 204.5 406.5 203 411 Q 198.5 412.5 200 408 Z "></path><path d="M 268.5 409 Q 273.9 407.1 273 410.5 L 274 410.5 Q 273.4 407.8 279.5 409 L 283 414.5 L 279.5 419 L 274 419.5 L 275 422 L 267 421 Q 265.9 418.3 268.5 419 L 271 420 Q 272.1 417.3 269.5 418 L 265 415.5 Q 264.3 409.8 268.5 409 Z M 269 410 L 269 412 Q 271 415 272 412 L 269 410 Z M 277 411 Q 276 414 279 413 Q 280 410 277 411 Z "></path><path d="M 169 412 Q 171.7 410.9 171 413.5 L 172 417 Q 169.3 418.1 170 415.5 L 169 412 Z "></path><path d="M 299.5 413 Q 302.1 412.3 301 415 L 298 414.5 L 299.5 413 Z "></path><path d="M 303 413 Q 306 411.8 305 415.5 L 303 414.5 L 303 413 Z "></path><path d="M 307 413 Q 310 412 309 415 Q 306 416 307 413 Z "></path><path d="M 294.5 414 Q 297.1 413.3 296 416 L 292 418.5 L 295 419 Q 294 416 297 417 L 296 421 Q 292.2 422 291 419.5 L 292 417.5 L 291 415 L 294.5 414 Z "></path><path d="M 261 416 L 263 416 L 263 419 Q 266 418 265 421 L 261.5 420 L 260 420.5 L 261 416 Z "></path><path d="M 305 417 Q 308 416 307 419 Q 304 420 305 417 Z "></path><path d="M 302 419 Q 305 418 304 421 L 307 421 L 307 423 L 302 420.5 L 302 419 Z "></path><path d="M 210.5 422 Q 213.5 423.5 210.5 425 Q 207.5 423.5 210.5 422 Z "></path><path d="M 29 424 Q 32 423 31 426 Q 28 427 29 424 Z "></path><path d="M 222 424 Q 226.1 422.7 225 426 Q 220.9 427.3 222 424 Z "></path><path d="M 212.5 425 L 213 429 L 215.5 428 L 217 431 L 212 431 L 212 428.5 L 211 426.5 L 212.5 425 Z "></path><path d="M 220 427 Q 223 426 222 429 L 220 429.5 L 221 431.5 L 218 433 L 218 429 Q 221 430 220 427 Z "></path><path d="M 247.5 427 Q 250.1 426.3 249 429 L 246.5 430 L 246 428.5 L 247.5 427 Z "></path><path d="M 259 427 Q 262.7 425.5 262 428.5 Q 260.5 431.5 259 428.5 L 259 427 Z "></path><path d="M 263 427 Q 266.3 425.9 265 430 Q 261.7 431.1 263 427 Z "></path><path d="M 267.5 427 L 269 429.5 L 269 431.5 Q 269.7 434.5 266 433 L 267 430.5 L 266 428.5 L 267.5 427 Z "></path><path d="M 133.5 428 L 135 429.5 L 135 437.5 L 138 443 L 143 445.5 Q 143.8 447.8 141.5 447 L 135 442.5 Q 131.2 439.3 132 431.5 L 133.5 428 Z "></path><path d="M 271 428 Q 274 427 273 430 Q 270 431 271 428 Z "></path><path d="M 261 431 Q 264 430 263 433 Q 260 434 261 431 Z "></path><path d="M 211 432 Q 214 431 213 434 Q 210 435 211 432 Z "></path><path d="M 60.5 433 L 70.5 433 L 71 434.5 Q 69.8 437.3 68.5 435 L 59 436 L 60.5 433 Z "></path><path d="M 72 434 L 82.5 434 L 83 436 L 72.5 436 L 72 434 Z "></path><path d="M 207 434 L 210 435.5 L 207.5 437 L 207 434 Z "></path><path d="M 265 434 Q 268 433 267 436 Q 264 437 265 434 Z "></path><path d="M 316 434 Q 319 433 318 436 Q 315 437 316 434 Z "></path><path d="M 312.5 435 L 315 435.5 Q 312.9 438.8 312.5 435 Z "></path><path d="M 323.5 435 L 327 437.5 L 326 440 L 324 439.5 L 325 437 L 322 436.5 L 323.5 435 Z "></path><path d="M 319.5 436 L 320 438 L 318 437.5 L 319.5 436 Z "></path><path d="M 310.5 437 L 312 437.5 L 311 439.5 L 312 442 Q 309 443.3 310 439.5 Q 307.8 438.3 310.5 437 Z "></path><path d="M 270 439 Q 273 437.8 272 441.5 L 270 440.5 L 270 439 Z "></path><path d="M 313 440 Q 315.7 438.9 315 441.5 L 313 442.5 L 313 440 Z "></path><path d="M 262.5 446 Q 268.3 445.3 269 449.5 L 270 454.5 L 267.5 458 L 266 458.5 L 268 459 L 268 465 L 255.5 465 L 253.5 462 L 251.5 465 L 249 463.5 L 248.5 460 L 248 462 L 244.5 463 L 243 460.5 L 247 458 L 246 452 L 250 454.5 Q 248.8 458.3 252.5 457 L 251 454.5 L 251 450.5 L 253 447 L 259.5 448 L 262.5 446 Z M 263 448 L 261 451 L 263 450 Q 266 449 265 453 L 267 452 L 266 450 L 263 448 Z M 255 450 L 253 453 L 255 454 L 255 450 Z M 257 456 L 253 458 Q 256 459 255 462 L 258 463 Q 261 464 260 461 L 256 460 L 257 458 L 257 456 Z M 263 459 Q 260 461 263 462 L 266 461 Q 267 458 263 459 Z "></path><path d="M 183.5 448 Q 187.9 446.5 187 449.5 L 188 452.5 L 185 454 L 184.5 450 Q 182 451.2 183 455 Q 185.7 453.9 185 456.5 Q 183.7 459.3 182.5 457 Q 180.3 457.8 181 455.5 Q 183.3 454.3 180.5 453 Q 177.5 452.2 179 456 L 176 456 L 175.5 453 L 173 454.5 Q 175.3 455.8 172.5 457 Q 170.3 457.8 171 455.5 L 172 452.5 L 170 451.5 Q 171.5 456.8 167 455 L 168 451 Q 171 452 170 449 L 173 449 Q 171.9 451.7 174.5 451 L 176.5 450 L 178.5 451 L 183.5 448 Z "></path><path d="M 119 449 Q 124.2 447.3 123 451 Q 117.8 452.7 119 449 Z "></path><path d="M 222 450 L 229.5 453 L 231.5 452 Q 234.8 453.2 234 457 L 230.5 455 L 228.5 458 L 226 457 L 224.5 461 Q 221.9 461.8 223 458.5 L 224 456 L 219 453.5 L 222 451.5 L 222 450 Z M 223 453 L 225 455 L 227 455 L 223 453 Z "></path><path d="M 235 452 Q 238.3 450.7 237 455.5 L 235 454.5 L 235 452 Z "></path><path d="M 284.5 452 Q 286.8 451.3 286 453.5 L 283 455 Q 284.5 458.7 281.5 458 L 278 457 L 279.5 454 L 281 454.5 Q 280.2 451.9 283.5 453 L 284.5 452 Z "></path><path d="M 288.5 452 L 291.5 454 Q 294.5 455.5 291.5 457 Q 288.9 457.8 290 454.5 L 287 453.5 L 288.5 452 Z "></path><path d="M 54 456 L 74 457 Q 75.1 460.5 67.5 459 L 65.5 459 L 56.5 458 L 54 459 L 54 456 Z "></path><path d="M 218 456 L 221 457.5 Q 221.7 460.5 218 459 L 218 456 Z "></path><path d="M 285.5 456 Q 287.8 455.3 287 457.5 Q 289.5 459 288 464.5 L 287 466.5 L 288.5 466 Q 291.8 467.1 291 464.5 L 293 461.5 L 292 458.5 L 294 457.5 L 293 460.5 L 294 464.5 L 293 467 L 286.5 468 L 284 467 Q 283.3 463.9 286 464.5 L 286 459.5 Q 282.3 457.8 285.5 456 Z "></path><path d="M 171.5 458 L 173 461 Q 169.2 462.5 170 459.5 L 171.5 458 Z "></path><path d="M 227 460 L 230 461.5 L 227 463.5 L 227 460 Z "></path><path d="M 9 468 L 11 468.5 L 11 476 L 9 475.5 L 9 468 Z "></path><path d="M 198.5 471 L 200.5 471 Q 203.1 470.2 202 473.5 L 202.5 475 Q 199.9 475.7 201 473 L 197.5 473 L 198.5 471 Z "></path><path d="M 27.5 472 L 26.5 474 L 27.5 472 Z "></path><path d="M 192 472 Q 194.7 470.9 194 473.5 L 192.5 476 L 197.5 474 L 201 476.5 L 201.5 478 Q 202.8 475.8 204 478.5 L 205 482.5 L 203 481.5 L 200.5 478 L 196.5 476 L 192.5 479 L 190 474 Q 193 475 192 472 Z "></path><path d="M 213 473 Q 216 472 215 475 Q 212 476 213 473 Z "></path><path d="M 246.5 475 L 250 475 L 252 479 Q 249 480 250 477 L 246 477 L 244.5 480 L 243 478.5 L 246.5 475 Z "></path><path d="M 255.5 475 Q 258.8 476.8 255 478.5 L 252.5 483 L 252 481.5 L 255.5 475 Z "></path><path d="M 258 475 L 262 476 L 261 484 L 257.5 485 Q 254.5 483.5 257.5 482 L 260 482 L 260 477 Q 257 478 258 475 Z "></path><path d="M 304 475 Q 307 474 306 477 Q 303 478 304 475 Z "></path><path d="M 307 475 Q 310 474 309 477 Q 306 478 307 475 Z "></path><path d="M 311 476 Q 314 475 313 478 Q 310 479 311 476 Z "></path><path d="M 307 478 Q 311.1 476.7 310 480 Q 305.9 481.3 307 478 Z "></path><path d="M 65.5 480 Q 67.8 479.3 67 481.5 L 66.5 483 L 68 483.5 L 65.5 484 L 63 483.5 L 65.5 480 Z "></path><path d="M 71 480 Q 74.3 478.7 73 483.5 L 72 483.5 L 71 480 Z "></path><path d="M 135.5 480 L 138 480.5 L 137 484 L 135 483.5 L 136 481.5 L 135.5 480 Z "></path><path d="M 52.5 481 L 53 483 L 55 483.5 L 52 484 L 52.5 481 Z "></path><path d="M 74.5 481 L 75.5 483 L 77 482.5 Q 77.8 484.8 75.5 484 L 74.5 481 Z "></path><path d="M 100.5 481 L 102 481.5 L 99.5 483 L 100.5 481 Z "></path><path d="M 114.5 481 L 115 483.5 L 114 483.5 L 114.5 481 Z "></path><path d="M 191 481 Q 194 480 193 483 Q 190 484 191 481 Z "></path><path d="M 243 481 Q 246 480 245 483 Q 242 484 243 481 Z "></path><path d="M 246.5 481 L 248 484 Q 244.5 485.1 246.5 481 Z "></path><path d="M 308.5 481 L 312 482.5 L 309 483 L 308.5 487 Q 306.3 486.3 307 482.5 L 308.5 481 Z "></path><path d="M 10.5 482 L 15 488.5 Q 13.5 491.5 12 488.5 L 11.5 487 L 9 488.5 L 11 484.5 L 10.5 482 Z "></path><path d="M 128.5 482 L 132 483.5 L 127.5 484 L 128.5 482 Z "></path><path d="M 315.5 482 L 318 482.5 Q 315.9 485.8 315.5 482 Z "></path><path d="M 56.5 483 L 59 483.5 L 58.5 486 Q 56.3 486.8 57 484.5 L 56.5 483 Z "></path><path d="M 121.5 483 Q 125.3 482.3 126 484.5 L 124.5 484 L 122.5 485 L 121.5 483 Z "></path><path d="M 139.5 483 L 140 486.5 L 139 486.5 L 139.5 483 Z "></path><path d="M 145.5 483 L 144.5 485 L 145.5 483 Z "></path><path d="M 201 483 Q 203.7 481.9 203 484.5 L 198 488 Q 196.9 485.3 199.5 486 L 201 483 Z "></path><path d="M 31.5 484 L 32 486 L 37 485 L 35.5 488 L 31.5 488 L 28 486.5 L 28.5 485 L 31 486 L 31.5 484 Z "></path><path d="M 114 485 Q 117 484 116 487 Q 113 488 114 485 Z "></path><path d="M 252 485 Q 255 484 254 487 Q 251 488 252 485 Z "></path><path d="M 316 485 Q 319 484 318 487 Q 315 488 316 485 Z "></path><path d="M 190.5 486 L 192 486.5 L 189.5 488 L 190.5 486 Z "></path><path d="M 49 487 Q 52 486 51 489 Q 48 490 49 487 Z "></path><path d="M 307 488 L 310 489.5 Q 308.5 492.5 307 489.5 L 307 488 Z "></path><path d="M 178.5 495 L 180 498 L 177 496.5 L 178.5 495 Z "></path><path d="M 129.5 496 L 129 497.5 L 129.5 500 L 132 498.5 L 132 501 Q 129.3 499.9 130 502.5 L 129 502.5 L 128 497.5 L 129.5 496 Z "></path><path d="M 54.5 497 L 55.5 499 L 54.5 497 Z "></path><path d="M 149 497 Q 152 496 151 499 Q 148 500 149 497 Z "></path><path d="M 17 498 Q 20.7 496.6 19 502.5 L 17 503.5 L 17 498 Z "></path><path d="M 136.5 498 L 136 499.5 L 135.5 501 L 135 499.5 L 136.5 498 Z "></path><path d="M 111.5 499 L 113 502 L 111 502 Q 112.1 504.7 109.5 504 L 110 502.5 L 111.5 499 Z "></path><path d="M 124.5 499 L 126 502 L 122.5 503 L 121 500.5 Q 122.8 502.1 124.5 499 Z "></path><path d="M 171.5 499 Q 175.9 497.5 175 500.5 L 176 504 Q 171.9 505.7 173 501.5 L 171.5 499 Z "></path><path d="M 327.5 499 L 329 501.5 L 326 503 L 327.5 499 Z "></path><path d="M 67.5 500 L 68.5 502 L 69.5 500 L 71 502.5 L 66.5 505 L 66 503.5 L 67.5 500 Z "></path><path d="M 105 500 Q 108.3 498.9 107 503 Q 103.7 504.1 105 500 Z "></path><path d="M 145.5 500 Q 147.8 499.3 147 501.5 L 145.5 500 Z "></path><path d="M 223.5 500 L 224 502.5 L 222 501.5 L 223.5 500 Z "></path><path d="M 72 501 Q 75 500 74 503 Q 71 504 72 501 Z "></path><path d="M 155.5 501 L 157 507.5 L 155 512.5 L 155.5 514 Q 152.8 512.8 155 511.5 L 155.5 501 Z "></path><path d="M 226 501 Q 229 500 228 503 Q 225 504 226 501 Z "></path><path d="M 78.5 502 Q 80.8 501.3 80 503.5 L 82 504.5 Q 81.3 502.3 83.5 503 L 82 505.5 L 81.5 507 L 78.5 502 Z "></path><path d="M 178 502 Q 181 500.8 180 504.5 L 178 503.5 L 178 502 Z "></path><path d="M 215 502 L 218 502.5 L 215 504 L 215 502 Z "></path><path d="M 85 503 Q 89.1 501.7 88 505 Q 83.9 506.3 85 503 Z "></path><path d="M 89.5 503 L 91.5 503 Q 93.8 502.3 93 504.5 L 90.5 505 Q 87.7 505.7 89.5 503 Z "></path><path d="M 125.5 503 L 124.5 505 L 125.5 503 Z "></path><path d="M 134.5 503 L 137 507 Q 140 505.8 139 509.5 L 137 508.5 L 135.5 505 L 134 505.5 L 134.5 503 Z "></path><path d="M 239.5 504 L 242 505.5 L 240.5 508 L 238 507 L 239.5 504 Z "></path><path d="M 280 504 Q 283 503 282 506 Q 279 507 280 504 Z "></path><path d="M 213.5 505 Q 216.5 506.5 213.5 508 Q 210.5 506.5 213.5 505 Z "></path><path d="M 219 505 Q 222 504 221 507 Q 218 508 219 505 Z "></path><path d="M 268.5 505 L 273 506 L 271.5 509 L 268 508 L 269 514 Q 264.9 515.7 266 511.5 L 265 509.5 L 268.5 505 Z "></path><path d="M 75.5 506 L 78 506.5 L 75.5 507 L 75.5 506 Z "></path><path d="M 228 506 Q 231 505 230 508 Q 227 509 228 506 Z "></path><path d="M 276 506 L 279 506.5 L 276 508 Q 277 511 274 510 L 276 506 Z "></path><path d="M 329 506 Q 333.1 504.7 332 508 Q 327.9 509.3 329 506 Z "></path><path d="M 171 507 Q 174.3 505.9 173 510 Q 169.7 511.1 171 507 Z "></path><path d="M 163 508 L 166 509.5 Q 166.8 511.8 164.5 511 L 163 508 Z "></path><path d="M 217 509 Q 220 508 219 511 Q 216 512 217 509 Z "></path><path d="M 226 509 Q 228.7 507.9 228 510.5 L 226 511.5 L 226 509 Z "></path><path d="M 212 510 Q 216.1 508.7 215 512 Q 210.9 513.3 212 510 Z "></path><path d="M 167 511 Q 170 509.8 169 513.5 L 167 512.5 L 167 511 Z "></path><path d="M 275.5 511 Q 278.5 512.5 275.5 514 L 271 516 Q 269.5 512.2 272.5 513 L 274 513.5 L 275.5 511 Z "></path><path d="M 326 511 L 329 512.5 Q 329.7 515.5 326 514 L 326 511 Z "></path><path d="M 10.5 513 L 13.5 517 L 10 515.5 L 10.5 513 Z "></path><path d="M 122 513 L 124 513.5 L 123 515.5 L 124 518 Q 118.4 519.9 120 515 Q 123 516 122 513 Z "></path><path d="M 172.5 513 L 174 515.5 Q 172.5 518.5 171 515.5 L 172.5 513 Z "></path><path d="M 227 514 Q 230 513 229 516 Q 226 517 227 514 Z "></path><path d="M 330.5 515 L 332 518 Q 328.3 519.5 329 516.5 L 330.5 515 Z "></path><path d="M 112.5 516 L 113 518 L 111 517.5 L 112.5 516 Z "></path><path d="M 164 516 Q 167.8 514.5 167 517.5 Q 165.5 520.5 164 517.5 L 164 516 Z "></path><path d="M 296.5 521 L 298 524 Q 294.5 525.1 296.5 521 Z "></path><path d="M 309.5 521 L 311 524.5 Q 309.5 527.5 308 524.5 L 309.5 521 Z "></path><path d="M 249.5 522 Q 252.5 523.5 249.5 525 Q 246.5 523.5 249.5 522 Z "></path><path d="M 300 522 Q 303 520.8 302 524.5 L 303 527 L 300 526.5 L 301 524.5 L 300 522 Z "></path><path d="M 304 522 Q 307 521 306 524 Q 303 525 304 522 Z "></path><path d="M 313 522 L 316 523.5 Q 314.5 526.5 313 523.5 L 313 522 Z "></path><path d="M 172.5 523 Q 177.8 521.8 179 524.5 L 180 526.5 L 177.5 531 Q 175.3 530.3 176 532.5 Q 175.5 535.5 171.5 535 Q 170.5 532 165.5 533 L 161 536 L 162 532 L 165 530.5 L 164 528 Q 161 529 162 526 L 166 525 L 167 530 L 170 528.5 Q 169.3 523.8 172.5 523 Z "></path><path d="M 244 523 Q 247.3 521.9 246 526 Q 242.7 527.1 244 523 Z "></path><path d="M 253.5 523 L 255 526 Q 251.5 527.1 253.5 523 Z "></path><path d="M 241.5 525 Q 244.5 526.5 241.5 528 Q 239.3 528.8 240 526.5 L 241.5 525 Z "></path><path d="M 254 528 Q 257 527 256 530 Q 253 531 254 528 Z "></path><path d="M 307 528 Q 311.1 526.7 310 530 Q 305.9 531.3 307 528 Z "></path><path d="M 247.5 529 Q 250.5 528.3 249 532 Q 245.2 533.5 246 530.5 L 247.5 529 Z "></path><path d="M 239 530 Q 242 528.8 241 532.5 L 239 531.5 L 239 530 Z "></path><path d="M 300.5 530 Q 304.3 529 303 532 L 300.5 530 Z "></path><path d="M 153.5 531 Q 156.9 530.1 155 535.5 L 154 537.5 L 154.5 539 Q 151.1 539.9 153 534.5 L 154 532.5 L 153.5 531 Z "></path><path d="M 308.5 532 Q 311.5 533.5 308.5 535 Q 306.3 535.8 307 533.5 L 308.5 532 Z "></path><path d="M 253 533 Q 256 532 255 535 Q 252 536 253 533 Z "></path><path d="M 241 534 L 244 535.5 L 241 536 L 241 534 Z "></path><path d="M 78 535 L 81 535.5 L 78.5 540 L 78 535 Z "></path><path d="M 150.5 535 L 151 536.5 L 149.5 542 L 149 537.5 L 150.5 535 Z "></path><path d="M 248.5 535 Q 250.8 534.3 250 536.5 Q 248.5 539.5 247 536.5 L 248.5 535 Z "></path><path d="M 312.5 535 L 313 537.5 L 311 536.5 L 312.5 535 Z "></path><path d="M 202.5 536 L 203 538 L 201 537.5 L 202.5 536 Z "></path><path d="M 304 536 Q 307 535 306 538 Q 303 539 304 536 Z "></path><path d="M 192 537 Q 195 536 194 539 Q 191 540 192 537 Z "></path><path d="M 89 538 Q 92 536.8 91 540.5 L 89 539.5 L 89 538 Z "></path><path d="M 154.5 543 L 154 544.5 L 152 555 Q 149.3 556.1 150 553.5 L 154.5 543 Z "></path><path d="M 266.5 543 Q 267.6 545.8 271 545 Q 269.9 547.7 272.5 547 L 274 549.5 L 274 551.5 Q 275.1 554.8 272.5 554 L 271 553.5 Q 271.8 555.8 269.5 555 L 268 552 L 270.5 553 L 272 550.5 L 271 548 L 265 545.5 L 266.5 543 Z "></path><path d="M 310.5 543 Q 315.3 543.3 317 546.5 L 316.5 554 L 315.5 551 L 315 556.5 Q 312.3 557.6 313 561 Q 310 562 311 559 L 308.5 559 L 309 560.5 L 309 562 L 305 562 Q 306.8 557.1 300.5 559 Q 296 557 298 548.5 L 301.5 544 L 307.5 545 L 310.5 543 Z M 312 544 L 310 546 L 313 546 L 314 548 L 314 546 L 312 544 Z M 302 548 L 300 550 L 302 551 L 302 548 Z "></path><path d="M 164.5 545 L 166 548 Q 162.3 549.5 163 546.5 L 164.5 545 Z "></path><path d="M 215.5 545 L 219 550 L 216 550 L 216 548 Q 213.3 549.1 214 546.5 L 215.5 545 Z "></path><path d="M 325.5 545 L 328 552 L 325 550.5 L 326 548.5 L 325.5 545 Z "></path><path d="M 223 548 Q 225.7 546.9 225 549.5 L 223 550.5 L 223 548 Z "></path><path d="M 281 548 Q 285.5 546.5 284 551 Q 279.5 552.5 281 548 Z "></path><path d="M 257 549 L 259 549.5 L 257 550.5 L 257 549 Z "></path><path d="M 341.5 549 L 343 554 L 341 553.5 L 341 551.5 L 341.5 549 Z "></path><path d="M 137 550 L 139 550.5 L 137 551.5 L 137 550 Z "></path><path d="M 164.5 550 Q 167.5 549.2 166 553 Q 162.3 554.5 163 551.5 L 164.5 550 Z "></path><path d="M 49.5 551 L 54 552 L 52.5 555 L 52 552 Q 48.7 552.8 49.5 551 Z "></path><path d="M 168 551 Q 172.1 549.7 171 553 Q 166.9 554.3 168 551 Z "></path><path d="M 286 551 L 289 552.5 L 287.5 555 L 286 551 Z "></path><path d="M 276.5 552 Q 279.5 551.2 278 555 L 275 553.5 L 276.5 552 Z "></path><path d="M 281 552 Q 284.3 550.9 283 555 Q 279.7 556.1 281 552 Z "></path><path d="M 342.5 555 L 343.5 557 Q 340.7 557.7 342.5 555 Z "></path><path d="M 271 556 L 274 557.5 Q 274.7 560.5 271 559 L 271 556 Z "></path><path d="M 282 556 Q 286.5 554.5 285 559 Q 280.5 560.5 282 556 Z "></path><path d="M 68 560 L 70 560.5 L 69 563 L 67 562.5 L 68 560 Z "></path><path d="M 43.5 562 L 44 564 L 41 563.5 L 43.5 562 Z "></path><path d="M 47 562 L 49 562.5 L 48 566 L 46 565.5 L 47 562 Z "></path><path d="M 92.5 562 L 94 564.5 L 92 563.5 L 92.5 562 Z "></path><path d="M 101 562 Q 105.1 560.7 104 564 L 101.5 565 L 101 562 Z "></path><path d="M 106.5 562 L 108 562.5 L 107 565 Q 104.3 566.1 105 563.5 L 106.5 562 Z "></path><path d="M 109 563 L 111 563.5 L 109.5 566 L 109 563 Z "></path><path d="M 237.5 563 L 238 565.5 L 235 567 L 235 565 Q 237.8 566 237.5 563 Z "></path><path d="M 246.5 563 Q 249.1 562.2 248 565.5 L 247 565.5 L 246.5 563 Z "></path><path d="M 10.5 564 L 9.5 566 L 10.5 564 Z "></path><path d="M 84.5 564 L 85 565.5 L 83 566.5 L 84.5 564 Z "></path><path d="M 229.5 564 L 227.5 567 L 227 565 L 229.5 564 Z "></path><path d="M 204.5 566 L 207 566.5 L 204.5 567 L 204.5 566 Z "></path><path d="M 344 589 Q 346.7 587.9 346 590.5 L 344 591.5 L 344 589 Z "></path></svg>