<svg width="350" height="600" version="1.1" xmlns="http://www.w3.org/2000/svg" desc="Created with imagetracer.js version 1.2.5"><path d="M 174.5 6 L 178.5 7 L 179.5 6 L 188.5 6 L 189.5 7 L 230.5 7 L 232.5 7 L 234.5 6 L 235.5 7 L 323.5 7 Q 325 4.5 330.5 6 L 333 7 L 333 75.5 L 334 77.5 L 333 78.5 L 333 90.5 L 334 92.5 L 333 93.5 L 333 101.5 L 334 103.5 L 333 105.5 L 334 106.5 L 334 166.5 L 335 169.5 L 334 171.5 L 334 173.5 L 335 189.5 L 334 194.5 L 335 195.5 L 335 326.5 L 336 328.5 Q 333.7 329.8 335 334.5 L 336 335.5 L 336 407.5 L 337 412.5 L 337 414.5 L 338 590.5 L 337 593 Q 329.1 590.6 315.5 592 L 314.5 593 L 300.5 593 L 299.5 594 L 298.5 593 L 245.5 593 L 243.5 593 L 239.5 594 L 235.5 593 L 234.5 594 L 183.5 594 L 179.5 593 L 178.5 594 L 165.5 594 L 163.5 595 L 161.5 594 L 159.5 594 L 152.5 595 L 150.5 595 L 118.5 596 L 116.5 596 L 112.5 595 L 110.5 596 L 108.5 596 L 99.5 595 L 95.5 595 L 88.5 596 L 87.5 595 L 25.5 595 L 23.5 595 L 8.5 595 L 7 593.5 Q 5.8 588.8 8 587.5 L 8 489.5 L 7 487.5 L 8 486.5 L 8 448.5 L 7 447.5 L 7 433.5 L 8 432.5 L 8 409.5 L 7 408.5 L 7 372.5 L 8 371.5 L 8 348.5 Q 5.5 347 7 341.5 L 8 337.5 L 7 336.5 L 7 305.5 L 8 303.5 L 7 301.5 L 7 299.5 L 6 229.5 L 6 227.5 L 7 224.5 L 7 188.5 L 6 187.5 L 6 88.5 L 5 83.5 L 6 82.5 L 6 18.5 L 5 16.5 Q 7.3 15.2 6 10.5 L 6 8.5 L 6.5 7 L 15.5 7 L 18.5 8 L 30.5 8 L 32.5 7 L 33.5 8 L 51.5 8 L 56.5 7 L 57.5 8 L 132.5 8 L 133.5 7 L 141.5 7 L 143.5 8 L 145.5 7 L 148.5 8 L 149.5 7 L 173.5 7 L 174.5 6 Z M 164 17 L 163 18 Q 158 16 159 20 Q 160 22 166 21 L 169 26 L 168 29 Q 166 33 160 31 L 162 35 L 164 34 L 182 34 L 182 33 Q 181 30 177 31 L 172 26 L 177 21 L 181 21 L 182 18 L 166 18 L 164 17 Z M 208 126 L 205 131 Q 204 136 208 137 L 213 135 L 214 138 L 207 140 L 208 143 L 206 148 L 206 160 L 208 161 L 217 160 L 217 148 L 215 140 L 217 134 L 216 128 L 208 126 Z M 175 131 Q 174 134 169 133 Q 165 135 167 142 L 172 145 L 178 144 L 180 139 Q 180 134 178 134 Q 175 135 176 131 L 175 131 Z M 271 133 L 266 140 L 269 146 L 277 145 L 278 142 L 277 135 L 271 133 Z M 94 138 L 91 139 L 89 143 Q 88 147 91 148 Q 90 150 93 149 L 96 151 L 96 152 L 92 152 L 92 163 L 91 164 L 91 168 L 99 168 L 98 162 L 99 158 L 98 151 L 102 148 L 101 141 Q 99 136 98 139 L 94 138 Z M 119 143 L 116 144 L 114 150 L 115 152 Q 117 155 123 155 Q 122 157 117 156 L 116 167 L 124 167 L 125 169 Q 123 176 129 174 L 127 161 L 124 155 L 126 147 L 124 144 L 119 143 Z M 142 144 L 140 146 Q 139 150 141 152 L 141 155 L 149 155 L 151 152 L 150 148 Q 149 143 142 144 Z M 168 146 Q 164 150 165 160 Q 163 161 166 162 L 174 162 L 174 148 Q 169 149 168 146 Z M 277 147 L 276 148 Q 273 147 274 150 L 269 149 Q 267 154 268 162 L 267 163 Q 265 170 269 173 L 280 169 L 280 162 L 278 155 L 278 148 L 277 147 Z M 144 158 L 141 159 L 140 164 L 140 172 L 143 172 L 144 164 L 148 161 Q 152 162 150 158 L 147 159 L 144 158 Z M 63 160 L 60 161 L 57 164 L 56 169 L 57 172 L 61 174 L 64 173 L 65 176 Q 64 178 59 177 L 59 179 L 58 181 L 59 194 L 60 193 L 69 193 L 70 192 Q 68 188 69 181 L 66 178 L 67 173 Q 66 170 69 171 Q 71 169 70 164 Q 69 159 63 160 Z M 223 161 L 222 162 L 206 163 L 205 164 L 188 164 Q 185 166 186 171 Q 188 169 195 170 L 197 170 L 202 168 L 209 168 L 224 165 L 226 166 L 236 165 L 236 161 L 223 161 Z M 151 163 L 149 164 Q 146 165 147 169 L 149 170 L 159 171 L 161 171 L 170 171 L 171 172 L 174 171 L 175 172 L 184 172 L 183 165 L 151 163 Z M 116 168 L 114 171 L 113 170 L 105 170 Q 102 171 103 175 L 111 175 L 112 174 L 122 174 L 122 169 L 116 168 Z M 296 168 L 289 170 L 284 170 L 266 176 L 261 176 L 245 180 L 246 184 Q 244 188 248 187 L 250 187 L 290 176 L 293 177 L 297 175 L 300 176 L 302 175 Q 303 170 301 168 L 299 169 L 296 168 Z M 82 169 L 81 170 L 72 170 L 72 177 L 87 176 L 88 171 L 87 169 L 84 170 L 82 169 Z M 91 170 L 90 176 L 94 175 L 100 176 L 99 172 L 99 170 L 91 170 Z M 206 170 Q 203 172 204 177 L 207 176 L 208 177 L 214 177 L 214 180 L 205 180 L 204 182 L 220 180 L 218 170 L 212 171 Q 207 172 206 170 Z M 150 173 L 142 175 L 140 174 L 138 174 L 129 176 L 124 175 L 121 177 L 105 177 L 105 184 L 113 183 L 115 187 Q 116 193 114 195 L 117 196 L 129 194 L 122 192 L 120 193 L 118 190 Q 126 191 130 189 L 129 187 L 129 184 L 116 184 L 117 182 L 119 183 L 128 181 L 132 182 L 148 180 L 150 176 L 150 173 Z M 162 174 L 161 179 L 174 180 L 173 183 L 176 183 L 174 175 L 162 174 Z M 312 176 L 307 185 L 309 189 L 312 191 L 318 192 L 322 186 L 319 179 Q 317 175 312 176 Z M 90 178 L 89 184 L 91 186 L 97 184 L 98 187 L 93 188 L 93 189 Q 99 190 102 187 L 103 188 L 101 184 L 102 182 L 101 178 L 99 179 L 90 178 Z M 153 178 L 153 180 L 147 183 L 134 183 L 133 185 L 155 184 L 157 183 L 159 180 Q 158 177 153 178 Z M 160 181 L 160 184 L 165 183 L 167 183 L 169 184 L 172 183 L 163 182 L 160 181 Z M 278 181 L 268 184 L 265 190 L 268 193 L 280 190 L 281 188 L 281 186 Q 283 179 278 181 Z M 215 183 L 213 185 L 213 201 L 212 202 L 211 247 L 211 249 L 210 253 L 211 255 L 210 256 L 210 287 L 210 289 L 209 292 L 209 316 L 208 317 L 209 319 L 208 320 L 208 340 L 207 341 L 208 343 L 207 347 L 207 375 L 206 376 L 207 379 L 206 380 L 206 399 L 206 401 L 205 403 L 204 448 L 204 450 L 203 458 L 203 460 L 204 470 L 205 469 L 205 459 L 205 457 L 206 455 L 207 420 L 208 419 L 207 417 L 208 414 L 208 393 L 209 392 L 208 390 L 209 389 L 209 376 L 210 375 L 210 355 L 211 354 L 211 340 L 212 339 L 214 278 L 215 277 L 215 256 L 216 254 L 216 252 L 215 248 L 216 247 L 216 222 L 217 221 L 217 187 L 218 186 Q 219 181 215 183 Z M 222 183 Q 220 186 223 187 L 225 186 L 227 187 L 230 186 L 222 185 L 222 183 Z M 208 184 L 205 185 L 205 224 L 204 225 L 205 229 L 205 231 L 204 235 L 204 258 L 203 259 L 203 268 L 204 269 L 203 270 L 203 287 L 202 288 L 202 328 L 201 329 L 202 332 L 201 333 L 201 344 L 200 345 L 201 350 L 201 352 L 200 355 Q 199 360 201 362 L 200 364 L 200 386 L 201 387 L 200 388 L 200 404 L 199 405 L 200 408 L 200 410 L 199 411 L 198 458 L 197 459 Q 195 467 199 471 L 200 470 L 200 459 L 201 458 L 202 409 L 203 408 L 203 385 L 204 384 L 204 361 L 205 360 L 204 358 L 205 357 L 206 307 L 207 306 L 207 278 L 207 276 L 208 272 L 208 242 L 209 241 L 209 207 L 210 204 L 209 199 L 210 196 L 210 185 L 208 184 Z M 163 186 L 164 194 L 164 209 L 163 210 L 163 218 L 164 219 L 163 223 L 164 225 Q 166 231 163 233 L 164 236 L 164 238 L 163 240 L 164 248 L 164 250 Q 165 254 163 256 L 164 258 L 164 385 L 165 386 L 165 398 L 164 399 L 164 431 L 165 432 L 164 435 L 164 454 L 164 456 L 166 460 L 166 415 L 167 414 L 167 402 L 166 401 Q 169 399 167 393 L 167 391 L 166 389 L 167 386 L 167 384 L 167 200 L 166 199 L 167 198 L 167 188 L 168 187 L 163 186 Z M 169 186 L 170 189 L 170 210 L 169 211 L 169 285 L 170 286 L 169 289 L 169 291 L 170 459 L 171 456 L 170 454 L 171 452 L 170 448 L 171 447 L 172 323 L 172 321 L 173 313 L 173 311 L 173 187 L 169 186 Z M 139 187 L 138 191 L 138 192 L 143 192 Q 144 195 140 194 L 141 196 L 142 195 L 151 195 L 152 190 L 151 187 L 146 188 L 139 187 Z M 222 188 L 220 194 L 220 196 L 221 202 L 223 200 Q 227 201 229 199 L 248 199 L 251 200 L 253 199 L 266 199 L 266 196 L 268 196 L 268 214 L 267 215 L 267 243 L 266 244 L 266 272 L 265 273 L 265 293 L 264 294 L 264 313 L 263 314 L 263 339 L 262 340 L 262 362 L 261 363 L 262 365 L 261 367 L 260 424 L 260 426 L 259 431 L 259 465 L 258 466 Q 257 469 260 470 L 260 462 L 260 460 L 261 458 L 263 403 L 264 402 L 264 384 L 265 383 L 264 381 L 265 380 L 265 365 L 266 364 L 265 360 L 266 359 L 266 345 L 267 344 L 266 340 L 267 338 L 269 280 L 269 278 L 270 276 L 270 248 L 271 247 L 272 194 L 268 195 Q 264 194 265 197 L 260 198 L 259 197 L 223 197 L 224 195 L 257 195 L 258 196 L 262 195 Q 263 197 264 195 L 222 194 L 222 188 Z M 34 189 L 30 191 Q 26 193 27 199 L 30 200 L 33 205 L 37 204 L 38 204 L 38 197 L 42 197 L 41 193 L 34 189 Z M 224 190 L 224 192 L 227 192 L 228 191 L 224 190 Z M 89 191 Q 87 194 82 192 L 78 194 L 73 193 L 66 195 L 56 195 L 41 198 L 40 202 L 41 205 L 49 203 L 71 201 L 77 199 L 86 199 L 88 199 Q 90 197 89 192 L 91 192 L 89 191 Z M 94 191 L 91 192 L 92 198 L 93 263 L 93 265 L 94 268 L 94 291 L 95 292 L 96 341 L 97 342 L 97 368 L 98 369 L 98 419 L 99 420 L 100 469 L 102 468 L 102 453 L 101 452 L 101 433 L 102 432 L 101 431 L 101 406 L 100 403 L 101 401 L 100 398 L 100 349 L 99 348 L 98 276 L 98 274 L 97 271 L 96 204 L 96 202 L 95 198 Q 96 190 94 191 Z M 98 191 L 98 195 L 98 197 Q 97 201 99 203 L 98 208 L 99 211 L 98 219 L 98 221 L 99 223 L 99 255 L 100 256 L 99 258 L 99 260 L 100 262 L 100 286 L 101 287 L 102 349 L 102 351 L 103 352 L 103 392 L 104 393 L 103 395 L 103 403 L 104 404 L 103 409 L 103 411 L 104 413 L 104 463 L 105 467 L 106 467 L 105 392 L 105 390 L 105 360 L 104 359 L 105 356 L 104 347 L 104 345 L 105 337 L 105 335 L 104 334 L 104 300 L 104 298 L 103 296 L 103 272 L 102 271 L 102 263 L 103 262 L 102 260 L 102 229 L 102 227 L 101 224 L 101 192 L 98 191 Z M 278 192 L 275 193 L 274 229 L 273 230 L 274 232 L 273 233 L 272 273 L 271 274 L 271 292 L 270 293 L 270 328 L 268 336 L 269 339 L 268 340 L 268 362 L 267 363 L 267 391 L 266 392 L 264 454 L 263 457 L 264 469 L 265 445 L 266 444 L 266 429 L 267 428 L 267 413 L 267 411 L 268 409 L 269 379 L 270 378 L 269 375 L 270 374 L 270 362 L 271 361 L 273 316 L 274 315 L 273 313 L 274 312 L 274 297 L 275 296 L 275 274 L 276 273 L 276 258 L 277 257 L 277 239 L 277 237 L 278 234 L 278 211 L 279 210 L 278 205 L 279 200 L 279 198 Q 280 191 278 192 Z M 309 192 L 306 201 L 305 210 L 307 211 Q 313 210 316 212 L 317 209 L 317 193 L 309 192 Z M 282 193 L 282 196 L 284 195 L 286 196 Q 290 197 292 195 L 294 196 L 296 196 L 306 195 L 306 193 L 304 194 L 302 194 L 301 193 L 282 193 Z M 143 197 L 139 198 L 140 202 Q 141 206 139 208 Q 138 213 140 215 L 140 282 L 140 284 L 141 288 L 141 346 L 142 347 L 141 351 L 142 354 Q 144 359 141 361 L 142 362 L 142 440 L 143 441 L 143 466 L 145 465 L 144 461 L 144 459 L 145 457 L 145 314 L 144 313 L 145 311 Q 147 305 144 304 L 145 301 L 143 199 L 145 199 L 143 197 Z M 148 197 L 146 199 L 146 227 L 146 229 L 145 231 L 146 233 L 146 306 L 147 307 L 146 312 L 147 314 L 146 317 L 147 321 L 146 323 L 147 327 L 146 329 L 147 331 L 147 333 L 147 381 L 146 383 L 146 385 L 147 387 L 146 403 L 146 405 L 147 408 L 147 465 L 150 465 L 150 394 L 149 393 L 150 389 L 148 389 L 150 386 L 151 339 L 151 337 L 151 309 L 150 308 L 151 306 L 150 304 L 151 301 L 150 299 L 151 297 L 150 295 L 151 293 L 150 290 L 151 288 L 150 286 L 151 284 L 150 282 L 151 280 L 150 277 L 150 199 L 148 197 Z M 117 198 L 115 200 L 116 203 L 116 245 L 117 246 L 116 249 L 117 250 L 117 268 L 118 269 L 118 299 L 119 300 L 119 325 L 120 326 L 120 355 L 121 356 L 121 387 L 121 389 L 123 395 L 122 397 L 122 431 L 123 432 L 122 437 L 123 438 L 123 456 L 124 457 L 123 459 L 123 461 L 124 470 L 126 470 L 126 460 L 125 457 L 126 454 L 125 452 L 126 449 L 125 446 L 125 421 L 126 420 L 125 418 Q 123 411 126 410 L 125 408 L 125 391 L 123 391 L 125 388 L 125 351 L 124 350 L 125 348 L 124 347 L 124 310 L 123 309 L 124 306 L 123 304 L 123 277 L 122 276 L 123 274 L 122 269 Q 121 264 123 263 L 122 262 L 122 229 L 121 228 L 121 201 L 123 199 L 124 201 L 124 231 L 124 233 L 125 238 L 124 241 Q 123 245 125 247 L 125 293 L 126 294 L 126 345 L 127 346 L 126 348 L 127 352 L 126 355 L 127 356 L 127 390 L 128 393 L 128 395 L 127 397 Q 126 402 128 404 L 127 407 L 127 409 L 128 412 L 127 416 L 128 420 L 128 458 L 128 460 L 129 469 L 130 469 L 130 394 L 129 393 L 130 390 L 130 310 L 129 309 L 130 305 L 130 303 L 129 300 L 129 259 L 128 256 L 129 253 L 128 251 L 128 200 L 127 198 L 117 198 Z M 285 198 L 285 199 L 293 199 L 297 199 L 304 200 L 304 198 L 285 198 Z M 224 201 L 224 202 L 230 202 L 224 201 Z M 232 201 L 232 202 L 235 203 Q 239 204 241 202 L 249 203 L 250 204 L 250 201 L 232 201 Z M 255 201 L 250 208 L 251 211 L 254 213 L 258 214 L 261 213 L 263 208 L 262 203 L 255 201 Z M 284 201 L 284 203 L 302 203 L 295 201 L 292 202 L 284 201 Z M 70 203 L 69 204 L 59 204 L 56 207 L 58 214 L 66 212 L 89 212 L 89 210 L 84 211 L 82 210 Q 76 209 75 211 L 70 210 Q 69 207 73 208 L 72 207 Q 74 202 70 203 Z M 222 204 L 221 206 L 231 206 L 223 205 L 222 204 Z M 288 204 L 282 206 L 288 206 L 288 204 Z M 296 204 Q 294 206 290 205 L 290 206 L 300 206 Q 299 203 298 205 L 296 204 Z M 233 205 L 233 207 L 237 206 L 241 207 L 248 207 Q 247 204 246 206 L 245 205 L 233 205 Z M 37 206 L 35 208 L 31 207 L 31 215 L 30 216 L 31 217 L 31 226 L 42 219 L 40 208 L 37 206 Z M 286 209 L 285 214 L 287 215 L 297 216 L 302 218 L 305 217 Q 306 221 313 220 L 315 220 L 329 225 Q 334 227 332 221 L 321 215 L 293 209 L 286 209 Z M 54 213 L 46 220 L 36 225 L 18 241 Q 16 246 20 248 L 47 226 Q 49 227 48 224 L 55 221 L 56 219 L 60 217 L 61 219 L 62 250 L 63 251 L 63 263 L 64 264 L 64 279 L 65 280 L 65 291 L 66 292 L 66 308 L 67 309 L 68 334 L 69 335 L 69 350 L 70 351 L 71 375 L 72 376 L 72 389 L 72 391 L 73 394 L 73 415 L 74 416 L 75 448 L 76 449 L 77 470 L 79 469 L 78 443 L 77 442 L 77 423 L 76 422 L 76 405 L 75 404 L 74 357 L 73 356 L 73 342 L 72 341 L 72 321 L 71 320 L 70 292 L 69 291 L 67 239 L 66 238 L 66 214 L 57 216 Q 54 217 55 213 L 54 213 Z M 70 213 L 68 215 L 68 233 L 69 234 L 68 236 L 69 239 L 69 260 L 69 262 Q 72 267 70 277 L 71 278 L 71 290 L 72 291 L 73 326 L 74 327 L 74 341 L 75 342 L 77 388 L 78 389 L 77 391 L 78 394 L 78 411 L 79 412 L 80 449 L 80 451 L 81 452 L 81 465 L 81 467 Q 80 469 83 468 L 83 460 L 82 459 L 82 444 L 81 443 L 81 425 L 80 424 L 80 405 L 79 404 L 78 361 L 77 360 L 78 357 L 77 354 L 77 339 L 77 337 L 76 336 L 75 303 L 73 292 L 72 261 L 71 260 L 71 245 L 70 243 L 70 241 Q 69 236 71 235 L 69 226 L 69 216 L 70 215 L 70 213 Z M 73 214 L 74 216 L 89 216 L 89 214 L 73 214 Z M 252 215 L 248 231 Q 247 234 250 235 L 259 235 L 259 216 L 252 215 Z M 10 217 L 11 219 Q 16 220 18 218 L 10 217 Z M 20 217 Q 21 220 28 219 L 28 217 L 20 217 Z M 76 218 L 72 219 L 72 220 L 89 220 L 90 219 L 76 218 Z M 301 220 L 301 226 L 310 227 L 311 229 L 304 227 Q 300 226 301 229 L 310 230 L 314 232 Q 317 229 316 224 L 301 220 Z M 9 221 L 9 223 L 12 222 L 28 222 L 9 221 Z M 77 222 L 75 224 L 78 224 L 77 222 Z M 80 222 L 81 224 L 89 224 L 89 222 L 80 222 Z M 17 224 Q 16 227 11 226 L 11 227 Q 18 228 21 225 L 19 224 L 17 224 Z M 23 224 L 24 226 L 29 226 Q 28 223 27 225 L 23 224 Z M 105 224 Q 103 227 107 226 L 109 226 Q 115 228 114 224 L 112 225 Q 106 227 105 224 Z M 132 224 L 130 226 L 135 227 Q 137 228 136 225 L 132 224 Z M 83 226 L 83 227 L 87 228 L 90 227 L 83 226 Z M 176 227 L 176 232 L 178 231 L 179 232 L 200 232 L 201 233 L 201 231 L 199 230 L 195 231 L 192 230 L 190 231 L 188 230 L 186 231 Q 179 233 180 229 L 188 228 L 176 227 Z M 16 228 L 11 230 L 28 230 Q 29 227 27 228 L 22 229 Q 20 227 16 228 Z M 134 228 L 130 230 L 134 230 L 134 228 Z M 137 228 L 135 230 L 138 230 Q 139 227 137 228 Z M 153 228 L 153 230 L 161 230 L 161 228 L 157 229 L 153 228 Z M 104 229 L 105 231 L 114 231 L 114 229 L 104 229 Z M 45 230 L 43 232 L 45 232 L 45 230 Z M 88 230 Q 87 233 90 232 Q 91 229 88 230 Z M 302 231 L 300 233 L 299 249 L 297 255 L 297 268 L 295 276 L 295 287 L 292 304 L 291 320 L 290 321 L 289 340 L 288 341 L 287 357 L 286 358 L 286 366 L 285 367 L 285 376 L 284 377 L 284 387 L 281 403 L 281 413 L 278 430 L 278 440 L 277 441 L 275 466 L 274 467 Q 273 469 277 468 L 278 467 L 278 457 L 282 435 L 283 416 L 285 408 L 289 371 L 290 370 L 292 343 L 294 336 L 294 327 L 297 311 L 300 277 L 302 270 L 302 259 L 304 253 L 305 232 L 302 231 Z M 10 232 L 12 234 L 22 234 L 23 233 L 10 232 Z M 42 232 L 32 240 Q 30 247 34 250 L 45 241 L 43 236 Q 44 231 42 232 Z M 132 232 L 132 233 L 138 234 Q 139 231 132 232 Z M 154 232 L 153 234 L 160 234 L 161 235 L 161 232 L 159 233 L 154 232 Z M 219 232 L 219 234 L 226 234 L 227 233 L 229 234 Q 238 235 243 233 L 219 232 Z M 309 233 L 307 237 L 303 275 L 303 277 L 302 279 L 301 296 L 300 297 L 300 306 L 297 319 L 295 348 L 292 364 L 292 374 L 289 391 L 289 398 L 287 405 L 286 424 L 283 436 L 283 446 L 281 456 L 281 465 L 280 466 L 282 466 L 286 442 L 289 410 L 291 404 L 291 395 L 294 381 L 294 373 L 297 357 L 297 349 L 299 342 L 299 333 L 302 318 L 303 303 L 305 296 L 305 287 L 306 286 L 306 278 L 307 277 L 307 269 L 310 252 L 311 234 L 309 233 Z M 105 234 L 105 235 L 112 235 Q 113 237 114 235 L 105 234 Z M 180 234 L 180 235 L 183 235 L 180 234 Z M 185 234 Q 183 236 189 235 L 191 235 L 194 236 L 198 236 L 201 236 L 200 234 L 185 234 Z M 137 235 L 131 237 L 137 237 L 137 235 Z M 221 235 L 218 237 L 223 237 Q 224 234 221 235 Z M 227 235 L 227 241 L 246 242 L 247 243 L 257 243 L 260 244 Q 267 246 264 239 L 263 239 L 246 236 L 244 237 L 227 235 Z M 154 237 L 154 238 Q 158 237 160 239 L 162 238 L 154 237 Z M 104 238 L 105 240 L 114 240 L 114 238 L 104 238 Z M 176 238 L 176 240 L 178 239 L 183 240 L 184 239 L 196 239 L 198 239 L 200 240 L 201 240 L 200 238 L 176 238 Z M 221 238 L 223 240 Q 224 237 221 238 Z M 134 239 L 134 240 L 138 241 Q 139 237 134 239 Z M 155 240 L 157 242 L 161 241 L 155 240 Z M 280 240 L 280 243 L 283 241 Q 287 240 289 242 L 297 242 L 298 241 L 280 240 Z M 317 240 L 316 241 Q 312 240 313 243 L 315 242 L 317 243 L 332 243 L 332 241 L 320 241 L 317 240 Z M 113 242 L 104 244 L 108 245 L 113 244 Q 114 246 115 244 L 113 242 Z M 185 242 L 185 243 L 190 243 L 185 242 Z M 193 242 L 193 243 L 200 243 L 201 244 L 201 242 L 193 242 Z M 218 242 L 218 246 L 221 247 Q 226 249 225 245 L 228 244 L 230 245 L 241 245 L 240 243 L 218 242 Z M 132 243 L 132 244 L 138 245 Q 139 241 132 243 Z M 283 243 L 281 245 L 289 246 L 297 246 L 297 244 L 284 244 L 283 243 Z M 44 244 L 31 254 L 29 254 L 27 254 L 26 255 L 13 255 L 11 256 L 11 257 L 32 256 L 45 245 L 44 244 Z M 154 244 L 153 246 Q 157 247 156 245 L 154 244 Z M 158 244 L 157 246 L 161 246 L 161 245 L 160 245 L 158 244 Z M 246 244 Q 243 246 246 247 L 248 246 L 250 247 L 259 247 L 258 245 L 246 244 Z M 181 245 L 183 247 L 185 246 L 187 246 L 189 247 L 191 246 L 181 245 Z M 322 245 Q 321 248 324 247 L 326 247 L 332 247 L 331 245 L 322 245 Z M 228 246 L 229 248 L 242 248 L 230 247 L 228 246 Z M 280 246 L 279 249 L 286 248 L 280 246 Z M 45 247 L 41 251 L 42 279 L 43 280 L 44 303 L 45 304 L 45 318 L 46 319 L 46 330 L 47 331 L 47 342 L 48 343 L 48 354 L 49 355 L 50 379 L 52 390 L 51 393 L 52 394 L 54 438 L 56 449 L 56 458 L 57 459 L 57 471 L 58 471 L 56 426 L 55 425 L 56 423 L 55 422 L 55 401 Q 53 399 54 394 L 54 392 L 53 369 L 53 367 L 52 366 L 52 350 L 52 348 L 51 346 L 51 335 L 50 334 L 50 322 L 50 320 Q 48 316 49 309 L 48 308 L 48 297 L 47 296 L 47 281 L 46 280 L 47 277 L 46 276 L 45 247 Z M 113 247 Q 112 250 115 249 Q 116 246 113 247 Z M 132 247 L 132 248 L 138 248 L 132 247 Z M 288 247 L 289 249 L 292 248 L 288 247 Z M 294 247 L 292 249 L 296 249 Q 297 246 294 247 Z M 245 248 L 244 251 Q 242 256 246 258 L 252 257 L 254 257 L 257 258 L 259 251 L 258 249 L 245 248 Z M 324 248 L 321 250 L 330 251 L 332 250 Q 330 247 324 248 Z M 74 249 L 75 251 L 79 250 L 74 249 Z M 15 250 L 13 252 L 16 252 L 15 250 Z M 30 250 L 29 251 L 17 252 L 31 252 Q 32 249 30 250 Z M 280 250 L 280 252 L 288 252 L 289 253 Q 293 254 292 251 Q 284 252 280 250 Z M 55 251 L 48 253 L 60 253 Q 61 249 55 251 Z M 295 251 L 293 253 L 296 253 Q 297 250 295 251 Z M 38 252 L 34 256 L 35 265 L 35 267 L 37 278 L 37 288 L 38 289 L 39 312 L 40 313 L 39 315 L 40 316 L 41 334 L 42 335 L 42 350 L 43 351 L 44 368 L 44 370 L 46 394 L 47 395 L 47 405 L 48 406 L 50 444 L 52 454 L 52 462 L 53 463 L 53 473 L 55 473 L 54 455 L 53 454 L 53 441 L 52 440 L 50 396 L 49 395 L 50 393 L 49 392 L 49 381 L 48 380 L 48 368 L 47 367 Q 46 362 48 361 L 46 350 L 45 326 L 44 325 L 44 315 L 43 314 L 41 280 L 40 279 L 39 254 L 38 252 Z M 75 252 Q 73 255 76 254 L 75 252 Z M 115 253 Q 113 256 116 255 L 115 253 Z M 49 255 L 47 257 L 60 257 L 60 255 L 49 255 Z M 75 256 L 75 257 L 90 257 L 75 256 Z M 29 258 L 28 259 L 11 259 Q 10 263 16 261 L 18 261 L 20 260 L 32 260 Q 33 257 29 258 Z M 54 259 L 53 260 L 48 260 L 48 265 L 59 265 L 60 266 L 61 263 L 53 263 L 52 264 Q 48 265 49 263 L 51 261 L 60 261 L 61 260 L 54 259 Z M 77 259 L 76 260 Q 73 259 74 262 L 76 261 L 90 261 L 90 259 L 80 259 L 79 260 L 77 259 Z M 244 259 L 245 262 L 243 271 L 243 284 L 242 285 L 242 295 L 241 296 L 241 306 L 240 307 L 240 320 L 239 321 L 238 338 L 237 339 L 238 341 L 236 364 L 235 365 L 235 381 L 234 382 L 233 407 L 232 408 L 232 420 L 230 431 L 230 442 L 229 443 L 229 458 L 227 462 L 227 463 L 231 463 L 234 425 L 234 423 L 235 422 L 236 405 L 237 404 L 237 389 L 238 388 L 239 370 L 240 369 L 240 355 L 242 346 L 243 325 L 244 324 L 246 288 L 247 287 L 247 277 L 248 276 L 248 260 L 244 259 Z M 251 260 L 250 263 L 249 285 L 248 286 L 249 288 L 248 289 L 247 307 L 246 308 L 246 322 L 244 332 L 244 341 L 243 342 L 241 374 L 240 375 L 241 378 L 240 379 L 239 400 L 238 401 L 236 435 L 235 436 L 235 451 L 234 452 L 235 464 L 237 455 L 240 418 L 242 410 L 242 395 L 245 378 L 246 355 L 248 346 L 249 329 L 250 328 L 252 295 L 254 284 L 254 271 L 255 270 L 255 260 L 251 260 Z M 184 261 L 178 263 L 181 263 Q 184 265 181 266 Q 174 264 175 268 L 179 267 L 191 267 L 192 268 Q 197 270 196 267 L 195 267 L 184 265 Q 183 262 186 263 Q 187 260 184 261 Z M 15 262 L 14 263 Q 9 262 10 265 L 33 265 L 33 262 L 29 263 L 27 262 L 23 263 L 21 263 L 15 262 Z M 105 262 L 106 264 L 107 263 L 115 263 L 105 262 Z M 74 263 L 74 265 L 90 264 L 74 263 Z M 156 263 Q 155 266 159 265 Q 160 262 156 263 Z M 106 265 Q 104 268 107 267 L 106 265 Z M 114 265 L 112 267 L 115 267 L 114 265 Z M 84 266 L 75 268 L 76 270 L 77 269 L 91 268 L 84 266 Z M 199 266 Q 198 269 201 268 Q 202 265 199 266 Z M 10 267 L 11 269 L 21 269 L 21 272 L 10 272 L 11 274 L 33 274 Q 36 273 33 271 L 32 272 L 23 272 L 24 269 L 33 269 L 33 267 L 10 267 Z M 162 267 L 161 268 Q 154 266 155 270 L 158 269 L 162 270 L 162 267 Z M 219 267 L 220 269 L 239 269 L 238 267 L 225 268 L 223 268 L 219 267 Z M 49 268 L 50 270 L 54 269 L 57 270 L 59 270 L 61 269 L 49 268 Z M 109 268 L 108 270 L 115 270 L 109 268 Z M 135 269 Q 132 273 138 271 Q 139 268 137 269 L 135 269 Z M 179 270 L 176 271 L 176 272 L 201 272 Q 200 269 199 271 L 194 270 L 191 271 L 190 270 L 179 270 Z M 310 270 L 311 272 L 313 271 L 310 270 Z M 80 271 L 75 272 L 76 274 L 77 273 L 90 272 L 91 273 L 91 271 L 80 271 Z M 237 271 L 235 273 L 219 274 L 239 274 Q 240 276 241 274 L 239 271 L 237 271 Z M 258 271 L 257 274 L 260 275 L 263 274 L 258 273 L 258 271 Z M 49 272 L 49 274 L 59 274 L 61 273 L 61 272 Q 54 270 53 273 L 49 272 Z M 106 272 Q 105 274 109 274 Q 110 271 106 272 Z M 111 272 Q 110 275 115 274 Q 116 270 111 272 Z M 155 272 L 155 273 L 162 273 L 155 272 Z M 131 273 L 131 275 L 133 274 L 136 275 L 139 274 L 131 273 Z M 316 273 Q 314 275 310 274 L 310 275 L 332 275 L 328 273 L 325 274 L 316 273 Z M 189 274 L 184 276 L 201 276 L 200 274 L 197 275 L 195 275 Q 190 276 189 274 Z M 285 274 L 284 275 Q 279 274 280 277 L 287 276 L 289 276 L 294 277 Q 295 273 290 275 L 288 275 L 285 274 Z M 30 275 L 29 276 L 10 276 L 9 280 L 12 278 L 34 278 L 34 276 L 30 275 Z M 59 275 L 57 276 L 57 277 Q 62 279 61 276 L 59 275 Z M 79 275 L 75 276 Q 74 280 77 281 L 82 280 L 84 281 L 86 280 L 79 279 Q 77 281 76 279 L 80 277 L 82 277 L 91 276 L 79 275 Z M 107 275 L 106 277 L 113 277 L 113 275 L 111 276 L 107 275 Z M 154 275 L 154 276 L 162 276 L 154 275 Z M 50 276 L 50 277 L 55 277 L 50 276 Z M 132 276 L 131 279 L 133 278 L 137 279 Q 140 280 139 277 L 133 277 L 132 276 Z M 218 276 L 218 277 L 233 277 L 234 278 L 241 278 L 240 276 L 218 276 Z M 177 277 L 177 279 L 180 278 L 177 277 Z M 182 277 L 180 279 L 184 279 Q 185 276 182 277 Z M 186 277 L 187 278 Q 188 280 189 278 L 186 277 Z M 193 277 L 192 279 L 196 279 L 193 277 Z M 258 277 L 259 279 L 263 278 L 258 277 Z M 310 277 L 308 279 L 309 285 L 310 284 L 332 283 L 332 282 L 310 282 L 309 280 L 317 280 L 318 279 L 322 280 L 326 279 Q 333 281 332 277 L 329 278 L 326 277 L 322 278 L 320 277 L 316 278 L 310 277 Z M 155 278 L 157 280 L 159 279 Q 160 281 161 279 L 155 278 Z M 198 278 L 199 279 L 200 281 L 193 281 L 192 283 L 200 282 L 201 283 Q 203 276 198 278 Z M 49 279 L 49 281 L 52 281 L 61 280 L 49 279 Z M 88 279 L 88 280 L 91 280 L 88 279 Z M 116 279 L 108 281 L 105 281 L 105 286 L 116 286 L 106 285 L 107 283 L 116 283 L 116 279 Z M 219 279 Q 218 281 222 280 Q 223 282 224 280 L 219 279 Z M 225 279 L 225 281 L 227 280 L 230 281 L 240 281 L 240 280 L 239 280 L 237 279 L 225 279 Z M 280 279 L 281 281 L 283 280 L 284 281 L 293 281 L 293 279 L 280 279 Z M 11 280 L 10 283 L 17 283 L 18 282 L 25 283 L 28 282 Q 34 283 34 281 L 33 281 L 12 281 L 11 280 Z M 188 280 L 185 282 L 189 282 L 188 280 Z M 257 280 L 257 282 L 263 282 L 263 280 L 261 281 L 257 280 Z M 131 281 L 131 287 L 139 287 Q 140 283 134 285 Q 131 284 134 282 L 139 283 L 139 281 L 131 281 Z M 159 281 Q 158 284 161 283 Q 162 280 159 281 Z M 175 281 L 175 284 Q 180 285 181 282 L 175 281 Z M 54 282 L 49 283 L 49 288 L 51 288 L 50 286 L 51 284 L 62 284 L 62 282 L 56 283 L 54 282 Z M 278 282 L 278 284 L 286 285 L 289 284 L 291 285 Q 294 286 293 283 L 281 283 L 278 282 Z M 77 283 L 76 288 L 79 288 L 77 287 L 77 283 Z M 82 283 L 82 284 L 85 284 L 82 283 Z M 87 283 L 87 284 L 89 284 L 87 283 Z M 225 283 L 220 285 L 225 285 L 227 285 L 228 284 L 238 284 L 225 283 Z M 34 284 L 33 285 L 12 285 L 11 287 L 29 287 L 30 286 L 34 287 Q 37 286 34 284 Z M 256 284 L 255 289 Q 253 293 257 292 L 258 289 L 260 290 L 263 288 L 257 287 Q 256 284 260 285 L 261 286 L 261 284 L 256 284 Z M 153 285 L 153 288 L 156 289 L 159 288 L 162 289 L 162 285 L 153 285 Z M 188 285 L 186 287 L 190 287 L 192 287 L 201 287 L 201 285 L 195 285 L 194 286 L 188 285 Z M 55 286 L 55 287 L 62 287 L 55 286 Z M 179 286 L 181 288 Q 182 285 179 286 Z M 235 286 L 234 287 L 222 287 L 221 288 L 218 287 Q 215 286 216 291 Q 217 293 219 291 L 223 291 L 224 288 L 240 288 L 240 287 L 239 287 L 235 286 Z M 309 286 L 309 289 L 310 288 L 332 288 L 332 286 L 319 286 L 317 286 L 312 287 L 309 286 Z M 278 287 L 278 288 Q 288 287 293 289 L 293 287 L 278 287 Z M 108 288 L 107 290 L 116 290 L 116 288 L 110 289 L 108 288 Z M 12 289 L 10 291 L 11 299 L 11 297 Q 14 296 13 299 L 15 298 L 24 299 L 26 299 L 26 296 L 25 297 L 15 297 Q 14 293 19 295 L 19 293 L 15 294 Q 11 295 12 293 Q 14 289 21 291 L 20 289 L 18 290 L 12 289 Z M 22 289 L 23 291 L 32 291 L 32 289 L 22 289 Z M 50 289 L 52 292 L 54 291 L 50 289 Z M 59 289 L 57 290 L 57 291 L 63 291 L 59 289 Z M 133 289 L 132 291 L 139 291 L 139 289 L 137 290 L 133 289 Z M 188 289 L 187 290 L 176 291 L 198 291 L 200 291 L 200 289 L 188 289 Z M 76 290 L 76 305 L 93 305 L 93 295 L 92 294 L 92 290 L 76 290 Z M 234 290 L 234 291 L 236 291 L 234 290 Z M 279 290 L 278 292 L 292 292 L 286 290 L 284 291 L 279 290 Z M 316 290 L 315 291 L 307 291 L 308 293 L 309 292 L 328 292 L 329 291 L 332 292 L 332 290 L 316 290 Z M 261 291 L 258 293 L 261 294 L 256 296 L 262 296 L 263 293 Q 264 290 261 291 Z M 105 292 L 106 297 L 105 302 L 107 303 L 117 303 L 117 292 L 105 292 Z M 155 292 L 156 294 L 158 293 L 161 294 Q 162 291 155 292 Z M 200 292 L 193 294 L 182 294 L 183 296 L 185 295 L 199 295 L 200 294 L 200 292 Z M 233 292 L 232 293 L 218 293 L 219 295 L 223 294 Q 228 293 230 295 L 240 294 L 239 292 L 237 293 L 235 293 L 233 292 Z M 21 293 L 23 295 Q 24 292 21 293 Z M 24 293 L 24 295 L 27 295 L 35 294 L 24 293 Z M 50 293 L 50 310 L 52 311 L 53 310 L 64 310 L 64 299 L 63 298 L 63 293 L 50 293 Z M 131 293 Q 130 296 133 295 L 135 295 L 135 293 L 131 293 Z M 139 293 L 136 298 L 134 297 L 131 299 L 139 299 L 139 293 Z M 176 294 L 177 296 L 179 295 L 176 294 Z M 277 294 L 277 296 L 291 296 L 291 295 L 290 295 L 285 294 L 283 294 L 280 295 L 277 294 Z M 320 294 L 319 295 L 308 295 L 306 297 Q 304 302 308 301 L 310 297 Q 314 296 312 300 L 317 300 L 317 299 L 316 299 L 313 298 L 315 297 L 319 297 L 326 295 L 331 296 L 331 294 L 320 294 Z M 154 296 L 154 298 L 161 298 L 162 299 L 162 297 L 154 296 Z M 200 296 L 194 298 L 189 298 L 189 299 L 199 298 L 200 299 L 200 296 Z M 237 296 L 236 297 L 220 298 L 239 298 Q 240 295 237 296 Z M 28 297 Q 28 300 30 298 Q 32 297 31 300 Q 32 303 36 302 L 36 297 L 28 297 Z M 217 297 L 217 298 L 219 298 L 217 297 Z M 175 298 L 175 303 L 178 303 L 180 303 L 180 299 L 184 300 L 186 299 L 175 298 Z M 256 298 L 256 299 L 262 300 Q 263 297 256 298 Z M 277 298 Q 276 301 279 300 L 281 300 L 284 299 L 291 300 L 291 298 L 277 298 Z M 332 298 L 322 300 Q 318 299 319 302 Q 324 303 326 300 L 330 302 Q 333 304 329 306 Q 326 305 327 308 L 322 309 L 310 309 L 309 310 L 305 309 L 303 317 L 303 326 L 300 341 L 300 350 L 299 351 L 298 364 L 298 365 L 300 364 Q 306 366 317 365 L 320 367 L 332 367 L 333 368 L 333 357 L 332 356 L 333 352 L 333 343 L 332 342 L 333 338 L 333 336 L 332 335 L 332 298 Z M 216 300 Q 214 307 215 320 L 215 322 L 214 324 L 213 362 Q 219 363 224 367 L 232 369 L 234 367 L 236 338 L 236 336 L 238 321 L 238 319 L 239 303 L 237 304 L 220 304 L 218 303 L 223 302 L 216 300 Z M 224 300 L 224 302 L 232 302 L 233 301 L 239 302 L 239 300 L 224 300 Z M 10 301 L 10 304 L 14 303 L 16 304 L 24 304 L 24 303 L 25 301 L 15 301 L 14 302 L 10 301 Z M 133 301 Q 132 304 135 303 Q 136 300 133 301 Z M 137 301 Q 136 304 139 303 Q 140 300 137 301 Z M 154 301 L 155 303 L 159 302 L 154 301 Z M 161 301 L 162 303 Q 163 300 161 301 Z M 187 301 L 186 303 L 189 303 L 187 301 Z M 192 301 L 190 303 L 199 304 Q 201 305 200 302 L 199 302 L 192 301 Z M 258 301 Q 258 304 262 304 L 262 302 L 258 301 Z M 254 302 L 252 326 L 252 330 L 250 341 L 250 349 L 249 350 L 249 360 L 247 367 L 247 382 L 246 384 L 255 383 L 257 383 L 259 384 L 260 377 L 261 335 L 262 334 L 261 331 L 261 329 L 262 326 L 262 310 L 256 310 L 256 308 L 262 308 Q 264 303 257 305 Q 254 304 256 303 L 254 302 Z M 277 302 L 278 304 L 282 303 L 277 302 Z M 284 302 L 284 304 L 291 304 L 291 302 L 289 303 L 284 302 Z M 307 302 Q 305 305 308 304 L 307 302 Z M 34 304 Q 32 306 28 305 L 26 308 L 29 307 L 36 308 Q 38 303 34 304 Z M 109 304 L 107 305 L 107 306 L 116 306 L 116 304 L 113 305 L 109 304 Z M 162 304 L 154 306 L 162 306 L 162 304 Z M 317 304 L 316 305 L 309 305 L 308 307 L 325 305 L 317 304 Z M 136 305 Q 135 308 139 307 Q 140 304 136 305 Z M 176 305 L 177 307 L 194 307 L 194 309 L 188 309 L 187 310 L 186 309 L 178 309 L 176 309 L 175 345 L 174 346 L 175 348 L 174 365 L 178 367 L 183 367 Q 187 362 197 362 L 198 361 L 198 344 L 199 343 L 198 340 L 199 326 L 200 325 L 200 305 L 198 306 L 195 305 L 191 306 L 189 305 L 181 305 L 180 306 L 176 305 Z M 288 305 L 289 307 Q 290 304 288 305 Z M 15 306 L 14 308 Q 19 310 21 307 L 24 308 L 23 306 L 18 307 L 15 306 Z M 276 306 L 276 308 L 276 310 L 275 315 L 275 331 L 274 332 L 274 347 L 273 348 L 273 365 L 272 371 L 284 367 L 286 355 L 287 335 L 289 327 L 289 316 L 290 315 Q 293 306 285 309 L 282 308 L 278 309 L 279 307 L 276 306 Z M 77 307 L 77 311 L 86 311 L 78 310 L 79 308 L 77 307 Z M 88 307 L 88 308 L 90 308 L 88 307 Z M 107 307 L 107 309 L 115 308 L 116 309 L 116 307 L 107 307 Z M 93 308 L 89 310 L 89 311 Q 92 312 93 310 L 93 308 Z M 160 308 L 153 309 L 153 318 L 152 319 L 153 321 L 154 368 Q 156 365 162 366 L 162 309 L 160 308 Z M 19 309 L 16 310 L 16 311 Q 22 312 24 310 L 19 309 Z M 131 309 L 131 311 L 131 313 L 132 316 L 132 339 L 140 339 L 140 327 L 140 325 L 140 317 L 139 316 L 139 309 L 131 309 Z M 106 310 L 106 312 L 113 313 L 106 314 L 106 334 L 116 334 L 115 337 Q 114 339 118 338 L 118 317 L 117 316 L 117 310 L 106 310 Z M 37 311 L 29 313 L 10 313 L 11 315 L 19 315 L 21 315 L 22 314 L 37 314 L 37 311 Z M 51 312 L 51 315 L 53 314 L 64 314 L 64 313 L 63 313 L 61 312 L 51 312 Z M 77 313 L 77 315 L 80 314 L 92 314 L 77 313 Z M 32 316 L 31 317 L 11 317 L 10 319 L 23 319 L 24 318 L 26 319 L 27 318 L 37 318 Q 38 315 36 316 L 32 316 Z M 56 316 L 55 317 Q 51 316 52 319 L 64 318 L 56 316 Z M 79 318 L 77 321 L 78 322 L 78 333 L 80 332 L 88 333 L 91 332 L 92 335 L 91 337 L 94 337 L 94 331 L 93 330 L 93 322 L 94 321 L 93 318 L 89 319 L 92 319 L 91 322 L 80 322 L 79 320 Q 83 321 84 319 L 81 318 L 79 318 Z M 23 320 L 21 321 L 21 322 L 24 321 L 26 322 L 36 321 L 23 320 Z M 56 321 L 56 322 L 60 322 L 56 321 Z M 62 321 L 62 322 Q 64 321 63 324 L 61 325 L 60 324 L 52 324 L 53 331 L 60 329 L 66 330 L 65 328 L 65 321 L 62 321 Z M 10 322 Q 8 328 14 326 L 16 326 L 18 327 L 20 326 L 34 326 L 34 328 Q 31 327 32 330 L 34 329 L 38 330 L 38 324 L 36 324 L 34 324 L 18 325 Q 15 324 17 323 L 10 322 Z M 10 328 L 10 358 L 11 359 L 12 371 L 16 369 L 25 369 L 26 370 L 31 367 Q 36 369 38 366 L 40 367 L 42 366 L 41 365 L 41 354 L 40 353 L 40 340 Q 38 338 39 333 L 38 331 L 36 332 L 34 331 L 35 334 L 26 334 Q 24 336 23 334 L 25 333 L 27 333 L 29 332 L 16 331 L 19 330 L 20 328 L 16 329 L 10 328 Z M 64 331 L 65 333 Q 66 330 64 331 Z M 65 334 L 63 336 L 66 336 Q 67 333 65 334 Z M 79 334 L 79 354 L 80 355 L 80 366 L 81 371 L 85 372 L 95 370 L 94 361 L 94 359 L 94 351 L 95 350 L 94 347 L 94 339 L 85 339 L 85 338 L 80 337 L 81 335 L 79 334 Z M 55 335 L 53 337 L 53 352 L 55 363 L 55 377 L 56 378 L 56 389 L 58 389 L 57 391 L 57 411 L 58 412 L 58 425 L 59 426 L 60 457 L 63 457 L 71 452 L 73 452 L 71 411 L 70 410 L 71 408 L 70 407 L 70 398 L 68 398 Q 69 395 66 396 L 66 394 Q 69 393 68 396 L 70 395 Q 71 392 69 393 L 69 392 Q 71 387 67 388 L 67 390 L 65 393 L 64 393 Q 65 390 63 391 L 63 393 L 63 397 L 60 396 L 61 394 L 61 391 L 60 393 Q 57 392 59 391 Q 58 388 61 389 L 62 391 L 62 390 L 64 390 Q 66 391 65 388 L 59 388 L 57 387 L 69 386 Q 70 377 68 372 L 67 374 L 64 376 L 57 375 Q 56 372 59 373 L 59 372 Q 55 373 57 369 L 63 371 L 68 371 L 68 358 L 68 356 L 67 355 L 66 338 L 65 338 L 54 338 L 58 336 L 55 335 Z M 138 341 L 136 343 L 134 342 L 132 343 L 132 369 L 140 368 L 140 342 L 138 341 Z M 107 342 L 107 361 L 107 363 L 108 365 L 107 367 L 108 369 L 109 370 L 119 370 L 118 352 L 118 350 L 118 342 L 107 342 Z M 197 363 L 182 369 L 174 369 L 174 384 L 177 385 L 187 385 L 188 384 L 193 385 L 195 385 L 197 384 L 197 363 Z M 214 364 L 212 372 L 212 384 L 232 384 L 232 383 L 232 381 Q 234 377 233 371 L 232 371 L 223 369 L 214 364 Z M 298 367 L 297 379 L 296 380 L 297 384 L 298 383 L 314 383 L 315 382 L 317 383 L 328 383 L 329 382 L 331 383 L 333 383 L 333 370 L 329 369 Q 326 370 328 372 Q 329 374 325 373 L 323 373 L 321 374 Q 314 374 311 371 L 306 374 Q 301 375 300 373 L 302 371 L 307 371 L 312 369 L 307 367 L 305 368 Q 299 370 298 367 Z M 315 367 L 313 370 Q 316 369 318 372 L 326 371 L 325 369 L 321 370 L 315 367 Z M 158 368 L 155 370 L 153 371 L 153 385 L 161 385 L 162 384 L 162 369 Q 162 367 158 368 Z M 33 369 L 33 370 L 41 371 L 41 369 L 33 369 Z M 283 369 L 281 371 L 282 373 L 278 375 L 279 377 L 272 378 L 272 388 L 271 389 L 273 392 L 275 389 L 276 390 L 271 397 L 269 432 L 268 433 L 269 435 L 268 438 L 268 451 L 272 452 L 274 451 L 274 443 L 277 428 L 277 420 L 278 419 L 278 411 L 280 403 L 279 400 L 281 395 L 279 392 L 280 390 L 280 392 L 281 392 L 281 387 L 273 387 L 273 384 L 282 384 L 283 378 L 283 369 Z M 138 370 L 132 371 L 133 383 Q 131 384 134 385 L 140 385 L 140 372 L 138 370 Z M 28 371 L 28 372 Q 30 371 29 374 L 23 373 Q 15 372 13 376 L 10 377 L 10 386 L 15 385 L 43 385 L 42 373 L 28 371 Z M 108 372 L 108 385 L 119 385 L 119 372 L 117 373 L 108 372 Z M 90 373 L 89 374 L 81 374 L 82 386 L 89 386 L 90 385 L 95 386 L 95 373 L 90 373 Z M 275 373 Q 274 376 277 375 Q 278 372 275 373 Z M 302 385 Q 300 387 296 386 L 295 389 L 296 391 L 293 402 L 292 419 L 288 439 L 287 452 L 289 451 L 294 452 L 311 448 L 314 450 L 327 446 L 334 446 L 333 443 L 333 409 L 333 407 L 333 386 L 331 385 L 328 386 L 320 385 L 318 385 Q 311 383 310 387 L 308 390 L 307 390 L 307 387 Q 310 388 309 385 L 305 386 L 302 385 Z M 217 386 L 215 389 L 217 388 L 218 391 L 220 387 L 217 386 Z M 222 386 L 218 392 Q 214 391 215 394 L 214 394 L 215 392 L 213 391 L 214 389 Q 215 386 212 387 L 209 443 L 212 442 L 227 443 Q 229 438 228 429 L 229 428 L 230 403 L 231 402 L 231 393 L 230 395 L 229 394 L 227 393 L 225 396 L 224 397 L 221 397 L 224 396 L 223 394 L 225 394 L 224 392 L 226 392 L 227 390 L 225 390 L 227 387 L 226 387 L 224 386 L 222 386 Z M 246 386 L 246 395 L 244 401 L 244 410 L 243 411 L 242 433 L 240 442 Q 238 447 244 445 L 246 445 L 257 449 L 257 437 L 258 436 L 258 408 L 259 407 L 258 404 L 259 401 L 258 396 L 259 394 L 259 386 L 246 386 Z M 12 387 L 10 389 L 10 408 L 11 409 L 11 417 L 10 418 L 11 420 L 11 430 L 10 431 L 10 451 L 11 452 L 10 458 L 13 457 L 21 458 L 23 458 L 33 458 L 34 457 L 38 458 L 49 457 L 49 448 L 47 440 L 48 436 L 46 426 L 46 416 L 45 415 L 43 388 L 42 388 L 41 387 L 30 387 L 27 389 L 27 387 L 12 387 Z M 83 387 L 83 395 L 84 392 L 83 390 L 86 389 L 86 391 L 89 389 L 91 391 L 94 389 L 92 393 L 93 394 Q 96 393 95 388 L 91 387 L 87 388 L 83 387 Z M 108 387 L 110 391 L 110 388 Q 113 387 112 390 L 114 391 Q 113 388 116 389 L 113 395 Q 114 398 111 397 L 113 393 L 110 395 L 110 397 L 108 398 L 108 440 L 108 442 L 109 449 L 114 451 L 121 452 L 120 447 L 121 445 L 120 440 L 120 410 L 119 409 L 120 406 L 119 394 L 118 394 L 116 397 L 115 397 L 118 389 L 118 392 L 119 392 L 119 387 L 108 387 Z M 133 387 L 134 396 L 137 394 L 136 393 L 138 392 L 137 397 L 136 396 L 135 396 L 135 397 L 133 398 L 133 453 Q 134 455 139 454 L 140 453 L 140 401 L 139 398 L 140 394 L 139 388 L 133 387 Z M 154 387 L 154 391 L 155 391 L 154 387 Z M 159 387 L 156 391 L 157 392 L 160 390 L 159 387 Z M 176 387 L 176 389 L 174 390 L 176 390 L 176 391 L 174 392 L 174 405 L 174 407 L 175 449 Q 178 445 186 446 L 188 446 L 196 445 L 196 424 L 197 423 L 196 421 L 197 419 L 197 404 L 196 403 L 197 399 L 196 393 L 196 391 L 197 389 L 197 387 L 195 390 L 191 387 L 181 387 L 180 389 Q 183 390 181 392 L 182 395 L 180 396 L 181 393 L 179 394 L 180 392 L 179 389 Q 180 386 176 387 Z M 231 387 L 228 391 L 231 392 L 232 388 L 231 387 Z M 161 390 L 158 392 L 160 392 L 159 397 L 161 397 L 160 399 L 159 398 L 156 398 L 155 397 L 156 395 L 153 397 L 153 454 L 156 454 L 158 454 L 162 453 L 161 449 L 162 447 L 162 396 L 162 394 L 161 390 Z M 86 391 L 84 394 L 85 396 L 85 397 L 84 395 L 82 399 L 83 401 L 83 418 L 83 420 L 84 422 L 84 440 L 85 441 L 85 446 L 97 446 L 96 440 L 96 400 L 95 393 L 92 398 L 91 398 L 92 395 L 90 396 L 89 395 L 88 397 L 86 391 Z M 90 392 L 89 395 L 90 395 L 90 392 Z M 272 392 L 271 395 L 272 395 L 272 392 Z M 211 446 Q 212 450 209 449 Q 208 452 211 451 L 213 448 Q 214 445 211 446 Z M 214 446 Q 213 449 216 448 Q 217 445 214 446 Z M 219 447 L 219 448 L 221 448 L 219 447 Z M 184 448 L 182 451 L 179 453 L 181 450 L 180 449 L 178 452 L 177 450 L 173 456 L 175 458 L 175 455 L 179 454 L 181 455 L 184 451 L 184 448 Z M 195 448 L 195 455 L 196 451 L 195 448 Z M 96 449 L 94 450 L 92 453 L 95 451 L 93 454 Q 94 456 91 455 L 91 458 L 97 453 L 96 449 Z M 187 449 L 185 452 L 188 451 Q 189 448 187 449 Z M 190 449 L 190 451 L 192 450 L 190 449 Z M 327 449 L 327 450 L 334 451 L 334 449 L 327 449 Z M 91 450 L 85 455 L 86 460 L 87 460 Q 85 452 90 454 L 92 451 L 91 450 Z M 308 451 Q 307 453 311 453 L 315 455 Q 320 457 319 454 Q 318 451 317 453 L 312 451 L 308 451 Z M 112 452 L 110 454 L 112 454 L 112 452 Z M 239 452 L 239 464 Q 243 463 244 467 Q 243 471 247 469 L 248 473 Q 244 474 243 470 L 240 470 L 240 468 Q 237 469 238 467 L 236 468 L 229 466 L 227 469 Q 226 472 224 469 Q 223 464 226 463 L 226 453 L 208 457 L 208 470 L 207 472 L 191 474 L 189 478 Q 190 480 186 479 L 187 477 Q 186 473 189 474 L 195 467 L 195 463 L 187 466 L 182 466 L 180 469 Q 179 471 178 469 L 163 480 Q 164 482 162 481 L 143 509 L 146 507 Q 148 508 147 506 L 148 506 L 147 510 L 150 508 L 151 508 L 151 513 Q 154 514 153 510 L 156 508 L 157 514 L 157 511 L 163 508 L 165 512 L 166 508 L 170 509 L 169 508 L 173 507 Q 174 505 176 508 L 178 504 L 179 507 L 178 510 L 180 510 Q 182 509 181 505 L 184 503 L 183 508 L 185 510 Q 187 509 186 505 L 189 507 Q 188 510 191 509 L 190 508 Q 190 504 193 503 Q 195 504 193 506 L 194 508 L 198 506 L 198 505 Q 194 506 196 502 L 198 502 Q 196 506 200 505 L 204 500 L 210 495 L 212 495 L 211 493 L 217 485 L 218 488 L 215 492 L 217 492 L 216 497 L 210 498 L 208 501 L 220 500 L 223 501 Q 225 500 224 503 Q 225 505 230 504 L 238 509 L 244 516 L 244 518 L 246 519 Q 245 516 248 517 Q 250 516 248 515 Q 247 509 251 511 L 251 518 L 250 519 L 252 519 L 254 509 L 252 503 L 255 502 L 256 508 L 257 508 Q 258 503 256 502 Q 255 498 259 500 L 261 506 L 262 503 Q 263 499 260 500 L 259 495 Q 260 492 262 494 L 262 491 L 258 490 L 261 488 L 260 484 L 261 478 L 264 472 Q 261 471 262 475 L 259 476 L 258 474 Q 259 470 255 472 L 253 469 L 256 468 L 256 455 L 255 454 L 253 454 L 251 453 L 249 454 Q 245 451 239 452 Z M 324 452 L 322 453 L 320 457 L 318 458 L 315 457 L 313 457 L 308 454 L 301 456 Q 300 453 303 454 L 303 453 L 300 454 Q 296 453 297 456 Q 299 457 297 458 L 294 456 L 292 457 L 286 456 Q 285 459 290 458 L 290 459 Q 285 458 286 461 L 293 459 L 298 460 L 302 464 L 301 468 L 295 465 L 291 467 L 298 467 L 299 469 Q 298 471 301 470 Q 303 471 303 476 L 303 470 L 306 470 Q 305 473 308 472 L 308 480 L 306 482 L 307 484 L 308 481 L 311 480 L 310 475 Q 313 474 312 477 L 313 477 L 311 472 L 311 469 Q 307 470 308 468 L 306 469 L 303 464 Q 309 463 312 467 L 315 472 L 317 481 L 321 478 L 323 479 L 328 476 L 331 477 L 334 477 L 334 457 L 332 458 L 328 456 L 327 460 L 324 462 Q 316 464 317 460 L 322 460 Q 323 457 326 458 L 325 456 L 328 454 L 333 456 Q 336 457 334 453 L 324 452 Z M 291 453 L 289 454 L 289 455 L 294 454 L 291 453 Z M 97 454 L 95 463 L 96 465 L 93 471 L 95 470 Q 94 467 97 468 L 97 454 Z M 113 454 L 113 456 L 115 455 L 113 454 Z M 118 454 L 119 457 L 115 463 L 110 467 L 112 469 L 121 458 L 120 456 Q 121 453 118 454 Z M 161 455 L 161 457 L 160 459 L 160 460 L 162 459 Q 163 454 161 455 Z M 273 455 L 268 457 L 272 457 L 273 458 L 273 455 Z M 74 456 L 72 459 L 74 458 L 74 456 Z M 135 456 L 133 458 L 134 464 L 138 458 L 139 458 L 134 466 L 134 467 Q 136 468 135 466 L 139 463 L 135 468 L 136 471 L 140 465 L 140 462 L 140 458 Q 141 455 138 456 L 135 460 L 135 459 L 135 456 Z M 154 456 L 153 468 L 152 470 L 157 469 L 154 467 L 156 462 L 154 462 L 156 457 L 154 456 Z M 70 457 L 68 459 L 65 458 Q 64 461 67 460 L 69 460 L 71 461 L 70 460 L 71 458 L 70 457 Z M 110 457 L 109 465 L 110 465 L 110 457 Z M 157 457 L 156 460 L 158 463 L 159 459 Q 160 456 157 457 Z M 193 457 L 193 459 L 195 458 L 193 457 Z M 191 458 L 189 460 L 192 461 Q 193 457 191 458 Z M 11 459 L 11 461 L 14 460 L 11 459 Z M 188 459 L 187 462 L 188 462 L 188 459 Z M 269 459 Q 272 463 272 470 L 272 461 L 273 460 L 269 459 Z M 72 460 L 72 464 L 72 466 L 71 468 L 73 470 L 74 466 L 74 464 Q 75 459 72 460 Z M 121 460 L 116 466 L 112 470 L 114 471 L 120 463 L 120 466 L 120 468 L 119 470 L 121 470 L 121 460 Z M 63 461 L 61 463 Q 59 469 63 468 L 62 466 L 64 462 L 63 461 Z M 183 461 L 180 465 L 184 462 L 183 461 Z M 290 462 L 288 463 L 288 464 L 293 463 L 290 462 Z M 20 464 L 18 466 L 20 466 L 20 464 Z M 164 464 L 165 466 Q 166 463 164 464 Z M 177 464 L 175 466 L 177 466 L 177 464 Z M 268 464 L 267 472 L 269 471 L 268 464 Z M 29 466 L 29 468 L 31 467 L 29 466 Z M 88 466 L 88 469 L 90 468 Q 91 465 88 466 Z M 171 466 L 169 469 L 170 470 Q 174 468 171 466 Z M 117 467 L 117 469 L 119 468 L 117 467 Z M 283 467 L 280 468 Q 281 471 278 473 L 280 473 Q 284 471 281 470 L 283 469 L 283 467 Z M 20 468 L 19 471 L 22 471 Q 23 467 20 468 Z M 27 468 L 24 473 Q 23 475 26 474 L 29 469 L 27 468 Z M 162 468 Q 159 472 153 472 L 156 472 L 158 472 L 159 473 L 158 473 Q 154 475 158 477 L 154 482 Q 151 481 152 484 L 150 484 L 148 487 L 151 486 L 138 502 L 140 502 L 136 508 L 143 502 L 141 501 L 152 487 Q 151 484 154 485 L 154 483 L 156 483 L 157 484 L 156 482 L 159 481 L 158 479 L 160 479 L 160 477 Q 161 474 163 476 L 167 472 L 166 471 L 166 469 L 163 470 L 162 468 Z M 69 469 Q 67 473 72 472 L 71 471 Q 72 468 69 469 Z M 287 469 L 287 472 L 274 478 L 275 480 L 282 476 L 292 477 Q 291 479 285 478 L 285 479 Q 292 480 296 477 L 298 474 L 300 474 L 300 473 Q 299 470 298 472 L 294 471 Q 292 473 291 471 L 291 469 L 287 469 Z M 43 470 L 43 472 L 45 471 L 43 470 Z M 87 470 L 83 472 L 81 476 L 82 477 L 84 476 L 88 471 L 87 470 Z M 111 470 L 110 472 L 108 473 L 111 473 L 111 470 Z M 19 472 L 17 477 L 19 476 L 19 472 Z M 64 472 L 62 475 Q 64 476 61 478 Q 60 480 63 479 L 64 477 L 67 475 Q 68 471 65 472 L 65 474 L 64 472 Z M 80 472 L 77 476 Q 76 478 79 477 L 82 473 L 80 472 Z M 99 472 L 98 474 L 101 473 L 99 472 Z M 134 472 L 132 474 L 134 474 L 134 472 Z M 49 473 L 47 476 L 49 475 L 49 473 Z M 114 473 L 112 475 L 114 475 L 114 473 Z M 12 474 L 11 478 L 12 478 L 12 474 Z M 266 474 Q 267 479 263 481 L 263 487 L 265 497 L 271 498 L 272 496 L 270 492 L 272 487 L 268 485 L 273 475 L 266 474 Z M 306 474 L 304 479 L 306 478 L 306 474 Z M 58 475 L 56 477 Q 53 476 54 479 L 50 482 Q 49 484 52 483 L 53 480 Q 58 481 59 477 Q 60 474 58 475 Z M 94 475 L 94 477 L 93 476 L 92 478 L 92 480 L 93 481 L 96 479 Q 97 474 94 475 Z M 112 475 L 108 478 L 110 478 L 111 484 Q 113 483 111 482 L 112 477 L 112 475 Z M 152 476 L 152 478 L 154 477 L 152 476 Z M 302 476 L 298 481 L 302 478 L 302 476 Z M 20 477 L 20 478 L 23 478 L 20 477 Z M 84 477 L 82 480 L 85 478 L 84 477 Z M 100 477 L 99 482 L 97 483 Q 94 482 95 485 L 90 489 Q 91 491 89 490 L 78 504 L 76 503 L 73 509 Q 76 510 75 507 L 85 499 L 99 490 L 106 480 L 102 483 L 100 486 L 92 493 L 93 491 L 88 495 L 91 491 L 91 489 L 93 489 Q 92 486 95 487 L 94 490 L 96 489 Q 95 486 98 487 L 99 485 L 103 479 L 100 477 Z M 126 477 L 123 478 L 124 480 L 126 479 L 126 477 Z M 16 478 L 14 483 L 15 484 L 19 479 L 16 478 Z M 79 478 L 74 484 L 79 480 L 79 478 Z M 89 478 L 87 480 L 89 480 L 89 478 Z M 106 478 L 106 480 L 108 479 L 106 478 Z M 329 478 L 327 480 L 330 481 L 332 481 L 333 481 L 329 478 Z M 73 479 L 62 492 Q 63 494 60 493 Q 59 496 62 495 Q 68 492 69 485 L 73 483 L 73 479 Z M 120 479 L 120 480 L 122 480 L 120 479 Z M 313 479 L 309 486 L 310 488 L 313 483 L 313 479 Z M 45 480 Q 44 483 47 482 Q 48 479 45 480 Z M 80 480 L 72 488 L 71 491 L 72 494 L 81 481 L 80 480 Z M 117 480 L 115 482 L 117 482 L 117 480 Z M 135 480 L 135 481 L 137 481 L 135 480 Z M 144 480 L 142 483 L 144 482 L 144 480 Z M 54 481 L 53 487 L 57 484 L 56 483 L 56 482 L 54 481 Z M 66 481 L 64 484 L 66 483 L 66 481 Z M 283 481 L 280 482 L 281 484 L 286 482 L 283 481 Z M 300 481 L 298 484 L 301 482 L 300 481 Z M 318 481 L 320 484 L 322 481 L 320 482 L 318 481 Z M 22 482 L 20 484 Q 19 486 22 485 Q 25 484 22 482 Z M 141 483 L 138 484 L 136 490 Q 135 492 138 491 L 141 486 L 141 483 Z M 109 484 L 108 486 L 110 485 L 109 484 Z M 303 484 L 301 486 Q 298 485 299 488 L 292 492 Q 289 491 290 494 L 290 495 L 299 490 L 301 490 Q 300 485 304 487 L 305 489 L 306 485 L 305 485 L 303 484 Z M 51 485 L 49 487 L 51 487 L 51 485 Z M 83 485 L 81 488 L 83 487 L 83 485 Z M 136 485 L 134 489 L 136 488 L 136 485 Z M 286 485 L 283 487 L 286 487 L 286 485 Z M 321 485 Q 318 490 321 492 Q 322 500 318 504 L 319 505 L 329 505 Q 330 501 324 503 L 322 500 L 328 498 L 327 497 L 325 498 L 327 495 L 332 496 L 334 496 L 334 487 L 325 490 L 329 490 L 331 490 L 332 493 Q 329 491 322 492 L 323 490 L 321 489 L 321 485 Z M 13 486 L 12 490 L 13 490 L 13 486 Z M 90 486 L 88 488 L 90 488 L 90 486 Z M 276 486 L 274 489 L 276 488 L 276 486 Z M 287 486 L 287 489 L 290 490 L 289 488 Q 290 485 287 486 Z M 154 487 L 152 490 L 154 489 L 154 487 Z M 281 487 L 278 488 L 276 493 L 282 488 L 281 487 Z M 313 487 L 311 490 L 308 489 L 309 493 L 309 492 Q 311 493 313 490 L 313 487 Z M 77 488 L 73 494 Q 72 496 75 495 L 80 489 L 77 488 Z M 132 488 L 129 491 Q 128 493 131 492 L 132 490 L 132 488 Z M 23 489 L 21 492 L 23 491 L 23 489 Z M 48 489 L 48 492 L 50 491 Q 51 488 48 489 Z M 127 489 Q 125 492 128 491 L 127 489 Z M 18 490 L 16 494 Q 15 496 18 495 L 18 490 Z M 84 490 L 84 492 L 86 491 L 84 490 Z M 302 490 L 298 493 L 298 494 Q 302 494 302 492 L 302 490 Z M 144 491 L 129 509 L 130 510 L 144 493 L 144 491 Z M 150 491 L 146 496 L 150 493 L 150 491 Z M 50 492 L 50 496 L 50 495 Q 52 493 50 492 Z M 128 493 L 120 497 L 109 516 L 109 518 L 107 521 L 109 521 L 112 517 L 110 516 L 112 513 L 113 515 L 113 511 L 121 500 L 125 497 L 124 499 L 123 501 L 126 500 L 129 495 Q 130 492 128 493 Z M 317 493 L 316 496 L 317 496 L 317 493 Z M 33 494 L 32 497 L 33 497 L 33 494 Z M 70 494 L 64 501 L 66 501 L 71 495 L 70 494 Z M 116 494 L 114 496 Q 113 499 116 498 L 116 494 Z M 283 494 L 285 496 L 286 496 L 283 494 Z M 73 495 L 67 502 L 68 503 L 73 497 L 73 495 Z M 313 495 Q 311 498 310 496 L 307 503 L 307 504 L 310 502 Q 309 498 313 499 L 313 497 L 313 495 Z M 12 496 L 13 501 L 15 497 L 12 496 Z M 134 496 L 132 498 L 134 498 L 134 496 Z M 147 496 L 146 499 L 145 498 L 144 498 L 146 501 L 149 497 L 147 496 Z M 316 496 L 309 505 L 310 506 L 316 499 L 316 496 Z M 111 498 L 107 503 L 108 504 L 112 499 L 111 498 Z M 298 498 Q 295 502 288 501 L 287 503 L 295 502 L 298 500 L 298 498 Z M 105 500 L 103 504 Q 104 506 101 505 L 98 511 L 100 511 L 107 502 Q 108 499 105 500 Z M 265 500 L 264 506 Q 266 509 267 506 Q 266 503 269 504 L 268 503 Q 269 498 265 500 Z M 330 500 L 330 501 L 332 501 L 330 500 Z M 35 501 L 34 504 L 35 504 L 35 501 Z M 78 501 L 76 503 L 78 503 L 78 501 Z M 112 501 L 110 504 L 112 503 L 112 501 Z M 274 502 L 272 504 Q 271 506 274 505 L 274 502 Z M 16 503 L 14 505 L 16 505 L 16 503 Z M 137 503 L 135 506 L 137 505 L 137 503 Z M 212 503 L 204 505 Q 200 504 201 507 L 192 512 L 189 517 L 185 520 L 183 523 L 188 521 L 193 515 L 197 512 L 199 511 L 195 517 L 187 524 Q 186 526 190 525 L 194 530 L 195 534 L 191 547 L 193 550 L 187 552 Q 181 550 182 554 L 186 553 L 187 556 Q 190 557 189 554 L 192 553 Q 197 551 196 555 L 200 552 Q 204 553 202 548 L 218 541 L 223 534 Q 224 531 228 531 L 230 531 L 232 531 L 238 525 Q 241 524 240 527 L 242 527 L 242 522 L 240 522 L 233 526 L 238 519 Q 237 516 240 517 L 241 520 L 243 520 L 239 513 L 236 519 Q 235 523 230 522 Q 229 519 232 520 L 237 513 L 231 509 L 226 517 L 217 524 L 215 522 L 221 518 L 229 509 Q 231 510 230 507 L 217 505 Q 216 502 212 503 Z M 58 504 L 56 507 L 58 506 L 58 504 Z M 107 504 L 105 506 L 107 506 L 107 504 Z M 299 504 Q 296 508 288 506 L 288 507 Q 296 508 299 506 L 299 504 Z M 331 504 L 332 506 L 333 506 L 331 504 Z M 279 505 L 280 509 Q 283 507 279 505 Z M 72 506 L 69 510 L 70 511 L 72 508 L 72 506 Z M 23 507 L 22 509 L 22 510 L 24 510 L 23 507 Z M 46 507 L 46 509 L 48 508 L 46 507 Z M 61 507 L 59 509 Q 61 512 62 509 Q 63 506 61 507 Z M 134 507 L 131 511 L 134 509 L 134 507 Z M 315 507 L 306 513 L 304 512 L 302 512 L 297 514 L 291 513 L 290 516 L 288 515 L 286 515 Q 283 516 285 518 Q 286 521 281 519 Q 279 515 277 519 Q 274 518 275 521 Q 274 524 270 523 Q 271 527 268 529 Q 269 531 266 530 L 263 538 L 261 540 L 253 540 L 252 537 L 250 537 L 249 542 L 238 544 L 236 544 L 233 543 L 227 545 Q 220 553 211 558 Q 204 560 203 556 L 197 559 L 186 558 L 181 555 L 175 558 L 172 557 L 168 559 L 166 556 L 163 558 L 161 558 Q 155 558 154 555 L 149 558 L 144 555 Q 138 557 137 554 L 128 555 L 126 555 Q 117 557 115 551 L 117 544 Q 117 541 113 541 L 109 537 L 113 533 Q 117 534 119 531 L 124 532 L 128 531 L 130 531 L 132 532 L 136 531 Q 143 530 145 536 Q 144 538 147 537 L 150 538 L 155 538 Q 156 535 162 536 L 171 531 L 176 524 Q 178 525 177 522 L 182 520 Q 186 518 183 516 L 176 518 L 174 517 L 172 518 L 162 517 L 160 517 L 148 517 L 145 519 L 141 517 L 136 517 L 130 522 L 116 528 Q 113 527 114 530 L 107 529 L 105 532 L 85 547 L 77 550 L 49 554 L 46 560 L 32 565 L 14 566 L 12 568 L 12 577 L 13 578 L 12 580 L 13 582 L 12 584 L 12 592 L 31 592 L 33 592 L 35 591 L 38 592 L 40 591 L 43 592 L 54 592 L 55 591 L 59 592 L 79 592 L 81 592 L 83 593 Q 87 594 89 592 Q 95 590 97 593 Q 102 595 104 592 Q 105 595 112 593 L 114 593 L 128 593 L 129 592 L 131 593 L 133 592 L 169 592 L 170 591 L 193 590 L 195 590 L 199 591 L 315 590 L 324 588 L 334 590 L 334 565 L 332 565 L 332 560 L 322 560 L 320 560 Q 313 558 315 563 L 329 564 L 328 566 L 323 565 L 320 564 Q 316 563 315 566 L 316 581 L 312 582 L 313 578 L 312 576 L 312 574 L 312 564 L 309 564 L 304 570 L 303 566 L 310 563 L 312 563 L 312 560 L 306 559 Q 301 560 303 556 L 308 555 L 305 554 L 303 550 L 308 548 Q 313 550 311 544 L 313 544 L 315 542 L 326 541 Q 328 542 327 546 L 325 547 L 321 546 L 318 547 Q 315 546 317 545 L 316 544 L 314 547 Q 316 550 323 548 L 324 550 L 317 550 L 315 552 L 327 553 L 324 554 L 330 555 L 330 556 Q 322 558 319 555 L 317 555 L 315 558 L 329 558 L 330 559 Q 334 559 334 559 L 334 532 L 327 534 L 325 534 Q 318 538 306 536 L 304 536 Q 300 535 302 540 L 298 543 L 281 543 L 270 545 L 269 549 L 260 555 Q 257 556 258 554 Q 259 551 263 552 L 267 547 L 267 544 L 273 542 L 287 541 L 288 540 L 291 541 L 294 540 Q 301 543 299 537 Q 298 534 297 536 L 292 533 L 285 534 L 284 537 L 283 536 L 282 535 L 286 531 Q 294 529 298 533 L 302 531 Q 304 534 310 533 L 313 534 L 333 530 Q 337 528 334 526 L 332 527 Q 327 528 326 526 L 324 527 L 319 525 L 317 525 L 313 529 L 301 529 L 298 525 L 290 525 L 289 526 Q 281 528 283 523 L 300 522 L 301 526 L 309 526 L 310 527 L 312 526 L 314 522 L 322 524 L 329 523 L 328 521 L 333 518 Q 336 516 334 510 L 329 507 L 328 509 Q 324 510 322 507 L 315 507 Z M 136 508 L 134 511 L 136 510 L 136 508 Z M 262 508 L 261 513 L 255 518 L 256 520 L 260 518 L 261 516 L 269 512 L 273 514 L 284 513 L 285 512 L 281 510 L 276 512 L 274 512 L 271 510 L 268 511 L 262 508 Z M 95 509 L 95 512 L 97 511 Q 98 508 95 509 Z M 103 509 L 101 511 L 103 511 L 103 509 Z M 106 509 L 104 512 L 106 512 L 106 509 Z M 45 511 L 44 514 L 42 517 L 45 516 L 45 511 Z M 92 511 L 90 514 L 92 513 L 92 511 Z M 131 511 L 129 513 L 131 513 L 131 511 Z M 134 511 L 132 513 L 134 514 L 134 511 Z M 79 512 L 76 517 L 79 515 L 79 512 Z M 127 512 L 122 518 L 127 514 L 127 512 Z M 66 513 L 64 515 L 66 515 L 66 513 Z M 103 513 L 98 518 Q 97 520 100 519 L 103 515 L 103 513 Z M 46 514 L 46 516 L 49 515 L 46 514 Z M 90 514 L 88 516 L 90 516 L 90 514 Z M 133 514 L 131 516 L 133 516 L 133 514 Z M 38 515 L 37 518 Q 39 521 40 518 Q 41 514 38 515 Z M 34 516 L 33 519 L 36 519 Q 37 515 34 516 Z M 84 516 L 79 520 Q 74 519 75 522 L 80 521 Q 81 523 82 521 Q 81 518 84 519 L 84 516 Z M 114 516 L 108 524 L 110 526 L 113 521 Q 112 518 115 519 L 114 521 L 115 522 L 119 519 L 114 516 Z M 25 518 L 25 520 L 27 519 L 25 518 Z M 70 518 L 67 522 Q 66 524 69 523 Q 68 520 71 519 L 70 518 Z M 73 518 L 70 523 Q 73 524 72 522 Q 76 520 73 518 Z M 107 518 L 104 519 L 101 526 L 98 527 L 98 525 L 96 528 L 97 529 L 101 528 L 107 520 L 107 518 Z M 12 519 L 12 521 L 14 520 L 12 519 Z M 21 519 L 19 521 L 21 521 L 21 519 Z M 51 519 L 49 521 L 51 521 L 51 519 Z M 90 519 Q 89 522 92 521 Q 93 518 90 519 Z M 100 519 L 100 521 L 102 520 L 100 519 Z M 246 519 Q 244 524 248 523 L 250 520 L 246 519 Z M 262 519 L 259 522 L 262 522 Q 265 521 262 519 Z M 16 520 L 11 526 Q 10 529 14 527 Q 14 522 17 521 L 16 520 Z M 85 520 L 84 524 L 85 524 L 85 520 Z M 88 520 L 86 522 L 88 522 L 88 520 Z M 60 521 L 58 523 L 61 523 Q 62 520 60 521 Z M 62 521 Q 61 524 64 523 Q 65 520 62 521 Z M 107 521 L 103 526 Q 102 528 105 527 L 107 523 L 107 521 Z M 77 524 Q 76 527 79 526 Q 80 523 77 524 Z M 183 525 L 176 528 L 174 531 L 163 538 Q 162 542 165 543 L 164 545 Q 163 551 167 554 L 168 551 L 166 547 Q 165 544 168 545 L 169 545 Q 168 547 172 546 L 174 550 L 175 550 Q 173 544 177 545 L 179 551 Q 180 548 187 550 L 188 549 L 186 548 L 183 542 L 184 538 L 186 543 L 187 541 L 187 536 L 191 536 L 191 535 L 191 533 Q 193 534 192 531 L 188 527 L 185 528 Q 184 531 187 530 L 187 534 L 179 533 Q 178 530 183 531 L 182 530 L 183 527 L 183 525 Z M 248 525 L 245 528 L 249 529 Q 252 527 248 525 Z M 239 527 L 239 531 L 240 531 L 239 527 Z M 84 528 Q 82 531 85 530 L 84 528 Z M 86 528 L 86 529 L 89 529 L 86 528 Z M 244 529 L 241 535 L 236 541 Q 241 543 243 540 Q 246 541 245 538 Q 243 536 246 535 Q 251 534 253 537 L 260 537 L 262 532 L 263 530 L 258 531 L 256 530 L 254 531 Q 245 533 244 529 Z M 237 531 Q 236 534 239 533 Q 240 530 237 531 Z M 120 533 L 118 535 L 123 538 L 124 536 L 120 533 Z M 128 533 L 127 535 Q 130 537 136 536 L 137 539 Q 136 543 141 541 L 143 549 L 137 546 L 133 546 L 126 549 L 120 549 L 120 542 L 118 550 L 122 552 L 125 551 L 128 552 Q 132 553 134 551 L 142 552 L 144 552 Q 148 553 146 549 L 149 549 L 150 545 L 148 540 Q 143 541 144 539 L 138 533 L 136 534 Q 129 536 128 533 Z M 228 533 L 226 535 L 229 540 L 231 540 L 229 537 Q 228 534 231 535 Q 232 532 228 533 Z M 235 533 L 234 537 L 236 536 L 235 533 Z M 38 536 L 36 538 Q 35 540 38 539 L 38 536 Z M 41 536 L 39 538 Q 41 541 42 538 Q 43 535 41 536 Z M 45 536 L 43 538 L 45 538 L 45 536 Z M 113 536 L 113 538 L 118 540 L 118 539 L 113 536 Z M 28 537 L 26 539 L 31 539 Q 32 536 30 537 L 28 537 Z M 33 537 L 33 539 L 35 538 L 33 537 Z M 47 537 Q 47 541 49 538 L 47 537 Z M 50 537 L 50 539 Q 51 541 53 539 L 55 540 L 57 539 L 58 540 L 58 537 L 50 537 Z M 60 537 Q 58 540 62 541 L 63 538 L 60 537 Z M 25 538 L 23 540 L 25 540 L 25 538 Z M 128 538 L 125 542 L 128 540 L 128 538 Z M 69 539 Q 66 541 69 542 Q 72 541 69 539 Z M 133 539 L 131 542 L 128 543 L 127 545 L 129 544 L 131 545 L 135 544 L 133 539 Z M 31 541 L 28 545 L 27 543 Q 23 542 21 545 L 21 546 L 24 545 L 29 547 L 31 547 L 35 543 Q 36 540 34 541 L 31 545 L 30 545 L 31 543 L 31 541 Z M 38 541 L 33 548 L 36 549 L 36 547 L 38 548 L 42 542 L 41 541 L 39 544 L 38 541 Z M 153 541 L 152 551 L 151 552 L 152 554 L 156 552 L 154 549 Q 155 543 153 541 Z M 47 542 L 44 543 L 43 547 L 47 544 L 47 542 Z M 48 542 L 44 549 L 43 551 L 50 550 L 51 549 L 50 546 L 48 546 L 52 544 L 48 542 Z M 43 543 L 39 548 L 36 549 L 30 559 L 36 554 L 32 559 Q 33 561 30 560 L 30 562 L 35 559 L 34 561 L 36 561 L 37 559 L 40 555 L 36 558 L 37 556 Q 35 551 40 552 L 42 549 L 38 551 L 43 545 L 43 543 Z M 54 543 L 51 548 L 56 544 L 54 543 Z M 81 543 L 80 544 Q 77 543 78 546 L 84 544 L 81 543 Z M 160 543 L 160 548 L 158 547 L 157 549 L 160 550 L 163 553 L 161 549 L 162 545 Q 163 542 160 543 Z M 187 543 Q 185 546 189 548 L 189 544 L 187 543 Z M 321 543 L 318 545 L 324 545 Q 325 542 321 543 Z M 15 544 L 14 547 L 15 547 L 15 544 Z M 58 544 L 53 549 L 55 550 L 56 549 Q 67 550 73 548 Q 74 544 71 545 L 71 547 L 70 545 L 68 545 Q 69 548 67 547 L 67 545 L 57 548 L 59 545 L 58 544 Z M 60 544 L 60 546 L 62 545 L 60 544 Z M 77 544 L 74 547 L 77 547 L 77 544 Z M 217 544 L 215 546 L 212 545 L 209 551 L 211 554 L 213 553 L 211 550 L 216 547 Q 218 546 217 549 L 219 549 L 218 546 Q 219 543 217 544 Z M 171 548 L 171 554 L 173 555 L 175 554 L 171 548 Z M 206 548 L 204 551 Q 206 554 207 551 Q 208 547 206 548 Z M 24 550 Q 23 553 26 552 Q 27 549 24 550 Z M 30 550 L 31 552 Q 32 549 30 550 Z M 308 550 L 307 552 L 312 552 Q 311 549 308 550 Z M 12 552 L 12 554 L 14 553 L 12 552 Z M 157 552 Q 155 555 158 554 L 157 552 Z M 31 554 L 28 555 L 24 562 L 26 564 L 28 563 L 27 562 L 27 561 Q 26 558 29 559 L 31 556 L 31 554 Z M 43 554 L 40 558 L 40 559 L 44 558 L 45 556 L 44 556 L 43 554 Z M 22 555 L 19 559 Q 20 561 18 560 L 15 560 L 16 557 L 11 558 L 11 563 L 15 563 L 14 562 L 17 561 L 16 563 L 18 563 L 23 556 L 22 555 Z M 24 555 L 25 558 L 26 556 L 24 555 Z M 19 556 L 17 559 L 19 558 L 19 556 Z M 306 556 L 306 558 L 312 558 L 312 556 L 306 556 Z M 21 562 L 19 564 L 21 564 L 21 562 Z "></path><path d="M 169 21 L 173 21.5 Q 171 26 169 22.5 L 169 21 Z "></path><path d="M 170.5 29 L 174 30.5 L 169.5 31 L 170.5 29 Z "></path><path d="M 275.5 187 L 276 188.5 L 274.5 190 Q 269.8 188.8 268.5 191 L 268 189 Q 273.3 190 275.5 187 Z "></path><path d="M 248 371 L 256.5 373 Q 257.8 370.7 259 373.5 Q 257.8 376.3 252.5 375 L 248 372.5 L 248 371 Z "></path><path d="M 315.5 387 Q 318.1 386.3 317 389 L 314 390.5 Q 314.8 392.8 312.5 392 L 311 392.5 L 315.5 387 Z "></path><path d="M 325.5 387 L 324.5 389 L 325.5 387 Z "></path><path d="M 23.5 388 L 26 388.5 L 23.5 392 L 20.5 394 L 19 393.5 L 18.5 395 L 18 393.5 L 21.5 389 L 23.5 388 Z "></path><path d="M 31.5 388 L 32 390.5 L 29.5 394 L 29 392.5 L 31.5 388 Z "></path><path d="M 34.5 388 L 35 389.5 L 33 390.5 L 34.5 388 Z "></path><path d="M 186 388 Q 188.7 386.9 188 389.5 L 187 393 L 184 394.5 L 183.5 396 L 183 393.5 Q 186.8 392.3 186 388 Z "></path><path d="M 189.5 388 L 190 390 L 192 390.5 L 191 392.5 L 193 392.5 L 193.5 394 L 194.5 392 L 195 393.5 Q 193.8 396.3 192.5 394 L 190.5 393 L 188.5 396 L 188 394.5 L 190 391.5 L 189.5 388 Z "></path><path d="M 223.5 388 L 224 389.5 L 222.5 392 L 222 390.5 L 223.5 388 Z "></path><path d="M 311.5 388 L 310 390.5 L 307.5 395 L 307 393.5 L 311.5 388 Z "></path><path d="M 319.5 388 L 320.5 390 L 319 389.5 Q 319.8 391.8 317.5 391 L 319.5 388 Z "></path><path d="M 40.5 389 L 40 390.5 L 39.5 393 L 39 390.5 L 40.5 389 Z "></path><path d="M 177.5 389 L 178 391.5 L 176 392.5 L 177.5 389 Z "></path><path d="M 250.5 389 L 252.5 392 Q 255.1 392.8 254 389.5 L 255 389.5 L 254 394 L 251.5 395 L 252 393.5 L 250.5 389 Z "></path><path d="M 297.5 389 L 299.5 390 L 301 389.5 L 300 392 Q 297.3 390.9 298 393.5 L 296.5 396 L 296 394.5 L 298 390.5 L 297.5 389 Z "></path><path d="M 257.5 390 L 258 391.5 L 255 393.5 L 257.5 390 Z "></path><path d="M 304.5 390 L 306 392.5 L 304 391.5 L 304.5 390 Z "></path><path d="M 16.5 391 L 16 392.5 L 14.5 396 L 14 393.5 L 16.5 391 Z "></path><path d="M 219.5 392 L 221 394.5 L 219.5 397 L 219 395.5 L 220 393.5 L 218 393.5 L 219.5 392 Z "></path><path d="M 27.5 393 L 26.5 395 L 27.5 393 Z "></path><path d="M 248.5 393 L 248 394.5 L 247.5 397 L 247 394.5 L 248.5 393 Z "></path><path d="M 31.5 394 L 31 395.5 L 30.5 397 L 30 395.5 L 31.5 394 Z "></path><path d="M 33.5 394 L 34 395.5 L 32.5 398 L 32 396.5 L 33.5 394 Z "></path><path d="M 278.5 395 L 277.5 397 L 278.5 395 Z "></path><path d="M 305 396 L 307 396.5 L 305 397.5 L 305 396 Z "></path><path d="M 311.5 459 L 314 460.5 L 310.5 462 L 308 460.5 L 311.5 459 Z "></path><path d="M 328.5 460 Q 332.3 459.3 333 461.5 L 332.5 463 L 327 461.5 L 328.5 460 Z "></path><path d="M 329 464 L 333 465 L 332.5 467 L 329 466 L 329 464 Z "></path><path d="M 162 472 L 164 472.5 L 162 473.5 L 162 472 Z "></path><path d="M 247 474 Q 250.3 472.9 249 477 Q 245.7 478.1 247 474 Z "></path><path d="M 97.5 484 L 96.5 486 L 97.5 484 Z "></path><path d="M 223.5 507 Q 227.7 505.9 226 510 L 222 511 Q 223.1 513.7 220.5 513 Q 217.7 511.8 220 510.5 Q 219.3 508.3 221.5 509 L 223.5 507 Z "></path><path d="M 232.5 511 Q 235.1 510.2 234 513.5 Q 232.5 516.5 231 513.5 L 232.5 511 Z "></path><path d="M 226.5 524 L 227 526 L 222 529.5 L 212.5 540 Q 203.8 543.3 198.5 550 L 198 548.5 L 198.5 547 Q 196.3 547.8 197 545.5 L 196 543.5 Q 197.5 540.5 199 543.5 L 199.5 546 L 200 541 Q 202.7 539.9 202 542.5 Q 204 546 206 541.5 L 205 537 Q 208.3 535.7 207 540.5 L 208.5 540 L 210 539.5 L 209 537.5 L 210 537.5 L 210.5 539 L 216 534.5 L 218 531.5 L 226.5 524 Z M 223 539 L 219 544 L 222 546 Q 220 540 224 541 Q 225 538 223 539 Z "></path><path d="M 342.5 544 L 343.5 546 Q 340.7 546.7 342.5 544 Z "></path><path d="M 179 545 Q 181.7 543.9 181 546.5 L 182 549 L 179 547.5 L 179 545 Z "></path><path d="M 233.5 552 Q 245.6 550.4 253.5 553 L 257 552 L 256.5 555 L 231.5 555 L 222.5 557 L 220 555.5 L 221.5 553 L 226.5 554 L 233.5 552 Z "></path><path d="M 343.5 553 L 345 555.5 L 343 556.5 L 343 554.5 L 343.5 553 Z "></path><path d="M 342.5 560 L 345 561.5 L 343.5 561 L 342.5 560 Z "></path><path d="M 320.5 566 Q 324.7 564.9 323 569 L 319 567.5 L 320.5 566 Z "></path><path d="M 343.5 577 L 344.5 579 L 343.5 577 Z "></path><path d="M 341.5 588 L 342 590.5 L 340 589.5 L 341.5 588 Z "></path><path d="M 345.5 588 L 346 590.5 L 345 590.5 L 345.5 588 Z "></path></svg>