<svg width="350" height="600" version="1.1" xmlns="http://www.w3.org/2000/svg" desc="Created with imagetracer.js version 1.2.5"><path d="M 252.5 4 L 292.5 5 L 294.5 5 Q 300 6.5 301.5 4 L 327.5 4 L 329.5 4 Q 335.4 1.9 334 6.5 L 334 8.5 L 334 25.5 L 335 28.5 L 335 30.5 L 334 34.5 L 335 35.5 L 335 52.5 L 334 56.5 L 335 57.5 L 335 142.5 L 336 146.5 L 335 147.5 L 335 166.5 L 336 167.5 L 336 191.5 L 337 193.5 L 336 194.5 L 336 239.5 L 336 241.5 L 336 301.5 L 337 302.5 L 336 306.5 L 337 307.5 L 337 336.5 L 337 338.5 L 337 405.5 L 336 407.5 L 337 410.5 L 337 412.5 L 337 528.5 L 338 529.5 L 338 538.5 L 338 540.5 L 338 591.5 L 335.5 595 L 268.5 595 L 266.5 594 L 264.5 594 L 259.5 595 L 258.5 594 L 243.5 594 L 242.5 595 L 230.5 595 L 228.5 596 L 225.5 595 L 223.5 595 L 215.5 596 L 214.5 595 L 120.5 594 L 119.5 595 L 93.5 597 L 92.5 596 Q 84.3 597.7 80.5 595 L 79.5 596 L 59.5 596 Q 58 598.5 52.5 597 L 50.5 596 L 47.5 597 L 16.5 598 L 15.5 597 L 7.5 597 L 4 594.5 L 4 502.5 L 5 501.5 L 4 500.5 L 4 489.5 L 5 486.5 L 4 481.5 L 4 479.5 L 4 447.5 L 5 446.5 L 4 445.5 L 4 362.5 L 3 361.5 L 3 351.5 L 4 348.5 L 3 346.5 L 4 342.5 L 3 341.5 L 3 320.5 L 4 319.5 L 4 304.5 L 3 302.5 L 4 299.5 L 3 298.5 L 3 288.5 Q 5.8 286.7 4 280.5 L 4 278.5 L 3 271.5 L 4 266.5 L 3 264.5 Q 5.8 262.8 4 256.5 L 3 255.5 L 3 247.5 L 4 246.5 L 4 73.5 L 5 72.5 L 4 71.5 L 4 11.5 L 3 10.5 L 4 6 L 13.5 6 L 14.5 7 L 29.5 7 L 30.5 6 L 41.5 5 L 44.5 6 L 45.5 5 L 54.5 5 L 57.5 6 L 59.5 6 L 61.5 5 L 64.5 6 L 66.5 5 L 67.5 6 L 81.5 6 L 82.5 7 L 83.5 6 L 98.5 6 L 99.5 5 L 100.5 6 L 109.5 6 L 110.5 5 L 132.5 5 L 133.5 6 L 159.5 6 L 161.5 5 Q 163.2 7.8 168.5 7 L 170.5 7 L 173.5 6 L 174.5 7 L 209.5 7 L 211.5 7 L 216.5 6 L 218.5 7 L 220.5 7 L 235.5 5 L 237.5 6 L 238.5 5 L 251.5 5 L 252.5 4 Z M 129 8 L 128 9 L 110 9 L 108 10 L 106 10 L 104 9 L 100 10 L 74 10 L 71 9 L 68 10 L 65 9 L 63 9 L 58 10 L 55 9 L 51 10 Q 49 7 43 9 L 41 9 L 32 11 L 17 11 L 16 10 L 7 10 L 7 44 L 8 45 L 8 81 L 7 82 L 8 87 L 8 89 L 7 91 L 8 93 L 8 104 L 7 105 L 7 123 L 8 124 L 8 152 L 7 153 L 8 155 L 7 161 L 7 163 L 7 190 L 8 191 L 7 192 L 7 275 L 7 277 L 7 286 L 6 287 L 6 296 L 7 297 L 7 360 L 6 361 L 7 364 L 7 423 L 10 422 Q 18 423 22 429 L 22 428 L 28 424 L 27 423 Q 18 418 16 408 Q 16 394 21 386 L 28 379 L 39 374 L 48 376 Q 50 377 49 375 L 52 373 L 50 369 L 51 364 L 54 362 L 52 356 Q 51 348 55 347 L 52 341 L 52 332 L 57 323 L 61 322 L 64 317 L 74 310 L 79 310 Q 82 311 81 316 L 88 317 L 89 314 L 97 312 Q 103 312 106 315 Q 110 319 112 326 L 111 329 L 114 327 Q 122 326 123 331 Q 124 334 122 333 L 119 329 Q 114 328 113 331 L 111 331 L 112 334 Q 114 340 110 339 Q 111 334 108 332 L 110 327 L 107 320 L 102 315 Q 93 314 89 317 Q 90 321 88 322 L 86 322 L 86 318 L 84 319 L 80 318 L 78 312 L 72 313 L 63 321 Q 65 327 59 325 L 54 333 L 56 342 Q 55 345 58 344 L 59 347 L 56 348 L 55 351 L 58 362 Q 61 367 69 368 L 83 368 L 86 366 L 91 369 L 98 365 Q 100 366 99 363 L 104 364 L 102 369 L 103 373 L 111 372 L 113 370 L 115 360 L 124 334 L 125 327 L 130 315 L 127 310 L 128 304 L 123 302 L 126 291 L 130 287 L 130 285 Q 137 277 141 267 L 143 263 Q 142 260 145 261 L 148 255 L 155 251 L 154 249 L 156 248 L 157 246 Q 158 241 156 240 Q 155 234 157 233 L 155 227 L 149 222 L 146 220 L 139 203 L 134 195 Q 135 186 133 182 L 133 180 L 135 172 L 134 169 L 135 163 L 142 151 L 156 140 L 161 139 L 159 132 L 152 131 L 149 124 L 147 122 L 143 116 L 141 114 L 143 111 L 141 112 L 139 107 L 134 106 L 132 99 Q 131 93 134 91 L 132 85 L 125 81 L 120 80 L 111 80 L 104 84 L 103 89 L 101 88 L 100 91 L 98 90 L 95 94 L 92 93 L 97 87 L 100 88 L 101 85 L 106 80 L 116 76 L 117 77 L 125 77 L 132 81 L 136 87 L 140 85 L 142 82 L 152 77 L 155 78 L 159 76 L 161 77 L 163 77 L 166 76 L 171 78 L 171 77 L 177 74 L 182 76 L 185 82 L 191 86 L 197 83 L 203 85 L 206 79 L 204 78 Q 202 81 196 79 Q 192 78 193 74 Q 196 69 203 67 Q 207 65 206 69 L 202 71 L 199 75 L 205 74 L 213 68 L 221 68 L 225 75 L 224 78 L 235 72 Q 237 71 236 74 L 231 77 L 233 81 L 230 86 Q 227 85 228 88 L 225 89 L 224 93 L 219 97 L 217 96 Q 212 95 214 100 L 217 101 L 221 100 L 222 97 L 232 93 Q 235 92 234 95 L 227 98 L 224 102 L 217 105 L 217 103 L 216 105 L 209 109 L 203 106 Q 205 100 200 102 Q 201 110 197 114 Q 194 118 185 117 L 188 127 L 187 129 L 198 133 L 200 132 L 207 134 L 209 134 L 220 140 L 220 138 L 223 135 L 227 134 L 232 136 L 237 135 L 239 136 L 243 135 L 243 129 L 246 123 L 246 119 L 249 110 L 253 83 L 258 67 L 260 52 L 267 26 L 267 21 L 269 18 L 270 9 L 204 10 L 202 10 L 200 11 L 189 11 L 188 10 L 184 11 L 182 10 L 145 10 L 144 9 L 142 10 L 140 10 L 129 8 Z M 273 8 L 273 14 L 270 21 L 265 46 L 262 54 L 261 64 L 259 69 L 259 74 L 249 120 Q 247 125 253 123 L 258 104 L 258 98 L 261 88 L 261 81 L 267 60 L 269 47 L 271 42 L 272 31 L 277 13 Q 279 6 273 8 Z M 292 8 L 285 9 L 283 24 L 283 26 L 281 31 L 279 50 L 277 55 L 277 61 L 268 105 L 267 116 L 265 121 L 265 126 L 265 128 L 264 135 L 262 138 L 263 143 L 269 143 L 272 145 L 279 146 L 280 149 L 278 152 L 278 156 Q 275 155 276 158 L 274 159 L 268 157 L 263 157 L 263 159 Q 264 163 262 165 L 263 170 L 263 172 L 259 183 L 265 182 L 268 186 L 268 183 L 276 178 Q 280 179 282 176 L 286 177 L 288 177 L 290 176 L 294 177 Q 301 182 304 192 Q 305 199 303 202 L 313 202 L 317 205 Q 323 204 325 207 Q 330 210 330 219 L 331 219 L 331 177 L 330 176 L 331 174 L 330 171 L 330 106 L 329 105 Q 332 103 330 98 L 330 96 L 329 92 L 330 90 L 329 88 Q 328 82 330 81 L 329 76 Q 328 71 330 70 L 330 61 L 329 60 L 329 8 L 296 8 L 295 9 L 292 8 Z M 280 9 L 275 30 L 274 40 L 274 42 L 272 46 L 273 49 L 271 49 L 268 67 L 263 83 L 260 107 L 258 113 L 259 118 L 259 119 L 258 117 L 256 123 L 259 123 L 260 123 Q 259 125 262 124 L 265 107 L 265 105 L 268 90 Q 271 88 267 87 L 269 87 L 271 78 L 270 76 L 274 60 L 274 53 Q 277 47 277 39 L 277 37 L 282 12 Q 283 8 280 9 Z M 218 70 L 219 72 Q 220 69 218 70 Z M 215 74 L 215 75 L 217 75 L 215 74 Z M 213 75 L 212 77 L 214 76 L 213 75 Z M 224 79 L 223 81 L 221 82 L 224 82 L 224 79 Z M 160 80 L 161 82 L 163 81 L 160 80 Z M 209 80 L 209 82 L 211 81 L 209 80 Z M 219 81 L 217 84 L 219 84 L 219 81 Z M 154 85 L 154 87 L 156 86 L 154 85 Z M 196 86 L 196 88 L 198 87 L 196 86 Z M 186 87 L 185 90 L 186 90 L 186 87 Z M 139 88 Q 136 92 140 91 L 139 88 Z M 171 92 L 169 94 L 171 94 L 171 92 Z M 205 92 L 205 94 L 207 93 L 205 92 Z M 135 94 L 134 97 L 135 97 L 135 94 Z M 186 96 L 185 99 L 186 99 L 186 96 Z M 139 98 L 138 101 L 139 101 L 139 98 Z M 172 102 L 172 105 L 173 105 Q 174 101 172 102 Z M 176 106 L 174 108 L 176 109 L 176 106 Z M 183 106 L 183 108 L 185 107 L 183 106 Z M 145 113 L 144 115 L 146 116 L 145 113 Z M 190 113 L 190 114 L 192 114 L 190 113 Z M 147 116 Q 145 119 148 118 L 147 116 Z M 154 118 L 151 120 L 154 120 L 154 118 Z M 181 120 L 180 123 L 181 123 L 181 120 Z M 152 123 L 153 125 L 155 124 L 152 123 Z M 251 124 L 247 126 L 252 127 L 257 127 L 251 124 Z M 170 125 L 168 129 L 170 128 L 170 125 Z M 183 125 L 183 131 L 184 131 L 183 125 Z M 161 127 L 159 128 L 157 128 Q 153 127 154 130 L 157 131 L 161 129 L 161 127 Z M 260 127 L 261 128 L 262 129 Q 263 126 260 127 Z M 250 128 L 250 130 L 249 135 L 247 134 L 245 135 L 247 136 L 255 137 Q 256 139 257 137 L 256 135 L 257 133 L 256 130 L 250 128 Z M 200 135 L 200 138 Q 201 144 198 146 Q 193 145 192 150 L 190 147 L 196 144 L 196 141 L 191 146 L 188 146 L 187 148 Q 189 147 188 150 L 184 151 Q 169 152 164 144 L 165 141 L 163 142 L 162 141 L 160 142 Q 157 141 158 145 L 169 154 L 176 157 L 180 156 Q 186 154 188 157 L 194 156 L 199 165 L 200 171 L 201 171 L 200 166 L 201 164 L 198 156 L 204 145 L 205 138 L 200 135 Z M 193 136 Q 191 139 194 138 L 193 136 Z M 197 137 L 196 141 L 197 141 L 197 137 Z M 209 137 L 207 146 L 204 150 Q 203 152 207 151 L 207 154 L 206 156 L 210 157 L 211 157 Q 208 154 209 148 L 207 149 L 209 146 Q 208 143 211 144 Q 213 143 211 142 L 212 140 L 209 137 Z M 224 137 L 223 144 L 237 148 L 238 145 L 241 143 L 243 143 Q 245 144 244 141 Q 232 141 224 137 Z M 244 137 L 244 139 L 246 138 L 244 137 Z M 247 138 L 248 140 Q 256 138 258 143 Q 260 144 259 140 Q 255 137 247 138 Z M 167 142 L 167 144 L 169 143 L 167 142 Z M 213 143 L 213 145 L 211 145 L 211 146 Q 213 145 212 152 L 215 150 L 215 152 L 215 153 Q 217 152 216 156 L 219 157 Q 221 158 220 162 L 221 162 L 220 157 L 221 155 L 220 153 L 217 155 Q 216 152 219 153 L 219 152 L 217 152 L 217 149 Q 214 150 215 148 L 216 146 Q 212 147 214 143 L 213 143 Z M 169 144 L 170 146 L 171 146 L 169 144 Z M 260 145 Q 262 147 261 153 L 273 156 L 275 148 L 260 145 Z M 174 146 L 175 148 L 177 147 L 174 146 Z M 242 146 L 240 148 L 241 152 L 242 150 L 242 146 Z M 150 147 L 144 152 L 146 155 L 147 153 L 147 155 L 150 157 L 150 158 L 149 156 L 147 157 L 144 153 L 141 158 Q 142 162 140 161 Q 137 162 138 166 L 138 168 L 139 172 L 136 179 L 137 181 L 136 183 L 138 188 L 141 188 L 145 180 L 143 175 L 146 169 L 144 169 L 149 160 L 150 161 L 147 166 L 148 167 L 154 164 L 153 161 L 151 161 L 153 160 L 153 158 Q 152 154 155 155 L 154 158 L 155 163 L 158 164 Q 159 167 161 166 L 160 168 L 163 167 L 163 169 Q 165 168 164 171 L 166 170 L 166 172 L 170 169 L 169 171 L 169 174 L 178 184 Q 180 183 179 186 L 181 185 L 181 188 Q 180 191 184 190 L 187 189 L 188 192 L 190 185 L 190 187 L 195 190 L 195 191 L 193 190 L 189 188 L 190 190 L 188 193 L 190 196 L 193 195 L 199 196 L 201 198 Q 202 194 204 197 L 213 193 L 210 191 L 207 192 L 207 190 L 206 195 L 203 194 Q 205 188 201 189 Q 200 186 203 187 L 202 184 L 203 182 L 203 180 L 204 178 Q 207 181 207 188 L 207 178 L 207 176 L 206 173 L 206 171 L 205 170 L 205 162 L 208 162 L 204 161 L 204 173 L 205 174 L 204 177 Q 201 178 202 175 L 200 174 L 198 175 L 198 174 L 197 171 L 196 173 L 195 173 L 197 169 L 194 161 L 192 159 L 189 160 L 187 159 L 185 160 L 183 159 L 180 160 L 177 161 L 172 159 L 168 155 L 166 156 L 164 152 L 158 147 L 153 147 L 153 149 Q 149 148 151 154 L 150 154 L 151 149 Q 152 146 150 147 Z M 222 149 L 223 151 L 226 151 L 222 149 Z M 230 150 Q 230 160 234 166 Q 233 169 236 168 L 238 154 L 236 151 L 230 150 Z M 204 151 L 201 156 L 203 155 L 202 157 L 203 158 Q 207 156 203 154 L 205 153 L 204 151 Z M 221 151 L 221 154 L 223 153 L 221 151 Z M 258 153 L 257 157 L 259 157 L 258 153 Z M 242 155 Q 240 158 243 157 L 242 155 Z M 225 156 L 226 158 Q 227 155 225 156 Z M 248 156 L 248 158 L 250 157 L 248 156 Z M 205 158 L 203 161 L 205 160 L 205 158 Z M 212 160 L 211 164 L 212 164 L 212 160 Z M 225 160 L 226 162 L 228 161 L 225 160 Z M 215 161 L 216 166 L 217 166 Q 219 160 215 161 Z M 250 161 L 247 162 L 248 164 L 250 163 L 250 161 Z M 222 162 L 222 177 L 223 177 Q 224 172 222 171 L 223 169 L 222 162 Z M 209 163 L 209 166 L 208 169 Q 211 170 209 176 L 211 175 Q 215 176 214 173 L 212 174 L 210 172 L 210 170 L 211 165 L 209 163 Z M 241 163 L 239 167 L 243 166 L 241 165 L 241 163 Z M 155 164 L 153 167 L 155 166 L 158 167 L 158 165 L 155 164 Z M 256 165 L 255 168 L 256 168 L 256 165 Z M 218 166 L 217 179 L 218 179 L 218 166 Z M 249 166 L 250 171 L 251 171 Q 253 165 249 166 Z M 214 167 L 212 169 Q 211 171 214 170 L 214 167 Z M 229 167 L 228 169 L 231 168 L 229 167 Z M 255 168 L 253 171 L 255 172 L 255 168 Z M 156 169 L 152 173 L 150 172 L 147 173 L 149 177 L 147 184 L 143 190 Q 144 192 141 191 L 141 201 L 145 212 L 150 219 Q 149 221 153 220 L 156 223 L 156 218 L 154 219 Q 150 217 150 213 L 150 211 L 150 209 L 147 210 L 144 205 L 144 193 L 146 189 L 149 191 L 147 194 L 149 193 Q 152 199 152 209 L 154 208 L 160 221 L 161 223 Q 164 222 163 225 L 170 229 Q 176 227 178 230 L 183 222 L 175 225 L 173 222 L 176 223 L 182 219 L 182 221 L 186 223 L 184 228 L 189 228 L 189 226 L 193 224 L 195 225 L 192 221 L 193 216 L 196 214 L 195 218 L 197 219 Q 196 216 199 217 L 200 220 L 204 219 L 203 216 L 208 213 L 209 218 L 211 217 L 210 215 L 211 211 L 214 212 Q 216 213 215 211 L 218 209 L 219 211 L 219 207 L 223 209 Q 225 210 224 207 L 217 205 Q 214 202 215 194 L 208 197 L 200 206 L 201 212 L 197 210 L 198 208 L 194 205 L 196 201 L 197 201 L 197 197 L 192 198 L 188 197 L 187 200 L 188 202 Q 189 199 192 200 Q 194 206 189 204 L 188 207 Q 189 211 187 210 L 184 207 Q 182 198 187 196 L 183 192 L 180 196 L 173 188 L 174 186 L 174 184 L 170 179 L 166 174 Q 158 174 156 169 Z M 228 170 L 227 174 L 228 174 L 228 170 Z M 257 173 L 256 176 L 257 176 L 257 173 Z M 215 177 L 214 181 L 215 181 L 215 177 Z M 224 178 L 224 180 L 222 181 L 224 181 L 225 183 L 226 179 L 224 178 Z M 236 178 L 237 180 Q 238 177 236 178 Z M 254 178 L 252 180 L 254 180 L 254 178 Z M 256 178 L 255 182 L 256 182 L 256 178 Z M 211 179 L 210 184 L 212 184 L 211 179 Z M 219 179 L 217 190 L 219 189 L 219 179 Z M 280 179 L 276 181 L 270 187 L 268 187 L 264 185 L 259 188 L 261 193 L 255 202 L 253 208 L 256 211 L 260 209 L 262 213 L 268 208 L 273 209 L 273 212 Q 271 210 267 211 L 265 214 L 257 217 L 248 226 L 245 237 L 245 247 L 248 255 L 258 262 Q 262 261 260 265 L 263 266 L 274 265 L 277 263 L 277 265 L 273 267 Q 266 265 265 268 L 261 267 L 259 270 L 253 273 L 248 279 L 246 290 L 248 299 Q 252 305 260 308 Q 267 309 270 307 L 269 311 L 279 309 Q 279 306 284 306 L 284 307 Q 281 306 282 309 Q 280 313 273 312 L 270 315 L 271 323 L 281 329 Q 286 331 288 328 Q 290 329 289 326 Q 293 324 292 328 L 304 336 Q 313 337 319 334 Q 325 329 328 321 Q 330 311 325 308 Q 325 305 321 305 L 320 303 L 325 304 L 330 314 Q 332 324 327 328 L 328 331 L 331 332 L 332 332 L 332 301 Q 330 302 329 299 L 326 300 L 322 300 Q 318 294 310 294 L 305 288 L 306 281 L 309 279 Q 310 277 311 280 L 308 281 L 307 284 L 308 290 L 315 294 L 320 293 Q 321 289 323 293 L 320 297 L 323 298 Q 328 299 330 296 Q 331 298 332 296 L 332 271 L 331 268 L 327 266 L 318 267 L 312 275 Q 314 276 312 277 L 310 273 L 313 267 L 321 264 Q 328 263 331 267 L 332 267 L 332 259 L 331 256 L 332 245 L 332 243 L 332 239 L 331 241 L 328 240 Q 322 239 320 242 Q 316 241 318 245 L 316 245 L 315 243 L 318 240 Q 322 241 324 238 L 331 239 L 331 231 L 332 230 Q 333 227 330 228 L 328 235 Q 326 239 324 236 L 328 229 L 329 220 L 329 218 L 326 212 L 322 208 L 317 208 Q 316 205 312 205 L 310 205 L 308 204 L 305 205 L 303 204 L 294 208 L 293 211 Q 289 212 290 209 L 299 203 L 301 199 Q 302 190 299 186 L 292 179 L 282 179 L 280 179 Z M 229 180 L 228 183 L 229 183 L 229 180 Z M 249 181 L 247 183 L 249 183 L 249 181 Z M 224 183 L 222 186 L 224 185 L 224 183 Z M 228 183 L 226 187 L 228 186 L 228 183 Z M 254 183 L 253 185 Q 251 186 254 187 L 254 186 Q 256 184 254 183 Z M 211 185 L 210 189 L 211 189 L 211 185 Z M 177 187 L 176 189 L 178 190 L 177 187 Z M 214 187 L 212 189 L 214 189 L 214 187 Z M 245 187 L 239 195 L 235 199 L 235 201 L 236 206 L 238 203 L 241 205 L 243 201 Q 244 198 241 199 L 240 197 L 240 195 L 244 195 L 246 188 L 245 187 Z M 238 189 L 234 194 Q 231 193 232 196 L 229 200 L 232 199 L 238 192 L 238 189 Z M 252 189 L 253 191 Q 254 188 252 189 Z M 257 189 L 255 192 Q 254 194 257 193 L 257 189 Z M 224 190 L 222 192 L 223 200 L 224 192 L 224 190 Z M 250 192 L 248 194 Q 247 199 249 201 L 247 208 Q 245 211 240 211 L 238 211 L 234 209 L 231 202 L 229 203 Q 228 207 231 206 L 236 213 Q 240 212 239 215 L 234 214 L 231 210 Q 228 209 229 212 Q 231 217 238 218 Q 241 217 240 220 Q 234 221 232 217 Q 229 216 230 219 L 236 222 Q 238 221 237 224 L 231 222 L 229 219 L 228 222 L 232 224 Q 233 228 231 227 L 227 225 Q 227 229 230 229 Q 232 228 231 232 L 230 231 L 229 233 L 233 235 L 234 235 L 233 232 L 239 231 L 246 216 L 246 214 L 251 205 L 250 203 Q 253 201 251 200 L 255 198 L 254 194 L 250 192 Z M 147 194 L 147 204 L 148 204 L 147 194 Z M 225 200 L 225 201 L 227 201 L 225 200 Z M 250 211 Q 251 218 247 221 L 248 223 L 251 219 Q 253 220 252 217 L 256 215 L 250 211 Z M 215 213 L 215 215 L 219 214 L 215 213 Z M 229 215 Q 227 218 230 217 L 229 215 Z M 213 218 L 213 220 L 209 221 L 209 219 L 208 222 L 211 223 L 213 227 L 214 227 Q 213 224 216 225 L 214 222 L 216 219 L 219 221 L 219 220 Q 218 217 213 218 Z M 203 222 L 201 224 Q 198 223 199 226 L 195 228 Q 192 229 194 231 L 193 230 L 191 231 Q 184 233 183 229 L 182 235 L 180 234 L 178 235 L 170 232 L 168 236 L 164 235 L 165 237 Q 167 236 166 239 L 169 237 L 169 239 Q 165 240 168 242 L 168 243 L 167 242 L 166 242 L 167 245 L 166 247 L 167 248 L 169 247 L 170 251 L 176 254 Q 177 257 179 255 L 182 256 L 179 257 L 182 258 L 183 258 Q 182 260 185 259 L 184 258 L 185 256 L 185 258 Q 189 259 188 257 Q 189 254 191 256 L 192 256 L 191 252 L 193 252 L 192 250 L 195 248 L 194 252 L 196 255 L 192 257 L 196 258 L 197 256 Q 195 249 198 248 L 197 244 L 198 231 L 198 229 L 201 228 L 202 230 Q 203 234 200 236 L 203 237 L 203 224 L 204 223 L 203 222 Z M 217 222 Q 216 226 219 225 Q 220 221 217 222 Z M 225 222 L 224 225 L 225 225 L 225 222 Z M 332 222 L 331 227 L 332 227 L 332 222 Z M 207 224 L 207 232 L 210 231 L 210 230 Q 205 231 207 227 L 211 227 L 207 224 Z M 158 226 L 158 230 Q 161 231 160 229 L 160 227 L 158 226 Z M 221 226 L 219 233 Q 218 236 221 235 L 221 226 Z M 215 227 L 213 230 L 214 236 L 217 235 Q 218 232 216 233 L 214 234 L 215 230 L 215 227 Z M 243 230 Q 241 235 236 234 Q 237 238 234 239 L 231 239 L 227 236 L 224 250 L 224 258 L 220 266 L 220 272 L 225 279 L 228 288 L 229 296 L 235 310 L 235 314 Q 231 315 231 321 L 227 323 Q 222 324 221 322 L 215 322 L 215 328 L 213 329 Q 206 331 205 328 L 200 340 L 200 344 L 195 357 L 194 364 L 189 376 L 188 383 L 183 391 L 182 401 L 180 407 L 183 415 L 185 412 L 184 409 L 186 403 L 192 397 L 201 394 L 198 389 L 198 383 L 202 374 Q 207 368 218 368 L 219 366 L 224 362 L 232 360 L 234 361 Q 237 360 236 363 L 238 366 L 241 364 L 243 365 L 244 362 Q 249 358 258 356 L 267 356 L 276 359 Q 284 364 286 376 Q 287 383 284 387 L 283 389 L 286 387 L 290 388 Q 294 389 293 394 L 296 393 L 299 394 L 301 397 L 305 395 L 309 396 L 313 396 L 319 392 L 314 390 L 313 387 L 311 388 L 307 388 L 300 385 L 298 381 Q 300 376 296 377 Q 291 374 290 368 L 292 362 L 296 358 L 301 356 L 310 356 L 311 357 L 312 350 Q 315 345 321 344 L 327 345 L 330 349 L 332 348 L 332 338 L 330 337 L 326 331 L 316 338 L 304 338 L 298 336 L 291 330 L 288 332 Q 278 332 273 328 L 267 320 Q 266 315 268 314 L 266 311 L 260 311 L 253 307 Q 244 302 243 291 L 243 289 Q 246 287 244 282 L 247 276 L 256 269 L 257 266 L 250 261 Q 251 258 248 259 L 243 250 Q 244 245 242 244 Q 240 237 243 236 L 243 230 Z M 160 231 L 160 243 L 161 243 L 160 231 Z M 164 231 L 166 233 L 168 233 Q 167 230 164 231 Z M 207 233 L 206 236 L 207 236 L 207 233 Z M 208 234 Q 207 237 210 236 Q 211 233 208 234 Z M 220 236 L 219 240 L 220 240 L 220 236 Z M 201 238 Q 198 243 202 242 L 203 240 L 202 240 L 201 238 Z M 207 238 Q 205 241 208 240 L 207 238 Z M 215 238 L 212 240 L 215 240 L 216 241 L 215 238 Z M 223 239 L 222 246 L 223 246 L 223 239 Z M 210 242 L 208 244 Q 207 246 210 245 L 210 242 Z M 205 243 L 205 246 L 207 245 Q 208 242 205 243 Z M 213 243 L 215 246 L 214 249 L 216 248 Q 218 241 213 243 Z M 222 246 L 221 250 L 222 250 L 222 246 Z M 206 248 L 205 252 L 206 252 L 206 248 Z M 221 250 L 220 255 L 220 257 L 219 259 L 221 258 L 221 250 Z M 212 252 L 210 254 L 211 258 L 211 254 L 214 255 L 214 253 L 212 252 Z M 154 254 L 151 255 L 145 267 L 147 270 L 145 274 Q 146 276 143 275 L 142 283 L 144 284 L 143 287 L 142 286 L 140 287 L 141 289 Q 140 291 139 289 Q 136 291 139 292 Q 141 291 140 295 L 142 294 L 141 291 L 143 290 L 146 282 L 145 279 Q 146 276 148 278 L 149 276 L 148 272 L 150 272 L 148 269 L 150 266 L 150 268 Q 148 269 151 270 L 153 265 L 154 263 Q 150 264 151 262 L 153 260 L 155 262 L 153 259 Q 152 256 156 257 L 156 255 L 154 254 Z M 159 254 L 159 259 L 160 260 Q 157 259 158 262 L 160 261 L 161 262 L 160 264 Q 162 265 160 266 L 158 262 L 155 267 L 156 269 L 158 266 L 158 270 L 161 271 L 162 269 Q 160 267 163 266 L 164 269 L 166 268 L 167 268 L 166 270 L 165 269 L 163 270 L 161 274 L 159 273 L 157 274 L 160 275 L 162 276 L 161 280 L 159 278 L 158 282 L 159 285 L 158 285 L 158 287 L 155 285 L 154 287 Q 152 288 155 289 L 157 288 L 157 291 Q 158 293 156 292 L 155 293 L 152 292 Q 151 297 155 295 L 154 302 Q 150 303 151 301 L 150 301 L 150 307 L 154 307 L 155 307 L 154 312 L 156 312 L 155 315 L 150 314 L 150 312 L 149 315 L 157 319 L 160 318 L 165 320 L 166 321 L 166 311 L 164 306 L 162 305 L 163 307 Q 164 309 161 308 L 160 306 L 161 303 L 164 304 L 164 302 L 163 299 L 165 299 L 167 281 L 170 279 L 168 287 L 169 295 L 169 290 L 172 289 L 173 296 L 174 292 L 174 296 L 173 299 Q 174 303 171 302 L 173 316 L 175 319 L 171 319 L 171 316 L 169 322 L 171 321 Q 174 320 172 324 L 182 324 L 179 323 Q 176 322 179 320 L 183 321 L 186 320 L 183 318 Q 177 320 179 315 L 184 316 L 186 315 L 180 314 L 180 311 L 186 311 L 186 308 L 180 309 L 182 306 L 180 305 L 179 303 L 184 302 L 187 304 L 187 301 L 186 301 Q 180 303 182 297 L 186 298 L 187 299 Q 188 294 183 296 Q 181 292 185 293 L 184 292 L 185 289 L 188 290 Q 190 285 189 278 L 193 276 L 189 274 L 189 276 L 188 272 L 183 270 L 183 272 L 182 274 L 185 275 L 184 277 Q 183 280 186 279 L 187 280 L 186 277 L 188 278 L 188 282 L 186 281 Q 184 278 182 280 L 183 278 L 181 275 Q 182 272 179 273 L 179 271 L 181 271 Q 177 265 169 262 L 167 263 L 168 260 L 165 258 Q 162 259 163 257 Q 163 254 159 254 Z M 205 255 Q 204 258 207 257 Q 208 254 205 255 Z M 205 257 L 202 265 L 204 266 Q 203 261 206 262 L 205 257 Z M 199 258 L 200 263 L 201 261 Q 202 257 199 258 Z M 195 260 L 194 262 L 196 261 L 195 260 Z M 210 260 L 212 262 Q 213 259 210 260 Z M 216 261 L 215 263 L 218 264 L 218 262 L 216 261 Z M 199 263 L 198 265 L 201 266 L 199 263 Z M 145 268 L 142 273 L 143 274 L 146 272 L 145 268 Z M 155 269 L 154 272 L 155 272 L 155 269 Z M 154 272 Q 149 277 148 286 L 148 288 Q 149 290 146 289 L 145 292 Q 144 295 147 294 L 147 292 Q 150 294 146 296 Q 145 299 148 298 L 154 275 L 154 272 Z M 213 274 L 211 276 L 215 291 L 215 290 L 216 290 L 215 292 Q 214 294 217 293 Q 215 295 218 297 L 215 297 L 213 294 L 212 300 L 214 299 L 221 299 L 221 301 L 214 302 L 212 302 L 214 307 L 214 305 L 220 306 L 222 306 L 224 305 Q 227 304 225 308 L 223 309 L 217 308 L 215 308 L 214 311 L 217 311 L 225 311 L 225 313 L 222 314 Q 217 315 216 313 L 215 315 L 222 316 L 226 315 Q 228 314 227 317 Q 226 319 221 318 L 223 321 Q 228 321 230 318 Q 229 307 225 301 L 224 303 L 222 304 L 224 301 L 220 287 L 219 285 L 217 288 L 217 287 L 216 283 L 217 281 Q 212 282 213 280 L 216 278 L 213 277 L 213 274 Z M 196 275 Q 193 280 197 279 L 196 275 Z M 207 275 L 207 276 L 209 276 L 207 275 Z M 140 276 L 137 280 L 139 282 L 140 279 L 140 276 Z M 200 276 L 201 281 L 201 278 L 204 278 Q 203 275 200 276 Z M 206 276 L 204 280 L 205 285 L 205 287 Q 208 293 208 303 L 210 302 L 208 296 L 206 276 Z M 221 277 L 220 280 L 222 282 L 224 291 L 225 291 L 223 281 Q 224 278 221 279 L 221 277 Z M 210 280 L 210 289 L 211 289 L 210 280 Z M 155 281 L 155 283 L 157 282 L 155 281 Z M 202 281 L 201 286 L 201 288 L 203 288 L 202 281 Z M 136 282 L 134 287 L 136 288 L 136 282 Z M 195 282 L 195 289 L 197 288 L 196 284 L 198 284 L 195 282 Z M 134 287 L 132 289 L 134 291 L 134 290 Q 136 288 134 287 Z M 132 289 L 129 293 L 130 296 L 129 295 L 127 298 L 128 300 L 128 299 L 131 297 Q 130 294 133 293 L 132 289 Z M 202 289 L 201 306 L 203 306 L 202 308 Q 201 312 204 311 L 204 294 L 202 289 Z M 192 290 L 189 303 L 190 305 L 189 306 L 189 315 Q 192 316 191 313 L 191 311 Q 193 312 192 316 L 189 318 L 190 327 L 192 329 L 193 326 L 193 309 L 190 308 Q 189 305 192 306 L 193 307 L 192 302 L 193 300 L 192 290 Z M 212 290 L 211 294 L 212 294 L 212 290 Z M 195 291 L 195 293 L 197 292 L 195 291 Z M 226 291 L 225 295 L 226 295 L 226 291 Z M 136 293 Q 134 296 137 295 L 136 293 Z M 227 295 L 226 298 L 227 298 L 227 295 Z M 139 296 L 138 299 L 140 300 Q 141 295 139 296 Z M 152 296 L 151 300 L 153 299 L 152 296 Z M 168 296 L 167 300 L 168 300 L 168 296 Z M 147 299 L 145 303 L 146 305 L 147 305 L 147 299 Z M 197 299 Q 195 302 198 301 L 197 299 Z M 134 302 L 135 304 L 136 304 L 134 302 Z M 138 302 L 136 309 Q 135 313 139 311 L 138 302 Z M 197 303 L 198 305 Q 199 302 197 303 Z M 142 305 L 142 308 L 145 307 Q 146 304 142 305 Z M 185 305 L 185 306 L 187 306 L 185 305 Z M 208 305 L 209 308 L 211 307 L 208 305 Z M 133 306 L 132 309 L 133 309 L 133 306 Z M 150 307 L 149 311 L 151 312 L 150 307 Z M 169 307 L 168 310 L 169 310 L 169 307 Z M 197 307 Q 195 310 198 309 L 197 307 Z M 232 307 L 231 310 L 232 310 L 232 307 Z M 132 309 Q 130 312 133 311 L 132 309 Z M 208 310 L 208 313 L 210 312 L 212 313 L 211 312 Q 212 309 208 310 Z M 170 311 L 169 316 L 170 316 L 170 311 Z M 145 312 L 143 315 Q 136 317 137 313 L 134 314 L 129 323 L 127 333 L 124 338 L 123 346 L 118 357 L 117 370 L 114 376 L 103 381 L 97 392 L 94 403 L 95 409 L 103 414 Q 109 415 110 412 Q 109 409 113 410 L 118 404 L 124 391 L 123 390 L 121 388 L 126 384 L 128 377 L 134 375 L 164 335 Q 163 332 166 333 L 170 328 L 170 326 L 163 322 L 154 321 Q 152 317 147 317 L 145 312 Z M 203 312 L 202 318 L 204 320 L 203 323 L 205 327 L 212 327 L 212 324 L 206 326 Q 204 322 205 315 L 203 312 Z M 211 315 L 212 317 Q 213 314 211 315 Z M 196 317 L 196 319 L 199 319 Q 200 316 196 317 Z M 217 318 L 217 319 L 220 319 L 217 318 Z M 210 319 Q 207 323 213 321 Q 214 318 212 319 L 210 319 Z M 187 320 Q 184 322 187 323 Q 190 322 187 320 Z M 202 323 Q 200 326 203 325 L 202 323 Z M 185 324 L 185 325 Q 187 324 186 327 L 175 326 L 165 337 L 165 366 L 166 367 L 165 369 L 166 372 L 165 375 L 167 378 L 163 386 Q 164 389 161 388 L 155 400 Q 154 408 157 413 L 163 417 L 178 416 Q 179 412 176 413 L 179 401 L 180 391 L 184 385 Q 186 373 191 365 L 195 347 L 201 331 Q 202 327 200 328 L 198 328 Q 199 330 196 329 L 197 326 L 197 324 Q 194 325 195 330 Q 194 332 191 331 L 187 327 Q 188 323 185 324 Z M 162 342 L 152 354 L 137 377 L 140 376 L 148 378 L 152 385 L 152 392 L 149 398 L 142 404 L 139 404 Q 136 405 138 407 L 134 412 L 136 412 L 140 418 L 139 423 Q 137 427 135 424 L 136 422 L 135 416 Q 132 411 126 412 L 125 415 L 123 411 L 128 410 L 133 411 L 134 408 L 132 402 Q 139 403 143 400 Q 148 397 149 390 L 148 383 Q 146 378 140 379 Q 138 381 137 379 Q 138 376 135 377 L 126 391 L 121 404 L 118 407 L 119 409 L 114 419 L 113 428 L 107 431 Q 106 437 108 439 L 112 441 Q 115 442 113 438 L 120 431 L 131 427 L 139 427 L 146 431 L 148 439 L 149 439 L 149 437 L 153 437 L 153 435 L 147 425 L 147 414 L 152 407 L 153 396 L 161 385 L 162 371 L 163 370 L 162 368 L 162 342 Z M 321 346 L 318 347 L 314 354 L 315 359 L 313 360 L 314 362 L 309 358 Q 300 357 297 360 L 292 367 L 294 367 L 295 373 Q 297 376 303 377 L 301 381 Q 303 385 310 385 L 312 385 L 314 384 Q 316 383 315 386 L 320 389 Q 324 388 326 390 L 332 389 L 332 352 L 329 353 Q 326 352 327 349 L 321 346 Z M 262 358 L 250 361 L 247 364 L 248 371 L 243 368 L 235 369 Q 231 370 232 375 Q 231 377 230 375 L 227 376 L 225 376 L 225 380 L 223 380 L 222 378 L 223 376 L 229 373 L 230 368 L 235 367 L 234 363 L 229 362 L 224 364 Q 219 367 220 375 Q 219 378 217 375 L 218 373 L 217 370 Q 210 369 208 372 L 201 384 L 204 399 L 201 396 L 192 399 L 187 407 L 188 411 L 189 412 L 186 415 L 187 416 Q 186 418 190 417 L 189 421 L 190 424 L 199 428 L 203 419 Q 207 411 218 412 L 215 405 Q 214 396 216 391 L 222 385 L 224 385 Q 225 388 223 387 L 218 394 Q 217 402 219 408 Q 224 415 236 417 L 242 416 L 248 413 L 254 404 L 255 407 L 263 403 L 265 403 Q 267 404 266 401 Q 261 401 259 398 Q 257 393 261 394 L 263 398 L 273 398 L 273 397 L 277 395 L 279 393 L 279 388 L 283 380 L 283 376 L 280 368 L 274 361 L 262 358 Z M 54 363 L 53 366 L 54 370 Q 55 373 62 371 L 65 375 L 68 373 Q 72 372 71 375 Q 74 376 76 373 L 84 373 L 85 372 L 93 374 L 101 382 L 101 381 L 105 378 Q 106 375 103 376 L 99 368 L 95 371 L 87 370 Q 85 368 84 371 L 67 370 L 54 363 Z M 58 372 L 53 374 Q 50 375 50 379 L 47 380 L 46 377 Q 36 376 31 379 L 23 388 L 19 399 L 19 407 L 22 415 Q 25 421 33 422 L 36 427 L 30 426 L 27 427 L 25 431 L 22 432 L 14 426 L 10 425 Q 8 423 7 426 L 7 439 L 8 440 L 7 443 L 7 474 L 8 475 L 7 482 L 13 480 L 13 483 L 17 482 L 18 479 L 18 470 L 17 469 L 17 461 L 15 460 L 13 463 L 9 461 L 9 459 Q 10 454 16 455 L 16 448 L 15 447 L 17 441 L 25 434 L 27 437 L 31 434 L 36 435 L 42 434 Q 43 437 40 436 L 42 440 L 48 438 L 49 440 Q 46 439 47 442 L 46 443 L 35 445 L 28 450 Q 25 449 26 452 L 29 452 Q 34 454 36 451 Q 41 450 43 454 L 49 453 L 47 459 Q 52 458 54 461 Q 55 463 52 462 L 50 462 Q 46 461 47 464 L 42 462 L 40 463 L 34 462 L 29 467 L 30 468 L 27 478 L 29 478 L 30 475 L 35 471 Q 37 470 36 473 L 34 474 L 36 474 L 31 483 L 32 488 L 35 485 L 41 484 L 43 484 Q 45 480 51 481 L 50 478 L 63 456 L 59 453 L 51 456 L 50 452 L 54 445 L 54 438 L 52 434 L 45 430 L 42 431 L 40 429 Q 41 426 43 428 L 45 425 Q 42 426 43 423 L 49 421 L 50 424 L 55 427 Q 61 428 63 425 L 64 427 L 65 433 L 68 435 Q 72 434 74 436 L 77 434 L 79 434 L 84 424 L 83 421 L 84 414 L 87 405 L 89 403 L 89 400 L 93 398 Q 93 392 97 388 L 95 381 Q 93 376 92 379 L 91 378 L 87 375 Q 82 374 81 376 L 79 375 L 71 378 L 66 387 L 64 385 L 67 379 Q 68 376 64 377 L 63 380 Q 64 382 61 381 L 62 377 L 61 374 L 58 372 Z M 285 390 L 281 395 L 277 397 L 275 400 L 283 402 L 284 395 L 288 393 Q 290 394 289 392 Q 288 389 285 390 Z M 322 394 L 319 396 Q 316 395 317 399 L 320 401 L 326 403 L 330 410 L 332 423 L 332 400 L 333 399 L 332 394 L 329 396 L 322 394 Z M 291 395 L 287 396 L 286 404 L 281 406 Q 278 407 279 405 L 275 402 L 271 402 L 267 405 L 265 404 L 259 406 Q 251 411 249 422 L 249 426 L 253 435 Q 252 437 251 435 L 248 436 L 247 433 L 243 435 L 241 433 L 237 430 L 235 435 L 231 433 Q 232 430 229 431 L 229 429 L 225 427 L 219 427 L 210 431 Q 207 430 208 433 L 206 433 L 199 447 L 200 456 Q 202 457 200 458 L 197 456 L 194 455 L 188 457 L 187 460 Q 186 466 188 468 L 184 467 L 182 471 L 198 480 L 201 479 L 208 482 L 209 485 Q 208 489 214 487 L 217 486 L 220 488 L 222 487 L 224 488 L 237 487 L 245 485 L 254 480 L 265 484 L 277 484 L 278 483 L 282 485 L 285 485 L 299 475 L 303 475 Q 304 479 308 478 L 309 481 L 318 476 L 327 480 L 333 479 L 333 454 L 332 453 Q 331 447 333 446 L 332 441 L 329 440 L 325 441 Q 324 437 328 436 L 329 431 Q 331 424 327 425 L 328 421 Q 329 411 325 407 L 314 399 L 305 397 L 302 399 L 299 399 L 296 396 L 291 395 Z M 218 414 L 208 417 L 202 425 L 203 428 L 201 429 L 199 429 L 198 431 L 189 429 L 185 434 L 187 440 L 180 441 L 179 444 Q 181 449 177 448 L 178 467 L 183 465 L 185 458 L 191 453 L 196 453 L 196 447 Q 199 445 197 444 L 201 437 L 209 429 L 215 426 L 224 424 L 227 425 L 225 417 L 218 414 Z M 184 415 L 184 429 L 189 427 L 184 415 Z M 248 415 L 238 419 Q 233 420 232 418 L 229 419 L 230 424 L 228 425 L 235 429 L 237 428 Q 244 427 245 432 L 247 431 L 245 425 L 248 417 L 248 415 Z M 180 424 L 179 427 L 180 427 L 180 424 Z M 49 427 L 48 429 L 52 430 Q 57 433 58 441 Q 58 448 54 452 L 56 451 Q 64 450 67 454 L 76 442 L 76 440 L 78 437 L 76 438 Q 69 439 66 437 Q 61 435 61 429 L 57 431 L 49 427 Z M 105 429 L 102 431 L 105 431 L 105 429 Z M 131 429 L 119 434 L 115 440 Q 116 442 114 441 Q 108 443 110 452 L 109 451 Q 104 450 106 455 L 98 454 L 92 462 L 92 464 L 96 474 L 119 469 L 125 470 L 136 476 L 140 476 L 148 479 Q 154 477 152 482 Q 143 482 138 478 L 133 478 L 131 476 L 130 478 L 129 480 L 133 479 L 135 479 L 140 480 L 145 484 L 148 483 L 152 484 L 153 487 L 152 486 L 151 488 L 154 490 L 155 493 L 178 493 L 180 493 L 193 498 L 194 501 L 192 502 L 190 502 L 188 501 L 184 502 L 192 504 L 196 507 L 204 508 L 206 508 L 211 509 L 221 508 L 220 504 L 224 501 L 228 504 L 237 504 L 237 502 L 224 493 L 212 491 L 210 491 L 208 488 L 204 491 L 202 490 L 200 490 L 181 489 L 171 486 L 161 489 L 153 484 L 153 470 L 155 460 L 154 457 L 155 453 L 154 439 L 146 443 Q 144 441 145 436 L 143 432 L 137 429 L 131 429 Z M 180 433 Q 181 437 178 436 L 179 438 L 182 436 Q 183 432 180 433 Z M 333 433 L 330 437 L 332 439 L 333 437 L 333 435 L 333 433 Z M 102 434 L 93 448 Q 94 451 91 450 L 91 455 L 87 460 L 85 467 Q 86 469 84 468 L 82 472 Q 88 471 91 474 L 94 474 L 89 467 L 90 459 L 98 452 L 107 449 L 106 447 L 107 444 L 108 443 L 104 439 Q 106 433 102 434 Z M 29 444 L 23 447 L 24 450 L 30 446 Q 31 443 29 444 Z M 174 459 L 174 463 L 175 463 Q 176 458 174 459 Z M 31 460 L 29 463 L 32 461 L 31 460 Z M 25 461 L 26 466 L 27 463 Q 28 460 25 461 Z M 84 461 L 82 463 L 83 465 L 84 463 L 84 461 Z M 21 469 L 21 484 L 24 484 L 23 481 L 24 478 L 23 476 Q 25 468 21 469 Z M 78 470 L 77 472 L 75 475 L 78 473 L 78 470 Z M 119 471 L 119 472 L 122 473 L 123 473 Q 122 470 119 471 Z M 113 472 L 106 474 L 104 474 L 101 476 Q 94 475 92 478 L 82 475 L 78 476 L 72 481 L 69 485 L 61 489 L 51 486 L 45 487 L 40 494 Q 41 497 36 495 L 32 500 L 30 501 L 29 503 L 35 500 L 40 500 L 44 494 L 49 491 L 54 490 L 56 492 L 51 495 L 48 497 L 45 501 Q 43 505 35 503 L 26 511 Q 20 510 19 513 L 14 512 Q 6 510 7 514 L 12 516 L 18 514 L 24 514 L 36 505 L 44 509 Q 47 507 47 503 Q 56 492 71 488 L 70 484 L 79 481 Q 83 480 85 482 L 92 479 L 99 479 L 102 477 Q 108 475 110 478 L 115 476 L 113 472 Z M 115 472 L 115 473 L 118 473 L 115 472 Z M 121 473 L 119 476 L 121 475 L 121 473 Z M 299 477 L 299 479 L 278 491 L 273 491 L 267 493 L 252 493 L 251 495 L 253 494 L 255 495 L 276 494 L 284 491 Q 286 492 285 489 L 305 483 L 306 480 L 304 480 L 299 477 Z M 28 479 L 27 482 L 28 482 L 28 479 Z M 316 479 L 302 486 Q 300 489 299 487 L 289 491 Q 286 490 287 493 L 275 496 L 273 496 L 265 497 L 269 498 L 279 498 L 287 496 L 295 496 L 300 494 L 303 493 L 305 494 L 320 494 L 333 497 L 332 491 L 333 486 L 332 482 L 325 482 L 321 479 L 316 479 Z M 103 480 L 98 484 L 95 483 L 89 485 L 87 484 L 85 487 Q 79 489 81 484 Q 74 482 76 488 L 72 491 L 68 491 L 62 494 L 54 500 L 51 508 L 44 513 L 39 512 L 38 509 L 34 510 L 24 517 L 15 519 Q 10 520 9 518 Q 6 517 7 520 L 15 520 L 16 521 L 22 521 L 33 517 Q 34 515 36 518 L 40 518 L 48 514 L 56 508 Q 58 509 57 507 L 69 497 L 84 491 L 92 491 L 93 490 L 95 492 L 94 494 L 96 493 L 113 494 Q 115 493 114 490 L 116 488 L 128 487 L 132 485 L 130 483 L 117 483 L 116 482 L 114 483 L 112 483 Q 113 485 110 484 L 110 482 L 109 487 L 105 487 L 105 486 L 107 486 L 107 484 L 102 484 L 103 482 L 103 480 Z M 66 481 L 58 485 L 58 486 Q 65 486 67 482 L 66 481 Z M 253 483 L 242 488 L 223 491 L 227 491 L 229 491 Q 234 490 236 492 L 254 490 L 256 490 Q 257 493 264 491 L 266 491 L 279 488 L 279 485 L 275 487 L 265 487 L 256 483 L 253 483 Z M 144 486 L 143 488 L 147 488 L 147 487 L 146 487 L 144 486 Z M 39 487 L 36 490 L 33 489 L 30 494 Q 30 497 25 497 L 23 497 Q 20 498 21 495 L 11 498 L 7 501 L 8 503 Q 6 504 9 505 L 13 504 L 15 504 L 17 503 L 21 504 Q 26 503 29 498 Q 31 499 30 497 L 37 492 L 40 488 L 39 487 Z M 134 487 L 134 488 L 139 488 L 134 487 Z M 14 488 L 13 490 L 15 489 L 14 488 Z M 22 488 L 24 490 Q 25 487 22 488 Z M 129 488 L 126 490 Q 118 488 119 492 L 114 496 Q 107 494 106 497 L 103 496 L 88 496 L 87 497 Q 82 498 84 494 L 82 494 L 79 497 L 78 496 L 66 504 Q 63 503 64 506 L 48 520 L 36 524 L 34 521 L 32 520 L 17 527 L 15 526 L 7 526 L 7 530 L 10 531 L 15 531 L 19 528 Q 23 527 25 529 L 29 529 L 38 525 L 46 524 L 57 520 L 63 512 L 76 505 L 82 505 L 85 507 Q 86 510 84 509 L 83 511 Q 87 513 86 509 Q 91 504 99 503 L 111 505 L 112 508 Q 113 510 115 508 L 129 512 L 136 509 L 142 509 L 148 511 L 153 516 L 154 515 L 156 516 L 153 510 L 145 507 L 133 506 L 132 505 Q 125 504 123 506 L 123 509 L 121 506 L 117 505 L 115 506 Q 113 502 107 503 L 105 499 L 111 498 L 121 498 L 122 499 L 128 498 Q 129 494 124 496 L 122 492 L 130 490 L 129 488 Z M 131 488 L 131 489 L 133 489 L 131 488 Z M 16 490 L 10 494 Q 7 493 8 496 L 15 494 L 17 492 Q 18 489 16 490 Z M 135 491 L 135 493 L 132 495 Q 136 498 145 496 L 162 504 L 161 508 L 159 509 L 161 512 L 161 510 L 179 511 L 192 515 L 191 513 L 195 511 L 189 506 Q 183 507 181 504 Q 178 503 179 498 L 183 498 L 180 497 L 178 497 L 176 496 L 169 497 L 167 497 L 166 496 L 152 496 L 150 496 L 144 492 L 135 491 Z M 242 493 L 238 495 L 249 495 L 248 493 L 244 494 L 242 493 Z M 234 494 L 232 496 L 236 497 L 237 495 L 234 494 Z M 302 495 L 297 498 L 295 497 L 286 499 L 284 498 Q 278 501 268 500 L 266 500 L 264 499 L 262 499 Q 256 498 255 500 Q 251 501 253 497 L 242 497 L 239 498 L 240 502 L 249 502 L 273 508 Q 274 505 281 507 L 287 504 Q 293 503 295 507 Q 303 506 307 508 Q 306 503 309 502 L 321 502 L 323 503 Q 325 504 324 508 L 312 509 L 321 509 L 324 510 L 332 507 Q 335 507 333 501 L 330 498 L 319 496 L 307 496 L 306 497 L 302 495 Z M 131 500 L 127 502 L 127 503 L 131 502 L 135 503 L 137 503 L 140 503 Q 137 499 131 500 Z M 118 502 L 118 503 L 125 503 L 118 502 Z M 143 503 L 143 504 L 151 505 L 154 507 L 156 507 L 151 504 L 149 504 L 143 503 Z M 247 504 L 246 506 L 252 506 L 247 504 Z M 313 505 L 313 506 L 320 506 L 313 505 Z M 13 506 L 7 508 L 14 509 L 22 509 L 23 508 Q 26 509 25 507 L 24 507 L 20 506 L 16 507 L 13 506 Z M 237 506 L 236 507 L 233 507 Q 234 510 231 509 L 231 512 L 229 512 L 232 521 L 244 522 L 247 524 L 261 523 L 264 522 L 275 525 L 280 525 L 292 533 L 300 534 L 302 537 L 302 538 L 307 538 L 308 530 L 308 528 Q 309 524 305 526 L 302 532 Q 298 530 300 525 L 303 524 Q 309 526 308 522 L 302 522 L 289 517 L 287 518 L 283 516 L 264 517 L 263 518 Q 256 520 255 517 L 252 518 L 242 514 L 240 515 L 238 508 L 237 506 Z M 289 506 L 282 509 L 276 510 Q 277 512 279 510 L 282 512 L 287 512 L 292 514 L 299 518 L 307 517 L 308 515 L 305 516 L 304 515 L 297 515 L 296 511 L 300 510 L 300 509 L 297 510 L 289 506 Z M 99 507 L 94 508 L 92 512 L 92 513 L 94 512 L 105 512 L 105 510 L 108 509 L 99 507 Z M 242 508 L 241 510 L 245 513 L 259 516 L 266 514 L 268 514 L 272 515 L 277 514 L 281 515 L 281 513 L 277 512 L 274 513 L 258 510 L 256 510 L 254 511 L 253 510 L 244 510 L 242 508 Z M 76 509 L 68 513 L 66 518 Q 63 517 64 520 L 27 535 L 25 535 L 17 533 L 13 535 L 9 534 L 7 534 L 7 539 Q 12 539 15 536 L 17 538 L 22 539 L 38 533 L 41 533 L 43 533 L 49 531 L 56 526 L 61 524 L 65 524 Q 69 518 77 516 L 74 515 Q 73 511 77 510 L 76 509 Z M 332 509 L 324 512 L 321 511 L 319 512 L 315 511 Q 309 509 310 513 L 326 513 L 327 512 L 333 512 Q 334 508 332 509 Z M 223 510 L 217 511 Q 216 518 219 521 Q 221 523 227 522 L 231 525 L 235 525 L 238 527 L 248 529 L 251 528 L 253 529 Q 258 525 267 526 L 262 524 L 255 526 L 246 526 L 242 524 L 237 524 L 231 522 L 223 510 Z M 134 511 L 133 512 Q 130 511 131 514 L 134 513 L 138 514 L 142 514 L 138 511 L 136 512 L 134 511 Z M 305 511 L 302 513 L 307 513 Q 308 510 305 511 Z M 111 512 L 109 513 L 109 514 Q 111 513 110 516 L 113 515 L 117 515 L 123 518 L 125 518 L 124 516 Q 123 513 122 515 Q 119 511 111 512 Z M 143 514 L 143 515 Q 147 515 147 518 L 146 520 Q 143 519 144 522 Q 134 524 130 519 L 128 520 Q 119 521 116 518 L 112 519 L 121 522 L 129 523 L 135 526 L 136 529 L 166 533 L 182 539 Q 198 537 207 542 L 208 545 L 215 546 L 223 546 L 223 543 L 222 541 L 202 539 L 200 539 L 192 535 L 188 531 L 178 523 L 167 521 L 160 518 L 156 518 L 154 518 L 149 517 L 146 514 L 143 514 Z M 162 514 L 163 516 L 165 516 L 162 514 Z M 195 514 L 196 521 Q 199 526 208 526 L 209 527 L 206 523 Q 207 520 204 521 L 202 516 L 202 514 L 195 514 Z M 324 514 L 323 515 L 312 515 L 310 517 L 329 517 L 330 520 L 330 518 Q 333 517 332 520 L 333 520 L 333 514 L 331 514 L 329 514 L 327 515 L 324 514 Z M 99 515 L 82 520 L 70 529 Q 67 530 68 527 L 66 528 L 67 530 L 61 532 L 58 535 L 57 532 L 63 530 L 63 529 Q 56 528 54 532 Q 51 531 52 534 L 42 538 L 40 538 L 28 541 L 24 540 L 19 542 L 24 544 L 27 542 L 51 541 L 54 538 L 69 532 L 74 528 L 85 526 L 89 524 L 98 524 L 102 526 L 119 528 L 133 536 Q 135 535 134 538 Q 135 540 137 538 L 144 541 L 148 541 L 150 541 L 154 540 L 163 546 L 188 546 L 189 547 Q 194 549 196 546 L 202 547 L 204 547 L 207 546 L 200 542 L 197 542 L 195 542 L 194 541 L 181 541 L 174 539 Q 169 540 170 537 L 153 533 L 146 533 L 143 531 L 133 531 L 131 527 L 112 521 L 107 521 L 102 519 Q 101 516 104 517 Q 105 513 99 515 Z M 211 515 L 209 518 L 211 521 L 212 519 L 211 515 Z M 133 517 L 133 519 L 138 520 Q 141 521 142 519 Q 139 516 133 517 Z M 176 517 L 175 520 L 180 521 L 181 521 L 176 517 Z M 304 519 L 304 520 L 308 520 L 304 519 Z M 312 519 L 312 520 L 326 520 L 312 519 Z M 212 521 L 209 524 L 215 526 L 217 526 L 231 530 L 233 529 L 237 530 L 237 529 Q 234 530 235 527 L 218 525 L 212 521 Z M 184 522 L 188 526 L 190 530 L 193 530 L 200 536 L 215 538 L 217 538 L 226 540 L 229 543 Q 235 542 238 546 L 247 546 L 250 545 L 254 546 L 264 546 L 265 545 Q 266 548 272 546 L 274 546 L 288 546 L 276 541 L 264 541 L 263 542 L 252 542 L 249 540 L 244 540 L 237 537 L 229 537 L 227 537 L 203 533 L 188 523 L 184 522 Z M 311 522 L 311 524 L 318 525 L 331 525 Q 332 527 333 525 Q 334 520 330 522 L 326 522 L 323 523 L 322 522 L 311 522 Z M 194 523 L 195 525 Q 196 522 194 523 Z M 197 525 L 200 528 L 202 528 L 197 525 Z M 311 526 L 312 529 L 310 538 L 312 539 Q 318 537 320 540 L 333 540 L 333 528 L 332 528 L 331 527 L 321 527 L 319 527 L 311 526 Z M 86 527 L 60 538 L 53 544 L 30 547 L 31 549 L 34 548 L 37 549 L 40 548 L 43 549 L 45 546 Q 50 545 52 547 L 63 543 L 71 542 L 73 538 L 80 533 L 102 533 L 112 536 L 117 539 L 118 539 L 99 527 L 86 527 Z M 271 527 L 270 529 L 272 528 L 278 530 Q 282 529 281 532 L 275 531 L 273 531 L 270 530 Q 268 532 264 531 L 261 533 L 250 533 L 248 532 L 246 532 L 244 533 L 241 531 L 240 532 L 229 533 L 232 534 Q 241 534 248 537 L 260 537 L 261 536 L 264 537 L 267 536 Q 269 535 268 538 L 280 539 L 297 545 L 325 546 L 327 546 L 329 545 L 332 546 L 333 543 L 332 543 L 331 542 L 319 542 L 318 541 Q 311 540 310 543 Q 307 544 308 541 L 307 541 L 305 540 L 301 541 Q 298 540 299 536 L 293 536 L 286 533 L 286 535 L 282 533 L 284 532 L 285 533 L 284 530 Q 281 531 282 528 Q 278 526 271 527 Z M 203 528 L 204 530 L 219 534 L 224 534 L 203 528 Z M 262 528 L 258 529 L 257 531 L 268 529 L 262 528 Z M 117 531 L 116 533 L 122 535 Q 125 537 125 543 L 143 546 Q 147 547 149 545 L 153 546 L 154 546 L 150 543 L 134 542 L 128 536 L 117 531 Z M 83 536 L 81 537 L 79 541 L 75 545 L 66 546 L 65 548 L 76 546 L 78 547 L 80 546 L 82 547 Q 87 549 89 546 L 91 547 L 93 546 L 104 546 L 107 547 L 115 546 L 117 546 Q 122 548 121 545 Q 120 542 119 544 Q 111 544 109 539 Q 102 539 98 536 L 83 536 Z M 253 539 L 253 540 L 260 540 L 253 539 Z M 8 546 L 9 549 Q 12 550 11 547 L 8 546 Z M 151 549 L 150 550 L 131 550 L 130 551 L 128 550 L 86 550 L 85 551 L 81 550 L 77 551 L 75 550 L 72 552 L 71 551 L 63 551 L 60 552 L 28 552 L 23 550 L 10 550 L 9 551 L 7 552 L 7 574 L 7 576 Q 6 581 8 583 L 7 585 L 8 590 L 7 593 L 9 594 Q 14 593 16 595 L 18 594 L 32 594 L 34 594 L 35 593 L 74 593 L 75 592 L 86 592 L 87 593 L 104 593 L 105 592 L 120 592 L 121 591 Q 123 592 122 589 L 125 587 L 128 583 L 128 575 L 126 573 L 125 568 L 131 564 L 133 569 L 131 568 L 129 569 L 131 573 L 134 572 L 137 574 Q 136 576 132 575 Q 134 587 127 592 L 129 591 L 134 592 L 137 591 L 140 592 L 144 591 Q 150 589 152 592 L 224 592 L 226 592 L 229 591 L 231 592 L 233 591 L 237 592 L 239 592 L 243 591 L 245 591 L 258 591 L 259 592 L 290 592 L 291 591 L 293 592 Q 294 589 301 591 L 303 591 L 307 592 L 311 591 L 313 591 L 329 591 L 330 592 L 334 591 L 333 587 L 333 585 L 334 583 L 333 552 L 332 552 Q 329 553 330 551 L 329 551 L 328 550 L 317 550 L 316 549 L 292 549 L 291 550 L 286 549 Q 282 551 276 550 L 274 550 L 269 549 L 210 549 L 208 551 L 205 550 L 203 551 Q 197 549 189 550 L 188 549 L 151 549 Z "></path><path d="M 112 27 L 115.5 28 L 117 27.5 L 115.5 31 Q 112.2 32.1 113 29.5 L 112 27 Z "></path><path d="M 140.5 31 Q 142.8 30.3 142 32.5 L 140 36 L 135 34 L 135.5 32 L 138.5 33 L 140.5 31 Z "></path><path d="M 149 31 L 152.5 33 L 156 31 L 154 36 L 150 34.5 L 149 31 Z "></path><path d="M 94.5 32 Q 97.1 31.3 96 34 Q 93.3 32.9 94 35.5 Q 92.8 38 89 37 Q 87.8 34 91.5 35 L 94.5 32 Z "></path><path d="M 158.5 37 Q 161.8 38.8 158 40.5 L 156.5 43 L 151 41 Q 149.7 37.7 154.5 39 L 155.5 40 L 158.5 37 Z "></path><path d="M 169.5 37 L 170 38.5 Q 169.5 41.5 165.5 41 L 164.5 39 L 169.5 37 Z "></path><path d="M 85.5 38 Q 87.8 37.3 87 39.5 L 86 42 L 81 41.5 L 85.5 38 Z "></path><path d="M 120.5 44 Q 122.8 43.3 122 45.5 L 117.5 49 L 116 45 L 118.5 46 L 120.5 44 Z "></path><path d="M 91.5 52 L 92 54.5 L 91 57 L 85 56.5 L 91.5 52 Z "></path><path d="M 102 54 Q 105.7 52.5 105 55.5 L 103 59 L 97 59 L 97 57 L 99.5 56 Q 100.8 58.3 102 55.5 L 102 54 Z "></path><path d="M 77.5 92 Q 87.1 90.6 91 93 Q 92.1 95.7 89.5 95 L 88.5 94 L 79.5 94 L 64 102 L 60 107.5 L 60 110 L 56 112.5 Q 50.7 120.7 51 134.5 L 56 149.5 L 65.5 160 L 71 161 Q 72.3 164.7 66.5 163 L 58 156.5 L 50 142.5 L 49 124.5 L 53 112.5 L 66.5 97 L 77.5 92 Z "></path><path d="M 143.5 156 L 144 157.5 L 143.5 160 Q 140.8 158.8 143 157.5 L 143.5 156 Z "></path><path d="M 158.5 157 L 160 157.5 L 156.5 159 L 156.5 158 L 158.5 157 Z "></path><path d="M 145.5 158 L 148 158.5 L 145 160 L 145.5 158 Z "></path><path d="M 157.5 160 L 161 162.5 L 158.5 161 L 157.5 162 L 156 161.5 L 157.5 160 Z "></path><path d="M 140.5 162 L 143 162.5 L 140 164 L 140.5 162 Z "></path><path d="M 185.5 162 L 184.5 164 L 185.5 162 Z "></path><path d="M 188.5 162 L 189.5 165 L 191 164.5 Q 191.8 167.1 188.5 166 Q 187.3 168.3 186 165.5 L 188.5 162 Z "></path><path d="M 72 163 L 75 164.5 L 74.5 167 L 72 163 Z "></path><path d="M 141.5 166 L 142 167.5 L 140 168.5 L 141.5 166 Z "></path><path d="M 75 168 Q 78 166.8 77 170.5 L 83.5 178 Q 88.5 181 97.5 180 L 101 179 L 100.5 182 L 86.5 182 Q 78.6 179.9 75 173.5 L 74 170.5 L 75 168 Z "></path><path d="M 185.5 172 L 186 173.5 L 185.5 176 Q 182.9 176.8 184 173.5 L 185.5 172 Z "></path><path d="M 194.5 174 L 195.5 176 Q 192.7 176.7 194.5 174 Z "></path><path d="M 103.5 179 Q 106.5 179.5 106 183.5 Q 103.3 184.3 104 188.5 L 112.5 195 L 122.5 196 L 130.5 190 Q 133.3 191.3 131 192.5 L 128.5 196 L 124.5 198 L 114.5 198 L 104 194 L 101 189.5 L 101 184.5 L 103.5 179 Z "></path><path d="M 199.5 179 L 201 182.5 L 200 184.5 L 200.5 186 Q 198.3 185.3 199 187.5 L 197 186.5 L 200 181.5 L 199.5 179 Z "></path><path d="M 192 181 Q 195 179.8 194 183.5 L 194 185.5 L 193.5 187 L 192 181 Z "></path><path d="M 199 190 L 202 190.5 L 202 192.5 Q 203.1 196.7 199 195 L 197.5 192 L 196 191.5 L 197.5 191 L 199 191.5 L 199 190 Z "></path><path d="M 191.5 191 L 192 193.5 L 191 193.5 L 191.5 191 Z "></path><path d="M 201.5 206 Q 205.3 205 204 208 L 201.5 206 Z "></path><path d="M 200 225 L 202 225.5 L 200 226.5 L 200 225 Z "></path><path d="M 196.5 229 L 195.5 231 L 196.5 229 Z "></path><path d="M 195.5 241 L 196 244.5 Q 194.5 247.5 193 244.5 L 195.5 241 Z "></path><path d="M 171.5 245 L 174 248.5 L 172 248.5 L 173 250.5 L 171 249.5 L 170 246.5 L 171.5 245 Z "></path><path d="M 179.5 245 L 180 247.5 L 179 247.5 L 179.5 245 Z "></path><path d="M 175.5 247 L 178 248.5 L 179 250.5 L 175.5 247 Z "></path><path d="M 187.5 247 L 187 248.5 Q 188.1 251.8 185.5 251 L 186 252.5 L 185.5 255 L 184.5 253 L 183 253.5 L 187.5 247 Z "></path><path d="M 180.5 249 L 181.5 251 L 180.5 249 Z "></path><path d="M 312.5 249 Q 315.8 247.9 315 250.5 L 313 254.5 L 315 259 L 318 260.5 L 317.5 262 L 312 257.5 L 311 250.5 L 312.5 249 Z "></path><path d="M 148.5 263 L 149 264.5 L 147 265.5 L 148.5 263 Z "></path><path d="M 163.5 264 L 164.5 266 L 163.5 264 Z "></path><path d="M 175.5 267 L 178 270.5 L 176.5 272 L 173 269.5 Q 174.1 272.8 171.5 272 L 172 270.5 L 173.5 268 L 175.5 267 Z "></path><path d="M 164.5 271 L 163.5 273 L 164.5 271 Z "></path><path d="M 176.5 275 Q 178.8 275.8 178 279.5 L 177 279.5 L 176.5 275 Z "></path><path d="M 175.5 278 L 176 281 L 174 280.5 L 175.5 278 Z "></path><path d="M 179 278 Q 182.3 276.7 181 281.5 L 181 283.5 L 180.5 285 L 178.5 282 Q 180.8 282.8 180 280.5 L 179 278 Z "></path><path d="M 183.5 281 L 186 282 Q 187.3 285.3 182.5 284 L 183 282.5 L 183.5 281 Z "></path><path d="M 176.5 283 L 178 285.5 L 176 289.5 L 177 291.5 L 175 290.5 L 173 287.5 L 174.5 288 L 176 287.5 L 175 285.5 L 176.5 283 Z "></path><path d="M 182.5 286 L 182.5 288 L 184 288.5 L 180 290.5 Q 179.3 292.8 181.5 292 L 181.5 293 Q 177.8 291.8 179 295.5 L 176 297.5 L 176.5 295 L 178 295.5 L 179 291.5 Q 176.8 290.3 179.5 289 Q 181.8 289.8 181 287.5 L 182.5 286 Z "></path><path d="M 160 289 Q 162.7 287.9 162 290.5 L 162.5 292 L 160.5 291 L 159 291.5 L 160 289 Z "></path><path d="M 163.5 293 L 164 294.5 L 162 295.5 L 163.5 293 Z "></path><path d="M 157.5 296 L 158.5 298 L 157.5 296 Z "></path><path d="M 303 301 Q 306 300 305 303 Q 302 304 303 301 Z "></path><path d="M 299.5 302 Q 302.1 301.3 301 304 L 294 309.5 L 292 314.5 L 292 316.5 L 293 321.5 L 290 323 L 290 313.5 L 295 305 L 299.5 302 Z "></path><path d="M 152.5 303 Q 155.5 304.5 152.5 306 Q 150.3 306.8 151 304.5 L 152.5 303 Z "></path><path d="M 176 307 Q 179 306 178 309 Q 175 310 176 307 Z "></path><path d="M 176.5 311 L 178 313.5 L 176 314 L 176.5 311 Z "></path><path d="M 119 374 L 122 375.5 L 118 386 Q 115 387.3 116 383.5 L 119 374 Z "></path><path d="M 40.5 475 Q 44.3 474 43 477 L 38.5 480 L 37 478.5 L 40.5 475 Z "></path><path d="M 319.5 530 L 322 531.5 Q 322.5 535.5 319.5 536 L 317 534.5 Q 315.5 530.1 318.5 531 L 319.5 530 Z "></path><path d="M 342 545 L 344 545.5 L 343 547.5 L 344 549.5 L 342.5 553 L 342 545 Z "></path><path d="M 342.5 554 L 343.5 556 L 345 555.5 L 344 557.5 L 344.5 559 Q 340.8 557.2 342.5 554 Z "></path><path d="M 250 561 L 264.5 561 L 268 563.5 L 267 568 Q 264.3 566.9 265 569.5 L 264 573.5 L 270 584 L 267.5 583 L 266.5 584 L 261 578.5 L 260 572.5 L 258.5 571 L 257 571.5 L 257 581.5 Q 255.8 584.3 250.5 583 L 250.5 582 L 252 581.5 L 252 573.5 Q 249.7 572.3 251 567.5 L 251 565.5 L 250 561 Z M 257 563 L 257 570 L 260 569 Q 263 570 261 565 L 257 563 Z "></path><path d="M 272.5 561 L 275.5 562 L 277.5 561 L 279.5 561 L 288.5 563 L 292 566.5 L 293 571.5 L 291 578.5 L 287.5 582 Q 281.9 585.1 273 584 L 274 581.5 L 274 563.5 L 272.5 561 Z M 277 564 L 277 582 Q 277 582 282 582 Q 287 579 286 569 L 283 565 L 277 564 Z "></path><path d="M 297.5 561 L 310 561 L 310 566 Q 306.3 567.5 307 564.5 L 302.5 562 L 300 563 L 299 566.5 Q 300.8 569.8 307.5 568 L 311 571.5 L 312 580.5 Q 311 585 304.5 584 L 302.5 584 L 293.5 583 L 292 583.5 Q 295.9 581.4 295 576 L 297.5 575 Q 300.3 576.3 298 577.5 L 299.5 580 L 302.5 581 L 306 580 L 307 574.5 L 302.5 571 L 298.5 571 L 296 568.5 L 295 564.5 L 297.5 561 Z "></path><path d="M 81.5 562 Q 83 564.5 88.5 563 L 91 562 L 88.5 568 L 87 565 L 81 565 L 81 573 L 87 571 L 87 578 L 84 578 Q 85.5 573.5 81 575 L 81 584 L 85.5 584 L 87 584.5 L 88 579 L 91 579 L 91 587 L 77.5 587 L 76 585.5 L 75 575.5 L 76 571.5 L 74 563.5 L 81.5 562 Z "></path><path d="M 180.5 562 L 183 563.5 L 181.5 569 Q 179.2 564.9 173 566 L 172 572 L 175.5 571 L 179.5 572 L 182 574.5 Q 185.2 576.8 184 583.5 L 174.5 588 L 167.5 584 L 164 585 L 165 576 Q 168.8 574.5 168 577.5 L 170.5 582 L 175.5 583 Q 178 582 177 577.5 L 170.5 575 L 168 572.5 L 167 566.5 L 173.5 563 Q 179 564.5 180.5 562 Z "></path><path d="M 186 562 L 194.5 562 L 196 563.5 L 200.5 578 L 204 571.5 L 204 567.5 L 200.5 563 L 199 562.5 L 213.5 562 L 213.5 563 L 210 564.5 L 210 568.5 L 215.5 577 L 219 568.5 L 219 562 L 227 562.5 L 223 565.5 L 217 582.5 L 214.5 585 L 206.5 573 L 203 581.5 L 200.5 584 Q 196.1 585.5 197 582.5 L 190.5 565 L 186 564 L 186 562 Z "></path><path d="M 232.5 562 Q 243 560 246 565.5 Q 249.4 570.7 248 580 L 237.5 585 Q 230.1 583.9 227 578.5 L 226 572.5 Q 227.1 565.1 232.5 562 Z M 236 564 L 232 571 Q 231 579 236 582 L 241 581 L 243 571 L 242 566 L 236 564 Z "></path><path d="M 10 563 Q 13.9 565.4 23.5 564 L 27 566.5 L 28 570.5 L 27 574 L 19.5 577 Q 18.3 574.8 17 577.5 Q 15.5 584 19 585.5 L 15.5 587 Q 11 587.5 11 586.5 L 11 570.5 L 10 568.5 L 11 566.5 L 10 563 Z M 18 566 L 17 573 L 20 574 L 22 570 L 21 568 Q 22 565 18 566 Z "></path><path d="M 343.5 563 L 344.5 565 L 343.5 563 Z "></path><path d="M 31.5 564 L 40.5 564 L 42 565.5 L 48 585 L 52 585 L 52 586.5 L 49.5 587 L 45.5 586 L 43 587 L 41 578.5 L 38.5 576 Q 33.7 574.3 35 578.5 L 33 586 L 35 586.5 L 29 588 L 29 583.5 Q 33 576.5 34 566.5 L 31.5 564 Z M 38 568 L 36 574 L 39 575 L 38 568 Z "></path><path d="M 57.5 564 L 67.5 564 L 69 565.5 L 68 570 Q 63.9 571.7 65 567.5 L 61.5 566 Q 57 568.5 58 576.5 L 60.5 581 Q 63.3 579.8 61 578.5 Q 60.5 575.5 67.5 577 L 70 578 Q 71.7 584.1 68.5 586 L 59.5 586 L 53 581.5 Q 50.3 578.2 51 571.5 L 54.5 566 L 57.5 564 Z "></path><path d="M 116.5 574 Q 122.9 574.1 125 578.5 Q 125.8 584.3 122.5 586 L 118 587 Q 119.1 584.3 116.5 585 L 112 580.5 L 112 577.5 L 116.5 574 Z M 117 576 L 117 583 L 120 583 Q 122 582 121 578 L 117 576 Z "></path><path d="M 321 580 Q 325.6 578.8 327 581.5 L 326.5 584 L 324.5 583 L 322 584 L 321 580 Z "></path><path d="M 345.5 591 L 346 593.5 L 345 593.5 L 345.5 591 Z "></path></svg>