<svg width="350" height="600" version="1.1" xmlns="http://www.w3.org/2000/svg" desc="Created with imagetracer.js version 1.2.5"><path d="M 254.5 3 L 257.5 4 L 258.5 3 L 267.5 3 L 271.5 4 L 273.5 3 L 275.5 4 L 276.5 3 L 287.5 3 L 288.5 4 L 305.5 4 L 306.5 3 L 316.5 3 L 318.5 4 L 321.5 3 L 325.5 4 L 326.5 3 L 334.5 3 L 336 4.5 L 336 15.5 Q 333.5 17 335 22.5 L 336 24.5 L 335 25.5 L 335 54.5 L 336 57.5 L 335 61.5 L 336 63.5 L 335 64.5 L 335 74.5 L 336 76.5 L 335 77.5 L 335 95.5 L 335 97.5 L 335 111.5 L 336 112.5 L 336 114.5 L 336 158.5 L 335 161.5 L 336 165.5 L 335 168.5 L 336 169.5 L 336 216.5 L 337 217.5 L 337 225.5 L 336 226.5 L 336 241.5 Q 338.2 242.7 337 247.5 L 336 248.5 L 336 301.5 Q 338.5 303 337 308.5 L 336 311.5 L 337 315.5 L 337 317.5 L 336 329.5 L 337 330.5 L 337 348.5 Q 334.5 350 336 355.5 L 337 358.5 L 337 360.5 L 336 362.5 L 336 395.5 L 337 397.5 L 336 399.5 L 337 401.5 L 337 403.5 L 336 408.5 L 337 413.5 L 336 414.5 L 336 423.5 L 337 424.5 L 337 436.5 L 336 439.5 L 337 441.5 Q 334.8 442.8 336 447.5 L 337 449.5 L 337 451.5 L 336 455.5 L 337 456.5 L 337 550.5 Q 339.5 552 338 557.5 L 337 558.5 L 337 567.5 L 337 569.5 L 338 580.5 L 338 582.5 L 337 586.5 Q 339.8 588.3 338 594.5 Q 337 597 332.5 596 L 330.5 595 L 328.5 595 L 325.5 596 L 322.5 595 L 319.5 596 L 313.5 595 L 308.5 596 L 306.5 595 L 305.5 596 L 262.5 596 Q 261 593.5 255.5 595 L 254.5 596 L 244.5 596 L 243.5 597 L 232.5 597 L 231.5 596 L 200.5 596 L 198.5 595 L 197.5 596 L 117.5 596 L 116.5 597 L 103.5 597 L 102.5 596 L 83.5 596 L 81.5 596 L 77.5 597 L 75.5 597 L 46.5 596 L 45.5 597 L 20.5 597 L 19.5 596 L 5 596 L 5 528.5 L 4 527.5 L 4 516.5 L 4 514.5 L 4 446.5 L 3 442.5 L 4 441.5 L 4 346.5 L 3 344.5 L 4 343.5 L 4 274.5 L 3 269.5 L 3 267.5 L 4 265.5 L 4 156.5 L 4 154.5 L 4 5.5 L 4.5 5 L 34.5 5 Q 36 2.5 41.5 4 L 43.5 4 L 95.5 4 L 97.5 5 L 98.5 4 L 112.5 4 L 113.5 5 L 139.5 5 L 140.5 4 L 209.5 4 L 210.5 5 L 218.5 5 L 222.5 4 L 223.5 5 L 236.5 5 L 237.5 4 L 253.5 4 L 254.5 3 Z M 289 6 L 288 7 L 260 7 L 258 8 L 256 8 L 254 7 L 241 7 L 241 36 L 242 37 L 242 59 L 243 60 L 243 104 L 244 105 L 244 162 L 246 163 L 249 161 Q 250 164 256 162 L 266 167 L 274 177 L 277 184 Q 276 189 278 191 L 278 203 L 277 204 Q 275 208 279 207 L 281 207 L 285 208 Q 289 211 291 218 L 290 221 L 297 220 L 298 223 L 293 222 L 291 224 L 289 222 Q 287 226 285 223 L 288 218 L 286 213 L 283 210 L 272 212 L 275 204 Q 277 182 267 172 L 265 169 L 254 164 L 245 165 L 245 176 L 246 177 L 246 195 L 246 197 L 246 212 L 245 213 L 246 214 L 246 228 L 249 231 L 250 238 L 258 242 L 263 241 L 262 244 Q 254 245 251 242 L 247 238 L 246 238 Q 245 244 248 248 L 248 256 L 247 257 L 247 264 L 252 276 L 260 303 L 260 312 L 263 329 L 260 344 L 260 351 L 257 360 L 257 365 L 251 379 L 252 384 L 252 382 L 261 374 L 276 369 L 284 356 Q 289 349 298 347 L 312 347 L 322 353 Q 326 356 327 363 L 327 366 L 333 366 L 333 293 L 332 292 L 332 281 L 333 280 L 333 258 Q 331 261 328 260 L 330 266 Q 331 277 326 283 L 317 290 L 305 289 L 300 287 Q 293 283 290 276 Q 289 269 291 266 L 287 267 L 276 266 L 270 263 L 264 252 L 265 240 L 268 242 L 267 246 L 267 252 L 271 259 Q 270 261 273 260 L 273 262 L 282 265 L 292 264 L 295 262 Q 296 267 292 269 L 292 274 L 295 280 Q 298 285 306 287 L 320 285 Q 325 281 327 274 L 326 265 L 322 259 Q 321 255 325 256 L 327 259 L 332 256 L 333 255 L 333 245 L 334 244 Q 336 233 331 229 L 328 226 L 323 225 L 319 226 L 318 223 L 321 220 L 322 216 L 318 208 L 319 203 L 325 205 L 328 204 L 331 200 Q 330 197 333 198 L 333 195 L 328 194 L 326 190 L 324 189 L 320 190 Q 316 191 317 195 L 317 197 L 317 201 Q 313 200 314 203 L 312 202 L 309 202 L 301 206 L 299 213 L 300 220 L 296 218 L 296 213 L 298 207 L 308 200 L 313 200 L 314 192 L 321 186 Q 328 186 331 191 L 333 190 L 332 186 L 333 131 L 333 129 L 332 127 L 332 107 L 331 106 L 332 104 L 332 55 L 331 54 L 332 7 L 318 7 L 317 6 L 306 6 L 305 7 L 303 6 L 300 7 L 289 6 Z M 36 7 L 35 8 L 20 8 L 19 9 L 16 8 Q 9 7 7 9 L 8 12 L 7 16 L 8 18 L 7 20 L 7 32 L 8 33 L 7 36 L 7 79 L 8 80 L 7 89 L 7 91 L 7 100 L 8 101 Q 10 106 7 108 L 7 141 L 8 142 L 7 144 L 7 185 L 8 186 L 7 188 L 8 374 Q 14 369 24 367 L 38 367 L 52 377 L 59 390 L 60 393 L 60 389 L 60 387 L 58 381 L 59 379 L 56 371 Q 54 364 57 363 L 50 352 L 50 341 L 53 334 L 53 329 L 52 329 Q 47 330 47 327 L 47 316 L 51 302 L 57 289 L 57 287 L 58 280 L 61 274 L 63 265 L 73 241 L 76 227 L 79 220 L 82 203 L 82 201 L 85 187 L 91 178 L 93 169 L 90 157 L 90 150 L 87 140 L 86 126 L 84 121 L 84 112 L 82 107 L 81 94 L 78 84 L 79 82 L 75 65 L 74 51 L 72 47 L 73 45 L 70 34 L 73 24 L 76 23 Q 79 23 80 26 Q 79 28 82 27 L 84 31 Q 84 39 88 45 L 88 50 L 90 53 L 94 70 L 94 58 L 95 57 L 95 41 L 96 40 L 96 12 L 95 11 L 96 8 L 91 7 L 89 8 L 87 7 L 85 7 L 70 7 L 69 8 L 67 7 L 58 7 L 57 8 L 54 7 L 52 7 L 49 8 L 47 7 L 45 8 L 37 8 L 36 7 Z M 113 7 L 110 9 Q 118 8 121 10 L 121 12 L 120 11 L 111 11 L 109 11 L 101 12 L 99 12 L 100 18 L 102 17 L 101 14 L 105 13 L 107 14 L 108 13 L 123 13 L 124 12 L 133 13 L 136 12 L 142 14 L 144 13 L 148 14 L 150 13 L 172 13 L 172 15 L 177 16 L 179 16 L 188 16 L 188 15 L 187 15 Q 183 12 175 14 Q 172 13 175 11 L 176 12 L 200 12 L 202 12 L 206 13 Q 208 12 207 15 L 205 14 Q 199 14 197 17 L 192 17 L 192 15 L 191 19 Q 192 21 194 19 L 201 21 Q 206 24 208 31 Q 209 37 206 40 L 205 41 L 197 42 L 205 43 L 202 45 L 197 44 L 197 45 Q 199 44 198 47 L 190 46 L 191 51 L 190 53 L 194 68 L 192 69 L 190 66 L 186 67 L 183 66 L 181 66 L 178 67 L 176 67 L 177 68 L 189 68 L 191 72 L 189 70 L 188 72 L 189 73 L 187 72 L 182 73 L 181 70 L 173 71 L 174 74 L 176 73 Q 179 72 178 76 Q 177 79 173 78 L 173 76 L 171 79 L 169 80 L 164 78 L 163 75 Q 164 71 161 72 L 161 74 L 157 72 L 165 70 L 155 68 L 156 66 L 153 63 L 153 65 L 150 66 L 154 66 L 153 70 L 155 70 Q 156 73 154 72 L 152 72 Q 149 73 150 70 L 152 70 L 150 68 L 146 74 L 141 73 L 143 72 Q 141 69 142 62 L 145 62 L 139 59 L 140 62 Q 141 64 138 63 Q 136 61 135 64 Q 134 66 138 65 L 140 69 L 138 70 L 136 69 L 135 73 L 138 75 Q 139 79 137 80 L 134 79 L 135 77 L 134 77 L 131 77 L 134 75 L 134 74 Q 129 75 130 73 L 129 73 Q 128 78 131 79 Q 132 83 130 82 L 125 75 Q 122 76 123 73 L 121 73 L 122 70 Q 119 69 120 72 L 116 72 L 119 71 L 113 69 L 107 70 L 109 74 Q 105 73 104 77 Q 101 76 102 79 Q 100 82 99 78 L 98 80 L 98 82 L 99 83 L 101 82 L 99 89 L 102 94 L 99 98 L 107 102 L 109 101 L 113 103 L 114 106 Q 109 105 107 108 L 109 111 L 108 114 L 106 113 L 102 115 L 106 116 L 104 119 L 109 118 L 110 122 L 115 125 L 119 125 L 123 122 L 124 123 Q 123 113 119 108 L 115 107 L 115 105 L 119 105 L 119 102 L 129 98 L 127 96 L 128 93 L 125 88 L 125 85 Q 126 82 130 83 Q 131 86 128 85 Q 127 90 131 88 L 130 94 L 131 96 L 131 94 L 137 91 L 141 91 L 150 85 Q 159 83 163 87 L 164 90 Q 169 92 167 86 L 167 84 L 166 81 Q 171 82 173 79 L 174 82 L 172 83 L 172 85 L 168 87 L 171 87 L 173 91 Q 175 90 174 93 L 177 94 Q 178 97 180 95 L 184 97 L 187 103 L 187 107 L 184 111 L 184 115 L 187 120 L 195 122 L 198 121 L 204 115 L 205 116 L 207 113 L 209 118 L 207 118 L 205 118 L 207 121 L 206 123 L 201 126 L 206 126 Q 207 124 208 127 L 207 129 L 220 129 L 221 130 L 222 129 L 231 129 L 230 133 Q 227 134 228 131 L 225 131 Q 224 134 227 133 L 226 135 Q 223 136 224 133 L 219 135 L 223 136 Q 225 135 224 138 L 222 136 L 218 138 L 222 139 Q 224 138 223 141 L 220 140 L 220 142 L 218 145 Q 216 150 220 149 L 222 153 L 221 153 L 214 146 L 215 142 L 214 142 L 212 139 L 209 141 L 211 147 Q 210 150 205 149 L 205 144 L 203 147 L 200 149 L 196 147 L 199 145 L 197 140 Q 194 139 195 142 L 193 142 L 194 140 Q 193 137 192 139 Q 189 138 190 141 Q 192 142 190 143 Q 187 142 188 139 L 187 139 Q 180 137 182 143 L 184 143 Q 183 140 186 141 L 187 141 Q 188 144 185 143 L 185 146 L 184 145 L 183 148 L 201 154 L 203 153 L 205 156 L 207 155 Q 209 161 205 163 L 205 169 Q 211 172 213 180 L 216 181 L 226 201 L 226 196 Q 224 194 227 193 L 229 197 Q 230 200 228 201 Q 225 200 226 203 L 230 202 L 231 199 Q 232 196 237 197 L 238 198 L 237 193 Q 236 189 232 190 Q 231 187 236 188 L 238 192 Q 240 196 242 193 L 242 181 L 241 180 L 239 178 L 239 176 Q 240 173 237 174 L 237 176 L 235 173 L 235 171 L 234 168 Q 228 168 227 172 L 223 168 L 225 165 L 221 160 L 220 161 Q 215 162 217 157 Q 220 156 219 159 L 222 158 L 221 154 L 224 156 Q 223 162 226 161 Q 230 159 227 158 L 230 156 L 225 154 L 232 151 L 236 145 L 236 137 L 235 136 Q 236 132 232 134 Q 231 131 235 132 Q 236 134 238 131 L 239 133 L 237 134 L 239 134 L 238 139 L 240 139 L 240 122 L 232 123 L 239 124 L 238 124 L 236 124 L 231 126 L 237 127 L 239 126 Q 241 132 235 130 Q 233 132 232 130 L 235 129 L 231 127 L 225 128 L 224 126 L 227 127 L 229 126 L 227 125 L 230 124 L 231 122 Q 225 121 225 125 Q 218 126 216 123 L 214 124 Q 206 126 207 122 L 213 123 L 211 119 L 211 117 Q 214 116 213 119 L 219 122 L 225 121 Q 229 118 228 111 L 231 110 L 239 110 L 239 108 L 234 109 L 230 108 L 230 107 Q 234 108 233 105 L 221 109 L 219 108 Q 215 109 216 106 L 220 107 L 228 104 L 232 100 L 236 92 Q 238 93 237 90 L 239 90 L 235 87 L 237 83 L 233 81 L 234 79 L 233 77 Q 235 71 232 72 L 230 72 Q 224 71 222 73 L 223 71 L 221 69 Q 218 70 220 72 Q 216 71 215 74 Q 212 73 213 76 L 209 78 L 209 83 Q 213 83 212 89 L 208 90 L 209 88 L 209 84 L 208 86 L 207 87 L 204 86 Q 202 90 206 89 L 208 93 L 206 92 L 205 95 L 208 97 Q 209 93 211 97 Q 212 99 210 98 L 208 98 Q 204 97 205 100 Q 207 101 205 102 L 203 99 Q 206 97 202 96 L 204 90 L 199 87 Q 198 84 201 85 Q 205 83 201 81 Q 202 78 200 79 L 198 75 L 196 75 L 197 72 L 200 71 L 203 72 L 205 71 L 203 69 Q 200 68 201 65 Q 200 62 199 64 L 196 63 Q 195 60 198 61 Q 199 57 194 59 L 192 56 L 200 56 L 201 57 Q 207 56 211 53 L 217 45 Q 219 32 214 26 Q 210 24 214 22 L 218 23 L 220 23 L 228 23 L 229 22 L 231 23 L 236 22 L 236 25 L 218 25 L 217 27 L 235 27 L 237 26 L 237 17 L 235 20 L 220 20 L 219 19 L 215 20 L 214 19 L 206 19 L 207 17 L 217 17 L 217 15 L 218 13 Q 212 12 214 16 Q 209 17 208 15 L 213 14 L 206 11 L 198 11 L 197 10 Q 191 9 190 11 L 188 10 L 176 10 L 173 9 Q 171 12 165 10 L 163 10 L 157 12 L 155 11 L 153 12 L 152 11 L 126 11 L 123 10 L 123 9 L 113 7 Z M 207 7 L 206 9 L 208 10 L 207 7 Z M 218 8 L 216 10 Q 219 12 225 11 L 224 14 Q 223 16 226 15 L 225 17 L 223 16 Q 218 15 219 18 L 227 18 L 228 17 L 233 18 Q 236 17 233 15 L 230 16 Q 227 15 228 12 L 222 8 L 218 8 Z M 229 8 L 230 10 L 234 9 L 229 8 Z M 235 8 Q 234 11 237 10 Q 238 7 235 8 Z M 237 12 L 236 15 L 237 15 L 237 12 Z M 125 14 L 124 15 L 111 15 L 104 16 L 105 18 L 106 17 L 122 17 L 123 16 L 128 16 L 128 19 L 127 18 L 118 19 Q 117 22 121 21 Q 122 25 115 23 L 115 24 Q 119 23 118 26 Q 112 25 109 28 L 116 28 Q 117 26 118 29 L 115 36 L 115 40 L 118 49 L 124 54 L 135 56 Q 139 57 141 55 L 144 55 Q 143 52 146 53 L 145 52 Q 144 48 148 50 L 148 48 L 145 46 Q 141 45 142 48 L 143 49 L 136 49 L 135 47 L 134 47 Q 130 48 131 45 L 133 45 Q 132 42 131 44 Q 127 45 128 42 Q 131 40 138 41 L 140 41 L 141 39 L 128 39 L 127 37 L 140 37 L 130 36 L 126 35 L 129 33 L 128 32 L 126 29 Q 129 23 137 21 L 145 21 Q 146 25 151 24 L 152 26 L 152 24 L 154 24 L 148 23 L 149 21 L 149 19 L 141 19 Q 138 18 141 16 L 146 17 L 162 17 Q 161 14 158 15 L 156 15 L 140 15 L 139 16 Q 133 18 132 15 L 130 16 Q 128 12 127 15 L 125 14 Z M 163 15 Q 164 18 171 17 L 171 15 L 163 15 Z M 172 17 L 173 19 Q 177 18 179 20 L 183 20 L 181 18 L 172 17 Z M 107 19 Q 106 22 109 21 Q 110 18 107 19 Z M 115 19 L 113 20 L 113 21 L 117 21 L 115 19 Z M 152 19 L 152 20 L 155 20 L 152 19 Z M 167 19 L 167 20 L 169 20 L 167 19 Z M 187 19 L 187 20 L 190 20 L 187 19 Z M 156 22 L 157 24 L 159 24 L 162 23 L 163 24 L 163 22 L 156 22 Z M 166 22 L 166 24 L 169 25 L 170 28 L 170 23 L 166 22 Z M 174 22 L 173 25 L 174 26 L 175 23 L 179 23 L 174 22 Z M 100 23 L 100 24 L 107 24 L 100 23 Z M 109 23 L 109 24 L 112 24 L 109 23 Z M 184 24 L 181 25 L 182 27 L 187 26 L 184 24 Z M 192 25 L 193 27 L 197 26 L 192 25 Z M 101 26 L 100 28 L 107 28 L 104 27 L 101 26 Z M 74 28 L 74 32 L 73 35 L 77 53 L 77 58 L 79 63 L 82 86 L 82 88 L 86 105 L 86 112 L 89 127 L 89 134 L 91 140 L 91 146 L 97 171 L 97 178 L 102 202 L 102 204 L 105 217 L 106 233 L 108 236 L 109 242 Q 113 243 114 241 L 109 213 L 109 207 L 106 199 L 104 183 L 102 177 L 101 162 L 99 157 L 97 141 L 95 135 L 93 118 L 91 113 L 90 101 L 87 93 L 87 87 L 87 85 L 84 75 L 84 68 L 81 61 L 78 40 L 76 36 L 76 29 L 74 28 Z M 80 28 L 79 36 L 84 53 L 85 63 L 88 71 L 88 77 L 91 90 L 91 98 L 97 123 L 97 129 L 102 154 L 102 160 L 104 164 L 105 179 L 110 199 L 111 212 L 113 217 L 116 240 L 118 241 L 122 240 L 119 220 L 116 211 L 116 203 L 113 193 L 113 187 L 108 166 L 108 164 L 104 148 L 104 141 L 101 128 L 101 120 L 99 116 L 93 86 L 93 81 L 90 72 L 90 65 L 87 58 L 84 42 L 81 37 Q 82 31 80 28 Z M 131 28 L 131 30 L 140 30 L 136 29 L 134 29 L 131 28 Z M 154 28 L 148 30 L 144 35 L 146 45 L 151 47 L 154 46 L 157 47 L 157 45 L 161 44 L 161 42 L 165 42 Q 166 37 163 36 L 164 32 L 163 32 Q 159 33 160 30 L 154 28 Z M 183 28 L 174 35 L 174 37 L 172 38 L 172 42 L 174 41 L 178 42 L 181 46 Q 188 47 191 44 L 195 38 Q 196 31 193 29 L 187 28 L 185 29 L 183 28 Z M 200 28 L 197 29 L 198 31 L 201 30 Q 202 27 200 28 Z M 142 29 Q 142 33 144 30 L 142 29 Z M 224 29 L 220 30 L 221 32 L 236 32 L 236 34 L 232 35 L 230 34 L 225 35 Q 220 34 221 37 L 235 37 L 236 36 Q 238 35 237 38 L 232 40 Q 230 38 229 41 L 238 41 L 238 34 L 237 33 L 237 29 L 224 29 Z M 105 30 L 106 32 Q 107 29 105 30 Z M 133 32 L 133 33 L 137 33 L 133 32 Z M 141 32 L 138 34 L 141 34 L 141 32 Z M 203 32 L 198 34 L 204 34 Q 205 31 203 32 Z M 102 33 L 101 35 L 104 35 L 102 33 Z M 201 36 L 198 37 Q 197 41 205 39 Q 208 38 205 36 L 203 37 L 201 36 Z M 100 37 L 100 39 L 108 39 L 109 38 L 111 39 L 111 37 L 100 37 Z M 224 39 L 224 41 L 228 41 L 224 39 Z M 106 41 L 106 42 L 111 42 L 106 41 Z M 135 43 L 135 44 L 142 44 L 135 43 Z M 168 43 L 168 45 L 170 44 L 168 43 Z M 173 43 L 173 47 L 173 49 L 173 57 L 175 57 L 176 61 L 179 62 L 185 60 Q 188 58 186 52 L 173 43 Z M 224 43 L 223 44 Q 219 43 220 46 Q 223 44 229 45 Q 230 41 224 43 Z M 230 43 L 230 45 L 235 45 Q 234 42 230 43 Z M 238 43 Q 236 46 239 45 L 238 43 Z M 100 44 Q 99 47 103 46 Q 104 43 100 44 Z M 104 44 L 104 46 L 108 46 L 104 44 Z M 111 44 L 109 46 L 112 46 Q 113 43 111 44 Z M 166 44 L 165 45 Q 162 44 163 47 L 161 48 L 158 47 L 157 50 L 154 51 L 152 55 L 153 61 L 157 63 L 163 62 L 166 58 L 166 44 Z M 168 46 L 169 51 L 169 53 L 169 60 L 171 60 L 170 57 L 170 47 L 168 46 Z M 238 46 L 237 48 L 239 47 L 238 46 Z M 224 47 L 224 52 L 232 52 L 228 51 Q 225 50 227 49 L 224 47 Z M 230 47 L 230 48 L 233 48 L 230 47 Z M 99 48 L 99 50 L 105 49 L 113 50 L 113 48 L 99 48 Z M 237 51 L 237 54 L 221 54 L 220 53 L 218 54 Q 214 53 215 56 L 226 56 L 228 55 L 231 56 L 235 55 L 238 56 L 238 55 L 238 53 Q 239 50 237 51 Z M 100 52 L 98 54 L 99 64 L 99 62 L 110 62 L 111 63 Q 116 65 118 62 Q 119 64 124 63 L 126 63 L 129 62 L 101 61 L 99 60 L 125 59 L 124 57 L 116 57 L 115 56 L 101 57 Q 98 56 101 54 Q 111 53 117 55 L 116 52 Q 111 51 110 53 L 109 52 L 100 52 Z M 212 57 L 209 59 L 213 59 L 215 59 L 219 60 L 218 62 L 215 61 L 213 61 L 205 61 L 205 64 L 209 63 L 212 64 Q 217 66 219 63 L 234 63 L 234 61 L 222 61 L 220 60 L 234 59 L 235 63 L 238 64 L 235 64 L 233 64 Q 229 67 221 65 L 218 68 L 220 68 L 222 68 L 225 67 L 227 70 L 227 68 L 232 67 L 234 68 L 237 67 L 238 70 L 239 70 L 239 58 L 236 57 L 233 58 Q 231 56 227 57 L 224 58 L 219 57 L 216 58 L 212 57 Z M 199 59 Q 198 62 201 61 Q 202 58 199 59 Z M 148 61 L 149 62 L 152 63 Q 153 59 148 61 Z M 169 62 L 168 64 L 171 65 L 176 64 L 176 62 L 174 63 L 172 63 L 169 62 Z M 187 62 L 184 64 L 191 65 L 191 63 L 187 62 Z M 110 64 L 110 65 L 112 65 L 110 64 Z M 102 66 L 102 67 L 104 67 L 102 66 Z M 171 66 L 169 68 L 170 70 L 172 67 L 171 66 Z M 174 66 L 172 68 L 175 68 Q 176 65 174 66 Z M 212 66 L 206 67 L 207 69 L 211 68 L 212 69 Q 211 66 214 67 Q 215 69 216 67 L 212 66 Z M 101 69 L 101 70 L 106 70 L 101 69 Z M 97 71 L 97 76 Q 101 77 100 75 L 99 75 L 98 73 L 102 74 Q 104 75 103 72 L 102 72 L 97 71 Z M 209 72 L 207 74 L 210 74 L 209 72 Z M 206 76 L 206 78 L 208 77 L 206 76 Z M 204 78 L 204 80 L 206 79 L 204 78 Z M 205 81 L 205 84 L 208 84 L 205 81 Z M 149 88 L 146 90 L 143 95 L 141 94 L 139 95 L 141 98 Q 140 100 135 99 L 135 95 L 132 101 L 134 104 L 140 100 L 143 100 L 145 100 L 150 99 L 152 96 Q 156 96 157 99 L 160 99 Q 161 101 163 98 L 168 99 L 173 102 L 174 100 L 173 94 L 172 97 L 169 98 L 166 94 L 163 95 L 162 90 Q 158 87 149 88 Z M 168 92 L 168 93 L 171 93 L 168 92 Z M 239 94 L 237 96 L 239 96 L 239 94 Z M 237 98 L 238 100 L 240 99 L 237 98 Z M 179 100 L 176 105 L 180 107 L 181 109 L 181 108 Q 185 106 182 104 L 180 104 L 180 100 L 179 100 Z M 126 101 L 126 104 L 125 107 Q 122 106 123 109 L 125 108 L 126 111 L 131 107 L 129 102 L 126 101 Z M 235 101 Q 233 104 236 103 L 235 101 Z M 239 101 L 237 103 L 239 103 L 239 101 Z M 122 102 L 122 104 L 124 103 L 122 102 Z M 100 103 L 100 105 L 107 105 Q 105 102 100 103 Z M 152 103 L 149 106 L 153 107 Q 152 111 156 112 L 156 109 L 155 109 L 154 106 L 157 106 L 152 103 Z M 166 103 L 166 106 Q 169 105 166 103 Z M 171 103 L 169 108 L 168 107 L 167 109 Q 172 111 170 106 L 172 106 L 171 103 Z M 160 105 L 160 107 L 163 107 L 160 105 Z M 136 106 L 133 110 L 137 109 Q 138 105 136 106 Z M 142 107 L 142 108 Q 144 107 143 110 Q 146 111 145 109 L 142 107 Z M 160 108 L 161 110 Q 162 107 160 108 Z M 104 109 L 102 111 L 103 112 L 107 111 L 104 109 Z M 138 109 L 137 111 L 141 111 L 138 109 Z M 150 109 L 150 111 Q 149 113 152 112 Q 154 108 150 109 Z M 163 110 L 163 111 L 165 111 L 163 110 Z M 231 112 L 232 114 L 234 113 L 231 112 Z M 165 113 L 162 114 L 160 114 L 155 116 L 152 115 L 144 115 L 143 116 L 141 115 L 126 118 L 127 125 L 137 120 L 139 120 L 146 118 L 168 118 L 170 118 L 180 124 L 180 118 Q 179 115 178 117 L 171 115 Q 169 111 168 114 L 165 113 Z M 236 114 L 235 115 Q 230 114 231 117 L 239 116 L 240 114 L 238 115 L 236 114 Z M 234 118 L 233 120 Q 238 121 240 119 L 236 118 L 234 118 Z M 229 119 L 229 121 L 231 120 L 229 119 Z M 104 121 L 105 123 L 107 122 L 104 121 Z M 157 121 L 152 122 Q 151 125 154 124 Q 155 127 152 126 L 152 125 L 151 122 L 149 123 L 146 122 Q 142 124 146 126 L 143 127 L 148 128 L 150 127 L 152 131 L 152 142 L 150 142 L 149 135 L 147 133 L 147 135 Q 148 137 145 136 L 145 138 L 142 136 L 140 137 L 140 135 Q 137 136 138 133 L 140 133 L 140 131 L 142 131 L 137 130 L 137 138 L 136 139 L 136 142 Q 142 146 143 156 L 148 159 Q 153 158 155 161 L 160 160 L 164 156 Q 163 148 166 145 L 169 143 L 170 137 L 169 132 L 168 134 L 167 133 L 166 135 L 163 136 L 159 135 L 158 132 Q 154 133 155 130 L 162 126 L 166 127 L 164 122 L 157 121 Z M 143 123 L 139 126 L 140 128 L 142 127 L 143 125 L 143 123 Z M 106 124 L 105 128 L 106 128 L 106 124 Z M 110 124 Q 107 128 111 127 L 110 124 Z M 189 124 L 188 126 L 192 126 L 189 124 Z M 183 125 L 183 127 L 185 126 L 183 125 Z M 114 127 L 109 129 Q 103 127 105 133 L 107 134 L 106 132 Q 107 129 109 131 L 117 130 L 114 127 Z M 183 127 L 182 132 L 183 132 L 183 127 Z M 192 131 L 193 134 Q 192 136 195 135 L 194 133 Q 195 130 192 131 Z M 215 131 L 212 133 L 217 136 L 218 134 Q 215 135 216 132 L 218 132 L 215 131 Z M 220 131 L 220 132 L 222 132 L 220 131 Z M 113 132 L 111 136 L 117 138 L 119 135 Q 115 136 116 133 L 118 133 L 113 132 Z M 203 132 L 205 136 Q 206 133 211 134 Q 209 131 203 132 Z M 182 134 L 182 137 L 184 136 L 188 137 Q 189 140 191 136 L 182 134 Z M 107 135 L 107 138 Q 110 137 107 135 Z M 200 136 L 199 142 L 201 142 Q 202 137 200 136 Z M 208 136 L 207 141 L 209 140 L 208 136 Z M 121 137 L 121 139 L 123 138 L 121 137 Z M 110 138 L 107 141 L 108 148 Q 113 147 115 152 L 117 152 L 118 150 L 117 148 L 118 144 L 116 145 L 114 140 Q 113 137 110 138 Z M 120 140 L 120 143 L 122 144 L 121 147 L 124 149 L 123 147 L 125 146 L 124 144 L 125 141 L 124 141 L 120 140 Z M 240 140 L 239 143 L 240 143 L 240 140 Z M 238 144 Q 237 148 240 147 Q 241 143 238 144 Z M 238 149 L 240 151 Q 241 148 238 149 Z M 121 151 Q 120 154 123 153 Q 124 150 121 151 Z M 118 152 L 115 157 Q 114 160 117 159 L 119 155 L 118 152 Z M 189 152 L 188 154 L 193 159 L 192 159 L 190 159 L 191 163 L 195 165 L 201 166 L 202 162 Q 199 161 200 157 L 189 152 Z M 237 152 L 237 153 L 240 153 L 237 152 Z M 235 154 L 234 156 L 240 156 Q 239 153 238 155 L 235 154 Z M 234 157 Q 233 160 238 159 Q 239 155 234 157 Z M 112 159 L 111 161 Q 115 162 114 160 L 112 159 Z M 231 159 Q 232 163 228 165 L 230 167 L 232 166 L 236 167 L 237 171 L 241 174 L 241 164 L 240 167 Q 235 169 237 163 Q 234 162 233 165 Q 230 164 233 162 Q 235 163 234 161 L 231 159 Z M 237 160 L 240 163 L 240 162 L 237 160 Z M 111 162 L 111 164 L 113 163 L 111 162 Z M 113 167 L 112 169 L 115 171 L 113 167 Z M 191 170 Q 188 174 192 173 L 191 170 Z M 114 171 L 113 175 L 114 175 L 114 171 Z M 120 171 L 118 176 L 121 174 L 120 171 Z M 200 171 L 201 173 Q 202 170 200 171 Z M 199 173 L 198 175 L 201 176 L 201 174 L 199 173 Z M 202 173 L 204 179 L 202 180 L 204 180 L 203 182 Q 202 184 205 183 L 206 181 Q 205 178 208 179 L 209 182 L 209 179 Q 208 176 207 178 L 203 175 Q 204 172 202 173 Z M 205 173 Q 203 176 206 175 L 205 173 Z M 168 174 L 167 175 Q 164 174 165 177 L 168 176 L 168 174 Z M 115 176 L 114 179 L 115 179 L 115 176 Z M 126 176 L 124 178 L 126 178 L 126 176 Z M 129 176 L 128 179 L 130 179 L 131 177 L 129 176 Z M 182 176 L 182 178 L 186 180 L 184 178 Q 185 175 182 176 Z M 138 177 L 123 203 L 123 206 L 119 207 L 122 226 L 122 228 Q 123 239 128 247 L 128 251 Q 131 250 130 253 L 133 253 L 133 242 L 132 241 Q 131 236 133 235 L 130 218 L 130 205 L 130 203 L 129 201 L 131 198 L 133 209 L 132 213 L 134 219 L 136 243 L 137 206 L 138 208 L 138 242 L 139 243 L 138 247 L 139 248 Q 135 247 136 250 L 136 251 L 145 250 L 147 261 L 146 266 L 143 267 L 140 266 L 138 266 L 140 271 L 140 279 L 141 280 L 141 288 L 139 288 L 139 282 L 136 272 L 137 268 Q 138 264 134 266 Q 135 271 132 273 L 133 277 Q 129 278 132 280 L 132 283 L 129 287 L 132 288 Q 133 291 130 293 L 131 298 L 133 300 Q 134 306 132 308 L 129 310 L 120 309 L 115 304 L 116 302 L 116 295 L 114 295 L 111 300 L 106 305 L 104 305 L 102 308 Q 100 311 94 311 L 92 311 L 90 312 L 80 307 L 76 303 L 77 298 Q 74 294 75 288 L 67 302 L 64 314 L 62 317 L 66 317 L 62 327 L 61 343 L 60 344 L 62 352 L 61 354 L 60 352 L 57 356 L 59 359 Q 61 365 58 367 L 63 382 L 67 387 Q 65 391 69 390 L 70 393 L 68 393 L 72 399 L 71 404 L 65 395 L 64 387 L 62 410 L 62 412 L 61 416 L 63 425 L 61 437 L 59 441 L 60 443 L 59 444 L 59 453 L 58 454 L 57 467 L 54 477 L 54 486 L 50 490 L 44 502 Q 45 504 51 503 L 54 502 L 55 505 L 56 503 Q 57 506 63 505 L 65 505 L 75 506 L 79 498 L 86 492 L 88 492 L 87 501 L 91 500 L 97 502 L 113 502 L 116 501 Q 117 503 119 500 Q 124 505 134 507 L 139 507 Q 143 501 152 498 L 162 499 L 167 501 L 169 501 L 163 498 L 165 495 L 168 497 L 173 497 L 181 500 L 203 500 L 207 495 Q 210 498 217 497 L 222 491 L 227 491 L 242 502 L 249 503 L 251 503 Q 253 506 259 505 L 260 506 L 258 502 Q 255 497 249 496 L 237 485 L 233 476 L 233 466 L 232 465 L 233 463 L 232 462 L 232 450 L 231 449 L 231 420 L 232 419 L 231 417 L 231 391 L 229 421 L 228 422 L 228 433 L 227 434 L 227 457 L 226 458 L 226 468 L 225 469 L 226 479 L 226 481 L 226 484 Q 223 483 224 486 L 217 486 L 213 481 L 214 476 L 220 475 L 219 479 Q 215 478 216 482 Q 218 484 223 483 L 223 462 L 224 461 L 224 447 L 225 446 L 224 444 L 225 443 L 226 410 L 227 409 L 227 380 L 226 379 L 226 374 L 234 364 L 235 359 L 235 354 L 234 357 L 232 358 L 235 353 L 232 340 L 223 325 L 219 326 L 217 328 Q 215 324 214 327 L 209 324 L 204 324 L 205 321 L 205 319 L 202 320 L 200 316 L 195 315 Q 192 316 193 314 Q 195 310 200 310 L 201 308 L 193 298 Q 194 294 191 295 L 193 303 L 192 305 L 189 299 L 191 293 L 190 290 L 190 238 L 189 237 L 189 211 L 191 208 L 188 203 L 185 201 L 186 203 Q 188 208 185 210 L 185 237 L 186 238 L 183 271 L 180 272 L 181 253 L 182 250 L 182 234 L 181 233 L 182 224 L 182 222 L 181 220 L 182 218 L 181 216 Q 183 211 182 203 L 183 200 L 185 200 L 181 195 Q 182 191 180 192 L 171 181 L 171 178 Q 165 177 163 180 L 162 179 L 149 179 L 148 178 L 144 179 L 138 177 Z M 132 178 L 130 181 L 132 180 L 132 178 Z M 182 179 L 181 181 Q 178 182 182 184 L 181 186 L 186 189 L 188 192 Q 190 191 188 190 Q 189 185 184 187 L 182 179 Z M 193 179 L 194 183 L 195 183 Q 196 178 193 179 Z M 120 181 L 120 185 L 120 184 Q 122 182 120 181 Z M 126 181 Q 125 184 128 183 L 127 186 L 129 185 Q 131 179 126 181 Z M 187 181 L 186 183 L 186 185 L 189 185 L 187 181 Z M 201 181 Q 199 184 202 183 L 201 181 Z M 95 182 L 93 184 L 95 184 L 95 182 Z M 123 182 L 123 184 L 126 185 L 126 184 L 123 182 Z M 179 182 L 178 185 L 179 185 L 179 182 Z M 122 183 Q 120 186 123 185 L 122 183 Z M 208 183 L 209 185 L 210 185 L 208 183 Z M 93 185 L 91 188 L 93 188 L 93 185 Z M 206 185 L 206 187 L 208 186 L 206 185 Z M 120 186 L 117 191 L 120 193 L 119 190 L 120 188 L 120 186 Z M 125 186 L 125 189 L 126 189 Q 127 185 125 186 Z M 181 186 L 180 188 L 183 190 L 181 186 Z M 95 187 L 96 197 L 94 197 Q 95 199 92 198 L 94 202 L 95 199 L 96 199 L 94 204 L 95 205 L 97 204 L 96 208 L 95 207 L 94 211 L 96 211 L 94 212 L 95 215 L 94 215 L 94 217 L 93 219 L 92 218 L 90 222 Q 87 221 88 224 L 90 224 L 89 226 L 90 227 L 93 223 L 94 226 L 93 225 L 92 227 L 95 229 L 94 224 Q 92 216 97 218 L 97 229 L 99 230 L 99 229 L 102 230 L 101 221 L 99 221 L 101 220 L 101 215 L 99 219 L 99 218 L 97 210 L 99 205 L 99 203 L 96 193 Q 97 186 95 187 Z M 122 189 L 121 192 L 122 192 L 122 189 Z M 192 189 L 192 192 L 197 196 L 193 191 Q 194 188 192 189 Z M 215 189 L 214 191 L 216 192 L 215 189 Z M 89 192 L 91 195 L 91 194 L 89 192 Z M 217 192 L 215 195 L 217 194 L 217 192 Z M 117 193 L 118 197 L 119 195 Q 120 192 117 193 Z M 121 193 L 118 201 Q 117 203 120 202 L 122 198 L 121 196 Q 123 194 121 193 Z M 186 193 L 187 195 Q 188 192 186 193 Z M 192 193 L 190 196 L 192 195 L 192 193 Z M 93 195 L 91 197 L 93 197 L 93 195 Z M 195 196 L 193 197 L 189 199 L 192 202 L 194 201 L 193 200 L 194 198 L 194 200 L 195 200 L 195 196 Z M 219 196 L 217 199 L 220 200 L 221 200 L 219 196 Z M 241 197 L 241 201 L 242 201 L 241 197 Z M 235 199 L 232 202 Q 234 207 229 205 L 229 210 L 234 220 Q 235 218 241 219 L 242 218 L 242 203 L 241 205 L 238 201 L 235 199 Z M 197 200 L 195 202 L 196 203 L 198 202 L 197 200 Z M 219 200 L 218 203 Q 222 205 222 211 L 226 211 L 225 210 L 225 209 L 222 201 L 219 202 L 219 200 Z M 216 201 L 216 204 L 217 204 Q 218 200 216 201 Z M 91 202 L 90 204 L 92 205 L 91 202 Z M 333 202 L 332 204 L 330 206 L 323 209 L 325 214 Q 326 219 323 222 L 334 226 L 333 224 Q 331 217 334 216 L 333 213 L 334 208 L 333 202 Z M 197 203 L 194 206 L 196 206 L 197 205 L 199 207 L 197 203 Z M 87 204 Q 85 207 88 206 L 87 204 Z M 211 205 L 210 208 L 211 210 L 213 209 Q 214 204 211 205 Z M 216 205 L 217 207 Q 218 204 216 205 Z M 220 205 L 218 209 L 216 208 L 214 209 L 216 212 L 218 211 L 219 217 L 222 218 L 223 216 L 222 216 L 220 213 L 220 211 L 220 205 Z M 85 208 L 84 212 Q 82 217 86 216 L 85 215 L 87 209 L 85 208 Z M 88 210 L 89 214 L 90 212 Q 91 209 88 210 Z M 212 210 L 212 212 L 214 213 Q 215 209 212 210 Z M 100 211 L 99 214 L 100 214 L 100 211 Z M 208 211 L 206 215 L 208 215 Q 209 217 206 216 L 206 218 L 210 216 L 208 211 Z M 216 212 L 214 215 L 216 214 L 216 212 Z M 91 213 L 90 216 L 91 216 L 91 213 Z M 225 213 L 225 220 L 226 216 L 225 213 Z M 89 215 L 87 221 L 89 221 L 89 215 Z M 84 216 L 80 226 L 82 226 Q 80 222 84 223 L 85 221 L 84 221 L 84 220 L 84 216 Z M 211 216 L 210 218 L 212 220 Q 209 221 210 218 L 208 219 L 212 225 L 212 224 L 213 221 Q 213 217 211 216 Z M 227 219 L 225 223 Q 228 224 227 222 L 230 223 L 230 220 L 227 219 Z M 235 220 Q 233 225 237 226 Q 242 228 240 223 L 242 223 L 241 220 L 239 221 L 235 220 Z M 207 221 L 205 223 L 207 223 L 207 221 Z M 85 223 L 84 226 L 85 226 L 85 223 Z M 228 223 L 229 225 Q 230 222 228 223 Z M 224 224 L 224 226 L 226 225 L 224 224 Z M 216 225 L 215 229 L 217 228 L 216 225 Z M 89 227 L 89 231 Q 86 232 88 234 Q 85 233 86 236 L 88 235 L 87 239 L 88 242 L 88 241 L 89 241 L 88 243 Q 84 242 85 246 L 87 245 L 89 249 L 92 243 L 91 243 L 91 242 L 91 239 Q 88 240 89 238 L 89 236 L 90 234 L 91 236 L 93 235 L 96 238 L 94 234 L 96 233 L 95 230 L 94 232 L 93 231 Q 95 229 93 228 L 91 233 L 90 233 L 91 228 L 89 227 Z M 197 227 L 196 230 L 197 230 L 197 227 Z M 240 227 L 240 229 L 238 230 L 241 232 L 237 233 L 241 233 L 241 235 L 238 234 L 239 237 L 241 236 L 242 237 L 242 228 L 240 227 Z M 84 228 L 81 231 L 82 233 L 80 238 L 84 235 Q 86 236 85 232 L 84 228 Z M 87 229 L 86 231 L 88 230 L 87 229 Z M 98 230 L 96 234 Q 95 236 98 235 L 99 236 L 98 230 Z M 226 230 L 225 233 L 226 233 L 226 230 Z M 198 231 L 197 237 L 198 237 L 198 231 Z M 209 231 L 208 233 L 210 234 L 209 231 Z M 79 232 L 78 235 L 79 235 L 79 232 Z M 220 232 L 219 235 L 220 235 L 220 232 Z M 100 233 L 101 235 Q 102 232 100 233 Z M 232 233 Q 231 236 234 235 Q 235 232 232 233 Z M 211 234 L 212 241 L 214 242 L 211 234 Z M 221 235 L 220 238 L 221 238 L 221 235 Z M 233 236 L 233 238 Q 232 242 235 241 L 234 238 Q 235 235 233 236 Z M 99 238 L 97 241 L 99 240 L 99 238 Z M 204 238 L 202 241 L 204 241 L 204 238 Z M 239 238 Q 238 241 242 240 Q 243 237 239 238 Z M 77 239 L 75 243 L 76 245 L 77 243 L 77 239 Z M 82 240 L 80 243 L 82 242 L 82 240 Z M 219 240 L 218 243 L 219 243 L 219 240 Z M 236 241 L 234 243 L 235 246 L 237 247 L 236 241 Z M 242 241 L 240 243 Q 239 246 243 244 L 242 241 Z M 79 243 L 76 247 Q 75 250 78 249 L 81 253 L 81 251 L 78 248 L 79 247 L 79 243 Z M 82 243 Q 80 246 83 245 L 82 243 Z M 211 243 L 209 246 L 211 245 L 211 243 Z M 112 244 L 111 245 Q 107 244 108 247 L 116 245 L 112 244 Z M 82 246 L 80 248 L 82 250 L 83 247 L 82 246 Z M 122 246 L 115 248 L 113 252 Q 114 254 116 252 L 118 253 L 124 252 L 125 248 L 122 246 Z M 217 246 L 216 249 L 219 254 L 221 254 L 217 246 Z M 242 246 L 244 248 Q 245 245 242 246 Z M 203 247 L 201 252 L 203 251 L 203 247 Z M 74 248 Q 72 252 76 253 L 76 250 L 75 250 L 74 248 Z M 207 248 L 207 250 L 209 249 L 207 248 Z M 105 249 Q 103 252 106 251 L 105 249 Z M 220 249 L 220 251 L 222 250 L 220 249 Z M 239 249 L 236 251 L 238 255 L 236 256 L 239 257 L 240 258 L 239 253 L 239 251 L 239 249 Z M 88 250 L 87 253 L 88 253 L 88 250 Z M 73 251 L 71 254 L 73 254 L 74 255 L 73 251 Z M 230 251 L 229 253 L 227 253 Q 226 255 230 254 L 230 251 Z M 142 252 L 118 259 L 113 259 L 103 262 L 97 262 L 94 263 L 98 272 L 106 268 L 117 265 L 135 264 L 136 263 Q 142 261 144 264 L 145 262 L 144 258 L 143 255 Q 144 251 142 252 Z M 77 253 L 75 256 L 76 257 Q 80 255 77 253 Z M 80 253 L 77 258 L 80 259 L 79 258 L 80 256 L 80 253 Z M 208 254 L 207 257 L 208 257 L 208 254 Z M 73 257 L 73 259 L 75 260 Q 76 256 73 257 Z M 70 258 L 68 262 L 70 261 L 70 263 L 72 262 L 73 265 L 74 261 L 73 261 L 70 260 L 70 258 Z M 241 258 Q 238 260 241 261 L 242 261 L 241 258 Z M 78 259 L 76 261 L 77 263 L 78 261 L 78 259 Z M 203 259 L 201 263 L 203 262 L 203 259 Z M 213 259 L 211 263 L 213 262 L 213 259 Z M 231 259 L 230 263 L 231 263 L 231 259 Z M 83 261 L 77 271 L 78 272 L 81 269 Q 80 264 83 263 L 83 261 Z M 235 261 L 234 264 L 234 266 L 236 266 L 235 261 Z M 241 262 L 241 268 L 242 268 L 241 262 Z M 70 263 L 68 265 L 70 266 L 70 263 Z M 88 263 L 86 266 L 88 265 L 88 263 Z M 67 265 L 66 268 L 67 268 L 67 265 Z M 72 265 L 71 269 L 68 268 Q 65 270 68 271 L 72 270 L 74 267 L 72 265 Z M 245 266 L 242 270 L 244 269 L 243 271 L 244 274 L 246 271 L 245 266 Z M 122 267 L 120 269 L 122 269 L 122 267 Z M 236 269 L 238 276 L 239 276 L 238 273 Q 239 268 236 269 Z M 93 270 L 91 274 L 93 273 L 93 270 Z M 230 270 L 229 273 L 230 273 L 230 270 Z M 234 270 Q 231 271 232 275 L 234 274 L 234 270 Z M 112 271 L 110 273 Q 106 272 107 275 Q 103 276 106 278 L 104 278 L 108 284 L 110 281 L 116 284 Q 118 285 117 282 L 119 282 L 118 278 L 117 281 L 114 278 Q 109 279 111 275 Q 115 274 117 277 L 118 274 Q 117 270 112 271 Z M 125 271 L 123 273 L 121 272 L 119 273 L 121 276 L 127 272 L 125 271 Z M 75 272 Q 74 275 77 274 Q 78 271 75 272 Z M 245 272 L 244 275 L 245 278 L 247 274 Q 248 271 245 272 Z M 65 274 L 65 277 Q 68 276 65 274 Z M 75 274 L 72 278 L 75 276 L 77 277 L 78 275 L 77 275 L 75 274 Z M 236 274 L 235 277 L 236 277 L 236 274 Z M 128 276 L 120 280 L 121 282 L 128 278 L 128 276 Z M 95 277 L 94 280 L 95 280 L 95 277 Z M 248 278 L 249 280 Q 250 277 248 278 Z M 69 280 L 69 282 L 71 281 L 69 280 Z M 239 280 L 240 282 Q 241 279 239 280 Z M 248 280 L 246 282 L 248 285 L 248 283 Q 250 281 248 280 Z M 99 281 L 98 284 L 99 284 L 99 281 Z M 65 282 L 63 285 L 65 285 L 65 282 Z M 241 282 L 242 290 L 244 289 L 241 282 Z M 250 282 L 248 288 L 251 290 L 250 288 L 251 286 L 250 282 Z M 109 284 L 109 285 L 113 287 L 114 287 Q 113 283 109 284 Z M 120 285 Q 119 288 115 287 L 115 288 Q 120 289 121 286 L 120 285 Z M 194 285 L 192 293 L 193 294 L 195 293 L 194 285 Z M 220 286 L 220 288 L 222 287 L 220 286 Z M 84 288 L 82 290 L 84 290 L 84 288 Z M 212 290 L 210 293 L 212 292 L 212 290 Z M 217 290 L 215 294 L 217 293 L 217 290 Z M 116 291 L 116 292 L 118 292 L 116 291 Z M 243 291 L 243 295 L 243 297 L 244 299 L 245 299 L 244 294 L 246 294 L 246 293 L 243 291 Z M 58 292 L 58 294 L 60 293 L 58 292 Z M 231 292 L 229 295 L 231 296 L 231 292 Z M 63 295 L 61 297 L 63 297 L 63 295 Z M 255 296 L 254 300 L 255 300 L 255 296 Z M 126 297 L 123 298 Q 119 299 120 304 L 126 307 L 128 306 Q 132 304 130 298 L 126 297 Z M 56 298 L 55 302 L 56 302 L 56 298 Z M 216 298 L 216 300 L 216 302 L 211 302 Q 212 305 209 304 L 208 310 L 204 316 Q 202 317 205 318 L 211 308 L 213 306 L 217 306 L 220 310 L 219 315 L 213 322 L 214 323 L 217 319 Q 219 314 224 314 L 223 319 L 221 320 L 219 323 L 226 319 Q 226 312 222 309 L 224 309 L 226 308 L 223 304 L 223 301 L 221 301 L 222 299 L 216 298 Z M 57 299 Q 56 302 59 301 Q 60 298 57 299 Z M 198 299 Q 196 302 200 303 Q 202 304 201 302 L 198 299 Z M 254 300 L 253 303 L 254 303 L 254 300 Z M 256 300 L 255 303 L 256 303 L 256 300 Z M 57 303 L 55 307 L 55 308 L 57 307 L 57 303 Z M 247 304 L 247 308 L 246 307 L 245 307 L 246 310 L 248 309 L 249 307 Q 250 303 247 304 Z M 254 304 Q 254 307 256 306 Q 257 310 255 312 L 256 314 Q 254 318 258 317 L 257 316 L 257 305 L 254 304 Z M 100 305 L 95 308 L 100 308 L 100 305 Z M 201 305 L 201 307 L 203 306 L 201 305 Z M 244 305 L 243 310 L 244 310 L 244 305 Z M 53 306 L 52 309 L 53 309 L 53 306 Z M 237 308 L 234 312 L 237 310 L 237 308 Z M 216 309 L 215 311 L 217 312 L 216 309 Z M 54 312 L 55 314 Q 56 311 54 312 Z M 60 312 L 59 315 L 60 315 L 60 312 Z M 199 312 L 199 314 L 201 313 L 199 312 Z M 239 312 L 237 315 L 239 314 L 239 312 Z M 247 313 L 249 319 Q 251 318 250 315 Q 248 316 247 313 Z M 51 314 L 49 322 L 51 321 L 51 314 Z M 212 314 L 207 320 Q 206 323 209 322 Q 213 320 210 319 L 212 316 L 211 318 L 212 319 Q 217 317 212 314 Z M 59 316 L 57 323 Q 56 325 59 324 L 59 316 Z M 54 318 L 53 321 L 54 321 L 54 318 Z M 258 318 L 257 322 L 258 322 L 258 318 Z M 250 319 L 249 322 L 249 324 L 250 330 L 251 325 L 250 319 Z M 253 319 L 252 324 L 253 324 L 253 319 Z M 247 321 L 246 325 L 248 325 L 247 321 Z M 232 322 L 229 325 L 230 329 Q 229 325 232 324 L 232 322 Z M 254 324 L 253 327 L 254 327 L 254 324 Z M 57 325 Q 55 327 56 334 L 53 339 Q 52 344 54 346 Q 52 347 53 353 L 57 355 L 58 353 L 57 348 Q 55 341 58 340 L 57 336 L 59 326 L 57 325 Z M 242 327 L 240 330 L 242 329 L 242 327 Z M 243 330 L 241 333 L 243 332 L 243 330 Z M 255 330 L 254 335 L 255 335 L 255 330 Z M 253 332 L 251 337 Q 250 340 253 339 L 253 342 L 254 342 Q 255 335 253 332 Z M 250 335 L 248 337 L 250 337 L 250 335 Z M 244 336 L 242 339 L 244 339 L 244 336 Z M 237 337 L 235 339 Q 234 341 237 340 L 237 337 Z M 250 338 L 249 342 L 250 342 L 250 338 Z M 242 339 L 240 342 L 242 341 L 242 339 Z M 245 344 L 242 349 L 245 347 L 245 344 Z M 302 348 L 291 352 Q 285 356 283 364 L 284 373 L 280 370 L 278 373 Q 277 375 276 373 Q 273 372 274 375 L 274 377 Q 275 379 272 378 L 271 375 L 263 376 L 253 388 Q 254 392 252 394 L 254 402 L 257 403 Q 260 404 259 408 L 252 412 L 253 416 L 252 418 L 250 418 Q 249 423 251 425 L 251 434 L 250 435 L 251 436 L 251 445 L 252 448 L 251 451 L 253 456 L 252 458 Q 257 463 270 461 L 273 464 Q 275 463 274 466 L 280 471 Q 282 477 279 479 L 282 480 Q 288 480 290 476 L 293 476 L 294 479 Q 295 481 299 480 L 300 481 Q 301 469 299 462 L 295 461 L 293 459 L 297 456 L 296 453 Q 294 455 290 454 Q 287 453 288 449 L 293 448 L 298 449 L 297 446 Q 299 442 305 443 L 309 447 L 310 446 L 316 448 L 318 448 L 314 445 L 317 443 Q 319 444 318 441 L 313 437 L 306 430 L 305 430 Q 298 431 297 427 L 291 428 L 289 425 L 295 423 L 305 423 L 306 422 Q 312 424 311 420 L 306 419 L 302 420 L 300 420 L 298 419 Q 295 420 296 418 L 299 415 L 310 414 L 311 413 L 311 411 L 309 412 L 307 409 L 314 408 L 316 408 L 320 408 Q 319 405 315 406 L 316 404 Q 317 401 310 402 L 308 402 Q 303 402 301 399 L 303 397 L 313 397 L 312 394 L 309 395 L 307 392 L 315 390 L 321 390 L 322 391 L 322 387 L 315 387 L 315 385 L 322 382 L 320 381 Q 318 376 325 378 L 330 377 L 333 377 L 333 370 L 329 367 L 325 369 Q 322 368 324 367 L 324 362 L 321 355 L 312 349 L 303 349 L 302 348 Z M 242 349 L 239 352 L 240 354 L 242 351 L 242 349 Z M 244 350 L 242 352 L 244 352 L 244 350 Z M 244 354 L 243 358 L 246 356 Q 247 353 244 354 Z M 241 356 L 239 358 L 240 360 L 241 358 L 241 356 Z M 241 358 L 241 360 L 241 361 L 243 360 Q 244 357 241 358 Z M 246 358 L 244 360 L 246 360 L 246 358 Z M 251 359 L 250 364 L 251 364 L 251 359 Z M 244 360 L 241 364 L 244 362 L 244 360 Z M 246 362 L 241 368 L 246 364 L 246 362 Z M 241 364 L 238 367 Q 237 369 240 368 L 241 366 L 241 364 Z M 245 367 L 241 373 L 245 370 L 245 367 Z M 24 370 L 15 373 L 9 377 L 7 379 L 7 421 L 13 419 Q 18 421 17 418 L 21 415 L 18 412 L 16 410 L 22 407 L 27 408 L 31 406 L 34 407 L 36 413 L 33 414 L 33 416 L 41 416 L 42 419 L 43 420 L 49 420 L 48 425 L 40 428 L 40 430 L 39 432 L 49 432 Q 52 435 58 434 L 59 437 L 61 429 L 61 424 L 59 418 Q 58 413 60 412 L 59 407 L 60 404 Q 62 398 59 399 L 56 397 L 56 392 L 52 383 Q 46 374 37 370 L 24 370 Z M 232 371 L 230 373 L 231 383 L 231 375 L 232 374 L 232 371 Z M 245 371 L 244 374 L 245 374 L 245 371 Z M 243 376 L 243 378 L 242 380 L 245 378 Q 246 375 243 376 Z M 240 379 L 237 384 Q 236 386 239 385 L 240 383 L 240 379 Z M 244 381 L 242 383 L 244 383 L 244 381 Z M 242 383 L 239 387 L 242 385 L 242 383 Z M 231 384 L 230 387 L 231 387 L 231 384 Z M 244 384 L 243 386 L 242 389 L 243 392 L 244 392 L 244 384 Z M 328 385 Q 325 387 328 388 L 332 387 L 328 385 Z M 243 392 L 242 395 L 243 395 L 243 392 Z M 238 400 L 238 403 L 240 402 Q 241 399 238 400 Z M 243 400 L 242 403 L 243 403 L 243 400 Z M 251 401 L 250 409 L 254 407 L 251 401 Z M 246 402 L 245 406 L 246 406 L 246 402 Z M 319 402 L 320 403 L 321 404 Q 322 401 319 402 Z M 331 404 L 329 406 L 331 406 L 331 404 Z M 239 408 L 238 409 Q 235 408 236 412 L 240 409 L 239 408 Z M 245 409 L 244 414 L 245 414 L 245 409 Z M 241 410 L 239 413 L 241 412 L 241 410 Z M 330 414 L 330 416 L 333 417 Q 335 413 330 414 Z M 326 415 Q 325 418 328 417 Q 329 414 326 415 Z M 241 417 L 239 420 L 241 419 L 241 417 Z M 328 418 L 326 420 L 327 421 L 329 420 L 328 418 Z M 26 420 L 24 422 L 28 422 Q 29 419 26 420 Z M 34 420 L 31 421 Q 30 425 35 423 L 34 420 Z M 41 422 L 37 423 L 36 425 L 43 424 L 44 423 L 41 422 Z M 314 422 L 314 424 L 317 423 L 314 422 Z M 13 423 L 13 425 L 7 428 L 7 437 L 9 438 Q 13 437 12 440 L 16 439 L 16 442 L 20 443 L 20 438 Q 17 439 18 436 L 13 435 L 9 430 L 12 427 L 18 425 L 18 423 L 13 423 Z M 323 423 Q 322 426 325 425 Q 326 422 323 423 Z M 239 424 L 238 427 L 240 427 L 241 425 L 239 424 Z M 245 424 L 243 427 L 244 428 L 245 440 L 246 440 L 245 424 Z M 327 426 L 325 428 Q 327 431 328 428 Q 329 425 327 426 Z M 331 426 L 332 430 L 333 428 Q 334 425 331 426 Z M 310 427 L 310 429 L 312 428 L 310 427 Z M 315 427 L 315 429 L 317 429 Q 316 432 319 431 L 318 430 Q 319 425 315 427 Z M 236 429 L 236 431 L 238 430 L 236 429 Z M 321 429 Q 320 432 323 431 Q 324 428 321 429 Z M 317 432 L 317 435 Q 320 434 317 432 Z M 58 437 L 51 441 Q 47 440 48 443 Q 50 447 52 444 L 55 446 L 53 449 L 51 448 L 48 449 L 45 448 L 43 449 Q 44 445 41 446 L 41 443 L 39 443 L 39 445 Q 36 444 37 447 L 33 450 L 30 454 L 30 465 L 29 466 L 30 486 L 31 488 L 38 489 L 41 487 L 43 488 L 45 487 Q 47 488 46 486 L 48 485 Q 47 488 50 487 L 53 479 L 53 473 Q 56 470 55 465 L 55 463 L 57 454 L 56 452 L 57 451 L 57 441 L 58 440 L 58 437 Z M 22 438 L 22 440 L 24 439 L 22 438 Z M 30 438 L 30 440 L 29 443 L 30 446 L 31 444 Q 32 437 30 438 Z M 326 438 L 325 452 L 326 452 L 326 438 Z M 241 441 L 240 444 L 241 444 L 241 441 Z M 37 442 L 35 443 L 32 447 L 33 449 L 37 444 L 37 442 Z M 247 444 L 247 456 L 248 453 L 247 444 Z M 14 451 L 14 453 L 17 454 Q 19 455 18 452 L 14 451 Z M 315 451 L 314 456 L 317 455 L 317 458 Q 316 460 312 459 Q 309 461 312 462 L 314 461 L 315 465 L 312 464 L 309 469 L 309 475 L 311 481 L 315 480 L 319 470 L 318 468 L 319 466 L 318 464 L 318 453 L 315 451 Z M 333 451 L 332 465 L 333 465 L 333 451 Z M 23 452 L 24 457 L 25 457 Q 27 451 23 452 Z M 242 452 L 241 455 L 242 455 L 242 452 Z M 17 456 L 14 459 L 12 458 Q 8 457 7 460 L 7 479 L 9 479 L 11 483 L 22 488 L 24 488 L 25 485 L 25 483 L 24 481 L 24 464 L 22 459 L 22 456 L 17 456 Z M 247 456 L 246 460 L 247 462 L 249 458 Q 250 455 247 456 Z M 326 457 L 325 460 L 326 460 L 326 457 Z M 238 459 L 239 463 L 240 461 Q 241 458 238 459 Z M 250 459 L 251 461 Q 252 458 250 459 Z M 326 461 L 325 480 L 326 480 L 326 461 Z M 253 462 L 251 464 L 253 465 L 253 462 Z M 254 463 Q 253 466 256 465 Q 257 462 254 463 Z M 263 463 L 261 466 L 262 468 L 263 466 L 263 463 Z M 266 463 L 264 467 L 266 466 L 266 463 Z M 240 464 L 238 468 L 240 467 L 240 464 Z M 267 464 L 266 467 L 267 468 L 269 465 L 267 464 Z M 252 466 L 250 468 L 252 468 L 252 466 Z M 244 467 L 242 471 L 244 471 L 244 467 Z M 270 467 L 268 470 L 270 469 L 270 467 Z M 261 468 L 260 471 L 261 471 L 261 468 Z M 241 469 L 238 474 L 239 476 Q 238 480 241 479 L 240 476 L 241 471 L 241 469 Z M 250 469 L 249 472 L 250 472 L 250 469 Z M 253 469 L 252 472 L 253 472 L 253 469 Z M 275 470 L 275 472 L 277 473 Q 278 469 275 470 Z M 305 471 L 304 482 L 305 482 L 305 471 Z M 242 472 L 241 475 L 242 475 L 242 472 Z M 249 472 L 247 475 L 249 475 L 249 472 Z M 252 472 L 250 476 L 252 475 L 252 472 Z M 245 474 L 246 476 Q 247 473 245 474 Z M 267 474 L 266 477 L 267 477 L 267 474 Z M 277 474 L 275 478 L 277 477 L 277 474 Z M 333 475 L 332 480 L 333 480 L 333 475 Z M 243 477 L 244 480 L 245 478 L 243 477 Z M 247 477 L 245 481 L 247 480 L 247 477 Z M 250 477 L 248 480 L 250 480 L 250 477 Z M 291 479 L 290 481 L 286 484 L 290 485 Q 293 486 294 484 L 292 483 L 291 479 Z M 252 480 L 250 485 L 252 484 L 252 480 Z M 275 480 L 273 482 Q 275 485 276 482 Q 277 479 275 480 Z M 249 481 L 247 483 Q 245 487 250 486 L 248 484 L 249 483 L 249 481 Z M 8 482 L 8 499 L 11 497 L 19 496 Q 20 492 25 493 L 24 490 L 20 491 L 9 485 L 8 482 Z M 244 482 Q 243 485 246 484 Q 247 481 244 482 Z M 270 483 L 271 485 Q 272 482 270 483 Z M 256 484 L 256 486 L 262 489 L 261 486 L 260 486 Q 257 487 258 484 L 256 484 Z M 310 484 L 310 486 L 315 485 L 310 484 Z M 265 485 L 264 488 L 265 488 L 265 485 Z M 270 485 L 268 489 L 267 486 L 265 490 L 275 491 L 276 487 Q 273 486 274 490 L 273 490 Q 274 485 271 486 L 271 489 L 270 485 Z M 317 486 L 314 488 L 318 488 Q 319 485 317 486 Z M 324 486 Q 323 490 326 489 Q 327 485 324 486 Z M 279 487 L 277 489 Q 276 491 279 490 L 279 487 Z M 292 487 L 293 489 L 300 492 L 301 490 Q 299 486 292 487 Z M 42 489 L 39 492 L 41 492 L 40 499 Q 41 502 39 501 L 38 503 L 41 502 L 43 497 L 42 489 Z M 312 489 L 310 491 Q 311 500 317 505 L 317 503 L 317 501 L 318 490 L 312 489 Z M 286 491 L 285 493 L 287 494 L 286 491 Z M 325 491 L 324 495 L 325 495 L 325 491 Z M 334 492 L 332 495 L 333 503 L 334 500 L 334 492 Z M 222 493 L 222 495 L 227 495 L 222 493 Z M 289 493 L 287 496 L 289 495 L 289 493 Z M 294 493 Q 292 496 295 495 L 294 493 Z M 261 495 L 262 497 Q 263 494 261 495 Z M 264 495 L 262 499 L 264 498 L 264 495 Z M 267 495 L 265 497 L 267 498 L 267 495 Z M 301 495 Q 299 498 302 497 L 301 495 Z M 22 496 Q 21 499 24 498 Q 25 495 22 496 Z M 270 496 L 268 498 L 269 500 L 270 498 L 270 496 Z M 83 497 L 82 499 L 84 498 L 83 497 Z M 21 498 L 11 500 L 9 503 L 22 500 Q 23 497 21 498 Z M 265 498 Q 262 499 263 503 L 266 501 Q 267 497 265 498 Z M 273 498 L 271 502 L 272 504 L 273 502 L 273 498 Z M 291 499 L 288 504 L 290 504 L 291 502 L 291 499 Z M 295 499 L 296 502 L 299 501 L 295 499 Z M 33 500 L 32 504 L 33 504 L 33 500 Z M 221 500 Q 219 502 215 501 L 213 503 L 193 504 L 192 505 L 189 504 L 187 505 L 184 504 L 178 507 L 183 508 L 187 507 L 193 509 L 215 511 L 222 513 L 227 510 L 229 511 L 233 510 L 236 511 L 246 511 L 246 509 L 245 507 L 237 506 L 230 501 L 228 501 L 226 501 L 221 500 Z M 268 500 L 266 503 L 268 502 L 268 500 Z M 307 500 L 306 502 L 313 509 L 315 509 L 314 508 L 312 505 L 307 500 Z M 276 501 L 274 504 L 280 506 L 283 505 Q 288 507 287 504 L 285 504 L 286 502 L 284 501 L 283 504 L 282 503 L 280 504 L 279 503 L 276 501 Z M 80 502 L 78 507 L 80 506 L 80 502 Z M 293 502 L 291 504 L 293 505 L 293 502 Z M 29 503 L 28 506 L 30 506 L 29 503 Z M 12 505 L 11 508 L 12 508 L 12 505 Z M 18 505 L 17 508 L 18 508 L 18 505 Z M 44 505 Q 43 508 38 507 L 33 511 L 26 510 L 23 509 L 20 510 L 24 512 L 37 512 Q 38 509 43 510 L 47 510 Q 51 510 51 508 L 51 506 L 49 507 L 47 507 L 44 505 Z M 7 507 L 8 509 L 10 508 L 7 507 Z M 53 507 L 54 509 L 56 508 L 53 507 Z M 68 507 Q 66 510 69 509 L 68 507 Z M 272 507 L 269 510 L 270 513 L 278 513 L 279 512 L 294 512 L 299 514 L 299 513 L 294 508 Q 287 506 286 509 Q 277 510 272 507 Z M 137 509 L 137 512 L 134 511 L 130 513 L 128 516 L 147 511 L 154 513 L 155 513 Q 149 508 137 509 Z M 170 509 L 170 512 L 164 515 Q 170 517 179 516 L 180 517 L 195 517 L 200 518 L 210 524 L 212 523 L 234 523 L 236 522 L 238 514 L 229 514 L 228 515 L 218 515 L 217 514 L 202 513 L 200 513 L 190 511 L 182 511 L 181 510 Q 176 509 175 511 Q 170 512 170 509 Z M 303 510 L 303 515 L 308 515 L 303 510 Z M 8 511 L 8 512 L 12 512 L 8 511 Z M 326 511 L 328 515 L 327 517 L 322 518 Q 323 520 325 518 L 328 518 Q 327 515 331 516 L 332 520 L 333 521 Q 330 522 331 520 L 328 522 L 328 523 L 332 523 L 331 526 L 332 528 L 330 529 Q 331 525 328 526 L 328 527 Q 330 526 329 530 L 333 531 L 334 532 L 334 514 L 333 512 L 331 513 L 331 512 L 326 511 Z M 12 512 Q 13 515 11 514 L 11 515 L 15 514 Q 16 511 12 512 Z M 43 513 L 40 517 L 39 514 Q 34 513 35 516 L 36 517 L 26 517 L 25 516 Q 14 515 9 518 L 7 522 L 9 525 L 13 522 L 14 526 L 10 533 L 13 533 Q 15 532 14 536 L 20 531 L 21 532 L 23 529 L 26 533 L 28 529 Q 27 525 30 526 L 32 523 Q 35 522 34 526 Q 33 528 32 526 L 30 529 L 32 529 L 31 533 L 33 535 L 33 533 L 39 529 L 43 520 Q 46 519 45 522 L 49 519 L 49 517 L 42 517 L 42 515 L 45 516 L 48 514 L 43 513 Z M 63 513 L 62 514 Q 59 513 60 517 L 63 515 L 64 516 L 77 516 L 82 520 L 85 520 L 87 520 L 93 518 L 95 516 L 93 515 Q 91 518 90 514 L 83 517 Q 80 518 81 515 Q 74 517 71 513 L 66 514 L 63 513 Z M 99 513 L 99 514 L 101 514 L 99 513 Z M 119 514 L 112 518 L 108 517 L 99 521 L 101 526 L 104 524 Q 108 523 110 525 L 113 524 L 115 527 L 123 521 Q 127 522 126 519 L 120 521 Q 113 522 114 520 L 119 516 L 119 514 Z M 286 514 L 288 517 L 294 516 L 286 514 Z M 7 515 L 7 517 L 10 516 L 7 515 Z M 29 515 L 29 516 L 31 516 L 29 515 Z M 55 515 L 51 517 L 51 518 L 57 516 L 55 515 Z M 148 516 L 142 518 L 142 519 Q 150 520 154 518 Q 155 515 148 516 Z M 295 516 L 295 517 L 297 517 L 295 516 Z M 319 516 L 319 518 L 321 517 L 319 516 Z M 267 517 L 266 520 L 263 518 L 261 518 L 259 519 L 255 518 L 253 519 L 269 528 L 274 523 L 275 524 L 276 523 L 285 523 L 280 520 L 270 519 L 267 517 Z M 313 517 L 311 519 L 313 519 L 313 517 Z M 163 518 L 163 519 Q 167 518 169 520 L 177 520 L 163 518 Z M 55 519 L 48 524 L 44 524 L 45 527 L 47 526 L 50 530 Q 52 524 60 522 L 60 521 Q 56 522 57 519 L 55 519 Z M 63 519 L 63 520 L 65 520 L 63 519 Z M 245 519 L 247 521 L 250 521 Q 249 518 245 519 Z M 189 520 L 189 521 L 194 522 L 199 522 Q 195 519 189 520 Z M 299 520 L 301 522 Q 302 519 299 520 Z M 134 521 L 134 523 L 132 524 L 130 523 L 124 527 L 121 527 L 120 529 L 131 529 L 132 528 L 136 529 L 138 529 L 142 528 L 146 529 L 147 528 L 158 528 L 159 527 L 172 527 L 172 525 Q 167 523 157 524 L 155 522 L 151 523 L 149 522 Q 140 520 139 524 Q 136 523 138 522 L 134 521 Z M 303 521 L 302 524 L 303 524 L 303 521 Z M 305 521 L 306 523 Q 307 520 305 521 Z M 65 522 L 61 523 L 55 528 L 52 534 L 42 539 L 42 536 L 45 530 Q 42 529 43 532 L 41 531 Q 34 539 24 543 Q 22 545 21 543 Q 20 540 23 541 L 23 539 L 20 534 Q 15 540 7 542 L 8 547 L 13 543 L 18 545 L 27 545 L 28 544 L 30 545 L 33 541 Q 37 540 38 543 L 47 540 L 49 541 L 52 540 Q 54 541 53 539 L 58 535 Q 60 534 59 537 L 62 536 L 65 538 L 63 541 L 67 543 L 71 541 Q 73 542 72 539 L 76 538 L 77 541 L 77 540 Q 79 534 85 535 Q 86 538 83 537 L 80 541 L 91 534 Q 95 533 94 528 L 90 524 L 83 523 L 81 523 L 80 522 L 65 522 Z M 253 522 L 254 524 Q 255 521 253 522 Z M 287 522 L 288 523 L 289 524 Q 290 521 287 522 Z M 322 522 L 322 523 L 326 523 L 322 522 Z M 180 523 L 179 528 L 182 529 Q 185 528 184 531 L 189 531 L 189 529 L 193 528 Q 202 527 207 530 L 245 531 L 246 532 L 254 532 L 256 529 L 251 526 L 249 527 L 246 525 Q 239 527 238 524 L 233 526 L 214 526 L 213 527 Q 205 528 203 524 L 200 525 L 193 525 Q 188 522 180 523 Z M 294 523 L 289 526 L 289 527 L 295 526 L 296 525 L 294 523 Z M 307 523 L 305 525 L 306 528 L 307 525 L 307 523 Z M 9 525 L 7 528 L 9 527 L 9 525 Z M 174 525 Q 172 528 175 527 L 174 525 Z M 284 526 L 285 528 L 287 527 L 284 526 Z M 322 526 L 322 527 L 325 527 L 322 526 Z M 303 528 L 302 531 L 303 531 L 303 528 Z M 296 529 L 296 530 Q 298 529 297 532 L 298 532 Q 299 528 296 529 Z M 314 529 Q 312 532 315 531 L 314 529 Z M 322 529 Q 321 532 324 531 Q 325 528 322 529 Z M 197 530 L 190 531 L 191 533 L 197 532 L 197 530 Z M 305 530 L 304 534 L 307 532 Q 308 529 305 530 Z M 159 531 L 156 532 L 157 534 L 161 532 L 159 531 Z M 199 531 L 199 532 L 202 533 L 204 532 L 199 531 Z M 117 532 Q 116 534 121 534 Q 122 530 117 532 Z M 182 532 L 182 533 L 184 533 L 182 532 Z M 258 532 L 258 533 L 261 533 L 258 532 Z M 273 532 Q 271 535 274 534 L 273 532 Z M 138 533 L 138 534 L 140 534 L 138 533 Z M 144 533 Q 144 537 146 534 L 144 533 Z M 283 533 L 283 535 L 282 537 Q 286 538 285 536 L 285 534 L 283 533 Z M 310 533 L 308 536 L 312 535 L 310 533 Z M 327 533 L 327 534 L 330 534 L 327 533 Z M 10 534 L 7 538 L 10 539 L 10 534 Z M 207 534 L 207 536 L 209 535 L 207 534 Z M 112 535 L 111 537 Q 114 536 113 539 L 117 539 L 117 536 L 116 538 Q 113 539 114 536 L 112 535 Z M 128 535 L 128 536 L 130 536 L 128 535 Z M 268 535 L 259 538 L 260 547 L 254 546 L 253 550 L 250 548 L 245 549 Q 242 548 243 551 L 245 550 Q 249 549 251 551 L 283 551 L 279 543 L 275 540 Q 272 541 273 539 L 268 535 Z M 29 536 L 28 537 Q 25 536 26 539 L 29 538 L 29 536 Z M 106 536 L 106 538 L 102 541 L 104 542 L 107 539 Q 108 535 106 536 Z M 158 536 L 156 541 L 158 540 L 158 536 Z M 121 537 L 119 540 L 121 539 L 121 537 Z M 294 537 L 293 541 L 295 541 L 294 537 Z M 301 537 L 301 540 L 302 540 Q 303 536 301 537 Z M 307 537 L 304 541 L 306 541 L 307 539 L 307 537 Z M 320 537 L 320 539 L 322 538 L 326 545 L 327 543 Q 328 540 325 541 L 325 538 L 320 537 Z M 288 538 L 287 542 L 289 541 L 290 544 L 291 542 L 290 539 L 288 538 Z M 327 538 L 330 545 L 332 548 Q 330 549 333 550 L 334 547 L 334 545 L 334 541 L 332 545 L 331 545 Q 332 540 329 541 L 330 539 L 332 540 L 332 538 L 327 538 Z M 92 539 L 90 541 L 91 543 L 94 541 L 92 539 Z M 310 539 Q 309 542 313 541 Q 314 538 310 539 Z M 125 540 L 123 543 L 126 541 L 125 540 Z M 152 540 L 150 544 L 152 544 L 152 540 Z M 56 541 L 54 543 L 56 544 L 56 541 Z M 121 541 Q 117 543 121 545 L 120 547 L 122 546 L 121 541 Z M 154 541 Q 153 544 156 543 Q 157 540 154 541 Z M 192 541 L 190 544 L 192 545 L 192 541 Z M 200 541 Q 199 544 202 543 Q 203 540 200 541 Z M 322 541 L 321 545 L 322 545 L 322 541 Z M 196 542 L 193 546 L 195 548 L 197 543 L 196 542 Z M 239 542 L 240 545 L 238 546 L 237 548 L 244 546 L 245 544 L 244 544 L 239 542 Z M 292 542 L 292 547 L 289 548 L 287 546 Q 284 547 285 543 L 283 543 L 287 550 L 288 551 L 295 551 L 296 547 Q 293 546 294 549 L 293 549 L 295 544 L 292 542 Z M 307 542 L 308 544 Q 309 541 307 542 Z M 311 542 Q 309 545 312 546 L 313 546 L 311 542 Z M 73 543 L 72 547 L 73 547 L 73 543 Z M 182 543 L 183 545 Q 184 542 182 543 Z M 189 543 L 189 549 L 190 549 L 189 543 Z M 301 543 L 301 550 L 300 546 L 299 549 L 296 551 L 303 551 L 302 550 L 303 545 Q 304 542 301 543 Z M 33 544 L 34 546 Q 35 543 33 544 Z M 79 544 Q 76 546 79 547 Q 84 549 83 545 L 79 544 Z M 199 544 L 197 546 L 199 546 L 199 544 Z M 47 545 L 46 550 L 44 550 L 43 546 L 42 550 L 41 549 L 40 549 L 41 551 L 50 551 L 50 546 L 48 550 L 47 545 Z M 124 545 L 123 549 L 126 547 Q 127 544 124 545 Z M 133 545 L 133 550 L 133 551 L 134 551 L 134 546 L 136 546 L 133 545 Z M 141 545 L 141 547 Q 140 549 143 548 L 142 547 Q 143 544 141 545 Z M 205 545 L 203 547 L 205 550 L 206 546 L 205 545 Z M 71 546 L 69 550 L 66 549 L 66 551 L 71 551 L 71 546 Z M 129 546 L 127 548 L 130 548 L 129 546 Z M 325 546 L 325 549 L 324 548 L 322 549 L 323 551 L 330 550 L 330 547 L 327 549 L 326 547 L 328 547 L 325 546 Z M 31 547 L 29 549 L 30 552 L 31 552 L 31 547 Z M 39 547 L 37 551 L 39 551 L 39 547 Z M 53 547 L 51 551 L 53 551 L 53 547 Z M 62 547 L 61 551 L 63 550 L 62 547 Z M 199 547 L 198 550 L 199 550 L 199 547 Z M 229 547 L 228 549 L 224 548 L 224 550 L 229 550 L 229 547 Z M 170 548 L 168 551 L 176 551 L 178 551 Q 181 552 180 549 L 178 550 L 176 549 L 170 550 L 170 548 Z M 232 548 L 231 550 L 234 550 L 232 548 Z M 306 548 Q 304 551 307 550 L 306 548 Z M 310 548 L 310 550 L 312 549 L 310 548 Z M 57 549 L 58 551 Q 59 548 57 549 Z M 74 549 L 72 551 L 74 551 L 74 549 Z M 85 549 L 78 551 L 86 551 L 85 549 Z M 90 549 L 87 551 L 94 552 L 94 550 L 90 549 Z M 149 549 L 148 551 L 152 551 L 149 549 Z M 208 549 L 208 550 L 210 550 L 208 549 Z M 212 549 L 213 551 L 215 551 L 212 549 Z M 314 549 L 312 551 L 315 551 Q 316 548 314 549 Z M 22 550 L 22 552 L 24 551 L 22 550 Z M 25 550 L 25 552 L 29 551 L 25 550 Z M 33 550 L 33 551 L 35 551 L 33 550 Z M 164 550 L 164 551 L 167 551 L 164 550 Z M 10 553 L 7 554 L 8 559 L 8 593 Q 16 595 30 594 L 31 595 L 41 595 L 42 594 L 64 594 L 65 595 L 69 594 L 139 594 L 141 594 L 174 594 L 175 593 L 186 594 L 189 593 L 210 593 L 211 594 L 215 593 L 218 594 L 250 594 L 252 593 L 254 593 L 269 593 L 271 594 L 274 593 L 285 593 L 286 594 L 291 593 L 293 594 Q 298 596 300 593 L 333 593 L 334 592 L 334 554 L 331 553 L 329 553 L 327 554 L 308 554 L 307 553 L 303 554 L 301 554 L 258 554 L 254 553 L 252 553 L 230 553 L 229 554 L 224 553 L 222 554 L 219 553 L 211 553 L 210 554 L 206 553 L 203 554 L 201 553 L 200 554 L 172 554 L 171 555 Q 162 557 159 554 L 157 554 L 154 555 L 149 554 L 145 555 L 137 555 L 136 554 L 134 555 L 130 554 L 128 554 L 126 555 L 124 555 L 122 554 L 118 554 L 109 554 L 108 555 L 106 554 L 76 554 L 75 553 Q 73 556 67 554 L 64 553 L 42 553 L 41 554 L 11 554 L 10 553 Z "></path><path d="M 186.5 30 L 191 31 L 192 37 L 186.5 34 L 183.5 38 Q 181.3 38.8 182 36.5 L 181 33.5 L 186.5 30 Z "></path><path d="M 152.5 31 L 158 34.5 Q 159.1 37.8 156.5 37 L 152.5 35 Q 149.8 40.8 147 35.5 L 149.5 32 L 152.5 31 Z "></path><path d="M 156.5 53 Q 161.3 52.3 162 55.5 Q 162.8 57.8 160.5 57 L 158.5 56 L 155 57 L 156.5 53 Z "></path><path d="M 178.5 54 Q 182.3 53.3 183 55.5 L 184 57.5 L 181.5 58 L 179.5 57 Q 178.2 59.3 177 56.5 L 178.5 54 Z "></path><path d="M 236 58 Q 239 56.8 238 60.5 L 236 59.5 L 236 58 Z "></path><path d="M 192 73 L 195 74.5 L 192 75 L 192 73 Z "></path><path d="M 141 75 Q 145.1 73.7 144 77 L 141.5 78 L 141 75 Z "></path><path d="M 149.5 78 Q 155.8 76.8 157 80.5 L 155.5 83 L 151.5 81 L 146.5 85 L 145 81 L 149.5 78 Z "></path><path d="M 109.5 79 L 113.5 79 L 119 83 L 118.5 85 L 110.5 82 L 107 87 Q 104.3 88.1 105 85.5 L 104 82.5 L 109.5 79 Z "></path><path d="M 135.5 81 L 139 83.5 L 140 85.5 L 136 88 Q 137.7 82.8 134 84 Q 135.1 86.7 132.5 86 L 131 83 L 135.5 81 Z "></path><path d="M 181.5 81 Q 188.8 79.8 190 84.5 L 189.5 88 Q 188.7 84.2 183.5 85 L 178 87 Q 177 83.2 179.5 82 L 181.5 81 Z "></path><path d="M 223.5 81 Q 230 80 232 83.5 L 233 85.5 Q 230.3 90.8 227.5 85 L 222.5 87 L 221 83.5 L 223.5 81 Z "></path><path d="M 208 100 Q 211.3 98.9 210 103 Q 206.7 104.1 208 100 Z "></path><path d="M 205.5 104 L 207 106.5 L 205 105.5 L 205.5 104 Z "></path><path d="M 201.5 106 L 203 110 L 197.5 112 L 188 109 Q 186.8 106 190.5 107 L 194.5 109 L 199.5 108 L 201.5 106 Z "></path><path d="M 208 106 Q 211.8 104.5 211 107.5 Q 209.5 110.5 208 107.5 L 208 106 Z "></path><path d="M 205.5 108 L 207 111.5 L 205 110.5 L 205.5 108 Z "></path><path d="M 190.5 113 L 194 114.5 L 193 119 L 189 116.5 L 190.5 113 Z "></path><path d="M 221.5 113 Q 224.1 112.2 223 115.5 L 219 116.5 Q 217.9 113.2 220.5 114 L 221.5 113 Z "></path><path d="M 111 115 Q 115.6 113.8 117 116.5 L 114 117 L 113.5 120 Q 110.3 118.8 111 115 Z "></path><path d="M 208 119 Q 211 118 210 121 Q 207 122 208 119 Z "></path><path d="M 148.5 124 L 149 126 L 147 125.5 L 148.5 124 Z "></path><path d="M 209.5 126 Q 217 124.5 220 127.5 L 218.5 128 L 216.5 128 Q 209.3 129.5 209.5 126 Z "></path><path d="M 283.5 127 Q 291.5 125.5 294 129.5 L 294.5 131 Q 295.3 128.3 299.5 129 L 301 132 L 305 133 Q 306.1 135.7 303.5 135 L 301.5 135 Q 297.5 135.5 297 132.5 L 296.5 131 L 291.5 133 L 288.5 130 L 282 128.5 L 283.5 127 Z "></path><path d="M 277.5 134 L 283.5 135 L 288.5 134 L 293 137.5 Q 294.3 141.3 290.5 140 L 285.5 136 L 282.5 140 Q 280.3 140.8 281 138.5 L 280 136 L 271 140 L 272.5 137 Q 277 137.5 277.5 134 Z "></path><path d="M 154.5 135 Q 156.3 138.1 158 136.5 L 156.5 138 L 154.5 135 Z "></path><path d="M 229.5 135 L 232 136 Q 233.1 138.7 230.5 138 L 229 140.5 L 229.5 142 L 227 140.5 L 228 138.5 Q 225.3 136.8 229.5 135 Z "></path><path d="M 166.5 138 L 168 140.5 L 166 139.5 L 166.5 138 Z "></path><path d="M 109.5 140 Q 113.5 139.5 114 142.5 L 112.5 145 L 110.5 145 L 108 143.5 L 109.5 140 Z "></path><path d="M 138.5 140 L 139 142 Q 141.7 140.9 141 143.5 L 138 141.5 L 138.5 140 Z "></path><path d="M 148.5 142 L 154.5 144 L 158 142 L 158 144.5 L 155 149 L 153 149.5 L 155.5 150 L 157.5 149 L 160.5 150 Q 164.7 148.9 163 153 L 158.5 152 L 156.5 152 L 147.5 154 Q 144 152 148.5 150 Q 152.3 150.8 153 148.5 Q 148.5 146 148.5 142 Z "></path><path d="M 221.5 142 Q 224.5 143.5 221.5 145 L 221.5 142 Z "></path><path d="M 143.5 144 L 144 147.5 L 143 147.5 L 143.5 144 Z "></path><path d="M 186 144 L 189.5 145 L 193 144 L 194 148 L 187.5 147 L 186 145.5 L 186 144 Z "></path><path d="M 219 146 Q 222 145 221 148 Q 218 149 219 146 Z "></path><path d="M 145.5 148 L 144.5 150 L 143 149.5 L 145.5 148 Z "></path><path d="M 151 154 L 157 154 L 157 156 L 151 156 L 151 154 Z "></path><path d="M 218.5 163 L 220 163.5 L 220 171.5 L 222.5 177 L 230 180 Q 231.3 183 227.5 182 L 219.5 176 L 218 178.5 L 227 191.5 L 225 192 L 216 178.5 L 216 174.5 L 217 172.5 L 216 167.5 L 218.5 163 Z M 219 173 Q 217 176 220 175 L 219 173 Z "></path><path d="M 210.5 169 Q 212.8 168.3 212 170.5 L 210.5 169 Z "></path><path d="M 229 177 Q 234.5 175.8 236 179.5 L 235.5 181 Q 233.5 178.2 229 179 L 229 177 Z "></path><path d="M 238.5 181 L 241 182.5 L 239.5 183 L 238.5 181 Z "></path><path d="M 233.5 182 L 237 183.5 L 235.5 184 L 233.5 182 Z "></path><path d="M 226.5 184 L 231 186.5 Q 232 191 229.5 192 Q 226.8 190.6 228 186 L 225.5 187 L 225 185.5 L 226.5 184 Z "></path><path d="M 239.5 206 L 241 207.5 L 241 216.5 L 239 217.5 L 239.5 206 Z "></path><path d="M 232.5 210 L 234.5 213 L 232 211.5 L 232.5 210 Z "></path><path d="M 99.5 223 L 100 225 L 98 224.5 L 99.5 223 Z "></path><path d="M 178 230 L 180 230.5 L 180 243.5 L 178 250.5 L 177 265.5 L 175 271.5 L 175 280.5 L 174 281.5 L 175 284.5 L 174 287.5 L 175 291.5 L 174 296.5 L 174 298.5 L 175 305.5 Q 173.2 314.2 168.5 320 L 165.5 320 Q 161.9 325.8 155 327 L 158.5 322 L 164.5 317 L 168 317 L 172 305.5 L 172 303.5 L 171 294.5 L 172 289.5 L 171 286.5 L 172 285.5 L 172 272.5 L 173 271.5 L 174 258.5 L 176 251.5 L 176 242.5 L 177 241.5 L 176 239.5 L 178 230 Z "></path><path d="M 88 244 L 90 244.5 L 88 245.5 L 88 244 Z "></path><path d="M 151 246 L 154 247.5 L 154 264.5 L 151 281.5 Q 153.2 282.8 152 287.5 L 151 289.5 L 151 291.5 L 148.5 298 L 146 296.5 L 148 290.5 L 148 282.5 L 151 268.5 L 151 253.5 L 150 248.5 L 151 246 Z "></path><path d="M 169.5 246 L 171 253.5 Q 168.3 254.3 169 258.5 L 170 260.5 L 169 263.5 L 168 285.5 L 163 304.5 L 163 309.5 L 159 319.5 L 155.5 323 L 145.5 330 L 143.5 330 L 136.5 330 L 131.5 326 L 129 326 Q 127.7 322.3 133.5 324 Q 135.8 329.3 145.5 327 L 157 317.5 L 160 310.5 L 162 296.5 L 164 292.5 L 167 266.5 Q 164.8 265.3 166 260.5 L 167 259.5 L 167 247 L 169.5 246 Z "></path><path d="M 152.5 299 Q 155.1 298.2 154 301.5 Q 150.9 311.9 143.5 318 L 133.5 319 L 130 318 L 131.5 315 L 133.5 316 L 135.5 316 L 142.5 315 L 146 311.5 L 150 301.5 L 152.5 299 Z "></path><path d="M 218.5 303 L 220 305.5 L 219 305.5 L 218.5 303 Z "></path><path d="M 103.5 323 L 114.5 323 L 118 326.5 Q 119.5 330.9 116.5 330 Q 113.2 323.8 101.5 326 L 90.5 331 L 83 338.5 L 80 349.5 L 80 373.5 L 81 374.5 L 81 383.5 L 79.5 388 Q 77 387 78 382.5 L 79 377.5 L 77 371.5 L 77 352.5 L 81 337.5 L 89.5 329 L 103.5 323 Z "></path><path d="M 199.5 323 L 203 324.5 L 201.5 327 L 197.5 327 L 191.5 331 L 177 344.5 L 163 363.5 L 162 367 Q 159.3 365.9 160 368.5 L 156.5 371 L 154.5 371 L 151.5 370 L 151 371.5 Q 154 373.8 153 379 L 150.5 380 L 146 378 L 149 390.5 L 158 409.5 L 161 424.5 L 166 434.5 L 178 448.5 L 181 454.5 Q 178.8 455.8 181.5 457 L 183 457.5 L 183 465 L 179 464 L 180 458.5 L 180 456.5 L 177 453.5 L 173.5 448 L 173 449.5 L 174 452.5 Q 172 456 170 451.5 Q 169.3 447.8 171.5 447 L 173 447.5 Q 164.6 440.4 160 429.5 L 156 417.5 L 156 412.5 L 147 393.5 L 142 375.5 L 143.5 374 L 146.5 377 L 150 375.5 L 143.5 366 L 135 360 L 133.5 357 L 118.5 346 L 109.5 342 L 107.5 343 Q 104.3 341.8 105 338 Q 113.7 338.4 119.5 343 L 131.5 353 L 136 355 Q 134.5 351.3 137.5 352 L 139.5 354 L 153.5 356 Q 160.3 354.8 164 350.5 L 164 349 L 166 349 Q 164.9 346.3 167.5 347 L 170 346 L 170.5 349 L 183.5 334 L 186 332.5 Q 185.3 330.3 187.5 331 L 189.5 328 L 180 332 L 178.5 335 L 170.5 340 L 167.5 340 L 158.5 344 L 146.5 346 L 138.5 344 L 127.5 337 L 117.5 335 L 115.5 335 L 106.5 335 L 96.5 342 L 94 342 Q 94.7 336.6 99.5 334 Q 102.7 329.7 111.5 331 L 128.5 334 L 140.5 341 L 154.5 342 L 176 334 L 179.5 329 Q 183.3 325.3 190.5 325 Q 192 328.5 193.5 326 L 199.5 323 Z M 170 349 Q 164 356 155 359 L 149 359 L 139 356 Q 136 355 137 358 L 144 362 L 151 370 L 151 368 L 158 367 Q 162 357 170 351 L 170 349 Z "></path><path d="M 212.5 329 L 217 331.5 L 215.5 334 L 212 333 L 212 335.5 Q 219.5 341.5 223 351.5 L 223 358.5 Q 221.5 361.5 220 358.5 L 219 350.5 L 213 340 Q 210.3 341.1 211 338.5 Q 207.1 336.4 208 331 L 212.5 329 Z "></path><path d="M 213.5 344 L 215 348 Q 211.7 346.7 213 351.5 L 216 355.5 L 222 371.5 L 222 389.5 L 220 397.5 L 218 430.5 L 217 431.5 L 215 450.5 L 216 453.5 L 216.5 467 L 217 465 Q 220.7 463.6 219 469.5 Q 218.5 472.5 214.5 472 Q 211.3 469.7 212 463.5 L 212 461.5 L 212 441.5 L 214 438.5 Q 212.5 433 215 431.5 L 217 398.5 L 219 390.5 L 219 372.5 L 214 358.5 L 210 352.5 L 209 347.5 L 213.5 344 Z "></path><path d="M 111.5 350 L 118 352 L 116.5 355 L 112.5 353 L 109.5 354 L 101 358 Q 96.4 364.1 98 377.5 L 98 379.5 Q 100.1 392.9 106 402.5 L 107 411.5 Q 109.8 412.3 109 416.5 Q 106.5 421.5 104 416.5 L 103 409.5 L 95 387.5 L 94 369.5 L 96 361.5 L 99 356 L 111.5 350 Z "></path><path d="M 109.5 372 Q 111.8 371.3 111 373.5 Q 107.7 377.2 109 385.5 L 112 394.5 L 114 412.5 L 116 419.5 L 116 436.5 L 119 448.5 L 120 466.5 L 126 486.5 L 122 488 L 120.5 485 L 116.5 485 L 109.5 482 L 105 484.5 L 107 488 Q 101.4 489 100 484.5 L 101.5 481 L 105.5 482 Q 106 478.5 110.5 479 Q 112.4 482.6 118.5 482 L 118 480.5 L 115.5 472 L 115 474 L 112 472.5 L 114 458.5 L 113 456.5 L 113 454.5 L 111 434.5 L 112 433.5 L 112 418.5 L 110 411.5 L 110 405.5 L 104 384.5 L 105 381.5 L 105 379.5 L 105 376.5 L 107 373 L 109.5 372 Z "></path><path d="M 84.5 390 Q 87.3 391.3 85 392.5 Q 82.8 397.3 84 405.5 L 85 406.5 L 86 433.5 L 85 434.5 L 85 444.5 L 83 454.5 L 83 468.5 L 82 469.5 L 82 471.5 L 77.5 478 L 75 479.5 Q 73.6 485.6 68.5 488 L 66.5 488 L 64.5 487 L 58 489 L 56.5 492 L 53 494.5 L 51.5 498 L 51 493.5 L 53 490 L 55 490 Q 53.9 487.3 56.5 488 Q 59 483.5 67.5 485 L 72 480.5 L 79 472.5 L 79 469.5 Q 76.2 467.8 78 461.5 L 81 452.5 L 80 450.5 L 81 449.5 L 81 426.5 L 80 422.5 L 81 418.5 L 80 417.5 L 80 408.5 L 81 403.5 L 80 398.5 L 80 396.5 L 84.5 390 Z "></path><path d="M 93 405 Q 96.8 404 98 406.5 L 100 410.5 L 97 414.5 L 97 425.5 L 96 426.5 L 96 437.5 L 94 446.5 L 94 454.5 L 91 468.5 L 89.5 470 Q 86.2 471.1 87 468.5 L 89 464.5 L 90 452.5 L 92 445.5 L 93 413.5 L 95 411.5 Q 92.2 409.5 93 405 Z "></path><path d="M 74.5 416 L 75 418.5 L 74 418.5 L 74.5 416 Z "></path><path d="M 99.5 418 Q 102.5 417.1 101 421.5 L 100 422.5 L 100 431.5 L 102 442.5 L 101 443.5 L 101 455.5 L 99 461.5 L 100 464.5 L 96 474.5 L 91.5 479 Q 86.8 479.3 85 482.5 L 81.5 487 L 79 488.5 Q 78.1 495.1 73.5 498 L 72 494.5 Q 77.7 484.1 86.5 477 L 92 473.5 L 98 449.5 L 98 435.5 Q 95.5 434 97 428.5 L 98 427.5 L 98 419.5 L 99.5 418 Z "></path><path d="M 157 436 Q 160.8 435.3 162 438.5 L 164 445 Q 167 443.8 166 447.5 L 174 458.5 L 178 472.5 L 192.5 490 Q 197.3 491.3 196 488 L 193 486.5 Q 192.5 481.5 196.5 481 L 203 480 L 201 486 L 197 488.5 L 199 491.5 Q 196.8 495.3 189.5 494 L 176 478.5 L 176 475 Q 173.3 476.1 174 473.5 L 172 464 Q 169 465.3 170 461.5 L 160 447.5 L 157 436 Z "></path><path d="M 111 485 L 113.5 485 L 123.5 493 L 134.5 495 L 138.5 497 L 144.5 493 L 148.5 493 L 151 494 L 148.5 498 L 145.5 497 L 140.5 500 L 138.5 499 L 136.5 500 L 134.5 498 L 122.5 496 L 111 488 L 111 485 Z "></path><path d="M 16.5 519 L 19 520.5 Q 17 525 15 521.5 L 16.5 519 Z "></path><path d="M 23.5 519 Q 27 521 22.5 523 Q 19 521 23.5 519 Z "></path><path d="M 19.5 522 L 20 525 Q 17.3 526.1 18 523.5 L 19.5 522 Z "></path><path d="M 342 546 Q 345.7 544.6 344 550.5 L 342.5 554 L 342 546 Z "></path><path d="M 342 555 Q 346 553.6 344 560.5 L 343 560.5 L 342 555 Z "></path><path d="M 77.5 563 L 79.5 564 L 83.5 563 Q 90.6 571.4 94.5 583 L 95 566 Q 92.3 567.1 93 564.5 L 96.5 563 L 101 565.5 L 99 567.5 Q 100.3 579.9 98 587 L 94.5 588 L 91 585.5 L 83.5 570 Q 81.3 569.3 82 571.5 L 83 574.5 L 83 576.5 Q 81 584.5 85 586.5 L 83.5 588 L 76 588 L 76 566.5 L 75 564 L 77.5 563 Z "></path><path d="M 223.5 563 L 231.5 564 L 235 567.5 Q 238.7 571.8 237 581.5 L 232.5 587 L 224.5 588 L 219 586 L 216 581.5 L 215 575.5 Q 216.6 566.6 223.5 563 Z M 227 566 L 225 567 L 222 571 L 223 575 L 220 581 L 225 585 L 229 585 L 231 583 L 232 579 Q 233 572 230 569 L 227 566 Z "></path><path d="M 240.5 563 L 254.5 563 L 258 565.5 Q 259.3 571.6 256.5 571 Q 253.3 571.8 254 576.5 L 258.5 583 L 262 585.5 Q 262.9 588.9 257.5 587 L 252 582.5 Q 248.3 579.8 249 574 L 246 574.5 L 246 584.5 L 248 588 L 239 587.5 Q 242.7 581.7 241 570.5 L 240 566 Q 237 567 238 564 L 240.5 563 Z M 248 566 L 246 568 Q 244 574 252 571 L 253 567 L 248 566 Z "></path><path d="M 34 564 L 41.5 564 L 42 565.5 Q 39.5 567 41 572.5 L 44.5 570 L 51 565.5 L 51.5 564 L 58 564 L 52.5 571 L 45 576.5 L 48 581 Q 50.7 579.9 50 582.5 L 54.5 586 Q 59.3 584.8 60.5 587 L 63 584.5 L 63 575.5 L 64 574.5 L 63 570.5 L 64 567.5 L 62 564 L 71.5 564 L 72 565.5 Q 69.8 566.8 71 571.5 L 73 576.5 L 72 577.5 L 72 585.5 L 74 589 L 67.5 588 L 63.5 589 L 59.5 588 L 57.5 588 L 51.5 588 L 46 582.5 L 42.5 578 Q 39.5 577.5 41 584.5 L 42 588 L 34 588 L 34 585.5 L 35 584.5 L 35 566.5 L 34 564 Z "></path><path d="M 109.5 564 L 120 564 L 120 570 L 114 571 Q 116.5 563.5 109 566 L 107 575.5 L 108 579.5 L 111.5 583 L 115.5 584 L 116 582.5 L 111 580 L 111.5 578 L 120 578 L 120 588 L 111.5 588 Q 110.1 585.4 105.5 586 L 101 581.5 L 100 573.5 L 105.5 566 L 109.5 564 Z "></path><path d="M 164.5 564 L 174.5 564 L 176 565.5 L 175 570 L 171 570 Q 172.7 565.9 168.5 567 Q 165.5 567.5 166 571.5 L 167 574 Q 169.1 572.4 174.5 573 Q 179 575 177 583.5 L 173.5 587 L 168.5 588 L 166.5 587 L 164.5 587 L 162.5 588 L 160.5 587 L 155.5 589 L 154 586 Q 157.3 587.3 156 582.5 L 155 579.5 L 156.5 577 L 160 578.5 L 162.5 583 L 169 585 L 170 579.5 L 168.5 578 L 162.5 577 L 159 573.5 L 158 569.5 L 164.5 564 Z "></path><path d="M 178 564 L 186 564 L 186 568.5 L 191.5 580 L 195 570.5 L 192 564 L 205 564.5 Q 203.8 567 200 566 L 205 580 Q 208.3 581.3 207 576.5 L 212 566 Q 207.9 567.3 209 564 L 219 564.5 L 215 567.5 L 209 580.5 L 208 586 L 204.5 587 L 198 576 Q 195 574.8 196 578.5 L 192.5 588 L 189 586.5 L 178 564 Z "></path><path d="M 262 564 Q 274.8 562.1 282 566.5 Q 285.7 570.8 284 580.5 L 280.5 586 L 275.5 588 L 264 588 L 265 579.5 L 264 578.5 L 264 566 Q 261 567 262 564 Z M 270 567 L 270 585 L 277 584 L 278 580 L 278 578 L 279 576 L 277 569 Q 275 565 270 567 Z "></path><path d="M 291.5 564 L 297.5 565 L 300 564 Q 301.8 570.1 298.5 572 L 296 570.5 L 295 566 Q 291.3 564.5 292 567.5 L 291 569.5 L 294.5 574 L 297.5 575 L 302.5 574 L 305 580.5 L 303 587 L 300.5 588 L 287.5 588 L 285.5 588 Q 281.8 589.3 283 585.5 L 286.5 581 L 289 581 Q 286.9 586.2 291.5 585 Q 292.8 582.7 297.5 584 L 299 582.5 L 298 578 L 293.5 576 L 290.5 577 Q 289.4 574.3 286 575 L 285 571.5 L 288.5 566 L 291.5 564 Z "></path><path d="M 141.5 566 Q 147.8 564.1 146 569 L 143.5 568 L 143 570.5 L 146.5 573 L 149.5 572 L 152 575.5 L 149 577.5 Q 151.8 579.3 150 585.5 L 147.5 589 Q 144.9 588.3 146 591 L 144 591 L 146 582.5 L 139 571.5 L 139 567 L 141.5 566 Z "></path><path d="M 343.5 569 Q 346.5 570.5 343.5 572 L 343.5 569 Z "></path><path d="M 134.5 576 Q 140 575 141 578.5 L 140 585 L 132.5 586 Q 129.4 584.6 130 579.5 L 134.5 576 Z M 134 578 Q 133 583 137 584 L 139 583 L 138 580 L 138 578 L 134 578 Z "></path><path d="M 342 581 Q 345 580 344 583 Q 341 584 342 581 Z "></path><path d="M 312.5 584 L 315 585 L 315 588 L 309 588 L 310.5 585 L 312.5 584 Z "></path><path d="M 344 591 L 346 591.5 L 344.5 595 L 344 591 Z "></path><path d="M 340.5 593 L 341.5 595 L 340.5 593 Z "></path></svg>