<svg width="350" height="600" version="1.1" xmlns="http://www.w3.org/2000/svg" desc="Created with imagetracer.js version 1.2.5"><path d="M 73.5 3 L 81.5 4 L 83.5 3 L 85.5 4 L 89.5 3 L 92.5 4 L 95.5 3 L 96.5 4 L 158.5 4 L 159.5 5 L 160.5 4 L 183.5 4 L 184.5 5 L 223.5 5 L 226.5 4 L 228.5 5 Q 229.7 2.8 234.5 4 L 237.5 5 L 239.5 5 L 241.5 4 L 275.5 4 L 277.5 4 L 279.5 5 Q 281 2.5 286.5 4 L 288.5 4 L 327.5 4 L 328.5 3 L 331.5 4 L 335 3 L 335 19.5 L 336 20.5 L 335 23.5 L 335 25.5 L 336 30.5 L 337 119.5 L 338 120.5 L 338 236.5 L 339 237.5 L 339 259.5 L 338 260.5 L 338 417.5 L 338 419.5 L 339 425.5 L 338 426.5 L 338 508.5 L 337 509.5 L 338 510.5 L 338 554.5 L 337 556.5 L 338 559.5 L 338 563.5 L 338 591.5 L 337 594 L 319.5 594 L 318.5 595 L 316.5 595 L 289.5 595 Q 288.3 592.8 283.5 594 L 281.5 595 L 279.5 595 L 277.5 594 L 276.5 595 L 235.5 595 L 234.5 596 L 233.5 595 L 204.5 595 L 202.5 595 L 200.5 596 L 197.5 595 L 194.5 596 L 192.5 595 L 188.5 596 L 185.5 595 L 181.5 596 L 178.5 595 L 176.5 596 L 175.5 595 L 129.5 595 L 128.5 594 L 119.5 594 L 118.5 595 L 86.5 595 L 85.5 596 L 83.5 596 L 78.5 595 L 77.5 596 L 29.5 596 L 27.5 597 L 26.5 596 L 9.5 596 L 8.5 595 L 3 596 L 3 473.5 Q 5.5 472 4 466.5 L 3 462.5 L 4 461.5 L 4 351.5 L 5 348.5 L 4 347.5 L 4 323.5 Q 6.3 322.3 5 317.5 L 5 315.5 L 4 298.5 L 5 297.5 L 5 260.5 L 5 258.5 L 4 256.5 L 5 255.5 L 5 174.5 L 6 172.5 L 5 171.5 L 5 141.5 L 6 140.5 L 6 119.5 L 7 117.5 Q 4.3 115.8 6 109.5 L 6 107.5 L 7 105.5 L 6 104.5 L 6 58.5 L 7 57.5 L 7 5 L 12.5 4 L 13.5 5 L 62.5 5 L 65.5 4 Q 71.8 5.8 73.5 3 Z M 78 6 L 73 8 L 27 8 L 26 7 L 25 8 L 10 8 L 10 61 L 9 62 L 9 150 L 9 152 L 8 154 Q 7 159 9 161 L 8 163 L 9 166 L 9 177 L 8 178 L 8 187 L 9 188 L 8 189 L 8 280 L 7 281 L 8 282 L 8 300 L 7 303 L 8 307 L 8 309 L 7 311 L 7 320 L 8 321 L 7 322 L 7 393 L 6 394 L 7 396 L 7 425 L 6 426 L 7 428 L 6 430 L 7 432 L 6 500 L 5 501 L 6 503 L 6 561 L 5 562 L 7 568 L 12 566 L 29 566 L 34 563 L 36 557 Q 40 555 49 556 Q 52 555 51 551 L 56 550 L 55 535 L 55 533 L 55 520 L 56 519 L 55 515 L 55 501 L 56 500 L 56 486 L 55 485 L 56 474 L 35 474 L 25 471 L 12 474 Q 6 476 7 473 L 9 471 L 20 469 L 31 469 L 40 472 L 56 471 L 56 460 L 57 459 L 56 457 L 56 434 L 57 433 L 56 431 L 57 430 L 57 394 L 58 393 L 57 391 L 57 379 L 58 378 L 57 376 L 57 364 L 58 363 L 57 362 L 57 347 L 56 345 L 56 343 L 56 328 L 57 327 L 56 325 L 57 323 L 57 269 L 58 268 L 58 244 L 59 243 L 59 178 Q 56 176 58 170 L 56 166 L 52 167 L 53 170 Q 51 174 45 174 L 44 170 L 45 168 L 40 167 L 37 163 L 42 159 Q 48 161 46 156 L 50 154 Q 53 156 52 162 L 57 164 L 58 165 L 58 148 L 57 147 L 57 124 L 60 110 L 59 105 L 59 103 L 58 97 L 67 91 L 66 90 L 62 90 L 60 90 L 60 85 L 66 83 L 67 78 L 70 76 L 73 82 L 72 87 L 76 87 L 79 92 L 79 93 L 73 93 Q 72 96 75 95 Q 76 102 73 106 L 74 110 L 73 113 L 72 173 L 70 180 L 71 185 Q 73 190 70 192 L 71 194 L 71 206 L 72 207 L 71 208 L 71 222 L 70 223 L 72 230 L 75 229 L 76 227 Q 75 224 79 225 L 79 224 Q 80 221 84 222 L 83 227 L 84 232 Q 82 235 80 234 L 80 235 L 84 235 L 85 240 Q 87 241 85 242 L 76 240 L 75 248 L 71 249 L 71 261 L 72 262 L 71 264 L 72 268 L 71 270 L 71 272 L 72 275 L 71 278 L 72 282 L 71 293 L 70 294 L 70 324 L 70 326 L 69 328 L 70 331 L 70 340 L 69 341 L 70 342 L 70 352 L 70 354 Q 71 358 69 360 Q 71 361 70 366 L 69 369 L 70 374 L 69 377 L 70 378 L 70 414 L 71 416 L 71 418 L 71 452 L 70 453 L 71 455 L 70 458 L 70 471 Q 70 471 75 471 L 77 471 Q 78 468 85 470 L 86 469 L 86 451 L 86 449 L 86 404 L 84 401 L 84 393 L 85 392 L 84 389 L 86 379 Q 87 374 84 373 L 84 369 L 86 367 L 87 362 L 88 327 L 89 326 L 88 323 L 89 320 L 88 315 L 89 307 L 89 305 L 88 303 L 89 294 L 99 279 L 107 262 L 110 252 L 118 245 L 132 240 L 141 239 L 141 237 L 138 238 L 133 233 L 132 234 L 125 233 L 130 226 Q 128 224 129 220 L 127 218 L 127 215 L 130 212 Q 129 205 133 203 L 137 200 Q 140 201 138 197 L 145 194 L 152 194 L 162 199 Q 166 201 166 206 L 169 208 L 168 212 L 171 217 Q 172 223 170 223 L 166 227 L 165 231 L 165 232 L 163 233 L 163 238 L 171 241 L 173 240 L 188 240 L 200 247 L 220 254 L 224 257 Q 228 258 227 255 L 231 253 L 235 254 L 236 240 L 236 238 L 235 236 L 236 235 L 236 205 Q 238 203 237 199 L 234 197 L 234 193 L 228 184 L 223 185 Q 219 185 219 180 L 224 176 L 227 176 L 226 171 Q 225 165 228 163 L 231 161 L 235 174 L 238 176 Q 240 170 237 169 L 237 146 L 236 145 L 237 140 L 236 137 L 237 132 L 243 129 L 245 123 L 243 124 L 237 121 Q 233 122 235 118 Q 236 115 240 116 Q 243 114 239 113 L 240 108 L 245 104 L 249 114 Q 254 113 256 117 L 257 117 L 257 122 L 249 121 Q 248 124 253 123 L 256 128 L 256 132 L 252 140 Q 250 146 253 148 L 252 150 L 253 152 L 253 172 L 251 183 L 251 220 L 250 221 Q 248 226 252 225 Q 253 215 262 211 L 264 215 L 262 223 L 260 225 L 264 226 L 268 233 L 264 235 L 258 232 L 255 236 L 256 239 L 251 238 L 250 245 L 250 263 Q 255 265 266 264 L 273 266 L 275 266 L 277 265 Q 280 263 279 257 L 282 255 L 281 253 L 282 251 L 282 236 L 281 235 L 281 188 L 282 187 L 282 170 L 280 169 Q 277 174 270 173 L 269 167 Q 270 164 274 165 Q 275 161 270 163 L 269 161 Q 267 154 271 152 L 276 156 L 278 156 L 279 155 L 282 159 Q 282 163 280 163 Q 277 162 278 166 L 282 168 L 282 167 L 282 165 L 283 163 L 283 151 L 284 150 L 283 112 L 281 109 L 282 101 L 288 97 L 287 92 L 285 90 L 285 86 L 285 84 Q 280 84 278 82 L 279 78 L 282 76 L 280 73 Q 279 68 282 67 Q 281 63 285 64 Q 289 66 288 73 L 290 72 Q 294 72 296 76 L 295 79 L 293 80 L 287 80 L 287 83 L 290 81 Q 294 80 295 84 L 294 86 Q 293 88 288 87 Q 291 90 290 98 Q 291 100 293 98 L 299 101 Q 302 103 300 110 L 300 112 L 299 115 L 299 117 L 299 129 L 298 130 L 298 176 L 297 177 L 297 202 L 299 205 L 297 215 L 298 216 L 301 215 L 300 213 L 302 209 L 303 207 L 308 207 L 307 214 Q 306 218 310 216 L 311 220 L 308 222 L 306 221 L 304 224 L 297 228 L 297 241 L 298 242 L 298 249 L 301 249 L 302 252 Q 300 257 301 266 L 301 268 L 300 270 L 297 271 L 296 275 L 296 310 L 297 311 L 296 315 L 297 318 L 296 323 L 297 326 L 297 328 L 295 400 L 294 401 L 294 422 L 293 423 L 294 425 L 293 428 L 293 449 L 292 450 L 293 471 L 293 469 Q 307 471 314 465 Q 318 464 320 466 Q 326 468 328 465 Q 332 464 334 466 L 335 463 L 334 460 L 335 455 Q 336 450 334 449 L 334 426 L 334 424 Q 332 417 335 416 L 334 414 L 334 405 L 335 404 L 334 401 Q 333 395 335 394 L 335 278 L 336 274 L 336 272 L 335 268 L 336 266 L 336 236 L 335 235 L 336 233 L 335 231 L 335 229 L 336 227 L 335 226 L 335 133 L 334 132 L 334 105 L 333 104 L 334 102 Q 336 96 333 95 L 334 93 L 333 92 L 333 55 L 332 54 L 333 50 L 332 46 L 333 42 L 332 39 L 333 34 L 333 32 L 332 30 Q 331 25 333 24 Q 334 12 332 6 L 311 6 L 310 7 L 307 6 L 303 7 L 262 7 L 261 6 L 248 6 L 247 7 L 210 7 L 209 8 L 205 7 L 202 8 L 200 7 L 197 8 L 193 7 L 190 8 L 186 7 L 99 7 L 98 6 L 87 6 L 86 7 L 84 6 L 81 7 L 78 6 Z M 285 69 L 283 72 L 285 73 L 285 69 Z M 291 74 L 290 75 Q 287 74 288 77 L 292 78 L 292 74 L 291 74 Z M 282 78 L 282 80 L 284 79 L 282 78 Z M 292 83 L 290 85 L 292 85 L 292 83 Z M 63 86 Q 62 89 65 88 Q 66 85 63 86 Z M 73 89 L 74 91 Q 75 88 73 89 Z M 66 95 Q 63 96 65 98 L 64 102 L 63 97 L 61 98 L 62 109 L 64 112 L 63 119 L 61 120 L 63 121 L 61 121 L 60 127 L 61 130 L 63 122 L 63 124 L 68 125 Q 70 124 69 129 L 70 129 L 69 124 Q 70 120 67 121 L 67 118 L 69 118 L 67 117 L 68 114 L 65 109 L 67 108 L 66 110 L 70 111 L 71 112 L 71 110 L 68 110 L 68 97 L 67 97 Q 68 103 66 103 L 66 102 L 66 95 Z M 71 97 Q 68 98 69 103 L 69 105 L 70 107 L 71 106 Q 70 101 72 100 Q 73 96 71 97 Z M 287 100 L 285 102 L 286 105 L 284 109 L 287 113 L 286 115 L 286 124 L 287 125 L 287 153 L 286 155 L 288 154 Q 293 156 292 152 L 289 153 L 288 150 L 292 149 L 290 148 Q 286 146 290 145 L 288 143 L 292 141 Q 293 138 289 139 Q 287 135 292 136 L 291 135 L 293 130 L 293 132 L 295 131 L 294 128 Q 295 125 293 126 L 292 129 Q 289 128 291 127 L 290 124 L 290 122 Q 291 118 288 119 L 289 117 Q 290 112 288 111 L 289 104 L 290 111 L 293 110 L 293 106 L 292 108 L 289 102 L 287 100 Z M 294 105 L 294 111 Q 297 112 296 109 L 296 107 Q 297 104 294 105 Z M 244 108 L 242 110 L 244 113 L 246 112 L 244 108 Z M 250 117 L 250 119 L 253 119 L 250 117 Z M 239 118 L 239 120 L 242 121 Q 244 117 239 118 Z M 293 122 L 293 123 L 295 123 L 293 122 Z M 247 126 L 246 130 L 244 130 L 245 133 L 243 137 L 245 136 L 244 138 L 247 142 L 247 141 L 246 138 L 248 138 L 249 138 L 247 135 L 248 134 L 247 131 Q 249 132 248 128 L 252 128 Q 251 125 247 126 Z M 66 127 L 64 130 L 66 129 L 66 127 Z M 70 131 L 69 136 L 67 137 L 67 138 L 70 137 L 70 131 Z M 242 132 L 239 135 L 240 138 L 239 141 L 240 145 L 239 149 L 239 151 L 240 154 L 239 159 L 240 168 L 243 168 L 245 167 L 245 177 Q 244 179 243 177 Q 240 176 241 180 L 244 179 L 245 180 L 244 185 L 243 185 Q 244 182 241 183 L 240 199 L 239 200 L 239 230 L 238 231 L 239 234 L 238 236 L 238 261 L 237 262 L 237 280 L 238 281 L 237 284 L 237 286 L 238 316 L 241 308 Q 243 309 242 306 L 245 304 L 246 305 L 245 302 Q 240 303 242 299 L 242 297 L 241 292 L 246 293 L 246 291 L 245 291 L 241 290 Q 242 287 246 288 Q 247 284 242 286 L 243 283 L 243 281 L 242 276 L 242 274 L 243 272 L 242 269 L 242 267 Q 241 263 244 264 L 244 263 Q 240 264 242 260 L 245 259 L 247 260 L 246 256 L 244 257 Q 241 256 244 254 Q 248 255 247 252 L 241 251 L 240 248 L 241 244 Q 244 242 242 241 L 246 239 L 248 239 Q 250 233 247 234 Q 244 235 246 237 Q 245 239 244 237 L 241 238 L 241 240 L 240 239 L 240 237 L 241 232 L 242 235 L 244 234 L 245 232 Q 246 229 244 230 Q 241 229 244 227 Q 248 228 247 226 L 246 226 L 244 225 Q 241 226 242 223 L 247 224 L 247 221 Q 242 222 241 220 L 243 213 L 244 213 Q 243 216 246 215 L 245 212 L 248 208 Q 244 207 245 210 L 243 211 L 244 209 L 243 207 L 248 205 L 246 204 L 243 200 L 248 200 L 244 198 L 243 195 Q 242 192 245 193 L 246 190 L 243 188 L 247 186 L 245 185 L 247 181 L 248 183 L 249 178 Q 250 174 247 175 L 247 172 L 249 172 L 248 171 L 246 169 Q 247 166 249 168 L 250 166 L 250 163 L 248 166 L 246 165 Q 242 166 244 162 L 247 161 Q 246 158 245 160 L 244 159 Q 247 157 245 156 Q 246 153 243 154 L 243 156 L 241 153 L 242 149 L 241 144 Q 244 142 242 141 L 243 139 L 243 141 L 244 141 L 242 132 Z M 61 133 L 60 146 L 61 147 L 61 175 L 63 174 L 63 176 L 61 177 L 62 181 L 64 181 L 63 183 L 63 187 L 62 190 L 62 242 L 61 243 L 60 285 L 60 287 L 60 301 L 59 302 L 60 307 L 60 319 L 59 320 L 59 355 L 60 356 L 60 374 L 59 375 L 60 377 L 60 393 L 59 394 L 60 398 L 60 400 L 59 404 L 59 412 L 60 413 L 59 432 L 58 433 L 58 450 L 59 451 L 59 467 L 58 468 L 58 515 L 57 516 L 58 518 Q 60 523 57 525 Q 59 532 58 543 L 59 544 L 58 545 L 58 559 L 56 558 L 55 560 L 53 557 Q 49 555 50 559 L 53 560 L 54 564 L 57 565 L 57 568 Q 62 570 63 576 L 64 577 L 63 579 Q 66 578 65 581 L 68 582 L 70 585 L 73 583 L 71 586 L 73 586 Q 77 588 77 593 L 83 592 L 88 593 L 90 593 L 94 594 L 95 593 L 110 593 L 112 592 L 113 593 L 111 586 L 114 585 Q 122 586 127 591 Q 129 592 128 590 L 113 580 L 101 577 L 92 579 Q 82 581 79 577 L 81 574 L 79 573 L 77 573 L 72 572 Q 71 566 66 562 Q 63 561 64 565 L 63 565 L 63 563 L 61 564 L 59 563 Q 55 564 57 560 L 61 558 L 60 554 L 63 554 L 61 553 Q 63 550 68 551 L 68 547 L 67 550 L 63 549 L 61 549 L 61 545 L 64 544 L 68 545 L 68 543 L 60 543 L 61 541 L 60 536 L 64 537 L 66 536 L 62 534 L 66 532 L 69 531 L 67 530 Q 65 528 64 531 L 61 530 L 60 528 L 64 530 L 64 528 L 62 524 L 63 522 Q 60 523 61 521 L 61 519 L 68 523 L 67 522 L 67 520 L 63 520 L 63 518 Q 60 519 61 517 L 64 518 L 66 518 L 65 517 L 62 514 L 63 511 L 62 510 L 61 508 L 65 511 Q 69 512 68 509 L 62 508 L 63 505 L 68 506 L 68 504 L 61 504 Q 58 503 61 501 L 66 502 L 68 501 L 61 499 Q 59 495 64 496 L 64 495 Q 61 496 62 493 L 67 493 L 63 491 L 63 489 L 68 489 L 68 487 L 64 487 L 64 486 L 67 484 Q 70 482 65 480 L 66 477 L 68 478 Q 69 475 67 476 L 65 473 L 61 472 L 64 471 L 66 473 Q 69 474 68 471 L 65 470 Q 64 466 68 468 L 68 466 L 61 464 L 62 462 L 65 464 L 67 463 Q 69 464 68 460 L 65 459 L 62 459 L 62 431 L 65 429 L 66 426 L 65 424 Q 66 421 68 423 L 69 423 L 68 420 L 65 419 Q 64 415 68 417 L 68 416 L 67 416 L 64 415 L 63 413 L 64 411 L 65 413 L 68 412 L 66 411 L 68 406 L 65 404 Q 64 401 67 402 L 66 397 L 67 392 L 64 392 L 64 391 Q 63 388 67 389 L 67 386 Q 63 384 67 382 Q 68 377 66 378 Q 63 377 66 375 L 67 375 L 67 370 L 63 369 Q 62 366 65 367 L 67 367 L 67 365 Q 63 366 62 363 L 65 361 Q 68 362 67 359 Q 63 360 62 358 L 62 356 L 67 356 L 67 351 L 66 351 Q 67 354 63 352 L 61 349 L 64 349 L 61 348 Q 60 345 63 344 L 62 340 L 65 339 L 66 341 L 67 348 L 67 334 L 65 335 L 62 334 L 62 332 Q 65 333 64 331 L 66 331 Q 68 332 67 328 L 65 329 L 62 328 Q 62 324 67 325 L 66 323 Q 63 324 64 322 L 67 320 L 67 318 Q 63 320 64 317 L 67 315 L 64 313 Q 63 309 67 311 L 67 308 L 64 309 L 63 307 L 67 305 L 67 303 L 64 304 L 65 301 L 64 299 Q 63 296 67 297 L 67 295 L 63 294 L 63 292 L 68 292 L 68 290 L 63 289 Q 62 286 65 287 L 67 283 Q 70 284 69 281 L 67 282 L 65 280 L 69 277 Q 70 274 68 275 L 65 276 L 63 273 L 69 272 Q 68 269 67 271 Q 61 273 63 268 L 66 268 L 65 267 L 62 262 Q 66 260 65 264 L 66 264 L 65 260 Q 62 261 63 258 L 68 257 Q 70 253 65 254 L 65 251 Q 69 253 68 249 L 67 249 L 65 246 L 68 245 Q 69 242 66 243 L 65 241 L 66 239 L 65 236 Q 66 233 68 235 L 68 230 L 65 229 L 64 231 L 63 231 L 67 225 L 67 227 L 68 227 L 68 223 L 63 223 L 63 221 L 68 220 Q 70 215 64 217 L 66 214 Q 67 211 63 212 L 63 210 L 67 209 Q 69 210 68 207 L 64 206 Q 63 202 68 204 L 66 197 L 68 197 L 68 195 L 65 194 L 66 188 L 64 188 L 67 187 L 68 190 L 68 185 L 66 184 L 65 186 L 64 186 L 66 181 Q 62 179 65 178 L 64 176 L 65 173 L 64 170 L 63 172 L 62 172 L 63 169 L 68 167 L 64 164 L 66 159 L 66 157 L 65 155 L 66 153 L 65 151 L 68 147 L 69 150 L 69 146 L 67 145 Q 63 146 65 139 L 63 139 Q 64 136 61 137 L 61 133 Z M 293 139 L 293 141 L 295 140 L 293 139 Z M 67 141 Q 66 144 69 143 Q 70 140 67 141 Z M 248 142 L 248 146 L 249 146 L 248 142 Z M 247 146 L 246 148 L 248 147 L 247 146 Z M 247 148 L 247 150 L 249 149 L 247 148 Z M 67 152 L 67 162 L 69 162 L 69 153 L 67 152 Z M 293 152 Q 292 155 295 154 Q 296 151 293 152 Z M 286 156 L 286 163 L 285 164 L 285 181 L 284 182 L 284 240 Q 287 241 285 248 L 288 249 L 290 245 L 294 246 L 295 243 L 289 242 L 287 243 L 289 240 L 287 239 L 287 236 Q 290 237 289 235 L 288 235 Q 288 227 285 223 L 286 220 L 286 218 Q 285 214 289 215 L 290 213 Q 284 215 286 210 L 290 210 L 289 209 L 287 209 L 286 207 Q 287 204 289 206 Q 293 207 294 205 L 294 203 L 291 204 Q 289 206 288 204 L 290 196 L 291 196 Q 290 199 294 197 L 294 194 L 289 194 L 289 191 L 294 191 L 294 190 Q 293 187 292 189 Q 288 190 287 187 Q 288 184 293 185 Q 294 187 295 185 L 289 184 L 289 181 L 294 181 L 294 178 L 291 179 L 288 179 Q 289 174 295 175 L 296 173 L 293 172 L 290 174 L 294 169 Q 297 170 295 165 L 294 165 L 292 165 L 292 169 L 291 169 L 291 166 L 290 164 Q 291 161 288 162 L 288 160 L 292 158 L 294 159 Q 296 160 295 158 Q 294 155 293 157 L 286 156 Z M 49 157 L 48 160 L 49 160 L 49 157 Z M 249 160 L 247 162 L 249 163 L 249 160 Z M 43 161 Q 40 163 43 164 L 46 164 L 43 161 Z M 49 167 L 47 170 L 50 169 Q 51 166 49 167 Z M 230 167 L 230 173 L 231 173 L 230 167 Z M 274 167 L 272 170 L 276 169 L 274 167 Z M 65 174 L 65 176 L 68 176 L 65 174 Z M 233 177 L 235 180 Q 237 181 236 179 L 233 177 Z M 225 179 L 223 182 Q 225 185 227 181 L 225 179 Z M 232 181 Q 230 189 237 192 L 238 192 L 238 182 L 236 183 L 232 181 Z M 246 193 Q 244 196 247 195 L 246 193 Z M 140 202 L 138 205 L 140 204 L 140 202 Z M 139 208 L 137 211 Q 136 213 139 212 L 139 208 Z M 166 208 L 159 212 L 149 214 L 146 216 L 133 216 Q 133 213 130 214 L 132 218 Q 155 219 167 209 L 166 208 Z M 294 208 L 292 210 L 294 210 L 294 208 Z M 305 211 L 304 214 L 305 214 L 305 211 Z M 293 213 L 294 217 Q 292 218 295 219 L 295 215 L 293 213 Z M 167 214 L 166 221 L 168 221 L 167 214 Z M 247 216 L 248 218 Q 249 215 247 216 Z M 288 217 L 288 220 L 290 219 Q 291 216 288 217 Z M 259 218 L 256 222 Q 255 225 258 224 L 260 219 L 259 218 Z M 298 218 L 298 222 L 297 225 L 302 222 L 302 220 L 300 221 L 298 218 Z M 133 222 L 132 226 L 133 226 L 133 222 Z M 80 225 L 79 231 L 81 231 Q 82 226 80 225 Z M 289 226 L 289 232 L 292 230 Q 293 226 289 228 L 289 226 Z M 261 228 L 261 231 Q 260 233 263 232 L 261 228 Z M 294 229 L 293 231 L 295 230 L 294 229 Z M 247 230 Q 245 233 248 232 L 247 230 Z M 251 231 L 252 234 L 252 232 L 254 232 L 251 231 Z M 150 232 Q 147 233 148 237 L 147 237 Q 148 233 145 234 Q 143 239 147 241 L 158 240 L 160 239 L 160 232 L 153 237 Q 151 240 149 236 L 150 234 L 150 232 Z M 293 234 Q 293 238 295 235 L 293 234 Z M 72 236 L 71 245 L 73 245 L 72 236 Z M 68 237 L 66 240 Q 65 242 68 241 L 68 237 Z M 160 242 L 150 244 Q 145 245 144 243 L 135 244 L 132 247 L 129 246 L 122 247 L 114 252 L 111 262 L 101 283 L 95 291 L 92 299 L 93 302 L 92 315 L 92 317 L 93 321 L 92 322 L 92 341 L 90 351 L 90 365 L 92 371 L 98 368 Q 101 369 99 364 L 99 362 Q 98 354 100 351 L 100 349 L 99 347 L 99 330 L 98 327 L 102 324 L 103 327 L 104 360 L 104 358 L 108 356 L 112 359 L 115 357 L 114 353 L 115 351 L 115 326 L 115 324 L 114 321 L 114 278 L 115 277 L 114 275 L 115 273 L 118 271 L 119 274 L 117 283 L 119 287 L 117 290 L 117 306 L 117 308 L 118 310 L 118 356 L 120 356 L 121 352 L 124 351 L 123 349 L 124 345 L 123 342 L 123 287 L 124 286 L 124 275 L 123 274 L 125 267 L 125 259 L 127 255 Q 126 251 130 253 L 131 256 L 129 260 L 128 284 L 127 285 L 127 295 L 126 296 L 126 350 L 137 348 Q 138 345 134 346 L 134 343 L 138 344 Q 140 345 139 342 Q 134 343 133 341 L 134 339 L 139 339 Q 140 336 137 337 L 135 337 L 132 336 L 134 333 Q 140 335 139 331 L 137 332 L 135 331 Q 133 333 132 331 L 132 328 L 140 328 L 140 326 L 135 325 Q 132 326 133 322 L 140 323 L 140 320 L 137 321 L 134 320 L 136 316 L 140 317 L 140 315 L 139 315 L 134 313 L 141 310 L 136 308 L 136 305 L 141 305 L 141 303 L 137 302 Q 135 297 141 299 Q 142 296 138 297 L 138 295 L 142 293 Q 144 289 139 290 Q 138 286 142 287 Q 143 284 139 285 L 139 282 L 143 281 L 140 279 Q 138 274 145 276 L 146 275 L 146 268 L 149 258 L 156 246 L 164 243 L 160 242 Z M 167 245 L 161 247 L 162 251 L 168 246 L 167 245 Z M 185 247 L 185 249 L 187 248 L 185 247 Z M 291 248 Q 290 251 294 250 Q 295 247 291 248 Z M 183 249 L 183 251 L 185 250 L 183 249 Z M 286 249 L 286 254 L 287 252 L 286 249 Z M 193 250 L 193 252 L 195 251 L 193 250 Z M 167 251 L 165 253 L 167 254 L 167 251 Z M 179 251 L 177 254 L 178 255 L 180 254 L 179 251 Z M 298 251 L 291 253 L 285 259 L 285 261 Q 284 263 283 261 L 281 267 L 278 270 L 279 277 L 283 273 L 285 273 L 287 276 L 293 273 L 298 267 L 296 268 L 293 270 L 291 269 L 293 266 Q 290 267 291 264 L 296 260 L 298 256 L 294 258 Q 292 261 291 259 Q 288 260 289 258 L 298 254 L 298 251 Z M 160 252 L 153 259 L 150 269 L 150 276 L 146 285 L 146 292 L 148 297 L 149 296 L 150 279 L 153 268 L 153 266 L 154 262 L 160 254 L 160 252 Z M 201 252 L 201 254 L 203 255 Q 204 251 201 252 Z M 191 253 L 190 257 L 192 259 L 193 254 L 191 253 Z M 208 253 Q 208 257 206 256 L 206 257 L 209 256 L 208 253 Z M 198 254 L 196 256 Q 195 259 198 258 Q 196 256 199 255 L 198 254 Z M 179 255 L 178 257 L 181 258 L 181 256 L 179 255 Z M 283 255 L 282 258 L 283 258 L 283 255 Z M 216 257 L 214 263 L 216 262 L 216 257 Z M 231 257 L 232 262 Q 231 264 230 262 L 229 264 L 233 266 L 228 282 L 228 287 L 231 287 L 230 286 Q 229 282 233 283 L 232 282 L 234 279 L 234 277 L 235 266 L 235 264 L 235 257 L 231 257 Z M 196 258 L 196 263 L 197 261 L 196 258 Z M 209 259 L 208 262 L 210 263 L 209 259 Z M 210 259 L 211 263 L 212 263 Q 213 258 210 259 Z M 185 260 L 185 262 L 187 261 L 185 260 Z M 224 260 L 220 261 L 219 267 L 223 268 L 225 267 L 227 262 L 229 262 Q 228 259 224 260 Z M 175 261 L 173 264 L 175 264 L 175 261 Z M 190 261 L 189 264 L 190 264 L 190 261 Z M 246 262 Q 244 265 247 264 L 246 262 Z M 297 262 L 294 266 L 298 264 Q 299 261 297 262 Z M 189 264 L 188 268 L 189 268 L 189 264 Z M 251 264 L 250 274 L 252 273 Q 254 272 253 275 L 256 274 L 258 278 L 261 273 L 262 275 L 263 284 L 264 276 Q 263 273 266 274 L 267 276 L 268 284 L 268 276 L 270 274 Q 272 275 271 281 L 272 281 Q 273 273 270 270 L 267 267 L 255 267 L 251 264 Z M 201 265 L 201 266 L 204 266 L 201 265 Z M 158 267 L 157 270 L 158 270 L 158 267 Z M 162 267 Q 162 271 164 268 L 162 267 Z M 180 267 L 180 268 L 183 268 L 180 267 Z M 210 267 L 211 272 L 212 269 Q 213 266 210 267 Z M 229 267 L 228 270 L 229 270 L 229 267 Z M 188 268 L 188 275 L 189 275 L 188 268 Z M 215 268 L 214 272 L 215 272 L 215 268 Z M 194 269 L 193 274 L 194 274 L 194 269 Z M 168 270 L 167 274 L 168 274 L 168 270 Z M 228 270 L 227 274 L 228 274 L 228 270 Z M 157 271 L 155 273 L 157 273 L 157 271 Z M 177 271 L 175 273 L 177 273 L 177 271 Z M 198 272 L 197 277 L 198 277 L 198 272 Z M 222 274 L 221 277 L 222 277 L 222 274 Z M 245 274 L 245 275 L 247 275 L 245 274 Z M 195 275 L 194 280 L 195 280 L 195 275 Z M 171 276 L 169 278 L 171 278 L 171 276 Z M 154 277 L 154 279 L 156 280 Q 157 276 154 277 Z M 210 277 L 209 280 L 210 280 L 210 277 Z M 212 277 L 213 279 Q 214 276 212 277 Z M 226 277 L 225 280 L 226 280 L 226 277 Z M 289 277 L 288 287 L 293 287 Q 295 282 289 284 L 290 282 Q 291 278 289 277 Z M 259 278 L 258 284 L 259 284 L 259 278 Z M 286 278 L 284 280 L 284 312 L 283 313 L 283 342 L 284 343 L 283 346 L 284 348 L 284 350 L 283 355 L 284 357 L 283 371 L 282 372 L 282 390 L 281 391 L 282 440 L 283 438 Q 282 435 285 436 L 285 435 Q 282 436 283 434 L 287 432 L 290 436 Q 292 431 291 422 L 290 422 L 285 420 Q 284 417 288 418 L 290 418 L 290 420 L 291 420 L 291 417 L 286 417 L 286 414 L 289 414 Q 288 416 291 415 L 291 411 L 288 412 Q 285 411 288 409 L 291 410 Q 292 407 288 408 Q 286 403 292 405 L 292 402 L 290 403 L 288 402 Q 285 403 286 399 L 290 400 Q 293 401 292 398 L 290 397 Q 285 399 286 395 L 288 395 Q 293 397 292 393 L 286 392 L 288 389 L 291 391 Q 293 392 292 388 Q 287 389 286 387 L 290 385 L 287 384 L 289 372 L 288 369 L 286 369 L 287 366 L 287 364 L 286 362 L 287 359 L 287 362 L 288 362 Q 289 357 286 356 L 287 352 L 286 349 L 287 339 Q 285 337 288 336 Q 289 332 286 333 L 287 330 Q 285 328 288 327 L 290 328 Q 291 325 287 326 L 287 324 L 293 324 L 293 323 L 292 323 Q 286 325 287 322 Q 288 319 292 320 L 293 318 L 292 318 L 287 317 Q 286 314 290 315 L 290 313 L 287 313 L 293 310 L 293 309 Q 286 311 288 306 L 292 306 L 288 305 Q 286 301 291 302 Q 292 304 293 302 L 288 301 L 290 298 Q 294 299 293 297 L 292 297 L 287 295 L 288 293 L 293 293 L 293 289 L 290 290 L 287 287 Q 288 280 286 278 Z M 188 279 L 189 281 Q 190 278 188 279 Z M 291 279 L 291 281 L 293 282 Q 294 278 291 279 Z M 225 280 L 224 285 L 225 285 L 225 280 Z M 280 281 L 279 284 L 271 287 Q 259 286 252 289 L 250 289 L 250 306 L 251 307 L 251 320 L 252 321 L 251 322 L 251 342 L 250 346 L 251 349 L 250 413 L 248 423 L 248 465 L 255 467 Q 265 469 269 464 Q 275 464 277 468 L 278 467 L 278 457 L 279 456 Q 280 451 278 450 Q 276 443 279 442 L 278 440 L 278 419 L 278 417 L 278 401 L 279 400 L 278 395 L 279 391 L 278 388 L 279 387 L 279 368 L 280 367 L 280 339 L 279 338 L 280 336 L 280 299 L 281 298 Q 283 291 280 290 L 281 286 Q 282 282 280 281 Z M 198 282 L 198 289 L 199 286 L 198 282 Z M 255 282 L 254 285 L 255 285 L 255 282 Z M 187 284 L 186 287 L 187 287 L 187 284 Z M 219 284 L 218 290 L 218 303 L 222 305 L 228 302 Q 232 300 231 305 L 227 308 L 232 311 L 231 317 L 225 316 L 223 316 L 219 319 L 219 348 L 220 351 L 220 353 L 219 384 L 217 395 L 217 404 L 217 406 L 216 408 L 216 422 Q 215 425 212 424 Q 209 425 211 427 L 211 436 L 210 437 L 211 469 L 218 468 L 227 463 L 229 460 L 233 460 L 233 449 L 233 447 L 234 442 L 234 425 L 235 424 L 234 422 L 234 393 L 235 392 L 235 356 L 234 355 L 235 353 L 233 344 L 234 342 L 234 320 L 235 319 L 233 310 L 234 309 L 234 293 L 229 293 L 221 287 Q 222 283 219 284 Z M 171 285 L 170 287 L 177 289 L 177 287 Q 173 288 171 285 Z M 210 285 L 209 293 L 210 293 L 210 285 Z M 194 286 L 193 296 L 194 296 L 194 286 Z M 213 286 Q 212 289 215 288 Q 216 285 213 286 Z M 154 291 L 152 293 Q 151 295 154 294 L 154 291 Z M 173 291 L 174 294 Q 176 295 175 292 L 173 291 Z M 202 291 L 202 292 L 205 292 L 202 291 Z M 214 291 L 213 300 L 214 300 L 214 291 Z M 197 292 L 198 294 Q 199 291 197 292 Z M 165 294 L 165 299 L 168 300 L 168 297 L 165 294 Z M 197 295 L 198 301 L 199 297 Q 200 294 197 295 Z M 210 295 L 210 298 Q 213 297 210 295 Z M 194 297 L 193 303 L 194 303 L 194 297 Z M 157 300 L 155 304 L 158 305 L 157 300 Z M 179 300 L 179 304 Q 181 307 182 304 Q 184 298 179 300 Z M 213 301 L 211 303 L 213 303 L 213 301 Z M 202 302 L 200 304 L 202 304 L 202 302 Z M 161 304 L 161 306 L 163 305 L 161 304 Z M 196 304 L 196 308 L 198 309 L 197 307 L 198 305 L 196 304 Z M 145 305 L 145 307 L 147 306 L 145 305 Z M 151 305 L 150 308 L 152 309 L 151 305 Z M 172 305 Q 171 310 174 311 Q 178 312 176 307 L 172 305 Z M 247 306 L 245 308 L 246 310 L 248 307 L 247 306 Z M 213 309 L 210 311 L 213 311 L 213 309 Z M 202 310 L 203 311 L 204 312 Q 205 309 202 310 Z M 247 310 L 244 313 Q 243 315 246 314 L 247 312 L 247 310 Z M 166 312 Q 165 317 169 318 L 169 314 L 166 312 Z M 151 313 L 150 316 L 151 316 L 151 313 Z M 248 313 L 246 316 L 248 315 L 248 313 Z M 291 313 L 291 315 L 293 314 L 291 313 Z M 179 316 L 179 322 L 181 322 L 182 318 L 179 316 Z M 214 317 L 214 319 Q 216 325 213 327 Q 212 329 215 328 L 215 318 L 214 317 Z M 239 318 L 237 320 L 238 325 L 238 324 L 239 324 L 237 328 L 238 332 L 237 344 L 237 346 L 238 348 L 238 366 L 239 368 L 239 370 L 238 373 L 239 374 L 240 382 L 242 379 L 241 375 Q 242 372 244 374 L 244 372 L 243 372 Q 238 373 240 369 L 243 368 Q 245 369 244 367 L 243 367 L 240 365 L 240 363 Q 239 360 242 361 L 241 359 L 242 354 L 242 352 L 241 348 L 242 346 L 240 347 L 240 346 Q 239 342 242 343 L 242 341 Q 239 342 240 340 L 240 338 L 242 339 Q 243 336 240 337 L 241 335 L 240 332 L 241 332 Q 240 336 245 334 L 245 333 Q 241 334 242 331 L 239 328 L 240 327 Q 239 323 242 324 Q 243 321 239 322 L 239 318 Z M 246 318 Q 245 321 248 320 Q 249 317 246 318 Z M 211 319 L 210 322 L 209 320 L 208 324 L 212 325 L 211 319 Z M 153 321 L 152 323 L 156 323 L 153 321 Z M 192 322 L 190 324 Q 189 327 192 326 L 192 322 Z M 245 322 L 243 324 L 245 324 L 245 322 Z M 174 323 L 172 326 L 176 327 L 176 324 L 174 323 Z M 197 323 L 195 325 L 198 328 L 199 328 L 199 324 L 197 323 Z M 165 326 Q 163 329 166 328 L 165 326 Z M 185 326 Q 183 330 186 331 L 187 327 L 185 326 Z M 210 326 Q 208 329 211 328 L 210 326 Z M 153 327 L 152 329 L 157 329 L 153 327 Z M 169 329 L 169 331 L 171 330 L 169 329 Z M 151 330 L 150 333 L 151 333 L 151 330 Z M 289 330 L 289 331 L 291 331 L 289 330 Z M 169 331 L 168 333 L 170 334 L 169 331 Z M 164 332 L 165 337 L 166 333 L 164 332 Z M 208 332 L 208 337 L 210 337 Q 212 336 210 335 Q 211 331 208 332 Z M 202 333 L 202 338 L 205 339 L 205 333 L 202 333 Z M 293 333 L 289 335 Q 290 337 292 335 L 292 337 L 293 337 L 293 333 Z M 157 334 L 157 335 L 159 335 L 157 334 Z M 180 334 Q 177 338 181 337 L 182 338 L 180 334 Z M 244 337 Q 242 340 245 339 L 244 337 Z M 151 338 L 150 340 L 153 340 L 151 338 Z M 191 338 Q 189 341 192 342 Q 195 343 193 339 L 191 338 Z M 195 338 L 196 341 Q 194 345 198 344 L 199 345 L 199 342 Q 202 343 201 341 L 199 341 Q 200 336 195 338 Z M 288 338 L 288 341 Q 293 343 292 339 L 288 338 Z M 157 339 L 158 340 L 159 341 Q 160 338 157 339 Z M 216 339 L 214 341 Q 213 344 216 345 L 217 342 L 216 339 Z M 294 340 L 292 342 L 293 344 L 294 344 L 294 340 Z M 165 341 Q 163 344 166 343 L 165 341 Z M 175 341 L 176 342 Q 177 344 178 342 L 175 341 Z M 185 342 Q 183 345 186 344 L 185 342 Z M 157 345 L 157 346 L 160 346 L 157 345 Z M 170 345 Q 169 348 172 347 Q 173 344 170 345 Z M 174 347 L 174 348 L 177 348 L 174 347 Z M 179 348 L 181 350 Q 182 347 179 348 Z M 210 348 L 208 350 L 210 353 L 211 349 L 210 348 Z M 165 349 L 164 352 L 166 352 L 165 349 Z M 204 349 L 202 351 L 203 353 L 202 355 L 205 356 Q 206 351 204 349 Z M 292 349 Q 290 352 293 351 L 292 349 Z M 185 350 L 186 353 L 187 351 L 185 350 Z M 170 351 L 170 354 L 172 353 L 170 351 Z M 291 352 L 292 363 L 293 363 L 292 354 L 291 352 Z M 188 353 Q 187 356 190 355 Q 191 352 188 353 Z M 166 354 L 166 355 L 168 355 L 166 354 Z M 214 355 L 214 360 L 216 360 L 216 355 L 214 355 Z M 150 356 L 149 360 L 151 360 L 150 356 Z M 168 356 L 169 358 Q 170 355 168 356 Z M 193 356 L 191 361 L 192 364 L 193 362 L 193 356 Z M 196 356 Q 195 362 199 363 L 199 358 L 196 356 Z M 134 358 L 134 359 L 136 359 L 134 358 Z M 170 358 L 170 359 L 172 359 L 170 358 Z M 126 359 L 126 361 L 128 360 L 126 359 Z M 159 359 L 158 361 L 160 362 L 159 359 Z M 166 359 L 165 361 L 167 362 L 166 359 Z M 173 359 Q 172 361 175 360 Q 176 362 177 360 L 173 359 Z M 181 359 L 179 361 L 181 361 L 181 359 Z M 188 359 L 186 361 L 189 361 Q 190 358 188 359 Z M 145 360 L 144 363 L 145 363 L 145 360 Z M 150 363 L 149 366 L 150 366 L 150 363 Z M 211 363 L 208 368 Q 210 371 211 368 L 211 363 Z M 188 364 L 187 369 L 190 371 L 189 369 L 190 365 L 188 364 Z M 126 365 L 126 368 L 128 369 L 127 367 L 129 366 L 126 365 Z M 197 365 L 196 369 L 199 370 Q 206 372 205 368 L 197 365 Z M 293 365 L 291 369 L 292 371 L 293 369 L 293 365 Z M 193 366 L 192 394 L 193 394 L 193 366 Z M 121 367 L 122 369 Q 123 366 121 367 Z M 150 368 L 149 371 L 150 371 L 150 368 Z M 167 369 Q 168 372 165 371 L 165 375 L 168 376 L 168 374 L 166 374 Q 165 371 168 372 L 169 370 L 167 369 Z M 154 371 L 154 372 L 156 372 L 154 371 Z M 122 372 L 121 376 L 122 376 L 122 372 Z M 209 372 L 210 374 L 212 373 L 209 372 Z M 214 372 L 214 376 L 215 376 Q 216 371 214 372 Z M 103 373 L 102 376 L 103 376 L 103 373 Z M 145 373 L 144 377 L 145 377 L 145 373 Z M 153 373 L 152 377 L 153 377 L 153 373 Z M 90 376 L 89 380 L 90 380 L 90 376 Z M 111 376 L 111 377 L 114 377 L 111 376 Z M 121 376 L 121 381 L 122 381 Q 123 377 121 376 Z M 210 376 L 209 379 L 210 379 L 210 376 Z M 244 376 L 243 380 L 244 380 L 244 376 Z M 128 377 L 128 381 L 128 380 Q 130 378 128 377 Z M 169 377 L 168 380 L 169 380 L 169 377 Z M 291 377 Q 288 383 292 382 L 291 377 Z M 105 378 L 105 381 L 106 381 Q 107 377 105 378 Z M 93 379 L 91 380 L 91 381 L 95 381 L 93 379 Z M 166 380 L 167 386 L 168 382 Q 169 379 166 380 Z M 199 380 Q 197 383 200 382 L 199 380 Z M 212 380 L 211 384 L 213 383 L 212 380 Z M 126 381 L 125 384 L 126 384 L 126 381 Z M 186 381 L 185 384 L 186 384 L 186 381 Z M 158 382 L 158 383 L 160 383 L 158 382 Z M 170 382 L 172 384 L 174 383 L 170 382 Z M 240 382 Q 238 387 242 386 Q 244 381 240 382 Z M 243 382 L 244 385 L 245 383 L 243 382 Z M 128 383 L 127 388 L 128 388 L 128 383 Z M 179 383 L 180 384 L 181 385 Q 182 382 179 383 Z M 188 383 L 189 384 Q 190 386 191 384 L 188 383 Z M 213 384 L 213 389 L 214 389 Q 216 383 213 384 Z M 239 384 L 238 392 L 238 394 L 237 395 L 237 435 L 236 436 L 237 438 L 236 441 L 236 459 L 235 460 L 236 463 L 235 465 L 236 467 L 234 476 L 235 478 L 234 480 L 234 512 L 233 513 L 234 516 L 234 537 L 234 539 Q 236 544 233 546 L 234 558 L 235 556 L 236 560 L 234 559 L 233 562 L 236 563 Q 237 565 234 564 Q 231 565 232 569 L 236 571 L 238 570 L 243 571 Q 246 572 244 568 L 242 567 Q 236 569 237 565 L 244 565 L 237 562 L 238 560 L 238 558 Q 239 555 244 556 Q 245 552 240 554 L 238 552 L 238 550 L 243 551 L 244 552 L 244 550 L 239 550 L 239 543 L 244 543 L 244 541 L 242 542 L 239 539 Q 238 534 241 533 L 245 534 L 245 532 L 240 532 L 239 531 Q 240 528 245 529 L 245 528 Q 236 531 239 523 L 239 521 L 240 522 L 246 522 Q 248 518 243 519 L 239 520 Q 238 516 242 517 L 241 516 Q 242 513 239 514 L 239 513 L 238 511 L 240 511 L 239 509 L 240 507 L 240 509 L 242 508 L 244 509 L 242 505 L 246 505 L 243 503 Q 241 505 240 503 L 241 501 L 240 498 L 243 496 L 243 495 Q 240 496 241 493 L 245 493 L 241 492 L 241 487 L 245 487 L 245 486 Q 239 484 240 488 L 239 488 L 240 477 L 240 484 L 243 482 L 245 483 Q 246 480 243 481 L 241 477 L 245 478 L 245 476 L 240 476 L 239 471 L 242 470 L 245 471 Q 247 467 242 468 L 240 467 L 243 464 L 242 463 L 244 460 Q 239 461 241 457 L 244 458 Q 246 459 245 457 L 239 453 L 240 451 L 241 453 Q 243 452 241 451 Q 240 448 244 449 Q 245 446 241 447 L 241 444 L 244 445 L 244 440 Q 240 441 241 438 L 244 437 L 242 436 Q 239 435 242 433 Q 246 434 245 431 L 242 432 L 240 430 L 241 428 L 240 425 L 241 422 L 243 422 L 246 421 L 242 420 L 240 417 L 245 416 L 246 417 L 246 414 L 242 416 L 238 414 L 242 403 Q 241 400 244 401 L 246 401 L 246 399 L 243 399 L 241 396 L 244 395 L 246 396 L 246 394 Q 242 395 241 393 L 245 391 Q 246 388 243 389 L 240 390 L 239 384 Z M 92 385 L 92 386 L 95 386 L 92 385 Z M 98 385 L 95 387 L 98 387 L 98 385 Z M 136 385 L 135 388 L 136 388 L 136 385 Z M 212 385 L 211 388 L 212 388 L 212 385 Z M 89 386 L 88 398 L 89 398 L 89 386 Z M 103 387 Q 101 390 104 389 L 103 387 Z M 119 387 L 118 390 L 119 390 L 119 387 Z M 169 387 L 168 390 L 169 390 L 169 387 Z M 186 387 L 185 390 L 186 390 L 186 387 Z M 190 387 L 188 390 L 190 390 L 191 391 L 190 387 Z M 196 387 L 196 389 L 198 388 L 196 387 Z M 126 388 Q 123 393 127 392 L 126 388 Z M 202 388 Q 201 391 204 390 Q 205 387 202 388 Z M 105 389 L 105 390 L 112 390 L 105 389 Z M 210 389 L 208 391 L 209 395 L 211 394 L 210 393 L 210 392 L 210 389 Z M 92 391 L 92 392 L 94 392 L 92 391 Z M 186 391 L 185 397 L 186 397 L 186 391 Z M 190 391 L 188 394 L 190 393 L 190 391 Z M 109 394 L 107 396 L 109 396 L 111 396 Q 112 393 109 394 Z M 121 394 L 117 396 L 120 396 L 121 397 L 121 394 Z M 168 394 L 166 397 L 167 398 L 169 397 L 168 394 Z M 189 395 L 189 397 L 191 396 L 189 395 Z M 193 395 L 192 403 L 193 403 L 193 395 Z M 165 396 L 164 399 L 165 399 L 165 396 Z M 213 396 L 212 401 L 211 400 L 209 401 L 212 404 L 213 402 L 213 396 Z M 102 397 L 101 401 L 102 401 L 102 397 Z M 170 397 L 171 400 L 173 399 L 170 397 Z M 174 398 L 176 401 L 178 400 L 174 398 Z M 186 398 L 185 402 L 186 402 L 186 398 Z M 108 400 L 108 401 L 110 401 L 108 400 Z M 129 400 L 128 403 L 129 403 L 129 400 Z M 145 400 L 145 403 L 147 402 Q 148 399 145 400 Z M 90 401 L 91 404 L 90 406 L 92 405 Q 93 400 90 401 Z M 105 402 L 104 405 L 106 406 L 105 402 Z M 190 402 L 191 404 Q 192 401 190 402 Z M 102 403 L 101 409 L 102 409 L 102 403 Z M 140 403 L 141 405 Q 142 402 140 403 Z M 153 404 L 152 407 L 153 407 L 153 404 Z M 172 404 L 170 406 L 172 406 L 172 404 Z M 186 404 L 186 415 L 187 409 L 187 407 L 186 404 Z M 112 405 L 112 406 L 114 406 L 112 405 Z M 125 405 L 125 407 L 127 406 L 125 405 Z M 193 405 L 191 410 Q 190 413 193 412 L 193 405 Z M 208 405 L 207 414 L 208 414 L 208 405 Z M 243 405 Q 240 409 244 408 L 243 405 Z M 90 406 L 89 416 L 91 416 Q 89 414 90 410 L 92 410 L 93 407 L 91 406 L 91 408 L 90 406 Z M 105 406 L 104 409 L 105 409 L 105 406 Z M 211 406 L 209 408 Q 208 410 211 409 L 212 407 L 211 406 Z M 154 407 L 152 409 L 153 413 Q 155 412 153 411 L 154 409 L 154 407 Z M 167 408 L 166 412 L 167 412 L 167 408 Z M 130 409 L 131 410 L 132 411 Q 133 408 130 409 Z M 137 409 L 136 412 L 137 412 L 137 409 Z M 165 409 L 164 412 L 165 412 L 165 409 Z M 201 409 L 201 410 L 203 410 L 201 409 Z M 212 409 L 211 415 L 212 415 L 212 409 Z M 105 410 L 103 412 L 105 413 L 103 413 L 104 415 L 106 414 L 106 410 L 105 410 Z M 118 410 L 119 414 L 120 411 L 118 410 Z M 171 410 L 170 412 L 181 412 L 181 410 L 179 411 Q 172 413 171 410 Z M 101 411 L 100 417 L 101 417 L 101 411 Z M 127 411 L 125 414 L 128 412 L 127 411 Z M 167 413 L 165 415 Q 164 418 168 416 L 167 413 Z M 170 413 L 169 416 L 170 416 L 170 413 Z M 191 413 L 190 417 Q 193 416 192 419 L 193 419 L 191 413 Z M 93 414 L 93 415 L 96 415 L 93 414 Z M 153 415 L 153 417 Q 152 419 155 418 L 154 417 Q 155 414 153 415 Z M 132 416 L 128 418 L 133 418 Q 134 415 132 416 Z M 140 416 Q 138 419 141 418 L 140 416 Z M 211 416 L 211 418 L 210 419 L 207 418 L 209 421 L 212 419 Q 213 415 211 416 Z M 145 417 L 145 419 L 147 420 Q 148 416 145 417 Z M 170 417 L 169 420 L 170 420 L 170 417 Z M 104 418 L 104 420 L 106 419 L 104 418 Z M 126 418 L 125 423 L 126 423 L 126 418 Z M 152 418 L 151 424 L 153 425 L 152 418 Z M 200 419 L 200 420 L 202 420 L 200 419 Z M 100 420 L 99 423 L 100 423 L 100 420 Z M 153 420 Q 152 423 155 422 Q 156 419 153 420 Z M 190 420 L 190 426 L 191 424 L 190 420 Z M 194 420 L 192 426 L 194 426 L 194 420 Z M 157 421 L 157 422 L 160 422 L 157 421 Z M 167 421 Q 167 424 164 423 L 165 427 L 166 425 L 166 428 L 167 428 L 167 421 Z M 180 421 L 176 423 L 180 423 L 180 421 Z M 132 422 L 131 424 L 137 423 Q 138 425 139 423 L 132 422 Z M 145 423 L 145 425 L 147 424 L 145 423 Z M 105 424 L 105 425 L 109 425 L 105 424 Z M 198 424 L 197 427 L 198 427 L 198 424 Z M 202 424 L 201 425 Q 198 424 199 427 L 201 426 L 203 427 Q 204 423 202 424 Z M 67 425 L 67 437 L 65 437 L 64 444 L 65 445 L 65 451 L 68 450 L 66 449 L 66 444 L 68 443 L 69 444 L 69 426 L 67 425 Z M 90 425 L 89 428 L 90 428 L 90 425 Z M 151 425 L 150 428 L 151 428 L 151 425 Z M 170 425 Q 168 428 171 427 L 170 425 Z M 160 426 L 156 427 L 156 428 Q 160 429 161 427 L 160 426 Z M 242 426 Q 241 429 245 428 Q 246 425 242 426 Z M 105 427 L 106 429 L 109 429 L 105 427 Z M 128 427 Q 125 432 129 431 L 129 429 L 128 427 Z M 175 427 L 174 429 L 178 429 L 175 427 Z M 191 427 L 189 429 L 191 430 L 191 427 Z M 193 427 L 192 430 L 193 435 L 193 437 L 192 441 L 193 442 L 194 450 L 194 444 L 194 442 L 194 428 L 193 427 Z M 126 428 Q 124 436 126 442 L 127 442 L 126 435 L 128 435 L 126 428 Z M 130 428 L 131 431 L 132 429 L 130 428 Z M 134 428 L 134 430 L 136 431 Q 137 427 134 428 Z M 146 428 Q 144 431 147 430 L 146 428 Z M 90 429 Q 89 431 92 430 L 93 431 Q 94 427 90 429 Z M 96 429 Q 95 432 98 431 Q 99 428 96 429 Z M 139 429 Q 138 432 142 431 Q 143 428 139 429 Z M 185 429 L 185 462 L 185 445 L 186 444 L 185 442 L 185 429 Z M 89 431 L 89 433 L 91 432 L 89 431 Z M 104 431 L 103 434 L 104 434 L 104 431 Z M 122 431 L 121 435 L 118 434 Q 117 437 121 436 L 122 437 L 122 431 Z M 167 431 L 165 434 L 167 433 L 167 431 Z M 170 431 L 169 434 L 172 435 Q 173 432 170 433 L 170 431 Z M 197 431 L 198 434 L 199 432 L 197 431 Z M 204 431 L 204 433 L 202 432 Q 198 431 199 434 L 206 435 L 206 433 L 204 431 Z M 151 432 L 150 435 L 152 435 L 151 432 Z M 159 432 L 157 433 L 157 434 L 160 433 L 159 432 Z M 91 433 L 91 437 L 91 436 Q 93 434 91 433 Z M 174 433 L 174 435 L 177 435 Q 178 431 174 433 Z M 180 433 L 179 436 L 180 436 L 180 433 Z M 115 434 L 114 437 L 115 437 L 115 434 Z M 147 434 L 145 436 L 147 436 L 147 434 Z M 191 434 L 190 437 L 192 437 L 191 434 Z M 133 435 Q 131 438 134 437 L 133 435 Z M 139 435 L 141 437 L 142 437 L 139 435 Z M 106 437 L 105 439 L 103 440 Q 105 443 106 440 L 106 437 Z M 290 438 L 288 441 L 288 442 L 283 442 L 283 440 L 281 442 L 281 467 L 281 469 L 280 474 Q 278 480 281 482 L 280 483 L 280 495 L 280 497 L 279 509 L 278 510 Q 281 511 279 517 L 279 519 L 279 530 L 281 531 Q 284 532 283 529 L 294 532 L 294 535 L 288 532 Q 286 535 282 534 L 280 535 L 280 533 L 276 533 Q 274 531 275 526 L 273 525 Q 264 532 249 532 L 247 532 L 247 566 L 249 567 L 249 565 L 252 564 Q 253 561 251 562 Q 247 561 248 558 L 251 556 L 256 562 L 255 563 Q 254 568 258 569 L 262 567 L 273 571 L 275 571 Q 279 570 278 573 L 282 574 Q 284 575 282 577 L 283 581 L 280 583 L 282 583 L 284 583 L 283 585 L 285 587 L 286 592 L 290 591 L 292 592 L 309 592 L 310 591 L 312 592 L 316 591 L 318 591 L 321 592 L 323 592 L 326 591 Q 331 593 330 590 L 331 590 Q 330 592 334 591 Q 335 588 333 589 L 326 579 L 329 579 L 333 584 Q 332 587 335 586 L 334 585 L 335 583 L 334 581 L 334 568 L 333 568 Q 326 570 325 567 L 324 568 L 315 568 L 315 585 L 316 586 Q 317 589 315 590 L 312 589 L 313 587 L 311 580 L 312 576 L 311 574 L 311 572 L 312 570 L 311 567 Q 305 569 307 577 L 304 576 L 305 569 L 309 566 Q 305 566 304 563 Q 301 564 302 561 L 305 560 Q 308 561 307 559 L 306 559 L 302 557 L 303 555 L 297 551 L 297 553 L 296 553 L 294 554 L 296 551 L 283 547 L 277 544 L 275 545 L 275 543 L 273 544 L 265 540 L 263 544 L 268 545 L 270 544 L 270 546 L 272 545 L 286 552 L 292 560 Q 288 561 289 559 Q 284 552 276 550 Q 272 551 273 548 L 264 547 L 261 548 L 262 550 Q 262 552 256 551 L 254 551 L 252 550 Q 249 549 252 547 L 257 549 L 258 549 L 258 545 L 263 546 L 263 544 L 260 542 L 258 543 L 250 540 Q 247 539 250 537 L 256 540 Q 263 541 262 538 L 265 537 L 274 541 L 275 539 L 275 541 L 291 547 L 292 545 L 292 547 L 296 547 L 302 550 L 303 550 L 303 554 L 310 554 L 310 550 Q 313 551 312 548 L 315 547 L 323 547 L 324 548 Q 326 547 325 550 L 323 552 L 321 552 L 318 551 L 316 552 Q 315 549 320 550 L 319 548 L 316 549 Q 313 550 314 554 L 320 555 L 323 554 L 324 557 L 326 556 L 334 556 L 335 557 L 335 553 L 322 544 Q 313 542 312 546 L 304 542 Q 296 541 294 544 Q 291 545 292 541 Q 295 538 302 539 Q 303 542 305 538 L 298 534 Q 295 534 295 530 L 297 530 L 298 530 L 294 524 Q 293 520 297 522 L 299 528 L 305 531 L 315 533 L 317 532 L 328 535 L 328 533 L 334 537 L 334 536 L 334 534 L 335 530 L 334 527 L 335 520 L 334 518 L 324 518 L 325 516 L 334 516 L 334 514 L 326 514 L 325 515 Q 322 516 323 513 Q 326 511 333 512 Q 334 514 335 512 L 335 510 L 326 510 L 327 508 L 334 508 L 335 502 L 335 483 L 319 483 L 318 482 L 314 483 L 312 482 L 308 483 L 304 483 L 302 482 L 305 480 L 307 481 L 309 480 L 335 481 L 334 477 Q 335 474 332 475 L 330 475 Q 325 474 324 476 L 319 475 L 317 475 L 316 476 L 297 476 L 297 477 L 329 477 L 329 479 L 322 479 L 321 478 L 320 479 L 296 479 L 295 480 Q 292 479 293 474 L 323 474 L 324 473 L 334 473 L 334 469 L 331 467 L 327 469 Q 319 471 318 467 L 306 471 L 303 472 L 295 472 L 294 471 L 292 474 L 292 492 L 293 493 L 292 495 L 293 529 L 282 527 L 284 524 L 290 527 L 291 521 L 290 516 L 288 517 L 285 516 Q 284 513 287 514 L 285 511 Q 284 508 287 509 Q 288 505 286 504 L 285 507 L 284 502 L 284 500 L 285 495 L 285 493 L 283 492 L 283 499 L 282 500 L 283 505 L 282 508 L 281 508 L 281 500 L 283 489 L 287 489 L 283 488 Q 281 484 287 485 L 287 484 Q 281 486 283 481 L 287 481 L 283 480 L 283 474 L 286 474 L 285 472 L 286 470 Q 285 466 288 467 L 289 468 Q 290 465 286 466 L 283 463 L 284 461 L 287 459 L 284 457 L 285 453 L 289 456 Q 291 457 290 453 L 286 452 L 286 450 L 290 450 L 290 447 L 288 446 Q 282 448 283 444 L 285 444 L 289 443 L 290 444 L 290 438 Z M 97 439 L 97 440 L 99 440 L 97 439 Z M 120 439 L 120 441 L 122 440 L 120 439 Z M 147 439 L 145 442 L 147 441 L 147 439 Z M 155 439 L 155 440 L 157 440 L 155 439 Z M 159 439 L 160 440 L 161 441 Q 162 438 159 439 Z M 90 440 L 89 448 L 91 448 L 92 449 Q 93 446 90 447 L 91 443 L 91 445 L 92 445 Q 93 441 90 442 L 90 440 Z M 114 440 L 112 442 L 113 443 L 115 442 Q 116 439 114 440 Z M 151 440 L 151 448 L 153 448 L 152 444 L 154 444 L 153 442 Q 154 439 151 440 Z M 165 440 Q 163 445 170 443 L 170 442 L 167 442 Q 168 439 165 440 Z M 176 440 L 176 441 L 180 441 L 176 440 Z M 191 440 L 190 446 L 191 446 L 191 440 Z M 111 441 L 110 444 L 111 444 L 111 441 Z M 123 441 L 121 444 L 124 444 Q 125 440 123 441 Z M 141 441 L 139 443 L 141 443 L 142 444 L 141 441 Z M 127 442 L 128 444 L 131 443 L 127 442 Z M 104 443 L 105 447 L 106 447 Q 107 442 104 443 Z M 147 443 L 146 446 L 147 446 L 147 443 Z M 202 443 L 202 444 L 206 444 L 202 443 Z M 158 444 L 158 445 L 161 445 L 158 444 Z M 169 445 L 168 448 Q 166 449 169 450 L 170 450 L 169 445 Z M 109 447 L 109 449 L 111 450 Q 112 446 109 447 Z M 114 447 L 113 449 L 115 450 L 114 447 Z M 122 447 L 121 450 L 123 450 L 122 447 Z M 132 447 L 132 448 L 134 448 L 132 447 Z M 136 447 L 136 448 L 142 449 Q 143 446 136 447 Z M 166 447 L 166 452 L 167 452 L 166 447 Z M 148 448 L 147 454 L 148 454 L 148 448 Z M 190 448 L 191 450 L 192 450 L 190 448 Z M 198 448 Q 198 452 200 449 L 198 448 Z M 204 448 L 201 449 L 201 450 Q 204 451 205 449 L 204 448 Z M 89 449 L 90 456 L 91 456 L 90 453 L 91 450 L 89 449 Z M 152 449 L 151 456 L 153 455 L 152 449 Z M 159 449 L 157 451 L 159 451 L 159 449 Z M 106 450 L 105 455 L 107 454 L 106 450 Z M 126 450 L 124 452 L 126 452 L 126 450 Z M 128 450 L 126 453 L 127 454 L 128 453 L 138 453 L 128 452 L 128 450 Z M 190 451 L 189 454 L 190 454 L 190 451 Z M 192 451 L 193 456 L 194 456 Q 196 450 192 451 Z M 166 452 L 166 465 L 167 462 L 166 458 L 167 455 L 166 452 Z M 169 452 L 168 458 L 168 459 Q 170 460 169 456 L 171 456 L 169 455 L 169 452 Z M 65 453 L 64 458 L 68 457 Q 70 451 65 453 Z M 122 453 L 121 456 L 122 456 L 122 453 Z M 146 453 L 146 457 L 146 456 Q 148 454 146 453 Z M 99 455 L 96 457 L 99 457 L 99 455 Z M 105 455 Q 103 458 106 459 L 107 459 L 105 455 Z M 178 455 Q 177 458 180 457 Q 181 454 178 455 Z M 189 455 L 189 457 L 191 458 Q 192 454 189 455 Z M 173 456 L 173 457 L 176 457 L 173 456 Z M 193 456 L 192 458 L 192 460 L 194 469 L 195 464 L 194 458 L 193 456 Z M 118 457 L 118 470 L 119 464 L 118 457 Z M 90 458 L 89 465 L 90 465 Q 89 461 95 463 L 94 461 L 92 462 L 90 458 Z M 128 458 L 126 462 L 128 462 L 128 458 Z M 152 458 L 151 460 L 153 461 L 152 458 Z M 289 458 L 290 460 Q 291 457 289 458 Z M 146 460 Q 143 464 147 463 L 146 460 Z M 168 460 L 168 462 L 170 461 L 168 460 Z M 96 461 L 96 462 Q 98 461 97 464 L 98 464 Q 99 460 96 461 Z M 122 462 L 123 465 L 124 463 L 122 462 Z M 153 462 L 153 478 L 153 472 L 155 472 L 153 470 L 153 462 Z M 168 462 L 167 465 L 168 465 L 168 462 Z M 174 462 L 174 463 L 180 463 L 174 462 Z M 189 462 L 189 464 L 191 463 L 189 462 Z M 201 462 L 201 464 L 201 465 L 203 464 Q 204 461 201 462 Z M 206 462 L 207 465 L 203 466 L 207 466 L 208 467 Q 210 461 206 462 Z M 197 463 L 198 465 L 200 464 L 197 463 Z M 128 464 L 128 466 L 131 466 L 128 464 Z M 140 464 Q 139 467 142 466 Q 143 463 140 464 Z M 229 464 L 229 466 L 218 471 L 216 471 L 214 472 Q 210 471 211 474 L 219 474 L 220 473 L 223 474 Q 227 475 229 473 L 232 474 L 232 465 L 229 464 Z M 243 464 Q 242 467 245 466 Q 246 463 243 464 Z M 89 466 L 91 469 L 94 468 L 89 466 Z M 97 466 L 95 468 L 98 468 Q 99 465 97 466 Z M 121 466 Q 120 469 123 468 Q 124 465 121 466 Z M 146 466 L 146 469 L 148 468 L 147 474 L 149 475 L 149 467 L 148 466 L 146 466 Z M 157 466 L 157 467 L 159 467 L 157 466 Z M 128 467 L 127 470 L 128 470 L 128 467 Z M 166 467 L 166 471 L 167 485 Q 169 484 167 483 L 168 481 L 167 479 L 167 471 L 168 470 L 168 467 L 167 469 L 166 467 Z M 175 467 L 175 468 L 177 468 L 175 467 Z M 270 467 L 266 470 L 264 469 L 258 471 L 248 468 L 248 475 L 258 475 L 260 475 L 275 474 L 276 477 L 253 478 Q 254 480 256 478 L 259 479 L 260 478 L 271 478 L 273 478 L 276 480 L 275 484 L 273 484 Q 271 482 266 483 L 262 483 L 260 484 L 248 484 L 248 496 L 249 497 L 248 500 L 249 505 L 249 507 L 247 529 L 251 530 L 256 530 L 271 523 Q 276 524 277 522 L 276 519 L 277 500 L 276 500 Q 277 502 275 501 L 273 501 Q 267 503 268 499 L 264 500 L 262 500 L 258 499 L 255 492 L 260 494 L 261 488 L 267 484 L 269 485 L 271 484 L 276 487 L 273 496 L 275 495 L 277 496 L 277 484 L 278 483 L 277 481 L 278 476 L 277 471 L 275 471 L 270 467 Z M 108 469 L 108 470 L 110 470 L 108 469 Z M 198 469 L 198 472 L 200 471 L 198 469 Z M 162 470 L 160 472 L 162 472 L 162 470 Z M 202 470 L 200 472 L 202 472 L 202 470 Z M 205 470 L 203 472 L 206 472 L 208 472 Q 209 469 205 470 Z M 85 472 L 84 473 L 71 474 L 69 476 L 70 478 L 72 475 Q 81 474 85 476 Q 86 479 84 478 L 82 478 Q 77 477 79 481 L 77 482 L 74 481 Q 69 482 70 480 L 69 480 Q 67 486 75 483 L 76 486 L 70 485 L 70 516 L 71 517 L 71 538 L 70 539 L 71 544 L 70 546 L 73 550 L 73 548 Q 79 547 82 551 L 91 548 L 100 547 L 101 545 L 103 543 L 114 543 L 116 540 Q 114 535 118 536 L 120 536 Q 121 534 126 535 L 129 533 Q 132 534 131 531 L 129 532 Q 123 533 121 530 L 116 531 L 114 529 L 113 529 L 106 528 L 104 528 L 101 529 L 97 526 L 95 521 L 95 510 L 96 509 L 96 499 L 94 488 Q 95 484 90 486 Q 84 484 86 476 L 85 472 Z M 90 472 L 89 482 L 91 483 L 92 483 Q 89 481 90 475 Q 92 473 90 472 Z M 92 472 L 92 473 L 94 473 L 92 472 Z M 179 472 L 179 473 L 181 473 L 179 472 Z M 109 474 L 110 476 Q 111 473 109 474 Z M 131 475 Q 129 478 132 477 L 131 475 Z M 134 475 L 135 477 L 138 476 L 134 475 Z M 140 475 L 140 477 Q 139 479 142 478 L 141 477 Q 142 474 140 475 Z M 103 476 L 101 480 L 103 480 L 103 476 Z M 200 476 L 200 477 L 203 478 L 204 478 Q 203 475 200 476 Z M 224 476 L 223 478 L 227 478 L 224 476 Z M 92 477 L 92 478 L 94 478 L 92 477 Z M 155 477 L 155 478 L 158 479 L 163 478 L 155 477 Z M 207 477 L 208 479 Q 209 476 207 477 Z M 231 477 L 231 480 L 232 480 Q 233 476 231 477 Z M 248 477 Q 247 481 252 479 Q 253 475 248 477 Z M 288 477 L 288 478 L 290 478 L 288 477 Z M 71 478 L 71 479 L 76 479 L 71 478 Z M 126 478 L 124 481 L 126 481 L 126 478 Z M 154 478 L 153 482 L 153 484 L 152 486 L 154 485 L 153 487 L 155 487 L 154 478 Z M 118 479 L 117 484 L 118 484 L 118 479 Z M 212 479 L 212 482 L 214 481 L 217 482 L 221 481 L 222 484 L 212 483 L 211 490 L 212 506 L 205 512 L 203 511 L 200 514 Q 196 513 195 516 L 196 521 L 192 524 L 182 526 L 181 528 L 183 527 L 190 528 L 198 532 Q 202 531 204 533 Q 209 535 211 532 L 211 534 L 220 532 Q 228 531 231 533 L 232 527 L 232 525 L 231 520 L 231 518 L 231 486 L 232 485 L 231 481 L 230 481 L 229 480 L 215 480 L 212 479 Z M 146 480 L 145 483 L 147 482 L 149 483 L 150 480 L 148 481 L 146 480 Z M 192 480 L 192 482 L 195 481 L 192 480 Z M 259 480 L 256 482 L 259 482 L 259 480 Z M 262 480 L 263 482 L 265 481 L 262 480 Z M 93 481 L 93 483 L 95 482 L 93 481 Z M 105 481 L 106 483 Q 107 480 105 481 Z M 127 481 Q 125 484 128 483 L 127 481 Z M 249 481 L 249 482 L 255 482 L 249 481 Z M 288 481 L 290 483 Q 291 480 288 481 Z M 130 482 L 128 484 L 131 485 L 130 484 L 132 484 L 134 483 L 130 482 Z M 141 482 L 140 484 L 142 485 L 141 482 Z M 175 482 L 176 483 Q 177 485 178 483 L 175 482 Z M 202 482 L 203 484 L 207 483 L 202 482 Z M 136 483 L 134 485 L 136 485 L 136 483 Z M 170 483 L 169 486 L 171 486 L 170 483 Z M 118 485 L 118 493 L 119 493 L 118 485 Z M 289 485 L 289 487 L 288 490 L 290 490 L 290 485 L 289 485 Z M 102 486 Q 100 489 103 488 L 102 486 Z M 170 487 L 167 488 L 167 498 L 169 499 L 169 497 Q 172 496 171 499 L 170 501 L 172 500 L 170 492 L 169 492 L 168 490 L 170 490 L 170 487 Z M 181 487 L 181 488 L 185 488 L 181 487 Z M 197 487 L 197 488 L 202 489 L 203 489 Q 202 486 197 487 Z M 208 487 L 206 489 L 208 489 L 208 487 Z M 270 487 L 271 492 L 272 490 Q 273 486 270 487 Z M 126 488 L 126 490 L 128 489 L 126 488 Z M 154 488 L 153 491 L 155 492 L 154 488 Z M 157 488 L 155 494 L 160 493 L 159 492 L 157 488 Z M 106 489 L 104 492 L 105 495 L 106 492 L 106 489 Z M 108 489 L 107 491 L 110 491 L 108 489 Z M 137 489 L 138 491 L 139 491 L 137 489 Z M 140 489 L 141 491 L 142 491 L 140 489 Z M 265 489 L 263 494 L 265 494 L 266 492 L 265 489 Z M 146 490 L 145 492 L 149 492 L 146 490 Z M 126 491 L 123 495 L 126 495 L 126 491 Z M 103 492 L 102 496 L 104 496 L 103 492 Z M 199 492 L 199 493 L 208 493 L 199 492 Z M 270 492 L 268 494 Q 267 496 270 495 L 270 492 Z M 289 492 L 290 494 Q 291 491 289 492 Z M 154 493 L 153 497 L 155 496 L 154 493 Z M 106 495 L 107 497 Q 108 494 106 495 Z M 134 495 L 134 497 L 137 496 L 142 497 L 142 495 L 134 495 Z M 287 495 L 286 498 L 289 498 Q 291 499 290 496 L 287 495 Z M 111 496 L 111 497 L 113 497 L 111 496 Z M 118 496 L 118 502 L 119 502 Q 120 495 118 496 Z M 124 496 L 122 498 L 124 498 L 124 496 Z M 129 496 L 129 497 L 133 497 L 129 496 Z M 147 496 L 148 498 Q 149 495 147 496 Z M 176 496 L 176 497 L 178 497 L 176 496 Z M 196 496 L 196 497 L 199 497 L 196 496 Z M 126 497 L 124 499 Q 123 501 126 500 L 126 497 Z M 155 499 L 154 501 L 156 502 L 155 499 Z M 243 499 L 245 502 L 245 501 L 243 499 Z M 120 500 L 120 502 Q 121 504 123 502 Q 125 503 124 501 L 123 501 L 120 500 Z M 206 500 L 206 502 L 209 502 L 206 500 Z M 287 500 L 285 502 L 290 503 L 290 501 L 287 500 Z M 126 501 L 126 503 L 125 505 L 126 506 L 128 503 L 126 501 Z M 129 501 L 131 503 L 138 503 L 138 501 L 134 502 L 129 501 Z M 147 501 L 146 503 L 149 503 L 147 501 Z M 154 501 L 154 513 Q 156 512 154 511 L 155 509 L 154 501 Z M 172 501 L 170 506 L 172 509 L 172 505 L 174 505 L 172 504 L 172 501 Z M 176 501 L 176 502 L 180 502 L 176 501 Z M 200 501 L 200 502 L 202 502 L 200 501 Z M 107 502 L 107 503 L 109 503 L 107 502 Z M 169 502 L 168 507 L 169 507 L 169 502 Z M 119 503 L 118 506 L 119 506 L 119 503 Z M 123 503 Q 121 506 124 505 L 123 503 Z M 104 504 L 101 507 L 104 507 L 104 504 Z M 181 505 L 178 506 L 178 507 L 184 507 L 181 505 Z M 185 505 Q 183 507 188 506 L 187 508 L 189 508 Q 191 503 185 505 Z M 204 505 Q 202 508 205 507 L 204 505 Z M 288 505 L 288 509 L 290 510 Q 292 504 288 505 Z M 120 506 L 118 509 L 119 510 L 122 509 L 123 510 Q 124 506 120 508 L 120 506 Z M 127 506 Q 124 510 128 509 L 127 506 Z M 131 507 L 131 509 L 134 509 L 138 508 Q 139 510 140 508 L 131 507 Z M 104 508 Q 102 511 105 510 L 104 508 Z M 113 508 L 113 510 L 116 509 L 113 508 Z M 126 509 L 124 511 L 126 511 L 126 509 Z M 161 510 L 161 511 L 163 511 L 161 510 Z M 119 511 L 118 521 L 123 522 Q 126 521 123 519 L 121 520 L 119 519 L 119 511 Z M 123 511 L 121 514 L 122 516 L 123 514 L 123 511 Z M 172 511 L 170 513 Q 169 515 172 514 L 174 517 L 176 516 L 173 515 L 172 511 Z M 183 511 L 183 512 L 186 512 L 183 511 Z M 243 511 Q 242 513 246 513 Q 247 510 243 511 Z M 128 512 L 126 514 L 131 515 L 133 514 L 128 512 Z M 288 512 L 288 514 L 290 515 Q 291 511 288 512 Z M 110 513 Q 108 516 111 515 L 110 513 Z M 135 513 L 135 515 L 133 515 L 133 516 L 137 516 L 138 514 L 135 513 Z M 140 513 Q 137 517 141 516 L 140 513 Z M 144 513 L 142 516 L 144 516 L 144 513 Z M 154 513 L 154 515 L 156 514 L 154 513 Z M 113 514 L 113 515 L 116 515 L 113 514 Z M 157 514 L 157 515 L 159 515 L 157 514 Z M 160 514 L 160 516 L 162 515 L 160 514 Z M 165 514 L 163 516 L 165 516 L 165 514 Z M 170 515 L 170 518 Q 173 519 172 517 L 170 515 Z M 190 515 L 187 517 L 190 517 L 190 515 Z M 243 515 Q 242 517 245 516 L 246 517 Q 247 514 243 515 Z M 185 516 L 183 518 L 186 518 L 185 516 Z M 126 517 L 127 524 L 128 521 L 126 517 Z M 103 519 L 102 522 L 103 522 L 103 519 Z M 109 519 L 109 520 L 111 520 L 109 519 Z M 171 519 L 170 523 L 176 522 L 173 519 L 172 521 L 173 522 L 171 519 Z M 137 520 L 137 521 Q 142 520 144 522 L 144 520 L 137 520 Z M 183 521 L 183 524 L 187 523 L 183 521 Z M 177 522 L 178 523 L 179 524 Q 180 521 177 522 Z M 102 523 Q 99 527 103 526 L 102 523 Z M 119 523 L 118 528 L 120 528 L 119 523 Z M 155 523 L 155 526 Q 158 525 155 523 Z M 160 523 L 161 525 L 164 524 L 160 523 Z M 113 524 L 112 526 L 114 525 L 113 524 Z M 120 524 L 120 526 L 122 525 L 124 526 Q 125 522 120 524 Z M 145 524 L 144 526 L 137 526 L 136 525 Q 133 524 134 527 L 143 527 L 144 528 L 146 527 L 145 524 Z M 66 525 L 64 527 L 68 527 Q 69 524 66 525 Z M 121 527 L 121 529 L 123 528 L 125 529 L 133 528 L 121 527 Z M 175 527 L 175 529 L 177 528 L 175 527 Z M 151 528 L 152 535 L 154 534 L 157 533 L 160 534 L 163 534 L 163 528 L 161 529 Q 154 530 151 528 Z M 172 528 L 170 530 L 172 530 L 172 528 Z M 188 532 L 187 534 L 189 533 L 188 532 Z M 307 534 L 307 535 L 309 535 L 307 534 Z M 139 535 L 139 537 L 141 536 L 139 535 Z M 177 535 L 176 537 L 178 536 L 177 535 Z M 220 535 L 209 537 L 207 540 L 206 539 L 199 541 L 195 540 Q 187 539 184 542 L 180 541 L 181 539 L 179 540 Q 180 544 178 543 L 176 543 L 172 545 L 170 545 L 167 547 L 163 545 L 162 540 Q 161 536 157 536 L 154 539 L 153 538 L 150 539 Q 153 540 152 545 L 148 548 L 146 547 Q 141 546 140 548 L 134 545 L 105 545 L 103 549 L 102 550 L 88 551 L 84 553 L 84 557 L 88 563 L 86 563 L 81 559 L 82 555 L 80 554 L 81 556 L 80 558 L 77 550 Q 73 550 72 553 L 73 558 L 77 557 L 77 561 Q 74 560 75 563 L 77 564 L 76 564 L 74 564 L 70 559 L 67 560 L 76 570 L 79 568 L 78 570 L 84 571 L 85 569 L 83 567 Q 80 568 81 564 L 89 566 L 92 569 L 91 567 L 95 565 L 101 573 Q 100 576 103 575 L 105 575 L 108 576 L 110 576 L 121 581 L 122 581 L 113 575 Q 109 576 110 574 Q 109 571 108 573 L 102 571 L 104 567 L 102 564 L 90 561 Q 87 560 90 558 L 98 561 L 102 561 L 109 565 L 108 569 L 108 570 L 112 570 L 113 568 L 113 570 L 116 569 L 119 570 L 118 569 L 120 568 L 119 571 L 130 575 L 131 577 L 132 575 L 132 578 L 135 579 L 136 580 L 136 578 L 132 574 Q 133 571 131 572 L 131 574 L 130 574 Q 128 570 127 573 Q 124 572 126 571 L 125 569 L 127 566 L 131 567 L 133 567 L 141 572 L 142 572 L 127 563 L 129 563 L 132 561 L 138 563 L 141 566 L 142 565 L 142 567 L 146 569 Q 148 568 147 571 L 152 576 L 152 577 L 154 576 L 149 570 Q 148 567 151 568 L 152 567 L 157 572 Q 159 571 158 574 L 160 573 L 159 571 Q 158 568 163 569 L 164 573 L 175 577 L 177 576 L 179 576 Q 177 579 182 581 Q 184 580 183 583 L 187 584 Q 188 587 190 583 L 188 586 L 203 593 Q 208 595 210 592 L 214 593 L 212 589 L 197 579 L 200 577 L 207 581 L 208 579 L 207 578 L 204 578 Q 205 574 203 575 Q 201 577 200 575 L 203 574 L 200 568 L 197 566 L 198 571 L 198 570 L 199 570 L 198 572 L 195 571 L 192 567 L 192 564 Q 195 565 194 563 L 191 560 L 187 557 L 189 555 L 191 556 L 193 556 Q 192 559 195 558 L 197 563 L 199 562 L 202 563 L 198 559 L 199 556 L 201 556 Q 203 555 202 558 L 205 557 L 205 559 L 205 560 Q 207 559 206 563 L 210 565 L 211 563 L 211 566 L 214 567 L 215 565 L 215 567 L 224 564 L 225 565 L 227 564 L 226 566 L 215 571 L 205 566 L 203 567 L 208 572 L 208 574 L 218 573 Q 220 568 223 572 L 225 571 L 230 562 L 230 556 L 229 556 L 223 551 L 220 551 L 221 547 L 211 544 L 215 542 L 220 544 L 224 544 L 224 546 Q 229 545 230 550 L 229 552 L 230 554 L 231 552 L 231 540 L 230 540 L 225 539 L 224 542 L 217 540 L 215 541 Q 210 542 211 539 L 216 538 L 220 539 L 221 540 L 225 536 L 227 537 L 229 536 L 231 538 L 231 535 L 220 535 Z M 310 535 L 310 536 L 316 537 L 318 537 L 327 539 L 329 541 L 329 538 L 328 538 Q 322 533 310 535 Z M 167 536 L 166 539 L 168 539 L 167 536 Z M 170 537 Q 168 540 171 539 L 171 541 Q 174 542 172 538 L 170 537 Z M 139 538 L 138 541 L 141 543 L 140 541 L 141 539 L 139 538 Z M 306 538 L 304 540 L 311 543 L 314 542 L 320 542 L 328 545 L 329 545 L 324 541 L 306 538 Z M 63 539 L 63 541 L 68 541 L 68 539 L 63 539 Z M 142 539 L 141 541 L 144 542 L 142 539 Z M 166 539 L 167 543 L 170 542 L 166 539 Z M 331 539 L 332 542 L 331 541 L 329 542 Q 330 545 335 544 L 334 542 Q 335 537 331 539 Z M 121 540 L 122 542 Q 125 543 124 541 L 123 541 L 121 540 Z M 128 540 Q 127 544 132 542 Q 133 538 128 540 Z M 244 545 L 240 547 L 244 547 L 244 545 Z M 69 552 L 66 553 L 67 555 L 69 554 L 69 552 Z M 309 555 L 307 557 L 310 557 L 309 555 Z M 315 556 L 315 557 L 319 557 L 315 556 Z M 330 557 L 322 559 L 316 559 L 316 560 L 324 560 L 325 562 L 333 562 Q 334 564 335 562 L 334 558 L 330 557 Z M 44 558 L 46 563 L 46 566 L 42 564 L 48 575 Q 47 578 50 577 L 50 580 L 53 581 Q 56 582 56 587 L 64 593 L 66 593 L 67 590 L 65 591 L 62 587 L 63 585 L 61 584 L 61 586 L 60 585 L 60 583 Q 61 580 59 581 L 56 578 L 57 575 L 55 572 L 50 568 L 51 564 L 44 558 Z M 40 559 L 38 562 L 41 563 L 42 563 L 40 559 Z M 308 562 Q 307 564 310 563 Q 311 565 312 563 L 308 562 Z M 316 562 L 316 563 L 318 563 L 316 562 Z M 330 563 L 325 564 L 321 564 L 316 565 L 316 566 L 332 566 L 332 565 L 330 563 Z M 36 567 L 37 574 L 42 581 Q 43 584 41 585 L 34 574 L 32 572 L 29 571 L 27 571 L 27 569 L 12 569 L 10 569 L 6 570 L 7 585 L 10 581 L 13 582 L 13 580 L 17 578 L 19 580 L 16 576 L 19 574 L 22 579 L 26 578 L 36 593 Q 35 595 39 594 L 38 593 Q 37 589 41 590 L 42 594 L 55 594 L 57 593 L 52 586 L 50 584 L 48 584 Q 49 587 45 585 L 44 580 Q 42 578 45 577 L 45 574 L 44 576 L 41 575 L 39 570 L 36 567 Z M 251 567 Q 250 570 253 569 L 257 574 L 258 574 L 255 570 L 251 567 Z M 85 569 L 86 574 L 85 576 L 92 576 L 89 571 Q 86 572 87 569 L 85 569 Z M 93 569 L 95 572 L 95 571 L 93 569 Z M 128 570 L 129 572 L 130 572 L 128 570 Z M 262 570 L 260 572 L 263 574 L 262 577 L 270 580 Q 274 581 273 587 L 270 588 L 274 592 L 277 591 Q 283 593 281 588 L 279 586 L 273 580 L 273 577 L 278 578 L 278 577 L 271 572 Q 264 573 262 570 Z M 228 571 L 224 574 Q 222 577 221 575 Q 217 574 218 577 L 214 578 L 213 583 L 210 579 Q 207 578 208 582 L 216 587 L 217 587 L 216 589 L 222 593 L 224 593 L 248 592 L 250 592 L 253 593 L 255 592 L 258 593 L 268 593 L 269 592 L 261 582 L 261 580 L 260 580 L 257 579 L 258 577 Q 251 577 250 572 L 247 573 L 245 573 L 240 572 Q 235 572 235 575 L 232 575 L 230 575 L 228 571 Z M 95 572 L 95 574 L 98 575 L 97 574 Q 98 571 95 572 Z M 259 574 Q 257 577 260 576 L 259 574 Z M 144 576 L 146 579 Q 148 578 147 581 L 149 581 L 154 590 L 153 592 L 159 593 L 168 593 L 169 592 L 170 593 L 184 593 L 182 589 Q 179 590 180 588 L 179 588 L 178 587 L 173 584 Q 169 582 173 581 L 172 578 L 169 580 L 170 582 L 167 580 L 169 579 Q 170 576 167 577 L 166 578 L 163 577 Q 164 579 160 578 L 160 580 L 154 584 L 144 576 Z M 141 579 L 140 586 L 138 586 L 131 580 L 129 581 L 138 591 L 138 593 L 145 592 L 146 593 L 142 585 L 146 586 L 147 586 L 146 584 L 141 579 Z M 20 580 L 16 582 L 15 586 L 13 587 Q 11 590 10 586 Q 5 588 6 594 L 9 593 L 13 594 L 16 593 L 14 590 L 17 589 L 18 593 L 16 594 L 32 594 L 32 592 L 27 584 L 24 582 L 27 590 Q 28 593 26 592 L 23 590 L 23 587 L 20 580 Z M 123 581 L 127 585 L 128 585 L 123 581 Z M 179 582 L 185 588 Q 187 587 186 590 L 188 590 L 188 593 L 196 593 L 190 589 Q 187 590 188 587 L 186 587 L 179 582 Z M 65 586 L 66 588 L 67 588 L 65 586 Z M 68 588 L 69 591 L 68 592 L 72 593 L 72 592 L 68 588 Z M 149 588 L 148 590 L 150 591 L 149 588 Z M 117 589 L 120 593 L 122 592 Q 121 588 117 589 Z "></path><path d="M 150.5 16 L 154.5 17 L 156.5 17 Q 161.3 18.2 162.5 16 L 165.5 17 L 169.5 16 L 171.5 17 L 176 16 Q 177.7 20.1 173.5 19 L 171 19.5 L 170 28.5 L 171.5 32 L 173.5 31 L 177 32 L 175.5 35 L 163.5 34 L 162.5 35 L 151.5 35 L 149 33.5 Q 150.7 29.3 152.5 32 L 154 31.5 L 154 24.5 L 153 19 L 150.5 20 L 149 17.5 L 150.5 16 Z M 159 19 L 157 21 L 157 31 L 159 32 L 161 31 L 160 29 L 161 26 L 160 22 Q 161 18 159 19 Z M 164 19 L 164 31 L 166 32 Q 168 33 167 31 L 167 29 Q 166 24 168 23 L 167 21 Q 168 18 164 19 Z "></path><path d="M 65.5 116 L 66 121.5 L 65 121.5 L 64 119.5 L 65.5 116 Z "></path><path d="M 63.5 140 L 64 146.5 L 63 146.5 Q 64.5 142.1 61.5 143 L 61.5 142 Q 64 142.7 63.5 140 Z "></path><path d="M 62 148 L 64 148.5 L 62.5 153 L 62 148 Z "></path><path d="M 242.5 157 L 243 159.5 L 242 159.5 L 242.5 157 Z "></path><path d="M 64.5 189 L 65 191.5 L 64 191.5 L 64.5 189 Z "></path><path d="M 286.5 195 L 287 198.5 L 286 198.5 L 286.5 195 Z "></path><path d="M 63.5 240 L 64 243.5 L 63 243.5 L 63.5 240 Z "></path><path d="M 239.5 250 L 240 252.5 L 239 252.5 L 239.5 250 Z "></path><path d="M 239.5 266 L 240 268.5 L 239 268.5 L 239.5 266 Z "></path><path d="M 286 271 Q 289 270 288 273 Q 285 274 286 271 Z "></path><path d="M 284.5 373 L 285 380.5 L 284 380.5 L 284.5 373 Z "></path><path d="M 284.5 383 L 285 386.5 L 284 386.5 L 284.5 383 Z "></path><path d="M 63.5 400 L 64 403.5 L 63 403.5 L 63.5 400 Z "></path><path d="M 284 423 Q 288.6 421.8 290 424.5 Q 290.8 426.8 288.5 426 L 289 427.5 L 290 431 L 284 430 Q 282.7 426.7 287.5 428 L 285.5 425 Q 282.9 425.7 284 423 Z "></path><path d="M 238.5 442 L 240 444.5 L 238 443.5 L 238.5 442 Z "></path><path d="M 237.5 446 L 238 453.5 L 237 453.5 L 237.5 446 Z "></path><path d="M 283.5 466 L 284 470.5 L 283 470.5 L 283.5 466 Z "></path><path d="M 62.5 467 L 63.5 469 Q 60.7 469.7 62.5 467 Z "></path><path d="M 237.5 470 L 238 474.5 L 236.5 477 L 236 475.5 L 237.5 470 Z "></path><path d="M 17.5 475 L 19.5 476 L 21.5 476 L 37.5 476 L 38.5 475 L 45 476 L 44.5 478 L 25.5 478 L 22.5 479 Q 20.8 476.3 14.5 478 L 12.5 478 L 7 479 L 7.5 476 L 16.5 476 L 17.5 475 Z "></path><path d="M 49.5 475 L 55 476.5 Q 54 479 49.5 478 Q 46.5 476.5 49.5 475 Z "></path><path d="M 61 475 Q 63.7 473.9 63 476.5 L 63.5 478 L 61 477 L 61 475 Z "></path><path d="M 48.5 479 L 53 480 L 52.5 482 L 27.5 482 L 25.5 482 L 12.5 483 L 7 481.5 L 8.5 480 L 47.5 480 L 48.5 479 Z "></path><path d="M 38.5 483 L 43.5 484 L 46.5 483 L 53.5 483 L 54 485 L 49.5 486 Q 48 483.5 42.5 485 L 41.5 486 L 31 486 Q 29.9 482.5 37.5 484 L 38.5 483 Z "></path><path d="M 239.5 492 L 240 494.5 L 239 494.5 L 239.5 492 Z "></path><path d="M 316.5 495 Q 319.1 494.2 318 497.5 L 320 501.5 L 317 508 L 319.5 507 L 324 508 L 321.5 512 L 318 512.5 L 318.5 514 Q 313.1 515.9 314 512.5 L 311.5 511 L 308 512 L 305 506 Q 309.5 507.8 308 502.5 L 310 498 L 312.5 497 L 315 498 L 316.5 495 Z M 314 500 L 311 504 Q 310 508 313 507 L 316 503 Q 317 499 314 500 Z M 315 511 L 315 512 L 317 512 L 315 511 Z "></path><path d="M 238.5 499 L 239 500.5 L 238 502.5 L 238.5 504 L 237 501.5 L 238.5 499 Z "></path><path d="M 293 500 L 304.5 500 L 306 501.5 L 305.5 503 L 303.5 502 L 301.5 502 L 298.5 503 L 293 502 L 293 500 Z "></path><path d="M 259 501 L 265.5 501 L 266 503 Q 261.4 501.8 260 504.5 Q 260.8 507.1 257.5 506 L 254 507 Q 252.2 501.8 259.5 504 L 259 502.5 L 259 501 Z "></path><path d="M 321 502 L 329 503.5 L 321 504 L 321 502 Z "></path><path d="M 269 504 L 275 504 L 275 506 L 269 506 L 269 504 Z "></path><path d="M 296.5 504 L 305 504.5 Q 303.5 507.5 297.5 506 L 296.5 504 Z "></path><path d="M 263 507 L 268.5 508 L 270 507.5 L 269.5 510 L 263 509 L 263 507 Z "></path><path d="M 281 509 Q 284.7 507.6 283 513.5 L 282 513.5 L 281 509 Z "></path><path d="M 33.5 512 L 35 512 L 35 516 Q 38 514.8 37 518.5 L 35 523.5 Q 36.4 526.3 41 525 Q 39.9 527.7 42.5 527 L 44.5 527 L 47 528.5 Q 47.9 531.5 43.5 530 L 38.5 529 L 36.5 530 L 33 529 L 32.5 526 L 28.5 527 L 25 524.5 Q 24.3 522.3 26.5 523 L 28 523.5 L 29 517.5 L 30.5 516 Q 33.1 516.8 32 513.5 L 33.5 512 Z M 32 518 L 31 521 L 32 524 L 34 521 Q 35 517 32 518 Z "></path><path d="M 300 512 L 302 512.5 L 300 513.5 L 300 512 Z "></path><path d="M 283 517 L 289 518 Q 290.3 521.3 285.5 520 L 283 519 L 283 517 Z "></path><path d="M 308.5 517 Q 315.4 515 314 519 L 308.5 518 L 308.5 517 Z "></path><path d="M 236.5 519 L 236.5 522 Q 233.5 520.5 236.5 519 Z "></path><path d="M 283.5 520 Q 284.8 523 289 522 Q 290.3 525.3 285.5 524 L 282 521.5 L 283.5 520 Z "></path><path d="M 79.5 521 L 81 524.5 L 78.5 523 L 76 524.5 L 76.5 522 Q 78 524.5 79.5 521 Z "></path><path d="M 47 525 Q 50.8 524 52 526.5 L 51.5 528 Q 53.8 527.3 53 529.5 L 51 530.5 Q 52.3 526.8 48.5 528 L 47 525 Z "></path><path d="M 80.5 526 L 81 529.5 L 79.5 533 Q 75.8 532.3 75 534.5 L 73.5 537 L 73 534.5 L 72 530.5 L 74 529.5 L 74.5 531 L 76.5 530 L 78.5 530 L 80 529.5 L 80 527.5 L 80.5 526 Z "></path><path d="M 235 532 Q 239.5 530.5 238 535 Q 233.5 536.5 235 532 Z "></path><path d="M 50 533 L 52 533.5 L 50.5 538 Q 47.8 536.8 50 535.5 L 50 533 Z "></path><path d="M 265.5 533 L 266 535.5 L 265 535.5 L 265.5 533 Z "></path><path d="M 78.5 534 L 89.5 536 L 105.5 536 L 108.5 535 L 109.5 537 L 106.5 538 L 104.5 538 L 101.5 537 L 100.5 538 L 91.5 538 L 90.5 537 L 78.5 537 L 77 535.5 L 78.5 534 Z "></path><path d="M 283.5 536 L 289 540.5 Q 289.8 542.8 287.5 542 L 283 537.5 L 283.5 536 Z "></path><path d="M 289 536 L 293 537.5 Q 294.3 541.3 290.5 540 L 289 536 Z "></path><path d="M 75 538 L 84 539 Q 85.1 541.7 82.5 541 Q 81.3 538.8 76.5 540 L 75 540.5 L 75 538 Z "></path><path d="M 112.5 538 Q 115.1 537.3 114 540 L 111 539.5 L 112.5 538 Z "></path><path d="M 92.5 539 Q 96.3 538.3 97 540.5 L 91.5 541 L 92.5 539 Z "></path><path d="M 235 540 Q 238.3 538.9 237 543 Q 233.7 544.1 235 540 Z "></path><path d="M 235.5 545 L 237 548.5 L 234 550 L 235.5 545 Z "></path><path d="M 180.5 546 L 180 547.5 L 179.5 550 L 179 547.5 L 180.5 546 Z "></path><path d="M 159.5 548 Q 162.8 546.9 162 549.5 Q 163.3 552.3 164.5 550 L 167.5 551 L 169 550.5 L 169.5 552 L 170.5 550 L 171 553 L 174 551.5 L 174.5 550 L 175 551.5 L 174.5 553 L 177.5 552 L 178 555 L 184 556 L 184.5 554 L 185 555.5 L 184 558 Q 186.7 556.9 186 559.5 L 191 565.5 L 191 569.5 L 187.5 572 L 185 570.5 L 184 574 Q 190.9 574.3 195 578.5 L 198.5 583 Q 200 580.5 201.5 584 L 208 588.5 L 207 591 L 203 591 L 203 589.5 L 202 587 L 191 581.5 L 189.5 578 L 177 574 L 176 570.5 L 179 568.5 L 178 566 L 182.5 565 L 186 566 L 180.5 559 L 165.5 554 L 161.5 554 L 158 551.5 L 159.5 548 Z M 174 579 L 177 582 L 178 582 Q 178 578 174 579 Z "></path><path d="M 264.5 548 L 263.5 550 L 264.5 548 Z "></path><path d="M 288.5 550 L 287.5 552 L 288.5 550 Z "></path><path d="M 181.5 551 L 181 552.5 Q 181.8 554.8 179.5 554 L 181.5 551 Z "></path><path d="M 216.5 551 L 217.5 553 L 215.5 554 L 216 552.5 L 216.5 551 Z "></path><path d="M 197.5 552 L 198 554.5 L 197 554.5 L 197.5 552 Z "></path><path d="M 204.5 552 L 206 555.5 L 205 555.5 Q 205.8 553.3 203.5 554 L 204.5 552 Z "></path><path d="M 221.5 552 L 221 553.5 L 222 555.5 L 220.5 555 L 219 554.5 L 221.5 552 Z "></path><path d="M 234 552 L 237 553.5 L 234 555 L 234 552 Z "></path><path d="M 343.5 553 L 344 557.5 L 343 557.5 L 343.5 553 Z "></path><path d="M 212.5 554 L 215 555.5 L 213.5 556 L 212.5 554 Z "></path><path d="M 209 559 L 211 559.5 L 209 560.5 L 209 559 Z "></path><path d="M 213.5 559 L 214.5 561 L 213.5 559 Z "></path><path d="M 220.5 559 L 219.5 561 L 220.5 559 Z "></path><path d="M 111.5 560 L 117.5 561 L 119 560.5 L 118.5 562 L 124.5 563 L 124.5 562 L 123 561.5 L 124.5 561 Q 127.3 562.3 125 563.5 L 123.5 567 L 113.5 563 L 110 563 L 111.5 560 Z "></path><path d="M 258 560 Q 262.2 559.2 263.5 563 L 271.5 563 L 275.5 566 Q 278.5 564.5 275.5 563 L 272 561.5 L 277.5 561 L 283 564 Q 284.1 566.7 281.5 566 L 284 569.5 Q 283.3 571.8 285.5 571 L 295.5 583 L 299 585.5 L 300 587.5 L 296 589 Q 297.5 585.2 294.5 586 L 290 580 Q 287.3 581.1 288 578.5 L 278.5 569 L 273.5 567 L 271.5 568 Q 268.2 564.2 260 566 L 258 560 Z M 278 565 L 278 566 L 280 566 L 278 565 Z M 263 581 Q 262 583 266 582 L 267 583 Q 268 579 263 581 Z "></path><path d="M 216 562 Q 219 561 218 564 Q 215 565 216 562 Z "></path><path d="M 340.5 563 L 343 563.5 L 340.5 564 L 340.5 563 Z "></path><path d="M 49.5 564 L 49 565.5 L 47.5 569 L 47 566.5 L 49.5 564 Z "></path><path d="M 285 566 L 290.5 567 L 295 571.5 L 297 574.5 L 306 586 Q 309 584.8 308 588.5 Q 306.5 591.5 305 588.5 L 303 584 L 298.5 581 L 297 581.5 L 297 579.5 L 289.5 570 L 285 569 L 285 566 Z "></path><path d="M 319.5 571 Q 321.8 570.3 321 572.5 L 322 575 L 318 573.5 L 319.5 571 Z "></path><path d="M 52 572 L 54 572.5 L 52 574.5 L 53.5 577 Q 49.2 575.3 52 573.5 L 52 572 Z "></path><path d="M 68.5 576 L 69 577.5 L 67.5 580 L 67 578.5 L 68.5 576 Z "></path><path d="M 163.5 580 L 167 582.5 L 165.5 583 L 163 582 L 163.5 580 Z "></path><path d="M 222.5 581 L 223 582.5 L 221 583.5 L 222.5 581 Z "></path><path d="M 218.5 583 L 217.5 585 L 218.5 583 Z "></path><path d="M 17 584 L 21 585.5 L 22 592.5 L 19 590.5 L 17 584 Z "></path><path d="M 163.5 584 Q 166.1 583.3 165 586 L 167 586 L 167 588 Q 164.3 589.1 165 586.5 L 163.5 584 Z "></path><path d="M 225.5 584 L 225 585.5 L 223.5 588 L 224 586.5 L 225.5 584 Z "></path><path d="M 173.5 585 L 174 586.5 L 171.5 590 L 172 588.5 L 173.5 585 Z "></path><path d="M 45 586 Q 48.8 585 50 587.5 L 51 590.5 Q 49 595 47 591.5 L 45 586 Z "></path><path d="M 327.5 586 L 328 587.5 L 326 588.5 L 327.5 586 Z "></path><path d="M 158.5 588 L 157.5 590 L 158.5 588 Z "></path><path d="M 175 588 L 177 588.5 L 174 590.5 L 175 588 Z "></path><path d="M 340.5 589 L 341 591.5 L 340 591.5 L 340.5 589 Z "></path><path d="M 344 590 Q 346.7 588.9 346 591.5 L 344 592.5 L 344 590 Z "></path></svg>