<svg width="350" height="600" version="1.1" xmlns="http://www.w3.org/2000/svg" desc="Created with imagetracer.js version 1.2.5"><path d="M 319.5 5 L 330.5 7 L 332.5 7 L 338 7 L 338 15.5 L 338 17.5 L 339 63.5 L 338 64.5 L 338 78.5 L 339 79.5 L 339 176.5 Q 336.7 177.8 338 182.5 L 339 183.5 L 339 294.5 L 340 296.5 L 339 297.5 L 339 370.5 L 340 372.5 L 339 373.5 L 339 430.5 L 340 433.5 L 339 438.5 L 339 440.5 L 339 515.5 L 338 516.5 L 338 531.5 L 339 532.5 L 339 593 L 334.5 594 L 332.5 593 L 331.5 594 L 264.5 594 L 262.5 595 L 257.5 594 L 255.5 595 L 253.5 594 L 252.5 595 L 237.5 595 L 235.5 594 L 230.5 595 L 228.5 594 L 225.5 595 L 224.5 594 L 167.5 594 L 165.5 595 L 164.5 594 L 120.5 594 L 118.5 594 L 114.5 595 L 111.5 594 L 90.5 596 L 88.5 596 L 31.5 596 L 30.5 595 L 16.5 595 L 14.5 595 L 6.5 596 L 4 595 L 4 522.5 Q 1.5 521 3 515.5 L 4 513.5 Q 1.3 511.8 3 505.5 L 4 503.5 L 3 502.5 L 3 460.5 Q 5.5 459 4 453.5 L 3 450.5 L 4 449.5 L 4 436.5 L 3 434.5 L 4 433.5 L 4 190.5 Q 6.3 189.3 5 184.5 L 5 182.5 L 4 178.5 L 5 175.5 L 4 174.5 L 4 157.5 L 5 155.5 L 4 153.5 L 5 152.5 L 5 142.5 L 4 141.5 L 4 120.5 L 5 119.5 L 5 108.5 L 5 106.5 L 4 104.5 L 5 103.5 L 5 71.5 L 4 68.5 L 5 67.5 L 5 11.5 L 6 7 L 60.5 7 Q 61.7 9.2 66.5 8 L 67.5 7 L 120.5 7 Q 121.8 9.2 126.5 8 L 128.5 8 L 131.5 7 L 134.5 8 Q 136.3 5.3 142.5 7 Q 143.8 9.2 148.5 8 L 151.5 7 L 171.5 7 L 173.5 6 L 175.5 6 L 245.5 6 L 247.5 7 L 250.5 6 L 251.5 7 L 291.5 7 L 292.5 6 L 318.5 6 L 319.5 5 Z M 164 9 L 159 11 L 157 10 Q 149 13 137 11 L 135 11 L 131 10 L 128 11 L 118 11 L 117 10 L 67 10 L 66 11 L 64 10 L 10 10 L 10 19 L 9 20 L 9 92 L 8 93 L 8 136 L 9 137 L 8 138 L 8 203 L 8 205 L 7 208 L 8 210 L 8 237 L 7 238 L 7 282 L 8 283 L 7 288 L 7 309 L 8 310 L 8 323 L 7 324 L 7 349 L 8 350 L 7 351 L 7 457 L 18 454 Q 22 455 21 453 L 26 448 L 28 448 Q 28 441 32 437 L 33 430 L 35 429 L 34 437 L 29 450 Q 28 452 27 450 L 23 455 L 22 456 L 17 456 L 7 459 L 6 465 L 7 496 Q 10 497 9 493 L 11 493 L 10 491 L 15 484 L 13 482 L 10 479 L 17 475 Q 16 470 21 469 L 23 470 L 24 473 Q 31 471 33 475 L 33 472 L 29 470 L 31 467 L 33 470 L 34 468 L 38 466 Q 41 465 38 463 L 35 465 L 34 464 L 36 462 L 42 462 L 41 466 L 42 468 L 41 473 Q 44 474 46 471 L 47 471 L 47 464 L 47 462 L 48 460 L 48 446 L 47 445 Q 46 439 48 438 L 47 433 L 48 431 L 47 420 Q 44 419 45 423 L 43 422 Q 44 419 42 420 Q 39 421 41 423 L 40 425 L 38 420 Q 39 415 35 417 L 34 424 L 35 427 L 33 426 Q 32 421 34 420 L 33 417 Q 29 414 34 412 Q 33 409 36 410 L 39 405 Q 41 406 40 403 Q 38 401 41 400 L 41 405 L 46 407 L 47 403 L 46 400 L 46 389 L 47 388 L 46 386 L 46 349 L 46 347 L 46 282 L 47 281 L 47 268 L 47 266 L 48 264 L 47 261 L 48 259 L 47 255 L 48 253 L 47 248 L 47 196 L 47 194 L 47 161 L 48 160 L 46 155 L 47 153 L 47 142 L 46 141 Q 49 139 47 134 L 47 132 L 48 130 L 48 128 L 44 131 Q 38 130 36 132 L 42 144 Q 43 154 37 158 L 40 163 L 39 168 L 36 169 L 33 174 Q 34 177 31 176 L 33 171 L 34 161 L 30 160 L 31 157 Q 30 153 34 154 L 37 149 L 37 147 L 36 142 L 29 134 L 29 130 L 34 126 L 43 125 L 44 124 L 45 117 L 37 119 L 30 111 L 31 105 L 35 103 L 42 102 L 44 107 L 47 109 L 46 105 L 47 100 L 45 92 L 47 85 L 46 83 L 48 74 L 53 73 L 52 66 L 48 68 Q 43 68 41 65 L 50 60 L 52 61 L 53 58 L 50 54 Q 49 47 54 46 L 57 53 L 54 59 L 54 62 L 60 57 Q 62 59 61 65 L 58 66 L 60 70 L 58 73 L 60 73 L 64 81 L 62 87 L 63 100 L 68 93 Q 75 94 78 99 L 78 102 L 74 108 L 69 110 Q 68 113 71 112 L 72 115 L 70 119 L 71 121 L 75 124 L 74 121 L 75 119 L 80 115 L 83 121 Q 84 124 88 123 L 90 116 L 88 113 L 88 109 L 96 100 Q 95 97 94 99 Q 89 100 88 97 L 92 92 L 96 93 Q 98 94 97 92 L 97 90 L 94 87 L 96 83 Q 95 80 99 81 Q 102 82 101 88 L 98 89 L 100 92 L 102 89 Q 106 88 107 92 L 104 96 L 106 111 L 106 113 L 105 118 Q 108 123 106 133 L 108 135 L 108 127 L 113 125 L 115 124 L 115 133 L 114 134 Q 110 133 111 136 Q 114 134 120 135 L 121 139 L 113 142 Q 119 141 121 145 L 125 144 Q 130 143 132 147 L 140 143 L 138 147 L 138 150 L 144 152 L 145 148 L 152 147 L 154 152 L 154 145 L 157 147 L 156 149 Q 154 154 160 152 L 161 155 L 164 153 L 165 159 L 168 157 Q 170 158 169 156 L 177 152 L 179 153 L 182 152 L 184 152 L 189 156 L 194 155 L 203 157 L 204 158 Q 203 154 207 156 L 206 154 L 209 152 L 210 155 L 212 154 Q 216 153 218 155 L 219 155 L 218 153 L 221 152 L 216 145 Q 215 139 218 138 L 223 140 L 224 145 L 225 142 L 228 141 L 230 142 L 231 142 L 231 146 L 238 146 L 239 147 Q 241 148 240 144 L 238 145 L 236 143 L 235 145 L 232 144 L 232 142 L 238 142 L 239 139 L 239 136 L 236 138 L 232 137 Q 229 136 230 133 L 233 131 L 231 129 Q 230 123 232 121 L 236 122 L 239 129 L 241 127 L 241 115 Q 237 113 241 111 L 239 108 L 240 106 L 245 102 L 237 101 L 234 99 L 235 95 L 240 93 Q 242 92 241 95 Q 242 98 246 97 L 243 91 L 244 87 L 249 83 Q 252 85 251 92 L 254 90 L 257 88 Q 258 86 259 89 L 258 95 L 257 97 L 260 96 L 260 100 L 256 103 Q 258 104 257 109 L 257 111 L 256 115 L 256 117 L 256 139 L 257 140 Q 255 141 256 147 L 258 148 L 257 146 L 258 142 Q 261 138 266 139 L 264 134 Q 262 128 266 129 L 269 123 L 273 121 L 275 135 L 278 134 L 285 136 L 284 134 L 285 131 Q 286 127 282 129 L 285 125 Q 284 122 281 123 L 276 118 L 278 109 L 282 105 L 286 106 L 288 95 L 287 91 L 288 87 L 288 85 Q 287 82 291 83 L 291 81 L 288 82 L 285 81 Q 281 79 286 77 Q 288 78 287 75 Q 282 75 280 72 L 282 69 L 292 71 L 293 69 L 291 68 L 288 65 L 290 61 Q 288 55 292 56 L 295 61 L 296 66 L 294 69 L 304 65 L 303 71 Q 302 73 297 72 Q 295 70 294 73 L 297 74 L 296 77 L 297 78 L 300 76 L 301 79 L 304 80 Q 307 82 306 89 Q 302 90 305 92 Q 306 95 302 93 L 303 96 L 302 98 L 303 102 Q 305 108 302 110 L 303 118 Q 301 119 304 120 L 305 119 Q 304 114 306 113 L 305 111 L 309 106 L 312 107 L 308 108 L 307 111 L 308 116 L 310 110 L 313 109 L 318 109 L 318 112 L 320 111 L 319 109 L 316 107 L 314 108 Q 313 105 320 106 L 323 113 L 323 120 L 320 123 Q 313 123 311 127 L 316 127 L 317 127 Q 318 131 315 132 L 318 132 L 322 138 L 322 140 L 319 142 Q 318 146 321 148 L 324 149 L 327 155 Q 328 158 324 156 Q 323 159 326 161 L 326 165 L 324 170 Q 321 171 326 173 Q 328 172 327 175 Q 325 179 324 176 L 322 177 L 318 176 L 320 168 Q 321 161 319 162 Q 316 161 317 158 L 321 155 L 319 150 L 313 149 L 314 154 L 306 157 Q 305 160 311 158 Q 315 161 314 170 L 310 173 L 307 167 L 302 168 L 302 187 L 301 188 L 302 191 L 302 193 L 303 196 L 306 195 L 307 197 L 307 194 L 304 193 L 304 190 L 307 184 L 311 185 L 313 189 L 310 194 L 311 196 L 313 195 L 314 200 L 310 203 L 307 202 L 308 205 L 307 210 Q 309 208 311 212 L 310 215 L 308 214 L 306 211 L 302 214 L 302 238 L 303 239 L 302 241 L 304 247 L 303 257 L 301 259 L 302 271 L 304 278 Q 305 284 302 287 Q 305 295 303 309 L 303 311 L 304 316 L 304 337 L 306 336 Q 310 335 312 337 L 318 336 Q 321 337 320 341 L 324 342 L 323 341 L 324 339 Q 326 335 331 336 L 333 343 L 330 341 Q 331 336 326 338 L 325 343 Q 324 345 321 344 L 318 341 L 318 338 L 307 338 L 305 338 L 303 343 L 303 368 L 303 370 L 303 378 L 302 379 L 303 380 L 303 407 L 303 409 L 302 412 L 303 415 L 302 418 L 303 420 L 302 422 L 303 423 L 303 436 L 305 437 Q 309 438 311 436 L 315 438 L 315 434 L 319 433 L 321 427 Q 320 423 324 424 L 326 428 L 330 427 Q 329 423 333 424 L 334 427 L 336 426 L 336 230 L 335 229 L 336 227 L 335 222 L 336 220 Q 337 215 335 214 L 336 212 Q 337 207 335 206 L 335 181 L 336 180 L 335 177 L 335 168 L 336 167 L 336 151 L 335 150 L 335 134 L 336 133 L 335 131 L 335 96 L 336 95 L 336 86 L 335 85 L 335 10 L 318 10 L 317 9 L 300 10 L 299 11 L 289 10 L 287 10 L 283 11 L 281 11 L 223 10 L 222 9 L 220 10 L 217 9 L 207 9 L 206 10 L 182 9 L 180 9 L 177 10 L 175 9 L 173 10 L 164 9 Z M 54 52 L 53 55 L 54 55 L 54 52 Z M 57 61 L 58 65 L 59 62 L 57 61 Z M 47 62 L 44 65 L 47 66 L 50 65 Q 51 60 47 62 Z M 293 62 L 291 64 Q 290 67 293 66 L 293 62 Z M 55 66 L 55 69 L 57 68 Q 58 65 55 66 Z M 298 69 L 298 71 L 300 70 L 298 69 Z M 284 71 Q 284 74 288 74 Q 291 75 290 72 L 284 71 Z M 50 75 L 52 81 L 51 83 L 50 81 L 49 85 L 52 85 L 53 83 L 52 79 L 54 78 L 55 86 Q 53 87 56 88 L 56 85 L 60 87 L 61 87 L 60 83 L 58 84 Q 54 85 56 80 L 56 78 L 57 76 L 57 78 Q 62 80 60 75 L 55 75 L 55 77 L 50 75 Z M 288 78 L 287 80 L 292 79 L 288 78 Z M 58 79 L 57 81 L 60 82 Q 62 83 61 80 L 58 79 Z M 298 79 L 297 80 Q 294 79 295 82 L 291 83 L 290 87 Q 293 88 295 85 Q 297 86 296 84 L 298 83 L 297 88 L 300 89 L 301 87 L 303 88 Q 305 87 304 84 L 298 79 Z M 98 83 L 97 87 L 98 87 L 98 83 Z M 297 85 L 295 88 L 292 89 L 290 91 Q 291 95 289 97 L 290 100 Q 289 103 292 102 L 293 104 Q 295 103 293 102 L 294 94 L 297 94 Q 296 98 299 97 L 298 93 L 300 93 L 297 91 L 297 93 L 296 92 L 296 90 L 297 87 L 297 85 Z M 248 86 L 246 89 Q 244 94 248 93 L 248 86 Z M 58 88 Q 57 91 60 90 Q 61 87 58 88 Z M 54 89 Q 53 92 56 91 Q 57 88 54 89 Z M 57 91 L 54 94 Q 53 99 55 101 L 54 104 Q 58 105 59 103 L 59 101 L 56 102 L 57 100 L 56 98 L 57 93 L 57 91 Z M 102 91 Q 101 94 104 93 Q 105 90 102 91 Z M 58 92 L 58 100 L 60 101 L 60 93 L 58 92 Z M 254 92 L 253 95 L 255 95 L 256 93 L 254 92 Z M 92 94 L 90 96 Q 93 101 95 96 L 92 94 Z M 48 95 Q 47 98 50 97 Q 51 94 48 95 Z M 69 95 L 67 97 Q 72 97 75 100 L 75 99 Q 73 95 69 95 Z M 238 95 L 237 98 Q 238 100 242 99 L 240 97 Q 241 94 238 95 Z M 51 98 L 49 100 L 53 100 Q 54 97 51 98 Z M 299 99 L 298 101 L 301 101 L 299 99 Z M 71 100 L 67 105 L 68 106 L 71 102 L 71 100 Z M 247 100 L 248 102 Q 249 99 247 100 Z M 53 101 L 49 102 L 50 105 L 53 104 L 53 101 Z M 73 101 L 72 104 L 73 105 L 75 102 L 73 101 Z M 98 101 L 96 103 L 97 106 L 91 107 L 90 111 L 92 115 Q 93 119 91 121 L 91 132 L 92 133 L 92 153 L 91 154 L 92 156 L 92 170 L 91 171 L 94 186 L 96 173 L 94 172 L 96 171 L 98 159 L 93 159 L 95 158 L 94 156 L 95 153 L 98 151 L 99 154 L 99 152 L 102 154 Q 103 156 100 155 L 99 160 Q 104 161 102 169 L 100 168 Q 97 169 99 171 L 96 185 L 98 191 Q 96 192 99 193 L 101 192 L 105 193 L 105 186 L 104 185 L 104 183 L 99 183 L 99 181 L 101 181 L 99 180 L 99 179 L 105 181 L 103 170 L 103 156 L 104 155 L 103 153 L 103 151 Q 104 147 101 148 L 101 145 L 104 146 L 104 141 L 100 139 Q 99 135 104 137 L 104 135 L 103 135 Q 100 136 101 133 L 99 134 L 97 133 L 96 137 L 99 139 Q 100 143 97 144 L 94 143 L 93 141 Q 92 136 95 136 L 94 133 L 95 130 L 95 128 L 94 126 L 95 124 L 94 122 L 97 117 L 96 119 Q 95 121 99 120 L 98 115 L 101 113 L 100 111 Q 101 108 103 110 L 103 109 L 100 108 L 103 106 L 102 104 Q 102 101 98 101 Z M 246 103 L 242 108 L 246 110 L 247 107 L 246 103 Z M 250 103 L 251 107 L 255 107 L 255 106 Q 254 102 250 103 Z M 290 103 L 288 105 Q 290 110 287 112 L 288 115 L 288 117 L 290 122 Q 291 118 298 119 L 298 117 Q 294 118 295 116 L 294 116 Q 295 118 292 117 L 292 116 L 290 113 L 294 105 L 293 105 L 290 103 Z M 62 104 L 58 108 L 60 108 L 61 110 L 62 106 L 62 104 Z M 297 104 L 296 107 L 300 107 Q 302 103 297 104 Z M 35 105 L 33 107 L 34 109 L 38 106 L 35 105 Z M 53 105 L 51 107 L 54 108 L 56 108 L 56 107 L 53 105 Z M 249 105 L 248 107 L 251 108 L 249 105 Z M 71 106 L 69 108 L 71 108 L 71 106 Z M 281 107 L 282 111 L 283 109 Q 284 106 281 107 Z M 65 108 L 66 110 L 68 109 L 65 108 Z M 298 108 Q 295 109 296 113 L 298 112 L 298 108 Z M 37 109 L 37 111 L 39 112 Q 40 108 37 109 Z M 252 109 L 252 110 L 254 110 L 252 109 Z M 284 109 L 282 112 L 284 112 L 284 109 Z M 53 110 L 50 111 L 49 113 L 56 111 L 53 110 Z M 248 110 L 247 111 Q 241 109 242 113 L 245 114 L 248 113 L 248 110 Z M 59 111 L 60 112 L 61 113 Q 62 110 59 111 Z M 313 111 L 311 118 L 315 117 Q 317 116 316 113 L 313 111 Z M 251 112 L 252 113 L 254 116 L 254 114 L 251 112 Z M 280 112 L 279 114 L 279 115 L 281 115 L 280 112 Z M 62 113 L 62 115 L 64 114 L 62 113 Z M 68 113 L 69 115 Q 70 112 68 113 Z M 52 114 L 50 117 Q 54 118 55 116 Q 56 112 52 114 Z M 283 114 L 283 117 L 285 118 Q 286 113 283 114 Z M 318 114 L 318 117 L 314 118 L 310 121 Q 311 118 308 119 L 310 123 L 318 119 L 321 115 L 318 114 Z M 245 115 Q 242 116 243 122 L 243 124 Q 242 126 245 125 Q 247 124 245 123 Q 245 118 248 118 L 248 115 L 247 117 L 244 119 L 246 116 L 245 115 Z M 252 116 Q 249 123 254 121 Q 255 117 252 116 Z M 279 117 L 279 119 L 281 118 L 279 117 Z M 50 118 L 48 120 L 49 121 L 50 120 L 58 120 L 50 118 Z M 78 118 L 79 126 L 80 126 L 80 119 L 78 118 Z M 100 118 L 100 120 L 103 122 Q 105 116 100 118 Z M 67 119 L 68 121 Q 69 118 67 119 Z M 247 119 L 247 122 L 247 124 Q 246 126 249 125 L 249 119 L 247 119 Z M 317 120 L 317 121 L 320 121 L 317 120 Z M 297 121 L 294 123 L 297 123 L 297 121 Z M 300 121 L 301 123 Q 302 120 300 121 Z M 47 122 L 46 127 L 47 127 L 47 122 Z M 50 122 L 48 124 L 50 128 L 49 130 L 50 155 L 50 157 L 49 159 L 49 173 L 48 174 L 49 176 L 49 190 L 50 191 L 49 194 L 49 196 L 50 198 L 49 200 L 49 215 L 48 216 L 49 218 L 49 230 L 49 232 L 49 244 L 50 245 Q 51 252 49 255 L 54 254 L 54 257 L 54 267 L 53 261 L 51 261 L 53 260 Q 55 254 50 256 L 49 276 L 48 277 L 48 301 L 52 302 L 48 302 L 48 312 L 47 313 L 48 315 L 48 328 L 49 329 L 48 332 L 48 334 L 49 338 L 48 339 L 48 397 L 48 399 L 48 408 L 49 409 L 49 438 L 50 439 L 49 443 L 50 445 L 49 447 Q 51 448 50 453 L 50 455 L 50 463 L 49 464 L 50 468 Q 51 472 49 474 L 50 475 L 50 516 L 51 517 Q 52 521 50 523 L 51 526 L 51 528 L 51 543 L 52 544 L 51 546 L 52 548 L 51 554 L 57 555 L 56 553 L 57 549 L 55 549 L 57 548 L 54 543 L 56 544 L 56 542 L 56 540 L 61 542 L 58 542 Q 57 545 61 544 L 61 546 L 57 547 L 59 550 Q 58 552 61 551 L 60 553 L 62 555 L 62 551 L 61 548 L 62 548 L 62 539 L 62 537 Q 63 533 61 534 L 56 536 L 57 531 L 56 528 L 59 527 L 61 528 L 60 531 Q 56 530 57 533 L 60 532 L 62 533 L 62 519 L 56 519 L 56 522 L 55 522 L 56 519 L 54 516 L 55 513 L 55 516 L 59 517 Q 64 519 62 514 L 59 515 L 57 513 Q 58 510 62 511 Q 63 508 59 509 L 59 506 Q 63 508 62 504 L 61 504 L 56 501 Q 53 502 54 499 L 58 499 L 55 497 L 56 495 Q 58 496 57 494 L 56 494 Q 51 495 53 491 Q 58 492 59 490 Q 60 486 58 487 L 56 486 L 56 479 Q 53 480 55 482 L 55 483 L 54 482 L 53 482 Q 52 485 55 484 L 55 486 L 51 485 L 54 478 L 52 478 L 55 477 L 59 479 Q 62 480 63 478 L 62 475 L 60 476 L 58 476 Q 55 475 56 471 Q 57 468 61 469 L 62 470 L 62 468 L 56 468 Q 55 465 58 466 L 58 461 Q 62 463 61 459 L 60 459 L 55 457 Q 54 454 57 455 L 56 453 L 58 450 L 56 449 L 55 451 L 54 451 L 55 449 L 54 448 L 54 447 L 56 448 L 57 442 L 61 441 L 60 439 L 58 440 Q 59 442 56 441 L 54 437 L 57 436 Q 62 438 61 434 Q 56 435 55 433 L 57 432 Q 58 429 55 428 L 57 423 L 55 419 L 56 416 L 56 414 Q 55 411 59 412 L 60 413 L 60 410 L 55 410 L 55 407 L 58 408 Q 62 409 60 405 L 57 406 L 56 393 L 55 400 L 53 396 Q 56 394 54 389 L 53 389 L 51 386 L 55 388 L 57 387 L 56 385 L 56 383 Q 55 377 57 376 L 53 368 L 55 365 L 56 369 L 57 364 Q 56 360 52 361 L 52 360 Q 58 358 60 361 L 60 358 L 61 356 L 57 357 Q 54 358 55 354 L 58 354 L 55 352 L 54 346 L 56 343 L 56 345 L 59 345 L 61 345 L 61 340 L 57 341 L 56 337 L 61 338 Q 62 334 57 336 Q 56 333 59 334 L 61 334 L 61 331 L 60 331 L 56 330 Q 57 327 61 328 Q 62 324 57 326 Q 56 322 61 324 L 61 320 L 57 321 L 55 319 Q 56 316 58 318 Q 63 320 61 314 L 60 314 L 59 313 L 55 311 L 57 308 L 59 309 L 61 311 L 61 304 L 59 303 L 60 307 L 58 306 L 54 307 L 56 304 Q 58 305 57 302 L 54 302 L 58 297 L 58 291 L 56 292 L 53 291 L 54 286 L 53 283 L 54 281 L 54 283 L 54 285 L 56 285 L 58 285 L 61 286 L 61 280 L 60 283 L 58 284 Q 56 279 60 280 Q 62 279 61 276 L 60 273 Q 61 270 58 271 L 56 272 L 57 270 L 56 268 L 57 258 L 59 259 L 60 260 Q 61 255 56 257 Q 55 253 60 255 L 60 251 L 59 253 L 57 254 L 55 252 L 57 252 Q 59 253 58 251 L 58 249 Q 57 245 60 246 L 60 241 L 59 243 L 57 242 L 54 243 L 55 241 L 54 239 L 55 237 L 56 240 Q 55 242 59 241 L 58 239 L 59 237 L 53 234 Q 52 226 55 223 L 54 223 L 50 223 L 51 221 L 52 221 Q 51 223 54 222 L 55 220 L 56 222 L 59 221 L 59 219 L 57 220 L 55 217 L 59 218 L 59 209 L 54 210 L 55 208 L 55 200 L 53 199 L 53 198 Q 57 199 56 197 L 56 195 L 57 193 L 55 193 Q 54 189 57 190 L 57 184 L 56 183 L 54 180 L 57 181 L 59 180 L 58 186 L 59 189 L 60 187 L 60 177 L 61 176 L 60 173 L 59 175 L 56 174 Q 55 178 59 176 L 59 178 L 53 178 L 55 175 Q 56 172 53 173 L 55 170 L 51 168 L 53 163 L 53 161 L 52 157 L 54 157 L 52 154 L 54 151 Q 55 148 52 149 L 52 148 L 55 149 L 57 148 Q 60 149 59 153 L 56 154 L 57 157 L 58 157 Q 57 154 60 155 L 61 156 L 61 145 L 59 142 Q 60 137 57 138 Q 56 135 60 136 L 59 133 L 56 135 L 57 144 L 60 146 L 60 149 L 58 146 L 55 145 L 52 146 L 50 146 L 52 145 L 52 135 L 51 134 L 52 132 L 51 130 L 52 128 L 52 122 L 50 122 Z M 307 122 L 305 126 L 307 125 L 307 122 Z M 251 123 Q 250 126 253 125 L 253 128 L 250 129 L 253 129 L 254 130 L 254 123 L 251 123 Z M 291 123 L 289 126 L 293 124 L 291 123 Z M 76 124 L 74 126 Q 73 128 76 127 L 77 128 L 76 124 Z M 234 124 L 233 127 L 235 128 L 234 124 Z M 53 125 Q 52 128 55 127 Q 56 124 53 125 Z M 87 125 L 85 128 L 88 127 Q 89 124 87 125 Z M 271 125 L 267 130 L 267 136 L 271 137 L 273 134 L 271 125 Z M 301 125 L 301 127 L 303 126 L 301 125 Z M 41 126 Q 38 129 32 128 L 31 131 L 32 136 L 35 137 L 36 138 L 33 133 L 38 129 L 41 130 L 44 128 L 41 126 Z M 63 126 L 62 143 L 64 152 Q 65 156 63 158 L 63 179 L 62 180 L 62 243 L 63 244 L 62 248 L 63 249 L 63 263 L 64 264 L 63 265 L 63 288 L 62 289 Q 61 291 64 290 L 64 295 L 63 298 Q 61 304 64 306 L 64 318 L 63 319 L 63 328 L 64 329 Q 65 333 63 335 L 64 337 L 63 342 L 64 344 Q 66 350 63 352 L 64 383 L 70 375 L 70 372 L 73 370 Q 72 374 75 375 L 75 360 L 86 347 Q 84 339 89 341 L 90 349 L 93 351 L 92 224 L 91 223 L 91 183 Q 89 181 90 176 L 87 175 L 89 172 L 88 169 L 86 170 L 82 169 L 82 171 L 80 168 L 82 168 L 81 163 L 80 166 L 78 167 L 76 164 L 73 162 L 74 159 L 73 159 Q 68 160 67 156 Q 66 150 70 150 L 63 135 L 63 126 Z M 243 126 L 242 129 L 242 141 L 244 141 L 243 135 L 244 130 L 249 128 Q 248 125 247 127 L 243 126 Z M 67 127 L 66 134 L 67 134 L 67 127 Z M 98 127 L 96 130 Q 95 132 98 131 L 99 129 L 99 131 Q 102 132 101 130 L 98 127 Z M 292 127 L 289 130 L 291 132 L 293 131 L 293 127 L 292 127 Z M 78 128 L 80 130 L 81 133 L 88 131 L 84 130 L 82 130 L 78 128 Z M 112 128 L 110 131 L 112 132 L 112 128 Z M 53 129 L 53 140 L 54 141 Q 53 145 56 144 L 55 135 L 55 133 Q 56 128 53 129 Z M 57 129 L 60 133 L 60 131 L 57 129 Z M 296 129 L 297 131 L 298 131 L 296 129 Z M 312 129 L 312 131 L 314 130 L 312 129 Z M 71 130 L 70 133 L 71 133 L 71 130 Z M 248 130 L 247 136 Q 250 137 249 134 L 248 130 Z M 250 130 L 251 135 L 254 137 Q 255 139 253 138 L 250 137 L 251 142 Q 250 145 253 144 Q 254 147 252 146 L 251 148 Q 253 147 252 150 L 252 152 L 251 155 L 252 156 L 252 164 L 247 165 L 251 165 L 250 169 L 252 169 L 253 174 Q 254 177 250 175 Q 249 178 252 177 Q 253 179 254 177 Q 255 170 252 168 Q 251 165 254 166 L 255 164 L 253 154 L 255 149 L 254 144 L 254 142 L 255 140 L 254 135 L 254 132 L 250 130 Z M 302 130 L 300 132 Q 299 134 302 133 L 302 130 Z M 72 133 L 74 139 L 74 138 L 75 137 L 72 133 Z M 232 133 L 232 135 L 235 136 Q 237 137 236 134 L 232 133 Z M 295 133 L 289 134 L 290 136 L 295 135 L 297 135 L 299 135 L 295 133 Z M 307 133 L 307 138 L 308 138 Q 310 132 307 133 Z M 312 134 L 310 135 L 310 136 L 315 136 L 312 134 Z M 275 135 L 272 137 L 272 138 L 275 137 L 275 135 Z M 318 135 L 316 137 L 318 137 L 318 135 Z M 79 137 L 77 140 L 79 141 L 79 137 Z M 87 137 L 86 143 L 87 143 L 87 137 Z M 114 137 L 115 139 L 117 138 L 114 137 Z M 247 137 L 247 145 L 246 146 L 249 148 L 248 146 Q 247 143 250 144 L 249 142 Q 251 136 247 137 Z M 277 137 L 279 141 L 283 139 Q 282 136 277 137 Z M 36 138 L 39 149 L 40 149 Q 41 142 38 140 Q 39 137 36 138 Z M 290 138 L 289 139 Q 286 138 287 141 L 290 140 L 292 141 L 292 139 L 295 140 L 298 139 L 299 140 L 299 138 L 290 138 Z M 318 138 L 316 141 L 319 139 L 318 138 Z M 69 139 L 69 144 L 70 144 L 69 139 Z M 84 139 L 80 142 L 82 142 L 81 146 L 83 145 Q 82 140 85 141 Q 86 138 84 139 Z M 309 139 L 311 142 L 314 140 L 309 139 Z M 109 140 L 108 144 L 109 145 L 111 142 Q 112 139 109 140 Z M 270 140 L 270 143 L 272 142 Q 273 139 270 140 Z M 285 140 L 284 143 L 285 143 L 285 140 Z M 220 141 L 218 144 Q 220 147 221 144 L 220 141 Z M 276 141 L 274 143 L 276 143 L 276 141 Z M 307 141 L 305 143 Q 304 146 307 145 L 307 141 Z M 316 141 L 314 143 L 315 149 L 316 149 L 315 146 L 316 144 L 316 141 Z M 244 142 L 243 144 L 242 147 L 243 150 L 242 154 L 244 157 L 247 155 L 250 156 Q 252 151 245 153 L 245 152 Q 247 153 246 149 L 245 149 L 244 142 Z M 268 142 L 266 144 Q 265 147 269 145 L 268 142 Z M 291 143 L 289 146 L 290 150 L 289 158 L 292 158 L 296 156 L 295 155 L 293 155 L 291 155 L 294 153 L 298 154 Q 300 155 299 152 L 297 151 L 295 152 L 291 151 L 294 150 L 293 148 L 295 147 L 291 143 Z M 271 144 L 271 151 L 273 151 L 274 149 L 274 147 Q 275 142 271 144 Z M 287 144 L 283 148 L 284 152 L 282 153 Q 276 155 277 152 L 274 154 Q 267 156 266 153 L 260 155 L 258 158 L 260 157 L 266 159 L 268 162 L 270 162 L 271 164 L 275 164 L 276 168 L 273 170 L 276 170 L 275 174 L 277 178 L 281 181 L 279 175 L 282 171 L 284 171 Q 283 168 286 169 L 287 166 L 282 162 Q 281 157 285 156 L 287 157 L 287 144 Z M 297 144 L 295 146 L 299 146 Q 300 149 297 148 L 298 150 Q 302 151 300 146 L 297 144 Z M 309 144 L 308 147 L 311 147 L 313 149 L 312 147 Q 313 142 309 144 Z M 89 145 L 88 146 L 85 146 L 85 153 L 86 153 Q 84 146 89 148 L 89 145 Z M 125 146 L 119 150 L 120 152 L 118 155 L 119 159 L 122 152 L 122 154 L 125 152 L 126 154 L 128 151 L 127 153 L 128 154 L 130 153 L 128 156 Q 130 159 131 156 L 129 149 Q 129 146 125 146 Z M 106 148 Q 105 151 108 150 Q 109 147 106 148 Z M 226 148 L 223 150 Q 224 153 228 152 L 231 157 Q 230 159 226 158 Q 225 161 228 160 L 230 162 L 233 161 L 238 163 L 239 164 Q 241 152 236 148 Q 230 147 229 149 L 226 148 Z M 277 148 L 277 150 L 281 151 L 281 150 L 277 148 Z M 135 149 L 133 151 L 135 151 L 135 149 Z M 149 149 L 146 152 Q 145 155 149 153 L 150 151 Q 151 148 149 149 Z M 248 149 Q 245 153 249 152 L 248 149 Z M 306 149 L 309 153 Q 312 154 311 151 Q 310 148 306 149 Z M 37 151 L 36 154 L 37 155 L 39 152 L 37 151 Z M 72 151 L 70 153 Q 69 156 72 157 L 75 153 Q 76 150 74 151 L 72 151 Z M 107 153 L 107 156 Q 110 155 107 153 Z M 115 153 Q 112 157 116 156 L 115 153 Z M 223 153 Q 223 156 220 155 L 220 156 Q 223 155 222 158 L 223 158 L 223 153 Z M 305 153 L 306 155 Q 307 152 305 153 Z M 79 154 L 77 156 L 79 163 L 81 159 Q 83 153 79 154 Z M 122 154 Q 122 158 119 160 L 123 162 L 122 154 Z M 154 154 L 154 157 L 157 156 Q 158 152 154 154 Z M 176 154 L 174 155 L 172 158 Q 175 159 174 156 L 177 156 L 178 157 Q 179 153 176 154 Z M 114 156 L 113 159 L 114 159 L 114 156 Z M 34 157 L 32 159 L 34 160 L 34 157 Z M 55 157 L 55 159 L 57 158 L 55 157 Z M 128 157 L 127 159 Q 125 160 128 161 L 128 160 Q 130 158 128 157 Z M 193 157 L 195 161 Q 194 163 197 162 L 200 167 Q 199 169 198 167 L 195 169 Q 192 168 193 171 L 199 173 Q 200 177 197 176 L 196 185 Q 199 186 198 184 L 207 176 L 211 179 L 213 184 L 215 184 L 215 178 L 217 177 L 219 177 Q 220 174 223 175 L 220 170 Q 217 168 222 166 L 226 167 Q 229 168 228 166 Q 227 163 226 165 Q 224 161 217 162 L 215 165 L 213 166 L 209 165 L 206 166 L 207 168 L 209 167 L 209 171 L 206 175 L 203 174 L 205 170 L 206 169 L 203 166 L 207 164 L 203 160 L 199 160 Q 197 156 193 157 Z M 246 157 Q 244 160 247 159 L 246 157 Z M 299 157 L 297 161 L 299 162 L 299 157 Z M 319 157 L 319 160 L 321 161 Q 322 156 319 157 Z M 242 158 L 242 167 L 241 168 L 241 178 L 242 179 Q 243 183 241 185 L 241 196 L 242 197 L 241 202 Q 239 215 243 224 L 241 234 Q 240 240 243 244 L 243 247 Q 246 246 245 249 L 244 248 L 243 251 L 245 250 L 243 253 L 244 255 L 243 257 L 243 273 L 245 274 L 245 273 L 245 271 L 246 268 L 246 266 L 250 264 L 252 265 L 250 269 L 253 271 L 252 272 L 252 296 L 251 297 Q 250 302 253 303 L 253 305 L 248 305 L 246 303 L 248 303 L 250 302 L 248 299 L 250 296 L 249 294 L 249 292 L 250 290 L 250 287 L 249 289 Q 245 290 246 288 L 245 288 L 246 286 L 249 287 L 250 285 L 249 285 Q 245 286 246 284 L 246 280 L 245 279 L 243 283 L 245 283 L 245 284 L 243 285 L 243 342 L 241 343 L 244 348 L 243 350 L 243 358 L 244 359 L 244 390 L 245 391 L 244 408 L 243 409 L 243 436 L 244 437 L 244 450 L 245 452 L 245 454 L 244 456 L 244 487 L 245 488 L 244 510 L 243 511 L 244 512 L 244 536 L 245 537 L 245 552 L 248 552 L 246 550 L 247 548 L 247 529 L 246 524 L 249 525 L 251 524 L 253 525 Q 256 526 255 523 L 249 522 Q 248 519 251 520 L 253 520 L 255 521 L 255 514 L 250 514 L 248 511 L 254 512 Q 257 511 254 509 Q 249 508 248 510 L 248 509 Q 247 505 251 506 L 250 504 Q 247 505 248 503 L 249 500 L 254 502 Q 255 498 253 499 Q 251 501 250 499 L 250 492 Q 256 494 254 489 L 250 490 Q 246 491 248 487 L 250 487 Q 251 484 248 485 L 247 483 L 249 483 L 251 482 Q 255 483 254 481 L 253 481 Q 248 482 247 480 L 248 476 L 248 478 L 254 478 L 254 470 L 253 470 L 246 470 L 250 467 L 254 468 L 254 465 L 251 466 L 249 465 L 248 467 L 247 467 L 249 463 L 248 460 L 250 457 Q 255 459 254 455 L 251 456 Q 247 457 249 453 L 251 453 L 254 452 Q 255 448 250 450 L 248 451 L 249 447 L 249 445 Q 251 444 250 447 Q 256 449 254 444 L 253 444 Q 249 445 248 443 L 249 436 L 253 434 L 252 438 Q 249 437 250 441 L 253 440 L 254 440 L 254 432 L 252 433 L 248 431 Q 244 430 245 425 L 245 423 L 246 419 L 247 419 L 246 422 Q 250 423 248 418 L 250 418 L 248 415 L 250 415 L 251 413 Q 247 414 248 412 Q 253 409 250 407 L 248 410 L 245 410 L 247 409 Q 249 408 247 407 Q 245 400 249 399 Q 254 401 253 397 Q 248 398 246 396 L 253 394 L 254 392 L 251 391 Q 249 388 248 392 L 246 391 L 247 386 L 247 391 L 249 390 L 248 386 L 248 382 L 250 376 L 248 371 L 247 375 L 246 372 L 246 370 L 248 370 L 249 370 L 245 367 L 247 362 L 247 366 L 249 365 L 248 363 L 251 361 L 255 363 L 255 361 Q 254 358 253 360 Q 246 362 248 357 L 251 356 L 249 355 L 251 351 L 253 352 L 255 351 L 254 350 L 252 350 Q 248 351 249 348 L 250 346 L 247 346 L 247 341 L 251 339 Q 253 335 249 336 L 247 337 L 245 334 L 248 333 L 248 329 Q 252 330 251 328 L 249 327 L 247 331 L 245 328 L 247 327 L 248 325 L 245 319 L 247 316 L 246 314 L 248 314 Q 249 311 245 312 L 247 309 L 244 308 L 247 306 Q 252 305 253 308 L 250 308 L 251 311 Q 252 313 249 312 L 250 315 Q 251 318 247 316 L 246 319 L 247 323 L 249 322 Q 252 321 251 324 L 254 324 L 254 316 L 253 323 L 250 320 L 250 318 L 252 318 L 252 310 Q 255 311 254 309 L 255 306 L 254 304 Q 255 299 252 300 L 254 294 L 253 290 L 255 279 L 254 277 L 254 266 L 253 265 L 254 260 L 254 256 L 253 258 L 250 259 L 251 261 Q 253 260 252 263 L 248 264 L 246 264 L 246 260 L 245 260 L 245 259 Q 244 256 247 257 L 245 255 L 246 251 L 247 251 L 246 254 L 247 256 L 248 256 Q 247 253 250 254 L 248 248 Q 245 249 246 247 L 248 247 L 248 240 L 250 240 Q 251 237 248 238 L 247 235 L 245 236 L 247 240 L 246 239 L 245 241 L 243 240 L 245 239 L 243 230 L 246 231 L 245 231 L 245 233 Q 244 235 247 234 Q 248 236 249 234 Q 247 232 248 228 L 247 225 Q 245 219 249 220 L 250 217 L 251 217 L 250 220 L 251 221 L 253 217 L 251 214 L 249 214 L 248 218 L 246 219 L 248 214 L 247 212 Q 248 209 245 210 L 245 218 L 244 216 L 244 214 L 243 211 L 244 210 L 245 198 L 246 204 L 248 200 L 246 199 L 248 198 Q 249 201 251 197 L 253 200 L 253 203 L 250 208 L 251 210 L 254 206 L 254 195 L 253 193 L 251 194 L 248 192 L 246 193 L 243 189 L 244 182 L 244 178 L 243 176 Q 242 172 246 174 L 246 171 L 243 171 L 246 169 L 245 168 L 243 169 L 245 166 Q 247 167 246 164 L 244 165 L 243 164 L 246 163 L 246 160 L 244 161 L 244 160 Q 245 157 242 158 Z M 291 158 L 289 164 Q 288 169 290 171 L 289 174 L 289 192 L 292 193 L 292 189 L 291 189 L 291 188 Q 294 189 293 186 L 291 186 L 294 185 L 294 176 L 292 166 L 296 165 L 296 163 L 294 164 L 292 164 L 291 162 L 293 162 L 291 158 Z M 169 159 L 167 163 L 170 165 L 168 162 L 170 161 Q 171 158 169 159 Z M 215 159 L 213 161 L 215 161 L 215 159 Z M 87 160 L 84 164 Q 82 169 86 168 L 87 163 L 87 160 Z M 181 160 L 180 164 L 181 164 L 181 160 Z M 210 160 L 210 163 Q 209 165 212 164 L 210 160 Z M 310 160 L 308 164 Q 307 169 311 171 L 312 169 L 310 160 Z M 146 161 Q 145 164 149 163 Q 150 160 146 161 Z M 176 161 L 177 165 L 178 162 L 176 161 Z M 303 161 L 302 165 L 305 166 L 306 163 L 303 161 Z M 55 162 L 55 163 Q 57 162 56 165 L 57 165 Q 58 161 55 162 Z M 59 162 L 61 164 Q 62 161 59 162 Z M 130 162 L 130 164 L 132 163 L 130 162 Z M 263 162 L 261 165 L 263 164 L 263 162 Z M 110 163 L 107 167 L 110 165 L 110 163 Z M 119 163 L 116 166 L 117 168 L 120 167 L 119 163 Z M 126 163 L 124 165 L 126 167 L 127 165 Q 128 162 126 163 Z M 159 163 L 156 167 L 159 168 L 159 166 L 162 165 Q 163 162 159 163 Z M 194 163 L 191 167 L 192 168 L 195 165 L 194 163 Z M 37 164 L 35 168 L 37 167 L 37 164 Z M 141 164 L 129 169 Q 130 173 125 171 L 125 174 L 123 175 L 121 174 L 118 175 L 116 174 L 110 177 Q 111 181 107 179 L 107 184 L 110 188 L 116 182 L 118 182 L 120 185 L 123 183 Q 126 184 125 189 L 120 193 L 123 197 L 128 193 Q 131 194 130 200 L 136 204 L 137 205 L 136 201 L 139 197 L 138 194 L 136 192 L 133 187 L 136 186 L 139 186 L 143 189 L 144 187 L 143 181 L 137 182 L 135 181 Q 130 182 132 178 L 138 177 Q 140 176 139 171 L 142 169 L 143 166 L 141 164 Z M 300 164 L 298 167 L 300 168 L 300 164 Z M 55 165 L 56 169 Q 58 168 56 167 Q 57 164 55 165 Z M 263 165 Q 261 168 264 167 L 263 165 Z M 61 166 L 56 169 L 57 171 L 59 170 Q 60 172 61 170 L 61 166 Z M 149 166 L 146 170 L 150 170 L 149 166 Z M 268 166 L 268 168 L 272 167 L 268 166 Z M 184 167 L 182 170 L 183 172 L 185 173 L 184 167 Z M 237 167 L 237 171 L 239 172 Q 241 166 237 167 Z M 162 168 L 160 171 L 162 170 L 162 168 Z M 227 168 L 225 172 L 228 171 L 227 168 Z M 166 169 L 166 172 Q 169 171 166 169 Z M 256 169 Q 255 172 258 171 Q 259 168 256 169 Z M 144 170 L 142 173 L 146 171 L 144 170 Z M 158 170 Q 155 171 156 175 L 150 177 Q 146 176 147 179 L 155 177 L 157 177 L 159 171 L 158 170 Z M 233 170 L 231 172 L 233 173 L 233 170 Z M 267 170 L 267 172 L 267 173 L 269 172 Q 270 169 267 170 Z M 295 170 Q 294 174 299 172 Q 300 168 295 170 Z M 152 171 L 152 173 L 154 172 L 152 171 Z M 247 171 Q 246 174 249 173 Q 250 170 247 171 Z M 261 171 L 260 174 L 262 174 L 261 171 Z M 287 171 L 286 174 L 282 173 L 283 179 Q 282 181 285 180 L 287 183 L 288 176 L 288 174 L 287 171 Z M 163 172 L 160 175 Q 159 180 162 182 L 165 180 L 163 172 Z M 170 172 L 166 173 L 168 179 L 167 182 L 168 183 L 172 173 L 170 172 Z M 146 173 L 146 175 L 148 174 L 146 173 Z M 178 173 L 179 175 L 181 174 L 178 173 Z M 191 173 L 189 176 L 189 177 L 191 176 L 191 173 Z M 273 173 L 272 176 L 273 176 L 273 173 Z M 296 174 Q 295 177 298 176 L 299 177 Q 300 172 296 174 Z M 245 175 L 246 177 Q 247 174 245 175 Z M 247 175 Q 246 178 249 177 Q 250 174 247 175 Z M 174 177 L 172 182 L 174 181 L 174 177 Z M 177 177 Q 178 181 175 184 L 177 184 L 179 184 L 182 184 L 179 179 Q 180 176 177 177 Z M 184 177 L 182 180 L 186 182 L 184 177 Z M 222 177 L 221 179 L 223 180 L 222 177 Z M 158 178 L 151 181 L 150 183 L 158 180 L 158 178 Z M 245 178 L 246 188 L 247 186 L 252 189 Q 253 192 249 190 L 250 192 L 254 190 L 254 181 L 253 179 L 249 180 L 249 182 L 248 182 Q 245 181 247 180 Q 248 177 245 178 Z M 299 179 L 296 183 L 298 194 L 297 196 L 297 198 L 298 201 Q 300 200 298 199 L 300 191 L 298 186 L 300 182 L 299 179 Z M 192 180 L 190 183 L 193 184 L 192 180 Z M 205 180 L 201 186 L 202 188 L 203 186 L 206 188 L 205 186 L 207 182 Q 208 179 205 180 Z M 270 180 Q 269 183 272 182 Q 273 179 270 180 Z M 221 181 L 220 184 L 221 184 L 221 181 Z M 227 181 L 227 186 L 229 186 L 230 183 L 227 181 Z M 210 182 L 209 184 L 211 185 L 210 182 Z M 158 183 L 159 185 Q 160 182 158 183 Z M 164 183 L 164 185 L 166 184 L 164 183 Z M 238 183 L 234 192 L 231 195 L 232 198 L 229 200 L 232 201 L 233 206 L 235 202 L 239 199 L 238 195 L 239 190 Q 240 182 238 183 Z M 284 183 L 280 184 L 281 187 L 278 197 L 276 198 L 273 197 L 271 200 L 274 202 L 272 207 L 273 208 L 269 207 L 271 204 L 271 201 Q 268 202 269 200 L 269 198 Q 270 194 268 193 L 264 194 Q 266 196 265 202 Q 264 204 263 202 L 261 203 L 262 205 Q 261 208 259 205 L 260 201 L 258 200 L 255 215 L 257 219 L 256 221 L 256 239 L 255 240 L 256 242 L 256 273 L 257 275 L 257 277 Q 258 281 256 283 L 256 304 L 257 305 L 256 307 L 256 342 L 264 341 L 263 340 Q 262 334 264 333 L 261 332 Q 260 329 263 330 L 268 319 L 269 319 L 269 315 L 273 315 L 274 320 Q 274 323 279 322 L 281 322 L 283 321 L 282 319 L 283 317 Q 282 313 288 315 L 288 313 L 287 311 L 288 307 Q 289 302 287 301 L 288 299 L 287 296 L 287 263 L 288 262 L 288 235 L 286 224 L 287 202 L 288 201 L 286 194 L 287 192 Q 284 193 285 190 Q 281 188 285 186 L 285 188 L 286 188 Q 288 182 284 183 Z M 149 185 L 147 187 L 150 188 L 149 185 Z M 231 185 L 229 188 L 230 190 L 231 188 L 231 185 Z M 275 185 L 277 189 Q 279 190 278 187 L 275 185 Z M 122 186 L 119 190 L 122 188 L 122 186 Z M 155 186 L 150 193 L 150 196 L 152 195 Q 154 196 153 194 L 156 192 L 157 188 L 155 186 Z M 177 186 L 175 189 L 177 188 L 177 186 Z M 183 186 L 182 188 L 187 190 L 188 194 L 188 190 L 183 186 Z M 191 186 L 190 189 L 192 190 L 191 186 Z M 209 186 Q 207 189 210 188 L 209 186 Z M 214 186 L 211 187 L 212 191 L 216 192 L 217 190 L 216 188 Q 217 185 214 186 Z M 93 187 L 94 190 L 94 205 L 93 206 L 94 246 L 95 247 L 94 250 L 94 252 L 94 264 L 95 265 L 94 270 L 94 272 L 94 290 L 95 291 L 95 301 L 96 302 L 95 308 L 97 309 L 95 309 L 96 312 L 97 310 L 98 313 L 98 314 L 97 312 L 95 316 L 97 317 L 95 317 L 94 326 L 95 329 L 94 331 Q 93 335 95 337 L 95 345 L 94 346 L 95 348 L 94 352 L 94 354 L 95 356 L 94 359 L 95 361 L 94 363 L 95 368 L 94 371 L 94 375 L 95 376 L 95 397 L 96 398 L 95 402 L 95 404 L 96 407 L 94 417 L 95 420 L 95 422 L 94 425 L 95 427 L 94 429 L 95 433 L 95 435 L 94 437 L 95 439 Q 92 440 94 447 L 96 446 L 94 449 L 95 452 L 95 454 L 95 463 L 98 463 L 99 461 L 104 464 L 104 462 L 100 461 L 101 459 Q 102 455 99 456 L 99 458 L 98 456 L 96 456 L 102 455 L 101 454 L 102 451 L 104 451 Q 105 446 101 448 L 97 447 L 99 447 L 100 443 L 98 443 L 102 440 L 104 441 L 104 438 L 103 438 L 100 437 L 101 433 Q 97 431 101 429 L 101 420 L 100 419 L 101 416 L 101 414 L 100 410 L 99 414 L 98 409 L 101 410 L 101 409 L 104 407 Q 106 402 100 404 L 101 396 L 105 395 L 102 394 Q 100 396 99 394 L 101 394 Q 100 389 105 391 Q 106 388 102 389 L 104 385 Q 106 386 105 383 Q 100 384 97 381 L 99 381 L 100 369 L 100 381 L 102 380 L 101 372 L 105 373 Q 107 368 103 369 L 103 371 L 101 369 L 102 364 L 102 366 L 105 367 Q 106 363 102 362 L 105 360 L 105 356 L 102 358 L 97 357 L 96 355 L 97 351 L 96 347 L 100 346 L 99 342 L 101 342 Q 106 344 105 341 L 104 341 L 99 339 L 100 335 L 101 339 L 105 338 Q 106 335 104 336 Q 102 338 101 336 L 103 333 Q 106 334 105 331 L 103 332 L 101 332 L 101 328 L 104 329 Q 106 330 105 326 L 102 325 Q 101 322 105 323 Q 106 320 102 321 L 102 319 L 102 317 Q 101 312 105 314 L 105 310 Q 102 309 103 312 L 99 311 L 101 306 L 103 307 L 105 307 L 105 304 L 102 305 L 99 302 L 97 300 L 97 299 L 100 301 Q 99 303 102 302 L 105 301 L 101 300 Q 103 294 99 293 L 102 294 Q 101 291 105 292 L 105 289 L 103 290 L 101 291 L 103 287 L 106 286 Q 108 279 102 281 Q 101 278 105 279 L 105 277 L 102 277 Q 103 274 100 275 L 100 273 L 99 270 L 100 268 L 99 268 L 95 268 L 97 260 L 97 263 L 97 265 Q 96 268 99 267 L 100 265 L 101 267 L 102 265 L 99 264 L 99 262 L 103 262 L 104 268 L 101 269 L 101 272 Q 103 273 102 270 L 105 270 L 105 242 L 102 241 L 102 238 L 101 242 L 99 243 L 100 219 L 97 216 L 98 215 L 96 214 L 96 213 Q 98 214 97 212 L 97 210 L 98 208 L 97 203 L 98 201 L 96 196 L 96 194 L 95 192 Q 97 186 93 187 Z M 113 187 Q 112 191 115 190 Q 116 186 113 187 Z M 310 187 L 307 191 Q 306 194 309 193 L 310 191 L 310 187 Z M 138 188 L 137 190 L 139 191 L 138 188 Z M 198 188 L 196 191 L 199 189 L 198 188 Z M 247 188 L 245 190 Q 244 192 247 191 L 247 188 Z M 169 189 L 168 193 L 170 192 L 172 193 Q 174 194 173 191 L 169 189 Z M 178 189 Q 177 192 180 191 Q 181 188 178 189 Z M 208 189 Q 205 194 209 193 L 208 189 Z M 258 189 L 256 191 Q 255 193 258 192 L 258 189 Z M 270 189 L 269 192 L 271 193 L 270 189 Z M 113 190 L 111 192 L 113 197 Q 116 195 112 194 L 113 192 L 113 190 Z M 116 190 L 113 193 Q 112 195 115 194 L 114 198 L 116 198 L 117 193 L 116 193 L 116 192 L 116 190 Z M 146 190 Q 144 193 147 192 L 146 190 Z M 202 190 Q 199 192 202 193 L 204 192 L 202 190 Z M 181 192 L 181 195 Q 179 199 183 198 Q 181 196 184 195 L 181 192 Z M 222 192 L 222 194 L 225 194 L 222 192 Z M 274 192 L 275 195 Q 277 196 276 193 L 274 192 Z M 161 193 L 162 197 L 163 194 L 161 193 Z M 213 193 L 210 196 L 213 196 L 214 197 Q 215 192 213 193 Z M 105 194 L 104 195 Q 98 193 99 198 L 102 196 L 105 198 L 105 194 Z M 291 194 L 289 196 L 290 198 L 290 212 L 289 213 L 289 231 L 291 236 L 291 246 L 290 247 Q 289 249 292 248 L 293 250 L 290 249 L 290 266 L 289 267 L 290 270 L 289 272 L 289 274 L 289 295 L 290 296 Q 291 300 289 302 L 289 317 L 290 318 L 290 332 L 289 333 L 289 358 L 291 364 L 288 376 Q 287 382 289 386 L 289 388 L 288 391 L 289 394 L 289 408 L 288 409 L 289 411 L 290 443 L 291 444 L 290 450 L 290 452 L 291 455 L 291 479 L 290 480 L 292 490 L 291 495 L 292 498 L 292 500 L 291 503 L 291 512 L 292 513 L 291 523 L 291 525 L 292 548 L 296 549 L 295 548 L 298 542 L 300 544 L 299 546 L 299 548 L 305 548 Q 308 546 306 541 L 301 542 L 300 540 L 305 539 Q 308 538 305 536 L 300 537 L 300 534 L 305 534 L 305 531 L 299 532 L 301 528 L 304 529 L 305 526 Q 304 523 303 525 Q 298 526 297 524 L 298 522 L 304 522 L 304 520 L 302 521 L 300 520 Q 296 521 297 518 L 299 518 L 301 517 Q 306 519 304 513 L 302 514 L 298 513 Q 295 512 298 510 L 304 511 L 304 507 L 303 508 L 296 508 L 298 505 Q 305 507 304 503 L 302 504 L 298 503 Q 297 500 300 501 L 298 496 L 301 492 L 304 493 L 304 491 L 298 491 L 298 488 L 304 488 L 303 485 L 297 487 L 298 476 L 303 477 L 303 472 L 301 473 L 297 474 Q 296 469 298 468 L 297 466 L 299 466 L 302 465 L 302 451 L 301 448 L 296 449 L 298 446 Q 303 448 301 443 L 299 444 Q 295 445 296 443 L 299 441 L 301 441 L 301 430 L 298 430 Q 299 427 296 428 L 297 426 L 299 427 Q 302 428 300 424 L 299 424 L 296 423 L 297 420 L 298 420 Q 297 422 300 421 L 300 417 L 294 417 L 295 420 L 293 421 L 293 413 L 294 412 L 292 408 L 293 406 L 294 408 L 297 404 L 297 406 L 301 406 L 301 395 L 299 396 L 300 401 L 295 402 Q 292 403 294 405 L 292 405 L 293 403 L 290 397 Q 288 391 292 392 L 295 387 L 293 383 Q 294 380 296 382 L 298 381 L 300 382 L 301 379 L 299 380 L 294 379 L 293 377 L 296 376 L 300 377 L 301 375 L 300 373 L 301 370 Q 300 367 298 370 L 299 374 Q 300 377 295 375 Q 292 374 293 371 L 293 369 Q 295 370 294 368 Q 290 366 293 365 L 292 362 Q 295 360 293 354 L 294 354 Q 296 360 293 362 L 295 366 L 297 365 L 295 364 L 297 360 L 300 361 L 301 356 Q 300 353 296 354 L 295 350 L 298 346 L 301 347 L 301 343 L 297 344 L 295 341 L 296 335 Q 299 334 298 337 L 299 337 Q 298 334 302 335 L 302 332 L 299 334 L 295 334 L 297 330 Q 298 327 295 328 L 295 331 L 294 325 L 291 325 L 293 324 Q 295 323 293 322 L 294 319 Q 293 314 296 315 Q 294 318 295 326 L 297 325 L 296 322 L 297 318 L 300 316 Q 303 315 302 311 L 299 310 Q 298 307 301 308 L 301 301 L 295 301 Q 294 305 297 304 Q 298 308 295 307 L 296 312 L 296 311 L 298 312 L 295 314 L 294 305 L 292 305 L 295 296 L 292 296 L 294 295 L 296 291 Q 302 293 300 288 L 298 289 L 294 288 L 295 285 L 297 285 Q 300 286 298 282 L 296 283 L 295 282 Q 293 280 296 279 Q 300 280 298 276 L 296 277 L 293 274 L 294 269 L 298 267 L 300 268 L 300 262 L 299 266 L 298 265 L 296 266 L 294 264 L 297 263 L 296 261 L 296 259 L 300 259 L 301 255 L 298 253 L 298 250 L 297 253 L 295 253 L 295 252 L 294 249 L 296 246 L 295 243 L 300 245 L 301 245 L 301 241 L 298 240 L 296 241 L 296 239 L 301 239 L 300 231 L 299 234 L 291 233 L 297 232 L 294 231 L 297 229 L 296 220 L 295 225 L 294 225 L 294 217 L 293 216 L 293 215 L 295 216 L 295 214 L 299 213 Q 300 209 297 210 L 296 213 L 291 212 L 294 211 L 297 203 L 297 201 Q 294 202 295 206 L 293 207 L 291 208 L 293 204 L 294 206 L 294 203 L 291 203 L 292 200 L 294 197 Q 291 198 292 194 L 291 194 Z M 293 194 L 293 196 L 295 197 Q 296 193 293 194 Z M 201 196 L 200 197 Q 196 196 197 199 L 202 198 Q 203 195 201 196 Z M 219 196 Q 218 198 221 197 L 222 198 Q 223 194 219 196 Z M 261 196 Q 258 198 261 199 Q 264 200 263 197 L 261 196 Z M 171 197 L 168 200 L 169 203 Q 172 204 171 200 L 174 200 L 171 197 Z M 188 197 L 185 200 L 186 202 L 187 200 L 189 200 Q 190 196 188 197 Z M 304 197 L 303 199 L 305 200 L 304 197 Z M 57 198 L 56 200 L 58 201 L 57 198 Z M 153 198 L 153 201 L 154 201 Q 155 197 153 198 Z M 120 199 Q 119 202 122 201 Q 123 198 120 199 Z M 127 199 L 124 203 L 122 202 L 116 206 L 117 208 L 121 205 L 124 206 Q 127 205 125 209 L 127 209 Q 130 210 129 215 L 123 218 Q 126 218 125 223 L 121 226 Q 120 223 123 224 L 121 217 L 127 214 L 126 211 L 121 213 L 116 212 L 113 209 L 112 209 Q 113 211 111 210 L 109 207 L 112 208 L 113 205 L 117 203 L 118 201 L 114 201 Q 115 204 110 203 Q 108 201 107 204 L 107 239 L 108 240 Q 109 244 107 246 L 108 305 L 109 306 L 108 308 L 108 345 L 107 346 L 108 349 L 107 352 L 107 354 L 108 358 L 107 361 L 108 363 L 108 371 L 111 371 L 112 375 L 115 374 L 114 372 L 116 370 L 123 369 L 124 368 L 124 363 L 126 356 L 130 357 L 134 355 L 133 354 Q 131 352 130 355 L 128 352 L 125 351 L 123 349 Q 125 343 131 344 L 132 340 Q 137 339 138 342 L 137 344 Q 136 347 140 345 L 141 347 L 143 344 Q 147 343 148 347 L 147 350 Q 146 352 150 351 L 152 357 L 150 358 L 146 364 Q 145 366 142 365 L 143 367 L 152 366 L 153 363 Q 155 359 162 361 L 166 361 L 166 359 L 169 358 L 168 355 Q 165 356 166 354 Q 167 350 172 351 L 174 348 L 174 346 L 178 346 L 179 348 L 181 347 L 184 351 L 186 348 L 186 350 Q 187 352 189 350 L 191 351 L 187 358 L 190 369 L 192 368 Q 193 363 190 364 Q 189 361 192 362 Q 193 359 195 363 L 195 360 L 192 359 Q 191 355 194 356 L 195 354 L 194 350 L 199 346 L 201 350 L 204 348 L 206 348 Q 207 352 212 351 L 213 354 L 212 356 L 214 356 L 213 359 Q 212 361 215 360 L 217 365 L 213 366 L 212 371 Q 209 372 210 368 Q 208 366 211 365 Q 216 367 214 362 Q 211 361 212 364 L 208 364 Q 209 371 206 374 Q 203 373 204 377 L 201 378 L 202 375 Q 201 372 199 375 L 200 378 L 199 381 L 202 382 L 203 384 L 203 381 L 205 381 Q 204 378 207 379 L 209 376 L 209 379 Q 213 381 209 383 L 212 388 L 210 391 L 212 391 L 210 395 Q 211 397 208 396 L 208 394 L 203 402 L 207 404 Q 210 407 210 414 L 209 417 L 213 430 L 219 440 L 224 439 L 228 445 L 228 447 L 224 448 L 214 446 L 214 455 Q 211 456 212 463 L 210 465 L 209 478 L 209 480 L 208 481 L 208 492 L 206 496 L 210 496 L 209 495 L 210 492 L 211 495 L 214 497 Q 213 499 216 498 L 218 492 Q 220 490 218 489 L 217 491 L 215 492 L 216 494 Q 215 497 213 494 Q 212 490 215 491 L 215 489 Q 217 490 219 487 L 220 489 L 221 487 Q 224 485 222 484 Q 221 481 224 482 L 223 481 Q 222 478 225 479 L 225 477 L 233 467 L 242 459 L 241 422 L 240 421 L 241 408 L 242 407 L 242 375 L 243 374 L 241 365 L 242 360 L 242 358 Q 240 356 241 351 L 241 349 Q 243 343 238 345 Q 236 348 235 344 L 232 345 Q 229 344 231 343 L 230 342 L 230 333 L 224 330 L 225 328 L 231 328 L 233 332 L 232 334 L 233 342 L 237 343 L 240 342 L 241 340 Q 243 333 240 332 L 241 317 L 241 315 L 240 313 L 240 293 L 241 292 L 241 248 L 238 237 L 239 218 L 239 216 L 239 212 Q 235 214 236 220 L 231 222 L 232 225 L 231 232 L 228 233 L 230 227 L 228 224 L 229 221 L 233 220 L 233 218 L 230 214 L 233 212 L 235 215 L 236 212 L 235 208 L 232 209 L 229 206 Q 230 201 228 202 L 226 199 Q 221 197 223 205 L 226 206 L 228 214 L 225 216 L 221 215 L 221 213 L 219 218 Q 217 222 215 218 Q 212 219 213 213 L 218 210 L 216 208 Q 218 202 215 203 L 213 203 L 213 206 Q 216 205 215 209 Q 211 210 212 207 L 205 208 L 206 202 L 202 204 L 203 210 L 201 211 L 199 211 L 198 217 Q 193 215 196 214 L 195 211 L 192 216 L 189 215 L 188 217 L 185 216 L 188 215 Q 182 214 181 210 L 173 212 L 174 217 L 172 220 Q 175 221 174 219 L 178 216 Q 181 216 182 219 L 181 227 L 178 228 L 179 226 L 178 224 L 180 220 L 178 218 L 176 221 L 174 222 L 171 222 L 167 219 L 163 213 L 161 213 Q 162 216 160 215 Q 158 218 156 217 L 156 218 L 153 218 Q 154 221 152 220 L 150 217 L 153 218 L 153 215 L 147 217 L 147 219 Q 148 222 146 223 Q 141 224 140 222 Q 141 218 138 219 L 134 215 L 135 213 Q 136 210 133 211 L 131 208 L 132 206 L 127 199 Z M 140 199 L 140 201 L 142 200 L 140 199 Z M 179 199 L 180 203 L 181 200 L 179 199 Z M 217 199 L 217 201 L 219 200 L 217 199 Z M 150 200 L 147 202 L 150 203 L 150 200 Z M 196 200 Q 193 204 197 203 L 196 200 Z M 210 200 L 208 202 L 209 204 L 210 204 L 210 200 Z M 157 201 L 156 205 L 159 204 Q 160 200 157 201 Z M 177 201 L 176 204 L 179 204 L 177 203 L 177 201 Z M 163 202 L 161 204 L 162 207 L 164 204 Q 165 201 163 202 Z M 184 202 L 182 205 L 185 203 L 184 202 Z M 237 202 Q 238 205 235 207 L 237 207 L 239 210 L 239 208 L 239 206 Q 240 201 237 202 Z M 300 202 L 297 204 L 300 204 L 300 202 Z M 303 203 L 302 209 L 304 211 L 305 207 L 305 205 Q 306 202 303 203 Z M 104 205 L 104 208 Q 107 207 104 205 Z M 151 205 L 153 208 Q 155 209 154 207 L 151 205 Z M 200 205 L 199 210 L 201 209 L 200 205 Z M 245 205 L 246 209 L 248 206 L 245 205 Z M 101 206 L 100 212 L 101 212 L 101 206 Z M 146 206 L 146 208 L 148 209 Q 149 205 146 206 Z M 193 206 L 189 207 L 191 214 L 194 208 Q 195 205 193 206 Z M 121 207 L 119 209 L 121 211 L 122 209 Q 123 206 121 207 Z M 135 207 Q 134 210 137 209 Q 138 206 135 207 Z M 141 208 L 141 211 L 144 210 Q 145 207 141 208 Z M 224 208 L 223 214 L 225 213 L 224 208 Z M 186 209 L 185 212 L 186 212 L 186 209 Z M 254 209 L 252 210 L 252 212 Q 251 214 254 213 L 254 209 Z M 104 210 L 104 213 Q 107 212 104 210 Z M 296 210 L 294 212 L 296 212 L 296 210 Z M 151 211 L 153 213 L 154 213 L 151 211 Z M 157 211 L 157 213 Q 155 214 158 215 L 159 213 Q 160 210 157 211 Z M 167 211 L 166 214 L 167 216 L 171 213 L 167 211 Z M 216 212 L 217 216 L 218 213 L 216 212 Z M 139 213 L 137 215 L 138 217 L 141 216 Q 142 212 139 213 Z M 171 215 L 169 217 L 171 217 L 171 215 Z M 104 216 L 103 219 L 104 219 L 104 216 Z M 296 217 L 295 219 L 297 220 L 296 217 Z M 144 218 L 143 222 L 145 221 L 144 218 Z M 301 218 L 300 221 L 301 221 L 301 218 Z M 104 221 L 102 229 L 104 228 L 104 221 Z M 300 221 L 300 225 Q 301 227 299 226 L 297 226 L 298 229 L 301 228 Q 302 223 300 221 Z M 59 222 L 58 227 L 59 227 L 59 222 Z M 58 227 L 57 233 L 58 233 L 58 227 Z M 249 227 L 250 233 L 252 230 L 252 254 L 253 254 L 253 230 Q 250 230 251 227 L 249 227 Z M 102 231 Q 101 236 105 234 Q 107 230 102 231 Z M 103 237 L 104 238 L 105 239 Q 106 236 103 237 Z M 299 248 Q 298 252 302 253 L 302 250 L 299 248 Z M 57 261 L 59 265 Q 62 266 61 263 L 57 261 Z M 60 266 L 58 267 L 58 269 Q 57 271 60 270 L 60 266 Z M 247 267 L 247 278 L 246 279 L 249 279 L 250 280 L 249 273 L 251 273 L 249 272 L 250 270 L 249 269 L 249 268 L 247 267 Z M 299 270 L 296 271 L 297 273 L 299 272 L 299 270 Z M 105 271 L 102 274 L 105 275 L 105 271 Z M 251 274 L 250 277 L 251 277 L 251 274 Z M 243 275 L 243 278 L 246 277 Q 247 273 243 275 Z M 299 275 Q 297 280 301 279 Q 303 274 299 275 Z M 301 281 L 299 283 Q 298 286 301 285 L 301 281 Z M 60 288 L 61 290 Q 62 287 60 288 Z M 60 291 Q 57 297 61 296 Q 62 292 60 291 Z M 103 294 Q 101 297 105 298 L 105 295 L 103 294 Z M 299 294 Q 298 298 301 297 Q 302 293 299 294 Z M 286 317 L 286 320 L 283 328 L 284 329 L 286 328 L 285 332 L 283 329 L 279 336 Q 280 340 276 338 L 275 336 L 276 334 L 274 333 L 273 339 Q 270 340 271 337 L 272 335 Q 264 332 266 339 Q 268 340 266 341 Q 263 340 264 344 L 263 343 L 258 344 L 256 344 L 258 351 L 257 382 L 257 384 L 256 400 L 256 402 Q 259 407 257 418 L 258 419 L 257 424 L 257 426 L 257 434 L 256 435 L 257 440 L 256 449 Q 268 439 288 437 L 287 432 L 287 416 L 286 415 L 286 373 L 287 372 L 287 356 L 286 355 L 286 345 L 279 346 L 278 343 L 276 344 L 267 344 L 266 342 L 276 342 L 277 341 L 286 343 L 287 331 L 288 330 L 287 324 Q 285 322 288 321 L 286 317 Z M 300 317 Q 296 319 301 322 L 299 326 L 302 326 Q 304 320 301 319 Q 302 316 300 317 Z M 279 324 L 278 325 Q 271 323 272 327 L 275 326 L 278 328 L 278 329 L 274 328 L 273 331 L 272 329 L 271 329 Q 272 331 269 330 L 268 332 L 276 332 L 277 331 L 276 333 L 278 333 L 281 326 L 279 324 Z M 267 325 L 268 328 L 269 326 L 267 325 Z M 254 327 L 253 342 L 254 342 L 254 327 Z M 302 327 L 301 328 Q 298 327 299 331 L 302 331 L 302 327 Z M 267 328 L 266 330 L 265 332 L 267 331 L 267 328 Z M 251 331 L 249 333 L 251 333 L 251 331 Z M 300 338 L 296 339 L 296 341 L 301 341 L 302 339 L 300 338 Z M 252 343 L 250 346 L 252 346 L 252 343 Z M 134 344 Q 132 347 135 346 L 134 344 Z M 103 345 Q 102 348 105 347 Q 106 344 103 345 Z M 129 345 L 127 348 Q 125 349 128 350 L 130 349 L 129 345 Z M 57 347 L 56 349 L 61 349 Q 62 346 59 347 L 57 347 Z M 86 349 L 85 353 L 88 352 Q 89 348 86 349 Z M 100 349 L 101 351 L 103 351 L 100 349 Z M 198 349 L 196 351 L 197 353 Q 196 358 200 356 L 201 358 L 201 355 L 205 354 L 204 350 L 200 353 L 198 349 Z M 105 350 L 103 354 L 105 354 L 105 350 Z M 178 350 L 175 352 L 179 353 L 178 350 Z M 299 350 L 300 351 L 301 352 Q 302 349 299 350 Z M 60 351 L 58 353 L 61 353 L 60 351 Z M 148 352 L 147 354 L 145 355 Q 147 359 149 356 L 148 352 Z M 187 352 L 185 355 L 187 354 L 187 352 Z M 210 352 Q 210 355 208 354 L 207 356 L 210 355 L 210 352 Z M 88 353 Q 88 356 85 355 Q 83 361 89 359 Q 90 354 88 353 Z M 143 353 L 144 356 L 145 354 L 143 353 Z M 90 354 L 90 359 L 92 359 L 91 357 L 93 356 L 90 354 Z M 253 354 L 255 356 Q 256 353 253 354 Z M 83 355 L 80 359 L 83 357 L 83 355 Z M 140 356 L 139 358 L 142 359 L 142 357 L 140 356 Z M 171 357 L 171 360 L 174 358 L 171 357 Z M 138 358 L 136 362 L 138 361 L 138 358 Z M 184 358 Q 181 360 184 361 Q 187 360 184 358 Z M 209 358 L 206 362 L 206 363 L 210 362 L 211 360 L 209 358 Z M 204 359 L 202 361 L 204 361 L 204 359 Z M 78 362 L 77 395 L 74 394 L 75 390 L 74 388 L 75 385 L 74 385 L 72 384 L 68 385 L 68 403 Q 64 406 65 416 L 62 422 L 63 424 L 63 452 L 63 454 L 65 465 L 65 477 L 67 476 L 69 477 L 71 473 L 77 468 Q 79 469 78 466 L 75 465 L 77 459 L 82 458 L 86 459 L 88 468 Q 87 470 90 469 L 92 477 L 93 477 L 93 459 L 92 458 L 92 443 L 91 442 L 92 441 L 93 430 L 93 428 L 92 426 L 92 412 L 94 403 L 93 399 L 94 397 L 93 392 L 93 390 L 94 388 L 93 383 L 93 381 L 93 369 L 91 368 L 91 367 L 91 364 Q 88 365 89 362 L 86 362 L 86 364 L 84 367 L 81 366 L 83 363 L 78 362 Z M 127 362 L 127 365 L 129 364 Q 130 361 127 362 Z M 142 362 L 142 364 L 144 363 L 142 362 Z M 181 362 L 179 364 L 181 367 L 176 378 Q 177 380 174 379 L 174 383 L 174 385 Q 173 391 176 390 L 175 389 L 183 366 L 181 362 Z M 199 362 L 197 366 L 199 365 Q 203 366 202 363 L 199 362 Z M 301 362 Q 296 365 301 367 L 301 366 L 301 364 L 301 362 Z M 58 363 Q 57 366 60 365 Q 61 362 58 363 Z M 156 363 L 155 368 Q 154 370 153 368 L 145 370 L 141 367 L 139 368 Q 136 367 137 370 L 139 370 L 139 372 L 134 370 L 131 371 L 132 369 Q 133 364 131 365 L 131 367 Q 130 373 125 376 L 127 376 L 130 374 Q 131 380 128 383 L 131 381 L 135 386 L 136 383 L 138 383 L 138 382 L 138 380 L 140 381 L 143 380 L 146 382 Q 149 383 147 379 L 149 379 L 150 382 L 150 378 L 152 378 Q 155 377 154 380 L 157 380 Q 156 386 160 389 L 159 391 Q 157 395 156 392 L 154 395 L 163 391 L 165 387 Q 164 384 167 385 L 169 381 L 174 378 L 175 374 L 175 372 Q 176 368 171 370 L 169 367 L 170 365 Q 167 364 168 368 Q 165 369 166 366 L 167 364 L 165 365 Q 162 362 156 363 Z M 186 363 L 187 365 Q 188 362 186 363 Z M 134 365 L 134 367 L 136 366 L 134 365 Z M 173 365 L 172 369 L 174 368 L 173 365 Z M 251 365 Q 252 367 249 369 L 252 370 L 253 366 L 255 367 Q 256 363 251 365 Z M 127 366 L 126 370 L 127 370 L 127 366 Z M 186 366 L 179 384 L 178 392 L 174 398 L 173 435 L 173 437 L 174 438 L 174 446 Q 170 446 168 449 Q 162 447 164 453 L 161 454 L 158 453 L 158 466 L 157 467 L 158 471 L 158 473 L 157 480 L 155 481 L 152 480 L 152 474 L 148 484 L 149 488 L 146 499 L 149 498 Q 151 497 150 500 L 152 500 Q 150 496 154 497 L 159 500 L 161 500 L 158 498 L 159 495 L 159 497 L 162 496 L 163 499 L 164 499 L 162 493 Q 161 490 164 491 L 166 493 L 165 489 Q 167 486 168 489 L 168 495 Q 165 494 166 497 L 170 499 L 170 495 L 177 476 L 176 473 L 178 471 L 178 459 L 179 458 L 178 439 L 178 437 L 179 403 L 181 397 L 180 392 Q 179 387 181 386 Q 180 382 183 383 Q 184 375 190 370 L 186 366 Z M 57 367 L 57 369 L 61 369 L 57 367 Z M 177 367 L 175 370 L 177 371 L 177 367 Z M 201 367 L 201 369 L 201 370 L 203 369 Q 204 366 201 367 Z M 192 368 L 192 371 L 182 386 L 184 387 L 183 390 Q 185 388 187 391 Q 191 389 188 388 L 189 386 L 186 385 L 187 383 L 188 385 L 189 384 L 190 376 L 194 371 Q 195 367 192 368 Z M 295 369 L 294 373 L 296 372 Q 298 373 297 370 L 295 369 Z M 126 370 L 124 373 L 126 372 L 126 370 Z M 197 370 Q 195 373 198 372 L 197 370 Z M 59 371 L 57 373 Q 56 375 61 374 L 60 373 Q 61 370 59 371 Z M 118 371 Q 118 376 116 378 L 113 377 Q 111 379 110 377 Q 111 372 108 373 L 107 379 L 108 382 L 108 384 L 107 387 L 107 416 L 106 417 L 107 422 L 105 426 L 107 428 L 107 476 L 108 477 L 107 480 L 108 499 L 108 498 L 111 497 Q 113 498 112 494 L 114 494 L 113 500 L 116 499 L 115 494 L 119 491 Q 121 490 120 493 L 123 491 L 122 488 L 125 481 Q 126 478 122 479 L 121 476 L 125 468 L 124 466 L 127 457 Q 130 455 126 454 Q 126 449 129 449 L 128 445 L 132 446 L 135 441 Q 136 438 134 439 Q 131 438 133 437 L 133 434 L 130 439 Q 129 442 132 441 L 131 444 L 128 443 L 128 439 L 131 432 L 134 433 L 136 422 Q 135 419 138 420 L 135 436 L 136 439 L 148 422 L 160 398 L 160 395 L 155 397 L 151 405 Q 148 404 149 408 L 147 408 L 144 406 L 143 398 Q 143 393 138 394 L 133 387 L 132 398 L 131 399 L 132 401 L 133 395 L 136 397 L 135 409 L 134 410 L 134 419 L 133 420 L 134 422 L 133 430 L 131 428 L 131 417 L 132 416 L 132 411 L 130 408 Q 131 403 129 402 L 130 399 L 127 397 L 126 392 Q 129 391 128 395 L 130 396 Q 131 388 129 385 L 128 389 L 126 387 L 125 390 Q 127 391 125 392 L 122 389 L 123 385 L 122 383 Q 121 376 124 374 L 118 371 Z M 253 371 L 252 372 Q 249 371 250 374 L 255 374 L 255 372 L 253 371 Z M 195 373 L 191 382 Q 192 384 194 382 L 196 383 L 197 380 Q 199 378 197 377 L 195 380 L 194 376 L 196 376 L 195 373 Z M 57 376 L 57 380 L 61 381 L 60 380 L 61 378 L 57 376 Z M 72 376 L 71 378 L 71 380 Q 72 384 68 382 L 68 383 Q 74 384 73 382 L 73 380 L 75 383 L 75 378 L 72 376 Z M 103 376 Q 101 381 105 380 Q 107 375 103 376 Z M 254 376 Q 252 379 251 377 L 250 379 L 255 379 L 254 376 Z M 125 378 L 125 381 L 127 380 Q 128 377 125 378 Z M 207 379 Q 206 383 209 382 Q 210 378 207 379 Z M 253 382 L 254 384 Q 255 381 253 382 Z M 58 383 Q 57 386 61 385 Q 62 382 58 383 Z M 146 383 L 144 386 L 145 388 L 142 389 L 143 393 Q 141 397 146 396 L 144 394 L 145 390 L 147 390 Q 150 389 148 393 L 150 393 Q 151 396 149 395 L 149 397 Q 150 401 146 399 L 148 405 L 150 402 L 148 401 L 151 400 L 152 394 L 152 392 L 151 389 Q 146 390 148 386 L 147 386 L 146 383 Z M 207 383 L 205 384 L 205 385 Q 207 384 206 387 L 208 386 L 207 383 Z M 152 384 L 152 387 L 154 386 Q 155 383 152 384 Z M 173 384 L 172 389 L 173 389 L 173 384 Z M 295 384 L 298 391 L 297 390 Q 294 391 296 393 L 295 395 L 293 394 L 291 397 L 295 396 L 297 397 L 299 392 L 299 390 L 301 390 L 301 385 L 300 385 L 295 384 Z M 169 385 Q 164 387 167 389 L 148 425 L 149 426 L 160 408 Q 159 405 162 406 L 162 409 L 149 431 L 134 453 Q 131 452 132 455 L 129 456 L 129 458 L 127 466 L 137 457 Q 136 454 139 455 L 146 446 Q 145 439 148 436 L 154 431 L 144 452 L 132 464 Q 133 466 131 465 L 127 470 L 124 471 L 125 476 L 125 477 Q 127 478 126 476 L 130 473 Q 131 476 128 478 L 129 479 L 132 476 L 135 476 L 139 473 L 152 449 L 152 447 L 145 459 L 142 460 L 142 458 L 147 451 L 156 432 L 163 412 L 165 402 L 167 400 L 169 393 L 169 385 Z M 140 386 L 138 389 L 140 388 L 140 386 Z M 65 387 L 64 396 L 63 397 L 64 404 L 65 399 L 65 387 Z M 154 387 L 153 390 Q 154 392 156 390 Q 158 391 157 388 L 154 387 Z M 203 387 L 202 390 L 203 390 L 203 387 Z M 208 387 L 206 390 L 208 389 L 208 387 Z M 56 388 L 56 391 Q 59 390 56 388 Z M 198 388 Q 196 391 199 390 L 198 388 Z M 58 389 L 58 392 L 61 392 L 61 391 L 58 389 Z M 185 390 Q 183 394 185 396 L 184 399 L 184 401 Q 186 402 185 407 L 186 407 Q 185 403 188 404 L 190 406 L 190 400 L 188 401 Q 185 400 186 394 L 185 390 Z M 139 391 L 140 393 Q 141 390 139 391 Z M 58 394 Q 56 400 61 398 Q 63 392 58 394 Z M 197 394 Q 194 395 196 397 Q 195 399 198 398 L 199 400 L 199 397 L 201 397 L 201 394 L 198 395 L 198 397 L 197 394 Z M 104 398 L 101 399 Q 100 402 104 401 L 104 398 Z M 171 399 L 168 408 L 171 408 L 171 399 Z M 195 399 L 194 401 L 198 405 L 199 402 L 195 399 Z M 59 400 L 57 403 L 61 402 Q 62 399 59 400 Z M 133 403 L 132 408 L 133 408 L 133 403 Z M 41 405 L 38 410 L 41 408 Q 43 407 42 410 L 44 410 L 46 413 Q 48 414 47 412 L 41 407 L 41 405 Z M 191 406 L 190 411 L 192 410 L 191 406 Z M 300 408 L 297 409 Q 296 412 300 411 Q 303 410 300 408 Z M 102 409 L 102 411 L 104 412 Q 105 408 102 409 Z M 202 409 L 201 413 L 203 414 L 202 409 Z M 294 409 Q 293 412 296 411 Q 297 408 294 409 Z M 38 410 L 36 412 L 38 412 L 38 410 Z M 41 410 L 41 412 Q 40 414 39 412 L 38 414 L 45 414 L 42 412 Q 43 409 41 410 Z M 171 410 Q 168 415 169 423 L 169 425 L 168 430 L 168 432 L 169 435 L 168 437 L 169 442 L 168 446 L 172 445 L 170 433 Q 169 423 171 418 L 171 416 L 171 410 Z M 102 414 Q 101 418 104 417 Q 105 413 102 414 Z M 57 415 L 57 417 L 60 418 Q 62 414 57 415 Z M 185 416 L 186 419 L 187 417 L 185 416 Z M 195 416 L 194 420 L 196 419 L 195 416 Z M 201 417 L 201 419 L 203 420 Q 204 416 201 417 Z M 167 419 L 166 427 L 167 427 L 167 419 Z M 58 420 L 58 423 L 61 424 L 60 422 Q 61 419 58 420 Z M 102 420 Q 101 424 104 423 Q 105 419 102 420 Z M 250 421 L 250 422 L 254 423 Q 255 419 250 421 Z M 60 425 L 56 427 L 59 428 L 61 427 Q 62 424 60 425 Z M 104 425 L 102 427 Q 101 430 104 429 L 104 425 Z M 196 425 L 194 427 L 196 427 L 196 425 Z M 246 425 Q 245 429 248 428 Q 249 424 246 425 Z M 253 425 L 251 428 L 254 429 L 254 425 L 253 425 Z M 147 428 L 145 431 L 147 430 L 147 428 Z M 160 428 L 158 432 L 160 431 L 160 428 Z M 163 428 L 161 434 Q 162 440 160 440 L 158 440 Q 157 443 161 441 Q 162 448 160 451 L 162 451 L 162 444 L 162 442 L 163 440 L 163 428 Z M 167 428 L 166 438 L 165 439 L 167 439 L 167 428 Z M 336 428 L 334 431 L 336 431 L 336 428 Z M 60 429 L 58 431 Q 57 434 61 432 L 60 429 Z M 328 429 L 325 433 L 326 434 L 329 432 L 328 429 Z M 104 431 L 102 433 Q 101 436 104 435 L 104 431 Z M 145 431 L 131 450 Q 130 452 133 451 L 145 433 L 145 431 Z M 323 431 L 321 433 L 323 437 L 324 434 L 323 431 Z M 333 434 L 331 435 Q 328 437 331 438 L 335 436 Q 336 433 333 434 Z M 312 438 L 310 440 L 312 440 L 312 438 Z M 209 439 Q 207 442 210 441 L 209 439 Z M 317 439 L 316 442 L 318 442 L 317 439 Z M 320 439 Q 318 442 321 441 L 323 441 L 325 442 Q 326 439 323 440 L 320 439 Z M 281 440 L 267 445 L 256 454 L 257 459 L 256 461 Q 255 465 257 467 L 256 469 L 257 471 L 257 479 L 256 480 L 257 481 L 258 491 L 259 489 L 258 487 L 259 482 L 258 478 L 261 479 L 262 476 L 261 473 L 262 471 L 263 473 L 265 472 L 266 469 L 269 469 Q 268 472 271 471 L 272 469 Q 275 464 282 462 L 288 463 L 288 440 L 281 440 Z M 305 440 L 303 442 L 304 444 L 304 464 L 305 465 L 305 483 L 308 483 L 309 484 Q 310 478 307 476 Q 311 475 310 471 L 317 465 Q 327 463 329 469 L 329 470 L 326 468 L 320 470 Q 315 473 314 480 L 315 483 L 319 481 L 318 480 Q 317 477 320 478 L 323 474 L 325 475 L 328 474 L 329 476 L 329 473 L 331 473 Q 335 474 334 471 L 330 470 L 332 467 L 329 465 Q 329 459 324 456 L 322 457 Q 318 458 317 455 L 320 453 L 315 452 L 312 449 Q 308 450 307 448 Q 306 444 309 445 L 310 443 Q 309 439 305 440 Z M 328 440 L 329 442 L 332 441 L 328 440 Z M 217 441 L 215 443 L 218 444 L 217 441 Z M 207 442 L 208 446 L 209 443 L 207 442 Z M 319 442 L 318 445 Q 322 446 321 443 L 319 442 Z M 102 443 L 100 446 L 102 445 L 104 446 Q 106 442 102 443 Z M 337 443 L 336 445 L 338 444 L 337 443 Z M 61 444 L 60 445 Q 56 444 57 447 L 61 448 L 61 444 Z M 153 444 L 152 447 L 153 447 L 153 444 Z M 193 444 Q 191 447 194 446 L 193 444 Z M 331 444 L 331 447 Q 334 446 333 449 Q 337 450 336 448 L 331 444 Z M 158 445 L 152 455 L 154 458 L 152 467 Q 150 473 155 471 L 154 469 L 155 466 L 155 454 L 157 453 L 158 447 L 158 445 Z M 181 445 L 181 448 L 183 447 Q 184 444 181 445 Z M 328 445 Q 325 450 329 449 L 328 445 Z M 204 446 L 202 448 L 203 453 L 204 453 L 204 446 Z M 323 446 L 323 447 L 325 447 L 323 446 Z M 197 448 L 196 451 L 197 451 L 197 448 Z M 190 449 Q 188 452 191 451 L 190 449 Z M 323 449 L 323 451 L 326 451 L 323 449 Z M 129 451 Q 128 454 131 453 Q 132 450 129 451 Z M 207 451 L 207 453 L 209 452 L 207 451 Z M 335 452 L 335 455 L 337 456 Q 338 451 335 452 Z M 59 454 L 60 456 Q 61 453 59 454 Z M 319 454 L 319 456 L 322 455 L 319 454 Z M 208 455 L 207 458 L 208 458 L 208 455 Z M 328 455 L 329 457 Q 330 454 328 455 Z M 337 457 L 336 460 L 337 460 L 337 457 Z M 186 458 L 186 460 L 188 459 L 186 458 Z M 207 459 L 206 463 L 207 463 L 207 459 Z M 254 459 L 250 460 Q 249 463 253 462 L 254 463 L 254 459 Z M 190 461 L 189 466 L 190 466 L 190 461 Z M 195 462 L 194 468 L 195 468 L 195 462 Z M 99 463 L 95 466 L 96 468 L 95 469 L 95 484 L 94 487 L 94 489 L 95 493 Q 91 494 94 496 L 94 512 L 93 513 L 94 548 L 94 550 L 95 554 L 98 555 Q 96 552 97 545 L 100 543 L 101 541 L 99 535 L 99 530 Q 101 528 98 527 L 98 515 L 99 514 L 97 510 L 99 510 Q 105 512 104 508 Q 100 509 99 507 L 101 506 L 103 506 L 105 505 Q 104 502 100 503 L 101 501 L 100 497 L 101 495 L 100 489 L 103 490 L 104 490 L 104 486 L 102 487 Q 99 488 100 484 L 101 481 L 100 478 L 105 478 L 100 476 Q 99 472 104 474 Q 105 476 106 474 L 100 471 Q 101 468 103 470 L 104 467 L 101 466 Q 98 465 100 464 L 99 463 Z M 181 463 L 180 469 L 181 469 L 181 463 Z M 206 463 L 204 467 L 203 470 L 204 473 L 206 467 L 206 463 Z M 241 463 L 225 482 L 227 487 L 230 486 Q 232 487 231 484 L 235 481 L 234 478 Q 237 471 240 477 Q 239 481 242 480 L 241 478 L 242 475 L 242 464 L 241 463 Z M 59 464 Q 58 467 62 466 Q 63 463 59 464 Z M 147 464 L 134 487 Q 133 491 128 490 L 128 488 L 122 495 L 121 499 Q 122 502 129 500 L 139 487 L 147 466 L 147 464 Z M 186 464 L 187 466 Q 188 463 186 464 Z M 199 465 L 199 467 L 201 466 L 199 465 Z M 186 466 L 185 470 L 187 469 L 186 466 Z M 39 467 L 37 470 L 37 471 Q 40 472 39 470 Q 41 468 39 467 Z M 84 467 L 80 469 L 85 469 L 84 467 Z M 149 467 L 143 485 L 134 499 L 135 500 L 144 500 L 145 497 L 145 493 L 143 496 Q 144 498 141 497 L 149 474 L 149 467 Z M 286 467 L 284 468 Q 277 470 279 481 L 282 479 Q 284 480 283 478 L 285 478 L 284 475 Q 286 476 288 473 L 288 467 L 286 467 Z M 299 468 L 298 470 L 303 470 Q 304 467 301 468 L 299 468 Z M 77 470 L 75 472 L 76 474 L 73 475 L 72 479 L 70 480 L 66 478 L 65 480 L 70 483 L 71 484 L 74 481 Q 72 474 77 476 Q 75 485 79 490 L 83 485 L 83 481 Q 87 479 86 473 L 85 471 L 77 470 Z M 182 470 L 182 480 L 183 473 L 182 470 Z M 21 471 L 19 473 Q 18 477 22 475 L 22 471 L 21 471 Z M 202 471 L 200 474 L 202 474 L 202 471 Z M 60 472 L 60 473 L 63 473 L 60 472 Z M 187 472 L 185 476 L 187 475 L 187 472 Z M 191 472 Q 189 478 193 481 L 194 481 L 192 479 L 191 472 Z M 267 472 Q 263 474 264 479 L 268 477 Q 269 473 267 472 Z M 273 473 L 270 477 L 272 477 L 273 475 L 273 473 Z M 36 474 L 34 476 L 37 476 L 34 482 L 36 484 L 38 480 L 39 483 L 39 482 L 40 482 L 39 487 L 38 484 L 36 485 L 37 490 L 37 492 L 36 494 L 37 495 L 40 490 L 42 481 Q 41 478 40 480 L 38 477 L 40 477 L 42 476 L 44 476 Q 46 477 45 474 L 39 474 L 38 475 L 36 474 Z M 89 475 L 86 481 L 87 485 L 89 479 L 89 475 Z M 197 476 L 197 478 L 199 477 L 197 476 Z M 238 476 L 236 478 L 237 480 L 238 478 L 238 476 Z M 322 476 Q 321 479 324 478 Q 325 475 322 476 Z M 18 477 L 18 480 L 17 478 L 15 482 Q 16 484 18 482 L 20 483 L 19 482 L 21 481 L 20 479 Q 21 476 18 477 Z M 47 477 L 46 480 L 47 480 L 47 477 Z M 92 477 L 91 480 L 92 480 L 92 477 Z M 137 477 L 127 484 Q 126 488 132 486 L 137 479 L 137 477 Z M 276 477 L 274 480 L 277 478 L 276 477 Z M 327 477 L 324 481 L 325 482 L 329 480 L 327 479 L 327 477 Z M 200 478 L 198 481 L 197 479 L 196 482 Q 198 485 200 481 L 200 478 Z M 321 478 L 320 482 L 322 483 Q 323 479 321 478 Z M 27 479 L 25 482 L 28 481 Q 29 478 27 479 Z M 179 479 L 174 492 L 174 500 L 179 500 L 182 496 L 183 500 Q 185 497 184 490 L 187 488 Q 188 495 185 499 L 186 500 L 192 500 L 193 494 L 192 491 Q 189 490 190 498 Q 189 501 187 498 Q 190 496 188 490 L 190 488 L 189 481 L 187 485 L 185 480 L 184 482 L 182 481 L 179 482 L 179 479 Z M 272 479 L 269 483 L 270 484 L 272 481 L 272 479 Z M 302 479 L 299 480 Q 297 485 303 483 L 304 484 L 303 481 Q 304 478 302 479 Z M 104 480 L 101 482 L 105 483 L 104 480 Z M 287 480 L 286 484 L 288 484 L 287 480 Z M 333 480 L 330 481 L 331 487 Q 333 486 331 485 L 332 482 L 334 483 L 333 480 Z M 204 481 Q 199 484 200 492 L 198 493 Q 196 491 195 494 L 195 500 L 203 500 L 202 498 L 204 492 L 204 481 Z M 278 481 Q 274 482 275 486 L 278 485 L 278 481 Z M 57 482 Q 56 485 60 484 Q 61 481 57 482 Z M 90 482 L 89 487 L 90 487 L 90 482 Z M 238 482 Q 237 485 240 484 Q 241 481 238 482 Z M 262 482 L 260 487 L 262 486 L 262 482 Z M 64 483 Q 66 486 65 494 L 65 496 L 64 499 L 67 500 L 69 496 Q 72 495 70 499 L 73 500 Q 73 495 77 493 L 75 486 L 71 487 L 64 483 Z M 196 483 L 195 487 L 196 487 L 196 483 Z M 225 483 L 223 487 L 225 486 L 225 483 Z M 283 484 L 282 489 L 285 488 Q 286 483 283 484 Z M 305 484 L 307 493 Q 309 492 307 491 L 308 486 L 305 484 Z M 16 485 L 16 487 L 18 488 Q 19 484 16 485 Z M 26 485 L 24 487 L 25 489 L 26 487 L 26 485 Z M 86 485 L 84 489 L 86 489 L 84 494 L 83 493 L 81 496 L 83 497 L 85 496 L 83 499 L 85 499 L 87 496 L 86 494 L 88 493 L 87 491 L 89 491 Q 91 485 86 487 L 86 485 Z M 251 485 Q 250 488 254 487 Q 255 484 251 485 Z M 266 485 L 264 487 L 266 488 L 266 485 Z M 318 485 Q 315 489 320 488 L 318 485 Z M 324 485 Q 323 488 326 487 Q 327 484 324 485 Z M 15 487 L 12 491 Q 13 493 15 491 L 16 492 L 14 492 L 18 499 L 19 495 L 18 495 L 17 493 L 20 494 L 21 490 L 19 491 L 15 490 L 15 487 Z M 273 487 L 271 489 L 272 493 L 273 490 Q 275 488 273 487 Z M 332 487 Q 332 491 329 493 L 331 494 Q 330 491 333 492 Q 334 488 332 487 Z M 28 488 L 23 498 L 25 498 L 28 492 L 28 488 Z M 230 488 Q 227 493 231 492 L 230 488 Z M 265 488 L 264 491 L 266 492 L 265 488 Z M 328 488 L 328 491 Q 331 490 328 488 Z M 323 489 L 323 492 L 325 491 Q 326 488 323 489 Z M 83 490 L 77 496 Q 76 500 79 499 L 78 497 L 80 497 L 83 492 L 83 490 Z M 92 490 L 88 499 L 88 500 L 92 500 L 92 490 Z M 320 490 L 318 494 L 321 492 L 322 493 L 322 492 L 320 490 Z M 23 491 L 21 494 L 22 497 L 23 495 L 23 491 Z M 44 491 L 41 495 Q 38 494 39 497 L 42 497 L 44 493 L 44 491 Z M 47 491 L 45 493 L 46 495 L 47 493 L 47 491 Z M 285 491 L 284 494 L 285 494 L 285 491 Z M 288 491 L 286 493 L 287 496 L 287 497 L 289 496 Q 291 490 288 491 Z M 326 491 L 326 498 L 328 498 L 326 491 Z M 60 492 L 60 496 L 62 497 Q 64 491 60 492 Z M 102 492 L 102 495 L 104 496 Q 105 491 102 492 Z M 229 492 L 228 495 L 229 495 L 229 492 Z M 241 492 Q 238 497 242 496 L 241 492 Z M 259 492 Q 258 496 261 495 Q 262 491 259 492 Z M 277 492 L 276 498 L 279 496 Q 280 491 277 492 Z M 29 493 L 26 499 L 28 499 L 29 497 L 29 493 Z M 223 493 Q 225 497 221 496 L 219 496 L 220 499 L 221 499 Q 220 496 224 497 L 225 495 Q 226 492 223 493 Z M 306 494 Q 305 497 308 496 Q 309 493 306 494 Z M 45 495 L 44 498 L 45 498 L 45 495 Z M 270 495 L 270 497 L 274 496 L 270 495 Z M 15 496 L 13 502 L 12 501 L 7 502 L 8 505 L 34 505 L 34 507 L 9 507 L 7 507 L 7 553 L 8 554 L 7 556 L 7 591 L 9 592 L 18 592 L 19 591 L 21 592 L 38 592 L 39 593 L 42 592 Q 47 591 49 593 L 52 592 L 61 592 L 62 593 L 67 592 L 69 593 L 88 592 L 89 591 L 91 592 L 112 591 L 113 590 L 118 591 L 132 590 L 133 589 L 134 590 L 147 590 L 149 590 L 158 590 L 168 592 L 178 590 L 180 590 L 182 591 L 185 590 Q 186 593 193 591 L 196 590 L 198 591 L 229 591 L 230 592 L 232 591 L 235 592 L 255 592 L 258 591 L 260 592 L 263 591 L 268 592 L 271 591 L 304 591 L 305 592 L 306 591 L 317 591 L 319 591 L 321 592 L 326 591 L 335 591 L 336 592 L 336 558 L 334 559 L 323 559 L 323 566 L 324 567 L 323 569 L 323 583 L 324 585 Q 322 588 320 584 L 320 568 L 321 567 L 320 566 L 320 559 L 316 559 L 316 565 L 314 565 L 311 561 L 315 558 Q 321 560 320 556 L 317 555 Q 312 556 313 554 Q 315 550 320 551 Q 321 548 318 549 L 320 545 L 316 546 L 316 547 Q 318 546 317 549 L 315 548 Q 310 549 311 547 L 317 544 L 320 544 L 320 537 L 327 536 L 329 536 L 332 537 Q 335 539 331 541 L 323 541 L 323 544 L 331 543 L 332 545 Q 328 544 329 547 L 333 546 Q 335 545 334 548 Q 327 546 324 550 L 332 551 L 332 552 L 323 552 L 323 558 L 326 558 L 328 557 L 330 558 L 333 558 Q 331 554 335 555 L 336 556 L 336 521 L 335 520 L 336 518 L 336 510 L 335 508 L 333 509 L 331 508 L 326 509 L 324 509 L 316 508 L 314 508 L 310 509 L 306 508 L 306 526 L 308 534 L 308 550 L 305 551 L 299 550 L 296 551 L 292 550 L 289 548 L 288 544 L 289 541 Q 290 536 288 535 L 289 533 L 288 530 L 289 527 L 289 518 L 288 517 L 289 515 L 288 513 L 289 511 L 288 509 L 282 508 L 280 508 L 268 508 L 267 509 Q 262 510 261 508 L 257 510 Q 260 516 258 527 L 258 529 Q 257 532 260 531 L 261 550 L 261 552 L 257 555 L 251 553 L 247 554 Q 242 555 241 552 Q 243 550 242 546 L 242 544 L 241 541 L 241 532 L 242 531 L 241 530 L 241 509 L 223 509 L 222 508 L 220 509 L 218 508 L 217 509 L 196 509 L 194 509 L 169 509 L 168 508 L 165 509 L 162 508 L 159 509 L 157 508 L 156 506 L 240 506 L 241 507 L 241 503 L 207 503 L 206 504 L 205 503 L 124 503 L 123 502 L 121 503 L 119 502 L 117 503 L 115 503 L 114 502 L 107 502 L 108 505 L 121 505 L 126 506 L 134 506 L 135 505 L 138 506 L 140 506 L 154 506 L 154 508 L 151 509 L 150 508 L 107 508 L 107 516 L 108 517 L 107 521 Q 110 524 108 533 L 109 534 L 109 555 L 99 557 L 94 556 L 91 554 L 92 552 L 91 509 Q 90 506 89 508 L 84 507 L 80 508 L 78 507 L 73 508 L 70 507 L 68 507 L 64 509 L 65 513 L 64 514 L 64 522 L 64 524 L 65 527 L 65 553 L 66 555 L 62 558 L 52 556 L 48 554 Q 46 547 49 546 L 48 537 L 48 535 L 48 516 L 49 515 L 48 513 L 48 507 L 39 507 L 40 505 L 48 505 L 48 502 L 20 502 L 19 501 L 17 502 L 15 499 Q 17 497 15 496 Z M 261 496 L 259 498 L 261 499 L 261 496 Z M 282 496 L 282 499 L 286 500 L 287 500 L 286 498 L 285 498 L 282 496 Z M 39 497 Q 37 500 40 499 L 39 497 Z M 317 497 Q 316 500 319 499 Q 320 496 317 497 Z M 104 498 Q 101 500 104 501 Q 107 500 104 498 Z M 210 498 L 208 500 L 210 500 L 210 498 Z M 226 498 L 224 500 L 227 500 L 226 498 Z M 241 498 Q 239 501 242 500 L 241 498 Z M 301 499 Q 300 502 304 501 Q 305 498 301 499 Z M 257 500 L 257 504 L 258 506 L 289 506 L 288 502 L 260 502 L 259 503 L 257 500 Z M 64 502 L 64 505 L 91 505 L 92 504 L 91 502 L 64 502 Z M 306 502 L 306 506 L 313 506 L 315 506 L 331 506 L 336 507 L 336 502 L 306 502 Z M 254 504 L 252 506 Q 251 508 254 507 L 254 504 Z M 104 512 L 102 516 L 102 517 L 105 516 L 105 512 L 104 512 Z M 101 519 L 101 521 L 103 520 L 102 522 Q 101 524 105 523 Q 107 517 101 519 Z M 103 526 L 103 528 Q 102 531 105 530 Q 107 525 103 526 Z M 254 527 L 249 528 L 249 530 L 255 530 L 254 527 Z M 103 532 L 104 535 L 106 534 L 103 532 Z M 249 532 Q 248 541 251 546 L 250 548 L 251 550 Q 250 553 253 552 Q 254 554 255 552 L 254 551 Q 251 550 254 548 L 256 549 L 258 548 Q 259 545 255 546 Q 253 548 252 546 L 253 543 L 257 544 Q 260 543 257 541 L 254 542 L 252 538 L 257 539 Q 258 535 253 537 Q 250 536 253 534 L 255 535 Q 258 536 257 533 L 255 532 L 252 533 L 249 532 Z M 103 537 Q 102 540 106 539 Q 107 536 103 537 Z M 326 537 L 325 538 Q 322 537 323 540 Q 328 541 329 539 L 326 537 Z M 101 543 L 100 546 L 101 546 L 101 543 Z M 104 545 Q 103 548 106 547 Q 107 544 104 545 Z M 323 545 Q 322 548 326 547 L 328 547 L 328 545 L 323 545 Z M 101 552 Q 100 555 104 554 Q 105 551 101 552 Z M 318 552 Q 315 554 318 555 Q 321 556 320 554 L 318 552 Z "></path><path d="M 165.5 17 L 170.5 18 L 173.5 17 L 178.5 18 L 180.5 18 L 184.5 17 L 188.5 18 L 193.5 17 L 195.5 17 L 197.5 18 L 200 17 L 200 19 L 193.5 19 L 193 20.5 Q 188.3 24.7 188 32 L 194 32.5 Q 192.8 35.3 191.5 33 L 161 32.5 L 168 29.5 L 167 19 L 158 18.5 L 165.5 17 Z M 174 18 L 171 19 L 171 30 L 173 31 L 178 30 L 182 31 L 181 28 L 174 18 Z M 180 19 Q 180 24 184 27 Q 183 29 186 28 L 190 20 L 180 19 Z "></path><path d="M 292.5 90 Q 296.3 89 295 92 L 291 93 L 292.5 90 Z "></path><path d="M 291.5 94 Q 294.3 95.3 292 96.5 L 291.5 100 L 291.5 94 Z "></path><path d="M 305.5 101 L 308 101.5 Q 305.9 104.8 305.5 101 Z "></path><path d="M 305.5 105 L 306 107 L 304 106.5 L 305.5 105 Z "></path><path d="M 279 125 Q 282 123.8 281 127.5 L 279 126.5 L 279 125 Z "></path><path d="M 277.5 129 Q 281.3 127.8 280 131.5 L 277.5 129 Z "></path><path d="M 261.5 131 L 263 134 Q 259.3 135.5 260 132.5 L 261.5 131 Z "></path><path d="M 260.5 135 L 262.5 135 Q 265.5 134.2 264 138 L 259 138 L 259 136.5 L 260.5 135 Z "></path><path d="M 122.5 139 L 125 140 L 123.5 143 L 120 141.5 L 122.5 139 Z "></path><path d="M 100 141 L 103 142.5 Q 103.7 145.5 100 144 L 100 141 Z "></path><path d="M 93 144 L 97 145.5 L 94.5 147 L 93 144 Z "></path><path d="M 158 146 Q 161 145 160 148 Q 157 149 158 146 Z "></path><path d="M 192.5 146 Q 195.1 145.2 194 148.5 Q 192.5 151.5 191 148.5 L 192.5 146 Z "></path><path d="M 140 147 Q 143.3 145.9 142 150 Q 138.7 151.1 140 147 Z "></path><path d="M 214 148 L 217 149.5 Q 215.5 152.5 214 149.5 L 214 148 Z "></path><path d="M 164 149 Q 167.3 147.9 166 152 Q 162.7 153.1 164 149 Z "></path><path d="M 191.5 151 Q 194.5 152.5 191.5 154 Q 188.5 152.5 191.5 151 Z "></path><path d="M 194 152 L 197 152.5 L 194 154 L 194 152 Z "></path><path d="M 315 153 Q 318 152 317 155 Q 314 156 315 153 Z "></path><path d="M 312 156 Q 316.1 154.7 315 158 Q 310.9 159.3 312 156 Z "></path><path d="M 95.5 160 L 96 164 L 94 163.5 L 95.5 160 Z "></path><path d="M 94.5 166 L 95 169 Q 92.3 170.1 93 167.5 L 94.5 166 Z "></path><path d="M 212.5 167 L 214 171.5 L 213 174 Q 209 175.4 211 168.5 L 212.5 167 Z "></path><path d="M 305.5 170 L 306 173 Q 303.3 174.1 304 171.5 L 305.5 170 Z "></path><path d="M 84 171 Q 87 170 86 173 Q 83 174 84 171 Z "></path><path d="M 100.5 171 Q 104.3 170 103 173 L 100.5 171 Z "></path><path d="M 306 174 Q 309 173 308 176 Q 305 177 306 174 Z "></path><path d="M 99 175 Q 104.6 173.1 103 178 L 99 177 L 99 175 Z "></path><path d="M 283 175 Q 286.8 173.5 286 176.5 Q 284.5 179.5 283 176.5 L 283 175 Z "></path><path d="M 246.5 183 L 250 184.5 L 247.5 185 L 246.5 183 Z "></path><path d="M 251.5 184 Q 253.8 183.3 253 185.5 L 251.5 184 Z "></path><path d="M 100.5 185 L 104 186 L 103 188.5 Q 105.3 189.8 102.5 191 L 100 190 L 99 186.5 L 100.5 185 Z "></path><path d="M 282 190 Q 285.3 188.9 284 193 Q 280.7 194.1 282 190 Z "></path><path d="M 51.5 194 L 55 194.5 L 51.5 195 L 51.5 194 Z "></path><path d="M 53.5 201 L 54 203.5 L 53 205.5 L 53.5 207 Q 50.1 207.9 52 202.5 L 53.5 201 Z "></path><path d="M 126 203 L 129 204.5 L 130 208.5 L 128.5 208 Q 125.9 208.8 127 205.5 L 126 203 Z "></path><path d="M 206 209 Q 209.3 207.9 208 212 Q 204.7 213.1 206 209 Z "></path><path d="M 52.5 210 L 53 212 L 56.5 211 L 58 214.5 L 56.5 214 Q 52.1 215.5 53 212.5 L 52.5 210 Z "></path><path d="M 180.5 212 L 182 215 L 179 213.5 L 180.5 212 Z "></path><path d="M 110 213 Q 113 211.8 112 215.5 L 110 214.5 L 110 213 Z "></path><path d="M 201.5 213 Q 203.8 212.3 203 214.5 L 203.5 216 L 200 214.5 L 201.5 213 Z "></path><path d="M 221 217 L 224 218.5 L 221 220 L 221 217 Z "></path><path d="M 195 218 L 198 219.5 L 195 220 L 195 218 Z "></path><path d="M 244.5 219 L 246 222.5 L 244 223.5 L 245 221.5 L 244.5 219 Z "></path><path d="M 152.5 221 L 154 224 Q 150.2 225.5 151 222.5 L 152.5 221 Z "></path><path d="M 221.5 222 Q 224.1 221.3 223 224 L 220 223.5 L 221.5 222 Z "></path><path d="M 96.5 223 L 98 226.5 L 97 229.5 L 97 231.5 L 98 233.5 L 96.5 240 Q 93.7 238.8 96 237.5 Q 97.5 232 95 230.5 L 97 225.5 L 96.5 223 Z "></path><path d="M 196.5 223 L 199 224.5 L 197.5 225 L 196.5 223 Z "></path><path d="M 51.5 224 L 52 230.5 L 51 230.5 L 50 226.5 L 51.5 224 Z "></path><path d="M 245.5 226 L 244.5 228 L 245.5 226 Z "></path><path d="M 294.5 235 Q 299 234 300 236.5 L 295.5 237 L 294.5 235 Z "></path><path d="M 51.5 238 L 52 251.5 L 51 251.5 L 51.5 238 Z "></path><path d="M 292.5 240 L 295 240.5 L 292.5 241 L 292.5 240 Z "></path><path d="M 55.5 244 Q 57.8 243.3 57 245.5 L 55.5 249 L 53 245 L 55.5 244 Z "></path><path d="M 101.5 245 Q 105.3 244 104 247 L 100 246.5 L 101.5 245 Z "></path><path d="M 100 249 Q 104.1 247.7 103 251 Q 98.9 252.3 100 249 Z "></path><path d="M 189 251 Q 192 249.8 191 253.5 L 189 252.5 L 189 251 Z "></path><path d="M 100 253 Q 105.2 251.3 104 255 Q 98.8 256.7 100 253 Z "></path><path d="M 100.5 256 L 102.5 259 Q 105.1 258.3 104 261 L 99 259.5 L 100.5 256 Z "></path><path d="M 190.5 256 Q 193.5 257.5 190.5 259 L 190.5 256 Z "></path><path d="M 295.5 256 L 299 256.5 L 295.5 257 L 295.5 256 Z "></path><path d="M 189.5 260 L 194 261 L 194 268.5 L 197 273.5 L 197 279.5 L 199 285.5 L 208 301 L 217 307 L 219.5 311 L 223 313.5 Q 223.8 317.8 221 318.5 L 221 323.5 L 222 326.5 L 223 332.5 L 220 334 L 217 325.5 L 218 320.5 L 216 314 Q 212.4 311.8 203.5 313 L 202.5 312 L 185.5 312 L 165.5 316 Q 164.3 313.8 163 316.5 L 162.5 318 L 160 312.5 L 173 298.5 Q 181.9 285.3 187 269 Q 191.1 267.3 190 271.5 L 188 275.5 L 190 275.5 L 189 278.5 Q 190.5 281.5 192 278.5 Q 191.1 271.7 193 269 Q 190.3 270.1 191 267.5 L 192 264.5 L 190 263.5 Q 191 267.3 188 266 Q 186.8 261.4 189.5 260 Z M 194 272 L 193 280 L 194 280 L 194 272 Z M 188 277 L 184 284 L 187 283 L 184 290 L 185 290 Q 184 287 187 288 L 189 288 Q 191 287 190 290 Q 187 291 188 289 L 185 291 Q 184 296 186 298 Q 185 300 188 299 L 187 296 L 190 294 L 189 297 L 191 300 L 190 302 Q 193 303 189 305 Q 192 306 191 309 L 196 309 L 196 306 L 196 304 Q 195 299 197 298 L 195 293 L 196 291 L 194 290 L 192 293 L 189 293 L 191 292 L 192 286 L 195 284 L 196 285 L 195 281 L 192 281 L 193 283 L 190 287 L 188 284 L 190 284 L 191 282 L 187 281 L 188 279 L 188 277 Z M 184 284 L 182 288 L 184 287 L 184 284 Z M 194 287 L 194 289 L 196 288 L 194 287 Z M 182 288 L 180 293 L 181 293 Q 180 290 183 291 L 184 292 L 182 288 Z M 197 288 L 197 290 Q 195 294 199 293 L 200 294 L 198 290 Q 199 287 197 288 Z M 180 293 L 176 298 L 177 299 L 179 298 L 181 298 L 182 294 L 180 293 Z M 201 294 L 200 297 L 201 297 L 201 294 Z M 183 296 L 181 299 L 182 302 L 181 304 L 179 305 L 179 304 L 178 303 L 176 305 L 173 304 L 171 307 L 173 306 L 172 308 L 173 310 L 173 311 L 183 310 L 184 308 L 184 310 L 190 309 L 188 308 L 187 301 L 185 301 L 185 306 Q 181 305 182 309 L 177 309 L 179 306 L 180 308 L 180 307 L 184 304 L 183 296 Z M 202 297 L 200 299 Q 199 302 203 301 L 202 300 L 203 298 L 202 297 Z M 176 299 L 173 303 L 174 304 L 176 301 L 177 303 L 179 300 L 178 300 L 176 299 Z M 204 301 L 203 302 Q 199 301 201 306 L 200 306 Q 201 301 199 302 L 199 304 L 197 307 L 202 307 Q 201 304 204 303 L 204 301 Z M 206 302 L 205 304 L 206 305 L 203 304 L 203 307 L 208 307 L 209 310 L 211 308 L 206 302 Z M 169 307 L 164 313 L 168 310 L 167 312 L 169 312 Q 171 311 169 310 L 171 310 L 172 310 L 169 307 Z M 203 308 L 204 310 L 205 310 L 203 308 Z M 212 308 L 210 310 L 213 310 L 212 308 Z "></path><path d="M 53.5 268 L 54 270.5 L 53 270.5 L 53.5 268 Z "></path><path d="M 56 275 L 60 276.5 Q 58.8 279.3 57.5 277 Q 54.9 277.7 56 275 Z "></path><path d="M 51.5 279 L 52 284.5 L 50 285.5 L 51 283.5 L 50 281.5 L 51.5 279 Z "></path><path d="M 99.5 282 L 100 286.5 L 99 286.5 L 99.5 282 Z "></path><path d="M 96.5 288 L 97.5 290 L 98 288 Q 101 287 100 290 L 96.5 292 L 96 289.5 L 96.5 288 Z "></path><path d="M 96 293 L 99 294.5 L 97 294.5 L 96.5 297 L 96 293 Z "></path><path d="M 191 294 Q 195.5 292.5 194 297 Q 189.5 298.5 191 294 Z "></path><path d="M 192 298 Q 196 296.6 194 303.5 L 195 305.5 L 194 308 Q 190.3 309.4 192 303.5 L 193 301.5 L 192 298 Z "></path><path d="M 174.5 306 Q 176.8 305.3 176 307.5 L 174.5 306 Z "></path><path d="M 49.5 310 L 52.5 311 L 54 310.5 Q 52.8 313.3 51.5 311 Q 48.5 311.5 49.5 310 Z "></path><path d="M 100.5 312 L 101 314.5 L 100 314.5 L 100.5 312 Z "></path><path d="M 50.5 314 L 55 314.5 L 52 315 L 51.5 317 L 50.5 314 Z "></path><path d="M 56 314 L 59 315.5 L 56 316 L 56 314 Z "></path><path d="M 184.5 314 Q 190 313 191 316.5 Q 192.5 322.5 189.5 324 Q 183 325 182 320.5 Q 180.8 314.4 183.5 315 L 184.5 314 Z "></path><path d="M 53.5 316 L 54 320 L 51.5 321 Q 48.5 319.5 51.5 318 L 53 318.5 L 53.5 316 Z "></path><path d="M 248.5 317 L 249 319.5 L 248 319.5 L 248.5 317 Z "></path><path d="M 164 318 L 168 319 L 169 327.5 L 168 328.5 L 168 336.5 L 172 340.5 L 172 342.5 L 170.5 349 Q 168.1 346.9 169 341.5 L 166 338.5 L 165 333.5 L 166 332.5 L 166 321.5 L 164 318 Z "></path><path d="M 292.5 327 L 293 330.5 L 292 330.5 L 292.5 327 Z "></path><path d="M 96.5 332 L 97 336.5 L 96 336.5 L 96.5 332 Z "></path><path d="M 51.5 333 L 53 337 L 50.5 338 L 51 336.5 L 51.5 333 Z "></path><path d="M 292 333 Q 295 332 294 335 Q 291 336 292 333 Z "></path><path d="M 226.5 334 Q 229.5 333.1 228 337.5 L 225 339 Q 224 335.2 226.5 334 Z "></path><path d="M 54.5 335 L 55 337.5 L 54 337.5 L 54.5 335 Z "></path><path d="M 245.5 336 L 246 344 L 244 343.5 L 245.5 336 Z "></path><path d="M 87 337 Q 90 336 89 339 Q 86 340 87 337 Z "></path><path d="M 96.5 338 L 97 345.5 L 96 345.5 L 96.5 338 Z "></path><path d="M 293.5 338 L 293 339.5 L 292.5 341 L 292 339.5 L 293.5 338 Z "></path><path d="M 292.5 342 Q 294.8 341.3 294 343.5 L 292.5 342 Z "></path><path d="M 226.5 344 L 228 346.5 L 227 347.5 L 227 355.5 L 225.5 357 L 224 354.5 L 225 353.5 L 225 345.5 L 226.5 344 Z "></path><path d="M 245 350 L 248 350.5 L 245.5 352 L 245 350 Z "></path><path d="M 245 354 L 247 354.5 L 245 355.5 L 245 354 Z "></path><path d="M 296 355 L 300 356.5 L 298.5 359 L 295 357.5 L 296 355 Z "></path><path d="M 86 356 Q 89 355 88 358 Q 85 359 86 356 Z "></path><path d="M 221 360 L 223 360.5 L 223 367 Q 220 368.3 221 364.5 L 220 362.5 L 221 360 Z "></path><path d="M 49.5 363 Q 52.8 361.9 52 364.5 L 50.5 364 L 49.5 363 Z "></path><path d="M 71 366 Q 73.7 364.9 73 367.5 L 71 368.5 L 71 366 Z "></path><path d="M 97.5 367 L 97 368.5 L 96.5 379 L 96 368.5 L 97.5 367 Z "></path><path d="M 221 370 L 223 370.5 L 223 387.5 L 222 388.5 L 221 401.5 Q 223.5 403 222 408.5 L 221 411.5 Q 222.1 415.7 218 414 L 219 411.5 L 220 372.5 L 221 370 Z "></path><path d="M 168 371 L 173 372 Q 174 375 171 374 L 170.5 372 L 168 373 L 168 371 Z "></path><path d="M 53.5 372 L 55 374.5 L 54 374.5 L 53.5 372 Z "></path><path d="M 138.5 373 L 139 375 L 137 374.5 L 138.5 373 Z "></path><path d="M 168 375 L 171 376.5 L 168 377 L 168 375 Z "></path><path d="M 246.5 380 L 247 382.5 L 246 382.5 L 246.5 380 Z "></path><path d="M 97.5 383 L 98 389.5 L 97 389.5 L 97.5 383 Z "></path><path d="M 99.5 383 L 101 385.5 L 99 386 L 99.5 383 Z "></path><path d="M 69 386 L 73 387.5 L 72 391 L 69 391 L 69 386 Z "></path><path d="M 185.5 386 L 186.5 388 L 185.5 386 Z "></path><path d="M 97.5 395 L 99 397.5 L 97.5 401 L 97.5 395 Z "></path><path d="M 51.5 397 L 53 399.5 L 51 400.5 L 53 404.5 L 51.5 405 Q 48.8 403.8 51 402.5 L 50 400.5 L 51.5 397 Z "></path><path d="M 246.5 411 L 246.5 414 Q 243.5 412.5 246.5 411 Z "></path><path d="M 96.5 413 L 97 415.5 L 96 415.5 L 96.5 413 Z "></path><path d="M 52.5 415 L 51.5 417 L 52.5 415 Z "></path><path d="M 98.5 416 L 99 418.5 L 98 418.5 L 98.5 416 Z "></path><path d="M 51.5 418 L 53 423.5 L 51 424 L 51.5 418 Z "></path><path d="M 51.5 425 L 53 427.5 L 51.5 430 L 51 428.5 L 51 426.5 L 51.5 425 Z "></path><path d="M 37.5 426 L 38 428.5 L 37 428.5 L 37.5 426 Z "></path><path d="M 96.5 427 L 97 430.5 L 96 430.5 L 96.5 427 Z "></path><path d="M 293.5 430 L 295 438.5 L 294 441.5 L 295 443.5 L 293 442.5 L 294 438.5 L 293 437.5 L 293.5 430 Z "></path><path d="M 295.5 431 L 298.5 433 L 300 432.5 Q 301.1 435.8 298.5 435 Q 296.8 437.7 295 433.5 L 295.5 431 Z "></path><path d="M 245.5 438 L 247 438 L 247 443 L 245 442.5 L 246 439.5 L 245.5 438 Z "></path><path d="M 52.5 443 L 52 444.5 L 51.5 446 L 51 444.5 L 52.5 443 Z "></path><path d="M 246.5 445 L 247 448.5 L 246 448.5 L 246.5 445 Z "></path><path d="M 294.5 446 L 295 448 L 293 447.5 L 294.5 446 Z "></path><path d="M 97.5 450 L 99 453.5 L 98 453.5 L 97.5 450 Z "></path><path d="M 246.5 451 L 247 461.5 L 246 461.5 L 246.5 451 Z "></path><path d="M 297 451 L 301 451 L 301 452.5 Q 299.8 455.8 296 455 L 297 451 Z "></path><path d="M 299.5 458 Q 302.5 457.2 301 461 L 297 462 Q 295.5 458.2 298.5 459 L 299.5 458 Z "></path><path d="M 56.5 463 L 55.5 465 L 56.5 463 Z "></path><path d="M 31 464 Q 34 463 33 466 Q 30 467 31 464 Z "></path><path d="M 52.5 466 L 53 468.5 L 52 468.5 L 52.5 466 Z "></path><path d="M 261.5 467 L 262 469.5 L 261 469.5 L 261.5 467 Z "></path><path d="M 51.5 470 L 53 472.5 L 51 471.5 L 51.5 470 Z "></path><path d="M 247.5 471 L 248 473 L 253 473 L 253 475 L 249.5 476 L 247 475 L 247.5 471 Z "></path><path d="M 325 471 Q 328 470 327 473 Q 324 474 325 471 Z "></path><path d="M 258 472 Q 261 470.8 260 474.5 L 258 473.5 L 258 472 Z "></path><path d="M 98.5 474 L 99 478.5 L 97 479.5 L 98.5 474 Z "></path><path d="M 306.5 480 Q 308.8 479.3 308 481.5 L 306.5 480 Z "></path><path d="M 294.5 481 L 295 483.5 L 294 483.5 L 294.5 481 Z "></path><path d="M 97 484 L 99 484.5 L 99 491 Q 96.3 492.1 97 489.5 L 98 486.5 L 96 486.5 L 97 484 Z "></path><path d="M 115 484 L 117 484.5 L 115 485.5 L 115 484 Z "></path><path d="M 214.5 485 L 215.5 487 Q 212.7 487.7 214.5 485 Z "></path><path d="M 294.5 485 L 295.5 487 Q 292.7 487.7 294.5 485 Z "></path><path d="M 180 486 Q 183.3 484.7 182 489.5 L 180 495 Q 177 496.3 178 492.5 L 180 486 Z "></path><path d="M 112.5 487 Q 115.1 486.3 114 489 L 116 489 L 116 490.5 L 113 492.5 L 114 489.5 L 112 488.5 L 111.5 491 L 110 488 L 112.5 487 Z "></path><path d="M 294.5 490 L 297 490.5 L 294.5 491 L 294.5 490 Z "></path><path d="M 108 491 L 111 492.5 Q 112.5 497.8 108 496 L 108 491 Z "></path><path d="M 248.5 491 L 247.5 493 L 248.5 491 Z "></path><path d="M 98.5 492 L 99 495 L 97 494.5 L 98.5 492 Z "></path><path d="M 68 493 L 70 493.5 L 68 494.5 L 68 493 Z "></path><path d="M 71 493 Q 74.3 491.9 73 496 Q 69.7 497.1 71 493 Z "></path><path d="M 98.5 496 L 99 497.5 L 97 498.5 L 98.5 496 Z "></path><path d="M 35 505 Q 39.1 503.7 38 507 Q 33.9 508.3 35 505 Z "></path><path d="M 95.5 513 L 96 515.5 L 95 515.5 L 95.5 513 Z "></path><path d="M 250.5 516 L 254 517.5 L 253.5 519 L 249 517.5 L 250.5 516 Z "></path><path d="M 95.5 518 L 96 524.5 L 95 524.5 L 95.5 518 Z "></path><path d="M 57.5 523 L 61 523.5 L 56 526 L 57.5 523 Z "></path><path d="M 296.5 526 L 299 527.5 L 297 530.5 L 297 532.5 Q 297.6 537.9 296 540 L 293 539.5 L 294 537.5 L 293 535.5 L 294 533.5 L 294 531.5 Q 292.1 526.1 295.5 527 L 296.5 526 Z "></path><path d="M 95.5 530 L 97 530.5 L 97 541.5 L 96 541.5 L 96 531.5 L 95.5 530 Z "></path><path d="M 57 537 L 61 537.5 L 57 539 L 57 537 Z "></path><path d="M 302 544 Q 305.8 542.5 305 545.5 Q 303.5 548.5 302 545.5 L 302 544 Z "></path><path d="M 324.5 554 L 325.5 556 Q 322.7 556.7 324.5 554 Z "></path><path d="M 327 554 L 330 554.5 L 327.5 556 L 327 554 Z "></path><path d="M 328.5 565 L 331 566 Q 332.1 568.7 329.5 568 L 327.5 569 L 326 566 L 328.5 565 Z "></path><path d="M 345.5 589 L 346 591.5 L 345 591.5 L 345.5 589 Z "></path></svg>