<svg width="350" height="600" version="1.1" xmlns="http://www.w3.org/2000/svg" desc="Created with imagetracer.js version 1.2.5"><path d="M 6.5 5 Q 11.2 3.7 12.5 6 L 72.5 6 L 73.5 7 L 84.5 7 L 86.5 7 L 130.5 7 L 131.5 8 L 133.5 7 L 135.5 7 L 140.5 8 L 142.5 7 L 144.5 8 L 145.5 7 L 222.5 7 L 225.5 8 L 226.5 7 L 235.5 7 L 237.5 8 Q 238.8 5.8 243.5 7 L 248.5 8 Q 250 5.5 255.5 7 L 256.5 8 L 265.5 8 L 267.5 7 L 268.5 8 L 319.5 8 L 320.5 9 L 322.5 8 L 324.5 9 L 326.5 9 L 333.5 9 L 334 10.5 L 335 11.5 L 335 206.5 Q 337.5 208 336 213.5 L 335 215.5 L 335 217.5 L 335 279.5 L 336 280.5 L 336 292.5 L 336 294.5 L 336 356.5 L 337 357.5 L 337 367.5 L 336 368.5 L 336 411.5 L 337 413.5 L 336 414.5 L 336 424.5 L 337 427.5 L 336 431.5 L 337 434.5 L 336 435.5 L 336 445.5 L 337 447.5 L 337 449.5 L 337 457.5 L 336 458.5 L 337 459.5 L 337 485.5 L 336 486.5 L 336 523.5 L 337 524.5 L 337 551.5 L 337 553.5 Q 338.2 558.2 336 559.5 L 336 594 L 274.5 594 L 271.5 595 L 270.5 594 L 170.5 593 L 168.5 594 L 167.5 593 L 150.5 593 L 149.5 594 L 109.5 594 L 108.5 593 L 93.5 593 L 88.5 594 L 86.5 594 L 56.5 595 L 55.5 594 L 29.5 594 L 28.5 593 L 12.5 592 L 9.5 593 Q 2.8 595.3 5 588.5 Q 2.8 587.3 4 582.5 L 4 580.5 L 4 542.5 L 5 539.5 L 4 538.5 L 4 502.5 L 3 501.5 L 4 500.5 L 4 491.5 L 4 489.5 L 3 484.5 L 4 482.5 L 3 478.5 L 4 475.5 L 3 471.5 L 3 469.5 L 3 453.5 L 4 452.5 L 3 450.5 L 4 448.5 L 3 447.5 L 3 435.5 L 3 433.5 Q 1.3 420.8 4 412.5 L 3 407.5 L 3 405.5 L 5 398.5 L 4 394.5 L 5 390.5 L 5 388.5 L 4 384.5 L 5 383.5 L 5 374.5 L 4 369.5 Q 8 367.5 4 365.5 Q 2.8 360.8 5 359.5 L 5 357.5 L 4 353.5 L 5 351.5 L 4 347.5 L 4 345.5 L 5 337.5 L 5 335.5 L 4 306.5 L 4 304.5 L 5 275.5 L 4 273.5 Q 6.5 272 5 266.5 L 4 263.5 L 5 261.5 L 4 259.5 L 5 258.5 L 5 236 L 7 236.5 L 6 237.5 L 6 246.5 L 7 250.5 L 6 251.5 L 6 259.5 L 7 262.5 L 6 263.5 L 6 276.5 L 7 279.5 L 6 281.5 L 7 284.5 L 7 304.5 L 8.5 305 L 10.5 305 L 13 302.5 L 13 291.5 L 15.5 288 L 19.5 285 L 20 286.5 Q 14 288.5 16 298.5 L 21.5 294 L 28 296 L 28.5 300 L 32 299 L 32 278.5 L 33 276.5 L 33 274.5 L 33 257.5 L 35 254.5 L 34 253.5 L 34 219.5 L 35 215.5 Q 32.7 214.3 34 209.5 L 34 207.5 L 34 144.5 L 33 143.5 L 33 141.5 L 34 132.5 Q 30.5 128.5 32 119.5 L 34 113.5 L 31 111.5 Q 32.1 114.8 29.5 114 Q 26.5 113.5 27 109.5 L 32 106.5 L 31 97 L 37 98 L 38 103 L 43.5 100 Q 46.5 100.5 46 104.5 L 43.5 108 L 40 109.5 L 45.5 117 L 48 118.5 L 51 125.5 L 51 130.5 L 48 136.5 L 49 139.5 L 47 142.5 L 47 166.5 L 46 171.5 L 47 172.5 L 47 181.5 L 46 183.5 L 47 185.5 L 47 187.5 L 47 211.5 L 46 212.5 L 46 236.5 L 45 240.5 L 46 242.5 L 45 243.5 L 45 296.5 L 44 297.5 L 45 300.5 L 44 302.5 L 46.5 301 L 50.5 298 L 53 298 L 54 284.5 L 55 283.5 L 55 271.5 L 57 262.5 L 59 220.5 L 60 219.5 L 60 207.5 L 61 206.5 L 61 204.5 L 61 193.5 L 60 191.5 L 62 187.5 L 64 135.5 L 64 133.5 L 63 131.5 Q 65.8 129.8 64 123.5 L 65.5 122 Q 67.8 122.8 67 120.5 L 72 116.5 L 70.5 114 L 67.5 115 Q 64.8 113.6 66 109 Q 71.1 108 72.5 112 L 73 110.5 Q 68.9 107.3 70 100 L 72 99.5 L 70 98.5 Q 72 95 74 99.5 Q 76.9 104.1 76 112.5 L 74 117.5 L 76 116.5 Q 75.3 114.3 77.5 115 Q 79.3 112.3 81 116.5 L 79 121.5 Q 82 123.5 81 129.5 L 77 132 L 78 137.5 L 76 142.5 L 75 159.5 L 75 161.5 L 75 178.5 L 74 179.5 L 73 204.5 L 75 203.5 Q 74.5 199.5 77.5 199 L 87 194 Q 86 187.6 91.5 186 L 96.5 183 L 114.5 178 L 118.5 179 L 120.5 178 L 122.5 179 L 123.5 178 L 131 178 L 132.5 175 L 137 174 Q 135.9 176.7 138.5 176 L 142 178.5 L 144.5 183 Q 147.1 182.2 146 185.5 L 142.5 189 L 135 192.5 L 136 196.5 L 136 198.5 L 136 204.5 L 140 213.5 L 137 216.5 L 136 227.5 L 134.5 229 L 126.5 229 L 125 230.5 Q 124.1 233.5 128.5 232 Q 131.3 233.3 130 238.5 L 130 240.5 L 130 242.5 L 145 260.5 L 146 264 Q 148.7 262.9 148 265.5 Q 161.8 284.7 170.5 309 L 184.5 303 L 188 304 L 188 302 Q 190.7 303.1 190 300.5 L 188 298.5 L 186 277.5 L 184 273.5 L 184 271.5 L 180 248.5 L 176 237.5 L 172 216.5 L 170.5 215 L 166 214 L 165 219 L 162.5 220 Q 158.1 218.4 159 211.5 L 164 209 L 162.5 206 L 158.5 207 Q 155.3 205.3 155 200.5 L 156 196 Q 158.7 194.9 158 197.5 L 160 201 L 163 199.5 L 164.5 197 Q 168.7 198.3 167 193.5 L 163 179.5 L 162 170.5 L 160 164.5 L 157.5 162 L 155 160.5 L 153 155.5 L 155.5 151 L 160 148.5 L 159.5 145 L 155.5 147 Q 151 145 154.5 143 L 158 141.5 L 151 137.5 Q 150.3 133.8 152.5 133 L 155.5 139 L 157 135.5 L 154.5 132 L 152 130.5 L 153.5 128 L 159.5 135 L 163.5 133 L 166 134 Q 165.6 138.7 161.5 141 L 159.5 140 L 160.5 142 Q 163.5 141.1 162 145.5 L 163 145.5 L 164.5 142 L 168 143.5 L 166.5 146 L 165 146.5 L 172 151.5 Q 171.3 157.2 174 159.5 L 174 168 Q 177.3 166.7 176 171.5 L 185 207.5 L 185 209.5 L 188 224.5 Q 185.8 225.8 188.5 227 L 191.5 222 Q 193.8 222.8 193 220.5 L 194 216.5 L 193 216.5 L 192 221 Q 188.2 222.5 189 219.5 L 191 214 Q 195.7 213 197 216.5 L 197 222.5 L 201 227.5 Q 200 230 195.5 229 L 191.5 227 L 189 228 L 188 231.5 L 191 239.5 L 192 251.5 L 194 255.5 L 198.5 284 L 199 264.5 L 200 263.5 L 202 238.5 L 203 237.5 L 203 213.5 L 204 212.5 L 204 193.5 L 205 188.5 L 205 186.5 L 205 156.5 Q 207.8 154.8 206 148.5 L 205 146 L 201.5 145 L 198.5 146 L 196 145 L 193.5 141 L 193 143 L 188 140.5 L 187 133 Q 183.2 133.8 182 130.5 L 181 124 Q 178.3 125.1 179 122.5 L 178 118.5 L 179 114 Q 175 115.4 177 108.5 L 181.5 102 Q 184.1 102.8 183 99.5 L 182 97.5 L 185.5 92 Q 188.3 92.6 187 86.5 L 188 84 L 192.5 85 L 194.5 85 L 198.5 87 Q 199.8 84.3 204 84.5 L 201 83 Q 199.5 77.6 202.5 76 L 205 75.5 Q 202.3 74.8 203 70.5 L 205 67 L 210.5 70 L 212 66.5 L 211 65.5 L 211 56.5 L 212 54.5 L 211 52.5 L 213 44.5 L 212 43.5 L 215.5 40 L 218 39.5 L 212 35.5 Q 209.8 28.8 216.5 31 L 219 32 L 219 26.5 L 221 23 L 225 23 L 225 24.5 Q 227.8 26.3 226 32.5 L 225 35 Q 230.3 34.4 233 38.5 L 231.5 41 L 225.5 42 L 223 40.5 L 224.5 43 L 228 44 L 231 49.5 L 226 57.5 L 225 70.5 L 226 70.5 L 227.5 68 Q 234.5 66.5 236 70.5 Q 235.9 76.9 231.5 79 L 230 79.5 L 235 81.5 L 234 85.5 L 236.5 86 L 243.5 78 L 245 78.5 L 242 82.5 L 244.5 81 Q 248.9 82.5 248 79.5 L 247.5 78 L 257.5 82 L 267.5 74 L 272.5 73 L 275 77.5 L 273 81 Q 270.3 79.9 271 82.5 L 273 82.5 L 276 88.5 L 276 91.5 L 275 91.5 L 274.5 90 L 272 90.5 L 271.5 92 Q 270.1 87.3 265 88 Q 264.2 82.5 267 79.5 L 262.5 83 Q 259 85.5 251.5 84 L 246.5 83 L 239 89.5 Q 238.3 91.8 240.5 91 L 245 97.5 L 241 99.5 L 249 104.5 L 250 107.5 L 248 111.5 L 247 122.5 Q 250 124.8 249 130 L 245.5 131 L 244 130.5 Q 243.8 135.3 240.5 137 Q 236.5 136.5 236 139.5 L 233.5 143 L 223.5 147 L 221 146 L 222 148.5 L 221 149.5 L 221 162.5 L 219 168.5 L 219 180.5 L 217 189.5 L 216 227.5 L 214 238.5 L 214 240.5 L 214 260.5 L 213 261.5 L 213 279.5 L 212 280.5 L 212 292 Q 215.8 291 217 293.5 L 218 297.5 L 218 299.5 L 218 305 L 215.5 305 L 216 306.5 L 214 314 L 218.5 311 L 227 309 L 226 303.5 L 230 301 L 232.5 294 L 236.5 293 L 240 295 L 242.5 291 Q 245.8 289.9 245 292.5 L 247 296.5 L 246 299 Q 250.1 297.3 249 301.5 L 251.5 300 Q 254.1 300.8 253 297.5 L 251 290.5 L 251 283.5 L 249 279.5 L 249 266.5 L 248 265.5 L 248 259.5 L 244 239.5 L 244 231.5 L 242 222 L 238 222 L 238 220.5 L 236 219.5 Q 237.3 223.3 233.5 222 Q 231.8 224.8 230 220.5 Q 228.5 216.1 231.5 217 L 235 215.5 L 234 213 L 229 213 L 229 211.5 L 226 205.5 L 227.5 205 L 234.5 210 L 235 208 L 239 209.5 L 239.5 212 L 240 206.5 L 238 202.5 L 238 196.5 L 235 182.5 L 235 172.5 L 233 167.5 L 234 165 L 240 163 Q 241.3 159.7 236.5 161 Q 234.7 163.8 233 159.5 L 232 157.5 L 233 155 L 237 156 L 238 151.5 L 237 147.5 L 239.5 146 Q 243.9 148.1 243 154 L 248.5 153 L 250 156.5 L 245.5 160 L 243.5 159 L 242.5 161 Q 245.1 160.3 244 163 L 246.5 163 L 251 166.5 L 250 170.5 L 250 172.5 L 250 181.5 L 252 184.5 L 252 191.5 L 255 208.5 L 255 219.5 L 259 243 L 264 240.5 L 263 233 L 266.5 232 Q 268.8 232.8 268 236.5 L 267 238.5 L 268.5 238 L 274 238 L 274 240.5 L 269.5 244 L 266.5 242 L 266 244 Q 268.7 242.9 268 245.5 L 270 248.5 L 266.5 250 L 261.5 244 L 259 245.5 L 262 256.5 L 262 266.5 Q 265.1 270.9 264 279.5 L 267 289 L 279.5 285 L 290 284 L 289 277.5 L 289 248.5 L 288 247.5 L 287 216.5 L 285 212.5 Q 286.3 200.1 284 193 L 278.5 190 Q 277.4 192.8 274 192 L 273 185.5 L 276.5 183 L 278 183.5 L 278 182 L 276 182 Q 277.1 179.3 274.5 180 L 273 177.5 L 274 172 L 278 174.5 L 279.5 180 Q 281.3 176.9 283 178.5 L 284 176.5 Q 281.2 174.8 283 168.5 L 284 166.5 L 281 158.5 L 280 150.5 L 285.5 146 L 288 146 L 287 143.5 L 288 141 L 284.5 140 L 280 141 L 280 135 L 287 135 L 287 130.5 Q 284.4 129.1 285 124.5 L 287.5 121 Q 291.8 123.2 291 130.5 L 290 134.5 L 293.5 132 L 295.5 131 Q 298.3 132.3 297 137.5 Q 295.6 140.3 291 139 L 291 141 Q 294.8 139.5 294 142.5 L 295 145 L 292 146.5 Q 291.3 148.8 293.5 148 L 296 149 L 299 159.5 L 297 162.5 L 297 175.5 L 299 185.5 L 299 187.5 L 299.5 195 L 301 192.5 L 301 190.5 L 304.5 185 L 306 185.5 L 306 193.5 L 308 197.5 L 304.5 199 L 303.5 197 Q 307.3 198 306 195 L 300 196 Q 297.9 200.8 299 210.5 L 300 213.5 L 300 215.5 L 301 230.5 L 302 231.5 L 302 241.5 L 304 246.5 L 304 257.5 L 306 261.5 L 306 272.5 L 309 288 L 311 288.5 L 308.5 289 L 306 286.5 L 305 273.5 L 303.5 272 L 303 274.5 L 304 278 L 302 278.5 L 304 281.5 L 305 290.5 L 307 292.5 L 309 299.5 L 308 303 L 312 303.5 Q 309.8 304.8 312.5 306 L 320 308 Q 320.8 304.6 318 303.5 L 321.5 297 L 322.5 300 L 324.5 297 L 327 295.5 L 328.5 293 L 333 292 L 332 289.5 L 332 287.5 L 333 272.5 L 332 271.5 L 332 245.5 L 332 243.5 L 332 185.5 L 331 184.5 L 331 173.5 L 332 169.5 L 331 166.5 L 332 165.5 L 332 155.5 L 331 153.5 L 332 150.5 L 332 32.5 L 331 30.5 L 332 29.5 L 332 18.5 Q 329.8 17.3 331 12.5 L 329.5 11 L 283.5 11 L 282.5 10 L 280.5 11 L 275.5 10 L 271.5 10 L 260.5 10 L 258.5 11 L 255.5 10 L 104.5 10 L 103.5 9 L 98.5 10 L 97.5 9 L 87.5 9 L 85.5 9 L 83.5 10 L 82.5 9 L 70.5 9 L 65.5 10 L 64.5 9 L 25.5 9 L 24.5 8 L 22.5 9 L 21.5 8 L 7 8 L 7 34.5 L 6 35.5 L 6 77.5 L 6 79.5 L 6 92.5 L 7 93.5 L 6 94.5 L 6 102.5 L 6 104.5 L 7 129.5 L 7 131.5 L 7 143.5 L 6 144.5 L 7 148.5 L 7 150.5 L 6 154.5 L 7 158.5 L 7 160.5 Q 8.5 166 6 167.5 L 6 229.5 L 6 231.5 L 5.5 235 L 4 222.5 L 5 220.5 L 4 218.5 L 5 216.5 L 4 215.5 L 4 163.5 L 4 161.5 L 4 116.5 L 5 114.5 L 4 111.5 L 4 109.5 L 4 92.5 L 3 90.5 L 4 89.5 L 4 52.5 Q 6.3 51.3 5 46.5 Q 2.3 44.8 4 38.5 L 5 36.5 L 4 31.5 L 5 30.5 L 5 6.5 L 6.5 5 Z M 223 26 L 223 33 L 224 29 L 223 26 Z M 215 33 L 216 35 Q 217 32 215 33 Z M 226 37 L 228 40 Q 230 41 229 39 L 226 37 Z M 218 41 L 215 44 L 216 52 L 216 45 L 217 45 Q 215 51 219 50 Q 220 44 218 41 Z M 221 43 Q 219 46 222 45 L 221 43 Z M 224 45 L 225 47 L 226 47 L 224 45 Z M 226 50 L 227 52 Q 228 49 226 50 Z M 215 52 L 213 54 L 214 74 L 214 62 L 214 60 L 215 58 L 215 52 Z M 220 52 Q 219 55 222 54 Q 223 51 220 52 Z M 218 59 L 216 62 Q 215 64 218 63 L 218 59 Z M 218 64 Q 215 65 216 70 L 218 69 L 218 64 Z M 220 67 L 218 74 Q 217 76 220 75 L 220 67 Z M 231 70 L 230 72 L 232 71 L 231 70 Z M 230 75 Q 228 78 231 77 L 230 75 Z M 205 78 L 203 82 L 206 83 Q 207 79 205 78 Z M 209 79 L 208 81 L 210 82 L 209 79 Z M 263 79 L 261 81 L 263 81 L 263 79 Z M 231 82 L 228 85 Q 230 89 232 86 Q 233 81 231 82 Z M 269 83 L 269 85 L 271 84 L 269 83 Z M 194 86 L 190 87 Q 188 92 193 91 L 195 91 L 196 87 L 194 86 Z M 215 86 L 214 89 L 215 89 L 215 86 Z M 207 88 L 205 92 L 208 91 Q 209 87 207 88 Z M 234 88 L 234 90 L 237 89 L 234 88 Z M 213 92 L 211 94 L 212 98 L 212 97 L 214 97 Q 215 93 213 92 Z M 239 92 L 237 94 L 241 96 Q 243 97 242 94 L 239 92 Z M 193 93 L 191 95 L 193 95 L 193 93 Z M 188 94 L 185 97 L 186 99 L 188 96 L 188 94 Z M 208 95 L 208 99 L 205 100 L 203 97 L 198 109 L 197 110 L 194 107 Q 190 109 194 111 L 193 114 L 193 116 L 197 124 Q 195 125 198 126 L 201 125 L 206 128 L 206 124 L 209 122 L 208 125 L 212 126 L 212 113 Q 215 111 211 110 L 213 109 L 213 107 Q 210 108 211 106 L 210 106 Q 209 110 211 112 L 210 115 L 210 117 L 209 120 Q 210 122 207 121 L 207 106 L 209 101 Q 210 96 208 95 Z M 233 95 L 233 98 L 234 98 Q 235 94 233 95 Z M 238 96 L 237 99 L 239 99 L 238 96 Z M 195 97 L 192 99 L 188 104 L 189 108 L 195 99 L 195 97 Z M 198 97 L 198 100 L 195 104 L 196 107 L 199 101 L 198 97 Z M 226 97 L 226 100 L 228 99 Q 229 96 226 97 Z M 213 99 L 210 104 L 213 105 L 213 99 Z M 34 100 L 34 102 Q 32 109 37 107 L 36 102 L 34 100 Z M 223 100 L 223 112 L 222 113 L 223 130 L 227 129 L 230 125 L 229 123 L 229 121 L 233 116 L 229 113 L 228 111 L 230 106 L 229 102 L 228 102 L 225 102 Q 226 99 223 100 Z M 237 102 L 239 108 L 241 107 Q 242 104 239 105 L 240 103 L 237 102 Z M 243 103 L 245 106 L 246 104 L 243 103 Z M 73 104 L 72 107 L 73 107 L 73 104 Z M 183 105 L 180 109 L 181 113 L 183 109 L 183 105 Z M 216 106 Q 215 109 218 108 Q 219 105 216 106 Z M 234 106 L 231 109 Q 230 113 233 112 L 234 110 L 234 106 Z M 190 110 L 190 113 Q 193 112 190 110 Z M 214 110 L 215 112 Q 216 109 214 110 Z M 244 110 L 243 113 L 246 113 L 246 111 L 244 110 Z M 216 111 Q 215 114 218 113 Q 219 110 216 111 Z M 238 112 L 236 116 L 238 117 L 238 112 Z M 40 114 L 39 119 L 41 118 L 40 114 Z M 217 115 L 217 118 Q 220 117 217 115 Z M 37 117 L 35 120 L 38 118 L 37 117 Z M 191 117 Q 189 121 193 122 Q 195 123 194 121 L 191 119 L 191 117 Z M 182 118 Q 179 124 183 123 Q 184 119 182 118 Z M 241 118 L 240 121 Q 238 126 242 125 L 243 121 Q 244 117 241 118 Z M 45 119 L 42 124 L 45 122 L 45 119 Z M 214 119 L 213 122 L 214 122 L 214 119 Z M 217 119 L 216 122 L 217 122 L 217 119 Z M 234 119 L 232 123 L 234 122 L 234 119 Z M 71 120 L 69 123 L 71 122 L 71 125 L 72 125 Q 73 121 71 120 Z M 187 120 Q 185 123 189 125 L 190 123 L 187 120 Z M 36 121 L 36 123 L 38 122 L 36 121 Z M 39 121 Q 38 124 41 123 Q 42 120 39 121 Z M 238 121 L 236 123 L 238 123 L 238 121 Z M 46 122 Q 44 127 46 130 Q 49 131 48 128 L 48 126 L 46 125 L 46 122 Z M 36 124 L 36 127 L 38 126 Q 39 123 36 124 Z M 73 124 L 73 126 L 75 125 L 73 124 Z M 192 124 L 192 127 L 196 127 L 192 124 Z M 244 124 L 245 129 L 246 129 Q 248 123 244 124 Z M 39 125 L 39 127 L 41 126 L 39 125 Z M 42 125 Q 41 128 44 127 Q 45 124 42 125 Z M 78 125 L 75 130 L 78 130 L 78 125 Z M 185 125 L 184 130 L 186 131 L 185 125 Z M 233 125 Q 232 128 235 127 Q 236 124 233 125 Z M 288 125 L 287 128 L 289 129 L 288 125 Z M 41 127 L 39 129 Q 38 132 41 131 L 42 132 L 41 127 Z M 74 127 L 73 130 L 74 130 L 74 127 Z M 202 127 Q 200 130 203 129 L 202 127 Z M 44 128 Q 42 131 45 130 L 44 128 Z M 210 128 L 209 130 Q 210 133 214 132 L 216 132 Q 219 133 218 130 L 217 130 Q 216 127 212 128 L 210 128 Z M 191 130 L 191 134 Q 192 136 196 135 L 195 131 L 191 130 Z M 68 131 L 68 134 L 70 133 Q 71 130 68 131 Z M 74 131 L 73 134 L 74 134 L 74 131 Z M 203 131 L 205 133 L 207 132 L 203 131 Z M 237 131 L 235 133 L 237 133 L 237 131 Z M 226 132 L 225 134 L 228 133 L 226 132 Z M 241 133 L 239 135 L 241 135 L 241 133 Z M 203 134 L 202 136 L 207 139 L 209 139 L 203 134 Z M 209 134 Q 208 137 211 136 Q 212 133 209 134 Z M 218 134 L 218 135 L 220 135 L 218 134 Z M 40 135 L 40 137 L 42 136 L 40 135 Z M 69 135 L 68 138 L 69 138 L 69 135 Z M 161 135 Q 160 138 163 137 Q 164 134 161 135 Z M 231 135 L 228 136 L 226 139 L 231 137 L 231 135 Z M 237 135 L 235 136 L 231 141 L 232 142 L 234 141 L 237 137 L 237 135 Z M 294 135 L 293 137 L 295 136 L 294 135 Z M 189 136 L 190 139 Q 189 141 192 140 L 191 138 Q 192 135 189 136 Z M 223 136 L 220 137 L 221 139 L 224 137 L 223 136 Z M 283 137 L 283 138 L 287 139 L 288 139 Q 287 136 283 137 Z M 71 138 L 70 141 L 71 141 L 71 138 Z M 74 138 L 72 140 L 75 141 L 74 138 Z M 216 138 L 217 140 L 219 139 L 216 138 Z M 69 139 L 68 142 L 69 142 L 69 139 Z M 200 139 L 201 143 L 206 144 Q 208 145 207 143 Q 205 139 200 139 Z M 41 140 L 40 143 L 41 143 L 41 140 Z M 219 141 L 219 143 Q 223 144 224 142 L 219 141 Z M 227 141 Q 226 144 229 143 Q 230 140 227 141 Z M 73 143 L 72 146 Q 71 148 74 147 L 75 145 L 73 143 Z M 40 144 L 38 149 L 40 148 L 41 150 L 42 145 L 40 144 Z M 210 144 L 210 145 L 215 145 L 210 144 Z M 218 145 L 216 147 L 218 147 L 218 145 Z M 209 146 L 207 167 L 206 168 L 208 178 L 206 178 L 207 183 Q 206 187 209 186 L 210 180 L 210 178 Q 209 173 211 172 L 210 170 L 211 168 L 211 159 L 209 174 L 208 174 L 208 163 L 209 162 L 208 160 L 209 152 L 212 148 L 209 146 Z M 287 147 L 282 151 Q 281 155 284 156 L 286 174 L 287 175 Q 284 177 285 183 L 285 185 Q 284 189 287 190 L 287 206 L 288 207 L 288 217 L 290 224 L 290 226 L 289 229 L 290 232 L 291 262 L 292 263 L 292 281 L 293 283 L 296 282 L 295 280 L 296 278 L 294 272 L 295 270 Q 292 264 294 254 L 293 253 L 295 252 L 296 255 L 295 257 L 296 259 L 296 266 L 298 266 L 297 262 L 298 260 L 297 258 L 298 256 L 296 248 L 295 250 L 293 251 Q 292 247 295 248 L 294 243 L 293 243 L 290 200 L 289 199 L 290 196 L 288 193 Q 287 187 289 186 L 288 184 L 287 161 L 285 159 L 286 157 L 284 154 Q 282 149 286 150 L 288 150 L 287 147 Z M 72 148 L 71 152 L 74 153 L 74 148 L 72 148 Z M 216 149 L 215 151 L 218 151 L 216 149 Z M 164 150 L 162 152 L 163 154 L 164 154 L 164 150 Z M 210 151 L 210 153 L 212 152 L 210 151 Z M 239 151 L 239 157 Q 242 158 241 156 L 241 154 Q 242 150 239 151 Z M 157 152 L 157 154 L 159 153 L 157 152 Z M 161 152 Q 159 155 162 154 L 161 152 Z M 39 153 L 38 159 L 39 159 L 39 153 Z M 212 153 Q 209 154 210 158 L 212 157 L 212 153 Z M 73 154 L 71 156 L 74 157 L 73 154 Z M 157 154 L 156 157 L 157 157 L 157 154 Z M 215 154 Q 214 157 217 156 Q 218 153 215 154 Z M 245 155 Q 244 159 247 158 Q 248 154 245 155 Z M 68 157 L 67 167 L 69 166 L 68 157 Z M 158 157 L 157 160 Q 158 162 162 161 L 162 160 Q 159 161 160 158 L 158 157 Z M 165 157 L 164 160 L 165 160 L 165 157 Z M 66 158 L 64 160 L 65 163 L 64 165 L 66 164 L 66 158 Z M 71 158 L 71 160 L 74 160 L 71 158 Z M 70 159 L 69 165 L 71 164 L 70 159 Z M 168 159 Q 165 163 169 162 L 168 159 Z M 39 161 L 37 168 Q 40 169 38 175 L 40 174 L 39 161 Z M 43 161 Q 40 166 44 165 L 43 161 Z M 72 161 L 72 165 L 72 167 L 71 169 L 72 171 Q 74 176 68 174 L 68 172 L 66 176 L 68 175 L 71 176 L 73 176 L 73 169 L 73 165 Q 74 160 72 161 Z M 164 161 L 163 168 L 165 172 L 166 183 L 172 205 L 172 209 L 174 208 L 168 182 L 169 179 L 168 171 L 167 174 L 166 174 L 167 171 L 167 166 L 166 170 L 164 161 Z M 41 162 L 40 167 L 41 167 L 41 162 Z M 215 164 L 215 166 L 217 165 L 215 164 Z M 238 165 Q 235 166 235 170 L 236 170 Q 235 167 238 168 L 237 170 L 238 173 L 239 173 L 239 166 L 238 165 Z M 65 166 L 64 173 L 65 173 L 65 166 Z M 246 166 L 247 170 L 248 168 Q 249 165 246 166 Z M 170 167 L 170 175 L 171 175 L 170 167 Z M 213 168 L 211 170 L 213 170 L 213 168 Z M 244 168 Q 241 172 245 171 L 244 168 Z M 67 169 L 67 171 L 69 170 L 67 169 Z M 291 171 Q 290 174 293 173 Q 294 170 291 171 Z M 214 172 L 214 175 L 216 174 Q 217 171 214 172 Z M 242 172 Q 240 175 243 174 L 242 172 Z M 236 173 L 236 176 L 238 175 Q 239 172 236 173 Z M 239 175 L 237 177 L 239 197 L 241 202 L 240 204 L 244 213 L 245 224 L 247 230 L 247 243 L 250 254 L 250 262 L 252 270 L 253 286 Q 255 287 254 292 L 256 294 L 255 297 L 257 297 L 258 294 L 253 277 L 253 266 L 253 264 L 252 259 L 258 260 Q 259 256 254 258 L 252 257 L 252 249 L 250 247 L 250 237 L 247 223 Q 249 221 246 220 L 247 218 L 245 217 L 246 215 L 244 200 L 243 200 L 240 194 L 240 188 L 238 181 L 240 177 Q 241 174 239 175 Z M 243 175 L 241 178 L 243 179 L 243 175 Z M 68 176 L 67 178 L 65 179 L 67 183 L 68 181 L 68 179 L 68 176 Z M 135 176 L 133 179 L 136 178 Q 137 175 135 176 Z M 215 176 L 214 180 L 215 180 L 215 176 Z M 277 176 L 276 180 L 277 180 L 277 176 Z M 175 177 L 172 178 L 173 180 L 175 179 L 175 177 Z M 240 178 L 240 186 L 241 186 Q 242 179 240 178 Z M 40 179 L 40 181 L 42 180 L 40 179 Z M 129 179 L 124 180 L 120 183 L 121 184 L 129 182 L 131 183 L 134 182 L 129 179 Z M 69 181 Q 68 184 71 183 Q 72 180 69 181 Z M 215 181 L 213 184 Q 212 186 215 185 L 215 181 Z M 65 182 L 64 191 L 63 192 L 64 198 L 64 195 L 65 192 L 65 182 Z M 172 182 L 172 185 L 175 184 L 172 182 Z M 247 182 L 245 185 L 247 184 L 247 182 Z M 142 183 L 140 184 L 137 188 L 142 188 L 144 184 L 142 183 Z M 282 183 L 282 191 L 284 191 L 284 184 L 282 183 Z M 68 184 L 66 187 L 68 186 L 68 184 Z M 129 184 L 123 187 L 120 191 Q 129 189 135 185 L 131 184 L 129 184 Z M 212 184 Q 210 187 213 186 L 212 184 Z M 290 184 L 290 186 L 292 187 Q 293 183 290 184 Z M 278 185 L 275 188 L 276 190 L 279 188 Q 280 184 278 185 Z M 175 186 L 173 188 Q 172 190 175 189 L 175 186 Z M 244 186 Q 242 189 245 188 L 244 186 Z M 246 186 L 246 188 L 249 188 L 246 186 Z M 115 187 L 116 189 L 118 188 L 115 187 Z M 38 188 L 38 190 L 40 189 L 38 188 Z M 72 188 L 71 191 L 72 191 L 72 188 Z M 108 188 L 101 191 L 98 195 Q 106 195 109 190 Q 110 187 108 188 Z M 172 188 L 171 191 L 172 191 L 172 188 Z M 131 189 L 126 191 Q 123 190 124 193 Q 130 193 132 190 L 131 189 Z M 208 189 L 206 191 L 205 213 L 205 215 L 206 241 L 207 231 L 207 229 Q 209 222 206 221 Q 205 218 208 219 Q 209 215 207 216 L 208 214 L 207 212 L 209 203 Q 210 200 207 201 Q 206 198 209 199 L 210 196 L 209 192 L 208 197 L 207 197 L 208 192 L 208 189 Z M 304 189 L 303 192 L 304 192 L 304 189 Z M 70 190 L 68 192 L 70 192 L 70 190 Z M 116 190 L 114 191 L 111 195 L 116 194 L 118 191 L 116 190 Z M 178 190 L 175 194 L 178 192 L 178 190 Z M 214 190 Q 211 192 214 193 L 215 191 L 214 190 Z M 247 190 L 248 192 Q 249 189 247 190 Z M 42 191 L 40 193 L 41 195 L 41 197 L 40 200 Q 39 202 42 201 L 42 191 Z M 242 191 L 242 197 L 243 197 Q 244 192 242 191 Z M 295 191 L 293 193 L 296 193 L 295 191 Z M 67 192 L 66 195 L 67 195 L 67 192 Z M 72 192 L 71 196 L 72 196 L 72 192 Z M 95 192 L 88 195 L 86 198 Q 93 199 96 195 Q 97 191 95 192 Z M 107 193 L 94 203 L 95 205 Q 103 202 108 196 L 107 193 Z M 130 193 Q 126 195 126 202 L 126 204 L 126 208 L 122 216 L 121 214 L 120 216 L 120 218 L 118 224 L 116 223 L 110 226 L 108 226 Q 106 229 103 228 L 104 230 L 107 229 L 109 229 Q 113 232 122 231 L 123 232 L 121 225 Q 125 224 128 227 L 134 227 L 134 221 L 135 220 L 134 216 L 135 214 Q 137 208 134 207 L 136 207 L 136 206 L 130 201 Q 129 198 133 199 L 132 198 Q 131 195 134 196 L 134 193 L 133 195 L 132 194 L 130 193 Z M 244 193 L 246 198 Q 248 197 246 196 Q 247 192 244 193 Z M 248 193 L 248 194 L 250 194 L 248 193 Z M 70 194 L 68 197 L 70 196 L 70 194 Z M 122 194 L 115 199 L 112 203 Q 119 202 123 197 Q 125 198 124 195 L 122 194 Z M 214 194 L 212 196 L 214 196 L 214 194 Z M 293 194 L 291 196 Q 290 200 293 199 L 293 194 Z M 174 195 L 173 198 L 174 198 L 174 195 Z M 176 195 Q 175 198 178 197 Q 179 194 176 195 Z M 248 196 L 248 198 L 251 198 L 248 196 Z M 39 197 L 37 199 Q 36 201 39 200 L 39 197 Z M 67 197 L 65 199 L 67 200 L 67 197 Z M 72 197 L 68 202 L 69 203 L 72 201 L 72 197 Z M 213 197 Q 210 199 213 200 Q 216 199 213 197 Z M 94 198 L 87 202 L 85 205 L 87 204 Q 91 205 90 203 L 95 199 L 94 198 Z M 64 199 L 62 203 L 64 203 L 64 199 Z M 82 199 L 79 201 L 78 203 Q 83 204 84 201 L 82 199 Z M 109 199 L 100 205 L 98 208 Q 104 209 107 206 L 109 203 Q 106 201 110 200 L 109 199 Z M 177 199 L 177 201 L 179 200 L 177 199 Z M 246 200 L 247 202 Q 248 199 246 200 Z M 248 200 L 248 202 Q 250 205 251 202 L 248 200 Z M 122 201 L 120 203 L 123 203 Q 124 200 122 201 Z M 158 201 L 157 204 L 160 205 L 158 201 Z M 294 201 L 295 204 L 294 209 L 296 209 L 296 202 L 294 201 Z M 67 202 L 65 205 L 67 204 L 67 202 Z M 71 203 L 69 208 L 71 208 L 71 203 Z M 169 203 L 167 206 L 168 211 L 170 212 L 169 203 Z M 177 203 L 178 206 Q 177 208 180 207 L 179 206 Q 180 202 177 203 Z M 211 203 Q 210 207 213 206 Q 214 202 211 203 Z M 215 204 L 214 207 L 215 207 L 215 204 Z M 249 204 L 249 206 L 252 205 L 249 204 Z M 62 205 L 61 211 L 62 228 L 62 225 L 62 223 L 63 216 L 64 221 L 65 221 Q 67 214 63 213 Q 62 207 64 206 L 62 205 Z M 78 205 L 75 209 L 82 208 Q 84 203 78 205 Z M 91 205 L 89 206 L 89 207 L 92 206 L 91 205 Z M 67 206 L 65 208 L 66 216 L 68 217 L 66 211 L 67 209 L 67 206 Z M 95 206 L 87 211 L 85 214 L 90 212 L 94 212 L 97 210 L 95 206 Z M 293 206 L 292 216 L 294 216 L 293 206 Z M 248 207 L 247 214 Q 250 215 249 212 L 249 210 L 248 207 Z M 212 208 L 211 211 L 214 211 L 215 210 L 212 208 Z M 231 208 L 230 211 L 232 212 L 231 208 Z M 83 209 L 82 210 Q 79 209 80 212 L 84 210 L 83 209 Z M 174 209 L 177 234 L 182 252 L 183 252 L 183 246 L 181 242 L 179 231 L 179 229 L 177 221 Q 180 219 176 218 Q 175 215 178 216 L 178 213 L 177 215 L 176 215 L 177 212 L 176 212 L 174 209 Z M 181 209 L 179 213 L 181 212 L 181 209 Z M 74 210 L 72 212 L 73 214 L 71 225 L 71 236 L 69 244 L 69 254 L 68 255 Q 67 260 69 262 L 68 263 L 68 274 L 67 275 L 68 288 L 69 284 L 72 283 Q 74 282 73 289 L 75 288 L 78 290 Q 76 294 80 293 L 81 296 L 82 297 L 79 300 L 81 303 L 81 309 L 79 312 L 78 319 L 77 318 L 76 320 L 77 321 L 72 318 L 72 325 L 73 326 L 72 329 L 70 330 Q 65 329 67 334 L 65 333 L 63 338 L 64 341 L 69 340 Q 75 338 77 341 L 77 335 L 76 335 L 74 332 L 78 331 Q 77 328 80 329 L 78 322 L 80 321 L 82 327 Q 83 331 81 330 L 78 336 L 79 341 L 75 342 L 74 348 L 69 350 L 67 350 Q 68 352 65 351 L 65 348 L 64 378 L 61 381 L 65 382 Q 75 368 81 351 Q 82 347 79 348 L 77 346 L 77 344 L 83 345 L 84 341 Q 88 339 84 337 L 87 324 L 87 302 L 83 284 L 83 276 L 81 273 L 86 255 L 94 243 L 94 237 L 96 237 L 95 233 L 99 232 L 100 230 L 98 228 L 96 231 L 91 232 L 92 226 L 90 223 L 91 221 L 91 218 Q 88 219 89 216 L 80 220 L 74 210 Z M 111 210 L 109 212 L 110 216 L 111 212 L 111 210 Z M 44 211 L 43 215 L 44 215 L 44 211 Z M 163 211 L 161 213 L 163 215 L 163 212 L 165 212 L 163 211 Z M 295 211 L 295 213 L 297 212 L 295 211 Z M 105 213 L 103 215 L 104 220 L 105 216 L 105 213 Z M 180 213 L 180 216 L 182 215 Q 183 212 180 213 Z M 209 213 L 209 215 L 213 215 L 209 213 Z M 238 213 L 240 217 L 240 221 L 241 221 L 241 213 L 238 213 Z M 80 214 L 79 218 L 82 217 Q 85 218 84 215 L 80 214 Z M 252 215 L 252 220 L 253 220 L 252 215 Z M 295 215 Q 294 219 297 218 Q 298 214 295 215 Z M 248 216 L 248 219 L 249 219 Q 250 215 248 216 Z M 98 217 L 98 225 L 100 224 Q 101 220 98 221 L 98 217 Z M 212 217 L 211 221 Q 215 223 214 219 L 213 219 L 212 217 Z M 40 218 L 39 221 L 40 221 L 40 218 Z M 234 218 Q 231 220 234 221 L 235 219 L 234 218 Z M 179 221 L 180 223 Q 181 220 179 221 Z M 252 221 L 253 225 Q 254 230 250 231 Q 249 233 252 232 L 255 228 L 254 224 L 254 222 L 252 221 Z M 40 222 L 39 225 L 40 225 L 40 222 Z M 182 222 L 182 223 L 184 223 L 182 222 Z M 211 223 L 212 225 L 213 225 L 211 223 Z M 294 223 L 294 225 L 296 224 L 294 223 Z M 196 224 L 195 226 L 197 227 L 196 224 Z M 249 224 Q 248 228 251 227 Q 252 223 249 224 Z M 179 225 L 180 228 L 181 226 L 179 225 Z M 184 225 Q 182 228 185 227 L 184 225 Z M 40 226 L 39 232 L 40 232 L 40 226 Z M 67 226 L 66 229 L 67 229 L 67 226 Z M 211 226 L 209 228 L 211 228 L 212 229 L 211 226 Z M 296 226 L 296 229 Q 299 228 296 226 Z M 69 227 L 68 230 L 69 230 L 69 227 Z M 63 228 L 63 230 L 65 231 Q 66 227 63 228 Z M 62 229 L 61 233 L 62 233 L 62 229 Z M 181 229 L 181 234 L 182 234 Q 183 230 181 229 Z M 209 229 L 208 232 Q 213 234 212 230 L 209 229 Z M 255 229 L 254 232 L 255 232 L 255 229 Z M 295 229 L 295 232 Q 298 231 295 229 Z M 64 231 L 62 234 L 63 236 L 62 245 L 61 233 L 60 242 L 59 243 L 59 253 L 58 254 L 57 277 L 58 277 Q 57 274 60 275 L 60 272 L 59 274 L 58 274 L 59 272 L 58 270 L 60 261 L 60 248 L 64 245 L 63 243 L 64 234 Q 66 232 64 231 Z M 69 232 L 68 234 L 67 233 L 66 236 L 68 236 Q 69 240 67 242 L 68 246 L 69 242 L 69 232 Z M 186 232 L 184 234 L 186 234 L 186 232 Z M 300 233 L 299 236 L 301 236 L 300 233 Z M 210 234 Q 209 237 212 236 Q 213 233 210 234 Z M 39 235 Q 38 238 41 237 Q 42 234 39 235 Z M 183 235 L 181 238 L 183 239 L 183 235 Z M 185 235 Q 184 238 187 237 Q 188 234 185 235 Z M 264 235 L 264 237 L 266 236 L 264 235 Z M 256 236 L 255 239 L 256 239 L 256 236 Z M 65 237 L 65 239 L 67 238 L 65 237 Z M 209 238 L 209 240 Q 211 243 212 240 L 209 238 Z M 41 239 L 39 241 L 40 245 L 41 243 L 41 239 Z M 187 239 Q 184 241 187 242 Q 190 241 187 239 Z M 270 239 Q 267 243 271 242 L 270 239 Z M 252 240 L 252 243 L 254 242 Q 255 239 252 240 Z M 257 240 L 256 246 L 257 246 L 257 240 Z M 66 241 L 65 244 L 66 244 L 66 241 Z M 298 241 L 297 247 L 298 247 Q 297 244 300 245 L 301 248 L 301 244 L 300 244 L 300 243 Q 301 240 298 241 Z M 184 242 L 183 245 L 184 245 L 184 242 Z M 205 242 L 203 257 L 202 258 L 203 286 L 204 263 L 206 263 Q 207 260 204 261 L 205 256 L 204 254 L 205 250 L 205 242 Z M 38 243 L 37 246 L 38 246 L 38 243 Z M 208 244 L 206 246 Q 204 250 208 249 L 207 248 L 208 246 L 208 244 Z M 41 245 L 39 249 L 41 248 L 41 245 Z M 104 245 Q 103 248 106 247 Q 107 244 104 245 Z M 64 246 L 61 250 L 63 250 L 64 248 L 64 246 Z M 184 246 L 185 249 L 186 247 L 184 246 Z M 67 247 L 64 251 Q 66 254 67 251 L 67 247 Z M 258 247 L 256 252 L 257 254 L 258 254 L 258 247 Z M 301 249 L 300 252 L 301 252 L 301 249 Z M 185 250 L 186 253 L 187 251 L 185 250 Z M 254 250 L 254 253 Q 257 252 254 250 Z M 39 251 L 37 255 Q 36 258 39 257 L 41 253 Q 42 250 39 251 Z M 184 252 L 183 257 L 189 282 L 188 284 L 191 295 Q 189 300 193 299 L 197 294 L 192 297 L 194 294 L 192 293 L 191 289 L 192 287 Q 193 283 191 284 L 191 283 L 188 273 L 189 271 L 188 268 L 190 268 Q 195 270 193 265 L 189 266 L 189 264 L 188 266 L 187 266 L 188 263 L 187 263 L 185 256 L 184 252 Z M 300 252 L 298 254 L 299 258 L 300 258 Q 299 255 302 256 L 302 253 L 301 255 L 300 252 Z M 187 253 Q 184 255 187 256 L 188 256 L 187 253 Z M 210 253 L 209 256 L 210 256 L 210 253 Z M 64 254 L 64 256 L 66 257 Q 67 253 64 254 Z M 189 254 Q 188 257 191 256 Q 192 253 189 254 Z M 207 254 L 205 258 L 207 257 L 207 254 Z M 256 254 L 255 256 L 258 256 L 256 254 Z M 191 257 L 189 259 L 191 259 L 191 257 Z M 301 257 L 302 261 L 301 266 L 303 265 L 303 258 L 301 257 Z M 187 258 L 188 260 Q 189 257 187 258 Z M 210 261 L 208 264 L 210 263 L 210 261 Z M 254 261 L 254 263 L 256 262 L 254 261 Z M 257 261 Q 256 264 259 263 Q 260 260 257 261 Z M 63 262 L 62 266 L 65 267 L 65 266 Q 63 264 66 263 L 63 262 Z M 206 264 L 205 269 L 206 269 L 206 264 Z M 256 264 L 255 267 L 256 267 L 256 264 Z M 37 265 L 36 274 L 37 274 L 37 265 Z M 258 265 L 259 267 Q 260 264 258 265 Z M 304 267 L 302 271 L 304 270 L 304 267 Z M 61 268 L 59 270 L 61 270 L 61 268 Z M 298 268 L 296 270 Q 295 273 298 272 L 298 268 Z M 64 269 L 62 273 L 65 271 Q 66 268 64 269 Z M 207 269 L 208 272 L 209 270 L 207 269 Z M 257 269 L 256 272 L 258 271 L 260 273 L 259 276 Q 263 277 261 270 L 260 270 L 257 269 Z M 190 270 Q 189 273 192 272 Q 193 269 190 270 Z M 204 271 L 204 290 L 203 288 L 201 287 L 202 292 L 205 291 Q 213 294 210 286 L 208 287 L 205 286 L 205 273 L 206 272 L 204 271 Z M 298 273 L 297 277 L 298 277 L 298 273 Z M 195 274 L 194 277 L 195 277 L 195 274 Z M 258 274 L 256 278 L 258 278 L 258 274 Z M 36 275 L 37 279 L 38 276 L 36 275 Z M 63 275 L 62 280 L 63 280 L 63 275 Z M 60 276 L 57 279 L 58 280 L 60 279 L 60 276 Z M 191 276 L 191 278 L 193 277 L 191 276 Z M 300 276 L 301 277 L 302 278 Q 303 275 300 276 Z M 299 277 L 297 281 Q 296 284 299 283 L 299 277 Z M 196 279 L 194 281 L 196 281 L 196 279 Z M 207 280 Q 205 283 208 282 L 207 280 Z M 210 280 L 209 283 L 210 283 L 210 280 Z M 257 280 L 258 284 L 259 281 L 257 280 Z M 58 281 L 57 285 L 58 285 L 58 281 Z M 301 281 Q 300 287 296 290 Q 297 292 294 291 L 293 294 L 292 308 L 295 310 L 294 313 Q 290 314 294 316 L 297 315 L 314 316 L 324 321 L 325 321 L 325 317 L 327 317 L 329 314 L 332 298 L 331 296 Q 332 293 330 294 Q 325 299 323 307 L 318 310 L 307 309 L 304 307 L 305 304 L 305 300 L 301 291 L 301 281 Z M 37 284 L 37 290 L 39 287 L 37 286 L 37 284 Z M 259 284 L 257 287 L 259 287 Q 262 286 259 284 Z M 261 284 Q 260 287 263 286 Q 264 283 261 284 Z M 41 286 Q 41 290 38 289 L 38 292 L 39 292 Q 38 289 42 290 L 43 287 L 41 286 Z M 57 286 L 55 288 L 55 297 L 54 298 L 56 300 L 59 299 L 60 297 L 57 296 Q 56 290 58 289 L 57 286 Z M 290 286 L 274 289 L 267 292 L 248 308 Q 245 307 246 310 L 242 313 L 230 332 L 221 354 L 217 356 L 216 360 Q 217 362 214 361 L 214 364 L 250 383 L 265 389 L 268 389 L 266 385 L 272 381 L 275 382 Q 277 381 276 376 L 274 374 Q 269 368 267 360 L 268 343 L 269 342 L 268 337 L 271 335 Q 274 337 272 344 Q 269 345 273 347 L 272 352 Q 270 365 275 371 L 275 343 L 276 342 L 276 327 Q 273 325 274 321 Q 274 318 279 318 L 282 313 L 288 309 Q 287 303 291 300 L 291 293 L 295 288 Q 296 285 292 286 L 290 286 Z M 198 287 L 197 293 L 198 293 L 198 287 Z M 67 288 L 66 293 L 68 294 L 67 288 Z M 194 289 L 194 291 L 196 290 L 194 289 Z M 62 290 L 60 293 L 62 293 L 62 290 Z M 261 290 L 261 292 L 261 293 L 263 292 Q 264 289 261 290 Z M 36 291 L 36 295 L 36 294 Q 38 292 36 291 Z M 39 292 L 39 295 L 43 294 Q 44 290 39 292 Z M 205 293 L 202 294 L 190 306 L 188 306 Q 186 310 190 309 Q 191 307 192 310 Q 190 315 194 314 L 196 311 L 197 317 L 198 311 Q 200 312 199 317 L 205 318 L 207 315 Q 199 316 200 314 L 206 310 L 209 311 L 208 308 L 204 309 L 201 308 L 202 304 L 205 303 Q 209 302 211 305 Q 213 306 212 302 L 209 301 L 204 302 Q 200 303 201 301 L 208 296 L 205 293 Z M 23 295 L 18 303 Q 17 307 21 308 Q 23 309 22 306 L 26 305 L 28 305 Q 27 302 30 303 L 30 300 L 27 302 Q 24 303 25 300 L 23 300 L 23 299 L 23 295 Z M 36 296 L 35 307 L 34 308 L 34 331 Q 31 332 35 334 L 26 354 L 30 362 L 34 365 Q 35 360 32 361 L 32 358 L 37 355 L 40 348 L 40 346 L 45 346 L 45 344 L 42 345 Q 38 346 39 343 L 46 342 L 46 339 L 41 340 Q 39 342 38 340 L 44 336 L 46 337 L 47 333 L 42 335 Q 38 336 37 334 L 45 331 L 46 329 L 42 329 Q 41 332 37 331 L 35 332 L 36 328 L 36 326 Q 38 327 37 325 L 39 321 L 38 320 L 36 321 L 37 318 L 36 316 Q 35 309 38 308 L 36 303 L 36 296 Z M 211 296 L 213 300 Q 215 299 213 298 Q 214 295 211 296 Z M 43 297 L 41 300 L 43 299 L 43 297 Z M 25 298 L 25 300 L 27 299 L 25 298 Z M 67 299 L 66 302 L 67 302 L 67 299 Z M 56 301 L 54 303 L 55 304 L 60 303 Q 61 299 56 301 Z M 140 301 Q 139 304 142 303 Q 143 300 140 301 Z M 42 302 L 40 305 L 42 305 L 39 310 L 43 307 Q 45 301 42 302 Z M 53 302 L 51 305 L 53 304 L 53 302 Z M 62 302 L 63 304 Q 64 301 62 302 Z M 30 304 L 31 307 L 30 314 L 28 316 L 32 321 L 32 317 L 32 315 L 32 305 L 30 304 Z M 138 304 L 133 310 L 131 319 L 129 321 L 128 329 L 125 333 L 127 338 L 136 341 L 139 340 L 141 341 L 150 336 L 158 334 L 159 321 L 160 318 L 160 315 L 158 317 L 150 318 L 147 325 Q 148 328 143 326 L 141 323 L 136 325 L 133 323 L 134 320 L 143 312 L 141 308 Q 138 309 139 307 L 139 305 L 138 304 Z M 57 305 L 52 307 Q 48 306 50 310 L 56 309 L 60 306 L 57 305 Z M 70 305 L 68 307 Q 67 309 70 308 L 70 305 Z M 79 305 L 77 308 L 79 308 L 79 305 Z M 236 305 L 236 306 L 238 306 L 236 305 Z M 14 306 L 9 307 L 7 309 Q 8 313 6 315 L 7 319 L 10 320 L 10 318 Q 14 319 15 316 Q 14 313 17 314 L 18 317 L 19 314 L 23 317 L 22 321 Q 25 322 24 319 L 26 319 L 25 314 L 21 311 L 16 311 L 14 309 L 16 309 Q 17 305 14 306 Z M 73 306 L 74 308 Q 75 305 73 306 Z M 183 306 L 170 312 L 167 314 L 164 317 L 163 329 L 166 327 L 167 329 L 167 340 L 166 342 L 169 343 L 168 338 L 168 332 Q 171 332 170 329 Q 173 328 172 331 L 172 333 L 173 336 Q 171 341 175 340 L 181 333 L 181 338 L 182 338 Q 183 333 181 332 L 181 317 Q 178 317 179 312 L 181 312 L 184 310 L 183 306 Z M 28 307 L 26 308 L 24 311 L 29 309 Q 30 306 28 307 Z M 66 307 L 64 315 L 66 315 L 66 307 Z M 231 307 Q 230 310 233 309 Q 234 306 231 307 Z M 59 309 L 52 312 L 52 313 L 59 312 L 59 309 Z M 42 310 L 40 312 Q 41 314 38 313 L 39 315 L 41 314 L 43 311 L 42 310 Z M 27 311 L 28 313 Q 29 310 27 311 Z M 232 311 L 233 313 L 235 312 L 232 311 Z M 287 311 L 285 314 L 288 314 L 287 311 Z M 333 311 Q 333 316 329 318 L 329 327 L 331 329 Q 332 331 329 330 Q 327 335 333 333 L 333 311 Z M 224 312 L 224 313 L 226 313 L 224 312 Z M 151 313 L 151 315 L 156 314 L 151 313 Z M 187 313 L 185 316 L 187 315 L 187 313 Z M 221 313 L 217 316 L 218 317 L 223 314 L 221 313 Z M 50 314 L 51 316 Q 52 313 50 314 Z M 55 314 L 52 317 L 53 318 L 58 316 L 55 314 Z M 76 314 L 74 316 Q 73 318 76 317 Q 79 316 76 314 Z M 145 314 L 143 316 L 145 316 L 145 314 Z M 284 316 L 282 319 L 284 318 L 284 316 Z M 45 317 Q 43 322 46 323 L 46 322 L 46 320 L 45 317 Z M 57 318 L 54 319 L 55 322 L 54 324 L 54 335 L 53 336 L 53 346 L 52 347 L 53 349 L 52 350 L 52 361 L 51 362 L 52 367 L 52 369 Q 54 376 50 379 L 53 381 L 57 382 L 58 378 L 55 379 L 55 378 Q 52 376 54 370 L 54 368 L 53 364 L 54 361 L 54 359 L 53 355 L 55 350 L 54 348 L 56 344 L 55 340 L 55 338 L 55 327 L 58 320 Q 59 317 57 318 Z M 17 319 L 14 322 L 13 320 L 12 324 L 11 325 Q 9 321 8 324 Q 5 323 6 326 Q 7 328 9 326 Q 13 325 13 329 L 9 331 L 9 329 L 7 331 L 7 346 L 13 348 L 22 347 L 23 345 L 23 333 L 22 332 Q 23 327 21 328 Q 18 329 19 333 L 14 329 L 15 323 L 19 322 L 21 325 L 21 323 L 17 319 Z M 313 319 L 312 321 L 311 320 L 309 321 L 323 327 L 325 330 L 325 328 L 320 322 L 319 323 L 313 319 Z M 202 320 L 199 323 L 200 331 L 202 327 L 201 322 L 205 321 L 204 320 L 202 320 Z M 297 320 L 299 322 L 307 322 L 308 321 L 297 320 Z M 212 321 L 210 323 L 212 323 L 212 321 Z M 279 321 L 277 323 L 278 325 L 279 323 L 279 321 Z M 289 321 L 288 323 L 291 322 L 289 321 Z M 62 322 L 58 325 L 62 325 L 62 322 Z M 296 323 L 286 326 Q 283 327 285 329 L 284 331 L 284 373 L 286 374 L 291 371 L 301 371 L 314 375 Q 314 363 320 355 Q 323 353 321 352 Q 320 349 325 350 L 329 344 L 326 342 L 324 331 Q 319 325 311 323 L 296 323 Z M 67 325 L 65 327 L 67 327 L 67 325 Z M 188 325 L 188 332 L 190 332 Q 193 334 192 342 L 196 344 L 195 343 L 196 338 L 196 332 L 194 326 L 193 326 L 188 325 Z M 19 326 L 17 328 Q 16 330 19 329 L 19 326 Z M 58 328 Q 54 335 61 333 Q 62 335 63 333 L 63 329 L 59 332 L 58 328 Z M 282 328 L 281 332 L 282 332 L 282 328 Z M 32 329 L 30 331 L 31 334 L 32 331 L 32 329 Z M 209 329 L 208 333 L 208 335 Q 207 338 210 337 L 211 343 L 212 343 L 212 339 L 209 329 Z M 215 329 Q 212 333 216 332 L 215 329 Z M 201 332 Q 200 335 203 334 Q 204 331 201 332 Z M 281 333 L 279 337 L 281 336 L 281 333 Z M 187 335 L 184 338 L 187 338 Q 190 337 187 335 Z M 330 335 L 330 339 L 333 341 Q 335 333 330 335 Z M 163 336 L 163 344 L 164 340 L 163 336 Z M 198 337 L 198 344 L 197 345 L 197 366 L 195 376 L 196 378 L 194 387 Q 193 391 195 393 L 194 396 L 194 418 L 193 419 L 194 421 L 193 424 L 194 435 L 194 437 L 193 451 L 194 451 Q 193 446 196 447 L 195 442 L 195 440 L 196 436 L 195 434 L 196 430 L 198 430 L 196 429 L 197 417 L 197 415 Q 196 410 199 411 L 199 407 L 198 410 L 196 408 L 196 406 L 197 404 L 197 384 L 199 377 L 199 382 L 201 381 L 200 376 L 203 374 L 201 373 L 199 376 L 198 376 L 199 373 L 198 369 L 198 367 L 200 359 L 201 362 L 202 360 L 201 357 L 202 354 L 200 355 Q 201 359 198 358 L 200 354 L 199 351 Q 200 348 202 350 Q 204 351 203 348 L 199 347 L 200 342 Q 202 336 198 337 Z M 222 337 L 221 342 L 222 342 L 222 337 Z M 281 337 L 280 340 L 281 340 L 281 337 Z M 60 338 L 59 341 L 60 341 L 60 338 Z M 30 339 L 22 349 L 25 353 L 30 341 L 30 339 Z M 58 339 L 56 342 L 58 341 L 58 339 Z M 62 339 L 61 342 L 62 342 L 62 339 Z M 180 339 L 178 341 L 183 342 L 183 340 L 180 339 Z M 204 339 L 203 343 L 204 343 L 204 339 Z M 281 341 L 280 345 L 281 345 L 281 341 Z M 176 342 L 178 344 L 186 353 L 193 369 L 194 365 L 194 356 L 192 357 Q 189 356 190 351 L 187 352 L 183 346 L 176 342 Z M 65 343 Q 64 346 68 345 Q 69 342 65 343 Z M 144 343 L 141 345 L 142 348 L 141 359 L 141 361 L 136 392 L 128 418 L 134 417 L 138 404 Q 137 401 141 402 L 142 413 L 146 404 Q 147 400 151 401 Q 150 407 155 409 L 161 408 L 162 406 L 160 402 L 162 402 Q 160 391 153 386 Q 153 379 150 376 L 149 363 L 145 350 L 143 348 L 145 344 L 144 343 Z M 189 343 L 186 345 L 191 351 L 191 349 L 195 351 L 195 348 L 189 343 Z M 207 343 L 207 345 L 211 346 L 208 350 L 211 348 L 215 357 L 216 357 Q 216 349 212 345 Q 211 342 210 344 L 207 343 Z M 70 344 L 68 346 Q 67 348 71 347 L 70 344 Z M 332 344 L 327 351 Q 328 353 326 352 L 322 356 L 317 372 Q 316 375 322 373 L 323 376 L 324 376 L 323 371 Q 322 364 324 362 L 328 361 L 330 361 L 331 359 L 327 357 L 327 354 L 329 354 Q 328 351 331 352 L 333 359 L 334 359 L 333 350 L 331 351 Q 328 352 329 350 L 332 348 L 333 345 L 332 344 Z M 8 348 L 6 350 L 7 352 L 12 355 Q 15 356 13 351 L 8 348 Z M 57 348 L 56 352 L 57 352 L 57 348 Z M 62 349 L 60 352 L 62 352 L 62 349 Z M 46 350 L 46 356 L 47 354 L 46 350 Z M 20 351 L 18 355 L 20 354 L 20 351 Z M 209 351 L 207 353 Q 206 359 209 358 L 210 356 Q 207 357 208 355 L 211 353 Q 212 350 209 351 Z M 42 354 Q 40 357 43 356 L 42 354 Z M 281 354 L 279 357 L 280 361 L 281 361 L 281 354 Z M 9 355 L 8 357 L 11 357 L 9 355 Z M 59 355 L 58 358 L 59 358 L 59 355 Z M 211 355 L 212 357 Q 213 354 211 355 Z M 17 357 Q 16 360 19 359 Q 20 356 17 357 Z M 36 357 Q 35 360 38 359 Q 39 356 36 357 Z M 213 357 L 210 360 L 211 361 L 214 359 Q 215 356 213 357 Z M 41 358 L 41 362 L 43 361 Q 44 357 41 358 Z M 55 358 Q 54 361 57 360 Q 58 357 55 358 Z M 61 359 L 61 361 L 60 364 L 62 364 L 62 359 L 61 359 Z M 178 360 L 177 362 L 179 363 L 178 360 Z M 334 361 L 327 363 L 326 367 L 333 366 L 334 363 L 334 361 Z M 57 362 L 55 364 L 57 364 L 57 362 Z M 43 363 L 41 366 L 44 364 L 43 363 Z M 180 363 Q 177 367 181 366 L 180 363 Z M 208 363 L 206 367 L 206 383 L 210 389 L 242 412 L 257 418 L 260 422 Q 259 424 262 423 L 264 419 L 264 404 L 265 400 L 261 399 Q 258 398 259 393 L 262 394 L 263 393 L 266 396 L 265 398 L 266 400 Q 269 399 268 394 L 266 391 L 249 385 L 217 369 L 208 363 Z M 279 363 L 280 368 L 281 368 Q 283 362 279 363 Z M 200 364 L 200 367 L 202 366 Q 203 363 200 364 Z M 39 366 L 36 370 L 37 372 L 35 372 Q 34 376 40 374 L 41 375 L 40 371 L 38 371 L 39 369 L 39 366 Z M 60 366 Q 59 369 62 368 Q 63 365 60 366 Z M 43 367 L 41 370 L 44 371 L 44 369 L 43 367 Z M 177 367 L 176 376 L 175 377 L 176 397 L 184 420 Q 183 427 186 426 L 190 432 L 190 414 L 185 411 L 184 409 L 185 402 L 180 401 L 179 399 L 180 394 Q 181 390 185 391 L 182 397 L 185 400 L 189 398 L 191 399 L 191 393 L 181 387 L 178 384 Q 179 373 177 367 Z M 180 368 Q 178 371 181 370 L 180 368 Z M 201 368 L 200 371 L 202 370 Q 204 371 203 369 L 201 368 Z M 331 368 L 329 370 L 331 376 L 326 379 L 319 375 L 316 376 L 317 380 L 315 386 L 315 404 L 316 405 L 315 408 L 316 409 L 317 425 L 318 426 L 317 430 L 318 431 L 318 458 L 319 464 L 331 466 L 334 468 L 334 453 L 333 452 L 334 450 L 333 448 L 333 380 L 332 379 L 333 374 L 333 368 L 331 368 Z M 46 369 L 46 374 Q 45 379 49 377 Q 50 374 47 375 L 46 369 Z M 326 369 L 327 373 L 328 373 Q 329 368 326 369 Z M 60 370 L 61 374 L 62 374 Q 63 369 60 370 Z M 184 370 L 180 379 L 181 384 L 185 387 L 186 386 L 189 387 Q 192 383 191 375 L 192 373 Q 189 372 190 376 Q 188 380 187 377 Q 184 376 185 379 L 184 379 L 185 377 L 184 374 L 184 372 L 184 370 Z M 30 371 L 30 374 L 33 373 Q 34 370 30 371 Z M 188 371 L 187 374 L 188 374 L 188 371 Z M 24 373 L 22 375 L 25 375 Q 26 372 24 373 Z M 42 373 Q 41 376 44 375 Q 45 372 42 373 Z M 281 374 L 280 377 L 281 377 L 281 374 Z M 19 375 L 16 377 L 13 381 L 20 377 Q 21 374 19 375 Z M 30 376 L 20 379 L 6 395 L 6 449 L 5 450 L 6 451 L 6 513 L 7 514 L 8 576 L 23 558 L 35 529 L 35 527 L 36 523 L 39 521 Q 32 553 12 574 Q 13 576 11 575 L 7 580 L 7 590 L 9 591 L 13 590 L 17 591 L 19 590 L 21 591 L 23 590 L 27 591 L 29 591 L 31 590 L 33 591 L 50 591 L 70 561 L 75 547 L 87 522 L 91 503 L 95 500 Q 93 503 94 510 L 80 547 L 63 577 L 63 581 L 57 588 Q 58 590 56 589 L 54 589 L 53 591 L 59 592 L 60 591 L 174 591 L 175 590 L 179 591 L 181 591 L 197 591 L 198 590 L 215 590 L 216 591 Q 221 593 223 590 L 224 591 L 255 591 L 257 591 L 264 592 L 267 591 L 270 592 L 272 592 L 271 566 L 268 565 L 262 566 L 264 572 L 261 570 Q 258 571 259 567 L 262 564 Q 268 566 270 563 Q 272 564 271 561 L 268 562 Q 263 562 261 559 Q 264 554 272 555 L 271 552 L 269 553 L 262 550 L 266 547 L 271 547 L 271 541 L 274 538 L 279 537 L 284 538 L 285 542 L 281 545 L 279 544 Q 275 545 276 542 Q 281 543 282 541 L 275 540 L 275 546 L 284 546 L 284 548 L 277 548 L 276 550 Q 280 551 282 549 Q 286 548 288 551 Q 287 553 286 551 L 284 552 L 282 551 L 275 554 Q 276 556 278 554 L 286 554 L 286 556 L 284 557 L 281 556 L 283 559 L 285 558 L 290 560 L 290 552 L 295 532 L 299 520 L 307 507 Q 305 500 309 498 Q 311 497 310 501 L 312 500 L 313 501 Q 310 501 311 506 L 308 508 L 302 517 L 298 528 L 295 543 L 293 547 L 293 559 L 288 580 Q 289 584 286 583 L 289 564 Q 284 567 275 566 L 274 570 L 275 589 L 276 590 L 277 592 L 286 592 L 288 592 L 291 591 L 294 592 L 297 591 L 301 583 L 305 562 L 308 560 L 304 581 L 299 591 L 300 592 L 314 592 L 318 576 L 318 563 L 317 562 L 318 551 L 319 550 L 319 539 L 321 531 L 323 528 L 325 519 L 331 509 Q 330 506 333 507 L 333 497 L 328 499 L 331 499 Q 332 502 328 501 L 319 510 L 317 518 L 317 520 L 315 526 L 310 530 L 311 534 Q 312 537 309 536 L 308 534 L 309 530 L 309 528 L 306 529 L 304 536 L 303 549 L 302 550 L 302 573 L 295 589 Q 296 592 292 590 L 295 585 Q 294 582 297 583 L 296 581 L 300 570 L 300 545 L 304 530 L 312 524 Q 315 524 314 520 L 314 518 L 317 509 L 323 501 L 331 495 L 333 495 L 333 490 L 333 488 Q 332 481 334 479 L 327 482 L 322 487 L 322 489 L 319 488 L 321 485 L 334 475 L 333 471 Q 330 469 323 470 L 317 467 L 306 457 L 302 451 L 300 452 Q 291 454 287 450 L 284 445 Q 284 451 281 453 Q 272 454 268 451 L 267 445 L 264 449 Q 263 451 262 449 L 259 451 L 253 451 L 247 449 L 242 443 Q 244 438 240 439 L 237 443 L 235 441 L 231 441 L 224 438 L 220 434 L 219 428 Q 216 427 217 430 L 211 432 L 207 431 Q 203 430 205 436 L 205 438 L 206 445 L 206 449 L 204 465 L 199 467 L 196 466 Q 197 463 194 464 Q 193 468 196 467 Q 196 472 199 474 L 201 490 L 204 496 L 203 500 L 205 514 L 212 533 L 215 531 L 218 532 L 219 538 L 217 541 Q 221 540 219 545 L 227 545 L 228 546 L 233 545 L 235 545 L 243 545 L 244 547 L 243 551 L 240 554 L 222 562 L 224 570 Q 222 574 216 573 L 213 568 L 198 576 Q 191 577 189 574 L 190 572 Q 191 569 188 570 L 187 568 L 188 565 Q 189 559 185 558 L 182 542 L 180 540 L 176 522 L 172 514 L 172 510 Q 171 507 170 509 Q 167 510 168 507 L 166 508 L 163 503 L 164 499 L 163 499 Q 164 501 161 500 L 158 498 L 157 484 L 156 483 L 158 480 Q 155 478 156 474 L 161 470 L 159 466 Q 158 461 161 461 Q 160 454 155 452 Q 156 449 153 450 L 153 448 L 151 448 L 151 446 L 143 439 Q 140 440 141 437 L 127 428 L 126 430 L 123 432 L 124 434 L 118 448 L 116 465 L 115 466 L 114 505 L 113 506 L 112 522 L 110 528 L 110 537 L 110 539 L 102 564 L 92 579 L 89 585 L 89 588 L 87 587 L 88 582 L 95 570 L 104 548 L 108 529 L 109 516 L 111 513 L 111 505 L 111 503 L 114 457 Q 117 451 117 443 L 120 438 L 119 433 L 124 428 L 126 428 L 124 425 L 123 427 L 116 430 Q 113 429 114 432 L 108 435 L 91 456 Q 92 458 90 457 L 85 463 L 82 464 L 70 474 L 60 477 Q 56 476 57 479 L 56 478 Q 53 481 46 480 Q 42 483 42 489 L 32 497 L 28 498 Q 25 497 26 494 L 25 494 L 21 492 L 22 487 L 16 485 L 12 480 L 12 471 L 19 453 Q 15 451 18 450 L 17 448 L 18 442 L 25 433 L 24 431 L 27 426 L 41 413 Q 43 414 42 411 L 50 406 Q 55 403 49 401 L 52 395 L 57 391 L 60 386 L 55 385 L 43 378 L 41 378 Q 38 374 30 376 Z M 203 376 L 202 383 L 204 382 L 203 376 Z M 11 381 L 7 386 L 8 388 L 12 382 L 11 381 Z M 295 381 L 283 386 Q 281 384 280 387 L 285 395 L 283 404 Q 282 409 286 410 L 286 408 L 289 408 L 295 412 L 303 409 L 304 405 Q 305 402 309 403 L 310 402 Q 309 395 312 393 L 312 387 Q 307 380 295 381 Z M 312 381 Q 310 384 313 383 L 312 381 Z M 201 382 L 198 389 L 198 398 L 199 399 L 198 401 L 199 405 Q 201 404 199 403 L 201 400 L 199 396 L 201 389 L 201 382 Z M 277 383 L 276 386 L 277 386 L 277 383 Z M 269 385 Q 268 389 271 388 Q 272 384 269 385 Z M 207 388 L 206 398 L 208 398 L 212 403 Q 214 402 213 405 L 226 416 L 240 425 L 260 431 L 263 433 Q 270 432 273 435 Q 280 437 282 432 Q 287 431 289 433 L 291 432 L 290 428 Q 291 425 288 426 L 284 415 L 281 412 L 277 406 L 274 408 L 269 402 L 266 412 L 268 417 L 266 425 L 263 427 L 255 420 L 242 414 Q 239 415 240 412 L 232 408 L 210 392 L 207 388 Z M 203 389 L 201 391 L 203 402 L 203 394 L 203 392 L 203 389 Z M 270 390 L 271 392 L 272 392 L 270 390 Z M 274 390 Q 273 394 276 393 Q 277 389 274 390 Z M 279 395 L 271 400 L 272 403 L 279 398 L 279 395 Z M 191 401 L 188 407 L 188 409 Q 187 411 191 410 L 191 401 Z M 207 402 L 206 411 L 207 412 L 207 421 L 206 422 Q 205 428 210 430 L 213 429 L 214 424 L 220 423 L 224 425 Q 225 429 222 431 L 225 435 Q 227 434 226 437 L 233 439 L 235 439 L 239 435 Q 243 434 244 437 L 245 438 L 245 445 L 252 449 Q 258 451 260 448 L 259 446 L 261 441 L 267 440 Q 271 441 270 449 L 273 451 L 277 452 L 280 451 L 280 444 L 283 441 L 287 442 L 290 441 L 293 450 Q 299 451 300 448 Q 300 439 295 436 L 293 439 L 291 437 L 289 435 L 285 437 L 284 436 L 281 438 Q 270 440 265 437 L 263 437 L 261 435 L 248 430 L 245 430 L 232 424 Q 217 415 207 402 Z M 273 402 L 274 405 L 275 403 L 273 402 Z M 202 405 L 200 409 Q 199 411 202 410 L 203 408 L 202 405 Z M 312 405 L 309 406 L 309 408 L 309 409 L 304 409 L 304 411 Q 308 410 309 413 L 309 414 L 304 414 L 304 416 L 306 415 Q 310 413 309 417 L 309 419 L 310 422 L 309 426 L 311 427 L 311 415 L 310 414 Q 310 409 313 409 L 312 405 Z M 165 407 L 159 412 Q 150 413 148 408 L 144 417 L 139 416 L 137 419 L 128 423 L 138 430 Q 141 429 140 432 Q 151 439 160 450 L 162 453 L 169 457 L 166 465 L 166 475 L 168 480 L 182 479 L 184 479 L 190 480 Q 193 478 193 473 L 189 472 L 189 462 L 190 461 L 189 443 L 187 436 L 183 430 L 178 424 L 177 425 L 177 424 L 165 407 Z M 282 407 Q 279 411 283 410 L 282 407 Z M 202 412 L 199 415 L 202 415 L 202 412 Z M 293 413 L 291 415 L 292 420 L 295 423 Q 292 430 299 428 L 302 431 L 302 422 L 298 422 L 296 414 L 293 413 Z M 301 413 L 299 415 Q 297 421 301 420 L 301 413 Z M 289 414 L 289 421 L 292 423 L 289 414 Z M 201 417 L 202 419 Q 203 416 201 417 Z M 307 418 L 304 419 L 305 421 L 308 419 L 307 418 Z M 202 420 L 198 421 L 198 423 Q 202 421 201 425 L 202 425 L 202 420 Z M 312 421 L 314 429 L 315 429 Q 316 424 314 423 Q 315 420 312 421 Z M 304 423 L 304 426 L 308 425 Q 309 421 304 423 Z M 304 428 Q 303 431 306 430 Q 307 427 304 428 Z M 311 428 L 309 430 L 311 431 L 311 428 Z M 199 430 L 197 433 L 199 432 L 199 430 Z M 201 430 L 200 433 L 201 433 L 201 430 Z M 296 430 L 296 434 L 301 440 L 302 440 L 300 434 L 296 430 Z M 311 432 L 310 433 Q 305 432 307 436 L 310 436 L 308 435 L 311 434 L 311 432 Z M 304 433 L 304 437 L 306 436 Q 307 432 304 433 Z M 201 434 L 197 437 L 198 440 L 198 438 L 201 437 L 201 434 Z M 312 435 Q 309 436 311 438 L 310 441 L 311 443 L 312 443 L 312 435 Z M 200 439 L 198 441 L 201 441 Q 202 438 200 439 Z M 307 439 L 306 441 L 310 440 L 307 439 Z M 196 441 Q 195 444 198 443 Q 199 440 196 441 Z M 309 443 L 308 444 Q 305 443 306 446 L 309 446 L 311 445 L 309 443 Z M 315 443 L 314 454 L 315 454 L 315 443 Z M 198 445 L 197 448 L 198 448 L 198 445 Z M 312 445 L 310 450 L 311 453 L 311 454 L 310 453 L 308 452 L 306 453 L 307 455 L 313 459 L 313 458 L 313 456 L 312 445 Z M 199 446 L 200 449 L 199 451 Q 198 453 201 452 L 201 446 L 199 446 Z M 304 446 L 303 449 L 304 449 L 304 446 Z M 198 449 L 197 451 L 193 452 L 195 460 L 196 454 Q 195 451 198 452 L 198 449 Z M 197 454 L 196 457 L 197 457 L 197 454 Z M 199 454 L 200 456 Q 201 453 199 454 Z M 315 455 L 313 461 L 316 462 L 315 455 Z M 197 458 L 197 463 L 201 464 L 199 460 L 201 460 Q 199 456 198 460 L 197 458 Z M 194 479 L 191 480 L 189 483 L 182 483 L 181 484 L 178 483 L 168 484 L 170 488 L 170 489 L 166 489 L 166 491 L 170 492 Q 175 491 173 495 L 167 496 L 172 499 L 171 501 L 170 500 L 167 502 L 168 504 L 175 505 L 174 498 Q 172 496 175 495 L 174 493 L 175 491 Q 176 488 181 489 Q 183 492 182 499 L 194 497 L 197 488 L 195 481 Q 196 478 194 479 Z M 162 485 L 161 491 L 162 491 L 162 485 Z M 200 495 L 199 496 Q 195 496 197 503 L 201 500 L 200 495 Z M 189 500 L 188 501 L 183 501 Q 184 505 181 504 L 181 508 L 184 512 L 187 521 L 186 524 L 183 523 Q 184 520 182 521 L 180 519 L 179 519 L 183 532 L 186 525 L 190 526 L 191 534 L 193 536 Q 195 541 192 540 L 192 542 Q 193 545 191 544 L 189 544 L 189 541 Q 190 538 186 539 L 186 538 L 184 537 L 186 541 L 188 555 L 191 559 Q 190 568 193 572 L 196 573 L 203 570 L 205 566 L 209 564 Q 211 563 210 566 L 213 565 L 209 552 L 207 553 L 205 549 L 200 551 Q 199 547 203 546 L 201 539 L 200 527 L 193 503 Q 194 498 189 500 Z M 176 505 L 176 507 L 175 509 L 178 518 L 179 518 L 178 513 Q 177 507 180 506 L 176 505 Z M 200 507 L 199 511 L 200 511 L 200 507 Z M 333 511 L 327 522 L 326 531 L 324 535 Q 325 543 322 547 L 322 568 Q 319 569 321 576 L 317 586 L 317 593 L 319 592 L 328 593 L 330 593 L 332 592 L 333 592 L 333 557 L 333 555 L 333 545 L 334 544 Q 336 537 333 536 L 333 524 L 334 522 L 334 520 L 333 514 Q 335 512 333 511 Z M 205 524 L 204 526 L 204 528 Q 203 531 206 530 L 205 524 Z M 205 531 L 206 536 L 207 533 Q 208 530 205 531 Z M 207 536 L 205 539 L 207 538 L 207 536 Z M 213 536 L 214 539 L 215 537 L 213 536 Z M 210 538 L 209 540 L 208 539 L 207 545 L 207 546 L 209 546 L 208 544 L 208 542 L 210 541 L 210 538 Z M 212 542 L 213 556 L 217 567 Q 216 570 219 569 L 217 561 L 217 555 L 215 551 L 215 544 L 212 542 Z M 236 548 L 230 550 L 219 549 Q 218 556 222 561 L 231 554 L 239 551 Q 241 547 236 548 Z M 268 549 Q 267 551 271 551 Q 272 548 268 549 Z M 277 556 L 275 559 Q 279 560 280 558 L 277 556 Z M 267 557 Q 264 559 267 560 L 272 559 Q 273 555 267 557 Z M 281 560 L 277 561 Q 274 563 277 564 L 285 564 L 286 563 Q 288 564 287 561 L 281 560 Z "></path><path d="M 180.5 20 L 189 21.5 Q 187.8 24.3 186.5 22 L 180.5 23 L 179 24.5 L 180 30.5 L 180 32.5 L 180 39 L 187.5 39 L 186.5 41 Q 181.7 39.7 180.5 42 Q 178.7 39.2 172.5 41 L 170.5 41 Q 164.3 39.2 162.5 42 Q 161 39.5 155.5 41 Q 154 43.5 148.5 42 L 146 41.5 L 147.5 39 L 153.5 40 L 157 39 L 156 34.5 L 148.5 23 L 146.5 24 L 143.5 23 L 141 22.5 L 144.5 21 L 146.5 21 L 148.5 22 L 149.5 21 L 179.5 21 L 180.5 20 Z M 155 23 L 155 27 L 160 35 L 164 26 Q 165 22 162 23 L 160 23 L 158 24 L 155 23 Z M 170 23 L 167 27 L 163 39 L 176 39 L 176 25 Q 175 22 170 23 Z "></path><path d="M 78.5 107 Q 83 106 84 108.5 Q 86.2 114.8 80.5 113 L 77 110.5 L 78.5 107 Z M 80 109 L 81 111 Q 82 108 80 109 Z "></path><path d="M 129.5 195 L 128.5 197 L 129.5 195 Z "></path><path d="M 21.5 285 L 25 286 L 24 290.5 L 25.5 290 L 27.5 289 L 30 290 L 30 295 L 27.5 295 L 28 293.5 L 27.5 291 L 23.5 293 L 21 292 L 22 287.5 L 21.5 285 Z "></path><path d="M 206.5 288 L 209 288.5 L 206.5 289 L 206.5 288 Z "></path><path d="M 313.5 290 L 317 292.5 L 319 297 Q 316.3 298.1 317 295.5 L 313.5 290 Z "></path><path d="M 202.5 296 L 201.5 298 L 202.5 296 Z "></path><path d="M 137.5 307 L 138 309 L 135.5 310 L 137.5 307 Z "></path><path d="M 167 318 Q 170.7 316.5 170 319.5 L 166.5 324 Q 163.9 324.8 165 321.5 L 167 318 Z "></path><path d="M 291.5 328 L 296 330.5 L 293.5 331 L 291.5 328 Z "></path><path d="M 287 331 L 290 332.5 Q 289.1 335.5 293.5 334 L 298 337.5 L 299 341.5 L 296 343 Q 297.5 346.8 294.5 346 L 290.5 345 L 288 342.5 Q 289.2 337.7 287 336.5 L 287 334.5 L 287 331 Z M 296 337 L 296 342 L 297 342 Q 298 338 296 337 Z M 293 338 Q 289 339 290 343 L 294 343 L 293 338 Z "></path><path d="M 17.5 334 L 19.5 335 L 21 334.5 Q 22.3 338.7 17.5 337 L 17.5 334 Z "></path><path d="M 18.5 338 L 22 339.5 Q 23.3 343.3 19.5 342 L 16 343 Q 15.3 339.2 18.5 338 Z "></path><path d="M 24.5 347 L 25 349.5 L 24 349.5 L 24.5 347 Z "></path><path d="M 71.5 351 L 74 352.5 L 74 354 L 70 354 L 71.5 351 Z "></path><path d="M 72.5 358 L 75 359.5 L 71 361 L 72.5 358 Z "></path><path d="M 69 365 L 73 365.5 L 69.5 368 L 69 365 Z "></path><path d="M 213.5 371 Q 218.3 370.3 219 373.5 L 217.5 378 L 215.5 375 L 213.5 375 Q 210.9 375.8 212 372.5 L 213.5 371 Z "></path><path d="M 230 380 L 236 382 Q 237.3 386.6 234.5 388 L 229 384.5 L 230 380 Z "></path><path d="M 328 381 Q 332.5 379.5 331 384 Q 326.5 385.5 328 381 Z "></path><path d="M 212.5 382 Q 216.3 381.3 217 383.5 L 216.5 389 L 213 386.5 L 211 383.5 L 212.5 382 Z "></path><path d="M 328.5 386 L 330 388.5 Q 328.5 391.5 327 388.5 L 328.5 386 Z "></path><path d="M 245 387 L 251 389 L 250.5 394 L 246.5 392 L 245 392.5 L 245 387 Z "></path><path d="M 317.5 387 L 321 392.5 L 319 393.5 Q 315.9 391.5 317.5 387 Z "></path><path d="M 227 391 L 233 392 L 234 395.5 L 233 399 L 231 399 L 231 397 L 227 395 L 227 391 Z "></path><path d="M 288 393 Q 292.7 392.3 294 396.5 L 295 403.5 L 292.5 407 Q 288.8 407.8 288 405.5 Q 287.3 402.9 290 404 L 290 401.5 L 292 396.5 L 290 395.5 Q 291 400 288.5 401 L 288 398.5 L 288 396.5 L 288 393 Z "></path><path d="M 317.5 396 L 322 408.5 L 321 411 L 325 410 L 326 418 L 323 416.5 Q 324.1 413.2 321.5 414 L 319 410.5 L 316 397.5 L 317.5 396 Z "></path><path d="M 242.5 400 L 249 403.5 Q 250 408 247.5 409 Q 246.3 405.3 242 406 L 240 402.5 L 242.5 400 Z "></path><path d="M 255 407 Q 260.7 406 263 409.5 L 261.5 414 Q 260 410.5 258.5 413 L 255 412 L 255 407 Z "></path><path d="M 148.5 411 L 149.5 413 L 148.5 411 Z "></path><path d="M 319 417 Q 323 415.6 321 422.5 L 323.5 429 L 324 426 L 327 427.5 L 332 435.5 L 332 439 Q 326.4 440 325 435.5 L 319 421.5 L 319 417 Z M 326 430 L 326 435 L 329 437 L 326 430 Z "></path><path d="M 139.5 419 L 141 421.5 L 139 420.5 L 139.5 419 Z "></path><path d="M 141.5 429 L 142.5 431 L 141.5 429 Z "></path><path d="M 144.5 431 L 147 432 L 146.5 435 L 144.5 431 Z "></path><path d="M 109.5 437 L 112 438.5 L 104 455.5 L 103 476.5 L 104 477.5 L 104 491.5 L 103 492.5 L 101 512.5 L 91 545.5 L 87 556.5 L 78.5 571 L 73.5 573 Q 70.5 572.5 71 568.5 L 76.5 561 L 78.5 560 L 79 562.5 L 76 565.5 L 75 569.5 L 76.5 570 L 80 565.5 L 86 551.5 L 97 515.5 L 98 495.5 L 100 485.5 L 100 457.5 L 106 440.5 L 109.5 437 Z "></path><path d="M 321 437 Q 324.3 435.7 323 440.5 L 329 449.5 L 332 455.5 L 332 458.5 L 330 457.5 L 324 446 Q 321 447.3 322 443.5 L 320 439.5 L 321 437 Z "></path><path d="M 135.5 441 L 137 441.5 Q 132.7 445 134 453 Q 137.7 454.4 136 448.5 L 138 447.5 L 137 459.5 L 134 473.5 L 134 483.5 L 132 487.5 L 129 509 Q 125.7 507.7 127 512.5 L 126 513.5 L 125 535.5 L 122 552.5 L 124 557 L 121 555.5 L 120 549.5 L 122 544.5 L 124 514.5 L 130 487 Q 127 488.3 128 484.5 L 131 472.5 L 133 456.5 Q 130.2 454.8 132 448.5 L 135.5 441 Z M 133 475 L 130 483 L 131 484 L 133 479 L 133 475 Z "></path><path d="M 321.5 450 L 327 456.5 L 330 463.5 Q 328 467 326 462.5 L 325 458.5 L 320 451.5 L 321.5 450 Z "></path><path d="M 285 452 Q 289.1 450.3 288 454.5 L 289 458.5 L 289 460.5 L 288 463.5 L 289 466.5 L 288 467.5 L 287 479.5 L 288 482 L 285 482 L 285 475.5 L 286 474.5 L 286 465.5 L 284 454.5 L 285 452 Z "></path><path d="M 299.5 456 L 302 465 L 299 463.5 L 297 457 L 299.5 456 Z "></path><path d="M 293.5 463 L 295 463.5 L 295 470.5 L 294 471.5 L 293 484.5 L 290 493.5 L 290 498.5 L 286 508.5 L 285 522.5 L 288.5 529 L 291 530.5 L 287 531 L 287 529 Q 284.3 530.1 285 527.5 L 283 524.5 L 283 513.5 L 289 492.5 L 291 474.5 L 292 473.5 L 292 464.5 L 293.5 463 Z "></path><path d="M 302.5 471 L 303 474.5 L 298 498.5 L 299 499.5 L 299 508.5 L 298 514 L 295 512.5 Q 297.8 509.8 297 503.5 Q 294.2 501.8 296 495.5 L 300 480.5 L 299 478.5 L 300 472 L 302.5 471 Z "></path><path d="M 325.5 472 L 327 474.5 L 316 481.5 L 314.5 484 L 312 485.5 L 305.5 497 L 305 495.5 L 312 481.5 L 316.5 477 L 325.5 472 Z "></path><path d="M 91.5 479 Q 93.8 478.3 93 480.5 L 94 483.5 L 72 539.5 L 62 555.5 L 61 559.5 L 55 566.5 L 54 570.5 L 41.5 584 L 34.5 586 L 32 585 Q 31 579.4 35.5 578 L 39 577 L 37.5 581 Q 34.9 580.3 36 583 L 39.5 582 L 47 574.5 L 55 559 Q 57.7 560.1 57 557.5 L 64 547.5 L 75 523 Q 78 524.3 77 520.5 L 83 504.5 L 85 502.5 L 90 482.5 Q 87.2 480.8 91.5 479 Z "></path><path d="M 148.5 509 L 151 514.5 L 149 518.5 L 149 532.5 L 140 564.5 L 140 584.5 Q 142.3 585.8 139.5 587 L 137 585.5 L 136 571.5 L 143 538.5 L 146 530.5 L 146 523.5 L 145 521.5 L 147 510.5 L 148.5 509 Z "></path><path d="M 148.5 559 L 150 559.5 L 150 579.5 L 153 583.5 Q 151.8 586.3 150.5 584 Q 148.3 584.8 149 582.5 L 147 579.5 L 147 560.5 L 148.5 559 Z "></path><path d="M 281.5 567 Q 284 568.2 283 572 Q 277 574 279 568 L 281.5 567 Z "></path><path d="M 305 580 Q 308 578.8 307 582.5 L 305 581.5 L 305 580 Z "></path></svg>