<svg width="350" height="600" version="1.1" xmlns="http://www.w3.org/2000/svg" desc="Created with imagetracer.js version 1.2.5"><path d="M 235.5 3 L 237.5 4 L 257.5 4 L 260.5 3 L 262.5 3 L 268.5 4 L 269.5 3 L 332.5 3 L 335 4 L 335 22.5 L 336 24.5 L 335 27.5 L 336 28.5 L 336 67.5 L 337 68.5 L 336 70.5 L 336 72.5 L 337 158.5 L 336 160.5 L 337 165.5 Q 334.5 167 336 172.5 L 337 176.5 L 336 179.5 L 337 180.5 L 337 188.5 L 336 190.5 L 337 192.5 L 336 195.5 L 337 199.5 L 336 202.5 L 337 203.5 L 337 222.5 L 337 224.5 Q 334.5 230 336 239.5 L 336 241.5 L 337 243.5 L 336 247.5 L 337 252.5 L 336 253.5 L 336 269.5 L 335 271.5 L 337 279.5 L 337 344.5 L 338 345.5 L 337 347.5 L 338 351.5 L 337 353.5 L 338 357.5 L 337 358.5 Q 338.4 367.4 336 372.5 L 336 374.5 L 337 400.5 L 336 401.5 L 336 410.5 L 337 411.5 L 337 484.5 L 338 485.5 L 338 496.5 L 337 497.5 L 337 506.5 Q 339.8 508.3 338 514.5 L 337 515.5 L 337 554.5 L 338 559.5 L 337 564.5 L 338 565.5 L 338 592 L 335.5 593 L 318.5 593 L 316.5 593 L 304.5 593 L 303.5 594 L 264.5 594 L 263.5 595 L 261.5 595 L 254.5 594 L 253.5 595 L 239.5 595 Q 238 592.5 232.5 594 L 230.5 594 Q 224.5 593 222.5 596 L 217.5 594 L 216.5 595 L 181.5 595 L 179.5 594 L 177.5 595 L 175.5 595 L 168.5 594 L 167.5 595 L 157.5 595 L 156.5 593 L 190.5 593 L 191.5 592 L 192.5 593 L 202.5 593 L 204.5 593 L 206.5 592 Q 208.2 594.8 214.5 593 L 217.5 592 L 222.5 593 L 225.5 591 Q 227 594.5 228.5 592 L 234.5 593 L 237.5 592 L 241.5 593 L 244.5 592 L 249.5 593 L 251.5 592 L 255.5 593 L 256.5 592 L 293.5 592 L 294.5 591 L 296.5 592 L 298.5 591 L 301.5 592 L 303.5 591 L 305.5 591 L 307.5 592 L 308.5 591 L 334 591 L 334 584.5 L 332.5 584 L 330 585 L 331.5 582 Q 335.3 583 334 580 L 328.5 580 L 328 581.5 L 329 584.5 L 326.5 588 Q 321.9 589.4 324 583.5 L 325 580 L 322.5 579 L 320.5 579 L 318 581.5 L 319 585 L 316.5 586 L 315 583.5 L 317.5 579 L 324 578 L 323.5 576 L 321.5 577 L 318 574.5 L 320 571.5 L 316 571 L 313.5 575 L 296.5 583 L 272.5 585 L 273.5 583 L 292.5 582 L 300 580 Q 298.9 577.3 301.5 578 L 314 571.5 L 312 570.5 L 313.5 569 L 323 568.5 L 315 565.5 L 316.5 562 L 318 561.5 L 305.5 561 L 303 562.5 L 304 565.5 L 296.5 570 L 286.5 570 L 285.5 571 L 283.5 570 L 281.5 571 Q 280.3 568.8 279 571.5 Q 285.5 571 288 574.5 L 289 579 L 284.5 580 L 276 574.5 Q 276.8 571.9 273.5 573 L 271.5 574 Q 270.1 571.4 265.5 572 L 256.5 574 L 254.5 573 L 243.5 575 L 242.5 574 L 208.5 573 L 206.5 572 L 202.5 573 L 198.5 573 L 195.5 572 L 194.5 573 L 184.5 573 L 181.5 572 L 170.5 572 L 169.5 573 L 168.5 572 L 120.5 572 L 119.5 571 L 117.5 571 L 113.5 572 L 109.5 571 L 105.5 572 L 100.5 571 L 98.5 571 L 86.5 572 L 84.5 571 Q 83 573.5 77.5 572 L 72.5 571 L 69.5 574 L 65.5 575 L 50.5 575 L 45.5 574 L 43.5 574 L 38.5 575 L 36.5 574 L 32.5 575 L 30.5 574 L 29.5 575 L 14.5 575 L 10.5 574 L 9 575.5 L 9 584.5 L 12 589.5 Q 8.2 590.7 9 595 L 14.5 594 L 15.5 595 L 25.5 595 L 29.5 594 L 32.5 595 L 33.5 594 L 52.5 594 L 53.5 593 L 66 593 Q 65 590 68 591 L 68 588.5 L 66.5 589 L 45.5 589 L 42.5 588 L 39.5 589 L 37.5 589 L 31.5 588 L 26.5 590 L 24.5 589 L 18.5 591 Q 17.3 588 13 589 L 12 586.5 L 15 584.5 L 17.5 581 L 20 582.5 L 20.5 587 L 24.5 584 L 26 587 L 32.5 586 L 36.5 587 L 40.5 586 L 41.5 587 L 69.5 587 Q 70.9 584.4 75.5 585 L 76.5 586 L 96.5 586 Q 99.6 582.4 107 584 Q 106 579.3 109.5 578 Q 114 577 115 579.5 L 116 584 L 120.5 583 L 124.5 584 L 128 582 L 128.5 584 L 131.5 579 Q 135.3 578.3 136 580.5 L 136.5 585 L 145.5 583 L 149 584 L 149 587 Q 152.3 585.9 151 590 L 148.5 591 L 145.5 589 L 142.5 590 L 139.5 585 L 136.5 589 Q 134.3 589.8 135 587.5 Q 133.8 584.8 132.5 587 L 128.5 585 L 124.5 586 L 123 585.5 L 124 590 Q 118.8 592.1 120 587.5 L 121 585 L 113 585 L 113 587.5 L 110 589 L 108.5 585 L 98.5 586 L 94.5 588 L 85.5 588 L 83.5 587 L 78 588 Q 76.9 590.7 79.5 590 L 82.5 589 L 84 591.5 L 83.5 593 L 123.5 593 L 125.5 592 L 126.5 593 L 144.5 593 L 146.5 593 Q 151.3 594.3 152.5 592 L 155 593.5 L 137.5 594 L 136.5 595 L 88.5 595 L 87.5 596 L 82.5 595 L 80.5 596 L 77.5 595 L 76.5 596 L 68.5 596 L 66.5 596 L 34.5 596 L 32.5 597 L 30.5 597 L 15.5 597 L 14.5 596 Q 13.2 598.3 8.5 597 L 7 595.5 L 7 551.5 L 6 550.5 L 7 549.5 L 7 534.5 L 7 532.5 L 6 528.5 L 7 525.5 L 6 524.5 L 6 427.5 L 7 426.5 L 7 417.5 L 7 415.5 L 6 374.5 L 6 372.5 L 6 354.5 L 7 353.5 L 7 351.5 L 6 341.5 L 7 340.5 L 7 315.5 L 7 313.5 L 6 305.5 L 7 304.5 L 7 293.5 L 6 291.5 L 6 289.5 L 7 272.5 L 6 269.5 Q 8.8 267.8 7 261.5 L 6 256.5 L 6 254.5 L 7 252.5 L 7 250.5 L 7 235.5 L 6 234.5 Q 8.3 233.3 7 228.5 L 7 226.5 L 6 222.5 Q 8.3 221.2 7 216.5 L 7 214.5 L 7 195.5 L 6 191.5 L 7 186.5 L 6 184.5 L 7 182.5 Q 4.3 180.8 6 174.5 L 7 173.5 L 7 162.5 L 6 160.5 L 7 159.5 L 7 150.5 L 7 148.5 L 6 143.5 L 7 142.5 L 7 128.5 L 6 126.5 L 7 125.5 L 7 101.5 L 6 99.5 L 7 94.5 L 7 92.5 L 6 71.5 L 7 69.5 L 6 66.5 L 6 32.5 L 7 29.5 Q 4.5 28 6 22.5 L 7 20.5 L 6 17.5 L 6 15.5 L 7 7.5 L 8.5 6 L 76.5 5 L 79.5 4 L 80.5 5 L 95.5 5 L 97.5 5 L 106.5 5 L 107.5 4 L 169.5 4 L 171.5 4 L 234.5 4 L 235.5 3 Z M 320 4 L 319 5 L 279 5 L 277 5 L 275 6 L 273 5 L 271 6 L 267 5 L 265 6 L 263 6 L 254 6 L 253 5 L 252 6 L 191 6 L 190 7 L 188 6 L 170 6 L 168 6 Q 163 5 162 7 L 160 6 L 146 6 L 144 6 L 123 6 L 122 7 L 121 6 L 112 6 L 110 6 L 96 6 L 95 7 L 90 6 L 88 7 L 86 6 L 84 7 L 58 7 L 57 8 Q 55 6 50 7 L 48 7 L 45 8 L 40 7 L 37 8 L 33 7 L 32 8 L 11 8 L 9 10 L 10 12 Q 12 18 9 20 L 10 22 L 9 24 L 9 58 L 11 58 L 11 60 L 9 60 L 10 73 L 10 72 L 10 70 Q 9 67 12 68 L 11 67 L 13 63 L 14 63 Q 13 65 16 64 L 16 66 L 14 65 Q 10 67 14 69 Q 13 72 16 71 L 17 67 L 17 65 L 20 63 Q 18 65 22 67 L 25 65 Q 23 60 16 61 L 15 59 L 21 60 L 35 68 L 42 69 L 67 79 L 73 80 L 91 89 L 108 95 L 112 95 Q 114 89 109 91 Q 104 90 105 85 L 109 84 Q 114 84 116 88 L 120 86 L 123 90 L 124 98 L 119 98 L 119 96 Q 115 95 114 98 L 126 103 L 132 104 L 155 113 L 177 123 L 196 129 L 204 133 L 207 133 L 223 141 L 275 160 L 287 166 L 308 173 L 311 178 Q 310 181 314 180 L 320 172 L 325 174 L 324 179 L 330 181 L 332 186 L 328 187 L 320 185 L 318 181 L 311 183 L 320 188 Q 323 189 322 193 L 320 194 L 314 193 L 307 185 L 302 189 L 290 186 L 254 170 L 244 167 L 242 165 L 216 156 L 219 162 Q 221 168 218 170 L 216 169 L 212 165 L 212 161 L 206 161 Q 203 160 204 156 L 206 156 Q 205 153 204 155 L 196 153 L 190 145 Q 189 142 188 144 L 168 135 L 165 135 L 163 133 L 160 133 L 90 105 L 79 103 L 61 94 L 55 93 L 51 90 L 48 90 L 41 86 L 32 84 L 30 82 L 19 78 L 17 79 L 11 76 L 9 77 L 9 103 L 38 113 L 54 121 L 63 123 Q 77 131 95 136 L 97 138 L 100 138 L 118 145 L 130 151 L 135 152 L 139 155 L 165 164 L 167 166 L 170 166 L 171 167 L 171 161 L 174 161 L 175 165 Q 178 166 177 164 L 183 161 L 184 165 L 191 166 L 192 170 Q 185 172 184 168 L 180 170 L 207 181 L 215 183 L 217 183 L 231 190 L 240 192 L 242 192 L 242 194 L 259 200 L 263 203 L 266 203 Q 272 208 282 209 L 300 217 L 303 217 L 314 223 L 315 226 Q 317 229 320 224 Q 325 223 326 227 L 324 230 Q 329 229 330 233 Q 331 236 329 237 Q 324 238 323 236 L 321 237 L 324 239 L 328 240 L 330 240 Q 329 243 332 242 Q 333 248 330 249 L 324 247 L 323 241 L 321 246 L 319 245 Q 315 244 316 239 L 315 239 L 312 239 L 292 228 L 253 212 L 252 214 L 257 218 L 258 217 L 261 218 L 263 222 Q 264 224 260 223 L 263 228 L 262 231 L 259 230 Q 256 231 257 228 L 255 228 L 255 226 L 250 227 Q 247 226 248 221 L 253 218 L 251 215 L 249 213 L 247 210 L 233 204 L 230 202 Q 229 196 233 198 L 232 201 L 233 202 L 236 195 L 234 195 L 236 194 L 236 193 Q 233 194 234 191 L 232 191 L 233 194 L 232 193 L 228 200 L 229 202 Q 226 203 227 201 L 224 200 L 225 198 L 229 196 L 230 192 L 223 189 L 221 189 L 223 192 L 226 191 L 223 196 L 223 199 L 158 177 L 145 170 L 134 168 L 116 161 L 112 161 L 99 155 L 79 149 L 72 145 L 52 138 L 46 134 L 43 134 L 31 128 L 28 128 L 20 122 L 9 119 L 9 127 L 10 128 L 9 131 L 10 133 L 9 140 L 15 143 L 18 143 L 31 148 L 36 152 Q 44 153 50 158 L 64 162 L 69 165 L 72 165 L 94 175 L 100 176 L 101 170 Q 99 168 102 167 L 105 168 L 107 165 Q 111 165 113 169 L 112 173 L 113 176 L 109 179 L 105 176 L 102 178 L 113 182 L 116 182 L 128 188 L 139 191 L 153 198 L 166 201 L 182 207 L 253 237 L 258 241 L 260 240 L 282 249 Q 286 248 285 251 L 269 246 L 262 242 L 259 244 L 258 242 L 255 242 L 246 236 L 242 238 L 246 239 L 247 242 Q 246 244 243 243 L 239 240 L 240 239 L 240 237 L 238 240 Q 235 241 236 237 Q 235 234 234 236 Q 230 234 234 233 L 232 230 Q 228 229 229 232 L 231 234 L 228 233 L 228 235 L 226 238 L 227 240 L 228 238 L 231 236 L 230 239 L 231 241 L 233 237 L 233 239 L 237 241 L 239 241 Q 239 245 244 244 L 246 244 L 248 246 L 247 248 Q 246 250 249 249 L 252 243 L 253 243 Q 253 248 250 250 L 252 250 L 253 247 L 256 248 L 257 245 L 258 248 L 254 250 L 254 251 Q 258 252 260 250 Q 262 249 261 252 L 261 253 L 266 252 L 266 250 L 272 253 L 269 257 L 270 258 L 274 253 L 280 256 L 280 257 L 278 256 L 277 258 L 273 260 L 278 261 Q 279 264 281 262 L 285 263 L 287 265 L 290 262 L 287 261 L 288 258 L 286 259 Q 283 260 284 258 L 285 255 Q 284 252 287 253 L 285 256 L 287 257 L 288 254 L 290 255 L 289 258 Q 292 259 291 257 L 292 257 L 291 259 L 294 260 L 294 257 L 290 253 Q 288 249 287 252 L 286 250 L 292 251 L 297 257 Q 296 260 299 261 Q 303 262 305 259 L 309 260 L 312 259 L 313 262 Q 311 266 310 263 Q 307 264 309 266 L 309 268 L 307 264 Q 303 262 304 266 L 307 267 Q 308 270 306 269 L 302 265 Q 303 262 299 263 Q 296 259 294 264 L 292 263 L 292 265 L 293 266 L 300 266 L 302 270 L 298 272 Q 302 273 301 277 L 293 276 L 289 266 L 279 264 L 260 254 L 257 254 L 243 248 L 241 248 L 219 237 L 176 220 L 173 220 L 173 224 L 172 224 L 170 228 Q 171 231 166 229 L 163 224 Q 158 225 156 222 L 157 218 L 161 217 L 159 216 L 158 212 L 149 209 L 147 209 L 142 206 L 136 206 L 121 201 L 103 192 L 89 188 L 60 175 L 47 171 L 45 171 L 42 168 L 31 165 L 11 156 L 9 157 L 9 189 L 15 192 L 24 194 L 26 196 L 61 211 Q 66 212 67 210 L 65 205 L 69 202 Q 72 204 72 209 L 76 208 Q 81 207 82 211 L 81 214 L 76 213 L 74 214 L 72 214 L 69 215 L 94 225 L 100 226 L 114 233 L 130 238 L 169 255 Q 172 256 172 261 L 172 262 L 176 260 L 181 265 L 180 269 L 183 267 L 184 268 L 186 268 Q 185 271 188 270 L 188 273 L 183 275 L 180 279 L 177 278 L 173 273 L 171 278 L 168 277 L 166 277 L 166 273 L 161 271 L 152 264 L 107 247 L 108 250 Q 110 256 104 254 L 103 258 L 101 259 L 98 258 L 96 255 L 96 252 Q 94 253 91 249 L 92 246 L 97 247 Q 99 248 98 246 L 94 241 L 89 240 L 81 235 L 39 217 L 11 207 L 9 207 L 9 221 L 10 222 Q 12 227 9 229 L 10 231 L 9 234 L 10 237 L 9 238 L 9 275 L 18 279 L 33 283 L 44 288 L 47 288 L 76 300 L 109 310 L 119 315 L 142 321 L 144 320 L 146 316 L 150 315 L 149 311 Q 151 306 153 309 L 156 307 Q 161 306 162 309 Q 163 314 159 315 L 160 319 L 157 320 L 155 320 Q 153 316 148 317 L 146 321 Q 143 320 144 323 Q 155 329 169 332 L 171 334 L 177 335 L 197 343 L 200 343 L 251 365 L 255 365 L 259 368 L 275 374 L 278 378 Q 279 382 275 383 L 280 384 L 283 379 L 288 380 L 293 379 Q 295 380 294 384 L 291 385 L 292 389 Q 295 390 291 392 Q 287 391 288 395 Q 287 397 284 396 L 278 386 L 275 385 L 270 387 L 263 387 L 258 383 L 249 381 L 225 371 L 222 371 L 222 373 L 220 377 Q 226 379 221 382 L 216 380 Q 213 381 214 379 L 212 376 Q 207 377 206 375 L 206 371 L 212 371 L 212 370 L 210 368 L 208 365 L 197 362 L 172 350 L 164 348 L 148 341 L 145 341 L 139 338 Q 137 332 141 333 L 142 330 L 144 329 L 143 331 L 145 331 Q 146 334 148 330 L 148 333 Q 150 336 152 332 L 154 334 L 157 333 L 159 336 Q 161 337 160 335 L 161 335 L 160 338 L 163 339 L 162 338 L 165 336 L 165 338 L 169 337 L 166 334 L 153 329 L 150 329 L 141 325 L 141 327 L 140 326 L 137 323 L 127 321 L 107 312 L 89 307 L 85 314 L 87 316 L 88 312 L 92 313 L 95 312 Q 97 313 95 315 Q 94 317 97 316 Q 98 314 100 317 L 102 316 Q 104 317 102 319 L 103 322 L 103 321 Q 106 319 105 317 L 108 318 L 106 323 L 110 324 L 111 320 L 114 322 L 113 324 Q 111 325 114 326 Q 116 327 115 325 Q 112 323 117 321 L 122 323 L 121 326 L 122 329 L 124 324 L 127 326 Q 126 328 129 327 L 130 325 L 131 329 L 128 330 L 129 332 Q 132 333 131 331 L 134 329 L 133 334 Q 136 335 135 333 L 138 331 L 137 335 Q 139 336 137 337 L 122 331 L 120 331 L 113 327 L 100 324 L 80 315 L 69 312 L 67 310 L 51 306 L 39 301 L 35 301 L 21 295 L 19 295 L 11 291 L 9 292 L 9 309 L 12 310 Q 16 308 15 312 L 17 311 L 28 316 L 44 320 L 51 324 L 54 324 L 59 327 L 72 331 L 80 336 L 131 355 L 137 354 Q 138 351 135 352 Q 136 348 133 347 Q 132 342 136 341 L 140 344 L 145 343 Q 148 344 147 348 L 145 349 Q 142 348 144 347 Q 145 344 143 345 L 140 349 Q 141 351 147 350 Q 149 351 148 355 L 144 356 L 142 352 Q 139 351 140 354 L 136 357 L 156 366 L 179 374 Q 180 377 178 376 L 179 378 Q 181 377 180 380 L 178 381 L 185 381 L 185 382 Q 182 381 183 384 L 181 385 L 182 387 L 184 387 L 184 384 Q 187 385 186 382 L 190 381 L 187 386 L 188 387 L 192 386 L 195 382 L 181 376 L 181 375 L 205 383 L 215 388 L 229 392 L 251 402 L 254 402 L 256 404 L 285 416 L 293 422 L 290 424 L 295 425 L 296 429 Q 299 430 298 428 L 299 428 Q 298 431 301 430 L 300 426 L 295 423 L 295 422 L 303 426 L 304 433 L 307 432 L 310 427 L 313 428 L 315 428 Q 322 427 324 431 Q 324 435 322 435 L 319 433 Q 319 439 316 440 L 314 439 L 312 435 L 309 436 L 313 441 Q 315 445 311 444 L 311 443 L 309 438 L 308 438 L 309 442 L 309 444 L 306 440 L 307 433 L 304 435 L 301 434 L 298 436 L 290 435 L 269 423 L 240 412 L 215 400 L 190 391 Q 187 390 188 393 L 191 394 L 193 394 L 197 396 Q 200 397 200 402 L 197 403 L 195 403 L 197 409 L 191 408 L 188 405 Q 190 399 185 401 Q 182 400 183 395 L 187 395 Q 183 388 176 385 L 80 348 Q 77 349 78 347 L 77 347 L 56 339 L 46 337 L 32 330 L 16 326 Q 14 322 13 325 L 10 323 L 9 401 L 8 403 L 8 405 L 9 407 L 11 406 L 10 412 Q 13 413 12 410 L 15 410 L 14 413 L 15 417 L 16 415 Q 15 412 18 413 L 17 417 L 18 419 L 23 420 Q 22 415 25 414 L 27 418 L 30 417 L 29 421 L 31 423 L 32 421 Q 31 418 34 419 L 34 417 L 29 415 Q 25 413 29 412 L 29 410 L 25 410 L 25 408 L 22 408 L 13 403 Q 9 404 10 401 L 17 402 L 19 404 L 47 415 Q 50 414 49 417 L 63 422 L 66 422 L 85 431 L 92 432 L 94 434 L 100 435 L 121 444 L 135 448 L 137 450 L 145 452 L 157 458 L 178 465 L 190 471 L 193 471 L 195 473 L 211 478 L 213 478 L 216 479 Q 223 480 226 477 Q 228 476 227 473 L 231 469 Q 236 467 235 471 L 238 470 L 244 471 L 245 474 L 244 477 L 240 477 L 240 482 Q 232 484 230 479 L 226 481 Q 221 480 222 483 L 277 503 L 286 507 L 289 511 Q 290 515 287 516 L 290 517 Q 293 511 302 510 L 307 511 L 308 514 Q 309 518 304 516 L 304 519 Q 303 521 299 520 L 300 523 L 295 525 L 294 529 L 290 527 Q 284 525 285 518 Q 282 521 275 520 L 270 515 L 269 516 L 265 512 L 264 513 L 252 509 L 230 498 L 205 490 L 192 485 L 190 483 L 173 478 L 171 479 L 172 481 L 179 483 L 180 486 L 178 489 L 182 492 L 181 495 L 178 495 L 174 491 Q 172 495 168 494 L 169 488 L 171 488 L 165 477 L 157 472 L 151 471 L 129 462 Q 125 463 126 461 L 101 450 L 89 447 L 87 445 Q 79 445 76 441 L 70 440 L 68 438 L 65 438 L 57 434 L 52 434 L 43 428 Q 23 425 10 416 L 9 457 L 11 457 L 8 463 L 9 464 L 11 460 Q 16 457 13 455 Q 9 456 10 453 L 19 456 L 26 457 L 37 463 L 56 469 L 63 474 L 80 481 L 96 485 Q 103 490 115 492 L 157 510 L 184 519 L 214 532 L 221 530 L 221 532 Q 218 531 219 534 L 234 541 Q 240 538 251 540 L 253 540 L 263 540 L 264 541 L 266 540 L 268 541 L 269 540 L 280 539 L 289 532 Q 294 531 295 535 L 309 536 L 310 537 L 318 537 L 330 533 L 335 533 L 334 532 L 334 521 L 334 519 Q 333 513 335 512 L 334 510 L 334 486 L 333 485 L 334 477 L 334 475 L 333 473 Q 332 468 334 467 L 334 445 L 333 444 L 334 439 L 334 404 L 333 403 L 334 398 L 333 394 L 334 389 L 334 366 L 333 365 L 334 363 L 333 359 L 333 344 L 334 343 L 333 339 L 333 337 L 333 287 L 334 286 L 333 278 L 333 276 L 333 105 L 332 104 L 333 102 L 332 98 L 332 77 L 332 75 L 333 72 L 333 70 L 332 48 L 332 46 L 333 44 L 333 33 L 332 32 Q 331 26 333 25 L 332 24 L 332 6 L 320 4 Z M 26 65 L 25 68 Q 29 69 28 66 L 26 65 Z M 18 67 L 17 73 L 18 75 L 21 69 L 18 67 Z M 29 67 L 29 70 L 32 69 L 29 67 Z M 23 68 L 23 71 Q 24 74 21 73 Q 19 78 23 77 Q 22 72 26 71 L 23 68 Z M 35 69 L 33 71 L 36 72 L 35 69 Z M 40 70 L 38 72 L 40 74 L 42 73 Q 45 72 43 76 L 47 75 L 47 77 L 49 79 L 47 78 Q 43 80 48 82 L 50 81 Q 49 77 52 78 L 53 78 Q 54 81 51 80 Q 50 84 54 85 L 55 83 L 54 81 L 59 78 L 40 70 Z M 27 71 L 27 75 L 29 74 Q 31 75 30 73 L 27 71 Z M 14 72 L 13 75 L 14 75 L 14 72 Z M 31 72 Q 30 75 33 74 L 34 76 L 34 74 L 31 72 Z M 36 74 L 36 77 L 39 77 Q 41 78 40 75 L 36 74 Z M 27 75 Q 24 80 28 79 L 27 75 Z M 41 76 L 40 79 Q 39 81 43 80 L 44 78 L 41 76 Z M 59 78 L 58 81 Q 59 83 63 82 L 64 79 L 59 78 Z M 35 79 L 33 82 L 35 82 L 35 79 Z M 65 80 L 66 85 L 65 85 Q 63 82 61 87 L 63 89 L 68 87 L 67 89 Q 68 92 65 91 L 67 95 L 68 93 Q 67 89 70 90 L 71 87 L 67 86 L 70 82 L 65 80 Z M 40 81 L 38 84 L 42 83 L 40 81 Z M 57 82 L 56 85 L 58 85 L 57 89 Q 56 93 59 92 L 59 87 L 61 83 L 57 82 Z M 70 82 L 72 86 L 74 85 Q 77 84 75 88 L 80 87 L 73 82 L 70 82 Z M 45 83 L 47 87 L 48 85 L 45 83 Z M 51 85 L 50 88 L 53 89 Q 55 84 51 85 Z M 55 86 L 54 89 L 55 89 L 55 86 Z M 80 87 L 82 90 L 84 89 L 84 91 L 87 92 L 90 91 Q 92 96 87 94 L 87 98 L 90 99 L 94 93 L 84 87 L 80 87 Z M 108 87 L 109 89 L 112 88 L 108 87 Z M 74 88 Q 69 90 73 92 Q 77 93 77 90 L 74 88 Z M 60 89 Q 59 93 62 92 Q 63 88 60 89 Z M 118 89 Q 117 92 120 91 Q 121 88 118 89 Z M 79 90 L 77 92 L 79 95 L 81 92 L 79 90 Z M 72 92 L 70 94 Q 69 99 73 97 L 74 93 L 72 92 Z M 82 92 Q 81 96 84 97 L 86 94 L 82 92 Z M 95 93 L 97 96 L 99 95 L 99 93 L 95 93 Z M 76 95 L 75 98 L 78 99 Q 80 94 76 95 Z M 94 95 L 92 97 L 93 99 L 92 102 L 94 105 L 97 98 L 94 95 Z M 100 95 Q 99 98 102 97 Q 103 99 104 97 L 100 95 Z M 81 97 Q 79 102 83 101 Q 85 96 81 97 Z M 106 97 L 104 100 L 98 99 L 97 104 L 99 107 L 99 105 L 99 103 L 103 101 L 104 104 L 106 103 Q 110 103 111 106 L 112 104 L 112 102 Q 116 103 115 100 L 109 97 L 106 97 Z M 87 98 Q 84 104 89 102 L 87 98 Z M 117 101 L 117 105 L 116 104 Q 111 103 113 107 L 117 108 L 119 105 L 117 101 Z M 104 104 L 102 106 Q 101 109 104 108 L 104 104 Z M 122 104 L 119 108 L 123 110 L 125 106 L 122 104 Z M 9 105 L 9 110 L 12 109 L 10 114 L 14 111 Q 16 110 15 113 L 18 113 L 20 112 L 19 114 L 22 114 L 24 113 L 23 116 L 31 119 L 32 119 L 29 123 L 30 125 L 34 120 Q 36 119 35 122 L 38 122 L 36 126 L 37 128 L 39 124 Q 43 123 45 127 L 48 127 Q 47 130 50 129 L 51 129 L 50 132 L 51 134 L 57 126 L 57 128 L 56 130 Q 58 129 57 132 L 59 131 Q 58 128 61 129 L 61 127 L 43 119 L 39 122 L 41 119 L 34 114 L 31 114 L 25 111 Q 23 107 22 110 L 9 105 Z M 109 105 L 107 109 Q 110 110 109 108 Q 111 106 109 105 Z M 128 106 L 128 109 L 127 108 L 124 113 Q 123 117 126 116 L 127 111 L 130 112 L 129 109 L 131 109 L 133 108 L 128 106 Z M 113 108 L 111 111 L 113 110 L 113 108 Z M 134 108 Q 133 110 137 111 L 133 111 L 131 114 L 137 115 L 139 111 L 134 108 Z M 116 109 L 114 112 L 116 112 L 116 109 Z M 121 110 Q 116 112 120 114 Q 122 115 121 113 Q 123 111 121 110 Z M 143 111 L 139 115 L 141 117 L 139 117 L 138 121 L 142 119 Q 141 115 145 117 L 143 123 L 146 124 L 147 121 L 147 119 L 150 120 Q 152 121 151 119 Q 153 117 151 116 Q 146 117 148 113 L 143 111 Z M 131 114 L 130 117 L 131 117 L 131 114 Z M 18 115 L 16 118 L 19 116 L 18 115 Z M 135 115 L 135 119 L 135 118 Q 137 116 135 115 Z M 22 116 L 20 118 L 21 120 L 23 117 L 22 116 Z M 154 116 L 154 118 L 149 126 L 151 126 L 154 121 L 156 122 L 158 117 L 154 116 Z M 26 118 L 24 120 L 25 122 L 26 120 L 26 118 Z M 161 118 L 157 123 L 161 124 L 162 121 L 164 121 L 161 118 Z M 166 121 L 163 125 Q 164 127 166 125 L 168 126 L 169 122 L 166 121 Z M 173 123 L 169 127 L 173 128 Q 175 127 173 126 L 175 125 L 173 123 Z M 160 125 L 158 129 L 160 129 L 160 125 Z M 42 126 L 40 129 L 43 130 L 44 128 L 42 126 Z M 166 126 L 166 129 Q 169 128 166 126 Z M 62 127 L 60 134 L 63 135 L 66 128 L 62 127 Z M 176 127 L 174 129 L 176 131 L 178 131 L 176 127 Z M 46 129 L 46 132 L 48 131 Q 49 128 46 129 Z M 67 129 L 67 132 L 65 135 L 68 137 L 69 134 L 72 133 L 77 136 L 77 132 L 73 132 L 67 129 Z M 188 129 L 188 131 L 192 131 L 188 129 Z M 173 131 L 173 135 L 175 134 Q 176 130 173 131 Z M 181 131 L 182 133 L 183 133 L 181 131 Z M 186 131 L 187 133 L 189 133 L 186 131 Z M 194 131 L 195 133 L 198 133 L 194 131 Z M 57 132 L 55 135 L 57 134 L 57 132 Z M 178 133 L 178 136 L 180 135 Q 181 132 178 133 Z M 191 133 L 191 135 L 194 136 Q 196 137 195 134 L 191 133 Z M 201 133 L 202 136 Q 205 137 204 134 L 201 133 Z M 60 134 L 58 137 L 62 139 Q 63 135 60 136 L 60 134 Z M 72 134 L 69 142 Q 72 143 71 140 L 74 138 L 72 134 Z M 80 134 Q 79 137 83 136 L 83 139 L 79 144 Q 78 147 81 146 L 88 138 L 80 134 Z M 78 136 L 74 141 L 74 143 Q 73 146 76 145 L 80 139 L 78 138 L 78 136 Z M 205 136 L 205 138 L 209 138 L 205 136 Z M 66 137 L 64 140 L 66 140 Q 69 139 66 137 Z M 189 137 L 188 140 L 189 140 L 189 137 Z M 89 138 L 89 140 L 103 145 Q 106 144 103 142 Q 97 144 98 140 L 94 140 Q 92 137 89 138 Z M 211 138 L 211 140 L 214 141 Q 216 142 215 139 L 211 138 Z M 196 140 L 195 143 Q 197 146 198 143 Q 199 139 196 140 Z M 87 141 L 84 146 L 86 149 L 87 147 Q 86 144 90 145 L 91 142 L 87 141 Z M 218 141 L 218 142 L 220 142 L 218 141 Z M 201 142 L 201 144 Q 203 147 204 144 L 201 142 Z M 9 143 L 9 147 Q 12 148 11 146 L 12 146 L 9 154 Q 8 156 11 155 L 11 152 L 15 147 L 15 149 L 15 151 L 14 153 Q 12 158 16 157 L 17 155 L 15 155 L 18 151 L 17 153 L 18 154 L 21 153 L 20 157 Q 18 158 21 159 L 21 157 L 25 155 L 24 158 L 25 160 L 26 157 L 30 158 L 28 162 Q 31 163 30 160 Q 31 156 35 157 Q 36 160 33 159 L 33 162 Q 31 163 34 164 L 34 163 L 38 160 L 40 159 Q 41 161 38 160 L 37 164 L 39 166 L 40 162 L 44 159 L 45 160 L 43 160 L 42 165 Q 41 168 44 167 L 47 163 L 49 164 L 46 168 L 50 170 L 52 167 Q 51 164 54 165 L 54 163 L 56 164 L 55 168 L 52 171 L 57 173 L 59 169 Q 62 168 61 171 L 61 173 L 60 173 L 60 174 L 62 174 L 64 170 Q 68 168 67 172 L 67 173 L 71 172 L 72 176 L 75 174 L 77 175 L 79 172 L 72 167 L 69 167 L 53 161 L 51 161 L 43 156 L 35 154 L 30 150 L 9 143 Z M 93 143 L 91 147 Q 95 148 96 145 L 93 143 Z M 224 143 L 227 146 L 230 146 L 224 143 Z M 104 144 L 106 147 Q 109 148 110 146 Q 109 143 104 144 Z M 206 144 Q 205 147 209 146 Q 210 143 206 144 Z M 215 144 L 217 146 Q 218 143 215 144 Z M 96 145 L 94 150 Q 93 153 96 152 L 99 148 Q 101 149 100 146 L 96 145 Z M 218 145 L 218 147 L 221 148 L 221 147 L 218 145 Z M 112 146 L 110 148 L 114 150 L 115 148 L 112 146 Z M 194 146 L 196 150 L 196 152 L 208 154 L 209 154 L 194 146 Z M 213 146 Q 211 149 214 148 L 213 146 Z M 91 147 L 89 149 Q 88 151 91 150 L 91 147 Z M 103 147 L 101 149 L 104 151 L 102 154 L 104 155 Q 103 151 106 152 L 107 148 L 103 147 Z M 223 147 L 224 149 L 226 149 L 223 147 Z M 118 148 Q 115 150 118 151 Q 122 152 121 149 L 118 148 Z M 218 148 Q 216 151 219 150 L 218 148 Z M 237 148 L 241 152 Q 244 153 243 151 L 237 148 Z M 109 149 L 109 152 L 107 155 L 109 157 L 110 154 L 113 152 L 109 149 Z M 100 150 L 98 152 Q 97 154 100 153 L 100 150 Z M 223 150 L 221 152 L 224 152 L 223 150 Z M 235 150 L 233 153 L 236 152 Q 237 149 235 150 Z M 123 151 L 124 153 L 127 153 Q 126 150 123 151 Z M 239 151 L 237 154 L 240 155 Q 243 153 239 151 Z M 245 151 L 245 153 L 248 154 Q 250 155 249 152 L 245 151 Z M 114 152 L 112 157 Q 111 159 115 158 L 116 154 L 119 154 Q 118 151 114 152 Z M 226 152 L 226 155 L 228 154 Q 229 151 226 152 Z M 122 153 Q 118 155 118 160 Q 121 161 120 159 L 124 156 Q 126 157 125 154 L 122 153 Z M 128 153 L 125 159 L 123 160 L 126 163 Q 128 164 127 161 L 131 159 L 133 154 L 128 153 Z M 244 154 L 245 156 L 246 156 L 244 154 Z M 236 155 L 236 158 Q 239 157 236 155 Z M 136 156 L 130 164 L 133 165 L 132 164 L 133 162 Q 135 158 137 162 L 139 157 L 136 156 Z M 249 156 L 248 159 L 251 158 L 249 156 Z M 242 157 L 240 159 L 242 159 L 242 157 Z M 260 157 L 262 160 Q 264 161 263 159 L 260 157 Z M 141 158 Q 142 161 139 160 L 136 167 L 139 165 L 139 163 L 143 163 L 143 160 L 145 160 L 141 158 Z M 208 158 L 209 160 Q 210 157 208 158 Z M 254 158 L 252 160 L 254 160 Q 255 162 256 160 Q 257 157 254 158 Z M 265 159 L 264 161 L 268 161 L 265 159 Z M 146 160 L 147 163 L 146 162 L 145 164 L 149 165 L 149 163 Q 152 164 151 161 L 146 160 Z M 259 160 L 256 164 L 258 167 L 260 163 Q 261 159 259 160 Z M 216 161 L 215 165 L 216 165 L 216 161 Z M 252 161 L 252 165 L 254 164 Q 255 160 252 161 Z M 152 162 L 154 165 L 157 165 L 152 162 Z M 262 162 L 262 164 Q 264 167 265 164 Q 266 161 262 162 Z M 174 163 L 173 166 L 175 166 L 174 163 Z M 181 163 L 178 166 Q 177 168 180 167 L 182 164 L 181 163 Z M 269 163 L 266 165 L 269 166 L 269 163 Z M 144 165 L 144 166 Q 146 165 145 168 L 147 167 L 144 165 Z M 159 165 L 159 166 L 161 166 L 159 165 Z M 262 165 L 260 169 Q 258 170 261 171 L 262 168 Q 264 166 262 165 Z M 273 165 L 271 168 L 275 167 L 273 165 Z M 162 166 L 163 168 Q 164 165 162 166 Z M 150 167 Q 147 169 150 170 Q 154 171 153 168 L 150 167 Z M 166 167 L 162 172 L 166 172 L 166 171 L 169 169 L 166 167 Z M 187 167 L 187 168 L 189 168 L 187 167 Z M 256 167 Q 254 170 257 169 L 256 167 Z M 266 167 L 264 171 L 265 173 L 266 170 Q 268 168 266 167 Z M 277 167 L 278 168 L 279 169 Q 280 166 277 167 Z M 109 168 L 107 170 L 108 171 L 110 170 Q 111 167 109 168 Z M 159 168 L 157 170 Q 154 169 155 173 L 157 172 L 159 173 L 158 172 L 159 170 L 159 168 Z M 170 169 L 164 177 L 167 178 L 168 175 L 171 173 L 169 179 L 171 179 L 172 176 L 176 173 L 174 179 Q 172 180 175 181 L 176 179 L 176 177 L 178 177 Q 182 178 180 174 L 182 174 L 180 171 L 170 169 Z M 269 169 Q 268 173 271 172 Q 272 168 269 169 Z M 283 169 L 280 171 L 283 171 L 284 172 L 283 169 Z M 286 171 L 286 175 L 287 175 Q 286 172 289 173 Q 290 170 286 171 Z M 81 172 L 77 177 L 79 177 Q 78 174 81 175 Q 82 178 84 176 L 86 177 L 84 184 L 87 184 L 86 181 L 90 178 L 88 181 L 90 181 L 89 185 Q 88 187 91 186 Q 90 182 93 181 L 96 186 L 98 183 L 108 186 L 110 185 L 109 187 L 115 188 L 116 186 L 110 182 L 107 182 L 104 184 L 105 182 L 103 180 Q 100 179 101 182 Q 98 183 99 179 L 81 172 Z M 162 172 Q 157 174 161 176 L 162 174 L 162 172 Z M 292 173 L 292 174 L 294 174 L 292 173 Z M 109 174 L 107 176 L 109 176 L 109 174 Z M 184 174 Q 183 177 186 176 Q 187 178 188 176 L 184 174 Z M 296 174 L 296 176 L 299 177 Q 301 173 296 174 Z M 303 174 L 300 177 Q 299 180 302 179 L 304 176 Q 305 173 303 174 Z M 322 174 L 320 177 L 322 176 L 322 174 Z M 66 175 L 67 177 Q 68 174 66 175 Z M 71 175 L 69 177 Q 68 179 71 178 L 72 179 L 71 175 Z M 306 175 L 303 179 Q 302 181 305 180 L 307 177 Q 308 174 306 175 Z M 190 176 L 191 178 L 192 178 L 190 176 Z M 290 176 L 288 180 L 290 180 L 290 176 Z M 75 177 L 74 180 L 76 180 L 77 181 Q 78 176 75 177 Z M 82 177 L 80 179 Q 79 182 82 183 L 82 180 Q 84 178 82 177 Z M 182 177 Q 181 180 184 179 Q 185 181 186 179 L 182 177 Z M 277 177 Q 276 180 279 179 Q 280 176 277 177 Z M 309 178 L 308 182 L 306 183 L 309 183 L 309 178 Z M 181 179 L 179 182 L 181 181 L 181 179 Z M 187 179 L 188 183 L 188 185 L 189 186 L 191 182 Q 192 177 187 179 Z M 196 179 L 198 181 Q 199 178 196 179 Z M 282 179 L 283 180 L 284 181 Q 285 178 282 179 Z M 292 179 L 291 183 L 293 185 L 295 185 L 293 184 Q 292 181 296 182 L 296 180 L 292 179 Z M 201 180 L 202 183 Q 204 184 203 181 L 201 180 Z M 287 180 L 288 183 L 290 183 L 287 180 Z M 192 181 L 193 184 L 192 187 L 196 185 Q 198 179 192 181 Z M 299 181 L 297 184 L 299 183 L 299 181 Z M 322 181 Q 322 184 327 185 L 329 184 L 328 182 L 322 181 Z M 206 182 L 205 184 L 212 187 L 214 187 L 206 182 Z M 302 182 L 299 186 L 300 187 L 302 186 L 302 182 Z M 198 183 L 197 188 Q 196 190 200 189 L 199 188 L 201 185 L 198 183 Z M 203 185 L 204 191 L 206 187 L 203 185 Z M 310 185 L 311 187 L 314 187 Q 313 184 310 185 Z M 98 186 L 98 189 L 100 190 L 99 188 L 101 187 L 98 186 Z M 118 186 L 115 189 L 125 194 L 133 196 L 134 199 L 132 200 L 135 200 L 136 204 L 137 201 L 136 199 L 138 198 Q 137 201 140 200 L 139 202 L 140 203 Q 140 200 145 201 L 146 201 L 145 203 Q 144 205 147 204 L 149 201 L 151 202 L 149 205 L 150 206 L 155 204 L 157 206 L 155 209 L 156 210 L 157 208 Q 158 205 160 207 Q 162 206 161 202 L 156 203 L 156 202 L 154 200 L 152 200 L 146 197 L 145 199 L 143 200 L 144 196 L 136 193 Q 134 191 133 194 L 133 193 L 118 186 Z M 216 186 L 215 188 L 218 189 L 220 189 L 216 186 Z M 103 187 L 103 189 Q 102 193 106 191 L 107 189 L 106 188 L 104 189 Q 105 186 103 187 Z M 207 187 L 208 190 L 207 192 L 209 192 L 210 189 L 207 187 Z M 108 189 L 110 194 Q 112 195 111 191 L 113 191 L 108 189 Z M 213 189 L 211 193 L 214 194 L 215 191 L 217 191 L 213 189 Z M 315 190 Q 314 193 318 192 Q 319 189 315 190 Z M 10 191 L 9 199 L 9 201 L 10 203 L 12 200 L 15 202 L 14 201 L 13 203 Q 10 204 15 206 L 16 203 Q 19 202 18 207 L 21 205 Q 20 200 24 202 L 22 207 L 23 209 L 24 206 L 27 204 L 26 208 L 27 211 L 30 206 L 32 207 L 29 212 L 32 213 L 33 211 L 32 209 L 34 209 Q 37 208 36 211 L 39 211 L 38 215 L 42 217 L 44 216 L 42 215 L 41 213 L 43 209 L 45 210 L 47 209 L 50 210 L 51 214 L 48 215 L 49 211 L 47 210 L 45 215 L 46 218 Q 48 221 50 217 Q 52 216 51 220 L 54 222 Q 53 217 57 219 L 56 222 L 58 224 L 61 220 Q 63 221 62 219 L 64 218 L 61 223 Q 60 226 64 227 L 65 225 L 68 223 L 67 227 L 69 229 L 69 228 L 73 225 L 72 230 L 76 229 Q 75 226 78 227 L 77 232 L 80 230 L 81 231 L 83 230 L 84 235 L 87 228 L 89 227 L 87 230 L 88 233 L 86 236 L 88 236 L 89 234 L 93 232 Q 92 228 95 229 L 94 233 L 91 235 Q 89 240 93 239 L 94 237 L 98 234 Q 100 235 99 233 L 102 231 L 97 238 L 98 241 L 99 237 L 102 239 L 101 242 L 104 242 L 104 240 L 107 240 Q 106 237 109 238 L 112 236 L 107 244 L 112 242 L 111 240 L 115 238 L 116 239 Q 112 241 112 246 Q 115 247 114 244 L 117 244 L 119 247 L 121 246 L 122 246 L 122 250 L 124 250 Q 124 245 128 242 L 129 242 L 126 246 L 128 252 L 129 250 L 129 247 Q 132 248 131 246 L 133 245 L 131 249 L 132 251 L 131 253 L 132 255 L 133 253 Q 132 250 136 251 L 137 254 L 135 255 L 138 256 L 142 253 L 143 258 L 143 255 L 148 257 Q 150 256 149 261 L 154 257 L 154 259 Q 157 260 153 262 Q 152 264 155 263 L 158 259 L 156 257 L 155 255 L 158 256 L 160 260 L 158 264 L 161 262 L 163 264 Q 160 256 167 258 L 169 260 L 169 257 Q 165 259 166 256 Q 164 252 158 253 L 151 248 L 143 246 L 141 244 L 124 237 L 118 236 L 116 234 L 112 234 L 106 230 L 90 225 L 85 222 L 65 215 L 63 213 L 57 212 L 44 205 L 41 206 L 41 205 L 39 203 Q 35 204 36 201 L 33 200 L 30 204 L 28 204 L 30 203 L 31 201 L 27 198 L 24 200 L 25 197 L 19 194 L 14 194 L 10 191 Z M 113 191 Q 112 195 115 196 L 117 195 Q 120 194 118 198 L 120 198 L 121 195 L 120 195 L 119 194 L 113 191 Z M 219 191 L 217 195 L 220 196 L 222 193 L 219 191 Z M 238 194 L 238 196 L 236 201 Q 235 206 239 204 L 241 197 L 239 197 L 241 196 L 238 194 Z M 125 196 Q 124 198 127 197 Q 129 198 127 200 L 128 201 L 129 198 Q 128 195 125 196 Z M 124 197 L 122 199 L 124 200 L 124 197 Z M 243 197 L 243 200 L 240 202 L 242 202 L 244 206 L 248 199 L 243 197 Z M 249 199 L 247 203 L 247 208 L 249 209 Q 248 205 251 206 L 253 200 L 249 199 Z M 254 201 L 252 210 L 255 211 L 261 204 L 258 202 L 256 203 Q 257 200 254 201 Z M 163 203 L 159 211 Q 158 213 161 212 L 162 210 Q 161 207 165 208 Q 163 213 167 215 L 168 213 L 168 211 L 172 211 L 174 208 Q 170 204 163 203 Z M 261 204 L 261 208 L 260 208 L 261 210 L 264 209 L 266 205 L 261 204 Z M 67 205 L 69 208 L 70 206 L 67 205 Z M 268 206 L 268 210 L 267 210 L 267 211 L 270 210 Q 273 211 271 207 L 268 206 Z M 176 208 L 171 214 L 173 217 Q 175 218 174 216 L 177 214 L 180 210 Q 179 207 176 208 Z M 274 208 L 272 213 L 273 215 L 272 217 Q 271 220 274 219 L 275 217 L 274 213 L 276 213 L 279 211 L 274 208 Z M 75 210 L 75 212 L 80 212 L 80 210 L 75 210 Z M 181 210 Q 182 213 179 212 L 177 219 L 180 220 L 183 216 Q 186 217 185 215 L 186 215 L 184 220 L 184 221 Q 186 222 185 220 L 188 218 L 189 224 Q 190 218 194 216 L 191 214 Q 189 210 188 213 Q 186 209 181 210 Z M 258 210 L 258 213 L 260 212 Q 261 209 258 210 Z M 36 211 L 36 214 Q 39 213 36 211 Z M 71 211 L 72 213 Q 73 210 71 211 Z M 279 211 L 278 216 L 281 215 L 280 217 L 283 217 L 284 212 L 279 211 Z M 67 212 L 68 214 L 69 214 L 67 212 Z M 288 214 L 283 219 L 282 223 L 284 223 L 285 220 L 287 220 L 290 216 Q 291 213 288 214 Z M 196 215 L 191 221 L 194 221 L 192 225 L 196 226 L 195 224 L 198 219 L 200 220 L 199 222 L 197 223 L 200 223 L 202 223 L 204 220 L 196 215 Z M 293 216 L 290 220 L 290 221 L 293 220 L 295 217 L 293 216 Z M 295 217 L 295 219 L 297 218 L 297 220 L 293 222 L 294 225 L 298 223 L 298 220 Q 301 221 300 218 L 295 217 Z M 278 218 L 277 221 L 278 221 L 278 218 Z M 166 219 L 166 221 L 169 221 L 166 219 Z M 205 220 L 205 222 L 205 223 L 209 222 L 209 224 Q 211 223 210 226 L 208 225 L 206 228 L 208 227 L 212 229 Q 214 228 213 231 L 215 231 L 217 226 L 219 227 L 216 231 L 220 233 L 223 228 L 217 224 Q 215 222 214 225 L 212 225 L 213 222 L 205 220 Z M 303 220 L 298 226 L 299 228 L 302 226 L 303 228 Q 303 223 307 222 Q 306 219 303 220 Z M 252 221 L 250 224 Q 249 226 252 225 L 252 221 Z M 309 222 L 304 228 L 307 229 L 307 228 L 311 225 L 311 227 Q 314 228 313 226 L 309 222 Z M 201 223 L 199 228 L 202 229 L 201 223 Z M 292 223 L 290 226 L 292 226 L 293 227 L 292 223 Z M 202 224 L 202 227 L 205 226 Q 206 222 202 224 Z M 257 225 L 259 228 Q 261 229 260 227 L 257 225 Z M 318 227 L 317 229 L 316 231 L 318 230 Q 321 231 320 228 L 318 227 Z M 206 228 L 205 230 L 214 234 L 214 232 Q 209 232 206 228 Z M 223 228 L 222 231 L 223 233 L 222 236 Q 221 238 224 237 L 229 230 L 223 228 Z M 302 228 L 301 232 L 303 232 L 302 228 Z M 310 229 L 306 234 Q 309 235 308 232 L 311 232 L 310 236 L 312 236 Q 311 233 314 234 Q 316 235 314 237 L 316 237 L 316 233 Q 312 234 313 231 L 310 229 Z M 322 232 L 324 235 Q 329 237 328 233 L 322 232 Z M 219 233 L 217 235 L 219 235 L 219 233 Z M 235 233 L 235 235 L 241 235 L 235 233 Z M 320 234 Q 318 237 321 236 L 320 234 Z M 320 241 Q 318 244 321 243 L 320 241 Z M 327 241 L 325 243 L 326 245 L 330 246 L 327 241 Z M 101 245 L 100 249 L 105 251 Q 106 248 104 249 L 102 246 L 104 246 L 101 245 Z M 96 249 L 97 251 Q 98 248 96 249 Z M 266 252 L 265 255 L 268 255 Q 269 251 266 252 Z M 273 255 Q 272 258 275 257 Q 276 254 273 255 Z M 166 261 L 163 265 Q 165 268 167 264 Q 168 260 166 261 Z M 175 263 L 173 265 L 177 266 Q 179 267 178 265 L 175 263 Z M 170 264 L 168 266 Q 169 268 166 267 L 165 270 Q 164 272 167 271 L 171 265 L 170 264 Z M 293 267 L 293 273 Q 294 276 298 275 Q 299 272 296 273 L 293 267 Z M 176 268 L 177 270 Q 178 267 176 268 Z M 297 268 L 299 270 Q 300 267 297 268 Z M 184 270 L 180 272 L 184 272 L 184 270 Z M 10 277 L 8 286 L 9 287 L 11 282 Q 13 278 15 282 L 16 281 L 10 277 Z M 17 281 L 17 283 L 15 283 L 12 288 L 14 291 L 15 286 L 20 282 L 17 281 Z M 21 282 L 22 285 L 18 285 L 17 289 L 18 292 L 19 289 Q 18 286 21 287 L 25 292 L 25 291 L 28 289 L 27 286 Q 24 287 25 284 L 21 282 Z M 27 284 L 30 287 L 28 291 Q 27 294 30 293 L 31 296 L 33 291 L 33 288 Q 36 289 35 286 L 32 287 L 31 286 Q 30 283 27 284 Z M 37 287 L 33 292 L 34 298 L 36 297 L 38 298 L 37 295 L 35 295 L 36 289 L 44 291 L 46 293 L 52 294 Q 53 299 50 301 Q 47 302 48 299 L 46 298 L 43 299 L 44 296 L 43 292 L 42 294 L 40 295 L 41 298 L 38 299 L 43 300 L 45 300 L 51 303 L 52 300 L 56 298 L 56 297 Q 53 298 54 295 Q 57 294 56 297 L 60 298 L 60 297 Q 55 292 48 291 L 46 291 L 37 287 Z M 22 291 L 21 293 L 24 294 L 24 292 L 22 291 Z M 63 297 L 65 300 L 66 299 L 63 297 Z M 56 298 L 55 301 Q 56 303 53 302 Q 52 305 55 304 L 58 300 Q 59 297 56 298 Z M 62 299 L 60 301 Q 59 304 63 302 Q 64 305 61 307 L 64 307 L 65 304 L 64 300 L 62 299 Z M 67 299 Q 68 302 65 301 Q 64 304 67 303 L 68 306 L 70 305 L 71 305 L 71 310 Q 75 311 74 309 L 78 307 L 77 310 L 78 312 L 78 311 L 81 309 Q 82 307 83 310 L 81 314 L 83 313 Q 82 310 85 311 Q 87 310 85 309 L 86 307 Q 85 304 82 305 Q 80 301 79 304 L 73 300 L 67 299 Z M 60 302 L 58 304 L 59 306 L 60 304 L 60 302 Z M 68 306 L 66 308 Q 65 310 68 309 L 68 306 Z M 156 309 L 157 314 L 160 310 L 156 309 Z M 11 310 L 9 312 L 11 315 L 11 314 L 12 314 L 10 318 Q 9 321 12 320 L 14 316 L 15 317 L 15 322 L 17 322 L 17 317 L 20 317 L 19 321 L 20 324 L 22 321 Q 21 318 25 319 L 23 325 Q 26 326 25 323 Q 27 318 29 322 L 28 324 Q 26 328 30 327 L 31 324 L 36 323 L 40 325 L 43 323 Q 38 319 31 319 L 29 319 L 25 316 L 15 312 L 11 312 L 11 310 Z M 152 311 L 153 313 Q 154 310 152 311 Z M 94 315 L 94 318 Q 97 317 94 315 Z M 154 316 Q 153 319 157 318 Q 158 315 154 316 Z M 99 317 L 97 320 L 99 320 L 99 317 Z M 43 323 L 42 326 L 49 328 L 52 327 L 53 330 L 56 329 L 56 331 L 59 333 L 57 338 Q 60 339 59 337 L 63 334 L 64 335 L 62 340 Q 65 341 64 339 L 67 337 Q 66 341 69 342 Q 71 343 70 341 L 70 339 L 73 341 Q 71 346 77 344 L 76 343 L 77 341 L 76 339 L 79 338 L 77 335 L 69 332 L 65 333 L 65 332 L 62 329 L 43 323 Z M 35 324 L 33 328 L 35 327 L 35 324 Z M 38 325 L 36 329 L 38 328 L 38 325 Z M 40 327 L 40 331 L 43 332 L 44 329 L 40 327 Z M 127 327 L 125 329 Q 124 331 127 330 L 127 327 Z M 46 328 L 47 332 L 48 330 L 46 328 Z M 51 330 L 52 335 L 53 331 L 51 330 Z M 142 332 L 141 337 L 144 338 L 145 335 Q 146 330 142 332 Z M 55 333 L 56 337 L 57 335 Q 58 332 55 333 Z M 147 334 L 147 336 L 146 339 L 148 339 L 150 336 L 147 334 Z M 157 335 Q 155 338 158 337 L 157 335 Z M 172 336 L 171 337 Q 167 336 169 340 L 167 339 L 163 340 L 167 341 L 173 340 L 172 336 Z M 81 338 L 83 341 L 82 344 Q 78 345 82 347 Q 85 348 83 344 L 86 344 L 85 348 L 87 348 L 88 345 Q 91 344 90 349 L 92 350 L 91 348 L 92 342 L 89 343 L 86 342 L 88 341 L 81 338 Z M 176 338 L 176 340 L 174 341 L 178 343 Q 180 344 179 341 L 181 341 L 176 338 Z M 80 339 L 79 341 L 77 342 L 80 345 L 81 342 L 80 339 Z M 151 339 Q 150 342 153 341 Q 154 338 151 339 Z M 156 339 L 156 341 Q 155 344 158 343 L 157 341 Q 158 338 156 339 Z M 159 340 L 159 341 L 161 341 L 159 340 Z M 183 340 L 183 343 L 182 342 L 180 345 L 183 346 L 185 345 L 187 348 L 185 347 Q 182 348 184 350 L 183 354 L 186 354 L 185 353 L 189 348 L 189 346 L 189 344 L 191 345 L 191 343 L 187 344 Q 183 345 184 342 L 186 342 L 183 340 Z M 162 341 L 160 344 L 163 345 L 164 346 Q 165 342 162 343 L 162 341 Z M 94 343 Q 95 345 92 347 L 95 348 L 95 346 L 97 346 L 99 346 L 94 343 Z M 137 343 L 135 345 L 136 348 L 138 347 L 137 343 Z M 168 343 Q 165 348 169 347 L 168 343 Z M 173 343 L 171 345 L 172 347 Q 170 348 173 349 L 175 346 L 177 347 L 177 344 L 173 343 Z M 192 344 L 192 347 Q 190 348 193 349 L 194 346 L 196 346 L 192 344 Z M 100 346 L 101 347 L 101 348 L 96 347 L 95 350 Q 94 353 97 352 Q 98 349 100 351 Q 99 348 102 349 L 103 348 L 106 351 L 108 350 L 108 352 L 111 353 L 113 353 L 113 355 L 115 354 Q 117 353 116 356 L 121 356 L 122 360 L 121 362 L 123 361 L 123 363 L 127 362 L 127 358 L 126 361 Q 123 362 124 358 L 127 356 L 130 360 L 128 362 Q 127 366 130 365 L 131 363 Q 130 360 133 361 L 134 361 L 133 366 Q 136 365 138 368 Q 140 369 139 366 L 135 365 L 136 363 L 139 364 L 140 364 Q 139 366 142 365 L 143 365 L 142 367 Q 141 370 144 371 L 144 369 L 147 367 L 148 367 L 147 370 L 149 373 L 153 367 L 123 353 L 100 346 Z M 182 346 L 181 350 Q 178 351 179 348 L 176 350 L 182 353 L 183 353 L 182 346 Z M 197 346 L 192 356 Q 190 357 193 358 L 194 355 Q 193 352 196 353 L 195 357 Q 194 360 197 359 L 198 360 L 197 358 Q 196 355 200 356 L 202 351 L 204 352 L 200 361 Q 203 362 202 358 L 205 358 L 205 356 L 208 352 L 209 352 L 208 354 L 209 357 Q 207 355 205 359 L 209 360 L 211 357 L 211 353 Q 214 354 213 351 L 208 349 L 206 350 Q 203 351 204 349 L 197 346 Z M 191 349 L 188 353 L 189 356 L 192 350 L 191 349 Z M 101 352 L 101 354 L 113 358 L 115 358 L 115 356 Q 109 357 107 353 L 105 354 L 101 352 Z M 215 352 L 212 356 L 212 357 L 216 357 L 217 353 L 215 352 Z M 219 354 Q 220 357 217 356 Q 215 360 219 359 L 221 359 Q 223 358 222 361 L 227 362 L 229 362 L 233 366 Q 234 368 232 367 L 233 370 L 230 372 L 245 378 Q 247 376 246 371 L 249 368 L 253 370 Q 256 371 255 368 L 241 363 Q 239 361 238 364 L 236 362 L 226 356 Q 223 355 224 358 L 222 358 L 223 355 L 219 354 Z M 117 357 L 115 360 Q 119 361 120 359 L 117 357 Z M 218 360 L 217 362 L 217 363 L 219 363 L 218 360 Z M 205 361 Q 204 364 208 363 Q 209 360 205 361 Z M 222 362 L 222 365 L 224 364 L 222 362 Z M 216 364 L 215 366 L 218 367 L 216 364 Z M 222 365 L 221 369 L 222 369 L 222 365 Z M 227 365 L 227 366 Q 230 365 229 368 L 230 368 Q 231 363 227 365 Z M 153 367 L 152 374 L 155 375 L 154 374 L 154 370 Q 157 371 156 369 L 153 367 Z M 226 367 L 225 370 L 226 370 L 226 367 Z M 159 368 L 157 370 Q 158 372 155 371 L 156 373 L 160 371 Q 162 370 161 373 L 165 372 L 159 368 Z M 214 368 L 214 370 L 219 370 L 214 368 Z M 257 369 L 257 370 L 259 370 L 257 369 Z M 249 370 L 249 373 Q 251 376 252 373 Q 253 368 249 370 Z M 262 371 L 264 374 L 264 376 Q 260 374 261 378 L 258 379 L 258 376 L 256 381 L 260 381 L 262 377 L 264 378 L 263 380 L 261 381 L 264 385 L 269 385 L 267 379 L 271 380 L 273 380 L 275 379 L 274 377 L 271 374 L 269 377 L 268 377 L 269 375 Q 267 371 266 375 L 266 374 Q 266 371 262 371 Z M 165 372 Q 166 375 164 374 L 163 376 Q 167 376 169 373 L 165 372 Z M 256 372 L 256 373 L 258 373 L 256 372 Z M 169 373 L 169 376 Q 166 375 167 379 Q 165 380 168 381 L 168 379 L 172 376 L 173 376 L 170 382 L 173 382 L 173 380 Q 175 381 174 378 L 177 376 L 169 373 Z M 258 373 L 258 375 L 261 375 L 258 373 Z M 159 374 L 158 377 L 160 378 L 159 374 Z M 254 375 L 252 378 L 254 380 L 255 380 L 254 375 Z M 215 376 L 218 379 L 219 379 Q 219 376 215 376 Z M 251 376 L 249 378 L 251 378 L 251 376 Z M 196 382 L 194 386 L 196 389 Q 195 385 198 384 Q 199 381 196 382 Z M 199 383 Q 200 387 197 390 L 200 388 Q 202 389 201 386 L 205 387 L 204 390 L 207 388 Q 209 389 208 387 L 199 383 Z M 285 386 L 289 390 Q 291 391 290 388 L 285 386 Z M 191 387 L 190 390 L 191 390 L 191 387 Z M 209 387 L 211 397 L 213 394 Q 216 393 214 399 L 215 399 Q 214 396 217 397 L 218 395 Q 217 392 221 393 L 222 396 L 221 395 L 219 399 L 219 400 Q 221 401 220 399 L 223 397 Q 225 391 228 397 L 227 396 L 223 399 Q 221 404 225 403 L 229 398 Q 228 395 231 396 L 228 404 Q 227 406 230 405 L 232 402 L 231 400 Q 233 401 235 398 L 235 402 L 234 401 L 233 405 Q 231 406 234 407 L 236 402 L 240 404 Q 241 406 238 405 Q 237 409 242 407 L 243 404 L 243 407 L 243 408 L 246 406 L 247 407 L 250 404 L 250 406 L 248 407 L 251 410 L 251 408 L 254 407 L 253 409 Q 252 411 255 410 L 253 415 Q 252 417 255 416 Q 257 415 255 414 L 257 414 Q 259 413 258 416 L 258 417 Q 260 418 259 414 L 257 412 L 257 411 L 261 412 L 263 409 L 250 402 Q 245 401 245 404 L 246 402 L 245 400 Q 240 398 241 402 L 240 402 L 241 400 L 223 391 L 209 387 Z M 195 389 L 194 391 L 197 392 L 197 390 L 195 389 Z M 203 389 L 201 391 L 202 394 L 203 391 L 203 389 Z M 283 389 L 284 394 L 286 393 L 285 390 L 283 389 Z M 207 391 L 205 393 L 207 396 L 209 392 L 207 391 Z M 185 397 Q 184 400 187 399 Q 188 396 185 397 Z M 194 397 L 195 399 Q 196 396 194 397 Z M 192 402 L 191 405 L 194 407 L 192 402 Z M 248 408 L 246 410 L 248 410 L 248 408 Z M 266 409 L 264 411 Q 265 413 262 412 L 262 414 L 269 412 Q 270 416 272 413 L 266 409 Z M 244 410 L 244 412 L 247 413 L 247 412 L 244 410 Z M 30 411 L 30 414 Q 31 416 33 414 L 35 417 L 37 416 Q 38 419 35 418 L 34 423 L 36 424 Q 35 421 39 422 L 39 421 L 40 421 L 39 426 Q 42 427 41 424 Q 44 423 43 427 L 47 429 L 46 426 L 49 428 Q 48 431 51 430 L 52 427 L 54 431 L 57 426 L 59 431 L 59 429 L 60 428 L 58 424 L 61 426 L 63 425 L 52 419 L 50 423 L 48 423 L 50 420 L 45 416 L 39 415 L 30 411 Z M 249 412 Q 248 415 251 414 Q 252 411 249 412 Z M 273 413 L 273 415 L 277 417 L 276 419 Q 279 420 278 417 L 281 417 L 273 413 Z M 262 414 L 262 417 Q 261 420 264 419 L 263 418 L 264 415 L 262 414 Z M 267 414 L 268 415 Q 269 417 270 415 L 267 414 Z M 273 415 L 271 417 L 273 417 L 274 418 L 273 415 Z M 265 416 L 267 421 L 268 418 L 265 416 Z M 282 417 L 282 419 L 280 419 L 282 422 Q 284 423 283 420 L 287 421 L 284 423 L 286 425 L 288 424 Q 286 422 289 421 L 285 417 L 282 417 Z M 270 418 L 270 420 Q 268 424 272 423 L 271 422 L 272 420 L 270 418 Z M 274 420 L 274 425 L 276 426 L 275 424 L 276 422 Q 277 419 274 420 Z M 277 422 L 278 425 Q 277 428 280 427 L 281 424 L 277 422 Z M 65 424 L 63 427 L 67 428 Q 68 426 70 429 Q 72 430 71 428 L 65 424 Z M 284 424 Q 280 425 281 429 L 285 427 L 284 424 Z M 289 426 L 287 429 L 289 428 L 289 426 Z M 291 426 L 292 429 L 293 427 L 291 426 Z M 294 427 L 292 430 L 293 432 L 295 431 L 294 427 Z M 62 428 L 63 431 L 64 429 L 62 428 Z M 72 428 L 74 431 L 76 430 L 72 428 Z M 68 429 L 68 433 L 72 432 L 73 434 L 75 433 L 74 437 L 75 439 L 76 437 Q 75 433 79 435 L 79 433 L 74 432 Q 72 428 71 431 L 68 429 Z M 78 429 Q 75 434 80 432 L 78 438 L 79 440 L 80 438 Q 79 435 82 436 L 83 442 L 84 438 L 83 436 L 84 434 L 86 435 L 85 437 L 87 443 L 87 441 Q 89 436 91 440 L 89 443 L 91 445 L 91 443 L 95 440 L 94 445 L 92 446 L 95 446 L 96 443 Q 95 440 98 441 L 97 444 L 98 447 L 100 441 L 101 441 L 100 444 L 101 449 Q 105 450 103 445 L 105 445 L 107 441 L 100 438 Q 98 435 97 439 L 95 439 L 97 438 L 94 435 L 91 437 L 91 436 L 82 432 L 78 429 Z M 315 429 Q 313 434 320 432 Q 321 434 322 432 Q 321 428 315 429 Z M 314 433 L 312 435 L 314 435 L 316 438 L 316 434 L 314 433 Z M 107 441 L 106 447 L 107 451 L 110 445 L 110 451 L 110 452 Q 113 453 112 450 L 115 448 L 114 452 L 116 454 L 117 454 L 116 452 L 119 450 L 119 455 L 122 455 L 123 453 L 125 454 L 124 456 L 125 457 L 127 454 L 130 452 L 128 457 L 129 460 L 130 457 L 133 455 L 132 459 Q 131 462 134 461 L 135 459 Q 134 456 138 457 L 136 461 L 139 464 Q 142 465 141 463 Q 144 461 143 459 L 146 467 L 148 466 L 148 463 L 147 465 L 145 464 L 146 459 L 149 458 Q 151 457 150 460 Q 155 459 156 463 Q 157 467 152 465 L 150 468 L 152 467 Q 156 466 154 470 Q 157 471 156 467 Q 160 466 158 471 L 160 471 Q 158 467 162 468 L 163 466 L 166 464 L 162 473 L 165 474 L 165 469 L 168 470 L 169 467 L 170 467 Q 168 472 172 471 L 173 477 L 174 474 L 174 472 L 176 474 L 175 476 L 177 478 L 177 476 L 181 470 L 171 464 L 158 459 L 155 459 L 138 451 L 135 451 L 133 449 Q 122 448 115 443 L 112 444 L 111 443 L 107 441 Z M 14 457 L 14 459 Q 11 458 12 461 L 12 462 L 16 460 L 14 464 Q 13 467 16 466 L 17 462 L 22 461 L 22 463 L 18 466 L 19 468 L 20 466 L 24 463 L 28 465 L 26 468 L 27 471 L 30 466 L 31 466 L 30 471 Q 28 472 31 473 L 31 472 L 37 467 L 35 470 L 36 471 L 39 469 L 38 472 L 39 473 L 43 471 L 42 473 L 43 476 L 42 475 L 40 478 L 44 479 Q 45 472 50 470 L 25 459 L 14 457 Z M 150 462 L 151 464 L 153 463 L 150 462 Z M 25 464 L 21 468 Q 20 470 23 469 L 25 466 L 25 464 Z M 8 466 L 8 474 L 9 475 L 8 477 L 8 498 L 9 499 L 8 501 L 8 503 L 9 507 L 9 524 L 18 522 Q 21 522 20 518 L 26 513 L 28 513 L 33 510 L 36 511 L 36 508 L 38 504 L 41 503 L 44 504 L 47 500 L 53 501 L 54 505 Q 56 508 63 506 Q 67 508 65 514 L 70 516 Q 72 520 74 516 Q 77 515 76 518 L 76 520 L 77 521 L 79 520 L 82 519 Q 89 518 92 521 L 93 521 L 92 516 L 96 513 L 103 517 L 104 520 L 103 522 L 104 529 L 114 530 L 124 533 L 136 534 L 144 537 L 151 537 L 163 540 L 183 541 L 184 542 Q 188 543 190 541 L 192 542 L 196 542 L 159 525 Q 156 526 157 523 L 155 524 L 150 521 L 147 522 L 149 522 L 151 526 L 154 525 L 157 528 L 156 530 L 159 534 L 158 536 Q 151 537 150 533 L 146 534 Q 143 533 144 530 L 147 528 L 149 528 L 149 526 L 146 524 L 144 521 L 147 521 L 112 508 L 100 502 L 84 498 L 68 491 L 65 491 L 48 482 L 37 478 Q 34 479 35 476 L 26 474 L 22 471 L 16 470 L 11 466 L 8 466 Z M 51 470 Q 46 472 49 474 L 47 478 Q 45 479 48 480 Q 50 481 49 478 L 53 475 L 50 481 Q 49 483 52 482 L 54 479 Q 53 476 56 477 L 56 475 L 58 476 L 54 481 L 54 483 L 56 483 Q 55 480 58 481 L 61 479 L 57 484 Q 56 486 59 485 L 61 482 L 64 480 L 62 483 L 63 487 L 67 477 L 63 477 L 60 474 L 51 470 Z M 182 470 Q 183 474 180 473 L 181 476 L 179 476 L 181 479 Q 184 480 182 476 L 184 476 L 186 472 L 182 470 Z M 35 471 L 34 474 L 35 474 L 35 471 Z M 169 472 L 168 473 Q 165 472 166 475 L 170 474 Q 171 471 169 472 Z M 188 472 Q 188 475 193 475 L 193 476 Q 188 475 190 480 Q 187 481 192 483 L 194 476 L 197 477 L 194 481 L 197 485 Q 200 483 198 478 L 202 480 L 201 480 L 199 482 Q 202 483 200 485 Q 199 487 203 486 L 205 488 Q 204 484 207 485 Q 209 486 207 488 L 211 489 L 212 486 Q 216 485 214 490 L 214 491 Q 216 492 215 490 L 219 488 L 218 491 L 219 493 L 219 492 L 223 490 L 224 485 L 221 485 L 209 479 L 206 479 L 204 477 L 201 477 L 188 472 Z M 239 472 L 237 474 L 241 475 L 243 474 L 239 472 Z M 38 473 L 37 475 L 35 476 L 38 476 L 38 473 Z M 237 474 L 234 476 L 237 476 L 237 474 Z M 185 475 L 184 478 L 188 481 Q 190 473 185 475 Z M 68 478 L 65 487 Q 64 490 67 489 L 70 482 L 71 482 Q 69 489 74 487 L 72 491 Q 71 493 74 492 L 77 487 L 80 489 L 82 488 Q 85 490 81 492 L 82 495 L 83 493 Q 85 488 87 492 L 85 496 Q 88 497 87 494 L 90 492 L 89 497 L 92 498 L 92 497 L 96 495 L 95 497 L 96 499 L 97 497 Q 96 493 99 494 Q 101 495 99 497 Q 97 502 101 501 Q 100 495 104 493 L 96 490 L 94 493 L 92 494 L 94 491 L 93 488 L 90 489 L 90 488 Q 89 485 85 486 L 85 488 L 84 487 L 85 485 Q 80 483 81 487 L 80 487 L 81 485 Q 80 482 79 484 Q 76 483 77 486 L 76 486 L 77 484 Q 78 481 75 482 L 75 484 L 73 481 L 68 478 Z M 235 478 L 236 479 L 237 480 Q 238 477 235 478 Z M 174 484 Q 173 486 177 486 Q 178 483 174 484 Z M 225 486 L 222 494 L 226 492 L 228 494 L 227 496 L 231 497 L 230 496 L 231 492 L 226 489 L 228 488 L 225 486 Z M 230 487 L 229 489 L 237 492 L 237 491 L 230 487 Z M 172 488 L 170 491 L 170 492 L 172 491 L 172 488 Z M 177 490 L 177 493 L 180 493 L 177 490 Z M 234 491 L 231 494 L 235 496 L 236 494 L 234 493 L 234 491 Z M 241 491 L 239 493 L 242 493 L 241 491 Z M 105 493 Q 106 496 104 495 L 104 497 L 103 499 Q 102 502 105 503 L 108 496 L 110 498 L 107 504 L 110 505 L 113 499 L 115 501 L 112 505 Q 111 507 115 506 L 116 504 Q 115 499 119 501 L 117 507 Q 116 509 119 508 L 120 505 L 123 503 L 121 509 L 124 510 L 126 504 L 129 506 L 127 510 Q 126 513 129 512 L 131 504 L 129 504 L 131 503 L 133 506 L 133 508 L 132 513 Q 135 514 134 511 L 137 508 L 136 507 L 138 506 L 136 515 Q 140 517 139 513 L 142 511 Q 144 512 142 514 L 143 517 L 144 512 L 147 514 L 146 517 L 147 519 L 150 512 L 151 516 L 150 519 Q 149 521 152 520 L 154 514 L 155 514 L 154 517 L 155 519 Q 158 520 157 517 Q 160 516 159 519 L 159 521 L 160 524 L 162 520 L 164 519 Q 165 523 162 524 Q 161 527 165 525 L 168 520 L 168 517 Q 164 518 165 515 L 159 513 L 157 513 L 155 511 L 147 509 L 147 511 L 146 509 L 129 501 L 126 502 L 122 501 L 124 500 L 120 498 L 120 500 Q 117 501 118 499 L 119 497 L 116 498 Q 112 499 114 495 L 105 493 Z M 244 493 L 245 495 L 253 498 Q 255 499 254 496 L 244 493 Z M 237 494 L 240 497 Q 242 493 237 494 Z M 241 496 L 241 498 L 244 500 L 241 502 L 243 502 Q 244 504 245 502 Q 244 499 247 500 L 247 498 Q 246 495 241 496 Z M 234 497 L 235 499 L 236 499 L 234 497 Z M 256 497 L 258 499 L 259 501 L 252 499 L 250 499 Q 246 498 248 503 Q 246 504 249 505 L 251 501 Q 254 500 253 503 L 256 503 L 256 506 L 257 506 Q 256 502 260 504 L 259 507 L 260 509 L 263 504 L 265 505 L 264 505 L 264 507 L 263 509 Q 262 511 265 510 L 267 505 L 269 506 L 268 507 L 268 513 Q 272 514 270 509 L 275 511 L 275 515 L 274 513 L 272 514 L 273 516 Q 274 519 280 518 L 281 516 L 278 515 L 279 511 Q 280 508 282 510 Q 284 509 283 512 L 282 511 Q 279 510 280 513 L 283 514 L 285 513 Q 287 514 286 511 L 281 507 Q 276 506 278 510 L 276 510 L 278 507 Q 276 502 275 505 L 256 497 Z M 48 503 L 46 506 L 49 504 Q 51 505 50 509 L 48 508 L 46 509 Q 43 510 44 506 L 40 506 Q 38 508 39 515 L 39 516 L 44 514 L 46 515 L 52 512 Q 54 506 51 505 Q 52 502 48 503 Z M 303 512 L 302 513 Q 296 511 297 515 L 305 514 Q 306 511 303 512 Z M 55 514 L 44 519 L 40 524 Q 37 525 38 522 L 36 522 L 34 527 L 30 530 L 16 533 L 14 533 L 12 534 L 10 534 L 9 545 L 12 545 L 12 544 L 14 542 Q 18 543 20 541 L 22 542 L 24 542 L 31 540 L 33 541 L 34 540 L 46 539 L 48 539 L 58 536 L 67 536 L 68 535 L 67 534 L 65 534 L 60 535 L 55 534 L 54 535 L 46 535 L 41 537 L 30 538 L 26 540 L 24 537 L 21 538 Q 17 539 16 537 L 19 534 L 29 533 Q 30 536 27 535 L 27 536 L 45 532 L 62 532 L 63 533 L 65 532 L 71 532 L 77 534 L 81 534 L 85 531 L 88 534 L 86 539 L 86 543 L 85 544 Q 82 545 83 541 L 80 538 Q 74 540 73 537 L 72 538 L 61 538 L 47 542 L 41 542 L 39 542 L 36 543 L 32 542 L 25 544 Q 18 543 19 546 L 13 546 L 9 548 L 9 561 L 10 562 L 9 572 L 16 573 L 36 573 L 38 573 L 41 572 L 46 573 L 48 573 Q 53 575 55 572 Q 58 574 65 573 L 68 572 L 65 571 Q 63 566 71 568 L 74 569 L 111 569 L 112 568 L 113 569 L 141 569 L 144 570 L 146 569 L 148 570 L 170 570 L 172 570 L 220 570 L 221 571 L 231 571 L 232 572 L 251 572 L 255 571 Q 245 571 239 568 L 230 568 L 229 567 L 218 567 L 217 566 L 214 567 L 204 565 L 196 565 L 195 564 L 193 565 Q 191 563 187 564 L 184 562 L 157 559 L 153 557 L 139 555 L 131 551 L 127 552 L 118 545 L 92 541 L 90 538 L 96 539 L 100 536 L 101 540 Q 104 541 103 538 Q 104 535 108 536 L 109 540 L 126 540 Q 129 543 137 542 L 138 545 L 130 543 L 118 542 L 119 544 Q 122 543 121 546 Q 124 547 123 544 L 128 544 L 128 548 L 128 549 L 130 548 L 137 552 L 153 556 L 172 558 L 193 563 L 200 563 L 202 563 L 211 565 L 237 566 L 254 569 L 259 569 L 235 558 L 232 557 Q 233 560 228 558 Q 226 560 225 558 L 229 556 L 202 543 Q 201 546 197 545 L 195 545 L 166 543 L 152 540 L 146 540 L 137 537 L 117 535 L 99 530 Q 95 531 96 529 Q 94 523 87 523 L 83 523 Q 78 522 77 524 Q 69 522 66 517 L 55 514 Z M 294 516 L 292 518 Q 291 520 296 519 L 294 516 Z M 298 517 L 298 518 L 302 518 L 298 517 Z M 34 518 L 25 522 Q 22 521 23 524 L 12 528 Q 7 527 9 532 L 24 530 L 31 527 L 34 523 L 40 519 L 34 518 Z M 171 518 L 167 526 Q 166 528 169 527 L 171 526 Q 170 529 173 528 L 174 525 L 176 525 L 176 523 Q 178 521 176 520 Q 172 521 173 518 L 171 518 Z M 288 520 L 287 523 L 293 527 L 293 525 L 288 520 Z M 292 520 L 295 523 Q 298 524 297 521 L 292 520 Z M 180 521 L 178 525 L 182 527 L 179 531 L 180 532 L 181 530 Q 183 525 185 528 L 186 524 L 180 521 Z M 20 522 L 19 524 L 21 523 L 20 522 Z M 98 523 L 98 525 L 100 524 L 98 523 Z M 176 525 L 175 528 L 176 531 L 178 528 Q 179 524 176 525 Z M 189 525 L 187 527 Q 188 529 185 528 L 185 530 L 189 529 Q 194 531 192 526 L 189 525 Z M 193 527 L 192 530 Q 186 528 188 534 L 189 534 Q 188 531 191 532 L 192 536 L 191 535 L 190 537 L 193 538 L 194 535 L 196 534 Q 197 538 194 539 L 198 540 L 199 538 Q 198 535 201 536 L 199 541 L 202 542 Q 204 543 203 541 L 206 539 L 205 543 L 209 544 L 210 542 L 208 542 L 213 535 L 210 532 L 208 533 L 207 531 L 204 531 Q 205 534 202 533 L 203 531 L 198 529 L 198 532 L 197 528 L 193 527 Z M 148 530 L 146 532 L 148 532 L 148 530 Z M 185 530 L 183 533 Q 181 534 184 535 L 185 533 L 185 530 Z M 152 531 L 152 533 L 155 534 L 156 534 L 152 531 Z M 186 534 Q 185 537 188 536 Q 189 533 186 534 Z M 215 535 L 212 536 L 210 541 L 213 542 L 215 539 Q 214 536 217 537 Q 218 534 215 535 Z M 288 535 Q 284 540 277 542 Q 269 540 270 544 L 272 543 L 276 544 Q 277 541 284 543 L 287 540 L 290 541 L 292 538 Q 294 539 293 536 L 288 535 Z M 330 535 L 314 540 L 307 538 L 299 538 L 300 541 L 299 543 Q 304 544 307 540 L 312 542 L 313 546 Q 312 548 316 547 L 315 546 L 316 543 L 320 540 L 324 542 L 328 540 Q 332 539 333 542 Q 332 544 335 543 L 334 541 L 335 537 Q 334 534 330 535 Z M 217 537 L 217 539 L 216 541 Q 218 540 217 544 L 219 543 L 219 540 Q 222 541 221 539 L 217 537 Z M 223 539 L 221 541 L 222 543 L 219 549 L 222 550 Q 222 543 225 540 L 223 539 Z M 226 542 L 224 545 L 226 545 L 224 550 Q 223 552 226 551 L 227 547 Q 226 544 229 545 L 229 548 L 228 552 Q 227 554 230 553 L 233 546 L 226 542 Z M 250 542 L 248 544 L 264 545 L 266 545 L 268 544 L 251 543 L 250 542 Z M 307 542 L 302 546 L 296 545 L 295 549 Q 291 550 293 545 L 288 543 L 286 547 L 282 545 L 280 546 L 276 545 L 275 548 L 273 547 L 269 548 L 268 547 L 255 547 L 254 546 L 247 547 L 253 548 L 281 563 Q 282 560 287 561 Q 289 562 288 566 L 287 568 L 301 567 L 302 566 L 302 563 Q 299 564 300 561 Q 303 559 310 560 L 312 560 L 325 560 L 326 559 L 325 557 L 328 553 L 320 553 L 319 554 Q 314 555 313 553 L 302 555 L 301 552 L 322 552 L 323 551 L 328 552 L 330 551 L 334 553 L 335 553 L 334 547 Q 331 546 330 549 L 328 548 Q 324 549 325 546 L 323 546 L 318 550 L 314 549 L 312 549 Q 309 548 310 543 L 307 542 Z M 236 544 L 232 553 Q 231 556 234 555 L 238 549 L 237 547 L 239 546 Q 240 543 236 544 Z M 241 546 Q 242 549 240 548 L 237 552 L 236 557 L 240 558 L 241 559 Q 242 556 239 557 L 239 554 L 244 551 Q 243 548 246 549 L 244 553 L 246 553 L 245 556 L 246 557 L 248 553 L 248 551 Q 251 552 250 549 L 241 546 Z M 251 550 L 251 552 Q 253 556 255 553 L 264 559 L 262 559 L 262 561 Q 261 563 264 562 L 264 565 L 261 566 L 262 563 L 260 561 L 257 566 L 262 568 L 261 571 L 263 571 L 265 564 Q 269 563 268 566 L 272 567 L 275 563 L 271 560 L 272 563 Q 273 565 269 564 L 268 561 L 266 562 L 268 559 L 268 561 L 271 560 L 251 550 Z M 249 553 L 249 555 L 252 556 L 253 556 L 249 553 Z M 251 556 L 247 561 L 249 563 Q 251 564 250 560 Q 254 558 251 556 Z M 328 556 L 328 559 L 334 559 L 334 558 Q 333 555 328 556 Z M 245 557 L 243 559 Q 242 561 245 560 L 245 557 Z M 255 557 L 251 564 L 254 565 Q 257 566 256 563 L 258 561 L 255 557 Z M 257 557 L 258 558 L 259 559 Q 260 556 257 557 Z M 329 561 L 329 562 L 334 562 L 329 561 Z M 276 563 L 274 565 Q 273 568 277 566 Q 278 562 276 563 Z M 319 563 L 318 565 Q 320 568 325 566 Q 327 561 321 563 L 319 563 Z M 283 564 L 283 566 L 285 565 L 283 564 Z M 328 564 L 328 566 Q 333 567 335 565 L 328 564 Z M 268 566 L 266 569 L 266 570 L 268 569 L 268 566 Z M 274 566 L 272 569 Q 269 568 270 571 L 274 569 L 274 566 Z M 281 566 L 279 568 L 281 568 L 281 566 Z M 334 568 L 329 570 L 329 572 L 328 575 L 335 575 L 335 573 L 332 572 L 335 571 L 334 568 Z M 320 572 L 320 575 L 325 575 L 325 574 Q 324 571 320 572 Z M 281 574 L 281 576 L 284 577 L 286 577 Q 285 573 281 574 Z M 334 576 L 328 577 L 328 579 L 334 579 L 334 576 Z M 147 585 Q 145 588 148 587 L 147 585 Z "></path><path d="M 198.5 11 Q 201.5 12.5 198.5 14 L 193 14 L 193 28.5 L 198 30.5 L 195.5 32 L 170.5 32 L 166.5 33 L 164.5 33 L 156.5 33 L 155 31.5 L 161 31 Q 159.6 21.3 153.5 15 L 150.5 16 L 149.5 14 L 151.5 13 L 197.5 12 L 198.5 11 Z M 181 14 L 179 16 L 180 21 L 180 30 L 183 30 L 182 28 L 183 26 Q 185 20 182 19 L 183 16 L 181 14 Z M 186 14 L 187 21 L 187 23 L 186 29 L 189 30 L 189 15 L 186 14 Z M 159 15 L 164 27 L 168 18 L 168 15 L 159 15 Z M 172 15 L 167 28 L 167 31 L 177 30 L 175 19 L 176 17 L 176 15 L 172 15 Z "></path><path d="M 108.5 99 L 109 100.5 L 107 101.5 L 108.5 99 Z "></path><path d="M 27.5 114 L 28 116 L 26 115.5 L 27.5 114 Z "></path><path d="M 145 114 L 147 114.5 L 145 115.5 L 145 114 Z "></path><path d="M 22 150 L 24 150.5 L 22 151.5 L 22 150 Z "></path><path d="M 64.5 167 L 63.5 169 L 64.5 167 Z "></path><path d="M 68 169 L 70 169.5 L 68 170.5 L 68 169 Z "></path><path d="M 74.5 170 L 74 171.5 L 73.5 173 L 73 171.5 L 74.5 170 Z "></path><path d="M 11.5 195 L 12 197.5 L 11 197.5 L 11.5 195 Z "></path><path d="M 167.5 206 L 166.5 208 L 167.5 206 Z "></path><path d="M 54.5 214 Q 56.8 213.3 56 215.5 L 53 217 L 54.5 214 Z "></path><path d="M 68 218 L 70 218.5 L 69 222 Q 66.3 223.1 67 220.5 L 68 218 Z "></path><path d="M 73.5 220 L 75 220.5 L 72 222.5 L 73.5 220 Z "></path><path d="M 79.5 222 L 80 224 L 78 223.5 L 79.5 222 Z "></path><path d="M 84.5 224 L 83 226.5 Q 84 230.3 81 229 L 82 225 L 84.5 224 Z "></path><path d="M 211.5 226 Q 213.8 225.3 213 227.5 L 211.5 226 Z "></path><path d="M 105.5 234 L 104.5 236 L 105.5 234 Z "></path><path d="M 134.5 247 Q 139.3 245.7 138 249 Q 134.2 249.8 134.5 247 Z "></path><path d="M 259.5 248 L 262 248.5 L 259.5 249 L 259.5 248 Z "></path><path d="M 271 248 Q 273.7 246.9 273 249.5 L 271 250.5 L 271 248 Z "></path><path d="M 147.5 249 L 148 250.5 L 146 251.5 L 147.5 249 Z "></path><path d="M 277.5 250 L 278 252.5 L 276 251.5 L 277.5 250 Z "></path><path d="M 138.5 251 L 139.5 253 Q 136.7 253.7 138.5 251 Z "></path><path d="M 151 251 L 153 251.5 L 151 255 Q 148 256 149 253 Q 152 254 151 251 Z "></path><path d="M 161.5 255 L 163 255.5 L 160 257.5 L 161.5 255 Z "></path><path d="M 278.5 259 Q 280.8 258.3 280 260.5 L 278.5 259 Z "></path><path d="M 68.5 301 L 71 302.5 L 69.5 303 L 68.5 301 Z "></path><path d="M 74.5 303 L 75.5 305 Q 72.7 305.7 74.5 303 Z "></path><path d="M 90 309 Q 93 308 92 311 Q 89 312 90 309 Z "></path><path d="M 96.5 310 L 98 312.5 L 96 311.5 L 96.5 310 Z "></path><path d="M 101.5 312 L 102.5 314 Q 99.7 314.7 101.5 312 Z "></path><path d="M 113.5 317 Q 115.8 316.3 115 318.5 L 113.5 317 Z "></path><path d="M 121.5 320 Q 123.8 319.3 123 321.5 L 121.5 320 Z "></path><path d="M 133 324 Q 136 323 135 326 Q 132 327 133 324 Z "></path><path d="M 138.5 327 L 139 330 L 137 329.5 L 138.5 327 Z "></path><path d="M 199 348 Q 202 347 201 350 Q 198.3 348.9 199 351.5 L 197 352.5 L 199 348 Z "></path><path d="M 229.5 359 L 230.5 361 Q 227.7 361.7 229.5 359 Z "></path><path d="M 240 365 Q 242.7 363.9 242 366.5 L 237.5 373 L 235.5 368 L 234 368.5 Q 233 364.8 236 366 Q 234.8 369.7 240 368 L 240 365 Z "></path><path d="M 245.5 367 L 245 368.5 L 242.5 374 Q 239.5 374.9 241 370.5 L 242 368 L 245.5 367 Z "></path><path d="M 264.5 381 L 265 383.5 L 264 383.5 L 264.5 381 Z "></path><path d="M 215.5 391 Q 218.1 390.3 217 393 L 214 392.5 L 215.5 391 Z "></path><path d="M 20.5 409 Q 23.1 408.2 22 411.5 L 20.5 411 L 19 410.5 L 20.5 409 Z "></path><path d="M 41.5 417 L 42 419 L 40 418.5 L 41.5 417 Z "></path><path d="M 43.5 420 L 44 422.5 L 43 422.5 L 43.5 420 Z "></path><path d="M 52 423 L 56 424.5 L 53.5 425 Q 50.9 425.7 52 423 Z "></path><path d="M 124 449 L 126 449.5 L 124 450.5 L 124 449 Z "></path><path d="M 134.5 452 L 137.5 456 L 134.5 452 Z "></path><path d="M 139.5 454 L 141 456.5 L 139 455.5 L 139.5 454 Z "></path><path d="M 159.5 462 L 160 464 Q 157.3 462.9 158 465.5 L 157 465.5 L 159.5 462 Z "></path><path d="M 42.5 468 L 41.5 470 L 42.5 468 Z "></path><path d="M 175 469 Q 178 468 177 471 Q 174 472 175 469 Z "></path><path d="M 204 480 Q 207 479 206 482 Q 203.3 480.9 204 483.5 L 202 484.5 L 204 480 Z "></path><path d="M 208 482 Q 212.1 480.7 211 484 L 208.5 485 L 208 482 Z "></path><path d="M 271 506 Q 274 505 273 508 Q 270 509 271 506 Z "></path><path d="M 140.5 507 L 143 508.5 Q 141.5 511.5 140 508.5 L 140.5 507 Z "></path><path d="M 224.5 520 Q 228.3 519.3 229 521.5 L 229.5 523 Q 230.9 519.4 236.5 520 Q 240.5 520.5 240 525.5 L 237 527.5 L 239 530.5 L 232.5 534 L 221 528.5 Q 223.3 527.2 222 522.5 L 224.5 520 Z M 236 522 L 233 523 L 232 526 L 233 528 L 233 527 L 237 525 Q 238 521 236 522 Z M 229 527 Q 226 528 228 530 Q 227 532 234 531 L 235 529 L 233 530 L 230 530 Q 231 526 229 527 Z "></path><path d="M 140.5 541 Q 145.8 539.5 144 544 L 148.5 544 L 158.5 546 L 170.5 551 L 182.5 552 L 183.5 553 L 194.5 553 L 208.5 556 L 213.5 555 L 223 557 Q 224.7 561.1 220.5 560 Q 216.5 557 209.5 557 L 205.5 558 L 187.5 554 L 185.5 555 L 184.5 554 L 169.5 553 L 161.5 549 L 148.5 546 L 143.5 546 L 139 543.5 L 140.5 541 Z M 212 543 Q 209 547 213 546 L 212 543 Z M 215 545 L 215 548 Q 219 549 218 547 L 215 545 Z "></path><path d="M 343.5 546 L 343 547.5 L 342.5 550 L 342 547.5 L 343.5 546 Z "></path><path d="M 98.5 547 L 102.5 547 L 107 550.5 L 107 553 Q 110.7 551.5 110 554.5 L 106.5 556 L 104.5 554 L 98.5 553 L 97 551.5 L 96 549.5 L 98.5 547 Z "></path><path d="M 55 549 Q 60.4 547.5 62 550.5 L 61 557.5 L 59.5 559 L 58 556 L 53 555 L 55 549 Z "></path><path d="M 67.5 550 Q 71.5 549.5 72 552.5 Q 72.6 557.6 69.5 559 L 63 554.5 L 64.5 552 L 67.5 550 Z "></path><path d="M 90.5 550 L 96 551 L 97 555 L 89.5 557 L 85 554.5 L 86.5 551 L 90.5 550 Z "></path><path d="M 276.5 551 L 279 552 L 279 554 L 274 554 Q 272.9 551.3 275.5 552 L 276.5 551 Z "></path><path d="M 286.5 551 L 287 554 L 284 552.5 L 286.5 551 Z "></path><path d="M 292.5 552 Q 296.7 550.9 295 555 L 291 553.5 L 292.5 552 Z "></path><path d="M 343.5 554 L 344.5 556 L 343.5 554 Z "></path><path d="M 14.5 555 Q 19 554 20 556.5 L 17.5 563 L 13 559.5 L 12 557.5 L 14.5 555 Z "></path><path d="M 24.5 555 L 26.5 556 L 28.5 555 Q 30 558.5 31.5 556 L 37 558 Q 38 561.8 35.5 563 Q 33.3 562.3 34 564.5 L 31 566 Q 32.1 563.3 29.5 564 L 26.5 567 L 25 565.5 Q 25.8 563.3 23.5 564 L 20 560.5 L 21 559.5 L 24.5 555 Z "></path><path d="M 100.5 557 Q 106.2 555.4 104 561 L 98.5 561 L 98 559.5 L 100.5 557 Z "></path><path d="M 109.5 558 L 112 559.5 L 108 561 L 109.5 558 Z "></path><path d="M 40.5 560 L 47 561 L 45.5 565 L 42.5 564 Q 40.3 568.3 38 563.5 Q 36.9 560.2 39.5 561 L 40.5 560 Z "></path><path d="M 343.5 560 L 344.5 562 L 342 561.5 L 343.5 560 Z "></path><path d="M 150 584 L 155 584 L 155 586 L 150 586 L 150 584 Z "></path><path d="M 157.5 584 L 161.5 584 L 168.5 585 L 171.5 584 L 173.5 585 L 176.5 584 L 177.5 585 L 194.5 585 L 195.5 586 L 237.5 586 L 238.5 585 L 254.5 585 L 255.5 584 Q 256.7 586.3 261.5 585 L 262.5 584 L 270.5 584 L 269.5 586 L 254.5 586 L 252.5 587 L 249.5 586 L 248.5 587 Q 238.4 585.4 232.5 588 L 230.5 588 L 199.5 588 L 198.5 587 L 186.5 587 L 185.5 586 L 157 586 L 157.5 584 Z "></path><path d="M 103.5 587 Q 107.9 585.5 107 588.5 L 106 591 L 102 589.5 L 103.5 587 Z "></path><path d="M 345.5 587 L 345 588.5 L 344.5 590 L 344 588.5 L 345.5 587 Z "></path></svg>