<svg width="350" height="600" version="1.1" xmlns="http://www.w3.org/2000/svg" desc="Created with imagetracer.js version 1.2.5"><path d="M 9.5 4 L 22.5 5 L 25.5 4 L 28.5 5 L 31.5 4 L 35.5 5 L 37.5 5 L 59.5 5 L 61.5 4 L 62.5 5 L 128.5 5 L 129.5 6 Q 131.3 3.2 137.5 5 L 139.5 6 L 141.5 5 L 144.5 6 L 146.5 5 L 147.5 6 L 176.5 6 L 178.5 5 L 179.5 6 L 191.5 6 L 193.5 6 L 220.5 5 L 222.5 6 L 223.5 5 L 274.5 5 L 279.5 4 L 280.5 5 L 327.5 5 L 329.5 4 L 335 6.5 L 334 8.5 L 334 55.5 L 335 58.5 L 334 60.5 L 335 64.5 Q 332.5 66 334 71.5 L 335 76.5 L 334 78.5 L 335 79.5 L 335 158.5 L 336 160.5 L 335 161.5 L 335 224.5 L 335 226.5 L 336 235.5 L 335 236.5 L 335 249.5 L 336 252.5 L 335 253.5 L 335 265.5 L 335 267.5 L 336 276.5 L 335 280.5 L 336 282.5 L 335 283.5 L 335 299.5 L 335 301.5 L 336 303.5 Q 333.5 305 335 310.5 L 336 312.5 L 336 314.5 L 335 317.5 L 336 318.5 L 336 328.5 L 335 330.5 L 336 331.5 L 336 478.5 Q 333.3 480.2 335 486.5 L 335 488.5 L 336 495.5 L 335 497.5 L 336 498.5 L 336 511.5 L 335 513.5 L 336 515.5 L 335 517.5 Q 337.3 518.8 336 523.5 L 336 525.5 L 336 592.5 L 337 595 L 295.5 595 L 294.5 594 L 291.5 595 L 290.5 594 L 259.5 594 L 257.5 593 L 255.5 593 L 252.5 594 L 251.5 593 L 219.5 593 L 218.5 594 L 157.5 594 L 156.5 595 Q 154.8 592.3 148.5 594 L 145.5 595 L 141.5 594 L 139.5 594 L 131.5 595 L 130.5 594 L 109.5 594 L 107.5 594 L 99.5 595 L 97.5 595 L 28.5 595 L 26.5 594 L 24.5 595 L 21.5 594 L 20.5 595 L 11.5 595 L 6 594 L 5 581.5 L 6 580.5 L 6 570.5 L 5 567.5 L 6 565.5 L 5 564.5 L 5 552.5 L 6 547.5 L 5 544.5 L 6 542.5 L 5 539.5 L 6 536.5 L 5 535.5 L 5 496.5 Q 7.5 495 6 489.5 L 6 487.5 L 6 467.5 L 5 464.5 L 5 462.5 L 6 455.5 L 6 453.5 Q 7.6 443.4 5 437.5 L 6 432.5 L 5 429.5 L 5 427.5 L 6 425.5 L 5 424.5 L 5 304.5 L 5 302.5 L 5 288.5 L 6 287.5 L 6 170.5 L 5 169.5 L 5 144.5 L 6 142.5 L 5 139.5 L 5 137.5 L 6 133.5 L 5 131.5 L 6 130.5 L 6 47.5 L 5 46.5 L 5 29.5 L 6 28.5 L 6 7.5 L 9.5 4 Z M 12 7 L 9 13 L 9 31 L 8 32 L 9 51 L 10 52 L 9 54 Q 11 57 10 64 L 10 66 L 9 69 L 10 71 L 9 73 L 10 76 L 10 78 L 10 96 L 9 97 Q 12 98 10 105 L 10 107 Q 11 111 9 113 Q 8 118 10 120 L 9 121 L 9 140 L 8 141 L 9 146 L 8 150 L 8 160 L 9 161 L 8 165 L 9 166 L 9 209 L 10 211 L 10 213 L 9 215 L 10 217 L 9 219 L 9 259 L 10 260 Q 11 264 9 266 L 9 316 L 9 318 L 8 320 L 9 322 L 8 325 L 9 335 L 9 337 L 8 340 L 8 349 L 9 350 L 8 352 L 9 355 L 8 360 L 9 361 L 9 370 L 9 372 L 9 392 L 8 393 Q 7 398 9 400 L 8 401 L 8 411 L 9 414 L 8 417 L 9 418 L 10 484 L 10 472 L 15 466 Q 14 458 16 455 L 21 452 Q 28 456 28 468 L 30 467 L 31 470 L 37 471 L 42 463 L 50 457 L 58 453 L 69 430 L 70 420 L 73 414 L 75 401 L 70 398 L 63 399 L 62 388 L 58 391 L 48 388 Q 47 382 49 381 Q 43 380 41 376 Q 40 369 44 367 L 47 365 L 82 320 L 94 313 L 99 308 L 109 284 L 118 273 L 121 271 L 124 265 L 133 257 L 126 239 L 120 230 L 101 190 L 95 181 L 92 172 L 89 169 L 76 143 L 60 106 L 58 109 L 52 107 L 54 104 Q 47 104 44 100 L 46 96 L 52 97 L 53 95 L 53 92 L 49 86 L 49 83 L 45 79 L 45 75 L 39 74 L 40 72 L 39 68 L 40 65 L 43 63 L 44 64 L 43 61 L 46 55 L 50 57 L 53 56 L 56 62 L 54 66 L 54 68 L 61 76 L 65 91 L 74 108 L 76 107 L 72 102 L 73 99 L 76 98 L 67 85 L 65 80 L 65 76 L 66 75 L 62 71 L 63 66 L 62 64 L 63 62 Q 62 59 65 60 Q 69 64 70 71 L 71 69 L 68 63 L 68 55 L 72 53 Q 74 54 74 59 L 78 58 Q 79 64 75 67 Q 74 69 78 68 L 82 77 L 83 85 L 87 92 L 94 112 L 106 134 Q 105 137 108 136 Q 109 130 105 128 L 106 123 Q 105 120 108 121 L 109 125 L 114 122 L 112 128 L 115 128 L 116 132 L 114 133 L 115 129 L 113 130 Q 109 129 110 133 L 110 135 L 108 138 L 108 141 L 114 149 L 134 189 L 138 200 L 148 217 L 156 236 L 160 239 L 148 209 L 145 198 L 140 188 L 140 185 L 131 160 L 127 154 L 117 129 L 117 126 L 115 124 L 114 116 L 111 112 L 107 97 L 103 104 L 96 100 L 98 97 L 94 94 L 94 90 L 102 90 L 104 92 L 104 89 L 96 79 L 95 71 L 93 72 L 90 69 L 92 66 L 91 63 Q 89 58 93 59 L 94 59 L 93 62 L 94 64 L 96 64 L 95 61 L 98 63 Q 97 65 100 64 Q 100 58 95 56 L 96 49 L 99 48 L 102 53 Q 103 50 107 51 Q 108 58 105 61 Q 102 60 103 63 L 105 62 L 108 63 L 111 70 L 111 76 L 113 83 L 123 103 L 126 117 L 130 124 L 133 120 L 132 118 Q 131 111 136 109 L 138 111 Q 137 113 136 111 L 134 114 L 135 115 L 140 113 L 139 117 L 141 121 L 139 124 Q 136 125 137 123 L 135 121 L 130 127 L 134 134 L 140 152 L 145 161 L 154 184 L 166 223 L 172 238 Q 171 240 174 239 L 173 238 L 175 234 L 175 227 L 169 207 L 166 185 L 156 153 L 155 142 L 150 126 L 146 104 L 139 100 L 134 95 L 134 92 Q 133 89 132 91 Q 127 92 126 90 Q 126 85 130 83 L 132 84 L 131 81 L 132 77 L 136 74 Q 139 76 137 81 L 141 84 L 140 87 L 136 90 Q 135 94 138 96 L 145 101 L 146 99 L 146 97 L 144 87 L 144 85 L 144 82 L 140 76 Q 138 67 143 65 L 140 61 Q 139 58 142 59 L 141 54 L 145 51 L 148 59 L 152 56 L 154 58 Q 152 63 158 61 L 159 65 L 156 67 L 160 76 L 163 75 L 161 69 L 161 64 L 159 60 L 159 55 L 156 53 L 154 50 L 157 48 L 156 44 Q 157 41 161 41 L 165 47 Q 164 50 167 49 L 166 48 L 167 45 L 172 39 L 160 39 L 159 40 L 155 39 L 156 37 L 162 37 Q 163 31 167 29 L 165 24 L 160 19 Q 156 20 157 17 L 163 18 L 165 18 L 166 17 L 176 17 L 177 16 L 185 17 Q 186 21 180 19 L 173 28 L 177 35 Q 179 38 186 36 L 187 38 L 186 39 L 175 39 L 175 41 L 174 43 L 175 45 L 178 44 Q 178 50 173 53 L 176 61 L 175 65 L 176 82 L 179 96 L 179 106 L 182 104 Q 184 103 183 106 L 189 104 L 191 109 L 191 90 L 187 87 L 182 90 L 180 86 L 183 85 L 180 80 L 181 77 L 184 75 L 187 81 L 189 80 L 188 87 L 191 87 L 190 86 L 190 73 L 188 71 Q 186 60 193 58 Q 195 59 194 55 L 192 56 L 188 55 L 190 52 L 189 51 L 185 50 L 187 46 Q 189 47 188 44 L 192 44 Q 194 43 193 40 L 198 36 L 199 44 L 202 42 L 204 46 L 202 50 L 204 53 Q 203 56 198 55 L 196 55 Q 194 59 198 58 L 204 67 L 204 78 L 203 79 L 203 92 L 204 93 L 203 96 L 204 97 L 204 119 Q 208 120 206 113 L 210 110 L 211 113 L 214 111 Q 216 112 215 116 Q 210 118 214 121 L 212 124 L 208 122 Q 209 118 205 120 L 204 123 L 205 131 L 205 133 L 205 141 L 204 142 L 205 144 L 205 155 L 204 156 L 205 157 L 205 181 L 206 182 L 206 215 L 207 215 L 212 215 L 213 196 L 214 195 L 215 147 L 216 145 L 216 143 L 216 129 L 215 128 L 216 125 L 216 91 L 215 89 L 211 92 L 207 91 L 210 86 Q 207 83 208 77 L 211 78 L 214 80 L 213 79 Q 212 75 215 76 L 217 76 L 218 73 Q 219 68 216 67 Q 216 61 220 60 L 219 57 Q 218 51 220 49 L 215 48 L 213 46 L 219 43 L 220 39 Q 219 34 223 36 L 225 40 L 227 37 L 230 40 L 229 44 L 230 48 Q 228 53 222 52 L 221 55 L 222 58 L 227 57 L 231 59 L 233 64 L 233 70 L 229 78 L 230 82 L 228 93 L 229 98 L 228 103 L 228 127 L 227 130 L 227 132 Q 226 135 229 134 L 232 127 L 231 118 L 235 115 L 236 119 Q 237 121 239 119 Q 241 120 240 124 L 237 125 L 238 130 Q 240 131 238 132 Q 233 133 233 129 L 232 134 L 229 135 L 227 137 L 227 156 L 227 158 L 226 162 Q 225 166 227 168 L 226 169 L 225 191 L 225 193 L 224 195 L 224 222 L 223 223 L 224 227 L 225 225 L 227 208 L 233 182 L 233 170 L 235 163 L 235 155 L 237 150 L 238 138 L 244 109 L 244 100 L 246 93 L 247 76 L 245 75 Q 245 80 242 81 L 238 80 L 239 78 L 237 74 Q 234 75 235 72 Q 236 69 240 70 L 239 69 L 240 65 Q 243 60 245 65 L 243 72 Q 242 74 245 73 L 248 74 L 249 73 L 249 64 L 250 63 L 249 60 Q 248 53 251 51 L 256 49 L 254 46 L 255 40 L 252 38 L 250 35 L 251 32 L 255 30 L 257 33 L 257 29 L 262 24 L 264 24 L 266 28 L 270 27 L 271 30 L 271 33 L 267 37 L 269 41 L 266 43 L 261 42 Q 259 38 257 42 Q 256 47 259 49 Q 257 54 263 52 L 265 58 L 265 62 L 262 70 L 261 85 L 259 89 L 254 111 L 252 133 L 249 142 L 249 151 L 247 154 Q 246 159 248 161 L 246 166 L 246 174 L 239 206 L 236 228 L 239 229 L 245 211 L 254 174 L 262 153 L 265 139 L 273 119 L 273 115 Q 278 104 280 91 L 284 82 Q 284 74 279 72 L 280 67 L 280 63 L 274 63 L 272 60 L 277 56 L 278 51 L 282 48 L 284 52 L 283 56 L 283 57 L 287 57 L 286 63 L 282 64 L 282 73 L 286 73 L 288 61 L 290 57 L 290 46 L 291 44 L 295 41 L 300 42 L 299 38 L 299 36 L 294 33 L 295 27 L 300 28 L 300 27 L 305 23 L 307 25 Q 306 30 310 28 Q 311 33 308 35 Q 307 39 311 37 L 311 40 L 308 42 L 302 41 L 301 44 Q 300 47 303 46 L 306 52 L 299 68 L 298 74 L 294 81 L 278 136 L 279 137 L 281 135 L 282 130 L 287 126 Q 289 127 288 131 L 291 133 Q 292 137 289 138 L 287 138 L 287 143 L 285 144 Q 281 143 282 137 Q 279 136 280 139 L 277 140 L 267 175 L 246 234 L 250 238 L 271 187 L 278 174 L 281 164 L 286 155 Q 292 134 301 118 L 301 112 L 303 112 L 305 107 L 300 110 Q 297 115 295 112 Q 294 107 297 107 L 296 104 Q 295 98 298 96 Q 297 93 300 94 L 302 101 L 305 100 Q 307 101 305 103 L 307 105 L 312 95 L 312 90 L 318 81 Q 320 82 319 78 L 316 77 Q 315 73 318 74 L 316 70 L 318 67 L 320 68 L 323 62 Q 325 64 325 69 L 325 68 L 326 68 L 325 71 L 326 74 L 324 78 L 326 80 Q 325 85 327 87 Q 328 93 326 97 L 324 98 L 314 114 L 304 138 L 301 149 L 289 172 Q 288 176 292 174 L 295 168 Q 296 164 300 165 L 299 172 L 301 171 L 305 173 L 306 177 Q 299 178 296 175 L 296 177 L 295 179 L 296 182 Q 295 184 298 183 L 299 179 Q 301 180 300 184 L 297 185 L 293 181 L 294 175 L 289 176 L 288 179 Q 289 181 286 180 L 273 209 L 271 217 L 261 241 L 255 252 L 258 269 L 266 282 L 267 287 L 267 289 L 265 293 L 266 295 L 264 302 L 261 305 L 251 308 L 246 311 L 232 312 L 229 315 Q 227 325 221 332 L 219 341 L 223 342 L 229 350 Q 228 355 231 354 L 231 357 L 231 361 L 232 363 L 230 368 L 232 373 Q 233 376 231 375 L 228 379 L 234 389 L 239 403 L 247 418 Q 246 421 249 420 L 249 423 L 255 434 L 254 436 L 249 438 L 252 453 Q 253 458 250 460 L 257 472 L 260 467 Q 264 469 263 465 L 266 463 L 271 455 L 274 455 L 278 460 L 278 468 L 281 468 Q 281 462 286 459 L 285 457 L 286 448 Q 286 443 292 444 Q 294 443 292 442 L 295 436 L 294 432 L 295 428 L 301 422 L 304 422 L 305 425 Q 306 429 304 431 L 310 437 L 313 435 L 315 438 L 318 450 L 320 449 L 320 451 L 323 452 Q 325 451 324 454 L 326 453 L 328 454 L 328 453 Q 330 450 331 453 Q 332 455 329 454 Q 328 457 332 456 L 332 438 L 333 437 L 332 435 L 332 297 L 331 294 L 332 292 L 332 258 L 332 256 L 332 155 L 331 154 L 331 140 L 332 138 L 332 136 L 331 132 L 331 93 L 332 92 L 331 90 L 331 22 L 330 21 L 331 17 L 330 14 L 331 9 L 326 8 L 299 8 L 298 7 L 296 8 L 293 7 L 289 8 L 287 8 L 275 8 L 274 7 L 272 8 L 270 7 L 267 8 L 265 7 L 261 8 L 258 7 L 256 7 L 243 8 L 241 8 L 239 7 L 237 8 L 235 8 L 233 7 L 229 8 L 225 7 L 224 8 L 203 8 L 201 8 L 197 7 Q 192 6 191 8 L 188 7 L 177 9 L 126 8 L 124 8 L 102 8 L 101 7 L 92 7 L 91 8 L 89 7 L 87 8 L 83 7 L 81 7 L 75 8 L 72 7 L 69 8 L 67 8 L 65 7 L 49 7 L 48 8 Q 46 5 40 7 L 38 7 L 36 8 L 34 7 L 19 7 L 18 8 Q 16 6 12 7 Z M 169 19 L 167 21 L 171 25 L 174 21 Q 175 18 169 19 Z M 261 26 L 260 29 L 261 32 L 263 29 Q 264 25 261 26 Z M 298 29 L 297 32 L 299 33 L 298 29 Z M 268 30 L 263 35 L 264 36 L 269 32 Q 270 29 268 30 Z M 307 31 L 302 35 L 303 36 L 307 33 L 307 31 Z M 169 32 L 167 37 L 171 36 L 174 37 L 172 34 Q 173 31 169 32 Z M 253 33 L 254 36 Q 253 38 256 37 L 255 35 Q 256 32 253 33 Z M 264 38 L 261 40 L 266 40 Q 267 37 264 38 Z M 305 38 L 307 40 Q 308 37 305 38 Z M 228 40 L 225 44 L 227 44 L 228 42 L 228 40 Z M 172 42 L 170 45 L 171 47 L 172 45 L 172 42 Z M 196 42 L 194 44 L 196 44 L 196 42 Z M 159 44 L 162 48 L 162 46 L 159 44 Z M 201 45 L 199 47 Q 198 49 201 48 L 201 45 Z M 217 45 L 219 47 Q 220 44 217 45 Z M 293 45 L 293 47 L 293 49 L 292 53 Q 291 55 294 54 Q 296 53 294 52 L 295 48 Q 296 44 293 45 Z M 191 46 L 188 47 Q 187 51 193 49 L 192 48 Q 193 45 191 46 Z M 227 47 L 223 49 L 224 51 L 227 49 L 227 47 Z M 197 48 L 197 50 L 199 49 L 197 48 Z M 159 49 L 157 51 L 160 51 L 159 49 Z M 171 49 L 171 50 L 173 50 L 171 49 Z M 302 49 L 302 52 L 300 55 Q 299 57 302 56 L 303 54 Q 304 50 302 49 Z M 99 51 L 98 56 L 100 55 L 99 51 Z M 164 51 L 162 53 L 163 56 L 165 53 L 166 55 L 167 53 L 164 51 Z M 253 51 L 251 58 L 253 60 L 256 56 L 254 55 L 257 53 L 257 55 Q 259 56 258 53 Q 257 50 253 51 Z M 281 51 L 281 57 L 281 54 Q 283 52 281 51 Z M 105 52 L 102 56 L 103 60 L 106 56 Q 107 51 105 52 Z M 145 53 L 143 55 L 144 57 L 146 58 L 145 53 Z M 168 54 L 168 56 L 170 56 L 169 58 L 171 57 L 171 59 L 170 61 L 172 60 L 172 63 L 173 63 L 171 56 Q 172 53 168 54 Z M 261 54 Q 261 57 258 56 Q 257 59 260 58 L 259 60 L 262 60 L 261 54 Z M 71 56 L 70 63 L 72 64 L 71 56 Z M 47 57 L 47 64 L 49 65 Q 50 59 47 57 Z M 52 58 L 52 65 L 53 65 Q 54 60 52 58 Z M 277 58 L 275 61 L 278 61 L 277 58 Z M 152 59 L 150 61 L 151 63 L 152 61 L 152 59 Z M 167 59 L 163 64 L 168 60 L 167 59 Z M 76 60 L 74 63 L 75 65 L 76 63 L 76 60 Z M 225 60 L 222 61 Q 218 62 219 67 L 221 68 L 220 66 Q 222 61 224 64 L 224 62 L 227 62 Q 225 66 229 65 L 228 64 L 230 64 L 230 63 Q 229 59 225 60 Z M 254 60 L 252 65 L 252 67 L 251 68 L 251 76 L 249 81 L 249 90 Q 246 94 247 103 L 247 105 L 246 107 L 250 105 L 249 104 L 249 103 L 248 101 L 249 98 L 251 98 Q 252 95 249 96 L 252 83 L 251 81 L 253 78 L 252 76 L 252 74 L 254 71 L 253 69 L 254 65 L 254 60 Z M 284 60 L 282 63 L 285 61 L 284 60 Z M 260 61 L 259 63 L 261 62 L 260 61 Z M 193 62 L 191 65 L 191 71 L 193 74 L 193 82 L 195 87 L 195 80 L 195 78 L 193 71 Q 195 69 192 68 L 193 66 L 193 62 Z M 65 63 L 66 68 L 67 68 L 66 65 Q 67 62 65 63 Z M 156 63 L 154 65 L 156 65 L 156 63 Z M 167 63 L 164 67 L 167 65 L 167 63 Z M 169 63 Q 168 66 172 65 Q 173 62 169 63 Z M 104 64 L 101 65 L 102 69 L 102 67 L 105 66 L 107 71 L 103 77 L 109 72 L 108 67 Q 108 63 104 64 Z M 225 64 Q 223 67 226 66 L 225 64 Z M 231 64 L 229 67 L 231 66 L 231 64 Z M 291 64 L 290 67 L 291 67 L 291 64 Z M 43 65 L 42 69 L 44 70 Q 45 66 43 65 Z M 296 65 L 297 67 Q 298 64 296 65 Z M 46 66 L 46 69 L 49 68 L 46 66 Z M 144 66 L 143 69 L 144 78 L 146 78 L 144 71 L 146 68 Q 147 65 144 66 Z M 200 66 L 198 68 L 200 68 L 200 66 Z M 243 66 L 242 69 L 243 69 L 243 66 Z M 167 67 L 165 69 L 166 71 L 167 69 L 167 67 Z M 65 68 Q 63 71 66 72 L 67 72 L 65 68 Z M 153 68 L 151 71 L 154 71 L 153 73 L 154 81 L 156 80 Q 157 72 155 69 L 153 68 Z M 197 68 Q 195 71 198 70 L 197 68 Z M 225 68 Q 223 71 226 70 L 225 68 Z M 258 68 Q 257 71 260 70 Q 261 67 258 68 Z M 73 69 L 73 72 L 75 72 L 73 75 Q 76 76 75 74 L 77 73 L 72 80 L 73 81 L 74 79 L 78 76 L 76 80 L 79 78 L 78 72 Q 77 68 73 69 Z M 51 70 L 48 74 L 51 73 Q 54 72 53 75 L 57 76 L 56 79 L 59 80 L 59 82 Q 56 81 57 84 L 59 83 L 60 87 L 62 91 L 61 93 L 63 96 L 62 97 L 66 101 L 65 104 L 68 104 L 60 83 L 59 77 L 55 74 L 54 72 Q 55 68 51 70 Z M 98 70 L 97 74 L 99 75 L 98 78 Q 100 81 101 78 L 100 76 L 101 74 L 99 73 L 100 71 L 98 70 Z M 168 70 L 166 72 L 168 72 L 168 70 Z M 322 70 L 321 73 L 322 73 L 322 70 Z M 201 71 L 199 73 L 201 74 L 201 71 Z M 222 71 L 220 74 L 218 88 L 218 90 L 219 94 L 220 94 L 219 91 L 221 83 L 220 81 L 222 74 L 222 71 Z M 239 71 L 238 73 L 240 74 L 239 71 Z M 166 72 L 165 76 L 166 76 L 166 72 Z M 258 72 L 259 74 Q 260 71 258 72 Z M 293 72 Q 291 75 294 74 L 293 72 Z M 172 73 L 173 75 Q 174 72 172 73 Z M 70 74 Q 68 77 71 76 L 70 74 Z M 108 74 L 108 79 L 109 79 Q 110 75 108 74 Z M 256 74 L 254 76 L 256 76 L 256 74 Z M 49 75 L 48 78 L 49 78 L 49 75 Z M 73 75 L 71 78 L 73 77 L 73 75 Z M 318 75 L 321 78 Q 323 79 322 77 Q 321 74 318 75 Z M 69 76 L 67 78 Q 66 80 69 79 L 69 76 Z M 256 76 Q 255 79 259 78 Q 260 75 256 76 Z M 293 76 L 291 78 Q 290 80 293 79 L 293 76 Z M 52 77 L 52 78 L 55 78 L 52 77 Z M 80 78 L 77 84 L 80 83 L 80 78 Z M 106 78 L 103 82 L 106 80 L 106 78 Z M 135 78 L 134 81 L 135 81 L 135 78 Z M 165 78 Q 167 80 166 86 L 168 85 L 167 82 Q 168 77 165 78 Z M 171 78 Q 169 81 172 80 L 171 78 Z M 54 80 L 54 82 L 57 82 L 54 80 Z M 69 80 L 70 82 Q 71 79 69 80 Z M 158 80 L 157 85 L 158 96 L 158 98 L 162 114 L 162 111 Q 163 107 167 108 L 166 93 Q 165 90 161 91 L 158 89 Q 161 88 160 84 L 160 82 Q 161 79 158 80 Z M 211 80 L 210 82 L 212 83 L 211 80 Z M 72 81 L 70 83 L 71 85 L 72 83 L 72 81 Z M 74 81 L 74 83 L 76 82 L 74 81 Z M 289 81 L 290 82 L 291 83 Q 292 80 289 81 Z M 321 81 L 318 84 L 319 85 L 322 83 L 323 84 Q 324 80 321 81 Z M 147 82 L 147 85 L 149 84 Q 150 81 147 82 Z M 257 82 L 258 84 Q 259 81 257 82 Z M 74 83 L 72 86 L 74 85 L 74 83 Z M 104 83 L 105 86 L 106 84 L 104 83 Z M 138 83 L 137 86 L 138 86 L 138 83 Z M 151 83 L 149 86 L 151 86 L 151 83 Z M 75 84 Q 74 87 77 86 Q 78 83 75 84 Z M 111 85 L 109 87 L 111 87 L 111 85 Z M 318 85 L 315 89 L 316 92 L 317 88 L 319 88 L 318 85 Z M 129 86 L 129 89 L 131 88 Q 132 85 129 86 Z M 149 86 L 148 89 L 149 89 L 149 86 Z M 168 86 L 167 89 L 168 89 L 168 86 Z M 287 86 L 284 87 L 283 90 L 284 93 Q 283 95 286 94 L 285 90 L 289 91 L 289 90 Q 288 87 287 89 L 287 88 L 287 86 Z M 323 86 L 323 89 L 325 88 Q 326 85 323 86 Z M 82 87 L 80 91 L 82 90 L 82 87 Z M 212 87 L 210 89 L 212 89 L 212 87 Z M 108 88 L 106 90 L 108 91 L 108 88 Z M 111 88 L 111 90 L 113 89 L 111 88 Z M 194 88 L 194 119 L 193 120 L 194 121 L 194 141 L 195 144 L 194 147 L 195 152 Q 196 156 194 158 L 196 166 L 197 161 L 196 157 L 196 155 L 197 153 L 196 151 L 196 137 L 195 134 L 196 131 Q 198 125 195 124 L 196 122 L 195 120 L 196 117 L 195 114 L 195 112 L 196 107 Q 195 104 198 105 L 198 103 L 195 104 Q 194 97 197 96 L 196 95 L 196 94 L 195 92 L 196 89 L 194 88 Z M 256 88 L 257 90 Q 258 87 256 88 Z M 253 89 L 251 94 L 253 94 L 253 89 Z M 56 90 L 56 92 Q 54 93 57 94 L 58 91 L 56 90 Z M 60 90 Q 58 93 61 92 L 60 90 Z M 150 90 L 148 93 L 150 93 L 150 90 Z M 167 90 L 167 92 L 169 91 L 167 90 Z M 81 91 L 81 93 L 84 92 L 81 91 Z M 98 91 Q 96 94 99 95 L 101 94 Q 103 95 102 92 L 98 91 Z M 109 91 L 109 94 Q 112 93 109 91 Z M 175 91 Q 172 92 174 94 Q 173 96 176 95 L 175 91 Z M 171 92 Q 168 93 170 95 L 169 94 L 168 96 L 171 97 L 172 95 L 172 93 L 171 92 Z M 283 92 L 281 100 L 284 98 L 283 92 Z M 324 92 L 323 95 L 322 97 L 324 96 L 324 92 Z M 288 93 L 286 95 Q 285 97 288 96 L 288 93 Z M 61 94 L 59 97 L 61 97 L 61 94 Z M 114 94 L 112 96 L 115 96 L 118 99 L 117 96 L 114 94 Z M 84 95 Q 82 98 85 97 L 84 95 Z M 150 95 L 148 97 L 149 99 L 150 97 L 150 95 Z M 218 95 L 219 98 L 220 96 L 218 95 Z M 320 95 L 317 97 L 319 97 L 320 98 L 320 95 Z M 55 96 Q 53 99 56 98 L 55 96 Z M 198 96 L 196 98 Q 195 100 198 99 L 198 96 Z M 86 97 L 85 100 L 86 100 L 86 97 Z M 151 97 L 150 100 L 151 100 L 151 97 Z M 315 97 L 315 99 Q 311 97 312 101 L 314 101 Q 313 104 316 103 L 315 102 L 317 99 Q 318 96 315 97 Z M 47 98 L 49 101 L 54 102 L 54 100 L 47 98 Z M 77 98 L 75 104 L 79 106 L 80 106 Q 76 104 77 98 Z M 176 98 L 175 101 L 176 101 L 176 98 Z M 222 98 L 222 100 L 224 99 L 222 98 Z M 287 98 L 285 101 L 287 100 L 287 98 Z M 61 99 L 60 101 Q 62 105 64 102 L 61 99 Z M 119 99 L 118 102 L 119 102 L 119 99 Z M 299 99 L 298 103 L 299 103 L 299 99 Z M 114 100 L 112 102 L 114 102 L 114 100 Z M 170 100 L 169 103 L 170 103 L 170 100 Z M 283 100 L 280 104 L 283 102 L 283 100 Z M 304 102 L 302 106 L 304 105 L 304 102 Z M 311 102 L 309 106 Q 311 109 312 106 L 311 102 Z M 175 103 L 175 105 L 177 106 Q 178 102 175 103 Z M 312 103 L 312 105 L 314 104 L 312 103 Z M 58 104 L 55 106 Q 57 109 58 106 L 58 104 Z M 69 104 L 66 107 L 67 108 L 69 107 L 70 110 L 68 111 L 70 111 L 72 115 L 74 115 L 69 104 Z M 121 104 L 115 113 Q 114 116 117 115 Q 117 110 121 108 L 121 104 Z M 171 104 L 170 107 L 171 107 L 171 104 Z M 317 104 L 316 106 L 318 105 L 317 104 Z M 112 105 L 113 108 L 114 106 L 112 105 Z M 81 106 L 80 108 L 78 108 Q 75 107 76 110 L 82 109 L 81 106 Z M 188 106 L 185 110 L 188 108 L 188 106 Z M 117 107 L 115 109 L 117 109 L 117 107 Z M 182 107 L 183 109 Q 184 106 182 107 Z M 196 107 Q 195 110 198 109 Q 199 106 196 107 Z M 250 107 L 250 110 L 251 110 Q 252 106 250 107 Z M 307 107 Q 306 110 309 109 Q 310 106 307 107 Z M 313 107 L 312 109 L 314 108 L 313 107 Z M 114 108 L 113 110 L 115 111 L 114 108 Z M 199 108 L 199 110 L 201 109 L 199 108 Z M 297 108 L 297 110 L 299 109 L 297 108 Z M 153 109 L 150 110 L 151 112 L 153 111 L 153 109 Z M 170 109 L 171 114 L 172 112 Q 173 108 170 109 Z M 176 109 L 174 111 L 175 112 L 177 111 Q 178 108 176 109 Z M 247 109 L 244 119 L 245 125 L 247 121 L 246 118 L 246 116 L 247 114 L 247 109 Z M 310 109 Q 308 112 307 110 L 304 116 L 311 110 L 310 109 Z M 67 110 L 65 112 L 66 114 L 67 114 L 67 110 Z M 82 110 L 80 112 Q 79 115 83 113 L 83 115 Q 79 116 78 113 Q 79 109 75 111 L 81 124 L 81 122 L 85 119 L 86 120 L 83 112 Q 84 109 82 110 Z M 279 110 Q 277 113 280 112 L 279 110 Z M 90 111 Q 89 114 92 113 Q 93 110 90 111 Z M 123 111 L 122 114 L 124 114 L 123 111 Z M 165 111 L 164 114 L 165 114 L 165 111 Z M 168 111 L 167 116 L 168 116 L 168 111 Z M 178 111 L 176 113 L 178 113 L 178 111 Z M 181 111 L 181 113 Q 180 116 183 115 L 182 113 Q 183 110 181 111 Z M 119 112 L 119 114 L 121 113 L 119 112 Z M 209 112 L 208 115 L 209 115 L 209 112 Z M 310 112 Q 309 115 312 114 Q 313 111 310 112 Z M 198 113 L 196 115 L 198 115 L 198 113 Z M 172 114 L 171 118 L 173 119 L 172 114 Z M 190 114 L 185 115 L 181 119 L 183 132 L 183 134 L 186 150 L 188 178 L 189 179 L 188 181 L 192 200 L 192 206 L 193 206 L 193 171 L 192 170 L 192 159 L 192 157 Q 193 152 191 151 L 192 148 L 191 136 L 191 134 L 191 115 L 190 114 Z M 223 114 L 222 117 L 223 117 L 223 114 Z M 277 114 L 276 117 L 277 117 L 277 114 Z M 118 115 L 116 117 L 117 119 L 118 117 L 118 115 Z M 177 115 L 177 118 L 175 119 L 178 119 L 179 116 L 177 115 Z M 308 115 L 302 118 L 297 133 L 305 126 Q 307 127 306 124 L 304 124 L 307 120 L 304 122 L 303 121 L 309 116 L 308 115 Z M 89 116 L 88 119 L 90 120 L 89 116 Z M 95 116 L 94 120 L 96 121 L 95 116 Z M 122 116 L 123 119 L 125 118 L 122 116 Z M 250 116 L 248 119 L 251 118 Q 252 115 250 116 Z M 167 117 L 165 119 L 167 119 L 167 117 Z M 310 117 L 308 119 L 310 119 L 310 117 Z M 119 118 L 117 120 Q 116 122 119 121 L 120 119 L 119 118 Z M 138 118 L 137 121 L 139 122 L 138 118 Z M 160 118 L 159 123 L 160 123 L 160 118 Z M 234 118 L 233 121 L 234 121 L 234 118 Z M 211 119 Q 208 123 212 122 L 211 119 Z M 223 119 L 220 121 L 223 121 L 223 119 Z M 77 120 Q 74 121 75 125 L 75 127 L 78 130 L 84 142 L 84 143 Q 86 142 85 146 L 87 146 L 86 149 L 89 149 L 88 152 L 91 152 L 90 154 L 91 156 Q 92 160 89 162 L 92 160 Q 94 159 93 162 L 92 164 L 95 163 L 96 166 L 94 170 Q 93 173 97 171 L 96 174 L 97 176 L 102 174 L 101 172 Q 98 171 99 174 L 98 174 L 100 171 L 95 158 L 80 130 L 77 120 Z M 93 120 L 91 122 L 94 124 L 93 120 Z M 125 120 L 124 121 Q 121 120 122 123 L 126 122 Q 127 119 125 120 Z M 157 120 L 156 123 L 157 123 L 157 120 Z M 173 120 L 172 128 L 174 127 L 173 123 Q 175 121 173 120 Z M 83 121 L 84 126 L 85 123 Q 86 120 83 121 Z M 87 121 L 85 125 L 86 126 L 87 124 Q 89 122 87 121 Z M 120 121 L 118 123 L 120 127 Q 119 130 122 129 Q 123 124 120 121 Z M 168 121 L 169 123 Q 170 120 168 121 Z M 218 121 L 218 124 L 220 123 Q 221 120 218 121 Z M 249 121 L 248 124 L 250 124 L 249 121 Z M 73 122 L 72 125 L 73 125 L 73 122 Z M 98 122 L 97 125 L 99 126 L 98 122 Z M 222 123 L 220 125 L 221 126 L 223 125 Q 224 122 222 123 Z M 276 123 L 274 130 L 277 129 L 276 123 Z M 112 124 L 110 127 L 113 125 L 112 124 Z M 126 124 L 124 127 L 127 126 Q 128 123 126 124 Z M 165 124 L 165 127 Q 169 128 168 126 L 165 124 Z M 198 125 Q 197 128 200 127 Q 201 124 198 125 Z M 219 125 L 218 130 L 219 130 L 219 125 Z M 244 125 L 240 144 L 241 147 L 242 142 L 243 139 L 243 135 Q 246 136 245 134 L 243 134 L 244 129 L 246 127 L 244 125 Z M 88 126 L 85 130 L 88 128 L 88 126 Z M 90 126 L 88 129 L 90 129 L 91 130 L 90 126 Z M 250 126 L 249 129 L 250 129 L 250 126 Z M 247 127 L 245 129 L 246 130 L 248 129 Q 249 126 247 127 Z M 129 128 L 124 129 L 124 131 L 129 131 L 129 128 Z M 170 128 L 165 129 L 169 150 L 169 155 L 178 194 L 178 200 L 179 200 L 177 176 L 175 169 L 175 162 L 174 161 L 172 140 L 170 128 Z M 174 128 L 173 136 L 175 135 L 174 128 Z M 273 128 L 271 132 L 273 131 L 273 128 Z M 123 129 L 121 131 L 122 133 Q 121 136 124 135 L 123 129 Z M 98 130 L 97 133 L 99 133 L 100 131 L 98 130 Z M 285 130 L 283 132 L 285 132 L 285 130 Z M 86 131 Q 85 135 90 133 Q 91 129 86 131 Z M 247 131 L 245 133 L 247 133 L 247 131 Z M 302 131 L 299 135 L 303 133 L 304 135 L 304 133 L 302 131 Z M 93 132 L 90 135 L 87 134 L 85 135 L 97 158 Q 96 160 99 159 L 100 165 L 107 179 L 112 186 L 128 219 L 146 250 L 146 251 L 150 251 Q 145 234 135 220 L 126 197 L 93 132 Z M 102 132 L 101 133 Q 98 132 99 136 L 100 136 Q 99 133 102 134 L 102 132 Z M 131 132 L 129 134 Q 126 133 127 136 L 131 135 L 131 132 Z M 271 132 L 270 135 L 271 135 L 271 132 Z M 274 132 L 272 134 L 274 134 L 274 132 Z M 221 133 Q 218 138 222 137 L 221 133 Z M 288 133 L 285 134 Q 284 137 288 136 L 288 133 Z M 103 135 L 101 137 L 102 138 L 104 137 Q 105 134 103 135 Z M 125 135 L 123 138 L 125 137 L 125 135 Z M 270 135 L 265 151 L 268 149 L 267 147 L 270 145 Q 271 142 269 143 L 270 141 L 269 140 L 270 138 L 270 135 Z M 297 135 L 295 138 L 298 136 L 297 135 Z M 157 136 L 157 141 L 159 142 L 157 136 Z M 174 136 L 175 144 L 177 140 L 175 140 L 176 138 Q 177 135 174 136 Z M 301 136 L 301 139 L 303 138 L 301 136 Z M 132 137 L 130 138 L 128 142 L 130 142 L 131 140 L 133 141 L 133 137 L 132 137 Z M 80 138 L 81 140 Q 82 137 80 138 Z M 105 138 Q 105 141 102 140 L 103 142 L 105 141 L 105 138 Z M 245 138 L 244 142 Q 248 144 247 140 L 246 140 L 245 138 Z M 298 138 L 293 141 L 289 151 L 289 154 L 287 156 L 287 159 L 280 173 L 281 175 L 288 160 L 290 160 L 289 159 L 290 157 L 293 158 L 294 158 L 292 155 L 289 156 L 290 153 L 293 154 L 293 151 L 296 150 L 295 149 L 293 150 L 296 146 Q 298 147 297 144 L 295 145 L 294 144 L 298 141 L 299 139 L 298 138 Z M 182 139 L 181 147 L 181 149 Q 180 151 183 150 L 182 139 Z M 272 140 L 272 142 Q 271 144 274 143 Q 276 139 272 140 Z M 82 141 L 79 143 Q 81 146 82 143 L 82 141 Z M 104 143 L 104 145 L 106 144 L 104 143 Z M 132 143 L 130 145 L 132 146 L 132 143 Z M 159 143 L 158 147 L 160 146 L 159 143 Z M 176 144 L 175 153 L 177 164 L 178 164 L 177 149 L 176 144 Z M 103 145 L 104 147 Q 105 144 103 145 Z M 271 145 L 271 149 L 273 148 Q 274 144 271 145 Z M 202 146 L 201 149 L 202 149 L 202 146 Z M 243 147 L 244 149 Q 245 146 243 147 Z M 111 148 L 110 150 L 110 152 L 112 152 L 113 153 L 111 148 Z M 134 148 L 132 151 L 134 150 L 134 148 Z M 159 148 L 162 164 L 165 162 L 163 161 L 160 151 L 161 149 L 159 148 Z M 163 148 Q 162 151 165 150 Q 166 147 163 148 Z M 246 148 L 244 150 L 246 150 L 246 148 Z M 84 149 L 84 151 L 86 150 L 84 149 Z M 107 149 L 107 151 L 109 150 L 107 149 Z M 222 149 Q 221 152 224 151 Q 225 148 222 149 Z M 239 149 L 240 152 L 241 150 L 239 149 Z M 104 150 L 105 154 L 106 154 Q 107 149 104 150 Z M 219 150 L 218 163 L 217 164 L 219 164 L 219 150 Z M 270 151 Q 270 155 272 152 L 270 151 Z M 110 152 L 108 155 L 110 156 L 110 152 Z M 165 152 L 164 154 L 166 153 L 165 152 Z M 86 153 L 86 156 L 88 155 Q 89 152 86 153 Z M 135 153 Q 133 156 136 155 L 135 153 Z M 199 153 L 197 155 L 199 155 L 199 153 Z M 202 154 L 201 160 L 202 160 L 202 154 Z M 239 154 L 238 158 L 239 158 L 239 154 Z M 112 155 L 111 158 L 112 158 L 112 155 Z M 269 155 L 270 157 Q 271 154 269 155 Z M 164 156 L 164 158 L 167 158 Q 168 154 164 156 Z M 221 156 L 220 159 L 221 159 L 221 156 Z M 244 156 L 242 159 L 244 158 L 244 156 Z M 264 156 L 262 161 L 264 160 L 269 162 L 269 159 L 267 160 L 267 159 L 264 158 L 264 156 Z M 139 157 L 136 161 L 139 159 L 139 157 Z M 223 158 L 221 162 L 223 163 L 223 158 Z M 238 158 L 237 166 L 238 166 L 238 158 Z M 112 159 L 113 161 Q 114 158 112 159 Z M 140 161 L 139 162 Q 136 161 137 165 L 140 164 L 140 161 Z M 241 161 L 241 163 L 244 162 L 241 161 Z M 262 161 L 256 177 L 257 179 L 259 175 Q 258 172 262 173 L 260 171 Q 259 168 262 169 L 264 171 L 263 168 Q 259 166 262 165 L 262 161 Z M 113 162 Q 112 166 115 165 Q 116 161 113 162 Z M 289 162 L 287 164 L 290 164 L 289 162 Z M 164 164 L 163 167 L 164 167 L 164 164 Z M 179 164 L 178 169 L 179 169 L 179 164 Z M 242 164 Q 239 168 243 167 L 244 168 Q 245 165 242 166 L 242 164 Z M 116 165 L 115 169 L 116 169 L 116 165 Z M 202 165 L 200 168 L 202 169 L 202 165 Z M 197 166 L 195 168 L 196 175 L 197 172 L 196 170 L 197 168 L 197 166 Z M 140 167 L 138 169 L 139 171 L 141 168 L 140 167 Z M 239 167 L 239 173 L 239 170 Q 241 168 239 167 Z M 288 167 L 285 169 L 287 169 L 288 170 L 288 167 Z M 165 168 L 165 176 L 166 176 L 165 168 Z M 167 168 Q 165 171 168 170 L 167 168 Z M 223 168 L 223 172 L 222 174 Q 221 176 224 175 Q 225 170 223 168 Z M 298 168 L 296 171 L 298 170 L 298 168 Z M 117 169 L 116 172 L 118 172 L 117 169 Z M 237 169 L 236 178 L 238 177 Q 240 178 239 176 L 238 176 L 237 169 Z M 285 169 L 284 172 L 284 173 L 287 173 L 285 169 Z M 141 170 L 139 172 Q 138 178 143 179 L 143 177 L 145 177 L 141 175 L 142 172 Q 143 169 141 170 Z M 144 170 L 143 173 L 144 173 L 144 170 Z M 180 170 L 178 172 L 180 172 L 180 170 Z M 240 170 L 241 172 L 243 171 L 240 170 Z M 201 171 L 201 173 L 203 172 L 201 171 Z M 218 171 L 217 176 L 218 176 L 218 171 Z M 169 172 L 167 174 L 169 174 L 169 172 Z M 123 173 L 121 175 L 123 175 L 123 173 Z M 180 173 L 179 179 L 180 179 L 180 173 Z M 299 173 L 299 175 L 302 176 Q 304 177 303 175 L 299 173 Z M 103 174 L 101 177 L 104 179 L 103 174 Z M 283 174 L 278 177 L 277 180 L 278 182 L 279 179 L 281 179 L 283 176 L 283 174 Z M 201 175 L 202 177 Q 203 174 201 175 Z M 98 176 Q 96 180 99 183 L 101 182 L 98 176 Z M 124 176 L 122 178 L 124 178 L 124 176 Z M 167 176 L 166 179 L 167 179 L 167 176 Z M 220 176 L 219 179 L 220 179 L 220 176 Z M 224 176 L 221 179 L 224 179 L 224 176 Z M 197 177 L 196 181 L 197 181 L 197 177 Z M 218 177 L 217 180 L 218 180 L 218 177 Z M 262 177 L 262 179 L 264 178 L 262 177 Z M 122 178 Q 119 183 123 182 L 122 178 Z M 240 178 L 241 180 Q 242 177 240 178 Z M 201 179 Q 200 182 203 181 Q 204 178 201 179 Z M 256 179 L 254 183 L 255 186 L 256 184 L 256 179 Z M 106 180 L 106 184 L 108 185 L 106 180 Z M 144 180 Q 143 183 146 182 Q 147 179 144 180 Z M 181 180 L 180 190 L 182 200 Q 180 206 184 205 L 183 203 L 181 180 Z M 235 180 L 235 185 L 237 185 L 238 183 L 236 183 L 237 181 L 235 180 Z M 170 181 L 169 184 L 170 184 L 170 181 Z M 223 181 L 221 183 L 223 183 L 223 181 Z M 260 181 L 261 183 Q 262 180 260 181 Z M 218 182 L 217 186 L 218 186 L 218 182 Z M 241 182 L 239 184 Q 238 186 241 185 L 241 182 Z M 281 182 L 282 184 Q 283 181 281 182 Z M 184 183 L 185 185 Q 186 182 184 183 Z M 125 184 L 124 187 L 128 188 L 125 184 Z M 109 185 L 108 188 L 110 189 L 109 185 Z M 235 185 L 235 190 Q 234 192 237 191 L 235 185 Z M 237 185 Q 236 188 239 187 Q 240 184 237 185 Z M 261 185 L 259 187 L 261 187 L 261 185 Z M 171 186 L 169 188 L 171 188 L 171 186 Z M 197 186 L 196 189 L 197 189 L 197 186 Z M 254 186 L 253 190 L 254 190 L 254 186 Z M 275 186 L 271 193 L 272 195 L 275 190 L 275 186 Z M 280 186 L 281 188 Q 282 185 280 186 Z M 203 187 L 201 189 L 203 189 L 203 187 Z M 240 187 L 238 189 L 240 189 L 240 187 Z M 184 188 Q 183 191 186 190 Q 187 187 184 188 Z M 111 189 L 110 192 L 112 192 L 111 189 Z M 217 189 L 217 200 L 218 193 L 217 189 Z M 278 189 L 277 191 L 279 192 L 278 189 Z M 184 190 L 183 193 L 183 195 L 186 195 Q 187 191 184 192 L 184 190 Z M 233 191 L 233 193 L 235 192 L 233 191 Z M 253 191 L 250 198 L 251 202 L 252 196 L 254 196 L 253 191 Z M 201 192 L 201 194 L 203 193 L 201 192 Z M 235 193 Q 235 196 232 195 L 231 202 L 234 200 L 233 198 Q 232 195 235 196 Q 238 195 235 193 Z M 275 193 Q 273 196 276 195 L 275 193 Z M 150 194 L 147 197 L 150 203 L 152 200 Q 153 197 151 198 L 149 199 L 150 197 L 150 194 Z M 238 195 L 239 197 Q 240 194 238 195 Z M 203 196 L 201 198 L 203 198 L 203 196 Z M 273 196 L 272 199 L 275 199 L 273 198 L 273 196 Z M 115 197 Q 113 201 116 204 L 118 205 L 115 197 Z M 172 197 L 171 203 L 172 203 Q 171 199 174 200 Q 175 196 172 197 Z M 187 197 L 185 201 L 187 200 L 187 197 Z M 269 197 L 267 203 Q 266 205 269 204 L 271 198 L 269 197 Z M 134 198 L 133 201 L 134 201 L 134 198 Z M 197 198 L 196 211 L 198 212 L 197 207 L 198 204 L 198 202 L 197 198 Z M 238 198 L 236 200 L 238 201 L 238 198 Z M 201 200 Q 200 203 203 202 Q 204 199 201 200 Z M 234 201 L 232 203 L 235 205 Q 236 200 234 201 Z M 152 202 L 150 204 L 153 204 Q 154 201 152 202 Z M 174 202 L 172 204 L 173 206 L 175 203 L 174 202 Z M 215 202 L 215 214 L 214 215 L 216 215 Q 218 214 216 213 Q 215 208 217 207 L 216 205 L 217 203 L 215 202 Z M 222 202 L 218 204 L 222 204 L 222 202 Z M 250 202 L 249 206 L 250 206 L 250 202 Z M 187 203 L 185 205 L 187 206 L 187 203 Z M 232 203 L 229 215 L 233 216 L 234 214 L 233 214 L 230 213 L 232 207 L 232 203 Z M 111 204 L 111 206 L 113 205 L 111 204 Z M 115 205 L 113 208 Q 112 211 115 210 L 114 209 L 116 209 L 115 205 Z M 119 205 Q 119 212 124 218 L 124 221 L 126 220 Q 124 211 119 205 Z M 152 205 L 152 208 L 154 207 Q 155 204 152 205 Z M 237 205 L 234 209 L 237 207 L 237 205 Z M 267 205 L 267 208 Q 270 207 267 205 Z M 175 206 L 173 208 L 174 210 L 175 208 L 175 206 Z M 137 207 L 136 210 L 138 210 L 137 207 Z M 184 207 Q 182 212 184 215 L 188 215 L 186 213 Q 183 212 185 211 L 184 207 Z M 249 207 L 247 209 L 248 213 L 249 210 L 249 207 Z M 155 208 L 153 210 Q 152 214 155 216 L 157 217 L 155 211 Q 157 209 155 208 Z M 186 208 Q 185 212 188 211 Q 189 207 186 208 Z M 201 208 L 201 210 L 203 209 L 201 208 Z M 269 208 L 268 210 L 271 210 L 269 208 Z M 233 209 L 232 212 L 233 212 L 233 209 Z M 174 210 L 175 214 L 176 212 Q 177 209 174 210 Z M 179 210 L 177 212 Q 176 214 179 213 L 179 210 Z M 264 210 L 265 213 L 266 211 L 264 210 Z M 247 213 L 246 217 L 247 217 L 247 213 Z M 219 214 L 218 216 L 221 216 L 219 214 Z M 267 214 L 268 216 Q 269 213 267 214 Z M 139 215 L 139 219 L 140 219 L 139 215 Z M 174 215 L 174 217 L 176 218 Q 177 214 174 215 Z M 180 215 L 178 217 L 180 218 L 180 215 Z M 235 215 L 233 218 L 235 218 L 235 215 Z M 262 215 L 262 217 L 264 216 L 262 215 Z M 197 216 L 189 219 L 181 230 L 180 234 L 177 236 L 178 239 L 172 244 L 175 245 L 175 244 L 177 244 L 182 244 L 187 240 L 187 243 Q 189 246 191 242 Q 195 241 194 244 L 202 240 L 207 240 L 211 246 L 214 245 L 213 243 L 215 240 L 218 246 L 218 253 L 215 253 L 215 255 L 221 257 L 224 254 L 227 241 L 224 232 L 215 221 L 209 217 L 199 216 L 197 216 Z M 184 217 L 185 219 L 187 218 L 184 217 Z M 229 217 L 228 223 L 231 223 L 229 222 L 229 217 Z M 265 217 Q 263 220 266 219 L 265 217 Z M 122 218 L 119 220 Q 121 223 122 220 L 122 218 Z M 231 218 Q 230 221 233 220 L 232 223 L 233 224 L 235 221 L 231 218 Z M 141 219 L 140 221 L 142 222 L 141 219 Z M 177 219 L 175 221 L 177 222 L 177 219 Z M 181 219 L 178 223 L 181 222 L 181 219 Z M 245 219 L 238 238 L 239 240 L 242 231 L 245 232 L 243 229 Q 242 226 246 227 L 246 225 Q 243 226 244 224 L 247 223 L 245 219 Z M 261 219 L 262 221 Q 263 218 261 219 Z M 127 220 L 126 222 L 133 234 L 134 234 L 132 229 Q 133 225 130 226 L 127 220 Z M 164 223 L 162 225 L 164 225 L 164 223 Z M 228 223 L 227 227 Q 229 230 230 227 L 228 223 Z M 262 223 L 261 226 L 263 226 L 264 227 Q 265 222 262 223 Z M 234 224 L 233 226 L 231 227 L 234 227 L 234 224 Z M 126 225 L 124 228 L 126 228 L 126 225 Z M 160 226 L 159 229 L 160 229 L 160 226 Z M 128 229 L 126 231 L 128 231 L 128 229 Z M 226 229 L 228 232 L 230 231 L 226 229 Z M 257 229 L 255 231 L 256 234 L 253 236 L 254 238 L 254 237 L 257 235 L 257 229 Z M 261 229 Q 259 232 262 231 L 261 229 Z M 232 232 L 231 234 L 228 233 Q 227 236 231 235 L 231 238 L 229 238 Q 228 240 232 239 L 233 235 L 232 232 Z M 130 233 L 128 235 L 131 235 L 132 237 L 133 234 L 130 233 Z M 260 233 L 259 236 L 260 236 L 260 233 Z M 134 234 Q 132 238 136 237 L 137 240 L 138 240 L 136 236 Q 137 233 134 234 Z M 168 234 L 166 235 L 165 237 L 168 236 L 168 234 Z M 243 234 L 241 236 L 243 236 L 243 234 Z M 134 237 L 132 239 L 134 240 L 134 237 Z M 246 237 L 247 242 L 245 240 L 243 244 Q 242 248 245 250 L 249 241 Q 250 238 247 239 L 247 237 L 246 237 Z M 169 238 L 166 240 L 168 241 L 167 241 L 165 244 L 170 241 L 169 238 Z M 135 240 L 135 242 Q 134 244 138 243 L 138 246 L 140 245 L 139 241 L 136 242 Q 137 239 135 240 Z M 238 240 L 235 247 L 236 249 L 237 246 L 241 244 L 238 243 L 238 240 Z M 251 240 L 240 266 L 242 269 Q 244 268 243 265 L 246 266 L 245 264 L 246 259 L 249 257 L 248 256 L 250 248 L 253 243 Q 254 239 251 240 Z M 229 241 L 229 243 L 231 244 Q 232 240 229 241 Z M 204 242 L 195 248 L 190 247 L 184 249 L 184 250 Q 188 251 190 249 L 195 250 Q 198 251 197 249 Q 199 244 205 244 Q 206 241 204 242 Z M 169 245 L 167 246 L 168 248 L 170 247 Q 171 244 169 245 Z M 183 245 Q 181 248 180 246 L 176 249 L 176 250 Q 178 249 177 252 L 179 252 L 178 250 L 180 248 Q 184 249 186 247 Q 190 248 189 245 L 187 246 L 183 245 Z M 204 245 L 204 247 L 206 246 L 204 245 Z M 161 247 L 159 250 L 161 249 L 161 247 Z M 239 247 L 239 250 L 240 250 Q 241 246 239 247 Z M 202 248 L 201 251 L 202 251 L 202 248 Z M 213 248 L 212 254 L 213 254 L 213 248 Z M 229 248 Q 227 251 230 250 L 229 248 Z M 134 249 L 134 252 Q 133 254 136 253 L 134 249 Z M 181 249 L 180 251 L 183 251 L 181 249 Z M 235 249 L 231 258 L 233 260 L 234 254 L 236 254 L 235 249 Z M 144 250 L 140 252 L 137 251 L 138 254 L 144 252 L 144 250 Z M 152 252 L 149 254 L 138 256 L 132 260 L 111 286 Q 107 290 107 299 L 102 306 L 102 308 L 105 308 L 109 306 L 115 306 Q 116 309 122 308 L 134 314 Q 136 313 135 316 L 141 320 Q 143 321 142 318 L 139 317 L 140 313 L 147 319 L 149 323 L 152 325 L 152 327 Q 155 326 154 329 L 160 333 L 160 332 L 156 328 L 159 325 L 158 327 L 161 331 L 164 329 L 161 328 L 160 324 L 158 322 L 155 318 L 161 321 L 164 326 L 166 322 L 164 320 L 161 317 L 159 315 L 157 312 L 161 313 L 163 317 L 167 319 L 168 320 Q 167 314 162 312 Q 161 309 164 310 L 166 312 L 165 310 L 167 308 L 168 295 L 169 298 L 170 306 L 170 296 L 171 296 Q 170 299 173 298 L 174 300 L 175 309 L 177 312 Q 176 315 179 314 L 180 312 L 175 300 L 176 288 L 179 306 L 180 306 L 178 289 L 178 287 L 177 283 L 179 280 L 179 292 L 180 293 Q 179 295 182 294 L 183 295 L 180 288 L 182 278 L 184 279 L 183 277 L 186 271 L 187 284 L 188 281 L 188 279 L 187 278 L 187 266 L 186 263 L 185 265 L 185 267 L 182 266 L 183 264 L 183 261 L 180 266 Q 181 268 179 267 L 178 264 L 177 267 L 176 265 L 176 263 L 176 261 Q 173 262 174 266 Q 171 267 172 263 Q 169 262 170 265 Q 167 266 168 263 L 176 257 L 177 259 L 178 255 L 183 256 L 187 254 L 190 255 L 191 252 L 178 254 L 168 260 Q 165 261 166 258 L 162 260 Q 159 261 160 259 L 162 257 L 169 256 Q 170 258 171 256 L 171 253 L 166 254 L 161 255 Q 156 256 157 254 Q 156 251 155 253 L 152 252 Z M 193 252 L 193 254 Q 192 257 195 256 L 195 254 L 197 255 L 200 254 L 207 256 L 207 255 L 206 253 L 193 252 Z M 237 254 Q 237 258 239 255 L 237 254 Z M 209 255 Q 208 257 212 257 Q 213 259 214 257 L 209 255 Z M 226 255 L 226 257 L 228 256 L 226 255 Z M 228 256 L 228 258 L 230 257 L 228 256 Z M 252 256 L 251 260 L 252 263 L 254 257 L 252 256 Z M 216 257 Q 216 261 218 258 L 216 257 Z M 220 258 Q 220 261 225 262 L 225 261 L 220 258 Z M 196 259 Q 194 262 197 261 L 196 259 Z M 232 260 L 232 265 Q 236 266 235 264 L 232 262 L 232 260 Z M 210 262 L 211 264 L 212 264 L 210 262 Z M 202 265 L 200 267 L 202 267 L 202 265 Z M 216 265 L 209 267 L 200 272 L 195 280 L 197 282 L 197 280 L 203 275 Q 204 278 202 277 L 198 284 Q 199 287 196 286 L 196 282 L 194 287 Q 191 286 193 285 L 193 283 L 189 293 L 189 308 L 192 310 Q 196 311 196 308 L 193 306 Q 190 307 191 305 L 195 303 L 191 297 Q 190 293 193 292 L 195 300 L 208 305 L 211 306 L 215 304 L 219 304 L 225 309 L 244 310 Q 245 307 241 308 L 241 304 L 245 301 L 244 304 L 245 308 L 246 301 L 248 302 L 247 307 Q 245 308 248 309 L 249 299 Q 252 298 251 303 L 252 303 Q 251 298 254 299 L 253 306 L 255 305 Q 254 297 257 298 L 259 304 Q 261 303 260 299 L 262 299 L 257 292 L 258 290 L 262 295 L 262 297 L 263 297 L 263 293 L 260 289 L 261 287 L 262 291 L 264 290 L 264 284 L 255 267 L 252 268 Q 249 267 250 270 L 254 269 L 253 272 L 254 275 L 257 276 L 256 279 L 257 281 L 257 285 L 254 280 L 255 278 L 254 277 L 252 277 L 253 283 L 249 284 L 248 279 L 250 278 Q 251 275 248 276 L 244 281 Q 245 285 242 287 Q 243 289 240 288 L 240 284 L 243 278 L 243 275 L 241 273 L 236 280 Q 237 282 234 281 L 235 276 L 235 271 Q 231 273 232 268 L 226 267 L 224 267 L 218 267 L 217 265 L 216 265 Z M 190 266 L 190 280 L 192 277 L 190 266 Z M 196 267 L 196 270 L 196 271 L 199 269 Q 200 266 196 267 Z M 194 268 L 194 274 L 195 272 L 194 268 Z M 183 281 L 184 294 L 185 294 L 184 283 L 183 281 Z M 184 295 L 182 297 L 183 302 Q 185 301 183 300 L 184 298 L 184 295 Z M 199 305 L 199 307 L 201 306 L 199 305 Z M 181 307 L 181 310 L 183 309 Q 184 306 181 307 Z M 205 307 L 205 311 L 205 312 Q 207 313 206 311 L 206 309 Q 207 306 205 307 Z M 168 308 L 167 311 L 167 313 L 168 316 L 169 316 Q 170 310 168 308 Z M 210 308 L 210 310 L 212 309 L 210 308 Z M 108 309 L 107 310 Q 103 309 104 312 L 107 311 L 109 312 L 112 311 L 120 312 L 131 317 Q 133 316 132 319 Q 135 320 134 318 L 132 315 L 121 310 L 108 309 Z M 197 310 L 195 312 L 199 318 L 199 313 L 198 313 L 199 311 L 197 310 Z M 221 310 L 209 341 Q 208 344 212 342 Q 211 336 215 334 Q 214 330 218 331 L 216 329 Q 215 326 218 327 L 217 325 L 219 324 L 223 314 Q 224 311 226 313 Q 228 314 227 311 L 221 310 Z M 187 311 L 186 313 L 188 314 L 187 311 Z M 115 314 L 115 316 L 118 317 Q 120 318 119 315 L 115 314 Z M 181 314 L 179 316 L 181 316 L 181 314 Z M 192 314 L 190 317 L 192 316 L 193 319 L 193 320 L 195 319 L 194 316 L 192 314 Z M 95 315 L 92 318 L 93 320 L 94 317 L 99 319 L 100 317 Q 101 314 95 315 Z M 105 315 L 102 316 L 103 320 L 108 317 L 112 318 L 113 321 L 115 320 L 115 322 L 119 321 L 117 318 L 105 315 Z M 121 316 L 119 318 L 121 318 L 121 316 Z M 122 316 L 124 319 L 127 319 L 122 316 Z M 176 316 L 175 319 L 176 319 L 176 316 Z M 183 317 L 181 320 L 184 319 Q 185 316 183 317 Z M 213 317 L 212 318 Q 208 317 209 320 L 213 319 L 213 317 Z M 214 317 L 214 321 L 216 320 Q 217 316 214 317 Z M 128 319 L 126 321 Q 127 323 129 321 L 129 323 L 131 322 L 128 319 Z M 134 319 L 136 323 L 139 323 L 140 326 L 142 325 L 142 327 L 142 329 L 143 330 L 145 329 L 150 336 L 149 339 L 152 337 L 148 330 L 143 326 Q 144 323 141 324 L 141 322 L 139 322 L 134 319 Z M 196 319 L 194 323 L 194 324 Q 196 323 195 327 L 198 325 L 196 319 Z M 205 319 L 204 321 L 206 322 L 205 319 Z M 99 320 L 97 324 L 99 323 L 99 320 Z M 143 320 L 150 328 L 147 322 L 143 320 Z M 120 321 L 120 323 L 119 325 Q 122 324 121 327 L 123 326 L 122 323 L 125 324 L 126 324 L 120 321 Z M 132 322 L 130 324 L 133 324 L 132 322 Z M 214 322 L 209 323 L 211 326 L 214 324 L 214 322 Z M 175 323 Q 175 327 177 324 L 175 323 Z M 181 323 L 176 330 L 177 331 L 180 329 Q 181 332 183 330 L 182 332 L 183 336 Q 182 338 185 337 L 186 340 L 187 338 L 182 326 Q 183 322 181 323 Z M 89 324 L 85 326 L 87 329 L 89 326 L 89 324 Z M 96 324 L 93 325 L 92 329 L 95 330 Q 96 332 94 331 L 90 335 L 92 336 L 95 334 L 97 330 Q 98 327 95 328 L 96 326 L 96 324 Z M 185 324 L 185 328 L 187 327 L 188 327 L 188 331 L 190 331 L 189 327 L 185 324 Z M 204 324 Q 202 328 206 327 L 206 325 L 204 324 Z M 128 325 L 131 329 L 131 328 L 128 325 Z M 199 325 L 196 329 L 199 328 L 199 325 Z M 80 327 L 79 330 L 80 330 L 80 327 Z M 120 327 L 118 329 Q 115 328 116 331 L 113 333 Q 114 335 112 334 L 106 341 L 121 329 Q 122 326 120 327 Z M 126 327 L 127 329 Q 128 326 126 327 Z M 85 328 L 80 333 L 81 334 L 86 330 L 85 328 Z M 200 328 L 197 333 L 200 332 L 201 335 L 200 335 L 200 337 L 199 336 L 197 340 L 198 340 Q 197 336 201 338 L 202 336 L 203 339 L 202 341 Q 201 343 204 342 L 205 342 L 204 344 L 206 344 L 205 347 L 208 349 L 210 349 L 200 328 Z M 210 328 L 210 333 L 210 331 Q 212 329 210 328 Z M 111 329 Q 110 332 113 331 Q 114 328 111 329 Z M 131 329 L 130 333 L 134 331 L 131 329 Z M 137 329 L 138 331 Q 139 328 137 329 Z M 152 329 L 152 333 L 154 333 L 152 329 Z M 204 329 L 205 334 L 206 334 Q 208 328 204 329 Z M 143 330 Q 142 333 145 332 Q 146 329 143 330 Z M 165 330 L 165 332 L 167 331 L 165 330 Z M 171 330 L 165 336 L 168 342 Q 171 346 178 347 L 179 348 L 173 336 L 174 332 L 172 332 Q 173 329 171 330 Z M 99 331 L 98 334 L 99 336 L 103 334 L 103 332 L 101 333 L 101 332 L 99 331 Z M 124 331 L 124 333 L 126 332 L 124 331 Z M 135 331 Q 135 334 132 333 L 131 336 L 132 337 L 136 333 L 135 331 Z M 84 332 L 84 334 L 86 333 L 84 332 Z M 109 332 L 106 336 L 110 333 L 109 332 Z M 120 332 L 117 335 L 118 337 L 117 339 L 124 334 L 123 333 L 119 336 L 121 333 L 120 332 Z M 188 333 L 188 336 L 190 335 Q 191 332 188 333 Z M 80 334 L 78 337 L 80 336 L 80 334 Z M 162 334 L 160 337 L 162 336 L 162 334 Z M 83 335 Q 83 338 80 337 L 81 339 L 83 338 Q 86 337 83 335 Z M 94 335 Q 94 338 92 337 L 90 340 Q 93 341 92 339 L 94 339 L 94 335 Z M 125 335 L 123 338 L 125 337 L 125 335 Z M 191 335 L 189 337 L 190 339 L 191 339 L 191 335 Z M 193 335 L 192 338 L 193 338 L 193 335 Z M 128 336 L 126 338 Q 127 340 125 339 L 120 345 L 124 342 L 125 344 Q 127 343 125 342 Q 124 339 127 340 L 128 341 L 128 336 Z M 139 336 L 138 338 L 140 339 L 139 336 Z M 157 336 L 159 339 Q 161 340 160 338 L 157 336 Z M 102 337 L 103 340 L 104 338 L 102 337 Z M 115 337 L 113 339 L 115 339 L 115 337 Z M 180 337 L 178 339 Q 177 341 180 340 L 180 337 Z M 71 338 L 70 342 L 71 342 L 71 338 Z M 77 338 L 75 341 L 77 340 L 77 338 Z M 153 338 Q 151 341 154 342 L 155 342 L 153 338 Z M 162 338 Q 163 341 161 340 L 158 344 Q 159 348 155 346 L 153 355 L 151 357 L 150 385 L 150 387 Q 153 388 151 394 L 156 403 Q 155 406 158 405 L 157 409 L 156 408 L 154 409 L 150 408 L 147 407 L 144 408 L 141 414 L 137 416 L 134 415 L 137 413 L 137 412 Q 131 410 133 416 Q 130 417 131 414 L 126 415 L 124 425 L 124 434 L 125 435 L 123 441 L 122 460 L 119 477 L 120 486 L 123 487 L 124 486 L 126 488 L 125 486 L 125 482 L 129 477 L 134 472 L 136 472 L 139 476 L 141 470 L 141 466 L 146 461 Q 149 460 150 463 Q 149 466 153 465 L 162 443 L 173 422 L 174 417 L 187 390 L 193 374 L 181 350 L 180 350 L 171 347 L 164 340 Q 165 337 162 338 Z M 188 338 L 186 342 L 188 343 L 187 345 L 189 345 L 188 348 L 190 348 L 189 350 L 191 349 L 191 353 L 193 352 L 188 338 Z M 131 339 L 131 341 L 133 340 L 131 339 Z M 141 339 L 140 341 L 142 342 L 141 339 Z M 195 339 Q 195 342 192 341 L 195 347 L 197 344 L 195 339 Z M 82 340 L 81 344 L 82 344 L 82 340 Z M 183 340 L 183 342 L 185 341 L 183 340 Z M 182 341 L 180 344 L 182 343 L 182 341 Z M 201 341 L 199 344 L 201 343 L 201 341 Z M 73 342 L 66 360 L 61 365 L 56 376 L 54 375 L 50 383 Q 48 388 52 387 Q 54 386 53 383 L 56 381 L 55 383 L 58 384 L 57 383 Q 55 378 59 379 L 58 378 Q 57 375 60 376 L 61 374 L 60 372 L 63 371 Q 62 367 66 368 L 65 367 Q 64 361 68 361 L 68 358 L 71 356 L 72 358 L 73 352 L 72 349 L 75 343 L 73 342 Z M 103 342 L 101 344 L 102 348 L 103 345 L 103 342 Z M 134 342 L 131 343 L 132 347 L 134 344 L 134 342 Z M 143 342 Q 142 348 137 350 Q 136 352 139 351 L 144 345 L 143 342 Z M 219 342 L 215 350 L 218 348 L 219 350 L 218 355 L 212 362 L 213 363 L 223 354 L 220 353 L 222 352 L 221 351 L 222 346 L 224 350 L 225 348 L 219 342 Z M 89 344 L 87 348 L 89 347 L 89 344 Z M 151 344 L 151 346 L 153 347 Q 154 343 151 344 Z M 184 344 L 184 346 L 186 345 L 184 344 Z M 66 345 L 65 347 L 67 348 L 66 345 Z M 119 345 L 117 347 L 119 347 L 119 345 Z M 125 345 L 125 347 L 127 346 L 125 345 Z M 98 346 L 96 348 L 97 350 L 98 348 L 98 346 Z M 184 346 Q 182 349 185 350 L 187 347 L 185 346 L 185 348 L 184 346 Z M 144 347 L 142 351 L 144 350 L 144 347 Z M 150 347 L 150 353 L 151 353 Q 152 348 150 347 Z M 197 347 L 195 350 L 197 349 L 197 347 Z M 101 349 L 99 355 L 97 357 L 99 357 L 101 352 L 101 349 Z M 117 349 L 117 351 L 119 350 L 117 349 Z M 122 349 L 120 352 L 123 350 L 122 349 Z M 211 349 L 208 354 L 209 356 L 212 352 L 211 349 Z M 91 350 L 92 353 L 93 351 L 91 350 Z M 132 350 L 133 353 L 134 351 L 132 350 Z M 198 350 L 196 352 L 198 353 L 198 350 Z M 135 351 L 135 353 L 137 352 L 135 351 Z M 187 351 L 186 354 L 187 354 L 187 351 Z M 227 351 L 224 356 L 225 358 L 220 361 L 213 369 L 214 370 L 226 361 L 227 355 L 227 359 L 228 359 Q 229 353 227 351 Z M 130 352 L 129 355 L 130 355 L 130 352 Z M 139 352 L 139 354 L 141 353 L 139 352 Z M 144 352 L 142 359 L 144 359 L 144 352 Z M 194 352 L 192 354 Q 191 356 194 355 L 196 363 L 197 363 Q 197 356 194 352 Z M 213 352 L 210 357 L 213 357 L 214 355 L 213 355 L 213 354 L 213 352 Z M 134 353 L 133 356 L 134 356 L 134 353 Z M 138 354 L 135 358 L 138 356 L 138 354 Z M 207 354 L 205 357 L 207 356 L 207 354 Z M 95 355 Q 95 360 91 362 Q 90 364 93 363 L 96 359 L 95 355 Z M 116 355 L 113 359 L 116 357 L 116 355 Z M 131 355 L 131 358 L 130 363 L 133 361 Q 136 362 134 358 L 131 355 Z M 149 355 L 147 357 Q 146 359 149 358 L 149 355 Z M 192 355 L 190 357 L 192 357 L 192 355 Z M 140 356 L 138 359 L 140 359 L 140 356 Z M 189 356 L 188 359 L 189 359 L 189 356 Z M 117 357 L 117 359 L 119 358 L 117 357 Z M 122 357 L 117 363 L 122 359 L 122 357 Z M 202 357 L 196 371 L 197 373 Q 198 367 203 364 L 202 357 Z M 100 358 L 99 361 L 100 361 L 100 358 Z M 209 358 L 207 362 L 208 362 Q 207 359 210 360 Q 211 357 209 358 Z M 136 359 L 136 361 L 138 360 L 136 359 Z M 58 360 Q 55 364 59 363 L 58 360 Z M 125 360 L 125 362 L 127 361 L 125 360 Z M 140 360 L 136 365 L 137 366 L 140 364 L 140 360 Z M 149 360 L 147 364 Q 146 366 149 365 L 149 360 Z M 78 361 L 76 363 L 77 365 L 78 365 L 78 361 Z M 96 361 L 94 365 L 94 366 L 96 365 L 96 361 Z M 144 361 L 143 369 L 144 369 L 144 361 Z M 134 362 L 132 365 L 135 363 L 134 362 Z M 208 362 L 210 366 L 210 364 L 212 364 L 208 362 Z M 195 363 L 196 365 Q 197 362 195 363 Z M 227 363 L 219 368 L 221 371 L 223 370 Q 225 369 223 368 L 225 367 L 226 368 L 229 365 L 227 363 Z M 114 364 L 111 367 L 112 368 L 115 366 Q 116 363 114 364 Z M 77 365 L 76 369 L 77 369 L 77 365 Z M 81 365 L 80 368 L 81 368 L 81 365 Z M 121 365 L 119 368 L 121 367 L 121 365 Z M 127 365 L 125 367 L 127 367 L 127 365 Z M 140 365 Q 140 368 137 367 L 138 369 L 140 368 L 140 365 Z M 98 366 L 97 369 L 99 369 Q 100 365 98 366 Z M 202 366 L 200 368 L 202 368 L 202 366 Z M 134 367 L 132 369 L 134 370 L 134 367 Z M 148 367 L 147 371 L 148 371 L 148 367 Z M 113 368 L 113 370 L 115 369 L 113 368 Z M 118 368 L 114 373 L 119 369 L 118 368 Z M 46 369 L 44 371 L 46 371 L 46 369 Z M 54 369 L 53 372 L 54 372 L 54 369 Z M 87 369 L 88 374 L 89 374 Q 91 368 87 369 Z M 92 369 L 92 372 L 95 371 Q 96 368 92 369 Z M 141 369 L 139 372 L 141 372 L 141 369 Z M 200 369 L 198 373 L 200 372 L 200 369 Z M 230 369 L 227 372 L 226 376 L 227 377 L 228 375 L 230 371 L 230 369 Z M 77 370 L 75 374 L 76 376 L 77 374 L 77 370 Z M 98 370 L 98 371 Q 100 370 99 374 L 100 374 Q 102 369 98 370 Z M 210 370 L 207 373 L 208 375 L 211 373 L 210 370 Z M 217 370 L 216 372 L 217 373 Q 214 372 215 376 L 219 373 Q 221 374 219 376 Q 220 378 222 376 L 223 379 Q 225 378 224 375 L 217 370 Z M 202 371 Q 200 374 203 373 L 202 371 Z M 79 372 L 79 375 L 81 374 Q 82 371 79 372 Z M 132 372 Q 131 375 134 374 Q 135 371 132 372 Z M 113 373 L 111 376 L 113 375 L 113 373 Z M 142 373 L 138 375 L 140 375 L 141 377 L 142 375 L 142 373 Z M 196 373 L 193 378 L 194 379 L 196 376 L 196 373 Z M 45 374 Q 43 377 46 376 L 45 374 Z M 95 374 L 93 376 L 94 377 Q 95 374 99 375 L 95 374 Z M 148 374 L 145 375 L 146 377 L 148 376 L 148 374 Z M 90 375 L 89 381 L 89 383 L 88 388 L 89 391 L 90 388 L 90 375 Z M 209 375 L 208 382 L 214 407 L 215 420 L 219 437 Q 217 442 221 441 L 220 438 L 221 436 L 220 434 L 222 429 L 219 428 L 220 423 L 219 422 L 217 423 L 218 421 L 217 418 L 217 416 L 209 375 Z M 211 375 L 212 377 L 213 377 L 211 375 Z M 219 376 L 216 380 L 219 378 L 219 376 Z M 134 377 L 132 379 L 134 379 L 136 381 L 134 377 Z M 143 377 L 142 380 L 143 380 L 143 377 Z M 196 378 L 192 383 Q 191 385 194 384 Q 193 381 196 380 L 196 378 Z M 199 378 L 198 380 L 200 381 L 199 378 Z M 116 379 L 110 385 Q 109 387 112 386 L 116 381 L 116 379 Z M 206 379 L 204 383 L 206 383 L 206 379 Z M 213 379 L 211 381 L 214 381 Q 215 378 213 379 Z M 222 379 L 220 382 L 218 383 L 220 385 L 221 382 L 223 382 L 226 381 L 228 386 L 226 386 L 227 388 Q 226 390 229 389 L 230 387 L 228 382 L 225 380 L 222 379 Z M 129 380 Q 128 383 131 382 Q 132 379 129 380 Z M 134 381 L 132 384 L 134 383 L 134 381 Z M 148 381 L 147 384 L 148 384 L 148 381 Z M 96 382 L 95 383 Q 92 382 93 385 L 97 383 L 96 382 Z M 226 382 L 225 385 L 226 385 L 226 382 Z M 203 383 L 202 386 L 203 386 L 203 383 Z M 213 383 L 212 386 L 213 387 L 214 385 L 217 386 Q 218 381 213 383 Z M 136 384 L 137 386 Q 138 383 136 384 Z M 192 384 L 191 387 L 192 387 L 192 384 Z M 66 385 L 65 388 L 66 388 L 66 385 Z M 77 385 L 77 387 L 80 386 L 77 385 Z M 205 385 L 204 388 L 205 389 L 207 386 L 205 385 Z M 56 386 Q 55 389 58 388 Q 59 385 56 386 Z M 96 386 L 93 387 Q 91 391 95 390 L 97 387 L 96 386 Z M 200 386 L 199 389 L 200 389 L 200 386 Z M 221 386 L 222 389 L 223 387 L 221 386 Z M 73 387 L 70 394 L 72 394 L 74 390 L 73 387 Z M 191 387 L 188 393 L 192 390 L 191 387 Z M 217 387 L 214 388 Q 213 392 218 390 Q 219 386 217 387 Z M 106 388 Q 102 392 95 392 L 93 392 Q 90 391 91 394 L 84 397 L 81 397 L 78 400 L 76 415 Q 71 421 71 433 L 64 448 L 67 450 L 64 453 L 51 459 L 40 470 L 35 486 Q 33 492 36 494 L 33 505 L 36 506 L 41 512 Q 44 513 45 511 Q 44 507 47 508 L 47 505 L 50 505 L 48 503 L 51 501 Q 53 506 55 503 L 53 498 L 55 498 L 58 500 L 59 497 L 56 496 L 58 493 L 62 496 L 67 490 L 64 486 Q 63 483 67 484 L 69 487 Q 74 484 68 482 Q 67 478 70 479 L 71 483 L 73 482 L 71 479 L 73 476 L 76 478 Q 77 475 74 476 L 74 473 L 78 475 L 80 472 Q 77 473 78 469 L 81 470 L 83 469 L 82 467 L 87 464 L 86 460 L 90 461 L 96 455 L 99 445 L 117 417 L 114 415 L 117 414 L 118 416 L 129 400 L 129 397 L 128 399 L 117 392 Q 113 393 114 390 L 116 390 Q 112 387 106 388 Z M 122 388 L 124 391 L 126 390 L 122 388 Z M 146 388 L 145 391 L 146 391 L 146 388 Z M 66 389 L 64 393 L 67 394 Q 68 396 69 394 L 66 392 L 66 389 Z M 206 389 L 205 392 L 207 392 L 206 389 Z M 199 390 L 197 392 L 199 392 L 199 390 Z M 228 390 L 228 392 L 230 393 Q 231 389 228 390 Z M 128 391 Q 126 394 129 393 L 128 391 Z M 232 391 L 231 393 L 230 396 L 231 398 L 233 399 L 232 397 L 233 394 L 232 391 Z M 217 392 L 215 394 L 219 394 Q 220 391 217 392 Z M 146 393 L 144 395 L 146 395 L 146 393 Z M 188 393 L 185 400 L 188 398 L 188 393 Z M 204 393 L 202 396 L 204 395 L 204 393 Z M 226 393 L 224 395 L 225 397 L 227 396 L 226 393 Z M 125 394 Q 123 397 126 396 L 125 394 Z M 197 394 L 195 396 L 197 397 L 197 394 Z M 193 395 L 192 398 L 193 398 L 193 395 Z M 205 396 L 202 397 L 196 429 L 197 436 L 198 424 L 203 403 L 203 401 Q 202 397 205 398 L 205 396 Z M 216 396 L 214 398 L 218 398 L 219 399 Q 220 394 216 396 Z M 195 397 Q 192 401 196 400 L 197 401 Q 198 398 195 399 L 195 397 Z M 150 398 L 149 400 L 151 399 L 150 398 Z M 185 400 L 182 406 L 183 407 Q 187 405 184 404 L 185 402 L 185 400 Z M 207 400 L 204 401 L 204 402 Q 207 401 206 404 L 208 403 L 207 400 Z M 217 400 L 217 401 L 219 401 L 217 400 Z M 230 400 L 230 402 L 232 401 L 230 400 Z M 150 401 L 150 403 L 152 402 L 150 401 Z M 194 401 L 192 405 L 194 404 L 194 401 Z M 229 401 L 229 404 Q 232 403 229 401 Z M 235 402 Q 232 407 236 406 L 235 402 Z M 149 403 L 147 405 L 150 405 Q 151 402 149 403 Z M 217 403 L 216 408 L 217 408 L 217 403 Z M 219 403 Q 219 407 221 404 L 219 403 Z M 153 404 L 151 407 L 153 406 L 153 404 Z M 140 405 L 141 408 L 142 406 L 140 405 Z M 203 405 L 203 407 L 206 407 L 203 405 Z M 238 405 Q 236 408 239 407 L 238 405 Z M 192 406 L 189 409 Q 187 413 191 412 L 190 411 L 192 408 L 192 406 Z M 209 407 L 209 409 L 211 410 Q 212 406 209 407 Z M 237 407 L 238 413 L 239 413 L 237 407 Z M 234 409 L 232 412 L 234 411 L 234 409 Z M 181 410 L 179 413 Q 178 415 181 414 L 183 414 L 185 414 L 181 410 Z M 208 410 L 208 412 L 210 411 L 208 410 Z M 217 410 L 217 412 L 219 411 L 217 410 Z M 229 410 Q 226 414 230 413 L 229 410 Z M 197 411 L 196 414 L 197 414 L 197 411 Z M 237 412 L 234 415 L 235 417 L 237 414 L 237 412 Z M 220 413 Q 219 416 222 415 Q 223 412 220 413 Z M 241 413 L 239 415 L 241 416 L 241 413 Z M 179 414 L 177 418 L 179 417 L 179 414 Z M 191 414 L 191 417 Q 194 416 191 414 Z M 187 415 L 179 435 L 172 461 L 165 479 L 160 497 Q 158 498 161 499 Q 160 495 163 494 Q 162 490 165 491 L 164 489 L 167 481 L 167 479 L 169 476 Q 168 473 171 474 L 172 471 L 171 467 Q 174 465 172 464 L 176 453 L 178 454 Q 179 451 176 452 L 178 449 L 178 445 L 181 436 L 181 434 Q 184 432 183 428 L 188 429 Q 189 426 186 427 L 184 424 L 186 424 L 185 420 L 188 419 L 187 415 Z M 196 415 L 184 448 L 177 480 L 175 484 L 176 487 L 180 479 L 185 480 L 186 479 L 188 462 L 193 442 L 194 427 L 196 421 L 196 415 Z M 207 415 L 207 417 L 209 416 L 207 415 Z M 230 415 L 234 436 L 237 442 L 241 457 L 242 455 L 241 450 L 241 448 L 240 445 L 240 443 L 240 439 Q 237 439 238 433 L 236 433 L 237 431 Q 238 427 235 428 L 234 424 Q 235 420 232 421 L 233 419 L 231 418 L 232 416 L 230 415 Z M 121 416 L 119 418 L 120 419 L 123 417 L 121 416 Z M 181 416 L 182 418 Q 183 415 181 416 Z M 238 417 L 238 419 L 240 418 L 238 417 Z M 242 417 L 240 419 L 243 420 L 242 417 Z M 177 418 L 176 420 L 179 420 L 177 418 Z M 237 418 L 236 422 L 238 423 L 237 418 Z M 122 419 L 121 420 Q 116 419 117 422 L 121 421 L 121 423 L 118 424 L 115 425 Q 116 427 113 426 L 112 429 Q 113 431 110 430 L 102 446 L 99 455 Q 100 457 98 456 L 95 459 L 93 465 L 96 482 L 99 487 L 100 499 L 103 498 L 105 498 L 109 495 L 107 494 L 110 488 L 108 488 L 111 486 Q 114 484 110 483 L 114 479 L 113 477 L 116 473 L 115 471 L 118 466 L 116 463 L 119 461 L 119 452 L 122 438 L 121 427 L 119 428 L 117 428 Q 118 425 122 426 L 122 419 Z M 188 419 L 188 421 L 190 420 L 188 419 Z M 206 419 L 207 425 L 208 421 Q 209 418 206 419 Z M 227 419 L 225 421 L 227 422 L 227 419 Z M 176 421 Q 174 424 177 423 L 176 421 Z M 223 421 L 222 425 L 223 425 L 223 421 Z M 242 422 Q 239 423 241 425 Q 240 427 243 426 L 242 422 Z M 187 423 Q 186 426 189 425 Q 190 422 187 423 Z M 228 423 L 226 425 L 229 430 L 230 428 L 229 427 Q 226 426 228 425 L 228 423 Z M 245 424 L 242 431 L 243 432 L 247 430 L 248 433 L 247 435 Q 246 438 249 437 L 249 431 L 245 424 Z M 302 424 L 297 430 L 298 435 Q 300 441 295 439 L 296 447 L 291 446 L 288 453 L 291 463 L 287 462 L 284 465 L 283 470 L 284 472 L 284 477 L 281 478 L 281 484 L 287 485 Q 289 484 288 481 L 285 479 L 286 476 L 285 474 L 291 471 L 295 464 Q 294 458 297 457 Q 304 455 302 460 L 306 459 L 309 460 L 311 460 L 313 459 Q 314 461 315 459 L 315 456 L 321 456 L 323 461 L 320 462 L 319 458 Q 316 457 317 460 L 315 460 Q 314 463 317 462 L 314 470 L 314 471 L 318 471 L 318 473 Q 319 475 321 473 L 326 475 L 321 465 L 320 467 L 317 468 L 317 465 Q 321 466 320 463 L 323 464 L 324 462 L 323 455 Q 322 452 321 454 Q 318 455 319 453 L 317 454 L 315 454 L 315 444 L 313 443 Q 314 438 312 437 L 310 439 L 309 445 L 306 444 L 307 441 L 306 439 Q 308 433 303 435 L 303 430 L 303 428 L 302 424 Z M 175 425 L 172 429 L 173 431 L 176 427 L 177 430 L 178 426 L 175 425 Z M 206 425 L 205 429 L 206 429 L 206 425 Z M 214 425 L 213 427 L 215 428 L 214 425 Z M 239 425 L 241 428 L 241 427 L 239 425 Z M 175 431 L 173 433 Q 172 435 175 434 L 175 431 Z M 185 431 L 183 433 L 185 434 L 185 431 Z M 199 431 L 200 433 L 202 432 L 199 431 Z M 213 432 L 215 473 L 217 480 L 217 490 L 218 491 L 219 505 L 221 506 Q 223 507 222 503 L 225 504 L 225 502 L 222 501 L 223 498 L 223 496 L 220 497 L 219 489 L 222 487 L 218 485 L 221 483 L 221 481 L 218 482 L 220 479 L 218 478 L 217 473 L 219 470 L 218 470 L 216 465 Q 215 460 218 459 L 215 458 Q 214 455 218 456 L 218 454 L 217 454 L 215 454 L 215 447 Q 217 445 214 444 L 215 442 L 214 438 L 214 436 L 215 433 L 213 432 Z M 206 433 L 204 435 L 206 435 L 206 433 Z M 240 433 L 241 435 Q 242 432 240 433 Z M 170 434 L 169 438 L 170 438 L 170 434 Z M 172 435 L 173 437 Q 174 434 172 435 Z M 182 435 Q 181 438 184 437 Q 185 434 182 435 Z M 223 435 L 222 439 L 223 439 L 223 435 Z M 225 435 L 225 437 L 224 440 L 226 440 L 227 441 L 226 439 Q 227 434 225 435 Z M 232 435 Q 232 438 229 437 L 230 440 L 232 439 L 232 435 Z M 196 436 L 195 441 Q 199 442 198 440 L 197 440 L 196 436 Z M 168 437 L 168 440 Q 171 439 168 437 Z M 205 437 L 204 444 L 205 444 L 205 437 Z M 167 440 L 162 449 L 163 451 L 163 450 L 165 450 L 169 448 L 166 447 L 165 445 L 167 442 L 167 440 Z M 171 440 L 172 442 Q 173 439 171 440 Z M 175 441 L 174 444 L 175 444 L 175 441 Z M 233 441 L 231 443 L 232 445 L 232 444 L 234 444 Q 235 440 233 441 Z M 221 442 L 221 449 L 222 449 L 221 442 Z M 168 443 Q 167 446 170 445 Q 171 442 168 443 Z M 174 444 L 164 465 L 162 473 L 165 474 L 166 473 L 166 470 L 174 448 L 174 444 Z M 179 444 Q 178 447 181 446 Q 182 443 179 444 Z M 200 444 L 198 446 L 200 446 L 200 444 Z M 246 445 L 244 447 L 246 447 L 246 445 Z M 228 446 L 227 449 L 228 449 L 228 446 Z M 233 446 Q 232 449 235 448 Q 236 445 233 446 Z M 194 448 L 192 453 L 193 456 L 193 454 L 194 454 L 193 458 L 193 459 L 195 458 Q 196 451 194 448 Z M 199 448 L 198 451 L 199 451 L 199 448 Z M 225 448 L 223 450 L 225 450 L 225 448 Z M 232 449 L 234 474 L 235 475 L 235 482 L 228 485 Q 226 483 225 486 L 227 494 L 229 488 L 232 485 L 236 486 Q 238 487 237 483 Q 238 479 243 479 Q 246 480 245 484 L 249 485 L 250 485 L 232 449 Z M 223 452 L 222 459 L 223 460 L 223 468 L 224 469 L 225 482 Q 230 483 232 481 Q 231 478 227 479 Q 226 475 231 477 L 231 475 L 227 476 L 224 465 Q 222 459 226 460 L 227 458 L 225 459 Q 221 457 226 455 L 223 452 Z M 229 452 L 227 454 L 229 455 L 229 452 Z M 161 453 L 156 463 L 157 465 L 159 460 Q 158 457 161 458 L 161 456 L 161 453 Z M 208 455 L 207 458 L 208 458 L 208 455 Z M 20 456 L 18 458 L 18 466 L 20 466 L 19 473 L 16 472 Q 17 469 14 470 L 12 476 L 14 483 L 14 487 Q 11 486 12 489 L 10 487 L 8 489 L 9 492 L 17 489 Q 19 490 18 487 L 20 487 L 20 484 L 23 482 L 24 488 L 26 487 L 27 483 L 26 479 L 27 476 L 24 470 Q 26 461 22 459 Q 23 455 20 456 Z M 248 456 L 246 457 L 245 459 L 249 457 L 248 456 Z M 242 457 L 241 459 L 243 460 L 242 457 Z M 273 457 L 268 464 Q 269 466 266 465 L 266 470 L 264 471 L 259 470 L 258 473 L 259 479 L 268 494 Q 267 497 270 496 L 271 493 L 270 490 Q 270 484 274 483 Q 273 480 276 481 L 277 484 Q 279 483 278 480 L 281 477 L 280 469 L 278 473 L 275 474 L 275 468 L 276 467 Q 277 459 273 457 Z M 333 457 Q 333 460 330 459 L 330 462 L 331 462 Q 330 459 333 460 L 333 457 Z M 192 459 L 188 476 L 189 482 Q 188 476 192 475 Q 191 470 193 469 L 193 465 L 192 467 L 191 467 Q 190 463 193 464 L 194 461 L 193 461 L 192 459 Z M 242 462 L 242 466 L 244 467 L 242 462 Z M 147 463 L 144 466 L 143 474 L 143 476 L 144 480 Q 145 483 142 482 L 142 479 L 138 482 L 139 485 L 141 486 Q 145 485 147 487 L 155 487 L 155 486 Q 157 483 158 486 Q 157 489 160 488 L 164 478 L 163 474 L 160 481 Q 158 484 153 483 L 147 476 L 151 470 L 151 467 L 148 467 L 148 463 L 147 463 Z M 90 464 L 71 489 L 75 489 Q 79 488 78 483 Q 79 479 85 480 L 87 484 Q 86 486 90 485 L 91 488 Q 92 490 96 489 L 92 479 L 91 468 L 90 464 Z M 205 464 L 203 468 L 204 471 L 203 481 L 205 480 L 205 464 Z M 210 464 L 211 466 Q 212 463 210 464 Z M 161 465 L 159 468 L 161 467 L 161 465 Z M 200 466 L 197 488 L 197 490 L 199 493 L 200 495 L 201 495 L 201 480 L 201 478 L 200 466 Z M 228 467 L 226 469 L 228 469 L 228 467 Z M 296 467 Q 294 470 297 469 L 296 467 Z M 154 468 L 156 471 L 157 469 L 154 468 Z M 195 468 L 195 471 Q 198 470 195 468 Z M 209 468 L 209 470 L 211 469 L 209 468 Z M 251 468 L 249 470 L 252 470 L 251 473 L 252 474 L 254 473 L 253 470 L 251 468 Z M 177 469 L 175 472 L 177 471 L 177 469 Z M 154 470 L 150 476 L 154 482 L 156 481 Q 155 478 158 479 L 160 475 L 158 473 Q 154 475 154 480 L 153 480 L 154 476 L 155 474 Q 152 473 153 476 L 151 477 L 154 472 L 154 470 Z M 228 471 Q 226 474 229 473 L 228 471 Z M 247 471 L 246 474 L 247 474 L 247 471 Z M 296 471 L 296 472 L 298 472 L 296 471 Z M 332 471 L 331 474 L 332 474 L 332 471 Z M 30 472 L 29 475 L 30 475 L 30 472 Z M 307 472 L 299 474 L 289 473 L 288 478 Q 290 481 292 477 L 294 479 Q 293 481 292 479 L 290 484 L 290 486 L 290 494 L 291 495 Q 292 499 288 497 L 287 494 L 288 490 L 287 490 Q 288 493 283 491 Q 281 494 280 490 L 273 491 L 273 498 L 272 499 L 270 498 L 264 501 Q 258 502 257 500 L 257 498 L 246 498 L 244 498 L 242 501 Q 238 502 240 498 Q 239 495 238 497 L 234 497 L 232 501 L 229 501 Q 230 497 228 496 L 227 499 L 227 501 Q 226 503 229 502 L 234 503 L 236 500 L 239 502 L 260 502 L 264 502 L 267 503 L 269 502 Q 270 505 276 503 L 278 503 L 298 503 L 298 502 Q 301 500 297 499 L 302 491 L 306 489 L 312 500 L 312 503 L 315 504 L 316 501 Q 314 496 318 497 Q 320 499 319 504 L 322 503 L 325 504 L 323 502 L 324 500 L 324 485 L 327 486 Q 329 483 328 477 L 321 475 L 319 478 L 317 477 L 318 474 L 314 472 L 312 473 L 307 472 Z M 34 473 L 30 475 L 29 478 L 30 482 L 33 483 L 35 479 L 35 477 L 34 473 Z M 193 473 Q 192 476 195 475 Q 196 472 193 473 Z M 208 473 L 209 476 L 209 474 L 211 474 L 208 473 Z M 135 474 L 132 478 L 133 481 Q 132 483 131 481 L 128 483 L 131 488 L 137 487 L 135 483 L 136 480 L 135 474 Z M 214 475 L 213 495 L 216 495 L 214 475 Z M 254 475 L 253 478 L 254 478 L 254 475 Z M 117 476 L 115 478 L 117 478 L 117 476 Z M 191 477 L 190 480 L 191 480 L 191 477 Z M 209 477 L 209 479 L 211 478 L 209 477 Z M 249 477 L 251 481 L 253 480 L 252 479 L 252 478 L 249 477 Z M 194 478 Q 192 481 195 480 L 194 478 Z M 254 478 L 254 480 L 256 481 Q 257 477 254 478 Z M 207 480 L 207 482 L 209 481 L 207 480 Z M 211 480 L 209 482 L 211 482 L 211 480 Z M 116 481 L 114 483 L 115 485 L 116 485 L 116 481 Z M 182 481 L 180 483 L 181 493 L 186 496 L 189 496 L 184 493 L 185 484 L 182 481 Z M 205 481 L 203 485 L 205 484 L 205 481 Z M 242 481 Q 238 483 240 488 L 238 489 L 241 494 L 244 496 L 254 496 L 252 489 L 251 489 Q 252 492 249 491 L 248 486 L 247 488 L 244 489 Q 245 484 242 481 Z M 255 481 L 253 483 L 255 484 L 255 481 Z M 257 481 L 256 484 L 258 485 L 257 481 Z M 83 482 L 80 486 L 81 488 L 84 487 Q 86 481 83 482 Z M 169 482 Q 168 485 171 484 Q 172 481 169 482 Z M 190 482 L 189 485 L 190 485 L 190 482 Z M 188 483 L 186 492 L 190 493 L 187 490 L 189 488 L 188 483 Z M 252 483 L 253 485 Q 254 482 252 483 Z M 260 485 L 258 487 L 260 488 L 260 485 Z M 275 485 L 273 487 Q 272 491 276 489 L 275 485 Z M 205 486 L 204 491 L 206 492 L 205 486 Z M 253 486 L 257 493 L 258 491 L 259 493 L 259 491 L 255 489 L 256 487 L 253 486 Z M 31 487 L 27 489 L 27 490 L 32 489 L 31 487 Z M 231 487 L 232 491 L 235 489 L 231 487 Z M 280 487 L 281 489 Q 282 486 280 487 Z M 141 488 L 138 489 L 137 491 L 140 490 L 142 491 L 143 489 L 141 488 Z M 210 488 L 208 491 L 210 490 L 210 488 Z M 262 488 L 260 490 L 261 496 L 257 494 L 260 499 L 264 498 L 266 495 L 264 494 Q 261 493 263 492 L 262 488 Z M 117 489 L 115 493 Q 112 492 113 495 L 108 499 L 108 501 L 108 502 L 107 500 L 102 501 L 103 503 L 105 502 L 107 504 Q 108 507 106 506 L 104 509 L 100 510 L 98 510 Q 96 516 102 514 L 102 518 L 98 516 L 100 520 Q 101 523 97 521 L 96 534 L 104 535 L 105 530 L 107 533 L 108 527 L 110 530 L 110 526 L 112 526 L 111 524 L 115 526 L 116 521 L 117 525 Q 120 526 119 522 Q 122 521 121 524 Q 124 525 123 523 L 126 524 L 126 521 L 130 523 L 133 519 L 134 520 L 132 520 L 134 523 L 137 521 L 140 518 L 139 517 Q 140 514 142 516 L 142 515 Q 141 512 140 514 L 133 512 L 130 513 L 126 512 L 126 514 L 125 516 L 124 516 Q 125 511 122 512 L 123 515 L 123 516 L 122 514 L 120 515 L 118 514 L 117 508 L 115 509 Q 112 510 113 506 L 114 504 Q 111 503 112 506 L 110 505 L 113 503 Q 114 500 112 501 L 110 502 L 114 497 Q 113 493 117 495 Q 116 492 119 491 Q 120 488 117 489 Z M 176 489 L 176 491 Q 175 494 178 493 L 177 491 Q 178 488 176 489 Z M 78 490 L 67 492 L 61 501 L 61 503 L 67 502 L 68 503 L 93 503 L 94 499 L 93 497 L 96 491 L 94 492 L 84 490 L 82 491 L 78 490 Z M 147 490 L 146 492 L 148 491 L 147 490 Z M 155 490 L 153 492 L 155 492 L 155 490 Z M 127 491 L 126 496 L 127 499 L 128 496 Q 127 493 130 494 L 131 492 L 127 491 Z M 152 491 L 151 495 L 152 495 L 152 491 Z M 236 491 L 233 495 L 238 495 L 238 493 L 236 491 Z M 16 492 L 10 494 Q 7 495 8 500 L 8 502 L 10 503 L 30 503 L 33 492 L 30 493 L 16 492 Z M 145 492 L 142 496 L 145 494 L 145 492 Z M 157 492 L 158 496 L 159 494 Q 160 491 157 492 Z M 195 492 L 195 494 L 192 496 L 198 496 L 197 495 Q 198 491 195 492 Z M 230 492 L 228 494 L 230 494 L 230 492 Z M 305 492 L 306 494 Q 307 491 305 492 Z M 149 493 L 147 496 L 149 495 L 149 498 L 150 498 Q 152 492 149 493 Z M 172 493 L 169 502 L 170 503 L 190 503 L 193 502 L 195 503 L 199 502 L 200 505 L 170 505 L 167 504 L 166 507 Q 160 507 158 504 L 155 506 Q 148 504 138 505 L 136 505 L 131 506 L 129 505 L 127 505 L 120 505 L 120 508 L 123 509 L 127 508 L 129 509 L 131 508 L 134 510 L 136 509 L 154 509 L 155 508 L 156 509 L 198 509 L 200 509 L 201 509 L 201 498 L 200 498 L 185 498 L 172 493 Z M 156 494 L 154 496 L 155 498 L 156 498 L 156 494 Z M 163 494 L 163 496 L 166 496 L 163 494 Z M 307 494 L 307 498 L 308 498 L 307 494 Z M 330 494 L 327 498 L 327 504 L 330 504 L 332 504 Q 334 505 333 503 L 330 501 L 330 494 Z M 142 496 L 140 498 L 142 498 L 142 496 Z M 213 497 L 213 503 L 216 503 L 217 501 Q 213 502 214 499 L 217 499 L 213 497 Z M 152 498 L 151 502 L 153 501 L 152 498 Z M 157 499 L 154 503 L 157 503 L 157 499 Z M 164 499 Q 163 502 166 501 Q 167 498 164 499 Z M 206 499 L 206 502 Q 209 501 206 499 Z M 135 500 L 134 502 L 136 501 L 135 500 Z M 210 500 L 207 502 L 210 502 L 210 500 Z M 303 500 L 303 502 L 301 503 L 309 503 L 309 500 L 303 500 Z M 96 501 L 98 504 L 102 504 L 96 501 Z M 160 501 L 158 503 L 161 504 L 163 504 L 160 501 Z M 17 504 L 16 505 L 8 505 L 10 509 L 25 509 L 27 507 Q 29 508 28 505 L 24 506 L 17 504 Z M 206 504 L 207 506 Q 208 503 206 504 Z M 210 504 L 208 506 L 210 506 L 210 504 Z M 214 504 L 213 509 L 233 509 L 234 510 L 236 509 L 261 509 L 262 510 L 266 509 L 268 509 L 276 509 L 277 510 L 279 509 L 284 510 L 286 509 L 288 510 L 296 510 L 297 509 L 299 510 L 332 510 L 332 506 L 324 506 L 323 505 L 282 505 L 279 504 L 274 505 L 273 504 L 265 504 L 263 504 L 232 504 L 231 505 L 229 504 Q 226 503 227 506 L 221 508 L 219 508 L 218 507 L 216 504 L 214 504 Z M 51 505 L 52 507 Q 53 504 51 505 Z M 59 505 L 56 509 Q 61 511 63 508 L 64 509 L 96 509 L 95 505 L 93 506 L 82 505 L 80 505 L 71 505 L 70 506 L 69 505 L 59 505 Z M 31 508 L 32 510 L 30 511 L 29 513 Q 31 512 30 515 L 31 516 L 27 515 L 28 523 L 28 522 L 29 522 L 28 527 Q 31 528 29 530 L 33 547 L 35 548 Q 37 547 36 543 L 38 541 L 37 539 L 39 538 L 38 536 L 40 535 L 39 540 Q 38 542 42 541 L 41 540 Q 40 535 43 535 L 43 533 L 40 534 Q 39 530 43 531 Q 44 528 42 529 L 40 529 L 39 532 L 37 533 L 38 531 Q 37 528 36 530 L 35 527 L 30 524 L 32 523 L 33 520 L 32 518 L 34 515 L 35 517 L 36 512 Q 36 508 31 508 Z M 208 509 Q 208 513 210 510 L 208 509 Z M 10 511 L 8 513 L 9 516 L 8 518 L 9 520 L 8 523 L 9 560 L 9 562 L 9 571 L 8 572 L 9 584 L 9 586 L 8 591 L 12 592 L 16 591 L 18 592 L 21 591 L 24 592 L 28 591 L 29 592 L 94 592 L 96 592 L 107 592 L 108 591 L 111 592 L 119 591 L 121 591 L 123 592 L 127 591 L 129 591 Q 133 590 135 592 L 136 591 L 217 591 L 218 590 L 237 590 L 238 591 L 255 591 L 256 590 L 257 591 L 272 591 L 273 592 L 275 591 L 276 592 L 307 592 L 309 592 L 312 593 L 317 592 L 332 592 L 333 591 L 333 547 L 328 548 L 326 547 L 321 548 L 319 548 L 315 547 L 317 557 L 317 568 L 316 569 Q 315 573 317 575 Q 318 578 316 579 L 313 573 L 314 569 Q 316 557 312 551 Q 313 547 310 548 Q 311 553 309 555 Q 305 553 307 547 L 310 546 Q 313 547 312 544 Q 307 545 304 542 L 305 539 L 312 538 L 312 536 L 306 536 L 306 531 L 313 531 L 313 526 Q 318 528 316 523 L 321 522 L 323 522 L 325 523 L 326 526 L 322 528 L 316 528 L 316 531 L 318 530 L 321 531 Q 325 530 323 534 L 332 533 L 332 512 L 289 512 L 287 512 L 281 511 L 279 511 L 277 512 L 273 511 L 271 511 L 258 511 L 257 512 L 254 511 L 252 512 L 250 511 L 246 512 L 244 511 L 235 511 L 234 512 L 231 511 L 228 512 L 223 511 L 219 511 L 217 512 L 214 511 L 212 513 L 212 525 L 210 527 L 206 528 L 204 527 L 201 525 L 201 512 L 198 512 L 195 511 L 193 511 L 188 512 L 185 511 L 183 512 L 160 512 L 159 511 L 157 512 L 145 512 L 144 519 L 132 526 L 122 527 L 104 538 L 98 538 L 92 533 L 94 529 L 94 523 L 96 517 L 95 515 L 95 512 L 73 512 L 70 511 L 68 512 L 66 512 L 64 511 L 61 512 L 59 511 L 57 511 L 55 512 Q 53 510 52 513 L 53 518 L 51 524 L 53 523 L 55 523 Q 54 526 57 525 L 54 530 Q 50 529 51 533 L 54 534 Q 55 537 57 533 Q 59 532 58 536 Q 52 537 49 535 L 48 531 L 46 537 L 49 545 L 52 547 Q 60 546 64 549 L 73 557 L 72 560 L 67 559 L 65 559 L 39 558 L 36 557 L 34 557 L 32 558 L 24 556 L 22 555 Q 23 546 20 542 L 17 540 L 14 537 L 15 531 L 24 520 L 24 511 L 22 512 L 10 511 Z M 47 513 L 44 514 L 42 518 Q 40 519 43 521 Q 42 524 45 523 Q 46 525 47 523 L 44 522 L 45 519 L 43 518 L 44 515 L 49 516 L 49 515 L 47 513 Z M 206 513 L 206 515 L 208 514 L 206 513 Z M 206 515 L 204 517 L 205 521 L 206 517 L 206 515 Z M 38 517 L 35 522 L 37 522 L 38 520 L 38 517 Z M 42 520 L 39 524 L 40 525 L 42 522 L 42 520 Z M 208 520 L 208 524 L 209 524 L 208 520 Z M 205 522 L 204 525 L 208 525 L 205 522 Z M 26 523 L 27 525 Q 28 522 26 523 Z M 25 526 L 25 528 L 27 527 L 25 526 Z M 37 526 L 38 528 Q 39 525 37 526 Z M 113 526 Q 110 530 114 529 L 113 526 Z M 24 529 L 24 531 L 28 532 L 28 530 L 24 529 Z M 18 530 Q 17 533 20 532 Q 21 529 18 530 Z M 316 532 L 316 534 L 321 534 L 316 532 Z M 317 536 L 316 538 L 328 537 Q 331 539 328 540 L 324 539 L 322 540 Q 314 538 315 542 L 332 541 L 333 538 L 332 536 L 317 536 Z M 39 541 L 39 546 Q 40 550 37 552 L 43 555 L 43 550 L 41 551 L 39 552 L 41 547 L 39 544 L 41 543 L 39 541 Z M 42 541 L 42 543 L 44 542 L 42 541 Z M 310 541 L 310 542 L 312 542 L 310 541 Z M 43 543 L 42 547 Q 45 548 45 552 L 47 551 L 48 546 L 44 547 L 45 545 Q 46 542 43 543 Z M 325 543 L 324 544 L 316 544 L 315 546 L 320 545 L 322 546 L 324 545 L 327 546 L 332 545 L 332 543 L 325 543 Z M 38 545 L 37 548 L 38 548 L 38 545 Z M 42 547 L 41 550 L 42 550 L 42 547 Z M 51 549 L 50 552 L 49 551 L 47 555 L 51 554 L 53 554 Q 56 555 54 551 L 51 549 Z M 57 550 L 55 552 L 57 555 L 61 554 L 63 555 L 65 555 L 60 550 L 57 550 Z M 46 552 L 44 554 L 46 555 L 46 552 Z "></path><path d="M 259.5 107 L 264.5 108 Q 266.2 105.3 268 109.5 Q 264.3 111.3 264 116.5 L 265 118.5 Q 264.3 120.8 260.5 120 L 259 117 Q 256 115.8 257 119.5 L 254.5 121 L 255 119.5 L 256 111.5 L 259.5 107 Z M 260 109 L 259 112 L 260 112 L 260 109 Z "></path><path d="M 302.5 125 L 301.5 127 L 302.5 125 Z "></path><path d="M 220 244 Q 223.3 242.7 222 247.5 L 223 250.5 L 220.5 255 Q 217.9 255.8 219 252.5 L 220 251.5 L 220 244 Z "></path><path d="M 28.5 260 L 28 261.5 L 27.5 263 L 27 261.5 L 28.5 260 Z "></path><path d="M 155.5 261 Q 159.9 259.5 159 262.5 L 156.5 263 Q 149.6 264.6 147 270.5 L 144 278 Q 141 279.3 142 275.5 L 153.5 262 L 155.5 261 Z "></path><path d="M 211.5 269 L 214 269.5 L 206.5 273 L 207.5 271 L 211.5 269 Z "></path><path d="M 202.5 279 Q 204.8 278.3 204 280.5 L 201 287 Q 198 288.3 199 284.5 L 202.5 279 Z "></path><path d="M 245 282 Q 248 281 247 284 Q 244 285 245 282 Z "></path><path d="M 204.5 285 L 206 285.5 Q 202.2 287.7 203 294.5 L 204 297 L 199 295 L 199 289.5 L 200.5 289 L 202 289.5 L 204.5 285 Z "></path><path d="M 207.5 288 L 208 290.5 L 206.5 299 Q 204.3 298.3 205 294.5 L 207.5 288 Z "></path><path d="M 195 291 Q 198.3 289.7 197 294.5 L 201 299.5 L 199.5 299 L 196 296.5 L 195 291 Z "></path><path d="M 210.5 296 L 211 299 Q 208.3 300.1 209 297.5 L 210.5 296 Z "></path><path d="M 215 298 Q 217.7 296.9 217 299.5 L 215 300.5 L 215 298 Z "></path><path d="M 218 299 Q 221 298 220 301 Q 217 302 218 299 Z "></path><path d="M 231.5 303 L 232 304.5 L 230 305.5 L 231.5 303 Z "></path><path d="M 234.5 303 L 235 308 Q 231.7 309.3 233 304.5 L 234.5 303 Z "></path><path d="M 237.5 303 L 238 308 Q 234.7 309.3 236 304.5 L 237.5 303 Z "></path><path d="M 148.5 315 L 156 323.5 L 156 326 Q 153.3 327.1 154 324.5 L 147 316.5 L 148.5 315 Z "></path><path d="M 63.5 365 L 62.5 367 L 63.5 365 Z "></path><path d="M 117 395 L 126 400.5 Q 126.8 402.8 124.5 402 L 117 397 L 117 395 Z "></path><path d="M 118.5 401 L 123 402 Q 124.3 406.1 121 405 Q 122.1 402.3 119.5 403 L 118.5 401 Z "></path><path d="M 117.5 405 L 121 406 L 120.5 408 L 117.5 405 Z "></path><path d="M 117 409 Q 120 408 119 411 Q 116 412 117 409 Z "></path><path d="M 190.5 469 L 191 472.5 L 190 472.5 L 190.5 469 Z "></path><path d="M 157.5 475 L 158 477 L 156 476.5 L 157.5 475 Z "></path><path d="M 311.5 475 L 313 478.5 L 314 481.5 L 312.5 484 Q 309.8 482.6 311 478 Q 306.9 479.3 308 476 L 311.5 475 Z "></path><path d="M 295 477 L 300 477 L 300 479 L 295.5 480 L 295 477 Z "></path><path d="M 320.5 478 L 324 479 L 325 481.5 Q 323.3 484.8 321.5 481 L 319 479.5 L 320.5 478 Z "></path><path d="M 304.5 479 L 306 482 Q 302.5 483.1 304.5 479 Z "></path><path d="M 315.5 479 L 316 481.5 L 315 481.5 L 315.5 479 Z "></path><path d="M 299 480 Q 302.3 478.9 301 483 Q 297.7 484.1 299 480 Z "></path><path d="M 308.5 480 L 309 482 L 307 481.5 L 308.5 480 Z "></path><path d="M 295 481 Q 298.3 479.9 297 484 Q 293.7 485.1 295 481 Z "></path><path d="M 319.5 482 L 323 484 L 321.5 488 L 318 483.5 L 319.5 482 Z "></path><path d="M 314 483 Q 317 482 316 485 Q 313 486 314 483 Z "></path><path d="M 312.5 485 L 313 495 L 311 494.5 L 311 486.5 L 312.5 485 Z "></path><path d="M 278 492 Q 281.3 490.9 280 495 Q 276.7 496.1 278 492 Z "></path><path d="M 16.5 493 Q 18.8 492.3 18 494.5 L 9 498 Q 7.9 495.3 10.5 496 L 16.5 493 Z "></path><path d="M 106.5 507 L 108 510.5 L 107 510.5 L 106.5 507 Z "></path><path d="M 106.5 512 L 108.5 515 L 106 514 L 106.5 512 Z "></path><path d="M 109.5 512 L 112 513.5 L 112.5 512 L 113.5 514 Q 111.3 513.3 112 515.5 L 112 517.5 L 110.5 521 L 109 520.5 L 112 516.5 L 109.5 512 Z "></path><path d="M 116.5 512 L 115.5 514 L 116.5 512 Z "></path><path d="M 132.5 515 L 134.5 515 Q 136.8 514.3 136 516.5 L 133.5 517 L 132.5 515 Z "></path><path d="M 28.5 516 L 31 519.5 L 28 517.5 L 28.5 516 Z "></path><path d="M 114 518 L 116 518.5 L 114 519.5 L 114 518 Z "></path><path d="M 121.5 519 Q 123.8 518.3 123 520.5 L 121.5 519 Z "></path><path d="M 32.5 526 L 34 528.5 L 32 529.5 L 32.5 526 Z "></path><path d="M 33.5 531 L 36 534.5 L 33 532.5 L 33.5 531 Z "></path><path d="M 32.5 534 L 33 536 L 35 536.5 L 32.5 538 L 32 535.5 L 32.5 534 Z "></path><path d="M 33.5 540 Q 35.8 540.8 35 544.5 L 34 544.5 L 33.5 540 Z "></path><path d="M 320.5 549 Q 325.5 551.5 320.5 554 L 318 550 L 320.5 549 Z "></path><path d="M 338.5 590 L 339 592.5 L 338 592.5 L 338.5 590 Z "></path><path d="M 342.5 590 L 343 592.5 L 342 592.5 L 342.5 590 Z "></path></svg>